<?xml version="1.0" encoding="utf-8"?>
<!-- Generator: Adobe Illustrator 25.0.0, SVG Export Plug-In . SVG Version: 6.00 Build 0)  -->
<svg version="1.1" id="Layer_1" xmlns="http://www.w3.org/2000/svg" xmlns:xlink="http://www.w3.org/1999/xlink" x="0px" y="0px"
	 viewBox="0 0 500 500" style="enable-background:new 0 0 500 500;" xml:space="preserve">
<style type="text/css">
	.st0{fill:#B51B2C;}
	.st1{fill:#030304;}
	.st2{fill:#020203;}
	.st3{fill:#13110C;}
	.st4{fill:#CE536A;}
	.st5{fill:#F192AC;}
	.st6{fill:#E3748C;}
	.st7{fill:#C0364A;}
	.st8{fill:#EE7289;}
</style>
<g>
	<path class="st1" d="M236.23,244.9c1.48,1.07,2.36-0.86,3.27-1.73c7.97,10.11,32.71,11.48,37.78-1.67c0.9,0.69,2.01,1.92,3.07,0.75
		c1.32-1.9-1.8-3.03-3.07-3.99c-3.58-2.9-7.66-0.14-2.37,1.85c-6.89,12.98-25.72,9.29-33.37,1.24c2.2-0.79,3.15-4.14,0.02-3.34
		C239.78,239.58,234.6,242.18,236.23,244.9z"/>
	<path class="st1" d="M321.42,253.58c-5.89-11.3-17.79-2.91-16.13,6.5c-1.49,0.02-2.58,0.19-3.48,0.42
		c-0.15-3.56-0.44-8.79-4.66-13.1c2.71-3.1-2.06-4.48-2.75-7.33c-0.31-1.76-0.85-3.15-1.47-4.25c3.98-2.01,2.12-9.44-2.35-6.25
		c-0.11-0.09-0.27-0.39-0.44-0.74c0,0-1.16,1.61-1.96,1.98c0.64,1.64,3.62,1.8,4.3,0.78c0.39,1.41-2.5,3.1-4.93,2.58
		c4.03,1.67,3.7,9.14,7.61,11.33c-0.93,0.02-2.39,0-3.61-0.36c0.63,2.37,2.29,2.69,3.93,4.54c5.77,4.26,0.5,18.35,8.37,14.26
		c-0.83,3.23-8.92,6.34-9.64,0.76c-4.35,3.84-7.04,12.81,1.31,10.24c-1.06,3.38-9,4.38-10.48-0.5c-1.83,5.31,2.33,9.03,6.44,7.68
		c-3.35,4.3-11.87,0.33-12.68-1.17c-2.84,4.34,0.22,8.37,4.11,7.89c-5.56,2.26-12.21,0.37-18.7-2.27c-0.43,2.88,3.62,5.88,5.87,6.1
		c-11.59,4.48-20.87-4.18-21.29-8.42c-3.24,2.37,0.37,10.63,0.41,10.67c-10.54-5.26-12.93-14.61-12.74-17.89
		c0.12,9.85-18.06,13.97-17.12,2.79c-0.04,0.83,1.19,3.22,2.94,2.29c2.3-0.86,2.04-5.29,2.61-8.77c-2.46,3.4-7.04,1.97-8.61-1.63
		c2.54,1.79,4.35,0.66,6.2-3.5c2.17-4.95-0.81-8.69-1.05-12.8c-1.3,1.63-3.86,1.58-4.82,0.91c0.05,0,3.25-0.29,3.44-7.08
		c0.16-5.07,3.93-6.39,3.93-6.39c-2.48,0.68-4.76-1.47-4.4-2.57c4,3.76,5.04-6.23,8.42-9.86l-1.54-2.53
		c-2.56,2.82-3.87,6.87-5.46,10.04c-4.14-1.87-5.56,3.99-2.41,6.27c-1.4,1.37-1.23,9.02-2.5,9.42c-5.7,2.68,0.35,6.92,3.34,5.87
		c0.05,0.16,0.1,0.32,0.15,0.48l-4.95,1.28c-0.93-0.62-2.55-1.11-5.32-1.14c0,0,1.01-8.52-5.69-11.36
		c-6.7-2.84-10.44,4.86-10.44,4.86c-3.5,1.1,7.99,18.97,13.56,22.88c2.72,3.72,4.49,3.33,8.81-1.03c1.63,1.76,3.73,2.76,5.98,2.63
		c-0.1,0.61-0.22,1.15-0.37,1.45c-0.31,0.04-1.45,0.19-1.78,0.24l-0.06-0.05c0,0,0,0.01,0,0.01c-0.58-0.35-1.76-1.07-2.34-1.43
		c-2.77,12.3,11.77,13.59,18.73,6.98c-0.11,3.43,18.7,20.98,15.5,7.27c2.85,3.88,21.1,7.06,21.58-0.45
		c4.18,0.94,15.86,1.13,12.01-5.28c3.47,0.8,11.9-2.02,8.65-6.64c3.08-1.32,5.1-3.9,4.74-5.54c2.38,2.27,5.82,5.31,6.42,4.56
		C310.49,276.67,325.44,255.02,321.42,253.58z"/>
</g>
<g>
	<path class="st5" d="M41.63,134.22c-9.37,9.47,7.62,10.48,8.93,4.89c-0.25-2.46-0.98-6.4,3.23-6.46
		c7.78,1.01-2.16,10.05,10.02,9.78c5.14-0.1,8.08-2.28,5.13-5.94c-5.03-6.69-6.26-22.61-10.64-26.45c-5.2-3.47-18-0.49-16.95,5.75
		c0,2.52,1.8,4.04,3.8,4.04c4.39,0.24,2.52-6.72-0.19-3.09c-1.02-0.99-0.09-3.26,1.52-3.18C52.48,114.19,42.49,131.21,41.63,134.22z
		 M51.36,126.1c1.08-5.62,3.76-6.09,4.46-0.09c0.1,1.4-0.87,1.46-2.23,1.42C52.61,127.53,51.03,127.57,51.36,126.1z"/>
	<path class="st5" d="M71.45,139.35c-0.23,4.18,12.12,4.22,11.87,0c-1.57-8.84-3.8-19.93-0.33-28.54c0-1.66-3.56-2.18-5.6-2.18
		c-4.6,0.12-6.99,1.12-4.61,5.84C75.24,122.27,72.44,131.65,71.45,139.35z"/>
	<path class="st5" d="M84.94,139.35c-0.23,4.18,12.12,4.22,11.87,0c-1.57-8.84-3.8-19.93-0.33-28.54c0-1.66-3.56-2.18-5.6-2.18
		c-4.6,0.12-6.99,1.12-4.61,5.84C88.73,122.27,85.92,131.65,84.94,139.35z"/>
	<path class="st5" d="M125.63,123.58c4.03,7.59-6.63,19.17,5.79,18.85c3.47,0,6.27-0.85,6.27-3.32c-1.51-8.43-3.57-15.46,4.85-23.36
		c9.92-8.58-7.82-8.66-7.74-4.8c0.17,2.25-0.54,8.87-2.85,8.74c-2.78-1.42-3.22-5.02-3.56-8.74c0-1.8-2.18-2.33-5.94-2.33
		C107.92,108.37,124.4,119.01,125.63,123.58z"/>
	<path class="st5" d="M151.47,142.82c13.84,1.21,13.92-26.09,1-26.26C140.36,115.78,135.44,143.23,151.47,142.82z M152.04,121.64
		c4.19,0.04,3.19,9.65-0.76,9.31C146.25,130.69,148.56,121.35,152.04,121.64z"/>
	<path class="st5" d="M165.76,127.48c0,3.47-0.76,4.04-0.76,7.88c-0.78,8.53,10.49,8.91,13.11,2.75c2.99,7.46,12.26,4.83,11.73-3.8
		c0-3.18-1.42-5.46-2.28-5.46c-0.28,0-0.33,0.14-0.47,0.66c-0.21,1.22-1.48,1.13-1.57-0.05c-0.89-3.08,1.2-7.97,1.71-10.35
		c0-1.66-3.56-2.18-5.6-2.18c-11.48-0.71,1.51,11.35-5.94,14.01c-4.9-1.34-1.15-8.89-1.05-11.83c-0.47-3.11-10.21-2.88-10.73,0
		C164.13,121.09,166.09,124.65,165.76,127.48z"/>
	<path class="st5" d="M210.83,139.11c0,2.47,2.71,3.32,5.98,3.32c13.33,1.48-2.06-19.99,7.84-10.64
		c3.89,3.56,4.48,10.22,11.06,10.64c2.8,0,3.75-1.62,3.75-3.66c-0.81-5.18-3.38-20.49,0.52-27.83c-0.48-3.21-10.64-3.2-11.11,0
		c0.21,1.93,2.24,8.52,2.04,10.4c-1.86,4.7-11.85-6.57-11.3-10.4c-0.02-2.99-8.13-3.26-8.41,0
		C215.32,119.49,212.47,130.39,210.83,139.11z"/>
	<path class="st5" d="M256.62,141.3c3.38-1.75,6.3-9.91,2.8-12.2c-2.61,2.93-9.14,4.91-10.78-0.38c8.57,7.18,16.66-11.87,3.56-12.16
		c-8.92-1.05-15.44,17.37-7.3,23.95C248.73,139.82,253.13,140.03,256.62,141.3z M252.72,121.26c3.97,0.6,0.84,5.63-1.99,5.32
		c1.53-0.89-0.3-3.31-1.8-2.14C249.73,122.54,251.24,121.26,252.72,121.26z"/>
	<path class="st5" d="M272.9,142.82c6.77,0.71,12.47-9.4,7.98-13.73c-2.61,2.93-9.14,4.91-10.78-0.38
		c8.57,7.18,16.66-11.87,3.56-12.16C261.58,115.8,257.19,143.01,272.9,142.82z M274.18,121.26c3.97,0.6,0.84,5.63-1.99,5.32
		c1.53-0.89-0.3-3.31-1.8-2.14C271.19,122.54,272.71,121.26,274.18,121.26z"/>
	<path class="st5" d="M292.75,142.82c2.42,0,4.51-1.28,6.13-3.09c3.74,5.71,10.99,2.03,10.45-5.41c0.04-3.18-1.9-6.96-2.75-4.8
		c-3.54,5.51-0.79-17.58,0.62-18.71c-0.6-3-10.6-2.99-11.21,0c0.12,1.43,1.84,4.98,1.95,7.12
		C283.34,109.13,278.4,143.53,292.75,142.82z M292.23,125.63c1.75-5.54,7.02-3.22,5.79,2.28
		C296.85,134.02,290.31,131.75,292.23,125.63z"/>
	<path class="st5" d="M330.31,139.11c0,2.47,2.9,3.32,6.36,3.32c12.58,0.33,2.27-13.18,3.66-20.28c-0.38-3.48,1.72-8.47,2.33-11.21
		c-0.59-3.21-11.38-3.2-11.97,0C334.8,119.49,331.96,130.39,330.31,139.11z"/>
	<path class="st5" d="M354.06,142.82c5.89,0,9.4-3.85,9.4-8.07c1.7-4.52-12.22-12.23-7.08-13.91c2.06-0.35,2.31,2.87,3.47,3.09
		c2.33-0.37,2.76-7.13,0.29-7.31c-4.06,0.88-12.99-2.17-13.06,4.99c-0.44,3.75,5.52,6.86,5.94,9.55c0.33,2.73-5.8,2.56-4.61-0.05
		c2.49,3.29,4.51-3.07,0.28-2.85C340.37,130.14,344.95,143.76,354.06,142.82z"/>
	<path class="st5" d="M384.26,139.11c-2.27,3.8,20.3,4.61,22.18,1.33c2.34-2.39,3.56-15.99-2.33-15.81c-4.81-0.13-2.79,7.11,0,3.42
		c1.87,3.71-8.37,3.34-9.12,1.52c-1.38-5.07-0.95-10.07,0.28-14.63c2.63-5.18,0.48-6.17-4.7-6.32c-10.99-0.29-2.55,7.11-3.61,13.53
		C387.09,127.76,384.67,133.92,384.26,139.11z"/>
	<path class="st5" d="M419.78,142.82c13.84,1.21,13.92-26.09,1-26.26C408.67,115.78,403.76,143.23,419.78,142.82z M420.35,121.64
		c4.19,0.04,3.19,9.65-0.76,9.31C414.57,130.69,416.88,121.35,420.35,121.64z"/>
	<path class="st5" d="M435.17,132.94c1.67,7.76,6.4,12.34,12.59,7.84c2.71-4.29,3.54-12.72,6.22-17.14
		c1.42-2.85,2.14-3.42,2.14-4.51c0.37-2.91-9.86-2.67-9.36,0c0.6,2.53-0.14,11.95-2.23,11.16c-3.33-0.13-4.98-8.24-4.27-11.16
		c0.15-3.07-11.08-2.66-10.73,0C432.03,123.17,432.85,125.52,435.17,132.94z"/>
	<path class="st5" d="M466.04,142.82c6.77,0.71,12.47-9.4,7.98-13.73c-2.61,2.93-9.14,4.91-10.78-0.38
		c8.57,7.18,16.66-11.87,3.56-12.16C454.73,115.8,450.33,143.01,466.04,142.82z M467.32,121.26c3.97,0.6,0.84,5.63-1.99,5.32
		c1.53-0.89-0.3-3.31-1.8-2.14C464.33,122.54,465.85,121.26,467.32,121.26z"/>
</g>
<g>
	<path class="st6" d="M65.46,178.21c-2.52-6.7-3.51-16-6.7-18c-5.21-3.48-18-0.48-16.95,5.75c-0.37,4.1,6.01,5.76,6.51,1.66
		c0.14-1.84-2.42-2.37-2.9-0.71c-2.08-3.06,3.76-4.71,3.56-0.9c-1.47,8.3-6.28,16.93-9.88,23.27c1.16,5.56,14.5,4.4,11.68-3.32
		c1.18-5.59,8.54-3.71,6.7,3.32c-0.14,4.37,13.42,4.41,13.16,0C69.26,185.74,66.65,182.05,65.46,178.21z M56.01,177.21
		c-0.73,0.54-3.01,0.65-3.94,0.1c-0.88-1.62,1.34-5.74,2.18-5.65C55.2,171.55,56.92,175.66,56.01,177.21z"/>
	<path class="st6" d="M81.52,171.8c-0.37-3.3,1.42-8.18,1.95-10.83c-0.6-3-10.6-2.99-11.21,0c6.89,17.08-7.57,32.31,5.65,31.63
		c3.18,0,5.89-0.81,5.89-3.09C83.22,184.29,81.28,177.27,81.52,171.8z"/>
	<path class="st6" d="M95,171.8c-0.37-3.3,1.42-8.18,1.95-10.83c-0.6-3-10.6-2.99-11.21,0c6.89,17.08-7.57,32.31,5.65,31.63
		c3.18,0,5.89-0.81,5.89-3.09C96.7,184.29,94.77,177.27,95,171.8z"/>
	<path class="st6" d="M143.01,165.91c9.92-8.58-7.82-8.66-7.74-4.8c0.59,3.98-2.24,13.34-5.22,5.84c-0.47-1-1.19-3.56-1.19-5.84
		c0.73-3.4-12.86-2.88-12.11,0c1.01,3.68,8.23,9.38,9.35,12.63c4.03,7.59-6.63,19.17,5.79,18.85c3.47,0,6.27-0.85,6.27-3.32
		C136.66,180.85,134.6,173.82,143.01,165.91z"/>
	<path class="st6" d="M152.94,166.72c-12.11-0.77-17.02,26.68-1,26.26C165.78,194.19,165.87,166.89,152.94,166.72z M151.75,181.11
		c-5.03-0.26-2.72-9.6,0.76-9.31C156.7,171.84,155.7,181.45,151.75,181.11z"/>
	<path class="st6" d="M173.74,177.64c-0.12-2.86,1.1-6.12,1.38-8.36c-0.47-3.11-10.22-2.88-10.73,0c4.5,8.99-2.42,18.47,4.2,22.61
		c1.47-4.19,3.38-8.2,5.73-11.93C173.9,179.25,173.74,178.34,173.74,177.64z"/>
	<path class="st6" d="M185.5,167.52c-6.91-1.13-10.28-0.39-7.29,7.07C180.41,171.96,182.86,169.58,185.5,167.52z"/>
	<path class="st6" d="M342.54,183.69c-2.23-7.05-2.18-15.92,0.6-22.57c-0.59-3.21-11.38-3.2-11.97,0c0.45,2.4,2.53,7.03,2.31,10.18
		C336.99,174.83,340.06,178.99,342.54,183.69z"/>
	<path class="st6" d="M355.58,172.09c0.06-1.7,2.86-1.16,3.37,0.1c0.62,1.04,0.62,1.9,1.38,1.9c2.33-0.36,2.76-7.13,0.29-7.31
		c-4.06,0.88-12.99-2.17-13.06,4.99c-0.44,3.75,5.52,6.86,5.94,9.55c0.33,2.73-5.8,2.56-4.61-0.05c2.5,3.29,4.51-3.07,0.28-2.85
		c-8.32,1.9-3.75,15.52,5.37,14.58c5.89,0,9.4-3.85,9.4-8.07C364.91,180.57,355.82,174.9,355.58,172.09z"/>
	<path class="st6" d="M404.59,174.79c-4.81-0.14-2.8,7.11,0,3.42c1.87,3.71-8.37,3.34-9.12,1.52c-1.98-6.23-0.19-13.27,1.52-18.62
		c-0.57-3.21-11.3-3.2-11.87,0c4.1,8.54,1.26,19.43-0.38,28.16c-2.27,3.8,20.3,4.61,22.18,1.33
		C409.26,188.23,410.47,174.6,404.59,174.79z"/>
	<path class="st6" d="M421.26,166.72c-12.11-0.77-17.02,26.68-1,26.26C434.1,194.19,434.18,166.89,421.26,166.72z M420.07,181.11
		c-5.03-0.26-2.72-9.6,0.76-9.31C425.01,171.84,424.02,181.45,420.07,181.11z"/>
	<path class="st6" d="M435.6,167.1c-5.33,0.44-7.07,0.98-3.89,5.08c3.17,5.18,5.29,27.2,16.53,18.76
		c2.71-4.29,3.54-12.71,6.22-17.14c1.42-2.85,2.14-3.42,2.14-4.51c0.37-2.91-9.86-2.67-9.36,0c1.66,10.44-3.98,16.87-6.6,3.42
		C440.8,168.4,441.03,167.31,435.6,167.1z"/>
	<path class="st6" d="M466.51,192.98c6.77,0.71,12.47-9.4,7.98-13.73c-2.61,2.93-9.14,4.91-10.78-0.38
		c8.57,7.18,16.66-11.87,3.56-12.16C455.2,165.96,450.81,193.17,466.51,192.98z M467.8,171.42c3.97,0.6,0.84,5.63-1.99,5.32
		c1.53-0.89-0.3-3.31-1.8-2.14C464.81,172.7,466.32,171.42,467.8,171.42z"/>
</g>
<g>
	<path class="st4" d="M65.46,228.78c-2.52-6.7-3.51-16-6.7-18c-5.21-3.48-18-0.48-16.95,5.75c-0.37,4.1,6.01,5.76,6.51,1.66
		c0.14-1.84-2.42-2.37-2.9-0.71c-2.08-3.06,3.76-4.71,3.56-0.9c-1.47,8.3-6.28,16.93-9.88,23.27c1.16,5.56,14.5,4.4,11.68-3.32
		c1.18-5.59,8.54-3.71,6.7,3.32c-0.14,4.37,13.42,4.41,13.16,0C69.26,236.31,66.65,232.62,65.46,228.78z M56.01,227.78
		c-0.73,0.54-3.01,0.65-3.94,0.1c-0.88-1.62,1.34-5.74,2.18-5.65C55.2,222.12,56.92,226.23,56.01,227.78z"/>
	<path class="st4" d="M81.52,222.37c-0.37-3.3,1.42-8.18,1.95-10.83c-0.6-3-10.6-2.99-11.21,0c6.89,17.08-7.57,32.31,5.65,31.63
		c3.18,0,5.89-0.81,5.89-3.09C83.22,234.86,81.28,227.84,81.52,222.37z"/>
	<path class="st4" d="M95,222.37c-0.37-3.3,1.42-8.18,1.95-10.83c-0.6-3-10.6-2.99-11.21,0c6.89,17.08-7.57,32.31,5.65,31.63
		c3.18,0,5.89-0.81,5.89-3.09C96.7,234.86,94.77,227.84,95,222.37z"/>
	<path class="st4" d="M143.01,216.48c9.92-8.58-7.82-8.66-7.74-4.8c0.59,3.98-2.24,13.34-5.22,5.84c-0.47-1-1.19-3.56-1.19-5.84
		c0.73-3.4-12.86-2.88-12.11,0c1.01,3.68,8.23,9.38,9.35,12.63c4.03,7.59-6.63,19.17,5.79,18.85c3.47,0,6.27-0.85,6.27-3.32
		C136.66,231.42,134.6,224.39,143.01,216.48z"/>
	<path class="st4" d="M152.94,217.29c-12.11-0.77-17.02,26.68-1,26.26C165.78,244.76,165.87,217.46,152.94,217.29z M151.75,231.68
		c-5.03-0.26-2.72-9.6,0.76-9.31C156.7,222.41,155.7,232.02,151.75,231.68z"/>
	<path class="st4" d="M165.29,218.6c-2.53,2.04,1.78,6.18,0.95,9.61c-0.61,5.43-2.63,15.39,5.85,14.95
		C168.6,235.33,166,227.12,165.29,218.6z"/>
	<path class="st4" d="M355.58,222.65c0.06-1.71,2.86-1.16,3.37,0.1c0.62,1.04,0.62,1.9,1.38,1.9c2.33-0.36,2.76-7.14,0.29-7.31
		c-2.95,0.86-8.46-1.09-11.31,1.14c-0.2,2.25-0.51,4.51-0.93,6.77c0.96,1.97,5.19,5,5.12,6.62c0.33,2.73-5.8,2.56-4.61-0.05
		c3.69,3.69,4.01-5.14-1.43-2.36c-0.63,2.53-1.4,5.05-2.31,7.56c4.41,13.87,28.07,2.9,15.09-8.57
		C357.48,225.6,355.58,224.03,355.58,222.65z"/>
	<path class="st4" d="M404.59,225.36c-4.81-0.14-2.8,7.11,0,3.42c1.87,3.71-8.37,3.34-9.12,1.52c-1.98-6.23-0.19-13.27,1.52-18.62
		c-0.57-3.21-11.3-3.2-11.87,0c4.1,8.54,1.26,19.43-0.38,28.16c-2.27,3.8,20.3,4.61,22.18,1.33
		C409.26,238.8,410.47,225.17,404.59,225.36z"/>
	<path class="st4" d="M420.26,243.55c13.84,1.21,13.92-26.09,1-26.26C409.15,216.51,404.24,243.97,420.26,243.55z M420.83,222.37
		c4.19,0.04,3.19,9.65-0.76,9.31C415.04,231.42,417.35,222.08,420.83,222.37z"/>
	<path class="st4" d="M451.84,217.72c-3.09,0-4.61,1.04-4.61,2.14c0.6,2.54-0.14,11.96-2.23,11.16c-2.37,0-4.04-4.75-4.37-7.74
		c-0.19-1.61,0.1-2.85,0.1-3.42c0.15-3.07-11.08-2.66-10.73,0c3.44,3.58,5.47,18.08,9.78,22.13c7.06,4.04,10.3-1.95,11.4-8.74
		c1-3.37,2-6.36,3.28-8.88C457.4,219.52,457.77,218.09,451.84,217.72z"/>
	<path class="st4" d="M474.49,229.83c-2.61,2.93-9.14,4.91-10.78-0.38c8.57,7.18,16.65-11.87,3.56-12.16
		c-5.89,0-11.02,6.13-11.02,15.05c-0.87,13.98,19.98,14.85,19.71,1.23C475.97,231.73,475.59,229.83,474.49,229.83z M467.8,221.99
		c3.97,0.6,0.84,5.63-1.99,5.32c1.53-0.89-0.3-3.31-1.8-2.14C464.81,223.27,466.32,221.99,467.8,221.99z"/>
</g>
<g>
	<path class="st7" d="M65.46,279.4c-2.52-6.7-3.51-16-6.7-18c-5.21-3.48-18-0.48-16.95,5.75c-0.37,4.1,6.01,5.76,6.51,1.66
		c0.14-1.84-2.42-2.37-2.9-0.71c-2.08-3.06,3.76-4.71,3.56-0.9c-1.47,8.3-6.28,16.93-9.88,23.27c1.16,5.56,14.5,4.4,11.68-3.32
		c1.18-5.59,8.54-3.71,6.7,3.32c-0.14,4.37,13.42,4.41,13.16,0C69.26,286.94,66.65,283.24,65.46,279.4z M56.01,278.41
		c-0.73,0.54-3.01,0.65-3.94,0.1c-0.88-1.62,1.34-5.74,2.18-5.65C55.2,272.74,56.92,276.85,56.01,278.41z"/>
	<path class="st7" d="M81.52,272.99c-0.37-3.3,1.42-8.18,1.95-10.83c-0.6-3-10.6-2.99-11.21,0c6.89,17.08-7.57,32.31,5.65,31.63
		c3.18,0,5.89-0.81,5.89-3.09C83.22,285.48,81.28,278.46,81.52,272.99z"/>
	<path class="st7" d="M95,272.99c-0.37-3.3,1.42-8.18,1.95-10.83c-0.6-3-10.6-2.99-11.21,0c6.89,17.08-7.57,32.31,5.65,31.63
		c3.18,0,5.89-0.81,5.89-3.09C96.7,285.48,94.77,278.46,95,272.99z"/>
	<path class="st7" d="M143.01,267.1c9.92-8.58-7.82-8.66-7.74-4.8c0.59,3.98-2.24,13.34-5.22,5.84c-0.47-1-1.19-3.56-1.19-5.84
		c0.73-3.4-12.86-2.88-12.11,0c1.01,3.68,8.23,9.38,9.35,12.63c4.03,7.59-6.63,19.17,5.79,18.85c3.47,0,6.27-0.85,6.27-3.32
		C136.66,282.04,134.6,275.01,143.01,267.1z"/>
	<path class="st7" d="M152.94,267.91c-12.11-0.77-17.02,26.68-1,26.26C165.78,295.39,165.87,268.08,152.94,267.91z M151.75,282.3
		c-5.03-0.26-2.72-9.6,0.76-9.31C156.7,273.03,155.7,282.65,151.75,282.3z"/>
	<path class="st7" d="M188.04,280.21c-0.28,0-0.33,0.14-0.47,0.66c-0.21,1.22-1.48,1.13-1.57-0.05c-0.89-3.08,1.21-7.97,1.71-10.35
		c0-1.66-3.56-2.18-5.6-2.18c-11.48-0.71,1.52,11.35-5.94,14.01c-3.63-0.54-2.25-5.7-1.9-7.93c1.61-4.47,0.79-6.07-4.27-6.08
		c-9.47-0.05-3.5,4.71-3.75,10.54c0,3.47-0.76,4.04-0.76,7.88c-0.77,8.53,10.49,8.92,13.11,2.75c2.99,7.46,12.26,4.83,11.73-3.8
		C190.32,282.49,188.89,280.21,188.04,280.21z"/>
	<path class="st7" d="M303.82,293.79c3.87,0.12,6.23-3.47,5.97-8.67c-2.94,2.51-6.03,4.99-9.3,7.46
		C301.43,293.44,302.61,293.79,303.82,293.79z"/>
	<path class="st7" d="M332.4,266.3c2.01,5.78,0.83,12.36-0.52,18.09c-0.52,2.23-1.09,4.46-1.09,6.08c-0.31,4.53,13.04,4.52,12.73,0
		c-1.65-8.72-4.48-19.63-0.38-28.16c-1.1-3.18-10.39-3.46-11.96,0.23C331.25,263.43,331.7,264.24,332.4,266.3z"/>
	<path class="st7" d="M355.58,273.28c0.06-1.7,2.86-1.16,3.37,0.1c0.62,1.04,0.62,1.9,1.38,1.9c2.33-0.36,2.76-7.13,0.29-7.31
		c-4.06,0.88-12.99-2.17-13.06,4.99c-0.44,3.75,5.52,6.86,5.94,9.55c0.33,2.73-5.8,2.56-4.61-0.05c2.5,3.29,4.51-3.07,0.28-2.85
		c-8.32,1.9-3.75,15.52,5.37,14.58c5.89,0,9.4-3.85,9.4-8.07C364.91,281.76,355.82,276.09,355.58,273.28z"/>
	<path class="st7" d="M404.59,275.98c-4.81-0.14-2.8,7.11,0,3.42c1.87,3.71-8.37,3.34-9.12,1.52c-1.98-6.23-0.19-13.27,1.52-18.62
		c-0.57-3.21-11.3-3.2-11.87,0c4.1,8.54,1.26,19.43-0.38,28.16c-2.27,3.8,20.3,4.61,22.18,1.33
		C409.26,289.42,410.47,275.79,404.59,275.98z"/>
	<path class="st7" d="M420.26,294.17c13.84,1.21,13.92-26.09,1-26.26C409.15,267.14,404.24,294.59,420.26,294.17z M420.83,272.99
		c4.19,0.04,3.19,9.65-0.76,9.31C415.04,282.04,417.35,272.7,420.83,272.99z"/>
	<path class="st7" d="M435.65,284.29c1.67,7.76,6.4,12.34,12.59,7.84c2.71-4.29,3.54-12.72,6.22-17.14
		c1.42-2.85,2.14-3.42,2.14-4.51c0.37-2.91-9.86-2.67-9.36,0c0.6,2.53-0.14,11.95-2.23,11.16c-3.33-0.13-4.98-8.24-4.27-11.16
		c0.15-3.07-11.08-2.66-10.73,0C432.5,274.52,433.32,276.88,435.65,284.29z"/>
	<path class="st7" d="M474.49,280.45c-2.61,2.93-9.14,4.91-10.78-0.38c8.57,7.18,16.65-11.87,3.56-12.16
		c-5.89,0-11.02,6.13-11.02,15.05c-0.87,13.97,19.98,14.85,19.71,1.23C475.97,282.35,475.59,280.45,474.49,280.45z M467.8,272.61
		c3.97,0.6,0.84,5.63-1.99,5.32c1.53-0.89-0.3-3.31-1.8-2.14C464.81,273.89,466.32,272.61,467.8,272.61z"/>
</g>
<g>
	<path class="st0" d="M303.64,174.36c-1.98,0.94-3.01,3.13-2.88,5.52c-10.5-7.18-15.74,12.14,6.94,14.58
		C312.24,189.04,315.38,171.27,303.64,174.36z M308.28,185.76c-0.6,2.34-1.39,4.35-2.06,5.61c-4.2-0.8-15.62-5.49-10.31-10.08
		c2.14-0.93,3.81,2.66,6.1,1.25c2.47-0.82,0.91-4.61,2.88-5.52C309.21,176.74,309.83,179.89,308.28,185.76z"/>
	<path class="st0" d="M330.26,195.22c-1.55-1.08-3.63-0.92-5.37,0.19c0.68-11.28-15.79-6.1-7.98,11.42
		C322.86,208.03,337.58,202.54,330.26,195.22z M328.49,201.02c-0.89,1.09-6.07,2.8-9.61,2.97c-0.93-4.19-2.57-12.3,2.67-11.28
		c1.26,1.17-0.42,4.09,1.67,5.11c1.53,1.28,3.16-0.13,4.66-0.39C329.7,197.6,329.28,199.92,328.49,201.02z"/>
	<path class="st0" d="M65.46,330.49c-2.52-6.7-3.51-16-6.7-18c-5.21-3.48-18-0.48-16.95,5.75c-0.37,4.1,6.01,5.76,6.51,1.66
		c0.14-1.84-2.42-2.37-2.9-0.71c-2.08-3.06,3.76-4.71,3.56-0.9c-1.47,8.3-6.28,16.93-9.88,23.27c1.17,5.56,14.5,4.4,11.68-3.32
		c1.18-5.59,8.54-3.71,6.7,3.32c-0.14,4.37,13.42,4.41,13.16,0C69.26,338.02,66.65,334.32,65.46,330.49z M56.01,329.49
		c-0.73,0.54-3.01,0.65-3.94,0.1c-0.88-1.62,1.34-5.74,2.18-5.65C55.2,323.82,56.92,327.94,56.01,329.49z"/>
	<path class="st0" d="M81.52,324.08c-0.37-3.3,1.42-8.18,1.95-10.83c-0.6-3-10.6-2.99-11.21,0c6.89,17.08-7.57,32.31,5.65,31.63
		c3.18,0,5.89-0.81,5.89-3.09C83.22,336.57,81.28,329.54,81.52,324.08z"/>
	<path class="st0" d="M95,324.08c-0.37-3.3,1.42-8.18,1.95-10.83c-0.6-3-10.6-2.99-11.21,0c6.89,17.08-7.57,32.31,5.65,31.63
		c3.18,0,5.89-0.81,5.89-3.09C96.7,336.57,94.77,329.54,95,324.08z"/>
	<path class="st0" d="M137.55,325.69c1.12-4.34,16.48-14.93,2.52-14.63c-4.08,0-4.8,1.33-4.8,2.33c0.59,3.98-2.24,13.33-5.22,5.84
		c-0.47-1-1.19-3.56-1.19-5.84c0.41-3.58-19.59-4.39-8.74,4.94c8.79,7.46,6.92,14.79,5.51,23.22c0,2.47,2.8,3.32,6.27,3.32
		C144.54,345.14,133.29,333.34,137.55,325.69z"/>
	<path class="st0" d="M152.94,318.99c-12.11-0.77-17.02,26.68-1,26.26C165.78,346.47,165.87,319.17,152.94,318.99z M151.75,333.38
		c-5.03-0.26-2.72-9.6,0.76-9.31C156.7,324.12,155.7,333.73,151.75,333.38z"/>
	<path class="st0" d="M188.04,331.29c-0.28,0-0.33,0.14-0.47,0.66c-0.21,1.22-1.48,1.13-1.57-0.05c-0.89-3.08,1.21-7.97,1.71-10.35
		c0-1.66-3.56-2.18-5.6-2.18c-11.48-0.71,1.51,11.35-5.94,14.01c-3.63-0.54-2.25-5.7-1.9-7.93c1.61-4.47,0.79-6.07-4.27-6.08
		c-9.47-0.05-3.5,4.71-3.75,10.54c0,3.47-0.76,4.04-0.76,7.88c-0.77,8.53,10.49,8.92,13.11,2.75c2.99,7.46,12.26,4.83,11.73-3.8
		C190.32,333.57,188.89,331.29,188.04,331.29z"/>
	<path class="st0" d="M240.46,313.39c0-1.8-3.42-2.33-5.56-2.33c-5.71,0.07-6.4,1.7-4.46,6.98c0.31,2.84,2.5,7.29-0.62,6.84
		c-3.25-0.38-9.74-7.13-9.74-11.49c0-1.42-1.9-2.33-4.04-2.33c-8.72-0.21-0.83,8.46-2.04,13.53c1.42,6.9-8.78,20.42,3.28,20.28
		c10.21,0.35,3.56-7.76,4.61-13.01c6.19,1.87,6.56,12.69,14.29,13.01C245.08,345.26,233.81,326.69,240.46,313.39z"/>
	<path class="st0" d="M259.89,331.53c-2.61,2.93-9.14,4.91-10.78-0.38c8.57,7.18,16.65-11.87,3.56-12.16
		c-5.89,0-11.02,6.13-11.02,15.05c-0.87,13.97,19.98,14.85,19.71,1.23C261.36,333.43,260.98,331.53,259.89,331.53z M253.19,323.7
		c3.97,0.6,0.84,5.63-1.99,5.32c1.53-0.89-0.3-3.31-1.8-2.14C250.2,324.98,251.72,323.7,253.19,323.7z"/>
	<path class="st0" d="M281.35,331.53c-2.61,2.93-9.14,4.91-10.78-0.38c8.57,7.18,16.65-11.87,3.56-12.16
		c-5.89,0-11.02,6.13-11.02,15.05c-0.87,13.97,19.98,14.85,19.71,1.23C282.82,333.43,282.44,331.53,281.35,331.53z M274.66,323.7
		c3.97,0.6,0.84,5.63-1.99,5.32c1.53-0.89-0.3-3.31-1.8-2.14C271.66,324.98,273.18,323.7,274.66,323.7z"/>
	<path class="st0" d="M307.52,331.29c-3.08,5.17-1.86-4.75-2.04-7.74c-0.33-3.2,1.6-7.79,2.18-10.31c-0.6-3-10.6-2.99-11.21,0
		c0.12,1.43,1.84,4.98,1.95,7.12c-19.2-9.32-17.64,37.45,0.95,21.8C306.22,351.46,314,335.98,307.52,331.29z M298.5,330.34
		c-1.18,6.12-7.71,3.85-5.79-2.28C294.45,322.52,299.72,324.85,298.5,330.34z"/>
	<path class="st0" d="M340.81,324.6c-0.38-3.48,1.72-8.47,2.33-11.21c-0.59-3.21-11.38-3.2-11.97,0c4.1,8.54,1.27,19.43-0.38,28.16
		c-0.31,4.53,13.04,4.52,12.73,0C343.1,336.35,340.69,330.2,340.81,324.6z"/>
	<path class="st0" d="M355.58,324.36c0.06-1.7,2.86-1.16,3.37,0.1c0.62,1.04,0.62,1.9,1.38,1.9c2.33-0.36,2.76-7.13,0.29-7.31
		c-4.06,0.88-12.99-2.17-13.06,4.99c-0.44,3.75,5.52,6.86,5.94,9.55c0.33,2.73-5.8,2.56-4.61-0.05c2.5,3.29,4.51-3.07,0.28-2.85
		c-8.32,1.9-3.75,15.52,5.37,14.58c5.89,0,9.4-3.85,9.4-8.07C364.91,332.85,355.82,327.18,355.58,324.36z"/>
	<path class="st0" d="M404.59,327.07c-4.81-0.14-2.8,7.11,0,3.42c1.87,3.71-8.37,3.34-9.12,1.52c-1.98-6.23-0.19-13.27,1.52-18.62
		c-0.57-3.21-11.3-3.2-11.87,0c4.1,8.54,1.26,19.43-0.38,28.16c-2.27,3.8,20.3,4.61,22.18,1.33
		C409.26,340.51,410.47,326.88,404.59,327.07z"/>
	<path class="st0" d="M421.26,318.99c-12.11-0.77-17.02,26.68-1,26.26C434.1,346.47,434.18,319.17,421.26,318.99z M420.07,333.38
		c-5.03-0.26-2.72-9.6,0.76-9.31C425.01,324.12,424.02,333.73,420.07,333.38z"/>
	<path class="st0" d="M451.84,319.42c-3.09,0-4.61,1.04-4.61,2.14c0.6,2.53-0.14,11.96-2.23,11.16c-2.37,0-4.04-4.75-4.37-7.74
		c-0.19-1.61,0.09-2.85,0.09-3.42c0.15-3.07-11.08-2.66-10.73,0c3.44,3.58,5.47,18.08,9.78,22.13c7.06,4.04,10.3-1.94,11.4-8.74
		c1-3.37,2-6.36,3.28-8.88C457.4,321.23,457.77,319.8,451.84,319.42z"/>
	<path class="st0" d="M474.49,331.53c-2.61,2.93-9.14,4.91-10.78-0.38c8.57,7.18,16.65-11.87,3.56-12.16
		c-5.89,0-11.02,6.13-11.02,15.05c-0.87,13.97,19.98,14.85,19.71,1.23C475.97,333.43,475.59,331.53,474.49,331.53z M467.8,323.7
		c3.97,0.6,0.84,5.63-1.99,5.32c1.53-0.89-0.3-3.31-1.8-2.14C464.81,324.98,466.32,323.7,467.8,323.7z"/>
	<path class="st0" d="M303.03,161.67c-11.21-0.09-25.06,5.57-36.14,13.46c-2.02-4.18-5.08-8.11-10.5-11.54
		c-13.33-7.77,0.76-15.25,4.97-9.17c1.28-19.91-42.63-10.34-26.13,13.31c-40.48-21.87-74.47,19.76-62.68,59.58
		c10.7,37.32,48.42,67.2,84.78,82.92c34.23-14.56,70.01-42.96,82.58-76.13C352.68,204.5,336.76,162.04,303.03,161.67z M259.2,237.25
		c-19.35,1.34-18.94-18.02-1.58-19.67C274.63,216.31,277.25,236.6,259.2,237.25z M274.39,209.68c1.7-4.71,9.44-1.43,6.11,3.9
		c-0.41,0.61-5.47,4.77-5.67,5.04c-0.23-0.25-5.58-3.81-6.06-4.36C264.85,209.34,272.18,205.19,274.39,209.68z M244.32,215.29
		c-0.4,0.61-5.46,4.77-5.66,5.04c-0.23-0.25-5.58-3.81-6.06-4.36c-3.93-4.91,3.4-9.06,5.61-4.58
		C239.91,206.68,247.65,209.96,244.32,215.29z M252.3,196.76c1.7-4.71,9.44-1.43,6.11,3.9c-0.41,0.61-5.47,4.77-5.67,5.04
		c-0.23-0.25-5.58-3.81-6.06-4.36C242.76,196.42,250.09,192.27,252.3,196.76z M250.44,174.07c2.37-0.51,3.68,1.59,3.87,1.9
		c1.69-4.71,9.44-1.43,6.1,3.9c-0.41,0.6-5.47,4.76-5.67,5.04C251.3,182.69,243.07,177.62,250.44,174.07z M241.52,158.8
		c1.69-4.71,9.44-1.43,6.1,3.9c-0.41,0.6-5.47,4.76-5.67,5.04c-0.22-0.25-5.58-3.81-6.05-4.36
		C231.98,158.46,239.31,154.32,241.52,158.8z M337.17,233.07c-13.73,34.79-46.74,58.19-79.28,74.08
		c-9.86-2.73-19.04-9.69-27.81-15.14c-93.9-57.52-56.1-155.63,9.24-118.82c7.39,14.69-25.59,34.08-13.2,53.96
		c3.03,8.5,10.87,4.79,15.72,1.16c-0.2,17.74,38.58,15.12,31.74-5.04c4.83,2.41,9.26,9.69,14.25,7.96c8.17-8.02,1.42-16.04-7-25.35
		c-9.25-8.7-9.25-18.8-12.73-27.96C312.51,142.8,355.1,184.6,337.17,233.07z"/>
</g>
</svg>
