<?xml version="1.0" encoding="utf-8"?>
<!-- Generator: Adobe Illustrator 25.0.0, SVG Export Plug-In . SVG Version: 6.00 Build 0)  -->
<svg version="1.1" id="Layer_1" xmlns="http://www.w3.org/2000/svg" xmlns:xlink="http://www.w3.org/1999/xlink" x="0px" y="0px"
	 viewBox="0 0 500 500" style="enable-background:new 0 0 500 500;" xml:space="preserve">
<style type="text/css">
	.st0{fill:#B51B2C;}
	.st1{fill:#030304;}
	.st2{fill:#020203;}
	.st3{fill:#13110C;}
	.st4{fill:#CE536A;}
	.st5{fill:#F192AC;}
	.st6{fill:#E3748C;}
	.st7{fill:#C0364A;}
	.st8{fill:#EE7289;}
</style>
<g>
	<path class="st5" d="M213.42,335.87c-12.85-168.62,108.91-174.79,91.23,0H213.42z"/>
	<g>
		<path class="st5" d="M111.68,196.68C111.68,196.68,111.68,196.72,111.68,196.68C111.37,197.79,111.37,197.75,111.68,196.68z"/>
		<path class="st5" d="M81.89,328.34c2.36,15.23,22.17,9.66,20.39-1.83C64.42,74.21,320,11.05,389.35,157.67
			c27.12,52.02,29.75,112.79,28.27,170.85c-0.31,11.13,17.77,13.86,20.39-1.83C495.39-16.98,46.02-47.13,81.89,328.34z"/>
	</g>
</g>
<g>
	<path class="st6" d="M318.68,110.34c-80.86-42.17-228.24,7.3-206.38,212.61c0.85,8.15,8.5,15.27,16.96,14.16
		c37.45-5.03-23.47-98.76,53.39-173.79c84.73-75.83,202.86-29.65,189.86,155.66c-1.6,23.06,28.76,23.15,30.81,5.17
		C413.17,237.64,396.2,150.77,318.68,110.34z"/>
	<path class="st6" d="M334.49,287.25c5.61-165.71-151.73-139.08-149.56-0.44c-1.25,13.93-1.29,28.36-0.54,42.7
		c0.53,10.42,13.22,10.2,12.38-1.25c-13.54-182.11,129.48-179.13,124.72-45.02c-1.56,43.46-4.45,51.92,4.54,53.43
		C338.99,338.85,332.66,314.85,334.49,287.25z"/>
</g>
<g>
	<polygon class="st7" points="189.11,221.48 188.84,216.63 186.04,221.17 182.48,219.65 184.92,223.13 181.99,227.62 186.53,225.31 
		190.09,230.21 189.11,224.91 194.54,222.15 	"/>
	<polygon class="st7" points="163.82,253.67 162.84,248.37 168.23,245.61 162.84,244.95 162.57,240.09 159.77,244.63 156.16,243.12 
		158.65,246.64 155.67,251.09 160.21,248.77 	"/>
	<polygon class="st7" points="341.61,289.43 345.22,294.33 344.24,288.98 349.63,286.22 344.24,285.55 343.97,280.74 341.17,285.29 
		337.61,283.73 340.06,287.25 337.12,291.74 	"/>
	<polygon class="st7" points="306.04,178.6 308.49,182.12 305.55,186.57 310.04,184.26 313.65,189.15 312.67,183.85 318.06,181.09 
		312.67,180.43 312.4,175.57 309.6,180.11 	"/>
	<polygon class="st7" points="267.48,167.07 272.02,164.75 275.63,169.65 274.65,164.31 280.03,161.55 274.65,160.88 274.38,156.03 
		271.57,160.61 267.97,159.05 270.42,162.57 	"/>
	<polygon class="st7" points="176.51,299.04 176.2,294.24 173.39,298.78 169.83,297.22 172.28,300.74 169.34,305.23 173.88,302.92 
		177.49,307.82 176.51,302.52 181.9,299.71 	"/>
	<polygon class="st7" points="333.11,220.28 336.72,225.18 335.74,219.88 341.12,217.12 335.74,216.45 335.42,211.59 332.62,216.14 
		329.06,214.62 331.51,218.1 328.57,222.59 	"/>
	<polygon class="st7" points="159.59,278.96 165.82,287.42 164.13,278.25 173.44,273.49 164.13,272.33 163.64,264 158.79,271.84 
		152.64,269.17 156.87,275.22 151.8,282.97 	"/>
	<polygon class="st7" points="212.93,160.17 212.53,153.58 208.7,159.77 203.85,157.67 207.19,162.48 203.18,168.58 209.33,165.42 
		214.27,172.1 212.93,164.84 220.28,161.06 	"/>
	<polygon class="st7" points="352.57,230.21 357.47,236.93 356.13,229.67 363.52,225.89 356.13,225 355.77,218.41 351.94,224.6 
		347.09,222.5 350.43,227.27 346.42,233.37 	"/>
	<polygon class="st7" points="165.16,332.44 163.46,323.27 172.77,318.46 163.46,317.35 162.97,308.97 158.16,316.86 151.98,314.18 
		156.21,320.24 151.13,327.99 158.97,323.98 	"/>
	<polygon class="st7" points="237.42,166.67 242.36,173.35 241.03,166.09 248.38,162.35 241.03,161.41 240.63,154.82 236.8,161.06 
		231.95,158.96 235.28,163.73 231.28,169.83 	"/>
	<polygon class="st7" points="177.98,249.13 174.15,255.32 169.3,253.23 172.64,257.99 168.63,264.09 174.77,260.93 179.67,267.61 
		178.33,260.4 185.73,256.61 178.33,255.68 	"/>
	<polygon class="st7" points="365.39,294.01 364.99,287.42 361.16,293.66 356.31,291.52 359.65,296.33 355.64,302.43 361.78,299.27 
		366.73,305.95 365.39,298.69 372.74,294.95 	"/>
	<polygon class="st7" points="177.31,200.15 182.25,206.83 180.92,199.57 188.26,195.79 180.92,194.9 180.52,188.31 176.69,194.5 
		171.83,192.4 175.17,197.17 171.17,203.31 	"/>
	<polygon class="st7" points="253.94,149.3 260.13,157.72 258.44,148.59 267.66,143.87 258.44,142.71 257.95,134.43 253.14,142.22 
		247.04,139.6 251.22,145.61 246.19,153.27 	"/>
	<polygon class="st7" points="331.86,194.85 338.01,203.27 336.36,194.14 345.58,189.42 336.36,188.26 335.87,179.98 331.06,187.82 
		324.96,185.15 329.15,191.16 324.11,198.82 	"/>
	<polygon class="st7" points="344.91,265.56 352.66,261.6 358.8,270.01 357.15,260.89 366.37,256.17 357.15,255.01 356.66,246.73 
		351.85,254.52 345.75,251.89 349.94,257.9 	"/>
	<polygon class="st7" points="351.54,318.41 351.05,310.18 346.29,317.97 340.14,315.3 344.33,321.31 339.3,328.97 347.05,325.05 
		353.24,333.42 351.54,324.29 360.8,319.57 	"/>
	<polygon class="st7" points="163.42,231.45 169.61,239.87 167.92,230.74 177.18,226.02 167.92,224.86 167.43,216.58 162.66,224.37 
		156.52,221.75 160.75,227.76 155.67,235.42 	"/>
	<polygon class="st7" points="300.78,160.26 310,155.49 300.78,154.38 300.29,146.1 295.48,153.89 289.38,151.22 293.57,157.23 
		288.54,164.93 296.29,160.97 302.43,169.34 	"/>
	<polygon class="st7" points="204.65,183.85 204.2,175.57 199.4,183.36 193.3,180.74 197.48,186.75 192.45,194.41 200.2,190.44 
		206.34,198.86 204.65,189.73 213.91,185.01 	"/>
	<path class="st7" d="M276.16,243.61c-12.69-4.99-21.6,24.8-21.6,24.8c-25.32-48.22-45.13,23.73,0,59.58
		C254.61,327.9,317.79,260.13,276.16,243.61z"/>
	<path class="st7" d="M125.23,411.54c-1.83-2.37-4.78-3.82-7.82-4.44c6.34-9.82,6.36-22.58,5.93-33.9
		c-0.49-15.06-10.78-21.56-25.02-20.7c-4.81,0.39-18.35,0.2-18.15,6.83c-0.28,7.33-0.9,14.66-0.86,22
		c0.54,13.47,0.27,34.39-0.24,48.08c0.23,5.65-0.32,11.46,0.67,17.01c4.67,6.06,14.49,5.45,21.52,5.5
		c11.8,0.58,25.67-6.98,26.04-19.95C127.68,425.32,129.2,417.24,125.23,411.54z M83.95,416.93c-0.18-4.51,3.92-6.23,5.89-1.89
		c3.84-5.44,7.72-0.86,5.93,4.2c-0.97,2.57-3.29,7.03-6.56,6.09C86.38,423.15,84.01,420.76,83.95,416.93z M94.64,439
		c-1.72,1.64-2.42,3.22-4.24,3.54c-2.12-0.58-4.71-3.66-5.74-5.97c-1.71-4.51,1.79-10.63,5.74-4.79
		C95.48,424.63,98.77,435.45,94.64,439z M96.09,402.67c-3.75,10.58-11.42,5.56-11.74-3.26c0.25-4.14,3.9-4.65,5.89-1.34
		C94.45,392.97,97.67,397.77,96.09,402.67z M95.26,387.31c-1.19,1.81-2.92,3.71-4.95,4.4c-3.2-1.6-6.05-4.8-6.05-8.64
		c-0.17-4.69,3.43-6,6.13-2.12C94.75,374.3,98.52,383.15,95.26,387.31z M96.13,368.77c-3.46,10-11.93,5.43-11.82-3.22
		c0.51-4.52,3.46-4.57,6.09-1.49C94.38,358.82,97.68,364.37,96.13,368.77z M100.8,375.84c-0.02-3.31,0.52-9.42,0.75-12.8
		c0.66-3.26,6.24-2.73,8.6-1.53c8.24,5.61,6.17,18.35,5.66,27.02c-0.73,9.9-4.27,17.75-14.42,20.78
		C100.62,398.23,100.89,386.99,100.8,375.84z M119.81,432.4c-1.32,7.76-11.36,14.51-18.5,10.65c-1.36-2.86-0.44-7.26-0.71-10.49
		h-0.08l0.39-12.96c0.04-1.44,0.34-1.99,1.89-2.2c5.88,0.49,16.96-7.92,17.6,2.36C120.66,423.7,120.73,428.99,119.81,432.4z"/>
	<path class="st7" d="M181.6,353.22c-10.84-1.32-21.9-0.3-32.84-0.55c-11-0.17-11.19,1.71-10.92,12.02
		c0.7,13.79-0.11,27.59-0.32,41.4c-0.68,10.9,0.56,22.3,0,33.23c0.07,9.78-2.11,15.02,10.41,13.24c9.87-0.3,19.56-0.5,29.42-1.06
		c6.07,0.96,7.94-7.34,1.18-7.38c0,0-18.07,0.86-18.07,0.86c-2.77,0.15-1.3-3.84-1.61-5.7c0.09-6.46,0.43-13.55,0.04-20.31
		c-0.04-1.41,0.02-2.6,1.73-2.51c3.02,0.06,6.68-0.31,9.66,0.24c5.11-0.43,3.75-8.09-1.18-7.58c-2.07-0.12-5.15,0.13-7.23-0.04
		c-2.79,0.17-3.18-0.66-2.98-3.22c0.4-10.27,1-21.44,0.59-31.89c-0.09-3.98-0.36-8.26-0.2-12.25c0-0.99,0.52-1.49,1.57-1.49
		c6.76-0.25,13.59-0.03,20.35-0.31C184.63,359.28,184.91,354.23,181.6,353.22z M142.16,417.4c-0.18-4.51,3.92-6.23,5.89-1.89
		c3.84-5.44,7.72-0.86,5.93,4.2c-0.97,2.57-3.29,7.03-6.56,6.09C144.59,423.62,142.22,421.23,142.16,417.4z M152.85,439.47
		c-1.72,1.64-2.42,3.22-4.24,3.54c-2.12-0.58-4.71-3.66-5.73-5.97c-1.71-4.51,1.79-10.63,5.73-4.79
		C153.69,425.1,156.97,435.92,152.85,439.47z M154.3,403.14c-3.75,10.58-11.42,5.56-11.74-3.26c0.25-4.14,3.9-4.65,5.89-1.34
		C152.65,393.44,155.88,398.24,154.3,403.14z M153.47,387.78c-1.19,1.81-2.92,3.71-4.95,4.4c-3.2-1.6-6.05-4.8-6.05-8.64
		c-0.17-4.69,3.43-6,6.13-2.12C152.96,374.77,156.73,383.62,153.47,387.78z M154.34,369.24c-3.46,10-11.93,5.43-11.82-3.22
		c0.51-4.52,3.46-4.57,6.09-1.49C152.59,359.29,155.88,364.84,154.34,369.24z"/>
	<path class="st7" d="M288.9,443.52c-1.82-28.36-2.94-57.66-2.59-86.14c0.17-5.13-6.92-6.96-8.01-1.1
		c-4.45,13.63-7.61,29.4-12.18,43.2c-5.66-14.69-8.42-31.56-13.12-45.72c-2.88-1.95-8.11-1.03-11.59-0.98
		c-4.4,0.36-10.34,0.12-10.17,6.25c0,0-0.16,39.36-0.16,39.36c0.34,14.82,0.89,29.67,1.41,44.46c-0.07,10.37,1.91,9.42,11.08,9.15
		c6.88-0.13,12.61,0.52,10.8-8.44c-0.29-19.51-2.32-40.45-0.9-59.47c3.18,9.63,6.15,19.5,9.43,29.22c0.3,3.79,5.1,6.61,7.31,2.59
		c3.42-10.87,4.31-22.38,8.4-33.07c1.51,20.44,1.48,42.41,2.99,62.92c-0.38,4.05,3.72,8.66,7.19,4.75
		C290.64,448.5,288.91,445.81,288.9,443.52z M236.74,417.55c-0.28-4.53,3.86-6.5,5.89-2.04c3.84-5.44,7.72-0.86,5.93,4.2
		c-0.98,2.57-3.29,7.03-6.56,6.09C239.2,423.64,236.88,421.34,236.74,417.55z M247.42,439.47c-1.72,1.64-2.42,3.22-4.24,3.54
		c-2.12-0.58-4.71-3.66-5.73-5.97c-1.71-4.51,1.79-10.63,5.73-4.79C248.26,425.1,251.55,435.92,247.42,439.47z M248.88,403.14
		c-3.75,10.58-11.42,5.56-11.74-3.26c0.25-4.14,3.9-4.65,5.89-1.34C247.23,393.44,250.46,398.24,248.88,403.14z M248.05,387.78
		c-1.19,1.81-2.92,3.71-4.95,4.4c-3.2-1.6-6.05-4.8-6.05-8.64c-0.17-4.69,3.43-6,6.13-2.12
		C247.54,374.77,251.31,383.62,248.05,387.78z M248.92,369.24c-3.46,10-11.93,5.43-11.82-3.22c0.51-4.52,3.46-4.57,6.09-1.49
		C247.17,359.3,250.46,364.84,248.92,369.24z"/>
	<path class="st7" d="M318.79,432.16c-1.58-24.92,0.28-49.45-0.04-74.23c-0.04-3.43-1.11-4.42-4.48-4.79c0,0-10.05-0.39-10.05-0.39
		c-9.39-0.37-4.99,12.42-6.01,18.3c-0.37,17.65-1.16,35.5-0.16,53.06c0.34,7.62,0.72,15.3,1.14,23.06
		c-0.02,3.66,3.55,4.65,6.52,4.79c4.66-0.61,13.47,1.91,13.98-4.87C319.99,442.15,319.12,437.03,318.79,432.16z M302.33,417.4
		c-0.18-4.51,3.92-6.23,5.89-1.89c3.84-5.44,7.72-0.86,5.93,4.2c-0.98,2.57-3.29,7.03-6.56,6.09
		C304.76,423.62,302.39,421.23,302.33,417.4z M313.02,439.47c-1.72,1.64-2.42,3.22-4.24,3.54c-2.12-0.58-4.71-3.66-5.74-5.97
		c-1.71-4.51,1.79-10.63,5.73-4.79C313.86,425.1,317.15,435.92,313.02,439.47z M314.47,403.14c-3.75,10.58-11.42,5.56-11.74-3.26
		c0.25-4.14,3.9-4.65,5.89-1.34C312.83,393.44,316.05,398.24,314.47,403.14z M313.65,387.78c-1.19,1.81-2.92,3.71-4.95,4.4
		c-3.2-1.6-6.05-4.8-6.05-8.64c-0.17-4.69,3.43-6,6.13-2.12C313.13,374.77,316.91,383.62,313.65,387.78z M314.51,369.24
		c-3.46,10-11.93,5.43-11.82-3.22c0.51-4.52,3.46-4.57,6.09-1.49C312.76,359.29,316.06,364.84,314.51,369.24z"/>
	<path class="st7" d="M379.95,445.28c-1.94-29.42-4.55-59.27-3.46-88.85c0.07-2.97-3.57-4.59-5.74-2.75
		c-3.29,4.08-1.1,22.55-1.65,28.59c-0.47,14.53,2.22,28.84,1.73,43.28c-6.72-22.71-14.08-45.46-17.91-68.81
		c-0.45-6.5-14.74-3.33-19.4-3.77c-3.37,0.13-4.34,3.07-4.01,5.97c0,27.27-0.64,54.84,0.55,82.13c0.62,3.69-0.62,10.58,4.79,10.64
		c5.63-0.46,12.37,1.59,17.52-0.75c0.94-0.79,1.07-2.42,0.79-3.65c-0.6-3.71-0.56-5.89-0.83-10.06
		c-0.36-16.19-1.16-33.09-0.12-48.94c4.68,9.57,14.29,62.97,23.09,63.55C378.83,451.94,380.76,448.71,379.95,445.28z M334.85,417.4
		c-0.18-4.51,3.92-6.23,5.89-1.89c3.84-5.44,7.72-0.86,5.93,4.2c-0.97,2.57-3.29,7.03-6.56,6.09
		C337.28,423.62,334.91,421.23,334.85,417.4z M345.54,439.47c-1.72,1.64-2.42,3.22-4.24,3.54c-2.12-0.58-4.71-3.66-5.74-5.97
		c-1.71-4.51,1.79-10.63,5.73-4.79C346.38,425.1,349.67,435.92,345.54,439.47z M346.99,403.14c-3.75,10.58-11.42,5.56-11.74-3.26
		c0.25-4.14,3.9-4.65,5.89-1.34C345.35,393.44,348.58,398.24,346.99,403.14z M346.17,387.78c-1.19,1.81-2.92,3.71-4.95,4.4
		c-3.2-1.6-6.05-4.8-6.05-8.64c-0.17-4.69,3.43-6,6.13-2.12C345.65,374.77,349.43,383.62,346.17,387.78z M347.03,369.24
		c-3.46,10-11.93,5.43-11.82-3.22c0.51-4.52,3.46-4.57,6.09-1.49C345.28,359.29,348.58,364.84,347.03,369.24z"/>
	<path class="st7" d="M433.99,354.47c-0.84-1.25-2.51-1.5-3.93-1.65c-9.61-0.38-19.2-0.17-28.83-0.16
		c-11.46,0.03-13.31-0.13-12.73,12.02c0.22,8.51,0.49,16.91,0.12,25.41c-0.66,13.36-0.74,26.82-0.27,40.18
		c0.06,2.08-0.24,10.13-0.24,12.1c0.26,4.41-1.13,11.05,5.34,10.37c12.65-0.77,25.44-0.04,37.94-1.81c3.96-1.82,1.92-7.29-2.2-6.83
		c-28.38,0.85-17.48,6.35-19.64-25.77c-0.33-2.51,2.54-1.79,4.09-1.89c2.18-0.09,5.18-0.16,7.31,0.24c3.91-0.04,4.51-6.25,0.71-7.23
		c-2.09-0.68-5.13-0.29-7.31-0.31c-3.01-0.29-5.28,0.8-4.79-3.3c0.65-13.15,1-27.09,0.31-40.38c-0.02-5.64-0.36-5.32,5.42-5.42
		c3.53,0.35,7.14-0.18,10.68-0.08C429.86,360.28,436.83,360.33,433.99,354.47z M392.83,417.4c-0.18-4.51,3.92-6.23,5.89-1.89
		c3.84-5.44,7.72-0.86,5.93,4.2c-0.98,2.57-3.29,7.03-6.56,6.09C395.26,423.62,392.88,421.23,392.83,417.4z M403.51,439.47
		c-1.72,1.64-2.42,3.22-4.24,3.54c-2.12-0.58-4.71-3.66-5.73-5.97c-1.71-4.51,1.79-10.63,5.73-4.79
		C404.35,425.1,407.64,435.92,403.51,439.47z M404.96,403.14c-3.75,10.58-11.42,5.56-11.74-3.26c0.25-4.14,3.9-4.65,5.89-1.34
		C403.32,393.44,406.55,398.25,404.96,403.14z M404.14,387.78c-1.19,1.81-2.92,3.71-4.95,4.4c-3.2-1.6-6.05-4.8-6.05-8.64
		c-0.17-4.69,3.43-6,6.13-2.12C403.62,374.77,407.4,383.62,404.14,387.78z M405,369.24c-3.46,10-11.93,5.43-11.82-3.22
		c0.51-4.52,3.46-4.57,6.09-1.49C403.25,359.29,406.55,364.84,405,369.24z"/>
</g>
</svg>
