<?xml version="1.0" encoding="utf-8"?>
<!-- Generator: Adobe Illustrator 25.0.0, SVG Export Plug-In . SVG Version: 6.00 Build 0)  -->
<svg version="1.1" id="Layer_1" xmlns="http://www.w3.org/2000/svg" xmlns:xlink="http://www.w3.org/1999/xlink" x="0px" y="0px"
	 viewBox="0 0 500 500" style="enable-background:new 0 0 500 500;" xml:space="preserve">
<style type="text/css">
	.st0{fill:#B51B2C;}
	.st1{fill:#030304;}
	.st2{fill:#020203;}
	.st3{fill:#13110C;}
	.st4{fill:#CE536A;}
	.st5{fill:#F192AC;}
	.st6{fill:#E3748C;}
	.st7{fill:#C0364A;}
	.st8{fill:#EE7289;}
</style>
<g>
	<path class="st5" d="M50.79,325.7c0-3.53,1.25-8.42,2.39-13.3c1.66-7.59,3.53-15.7,3.53-23.8c0-5.3-0.73-10.91-2.39-15.8
		c-1.66-4.89-2.7-6.55-2.7-8.73c0-3.95,7.69-5.92,22.87-5.92c13.41,0,19.96,6.44,19.96,13.41c0,7.17-3.64,11.02-7.48,13.3
		c6.13,1.25,17.25,8.73,17.25,21.31c0,14.55-9.15,26.82-31.08,26.82C58.48,332.98,50.79,332.36,50.79,325.7z M73.45,275.19
		c0,3.43,1.66,4.78,3.43,4.78c2.7,0,6.13-3.01,6.13-6.86c0-2.39-2.18-4.37-4.47-4.37C75.53,268.74,73.45,270.51,73.45,275.19z
		 M78.33,296.49c2.49,0,4.57,1.87,4.57,4.37c0,3.01-2.08,4.26-3.95,4.26c-2.18,0-3.22-1.66-3.22-2.49c-1.04,0.1-2.29,1.14-2.29,2.81
		c0,2.39,2.29,4.26,6.13,4.26c4.89,0,8.11-3.85,8.32-9.04c0.1-3.53-2.81-6.76-7.07-6.76c-3.74,0-5.41,2.49-5.92,3.74
		C75.74,297.01,76.98,296.49,78.33,296.49z"/>
	<path class="st5" d="M135.3,288.59c-3.53,0-5.3,3.12-5.3,7.69c0,9.98,3.01,11.54,12.89,11.54c4.37,0,8.94-0.42,11.75-1.97
		c1.56-0.83,2.18-1.98,3.12-1.98c2.39,0,2.7,4.37,2.7,9.67c0,6.86,0.42,11.43-3.22,15.07c-4.26,4.26-11.23,4.37-21.52,4.37
		c-19.96,0-27.34-1.87-27.34-7.28c0-3.53,1.25-8.42,2.39-13.3c1.66-7.59,3.53-15.7,3.53-23.8c0-5.3-0.73-10.91-2.39-15.8
		c-1.66-4.89-2.7-6.55-2.7-8.73c0-3.95,4.78-5.09,11.43-5.09c4.26,0,8.42,0.42,16.11,0.42c7.8,0,12.37-1.25,15.8-1.25
		c3.43,0,4.26,3.74,4.26,8.11c0,3.43-0.31,12.37-5.09,12.37c-2.18,0-2.08-1.97-3.85-4.89c-1.46-2.39-3.64-3.95-7.17-3.95
		c-4.26,0-6.03,1.56-7.28,2.81c-2.29,2.39-2.91,6.96-2.81,8.94c1.56-0.83,3.53-1.46,6.24-1.46c6.44,0,10.29,5.2,10.29,9.98
		c0,5.82-4.26,9.56-9.04,9.56c-3.74,0-6.55-2.39-6.55-5.51c0-2.49,1.56-3.95,3.53-3.95c1.35,0,2.29,0.73,2.7,1.98
		c0.21-0.21,0.42-0.62,0.42-1.14C138.21,289.95,137.06,288.59,135.3,288.59z"/>
	<path class="st5" d="M260.34,280.38c1.25-6.86,1.35-12.79,1.35-16.32c0-3.95,5.3-5.09,10.19-5.09s11.23,1.25,11.23,5.09
		c0,1.66-0.52,3.64-0.83,5.92c-0.62,5.2-0.62,13.41-0.1,19.65c0.73,8.21,2.81,15.18,5.72,22.76c1.87,4.89,3.95,9.77,4.57,13.3
		c0.83,5.4-5.2,7.28-12.47,7.28c-7.59,0-14.24-1.87-15.07-7.28c-0.73-4.37,1.46-8.73,0.62-17.57c-0.21-2.18-1.87-3.33-3.64-0.31
		c-3.53,6.13-4.99,16.94-12.99,16.94c-7.9,0-11.43-11.75-15.9-16.94c-1.66-1.97-3.22-1.46-3.12,1.35
		c0.31,8.11,2.39,11.64,1.77,16.53c-0.73,5.4-6.55,7.28-14.14,7.28c-7.17,0-13.82-1.87-12.99-7.28c0.62-3.53,3.22-8.42,5.09-13.3
		c2.91-7.59,4.37-12.37,5.61-20.48c0.83-5.3,0.83-14.03-0.1-21.2c-0.31-2.7-1.25-5.2-1.25-6.65c0-3.95,5.3-5.09,10.39-5.09
		c6.55,0,10.19,1.98,10.5,5.09c0.42,4.47,2.08,11.85,4.47,18.5c2.29,6.34,7.8,12.99,11.75,12.99
		C254.1,295.56,258.68,289.84,260.34,280.38z"/>
	<path class="st5" d="M323.96,264.06c0,2.18-1.04,3.85-2.7,8.73s-2.39,10.5-2.39,15.8c0,8.11,1.87,16.22,3.53,23.8
		c1.14,4.89,2.39,9.77,2.39,13.3c0,5.4-6.34,7.28-13.93,7.28c-7.59,0-13.93-1.87-13.93-7.28c0-3.53,1.25-8.42,2.39-13.3
		c1.66-7.59,3.53-15.7,3.53-23.8c0-5.3-0.73-10.91-2.39-15.8s-2.7-6.55-2.7-8.73c0-3.95,8.21-5.09,13.1-5.09
		C315.74,258.97,323.96,260.11,323.96,264.06z"/>
	<path class="st5" d="M373.54,289.01c0.52-0.42,0.62-1.25,0.62-2.18c-0.1-2.91-0.73-6.86-2.08-12.58c-1.25-4.99-2.39-8-2.39-10.19
		c0-3.95,7.48-5.09,12.16-5.09c4.68,0,12.16,1.14,12.16,5.09c0,2.18-1.04,3.85-2.7,8.73s-2.39,10.5-2.39,15.8
		c0,17.25,3.95,29,3.95,36.38c0,4.47-2.08,8-8.21,8c-8.63,0-12.47-6.44-15.59-11.43c-2.49-3.95-5.61-8.52-8.63-11.85
		c-2.6-2.91-5.51-5.72-7.07-5.2c-0.83,0.31-0.94,1.46-0.62,2.91c0.31,1.77,0.73,3.64,1.04,4.99c1.14,4.89,2.39,9.77,2.39,13.3
		c0,5.4-5.92,7.28-12.89,7.28c-7.17,0-13.1-1.87-13.1-7.28c0-3.53,1.25-8.42,2.39-13.3c1.66-7.59,3.53-15.7,3.53-23.8
		c0-5.3-0.73-10.91-2.39-15.8s-2.7-6.55-2.7-8.73c0-3.95,5.92-5.09,9.56-5.09c4.68,0,8.84,1.98,8.84,5.09
		c0,6.44,5.82,13.41,9.87,17.88c4.99,5.51,9.67,6.86,11.43,7.28C371.98,289.53,373.02,289.43,373.54,289.01z"/>
	<path class="st5" d="M426.13,288.59c-3.53,0-5.3,3.12-5.3,7.69c0,9.98,3.01,11.54,12.89,11.54c4.37,0,8.94-0.42,11.75-1.97
		c1.56-0.83,2.18-1.98,3.12-1.98c2.39,0,2.7,4.37,2.7,9.67c0,6.86,0.42,11.43-3.22,15.07c-4.26,4.26-11.23,4.37-21.52,4.37
		c-19.96,0-27.34-1.87-27.34-7.28c0-3.53,1.25-8.42,2.39-13.3c1.66-7.59,3.53-15.7,3.53-23.8c0-5.3-0.73-10.91-2.39-15.8
		s-2.7-6.55-2.7-8.73c0-3.95,4.78-5.09,11.43-5.09c4.26,0,8.42,0.42,16.11,0.42c7.8,0,12.37-1.25,15.8-1.25
		c3.43,0,4.26,3.74,4.26,8.11c0,3.43-0.31,12.37-5.09,12.37c-2.18,0-2.08-1.97-3.85-4.89c-1.46-2.39-3.64-3.95-7.17-3.95
		c-4.26,0-6.03,1.56-7.28,2.81c-2.29,2.39-2.91,6.96-2.81,8.94c1.56-0.83,3.53-1.46,6.24-1.46c6.44,0,10.29,5.2,10.29,9.98
		c0,5.82-4.26,9.56-9.04,9.56c-3.74,0-6.55-2.39-6.55-5.51c0-2.49,1.56-3.95,3.53-3.95c1.35,0,2.29,0.73,2.7,1.98
		c0.21-0.21,0.42-0.62,0.42-1.14C429.04,289.95,427.9,288.59,426.13,288.59z"/>
</g>
<g>
	<path class="st4" d="M50.79,264.26c0-3.53,1.25-8.42,2.39-13.3c1.66-7.59,3.53-15.7,3.53-23.8c0-5.3-0.73-10.91-2.39-15.8
		c-1.66-4.89-2.7-6.55-2.7-8.73c0-3.95,7.69-5.92,22.87-5.92c13.41,0,19.96,6.44,19.96,13.41c0,7.17-3.64,11.02-7.48,13.3
		c6.13,1.25,17.25,8.73,17.25,21.31c0,14.55-9.15,26.82-31.08,26.82C58.48,271.53,50.79,270.91,50.79,264.26z M73.45,213.74
		c0,3.43,1.66,4.78,3.43,4.78c2.7,0,6.13-3.01,6.13-6.86c0-2.39-2.18-4.37-4.47-4.37C75.53,207.29,73.45,209.06,73.45,213.74z
		 M78.33,235.05c2.49,0,4.57,1.87,4.57,4.37c0,3.01-2.08,4.26-3.95,4.26c-2.18,0-3.22-1.66-3.22-2.49c-1.04,0.1-2.29,1.14-2.29,2.81
		c0,2.39,2.29,4.26,6.13,4.26c4.89,0,8.11-3.85,8.32-9.04c0.1-3.53-2.81-6.76-7.07-6.76c-3.74,0-5.41,2.49-5.92,3.74
		C75.74,235.57,76.98,235.05,78.33,235.05z"/>
	<path class="st4" d="M135.3,227.15c-3.53,0-5.3,3.12-5.3,7.69c0,9.98,3.01,11.54,12.89,11.54c4.37,0,8.94-0.42,11.75-1.98
		c1.56-0.83,2.18-1.97,3.12-1.97c2.39,0,2.7,4.37,2.7,9.67c0,6.86,0.42,11.43-3.22,15.07c-4.26,4.26-11.23,4.37-21.52,4.37
		c-19.96,0-27.34-1.87-27.34-7.28c0-3.53,1.25-8.42,2.39-13.3c1.66-7.59,3.53-15.7,3.53-23.8c0-5.3-0.73-10.91-2.39-15.8
		c-1.66-4.89-2.7-6.55-2.7-8.73c0-3.95,4.78-5.09,11.43-5.09c4.26,0,8.42,0.42,16.11,0.42c7.8,0,12.37-1.25,15.8-1.25
		c3.43,0,4.26,3.74,4.26,8.11c0,3.43-0.31,12.37-5.09,12.37c-2.18,0-2.08-1.98-3.85-4.89c-1.46-2.39-3.64-3.95-7.17-3.95
		c-4.26,0-6.03,1.56-7.28,2.81c-2.29,2.39-2.91,6.96-2.81,8.94c1.56-0.83,3.53-1.46,6.24-1.46c6.44,0,10.29,5.2,10.29,9.98
		c0,5.82-4.26,9.56-9.04,9.56c-3.74,0-6.55-2.39-6.55-5.51c0-2.49,1.56-3.95,3.53-3.95c1.35,0,2.29,0.73,2.7,1.97
		c0.21-0.21,0.42-0.62,0.42-1.14C138.21,228.5,137.06,227.15,135.3,227.15z"/>
	<path class="st4" d="M260.34,218.94c1.25-6.86,1.35-12.79,1.35-16.32c0-3.95,5.3-5.09,10.19-5.09s11.23,1.25,11.23,5.09
		c0,1.66-0.52,3.64-0.83,5.92c-0.62,5.2-0.62,13.41-0.1,19.65c0.73,8.21,2.81,15.18,5.72,22.76c1.87,4.89,3.95,9.77,4.57,13.3
		c0.83,5.4-5.2,7.28-12.47,7.28c-7.59,0-14.24-1.87-15.07-7.28c-0.73-4.37,1.46-8.73,0.62-17.57c-0.21-2.18-1.87-3.33-3.64-0.31
		c-3.53,6.13-4.99,16.94-12.99,16.94c-7.9,0-11.43-11.75-15.9-16.94c-1.66-1.98-3.22-1.46-3.12,1.35
		c0.31,8.11,2.39,11.64,1.77,16.53c-0.73,5.4-6.55,7.28-14.14,7.28c-7.17,0-13.82-1.87-12.99-7.28c0.62-3.53,3.22-8.42,5.09-13.3
		c2.91-7.59,4.37-12.37,5.61-20.48c0.83-5.3,0.83-14.03-0.1-21.2c-0.31-2.7-1.25-5.2-1.25-6.65c0-3.95,5.3-5.09,10.39-5.09
		c6.55,0,10.19,1.97,10.5,5.09c0.42,4.47,2.08,11.85,4.47,18.5c2.29,6.34,7.8,12.99,11.75,12.99
		C254.1,234.11,258.68,228.4,260.34,218.94z"/>
	<path class="st4" d="M323.96,202.62c0,2.18-1.04,3.85-2.7,8.73c-1.66,4.89-2.39,10.5-2.39,15.8c0,8.11,1.87,16.22,3.53,23.8
		c1.14,4.89,2.39,9.77,2.39,13.3c0,5.4-6.34,7.28-13.93,7.28c-7.59,0-13.93-1.87-13.93-7.28c0-3.53,1.25-8.42,2.39-13.3
		c1.66-7.59,3.53-15.7,3.53-23.8c0-5.3-0.73-10.91-2.39-15.8c-1.66-4.89-2.7-6.55-2.7-8.73c0-3.95,8.21-5.09,13.1-5.09
		C315.74,197.52,323.96,198.67,323.96,202.62z"/>
	<path class="st4" d="M373.54,227.56c0.52-0.42,0.62-1.25,0.62-2.18c-0.1-2.91-0.73-6.86-2.08-12.58c-1.25-4.99-2.39-8-2.39-10.19
		c0-3.95,7.48-5.09,12.16-5.09c4.68,0,12.16,1.14,12.16,5.09c0,2.18-1.04,3.85-2.7,8.73c-1.66,4.89-2.39,10.5-2.39,15.8
		c0,17.25,3.95,29,3.95,36.38c0,4.47-2.08,8-8.21,8c-8.63,0-12.47-6.44-15.59-11.43c-2.49-3.95-5.61-8.52-8.63-11.85
		c-2.6-2.91-5.51-5.72-7.07-5.2c-0.83,0.31-0.94,1.46-0.62,2.91c0.31,1.77,0.73,3.64,1.04,4.99c1.14,4.89,2.39,9.77,2.39,13.3
		c0,5.4-5.92,7.28-12.89,7.28c-7.17,0-13.1-1.87-13.1-7.28c0-3.53,1.25-8.42,2.39-13.3c1.66-7.59,3.53-15.7,3.53-23.8
		c0-5.3-0.73-10.91-2.39-15.8c-1.66-4.89-2.7-6.55-2.7-8.73c0-3.95,5.92-5.09,9.56-5.09c4.68,0,8.84,1.97,8.84,5.09
		c0,6.44,5.82,13.41,9.87,17.88c4.99,5.51,9.67,6.86,11.43,7.28C371.98,228.08,373.02,227.98,373.54,227.56z"/>
	<path class="st4" d="M426.13,227.15c-3.53,0-5.3,3.12-5.3,7.69c0,9.98,3.01,11.54,12.89,11.54c4.37,0,8.94-0.42,11.75-1.98
		c1.56-0.83,2.18-1.97,3.12-1.97c2.39,0,2.7,4.37,2.7,9.67c0,6.86,0.42,11.43-3.22,15.07c-4.26,4.26-11.23,4.37-21.52,4.37
		c-19.96,0-27.34-1.87-27.34-7.28c0-3.53,1.25-8.42,2.39-13.3c1.66-7.59,3.53-15.7,3.53-23.8c0-5.3-0.73-10.91-2.39-15.8
		c-1.66-4.89-2.7-6.55-2.7-8.73c0-3.95,4.78-5.09,11.43-5.09c4.26,0,8.42,0.42,16.11,0.42c7.8,0,12.37-1.25,15.8-1.25
		c3.43,0,4.26,3.74,4.26,8.11c0,3.43-0.31,12.37-5.09,12.37c-2.18,0-2.08-1.98-3.85-4.89c-1.46-2.39-3.64-3.95-7.17-3.95
		c-4.26,0-6.03,1.56-7.28,2.81c-2.29,2.39-2.91,6.96-2.81,8.94c1.56-0.83,3.53-1.46,6.24-1.46c6.44,0,10.29,5.2,10.29,9.98
		c0,5.82-4.26,9.56-9.04,9.56c-3.74,0-6.55-2.39-6.55-5.51c0-2.49,1.56-3.95,3.53-3.95c1.35,0,2.29,0.73,2.7,1.97
		c0.21-0.21,0.42-0.62,0.42-1.14C429.04,228.5,427.9,227.15,426.13,227.15z"/>
</g>
<g>
	<g>
		<path class="st0" d="M303.36,262.33c-0.05-0.23-0.19-0.32-0.42-0.27c-0.38,0.09-0.74,0.45-1.08,1.08
			c-7.88,18.99-13.82,41.12-17.81,66.39c-1.74,11.1-3.3,22.04-4.67,32.81c-1.35,11.05-2.88,21.84-4.59,32.38
			c-6.43-13.66-12.92-26.19-19.47-37.58c-8.1-14-15.21-25.09-21.32-33.27c-3.29-3.81-6.19-6.64-8.68-8.48
			c-2.3-1.72-4.46-2.35-6.48-1.9c-4.72,1.06-9.57,9-14.54,23.82c-0.1,0.26-0.13,0.47-0.1,0.62l0.06,0.29
			c0.03,0.11,0.19,0.14,0.5,0.07c0.49-0.11,0.82-0.5,0.99-1.18c4.61-13.46,8.7-20.59,12.27-21.4c1.9-0.43,4,0.23,6.29,1.97
			c2.29,1.74,5.03,4.47,8.22,8.19c6.1,8.14,13.18,19.19,21.24,33.17c6.88,11.96,13.71,25.17,20.47,39.63
			c0.08,0.18,0.24,0.25,0.46,0.2c0.19-0.04,0.41-0.2,0.67-0.48c0.26-0.28,0.42-0.6,0.5-0.98c1.94-11.62,3.69-23.6,5.23-35.94
			c1.31-10.72,2.84-21.59,4.6-32.62c3.96-25.06,9.81-46.93,17.56-65.62C303.39,262.9,303.42,262.59,303.36,262.33z"/>
		<path class="st0" d="M414.89,325.25l0.75-0.11l0.34-0.08c1.24-0.52,2.21-1.29,2.89-2.33c0.42-0.61,0.58-1.17,0.47-1.66
			c-0.15-0.68-0.55-1.03-1.19-1.05c-0.16,0-0.34,0.02-0.53,0.06c-0.65,0.15-1.27,0.4-1.86,0.78c-1.6,1.08-2.26,2.21-2,3.39
			C413.91,324.89,414.28,325.23,414.89,325.25z"/>
		<path class="st0" d="M479.16,315.49c-0.46,0.1-0.82,0.46-1.08,1.08c-1.34,3.1-2.89,5.53-4.66,7.28c-1.98,2.04-4.01,3.3-6.11,3.77
			c-1.03,0.23-2,0.27-2.91,0.11c-1.76-0.36-2.99-1.31-3.69-2.83c0.72-0.16,1.47-0.65,2.25-1.46c1.37-1.39,1.92-2.67,1.65-3.85
			c-0.04-0.19-0.1-0.36-0.17-0.5c-1.07-1.92-2.08-2.77-3.03-2.56c-0.91,0.21-1.69,1.38-2.33,3.52l-0.21,0.65
			c-0.02,0.12-0.03,0.23-0.05,0.34c-0.02,0.07-0.05,0.14-0.06,0.22c-0.56,2.68-1.79,5.38-3.7,8.08c-1.47,2.01-3.15,3.23-5.05,3.65
			c-1.07,0.04-2.19-1.55-3.35-4.76c-0.34-1-0.7-1.88-1.07-2.64c-0.57-1.11-1.22-1.58-1.94-1.42c-1.22,0.27-2.5,2.38-3.85,6.32
			c-0.33-1.48-0.62-3.3-0.86-5.44l-0.26-1.98l-0.04-0.17c-0.05-0.23-0.21-0.31-0.48-0.25c-0.11,0.03-0.27,0.13-0.47,0.32
			c-0.2,0.18-0.37,0.42-0.5,0.71c-0.13,0.29-0.2,0.55-0.18,0.79l0.08,0.8c-0.1,0.13-0.2,0.27-0.28,0.44
			c-2.67,5-5.75,8.36-9.24,10.11c-0.76,0.37-1.48,0.63-2.16,0.79c-0.61,0.14-1.2,0.19-1.76,0.16c-2.22-0.1-3.62-1.46-4.21-4.09
			c-0.15-0.66-0.25-1.4-0.29-2.22c0.05-0.19,0.1-0.37,0.15-0.56c0.03-0.21,0.03-0.39,0-0.54c-0.06-0.27-0.24-0.36-0.55-0.3
			c-0.01,0-0.02,0.01-0.03,0.01c-0.01,0-0.02,0-0.03,0c-0.15,0.03-0.32,0.12-0.51,0.26c-0.19,0.14-0.36,0.36-0.51,0.65
			c-0.15,0.29-0.24,0.56-0.27,0.81c0.01,0.2,0.02,0.39,0.03,0.59c-2.39,9.19-5.49,16.22-9.3,21.1c-1.64,1.97-3.16,3.11-4.56,3.42
			c-1.18,0.26-2.33-0.04-3.44-0.91c-2.16-1.63-3.91-5.39-5.23-11.29c-0.65-2.89-1.14-5.7-1.47-8.42c-0.73-5.91-1.17-11.34-1.33-16.3
			c5.32-1.75,9.81-4.9,13.46-9.44c0.35-0.56,0.48-1.07,0.38-1.52c-0.11-0.13-0.24-0.18-0.39-0.15c-0.3,0.07-0.56,0.25-0.78,0.53
			c-2.68,3.36-5.99,5.86-9.94,7.51c-0.91,0.4-1.83,0.77-2.75,1.1c-0.12-10.68,0.84-19.27,2.9-25.76c0.06-0.25,0.08-0.46,0.04-0.61
			c-0.06-0.27-0.22-0.37-0.49-0.31c-0.49,0.11-0.86,0.53-1.09,1.27c-2.12,6.59-3.13,15.23-3.05,25.92
			c-3.69,0.83-6.99,1.27-9.89,1.32c-0.23,0.05-0.46,0.16-0.7,0.34c-0.48,0.51-0.68,0.99-0.57,1.45c0.07,0.31,0.18,0.46,0.34,0.46
			c2.95-0.02,5.85-0.36,8.71-1l2.16-0.54c0.08,4.86,0.48,10.2,1.19,16c-0.2,0.26-0.34,0.55-0.39,0.9c-0.56,2.68-1.79,5.38-3.7,8.08
			c-1.47,2.01-3.15,3.23-5.05,3.65c-1.07,0.04-2.19-1.55-3.35-4.76c-0.34-1-0.7-1.88-1.07-2.64c-0.57-1.11-1.22-1.58-1.94-1.42
			c-1.22,0.27-2.5,2.38-3.85,6.32c-0.33-1.48-0.62-3.3-0.86-5.44l-0.26-1.98l-0.04-0.17c-0.05-0.23-0.21-0.31-0.48-0.25
			c-0.11,0.03-0.27,0.13-0.47,0.32c-0.2,0.18-0.36,0.42-0.5,0.71c-0.14,0.29-0.2,0.55-0.18,0.79l0.08,0.81
			c-0.12,0.15-0.22,0.34-0.32,0.56c-1.34,3.1-2.89,5.53-4.66,7.28c-1.98,2.04-4.01,3.3-6.11,3.77c-1.03,0.23-2,0.27-2.91,0.11
			c-1.76-0.36-2.99-1.31-3.69-2.83c0.72-0.16,1.47-0.65,2.25-1.46c1.37-1.39,1.92-2.67,1.65-3.85c-0.04-0.19-0.1-0.36-0.17-0.5
			c-1.07-1.92-2.08-2.77-3.03-2.56c-0.91,0.21-1.69,1.38-2.33,3.52l-0.21,0.65c-0.03,0.19-0.06,0.38-0.09,0.56
			c-0.85,3.49-2.15,7.3-3.9,11.42c-1.76,4.15-3.73,7.65-5.88,10.49c-1.64,2.13-3.2,3.36-4.68,3.69c-3.46,0.78-6.29-3.52-8.47-12.9
			c-0.44-1.98-0.87-4.5-1.28-7.56c6.03-12.3,10.02-22.63,11.98-30.98c1.96-8.35,2.58-14.64,1.87-18.88l-0.21-1.21
			c-0.92-4.11-2.64-5.88-5.15-5.32c-3.2,0.72-6.05,4.83-8.55,12.35c-3.2,10.05-3.8,24.69-1.8,43.95c-0.08,0.11-0.16,0.24-0.23,0.38
			c-2.67,5-5.75,8.36-9.24,10.11c-0.72,0.36-1.44,0.62-2.16,0.79c-3.23,0.73-5.23-0.58-5.98-3.93c-0.29-1.28-0.34-2.52-0.16-3.72
			c0.01-0.03,0.02-0.06,0.03-0.09l-0.03,0.06c0.01-0.04,0.01-0.08,0.01-0.12l0.18-1.6c-0.06-0.27-0.22-0.37-0.49-0.31
			c-0.57,0.13-0.95,0.59-1.13,1.39c-0.6-1.62-1.69-2.3-3.27-2.02c-0.8,0.18-1.59,0.56-2.38,1.13c-1.68,1.22-2.89,2.87-3.62,4.95
			c-0.27,0.94-0.33,1.73-0.18,2.38c0.1,0.46,0.32,0.87,0.67,1.23c0.34,0.36,0.81,0.61,1.39,0.74c0.59,0.13,1.24,0.11,1.97-0.05
			c1.9-0.43,3.6-1.67,5.1-3.72l0.19,1.1c0.32,1.41,0.82,2.49,1.51,3.26c1.35,1.57,3.21,2.1,5.57,1.57c0.8-0.18,1.61-0.48,2.43-0.91
			c3.78-1.88,7.14-5.39,10.09-10.52c0.39,2.75,0.81,5.15,1.27,7.19c2.3,9.87,5.41,14.37,9.32,13.49c2.05-0.46,4.1-2.02,6.14-4.68
			c2.4-3.18,4.56-6.99,6.48-11.44c1.05-2.44,1.95-4.78,2.7-7.02c0.26,0.93,0.68,1.71,1.28,2.32c1.58,1.68,3.77,2.21,6.59,1.58
			c2.4-0.54,4.78-2.01,7.16-4.43c1.8-1.79,3.4-4.16,4.83-7.09c0.47,3.16,0.87,5.49,1.21,7c0.06,0.27,0.22,0.37,0.49,0.31
			c0.53-0.12,0.91-0.56,1.14-1.33c1.35-4.66,2.27-7.04,2.77-7.15c0.49-0.11,1.18,1.07,2.06,3.55c0.48,1.41,1.05,2.69,1.73,3.84
			c0.68,1.15,1.53,1.6,2.56,1.37c2.43-0.55,4.59-2.13,6.48-4.75c1.66-2.36,2.89-4.7,3.7-7.01c0.29,2.06,0.61,3.93,0.95,5.6
			c2.3,10.23,5.58,14.87,9.84,13.91c1.98-0.44,3.98-1.91,6.02-4.41c3.67-4.67,6.71-11,9.13-18.98c0.3,1.05,0.72,1.91,1.27,2.56
			c1.35,1.57,3.21,2.1,5.57,1.57c0.8-0.18,1.61-0.48,2.43-0.91c3.81-1.9,7.2-5.45,10.16-10.65c0.48,3.31,0.9,5.75,1.25,7.3
			c0.06,0.27,0.22,0.37,0.49,0.31c0.53-0.12,0.91-0.56,1.14-1.33c1.35-4.66,2.27-7.04,2.77-7.15c0.49-0.11,1.18,1.07,2.06,3.55
			c0.48,1.41,1.05,2.69,1.73,3.84c0.68,1.15,1.53,1.6,2.56,1.37c2.43-0.55,4.59-2.13,6.48-4.75c1.18-1.68,2.14-3.35,2.9-5
			c0.01,0.05,0.02,0.1,0.03,0.15c0.25,1.1,0.71,2,1.38,2.69c1.58,1.68,3.77,2.21,6.59,1.58c2.4-0.54,4.78-2.01,7.16-4.42
			c2.12-2.11,3.98-5.03,5.59-8.75c0.12-0.35,0.16-0.62,0.12-0.81C479.53,315.56,479.39,315.43,479.16,315.49z M324.43,324.9
			c0.39-7.68,1.33-13.82,2.81-18.43c1.93-5.99,4.04-9.24,6.32-9.75c1.94-0.44,3.3,1.08,4.08,4.54c0.96,4.26,0.5,10.48-1.38,18.65
			c-1.78,7.71-5.39,17.25-10.83,28.62C324.43,339.48,324.1,331.6,324.43,324.9z M304.29,355.85c-0.98,2.22-2.44,3.54-4.38,3.98
			c-0.57,0.13-1.1,0.15-1.58,0.05c-0.48-0.09-0.83-0.26-1.04-0.51c-0.22-0.25-0.35-0.51-0.41-0.78c-0.07-0.3-0.05-0.67,0.05-1.09
			c0.39-1.13,1.08-2.06,2.07-2.8c0.56-0.36,1.1-0.61,1.63-0.73c1.18-0.26,1.99,0.23,2.43,1.49c0.05,0.23,0.21,0.31,0.48,0.25
			c0.3-0.07,0.6-0.34,0.9-0.8L304.29,355.85z M351.77,344.17c0.15-0.59,0.28-0.9,0.39-0.93c0.55,0.16,1.18,0.87,1.86,2.16l0.03,0.11
			c0.03,0.11-0.01,0.24-0.09,0.38c-0.23,0.57-0.66,0.97-1.29,1.19l-0.17,0.04c-0.49,0.11-0.81-0.12-0.93-0.69
			c-0.08-0.34-0.07-0.82,0.03-1.45L351.77,344.17z M460.63,319.71c0.15-0.59,0.28-0.9,0.39-0.93c0.55,0.16,1.18,0.87,1.86,2.16
			l0.03,0.11c0.03,0.11-0.01,0.24-0.09,0.38c-0.23,0.57-0.66,0.97-1.29,1.19l-0.17,0.04c-0.49,0.11-0.81-0.12-0.93-0.69
			c-0.08-0.34-0.07-0.82,0.03-1.45L460.63,319.71z"/>
	</g>
	<g>
		<path class="st0" d="M50.79,202.81c0-3.53,1.25-8.42,2.39-13.3c1.66-7.59,3.53-15.7,3.53-23.8c0-5.3-0.73-10.91-2.39-15.8
			c-1.66-4.89-2.7-6.55-2.7-8.73c0-3.95,7.69-5.92,22.87-5.92c13.41,0,19.96,6.44,19.96,13.41c0,7.17-3.64,11.02-7.48,13.3
			c6.13,1.25,17.25,8.73,17.25,21.31c0,14.55-9.15,26.82-31.08,26.82C58.48,210.09,50.79,209.46,50.79,202.81z M73.45,152.29
			c0,3.43,1.66,4.78,3.43,4.78c2.7,0,6.13-3.01,6.13-6.86c0-2.39-2.18-4.37-4.47-4.37C75.53,145.85,73.45,147.61,73.45,152.29z
			 M78.33,173.6c2.49,0,4.57,1.87,4.57,4.37c0,3.01-2.08,4.26-3.95,4.26c-2.18,0-3.22-1.66-3.22-2.49c-1.04,0.1-2.29,1.14-2.29,2.81
			c0,2.39,2.29,4.26,6.13,4.26c4.89,0,8.11-3.85,8.32-9.04c0.1-3.53-2.81-6.76-7.07-6.76c-3.74,0-5.41,2.49-5.92,3.74
			C75.74,174.12,76.98,173.6,78.33,173.6z"/>
		<path class="st0" d="M135.3,165.7c-3.53,0-5.3,3.12-5.3,7.69c0,9.98,3.01,11.54,12.89,11.54c4.37,0,8.94-0.42,11.75-1.97
			c1.56-0.83,2.18-1.98,3.12-1.98c2.39,0,2.7,4.37,2.7,9.67c0,6.86,0.42,11.43-3.22,15.07c-4.26,4.26-11.23,4.37-21.52,4.37
			c-19.96,0-27.34-1.87-27.34-7.28c0-3.53,1.25-8.42,2.39-13.3c1.66-7.59,3.53-15.7,3.53-23.8c0-5.3-0.73-10.91-2.39-15.8
			c-1.66-4.89-2.7-6.55-2.7-8.73c0-3.95,4.78-5.09,11.43-5.09c4.26,0,8.42,0.42,16.11,0.42c7.8,0,12.37-1.25,15.8-1.25
			c3.43,0,4.26,3.74,4.26,8.11c0,3.43-0.31,12.37-5.09,12.37c-2.18,0-2.08-1.97-3.85-4.89c-1.46-2.39-3.64-3.95-7.17-3.95
			c-4.26,0-6.03,1.56-7.28,2.81c-2.29,2.39-2.91,6.96-2.81,8.94c1.56-0.83,3.53-1.46,6.24-1.46c6.44,0,10.29,5.2,10.29,9.98
			c0,5.82-4.26,9.56-9.04,9.56c-3.74,0-6.55-2.39-6.55-5.51c0-2.49,1.56-3.95,3.53-3.95c1.35,0,2.29,0.73,2.7,1.97
			c0.21-0.21,0.42-0.62,0.42-1.14C138.21,167.05,137.06,165.7,135.3,165.7z"/>
		<path class="st0" d="M260.34,157.49c1.25-6.86,1.35-12.79,1.35-16.32c0-3.95,5.3-5.09,10.19-5.09s11.23,1.25,11.23,5.09
			c0,1.66-0.52,3.64-0.83,5.92c-0.62,5.2-0.62,13.41-0.1,19.65c0.73,8.21,2.81,15.18,5.72,22.76c1.87,4.89,3.95,9.77,4.57,13.3
			c0.83,5.4-5.2,7.28-12.47,7.28c-7.59,0-14.24-1.87-15.07-7.28c-0.73-4.37,1.46-8.73,0.62-17.57c-0.21-2.18-1.87-3.33-3.64-0.31
			c-3.53,6.13-4.99,16.94-12.99,16.94c-7.9,0-11.43-11.75-15.9-16.94c-1.66-1.97-3.22-1.46-3.12,1.35
			c0.31,8.11,2.39,11.64,1.77,16.53c-0.73,5.4-6.55,7.28-14.14,7.28c-7.17,0-13.82-1.87-12.99-7.28c0.62-3.53,3.22-8.42,5.09-13.3
			c2.91-7.59,4.37-12.37,5.61-20.48c0.83-5.3,0.83-14.03-0.1-21.2c-0.31-2.7-1.25-5.2-1.25-6.65c0-3.95,5.3-5.09,10.39-5.09
			c6.55,0,10.19,1.97,10.5,5.09c0.42,4.47,2.08,11.85,4.47,18.5c2.29,6.34,7.8,12.99,11.75,12.99
			C254.1,172.67,258.68,166.95,260.34,157.49z"/>
		<path class="st0" d="M323.96,141.17c0,2.18-1.04,3.85-2.7,8.73c-1.66,4.89-2.39,10.5-2.39,15.8c0,8.11,1.87,16.22,3.53,23.8
			c1.14,4.89,2.39,9.77,2.39,13.3c0,5.4-6.34,7.28-13.93,7.28c-7.59,0-13.93-1.87-13.93-7.28c0-3.53,1.25-8.42,2.39-13.3
			c1.66-7.59,3.53-15.7,3.53-23.8c0-5.3-0.73-10.91-2.39-15.8c-1.66-4.89-2.7-6.55-2.7-8.73c0-3.95,8.21-5.09,13.1-5.09
			C315.74,136.08,323.96,137.22,323.96,141.17z"/>
		<path class="st0" d="M373.54,166.12c0.52-0.42,0.62-1.25,0.62-2.18c-0.1-2.91-0.73-6.86-2.08-12.58c-1.25-4.99-2.39-8-2.39-10.19
			c0-3.95,7.48-5.09,12.16-5.09c4.68,0,12.16,1.14,12.16,5.09c0,2.18-1.04,3.85-2.7,8.73c-1.66,4.89-2.39,10.5-2.39,15.8
			c0,17.25,3.95,29,3.95,36.38c0,4.47-2.08,8-8.21,8c-8.63,0-12.47-6.44-15.59-11.43c-2.49-3.95-5.61-8.52-8.63-11.85
			c-2.6-2.91-5.51-5.72-7.07-5.2c-0.83,0.31-0.94,1.46-0.62,2.91c0.31,1.77,0.73,3.64,1.04,4.99c1.14,4.89,2.39,9.77,2.39,13.3
			c0,5.4-5.92,7.28-12.89,7.28c-7.17,0-13.1-1.87-13.1-7.28c0-3.53,1.25-8.42,2.39-13.3c1.66-7.59,3.53-15.7,3.53-23.8
			c0-5.3-0.73-10.91-2.39-15.8c-1.66-4.89-2.7-6.55-2.7-8.73c0-3.95,5.92-5.09,9.56-5.09c4.68,0,8.84,1.97,8.84,5.09
			c0,6.44,5.82,13.41,9.87,17.88c4.99,5.51,9.67,6.86,11.43,7.28C371.98,166.64,373.02,166.53,373.54,166.12z"/>
		<path class="st0" d="M426.13,165.7c-3.53,0-5.3,3.12-5.3,7.69c0,9.98,3.01,11.54,12.89,11.54c4.37,0,8.94-0.42,11.75-1.97
			c1.56-0.83,2.18-1.98,3.12-1.98c2.39,0,2.7,4.37,2.7,9.67c0,6.86,0.42,11.43-3.22,15.07c-4.26,4.26-11.23,4.37-21.52,4.37
			c-19.96,0-27.34-1.87-27.34-7.28c0-3.53,1.25-8.42,2.39-13.3c1.66-7.59,3.53-15.7,3.53-23.8c0-5.3-0.73-10.91-2.39-15.8
			c-1.66-4.89-2.7-6.55-2.7-8.73c0-3.95,4.78-5.09,11.43-5.09c4.26,0,8.42,0.42,16.11,0.42c7.8,0,12.37-1.25,15.8-1.25
			c3.43,0,4.26,3.74,4.26,8.11c0,3.43-0.31,12.37-5.09,12.37c-2.18,0-2.08-1.97-3.85-4.89c-1.46-2.39-3.64-3.95-7.17-3.95
			c-4.26,0-6.03,1.56-7.28,2.81c-2.29,2.39-2.91,6.96-2.81,8.94c1.56-0.83,3.53-1.46,6.24-1.46c6.44,0,10.29,5.2,10.29,9.98
			c0,5.82-4.26,9.56-9.04,9.56c-3.74,0-6.55-2.39-6.55-5.51c0-2.49,1.56-3.95,3.53-3.95c1.35,0,2.29,0.73,2.7,1.97
			c0.21-0.21,0.42-0.62,0.42-1.14C429.04,167.05,427.9,165.7,426.13,165.7z"/>
	</g>
	<path class="st0" d="M310.86,111.25c-0.73-0.73-1.19-1.23-1.37-1.51c-0.55-0.73-1.14-1.37-1.78-1.92
		c-0.64-0.55-1.37-0.82-2.19-0.82c-0.18,0-0.64,0.09-1.37,0.27c-1.28,0.46-2.19,1.17-2.74,2.12c-0.55,0.96-0.91,2.03-1.1,3.22
		c-0.09,0.46-0.14,0.84-0.14,1.17c0,0.32,0,0.71,0,1.17c0,1.64,0.23,3.2,0.69,4.66c0.46,1.46,1.28,2.83,2.47,4.11
		c1.92,2.1,3.43,3.68,4.52,4.73c1.1,1.05,2.1,1.58,3.02,1.58c0.91,0,1.9-0.5,2.95-1.51c1.05-1.01,2.54-2.56,4.45-4.66
		c2.19-2.29,3.29-5.03,3.29-8.22c0-1.37-0.18-2.65-0.55-3.84c-0.82-3.2-2.19-4.8-4.11-4.8c-1.37,0-2.93,0.87-4.66,2.6
		c-0.18,0.18-0.37,0.39-0.55,0.62C311.5,110.45,311.22,110.79,310.86,111.25z"/>
</g>
</svg>
