<?xml version="1.0" encoding="utf-8"?>
<!-- Generator: Adobe Illustrator 25.0.0, SVG Export Plug-In . SVG Version: 6.00 Build 0)  -->
<svg version="1.1" id="Layer_1" xmlns="http://www.w3.org/2000/svg" xmlns:xlink="http://www.w3.org/1999/xlink" x="0px" y="0px"
	 viewBox="0 0 500 500" style="enable-background:new 0 0 500 500;" xml:space="preserve">
<style type="text/css">
	.st0{fill:#B51B2C;}
	.st1{fill:#030304;}
	.st2{fill:#020203;}
	.st3{fill:#13110C;}
	.st4{fill:#CE536A;}
	.st5{fill:#F192AC;}
	.st6{fill:#E3748C;}
	.st7{fill:#C0364A;}
	.st8{fill:#EE7289;}
</style>
<g>
	<path class="st0" d="M305.9,267.58c-0.05-0.21-0.17-0.28-0.38-0.24c-0.34,0.08-0.66,0.4-0.97,0.97
		c-7.09,17.09-12.43,37-16.02,59.73c-1.57,9.99-2.97,19.83-4.2,29.52c-1.22,9.94-2.59,19.65-4.13,29.13
		c-5.78-12.29-11.62-23.56-17.52-33.81c-7.29-12.6-13.68-22.57-19.18-29.93c-2.96-3.43-5.57-5.97-7.81-7.63
		c-2.07-1.55-4.02-2.12-5.83-1.71c-4.24,0.95-8.61,8.1-13.09,21.43c-0.09,0.24-0.12,0.42-0.09,0.56l0.06,0.26
		c0.02,0.1,0.17,0.12,0.45,0.06c0.44-0.1,0.74-0.45,0.89-1.06c4.14-12.11,7.83-18.53,11.04-19.25c1.71-0.38,3.6,0.21,5.66,1.78
		c2.06,1.57,4.53,4.02,7.4,7.37c5.49,7.32,11.86,17.27,19.11,29.84c6.19,10.76,12.33,22.64,18.42,35.65
		c0.07,0.16,0.21,0.22,0.42,0.18c0.17-0.04,0.37-0.18,0.6-0.43c0.23-0.25,0.38-0.54,0.45-0.88c1.75-10.46,3.32-21.23,4.71-32.33
		c1.18-9.65,2.55-19.43,4.14-29.34c3.56-22.55,8.83-42.22,15.8-59.03C305.93,268.1,305.95,267.82,305.9,267.58z"/>
	<path class="st0" d="M406.24,324.19l0.68-0.1l0.31-0.07c1.12-0.47,1.98-1.16,2.6-2.09c0.38-0.55,0.52-1.05,0.42-1.5
		c-0.14-0.62-0.5-0.93-1.07-0.94c-0.14,0-0.3,0.01-0.47,0.05c-0.58,0.13-1.14,0.36-1.68,0.7c-1.44,0.97-2.03,1.99-1.8,3.05
		C405.35,323.87,405.69,324.17,406.24,324.19z"/>
	<path class="st0" d="M464.46,315.75c-0.06-0.27-0.19-0.39-0.4-0.34c-0.41,0.09-0.73,0.42-0.97,0.97c-1.21,2.79-2.6,4.97-4.19,6.55
		c-1.78,1.84-3.61,2.97-5.49,3.39c-0.92,0.21-1.8,0.24-2.62,0.1c-1.58-0.33-2.69-1.17-3.32-2.54c0.65-0.15,1.32-0.59,2.02-1.32
		c1.23-1.25,1.73-2.4,1.49-3.46c-0.04-0.17-0.09-0.32-0.15-0.45c-0.96-1.73-1.87-2.49-2.73-2.3c-0.82,0.18-1.52,1.24-2.09,3.17
		l-0.19,0.58c-0.02,0.1-0.03,0.2-0.05,0.31c-0.02,0.07-0.04,0.13-0.05,0.2c-0.5,2.41-1.61,4.84-3.33,7.27
		c-1.32,1.81-2.83,2.9-4.55,3.29c-0.96,0.04-1.97-1.39-3.01-4.28c-0.31-0.9-0.63-1.69-0.96-2.37c-0.51-1-1.09-1.43-1.74-1.28
		c-1.1,0.25-2.25,2.14-3.47,5.69c-0.3-1.33-0.56-2.97-0.78-4.89l-0.24-1.78l-0.03-0.15c-0.05-0.21-0.19-0.28-0.43-0.23
		c-0.1,0.02-0.24,0.12-0.42,0.28c-0.18,0.17-0.33,0.38-0.45,0.64c-0.12,0.26-0.18,0.5-0.16,0.71l0.08,0.72
		c-0.09,0.11-0.18,0.24-0.26,0.4c-2.41,4.49-5.18,7.53-8.31,9.09c-0.68,0.33-1.33,0.57-1.94,0.71c-0.55,0.12-1.08,0.17-1.59,0.14
		c-2-0.09-3.26-1.32-3.79-3.68c-0.13-0.59-0.22-1.26-0.26-2c0.04-0.17,0.09-0.34,0.13-0.51c0.03-0.19,0.03-0.35,0-0.49
		c-0.05-0.24-0.22-0.33-0.49-0.27c-0.01,0-0.02,0.01-0.02,0.01c-0.01,0-0.02,0-0.03,0c-0.14,0.03-0.29,0.11-0.46,0.24
		c-0.17,0.13-0.32,0.32-0.46,0.59c-0.14,0.27-0.22,0.51-0.24,0.73c0.01,0.18,0.02,0.35,0.03,0.53c-2.15,8.26-4.94,14.6-8.37,18.98
		c-1.47,1.77-2.84,2.8-4.11,3.08c-1.06,0.24-2.09-0.03-3.09-0.81c-1.95-1.47-3.52-4.85-4.71-10.16c-0.58-2.6-1.03-5.13-1.32-7.57
		c-0.66-5.32-1.05-10.21-1.19-14.67c4.79-1.58,8.82-4.41,12.11-8.49c0.32-0.5,0.43-0.96,0.34-1.37c-0.1-0.12-0.22-0.17-0.35-0.14
		c-0.27,0.06-0.51,0.22-0.7,0.48c-2.41,3.02-5.39,5.27-8.94,6.75c-0.82,0.36-1.64,0.69-2.47,0.99c-0.11-9.61,0.76-17.33,2.61-23.18
		c0.06-0.23,0.07-0.41,0.04-0.55c-0.05-0.24-0.2-0.33-0.44-0.28c-0.45,0.1-0.77,0.48-0.98,1.14c-1.9,5.93-2.82,13.7-2.74,23.32
		c-3.32,0.75-6.29,1.14-8.9,1.19c-0.21,0.05-0.42,0.15-0.63,0.3c-0.44,0.46-0.61,0.89-0.52,1.3c0.06,0.27,0.17,0.41,0.31,0.42
		c2.66-0.02,5.27-0.32,7.83-0.9l1.94-0.49c0.07,4.37,0.43,9.17,1.07,14.4c-0.18,0.23-0.3,0.5-0.35,0.81
		c-0.5,2.41-1.61,4.84-3.33,7.27c-1.32,1.81-2.83,2.9-4.55,3.29c-0.96,0.04-1.97-1.39-3.01-4.28c-0.31-0.9-0.63-1.69-0.96-2.37
		c-0.51-1-1.09-1.43-1.74-1.28c-1.1,0.25-2.25,2.14-3.47,5.69c-0.3-1.33-0.56-2.97-0.78-4.89l-0.24-1.78l-0.03-0.15
		c-0.05-0.21-0.19-0.28-0.43-0.23c-0.1,0.02-0.24,0.12-0.42,0.28c-0.18,0.17-0.33,0.38-0.45,0.64c-0.12,0.26-0.18,0.5-0.16,0.71
		l0.08,0.73c-0.11,0.14-0.2,0.31-0.28,0.5c-1.21,2.79-2.6,4.97-4.19,6.55c-1.78,1.84-3.61,2.97-5.49,3.39
		c-0.92,0.21-1.8,0.24-2.62,0.1c-1.58-0.33-2.69-1.17-3.32-2.54c0.65-0.15,1.32-0.58,2.02-1.32c1.23-1.25,1.73-2.4,1.49-3.46
		c-0.04-0.17-0.09-0.32-0.16-0.45c-0.96-1.73-1.87-2.49-2.73-2.3c-0.82,0.18-1.52,1.24-2.09,3.17l-0.19,0.58
		c-0.03,0.17-0.05,0.34-0.08,0.51c-0.77,3.14-1.94,6.56-3.51,10.28c-1.59,3.74-3.35,6.88-5.29,9.44c-1.48,1.91-2.88,3.02-4.21,3.32
		c-3.11,0.7-5.65-3.17-7.62-11.61c-0.4-1.78-0.78-4.05-1.15-6.8c5.42-11.07,9.01-20.36,10.78-27.87c1.76-7.51,2.32-13.17,1.68-16.99
		l-0.19-1.09c-0.83-3.7-2.37-5.29-4.63-4.78c-2.87,0.65-5.44,4.35-7.69,11.11c-2.88,9.04-3.42,22.22-1.62,39.54
		c-0.07,0.1-0.14,0.21-0.21,0.34c-2.41,4.49-5.18,7.53-8.31,9.09c-0.65,0.33-1.29,0.56-1.94,0.71c-2.91,0.65-4.7-0.53-5.38-3.54
		c-0.26-1.15-0.3-2.27-0.15-3.35c0.01-0.03,0.02-0.05,0.03-0.08l-0.02,0.06c0.01-0.04,0.01-0.07,0.01-0.11l0.16-1.44
		c-0.05-0.24-0.2-0.33-0.44-0.28c-0.51,0.12-0.85,0.53-1.01,1.25c-0.54-1.46-1.52-2.07-2.94-1.82c-0.72,0.16-1.43,0.5-2.14,1.02
		c-1.52,1.1-2.6,2.58-3.26,4.45c-0.24,0.84-0.3,1.56-0.17,2.14c0.09,0.41,0.29,0.78,0.6,1.11c0.31,0.33,0.73,0.55,1.25,0.66
		c0.53,0.12,1.12,0.1,1.77-0.05c1.71-0.38,3.24-1.5,4.59-3.35l0.17,0.99c0.28,1.27,0.74,2.24,1.36,2.93
		c1.22,1.42,2.89,1.89,5.01,1.41c0.72-0.16,1.45-0.43,2.19-0.82c3.4-1.69,6.43-4.85,9.08-9.47c0.35,2.47,0.73,4.63,1.14,6.47
		c2.07,8.88,4.86,12.93,8.39,12.13c1.85-0.42,3.69-1.82,5.52-4.21c2.16-2.86,4.1-6.29,5.83-10.29c0.95-2.2,1.75-4.3,2.43-6.31
		c0.24,0.84,0.61,1.54,1.15,2.09c1.42,1.51,3.39,1.99,5.93,1.42c2.16-0.48,4.3-1.81,6.44-3.98c1.61-1.61,3.06-3.74,4.34-6.38
		c0.42,2.84,0.78,4.94,1.08,6.3c0.05,0.24,0.2,0.33,0.44,0.28c0.48-0.11,0.82-0.51,1.02-1.2c1.22-4.19,2.04-6.34,2.49-6.44
		c0.44-0.1,1.06,0.97,1.85,3.2c0.43,1.27,0.95,2.42,1.56,3.45c0.61,1.03,1.38,1.44,2.3,1.24c2.19-0.49,4.13-1.92,5.83-4.28
		c1.49-2.12,2.6-4.22,3.33-6.31c0.26,1.85,0.55,3.54,0.86,5.04c2.07,9.21,5.02,13.38,8.85,12.52c1.78-0.4,3.58-1.72,5.42-3.97
		c3.3-4.2,6.04-9.9,8.21-17.07c0.27,0.94,0.64,1.72,1.14,2.3c1.22,1.42,2.89,1.89,5.01,1.41c0.72-0.16,1.45-0.43,2.19-0.82
		c3.43-1.71,6.48-4.9,9.14-9.58c0.44,2.98,0.81,5.17,1.12,6.57c0.05,0.24,0.2,0.33,0.44,0.28c0.48-0.11,0.82-0.51,1.02-1.2
		c1.22-4.19,2.04-6.34,2.49-6.44c0.44-0.1,1.06,0.97,1.85,3.2c0.43,1.27,0.95,2.42,1.56,3.45c0.61,1.03,1.38,1.44,2.3,1.24
		c2.19-0.49,4.13-1.92,5.83-4.28c1.06-1.51,1.93-3.01,2.61-4.5c0.01,0.04,0.02,0.09,0.02,0.13c0.22,0.99,0.64,1.8,1.24,2.42
		c1.42,1.51,3.39,1.99,5.93,1.42c2.16-0.48,4.3-1.81,6.44-3.98c1.91-1.9,3.58-4.53,5.03-7.87
		C464.46,316.16,464.5,315.92,464.46,315.75z M306.74,351.72c-0.88,2-2.2,3.19-3.94,3.58c-0.51,0.12-0.99,0.13-1.42,0.05
		c-0.43-0.08-0.75-0.24-0.94-0.46c-0.19-0.23-0.32-0.46-0.37-0.7c-0.06-0.27-0.05-0.6,0.05-0.98c0.35-1.01,0.97-1.85,1.86-2.52
		c0.5-0.33,0.99-0.55,1.47-0.65c1.06-0.24,1.79,0.21,2.19,1.34c0.05,0.21,0.19,0.28,0.43,0.23c0.27-0.06,0.54-0.3,0.81-0.72
		L306.74,351.72z M324.85,323.87c0.35-6.91,1.2-12.44,2.53-16.58c1.74-5.39,3.63-8.31,5.69-8.77c1.75-0.39,2.97,0.97,3.67,4.08
		c0.86,3.83,0.45,9.43-1.24,16.78c-1.6,6.94-4.85,15.52-9.74,25.75C324.86,336.99,324.56,329.91,324.85,323.87z M349.3,341.94
		l0.16-0.74c0.13-0.53,0.25-0.81,0.35-0.83c0.5,0.14,1.06,0.79,1.68,1.94l0.02,0.1c0.02,0.1-0.01,0.22-0.08,0.34
		c-0.21,0.51-0.6,0.87-1.16,1.07l-0.15,0.03c-0.45,0.1-0.72-0.11-0.84-0.62C349.2,342.94,349.21,342.5,349.3,341.94z M447.23,319.94
		l0.16-0.74c0.13-0.53,0.25-0.81,0.35-0.83c0.5,0.14,1.06,0.79,1.68,1.94l0.02,0.1c0.02,0.1-0.01,0.22-0.08,0.34
		c-0.21,0.51-0.6,0.87-1.16,1.07l-0.15,0.03c-0.44,0.1-0.72-0.11-0.84-0.62C447.13,320.93,447.14,320.5,447.23,319.94z"/>
	<path class="st0" d="M81.47,195.63c-4.76,0-9.19,1.73-12.55,4.11V167.5h-2.38c-3.89,6.17-10.82,9.95-21.31,9.95
		c-0.22,0.54-0.11,1.51,0.54,1.95c1.19,0.87,2.38,0.76,4.11,1.95c1.3,0.97,2.16,2.38,2.16,5.41v43.59c0,8.98,0.11,13.85-0.76,19.47
		l2.27,0.97c2.16-0.87,7.68-5.84,8.98-7.68c2.81,3.57,10.49,8.76,19.58,8.76c12.11,0,25.1-10.38,25.42-28.45
		C107.76,207.74,96.4,195.63,81.47,195.63z M81.9,249.07c-6.92,0-12.98-9.41-12.98-17.2v-28.99c1.73-1.3,3.79-2.38,5.73-2.38
		c6.71,0,12.66,10.17,14.93,21.2c0.54,2.6,1.08,7.03,1.08,11.47C90.67,238.9,89.69,249.07,81.9,249.07z"/>
	<path class="st0" d="M140.1,195.63c-15.47,0-27.04,12.87-27.04,28.23c0,16.01,11.36,28.02,27.04,28.02
		c12.01,0,20.55-8.98,22.28-12.87l-1.95-1.3c-2.81,3.46-7.03,5.73-12.11,5.73c-12.01,0-17.74-11.68-19.15-21.96h31.48
		c1.3-0.11,2.27-0.43,2.38-1.84C164.22,207.85,156,195.63,140.1,195.63z M128.85,218.78c-0.87-10.71,2.49-19.25,8.22-20.34
		c6.92-1.19,11.03,10.49,11.25,20.34H128.85z"/>
	<path class="st0" d="M224.47,250.8c0.22-0.32,0.22-1.41-0.54-1.95c-1.3-0.87-2.49-0.54-4.54-1.84c-1.51-0.97-2.27-2.16-2.27-5.41
		v-34.18c3.46-2.7,6.49-4.87,9.84-4.87c5.95,0,8.44,4.76,8.44,11.68v27.37c0,3.25-0.76,4.43-2.27,5.41
		c-2.06,1.3-3.14,0.87-4.54,1.84c-0.65,0.54-0.76,1.62-0.54,1.95c0.43,0.54,7.25-0.54,16.01-0.54c8.76,0,15.58,1.08,16.01,0.54
		c0.22-0.32,0.22-1.41-0.54-1.95c-1.3-0.87-2.81-0.54-4.87-1.84c-1.51-0.97-2.38-2.16-2.38-5.41v-25.2c0-3.03-0.32-5.84-0.97-8.22
		c3.79-3.03,7.14-5.62,10.82-5.62c5.95,0,8.44,4.76,8.44,11.68v27.37c0,3.25-0.76,4.43-2.27,5.41c-2.06,1.3-3.14,0.87-4.54,1.84
		c-0.65,0.54-0.76,1.62-0.54,1.95c0.43,0.54,7.25-0.54,16.01-0.54c8.76,0,15.58,1.08,16.01,0.54c0.22-0.32,0.22-1.41-0.54-1.95
		c-1.3-0.87-2.81-0.54-4.87-1.84c-1.51-0.97-2.38-2.16-2.38-5.41v-25.2c0-13.09-5.84-20.77-17.85-20.77
		c-7.57,0-15.14,6.6-19.04,10.06c-2.49-6.49-7.9-10.06-16.12-10.06c-6.49,0-13.09,4.98-17.31,8.55v-8.55h-2.38
		c-4.11,5.73-12.98,8.55-21.31,8.55c-0.22,0.54-0.11,1.51,0.54,1.95c1.19,0.87,2.49,0.87,4.11,2.06c1.3,0.87,2.16,2.27,2.16,5.3
		v28.12c0,3.25-0.76,4.43-2.27,5.41c-2.06,1.3-3.46,0.87-4.87,1.84c-0.65,0.54-0.76,1.62-0.54,1.95c0.43,0.54,7.46-0.54,16.23-0.54
		S224.04,251.34,224.47,250.8z"/>
	<path class="st0" d="M315.66,250.26c8.76,0,15.25,1.08,15.68,0.54c0.22-0.32,0.22-1.41-0.54-1.95c-1.3-0.87-2.49-0.54-4.54-1.84
		c-1.51-0.97-2.27-2.16-2.27-5.41v-45.97h-2.38c-4.11,5.73-12.98,8.55-21.31,8.55c-0.22,0.54-0.11,1.51,0.54,1.95
		c1.19,0.87,2.49,0.87,4.11,1.95c1.3,0.97,2.16,2.38,2.16,5.3v28.23c0,3.25-0.76,4.43-2.27,5.41c-2.06,1.3-3.46,0.87-4.87,1.84
		c-0.65,0.54-0.76,1.62-0.54,1.95C299.86,251.34,306.89,250.26,315.66,250.26z"/>
	<path class="st0" d="M350.7,250.26c8.76,0,15.25,1.08,15.68,0.54c0.22-0.32,0.22-1.41-0.54-1.95c-1.3-0.87-2.49-0.54-4.54-1.84
		c-1.51-0.97-2.27-2.16-2.27-5.41v-34.29c3.68-2.7,7.36-4.76,10.93-4.76c5.95,0,8,4.76,8,11.68v27.37c0,3.25-0.76,4.43-2.27,5.41
		c-2.06,1.3-3.14,0.87-4.54,1.84c-0.65,0.54-0.76,1.62-0.54,1.95c0.43,0.54,7.25-0.54,16.01-0.54s15.58,1.08,16.01,0.54
		c0.22-0.32,0.22-1.41-0.54-1.95c-1.3-0.87-2.81-0.54-4.87-1.84c-1.51-0.97-2.38-2.16-2.38-5.41v-25.2
		c0-13.09-5.62-20.77-16.98-20.77c-6.81,0-14.28,5.08-18.82,8.65v-8.65h-2.38c-4.11,5.73-12.98,8.55-21.31,8.55
		c-0.22,0.54-0.11,1.51,0.54,1.95c1.19,0.87,2.49,0.87,4.11,2.06c1.3,0.87,2.16,2.27,2.16,5.3v28.12c0,3.25-0.76,4.43-2.27,5.41
		c-2.06,1.3-3.46,0.87-4.87,1.84c-0.65,0.54-0.76,1.62-0.54,1.95C334.91,251.34,341.94,250.26,350.7,250.26z"/>
	<path class="st0" d="M433.78,251.88c12.01,0,20.55-8.98,22.28-12.87l-1.95-1.3c-2.81,3.46-7.03,5.73-12.11,5.73
		c-12.01,0-17.74-11.68-19.15-21.96h31.48c1.3-0.11,2.27-0.43,2.38-1.84c1.19-11.79-7.03-24.01-22.93-24.01
		c-15.47,0-27.04,12.87-27.04,28.23C406.73,239.87,418.09,251.88,433.78,251.88z M430.75,198.44c6.92-1.19,11.03,10.49,11.25,20.34
		h-19.47C421.66,208.07,425.01,199.52,430.75,198.44z"/>
</g>
<g>
	<path class="st8" d="M377.96,172.2v19.42c0.82,0,1.62,0.04,2.4,0.11V172.2c0-11.64-5.66-14.09-10.41-14.09h-0.03
		c3.5-1.65,6.11-2.12,7.93-2.12c9.67,0,14.58,6.18,14.58,18.37v22.75c0.89,0.91,1.7,1.92,2.41,3.04c-0.01-0.19-0.01-0.38-0.01-0.58
		v-25.2c0-13.09-5.62-20.77-16.98-20.77c-6.81,0-14.28,5.08-18.82,8.65v-8.65h-2.38c-4.11,5.73-12.98,8.55-21.31,8.55
		c-0.22,0.54-0.11,1.51,0.54,1.95c1.19,0.87,2.49,0.87,4.11,2.06c1.3,0.87,2.16,2.27,2.16,5.3v28.01c0.83-0.18,1.63-0.38,2.4-0.62
		v-27.39c0-3.49-1.01-5.8-3.19-7.27c-0.04-0.03-0.07-0.05-0.11-0.08c5.57-0.84,11.38-2.93,15.36-6.81v4.96
		c0,0.09,0.01,0.19,0.02,0.28V165c-0.01,0.09-0.02,0.19-0.02,0.28v26.35c0.01,0,0.02,0,0.02,0h2.38v-26.34
		c3.68-2.7,7.36-4.76,10.93-4.76C375.91,160.52,377.96,165.28,377.96,172.2z"/>
	<path class="st8" d="M307.2,144.38c1.95,2.13,3.47,3.73,4.59,4.79c1.11,1.06,2.13,1.6,3.06,1.6c0.93,0,1.92-0.51,2.99-1.53
		c1.06-1.02,2.57-2.59,4.52-4.72c2.22-2.32,3.33-5.1,3.33-8.34c0-1.39-0.19-2.69-0.56-3.89c-0.83-3.24-2.22-4.86-4.17-4.86
		c-1.39,0-2.97,0.88-4.72,2.64c-0.19,0.18-0.37,0.39-0.56,0.63c-0.19,0.23-0.46,0.58-0.83,1.04c-0.74-0.74-1.2-1.25-1.39-1.53
		c-0.56-0.74-1.16-1.39-1.81-1.94c-0.65-0.56-1.39-0.83-2.22-0.83c-0.19,0-0.65,0.09-1.39,0.28c-1.3,0.46-2.22,1.18-2.78,2.15
		c-0.56,0.97-0.93,2.06-1.11,3.27c-0.09,0.46-0.14,0.86-0.14,1.18c0,0.32,0,0.72,0,1.18c0,1.67,0.23,3.24,0.69,4.72
		C305.16,141.69,306,143.08,307.2,144.38z M306.41,134.31c0-0.09,0.01-0.31,0.09-0.71c0.01-0.04,0.01-0.07,0.02-0.11
		c0.14-0.9,0.42-1.72,0.82-2.44c0.25-0.44,0.71-0.78,1.4-1.05c0.44-0.11,0.67-0.15,0.77-0.17c0.22,0.02,0.38,0.09,0.57,0.25
		c0.51,0.43,0.98,0.95,1.42,1.52c0.21,0.31,0.6,0.78,1.65,1.83c0.45,0.45,1.06,0.7,1.7,0.7c0.05,0,0.09,0,0.14,0
		c0.68-0.04,1.32-0.37,1.75-0.91c0.36-0.46,0.63-0.8,0.83-1.04c0.13-0.16,0.25-0.3,0.38-0.42c1.79-1.79,2.77-1.93,3.02-1.93
		c0.98,0,1.66,2.34,1.84,3.06c0.01,0.04,0.02,0.07,0.03,0.11c0.3,0.97,0.45,2.04,0.45,3.19c0,2.62-0.87,4.8-2.67,6.67
		c-0.01,0.01-0.03,0.03-0.04,0.04c-1.88,2.06-3.36,3.61-4.4,4.61c-0.71,0.68-1.18,0.86-1.33,0.86c0,0-0.45-0.03-1.39-0.93
		c-1.06-1.02-2.57-2.59-4.49-4.69c-0.95-1.03-1.62-2.12-1.97-3.25c-0.39-1.24-0.58-2.59-0.58-4.01V134.31z"/>
	<path class="st8" d="M140.1,153.6c-15.47,0-27.04,12.87-27.04,28.23c0,7.07,2.22,13.35,6.04,18.17c0.58-0.55,1.18-1.07,1.79-1.57
		c-3.44-4.38-5.43-10.1-5.43-16.6c0-10.93,6.17-20.07,15.14-23.9c0.01,0.01,0.01,0.01,0.02,0.02c-3.19,4.09-4.81,10.93-4.16,18.99
		c0.01,0.1,0.36,3.04,0.38,3.13c0.69,4.77,2.16,9.23,4.24,12.9c0.79-0.24,1.6-0.45,2.41-0.63c-2.32-3.88-3.71-8.51-4.31-12.89h31.48
		c1.3-0.11,2.27-0.43,2.38-1.84C164.22,165.82,156,153.6,140.1,153.6z M128.85,176.75c-0.87-10.71,2.49-19.25,8.22-20.34
		c6.92-1.19,11.03,10.49,11.25,20.34H128.85z M160.67,177.03c-0.04,0-0.08,0.01-0.13,0.01h-9.84c0,0,0,0,0,0.01c0,0,0,0,0-0.01h0.01
		c0.01-0.12,0.02-0.23,0.02-0.35c-0.18-8.07-2.65-16.5-7.05-20.45c0,0,0,0,0,0c4.94,0.67,9.1,2.77,12.17,6.17
		C159.38,166.31,161.12,171.62,160.67,177.03z"/>
	<path class="st8" d="M162.38,196.97l-1.95-1.3c-0.65,0.8-1.39,1.54-2.18,2.2c0.77,0.65,1.49,1.34,2.18,2.08
		C161.36,198.83,162.02,197.79,162.38,196.97z"/>
	<path class="st8" d="M81.47,153.6c-4.76,0-9.19,1.73-12.55,4.11v-32.24h-2.38c-3.89,6.17-10.82,9.95-21.31,9.95
		c-0.22,0.54-0.11,1.51,0.54,1.95c1.19,0.87,2.38,0.76,4.11,1.95c1.3,0.97,2.16,2.38,2.16,5.41v28.02c0.84-0.19,1.64-0.42,2.4-0.68
		v-27.34c0-3.45-0.96-5.71-3.12-7.33c-0.01-0.01-0.02-0.01-0.03-0.02c6.4-1,11.56-3.66,15.22-7.86v27.66
		c-0.02,0.08-0.03,0.16-0.03,0.24v4.54c0,0.08,0.01,0.15,0.03,0.23v1.32c0.01,0,0.02,0,0.02,0h2.38v-2.65
		c1.73-1.3,3.79-2.38,5.73-2.38c6.71,0,12.66,10.17,14.93,21.2c0.54,2.6,1.08,7.03,1.08,11.47c0,0.59-0.01,1.23-0.04,1.9
		c0.8,0.25,1.59,0.54,2.37,0.86c0.05-0.87,0.08-1.79,0.08-2.76c0-4.81-0.61-9.45-1.13-11.95c-2.04-9.91-7.32-20.48-14.52-22.69
		c0-0.01,0-0.01,0-0.02c1.34-0.31,2.7-0.47,4.05-0.47c6.33,0,12.21,2.43,16.55,6.83c4.69,4.75,7.21,11.33,7.11,18.52
		c-0.12,6.71-2.16,12.31-5.29,16.57c0.64,0.5,1.26,1.03,1.86,1.59c3.44-4.63,5.69-10.74,5.83-18.13
		C107.76,165.71,96.4,153.6,81.47,153.6z"/>
	<path class="st8" d="M270.55,172.2v19.44c0.82,0.03,1.62,0.09,2.4,0.18V172.2c0-12.66-7.52-14.08-10.8-14.09
		c2.4-1.25,4.96-2.12,7.42-2.12c10.25,0,15.44,6.18,15.44,18.37v23c0.9,0.91,1.71,1.94,2.43,3.06c-0.02-0.27-0.03-0.55-0.03-0.85
		v-25.2c0-13.09-5.84-20.77-17.85-20.77c-7.57,0-15.14,6.6-19.04,10.06c-2.49-6.49-7.9-10.06-16.12-10.06
		c-6.49,0-13.09,4.98-17.31,8.55v-8.55h-2.38c-4.11,5.73-12.98,8.55-21.31,8.55c-0.22,0.54-0.11,1.51,0.54,1.95
		c1.19,0.87,2.49,0.87,4.11,2.06c1.3,0.87,2.16,2.27,2.16,5.3v28.01c0.83-0.18,1.63-0.38,2.4-0.62v-27.39c0-3.48-1.01-5.8-3.19-7.27
		c-0.04-0.03-0.07-0.05-0.11-0.08c5.57-0.84,11.38-2.93,15.36-6.81v4.85c0,0.06,0.01,0.11,0.02,0.17v2.91
		c0,0.06-0.02,0.11-0.02,0.17v26.24c0.01,0,0.02,0,0.02,0h2.38v-26.24c3.46-2.7,6.49-4.87,9.84-4.87c5.95,0,8.44,4.76,8.44,11.68
		v19.44c0.82,0.03,1.62,0.09,2.4,0.18V172.2c0-12.59-7.44-14.06-10.75-14.09c2.36-1.22,4.92-2.12,7.37-2.12
		c7.04,0,11.71,2.87,13.87,8.52c0.03,0.08,0.48,1.64,0.7,2.34c0.57,2.12,0.87,4.71,0.87,7.51v22.98c0.65,0.65,1.26,1.35,1.81,2.1
		c0.19-0.15,0.39-0.31,0.59-0.47v-24.61c0-3.03-0.32-5.84-0.97-8.22c3.79-3.03,7.14-5.62,10.82-5.62
		C268.06,160.52,270.55,165.28,270.55,172.2z"/>
	<path class="st8" d="M307.06,165.86c0.33-0.08,0.62-0.15,0.87-0.21c-0.42-0.57-0.93-1.08-1.54-1.54c-0.02-0.01-0.03-0.02-0.05-0.03
		c5.53-0.85,11.28-2.94,15.24-6.79v8.19c0.72,0.06,1.55,0.24,2.4,0.64V153.6h-2.38c-4.11,5.73-12.98,8.55-21.31,8.55
		c-0.22,0.54-0.11,1.51,0.54,1.95c1.19,0.87,2.49,0.87,4.11,1.95c0.19,0.14,0.36,0.29,0.53,0.45c0.39-0.19,0.79-0.37,1.21-0.52
		C306.81,165.92,306.93,165.89,307.06,165.86z"/>
	<path class="st8" d="M414.56,198.43c-3.44-4.38-5.43-10.1-5.43-16.6c0-10.93,6.17-20.07,15.14-23.9c0.01,0.01,0.01,0.01,0.02,0.02
		c-3.19,4.09-4.81,10.93-4.16,18.99c0.01,0.1,0.36,3.04,0.38,3.13c0.69,4.77,2.16,9.23,4.24,12.9c0.79-0.24,1.6-0.45,2.41-0.63
		c-2.32-3.88-3.71-8.51-4.31-12.89h31.48c1.3-0.11,2.27-0.43,2.38-1.84c1.19-11.79-7.03-24.01-22.93-24.01
		c-15.47,0-27.04,12.87-27.04,28.23c0,7.07,2.22,13.35,6.04,18.17C413.35,199.45,413.95,198.93,414.56,198.43z M437.35,156.24
		c4.94,0.67,9.1,2.77,12.17,6.17c3.53,3.9,5.28,9.22,4.82,14.63c-0.04,0-0.08,0.01-0.13,0.01h-9.84c0,0,0,0,0,0.01c0,0,0,0,0-0.01
		h0.01c0.01-0.12,0.02-0.23,0.02-0.35C444.22,168.63,441.76,160.2,437.35,156.24C437.35,156.24,437.35,156.24,437.35,156.24z
		 M430.75,156.41c6.92-1.19,11.03,10.49,11.25,20.34h-19.47C421.66,166.04,425.01,157.49,430.75,156.41z"/>
	<path class="st8" d="M451.93,197.88c0.77,0.65,1.49,1.34,2.18,2.08c0.93-1.13,1.59-2.17,1.95-2.98l-1.95-1.3
		C453.46,196.48,452.73,197.22,451.93,197.88z"/>
	<path class="st8" d="M402.08,292.23c-1.3-0.87-2.81-0.54-4.87-1.84c-1.51-0.97-2.38-2.16-2.38-5.41v-25.2
		c0-1.86-0.12-3.61-0.35-5.25c-0.77-0.05-1.58-0.09-2.43-0.13c0.25,1.64,0.38,3.44,0.38,5.38v25.2c0,3.02,0.68,5.01,2.3,6.52
		c-2.36-0.14-5.12-0.27-8.11-0.27c-3.14,0-6.02,0.14-8.46,0.29c1.57-1.47,2.21-3.43,2.21-6.54v-27.37c0-1.15-0.06-2.2-0.16-3.17
		c-0.84,0.04-1.64,0.09-2.4,0.14c0.1,0.95,0.15,1.97,0.15,3.03v27.37c0,3.25-0.76,4.43-2.27,5.41c-2.06,1.3-3.14,0.87-4.54,1.84
		c-0.65,0.54-0.76,1.62-0.54,1.95c0.43,0.54,7.25-0.54,16.01-0.54c8.76,0,15.58,1.08,16.01,0.54
		C402.84,293.85,402.84,292.77,402.08,292.23z"/>
	<path class="st8" d="M365.85,292.23c-1.3-0.87-2.49-0.54-4.54-1.84c-1.51-0.97-2.27-2.16-2.27-5.41v-30.42
		c-0.76-0.05-1.56-0.1-2.4-0.14v30.56c0,3.09,0.63,5.05,2.2,6.52c-2.34-0.15-5.08-0.27-8.13-0.27c-3.07,0-5.91,0.13-8.34,0.28
		c1.57-1.47,2.2-3.42,2.2-6.53v-28.12c0-0.88-0.07-1.69-0.2-2.42c-0.85,0.04-1.66,0.09-2.42,0.14c0.14,0.64,0.22,1.39,0.22,2.28
		v28.12c0,3.25-0.76,4.43-2.27,5.41c-2.06,1.3-3.46,0.87-4.87,1.84c-0.65,0.54-0.76,1.62-0.54,1.95c0.43,0.54,7.46-0.54,16.23-0.54
		c8.76,0,15.25,1.08,15.68,0.54C366.6,293.85,366.6,292.77,365.85,292.23z"/>
	<path class="st8" d="M157.56,250.04c2.37,3.59,3.48,7.96,3.11,12.41c-0.04,0-0.08,0.01-0.13,0.01h-9.84c0,0,0,0,0,0.01
		c0,0,0,0,0-0.01h0.01c0.01-0.12,0.02-0.23,0.02-0.35c-0.06-2.67-0.37-5.38-0.92-7.96c-0.75,0.27-1.52,0.52-2.32,0.74
		c0.49,2.39,0.78,4.89,0.83,7.27h-19.47c-0.24-2.93-0.16-5.7,0.2-8.2c-0.77-0.28-1.53-0.6-2.27-0.94c-0.47,2.83-0.6,5.97-0.32,9.33
		c0.01,0.1,0.36,3.04,0.38,3.13c0.87,6.03,2.99,11.57,6,15.65c3.92,5.3,9.27,8.1,15.48,8.1c1.76,0,3.46-0.24,5.08-0.7
		c-3.48,2.38-8.05,4.33-13.3,4.33c-14.28,0-24.64-10.77-24.64-25.61c0-6.69,2.32-12.71,6.17-17.25c-0.64-0.47-1.26-0.96-1.86-1.48
		c-4.22,5.02-6.71,11.61-6.71,18.74c0,16.01,11.36,28.02,27.04,28.02c12.01,0,20.55-8.98,22.28-12.87l-1.95-1.3
		c-2.81,3.46-7.03,5.73-12.12,5.73c-12.01,0-17.74-11.68-19.15-21.96h31.48c1.3-0.11,2.27-0.43,2.38-1.84
		c0.51-5.08-0.72-10.23-3.56-14.46C158.87,249.07,158.23,249.56,157.56,250.04z"/>
	<path class="st8" d="M99.34,249.71c3.84,4.6,5.89,10.58,5.8,17.06c-0.23,12.86-7.5,21.64-16,24.8c-0.01,0.01-0.02,0.02-0.03,0.03
		c0-0.01-0.01-0.01-0.01-0.01c0.01,0,0.03-0.01,0.04-0.01c2.23-2.6,3.93-7.16,3.93-15.02c0-4.81-0.61-9.45-1.13-11.95
		c-0.67-3.24-1.68-6.56-3-9.62c-0.79,0.21-1.58,0.38-2.38,0.52c1.29,2.94,2.33,6.22,3.02,9.59c0.54,2.6,1.08,7.03,1.08,11.47
		c0,5.73-0.97,15.9-8.76,15.9c-6.92,0-12.98-9.41-12.98-17.2v-22.48c-0.84-0.4-1.64-0.83-2.4-1.28v23.76
		c0,5.64,2.77,12.01,6.97,15.92c0,0,0,0.01-0.01,0.01c-4.29-1.68-7.56-4.27-9.05-6.17c-0.46-0.58-1.15-0.92-1.89-0.92
		c-0.02,0-0.04,0-0.06,0c-0.76,0.02-1.46,0.4-1.9,1.02c-0.92,1.3-4.41,4.49-6.59,6.04c0.48-4.28,0.47-8.46,0.47-14.73l0-2.68V254.7
		c-0.29,0.07-0.59,0.1-0.89,0.1c-0.52,0-1.03-0.1-1.51-0.3v19.23c0,8.98,0.11,13.85-0.76,19.47l2.27,0.97
		c2.16-0.87,7.68-5.84,8.98-7.68c2.81,3.57,10.49,8.76,19.58,8.76c12.12,0,25.1-10.38,25.42-28.45c0.1-7.28-2.29-13.78-6.37-18.67
		C100.58,248.69,99.96,249.21,99.34,249.71z"/>
	<path class="st8" d="M294.67,292.23c-1.3-0.87-2.81-0.54-4.87-1.84c-1.51-0.97-2.38-2.16-2.38-5.41v-25.2
		c0-1.86-0.12-3.62-0.36-5.25c-0.77-0.05-1.59-0.09-2.44-0.13c0.27,1.64,0.4,3.44,0.4,5.39v25.2c0,3.02,0.68,5.01,2.3,6.52
		c-2.36-0.14-5.12-0.27-8.11-0.27c-3.14,0-6.02,0.14-8.46,0.29c1.57-1.47,2.21-3.43,2.21-6.54v-27.37c0-1.15-0.06-2.2-0.18-3.17
		c-0.84,0.04-1.65,0.09-2.41,0.14c0.12,0.95,0.18,1.96,0.18,3.03v27.37c0,3.25-0.76,4.43-2.27,5.41c-2.06,1.3-3.14,0.87-4.54,1.84
		c-0.65,0.54-0.76,1.62-0.54,1.95c0.43,0.54,7.25-0.54,16.01-0.54c8.76,0,15.58,1.08,16.01,0.54
		C295.43,293.85,295.43,292.77,294.67,292.23z"/>
	<path class="st8" d="M259.52,292.23c-1.3-0.87-2.81-0.54-4.87-1.84c-1.51-0.97-2.38-2.16-2.38-5.41v-25.2
		c0-1.85-0.12-3.62-0.36-5.25c-0.78-0.05-1.6-0.09-2.46-0.13c0.27,1.64,0.42,3.46,0.42,5.39v25.2c0,3.02,0.68,5.01,2.3,6.52
		c-2.36-0.14-5.12-0.27-8.11-0.27c-3.14,0-6.02,0.14-8.46,0.29c1.57-1.47,2.21-3.43,2.21-6.54v-27.37c0-1.15-0.06-2.2-0.18-3.17
		c-0.84,0.04-1.65,0.09-2.41,0.14c0.12,0.95,0.18,1.96,0.18,3.03v27.37c0,3.25-0.76,4.43-2.27,5.41c-2.06,1.3-3.14,0.87-4.54,1.84
		c-0.65,0.54-0.76,1.62-0.54,1.95c0.43,0.54,7.25-0.54,16.01-0.54c8.76,0,15.58,1.08,16.01,0.54
		C260.27,293.85,260.27,292.77,259.52,292.23z"/>
	<path class="st8" d="M223.93,292.23c-1.3-0.87-2.49-0.54-4.54-1.84c-1.51-0.97-2.27-2.16-2.27-5.41v-30.42
		c-0.76-0.05-1.56-0.1-2.4-0.14v30.56c0,3.09,0.63,5.05,2.2,6.52c-2.34-0.15-5.08-0.27-8.13-0.27c-3.07,0-5.91,0.13-8.34,0.28
		c1.57-1.47,2.2-3.42,2.2-6.53v-28.12c0-0.88-0.07-1.69-0.2-2.42c-0.85,0.04-1.66,0.09-2.42,0.14c0.14,0.64,0.22,1.39,0.22,2.28
		v28.12c0,3.25-0.76,4.43-2.27,5.41c-2.06,1.3-3.46,0.87-4.87,1.84c-0.65,0.54-0.76,1.62-0.54,1.95c0.43,0.54,7.46-0.54,16.23-0.54
		c8.76,0,15.25,1.08,15.68,0.54C224.69,293.85,224.69,292.77,223.93,292.23z"/>
	<path class="st8" d="M330.8,292.23c-1.3-0.87-2.49-0.54-4.54-1.84c-1.51-0.97-2.27-2.16-2.27-5.41v-30.42
		c-0.76-0.05-1.56-0.1-2.4-0.14v30.56c0,3.09,0.63,5.05,2.2,6.52c-2.34-0.15-5.08-0.27-8.13-0.27c-3.07,0-5.91,0.13-8.34,0.28
		c1.57-1.47,2.2-3.42,2.2-6.53v-28.23c0-0.83-0.06-1.6-0.19-2.31c-0.85,0.04-1.66,0.09-2.42,0.14c0.13,0.62,0.21,1.33,0.21,2.17
		v28.23c0,3.25-0.76,4.43-2.27,5.41c-2.06,1.3-3.46,0.87-4.87,1.84c-0.65,0.54-0.76,1.62-0.54,1.95c0.43,0.54,7.46-0.54,16.23-0.54
		c8.76,0,15.25,1.08,15.68,0.54C331.56,293.85,331.56,292.77,330.8,292.23z"/>
	<path class="st8" d="M451.24,250.04c2.37,3.59,3.48,7.96,3.11,12.41c-0.04,0-0.08,0.01-0.13,0.01h-9.84c0,0,0,0,0,0.01
		c0,0,0,0,0-0.01h0.01c0.01-0.12,0.02-0.23,0.02-0.35c-0.06-2.67-0.37-5.38-0.92-7.96c-0.75,0.27-1.52,0.52-2.32,0.74
		c0.49,2.39,0.78,4.89,0.83,7.27h-19.47c-0.24-2.93-0.16-5.7,0.2-8.2c-0.77-0.28-1.53-0.6-2.27-0.94c-0.47,2.83-0.6,5.97-0.32,9.33
		c0.01,0.1,0.36,3.04,0.38,3.13c0.87,6.03,2.99,11.57,6,15.65c3.92,5.3,9.27,8.1,15.48,8.1c1.76,0,3.46-0.24,5.08-0.7
		c-3.48,2.38-8.05,4.33-13.3,4.33c-14.28,0-24.64-10.77-24.64-25.61c0-6.69,2.32-12.71,6.17-17.25c-0.64-0.47-1.26-0.96-1.86-1.48
		c-4.22,5.02-6.71,11.61-6.71,18.74c0,16.01,11.36,28.02,27.04,28.02c12.01,0,20.55-8.98,22.28-12.87l-1.95-1.3
		c-2.81,3.46-7.03,5.73-12.12,5.73c-12.01,0-17.74-11.68-19.15-21.96h31.48c1.3-0.11,2.27-0.43,2.38-1.84
		c0.51-5.08-0.72-10.23-3.56-14.46C452.54,249.07,451.91,249.56,451.24,250.04z"/>
</g>
<path class="st0" d="M314.84,173.77c-0.74-0.74-1.2-1.25-1.39-1.53c-0.56-0.74-1.16-1.39-1.81-1.94c-0.65-0.56-1.39-0.83-2.22-0.83
	c-0.19,0-0.65,0.09-1.39,0.28c-1.3,0.46-2.22,1.18-2.78,2.15c-0.56,0.97-0.93,2.06-1.11,3.27c-0.09,0.46-0.14,0.86-0.14,1.18
	c0,0.32,0,0.72,0,1.18c0,1.67,0.23,3.24,0.69,4.72c0.46,1.48,1.3,2.87,2.5,4.17c1.95,2.13,3.47,3.73,4.59,4.79
	c1.11,1.06,2.13,1.6,3.06,1.6c0.93,0,1.92-0.51,2.99-1.53c1.06-1.02,2.57-2.59,4.52-4.72c2.22-2.32,3.33-5.1,3.33-8.34
	c0-1.39-0.19-2.69-0.56-3.89c-0.83-3.24-2.22-4.86-4.17-4.86c-1.39,0-2.97,0.88-4.72,2.64c-0.19,0.18-0.37,0.39-0.56,0.63
	C315.49,172.96,315.21,173.31,314.84,173.77z"/>
</svg>
