<?xml version="1.0" encoding="utf-8"?>
<!-- Generator: Adobe Illustrator 25.0.0, SVG Export Plug-In . SVG Version: 6.00 Build 0)  -->
<svg version="1.1" id="Layer_1" xmlns="http://www.w3.org/2000/svg" xmlns:xlink="http://www.w3.org/1999/xlink" x="0px" y="0px"
	 viewBox="0 0 500 500" style="enable-background:new 0 0 500 500;" xml:space="preserve">
<style type="text/css">
	.st0{fill:#B51B2C;}
	.st1{fill:#030304;}
	.st2{fill:#020203;}
	.st3{fill:#13110C;}
	.st4{fill:#CE536A;}
	.st5{fill:#F192AC;}
	.st6{fill:#E3748C;}
	.st7{fill:#C0364A;}
	.st8{fill:#EE7289;}
</style>
<g>
	<path class="st0" d="M328.32,253.92c-0.04-0.17-0.15-0.24-0.32-0.2c-0.29,0.07-0.56,0.34-0.82,0.82
		c-6.01,14.48-10.53,31.35-13.58,50.62c-1.33,8.46-2.52,16.8-3.56,25.02c-1.03,8.43-2.2,16.66-3.5,24.69
		c-4.9-10.41-9.85-19.96-14.85-28.65c-6.18-10.68-11.59-19.13-16.25-25.36c-2.51-2.91-4.72-5.06-6.62-6.46
		c-1.76-1.31-3.4-1.79-4.94-1.45c-3.6,0.81-7.29,6.86-11.09,18.16c-0.08,0.2-0.1,0.36-0.08,0.47l0.05,0.22
		c0.02,0.09,0.14,0.1,0.38,0.05c0.38-0.08,0.63-0.38,0.76-0.9c3.51-10.26,6.63-15.7,9.36-16.31c1.45-0.33,3.05,0.18,4.79,1.5
		c1.75,1.33,3.83,3.41,6.27,6.25c4.65,6.21,10.05,14.63,16.19,25.29c5.25,9.12,10.45,19.19,15.61,30.22
		c0.06,0.14,0.18,0.19,0.35,0.15c0.14-0.03,0.32-0.15,0.51-0.37c0.2-0.21,0.32-0.46,0.38-0.75c1.48-8.86,2.81-18,3.99-27.4
		c1-8.18,2.16-16.46,3.51-24.87c3.02-19.11,7.48-35.78,13.39-50.03C328.34,254.36,328.36,254.13,328.32,253.92z"/>
	<path class="st0" d="M413.35,301.9l0.58-0.08l0.26-0.06c0.95-0.4,1.68-0.99,2.21-1.77c0.32-0.47,0.44-0.89,0.35-1.27
		c-0.12-0.52-0.42-0.79-0.91-0.8c-0.12,0-0.26,0.01-0.4,0.04c-0.49,0.11-0.97,0.31-1.42,0.59c-1.22,0.82-1.72,1.68-1.52,2.58
		C412.6,301.63,412.89,301.88,413.35,301.9z"/>
	<path class="st0" d="M462.69,294.74c-0.05-0.23-0.17-0.33-0.34-0.29c-0.35,0.08-0.62,0.35-0.82,0.82
		c-1.02,2.36-2.21,4.21-3.55,5.55c-1.51,1.56-3.06,2.52-4.65,2.87c-0.78,0.18-1.52,0.21-2.22,0.09c-1.34-0.28-2.28-1-2.81-2.15
		c0.55-0.12,1.12-0.5,1.71-1.12c1.04-1.06,1.46-2.03,1.26-2.93c-0.03-0.14-0.08-0.27-0.13-0.38c-0.82-1.46-1.59-2.11-2.31-1.95
		c-0.7,0.16-1.29,1.05-1.77,2.68l-0.16,0.49c-0.01,0.09-0.03,0.17-0.04,0.26c-0.02,0.06-0.04,0.11-0.05,0.17
		c-0.42,2.05-1.36,4.1-2.82,6.16c-1.12,1.53-2.4,2.46-3.85,2.78c-0.82,0.03-1.67-1.18-2.55-3.63c-0.26-0.76-0.54-1.43-0.82-2.01
		c-0.43-0.85-0.93-1.21-1.48-1.08c-0.93,0.21-1.91,1.82-2.94,4.82c-0.25-1.13-0.47-2.51-0.66-4.15l-0.2-1.51l-0.03-0.13
		c-0.04-0.17-0.16-0.24-0.36-0.19c-0.09,0.02-0.21,0.1-0.36,0.24c-0.15,0.14-0.28,0.32-0.38,0.54c-0.1,0.22-0.15,0.42-0.14,0.6
		l0.06,0.61c-0.08,0.1-0.15,0.2-0.22,0.34c-2.04,3.81-4.39,6.38-7.04,7.71c-0.58,0.28-1.13,0.48-1.65,0.6
		c-0.46,0.1-0.91,0.14-1.34,0.12c-1.69-0.08-2.76-1.12-3.21-3.12c-0.11-0.5-0.19-1.07-0.22-1.69c0.04-0.14,0.08-0.28,0.11-0.43
		c0.03-0.16,0.02-0.29,0-0.41c-0.05-0.2-0.18-0.28-0.42-0.23c-0.01,0-0.01,0.01-0.02,0.01c-0.01,0-0.01,0-0.02,0
		c-0.12,0.03-0.25,0.09-0.39,0.2c-0.14,0.11-0.27,0.27-0.39,0.5c-0.12,0.22-0.18,0.43-0.2,0.62c0.01,0.15,0.02,0.3,0.02,0.45
		c-1.83,7-4.19,12.37-7.09,16.08c-1.25,1.5-2.41,2.37-3.48,2.61c-0.9,0.2-1.77-0.03-2.62-0.69c-1.65-1.24-2.98-4.11-3.99-8.61
		c-0.5-2.2-0.87-4.34-1.12-6.42c-0.56-4.51-0.89-8.65-1.01-12.43c4.06-1.34,7.48-3.74,10.26-7.2c0.27-0.43,0.37-0.81,0.29-1.16
		c-0.08-0.1-0.18-0.14-0.3-0.12c-0.23,0.05-0.43,0.19-0.59,0.41c-2.04,2.56-4.57,4.47-7.58,5.72c-0.69,0.31-1.39,0.59-2.1,0.84
		c-0.09-8.14,0.64-14.69,2.21-19.64c0.05-0.19,0.06-0.35,0.03-0.46c-0.05-0.2-0.17-0.28-0.37-0.24c-0.38,0.08-0.66,0.41-0.83,0.96
		c-1.61,5.02-2.39,11.61-2.32,19.76c-2.81,0.63-5.33,0.97-7.54,1.01c-0.17,0.04-0.35,0.12-0.54,0.26c-0.37,0.39-0.52,0.76-0.44,1.1
		c0.05,0.23,0.14,0.35,0.26,0.35c2.25-0.02,4.46-0.27,6.64-0.76l1.64-0.42c0.06,3.7,0.37,7.77,0.91,12.2
		c-0.15,0.19-0.26,0.42-0.3,0.69c-0.42,2.05-1.36,4.1-2.82,6.16c-1.12,1.53-2.4,2.46-3.85,2.78c-0.82,0.03-1.67-1.18-2.55-3.63
		c-0.26-0.76-0.54-1.43-0.82-2.01c-0.43-0.85-0.93-1.21-1.48-1.08c-0.93,0.21-1.91,1.82-2.94,4.82c-0.25-1.13-0.47-2.51-0.66-4.15
		l-0.2-1.51l-0.03-0.13c-0.04-0.17-0.16-0.24-0.36-0.19c-0.09,0.02-0.21,0.1-0.36,0.24c-0.15,0.14-0.28,0.32-0.38,0.54
		c-0.1,0.22-0.15,0.42-0.14,0.6l0.06,0.62c-0.09,0.12-0.17,0.26-0.24,0.43c-1.02,2.36-2.21,4.21-3.55,5.55
		c-1.51,1.56-3.06,2.52-4.66,2.87c-0.78,0.18-1.52,0.21-2.22,0.09c-1.34-0.28-2.28-1-2.81-2.15c0.55-0.12,1.12-0.5,1.71-1.12
		c1.04-1.06,1.46-2.03,1.26-2.93c-0.03-0.14-0.08-0.27-0.13-0.38c-0.82-1.46-1.59-2.11-2.31-1.95c-0.7,0.16-1.29,1.05-1.77,2.68
		l-0.16,0.49c-0.02,0.15-0.05,0.29-0.07,0.43c-0.65,2.66-1.64,5.56-2.98,8.71c-1.34,3.17-2.84,5.83-4.49,8
		c-1.25,1.62-2.44,2.56-3.57,2.81c-2.64,0.59-4.79-2.69-6.46-9.84c-0.34-1.51-0.66-3.43-0.98-5.77c4.59-9.38,7.64-17.25,9.13-23.62
		s1.97-11.17,1.43-14.39l-0.16-0.92c-0.7-3.13-2.01-4.48-3.93-4.05c-2.44,0.55-4.61,3.69-6.52,9.42c-2.44,7.66-2.9,18.83-1.37,33.51
		c-0.06,0.09-0.12,0.18-0.18,0.29c-2.04,3.81-4.39,6.38-7.04,7.71c-0.55,0.28-1.1,0.48-1.65,0.6c-2.47,0.55-3.98-0.45-4.56-3
		c-0.22-0.98-0.26-1.92-0.13-2.84c0.01-0.02,0.02-0.04,0.02-0.07l-0.02,0.05c0-0.03,0-0.06,0.01-0.09l0.14-1.22
		c-0.05-0.2-0.17-0.28-0.37-0.24c-0.44,0.1-0.72,0.45-0.86,1.06c-0.46-1.24-1.29-1.75-2.49-1.54c-0.61,0.14-1.21,0.43-1.82,0.86
		c-1.28,0.93-2.2,2.19-2.76,3.77c-0.2,0.72-0.25,1.32-0.14,1.81c0.08,0.35,0.25,0.66,0.51,0.94c0.26,0.28,0.61,0.46,1.06,0.56
		c0.45,0.1,0.95,0.08,1.5-0.04c1.45-0.33,2.75-1.27,3.89-2.84l0.14,0.84c0.24,1.07,0.62,1.9,1.15,2.48c1.03,1.2,2.45,1.6,4.24,1.19
		c0.61-0.14,1.23-0.37,1.86-0.69c2.88-1.43,5.45-4.11,7.69-8.02c0.3,2.1,0.62,3.93,0.97,5.48c1.75,7.53,4.12,10.96,7.11,10.28
		c1.57-0.35,3.13-1.54,4.68-3.57c1.83-2.42,3.48-5.33,4.94-8.72c0.8-1.86,1.49-3.65,2.06-5.35c0.2,0.71,0.52,1.3,0.97,1.77
		c1.2,1.28,2.88,1.68,5.02,1.2c1.83-0.41,3.65-1.53,5.46-3.37c1.37-1.36,2.59-3.17,3.68-5.41c0.35,2.41,0.66,4.19,0.92,5.34
		c0.05,0.2,0.17,0.28,0.37,0.24c0.41-0.09,0.7-0.43,0.87-1.02c1.03-3.55,1.73-5.37,2.11-5.45c0.38-0.08,0.9,0.82,1.57,2.71
		c0.36,1.08,0.8,2.05,1.32,2.92c0.52,0.87,1.17,1.22,1.95,1.05c1.86-0.42,3.5-1.62,4.94-3.62c1.26-1.8,2.2-3.58,2.82-5.34
		c0.22,1.57,0.46,3,0.73,4.27c1.75,7.8,4.25,11.34,7.5,10.61c1.51-0.34,3.04-1.46,4.59-3.36c2.8-3.56,5.12-8.39,6.96-14.47
		c0.23,0.8,0.55,1.45,0.97,1.95c1.03,1.2,2.45,1.6,4.24,1.19c0.61-0.14,1.23-0.37,1.86-0.69c2.91-1.45,5.49-4.15,7.75-8.12
		c0.37,2.53,0.69,4.38,0.95,5.57c0.05,0.2,0.17,0.28,0.37,0.24c0.41-0.09,0.7-0.43,0.87-1.02c1.03-3.55,1.73-5.37,2.11-5.45
		c0.38-0.08,0.9,0.82,1.57,2.71c0.36,1.08,0.8,2.05,1.32,2.92c0.52,0.87,1.17,1.22,1.95,1.05c1.86-0.42,3.5-1.62,4.94-3.62
		c0.9-1.28,1.63-2.55,2.21-3.81c0.01,0.04,0.01,0.08,0.02,0.11c0.19,0.84,0.54,1.52,1.05,2.05c1.2,1.28,2.88,1.68,5.02,1.2
		c1.83-0.41,3.65-1.53,5.46-3.37c1.62-1.61,3.04-3.84,4.26-6.67C462.69,295.09,462.73,294.89,462.69,294.74z M329.03,325.23
		c-0.75,1.69-1.86,2.7-3.34,3.04c-0.44,0.1-0.84,0.11-1.2,0.04c-0.37-0.07-0.63-0.2-0.8-0.39c-0.16-0.19-0.27-0.39-0.32-0.59
		c-0.05-0.23-0.04-0.51,0.04-0.83c0.29-0.86,0.82-1.57,1.58-2.14c0.42-0.28,0.84-0.46,1.25-0.55c0.9-0.2,1.52,0.18,1.85,1.14
		c0.04,0.17,0.16,0.24,0.36,0.19c0.23-0.05,0.46-0.26,0.69-0.61L329.03,325.23z M344.38,301.63c0.3-5.85,1.01-10.54,2.14-14.05
		c1.47-4.57,3.08-7.04,4.82-7.43c1.48-0.33,2.52,0.82,3.11,3.46c0.73,3.25,0.38,7.99-1.05,14.22c-1.36,5.88-4.11,13.16-8.26,21.82
		C344.38,312.75,344.13,306.74,344.38,301.63z M365.09,316.95l0.13-0.62c0.11-0.45,0.21-0.69,0.3-0.71c0.42,0.12,0.9,0.67,1.42,1.65
		l0.02,0.09c0.02,0.09,0,0.18-0.07,0.29c-0.18,0.44-0.5,0.74-0.98,0.91l-0.13,0.03c-0.38,0.08-0.61-0.09-0.71-0.53
		C365.01,317.79,365.02,317.42,365.09,316.95z M448.09,298.3l0.13-0.62c0.11-0.45,0.21-0.69,0.3-0.71c0.42,0.12,0.9,0.67,1.42,1.65
		l0.02,0.09c0.02,0.09,0,0.18-0.07,0.29c-0.18,0.44-0.5,0.74-0.98,0.91l-0.13,0.03c-0.38,0.08-0.61-0.09-0.71-0.53
		C448.01,299.14,448.02,298.77,448.09,298.3z"/>
	<path class="st0" d="M304.87,203.61c1.65,1.81,2.94,3.16,3.89,4.06c0.94,0.9,1.81,1.35,2.59,1.35c0.78,0,1.63-0.43,2.53-1.3
		c0.9-0.87,2.18-2.2,3.83-4c1.88-1.96,2.83-4.32,2.83-7.07c0-1.18-0.16-2.28-0.47-3.3c-0.71-2.75-1.88-4.12-3.53-4.12
		c-1.18,0-2.51,0.74-4,2.24c-0.16,0.16-0.31,0.33-0.47,0.53c-0.16,0.2-0.39,0.49-0.71,0.88c-0.63-0.63-1.02-1.06-1.18-1.3
		c-0.47-0.63-0.98-1.18-1.53-1.65c-0.55-0.47-1.18-0.71-1.88-0.71c-0.16,0-0.55,0.08-1.18,0.24c-1.1,0.39-1.88,1-2.36,1.83
		s-0.79,1.75-0.94,2.77c-0.08,0.39-0.12,0.73-0.12,1c0,0.27,0,0.61,0,1c0,1.41,0.2,2.75,0.59,4
		C303.14,201.33,303.85,202.51,304.87,203.61z"/>
</g>
<g>
	<path d="M89.91,258.17c1.83-0.73,6.51-4.95,7.61-6.51c2.38,3.03,8.89,7.43,16.59,7.43c10.27,0,21.27-8.8,21.54-24.11
		c0.18-13.29-9.44-23.56-22.09-23.56c-4.03,0-7.79,1.47-10.63,3.48v-27.32h-2.02c-3.3,5.23-9.17,8.43-18.06,8.43
		c-0.18,0.46-0.09,1.28,0.46,1.65c1.01,0.73,2.02,0.64,3.48,1.65c1.1,0.83,1.83,2.02,1.83,4.58v36.95c0,7.61,0.09,11.73-0.64,16.5
		L89.91,258.17z M102.93,217.56c1.47-1.1,3.21-2.02,4.86-2.02c5.68,0,10.73,8.62,12.65,17.97c0.46,2.2,0.92,5.96,0.92,9.72
		c0,4.86-0.82,13.48-7.43,13.48c-5.87,0-11-7.98-11-14.58V217.56z"/>
	<path d="M182.69,231.77c1.01-9.99-5.96-20.35-19.44-20.35c-13.11,0-22.92,10.91-22.92,23.93c0,13.57,9.63,23.74,22.92,23.74
		c10.18,0,17.42-7.61,18.89-10.91l-1.65-1.1c-2.38,2.93-5.96,4.86-10.27,4.86c-10.18,0-15.03-9.9-16.23-18.61h26.68
		C181.77,233.23,182.59,232.96,182.69,231.77z M153.72,231.03c-0.73-9.08,2.11-16.32,6.97-17.23c5.87-1.01,9.35,8.89,9.53,17.23
		H153.72z"/>
	<path d="M271.88,254.96c-1.74,1.1-2.66,0.73-3.85,1.56c-0.55,0.46-0.64,1.37-0.46,1.65c0.37,0.46,6.14-0.46,13.57-0.46
		s13.2,0.92,13.57,0.46c0.18-0.28,0.18-1.19-0.46-1.65c-1.1-0.73-2.38-0.46-4.13-1.56c-1.28-0.83-2.02-1.83-2.02-4.58v-21.36
		c0-11.09-4.95-17.6-15.13-17.6c-6.42,0-12.83,5.59-16.13,8.53c-2.11-5.5-6.69-8.53-13.66-8.53c-5.5,0-11.09,4.22-14.67,7.24v-7.24
		h-2.02c-3.48,4.86-11,7.24-18.06,7.24c-0.18,0.46-0.09,1.28,0.46,1.65c1.01,0.73,2.11,0.73,3.48,1.74c1.1,0.73,1.83,1.93,1.83,4.49
		v23.84c0,2.75-0.64,3.76-1.93,4.58c-1.74,1.1-2.93,0.73-4.13,1.56c-0.55,0.46-0.64,1.37-0.46,1.65c0.37,0.46,6.33-0.46,13.75-0.46
		c7.43,0,12.93,0.92,13.29,0.46c0.18-0.28,0.18-1.19-0.46-1.65c-1.1-0.73-2.11-0.46-3.85-1.56c-1.28-0.83-1.93-1.83-1.93-4.58
		v-28.97c2.93-2.29,5.5-4.13,8.34-4.13c5.04,0,7.15,4.03,7.15,9.9v23.19c0,2.75-0.64,3.76-1.93,4.58c-1.74,1.1-2.66,0.73-3.85,1.56
		c-0.55,0.46-0.64,1.37-0.46,1.65c0.37,0.46,6.14-0.46,13.57-0.46c7.43,0,13.2,0.92,13.57,0.46c0.18-0.28,0.18-1.19-0.46-1.65
		c-1.1-0.73-2.38-0.46-4.13-1.56c-1.28-0.83-2.02-1.83-2.02-4.58v-21.36c0-2.57-0.27-4.95-0.82-6.97c3.21-2.57,6.05-4.77,9.17-4.77
		c5.04,0,7.15,4.03,7.15,9.9v23.19C273.81,253.13,273.17,254.14,271.88,254.96z"/>
	<path d="M325.33,258.17c0.18-0.28,0.18-1.19-0.46-1.65c-1.1-0.73-2.11-0.46-3.85-1.56c-1.28-0.83-1.93-1.83-1.93-4.58v-38.96h-2.02
		c-3.48,4.86-11,7.24-18.06,7.24c-0.18,0.46-0.09,1.28,0.46,1.65c1.01,0.73,2.11,0.73,3.48,1.65c1.1,0.83,1.83,2.02,1.83,4.49v23.93
		c0,2.75-0.64,3.76-1.93,4.58c-1.74,1.1-2.93,0.73-4.13,1.56c-0.55,0.46-0.64,1.37-0.46,1.65c0.37,0.46,6.33-0.46,13.75-0.46
		C319.46,257.71,324.96,258.63,325.33,258.17z"/>
	<path d="M385.28,256.52c-1.1-0.73-2.38-0.46-4.13-1.56c-1.28-0.83-2.02-1.83-2.02-4.58v-21.36c0-11.09-4.77-17.6-14.39-17.6
		c-5.78,0-12.1,4.31-15.95,7.33v-7.33h-2.02c-3.48,4.86-11,7.24-18.06,7.24c-0.18,0.46-0.09,1.28,0.46,1.65
		c1.01,0.73,2.11,0.73,3.48,1.74c1.1,0.73,1.83,1.93,1.83,4.49v23.84c0,2.75-0.64,3.76-1.93,4.58c-1.74,1.1-2.93,0.73-4.13,1.56
		c-0.55,0.46-0.64,1.37-0.46,1.65c0.37,0.46,6.33-0.46,13.75-0.46c7.43,0,12.93,0.92,13.29,0.46c0.18-0.28,0.18-1.19-0.46-1.65
		c-1.1-0.73-2.11-0.46-3.85-1.56c-1.28-0.83-1.93-1.83-1.93-4.58v-29.06c3.12-2.29,6.23-4.03,9.26-4.03c5.04,0,6.78,4.03,6.78,9.9
		v23.19c0,2.75-0.64,3.76-1.93,4.58c-1.74,1.1-2.66,0.73-3.85,1.56c-0.55,0.46-0.64,1.37-0.46,1.65c0.37,0.46,6.14-0.46,13.57-0.46
		c7.43,0,13.2,0.92,13.57,0.46C385.93,257.89,385.93,256.98,385.28,256.52z"/>
	<path d="M431.03,248.18l-1.65-1.1c-2.38,2.93-5.96,4.86-10.27,4.86c-10.18,0-15.03-9.9-16.23-18.61h26.68
		c1.1-0.09,1.93-0.37,2.02-1.56c1.01-9.99-5.96-20.35-19.44-20.35c-13.11,0-22.92,10.91-22.92,23.93c0,13.57,9.63,23.74,22.92,23.74
		C422.32,259.09,429.56,251.48,431.03,248.18z M409.58,213.8c5.87-1.01,9.35,8.89,9.53,17.23h-16.5
		C401.88,221.96,404.72,214.72,409.58,213.8z"/>
	<path d="M288.27,316.48h21.57c0.1-0.68,0.19-1.36,0.29-2.04h-23.12C287.43,315.11,287.85,315.79,288.27,316.48z"/>
	<path d="M349.93,316.48h12.01c0-0.01,0.01-0.03,0.01-0.04l0.15-0.47c0.14-0.48,0.32-1.01,0.56-1.53h-11.84
		C350.54,315.11,350.24,315.79,349.93,316.48z"/>
	<path d="M388,315.09c0.21,0.59,0.41,1.05,0.57,1.39h1.3c0.33-0.29,0.65-0.65,0.97-1.09c0.22-0.32,0.43-0.63,0.62-0.95h-3.69
		C387.85,314.65,387.92,314.87,388,315.09z"/>
	<path d="M400.08,315.53c0.07,0.33,0.15,0.65,0.23,0.95h9.29c0.32-0.65,0.63-1.33,0.93-2.04h-10.67
		C399.93,314.8,400,315.16,400.08,315.53z"/>
	<path d="M315.42,314.44c-0.1,0.68-0.2,1.36-0.29,2.04h26.32c-0.05-0.69-0.1-1.37-0.14-2.04H315.42z"/>
	<path d="M474.33,143.85H41.65c-1.12,0-2.04,0.91-2.04,2.04v168.56c0,1.12,0.91,2.04,2.04,2.04h239.77
		c-0.43-0.69-0.87-1.37-1.29-2.04H41.65V145.88h432.68v168.56h-54.27c-0.16,0.01-0.31,0.02-0.46,0.02c-0.16,0-0.31-0.01-0.46-0.02
		H416c-0.27,0.7-0.55,1.38-0.84,2.04h59.17c1.12,0,2.04-0.91,2.04-2.04V145.88C476.37,144.76,475.46,143.85,474.33,143.85z"/>
	<path d="M369.92,314.86c0.02,0.03,0.03,0.06,0.05,0.09c0.13,0.26,0.23,0.54,0.29,0.84c0.05,0.23,0.08,0.46,0.09,0.7h4.48
		c0.42-0.6,0.82-1.28,1.21-2.04h-6.36C369.77,314.6,369.86,314.75,369.92,314.86z"/>
</g>
</svg>
