<?xml version="1.0" encoding="utf-8"?>
<!-- Generator: Adobe Illustrator 25.0.0, SVG Export Plug-In . SVG Version: 6.00 Build 0)  -->
<svg version="1.1" id="Layer_1" xmlns="http://www.w3.org/2000/svg" xmlns:xlink="http://www.w3.org/1999/xlink" x="0px" y="0px"
	 viewBox="0 0 500 500" style="enable-background:new 0 0 500 500;" xml:space="preserve">
<style type="text/css">
	.st0{fill:#B51B2C;}
	.st1{fill:#030304;}
	.st2{fill:#020203;}
	.st3{fill:#13110C;}
	.st4{fill:#CE536A;}
	.st5{fill:#F192AC;}
	.st6{fill:#E3748C;}
	.st7{fill:#C0364A;}
	.st8{fill:#EE7289;}
</style>
<g>
	<path class="st0" d="M178.31,243.23c1.79,14.29,29.52,8.94,26.01-5.89c2.72,1.32,4.99,3.36,7.48,2.77c0,0,0.01,0,0.01,0
		c0.86-0.23,1.7-0.88,1.83-2.53c0,0,0,0,0,0c0-0.67-0.06-1.41-0.16-2.21c-0.14-0.72-0.23-1.23-0.27-1.57
		c-1.13-5.48-4.63-12.88-12.24-19.03c-0.38-0.22-2.39-1.58-2.39-1.58c-2.83-1.6-6.45-2.69-10-2.96c0-0.01-3.04-0.14-3.04-0.11
		c-6.1,0.3-7.44,0.47-15.06,4.69c0-0.01-1.96,1.26-1.95,1.27c-2.37,1.65-4.75,3.7-6.76,6.27c-0.47,0.61-0.88,1.21-1.14,1.62
		c0,0,0,0,0,0c-2.38,3.56-4.06,7.93-4.2,13.31c-0.05,1.92,1.66,9.48,3.34,9.32c1.46,0.81,2.23-3.16,3.4-4.41
		c1.02-1.09,1.19,0.2,1.67,1.39c0.48,1.21,0,2.25,0.14,3.83c0,1.37-0.31,2.66-0.54,4.11c1.71,0.52,3.51,0.8,3.77,0.84
		C172.77,252.71,176.96,246.55,178.31,243.23z M181.52,241.59c1.05-7.91,15.18-12.2,19.37-4.54c4.07,9.37-12.4,15.09-18.2,8.9
		C181.5,244.84,181.18,243.14,181.52,241.59z"/>
	<path class="st0" d="M272.58,152.51c-3.08,1.46-5.98,3.43-8.1,6.1c-3.94-6.73-11.46-11.8-19.13-13.08
		c-14.04-0.74-19.27,17.09-14.69,28.11c4.98,14.4,17.51,24.03,29.31,32.71c7.33-3.9,15.09-6.93,21.64-12.22
		c10.73-8.04,21.31-21.8,15.39-35.81C292.81,147.7,281.37,147.74,272.58,152.51z"/>
</g>
<g>
	<path class="st3" d="M195.72,255.72c-4.54,4.32-14.62,2.99-15.36-4.07c-0.22-1.21-2.14-1.06-1.92,0.16
		c0.29,1.63,0.85,3.09,1.67,4.32c-5.2,9.57,5.31,13.14,8.51,3.94c3.14,0.1,6.22-0.8,8.55-3.08
		C198.07,256.11,196.6,254.86,195.72,255.72z M184.6,262.96c-4.29,2.03-4.87-1.8-3.17-5.31c0.45,0.4,0.96,0.75,1.51,1.05
		c-0.22,0.77-1.87,2.72-0.57,3.3c1.26,0.66,1.77-1.94,2.24-2.59c0.69,0.23,1.42,0.36,2.13,0.47
		C186.29,261.05,185.59,262.29,184.6,262.96z"/>
	<path class="st3" d="M303.44,155.53c-6.33-17.71-27.83-14.23-38.57-2.82c-29.73-39.45-72.51,14.28-10.35,55.35
		c-2.7,0.26-5.49,1.56-6.77,4.03c-1.09,1.88-0.92,4.72,1.5,5.37c-7.18,7.74-9.98,18.23-13.58,27.89c0,0.01-0.01,0.01-0.01,0.02
		c-1.67,0.33-3.26,0.96-4.55,1.57c-1.05-0.08-11.32-0.84-12.03-0.89c-1.43-2.67-2.54-6.71-5.45-8.5c0,0,0,0,0,0
		c0,0.01,0,0.03,0,0.04c0,0,0,0,0,0c-0.13,1.61-0.93,2.27-1.76,2.51c3.44,1.68,4.26,12.61,8.77,9.15c0.19,1.52-1.5,2.98-4.04,2.62
		c1.26,1.91,2.98,3.96,3.74,6.35c0.73,2.3,2.05,3.84,3.07,4.97c-0.73,0.01-1.92,0-2.96-0.37c1.69,4.81,4.63,3.68,7,10.07
		c0.92,3.03,2.69,4.3,2.69,4.3c-1.1,0.09-2.68,0.03-3.9-1.28c0,0.01,0,0.01,0,0.02l0.01,0.02c-0.62,2.16-1.76,7.56,2.05,5.5
		c-0.55,1.56-3.13,1.48-4.16-0.24c-2.91,4.59-4.93,10.02-3.8,14.45c-2.23-0.7-3.04-2.21-3.33-3.43c-1.75,4.99,4.37,8.67,7.94,5.2
		c-2.43,3.43-7.79,5.54-12,1.52c0.19,1.73,1.27,3.17,3.86,3.89c7.5,3,15.76-7.29,16.27-8.73c-1.59,13.24-14.32,18.41-29.72,15.15
		c2.03,1.11,4.04,1.76,4.04,1.76c-7.13,0.86-13.55-2.77-16.56-8.77c-1.98,2.59,0.18,6.84,1.65,9.19
		c-5.89-2.41-10.33-9.44-9.81-13.59c-4.75,6.24-16.83,6.84-17.8-0.05c2.79,3,8.28,4.72,9.43-2.72c-5.21,1.7-10.71,1.91-15.53-1.25
		c3.11,1.28,7.22-5.58,7.16-10.49c0.14-2.14-0.42-4.35-0.71-6.36c-0.81,1.65-2.3,2.53-3.86,2.46c4.1-2.23,0.01-9.62,3.89-12.53
		c-1.58,0.87-3.75,0.1-4.02-1.69c5.17,2.72,1.99-9.78,6.56-12.9c-0.68-0.12-2.04-0.38-3.35-0.78c0,0,0,0,0,0
		c-0.02-0.01-0.04-0.01-0.06-0.02c-2.44,2.53-2.45,8.16-2.95,10.61c-1.43-0.13-2.86,0.93-3.16,2.34c-1.27,0.71-7.35,4.65-8.77,4.55
		c-8.62,3.36-8.21,8.46-4.98,11.52c-0.96,2.73,1.1,5.8,3.79,6.46c1.49,8.51,11.35,3.07,13.62-2.12l0.78-0.3
		c-0.37,2.76-2.52,7.05-3.93,6.17c-2.95-0.11-4.26,4.12-1.7,5.68c1.49,0.98,3.09,1.72,4.78,2.22c0.41,5.7,10.13,9.41,16.67,5.97
		c-0.46,1.82-1.45,2.43-2.5,4.08c-7.19-6.6-20.97-0.95-14.47,10.33c0,0,0.4,3.71,15.23,2.82c5-0.3,9.1-1.16,11.91-1.92
		c1.35-0.09,2.66-0.39,4.15-1.35c0.62-0.06,0.55-1.96,0.26-4.17c1.31-0.2,2.38-1.4,2.44-2.71c0.56,0.33,1.17,0.63,1.81,0.91
		c-0.49,2.89-0.81,5.89-0.02,5.97c1.49,0.97,2.8,1.26,4.15,1.35c2.81,0.76,6.9,1.62,11.91,1.92c14.84,0.89,15.24-2.82,15.24-2.82
		s3.84-6.27-0.27-10.56c8.86-8.45,10.05-16.95,4.71-17.59c-3.35,0.52-2.17,1.96-5.39,5.15c-0.77-1.58-2.9-2.17-4.37-1.22
		c-0.59-2.75,0.27-6.63,1.95-9.24c3.31,0.91,7.18-2.3,5.81-5.43c2.33-0.69,2.89-4.08,0.86-5.45c0,0,0,0,0,0
		c0.01,0-0.96-0.81-1.53-2.68c-0.8-2.65-2.56-4.85-3.62-6.02l4.33,0.26c1.41,0.75,3.02,1,4.48,1.16c0,0,0,0,0,0
		c-0.91,3.62,0.26,7.9,2.02,11.03c3.72,8.39,16.14,8.02,17.81,16.84c0.71,3.81-3.03,8.17-6.96,6.51c-2.59-1.08-3.33-5.39-0.55-6.68
		c0.91-0.38,1.98,0.09,2.07,1.17c0.08,0.95,1.44,1.55,1.95,0.53c1.31-2.6-1.38-5.03-3.97-4.54c-4.98,0.96-4.96,7.74-1.38,10.38
		c3.75,2.93,9.58,0.25,11.07-3.95c0.9-2.48,0.38-5.43-0.88-7.69c-6.4-9.42-18.47-5.45-19.6-23.54c0,0,0.01-0.01,0.01-0.01
		c5.49-0.39,7.02-3.76,6.17-7.3c2.34-1.7,2.35-5.46,0.5-7.48c2.39-3.82-1.5-7.62-5.5-7.53c0,0,0,0,0,0c0,0,0,0,0,0c0,0,0,0,0,0
		c3.36-9.51,6.85-19.01,12.7-27.32c2.83,0.21,5.5-1.52,7.01-3.8c0.36,2.57,3.24,5.24,5.92,4.17c3.08-1.85,1.39-6.61-0.7-8.6
		C284.22,200.9,312.17,181.66,303.44,155.53z M152.96,288.3c-2.93,0.23-0.91-5.22-0.85-5.26c-4.11,3.12-7.06-1.65-1.91-4.59
		c-5.92,1.34-6.09-4.22-0.74-6.08c0.21,0.75,0.6,1.44,1.28,1.85c1.68,1.03,6.01,4.5,5.84,8.06c-0.05,1.1,0.5,2.25,1.49,2.76
		C156.76,286.73,155,288.3,152.96,288.3z M160.25,273.46c0.32,3.74-0.07,2.33-1.62,4.62c-2-3.85-5.95-6.28-6.29-6.51
		c1.95-1.15,4.63-2.74,6.58-3.9c0.39,0.65,0.92,1.25,1.58,1.71C160.2,270.68,160.14,272.04,160.25,273.46z M231.8,263.1
		c0.01,0.02,0.04,0.1,0.04,0.1c-1.48-0.09-3.93-0.24-5.4-0.33c-0.33-2.21-2.35-2.74-3.15-5.52c-0.32-1.08-0.89-2.29-1.7-3.61
		c1.38-1.07,2.06-2.69,2.1-4.24c2.39,0.18,5.8,0.43,8.16,0.61C228.26,254.92,231.57,262.57,231.8,263.1z M238.47,253.83
		c4.99-0.34,5.09,5.29-0.99,4.88c5.16,1.79,3.31,6.96-2.8,5.45c0.25-0.74,0.31-1.52-0.02-2.24c-0.81-1.79-2.45-7.1-0.31-9.95
		c0.68-0.9,0.81-2.11,0.34-3.13C240.56,246.85,244.19,250.2,238.47,253.83z M254.28,214.85c-5.39,2.73-6.8-1.62-1.78-4.01
		c1.72-0.68,3.57-0.53,5.36-0.71c0.1,0.06,0.2,0.12,0.3,0.18C257.25,212.06,256,213.84,254.28,214.85z M263.55,214.43
		c0.45,4.52-5.22,0.52-3.61-3.62c0.39-0.12,0.78-0.27,1.18-0.41C262.36,211.38,263.31,212.84,263.55,214.43z M283.57,195.16
		c-7.27,5.87-15.87,9.22-24,13.55c-13.09-9.63-26.97-20.31-32.5-36.27c-5.08-12.22,0.72-31.99,16.29-31.17
		c8.51,1.43,16.86,7.05,21.22,14.51c2.36-2.97,5.57-5.15,8.99-6.77c9.75-5.29,22.44-5.33,27.07,6.44
		C307.2,170.99,295.47,186.24,283.57,195.16z"/>
</g>
<g>
	<g>
		<path class="st5" d="M314.66,271.39c1.22-6.69,1.32-12.46,1.32-15.9c0-3.85,5.17-4.96,9.93-4.96s10.94,1.22,10.94,4.96
			c0,1.62-0.51,3.55-0.81,5.77c-0.61,5.07-0.61,13.07-0.1,19.15c0.71,8,2.74,14.79,5.57,22.19c1.82,4.76,3.85,9.52,4.46,12.97
			c0.81,5.27-5.07,7.09-12.16,7.09c-7.4,0-13.88-1.82-14.69-7.09c-0.71-4.25,1.42-8.51,0.61-17.12c-0.2-2.13-1.82-3.24-3.55-0.3
			c-3.44,5.98-4.86,16.51-12.66,16.51c-7.7,0-11.14-11.45-15.5-16.51c-1.62-1.92-3.14-1.42-3.04,1.32c0.3,7.9,2.33,11.35,1.72,16.11
			c-0.71,5.27-6.38,7.09-13.78,7.09c-6.99,0-13.47-1.82-12.66-7.09c0.61-3.44,3.14-8.21,4.96-12.97c2.84-7.4,4.25-12.05,5.47-19.96
			c0.81-5.17,0.81-13.68-0.1-20.67c-0.3-2.63-1.22-5.07-1.22-6.48c0-3.85,5.17-4.96,10.13-4.96c6.38,0,9.93,1.92,10.23,4.96
			c0.41,4.36,2.03,11.55,4.36,18.03c2.23,6.18,7.6,12.66,11.45,12.66C308.58,286.18,313.03,280.61,314.66,271.39z"/>
		<path class="st5" d="M349.81,316.07c0-3.14,1.92-8.31,3.04-12.66c0.91-3.55,1.92-8.21,1.92-12.66c0-3.75-0.91-7.8-2.23-11.24
			s-2.03-4.66-2.03-6.58c0-3.55,7.6-4.66,11.95-4.66s11.95,1.11,11.95,4.66c0,1.92-0.71,3.14-2.03,6.58s-2.23,7.5-2.23,11.24
			c0,4.46,1.01,9.12,1.92,12.66c1.11,4.36,3.04,9.52,3.04,12.66c0,4.86-5.98,6.58-12.56,6.58
			C355.78,322.65,349.81,320.93,349.81,316.07z M362.47,249.72c6.69,0,11.24,3.24,11.24,8c0,4.76-4.56,8-11.24,8
			c-6.79,0-11.35-3.24-11.35-8C351.12,252.96,355.68,249.72,362.47,249.72z"/>
		<path class="st5" d="M379.38,316.07c0-3.14,1.92-8.31,3.04-12.66c1.72-6.48,2.43-16.61,0.1-22.69c-1.62-4.25-2.43-5.88-2.43-7.8
			c0-3.55,8-4.66,12.36-4.66c4.36,0,9.72,0.71,9.72,2.53c0,0.81,0,1.72-0.1,2.84c2.84-2.74,6.99-5.37,12.56-5.37
			c7.9,0,12.76,6.69,12.76,13.78c0,5.07-0.91,7.9-0.91,12.66c0,1.01,0.41,2.33,1.52,2.33c0.91,0,1.42-0.81,1.72-1.92
			s0.41-1.42,1.01-1.42c1.82,0,4.86,4.86,4.86,11.65c0,11.24-5.17,17.32-14.08,17.32c-6.89,0-13.17-4.25-13.17-14.69
			c0-7.5,2.94-15.3,2.94-21.58c0-2.84-1.22-5.77-4.66-5.77c-3.44,0-5.77,3.75-6.08,8c-0.41,5.17,0.41,10.54,1.92,16.51
			c0.91,3.55,3.04,7.9,3.04,10.94c0,4.86-6.38,6.58-12.97,6.58C385.77,322.65,379.38,320.93,379.38,316.07z"/>
		<path class="st5" d="M476.02,295.81c0.91-0.91,1.52-1.62,2.23-1.62c2.33,0,3.14,4.05,3.14,8c0,11.35-7.9,21.27-20.16,21.27
			c-12.87,0-21.88-9.83-21.88-23.91c0-19.04,10.94-32.11,23.5-32.11c10.23,0,14.89,7.4,14.89,13.68c0,8.31-6.28,15.5-14.59,15.5
			c-4.05,0-6.48-1.32-7.9-3.24c1.42,4.96,5.67,7.19,10.64,7.19C470.35,300.57,473.59,298.24,476.02,295.81z M467.92,281.12
			c0-1.52-1.11-3.65-3.95-3.65c-3.14,0-6.38,2.74-8.1,6.79c0.61-0.41,1.22-0.61,2.03-0.61c1.82,0,3.04,1.52,3.04,2.84
			c0,1.22-0.61,2.13-1.22,2.33C464.07,288.92,467.92,284.97,467.92,281.12z"/>
	</g>
	<g>
		<path class="st5" d="M34.59,315.56c0-3.44,1.22-8.21,2.33-12.97c1.62-7.4,3.44-15.3,3.44-23.2c0-5.17-0.71-10.64-2.33-15.4
			c-1.62-4.76-2.63-6.38-2.63-8.51c0-3.85,7.5-5.77,22.29-5.77c13.07,0,19.45,6.28,19.45,13.07c0,6.99-3.55,10.74-7.29,12.97
			c5.98,1.22,16.82,8.51,16.82,20.77c0,14.18-8.91,26.14-30.29,26.14C42.09,322.65,34.59,322.04,34.59,315.56z M56.67,266.33
			c0,3.34,1.62,4.66,3.34,4.66c2.63,0,5.98-2.94,5.98-6.69c0-2.33-2.13-4.25-4.36-4.25C58.7,260.05,56.67,261.77,56.67,266.33z
			 M61.43,287.1c2.43,0,4.46,1.82,4.46,4.25c0,2.94-2.03,4.15-3.85,4.15c-2.13,0-3.14-1.62-3.14-2.43c-1.01,0.1-2.23,1.11-2.23,2.74
			c0,2.33,2.23,4.15,5.98,4.15c4.76,0,7.9-3.75,8.1-8.81c0.1-3.44-2.74-6.58-6.89-6.58c-3.65,0-5.27,2.43-5.77,3.65
			C58.9,287.6,60.12,287.1,61.43,287.1z"/>
		<path class="st5" d="M126.87,295.81c0.91-0.91,1.52-1.62,2.23-1.62c2.33,0,3.14,4.05,3.14,8c0,11.35-7.9,21.27-20.16,21.27
			c-12.87,0-21.88-9.83-21.88-23.91c0-19.04,10.94-32.11,23.5-32.11c10.23,0,14.89,7.4,14.89,13.68c0,8.31-6.28,15.5-14.59,15.5
			c-4.05,0-6.48-1.32-7.9-3.24c1.42,4.96,5.67,7.19,10.64,7.19C121.2,300.57,124.44,298.24,126.87,295.81z M118.77,281.12
			c0-1.52-1.11-3.65-3.95-3.65c-3.14,0-6.38,2.74-8.1,6.79c0.61-0.41,1.22-0.61,2.03-0.61c1.82,0,3.04,1.52,3.04,2.84
			c0,1.22-0.61,2.13-1.22,2.33C114.92,288.92,118.77,284.97,118.77,281.12z"/>
	</g>
</g>
</svg>
