<?xml version="1.0" encoding="utf-8"?>
<!-- Generator: Adobe Illustrator 25.0.0, SVG Export Plug-In . SVG Version: 6.00 Build 0)  -->
<svg version="1.1" id="Layer_1" xmlns="http://www.w3.org/2000/svg" xmlns:xlink="http://www.w3.org/1999/xlink" x="0px" y="0px"
	 viewBox="0 0 500 500" style="enable-background:new 0 0 500 500;" xml:space="preserve">
<style type="text/css">
	.st0{fill:#B51B2C;}
	.st1{fill:#030304;}
	.st2{fill:#020203;}
	.st3{fill:#13110C;}
	.st4{fill:#CE536A;}
	.st5{fill:#F192AC;}
	.st6{fill:#E3748C;}
	.st7{fill:#C0364A;}
	.st8{fill:#EE7289;}
</style>
<g>
	<path class="st0" d="M350.24,172.26c-3.93,1.87-5.99,6.23-5.74,10.99c-19.14-14.37-33.3,23.14,13.81,29.03
		C367.22,201.07,374.04,166.57,350.24,172.26z M359.48,194.96c-1.2,4.66-2.77,8.66-4.09,11.17c-8.37-1.6-31.1-10.93-20.52-20.07
		c4.26-1.84,7.59,5.29,12.15,2.48c4.92-1.62,1.81-9.17,5.74-10.99C361.32,177.01,362.57,183.27,359.48,194.96z"/>
	<path class="st0" d="M404.48,228.72c6.98-9.31-2.17-21.1-11.93-14.55c2.51-20.65-31.54-14.85-15.89,22.73
		C382.84,238.21,400.83,233.94,404.48,228.72z M399.7,225.34c-1.76,2.17-12.09,5.57-19.13,5.91c-1.84-8.34-5.11-24.49,5.31-22.45
		c2.5,2.34-0.83,8.14,3.32,10.17c3.04,2.54,6.28-0.26,9.28-0.78C402.12,218.53,401.29,223.15,399.7,225.34z"/>
	<path class="st0" d="M259.15,436.59c-11.41-2.19-22.28-10.26-32.85-15.78c-3.1,0.35-6.19,0.74-9.28,1.19
		c12.75,7.39,26.39,16.55,41.06,20.74c14.6-4.1,28.24-13.3,40.6-20.47c-3-0.54-6.02-0.97-9.05-1.34
		C279.79,426.82,269.63,432.24,259.15,436.59z"/>
	<path class="st0" d="M419.52,194.53c-29.13-59.83-94.22-57.25-142.42-20.71c-4.02-8.33-10.12-16.14-20.9-22.97
		c-26.54-15.46,1.51-30.35,9.9-18.26c2.55-39.63-84.86-20.59-52.01,26.49c-38.83-20.85-87.4-14.02-111.82,25.56
		c-34.76,53.57-12.83,121.08,28.46,167.27c-1.23-3.87-2.41-8.25-2.78-12.57c-14.76-18.82-26.37-39.9-32.99-63.26
		c-22.79-82.18,47.55-157.36,127.21-106.16c14.71,29.23-50.93,67.85-26.27,107.41c6.6,17.19,21.13,9.54,31.29,2.31
		c-0.4,35.32,76.8,30.1,63.18-10.03c9.61,4.81,18.44,19.29,28.36,15.84c16.27-15.97,2.82-31.93-13.93-50.46
		c-18.42-17.32-18.42-37.43-25.34-55.66c89.33-69.67,172.72,12.71,137.52,109.81c-8.82,24.85-25.94,44.21-36.23,67.97
		C422.35,313.25,446.91,248.51,419.52,194.53z M244.34,171.7c4.72-1.02,7.33,3.16,7.71,3.78c3.37-9.38,18.79-2.84,12.15,7.77
		c-0.81,1.2-10.89,9.48-11.28,10.03c-0.46-0.49-11.12-7.58-12.05-8.68C236.58,179.42,238.88,173.36,244.34,171.7z M260.21,224.62
		c-0.81,1.22-10.89,9.49-11.28,10.03c-0.46-0.49-11.12-7.58-12.05-8.68c-7.82-9.78,6.77-18.04,11.18-9.12
		C251.43,207.47,266.85,214.01,260.21,224.62z M226.59,141.29c3.37-9.38,18.79-2.84,12.15,7.77c-0.81,1.2-10.89,9.48-11.28,10.03
		c-0.45-0.51-11.1-7.58-12.04-8.68C207.6,140.62,222.18,132.37,226.59,141.29z M220.88,263.78c-0.46-0.49-11.12-7.57-12.05-8.68
		c-7.82-9.78,6.77-18.04,11.18-9.12c3.37-9.38,18.79-2.84,12.15,7.77C231.36,254.97,221.28,263.24,220.88,263.78z M261.77,297.45
		c-38.53,2.66-37.71-35.88-3.16-39.16C292.5,255.77,297.7,296.18,261.77,297.45z M292.02,242.57c3.38-9.38,18.8-2.84,12.16,7.77
		c-0.81,1.22-10.89,9.49-11.28,10.03c-0.46-0.49-11.12-7.58-12.06-8.68C273.03,241.91,287.61,233.65,292.02,242.57z"/>
</g>
<g>
	<path d="M216.05,312.69c2.95,2.14,4.7-1.72,6.51-3.44c15.87,20.13,65.12,22.86,75.2-3.33c1.8,1.36,4,3.82,6.1,1.5
		c2.62-3.78-3.6-6.04-6.1-7.94c-2.61-1.06-5.94-4.01-8.64-2.22c-2.88,3.12,1.22,5.04,3.92,5.89c-12.65,25.59-52.16,18.4-66.42,2.48
		c1.86-1.53,5.49-2.86,3.71-5.8c-0.82-1.29-2.38-1.66-3.67-0.85C223.59,301.43,212.21,308.32,216.05,312.69z"/>
	<polygon points="147.54,404.98 159.17,401.11 148.24,386.48 	"/>
	<path d="M457.73,407.48c-28.03-18.41-57.96-32.56-88.92-42.46c1.81-2.14,3.67-4.49,5.55-7.08c16.96-23.44,11.28-27.98,11.28-27.98
		c-11.7-22.47-35.42-5.84-32.11,12.93c-2.97,0.04-5.14,0.37-6.94,0.83c-0.31-7.09-0.88-17.49-9.29-26.07
		c5.39-6.17-4.1-8.92-5.48-14.58c-0.61-3.5-1.69-6.27-2.93-8.45c7.87-4.26,4.45-18.7-4.68-12.44c-0.22-0.18-0.53-0.78-0.87-1.48
		c0,0-2.3,3.2-3.9,3.94c1.49,3.27,7.01,3.68,8.55,1.55c0.47,3.17-4.63,6-9.81,5.13c9.44,5.01,6.14,16.8,15.15,22.54
		c-1.84,0.03-4.76,0.01-7.18-0.72c1.25,4.72,4.56,5.35,7.83,9.03c11.84,10.22,1.22,36.72,16.67,28.39c0.18,0.53-4.95,6.87-7.92,7.18
		c-3.3-0.79-6.61-1.53-9.93-2.23c-0.8-1.02-96.83-10.11-142.79-1.37c1.31-7.52-3.27-14.14-3.44-20.54
		c-2.58,3.24-7.69,3.14-9.59,1.81c0.11,0,6.48-0.58,6.85-14.1c0.33-10.09,7.83-12.72,7.82-12.73c-5.07,1.28-9.36-2.78-8.76-5.12
		c7.97,7.49,10.03-12.4,16.76-19.63l-3.06-5.05c-5.1,5.6-7.71,13.67-10.87,19.99c-8.24-3.72-11.07,7.95-4.79,12.48
		c-2.78,2.72-2.46,17.96-4.99,18.75c-2.65,0.46-4.67,3.02-4.47,5.72c1.39,7.08,8.88,6,11.12,5.96c0.1,0.32,0.2,0.63,0.29,0.95
		l-9.85,2.54c-1.85-1.24-5.07-2.22-10.6-2.28c3.3-18.8-20.41-35.39-32.11-12.93c0,0-5.67,4.54,11.32,27.96
		c1.88,2.59,3.75,4.94,5.56,7.08c-30.98,9.9-60.93,24.05-88.97,42.47c14.72,4.43,28.8,9.75,42.18,15.87
		c-2.43,13.92-3.94,27.75-4.57,41.39c97.86-64.41,225.68-64.84,324.26,0c-0.63-13.63-2.15-27.46-4.57-41.39
		C428.93,417.24,443.01,411.91,457.73,407.48z M103.03,404.27c-2.04-2.73-5.42-0.35-5.79-2.12c0.28,0.08,14.27-6.51,14.42-6.7
		c1.09,1.79-3.1,1.95,0.12,4.75c0,0,18.83,17.66,18.83,17.66c-0.02-3.4,1.27-19.24,0.52-22.12c-2.23,1.91-5.84,1.16-7.07-1.58
		c-2.63-5.33,6.23-9.4,8.6-4c2.1,5.49-0.86,28.6-0.67,35.43l-3.21,1.49L103.03,404.27z M178.87,408.33
		c-0.11,0.31-3.73,0.97-7.77,2.32c-5.51,1.98-10.75,4.65-5.69,0.27c0.93-1.53-4.49-6.94-5.15-8.33l-12.81,4.21
		c-0.48,8.4,1.08,28.53-8.28,29.67c-6.4,3.14-15.01-5.86-7.2-9.93c5.48-1.95,8.35,6.47,2.85,8.24c5.76,1.36,9.51-2.49,10.06-11.02
		c0,0,1.57-35.22,1.57-35.22c0.33-3.62-0.17-5.29-3.4-5.19c-1.84-1.72,3.41-1.6,5.16-2.53c2.31-0.6,3.58-1.87,5.03-1.62
		c0,0,20.08,26.39,20.08,26.39C174.8,408.46,178.54,406.47,178.87,408.33z M205.17,403.07c-5.77,1.31-13.31,2.61-18.96,3.77
		c-4.46,0.61-7.89,3.2-7.06,0.82c1.38-0.98,3.37-1.4,2.6-4.06c0,0-5.65-26.58-5.65-26.58c-0.34-3.79-4.28-1.34-4.57-3.48
		c0.15-0.29,3.77-0.54,7.83-1.4c5.62-1.4,10.96-3.25,5.59,0.38c-2.25,0.35,5.12,26.94,4.93,28.36c0.55,2.61,2.05,3.23,4.76,2.66
		c11.79-1.03,6.84-9.56,11.03-9.79C205.44,397.41,205.22,400.6,205.17,403.07z M234.71,399.74c-7.17,0.79-20.7,1.75-26.67,2.8
		c-0.31-2.16,4.02-1.04,3.17-4.72c0,0-2.83-27.03-2.83-27.03c-0.08-2.73-2.12-2.61-3.72-3.06c-1.56-2.01,2.55-0.6,6.97-1.4
		c5.33-0.58,12.54-1.64,18.08-2.15c0.61,2.36,1.22,4.77,2.17,7.87c-3.94,0.47-0.81-7.31-11.21-5.12c-2.76,0.24-3.98,1.34-3.71,4
		l1.21,11.53c1.64-0.44,8.29-0.04,8.86-2.01c0.64-1.2,0.11-2.87,1.52-2.74c0.33,0.17-0.05,1.97,0.22,4.51
		c0.27,2.55,1.01,4.23,0.73,4.46c-1.37,0.39-1.18-1.4-2.05-2.36c-0.98-1.82-7.39-0.02-9.09-0.13c0,0,1.23,11.73,1.23,11.73
		c0.07,4.54,5.44,2.94,8.43,2.73c5.9,0.19,4.83-8.35,8.17-7.66C235.61,394.59,235.02,397.28,234.71,399.74z M278.98,364.97
		c-1.89,0.7-5.25,0.24-4.95,3.74c0,0-0.66,31.12-0.66,31.12l-3.95-0.08l-22.43-28.28c0,0-0.49,23.02-0.49,23.02
		c-0.42,3.45,2.99,3.19,4.79,3.95c1.18,2.08-1.53,0.42-5.81,0.6c-4.22-0.35-7.05,1.18-5.78-0.84c1.86-0.8,5.38-0.15,5.05-3.74
		c0,0,0.54-25.27,0.54-25.27c-2.01-5.19-12.37-6.65,0.22-5.64c3.9,0.08,5.5-0.34,5.69-0.08l20.64,25.62l0.43-20.4
		c0.46-3.55-3.07-3.18-4.94-3.95c-1.16-2.09,1.63-0.41,5.86-0.59C277.42,364.48,280.22,362.94,278.98,364.97z M307.69,370.53
		c-2.74-0.05-3.49,0.78-3.88,3.41l-3.72,25c-0.59,2.64,1.36,3.05,2.79,3.89c1.06,2.38-3.2-0.17-7.65-0.47
		c-4.34-0.99-9.27,0.13-7.51-1.79c1.57-0.39,3.75-0.1,3.95-2.89c0,0,3.84-25.81,3.84-25.81c0.86-4-2.02-3.97-4.7-4.33
		c-5.96-1.45-5.57,6.14-8.72,5.28c1.08-3.05,1.94-5.72,2.6-8.06c10.03,0.35,27.12,8.1,36.21,1.24c-6.2,0.04-5.46-9.62,0.67-8.66
		c2.99,0.45,4.32,3.03,3.96,5.41C324.11,370.4,314.05,370.8,307.69,370.53z M328.06,409.32c-0.26,0.2-3.58-1.12-7.62-2.08
		c-4.25-1.36-9.21-0.64-7.33-2.43c1.62-0.35,3.73,0.28,4.19-2.54c0,0,6.29-26.44,6.29-26.44c1.32-3.58-3.29-3.04-2.63-5.11
		c0.26-0.2,3.63,1.13,7.67,2.09c5.68,1.14,11.29,1.76,4.88,2.74c-2.15-0.76-7.16,27.54-7.93,28.68
		C324.27,407.73,328.62,407.25,328.06,409.32z M359.14,419.22l-12.84-33.73l-7.42,21.8c-1.44,3.16,1.89,3.94,3.37,5.21
		c0.5,2.33-1.59-0.06-5.72-1.19c-3.91-1.61-7.07-1.01-5.25-2.55c2.01-0.2,5.17,1.48,5.95-2.04c0,0,8.15-23.93,8.15-23.93
		c-0.35-5.59-9.82-10.09,1.92-5.31c3.69,1.26,5.34,1.33,5.45,1.64l11.93,30.66l6.58-19.32c1.51-3.24-1.97-3.96-3.52-5.26
		c-0.48-2.34,1.68,0.1,5.77,1.2c3.92,1.62,7.04,0.99,5.25,2.55c-2.02,0.09-5.07-1.36-5.85,2.07c0,0-10.04,29.47-10.04,29.47
		L359.14,419.22z M405.44,409.22c-3.62-1.61,3.06-6.69-6.99-10.15c-2.49-1.22-4.11-0.89-5.23,1.52l-4.89,10.51
		c1.64,0.46,7.13,4.22,8.64,2.83c1.16-0.7,1.57-2.41,2.71-1.57c0.19,0.32-1.05,1.66-2.14,3.98c-1.08,2.32-1.31,4.14-1.67,4.2
		c-1.37-0.37-0.3-1.8-0.55-3.08c0.09-2.07-6.33-3.82-7.73-4.78l-4.97,10.69c-2.27,3.93,3.16,5.32,5.83,6.67
		c4.9,3.21,8.39-4.65,10.94-2.37c-2.33,2.82-4.22,4.82-5.75,6.77c-6.56-3.01-18.65-9.14-24.32-11.31c0.85-2.01,3.98,1.17,5.14-2.42
		c0,0,11.46-24.64,11.46-24.64c1.33-2.39-0.48-3.33-1.62-4.54c-0.3-2.53,2.5,0.8,6.7,2.38c4.87,2.24,11.6,5.04,16.61,7.44
		C406.94,403.69,406.23,406.07,405.44,409.22z"/>
	<path d="M95.71,74.3c13.1,8.46,16.35,27.36,21.36,39.8c2.3,5.95,0.09,11.86-0.31,17.45c1.67,8.39,10.2-0.19,15.29,0.35
		c34.3-2.89,40.39-54.8,1.27-54.08c1.6-3.08,3.83-6.16,5.24-9.17c4.36-9.78-6.42-19.91-16.59-17.65
		C113.74,52.02,85.52,64.32,95.71,74.3z M127.62,94.33c19.06-14.22,18.83,18.34,5.1,12C128.48,103.46,123.35,98.16,127.62,94.33z
		 M112.66,63.72c11.73-8.86,12.13,7.78,4.04,10.84C112.96,74.48,110.1,66.9,112.66,63.72z"/>
	<path d="M159.52,55.24c3.56,16.68,5.32,32.93,6.21,54.82c0.15,3.88,0.77,6.11,2,7.23c3.51,2.78,12.87,0.37,18.31-0.32l-0.01-0.01
		c2.42-0.54,8.71-1.25,11.05-1.74c12.11-4.44,7.9-22.27,6.85-33.93c-2.52-15.11-12.76-1.69-20.42-0.37
		c-8.61,2.21-12.99-13.15-3.12-13.92c1.78-0.51,4.62,0.45,6.64,0.56c0.74-1.19,0.36-5.44-0.72-5.93
		c-6.66-3.12-12.43,7.11-15.45-5.49c-3.81-10.33,12.54-10.41,18.23-7.67c0.74,0.32,2.04,1.05,2.78,0.3c1.7-2.38-1.27-6.86-2.21-9.59
		c-2.56-6.89-11.13-2.37-16.29-1.42C162,41.47,154.95,41.65,159.52,55.24z"/>
	<path d="M262.96,102.15c43.8,13.94,17.18-7.26,25.65-25.7c2.66-4.4,5.61-1.08,6.74,2.02c8.32,17.23-10.94,34.08,14.65,29.94
		c3.29-0.65,1.86-5.27,2.32-7.78c0.34-7.16,3.09-20.19,9.8-22.92c1.92,0.24,2.57,2.91,2.42,4.51c1.62,10.71-8.33,19.16-6.22,28.37
		c4.29,3.82,13.58,3.57,18.72,3.86c5.91-0.41,4.37-7.46,3.84-12.45c-3.27-21.49,0.45-39.2,7.26-57.04c0.83-1.81,1.58-4.52,0.78-5.68
		c-5.19-4.66-14.57-3.77-21.58-4.69c-4.05-0.17-4.98,0.65-5.51,4.88c-1.22,9.62-4.7,18.76-10.64,27.94
		c-7.52,9.96-10.63-18.46-9.68-23.7c0.26-5.45,3.07-15.48-5.12-15.65c-4.05-1.1-25.96-0.42-23.63,6.75
		c3.2,8.52,2.82,17.75,1.94,26.4C274.73,82.31,255.36,97.76,262.96,102.15z"/>
	<path d="M348.93,120.12c34.33,16.13,16.89-0.13,30.98-17.98c7.94-11.13,61.89-33.31,27.55-44.7c-2.32-0.64-15.89-4.98-16.03-1.6
		c-1.14,6.33-0.3,13.72-2.87,19.47c-1.61,6.21-10.35,12.75-12.5,3.71c-2.52-18.53,26.37-30.05-8.43-34.61
		c-1.72-0.22-2.71,0.13-3.32,2.65c-0.06,18.1,7.58,34.56-4.62,51.27C356.76,103.35,341.19,115.27,348.93,120.12z"/>
</g>
</svg>
