<?xml version="1.0" encoding="utf-8"?>
<!-- Generator: Adobe Illustrator 25.0.0, SVG Export Plug-In . SVG Version: 6.00 Build 0)  -->
<svg version="1.1" id="Layer_1" xmlns="http://www.w3.org/2000/svg" xmlns:xlink="http://www.w3.org/1999/xlink" x="0px" y="0px"
	 viewBox="0 0 500 500" style="enable-background:new 0 0 500 500;" xml:space="preserve">
<style type="text/css">
	.st0{fill:#B51B2C;}
	.st1{fill:#030304;}
	.st2{fill:#020203;}
	.st3{fill:#13110C;}
	.st4{fill:#CE536A;}
	.st5{fill:#F192AC;}
	.st6{fill:#E3748C;}
	.st7{fill:#C0364A;}
	.st8{fill:#EE7289;}
</style>
<path class="st0" d="M376.08,148.01c-12.93-8.04-27.8-2.67-32.59-11.07c-57.12-76.79-148.67,10.72-148.29,97.22
	c-9.94,13.62-3.47,33.89,12.45,39.19c15.3,7.11,40.87-3.04,36.83-22.6c9.49,10.21,21.76,30.31,31.57,36.98
	c6.54,3.69,12.18-6.65,15.42-11.92c0,0,0,0,0,0c10.59-23.8,9.26-31.41,6.04-50.04c-5.37-19.54-20.5-43.33-9.31-62.93
	c6.05-9.75,15.16-12.61,23.16-8.31c8.82,4.74,9.07,19.48,12.98,20.12c2.31,0.38,7.48-4,14.62-5.76c10.73-2.63,24.1-1.08,24.45,17.49
	c0.4,17.32-17.33,22.42-30.89,26.45c-6.29,2.34-12.85,5.95-17.83,10.48c-10.14,8.71-14.06,28.59-0.27,35.95
	c-4.48-2.22,0.58-14.59,2.6-16.92c10.52-12.14,28.61-9.74,42.48-14.49C391.54,218.13,405.34,168.32,376.08,148.01z M240.2,255.76
	c-4.43,24.15-46.92,17.24-45.08-6.95c0.13-11.33,8.88-21.11,20.64-16.31c4.7,1.6,11.76,5.49,14.05,10.71
	c0.37,0.9,1.06,1.2,1.91,0.84C237.88,242.65,240.57,250.9,240.2,255.76z"/>
<g>
	<path class="st3" d="M319.87,330.4c2.45-12.17-9.65-45.5-28.44-54.68c-0.91,1.58-2.26,3.78-2.37,3.95
		c16.29,9.25,27.67,34.02,26.13,50.71c-3.3,2.6-14.32,3.19-18.98,2.76c-1.5-1.77-2.13-7.54-3-10.68
		c-1.38-16.47-1.94-34.19-6.83-39.15c-0.92,0.97-3.68,3.71-3.79,3.82c0.01,0.02,0.01,0.04,0.01,0.05c0,0,0.01,0,0.01-0.01
		c2,5.39,2.9,17.21-0.98,17.7c-1.55,0.06-2.94-2.16-4-1.56c0.25,4.45,5.4,10.59,3.24,16.4c-2.09,10.13-14.64,13.61-22.96,5.88
		c2.27,4.66,1.77,22.29-9.22,23.04c-4.54,0-9.55-3.74-11.63-10.58c-3.68,18.35-20.9,13.79-20.65-5.15
		c-0.71,8.92-7.89,15.82-14.79,11.31c-7.37-5.69-7.2-16.6-5.91-26.59c-2.52,8.88-10.47,23.55-14.17,6.79
		c-2.67-9.87-0.28-21.04,3.15-29.47c-15.44,25.44-13.97-13.43,2.56-22.35c-18.05,6.23-2.02-13.25,3.74-17.68
		c-0.04-0.14-0.5-2.93-0.58-5.54c-7.19,6.17-21.53,19.09-14.11,27.37c-5.11,5.81-13.22,28.71-0.06,31.42
		c-1.53,8.21,0.1,35.17,14.62,27.15c1.73,3.46,2.77,7.75,5.27,10.2c-14.88-2.65-23.79,26.5,13.57,24.43
		c9.38-1.61,15.1-1.95,23.14-5.68c1.24-0.26,0.88-6.68,0.43-11.53c1.19-1,3.44-2.88,4.63-3.88l1.6,1.93
		c-3.17,1.67-7.02,9.44-5.38,13.45c5.03,11.52,26.29,11.21,37.58,7.81c1.77-0.3,9.91-2.16,11.75-3.63c1.21-0.25,0.9-6.36,0.46-11.16
		c3.99-3.1,6.43-8.35,7.8-14.71c2.31,5.19,5.69,6.18,9.92,5.21c2.57,2.99,7.65,2.83,10.45,0.29
		C322.32,351.71,324.84,338.95,319.87,330.4z M223.72,354.68c-4.23,3.15-11.09,1.93-17.08-4.37c3.17-0.03,6.14-1.47,8.42-3.64
		c2,3.46,5.52,6.53,9.24,7.53L223.72,354.68z M283.07,351.64c-1.89,0.6-15.75,4.88-20.3,2.78c2.44-2.43-0.8-9.96-5.98,0.14
		c0,0-1.31-1.08-3.3-2.24c7.74-3.71,9.6-11.94,10.25-18.43c15.04,4.65,26.48-12.4,20.74-25.03c1.02-0.78,1.99-1.59,2.64-2.78
		C288.75,319.78,290.42,342.28,283.07,351.64z M316.69,343.39c-1.93,2.9-6.51-3.04-6.51-3.12c0.59,7.2-7.08,6.82-6.72-1.1
		c-1.05,5.16-8.12,6.55-7.8-1.43c5.86,0.64,17.1-0.24,21.15-2.93C317.87,337.68,318.42,341,316.69,343.39z"/>
</g>
</svg>
