<?xml version="1.0" encoding="utf-8"?>
<!-- Generator: Adobe Illustrator 25.0.0, SVG Export Plug-In . SVG Version: 6.00 Build 0)  -->
<svg version="1.1" id="Layer_1" xmlns="http://www.w3.org/2000/svg" xmlns:xlink="http://www.w3.org/1999/xlink" x="0px" y="0px"
	 viewBox="0 0 500 500" style="enable-background:new 0 0 500 500;" xml:space="preserve">
<style type="text/css">
	.st0{fill:#B51B2C;}
	.st1{fill:#030304;}
	.st2{fill:#020203;}
	.st3{fill:#13110C;}
	.st4{fill:#CE536A;}
	.st5{fill:#F192AC;}
	.st6{fill:#E3748C;}
	.st7{fill:#C0364A;}
	.st8{fill:#EE7289;}
</style>
<g>
	<path class="st0" d="M182.57,271.56c3.27,26.06,53.83,16.29,47.42-10.73c4.97,2.41,9.1,6.12,13.64,5.05c0,0,0.01,0,0.01,0.01
		c1.56-0.41,3.1-1.6,3.34-4.61c0,0,0,0,0,0c-0.01-1.23-0.1-2.58-0.3-4.02c-0.25-1.31-0.41-2.24-0.49-2.87
		c-2.06-10-8.44-23.49-22.31-34.69c-0.7-0.41-4.36-2.89-4.36-2.88c-5.17-2.92-11.77-4.91-18.23-5.39c0-0.02-5.55-0.25-5.54-0.2
		c-11.11,0.55-13.56,0.86-27.46,8.54c-0.01-0.02-3.57,2.31-3.56,2.32c-4.32,3-8.66,6.75-12.33,11.44c-0.85,1.12-1.6,2.22-2.08,2.95
		c0,0,0.01,0,0.01,0.01c-4.34,6.49-7.4,14.45-7.65,24.26c-0.09,3.5,3.03,17.28,6.1,17c2.67,1.48,4.07-5.76,6.2-8.04
		c1.87-1.99,2.18,0.36,3.05,2.54c0.88,2.2,0,4.11,0.25,6.99c0,2.49-0.56,4.86-0.98,7.5c3.11,0.94,6.4,1.47,6.87,1.54
		C172.47,288.85,180.1,277.6,182.57,271.56z M188.41,268.58c1.91-14.42,27.68-22.24,35.32-8.28c7.42,17.08-22.61,27.52-33.17,16.22
		C188.39,274.49,187.79,271.4,188.41,268.58z"/>
	<path class="st0" d="M354.43,106.17c-5.61,2.66-10.9,6.24-14.77,11.12c-7.17-12.27-20.9-21.51-34.88-23.85
		c-25.59-1.35-35.14,31.15-26.78,51.24c9.08,26.25,31.92,43.81,53.43,59.63c13.36-7.11,27.51-12.63,39.45-22.28
		c19.56-14.66,38.85-39.74,28.06-65.28C391.32,97.4,370.46,97.47,354.43,106.17z"/>
</g>
<g>
	<path class="st3" d="M214.31,294.32c-8.28,7.87-26.65,5.45-28-7.43c-0.4-2.21-3.9-1.93-3.5,0.29c0.54,2.97,1.54,5.63,3.05,7.87
		c-9.48,17.45,9.68,23.95,15.51,7.18c5.73,0.18,11.34-1.45,15.59-5.61C218.58,295.04,215.91,292.75,214.31,294.32z M194.04,307.54
		c-7.83,3.69-8.87-3.29-5.79-9.68c0.82,0.73,1.74,1.36,2.76,1.91c-0.4,1.41-3.42,4.97-1.04,6.01c2.3,1.2,3.23-3.53,4.09-4.71
		c1.26,0.42,2.58,0.65,3.89,0.86C197.11,304.05,195.83,306.3,194.04,307.54z"/>
	<path class="st3" d="M410.69,111.66c-11.54-32.29-50.74-25.95-70.31-5.14c-54.19-71.92-132.19,26.04-18.86,100.92
		c-4.92,0.47-10.01,2.83-12.34,7.34c-1.99,3.43-1.67,8.6,2.73,9.79c-13.09,14.12-18.19,33.23-24.76,50.85
		c-0.01,0.01-0.02,0.03-0.02,0.04c-3.05,0.6-5.95,1.74-8.3,2.86c-1.91-0.14-20.64-1.53-21.92-1.63c-2.61-4.87-4.63-12.22-9.93-15.5
		c0,0,0,0,0,0c0,0.02,0,0.05,0,0.08c0,0,0,0,0,0c-0.24,2.93-1.7,4.13-3.22,4.57c6.26,3.06,7.77,22.99,15.99,16.69
		c0.34,2.77-2.73,5.43-7.36,4.78c2.3,3.48,5.44,7.22,6.81,11.58c1.33,4.19,3.74,7.01,5.59,9.06c-1.34,0.02-3.5,0-5.4-0.68
		c3.08,8.78,8.43,6.72,12.76,18.36c1.67,5.53,4.9,7.84,4.9,7.84c-2,0.17-4.88,0.05-7.11-2.33c0,0.01,0,0.02-0.01,0.03l0.01,0.04
		c-1.13,3.94-3.21,13.79,3.73,10.02c-1,2.84-5.71,2.69-7.58-0.43c-5.3,8.37-8.99,18.27-6.92,26.35c-4.06-1.28-5.55-4.03-6.08-6.25
		c-3.19,9.09,7.97,15.81,14.47,9.47c-4.43,6.25-14.2,10.1-21.87,2.77c0.35,3.16,2.31,5.79,7.03,7.09
		c13.67,5.46,28.73-13.28,29.66-15.92c-2.9,24.14-26.1,33.57-54.19,27.63c3.7,2.02,7.37,3.2,7.37,3.2
		c-13,1.57-24.71-5.05-30.19-15.99c-3.61,4.73,0.32,12.47,3.01,16.76c-10.73-4.4-18.84-17.22-17.88-24.78
		c-8.67,11.38-30.69,12.47-32.44-0.09c5.09,5.47,15.09,8.61,17.2-4.95c-9.5,3.11-19.52,3.48-28.31-2.29
		c5.67,2.33,13.16-10.17,13.06-19.13c0.26-3.9-0.76-7.93-1.3-11.6c-1.47,3.01-4.19,4.61-7.05,4.48c7.47-4.07,0.02-17.53,7.09-22.84
		c-2.88,1.59-6.84,0.17-7.32-3.08c9.43,4.96,3.63-17.83,11.96-23.51c-1.24-0.22-3.72-0.69-6.12-1.41c0,0,0,0,0,0
		c-0.04-0.01-0.08-0.02-0.11-0.04c-4.44,4.62-4.47,14.88-5.38,19.34c-2.62-0.23-5.21,1.7-5.76,4.26c-2.31,1.3-13.4,8.48-16,8.29
		c-15.72,6.12-14.97,15.42-9.08,21.01c-1.75,4.97,2,10.58,6.9,11.78c2.72,15.52,20.69,5.59,24.83-3.87l1.43-0.54
		c-0.67,5.02-4.59,12.85-7.16,11.24c-5.38-0.2-7.77,7.51-3.09,10.35c2.72,1.79,5.63,3.14,8.71,4.05
		c0.75,10.39,18.47,17.16,30.4,10.89c-0.84,3.32-2.64,4.44-4.55,7.44c-13.11-12.04-38.24-1.74-26.37,18.84c0,0,0.73,6.76,27.78,5.14
		c9.12-0.55,16.59-2.11,21.71-3.5c2.47-0.16,4.84-0.7,7.57-2.46c1.14-0.12,1.01-3.57,0.47-7.61c2.38-0.37,4.33-2.55,4.45-4.94
		c1.02,0.59,2.13,1.15,3.3,1.66c-0.89,5.27-1.47,10.74-0.03,10.89c2.72,1.76,5.1,2.3,7.57,2.46c5.12,1.39,12.59,2.95,21.71,3.5
		c27.05,1.63,27.78-5.14,27.78-5.14s6.99-11.43-0.5-19.26c16.15-15.41,18.32-30.9,8.59-32.07c-6.11,0.94-3.95,3.57-9.83,9.38
		c-1.41-2.88-5.28-3.95-7.96-2.23c-1.08-5.01,0.49-12.08,3.55-16.85c6.04,1.65,13.09-4.19,10.59-9.9c4.24-1.26,5.26-7.44,1.56-9.93
		c0,0,0,0,0,0c0.01,0-1.76-1.48-2.79-4.89c-1.46-4.84-4.66-8.85-6.6-10.97l7.89,0.48c2.58,1.36,5.51,1.83,8.16,2.12c0,0,0,0,0,0
		c-1.67,6.6,0.47,14.41,3.68,20.11c6.78,15.3,29.43,14.61,32.47,30.7c1.29,6.94-5.52,14.89-12.69,11.87
		c-4.72-1.98-6.07-9.82-1.01-12.18c1.66-0.69,3.61,0.17,3.77,2.13c0.14,1.74,2.63,2.82,3.56,0.97c2.38-4.73-2.52-9.18-7.25-8.28
		c-9.08,1.75-9.05,14.12-2.52,18.93c6.85,5.35,17.47,0.45,20.19-7.19c1.64-4.52,0.69-9.9-1.6-14.01
		c-11.67-17.17-33.68-9.94-35.73-42.92c0.01-0.01,0.01-0.01,0.02-0.02c10-0.71,12.79-6.86,11.25-13.3c4.26-3.1,4.28-9.96,0.91-13.64
		c4.36-6.96-2.73-13.89-10.02-13.73c0,0,0,0,0,0c0,0,0,0,0,0c0,0,0,0,0,0c6.12-17.34,12.49-34.66,23.15-49.8
		c5.17,0.37,10.03-2.77,12.77-6.93c0.65,4.69,5.91,9.55,10.8,7.6c5.61-3.37,2.54-12.06-1.27-15.68
		C375.65,194.39,426.61,159.32,410.69,111.66z M136.34,353.73c-5.34,0.42-1.66-9.52-1.55-9.58c-7.49,5.68-12.87-3.02-3.49-8.37
		c-10.8,2.44-11.11-7.69-1.35-11.09c0.38,1.37,1.09,2.62,2.33,3.37c3.06,1.88,10.96,8.2,10.65,14.7c-0.08,2,0.91,4.1,2.72,5.03
		C143.27,350.87,140.07,353.73,136.34,353.73z M149.63,326.67c0.58,6.82-0.13,4.25-2.95,8.42c-3.65-7.01-10.84-11.44-11.47-11.86
		c3.55-2.1,8.44-5,12-7.11c0.72,1.19,1.67,2.27,2.88,3.11C149.55,321.6,149.43,324.08,149.63,326.67z M280.09,307.77
		c0.02,0.03,0.08,0.18,0.08,0.18c-2.7-0.16-7.16-0.44-9.84-0.6c-0.61-4.03-4.28-4.99-5.73-10.07c-0.59-1.97-1.63-4.17-3.1-6.57
		c2.52-1.94,3.76-4.9,3.83-7.73c4.35,0.32,10.57,0.78,14.89,1.1C273.62,292.87,279.66,306.82,280.09,307.77z M292.24,290.88
		c9.09-0.61,9.28,9.64-1.81,8.89c9.42,3.27,6.03,12.69-5.1,9.93c0.45-1.34,0.56-2.77-0.04-4.09c-1.48-3.27-4.47-12.94-0.57-18.14
		c1.23-1.65,1.47-3.84,0.62-5.71C296.06,278.15,302.68,284.26,292.24,290.88z M321.06,219.82c-9.83,4.97-12.39-2.95-3.24-7.3
		c3.14-1.24,6.51-0.96,9.78-1.3c0.19,0.11,0.37,0.22,0.55,0.32C326.47,214.73,324.19,217.98,321.06,219.82z M337.97,219.05
		c0.83,8.24-9.52,0.95-6.59-6.61c0.72-0.23,1.43-0.5,2.14-0.75C335.79,213.5,337.53,216.15,337.97,219.05z M374.47,183.91
		c-13.25,10.7-28.94,16.82-43.75,24.71c-23.86-17.55-49.18-37.02-59.25-66.13c-9.26-22.28,1.32-58.32,29.7-56.83
		c15.51,2.6,30.73,12.85,38.69,26.45c4.3-5.41,10.16-9.39,16.38-12.33c17.78-9.64,40.91-9.72,49.35,11.75
		C417.55,139.85,396.16,167.66,374.47,183.91z"/>
</g>
</svg>
