<?xml version="1.0" encoding="utf-8"?>
<!-- Generator: Adobe Illustrator 25.0.0, SVG Export Plug-In . SVG Version: 6.00 Build 0)  -->
<svg version="1.1" id="Layer_1" xmlns="http://www.w3.org/2000/svg" xmlns:xlink="http://www.w3.org/1999/xlink" x="0px" y="0px"
	 viewBox="0 0 500 500" style="enable-background:new 0 0 500 500;" xml:space="preserve">
<style type="text/css">
	.st0{fill:#B51B2C;}
	.st1{fill:#030304;}
	.st2{fill:#020203;}
	.st3{fill:#13110C;}
	.st4{fill:#CE536A;}
	.st5{fill:#F192AC;}
	.st6{fill:#E3748C;}
	.st7{fill:#C0364A;}
	.st8{fill:#EE7289;}
</style>
<g>
	<path class="st0" d="M270.18,196.64c-9.45-17.3-27.88-29.22-47-32.93c-23.74-3.57-47.5,12.11-56,34.12
		c-17.08,43.1,17.31,86.66,57.31,100.49c15.53,7.64,32.28,14.08,45.68,25.24c17.7-14.32,39.88-21.73,60.01-31.93
		c30.89-15.3,53.91-50.24,45.66-85.32C362.06,151.72,296.22,150.97,270.18,196.64z M362.23,216.63
		c-8.5-25.09-37.84-35.72-37.84-35.72l5.1-5.95C364.36,186.44,362.23,216.63,362.23,216.63z"/>
	<path class="st0" d="M124.7,162.91c-14.09-16.75-72.76,6.49-78.06,47.49c-1.13-0.14-2.32,0.23-3.27,0.81
		c-2.77-0.59-5.71,1-6.73,3.65c-4.49,1.07-6.2,6.54-3.78,10.43c-1.47,2.91-0.47,7.18,2.27,9.15c0.32,1.79,1.69,3.28,3.32,4.07
		c0.9,1.5,2.51,2.46,4.36,2.47c1.4,0.94,3.39,1.03,4.89,0.25c1.99,0.28,4.17-0.49,5.54-1.91c1.5-0.05,2.78-0.92,3.66-2.07
		c3.43-0.31,6.58-3.58,5.6-7.18c1.26-2.21,0.76-4.72-0.36-6.46c0.36-1.27,0.43-2.68,0.03-3.98c9.38-6.4,12.26-12.24,23.35-14.73
		c3.33-0.91,2.09-6.16,4.15-8.5c-1.29,4.16-0.16,12.76,0,14.72c1.1,8.57,1.34,17.9,1.97,26.58c0.04-0.01,0.07,0.01,0.11,0.02
		c1.47,5.28-0.11,5.62-0.3,9.83l0.04,2.42c0,0,0.1,2.13,0.76,3.22c0.84,2.03,2.69,2.53,4.65,2.18c0,0,0-0.01,0-0.01
		c0,0,1.93-0.49,3.12-1.05c0,0,0,0.01,0,0.01c0,0,0.01,0,0.01,0c4.47-1.83,7.66-6.03,10.35-9.61c3.55,14.52,31.46,11.91,30.97-3.69
		c3.54,3.34,6.47,8.31,10.46,11.35c0,0,0,0,0,0c0.07,0.05,1.42,0.94,3.05,0.35c0,0,0,0.01,0,0.01c0,0,0.01,0,0.01,0
		c1.12-0.5,1.99-1.75,2.54-3.52c0,0,0-0.01,0-0.01c0,0,0,0-0.01,0c0.02-0.08,0.54-2.46,0.59-3.48c0,0,0,0,0.01,0
		C156.49,218.81,148.9,180.98,124.7,162.91z M55.43,234.12c-0.58,0.97-2.04,3.09-3.35,1.75c-0.92,1.82-3.05,2.95-5.01,2.07
		c-0.77,1.05-2.8,1.04-3.18-0.29c-1.26,0.73-2.92,0.01-3.13-1.57c-1.55-0.19-3.2-1.76-2.53-3.35c-2.94-0.91-4.2-5.46-1.59-7.38
		c-3.09-2.66-2.11-8.51,2.6-7.58c-0.51-2.69,2.66-4.7,4.82-3.03c0.44-0.78,1.37-1.41,2.33-1.31c-0.82,10.66,5.56,11.85,12.92,7.93
		c0.04,0.95-0.15,1.88-0.67,2.67c0.83,0.92,1.59,1.94,1.57,3.25c-0.01,0.94-0.48,1.67-1.13,2.26
		C60.82,231.99,58.09,234.89,55.43,234.12z M137.98,239.58c2.86,12.74-20.78,16.03-24.53,4.9
		C112.03,232.43,134.23,228.26,137.98,239.58z"/>
	<path class="st0" d="M465.81,206.95c-7.92-28.22-39.45-30.56-43.65-30.29c-39.95,3.29-41.56,43.31-37.82,52.67
		c0,0,0.4,1.73,3.5,1.94c0.02,0,0.03,0,0.05,0c0,0,0,0,0,0.01c1.23-0.03,3-1.01,4.11-2.24c1.27-0.74,4.36-2.6,7.08-4.72
		c4.01,15.7,30.65,17.14,37.29,3.21c5.88,3.73,9.54,4.58,14.25,6.07c0,0,0.52,0.12,1.25,0.17c0.74,0.04,1.69,0.01,2.52-0.3
		c0,0.01,0,0.01,0,0.02c0.02-0.01,0.03-0.01,0.05-0.02c1.01-0.41,1.8-1.2,2.24-2.51c2.11-6.97-1.03-8.55-0.63-11.71
		c0.24-1.92,0.01-3.88,1.89-2.65c2.15,1.4,4.73,6.94,6.53,5.22C466.95,221.43,466.6,209.74,465.81,206.95z M402.65,221.32
		c1.43-14.59,25.78-12.87,29.99-1.12C437.72,237.8,401.97,237.18,402.65,221.32z"/>
</g>
<path class="st3" d="M109.98,277.82c-0.02,0.01-0.04,0.06-0.06,0.12L109.98,277.82z"/>
<path class="st3" d="M399.49,267.29c-0.02,0.02-0.03,0.05-0.04,0.09L399.49,267.29z"/>
<g>
	<path class="st3" d="M157.44,249.2c2.32-0.81,4.61-1.93,6.16-3.49c0.76-0.71,1.89-1.9,2.91-2.79c-0.36-1.03-0.7-2.07-1.01-3.11
		c-1.71,1.29-4.7,4.95-7.43,5.88c-0.01,0.01-0.02,0.01-0.04,0.02c0,0,0,0.01,0,0.01C157.98,246.73,157.47,249.07,157.44,249.2
		C157.44,249.2,157.44,249.2,157.44,249.2z"/>
	<path class="st3" d="M128.08,256.78c0.75-0.74-0.49-1.8-1.23-1.07c-3.84,3.65-12.36,2.53-12.99-3.44
		c-0.24-0.76-1.25-0.92-1.53-0.23C112.34,259.72,123.37,261.61,128.08,256.78z"/>
	<path class="st3" d="M171.88,254.81c-4.37,4.32-12.42,8.57-18.21,9.51c0.91-3.69,1.48-8.03,1.22-11.58c0,0-0.01-0.01-0.01-0.01
		c-1.68,0.6-3.06-0.35-3.06-0.35c0,0,0,0,0,0c0,0,0,0,0,0c0.76,5.67-2.26,16.6-3.86,21l-0.05-4.89c0.1,6.24-6.81,17.1-10.55,16.86
		c0,0,2.46-2.08,2.4-5.26c-6.3,9.77-12,16.49-12.14,29.75l-1.18-2.39c-1.21,1.13,1.13,12.69,1.48,13.12
		c-3.9-3.76-10.86-13.56-12.15-21.29c0.14,1.31,0.32,3.03,0.46,4.34c-5.13-3.23-6.8-23.88-6.31-25.67l-2.51,4.95
		c0.08,0.12,0.94-11.1-1.39-15.91c-0.14,1.41-0.53,5.42-0.67,6.88c-4.39-4.41-6.56-12.77-5.31-19.54c-1.19,0.56-3.11,1.04-3.11,1.04
		c0,0,0,0-0.01,0c-0.35,4.06-0.34,8.29,1.17,12.07c-8.53,0.02-19.7-4.54-24.59-10.4c-0.83-0.87-1.3-1.45-1.3-1.45
		c0.07-2.03,5.75-7.73,6.91-8.41c4.57,2.04,6.76,5.52,13.15,6.01c-0.66-1.09-0.76-3.22-0.76-3.22c-4.2-0.33-8.27-4.39-10.53-5.39
		c-2.54-4.23-7.17-5.71-9.95-1.88c-2.27-0.13-4.3,1.81-4.64,3.98c-5.75,2.7-1.93,9.2,3.6,11.01c1.73,3.27,13.77,11.87,23.63,12.41
		c-1.08,12.72-5.7,33.93,2.02,32.88c0.01,0,0.32-0.05,0.93-0.08l0.67,4.42l0.95,0.07c-0.04,1.18-1.06,2.3-0.87,3.23
		c0,0-0.01,0.01-0.01,0.01c-4.32-4.95-13.05-1.84-9.79,5.65c0,0-0.01,2.43,9.36,2.91c3.16,0.16,5.79-0.1,7.6-0.39
		c0.85,0.04,5.34-0.07,6.35-0.58c0.47,0,0.51-1.75,0.42-3.55c1.13-0.37,3.59-5.08,4.3-5.97l0.32,0.02
		c1.24,4.08,9.18,13.38,9.82,13.92c0.95,1.04,2.48,1.29,3.7,0.62c3.38-2.5,0.37-5.15-0.09-10.84c2.22-1.74,1.43-5.28,2.03-8.75
		l5.68,5.38l1.41-0.21c0.73,0.92,3.13,5.54,4.28,5.94c-0.09,1.8-0.05,3.55,0.42,3.55c1,0.52,5.49,0.62,6.35,0.58
		c1.81,0.29,4.44,0.55,7.6,0.39c9.36-0.48,9.36-2.91,9.36-2.91c3.26-7.47-5.44-10.62-9.79-5.65c0,0-0.01-0.01-0.01-0.01
		c0.05-1.45-1.23-2.6-0.84-4.51l1.92-0.29l0.17-3.81c3.51-1.27,4.61-1.13,4.84-4.17c-0.25-5.49-2.59-21.71-6.02-31.2
		c6.01-1.22,12.33-5.39,16.69-9.34C172.85,256.54,172.36,255.68,171.88,254.81z M69.46,254.15c-1.41-0.79-2.7-1.92-2.88-3.46
		c-0.37-1.76,3.34-1.34,3.93-1.18c-3.03-2.87,0.44-5.52,3.24-2.11c-1.33-2.07,0.35-5.89,3.57-2.66c-0.05,0.03-0.1,0.05-0.15,0.09
		l-0.01-0.01C76.35,245.09,69.48,252.12,69.46,254.15z M94.89,300.01c-1.06-2.91-0.09-17.17,1.72-29.62
		c0.92,0.12,1.84,0.1,2.76,0.01c2.78,4.52,2.9,5.33,5.23,6.41c0.44,4.07-1.95,8.25,2.64,9.12c0.47,4.54,1.36,10.41,3.35,14.69
		C105.1,300.97,100.01,299.33,94.89,300.01z M110.54,310.84c-1.56,0.14-7.69,0.61-9.48-0.77c0.69-0.52,0.86-1.14,0.08-1.69
		c0.03-0.24,0.04-0.5,0.05-0.78l10.9,0.82L110.54,310.84z M143.37,310.96l-1.68-2.63l11.02-1.66c-0.01,0.7,0,1.32,0.06,1.83
		c-0.78,0.56-0.61,1.17,0.08,1.69C151.06,311.57,144.93,311.1,143.37,310.96z M159.67,298.22c0,0-0.6,0.28-1.67,0.65
		c-7.69,2.74-17.54,2.43-26.35,1.76c1.29-4.3,4.04-8.51,6.37-12.31c1.77,0.49,9.04-5.32,11.15-12.16c2.48-1.69,1.78-2.61,3.71-8.58
		c0.28-0.04,0.55-0.1,0.82-0.15C157.09,276.63,159.49,293.21,159.67,298.22z"/>
	<path class="st3" d="M476.41,262.12c-0.79-5.06-10.31-19.61-21.63-24.94c-0.05-1.29-0.17-2.51-0.36-3.69c0,0,0-0.01,0-0.01
		c-0.84,0.3-1.79,0.33-2.53,0.28c-0.58-0.03-1.04-0.12-1.21-0.15c0,0.01-0.01,0.01-0.01,0.01c2.12,5.9-3.43,26.57-4.46,28.19
		l-0.06-6.01c0.02,7.8-8.18,20.85-12.97,20.73c0,0,3.02-2.56,2.95-6.47c-3.65,6.09-12.98,17.99-14.04,27.22
		c-0.08,3.34-1.05,9.3-0.89,9.38l-1.46-2.94c-1.45,1.97,1.26,14.85,1.82,16.14c-4.99-4.93-13.17-16.3-14.94-26.19
		c0.16,1.53,0.4,3.82,0.56,5.33c-6.42-4.19-8.4-29.78-7.73-31.64l-3.12,6.15c0.46-1.75,0.61-15.72-1.71-19.57
		c-0.15,1.54-0.69,7.02-0.83,8.46c-8.36-9.04-7.27-19.67-5.88-31.13c0,0,0-0.01,0-0.01c0,0-0.01,0-0.01,0c-0.01,0-0.02,0-0.04,0
		c0,0,0,0,0,0c-2.62-0.16-3.33-1.41-3.5-1.81c-0.35,3.03-0.73,6.86-0.98,10.8c-2.51,0.1-5.53-1.18-8.07-2.35
		c-0.31,1.19-0.65,2.38-1.03,3.56c2.82,1.28,5.78,2.71,8.91,2.52c-0.52,6.35,2.14,12.67,4.52,16.39
		c-7.02,0.08-13.88-2.08-19.36-5.15c-0.59,1.07-1.2,2.13-1.84,3.17c5.9,3.05,14.96,6.5,21.51,5.66c-2.37,7.98-3.95,26.54-4.12,29.13
		c0.1,3.31,1.83,3.78,5.33,4.61c0.32,2.94,0.45,5.45,0.32,6.5c-0.78,1.12-1.02,2.14-1.05,3.02c-0.05,0.06-0.09,0.09-0.13,0.14
		c0,0-4.92-5.01-10.16-2.19c-5.24,2.82-2.25,9.14-2.25,9.14s-0.01,2.99,11.87,3.58c4.01,0.2,7.34-0.12,9.64-0.48
		c1.08,0.05,6.78-0.08,8.05-0.72c0.6,0,0.64-2.17,0.53-4.39c1.09-0.48,2-2.31,2.66-3.23c2.38,4.68,10.02,13.23,10.07,13.21
		c1.16,1.28,3.05,1.58,4.55,0.77c4.13-2.98,0.47-6.38-0.11-13.33c2.59-1.79,1.84-6.7,2.49-10.73c0.01,0,0.02,0,0.03,0
		c0.69,0.77,8.26,13.28,9.22,13.18c-0.11,2.22-0.07,4.39,0.53,4.39c1.27,0.64,6.97,0.77,8.05,0.72c2.3,0.36,5.63,0.68,9.64,0.48
		c11.88-0.59,11.87-3.58,11.87-3.58s2.99-6.32-2.25-9.14c-5.25-2.82-10.16,2.19-10.16,2.19c-0.05-0.06-0.09-0.09-0.13-0.14
		c-0.61-3.21-1.6-3.26-0.88-7.97c5.7-1.11,4.83,0.48,7.76-1.93c2.43-1.01-3.49-25.51-3.33-27.5c0.71,1.03,1.3,1.74,1.85,2.32
		c2.08,8.48,6.65,8.89,10.56,6.71c2.49,1.16,5.77-0.14,7.11-2.47c2.47,0.09,4.56-1.4,5.18-3.74
		C481.66,269.24,480.04,265.56,476.41,262.12z M388.73,293.82c-0.67-0.19-1.1-0.32-1.1-0.32c0.1-1.71,1.69-20.69,3.93-28.13
		c0.4,0.3,0.84,0.55,1.32,0.67c0.54,5.02-2.4,10.14,3.25,11.21c0.59,5.72,1.72,13.22,4.36,18.53
		C395.72,295.35,392.62,294.85,388.73,293.82z M405.18,307.75c-1.98,0.18-9.76,0.75-12.02-0.94c0.87-0.64,1.1-1.39,0.1-2.08
		c0.17-1.5,0.04-3.84-0.18-6.13c2.61,0.47,5.88,0.91,9.74,1.11c1.47,1.83,1.64,1.99,2.62,2.61c0.38,0.98,0.86,2.02,1.32,3.05
		L405.18,307.75z M435.84,307.62l-5.53-8.38c6.02,0.23,11.89,1.38,17.52,0.56c-0.14,1.83-0.2,3.58-0.06,4.79
		c-1,0.69-0.77,1.44,0.1,2.08C445.6,308.37,437.82,307.79,435.84,307.62z M456.5,294.93c-1.91-0.08-9.72,1.49-12.77,1.43
		c-4.23,0-11.01-0.9-17.58-0.99c1.6-5.34,4.96-10.47,7.84-15.16c2.13,0.63,11.14-6.56,13.71-14.96c2.26-1.33,1.78-1.78,2.97-4.98
		L456.5,294.93z M456.81,264.06c-2.51-4.05-4.4-5.45-5.49-5.95c1.2-4.07,3.12-11.7,3.39-16.56c8.7,4.8,15.9,14.15,18.22,21.98
		c-0.96,2.27-10.11,6.29-11.7,6.52C460.05,269.51,457.93,265.72,456.81,264.06z M472.12,271.23c2.18,4.52-2.9,6.24-4.66,0.95
		c0.55,2.95-2.96,6.62-5.27,1.45c1.63-0.07,11.98-4.77,13.21-7.24c-0.41-0.5-0.84-0.96-1.28-1.38c0.56-0.59,0.78-1.18,0.6-1.94
		c0.6,0.54,1.18,1.08,1.66,1.63c-0.23,0.76-0.36,1.01-0.99,1.69C479.13,271.13,477.07,274.63,472.12,271.23z"/>
</g>
</svg>
