<?xml version="1.0" encoding="utf-8"?>
<!-- Generator: Adobe Illustrator 25.0.0, SVG Export Plug-In . SVG Version: 6.00 Build 0)  -->
<svg version="1.1" id="Layer_1" xmlns="http://www.w3.org/2000/svg" xmlns:xlink="http://www.w3.org/1999/xlink" x="0px" y="0px"
	 viewBox="0 0 500 500" style="enable-background:new 0 0 500 500;" xml:space="preserve">
<style type="text/css">
	.st0{fill:#B51B2C;}
	.st1{fill:#030304;}
	.st2{fill:#020203;}
	.st3{fill:#13110C;}
	.st4{fill:#CE536A;}
	.st5{fill:#F192AC;}
	.st6{fill:#E3748C;}
	.st7{fill:#C0364A;}
	.st8{fill:#EE7289;}
</style>
<path class="st3" d="M453.53,380.59c-8.52-20.62-30.58-7.85-29.14,8.82c-6.3-0.49-9.33,0.65-10.67,2.09l-1.89-0.43
	c6.37-1.04,10.65-6.24,12.27-9.47c2.52-4.65-3.4-9.81-7.67-6.74c-0.42-5.49-0.29-10.42-3.17-17c1.4-0.18,2.76-0.95,4.1-1.35
	c-5.71-3.07-10.37-6.98-13.18-9.61c0,0,0,0,0,0c0,0,0,0,0,0c-1.62,0.03-4.16,0.01-6.28-0.64c1.09,4.17,4.01,4.72,6.87,7.96
	c10.51,9.58,1.2,32.31,14.61,25.02c-0.27,1.65-7.06,9.13-13.03,6.21c-2.13-0.73-3.72-2.88-3.81-4.94c-1.77,2.42-3.93,4.68-5.5,7.2
	c-5.78,9.66,2.52,13.64,7.8,10.73c-2.74,6.19-14.95,7.84-18.35-0.89c-3.12,7.75,3.61,16.29,11.28,13.45
	c-7,7.6-19.87,0.78-22.21-2.06c-4.77,8.19-0.12,14.25,7.2,13.81c-9.75,3.96-21.37,0.65-32.73-3.99c-0.65,5.17,6.2,10.23,10.28,10.71
	c-21.08,7.61-35.93-6.82-37.3-14.74c-5.66,4.14,0.66,18.63,0.73,18.68c-18.31-9.13-22.59-25.33-22.32-31.18
	c-1.37,10.2-5.56,13.17-15.89,16.05c-11.75,4.17-14.8-8.56-14.07-11.48c-0.19,0.67,1.51,6.05,5.16,4.21
	c4.27-1.61,3.65-10.7,4.59-15.34c-4.47,5.58-11.62,4.26-15.09-2.84c3.97,3.9,9.63-0.63,11.44-8.07c2.49-8.76-2.8-15.89-2.42-20.47
	c-2.27,2.85-6.73,2.76-8.42,1.6c9.06-1.95,2.34-19.79,12.83-23.58c-4.69,1.03-8.06-2.46-7.62-4.52c3.05,2.46,9.43,1.83,12.14-5.63
	c0,0,0.12-15.77,6.3-23.72c0.06-0.1,0.13-0.23,0.2-0.37c-1.44-1.42-2.75-2.87-3.77-4.05c-0.03-0.03-0.06-0.07-0.09-0.11
	c-0.01,0-0.02,0-0.03,0c-5.95,8.32-8.14,23.06-7.87,27.33c-2.83,4.76-3.7,1.19-6.9,1.19c-6.43,0.32-6.65,8.29-2.23,12.31
	c-2.41,2.68-2.01,14.89-4.07,16c-8.57,3.22-2.86,12.65,5.74,11.16c1.42,4.24,2.78,9.05,0.36,13.67l-14.02,1.9
	c-1.33-1.45-4.24-2.72-10.21-2.79c0,0,1.76-14.92-9.97-19.88c-11.74-4.97-18.27,8.5-18.27,8.5c-6.5,3.89,18.64,39.49,29.47,44.78
	c3.37,1.62,14.24-12.96,17.88-12.59c-2.23,7.5,4.76,19.75,14.4,18.76c6.44-0.2,14.82-3.35,19-6.99c3.5,7.03,11.79,17.89,23.77,21.44
	c3.99,0.16,6.64-4.71,4.54-8.05c4.81,3.62,11.19,6.11,19.24,6.11c5-0.67,18.17,0.3,18.04-7.77c7.55,1.34,26.11,2.13,21.56-9.19
	c6.05,0.77,19.02-3.58,15.06-11.65l4.28,1.7c2.24,2.71,12.12,14.43,13.73,12.74C431.53,418.15,459.6,385.17,453.53,380.59z"/>
<g>
	<path class="st0" d="M279.3,152.96c55.31-82.02-56.44-158.81-99.68-62.94c-12.73-15.84-33.6-24.6-53.69-24.89
		c-24.75,0.68-46.02,20.92-50.65,44.8c-9.52,46.85,33.31,84.83,76.42,91.6c17.15,4.94,35.32,8.43,50.95,17.33
		C224.52,192.85,260.14,181.63,279.3,152.96z"/>
	<path class="st0" d="M272.21,192.49c13.49,16.43,46.96-0.59,40.49-21.44c-2.98-10.33-15.32-13.36-24.61-10.5
		C274.35,162.53,263.62,180.22,272.21,192.49z"/>
	<path class="st0" d="M307.99,225.31c16.85,4.65,26.77-22.41,7.58-25C303.04,199.05,294.54,220.51,307.99,225.31z"/>
	<path class="st0" d="M298,290.81c15.93,12.76,45.66,9.89,53.64-10.89c7.84,14.21,13.52,27.67,28.8,35.75
		c-2.03,6.18,6.53,7.93,8.35,12.5c-0.3,4.18,4.54,8.8,8.77,7.5c0.27,3.01,2.06,6.12,3.77,8.31c0.12,0.13,1.08,1.2,2.73,2.75
		c0.11,0.07,0.22,0.12,0.3,0.15c-0.04,0-0.09,0-0.14,0c2.81,2.64,7.49,6.55,13.21,9.62c0.33-0.1,0.65-0.19,0.98-0.23
		c0.58-0.77,1.73-0.87,2.48-1.46c4.52,1.46,10.98,1.6,14.29-2.38c4.51-0.81,7.63-5.25,6.78-9.6c2.56-5.14-4.01-16.44-9.55-17.1
		c-4.21-3.1-8.85-2.12-12.47,0.65c-3.5,0.7-6.56,3.72-8.39,6.71c-1.84-0.64-0.61-2.57-0.46-3.92c2.75-9.16,8.44-21.42,6.69-37.04
		c-0.3-46.33-62.75-73.38-101.66-52.57c-23.76-7.53-37.64,23.23-26.58,41.59c-3.39,5.21-5.14,17.55-2.72,22.69
		c-0.01,0.02-0.03,0.04-0.04,0.06c1.04,1.21,2.4,2.71,3.89,4.18C292.06,305.43,296.2,294.76,298,290.81z M418.6,333.87
		c0.14-1.97,2.3-2.63,3.98-2.24c0.98-2.71,6.41-3.7,7.28-0.46c2.09-0.98,4.34,0.77,3.9,3.02c1.54-0.01,2.66,1.78,1.92,3.13
		c2.13,0.7,2.24,3.81,0.15,4.7c2.82,2.71-0.81,6.25-3.99,5.29c-0.09,2.45-3.39,3.87-5.36,2.46c5.07-7.71-4.7-11.28-10.1-14.26
		C416.68,334.49,417.56,333.99,418.6,333.87z M291.54,261.42c1.67-12.76,12.71-21.24,25.31-16.13c6.86,2.5,14.21,6.54,17.56,13.38
		c0.74,2.11,2.54,0.74,4.05,0.74c6.48,0.59,8.85,8.22,8.94,13.8c0.3,5.77-3.41,11.14-7.98,14.33
		C320.58,302.23,285.88,287.02,291.54,261.42z"/>
</g>
</svg>
