<?xml version="1.0" encoding="utf-8"?>
<!-- Generator: Adobe Illustrator 25.0.0, SVG Export Plug-In . SVG Version: 6.00 Build 0)  -->
<svg version="1.1" id="Layer_1" xmlns="http://www.w3.org/2000/svg" xmlns:xlink="http://www.w3.org/1999/xlink" x="0px" y="0px"
	 viewBox="0 0 500 500" style="enable-background:new 0 0 500 500;" xml:space="preserve">
<style type="text/css">
	.st0{fill:#B51B2C;}
	.st1{fill:#030304;}
	.st2{fill:#020203;}
	.st3{fill:#13110C;}
	.st4{fill:#CE536A;}
	.st5{fill:#F192AC;}
	.st6{fill:#E3748C;}
	.st7{fill:#C0364A;}
	.st8{fill:#EE7289;}
</style>
<g>
	<path class="st1" d="M212.06,198.88c0.95,0.73,2.3,0.57,3.02-0.37c0.6-0.78,1.25-1.53,1.93-2.25c6.89,7.66,17.68,12.01,29.79,12.01
		c0.2,0,0.4,0,0.6,0c13.35-0.15,22.78-5.3,26.78-14.54c0.6,0.43,1.16,0.87,1.68,1.34c0.87,0.77,2.17,0.69,2.96-0.2
		c0.76-0.86,0.69-2.08-0.16-2.84c-1.35-1.2-2.82-2.26-4.48-3.2c-1.49-0.85-3.04-1.54-4.62-2.07c-0.69-0.23-1.42-0.09-1.95,0.38
		c-0.55,0.49-0.81,1.28-0.66,2.02c0.15,0.73,0.66,1.3,1.38,1.54c0.73,0.24,1.48,0.55,2.26,0.92c-4.55,11.39-17.66,12.75-25.24,12.49
		c-10.42-0.33-19.35-4.09-25.26-10.61c0.73-0.56,1.46-1.08,2.19-1.54c0.98-0.62,1.26-1.88,0.63-2.87c-0.62-0.98-1.81-1.26-2.79-0.65
		c-3.23,2.03-6.06,4.62-8.42,7.69C211.02,197.02,211.18,198.2,212.06,198.88z"/>
	<path class="st1" d="M341,212.02c0,0-5.65-11.65-15.79-7.35c-10.15,4.29-8.62,17.19-8.62,17.19c-2.26,0.03-3.91,0.28-5.27,0.63
		c-0.02-0.27-0.04-0.54-0.05-0.79c-0.25-4.77-0.62-11.98-6.44-18.42c-0.19-0.22-0.38-0.42-0.58-0.61c0.21-0.22,0.4-0.48,0.59-0.78
		c0.76-1.29,0.77-2.89,0.03-4.19c-0.31-0.55-0.74-1.01-1.24-1.36c-1.03-0.76-3.23-2.9-3.54-4.76c-0.47-2.66-1.28-4.77-2.22-6.43
		c1.53-1.03,2.65-2.53,3.18-4.34c0.67-2.26,0.28-4.04-1.14-5.26c-0.79-0.67-1.75-1.01-2.72-1.01c-1.03,0-2.07,0.38-2.88,1.14
		c-0.16-0.14-0.4-0.6-0.66-1.13c0,0-1.75,2.44-2.97,2.99c0.86,1.22,1.91,2.12,3.42,2.26c0.11,0.01,0.22,0.02,0.33,0.02
		c1.61,0,2.76-1.1,2.76-1.1s0.05,3.25-3.99,3.8c-0.77,0.1-1.5,0.15-2.21,0.15c-0.44,0-0.86-0.02-1.26-0.05
		c0.49,0.65,4.96,2.28,6.24,9.64c0.71,4.22,5.26,7.5,5.27,7.5c0,0-0.27,0.01-0.7,0.01c-1.09,0-3.22-0.07-4.76-0.56
		c0.95,3.59,3.47,4.07,5.95,6.87c5.07,5.62,5.15,11.97,5.4,16.52c0.05,0.79,0.1,1.5,0.18,2.17c0.18,1.5,0.52,2.67,1.33,3.35
		c0.34,0.28,0.8,0.46,1.33,0.56c0.16,0.03,0.27,0.08,0.45,0.09c0.21,0.01,0.4,0.02,0.6,0.02c0.48,0,0.83-0.06,1.19-0.13
		c1.59-0.27,2.2-1,2.2-1c0.01,0-1.14,2.25-3.3,3.98c-0.75,0.6-1.66,1.11-2.66,1.46c-0.78,0.27-1.6,0.49-2.54,0.49
		c-0.87,0-1.81-0.15-2.81-0.49c-1.84-0.64-3.22-2.5-3.3-4.28c-1.25,1.64-2.57,3.26-3.83,4.85c-1.92,2.41-2.62,4.52-2.62,6.27
		c-0.01,2.83,1.83,4.65,3.35,5c0.58,0.14,1.14,0.18,1.65,0.18c2.01,0,3.43-0.81,3.43-0.81c0.01,0-2.49,4.57-7.6,4.57
		c-0.65,0-1.35-0.07-2.08-0.24c-3.38-0.85-5.78-3.24-6.19-5.09c-2.43,6.98,2.06,12.05,7.19,12.05c0.85,0,1.71-0.14,2.56-0.43
		c-2.54,2.29-5.21,3.09-7.74,3.09c-6.11,0-11.32-4.76-11.45-4.87c-0.61,0.88-1.88,4.48-1.74,6.09c0.48,5.43,6.14,5.87,7.62,5.87
		c0.21,0,0.33-0.01,0.34-0.01c-1.66,0.97-4.29,1.46-7.49,1.46c-5.83,0-13.56-1.63-20.81-4.91c-0.16,3.11,2.51,6.85,5.58,8.09
		c1.92,0.72,3.31,1.14,3.31,1.14c-4.18,1.22-7.85,1.73-11.05,1.73c-17.02,0-21.16-14.48-21.18-14.48
		c-4.9,3.58,0.56,16.09,0.62,16.15c-15.95-7.96-19.57-22.11-19.28-27.07c-1.15,8.91-4.76,11.49-13.73,13.98
		c-1.48,0.41-2.79,0.6-3.94,0.6c-8.1,0-8.26-9.08-8.24-10.35c0.13,0.78,0.74,3.73,3.12,3.73c0.39,0,0.84-0.08,1.34-0.27
		c3.49-1.3,3.09-8.01,3.96-13.27c-1.43,1.9-3.51,2.98-5.67,2.98c-1.89,0-3.82-0.88-5.47-2.67c-0.7-0.76-1.36-1.64-1.9-2.77
		c0.02,0.03,0.38,0.36,0.94,0.67c0.52,0.28,1.24,0.57,2.07,0.57c0.16,0,0.31-0.03,0.48-0.05c1.75-0.22,3.92-1.68,5.9-6.48
		c2.15-5.2,0.87-9.8-0.32-13.55c-0.72-2.27-1.4-4.23-1.27-5.82c-1.57,1.63-3.18,2.08-4.5,2.08c-1.64,0-2.8-0.71-2.79-0.71
		c0.08,0,4.93-0.44,5.21-10.72c0.25-7.67,5.95-9.67,5.94-9.68c0,0-0.68,0.12-1.54,0.12c-0.38,0-0.78-0.02-1.18-0.09
		c-4.1-0.67-3.94-3.92-3.94-3.92s1.27,1.08,3.11,1.17c0.03,0,0.05,0,0.07,0c1.8,0,3.11-3.7,6.44-11.05
		c0.78-1.73,1.89-3.42,3.12-5.05l-2.33-3.84c-1.88,2.25-3.49,4.68-4.61,7.16l-1.43,3.2c-0.8,1.8-1.61,3.64-2.23,4.83
		c-0.65-0.36-1.39-0.55-2.12-0.55c-0.61,0-1.22,0.13-1.78,0.4c-1.39,0.68-2.36,2.01-2.43,3.55c-0.08,2.08,0.77,4.4,2.68,6.08
		c-1.08,1.9-1.88,4.37-1.98,7.51c-0.13,4.63-1.32,6.41-1.81,6.75c-0.86,0.16-1.65,0.6-2.26,1.24c-0.79,0.83-1.2,1.96-1.14,3.11
		c0.27,4.59,6.69,4.64,6.97,4.64c0.45,0,0.94-0.03,1.48-0.11c0.04,0.13,0.08,0.26,0.12,0.38c0.04,0.11,0.06,0.23,0.1,0.34
		l-7.49,1.93c-1.41-0.94-3.85-1.68-8.06-1.73c0,0,1.53-12.89-8.62-17.19c-10.15-4.29-15.79,7.35-15.79,7.35s-4.31,3.45,8.61,21.26
		c4.39,6.04,8.73,10.47,11.91,13.37c1.18,1.6,2.57,2.98,4.94,4.07c0.81,1.02,4.95-2.45,8.4-5.64c2.33,2.51,5.27,3.99,8.46,3.99
		c0.2,0,0.39-0.01,0.6-0.02c-0.15,0.92-0.33,1.74-0.56,2.2l-0.71,0.09l-1.99,0.27l-0.09-0.08c0,0,0,0.01,0,0.02l-1.62-0.99
		l-1.91-1.17c-1.42,2.33-0.13,8.15,1.44,10.93c2.14,3.82,5.82,5.92,10.36,5.92c1.57,0,3.27-0.25,5.05-0.75
		c4.87-1.36,8.7-2.92,11.49-5.55c3.18,6.57,9.03,13.61,18.55,18.35c0.6,0.3,1.24,0.44,1.87,0.44c1.36,0,2.69-0.67,3.49-1.87
		c0.86-1.29,0.91-2.9,0.25-4.2c-0.25-0.54-0.48-1.12-0.7-1.71c4.21,3.57,10.03,6.12,17.52,6.12c3.79,0,7.9-0.64,12.22-1.9
		c1.6-0.47,2.77-1.85,2.98-3.52c0.05-0.48,0.04-0.94-0.06-1.38c2.74,0.49,5.39,0.73,7.84,0.73c4.07,0,7.3-0.69,9.6-2.04
		c1.84-1.08,2.57-3.38,1.69-5.33c-0.24-0.52-0.57-0.97-0.96-1.35c0.78,0.11,1.57,0.17,2.39,0.17c3.92,0,7.46-1.4,10.54-4.18
		c1.47-1.33,1.81-3.52,0.81-5.22c-0.18-0.31-0.39-0.59-0.64-0.83c4.5-1.76,7.26-5.81,7.32-7.79c0.01-0.21-0.12-0.38-0.14-0.59
		c3.61,3.44,8.81,8.04,9.72,6.89c2.37-1.09,3.76-2.47,4.94-4.07c3.19-2.89,7.53-7.32,11.91-13.38
		C345.31,215.47,341,212.02,341,212.02z"/>
</g>
<g>
	<path class="st0" d="M196.74,172l2.87,4.92c4.41,7.03,17.17-0.02,20.92-3.16c-0.3,26.85,58.39,22.88,48.03-7.63
		c7.31,3.65,14.02,14.67,21.56,12.04c12.37-12.14,2.14-24.27-10.59-38.36c-21.98-20.67-9.45-46.56-36.95-63.97
		c-20.18-11.76,1.14-23.07,7.53-13.88c2.03-31.63-71.28-14.11-35.13,25.62C232.22,110.09,177.2,140.65,196.74,172z M269.82,145.57
		c2.57-7.13,14.29-2.16,9.25,5.91c-0.61,0.92-8.28,7.22-8.58,7.63c-0.35-0.38-8.45-5.76-9.17-6.6
		C255.38,145.07,266.47,138.79,269.82,145.57z M246.82,187.3c-29.29,2.02-28.67-27.28-2.4-29.78
		C270.18,155.61,274.14,186.32,246.82,187.3z M236.39,126.01c2.57-7.13,14.29-2.16,9.25,5.91c-0.61,0.92-8.28,7.21-8.58,7.63
		c-0.35-0.38-8.45-5.76-9.17-6.6C221.95,125.51,233.04,119.23,236.39,126.01z M233.57,91.69c3.59-0.78,5.58,2.4,5.86,2.88
		c2.56-7.13,14.28-2.16,9.24,5.91c-0.61,0.92-8.28,7.21-8.58,7.63c-0.35-0.38-8.45-5.76-9.17-6.6
		C227.67,97.56,229.42,92.95,233.57,91.69z M211.58,75.5c-5.94-7.44,5.15-13.72,8.5-6.93c2.56-7.13,14.28-2.16,9.24,5.91
		c-0.61,0.92-8.28,7.21-8.58,7.63C220.39,81.72,212.29,76.34,211.58,75.5z M215.06,148.16c2.56-7.13,14.28-2.16,9.24,5.91
		c-0.6,0.92-8.27,7.22-8.57,7.63c-0.35-0.38-8.45-5.76-9.17-6.6C200.62,147.66,211.71,141.38,215.06,148.16z"/>
	<path class="st0" d="M365.7,278.02c-9.82-19.83-29.09-34.67-51.94-33.59c-14.8,0.7-29.64,7.02-42.21,14.54
		c-9.37,5.6-18.31,12.66-24.61,21.61c-5.17-7.34-12.08-13.44-19.59-18.47c-11.23-7.52-24.47-13.83-37.78-16.5
		c-23.11-4.63-44.71,5.77-57.33,25.33c-12.67,19.65-15.64,44.78-9.31,67.11c7.72,27.23,24.35,50.41,44.89,69.52
		c11.73,10.91,24.55,20.69,37.85,29.6c12.89,8.63,26.42,17.08,40.78,23.04c0.44,0.18,0.87,0.1,1.24-0.11
		c0.02-0.01,0.05-0.01,0.07-0.01c12.79-5.31,24.95-12.72,36.51-20.31c11.86-7.78,23.38-16.14,34.16-25.36
		c21.23-18.16,39.46-40.03,49.32-66.44C376.3,325.12,376.68,300.19,365.7,278.02z M323.16,289.55c-5.56,0.23-20.58-6.09-22.99-11.16
		c-2.41-5.07-0.95-10.8,3.25-12.8c2.99-1.42,6.55-0.55,9.24,1.88c-0.19-3.62,1.37-6.93,4.36-8.35c4.21-2,9.57,0.48,11.98,5.55
		C331.41,269.74,326.84,285.38,323.16,289.55z M358.25,302.05c-2.77,3.97-16.45,7.21-21.15,6.22c-2.54-4.07-4.2-18.03-1.43-22
		c2.77-3.97,7.69-5.32,10.98-3.01c2.34,1.64,3.2,4.68,2.52,7.73c2.63-1.69,5.78-1.92,8.12-0.29
		C360.6,293,361.02,298.08,358.25,302.05z"/>
</g>
</svg>
