<?xml version="1.0" encoding="utf-8"?>
<!-- Generator: Adobe Illustrator 25.0.0, SVG Export Plug-In . SVG Version: 6.00 Build 0)  -->
<svg version="1.1" id="Layer_1" xmlns="http://www.w3.org/2000/svg" xmlns:xlink="http://www.w3.org/1999/xlink" x="0px" y="0px"
	 viewBox="0 0 500 500" style="enable-background:new 0 0 500 500;" xml:space="preserve">
<style type="text/css">
	.st0{fill:#B51B2C;}
	.st1{fill:#030304;}
	.st2{fill:#020203;}
	.st3{fill:#13110C;}
	.st4{fill:#CE536A;}
	.st5{fill:#F192AC;}
	.st6{fill:#E3748C;}
	.st7{fill:#C0364A;}
	.st8{fill:#EE7289;}
</style>
<g>
	<g>
		<path class="st0" d="M306.37,207.61c-33.62-31.62-14.45-71.2-56.5-97.83c-30.86-17.98,1.75-35.28,11.51-21.23
			c3.11-48.36-109.01-21.58-53.73,39.18c26.37,34.44-57.77,81.18-27.89,129.11l4.38,7.52c6.75,10.75,26.25-0.03,31.99-4.83
			c-0.46,41.07,89.29,34.99,73.45-11.66c11.17,5.59,21.44,22.43,32.97,18.41C341.49,247.71,325.85,229.16,306.37,207.61z
			 M236.08,134.03c5.49-1.19,8.53,3.67,8.96,4.4c3.92-10.91,21.84-3.3,14.13,9.03c-0.94,1.4-12.66,11.02-13.12,11.66
			c-0.53-0.57-12.92-8.81-14.02-10.1C227.06,143,229.74,135.96,236.08,134.03z M254.54,195.55c-0.94,1.41-12.66,11.03-13.12,11.66
			c-0.53-0.57-12.92-8.81-14.02-10.1c-9.09-11.37,7.87-20.97,12.99-10.6C244.33,175.61,262.25,183.22,254.54,195.55z M202.45,109.27
			c-9.09-11.38,7.87-20.97,12.99-10.6c3.92-10.91,21.84-3.3,14.13,9.03c-0.94,1.4-12.66,11.02-13.12,11.66
			C215.93,118.78,203.54,110.56,202.45,109.27z M208.8,241.09c-0.53-0.57-12.92-8.81-14.02-10.1c-9.09-11.37,7.87-20.97,12.99-10.6
			c3.92-10.91,21.84-3.3,14.13,9.03C220.99,230.84,209.27,240.46,208.8,241.09z M256.34,280.24c-44.79,3.09-43.84-41.71-3.67-45.53
			C292.07,231.78,298.12,278.75,256.34,280.24z M305.66,225.46c-0.94,1.41-12.66,11.03-13.12,11.66
			c-0.53-0.57-12.92-8.81-14.02-10.1c-9.09-11.37,7.87-20.97,12.99-10.6C295.45,205.52,313.37,213.13,305.66,225.46z"/>
		<path class="st0" d="M292.56,360.23c-1.72-3.18-0.62-7.11,2.18-9.19c-0.88-4.06,0.87-8.57,5.46-10.03
			c0.7-4.54,5.19-7.74,9.84-7.13c2.97,0.31,6.68,2.11,9.94,4.98c14.6-49.79-48.03-65.04-61.82-27.07
			c-16.05-32.26-70.89-19.45-60.98,26.59c6.44-5.98,17.17-6.72,19.22,2.63c4.59,1.46,6.34,5.96,5.46,10.03
			c5.12,3.93,3.19,10.8-2.39,13.89c16.28,11.65,41.28,28.44,42.79,30.06c1.16-1.58,19.91-17.21,34.78-30.13
			C294.72,363.46,293.35,361.74,292.56,360.23z"/>
	</g>
</g>
<g>
	<g>
		<g>
			<path class="st1" d="M319.57,338.48c-3.39-2.73-6.59-4.28-9.52-4.59l0,0c-2.81-0.31-5.42,0.56-7.35,2.42
				c-1.34,1.3-2.2,2.94-2.49,4.72c-2.83,0.85-4.51,2.98-5.21,5.11c-0.55,1.67-0.63,3.35-0.25,4.91c-0.94,0.74-1.74,1.64-2.28,2.73
				c-1.02,2.03-0.98,4.38,0.08,6.45c1.44,2.8,4.77,6.31,12.48,7.14c1.64,0.18,3.4,0.22,5.22,0.14c2.77-0.13,5.38-0.92,7.52-2.34
				c4.72-3.09,7.46-7.63,7.72-12.76C325.79,346.37,322.63,340.95,319.57,338.48z M314.94,360.85c-1.46,0.95-3.16,1.41-4.9,1.48
				c-1.23,0.06-2.81,0.06-4.44-0.13c-3.35-0.36-6.94-1.47-8.43-4.37c-1.78-3.44,6.23-4.77,6.23-4.77s-4.76-1.4-3.47-5.33
				c0.57-1.74,2.16-2.06,3.75-1.89c2.03,0.22,4.09,1.25,4.09,1.25s-4.41-4.23-1.46-7.08c0.9-0.87,2.02-1.12,3.19-0.99
				c2.51,0.27,5.29,2.24,6.83,3.49C319.74,345.28,323.92,354.95,314.94,360.85z"/>
		</g>
		<g>
			<path class="st1" d="M191.12,352.42c0.25,5.12,3,9.66,7.72,12.76c2.14,1.4,4.75,2.21,7.52,2.34c1.82,0.08,3.58,0.03,5.22-0.14
				c7.7-0.83,11.03-4.34,12.48-7.14c1.08-2.09,1.11-4.44,0.08-6.45c-0.55-1.09-1.34-1.99-2.28-2.73c0.38-1.57,0.31-3.23-0.25-4.91
				c-0.7-2.13-2.38-4.26-5.21-5.11c-0.28-1.78-1.15-3.42-2.49-4.72c-1.93-1.86-4.54-2.72-7.35-2.42l0,0
				c-2.93,0.32-6.13,1.86-9.52,4.59C193.99,340.95,190.83,346.37,191.12,352.42z M200.29,342.52c1.54-1.25,4.31-3.21,6.83-3.49
				c1.18-0.13,2.3,0.13,3.19,0.99c2.94,2.84-1.46,7.08-1.46,7.08s2.06-1.04,4.09-1.25c1.6-0.17,3.18,0.15,3.75,1.89
				c1.29,3.93-3.47,5.33-3.47,5.33s8.01,1.33,6.23,4.77c-1.5,2.9-5.1,4-8.43,4.37c-1.62,0.18-3.21,0.18-4.44,0.13
				c-1.74-0.07-3.44-0.53-4.9-1.48C192.7,354.95,196.88,345.28,200.29,342.52z"/>
		</g>
		<path class="st1" d="M168.86,384.45c0.6,0,1.29-0.13,2.04-0.41c5.33-1.99,4.73-12.25,6.05-20.29c-2.18,2.91-5.36,4.55-8.67,4.55
			c-2.88,0-5.84-1.34-8.36-4.09c-1.06-1.16-2.07-2.51-2.91-4.23c0.03,0.04,0.57,0.55,1.44,1.02c0.8,0.43,1.89,0.87,3.16,0.87
			c0.24,0,0.48-0.04,0.73-0.07c2.67-0.34,5.99-2.58,9.02-9.91c3.29-7.95,1.33-14.98-0.49-20.72c-1.11-3.47-2.14-6.47-1.95-8.91
			c-2.39,2.49-4.86,3.18-6.87,3.18c-2.51,0-4.28-1.08-4.27-1.08l0,0c0.13,0,7.53-0.67,7.97-16.4c0.38-11.73,9.1-14.79,9.09-14.8
			c0,0-1.04,0.18-2.35,0.18c-0.57,0-1.19-0.03-1.81-0.14c-6.27-1.02-6.02-5.99-6.02-5.99s1.95,1.65,4.76,1.79c0.04,0,0.07,0,0.11,0
			c2.76,0,4.76-5.66,9.84-16.9c1.19-2.65,2.88-5.24,4.77-7.72l-3.56-5.87c-2.87,3.44-5.33,7.15-7.04,10.95l-2.18,4.9
			c-1.22,2.76-2.46,5.57-3.42,7.39c-0.99-0.55-2.13-0.84-3.25-0.84c-0.94,0-1.86,0.2-2.72,0.62c-2.13,1.04-3.61,3.07-3.71,5.43
			c-0.13,3.18,1.18,6.73,4.1,9.3c-1.65,2.91-2.87,6.68-3.02,11.48c-0.2,7.08-2.02,9.8-2.77,10.32c-1.32,0.25-2.52,0.91-3.46,1.89
			c-1.2,1.27-1.83,3-1.74,4.76c0.41,7.01,10.24,7.1,10.66,7.1c0.69,0,1.44-0.04,2.27-0.17c0.06,0.2,0.13,0.39,0.18,0.59
			c0.06,0.17,0.1,0.35,0.15,0.52l-11.45,2.95c-2.16-1.44-5.89-2.58-12.32-2.65c0,0,2.34-19.71-13.18-26.28
			c-15.51-6.57-24.15,11.24-24.15,11.24s-6.59,5.28,13.16,32.51c6.71,9.24,13.34,16.02,18.22,20.44c1.81,2.45,3.93,4.56,7.56,6.23
			c1.23,1.55,7.58-3.75,12.84-8.63c3.56,3.84,8.07,6.1,12.94,6.1c0.31,0,0.6-0.01,0.91-0.03c-0.22,1.41-0.5,2.66-0.85,3.36
			l-1.09,0.14l-3.04,0.41l-0.14-0.13C164.07,378.47,164.67,384.45,168.86,384.45z"/>
		<path class="st1" d="M400.37,318.04c0,0-8.64-17.81-24.15-11.24c-15.51,6.57-13.18,26.28-13.18,26.28
			c-3.46,0.04-5.98,0.43-8.07,0.97c-0.03-0.41-0.06-0.83-0.07-1.2c-0.38-7.3-0.95-18.31-9.84-28.17c-0.29-0.34-0.59-0.64-0.88-0.94
			c0.32-0.34,0.62-0.73,0.9-1.19c1.16-1.97,1.18-4.42,0.04-6.41c-0.48-0.84-1.13-1.54-1.89-2.07c-1.58-1.16-4.94-4.44-5.42-7.28
			c-0.71-4.07-1.96-7.3-3.4-9.83c2.34-1.58,4.05-3.86,4.86-6.64c1.02-3.46,0.43-6.17-1.75-8.04c-1.2-1.02-2.67-1.54-4.16-1.54
			c-1.58,0-3.16,0.59-4.4,1.75c-0.25-0.21-0.62-0.91-1.01-1.72c0,0-2.67,3.72-4.54,4.58c1.32,1.86,2.93,3.23,5.22,3.46
			c0.17,0.01,0.34,0.03,0.5,0.03c2.46,0,4.21-1.68,4.21-1.68s0.07,4.97-6.1,5.81c-1.18,0.15-2.3,0.22-3.37,0.22
			c-0.67,0-1.32-0.03-1.93-0.07c0.76,0.99,7.59,3.49,9.55,14.74c1.09,6.45,8.05,11.47,8.07,11.47c0,0-0.41,0.01-1.06,0.01
			c-1.67,0-4.93-0.11-7.28-0.85c1.46,5.49,5.31,6.22,9.1,10.5c7.76,8.6,7.88,18.3,8.26,25.26c0.07,1.2,0.15,2.3,0.28,3.32
			c0.28,2.3,0.8,4.09,2.03,5.12c0.52,0.43,1.22,0.7,2.03,0.85c0.24,0.04,0.42,0.13,0.69,0.14c0.32,0.01,0.62,0.03,0.91,0.03
			c0.73,0,1.27-0.1,1.82-0.2c2.44-0.42,3.36-1.53,3.36-1.53c0.01,0-1.74,3.44-5.04,6.09c-1.15,0.92-2.53,1.69-4.06,2.23
			c-1.19,0.42-2.45,0.74-3.88,0.74c-1.33,0-2.77-0.22-4.3-0.76c-2.81-0.98-4.93-3.82-5.04-6.54c-1.92,2.51-3.93,4.98-5.85,7.42
			c-2.94,3.68-4,6.92-4,9.59c-0.01,4.33,2.8,7.11,5.12,7.65c0.88,0.21,1.74,0.28,2.52,0.28c3.07,0,5.25-1.23,5.25-1.23
			c0.01,0-3.81,6.99-11.62,6.99c-0.99,0-2.06-0.11-3.18-0.36c-5.17-1.3-8.84-4.96-9.47-7.79c-3.71,10.67,3.15,18.43,10.99,18.43
			c1.3,0,2.62-0.21,3.92-0.66c-3.88,3.5-7.97,4.73-11.83,4.73c-9.34,0-17.31-7.28-17.52-7.45c-0.94,1.34-2.87,6.85-2.66,9.31
			c0.73,8.3,9.4,8.98,11.65,8.98c0.32,0,0.5-0.01,0.52-0.01c-2.53,1.48-6.55,2.24-11.45,2.24c-8.92,0-20.74-2.49-31.83-7.51
			c-0.24,4.76,3.84,10.47,8.53,12.38c2.94,1.11,5.07,1.75,5.07,1.75c-6.38,1.86-12,2.65-16.9,2.65c-26.03,0-32.36-22.14-32.39-22.14
			c-7.49,5.47,0.85,24.6,0.95,24.7c-24.39-12.17-29.92-33.81-29.49-41.4c-1.76,13.62-7.28,17.57-21,21.38
			c-2.27,0.63-4.27,0.91-6.02,0.91c-13.32,0-12.6-16.06-12.59-16.06l-2.53-1.54l-2.93-1.79c-2.17,3.56-0.2,12.46,2.2,16.72
			c3.28,5.84,8.91,9.06,15.85,9.06c2.39,0,5-0.38,7.73-1.15c7.45-2.07,13.3-4.47,17.57-8.49c4.86,10.05,13.81,20.81,28.37,28.06
			c0.91,0.46,1.89,0.67,2.86,0.67c2.09,0,4.12-1.02,5.33-2.86c1.32-1.97,1.39-4.44,0.38-6.43c-0.38-0.83-0.73-1.71-1.06-2.62
			c6.44,5.46,15.33,9.35,26.8,9.35c5.8,0,12.08-0.98,18.69-2.91c2.45-0.71,4.24-2.83,4.55-5.38c0.08-0.73,0.06-1.44-0.1-2.11
			c4.19,0.74,8.25,1.12,11.99,1.12c6.22,0,11.16-1.05,14.69-3.12c2.81-1.65,3.93-5.17,2.59-8.15c-0.36-0.8-0.87-1.48-1.47-2.06
			c1.19,0.17,2.41,0.27,3.65,0.27c5.99,0,11.41-2.14,16.12-6.38c2.25-2.03,2.77-5.38,1.23-7.98c-0.28-0.48-0.6-0.9-0.98-1.27
			c6.88-2.69,11.1-8.89,11.19-11.92c0.01-0.32-0.18-0.59-0.21-0.9c5.52,5.26,13.47,12.29,14.87,10.54c3.63-1.67,5.75-3.78,7.56-6.23
			c4.87-4.42,11.51-11.2,18.22-20.46C406.96,323.32,400.37,318.04,400.37,318.04z"/>
	</g>
	<path class="st2" d="M298.18,291.59c0.57-1.02,1.11-2.06,1.58-3.16c0.94,0.67,1.81,1.36,2.62,2.09c1.36,1.2,3.39,1.06,4.62-0.31
		c1.19-1.33,1.08-3.23-0.25-4.42c-2.1-1.86-4.4-3.51-6.99-4.98c-2.32-1.32-4.75-2.41-7.21-3.22c-1.08-0.36-2.21-0.14-3.04,0.59
		c-0.87,0.76-1.26,2-1.02,3.15c0.22,1.13,1.02,2.03,2.14,2.41c1.15,0.38,2.31,0.85,3.53,1.43c-0.71,1.79-1.58,3.42-2.55,4.91
		c0.1,0.01,0.2,0.01,0.29,0.01C294.05,290.37,296.15,290.89,298.18,291.59z"/>
	<path class="st2" d="M215.41,288.09c1.13-0.88,2.27-1.68,3.42-2.41c1.53-0.97,1.96-2.93,0.98-4.48c-0.97-1.53-2.83-1.97-4.35-1.01
		c-5.03,3.16-9.45,7.2-13.13,11.99c-1.06,1.37-0.81,3.22,0.56,4.27c1.48,1.13,3.58,0.88,4.7-0.57c0.94-1.22,1.95-2.38,3.01-3.5
		c1.41,1.57,2.93,3.04,4.54,4.41c2.23-1.13,4.56-2.04,6.99-2.67C219.68,292.32,217.43,290.3,215.41,288.09z"/>
</g>
</svg>
