<?xml version="1.0" encoding="utf-8"?>
<!-- Generator: Adobe Illustrator 25.0.0, SVG Export Plug-In . SVG Version: 6.00 Build 0)  -->
<svg version="1.1" id="Layer_1" xmlns="http://www.w3.org/2000/svg" xmlns:xlink="http://www.w3.org/1999/xlink" x="0px" y="0px"
	 viewBox="0 0 500 500" style="enable-background:new 0 0 500 500;" xml:space="preserve">
<style type="text/css">
	.st0{fill:#B51B2C;}
	.st1{fill:#030304;}
	.st2{fill:#020203;}
	.st3{fill:#13110C;}
	.st4{fill:#CE536A;}
	.st5{fill:#F192AC;}
	.st6{fill:#E3748C;}
	.st7{fill:#C0364A;}
	.st8{fill:#EE7289;}
</style>
<g>
	<path class="st0" d="M306.62,214.89c0.22-0.03,1.75-0.28,3.21-0.72c-0.2-1.23-0.46-2.34-0.46-3.5c0.12-1.35-0.29-2.24,0.12-3.26
		c0.41-1.02,0.55-2.12,1.43-1.19c1,1.07,1.65,4.45,2.9,3.76c1.43,0.13,2.89-6.31,2.85-7.94c-0.12-4.58-1.55-8.3-3.57-11.33
		c0,0,0,0,0,0c-0.23-0.34-0.57-0.86-0.97-1.38c-1.72-2.19-3.74-3.94-5.76-5.34c0-0.01-1.66-1.09-1.66-1.08
		c-6.5-3.59-7.64-3.73-12.83-3.99c0-0.02-2.59,0.09-2.59,0.09c-3.02,0.23-6.1,1.15-8.52,2.52c0,0-1.71,1.15-2.04,1.34
		c-6.47,5.23-9.46,11.53-10.42,16.2c-0.04,0.29-0.11,0.73-0.23,1.34c-0.09,0.68-0.13,1.31-0.14,1.88c0,0,0,0,0,0
		c0.11,1.41,0.83,1.96,1.56,2.15c0,0,0,0,0.01,0c2.12,0.5,4.05-1.24,6.37-2.36c-2.99,12.62,20.62,17.18,22.15,5.01
		C299.18,209.91,302.74,215.17,306.62,214.89z M294.3,209.41c-4.94,5.27-18.96,0.4-15.5-7.58c3.57-6.52,15.6-2.87,16.5,3.87
		C295.59,207.02,295.31,208.46,294.3,209.41z"/>
	<path class="st0" d="M217.75,129.84c2.62,1.24,5.09,2.92,6.9,5.19c3.35-5.73,9.76-10.05,16.29-11.14
		c11.95-0.63,16.41,14.55,12.51,23.93c-4.24,12.26-14.91,20.46-24.96,27.85c-6.24-3.32-12.85-5.9-18.43-10.41
		c-9.14-6.85-18.15-18.56-13.11-30.49C200.52,125.75,210.27,125.78,217.75,129.84z"/>
</g>
<g>
	<path class="st3" d="M281.96,218.8c1.99,1.94,4.61,2.71,7.28,2.62c2.72,7.83,11.67,4.8,7.24-3.35c0.7-1.05,1.17-2.29,1.42-3.68
		c0.19-1.04-1.45-1.17-1.63-0.14c-0.63,6.01-9.21,7.15-13.08,3.47C282.45,216.99,281.21,218.06,281.96,218.8z M290.84,221.28
		c0.61-0.1,1.23-0.21,1.82-0.4c0.4,0.55,0.83,2.76,1.91,2.2c1.11-0.49-0.3-2.15-0.48-2.81c0.47-0.26,0.91-0.55,1.29-0.89
		c1.44,2.99,0.95,6.25-2.7,4.52C291.83,223.32,291.23,222.26,290.84,221.28z"/>
	<path class="st3" d="M225.67,178.46c-1.78,1.69-3.21,5.75-0.59,7.32c2.28,0.91,4.74-1.36,5.04-3.55c1.28,1.95,3.55,3.41,5.97,3.24
		c4.98,7.07,7.95,15.16,10.81,23.26c0,0,0,0,0,0c0,0,0,0,0,0c0,0,0,0,0,0c-3.41-0.08-6.72,3.16-4.68,6.41
		c-1.57,1.72-1.56,4.92,0.43,6.37c-0.72,3.01,0.58,5.88,5.25,6.21c0,0,0,0,0.01,0.01c-0.96,15.41-11.24,12.03-16.69,20.05
		c-1.07,1.92-1.51,4.44-0.75,6.54c1.27,3.57,6.23,5.86,9.43,3.36c3.05-2.25,3.07-8.03-1.18-8.84c-2.21-0.42-4.5,1.66-3.38,3.87
		c0.44,0.87,1.6,0.36,1.66-0.45c0.08-0.91,0.98-1.32,1.76-0.99c2.36,1.1,1.73,4.77-0.47,5.69c-3.35,1.41-6.53-2.3-5.93-5.55
		c1.42-7.51,12-7.2,15.17-14.34c1.5-2.66,2.5-6.31,1.72-9.39c0,0,0,0,0,0c1.24-0.13,2.61-0.35,3.81-0.99l3.69-0.22
		c-0.91,0.99-2.4,2.86-3.08,5.12c-0.48,1.59-1.31,2.28-1.3,2.28c0,0,0,0,0,0c-1.73,1.16-1.25,4.05,0.73,4.64
		c-1.16,2.67,2.13,5.4,4.95,4.62c1.43,2.22,2.16,5.53,1.66,7.87c-1.25-0.8-3.06-0.3-3.72,1.04c-2.75-2.71-1.74-3.94-4.59-4.38
		c-4.54,0.54-3.53,7.78,4.01,14.98c-3.5,3.66-0.23,8.99-0.23,8.99s0.34,3.16,12.97,2.4c4.26-0.26,7.75-0.99,10.14-1.63
		c1.15-0.07,2.26-0.33,3.53-1.15c0.67-0.07,0.4-2.63-0.01-5.09c0.55-0.24,1.07-0.5,1.54-0.78c0.05,1.12,0.96,2.14,2.08,2.31
		c-0.25,1.89-0.31,3.5,0.22,3.55c1.27,0.82,2.38,1.08,3.53,1.15c2.39,0.65,5.88,1.38,10.14,1.63c12.63,0.76,12.97-2.4,12.97-2.4
		c5.54-9.61-6.2-14.42-12.32-8.8c-0.89-1.4-1.74-1.93-2.13-3.48c5.57,2.93,13.85-0.23,14.2-5.09c1.44-0.42,2.79-1.06,4.07-1.89
		c2.18-1.33,1.07-4.93-1.45-4.83c-1.2,0.75-3.03-2.9-3.35-5.25l0.67,0.25c1.94,4.42,10.33,9.06,11.6,1.81
		c2.29-0.56,4.04-3.18,3.22-5.5c2.75-2.61,3.1-6.95-4.24-9.81c-1.21,0.09-6.39-3.27-7.47-3.87c-0.26-1.19-1.47-2.1-2.69-1.99
		c-0.43-2.08-0.44-6.88-2.51-9.04c-0.02,0.01-0.03,0.01-0.05,0.02c0,0,0,0,0,0c-1.12,0.34-2.28,0.56-2.86,0.66
		c3.89,2.66,1.18,13.3,5.59,10.98c-0.23,1.52-2.08,2.18-3.42,1.44c3.3,2.48-0.18,8.77,3.31,10.67c-1.33,0.06-2.6-0.69-3.29-2.09
		c-0.25,1.71-0.73,3.6-0.61,5.42c-0.05,4.18,3.45,10.02,6.1,8.93c-4.1,2.69-8.78,2.52-13.22,1.07c0.98,6.34,5.65,4.87,8.03,2.31
		c-0.82,5.86-11.11,5.36-15.15,0.04c0.45,3.53-3.34,9.52-8.35,11.58c1.25-2.01,3.09-5.62,1.4-7.83c-2.56,5.11-8.03,8.2-14.1,7.47
		c0,0,1.72-0.55,3.44-1.5c-13.12,2.78-23.95-1.63-25.31-12.9c0.43,1.23,7.47,9.99,13.85,7.44c2.2-0.61,3.12-1.84,3.28-3.31
		c-3.58,3.42-8.15,1.63-10.22-1.3c3.04,2.96,8.25-0.18,6.76-4.42c-0.24,1.04-0.94,2.32-2.84,2.92c0.96-3.78-0.76-8.4-3.23-12.31
		c-0.87,1.46-3.07,1.53-3.54,0.2c3.24,1.76,2.27-2.84,1.74-4.68l0.01-0.02c0,0,0-0.01,0-0.01c-1.04,1.11-2.39,1.17-3.32,1.09
		c0,0,1.51-1.08,2.29-3.66c2.02-5.44,4.52-4.47,5.96-8.57c-0.88,0.32-1.9,0.33-2.52,0.32c0.86-0.96,1.99-2.28,2.61-4.23
		c0.64-2.04,2.11-3.78,3.18-5.41c-2.16,0.3-3.6-0.94-3.44-2.23c3.84,2.94,4.54-6.36,7.47-7.79c-0.71-0.21-1.39-0.77-1.5-2.14
		c0,0,0,0,0,0c0-0.01,0-0.02,0-0.04c0,0,0,0,0,0c-2.47,1.53-3.42,4.97-4.64,7.24c-0.6,0.04-9.35,0.69-10.24,0.76
		c-1.1-0.52-2.45-1.06-3.88-1.34c0-0.01-0.01-0.01-0.01-0.02c-3.07-8.23-5.45-17.16-11.57-23.75c2.06-0.55,2.21-2.97,1.28-4.57
		c-1.09-2.11-3.47-3.21-5.76-3.43c52.93-34.98,16.5-80.73-8.81-47.14c-9.14-9.72-27.45-12.68-32.84,2.4
		C184.04,154.67,207.84,171.05,225.67,178.46z M315.27,242.69c0.85-0.44,1.31-1.42,1.27-2.35c-0.14-3.03,3.55-5.99,4.98-6.86
		c0.58-0.35,0.91-0.94,1.09-1.58c4.56,1.59,4.41,6.32-0.63,5.18c4.38,2.5,1.87,6.56-1.63,3.91c0.05,0.03,1.77,4.67-0.72,4.48
		C317.88,245.47,316.38,244.13,315.27,242.69z M313.2,229.36c0.56-0.39,1.01-0.9,1.34-1.45c1.66,0.98,3.94,2.34,5.6,3.32
		c-0.3,0.19-3.65,2.27-5.36,5.54c-1.32-1.95-1.65-0.75-1.38-3.94C313.5,231.62,313.45,230.46,313.2,229.36z M252.42,212.94
		c2.02-0.15,4.92-0.36,6.95-0.52c0.03,1.32,0.61,2.7,1.79,3.61c-0.69,1.12-1.17,2.15-1.45,3.07c-0.68,2.37-2.39,2.82-2.68,4.7
		c-1.25,0.08-3.34,0.2-4.6,0.28c0,0,0.03-0.07,0.04-0.08C252.68,223.56,255.5,217.04,252.42,212.94z M250.03,211.85
		c-0.4,0.88-0.29,1.9,0.29,2.67c1.82,2.43,0.42,6.95-0.27,8.47c-0.28,0.62-0.23,1.28-0.02,1.91c-5.2,1.29-6.78-3.11-2.38-4.64
		c-5.18,0.35-5.09-4.44-0.85-4.15C241.93,213.03,245.02,210.17,250.03,211.85z M230.03,179.06c0.09-0.05,0.17-0.1,0.26-0.15
		c1.53,0.16,3.1,0.03,4.57,0.6c4.27,2.03,3.08,5.74-1.51,3.41C231.88,182.07,230.81,180.55,230.03,179.06z M227.52,179.13
		c0.33,0.12,0.67,0.24,1,0.35c1.37,3.53-3.46,6.94-3.08,3.09C225.65,181.21,226.46,179.97,227.52,179.13z M193.86,132.34
		c3.94-10.03,14.75-9.99,23.05-5.49c2.91,1.38,5.64,3.23,7.65,5.76c3.72-6.35,10.82-11.14,18.07-12.35
		c13.26-0.7,18.2,16.14,13.87,26.54c-4.71,13.6-16.53,22.69-27.68,30.89c-6.92-3.68-14.25-6.54-20.44-11.54
		C198.26,158.56,188.27,145.57,193.86,132.34z"/>
</g>
<g>
	<path class="st5" d="M216.78,264.58c-4.34,0-10.07,1.04-23.08,1.04c-9.63,0-16.83-0.35-20.74-0.35c-7.46,0-9.28,2.43-9.28,4.25
		c0,1.65,0.78,2.69,0.78,7.64c0,6.77-3.73,22.21-8.5,22.21c-5.29,0-9.46-14.32-10.24-21.52c-0.43-3.99,0.26-6.94,0.26-8.33
		c0-3.3-4.6-4.25-11.45-4.25c-7.72,0-11.19,1.56-11.19,4.25c0,1.65,1.39,2.6,4.08,8.07c3.12,6.25,4.95,11.97,9.46,26.47
		c3.38,10.76,4.86,16.92,8.59,19.96c2.69,2.17,5.55,3.04,9.46,3.04c4.34,0,7.12-0.87,9.89-3.73c3.99-4.17,4.08-12.93,5.81-20.57
		c1.48-6.25,4.25-20.04,10.59-25.25c3.04-2.52,7.9-2.78,14.06-2.78c5.21,0,8.42,0.17,11.71,1.04c3.04,0.78,4.77,2.26,5.99,4.43
		c1.56,2.86,1.13,5.9,3.12,5.9c3.99,0,4.25-11.89,4.25-14.75C220.34,267.71,219.64,264.58,216.78,264.58z"/>
	<path class="st5" d="M215.48,302.24c-0.52,0-0.61,0.26-0.87,1.21s-0.69,1.65-1.48,1.65c-0.95,0-1.3-1.13-1.3-2
		c0-4.86,0.17-8.5-1.13-13.02c-1.65-5.81-6.59-10.33-16.14-10.33c-10.67,0-15.1,6.16-15.1,11.28c0,4.69,3.38,6.94,7.38,6.94
		c2.78,0,5.38-1.74,5.38-4.25c0-1.74-1.21-2.78-2.69-2.78c-1.39,0-2.17,1.04-2.26,2c-0.43-0.09-0.78-0.61-0.78-1.3
		c0-1.48,1.56-2.95,4.25-2.95c4.08,0,5.38,2.17,5.38,3.9c0,2.69-2.43,4.51-6.07,6.51c-7.03,3.82-13.88,8.24-13.88,16.83
		c0,8.59,7.46,11.8,13.54,11.8c4.17,0,9.37-2.6,11.45-6.07c1.65,3.64,5.21,5.38,8.68,5.38c6.42,0,10.5-5.21,10.5-14.84
		C220.34,306.41,217.04,302.24,215.48,302.24z M192.13,312.66c-1.3,0-2.43-1.04-2.43-2.86c0-2.52,3.21-5.38,5.38-5.38
		c1.3,0,1.65,1.13,1.65,2.17C196.73,309.62,194.65,312.66,192.13,312.66z"/>
	<path class="st5" d="M240.38,289.05c0-4.08,0.43-9.37,1.74-13.1c1.21-3.73,1.82-5.03,1.82-6.68c0-3.04-6.51-3.99-10.24-3.99
		c-3.73,0-10.24,0.95-10.24,3.99c0,1.65,0.61,2.95,1.82,6.68c1.3,3.73,1.74,9.02,1.74,13.1c0,6.25-0.61,11.63-1.74,18.14
		c-0.69,3.82-2.43,11.54-2.43,14.23c0,4.17,5.12,5.64,10.93,5.64s10.76-1.48,10.76-5.64c0-2.69-1.74-10.41-2.43-14.23
		C240.99,300.68,240.38,295.3,240.38,289.05z"/>
	<path class="st5" d="M281.08,302.68c-0.61,0-1.13,0.61-1.91,1.39c-2.08,2.08-4.86,4.08-8.68,4.08c-4.25,0-7.9-1.91-9.11-6.16
		c1.21,1.65,3.3,2.78,6.77,2.78c7.12,0,12.5-6.16,12.5-13.28c0-5.38-3.99-11.71-12.76-11.71c-10.76,0-20.13,11.19-20.13,27.51
		c0,12.06,7.72,20.48,18.74,20.48c10.5,0,17.27-8.5,17.27-18.22C283.77,306.15,283.07,302.68,281.08,302.68z M268.84,288.36
		c2.43,0,3.38,1.82,3.38,3.12c0,3.3-3.3,6.68-7.03,6.59c0.52-0.17,1.04-0.95,1.04-2c0-1.13-1.04-2.43-2.6-2.43
		c-0.69,0-1.21,0.17-1.74,0.52C263.38,290.7,266.15,288.36,268.84,288.36z"/>
	<path class="st5" d="M330.97,302.24c-0.52,0-0.61,0.26-0.87,1.21s-0.69,1.65-1.48,1.65c-0.95,0-1.3-1.13-1.3-2
		c0-4.08,0.78-6.51,0.78-10.85c0-6.07-4.17-11.8-10.93-11.8c-4.77,0-8.33,2.26-10.76,4.6c0.09-0.95,0.09-1.74,0.09-2.43
		c0-1.56-4.6-2.17-8.33-2.17c-3.73,0-10.59,0.95-10.59,3.99c0,1.65,0.69,3.04,2.08,6.68c2,5.21,1.39,13.88-0.09,19.44
		c-0.95,3.73-2.6,8.16-2.6,10.85c0,4.17,5.47,5.64,11.28,5.64c5.64,0,11.11-1.48,11.11-5.64c0-2.6-1.82-6.33-2.6-9.37
		c-1.3-5.12-2-9.72-1.65-14.14c0.26-3.64,2.26-6.86,5.21-6.86c2.95,0,3.99,2.52,3.99,4.95c0,5.38-2.52,12.06-2.52,18.48
		c0,8.94,5.38,12.58,11.28,12.58c7.64,0,12.06-5.21,12.06-14.84C335.14,306.41,332.54,302.24,330.97,302.24z"/>
	<path class="st5" d="M358.31,290.7c4.34,0,6.77-2.86,6.77-7.12c0-3.56-1.48-5.47-3.04-5.47c-0.52,0-0.61,0.26-0.87,1.21
		c-0.26,0.95-1.04,1.65-3.12,1.65h-2.34v-5.38c0-2.26-1.04-3.64-2.95-3.64c-1.82,0-2.6,1.82-3.56,4.17
		c-0.43,1.13-1.21,2.69-2.69,3.56c-1.91,1.13-4.25,1.3-6.86,2.6c-2.69,1.3-3.99,3.73-3.99,6.33c0,2.86,1.82,4.95,3.38,4.95
		c0.52,0,0.69-0.35,0.87-1.21c0.26-1.13,0.69-1.65,1.39-1.65c2.17,0,1.74,6.33,1.21,10.76c-0.61,5.03-1.82,10.07-1.82,13.02
		c0,8.94,5.38,12.58,11.28,12.58c7.64,0,12.41-5.21,12.41-14.84c0-5.81-2.95-9.98-4.51-9.98c-0.52,0-0.61,0.26-0.87,1.21
		c-0.26,0.95-0.69,1.65-1.48,1.65c-0.95,0-1.39-0.95-1.56-1.82c-0.69-3.82-0.43-8.68-0.43-12.58H358.31z"/>
	<path class="st5" d="M385.9,299.73c0-3.21,0.78-6.68,1.91-9.63c1.13-2.95,1.74-3.99,1.74-5.64c0-3.04-6.51-3.99-10.24-3.99
		c-3.73,0-10.24,0.95-10.24,3.99c0,1.65,0.61,2.69,1.74,5.64c1.13,2.95,1.91,6.42,1.91,9.63c0,3.82-0.87,7.81-1.65,10.85
		c-0.95,3.73-2.6,8.16-2.6,10.85c0,4.17,5.12,5.64,10.93,5.64c5.64,0,10.76-1.48,10.76-5.64c0-2.69-1.65-7.12-2.6-10.85
		C386.77,307.54,385.9,303.54,385.9,299.73z"/>
	<path class="st5" d="M379.31,278.29c5.73,0,9.63-2.78,9.63-6.86s-3.9-6.86-9.63-6.86c-5.81,0-9.72,2.78-9.72,6.86
		S373.49,278.29,379.31,278.29z"/>
	<path class="st5" d="M437.79,302.24c-0.52,0-0.61,0.26-0.87,1.21s-0.69,1.65-1.48,1.65c-0.95,0-1.3-1.13-1.3-2
		c0-4.08,0.78-6.51,0.78-10.85c0-6.07-4.17-11.8-10.93-11.8c-4.77,0-8.33,2.26-10.76,4.6c0.09-0.95,0.09-1.74,0.09-2.43
		c0-1.56-4.6-2.17-8.33-2.17c-3.73,0-10.59,0.95-10.59,3.99c0,1.65,0.69,3.04,2.08,6.68c2,5.21,1.39,13.88-0.09,19.44
		c-0.95,3.73-2.6,8.16-2.6,10.85c0,4.17,5.47,5.64,11.28,5.64c5.64,0,11.11-1.48,11.11-5.64c0-2.6-1.82-6.33-2.6-9.37
		c-1.3-5.12-2-9.72-1.65-14.14c0.26-3.64,2.26-6.86,5.21-6.86c2.95,0,3.99,2.52,3.99,4.95c0,5.38-2.52,12.06-2.52,18.48
		c0,8.94,5.38,12.58,11.28,12.58c7.64,0,12.06-5.21,12.06-14.84C441.96,306.41,439.35,302.24,437.79,302.24z"/>
	<path class="st5" d="M478.49,302.68c-0.61,0-1.13,0.61-1.91,1.39c-2.08,2.08-4.86,4.08-8.68,4.08c-4.25,0-7.9-1.91-9.11-6.16
		c1.21,1.65,3.3,2.78,6.77,2.78c7.12,0,12.5-6.16,12.5-13.28c0-5.38-3.99-11.71-12.76-11.71c-10.76,0-20.13,11.19-20.13,27.51
		c0,12.06,7.72,20.48,18.74,20.48c10.5,0,17.27-8.5,17.27-18.22C481.18,306.15,480.49,302.68,478.49,302.68z M466.26,288.36
		c2.43,0,3.38,1.82,3.38,3.12c0,3.3-3.3,6.68-7.03,6.59c0.52-0.17,1.04-0.95,1.04-2c0-1.13-1.04-2.43-2.6-2.43
		c-0.69,0-1.21,0.17-1.74,0.52C460.79,290.7,463.57,288.36,466.26,288.36z"/>
	<path class="st5" d="M104.58,259.38c-2.43,0-4.6,1.56-4.6,3.73c0,1.82,1.3,3.21,2.95,3.21c1.39,0,2.26-0.95,2.43-1.74
		c0.26,0.17,0.52,0.69,0.52,1.39c0,1.04-1.48,2.69-5.12,2.69c-16.14,0-16.49-27.59-16.49-38.01c0-6.77,0.35-17.7,2-23.17
		c1.21-4.17,2.26-5.47,2.26-7.29c0-3.3-6.77-4.25-10.85-4.25c-4.08,0-10.41,0.35-10.41,4.25c0,1.21,1.04,1.91,2,4.86
		c0.69,2.08,0.95,3.73,0.95,5.9c0,5.64-3.12,7.72-8.33,7.72c-3.99,0-5.47-1.39-5.47-5.64c0-3.12,0.78-5.38,1.65-7.9
		c0.87-2.43,1.82-3.82,1.82-4.95c0-3.9-6.85-4.25-10.93-4.25s-10.59,0.95-10.59,4.25c0,1.82,0.87,3.21,2.26,7.29
		c1.39,4.08,2,8.76,2,13.19c0,6.77-1.56,13.54-2.95,19.87c-0.95,4.08-2,8.16-2,11.11c0,4.51,5.03,6.07,11.37,6.07
		c6.33,0,11.37-1.56,11.37-6.07c0-3.64-3.3-7.64-3.3-15.62c0-4.69,2-8.68,7.29-8.68c1.3,0,2.86,0.52,3.99,1.82
		c1.65,2,1.65,4.08,1.65,6.86c0,16.05-1.48,31.33,4.51,41.04c3.73,6.07,9.98,11.28,19.87,11.28c14.14,0,19.26-10.5,19.26-18.31
		C113.69,262.15,108.74,259.38,104.58,259.38z"/>
	<path class="st5" d="M126.45,233.34c-0.61,0-1.13,0.61-1.91,1.39c-2.08,2.08-4.86,4.08-8.68,4.08c-4.25,0-7.9-1.91-9.11-6.16
		c1.21,1.65,3.3,2.78,6.77,2.78c7.12,0,12.5-6.16,12.5-13.28c0-5.38-3.99-11.71-12.76-11.71c-10.76,0-20.13,11.19-20.13,27.51
		c0,12.06,7.72,20.48,18.74,20.48c10.5,0,17.27-8.5,17.27-18.22C129.14,236.82,128.44,233.34,126.45,233.34z M114.21,219.03
		c2.43,0,3.38,1.82,3.38,3.12c0,3.3-3.3,6.68-7.03,6.59c0.52-0.17,1.04-0.95,1.04-2c0-1.13-1.04-2.43-2.6-2.43
		c-0.69,0-1.21,0.17-1.74,0.52C108.75,221.37,111.52,219.03,114.21,219.03z"/>
	<path class="st5" d="M132.09,252.09c0,4.17,5.12,5.64,10.93,5.64c5.81,0,10.76-1.48,10.76-5.64c0-2.69-1.74-10.41-2.43-14.23
		c-1.13-6.51-1.74-11.89-1.74-18.14c0-4.08,0.43-9.37,1.74-13.1c1.21-3.73,1.82-5.03,1.82-6.68c0-3.04-6.51-3.99-10.24-3.99
		c-3.73,0-10.24,0.95-10.24,3.99c0,1.65,0.61,2.95,1.82,6.68c1.3,3.73,1.74,9.02,1.74,13.1c0,6.25-0.61,11.63-1.74,18.14
		C133.82,241.67,132.09,249.4,132.09,252.09z"/>
	<path class="st5" d="M156.73,252.09c0,4.17,5.12,5.64,10.93,5.64c5.81,0,10.76-1.48,10.76-5.64c0-2.69-1.74-10.41-2.43-14.23
		c-1.13-6.51-1.74-11.89-1.74-18.14c0-4.08,0.43-9.37,1.74-13.1c1.21-3.73,1.82-5.03,1.82-6.68c0-3.04-6.51-3.99-10.24-3.99
		s-10.24,0.95-10.24,3.99c0,1.65,0.61,2.95,1.82,6.68c1.3,3.73,1.74,9.02,1.74,13.1c0,6.25-0.61,11.63-1.74,18.14
		C158.47,241.67,156.73,249.4,156.73,252.09z"/>
	<path class="st5" d="M202.46,210.44c-10.93,0-20.83,12.24-20.83,27.94c0,11.8,7.9,20.04,19,20.04c11.37,0,19.7-9.11,19.7-23.69
		C220.34,221.8,212.35,210.44,202.46,210.44z M200.29,236.73c-3.47,0-5.38-3.3-5.38-6.68c0-5.47,3.21-10.33,6.77-10.33
		c3.12,0,5.03,3.3,5.03,7.9C206.71,232.56,203.85,236.73,200.29,236.73z"/>
</g>
</svg>
