<?xml version="1.0" encoding="utf-8"?>
<!-- Generator: Adobe Illustrator 25.0.0, SVG Export Plug-In . SVG Version: 6.00 Build 0)  -->
<svg version="1.1" id="Layer_1" xmlns="http://www.w3.org/2000/svg" xmlns:xlink="http://www.w3.org/1999/xlink" x="0px" y="0px"
	 viewBox="0 0 500 500" style="enable-background:new 0 0 500 500;" xml:space="preserve">
<style type="text/css">
	.st0{fill:#B51B2C;}
	.st1{fill:#030304;}
	.st2{fill:#020203;}
	.st3{fill:#13110C;}
	.st4{fill:#CE536A;}
	.st5{fill:#F192AC;}
	.st6{fill:#E3748C;}
	.st7{fill:#C0364A;}
	.st8{fill:#EE7289;}
</style>
<g>
	<g>
		<g>
			<path class="st1" d="M261.58,279.16c-2.07-1.67-4.03-2.62-5.82-2.81c-2.83-0.38-5.59,1.59-6.02,4.36
				c-2.81,0.89-3.87,3.64-3.34,6.13c-5.67,5.38,2.62,10.97,9.47,10.06C265.14,296.87,268.03,283.86,261.58,279.16z M258.75,292.82
				c-4.26,3.42-17.39-2.46-7.05-4.76c-4.5-1.68-1.65-6.29,2.67-3.65c-1.04-0.45-3-5.19,1.06-4.94
				C260.81,280.58,265.59,287.43,258.75,292.82z"/>
		</g>
		<g>
			<path class="st1" d="M183.07,287.67c-0.23,13.94,27.49,10.53,18.78-0.84c0.54-2.48-0.53-5.24-3.34-6.13
				c-0.42-2.78-3.19-4.73-6.02-4.36C187.67,277.11,182.84,281.42,183.07,287.67z M188.67,281.62c3.77-3.86,9.5-1.81,5.24,2.81
				c4.33-2.65,7.16,1.98,2.67,3.65c8.6,1.63,0.96,6.57-4.06,5.66C185.04,293.33,185.21,283.69,188.67,281.62z"/>
		</g>
		<path class="st1" d="M169.46,307.25c4.82-0.3,3.97-7.26,4.95-12.65c-3.47,4.81-9.96,2.79-12.19-2.3c3.6,2.53,6.16,0.93,8.77-4.95
			c3.06-7-1.14-12.29-1.49-18.11c-1.83,2.3-5.46,2.23-6.81,1.28c6.89-1.01,2.37-16.78,10.42-19.07c-3.49,0.96-6.73-2.08-6.22-3.64
			c5.66,5.33,7.13-8.81,11.91-13.95l-2.17-3.59c-3.62,3.98-5.48,9.72-7.73,14.21c-5.85-2.65-7.87,5.65-3.41,8.87
			c-1.98,1.94-1.75,12.76-3.54,13.32c-1.88,0.33-3.32,2.15-3.18,4.07c0.99,5.03,6.31,4.26,7.9,4.24c0.07,0.22,0.14,0.45,0.21,0.68
			l-7,1.81c-1.32-0.88-3.6-1.57-7.53-1.62c2.36-13.3-14.49-25.18-22.82-9.19c-4.84,1.91,11.18,26.59,19.18,32.37
			c4.03,5.34,6.19,4.73,12.47-1.46c2.31,2.49,5.27,3.9,8.46,3.71c-0.14,0.86-0.31,1.63-0.52,2.05c-0.44,0.05-2.05,0.27-2.52,0.33
			l-0.09-0.08C166.53,303.6,166.9,307.25,169.46,307.25z"/>
		<path class="st1" d="M310.96,266.66c-8.34-15.98-25.17-4.12-22.82,9.19c-2.11,0.03-3.65,0.27-4.93,0.59
			c-0.22-5.04-0.62-12.43-6.6-18.53c3.83-4.38-2.91-6.34-3.89-10.36c-0.44-2.49-1.2-4.46-2.08-6.01c5.64-2.85,3-13.35-3.33-8.84
			c-0.15-0.13-0.38-0.56-0.62-1.05c0,0-1.63,2.28-2.77,2.8c0.91,2.32,5.12,2.55,6.08,1.1c0.43,2.14-3.4,4.32-6.97,3.65
			c6.19,2.93,4.82,12.47,10.77,16.02c-1.31,0.02-3.38,0.01-5.1-0.51c0.89,3.35,3.24,3.8,5.56,6.42c8.11,6.14,0.86,26.1,11.84,20.17
			c-1.36,4.67-12.39,8.98-13.64,1.08c-2.16,2.88-6.3,7.1-6.02,10.4c-0.26,5.09,5.57,5.55,7.88,4.09c-1.74,4.86-12.5,6.25-14.83-0.71
			c-2.59,7.51,3.3,12.77,9.11,10.86c-5.02,6.09-16.56,0.52-17.94-1.66c-3.97,6.35,0.15,11.7,5.81,11.17
			c-7.87,3.19-17.27,0.52-26.45-3.22c-0.61,4.07,5.12,8.31,8.31,8.64c-16.74,6.24-29.25-5.7-30.12-11.91
			c-4.58,3.35,0.52,15.04,0.58,15.1c-14.91-7.44-18.29-20.67-18.02-25.31c-1.08,8.33-4.45,10.74-12.84,13.07
			c-9.48,3.37-11.94-6.9-11.37-9.26c-0.82-0.5-2.51-1.53-3.34-2.04c-3.56,17.79,16.21,19.13,26.5,9.87
			c3.01,6.06,9.65,14.66,19.08,17.56c3.94-0.03,4.7-4.49,2.84-7.27c3.38,5.61,31.19,9.54,30.53-0.64c5.91,1.32,22.43,1.6,16.99-7.46
			c4.91,1.14,16.83-2.86,12.24-9.4c4.36-1.87,7.22-5.52,6.71-7.83c3.37,3.22,8.23,7.51,9.09,6.44
			C295.63,299.11,316.52,269.01,310.96,266.66z"/>
	</g>
	<path class="st2" d="M248.5,250.49c0.35-0.62,0.68-1.26,0.97-1.93c1.31,0.99,2.9,2.76,4.42,1.09c1.82-4.08-5.96-6.29-8.83-7.72
		c-1.41-0.52-2.82,0.87-2.48,2.29c0.33,1.64,2.21,1.6,3.47,2.34c-0.44,1.1-0.97,2.09-1.56,3
		C245.86,249.7,247.21,250.06,248.5,250.49z"/>
	<path class="st2" d="M197.92,248.36c1.35-1.11,3.97-2.08,2.69-4.21c-0.59-0.93-1.73-1.21-2.66-0.62c-3.07,1.93-5.78,4.4-8.03,7.33
		c-0.65,0.84-0.5,1.97,0.34,2.61c2.14,1.55,3.41-1.23,4.72-2.49c0.86,0.96,1.79,1.86,2.77,2.7c1.36-0.69,2.79-1.25,4.27-1.63
		C200.53,250.94,199.15,249.71,197.92,248.36z"/>
</g>
<g>
	<path class="st0" d="M218.98,139.37c-18.86-10.99,1.07-21.57,7.03-12.97c1.9-29.56-66.62-13.19-32.84,23.95
		c16.11,21.05-35.31,49.62-17.05,78.91c4.45,12.1,15.22,6.79,22.23,1.64c-0.28,25.1,54.57,21.39,44.9-7.13
		c6.83,3.41,13.1,13.71,20.15,11.25c11.56-11.35,2-22.69-9.9-35.86C232.96,179.84,244.68,155.65,218.98,139.37z M210.55,154.19
		c3.35-0.73,5.21,2.24,5.48,2.69c2.4-6.67,13.35-2.02,8.64,5.52c-0.57,0.86-7.74,6.74-8.02,7.13c-0.33-0.35-7.9-5.38-8.57-6.17
		C205.04,159.68,206.67,155.37,210.55,154.19z M221.83,191.8c-0.57,0.86-7.74,6.74-8.02,7.13c-0.33-0.35-7.9-5.38-8.57-6.17
		c-5.55-6.95,4.81-12.82,7.94-6.48C215.59,179.61,226.54,184.26,221.83,191.8z M189.99,139.06c-5.55-6.96,4.81-12.82,7.94-6.48
		c2.4-6.67,13.35-2.02,8.64,5.52c-0.57,0.86-7.74,6.74-8.02,7.13C198.23,144.87,190.66,139.85,189.99,139.06z M193.88,219.63
		c-0.33-0.35-7.9-5.38-8.57-6.17c-5.55-6.95,4.81-12.82,7.94-6.48c2.4-6.67,13.35-2.02,8.64,5.52
		C201.32,213.36,194.16,219.24,193.88,219.63z M222.93,243.55c-27.38,1.89-26.8-25.49-2.24-27.83
		C244.77,213.93,248.47,242.65,222.93,243.55z M253.07,210.08c-0.57,0.86-7.74,6.74-8.02,7.13c-0.33-0.35-7.9-5.38-8.57-6.17
		c-5.55-6.95,4.81-12.82,7.94-6.48C246.83,197.89,257.79,202.54,253.07,210.08z"/>
	<path class="st0" d="M224.05,262.85c-9.81-19.72-43.33-11.89-37.27,16.25c3.94-3.65,10.49-4.11,11.75,1.61
		c2.81,0.89,3.88,3.65,3.34,6.13c3.13,2.4,1.95,6.6-1.46,8.49c9.95,7.12,25.23,17.38,26.15,18.37c0.71-0.97,12.17-10.52,21.26-18.42
		c-3.39-1.91-4.51-6.07-1.41-8.46c-0.54-2.48,0.53-5.24,3.34-6.13c1.32-5.92,8.2-5.16,12.09-1.31
		C270.76,248.96,232.48,239.64,224.05,262.85z"/>
	<path class="st0" d="M109.58,219.86c0-12.07,1.66-24.86,5.45-35.99s6.16-14.92,6.16-19.89c-1.67-15.82-58-15.74-59.66,0
		c0,4.97,2.37,8.76,6.16,19.89c25.19,73.5-45.71,138.57,23.67,137.08c39.26,0.32,33.52-18.53,26.28-46.88
		C113.84,256.79,109.58,238.33,109.58,219.86z"/>
	<path class="st0" d="M457.87,163.99c-0.81-16.35-54.81-15.2-55.88,0c0,4.97,2.37,8.76,6.16,19.89
		c26.61,88.14-44.61,102.51-45.46,39.54c0-12.08,1.19-30.54,4.03-39.54c3.55-11.13,6.16-14.92,6.16-19.89
		c-1.71-15.81-57.97-15.76-59.66,0c0,4.97,2.37,8.76,6.16,19.89c11.52,32.11-2.44,62.67,7.58,96.83
		c13.5,56.37,102.45,55.33,118.38,1.89c7.58-22.25,2.37-37.88,2.37-61.32c0-12.07,1.42-24.62,4.97-37.41
		C455.74,172.51,457.87,168.96,457.87,163.99z"/>
</g>
</svg>
