<?xml version="1.0" encoding="utf-8"?>
<!-- Generator: Adobe Illustrator 25.0.0, SVG Export Plug-In . SVG Version: 6.00 Build 0)  -->
<svg version="1.1" id="Layer_1" xmlns="http://www.w3.org/2000/svg" xmlns:xlink="http://www.w3.org/1999/xlink" x="0px" y="0px"
	 viewBox="0 0 500 500" style="enable-background:new 0 0 500 500;" xml:space="preserve">
<style type="text/css">
	.st0{fill:#B51B2C;}
	.st1{fill:#030304;}
	.st2{fill:#020203;}
	.st3{fill:#13110C;}
	.st4{fill:#CE536A;}
	.st5{fill:#F192AC;}
	.st6{fill:#E3748C;}
	.st7{fill:#C0364A;}
	.st8{fill:#EE7289;}
</style>
<g>
	<path class="st0" d="M295.72,174.58c43.54-64.58-44.43-125.03-78.48-49.56c-10.02-12.47-26.45-19.36-42.27-19.6
		c-19.48,0.54-36.23,16.47-39.88,35.27c-7.49,36.89,26.23,66.79,60.17,72.12c13.51,3.89,27.81,6.64,40.11,13.64
		C252.59,205.99,280.63,197.15,295.72,174.58z"/>
	<path class="st0" d="M322.02,188.82c-2.35-8.13-12.06-10.52-19.38-8.27c-10.82,1.57-19.27,15.49-12.5,25.15
		C300.76,218.64,327.12,205.23,322.02,188.82z"/>
	<path class="st0" d="M318.31,231.54c13.27,3.66,21.07-17.65,5.97-19.69C314.42,210.87,307.72,227.76,318.31,231.54z"/>
	<path class="st0" d="M416.27,310.61c-3.31-2.44-6.97-1.67-9.82,0.51c-2.76,0.55-5.16,2.93-6.6,5.29c-1.45-0.51-0.48-2.02-0.36-3.08
		c2.16-7.21,6.64-16.86,5.27-29.16c-0.23-36.48-49.41-57.77-80.04-41.39c-18.7-5.93-29.63,18.29-20.93,32.74
		c-2.67,4.1-4.05,13.81-2.14,17.86c-0.01,0.02-0.02,0.03-0.03,0.05c0.82,0.95,1.89,2.13,3.06,3.29c1.09-2.09,4.34-10.5,5.77-13.6
		c12.54,10.05,35.95,7.79,42.23-8.57c6.17,11.19,10.64,21.79,22.68,28.14c-1.6,4.86,5.14,6.24,6.57,9.84
		c-0.23,3.29,3.58,6.93,6.91,5.9c0.22,2.37,1.62,4.82,2.97,6.54c0.09,0.1,0.85,0.94,2.15,2.16c0.09,0.06,0.17,0.1,0.24,0.12
		c-0.03,0-0.07,0-0.11,0c2.22,2.07,5.9,5.16,10.4,7.58c0.26-0.08,0.51-0.15,0.77-0.18c0.46-0.61,1.36-0.68,1.95-1.15
		c3.56,1.15,8.64,1.26,11.25-1.87c3.55-0.63,6.01-4.14,5.34-7.55C425.8,320.03,420.63,311.13,416.27,310.61z M343.06,280.54
		c-14.83,11.56-42.16-0.41-37.7-20.56c1.31-10.04,10.01-16.72,19.93-12.7c5.4,1.97,11.19,5.15,13.82,10.54
		c0.58,1.66,2,0.59,3.19,0.58c5.11,0.46,6.97,6.47,7.04,10.87C349.57,273.8,346.65,278.03,343.06,280.54z M415.81,327.6
		c-0.07,1.93-2.67,3.05-4.22,1.93c3.99-6.07-3.7-8.88-7.95-11.23c0.24-0.81,0.94-1.2,1.75-1.29c0.11-1.55,1.81-2.07,3.13-1.76
		c0.77-2.14,5.05-2.91,5.73-0.36c1.65-0.77,3.42,0.61,3.07,2.38c1.21,0,2.09,1.4,1.51,2.47c1.68,0.55,1.76,3,0.12,3.7
		C421.18,325.57,418.31,328.36,415.81,327.6z"/>
</g>
<g>
	<path d="M409.95,360.74c-4.96-0.39-7.35,0.51-8.4,1.65l-1.49-0.34c5.02-0.82,8.39-4.91,9.66-7.46c1.98-3.66-2.68-7.73-6.04-5.3
		c-0.33-4.32-0.23-8.2-2.5-13.39c1.1-0.15,2.17-0.75,3.23-1.06c-4.49-2.42-8.16-5.49-10.37-7.56c0,0,0,0,0,0c0,0,0,0,0,0
		c-1.28,0.03-3.27,0-4.94-0.51c0.86,3.28,3.16,3.72,5.41,6.26c8.27,7.54,0.94,25.43,11.5,19.7c-0.21,1.3-5.56,7.19-10.26,4.89
		c-1.68-0.58-2.93-2.27-3-3.89c-1.39,1.91-3.1,3.69-4.33,5.67c-4.55,7.61,1.99,10.74,6.14,8.45c-2.15,4.88-11.77,6.17-14.45-0.7
		c-2.45,6.1,2.84,12.83,8.88,10.59c-5.51,5.98-15.65,0.61-17.48-1.62c-3.75,6.45-0.09,11.22,5.67,10.87
		c-7.67,3.11-16.82,0.51-25.77-3.14c-0.51,4.07,4.88,8.05,8.1,8.43c-16.6,5.99-28.29-5.37-29.37-11.6
		c-4.46,3.26,0.52,14.67,0.58,14.71c-14.41-7.19-17.78-19.95-17.57-24.55c-1.08,8.03-4.38,10.36-12.51,12.63
		c-9.25,3.28-11.65-6.74-11.08-9.04c-0.15,0.53,1.19,4.76,4.07,3.32c3.36-1.27,2.88-8.42,3.61-12.08
		c-3.52,4.39-9.15,3.35-11.88-2.23c3.13,3.07,7.59-0.49,9.01-6.36c1.96-6.89-2.2-12.51-1.91-16.12c-1.79,2.25-5.3,2.18-6.63,1.26
		c7.13-1.54,1.84-15.58,10.1-18.57c-3.69,0.81-6.34-1.93-6-3.56c2.4,1.93,7.42,1.44,9.56-4.43c0,0,0.09-12.41,4.96-18.67
		c0.05-0.08,0.1-0.18,0.16-0.29c-1.14-1.12-2.17-2.26-2.97-3.19c-0.03-0.03-0.05-0.06-0.07-0.09c-0.01,0-0.02,0-0.03,0
		c-4.68,6.55-6.41,18.16-6.2,21.52c-2.23,3.74-2.92,0.93-5.43,0.93c-5.07,0.25-5.23,6.53-1.76,9.69c-1.89,2.11-1.58,11.73-3.2,12.59
		c-6.75,2.53-2.25,9.96,4.52,8.79c1.11,3.34,2.19,7.12,0.28,10.76l-11.03,1.49c-1.05-1.14-3.34-2.14-8.04-2.2
		c0,0,1.39-11.74-7.85-15.65c-9.24-3.91-14.39,6.7-14.39,6.7c-5.11,3.06,14.68,31.09,23.2,35.26c2.65,1.27,11.21-10.2,14.07-9.91
		c-1.76,5.9,3.74,15.55,11.34,14.77c5.07-0.16,11.67-2.64,14.96-5.5c2.75,5.53,9.29,14.08,18.71,16.88
		c3.14,0.12,5.23-3.71,3.58-6.34c3.79,2.85,8.81,4.81,15.15,4.81c3.94-0.53,14.31,0.24,14.2-6.12c5.94,1.05,20.56,1.67,16.97-7.24
		c4.76,0.6,14.98-2.82,11.86-9.17l3.37,1.34c1.77,2.13,9.54,11.36,10.81,10.03c8.92-3.48,31.02-29.44,26.24-33.05
		C426.19,337.56,408.82,347.62,409.95,360.74z"/>
	<path d="M116.04,98.7c3.34-2.11,5.46-1.58,7.74-2.99c1.06-0.88,1.23-2.64,0.88-3.17c-0.7-0.88-12.85,0.88-27.1,0.88
		s-26.57-1.76-27.27-0.88c-0.35,0.53-0.35,2.29,0.88,3.17c2.11,1.41,4.75,0.88,8.27,2.99c2.29,1.58,3.7,3.52,3.7,8.8v93.26
		c0,5.28-1.41,7.21-3.7,8.8c-3.52,1.94-6.16,1.41-8.27,2.99c-1.23,0.88-1.23,2.64-0.88,3.17c0.7,0.88,13.02-0.88,27.27-0.88
		s26.4,1.76,27.1,0.88c0.35-0.53,0.18-2.29-0.88-3.17c-2.29-1.41-4.4-0.88-7.74-2.99c-2.46-1.58-3.7-3.52-3.7-8.8V107.5
		C112.35,102.22,113.58,100.28,116.04,98.7z"/>
	<path d="M442.47,91.79c-0.7-0.88-7.57,0.7-20.76,0.7s-20.24-1.58-20.94-0.7c-0.35,0.53-0.18,2.29,0.88,3.17
		c2.29,1.41,10.21,0.88,13.55,2.99c2.46,1.58,3.7,3.52,3.7,8.8v57.01c0,39.42-23.05,45.22-35.19,45.22
		c-15.66,0-28.51-10.73-28.51-35.19v-67.04c0-5.28,1.23-7.22,3.7-8.8c3.34-2.11,5.46-1.58,7.74-2.99c1.06-0.88,1.23-2.64,0.88-3.17
		c-0.7-0.88-12.85,0.88-27.1,0.88c-14.25,0-26.57-1.76-27.27-0.88c-0.35,0.53-0.35,2.29,0.88,3.17c2.11,1.41,4.75,0.88,8.27,2.99
		c2.29,1.58,3.7,3.52,3.7,8.8v58.07c0,37.83,22.17,51.91,49.45,51.91c27.28,0,49.45-13.2,49.45-51.91v-58.07
		c0-5.28,1.23-7.22,3.7-8.8c3.34-2.11,10.91-1.58,13.02-2.99C442.82,94.08,442.82,92.32,442.47,91.79z"/>
</g>
</svg>
