<?xml version="1.0" encoding="utf-8"?>
<!-- Generator: Adobe Illustrator 25.0.0, SVG Export Plug-In . SVG Version: 6.00 Build 0)  -->
<svg version="1.1" id="Layer_1" xmlns="http://www.w3.org/2000/svg" xmlns:xlink="http://www.w3.org/1999/xlink" x="0px" y="0px"
	 viewBox="0 0 500 500" style="enable-background:new 0 0 500 500;" xml:space="preserve">
<style type="text/css">
	.st0{fill:#B51B2C;}
	.st1{fill:#030304;}
	.st2{fill:#020203;}
	.st3{fill:#13110C;}
	.st4{fill:#CE536A;}
	.st5{fill:#F192AC;}
	.st6{fill:#E3748C;}
	.st7{fill:#C0364A;}
	.st8{fill:#EE7289;}
</style>
<g>
	<path class="st5" d="M185.98,318.03c-12.85-168.62,108.91-174.79,91.23,0H185.98z"/>
	<g>
		<path class="st5" d="M84.24,178.84C84.24,178.84,84.24,178.89,84.24,178.84C83.93,179.96,83.93,179.91,84.24,178.84z"/>
		<path class="st5" d="M54.45,310.51c2.36,15.23,22.17,9.66,20.39-1.83C36.98,56.37,292.56-6.78,361.91,139.84
			c27.12,52.02,29.75,112.79,28.27,170.85c-0.31,11.13,17.77,13.86,20.39-1.83C467.95-34.82,18.58-64.97,54.45,310.51z"/>
	</g>
</g>
<g>
	<path class="st6" d="M183.56,362.09c-7.98,0-14.8,12.36-14.8,25.1c0,8.11,3.86,18.28,11.33,18.28c8.11,0,14.16-11.45,14.16-23.04
		C194.25,371.36,190.26,362.09,183.56,362.09z M180.73,392.53c-0.48-1.43-0.88-3.32-0.88-5.34c0-4.76,1.3-8.68,2.62-11.22
		c0.38,1.6,0.68,3.74,0.68,6.45C183.16,386.9,181.91,390.43,180.73,392.53z"/>
	<path class="st6" d="M409.33,414.85c0-0.74-0.01-1.51-0.01-2.3c0-3.64-0.1-7.46-0.81-10.78c-1.95-9.06-8.32-12.29-13.63-12.29
		c-1.04,0-2,0.12-2.87,0.33c0.54-2.01,0.83-4.14,0.83-6.36c0-1.32-0.12-2.64-0.35-3.95c3.96-1.39,8.85-4.88,11.05-13.55
		c0.85-3.33,1.27-7.36,1.27-11.98c0-4.71-0.62-8.34-1.95-11.43c-2.61-6.08-8-9.7-14.42-9.7c-2.4,0-4.79,0.31-7.33,0.63
		c-3.35,0.43-7.14,0.91-12.23,0.91c-5.23,0-9.06-0.16-12.45-0.3c-2.58-0.11-5.02-0.21-7.5-0.21c-6,0-10.5,0.65-14.15,2.06
		c-4.26,1.64-7.47,4.43-9.32,7.95c-2.82-4.87-9.51-10.01-25.17-10.01c-23.66,0-24.86,14.49-24.86,17.4c0,2,0.32,3.57,0.57,4.83
		c0.28,1.38,0.59,2.94,0.59,6.5c0,3.93-1.02,9.43-2.33,14.17c-0.05-0.14-0.1-0.29-0.15-0.43c-1.52-4.52-2.78-9.98-3.2-13.91
		c-0.32-2.96-0.04-5.49,0.18-7.52c0.14-1.24,0.27-2.41,0.27-3.63c0-7.22-4.62-13.03-12.35-15.54c-3.91-1.27-8.91-1.86-15.73-1.86
		c-7.09,0-12.55,0.8-16.68,2.44c-6.3,2.5-10.28,7.39-10.92,13.28c-8.26-10.82-19.21-16.75-31.08-16.75
		c-13.32,0-26.46,7.77-36.04,21.33c-7,9.91-11.6,22.18-13.11,34.68c-1-2.03-2.29-3.94-3.96-5.64c-3.83-3.9-8.96-5.96-14.84-5.96
		c-4.94,0-9.61,1.74-13.16,4.89c-0.98,0.87-1.85,1.83-2.61,2.87c-0.02-0.55-0.03-1.11-0.04-1.65c0.01-6.46,0.96-13.56,2.37-17.7
		c0.61-1.8,1.15-3.21,1.62-4.45c1.19-3.12,2.31-6.07,2.31-9.93c0-3.48-1.34-11.96-13.72-15.62c-5.42-1.6-11.22-1.77-13.46-1.77
		c-2.24,0-8.04,0.17-13.46,1.77c-12.39,3.66-13.72,12.15-13.72,15.62c0,3.86,1.12,6.81,2.31,9.93c0.47,1.25,1.01,2.66,1.62,4.45
		c1.53,4.49,2.37,10.17,2.37,15.99c0,8.36-1.94,17.2-3.82,25.75l-0.28,1.27c-0.14,0.58-0.27,1.16-0.41,1.73
		c-1.45,6.16-2.83,11.97-2.83,17.2c0,4.79,1.94,9.2,5.46,12.42c2.64,2.41,6.11,4.16,10.62,5.33c6.25,1.63,15.23,2.35,29.12,2.35
		c16.35,0,25.52-1.23,33.39-8.22c5.96-5.32,7.73-13.33,8.19-20.73c6.83,18.17,22.68,29.99,42.58,29.99
		c13.89,0,26.3-5.83,34.95-16.42c8.39-10.28,12.83-24.42,12.83-40.88c0-3.48-0.23-6.92-0.69-10.3c2.07,5.82,4.43,13.35,7.97,24.69
		c0.66,2.09,1.26,4.06,1.84,5.92c4.26,13.81,7.07,22.93,14.48,28.96c0.01,0.01,0.03,0.02,0.04,0.03c5.89,4.75,12.56,6.96,20.99,6.96
		c6.92,0,15.03-1.06,22.63-8.9c0.02-0.02,0.03-0.03,0.05-0.05c6.65-6.93,8.24-16.94,9.79-26.61c0.51-3.21,1-6.24,1.64-9.09
		c2.6-11.23,5.54-19.39,10.83-30.1c1.72-3.44,3.16-5.98,4.32-8.02c0.99-1.74,1.93-3.4,2.7-5.08c0.17,0.45,0.34,0.91,0.52,1.37
		c0.47,1.25,1.01,2.66,1.62,4.45c1.53,4.49,2.37,10.17,2.37,15.99c0,8.36-1.94,17.2-3.82,25.75l-0.28,1.27
		c-0.14,0.58-0.27,1.15-0.41,1.73c-1.45,6.16-2.83,11.97-2.83,17.2c0,4.75,1.9,9.13,5.34,12.34c2.62,2.45,6.08,4.21,10.58,5.4
		c6.2,1.63,15.15,2.36,29.02,2.36c13.86,0,25.83,0,34.48-8.65C409.43,431.7,409.38,423.13,409.33,414.85z M127.59,413.58
		c0,7.85-1.03,14.42-4.63,17.63c-4.63,4.12-10.04,5.41-26,5.41c-24.71,0-34.11-2.32-34.11-9.01c0-4.38,1.54-10.43,2.96-16.47
		c2.06-9.4,4.38-19.43,4.38-29.47c0-6.56-0.9-13.51-2.96-19.56c-2.06-6.05-3.35-8.11-3.35-10.81c0-4.89,10.04-6.31,16.09-6.31
		s16.09,1.42,16.09,6.31c0,2.7-1.29,4.76-3.35,10.81c-2.06,6.05-2.96,14.8-2.96,21.37c0,0,0.26,15.96,2.19,18.28
		c1.93,2.32,6.69,3.73,14.03,3.73c7.46,0,11.33-2.83,11.33-6.18c0-0.64-0.26-1.29-0.64-1.67c-0.26,1.29-1.42,2.7-3.6,2.7
		c-2.45,0-4.5-1.8-4.5-4.89c0-3.86,3.48-7.08,8.11-7.08C129.26,388.35,127.59,405.08,127.59,413.58z M181.12,437.64
		c-20.72,0-35.14-16.47-35.14-39.77c0-27.54,18.15-53.93,38.61-53.93c18.66,0,33.21,22.14,33.21,47.49
		C217.8,420.14,202.48,437.64,181.12,437.64z M308.53,368.01c-5.66,11.45-8.88,20.34-11.71,32.56c-2.57,11.33-2.7,24.33-8.62,30.5
		c-4.12,4.25-8.24,5.53-14.67,5.53c-5.79,0-10.04-1.29-14.03-4.5c-5.53-4.5-7.72-13.64-12.74-29.6
		c-6.69-21.49-9.4-29.99-14.03-39.26c-3.99-8.11-6.05-9.52-6.05-11.97c0-3.99,5.15-6.31,16.6-6.31c10.17,0,16.99,1.42,16.99,6.31
		c0,2.06-1.03,6.44-0.39,12.36c1.16,10.68,7.34,31.92,15.19,31.92c7.08,0,12.61-22.91,12.61-32.95c0-7.34-1.16-8.88-1.16-11.33
		c0-2.7,2.7-6.31,13.77-6.31c9.91,0,16.09,2.45,16.09,6.31C316.38,355.14,313.68,357.72,308.53,368.01z M394.24,431.21
		c-5.28,5.28-13.9,5.41-26.64,5.41c-24.71,0-33.85-2.32-33.85-9.01c0-4.38,1.54-10.43,2.96-16.47c2.06-9.4,4.38-19.43,4.38-29.47
		c0-6.56-0.9-13.51-2.96-19.56c-2.06-6.05-3.35-8.11-3.35-10.81c0-4.89,5.92-6.31,14.16-6.31c5.28,0,10.43,0.51,19.95,0.51
		c9.65,0,15.32-1.54,19.56-1.54c4.25,0,5.28,4.63,5.28,10.04c0,4.25-0.39,15.32-6.31,15.32c-2.7,0-2.57-2.45-4.76-6.05
		c-1.8-2.96-4.5-4.89-8.88-4.89c-5.28,0-7.46,1.93-9.01,3.48c-2.83,2.96-3.6,8.62-3.47,11.07c1.93-1.03,4.38-1.8,7.72-1.8
		c7.98,0,12.74,6.44,12.74,12.36c0,7.21-5.28,11.84-11.2,11.84c-4.63,0-8.11-2.96-8.11-6.82c0-3.09,1.93-4.89,4.38-4.89
		c1.67,0,2.83,0.9,3.35,2.45c0.26-0.26,0.51-0.77,0.51-1.42c0-1.29-1.42-2.96-3.6-2.96c-4.38,0-6.56,3.86-6.56,9.52
		c0,12.36,3.73,14.29,15.96,14.29c5.41,0,11.07-0.51,14.54-2.45c1.93-1.03,2.7-2.45,3.86-2.45c2.96,0,3.35,5.41,3.35,11.97
		C398.23,421.04,398.74,426.7,394.24,431.21z"/>
	<path class="st6" d="M101.83,319.28c37.45-5.03-23.47-98.76,53.39-173.79c84.73-75.83,202.86-29.65,189.86,155.66
		c-1.6,23.06,28.76,23.15,30.81,5.17c9.84-86.52-7.12-173.39-84.65-213.82C210.38,50.34,63,99.81,84.86,305.12
		C85.71,313.27,93.37,320.39,101.83,319.28z"/>
	<path class="st6" d="M157.49,268.97c-1.25,13.93-1.29,28.36-0.54,42.7c0.53,10.42,13.22,10.2,12.38-1.25
		C155.79,128.3,298.81,131.29,294.05,265.4c-1.56,43.46-4.45,51.92,4.54,53.43c12.96,2.18,6.63-21.82,8.46-49.42
		C312.66,103.7,155.31,130.33,157.49,268.97z"/>
</g>
<g>
	<polygon class="st7" points="161.67,203.64 161.4,198.79 158.6,203.33 155.04,201.82 157.48,205.29 154.55,209.79 159.09,207.47 
		162.65,212.37 161.67,207.07 167.1,204.31 	"/>
	<polygon class="st7" points="136.38,235.84 135.4,230.54 140.79,227.78 135.4,227.11 135.13,222.26 132.33,226.8 128.72,225.28 
		131.21,228.8 128.23,233.25 132.77,230.94 	"/>
	<polygon class="st7" points="314.17,271.59 317.78,276.49 316.8,271.15 322.19,268.38 316.8,267.72 316.53,262.91 313.73,267.45 
		310.17,265.89 312.62,269.41 309.68,273.91 	"/>
	<polygon class="st7" points="278.6,160.76 281.05,164.28 278.11,168.73 282.6,166.42 286.21,171.32 285.23,166.02 290.62,163.26 
		285.23,162.59 284.96,157.74 282.16,162.28 	"/>
	<polygon class="st7" points="240.04,149.23 244.58,146.92 248.19,151.81 247.21,146.47 252.59,143.71 247.21,143.04 246.94,138.19 
		244.13,142.78 240.53,141.22 242.98,144.73 	"/>
	<polygon class="st7" points="149.07,281.21 148.76,276.4 145.95,280.94 142.39,279.38 144.84,282.9 141.9,287.4 146.44,285.08 
		150.05,289.98 149.07,284.68 154.46,281.88 	"/>
	<polygon class="st7" points="305.67,202.44 309.28,207.34 308.3,202.04 313.68,199.28 308.3,198.61 307.98,193.76 305.18,198.3 
		301.62,196.79 304.07,200.26 301.13,204.76 	"/>
	<polygon class="st7" points="132.15,261.13 138.38,269.59 136.69,260.41 146,255.65 136.69,254.49 136.2,246.17 131.35,254 
		125.2,251.33 129.43,257.39 124.36,265.13 	"/>
	<polygon class="st7" points="185.49,142.33 185.09,135.74 181.26,141.93 176.41,139.84 179.75,144.65 175.74,150.75 181.89,147.58 
		186.83,154.26 185.49,147.01 192.84,143.22 	"/>
	<polygon class="st7" points="325.13,212.37 330.03,219.09 328.69,211.84 336.08,208.05 328.69,207.16 328.33,200.57 324.5,206.76 
		319.65,204.67 322.99,209.43 318.98,215.53 	"/>
	<polygon class="st7" points="137.71,314.6 136.02,305.43 145.33,300.62 136.02,299.51 135.53,291.14 130.72,299.02 124.54,296.35 
		128.77,302.4 123.69,310.15 131.53,306.14 	"/>
	<polygon class="st7" points="209.98,148.83 214.92,155.51 213.59,148.25 220.94,144.51 213.59,143.58 213.19,136.99 209.36,143.22 
		204.5,141.13 207.84,145.89 203.84,151.99 	"/>
	<polygon class="st7" points="150.54,231.29 146.71,237.48 141.86,235.39 145.2,240.15 141.19,246.26 147.33,243.09 152.23,249.77 
		150.89,242.56 158.29,238.77 150.89,237.84 	"/>
	<polygon class="st7" points="337.95,276.18 337.55,269.59 333.72,275.82 328.87,273.68 332.21,278.49 328.2,284.59 334.34,281.43 
		339.29,288.11 337.95,280.85 345.3,277.11 	"/>
	<polygon class="st7" points="149.87,182.32 154.81,188.99 153.48,181.74 160.82,177.95 153.48,177.06 153.08,170.47 149.25,176.66 
		144.39,174.57 147.73,179.33 143.73,185.48 	"/>
	<polygon class="st7" points="226.5,131.47 232.69,139.88 231,130.75 240.22,126.03 231,124.88 230.51,116.59 225.7,124.39 
		219.6,121.76 223.78,127.77 218.75,135.43 	"/>
	<polygon class="st7" points="304.42,177.02 310.57,185.43 308.92,176.3 318.14,171.58 308.92,170.43 308.43,162.14 303.62,169.98 
		297.52,167.31 301.71,173.32 296.67,180.98 	"/>
	<polygon class="st7" points="317.47,247.72 325.22,243.76 331.36,252.18 329.71,243.05 338.93,238.33 329.71,237.17 329.22,228.89 
		324.41,236.68 318.31,234.05 322.5,240.07 	"/>
	<polygon class="st7" points="324.1,300.58 323.61,292.34 318.85,300.13 312.7,297.46 316.89,303.47 311.86,311.13 319.61,307.21 
		325.79,315.58 324.1,306.46 333.36,301.74 	"/>
	<polygon class="st7" points="135.98,213.62 142.17,222.03 140.48,212.9 149.74,208.18 140.48,207.03 139.99,198.75 135.22,206.54 
		129.08,203.91 133.31,209.92 128.23,217.58 	"/>
	<polygon class="st7" points="273.34,142.42 282.56,137.65 273.34,136.54 272.85,128.26 268.04,136.05 261.94,133.38 266.13,139.39 
		261.1,147.09 268.85,143.13 274.99,151.5 	"/>
	<polygon class="st7" points="177.21,166.02 176.76,157.74 171.96,165.53 165.86,162.9 170.04,168.91 165.01,176.57 172.76,172.61 
		178.9,181.02 177.21,171.9 186.47,167.18 	"/>
	<path class="st7" d="M248.72,225.77c-12.69-4.99-21.6,24.8-21.6,24.8c-25.32-48.22-45.13,23.73,0,59.58
		C227.17,310.06,290.35,242.29,248.72,225.77z"/>
</g>
</svg>
