<?xml version="1.0" encoding="utf-8"?>
<!-- Generator: Adobe Illustrator 25.0.0, SVG Export Plug-In . SVG Version: 6.00 Build 0)  -->
<svg version="1.1" id="Layer_1" xmlns="http://www.w3.org/2000/svg" xmlns:xlink="http://www.w3.org/1999/xlink" x="0px" y="0px"
	 viewBox="0 0 500 500" style="enable-background:new 0 0 500 500;" xml:space="preserve">
<style type="text/css">
	.st0{fill:#B51B2C;}
	.st1{fill:#030304;}
	.st2{fill:#020203;}
	.st3{fill:#13110C;}
	.st4{fill:#CE536A;}
	.st5{fill:#F192AC;}
	.st6{fill:#E3748C;}
	.st7{fill:#C0364A;}
	.st8{fill:#EE7289;}
</style>
<g>
	<path class="st1" d="M171.7,201.59c1.28,0.93,2.04-0.74,2.83-1.49c6.89,8.74,28.28,9.93,32.65-1.45c0.78,0.59,1.74,1.66,2.65,0.65
		c1.09-2.45-3.57-3.76-5.29-4.63c-2.65-0.1-1.37,2.58,0.59,2.78c-5.96,11.22-22.24,8.03-28.84,1.08c1.88-0.63,2.7-3.62,0.02-2.89
		C174.77,196.99,170.29,199.24,171.7,201.59z"/>
	<path class="st1" d="M245.35,209.09c-5.09-9.77-15.38-2.52-13.94,5.62c-1.29,0.02-2.23,0.16-3.01,0.36
		c-0.13-3.08-0.38-7.6-4.03-11.32c2.34-2.68-1.78-3.87-2.38-6.33c-0.27-1.52-0.73-2.72-1.27-3.67c3.44-1.74,1.83-8.16-2.03-5.4
		c-0.09-0.08-0.23-0.34-0.38-0.64c0,0-1,1.39-1.69,1.71c0.56,1.42,3.13,1.56,3.71,0.67c0.33,1.22-2.16,2.68-4.26,2.23
		c3.37,1.31,3.29,8.01,6.58,9.79c-0.8,0.01-2.07,0-3.12-0.31c0.54,2.05,1.98,2.32,3.4,3.92c5.02,3.66,0.36,15.79,7.24,12.33
		c-0.72,2.79-7.71,5.48-8.34,0.66c-3.77,3.24-6,11.14,1.14,8.85c-0.91,2.92-7.78,3.79-9.06-0.43c-1.58,4.59,2.01,7.8,5.57,6.64
		c-2.7,3.74-10.41,0.21-10.96-1.01c-2.46,3.75,0.19,7.24,3.55,6.82c-4.81,1.95-10.55,0.32-16.16-1.97
		c-0.37,2.49,3.13,5.08,5.08,5.28c-10.02,3.88-18.04-3.61-18.41-7.28c-2.8,2.04,0.32,9.19,0.36,9.23
		c-9.11-4.54-11.18-12.63-11.01-15.46c0.1,8.52-15.61,12.08-14.8,2.41c-0.04,0.72,1.03,2.78,2.54,1.98
		c1.99-0.74,1.77-4.58,2.26-7.58c-2.12,2.94-6.08,1.7-7.45-1.41c2.2,1.55,3.76,0.57,5.36-3.02c1.87-4.28-0.7-7.51-0.91-11.07
		c-1.12,1.41-3.34,1.36-4.16,0.78c0.05,0,2.81-0.25,2.98-6.12c0.14-4.38,3.4-5.52,3.39-5.53c-2.06,0.63-4.18-1.35-3.8-2.22
		c3.46,3.25,4.35-5.38,7.28-8.52l-1.33-2.19c-2.21,2.43-3.35,5.94-4.72,8.68c-3.58-1.62-4.81,3.45-2.08,5.42
		c-1.21,1.18-1.07,7.8-2.17,8.14c-4.94,2.3,0.35,6,2.89,5.07c0.04,0.14,0.09,0.28,0.13,0.41l-4.28,1.1c-0.81-0.54-2.2-0.96-4.6-0.99
		c0,0,0.87-7.36-4.92-9.82c-5.79-2.45-9.02,4.2-9.02,4.2c-3.54,1.05,9.55,20.09,14.54,22.11c0.46,0.58,2.83-1.4,4.79-3.22
		c1.41,1.52,3.22,2.38,5.17,2.27c-0.08,0.53-0.19,0.99-0.32,1.26c-0.27,0.03-1.26,0.17-1.54,0.2l-0.05-0.05c0,0,0,0.01,0,0.01
		c-0.5-0.3-1.52-0.93-2.02-1.23c-2.4,10.63,10.18,11.75,16.19,6.03c-0.08,2.98,16.05,18.09,13.4,6.29
		c2.82,3.36,17.75,6.22,18.65-0.39c3.61,0.81,13.71,0.98,10.38-4.56c3,0.69,10.28-1.75,7.48-5.74c2.66-1.14,4.41-3.37,4.1-4.79
		c2.06,1.97,5.03,4.59,5.55,3.94C235.81,229.2,248.9,210.12,245.35,209.09z"/>
</g>
<path class="st4" d="M262.18,248.48c-13.35-29.66-51.53-20.21-67.83,1.46c-63-66.56-124.71,45.25-0.28,102.6
	C231.94,335.71,282.33,294.94,262.18,248.48z M224.75,248.69c-2.69-5.2,2.83-10.3,7.13-6.23c1.13-11.2,16.64-3.52,6,12.61
	C234.71,255.2,226.13,251.58,224.75,248.69z M257.93,262.2c-1.58,2.27-9.4,4.12-12.08,3.55c-6.74-14.88,7.37-19.79,6.9-9.87
	C256.99,253.04,260.96,258.16,257.93,262.2z"/>
<g>
	<g>
		<path class="st0" d="M210.24,167.84c-12.56-11.81-5.4-26.59-21.1-36.54c-11.53-6.71,0.65-13.18,4.3-7.93
			c1.16-18.06-40.71-8.06-20.07,14.63c9.85,12.86-21.58,30.32-10.42,48.22c2.48,7.28,9.51,4.16,13.59,1
			c-0.17,15.34,33.35,13.07,27.43-4.36c4.17,2.09,8.01,8.38,12.32,6.88C223.36,182.82,217.51,175.89,210.24,167.84z M183.99,140.36
			c2.05-0.44,3.18,1.37,3.35,1.64c1.46-4.07,8.16-1.23,5.28,3.37c-0.35,0.52-4.73,4.12-4.9,4.36
			C184.74,147.86,177.63,143.33,183.99,140.36z M190.88,163.34c-0.35,0.53-4.73,4.12-4.9,4.36c-0.2-0.21-4.83-3.29-5.23-3.77
			c-3.39-4.25,2.94-7.83,4.85-3.96C187.07,155.89,193.76,158.73,190.88,163.34z M171.43,131.11c-3.39-4.25,2.94-7.83,4.85-3.96
			c1.46-4.07,8.16-1.23,5.28,3.37c-0.35,0.52-4.73,4.12-4.9,4.36C176.46,134.67,171.83,131.6,171.43,131.11z M173.8,180.35
			c-0.2-0.21-4.83-3.29-5.23-3.77c-3.39-4.25,2.94-7.83,4.85-3.96c1.46-4.07,8.16-1.23,5.28,3.37
			C178.35,176.52,173.97,180.11,173.8,180.35z M191.55,194.97c-16.73,1.16-16.37-15.58-1.37-17.01
			C204.9,176.87,207.16,194.41,191.55,194.97z M209.97,174.51c-0.35,0.53-4.73,4.12-4.9,4.36c-0.2-0.21-4.83-3.29-5.23-3.77
			c-3.39-4.25,2.94-7.83,4.85-3.96C206.16,167.06,212.85,169.9,209.97,174.51z"/>
	</g>
	<path class="st0" d="M27.42,342.44c1.59-20.05,10.89-43.7,10.42-65.28c2.7-33.04-28.68-50.76,13.9-52.11
		c8.6,0,22.86,2.01,22.86,8.96c0,3.84-1.83,6.77-4.75,15.36c-4.75,17.53-6.41,36.8-1.1,56.32c3.1,6.92,42.11,8.61,35.11-5.85
		c-0.37,1.83-2.01,3.84-5.12,3.84c-11.46-1.12-5.91-18.22,5.12-17c17.92,0,15.54,23.77,15.54,35.84c0,11.15-1.46,20.48-6.58,25.05
		C104.45,360.19,20.17,357.41,27.42,342.44z"/>
</g>
<path class="st6" d="M332.38,355.24c-27.92-1.64-27.2-16.36-38.03-48.45c-10.92-38.16-17.78-51.07-28.53-72.77
	c0-5.67,7.32-8.96,23.59-8.96c29.76,0.89,22.87,4.07,23.59,26.51c8.95,60.19,35.04,58.84,39.5-1.46
	c-0.19-18.01-8.38-23.52,17.92-25.05c31.19,1.73,25.21,8.21,11.7,32.73c-8.04,16.27-12.62,28.89-16.64,46.26
	C360.58,328.65,361.18,356.23,332.38,355.24z"/>
<path class="st5" d="M444.29,277.16c-6.22,0-9.32,5.49-9.32,13.53c0,17.55,5.3,20.3,22.67,20.3c7.68,0,15.73-0.73,20.66-3.47
	c9.26-8.5,10.17,0.73,10.24,13.53c0,12.07,0.73,20.11-5.67,26.51c-7.5,7.5-19.75,7.68-37.85,7.68c-35.11,0-48.09-3.29-48.09-12.8
	c1.6-20.05,10.89-43.7,10.42-65.28c0-9.33-1.28-19.2-4.2-27.79c-2.93-8.59-4.75-11.52-4.75-15.36c2.32-14.76,31.87-6.9,48.45-8.23
	c13.71,0,21.76-2.19,27.79-2.19c11.42-1.21,9.69,36.34-1.46,36.02c-3.84,0-3.66-3.47-6.77-8.59c-3.76-9.17-21.38-8.24-25.42-2.01
	c-4.02,4.2-5.12,12.25-4.94,15.72c12.18-7.24,29.7,1.35,29.07,14.99c1.62,17.04-25.38,23.84-27.43,7.13
	c-0.51-6.93,8.77-9.75,10.97-3.47C450.7,280.93,448.25,277.2,444.29,277.16z"/>
</svg>
