<?xml version="1.0" encoding="utf-8"?>
<!-- Generator: Adobe Illustrator 25.0.0, SVG Export Plug-In . SVG Version: 6.00 Build 0)  -->
<svg version="1.1" id="Layer_1" xmlns="http://www.w3.org/2000/svg" xmlns:xlink="http://www.w3.org/1999/xlink" x="0px" y="0px"
	 viewBox="0 0 500 500" style="enable-background:new 0 0 500 500;" xml:space="preserve">
<style type="text/css">
	.st0{fill:#B51B2C;}
	.st1{fill:#030304;}
	.st2{fill:#020203;}
	.st3{fill:#13110C;}
	.st4{fill:#CE536A;}
	.st5{fill:#F192AC;}
	.st6{fill:#E3748C;}
	.st7{fill:#C0364A;}
	.st8{fill:#EE7289;}
</style>
<g>
	<path class="st4" d="M147.32,188.1c-12.57-0.73-19.18,35.15-2.98,37.19C158.19,226.12,161.13,188.83,147.32,188.1z M143.9,221.64
		c-3.64-8.27-1.58-22.61,7.17-26.04C154.16,203.7,153.79,219.44,143.9,221.64z"/>
	<path class="st4" d="M319.66,230.91c-0.22-3.42-1.21-8.28-4.97-9.38c-4.36-8.31-8.17-1.58-14.01-0.44c10.6-8.87,1.87-24-8.72-28.14
		c1.26-0.53,3.12-0.64,4.52-0.44c1.15,2.31,1.72,3.97,4.41,5.08c1.1,2.32,3.09,4.19,5.85,4.19c10.66,0.55,12.43-25.12,3.86-28.47
		c-4.11-8.39-16.27-2.05-23.62-3.09c-10.11,0.98-26.57-4.67-32.5,6.04c-0.12-0.06-0.24-0.13-0.36-0.19
		c-2.54-5.79-12.53-6.24-16.88-6.29c-14.99,0.36-16.62,4.97-14.45,18.76c0,5.41-2.98,20.42-6.84,24.28
		c-3.2-5.74-5.96-16.88-5.96-23.51c0.58-4.89,1.3-11.31-4.08-13.46c-3.65-9.52-40.42-8.95-34.9,5.55
		c-25.92-32.2-59.48,4.44-59.48,34.25c-10.25-15.54-29.64-7.59-22.55,6c-1.99,0-3.86-0.11-5.85-0.44
		c-5.19-24.66,11.84-39.28,0.22-45.02c-4.36-9.09-33.61-9.41-34.32,2.65c1.54,9.22,6.07,16.27,5.41,26.04
		c2.22,12.25-13.43,41.04-1.54,47.12c6.5,9.29,21.96,6.87,32,7.5c16.94,1.1,31.32-3.15,30.01-23.21
		c23.29,45.65,75.8,21.05,68.91-25.57c5.16,12.82,6.02,31.26,17.23,41.06c12.61,15.04,36.95,7.6,38.29-12.25
		c2.48-18.96,8.13-34.64,17.6-50.89c10.18,21.16-12.41,57.19,1.02,63.36c8.4,11.03,31.3,6.87,44.25,7.17
		C319.02,257.8,320.76,245.61,319.66,230.91z M107.31,232.24c0,6.73-0.88,12.36-3.97,15.12c-5.05,7.62-55.9,5.95-51.53-3.09
		c3.87-24.69,11-40.11,0.88-65.44c0.99-7.42,26.6-7.38,27.59,0c-1.71,6.7-6.29,19.17-5.41,27.59c0,0,0.22,13.68,1.87,15.67
		c1.74,4.22,25.53,5.09,21.19-3.53c-0.82,3.78-7.34,2.63-6.95-1.88c0-3.31,2.98-6.07,6.95-6.07
		C108.74,210.61,107.31,224.95,107.31,232.24z M145.22,252.87c-46.35,0.19-32.81-80.37,2.98-80.34
		C186.13,173.71,185.99,255.85,145.22,252.87z M244.32,193.17c-4.86,9.82-7.61,17.44-10.04,27.92c-2.21,9.71-2.32,20.86-7.39,26.15
		c-5.78,6.46-18.2,6.17-24.61,0.88c-8.71-7.95-17.19-51.78-22.95-59.04c-7.53-12.63-8.06-14.8,9.05-15.67
		c17.14,0.18,14.15,2.82,14.23,16c8.3,50.39,27.55,20.11,22.84-10.59c0-2.32,2.32-5.41,11.81-5.41
		C255.97,174.56,252.58,178.34,244.32,193.17z M308.73,247.35c-4.52,4.52-11.92,4.63-22.84,4.63c-58.25,2.09-7.1-23.7-28.1-72.39
		c0.67-10.26,18.8-4.74,29.2-5.74c12.21,0.91,21.27-7.06,21.3,7.28c0.8,6.53-4.08,21.08-9.49,7.95c-7.04-9.76-19.66-1.55-18.32,8.28
		c16.15-8.63,25.72,17.29,7.95,19.2c-11.41,0.07-6.37-15.84-0.33-7.95c1.22-1.48-0.26-3.73-2.65-3.75c-3.75,0-5.63,3.31-5.63,8.17
		c0,10.59,3.2,12.25,13.68,12.25c6.36,0.3,11.72-1.2,15.78-4.19C314.17,221.75,312.9,245.34,308.73,247.35z"/>
</g>
<g>
	<path class="st5" d="M118.13,96.92c-8.87-0.52-13.54,24.81-2.1,26.24C125.81,123.75,127.88,97.44,118.13,96.92z M115.72,120.59
		c-2.57-5.84-1.12-15.95,5.06-18.38C122.96,107.93,122.7,119.04,115.72,120.59z"/>
	<path class="st5" d="M239.75,127.13c-0.16-2.41-0.86-5.84-3.5-6.62c-2.89-5.78-5.85-1.16-9.89-0.31
		c7.48-6.26,1.32-16.93-6.15-19.86c0.89-0.37,2.2-0.45,3.19-0.31c0.81,1.63,1.22,2.8,3.11,3.58c8.76,11.88,15.11-13.69,6.85-17.13
		c-2.9-5.92-11.48-1.45-16.66-2.18c-7.13,0.69-18.75-3.3-22.93,4.26c-0.08-0.05-0.17-0.09-0.25-0.13c-1.8-4.08-8.84-4.4-11.91-4.44
		c-19.87,0.17-3.79,14.16-15.03,30.37c-2.26-4.05-4.21-11.91-4.21-16.59c0.41-3.45,0.91-7.98-2.88-9.5
		c-2.71-6.71-28.38-6.37-24.63,3.91c-18.29-22.72-41.97,3.13-41.97,24.17c-6.52-10.35-20.93-6.18-15.91,4.24
		c-1.4,0-2.73-0.08-4.13-0.31c-3.78-15.57,8.22-28.13,0.16-31.77c-3.61-6.44-23.15-6.81-24.22,1.87c1.08,6.5,4.28,11.48,3.82,18.38
		c1.74,9.11-9.64,27.62-1.09,33.25c4.59,6.55,15.5,4.85,22.58,5.3c11.74,0.91,22.27-2.47,21.18-16.38
		c16.07,32.21,53.78,14.58,48.62-18.04c3.74,10.2,4.89,23.92,14.19,31.15c10.2,7.52,23.97,2,25-10.82
		c1.75-13.38,5.74-24.45,12.42-35.91c7.29,13.81-8.71,39.64,0.72,44.71c7.25,8.16,21.16,4.65,31.23,5.06
		C238.94,146.42,240.71,137.15,239.75,127.13z M89.9,128.07c-0.37,12.75-3.65,13.68-18.53,13.94c-14.95,0-20.64-1.4-20.64-5.45
		c1.42-12.34,7.39-26.92,2.65-39.64c-1.25-3.66-2.02-4.91-2.02-6.54c0.93-5.26,18.54-5.25,19.47,0c-2.81,8.79-5.73,20.3-2.49,30.53
		c1.23,2.98,18.01,3.59,14.95-2.49c-0.58,2.67-5.18,1.86-4.91-1.32c0-2.34,2.1-4.28,4.91-4.28C90.91,112.8,89.9,122.93,89.9,128.07z
		 M116.65,142.63c-32.71,0.14-23.15-56.71,2.1-56.69C145.52,86.77,145.42,144.73,116.65,142.63z M186.58,100.5
		c-3.43,6.93-5.37,12.3-7.09,19.7c-1.56,6.85-1.64,14.72-5.22,18.46c-4.08,4.56-12.84,4.35-17.37,0.62
		c-6.15-5.61-12.13-36.54-16.2-41.66c-2.41-4.91-3.66-5.76-3.66-7.24c-1.44-4.88,21.46-5.41,20.32,0c-1.55,6.5,2.4,26.09,8.96,26.79
		c6.01-0.76,8.91-21.02,6.93-26.79c-1.3-5.1,19.01-4.86,18.07,0C191.33,92.71,189.7,94.27,186.58,100.5z M232.04,138.74
		c-3.19,3.19-8.41,3.27-16.12,3.27c-41.06,1.63-4.99-17.42-19.83-51.09c1.07-7.42,12.87-3.25,20.61-4.05
		c8.62,0.64,15.01-4.98,15.03,5.14c0.68,4.55-3.08,14.8-6.7,5.61c-4.79-6.93-14.03-0.92-12.93,5.84
		c11.21-6.22,18.16,12.36,5.61,13.55c-7.78,0.26-4.77-11.2-0.23-5.61c0.86-1.04-0.18-2.63-1.87-2.65c-2.65,0-3.97,2.34-3.97,5.76
		c0,7.48,2.26,8.64,9.66,8.64c4.49,0.21,8.27-0.85,11.14-2.96C235.95,121.2,235,136.91,232.04,138.74z"/>
</g>
<g>
	<path class="st0" d="M201.38,316.62c-19.42-1.13-29.64,54.32-4.6,57.47C218.18,375.37,222.72,317.76,201.38,316.62z M196.09,368.46
		c-5.62-12.78-2.45-34.94,11.08-40.24C211.95,340.74,211.38,365.06,196.09,368.46z"/>
	<path class="st0" d="M467.67,382.79c-0.34-5.29-1.88-12.79-7.67-14.49c-7.44-13.23-12.56-2.13-21.66-0.68
		c16.52-14.26,2.97-36.61-13.47-43.48c1.94-0.81,4.82-1,6.99-0.68c1.78,3.56,2.66,6.13,6.82,7.84c1.71,3.58,4.77,6.48,9.04,6.48
		c16.39,1.11,19.19-39.09,5.97-43.99c-6.36-12.97-25.13-3.17-36.49-4.78c-15.12,1.41-41.79-7-50.21,9.33
		c-0.18-0.1-0.37-0.2-0.56-0.29c-3.93-8.94-19.36-9.64-26.09-9.72c-24.09,1.15-25.3,6.98-22.34,28.99c0,8.36-4.61,31.55-10.57,37.51
		c-4.95-8.87-9.21-26.09-9.21-36.32c0.85-7.71,2.12-17.29-6.31-20.8c-5.25-14.69-62.79-13.68-53.92,8.57
		c-40.79-49.72-91.42,6.54-91.9,52.92c-6.28-5.93-10.01-13.49-21.03-13.4c-10.24-0.98-21.75,12.32-13.81,22.68
		c-3.07,0-5.97-0.17-9.04-0.68c-7.75-41.77,18.56-59.85,0.34-69.57c-8.06-13.5-35.97-11.75-48.08-4.95
		c-5.92,3.39-5.58,12.57-2.9,18.25c4.26,10.57,6.31,19.27,6.31,31.03c0,12.45-2.73,24.9-5.63,37.85
		c-2.28,10.87-9.37,28.38,3.24,34.96c10.05,14.35,33.94,10.61,49.45,11.6c26.58,1.47,48.08-4.43,46.38-35.87
		c35.99,70.53,117.13,32.53,106.47-39.51c7.55,19.51,9.58,46.08,24.92,62.25c20.46,23.75,57.84,14.84,60.87-17.74
		c3.82-29.29,12.57-53.53,27.2-78.63c15.62,36.69-19.47,88.38,1.57,97.9c9.97,14.38,33.65,10.61,49.11,11.6
		C456.06,428.48,471.36,420.72,467.67,382.79z M139.55,384.83c0,10.4-1.36,19.1-6.14,23.36c-7.81,11.77-86.38,9.2-79.63-4.77
		c3.11-27.03,16.19-58.95,5.8-86.79c-2.73-8.01-4.43-10.74-4.43-14.32c1.12-11.39,41.5-11.34,42.63,0c0,3.58-1.71,6.31-4.43,14.32
		c-2.73,8.01-3.92,19.61-3.92,28.31c1.91,15.44-5.07,29.78,21.48,29.16c10.61-0.1,17.26-4.46,14.15-10.4
		c-1.27,5.85-11.34,4.07-10.74-2.9c0-5.11,4.6-9.38,10.74-9.38C141.77,351.41,139.55,373.58,139.55,384.83z M198.14,416.72
		c-71.62,0.3-50.7-124.18,4.61-124.14C261.35,294.4,261.13,421.32,198.14,416.72z M351.26,324.47
		c-7.5,15.18-11.77,26.94-15.52,43.14c-3.41,15.01-3.58,32.23-11.42,40.41c-8.93,9.98-28.12,9.54-38.02,1.36
		c-13.47-12.29-26.57-80-35.47-91.23c-5.28-10.74-8.01-12.62-8.01-15.86c-3.15-10.69,46.98-11.85,44.5,0
		c-4.52,47.97,29.12,94.58,36.32,15c-0.17-16.98-7.84-21.85,16.71-23.36C369.43,295.56,363.85,301.6,351.26,324.47z M450.79,408.19
		c-6.99,6.99-18.42,7.16-35.3,7.16c-32.74,0-44.85-3.07-44.85-11.94c5.89-39.96,17.37-59.35,1.36-101.12
		c2.17-13.76,29.72-6.43,45.19-7.67c18.87,1.41,32.86-10.92,32.91,11.26c0,5.63-0.51,20.29-8.36,20.29c-3.58,0-3.41-3.24-6.31-8.01
		c-3.51-8.56-19.94-7.68-23.7-1.87c-3.75,3.92-4.77,11.42-4.6,14.66c11.05-6.83,27.95,1.47,27.11,13.98
		c1.51,15.89-23.67,22.23-25.58,6.65c-0.47-6.46,8.18-9.1,10.23-3.24c3.34-8.78-14.05-8.41-12.79,6.82
		c0,16.37,4.94,18.93,21.14,18.93c9.83,0.47,18.1-1.86,24.38-6.48c3.92,0,4.43,7.16,4.43,15.86
		C456.08,394.72,456.76,402.22,450.79,408.19z"/>
	<path class="st0" d="M308.63,163.49c10.38,3.56,23.93,1.76,31.8,10.85c1.52,1.75,5.3,11,1.95,12.67
		c10.32-5.51,7.39-20.4-0.21-26.92c-10.63-11.48-36.07-7.88-36.47-27.65c0.61-20.83,20.47-12.77,29.26-8.78
		c2.92-0.48,3.11-11.51,9.72-15.06c5.99-3.22,12.81-1.08,17.34,6.22c12.01,29.4-22.39,49.43-2.45,84.57c0,0,0,0,0,0
		c2.43,3.95,6.65,11.69,11.55,8.93c7.34-4.99,16.53-20.04,23.63-27.68c-1.27,32.66,55.6,18.16,36.89-12.42
		c0.28-64.75-68.26-130.26-111.01-72.78c-3.59,6.29-14.72,2.26-24.4,8.29C274.32,118.94,284.65,156.23,308.63,163.49z M404.3,175.62
		c0.64,0.27,1.16,0.05,1.43-0.63c7.11-12.01,25.88-12.38,25.97,4.19c1.38,18.11-30.43,23.28-33.75,5.2
		C397.67,180.76,399.69,174.58,404.3,175.62z"/>
</g>
<g>
	<path class="st3" d="M344.13,253.52c2.1,1.9,5.9,2.02,7.83-0.22c3.16,0.72,5.7-0.01,7.42-3.9c1.03,4.76,2.86,8.69,5.84,11.01
		c-1.52,10.92,1.54,8.93,9.15,11.07c11.43,4.73,39.2-0.98,24.11-15.92l1.2-1.45c0.89,0.74,2.57,2.15,3.47,2.9
		c-0.34,3.63-0.6,8.44,0.32,8.63c6.02,2.79,10.3,3.05,17.32,4.25c27.97,1.55,21.29-20.27,10.16-18.29c1.87-1.83,2.65-5.04,3.94-7.64
		c10.87,6,12.09-14.18,10.94-20.33c9.85-2.03,3.78-19.18-0.04-23.53c5.55-6.2-5.19-15.87-10.57-20.49
		c-0.06,1.95-0.41,4.05-0.44,4.15c4.32,3.32,16.32,17.9,2.8,13.23c12.37,6.67,13.47,35.77,1.92,16.73
		c6.46,9.95,1.94,45.15-8.25,16.98c4.28,17.29-10.72,31.3-15.49,11.44c0.18,14.18-12.7,17.59-15.46,3.85
		c-8.01,18.31-20.22,1.02-15.61-9.33c-6.23,5.79-15.62,3.18-17.19-4.4c-1.62-4.35,2.24-8.94,2.43-12.28c-0.79-0.45-1.83,1.22-3,1.17
		c-2.9-0.37-2.23-9.22-0.73-13.25c0,0,0,0,0.01,0c0-0.01,0.01-0.03,0.01-0.04c-0.09-0.08-2.15-2.13-2.84-2.86
		c-5.1,4-2.89,27.01-7.36,37.3c-3.49,0.32-11.73-0.12-14.21-2.07c-1.15-12.49,7.37-31.04,19.56-37.96
		c-0.08-0.13-1.09-1.77-1.77-2.96c-14.06,6.87-23.13,31.83-21.29,40.94C334.58,246.68,336.47,256.23,344.13,253.52z M409.86,258.09
		c2.78-0.75,5.41-3.05,6.91-5.64c1.71,1.62,3.93,2.7,6.31,2.72C418.38,260.04,413.15,260.96,409.86,258.09z M362.83,222.07
		c0.48,0.89,1.21,1.5,1.97,2.08c-4.3,9.46,4.26,22.22,15.52,18.74c0.49,4.86,1.88,11.02,7.67,13.8c-1.49,0.87-2.47,1.68-2.47,1.68
		c-3.88-7.56-6.31-1.93-4.48-0.11c-3.41,1.57-13.78-1.64-15.19-2.08C360.35,249.16,361.6,232.32,362.83,222.07z M340.6,243.58
		c3.03,2.01,11.45,2.67,15.83,2.19c0.24,5.97-5.05,4.94-5.84,1.07c0.27,5.93-5.48,6.21-5.03,0.82
		C341.76,253.29,338.27,249.55,340.6,243.58z"/>
</g>
</svg>
