<?xml version="1.0" encoding="utf-8"?>
<!-- Generator: Adobe Illustrator 25.0.0, SVG Export Plug-In . SVG Version: 6.00 Build 0)  -->
<svg version="1.1" id="Layer_1" xmlns="http://www.w3.org/2000/svg" xmlns:xlink="http://www.w3.org/1999/xlink" x="0px" y="0px"
	 viewBox="0 0 500 500" style="enable-background:new 0 0 500 500;" xml:space="preserve">
<style type="text/css">
	.st0{fill:#B51B2C;}
	.st1{fill:#030304;}
	.st2{fill:#020203;}
	.st3{fill:#13110C;}
	.st4{fill:#CE536A;}
	.st5{fill:#F192AC;}
	.st6{fill:#E3748C;}
	.st7{fill:#C0364A;}
	.st8{fill:#EE7289;}
</style>
<g>
	<path class="st0" d="M240.57,177.86c-7,0.33-14.02,3.32-19.97,6.88c-4.43,2.65-8.66,5.99-11.65,10.22
		c-2.45-3.47-5.71-6.36-9.27-8.74c-5.31-3.56-11.58-6.54-17.88-7.81c-10.93-2.19-21.16,2.73-27.13,11.99c-6,9.3-7.4,21.19-4.4,31.76
		c3.65,12.89,11.52,23.85,21.24,32.9c5.55,5.16,11.62,9.79,17.91,14c6.1,4.08,12.5,8.08,19.3,10.9c0.21,0.09,0.41,0.05,0.59-0.05
		c0.01,0,0.02,0,0.03-0.01c6.05-2.51,11.81-6.02,17.28-9.61c5.61-3.68,11.06-7.64,16.17-12c10.05-8.59,18.67-18.94,23.34-31.44
		c4.04-10.82,4.22-22.61-0.97-33.1C260.5,184.38,251.39,177.35,240.57,177.86z M245.02,199.21c-2.63,0.11-9.74-2.88-10.88-5.28
		c-1.14-2.4-0.45-5.11,1.54-6.06c1.42-0.67,3.1-0.26,4.37,0.89c-0.09-1.71,0.65-3.28,2.06-3.95c1.99-0.95,4.53,0.23,5.67,2.63
		C248.93,189.84,246.77,197.24,245.02,199.21z M261.63,205.13c-1.31,1.88-7.78,3.41-10.01,2.94c-1.2-1.93-1.99-8.53-0.67-10.41
		c1.31-1.88,3.64-2.52,5.2-1.43c1.11,0.77,1.51,2.22,1.19,3.66c1.24-0.8,2.74-0.91,3.84-0.14
		C262.74,200.85,262.94,203.25,261.63,205.13z"/>
	<path class="st0" d="M133.98,225.4c-5.45,0-9.54,3.79-9.54,8.33c0,3.64,2.42,5.76,5.3,5.76c2.58,0,3.94-1.67,4.24-3.18
		c0.45,0.45,0.76,1.21,0.76,1.97c0,3.94-4.54,7.27-13.33,7.27c-8.63,0-14.24-1.67-16.51-4.39c-2.27-2.73-2.58-21.51-2.58-21.51
		c0-7.73,1.06-18.03,3.48-25.15c2.42-7.12,3.94-9.54,3.94-12.72c0-5.76-11.82-7.42-18.94-7.42c-7.12,0-18.94,1.67-18.94,7.42
		c0,3.18,1.51,5.6,3.94,12.72c2.42,7.12,3.48,15.3,3.48,23.03c0,11.82-2.73,23.63-5.15,34.69c-1.67,7.12-3.48,14.24-3.48,19.39
		c0,7.88,11.06,10.6,40.14,10.6c18.78,0,25.15-1.51,30.6-6.36c4.24-3.79,5.45-11.51,5.45-20.75
		C146.85,245.09,148.82,225.4,133.98,225.4z"/>
	<path class="st0" d="M354.82,174.35c-13.03,0-16.21,4.24-16.21,7.42c0,2.88,1.36,4.7,1.36,13.33c0,11.82-6.51,38.78-14.85,38.78
		c-9.24,0-16.51-24.99-17.88-37.57c-0.76-6.97,0.45-12.12,0.45-14.54c0-5.76-8.03-7.42-20-7.42c-13.48,0-19.54,2.73-19.54,7.42
		c0,2.88,2.42,4.54,7.12,14.09c5.45,10.91,8.63,20.9,16.51,46.2c5.91,18.78,8.48,29.54,15,34.84c4.7,3.79,9.69,5.3,16.51,5.3
		c7.57,0,12.42-1.51,17.27-6.51c6.97-7.27,7.12-22.57,10.15-35.9c3.33-14.39,7.12-24.84,13.79-38.32
		c6.06-12.12,9.24-15.15,9.24-19.69C373.75,177.23,366.48,174.35,354.82,174.35z"/>
	<path class="st0" d="M452.68,253.88c0-7.73-0.45-14.09-3.94-14.09c-1.36,0-2.27,1.67-4.54,2.88c-4.09,2.27-10.76,2.88-17.12,2.88
		c-14.39,0-18.78-2.27-18.78-16.81c0-6.67,2.58-11.21,7.73-11.21c2.58,0,4.24,1.97,4.24,3.48c0,0.76-0.3,1.36-0.61,1.67
		c-0.61-1.82-1.97-2.88-3.94-2.88c-2.88,0-5.15,2.12-5.15,5.76c0,4.54,4.09,8.03,9.54,8.03c6.97,0,13.18-5.45,13.18-13.94
		c0-6.97-5.6-14.54-15-14.54c-3.94,0-6.82,0.91-9.09,2.12c-0.15-2.88,0.76-9.54,4.09-13.03c1.82-1.82,4.39-4.09,10.6-4.09
		c5.15,0,8.33,2.27,10.45,5.76c2.57,4.24,2.42,7.12,5.6,7.12c6.97,0,7.42-13.03,7.42-18.03c0-6.36-1.21-11.82-6.21-11.82
		c-5,0-11.66,1.82-23.03,1.82c-11.21,0-17.27-0.61-23.48-0.61c-9.69,0-16.66,1.67-16.66,7.42c0,3.18,1.51,5.6,3.94,12.72
		c2.42,7.12,3.48,15.3,3.48,23.03c0,11.82-2.73,23.63-5.15,34.69c-1.67,7.12-3.48,14.24-3.48,19.39c0,7.88,10.76,10.6,39.84,10.6
		c15,0,25.15-0.15,31.36-6.36C453.29,270.54,452.68,263.88,452.68,253.88z"/>
</g>
<g>
	<path class="st5" d="M389.42,149.36c0-8.71-1.26-17.03-3.65-24.05c-0.81-2.39-1.53-4.27-2.11-5.79c-1.18-3.1-1.66-4.42-1.66-5.91
		c0-0.66,0-1.88,2.65-2.9c2.31-0.89,5.95-1.34,10.82-1.34c2.58,0,5.16,0.11,8.15,0.23c4.14,0.17,8.84,0.37,15.33,0.37
		c7.03,0,12.26-0.67,16.46-1.21c2.67-0.34,4.77-0.61,6.56-0.61c0.75,0,1.42,0.12,2.05,1.59c0.64,1.5,0.97,3.87,0.97,7.04
		c0,10.25-2.13,14.84-4.24,14.84c-0.02,0-0.04,0-0.05,0c-0.23-0.33-0.58-1.11-0.85-1.71c-0.48-1.06-1.08-2.39-1.99-3.88
		c-2.94-4.83-7.38-7.29-13.17-7.29c-6.89,0-10.25,2.41-12.86,5.02c-0.02,0.02-0.03,0.03-0.05,0.05c-3.99,4.17-5.17,11.66-4.97,15.4
		c0.06,1.09,0.67,2.07,1.61,2.61c0.49,0.27,1.03,0.41,1.57,0.41c0.51,0,1.03-0.12,1.5-0.37c2.2-1.17,4.69-1.75,7.59-1.75
		c7.3,0,11.81,5.9,11.81,11.36c0,5.21-3.5,10.75-9.99,10.75c-3.62,0-6.36-2.08-6.36-4.84c0-0.96,0.26-2.57,1.96-2.57
		c0.47,0,0.7,0.07,0.92,0.7c0.35,1.05,1.22,1.84,2.29,2.09c0.24,0.06,0.49,0.09,0.73,0.09c0.84,0,1.65-0.33,2.25-0.93
		c0.96-0.96,1.54-2.43,1.54-3.92c0-3.22-2.98-6.67-7.43-6.67c-5.27,0-10.91,3.78-10.91,14.4c0,1.51,0.04,3.05,0.17,4.58
		c1.02,0.04,2.09,0.08,3.22,0.11c-0.13-1.4-0.2-2.96-0.2-4.69c0-6.67,2.58-11.21,7.73-11.21c2.58,0,4.24,1.97,4.24,3.48
		c0,0.76-0.3,1.36-0.61,1.67c-0.61-1.82-1.97-2.88-3.94-2.88c-2.88,0-5.15,2.12-5.15,5.76c0,4.27,3.62,7.61,8.58,7.99
		c0.98-0.02,1.92-0.05,2.83-0.1c6.18-0.88,11.32-6.09,11.32-13.8c0-6.97-5.6-14.54-15-14.54c-3.94,0-6.82,0.91-9.09,2.12
		c-0.15-2.88,0.76-9.54,4.09-13.03c1.82-1.82,4.39-4.09,10.6-4.09c5.15,0,8.33,2.27,10.45,5.76c2.57,4.24,2.42,7.12,5.6,7.12
		c6.97,0,7.42-13.03,7.42-18.03c0-6.36-1.21-11.82-6.21-11.82c-5,0-11.66,1.82-23.03,1.82c-11.21,0-17.27-0.61-23.48-0.61
		c-9.69,0-16.66,1.67-16.66,7.42c0,3.18,1.51,5.61,3.94,12.72c2.42,7.12,3.48,15.3,3.48,23.03c0,5.41-0.57,10.81-1.43,16.14
		c1.04-0.18,2.13-0.32,3.3-0.43C388.9,159.9,389.42,154.67,389.42,149.36z"/>
	<path class="st5" d="M278.97,126.29c-2.15-4.37-3.82-7.11-5.04-9.11c-1.32-2.17-1.75-2.92-1.75-3.57c0-0.39,0-1.44,2.7-2.51
		c2.89-1.15,7.48-1.73,13.65-1.73c6.19,0,10.6,0.46,13.5,1.4c3.31,1.07,3.31,2.27,3.31,2.84c0,0.54-0.1,1.44-0.22,2.49
		c-0.32,2.84-0.79,7.14-0.22,12.4c0.61,5.64,2.6,15.4,6.19,24.34c4.29,10.66,9.28,16.07,14.85,16.07c5.31,0,9.88-5.77,13.58-17.16
		c2.62-8.07,4.45-18.27,4.45-24.81c0-5.79-0.58-8.71-1.01-10.84c-0.21-1.06-0.35-1.76-0.35-2.49c0-1.47,2.72-4.24,13.02-4.24
		c11.13,0,15.75,2.76,15.75,4.24c0,1.96-0.87,3.6-3.4,8.04c-1.46,2.57-3.28,5.77-5.51,10.24c-5.89,11.91-9.53,21.4-12.58,33.1
		c1.07-0.09,2.18-0.15,3.34-0.18c2.96-11.1,6.52-20.25,12.09-31.51c6.06-12.12,9.24-15.15,9.24-19.69s-7.27-7.42-18.94-7.42
		c-13.03,0-16.21,4.24-16.21,7.42c0,2.88,1.36,4.7,1.36,13.33c0,11.82-6.51,38.78-14.85,38.78c-9.24,0-16.51-24.99-17.88-37.57
		c-0.76-6.97,0.45-12.12,0.45-14.54c0-5.76-8.03-7.42-20-7.42c-13.48,0-19.54,2.73-19.54,7.42c0,2.88,2.42,4.54,7.12,14.09
		c4.75,9.49,7.77,18.3,13.67,37.11c1.17,0.02,2.3,0.05,3.37,0.11C286.81,144.69,283.83,136.01,278.97,126.29z"/>
	<path class="st5" d="M83.29,149.36c0-8.71-1.26-17.03-3.65-24.05c-0.81-2.39-1.53-4.27-2.11-5.79c-1.18-3.1-1.66-4.42-1.66-5.91
		c0-1.69,6.28-4.24,15.75-4.24c9.47,0,15.75,2.55,15.75,4.24c0,1.49-0.48,2.81-1.66,5.91c-0.58,1.51-1.3,3.4-2.11,5.79
		c-2.69,7.91-3.65,18.71-3.65,26.17c0,0.02,0,0.03,0,0.05c0,0.2,0.08,4.84,0.44,9.91c0.11,1.57,0.24,2.96,0.37,4.18
		c1.08,0.18,2.18,0.41,3.29,0.68c-0.77-6.39-0.91-14.82-0.91-14.82c0-7.73,1.06-18.03,3.48-25.15c2.42-7.12,3.94-9.54,3.94-12.72
		c0-5.76-11.82-7.42-18.94-7.42c-7.12,0-18.94,1.67-18.94,7.42c0,3.18,1.51,5.61,3.94,12.72c2.42,7.12,3.48,15.3,3.48,23.03
		c0,5.59-0.61,11.19-1.52,16.7c1.13-0.25,2.24-0.45,3.33-0.61C82.75,160.16,83.29,154.79,83.29,149.36z"/>
	<path class="st5" d="M122.22,180.57c12.19,0,16.52-5.63,16.52-10.46c0-1.59-0.63-3.16-1.69-4.22c-0.61-0.61-1.42-0.93-2.25-0.93
		c-0.31,0-0.62,0.04-0.92,0.14c-1.12,0.34-1.97,1.27-2.2,2.42c-0.05,0.23-0.25,0.62-1.12,0.62c-1.34,0-2.12-0.94-2.12-2.57
		c0-2.89,2.79-5.15,6.36-5.15c2.53,0,4.46,0.7,5.88,2.15c4.15,4.22,3.97,14.37,3.85,21.09c-0.02,1.16-0.04,2.25-0.04,3.26
		c0,0.72-0.01,1.42-0.02,2.1c0.67-1.3,1.39-2.57,2.18-3.79c0.34-0.53,0.7-1.05,1.07-1.56c0.19-10.48,0.45-26.43-12.92-26.43
		c-5.45,0-9.54,3.79-9.54,8.33c0,3.64,2.42,5.76,5.3,5.76c2.58,0,3.94-1.67,4.24-3.18c0.45,0.45,0.76,1.21,0.76,1.97
		c0,3.94-4.54,7.27-13.33,7.27c-1.3,0-2.53-0.04-3.69-0.11c0.37,1.04,0.6,2.12,0.71,3.23C120.19,180.55,121.19,180.57,122.22,180.57
		z"/>
	<path class="st5" d="M154.16,153.13c-2.83-9.97-1.33-20.88,4.02-29.16c4.53-7.02,11.56-11.05,19.31-11.05
		c1.49,0,3.01,0.15,4.52,0.45c6.83,1.37,12.87,4.74,16.73,7.33c3.59,2.4,6.43,5.07,8.44,7.93c0.6,0.85,1.57,1.35,2.6,1.35
		c0,0,0,0,0,0c1.04,0,2.01-0.5,2.6-1.35c2.38-3.37,5.97-6.51,10.68-9.33c6.69-4,12.92-6.17,18.49-6.43
		c0.32-0.02,0.64-0.02,0.96-0.02c8.39,0,16.29,5.42,20.62,14.15c0.36,0.72,0.68,1.45,0.98,2.18c0,0,0,0,0,0
		c-0.09-0.07-0.18-0.15-0.27-0.21c-0.89-0.62-1.92-0.99-3-1.08c-0.45-0.98-1.14-1.82-2.03-2.44c-1.04-0.72-2.27-1.11-3.56-1.11
		c-1.29,0-2.56,0.38-3.68,1.06c0,0,0,0,0,0c0.64-2.8,0.8-5.67-0.07-7.5c-1.38-2.9-4.16-4.77-7.08-4.77c-0.99,0-1.95,0.21-2.84,0.64
		c-1.15,0.55-2.09,1.41-2.76,2.48c-0.29-0.04-0.57-0.05-0.86-0.05c-0.99,0-1.94,0.21-2.82,0.63c-3.57,1.7-4.94,6.32-3.05,10.3
		c1.85,3.89,10.15,7.1,13.61,7.1h0c0.1,0,0.19,0,0.28-0.01c0.72-0.03,1.39-0.3,1.93-0.76c0,0,0,0,0,0c0.06,3.22,0.89,6.62,1.83,8.12
		c0.46,0.73,1.2,1.25,2.04,1.43c0.49,0.1,1.03,0.15,1.66,0.15c0,0,0,0,0,0c2.89,0,9.48-1.33,11.62-4.39
		c0.52-0.74,0.89-1.54,1.12-2.35c0,0,0,0,0.01,0c1.18,6.75,0.44,14-2.22,21.14c-1.81,4.84-4.35,9.58-7.61,14.17
		c0.96,0.47,1.9,1,2.81,1.56c3.16-4.51,5.82-9.38,7.78-14.62c4.04-10.82,4.22-22.61-0.97-33.1c-4.65-9.38-13.77-16.41-24.58-15.9
		c-7,0.33-14.02,3.32-19.97,6.88c-4.43,2.65-8.66,5.99-11.65,10.22c-2.45-3.47-5.71-6.36-9.27-8.74
		c-5.31-3.56-11.58-6.54-17.88-7.81c-10.93-2.19-21.16,2.73-27.13,11.99c-6,9.3-7.4,21.19-4.4,31.76
		c1.92,6.76,4.99,12.98,8.88,18.68c0.94-0.52,1.9-1,2.88-1.43C158.85,165.47,155.93,159.41,154.16,153.13z M245.84,131.05
		c-2.63,0.11-9.74-2.88-10.88-5.28c-1.14-2.4-0.45-5.11,1.54-6.06c1.42-0.67,3.1-0.26,4.37,0.89c-0.09-1.71,0.65-3.28,2.06-3.95
		c1.99-0.95,4.53,0.23,5.67,2.63C249.74,121.68,247.58,129.08,245.84,131.05z M262.44,136.96c-1.31,1.88-7.78,3.41-10.01,2.94
		c-1.2-1.93-1.99-8.53-0.67-10.41c1.31-1.88,3.64-2.52,5.2-1.43c1.11,0.77,1.51,2.22,1.19,3.66c1.24-0.8,2.74-0.91,3.84-0.14
		C263.56,132.68,263.76,135.09,262.44,136.96z"/>
	<path class="st5" d="M431.74,297.01c0,5.21-3.5,10.75-9.99,10.75c-3.62,0-6.36-2.08-6.36-4.84c0-0.96,0.26-2.57,1.96-2.57
		c0.47,0,0.7,0.07,0.92,0.7c0.35,1.05,1.22,1.84,2.29,2.09c0.24,0.06,0.49,0.09,0.73,0.09c0.84,0,1.65-0.33,2.25-0.93
		c0.96-0.96,1.54-2.43,1.54-3.92c0-2.98-2.56-6.15-6.46-6.61c-0.66,0-1.33,0-2,0c-0.03,0-0.06,0-0.09,0
		c-4.92,0.51-9.8,4.47-9.8,14.34c0,5.97,0.61,12.58,5.16,16.32c3.72,3.07,9.19,3.68,16.81,3.68c8.57,0,14.67-1.07,18.64-3.27
		c1.26-0.68,2.18-1.45,2.86-2.02c0.18,0.49,0.4,1.32,0.57,2.66c0.3,2.36,0.34,5.39,0.34,7.77c0,0.97,0.01,1.9,0.01,2.8
		c0.05,8.82-0.09,13.22-3.77,16.91c-5.18,5.18-13.98,5.43-29.1,5.43c-14.67,0-24.21-0.71-30.02-2.24c-6.64-1.75-6.64-4.06-6.64-5.18
		c0-4.26,1.47-10.49,2.89-16.51c0.17-0.72,0.34-1.43,0.51-2.15c0-0.01,0.36-1.63,0.36-1.63c2.4-10.91,4.88-22.19,4.88-33.79
		c0-1.5-0.04-2.99-0.11-4.47c-1.14-0.16-2.21-0.34-3.22-0.53c0.1,1.68,0.15,3.35,0.15,5c0,11.82-2.73,23.63-5.15,34.69
		c-1.67,7.12-3.48,14.24-3.48,19.39c0,7.88,10.76,10.6,39.84,10.6c15,0,25.15-0.15,31.36-6.36c5.3-5.3,4.7-11.97,4.7-21.97
		c0-7.73-0.45-14.09-3.94-14.09c-1.36,0-2.27,1.67-4.54,2.88c-4.09,2.27-10.76,2.88-17.12,2.88c-14.39,0-18.78-2.27-18.78-16.81
		c0-6.67,2.58-11.21,7.73-11.21c2.58,0,4.24,1.97,4.24,3.48c0,0.76-0.3,1.36-0.61,1.67c-0.61-1.82-1.97-2.88-3.94-2.88
		c-2.88,0-5.15,2.12-5.15,5.76c0,4.54,4.09,8.03,9.54,8.03c6.97,0,13.18-5.45,13.18-13.94c0-1.94-0.44-3.93-1.27-5.79
		c-1.13,0.12-2.27,0.21-3.44,0.28C431.21,293.22,431.74,295.14,431.74,297.01z"/>
	<path class="st5" d="M311.91,298.37c4.29,10.66,9.28,16.07,14.85,16.07c5.31,0,9.88-5.77,13.58-17.16
		c1.14-3.5,2.13-7.41,2.88-11.24c-1.24,0.91-2.49,1.68-3.74,2.33c-2.58,11.31-7.26,22.89-12.72,22.89c-5.9,0-11-10.2-14.27-20.85
		c-1.28-0.35-2.51-0.78-3.7-1.28C309.65,292.17,310.69,295.32,311.91,298.37z"/>
	<path class="st5" d="M367.28,269.89c-1.15,2.06-2.47,4.5-3.98,7.53c-6.85,13.86-10.66,24.44-14.04,39.03
		c-0.88,3.87-1.52,7.88-2.14,11.76c-1.49,9.33-2.9,18.15-7.19,22.63c-4.02,4.15-7.8,5.55-14.98,5.55c-6.26,0-10.46-1.33-14.5-4.59
		c-4.9-3.99-7.49-12.38-11.78-26.28c-0.68-2.21-1.41-4.56-2.19-7.04c-8.14-26.14-11.23-35.74-16.7-46.66
		c-2.15-4.37-3.82-7.11-5.04-9.11c-1.32-2.17-1.75-2.92-1.75-3.57c0-0.39,0-1.44,2.7-2.51c2.3-0.91,5.7-1.47,10.11-1.65
		c-0.31-1-0.63-2.02-0.95-3.07c-0.01-0.02-0.02-0.05-0.02-0.07c-10.33,0.56-15.03,3.17-15.03,7.31c0,2.88,2.42,4.54,7.12,14.09
		c5.45,10.91,8.63,20.9,16.51,46.2c5.91,18.78,8.48,29.54,15,34.84c4.7,3.79,9.69,5.3,16.51,5.3c7.57,0,12.42-1.52,17.27-6.51
		c6.97-7.27,7.12-22.57,10.15-35.9c3.33-14.39,7.12-24.84,13.79-38.33c0.55-1.1,1.08-2.13,1.58-3.09c-0.33-1.32-0.5-2.71-0.5-4.14
		C367.23,271.04,367.25,270.47,367.28,269.89z"/>
	<path class="st5" d="M357.74,254.92c5.55,0.11,9.34,0.93,11.64,1.88c0.23-1.04,0.48-2.09,0.73-3.14
		c-2.92-1.11-6.95-1.78-11.86-1.91c-0.06,0.37-0.12,0.74-0.18,1.11C357.96,253.54,357.85,254.23,357.74,254.92z"/>
	<path class="st5" d="M100.76,297.01c0,0.02,0,0.03,0,0.05c0,0.2,0.08,4.84,0.44,9.91c0.7,9.75,1.79,12.3,2.87,13.59
		c3.06,3.68,9.44,5.54,18.96,5.54c12.19,0,16.52-5.63,16.52-10.46c0-1.59-0.63-3.16-1.69-4.22c-0.61-0.61-1.42-0.93-2.25-0.93
		c-0.31,0-0.62,0.04-0.92,0.14c-1.12,0.34-1.97,1.27-2.2,2.42c-0.05,0.23-0.25,0.62-1.12,0.62c-1.34,0-2.12-0.94-2.12-2.57
		c0-2.89,2.79-5.15,6.36-5.15c2.53,0,4.46,0.7,5.88,2.15c4.15,4.22,3.97,14.37,3.85,21.09c-0.02,1.16-0.04,2.25-0.04,3.26
		c0,9.73-1.44,15.74-4.38,18.37c-4.41,3.92-9.34,5.56-28.48,5.56c-14.7,0-24.29-0.71-30.18-2.25c-6.78-1.77-6.78-4.07-6.78-5.17
		c0-4.26,1.41-10.21,2.89-16.51c0.17-0.72,0.34-1.44,0.51-2.15c0-0.01,0.36-1.63,0.36-1.63c2.4-10.91,4.88-22.19,4.88-33.79
		c0-1.51-0.04-3.01-0.12-4.5c-1.13-0.16-2.21-0.34-3.22-0.53c0.1,1.69,0.15,3.37,0.15,5.03c0,11.82-2.73,23.63-5.15,34.69
		c-1.67,7.12-3.48,14.24-3.48,19.39c0,7.88,11.06,10.6,40.14,10.6c18.78,0,25.15-1.52,30.6-6.36c4.24-3.79,5.45-11.51,5.45-20.75
		c0-10,1.97-29.69-12.88-29.69c-5.45,0-9.54,3.79-9.54,8.33c0,3.64,2.42,5.76,5.3,5.76c2.58,0,3.94-1.67,4.24-3.18
		c0.45,0.45,0.76,1.21,0.76,1.97c0,3.94-4.54,7.27-13.33,7.27c-8.63,0-14.24-1.67-16.51-4.39c-2.27-2.73-2.58-21.51-2.58-21.51
		c0-1.67,0.05-3.45,0.15-5.3c-1.09-0.02-2.16-0.04-3.19-0.07C100.81,293.55,100.76,295.36,100.76,297.01z"/>
	<path class="st5" d="M253.73,261.29c4.17,2.44,7.76,6.31,10.2,11.25c0.36,0.72,0.68,1.45,0.98,2.18c0,0,0,0,0,0
		c-0.09-0.07-0.18-0.15-0.27-0.21c-0.89-0.62-1.92-0.99-3-1.08c-0.45-0.98-1.14-1.82-2.03-2.44c-1.04-0.72-2.27-1.11-3.56-1.11
		c-1.29,0-2.56,0.38-3.68,1.06c0,0,0,0,0,0c0.64-2.8,0.8-5.67-0.07-7.5c-0.09-0.19-0.18-0.37-0.28-0.55
		c-0.81,0.74-1.64,1.48-2.48,2.21c0.86,2.66-1.2,9.58-2.88,11.48c-1.76,0.07-5.51-1.24-8.15-2.83c-0.91,0.65-1.84,1.31-2.79,1.96
		c3.3,2.39,8.31,4.06,10.8,4.06h0c0.1,0,0.19,0,0.28-0.01c0.72-0.03,1.39-0.3,1.93-0.76c0,0,0,0,0,0c0.06,3.22,0.89,6.62,1.83,8.12
		c0.46,0.73,1.2,1.25,2.04,1.43c0.49,0.1,1.03,0.15,1.66,0.15c0,0,0,0,0,0c2.89,0,9.48-1.33,11.62-4.39
		c0.52-0.74,0.89-1.54,1.12-2.35c0,0,0,0,0.01,0c1.18,6.75,0.44,14-2.22,21.14c-3.99,10.68-11.54,20.82-22.43,30.14
		c-4.61,3.94-9.79,7.79-15.84,11.76c-4.66,3.06-10.16,6.49-15.91,8.97c-6.35-2.76-12.28-6.52-17.77-10.19
		c-6.72-4.5-12.45-8.98-17.51-13.69c-10.31-9.59-17.15-20.16-20.35-31.43c-2.83-9.97-1.33-20.88,4.02-29.16
		c1.82-2.82,4.05-5.16,6.56-6.95c-0.18-0.17-0.36-0.33-0.54-0.5c-0.61-0.57-1.21-1.14-1.8-1.72c-2.65,1.98-4.99,4.49-6.89,7.44
		c-0.49,0.76-0.95,1.55-1.38,2.34c-0.7,2.82-1.71,5.54-3.18,7.98c-1.88,6.97-1.82,14.49,0.15,21.43
		c3.65,12.89,11.52,23.85,21.24,32.9c5.55,5.16,11.62,9.79,17.91,14c6.1,4.09,12.5,8.08,19.3,10.9c0.21,0.09,0.41,0.05,0.59-0.05
		c0.01,0,0.02,0,0.03-0.01c6.05-2.51,11.81-6.02,17.28-9.61c5.61-3.68,11.06-7.64,16.17-12c10.05-8.59,18.67-18.94,23.34-31.44
		c4.04-10.82,4.22-22.61-0.97-33.1c-2.46-4.96-6.17-9.26-10.71-12.14C255.31,259.76,254.53,260.53,253.73,261.29z M263.26,282.5
		c-1.31,1.88-7.78,3.41-10.01,2.94c-1.2-1.93-1.99-8.53-0.67-10.41c1.31-1.88,3.64-2.52,5.2-1.43c1.11,0.77,1.51,2.22,1.19,3.66
		c1.24-0.8,2.74-0.91,3.84-0.14C264.37,278.22,264.57,280.62,263.26,282.5z"/>
</g>
</svg>
