<?xml version="1.0" encoding="utf-8"?>
<!-- Generator: Adobe Illustrator 25.0.0, SVG Export Plug-In . SVG Version: 6.00 Build 0)  -->
<svg version="1.1" id="Layer_1" xmlns="http://www.w3.org/2000/svg" xmlns:xlink="http://www.w3.org/1999/xlink" x="0px" y="0px"
	 viewBox="0 0 500 500" style="enable-background:new 0 0 500 500;" xml:space="preserve">
<style type="text/css">
	.st0{fill:#B51B2C;}
	.st1{fill:#030304;}
	.st2{fill:#020203;}
	.st3{fill:#13110C;}
	.st4{fill:#CE536A;}
	.st5{fill:#F192AC;}
	.st6{fill:#E3748C;}
	.st7{fill:#C0364A;}
	.st8{fill:#EE7289;}
</style>
<g>
	<path class="st0" d="M235.33,189.52c-7.39,2.92-14.09,8.14-19.97,13.42c-4.45,4-8.55,8.47-11.65,13.62
		c-2.45-2.8-5.72-4.82-9.27-6.34c-5.65-2.41-11.75-3.89-17.88-4.1c-10.86-0.37-21.31,5.48-27.13,14.62
		c-5.95,9.34-7.55,21.46-4.4,31.78c3.77,12.35,10.96,23.63,21.24,31.71c5.54,4.35,11.59,8.14,17.91,11.12
		c6.14,2.89,12.62,5.16,19.3,6.27c0.2,0.03,0.41-0.06,0.59-0.21c0.01-0.01,0.02-0.01,0.03-0.02c6.09-4.25,11.82-9.5,17.28-14.79
		c5.65-5.47,11.12-11.31,16.17-17.42c9.75-11.8,18.93-25.22,23.34-39.73c3.18-10.48,5.05-22.63-0.97-32.75
		C254.76,188.06,244.3,185.98,235.33,189.52z M239.78,209.33c-2.63,1.03-9.74,0.46-10.88-1.55c-1.14-2.02-0.45-4.95,1.54-6.57
		c1.42-1.15,3.1-1.31,4.37-0.6c-0.09-1.68,0.65-3.5,2.06-4.67c1.99-1.64,4.95-1.18,5.67,0.65
		C243.87,199.99,241.8,205.72,239.78,209.33z M256.38,209.35c-1.31,2.35-7.78,6.2-10.01,6.52c-1.2-1.5-1.99-7.83-0.67-10.17
		c1.31-2.34,3.64-3.81,5.2-3.28c1.11,0.38,1.51,1.67,1.19,3.23c1.24-1.24,2.74-1.89,3.84-1.51C257.5,204.67,257.7,207,256.38,209.35
		z"/>
	<path class="st0" d="M128.73,254.69c-4.44-0.61-9.52,1.78-9.54,6.8c-0.02,3.62,2.42,6.25,5.3,6.7c2.58,0.4,3.94-1.11,4.24-2.59
		c0.45,0.51,0.79,1.34,0.76,2.06c-0.29,5.96-8.96,6.11-13.33,5.01c-5.98-1.5-13.61-4.06-16.51-9.24
		c-3.17-5.67-2.43-15.28-2.58-22.49c0.06-7.87,0.63-16.42,3.48-23.84c2.41-6.24,4.19-8.48,3.94-11.38
		c-0.61-7.09-12.82-12.13-18.94-15.21c-3.06-1.54-18.28-9.05-18.94-3.96c-0.54,4.22,2.65,10.52,3.94,15.41
		c2.14,8.13,3.67,16.81,3.48,25.26c-0.24,10.62-2.3,21.11-5.15,31.34c-1.53,5.48-3.5,11.32-3.48,16.96
		c0.06,15.73,28.24,27.48,40.14,30.97c9.28,2.72,22.68,6.43,30.6-0.63c5.33-4.75,5.32-13.69,5.45-20.48
		C141.82,274.69,143.15,256.68,128.73,254.69z"/>
	<path class="st0" d="M349.58,152.84c-5.24,0.76-16.32,3.09-16.21,9.86c0.07,4.09,1.44,8.6,1.36,13.08
		c-0.17,10.27-3.78,38.85-14.85,41.96c-10.74,3.02-17.06-25.07-17.88-32.68c-0.53-4.95,0.47-10.07,0.45-14.68
		c-0.02-7.86-16.46-2.21-20-1c-6.12,2.09-19.89,6.95-19.54,14.27c0.17,3.69,5.07,8.08,7.12,11.56
		c7.34,12.44,11.76,26.84,16.51,40.51c3.2,9.2,5.74,25.12,15,30.07c4.97,2.65,11.16,2.13,16.51,0.73c6.56-1.71,13-4.71,17.27-10.26
		c7.92-10.27,7.4-25.42,10.15-37.49c3.12-13.71,7.68-27.06,13.78-39.61c2.75-5.65,9.5-13.77,9.24-19.93
		C368.21,152.26,354.51,152.12,349.58,152.84z"/>
	<path class="st0" d="M447.44,256.62c0.05-5.04,0.33-13.57-3.94-16.75c-1.23-0.91-2.33,0.23-4.54,0.01
		c-5.87-0.57-11.64-3.66-17.12-5.99c-11.68-4.97-18.53-10.07-18.78-23.31c-0.08-4.18,2.03-10.94,7.73-8.92
		c2.5,0.89,4.24,3.45,4.24,4.97c0,0.76-0.3,1.25-0.61,1.44c-0.61-2.04-1.97-3.59-3.94-4.24c-2.88-0.94-5.24,0.64-5.15,4.19
		c0.13,5.24,4.79,9.41,9.54,11.12c6.09,2.2,13.69-0.64,13.18-8.27c-0.56-8.41-6.79-17.93-15-20.86c-3.91-1.4-6.82-1.29-9.09-0.7
		c-0.11-4.19,0.88-9.31,4.09-11.85c1.63-1.29,4.4-2.84,10.6-0.34c4.78,1.93,8.34,5.88,10.45,10.49c2.53,5.52,2.45,8.4,5.6,10.11
		c7.19,3.88,7.37-9.81,7.42-13.57c0.08-5.56-1.23-12.58-6.21-15.59c-6.72-4.05-15.42-6.16-23.03-8.75
		c-7.63-2.6-15.48-5.11-23.48-6.43c-4.9-0.81-16.64-1.44-16.66,5.92c-0.01,4.23,2.6,8.86,3.94,12.9c2.44,7.35,3.66,15.54,3.48,23.27
		c-0.26,11.58-2.55,23.03-5.15,34.36c-1.44,6.3-3.4,12.83-3.48,19.27c-0.06,5.07,4.96,7.17,9.06,8.74
		c9.88,3.79,20.92,5.38,30.78,8.7c8.34,2.81,22.78,12.08,31.36,8.89C448.84,273.16,447.38,261.96,447.44,256.62z"/>
</g>
<g>
	<path class="st5" d="M384.18,127.7c0.01-8.09-1.08-16.48-3.65-24.41c-0.79-2.45-1.53-4.4-2.11-5.95c-1.18-3.18-1.66-4.52-1.66-6.02
		c0-0.66,0-1.9,2.65-2.72c2.31-0.71,5.95-0.84,10.82-0.07c2.58,0.41,5.16,0.99,8.15,1.79c5.17,1.38,10.29,3,15.33,4.8
		c5.49,1.96,11.03,3.86,16.46,5.95c2.66,1.02,4.77,1.95,6.56,2.99c0.75,0.44,1.42,0.96,2.05,2.81c0.64,1.89,1.04,4.53,0.97,7.63
		c-0.06,2.65-0.73,13.39-4.24,12.33c-0.02,0-0.04-0.02-0.05-0.03c-0.23-0.46-0.58-1.44-0.85-2.19c-0.48-1.33-1.11-3-1.99-4.98
		c-2.56-5.81-7.36-10.93-13.17-13.54c-4.08-1.83-9.09-2.3-12.86,0.51c-0.02,0.01-0.03,0.02-0.05,0.04
		c-3.87,3.16-5.18,9.1-4.97,14.05c0.05,1.09,0.67,2.24,1.61,3.02c0.49,0.4,1.03,0.69,1.57,0.84c0.51,0.14,1.03,0.16,1.5,0.05
		c2.2-0.54,4.71-0.29,7.59,0.71c6.37,2.21,11.57,9.55,11.81,16.24c0.2,5.61-4.97,8.62-9.99,6.53c-3.45-1.43-6.36-4.28-6.36-7.04
		c0-0.96,0.26-2.5,1.96-1.93c0.47,0.16,0.7,0.3,0.92,1.01c0.35,1.17,1.22,2.26,2.29,2.9c0.24,0.15,0.49,0.26,0.73,0.35
		c0.84,0.31,1.65,0.29,2.25-0.08c0.96-0.59,1.59-1.87,1.54-3.3c-0.14-4.12-3.5-7.99-7.43-9.43c-7.3-2.67-11.15,5.13-10.91,11.24
		c0.06,1.45,0.04,3.06,0.17,4.62c1.02,0.29,2.09,0.6,3.22,0.94c-0.13-1.44-0.15-3.07-0.2-4.75c-0.14-4.23,2.04-10.93,7.73-8.87
		c2.5,0.91,4.24,3.48,4.24,5c0,0.76-0.3,1.25-0.61,1.44c-0.61-2.04-1.97-3.61-3.94-4.27c-2.88-0.96-5.23,0.6-5.15,4.15
		c0.11,4.9,4.23,8.89,8.58,10.8c0.98,0.34,1.92,0.67,2.83,0.98c5.88,1.42,11.72-2.2,11.32-8.75c-0.53-8.48-6.79-17.98-15-20.98
		c-3.91-1.43-6.82-1.34-9.09-0.76c-0.11-4.18,0.88-9.3,4.09-11.82c1.63-1.28,4.4-2.81,10.6-0.26c4.79,1.97,8.34,5.95,10.45,10.57
		c2.53,5.55,2.44,8.41,5.6,10.15c7.19,3.96,7.37-9.76,7.42-13.5c0.08-5.58-1.23-12.6-6.21-15.64c-6.71-4.1-15.41-6.28-23.03-8.94
		c-7.62-2.66-15.47-5.22-23.48-6.59c-4.87-0.84-16.65-1.55-16.66,5.82c-0.01,4.24,2.6,8.87,3.94,12.92
		c2.44,7.36,3.65,15.54,3.48,23.29c-0.12,5.39-0.66,10.63-1.43,16.03c1.04-0.1,2.13-0.14,3.3-0.13
		C383.57,138.02,384.17,132.83,384.18,127.7z"/>
	<path class="st5" d="M273.72,124.34c-2.16-3.6-3.82-5.77-5.04-7.33c-1.32-1.7-1.75-2.3-1.75-2.95c0-0.39,0.01-1.48,2.7-3.47
		c4.02-2.96,8.94-4.87,13.65-6.47c4.28-1.45,8.97-3,13.5-3.01c3.26-0.01,3.31,1.24,3.31,1.82c0,0.54-0.09,1.49-0.22,2.55
		c-0.48,4.01-0.72,8.43-0.22,12.47c0.96,7.83,3.23,15.22,6.2,22.5c2.3,5.63,7.66,13.95,14.85,12.12
		c8.05-2.05,11.4-13.37,13.58-20.06c2.61-8.05,4.4-17.05,4.45-25.58c0.04-5.75-0.58-8.61-1.01-10.67c-0.21-1.02-0.45-1.83-0.35-2.43
		c0.66-4,9.18-5.78,13.02-6.04c4.9-0.34,14.53-0.25,15.75,3.3c0.43,1.25-0.87,3.59-3.4,8.12c-1.46,2.62-3.33,5.92-5.51,10.51
		c-5.26,11.08-9.4,22.43-12.58,34.38c1.07-0.23,2.18-0.44,3.34-0.6c2.91-11.31,7.06-22.22,12.09-32.53
		c2.75-5.63,9.5-13.74,9.24-19.89c-0.3-6.97-13.98-7.17-18.94-6.48c-5.23,0.74-16.33,3.02-16.21,9.8c0.07,4.09,1.44,8.6,1.36,13.08
		c-0.17,10.24-3.78,38.84-14.85,41.91c-10.75,2.98-17.06-25.1-17.88-32.73c-0.53-4.95,0.47-10.07,0.45-14.68
		c-0.02-7.86-16.45-2.24-20-1.03c-6.12,2.08-19.89,6.93-19.54,14.26c0.17,3.69,5.07,8.07,7.12,11.56
		c5.92,10.06,9.77,21.35,13.67,32.39c1.17-0.38,2.3-0.72,3.37-1.02C283.86,146.62,280,134.83,273.72,124.34z"/>
	<path class="st5" d="M78.05,161.45c0.02-8.73-1.37-17.65-3.65-26.24c-0.76-2.86-1.53-5.23-2.11-7.12
		c-1.18-3.86-2.01-6.48-1.66-6.99c1.15-1.71,12.03,3,15.75,4.83c5.08,2.5,14.61,6.47,15.75,10.83c0.28,1.08-0.48,2.65-1.66,5.32
		c-0.58,1.31-1.32,2.94-2.11,5.01c-2.93,7.66-3.7,16.5-3.65,24.73c0,0.02,0,0.03,0,0.05c0,0.2,0.08,4.88,0.44,10.09
		c0.11,1.62,0.24,3.05,0.37,4.33c1.08,0.62,2.18,1.28,3.29,1.96c-0.58-5.02-0.82-10.11-0.91-15.17c0.06-7.88,0.63-16.44,3.48-23.87
		c2.41-6.26,4.19-8.51,3.94-11.41c-0.6-7.08-12.83-12.04-18.94-15.06c-3.09-1.53-18.28-8.91-18.94-3.8
		c-0.54,4.22,2.65,10.49,3.94,15.37c2.14,8.12,3.66,16.78,3.48,25.23c-0.11,5.32-0.68,10.43-1.52,15.76
		c1.13,0.46,2.24,0.94,3.33,1.42C77.61,171.66,78.04,166.44,78.05,161.45z"/>
	<path class="st5" d="M116.98,207.87c6.13,1.4,16.45,0.34,16.52-7.96c0.01-1.57-0.63-3.22-1.69-4.38c-0.61-0.67-1.42-1.08-2.25-1.18
		c-0.31-0.04-0.62-0.03-0.92,0.02c-1.12,0.2-1.97,1.01-2.2,2.13c-0.05,0.23-0.25,0.59-1.12,0.46c-1.34-0.2-2.12-1.27-2.12-2.91
		c0-2.89,2.79-4.66,6.36-4.24c2.53,0.3,4.58,1.17,5.88,2.72c4.52,5.38,4,14.42,3.85,21.33c-0.03,1.15-0.04,2.25-0.04,3.26
		c0,0.72-0.01,1.42-0.02,2.1c0.67-1.27,1.39-2.51,2.18-3.71c0.34-0.52,0.7-1.03,1.07-1.53c0.24-10.21,0.2-25.63-12.92-27.35
		c-4.45-0.59-9.52,1.84-9.54,6.86c-0.02,3.62,2.42,6.23,5.3,6.66c2.58,0.39,3.94-1.13,4.24-2.61c0.45,0.51,0.79,1.34,0.76,2.06
		c-0.29,5.96-8.78,6.07-13.33,5.09c-1.3-0.28-2.53-0.61-3.69-0.97c0.37,1.13,0.6,2.27,0.71,3.4
		C114.95,207.39,115.96,207.63,116.98,207.87z"/>
	<path class="st5" d="M148.91,183.48c-2.53-10.24-1.25-19.92,4.02-29.27c3.79-6.74,11.51-11.74,19.31-12.89
		c1.49-0.22,3.02-0.31,4.52-0.26c5.75,0.19,11.45,1.61,16.73,3.89c3.59,1.54,6.43,3.46,8.44,5.78c0.6,0.69,1.57,0.93,2.6,0.64
		c0,0,0,0,0,0c1.04-0.29,2.01-1.07,2.6-2.08c2.8-4.72,6.61-8.92,10.68-12.52c5.49-4.86,11.51-9.83,18.49-12.55
		c0.32-0.12,0.65-0.24,0.96-0.35c7.46-2.77,16.44-0.15,20.62,6.84c0.35,0.59,0.68,1.2,0.98,1.83c0,0,0,0,0,0
		c-0.09-0.04-0.18-0.08-0.27-0.12c-0.89-0.3-1.92-0.3-3,0c-0.45-0.81-1.14-1.41-2.03-1.72c-1.04-0.35-2.27-0.3-3.56,0.17
		c-1.29,0.46-2.56,1.29-3.68,2.37c0,0,0,0,0,0c0.64-3.03,0.8-5.95-0.07-7.48c-1.38-2.41-4.16-3.3-7.08-2.28
		c-0.99,0.35-1.95,0.89-2.84,1.62c-1.15,0.94-2.09,2.13-2.76,3.43c-0.29,0.06-0.57,0.14-0.86,0.24c-0.99,0.34-1.94,0.9-2.82,1.59
		c-3,2.33-5.1,8.29-3.05,11.32c2.4,3.53,9.37,3.56,13.61,2.45c0,0,0,0,0,0c0.1-0.03,0.19-0.07,0.28-0.1
		c0.72-0.28,1.39-0.79,1.93-1.44c0,0,0,0,0,0c0.06,3.2,0.89,6.3,1.83,7.48c0.46,0.57,1.2,0.83,2.04,0.7
		c0.49-0.07,1.03-0.21,1.66-0.43c0,0,0,0,0,0c4.42-1.75,9.2-4.61,11.62-8.55c0.53-0.87,0.89-1.86,1.12-2.75c0,0,0,0,0.01,0
		c0.83,7.82-0.01,14.62-2.22,21.94c-1.75,5.77-4.56,11.52-7.61,16.89c0.96,0.13,1.9,0.32,2.81,0.55c3.12-5.55,5.94-11.45,7.78-17.4
		c3.21-10.42,5.05-22.63-0.97-32.75c-5.15-8.66-15.61-10.73-24.58-7.18c-7.39,2.92-14.09,8.16-19.97,13.45
		c-4.45,4.01-8.55,8.49-11.65,13.65c-2.45-2.8-5.72-4.81-9.27-6.31c-5.65-2.39-11.75-3.86-17.88-4.04
		c-10.88-0.33-21.32,5.58-27.13,14.74c-5.94,9.35-7.57,21.49-4.4,31.8c2.03,6.61,5.03,12.53,8.88,18.47c0.94-0.57,1.9-1.1,2.88-1.6
		C153.9,195.63,150.48,189.82,148.91,183.48z M240.59,140.88c-2.63,1.03-9.74,0.47-10.88-1.54c-1.14-2.01-0.45-4.95,1.54-6.58
		c1.42-1.15,3.1-1.31,4.37-0.6c-0.09-1.68,0.65-3.5,2.07-4.67c1.99-1.64,4.95-1.19,5.67,0.64
		C244.69,131.54,242.61,137.27,240.59,140.88z M257.2,140.89c-1.31,2.35-7.78,6.2-10.01,6.52c-1.2-1.5-1.99-7.83-0.67-10.17
		c1.31-2.34,3.64-3.81,5.2-3.28c1.11,0.38,1.51,1.67,1.19,3.23c1.24-1.24,2.74-1.89,3.84-1.51
		C258.31,136.21,258.51,138.54,257.2,140.89z"/>
	<path class="st5" d="M426.49,287.47c0.11,5.53-4.99,8.58-9.99,6.45c-3.44-1.46-6.36-4.33-6.36-7.09c0-0.96,0.26-2.5,1.96-1.92
		c0.47,0.16,0.7,0.31,0.92,1.02c0.35,1.17,1.22,2.27,2.29,2.92c0.24,0.15,0.49,0.27,0.73,0.36c0.84,0.32,1.65,0.31,2.25-0.06
		c0.96-0.58,1.54-1.8,1.54-3.29c0-2.98-2.56-7.25-6.46-9.09c-0.66-0.23-1.33-0.46-2-0.69c-0.03-0.01-0.06-0.02-0.09-0.03
		c-7.51-1.62-9.49,5.95-9.8,11.48c-0.32,5.73,0.77,13.1,5.16,17.72c4.5,4.75,10.96,7.33,16.81,9.9c5.94,2.6,12.21,6.07,18.64,6.85
		c1.24,0.15,2.18-0.03,2.86-0.14c0.18,0.61,0.4,1.58,0.57,3.04c0.3,2.56,0.34,5.62,0.34,8.01c0,0.96-0.01,1.92,0.01,2.81
		c0.09,4.05,0.71,12.88-3.77,14.42c-7.9,2.7-21.16-6.07-29.1-8.86c-9.67-3.41-20.26-5.38-30.02-8.92c-6.62-2.4-6.66-4.61-6.64-5.7
		c0.08-5.44,1.59-11,2.89-16.32c0.17-0.7,0.34-1.41,0.51-2.11c0-0.01,0.36-1.6,0.36-1.6c2.46-11.08,4.69-22.11,4.88-33.3
		c0.02-1.48-0.04-3-0.11-4.48c-1.14-0.29-2.21-0.58-3.22-0.87c0.1,1.69,0.18,3.39,0.15,5.01c-0.21,11.51-2.55,22.99-5.15,34.3
		c-1.44,6.28-3.41,12.81-3.48,19.23c-0.06,5.08,4.96,7.22,9.06,8.84c9.87,3.91,20.93,5.65,30.78,9.11
		c8.33,2.93,22.72,12.46,31.36,9.4c6.1-2.16,4.64-13.44,4.7-18.72c0.05-5.08,0.33-13.58-3.94-16.82c-1.23-0.94-2.33,0.19-4.54-0.07
		c-5.89-0.67-11.64-3.86-17.12-6.27c-11.64-5.14-18.52-10.34-18.78-23.59c-0.08-4.17,2.05-10.92,7.73-8.81
		c2.49,0.93,4.24,3.51,4.24,5.03c0,0.76-0.3,1.25-0.61,1.44c-0.61-2.05-1.97-3.62-3.94-4.3c-2.88-0.98-5.24,0.57-5.15,4.11
		c0.13,5.26,4.79,9.47,9.54,11.26c6.03,2.27,13.6-0.49,13.18-8.07c-0.1-1.83-0.44-4.15-1.27-6.43c-1.13-0.44-2.27-0.9-3.44-1.37
		C425.96,283.42,426.46,285.64,426.49,287.47z"/>
	<path class="st5" d="M306.67,285.75c2.37,5.49,7.66,13.97,14.85,12.16c8.04-2.02,11.43-13.35,13.58-20.02
		c1.17-3.64,2.13-7.79,2.88-11.75c-1.24,1.12-2.49,2.11-3.74,2.99c-1.72,7.08-4.85,23.53-12.72,25.59
		c-7.32,1.91-12.18-11.55-14.27-17.1c-1.28,0.01-2.51-0.06-3.7-0.21C304.4,280.2,305.52,283.07,306.67,285.75z"/>
	<path class="st5" d="M362.03,247.46c-1.15,2.1-2.5,4.62-3.98,7.73c-6.17,12.95-10.85,26.45-14.04,40.45
		c-0.9,3.96-1.54,8.11-2.14,12.07c-1.17,7.67-2.24,17.55-7.19,23.83c-3.72,4.71-9.29,7.31-14.98,8.77c-4.7,1.2-10.11,1.68-14.5-0.69
		c-7.02-3.79-9.44-15.86-11.78-22.67c-0.68-1.99-1.41-4.11-2.19-6.33c-4.82-13.82-9.14-28.38-16.7-41.01
		c-2.16-3.61-3.82-5.77-5.04-7.34c-1.32-1.7-1.75-2.3-1.75-2.95c0-0.39,0-1.44,2.7-3.47c2.3-1.73,5.7-3.48,10.11-5.17
		c-0.31-0.89-0.63-1.81-0.95-2.74c-0.01-0.02-0.02-0.05-0.02-0.07c-5.23,2.03-15.3,6.63-15.03,12.59c0.17,3.69,5.07,8.08,7.12,11.56
		c7.34,12.45,11.76,26.87,16.51,40.54c3.2,9.22,5.74,25.13,15,30.12c4.96,2.67,11.15,2.18,16.51,0.81
		c6.55-1.67,12.99-4.62,17.27-10.14c7.93-10.23,7.4-25.37,10.15-37.4c3.12-13.67,7.72-26.84,13.78-39.49
		c0.54-1.12,1.08-2.17,1.58-3.15c-0.33-1.31-0.5-2.69-0.5-4.12C361.98,248.61,362,248.03,362.03,247.46z"/>
	<path class="st5" d="M352.49,233.11c5.55-0.41,9.34,0.29,11.64,1.19c0.23-1.04,0.48-2.1,0.73-3.16c-2.92-1.05-6.95-1.56-11.86-1.25
		c-0.06,0.38-0.12,0.75-0.18,1.13C352.72,231.71,352.61,232.41,352.49,233.11z"/>
	<path class="st5" d="M95.52,317.68c0,0.02,0,0.03,0,0.05c0,0.2,0.12,4.91,0.44,10.09c0.3,4.81,0.46,10.7,2.87,14.71
		c3.69,6.11,11.87,9.5,18.96,11.05c6.14,1.34,16.45,0.22,16.52-8.06c0.01-1.57-0.63-3.21-1.69-4.37c-0.61-0.66-1.42-1.07-2.25-1.17
		c-0.31-0.03-0.62-0.03-0.92,0.03c-1.12,0.21-1.97,1.02-2.2,2.14c-0.05,0.22-0.25,0.59-1.12,0.46c-1.34-0.19-2.12-1.26-2.12-2.89
		c0-2.89,2.79-4.68,6.36-4.28c2.53,0.28,4.58,1.15,5.88,2.69c4.53,5.36,4,14.41,3.85,21.3c-0.03,1.15-0.02,2.27-0.04,3.26
		c-0.09,5.66,0.12,14.06-4.38,18.12c-7.17,6.45-20.12,2.69-28.48,0.36c-10.75-3-21.56-8.29-30.18-15.54
		c-6.78-5.7-6.79-8.33-6.78-9.42c0.04-4.93,1.6-9.91,2.89-14.64c0.17-0.61,0.34-1.22,0.51-1.84c0-0.01,0.36-1.4,0.36-1.4
		c2.69-10.22,4.7-20.47,4.88-30.88c0.03-1.49-0.04-3.04-0.12-4.57c-1.13-0.81-2.21-1.62-3.22-2.43c0.1,1.75,0.18,3.5,0.15,5.13
		c-0.2,10.61-2.3,21.17-5.15,31.43c-1.52,5.5-3.5,11.36-3.48,17.02c0.05,15.67,28.32,27.02,40.14,30.32
		c9.35,2.61,22.72,6.09,30.6-1.02c5.32-4.8,5.32-13.72,5.45-20.54c0.21-10.61,1.57-28.73-12.88-30.54c-4.46-0.56-9.52,1.9-9.54,6.92
		c-0.02,3.62,2.42,6.21,5.3,6.63c2.58,0.37,3.94-1.16,4.24-2.64c0.45,0.5,0.79,1.33,0.76,2.05c-0.29,5.95-8.92,6.22-13.33,5.18
		c-5.96-1.42-13.61-3.87-16.51-9.01c-3.18-5.63-2.43-15.26-2.58-22.45c0-1.67,0.05-3.43,0.15-5.24c-1.09-0.43-2.16-0.87-3.19-1.31
		C95.57,314.24,95.52,316.03,95.52,317.68z"/>
	<path class="st5" d="M248.48,268.34c3.97,0.75,8.27,4.2,10.2,7.6c0.33,0.58,0.68,1.2,0.98,1.83c0,0,0,0,0,0
		c-0.09-0.04-0.18-0.08-0.27-0.12c-0.88-0.3-1.92-0.3-3,0c-0.45-0.81-1.14-1.41-2.03-1.71c-1.03-0.35-2.27-0.3-3.56,0.17
		c-1.29,0.46-2.56,1.29-3.68,2.37c0,0,0,0,0,0c0.64-3.03,0.8-5.95-0.07-7.48c-0.09-0.15-0.18-0.3-0.28-0.44
		c-0.81,1.03-1.64,2.06-2.48,3.09c0.64,4.17-0.85,8.88-2.88,12.49c-1.76,0.69-5.51,0.68-8.15-0.01c-0.91,0.96-1.84,1.93-2.79,2.91
		c3.3,1.28,8.31,1.21,10.8,0.34c0,0,0,0,0,0c0.1-0.03,0.19-0.07,0.28-0.1c0.71-0.28,1.39-0.79,1.93-1.44c0,0,0,0,0,0
		c0.06,3.2,0.89,6.3,1.83,7.47c0.46,0.57,1.2,0.83,2.04,0.7c0.49-0.07,1.03-0.21,1.66-0.44c0,0,0,0,0,0
		c2.25-2.07,9.19-4.61,11.62-8.55c0.53-0.87,0.89-1.86,1.12-2.75c0,0,0,0,0.01,0c0.83,7.82-0.03,14.58-2.22,21.94
		c-4.16,13.95-13.17,26.74-22.43,38.09c-4.87,5.98-10.3,11.69-15.84,17.06c-5.04,4.89-10.28,9.49-15.91,13.77
		c-6.18-0.99-12.19-3.11-17.77-5.75c-6.16-2.92-12.09-6.28-17.51-10.57c-9.59-7.61-17.5-18.29-20.35-29.79
		c-2.54-10.24-1.29-20.11,4.02-29.29c1.65-2.86,4.05-5.37,6.56-7.37c-0.18-0.15-0.36-0.3-0.54-0.45c-0.61-0.52-1.21-1.05-1.8-1.59
		c-2.65,2.17-4.99,4.78-6.89,7.78c-0.49,0.78-0.95,1.57-1.38,2.38c-0.7,2.84-1.71,5.57-3.18,8.01c-1.49,7.57-1.64,14.2,0.15,21.43
		c3,12.12,11.24,23.73,21.24,31.51c5.55,4.31,11.59,8.05,17.91,10.98c6.14,2.85,12.63,5.07,19.3,6.16c0.2,0.03,0.41-0.07,0.59-0.22
		c0.01-0.01,0.02-0.01,0.03-0.02c6.11-4.4,11.81-9.55,17.28-14.86c5.65-5.49,11.12-11.34,16.17-17.46
		c9.74-11.81,18.93-25.23,23.34-39.75c3.18-10.48,4.75-22.67-0.97-32.75c-2.07-3.64-6.55-7.32-10.71-8.3
		C250.06,266.24,249.28,267.29,248.48,268.34z M258.02,286.13c-1.31,2.35-7.78,6.2-10.01,6.52c-1.2-1.5-1.99-7.82-0.67-10.17
		c1.31-2.34,3.64-3.81,5.2-3.28c1.11,0.38,1.51,1.67,1.19,3.23c1.24-1.24,2.74-1.89,3.84-1.51
		C259.13,281.45,259.33,283.78,258.02,286.13z"/>
</g>
</svg>
