<?xml version="1.0" encoding="utf-8"?>
<!-- Generator: Adobe Illustrator 25.0.0, SVG Export Plug-In . SVG Version: 6.00 Build 0)  -->
<svg version="1.1" id="Layer_1" xmlns="http://www.w3.org/2000/svg" xmlns:xlink="http://www.w3.org/1999/xlink" x="0px" y="0px"
	 viewBox="0 0 500 500" style="enable-background:new 0 0 500 500;" xml:space="preserve">
<style type="text/css">
	.st0{fill:#B51B2C;}
	.st1{fill:#030304;}
	.st2{fill:#020203;}
	.st3{fill:#13110C;}
	.st4{fill:#CE536A;}
	.st5{fill:#F192AC;}
	.st6{fill:#E3748C;}
	.st7{fill:#C0364A;}
	.st8{fill:#EE7289;}
</style>
<g>
	<g>
		<path class="st0" d="M303.02,223.68c-22.71-21.36-9.76-48.1-38.17-66.1c-20.85-12.15,1.18-23.84,7.78-14.34
			c2.1-32.68-73.65-14.58-36.3,26.47c17.81,23.27-39.03,54.85-18.84,87.23l2.96,5.08c4.56,7.27,17.74-0.02,21.62-3.26
			c-0.31,27.75,60.33,23.64,49.63-7.88c7.55,3.77,14.48,15.16,22.28,12.44C326.75,250.77,316.18,238.24,303.02,223.68z
			 M255.53,173.97c3.71-0.8,5.76,2.48,6.05,2.97c2.65-7.37,14.76-2.23,9.55,6.1c-0.63,0.95-8.55,7.45-8.86,7.88
			c-0.36-0.39-8.73-5.95-9.47-6.82C249.44,180.03,251.25,175.27,255.53,173.97z M268,215.54c-0.63,0.96-8.55,7.45-8.86,7.88
			c-0.36-0.39-8.73-5.95-9.47-6.82c-6.14-7.68,5.32-14.17,8.78-7.16C261.1,202.06,273.21,207.2,268,215.54z M232.81,157.24
			c-6.14-7.69,5.32-14.17,8.78-7.16c2.65-7.37,14.76-2.23,9.55,6.1c-0.63,0.95-8.55,7.45-8.86,7.88
			C241.92,163.67,233.55,158.11,232.81,157.24z M237.1,246.3c-0.36-0.39-8.73-5.95-9.47-6.82c-6.14-7.68,5.32-14.17,8.78-7.16
			c2.65-7.37,14.76-2.23,9.55,6.1C245.33,239.38,237.42,245.87,237.1,246.3z M269.22,272.75c-30.26,2.09-29.62-28.18-2.48-30.76
			C293.36,240.01,297.45,271.75,269.22,272.75z M302.54,235.74c-0.63,0.96-8.55,7.45-8.86,7.88c-0.36-0.39-8.73-5.95-9.47-6.82
			c-6.14-7.68,5.32-14.17,8.78-7.16C295.64,222.27,307.75,227.41,302.54,235.74z"/>
		<path class="st0" d="M293.69,326.8c-1.16-2.15-0.42-4.81,1.48-6.21c-0.6-2.74,0.59-5.79,3.69-6.77c0.47-3.07,3.51-5.23,6.65-4.82
			c2.01,0.21,4.51,1.43,6.72,3.37c9.87-33.64-32.45-43.94-41.77-18.29c-10.84-21.8-47.9-13.14-41.2,17.96
			c4.35-4.04,11.6-4.54,12.99,1.78c3.1,0.98,4.29,4.03,3.69,6.77c3.46,2.66,2.16,7.29-1.62,9.38c11,7.87,27.89,19.21,28.91,20.31
			c0.79-1.07,13.45-11.63,23.5-20.36C295.15,328.98,294.22,327.82,293.69,326.8z"/>
	</g>
	<g>
		<path class="st0" d="M406.89,210.69c3.02,11.11,10.56,24.49,16.25,35.3c2.36,4.48,6.8,5.07,10.7,2.02
			c1.02,1.65,42.39-42.18,14.81-46.03c-6.07,0.25-11.14,6.22-13.27,7.68c-1.73,3.02-1.36-9.2-16.8-11.99
			C410.34,195.98,404.82,204.18,406.89,210.69z"/>
		<path class="st0" d="M105.78,206.75c-15.44,2.79-15.08,15-16.8,11.99c-2.13-1.47-7.2-7.45-13.27-7.68
			c-27.61,3.72,13.92,47.9,14.81,46.03c3.9,3.06,8.34,2.47,10.7-2.02c5.7-10.81,13.23-24.2,16.25-35.3
			C119.52,213.26,114.01,205.05,105.78,206.75z"/>
	</g>
	<g>
		<path class="st0" d="M80.01,164.01c6.86,1.66,13,7.12,19.79,8.28c1.61-1.97,1.9-4.91,2.83-7.27c0.72-3.36,2.78-6.53,6.57-6.1
			c9.63,1.02,18.63,5.78,27.39,9.7c10.61,4.47,3.75,18.12-0.09,25.35c-5.13,11.36-14.33,9.8-23.39,3.77
			c-11.29-7.27-35.01-14.54-40.32-26.63C71.96,167,75.86,162.92,80.01,164.01z"/>
		<path class="st0" d="M129.52,114.26c10.87,5.54,21.29,13.38,28.92,22.96c9.34,11.67-0.57,28-14.4,29.06
			c-16.03,1.36-36.72-23.66-39.83-38.08C102.83,114.59,118.71,107.66,129.52,114.26z M121.94,126.13c-7.66-6.3-10.68-2.57-2.93,3.62
			C126.66,136.04,129.67,132.32,121.94,126.13z"/>
		<path class="st0" d="M162.64,76.76c9.28,13.94,16.24,29.43,23.61,44.46c1,2.18,2,4.51,1.66,6.88
			c-2.34,8.78-14.22,12.87-20.84,5.78c-13.45-10.36-22.64-25.87-37.59-34.27c-13.81-4.16-17.09,4.57-24.53-0.96
			c-6.83-5.07-8.27-14.42-4.35-21.96c14.46-20.3,51.96,23.46,57.5,23.02c-0.63-7.31-5.07-14.24-4.64-21.66
			C153.1,71.86,160.26,72.38,162.64,76.76z"/>
		<path class="st0" d="M207.42,70.95c-1.02,3.9-15.67,8.44-12.71,11.41c7.04,10.09,11.4-16.68,23.03-1.36
			c4.57,8.79,9.43,21.32,4.07,30.66c-8.9,10.06-25.5,13.52-31.98-0.96C155.49,52.25,208.44,43.69,207.42,70.95z M192.62,67.83
			c-1.21,1.63-1.24,3.95-0.84,5.87c2.35-0.16,5.63-2.73,7.22-4.36C198.01,66.82,194.47,65.29,192.62,67.83z"/>
		<path class="st0" d="M317.91,102.83c-0.21,11.28-15.55,10.9-21.13,3.88c-3.96-5.95-0.13-14.88-0.71-21.48
			c-2.82,6.15-2.09,22.6-11.82,21.22c-9.76-1.13-4.89-16.85-6.06-23.52c-2.39,8.56-0.92,23.7-13.75,22.97
			c-16.78,1.23-11.3-15.81-9.24-26.11c3.46-10.58,5.95-42.65,21.92-37.88c7.91,0.49,9.27,21.43,11.83,27.99
			c3.59-6.93,7.48-13.71,11.69-20.27c2.37-5.35,9.14-4.37,13.35-2.02C323.32,57.22,318.51,89.39,317.91,102.83z"/>
		<path class="st0" d="M369.22,87.1c-3.28,11.76-8.89,23.52-16.76,32.9c-9.59,11.47-27.56,5-31.34-8.35
			c-4.52-15.44,15.89-40.69,29.42-46.59C363.61,60.99,373.55,75.18,369.22,87.1z M356.09,82.01c4.65-8.76,0.41-10.97-4.12-2.16
			C347.31,88.61,351.55,90.82,356.09,82.01z"/>
		<path class="st0" d="M389.92,91.37c12.23-0.39,26.01,10.24,26.51,22.94c0.79,11.66-14.74,21.52-19.62,20.43
			c-23.18,27.01-5.89,31.38-14.19,40.4c-5.75,6.26-15.19,6.73-22.3,2.04c-16.28-14.55,17.05-38.37,22.24-49.94
			c-4-6.3-13.31,14.92-20.66,14.29c-9.85-0.27-14.88-12.05-6.29-18.38C366.54,112.21,377.34,100.26,389.92,91.37z M397.59,102.28
			c-2.02,1.58-3.35,3.89-4.14,6.32C399.06,110.44,406.08,105.04,397.59,102.28z"/>
		<path class="st0" d="M434.29,168.11c-4.16-2.33-6.92-6.9-9.87-10.59c-0.49-0.71-1.2-1.51-2.04-1.31c-1.72,0.95-3.7,3.45-2.84,5.32
			c6.2,5.11,15.07,9.91,6.01,18.02c-8.18,5.59-20.04,11.92-29.95,7.72c-11.01-7.41-16.41-23.96-2.88-31.87
			C446.63,114.3,461.48,165.86,434.29,168.11z M435.62,153.04c-1.76-1.01-4.08-0.76-5.93-0.13c0.44,2.31,3.39,5.26,5.19,6.65
			C437.26,158.28,438.36,154.57,435.62,153.04z"/>
	</g>
	<g>
		<path class="st0" d="M101.06,300.68c-10.05,0.77-20.24,3.74-30.26,3.13c-10.8-6.05-16.66-20.64-0.88-24.71
			c13.23-5.1,26.86-9.12,40.65-12.36c2.4-0.57,5.07-1.08,7.23,0.11c3.03,2.07,5.34,7.23,4.38,10.84
			c-4.13,4.57-10.25,7.31-15.12,11.15c19.92-1.21,24.61,3.08,6.72,15.9c5.77-1.43,17.25-7.13,21.5,0.01
			c1.63,3.66,3.11,8.72-1.48,10.83c-11.43,6.31-44.07,33.01-54.22,18.07c-5.16-6.16-7.8-15.99,1.27-19.97
			C87.59,309.34,94.32,305.01,101.06,300.68z"/>
		<path class="st0" d="M150.68,354.94c-6.99,10-16.19,19.23-26.72,25.49c-12.85,7.63-27.65-4.42-26.8-18.27
			c0.85-16.06,28.48-33.11,43.2-34.2C154.03,328.46,158.71,345.15,150.68,354.94z M139.99,345.79c7.29-6.72,4.02-10.22-3.18-3.41
			C129.51,349.1,132.78,352.6,139.99,345.79z"/>
		<path class="st0" d="M159.31,357c26.7-4.81,45.41,29.13,14.75,39.94c-0.28,3.6,3.47,5.75,5.95,7.63
			c5.13,10.53-10.72,20.89-20.38,19.27c-20.28-3.5-1.51-19.94-0.86-30.21c-5.12-5.44-10.29,17.12-17.64,17.89
			c-9.73,1.56-16.87-9.07-9.6-16.89C140.21,381.84,148.6,368.09,159.31,357z M168.87,366.29c-1.68,1.93-2.57,4.44-2.89,6.98
			C171.85,374.05,177.73,367.44,168.87,366.29z"/>
		<path class="st0" d="M200.62,383.44c23.73-13.14,52.36,12.97,26.81,33.07c0.89,3.5,5.15,4.33,8.09,5.32
			c8.24,8.32-3.43,23.22-13.09,24.8c-20.34,3.21-7.84-18.39-10.54-28.32c-6.6-3.5-4.23,19.53-10.95,22.61
			c-8.7,4.61-18.89-3.17-14.53-12.9C190.53,413.09,194.04,397.38,200.62,383.44z M212.66,389.16c-0.97,2.37-1,5.03-0.49,7.54
			C217.97,395.54,221.42,387.38,212.66,389.16z"/>
		<path class="st0" d="M268.91,425.01c4.29,0.69,7.31-3.77,7.2-7.68c-9.64,4.09-21.35,0.87-25.15-9.38
			c-1.43-4.82-5.43-15.45,0.25-18.39c20.86-5.36,6.37,15.33,18.23,14.46c6.05-4.13-1.04-17.63,9.48-17.36
			c4.9-0.97,9.69,1.06,9.62,6.47c1.1,16.16,5.94,34.43-0.77,49.7c-5.99,8.1-19.27,12.25-28.28,7.43
			c-8.03-5.22-13.76-18.45-8.84-27.35C257.53,414.12,262.32,422.51,268.91,425.01z"/>
		<path class="st0" d="M330.66,374.71c16.81,25.19,3.94,17.47,23.22,10.31c9.48,3.9,13.66,15.59,19.11,23.71
			c6.71,11.42-14.25,21.26-23.16,22.87c-10.14,1.7-17.93-25.31-23.22-33.15c-2.79-6.74-8.39-14.46-5.86-21.93
			C322.48,372.84,327.88,371.57,330.66,374.71z"/>
		<path class="st0" d="M382.27,351.95c0.54,3.99-11.28,13.76-7.42,15.39c10.35,6.65,4.19-19.76,20.77-10.02
			c7.57,6.4,16.84,16.13,15.44,26.81c-4.2,12.59-18.71,22.21-29.94,11.29C327.13,354.44,372.84,326.35,382.27,351.95z M367.4,354.69
			c-0.5,1.97,0.36,4.12,1.46,5.75c2.11-1.04,4.17-4.66,5.02-6.78C372.01,351.71,368.14,351.65,367.4,354.69z"/>
		<path class="st0" d="M402.51,308.46c5.25,5.84-2.47,7.28-6.45,9.29c-2.44,1.75-1.3,5.58,1.84,4.92c5.06-1.68,7.81-7.24,12.54-9.53
			c11.25-5.28,26.58,2.56,31.67,13.18c3.45,10.51-0.48,25.27-10.34,30.8c-9.42,4.27-26.09,1.51-28.36-10.2
			c-1.21-5.98,2.79-10.28,8.37-11.23c3.09-1.48,2.79-6.69-0.89-6.95c-8.54,3.86-14.99,11.58-24.15,2.21
			C376.47,320.62,389.01,299.03,402.51,308.46z"/>
		<path class="st0" d="M416.28,262.5c6.69,4.12-0.29,7.69-3.55,10.74c-2.74,4.72,3.39,6.08,5.43,2.06
			c5.35-11.36,14.01-17.96,26.97-14.47c18.81,1.67,24.62,27.55,12.99,40.06c-7.82,6.75-24.59,8.85-30.09-1.74
			c-2.86-5.39-0.25-10.65,4.84-13.14c4.28-5.21-3.54-9.47-6.17-3.26c-3.95,6.53-12.37,10.43-19.19,5.82
			C394.76,281.53,400.66,257.27,416.28,262.5z"/>
	</g>
</g>
<g>
	<g>
		<g>
			<path class="st1" d="M311.94,312.11c-2.29-1.84-4.46-2.89-6.43-3.1l0,0c-1.9-0.21-3.66,0.38-4.97,1.64
				c-0.91,0.88-1.49,1.99-1.68,3.19c-1.91,0.58-3.05,2.02-3.52,3.45c-0.37,1.13-0.43,2.26-0.17,3.32c-0.63,0.5-1.17,1.11-1.54,1.84
				c-0.69,1.37-0.66,2.96,0.06,4.36c0.97,1.89,3.23,4.27,8.43,4.82c1.11,0.12,2.3,0.15,3.53,0.09c1.87-0.09,3.63-0.62,5.08-1.58
				c3.19-2.09,5.04-5.16,5.21-8.62C316.14,317.43,314.01,313.77,311.94,312.11z M308.81,327.21c-0.98,0.64-2.14,0.96-3.31,1
				c-0.83,0.04-1.9,0.04-3-0.09c-2.26-0.25-4.69-0.99-5.7-2.95c-1.2-2.33,4.21-3.23,4.21-3.23s-3.22-0.95-2.35-3.6
				c0.39-1.17,1.46-1.39,2.54-1.28c1.37,0.15,2.76,0.84,2.76,0.84s-2.98-2.86-0.98-4.79c0.61-0.59,1.36-0.76,2.16-0.67
				c1.69,0.18,3.58,1.51,4.62,2.36C312.06,316.69,314.88,323.23,308.81,327.21z"/>
		</g>
		<g>
			<path class="st1" d="M225.16,321.52c0.17,3.46,2.02,6.53,5.21,8.62c1.45,0.95,3.21,1.49,5.08,1.58c1.23,0.06,2.42,0.02,3.53-0.09
				c5.2-0.56,7.45-2.93,8.43-4.82c0.73-1.41,0.75-3,0.06-4.36c-0.37-0.74-0.91-1.34-1.54-1.84c0.26-1.06,0.21-2.19-0.17-3.32
				c-0.47-1.44-1.61-2.88-3.52-3.45c-0.19-1.2-0.78-2.31-1.68-3.19c-1.31-1.26-3.07-1.84-4.97-1.64l0,0
				c-1.98,0.22-4.14,1.26-6.43,3.1C227.1,313.77,224.96,317.43,225.16,321.52z M231.35,314.83c1.04-0.84,2.91-2.17,4.62-2.36
				c0.79-0.09,1.55,0.09,2.16,0.67c1.99,1.92-0.98,4.79-0.98,4.79s1.39-0.7,2.76-0.84c1.08-0.11,2.15,0.1,2.54,1.28
				c0.87,2.66-2.35,3.6-2.35,3.6s5.41,0.9,4.21,3.23c-1.01,1.96-3.44,2.71-5.7,2.95c-1.1,0.12-2.17,0.12-3,0.09
				c-1.17-0.05-2.33-0.36-3.31-1C226.23,323.23,229.04,316.69,231.35,314.83z"/>
		</g>
		<path class="st1" d="M210.11,343.16c0.41,0,0.87-0.09,1.38-0.27c3.6-1.34,3.2-8.28,4.09-13.71c-1.48,1.97-3.62,3.07-5.86,3.07
			c-1.95,0-3.94-0.91-5.65-2.76c-0.72-0.79-1.4-1.69-1.97-2.86c0.02,0.03,0.39,0.37,0.97,0.69c0.54,0.29,1.28,0.59,2.14,0.59
			c0.16,0,0.32-0.03,0.49-0.05c1.81-0.23,4.05-1.74,6.09-6.7c2.22-5.37,0.9-10.12-0.33-14c-0.75-2.35-1.45-4.37-1.31-6.02
			c-1.62,1.68-3.28,2.15-4.64,2.15c-1.69,0-2.89-0.73-2.89-0.73l0,0c0.09,0,5.09-0.45,5.38-11.08c0.26-7.93,6.15-9.99,6.14-10
			c0,0-0.7,0.12-1.59,0.12c-0.39,0-0.8-0.02-1.22-0.09c-4.24-0.69-4.07-4.05-4.07-4.05s1.31,1.12,3.22,1.21c0.03,0,0.05,0,0.08,0
			c1.86,0,3.22-3.82,6.65-11.42c0.8-1.79,1.95-3.54,3.23-5.21l-2.4-3.96c-1.94,2.33-3.6,4.83-4.76,7.4l-1.48,3.31
			c-0.82,1.86-1.66,3.77-2.31,4.99c-0.67-0.37-1.44-0.57-2.19-0.57c-0.63,0-1.26,0.13-1.84,0.42c-1.44,0.7-2.44,2.07-2.51,3.67
			c-0.09,2.15,0.79,4.55,2.77,6.28c-1.12,1.97-1.94,4.51-2.04,7.76c-0.13,4.79-1.36,6.62-1.87,6.97c-0.89,0.17-1.7,0.61-2.34,1.28
			c-0.81,0.86-1.24,2.02-1.17,3.22c0.27,4.74,6.92,4.8,7.2,4.8c0.46,0,0.97-0.03,1.53-0.11c0.04,0.13,0.09,0.26,0.12,0.4
			c0.04,0.11,0.07,0.24,0.1,0.35l-7.74,2c-1.46-0.97-3.98-1.74-8.32-1.79c0,0,1.58-13.32-8.9-17.76c-10.48-4.44-16.32,7.6-16.32,7.6
			s-4.46,3.57,8.89,21.97c4.53,6.24,9.02,10.82,12.31,13.81c1.22,1.66,2.66,3.08,5.11,4.21c0.83,1.05,5.12-2.54,8.67-5.83
			c2.4,2.59,5.45,4.12,8.74,4.12c0.21,0,0.41-0.01,0.61-0.02c-0.15,0.96-0.34,1.8-0.58,2.27l-0.74,0.09l-2.05,0.27l-0.09-0.09
			C206.88,339.12,207.29,343.16,210.11,343.16z"/>
		<path class="st1" d="M366.53,298.29c0,0-5.84-12.03-16.32-7.6c-10.48,4.44-8.9,17.76-8.9,17.76c-2.34,0.03-4.04,0.29-5.45,0.65
			c-0.02-0.27-0.04-0.56-0.05-0.81c-0.26-4.93-0.64-12.37-6.65-19.03c-0.2-0.23-0.4-0.44-0.6-0.63c0.22-0.23,0.42-0.49,0.61-0.8
			c0.79-1.33,0.79-2.99,0.03-4.33c-0.32-0.57-0.77-1.04-1.28-1.4c-1.07-0.79-3.34-3-3.66-4.92c-0.48-2.75-1.32-4.93-2.3-6.64
			c1.58-1.07,2.73-2.61,3.28-4.48c0.69-2.34,0.29-4.17-1.18-5.43c-0.81-0.69-1.81-1.04-2.81-1.04c-1.07,0-2.14,0.4-2.97,1.18
			c-0.17-0.14-0.42-0.61-0.68-1.16c0,0-1.81,2.52-3.07,3.09c0.89,1.26,1.98,2.19,3.53,2.34c0.11,0.01,0.23,0.02,0.34,0.02
			c1.67,0,2.85-1.14,2.85-1.14s0.05,3.36-4.12,3.93c-0.79,0.1-1.55,0.15-2.28,0.15c-0.45,0-0.89-0.02-1.31-0.05
			c0.51,0.67,5.13,2.36,6.45,9.96c0.74,4.36,5.44,7.75,5.45,7.75c0,0-0.27,0.01-0.72,0.01c-1.13,0-3.33-0.08-4.92-0.58
			c0.98,3.71,3.59,4.2,6.15,7.1c5.24,5.81,5.33,12.36,5.58,17.07c0.05,0.81,0.1,1.55,0.19,2.24c0.19,1.55,0.54,2.76,1.37,3.46
			c0.35,0.29,0.82,0.47,1.37,0.58c0.16,0.03,0.28,0.09,0.46,0.09c0.22,0.01,0.42,0.02,0.61,0.02c0.49,0,0.86-0.07,1.23-0.13
			c1.65-0.28,2.27-1.03,2.27-1.03c0.01,0-1.17,2.33-3.41,4.12c-0.78,0.62-1.71,1.14-2.74,1.5c-0.8,0.28-1.66,0.5-2.62,0.5
			c-0.9,0-1.87-0.15-2.9-0.51c-1.9-0.66-3.33-2.58-3.41-4.42c-1.3,1.69-2.66,3.37-3.95,5.01c-1.99,2.49-2.71,4.67-2.71,6.48
			c-0.01,2.92,1.89,4.81,3.46,5.17c0.6,0.14,1.17,0.19,1.7,0.19c2.07,0,3.55-0.83,3.55-0.83c0.01,0-2.57,4.72-7.85,4.72
			c-0.67,0-1.39-0.08-2.15-0.25c-3.49-0.88-5.97-3.35-6.4-5.26c-2.51,7.21,2.13,12.45,7.43,12.45c0.88,0,1.77-0.14,2.65-0.44
			c-2.62,2.37-5.38,3.2-7.99,3.2c-6.31,0-11.69-4.92-11.83-5.03c-0.63,0.91-1.94,4.63-1.8,6.29c0.49,5.61,6.35,6.06,7.87,6.06
			c0.22,0,0.34-0.01,0.35-0.01c-1.71,1-4.43,1.51-7.74,1.51c-6.03,0-14.01-1.68-21.5-5.07c-0.16,3.22,2.59,7.08,5.76,8.36
			c1.99,0.75,3.42,1.18,3.42,1.18c-4.31,1.26-8.11,1.79-11.42,1.79c-17.59,0-21.86-14.96-21.88-14.96
			c-5.06,3.7,0.58,16.62,0.64,16.69c-16.48-8.22-20.22-22.85-19.92-27.97c-1.19,9.2-4.92,11.87-14.19,14.45
			c-1.53,0.43-2.89,0.61-4.07,0.61c-9,0-8.51-10.85-8.5-10.85l-1.71-1.04l-1.98-1.21c-1.47,2.4-0.13,8.42,1.49,11.3
			c2.21,3.94,6.02,6.12,10.71,6.12c1.62,0,3.38-0.26,5.22-0.78c5.03-1.4,8.99-3.02,11.87-5.73c3.28,6.79,9.33,14.06,19.17,18.96
			c0.61,0.31,1.28,0.45,1.93,0.45c1.41,0,2.78-0.69,3.6-1.93c0.89-1.33,0.94-3,0.26-4.34c-0.26-0.56-0.49-1.15-0.72-1.77
			c4.35,3.69,10.36,6.32,18.11,6.32c3.92,0,8.16-0.66,12.63-1.97c1.66-0.48,2.87-1.91,3.07-3.63c0.06-0.49,0.04-0.97-0.07-1.43
			c2.83,0.5,5.57,0.76,8.1,0.76c4.2,0,7.54-0.71,9.92-2.11c1.9-1.12,2.66-3.49,1.75-5.51c-0.25-0.54-0.59-1-0.99-1.39
			c0.8,0.11,1.63,0.18,2.47,0.18c4.05,0,7.71-1.45,10.89-4.31c1.52-1.37,1.87-3.63,0.83-5.39c-0.19-0.32-0.41-0.61-0.66-0.86
			c4.64-1.82,7.5-6.01,7.56-8.05c0.01-0.22-0.12-0.4-0.14-0.61c3.73,3.56,9.1,8.31,10.05,7.12c2.45-1.13,3.89-2.55,5.11-4.21
			c3.29-2.99,7.78-7.57,12.31-13.82C370.98,301.86,366.53,298.29,366.53,298.29z"/>
	</g>
	<g>
		<path class="st2" d="M416.48,92.3c-41.13-41.14-95.82-63.79-153.99-63.79c-47.7,0-93.03,15.27-130.49,43.42
			c0.61,0.34,1.22,0.69,1.82,1.06c1.02,0.64,2.01,1.32,2.98,2.02c36.24-26.7,79.85-41.16,125.7-41.16
			c56.74,0,110.1,22.1,150.22,62.22s62.22,93.48,62.22,150.22s-22.1,110.09-62.22,150.22c-40.12,40.12-93.48,62.22-150.22,62.22
			s-110.1-22.1-150.22-62.22s-62.22-93.48-62.22-150.22c0-52.3,18.78-101.69,53.13-140.52c-1.4-1.06-2.7-2.33-3.84-3.71
			c-35.31,39.84-54.62,90.54-54.62,144.24c0,58.17,22.66,112.86,63.79,153.99s95.82,63.79,153.99,63.79s112.86-22.66,153.99-63.79
			s63.79-95.82,63.79-153.99C480.27,188.12,457.61,133.43,416.48,92.3z"/>
	</g>
	<g>
		<path class="st2" d="M379.5,183.56c-1.71,0.69-3.45,1.24-5.21,1.63c10.48,18.39,16.49,39.65,16.49,62.29
			c0,69.57-56.6,126.17-126.17,126.17s-126.17-56.6-126.17-126.17S195.03,121.3,264.6,121.3c34.31,0,65.45,13.77,88.23,36.07
			c0.96-1.49,2.02-2.92,3.14-4.39c-23.68-22.9-55.9-37.02-91.37-37.02c-72.51,0-131.51,58.99-131.51,131.51
			s58.99,131.51,131.51,131.51s131.51-58.99,131.51-131.51C396.11,224.3,390.08,202.5,379.5,183.56z"/>
	</g>
	<path class="st2" d="M297.49,280.42c0.39-0.69,0.75-1.39,1.07-2.14c0.63,0.45,1.22,0.92,1.77,1.41c0.92,0.81,2.29,0.72,3.12-0.21
		c0.8-0.9,0.73-2.19-0.17-2.99c-1.42-1.26-2.97-2.37-4.72-3.37c-1.57-0.89-3.21-1.63-4.87-2.18c-0.73-0.25-1.49-0.09-2.05,0.4
		c-0.59,0.51-0.85,1.35-0.69,2.13c0.15,0.77,0.69,1.37,1.45,1.63c0.78,0.26,1.56,0.58,2.38,0.96c-0.48,1.21-1.07,2.31-1.72,3.32
		c0.07,0.01,0.13,0.01,0.2,0.01C294.7,279.6,296.12,279.95,297.49,280.42z"/>
	<path class="st2" d="M241.57,278.06c0.77-0.6,1.53-1.14,2.31-1.63c1.03-0.65,1.32-1.98,0.66-3.03c-0.65-1.03-1.91-1.33-2.94-0.68
		c-3.4,2.14-6.39,4.86-8.87,8.1c-0.72,0.93-0.55,2.18,0.38,2.89c1,0.77,2.42,0.6,3.18-0.39c0.63-0.82,1.31-1.61,2.03-2.37
		c0.96,1.06,1.98,2.05,3.07,2.98c1.5-0.77,3.08-1.38,4.72-1.81C244.45,280.92,242.93,279.55,241.57,278.06z"/>
</g>
</svg>
