<?xml version="1.0" encoding="utf-8"?>
<!-- Generator: Adobe Illustrator 25.0.0, SVG Export Plug-In . SVG Version: 6.00 Build 0)  -->
<svg version="1.1" id="Layer_1" xmlns="http://www.w3.org/2000/svg" xmlns:xlink="http://www.w3.org/1999/xlink" x="0px" y="0px"
	 viewBox="0 0 500 500" style="enable-background:new 0 0 500 500;" xml:space="preserve">
<style type="text/css">
	.st0{fill:#B51B2C;}
	.st1{fill:#030304;}
	.st2{fill:#020203;}
	.st3{fill:#13110C;}
	.st4{fill:#CE536A;}
	.st5{fill:#F192AC;}
	.st6{fill:#E3748C;}
	.st7{fill:#C0364A;}
	.st8{fill:#EE7289;}
</style>
<g>
	<path class="st5" d="M348.16,132.7c0,5.24-0.56,10.48-1.38,15.65c1-0.17,2.07-0.31,3.19-0.42c6.65-32.47-11.81-50.79-3.35-52.68
		c10.13-2.82,21.15-0.29,33.24-0.71c9.58,0.08,14.93-1.39,22.31-1.76c6.17,1.61,1.74,24.96-1.22,22.74
		c-3.68-13.04-19.68-16.5-28.02-7.56c-3.85,4.91-7.02,13.62-3.25,17.45c3.47,1.19,6.28-2.33,10.33-1.66c7.07,0,11.45,5.71,11.45,11
		c1.32,8.34-13.42,15.7-15.85,5.72c-0.41-1.18,1.73-3.83,2.79-1.81c1.71,4.24,7.03,1.3,6.6-2.59c-3.13-13.08-20.95-5.71-17.61,11.93
		c0.99,0.04,2.02,0.08,3.12,0.11c-3.21-18.27,13.67-18.4,10.82-10.42c-1.77-5.04-9.21-2.77-8.81,2.79
		c1.76,13.5,23.34,7.84,22.02-5.73c0.72-10.76-13.83-17.92-23.34-12.04c-1.54-13.46,14.82-23.86,24.37-11.01
		c10.05,24.47,19.42-22.23,6.6-22.02c-4.84,0-11.3,1.76-22.31,1.76C320.19,89.76,347.13,92.28,348.16,132.7z"/>
	<path class="st5" d="M254.69,147.68c1.14,0.02,2.23,0.05,3.27,0.1c-7.7-24.17-9.98-31.65-18.64-46.26
		c-1.87-3.61-3.23-3.73,0.92-5.89c5.43-1.84,26.84-3.83,29.52,2.43c-1.69,12.18,0.08,23.65,5.58,38.02
		c19.94,45.16,36.93-19.65,30.54-38.01c-0.21-6.19,28.72-4.4,27.88,0c-0.58,4.86-5.72,11.12-8.63,17.71
		c-5.71,11.54-9.23,20.74-12.19,32.07c1.04-0.09,2.12-0.15,3.24-0.17c2.87-10.75,6.32-19.62,11.72-30.53
		c11.01-19.72,15.5-24.77-9.4-26.28c-12.62,0-15.71,4.11-15.71,7.19c6.25,40.93-19.37,81.07-30.39,14.09
		c-0.73-6.75,0.44-11.74,0.44-14.09c2.13-10.21-41.02-9.2-38.31,0C241.17,111.88,248.35,124.58,254.69,147.68z"/>
	<path class="st5" d="M51.51,132.7c0,5.42-0.6,10.84-1.47,16.18c1.09-0.24,2.17-0.44,3.23-0.59c8.54-44.15-22.64-53.35,9.4-54.34
		c31.33,1.57,2.48,6.85,8.86,54.51c1.05,0.18,2.12,0.4,3.18,0.66c-1.44-16.96-1.43-24.51,2.49-38.73c2.35-6.9,3.82-9.25,3.82-12.33
		c-0.98-9.79-35.72-9.78-36.7,0C46.21,106.53,52.68,121.94,51.51,132.7z"/>
	<path class="st5" d="M92.32,162.95c23.56,0.65,15.6-22.7,9.16-12.65c-0.83,1.48-3.46,0.16-3.13-1.89
		c-0.16-5.29,8.87-6.48,11.86-2.9c5.03,5.59,3.54,17.82,3.67,25.63c0.93-1.8,1.97-3.55,3.15-5.19c0.18-10.15,0.43-25.61-12.52-25.61
		c-5.28,0-9.25,3.67-9.25,8.07c-0.52,6,8.15,7.53,9.25,2.5c3.91,6.36-7.85,9.94-15.76,8.85c0.36,1.01,0.58,2.05,0.68,3.13
		C90.35,162.93,91.31,162.95,92.32,162.95z"/>
	<path class="st5" d="M128.9,155.31c0.91-0.5,1.84-0.96,2.79-1.38c-14.99-17.64-13.44-55,14.17-56.53
		c11.8,0.79,22.43,7.13,28.77,15.22c0.58,0.82,1.52,1.31,2.52,1.31c15.49-14.94,40.65-27.71,52.64-0.77c0,0,0,0,0,0
		c-0.9-0.74-2.01-1.15-3.17-1.25c-1.46-3.4-5.97-4.4-8.98-2.41c0,0,0,0,0,0c3.47-8.28-6.85-16.52-12.34-8.87
		c-5.52-0.73-9.06,5.45-6.52,10.54c2.42,4.02,11.35,8.48,15.33,6.14c0,0,0,0,0,0c0.44,4.12,0.42,8.09,3.75,9.25
		c4.21,0.53,12.62-1.04,13.95-6.38c0,0,0,0,0.01,0c2.18,11.69-2.39,24.3-9.52,34.22c0.93,0.46,1.84,0.97,2.73,1.51
		c29.87-40.51-10.26-87.06-47.87-45.07C140.11,69.23,99.57,114.76,128.9,155.31z M212.1,114.96c-15.14-1.39-12.63-15.07-4.82-10.12
		C208.41,95.63,220.57,102.39,212.1,114.96z M228.2,120.69c-1.27,1.82-7.54,3.31-9.7,2.85c-5.39-11.57,5.76-16.12,5.54-7.92
		C227.44,113.34,230.63,117.45,228.2,120.69z"/>
	<path class="st5" d="M346.47,310.13c2.97-13.19,6.21-26.83,5.45-40.73c-1.1-0.16-2.14-0.33-3.12-0.51
		c1.23,17.84-4.89,35.75-7.84,52.64c1.09-0.4,2.2-0.81,3.32-1.24C344.82,317.13,345.65,313.6,346.47,310.13z"/>
	<path class="st5" d="M409.57,330.25c5.57-2.07,7.04-35.1,0.73-34.94c-5.41,3.98-12.52,5.98-20.99,5.58
		c-13.95,0-18.2-2.2-18.2-16.29c-1.19-12.78,13.77-13.69,11.01-5.87c-1.77-5.04-9.22-2.77-8.81,2.79
		c3.53,16.83,28.42,3.96,20.79-11.33c-1.09,0.11-2.2,0.2-3.33,0.27c3.67,6.25,0.23,15.66-8.21,15.76c-4.53,0.55-8.99-5.46-4.26-7.18
		c0.46,0,0.68,0.07,0.89,0.68c1.71,4.25,7.03,1.29,6.6-2.59c0.15-3.62-4.08-7.05-8.28-6.41c-10.79-0.37-12.72,23.18-4.5,29.71
		c7.84,5.81,30.48,4.61,37.13-1.55c1.21,9,2.99,25.19-3.77,30.12c-0.33,1.38-0.66,2.82-0.97,4.27
		C406.96,332.45,408.35,331.47,409.57,330.25z"/>
	<path class="st5" d="M290.52,289.58c-5.72,0-10.66-9.89-13.83-20.2c-1.24-0.34-2.43-0.76-3.59-1.24
		c9.38,34.71,27.55,30.83,33.37-2.99c-1.2,0.88-2.42,1.63-3.63,2.25C300.35,278.36,295.81,289.58,290.52,289.58z"/>
	<path class="st5" d="M315.33,295.31c3.39-14.8,7.79-26.43,14.89-40.13c-0.47-1.8-0.56-3.77-0.44-5.67
		c-9.54,17.15-16.04,34.63-19.1,53.83c1.04,0.07,2.06,0.21,3.06,0.43C314.2,300.92,314.7,298.07,315.33,295.31z"/>
	<path class="st5" d="M263.29,303.41c-8.87-28.32-13.47-45.26-23.18-60.87c-5.47-6.81,4.78-6.9,10.72-7.49
		c-0.31-0.99-0.62-2.01-0.94-3.04c-10.01,0.55-14.56,3.07-14.56,7.08c0,2.79,2.35,4.4,6.9,13.65c7.31,9.63,18.9,65.09,29.16,77.27
		c0.91-0.58,1.8-1.15,2.69-1.7C269.73,324.25,267.26,316.26,263.29,303.41z"/>
	<path class="st5" d="M320.86,232.99c-0.11,0.67-0.21,1.33-0.32,2c5.38,0.11,9.05,0.9,11.28,1.82c0.23-1.01,0.46-2.02,0.7-3.05
		c-2.83-1.08-6.74-1.73-11.5-1.85C320.98,232.28,320.92,232.64,320.86,232.99z"/>
	<path class="st5" d="M105.29,281.36c-8.86-0.97-13.31,12.74-4.11,13.65c2.5,0,3.82-1.62,4.11-3.08
		c5.77,11.46-25.87,10.32-28.18,4.7c-2.95-7.02-2.43-21.22-2.35-25.98c-1.06-0.02-2.09-0.04-3.09-0.07
		c-0.24,6.05-0.23,5.82,0.29,14.86c1.31,17.81,4.66,17.1,21.15,18.54c23.52,0.67,15.64-22.7,9.16-12.65
		c-0.85,1.48-3.45,0.15-3.13-1.89c-0.17-5.29,8.88-6.48,11.86-2.9c4.02,4.09,3.85,13.93,3.73,20.43c0.26,8.31-0.96,18.85-4.29,20.96
		c-3.4,7.64-49.76,5.74-56.84,3.21c-11.68-2.33-4.8-12.06-3.77-21.01c2.98-13.2,6.22-26.85,5.45-40.77
		c-1.1-0.16-2.14-0.33-3.12-0.52c1.68,18.92-6.7,39.62-8.22,57.28c-5.8,12.01,61.83,14.26,68.55,4.11
		C119.82,324.53,122.87,279.12,105.29,281.36z"/>
	<path class="st5" d="M210.73,313.25c21.91-16.52,38.49-55.08,11.29-74.31c-0.74,0.75-1.5,1.49-2.27,2.23
		c4.63,2.64,8.68,7.55,10.84,13.02c0,0,0,0,0,0c-0.9-0.73-2.01-1.15-3.17-1.25c-1.46-3.4-5.97-4.4-8.98-2.42c0,0,0,0,0,0
		c0.66-3.02,0.86-5.76-0.34-7.8c-0.78,0.72-1.59,1.43-2.4,2.14c0.84,2.57-1.16,9.29-2.79,11.12c-1.7,0.07-5.34-1.2-7.9-2.74
		c-0.88,0.63-1.79,1.27-2.71,1.9c4.18,2.51,9.15,5.22,12.61,3.19c0,0,0,0,0,0c0.44,4.12,0.42,8.09,3.75,9.25
		c4.21,0.53,12.62-1.04,13.95-6.38c0,0,0,0,0.01,0c4.29,32.05-27.74,56.3-54.65,69.78c-31.54-13.72-77.24-56.73-43.66-88.59
		c-0.77-0.7-1.53-1.43-2.27-2.15c-35.42,34.53,12.26,80.09,45.69,93.99C189.8,329.61,200.66,321.35,210.73,313.25z M228.99,261.72
		c-1.27,1.82-7.54,3.31-9.7,2.85c-5.39-11.57,5.76-16.12,5.54-7.92C228.23,254.36,231.42,258.48,228.99,261.72z"/>
</g>
<g>
	<path class="st0" d="M231.77,207.81c14.2-41.52-27.27-64.8-55.4-30.91c-25.5-31.35-66.38-14.27-56.86,26.36
		c7.97,26.62,32.69,44.37,56.64,56.01C199.03,248.9,222.13,231.89,231.77,207.81z M217.06,179.51c2.21-3.4,7.17-1.82,6.19,2.16
		c7.59-3.03,7.23,8.99-5.54,7.92C216.54,187.73,215.78,181.33,217.06,179.51z M200.77,175.9c-2.16-4.18,2.27-8.27,5.73-5
		c1.12-9.21,13.28-2.45,4.82,10.12C208.76,181.12,201.88,178.22,200.77,175.9z"/>
	<path class="st0" d="M103.71,206.39c-8.86-0.97-13.31,12.74-4.11,13.65c2.5,0,3.82-1.62,4.11-3.08c2.69,5.12-3.06,8.87-12.18,8.95
		c-22.79,0.66-16.91-12.13-18.5-25.1c0-7.49,1.03-17.47,3.38-24.37c2.35-6.9,3.82-9.25,3.82-12.33c-1-9.81-35.71-9.76-36.7,0
		c8.89,24.83,9.01,42.12,2.2,68.26c-6.87,26.19-6.29,28.5,35.53,29.06c18.2,0,24.37-1.47,29.65-6.16
		C118.22,249.56,121.32,204.18,103.71,206.39z"/>
	<path class="st0" d="M256.65,222.54c5.72,18.2,8.22,28.62,14.53,33.76c8.53,7.05,25.05,7.4,32.73-1.17
		c6.75-7.05,6.9-21.87,9.84-34.79c3.23-13.95,6.9-24.07,13.36-37.14c5.87-11.74,8.95-14.68,8.95-19.08c0.99-9.21-35.68-9.88-34.06,0
		c3.74,10.86-1.74,49.07-13.07,50.5c-12.36-1.32-19.81-38.25-16.88-50.5c2.13-10.21-41.02-9.2-38.31,0
		C242.43,181.59,247.85,191.85,256.65,222.54z"/>
	<path class="st0" d="M339,251.16c0,7.63,10.42,10.28,38.61,10.28c14.53,0,24.37-0.15,30.39-6.16c5.14-5.14,4.55-11.6,4.55-21.29
		c0-7.49-0.44-13.65-3.82-13.65c-5.41,3.98-12.52,5.98-20.99,5.58c-13.95,0-18.2-2.2-18.2-16.29c-1.2-12.76,13.77-13.7,11.01-5.87
		c-1.77-5.04-9.21-2.77-8.81,2.79c1.64,13.41,23.32,7.96,22.02-5.72c0.72-10.76-13.83-17.92-23.34-12.04
		c-1.54-13.45,14.82-23.87,24.37-11.01c2.49,4.11,2.35,6.9,5.43,6.9c8.99,0.21,10.32-29.84,1.18-28.92c-4.85,0-11.3,1.76-22.31,1.76
		c-13.75,1.19-36.38-5.49-38.9,6.6C353.87,200.25,344.16,216.45,339,251.16z"/>
	<path class="st0" d="M478.05,297.84c-26.13,17.21-102.15,103.89-75.33,21.49c2.2-7.45,3.12-9.25,0.23-9.53
		c-3.35-0.21-7.85,7.82-15.24,18.66c-4.07,6.07-15.44,18.92-19.15,19.48c-4.69-2.28-1.1-10.55,0.64-17.89
		c2.2-8.01,11.78-15.58,3.74-16.22c-10.76,6.35-32.34,15.16-45.71,18c-1.74-26.58-30.95-30.67-33.04-6.9
		c-4.96,1.1-20.75,9.59-36.76,22.58c-8.41-44.86-28.49,17.08-44.19,21.81c-5.62-0.87,3.31-24.44,2.09-28.79
		c-0.1-0.7-1.31-2.41-3.6-1.83c-2.25,0.81-0.71,3.19-1.66,9.5c-0.89,5.12-1.87,12.86-2.63,18.9c2.08,19.05,17.42-0.76,24.94-12.52
		c10.75-15.72,17.94-26.66,21.05-3.63c-28.76,21.76-58.32,79.64-52.78,100.69c1.77,11.84,10.75,14.76,17.02,13.82
		c36.39-9.82,44.77-78.98,40.52-112.86c15.59-13.57,31.13-22.02,36.99-23.72c0.91,2.25,2.71,4.08,4.64,5.38
		c-27.65,58.8,26.42,63,27.79,1.77c11.96-2.44,30.77-11.35,41.06-16.57c-2.87,6.56-12.68,32.91-0.36,33.26
		c6.26-0.63,25.12-24.57,29.68-33.16c-26.67,88.77,56.16,3.27,82.48-19.71C483.82,296.74,479.14,297.2,478.05,297.84z
		 M245.43,425.71c-9.05,24.8-33.82,50.52-40.02,25.93c-5.71-14.63,21.66-74.9,48.8-95.59C256.11,371.9,253.48,405.05,245.43,425.71z
		 M306.93,313.51c7.12-1.65,14.63,7.39,15.43,19.05c-5.8,0.87-11.51,0.78-15.97-0.46c2.46-4.17,4.67-6.87,4.6-7.33
		c-2.32-3.68-4.68,0.51-8.66,5.57C295.15,324.92,299,314.37,306.93,313.51z M302.88,376.76c-7.85,1.53-7.65-27.96,1.28-40.53
		c5.22,1.59,12.09,1.51,18.36,0.57C323.49,357.54,313.32,375.2,302.88,376.76z"/>
</g>
</svg>
