<?xml version="1.0" encoding="utf-8"?>
<!-- Generator: Adobe Illustrator 25.0.0, SVG Export Plug-In . SVG Version: 6.00 Build 0)  -->
<svg version="1.1" id="Layer_1" xmlns="http://www.w3.org/2000/svg" xmlns:xlink="http://www.w3.org/1999/xlink" x="0px" y="0px"
	 viewBox="0 0 500 500" style="enable-background:new 0 0 500 500;" xml:space="preserve">
<style type="text/css">
	.st0{fill:#B51B2C;}
	.st1{fill:#030304;}
	.st2{fill:#020203;}
	.st3{fill:#13110C;}
	.st4{fill:#CE536A;}
	.st5{fill:#F192AC;}
	.st6{fill:#E3748C;}
	.st7{fill:#C0364A;}
	.st8{fill:#EE7289;}
</style>
<g>
	<path class="st0" d="M325.91,231.24c-6.13,3.61-1.74,16.63,5.98,13.99C337.99,241.24,332.46,230.69,325.91,231.24z"/>
	<path class="st0" d="M465.53,222.1c0.26-6.74,3.69-13.1,5.74-19.41c5.82-18.17,3.7-53.01-23.96-48.56
		c-6.8,1.3-11.26,8.16-11.57,15.22c-0.99,14.45,18.55,18.78,22.91,4.66c0.94,2.61,1.1,5.38,0.84,8.32c0-0.01-0.14,1.09-0.13,1.11
		c-31.96,76.3-166.62-23.74-222.7,24.44c-19.44,14.84-11.82,31.32-4.8,50.1c1.6,8.33-2.4,15.93-5.43,23.39
		c-7.15,19.44-4.93,54.69,21.57,56.25c22.34,1.3,26.34-33.84,2.04-31.16c-11.72,2.6-5.41,18.93,4.86,17.47
		c-25.55,13.27-37.1-39.41,9.07-42.52c59.24-7.61,117.17,28.05,176.07,13.85c22.54-6.59,39.42-31.73,31.95-54.97
		C469.95,234.1,465.26,228.88,465.53,222.1z M301.94,232.17c-19.32,16.95,0.54,29-10.92,30.91c-7.89,0.24-20.47,0.86-14.13-10.65
		c6.49-12.92-0.74-24.26-8.75-34.06c-2.74-8.05,9.26-4.88,13.64-5.13c9.83,0.05,0.74,12.98,7.44,20.26c6.77-7.37,2-9.35,4.91-16
		c3.56-3.93,9.58-0.47,13.7,0.83C315.45,221.85,304.91,228.86,301.94,232.17z M347.13,246.59c-1.6,21.02-18.72,25.48-35.74,16.98
		c-16.35-8.29-4.45-29.12,5.13-38.37C329.81,209.9,351.52,229.73,347.13,246.59z M388.95,239.77c-2.35,9.55-3.29,19.2-2.58,29.02
		c0.33,4.58-1.12,5.92-5.64,5.5c-2.21-0.2-4.5-0.24-5.54-2.88c-0.25-0.65-0.88-0.46-1.43-0.23c-6.81,2.85-13.3,0.99-19.67-1.51
		c-7.44-3.03-5.28-12.81-4.16-19.1c4.68-9.97-8.46-23.49,2.12-24.94c25.52-3.32,11.34,11.96,9.91,26.28
		c-1.06,4.72,0.21,8.89,5.72,8.93c11.25,0.45,5.91-21.78,5.83-28.7c0.48-5.53,7.98-3.13,11.7-3.06
		C390.85,229.57,389.79,235.69,388.95,239.77z M432.01,248.81c-2,6.88-15.52,7.01-16.78,0.09c-0.61-2.04,3.97-3.15,3.59-4.92
		c-1.3-2.41-5.33-1.12-6.52,1.17c-10.5,14.66,18.45,38.23-15.19,31c-10-1.81,5.95-17.11-1.03-34.18
		c-7.42-9.83,1.24-10.42,9.41-10.74c2.35-0.51,3.83,0.88,4.33,3.24C421.91,227.34,435.09,233.89,432.01,248.81z"/>
	<path class="st0" d="M148.89,227.74c-0.57-12.51-8.01-27.02-22.58-36.51c-4.25-2.4-9.68-4.03-14.99-4.43
		c0-0.01-4.56-0.21-4.55-0.17c-9.14,0.45-11.15,0.7-22.58,7.03c0-0.01-2.93,1.9-2.93,1.9c-4.17,2.84-8.93,7.21-11.85,11.83
		c0,0,0,0,0.01,0.01c-5.92,7.28-9.58,27.02-1.28,33.93c2.19,1.22,3.35-4.74,5.1-6.61c4.14-2.89,2.59,11.67,1.91,14
		c10.02,4.76,17.58-5,20.78-12.46c2.69,21.43,44.26,13.4,39-8.83c4.08,1.98,7.48,5.04,11.21,4.16c0,0,0.01,0,0.01,0.01
		c0.03-0.01,0.06-0.02,0.09-0.03c0,0,0,0,0,0c1.25-0.36,2.45-1.35,2.64-3.76c0,0,0,0,0,0c0-0.02,0-0.04,0-0.06c0,0,0,0,0,0
		C148.88,227.73,148.88,227.74,148.89,227.74z M102.49,240.33c-9.6-14.16,20.14-27.46,27.28-13.34
		C135.87,241.03,111.18,249.61,102.49,240.33z"/>
	<path class="st0" d="M236.53,161.94c0.52-5.95,3.31-10.83,7.32-13.49c-0.35-1.23-0.58-2.54-0.65-3.94
		c-6.75-2.83-6.97-20.22-3.86-26.25c5.06-11.08,24.81-1.89,36.47-2.84c-3.89-27.13-36.94-22.82-50.72-6.03
		c-43.34-55.82-89.54,20.56-6.78,71.56c6.43-3.42,13.07-6.4,19.45-9.87C236.69,168.24,236.25,165.13,236.53,161.94z"/>
</g>
<g>
	<path d="M77.55,162.83c11.13,0.13,8.64-5.91,7.57-14.57c0.98-6.53,7.11,11.38,11.65,9.55c5.32,1.68,7.99-16.19,10.18-10.18
		c0.51,5.41-0.83,8.08-0.38,10.76c0.11,5.61,17.79,6.52,16.86,0c-4.34-11.37-8.58-25.43-5.73-37.74c-0.19-4.08-13.02-4.47-13.11,0
		c0.6,3.72-1.76,19.72-6.56,19.28c-6.22-0.68-9.54-14.41-9.93-19.28c-0.19-1.91-2.42-3.12-6.43-3.12c-3.12,0-6.36,0.7-6.36,3.12
		c1.16,4.77,1.58,12.86,0.83,17.06C76.59,147.79,60.86,163.43,77.55,162.83z"/>
	<path d="M125.72,158.7c-0.3,5.59,16.15,5.67,15.91,0c0-1.97-1.46-5.16-2.16-7.89c-5.49-16.92,11.05-17.62,8.15-10.63
		c-2.68-5.5-7.03,4.24,0.64,4.07c14.28-3.6,2.57-24.12-8.85-11.77c0.88-3.68-1.38-3.65-5.73-3.82c-2.74,0-7.51,0.7-7.51,2.93
		C130.32,141.66,128.11,148.71,125.72,158.7z"/>
	<path d="M149.14,157.81c-0.44,7.25,13.85,7.3,13.43,0C162.99,150.59,148.71,150.65,149.14,157.81z"/>
	<path d="M248.54,119.92c-5.1-0.94-4.96,17.91-1.01,18.41c1.26,0.11,1.05-2.59,2.45-5.01c1.14-1.99,6.77-3.09,9.64-3.58
		c9.34,0.5,28.83-1.5,26.54,12.99c-0.78,10.53-5.15,19.2-6.78,28.05c-1.1,7.03,19.7,8.83,19.84,1.74c0.22-2.52-0.38-5.85-0.87-9.63
		c-0.83-6.35-3.81-28.21,5.41-29.44c4.44-0.61,3.4,9.48,5.47,9.95c4.05,0.11,7.31-18.23,2.2-18.31
		C295.48,125.07,264.76,121.99,248.54,119.92z"/>
	<path d="M270.35,154.38c-3.35-4.32-5.78-7.29-5.63-9c0.36-2.46,4.32-1.41,4.99,0.96c1.4,7.97,5.16,0.55,4.95-3.67
		c0.56-6.74-1.75-4.8-7.38-5.2c-2.52-0.22-5.74-0.95-7.59-1.11c-10.31-0.82-11.7,9.38-5.29,16.1c3.91,4.33,5.73,9.27-0.67,9.42
		c-3.56-0.24-5.18-3.2-3.25-4.69c-0.36,0.71,0.01,2.46,1.79,2.62c4.14,0.07,3.55-6.13-0.8-6.19c-13.06,1.85-9.03,23.97,7.16,23.9
		C273.8,178.34,279.87,164.91,270.35,154.38z"/>
	<path d="M344.37,162.86c-1.48,5.67,14.37,7.15,14.17,2.67c-0.72-6.99,9.46-4.85,6.43,1.21c-1.9,4.9,14.56,7.95,14.97,2.82
		c-0.74-4.22-2.87-7.88-3.51-13.06c-2.25-10.38,1.35-18.05-8.4-19.65c-3.43-0.65-5.31-0.32-6.83,0.91
		C355.63,143.64,350.55,156.87,344.37,162.86z M361.84,153.22c0.74-1.9,2.51-4.9,3.24-4.76c0.84,0.11,1.65,5.09,0.45,6.44
		C364.67,155.32,361.04,155.05,361.84,153.22z"/>
	<path d="M314.73,165.67c-9.36,16.25,3.13,14.04,30.8,20.77c21.21,2.71,32.51,10.51,35.49-7.38c0.95-5.68,1.3-9.15-3.65-5.53
		c-3.44,1.39-8.49,0.9-21.85-1.62c-14.75-2.78-21.92-5.26-24.08-7.86c-2.72-3.36-1.33-12.73,3.67-11.86
		c1.58,0.31,2.28,1.99,1.29,2.81c-3.27-6.05-8.11,4.18-0.77,5.3c11.98,1.1,8.74-17.55-2.87-13.7c0.16-6.55,9.9-10.54,13.15-3.19
		c0.86,2.28,0.52,3.65,2.06,3.94c4.55,0.72,7.92-13.62,3.29-14.28C297.5,125.06,333.78,127.7,314.73,165.67z"/>
	<path d="M404.96,194.14c9.2,0.43,12.36-0.17,15.14-2.42c3.84-3.2,6.61-25.13-2.49-24.89c-7.9-0.25-4.54,10.87-0.25,5.34
		c2.65,5.93-13.32,4.61-14.36,1.71c-1.05-1.39-0.77-10.6-0.77-10.6c-1.07-12.65,12.85-21.53-4.61-22.46
		c-17.47-0.84-4.43,10.11-6.62,20.89C391.05,182.29,371.91,193.78,404.96,194.14z"/>
	<path d="M122.02,254.97c-6.81,6.48-21.91,4.48-23.02-6.11c-0.33-1.81-3.21-1.59-2.88,0.24c0.44,2.44,1.27,4.63,2.51,6.47
		c-7.8,14.35,7.96,19.69,12.75,5.9c4.71,0.15,9.33-1.19,12.82-4.62C125.54,255.56,123.34,253.68,122.02,254.97z M105.36,265.83
		c-6.44,3.04-7.3-2.7-4.76-7.96c0.67,0.6,1.43,1.12,2.27,1.57c-0.33,1.16-2.81,4.08-0.85,4.94c1.9,0.99,2.66-2.9,3.36-3.88
		c1.04,0.35,2.13,0.53,3.2,0.71C107.88,262.96,106.83,264.82,105.36,265.83z"/>
	<path d="M239.01,173.73c-6.98,3.77-14.24,7.03-21.26,10.77c-91.86-56.67-40.46-141.23,7.51-79.36
		c17.1-20.49,55.32-22.45,56.79,10.75c1.31,0.1,2.58,0.19,3.8,0.29c-0.7-34.16-40.76-37.83-60.15-15.63
		c-44.56-59.14-108.7,21.41-15.51,82.98c-6.66-0.46-16.37,9.93-7.9,14.09c-10.78,11.62-14.95,27.36-20.38,41.85
		c-2.51,0.49-4.89,1.43-6.82,2.35c-1.57-0.12-16.97-1.26-18.03-1.34c-2.15-4-3.81-10.04-8.15-12.74c0,0.02,0,0.04,0,0.05
		c0,0,0,0,0,0c-0.2,2.42-1.41,3.4-2.66,3.76c5.15,2.52,6.39,18.9,13.14,13.72c0.28,2.28-2.24,4.46-6.05,3.93
		c4.05,4.41,6.21,13.08,10.2,16.97c-1.1,0.02-2.88,0-4.44-0.56c2.53,7.22,6.93,5.52,10.49,15.09c1.37,4.55,4.03,6.45,4.03,6.45
		c-1.65,0.14-4.02,0.04-5.85-1.92c0,0.01,0,0.02-0.01,0.02l0.01,0.03c-0.93,3.24-2.64,11.34,3.07,8.24
		c-0.82,2.34-4.7,2.21-6.23-0.35c-4.36,6.88-7.39,15.02-5.69,21.67c-3.34-1.06-4.56-3.31-5-5.14c-2.62,7.48,6.56,13,11.9,7.79
		c-3.64,5.14-11.68,8.3-17.99,2.28c6.56,16.84,29-2.34,30.17-7.26c-2.39,19.85-21.46,27.6-44.56,22.72
		c3.04,1.66,6.06,2.64,6.06,2.64c-10.69,1.29-20.32-4.15-24.83-13.15c-2.97,3.89,0.26,10.25,2.47,13.78
		c-8.82-3.62-15.49-14.16-14.7-20.38c-7.13,9.36-25.23,10.25-26.68-0.07c4.19,4.5,12.41,7.08,14.14-4.07
		c-7.82,2.55-16.05,2.86-23.28-1.88c8.59,1.75,12.84-17.35,9.67-25.27c-1.21,2.47-3.45,3.79-5.79,3.68
		c6.14-3.34,0.02-14.41,5.83-18.78c-2.37,1.31-5.62,0.14-6.02-2.53c7.76,4.07,2.99-14.66,9.84-19.34c-1.02-0.18-3.06-0.57-5.03-1.16
		c0,0,0,0,0,0c-0.03-0.01-0.06-0.02-0.09-0.03c-3.65,3.8-3.67,12.24-4.42,15.91c-2.15-0.19-4.29,1.4-4.74,3.5
		c-9.79,7.12-32.44,10.94-20.62,24.09c-1.44,4.09,1.65,8.7,5.68,9.68c2.24,12.76,17.01,4.6,20.42-3.18l1.18-0.45
		c-0.55,4.13-3.77,10.57-5.89,9.24c-4.43-0.17-6.39,6.18-2.54,8.51c2.24,1.47,4.63,2.58,7.16,3.33c0.61,8.54,15.19,14.11,25,8.95
		c-0.69,2.73-2.17,3.65-3.74,6.12c-10.78-9.9-31.44-1.43-21.69,15.49c0,0,0.06,0.61,0.95,1.37c4.21,5.69,37.72,1.65,39.74-0.02
		c4.61-0.65,8.33-1.06,6.61-8.28c1.96-0.3,3.56-2.1,3.66-4.07c0.84,0.49,1.76,0.94,2.72,1.37c-0.73,4.33-1.21,8.83-0.03,8.96
		c8.06,3.48,13.18,3.67,24.07,4.9c22.24,1.34,22.84-4.23,22.84-4.23s5.75-9.4-0.41-15.83c13.28-12.67,15.06-25.41,7.06-26.37
		c-5.02,0.78-3.25,2.94-8.09,7.72c-1.16-2.37-4.35-3.25-6.55-1.83c-0.88-4.12,0.41-9.93,2.92-13.85c4.97,1.36,10.76-3.44,8.71-8.14
		c3.49-1.04,4.33-6.12,1.28-8.17c-1.81-1.94-5.33-11.81-7.72-13.04l6.49,0.39c2.12,1.12,4.53,1.5,6.71,1.74c0,0,0,0,0,0
		c-3.9,28.46,24.81,24.43,29.73,41.78c1.06,5.71-4.54,12.24-10.44,9.77c-3.88-1.63-4.99-8.08-0.83-10.02
		c1.37-0.57,2.96,0.14,3.1,1.75c0.12,1.43,2.16,2.32,2.93,0.8c1.96-3.89-2.08-7.55-5.96-6.81c-7.47,1.44-7.44,11.61-2.07,15.56
		c10.55,7.21,22.18-7.7,15.29-17.44c-9.59-14.12-27.69-8.17-29.38-35.29c0,0,0.01-0.01,0.01-0.01c8.22-0.59,10.52-5.64,9.25-10.94
		c3.5-2.55,3.52-8.19,0.75-11.22c3.58-5.73-2.24-11.42-8.24-11.29c0,0,0,0,0,0c0,0,0,0,0,0c0,0,0,0,0,0
		c5.04-14.26,10.27-28.5,19.04-40.95c4.25,0.31,8.25-2.28,10.5-5.7c4.9,14.03,17.62,3.16,7.83-6.64c5.79-2.41,11.94-5.35,18.04-8.8
		C240.44,176.01,239.66,174.9,239.01,173.73z M57.91,303.82c-4.39,0.35-1.37-7.82-1.27-7.88c-6.16,4.67-10.58-2.48-2.87-6.89
		c-8.88,2-9.14-6.32-1.11-9.12c1.98,4.75,10.8,7.07,10.68,14.86c-0.07,1.65,0.75,3.37,2.24,4.14
		C63.61,301.46,60.98,303.82,57.91,303.82z M68.84,281.57c0.47,5.61-0.1,3.5-2.43,6.93c-3-5.76-8.91-9.41-9.43-9.75
		c2.92-1.73,6.94-4.11,9.86-5.84c0.59,0.98,1.38,1.87,2.37,2.56C68.78,277.4,68.68,279.44,68.84,281.57z M176.11,266.03
		c0.01,0.03,0.06,0.15,0.06,0.15c-2.22-0.13-5.89-0.36-8.09-0.49c-0.5-3.32-3.52-4.1-4.72-8.28c-0.48-1.62-1.34-3.43-2.55-5.41
		c2.07-1.6,3.09-4.03,3.15-6.36c3.58,0.27,8.69,0.64,12.24,0.91C170.8,253.77,175.76,265.24,176.11,266.03z M186.11,252.13
		c7.48-0.5,7.63,7.92-1.49,7.31c7.74,2.68,4.96,10.43-4.19,8.16c1.02-5.04-4.97-11.91-0.51-18.28c1.01-1.36,1.21-3.16,0.51-4.7
		C189.25,241.67,194.69,246.7,186.11,252.13z M209.81,193.7c-13.13,5.16-7.08-8.64,5.38-7.07c0.15,0.09,0.3,0.18,0.46,0.27
		C214.26,189.52,212.38,192.2,209.81,193.7z M223.71,193.07c0.68,6.78-7.83,0.78-5.42-5.43c0.59-0.19,1.18-0.41,1.76-0.62
		C221.92,188.51,223.34,190.69,223.71,193.07z"/>
	<path d="M318.45,307.01c5.13-7.64,2.17-9.33-5.94-10.75c-6.25-0.83-11.43-0.55-8.17,6.74c3.44,13.1-13.34,14.05-11.79,5.28
		c1.69-9.08,10.54-13.33-4.35-15.32c-16.96-2.35-5.08,9.77-8.21,20.2c-0.99,8.68-6.02,17.69-7.75,25.64
		c-1.52,6.93,18.86,9.69,19.24,2.62c0.42-3.08-1.91-6.84-0.99-13.6c1.23-10.67,19.38-10.66,6.35,14.32
		c-0.52,3.82,3.12,5.66,8.48,6.39C326.48,352.7,307.91,324.27,318.45,307.01z"/>
	<path d="M369.43,309.6c-5.05,4.53-8.51,14.7-13.51,20.53c-5.13,4.24-5.18,7.39,1.71,9.35c13.25,2.78,5.06-7.01,12.89-6.44
		c7.29,2.68-3.96,8.46,9.18,10.96c13.45,2.02,5.04-8.05,4.61-15.47c-2.08-10.38,1.63-17.97-8.06-19.73
		C372.83,308.1,370.96,308.4,369.43,309.6z M374,325.66c-0.18,1.41-0.99,1.48-2.34,1.11c-1-0.12-2.41-0.4-1.84-1.74
		C372.36,319.08,374.49,318.84,374,325.66z"/>
	<path d="M388.03,343.96c-6.57,3.64-8.89,2.58-24.8-0.39c-17.99-4.75-26.43-3.97-24.84-15.37c0.3-5.68,8.03-6.03,6.04-1.79
		c-3.17-6.08-8.15,4.04-0.85,5.27c11.93,1.29,8.99-17.36-2.64-13.7c0.26-6.51,10.04-10.35,13.17-2.98c0.82,2.28,0.46,3.65,1.99,3.96
		c4.53,0.77,8.12-13.44,3.51-14.18c-4.18-0.04-18.15-2.67-22.4-3.99c-8.76-1.75-9.81,0.64-8.08,8.41c2,12.76-6.36,25.21-10.04,36.44
		c-4.16,5.84,58.65,19.21,64.06,15.55C387.27,360.21,391.17,346.02,388.03,343.96z"/>
	<path d="M467.91,318.23c-0.13-8.86-5.35-4.64-12.29-4.54c-10.82-0.23-23.09,0.51-37.63,1.09c-9.4,0.42-23.03,0.79-25.77,0.87
		c-2.44,0.07-2.96,2.75-2.87,5.86c0.07,2.44,0.59,12.58,3.99,12.49c1.26-0.04,0.74-2.69,1.85-5.24c4.4-7.08,16.27-5.98,24.2-6.24
		c4.81-0.14,15.62-0.82,19.03,1.97c8.12,9.36-0.31,26.87-0.19,37c0.11,3.85,4.67,5.05,10.07,4.9c11.73,0.06,10.52-6.4,7.8-14.9
		c-1.27-5.37-2.93-11.78-3.14-18.89c-0.23-8.65,4.99-15.04,8.89-7.97c1.26,2.56,1.22,6.34,2.78,6.3
		C468.05,330.83,467.98,320.68,467.91,318.23z"/>
	<path d="M432.9,350.75c-3.62,4.09-6.83,0.17-6.89-5.06c10.54-8.31,1.63-20.08-13.07-18.67c-9.78,0.28-17.29,4.5-17.1,11.24
		c0.09,3.11,2.25,5.87,5.5,5.77c5.91,0.13,2.31-8.95-0.57-4.36c-1.31-0.99-0.14-3.07,1.62-3.01c8.57,2.52-0.79,19.55-0.43,26.25
		c-0.56,6.27,16.52,6.11,15.78-0.46c-0.4-3.99-2.28-9.42-2.33-14.09c1.85-0.05,2.34,3.86,3.12,10.51c0.7,6.13,4.11,8.85,8.92,8.71
		C435.77,368.75,437.88,353.76,432.9,350.75z M417.67,339.48c-2.99,0.17-3.1-5.17,0.37-4.98
		C422.01,334.5,420.7,339.53,417.67,339.48z"/>
</g>
</svg>
