<?xml version="1.0" encoding="utf-8"?>
<!-- Generator: Adobe Illustrator 22.0.1, SVG Export Plug-In . SVG Version: 6.00 Build 0)  -->
<svg version="1.1" id="Шар_1" xmlns="http://www.w3.org/2000/svg" xmlns:xlink="http://www.w3.org/1999/xlink" x="0px" y="0px"
	 viewBox="0 0 714 714" style="enable-background:new 0 0 714 714;" xml:space="preserve">
<g>
	<path d="M523.8183594,253.090332c-16.1289063-27.5273438-41.3955078-38.1674805-48.5644531-41.0854492
		c-26.3525391-10.7265625-49.7099609-6.9082031-62.9707031-4.7407227
		c-23.96875,3.9174805-41.765625,13.3427734-51.9833984,19.7822266c-6.8149414-5.769043-17.8984375-13.855957-33.2460938-19.8798828
		c-27.8393555-10.9272461-51.7998047-8.0390625-57.8051758-7.1884766
		c-23.5209961,3.331543-39.5864258,13.3662109-43.8085938,16.1196289
		c-4.0786133,2.6601563-29.0830078,19.453125-41.1396484,51.1210938
		c-17.3710938,45.6274414,3.9995117,89.0751953,11.4331055,104.2236328
		c5.4765625,11.1601563,11.4228516,19.7138672,18.1298828,29.3623047c4.3510742,6.2578125,18.0595703,25.5,42.421875,49.4785156
		c17.0693359,16.8007813,43.425293,39.9179688,80.4882813,63.0683594c5.3891602,0.3974609,10.7788086,0.7958984,16.168457,1.1943359
		c40.9702148-18.5380859,97.2299805-51.5410156,142.0766602-108.6484375
		c34.2216797-43.5791016,39.8466797-73.2421875,41.1162109-90.328125
		C537.0791016,302.8583984,538.5673828,278.2607422,523.8183594,253.090332z M252.2749023,430.484375
		c-24.1860352-26.3515625-47.1459961-51.9589844-57.5092773-92.2885742
		c-4.2910156-16.7006836-9.6201172-38.6484375-0.9042969-63.9956055
		c3.7807617-10.9960938,16.3793945-40.5883789,49.3100586-53.9018555
		c36.1796875-14.6269531,68.1967773,2.0004883,72.9125977,4.5522461
		c19.2861328,10.4365234,29.5810547,25.6694336,33.9233398,33.0820313
		c1.7519531-2.9140625,5.0317383-7.9794922,10.1235352-13.5385742c6.5029297-7.0981445,15.9609375-15.0009766,28.9765625-20.2573242
		c8.3271484-3.362793,16.4042969-4.9501953,23.8818359-5.4350586c18.7685547-1.2163086,33.7441406,4.5380859,39.3144531,6.7714844
		c6.0273438,2.4165039,27.2949219,11.7089844,42.1669922,34.7612305
		c18.2880859,28.3476563,14.5097656,58.2861328,12.8144531,70.269043
		c-1.4267578,10.0898438-6.9375,39.5649414-50.7626953,86.9887695
		c-22.015625,23.8232422-58.8310547,57.7285156-114.7265625,86.3886719
		C300.1259766,478.4140625,271.0214844,450.9091797,252.2749023,430.484375z"/>
	<path d="M357.7792969,308.184082c-1.9335938,1.0966797-3.3686523,2.9765625-4.0283203,4.9736328
		C362.1210938,312.7661133,363.7871094,304.7504883,357.7792969,308.184082z"/>
	<path d="M343.7631836,393.9755859c0.9418945-3.0244141,2.1450195-6.2011719,3.6484375-9.0087891
		C339.2324219,388.5625,334.6474609,407.6660156,343.7631836,393.9755859z"/>
	<path d="M384.7890625,393.8095703c0.9931641-3.0234375,2.1884766-5.8886719,3.4238281-8.1855469
		C379.5273438,388.7431641,374.5908203,409.75,384.7890625,393.8095703z"/>
	<path d="M445.4462891,396.9013672c-5.3115234-7.5410156-2.2021484-3.1933594-3.4619141-7.1425781
		c-0.5322266-1.6611328-4.7978516-7.3261719-6.1015625-9.1591797c-2.7041016-3.9296875-6.6191406-4.2695313-12.5234375-3.2597656
		l-2.5048828-3.5625c-5.3154297-7.5830078-14.5244141-2.5214844-16.5888672,3.8603516
		c-1.3720703-0.7695313-2.8515625-1.1640625-4.2890625-1.3291016c10.2197266-9.8193359,12.1904297-30.934082,14.5244141-42.8696289
		c0.5771484-2.9287109,3.3505859-14.4833984,5.1455078-16.3544922c2.0546875-1.9169922,2.4179688-4.4882813,0.7080078-6.5898438
		l-5.1123047-7.2832031c-4.3076172-6.1796875-15.2578125-5.7919922-20.3457031,0.5517578l-1.0507813-1.5195313
		c-3.3076172-4.7148438-13.6152344-5.3457031-18.3085938-0.5917969c-0.8984375,0.9091797-1.8476563,2.2026367-2.78125,3.7641602
		l-0.0400391-0.0581055c-3.65625-5.1865234-7.8945313-7.3925781-14.7509766-7.6933594
		c-5.2255859-0.2329102-9.7670898,1.0722656-13.5029297,3.3413086c1.6982422-6.824707,3.6025391-14.1860352-0.7832031-20.4145508
		l-5.4604492-7.8056641c-3.4082031-4.8203125-10.7050781-6.3154297-14.378418-3.4003906l-2.5561523-3.6142578
		c-6.012207-8.5917969-16.8291016-4.6904297-20.9916992,1.7753906c-12.1767578-2.5283203-29.4775391-1.9658203-38.6025391,7.3369141
		c-7.2265625,7.4335938-7.1923828,18.0146484-1.3745117,26.0341797c0.1000977,0.15625,0.2504883,0.3662109,0.3491211,0.5263672
		c4.6108398,6.4960938,7.9384766,12.7080078,16.3027344,14.8974609c0.6757813,2.234375,2.3911133,4.0253906,3.6425781,5.9091797
		c-2.3901367,3.2529297-5.9980469,7.8720703-10.0429688,8.8193359l-5.2612305-7.4394531
		c-6.012207-8.5380859-22.6499023,7.0048828-17.9741211,22.6894531c1.4956055,4.8818359,5.3203125,9.5053711,8.2744141,13.7475586
		c6.6635742,9.4794922,18.1269531,11.7353516,29.3066406,7.6894531
		c12.1166992-4.3378906,19.6108398-14.6547852,24.3974609-26.269043c0.9453125,4.1474609,2.1743164,6.9599609,4.4277344,10.2587891
		l5.4614258,7.8071289c12.3256836,17.4443359,39.0795898,4.2832031,35.4208984-10.6567383
		c-0.0825195-0.3320313-0.3022461-0.7963867-0.6079102-1.3383789c0.9594727,0.1328125,1.9677734,0.2192383,3.046875,0.2495117
		c5.9355469,0.1977539,11.1191406-2.0493164,15.5390625-5.5297852c1.8720703,2.6992188,4.0205078,5.2290039,7.1142578,6.0112305
		c-0.3212891,0.5087891-0.6904297,0.9140625-1.0009766,0.9589844c-5.4511719-8.1669922-16.5302734,3.2109375-12.7402344,14.3344727
		c1.0195313,3.1181641,4.6884766,7.7382813,6.7421875,10.671875c0.9287109,1.3027344,1.8886719,2.4355469,2.9199219,3.3974609
		c-1.2763672,0.5244141-2.5107422,1.1435547-3.6806641,1.8525391c-1.1660156,0.7070313-2.265625,1.5136719-3.2998047,2.3974609
		l-1.5361328-2.1894531c-5.0097656-7.125-15.2558594-3.3671875-15.2558594-3.3671875
		c-6.6010742-2.7207031-14.3208008-1.3349609-20.2802734,2.3056641c-1.6416016,0.9951172-3.1352539,2.1435547-4.4921875,3.4111328
		l-2.5991211-3.7158203c-3.0556641-4.3486328-14.1606445-6.3369141-19.5766602,0.8242188
		c-3.6396484-6.0625-14.25-7.0097656-19.262207-1.8525391c-1.565918,1.6035156-3.0332031,4.0273438-4.3208008,6.78125
		l-4.7646484-6.7685547c-4.6577148-6.7050781-23.4257813-5.0878906-20.5571289,8.0810547
		c-5.1206055,0.5488281-9.1196289,5.6044922-10.3984375,11.4599609c-0.9296875,4.2578125-0.4238281,8.9384766,2.1489258,12.6210938
		l5.5117188,7.8066406c2.8037109,4.2148438,7.9047852,6.1201172,13.2890625,6.0673828
		c5.9335938-0.0585938,12.2060547-2.5019531,16.1430664-6.9023438l1.3056641,1.8476563
		c5.3608398,7.6484375,14.3574219,6.9091797,20.909668,2.09375c1.8540039,2.5146484,4.8203125,3.9208984,8.4316406,3.9980469
		c3.9570313,0.0839844,8.1445313-2.5605469,11.9233398-6.1455078c1.7944336,2.5361328,3.8588867,4.8789063,6.6870117,5.8671875
		c-0.4838867,0.9179688-1.0112305,1.5253906-1.4272461,1.6210938c-5.6557617-8.2744141-16.4291992,3.3681641-12.7387695,14.3349609
		c1.0698242,3.1201172,4.7392578,7.7392578,6.7919922,10.671875c3.6079102,5.1347656,7.7851563,7.6474609,14.9140625,7.3349609
		c18.1933594-0.7998047,22.6230469-23.734375,25.4609375-40.2167969l1.6416016,2.3388672
		c5.2099609,7.4404297,13.3720703,7.0439453,19.9609375,0.5273438c2.3544922,3.4042969,4.8945313,5.2646484,9.4345703,5.3603516
		c5.3095703,0.1123047,11.1035156-4.7421875,15.7578125-10.2363281l0.5566406,0.7753906
		c3.7050781,5.2910156,5.7246094,9.9277344,12.6367188,10.0732422c8.71875,0.1845703,18.75-13.0214844,22.9335938-20.4677734
		C450.0283203,402.3671875,447.703125,400.0458984,445.4462891,396.9013672z M329.390625,356.4638672
		c-18.8828125-0.3994141-20.1176758-24.9946289-16.2695313-38.5913086c0.3920898-1.4892578,0.8369141-2.9755859,1.3325195-4.4619141
		c-2.6323242-0.0048828-5.4165039-0.1142578-8.2026367-0.1738281
		c-3.9130859,19.0673828-11.6303711,37.3828125-28.1186523,43.3305664
		c-24.4453125,8.7724609-37.6713867-17.5209961-21.0317383-30.6401367c3.5141602-2.5566406,6.2900391-2.0869141,6.1611328,1.5771484
		c-0.3769531,7.9921875,8.1274414,8.6875,13.6513672,3.6943359c5-4.5390625,8.9975586-10.4931641,12.1816406-17.0839844
		c-2.2861328,0.6210938-4.0083008,1.5654297-4.9174805,3.0439453c-0.5351563,0.9169922-1.4716797,1.3105469-2.4404297,0.671875
		c-0.8120117-0.5332031-1.3125-1.3710938-1.652832-2.3066406c-1.5537109-4.6269531,1.6665039-10.4433594,7.8134766-10.6738281
		c1.4472656-0.0712891,3.1474609,0.0146484,5.0537109,0.2109375c3.1772461-8.7070313,5.3330078-17.9013672,6.9472656-25.8681641
		c-3.9194336-0.1357422-7.0224609,0.109375-9.4091797,0.7285156c-10.3276367,2.6220703-7.2167969,14.2490234-0.0180664,13.0605469
		c1.3999023-0.2294922,1.2578125,1.5732422,1.2578125,1.5732422c-2.2304688,7.8496094-9.1708984,11.4199219-16.0283203,11.0693359
		c-20.9853516-1.0625-26.6401367-36.3320313,12.121582-36.2363281c5.0585938,0.0048828,10.0517578,0.6259766,14.2099609,1.7470703
		c3.1479492-7.3154297,11.1743164-8.6425781,15.0859375-5.6171875c5.0805664,3.8759766,0.4882813,13.5332031-6.6831055,13.3818359
		c-0.6381836,8.1933594-1.418457,18.2421875-3.0810547,28.4794922c3.1904297,0.53125,6.2250977,1.0087891,8.7485352,1.2675781
		c4.6694336-13.2705078,10.6293945-26.6679688,9.2070313-35.1103516c-0.3686523-2.0185547,1.9135742-2.5898438,3.409668-2.5078125
		c7.4262695,0.3125,9.2641602,6.1298828,8.7685547,12.4697266c-0.347168,4.2236328-4.2768555,16.7363281-5.9257813,28.8300781
		c-1.1557617,8.3378906-2.2617188,19.1542969,5.0961914,25.0898438c1.4521484,1.1704102,3.1083984,2.0327148,4.8686523,2.4584961
		c0.9477539,0.2290039,1.9248047,0.3374023,2.9194336,0.2866211c0.8271484-0.0341797,1.28125,0.4394531,1.4208984,1.1669922
		c0.2597656,1.0463867,0.2963867,2.1000977,0.1547852,3.1386719
		C345.1503906,350.8442383,337.2880859,356.6318359,329.390625,356.4638672z M319.4326172,289.831543
		c-0.1650391,0.5146484-0.3305664,1.0253906-0.4975586,1.5908203l0.0825195-1.4951172
		C319.1733398,289.8774414,319.3276367,289.8813477,319.4326172,289.831543z M373.8486328,349.6088867
		c0.9384766-0.3408203,1.6982422,0.2958984,2.1914063,1.3378906c0.6445313,1.3056641,2.1835938,1.6982422,3.6396484,1.2128906
		c4.3125-1.3007813,7.75-15.0087891,9.1943359-22.2050781c-3.1015625,3.7705078-7.1708984,6.3510742-10.7958984,7.003418
		c-4.4238281,0.7958984-8.1835938-1.2841797-8.7021484-7.621582c-0.0537109-0.637207-0.0673828-1.3066406-0.0546875-1.9960938
		c-0.9169922,1.0327148-1.8769531,2.012207-2.8818359,2.9199219c-4.1845703,3.7807617-9.1416016,6.3051758-15.0380859,6.1269531
		c-5.3701172-0.1586914-9.2329102-2.027832-11.7392578-4.8325195c-6.0615234-6.7827148-4.1640625-19.0424805,3.6616211-25.8789063
		c3.6401367-3.1796875,8.5585938-5.1889648,14.5600586-4.9213867c8.4394531,0.3598633,13.9453125,5.4003906,12.2099609,9.9814453
		c-0.0439453,0.1181641-0.0908203,0.2353516-0.1445313,0.3525391c-1.4472656,3.1201172-6.3408203,5.9624023-16.0957031,6.8720703
		c-0.5488281,3.5766602,7.0439453,5.1206055,13.3417969,1.8461914c1.4716797-0.7651367,2.8710938-1.7910156,4.0800781-3.1181641
		c0.9667969-3.1025391,2.1923828-6.0683594,3.4453125-8.4536133c1.0185547-1.9389648,2.0566406-3.4951172,2.9882813-4.4267578
		c4.8525391-4.9042969,16.7460938-1.09375,12.9599609,2.1826172c-2.1542969,1.8652344-5.1435547,16.2539063-3.7021484,16.4892578
		c1.2333984,0.2324219,4.5097656-5.8398438,6.8261719-10.4365234c1.2509766-2.9667969,3.0332031-6.7998047,5.859375-8.5458984
		c5.2910156-3.7080078,15.6923828-0.1328125,12.0644531,2.9375c-2.4707031,2.1669922-5.3613281,14.3378906-6.0585938,18.0400391
		c-2.8310547,14.2373047-5.1289063,44.8481445-23.9853516,45.6889648
		C365.7089844,370.8574219,365.2158203,352.6264648,373.8486328,349.6088867z M256.9589844,411.5693359
		c-4.7524414-1.0976563-8.453125-4.4511719-8.5239258-10.5771484c-0.0004883-0.1162109,0.0092773-0.2324219,0.0112305-0.3486328
		c0.1064453-5.828125,3.5878906-11.8183594,8.203125-12.2275391c2.4267578,0.0019531,3.371582,1.6728516,1.6396484,3.0292969
		c-1.4697266,1.1552734-2.3979492,3.5097656-1.1425781,5.1884766c0.8549805,1.1015625,2.5126953,0.7763672,3.4692383-0.5449219
		c0.7973633-1.0683594,0.8261719-2.4091797,0.6982422-3.703125c-0.5717773-4.7597656-4.5952148-9.7490234-0.6948242-13.5371094
		c4.953125-4.8496094,16.7456055-1.0927734,12.9594727,2.1835938c-0.894043,0.8046875-0.734375,2.9785156,1.2495117,6.7871094
		c1.1689453,2.2363281,2.2470703,4.5517578,2.7651367,7.0078125c0.2075195,0.9833984,0.3344727,1.9882813,0.3276367,3.0214844
		c-0.0029297,2.1142578-0.550293,4.0234375-1.4726563,5.7148438
		C272.9433594,409.9902344,263.8496094,413.1611328,256.9589844,411.5693359z M333.6147461,446.6650391
		c-15.9638672,0.6933594-16.456543-17.5380859-7.8237305-20.5546875c0.9355469-0.3408203,1.6953125,0.2958984,2.2416992,1.3378906
		c0.6450195,1.3056641,2.1328125,1.6972656,3.6411133,1.2128906c4.3115234-1.3017578,7.7529297-15.1142578,9.1943359-22.2578125
		c-3.612793,4.7753906-7.6337891,7.0654297-10.4204102,7.0068359c-0.2304688-0.0068359-0.4433594-0.0351563-0.6645508-0.0537109
		c-5.6352539-0.4736328-8.1445313-4.7880859-8.324707-10.2509766c-0.9321289,1.1679688-1.8891602,2.2841797-2.8598633,3.3232422
		c-3.6191406,3.8730469-7.4379883,6.6289063-10.9345703,6.5546875c-4.1279297-0.0878906-6.7128906-2.2578125-7.4560547-6.2490234
		c-3.6474609,4.7558594-9.9907227,6.8183594-14.6816406,5.3007813c-3.7763672-1.2226563-6.4829102-4.7617188-5.8417969-11.1025391
		c0.300293-3.0927734,1.1152344-6.4785156,2.1791992-9.6640625l0.0805664-0.2304688
		c0.3515625-1.0390625,0.7285156-2.0527344,1.1235352-3.0283203c1.5463867-3.8212891,3.3510742-7.0322266,4.8652344-8.5820313
		c4.8520508-4.9052734,16.7451172-1.0917969,12.9589844,2.2353516c-2.1577148,1.8642578-5.1450195,16.2011719-3.7050781,16.4892578
		c3.3427734,0.6396484,4.8720703-5.8330078,5.8027344-8.3427734c1.6411133-4.4042969,3.7363281-8.2304688,5.4243164-9.9501953
		c4.8515625-4.90625,16.7451172-1.0927734,12.9594727,2.2353516c-2.1557617,1.8632813-5.1430664,16.2001953-3.7036133,16.4892578
		c0.2207031,0.0439453,0.5610352-0.1376953,0.9882813-0.4892578c1.2407227-1.0214844,3.2138672-3.4902344,5.125-6.1289063
		c1.2998047-2.8378906,3.0615234-5.2880859,5.1220703-7.3046875c6.6142578-6.4726563,16.2446289-8.5283203,23.1088867-4.9140625
		c5.3344727-3.2939453,15.2231445,0.1679688,11.6977539,3.1904297c-2.5224609,2.1650391-5.359375,14.3369141-6.1103516,18.0390625
		C354.7705078,415.2128906,352.472168,445.8242188,333.6147461,446.6650391z M439.3037109,396.4111328
		c-5.4482422,8.7119141-13.4082031,19.0214844-20.1152344,18.8789063c-2.4228516-0.0507813-4.1533203-0.796875-5.3603516-2.0097656
		c-3.9931641-4.0107422-2.1376953-13.2402344,0.3964844-20.2919922c1.1064453-3.0761719,2.3388672-5.7363281,3.2675781-7.3623047
		c-0.5224609,0.2480469-1.0419922,0.4433594-1.6132813,0.5849609c-0.1064453,0.2060547-0.2148438,0.4609375-0.3212891,0.5625
		c-0.5927734,1.1650391-1.2480469,2.3779297-1.9345703,3.6064453c-0.9970703,1.7851563-2.0712891,3.609375-3.2109375,5.4199219
		l-0.0888672,0.1171875c-1.1728516,1.8681641-2.4648438,3.8173828-3.8398438,5.7236328
		c-4.9433594,6.8554688-10.9462891,13.1474609-16.2509766,13.0351563c-2.1152344-0.0439453-4.1142578-0.7578125-5.5800781-2.1826172
		c-1.515625-1.5830078-2.0810547-4.1738281-2.0664063-7.2705078c-3.9492188,6.1611328-8.6572266,9.1064453-11.8554688,9.0390625
		c-1.9873047-0.0566406-3.6005859-0.5839844-4.8935547-1.4511719c-3.2382813-2.171875-4.4072266-6.5371094-3.9716797-11.4345703
		c0.6621094-7.3261719,4.0419922-13.0917969,8.5517578-16.9609375c2.4794922-2.1269531,5.3007813-3.6748047,8.2011719-4.5957031
		c4.7314453-1.5019531,9.6708984-1.3291016,13.6748047,0.7792969c1.0390625-0.6347656,2.2421875-1.0166016,3.4814453-1.2011719
		c3.1376953-0.4658203,6.5078125,0.3447266,8.0634766,1.6005859c0.921875,0.7421875,1.2080078,1.6386719,0.4316406,2.5185547
		c-0.0810547,0.0917969-0.171875,0.1826172-0.2763672,0.2734375c-2.1552734,1.8642578-5.140625,16.2539063-3.7021484,16.4892578
		c0.5341797,0.1064453,1.7724609-1.0869141,3.2480469-2.8544922c0.9384766-1.1220703,1.9716797-2.4755859,2.984375-3.8789063
		l0.1054688-0.125c1.9335938-2.6582031,3.7597656-5.4960938,4.7607422-7.1513672
		c-2.6699219-0.6757813-4.640625-2.7294922-4.4599609-6.3388672l0.0097656-0.0732422
		c0.2675781-4.7128906,6.8535156-8.7490234,10.2304688-5.7509766c1.8759766,1.5878906,1.5527344,4.6787109,0.6123047,7.6523438
		c3.8935547-1.1064453,14.0664063-3.7304688,15.4208984,0.5839844c0.2861328,1.0908203-0.6679688,2.3095703-1.375,3.9462891
		c-1.3544922,3.1181641-2.7138672,8.7685547-3.0957031,12.1660156c-0.0654297,0.5664063-0.2021484,2.2167969,0.4638672,2.4355469
		c0.9238281,0.1748047,3.6279297-3.1220703,6.234375-6.7841797
		C437.2910156,391.5654297,441.0771484,393.1943359,439.3037109,396.4111328z"/>
	<path d="M226.6142578,274.0380859c2.6264648,1.7480469,6.6044922,4.0063477,11.9711914,5.7338867
		c5.7143555-4.4819336,9.1230469-9.0605469,11.0776367-12.1821289c3.890625-6.2148438,3.8242188-9.5410156,3.7490234-10.668457
		c-0.0893555-1.3388672-0.3642578-4.6723633-3.1254883-7.2890625c-2.2456055-2.1274414-4.8969727-2.6083984-5.6430664-2.7211914
		c-0.9648438-0.1455078-4.1948242-0.5834961-7.2583008,1.4155273c-2.4321289,1.5874023-3.3730469,3.8066406-3.6723633,4.6230469
		c-0.671875-0.6948242-2.2089844-2.0893555-4.6606445-2.7431641c-0.5996094-0.159668-4.6538086-1.1689453-8.4453125,1.3076172
		c-3.4506836,2.2539063-4.1923828,5.7675781-4.3647461,7.0512695c-0.3979492,2.9584961,0.7299805,5.2021484,1.6152344,6.9038086
		C219.9956055,269.5786133,223.2260742,271.7832031,226.6142578,274.0380859z"/>
	<path d="M238.2124023,318.5737305c0.4780273-1.0375977,1.628418-3.6435547,0.6274414-6.7241211
		c-0.8139648-2.5053711-2.6020508-3.9438477-3.1142578-4.3320313c-0.6625977-0.5014648-2.9008789-2.1430664-6.0058594-1.894043
		c-2.465332,0.1977539-4.0717773,1.4750977-4.6279297,1.9643555c-0.2197266-0.7929688-0.8022461-2.4619141-2.3710938-3.9482422
		c-0.3833008-0.3632813-3.0053711-2.7675781-6.8491211-2.4580078c-3.4985352,0.2822266-5.4829102,2.609375-6.1342773,3.4990234
		c-1.5014648,2.0517578-1.5703125,4.1894531-1.6005859,5.8222656c-0.0039063,0.2314453,0.0146484,0.4487305,0.0209961,0.6738281
		c0.0195313,0.6875,0.0751953,1.3535156,0.1831055,1.9882813c0.4580078,2.6958008,1.628418,4.9755859,2.8603516,7.3110352
		c1.2539063,2.3759766,3.3105469,5.684082,6.6225586,9.159668c6.0981445-1.027832,10.5112305-3.0664063,13.2436523-4.6064453
		C236.5063477,321.9628906,237.8100586,319.4477539,238.2124023,318.5737305z"/>
	<path d="M386.2333984,270.5214844c2.2265625,3.4287109,5.7988281,8.1601563,11.2958984,12.9736328
		c9.1015625-2.3955078,15.5097656-6.0913086,19.4394531-8.8007813c7.8222656-5.3945313,9.453125-9.3857422,9.9433594-10.765625
		c0.5810547-1.6386719,1.9667969-5.7460938,0.0273438-10.2783203c-1.578125-3.6850586-4.4853516-5.6196289-5.3154297-6.1376953
		c-1.0722656-0.6689453-4.6904297-2.8496094-9.3623047-2.0458984c-3.7099609,0.6386719-5.9697266,2.7954102-6.7451172,3.6132813
		c-0.4423828-1.1723633-1.5537109-3.621582-4.1357422-5.6586914c-0.6308594-0.4985352-4.9355469-3.7827148-10.71875-2.784668
		c-5.2636719,0.9077148-7.9511719,4.7075195-8.8164063,6.1455078c-1.9941406,3.3154297-1.8046875,6.5649414-1.6259766,9.0444336
		C380.6513672,261.8139648,383.3613281,266.097168,386.2333984,270.5214844z"/>
	<path d="M452.0585938,316.28125c3.0126953,1.5351563,7.5273438,3.4462891,13.4550781,4.6196289
		c5.5273438-5.4799805,8.5888672-10.7768555,10.2822266-14.3432617c3.3710938-7.0986328,2.8886719-10.6313477,2.6679688-11.8222656
		c-0.2607422-1.4140625-0.9677734-4.9287109-4.2314453-7.3720703c-2.6542969-1.9868164-5.5361328-2.1699219-6.3447266-2.1972656
		c-1.0449219-0.0356445-4.5380859-0.1010742-7.5507813,2.4072266c-2.3925781,1.9912109-3.1191406,4.4707031-3.3369141,5.3769531
		c-0.8007813-0.6567383-2.6103516-1.9506836-5.3017578-2.3422852c-0.6582031-0.0957031-5.0996094-0.6674805-8.828125,2.4389648
		c-3.3945313,2.8276367-3.7480469,6.6606445-3.7724609,8.0483398c-0.0566406,3.1987305,1.4228516,5.4477539,2.5761719,7.1499023
		C444.4589844,312.3544922,448.171875,314.3007813,452.0585938,316.28125z"/>
	<path d="M469.7480469,356.2900391c-0.6728516-0.5097656-2.9462891-2.1777344-6.1005859-1.9257813
		c-2.5048828,0.2011719-4.1367188,1.4980469-4.7021484,1.9951172c-0.2226563-0.8066406-0.8144531-2.5014648-2.4072266-4.0117188
		c-0.3896484-0.3691406-3.0527344-2.8125-6.9580078-2.4985352c-3.5546875,0.2861328-5.5703125,2.6499023-6.2324219,3.5537109
		c-1.5253906,2.0834961-1.5957031,4.2553711-1.6269531,5.9145508c-0.0742188,4.0058594,1.46875,7.0166016,3.1113281,10.1318359
		c1.2734375,2.4140625,3.3623047,5.7744141,6.7255859,9.3066406c6.1953125-1.0429688,10.6787109-3.1132813,13.4550781-4.6777344
		c5.5263672-3.1132813,6.8505859-5.6679688,7.2597656-6.5566406c0.4853516-1.0537109,1.6542969-3.7011719,0.6386719-6.8310547
		C472.0839844,358.1455078,470.2685547,356.6835938,469.7480469,356.2900391z"/>
	<path d="M247.265625,366.7988281c-0.0356445-0.9003906-0.1591797-3.1445313-1.9658203-4.953125
		c-1.46875-1.4707031-3.2407227-1.8417969-3.7402344-1.9316406c-0.6450195-0.1152344-2.8066406-0.46875-4.9008789,0.8173828
		c-1.6625977,1.0214844-2.3354492,2.4951172-2.5517578,3.0380859c-0.4379883-0.4794922-1.4448242-1.4443359-3.0800781-1.9277344
		c-0.3994141-0.1191406-3.1040039-0.8710938-5.6958008,0.7226563c-0.6171875,0.3789063-1.1054688,0.8203125-1.5009766,1.2792969
		c-1.1181641,1.296875-1.4575195,2.7421875-1.5605469,3.3759766c-0.3212891,1.9804688,0.3950195,3.5078125,0.9584961,4.6669922
		c1.3603516,2.7998047,3.4897461,4.3398438,5.7241211,5.9169922c1.2680664,0.8945313,3.0229492,1.9863281,5.2714844,3.0009766
		c0.8227539,0.3710938,1.706543,0.7324219,2.6635742,1.0703125c3.9204102-2.9052734,6.2939453-5.9179688,7.6640625-7.9794922
		C247.2788086,369.7929688,247.2954102,367.5576172,247.265625,366.7988281z"/>
</g>
</svg>
