<?xml version="1.0" encoding="utf-8"?>
<!-- Generator: Adobe Illustrator 22.0.1, SVG Export Plug-In . SVG Version: 6.00 Build 0)  -->
<svg version="1.1" id="Шар_1" xmlns="http://www.w3.org/2000/svg" xmlns:xlink="http://www.w3.org/1999/xlink" x="0px" y="0px"
	 viewBox="0 0 714 714" style="enable-background:new 0 0 714 714;" xml:space="preserve">
<style type="text/css">
	.st0{fill:#FFFFFF;}
	.st1{fill:#A22E39;}
	.st2{fill:#EA7878;}
	.st3{fill:#F9CEA7;}
	.st4{fill:#FCA7A7;}
	.st5{fill:#FF7979;}
</style>
<g>
	<path class="st0" d="M524.8183594,281.090332c-16.1289063-27.5273438-41.3955078-38.1674805-48.5644531-41.0854492
		c-26.3525391-10.7265625-49.7099609-6.9082031-62.9707031-4.7407227
		c-23.96875,3.9174805-41.765625,13.3427734-51.9833984,19.7822266c-6.8149414-5.769043-17.8984375-13.855957-33.2460938-19.8798828
		c-27.8393555-10.9272461-51.7998047-8.0390625-57.8051758-7.1884766
		c-23.5209961,3.331543-39.5864258,13.3662109-43.8085938,16.1196289
		c-4.0786133,2.6601563-29.0830078,19.453125-41.1396484,51.1210938
		c-17.3710938,45.6274414,3.9995117,89.0751953,11.4331055,104.2236328
		c5.4765625,11.1601563,11.4228516,19.7138672,18.1298828,29.3623047c4.3510742,6.2578125,18.0595703,25.5,42.421875,49.4785156
		c17.0693359,16.8007813,43.425293,39.9179688,80.4882813,63.0683594c5.3891602,0.3974609,10.7788086,0.7958984,16.168457,1.1943359
		c40.9702148-18.5380859,97.2299805-51.5410156,142.0766602-108.6484375
		c34.2216797-43.5791016,39.8466797-73.2421875,41.1162109-90.328125
		C538.0791016,330.8583984,539.5673828,306.2607422,524.8183594,281.090332z M525.6679688,355.1079102
		c-1.7607422,12.4511719-7.7675781,40.3959961-50.7626953,86.9887695
		c-22.6103516,24.5029297-60.1953125,59.3027344-117.046875,89.3496094
		c-5.0209961,0.1455078-10.0419922,0.2900391-15.0625,0.4345703
		c-41.6699219-25.4667969-70.7744141-52.9716797-89.5209961-73.3964844
		c-24.1860352-26.3515625-47.1459961-51.9589844-57.5092773-92.2885742
		c-4.2910156-16.7006836-9.6201172-38.6484375-0.9042969-63.9956055
		c3.7807617-10.9960938,16.3793945-40.5883789,49.3100586-53.9018555
		c9.4750977-5.6953125,18.0141602-7.0195313,27.2749023-8.4555664c10.1489258-1.5732422,36.4174805-5.2587891,63.0209961,9.6123047
		c12.121582,6.7753906,20.7475586,15.4111328,26.6635742,22.9389648
		c6.5029297-7.0981445,15.9609375-15.0009766,28.9765625-20.2573242c8.3271484-3.362793,16.4042969-4.9501953,23.8818359-5.4350586
		c27.3974609-7.4692383,50.2890625,0.8061523,56.6972656,3.3754883
		c6.0273438,2.4169922,27.2949219,11.7094727,42.1669922,34.7617188
		C531.1416016,313.1860352,527.3632813,343.1245117,525.6679688,355.1079102z"/>
	<path class="st1" d="M317.0839844,252.8505859c19.2861328,10.4365234,29.5810547,25.6694336,33.9233398,33.0820313
		c1.7519531-2.9140625,5.0317383-7.9794922,10.1235352-13.5385742c-5.9160156-7.527832-14.5419922-16.1635742-26.6635742-22.9389648
		c-26.6035156-14.8710938-52.8720703-11.1855469-63.0209961-9.6123047
		c-9.2607422,1.4360352-17.7998047,2.7602539-27.2749023,8.4555664
		C280.3510742,233.6713867,312.3681641,250.2988281,317.0839844,252.8505859z"/>
	<path class="st1" d="M470.6865234,250.0771484c-6.4082031-2.5693359-29.2998047-10.8447266-56.6972656-3.3754883
		c18.7685547-1.2163086,33.7441406,4.5380859,39.3144531,6.7714844
		c6.0273438,2.4165039,27.2949219,11.7089844,42.1669922,34.7612305
		c18.2880859,28.3476563,14.5097656,58.2861328,12.8144531,70.269043
		c-1.4267578,10.0898438-6.9375,39.5649414-50.7626953,86.9887695
		c-22.015625,23.8232422-58.8310547,57.7285156-114.7265625,86.3886719c5.0205078-0.1445313,10.0415039-0.2890625,15.0625-0.4345703
		c56.8515625-30.046875,94.4365234-64.8466797,117.046875-89.3496094
		c42.9951172-46.5927734,49.0019531-74.5375977,50.7626953-86.9887695
		c1.6953125-11.9833984,5.4736328-41.921875-12.8144531-70.269043
		C497.9814453,261.7866211,476.7138672,252.4941406,470.6865234,250.0771484z"/>
	<path class="st2" d="M457.5224609,445.4921875c43.8251953-47.4238281,49.3359375-76.8989258,50.7626953-86.9887695
		c1.6953125-11.9829102,5.4736328-41.9213867-12.8144531-70.269043
		c-14.8720703-23.0522461-36.1396484-32.3447266-42.1669922-34.7612305
		c-5.5703125-2.2333984-20.5458984-7.987793-39.3144531-6.7714844c-7.4775391,0.4848633-15.5546875,2.0722656-23.8818359,5.4350586
		c-13.015625,5.2563477-22.4736328,13.1591797-28.9765625,20.2573242
		c-5.0917969,5.559082-8.371582,10.6245117-10.1235352,13.5385742c-4.3422852-7.4125977-14.637207-22.6455078-33.9233398-33.0820313
		c-4.7158203-2.5517578-36.7329102-19.1791992-72.9125977-4.5522461
		c-32.9306641,13.3134766-45.5292969,42.9057617-49.3100586,53.9018555
		c-8.7158203,25.347168-3.3867188,47.2949219,0.9042969,63.9956055
		c10.3632813,40.3295898,33.3232422,65.9370117,57.5092773,92.2885742
		c18.746582,20.4248047,47.8510742,47.9296875,89.5209961,73.3964844
		C398.6914063,503.2207031,435.5068359,469.3154297,457.5224609,445.4921875z M473.2724609,395.5214844
		c-0.4091797,0.8886719-1.7333984,3.4433594-7.2597656,6.5566406c-2.7763672,1.5644531-7.2597656,3.6347656-13.4550781,4.6777344
		c-3.3632813-3.5322266-5.4521484-6.8925781-6.7255859-9.3066406c-1.6425781-3.1152344-3.1855469-6.1259766-3.1113281-10.1318359
		c0.03125-1.6591797,0.1015625-3.8310547,1.6269531-5.9150391c0.6621094-0.9033203,2.6777344-3.2670898,6.2324219-3.5532227
		c3.9052734-0.3139648,6.5683594,2.1293945,6.9580078,2.4985352c1.5927734,1.5097656,2.1845703,3.2050781,2.4072266,4.0117188
		c0.5654297-0.4970703,2.1972656-1.7939453,4.7021484-1.9951172c3.1542969-0.2519531,5.4277344,1.4160156,6.1005859,1.9257813
		c0.5205078,0.3935547,2.3359375,1.8554688,3.1630859,4.4003906
		C474.9267578,391.8203125,473.7578125,394.4677734,473.2724609,395.5214844z M443.8701172,321.046875
		c3.7285156-3.1064453,8.1699219-2.534668,8.828125-2.4389648c2.6914063,0.3916016,4.5009766,1.6855469,5.3017578,2.3422852
		c0.2177734-0.90625,0.9443359-3.3857422,3.3369141-5.3769531c3.0126953-2.5083008,6.5058594-2.4428711,7.5507813-2.4072266
		c0.8085938,0.0273438,3.6904297,0.2104492,6.3447266,2.1972656c3.2636719,2.4433594,3.9707031,5.9580078,4.2314453,7.3720703
		c0.2207031,1.190918,0.703125,4.7236328-2.6679688,11.8222656c-1.6933594,3.5664063-4.7548828,8.8632813-10.2822266,14.3432617
		c-5.9277344-1.1733398-10.4423828-3.0844727-13.4550781-4.6196289c-3.8867188-1.9804688-7.5996094-3.9267578-10.3847656-8.0361328
		c-1.1533203-1.7021484-2.6328125-3.9511719-2.5761719-7.1499023
		C440.1220703,327.7075195,440.4755859,323.8745117,443.8701172,321.046875z M422.6240234,275.5126953
		c0.8300781,0.5180664,3.7373047,2.4526367,5.3154297,6.1376953c1.9394531,4.5322266,0.5537109,8.6396484-0.0273438,10.2783203
		c-0.4902344,1.3798828-2.1210938,5.3710938-9.9433594,10.765625c-3.9296875,2.7094727-10.3378906,6.4052734-19.4394531,8.8007813
		c-5.4970703-4.8134766-9.0693359-9.5449219-11.2958984-12.9736328c-2.8720703-4.4243164-5.5820313-8.7075195-6.0136719-14.6948242
		c-0.1787109-2.4794922-0.3681641-5.7290039,1.6259766-9.0444336c0.8652344-1.4379883,3.5527344-5.237793,8.8164063-6.1455078
		c5.7832031-0.9980469,10.0878906,2.2861328,10.71875,2.784668c2.5820313,2.0371094,3.6933594,4.4863281,4.1357422,5.6586914
		c0.7753906-0.8178711,3.0351563-2.9746094,6.7451172-3.6132813
		C417.9335938,272.6630859,421.5517578,274.84375,422.6240234,275.5126953z M245.6435547,274.9111328
		c0.7460938,0.112793,3.3974609,0.59375,5.6430664,2.7211914c2.7612305,2.6166992,3.0361328,5.9501953,3.1254883,7.2890625
		c0.0751953,1.1274414,0.1416016,4.4536133-3.7490234,10.668457c-1.9545898,3.121582-5.3632813,7.7001953-11.0776367,12.1821289
		c-5.3666992-1.7275391-9.3447266-3.9858398-11.9711914-5.7338867c-3.3881836-2.2548828-6.6186523-4.4594727-8.7568359-8.5688477
		c-0.8852539-1.7016602-2.0131836-3.9453125-1.6152344-6.9038086c0.1723633-1.2836914,0.9140625-4.7973633,4.3647461-7.0512695
		c3.7915039-2.4765625,7.8457031-1.4672852,8.4453125-1.3076172c2.4516602,0.6538086,3.9887695,2.0483398,4.6606445,2.7431641
		c0.2993164-0.8164063,1.2402344-3.0356445,3.6723633-4.6230469
		C241.4487305,274.3276367,244.6787109,274.765625,245.6435547,274.9111328z M209.1367188,338.5029297
		c0.0302734-1.6328125,0.0991211-3.7705078,1.6005859-5.8222656c0.6513672-0.8896484,2.6357422-3.2167969,6.1342773-3.4990234
		c3.84375-0.3095703,6.4658203,2.0947266,6.8491211,2.4580078c1.5688477,1.4863281,2.1513672,3.1552734,2.3710938,3.9482422
		c0.5561523-0.4892578,2.1625977-1.7666016,4.6279297-1.9643555c3.1049805-0.2490234,5.3432617,1.3925781,6.0058594,1.894043
		c0.512207,0.3881836,2.300293,1.8266602,3.1142578,4.3320313c1.0009766,3.0805664-0.1494141,5.6865234-0.6274414,6.7241211
		c-0.4023438,0.8740234-1.7060547,3.3891602-7.1450195,6.4555664c-2.7324219,1.5400391-7.1455078,3.5786133-13.2436523,4.6064453
		c-3.3120117-3.4755859-5.3686523-6.7836914-6.6225586-9.159668
		C210.5839844,345.4106445,209.0644531,342.4467773,209.1367188,338.5029297z M224.2280273,399.8867188
		c-0.5634766-1.1591797-1.2797852-2.6865234-0.9584961-4.6669922c0.1396484-0.8583984,0.7021484-3.2050781,3.0615234-4.6552734
		c2.5917969-1.59375,5.2963867-0.8417969,5.6958008-0.7226563c1.6352539,0.4833984,2.6420898,1.4482422,3.0800781,1.9277344
		c0.2163086-0.5429688,0.8891602-2.0166016,2.5517578-3.0380859c2.0942383-1.2861328,4.2558594-0.9326172,4.9008789-0.8173828
		c0.4995117,0.0898438,2.2714844,0.4609375,3.7402344,1.9316406c1.8066406,1.8085938,1.9301758,4.0527344,1.9658203,4.953125
		c0.0297852,0.7587891,0.0131836,2.9941406-2.7143555,7.0966797c-1.3701172,2.0615234-3.7436523,5.0742188-7.6640625,7.9794922
		c-3.5727539-1.2597656-6.203125-2.8496094-7.9350586-4.0712891
		C227.7177734,404.2265625,225.5883789,402.6865234,224.2280273,399.8867188z M425.9482422,454.7109375
		c-6.9121094-0.1445313-8.9316406-4.78125-12.6367188-10.0722656l-0.5566406-0.7763672
		c-4.6542969,5.4951172-10.4482422,10.3486328-15.7578125,10.2373047c-4.5400391-0.0957031-7.0800781-1.9570313-9.4345703-5.3613281
		c-6.5888672,6.5175781-14.7509766,6.9140625-19.9609375-0.5273438l-1.6416016-2.3388672
		c-2.8378906,16.4824219-7.2675781,39.4169922-25.4609375,40.2177734c-7.1289063,0.3125-11.3061523-2.2011719-14.9140625-7.3359375
		c-2.0527344-2.9316406-5.722168-7.5507813-6.7919922-10.671875c-3.6904297-10.9667969,7.0830078-22.609375,12.7387695-14.3339844
		c0.4160156-0.0957031,0.9433594-0.703125,1.4272461-1.6210938c-2.828125-0.9882813-4.8925781-3.3320313-6.6870117-5.8681641
		c-3.7788086,3.5849609-7.9663086,6.2294922-11.9233398,6.1455078c-3.6113281-0.0761719-6.5776367-1.4824219-8.4316406-3.9980469
		c-6.5522461,4.8164063-15.5488281,5.5546875-20.909668-2.09375l-1.3056641-1.8476563
		c-7.5102539,8.3935547-23.5385742,9.6943359-29.4321289,0.8359375l-5.5117188-7.8066406
		c-6.1108398-8.7480469-0.5942383-23.1328125,8.2495117-24.0820313
		c-2.8686523-13.1679688,15.8994141-14.7851563,20.5571289-8.0800781l4.7646484,6.7685547
		c1.2875977-2.7548828,2.7548828-5.1787109,4.3208008-6.7822266c5.012207-5.15625,15.6225586-4.2089844,19.262207,1.8535156
		c5.4160156-7.1621094,16.5209961-5.1738281,19.5766602-0.8242188l2.5986328,3.7148438
		c1.3569336-1.2666016,2.8510742-2.4160156,4.4926758-3.4101563c5.9594727-3.640625,13.6791992-5.0273438,20.2802734-2.3066406
		c0,0,10.2460938-3.7578125,15.2558594,3.3671875l1.5371094,2.1894531c1.0332031-0.8828125,2.1328125-1.6894531,3.2988281-2.3964844
		c1.1708984-0.7089844,2.4052734-1.3291016,3.6806641-1.8535156c-1.03125-0.9609375-1.9912109-2.09375-2.9199219-3.3964844
		c-2.0537109-2.9335938-5.7226563-7.5546875-6.7421875-10.671875c-3.7900391-11.125,7.2890625-22.5024414,12.7402344-14.3354492
		c0.3105469-0.0449219,0.6796875-0.4501953,1.0009766-0.9589844c-3.09375-0.7822266-5.2421875-3.3120117-7.1142578-6.0112305
		c-4.4199219,3.4804688-9.6035156,5.7275391-15.5390625,5.5297852c-1.0786133-0.0302734-2.0874023-0.1166992-3.046875-0.2495117
		c0.3056641,0.5419922,0.5253906,1.0063477,0.6079102,1.3383789c3.6586914,14.940918-23.0952148,28.1010742-35.4208984,10.6577148
		l-5.4614258-7.8085938c-2.253418-3.2983398-3.4824219-6.1108398-4.4277344-10.2583008
		c-4.7866211,11.6137695-12.2807617,21.9321289-24.3974609,26.2700195
		c-11.1796875,4.0449219-22.6430664,1.7890625-29.3066406-7.6894531c-2.9541016-4.2421875-6.7788086-8.8671875-8.2744141-13.7485352
		c-4.6757813-15.6845703,11.9619141-31.2275391,17.9741211-22.6894531l5.2612305,7.4394531
		c4.0449219-0.9472656,7.652832-5.5664063,10.0429688-8.8193359c-1.2514648-1.8837891-2.9667969-3.6748047-3.6425781-5.9091797
		c-8.3642578-2.1894531-11.6918945-8.4013672-16.3027344-14.8974609c-0.0986328-0.1601563-0.2490234-0.3701172-0.3491211-0.5263672
		c-5.8178711-8.0195313-5.8520508-18.6005859,1.3745117-26.0341797c9.125-9.3027344,26.4257813-9.8652344,38.6025391-7.3369141
		c4.1625977-6.4658203,14.9794922-10.3671875,20.9916992-1.7753906l2.5561523,3.6142578
		c3.6733398-2.9150391,10.9702148-1.4199219,14.378418,3.4003906l5.4604492,7.8056641
		c4.3857422,6.2285156,2.4814453,13.5898438,0.7832031,20.4145508c3.7358398-2.269043,8.2773438-3.5742188,13.5029297-3.3413086
		c6.8564453,0.3007813,11.0947266,2.5068359,14.7509766,7.6933594l0.0400391,0.0581055
		c0.9335938-1.5615234,1.8828125-2.8549805,2.78125-3.7641602c4.6933594-4.7539063,15.0009766-4.1230469,18.3085938,0.5917969
		l1.0507813,1.5195313c5.0878906-6.34375,16.0380859-6.7314453,20.3457031-0.5517578l5.1123047,7.2832031
		c1.7099609,2.1015625,1.3466797,4.6728516-0.7080078,6.5898438c-1.7949219,1.8710938-4.5683594,13.4257813-5.1455078,16.3544922
		c-2.3339844,11.9355469-4.3046875,33.050293-14.5244141,42.8696289c1.4375,0.1650391,2.9169922,0.5605469,4.2900391,1.3291016
		c2.0644531-6.3818359,11.2724609-11.4433594,16.5878906-3.8603516l2.5048828,3.5625
		c5.9042969-1.0097656,9.8193359-0.6699219,12.5234375,3.2597656c1.3037109,1.8339844,5.5693359,7.4980469,6.1015625,9.1601563
		c1.2597656,3.9492188-1.8496094-0.3984375,3.4619141,7.1425781c2.2568359,3.1445313,4.5820313,5.4648438,2.4355469,9.3417969
		C444.6982422,441.6894531,434.6669922,454.8964844,425.9482422,454.7109375z"/>
	<path class="st2" d="M319.9350586,319.4223633c0.1669922-0.5654297,0.3325195-1.0761719,0.4975586-1.5908203
		c-0.1049805,0.0498047-0.2592773,0.0458984-0.4150391,0.0957031L319.9350586,319.4223633z"/>
	<path class="st1" d="M358.7788086,336.184082c-1.9335938,1.0966797-3.3681641,2.9765625-4.027832,4.9736328
		C363.1210938,340.7661133,364.7871094,332.7504883,358.7788086,336.184082z"/>
	<path class="st1" d="M344.7631836,421.9765625c0.9418945-3.0253906,2.1450195-6.2011719,3.6484375-9.0097656
		C340.2324219,416.5625,335.6474609,435.6660156,344.7631836,421.9765625z"/>
	<path class="st1" d="M385.7890625,421.8105469c0.9931641-3.0234375,2.1884766-5.8886719,3.4238281-8.1855469
		C380.5273438,416.7441406,375.5908203,437.75,385.7890625,421.8105469z"/>
	<path class="st1" d="M446.4462891,424.9023438c-5.3115234-7.5410156-2.2021484-3.1933594-3.4619141-7.1425781
		c-0.5322266-1.6621094-4.7978516-7.3261719-6.1015625-9.1601563c-2.7041016-3.9296875-6.6191406-4.2695313-12.5234375-3.2597656
		l-2.5048828-3.5625c-5.3154297-7.5830078-14.5234375-2.5214844-16.5878906,3.8603516
		c-1.3730469-0.7685547-2.8525391-1.1640625-4.2900391-1.3291016c10.2197266-9.8193359,12.1904297-30.934082,14.5244141-42.8696289
		c0.5771484-2.9287109,3.3505859-14.4833984,5.1455078-16.3544922c2.0546875-1.9169922,2.4179688-4.4882813,0.7080078-6.5898438
		l-5.1123047-7.2832031c-4.3076172-6.1796875-15.2578125-5.7919922-20.3457031,0.5517578l-1.0507813-1.5195313
		c-3.3076172-4.7148438-13.6152344-5.3457031-18.3085938-0.5917969c-0.8984375,0.9091797-1.8476563,2.2026367-2.78125,3.7641602
		l-0.0400391-0.0581055c-3.65625-5.1865234-7.8945313-7.3925781-14.7509766-7.6933594
		c-5.2255859-0.2329102-9.7670898,1.0722656-13.5029297,3.3413086c1.6982422-6.824707,3.6025391-14.1860352-0.7832031-20.4145508
		l-5.4604492-7.8056641c-3.4082031-4.8203125-10.7050781-6.3154297-14.378418-3.4003906l-2.5561523-3.6142578
		c-6.012207-8.5917969-16.8291016-4.6904297-20.9916992,1.7753906c-12.1767578-2.5283203-29.4775391-1.9658203-38.6025391,7.3369141
		c-7.2265625,7.4335938-7.1923828,18.0146484-1.3745117,26.0341797c0.1000977,0.15625,0.2504883,0.3662109,0.3491211,0.5263672
		c4.6108398,6.4960938,7.9384766,12.7080078,16.3027344,14.8974609c0.6757813,2.234375,2.3911133,4.0253906,3.6425781,5.9091797
		c-2.3901367,3.2529297-5.9980469,7.8720703-10.0429688,8.8193359l-5.2612305-7.4394531
		c-6.012207-8.5380859-22.6499023,7.0048828-17.9741211,22.6894531c1.4956055,4.8813477,5.3203125,9.5063477,8.2744141,13.7485352
		c6.6635742,9.4785156,18.1269531,11.734375,29.3066406,7.6894531c12.1166992-4.3378906,19.6108398-14.65625,24.3974609-26.2700195
		c0.9453125,4.1474609,2.1743164,6.9599609,4.4277344,10.2583008l5.4614258,7.8085938
		c12.3256836,17.4433594,39.0795898,4.2832031,35.4208984-10.6577148c-0.0825195-0.3320313-0.3022461-0.7963867-0.6079102-1.3383789
		c0.9594727,0.1328125,1.9682617,0.2192383,3.046875,0.2495117c5.9355469,0.1977539,11.1191406-2.0493164,15.5390625-5.5297852
		c1.8720703,2.6992188,4.0205078,5.2290039,7.1142578,6.0112305c-0.3212891,0.5087891-0.6904297,0.9140625-1.0009766,0.9589844
		c-5.4511719-8.1669922-16.5302734,3.2104492-12.7402344,14.3354492c1.0195313,3.1171875,4.6884766,7.7382813,6.7421875,10.671875
		c0.9287109,1.3027344,1.8886719,2.4355469,2.9199219,3.3964844c-1.2753906,0.5244141-2.5097656,1.1445313-3.6806641,1.8535156
		c-1.1660156,0.7070313-2.265625,1.5136719-3.2988281,2.3964844l-1.5371094-2.1894531
		c-5.0097656-7.125-15.2558594-3.3671875-15.2558594-3.3671875c-6.6010742-2.7207031-14.3208008-1.3339844-20.2802734,2.3066406
		c-1.6416016,0.9941406-3.1357422,2.1435547-4.4926758,3.4101563l-2.5986328-3.7148438
		c-3.0556641-4.3496094-14.1606445-6.3378906-19.5766602,0.8242188c-3.6396484-6.0625-14.25-7.0097656-19.262207-1.8535156
		c-1.565918,1.6035156-3.0332031,4.0273438-4.3208008,6.7822266l-4.7646484-6.7685547
		c-4.6577148-6.7050781-23.4257813-5.0878906-20.5571289,8.0800781c-8.84375,0.9492188-14.3603516,15.3339844-8.2495117,24.0820313
		l5.5117188,7.8066406c5.8935547,8.8583984,21.921875,7.5576172,29.4321289-0.8359375l1.3056641,1.8476563
		c5.3608398,7.6484375,14.3574219,6.9101563,20.909668,2.09375c1.8540039,2.515625,4.8203125,3.921875,8.4316406,3.9980469
		c3.9570313,0.0839844,8.1445313-2.5605469,11.9233398-6.1455078c1.7944336,2.5361328,3.8588867,4.8798828,6.6870117,5.8681641
		c-0.4838867,0.9179688-1.0112305,1.5253906-1.4272461,1.6210938c-5.6557617-8.2753906-16.4291992,3.3671875-12.7387695,14.3339844
		c1.0698242,3.1210938,4.7392578,7.7402344,6.7919922,10.671875c3.6079102,5.1347656,7.7851563,7.6484375,14.9140625,7.3359375
		c18.1933594-0.8007813,22.6230469-23.7353516,25.4609375-40.2177734l1.6416016,2.3388672
		c5.2099609,7.4414063,13.3720703,7.0449219,19.9609375,0.5273438c2.3544922,3.4042969,4.8945313,5.265625,9.4345703,5.3613281
		c5.3095703,0.1113281,11.1035156-4.7421875,15.7578125-10.2373047l0.5566406,0.7763672
		c3.7050781,5.2910156,5.7246094,9.9277344,12.6367188,10.0722656c8.71875,0.1855469,18.75-13.0214844,22.9335938-20.4667969
		C451.0283203,430.3671875,448.703125,428.046875,446.4462891,424.9023438z M330.390625,384.4648438
		c-18.8828125-0.4003906-20.1176758-24.9956055-16.2695313-38.5922852c0.3920898-1.4892578,0.8369141-2.9755859,1.3325195-4.4619141
		c-2.6323242-0.0048828-5.4165039-0.1142578-8.2026367-0.1738281c-3.9130859,19.0673828-11.6303711,37.3828125-28.1186523,43.331543
		c-24.4453125,8.7714844-37.6713867-17.5219727-21.0317383-30.6411133c3.5141602-2.5566406,6.2900391-2.0869141,6.1611328,1.5771484
		c-0.3769531,7.9921875,8.1274414,8.6875,13.6513672,3.6943359c5-4.5390625,8.9975586-10.4931641,12.1816406-17.0839844
		c-2.2861328,0.6210938-4.0083008,1.5654297-4.9174805,3.0439453c-0.5351563,0.9169922-1.4716797,1.3105469-2.4404297,0.671875
		c-0.8120117-0.5332031-1.3125-1.3710938-1.652832-2.3066406c-1.5537109-4.6269531,1.6665039-10.4433594,7.8134766-10.6738281
		c1.4472656-0.0712891,3.1474609,0.0146484,5.0537109,0.2109375c3.1772461-8.7070313,5.3330078-17.9013672,6.9472656-25.8681641
		c-3.9194336-0.1357422-7.0224609,0.109375-9.4091797,0.7285156c-10.3276367,2.6220703-7.2167969,14.2490234-0.0180664,13.0605469
		c1.3999023-0.2294922,1.2578125,1.5732422,1.2578125,1.5732422c-2.2304688,7.8496094-9.1708984,11.4199219-16.0283203,11.0693359
		c-20.9853516-1.0625-26.6401367-36.3320313,12.121582-36.2363281c5.0585938,0.0048828,10.0517578,0.6259766,14.2099609,1.7470703
		c3.1479492-7.3154297,11.1743164-8.6425781,15.0859375-5.6171875c5.0805664,3.8759766,0.4882813,13.5332031-6.6831055,13.3818359
		c-0.6381836,8.1933594-1.418457,18.2421875-3.0810547,28.4794922c3.1904297,0.53125,6.2250977,1.0087891,8.7485352,1.2675781
		c4.6694336-13.2705078,10.6293945-26.6679688,9.2070313-35.1103516c-0.3686523-2.0185547,1.9135742-2.5898438,3.409668-2.5078125
		c7.4262695,0.3125,9.2641602,6.1298828,8.7685547,12.4697266c-0.347168,4.2236328-4.2768555,16.7363281-5.9257813,28.8300781
		c-1.1557617,8.3378906-2.2617188,19.1542969,5.0961914,25.0898438c2.2338867,1.8007813,4.9462891,2.890625,7.7880859,2.7451172
		c0.8271484-0.0341797,1.28125,0.4394531,1.4208984,1.1669922
		C348.7207031,376.8012695,339.574707,384.6601563,330.390625,384.4648438z M320.4326172,317.831543
		c-0.1650391,0.5146484-0.3305664,1.0253906-0.4975586,1.5908203l0.0825195-1.4951172
		C320.1733398,317.8774414,320.3276367,317.8813477,320.4326172,317.831543z M374.8486328,377.6088867
		c0.9384766-0.3408203,1.6982422,0.2958984,2.1914063,1.3378906c0.6445313,1.3051758,2.1835938,1.6977539,3.6396484,1.2133789
		c4.3125-1.3012695,7.75-15.0092773,9.1943359-22.2055664c-6.8876953,8.3730469-18.5546875,10.9111328-19.4980469-0.6181641
		c-0.0537109-0.637207-0.0673828-1.3066406-0.0546875-1.9960938c-4.7392578,5.3354492-10.6074219,9.2680664-17.9199219,9.046875
		C328,363.6655273,334.6464844,327.6733398,358.8833008,328.7543945
		c14.4389648,0.6152344,20.3295898,14.9345703-4.0297852,17.2060547c-0.6767578,4.4121094,11.0371094,5.7368164,17.421875-1.2719727
		c1.7519531-5.6240234,4.3544922-10.8027344,6.4335938-12.8803711c4.8525391-4.9042969,16.7460938-1.09375,12.9599609,2.1826172
		c-2.1542969,1.8652344-5.1435547,16.2539063-3.7021484,16.4892578c1.2333984,0.2324219,4.5097656-5.8398438,6.8261719-10.4365234
		c1.2509766-2.9667969,3.0332031-6.7998047,5.859375-8.5458984c5.2910156-3.7080078,15.6923828-0.1328125,12.0644531,2.9375
		c-2.4707031,2.1669922-5.3613281,14.3378906-6.0585938,18.0400391
		c-2.8310547,14.2373047-5.1289063,44.8491211-23.9853516,45.6889648
		C366.7089844,398.8574219,366.2158203,380.6269531,374.8486328,377.6088867z M249.4350586,428.9921875
		c-0.0297852-5.9355469,3.5073242-12.1582031,8.2143555-12.5761719c2.4267578,0.0019531,3.371582,1.6738281,1.6396484,3.0292969
		c-1.4697266,1.15625-2.3979492,3.5097656-1.1425781,5.1894531c0.8549805,1.1015625,2.5126953,0.7753906,3.4692383-0.5449219
		c0.7973633-1.0683594,0.8261719-2.4101563,0.6982422-3.703125c-0.5717773-4.7597656-4.5952148-9.75-0.6948242-13.5371094
		c4.953125-4.8496094,16.7456055-1.09375,12.9594727,2.1835938c-0.894043,0.8046875-0.734375,2.9785156,1.2495117,6.7871094
		c1.6376953,3.1308594,3.1166992,6.4160156,3.0927734,10.0292969
		C278.8994141,441.5390625,249.6362305,446.3398438,249.4350586,428.9921875z M334.6147461,474.6660156
		c-15.9638672,0.6933594-16.456543-17.5390625-7.8237305-20.5546875c0.9355469-0.3417969,1.6953125,0.2949219,2.2416992,1.3378906
		c0.6450195,1.3046875,2.1328125,1.6972656,3.6411133,1.2128906c4.3115234-1.3027344,7.7529297-15.1152344,9.1943359-22.2578125
		c-3.612793,4.7753906-7.6337891,7.0644531-10.4204102,7.0058594c-6.1132813-0.1738281-8.8017578-4.6269531-8.9892578-10.3037109
		c-4.4067383,5.5195313-9.3598633,9.9716797-13.7944336,9.8779297c-4.1279297-0.0878906-6.7128906-2.2578125-7.4560547-6.25
		c-6.5834961,8.5859375-21.9609375,8.4160156-20.5234375-5.8007813c0.7905273-8.140625,5.1362305-18.3203125,8.2485352-21.5058594
		c4.8520508-4.9042969,16.7451172-1.0917969,12.9589844,2.2363281c-2.1577148,1.8632813-5.1450195,16.2011719-3.7050781,16.4882813
		c3.3427734,0.640625,4.8720703-5.8320313,5.8027344-8.3417969c1.6411133-4.4042969,3.7363281-8.2304688,5.4243164-9.9511719
		c4.8515625-4.90625,16.7451172-1.0917969,12.9594727,2.2363281c-2.1557617,1.8632813-5.1430664,16.1992188-3.7036133,16.4882813
		c0.8608398,0.1708984,3.5444336-3.0703125,6.1132813-6.6181641c5.4702148-11.9433594,19.2280273-16.9580078,28.230957-12.2177734
		c5.3344727-3.2949219,15.2231445,0.1679688,11.6977539,3.1894531c-2.5224609,2.1660156-5.359375,14.3378906-6.1108398,18.0390625
		C355.7705078,443.2128906,353.472168,473.8242188,334.6147461,474.6660156z M440.3037109,424.4121094
		c-5.4482422,8.7109375-13.4082031,19.0214844-20.1152344,18.8789063
		c-13.9306641-0.2949219-5.3955078-23.1855469-1.6962891-29.6640625c-0.5224609,0.2480469-1.0419922,0.4433594-1.6132813,0.5839844
		c-0.1064453,0.2070313-0.2148438,0.4609375-0.3212891,0.5625c-1.453125,2.859375-3.2216797,5.9707031-5.1455078,9.0273438
		l-0.0888672,0.1162109c-5.390625,8.5869141-13.3115234,18.9023438-20.0908203,18.7587891
		c-2.1152344-0.0429688-4.1142578-0.7578125-5.5800781-2.1816406c-1.515625-1.5839844-2.0810547-4.1738281-2.0664063-7.2714844
		c-3.9492188,6.1621094-8.6572266,9.1074219-11.8554688,9.0390625c-6.9667969-0.1972656-9.4746094-6.0332031-8.8652344-12.8847656
		c1.6201172-17.9257813,19.5048828-26.5292969,30.4277344-20.7773438
		c5.3867188-3.2929688,15.1708984,0.1660156,11.7001953,3.1914063c-2.1552734,1.8632813-5.140625,16.2539063-3.7021484,16.4882813
		c0.8740234,0.1738281,3.6269531-3.1210938,6.2324219-6.7324219l0.1005859-0.1191406
		c1.9355469-2.6591797,3.7646484-5.5019531,4.765625-7.1582031c-2.6699219-0.6757813-4.640625-2.7285156-4.4599609-6.3378906
		c0.203125-4.7441406,6.8457031-8.8378906,10.2402344-5.8242188c1.8759766,1.5878906,1.5527344,4.6777344,0.6123047,7.6523438
		c3.8935547-1.1074219,14.0664063-3.7304688,15.4208984,0.5839844c0.2861328,1.0898438-0.6679688,2.3085938-1.375,3.9453125
		c-1.3544922,3.1191406-2.7138672,8.7695313-3.0957031,12.1660156c-0.0654297,0.5664063-0.2021484,2.2167969,0.4638672,2.4355469
		c0.9238281,0.1757813,3.6279297-3.1210938,6.234375-6.7832031
		C438.2910156,419.5664063,442.0771484,421.1953125,440.3037109,424.4121094z"/>
	<path class="st3" d="M346.8671875,369.3305664c-0.1396484-0.7275391-0.59375-1.2011719-1.4208984-1.1669922
		c-2.8417969,0.1455078-5.5541992-0.9443359-7.7880859-2.7451172c-7.3579102-5.9355469-6.2519531-16.7519531-5.0961914-25.0898438
		c1.6489258-12.09375,5.5786133-24.6064453,5.9257813-28.8300781c0.4956055-6.3398438-1.3422852-12.1572266-8.7685547-12.4697266
		c-1.4960938-0.0820313-3.7783203,0.4892578-3.409668,2.5078125c1.4223633,8.4423828-4.5375977,21.8398438-9.2070313,35.1103516
		c-2.5234375-0.2587891-5.5581055-0.7363281-8.7485352-1.2675781c1.6625977-10.2373047,2.4428711-20.2861328,3.0810547-28.4794922
		c7.1713867,0.1513672,11.7636719-9.5058594,6.6831055-13.3818359c-3.9116211-3.0253906-11.9379883-1.6982422-15.0859375,5.6171875
		c-4.1582031-1.1210938-9.1513672-1.7421875-14.2099609-1.7470703
		c-38.7617188-0.0957031-33.1069336,35.1738281-12.121582,36.2363281
		c6.8574219,0.3505859,13.7978516-3.2197266,16.0283203-11.0693359c0,0,0.1420898-1.8027344-1.2578125-1.5732422
		c-7.1987305,1.1884766-10.3095703-10.4384766,0.0180664-13.0605469c2.3867188-0.6191406,5.4897461-0.8642578,9.4091797-0.7285156
		c-1.6142578,7.9667969-3.7700195,17.1611328-6.9472656,25.8681641c-1.90625-0.1962891-3.6064453-0.2822266-5.0537109-0.2109375
		c-6.1469727,0.2304688-9.3671875,6.046875-7.8134766,10.6738281c0.340332,0.9355469,0.8408203,1.7734375,1.652832,2.3066406
		c0.96875,0.6386719,1.9052734,0.2451172,2.4404297-0.671875c0.9091797-1.4785156,2.6313477-2.4228516,4.9174805-3.0439453
		c-3.184082,6.5908203-7.1816406,12.5449219-12.1816406,17.0839844c-5.5239258,4.9931641-14.0283203,4.2978516-13.6513672-3.6943359
		c0.1289063-3.6640625-2.6469727-4.1337891-6.1611328-1.5771484c-16.6396484,13.1191406-3.4135742,39.4125977,21.0317383,30.6411133
		c16.4882813-5.9487305,24.2055664-24.2641602,28.1186523-43.331543c2.7861328,0.0595703,5.5703125,0.1689453,8.2026367,0.1738281
		c-0.4956055,1.4863281-0.9404297,2.9726563-1.3325195,4.4619141c-3.8481445,13.5966797-2.6132813,38.1918945,16.2695313,38.5922852
		C339.574707,384.6601563,348.7207031,376.8012695,346.8671875,369.3305664z"/>
	<path class="st3" d="M382.6728516,398.1640625c18.8564453-0.8398438,21.1542969-31.4516602,23.9853516-45.6889648
		c0.6972656-3.7021484,3.5878906-15.8730469,6.0585938-18.0400391c3.6279297-3.0703125-6.7734375-6.6455078-12.0644531-2.9375
		c-2.8261719,1.7460938-4.6083984,5.5791016-5.859375,8.5458984c-2.3164063,4.5966797-5.5927734,10.6689453-6.8261719,10.4365234
		c-1.4414063-0.2353516,1.5478516-14.6240234,3.7021484-16.4892578c3.7861328-3.2763672-8.1074219-7.0869141-12.9599609-2.1826172
		c-2.0791016,2.0776367-4.6816406,7.2563477-6.4335938,12.8803711c-6.3847656,7.0087891-18.0986328,5.684082-17.421875,1.2719727
		c24.359375-2.2714844,18.46875-16.5908203,4.0297852-17.2060547C334.6464844,327.6733398,328,363.6655273,352.4013672,364.387207
		c7.3125,0.2211914,13.1806641-3.7114258,17.9199219-9.046875c-0.0126953,0.6894531,0.0009766,1.3588867,0.0546875,1.9960938
		c0.9433594,11.5292969,12.6103516,8.9912109,19.4980469,0.6181641c-1.4443359,7.1962891-4.8818359,20.9042969-9.1943359,22.2055664
		c-1.4560547,0.484375-2.9951172,0.0917969-3.6396484-1.2133789c-0.4931641-1.0419922-1.2529297-1.6787109-2.1914063-1.3378906
		C366.2158203,380.6269531,366.7089844,398.8574219,382.6728516,398.1640625z M358.7788086,336.184082
		c6.0083008-3.4335938,4.3422852,4.5820313-4.027832,4.9736328
		C355.4106445,339.1606445,356.8452148,337.2807617,358.7788086,336.184082z"/>
	<path class="st3" d="M278.9208984,425.8496094c0.0239258-3.6132813-1.4550781-6.8984375-3.0927734-10.0292969
		c-1.9838867-3.8085938-2.1435547-5.9824219-1.2495117-6.7871094c3.7861328-3.2773438-8.0063477-7.0332031-12.9594727-2.1835938
		c-3.9003906,3.7871094,0.1230469,8.7773438,0.6948242,13.5371094c0.1279297,1.2929688,0.0991211,2.6347656-0.6982422,3.703125
		c-0.956543,1.3203125-2.6142578,1.6464844-3.4692383,0.5449219c-1.2553711-1.6796875-0.3271484-4.0332031,1.1425781-5.1894531
		c1.7319336-1.3554688,0.7871094-3.0273438-1.6396484-3.0292969c-4.7070313,0.4179688-8.2441406,6.640625-8.2143555,12.5761719
		C249.6362305,446.3398438,278.8994141,441.5390625,278.9208984,425.8496094z"/>
	<path class="st3" d="M364.7119141,410.9375c3.5253906-3.0214844-6.3632813-6.484375-11.6977539-3.1894531
		c-9.0029297-4.7402344-22.7607422,0.2744141-28.230957,12.2177734c-2.5688477,3.5478516-5.2524414,6.7890625-6.1132813,6.6181641
		c-1.4394531-0.2890625,1.5478516-14.625,3.7036133-16.4882813c3.7856445-3.328125-8.1079102-7.1425781-12.9594727-2.2363281
		c-1.6879883,1.7207031-3.7832031,5.546875-5.4243164,9.9511719c-0.9306641,2.5097656-2.4599609,8.9824219-5.8027344,8.3417969
		c-1.4399414-0.2871094,1.5473633-14.625,3.7050781-16.4882813c3.7861328-3.328125-8.1069336-7.140625-12.9589844-2.2363281
		c-3.1123047,3.1855469-7.4580078,13.3652344-8.2485352,21.5058594c-1.4375,14.2167969,13.9399414,14.3867188,20.5234375,5.8007813
		c0.7431641,3.9921875,3.328125,6.1621094,7.4560547,6.25c4.4345703,0.09375,9.3876953-4.3583984,13.7944336-9.8779297
		c0.1875,5.6767578,2.8759766,10.1298828,8.9892578,10.3037109c2.7866211,0.0585938,6.8076172-2.2304688,10.4204102-7.0058594
		c-1.4414063,7.1425781-4.8828125,20.9550781-9.1943359,22.2578125c-1.5083008,0.484375-2.9960938,0.0917969-3.6411133-1.2128906
		c-0.5463867-1.0429688-1.3061523-1.6796875-2.2416992-1.3378906c-8.6328125,3.015625-8.1401367,21.2480469,7.8237305,20.5546875
		c18.8574219-0.8417969,21.1557617-31.453125,23.9863281-45.6894531
		C359.3525391,425.2753906,362.1894531,413.1035156,364.7119141,410.9375z M344.7631836,421.9765625
		c-9.1157227,13.6894531-4.5307617-5.4140625,3.6484375-9.0097656
		C346.9082031,415.7753906,345.7050781,418.9511719,344.7631836,421.9765625z"/>
	<path class="st3" d="M436.4306641,422.1074219c-2.6064453,3.6621094-5.3105469,6.9589844-6.234375,6.7832031
		c-0.6660156-0.21875-0.5292969-1.8691406-0.4638672-2.4355469c0.3818359-3.3964844,1.7412109-9.046875,3.0957031-12.1660156
		c0.7070313-1.6367188,1.6611328-2.8554688,1.375-3.9453125c-1.3544922-4.3144531-11.5273438-1.6914063-15.4208984-0.5839844
		c0.9404297-2.9746094,1.2636719-6.0644531-0.6123047-7.6523438c-3.3945313-3.0136719-10.0371094,1.0800781-10.2402344,5.8242188
		c-0.1806641,3.609375,1.7900391,5.6621094,4.4599609,6.3378906c-1.0009766,1.65625-2.8300781,4.4990234-4.765625,7.1582031
		l-0.1005859,0.1191406c-2.6054688,3.6113281-5.3583984,6.90625-6.2324219,6.7324219
		c-1.4384766-0.234375,1.546875-14.625,3.7021484-16.4882813c3.4707031-3.0253906-6.3134766-6.484375-11.7001953-3.1914063
		c-10.9228516-5.7519531-28.8076172,2.8515625-30.4277344,20.7773438c-0.609375,6.8515625,1.8984375,12.6875,8.8652344,12.8847656
		c3.1982422,0.0683594,7.90625-2.8769531,11.8554688-9.0390625c-0.0146484,3.0976563,0.5507813,5.6875,2.0664063,7.2714844
		c1.4658203,1.4238281,3.4648438,2.1386719,5.5800781,2.1816406c6.7792969,0.1435547,14.7001953-10.171875,20.0908203-18.7587891
		l0.0888672-0.1162109c1.9238281-3.0566406,3.6923828-6.1679688,5.1455078-9.0273438
		c0.1064453-0.1015625,0.2148438-0.3554688,0.3212891-0.5625c0.5712891-0.140625,1.0908203-0.3359375,1.6132813-0.5839844
		c-3.6992188,6.4785156-12.234375,29.3691406,1.6962891,29.6640625
		c6.7070313,0.1425781,14.6669922-10.1679688,20.1152344-18.8789063
		C442.0771484,421.1953125,438.2910156,419.5664063,436.4306641,422.1074219z M385.7890625,421.8105469
		c-10.1982422,15.9394531-5.2617188-5.0664063,3.4238281-8.1855469
		C387.9775391,415.921875,386.7822266,418.7871094,385.7890625,421.8105469z"/>
	<path class="st1" d="M238.3852539,276.3266602c-2.4321289,1.5874023-3.3730469,3.8066406-3.6723633,4.6230469
		c-0.671875-0.6948242-2.2089844-2.0893555-4.6606445-2.7431641c-0.5996094-0.159668-4.6538086-1.1689453-8.4453125,1.3076172
		c-3.4506836,2.2539063-4.1923828,5.7675781-4.3647461,7.0512695c-0.3979492,2.9584961,0.7299805,5.2021484,1.6152344,6.9038086
		c2.1381836,4.109375,5.3686523,6.3139648,8.7568359,8.5688477c2.6264648,1.7480469,6.6044922,4.0063477,11.9711914,5.7338867
		c5.7143555-4.4819336,9.1230469-9.0605469,11.0776367-12.1821289c3.890625-6.2148438,3.8242188-9.5410156,3.7490234-10.668457
		c-0.0893555-1.3388672-0.3642578-4.6723633-3.1254883-7.2890625c-2.2456055-2.1274414-4.8969727-2.6083984-5.6430664-2.7211914
		C244.6787109,274.765625,241.4487305,274.3276367,238.3852539,276.3266602z"/>
	<path class="st3" d="M232.0673828,353.0292969c5.4389648-3.0664063,6.7426758-5.581543,7.1450195-6.4555664
		c0.4780273-1.0375977,1.628418-3.6435547,0.6274414-6.7241211c-0.8139648-2.5053711-2.6020508-3.9438477-3.1142578-4.3320313
		c-0.6625977-0.5014648-2.9008789-2.1430664-6.0058594-1.894043c-2.465332,0.1977539-4.0717773,1.4750977-4.6279297,1.9643555
		c-0.2197266-0.7929688-0.8022461-2.4619141-2.3710938-3.9482422c-0.3833008-0.3632813-3.0053711-2.7675781-6.8491211-2.4580078
		c-3.4985352,0.2822266-5.4829102,2.609375-6.1342773,3.4990234c-1.5014648,2.0517578-1.5703125,4.1894531-1.6005859,5.8222656
		c-0.0722656,3.9438477,1.4472656,6.9077148,3.0644531,9.9731445c1.2539063,2.3759766,3.3105469,5.684082,6.6225586,9.159668
		C224.921875,356.6079102,229.3349609,354.5693359,232.0673828,353.0292969z"/>
	<path class="st1" d="M406.5166016,277.0800781c-0.4423828-1.1723633-1.5537109-3.621582-4.1357422-5.6586914
		c-0.6308594-0.4985352-4.9355469-3.7827148-10.71875-2.784668c-5.2636719,0.9077148-7.9511719,4.7075195-8.8164063,6.1455078
		c-1.9941406,3.3154297-1.8046875,6.5649414-1.6259766,9.0444336c0.4316406,5.9873047,3.1416016,10.2705078,6.0136719,14.6948242
		c2.2265625,3.4287109,5.7988281,8.1601563,11.2958984,12.9736328c9.1015625-2.3955078,15.5097656-6.0913086,19.4394531-8.8007813
		c7.8222656-5.3945313,9.453125-9.3857422,9.9433594-10.765625c0.5810547-1.6386719,1.9667969-5.7460938,0.0273438-10.2783203
		c-1.578125-3.6850586-4.4853516-5.6196289-5.3154297-6.1376953c-1.0722656-0.6689453-4.6904297-2.8496094-9.3623047-2.0458984
		C409.5517578,274.1054688,407.2919922,276.262207,406.5166016,277.0800781z"/>
	<path class="st3" d="M453.0585938,344.28125c3.0126953,1.5351563,7.5273438,3.4462891,13.4550781,4.6196289
		c5.5273438-5.4799805,8.5888672-10.7768555,10.2822266-14.3432617c3.3710938-7.0986328,2.8886719-10.6313477,2.6679688-11.8222656
		c-0.2607422-1.4140625-0.9677734-4.9287109-4.2314453-7.3720703c-2.6542969-1.9868164-5.5361328-2.1699219-6.3447266-2.1972656
		c-1.0449219-0.0356445-4.5380859-0.1010742-7.5507813,2.4072266c-2.3925781,1.9912109-3.1191406,4.4707031-3.3369141,5.3769531
		c-0.8007813-0.6567383-2.6103516-1.9506836-5.3017578-2.3422852c-0.6582031-0.0957031-5.0996094-0.6674805-8.828125,2.4389648
		c-3.3945313,2.8276367-3.7480469,6.6606445-3.7724609,8.0483398c-0.0566406,3.1987305,1.4228516,5.4477539,2.5761719,7.1499023
		C445.4589844,340.3544922,449.171875,342.3007813,453.0585938,344.28125z"/>
	<path class="st1" d="M470.7480469,384.2900391c-0.6728516-0.5097656-2.9462891-2.1777344-6.1005859-1.9257813
		c-2.5048828,0.2011719-4.1367188,1.4980469-4.7021484,1.9951172c-0.2226563-0.8066406-0.8144531-2.5019531-2.4072266-4.0117188
		c-0.3896484-0.3691406-3.0527344-2.8125-6.9580078-2.4985352c-3.5546875,0.2861328-5.5703125,2.6499023-6.2324219,3.5532227
		c-1.5253906,2.0839844-1.5957031,4.2558594-1.6269531,5.9150391c-0.0742188,4.0058594,1.46875,7.0166016,3.1113281,10.1318359
		c1.2734375,2.4140625,3.3623047,5.7744141,6.7255859,9.3066406c6.1953125-1.0429688,10.6787109-3.1132813,13.4550781-4.6777344
		c5.5263672-3.1132813,6.8505859-5.6679688,7.2597656-6.5566406c0.4853516-1.0537109,1.6542969-3.7011719,0.6386719-6.8310547
		C473.0839844,386.1455078,471.2685547,384.6835938,470.7480469,384.2900391z"/>
	<path class="st1" d="M237.887207,409.875c3.9204102-2.9052734,6.2939453-5.9179688,7.6640625-7.9794922
		c2.7275391-4.1025391,2.7441406-6.3378906,2.7143555-7.0966797c-0.0356445-0.9003906-0.1591797-3.1445313-1.9658203-4.953125
		c-1.46875-1.4707031-3.2407227-1.8417969-3.7402344-1.9316406c-0.6450195-0.1152344-2.8066406-0.46875-4.9008789,0.8173828
		c-1.6625977,1.0214844-2.3354492,2.4951172-2.5517578,3.0380859c-0.4379883-0.4794922-1.4448242-1.4443359-3.0800781-1.9277344
		c-0.3994141-0.1191406-3.1040039-0.8710938-5.6958008,0.7226563c-2.359375,1.4501953-2.921875,3.796875-3.0615234,4.6552734
		c-0.3212891,1.9804688,0.3950195,3.5078125,0.9584961,4.6669922c1.3603516,2.7998047,3.4897461,4.3398438,5.7241211,5.9169922
		C231.684082,407.0253906,234.3144531,408.6152344,237.887207,409.875z"/>
</g>
</svg>
