<?xml version="1.0" encoding="utf-8"?>
<!-- Generator: Adobe Illustrator 22.0.1, SVG Export Plug-In . SVG Version: 6.00 Build 0)  -->
<svg version="1.1" id="Шар_1" xmlns="http://www.w3.org/2000/svg" xmlns:xlink="http://www.w3.org/1999/xlink" x="0px" y="0px"
	 viewBox="0 0 714 714" style="enable-background:new 0 0 714 714;" xml:space="preserve">
<g>
	<path d="M283.0664063,393.7988281c-5.7412109,15.8310547-8.3105469,39.5751953-9.0048828,45.609375
		C305.5263672,439.7050781,300.8720703,344.1347656,283.0664063,393.7988281z"/>
	<path d="M353.5185547,461.1728516c-2.8701172,5.9326172-5.8398438,16.2226563,2.3730469,15.828125
		c2.6689453-0.0986328,5.1425781-1.9794922,7.1230469-4.7460938
		C359.1582031,469.0888672,355.9931641,465.4267578,353.5185547,461.1728516z"/>
	<path d="M547.2402344,461.8662109c-4.1523438-5.7392578-2.3730469-2.9677734-5.3408203-5.4423828l-8.5078125-11.6728516
		c-7.2207031-9.7949219-15.4345703-13.8535156-28.5898438-14.1503906
		c-14.0410156-0.3291016-25.4160156,5.0341797-33.4677734,13.1523438l-4.6357422-6.3183594
		c-9.0048828-12.1660156-22.1630859-6.4296875-28.1972656,2.1777344l-1.7792969-2.3740234
		c-6.1328125-9.3984375-26.1181641-8.3095703-34.3291016,0.3945313c-2.7041016,2.8164063-4.6064453,7.0166016-5.9306641,11.6835938
		c-5.0537109-7.0966797-11.0888672-14.6259766-18.1171875-17.4248047
		c-8.015625-3.0683594-16.1259766-1.4863281-23.2480469,2.6708984c-2.1796875,0-4.3496094,0.3134766-6.4804688,0.8769531
		c0.8955078-3.1015625,1.5800781-6.3271484,2.0078125-9.6865234c2.4707031-19.5849609-3.0683594-29.4814453-12.7636719-42.3427734
		l-5.7373047-7.9121094c-13.3574219-18.3007813-36.3085938-22.75-56.4921875-12.0664063
		c-24.4326172,12.9619141-29.7753906,37.0009766-35.2177734,60.4472656
		c-1.2841797-0.8896484-2.6699219-2.0771484-4.0556641-3.2626953c-1.4824219-3.9570313-1.9794922-7.9160156-0.59375-11.6757813
		c2.5732422-6.4306641-1.9775391-10.7841797-6.3310547-16.5205078c-4.7490234-6.53125-8.1142578-13.3583984-16.2265625-12.4677734
		c-26.3134766,3.0683594-44.3193359,41.4521484-24.2373047,68.8564453
		c10.4882813,14.1455078,16.2246094,24.8339844,34.1337891,32.3496094
		c-0.7900696,1.2851563-1.5820313,2.5732422-2.3740234,3.7597656
		c-26.4169922-12.1708984-48.0830078,27.0068359-30.4726563,50.9492188l10.0898438,13.7519531
		c12.6630859,17.3125,36.0117188,19.8857422,53.1269531,7.4189453
		c13.8525391,12.5644531,33.7392578,22.9511719,52.1386719,23.2480469
		c38.4863281,0.6943359,49.9619141-37.3974609,33.8339844-58.5693359l-2.1767578-2.9648438
		c-10.3867188-14.2470703-16.8203125-26.1201172-39.1777344-26.515625c-3.0683594,0-9.0009766,0.59375-12.2666016,2.2763672
		c0.6904297-3.4628906,1.1855469-7.0253906,1.7792969-10.5849609c11.3837891-1.7431641,22.1835938-5.5439453,31.5512695-11.2011719
		c-0.8945313,9.1845703,1.2011719,18.4072266,6.6547852,25.84375l10.6835938,14.5439453
		c14.5537109,20.9384766,52.0830078,17.2666016,67.3710938-6.8408203c0.4179688,0.5869141,0.8466797,1.1826172,1.2958984,1.796875
		c7.1240234,9.5947266,11.7763672,18.6962891,24.734375,18.6962891c13.9228516,0,27.5595703-15.5878906,35.6513672-27.65625
		l8.4853516,11.8222656c8.0136719,10.7841797,16.6201172,15.7294922,31.0654297,15.828125
		c24.3378906,0.296875,41.6513672-20.6757813,52.1367188-40.265625c2.0761719-3.8544922,2.2744141-8.5058594-0.59375-11.9677734
		L547.2402344,461.8662109z M271.1884766,462.9589844c-2.671875,20.0820313-6.8251953,40.3642578-17.0175781,56.5888672
		c5.0478516,3.0644531,10.4892578,5.0439453,16.7207031,5.5390625
		c16.6210938,1.0859375,26.3164063-13.3564453,17.1171875-21.5693359c-1.8779297-1.7802734,0.7919922-3.5595703,0.7919922-3.5595703
		c2.9697266-1.2841797,6.2333984-1.7792969,9.6962891-1.7792969c42.8408203,0.6904297,41.2548828,61.3378906-3.8564453,60.5458984
		c-18.7011719-0.3935547-39.1767578-12.1660156-51.9414063-25.2265625
		c-9.0009766,8.4082031-19.7851563,10.8828125-29.1845703,9.2001953
		c-42.3417969-8.0126953-19.1914063-70.5390625,9.3027344-49.9609375
		c6.1337891-7.5205078,10.3886719-17.0185547,13.6523438-27.3066406
		c-15.828125-1.5849609-30.0751953-7.1240234-39.671875-17.0175781
		c-10.5869141-10.984375-13.2548828-28.4941406-6.3300781-43.0371094
		c4.4511719-9.3994141,13.1591797-18.3027344,23.8427734-19.4892578c3.3652344-0.3935547,6.3310547,1.6826172,4.8486328,5.3427734
		c-5.0458984,13.2548828,6.9238281,32.2529297,25.5234375,42.0458984c1.9775391-8.3105469,3.8564453-16.7216797,6.0341797-25.03125
		c16.6201172-64.4023438,89.9306641-54.4101563,82.9052734,1.0888672
		C330.5537109,433.2714844,310.9638672,458.6982422,271.1884766,462.9589844z M541.0644531,467.9960938
		c-10.2890625,18.3027344-25.0273438,37.2988281-46.8925781,37.1005859
		c-8.9277344-0.0751953-15.7353516-2.6611328-20.5947266-6.78125c-6.3876953-5.4169922-9.3974609-13.4902344-9.3896484-22.0332031
		c-2.1484375,0.5546875-4.34375,0.7167969-6.4648438,0.5927734c-1.9121094-0.1123047-3.765625-0.4511719-5.4628906-0.9628906
		c-9.2978516,15.2353516-22.6542969,29.1845703-33.4384766,29.1845703c-4.3369141,0-7.6162109-1.2763672-10.1474609-3.5283203
		c-2.3183594-2.0625-4.0097656-4.9433594-5.2871094-8.4433594c-1.5556641-4.2666016-2.5175781-9.4521484-2.9560547-14.8935547
		c-1.953125,1.0869141-4.0654297,1.8671875-6.3857422,2.3505859c-1.0361328,0.2158203-2.1113281,0.3759766-3.2324219,0.4775391
		c-12.2666016,31.9560547-66.5791016,34.2324219-65.5917969-5.7363281c0.1054688-2.4746094,0.4418945-4.9755859,1.0092773-7.4453125
		c0.4995117-2.1728516,1.1767578-4.3232422,2.0571289-6.4082031c2.8398438-6.5107422,9.6103516-14.8105469,17.7265625-18.7304688
		c3.4755859-1.6787109,7.1962891-2.5585938,10.9628906-2.1435547c20.5771484-13.7519531,36.3085938,7.1220703,36.3085938,26.9082031
		c0,0.890625-0.0986328,1.8818359-0.0986328,2.7705078c0.1777344-0.0166016,0.3417969-0.0576172,0.515625-0.0820313
		c2.5966797-0.359375,4.7216797-1.5136719,6.5498047-3.2597656c0.1708984-3.6748047,0.5595703-7.2578125,1.1484375-10.5615234
		c1.1728516-6.5771484,3.1328125-12.03125,5.7451172-14.7880859c9.1025391-9.5986328,30.4697266-4.2539063,24.9306641,3.7597656
		c-1.8808594,2.7675781-0.3974609,31.2607422,2.3740234,31.7558594c1.4824219,0.1953125,5.3408203-4.4521484,9.4951172-10.1914063
		c-17.015625-33.5371094,36.0117188-46.5957031,13.7519531-1.4824219c0.3251953,0.4814453,0.7148438,0.8447266,1.1455078,1.1171875
		c1.9306641,1.2207031,4.7412109,0.4814453,6.8916016-1.0039063c1.7333984-6.0341797,4.8994141-11.8408203,9.3632813-16.65625
		c6.9902344-7.5419922,17.1669922-12.6484375,30.0546875-12.3466797c27.6992188,0.59375,39.5703125,27.8007813-7.0273438,33.1435547
		c-1.1865234,9.0048828,24.2392578,10.7851563,35.4179688-5.8349609
		C537.0087891,458.7998047,544.3271484,461.7666016,541.0644531,467.9960938z"/>
	<path d="M505.2529297,450.7822266c-3.6621094,2.1796875-6.3349609,5.8398438-7.5185547,9.6962891
		C513.7607422,459.3896484,516.6298828,443.9570313,505.2529297,450.7822266z"/>
	<path d="M228.5922852,214.9008789c1.7729492,0.9633789,4.0571289,1.6064453,6.8330078,1.9257813
		c-0.0283203,1.4208984-0.1088867,2.987793-0.2504883,4.7109375c-0.7197266,8.7495117-2.7158203,18.3188477-3.5678711,22.4047852
		l-0.1411133,0.6777344c-0.3681641,1.7724609-0.6157227,3.9873047,0.7456055,5.387207
		c0.7695313,0.7910156,1.690918,0.9804688,2.4482422,0.9804688c0.4575195,0,0.8549805-0.0688477,1.1230469-0.1166992
		c0.7983398,0.1518555,1.6518555-0.1220703,2.2084961-0.7900391c0.4628906-0.5551758,0.6201172-1.2631836,0.4916992-1.9213867
		c2.9672852-10.6538086,5.9804688-21.4511719,8.9824219-31.5800781c5.9111328-0.6879883,12.8935547-2.1083984,20.3461914-4.1489258
		c3.9448242-1.0800781,7.8808594-2.2910156,11.6420898-3.565918c-0.6259766,6.9990234-1.3920898,13.8125-2.043457,19.5986328
		c-0.609375,5.4135742-1.1357422,10.0888672-1.3945313,13.4853516c-0.1411133,1.8549805-0.1953125,3.2407227-0.1645508,4.2358398
		c0.0166016,0.5444336,0.043457,1.4248047,0.375,2.2167969c0.2758789,0.9321289,1.1245117,1.6196289,2.1420898,1.6518555
		c2.4013672,0.074707,4.4296875-0.4814453,5.4179688-1.4882813c0.4941406-0.503418,0.7475586-1.1508789,0.7138672-1.8227539
		c-0.1508789-3.015625,0.4033203-9.6318359,1.0449219-17.2924805c0.5917969-7.0654297,1.2724609-15.1943359,1.6811523-23.4052734
		c4.9736328-1.934082,9.328125-3.9018555,12.5551758-5.6972656c-0.5366211,3.8994141-0.9526367,7.9204102-1.2177734,11.9599609
		c-0.6293945,9.5922852-0.8652344,26.4443359,4.6279297,31.5332031C304.7314453,245.2670898,306.5786133,246,308.5546875,246
		c0.8505859,0,1.7255859-0.1357422,2.6098633-0.4106445c4.0522461-1.2597656,8.1796875-5.3139648,11.9370117-11.7250977
		c1.5507813-2.6459961,2.9912109-5.6445313,4.3110352-8.9082031c0.2456055,7.7924805,1.4306641,15.6757813,4.894043,18.8842773
		C333.8466797,245.2670898,335.6938477,246,337.6699219,246c0.8505859,0,1.7255859-0.1357422,2.6098633-0.4106445
		c4.0522461-1.2597656,8.1791992-5.3139648,11.9370117-11.7250977c3.8759766-6.6142578,7.1005859-15.347168,9.3242188-25.2543945
		c0.2792969-1.2441406-0.5019531-2.4790039-1.7460938-2.7583008s-2.4785156,0.5029297-2.7578125,1.746582
		c-2.1210938,9.4482422-5.1660156,17.7236328-8.8046875,23.9316406c-3.0742188,5.2470703-6.4726563,8.7641602-9.3227539,9.6503906
		c-0.5981445,0.1855469-1.1445313,0.2460938-1.6533203,0.1791992c-0.1118164-0.0527344-0.2275391-0.0996094-0.3505859-0.1347656
		c-0.9335938-0.2666016-3.5273438-4.4350586-3.2089844-19.5722656c0.0244141-1.1538086,0.0654297-2.3305664,0.121582-3.5224609
		c2.2719727-3.390625,7.3720703-12.3662109,11.7304688-22.1538086c2.6542969-5.9624023,4.5722656-11.1928711,5.7001953-15.5458984
		c1.4736328-5.6938477,1.5830078-9.8168945,0.3310547-12.6049805c-1.0605469-2.3608398-3.0429688-3.7270508-5.7324219-3.9511719
		c-3.8447266-0.3208008-7.2797852,2.8955078-10.2167969,9.5576172c-3.4619141,7.8535156-6.2426758,20.4145508-7.5253906,33.659668
		c-0.0776367,0.1591797-0.1435547,0.3261719-0.184082,0.5068359c-2.1210938,9.4482422-5.1655273,17.7236328-8.8037109,23.9316406
		c-3.074707,5.2470703-6.4731445,8.7641602-9.3232422,9.6503906c-0.5981445,0.1855469-1.1445313,0.2460938-1.6533203,0.1791992
		c-0.1118164-0.0527344-0.2275391-0.0996094-0.3505859-0.1347656c-0.9335938-0.2666016-3.5273438-4.4350586-3.2089844-19.5722656
		c0.0244141-1.1538086,0.0654297-2.3305664,0.121582-3.5224609c2.2719727-3.390625,7.3720703-12.3662109,11.7304688-22.1538086
		c2.6547852-5.9624023,4.5727539-11.1928711,5.7001953-15.5458984c1.4741211-5.6938477,1.5825195-9.8168945,0.3305664-12.6049805
		c-1.0605469-2.3608398-3.0424805-3.7270508-5.7319336-3.9511719c-3.8447266-0.3208008-7.2797852,2.8955078-10.2167969,9.5576172
		c-2.3134766,5.2490234-4.3198242,12.6079102-5.7822266,20.8608398l-0.0883789,0.0541992
		c-2.2260742,1.6958008-6.9750977,4.1015625-13.2041016,6.6259766c0.1176758-3.4311523,0.175293-6.8413086,0.1455078-10.1586914
		c-0.1416016-15.6835938-2.2597656-25.5952148-6.4755859-30.3007813c-1.9116211-2.1337891-4.2451172-3.2509766-6.9345703-3.3212891
		l-0.2373047-0.0029297c-7.1411133,0-13.5673828,8.4526367-20.7988281,27.3334961
		c-2.7797852,7.2578125-5.559082,15.7114258-8.3696289,24.9462891c-0.3325195,0.9418945-0.6601563,1.8808594-0.9833984,2.8168945
		c-1.3500977,0.0981445-2.628418,0.1503906-3.8251953,0.1542969c-0.074707-1.152832-0.1928711-2.2158203-0.3544922-3.1855469
		c-0.753418-4.5224609-2.5258789-7.3461914-5.2680664-8.3935547c-3.6328125-1.387207-6.027832-0.6435547-7.3974609,0.2246094
		c-2.2617188,1.434082-3.0219727,3.9472656-3.1083984,5.0756836
		C223.5390625,210.0258789,225.1845703,213.0478516,228.5922852,214.9008789z M338.6728516,185.4785156
		c3.3212891-12.5410156,6.828125-16.5869141,8.3994141-16.2685547c0.1171875,0.1508789,0.2109375,0.3208008,0.2949219,0.5068359
		c0.7285156,1.6201172,1.5957031,7.2397461-6.0366211,24.3813477c-2.1772461,4.890625-4.5678711,9.6147461-6.6586914,13.4682617
		C335.5415039,199.8339844,336.9326172,192.0493164,338.6728516,185.4785156z M309.5576172,185.4785156
		c3.3212891-12.5410156,6.828125-16.5869141,8.3999023-16.2685547c0.1162109,0.1508789,0.2109375,0.3208008,0.2944336,0.5068359
		c0.7280273,1.6201172,1.5961914,7.2397461-6.0366211,24.3813477c-2.1772461,4.890625-4.5678711,9.6147461-6.6586914,13.4682617
		C306.4262695,199.8339844,307.8173828,192.0493164,309.5576172,185.4785156z M249.2260742,210.7148438
		c2.3022461-6.5068359,4.8125-13.1079102,7.4301758-19.3017578c3.8823242-9.1845703,7.5014648-16.2900391,10.7578125-21.1186523
		c4.5957031-6.8164063,7.0004883-6.9296875,7.6279297-6.8022461c2.1884766,0.4448242,3.4580078,3.7060547,4.1381836,6.3632813
		c1.0083008,3.9394531,1.5078125,9.5610352,1.4848633,16.7084961c-0.0170898,5.4082031-0.3320313,11.3305664-0.7905273,17.2636719
		c-4.1333008,1.4541016-8.6264648,2.875-13.2822266,4.1494141c-6.512207,1.7827148-12.4824219,3.0410156-17.675293,3.7578125
		C249.0200195,211.3950195,249.1230469,211.0527344,249.2260742,210.7148438z M239.7763672,221.9160156
		c0.1416016-1.7202148,0.2294922-3.3393555,0.2646484-4.8530273c0.6918945-0.0024414,1.40625-0.0195313,2.140625-0.0507813
		c-0.9785156,2.9321289-1.9042969,5.800293-2.7680664,8.5576172
		C239.5537109,224.3491211,239.6767578,223.1259766,239.7763672,221.9160156z M228.4350586,206.5454102
		c0.043457-0.2553711,0.3212891-1.1757813,1.0263672-1.5893555c0.8676758-0.5078125,2.2358398-0.1621094,3.230957,0.2182617
		c1.1625977,0.4438477,2.2412109,2.5561523,2.6103516,6.9868164c-1.8466797-0.2583008-3.362793-0.6958008-4.5048828-1.3168945
		C229.0209961,209.878418,228.2915039,208.5517578,228.4350586,206.5454102z"/>
	<path d="M369.3642578,288.5166016c1.2685547,4.5395508,4.6806641,7.1303711,9.3779297,7.1303711l0.171875-0.0009766
		c3.5751953-0.0478516,6.8330078-2.496582,9.6835938-7.2783203c2.2333984-3.7460938,4.3330078-9.1049805,6.2412109-15.9272461
		c2.1005859-7.5126953,3.7919922-16.1269531,5.1240234-24.4345703c7.3505859-4.4223633,13.0537109-9.1938477,17.4003906-14.515625
		c0.1845703,1.8979492,0.5380859,3.6489258,1.09375,5.1611328c1.578125,4.296875,4.546875,6.8071289,8.5859375,7.2597656
		C427.5703125,245.9707031,428.0908203,246,428.6054688,246c4.4521484,0,8.390625-2.2045898,11.4638672-6.4423828
		c0.2880859-0.3969727,0.5673828-0.8110352,0.8378906-1.2416992c2.2783203,1.3657227,4.8417969,2.0263672,7.5908203,1.9179688
		c4.6650391-0.1831055,8.8828125-2.7675781,12.3398438-7.503418c0.6582031,5.3320313,2.0087891,9.0068359,4.0839844,11.1147461
		C466.3183594,245.2636719,468.0546875,246,469.9824219,246c0.2568359,0,0.5175781-0.0131836,0.78125-0.0395508
		c2.9296875-0.2929688,5.4052734-2.065918,7.3583984-5.2700195c0.9550781-1.5664063,1.7861328-3.4619141,2.5107422-5.7368164
		c0.7744141,3.4760742,1.9072266,6.0458984,3.4111328,7.7587891c0.5878906,0.7822266,1.2744141,1.3574219,2.0664063,1.7358398
		c0.1015625,0.0488281,0.2060547,0.0869141,0.3105469,0.1191406c1.0771484,0.5322266,2.2617188,0.7734375,3.5136719,0.7021484
		c4.4316406-0.2558594,8.5126953-4.7197266,12.4775391-13.6474609c3.7880859-8.5283203,6.0957031-18.0708008,6.7119141-20.7924805
		c0.2822266-1.2431641-0.4970703-2.4794922-1.7412109-2.7612305c-1.2431641-0.2822266-2.4794922,0.4975586-2.7617188,1.7412109
		c-0.59375,2.6181641-2.8105469,11.7929688-6.4287109,19.9384766c-1.5361328,3.4599609-3.0830078,6.1723633-4.5976563,8.0620117
		c-1.4423828,1.7993164-2.7998047,2.784668-3.9257813,2.8496094c-0.7861328,0.046875-1.4042969-0.2124023-2.0097656-0.8354492
		c-0.671875-0.9838867-1.8544922-3.980957-1.7070313-12.8369141c0.1210938-7.2944336,1.0888672-15.4492188,1.6083984-19.8305664
		c0.3037109-2.5639648,0.3818359-3.2539063,0.3515625-3.7250977c-0.1289063-1.9897461-1.6357422-3.3730469-3.6679688-3.3730469
		h-0.0273438c-0.5078125,0.0029297-1.125,0.0991211-1.7167969,0.3085938
		c-0.9267578,0.0507813-1.7646484,0.6616211-2.0732422,1.5761719c-0.3496094,1.0327148-0.4804688,2.9106445-0.7441406,7.059082
		c-0.3535156,5.5512695-0.8867188,13.9399414-2.453125,20.8398438c-1.1484375,5.0561523-3.28125,11.159668-6.9248047,11.5239258
		l-0.0517578,0.0039063c-0.2929688-0.2045898-0.6376953-0.3452148-1.0166016-0.3950195
		c-0.0234375-0.0083008-2.3164063-1.222168-1.9824219-14.4848633c0.1259766-5.0200195,0.5966797-10.3662109,1.0449219-14.5981445
		c0.0615234-0.5019531,0.1308594-1.003418,0.1777344-1.5063477l-0.0009766-0.109375
		c0.2050781-1.8339844,0.3945313-3.3896484,0.5302734-4.5c0.1503906-1.230957,0.2177734-1.7880859,0.2373047-2.0917969
		c0.0830078-1.2324219-0.3925781-2.3164063-1.3046875-2.9731445c-1.6181641-1.1665039-3.8037109-0.4697266-4.6679688-0.1157227
		c-0.9189453,0.3759766-1.4667969,1.2792969-1.4365234,2.2177734c-0.4697266,4.0634766-1.4140625,12.3051758-1.4677734,20.4282227
		c-0.0019531,0.3095703,0.0019531,0.6040039,0.0019531,0.9067383c-0.5253906,1.2275391-1.0927734,2.3974609-1.7080078,3.4707031
		c-2.0332031,3.5444336-5.4775391,7.8100586-10.3427734,8.0009766c-1.9511719,0.0756836-3.7226563-0.3945313-5.3056641-1.4067383
		c1.1708984-2.8017578,2.0361328-5.984375,2.5263672-9.3549805c0.6835938-4.7060547,0.5693359-9.3100586-0.3212891-12.9633789
		c-0.1289063-0.53125-0.2724609-1.0249023-0.4257813-1.487793l-0.0527344-0.1870117
		c-0.0332031-0.1137695-0.0771484-0.2211914-0.125-0.3251953c-1.625-4.4130859-4.2734375-5.5605469-5.8261719-5.8378906
		c-0.1103516-0.0195313-0.2197266-0.0361328-0.3291016-0.0493164c0.3388672-1.2084961-0.3515625-2.4711914-1.5595703-2.8339844
		c-2.5517578-0.7661133-6.4726563-0.7460938-10.6621094,3.703125c-0.9492188,1.0083008-1.8496094,2.2075195-2.6982422,3.5336914
		c-0.6396484,0.355957-1.1015625,1.0063477-1.1796875,1.7895508c-0.0097656,0.0986328-0.0273438,0.1943359-0.0380859,0.2929688
		c-1.6416016,3.0488281-3.0029297,6.6328125-3.9199219,10.4873047c-0.3222656,1.3530273-0.5605469,2.6865234-0.7519531,4.0009766
		c-3.5820313,6.2626953-9.140625,11.8945313-16.7685547,16.9799805c0.7255859-5.0449219,1.3144531-9.8344727,1.7822266-14.0263672
		c0.8857422-7.9345703,1.3974609-14.3022461,1.6240234-17.3920898c0.1464844-2.0014648,0.2626953-3.8447266,0.328125-5.190918
		c0.0302734-0.6176758,0.0488281-1.1113281,0.0546875-1.4672852c0.0107422-0.6274414,0.0322266-1.7949219-1.1015625-2.5039063
		c-0.6328125-0.3955078-1.4248047-0.4643555-2.1181641-0.1845703c-1.2021484,0.4858398-1.4970703,1.5610352-1.90625,3.0493164
		c-0.2636719,0.9599609-0.5878906,2.2607422-0.9980469,3.9082031c-1.2558594,5.0395508-3.1533203,12.65625-5.59375,19.5341797
		c-3.6455078,10.2763672-6.5244141,13.1499023-7.9160156,13.9482422c-0.4072266,0.2329102-0.7392578,0.3227539-1.0146484,0.340332
		c-0.0986328-0.0239258-0.2011719-0.0419922-0.3056641-0.0527344c-0.2490234-0.0258789-0.5234375-0.1079102-0.8457031-0.5302734
		c-0.7226563-0.9462891-1.8476563-3.793457-1.2636719-12.2285156c0.4072266-5.8896484,1.4736328-12.378418,2.3310547-17.5922852
		c0.8466797-5.1503906,1.2470703-7.684082,1.0800781-8.9785156c-0.1425781-1.1015625-0.8154297-1.9711914-1.7988281-2.3266602
		c-0.5214844-0.1879883-2.1083984-0.7602539-5.1591797,2.0805664c-0.3740234,0.3481445-0.6220703,0.8105469-0.7050781,1.3149414
		c-0.5996094,3.6464844-2.0097656,13.1040039-2.1640625,22.1547852c-0.0878906,5.140625,0.2548828,9.3564453,1.0185547,12.5302734
		c1.0732422,4.4633789,3.0644531,7.1508789,5.9189453,7.9873047c1.7294922,0.5073242,3.5292969,0.2666016,5.2050781-0.6943359
		c3.1816406-1.8251953,6.1630859-6.4174805,9.0830078-14.0053711c-0.7675781,4.5756836-1.6787109,9.6469727-2.71875,14.8251953
		c-8.0742188,5.3818359-14.9033203,12.5288086-19.4482422,20.4169922
		c-3.1269531,5.4267578-4.9707031,10.8930664-5.3505859,15.5810547c-0.078125,0.2460938-0.1181641,0.5083008-0.1083984,0.7807617
		c0.0019531,0.0551758-0.0009766,0.2270508-0.0029297,0.3642578c-0.0175781,0.9365234-0.0478516,2.5766602,0.4169922,4.265625
		C369.2519531,288.0883789,369.3046875,288.3046875,369.3642578,288.5166016z M437.0292969,209.15625
		c0.3515625-0.4824219,0.6015625-0.5712891,0.7861328-0.5712891l0.1591797,0.0175781
		c0.9140625,0.1630859,1.7773438,1.3164063,2.3994141,3.1523438c1.1191406,4.0322266,0.9414063,9.7163086-0.4863281,15.2749023
		c-0.2519531,0.9824219-0.5380859,1.9379883-0.8505859,2.8598633c-0.1621094-0.2700195-0.3203125-0.5483398-0.4736328-0.8374023
		C434.6962891,221.8164063,434.9667969,211.9946289,437.0292969,209.15625z M428.1308594,214.5610352
		c1.4150391-2.8242188,2.8310547-4.8198242,4.0830078-6.137207c-0.9853516,2.3920898-1.4394531,5.6513672-1.2646484,9.3144531
		c0.2314453,4.8579102,1.4892578,9.6489258,3.5419922,13.4902344c0.7207031,1.3496094,1.5302734,2.5571289,2.4160156,3.6162109
		c-1.0966797,2.0366211-2.3359375,3.7006836-3.6289063,4.8232422c-0.7783203,0.675293-1.4902344,1.0751953-2.1230469,1.2973633
		c-0.1298828,0.0439453-0.2617188,0.0830078-0.3945313,0.1196289c-1.296875,0.3266602-2.2080078-0.0874023-2.6025391-0.2670898
		c-4.2255859-1.9267578-4.4951172-7.8476563-4.2792969-11.2060547
		C424.1806641,224.8984375,425.7705078,219.2719727,428.1308594,214.5610352z M378.2490234,269.1831055
		c3.4306641-5.9536133,8.2822266-11.4584961,14.0322266-15.9956055c-2.1845703,9.8989258-4.4394531,17.9228516-6.7109375,23.8730469
		c-3.9248047,10.28125-6.8349609,11.4770508-7.6337891,11.5986328c-1.6113281,0.2451172-2.7685547,0.0712891-3.4384766-0.515625
		c-0.4140625-0.3623047-0.6728516-0.9033203-0.8359375-1.4951172
		C372.7714844,282.3085938,374.4902344,275.7070313,378.2490234,269.1831055z"/>
	<path d="M330.4248047,330.6035156c-0.9111328,6.2841797-1.6992188,11.7119141-2.1425781,15.7265625
		c-0.2421875,2.1835938-0.3652344,3.8134766-0.3789063,4.9833984c-0.0136719,1.2060547-0.0361328,3.2246094,1.625,4.0546875
		c0.3232422,0.1621094,0.6767578,0.2441406,1.0322266,0.2441406c0.2460938,0,0.4921875-0.0400391,0.7304688-0.1191406
		l0.6464844-0.2158203c3.5048828-1.1679688,3.7763672-3.1816406,3.7763672-3.7714844
		c0-3.0996094,0.9853516-9.890625,2.1259766-17.7539063c1.625-11.2070313,3.6474609-25.1542969,4.2822266-37.6826172
		c0.3535156-6.9716797,0.2412109-12.6396484-0.34375-17.3271484c-0.7109375-5.7050781-2.1103516-9.7822266-4.2763672-12.4648438
		c-1.7939453-2.2226563-4.0771484-3.4433594-6.7841797-3.6289063c-10.8203125-0.7421875-17.1435547,9.4345703-20.9599609,17.1542969
		c-3.6269531,7.3339844-6.9189453,16.7568359-10.3476563,27.6064453c-1.4648438,4.0205078-2.7851563,7.9003906-3.9345703,11.3828125
		c0.0556641-0.4208984,0.1103516-0.8417969,0.1640625-1.2646484c1.3818359-10.8574219,2.0400391-20.0947266,1.9560547-27.4550781
		c-0.1113281-9.7197266-1.4931641-16.1494141-4.2255859-19.6572266c-1.5585938-2.0019531-3.6201172-3.1005859-5.9599609-3.1787109
		c-5.3925781-0.1787109-11.2705078,4.6972656-17.9746094,14.9101563c-5.1015625,7.7724609-10.4140625,17.875-13.9082031,30.8535156
		l-0.0019531-0.0087891c-0.097168,1.3916016,0.5703125,3.3046875,1.6660156,3.9023438
		c1.1191406,0.6103516,2.2958984-1.5644531,2.6621094-2.7958984l0.0161133-0.0625
		c0.355957-0.6269531,8.5585938-21.9399414,13.4262695-29.3544922
		c7.4296875-11.3193359,11.9335938-12.8994141,13.9599609-12.8291016c0.0976563,0.0029297,0.2041016,0.0107422,0.3164063,0.0253906
		c2.0585938,3.3193359,4.9033203,13.5068359,2.2548828,44.6904297c-0.9179688,10.8076172-2.2470703,21.1044922-3.1982422,27.8310547
		c-0.9023438,4.7099609-1.5361328,7.6464844-1.5517578,7.7158203c-0.2705078,1.2460938,0.5205078,2.4755859,1.765625,2.7460938
		c0.1660156,0.0361328,0.3300781,0.0527344,0.4921875,0.0527344l0.2099609-0.0097656
		c1.0429688,0.0859375,2.0371094-0.5458984,2.3779297-1.5693359c3.4160156-10.2470703,6.3623047-19.9482422,9.2128906-29.3291016
		c1.6044922-5.28125,3.140625-10.3408203,4.6484375-15.1132813c2.2148438-6.0751953,4.7539063-12.4492188,7.5019531-18.1787109
		c5.3291016-11.109375,10.4785156-17.8398438,15.3056641-20.0029297c2.1552734-0.9658203,4.2255859-0.9833984,6.3291016-0.0527344
		c0.1464844,0.0644531,1.4462891,0.7802734,2.0869141,5.9326172c0.453125,3.6533203,0.4736328,8.7792969,0.0605469,15.2373047
		C334.2939453,303.921875,332.1484375,318.7158203,330.4248047,330.6035156z"/>
	<path d="M357.5546875,309.78125c-2.7607422,4.2792969-4.9121094,10.3125-5.7539063,16.1386719
		c-0.9726563,6.7363281-0.1513672,12.6708984,2.3154297,16.7099609C355.9443359,345.6240234,359.5107422,349,366.2929688,349
		l0.2666016-0.0029297L366.6943359,349l0.1572266-0.0009766l0.2412109-0.015625
		c0.4560547-0.0175781,0.9228516-0.0478516,1.4052734-0.0957031c5.3076172-0.5244141,10.6474609-4.4775391,15.09375-11.137207
		c0.453125,1.8217773,1.1005859,3.4716797,1.9599609,4.8793945C387.3798828,345.6240234,390.9462891,349,397.7285156,349
		l0.2666016-0.0029297L398.1298828,349l0.1572266-0.0009766l0.2412109-0.015625
		c0.4560547-0.0175781,0.9228516-0.0478516,1.4052734-0.0957031c4.9609375-0.4902344,9.9492188-3.9760742,14.2099609-9.8657227
		c0.3759766,2.0004883,0.9794922,3.7348633,1.8066406,5.1772461c1.5976563,2.7851563,4.0146484,4.4335938,6.9912109,4.765625
		C423.1513672,348.9882813,423.3642578,349,423.578125,349c1.9677734,0,4.1035156-0.9892578,6.359375-2.9472656
		c3.1259766-2.7128906,6.3466797-7.1904297,8.8691406-12.3222656c0.59375,3.0800781,1.3652344,5.7490234,2.3046875,7.8808594
		c2.3994141,5.4482422,5.5742188,6.7402344,7.8144531,6.8652344c3.2294922,0.1777344,6.2832031-1.2587891,9.0712891-4.2734375
		c2.140625-2.3154297,4.1484375-5.6025391,5.9677734-9.7705078c3.171875-7.2636719,5.2275391-16.0292969,6.0244141-21.3291016
		c0.1894531-1.2607422-0.6787109-2.4365234-1.9394531-2.6259766c-1.2607422-0.1884766-2.4375,0.6787109-2.6269531,1.9404297
		c-0.7548828,5.0205078-2.6972656,13.3154297-5.6894531,20.1679688
		c-1.8730469,4.2900391-5.7080078,11.4267578-10.4316406,11.2841797c-0.21875-0.125-0.4609375-0.21875-0.7226563-0.2675781
		c-0.4375-0.0820313-1.4111328-1.0390625-2.2832031-4.1074219c-0.8466797-2.9775391-1.3945313-7.2890625-1.5859375-12.4677734
		c-0.1132813-3.0634766-0.1025391-6.3681641,0.0214844-9.7978516l0.1904297-0.2109375
		c4.8310547-5.6767578,10.1220703-14.7353516,13.8095703-23.6396484c2.4326172-5.8730469,6.1962891-16.6630859,4.0771484-22.9453125
		c-0.8730469-2.5888672-2.6455078-4.2441406-5.125-4.7861328l-0.1640625-0.0332031
		c-0.1855469-0.0869141-0.3828125-0.1523438-0.59375-0.1875c-0.7841797-0.1318359-1.5458984-0.0947266-2.2871094,0.109375
		c-2.0341797,0.3007813-4.3779297,1.4228516-6.6826172,4.2412109c-2.6289063,3.2138672-4.8720703,8.1943359-6.6689453,14.8027344
		c-1.5957031,5.8691406-2.7714844,12.8378906-3.4003906,20.1533203c-0.0400391,0.4726563-0.078125,0.9453125-0.1142578,1.4160156
		c-0.1767578-0.1884766-0.3535156-0.3691406-0.5322266-0.5410156c-3.2714844-3.1630859-6.3818359-3.3125-8.4150391-2.8818359
		c-5.8623047,1.2451172-9.6523438,8.4814453-11.390625,12.6845703c-1.9941406,4.8242188-3.2695313,10.2773438-3.6386719,15.3041992
		c-3.9326172,7.7553711-9.2021484,13.0717773-14.3154297,13.5776367c-0.4990234,0.0488281-0.9804688,0.0771484-1.4462891,0.0869141
		c-3.6777344-0.0488281-5.9677734-2.7255859-6.8017578-7.9628906c-0.2841797-1.7822266-0.3662109-3.7988281-0.2626953-5.9238281
		c12.5859375-11.6054688,13.9365234-18.6689453,12.734375-22.6142578c-0.7490234-2.4570313-2.7060547-4.1679688-5.1074219-4.4658203
		c-2.3222656-0.2880859-5.875,0.5830078-9.6064453,6.3681641c-2.7607422,4.2792969-4.9121094,10.3125-5.7539063,16.1386719
		c-0.1835938,1.2709961-0.2822266,2.5019531-0.3388672,3.7084961c-3.9824219,8.3432617-9.5029297,14.1357422-14.8525391,14.6645508
		c-0.4990234,0.0488281-0.9804688,0.0771484-1.4462891,0.0869141c-3.6777344-0.0488281-5.9677734-2.7255859-6.8017578-7.9628906
		c-0.2841797-1.7822266-0.3662109-3.7988281-0.2626953-5.9238281c12.5859375-11.6054688,13.9365234-18.6689453,12.734375-22.6142578
		c-0.7490234-2.4570313-2.7060547-4.1679688-5.1074219-4.4658203
		C364.8388672,303.125,361.2861328,303.9960938,357.5546875,309.78125z M447.2939453,292.9716797
		c1.3046875-7.3486328,2.9443359-13.4326172,4.7421875-17.5927734c1.5761719-3.6484375,2.9306641-4.9960938,3.6923828-5.3212891
		c0.4365234-0.015625,0.7675781,0.0566406,0.96875,0.1005859c0.6123047,0.1337891,1.2958984,0.4462891,1.7363281,1.7509766
		c1.1787109,3.4931641-0.3046875,10.8583984-3.9677734,19.703125c-2.5439453,6.1425781-5.8681641,12.3369141-9.2304688,17.3134766
		C445.6875,303.5546875,446.3828125,298.1044922,447.2939453,292.9716797z M429.7871094,310.1220703
		c1.6259766-1.2373047,2.7705078-0.9628906,3.5859375-0.5859375c1.5644531,0.7236328,2.9755859,2.4697266,4.0253906,4.4267578
		c-0.0683594,3.53125,0.0048828,6.9316406,0.2177734,10.1181641c-2.1367188,7.4814453-6.6484375,14.9638672-10.7050781,18.484375
		c-1.3613281,1.1816406-2.4257813,1.6884766-3.0878906,1.7939453c-0.0986328-0.0341797-0.2011719-0.0654297-0.3076172-0.0859375
		c-0.5400391-0.1083984-2.1845703-0.4355469-2.9667969-3.8242188
		C418.5302734,331.7021484,424.5390625,314.1152344,429.7871094,310.1220703z M399.2675781,309.1699219l0.0195313,0.0566406
		c0.2607422,0.8535156,0.3925781,2.8242188-1.6533203,6.4228516c-1.2695313,2.234375-3.1416016,4.6738281-5.5888672,7.2919922
		c0.3085938-1.3242188,0.6787109-2.6357422,1.1083984-3.9082031
		C394.796875,314.1572266,397.1230469,310.4433594,399.2675781,309.1699219z M361.7177734,319.0332031
		c1.6435547-4.8759766,3.9697266-8.5898438,6.1142578-9.8632813l0.0195313,0.0566406
		c0.2607422,0.8535156,0.3925781,2.8242188-1.6533203,6.4228516c-1.2695313,2.234375-3.1416016,4.6738281-5.5888672,7.2919922
		C360.9179688,321.6171875,361.2880859,320.3056641,361.7177734,319.0332031z"/>
	<path d="M368.4960938,368.1943359c0.2597656,0.03125,0.5175781,0.0458984,0.7685547,0.0458984
		c1.7373047,0,3.2314453-0.7373047,4.1748047-2.0869141c1.0917969-1.5585938,1.2412109-3.7583008,0.3710938-5.4702148
		c-0.7421875-1.4638672-2.1210938-2.3574219-3.6894531-2.3916016l-0.1640625,0.0019531
		c-3.3876953,0.1376953-4.9960938,2.5332031-5.0869141,4.8447266
		C364.78125,365.3974609,366.1132813,367.9082031,368.4960938,368.1943359z"/>
	<path d="M386.9882813,417.4619141c-0.8242188-0.0898438-1.5673828-0.1259766-2.2158203-0.1074219
		c-1.1162109,0.0332031-2.4882813,0.2207031-3.2070313,1.3828125c-0.5205078,0.8417969-0.4775391,1.9013672,0.1113281,2.7001953
		c0.625,0.8496094,1.6640625,1.2294922,3.3642578,1.2294922h0.0537109c0.9345703-0.0048828,2.0107422-0.1289063,3.1611328-0.3632813
		c3.6738281,0.4208984,10.6357422-2.8583984,16.4033203-7.7617188c5.6494141-4.8027344,12.8613281-13.2783203,15.140625-26.3847656
		c0.21875-1.2558594-0.6220703-2.4511719-1.8789063-2.6699219c-1.2568359-0.2177734-2.4511719,0.6220703-2.6699219,1.8789063
		c-2.0429688,11.7460938-8.5136719,19.3486328-13.5830078,23.6582031c-1.1171875,0.9501953-2.2177734,1.7841797-3.2753906,2.5097656
		c0.9589844-4.6484375-0.7480469-10.1738281-2.4091797-15.5498047c-2.5888672-8.3798828-3.4140625-12.4677734,0.1992188-13.734375
		c2.3427734-0.8222656,2.7597656-2.453125,2.8300781-3.1152344c0.1376953-1.2871094-0.5253906-2.5439453-1.7294922-3.28125
		c-1.4990234-0.9179688-3.4902344-0.8447266-5.0722656,0.1875l-0.0576172,0.0419922
		c-0.1806641,0.0595703-0.3564453,0.1386719-0.5234375,0.2460938c-2.7470703,1.7548828-4.1201172,4.9208984-4.1347656,9.3974609
		c-5.8867188,26.4482422-15.9267578,30.6152344-17.7060547,30.3154297
		c-0.3046875-0.0507813-0.7109375-0.1933594-1.1542969-0.8447266c-0.9208984-1.3525391-2.2783203-5.3203125-1.0224609-16.7001953
		c0.8134766-7.3603516,2.3857422-14.8183594,3.1416016-18.4033203c0.1357422-0.6435547,0.2451172-1.1650391,0.3203125-1.5419922
		c0.2158203-1.0791016-0.3583984-2.1591797-1.3740234-2.5830078c-0.6425781-0.2685547-2.8798828-1.0673828-4.7070313-0.0966797
		c-0.9599609,0.5107422-1.6113281,1.4072266-1.8349609,2.5224609c-0.0146484,0.0771484-1.5449219,7.8896484-2.1806641,16.9765625
		c-0.7626953,10.8896484,0.1113281,18.0449219,2.6689453,21.8730469c1.1669922,1.7441406,2.6806641,2.8105469,4.5019531,3.1689453
		l0.2041016,0.0302734c0.21875,0.0634766,0.4404297,0.1132813,0.6669922,0.1513672
		c0.2802734,0.0478516,0.5820313,0.0722656,0.9013672,0.0722656c2.6894531,0,6.6757813-1.765625,10.7509766-6.8193359
		c3.4013672-4.21875,6.2832031-9.9521484,8.6210938-17.1044922c0.4609375,1.7011719,0.9433594,3.3076172,1.3671875,4.7099609
		c0.5439453,1.8017578,1.0136719,3.3574219,1.1923828,4.3027344c0.6650391,3.5273438,0.1357422,6.1865234-1.5732422,7.90625
		C389.2626953,416.6855469,387.9990234,417.2128906,386.9882813,417.4619141z"/>
	<path d="M237,386c6.0986328-14.6943359,12.9541016-36.9404297,12-64c-0.7099609-20.1391602-5.9130859-47.6982422-13-48
		c-7.418457-0.3154297-14.5239258,29.3359375-18,46c-9.5859375-11.8935547-29.9541016-35.8837891-37-32
		c-6.5483398,3.6098633-0.0756836,30.4628906,10,50C203.8847656,362.9838867,223.6230469,377.8691406,237,386z"/>
	<path d="M448.7285156,384.8007813c-13.7666016-17.8056641-19.2558594-20.7148438-21.5996094-19.5380859
		c-4.6708984,2.3457031-1.328125,23.1582031,8.9619141,38.7841797c5.9970703,9.1054688,13.3232422,14.8837891,18.5761719,18.3173828
		C458.0302734,417.1376953,462.3125,409.2490234,465,399c4.9472656-18.8671875,3.1015625-40.4296875-1.5615234-41.2631836
		C461.0869141,357.3164063,456.8779297,361.9663086,448.7285156,384.8007813z"/>
	<path d="M518.78125,334.2919922c-8.1357422-3.1293945-30.7861328,26.1992188-39.3554688,58.3789063
		c-3.5283203,13.2519531-4.0996094,24.8447266-3.9394531,33.0078125
		c10.5722656-1.5908203,26.0595703-5.3232422,41.9726563-15.0761719c26.25-16.0908203,46.0878906-43.9306641,41.2929688-49.9985352
		c-2.2148438-2.8046875-10.765625-2.3203125-38.5927734,12.1469727
		C524.7470703,343.5488281,522.2617188,335.6303711,518.78125,334.2919922z"/>
	<path d="M500.3339844,283.9785156c-1.7138672-5.6625977-8.5449219-27.4179688-14.4453125-26.7641602
		c-5.0058594,0.5546875-7.3623047,17.019043-7.6894531,26.9418945
		c-0.6494141,19.6640625,5.9472656,35.6450195,11.4355469,45.7626953
		c18.5126953-14.4316406,27.2578125-29.4091797,31.6259766-39.1508789
		c3.2695313-7.2929688,9.171875-22.9946289,5.1699219-25.6567383
		C525.0556641,264.1967773,520.2851563,263.3398438,500.3339844,283.9785156z"/>
</g>
</svg>
