<?xml version="1.0" encoding="utf-8"?>
<!-- Generator: Adobe Illustrator 22.0.1, SVG Export Plug-In . SVG Version: 6.00 Build 0)  -->
<svg version="1.1" id="Шар_1" xmlns="http://www.w3.org/2000/svg" xmlns:xlink="http://www.w3.org/1999/xlink" x="0px" y="0px"
	 viewBox="0 0 714 714" style="enable-background:new 0 0 714 714;" xml:space="preserve">
<style type="text/css">
	.st0{fill:#FFFFFF;}
	.st1{fill:#A22E39;}
	.st2{fill:#F9CEA7;}
	.st3{fill:#EA7878;}
	.st4{fill:#FCA7A7;}
</style>
<g>
	<path class="st0" d="M366.8515625,298.2265625l-0.0195313-0.0566406c-2.1445313,1.2734375-4.4707031,4.9873047-6.1142578,9.8632813
		c-0.4296875,1.2724609-0.7998047,2.5839844-1.1083984,3.9082031c2.4472656-2.6181641,4.3193359-5.0576172,5.5888672-7.2919922
		C367.2441406,301.0507813,367.1123047,299.0800781,366.8515625,298.2265625z"/>
	<path class="st0" d="M346.3671875,158.7167969c-0.0834961-0.1860352-0.1782227-0.355957-0.2944336-0.5068359
		c-1.5717773-0.3183594-5.0786133,3.7275391-8.3999023,16.2685547c-1.7402344,6.5708008-3.1313477,14.3554688-4.0009766,22.0878906
		c2.0908203-3.8535156,4.4814453-8.5776367,6.6586914-13.4682617
		C347.9633789,165.956543,347.0952148,160.3369141,346.3671875,158.7167969z"/>
	<path class="st0" d="M238.7763672,210.9160156c-0.0996094,1.2099609-0.2226563,2.4331055-0.362793,3.6538086
		c0.8637695-2.7573242,1.7895508-5.6254883,2.7680664-8.5576172c-0.734375,0.03125-1.4487305,0.0483398-2.140625,0.0507813
		C239.0058594,207.5766602,238.9179688,209.1958008,238.7763672,210.9160156z"/>
	<path class="st0" d="M398.2871094,298.2265625l-0.0195313-0.0566406c-2.1445313,1.2734375-4.4707031,4.9873047-6.1142578,9.8632813
		c-0.4296875,1.2724609-0.7998047,2.5839844-1.1083984,3.9082031c2.4472656-2.6181641,4.3193359-5.0576172,5.5888672-7.2919922
		C398.6796875,301.0507813,398.5478516,299.0800781,398.2871094,298.2265625z"/>
	<path class="st0" d="M317.2519531,158.7167969c-0.0834961-0.1860352-0.1782227-0.355957-0.2944336-0.5068359
		c-1.5717773-0.3183594-5.0786133,3.7275391-8.3999023,16.2685547c-1.7402344,6.5708008-3.1313477,14.3554688-4.0009766,22.0878906
		c2.0908203-3.8535156,4.4814453-8.5776367,6.6586914-13.4682617
		C318.8481445,165.956543,317.9799805,160.3369141,317.2519531,158.7167969z"/>
	<path class="st0" d="M231.6923828,194.1743164c-0.9951172-0.3803711-2.3632813-0.7260742-3.230957-0.2182617
		c-0.7050781,0.4135742-0.9829102,1.3339844-1.0263672,1.5893555c-0.1435547,2.0063477,0.5859375,3.3330078,2.362793,4.2988281
		c1.1420898,0.6210938,2.6582031,1.0585938,4.5048828,1.3168945
		C233.9335938,196.7304688,232.8549805,194.6181641,231.6923828,194.1743164z"/>
	<path class="st0" d="M438.0371094,218.8896484c0.3125-0.921875,0.5986328-1.8774414,0.8505859-2.8598633
		c1.4277344-5.5585938,1.6054688-11.2426758,0.4863281-15.2749023c-0.6220703-1.8359375-1.4853516-2.9892578-2.3994141-3.1523438
		l-0.1591797-0.0175781c-0.1845703,0-0.4345703,0.0888672-0.7861328,0.5712891
		c-2.0625,2.8383789-2.3330078,12.6601563,1.5341797,19.8959961
		C437.7167969,218.3413086,437.875,218.6196289,438.0371094,218.8896484z"/>
	<path class="st0" d="M427.1582031,229.8178711c0.3945313,0.1796875,1.3056641,0.59375,2.6025391,0.2670898
		c0.1328125-0.0366211,0.2646484-0.0756836,0.3945313-0.1196289c0.6328125-0.222168,1.3447266-0.6220703,2.1230469-1.2973633
		c1.2929688-1.1225586,2.5322266-2.7866211,3.6289063-4.8232422c-0.8857422-1.059082-1.6953125-2.2666016-2.4160156-3.6162109
		c-2.0527344-3.8413086-3.3105469-8.6323242-3.5419922-13.4902344c-0.1748047-3.6630859,0.2792969-6.9223633,1.2646484-9.3144531
		c-1.2519531,1.3173828-2.6679688,3.3129883-4.0830078,6.137207c-2.3603516,4.7109375-3.9501953,10.3374023-4.2519531,15.0507813
		C422.6630859,221.9702148,422.9326172,227.8911133,427.1582031,229.8178711z"/>
	<path class="st0" d="M373.4980469,277.1435547c0.6699219,0.5869141,1.8271484,0.7607422,3.4384766,0.515625
		c0.7988281-0.121582,3.7089844-1.3173828,7.6337891-11.5986328c2.2714844-5.9501953,4.5263672-13.9741211,6.7109375-23.8730469
		c-5.75,4.5371094-10.6015625,10.0419922-14.0322266,15.9956055c-3.7587891,6.5239258-5.4775391,13.1254883-4.5869141,17.465332
		C372.8251953,276.2402344,373.0839844,276.78125,373.4980469,277.1435547z"/>
	<path class="st0" d="M457.4335938,260.9091797c-0.4404297-1.3046875-1.1240234-1.6171875-1.7363281-1.7509766
		c-0.2011719-0.0439453-0.5322266-0.1162109-0.96875-0.1005859c-0.7617188,0.3251953-2.1162109,1.6728516-3.6923828,5.3212891
		c-1.7978516,4.1601563-3.4375,10.2441406-4.7421875,17.5927734c-0.9111328,5.1328125-1.6064453,10.5830078-2.0585938,15.9541016
		c3.3623047-4.9765625,6.6865234-11.1708984,9.2304688-17.3134766
		C457.1289063,271.7675781,458.6123047,264.4023438,457.4335938,260.9091797z"/>
	<path class="st0" d="M422.515625,333.2734375c0.1064453,0.0205078,0.2089844,0.0517578,0.3076172,0.0859375
		c0.6621094-0.1054688,1.7265625-0.6123047,3.0878906-1.7939453c4.0566406-3.5205078,8.5683594-11.0029297,10.7050781-18.484375
		c-0.2128906-3.1865234-0.2861328-6.5869141-0.2177734-10.1181641c-1.0498047-1.9570313-2.4609375-3.703125-4.0253906-4.4267578
		c-0.8154297-0.3769531-1.9599609-0.6513672-3.5859375,0.5859375c-5.2480469,3.9931641-11.2568359,21.5800781-9.2382813,30.3271484
		C420.3310547,332.8378906,421.9755859,333.1650391,422.515625,333.2734375z"/>
	<path class="st0" d="M274.0419922,152.4921875c-0.6274414-0.1274414-3.0322266-0.0141602-7.6279297,6.8022461
		c-3.2563477,4.8286133-6.8754883,11.934082-10.7578125,21.1186523c-2.6176758,6.1938477-5.1279297,12.7949219-7.4301758,19.3017578
		c-0.1030273,0.3378906-0.2060547,0.6801758-0.309082,1.0200195c5.1928711-0.7167969,11.1630859-1.9750977,17.675293-3.7578125
		c4.6557617-1.2744141,9.1489258-2.6953125,13.2822266-4.1494141c0.4584961-5.9331055,0.7734375-11.8554688,0.7905273-17.2636719
		c0.0229492-7.1474609-0.4765625-12.769043-1.4848633-16.7084961
		C277.5,156.1982422,276.2304688,152.9370117,274.0419922,152.4921875z"/>
	<path class="st0" d="M568.5,465.5c-1.0839844-5.9501953-4.8681641-9.7773438-7-12
		c-16.3466797-17.0449219-12.5283203-20.1083984-23-28c-4.8193359-3.6318359-16.1416016-10.9072266-35-12
		c13.2148438-5.1601563,31.2099609-14.0615234,47-29c5.5175781-5.2207031,13.7539063-14.0039063,17-27
		c1.1035156-4.4179688,2.1435547-8.8198242,0-12c-4.1552734-6.1660156-18.6992188-5.3999023-37,2
		c0.5185547-4.0273438,0.8632813-10.4775391-1-18c-1.5419922-6.2246094-3.0029297-12.1201172-7-14
		c-8.3486328-3.9267578-23.0800781,11.8691406-26,15c-6.8115234,7.3041992-17.7949219,21.7924805-22.7744141,46.7861328
		C474.890625,366.8378906,473.0283203,359.0507813,471.5,354.5c-1.6162109-4.8105469-3.7607422-11.1953125-8-12
		c-4.8828125-0.9267578-11.3945313,5.7675781-16,17c-2.1005859-2.065918-5.4335938-5.0541992-10-8
		c-6.0878906-3.9267578-9.6855469-6.2480469-13-5c-4.5986328,1.7314453-5.6162109,9.1914063-6,12
		c-0.6455078,4.7275391,0.2529297,8.6523438,1,11c-1.1162109-0.0371094-3.0283203,0.0400391-5,1
		c-3.4111328,1.6611328-4.1494141,4.578125-9,11c-2.3574219,3.1210938-4.0839844,5.375-5,5
		c-1.3681641-0.5595703-0.0800781-6.6289063,0-7c1.5302734-7.0488281,4.7597656-8.6220703,4-12
		c-0.8984375-3.9941406-6.3095703-5.7734375-7-6c-5.7792969-1.8994141-11.578125,1.1806641-13,2
		c-2.9658203,1.7089844-4.0361328,3.4667969-5,3c-1.5126953-0.7324219,0.2519531-5.4755859,0-11
		c-0.2373047-5.2089844-2.2109375-9.8867188-5-14c2.1630859,1.1826172,4.8378906,2.3139648,8,3
		c11.8535156,2.5712891,21.8037109-3.0166016,25-5c1.59375,1.1713867,3.5869141,2.2910156,6,3
		c10.2314453,3.0073242,19.5048828-3.8574219,21-5c4.0820313,4.4960938,7.9101563,5.640625,10,6
		c11.4853516,1.9770508,22.5976563-10.7705078,27-21c2.7412109-6.3691406,3.09375-12.2558594,3-16
		c1.5839844,4.1669922,3.8154297,8.9726563,7,14c1.6552734,2.6123047,3.3496094,4.9414063,5,7
		c4.4169922-2.578125,10.9472656-6.7822266,18-13c7.1679688-6.3183594,21.4511719-19.2167969,28-40
		c1.7441406-5.5336914,7.125-22.612793,1-27c-5.1845703-3.7128906-17.5654297,2.4150391-31,15
		c-0.5371094-3.0009766-2.2011719-9.8818359-8-16c-3.6035156-3.8017578-7.4541016-5.8857422-10-7
		c3.2373047,0.6987305,7.7402344,1.059082,12-1c1.8144531-0.8769531,5.109375-2.9296875,13-23
		c3.9638672-10.0820313,4.7490234-13.6767578,4-18c-0.6035156-3.4814453-2.5537109-9.4677734-6-10
		c-4.4042969-0.6806641-7.9716797,8.0522461-11,7c-2.5605469-0.8896484-0.6113281-7.3408203-5-11
		c-1.7910156-1.4931641-4.4863281-2.3959961-7-2c-5.4873047,0.8642578-6.7724609,7.3916016-10,7
		c-3.1982422-0.3886719-2.9785156-6.9257813-7-8c-3.3105469-0.8842773-7.1855469,2.5522461-9,5
		c-1.0390625,1.4023438-1.7109375,2.8955078-3,9c-1.9296875,9.1347656-1.921875,12.8701172-3,13
		c-1.0146484,0.1220703-1.7431641-3.0966797-5-10c-4.0791016-8.6464844-6.1171875-10.3383789-7-11
		c-1.0625-0.7958984-4.5673828-3.1835938-9-3c-10.6142578,0.4394531-16.3291016,15.2006836-17,17
		c-1.6806641,4.5097656-1.9814453,8.5126953-2,11c-1.6669922,1-3.3330078,2-5,3c0.8271484-7.7529297,1.0117188-14.2314453,1-19
		c-0.0195313-8.2138672-0.6210938-11.5751953-3-13c-2.5458984-1.5244141-5.8525391-0.0673828-6,0
		c-2.453125,1.1220703-3.6669922,3.3955078-7,13c-1.2460938,3.5898438-2.2529297,6.6621094-3,9
		c-0.2158203-3.9072266-0.5283203-8.6020508-1-14c-0.1904297-2.1855469-0.4267578-4.5649414-2-7
		c-0.625-0.9672852-2.4355469-3.7695313-5-4c-3.7421875-0.3364258-6.8427734,5.0063477-8,7
		c-0.8144531,1.402832-2.8867188,5.2719727-4,17c-0.6367188,6.7055664-0.2539063,8.5439453-1,17
		c-0.3398438,3.8564453-0.7304688,6.9926758-1,9c-0.8212891,0.4995117-2.8027344,1.5498047-5.5,1.5
		c-3.4902344-0.0644531-5.8310547-1.9267578-6.5-2.5c2.0078125-6.5234375,3.8027344-11.6757813,5-15
		c3.5175781-9.7661133,5.9638672-15.0981445,4-21c-1.1142578-3.3476563-2.6542969-3.8935547-3-4
		c-2.9287109-0.8984375-6.5288086,3.2890625-8,5c-4.0375977,4.6962891-6.0141602,10.2636719-8,16
		c-1.5922852,4.5991211-2.0751953,7.0087891-3,7c-1.2832031-0.0117188-2.3022461-4.6708984-3-9
		c4.4926758-7.1005859,7.75-13.3334961,10-18c7.2792969-15.0957031,7.8642578-21.7714844,8-24
		c0.3613281-5.9174805,0.8193359-13.4091797-4-17c-5.2109375-3.8828125-13.5449219-0.9350586-18,2
		c-4.6918945,3.0913086-7.0263672,7.4462891-8.159668,10.3901367C328.6293945,155.4902344,327.0761719,150.2348633,323.5,147.5
		c-5.6142578-4.293457-13.4624023-0.284668-14,0c-6.5019531,3.4443359-8.6962891,11.0322266-11,19
		c-1.1943359,4.1298828-1.7324219,7.6445313-2,10c-1.3334961,0.6669922-2.6665039,1.3330078-4,2
		c0.0751953-9.4765625-1.5297852-16.9667969-3-22c-2.3720703-8.1191406-4.0703125-13.9326172-9-16
		c-5.9189453-2.4824219-12.840332,1.9682617-16,4c-8.9023438,5.7246094-12.7592773,14.2724609-17,24
		c-2.2685547,5.203125-5.1508789,12.9882813-7,23c-0.1845703-0.40625-2.9277344-6.1904297-9-7
		c-5.4301758-0.7241211-10.027832,2.9960938-12,7c-2.6191406,5.3173828-0.2666016,10.4438477,0,11
		c2.6831055,5.5966797,8.3491211,6.8662109,9,7c-0.2480469,8.5976563-1.652832,15.2773438-3,20
		c-1.4052734,4.9277344-3.1533203,9.1503906-1,12c1.3964844,1.8476563,3.8549805,2.3535156,7,3
		c2.9106445,0.5986328,6.0458984,1.2431641,9,0c6.2080078-2.6123047,6.972168-11.6069336,7-12
		c2.0761719,0.4492188,4.4208984,0.8183594,7,1c5.5449219,0.390625,10.3295898-0.2128906,14-1
		c-1.6430664,4.8886719-1.5546875,9.7978516,1,12c1.6367188,1.4111328,4.4248047,1.6074219,10,2
		c1.5927734,0.1123047,2.4013672,0.1650391,3,0c4.6259766-1.2739258,5.7617188-9.8964844,6-12
		c1.5498047,1.6147461,5.9628906,5.7773438,13,7c10.1806641,1.7695313,17.7602539-4.0205078,19-5
		c1.4707031,1.4990234,4.1113281,3.7475586,8,5c8.6635742,2.7900391,16.2285156-1.7148438,17.5-2.5
		c-0.7480469,0.8242188-2.3984375,2.8632813-3,6c-0.5800781,3.0244141,0.1254883,5.4501953,0.5,6.5
		c-1.6899414-1.2441406-4.3793945-2.9199219-8-4c-7.0644531-2.1074219-13-0.5517578-15,0
		c-12.4882813,3.4472656-18.1293945,15.1240234-19,17c-0.1337891-0.9624023-1.7158203-11.3457031-9-14
		c-5.6635742-2.0634766-11.3745117,1.7841797-16,5c-13.8178711,9.6064453-20.6137695,24.3696289-24,35
		c-3.0805664-13.4887695-7.5751953-22.9814453-11-29c-1.8642578-3.2753906-3.5209961-5.7148438-6-6
		c-5.6503906-0.6503906-11.1894531,10.3945313-14,16c-2.4125977,4.8110352-5.4345703,12.1757813-7,22
		c-4.8564453-6.1611328-12.2666016-13.6201172-23-19c-6.3178711-3.1669922-14.4477539-7.2412109-19-4
		c-5.0751953,3.6142578-2.9296875,14.3476563-1,24c4.300293,21.5131836,13.9990234,37.4208984,20,46
		c3.8828125,5.5507813,9.7231445,13.0439453,18,21c-2.015625,0.3095703-4.809082,0.8769531-8,2
		c-16.3710938,5.7587891-24.3652344,19.484375-25.5,21.5c-7.8759766,13.9912109-5.6699219,27.8359375-4.5,35.5
		c3.6542969,23.9423828,19.2070313,38.9375,25,44c-4.8754883,2.2753906-16.1113281,8.3769531-22,21
		c-9.6005859,20.5800781,2.7958984,41.8027344,7,49c4.1210938,7.0546875,12.3330078,21.1132813,30,27
		c20.1425781,6.7109375,37.6083984-2.1875,41-4c4.519043,4.9228516,18.1162109,18.4306641,40,22
		c8.1186523,1.3242188,31.0756836,5.0683594,48-11c17.921875-17.015625,14.4150391-42.3261719,14-45
		c3.5380859,1.5244141,9.1328125,3.3183594,16,3c16.9306641-0.7841797,27.2519531-13.734375,29-16
		c1.2675781,2.0966797,8.2265625,13.140625,22,16c13.9111328,2.8876953,24.6787109-4.6689453,28-7
		c7.2753906-5.1054688,11.1591797-11.4375,13-15c2.3457031,4.7207031,9.2285156,16.9287109,23,22
		c15.6796875,5.7744141,30.0527344-1.4726563,43-8c0,0,26.6455078-13.4335938,38-40
		C568.5195313,473.7734375,569.2519531,469.6289063,568.5,465.5z M478.4257813,381.6708984
		c8.5693359-32.1796875,31.2197266-61.5083008,39.3554688-58.3789063c3.4804688,1.3383789,5.9658203,9.2568359,1.3779297,38.4589844
		c27.8271484-14.4672852,36.3779297-14.9516602,38.5927734-12.1469727
		c4.7949219,6.0683594-15.0429688,33.9077148-41.2929688,49.9985352
		c-15.9130859,9.7529297-31.4003906,13.4853516-41.9726563,15.0761719
		C474.3261719,406.515625,474.8974609,394.9228516,478.4257813,381.6708984z M426.1289063,354.2631836
		c2.34375-1.1772461,7.8330078,1.7319336,21.5996094,19.5375977c8.1494141-22.8344727,12.3583984-27.484375,14.7099609-27.0639648
		C467.1015625,347.5703125,468.9472656,369.1328125,464,388c-2.6875,10.2490234-6.9697266,18.1376953-10.3330078,23.3642578
		c-5.2529297-3.4335938-12.5791016-9.2119141-18.5761719-18.3173828
		C424.8007813,377.4208984,421.4580078,356.6079102,426.1289063,354.2631836z M386.4951172,376.7265625
		c0.0146484-4.4765625,1.3876953-7.6435547,4.1347656-9.3984375c0.1669922-0.1074219,0.3427734-0.1855469,0.5234375-0.2460938
		l0.0576172-0.0410156c1.5820313-1.0332031,3.5732422-1.1054688,5.0722656-0.1875
		c1.2041016,0.7363281,1.8671875,1.9941406,1.7294922,3.28125c-0.0703125,0.6621094-0.4873047,2.2929688-2.8300781,3.1152344
		c-3.6132813,1.265625-2.7880859,5.3544922-0.1992188,13.734375c1.6611328,5.3759766,3.3681641,10.9013672,2.4091797,15.5498047
		c1.0576172-0.7255859,2.1582031-1.5595703,3.2753906-2.5097656c5.0693359-4.3095703,11.5400391-11.9121094,13.5830078-23.6582031
		c0.21875-1.2568359,1.4130859-2.0966797,2.6699219-1.8798828c1.2568359,0.21875,2.0976563,1.4140625,1.8789063,2.6708984
		c-2.2792969,13.1064453-9.4912109,21.5820313-15.140625,26.3847656
		c-5.7675781,4.9033203-12.7294922,8.1826172-16.4033203,7.7617188c-1.1503906,0.234375-2.2265625,0.3583984-3.1611328,0.3632813
		h-0.0537109c-1.7001953,0-2.7392578-0.3798828-3.3642578-1.2294922c-0.5888672-0.7988281-0.6318359-1.8583984-0.1113281-2.7001953
		c0.71875-1.1621094,2.0908203-1.3496094,3.2070313-1.3828125c0.6484375-0.0185547,1.3916016,0.0175781,2.2158203,0.1074219
		c1.0107422-0.2490234,2.2744141-0.7763672,3.2910156-1.7998047c1.7089844-1.7197266,2.2382813-4.3789063,1.5732422-7.90625
		c-0.1787109-0.9453125-0.6484375-2.5009766-1.1923828-4.3027344c-0.4238281-1.4023438-0.90625-3.0087891-1.3671875-4.7099609
		c-2.3378906,7.1523438-5.2197266,12.8857422-8.6210938,17.1044922c-4.0751953,5.0537109-8.0615234,6.8193359-10.7509766,6.8193359
		c-0.3193359,0-0.6210938-0.0244141-0.9013672-0.0722656c-0.2265625-0.0380859-0.4482422-0.0878906-0.6669922-0.1513672
		l-0.2041016-0.0302734c-1.8212891-0.3583984-3.3349609-1.4248047-4.5019531-3.1689453
		c-2.5576172-3.828125-3.4316406-10.9833984-2.6689453-21.8730469c0.6357422-9.0869141,2.1660156-16.9003906,2.1806641-16.9765625
		c0.2236328-1.1152344,0.875-2.0117188,1.8349609-2.5234375c1.8271484-0.9707031,4.0644531-0.171875,4.7070313,0.0976563
		c1.015625,0.4238281,1.5898438,1.5039063,1.3740234,2.5820313c-0.0751953,0.3769531-0.1845703,0.8984375-0.3203125,1.5429688
		c-0.7558594,3.5839844-2.328125,11.0429688-3.1416016,18.4033203c-1.2558594,11.3798828,0.1015625,15.3476563,1.0224609,16.7001953
		c0.4433594,0.6513672,0.8496094,0.7939453,1.1542969,0.8447266
		C370.5683594,407.3417969,380.6083984,403.1748047,386.4951172,376.7265625z M363.8701172,352.1381836
		c0.0908203-2.3115234,1.6992188-4.7070313,5.0869141-4.8447266l0.1640625-0.0019531
		c1.5683594,0.0341797,2.9472656,0.9277344,3.6894531,2.3916016c0.8701172,1.7119141,0.7207031,3.9111328-0.3710938,5.4697266
		c-0.9433594,1.3496094-2.4375,2.0869141-4.1748047,2.0869141c-0.2509766,0-0.5087891-0.0146484-0.7685547-0.0458984
		C365.1132813,356.9077148,363.78125,354.3969727,363.8701172,352.1381836z M484.8886719,246.2143555
		c5.9003906-0.6538086,12.7314453,21.1015625,14.4453125,26.7641602
		c19.9511719-20.6386719,24.7216797-19.7817383,26.0966797-18.8671875
		c4.0019531,2.6621094-1.9003906,18.3637695-5.1699219,25.6567383
		c-4.3681641,9.7416992-13.1132813,24.7192383-31.6259766,39.1508789
		c-5.4882813-10.1176758-12.0849609-26.0986328-11.4355469-45.7626953
		C477.5263672,263.2333984,479.8828125,246.769043,484.8886719,246.2143555z M367.7861328,272.6040039
		c0.0019531-0.137207,0.0048828-0.309082,0.0029297-0.3642578c-0.0097656-0.2724609,0.0302734-0.534668,0.1083984-0.7807617
		c0.3798828-4.6879883,2.2236328-10.1542969,5.3505859-15.5810547c4.5449219-7.8881836,11.3740234-15.0351563,19.4482422-20.4169922
		c1.0400391-5.1782227,1.9511719-10.2495117,2.71875-14.8251953c-2.9199219,7.5878906-5.9013672,12.1801758-9.0830078,14.0053711
		c-1.6757813,0.9609375-3.4755859,1.2016602-5.2050781,0.6943359c-2.8544922-0.8364258-4.8457031-3.5239258-5.9189453-7.9873047
		c-0.7636719-3.1738281-1.1064453-7.3896484-1.0185547-12.5302734c0.1542969-9.0507813,1.5644531-18.5083008,2.1640625-22.1547852
		c0.0830078-0.5043945,0.3310547-0.9667969,0.7050781-1.3149414c3.0507813-2.8408203,4.6376953-2.2685547,5.1591797-2.0805664
		c0.9833984,0.3554688,1.65625,1.2250977,1.7988281,2.3266602c0.1669922,1.2944336-0.2333984,3.828125-1.0800781,8.9785156
		c-0.8574219,5.2138672-1.9238281,11.7026367-2.3310547,17.5922852c-0.5839844,8.4350586,0.5410156,11.2822266,1.2636719,12.2285156
		c0.3222656,0.4223633,0.5966797,0.5043945,0.8457031,0.5302734c0.1044922,0.0107422,0.2070313,0.0288086,0.3056641,0.0527344
		c0.2753906-0.0175781,0.6074219-0.1074219,1.0146484-0.340332c1.3916016-0.7983398,4.2705078-3.671875,7.9160156-13.9482422
		c2.4404297-6.8779297,4.3378906-14.4946289,5.59375-19.5341797c0.4101563-1.6474609,0.734375-2.9482422,0.9980469-3.9082031
		c0.4091797-1.4882813,0.7041016-2.5634766,1.90625-3.0493164c0.6933594-0.2797852,1.4853516-0.2109375,2.1181641,0.1845703
		c1.1337891,0.7089844,1.1123047,1.8764648,1.1015625,2.5039063c-0.0058594,0.355957-0.0244141,0.8496094-0.0546875,1.4672852
		c-0.0654297,1.3461914-0.1816406,3.1894531-0.328125,5.190918c-0.2265625,3.0898438-0.7382813,9.4575195-1.6240234,17.3920898
		c-0.4677734,4.1918945-1.0566406,8.9814453-1.7822266,14.0263672c7.6279297-5.0854492,13.1865234-10.7172852,16.7685547-16.9799805
		c0.1914063-1.3144531,0.4296875-2.6479492,0.7519531-4.0009766c0.9169922-3.8544922,2.2783203-7.4384766,3.9199219-10.4873047
		c0.0107422-0.0986328,0.0283203-0.1943359,0.0380859-0.2929688c0.078125-0.7832031,0.5400391-1.4335938,1.1796875-1.7895508
		c0.8486328-1.3261719,1.7490234-2.5253906,2.6982422-3.5336914c4.1894531-4.4492188,8.1103516-4.4692383,10.6621094-3.703125
		c1.2080078,0.362793,1.8984375,1.6254883,1.5595703,2.8339844c0.109375,0.0131836,0.21875,0.0297852,0.3291016,0.0493164
		c1.5527344,0.2773438,4.2011719,1.4248047,5.8261719,5.8378906c0.0478516,0.1040039,0.0917969,0.2114258,0.125,0.3251953
		l0.0527344,0.1870117c0.1533203,0.4628906,0.296875,0.956543,0.4257813,1.487793
		c0.890625,3.6533203,1.0048828,8.2573242,0.3212891,12.9633789c-0.4902344,3.3706055-1.3554688,6.5532227-2.5263672,9.3549805
		c1.5830078,1.012207,3.3544922,1.4824219,5.3056641,1.4067383c4.8652344-0.190918,8.3095703-4.456543,10.3427734-8.0009766
		c0.6152344-1.0732422,1.1826172-2.2431641,1.7080078-3.4707031c0-0.3027344-0.0039063-0.597168-0.0019531-0.9067383
		c0.0537109-8.1230469,0.9980469-16.3647461,1.4677734-20.4282227c-0.0302734-0.9384766,0.5175781-1.8417969,1.4365234-2.2177734
		c0.8642578-0.3540039,3.0498047-1.0507813,4.6679688,0.1157227c0.9121094,0.6567383,1.3876953,1.7407227,1.3046875,2.9731445
		c-0.0195313,0.3037109-0.0869141,0.8608398-0.2373047,2.0917969c-0.1357422,1.1103516-0.3251953,2.6660156-0.5302734,4.5
		l0.0009766,0.109375c-0.046875,0.5029297-0.1162109,1.0043945-0.1777344,1.5063477
		c-0.4482422,4.2319336-0.9189453,9.578125-1.0449219,14.5981445c-0.3339844,13.2626953,1.9589844,14.4765625,1.9824219,14.4848633
		c0.3789063,0.0498047,0.7236328,0.1904297,1.0166016,0.3950195l0.0517578-0.0039063
		c3.6435547-0.3642578,5.7763672-6.4677734,6.9248047-11.5239258c1.5664063-6.8999023,2.0996094-15.2885742,2.453125-20.8398438
		c0.2636719-4.1484375,0.3945313-6.0263672,0.7441406-7.059082c0.3085938-0.9145508,1.1464844-1.5253906,2.0732422-1.5761719
		c0.5917969-0.2094727,1.2089844-0.3056641,1.7167969-0.3085938h0.0273438c2.0322266,0,3.5390625,1.3833008,3.6679688,3.3730469
		c0.0302734,0.4711914-0.0478516,1.1611328-0.3515625,3.7250977c-0.5195313,4.3813477-1.4873047,12.5361328-1.6083984,19.8305664
		c-0.1474609,8.855957,1.0351563,11.8530273,1.7070313,12.8369141c0.6054688,0.6230469,1.2236328,0.8823242,2.0097656,0.8354492
		c1.1259766-0.0649414,2.4833984-1.050293,3.9257813-2.8496094c1.5146484-1.8896484,3.0615234-4.6020508,4.5976563-8.0620117
		c3.6181641-8.1455078,5.8349609-17.3203125,6.4287109-19.9384766c0.2822266-1.2436523,1.5185547-2.0234375,2.7617188-1.7412109
		c1.2441406,0.2817383,2.0234375,1.5180664,1.7412109,2.7612305c-0.6162109,2.7216797-2.9238281,12.2641602-6.7119141,20.7924805
		c-3.9648438,8.9277344-8.0458984,13.3916016-12.4775391,13.6474609c-1.2519531,0.0712891-2.4365234-0.1699219-3.5136719-0.7021484
		c-0.1044922-0.0322266-0.2089844-0.0703125-0.3105469-0.1191406c-0.7919922-0.378418-1.4785156-0.9536133-2.0664063-1.7358398
		c-1.5039063-1.7128906-2.6367188-4.2827148-3.4111328-7.7587891c-0.7246094,2.2749023-1.5556641,4.1704102-2.5107422,5.7368164
		c-1.953125,3.2041016-4.4287109,4.9770508-7.3583984,5.2700195C469.5,234.9868164,469.2392578,235,468.9824219,235
		c-1.9277344,0-3.6640625-0.7363281-5.0605469-2.1547852c-2.0751953-2.1079102-3.4257813-5.7827148-4.0839844-11.1147461
		c-3.4570313,4.7358398-7.6748047,7.3203125-12.3398438,7.503418c-2.7490234,0.1083984-5.3125-0.5522461-7.5908203-1.9179688
		c-0.2705078,0.4306641-0.5498047,0.8447266-0.8378906,1.2416992C435.9960938,232.7954102,432.0576172,235,427.6054688,235
		c-0.5146484,0-1.0351563-0.0292969-1.5625-0.0888672c-4.0390625-0.4526367-7.0078125-2.9628906-8.5859375-7.2597656
		c-0.5556641-1.512207-0.9091797-3.2631836-1.09375-5.1611328c-4.3466797,5.3217773-10.0498047,10.0932617-17.4003906,14.515625
		c-1.3320313,8.3076172-3.0234375,16.921875-5.1240234,24.4345703c-1.9082031,6.8222656-4.0078125,12.1811523-6.2412109,15.9272461
		c-2.8505859,4.7817383-6.1083984,7.2304688-9.6835938,7.2783203l-0.171875,0.0009766
		c-4.6972656,0-8.109375-2.5908203-9.3779297-7.1303711c-0.0595703-0.2119141-0.1123047-0.4282227-0.1611328-0.6469727
		C367.7382813,275.1806641,367.7685547,273.5405273,367.7861328,272.6040039z M356.5546875,298.78125
		c3.7314453-5.7851563,7.2841797-6.65625,9.6064453-6.3681641c2.4013672,0.2978516,4.3583984,2.0087891,5.1074219,4.4658203
		c1.2021484,3.9453125-0.1484375,11.0087891-12.734375,22.6142578c-0.1035156,2.125-0.0214844,4.1416016,0.2626953,5.9238281
		c0.8339844,5.2373047,3.1240234,7.9140625,6.8017578,7.9628906c0.4658203-0.0097656,0.9472656-0.0380859,1.4462891-0.0869141
		c5.3496094-0.5288086,10.8701172-6.3212891,14.8525391-14.6645508c0.0566406-1.206543,0.1552734-2.4375,0.3388672-3.7084961
		c0.8417969-5.8261719,2.9931641-11.859375,5.7539063-16.1386719c3.7314453-5.7851563,7.2841797-6.65625,9.6064453-6.3681641
		c2.4013672,0.2978516,4.3583984,2.0087891,5.1074219,4.4658203c1.2021484,3.9453125-0.1484375,11.0087891-12.734375,22.6142578
		c-0.1035156,2.125-0.0214844,4.1416016,0.2626953,5.9238281c0.8339844,5.2373047,3.1240234,7.9140625,6.8017578,7.9628906
		c0.4658203-0.0097656,0.9472656-0.0380859,1.4462891-0.0869141c5.1132813-0.5058594,10.3828125-5.8222656,14.3154297-13.5776367
		c0.3691406-5.0268555,1.6445313-10.4799805,3.6386719-15.3041992c1.7382813-4.203125,5.5283203-11.4394531,11.390625-12.6845703
		c2.0332031-0.4306641,5.1435547-0.28125,8.4150391,2.8818359c0.1787109,0.171875,0.3554688,0.3525391,0.5322266,0.5410156
		c0.0361328-0.4707031,0.0742188-0.9433594,0.1142578-1.4160156c0.6289063-7.3154297,1.8046875-14.2841797,3.4003906-20.1533203
		c1.796875-6.6083984,4.0400391-11.5888672,6.6689453-14.8027344c2.3046875-2.8183594,4.6484375-3.9404297,6.6826172-4.2412109
		c0.7412109-0.2041016,1.5029297-0.2412109,2.2871094-0.109375c0.2109375,0.0351563,0.4082031,0.1005859,0.59375,0.1875
		l0.1640625,0.0332031c2.4794922,0.5419922,4.2519531,2.1972656,5.125,4.7861328
		c2.1191406,6.2822266-1.6445313,17.0722656-4.0771484,22.9453125c-3.6875,8.9042969-8.9785156,17.9628906-13.8095703,23.6396484
		l-0.1904297,0.2109375c-0.1240234,3.4296875-0.1347656,6.734375-0.0214844,9.7978516
		c0.1914063,5.1787109,0.7392578,9.4902344,1.5859375,12.4677734c0.8720703,3.0683594,1.8457031,4.0253906,2.2832031,4.1074219
		c0.2617188,0.0488281,0.5039063,0.1425781,0.7226563,0.2675781c4.7236328,0.1425781,8.5585938-6.9941406,10.4316406-11.2841797
		c2.9921875-6.8525391,4.9345703-15.1474609,5.6894531-20.1679688c0.1894531-1.2617188,1.3662109-2.1289063,2.6269531-1.9404297
		c1.2607422,0.1894531,2.1289063,1.3652344,1.9394531,2.6259766c-0.796875,5.2998047-2.8525391,14.0654297-6.0244141,21.3291016
		c-1.8193359,4.1679688-3.8271484,7.4550781-5.9677734,9.7705078c-2.7880859,3.0146484-5.8417969,4.4511719-9.0712891,4.2734375
		c-2.2402344-0.125-5.4150391-1.4169922-7.8144531-6.8652344c-0.9394531-2.1318359-1.7109375-4.8007813-2.3046875-7.8808594
		c-2.5224609,5.1318359-5.7431641,9.609375-8.8691406,12.3222656C426.6816406,337.0107422,424.5458984,338,422.578125,338
		c-0.2138672,0-0.4267578-0.0117188-0.6367188-0.0351563c-2.9765625-0.3320313-5.3935547-1.9804688-6.9912109-4.765625
		c-0.8271484-1.4423828-1.4306641-3.1767578-1.8066406-5.1772461c-4.2607422,5.8896484-9.2490234,9.3754883-14.2099609,9.8657227
		c-0.4824219,0.0478516-0.9492188,0.078125-1.4052734,0.0957031l-0.2412109,0.015625L397.1298828,338l-0.1347656-0.0029297
		L396.7285156,338c-6.7822266,0-10.3486328-3.3759766-12.1767578-6.3701172
		c-0.859375-1.4077148-1.5068359-3.0576172-1.9599609-4.8793945c-4.4462891,6.659668-9.7861328,10.612793-15.09375,11.137207
		c-0.4824219,0.0478516-0.9492188,0.078125-1.4052734,0.0957031l-0.2412109,0.015625L365.6943359,338l-0.1347656-0.0029297
		L365.2929688,338c-6.7822266,0-10.3486328-3.3759766-12.1767578-6.3701172
		c-2.4667969-4.0390625-3.2880859-9.9736328-2.3154297-16.7099609
		C351.6425781,309.09375,353.7939453,303.0605469,356.5546875,298.78125z M339.2797852,234.5893555
		C338.3955078,234.8642578,337.5205078,235,336.6699219,235c-1.9760742,0-3.8232422-0.7329102-5.3632813-2.159668
		c-3.4633789-3.2084961-4.6484375-11.0917969-4.894043-18.8842773c-1.3198242,3.2636719-2.7602539,6.262207-4.3110352,8.9082031
		c-3.7573242,6.4111328-7.8847656,10.465332-11.9370117,11.7250977C309.2802734,234.8642578,308.4052734,235,307.5546875,235
		c-1.9760742,0-3.8232422-0.7329102-5.3632813-2.159668c-5.4931641-5.0888672-5.2573242-21.940918-4.6279297-31.5332031
		c0.2651367-4.0395508,0.6811523-8.0605469,1.2177734-11.9599609c-3.2270508,1.7954102-7.581543,3.7631836-12.5551758,5.6972656
		c-0.4086914,8.2109375-1.0893555,16.3398438-1.6811523,23.4052734c-0.6416016,7.6606445-1.1958008,14.2768555-1.0449219,17.2924805
		c0.0336914,0.671875-0.2197266,1.3193359-0.7138672,1.8227539c-0.9882813,1.0068359-3.0166016,1.5629883-5.4179688,1.4882813
		c-1.0175781-0.0322266-1.8662109-0.7197266-2.1420898-1.6518555c-0.331543-0.7919922-0.3583984-1.6723633-0.375-2.2167969
		c-0.0307617-0.9951172,0.0234375-2.3808594,0.1645508-4.2358398c0.2587891-3.3964844,0.7851563-8.0717773,1.3945313-13.4853516
		c0.6513672-5.7861328,1.4174805-12.5996094,2.043457-19.5986328c-3.7612305,1.2749023-7.6972656,2.4858398-11.6420898,3.565918
		c-7.4526367,2.0405273-14.4350586,3.4609375-20.3461914,4.1489258
		c-3.0019531,10.1289063-6.0151367,20.9262695-8.9824219,31.5800781c0.128418,0.6582031-0.0288086,1.3662109-0.4916992,1.9213867
		c-0.5566406,0.6679688-1.4101563,0.9418945-2.2084961,0.7900391c-0.2680664,0.0478516-0.6655273,0.1166992-1.1230469,0.1166992
		c-0.7573242,0-1.6787109-0.1894531-2.4482422-0.9804688c-1.3613281-1.3999023-1.1137695-3.6147461-0.7456055-5.387207
		l0.1411133-0.6777344c0.8520508-4.0859375,2.8481445-13.6552734,3.5678711-22.4047852
		c0.1416016-1.7231445,0.222168-3.2900391,0.2504883-4.7109375c-2.7758789-0.3193359-5.0600586-0.9624023-6.8330078-1.9257813
		c-3.4077148-1.8530273-5.0532227-4.875-4.7587891-8.7397461c0.0864258-1.128418,0.8466797-3.6416016,3.1083984-5.0756836
		c1.3696289-0.8681641,3.7646484-1.6118164,7.3974609-0.2246094c2.7421875,1.0473633,4.5146484,3.8710938,5.2680664,8.3935547
		c0.1616211,0.9697266,0.2797852,2.0327148,0.3544922,3.1855469c1.1967773-0.0039063,2.4750977-0.0561523,3.8251953-0.1542969
		c0.3232422-0.9360352,0.6508789-1.875,0.9833984-2.8168945c2.8105469-9.2348633,5.5898438-17.6884766,8.3696289-24.9462891
		c7.2314453-18.8808594,13.6577148-27.3334961,20.7988281-27.3334961l0.2373047,0.0029297
		c2.6894531,0.0703125,5.0229492,1.1875,6.9345703,3.3212891c4.2158203,4.7055664,6.3339844,14.6171875,6.4755859,30.3007813
		c0.0297852,3.3173828-0.027832,6.7275391-0.1455078,10.1586914c6.2290039-2.5244141,10.9780273-4.9301758,13.2041016-6.6259766
		l0.0883789-0.0541992c1.4624023-8.2529297,3.46875-15.6118164,5.7822266-20.8608398
		c2.9370117-6.6621094,6.3720703-9.878418,10.2167969-9.5576172c2.6894531,0.2241211,4.6713867,1.590332,5.7319336,3.9511719
		c1.2519531,2.7880859,1.1435547,6.9111328-0.3305664,12.6049805c-1.1274414,4.3530273-3.0454102,9.5834961-5.7001953,15.5458984
		c-4.3583984,9.7875977-9.4584961,18.7631836-11.7304688,22.1538086c-0.0561523,1.1918945-0.097168,2.3686523-0.121582,3.5224609
		c-0.3183594,15.137207,2.2753906,19.3056641,3.2089844,19.5722656c0.1230469,0.0351563,0.2387695,0.0820313,0.3505859,0.1347656
		c0.5087891,0.0668945,1.0551758,0.0063477,1.6533203-0.1791992c2.8500977-0.8862305,6.2485352-4.4033203,9.3232422-9.6503906
		c3.6381836-6.2080078,6.6826172-14.4833984,8.8037109-23.9316406c0.0405273-0.1806641,0.1064453-0.3476563,0.184082-0.5068359
		c1.2827148-13.2451172,4.0634766-25.8061523,7.5253906-33.659668c2.9370117-6.6621094,6.3720703-9.878418,10.2167969-9.5576172
		c2.6894531,0.2241211,4.6713867,1.590332,5.7319336,3.9511719c1.2519531,2.7880859,1.1435547,6.9111328-0.3305664,12.6049805
		c-1.1274414,4.3530273-3.0454102,9.5834961-5.7001953,15.5458984c-4.3583984,9.7875977-9.4584961,18.7631836-11.7304688,22.1538086
		c-0.0561523,1.1918945-0.097168,2.3686523-0.121582,3.5224609c-0.3183594,15.137207,2.2753906,19.3056641,3.2089844,19.5722656
		c0.1230469,0.0351563,0.2387695,0.0820313,0.3505859,0.1347656c0.5087891,0.0668945,1.0551758,0.0063477,1.6533203-0.1791992
		c2.8500977-0.8862305,6.2485352-4.4033203,9.3232422-9.6503906c3.6381836-6.2080078,6.6826172-14.4833984,8.8041992-23.9316406
		c0.2792969-1.2436523,1.5136719-2.0258789,2.7578125-1.746582s2.0253906,1.5141602,1.7460938,2.7583008
		c-2.2236328,9.9072266-5.4482422,18.6401367-9.3242188,25.2543945
		C347.4594727,229.2753906,343.3320313,233.3295898,339.2797852,234.5893555z M254.5253906,301.9912109v-0.0136719
		l0.0019531-0.0771484c0.0483398-0.5039063,0.0029297-0.0356445-0.0019531,0.0771484V301.9912109L254.5273438,302
		c3.4941406-12.9785156,8.8066406-23.0810547,13.9082031-30.8535156
		c6.7041016-10.2128906,12.5820313-15.0888672,17.9746094-14.9101563c2.3398438,0.078125,4.4013672,1.1767578,5.9599609,3.1787109
		c2.7324219,3.5078125,4.1142578,9.9375,4.2255859,19.6572266c0.0839844,7.3603516-0.5742188,16.5976563-1.9560547,27.4550781
		c-0.0537109,0.4228516-0.1083984,0.84375-0.1640625,1.2646484c1.1494141-3.4824219,2.4697266-7.3623047,3.9345703-11.3828125
		c3.4287109-10.8496094,6.7207031-20.2724609,10.3476563-27.6064453
		c3.8164063-7.7197266,10.1396484-17.8964844,20.9599609-17.1542969c2.7070313,0.1855469,4.9902344,1.40625,6.7841797,3.6289063
		c2.1660156,2.6826172,3.5654297,6.7597656,4.2763672,12.4648438c0.5849609,4.6875,0.6972656,10.3554688,0.34375,17.3271484
		c-0.6347656,12.5283203-2.6572266,26.4755859-4.2822266,37.6826172c-1.140625,7.8632813-2.1259766,14.6542969-2.1259766,17.7539063
		c0,0.5898438-0.2714844,2.6035156-3.7763672,3.7714844l-0.6464844,0.2158203
		c-0.2382813,0.0791016-0.484375,0.1191406-0.7304688,0.1191406c-0.3554688,0-0.7089844-0.0820313-1.0322266-0.2441406
		c-1.6611328-0.8300781-1.6386719-2.8486328-1.625-4.0546875c0.0136719-1.1699219,0.1367188-2.7998047,0.3789063-4.9833984
		c0.4433594-4.0146484,1.2314453-9.4423828,2.1425781-15.7265625c1.7236328-11.8876953,3.8691406-26.6816406,4.6435547-38.7763672
		c0.4130859-6.4580078,0.3925781-11.5839844-0.0605469-15.2373047c-0.640625-5.1523438-1.9404297-5.8681641-2.0869141-5.9326172
		c-2.1035156-0.9306641-4.1738281-0.9130859-6.3291016,0.0527344c-4.8271484,2.1630859-9.9765625,8.8935547-15.3056641,20.0029297
		c-2.7480469,5.7294922-5.2871094,12.1035156-7.5019531,18.1787109c-1.5078125,4.7724609-3.0439453,9.8320313-4.6484375,15.1132813
		c-2.8505859,9.3808594-5.796875,19.0820313-9.2128906,29.3291016c-0.3408203,1.0234375-1.3349609,1.6552734-2.3779297,1.5693359
		l-0.2099609,0.0097656c-0.1621094,0-0.3261719-0.0166016-0.4921875-0.0527344
		c-1.2451172-0.2705078-2.0361328-1.5-1.765625-2.7460938c0.015625-0.0693359,0.6494141-3.0058594,1.5517578-7.7158203
		c0.9511719-6.7265625,2.2802734-17.0234375,3.1982422-27.8310547c2.6484375-31.1835938-0.1962891-41.3710938-2.2548828-44.6904297
		c-0.1123047-0.0146484-0.21875-0.0224609-0.3164063-0.0253906c-2.0263672-0.0703125-6.5302734,1.5097656-13.9599609,12.8291016
		c-4.8676758,7.4145508-13.0703125,28.7275391-13.4262695,29.3544922l-0.0161133,0.0625
		c-0.3662109,1.2314453-1.5429688,3.40625-2.6621094,2.7958984
		C255.0957031,305.2958984,254.4282227,303.3828125,254.5253906,301.9912109z M190,327
		c-10.0756836-19.5371094-16.5483398-46.3901367-10-50c7.0458984-3.8837891,27.4140625,20.1064453,37,32
		c3.4760742-16.6640625,10.581543-46.3154297,18-46c7.0869141,0.3017578,12.2900391,27.8608398,13,48
		c0.9541016,27.0595703-5.9013672,49.3056641-12,64C222.6230469,366.8691406,202.8847656,351.9838867,190,327z
		 M556.2333984,475.4951172c-10.4853516,19.5898438-27.7988281,40.5625-52.1367188,40.265625
		c-14.4453125-0.0986328-23.0517578-5.0439453-31.0654297-15.828125l-8.4853516-11.8222656
		c-8.0917969,12.0683594-21.7285156,27.65625-35.6513672,27.65625c-12.9580078,0-17.6103516-9.1015625-24.734375-18.6962891
		c-0.4492188-0.6142578-0.8779297-1.2099609-1.2958984-1.796875c-15.2880859,24.1074219-52.8168945,27.7792969-67.3710938,6.8408203
		l-10.6835938-14.5439453c-5.4536133-7.4365234-7.5493164-16.6591797-6.6547852-25.84375
		c-9.3676758,5.6572266-20.1674805,9.4580078-31.5512695,11.2011719c-0.59375,3.5595703-1.0888672,7.1220703-1.7792969,10.5849609
		c3.265625-1.6826172,9.1982422-2.2763672,12.2666016-2.2763672c22.3574219,0.3955078,28.7910156,12.2685547,39.1777344,26.515625
		l2.1767578,2.9648438c16.1279297,21.171875,4.6523438,59.2636719-33.8339844,58.5693359
		c-18.3994141-0.296875-38.2861328-10.6835938-52.1386719-23.2480469
		c-17.1152344,12.4667969-40.4638672,9.8935547-53.1269531-7.4189453l-10.0898438-13.7519531
		c-17.6103516-23.9423828,4.0556641-63.1201172,30.4726563-50.9492188c0.7919922-1.1865234,1.5839844-2.4746094,2.3740234-3.7597656
		c-17.9091797-7.515625-23.6455078-18.2041016-34.1337891-32.3496094
		c-20.0820313-27.4042969-2.0761719-65.7880859,24.2373047-68.8564453
		c8.1123047-0.890625,11.4775391,5.9365234,16.2265625,12.4677734c4.3535156,5.7363281,8.9042969,10.0898438,6.3310547,16.5205078
		c-1.3857422,3.7597656-0.8886719,7.71875,0.59375,11.6757813c1.3857422,1.1855469,2.7714844,2.3730469,4.0556641,3.2626953
		c5.4423828-23.4462891,10.7851563-47.4853516,35.2177734-60.4472656
		c20.1835938-10.6835938,43.1347656-6.234375,56.4921875,12.0664063l5.7373047,7.9121094
		c9.6953125,12.8613281,15.234375,22.7578125,12.7636719,42.3427734c-0.4277344,3.359375-1.1123047,6.5849609-2.0083008,9.6865234
		c2.1308594-0.5634766,4.3012695-0.8769531,6.480957-0.8769531c7.1220703-4.1572266,15.2324219-5.7392578,23.2480469-2.6708984
		c7.0283203,2.7988281,13.0634766,10.328125,18.1171875,17.4248047c1.3242188-4.6669922,3.2265625-8.8671875,5.9306641-11.6835938
		c8.2109375-8.7041016,28.1962891-9.7929688,34.3291016-0.3945313l1.7792969,2.3740234
		c6.0341797-8.6074219,19.1923828-14.34375,28.1972656-2.1777344l4.6357422,6.3183594
		c8.0517578-8.1181641,19.4267578-13.4814453,33.4677734-13.1523438
		c13.1552734,0.296875,21.3691406,4.3554688,28.5898438,14.1503906l8.5078125,11.6728516
		c2.9677734,2.4746094,1.1884766-0.296875,5.3408203,5.4423828l9.3994141,12.6611328
		C558.5078125,466.9892578,558.3095703,471.640625,556.2333984,475.4951172z"/>
	<path class="st1" d="M282.0664063,382.7988281c-5.7412109,15.8310547-8.3105469,39.5751953-9.0048828,45.609375
		C304.5263672,428.7050781,299.8720703,333.1347656,282.0664063,382.7988281z"/>
	<path class="st1" d="M352.5185547,450.1728516c-2.8701172,5.9326172-5.8398438,16.2226563,2.3730469,15.828125
		c2.6689453-0.0986328,5.1425781-1.9794922,7.1230469-4.7460938
		C358.1582031,458.0888672,354.9931641,454.4267578,352.5185547,450.1728516z"/>
	<path class="st1" d="M504.2529297,439.7822266c-3.6621094,2.1796875-6.3349609,5.8398438-7.5185547,9.6962891
		C512.7607422,448.3896484,515.6298828,432.9570313,504.2529297,439.7822266z"/>
	<path class="st1" d="M546.2402344,450.8662109c-4.1523438-5.7392578-2.3730469-2.9677734-5.3408203-5.4423828
		l-8.5078125-11.6728516c-7.2207031-9.7949219-15.4345703-13.8535156-28.5898438-14.1503906
		c-14.0410156-0.3291016-25.4160156,5.0341797-33.4677734,13.1523438l-4.6357422-6.3183594
		c-9.0048828-12.1660156-22.1630859-6.4296875-28.1972656,2.1777344l-1.7792969-2.3740234
		c-6.1328125-9.3984375-26.1181641-8.3095703-34.3291016,0.3945313c-2.7041016,2.8164063-4.6064453,7.0166016-5.9306641,11.6835938
		c-5.0537109-7.0966797-11.0888672-14.6259766-18.1171875-17.4248047
		c-8.015625-3.0683594-16.1259766-1.4863281-23.2480469,2.6708984c-2.1796875,0-4.3500977,0.3134766-6.480957,0.8769531
		c0.8959961-3.1015625,1.5805664-6.3271484,2.0083008-9.6865234c2.4707031-19.5849609-3.0683594-29.4814453-12.7636719-42.3427734
		l-5.7373047-7.9121094c-13.3574219-18.3007813-36.3085938-22.75-56.4921875-12.0664063
		c-24.4326172,12.9619141-29.7753906,37.0009766-35.2177734,60.4472656
		c-1.2841797-0.8896484-2.6699219-2.0771484-4.0556641-3.2626953c-1.4824219-3.9570313-1.9794922-7.9160156-0.59375-11.6757813
		c2.5732422-6.4306641-1.9775391-10.7841797-6.3310547-16.5205078c-4.7490234-6.53125-8.1142578-13.3583984-16.2265625-12.4677734
		c-26.3134766,3.0683594-44.3193359,41.4521484-24.2373047,68.8564453
		c10.4882813,14.1455078,16.2246094,24.8339844,34.1337891,32.3496094
		c-0.7900391,1.2851563-1.5820313,2.5732422-2.3740234,3.7597656
		c-26.4169922-12.1708984-48.0830078,27.0068359-30.4726563,50.9492188l10.0898438,13.7519531
		c12.6630859,17.3125,36.0117188,19.8857422,53.1269531,7.4189453
		c13.8525391,12.5644531,33.7392578,22.9511719,52.1386719,23.2480469
		c38.4863281,0.6943359,49.9619141-37.3974609,33.8339844-58.5693359l-2.1767578-2.9648438
		c-10.3867188-14.2470703-16.8203125-26.1201172-39.1777344-26.515625c-3.0683594,0-9.0009766,0.59375-12.2666016,2.2763672
		c0.6904297-3.4628906,1.1855469-7.0253906,1.7792969-10.5849609c11.3837891-1.7431641,22.1835938-5.5439453,31.5512695-11.2011719
		c-0.8945313,9.1845703,1.2011719,18.4072266,6.6547852,25.84375l10.6835938,14.5439453
		c14.5541992,20.9384766,52.0830078,17.2666016,67.3710938-6.8408203c0.4179688,0.5869141,0.8466797,1.1826172,1.2958984,1.796875
		c7.1240234,9.5947266,11.7763672,18.6962891,24.734375,18.6962891c13.9228516,0,27.5595703-15.5878906,35.6513672-27.65625
		l8.4853516,11.8222656c8.0136719,10.7841797,16.6201172,15.7294922,31.0654297,15.828125
		c24.3378906,0.296875,41.6513672-20.6757813,52.1367188-40.265625c2.0761719-3.8544922,2.2744141-8.5058594-0.59375-11.9677734
		L546.2402344,450.8662109z M270.1884766,451.9589844c-2.671875,20.0820313-6.8251953,40.3642578-17.0175781,56.5888672
		c5.0478516,3.0644531,10.4892578,5.0439453,16.7207031,5.5390625
		c16.6210938,1.0859375,26.3164063-13.3564453,17.1171875-21.5693359c-1.8779297-1.7802734,0.7919922-3.5595703,0.7919922-3.5595703
		c2.9697266-1.2841797,6.2333984-1.7792969,9.6962891-1.7792969c42.8408203,0.6904297,41.2548828,61.3378906-3.8564453,60.5458984
		c-18.7011719-0.3935547-39.1767578-12.1660156-51.9414063-25.2265625
		c-9.0009766,8.4082031-19.7851563,10.8828125-29.1845703,9.2001953
		c-42.3417969-8.0126953-19.1914063-70.5390625,9.3027344-49.9609375
		c6.1337891-7.5205078,10.3886719-17.0185547,13.6523438-27.3066406
		c-15.828125-1.5849609-30.0751953-7.1240234-39.671875-17.0175781
		c-10.5869141-10.984375-13.2548828-28.4941406-6.3300781-43.0371094
		c4.4511719-9.3994141,13.1591797-18.3027344,23.8427734-19.4892578c3.3652344-0.3935547,6.3310547,1.6826172,4.8486328,5.3427734
		c-5.0458984,13.2548828,6.9238281,32.2529297,25.5234375,42.0458984c1.9775391-8.3105469,3.8564453-16.7216797,6.0341797-25.03125
		c16.6201172-64.4023438,89.9306641-54.4101563,82.9052734,1.0888672
		C329.5537109,422.2714844,309.9638672,447.6982422,270.1884766,451.9589844z M540.0644531,456.9960938
		c-10.2890625,18.3027344-25.0273438,37.2988281-46.8925781,37.1005859
		c-20.6640625-0.1738281-29.9980469-13.7734375-29.984375-28.8144531
		c-4.0859375,1.0556641-8.3476563,0.7099609-11.9277344-0.3701172
		c-9.2978516,15.2353516-22.6542969,29.1845703-33.4384766,29.1845703c-8.3095703,0-12.7636719-4.6494141-15.4345703-11.9716797
		c-1.5556641-4.2666016-2.5175781-9.4521484-2.9560547-14.8935547c-2.8251953,1.5732422-5.9873047,2.4980469-9.6181641,2.828125
		c-12.2666016,31.9560547-66.5791016,34.2324219-65.5917969-5.7363281
		c0.1982422-4.6523438,1.1855469-9.3994141,3.0664063-13.8535156c4.0556641-9.2978516,16.125-22.2597656,28.6894531-20.8740234
		c20.5771484-13.7519531,36.3085938,7.1220703,36.3085938,26.9082031c0,0.890625-0.0986328,1.8818359-0.0986328,2.7705078
		c2.8388672-0.2685547,5.1152344-1.4785156,7.0654297-3.3417969c0.5107422-10.9902344,2.9697266-21.2089844,6.8935547-25.3496094
		c9.1025391-9.5986328,30.4697266-4.2539063,24.9306641,3.7597656c-1.8808594,2.7675781-0.3974609,31.2607422,2.3740234,31.7558594
		c1.4824219,0.1953125,5.3408203-4.4521484,9.4951172-10.1914063c-17.015625-33.5371094,36.0117188-46.5957031,13.7519531-1.4824219
		c1.7822266,2.6357422,5.40625,1.9296875,8.0371094,0.1132813c4.4492188-15.4833984,18.3007813-29.4970703,39.4179688-29.0029297
		c27.6992188,0.59375,39.5703125,27.8007813-7.0273438,33.1435547c-1.1865234,9.0048828,24.2392578,10.7851563,35.4179688-5.8349609
		C536.0087891,447.7998047,543.3271484,450.7666016,540.0644531,456.9960938z"/>
	<path class="st1" d="M360.5410156,197.6098633c0.2792969-1.2441406-0.5019531-2.4790039-1.7460938-2.7583008
		s-2.4785156,0.5029297-2.7578125,1.746582c-2.121582,9.4482422-5.1660156,17.7236328-8.8041992,23.9316406
		c-3.074707,5.2470703-6.4731445,8.7641602-9.3232422,9.6503906c-0.5981445,0.1855469-1.1445313,0.2460938-1.6533203,0.1791992
		c-0.1118164-0.0527344-0.2275391-0.0996094-0.3505859-0.1347656c-0.9335938-0.2666016-3.5273438-4.4350586-3.2089844-19.5722656
		c0.0244141-1.1538086,0.0654297-2.3305664,0.121582-3.5224609c2.2719727-3.390625,7.3720703-12.3662109,11.7304688-22.1538086
		c2.6547852-5.9624023,4.5727539-11.1928711,5.7001953-15.5458984c1.4741211-5.6938477,1.5825195-9.8168945,0.3305664-12.6049805
		c-1.0605469-2.3608398-3.0424805-3.7270508-5.7319336-3.9511719c-3.8447266-0.3208008-7.2797852,2.8955078-10.2167969,9.5576172
		c-3.4619141,7.8535156-6.2426758,20.4145508-7.5253906,33.659668c-0.0776367,0.1591797-0.1435547,0.3261719-0.184082,0.5068359
		c-2.1210938,9.4482422-5.1655273,17.7236328-8.8037109,23.9316406c-3.074707,5.2470703-6.4731445,8.7641602-9.3232422,9.6503906
		c-0.5981445,0.1855469-1.1445313,0.2460938-1.6533203,0.1791992c-0.1118164-0.0527344-0.2275391-0.0996094-0.3505859-0.1347656
		c-0.9335938-0.2666016-3.5273438-4.4350586-3.2089844-19.5722656c0.0244141-1.1538086,0.0654297-2.3305664,0.121582-3.5224609
		c2.2719727-3.390625,7.3720703-12.3662109,11.7304688-22.1538086c2.6547852-5.9624023,4.5727539-11.1928711,5.7001953-15.5458984
		c1.4741211-5.6938477,1.5825195-9.8168945,0.3305664-12.6049805c-1.0605469-2.3608398-3.0424805-3.7270508-5.7319336-3.9511719
		c-3.8447266-0.3208008-7.2797852,2.8955078-10.2167969,9.5576172c-2.3134766,5.2490234-4.3198242,12.6079102-5.7822266,20.8608398
		l-0.0883789,0.0541992c-2.2260742,1.6958008-6.9750977,4.1015625-13.2041016,6.6259766
		c0.1176758-3.4311523,0.175293-6.8413086,0.1455078-10.1586914c-0.1416016-15.6835938-2.2597656-25.5952148-6.4755859-30.3007813
		c-1.9116211-2.1337891-4.2451172-3.2509766-6.9345703-3.3212891l-0.2373047-0.0029297
		c-7.1411133,0-13.5673828,8.4526367-20.7988281,27.3334961c-2.7797852,7.2578125-5.559082,15.7114258-8.3696289,24.9462891
		c-0.3325195,0.9418945-0.6601563,1.8808594-0.9833984,2.8168945c-1.3500977,0.0981445-2.628418,0.1503906-3.8251953,0.1542969
		c-0.074707-1.152832-0.1928711-2.2158203-0.3544922-3.1855469c-0.753418-4.5224609-2.5258789-7.3461914-5.2680664-8.3935547
		c-3.6328125-1.387207-6.027832-0.6435547-7.3974609,0.2246094c-2.2617188,1.434082-3.0219727,3.9472656-3.1083984,5.0756836
		c-0.2944336,3.8647461,1.3510742,6.8867188,4.7587891,8.7397461c1.7729492,0.9633789,4.0571289,1.6064453,6.8330078,1.9257813
		c-0.0283203,1.4208984-0.1088867,2.987793-0.2504883,4.7109375c-0.7197266,8.7495117-2.7158203,18.3188477-3.5678711,22.4047852
		l-0.1411133,0.6777344c-0.3681641,1.7724609-0.6157227,3.9873047,0.7456055,5.387207
		c0.7695313,0.7910156,1.690918,0.9804688,2.4482422,0.9804688c0.4575195,0,0.8549805-0.0688477,1.1230469-0.1166992
		c0.7983398,0.1518555,1.6518555-0.1220703,2.2084961-0.7900391c0.4628906-0.5551758,0.6201172-1.2631836,0.4916992-1.9213867
		c2.9672852-10.6538086,5.9804688-21.4511719,8.9824219-31.5800781c5.9111328-0.6879883,12.8935547-2.1083984,20.3461914-4.1489258
		c3.9448242-1.0800781,7.8808594-2.2910156,11.6420898-3.565918c-0.6259766,6.9990234-1.3920898,13.8125-2.043457,19.5986328
		c-0.609375,5.4135742-1.1357422,10.0888672-1.3945313,13.4853516c-0.1411133,1.8549805-0.1953125,3.2407227-0.1645508,4.2358398
		c0.0166016,0.5444336,0.043457,1.4248047,0.375,2.2167969c0.2758789,0.9321289,1.1245117,1.6196289,2.1420898,1.6518555
		c2.4013672,0.074707,4.4296875-0.4814453,5.4179688-1.4882813c0.4941406-0.503418,0.7475586-1.1508789,0.7138672-1.8227539
		c-0.1508789-3.015625,0.4033203-9.6318359,1.0449219-17.2924805c0.5917969-7.0654297,1.2724609-15.1943359,1.6811523-23.4052734
		c4.9736328-1.934082,9.328125-3.9018555,12.5551758-5.6972656c-0.5366211,3.8994141-0.9526367,7.9204102-1.2177734,11.9599609
		c-0.6293945,9.5922852-0.8652344,26.4443359,4.6279297,31.5332031C303.7314453,234.2670898,305.5786133,235,307.5546875,235
		c0.8505859,0,1.7255859-0.1357422,2.6098633-0.4106445c4.0522461-1.2597656,8.1796875-5.3139648,11.9370117-11.7250977
		c1.5507813-2.6459961,2.9912109-5.6445313,4.3110352-8.9082031c0.2456055,7.7924805,1.4306641,15.6757813,4.894043,18.8842773
		C332.8466797,234.2670898,334.6938477,235,336.6699219,235c0.8505859,0,1.7255859-0.1357422,2.6098633-0.4106445
		c4.0522461-1.2597656,8.1796875-5.3139648,11.9370117-11.7250977
		C355.0927734,216.25,358.3173828,207.5170898,360.5410156,197.6098633z M337.6728516,174.4785156
		c3.3212891-12.5410156,6.828125-16.5869141,8.3999023-16.2685547c0.1162109,0.1508789,0.2109375,0.3208008,0.2944336,0.5068359
		c0.7280273,1.6201172,1.5961914,7.2397461-6.0366211,24.3813477c-2.1772461,4.890625-4.5678711,9.6147461-6.6586914,13.4682617
		C334.5415039,188.8339844,335.9326172,181.0493164,337.6728516,174.4785156z M308.5576172,174.4785156
		c3.3212891-12.5410156,6.828125-16.5869141,8.3999023-16.2685547c0.1162109,0.1508789,0.2109375,0.3208008,0.2944336,0.5068359
		c0.7280273,1.6201172,1.5961914,7.2397461-6.0366211,24.3813477c-2.1772461,4.890625-4.5678711,9.6147461-6.6586914,13.4682617
		C305.4262695,188.8339844,306.8173828,181.0493164,308.5576172,174.4785156z M229.7978516,199.8442383
		c-1.7768555-0.9658203-2.5063477-2.2924805-2.362793-4.2988281c0.043457-0.2553711,0.3212891-1.1757813,1.0263672-1.5893555
		c0.8676758-0.5078125,2.2358398-0.1621094,3.230957,0.2182617c1.1625977,0.4438477,2.2412109,2.5561523,2.6103516,6.9868164
		C232.4560547,200.902832,230.9399414,200.465332,229.7978516,199.8442383z M238.4135742,214.5698242
		c0.1401367-1.2207031,0.2631836-2.4438477,0.362793-3.6538086c0.1416016-1.7202148,0.2294922-3.3393555,0.2646484-4.8530273
		c0.6918945-0.0024414,1.40625-0.0195313,2.140625-0.0507813C240.203125,208.9443359,239.2773438,211.8125,238.4135742,214.5698242z
		 M278.8745117,192.8276367c-4.1333008,1.4541016-8.6264648,2.875-13.2822266,4.1494141
		c-6.512207,1.7827148-12.4824219,3.0410156-17.675293,3.7578125c0.1030273-0.3398438,0.2060547-0.6821289,0.309082-1.0200195
		c2.3022461-6.5068359,4.8125-13.1079102,7.4301758-19.3017578c3.8823242-9.1845703,7.5014648-16.2900391,10.7578125-21.1186523
		c4.5957031-6.8164063,7.0004883-6.9296875,7.6279297-6.8022461c2.1884766,0.4448242,3.4580078,3.7060547,4.1381836,6.3632813
		c1.0083008,3.9394531,1.5078125,9.5610352,1.4848633,16.7084961
		C279.6479492,180.972168,279.3330078,186.8945313,278.8745117,192.8276367z"/>
	<path class="st1" d="M368.3642578,277.5166016c1.2685547,4.5395508,4.6806641,7.1303711,9.3779297,7.1303711l0.171875-0.0009766
		c3.5751953-0.0478516,6.8330078-2.496582,9.6835938-7.2783203c2.2333984-3.7460938,4.3330078-9.1049805,6.2412109-15.9272461
		c2.1005859-7.5126953,3.7919922-16.1269531,5.1240234-24.4345703c7.3505859-4.4223633,13.0537109-9.1938477,17.4003906-14.515625
		c0.1845703,1.8979492,0.5380859,3.6489258,1.09375,5.1611328c1.578125,4.296875,4.546875,6.8071289,8.5859375,7.2597656
		C426.5703125,234.9707031,427.0908203,235,427.6054688,235c4.4521484,0,8.390625-2.2045898,11.4638672-6.4423828
		c0.2880859-0.3969727,0.5673828-0.8110352,0.8378906-1.2416992c2.2783203,1.3657227,4.8417969,2.0263672,7.5908203,1.9179688
		c4.6650391-0.1831055,8.8828125-2.7675781,12.3398438-7.503418c0.6582031,5.3320313,2.0087891,9.0068359,4.0839844,11.1147461
		C465.3183594,234.2636719,467.0546875,235,468.9824219,235c0.2568359,0,0.5175781-0.0131836,0.78125-0.0395508
		c2.9296875-0.2929688,5.4052734-2.065918,7.3583984-5.2700195c0.9550781-1.5664063,1.7861328-3.4619141,2.5107422-5.7368164
		c0.7744141,3.4760742,1.9072266,6.0458984,3.4111328,7.7587891c0.5878906,0.7822266,1.2744141,1.3574219,2.0664063,1.7358398
		c0.1015625,0.0488281,0.2060547,0.0869141,0.3105469,0.1191406c1.0771484,0.5322266,2.2617188,0.7734375,3.5136719,0.7021484
		c4.4316406-0.2558594,8.5126953-4.7197266,12.4775391-13.6474609c3.7880859-8.5283203,6.0957031-18.0708008,6.7119141-20.7924805
		c0.2822266-1.2431641-0.4970703-2.4794922-1.7412109-2.7612305c-1.2431641-0.2822266-2.4794922,0.4975586-2.7617188,1.7412109
		c-0.59375,2.6181641-2.8105469,11.7929688-6.4287109,19.9384766c-1.5361328,3.4599609-3.0830078,6.1723633-4.5976563,8.0620117
		c-1.4423828,1.7993164-2.7998047,2.784668-3.9257813,2.8496094c-0.7861328,0.046875-1.4042969-0.2124023-2.0097656-0.8354492
		c-0.671875-0.9838867-1.8544922-3.980957-1.7070313-12.8369141c0.1210938-7.2944336,1.0888672-15.4492188,1.6083984-19.8305664
		c0.3037109-2.5639648,0.3818359-3.2539063,0.3515625-3.7250977c-0.1289063-1.9897461-1.6357422-3.3730469-3.6679688-3.3730469
		h-0.0273438c-0.5078125,0.0029297-1.125,0.0991211-1.7167969,0.3085938
		c-0.9267578,0.0507813-1.7646484,0.6616211-2.0732422,1.5761719c-0.3496094,1.0327148-0.4804688,2.9106445-0.7441406,7.059082
		c-0.3535156,5.5512695-0.8867188,13.9399414-2.453125,20.8398438c-1.1484375,5.0561523-3.28125,11.159668-6.9248047,11.5239258
		l-0.0517578,0.0039063c-0.2929688-0.2045898-0.6376953-0.3452148-1.0166016-0.3950195
		c-0.0234375-0.0083008-2.3164063-1.222168-1.9824219-14.4848633c0.1259766-5.0200195,0.5966797-10.3662109,1.0449219-14.5981445
		c0.0615234-0.5019531,0.1308594-1.003418,0.1777344-1.5063477l-0.0009766-0.109375
		c0.2050781-1.8339844,0.3945313-3.3896484,0.5302734-4.5c0.1503906-1.230957,0.2177734-1.7880859,0.2373047-2.0917969
		c0.0830078-1.2324219-0.3925781-2.3164063-1.3046875-2.9731445c-1.6181641-1.1665039-3.8037109-0.4697266-4.6679688-0.1157227
		c-0.9189453,0.3759766-1.4667969,1.2792969-1.4365234,2.2177734c-0.4697266,4.0634766-1.4140625,12.3051758-1.4677734,20.4282227
		c-0.0019531,0.3095703,0.0019531,0.6040039,0.0019531,0.9067383c-0.5253906,1.2275391-1.0927734,2.3974609-1.7080078,3.4707031
		c-2.0332031,3.5444336-5.4775391,7.8100586-10.3427734,8.0009766c-1.9511719,0.0756836-3.7226563-0.3945313-5.3056641-1.4067383
		c1.1708984-2.8017578,2.0361328-5.984375,2.5263672-9.3549805c0.6835938-4.7060547,0.5693359-9.3100586-0.3212891-12.9633789
		c-0.1289063-0.53125-0.2724609-1.0249023-0.4257813-1.487793l-0.0527344-0.1870117
		c-0.0332031-0.1137695-0.0771484-0.2211914-0.125-0.3251953c-1.625-4.4130859-4.2734375-5.5605469-5.8261719-5.8378906
		c-0.1103516-0.0195313-0.2197266-0.0361328-0.3291016-0.0493164c0.3388672-1.2084961-0.3515625-2.4711914-1.5595703-2.8339844
		c-2.5517578-0.7661133-6.4726563-0.7460938-10.6621094,3.703125c-0.9492188,1.0083008-1.8496094,2.2075195-2.6982422,3.5336914
		c-0.6396484,0.355957-1.1015625,1.0063477-1.1796875,1.7895508c-0.0097656,0.0986328-0.0273438,0.1943359-0.0380859,0.2929688
		c-1.6416016,3.0488281-3.0029297,6.6328125-3.9199219,10.4873047c-0.3222656,1.3530273-0.5605469,2.6865234-0.7519531,4.0009766
		c-3.5820313,6.2626953-9.140625,11.8945313-16.7685547,16.9799805c0.7255859-5.0449219,1.3144531-9.8344727,1.7822266-14.0263672
		c0.8857422-7.9345703,1.3974609-14.3022461,1.6240234-17.3920898c0.1464844-2.0014648,0.2626953-3.8447266,0.328125-5.190918
		c0.0302734-0.6176758,0.0488281-1.1113281,0.0546875-1.4672852c0.0107422-0.6274414,0.0322266-1.7949219-1.1015625-2.5039063
		c-0.6328125-0.3955078-1.4248047-0.4643555-2.1181641-0.1845703c-1.2021484,0.4858398-1.4970703,1.5610352-1.90625,3.0493164
		c-0.2636719,0.9599609-0.5878906,2.2607422-0.9980469,3.9082031c-1.2558594,5.0395508-3.1533203,12.65625-5.59375,19.5341797
		c-3.6455078,10.2763672-6.5244141,13.1499023-7.9160156,13.9482422c-0.4072266,0.2329102-0.7392578,0.3227539-1.0146484,0.340332
		c-0.0986328-0.0239258-0.2011719-0.0419922-0.3056641-0.0527344c-0.2490234-0.0258789-0.5234375-0.1079102-0.8457031-0.5302734
		c-0.7226563-0.9462891-1.8476563-3.793457-1.2636719-12.2285156c0.4072266-5.8896484,1.4736328-12.378418,2.3310547-17.5922852
		c0.8466797-5.1503906,1.2470703-7.684082,1.0800781-8.9785156c-0.1425781-1.1015625-0.8154297-1.9711914-1.7988281-2.3266602
		c-0.5214844-0.1879883-2.1083984-0.7602539-5.1591797,2.0805664c-0.3740234,0.3481445-0.6220703,0.8105469-0.7050781,1.3149414
		c-0.5996094,3.6464844-2.0097656,13.1040039-2.1640625,22.1547852c-0.0878906,5.140625,0.2548828,9.3564453,1.0185547,12.5302734
		c1.0732422,4.4633789,3.0644531,7.1508789,5.9189453,7.9873047c1.7294922,0.5073242,3.5292969,0.2666016,5.2050781-0.6943359
		c3.1816406-1.8251953,6.1630859-6.4174805,9.0830078-14.0053711c-0.7675781,4.5756836-1.6787109,9.6469727-2.71875,14.8251953
		c-8.0742188,5.3818359-14.9033203,12.5288086-19.4482422,20.4169922
		c-3.1269531,5.4267578-4.9707031,10.8930664-5.3505859,15.5810547c-0.078125,0.2460938-0.1181641,0.5083008-0.1083984,0.7807617
		c0.0019531,0.0551758-0.0009766,0.2270508-0.0029297,0.3642578c-0.0175781,0.9365234-0.0478516,2.5766602,0.4169922,4.265625
		C368.2519531,277.0883789,368.3046875,277.3046875,368.3642578,277.5166016z M436.0292969,198.15625
		c0.3515625-0.4824219,0.6015625-0.5712891,0.7861328-0.5712891l0.1591797,0.0175781
		c0.9140625,0.1630859,1.7773438,1.3164063,2.3994141,3.1523438c1.1191406,4.0322266,0.9414063,9.7163086-0.4863281,15.2749023
		c-0.2519531,0.9824219-0.5380859,1.9379883-0.8505859,2.8598633c-0.1621094-0.2700195-0.3203125-0.5483398-0.4736328-0.8374023
		C433.6962891,210.8164063,433.9667969,200.9946289,436.0292969,198.15625z M422.8789063,218.6118164
		c0.3017578-4.7133789,1.8916016-10.3398438,4.2519531-15.0507813c1.4150391-2.8242188,2.8310547-4.8198242,4.0830078-6.137207
		c-0.9853516,2.3920898-1.4394531,5.6513672-1.2646484,9.3144531c0.2314453,4.8579102,1.4892578,9.6489258,3.5419922,13.4902344
		c0.7207031,1.3496094,1.5302734,2.5571289,2.4160156,3.6162109c-1.0966797,2.0366211-2.3359375,3.7006836-3.6289063,4.8232422
		c-0.7783203,0.675293-1.4902344,1.0751953-2.1230469,1.2973633c-0.1298828,0.0439453-0.2617188,0.0830078-0.3945313,0.1196289
		c-1.296875,0.3266602-2.2080078-0.0874023-2.6025391-0.2670898
		C422.9326172,227.8911133,422.6630859,221.9702148,422.8789063,218.6118164z M377.2490234,258.1831055
		c3.4306641-5.9536133,8.2822266-11.4584961,14.0322266-15.9956055c-2.1845703,9.8989258-4.4394531,17.9228516-6.7109375,23.8730469
		c-3.9248047,10.28125-6.8349609,11.4770508-7.6337891,11.5986328c-1.6113281,0.2451172-2.7685547,0.0712891-3.4384766-0.515625
		c-0.4140625-0.3623047-0.6728516-0.9033203-0.8359375-1.4951172
		C371.7714844,271.3085938,373.4902344,264.7070313,377.2490234,258.1831055z"/>
	<path class="st1" d="M256.1914063,305.8935547c1.1191406,0.6103516,2.2958984-1.5644531,2.6621094-2.7958984l0.0161133-0.0625
		c0.355957-0.6269531,8.5585938-21.9399414,13.4262695-29.3544922
		c7.4296875-11.3193359,11.9335938-12.8994141,13.9599609-12.8291016c0.0976563,0.0029297,0.2041016,0.0107422,0.3164063,0.0253906
		c2.0585938,3.3193359,4.9033203,13.5068359,2.2548828,44.6904297c-0.9179688,10.8076172-2.2470703,21.1044922-3.1982422,27.8310547
		c-0.9023438,4.7099609-1.5361328,7.6464844-1.5517578,7.7158203c-0.2705078,1.2460938,0.5205078,2.4755859,1.765625,2.7460938
		c0.1660156,0.0361328,0.3300781,0.0527344,0.4921875,0.0527344l0.2099609-0.0097656
		c1.0429688,0.0859375,2.0371094-0.5458984,2.3779297-1.5693359c3.4160156-10.2470703,6.3623047-19.9482422,9.2128906-29.3291016
		c1.6044922-5.28125,3.140625-10.3408203,4.6484375-15.1132813c2.2148438-6.0751953,4.7539063-12.4492188,7.5019531-18.1787109
		c5.3291016-11.109375,10.4785156-17.8398438,15.3056641-20.0029297c2.1552734-0.9658203,4.2255859-0.9833984,6.3291016-0.0527344
		c0.1464844,0.0644531,1.4462891,0.7802734,2.0869141,5.9326172c0.453125,3.6533203,0.4736328,8.7792969,0.0605469,15.2373047
		c-0.7744141,12.0947266-2.9199219,26.8886719-4.6435547,38.7763672
		c-0.9111328,6.2841797-1.6992188,11.7119141-2.1425781,15.7265625c-0.2421875,2.1835938-0.3652344,3.8134766-0.3789063,4.9833984
		c-0.0136719,1.2060547-0.0361328,3.2246094,1.625,4.0546875c0.3232422,0.1621094,0.6767578,0.2441406,1.0322266,0.2441406
		c0.2460938,0,0.4921875-0.0400391,0.7304688-0.1191406l0.6464844-0.2158203
		c3.5048828-1.1679688,3.7763672-3.1816406,3.7763672-3.7714844c0-3.0996094,0.9853516-9.890625,2.1259766-17.7539063
		c1.625-11.2070313,3.6474609-25.1542969,4.2822266-37.6826172c0.3535156-6.9716797,0.2412109-12.6396484-0.34375-17.3271484
		c-0.7109375-5.7050781-2.1103516-9.7822266-4.2763672-12.4648438c-1.7939453-2.2226563-4.0771484-3.4433594-6.7841797-3.6289063
		c-10.8203125-0.7421875-17.1435547,9.4345703-20.9599609,17.1542969
		c-3.6269531,7.3339844-6.9189453,16.7568359-10.3476563,27.6064453c-1.4648438,4.0205078-2.7851563,7.9003906-3.9345703,11.3828125
		c0.0556641-0.4208984,0.1103516-0.8417969,0.1640625-1.2646484c1.3818359-10.8574219,2.0400391-20.0947266,1.9560547-27.4550781
		c-0.1113281-9.7197266-1.4931641-16.1494141-4.2255859-19.6572266c-1.5585938-2.0019531-3.6201172-3.1005859-5.9599609-3.1787109
		c-5.3925781-0.1787109-11.2705078,4.6972656-17.9746094,14.9101563c-5.1015625,7.7724609-10.4140625,17.875-13.9082031,30.8535156
		l-0.0019531-0.0087891C254.4282227,303.3828125,255.0957031,305.2958984,256.1914063,305.8935547z"/>
	<path class="st1" d="M353.1162109,331.6298828C354.9443359,334.6240234,358.5107422,338,365.2929688,338l0.2666016-0.0029297
		L365.6943359,338l0.1572266-0.0009766l0.2412109-0.015625c0.4560547-0.0175781,0.9228516-0.0478516,1.4052734-0.0957031
		c5.3076172-0.5244141,10.6474609-4.4775391,15.09375-11.137207c0.453125,1.8217773,1.1005859,3.4716797,1.9599609,4.8793945
		C386.3798828,334.6240234,389.9462891,338,396.7285156,338l0.2666016-0.0029297L397.1298828,338l0.1572266-0.0009766
		l0.2412109-0.015625c0.4560547-0.0175781,0.9228516-0.0478516,1.4052734-0.0957031
		c4.9609375-0.4902344,9.9492188-3.9760742,14.2099609-9.8657227c0.3759766,2.0004883,0.9794922,3.7348633,1.8066406,5.1772461
		c1.5976563,2.7851563,4.0146484,4.4335938,6.9912109,4.765625C422.1513672,337.9882813,422.3642578,338,422.578125,338
		c1.9677734,0,4.1035156-0.9892578,6.359375-2.9472656c3.1259766-2.7128906,6.3466797-7.1904297,8.8691406-12.3222656
		c0.59375,3.0800781,1.3652344,5.7490234,2.3046875,7.8808594c2.3994141,5.4482422,5.5742188,6.7402344,7.8144531,6.8652344
		c3.2294922,0.1777344,6.2832031-1.2587891,9.0712891-4.2734375c2.140625-2.3154297,4.1484375-5.6025391,5.9677734-9.7705078
		c3.171875-7.2636719,5.2275391-16.0292969,6.0244141-21.3291016c0.1894531-1.2607422-0.6787109-2.4365234-1.9394531-2.6259766
		c-1.2607422-0.1884766-2.4375,0.6787109-2.6269531,1.9404297c-0.7548828,5.0205078-2.6972656,13.3154297-5.6894531,20.1679688
		c-1.8730469,4.2900391-5.7080078,11.4267578-10.4316406,11.2841797c-0.21875-0.125-0.4609375-0.21875-0.7226563-0.2675781
		c-0.4375-0.0820313-1.4111328-1.0390625-2.2832031-4.1074219c-0.8466797-2.9775391-1.3945313-7.2890625-1.5859375-12.4677734
		c-0.1132813-3.0634766-0.1025391-6.3681641,0.0214844-9.7978516l0.1904297-0.2109375
		c4.8310547-5.6767578,10.1220703-14.7353516,13.8095703-23.6396484c2.4326172-5.8730469,6.1962891-16.6630859,4.0771484-22.9453125
		c-0.8730469-2.5888672-2.6455078-4.2441406-5.125-4.7861328l-0.1640625-0.0332031
		c-0.1855469-0.0869141-0.3828125-0.1523438-0.59375-0.1875c-0.7841797-0.1318359-1.5458984-0.0947266-2.2871094,0.109375
		c-2.0341797,0.3007813-4.3779297,1.4228516-6.6826172,4.2412109c-2.6289063,3.2138672-4.8720703,8.1943359-6.6689453,14.8027344
		c-1.5957031,5.8691406-2.7714844,12.8378906-3.4003906,20.1533203c-0.0400391,0.4726563-0.078125,0.9453125-0.1142578,1.4160156
		c-0.1767578-0.1884766-0.3535156-0.3691406-0.5322266-0.5410156c-3.2714844-3.1630859-6.3818359-3.3125-8.4150391-2.8818359
		c-5.8623047,1.2451172-9.6523438,8.4814453-11.390625,12.6845703c-1.9941406,4.8242188-3.2695313,10.2773438-3.6386719,15.3041992
		c-3.9326172,7.7553711-9.2021484,13.0717773-14.3154297,13.5776367c-0.4990234,0.0488281-0.9804688,0.0771484-1.4462891,0.0869141
		c-3.6777344-0.0488281-5.9677734-2.7255859-6.8017578-7.9628906c-0.2841797-1.7822266-0.3662109-3.7988281-0.2626953-5.9238281
		c12.5859375-11.6054688,13.9365234-18.6689453,12.734375-22.6142578c-0.7490234-2.4570313-2.7060547-4.1679688-5.1074219-4.4658203
		c-2.3222656-0.2880859-5.875,0.5830078-9.6064453,6.3681641c-2.7607422,4.2792969-4.9121094,10.3125-5.7539063,16.1386719
		c-0.1835938,1.2709961-0.2822266,2.5019531-0.3388672,3.7084961c-3.9824219,8.3432617-9.5029297,14.1357422-14.8525391,14.6645508
		c-0.4990234,0.0488281-0.9804688,0.0771484-1.4462891,0.0869141c-3.6777344-0.0488281-5.9677734-2.7255859-6.8017578-7.9628906
		c-0.2841797-1.7822266-0.3662109-3.7988281-0.2626953-5.9238281c12.5859375-11.6054688,13.9365234-18.6689453,12.734375-22.6142578
		c-0.7490234-2.4570313-2.7060547-4.1679688-5.1074219-4.4658203c-2.3222656-0.2880859-5.875,0.5830078-9.6064453,6.3681641
		c-2.7607422,4.2792969-4.9121094,10.3125-5.7539063,16.1386719
		C349.828125,321.65625,350.6494141,327.5908203,353.1162109,331.6298828z M446.2939453,281.9716797
		c1.3046875-7.3486328,2.9443359-13.4326172,4.7421875-17.5927734c1.5761719-3.6484375,2.9306641-4.9960938,3.6923828-5.3212891
		c0.4365234-0.015625,0.7675781,0.0566406,0.96875,0.1005859c0.6123047,0.1337891,1.2958984,0.4462891,1.7363281,1.7509766
		c1.1787109,3.4931641-0.3046875,10.8583984-3.9677734,19.703125c-2.5439453,6.1425781-5.8681641,12.3369141-9.2304688,17.3134766
		C444.6875,292.5546875,445.3828125,287.1044922,446.2939453,281.9716797z M428.7871094,299.1220703
		c1.6259766-1.2373047,2.7705078-0.9628906,3.5859375-0.5859375c1.5644531,0.7236328,2.9755859,2.4697266,4.0253906,4.4267578
		c-0.0683594,3.53125,0.0048828,6.9316406,0.2177734,10.1181641c-2.1367188,7.4814453-6.6484375,14.9638672-10.7050781,18.484375
		c-1.3613281,1.1816406-2.4257813,1.6884766-3.0878906,1.7939453c-0.0986328-0.0341797-0.2011719-0.0654297-0.3076172-0.0859375
		c-0.5400391-0.1083984-2.1845703-0.4355469-2.9667969-3.8242188
		C417.5302734,320.7021484,423.5390625,303.1152344,428.7871094,299.1220703z M392.1533203,308.0332031
		c1.6435547-4.8759766,3.9697266-8.5898438,6.1142578-9.8632813l0.0195313,0.0566406
		c0.2607422,0.8535156,0.3925781,2.8242188-1.6533203,6.4228516c-1.2695313,2.234375-3.1416016,4.6738281-5.5888672,7.2919922
		C391.3535156,310.6171875,391.7236328,309.3056641,392.1533203,308.0332031z M360.7177734,308.0332031
		c1.6435547-4.8759766,3.9697266-8.5898438,6.1142578-9.8632813l0.0195313,0.0566406
		c0.2607422,0.8535156,0.3925781,2.8242188-1.6533203,6.4228516c-1.2695313,2.234375-3.1416016,4.6738281-5.5888672,7.2919922
		C359.9179688,310.6171875,360.2880859,309.3056641,360.7177734,308.0332031z"/>
	<path class="st1" d="M367.4960938,357.1938477c0.2597656,0.03125,0.5175781,0.0458984,0.7685547,0.0458984
		c1.7373047,0,3.2314453-0.7373047,4.1748047-2.0869141c1.0917969-1.5585938,1.2412109-3.7578125,0.3710938-5.4697266
		c-0.7421875-1.4638672-2.1210938-2.3574219-3.6894531-2.3916016l-0.1640625,0.0019531
		c-3.3876953,0.1376953-4.9960938,2.5332031-5.0869141,4.8447266
		C363.78125,354.3969727,365.1132813,356.9077148,367.4960938,357.1938477z"/>
	<path class="st1" d="M368.7890625,407.0419922c-0.3046875-0.0507813-0.7109375-0.1933594-1.1542969-0.8447266
		c-0.9208984-1.3525391-2.2783203-5.3203125-1.0224609-16.7001953c0.8134766-7.3603516,2.3857422-14.8193359,3.1416016-18.4033203
		c0.1357422-0.6445313,0.2451172-1.1660156,0.3203125-1.5429688c0.2158203-1.078125-0.3583984-2.1582031-1.3740234-2.5820313
		c-0.6425781-0.2695313-2.8798828-1.0683594-4.7070313-0.0976563c-0.9599609,0.5117188-1.6113281,1.4082031-1.8349609,2.5234375
		c-0.0146484,0.0761719-1.5449219,7.8896484-2.1806641,16.9765625c-0.7626953,10.8896484,0.1113281,18.0449219,2.6689453,21.8730469
		c1.1669922,1.7441406,2.6806641,2.8105469,4.5019531,3.1689453l0.2041016,0.0302734
		c0.21875,0.0634766,0.4404297,0.1132813,0.6669922,0.1513672c0.2802734,0.0478516,0.5820313,0.0722656,0.9013672,0.0722656
		c2.6894531,0,6.6757813-1.765625,10.7509766-6.8193359c3.4013672-4.21875,6.2832031-9.9521484,8.6210938-17.1044922
		c0.4609375,1.7011719,0.9433594,3.3076172,1.3671875,4.7099609c0.5439453,1.8017578,1.0136719,3.3574219,1.1923828,4.3027344
		c0.6650391,3.5273438,0.1357422,6.1865234-1.5732422,7.90625c-1.0166016,1.0234375-2.2802734,1.5507813-3.2910156,1.7998047
		c-0.8242188-0.0898438-1.5673828-0.1259766-2.2158203-0.1074219c-1.1162109,0.0332031-2.4882813,0.2207031-3.2070313,1.3828125
		c-0.5205078,0.8417969-0.4775391,1.9013672,0.1113281,2.7001953c0.625,0.8496094,1.6640625,1.2294922,3.3642578,1.2294922
		h0.0537109c0.9345703-0.0048828,2.0107422-0.1289063,3.1611328-0.3632813
		c3.6738281,0.4208984,10.6357422-2.8583984,16.4033203-7.7617188c5.6494141-4.8027344,12.8613281-13.2783203,15.140625-26.3847656
		c0.21875-1.2568359-0.6220703-2.4521484-1.8789063-2.6708984c-1.2568359-0.2167969-2.4511719,0.6230469-2.6699219,1.8798828
		c-2.0429688,11.7460938-8.5136719,19.3486328-13.5830078,23.6582031c-1.1171875,0.9501953-2.2177734,1.7841797-3.2753906,2.5097656
		c0.9589844-4.6484375-0.7480469-10.1738281-2.4091797-15.5498047c-2.5888672-8.3798828-3.4140625-12.46875,0.1992188-13.734375
		c2.3427734-0.8222656,2.7597656-2.453125,2.8300781-3.1152344c0.1376953-1.2871094-0.5253906-2.5449219-1.7294922-3.28125
		c-1.4990234-0.9179688-3.4902344-0.8457031-5.0722656,0.1875l-0.0576172,0.0410156
		c-0.1806641,0.0605469-0.3564453,0.1386719-0.5234375,0.2460938c-2.7470703,1.7548828-4.1201172,4.921875-4.1347656,9.3984375
		C380.6083984,403.1748047,370.5683594,407.3417969,368.7890625,407.0419922z"/>
	<path class="st2" d="M249.7167969,397.2441406c-2.1777344,8.3095703-4.0566406,16.7207031-6.0341797,25.03125
		c-18.5996094-9.7929688-30.5693359-28.7910156-25.5234375-42.0458984c1.4824219-3.6601563-1.4833984-5.7363281-4.8486328-5.3427734
		c-10.6835938,1.1865234-19.3916016,10.0898438-23.8427734,19.4892578
		c-6.9248047,14.5429688-4.2568359,32.0527344,6.3300781,43.0371094c9.5966797,9.8935547,23.84375,15.4326172,39.671875,17.0175781
		c-3.2636719,10.2880859-7.5185547,19.7861328-13.6523438,27.3066406
		c-28.4941406-20.578125-51.6445313,41.9482422-9.3027344,49.9609375
		c9.3994141,1.6826172,20.1835938-0.7919922,29.1845703-9.2001953
		c12.7646484,13.0605469,33.2402344,24.8330078,51.9414063,25.2265625
		c45.1113281,0.7919922,46.6972656-59.8554688,3.8564453-60.5458984c-3.4628906,0-6.7265625,0.4951172-9.6962891,1.7792969
		c0,0-2.6699219,1.7792969-0.7919922,3.5595703c9.1992188,8.2128906-0.4960938,22.6552734-17.1171875,21.5693359
		c-6.2314453-0.4951172-11.6728516-2.4746094-16.7207031-5.5390625
		c10.1923828-16.2246094,14.3457031-36.5068359,17.0175781-56.5888672
		c39.7753906-4.2607422,59.3652344-29.6875,62.4335938-53.6259766
		C339.6474609,342.8339844,266.3369141,332.8417969,249.7167969,397.2441406z M273.0615234,428.4082031
		c0.6943359-6.0341797,3.2636719-29.7783203,9.0048828-45.609375
		C299.8720703,333.1347656,304.5263672,428.7050781,273.0615234,428.4082031z"/>
	<path class="st2" d="M532.5429688,452.84375c-11.1787109,16.6201172-36.6044922,14.8398438-35.4179688,5.8349609
		c46.5976563-5.3427734,34.7265625-32.5498047,7.0273438-33.1435547
		c-21.1171875-0.4941406-34.96875,13.5195313-39.4179688,29.0029297c-2.6308594,1.8164063-6.2548828,2.5224609-8.0371094-0.1132813
		c22.2597656-45.1132813-30.7675781-32.0546875-13.7519531,1.4824219
		c-4.1542969,5.7392578-8.0126953,10.3867188-9.4951172,10.1914063c-2.7714844-0.4951172-4.2548828-28.9882813-2.3740234-31.7558594
		c5.5390625-8.0136719-15.828125-13.3583984-24.9306641-3.7597656c-3.9238281,4.140625-6.3828125,14.359375-6.8935547,25.3496094
		c-1.9501953,1.8632813-4.2265625,3.0732422-7.0654297,3.3417969c0-0.8886719,0.0986328-1.8798828,0.0986328-2.7705078
		c0-19.7861328-15.7314453-40.6601563-36.3085938-26.9082031c-12.5644531-1.3857422-24.6337891,11.5761719-28.6894531,20.8740234
		c-1.8808594,4.4541016-2.8681641,9.2011719-3.0664063,13.8535156c-0.9873047,39.96875,53.3251953,37.6923828,65.5917969,5.7363281
		c3.6308594-0.3300781,6.7929688-1.2548828,9.6181641-2.828125c0.4384766,5.4414063,1.4003906,10.6269531,2.9560547,14.8935547
		c2.6708984,7.3222656,7.125,11.9716797,15.4345703,11.9716797c10.7841797,0,24.140625-13.9492188,33.4384766-29.1845703
		c3.5800781,1.0800781,7.8417969,1.4257813,11.9277344,0.3701172c-0.0136719,15.0410156,9.3203125,28.640625,29.984375,28.8144531
		c21.8652344,0.1982422,36.6035156-18.7978516,46.8925781-37.1005859
		C543.3271484,450.7666016,536.0087891,447.7998047,532.5429688,452.84375z M354.8916016,466.0009766
		c-8.2128906,0.3945313-5.2431641-9.8955078-2.3730469-15.828125c2.4746094,4.2539063,5.6396484,7.9160156,9.4960938,11.0820313
		C360.0341797,464.0214844,357.5605469,465.9023438,354.8916016,466.0009766z M504.2529297,439.7822266
		c11.3769531-6.8251953,8.5078125,8.6074219-7.5185547,9.6962891
		C497.9179688,445.6220703,500.5908203,441.9619141,504.2529297,439.7822266z"/>
	<path class="st3" d="M236,375c6.0986328-14.6943359,12.9541016-36.9404297,12-64c-0.7099609-20.1391602-5.9130859-47.6982422-13-48
		c-7.418457-0.3154297-14.5239258,29.3359375-18,46c-9.5859375-11.8935547-29.9541016-35.8837891-37-32
		c-6.5483398,3.6098633-0.0756836,30.4628906,10,50C202.8847656,351.9838867,222.6230469,366.8691406,236,375z"/>
	<path class="st4" d="M453.6669922,411.3642578C457.0302734,406.1376953,461.3125,398.2490234,464,388
		c4.9472656-18.8671875,3.1015625-40.4296875-1.5615234-41.2631836c-2.3515625-0.4204102-6.5605469,4.2294922-14.7099609,27.0639648
		c-13.7666016-17.8056641-19.2558594-20.7148438-21.5996094-19.5375977
		c-4.6708984,2.3447266-1.328125,23.1577148,8.9619141,38.7836914
		C441.0878906,402.1523438,448.4140625,407.9306641,453.6669922,411.3642578z"/>
	<path class="st3" d="M516.4589844,399.6025391c26.25-16.0908203,46.0878906-43.9301758,41.2929688-49.9985352
		c-2.2148438-2.8046875-10.765625-2.3203125-38.5927734,12.1469727c4.5878906-29.2021484,2.1025391-37.1206055-1.3779297-38.4589844
		c-8.1357422-3.1293945-30.7861328,26.1992188-39.3554688,58.3789063
		c-3.5283203,13.2519531-4.0996094,24.8447266-3.9394531,33.0078125
		C485.0585938,413.0878906,500.5458984,409.3554688,516.4589844,399.6025391z"/>
	<path class="st4" d="M477.1992188,273.15625c-0.6494141,19.6640625,5.9472656,35.6450195,11.4355469,45.7626953
		c18.5126953-14.4316406,27.2578125-29.4091797,31.6259766-39.1508789
		c3.2695313-7.2929688,9.171875-22.9946289,5.1699219-25.6567383c-1.375-0.9145508-6.1455078-1.7714844-26.0966797,18.8671875
		c-1.7138672-5.6625977-8.5449219-27.4179688-14.4453125-26.7641602
		C479.8828125,246.769043,477.5263672,263.2333984,477.1992188,273.15625z"/>
</g>
</svg>
