<?xml version="1.0" encoding="utf-8"?>
<!-- Generator: Adobe Illustrator 22.0.1, SVG Export Plug-In . SVG Version: 6.00 Build 0)  -->
<svg version="1.1" id="Шар_1" xmlns="http://www.w3.org/2000/svg" xmlns:xlink="http://www.w3.org/1999/xlink" x="0px" y="0px"
	 viewBox="0 0 714 714" style="enable-background:new 0 0 714 714;" xml:space="preserve">
<g>
	<path d="M359.5507813,441.8457031c52.1611328-57.5546875,88.8691406-121.0625,109.1044922-188.777832
		c8.8984375-29.7802734,27.4140625-91.7480469,6.7363281-105.2861328
		c-24.0751953-15.7631836-88.7861328,42.9995117-125.4677734,79.7158203
		c-16.8554688-16.3261719-97.4208984-91.8212891-126.1796875-72.421875
		c-15.2280273,10.2724609-13.8325195,44.949707,4.1484375,103.0722656
		c8.7021484,28.1279297,21.4189453,55.5439453,37.7973633,81.4853516
		c23.2299805,36.7944336,53.980957,70.9526367,91.3920898,101.565918c-4.4580078,7.9287109-7.9121094,17.6875-6.7294922,28.359375
		c2.015625,18.1884766,16.6230469,21.8769531,20.1357422,40.1904297
		c4.5175781,23.5546875-11.1992188,35.0869141-14.1738281,58.5332031
		c-2.1660156,17.0673828,2.2587891,41.71875,31.7226563,74.6191406c-7.6923828-8.78125-17.765625-23.046875-22.7138672-42.6787109
		c-2.7919922-11.0820313-5.2802734-20.9550781-2.2685547-32.9033203
		c3.2285156-12.8076172,9.6416016-15.5683594,16.2792969-34.9189453c3.5546875-10.3642578,5.3320313-15.546875,4.7099609-20.3554688
		c-2.1376953-16.5048828-19.3232422-19.2324219-25.1875-39.2568359c-2.3554688-8.0429688-1.4394531-16.171875-1.1865234-19.4072266
		C358.0039063,449.0966797,358.7050781,445.2324219,359.5507813,441.8457031z M235.4140625,152.8544922
		c34.2578125,0,99.9726563,61.9248047,114.1679688,75.7041016l0.3535156,0.3432617l0.3476563-0.3491211
		c29.3085938-29.3657227,100.1103516-95.9453125,124.5615234-79.934082
		c20.0527344,13.1293945,0.9921875,76.921875-7.1503906,104.1708984
		C447.6757813,319.7807617,411.4853516,382.6523438,360.125,439.7099609
		c-0.4667969,0.5195313-0.9267578,1.0410156-1.3964844,1.5595703c-0.3876953-0.3154297-0.765625-0.6357422-1.1523438-0.9521484
		c-64.2192383-52.5761719-107.5332031-113.9555664-128.7290039-182.4677734
		c-17.8344727-57.6489258-19.3632813-91.9482422-4.543457-101.9448242
		C227.421875,153.8012695,231.175293,152.8544922,235.4140625,152.8544922z"/>
	<path d="M299.3984375,255.2353516c-0.2475586-7.9257813,0.5449219-16.6044922,1.1230469-22.9423828
		c0.3012695-3.3037109,0.5395508-5.9140625,0.5283203-7.4023438c-0.0458984-5.8779297-3.3466797-6.796875-4.3569336-6.9394531
		c-0.1708984-0.0234375-0.3413086-0.0361328-0.5107422-0.0400391v-0.0273438
		c-0.3588867,0.0009766-3.5952148,0.109375-6.9033203,3.7441406c-4.0556641,4.4550781-6.4375,12.1621094-7.0795898,22.9033203
		c-0.0634766,1.0742188,0.7553711,1.9990234,1.8305664,2.0625l0.152832,0.0039063
		c1.0083008-0.0185547,1.8486328-0.8105469,1.909668-1.8330078c0.7089844-11.8603516,3.5322266-17.5175781,5.7753906-20.1757813
		c0.5224609-0.6191406,1.0322266-1.0996094,1.5092773-1.4755859c0.1318359,0.5166016,0.2919922,1.6367188,0.2509766,3.9941406
		c-0.0439453,2.5576172-0.3061523,5.8984375-0.5839844,9.4375c-1.0825195,13.7890625-2.4287109,30.9501953,4.8286133,37.890625
		c2.1411133,2.0488281,4.8540039,3.0517578,8.0830078,2.9951172c0.5522461-0.0097656,1.1201172-0.0498047,1.7021484-0.1220703
		c0.9057617-0.1113281,1.7851563-0.3652344,2.6357422-0.7626953c0.2314453-0.0693359,0.4404297-0.1787109,0.621582-0.3173828
		c4.234375-2.3603516,7.7763672-8.3857422,10.7607422-18.2636719c0.7519531-2.4912109,1.4326172-5.0957031,2.0507813-7.7324219
		c-0.5351563,5.2128906-1.2324219,10.609375-2.1757813,15.7167969c-0.6855469,3.703125-1.4589844,7.03125-2.3164063,9.9560547
		c-6.7626953,0.5957031-13.4907227,2.3525391-17.1411133,5.6308594c-1.8588867,1.6708984-2.8408203,3.6210938-2.9169922,5.7958984
		c-0.0048828,0.1298828-0.0048828,0.2587891-0.0024414,0.3867188c-0.0405273,1.8515625,0.5009766,3.671875,1.5830078,5.2460938
		c1.3334961,1.9394531,3.3291016,3.2919922,5.6191406,3.8056641c0.7363281,0.1650391,1.4794922,0.2412109,2.2216797,0.2275391
		c2.6259766-0.046875,5.2490234-1.1943359,7.5644531-3.3466797c3.2001953-2.9746094,5.7109375-7.7080078,7.4707031-14.0791016
		c1.6113281-0.0253906,3.2207031,0.0166016,4.7929688,0.1298828c0.4248047,0.0302734,0.8242188-0.081543,1.1601563-0.2890625
		c0.1738281,1.8574219,0.5410156,3.5483398,1.1015625,4.9960938c1.4453125,3.7294922,4.0761719,5.8779297,7.6123047,6.2109375
		c0.4619141,0.0439453,0.9169922,0.0615234,1.3662109,0.0527344c3.8886719-0.0683594,7.296875-2.0546875,9.9160156-5.8037109
		c0.2460938-0.3515625,0.4824219-0.7177734,0.7128906-1.0976563c2.0117188,1.1582031,4.2617188,1.6953125,6.6601563,1.5585938
		c4.0722656-0.2319336,7.7167969-2.5541992,10.6640625-6.7426758c0.6572266,4.6459961,1.8925781,7.8349609,3.7382813,9.644043
		c1.2421875,1.2177734,2.7695313,1.8349609,4.453125,1.8056641c0.2246094-0.0039063,0.453125-0.0195313,0.6826172-0.046875
		c2.5537109-0.3007813,4.6904297-1.8886719,6.3476563-4.7177734c0.8095703-1.3828125,1.5068359-3.0517578,2.1044922-5.0498047
		c0.7294922,3.0253906,1.7597656,5.2519531,3.0996094,6.7246094c0.5253906,0.6748047,1.1337891,1.1669922,1.8310547,1.4863281
		c0.0898438,0.0400391,0.1816406,0.0712891,0.2734375,0.0986328c0.9492188,0.4492188,1.9873047,0.640625,3.0800781,0.5585938
		c3.8671875-0.2910156,7.3642578-4.2539063,10.6904297-12.1132813c3.1777344-7.5087891,5.046875-15.8798828,5.5429688-18.2666016
		c0.2285156-1.0908203-0.4726563-2.1591797-1.5625-2.3857422c-1.0908203-0.2285156-2.1591797,0.4726563-2.3867188,1.5634766
		c-0.4775391,2.2949219-2.2734375,10.3447266-5.3085938,17.5166016c-1.2890625,3.0458984-2.5996094,5.4394531-3.8925781,7.1132813
		c-1.2324219,1.59375-2.4033203,2.4755859-3.3857422,2.5498047c-0.6855469,0.0527344-1.2304688-0.1640625-1.7685547-0.6992188
		c-0.6025391-0.8486328-1.6816406-3.4492188-1.6884766-11.1875c-0.0068359-6.375,0.7128906-13.5126953,1.0996094-17.3486328
		c0.2255859-2.2441406,0.2841797-2.8476563,0.25-3.2587891c-0.1435547-1.7373047-1.4804688-2.921875-3.2558594-2.890625h-0.0244141
		c-0.4433594,0.0107422-0.9804688,0.1035156-1.4941406,0.2958984c-0.8085938,0.0585938-1.53125,0.6054688-1.7871094,1.4091797
		c-0.2890625,0.9082031-0.375,2.5498047-0.5429688,6.1787109c-0.2226563,4.8535156-0.5585938,12.1914063-1.8212891,18.2431641
		c-0.9248047,4.4345703-2.6943359,9.7978516-5.8720703,10.1728516l-0.0449219,0.0039063
		c-0.2597656-0.1738281-0.5625-0.2919922-0.8945313-0.3300781c-0.0214844-0.0058594-2.0429688-1.0302734-1.9550781-12.6220703
		c0.0332031-4.3461914,0.3564453-8.9746094,0.6796875-12.6611328c0.0507813-0.4755859,0.1074219-0.9506836,0.1425781-1.4267578
		l-0.0029297-0.1083984c0.1503906-1.5996094,0.2910156-2.956543,0.3925781-3.9257813
		c0.1123047-1.078125,0.1630859-1.5644531,0.1757813-1.8310547c0.0527344-1.078125-0.3798828-2.0175781-1.1855469-2.5771484
		c-1.4316406-0.9951172-3.3300781-0.3515625-4.0791016-0.0302734c-0.7988281,0.34375-1.2617188,1.140625-1.2216797,1.9599609
		c-0.3486328,3.5566406-1.0458984,10.7714844-0.9677734,17.8681641c0.0029297,0.2714844,0.0107422,0.5302734,0.015625,0.7958984
		c-0.4404297,1.0791016-0.9169922,2.1088867-1.4375,3.0546875c-1.7207031,3.1279297-4.6650391,6.9072266-8.9121094,7.1484375
		c-1.703125,0.0966797-3.2578125-0.2871094-4.65625-1.1474609c0.9785156-2.4648438,1.6865234-5.2597656,2.0625-8.2099609
		c0.5253906-4.1230469,0.3554688-8.1425781-0.4785156-11.3203125c-0.1220703-0.4619141-0.2548828-0.890625-0.3955078-1.2929688
		l-0.0498047-0.1630859c-0.03125-0.0976563-0.0703125-0.1914063-0.1152344-0.2822266
		c-1.4863281-3.8300781-3.8183594-4.7900391-5.1777344-5.0097656c-0.0976563-0.0146484-0.1933594-0.0283203-0.2890625-0.0380859
		c0.2773438-1.0605469-0.3457031-2.1533203-1.4052734-2.4511719c-2.2412109-0.6308594-5.6669922-0.5527344-9.2578125,3.3984375
		c-2.9189453,3.2109375-5.3232422,8.3818359-6.5966797,14.1875c-0.5371094,2.4453125-0.8183594,4.8305664-0.875,7.0722656
		c-0.2363281-0.1279297-0.5-0.2128906-0.7851563-0.2333984c-1.3144531-0.09375-2.6953125-0.1416016-4.1113281-0.1416016
		c2.4179688-10.7480469,3.8261719-24.5322266,4.5957031-34.6171875c0.4160156-5.4560547,0.7382813-11.0732422,0.9042969-15.8154297
		c0.1582031-4.5224609,0.1269531-6.2802734,0.0400391-7.0654297c0.2783203-0.7910156,0.0205078-1.7041016-0.6943359-2.2226563
		c-0.5996094-0.4345703-1.3632813-0.5283203-2.0449219-0.2460938c-1.2451172,0.5146484-1.6357422,1.8476563-2.1738281,4.5576172
		c-0.3798828,1.9091797-0.8046875,4.5566406-1.296875,7.625c-1.3193359,8.2275391-3.1269531,19.4980469-5.9833984,28.9511719
		c-3.2109375,10.6259766-6.4975586,14.7119141-9.0776367,16.0585938c-2.0493164,0.5224609-3.6699219,0.2607422-4.9472656-0.7939453
		C302.0473633,270.5566406,299.7456055,266.3759766,299.3984375,255.2353516z M317.1132813,281.9326172
		c-1.9199219,4.4863281-4.1347656,7.3994141-6.5844727,8.65625c-1.8125,0.9296875-4.2182617,0.8544922-5.8505859-0.1826172
		c-1.0292969-0.6552734-1.5673828-1.5537109-1.6040039-2.6757813c0.0078125-0.2490234,0.0356445-0.5009766,0.0834961-0.7519531
		c0.0175781-0.09375,0.0263672-0.1865234,0.0302734-0.2792969c0.2104492-0.7949219,0.7089844-1.5410156,1.5117188-2.2607422
		c1.925293-1.7314453,5.4907227-3.1513672,10.0380859-4.0009766c1.0258789-0.1923828,2.0834961-0.3525391,3.1625977-0.4824219
		C317.6425781,280.6455078,317.3808594,281.3046875,317.1132813,281.9326172z M346.4589844,258.3583984
		c0.2988281-0.4277344,0.515625-0.5097656,0.6777344-0.5126953l0.1396484,0.0136719
		c0.8007813,0.1279297,1.5712891,1.1230469,2.1435547,2.7158203c1.0400391,3.5058594,0.9726563,8.4736328-0.1894531,13.3525391
		c-0.2050781,0.8623047-0.4394531,1.7011719-0.6992188,2.5107422c-0.1445313-0.2324219-0.2871094-0.4736328-0.4267578-0.7236328
		C344.6152344,269.4521484,344.7011719,260.8681641,346.4589844,258.3583984z M335.2851563,276.4296875
		c0.1914063-4.1220703,1.4941406-9.0625,3.4824219-13.2138672c1.1933594-2.4892578,2.3994141-4.2539063,3.4726563-5.4238281
		c-0.8222656,2.1044922-1.1699219,4.9580078-0.9609375,8.15625c0.2763672,4.2402344,1.4492188,8.4052734,3.3007813,11.7304688
		c0.6513672,1.1679688,1.3769531,2.2099609,2.1669922,3.1220703c-0.9267578,1.7958984-1.9833984,3.2675781-3.0966797,4.2695313
		c-0.6699219,0.6015625-1.2851563,0.9609375-1.8339844,1.1650391c-0.1132813,0.0400391-0.2275391,0.0761719-0.3427734,0.1103516
		c-1.1279297,0.3056641-1.9306641-0.0429688-2.2783203-0.1933594
		C335.4746094,284.5351563,335.1484375,279.3662109,335.2851563,276.4296875z"/>
	<path d="M429.1035156,299.9931641c-6.171875,0.6435547-10.359375,2.2275391-12.7851563,3.4423828
		c-1.9726563,0.9892578-5.2519531,2.9902344-5.0507813,5.2890625c0.0742188,0.8447266,0.6171875,1.5556641,1.4541016,1.9033203
		c0.5537109,0.2294922,1.2324219,0.3115234,2.0742188,0.2519531c0.2304688-0.0166016,1.2402344,0.921875,1.7001953,3.9208984
		c0.2363281,1.546875,0.2734375,3.2900391,0.078125,5.0878906c-2.6494141-1.0361328-4.7890625-2.7001953-6.4121094-4.3398438
		c-2.0566406-2.0810547-3.8105469-4.6699219-5.1054688-7.5039063c3.1835938-1.8613281,5.8955078-4.3466797,7.7939453-7.1738281
		c2.2714844-3.3798828,3.1416016-6.8623047,2.3876953-9.5576172c-0.4257813-1.5253906-1.3613281-2.7216797-2.7011719-3.4560547
		c-1.34375-0.7363281-3.0371094-0.984375-5.0302734-0.7373047c-3.4189453,0.4238281-5.9599609,2.5546875-7.1542969,5.9980469
		c-1.1582031,3.3388672-1.0244141,7.7236328,0.3779297,12.3466797c0.109375,0.3652344,0.2275391,0.7285156,0.3515625,1.0888672
		c-11.1894531,5.1181641-14.4804688,15.3310547-11.9355469,22.8164063c1.0722656,3.1552734,3.1738281,5.7333984,5.9160156,7.2587891
		c2.8574219,1.5908203,6.3115234,2.0214844,10.0214844,1.2558594c0.1875-0.0390625,0.3769531-0.0810547,0.5664063-0.1259766
		c5.4287109-1.2890625,9.5849609-4.7636719,12.0175781-10.0478516c0.5664063-1.2304688,1.0292969-2.5488281,1.3769531-3.9072266
		c2.3173828,0.3935547,4.7177734,0.3447266,7.15625-0.1591797c0.8525391-0.1748047,1.7109375-0.4072266,2.5703125-0.6953125
		c0.8222656-0.2734375,1.265625-1.1630859,0.9912109-1.9853516c-0.2753906-0.8222656-1.1650391-1.2666016-1.9873047-0.9921875
		c-3.03125,1.0136719-5.7451172,1.1591797-8.140625,0.7617188c0.28125-2.1748047,0.2773438-4.3691406-0.0351563-6.4082031
		c-0.2753906-1.8037109-0.7871094-3.3427734-1.4765625-4.453125c-0.9355469-1.5019531-2.0371094-1.9804688-2.8613281-2.0996094
		c0.6201172-0.5,1.6113281-1.1503906,3.125-1.8466797c2.1308594-0.9775391,5.7753906-2.2607422,11.0429688-2.8095703
		c0.8632813-0.0888672,1.4882813-0.8613281,1.3984375-1.7236328S429.9667969,299.9033203,429.1035156,299.9931641z
		 M403.3193359,294.1474609c0.7412109-2.1376953,2.1083984-3.421875,4.0644531-3.8251953
		c0.1650391-0.0341797,0.3349609-0.0625,0.5087891-0.0849609c2.4257813-0.2998047,3.8808594,0.3476563,4.3212891,1.9228516
		c0.4902344,1.7548828-0.2636719,4.421875-1.9697266,6.9599609c-1.5537109,2.3144531-3.7539063,4.3681641-6.34375,5.9580078
		c-0.0566406-0.1738281-0.1123047-0.3486328-0.1660156-0.5244141
		C402.5419922,300.6181641,402.390625,296.8261719,403.3193359,294.1474609z M404.9248047,334.7041016
		c-7.2646484,1.7246094-11.3779297-2.1464844-12.8056641-6.34375c-2.0791016-6.1191406,0.7480469-14.5273438,10.1376953-18.8896484
		c1.4443359,3.1210938,3.3896484,5.9775391,5.671875,8.2851563c2.4462891,2.4746094,5.1699219,4.2363281,8.0703125,5.2578125
		C414.6386719,328.2167969,411.2060547,333.2119141,404.9248047,334.7041016z"/>
	<path d="M366.8613281,314.6025391c-0.7890625-0.5302734-2.4335938-1.2451172-4.5986328-0.0576172
		c-4.2412109,2.3251953-7.9697266,7.4951172-11.4003906,15.7988281c-2.6064453,6.3125-4.9990234,14.4101563-7.1103516,24.0673828
		c-0.2246094,1.0263672-0.4414063,2.0517578-0.6503906,3.0693359c-0.0175781-1.6640625-0.0449219-3.3486328-0.0820313-5.0410156
		c-0.2333984-10.2900391-0.8232422-18.8730469-1.7558594-25.5107422c-1.2529297-8.9179688-3.046875-14.1806641-5.6455078-16.5585938
		c-1.2509766-1.1464844-2.7285156-1.6416016-4.2724609-1.4287109c-2.7509766,0.3769531-5.0019531,3.2373047-7.0800781,9.0039063
		c-1.5205078,4.2197266-3.0058594,10.1816406-4.4169922,17.7197266
		c-2.4013672,12.8359375-4.1523438,27.7792969-5.3500977,38.2841797c-0.0009766-0.1650391-0.0004883-0.3330078-0.0004883-0.5048828
		c0.0058594-4.5410156,0.3945313-10.2871094,0.8051758-16.3701172c1.2670898-18.7539063,1.7954102-31.3857422-2.25-35.9199219
		c-0.8305664-0.9316406-1.8583984-1.5107422-2.9980469-1.7021484c-0.8852539-0.3613281-1.862793-0.5244141-2.9082031-0.4755859
		c-7.0141602,0.3271484-14.1557617,5.8105469-18.9057617,10.3525391c-2.2685547,2.1669922-4.5449219,4.6591797-6.4125977,7.0146484
		c-2.7216797,3.4345703-2.8930664,4.3544922-2.9584961,4.7001953c-0.1831055,0.984375,0.3085938,1.9433594,1.1958008,2.3330078
		c1.0195313,0.4492188,2.2094727-0.0117188,2.6591797-1.0302734c0.0786133-0.1787109,0.1293945-0.3603516,0.1542969-0.5449219
		c0.6762695-1.2089844,3.847168-5.5283203,8.59375-9.9794922c4.1362305-3.8769531,10.2412109-8.5585938,15.8613281-8.8154297
		c0.3496094-0.0166016,0.6582031,0.015625,0.9379883,0.0917969c0.1787109,0.1142578,0.3759766,0.2041016,0.5874023,0.2578125
		c0.175293,0.1103516,0.3398438,0.2431641,0.4946289,0.4072266c1.4804688,1.5673828,2.2163086,5.3935547,2.184082,11.3710938
		c-0.0302734,5.7753906-0.7695313,12.890625-1.484375,19.7714844c-0.7851563,7.5527344-1.5976563,15.3642578-1.4516602,21.3662109
		c0.1186523,4.8310547,0.8295898,11.4091797,5.6259766,12.7382813c0.5766602,0.1601563,1.1933594,0.0585938,1.6904297-0.2763672
		c0.9013672-0.609375,1.0341797-1.3847656,1.4462891-4.5742188c0.0117188-0.0878906,0.0234375-0.1777344,0.0351563-0.2695313
		c0.1679688-0.3662109,0.2265625-0.7832031,0.1503906-1.2011719c0.2167969-1.7861328,0.4707031-4.015625,0.7539063-6.5087891
		c1.1933594-10.4882813,2.9941406-26.3388672,5.5078125-39.7734375c1.3710938-7.3261719,2.7998047-13.0761719,4.2480469-17.09375
		c1.6523438-4.5830078,2.953125-5.8740234,3.5234375-6.2363281c0.1367188,0.0039063,0.2753906-0.0078125,0.4160156-0.0341797
		c0.0566406-0.0097656,0.0957031-0.0175781,0.2382813,0.1015625c0.8554688,0.7177734,2.9414063,4.0878906,3.8095703,19.8535156
		c0.5771484,10.4775391,0.4658203,23.1650391,0.3759766,33.3613281c-0.0898438,10.1679688-0.15625,17.5146484,0.3974609,20.2080078
		c0.2177734,1.0576172,1.0966797,1.9628906,2.1894531,2.2548828c0.3173828,0.0849609,0.6376953,0.1171875,0.9521484,0.0966797
		c0.5449219-0.0332031,1.0742188-0.2177734,1.5390625-0.5429688c0.5996094-0.2998047,1.0371094-0.8896484,1.109375-1.6025391
		c0.015625-0.1523438,1.5605469-15.4023438,5.0898438-31.5361328c2.0605469-9.4160156,4.3789063-17.2783203,6.8955078-23.3671875
		c2.6074219-6.3105469,5.3720703-10.6279297,8.2373047-12.8740234c0.2207031,0.15625,0.4726563,0.2695313,0.75,0.3271484
		c0.1894531,0.2460938,0.7714844,1.2460938,1.140625,4.5507813c0.2978516,2.6552734,0.3984375,6.3115234,0.3007813,10.8671875
		c-0.1835938,8.5761719-1.0253906,19.0615234-1.7675781,28.3095703c-1.0029297,12.5068359-1.5449219,19.71875-0.9941406,22.484375
		c0.1484375,0.7421875,0.578125,1.3574219,1.2109375,1.734375c0.5664063,0.3359375,1.1660156,0.4121094,1.703125,0.3789063
		c0.5703125-0.0351563,1.0712891-0.1914063,1.3945313-0.2929688l0.0351563-0.0117188
		c0.4472656-0.0976563,0.8359375-0.3417969,1.1171875-0.6777344c0.2890625-0.3046875,0.4863281-0.7021484,0.5390625-1.1503906
		c0.0195313-0.1601563,1.875-16.1669922,2.7324219-32.6240234
		C372.578125,322.4882813,369.6181641,316.4589844,366.8613281,314.6025391z"/>
	<path d="M408.3652344,350.6552734c-1.1054688-0.1455078-2.1181641,0.6308594-2.2636719,1.7363281
		c-1.9179688,14.5195313-9.5175781,27.0361328-16.9433594,27.9013672c-0.4335938,0.0517578-0.8535156,0.0830078-1.2607422,0.0976563
		c-3.2138672,0.0146484-5.2558594-2.2880859-6.0654297-6.8505859c-0.2753906-1.5517578-0.3779297-3.3134766-0.3203125-5.1708984
		c10.8164063-10.3310547,11.8886719-16.5234375,10.7763672-19.9511719
		c-0.6923828-2.1347656-2.4277344-3.5996094-4.5302734-3.8222656c-2.0332031-0.2158203-5.1230469,0.5996094-8.2939453,5.7099609
		c-2.3457031,3.78125-4.1318359,9.0849609-4.7783203,14.1875c-0.7460938,5.8994141,0.0634766,11.0712891,2.2792969,14.5615234
		c1.6445313,2.5878906,4.8105469,5.4824219,10.7363281,5.3779297l0.2333984-0.0068359l0.1171875,0.0009766l0.1376953-0.0029297
		l0.2109375-0.0175781c0.3964844-0.0224609,0.8046875-0.0566406,1.2255859-0.1044922
		c4.7587891-0.5556641,9.4931641-4.2695313,13.3330078-10.4570313c3.5869141-5.7822266,6.1230469-13.2128906,7.1416016-20.9238281
		C410.2460938,351.8154297,409.4697266,350.8017578,408.3652344,350.6552734z M383.2431641,358.3242188
		c1.3603516-4.2841797,3.3359375-7.5644531,5.1894531-8.7109375l0.0185547,0.0498047
		c0.2402344,0.7421875,0.3857422,2.4619141-1.3457031,5.6367188c-1.0742188,1.9716797-2.6728516,4.1308594-4.7705078,6.4560547
		C382.5839844,360.59375,382.8876953,359.4423828,383.2431641,358.3242188z"/>
	<path d="M271.6977539,176.1464844c21.6333008,13.6069336,32.621582,26.3803711,33.3935547,25.5976563
		c0.8129883-0.8251953-9.9726563-16.4394531-28.371582-28.2202148
		c-17.4804688-11.1923828-35.3139648-14.7504883-35.71875-13.7304688
		C240.6474609,160.6835938,253.6787109,164.8129883,271.6977539,176.1464844z"/>
	<path d="M230.546875,237.6889648c0.8022461-0.2294922-4.7236328-12.8505859-5.6762695-34.5322266
		c-1.0146484-23.0917969,3.9042969-39.4804688,2.6787109-39.7480469c-1.0097656-0.2202148-5.6728516,10.6162109-7.1835938,23.777832
		C217.2119141,214.6694336,229.4438477,238.0039063,230.546875,237.6889648z"/>
	<path d="M260.5214844,308.9599609c0.4863281-0.2607422-1.9067383-4.8847656-8.8164063-20.9619141
		c-11.9023438-27.6943359-15.855957-39.6948242-16.7426758-39.4057617
		c-0.9267578,0.3017578,1.8515625,13.9072266,7.2460938,27.7470703
		C249.421875,294.847168,259.6245117,309.4404297,260.5214844,308.9599609z"/>
	<path d="M407.8740234,186.4189453c25.8291016-21.4804688,44.7890625-30.1499023,44.2197266-31.1875
		c-0.5908203-1.0737305-21.9169922,6.375-41.8203125,23.5429688
		c-12.1787109,10.5043945-21.3671875,22.5273438-20.7089844,23.1713867
		C390.0957031,202.4667969,396.9833984,195.4765625,407.8740234,186.4189453z"/>
	<path d="M468,232c1.0253906,0.3027344,9.8613281-16.9882813,11-39c0.9667969-18.6904297-3.9609375-34.1293945-5-34
		c-1.0341797,0.1289063,2.1386719,15.6396484,0,39C472.0625,219.168457,467.1396484,231.7460938,468,232z"/>
	<path d="M442.7841797,298.1484375c0.6835938,0.3569336,8.2910156-10.4692383,13.9238281-24.7412109
		c6.0341797-15.2890625,7.8154297-29.5,7.0800781-29.6889648c-0.5615234-0.1445313-2.4472656,7.921875-8.0429688,22.9482422
		C448.2021484,286.9189453,442.1181641,297.7998047,442.7841797,298.1484375z"/>
</g>
</svg>
