<?xml version="1.0" encoding="utf-8"?>
<!-- Generator: Adobe Illustrator 22.0.1, SVG Export Plug-In . SVG Version: 6.00 Build 0)  -->
<svg version="1.1" id="Шар_1" xmlns="http://www.w3.org/2000/svg" xmlns:xlink="http://www.w3.org/1999/xlink" x="0px" y="0px"
	 viewBox="0 0 714 714" style="enable-background:new 0 0 714 714;" xml:space="preserve">
<style type="text/css">
	.st0{fill:#FFFFFF;}
	.st1{fill:#F9CEA7;}
	.st2{fill:#EA7878;}
	.st3{fill:#A22E39;}
</style>
<g>
	<path class="st0" d="M491.6396484,111.0668945c-5.59375-4.0654297-11.9414063-4.2329102-16.5478516-4.3544922
		c-10.6308594-0.2802734-20.3544922,3.6220703-40.2353516,17.6025391
		c-16.1835938,11.3798828-27.578125,21.3378906-30.8271484,24.1938477
		c-10.9775391,9.6489258-25.7402344,23.0820313-42.796875,40.0317383
		c-16.2167969-13.7338867-29.1679688-24.8735352-37.734375-32.2783203
		c-17.2910156-14.9438477-21.7207031-18.9902344-30.8457031-24.7973633
		c-14.1015625-8.9741211-27.6728516-14.6816406-42.5341797-16.9897461
		c-17.0634766-2.6503906-23.5146484,1.09375-26.1328125,2.9941406c-5.3417969,3.8774414-7.6933594,9.4868164-9.0507813,13.6743164
		c-8.4892578,26.190918,0.6523438,62.3496094,1.1298828,64.1767578c9.7890625,37.4384766,14.9941406,57.34375,28.5390625,85.6557617
		c17.234375,36.0263672,35.75,60.1113281,41.7363281,67.6850586c7.2080078,9.1181641,23.1884766,28.3710938,47.3212891,49.0039063
		c8.9462891,7.6484375,16.9423828,13.7167969,23.1269531,18.1757813c-2.0234375,2.7207031-4.7294922,7.0126953-6.5322266,12.7851563
		c-1.1738281,3.7568359-4.1894531,15.2607422,0.4755859,27.0224609c3.4130859,8.6074219,6.7314453,6.7412109,14.7119141,20.0126953
		c8.2080078,13.6503906,7.4121094,20.1386719,7.1425781,21.8369141c-0.4619141,2.8994141-1.2480469,3.4902344-5.703125,11.9257813
		c-5.2050781,9.8564453-7.9003906,14.9599609-9.7763672,20.4443359
		c-3.8554688,11.2744141-3.2060547,21.1132813-2.9462891,24.5478516
		c0.9306641,12.2978516,5.3378906,20.7832031,9.8085938,29.3916016c3.9599609,7.625,10.53125,19.9599609,24.1943359,30.828125
		c8.0605469,6.4101563,15.8525391,10.1347656,21.3339844,12.2939453
		c-14.1669922-18.7119141-21.4414063-35.9941406-25.3359375-47.7011719
		c-4.5771484-13.7568359-7.5576172-23.1162109-4.8320313-34.546875c1.4013672-5.8769531,5.0029297-12.7177734,12.2050781-26.4003906
		c8.1845703-15.5458984,8.8525391-14.5419922,9.8066406-18.7558594
		c2.9716797-13.1220703-2.2832031-28.2490234-10.8027344-37.8212891
		c-5.7421875-6.4521484-8.7001953-5.5849609-12.8896484-12.4433594c-1.8896484-3.09375-6.4433594-11.7109375-4.6230469-22.7246094
		c1.0664063-6.4511719,3.8876953-11.1142578,5.6728516-13.6152344
		c12.8681641-12.1904297,28.7548828-28.9414063,44.7216797-50.6240234
		c19.5771484-26.5839844,30.7822266-49.0478516,37.7441406-63.171875
		c6.203125-12.5849609,19.7558594-41.5126953,30.6757813-80.7861328c1.7539063-6.3081055,8.3574219-30.6030273,9.8769531-62.6806641
		C503.0117188,128.3134766,499.5917969,116.8457031,491.6396484,111.0668945z M477.1738281,224.9326172
		c-13.8193359,46.2426758-42.5722656,115.0258789-108.3378906,187.8427734
		c-0.9707031,3.6376953-1.7949219,7.8554688-2.1660156,12.6054688c-0.2529297,3.2353516-1.1689453,11.3642578,1.1865234,19.4072266
		c5.8642578,20.0244141,23.0498047,22.7519531,25.1875,39.2568359c0.6220703,4.8085938-1.1552734,9.9912109-4.7099609,20.3554688
		c-6.6376953,19.3505859-13.0507813,22.1113281-16.2792969,34.9189453
		c-3.0117188,11.9482422-0.5234375,21.8212891,2.2685547,32.9033203
		c4.9482422,19.6318359,15.0214844,33.8974609,22.7138672,42.6787109
		c-29.4638672-32.9003906-33.8886719-57.5517578-31.7226563-74.6191406
		c2.9746094-23.4462891,18.6914063-34.9785156,14.1738281-58.5332031
		c-3.5126953-18.3134766-18.1201172-22.0019531-20.1357422-40.1904297
		c-1.2041016-10.8671875,2.3974609-20.7919922,6.9736328-28.796875
		C281.3105469,343.1738281,250.1865234,271.4262695,237.3701172,230
		c-6.0869141-19.6772461-26.9892578-87.2358398-4.3466797-102.5097656
		c29.4941406-19.8955078,114.3046875,61.4462891,125.90625,72.7094727
		c23.8125-23.8598633,99.1533203-97.0449219,125.1884766-79.9995117
		C504.4853516,133.5351563,485.7451172,196.246582,477.1738281,224.9326172z"/>
	<path class="st1" d="M366.3261719,412.7617188c-4.5761719,8.0048828-8.1777344,17.9296875-6.9736328,28.796875
		c2.015625,18.1884766,16.6230469,21.8769531,20.1357422,40.1904297
		c4.5175781,23.5546875-11.1992188,35.0869141-14.1738281,58.5332031
		c-2.1660156,17.0673828,2.2587891,41.71875,31.7226563,74.6191406c-7.6923828-8.78125-17.765625-23.046875-22.7138672-42.6787109
		c-2.7919922-11.0820313-5.2802734-20.9550781-2.2685547-32.9033203
		c3.2285156-12.8076172,9.6416016-15.5683594,16.2792969-34.9189453c3.5546875-10.3642578,5.3320313-15.546875,4.7099609-20.3554688
		c-2.1376953-16.5048828-19.3232422-19.2324219-25.1875-39.2568359c-2.3554688-8.0429688-1.4394531-16.171875-1.1865234-19.4072266
		c0.3710938-4.75,1.1953125-8.9677734,2.1660156-12.6054688c-0.3554688,0.3945313-0.6972656,0.7861328-1.0546875,1.1806641
		C367.2910156,413.5585938,366.8125,413.1601563,366.3261719,412.7617188z"/>
	<path class="st2" d="M357.5361328,248.3662109c0.2587891-0.8095703,0.4931641-1.6474609,0.6982422-2.5097656
		c1.1621094-4.8798828,1.2304688-9.8466797,0.1904297-13.3525391c-0.5722656-1.59375-1.3427734-2.5878906-2.1435547-2.7167969
		l-0.140625-0.0126953c-0.1611328,0.0019531-0.3789063,0.0839844-0.6777344,0.5117188
		c-1.7578125,2.5107422-1.84375,11.0947266,1.6464844,17.3564453
		C357.2480469,247.8925781,357.390625,248.1337891,357.5361328,248.3662109z"/>
	<path class="st2" d="M348.2001953,258.0820313c0.3476563,0.1494141,1.1494141,0.4980469,2.2783203,0.1933594
		c0.1152344-0.0341797,0.2285156-0.0703125,0.3427734-0.1113281c0.5498047-0.2041016,1.1640625-0.5644531,1.8339844-1.1660156
		c1.1123047-1.0009766,2.1689453-2.4736328,3.0966797-4.2685547c-0.7910156-0.9121094-1.515625-1.9541016-2.1669922-3.1230469
		c-1.8525391-3.3242188-3.0244141-7.4902344-3.3017578-11.7294922c-0.2089844-3.1982422,0.1386719-6.0527344,0.9619141-8.1572266
		c-1.0732422,1.1699219-2.2802734,2.9355469-3.4716797,5.4238281c-1.9902344,4.1523438-3.2929688,9.0917969-3.484375,13.2138672
		C344.1533203,251.2939453,344.4794922,256.4628906,348.2001953,258.0820313z"/>
	<path class="st2" d="M313.7050781,256.3662109c-0.8027344,0.7207031-1.3017578,1.4658203-1.5117188,2.2617188
		c-0.0039063,0.0927734-0.0117188,0.1855469-0.0302734,0.2802734c-0.0478516,0.2509766-0.0751953,0.5019531-0.0830078,0.7509766
		c0.0361328,1.1210938,0.5742188,2.0205078,1.6035156,2.6748047c1.6328125,1.0371094,4.0380859,1.1123047,5.8505859,0.1826172
		c2.4492188-1.2568359,4.6650391-4.1689453,6.5830078-8.65625c0.2685547-0.6269531,0.53125-1.2861328,0.7880859-1.9755859
		c-1.0791016,0.1289063-2.1367188,0.2890625-3.1621094,0.4814453
		C319.1953125,253.2158203,315.6298828,254.6357422,313.7050781,256.3662109z"/>
	<path class="st2" d="M484.1181641,120.2001953c-26.0351563-17.0454102-101.3759766,56.1396484-125.1884766,79.9995117
		c-11.6015625-11.2631836-96.4121094-92.6049805-125.90625-72.7094727
		C210.3808594,142.7641602,231.2832031,210.3227539,237.3701172,230
		c12.8164063,41.4262695,43.9404297,113.1738281,128.9560547,182.7617188
		c0.4863281,0.3984375,0.9648438,0.796875,1.4550781,1.1943359c0.3574219-0.3945313,0.6992188-0.7861328,1.0546875-1.1806641
		c65.765625-72.8168945,94.5185547-141.6000977,108.3378906-187.8427734
		C485.7451172,196.246582,504.4853516,133.5351563,484.1181641,120.2001953z M419.2734375,150.7744141
		c19.9033203-17.1679688,41.2294922-24.6166992,41.8203125-23.5429688c0.5693359,1.0375977-18.390625,9.7070313-44.2197266,31.1875
		c-10.890625,9.0576172-17.7783203,16.0478516-18.3095703,15.5268555
		C397.90625,173.3017578,407.0947266,161.2788086,419.2734375,150.7744141z M317.8701172,244.8232422
		c2.5800781-1.3466797,5.8671875-5.4306641,9.0771484-16.0566406c2.8574219-9.4550781,4.6640625-20.7246094,5.9833984-28.953125
		c0.4921875-3.0664063,0.9169922-5.7158203,1.2958984-7.6230469c0.5390625-2.7109375,0.9296875-4.0439453,2.1757813-4.5595703
		c0.6796875-0.28125,1.4433594-0.1884766,2.0439453,0.2460938c0.7148438,0.5195313,0.9736328,1.4326172,0.6943359,2.2236328
		c0.0859375,0.7851563,0.1181641,2.5419922-0.0410156,7.0654297c-0.1660156,4.7421875-0.4863281,10.3583984-0.9042969,15.8154297
		c-0.7695313,10.0839844-2.1757813,23.8691406-4.59375,34.6171875c1.4160156-0.0009766,2.796875,0.046875,4.109375,0.140625
		c0.2861328,0.0205078,0.5507813,0.1049805,0.7861328,0.2333984c0.0556641-2.2412109,0.3369141-4.6259766,0.8740234-7.0712891
		c1.2734375-5.8056641,3.6787109-10.9765625,6.5976563-14.1875c3.5908203-3.9521484,7.0166016-4.0302734,9.2578125-3.3994141
		c1.0595703,0.2978516,1.6826172,1.390625,1.4042969,2.4511719c0.0957031,0.0107422,0.1923828,0.0234375,0.2890625,0.0380859
		c1.3603516,0.2197266,3.6914063,1.1806641,5.1796875,5.0097656c0.0429688,0.0917969,0.0830078,0.1845703,0.1142578,0.2822266
		l0.0498047,0.1640625c0.140625,0.4013672,0.2734375,0.8300781,0.3945313,1.2929688
		c0.8339844,3.1767578,1.0039063,7.1972656,0.4785156,11.3193359c-0.375,2.9511719-1.0820313,5.7451172-2.0625,8.2119141
		c1.3984375,0.8583984,2.953125,1.2421875,4.65625,1.1455078c4.2480469-0.2412109,7.1914063-4.0205078,8.9121094-7.1474609
		c0.5205078-0.9462891,0.9970703-1.9755859,1.4375-3.0551758c-0.0048828-0.2661133-0.0126953-0.5244141-0.015625-0.7963867
		c-0.078125-7.0966797,0.6191406-14.3095703,0.9677734-17.8681641c-0.0400391-0.8183594,0.4228516-1.6162109,1.2216797-1.9599609
		c0.7480469-0.3203125,2.6474609-0.9638672,4.078125,0.0302734c0.8066406,0.5595703,1.2392578,1.4990234,1.1865234,2.5771484
		c-0.0126953,0.2666016-0.0634766,0.7539063-0.1757813,1.8320313c-0.1015625,0.96875-0.2421875,2.3242188-0.3925781,3.9228516
		L382.953125,230.875c-0.0361328,0.480957-0.0927734,0.9609375-0.1435547,1.440918
		c-0.3232422,3.6850586-0.6464844,8.3071289-0.6787109,12.6479492c-0.0878906,11.5908203,1.9345703,12.6162109,1.9550781,12.6220703
		c0.3320313,0.0390625,0.6347656,0.15625,0.8945313,0.3300781l0.0449219-0.0039063
		c3.1777344-0.375,4.9472656-5.7382813,5.8720703-10.1738281c1.2626953-6.0517578,1.5986328-13.3896484,1.8212891-18.2431641
		c0.1679688-3.6279297,0.2539063-5.2705078,0.5429688-6.1787109c0.2558594-0.8037109,0.9775391-1.3505859,1.7861328-1.4082031
		c0.5146484-0.1923828,1.0517578-0.2851563,1.4951172-0.2958984h0.0244141
		c1.7753906-0.03125,3.1123047,1.1523438,3.2558594,2.8896484c0.0341797,0.4111328-0.0244141,1.015625-0.25,3.2597656
		c-0.3867188,3.8349609-1.1064453,10.9736328-1.1005859,17.3486328c0.0078125,7.7373047,1.0878906,10.3378906,1.6894531,11.1865234
		c0.5371094,0.5361328,1.0820313,0.7529297,1.7675781,0.7001953c0.9833984-0.0742188,2.1542969-0.9570313,3.3867188-2.5507813
		c1.2939453-1.6738281,2.6035156-4.0673828,3.8925781-7.1132813c3.0351563-7.171875,4.8300781-15.2207031,5.3085938-17.5166016
		c0.2275391-1.0908203,1.2949219-1.7919922,2.3867188-1.5644531c1.0898438,0.2275391,1.7900391,1.2958984,1.5625,2.3867188
		c-0.4960938,2.3876953-2.3652344,10.7578125-5.5429688,18.2666016
		c-3.3261719,7.8603516-6.8232422,11.8222656-10.6904297,12.1132813c-1.0927734,0.0820313-2.1308594-0.109375-3.0800781-0.5585938
		c-0.0917969-0.0273438-0.1835938-0.0585938-0.2744141-0.0986328c-0.6972656-0.3193359-1.3046875-0.8115234-1.8300781-1.4863281
		c-1.3398438-1.4716797-2.3701172-3.6992188-3.0996094-6.7236328c-0.5976563,1.9970703-1.2949219,3.6660156-2.1054688,5.0498047
		c-1.65625,2.828125-3.7919922,4.4160156-6.3466797,4.7167969c-0.2294922,0.0273438-0.4580078,0.0429688-0.6826172,0.046875
		c-1.6835938,0.0292969-3.2109375-0.5878906-4.453125-1.8056641c-1.8447266-1.8085938-3.0810547-4.9970703-3.7382813-9.6430664
		c-2.9472656,4.1879883-6.5908203,6.5097656-10.6621094,6.7416992c-2.4003906,0.1376953-4.6503906-0.4003906-6.6621094-1.5585938
		c-0.2285156,0.3798828-0.4667969,0.7460938-0.7128906,1.0976563c-2.6191406,3.7490234-6.0263672,5.7353516-9.9150391,5.8046875
		c-0.4492188,0.0078125-0.9052734-0.0097656-1.3662109-0.0537109c-3.5361328-0.3330078-6.1679688-2.4804688-7.6132813-6.2099609
		c-0.5605469-1.4482422-0.9267578-3.1386719-1.1005859-4.9960938c-0.3359375,0.2075195-0.7353516,0.3193359-1.1591797,0.2890625
		c-1.5722656-0.1142578-3.1826172-0.15625-4.7949219-0.1308594c-1.7597656,6.3710938-4.2695313,11.1054688-7.4697266,14.0800781
		c-2.3154297,2.1523438-4.9384766,3.2988281-7.5634766,3.3466797c-0.7421875,0.0126953-1.4863281-0.0625-2.2226563-0.2275391
		c-2.2900391-0.5146484-4.2851563-1.8671875-5.6191406-3.8056641c-1.0810547-1.5742188-1.6230469-3.3955078-1.5820313-5.2451172
		c-0.0029297-0.1279297-0.0019531-0.2568359,0.0019531-0.3867188c0.0761719-2.1757813,1.0576172-4.1269531,2.9169922-5.796875
		c3.6503906-3.2792969,10.3779297-5.0361328,17.140625-5.6318359c0.8574219-2.9248047,1.6318359-6.2529297,2.3154297-9.9560547
		c0.9453125-5.1064453,1.6425781-10.5029297,2.1767578-15.7158203c-0.6181641,2.6357422-1.2978516,5.2412109-2.0517578,7.7324219
		c-2.984375,9.8789063-6.5253906,15.9033203-10.7597656,18.2626953c-0.1816406,0.1396484-0.390625,0.2490234-0.6210938,0.3183594
		c-0.8515625,0.3964844-1.7294922,0.6503906-2.6367188,0.7617188c-0.5820313,0.0722656-1.1494141,0.1123047-1.7011719,0.1220703
		c-3.2285156,0.0566406-5.9423828-0.9462891-8.0839844-2.9941406c-7.2558594-6.9404297-5.9101563-24.1015625-4.828125-37.890625
		c0.2773438-3.5380859,0.5400391-6.8808594,0.5839844-9.4384766c0.0410156-2.3564453-0.1191406-3.4765625-0.2509766-3.9931641
		c-0.4765625,0.375-0.9863281,0.8574219-1.5087891,1.4755859c-2.2441406,2.6582031-5.0664063,8.3154297-5.7753906,20.1757813
		c-0.0605469,1.0214844-0.9023438,1.8144531-1.9101563,1.8320313l-0.1523438-0.0029297
		c-1.0761719-0.0644531-1.8945313-0.9882813-1.8300781-2.0625c0.6416016-10.7421875,3.0234375-18.4472656,7.0791016-22.9042969
		c3.3076172-3.6337891,6.5439453-3.7421875,6.9033203-3.7421875v0.0273438
		c0.1689453,0.0029297,0.3398438,0.015625,0.5097656,0.0390625c1.0107422,0.1425781,4.3125,1.0615234,4.3574219,6.9394531
		c0.0117188,1.4882813-0.2265625,4.0976563-0.5283203,7.4033203c-0.5791016,6.3369141-1.3701172,15.0146484-1.1220703,22.9414063
		c0.3466797,11.140625,2.6484375,15.3203125,4.5175781,16.8652344
		C314.2001953,245.0849609,315.8203125,245.3457031,317.8701172,244.8232422z M239.546875,209.6889648
		c-1.1035156,0.3149414-13.3349609-23.0195313-10.1816406-50.5024414
		c1.5117188-13.1616211,6.1738281-23.9980469,7.1835938-23.777832c1.2265625,0.2675781-3.6933594,16.65625-2.6777344,39.7480469
		C234.8232422,196.8383789,240.3496094,209.4594727,239.546875,209.6889648z M269.5214844,280.9599609
		c-0.8964844,0.4804688-11.0996094-14.112793-18.3125-32.6206055c-5.3945313-13.8398438-8.1738281-27.4453125-7.2460938-27.7470703
		c0.8867188-0.2890625,4.8398438,11.7114258,16.7421875,39.4057617
		C267.6152344,276.0751953,270.0078125,280.6992188,269.5214844,280.9599609z M250.0009766,131.793457
		c0.4052734-1.0200195,18.2382813,2.5380859,35.71875,13.7304688
		c18.3994141,11.7807617,29.1845703,27.3950195,28.3720703,28.2202148
		c-0.7724609,0.7827148-11.7607422-11.9907227-33.3945313-25.5976563
		C262.6787109,136.8129883,249.6474609,132.6835938,250.0009766,131.793457z M380.0009766,324.8203125
		c-0.8564453,16.4560547-2.7119141,32.4619141-2.7314453,32.6220703c-0.0527344,0.4492188-0.25,0.8466797-0.5400391,1.1513672
		c-0.2802734,0.3359375-0.6689453,0.5800781-1.1162109,0.6787109l-0.0361328,0.0107422
		c-0.3232422,0.1015625-0.8232422,0.2578125-1.3935547,0.2929688c-0.5380859,0.0332031-1.1367188-0.0429688-1.703125-0.3789063
		c-0.6328125-0.3769531-1.0625-0.9921875-1.2109375-1.7353516c-0.5507813-2.7646484-0.0097656-9.9765625,0.9931641-22.4833984
		c0.7431641-9.2480469,1.5839844-19.7333984,1.7666016-28.3095703c0.0986328-4.5556641-0.0019531-8.2119141-0.2988281-10.8671875
		c-0.3691406-3.3046875-0.9511719-4.3046875-1.140625-4.5507813c-0.2783203-0.0576172-0.5302734-0.1708984-0.7519531-0.3271484
		c-2.8632813,2.2460938-5.6289063,6.5634766-8.2363281,12.875c-2.515625,6.0878906-4.8359375,13.9501953-6.8955078,23.3662109
		c-3.5292969,16.1337891-5.0742188,31.3837891-5.0888672,31.5361328c-0.0722656,0.7138672-0.5097656,1.3037109-1.109375,1.6035156
		c-0.4658203,0.3242188-0.9941406,0.5097656-1.5390625,0.5419922c-0.3144531,0.0205078-0.6347656-0.0117188-0.953125-0.0957031
		c-1.0917969-0.2929688-1.9707031-1.1982422-2.1894531-2.2558594c-0.5527344-2.6933594-0.4873047-10.0400391-0.3984375-20.2080078
		c0.0908203-10.1962891,0.203125-22.8837891-0.375-33.3613281c-0.8691406-15.765625-2.953125-19.1357422-3.8085938-19.8525391
		c-0.1445313-0.1201172-0.1816406-0.1123047-0.2402344-0.1025391c-0.1386719,0.0263672-0.2792969,0.0380859-0.4160156,0.0341797
		c-0.5683594,0.3623047-1.8701172,1.6542969-3.5214844,6.2363281c-1.4492188,4.0175781-2.8769531,9.7675781-4.2480469,17.0947266
		c-2.5136719,13.4345703-4.3144531,29.2841797-5.5078125,39.7724609c-0.2832031,2.4941406-0.5371094,4.7226563-0.7548828,6.5097656
		c0.0771484,0.4169922,0.0185547,0.8349609-0.1494141,1.2011719c-0.0117188,0.0908203-0.0234375,0.1806641-0.0351563,0.2685547
		c-0.4121094,3.1894531-0.5449219,3.9648438-1.4472656,4.5742188c-0.4960938,0.3349609-1.1132813,0.4365234-1.6894531,0.2763672
		c-4.796875-1.328125-5.5078125-7.9072266-5.6269531-12.7382813c-0.1455078-6.0009766,0.6669922-13.8134766,1.453125-21.3662109
		c0.7138672-6.8808594,1.453125-13.9960938,1.4833984-19.7714844c0.0322266-5.9775391-0.7041016-9.8037109-2.1845703-11.3701172
		c-0.1542969-0.1650391-0.3183594-0.2978516-0.4941406-0.4082031c-0.2119141-0.0537109-0.4082031-0.1425781-0.5878906-0.2578125
		c-0.2792969-0.0761719-0.5878906-0.1074219-0.9375-0.0908203c-5.6210938,0.2558594-11.7255859,4.9384766-15.8613281,8.8154297
		c-4.7460938,4.4511719-7.9179688,8.7695313-8.59375,9.9794922c-0.0253906,0.1835938-0.0761719,0.3652344-0.1542969,0.5449219
		c-0.4492188,1.0175781-1.6386719,1.4794922-2.6591797,1.0302734c-0.8876953-0.3896484-1.3789063-1.3496094-1.1953125-2.3330078
		c0.0654297-0.3466797,0.2373047-1.2666016,2.9580078-4.7001953c1.8671875-2.3564453,4.1435547-4.8476563,6.4130859-7.015625
		c4.7490234-4.5419922,11.8916016-10.0253906,18.9052734-10.3525391c1.0449219-0.0488281,2.0234375,0.1142578,2.9082031,0.4765625
		c1.1396484,0.1904297,2.1679688,0.7705078,2.9980469,1.7011719c4.0449219,4.5351563,3.5175781,17.1660156,2.25,35.9199219
		c-0.4101563,6.0830078-0.7988281,11.8291016-0.8046875,16.3701172c0,0.171875-0.0009766,0.3398438,0,0.5039063
		c1.1972656-10.5039063,2.9472656-25.4462891,5.3496094-38.2832031c1.4101563-7.5380859,2.8964844-13.4990234,4.4179688-17.71875
		c2.078125-5.7666016,4.328125-8.6279297,7.0800781-9.0048828c1.5429688-0.2119141,3.0205078,0.2822266,4.2714844,1.4287109
		c2.5986328,2.3779297,4.3925781,7.640625,5.6464844,16.5585938c0.9316406,6.6386719,1.5214844,15.2207031,1.7548828,25.5107422
		c0.0380859,1.6933594,0.0654297,3.3779297,0.0830078,5.0410156c0.2089844-1.0175781,0.4248047-2.0419922,0.6503906-3.0693359
		c2.109375-9.6572266,4.5029297-17.7548828,7.109375-24.0673828c3.4306641-8.3037109,7.1601563-13.4726563,11.4003906-15.7988281
		c2.1650391-1.1875,3.8105469-0.4726563,4.5996094,0.0576172
		C378.6230469,288.3867188,381.5839844,294.4160156,380.0009766,324.8203125z M419.1054688,324.8476563
		c-1.0195313,7.7119141-3.5556641,15.1425781-7.1425781,20.9248047c-3.8388672,6.1875-8.5742188,9.9013672-13.3320313,10.4560547
		c-0.421875,0.0478516-0.8291016,0.0820313-1.2265625,0.1044922l-0.2109375,0.0175781l-0.1376953,0.0029297l-0.1171875-0.0009766
		l-0.2333984,0.0068359c-5.9257813,0.1044922-9.0917969-2.7890625-10.7353516-5.3779297
		c-2.2158203-3.4892578-3.0263672-8.6611328-2.2792969-14.5605469c0.6455078-5.1025391,2.4326172-10.40625,4.7783203-14.1875
		c3.1699219-5.1103516,6.2607422-5.9257813,8.2929688-5.7099609c2.1025391,0.2226563,3.8388672,1.6875,4.53125,3.8222656
		c1.1113281,3.4277344,0.0390625,9.6201172-10.7773438,19.9511719c-0.0585938,1.8574219,0.0449219,3.6191406,0.3203125,5.1708984
		c0.8105469,4.5634766,2.8515625,6.8652344,6.0654297,6.8515625c0.4072266-0.015625,0.8271484-0.046875,1.2617188-0.0986328
		c7.4248047-0.8652344,15.0244141-13.3818359,16.9423828-27.9013672c0.1455078-1.1054688,1.1582031-1.8818359,2.2636719-1.7363281
		C418.4736328,322.7294922,419.2509766,323.7421875,419.1054688,324.8476563z M438.4335938,275.0449219
		c-5.2675781,0.5488281-8.9121094,1.8300781-11.0419922,2.8085938c-1.5146484,0.6962891-2.5048828,1.3466797-3.1240234,1.8466797
		c0.8242188,0.1191406,1.9238281,0.5976563,2.859375,2.1005859c0.6914063,1.109375,1.2021484,2.6484375,1.4785156,4.4521484
		c0.3125,2.0400391,0.3154297,4.2333984,0.0351563,6.4082031c2.3945313,0.3974609,5.1083984,0.2519531,8.1396484-0.7617188
		c0.8232422-0.2753906,1.7119141,0.1689453,1.9873047,0.9921875c0.2753906,0.8222656-0.1699219,1.7109375-0.9912109,1.9853516
		c-0.859375,0.2880859-1.7177734,0.5195313-2.5703125,0.6953125c-2.4384766,0.5039063-4.8388672,0.5527344-7.1552734,0.1591797
		c-0.3496094,1.3583984-0.8115234,2.6757813-1.3789063,3.9072266c-2.4316406,5.2841797-6.5878906,8.7587891-12.0166016,10.0478516
		c-0.1884766,0.0449219-0.3789063,0.0869141-0.5673828,0.1259766c-3.7089844,0.765625-7.1621094,0.3349609-10.0195313-1.2558594
		c-2.7421875-1.5253906-4.84375-4.1035156-5.9160156-7.2587891c-2.5458984-7.4853516,0.7441406-17.6982422,11.9355469-22.8164063
		c-0.125-0.3613281-0.2421875-0.7246094-0.3535156-1.0888672c-1.4003906-4.6230469-1.5351563-9.0078125-0.3769531-12.3466797
		c1.1953125-3.4433594,3.734375-5.5742188,7.1542969-5.9980469c1.9941406-0.2470703,3.6865234,0.0009766,5.0292969,0.7373047
		c1.3408203,0.734375,2.2753906,1.9296875,2.7021484,3.4570313c0.7539063,2.6943359-0.1162109,6.1777344-2.3876953,9.5566406
		c-1.8984375,2.8271484-4.6113281,5.3125-7.7939453,7.1738281c1.2958984,2.8339844,3.0478516,5.4228516,5.1044922,7.5029297
		c1.6230469,1.640625,3.7636719,3.3046875,6.4130859,4.3408203c0.1953125-1.7978516,0.1582031-3.5400391-0.0791016-5.0878906
		c-0.4589844-2.9990234-1.46875-3.9375-1.6992188-3.921875c-0.8417969,0.0605469-1.5195313-0.0214844-2.0742188-0.2509766
		c-0.8369141-0.3466797-1.3808594-1.0585938-1.4541016-1.9033203c-0.2021484-2.2988281,3.078125-4.2998047,5.0517578-5.2880859
		c2.4257813-1.2158203,6.6113281-2.7998047,12.7832031-3.4433594c0.8632813-0.0908203,1.6357422,0.5371094,1.7255859,1.3984375
		C439.9228516,274.1826172,439.296875,274.9550781,438.4335938,275.0449219z M465.7080078,245.4072266
		c-5.6328125,14.2719727-13.2402344,25.0981445-13.9238281,24.7412109
		c-0.6660156-0.3486328,5.4179688-11.2294922,12.9609375-31.4819336
		c5.5957031-15.0263672,7.4814453-23.0927734,8.0429688-22.9482422
		C473.5234375,215.9072266,471.7421875,230.1181641,465.7080078,245.4072266z M488,165
		c-1.1386719,22.0117188-9.9746094,39.3027344-11,39c-0.8603516-0.2539063,4.0625-12.831543,6-34
		c2.1386719-23.3603516-1.0341797-38.8710938,0-39C484.0390625,130.8706055,488.9667969,146.3095703,488,165z"/>
	<path class="st2" d="M412.9042969,277.0058594c2.5917969-1.5888672,4.7910156-3.6435547,6.34375-5.9580078
		c1.7070313-2.5380859,2.4609375-5.2050781,1.9707031-6.9599609c-0.4414063-1.5751953-1.8945313-2.2226563-4.3222656-1.9228516
		c-0.1728516,0.0224609-0.34375,0.0507813-0.5078125,0.0849609c-1.9570313,0.4033203-3.3232422,1.6884766-4.0644531,3.8251953
		c-0.9287109,2.6787109-0.7773438,6.4707031,0.4160156,10.40625
		C412.7929688,276.6572266,412.8476563,276.8320313,412.9042969,277.0058594z"/>
	<path class="st2" d="M411.2617188,281.3984375c-9.390625,4.3623047-12.2167969,12.7705078-10.1367188,18.8896484
		c1.4267578,4.1972656,5.5410156,8.0673828,12.8046875,6.34375c6.28125-1.4921875,9.7138672-6.4873047,11.0742188-11.6904297
		c-2.9003906-1.0214844-5.6230469-2.7832031-8.0703125-5.2587891
		C414.6513672,287.3759766,412.7050781,284.5195313,411.2617188,281.3984375z"/>
	<path class="st2" d="M397.4550781,321.5908203l-0.0175781-0.0498047c-1.8535156,1.1464844-3.8300781,4.4267578-5.1904297,8.7109375
		c-0.3544922,1.1181641-0.6582031,2.2695313-0.9072266,3.4316406c2.0966797-2.3251953,3.6953125-4.484375,4.7695313-6.4560547
		C397.8408203,324.0527344,397.6953125,322.3330078,397.4550781,321.5908203z"/>
	<path class="st3" d="M308.4042969,227.1640625c-0.2480469-7.9267578,0.5429688-16.6044922,1.1220703-22.9414063
		c0.3017578-3.3056641,0.5400391-5.9150391,0.5283203-7.4033203c-0.0449219-5.8779297-3.3466797-6.796875-4.3574219-6.9394531
		c-0.1699219-0.0234375-0.3408203-0.0361328-0.5097656-0.0390625v-0.0273438c-0.359375,0-3.5957031,0.1083984-6.9033203,3.7421875
		c-4.0556641,4.4570313-6.4375,12.1621094-7.0791016,22.9042969c-0.0644531,1.0742188,0.7539063,1.9980469,1.8300781,2.0625
		l0.1523438,0.0029297c1.0078125-0.0175781,1.8496094-0.8105469,1.9101563-1.8320313
		c0.7089844-11.8603516,3.53125-17.5175781,5.7753906-20.1757813c0.5224609-0.6181641,1.0322266-1.1005859,1.5087891-1.4755859
		c0.1318359,0.5166016,0.2919922,1.6367188,0.2509766,3.9931641c-0.0439453,2.5576172-0.3066406,5.9003906-0.5839844,9.4384766
		c-1.0820313,13.7890625-2.4277344,30.9501953,4.828125,37.890625c2.1416016,2.0478516,4.8554688,3.0507813,8.0839844,2.9941406
		c0.5517578-0.0097656,1.1191406-0.0498047,1.7011719-0.1220703c0.9072266-0.1113281,1.7851563-0.3652344,2.6367188-0.7617188
		c0.2304688-0.0693359,0.4394531-0.1787109,0.6210938-0.3183594c4.234375-2.359375,7.7753906-8.3837891,10.7597656-18.2626953
		c0.7539063-2.4912109,1.4335938-5.0966797,2.0517578-7.7324219c-0.5341797,5.2128906-1.2314453,10.609375-2.1767578,15.7158203
		c-0.6835938,3.703125-1.4580078,7.03125-2.3154297,9.9560547c-6.7626953,0.5957031-13.4902344,2.3525391-17.140625,5.6318359
		c-1.859375,1.6699219-2.8408203,3.6210938-2.9169922,5.796875c-0.0039063,0.1298828-0.0048828,0.2587891-0.0019531,0.3867188
		c-0.0410156,1.8496094,0.5009766,3.6708984,1.5820313,5.2451172c1.3339844,1.9384766,3.3291016,3.2910156,5.6191406,3.8056641
		c0.7363281,0.1650391,1.4804688,0.2402344,2.2226563,0.2275391c2.625-0.0478516,5.2480469-1.1943359,7.5634766-3.3466797
		c3.2001953-2.9746094,5.7099609-7.7089844,7.4697266-14.0800781c1.6123047-0.0253906,3.2226563,0.0166016,4.7949219,0.1308594
		c0.4238281,0.0302734,0.8232422-0.081543,1.1591797-0.2890625c0.1738281,1.8574219,0.5400391,3.5478516,1.1005859,4.9960938
		c1.4453125,3.7294922,4.0771484,5.8769531,7.6132813,6.2099609c0.4609375,0.0439453,0.9169922,0.0615234,1.3662109,0.0537109
		c3.8886719-0.0693359,7.2958984-2.0556641,9.9150391-5.8046875c0.2460938-0.3515625,0.484375-0.7177734,0.7128906-1.0976563
		c2.0117188,1.1582031,4.2617188,1.6962891,6.6621094,1.5585938c4.0712891-0.2319336,7.7148438-2.5537109,10.6621094-6.7416992
		c0.6572266,4.6459961,1.8935547,7.8344727,3.7382813,9.6430664c1.2421875,1.2177734,2.7695313,1.8349609,4.453125,1.8056641
		c0.2246094-0.0039063,0.453125-0.0195313,0.6826172-0.046875c2.5546875-0.3007813,4.6904297-1.8886719,6.3466797-4.7167969
		c0.8105469-1.3837891,1.5078125-3.0527344,2.1054688-5.0498047c0.7294922,3.0244141,1.7597656,5.2519531,3.0996094,6.7236328
		c0.5253906,0.6748047,1.1328125,1.1669922,1.8300781,1.4863281c0.0908203,0.0400391,0.1826172,0.0712891,0.2744141,0.0986328
		c0.9492188,0.4492188,1.9873047,0.640625,3.0800781,0.5585938c3.8671875-0.2910156,7.3642578-4.2529297,10.6904297-12.1132813
		c3.1777344-7.5087891,5.046875-15.8789063,5.5429688-18.2666016c0.2275391-1.0908203-0.4726563-2.1591797-1.5625-2.3867188
		c-1.0917969-0.2275391-2.1591797,0.4736328-2.3867188,1.5644531c-0.4785156,2.2958984-2.2734375,10.3447266-5.3085938,17.5166016
		c-1.2890625,3.0458984-2.5986328,5.4394531-3.8925781,7.1132813c-1.2324219,1.59375-2.4033203,2.4765625-3.3867188,2.5507813
		c-0.6855469,0.0527344-1.2304688-0.1640625-1.7675781-0.7001953c-0.6015625-0.8486328-1.6816406-3.4492188-1.6894531-11.1865234
		c-0.0058594-6.375,0.7138672-13.5136719,1.1005859-17.3486328c0.2255859-2.2441406,0.2841797-2.8486328,0.25-3.2597656
		c-0.1435547-1.7373047-1.4804688-2.9208984-3.2558594-2.8896484h-0.0244141
		c-0.4433594,0.0107422-0.9804688,0.1035156-1.4951172,0.2958984c-0.8085938,0.0576172-1.5302734,0.6044922-1.7861328,1.4082031
		c-0.2890625,0.9082031-0.375,2.5507813-0.5429688,6.1787109c-0.2226563,4.8535156-0.5585938,12.1914063-1.8212891,18.2431641
		c-0.9248047,4.4355469-2.6943359,9.7988281-5.8720703,10.1738281l-0.0449219,0.0039063
		c-0.2597656-0.1738281-0.5625-0.2910156-0.8945313-0.3300781c-0.0205078-0.0058594-2.0429688-1.03125-1.9550781-12.6220703
		c0.0322266-4.3408203,0.3554688-8.9628906,0.6787109-12.6479492c0.0507813-0.4799805,0.1074219-0.9599609,0.1435547-1.440918
		l-0.0029297-0.1103516c0.1503906-1.5986328,0.2910156-2.9541016,0.3925781-3.9228516
		c0.1123047-1.078125,0.1630859-1.5654297,0.1757813-1.8320313c0.0527344-1.078125-0.3798828-2.0175781-1.1865234-2.5771484
		c-1.4306641-0.9941406-3.3300781-0.3505859-4.078125-0.0302734c-0.7988281,0.34375-1.2617188,1.1416016-1.2216797,1.9599609
		c-0.3486328,3.5585938-1.0458984,10.7714844-0.9677734,17.8681641c0.0029297,0.2719727,0.0107422,0.5302734,0.015625,0.7963867
		c-0.4404297,1.0795898-0.9169922,2.1088867-1.4375,3.0551758c-1.7207031,3.1269531-4.6640625,6.90625-8.9121094,7.1474609
		c-1.703125,0.0966797-3.2578125-0.2871094-4.65625-1.1455078c0.9804688-2.4667969,1.6875-5.2607422,2.0625-8.2119141
		c0.5253906-4.1220703,0.3554688-8.1425781-0.4785156-11.3193359c-0.1210938-0.4628906-0.2539063-0.8916016-0.3945313-1.2929688
		l-0.0498047-0.1640625c-0.03125-0.0976563-0.0712891-0.1904297-0.1142578-0.2822266
		c-1.4882813-3.8291016-3.8193359-4.7900391-5.1796875-5.0097656c-0.0966797-0.0146484-0.1933594-0.0273438-0.2890625-0.0380859
		c0.2783203-1.0605469-0.3447266-2.1533203-1.4042969-2.4511719c-2.2412109-0.6308594-5.6669922-0.5527344-9.2578125,3.3994141
		c-2.9189453,3.2109375-5.3242188,8.3818359-6.5976563,14.1875c-0.5371094,2.4453125-0.8183594,4.8300781-0.8740234,7.0712891
		c-0.2353516-0.128418-0.5-0.2128906-0.7861328-0.2333984c-1.3125-0.09375-2.6933594-0.1416016-4.109375-0.140625
		c2.4179688-10.7480469,3.8242188-24.5332031,4.59375-34.6171875c0.4179688-5.4570313,0.7382813-11.0732422,0.9042969-15.8154297
		c0.1591797-4.5234375,0.1269531-6.2802734,0.0410156-7.0654297c0.2792969-0.7910156,0.0205078-1.7041016-0.6943359-2.2236328
		c-0.6005859-0.4345703-1.3642578-0.5273438-2.0439453-0.2460938c-1.2460938,0.515625-1.6367188,1.8486328-2.1757813,4.5595703
		c-0.3789063,1.9072266-0.8037109,4.5566406-1.2958984,7.6230469c-1.3193359,8.2285156-3.1259766,19.4980469-5.9833984,28.953125
		c-3.2099609,10.6259766-6.4970703,14.7099609-9.0771484,16.0566406c-2.0498047,0.5224609-3.6699219,0.2617188-4.9482422-0.7939453
		C311.0527344,242.484375,308.7509766,238.3046875,308.4042969,227.1640625z M326.1171875,253.8603516
		c-1.9179688,4.4873047-4.1337891,7.3994141-6.5830078,8.65625c-1.8125,0.9296875-4.2177734,0.8544922-5.8505859-0.1826172
		c-1.0292969-0.6542969-1.5673828-1.5537109-1.6035156-2.6748047c0.0078125-0.2490234,0.0351563-0.5,0.0830078-0.7509766
		c0.0185547-0.0947266,0.0263672-0.1875,0.0302734-0.2802734c0.2099609-0.7958984,0.7089844-1.5410156,1.5117188-2.2617188
		c1.9248047-1.7304688,5.4902344-3.1503906,10.0380859-4c1.0253906-0.1923828,2.0830078-0.3525391,3.1621094-0.4814453
		C326.6484375,252.5742188,326.3857422,253.2333984,326.1171875,253.8603516z M355.4628906,230.2861328
		c0.2988281-0.4277344,0.5166016-0.5097656,0.6777344-0.5117188l0.140625,0.0126953
		c0.8007813,0.1289063,1.5712891,1.1230469,2.1435547,2.7167969c1.0400391,3.5058594,0.9716797,8.4726563-0.1904297,13.3525391
		c-0.2050781,0.8623047-0.4394531,1.7001953-0.6982422,2.5097656c-0.1455078-0.2324219-0.2880859-0.4736328-0.4267578-0.7236328
		C353.6191406,241.3808594,353.7050781,232.796875,355.4628906,230.2861328z M344.2890625,248.3574219
		c0.1914063-4.1220703,1.4941406-9.0615234,3.484375-13.2138672c1.1914063-2.4882813,2.3984375-4.2539063,3.4716797-5.4238281
		c-0.8232422,2.1044922-1.1708984,4.9589844-0.9619141,8.1572266c0.2773438,4.2392578,1.4492188,8.4052734,3.3017578,11.7294922
		c0.6513672,1.1689453,1.3759766,2.2109375,2.1669922,3.1230469c-0.9277344,1.7949219-1.984375,3.2675781-3.0966797,4.2685547
		c-0.6699219,0.6015625-1.2841797,0.9619141-1.8339844,1.1660156c-0.1142578,0.0410156-0.2275391,0.0771484-0.3427734,0.1113281
		c-1.1289063,0.3046875-1.9306641-0.0439453-2.2783203-0.1933594
		C344.4794922,256.4628906,344.1533203,251.2939453,344.2890625,248.3574219z"/>
	<path class="st1" d="M438.1074219,271.9208984c-6.171875,0.6435547-10.3574219,2.2275391-12.7832031,3.4433594
		c-1.9736328,0.9882813-5.2539063,2.9892578-5.0517578,5.2880859c0.0732422,0.8447266,0.6171875,1.5566406,1.4541016,1.9033203
		c0.5546875,0.2294922,1.2324219,0.3115234,2.0742188,0.2509766c0.2304688-0.015625,1.2402344,0.9228516,1.6992188,3.921875
		c0.2373047,1.5478516,0.2744141,3.2900391,0.0791016,5.0878906c-2.6494141-1.0361328-4.7900391-2.7001953-6.4130859-4.3408203
		c-2.0566406-2.0800781-3.8085938-4.6689453-5.1044922-7.5029297c3.1826172-1.8613281,5.8955078-4.3466797,7.7939453-7.1738281
		c2.2714844-3.3789063,3.1416016-6.8623047,2.3876953-9.5566406c-0.4267578-1.5273438-1.3613281-2.7226563-2.7021484-3.4570313
		c-1.3427734-0.7363281-3.0351563-0.984375-5.0292969-0.7373047c-3.4199219,0.4238281-5.9589844,2.5546875-7.1542969,5.9980469
		c-1.1582031,3.3388672-1.0234375,7.7236328,0.3769531,12.3466797c0.1113281,0.3642578,0.2285156,0.7275391,0.3535156,1.0888672
		c-11.1914063,5.1181641-14.4814453,15.3310547-11.9355469,22.8164063c1.0722656,3.1552734,3.1738281,5.7333984,5.9160156,7.2587891
		c2.8574219,1.5908203,6.3105469,2.0214844,10.0195313,1.2558594c0.1884766-0.0390625,0.3789063-0.0810547,0.5673828-0.1259766
		c5.4287109-1.2890625,9.5849609-4.7636719,12.0166016-10.0478516c0.5673828-1.2314453,1.0292969-2.5488281,1.3789063-3.9072266
		c2.3164063,0.3935547,4.7167969,0.3447266,7.1552734-0.1591797c0.8525391-0.1757813,1.7109375-0.4072266,2.5703125-0.6953125
		c0.8212891-0.2744141,1.2666016-1.1630859,0.9912109-1.9853516c-0.2753906-0.8232422-1.1640625-1.2675781-1.9873047-0.9921875
		c-3.03125,1.0136719-5.7451172,1.1591797-8.1396484,0.7617188c0.2802734-2.1748047,0.2773438-4.3681641-0.0351563-6.4082031
		c-0.2763672-1.8037109-0.7871094-3.3427734-1.4785156-4.4521484c-0.9355469-1.5029297-2.0351563-1.9814453-2.859375-2.1005859
		c0.6191406-0.5,1.609375-1.1503906,3.1240234-1.8466797c2.1298828-0.9785156,5.7744141-2.2597656,11.0419922-2.8085938
		c0.8632813-0.0898438,1.4892578-0.8623047,1.3994141-1.7255859
		C439.7431641,272.4580078,438.9707031,271.8300781,438.1074219,271.9208984z M412.3242188,266.0751953
		c0.7412109-2.1367188,2.1074219-3.421875,4.0644531-3.8251953c0.1640625-0.0341797,0.3349609-0.0625,0.5078125-0.0849609
		c2.4277344-0.2998047,3.8808594,0.3476563,4.3222656,1.9228516c0.4902344,1.7548828-0.2636719,4.421875-1.9707031,6.9599609
		c-1.5527344,2.3144531-3.7519531,4.3691406-6.34375,5.9580078c-0.0566406-0.1738281-0.1113281-0.3486328-0.1640625-0.5244141
		C411.546875,272.5458984,411.3955078,268.7539063,412.3242188,266.0751953z M413.9296875,306.6318359
		c-7.2636719,1.7236328-11.3779297-2.1464844-12.8046875-6.34375c-2.0800781-6.1191406,0.7460938-14.5273438,10.1367188-18.8896484
		c1.4433594,3.1210938,3.3896484,5.9775391,5.671875,8.2841797c2.4472656,2.4755859,5.1699219,4.2373047,8.0703125,5.2587891
		C423.6435547,300.1445313,420.2109375,305.1396484,413.9296875,306.6318359z"/>
	<path class="st3" d="M375.8671875,286.5302734c-0.7890625-0.5302734-2.4345703-1.2451172-4.5996094-0.0576172
		c-4.2402344,2.3261719-7.9697266,7.4951172-11.4003906,15.7988281c-2.6064453,6.3125-5,14.4101563-7.109375,24.0673828
		c-0.2255859,1.0273438-0.4414063,2.0517578-0.6503906,3.0693359c-0.0175781-1.6630859-0.0449219-3.3476563-0.0830078-5.0410156
		c-0.2333984-10.2900391-0.8232422-18.8720703-1.7548828-25.5107422
		c-1.2539063-8.9179688-3.0478516-14.1806641-5.6464844-16.5585938c-1.2509766-1.1464844-2.7285156-1.640625-4.2714844-1.4287109
		c-2.7519531,0.3769531-5.0019531,3.2382813-7.0800781,9.0048828c-1.5214844,4.2197266-3.0078125,10.1806641-4.4179688,17.71875
		c-2.4023438,12.8369141-4.1523438,27.7792969-5.3496094,38.2832031c-0.0009766-0.1640625,0-0.3320313,0-0.5039063
		c0.0058594-4.5410156,0.3945313-10.2871094,0.8046875-16.3701172c1.2675781-18.7539063,1.7949219-31.3847656-2.25-35.9199219
		c-0.8300781-0.9306641-1.8583984-1.5107422-2.9980469-1.7011719c-0.8847656-0.3623047-1.8632813-0.5253906-2.9082031-0.4765625
		c-7.0136719,0.3271484-14.15625,5.8105469-18.9052734,10.3525391c-2.2695313,2.1679688-4.5458984,4.6591797-6.4130859,7.015625
		c-2.7207031,3.4335938-2.8925781,4.3535156-2.9580078,4.7001953c-0.1835938,0.9833984,0.3076172,1.9433594,1.1953125,2.3330078
		c1.0205078,0.4492188,2.2099609-0.0126953,2.6591797-1.0302734c0.078125-0.1796875,0.1289063-0.3613281,0.1542969-0.5449219
		c0.6757813-1.2099609,3.8476563-5.5283203,8.59375-9.9794922c4.1357422-3.8769531,10.2402344-8.5595703,15.8613281-8.8154297
		c0.3496094-0.0166016,0.6582031,0.0146484,0.9375,0.0908203c0.1796875,0.1152344,0.3759766,0.2041016,0.5878906,0.2578125
		c0.1757813,0.1103516,0.3398438,0.2431641,0.4941406,0.4082031c1.4804688,1.5664063,2.2167969,5.3925781,2.1845703,11.3701172
		c-0.0302734,5.7753906-0.7695313,12.890625-1.4833984,19.7714844c-0.7861328,7.5527344-1.5986328,15.3652344-1.453125,21.3662109
		c0.1191406,4.8310547,0.8300781,11.4101563,5.6269531,12.7382813c0.5761719,0.1601563,1.1933594,0.0585938,1.6894531-0.2763672
		c0.9023438-0.609375,1.0351563-1.3847656,1.4472656-4.5742188c0.0117188-0.0878906,0.0234375-0.1777344,0.0351563-0.2685547
		c0.1679688-0.3662109,0.2265625-0.7841797,0.1494141-1.2011719c0.2177734-1.7871094,0.4716797-4.015625,0.7548828-6.5097656
		c1.1933594-10.4882813,2.9941406-26.3378906,5.5078125-39.7724609c1.3710938-7.3271484,2.7988281-13.0771484,4.2480469-17.0947266
		c1.6513672-4.5820313,2.953125-5.8740234,3.5214844-6.2363281c0.1367188,0.0039063,0.2773438-0.0078125,0.4160156-0.0341797
		c0.0585938-0.0097656,0.0957031-0.0175781,0.2402344,0.1025391c0.8554688,0.7167969,2.9394531,4.0869141,3.8085938,19.8525391
		c0.578125,10.4775391,0.4658203,23.1650391,0.375,33.3613281c-0.0888672,10.1679688-0.1542969,17.5146484,0.3984375,20.2080078
		c0.21875,1.0576172,1.0976563,1.9628906,2.1894531,2.2558594c0.3183594,0.0839844,0.6386719,0.1162109,0.953125,0.0957031
		c0.5449219-0.0322266,1.0732422-0.2177734,1.5390625-0.5419922c0.5996094-0.2998047,1.0371094-0.8896484,1.109375-1.6035156
		c0.0146484-0.1523438,1.5595703-15.4023438,5.0888672-31.5361328c2.0595703-9.4160156,4.3798828-17.2783203,6.8955078-23.3662109
		c2.6074219-6.3115234,5.3730469-10.6289063,8.2363281-12.875c0.2216797,0.15625,0.4736328,0.2695313,0.7519531,0.3271484
		c0.1894531,0.2460938,0.7714844,1.2460938,1.140625,4.5507813c0.296875,2.6552734,0.3974609,6.3115234,0.2988281,10.8671875
		c-0.1826172,8.5761719-1.0234375,19.0615234-1.7666016,28.3095703c-1.0029297,12.5068359-1.5439453,19.71875-0.9931641,22.4833984
		c0.1484375,0.7431641,0.578125,1.3583984,1.2109375,1.7353516c0.5664063,0.3359375,1.1650391,0.4121094,1.703125,0.3789063
		c0.5703125-0.0351563,1.0703125-0.1914063,1.3935547-0.2929688l0.0361328-0.0107422
		c0.4472656-0.0986328,0.8359375-0.3427734,1.1162109-0.6787109c0.2900391-0.3046875,0.4873047-0.7021484,0.5400391-1.1513672
		c0.0195313-0.1601563,1.875-16.1660156,2.7314453-32.6220703
		C381.5839844,294.4160156,378.6230469,288.3867188,375.8671875,286.5302734z"/>
	<path class="st3" d="M417.3691406,322.5830078c-1.1054688-0.1455078-2.1181641,0.6308594-2.2636719,1.7363281
		c-1.9179688,14.5195313-9.5175781,27.0361328-16.9423828,27.9013672c-0.4345703,0.0517578-0.8544922,0.0830078-1.2617188,0.0986328
		c-3.2138672,0.0136719-5.2548828-2.2880859-6.0654297-6.8515625c-0.2753906-1.5517578-0.3789063-3.3134766-0.3203125-5.1708984
		c10.8164063-10.3310547,11.8886719-16.5234375,10.7773438-19.9511719c-0.6923828-2.1347656-2.4287109-3.5996094-4.53125-3.8222656
		c-2.0322266-0.2158203-5.1230469,0.5996094-8.2929688,5.7099609c-2.3457031,3.78125-4.1328125,9.0849609-4.7783203,14.1875
		c-0.7470703,5.8994141,0.0634766,11.0712891,2.2792969,14.5605469c1.6435547,2.5888672,4.8095703,5.4824219,10.7353516,5.3779297
		l0.2333984-0.0068359l0.1171875,0.0009766l0.1376953-0.0029297l0.2109375-0.0175781
		c0.3974609-0.0224609,0.8046875-0.0566406,1.2265625-0.1044922c4.7578125-0.5546875,9.4931641-4.2685547,13.3320313-10.4560547
		c3.5869141-5.7822266,6.1230469-13.2128906,7.1425781-20.9248047
		C419.2509766,323.7421875,418.4736328,322.7294922,417.3691406,322.5830078z M392.2470703,330.2519531
		c1.3603516-4.2841797,3.3369141-7.5644531,5.1904297-8.7109375l0.0175781,0.0498047
		c0.2402344,0.7421875,0.3857422,2.4619141-1.3457031,5.6367188c-1.0742188,1.9716797-2.6728516,4.1308594-4.7695313,6.4560547
		C391.5888672,332.5214844,391.8925781,331.3701172,392.2470703,330.2519531z"/>
	<path class="st3" d="M314.0917969,173.7441406c0.8125-0.8251953-9.9726563-16.4394531-28.3720703-28.2202148
		c-17.4804688-11.1923828-35.3134766-14.7504883-35.71875-13.7304688
		c-0.3535156,0.8901367,12.6777344,5.0195313,30.6962891,16.3530273
		C302.3310547,161.753418,313.3193359,174.5268555,314.0917969,173.7441406z"/>
	<path class="st3" d="M236.5488281,135.4086914c-1.0097656-0.2202148-5.671875,10.6162109-7.1835938,23.777832
		c-3.1533203,27.4829102,9.078125,50.8173828,10.1816406,50.5024414c0.8027344-0.2294922-4.7236328-12.8505859-5.6757813-34.5322266
		C232.8554688,152.0649414,237.7753906,135.6762695,236.5488281,135.4086914z"/>
	<path class="st3" d="M243.9628906,220.5922852c-0.9277344,0.3017578,1.8515625,13.9072266,7.2460938,27.7470703
		c7.2128906,18.5078125,17.4160156,33.1010742,18.3125,32.6206055c0.4863281-0.2607422-1.90625-4.8847656-8.8164063-20.9619141
		C248.8027344,232.3037109,244.8496094,220.3032227,243.9628906,220.5922852z"/>
	<path class="st3" d="M416.8740234,158.4189453c25.8291016-21.4804688,44.7890625-30.1499023,44.2197266-31.1875
		c-0.5908203-1.0737305-21.9169922,6.375-41.8203125,23.5429688
		c-12.1787109,10.5043945-21.3671875,22.5273438-20.7089844,23.1713867
		C399.0957031,174.4667969,405.9833984,167.4765625,416.8740234,158.4189453z"/>
	<path class="st3" d="M483,131c-1.0341797,0.1289063,2.1386719,15.6396484,0,39c-1.9375,21.168457-6.8603516,33.7460938-6,34
		c1.0253906,0.3027344,9.8613281-16.9882813,11-39C488.9667969,146.3095703,484.0390625,130.8706055,483,131z"/>
	<path class="st3" d="M472.7880859,215.7182617c-0.5615234-0.1445313-2.4472656,7.921875-8.0429688,22.9482422
		c-7.5429688,20.2524414-13.6269531,31.1333008-12.9609375,31.4819336
		c0.6835938,0.3569336,8.2910156-10.4692383,13.9238281-24.7412109
		C471.7421875,230.1181641,473.5234375,215.9072266,472.7880859,215.7182617z"/>
</g>
</svg>
