<?xml version="1.0" encoding="utf-8"?>
<!-- Generator: Adobe Illustrator 22.0.1, SVG Export Plug-In . SVG Version: 6.00 Build 0)  -->
<svg version="1.1" id="Шар_1" xmlns="http://www.w3.org/2000/svg" xmlns:xlink="http://www.w3.org/1999/xlink" x="0px" y="0px"
	 viewBox="0 0 714 714" style="enable-background:new 0 0 714 714;" xml:space="preserve">
<g>
	<path d="M315.8681641,241.4970703c1.4375-4.7089844,3.1933594-9.1816406,5.0283203-12.7724609
		C307.5654297,233.8330078,300.6162109,266.4824219,315.8681641,241.4970703z"/>
	<path d="M378.7353516,246.5268555c4.1494141-6.6274414,6.3046875-18.1235352,2.7138672-18.1201172
		c-3.5107422-0.081543-7.5048828,6.7055664-9.4199219,13.0117188c-0.640625,2.0751953-1.5185547,5.5078125-1.1181641,7.6625977
		C372.5869141,247.9628906,375.0625,246.9262695,378.7353516,246.5268555z"/>
	<path d="M440.9990234,246.5268555c4.1494141-6.6274414,6.3046875-18.1235352,2.7138672-18.1201172
		c-3.5107422-0.081543-7.5048828,6.7055664-9.4199219,13.0117188c-0.640625,2.0751953-1.5185547,5.5078125-1.1181641,7.6625977
		C434.8505859,247.9628906,437.3261719,246.9262695,440.9990234,246.5268555z"/>
	<path d="M217.5380859,404.4902344c1.4375-4.7089844,3.1933594-9.1816406,5.0283203-12.7724609
		C209.2353516,396.8261719,202.2861328,429.4755859,217.5380859,404.4902344z"/>
	<path d="M314.8203125,392.8330078c-2.9550781,1.7587891-5.1113281,4.7119141-6.0664063,7.8232422
		C321.6855469,399.7783203,324,387.3251953,314.8203125,392.8330078z"/>
	<path d="M559.6435547,392.8330078c-2.9550781,1.7587891-5.1113281,4.7119141-6.0664063,7.8232422
		C566.5087891,399.7783203,568.8232422,387.3251953,559.6435547,392.8330078z"/>
	<path d="M592.7060547,367.6113281c5.5078125,7.4238281,13.3300781,9.9785156,22.4316406,6.7832031
		c16.765625-5.9082031,16.9257813-26.2626953,7.5058594-39.0322266c-3.59375-4.9511719-8.3808594-13.1708984-14.0517578-14.9287109
		c-5.1083984-1.5185547-7.9023438,1.5175781-10.6953125,4.3896484l0.796875,2.7939453
		c1.4355469,4.390625-1.3574219,13.4111328-6.9453125,12.5322266c-8.7021484-1.3574219-13.3310547,7.9023438-7.1835938,16.3652344
		L592.7060547,367.6113281z M586.5195313,346.6923828c0.5615234-1.3574219,2.0751953-2.1552734,4.0722656-1.8369141
		c9.1025391,1.4355469,15.0078125-10.3779297,12.3759766-18.6796875c1.1992188-1.2753906,2.5556641-1.515625,3.8291016-1.1181641
		c9.4208984,2.8759766,12.2929688,26.8242188-2.9541016,32.171875
		C592.7460938,361.1416016,584.2832031,352.6787109,586.5195313,346.6923828z"/>
	<path d="M670.0761719,441.1845703c-0.2080078-1.4619141-1.2822266-2.5849609-2.6337891-2.9335938
		c1.7607422-3.3476563,2.7519531-7.1660156,2.6738281-11.4082031c-0.2392578-11.0966797-6.7050781-15.8037109-7.9833984-23.0703125
		c2.3925781-2.875,2.3925781-6.6269531,0.078125-9.4208984l-8.6982422-11.8164063
		c-7.4248047-10.2197266-36.4033203-7.1054688-31.5351563,13.1708984
		c-13.6494141,1.7568359-21.7119141,24.1904297-11.9736328,37.5214844l8.78125,11.8955078
		c3.0478516,4.3769531,7.7089844,7.0664063,13.0019531,8.2578125c-0.078125,6.1132813-0.2949219,13.4296875-0.9980469,20.3554688
		c-1.4384766,14.1728516-4.1455078,18.6601563-5.6308594,20.0742188c-0.3203125,0.3056641-0.6269531,0.5078125-0.9345703,0.6181641
		c-0.1298828,0.0029297-0.2607422,0.0136719-0.3935547,0.0322266c-0.2207031,0.0302734-0.4501953,0.0283203-0.8681641-0.3085938
		c-0.9423828-0.7597656-3.3408203-3.7421875-5.28125-14.9951172c-1.3193359-7.6494141-1.984375-16.2861328-2.5224609-23.2626953
		c-0.5322266-6.9257813-0.8173828-10.3291016-1.4628906-12.0039063c-0.5966797-1.546875-1.8876953-2.5703125-3.4521484-2.7382813
		c-0.8007813-0.0898438-3.2451172-0.3525391-6.4394531,4.5107422c-0.4296875,0.6542969-0.6328125,1.4433594-0.5722656,2.2216797
		c0.2158203,2.8125,0.6953125,8.1982422,1.5683594,14.4921875c-0.1689453,5.9042969-1.0683594,13.0664063-2.5283203,19.4726563
		c-2.8486328,12.5009766-6.3115234,16.578125-7.7451172,16.9873047l-0.2099609,0.0576172
		c-0.1337891,0.0107422-0.2675781,0.03125-0.4121094,0.0585938l-0.1416016,0.0283203
		c-0.6240234,0.0546875-1.1679688-0.0859375-1.7070313-0.4433594c-1.4941406-0.9941406-3.6962891-3.9541016-5.6933594-12.4160156
		c-1.5439453-6.5429688-2.4794922-14.2724609-3.3056641-21.09375c-0.7011719-5.7958984-1.3066406-10.8007813-2.1640625-14.0605469
		c-0.2714844-1.0302734-0.9199219-1.8544922-1.7587891-2.3691406c9.9912109-6.2353516,17.6806641-16.8173828,23.1035156-26.9482422
		c1.6748047-3.1103516,1.8349609-6.8642578-0.4794922-9.6572266l-7.5839844-10.2167969
		c-3.3515625-4.6308594-1.9150391-2.3945313-4.3095703-4.3916016l-6.8652344-9.4189453
		c-5.8271484-7.9033203-12.4550781-11.1787109-23.0703125-11.4179688
		c-13.9863281-0.328125-24.6835938,6.3486328-31.1142578,15.5615234c-1.7871094-2.4199219-3.6210938-4.8408203-5.3994141-7.2617188
		c-10.4589844-14.2080078-28.8183594-6.2265625-30.5761719-6.3066406c-4.1923828-1.8398438-9.4970703-2.2382813-14.265625-1.1640625
		c-0.4287109-0.8271484-0.9326172-1.6162109-1.5214844-2.3447266l-3.4335938-4.7910156
		c-4.7109375-6.3837891-8.1435547-13.0097656-16.5244141-13.0097656c-3.7568359,0-6.9892578,1.453125-9.3779297,3.7246094
		c-0.3388672-2.550293-0.9658203-6.137207-4.1220703-10.4267578l-8.7021484-11.8974609
		c-2.5810547-3.5322266-6.2529297-5.6791992-9.9970703-6.609375c17.265625-4.3120117,16.9824219-26.8950195,18.2236328-42.1474609
		c11.6113281,3.8896484,23.5371094-0.8613281,30.6845703-10.9155273
		c3.5449219,5.1293945,7.3720703,10.8022461,13.3974609,12.1918945c-0.4804688,0.7988281-1.0380859,1.4375-1.5175781,1.5175781
		c-8.6992188-12.4541016-25.4648438,5.5078125-19.2382813,22.5908203
		c1.6787109,4.7910156,7.5058594,11.8173828,10.7792969,16.2871094c5.828125,7.8232422,12.2949219,11.5751953,23.3916016,10.8564453
		c32.9697266-2.1542969,35.6835938-51.0107422,39.9140625-75.3603516c0.796875-4.5507813,4.7080078-22.5126953,7.4238281-25.4663086
		c3.1152344-3.0332031,3.59375-7.0234375,0.8789063-10.2182617l-8.1455078-11.0981445
		c-6.8652344-9.4174805-23.7919922-8.4609375-31.4541016,1.5175781l-1.6757813-2.3144531
		c-5.2695313-7.1850586-21.2353516-7.8237305-28.3398438-0.3178711c-2.3330078,2.4628906-4.8535156,6.6704102-7.0800781,11.7416992
		l-5.6269531-7.6699219c-11.2568359-15.246582-27.2216797-8.0634766-28.7392578-8.0634766
		c-5.5087891-2.2363281-12.0537109-2.2363281-17.484375,0c-5.3740234,2.2084961-8.8105469,7.6547852-11.2617188,15.0205078
		l-5.1044922-6.9570313c-11.2568359-15.246582-27.2216797-8.0634766-28.7392578-8.0634766
		c-5.5087891-2.2363281-12.0537109-2.2363281-17.484375,0c-2.7006836,1.1098633-4.9106445,3.0395508-6.7539063,5.6166992
		l-0.3720703-0.5068359c-7.9853516-10.8569336-23.7109375-4.7089844-23.7109375-4.7089844
		c-10.2998047-3.9916992-22.1132813-1.597168-31.2929688,4.2294922c-0.4033203,0.2563477-0.7949219,0.5288086-1.1879883,0.7998047
		c2.4628906-11.0019531,5.7416992-23.0581055-1.559082-32.9731445l-8.7021484-11.8950195
		c-5.4296875-7.3447266-16.765625-9.4194336-22.3525391-4.7905273l-4.0722656-5.5078125
		c-9.5805664-13.0932617-26.1845703-6.7055664-32.4125977,3.4326172
		c-18.9189453-3.512207-45.6630859-2.0761719-59.4736328,12.6142578
		c-10.9350586,11.7338867-10.5356445,28.1000977-1.2744141,40.3134766c0.159668,0.2397461,0.3994141,0.559082,0.5571289,0.8037109
		c7.3447266,9.8984375,12.6958008,19.3979492,25.7060547,22.5126953c1.1181641,3.4326172,3.8305664,6.1479492,5.8271484,9.0200195
		c-3.5908203,5.1113281-9.0200195,12.375-15.246582,13.9716797L172.9941406,256.75
		c-9.5791016-13.0102539-34.8071289,11.5761719-27.0620117,35.6855469c2.4726563,7.5029297,8.5410156,14.5292969,13.25,20.9960938
		c1.0839844,1.4746094,2.2460938,2.824707,3.4716797,4.0649414c-12.9941406,2.840332-27.4897461,11.9946289-20.7084961,21.2124023
		l7.5058594,10.2998047c3.9902344,5.4287109,3.75,4.1513672,9.0986328,5.0292969
		c2.4726563,17.5615234-5.5878906,43.5869141-13.4931641,59.953125l4.4697266-33.609375
		c1.8369141-13.171875,3.1132813-23.1503906-5.4296875-34.7275391l-8.7021484-11.8955078
		c-17.2431641-23.5498047-63.0673828-19.8769531-80.550293-0.71875
		c-7.5058594,8.3027344-10.8569336,20.0380859-6.3061523,30.5761719
		c1.8369141,4.3105469,8.6240234,12.9316406,11.8154297,17.2431641
		c10.3779297,14.1298828,32.4111328,14.0517578,43.5078125,4.9511719
		c-4.390625,14.6083984-7.5839844,31.0556641-6.6269531,44.3867188c0.8779297,11.8955078,3.3505859,16.765625,9.3398438,24.9072266
		c6.1474609,8.3818359,10.5371094,16.6044922,21.8730469,17.4042969c20.4389648,1.4462891,40.0786133-20.2392578,52.6875-39.1884766
		c0.3183594,0.5136719,0.6533203,1.0175781,1.0146484,1.5048828l8.1416016,11.0947266
		c8.3007813,11.3359375,20.9150391,10.4580078,30.8935547,0.1611328c3.7539063,5.1904297,7.7441406,7.9833984,14.7685547,7.9833984
		c5.8901367,0,12.0839844-3.9560547,17.7050781-9.3828125l2.3212891,3.1601563
		c7.0263672,10.2167969,19.9580078,6.6240234,28.0214844-0.1611328c2.0908203-1.7636719,4.1977539-3.8554688,6.2529297-6.1308594
		c6.4262695,8.5732422,13.3549805,12.5126953,24.9277344,12.5917969
		c9.8276367,0.1201172,18.2358398-4.0585938,25.2446289-10.2451172c0.3198242,0.4248047,0.6289063,0.8388672,0.9106445,1.2265625
		c7.9794922,10.8574219,28.4179688,12.3730469,31.2119141,1.9150391c3.515625,4.7890625,7.5839844,7.0234375,13.7314453,7.0234375
		c5.6523438,0,11.6025391-3.65625,17.0576172-8.7470703l1.8574219,2.5292969
		c7.1054688,10.2177734,19.9589844,6.6240234,28.0205078-0.1601563c0.7841797-0.6572266,1.578125-1.3808594,2.375-2.1396484
		c3.7333984,4.9023438,7.7431641,8.4912109,15.2001953,8.5166016c-0.3251953,0.5761719-0.6523438,1.140625-0.9755859,1.7275391
		c-0.9453125,1.7138672-0.3203125,3.8769531,1.3925781,4.8222656c0.8310547,0.4589844,1.7900391,0.5673828,2.7011719,0.3027344
		c0.9101563-0.2636719,1.6650391-0.8652344,2.1230469-1.6962891c1.6650391-3.0175781,3.3466797-5.8740234,5.0371094-8.5722656
		c2.1914063-1.3710938,4.3564453-3.0898438,6.453125-5.0273438c0.9960938,8.1386719,2.1660156,18.0458984,3.2207031,26.9716797
		l0.1337891,1.1347656c1.5722656,13.3007813,3.1992188,27.0537109,4.5410156,37.6767578
		c0.7480469,5.9208984,1.3369141,10.3203125,1.8017578,13.4501953c0.8466797,5.7080078,1.0908203,6.5439453,2.1806641,7.4521484
		c0.7841797,0.6552734,1.8486328,0.9013672,2.8398438,0.6582031c0.2578125-0.0625,0.5009766-0.1533203,0.71875-0.2685547
		c1.1601563-0.5996094,1.8427734-1.828125,1.7382813-3.1298828c-0.4833984-6.0625-3.8916016-48.6230469-6.4072266-77.5625
		c9.0644531,3.8876953,20.2021484,2.5605469,22.2119141-4.9619141c3.515625,4.7890625,7.5839844,7.0234375,13.7314453,7.0234375
		c1.7792969,0,3.5878906-0.3691406,5.4013672-1.0234375c1.7265625,7.2373047,2.5976563,15.9765625,2.2138672,26.4003906
		c-1.15625,31.4257813-17.2324219,51.8662109-32.515625,55.8154297c-3.8261719,0.9951172-7.453125,0.9306641-10.7636719-0.1855469
		c-4.1484375-1.5351563-7.8525391-4.7587891-11.0136719-9.5878906l-0.5283203-0.6259766l-0.1289063-0.1162109L466.7607422,524.625
		l-0.1318359-0.0957031l-0.1533203-0.1015625l-0.4423828-0.2363281l-0.1748047-0.0732422l-0.3173828-0.1035156l-0.1494141-0.0390625
		l-0.3427734-0.0615234l-0.2011719-0.0195313l-0.1289063-0.0078125l-0.1142578-0.0029297
		c-0.0986328,0.0009766-0.1748047,0.0019531-0.2363281,0.0068359l-0.3496094,0.0380859l-0.1679688,0.0341797l-0.1630859,0.0361328
		l-0.2011719,0.0615234l-0.1416016,0.046875l-0.1572266,0.0673828L463.0195313,524.25l-0.1777344,0.09375l-0.0986328,0.0556641
		l-0.1875,0.1269531l-0.1523438,0.1103516l-0.3945313,0.3603516l-0.5898438,0.84375l-0.0722656,0.1523438
		c-0.0253906,0.0556641-0.0478516,0.1113281-0.0849609,0.2109375l-0.1640625,0.6035156l-0.0273438,0.1757813l-0.0166016,0.1630859
		l-0.0107422,0.1689453v0.1630859l0.0058594,0.1816406l0.0146484,0.1621094l0.0244141,0.1806641l0.0703125,0.3330078
		l0.0517578,0.1767578l0.125,0.3320313l0.0693359,0.1513672l0.1455078,0.2685547
		c3.4433594,5.7119141,7.8857422,9.7255859,13.2744141,11.9589844c3.0869141,1.3417969,6.3710938,2.0166016,9.8046875,2.0166016
		c1.2998047,0,2.6210938-0.0966797,3.9609375-0.2900391c0.9306641-0.1357422,1.8808594-0.3212891,2.8232422-0.5517578
		c7.5214844-1.8388672,15.1201172-6.5498047,21.9716797-13.625c7.1816406-7.4169922,12.8857422-16.9326172,15.6494141-26.1054688
		c2.7177734-9.0234375,4.2226563-18.4140625,4.4726563-27.9091797c0.2392578-9.0292969-0.6572266-17.7304688-2.6650391-25.8613281
		c-0.2138672-0.8662109-0.4472656-1.7128906-0.6845703-2.5546875c1.7099609-1.5126953,3.3759766-3.1757813,4.9775391-4.9277344
		c5.8886719,7.90625,12.1923828,11.8994141,22.0800781,12.6035156c-3.8007813,2.3808594-7.1943359,6.7333984-9.6015625,12.3955078
		c-2.6660156,6.2685547-3.9414063,13.5830078-3.6894531,21.1503906c0.2607422,7.8447266,2.8759766,18.9980469,9.3925781,24.6152344
		c2.6464844,2.28125,5.7480469,3.4619141,9.0517578,3.4619141c0.5390625,0,1.0849609-0.0322266,1.6337891-0.0947266
		c0.578125-0.0673828,1.1484375-0.1689453,1.6962891-0.3027344c1.0527344-0.2578125,2.0771484-0.6523438,3.015625-1.1572266
		c0.1630859-0.0742188,0.3164063-0.1582031,0.4394531-0.2402344c4.9267578-2.8769531,8.3701172-9.2392578,10.2460938-18.9248047
		c1.8417969,4.125,3.9902344,7.0556641,6.5400391,8.9296875c2.6083984,1.9169922,5.6630859,2.6669922,8.8007813,2.1640625
		c0.5839844-0.0703125,1.1689453-0.1894531,1.7363281-0.3525391c3.1357422-0.8935547,5.7998047-3.6523438,8.1455078-8.4326172
		c1.7148438-3.4960938,3.2714844-8.1777344,4.5107422-13.5478516c1.0888672,3.6699219,2.28125,6.7773438,3.5644531,9.2685547
		c2.8671875,5.5615234,6.4082031,8.4775391,10.5253906,8.6640625c2.5,0.1220703,4.8769531-0.8046875,6.8291016-2.6611328
		c3.078125-2.9287109,5.2958984-8.3896484,6.7382813-16.6279297c0.3515625,5.2333984,0.6318359,10.3076172,0.8359375,15.1357422
		c-8.75,9.5664063-15.1542969,20.7490234-18.5273438,32.3525391c-2.2792969,7.8427734-2.9892578,15.5966797-1.9990234,21.8408203
		c-0.0205078,0.3935547,0.0224609,0.7792969,0.1269531,1.1464844c0.0166016,0.0595703,0.0566406,0.2382813,0.1025391,0.4414063
		c0.2666016,1.1845703,0.7617188,3.3886719,1.9140625,5.4580078c0.1367188,0.2734375,0.2753906,0.5410156,0.421875,0.8007813
		c2.53125,4.5019531,6.4941406,6.9072266,11.1816406,6.90625c1.1748047,0,2.3955078-0.1503906,3.6503906-0.4580078
		l0.2226563-0.0546875c4.7529297-1.2304688,8.2851563-5.5087891,10.4970703-12.7177734
		c1.7050781-5.5507813,2.7255859-13.1318359,3.0341797-22.5302734c0.3017578-9.1572266-0.0595703-20.1894531-1.0742188-32.7919922
		c8.71875-8.6806641,14.8466797-17.2705078,18.734375-26.2568359
		C670.1523438,461.7939453,671.5537109,451.5615234,670.0761719,441.1845703z M646.3076172,497.3095703l-0.1650391,0.1630859
		l0.0195313,0.2314453c1.0253906,12.6630859,1.3916016,23.7353516,1.0888672,32.9101563
		c-0.3046875,9.3105469-1.3105469,16.8037109-2.9892578,22.2705078c-2.1044922,6.8535156-5.3984375,10.9052734-9.7900391,12.0419922
		l-0.2167969,0.0537109c-5.7851563,1.4150391-10.7890625-0.7587891-13.71875-5.96875
		c-0.1386719-0.2460938-0.2695313-0.5-0.4091797-0.7773438c-1.0917969-1.9628906-1.5488281-3.9951172-1.8330078-5.2578125
		c-0.0400391-0.1777344-0.0859375-0.3789063-0.1054688-0.4472656c-0.078125-0.2753906-0.1074219-0.5673828-0.0878906-0.8662109
		l0.0039063-0.0566406l-0.0087891-0.0556641c-0.9794922-6.1103516-0.2822266-13.7304688,1.9638672-21.4570313
		c3.2998047-11.3535156,9.8496094-22.7568359,18.4423828-32.1083984l0.1396484-0.1523438l-0.0078125-0.2060547
		c-0.2626953-6.2783203-0.6542969-12.9716797-1.1650391-19.8964844l-0.3652344-4.9414063l-0.6298828,4.9150391
		c-1.3505859,10.5449219-3.6767578,17.2587891-7.1113281,20.5253906c-1.7480469,1.6640625-3.8339844,2.4765625-6.0947266,2.3876953
		c-3.7324219-0.1699219-6.9902344-2.9033203-9.6816406-8.1240234c-1.4560547-2.8261719-2.796875-6.46875-4.0019531-10.8603516
		c-0.0976563-0.3564453-0.1923828-0.7314453-0.2890625-1.0986328c-0.0966797-0.3691406-0.1943359-0.7314453-0.2890625-1.1103516
		c-0.2099609-0.8349609-0.4150391-1.6904297-0.6152344-2.5742188c-1.109375-4.9003906-1.9541016-9.9589844-2.5908203-14.5419922
		c-0.1884766-1.3583984-0.359375-2.6728516-0.5126953-3.9296875c-0.2070313-1.7050781-0.3837891-3.2949219-0.53125-4.7412109
		c-0.2490234-2.4277344-0.421875-4.4472656-0.5283203-5.828125c-0.0429688-0.5595703,0.1035156-1.1269531,0.4121094-1.5966797
		c2.8564453-4.3496094,4.8398438-4.1347656,5.4960938-4.0654297c1.1855469,0.1269531,2.1669922,0.9140625,2.6259766,2.1035156
		c0.5957031,1.5449219,0.8740234,4.8945313,1.4023438,11.7578125c0.5361328,6.9609375,1.2041016,15.6230469,2.5302734,23.3193359
		c1.8300781,10.6113281,4.0771484,14.3417969,5.6396484,15.6025391c0.7001953,0.5664063,1.2421875,0.578125,1.6308594,0.5214844
		c0.1152344-0.0146484,0.2304688-0.0234375,0.34375-0.0234375l0.1503906-0.0234375
		c0.4785156-0.1503906,0.9326172-0.4355469,1.3886719-0.8691406c1.5859375-1.5087891,4.4658203-6.2050781,5.9355469-20.6972656
		c0.7001953-6.8925781,0.9208984-14.1572266,1.0009766-20.2509766c0.0322266-2.4248047,0.0419922-4.6699219,0.0507813-6.6240234
		l0.0019531-0.3242188c0.0097656-2.0849609,0.0175781-3.7441406,0.0527344-4.9970703
		c0.0566406-1.9638672,0.09375-3.2607422,1.2822266-4.1152344c0.671875-0.4824219,1.5419922-0.6191406,2.328125-0.359375
		c1.4052734,0.4638672,1.6943359,1.7373047,1.8691406,2.5029297c0.1025391,0.4550781,0.2324219,1.0898438,0.3867188,1.8857422
		c0.3378906,1.7470703,0.765625,4.1445313,1.2050781,6.7529297c0.2373047,1.4121094,0.5556641,3.3544922,0.9248047,5.7099609
		c0.6933594,4.421875,1.5683594,10.3271484,2.4453125,17.1025391c0.8183594,6.3144531,1.5283203,12.5537109,2.1123047,18.5458984
		l0.109375,1.1142578l0.7568359-0.8251953c14.015625-15.2568359,19.8447266-30.6162109,17.8388672-46.9140625
		c-0.0410156-0.3330078-0.0634766-0.6630859-0.1113281-0.9970703c-0.1982422-1.390625,0.7734375-2.6845703,2.1640625-2.8847656
		c0.2509766-0.0361328,0.4941406-0.0234375,0.7314453,0.0117188c1.0927734,0.1582031,1.9912109,1.0107422,2.1533203,2.1533203
		c1.4521484,10.1923828,0.0742188,20.2441406-4.0927734,29.8769531
		C661.1328125,480.125,655.0205078,488.6650391,646.3076172,497.3095703z M608.21875,483.2050781
		c-1.2314453,5.4042969-2.7851563,10.1015625-4.4951172,13.5839844c-2.2138672,4.5126953-4.6738281,7.1005859-7.5214844,7.9130859
		c-0.5185547,0.1484375-1.0507813,0.2568359-1.6005859,0.3232422c-2.8867188,0.4619141-5.6816406-0.2226563-8.0703125-1.9804688
		c-2.7041016-1.9873047-4.9482422-5.2744141-6.8603516-10.0488281l-0.6601563-1.6503906l-0.296875,1.7529297
		c-1.7441406,10.3125-5.1298828,17.0029297-10.0859375,19.8974609c-0.1035156,0.0673828-0.2119141,0.1279297-0.3574219,0.1953125
		c-0.8935547,0.4794922-1.8398438,0.84375-2.8105469,1.0820313c-0.5068359,0.1240234-1.0361328,0.2177734-1.5732422,0.2792969
		c-3.6279297,0.4189453-7.0566406-0.6640625-9.9179688-3.1308594c-6.2705078-5.4052734-8.7919922-16.2480469-9.0449219-23.890625
		c-0.2480469-7.4228516,1-14.5898438,3.609375-20.7265625c2.4560547-5.7763672,5.9394531-10.1523438,9.8076172-12.3203125
		c0.2539063-0.1425781,0.5078125-0.2509766,0.7617188-0.3730469c1.5410156-0.7412109,3.0849609-1.1367188,4.5917969-1.1367188
		c1.0654297,0,2.1113281,0.1943359,3.125,0.5673828c0.2597656,0.0957031,0.5175781,0.1943359,0.7724609,0.3144531
		l0.1513672,0.0439453c0.4990234,0.0625,0.9912109,0.1679688,1.4638672,0.3134766
		c0.6513672,0.2011719,1.1855469,0.6435547,1.5048828,1.2451172c0.3183594,0.6025391,0.3837891,1.2919922,0.1835938,1.9433594
		c-0.3642578,1.1816406-1.5166016,1.9238281-2.7480469,1.7783203l-0.0830078-0.0107422l-0.0820313,0.0175781
		c-0.5283203,0.1142578-1.0634766,0.0556641-1.5556641-0.1601563l-0.1376953-0.0605469l-0.1484375,0.0253906
		c-1.4453125,0.25-2.9257813,1.4453125-4.4013672,3.5537109c-3.390625,4.8486328-5.9814453,13.5400391-6.7607422,22.6816406
		c-0.8046875,9.4199219,0.4785156,17.3701172,3.4306641,21.2675781c1.1748047,1.5488281,3.2373047,3.4511719,7.5673828,2.0947266
		l0.1054688-0.046875c5.0712891-3.0019531,7.2109375-12.4277344,8.1132813-19.8066406
		c0.5136719-4.1953125,0.7949219-9.0214844,0.8310547-14.4267578c-0.875-5.6220703-1.40625-11.0019531-1.7998047-14.9912109
		c-0.1308594-1.3291016-0.2441406-2.4775391-0.3476563-3.4052734c-0.2324219-2.0761719,0.1494141-3.4775391,0.7119141-4.4267578
		c0.3017578-0.5107422,0.6542969-0.8964844,0.9960938-1.1738281l0.0849609-0.0888672
		c0.4628906-0.6162109,1.1367188-1.0273438,1.8984375-1.1601563c0.5400391-0.0927734,1.0703125-0.0283203,1.5488281,0.1523438
		c0.8623047,0.3261719,1.5537109,1.0449219,1.8066406,2.0058594c0.8398438,3.1943359,1.4414063,8.1669922,2.1386719,13.9277344
		c0.828125,6.8457031,1.7675781,14.6044922,3.3251953,21.203125c2.0722656,8.7783203,4.4677734,11.9248047,6.1132813,13.0185547
		c0.7294922,0.4824219,1.4921875,0.6757813,2.3828125,0.6025391l0.2177734-0.0400391
		c0.0976563-0.0195313,0.1923828-0.0341797,0.2890625-0.0410156l0.1171875-0.0214844
		c0.0957031-0.0224609,0.1933594-0.0449219,0.2919922-0.0732422c2.1728516-0.6201172,5.6894531-5.6347656,8.4443359-17.7255859
		c1.0966797-4.8125,1.8779297-10.0507813,2.2773438-14.8828125c0.5244141,3.2392578,1.1484375,6.59375,1.8925781,9.8808594
		c0.3642578,1.6083984,0.7451172,3.1357422,1.1396484,4.5878906
		C608.4462891,482.1757813,608.3349609,482.6933594,608.21875,483.2050781z M571.8505859,457.6962891
		c0.0693359-0.2255859,0.1162109-0.4541016,0.140625-0.6845703c0.0742188,0.71875,0.1552734,1.5380859,0.2460938,2.4658203
		c0.3886719,3.9394531,0.9208984,9.3359375,1.7949219,14.9052734c-0.0410156,5.2861328-0.3203125,10.0742188-0.8291016,14.2324219
		c-0.8720703,7.1308594-2.8945313,16.2089844-7.5810547,19.0371094c-3.6259766,1.1142578-5.2792969-0.2636719-6.4160156-1.7607422
		c-2.8066406-3.7060547-4.0146484-11.3984375-3.2314453-20.5791016c0.765625-8.9755859,3.2880859-17.4804688,6.5839844-22.1933594
		c1.2666016-1.8095703,2.4824219-2.8554688,3.6162109-3.1142578c0.6201172,0.2402344,1.2832031,0.3007813,1.9326172,0.1777344
		C569.78125,460.3457031,571.3535156,459.3173828,571.8505859,457.6962891z M571.8427734,455.578125
		c-0.0644531-0.2001953-0.1464844-0.3964844-0.2470703-0.5869141c-0.4443359-0.8378906-1.1875-1.453125-2.09375-1.7324219
		c-0.2109375-0.0654297-0.4257813-0.1191406-0.6425781-0.1689453c1.1523438-0.2988281,2.2822266-0.6533203,3.3876953-1.0654297
		C571.9169922,452.9492188,571.7304688,454.1044922,571.8427734,455.578125z M663.2539063,444.0205078
		c1.6279297,15.3798828-3.9082031,29.9443359-16.9257813,44.4277344c-0.5625-5.6572266-1.2373047-11.5234375-2.0048828-17.4560547
		c-0.8730469-6.7480469-1.7460938-12.6357422-2.4384766-17.0566406
		C649.8046875,453.1552734,657.8017578,449.6884766,663.2539063,444.0205078z M610.1279297,420.0576172
		c-0.2392578-9.1796875,5.0273438-18.921875,12.2939453-19.71875c3.7529297-0.078125,5.2695313,2.4755859,2.6347656,4.6308594
		c-2.2363281,1.8349609-3.59375,5.5068359-1.5966797,8.0615234c1.3574219,1.6757813,3.9111328,1.1181641,5.3476563-0.9570313
		c1.1982422-1.6757813,1.1982422-3.7519531,0.9580078-5.7490234c-1.0400391-7.3447266-7.4257813-14.9287109-1.5175781-20.9150391
		c7.5029297-7.6621094,25.8642578-2.2363281,20.1152344,2.953125c-1.3554688,1.2763672-1.0380859,4.6308594,2.1552734,10.4580078
		c2.6357422,4.7900391,5.0302734,9.8203125,5.1113281,15.4091797
		C656.109375,438.4990234,611.0068359,446.8798828,610.1279297,420.0576172z M456.9013672,362.0205078
		c4.9521484,0,8.9423828,3.9931641,8.9423828,8.9414063c0,5.0302734-3.9931641,9.0205078-8.9423828,9.0205078
		c-0.2792969,0-0.5546875-0.0166016-0.828125-0.0419922c-4.5673828-0.4160156-8.1914063-4.2353516-8.1914063-8.9785156
		c0-1.9287109,0.6230469-3.7060547,1.6699219-5.1640625C451.1914063,363.512207,453.8789063,362.0205078,456.9013672,362.0205078z
		 M409.9863281,341.6650391c0.9599609,4.5517578,0.3984375,10.1386719-0.5576172,15.1689453
		c-10.3779297,0-12.1367188,8.7021484-8.2246094,13.4111328l3.2724609,4.46875
		c-1.3652344,4.0947266-3.3359375,9.3583984-5.2929688,15.1318359c-1.2451172-1.6660156-2.4970703-3.3320313-3.7216797-4.9980469
		c-10.4589844-14.2080078-28.8183594-6.2265625-30.5761719-6.3066406
		c-7.265625-3.1894531-17.8837891-2.0742188-23.2314453,3.5947266c-1.3789063,1.4570313-2.703125,3.3115234-3.9438477,5.4375
		c-5.7548828-7.6113281-12.3339844-10.7900391-22.7670898-11.0253906
		c-6.359375-0.1494141-12.0302734,1.1640625-16.9414063,3.4902344c0.5214844-4.1845703,0.8828125-8.3066406,1.0078125-12.2685547
		c0.2392578-6.625-1.1181641-12.7714844-4.5507813-17.1621094l-8.7021484-11.8134766
		c-8.4609375-11.4960938-27.6191406-8.5449219-24.9873047,2.8710938
		c2.3530273,10.2661133-3.0292969,25.7841797-8.4648438,41.6796875l-0.0644531-0.0878906
		c-7.9853516-10.8574219-23.7109375-4.7089844-23.7109375-4.7089844
		c-7.4770508-2.8974609-15.7475586-2.4179688-23.2329102,0.2841797c3.2875977-14.9243164,3.1757813-29.9614258-4.8344727-40.8408203
		c-2.8320313-3.8540039-5.2255859-7.4716797-7.7553711-10.6005859c3.9882813-0.4628906,8.0415039-1.4726563,12.0600586-3.0244141
		c18.6010742-7.1064453,29.855957-23.3095703,36.8808594-41.4326172c1.597168,6.3837891,3.5908203,10.6953125,7.1850586,15.7255859
		l8.7016602,11.8964844c19.6376953,26.5810547,60.5917969,5.3486328,54.4433594-17.6435547
		c-0.2026367-0.7460938-0.8671875-1.9199219-1.7495117-3.2719727c3.2055664-1.3291016,6.359375-3.5317383,9.2866211-6.5522461
		c3.7539063,5.1904297,7.7441406,7.9833984,14.7685547,7.9833984c0.2226563,0,0.4472656-0.0205078,0.6708984-0.0317383
		c-0.9399414,3.5029297-2.0166016,6.8896484-3.28125,10.0922852c-1.1982422,2.953125-2.9550781,5.8271484-2.1552734,9.2597656
		c0.7177734,3.1923828,7.6630859,11.8134766,9.9775391,15.0078125c4.3125,5.7480469,10.5390625,7.5849609,17.484375,7.3447266
		c22.6708984-0.71875,22.1914063-26.1865234,23.5488281-42.8691406c5.9541016,1.9946289,11.9882813,1.7099609,17.421875-0.3891602
		c-1.0322266,4.0566406-2.2373047,7.972168-3.6875,11.6459961c-1.1982422,2.953125-2.9550781,5.8271484-2.1552734,9.2597656
		c0.7177734,3.1923828,7.6630859,11.8134766,9.9775391,15.0078125c3.3134766,4.4169922,7.7597656,6.5180664,12.7919922,7.1484375
		C411.2392578,334.0810547,408.9667969,337.2182617,409.9863281,341.6650391z M327.0429688,220.8193359
		c8.2226563-5.2695313,23.4697266-0.2392578,18.2001953,4.5507813c-3.2714844,2.9550781-7.4199219,25.3081055-5.1865234,25.6259766
		c0.4379883,0.0771484,1.1689453-0.4160156,2.0859375-1.3017578c1.6118164-1.5566406,3.8032227-4.3398438,6.0283203-7.4575195
		c1.3256836-6.8388672,3.1586914-13.0805664,5.7734375-17.375c1.5546875-2.5541992,3.3828125-4.4262695,5.5458984-5.3168945
		c4.8740234-1.9951172,10.9384766-1.7553711,15.5693359,0.878418c5.9082031-2.9550781,13.3310547-2.8769531,19.0800781,0.078125
		c7.1044922,3.6723633,10.5380859,14.2900391,9.8203125,25.0668945c0.5263672-0.0498047,1.0205078-0.1542969,1.5019531-0.2836914
		c1.9892578-0.5336914,3.6142578-1.7128906,5.0224609-3.3017578c0.5341797-2.7211914,1.1474609-5.3457031,1.8613281-7.7866211
		c2.1191406-7.2431641,5.1035156-12.8789063,9.4082031-14.6513672c4.8740234-1.9951172,10.9384766-1.7553711,15.5693359,0.878418
		c5.9082031-2.9550781,13.3310547-2.8769531,19.0800781,0.078125c7.1044922,3.6723633,10.5380859,14.2900391,9.8203125,25.0668945
		c0.3916016-0.0371094,0.7675781-0.1015625,1.1337891-0.1831055c2.0625-0.4584961,3.7392578-1.6005859,5.1875-3.1704102
		c0.8378906-2.8613281,1.8144531-5.6450195,2.8603516-8.2075195c2.1083984-5.1630859,4.4931641-9.4248047,6.5693359-11.590332
		c7.3447266-7.7426758,25.8642578-2.2363281,20.1152344,2.953125c-3.2714844,2.9550781-7.4228516,25.3081055-5.1865234,25.6259766
		c1.9150391,0.3178711,6.7841797-9.1811523,10.2167969-16.3662109c1.8369141-4.6289063,4.4697266-10.6157227,8.7822266-13.409668
		c8.0615234-5.9082031,24.2666016-0.71875,18.7558594,4.1484375c-3.7509766,3.4326172-7.8242188,22.3515625-8.7802734,28.1000977
		c-3.9121094,22.1132813-6.4667969,69.5332031-35.6035156,71.4482422
		c-24.6669922,1.5957031-26.0253906-26.5859375-12.7724609-31.5341797c1.4394531-0.5576172,2.6357422,0.4013672,3.4326172,1.9970703
		c1.0400391,1.9960938,3.4326172,2.5537109,5.6689453,1.7568359c6.6279297-2.1533203,11.4960938-23.4667969,13.4931641-34.6445313
		c-6.6660156,8.4619141-16.4541016,13.253418-23.0947266,10.8911133c-3.6982422-1.3154297-6.4238281-4.8413086-7.0800781-11.2084961
		c-0.2929688-2.7910156-0.1572266-5.9584961,0.2900391-9.2666016c-1.3222656,0.5429688-2.7353516,0.9399414-4.2636719,1.1860352
		c-0.4316406,0.0698242-0.8720703,0.1289063-1.3222656,0.175293c-3.1142578,10.4589844-10.6982422,19.3173828-23.390625,19.3173828
		c-4.3916016,0-8.6240234-1.3554688-11.8974609-4.2294922c-0.796875,8.3027344-1.3554688,15.8056641-1.6757813,20.3564453
		c-0.7978516,9.6591797-3.1142578,17.3232422-7.5039063,21.7128906c-6.3066406,6.3876953-22.3525391,4.1513672-23.7890625-2.1533203
		c-0.3974609-1.6757813,1.2783203-4.7089844,1.9970703-6.4658203c2.0380859-5.1889648,3.5693359-10.472168,4.8369141-16.0405273
		c2.2890625-10.059082,3.7041016-21.0693359,5.5849609-34.2319336c-1.4462891,0.6865234-3.0087891,1.1787109-4.7119141,1.4853516
		c-0.5576172,0.1000977-1.125,0.1879883-1.7138672,0.2490234c-3.1142578,10.4589844-10.6982422,19.3173828-23.390625,19.3173828
		c-4.3916016,0-8.6240234-1.3554688-11.8974609-4.2294922c-0.796875,8.3027344-1.3554688,15.8056641-1.6757813,20.3564453
		c-0.7978516,9.6591797-3.1142578,17.3232422-7.5039063,21.7128906c-6.3066406,6.3876953-22.3525391,4.1513672-23.7890625-2.1533203
		c-0.3974609-1.6757813,1.2783203-4.7089844,1.9970703-6.4658203c1.6582031-4.2226563,2.9780273-8.5092773,4.0976563-12.9575195
		c2.3666992-9.402832,3.8168945-19.5654297,5.5009766-31.5053711c-1.878418,2.4213867-3.8251953,4.7055664-5.8076172,6.734375
		c-4.9321289,5.0483398-10.0795898,8.5117188-14.9238281,8.5117188c-3.2734375,0-6.3876953-1.0390625-8.7021484-3.1933594
		c-2.3964844-2.3974609-3.3544922-6.3876953-3.4326172-11.1777344c-5.9072266,9.6582031-13.09375,14.3671875-18.0419922,14.3671875
		c-2.1601563-0.015625-4.0390625-0.4013672-5.6762695-1.0712891c-6.5307617-2.671875-9.0302734-10.0761719-8.4555664-18.5664063
		c0.7617188-11.0244141,5.5405273-19.8510742,12.0869141-25.9667969
		C302.6977539,218.6875,316.7402344,215.6679688,327.0429688,220.8193359z M254.9775391,202.8588867
		c0.2392578-0.081543,0.4785156-0.081543,0.6386719-0.1611328c-0.2382813,0.800293-0.4775391,1.597168-0.7167969,2.4760742
		L254.9775391,202.8588867z M160.3754883,260.5742188c5.3510742-4.0703125,9.6606445-3.4345703,9.5810547,2.2353516
		c-0.3212891,12.375,12.8535156,13.171875,21.2348633,5.2685547c7.5839844-7.1835938,13.5727539-16.5229492,18.28125-26.8208008
		c-3.515625,1.0351563-6.1479492,2.5541992-7.5058594,4.8686523c-0.796875,1.4360352-2.2329102,2.074707-3.7519531,1.1181641
		c-1.2744141-0.796875-2.0751953-2.0766602-2.6323242-3.5126953c-2.5541992-7.1049805,2.2363281-16.206543,11.7353516-16.7636719
		c2.2363281-0.1582031,4.8686523-0.0800781,7.8237305,0.159668c4.6293945-13.5708008,7.6625977-27.8608398,9.8989258-40.2353516
		c-6.0668945-0.081543-10.8569336,0.3994141-14.5292969,1.4360352c-15.887207,4.3911133-10.6958008,22.2734375,0.3994141,20.1982422
		c2.1577148-0.4008789,1.996582,2.3925781,1.996582,2.3925781c-3.1933594,12.2148438-13.8105469,17.9624023-24.4282227,17.6445313
		c-32.4912109-0.9570313-42.3896484-55.3222656,17.5629883-56.4404297
		c7.8237305-0.1577148,15.5673828,0.6391602,22.0351563,2.2363281c4.6289063-11.4174805,17-13.7319336,23.1484375-9.1811523
		c7.9853516,5.8300781,1.1977539,20.9169922-9.8989258,20.9169922c-0.71875,12.6923828-1.597168,28.2597656-3.8334961,44.1469727
		c4.9516602,0.71875,9.6606445,1.3579102,13.5727539,1.6757813c6.7866211-20.6777344,15.5678711-41.5932617,13.0913086-54.6049805
		c-0.6357422-3.1118164,2.875-4.0683594,5.1914063-3.9902344c11.4960938,0.2397461,14.5292969,9.1782227,13.9707031,18.9985352
		c-0.3994141,6.5444336-6.0683594,26.0253906-8.2236328,44.784668c-1.4614258,12.4863281-2.7749023,28.5458984,7.5556641,37.6855469
		c0.3681641,0.3256836,0.7480469,0.6450195,1.1464844,0.9526367c3.5146484,2.7119141,7.7460938,4.3085938,12.1357422,3.9912109
		c1.2792969-0.0800781,1.9960938,0.6386719,2.2363281,1.7568359c0.7792969,2.8798828,0.4912109,5.8198242-0.6005859,8.6088867
		c-3.2675781,8.3447266-13.7373047,15.3398438-24.3886719,15.3383789c-29.2182617,0-31.9321289-38-26.4243164-59.1552734
		c0.5571289-2.3164063,1.1962891-4.6308594,1.9150391-6.9453125c-4.0717773,0.078125-8.3813477,0-12.6923828,0
		c-5.4291992,29.6181641-16.765625,58.1972656-42.0722656,67.9365234
		C156.3857422,321.6425781,135.0693359,281.4082031,160.3754883,260.5742188z M100.9912109,366.4101563
		c1.5175781-3.6728516,6.8671875-6.8662109,11.8134766-7.7441406c-1.1923828,6.1464844-3.5869141,11.1767578-5.4257813,16.4462891
		L100.9912109,366.4101563z M119.5458984,455.1035156c-9.1035156-0.71875-16.2089844-7.9023438-17.484375-25.2255859
		c-1.5175781-21.234375,8.2207031-49.3349609,12.0546875-58.9160156
		c17.0039063-42.5507813-25.7041016-31.8525391-27.4609375-16.3662109
		c-0.4794922,4.3095703,1.4355469,8.3808594,6.2255859,9.4990234c2.078125,0.4794922,0.7988281,2.8740234,0.7988281,2.8740234
		c-4.3105469,5.3496094-11.9736328,8.0615234-19.637207,7.7441406
		c-34.2485352-1.4394531-32.2519531-52.2109375,23.5493164-52.4501953
		c19.15625-0.078125,37.4394531,8.4628906,39.2763672,29.6191406c1.0351563,12.6962891-14.8496094,80.2324219-1.5185547,80.3105469
		c15.3291016,0.0820313,47.9804688-94.5986328,12.3740234-95.7148438c-2.7929688,0.078125-3.5908203-3.0332031-1.5957031-5.0302734
		c5.8256836-5.8950195,13.6264648-9.2597656,21.2851563-9.9326172c1.0522461-0.0922852,2.1020508-0.1367188,3.1435547-0.1269531
		c7.3193359,0.0610352,12.6508789,2.3549805,16.3100586,6.2836914
		C211.8242188,354.4672852,158.4628906,457.8193359,119.5458984,455.1035156z M483.4257813,435.9443359
		c-1.5957031,0.4882813-3.9179688,0.7109375-6.5332031,0.4599609c-0.0361328-0.3896484-0.0722656-0.7714844-0.1074219-1.1445313
		c-0.1464844-1.5439453-0.2832031-2.9521484-0.4072266-4.1904297c0.609375-0.5869141,1.2167969-1.1503906,1.7998047-1.6699219
		c1.4804688-1.1230469,3.0117188-2.0605469,4.5742188-2.8222656c1.1445313-0.5585938,2.3066406-1.0166016,3.4785156-1.3779297
		c-0.0097656,2.3632813,0.0703125,4.5976563,0.2285156,6.59375
		C486.6201172,433.7080078,485.3408203,435.3056641,483.4257813,435.9443359z M504.7421875,436.5839844
		c-7.9394531,0-11.3017578-5.359375-12.1279297-12.3613281c1.9560547,0.0009766,3.9082031,0.2685547,5.8251953,0.8291016
		c4.5371094,1.328125,9.125,4.4140625,13.0292969,9.5605469
		C509.2158203,435.8564453,506.9541016,436.5839844,504.7421875,436.5839844z M461.96875,528.9912109L461.96875,528.9912109
		l0.3847656-0.3398438l-0.0527344-0.0996094l-0.2578125-1.0830078l0.1308594-0.8476563l-0.4775391-0.1494141l0.5175781,0.0410156
		l0.3574219-0.6357422l-0.3691406-0.3388672l-0.0009766-0.0009766l0.0009766,0.0009766l0.4511719,0.2373047l0.5673828-0.4931641
		l-0.2255859-0.4492188l0.3525391,0.375l0.8388672-0.2929688l-0.0839844-0.4931641l0.2216797,0.4755859l0.2294922-0.0126953
		h0.1083984l0.0283203-0.4990234l0.1103516,0.5078125l0.6025391,0.1230469l0.1494141-0.4775391l-0.0498047,0.5146484
		l0.3408203,0.1601563l0.8798828,0.8203125c3.2763672,5.0058594,7.1455078,8.3613281,11.5117188,9.9765625
		c3.5117188,1.1826172,7.3300781,1.2539063,11.3486328,0.2119141c15.640625-4.0429688,32.0888672-24.8330078,33.2646484-56.7470703
		c0.3886719-10.5722656-0.5068359-19.4433594-2.2802734-26.7978516c-1.8984375-7.8730469-4.8046875-14.0019531-8.2451172-18.5703125
		c-4.0615234-5.3925781-8.859375-8.6259766-13.6025391-10.0146484c-2.0410156-0.5976563-4.1171875-0.8798828-6.1982422-0.8720703
		c-2.1005859,0.0078125-4.203125,0.3183594-6.2783203,0.9287109c-0.8642578,0.2548828-1.7246094,0.5595703-2.5761719,0.9169922
		c-2.0986328,0.8808594-4.1523438,2.0654297-6.1240234,3.5605469c-0.6796875,0.6035156-1.3583984,1.234375-2.0361328,1.8935547
		l-0.1728516,0.1679688l0.0244141,0.2402344c0.1552734,1.5380859,0.3300781,3.3476563,0.5195313,5.3701172l0.0117188,0.1181641
		c0.3945313,4.2197266,0.8564453,9.3857422,1.3535156,15.1044922c2.5195313,28.9404297,5.96875,72.0195313,6.4570313,78.1210938
		c0.0712891,0.8984375-0.3994141,1.7470703-1.2050781,2.1630859c-0.1494141,0.0791016-0.3144531,0.140625-0.4931641,0.1845703
		c-0.6865234,0.1669922-1.4199219-0.0029297-1.9619141-0.4550781c-0.7412109-0.6181641-0.9697266-1.0195313-1.8330078-6.8310547
		c-0.4628906-3.1230469-1.0507813-7.515625-1.7978516-13.4287109c-1.3417969-10.6191406-2.9677734-24.3701172-4.5400391-37.6689453
		l-0.1347656-1.1347656c-1.0859375-9.1962891-2.2949219-19.4316406-3.3095703-27.7050781
		c-0.0400391-0.3242188-0.0800781-0.6474609-0.1191406-0.9658203c-0.1328125-1.0830078-0.2636719-2.1337891-0.3886719-3.1347656
		l-0.0878906-0.7041016l-0.6337891,0.3203125l-0.2041016,0.0888672l-0.1318359,0.0517578l-0.0859375,0.1132813
		c-0.1572266,0.2080078-0.3144531,0.4277344-0.4716797,0.6396484c-2.3574219,3.1689453-4.7177734,6.6835938-7.0576172,10.5146484
		c-1.3710938,2.2451172-2.7353516,4.5917969-4.0878906,7.0429688c-0.3300781,0.5966797-0.8710938,1.0292969-1.5263672,1.21875
		c-0.65625,0.1904297-1.34375,0.1113281-1.9394531-0.2167969c-0.5957031-0.3291016-1.0283203-0.8710938-1.2177734-1.5253906
		c-0.1884766-0.6542969-0.1123047-1.3427734,0.2167969-1.9394531c0.4228516-0.7675781,0.8496094-1.5097656,1.2753906-2.2578125
		c3.6533203-6.421875,7.3876953-12.1357422,11.1591797-17.0722656c1.1171875-1.4619141,2.2363281-2.8710938,3.3583984-4.1943359
		l0.0751953-0.1015625l0.2695313-0.3632813l-0.0283203-0.2021484c-0.3193359-2.2919922-0.5380859-3.6318359-0.6679688-4.0986328
		c-0.1865234-0.6689453-0.0498047-1.3984375,0.3671875-1.9511719c1.4072266-1.8652344,3.5507813-3.984375,5.7490234-3.4960938
		c0.4736328,0.1054688,1.3583984,0.4365234,1.9570313,1.4580078l0.3027344,0.5166016l0.4541016-0.3896484
		c1.7275391-1.4824219,3.4609375-2.8066406,5.1523438-3.9365234c2.2744141-1.5195313,4.4599609-2.6835938,6.5517578-3.5703125
		l0.1328125-0.0527344c2.0947266-0.8769531,4.0898438-1.4638672,5.9804688-1.8251953
		c5.8271484-1.1132813,10.6474609-0.0751953,14.1591797,1.4033203c5.0166016,2.1113281,9.5380859,5.9824219,13.3466797,11.2441406
		c3.8134766,5.2675781,6.9013672,11.9414063,9.0322266,19.6884766c0.1884766,0.6855469,0.3808594,1.3671875,0.5537109,2.0683594
		c1.9863281,8.0429688,2.8730469,16.6542969,2.6357422,25.5947266c-0.2470703,9.40625-1.7382813,18.7089844-4.4296875,27.6464844
		c-2.71875,9.0253906-8.3359375,18.3925781-15.4111328,25.6992188
		c-6.6240234,6.8398438-14.2568359,11.5810547-21.4902344,13.3496094c-0.9121094,0.2226563-1.8300781,0.4013672-2.7294922,0.5322266
		c-4.6914063,0.6787109-9.140625,0.1230469-13.3105469-1.6884766c-5.1152344-2.1210938-9.3984375-5.9980469-12.7314453-11.5253906
		L461.96875,528.9912109z M550.7021484,436.6601563c-3.8847656-0.0322266-7.265625-0.6611328-10.1787109-1.7480469
		c-7.5888672-2.8300781-11.9501953-8.8154297-13.4345703-15.8056641c-1.1083984,1.5126953-2.2734375,3.0244141-3.4833984,4.4931641
		c-0.8564453,1.0400391-1.7363281,2.0556641-2.6318359,3.0351563c-3.8935547-5.3291016-8.515625-9.2607422-13.6464844-11.4199219
		c-3.5947266-1.5136719-8.5029297-2.5849609-14.4130859-1.5263672c1.0869141-7.6142578,3.7070313-15.1367188,5.9189453-19.015625
		c2.0771484-3.1943359-1.2744141-4.7119141-5.0292969-0.8789063c-3.9736328,5.0458984-6.1035156,13.4033203-7.0175781,21.6923828
		l-0.1025391,0.0400391c-2.2714844,0.9296875-4.6455078,2.1679688-7.1240234,3.8232422
		c-1.5869141,1.0595703-3.2070313,2.2851563-4.8232422,3.6474609c-0.7607422-0.9707031-1.7207031-1.3173828-2.2705078-1.4404297
		c-2.1474609-0.4755859-4.4931641,0.859375-6.765625,3.8710938c-0.6035156,0.7988281-0.8017578,1.8544922-0.53125,2.8212891
		c0.0771484,0.2792969,0.2460938,1.1621094,0.6123047,3.765625l-0.0107422,0.0146484
		c-2.0585938-1.8164063-3.3789063-4.1025391-3.9794922-6.7021484c-0.2265625-0.9140625-0.3671875-1.9912109-0.4365234-3.1826172
		c-1.2744141,1.6103516-2.578125,3.1523438-3.9013672,4.5908203c-4.4570313,4.8457031-9.1220703,8.4902344-13.5976563,9.5322266
		c-0.8486328,0.1982422-1.6923828,0.3125-2.5244141,0.3125c-3.2734375,0-6.3847656-1.0380859-8.6992188-3.1923828
		c-2.3779297-2.3359375-3.3710938-6.2666016-3.4277344-10.9140625c-1.3535156,1.6845703-2.7431641,3.2851563-4.1660156,4.7734375
		c-1.4072266,1.4707031-2.8447266,2.8378906-4.3134766,4.0625c-2.5234375,2.1416016-5.8242188,4.0722656-9.1835938,4.9414063
		c-4.4023438,1.1386719-8.9052734,0.4521484-11.8935547-3.9853516c-1.8378906-2.7744141-2.5048828-6.5566406-2.5537109-10.4628906
		c-1.3847656,1.7675781-2.8359375,3.4970703-4.3349609,5.1162109c-5.0644531,5.4697266-10.6611328,9.6650391-15.9697266,9.6650391
		c-19.4794922,0-11.4160156-32.2519531-5.9091797-41.9111328c2.0771484-3.1943359-1.2744141-4.7119141-5.0292969-0.8789063
		c-6.7871094,8.6191406-8.2236328,26.9023438-7.3447266,37.9990234c0.1611328,1.9150391-1.1181641,3.5126953-3.0332031,4.1513672
		c-1.8476563,0.5654297-4.6582031,0.7890625-7.7856445,0.3105469c-1.734375-0.2646484-3.5629883-0.7382813-5.3862305-1.5068359
		c-4.7109375-1.9150391-7.5039063-5.2695313-8.4628906-9.4208984c-0.2373047-0.9580078-0.3803711-2.09375-0.4453125-3.3544922
		c-1.277832,1.5078125-2.6108398,2.9501953-4.0073242,4.2988281c-6.4375,6.2158203-14.1655273,10.4736328-23.5063477,10.3886719
		c-3.8798828-0.0322266-7.2573242-0.6601563-10.1679688-1.7441406c-7.5112305-2.796875-11.8613281-8.6835938-13.3930664-15.5771484
		c-1.1499023,1.5693359-2.3447266,3.1005859-3.5883789,4.5771484c-2.2636719,2.6884766-4.6875,5.1962891-7.3134766,7.3935547
		c-2.8457031,2.4169922-6.6811523,4.5625-10.4746094,5.21875c-3.9746094,0.6884766-7.9023438-0.2597656-10.5986328-4.2626953
		c-1.9941406-3.0107422-2.6152344-7.2050781-2.5585938-11.4599609c-1.4414063,1.8828125-2.9257813,3.6855469-4.4365234,5.3623047
		c-5.4628906,6.0625-11.2758789,10.4160156-16.7080078,10.4160156c-3.2734375,0-6.3876953-1.0390625-8.7021484-3.1933594
		c-2.3964844-2.3974609-3.3544922-6.3876953-3.4326172-11.1777344c-5.9072266,9.6582031-13.09375,14.3671875-18.0419922,14.3671875
		c-6.3056641-0.0458984-10.300293-3.1367188-12.3989258-7.8085938c-1.4892578-3.3154297-2.03125-7.421875-1.7329102-11.8291016
		c1.0961914-15.8671875,10.5024414-27.1923828,21.5488281-32.4052734
		c8.2924805-3.9130859,17.5083008-4.3867188,24.8330078-0.7246094c8.2226563-5.2695313,23.4697266-0.2392578,18.2001953,4.5507813
		c-3.2714844,2.9550781-7.4199219,25.3085938-5.1865234,25.6259766c0.4506836,0.0791016,1.2133789-0.4482422,2.168457-1.3837891
		c1.7519531-1.7167969,4.1611328-4.8261719,6.5527344-8.2314453c1.402832-5.1953125,3.2636719-10.7617188,5.2128906-16.4560547
		c5.7905273-16.9179688,12.3139648-34.9316406,9.6108398-47.4550781c-0.8007813-3.1152344,2.7119141-4.1513672,5.1074219-4.1513672
		c11.4179688-0.0791016,14.7695313,8.7802734,14.4511719,18.6005859
		c-0.5576172,16.0449219-6.5458984,42.2304688-9.0996094,49.8144531c-0.3994141,1.5976563-2.3925781,9.0234375-0.7167969,9.3408203
		c0.4501953,0.0478516,1.1289063-0.3837891,1.9580078-1.1513672c1.5014648-1.3886719,3.5048828-3.9013672,5.5961914-6.7910156
		c1.925293-7.9892578,6.9458008-15.6503906,14.6132813-20.2910156c4.8374023-2.9277344,10.7236328-4.6572266,17.5581055-4.4970703
		c11.84375,0.2539063,20.0996094,6.5380859,19.6513672,13.03125c-0.097168,1.4111328-0.609375,2.8320313-1.5820313,4.203125
		c-2.9970703,4.2255859-10.394043,7.9794922-23.7402344,9.5097656c-0.7299805,5.5410156,11.0253906,7.6826172,20.6494141,2.4443359
		c1.9970703-1.0878906,3.8989258-2.4941406,5.5820313-4.2539063c1.2714844-5.1894531,3.1074219-10.4296875,5.347168-14.6933594
		c1.2817383-2.4394531,2.6938477-4.5595703,4.2075195-6.1650391c5.0302734-5.2695313,15.3300781-4.390625,19.4814453-1.6757813
		c3.59375-1.5966797,9.1015625-2.5556641,13.0917969-2.5556641c26.7470703,0.3193359,10.6992188,32.1708984,14.3730469,32.8105469
		c0.2919922,0.0507813,0.7080078-0.1621094,1.1923828-0.5273438c1.7519531-1.3271484,4.4882813-4.90625,6.3427734-7.4677734
		c0.9257813-3.6074219,2.09375-7.4082031,3.3847656-11.3291016c2.8154297-8.546875,6.1738281-17.6308594,8.6621094-26.3447266
		h-3.9121094c-1.9150391,0-3.4326172-1.5175781-3.4326172-3.3544922c0-1.9150391,1.5175781-3.4326172,3.4326172-3.4326172h5.7480469
		c1.8369141-7.7421875,2.6367188-15.0869141,1.3574219-21.0732422c-0.8007813-3.1152344,2.7158203-4.1513672,5.1083984-4.1513672
		c11.4179688-0.0791016,14.7714844,8.7802734,14.4511719,18.6005859c-0.078125,2.0761719-0.2402344,4.3125-0.4794922,6.6269531
		h5.1083984c1.9150391,0,3.4345703,1.5175781,3.4345703,3.4326172c0,1.8369141-1.5195313,3.3544922-3.4345703,3.3544922h-5.9091797
		c-2.0742188,14.5292969-5.90625,30.734375-7.8203125,36.3955078c-0.3994141,1.5957031-2.3955078,9.0234375-0.6386719,9.3408203
		c0.2402344,0.0263672,0.5585938-0.1074219,0.9326172-0.3564453c1.4501953-0.9658203,3.8056641-3.8232422,6.3164063-7.2724609
		c2.5283203-9.0839844,6.5410156-17.6142578,9.7666016-21.0234375c3.3974609-3.5810547,9.2001953-4.3242188,13.8828125-3.5791016
		c5.4414063,0.8662109,9.3691406,3.7431641,6.2373047,6.5322266c-3.1943359,2.9550781-7.4238281,25.3085938-5.1914063,25.6259766
		c0.2197266,0.0371094,0.5087891-0.0673828,0.8427734-0.2685547c1.3359375-0.8017578,3.4970703-3.3496094,5.8476563-6.5214844
		c1.9638672-8.453125,5.4609375-17.2089844,9.7763672-21.7861328c1.8701172-1.9589844,4.46875-3.0654297,7.2080078-3.546875
		c4.6308594-0.8125,9.6650391,0.1650391,12.2734375,1.8710938c3.59375-1.5966797,9.1015625-2.5556641,13.0917969-2.5556641
		c26.7470703,0.3193359,10.6992188,32.1708984,14.3730469,32.8105469c0.4804688,0.0839844,1.2783203-0.5009766,2.2080078-1.4248047
		c1.7597656-1.7460938,3.9990234-4.7236328,5.5322266-6.8535156c0.8535156-3.3544922,2.25-6.6425781,4.1621094-9.6650391
		c5.4267578-8.5791016,14.9794922-15.0146484,27.90625-14.7119141c22.3515625,0.4794922,31.9306641,22.4326172-5.6708984,26.7441406
		c-0.9570313,7.265625,19.5595703,8.7021484,28.5791016-4.7089844c2.7978516-4.0703125,8.703125-1.6757813,6.0703125,3.3505859
		C580.2382813,421.4921875,568.3457031,436.8203125,550.7021484,436.6601563z"/>
	<path d="M638.8945313,505.3125l-0.8623047,1.1044922c-6.0214844,7.7119141-10.5429688,16.3916016-13.0751953,25.1005859
		c-2.8203125,9.7021484-2.9619141,18.7519531-0.3779297,24.2080078l0.015625,0.0292969
		c0.4931641,0.8867188,1.0810547,1.5117188,1.7470703,1.8574219c0.4853516,0.2519531,1.0546875,0.3779297,1.7041016,0.3779297
		c0.9335938,0,2.0341797-0.2597656,3.2919922-0.7773438c1.3457031-0.5546875,4.6699219-3.3886719,6.4638672-17.6806641
		c1.0498047-8.3642578,1.4277344-19.40625,1.125-32.8193359L638.8945313,505.3125z M626.8027344,556.7255859
		c-0.4863281-0.2529297-0.9326172-0.7382813-1.3271484-1.4433594c-2.4375-5.1660156-2.2685547-14.1621094,0.4423828-23.4853516
		c2.3740234-8.1669922,6.5253906-16.3115234,12.0390625-23.6376953c0.2441406,12.7226563-0.1416016,23.2304688-1.1474609,31.2480469
		c-1.8222656,14.5214844-5.1953125,16.6103516-5.8525391,16.8818359
		C629.1083984,557.0488281,627.7128906,557.1982422,626.8027344,556.7255859z"/>
	<path d="M383.6611328,343.1591797c-4.2109375,0.4428711-6.2451172,3.9072266-6.4335938,4.2416992
		c0.0869141-1.2216797,0.0673828-3.3188477-0.8916016-5.605957c-1.1386719-2.7163086-3.9345703-6.4916992-7.3139648-6.6069336
		c-5.1621094-0.1762695-8.5981445,8.2924805-8.8876953,9.0292969c-4.3925781,11.175293,4.0097656,23.1821289,5.5527344,25.3178711
		c2.8046875-0.1523438,17.5834961-1.1962891,23.550293-11.5444336c0.8808594-1.5268555,4.5292969-7.8530273,1.65625-11.9306641
		C389.3662109,343.8930664,386.359375,342.8754883,383.6611328,343.1591797z"/>
	<path d="M328.0893555,329.9335938c-2.1640625-0.6054688-4.6835938,0.3359375-6.3032227,1.965332
		c-2.5288086,2.5444336-2.0092773,5.9072266-1.9541016,6.2275391c-0.597168-0.8481445-1.7329102-2.2143555-3.5878906-3.2026367
		c-2.2026367-1.1738281-6.0605469-2.1572266-8.3417969-0.4243164c-3.484375,2.6469727-1.2055664,10.0454102-1.0009766,10.684082
		c3.0996094,9.6875,15.0478516,13.0737305,17.2045898,13.6499023c1.7607422-1.6005859,10.9077148-10.1943359,9.2851563-20.1816406
		C333.1518555,337.1782227,332.159668,331.0727539,328.0893555,329.9335938z"/>
	<path d="M245.2836914,328.4208984c-2.6748047-1.171875-6.0878906-0.418457-8.4672852,1.3847656
		c-3.7148438,2.8149414-3.6552734,7.2363281-3.6425781,7.6586914c-0.6147461-1.199707-1.8291016-3.1645508-4.0371094-4.7734375
		c-2.6220703-1.9106445-7.4082031-3.8764648-10.6582031-2.0605469c-4.9633789,2.7729492-3.3706055,12.7080078-3.2231445,13.5668945
		c2.234375,13.0297852,16.9970703,19.5581055,19.668457,20.6914063c2.5551758-1.7402344,15.8828125-11.1381836,15.6035156-24.284668
		C250.4863281,338.6640625,250.3154297,330.6269531,245.2836914,328.4208984z"/>
</g>
</svg>
