<?xml version="1.0" encoding="utf-8"?>
<!-- Generator: Adobe Illustrator 22.0.1, SVG Export Plug-In . SVG Version: 6.00 Build 0)  -->
<svg version="1.1" id="Шар_1" xmlns="http://www.w3.org/2000/svg" xmlns:xlink="http://www.w3.org/1999/xlink" x="0px" y="0px"
	 viewBox="0 0 714 714" style="enable-background:new 0 0 714 714;" xml:space="preserve">
<style type="text/css">
	.st0{fill:#FFFFFF;}
	.st1{fill:#A22E39;}
	.st2{fill:#F9CEA7;}
	.st3{fill:#EA7878;}
</style>
<g>
	<path class="st0" d="M253.9775391,199.8588867l-0.078125,2.3149414c0.2392578-0.8789063,0.4785156-1.6757813,0.7167969-2.4760742
		C254.4560547,199.7773438,254.2167969,199.7773438,253.9775391,199.8588867z"/>
	<path class="st0" d="M644.8984375,486.5732422c13.75-14.9677734,19.5615234-30.0791016,17.7685547-45.9980469
		c-5.5751953,6.0605469-14.0185547,9.7158203-22.3164063,10.4072266c0.6884766,4.3984375,1.5585938,10.2636719,2.4335938,17.0292969
		C643.4990234,473.5400391,644.2451172,479.8710938,644.8984375,486.5732422z"/>
	<path class="st0" d="M401.0849609,322.3994141c-2.3144531-3.1943359-9.2597656-11.8154297-9.9775391-15.0078125
		c-0.7998047-3.4326172,0.9570313-6.3066406,2.1552734-9.2597656c1.4501953-3.6738281,2.6552734-7.5893555,3.6875-11.6459961
		c-5.4335938,2.0991211-11.4677734,2.3837891-17.421875,0.3891602
		c-1.3574219,16.6826172-0.8779297,42.1503906-23.5488281,42.8691406c-6.9453125,0.2402344-13.171875-1.5966797-17.484375-7.3447266
		c-2.3144531-3.1943359-9.2597656-11.8154297-9.9775391-15.0078125c-0.7998047-3.4326172,0.9570313-6.3066406,2.1552734-9.2597656
		c1.2646484-3.2026367,2.3413086-6.5893555,3.28125-10.0922852c-0.2236328,0.0112305-0.4482422,0.0317383-0.6708984,0.0317383
		c-7.0244141,0-11.0146484-2.7929688-14.7685547-7.9833984c-2.9272461,3.0205078-6.0810547,5.2231445-9.2866211,6.5522461
		c0.8823242,1.3520508,1.546875,2.5258789,1.7495117,3.2719727c6.1484375,22.9921875-34.8056641,44.2246094-54.4433594,17.6435547
		l-8.7016602-11.8964844c-3.5942383-5.0302734-5.5878906-9.3417969-7.1850586-15.7255859
		c-7.0249023,18.1230469-18.2797852,34.3261719-36.8808594,41.4326172
		c-4.0185547,1.5517578-8.0717773,2.5615234-12.0600586,3.0244141c2.5297852,3.1289063,4.9233398,6.746582,7.7553711,10.6005859
		c8.0102539,10.8793945,8.1220703,25.9169922,4.8344727,40.8408203c7.4853516-2.7021484,15.7558594-3.1816406,23.2329102-0.2841797
		c0,0,15.7255859-6.1484375,23.7109375,4.7089844l0.0644531,0.0878906
		c5.4355469-15.8955078,10.8178711-31.4135742,8.4648438-41.6796875
		c-2.6318359-11.4160156,16.5263672-14.3671875,24.9873047-2.8710938l8.7021484,11.8134766
		c3.4326172,4.390625,4.7900391,10.5371094,4.5507813,17.1621094c-0.125,3.9619141-0.4863281,8.0839844-1.0078125,12.2685547
		c4.9111328-2.3261719,10.5820313-3.6396484,16.9414063-3.4902344c10.4331055,0.2353516,17.012207,3.4140625,22.7670898,11.0253906
		c1.2407227-2.1259766,2.5649414-3.9804688,3.9438477-5.4375c5.3476563-5.6689453,15.9658203-6.7841797,23.2314453-3.5947266
		c1.7578125,0.0800781,20.1171875-7.9013672,30.5761719,6.3066406c1.2246094,1.6660156,2.4765625,3.3320313,3.7216797,4.9980469
		c1.9570313-5.7734375,3.9277344-11.0371094,5.2929688-15.1318359l-3.2724609-4.46875
		c-3.9121094-4.7089844-2.1533203-13.4111328,8.2246094-13.4111328c0.9560547-5.0302734,1.5175781-10.6171875,0.5576172-15.1689453
		c-1.0195313-4.4467773,1.2529297-7.5839844,4.890625-9.1171875
		C408.8447266,328.9174805,404.3984375,326.8164063,401.0849609,322.3994141z M233.9238281,361.8886719
		c-2.6713867-1.1328125-17.434082-7.6616211-19.668457-20.6914063c-0.1474609-0.8588867-1.7402344-10.7939453,3.2231445-13.5668945
		c3.25-1.815918,8.0361328,0.1499023,10.6582031,2.0605469c2.2080078,1.6088867,3.4223633,3.5737305,4.0371094,4.7734375
		c-0.0126953-0.4223633-0.0722656-4.84375,3.6425781-7.6586914c2.3793945-1.8032227,5.7924805-2.5566406,8.4672852-1.3847656
		c5.0317383,2.2060547,5.2026367,10.2431641,5.2436523,12.1831055
		C249.8066406,350.7504883,236.4790039,360.1484375,233.9238281,361.8886719z M323.105957,355.8339844
		c-2.1567383-0.5761719-14.1049805-3.9628906-17.2045898-13.6503906c-0.2045898-0.6386719-2.4833984-8.0371094,1.0009766-10.684082
		c2.28125-1.7329102,6.1391602-0.7495117,8.3417969,0.4243164c1.8549805,0.9882813,2.9907227,2.3544922,3.5878906,3.2026367
		c-0.0551758-0.3203125-0.574707-3.6831055,1.9541016-6.2275391c1.6196289-1.6293945,4.1391602-2.5708008,6.3032227-1.965332
		c4.0703125,1.1391602,5.0625,7.2446289,5.3017578,8.7182617
		C334.0136719,345.6391602,324.8666992,354.2329102,323.105957,355.8339844z M388.2373047,354.9907227
		c-5.9667969,10.3481445-20.7451172,11.3920898-23.5498047,11.5444336
		c-1.5429688-2.1357422-9.9458008-14.1425781-5.5527344-25.3178711c0.2890625-0.7368164,3.7246094-9.2055664,8.8867188-9.0292969
		c3.3798828,0.1152344,6.1757813,3.890625,7.3144531,6.6069336c0.9589844,2.2871094,0.9785156,4.3842773,0.8916016,5.605957
		c0.1884766-0.3344727,2.2226563-3.7988281,6.4335938-4.2416992c2.6982422-0.2836914,5.7050781,0.7338867,7.2324219,2.9008789
		C392.7666016,347.1376953,389.1181641,353.4638672,388.2373047,354.9907227z"/>
	<path class="st0" d="M678.5,415.5c-1.9355469-7.3652344-5.7216797-12.4013672-8-15c0.5419922-1.6191406,1.1425781-4.0615234,1-7
		c-0.4228516-8.6904297-6.9980469-14.4775391-11-18c-3.4550781-3.0410156-9.1132813-8.0214844-18-9
		c-6.2578125-0.6894531-11.3105469,0.9150391-14,2c1.9433594-2.5703125,4.7246094-6.9746094,6-13
		c2.2792969-10.7734375-1.7958984-19.4677734-4-24c-1.4814453-3.0463867-9.7148438-19.9726563-25-22
		c-3.0048828-0.3984375-8.2871094-1.0996094-12,2c-5.6318359,4.7011719-1.9667969,13.4003906-8,18
		c-3.8945313,2.96875-7.2001953,0.7011719-10,4c-2.7685547,3.2626953-1.8671875,8.2285156-1,13
		c1.6660156,9.1689453,6.4824219,16.2539063,7,17c3.5722656,5.1523438,6.8642578,7.5136719,6,10
		c-0.6240234,1.7949219-3.0458984,2.5996094-5,3c-1.1748047-1.2421875-14.9570313-15.3417969-34-12
		c-11.5283203,2.0234375-18.6308594,9.3232422-21,12c-1.1806641-1.4550781-9.1845703-11.0029297-22-11
		c-6.5654297,0.0019531-11.5341797,2.5097656-14,4c-1.3144531-0.9384766-3.3271484-2.1523438-6-3
		c-2.8476563-0.9023438-5.3349609-1.0380859-7-1c-0.3554688-2.4375-1.2919922-6.2519531-4-10
		c-0.8535156-1.1806641-5.9492188-7.984375-15-9c-3.9326172-0.4414063-7.1494141,0.3745117-9,1
		c-1.2998047-3.2641602-3.4423828-7.5849609-7-12c-2.4052734-2.9848633-4.8681641-5.2802734-7-7
		c2.6796875-2.2753906,9.8251953-8.9677734,12-20c1.0498047-5.3261719,0.5947266-9.9072266,0-13
		c1.5097656,0.0888672,3.1855469,0.1064453,5,0c2.6513672-0.15625,5.0048828-0.5439453,7-1
		c-6.1669922,10.6660156-4.7324219,18.2729492-4,21c1.0117188,3.7646484,3.3544922,6.8945313,8,13
		c6.2216797,8.1777344,9.3330078,12.2666016,13,15c13.4492188,10.0244141,31.0283203,6.2246094,32,6
		c16.3916016-3.7929688,24.8984375-17.1357422,28-22c7.3720703-11.5629883,8.9150391-25.375,12-53
		c1.6259766-14.5595703,1.0214844-18.2685547,4-27c3.4765625-10.1938477,7.3251953-14.0068359,6-21
		c-1.2470703-6.5791016-6.0986328-10.8300781-12-16c-6.1152344-5.3574219-10.8662109-9.5200195-18-10
		c-10.6025391-0.7133789-18.3701172,7.2529297-20,9c-0.8066406-0.7871094-10.1904297-9.6303711-23-7
		c-9.8496094,2.0224609-14.9736328,9.4433594-16,11c-0.6640625-1.0053711-7.3583984-10.7851563-19-11
		c-6.359375-0.1171875-11.0585938,2.6767578-13,4c-0.9677734-0.6748047-8.5361328-5.765625-18-3
		c-8.7070313,2.5449219-12.4179688,9.8125-13,11c-0.5644531-0.8710938-8.2675781-12.3398438-21-12
		c-5.6279297,0.1503906-9.8583984,2.5444336-12,4c-1.9326172-1.0761719-6.234375-3.125-12-3
		c-7.2924805,0.1582031-12.3154297,3.6953125-14,5c-2.0307617-1.2773438-5.8173828-3.2910156-11-4
		c-5.3681641-0.734375-9.6884766,0.2802734-12,1c-2.7412109-1.0917969-7.7573242-2.6396484-14-2
		c-3.2709961,0.3349609-5.9814453,1.1791992-8,2c0.9257813-6.6347656,0.9682617-16.140625-4-25
		c-1.4624023-2.6074219-2.9746094-4.4052734-6-8c-6.3876953-7.5908203-10.8666992-12.9130859-18-15
		c-2.4423828-0.7143555-6.8857422-1.5439453-13,0c-0.534668-0.7900391-7.8320313-11.1694336-21-11
		c-13.5146484,0.1738281-20.5708008,11.2958984-21,12c-4.8867188-1.5996094-25.5576172-7.7563477-46,3
		c-4.8291016,2.5410156-17.4384766,9.1757813-23,24c-6.4204102,17.1132813,1.2763672,32.5449219,3,36
		c2.2363281,4.4829102,7.2724609,12.7919922,17,19c5.3881836,3.4384766,10.4799805,5.1245117,14,6c-1.6665039,3-3.3334961,6-5,9
		c-0.918457-1.2456055-7.4560547-9.8212891-18-10c-8.6933594-0.1474609-14.4492188,5.5102539-18,9
		c-1.8754883,1.84375-13.5322266,13.7128906-11,31c2.1591797,14.7382813,13.0527344,22.6376953,15,24
		c-1.2631836-0.0068359-5.2431641,0.1328125-9,3c-3.3110352,2.5273438-4.5786133,5.7460938-5,7
		c-5.3134766-4.2529297-14.0288086-9.9819336-26-13c-5.9848633-1.5087891-23.2900391-5.0219727-42,3
		c-5.6982422,2.4433594-14.1113281,6.0498047-21,15c-2.3793945,3.0913086-10.3842773,14.3652344-9,30
		c1.1899414,13.4423828,8.6079102,22.0595703,12,26c2.8417969,3.3007813,10.9726563,12.4863281,25,16
		c7.0273438,1.7607422,13.0961914,1.4863281,17,1c-2.1352539,5.4521484-5.6953125,16.7148438-4,31
		c1.7631836,14.859375,8.2470703,24.859375,11,29c3.5219727,5.296875,7.0683594,10.6308594,14,15
		c10.8564453,6.8427734,21.9804688,6.2539063,25,6c15.2314453-1.2822266,24.9331055-10.9501953,30-16
		c6.9858398-6.9619141,10.8842773-14.21875,13-19c6.0732422,12.1796875,17.671875,18.8828125,28,17
		c6.6411133-1.2109375,11.0263672-5.65625,13-8c1.0898438,1.2128906,5.9941406,6.4033203,14,7
		c10.640625,0.7929688,17.3745117-7.2285156,18-8c1.2797852,1.3730469,7.3198242,7.5546875,17,8
		c12.5966797,0.5800781,20.2792969-9.0625,21-10c7.3457031,9.6142578,18.824707,14.6748047,30,13
		c10.7236328-1.6074219,17.1845703-8.8183594,19-11c0.6396484,0.7539063,9.5332031,10.9072266,22,9
		c6.0664063-0.9277344,10.1757813-4.2832031,12-6c0.671875,0.7363281,6.2822266,6.6757813,15,6
		c7.8212891-0.6064453,12.2792969-6.0839844,13-7c0.8261719,0.9970703,8.1054688,9.4814453,20,9
		c10.7167969-0.4335938,17.0224609-7.8164063,18-9c1.1992188,6.9287109,6.4238281,11.8027344,12,12
		c4.8388672,0.1708984,8.2685547-3.2392578,9-4c1.4980469,10.3056641,2.8457031,20.9775391,4,32
		c0.7832031,7.4794922,1.4462891,14.8154297,2,22c-0.5898438-0.4384766-4.4580078-3.2207031-9-2
		c-3.9345703,1.0576172-6.2255859,4.5410156-7,7c-2.4628906,7.8232422,6.421875,18.015625,14,23
		c16.1542969,10.625,35.484375,3.5791016,37,3c10.484375-4.0078125,16.5117188-11.2275391,23-19
		c7.3105469-8.7578125,11.5693359-17.2392578,14-23c1.8173828,2.9892578,8.6171875,13.3564453,21,16
		c3.0195313,0.6445313,8.3964844,1.7929688,14-1c7.4169922-3.6962891,9.6074219-11.4960938,10-13
		c5.3798828,5.3242188,13.2958984,6.4238281,19,3c6.265625-3.7607422,6.9423828-11.2285156,7-12
		c0.1503906,0.890625,0.984375,5.2568359,5,8c2.3984375,1.6386719,4.8193359,1.9365234,6,2
		c-4.7753906,6.2988281-12.1601563,18.1699219-13,34c-0.3789063,7.1357422-0.9111328,17.1738281,6,25
		c1.4072266,1.59375,7.2529297,7.7714844,16,8c11.2021484,0.2919922,18.7490234-9.3935547,20-11
		c3.6386719-4.6708984,6.4091797-11.0849609,7-44c0.1669922-9.3271484,0.0917969-16.9736328,0-22
		c4.5996094-3.8603516,21.8652344-19.2685547,23-43c0.3144531-6.5712891-0.6777344-12.3447266-2-17
		C678.6748047,434.1933594,681.1835938,425.7128906,678.5,415.5z M583.5644531,353.5146484
		c-6.1474609-8.4628906-1.5185547-17.7226563,7.1835938-16.3652344c5.5878906,0.8789063,8.3808594-8.1416016,6.9453125-12.5322266
		l-0.796875-2.7939453c2.7929688-2.8720703,5.5869141-5.9082031,10.6953125-4.3896484
		c5.6708984,1.7578125,10.4580078,9.9775391,14.0517578,14.9287109c9.4199219,12.7695313,9.2597656,33.1240234-7.5058594,39.0322266
		c-9.1015625,3.1953125-16.9238281,0.640625-22.4316406-6.7832031L583.5644531,353.5146484z M668.5380859,438.2099609
		c1.4648438,10.2861328,0.0751953,20.4277344-4.1289063,30.1464844
		c-3.8828125,8.9755859-10.0351563,17.5771484-18.7910156,26.2626953
		c0.8964844,11.0800781,1.4296875,22.6660156,1.0898438,32.9677734c-0.3076172,9.3554688-1.3212891,16.8916016-3.0117188,22.3994141
		c-2.1582031,7.03125-5.5722656,11.1962891-10.1445313,12.3798828l-0.2207031,0.0546875
		c-6.0283203,1.4746094-11.2207031-0.7792969-14.2744141-6.2080078c-0.1416016-0.2519531-0.2773438-0.5146484-0.4091797-0.7802734
		c-1.1259766-2.0205078-1.6025391-4.1357422-1.8730469-5.34375c-0.0410156-0.1767578-0.0898438-0.3974609-0.1103516-0.4677734
		c-0.0986328-0.3466797-0.1289063-0.6962891-0.1064453-1.0361328c-0.9833984-6.1367188-0.3320313-13.7294922,1.9785156-21.6757813
		c3.3574219-11.5507813,9.8798828-22.8652344,18.5546875-32.3066406
		c-0.2910156-6.9716797-0.7128906-13.7666016-1.1640625-19.8798828c-1.3652344,10.6542969-3.7509766,17.484375-7.2626953,20.8242188
		c-1.8486328,1.7607422-4.0830078,2.6328125-6.4619141,2.5253906c-3.9257813-0.1787109-7.3242188-3.0039063-10.1025391-8.3945313
		c-1.484375-2.8808594-2.8496094-6.5927734-4.0732422-11.0712891c-0.1171875,0.5585938-0.2373047,1.1152344-0.3623047,1.6660156
		c-1.2402344,5.4404297-2.8076172,10.1757813-4.5341797,13.6933594c-2.2792969,4.6455078-4.8408203,7.3183594-7.8330078,8.1728516
		c-0.5576172,0.1591797-1.1103516,0.2705078-1.6591797,0.3369141c-3.0283203,0.4824219-5.9375-0.2285156-8.4453125-2.0722656
		c-2.7597656-2.0283203-5.0878906-5.4208984-7.0273438-10.2666016c-1.7753906,10.4941406-5.2275391,17.2675781-10.3066406,20.234375
		c-0.1240234,0.0810547-0.2548828,0.1542969-0.3935547,0.2158203c-0.9248047,0.4960938-1.8994141,0.8759766-2.9287109,1.1269531
		c-0.53125,0.1298828-1.0751953,0.2265625-1.6337891,0.2910156c-3.7695313,0.4345703-7.3320313-0.6884766-10.3017578-3.2490234
		c-6.3935547-5.5097656-8.9628906-16.5087891-9.2197266-24.2519531c-0.2490234-7.4980469,1.0126953-14.7382813,3.6494141-20.9384766
		c2.4765625-5.8251953,5.9960938-10.25,9.9140625-12.4912109c-10.3164063-0.5546875-16.7763672-4.5566406-22.8095703-12.6591797
		c-1.7392578,1.9033203-3.5537109,3.7070313-5.4189453,5.3212891c0.2050781,0.7392578,0.4111328,1.4785156,0.5986328,2.2373047
		c1.9970703,8.0830078,2.8886719,16.7392578,2.6513672,25.7265625c-0.25,9.4580078-1.7490234,18.8027344-4.453125,27.7802734
		c-2.7412109,9.1005859-8.4023438,18.5410156-15.5292969,25.9003906
		c-6.7597656,6.9794922-14.3779297,11.6894531-21.7314453,13.4873047c-0.9316406,0.2275391-1.8564453,0.4082031-2.7763672,0.5419922
		c-3.8730469,0.5595703-8.6259766,0.4267578-13.4941406-1.6904297l-0.0791016-0.03125
		c-5.2158203-2.1630859-9.578125-6.1074219-12.9667969-11.7265625l-0.0458984-0.0849609l-0.0761719-0.1416016l-0.0615234-0.1347656
		l-0.0605469-0.1455078l-0.046875-0.1396484l-0.0439453-0.1474609l-0.0341797-0.1435547l-0.0283203-0.1464844l-0.0195313-0.1494141
		l-0.0126953-0.1425781l-0.0048828-0.1523438v-0.1425781l0.0087891-0.1503906l0.0146484-0.1425781l0.0234375-0.1464844
		l0.0273438-0.1416016l0.0371094-0.140625l0.0419922-0.1425781l0.0498047-0.1347656l0.0566406-0.1386719l0.0615234-0.1289063
		l0.0693359-0.1337891l0.0751953-0.1240234l0.0820313-0.1259766l0.0888672-0.1201172l0.0917969-0.1132813l0.1044922-0.1152344
		l0.1025391-0.1044922l0.1191406-0.1064453l0.1113281-0.09375l0.1308594-0.0957031l0.078125-0.0566406l0.0488281-0.0273438
		l0.046875-0.0332031l0.0859375-0.0458984l0.1425781-0.0761719l0.1308594-0.0585938l0.1513672-0.0634766l0.1318359-0.0439453
		l0.15625-0.0478516l0.1337891-0.0302734l0.1572266-0.03125l0.1367188-0.0175781l0.15625-0.0146484l0.1386719-0.0048828
		l0.1552734,0.0009766l0.1376953,0.0087891l0.1542969,0.015625l0.1357422,0.0214844l0.1533203,0.0292969l0.1308594,0.0341797
		l0.1503906,0.0449219l0.1269531,0.0458984l0.1464844,0.0605469l0.1230469,0.0576172l0.1386719,0.0732422l0.1201172,0.0722656
		l0.1279297,0.0849609l0.1181641,0.0869141l0.1162109,0.09375l0.1132813,0.1025391l0.1054688,0.1035156l0.1054688,0.1181641
		l0.0947266,0.1132813l0.0947266,0.1298828l0.0566406,0.0791016c3.2324219,4.9355469,6.9980469,8.2001953,11.2558594,9.7753906
		c3.3828125,1.140625,7.1103516,1.2265625,11.0625,0.2021484c15.4609375-3.9970703,31.7236328-24.6123047,32.890625-56.2822266
		c0.3857422-10.4716797-0.4931641-19.2578125-2.234375-26.5429688c-1.9599609,0.7578125-3.9169922,1.1923828-5.8398438,1.1923828
		c-6.1474609,0-10.2158203-2.234375-13.7314453-7.0234375c-2.0517578,7.6796875-13.6132813,8.8955078-22.7744141,4.7041016
		c2.4960938,28.6894531,5.8847656,71.0087891,6.4296875,77.8154297c0.0878906,1.0966797-0.4921875,2.1396484-1.4697266,2.6464844
		c-0.1943359,0.1015625-0.3994141,0.1757813-0.6074219,0.2265625c-0.8310547,0.2041016-1.7255859,0.0078125-2.4013672-0.5556641
		c-0.9169922-0.765625-1.1494141-1.3642578-2.0068359-7.1425781c-0.4628906-3.1220703-1.0517578-7.5175781-1.7998047-13.4394531
		c-1.3789063-10.9208984-3.0546875-25.0976563-4.6748047-38.8076172
		c-1.0986328-9.2988281-2.2646484-19.1728516-3.2558594-27.2626953c-2.5605469,2.4111328-5.2265625,4.5029297-7.921875,6.0449219
		c-1.4941406,2.421875-2.9833984,4.9746094-4.4667969,7.6640625c-0.8134766,1.4746094-2.6689453,2.0107422-4.1445313,1.1972656
		c-1.4746094-0.8134766-2.0107422-2.6699219-1.1972656-4.1435547c0.3642578-0.6601563,0.7304688-1.2958984,1.0957031-1.9414063
		c-0.1455078,0.0048828-0.2929688,0.0205078-0.4384766,0.0205078c-7.5087891,0-11.5302734-3.5996094-15.2773438-8.5205078
		c-0.796875,0.7587891-1.5908203,1.4824219-2.375,2.1396484c-8.0615234,6.7841797-20.9150391,10.3779297-28.0205078,0.1601563
		l-1.8574219-2.5292969c-5.4550781,5.0908203-11.4052734,8.7470703-17.0576172,8.7470703
		c-6.1474609,0-10.2158203-2.234375-13.7314453-7.0234375c-2.7939453,10.4580078-23.2324219,8.9423828-31.2119141-1.9150391
		c-0.2817383-0.3876953-0.5908203-0.8017578-0.9106445-1.2265625c-7.0087891,6.1865234-15.4169922,10.3652344-25.2446289,10.2451172
		c-11.5727539-0.0791016-18.5014648-4.0185547-24.9277344-12.5917969c-2.0551758,2.2753906-4.1621094,4.3671875-6.2529297,6.1308594
		c-8.0634766,6.7851563-20.9951172,10.3779297-28.0214844,0.1611328l-2.3212891-3.1601563
		c-5.6210938,5.4267578-11.8149414,9.3828125-17.7050781,9.3828125c-7.0244141,0-11.0146484-2.7929688-14.7685547-7.9833984
		c-9.9785156,10.296875-22.5927734,11.1748047-30.8935547-0.1611328l-8.1416016-11.0947266
		c-0.3613281-0.4873047-0.6962891-0.9912109-1.0146484-1.5048828c-12.6088867,18.9492188-32.2485352,40.6347656-52.6875,39.1884766
		c-11.3359375-0.7998047-15.7255859-9.0224609-21.8730469-17.4042969
		c-5.9892578-8.1416016-8.4619141-13.0117188-9.3398438-24.9072266
		c-0.9570313-13.3310547,2.2363281-29.7783203,6.6269531-44.3867188
		c-11.0966797,9.1005859-33.1298828,9.1787109-43.5078125-4.9511719
		c-3.1914063-4.3115234-9.9785156-12.9326172-11.8154297-17.2431641
		c-4.5507813-10.5380859-1.199707-22.2734375,6.3061523-30.5761719c17.4829102-19.1582031,63.3071289-22.8310547,80.550293,0.71875
		l8.7021484,11.8955078c8.5429688,11.5771484,7.2666016,21.5556641,5.4296875,34.7275391l-4.4697266,33.609375
		c7.9052734-16.3662109,15.9658203-42.3916016,13.4931641-59.953125c-5.3486328-0.8779297-5.1083984,0.3994141-9.0986328-5.0292969
		l-7.5058594-10.2998047c-6.78125-9.2177734,7.7143555-18.3720703,20.7084961-21.2124023
		c-1.2255859-1.2402344-2.3876953-2.590332-3.4716797-4.0649414c-4.7089844-6.4667969-10.7773438-13.4931641-13.25-20.9960938
		c-7.7451172-24.109375,17.4829102-48.6958008,27.0620117-35.6855469l8.3813477,11.3359375
		c6.2265625-1.5966797,11.6557617-8.8603516,15.246582-13.9716797c-1.996582-2.8720703-4.7089844-5.5874023-5.8271484-9.0200195
		c-13.0102539-3.1147461-18.3613281-12.6142578-25.7060547-22.5126953
		c-0.1577148-0.2446289-0.3974609-0.5639648-0.5571289-0.8037109c-9.2612305-12.2133789-9.6606445-28.5795898,1.2744141-40.3134766
		c13.8105469-14.6904297,40.5546875-16.1264648,59.4736328-12.6142578
		c6.2280273-10.1381836,22.8320313-16.5258789,32.4125977-3.4326172l4.0722656,5.5078125
		c5.5869141-4.6289063,16.9228516-2.5541992,22.3525391,4.7905273l8.7021484,11.8950195
		c7.3007813,9.9150391,4.0219727,21.9711914,1.559082,32.9731445c0.3930664-0.2709961,0.784668-0.543457,1.1879883-0.7998047
		c9.1796875-5.8266602,20.9931641-8.2211914,31.2929688-4.2294922c0,0,15.7255859-6.1479492,23.7109375,4.7089844
		l0.3720703,0.5068359c1.8432617-2.5771484,4.0532227-4.5068359,6.7539063-5.6166992
		c5.4306641-2.2363281,11.9755859-2.2363281,17.484375,0c1.5175781,0,17.4824219-7.1831055,28.7392578,8.0634766
		l5.1044922,6.9570313c2.4511719-7.3657227,5.8876953-12.8120117,11.2617188-15.0205078
		c5.4306641-2.2363281,11.9755859-2.2363281,17.484375,0c1.5175781,0,17.4824219-7.1831055,28.7392578,8.0634766
		l5.6269531,7.6699219c2.2265625-5.0712891,4.7470703-9.2788086,7.0800781-11.7416992
		c7.1044922-7.5058594,23.0703125-6.8671875,28.3398438,0.3178711l1.6757813,2.3144531
		c7.6621094-9.9785156,24.5888672-10.9350586,31.4541016-1.5175781l8.1455078,11.0981445
		c2.7148438,3.1948242,2.2363281,7.1850586-0.8789063,10.2182617c-2.7158203,2.9536133-6.6269531,20.9155273-7.4238281,25.4663086
		c-4.2304688,24.3496094-6.9443359,73.2060547-39.9140625,75.3603516
		c-11.0966797,0.71875-17.5634766-3.0332031-23.3916016-10.8564453
		c-3.2734375-4.4697266-9.1005859-11.4960938-10.7792969-16.2871094
		c-6.2265625-17.0830078,10.5390625-35.0449219,19.2382813-22.5908203c0.4794922-0.0800781,1.0371094-0.71875,1.5175781-1.5175781
		c-6.0253906-1.3896484-9.8525391-7.0625-13.3974609-12.1918945c-7.1474609,10.0541992-19.0732422,14.8051758-30.6845703,10.9155273
		c-1.2412109,15.2524414-0.9580078,37.8354492-18.2236328,42.1474609c3.7441406,0.9301758,7.4160156,3.0771484,9.9970703,6.609375
		l8.7021484,11.8974609c3.15625,4.2895508,3.7832031,7.8769531,4.1220703,10.4267578
		c2.3886719-2.2714844,5.6210938-3.7246094,9.3779297-3.7246094c8.3808594,0,11.8134766,6.6259766,16.5244141,13.0097656
		l3.4335938,4.7910156c0.5888672,0.7285156,1.0927734,1.5175781,1.5214844,2.3447266
		c4.7685547-1.0742188,10.0732422-0.6757813,14.265625,1.1640625c1.7578125,0.0800781,20.1171875-7.9013672,30.5761719,6.3066406
		c1.7783203,2.4208984,3.6123047,4.8417969,5.3994141,7.2617188c6.4306641-9.2128906,17.1279297-15.8896484,31.1142578-15.5615234
		c10.6152344,0.2392578,17.2431641,3.5146484,23.0703125,11.4179688l6.8652344,9.4189453
		c2.3945313,1.9970703,0.9580078-0.2392578,4.3095703,4.3916016l7.5839844,10.2167969
		c2.3144531,2.7929688,2.1542969,6.546875,0.4794922,9.6572266c-5.5087891,10.2910156-13.3544922,21.0498047-23.5771484,27.2441406
		c0.8144531,0.4365234,1.4511719,1.1884766,1.7060547,2.15625c0.8476563,3.2216797,1.4521484,8.2128906,2.1523438,13.9921875
		c0.8271484,6.8330078,1.7636719,14.578125,3.3144531,21.1494141c2.0351563,8.6220703,4.3339844,11.6748047,5.9042969,12.7177734
		c0.6328125,0.4199219,1.2822266,0.5908203,2.0263672,0.5253906l0.203125-0.0380859
		c0.1152344-0.0224609,0.2304688-0.0380859,0.3447266-0.0488281c0.1025391-0.0224609,0.2041016-0.0458984,0.3105469-0.0761719
		c1.6445313-0.4697266,5.1992188-4.6542969,8.09375-17.3554688c1.4697266-6.4501953,2.375-13.6679688,2.5410156-19.6181641
		c-0.8740234-6.2939453-1.3535156-11.6845703-1.5703125-14.4960938c-0.0517578-0.6728516,0.1210938-1.3447266,0.4921875-1.9091797
		c3.0244141-4.6025391,5.2402344-4.3662109,5.9677734-4.2890625c1.375,0.1474609,2.5107422,1.0527344,3.0380859,2.4208984
		c0.6210938,1.6103516,0.9033203,4.9873047,1.4316406,11.8632813c0.5371094,6.9609375,1.203125,15.6230469,2.5283203,23.3095703
		c1.8984375,11.0087891,4.2353516,14.3095703,5.4599609,15.2978516c0.5458984,0.4414063,0.9238281,0.4609375,1.2509766,0.4160156
		c0.1376953-0.0195313,0.2744141-0.0283203,0.4091797-0.0292969c0.3476563-0.1083984,0.7460938-0.328125,1.1953125-0.7548828
		c1.5351563-1.4609375,4.3291016-6.0527344,5.7832031-20.3847656c0.6982422-6.8837891,0.9179688-14.1601563,0.9990234-20.2607422
		c-5.4814453-1.1376953-10.3222656-3.8574219-13.4570313-8.359375l-8.78125-11.8955078
		c-9.7382813-13.3310547-1.6757813-35.7646484,11.9736328-37.5214844
		c-4.8681641-20.2763672,24.1103516-23.390625,31.5351563-13.1708984l8.6982422,11.8164063
		c2.3144531,2.7939453,2.3144531,6.5458984-0.078125,9.4208984c1.2783203,7.2666016,7.7441406,11.9736328,7.9833984,23.0703125
		c0.0820313,4.4228516-0.9960938,8.3876953-2.8994141,11.8349609
		C667.4033203,435.9580078,668.3564453,436.9316406,668.5380859,438.2099609z"/>
	<path class="st0" d="M566.7626953,450.3603516c0.5800781,0.0722656,1.1035156,0.1933594,1.5498047,0.3320313
		c1.6103516,0.4951172,2.5136719,2.2021484,2.0185547,3.8125c-0.4414063,1.4345703-1.8457031,2.3056641-3.2871094,2.1279297
		c-0.6123047,0.1308594-1.2626953,0.0712891-1.8613281-0.1914063c-1.3095703,0.2265625-2.6757813,1.3457031-4.0761719,3.3466797
		c-3.3427734,4.7802734-5.8994141,13.3779297-6.671875,22.4384766c-0.7939453,9.2998047,0.4511719,17.1210938,3.3310547,20.921875
		c1.1816406,1.5595703,3.0458984,3.1630859,7.0195313,1.9199219c4.8222656-2.8564453,6.9414063-11.8339844,7.8710938-19.4355469
		c0.5556641-4.5419922,0.7958984-9.4287109,0.8330078-14.2900391c-0.8808594-5.6660156-1.4101563-11.0341797-1.8027344-15.0195313
		c-0.1298828-1.3271484-0.2431641-2.4716797-0.3466797-3.3974609c-0.2021484-1.8076172,0.0439453-3.1386719,0.4697266-4.1269531
		c-1.6376953,0.6425781-3.3271484,1.1660156-5.0693359,1.5527344L566.7626953,450.3603516z"/>
	<path class="st0" d="M624.3945313,528.6132813c-2.7773438,9.5507813-2.9121094,18.5634766-0.40625,23.8535156
		c0.3945313,0.7089844,0.8964844,1.3222656,1.5400391,1.6572266c1.0458984,0.5419922,2.5839844,0.4023438,4.5761719-0.4179688
		c0.9873047-0.40625,4.3476563-2.8544922,6.1582031-17.28125c1.0478516-8.3486328,1.4238281-19.3544922,1.1210938-32.7451172
		C631.4287109,511.3066406,626.9287109,519.8935547,624.3945313,528.6132813z"/>
	<path class="st0" d="M111.8046875,355.6660156c-4.9462891,0.8779297-10.2958984,4.0712891-11.8134766,7.7441406
		l6.3876953,8.7021484C108.2177734,366.8427734,110.6123047,361.8125,111.8046875,355.6660156z"/>
	<path class="st1" d="M314.8681641,238.4970703c1.4375-4.7089844,3.1933594-9.1816406,5.0283203-12.7724609
		C306.5654297,230.8330078,299.6162109,263.4824219,314.8681641,238.4970703z"/>
	<path class="st1" d="M380.4492188,225.4067383c-3.5107422-0.081543-7.5048828,6.7055664-9.4199219,13.0117188
		c-0.640625,2.0751953-1.5185547,5.5078125-1.1181641,7.6625977c1.6757813-1.1181641,4.1513672-2.1547852,7.8242188-2.5541992
		C381.8847656,236.8994141,384.0400391,225.4033203,380.4492188,225.4067383z"/>
	<path class="st1" d="M439.9990234,243.5268555c4.1494141-6.6274414,6.3046875-18.1235352,2.7138672-18.1201172
		c-3.5107422-0.081543-7.5048828,6.7055664-9.4199219,13.0117188c-0.640625,2.0751953-1.5185547,5.5078125-1.1181641,7.6625977
		C433.8505859,244.9628906,436.3261719,243.9262695,439.9990234,243.5268555z"/>
	<path class="st1" d="M216.5380859,401.4902344c1.4375-4.7089844,3.1933594-9.1816406,5.0283203-12.7724609
		C208.2353516,393.8261719,201.2861328,426.4755859,216.5380859,401.4902344z"/>
	<path class="st1" d="M313.8203125,389.8330078c-2.9550781,1.7587891-5.1113281,4.7119141-6.0664063,7.8232422
		C320.6855469,396.7783203,323,384.3251953,313.8203125,389.8330078z"/>
	<path class="st1" d="M492.8037109,390.7939453c-4.0527344,5.1474609-6.1875,13.7402344-7.0712891,22.1914063
		c2.1425781-0.8847656,4.1835938-1.4726563,6.1162109-1.8271484c1.0439453-7.7724609,3.7275391-15.5263672,5.984375-19.4853516
		C499.9101563,388.4785156,496.5585938,386.9609375,492.8037109,390.7939453z"/>
	<path class="st1" d="M503.7421875,433.5839844c-8.140625,0-11.4609375-5.6396484-12.1777344-12.9023438
		c-2.1279297,0.0009766-4.25,0.3183594-6.3300781,0.9404297c-0.0263672,2.578125,0.0537109,5.0126953,0.2246094,7.1708984
		c0.1611328,1.9150391-1.1181641,3.5126953-3.0332031,4.1513672c-1.7060547,0.5224609-4.2382813,0.7470703-7.078125,0.4042969
		c0.4023438,4.2929688,0.8730469,9.5605469,1.3798828,15.3935547c9.1611328,4.1914063,20.7226563,2.9755859,22.7744141-4.7041016
		c3.515625,4.7890625,7.5839844,7.0234375,13.7314453,7.0234375c1.9228516,0,3.8798828-0.4345703,5.8398438-1.1923828
		c-1.8779297-7.8603516-4.7636719-13.96875-8.1816406-18.5058594
		C508.4990234,432.7529297,506.0917969,433.5839844,503.7421875,433.5839844z"/>
	<path class="st1" d="M466.1328125,437.7919922c-2.3798828,3.1523438-4.7519531,6.6484375-7.1132813,10.4755859
		c2.6953125-1.5419922,5.3613281-3.6337891,7.921875-6.0449219c-0.1943359-1.5849609-0.3828125-3.1083984-0.5615234-4.5380859
		L466.1328125,437.7919922z"/>
	<path class="st1" d="M558.6435547,389.8330078c-2.9550781,1.7587891-5.1113281,4.7119141-6.0664063,7.8232422
		C565.5087891,396.7783203,567.8232422,384.3251953,558.6435547,389.8330078z"/>
	<path class="st1" d="M566.7402344,450.3515625c1.7421875-0.3867188,3.4316406-0.9101563,5.0693359-1.5527344
		c0.3876953-0.8994141,0.9238281-1.515625,1.4208984-1.9189453c0.5205078-0.6933594,1.2939453-1.1933594,2.2119141-1.3525391
		c0.7939453-0.1376953,1.5615234,0.0146484,2.2177734,0.3671875c10.2226563-6.1943359,18.0683594-16.953125,23.5771484-27.2441406
		c1.6748047-3.1103516,1.8349609-6.8642578-0.4794922-9.6572266l-7.5839844-10.2167969
		c-3.3515625-4.6308594-1.9150391-2.3945313-4.3095703-4.3916016l-6.8652344-9.4189453
		c-5.8271484-7.9033203-12.4550781-11.1787109-23.0703125-11.4179688
		c-13.9863281-0.328125-24.6835938,6.3486328-31.1142578,15.5615234c-1.7871094-2.4199219-3.6210938-4.8408203-5.3994141-7.2617188
		c-10.4589844-14.2080078-28.8183594-6.2265625-30.5761719-6.3066406c-4.1923828-1.8398438-9.4970703-2.2382813-14.265625-1.1640625
		c-0.4287109-0.8271484-0.9326172-1.6162109-1.5214844-2.3447266l-3.4335938-4.7910156
		c-4.7109375-6.3837891-8.1435547-13.0097656-16.5244141-13.0097656c-3.7568359,0-6.9892578,1.453125-9.3779297,3.7246094
		c-0.3388672-2.5498047-0.9658203-6.137207-4.1220703-10.4267578l-8.7021484-11.8974609
		c-2.5810547-3.5322266-6.2529297-5.6791992-9.9970703-6.609375c17.265625-4.3120117,16.9824219-26.8950195,18.2236328-42.1474609
		c11.6113281,3.8896484,23.5371094-0.8613281,30.6845703-10.9155273
		c3.5449219,5.1293945,7.3720703,10.8022461,13.3974609,12.1918945c-0.4804688,0.7988281-1.0380859,1.4375-1.5175781,1.5175781
		c-8.6992188-12.4541016-25.4648438,5.5078125-19.2382813,22.5908203
		c1.6787109,4.7910156,7.5058594,11.8173828,10.7792969,16.2871094c5.828125,7.8232422,12.2949219,11.5751953,23.3916016,10.8564453
		c32.9697266-2.1542969,35.6835938-51.0107422,39.9140625-75.3603516c0.796875-4.5507813,4.7080078-22.5126953,7.4238281-25.4663086
		c3.1152344-3.0332031,3.59375-7.0234375,0.8789063-10.2182617l-8.1455078-11.0981445
		c-6.8652344-9.4174805-23.7919922-8.4609375-31.4541016,1.5175781l-1.6757813-2.3144531
		c-5.2695313-7.1850586-21.2353516-7.8237305-28.3398438-0.3178711c-2.3330078,2.4628906-4.8535156,6.6704102-7.0800781,11.7416992
		l-5.6269531-7.6699219c-11.2568359-15.246582-27.2216797-8.0634766-28.7392578-8.0634766
		c-5.5087891-2.2363281-12.0537109-2.2363281-17.484375,0c-5.3740234,2.2084961-8.8105469,7.6547852-11.2617188,15.0205078
		l-5.1044922-6.9570313c-11.2568359-15.246582-27.2216797-8.0634766-28.7392578-8.0634766
		c-5.5087891-2.2363281-12.0537109-2.2363281-17.484375,0c-2.7006836,1.1098633-4.9106445,3.0395508-6.7539063,5.6166992
		l-0.3720703-0.5068359c-7.9853516-10.8569336-23.7109375-4.7089844-23.7109375-4.7089844
		c-10.2998047-3.9916992-22.1132813-1.597168-31.2929688,4.2294922c-0.4033203,0.2563477-0.7949219,0.5288086-1.1879883,0.7998047
		c2.4628906-11.0019531,5.7416992-23.0581055-1.559082-32.9731445l-8.7021484-11.8950195
		c-5.4296875-7.3447266-16.765625-9.4194336-22.3525391-4.7905273l-4.0722656-5.5078125
		c-9.5805664-13.0932617-26.1845703-6.7055664-32.4125977,3.4326172
		c-18.9189453-3.512207-45.6630859-2.0761719-59.4736328,12.6142578
		c-10.9350586,11.7338867-10.5356445,28.1000977-1.2744141,40.3134766c0.159668,0.2397461,0.3994141,0.559082,0.5571289,0.8037109
		c7.3447266,9.8984375,12.6958008,19.3979492,25.7060547,22.5126953c1.1181641,3.4326172,3.8305664,6.1479492,5.8271484,9.0200195
		c-3.5908203,5.1113281-9.0200195,12.375-15.246582,13.9716797L171.9941406,253.75
		c-9.5791016-13.0102539-34.8071289,11.5761719-27.0620117,35.6855469c2.4726563,7.5029297,8.5410156,14.5292969,13.25,20.9960938
		c1.0839844,1.4746094,2.2460938,2.824707,3.4716797,4.0649414c-12.9941406,2.840332-27.4897461,11.9946289-20.7084961,21.2124023
		l7.5058594,10.2998047c3.9902344,5.4287109,3.75,4.1513672,9.0986328,5.0292969
		c2.4726563,17.5615234-5.5878906,43.5869141-13.4931641,59.953125l4.4697266-33.609375
		c1.8369141-13.171875,3.1132813-23.1503906-5.4296875-34.7275391l-8.7021484-11.8955078
		c-17.2431641-23.5498047-63.0673828-19.8769531-80.550293-0.71875
		c-7.5058594,8.3027344-10.8569336,20.0380859-6.3061523,30.5761719
		c1.8369141,4.3105469,8.6240234,12.9316406,11.8154297,17.2431641
		c10.3779297,14.1298828,32.4111328,14.0517578,43.5078125,4.9511719
		c-4.390625,14.6083984-7.5839844,31.0556641-6.6269531,44.3867188c0.8779297,11.8955078,3.3505859,16.765625,9.3398438,24.9072266
		c6.1474609,8.3818359,10.5371094,16.6044922,21.8730469,17.4042969c20.4389648,1.4462891,40.0786133-20.2392578,52.6875-39.1884766
		c0.3183594,0.5136719,0.6533203,1.0175781,1.0146484,1.5048828l8.1416016,11.0947266
		c8.3007813,11.3359375,20.9150391,10.4580078,30.8935547,0.1611328c3.7539063,5.1904297,7.7441406,7.9833984,14.7685547,7.9833984
		c5.8901367,0,12.0839844-3.9560547,17.7050781-9.3828125l2.3212891,3.1601563
		c7.0263672,10.2167969,19.9580078,6.6240234,28.0214844-0.1611328c2.0908203-1.7636719,4.1977539-3.8554688,6.2529297-6.1308594
		c6.4262695,8.5732422,13.3549805,12.5126953,24.9277344,12.5917969
		c9.8276367,0.1201172,18.2358398-4.0585938,25.2446289-10.2451172c0.3198242,0.4248047,0.6289063,0.8388672,0.9106445,1.2265625
		c7.9794922,10.8574219,28.4179688,12.3730469,31.2119141,1.9150391c3.515625,4.7890625,7.5839844,7.0234375,13.7314453,7.0234375
		c5.6523438,0,11.6025391-3.65625,17.0576172-8.7470703l1.8574219,2.5292969
		c7.1054688,10.2177734,19.9589844,6.6240234,28.0205078-0.1601563c0.7841797-0.6572266,1.578125-1.3808594,2.375-2.1396484
		c3.7470703,4.9208984,7.7685547,8.5205078,15.2773438,8.5205078c0.1455078,0,0.2929688-0.015625,0.4384766-0.0205078
		c4.8271484-8.5263672,9.75-15.7646484,14.7333984-21.640625l0.0771484-0.1035156
		c-2.2480469-1.859375-3.6943359-4.2373047-4.3261719-6.9726563c-0.2265625-0.9140625-0.3671875-1.9912109-0.4365234-3.1826172
		c-6.3876953,8.0664063-13.5009766,14.4355469-20.0234375,14.4355469c-3.2734375,0-6.3847656-1.0380859-8.6992188-3.1923828
		c-2.3779297-2.3359375-3.3710938-6.2666016-3.4277344-10.9140625c-2.6914063,3.3486328-5.5234375,6.3720703-8.4794922,8.8359375
		c-5.8310547,4.9482422-15.8076172,8.7802734-21.0771484,0.9560547c-1.8378906-2.7744141-2.5048828-6.5566406-2.5537109-10.4628906
		c-6.0585938,7.7402344-13.4248047,14.78125-20.3046875,14.78125c-19.4794922,0-11.4160156-32.2519531-5.9091797-41.9111328
		c2.0771484-3.1943359-1.2744141-4.7119141-5.0292969-0.8789063c-6.7871094,8.6191406-8.2236328,26.9023438-7.3447266,37.9990234
		c0.1611328,1.9150391-1.1181641,3.5126953-3.0332031,4.1513672c-2.8720703,0.8789063-8.0615234,0.9570313-13.171875-1.1962891
		c-4.7109375-1.9150391-7.5039063-5.2695313-8.4628906-9.4208984c-0.2373047-0.9580078-0.3803711-2.09375-0.4453125-3.3544922
		c-7.1708984,8.4619141-16.1474609,14.7910156-27.5136719,14.6875
		c-13.8930664-0.1171875-21.4355469-7.7568359-23.5610352-17.3212891
		c-3.2421875,4.4248047-6.8330078,8.5664063-10.9018555,11.9707031c-5.8271484,4.9482422-15.8037109,8.7802734-21.0732422,0.9560547
		c-1.9941406-3.0107422-2.6152344-7.2050781-2.5585938-11.4599609
		c-6.6542969,8.6914063-14.2104492,15.7783203-21.1445313,15.7783203c-3.2734375,0-6.3876953-1.0390625-8.7021484-3.1933594
		c-2.3964844-2.3974609-3.3544922-6.3876953-3.4326172-11.1777344c-5.9072266,9.6582031-13.09375,14.3671875-18.0419922,14.3671875
		c-10.7802734-0.078125-14.8505859-9.0195313-14.1318359-19.6376953
		C183.25,386.1640625,210.6308594,372.2714844,227.7128906,380.8125c8.2226563-5.2695313,23.4697266-0.2392578,18.2001953,4.5507813
		c-3.2714844,2.9550781-7.4199219,25.3085938-5.1865234,25.6259766c1.2768555,0.2255859,5.0253906-4.3525391,8.7211914-9.6152344
		c5.5712891-20.6279297,18.4365234-47.171875,14.8237305-63.9111328c-0.8007813-3.1152344,2.7119141-4.1513672,5.1074219-4.1513672
		c11.4179688-0.0791016,14.7695313,8.7802734,14.4511719,18.6005859
		c-0.5576172,16.0449219-6.5458984,42.2304688-9.0996094,49.8144531c-0.3994141,1.5976563-2.3925781,9.0234375-0.7167969,9.3408203
		c1.2651367,0.1347656,4.3085938-3.4570313,7.5541992-7.9423828c3.1396484-13.0292969,14.503418-25.2021484,32.1713867-24.7880859
		c22.3515625,0.4794922,31.9306641,22.4326172-5.6708984,26.7441406
		c-0.8813477,6.6904297,16.4399414,8.4277344,26.2314453-1.8095703c1.9990234-8.1591797,5.3964844-16.4482422,9.5546875-20.8583984
		c5.0302734-5.2695313,15.3300781-4.390625,19.4814453-1.6757813c3.59375-1.5966797,9.1015625-2.5556641,13.0917969-2.5556641
		c26.7470703,0.3193359,10.6992188,32.1708984,14.3730469,32.8105469c1.3496094,0.234375,5.1689453-4.7265625,7.5351563-7.9951172
		c2.9443359-11.4716797,8.4169922-24.9638672,12.046875-37.6738281h-3.9121094
		c-1.9150391,0-3.4326172-1.5175781-3.4326172-3.3544922c0-1.9150391,1.5175781-3.4326172,3.4326172-3.4326172h5.7480469
		c1.8369141-7.7421875,2.6367188-15.0869141,1.3574219-21.0732422c-0.8007813-3.1152344,2.7158203-4.1513672,5.1083984-4.1513672
		c11.4179688-0.0791016,14.7714844,8.7802734,14.4511719,18.6005859c-0.078125,2.0761719-0.2402344,4.3125-0.4794922,6.6269531
		h5.1083984c1.9150391,0,3.4345703,1.5175781,3.4345703,3.4326172c0,1.8369141-1.5195313,3.3544922-3.4345703,3.3544922h-5.9091797
		c-2.0742188,14.5292969-5.90625,30.734375-7.8203125,36.3955078c-0.3994141,1.5957031-2.3955078,9.0234375-0.6386719,9.3408203
		c1.1699219,0.1308594,4.0908203-3.2900391,7.2490234-7.6289063c2.5283203-9.0839844,6.5410156-17.6142578,9.7666016-21.0234375
		c7.3447266-7.7421875,25.9472656-2.2363281,20.1201172,2.953125c-3.1943359,2.9550781-7.4238281,25.3085938-5.1914063,25.6259766
		c1.1005859,0.1835938,3.7519531-2.8242188,6.6904297-6.7900391c1.9638672-8.453125,5.4609375-17.2089844,9.7763672-21.7861328
		c5.0302734-5.2695313,15.3300781-4.390625,19.4814453-1.6757813c3.59375-1.5966797,9.1015625-2.5556641,13.0917969-2.5556641
		c26.7470703,0.3193359,10.6992188,32.1708984,14.3730469,32.8105469c1.3896484,0.2412109,5.3955078-5.0224609,7.7402344-8.2783203
		c3.2783203-12.8740234,14.5869141-24.7861328,32.0683594-24.3769531
		c22.3515625,0.4794922,31.9306641,22.4326172-5.6708984,26.7441406c-0.9570313,7.265625,19.5595703,8.7021484,28.5791016-4.7089844
		c2.7978516-4.0703125,8.703125-1.6757813,6.0703125,3.3505859c-8.3027344,14.7695313-20.1953125,30.0976563-37.8388672,29.9375
		c-14.0058594-0.1181641-21.5595703-7.8798828-23.6132813-17.5537109c-1.9960938,2.7226563-4.1757813,5.4453125-6.4638672,7.9072266
		c3.8339844,5.2871094,6.9414063,11.9697266,9.0908203,19.7226563c1.8652344-1.6142578,3.6796875-3.4179688,5.4189453-5.3212891
		c6.0332031,8.1025391,12.4931641,12.1044922,22.8095703,12.6591797l0.109375-0.0703125
		C560.3447266,449.1591797,563.7304688,448.9453125,566.7402344,450.3515625z M253.9775391,199.8588867
		c0.2392578-0.081543,0.4785156-0.081543,0.6386719-0.1611328c-0.2382813,0.800293-0.4775391,1.597168-0.7167969,2.4760742
		L253.9775391,199.8588867z M159.3754883,257.5742188c5.3510742-4.0703125,9.6606445-3.4345703,9.5810547,2.2353516
		c-0.3212891,12.375,12.8535156,13.171875,21.2348633,5.2685547c7.5839844-7.1835938,13.5727539-16.5229492,18.28125-26.8208008
		c-3.515625,1.0351563-6.1479492,2.5541992-7.5058594,4.8686523c-0.796875,1.4360352-2.2329102,2.074707-3.7519531,1.1181641
		c-1.2744141-0.796875-2.0751953-2.0766602-2.6323242-3.5126953c-2.5541992-7.1049805,2.2363281-16.206543,11.7353516-16.7636719
		c2.2363281-0.1582031,4.8686523-0.0800781,7.8237305,0.159668c4.6293945-13.5708008,7.6625977-27.8608398,9.8989258-40.2353516
		c-6.0668945-0.081543-10.8569336,0.3994141-14.5292969,1.4360352c-15.887207,4.3911133-10.6958008,22.2734375,0.3994141,20.1982422
		c2.1577148-0.4008789,1.996582,2.3925781,1.996582,2.3925781c-3.1933594,12.2148438-13.8105469,17.9624023-24.4282227,17.6445313
		c-32.4912109-0.9570313-42.3896484-55.3222656,17.5629883-56.4404297
		c7.8237305-0.1577148,15.5673828,0.6391602,22.0351563,2.2363281c4.6289063-11.4174805,17-13.7319336,23.1484375-9.1811523
		c7.9853516,5.8300781,1.1977539,20.9169922-9.8989258,20.9169922c-0.71875,12.6923828-1.597168,28.2597656-3.8334961,44.1469727
		c4.9516602,0.71875,9.6606445,1.3579102,13.5727539,1.6757813c6.7866211-20.6777344,15.5678711-41.5932617,13.0913086-54.6049805
		c-0.6357422-3.1118164,2.875-4.0683594,5.1914063-3.9902344c11.4960938,0.2397461,14.5292969,9.1782227,13.9707031,18.9985352
		c-0.3994141,6.5444336-6.0683594,26.0253906-8.2236328,44.784668c-1.5136719,12.9316406-2.8720703,29.6977539,8.7021484,38.6381836
		c3.5146484,2.7119141,7.7460938,4.3085938,12.1357422,3.9912109c1.2792969-0.0800781,1.9960938,0.6386719,2.2363281,1.7568359
		c3.1113281,11.4960938-10.7773438,23.9492188-24.9892578,23.9472656c-29.2182617,0-31.9321289-38-26.4243164-59.1552734
		c0.5571289-2.3164063,1.1962891-4.6308594,1.9150391-6.9453125c-4.0717773,0.078125-8.3813477,0-12.6923828,0
		c-5.4291992,29.6181641-16.765625,58.1972656-42.0722656,67.9365234
		C155.3857422,318.6425781,134.0693359,278.4082031,159.3754883,257.5742188z M99.9912109,363.4101563
		c1.5175781-3.6728516,6.8671875-6.8662109,11.8134766-7.7441406c-1.1923828,6.1464844-3.5869141,11.1767578-5.4257813,16.4462891
		L99.9912109,363.4101563z M118.5458984,452.1035156c-9.1035156-0.71875-16.2089844-7.9023438-17.484375-25.2255859
		c-1.5175781-21.234375,8.2207031-49.3349609,12.0546875-58.9160156
		c17.0039063-42.5507813-25.7041016-31.8525391-27.4609375-16.3662109
		c-0.4794922,4.3095703,1.4355469,8.3808594,6.2255859,9.4990234c2.078125,0.4794922,0.7988281,2.8740234,0.7988281,2.8740234
		c-4.3105469,5.3496094-11.9736328,8.0615234-19.637207,7.7441406
		c-34.2485352-1.4394531-32.2519531-52.2109375,23.5493164-52.4501953
		c19.15625-0.078125,37.4394531,8.4628906,39.2763672,29.6191406c1.0351563,12.6962891-14.8496094,80.2324219-1.5185547,80.3105469
		c15.3291016,0.0820313,47.9804688-94.5986328,12.3740234-95.7148438c-2.7929688,0.078125-3.5908203-3.0332031-1.5957031-5.0302734
		c6.6259766-6.7050781,15.8076172-10.1396484,24.4287109-10.0595703
		C226.796875,318.8662109,163.1689453,455.2177734,118.5458984,452.1035156z M408.9863281,338.6650391
		c0.9599609,4.5517578,0.3984375,10.1386719-0.5576172,15.1689453c-10.3779297,0-12.1367188,8.7021484-8.2246094,13.4111328
		l3.2724609,4.46875c-1.3652344,4.0947266-3.3359375,9.3583984-5.2929688,15.1318359
		c-1.2451172-1.6660156-2.4970703-3.3320313-3.7216797-4.9980469c-10.4589844-14.2080078-28.8183594-6.2265625-30.5761719-6.3066406
		c-7.265625-3.1894531-17.8837891-2.0742188-23.2314453,3.5947266c-1.3789063,1.4570313-2.703125,3.3115234-3.9438477,5.4375
		c-5.7548828-7.6113281-12.3339844-10.7900391-22.7670898-11.0253906
		c-6.359375-0.1494141-12.0302734,1.1640625-16.9414063,3.4902344c0.5214844-4.1845703,0.8828125-8.3066406,1.0078125-12.2685547
		c0.2392578-6.625-1.1181641-12.7714844-4.5507813-17.1621094l-8.7021484-11.8134766
		c-8.4609375-11.4960938-27.6191406-8.5449219-24.9873047,2.8710938
		c2.3530273,10.2661133-3.0292969,25.7841797-8.4648438,41.6796875l-0.0644531-0.0878906
		c-7.9853516-10.8574219-23.7109375-4.7089844-23.7109375-4.7089844
		c-7.4770508-2.8974609-15.7475586-2.4179688-23.2329102,0.2841797c3.2875977-14.9238281,3.1757813-29.9614258-4.8344727-40.8408203
		c-2.8320313-3.8540039-5.2255859-7.4716797-7.7553711-10.6005859c3.9882813-0.4628906,8.0415039-1.4726563,12.0600586-3.0244141
		c18.6010742-7.1064453,29.855957-23.3095703,36.8808594-41.4326172c1.597168,6.3837891,3.5908203,10.6953125,7.1850586,15.7255859
		l8.7016602,11.8964844c19.6376953,26.5810547,60.5917969,5.3486328,54.4433594-17.6435547
		c-0.2026367-0.7460938-0.8671875-1.9199219-1.7495117-3.2719727c3.2055664-1.3291016,6.359375-3.5317383,9.2866211-6.5522461
		c3.7539063,5.1904297,7.7441406,7.9833984,14.7685547,7.9833984c0.2226563,0,0.4472656-0.0205078,0.6708984-0.0317383
		c-0.9399414,3.5029297-2.0166016,6.8896484-3.28125,10.0922852c-1.1982422,2.953125-2.9550781,5.8271484-2.1552734,9.2597656
		c0.7177734,3.1923828,7.6630859,11.8134766,9.9775391,15.0078125c4.3125,5.7480469,10.5390625,7.5849609,17.484375,7.3447266
		c22.6708984-0.71875,22.1914063-26.1865234,23.5488281-42.8691406c5.9541016,1.9946289,11.9882813,1.7099609,17.421875-0.3891602
		c-1.0322266,4.0566406-2.2373047,7.972168-3.6875,11.6459961c-1.1982422,2.953125-2.9550781,5.8271484-2.1552734,9.2597656
		c0.7177734,3.1923828,7.6630859,11.8134766,9.9775391,15.0078125c3.3134766,4.4169922,7.7597656,6.5180664,12.7919922,7.1484375
		C410.2392578,331.0810547,407.9667969,334.2182617,408.9863281,338.6650391z M395.3691406,306.2734375
		c-0.3974609-1.6757813,1.2783203-4.7089844,1.9970703-6.4658203c5.71875-14.5629883,7.5-29.8237305,10.421875-50.2724609
		c-1.9199219,0.9111328-4.0380859,1.4873047-6.4257813,1.734375c-3.1142578,10.4589844-10.6982422,19.3173828-23.390625,19.3173828
		c-4.3916016,0-8.6240234-1.3554688-11.8974609-4.2294922c-0.796875,8.3027344-1.3554688,15.8056641-1.6757813,20.3564453
		c-0.7978516,9.6591797-3.1142578,17.3232422-7.5039063,21.7128906c-6.3066406,6.3876953-22.3525391,4.1513672-23.7890625-2.1533203
		c-0.3974609-1.6757813,1.2783203-4.7089844,1.9970703-6.4658203c5.1630859-13.1474609,7.1181641-26.8745117,9.5986328-44.4628906
		c-6.5527344,8.4453125-13.9404297,15.2460938-20.7314453,15.2460938c-3.2734375,0-6.3876953-1.0390625-8.7021484-3.1933594
		c-2.3964844-2.3974609-3.3544922-6.3876953-3.4326172-11.1777344c-5.9072266,9.6582031-13.09375,14.3671875-18.0419922,14.3671875
		c-10.7802734-0.078125-14.8505859-9.0195313-14.1318359-19.6376953
		c1.9189453-27.7788086,29.2998047-41.6708984,46.3818359-33.1298828
		c8.2226563-5.2695313,23.4697266-0.2392578,18.2001953,4.5507813c-3.2714844,2.9550781-7.4199219,25.3081055-5.1865234,25.6259766
		c1.2070313,0.2133789,4.6225586-3.8671875,8.1142578-8.7592773c2.1137695-10.90625,5.519043-20.3037109,11.3193359-22.6918945
		c4.8740234-1.9951172,10.9384766-1.7553711,15.5693359,0.878418c5.9082031-2.9550781,13.3310547-2.8769531,19.0800781,0.078125
		c7.1044922,3.6723633,10.5380859,14.2900391,9.8203125,25.0668945c2.7021484-0.2558594,4.7763672-1.6123047,6.5244141-3.5854492
		c2.1181641-10.7973633,5.5146484-20.0683594,11.2695313-22.4379883c4.8740234-1.9951172,10.9384766-1.7553711,15.5693359,0.878418
		c5.9082031-2.9550781,13.3310547-2.8769531,19.0800781,0.078125c7.1044922,3.6723633,10.5380859,14.2900391,9.8203125,25.0668945
		c2.5966797-0.2460938,4.6152344-1.5048828,6.3212891-3.3535156c2.5263672-8.6269531,6.3232422-16.5581055,9.4296875-19.7978516
		c7.3447266-7.7426758,25.8642578-2.2363281,20.1152344,2.953125c-3.2714844,2.9550781-7.4228516,25.3081055-5.1865234,25.6259766
		c1.9150391,0.3178711,6.7841797-9.1811523,10.2167969-16.3662109c1.8369141-4.6289063,4.4697266-10.6157227,8.7822266-13.409668
		c8.0615234-5.9082031,24.2666016-0.71875,18.7558594,4.1484375c-3.7509766,3.4326172-7.8242188,22.3515625-8.7802734,28.1000977
		c-3.9121094,22.1132813-6.4667969,69.5332031-35.6035156,71.4482422
		c-24.6669922,1.5957031-26.0253906-26.5859375-12.7724609-31.5341797c1.4394531-0.5576172,2.6357422,0.4013672,3.4326172,1.9970703
		c1.0400391,1.9960938,3.4326172,2.5537109,5.6689453,1.7568359c6.6279297-2.1533203,11.4960938-23.4667969,13.4931641-34.6445313
		c-10.3779297,13.1748047-28.3398438,17.4824219-30.1748047-0.3173828
		c-0.2929688-2.7910156-0.1572266-5.9584961,0.2900391-9.2666016c-1.6953125,0.6962891-3.5419922,1.1499023-5.5859375,1.3613281
		c-3.1142578,10.4589844-10.6982422,19.3173828-23.390625,19.3173828c-4.3916016,0-8.6240234-1.3554688-11.8974609-4.2294922
		c-0.796875,8.3027344-1.3554688,15.8056641-1.6757813,20.3564453c-0.7978516,9.6591797-3.1142578,17.3232422-7.5039063,21.7128906
		C412.8515625,314.8144531,396.8056641,312.578125,395.3691406,306.2734375z M455.9013672,376.9824219
		c-4.9501953,0-9.0195313-3.9931641-9.0195313-9.0205078c0-4.9501953,4.0693359-8.9414063,9.0195313-8.9414063
		c4.9521484,0,8.9423828,3.9931641,8.9423828,8.9414063C464.84375,372.9921875,460.8505859,376.9824219,455.9013672,376.9824219z"/>
	<path class="st1" d="M614.1376953,371.3945313c16.765625-5.9082031,16.9257813-26.2626953,7.5058594-39.0322266
		c-3.59375-4.9511719-8.3808594-13.1708984-14.0517578-14.9287109c-5.1083984-1.5185547-7.9023438,1.5175781-10.6953125,4.3896484
		l0.796875,2.7939453c1.4355469,4.390625-1.3574219,13.4111328-6.9453125,12.5322266
		c-8.7021484-1.3574219-13.3310547,7.9023438-7.1835938,16.3652344l8.1416016,11.0966797
		C597.2138672,372.0351563,605.0361328,374.5898438,614.1376953,371.3945313z M585.5195313,343.6923828
		c0.5615234-1.3574219,2.0751953-2.1552734,4.0722656-1.8369141c9.1025391,1.4355469,15.0078125-10.3779297,12.3759766-18.6796875
		c1.1992188-1.2753906,2.5556641-1.515625,3.8291016-1.1181641c9.4208984,2.8759766,12.2929688,26.8242188-2.9541016,32.171875
		C591.7460938,358.1416016,583.2832031,349.6787109,585.5195313,343.6923828z"/>
	<path class="st1" d="M661.1328125,400.7724609c2.3925781-2.875,2.3925781-6.6269531,0.078125-9.4208984l-8.6982422-11.8164063
		c-7.4248047-10.2197266-36.4033203-7.1054688-31.5351563,13.1708984
		c-13.6494141,1.7568359-21.7119141,24.1904297-11.9736328,37.5214844l8.78125,11.8955078
		c3.1347656,4.5019531,7.9755859,7.2216797,13.4570313,8.359375c0.03125-2.4023438,0.0410156-4.6279297,0.0498047-6.5664063
		c0.0107422-2.2412109,0.0175781-4.0136719,0.0546875-5.328125c0.0585938-2.0390625,0.0996094-3.5117188,1.4902344-4.5126953
		c0.8027344-0.5771484,1.8398438-0.7363281,2.7763672-0.4267578c1.6767578,0.5546875,2.0166016,2.0595703,2.2001953,2.8671875
		c0.1035156,0.4589844,0.234375,1.0976563,0.390625,1.9003906c0.3378906,1.7480469,0.7666016,4.1513672,1.2070313,6.7666016
		c0.2392578,1.4257813,0.5625,3.3974609,0.9394531,5.7998047c8.2978516-0.6914063,16.7412109-4.3466797,22.3164063-10.4072266
		c-0.0556641-0.5009766-0.0966797-1.0009766-0.1679688-1.5039063c-0.2382813-1.6669922,0.9238281-3.2109375,2.5888672-3.4501953
		c0.3886719-0.0556641,0.7685547-0.0283203,1.1289063,0.0566406c1.9033203-3.4472656,2.9814453-7.4121094,2.8994141-11.8349609
		C668.8769531,412.7460938,662.4111328,408.0390625,661.1328125,400.7724609z M609.1279297,417.0576172
		c-0.2392578-9.1796875,5.0273438-18.921875,12.2939453-19.71875c3.7529297-0.078125,5.2695313,2.4755859,2.6347656,4.6308594
		c-2.2363281,1.8349609-3.59375,5.5068359-1.5966797,8.0615234c1.3574219,1.6757813,3.9111328,1.1181641,5.3476563-0.9570313
		c1.1982422-1.6757813,1.1982422-3.7519531,0.9580078-5.7490234c-1.0400391-7.3447266-7.4257813-14.9287109-1.5175781-20.9150391
		c7.5029297-7.6621094,25.8642578-2.2363281,20.1152344,2.953125c-1.3554688,1.2763672-1.0380859,4.6308594,2.1552734,10.4580078
		c2.6357422,4.7900391,5.0302734,9.8203125,5.1113281,15.4091797
		C655.109375,435.4990234,610.0068359,443.8798828,609.1279297,417.0576172z"/>
	<path class="st2" d="M192.9067383,304.2753906c25.3066406-9.7392578,36.6430664-38.3183594,42.0722656-67.9365234
		c4.3110352,0,8.6206055,0.078125,12.6923828,0c-0.71875,2.3144531-1.3579102,4.6289063-1.9150391,6.9453125
		c-5.5078125,21.1552734-2.7939453,59.1552734,26.4243164,59.1552734
		c14.2119141,0.0019531,28.1005859-12.4511719,24.9892578-23.9472656c-0.2402344-1.1181641-0.9570313-1.8369141-2.2363281-1.7568359
		c-4.3896484,0.3173828-8.6210938-1.2792969-12.1357422-3.9912109c-11.5742188-8.9404297-10.2158203-25.706543-8.7021484-38.6381836
		c2.1552734-18.7592773,7.8242188-38.2402344,8.2236328-44.784668c0.5585938-9.8203125-2.4746094-18.7587891-13.9707031-18.9985352
		c-2.3164063-0.078125-5.8271484,0.878418-5.1914063,3.9902344c2.4765625,13.0117188-6.3046875,33.9272461-13.0913086,54.6049805
		c-3.9121094-0.3178711-8.6210938-0.9570313-13.5727539-1.6757813c2.2363281-15.887207,3.1147461-31.4545898,3.8334961-44.1469727
		c11.0966797,0,17.8842773-15.0869141,9.8989258-20.9169922c-6.1484375-4.5507813-18.5195313-2.2363281-23.1484375,9.1811523
		c-6.4677734-1.597168-14.2114258-2.394043-22.0351563-2.2363281
		c-59.9526367,1.1181641-50.0541992,55.4833984-17.5629883,56.4404297
		c10.6176758,0.3178711,21.2348633-5.4296875,24.4282227-17.6445313c0,0,0.1611328-2.793457-1.996582-2.3925781
		c-11.0952148,2.0751953-16.2866211-15.8071289-0.3994141-20.1982422c3.6723633-1.0366211,8.4624023-1.5175781,14.5292969-1.4360352
		c-2.2363281,12.3745117-5.2695313,26.6645508-9.8989258,40.2353516c-2.9550781-0.2397461-5.5874023-0.3178711-7.8237305-0.159668
		c-9.4990234,0.5571289-14.2895508,9.6586914-11.7353516,16.7636719c0.5571289,1.4360352,1.3579102,2.7158203,2.6323242,3.5126953
		c1.519043,0.956543,2.9550781,0.3178711,3.7519531-1.1181641c1.3579102-2.3144531,3.9902344-3.8334961,7.5058594-4.8686523
		c-4.7084961,10.2978516-10.6972656,19.637207-18.28125,26.8208008c-8.3813477,7.9033203-21.5561523,7.1064453-21.2348633-5.2685547
		c0.0795898-5.6699219-4.2299805-6.3056641-9.5810547-2.2353516
		C134.0693359,278.4082031,155.3857422,318.6425781,192.9067383,304.2753906z"/>
	<path class="st2" d="M347.1708984,239.2368164c-3.4916992,4.8920898-6.9072266,8.9726563-8.1142578,8.7592773
		c-2.2333984-0.3178711,1.9150391-22.6708984,5.1865234-25.6259766c5.2695313-4.7900391-9.9775391-9.8203125-18.2001953-4.5507813
		c-17.0820313-8.5410156-44.4628906,5.3510742-46.3818359,33.1298828
		c-0.71875,10.6181641,3.3515625,19.5595703,14.1318359,19.6376953c4.9482422,0,12.1347656-4.7089844,18.0419922-14.3671875
		c0.078125,4.7900391,1.0361328,8.7802734,3.4326172,11.1777344c2.3144531,2.1542969,5.4287109,3.1933594,8.7021484,3.1933594
		c6.7910156,0,14.1787109-6.8007813,20.7314453-15.2460938c0.4716797-3.3442383,0.9604492-6.8125,1.4960938-10.4599609
		C346.4863281,242.9746094,346.8125,241.0864258,347.1708984,239.2368164z M314.8681641,238.4970703
		c-15.2519531,24.9853516-8.3027344-7.6640625,5.0283203-12.7724609
		C318.0615234,229.3154297,316.3056641,233.7880859,314.8681641,238.4970703z"/>
	<path class="st3" d="M428.3378906,266.3574219c3.2734375,2.8740234,7.5058594,4.2294922,11.8974609,4.2294922
		c12.6923828,0,20.2763672-8.8583984,23.390625-19.3173828c2.0439453-0.2114258,3.890625-0.6650391,5.5859375-1.3613281
		c0.4736328-3.4985352,1.2958984-7.1538086,2.3330078-10.6933594c-1.7060547,1.8486328-3.7246094,3.1074219-6.3212891,3.3535156
		c0.7177734-10.7768555-2.7158203-21.3945313-9.8203125-25.0668945c-5.7490234-2.9550781-13.171875-3.0332031-19.0800781-0.078125
		c-4.6308594-2.6337891-10.6953125-2.8735352-15.5693359-0.878418c-5.7548828,2.3696289-9.1513672,11.640625-11.2695313,22.4379883
		c-1.7480469,1.9731445-3.8222656,3.3295898-6.5244141,3.5854492c0.7177734-10.7768555-2.7158203-21.3945313-9.8203125-25.0668945
		c-5.7490234-2.9550781-13.171875-3.0332031-19.0800781-0.078125c-4.6308594-2.6337891-10.6953125-2.8735352-15.5693359-0.878418
		c-5.800293,2.3881836-9.2055664,11.7856445-11.3193359,22.6918945c-0.3583984,1.8496094-0.6845703,3.737793-0.9736328,5.6479492
		c-0.5356445,3.6474609-1.0244141,7.1157227-1.4960938,10.4599609c-2.4804688,17.5883789-4.4355469,31.3154297-9.5986328,44.4628906
		c-0.71875,1.7568359-2.3945313,4.7900391-1.9970703,6.4658203c1.4365234,6.3046875,17.4824219,8.5410156,23.7890625,2.1533203
		c4.3896484-4.3896484,6.7060547-12.0537109,7.5039063-21.7128906c0.3203125-4.5507813,0.8789063-12.0537109,1.6757813-20.3564453
		c3.2734375,2.8740234,7.5058594,4.2294922,11.8974609,4.2294922c12.6923828,0,20.2763672-8.8583984,23.390625-19.3173828
		c2.3876953-0.2470703,4.5058594-0.8232422,6.4257813-1.734375c-2.921875,20.4487305-4.703125,35.7094727-10.421875,50.2724609
		c-0.71875,1.7568359-2.3945313,4.7900391-1.9970703,6.4658203c1.4365234,6.3046875,17.4824219,8.5410156,23.7890625,2.1533203
		c4.3896484-4.3896484,6.7060547-12.0537109,7.5039063-21.7128906
		C426.9824219,282.1630859,427.5410156,274.6601563,428.3378906,266.3574219z M433.2929688,238.418457
		c1.9150391-6.3061523,5.9091797-13.0932617,9.4199219-13.0117188c3.5908203-0.003418,1.4355469,11.4926758-2.7138672,18.1201172
		c-3.6728516,0.3994141-6.1484375,1.4360352-7.8242188,2.5541992
		C431.7744141,243.9262695,432.6523438,240.4936523,433.2929688,238.418457z M377.7353516,243.5268555
		c-3.6728516,0.3994141-6.1484375,1.4360352-7.8242188,2.5541992c-0.4003906-2.1547852,0.4775391-5.5874023,1.1181641-7.6625977
		c1.9150391-6.3061523,5.9091797-13.0932617,9.4199219-13.0117188
		C384.0400391,225.4033203,381.8847656,236.8994141,377.7353516,243.5268555z"/>
	<path class="st2" d="M468.921875,259.1748047c1.8349609,17.7998047,19.796875,13.4921875,30.1748047,0.3173828
		c-1.9970703,11.1777344-6.8652344,32.4912109-13.4931641,34.6445313c-2.2363281,0.796875-4.6289063,0.2392578-5.6689453-1.7568359
		c-0.796875-1.5957031-1.9931641-2.5546875-3.4326172-1.9970703c-13.2529297,4.9482422-11.8945313,33.1298828,12.7724609,31.5341797
		c29.1367188-1.9150391,31.6914063-49.3349609,35.6035156-71.4482422
		c0.9560547-5.7485352,5.0292969-24.6674805,8.7802734-28.1000977c5.5107422-4.8671875-10.6943359-10.0566406-18.7558594-4.1484375
		c-4.3125,2.7939453-6.9453125,8.7807617-8.7822266,13.409668c-3.4326172,7.1850586-8.3017578,16.684082-10.2167969,16.3662109
		c-2.2363281-0.3178711,1.9150391-22.6708984,5.1865234-25.6259766c5.7490234-5.1894531-12.7705078-10.6958008-20.1152344-2.953125
		c-3.1064453,3.2397461-6.9033203,11.1708984-9.4296875,19.7978516c-1.0371094,3.5395508-1.859375,7.1948242-2.3330078,10.6933594
		C468.7646484,253.2163086,468.6289063,256.3837891,468.921875,259.1748047z"/>
	<path class="st3" d="M169.5566406,318.3876953c-8.6210938-0.0800781-17.8027344,3.3544922-24.4287109,10.0595703
		c-1.9951172,1.9970703-1.1972656,5.1083984,1.5957031,5.0302734c35.6064453,1.1162109,2.9550781,95.796875-12.3740234,95.7148438
		c-13.3310547-0.078125,2.5537109-67.6142578,1.5185547-80.3105469
		c-1.8369141-21.15625-20.1201172-29.6972656-39.2763672-29.6191406
		c-55.8012695,0.2392578-57.7978516,51.0107422-23.5493164,52.4501953
		c7.6635742,0.3173828,15.3266602-2.3945313,19.637207-7.7441406c0,0,1.2792969-2.3945313-0.7988281-2.8740234
		c-4.7900391-1.1181641-6.7050781-5.1894531-6.2255859-9.4990234c1.7568359-15.4863281,44.4648438-26.1845703,27.4609375,16.3662109
		c-3.8339844,9.5810547-13.5722656,37.6816406-12.0546875,58.9160156
		c1.2753906,17.3232422,8.3808594,24.5068359,17.484375,25.2255859
		C163.1689453,455.2177734,226.796875,318.8662109,169.5566406,318.3876953z"/>
	<path class="st2" d="M455.9013672,359.0205078c-4.9501953,0-9.0195313,3.9912109-9.0195313,8.9414063
		c0,5.0273438,4.0693359,9.0205078,9.0195313,9.0205078c4.9492188,0,8.9423828-3.9902344,8.9423828-9.0205078
		C464.84375,363.0136719,460.8535156,359.0205078,455.9013672,359.0205078z"/>
	<path class="st2" d="M482.4257813,432.9443359c1.9150391-0.6386719,3.1943359-2.2363281,3.0332031-4.1513672
		c-0.1708984-2.1582031-0.2509766-4.5927734-0.2246094-7.1708984c-2.9199219,0.8720703-5.7568359,2.3300781-8.4013672,4.3349609
		c-0.6728516,0.5976563-1.3457031,1.2236328-2.0185547,1.8769531c0.1591797,1.5761719,0.3388672,3.4326172,0.5332031,5.5146484
		C478.1875,433.6914063,480.7197266,433.4667969,482.4257813,432.9443359z"/>
	<path class="st2" d="M503.7421875,433.5839844c2.3496094,0,4.7568359-0.8310547,7.1494141-2.2207031
		c-3.9912109-5.2988281-8.6992188-8.4716797-13.3535156-9.8339844c-1.9746094-0.578125-3.9765625-0.8486328-5.9736328-0.8476563
		C492.28125,427.9443359,495.6015625,433.5839844,503.7421875,433.5839844z"/>
	<path class="st2" d="M464.6083984,425.0712891c-0.2304688-0.8212891-0.0644531-1.7060547,0.4492188-2.3867188
		c1.4970703-1.984375,3.7978516-4.2324219,6.2578125-3.6835938c0.515625,0.1142578,1.5751953,0.4931641,2.2792969,1.6943359
		c1.7294922-1.4863281,3.4628906-2.8134766,5.2001953-3.9726563c2.4130859-1.6123047,4.7255859-2.8242188,6.9375-3.7373047
		c0.8837891-8.4511719,3.0185547-17.0439453,7.0712891-22.1914063c3.7548828-3.8330078,7.1064453-2.3154297,5.0292969,0.8789063
		c-2.2568359,3.9589844-4.9404297,11.7128906-5.984375,19.4853516c5.8486328-1.0722656,10.6972656-0.0185547,14.2421875,1.4726563
		c5.0898438,2.1425781,9.6748047,6.0615234,13.5341797,11.3828125c2.2880859-2.4619141,4.4677734-5.1845703,6.4638672-7.9072266
		c2.0537109,9.6738281,9.6074219,17.4355469,23.6132813,17.5537109c17.6435547,0.1601563,29.5361328-15.1679688,37.8388672-29.9375
		c2.6328125-5.0263672-3.2724609-7.4208984-6.0703125-3.3505859c-9.0195313,13.4111328-29.5361328,11.9746094-28.5791016,4.7089844
		c37.6015625-4.3115234,28.0224609-26.2646484,5.6708984-26.7441406
		c-17.4814453-0.4091797-28.7900391,11.5029297-32.0683594,24.3769531
		c-2.3447266,3.2558594-6.3505859,8.5195313-7.7402344,8.2783203c-3.6738281-0.6396484,12.3740234-32.4912109-14.3730469-32.8105469
		c-3.9902344,0-9.4980469,0.9589844-13.0917969,2.5556641c-4.1513672-2.7148438-14.4511719-3.59375-19.4814453,1.6757813
		c-4.3154297,4.5771484-7.8125,13.3330078-9.7763672,21.7861328c-2.9384766,3.9658203-5.5898438,6.9736328-6.6904297,6.7900391
		c-2.2324219-0.3173828,1.9970703-22.6708984,5.1914063-25.6259766c5.8271484-5.1894531-12.7753906-10.6953125-20.1201172-2.953125
		c-3.2255859,3.4091797-7.2382813,11.9394531-9.7666016,21.0234375c-3.1582031,4.3388672-6.0791016,7.7597656-7.2490234,7.6289063
		c-1.7568359-0.3173828,0.2392578-7.7451172,0.6386719-9.3408203c1.9140625-5.6611328,5.7460938-21.8662109,7.8203125-36.3955078
		h5.9091797c1.9150391,0,3.4345703-1.5175781,3.4345703-3.3544922c0-1.9150391-1.5195313-3.4326172-3.4345703-3.4326172H432.65625
		c0.2392578-2.3144531,0.4013672-4.5507813,0.4794922-6.6269531c0.3203125-9.8203125-3.0332031-18.6796875-14.4511719-18.6005859
		c-2.3925781,0-5.9091797,1.0361328-5.1083984,4.1513672c1.2792969,5.9863281,0.4794922,13.3310547-1.3574219,21.0732422h-5.7480469
		c-1.9150391,0-3.4326172,1.5175781-3.4326172,3.4326172c0,1.8369141,1.5175781,3.3544922,3.4326172,3.3544922h3.9121094
		c-3.6298828,12.7099609-9.1025391,26.2021484-12.046875,37.6738281c-2.3662109,3.2685547-6.1855469,8.2294922-7.5351563,7.9951172
		c-3.6738281-0.6396484,12.3740234-32.4912109-14.3730469-32.8105469c-3.9902344,0-9.4980469,0.9589844-13.0917969,2.5556641
		c-4.1513672-2.7148438-14.4511719-3.59375-19.4814453,1.6757813c-4.1582031,4.4101563-7.5556641,12.6992188-9.5546875,20.8583984
		c-9.7915039,10.2373047-27.112793,8.5-26.2314453,1.8095703c37.6015625-4.3115234,28.0224609-26.2646484,5.6708984-26.7441406
		c-17.6679688-0.4140625-29.0317383,11.7587891-32.1713867,24.7880859
		c-3.2456055,4.4853516-6.2890625,8.0771484-7.5541992,7.9423828c-1.6757813-0.3173828,0.3173828-7.7431641,0.7167969-9.3408203
		c2.5537109-7.5839844,8.5419922-33.7695313,9.0996094-49.8144531c0.3183594-9.8203125-3.0332031-18.6796875-14.4511719-18.6005859
		c-2.3955078,0-5.9082031,1.0361328-5.1074219,4.1513672c3.612793,16.7392578-9.2524414,43.2832031-14.8237305,63.9111328
		c-3.6958008,5.2626953-7.4443359,9.8408203-8.7211914,9.6152344c-2.2333984-0.3173828,1.9150391-22.6708984,5.1865234-25.6259766
		c5.2695313-4.7900391-9.9775391-9.8203125-18.2001953-4.5507813c-17.0820313-8.5410156-44.4628906,5.3515625-46.3818359,33.1298828
		c-0.71875,10.6181641,3.3515625,19.5595703,14.1318359,19.6376953c4.9482422,0,12.1347656-4.7089844,18.0419922-14.3671875
		c0.078125,4.7900391,1.0361328,8.7802734,3.4326172,11.1777344c2.3144531,2.1542969,5.4287109,3.1933594,8.7021484,3.1933594
		c6.934082,0,14.4902344-7.0869141,21.1445313-15.7783203c-0.0566406,4.2548828,0.5644531,8.4492188,2.5585938,11.4599609
		c5.2695313,7.8242188,15.2460938,3.9921875,21.0732422-0.9560547c4.0688477-3.4042969,7.659668-7.5458984,10.9018555-11.9707031
		c2.1254883,9.5644531,9.6679688,17.2041016,23.5610352,17.3212891c11.3662109,0.1035156,20.3427734-6.2255859,27.5136719-14.6875
		c0.0649414,1.2607422,0.2080078,2.3964844,0.4453125,3.3544922c0.9589844,4.1513672,3.7519531,7.5058594,8.4628906,9.4208984
		c5.1103516,2.1533203,10.2998047,2.0751953,13.171875,1.1962891c1.9150391-0.6386719,3.1943359-2.2363281,3.0332031-4.1513672
		c-0.8789063-11.0966797,0.5576172-29.3798828,7.3447266-37.9990234c3.7548828-3.8330078,7.1064453-2.3154297,5.0292969,0.8789063
		c-5.5068359,9.6591797-13.5703125,41.9111328,5.9091797,41.9111328c6.8798828,0,14.2460938-7.0410156,20.3046875-14.78125
		c0.0488281,3.90625,0.7158203,7.6884766,2.5537109,10.4628906c5.2695313,7.8242188,15.2460938,3.9921875,21.0771484-0.9560547
		c2.9560547-2.4638672,5.7880859-5.4873047,8.4794922-8.8359375c0.0566406,4.6474609,1.0498047,8.578125,3.4277344,10.9140625
		c2.3144531,2.1542969,5.4257813,3.1923828,8.6992188,3.1923828c6.5224609,0,13.6357422-6.3691406,20.0234375-14.4355469
		c0.0693359,1.1914063,0.2099609,2.2685547,0.4365234,3.1826172c0.6318359,2.7353516,2.078125,5.1132813,4.3261719,6.9726563
		l0.1455078-0.1943359C464.9638672,426.9560547,464.7373047,425.53125,464.6083984,425.0712891z M558.6435547,389.8330078
		c9.1796875-5.5078125,6.8652344,6.9453125-6.0664063,7.8232422
		C553.5322266,394.5449219,555.6884766,391.5917969,558.6435547,389.8330078z M216.5380859,401.4902344
		c-15.2519531,24.9853516-8.3027344-7.6640625,5.0283203-12.7724609
		C219.7314453,392.3085938,217.9755859,396.78125,216.5380859,401.4902344z M313.8203125,389.8330078
		c9.1796875-5.5078125,6.8652344,6.9453125-6.0664063,7.8232422
		C308.7089844,394.5449219,310.8652344,391.5917969,313.8203125,389.8330078z"/>
	<path class="st3" d="M602.8427734,354.2294922c15.2470703-5.3476563,12.375-29.2958984,2.9541016-32.171875
		c-1.2734375-0.3974609-2.6298828-0.1572266-3.8291016,1.1181641c2.6318359,8.3017578-3.2734375,20.1152344-12.3759766,18.6796875
		c-1.9970703-0.3183594-3.5107422,0.4794922-4.0722656,1.8369141
		C583.2832031,349.6787109,591.7460938,358.1416016,602.8427734,354.2294922z"/>
	<path class="st2" d="M647.3632813,385.3632813c5.7490234-5.1894531-12.6123047-10.6152344-20.1152344-2.953125
		c-5.9082031,5.9863281,0.4775391,13.5703125,1.5175781,20.9150391c0.2402344,1.9970703,0.2402344,4.0732422-0.9580078,5.7490234
		c-1.4365234,2.0751953-3.9902344,2.6328125-5.3476563,0.9570313c-1.9970703-2.5546875-0.6396484-6.2265625,1.5966797-8.0615234
		c2.6347656-2.1552734,1.1181641-4.7089844-2.6347656-4.6308594c-7.2666016,0.796875-12.5332031,10.5390625-12.2939453,19.71875
		c0.8789063,26.8222656,45.9814453,18.4414063,45.5019531-5.8271484
		c-0.0810547-5.5888672-2.4755859-10.6191406-5.1113281-15.4091797
		C646.3251953,389.9941406,646.0078125,386.6396484,647.3632813,385.3632813z"/>
	<path class="st3" d="M506.0908203,412.6308594c-3.5449219-1.4912109-8.3935547-2.5449219-14.2421875-1.4726563
		c-1.9326172,0.3544922-3.9736328,0.9423828-6.1162109,1.8271484c-2.2119141,0.9130859-4.5244141,2.125-6.9375,3.7373047
		c-1.7373047,1.1591797-3.4707031,2.4863281-5.2001953,3.9726563c-0.7041016-1.2011719-1.7636719-1.5800781-2.2792969-1.6943359
		c-2.4599609-0.5488281-4.7607422,1.6992188-6.2578125,3.6835938c-0.5136719,0.6806641-0.6796875,1.5654297-0.4492188,2.3867188
		c0.1289063,0.4599609,0.3554688,1.8847656,0.6542969,4.0341797l-0.1455078,0.1943359l-0.0771484,0.1035156
		c-4.9833984,5.8759766-9.90625,13.1142578-14.7333984,21.640625c-0.3652344,0.6455078-0.7314453,1.28125-1.0957031,1.9414063
		c-0.8134766,1.4736328-0.2773438,3.3300781,1.1972656,4.1435547c1.4755859,0.8134766,3.3310547,0.2773438,4.1445313-1.1972656
		c1.4833984-2.6894531,2.9726563-5.2421875,4.4667969-7.6640625c2.3613281-3.8271484,4.7333984-7.3232422,7.1132813-10.4755859
		l0.2470703-0.1074219c0.1787109,1.4296875,0.3671875,2.953125,0.5615234,4.5380859
		c0.9912109,8.0898438,2.1572266,17.9638672,3.2558594,27.2626953c1.6201172,13.7099609,3.2958984,27.8867188,4.6748047,38.8076172
		c0.7480469,5.921875,1.3369141,10.3173828,1.7998047,13.4394531c0.8574219,5.7783203,1.0898438,6.3769531,2.0068359,7.1425781
		c0.6757813,0.5634766,1.5703125,0.7597656,2.4013672,0.5556641c0.2080078-0.0507813,0.4130859-0.125,0.6074219-0.2265625
		c0.9775391-0.5068359,1.5576172-1.5498047,1.4697266-2.6464844c-0.5449219-6.8066406-3.9335938-49.1259766-6.4296875-77.8154297
		c-0.5068359-5.8330078-0.9775391-11.1005859-1.3798828-15.3935547c-0.1943359-2.0820313-0.3740234-3.9384766-0.5332031-5.5146484
		c0.6728516-0.6533203,1.3457031-1.2792969,2.0185547-1.8769531c2.6445313-2.0048828,5.4814453-3.4628906,8.4013672-4.3349609
		c2.0800781-0.6220703,4.2021484-0.9394531,6.3300781-0.9404297c1.9970703-0.0009766,3.9990234,0.2695313,5.9736328,0.8476563
		c4.6542969,1.3623047,9.3623047,4.5351563,13.3535156,9.8339844c3.4179688,4.5371094,6.3037109,10.6455078,8.1816406,18.5058594
		c1.7412109,7.2851563,2.6201172,16.0712891,2.234375,26.5429688c-1.1669922,31.6699219-17.4296875,52.2851563-32.890625,56.2822266
		c-3.9521484,1.0244141-7.6796875,0.9384766-11.0625-0.2021484c-4.2578125-1.5751953-8.0234375-4.8398438-11.2558594-9.7753906
		l-0.0566406-0.0791016l-0.0947266-0.1298828l-0.0947266-0.1132813l-0.1054688-0.1181641l-0.1054688-0.1035156l-0.1132813-0.1025391
		l-0.1162109-0.09375l-0.1181641-0.0869141l-0.1279297-0.0849609l-0.1201172-0.0722656l-0.1386719-0.0732422l-0.1230469-0.0576172
		l-0.1464844-0.0605469l-0.1269531-0.0458984l-0.1503906-0.0449219l-0.1308594-0.0341797l-0.1533203-0.0292969l-0.1357422-0.0214844
		l-0.1542969-0.015625l-0.1376953-0.0087891l-0.1552734-0.0009766l-0.1386719,0.0048828l-0.15625,0.0146484l-0.1367188,0.0175781
		l-0.1572266,0.03125l-0.1337891,0.0302734l-0.15625,0.0478516l-0.1318359,0.0439453l-0.1513672,0.0634766l-0.1308594,0.0585938
		l-0.1425781,0.0761719l-0.0859375,0.0458984l-0.046875,0.0332031l-0.0488281,0.0273438l-0.078125,0.0566406l-0.1308594,0.0957031
		l-0.1113281,0.09375l-0.1191406,0.1064453l-0.1025391,0.1044922l-0.1044922,0.1152344l-0.0917969,0.1132813l-0.0888672,0.1201172
		l-0.0820313,0.1259766l-0.0751953,0.1240234l-0.0693359,0.1337891l-0.0615234,0.1289063l-0.0566406,0.1386719l-0.0498047,0.1347656
		l-0.0419922,0.1425781l-0.0371094,0.140625l-0.0273438,0.1416016l-0.0234375,0.1464844l-0.0146484,0.1425781l-0.0087891,0.1503906
		v0.1425781l0.0048828,0.1523438l0.0126953,0.1425781l0.0195313,0.1494141l0.0283203,0.1464844l0.0341797,0.1435547
		l0.0439453,0.1474609l0.046875,0.1396484l0.0605469,0.1455078l0.0615234,0.1347656l0.0761719,0.1416016l0.0458984,0.0849609
		c3.3886719,5.6191406,7.7509766,9.5634766,12.9667969,11.7265625l0.0791016,0.03125
		c4.8681641,2.1171875,9.6210938,2.25,13.4941406,1.6904297c0.9199219-0.1337891,1.8447266-0.3144531,2.7763672-0.5419922
		c7.3535156-1.7978516,14.9716797-6.5078125,21.7314453-13.4873047c7.1269531-7.359375,12.7880859-16.7998047,15.5292969-25.9003906
		c2.7041016-8.9775391,4.203125-18.3222656,4.453125-27.7802734c0.2373047-8.9873047-0.6542969-17.6435547-2.6513672-25.7265625
		c-0.1875-0.7587891-0.3935547-1.4980469-0.5986328-2.2373047c-2.1494141-7.7529297-5.2568359-14.4355469-9.0908203-19.7226563
		C515.765625,418.6923828,511.1806641,414.7734375,506.0908203,412.6308594z"/>
	<path class="st3" d="M665.0878906,435.6210938c-1.6650391,0.2392578-2.8271484,1.7832031-2.5888672,3.4501953
		c0.0712891,0.5029297,0.1123047,1.0029297,0.1679688,1.5039063c1.7929688,15.9189453-4.0185547,31.0302734-17.7685547,45.9980469
		c-0.6533203-6.7021484-1.3994141-13.0332031-2.1142578-18.5615234c-0.875-6.765625-1.7451172-12.6308594-2.4335938-17.0292969
		c-0.3769531-2.4023438-0.7001953-4.3740234-0.9394531-5.7998047c-0.4404297-2.6152344-0.8691406-5.0185547-1.2070313-6.7666016
		c-0.15625-0.8027344-0.2871094-1.4414063-0.390625-1.9003906c-0.1835938-0.8076172-0.5234375-2.3125-2.2001953-2.8671875
		c-0.9365234-0.3095703-1.9736328-0.1503906-2.7763672,0.4267578c-1.390625,1.0009766-1.4316406,2.4736328-1.4902344,4.5126953
		c-0.0371094,1.3144531-0.0439453,3.0869141-0.0546875,5.328125c-0.0087891,1.9384766-0.0185547,4.1640625-0.0498047,6.5664063
		c-0.0810547,6.1005859-0.3007813,13.3769531-0.9990234,20.2607422
		c-1.4541016,14.3320313-4.2480469,18.9238281-5.7832031,20.3847656c-0.4492188,0.4267578-0.8476563,0.6464844-1.1953125,0.7548828
		c-0.1347656,0.0009766-0.2714844,0.0097656-0.4091797,0.0292969c-0.3271484,0.0449219-0.7050781,0.0253906-1.2509766-0.4160156
		c-1.2246094-0.9882813-3.5615234-4.2890625-5.4599609-15.2978516c-1.3251953-7.6865234-1.9912109-16.3486328-2.5283203-23.3095703
		c-0.5283203-6.8759766-0.8105469-10.2529297-1.4316406-11.8632813c-0.5273438-1.3681641-1.6630859-2.2734375-3.0380859-2.4208984
		c-0.7275391-0.0771484-2.9433594-0.3134766-5.9677734,4.2890625c-0.3710938,0.5644531-0.5439453,1.2363281-0.4921875,1.9091797
		c0.2167969,2.8115234,0.6962891,8.2021484,1.5703125,14.4960938c-0.1660156,5.9501953-1.0712891,13.1679688-2.5410156,19.6181641
		c-2.8945313,12.7011719-6.4492188,16.8857422-8.09375,17.3554688c-0.1064453,0.0302734-0.2080078,0.0537109-0.3105469,0.0761719
		c-0.1142578,0.0107422-0.2294922,0.0263672-0.3447266,0.0488281l-0.203125,0.0380859
		c-0.7441406,0.0654297-1.3935547-0.1054688-2.0263672-0.5253906c-1.5703125-1.0429688-3.8691406-4.0957031-5.9042969-12.7177734
		c-1.5507813-6.5712891-2.4873047-14.3164063-3.3144531-21.1494141c-0.7001953-5.7792969-1.3046875-10.7705078-2.1523438-13.9921875
		c-0.2548828-0.9677734-0.8916016-1.7197266-1.7060547-2.15625c-0.65625-0.3525391-1.4238281-0.5048828-2.2177734-0.3671875
		c-0.9179688,0.1591797-1.6914063,0.6591797-2.2119141,1.3525391c-0.4970703,0.4033203-1.0332031,1.0195313-1.4208984,1.9189453
		c-0.4257813,0.9882813-0.671875,2.3193359-0.4697266,4.1269531c0.1035156,0.9257813,0.2167969,2.0703125,0.3466797,3.3974609
		c0.3925781,3.9853516,0.921875,9.3535156,1.8027344,15.0195313c-0.0371094,4.8613281-0.2773438,9.7480469-0.8330078,14.2900391
		c-0.9296875,7.6015625-3.0488281,16.5791016-7.8710938,19.4355469c-3.9736328,1.2431641-5.8378906-0.3603516-7.0195313-1.9199219
		c-2.8798828-3.8007813-4.125-11.6220703-3.3310547-20.921875c0.7724609-9.0605469,3.3291016-17.6582031,6.671875-22.4384766
		c1.4003906-2.0009766,2.7666016-3.1201172,4.0761719-3.3466797c0.5986328,0.2626953,1.2490234,0.3222656,1.8613281,0.1914063
		c1.4414063,0.1777344,2.8457031-0.6933594,3.2871094-2.1279297c0.4951172-1.6103516-0.4082031-3.3173828-2.0185547-3.8125
		c-0.4462891-0.1386719-0.9697266-0.2597656-1.5498047-0.3320313l-0.0224609-0.0087891
		c-3.0097656-1.40625-6.3955078-1.1923828-9.6865234,0.6523438l-0.109375,0.0703125
		c-3.9179688,2.2412109-7.4375,6.6660156-9.9140625,12.4912109c-2.6367188,6.2001953-3.8984375,13.4404297-3.6494141,20.9384766
		c0.2568359,7.7431641,2.8261719,18.7421875,9.2197266,24.2519531c2.9697266,2.5605469,6.5322266,3.6835938,10.3017578,3.2490234
		c0.5585938-0.0644531,1.1025391-0.1611328,1.6337891-0.2910156c1.0292969-0.2509766,2.0039063-0.6308594,2.9287109-1.1269531
		c0.1386719-0.0615234,0.2695313-0.1347656,0.3935547-0.2158203c5.0791016-2.9667969,8.53125-9.7402344,10.3066406-20.234375
		c1.9394531,4.8457031,4.2675781,8.2382813,7.0273438,10.2666016c2.5078125,1.84375,5.4169922,2.5546875,8.4453125,2.0722656
		c0.5488281-0.0664063,1.1015625-0.1777344,1.6591797-0.3369141c2.9921875-0.8544922,5.5537109-3.5273438,7.8330078-8.1728516
		c1.7265625-3.5175781,3.2939453-8.2529297,4.5341797-13.6933594c0.125-0.5507813,0.2451172-1.1074219,0.3623047-1.6660156
		c1.2236328,4.4785156,2.5888672,8.1904297,4.0732422,11.0712891c2.7783203,5.390625,6.1767578,8.2158203,10.1025391,8.3945313
		c2.3789063,0.1074219,4.6132813-0.7646484,6.4619141-2.5253906c3.5117188-3.3398438,5.8974609-10.1699219,7.2626953-20.8242188
		c0.4511719,6.1132813,0.8730469,12.9082031,1.1640625,19.8798828
		c-8.6748047,9.4414063-15.1972656,20.7558594-18.5546875,32.3066406
		c-2.3105469,7.9462891-2.9619141,15.5390625-1.9785156,21.6757813c-0.0224609,0.3398438,0.0078125,0.6894531,0.1064453,1.0361328
		c0.0205078,0.0703125,0.0693359,0.2910156,0.1103516,0.4677734c0.2705078,1.2080078,0.7470703,3.3232422,1.8730469,5.34375
		c0.1318359,0.265625,0.2675781,0.5283203,0.4091797,0.7802734c3.0537109,5.4287109,8.2460938,7.6826172,14.2744141,6.2080078
		l0.2207031-0.0546875c4.5722656-1.1835938,7.9863281-5.3486328,10.1445313-12.3798828
		c1.6904297-5.5078125,2.7041016-13.0439453,3.0117188-22.3994141c0.3398438-10.3017578-0.1933594-21.8876953-1.0898438-32.9677734
		c8.7558594-8.6855469,14.9082031-17.2871094,18.7910156-26.2626953c4.2041016-9.71875,5.59375-19.8603516,4.1289063-30.1464844
		c-0.1816406-1.2783203-1.1347656-2.2519531-2.3212891-2.5322266
		C665.8564453,435.5927734,665.4765625,435.5654297,665.0878906,435.6210938z M636.2626953,536.4248047
		c-1.8105469,14.4267578-5.1708984,16.875-6.1582031,17.28125c-1.9921875,0.8203125-3.5302734,0.9599609-4.5761719,0.4179688
		c-0.6435547-0.3349609-1.1455078-0.9482422-1.5400391-1.6572266c-2.5058594-5.2900391-2.3710938-14.3027344,0.40625-23.8535156
		c2.5341797-8.7197266,7.0341797-17.3066406,12.9892578-24.9335938
		C637.6865234,517.0703125,637.3105469,528.0761719,636.2626953,536.4248047z"/>
	<path class="st1" d="M382.6611328,340.1591797c-4.2109375,0.4428711-6.2451172,3.9072266-6.4335938,4.2416992
		c0.0869141-1.2216797,0.0673828-3.3188477-0.8916016-5.605957c-1.1386719-2.7163086-3.9345703-6.4916992-7.3144531-6.6069336
		c-5.1621094-0.1762695-8.5976563,8.2924805-8.8867188,9.0292969c-4.3930664,11.175293,4.0097656,23.1821289,5.5527344,25.3178711
		c2.8046875-0.1523438,17.5830078-1.1962891,23.5498047-11.5444336c0.8808594-1.5268555,4.5292969-7.8530273,1.65625-11.9306641
		C388.3662109,340.8930664,385.359375,339.8754883,382.6611328,340.1591797z"/>
	<path class="st3" d="M327.0893555,326.9335938c-2.1640625-0.6054688-4.6835938,0.3359375-6.3032227,1.965332
		c-2.5288086,2.5444336-2.0092773,5.9072266-1.9541016,6.2275391c-0.597168-0.8481445-1.7329102-2.2143555-3.5878906-3.2026367
		c-2.2026367-1.1738281-6.0605469-2.1572266-8.3417969-0.4243164c-3.484375,2.6469727-1.2055664,10.0454102-1.0009766,10.684082
		c3.0996094,9.6875,15.0478516,13.0742188,17.2045898,13.6503906c1.7607422-1.6010742,10.9077148-10.1948242,9.2851563-20.1821289
		C332.1518555,334.1782227,331.159668,328.0727539,327.0893555,326.9335938z"/>
	<path class="st1" d="M244.2836914,325.4208984c-2.6748047-1.171875-6.0878906-0.418457-8.4672852,1.3847656
		c-3.7148438,2.8149414-3.6552734,7.2363281-3.6425781,7.6586914c-0.6147461-1.199707-1.8291016-3.1645508-4.0371094-4.7734375
		c-2.6220703-1.9106445-7.4082031-3.8764648-10.6582031-2.0605469c-4.9633789,2.7729492-3.3706055,12.7080078-3.2231445,13.5668945
		c2.234375,13.0297852,16.9970703,19.5585938,19.668457,20.6914063c2.5551758-1.7402344,15.8828125-11.1381836,15.6035156-24.284668
		C249.4863281,335.6640625,249.3154297,327.6269531,244.2836914,325.4208984z"/>
</g>
</svg>
