<?xml version="1.0" encoding="utf-8"?>
<!-- Generator: Adobe Illustrator 22.0.1, SVG Export Plug-In . SVG Version: 6.00 Build 0)  -->
<svg version="1.1" id="Шар_1" xmlns="http://www.w3.org/2000/svg" xmlns:xlink="http://www.w3.org/1999/xlink" x="0px" y="0px"
	 viewBox="0 0 714 714" style="enable-background:new 0 0 714 714;" xml:space="preserve">
<g>
	<path d="M310.0517578,438.7519531c4.6679688-5.9482422,5.659668-8.6044922,6.1645508-10.4960938
		c1.637207-6.1396484,1.6601563-17.4326172-6.3149414-21.984375c-4.8662109-2.777832-11.4511719-2.3266602-16.3422852,1.0219727
		c-6.3486328,4.347168-6.9223633,11.5766602-6.9780273,12.4750977c-0.2265625-0.703125-2.765625-8.1650391-10.4790039-10.5205078
		c-6.0576172-1.8500977-12.1767578,0.4042969-15.7666016,4.0517578c-6.6000977,6.7070313-4.2553711,17.7246094-0.7504883,23.7421875
		c0.5532227,0.9501953,2.4135742,3.9697266,9.1352539,8.6855469c4.7636719,3.3417969,12.4204102,7.8525391,23.2861328,10.9228516
		C300.5141602,450.0126953,306.3105469,443.5205078,310.0517578,438.7519531z M304.9775391,408.4829102
		c5.925293,1.1166992,8.3710938,9.4995117,7.8720703,9.840332c-0.3666992,0.2509766-2.1362305-3.9736328-6.8881836-5.9042969
		c-4.6157227-1.875-8.6582031-0.2099609-8.8564453-0.9833984
		C296.8999023,410.6337891,300.9423828,407.722168,304.9775391,408.4829102z M271.5195313,439.9726563
		c-0.8925781,0.8154297-7.3105469-2.5810547-9.840332-8.8564453c-1.7788086-4.4121094-1.8657227-10.8183594,1.9677734-14.7607422
		c2.7485352-2.8271484,7.1098633-3.9726563,7.8725586-2.9521484c0.9672852,1.2939453-4.9306641,4.6269531-5.9042969,10.8242188
		C264.3330078,432.390625,272.6225586,438.9648438,271.5195313,439.9726563z"/>
	<path d="M361.984375,326.6328125c1.0219727-3.8496094,2.277832-7.8535156,3.690918-12.0195313
		C353.4208984,321.1337891,347.5292969,350.359375,361.984375,326.6328125z"/>
	<path d="M417.1621094,335.9008789l0.0683594,0.0024414c2.1191406-0.078125,4.0839844-1.5712891,5.65625-3.7695313
		c-3.0625-2.5126953-5.5761719-5.4208984-7.5410156-8.7988281c-0.9375,1.9379883-1.8779297,4.4570313-2.21875,6.734375
		C412.6425781,333.3076172,413.3876953,336.046875,417.1621094,335.9008789z"/>
	<path d="M528.4541016,315.0839844c-2.9082031,1.7304688-5.0302734,4.6367188-5.9697266,7.6992188
		C535.2099609,321.9179688,537.4882813,309.6640625,528.4541016,315.0839844z"/>
	<path d="M492.9091797,442.4150391c-2.2792969,4.7109375-4.6376953,12.8818359,1.8847656,12.5683594
		c2.1191406-0.078125,4.0839844-1.5712891,5.6552734-3.7695313
		C497.3876953,448.7011719,494.8740234,445.7929688,492.9091797,442.4150391z"/>
	<path d="M613.8085938,453.0986328l-8.1679688-11.1542969c0.625-2.4326172-0.1601563-4.3974609-1.4960938-6.2050781
		l-8.5625-11.7060547c-4.7929688-6.5224609-21.7617188-9.1933594-29.7734375,1.8847656
		c-5.7363281-9.1123047-21.9189453-10.2128906-29.3828125-2.2011719c-2.6132813,2.7910156-5.0117188,7.1318359-7.0283203,12.0009766
		c-4.3710938-6.2988281-9.7998047-13.9677734-16.2949219-16.5546875
		c-6.3642578-2.4365234-12.8046875-1.1806641-18.4599609,2.1201172c-1.8378906,0-3.6679688,0.2763672-5.4599609,0.7783203
		c0.1728516-0.7558594,0.3525391-1.5185547,0.5195313-2.2685547c2.8291016-12.4931641,7.2275391-30.4853516-0.5488281-41.0126953
		l-2.5732422-3.5170898c6.5449219-0.675293,13.3769531-5.9946289,19.2958984-12.5209961l0.0761719,0.1054688
		c6.3632813,8.5634766,13.1982422,12.4902344,24.6679688,12.5693359
		c19.3271484,0.2353516,33.0751953-16.4189453,41.4013672-31.9746094c1.6484375-3.0605469,1.8046875-6.7548828-0.4726563-9.5039063
		l-7.4628906-10.0537109c-3.2988281-4.5566406-1.8847656-2.3564453-4.2402344-4.3212891l-6.7578125-9.2695313
		c-5.734375-7.7773438-12.2548828-11-22.7011719-11.2363281c-11.1152344-0.2607422-20.1201172,3.9770508-26.5107422,10.3896484
		c-1.4472656-1.9282227-2.7841797-3.6625977-3.5185547-4.6513672c-4.2431641-5.8935547-10.2128906-6.2861328-19.1699219-4.5576172
		l-3.9267578-5.3427734c-9.2705078-12.6494141-25.3759766-1.3359375-25.6884766,9.7412109
		c-0.2353516,6.2060547,2.2011719,8.328125,4.7910156,12.0205078c-0.484375,0.7543945-0.9882813,1.487793-1.4892578,2.2094727
		c-4.6132813-6.5825195-10.5605469-15.8823242-17.8466797-18.7836914
		c-6.3642578-2.4365234-12.8046875-1.1806641-18.4599609,2.1201172c-2.8457031,0-5.671875,0.6621094-8.3691406,1.8046875
		c3.5898438-24.2363281-0.1513672-26.4995117-11.8994141-42.5029297
		c-7.8554688-10.6835938-27.1030273-8.1708984-24.5107422,3.2207031c2.0419922,9.4287109-2.5922852,24.1962891-6.0507813,34.5654297
		c-7.1694336-0.8510742-14.4741211,0.8427734-20.8354492,4.1586914c-0.434082-4.6674805-2.0209961-8.4873047-5.2392578-12.7963867
		c12.8027344-5.0283203,17.6757813-19.796875,9.9765625-30.2451172
		c-2.7524414-3.9267578-8.0922852-12.0205078-11.7060547-15.0039063
		c-10.371582-8.3300781-27.8115234-2.7529297-36.6879883,6.9111328c-5.421875-3.1435547-11.3134766-5.734375-17.1279297-7.6992188
		c-28.769043-9.6772461-46.8203125-1.2744141-54.1606445,11.8974609c2.7099609-16.1235352,3.777832-32.2792969,4.5209961-45.7294922
		c10.9970703-3.1425781,17.4404297-17.4404297,10.684082-25.9238281l-8.0117188-10.9189453
		c-8.9570313-12.1787109-25.2197266-7.4628906-31.8974609,3.3789063
		c-18.6176758-3.4570313-44.9360352-2.1210938-58.5268555,12.4130859
		c-10.8413086,11.546875-10.4482422,27.5742188-1.2573242,39.671875l6.8359375,9.3466797
		c7.3061523,9.8984375,16.6542969,15.6328125,29.6967773,14.2958984
		c-3.8496094,7.1513672-11.8618164,19.7998047-20.0327148,21.9208984l-8.1689453-11.15625
		c-9.4282227-12.7255859-34.3334961,11.3916016-26.6342773,35.1181641
		c2.2006836,6.9121094,8.4863281,14.2158203,12.8847656,20.2666016
		c11.0742188,15.0820313,27.9658203,17.6757813,45.0131836,11.15625
		c22.7836914-8.7402344,34.7255859-31.2988281,41.2407227-56.4736328
		c0.4946289,5.6914063,2.5576172,11.2958984,6.1982422,16.0654297l10.6845703,14.2988281
		c-2.6723633,1.4902344-4.3984375,4.0849609-5.421875,6.9111328c-4.1621094,11.4716797,2.9853516,18.3837891,8.4052734,26.0039063
		c-6.4404297,7.5419922-16.8115234,18.5410156-26.1582031,19.2480469l-7.9350586-10.7607422
		c-1.7290039-2.828125-5.5786133-4.1621094-9.2709961-4.1621094c-19.8769531,0-28.753418,21.8378906-22.2314453,38.8857422
		c2.4345703,6.4394531,8.640625,13.5908203,12.8833008,19.5605469c7.1474609,10.0566406,19.4052734,14.296875,32.2099609,13.9833984
		c26.3168945-0.5478516,48.3911133-28.6728516,63.0839844-52.8691406
		c0.9448242,7.6171875,3.5351563,15.0810547,7.8564453,20.7382813
		c8.7993164,11.8613281,14.1420898,23.1748047,30.9536133,23.1748047c2.9575195,0,6.0878906-0.5488281,9.1655273-1.5458984
		c0.8935547,2.5092773,2.1269531,4.8198242,3.6743164,6.8730469l8.5620117,11.7060547
		c9.8999023,13.4335938,29.8530273,14.6103516,41.8706055,5.9697266c-3.6132813,11.546875-3.1416016,17.9101563,2.75,25.9238281
		c4.1640625,5.65625,8.328125,13.1962891,14.8466797,16.0273438c-0.7841797,0.234375-1.5703125,0.3925781-2.4335938,0.3925781
		c-5.5791016,0.0771484-6.9150391-1.9648438-7.8564453-4.3974609c-1.4931641-4.0087891-3.4570313-8.4072266-8.640625-8.2480469
		c-18.1474609,0.6289063-28.2832031,29.1464844-14.9267578,47.3730469l8.0136719,10.9179688
		c19.3251953,26.2402344,64.3408203,13.5136719,80.3681641-20.7382813c2.9873047-6.4384766,5.8125-13.2841797,8.4609375-20.3359375
		l6.453125,8.7841797c10.9775391,15.7919922,38.4179688,13.9580078,51.5478516-2.6669922l3.8291016,5.1806641
		c8.40625,11.46875,22.0761719,10.0556641,31.8964844,2.5136719c2.9023438,3.7685547,7.4628906,5.8125,12.9628906,5.8144531
		c13.5136719,0,28.3613281-20.8955078,34.1757813-31.8964844
		C615.9296875,459.4619141,616.0878906,455.7714844,613.8085938,453.0986328z M176.3671875,313.5419922
		c-37.0029297,14.1386719-57.8999023-25.4560547-32.9960938-45.9580078
		c5.2626953-4.0058594,9.5053711-3.3798828,9.3481445,2.2001953c-0.2387695,12.1777344,12.7260742,12.9619141,20.9741211,5.1845703
		c20.1123047-19.0097656,28.6728516-53.6542969,33.3100586-79.8945313
		c-5.9702148-0.0800781-10.684082,0.3935547-14.2978516,1.4130859c-15.6313477,4.3212891-10.5253906,21.9189453,0.315918,19.8769531
		c2.2006836-0.3945313,2.0419922,2.3554688,2.0419922,2.3554688c-3.1425781,12.0195313-13.5908203,17.6757813-24.0395508,17.3632813
		c-31.9741211-0.9423828-41.715332-54.4423828,17.2045898-55.5419922c7.6992188-0.15625,15.3217773,0.6289063,21.7617188,2.2001953
		c4.5571289-11.2353516,16.6542969-13.5136719,22.7817383-9.0351563c7.8544922,5.734375,1.1772461,20.5839844-9.8198242,20.5810547
		C220.9902344,232.5478516,217.140625,297.9072266,176.3671875,313.5419922z M456.3144531,369.6669922
		c1.8847656,9.5048828-8.953125,38.6494141-16.0273438,49.3359375c3.8496094-21.1318359-4.0849609-28.5947266-14.2978516-42.5
		c-0.2548828-0.3696289-0.5214844-0.7275391-0.7900391-1.0844727c13.0673828,0.5693359,27.4511719-6.1972656,33.9023438-19.4790039
		c0.9042969-0.1748047,1.8564453-0.4516602,2.8291016-0.8095703c0.3896484,0.7167969,0.8251953,1.434082,1.3486328,2.1425781
		l2.0908203,2.7890625C459.6494141,360.4335938,455.1230469,363.8330078,456.3144531,369.6669922z M346.996582,307.7587891
		c7.1474609-3.8198242,15.1518555-4.9882813,22.0600586-3.0419922c5.1054688-14.9267578,9.9746094-30.1679688,7.5419922-41.1669922
		c-0.7080078-3.0644531,2.6708984-4.0849609,5.0263672-4.0849609c11.2333984-0.0791016,14.5351563,8.640625,14.21875,18.3046875
		c-0.4716797,15.7880859-6.4414063,41.5585938-8.9550781,49.0214844c-0.3935547,1.5703125-2.3583984,8.8798828-0.6289063,9.1923828
		c0.7158203,0.0791016,2.0771484-1.1738281,3.7363281-3.1416016c1.1923828-1.4145508,2.5380859-3.1987305,3.9091797-5.1279297
		c0.3681641-1.4038086,0.8339844-2.7910156,1.4052734-4.1435547c2.2646484-5.190918,7.6767578-11.8154297,14.1572266-14.9121094
		c2.7363281-1.3071289,5.6621094-1.9897461,8.6240234-1.6630859c16.3398438-10.9208984,28.8320313,5.6552734,28.8320313,21.3662109
		c0,0.7080078-0.078125,1.4951172-0.078125,2.2011719c1.5-0.1420898,2.7988281-0.6240234,3.9609375-1.3574219
		c1.2275391-0.7744141,2.296875-1.8422852,3.265625-3.1386719c0.1025391-0.2011719,0.2099609-0.402832,0.3574219-0.6083984
		c1.5566406-2.2294922,3.0605469-4.5400391,4.3583984-6.6113281c1.1259766-1.7988281,2.0986328-3.4194336,2.7919922-4.6240234
		c-4.0849609-0.9423828-7.1503906-4.0068359-6.9912109-9.5058594c0.1572266-7.2275391,10.1337891-13.671875,15.3984375-9.1943359
		c2.90625,2.3564453,2.5136719,7.0712891,1.1767578,11.6279297c5.8925781-1.8076172,21.2910156-6.1289063,23.4912109,0.3925781
		c0.4716797,1.6523438-0.9433594,3.5371094-1.9648438,6.0507813c-1.9619141,4.7910156-3.8496094,13.4335938-4.3212891,18.6171875
		c-0.0800781,0.8652344-0.2363281,3.3798828,0.7841797,3.6923828c0.7431641,0.1240234,2.2050781-1.2348633,3.9824219-3.3662109
		c1.1416016-1.3696289,2.4111328-3.0551758,3.7089844-4.8842773c1.4716797-5.6987305,4.5429688-11.1953125,9.0478516-15.4790039
		c5.4775391-5.2089844,13.0683594-8.6235352,22.4814453-8.4033203c21.9951172,0.4716797,31.4228516,22.0761719-5.5810547,26.3183594
		c-0.9414063,7.1513672,19.2480469,8.5644531,28.125-4.6337891c2.7519531-4.0048828,8.5644531-1.6484375,5.9726563,3.2978516
		c-8.1699219,14.5341797-19.8730469,29.6181641-37.2363281,29.4609375
		c-3.3417969-0.0283203-6.3046875-0.5043945-8.9130859-1.3364258c-8.1699219-2.6049805-12.8134766-8.7529297-14.3349609-15.9848633
		c-0.7382813,1.0039063-1.4873047,1.9921875-2.2480469,2.9545898c-6.328125,8.0053711-13.3603516,14.2944336-19.7724609,14.2944336
		c-4.5986328,0-7.6201172-1.6538086-9.4833984-4.3398438c-4.8339844-6.9677734-1.8535156-20.9008789,1.7861328-31.1035156
		c1.4306641-4.0107422,2.9619141-7.4462891,4.1601563-9.6513672c-0.7880859,0.3945313-1.5712891,0.7070313-2.4365234,0.9423828
		c-0.1552734,0.3164063-0.3125,0.7080078-0.4716797,0.8652344c-0.8974609,1.8632813-1.8945313,3.8051758-2.9443359,5.7734375
		c-1.28125,2.4023438-2.6552734,4.8476563-4.1025391,7.2895508c-0.0664063,0.1743164-0.1289063,0.3481445-0.2216797,0.5258789
		c-1.8066406,3.0488281-3.7783203,5.3876953-6.0292969,7.1005859c-2.7363281,2.0820313-5.8886719,3.2368164-9.6816406,3.5820313
		c-5.8896484,15.3427734-23.984375,22.0654297-37.1982422,17.9702148
		c-6.9755859-2.1611328-12.5888672-7.3354492-14.3320313-15.8510742c-0.7792969,1.0444336-1.5712891,2.0644531-2.375,3.0556641
		c-2.6621094,3.2807617-5.4521484,6.2397461-8.3271484,8.6513672c-5.8144531,4.8701172-15.6337891,8.6425781-20.8193359,0.9433594
		c-1.8061523-2.7490234-2.5136719-6.5214844-2.5136719-10.4482422
		c-5.0087891,8.4179688-10.9794922,13.1845703-15.6992188,14.3793945c-0.8310547,0.2104492-1.628418,0.3237305-2.3696289,0.3120117
		c-10.6875,0-14.6928711-8.8769531-13.9853516-19.2480469C328.402832,323.9926758,336.8320313,313.190918,346.996582,307.7587891z
		 M318.7241211,387.8330078c-16.8916016,0-25.5327148-16.0273438-25.3754883-34.4873047
		c0.0786133-8.25,2.3564453-16.65625,5.3413086-24.8271484c-4.4765625,0.6308594-9.190918,1.4169922-13.9047852,2.2011719
		c-17.8334961,33.1513672-41.4794922,65.4394531-68.0322266,66.0683594
		c-42.8974609,0.9414063-40.6967773-50.5146484-13.5136719-50.5146484c3.5336914,0,5.9682617,1.1777344,5.2626953,3.8496094
		c-0.2358398,1.4931641-0.2358398,2.8291016,0,4.0859375c1.5717773,6.5986328,10.6054688,8.8789063,18.6992188,5.3427734
		c9.2666016-4.0859375,19.1665039-14.1425781,28.6733398-26.4755859c-1.4145508-0.15625-2.6723633-0.4716797-3.6923828-0.7851563
		c-8.4082031-2.984375-12.3349609-12.0966797-9.6640625-19.4833984c0.7070313-1.8056641,1.7275391-3.3779297,3.2207031-4.3193359
		c1.8061523-1.1796875,3.6137695-0.3945313,4.6337891,1.3359375c2.4365234,4.3193359,8.6411133,6.4404297,16.7333984,7.4628906
		c11.8613281-17.9111328,22.2329102-36.9208984,28.5961914-48.15625
		c-5.5756836-2.1240234-10.1328125-3.2246094-13.9038086-3.5371094
		c-16.1826172-1.1806641-17.2832031,17.1240234-6.362793,18.9316406c2.1987305,0.3164063,1.0986328,2.8300781,1.0986328,2.8300781
		c-6.9921875,10.2128906-18.6977539,12.0976563-28.5175781,8.2480469
		c-29.7734375-11.6259766-20.8969727-65.2832031,34.9560547-46.5136719
		c7.3061523,2.4365234,14.2177734,5.8144531,19.7963867,9.4287109c9.9770508-15.0068359,36.2954102-18.1474609,37.0014648,0.3125
		c0.315918,9.4287109-9.5839844,20.6611328-28.6733398,14.9267578
		c-4.7143555,11.0771484-11.3930664,27.3408203-19.8769531,44.3876953c3.8496094-0.0771484,7.7792969-0.0771484,11.472168-0.0771484
		c5.7324219-13.9042969,11.546875-26.7080078,9.5048828-36.3720703c-0.7841797-3.0654297,2.6723633-4.0087891,4.9501953-4.0849609
		c5.6557617,0,9.2709961,2.1972656,11.4702148,5.4980469c9.2709961,14.2978516-6.3632813,38.4941406-6.284668,58.2138672
		c0,7.7519531,2.2470703,14.7011719,9.0644531,18.519043c0.2998047,0.1674805,0.5952148,0.3383789,0.9125977,0.4936523
		c2.590332,1.2578125,5.4199219,2.4365234,8.8764648,2.2001953c1.2578125-0.1552734,1.8881836,0.6289063,2.2006836,1.7294922
		c0.7675781,2.8847656,0.4350586,5.8354492-0.7114258,8.6318359
		C339.3569336,380.9882813,329.1723633,387.7734375,318.7241211,387.8330078z M391.03125,408.1611328
		c1.4140625-3.6132813,6.6796875-6.7558594,11.5478516-7.6201172c-1.1005859,5.9716797-3.375,11.078125-5.4199219,16.0253906
		h-0.0009766L391.03125,408.1611328z M451.6191406,480.7490234c-18.9326172,40.6914063-74.4746094,42.1865234-76.2822266,6.4394531
		c-0.6279297-12.2539063,6.5224609-24.4316406,16.4189453-24.7441406c0.3925781-0.0791016,0.7841797,0,1.1777344,0.1572266
		c0.5498047,0.1552734,0.9423828,0.6279297,1.1777344,1.4130859c1.6494141,7.3085938,7.4638672,11.0771484,14.0625,11
		c10.2929688-0.1572266,18.6972656-11.0771484,25.140625-23.4912109c-7.0712891,2.8300781-14.5351563,4.0068359-22.390625,3.3789063
		c-26.9443359-2.1210938-11.0761719-31.8154297-6.9902344-42.2646484
		c16.8115234-41.8740234-25.2167969-31.3447266-27.0244141-16.1035156
		c-0.4716797,4.2392578,1.4912109,8.2470703,6.2060547,9.3476563c1.9648438,0.4697266,0.7851563,2.8261719,0.7851563,2.8261719
		c-4.2382813,5.2666016-11.8613281,7.9355469-19.4013672,7.6210938
		c-11.2070313-0.4775391-18.5239258-6.7197266-21.296875-14.7089844c-0.8618164-2.4838867-1.2895508-5.1347656-1.2524414-7.8359375
		c0.112793-7.3208008,3.6557617-13.5219727,9.2382813-18.359375c1.6186523-1.402832,3.4077148-2.6904297,5.3359375-3.8574219
		c12.0629883-7.2998047,29.5209961-9.8632813,44.1264648-6.2128906c1.7158203,0.4287109,3.3916016,0.9448242,5.015625,1.5478516
		c4.6503906,1.7275391,8.8642578,4.1801758,12.3330078,7.4125977c5.4267578,5.0581055,9.0292969,12.019043,9.5830078,21.1186523
		c0.7871094,12.6474609-10.0546875,36.2939453,0.8652344,37.1582031
		c10.2128906,0.7871094,17.7529297-12.5673828,22.390625-23.1748047
		c4.6337891-10.8378906,12.0185547-31.0273438,10.2128906-40.6914063c-0.7109375-3.1445313,2.7460938-4.0058594,5.1035156-3.9287109
		c0.9990234,0.0229492,1.9111328,0.1293945,2.78125,0.2773438c5.6083984,0.9541016,8.6113281,4.4086914,9.9365234,9.1767578
		c0.6025391,2.1699219,0.8720703,4.6005859,0.8710938,7.1972656
		C479.8203125,399.9892578,464.8964844,452.2314453,451.6191406,480.7490234z M600.7636719,447.8398438
		c-7.9355469,13.3544922-19.71875,29.4589844-30.0097656,29.4589844c-6.2851563,0-10.2890625-3.2197266-11.5488281-9.2695313
		c-5.9736328,8.1396484-17.0761719,11.3652344-24.3808594,7.65625c-4.6113281-2.3408203-7.7128906-7.4365234-7.0429688-15.8271484
		c0.0722656-0.9570313,0.1806641-1.9345703,0.3134766-2.9238281c-1.4365234,0.5625-2.9794922,0.9462891-4.6494141,1.1630859
		c-0.3046875,0.0400391-0.6083984,0.0800781-0.921875,0.1083984c-7.6298828,19.8759766-35.7421875,25.2900391-47.1923828,11.4511719
		c-3.1669922-3.8291016-5.0615234-9.1289063-4.8916016-16.0068359c0.15625-3.6933594,0.9414063-7.4628906,2.4335938-11
		c2.3701172-5.4326172,8.1865234-12.4345703,15.0673828-15.3193359c2.4716797-1.0361328,5.0791016-1.546875,7.7148438-1.2558594
		c16.3398438-10.9208984,28.8320313,5.6552734,28.8320313,21.3662109c0,0.7080078-0.0791016,1.4951172-0.0791016,2.2011719
		c0.1953125-0.0185547,0.3769531-0.0605469,0.5654297-0.0898438c2.1191406-0.3300781,3.8427734-1.3291016,5.3203125-2.828125
		c0.8408203-2.9160156,1.8310547-5.7578125,2.8935547-8.3691406c2.0771484-5.1025391,4.4248047-9.3242188,6.4550781-11.4931641
		c7.2285156-7.6220703,25.453125-2.2011719,19.796875,2.9833984c-3.2246094,2.9082031-7.3085938,24.8251953-5.109375,25.2177734
		c5.109375,0.8652344,7.2285156-9.0351563,8.5644531-12.8847656c2.3554688-6.7558594,5.421875-12.6474609,7.9355469-15.3193359
		c7.2265625-7.6220703,25.4511719-2.2011719,19.796875,2.984375c-3.2226563,2.9072266-7.3066406,24.8242188-5.1054688,25.2167969
		c1.3359375,0.2363281,5.4199219-4.9462891,9.2695313-10.5253906
		C597.5410156,440.6083984,603.3554688,442.8867188,600.7636719,447.8398438z"/>
	<path d="M161.9506836,342.6474609c-2.2685547-0.4833984-4.5371094-0.9667969-6.8056641-1.449707
		c-1.2636719,6.074707-2.9433594,18.4345703,1.7197266,32.6660156c2.8837891,8.8017578,7.203125,15.296875,10.5102539,19.456543
		c2.0527344-1.175293,4.1054688-2.3505859,6.1582031-3.5258789c-2.3901367-4.21875-4.8271484-9.3129883-6.8505859-15.2617188
		C162.3930664,361.9233398,161.7133789,350.6220703,161.9506836,342.6474609z"/>
	<path d="M183.4145508,404.2387695c-1.7734375,1.3022461-3.5473633,2.6044922-5.3208008,3.9067383
		c1.6064453,3.4365234,4.7226563,8.9755859,10.4179688,14.1894531c5.9106445,5.4111328,11.9477539,8.0429688,15.5722656,9.3125
		c1.3398438-1.8935547,2.6796875-3.7871094,4.019043-5.6806641c-3.9331055-2.1875-8.7109375-5.2949219-13.6328125-9.6445313
		C189.6567383,412.0683594,186.0454102,407.8085938,183.4145508,404.2387695z"/>
	<path d="M221.0595703,436.7578125c-1.3569336,1.265625-2.7138672,2.53125-4.0708008,3.796875
		c2.7441406,4.2832031,7.5302734,10.5996094,15.1870117,16.2832031c9.0722656,6.734375,17.9765625,9.4658203,23.2602539,10.6572266
		c1.0292969-1.2773438,2.0585938-2.5537109,3.0874023-3.8310547c-5.7783203-2.515625-12.840332-6.1835938-20.2753906-11.5371094
		C230.9116211,446.84375,225.2519531,441.3886719,221.0595703,436.7578125z"/>
	<path d="M276.3291016,470.8359375c-1.1953125,1.4931641-2.3911133,2.9863281-3.5864258,4.4785156
		c3.0859375,3.8193359,7.6787109,8.5957031,14.1469727,12.8427734c12.0947266,7.9404297,24.0839844,9.65625,30.4106445,10.0830078
		c0.5893555-1.90625,1.1791992-3.8125,1.7685547-5.71875c-5.0019531-1.015625-10.8603516-2.6435547-17.1552734-5.3056641
		C290.3852539,482.3388672,281.9248047,475.9082031,276.3291016,470.8359375z"/>
	<path d="M337.1801758,499.5712891c-0.2993164,1.9453125-0.5981445,3.890625-0.8969727,5.8359375
		c3.1000977,2.0146484,7.4638672,4.3613281,13.0180664,5.9833984c9.1557617,2.6748047,17.0737305,2.0732422,21.6967773,1.3447266
		c0.0249023-2.3193359,0.0498047-4.6386719,0.0742188-6.9580078c-4.3662109-0.0654297-9.3286133-0.4130859-14.7387695-1.2705078
		C348.8642578,503.3242188,342.4267578,501.46875,337.1801758,499.5712891z"/>
	<path d="M286.3237305,179.6953125c6.2768555-0.2885742,11.9091797,0.1196289,16.7094727,0.8037109
		c0.3442383-2.340332,0.6884766-4.6806641,1.0332031-7.0205078c-5.0805664-1.5595703-12.7045898-3.2084961-21.9511719-2.6782227
		c-14.9511719,0.8569336-25.84375,6.9345703-31.0375977,10.3295898c1.2783203,1.9355469,2.5566406,3.8706055,3.8354492,5.8061523
		C262.2495117,183.8027344,273.0185547,180.3076172,286.3237305,179.6953125z"/>
	<path d="M334.6352539,180.9902344c6.5063477,0.9067383,11.9746094,2.5131836,16.1953125,4.0756836
		c0.565918-2.2495117,1.1323242-4.4985352,1.6982422-6.7480469c-3.3227539-1.9262695-9.25-4.7973633-17.2055664-5.7646484
		c-7.6645508-0.9316406-13.8984375,0.3066406-17.5537109,1.3227539c0.1655273,2.1943359,0.3310547,4.3886719,0.4960938,6.5830078
		C322.6884766,180.1333008,328.2729492,180.1040039,334.6352539,180.9902344z"/>
	<path d="M409.265625,203.7011719c0.5332031-1.5512695,1.0654297-3.1025391,1.5986328-4.6533203
		c-3.8212891-3.8383789-10.8740234-9.9223633-21.4042969-14.0170898c-8.8886719-3.4560547-16.7832031-4.1450195-21.8701172-4.1875
		c-0.3491211,1.8222656-0.6982422,3.6450195-1.046875,5.4672852c6.1523438,1.0839844,13.7832031,2.9707031,22.1611328,6.3686523
		C397.1943359,196.1230469,404.0595703,200.1484375,409.265625,203.7011719z"/>
	<path d="M462.796875,230.1166992c1.2392578-1.5634766,2.4785156-3.1274414,3.7177734-4.690918
		c-3.9277344-4.9785156-12.1181641-13.8994141-25.5048828-19.3891602
		c-7.1582031-2.9360352-13.6943359-4.0258789-18.5888672-4.4130859c-0.5566406,1.8300781-1.1123047,3.6601563-1.6679688,5.4902344
		c7.3466797,1.7495117,17.4326172,5.0947266,27.9707031,11.8491211
		C454.4785156,222.6508789,459.1318359,226.5639648,462.796875,230.1166992z"/>
	<path d="M502.9824219,259.1923828c1.6484375-1.6308594,3.2978516-3.262207,4.9472656-4.8930664
		c-2.6933594-3.8286133-7.7685547-9.9350586-16.0595703-14.652832c-5.0292969-2.8618164-9.7509766-4.3642578-13.3554688-5.1904297
		c-1.1894531,1.5678711-2.3789063,3.1357422-3.5683594,4.7036133c5.0126953,2.4492188,10.8242188,5.7841797,16.8701172,10.3271484
		C496.1953125,252.7773438,499.8984375,256.1010742,502.9824219,259.1923828z"/>
	<path d="M528.7685547,285.0864258c3.5927734,4.1352539,6.5166016,8.1601563,8.8847656,11.8291016
		c1.9541016-1.2495117,3.9091797-2.4985352,5.8632813-3.7480469c-1.8310547-4.3076172-5.515625-11.3422852-12.6337891-17.6918945
		c-4.3173828-3.8520508-8.6201172-6.3100586-11.9707031-7.8730469c-1.4921875,1.2836914-2.9833984,2.5678711-4.4755859,3.8515625
		C518.8251953,274.8994141,523.8085938,279.3774414,528.7685547,285.0864258z"/>
	<path d="M569.6875,371.0888672c3.7441406,15.0913086,3.5224609,28.9970703,1.96875,40.3466797
		c2.9521484-1.3125,5.9042969-2.6245117,8.8564453-3.9365234c0.6123047-4.1298828,1.0087891-8.7480469,0.984375-13.7768555
		c-0.0722656-14.3789063-3.5634766-26.2133789-6.8886719-34.4418945c-2.2958984,1.6401367-4.5927734,3.2802734-6.8886719,4.9199219
		C568.4335938,366.4038086,569.0957031,368.7001953,569.6875,371.0888672z"/>
	<path d="M538.1982422,510.8242188c-7.2861328,4.1679688-14.0566406,6.0107422-18.6972656,6.8886719
		c0.328125,2.6240234,0.65625,5.2480469,0.984375,7.8720703c5.0751953-0.5996094,13.0527344-2.1933594,21.6494141-6.8876953
		C553.1894531,512.6601563,559.671875,504.5507813,562.7998047,500c-3.6083984,0-7.2167969,0-10.8251953,0
		C548.9707031,503.1679688,544.4501953,507.2490234,538.1982422,510.8242188z"/>
	<path d="M477.9648438,521.4023438c-8.5712891,0.703125-16.0146484,0.140625-21.8378906-0.7294922
		c-0.0917969,2.3173828-0.1845703,4.6347656-0.2763672,6.9521484c5.4150391,0.7246094,11.78125,1.203125,18.9003906,1.03125
		c8.1152344-0.1953125,15.2490234-1.1875,21.1503906-2.3886719c-0.2226563-2.6347656-0.4462891-5.2695313-0.6689453-7.9052734
		C490.4560547,519.6669922,484.6396484,520.8554688,477.9648438,521.4023438z"/>
	<path d="M355.84375,476.0175781c3.5029297-2.6083984,8.3349609-8.6806641,5.9824219-14.5361328
		c-1.4360352-3.5732422-5.175293-6.1416016-9.2392578-6.4248047c-5.2744141-0.3691406-8.6694336,3.2802734-9.0834961,3.7402344
		c0.1787109-0.4755859,1.9956055-5.578125-1.1533203-10.1396484c-2.4736328-3.5810547-6.7319336-4.9785156-10.222168-4.5458984
		c-6.4179688,0.7949219-9.8574219,7.7294922-10.5380859,12.4667969c-0.1074219,0.7480469-0.394043,3.1689453,1.2138672,8.578125
		c1.1391602,3.8330078,3.3383789,9.53125,7.8808594,15.8222656c7.4155273,0.0556641,13.3085938-0.9667969,17.3588867-1.9384766
		C353.0966797,477.828125,354.7646484,476.8212891,355.84375,476.0175781z M352.2119141,458.6699219
		c0.2568359-0.5390625,4.9448242-0.1464844,6.8886719,2.9521484c2.1572266,3.4394531-0.4731445,7.9746094-0.984375,8.8564453
		c-1.4472656,2.4960938-3.6777344,4.1494141-3.9360352,3.9355469c-0.2143555-0.1767578,1.1157227-1.4892578,1.9682617-3.9355469
		c0.2695313-0.7744141,1.6103516-4.6230469,0-7.8730469C354.7631836,459.8115234,352.0078125,459.0986328,352.2119141,458.6699219z
		 M329.5786133,454.7333984c-3.4199219,4.0917969-2.2021484,9.8271484-2.9521484,9.8408203
		c-0.6142578,0.0107422-1.7636719-3.8339844-0.9838867-7.8730469c0.3173828-1.6435547,1.1611328-6.0166016,4.9204102-7.8720703
		c3.890625-1.9208984,8.8120117-0.1123047,8.8564453,0.984375
		C339.4692383,451.0556641,333.2207031,450.3759766,329.5786133,454.7333984z"/>
	<path d="M317.5742188,219.5825195c1.4755859,2.8427734,4.065918,6.9946289,8.5864258,11.2680664
		c5.8310547-1.0463867,10.3037109-2.7163086,13.3364258-4.074707c3.7841797-1.6943359,4.9414063-2.730957,5.6669922-3.5205078
		c2.3554688-2.5634766,5.2294922-8.043457,2.4941406-12.2963867c-1.668457-2.5952148-4.9941406-4.0620117-8.2280273-3.6875
		c-4.1977539,0.4858398-6.3100586,3.8510742-6.5654297,4.2734375c0.0678711-0.3999023,0.7216797-4.6748047-2.4423828-7.7939453
		c-2.4848633-2.449707-6.0405273-2.9208984-8.7158203-2.0678711c-4.9189453,1.5678711-6.5683594,7.5200195-6.3847656,11.3408203
		C315.3505859,213.6274414,315.4921875,215.5703125,317.5742188,219.5825195z M343.3554688,209.7041016
		c0.3793945-0.3144531,3.1147461,1.2797852,3.9360352,3.9360352c1.0522461,3.4013672-1.5043945,7.0234375-1.9677734,6.8881836
		c-0.3637695-0.105957,0.7407227-2.4726563,0-5.9042969C344.6601563,211.5522461,343.0249023,209.9775391,343.3554688,209.7041016z
		 M318.7539063,205.7675781c0.3505859-0.4609375,2.0712891-2.7270508,4.9204102-2.9521484
		c3.3251953-0.2626953,6.1269531,2.4165039,5.9042969,2.9521484c-0.1850586,0.4453125-2.0771484-0.6318359-4.9204102,0
		c-0.4658203,0.1035156-3.1162109,0.7329102-4.9199219,2.9521484c-2.1865234,2.6899414-1.6679688,5.9179688-1.9682617,5.9042969
		C317.394043,214.6069336,315.9013672,209.5239258,318.7539063,205.7675781z"/>
	<path d="M281.6738281,199.4003906c-4.4360352,3.3569336-4.6445313,8.6240234-4.6591797,9.2783203
		c-0.1826172-0.5039063-2.2158203-5.8408203-7.8208008-7.3066406c-4.4018555-1.1513672-8.7324219,0.6796875-11.2070313,3.4414063
		c-4.5507813,5.078125-2.5566406,13.0024414,0.1293945,17.2607422c0.4238281,0.6723633,1.8447266,2.8056641,6.8046875,6.0166016
		c3.5141602,2.2758789,9.1396484,5.3081055,17.0283203,7.1928711c5.921875-5.0883789,9.9013672-9.9858398,12.4536133-13.565918
		c3.184082-4.4663086,3.8217773-6.4262695,4.1303711-7.815918c1.0029297-4.5092773,0.7016602-12.7089844-5.1533203-15.7612305
		C289.8076172,196.2783203,285.0917969,196.8144531,281.6738281,199.4003906z M269.5512695,227.4169922
		c-0.4355469,0.5087891-5.6977539-1.8759766-8.8564453-6.8886719c-0.5771484-0.9160156-4.1254883-6.5463867-1.9682617-11.8085938
		c1.2773438-3.1147461,4.2475586-5.3535156,4.9204102-4.9204102c0.5053711,0.3251953-0.5102539,2.0087891-0.9838867,4.9204102
		c-0.777832,4.7797852,0.5839844,8.6914063,0.9838867,9.8408203
		C265.6782227,224.3959961,269.9609375,226.9379883,269.5512695,227.4169922z M297.1049805,210.6879883
		c-0.0585938,3.0683594-1.3300781,5.9848633-1.9682617,5.9042969c-0.8168945-0.1030273,0.5668945-4.9702148-1.9677734-9.840332
		c-2.2958984-4.4106445-6.3613281-6.0498047-5.9042969-6.8886719c0.3442383-0.6323242,2.9228516-0.1958008,4.9199219,0.9838867
		C295.7714844,202.9663086,297.1699219,207.300293,297.1049805,210.6879883z"/>
	<path d="M430.4501953,286.019043c10.3349609-0.1699219,18.53125-1.7895508,24.1591797-3.2749023
		c7.0214844-1.8540039,9.3291016-3.3100586,10.8193359-4.4628906c4.8369141-3.7431641,11.4677734-12.347168,8.0888672-20.4086914
		c-2.0615234-4.9194336-7.3164063-8.3637695-12.9853516-8.6225586c-7.3574219-0.3359375-12.0263672,4.8505859-12.5957031,5.5043945
		c0.2412109-0.6669922,2.6865234-7.8217773-1.7802734-14.0571289c-3.5078125-4.8969727-9.4667969-6.6972656-14.3232422-5.9790039
		c-8.9306641,1.3198242-13.6064453,11.0756836-14.4736328,17.6845703c-0.1367188,1.043457-0.4960938,4.4179688,1.8369141,11.8837891
		C420.8496094,269.5771484,424.0117188,277.4248047,430.4501953,286.019043z M462.4257813,253.0024414
		c0.4462891-0.5351563,5.7324219,1.4238281,7.8730469,5.9042969c3.1806641,6.6606445-2.4980469,14.9057617-2.9521484,14.7607422
		c-0.3642578-0.1162109,2.8378906-5.5463867,0.9833984-11.8085938
		C466.6640625,256.2285156,461.9804688,253.5375977,462.4257813,253.0024414z M421.0957031,251.0341797
		c2.3144531-8.7426758,11.5585938-13.8710938,12.7929688-12.7929688c1.4169922,1.237793-8.9482422,9.5834961-8.8564453,22.6333008
		c0.0654297,9.4326172,5.5605469,16.402832,4.9199219,16.7290039c-0.5498047,0.2797852-4.4414063-4.9350586-6.8886719-11.8085938
		C421.3525391,260.9863281,419.6943359,256.328125,421.0957031,251.0341797z"/>
</g>
</svg>
