<?xml version="1.0" encoding="utf-8"?>
<!-- Generator: Adobe Illustrator 22.0.1, SVG Export Plug-In . SVG Version: 6.00 Build 0)  -->
<svg version="1.1" id="Шар_1" xmlns="http://www.w3.org/2000/svg" xmlns:xlink="http://www.w3.org/1999/xlink" x="0px" y="0px"
	 viewBox="0 0 714 714" style="enable-background:new 0 0 714 714;" xml:space="preserve">
<style type="text/css">
	.st0{fill:#FFFFFF;}
	.st1{fill:#A22E39;}
	.st2{fill:#FCA7A7;}
	.st3{fill:#F9CEA7;}
	.st4{fill:#FFCFCF;}
</style>
<g>
	<path class="st0" d="M393.0791016,412.5664063c2.0449219-4.9472656,4.3193359-10.0537109,5.4199219-16.0253906
		c-4.8681641,0.8642578-10.1337891,4.0068359-11.5478516,7.6201172l6.1269531,8.4052734H393.0791016z"/>
	<path class="st0" d="M461.2871094,356.0615234l-2.0917969-2.7890625c-0.5234375-0.7080078-0.9589844-1.4248047-1.3486328-2.1416016
		c-0.9716797,0.3574219-1.9228516,0.6337891-2.8271484,0.8085938c-6.4511719,13.28125-20.8339844,20.0478516-33.9003906,19.4785156
		c0.2675781,0.3574219,0.5341797,0.7158203,0.7890625,1.0849609c10.2128906,13.9052734,18.1484375,21.3681641,14.2988281,42.5
		c7.0732422-10.6865234,17.9121094-39.8310547,16.0273438-49.3359375
		C451.0439453,359.8339844,455.5673828,356.4345703,461.2871094,356.0615234z"/>
	<path class="st0" d="M618.3349609,449.2578125c-0.2890625-1.5136719-0.3320313-1.0195313-8.8564453-17.7128906
		c-6.1435547-12.0302734-7.6992188-15.3769531-11.8085938-18.6972656c-4.90625-3.9648438-10.2988281-5.3457031-13.7773438-5.9042969
		c1.9189453-6.9355469,4.5908203-20.3398438,0.984375-36.4101563c-2.3417969-10.4375-6.5263672-18.4130859-9.8408203-23.6171875
		c1.1103516-3.046875,2.4326172-7.9121094,1.96875-13.7773438c-0.9824219-12.3989258-9.2919922-20.9287109-15.7451172-27.5532227
		c-3.1425781-3.2260742-7.9736328-7.6103516-14.7607422-11.8085938
		c-0.1972656-3.5473633-1.3457031-16.5117188-11.8085938-27.5537109
		c-9.0742188-9.5756836-19.8300781-12.0883789-23.6171875-12.7924805
		c-0.5986328-2.9794922-3.3583984-14.9365234-14.7607422-23.6176758
		c-11.8369141-9.0112305-24.6464844-8.1425781-27.5537109-7.8720703c-1.65625-3.8237305-8.5517578-18.5214844-25.5859375-26.5698242
		c-14.5722656-6.8852539-27.953125-4.8349609-32.4736328-3.9360352
		c-1.6796875-2.6855469-11.8515625-18.3735352-31.4892578-21.6489258c-11.2382813-1.875-20.3486328,1.1875-24.6015625,2.9521484
		c-2.5595703-2.4521484-12.4462891-11.3388672-27.5537109-11.809082
		c-9.7128906-0.3022461-17.1074219,3.0141602-20.6650391,4.9204102c-8.7275391-3.4599609-25.7685547-8.6958008-46.2509766-4.9204102
		c-7.3652344,1.3579102-13.6367188,3.5976563-18.6972656,5.9042969
		c-5.0097656-7.8759766-13.7080078-12.4487305-22.6328125-11.8085938
		c-10.6328125,0.7631836-16.7578125,8.5795898-17.7128906,9.8408203c-6.6855469-1.953125-22.6943359-5.5737305-40.3457031,0.9838867
		c-5.6835938,2.1113281-16.7988281,6.2412109-24.6015625,17.7128906
		c-7.1640625,10.5341797-7.3701172,21.1342773-7.3808594,23.1254883
		c-0.0546875,10.4228516,4.0029297,17.8730469,6.3964844,22.1411133
		c6.9765625,12.4414063,17.3320313,18.8725586,22.6328125,21.6494141c-0.6552734,1.3120117-1.3115234,2.6240234-1.9677734,3.9360352
		c-2.0224609-1.5742188-7.5605469-5.4331055-14.7607422-4.9204102c-8.7441406,0.6225586-14.078125,7.2749023-17.7128906,11.8085938
		c-2.3681641,2.9541016-9.6757813,12.9462891-8.8564453,26.5698242c0.4541016,7.5527344,3.2607422,12.6821289,8.8564453,22.6333008
		c3.6015625,6.40625,9.2226563,15.1689453,17.7128906,24.6010742c-1.4560547,4.769043-7.2353516,25.5883789,3.9365234,46.2504883
		c5.4677734,10.1142578,12.9121094,16.3330078,17.7128906,19.6816406
		c0.4306641,2.9882813,3.2011719,20.2207031,18.6972656,30.5058594c8.6298828,5.7265625,17.3046875,6.7099609,21.6494141,6.8876953
		c1.3886719,4.2744141,6.2011719,17.2148438,19.6806641,26.5693359
		c15.3378906,10.6445313,31.3388672,9.3193359,35.4257813,8.8564453
		c1.9501953,3.6533203,11.9619141,21.5097656,33.4580078,27.5537109c12.5507813,3.5292969,23.2949219,1.421875,28.5371094,0
		c2.8652344,3.4316406,10.546875,11.703125,23.6181641,15.7451172c13.7460938,4.2509766,25.2949219,1.3027344,29.5214844,0
		c2.0830078,2.5732422,16.3320313,19.5957031,39.3623047,19.6806641
		c12.7548828,0.0478516,22.2519531-5.1230469,26.5693359-7.8720703c5.7148438,3.1054688,17.5419922,8.5449219,33.4580078,8.8564453
		c16.3320313,0.3193359,28.6201172-4.9248047,34.4414063-7.8720703c4.0332031,0.5771484,31.3671875,4.0498047,50.1865234-14.7607422
		c6.3789063-6.3769531,9.8613281-13.3955078,11.8085938-18.6972656c3.2294922,1.2705078,8.5136719,2.7978516,14.7607422,1.9677734
		c13.5830078-1.8046875,21.3515625-13.375,25.5859375-19.6806641
		C613.25,473.1611328,620.7636719,461.9716797,618.3349609,449.2578125z M577.4970703,389.7216797
		c0.0244141,5.0292969-0.3720703,9.6474609-0.984375,13.7773438c-2.9521484,1.3115234-5.9042969,2.6240234-8.8564453,3.9365234
		c1.5537109-11.3496094,1.7753906-25.2558594-1.96875-40.3466797c-0.5917969-2.3886719-1.2539063-4.6845703-1.9677734-6.8886719
		c2.2958984-1.6396484,4.5927734-3.2802734,6.8886719-4.9199219
		C573.9335938,363.5087891,577.4248047,375.34375,577.4970703,389.7216797z M514.9121094,263.6025391
		c3.3505859,1.5629883,7.6533203,4.0209961,11.9707031,7.8730469c7.1181641,6.3496094,10.8027344,13.3842773,12.6337891,17.6918945
		c-1.9541016,1.2495117-3.9091797,2.4985352-5.8632813,3.7480469c-2.3681641-3.6689453-5.2919922-7.6938477-8.8847656-11.8291016
		c-4.9599609-5.7089844-9.9433594-10.1870117-14.3320313-13.6323242
		C511.9287109,266.1704102,513.4199219,264.8862305,514.9121094,263.6025391z M474.5146484,230.4560547
		c3.6044922,0.8261719,8.3261719,2.3286133,13.3554688,5.1904297c8.2910156,4.7177734,13.3662109,10.8242188,16.0595703,14.652832
		c-1.6494141,1.6308594-3.2988281,3.262207-4.9472656,4.8930664c-3.0839844-3.0913086-6.7871094-6.4150391-11.1660156-9.7055664
		c-6.0458984-4.5429688-11.8574219-7.8779297-16.8701172-10.3271484
		C472.1357422,233.5917969,473.3251953,232.0239258,474.5146484,230.4560547z M418.4208984,197.6235352
		c4.8945313,0.387207,11.4306641,1.4770508,18.5888672,4.4130859c13.3867188,5.4897461,21.5771484,14.4106445,25.5048828,19.3891602
		c-1.2392578,1.5634766-2.4785156,3.1274414-3.7177734,4.690918c-3.6650391-3.5527344-8.3183594-7.4658203-14.0732422-11.1538086
		c-10.5380859-6.7543945-20.6240234-10.0996094-27.9707031-11.8491211
		C417.3085938,201.2836914,417.8642578,199.4536133,418.4208984,197.6235352z M413.359375,248.402832
		c0.8671875-6.6088867,5.5429688-16.3647461,14.4736328-17.6845703C432.6894531,230,438.6484375,231.800293,442.15625,236.6972656
		c4.4667969,6.2353516,2.0214844,13.3901367,1.7802734,14.0571289c0.5693359-0.6538086,5.2382813-5.840332,12.5957031-5.5043945
		c5.6689453,0.2587891,10.9238281,3.703125,12.9853516,8.6225586c3.3789063,8.0615234-3.2519531,16.6655273-8.0888672,20.4086914
		c-1.4902344,1.152832-3.7978516,2.6088867-10.8193359,4.4628906c-5.6279297,1.4853516-13.8242188,3.1049805-24.1591797,3.2749023
		c-6.4384766-8.5942383-9.6005859-16.4418945-11.2539063-21.7324219
		C412.8632813,252.8208008,413.2226563,249.4462891,413.359375,248.402832z M363.5898438,176.8432617
		c5.0869141,0.0424805,12.9814453,0.7314453,21.8701172,4.1875c10.5302734,4.0947266,17.5830078,10.1787109,21.4042969,14.0170898
		c-0.5332031,1.5507813-1.0654297,3.1020508-1.5986328,4.6533203c-5.2060547-3.5527344-12.0712891-7.578125-20.5615234-11.0219727
		c-8.3779297-3.3979492-16.0087891-5.284668-22.1611328-6.3686523
		C362.8916016,180.4882813,363.2402344,178.6655273,363.5898438,176.8432617z M331.3232422,168.5532227
		c7.9550781,0.9672852,13.8828125,3.8383789,17.2050781,5.7646484c-0.5654297,2.2495117-1.1318359,4.4985352-1.6972656,6.7480469
		c-4.2207031-1.5625-9.6894531-3.1689453-16.1962891-4.0756836c-6.3613281-0.8862305-11.9462891-0.8569336-16.3691406-0.53125
		c-0.1650391-2.1943359-0.3300781-4.3886719-0.4960938-6.5830078
		C317.4248047,168.8598633,323.6582031,167.621582,331.3232422,168.5532227z M317.7070313,197.6831055
		c2.6748047-0.8530273,6.2304688-0.3818359,8.7148438,2.0678711c3.1640625,3.1191406,2.5107422,7.394043,2.4433594,7.7939453
		c0.2548828-0.4223633,2.3671875-3.7875977,6.5644531-4.2734375c3.234375-0.3745117,6.5595703,1.0922852,8.2285156,3.6875
		c2.7353516,4.2529297-0.1386719,9.7329102-2.4941406,12.2963867c-0.7255859,0.7895508-1.8828125,1.8261719-5.6669922,3.5205078
		c-3.0322266,1.3583984-7.5048828,3.0283203-13.3369141,4.074707c-4.5195313-4.2734375-7.1103516-8.425293-8.5859375-11.2680664
		c-2.0820313-4.012207-2.2236328-5.9550781-2.2519531-6.5585938
		C311.1386719,205.203125,312.7871094,199.2509766,317.7070313,197.6831055z M278.1152344,166.800293
		c9.2460938-0.5302734,16.8710938,1.1186523,21.9511719,2.6782227c-0.3447266,2.3398438-0.6894531,4.6801758-1.0332031,7.0205078
		c-4.8007813-0.684082-10.4326172-1.0922852-16.7089844-0.8037109c-13.3056641,0.6123047-24.0742188,4.1074219-31.4111328,7.2407227
		c-1.2783203-1.9355469-2.5576172-3.8706055-3.8349609-5.8061523
		C252.2714844,173.7348633,263.1640625,167.6572266,278.1152344,166.800293z M294.5332031,209.9018555
		c-0.3085938,1.3896484-0.9462891,3.3496094-4.1308594,7.815918c-2.5517578,3.5800781-6.53125,8.4775391-12.453125,13.565918
		c-7.8886719-1.8847656-13.5136719-4.9169922-17.0283203-7.1928711c-4.9599609-3.2109375-6.3808594-5.3442383-6.8046875-6.0166016
		c-2.6865234-4.2583008-4.6806641-12.1826172-0.1298828-17.2607422c2.4746094-2.7617188,6.8056641-4.5927734,11.2070313-3.4414063
		c5.6054688,1.4658203,7.6386719,6.8027344,7.8212891,7.3066406c0.0146484-0.6542969,0.2236328-5.9213867,4.6591797-9.2783203
		c3.4179688-2.5859375,8.1337891-3.1220703,11.7060547-1.2597656
		C295.234375,197.1928711,295.5361328,205.3925781,294.5332031,209.9018555z M163.375,389.3203125
		c-3.3066406-4.1601563-7.6269531-10.6552734-10.5097656-19.4560547
		c-4.6640625-14.2314453-2.984375-26.5917969-1.7207031-32.6665039c2.2695313,0.4829102,4.5371094,0.9663086,6.8066406,1.449707
		c-0.2382813,7.9746094,0.4414063,19.2763672,4.7314453,31.8857422c2.0234375,5.9482422,4.4599609,11.0419922,6.8505859,15.2617188
		C167.4804688,386.9697266,165.4277344,388.1455078,163.375,389.3203125z M200.0839844,427.6474609
		c-3.625-1.2695313-9.6621094-3.9013672-15.5722656-9.3125c-5.6953125-5.2138672-8.8115234-10.7529297-10.4179688-14.1894531
		c1.7734375-1.3017578,3.546875-2.6044922,5.3203125-3.9072266c2.6308594,3.5703125,6.2421875,7.8300781,11.0566406,12.0839844
		c4.921875,4.3496094,9.6992188,7.4570313,13.6328125,9.6445313
		C202.7636719,423.8603516,201.4238281,425.7539063,200.0839844,427.6474609z M251.4355469,463.4951172
		c-5.2832031-1.1914063-14.1875-3.9228516-23.2597656-10.6572266c-7.65625-5.6835938-12.4433594-12-15.1875-16.2832031
		c1.3574219-1.265625,2.7148438-2.53125,4.0712891-3.796875c4.1923828,4.6308594,9.8525391,10.0859375,17.1884766,15.3691406
		c7.4355469,5.3535156,14.4970703,9.0214844,20.2753906,11.5371094
		C253.4941406,460.9414063,252.4648438,462.2177734,251.4355469,463.4951172z M264.7207031,441.7275391
		c-6.7226563-4.7158203-8.5820313-7.7353516-9.1357422-8.6855469c-3.5048828-6.0175781-5.8496094-17.0351563,0.7509766-23.7421875
		c3.5898438-3.6474609,9.7089844-5.9023438,15.765625-4.0517578c7.7138672,2.3554688,10.2529297,9.8173828,10.4794922,10.5205078
		c0.0556641-0.8984375,0.6298828-8.1279297,6.9775391-12.4746094c4.8916016-3.3486328,11.4765625-3.7998047,16.3427734-1.0224609
		c7.9755859,4.5517578,7.9521484,15.8447266,6.3154297,21.984375c-0.5058594,1.8916016-1.4970703,4.5478516-6.1650391,10.4960938
		c-3.7412109,4.7685547-9.5380859,11.2607422-18.0458984,17.8984375
		C277.140625,449.5800781,269.484375,445.0693359,264.7207031,441.7275391z M313.3007813,494.2402344
		c-6.3271484-0.4267578-18.3164063-2.1425781-30.4111328-10.0830078
		c-6.4677734-4.2470703-11.0615234-9.0234375-14.1474609-12.8427734c1.1953125-1.4921875,2.3916016-2.9853516,3.5869141-4.4785156
		c5.5957031,5.0722656,14.0556641,11.5029297,25.5849609,16.3798828c6.2949219,2.6621094,12.1523438,4.2900391,17.1542969,5.3056641
		C314.4794922,490.4277344,313.8896484,492.3339844,313.3007813,494.2402344z M318.8037109,461.15625
		c-1.6083984-5.4091797-1.3212891-7.8300781-1.2138672-8.578125c0.6806641-4.7373047,4.1201172-11.671875,10.5380859-12.4667969
		c3.4902344-0.4326172,7.7490234,0.9648438,10.2216797,4.5458984c3.1494141,4.5615234,1.3320313,9.6640625,1.1542969,10.1396484
		c0.4130859-0.4599609,3.8085938-4.109375,9.0830078-3.7402344c4.0634766,0.2832031,7.8037109,2.8515625,9.2392578,6.4248047
		c2.3525391,5.8554688-2.4794922,11.9277344-5.9824219,14.5361328c-1.0791016,0.8037109-2.7470703,1.8105469-7.7998047,3.0224609
		c-4.0507813,0.9716797-9.9443359,1.9941406-17.359375,1.9384766
		C322.1425781,470.6875,319.9433594,464.9892578,318.8037109,461.15625z M366.9980469,508.7353516
		c-4.6230469,0.7285156-12.5410156,1.3300781-21.6962891-1.3447266c-5.5546875-1.6220703-9.9189453-3.96875-13.0185547-5.9833984
		c0.2988281-1.9453125,0.5976563-3.890625,0.8964844-5.8359375c5.2470703,1.8974609,11.6845703,3.7529297,19.1542969,4.9355469
		c5.4091797,0.8574219,10.3720703,1.2050781,14.7382813,1.2705078
		C367.0478516,504.0966797,367.0234375,506.4160156,366.9980469,508.7353516z M470.7509766,524.65625
		c-7.1191406,0.171875-13.4853516-0.3066406-18.9003906-1.03125c0.0917969-2.3173828,0.1845703-4.6347656,0.2763672-6.9521484
		c5.8232422,0.8701172,13.2666016,1.4326172,21.8378906,0.7294922c6.6748047-0.546875,12.4912109-1.7353516,17.2675781-3.0400391
		c0.2226563,2.6357422,0.4462891,5.2705078,0.6689453,7.9052734C486,523.46875,478.8662109,524.4609375,470.7509766,524.65625z
		 M538.1347656,514.6972656c-8.5966797,4.6943359-16.5742188,6.2880859-21.6494141,6.8876953
		c-0.328125-2.6240234-0.65625-5.2480469-0.984375-7.8720703c4.640625-0.8779297,11.4111328-2.7207031,18.6972656-6.8886719
		c6.2519531-3.5751953,10.7724609-7.65625,13.7763672-10.8242188c3.6083984,0,7.2167969,0,10.8251953,0
		C555.671875,500.5507813,549.1894531,508.6601563,538.1347656,514.6972656z M610.1972656,458.6054688
		c-5.8144531,11.0009766-20.6601563,31.8964844-34.1738281,31.8964844c-5.5-0.0019531-10.0605469-2.0458984-12.9648438-5.8144531
		c-9.8183594,7.5419922-23.4902344,8.9550781-31.8964844-2.5136719l-3.828125-5.1806641
		c-13.1298828,16.625-40.5693359,18.4589844-51.546875,2.6669922l-6.4511719-8.7832031
		c-2.6494141,7.0517578-5.4736328,13.8964844-8.4609375,20.3349609
		c-16.0273438,34.2519531-61.0429688,46.9785156-80.3681641,20.7382813l-8.0136719-10.9179688
		c-13.3564453-18.2265625-3.2197266-46.7441406,14.9267578-47.3730469c5.1835938-0.1591797,7.1474609,4.2392578,8.640625,8.2480469
		c0.9414063,2.4326172,2.2773438,4.4746094,7.8564453,4.3974609c0.8632813,0,1.6494141-0.1582031,2.4335938-0.3925781
		c-6.5185547-2.8310547-10.6826172-10.3710938-14.8466797-16.0273438c-5.8916016-8.0136719-6.3632813-14.3769531-2.75-25.9238281
		c-12.0175781,8.640625-31.9707031,7.4638672-41.8701172-5.9697266l-8.5615234-11.7060547
		c-1.5478516-2.0537109-2.78125-4.3632813-3.6748047-6.8730469c-3.0771484,0.9970703-6.2080078,1.5458984-9.1650391,1.5458984
		c-16.8115234,0-22.1542969-11.3134766-30.953125-23.1748047c-4.3222656-5.6572266-6.9121094-13.1210938-7.8574219-20.7382813
		c-14.6914063,24.1962891-36.765625,52.3212891-63.0820313,52.8691406
		c-12.8046875,0.3134766-25.0625-3.9267578-32.2109375-13.9833984
		c-4.2421875-5.9697266-10.4482422-13.1210938-12.8828125-19.5605469
		c-6.5214844-17.0478516,2.3544922-38.8857422,22.2314453-38.8857422c3.6923828,0,7.5419922,1.3339844,9.2705078,4.1621094
		l7.9355469,10.7607422c9.3457031-0.7070313,19.7167969-11.7060547,26.1582031-19.2480469
		c-5.4199219-7.6201172-12.5683594-14.5322266-8.40625-26.0039063c1.0234375-2.8261719,2.75-5.4208984,5.421875-6.9111328
		l-10.6835938-14.2988281c-3.640625-4.7695313-5.703125-10.3740234-6.1992188-16.0654297
		c-6.5136719,25.1748047-18.4560547,47.7333984-41.2402344,56.4736328c-17.046875,6.5195313-33.9375,3.9257813-45.0117188-11.15625
		c-4.3984375-6.0507813-10.6835938-13.3544922-12.8847656-20.2666016
		c-7.6992188-23.7265625,17.2050781-47.84375,26.6337891-35.1181641l8.1689453,11.15625
		c8.1708984-2.1210938,16.1835938-14.7695313,20.0322266-21.9208984
		c-13.0419922,1.3369141-22.3896484-4.3974609-29.6962891-14.2958984l-6.8359375-9.3466797
		c-9.1914063-12.0976563-9.5839844-28.125,1.2578125-39.671875c13.5898438-14.5341797,39.9082031-15.8701172,58.5253906-12.4130859
		c6.6777344-10.8417969,22.9404297-15.5576172,31.8974609-3.3789063l8.0117188,10.9189453
		c6.7568359,8.4833984,0.3134766,22.78125-10.6845703,25.9238281c-0.7421875,13.4501953-1.8105469,29.605957-4.5205078,45.7294922
		c7.3408203-13.171875,25.3916016-21.574707,54.1601563-11.8974609c5.8144531,1.9648438,11.7060547,4.5556641,17.1279297,7.6992188
		c8.8769531-9.6640625,26.3164063-15.2412109,36.6875-6.9111328c3.6132813,2.9833984,8.953125,11.0771484,11.7060547,15.0039063
		c7.6992188,10.4482422,2.8261719,25.2167969-9.9765625,30.2451172c3.2177734,4.3085938,4.8056641,8.1279297,5.2392578,12.7954102
		c6.3613281-3.3154297,13.6650391-5.0087891,20.8339844-4.1577148c3.4589844-10.3691406,8.0917969-25.1367188,6.0507813-34.5654297
		c-2.5917969-11.3916016,16.6552734-13.9042969,24.5097656-3.2207031
		c11.7480469,16.003418,15.4902344,18.2666016,11.9003906,42.5029297c2.6972656-1.1425781,5.5224609-1.8046875,8.3681641-1.8046875
		c5.6552734-3.3007813,12.0947266-4.5566406,18.4599609-2.1201172c7.2851563,2.9013672,13.2333984,12.2011719,17.8457031,18.7836914
		c0.5009766-0.7211914,1.0058594-1.4550781,1.4902344-2.2094727c-2.5908203-3.6923828-5.0273438-5.8144531-4.7910156-12.0205078
		c0.3125-11.0771484,16.4160156-22.390625,25.6875-9.7412109l3.9257813,5.3427734
		c8.9570313-1.7285156,14.9277344-1.3359375,19.1699219,4.5576172c0.734375,0.9887695,2.0712891,2.7231445,3.5185547,4.6513672
		c6.390625-6.4125977,15.3955078-10.6503906,26.5097656-10.3896484
		c10.4462891,0.2363281,16.9677734,3.4589844,22.7021484,11.2363281l6.7578125,9.2695313
		c2.3554688,1.9648438,0.9414063-0.2353516,4.2402344,4.3212891l7.4628906,10.0537109
		c2.2773438,2.7490234,2.1210938,6.4433594,0.4726563,9.5039063c-8.3261719,15.5556641-22.0742188,32.2099609-41.4023438,31.9746094
		c-11.46875-0.0791016-18.3037109-4.0058594-24.6669922-12.5693359l-0.0751953-0.1054688
		c-5.9189453,6.5263672-12.75,11.8447266-19.2939453,12.5205078l2.5732422,3.5175781
		c7.7763672,10.5273438,3.3779297,28.5195313,0.5488281,41.0126953c-0.1669922,0.75-0.3466797,1.5126953-0.5195313,2.2685547
		c1.7919922-0.5019531,3.6210938-0.7783203,5.4580078-0.7783203c5.6552734-3.3007813,12.0957031-4.5566406,18.4599609-2.1201172
		c6.4951172,2.5869141,11.9238281,10.2558594,16.2939453,16.5546875c2.0166016-4.8701172,4.4160156-9.2099609,7.0283203-12.0009766
		c7.4648438-8.0117188,23.6464844-6.9111328,29.3828125,2.2011719c8.0136719-11.078125,24.9824219-8.4072266,29.7734375-1.8847656
		l8.5625,11.7060547c1.3359375,1.8076172,2.1210938,3.7724609,1.4960938,6.2050781l8.1679688,11.1542969
		C612.0039063,451.7714844,611.8457031,455.4619141,610.1972656,458.6054688z"/>
	<path class="st1" d="M306.0517578,434.7519531c4.6679688-5.9482422,5.6591797-8.6044922,6.1650391-10.4960938
		c1.6367188-6.1396484,1.6601563-17.4326172-6.3154297-21.984375c-4.8662109-2.7773438-11.4511719-2.3261719-16.3427734,1.0224609
		c-6.3476563,4.3466797-6.921875,11.5761719-6.9775391,12.4746094c-0.2265625-0.703125-2.765625-8.1650391-10.4794922-10.5205078
		c-6.0566406-1.8505859-12.1757813,0.4042969-15.765625,4.0517578c-6.6005859,6.7070313-4.2558594,17.7246094-0.7509766,23.7421875
		c0.5537109,0.9501953,2.4130859,3.9697266,9.1357422,8.6855469c4.7636719,3.3417969,12.4199219,7.8525391,23.2851563,10.9228516
		C296.5136719,446.0126953,302.3105469,439.5205078,306.0517578,434.7519531z M300.9775391,404.4824219
		c5.9248047,1.1171875,8.3710938,9.5,7.8720703,9.8408203c-0.3671875,0.2509766-2.1367188-3.9736328-6.8886719-5.9042969
		c-4.6152344-1.875-8.6582031-0.2099609-8.8554688-0.9833984
		C292.9003906,406.6337891,296.9423828,403.7226563,300.9775391,404.4824219z M267.5195313,435.9726563
		c-0.8925781,0.8154297-7.3105469-2.5810547-9.8398438-8.8564453c-1.7792969-4.4121094-1.8662109-10.8183594,1.9667969-14.7607422
		c2.7490234-2.8271484,7.1103516-3.9726563,7.8730469-2.9521484c0.9667969,1.2939453-4.9306641,4.6269531-5.9042969,10.8242188
		C260.3330078,428.390625,268.6230469,434.9648438,267.5195313,435.9726563z"/>
	<path class="st1" d="M357.9033203,322.6328125c1.0224609-3.8496094,2.2783203-7.8535156,3.6904297-12.0195313
		C349.3398438,317.1337891,343.4482422,346.359375,357.9033203,322.6328125z"/>
	<path class="st1" d="M413.1484375,331.9033203c2.1191406-0.078125,4.0839844-1.5712891,5.65625-3.7695313
		c-3.0625-2.5126953-5.5761719-5.4208984-7.5410156-8.7988281
		C408.984375,324.0458984,406.6269531,332.2167969,413.1484375,331.9033203z"/>
	<path class="st1" d="M524.3691406,311.0839844c-2.9082031,1.7304688-5.0292969,4.6367188-5.96875,7.6992188
		C531.125,317.9179688,533.4033203,305.6640625,524.3691406,311.0839844z"/>
	<path class="st2" d="M339.3076172,360.265625c-0.3125-1.1005859-0.9423828-1.8847656-2.2001953-1.7294922
		c-3.4570313,0.2363281-6.2871094-0.9423828-8.8769531-2.2001953c-7.5410156-3.6923828-9.9765625-10.9199219-9.9765625-19.0126953
		c-0.078125-19.7197266,15.5546875-43.9160156,6.2841797-58.2138672c-2.1982422-3.3007813-5.8134766-5.4980469-11.4697266-5.4980469
		c-2.2773438,0.0761719-5.734375,1.0195313-4.9501953,4.0849609c2.0419922,9.6640625-3.7724609,22.4677734-9.5048828,36.3720703
		c-3.6933594,0-7.6230469,0-11.4726563,0.0771484c8.484375-17.046875,15.1630859-33.3105469,19.8769531-44.3876953
		c19.0898438,5.734375,28.9892578-5.4980469,28.6738281-14.9267578c-0.7070313-18.4599609-27.0244141-15.3193359-37.0019531-0.3125
		c-5.578125-3.6142578-12.4902344-6.9921875-19.7958984-9.4287109
		c-55.8525391-18.7695313-64.7285156,34.8876953-34.9560547,46.5136719
		c9.8203125,3.8496094,21.5253906,1.9648438,28.5175781-8.2480469c0,0,1.1005859-2.5136719-1.0976563-2.8300781
		c-10.9208984-1.8076172-9.8203125-20.1123047,6.3613281-18.9316406c3.7714844,0.3125,8.328125,1.4130859,13.9042969,3.5371094
		c-6.3632813,11.2353516-16.734375,30.2451172-28.5957031,48.15625c-8.0917969-1.0224609-14.296875-3.1435547-16.7333984-7.4628906
		c-1.0205078-1.7304688-2.8271484-2.515625-4.6337891-1.3359375c-1.4931641,0.9414063-2.5136719,2.5136719-3.2207031,4.3193359
		c-2.6708984,7.3867188,1.2558594,16.4990234,9.6640625,19.4833984c1.0195313,0.3134766,2.2773438,0.6289063,3.6923828,0.7851563
		c-9.5068359,12.3330078-19.4072266,22.3896484-28.6728516,26.4755859
		c-8.09375,3.5361328-17.1269531,1.2558594-18.6992188-5.3427734c-0.2363281-1.2568359-0.2363281-2.5927734,0-4.0859375
		c0.7050781-2.671875-1.7285156-3.8496094-5.2626953-3.8496094c-27.1826172,0-29.3837891,51.4560547,13.5136719,50.5146484
		c26.5517578-0.6289063,50.1982422-32.9169922,68.03125-66.0683594c4.7138672-0.7841797,9.4287109-1.5703125,13.9052734-2.2011719
		c-2.9853516,8.1708984-5.2636719,16.5771484-5.3417969,24.8271484c-0.1572266,18.4599609,8.484375,34.4873047,25.375,34.4873047
		C328.703125,383.7529297,342.2958984,371.4980469,339.3076172,360.265625z"/>
	<path class="st2" d="M323.2607422,334.890625c-0.7080078,10.3710938,3.2978516,19.2480469,13.9853516,19.2480469
		c4.9492188,0.078125,12.1777344-4.7910156,18.0683594-14.6914063c0,3.9267578,0.7070313,7.6992188,2.5136719,10.4482422
		c5.1855469,7.6992188,15.0048828,3.9267578,20.8193359-0.9433594c3.7431641-3.1396484,7.34375-7.2041016,10.7011719-11.7070313
		c5.0449219,24.6494141,42.5302734,21.3212891,51.5302734-2.1191406
		c6.9111328-0.6289063,11.7070313-3.9267578,15.7109375-10.6826172c0.09375-0.1801758,0.1572266-0.355957,0.2236328-0.5317383
		c2.6328125-4.440918,5.0517578-8.921875,7.0439453-13.0571289c0.1591797-0.1572266,0.3164063-0.5488281,0.4716797-0.8652344
		c0.8642578-0.2353516,1.6494141-0.5478516,2.4365234-0.9423828c-5.421875,9.9785156-17.6757813,45.0947266,3.5371094,45.0947266
		c7.1826172,0,15.1416016-7.8916016,22.0195313-17.2480469c2.0078125,9.5410156,9.4433594,17.2041016,23.2480469,17.3203125
		c17.3632813,0.1572266,29.0664063-14.9267578,37.2363281-29.4609375c2.5917969-4.9462891-3.2207031-7.3027344-5.9726563-3.2978516
		c-8.8769531,13.1982422-29.0664063,11.7851563-28.125,4.6337891c37.0019531-4.2421875,27.5761719-25.8466797,5.5800781-26.3183594
		c-17.15625-0.4013672-28.2695313,11.2563477-31.5292969,23.8847656c-3.3164063,4.6743164-6.4697266,8.4521484-7.6894531,8.2480469
		c-1.0205078-0.3125-0.8652344-2.8271484-0.7851563-3.6923828c0.4726563-5.1835938,2.359375-13.8261719,4.3222656-18.6171875
		c1.0214844-2.5136719,2.4355469-4.3984375,1.9648438-6.0507813c-2.2011719-6.5214844-17.5996094-2.2001953-23.4902344-0.3925781
		c1.3359375-4.5566406,1.7285156-9.2714844-1.1777344-11.6279297c-5.2636719-4.4775391-15.2412109,1.9667969-15.3984375,9.1943359
		c-0.1582031,5.4990234,2.90625,8.5634766,6.9921875,9.5058594c-1.4941406,2.5917969-4.2421875,7.0703125-7.1503906,11.2353516
		c-0.1464844,0.2041016-0.2519531,0.4042969-0.3554688,0.6035156c-1.8847656,2.5268555-4.1416016,4.2089844-7.2285156,4.5009766
		c0-0.7060547,0.078125-1.4931641,0.078125-2.2011719c0-15.7109375-12.4921875-32.2871094-28.8320313-21.3662109
		c-9.9765625-1.1005859-19.5605469,9.1923828-22.78125,16.5751953c-0.5712891,1.3535156-1.0371094,2.7412109-1.4052734,4.1455078
		c-3.2783203,4.6113281-6.4150391,8.4033203-7.6455078,8.2675781c-1.7285156-0.3125,0.2363281-7.6220703,0.6289063-9.1923828
		c2.5136719-7.4628906,8.484375-33.2333984,8.9550781-49.0214844c0.3164063-9.6640625-2.984375-18.3837891-14.2177734-18.3046875
		c-2.3564453,0-5.7333984,1.0205078-5.0263672,4.0849609c2.4326172,10.9990234-2.4365234,26.2402344-7.5419922,41.1669922
		C348.2421875,296.0029297,325.0683594,309.5166016,323.2607422,334.890625z M524.3691406,311.0839844
		c9.0341797-5.4199219,6.7558594,6.8339844-5.96875,7.6992188
		C519.3398438,315.7207031,521.4609375,312.8144531,524.3691406,311.0839844z M411.2636719,319.3349609
		c1.9648438,3.3779297,4.4785156,6.2861328,7.5410156,8.7988281c-1.5722656,2.1982422-3.5371094,3.6914063-5.65625,3.7695313
		C406.6269531,332.2167969,408.984375,324.0458984,411.2636719,319.3349609z M361.59375,310.6132813
		c-1.4121094,4.1660156-2.6679688,8.1699219-3.6904297,12.0195313
		C343.4482422,346.359375,349.3398438,317.1337891,361.59375,310.6132813z"/>
	<path class="st1" d="M488.8261719,438.4150391c-2.2792969,4.7109375-4.6367188,12.8818359,1.8847656,12.5683594
		c2.1191406-0.078125,4.0839844-1.5712891,5.65625-3.7695313
		C493.3046875,444.7011719,490.7910156,441.7929688,488.8261719,438.4150391z"/>
	<path class="st1" d="M601.5566406,437.9443359c0.625-2.4326172-0.1601563-4.3974609-1.4960938-6.2050781l-8.5625-11.7060547
		c-4.7910156-6.5224609-21.7597656-9.1933594-29.7734375,1.8847656
		c-5.7363281-9.1123047-21.9179688-10.2128906-29.3828125-2.2011719c-2.6123047,2.7910156-5.0117188,7.1308594-7.0283203,12.0009766
		c-4.3701172-6.2988281-9.7988281-13.9677734-16.2939453-16.5546875
		c-6.3642578-2.4365234-12.8046875-1.1806641-18.4599609,2.1201172c-1.8369141,0-3.6660156,0.2763672-5.4580078,0.7783203
		c0.1728516-0.7558594,0.3525391-1.5185547,0.5195313-2.2685547c2.8291016-12.4931641,7.2275391-30.4853516-0.5488281-41.0126953
		l-2.5732422-3.5175781c6.5439453-0.6757813,13.375-5.9941406,19.2939453-12.5205078l0.0751953,0.1054688
		c6.3632813,8.5634766,13.1982422,12.4902344,24.6669922,12.5693359
		c19.328125,0.2353516,33.0761719-16.4189453,41.4023438-31.9746094c1.6484375-3.0605469,1.8046875-6.7548828-0.4726563-9.5039063
		l-7.4628906-10.0537109c-3.2988281-4.5566406-1.8847656-2.3564453-4.2402344-4.3212891l-6.7578125-9.2695313
		c-5.734375-7.7773438-12.2558594-11-22.7021484-11.2363281c-11.1142578-0.2607422-20.1191406,3.9770508-26.5097656,10.3896484
		c-1.4472656-1.9282227-2.7841797-3.6625977-3.5185547-4.6513672c-4.2421875-5.8935547-10.2128906-6.2861328-19.1699219-4.5576172
		l-3.9257813-5.3427734c-9.2714844-12.6494141-25.375-1.3359375-25.6875,9.7412109
		c-0.2363281,6.2060547,2.2001953,8.328125,4.7910156,12.0205078c-0.484375,0.7543945-0.9892578,1.4882813-1.4902344,2.2094727
		c-4.6123047-6.5825195-10.5605469-15.8823242-17.8457031-18.7836914
		c-6.3652344-2.4365234-12.8046875-1.1806641-18.4599609,2.1201172c-2.8457031,0-5.6708984,0.6621094-8.3681641,1.8046875
		c3.5898438-24.2363281-0.1523438-26.4995117-11.9003906-42.5029297
		c-7.8544922-10.6835938-27.1015625-8.1708984-24.5097656,3.2207031c2.0410156,9.4287109-2.5917969,24.1962891-6.0507813,34.5654297
		c-7.1689453-0.8510742-14.4726563,0.8422852-20.8339844,4.1577148c-0.4335938-4.6674805-2.0214844-8.4868164-5.2392578-12.7954102
		c12.8027344-5.0283203,17.6757813-19.796875,9.9765625-30.2451172
		c-2.7529297-3.9267578-8.0927734-12.0205078-11.7060547-15.0039063c-10.3710938-8.3300781-27.8105469-2.7529297-36.6875,6.9111328
		c-5.421875-3.1435547-11.3134766-5.734375-17.1279297-7.6992188c-28.7685547-9.6772461-46.8193359-1.2744141-54.1601563,11.8974609
		c2.7099609-16.1235352,3.7783203-32.2792969,4.5205078-45.7294922
		c10.9980469-3.1425781,17.4414063-17.4404297,10.6845703-25.9238281l-8.0117188-10.9189453
		c-8.9570313-12.1787109-25.2197266-7.4628906-31.8974609,3.3789063
		c-18.6171875-3.4570313-44.9355469-2.1210938-58.5253906,12.4130859
		c-10.8417969,11.546875-10.4492188,27.5742188-1.2578125,39.671875l6.8359375,9.3466797
		c7.3066406,9.8984375,16.6542969,15.6328125,29.6962891,14.2958984
		c-3.8486328,7.1513672-11.8613281,19.7998047-20.0322266,21.9208984l-8.1689453-11.15625
		c-9.4287109-12.7255859-34.3330078,11.3916016-26.6337891,35.1181641
		c2.2011719,6.9121094,8.4863281,14.2158203,12.8847656,20.2666016
		c11.0742188,15.0820313,27.9648438,17.6757813,45.0117188,11.15625
		c22.7841797-8.7402344,34.7265625-31.2988281,41.2402344-56.4736328
		c0.4960938,5.6914063,2.5585938,11.2958984,6.1992188,16.0654297l10.6835938,14.2988281
		c-2.671875,1.4902344-4.3984375,4.0849609-5.421875,6.9111328c-4.1621094,11.4716797,2.9863281,18.3837891,8.40625,26.0039063
		c-6.4414063,7.5419922-16.8125,18.5410156-26.1582031,19.2480469l-7.9355469-10.7607422
		c-1.7285156-2.828125-5.578125-4.1621094-9.2705078-4.1621094c-19.8769531,0-28.7529297,21.8378906-22.2314453,38.8857422
		c2.4345703,6.4394531,8.640625,13.5908203,12.8828125,19.5605469c7.1484375,10.0566406,19.40625,14.296875,32.2109375,13.9833984
		c26.3164063-0.5478516,48.390625-28.6728516,63.0820313-52.8691406c0.9453125,7.6171875,3.5351563,15.0810547,7.8574219,20.7382813
		c8.7988281,11.8613281,14.1416016,23.1748047,30.953125,23.1748047c2.9570313,0,6.0878906-0.5488281,9.1650391-1.5458984
		c0.8935547,2.5097656,2.1269531,4.8193359,3.6748047,6.8730469l8.5615234,11.7060547
		c9.8994141,13.4335938,29.8525391,14.6103516,41.8701172,5.9697266c-3.6132813,11.546875-3.1416016,17.9101563,2.75,25.9238281
		c4.1640625,5.65625,8.328125,13.1962891,14.8466797,16.0273438c-0.7841797,0.234375-1.5703125,0.3925781-2.4335938,0.3925781
		c-5.5791016,0.0771484-6.9150391-1.9648438-7.8564453-4.3974609c-1.4931641-4.0087891-3.4570313-8.4072266-8.640625-8.2480469
		c-18.1464844,0.6289063-28.2832031,29.1464844-14.9267578,47.3730469l8.0136719,10.9179688
		c19.3251953,26.2402344,64.3408203,13.5136719,80.3681641-20.7382813
		c2.9873047-6.4384766,5.8115234-13.2832031,8.4609375-20.3349609l6.4511719,8.7832031
		c10.9775391,15.7919922,38.4169922,13.9580078,51.546875-2.6669922l3.828125,5.1806641
		c8.40625,11.46875,22.078125,10.0556641,31.8964844,2.5136719c2.9042969,3.7685547,7.4648438,5.8125,12.9648438,5.8144531
		c13.5136719,0,28.359375-20.8955078,34.1738281-31.8964844c1.6484375-3.1435547,1.8066406-6.8339844-0.4726563-9.5068359
		L601.5566406,437.9443359z M364.9755859,300.7167969c5.1054688-14.9267578,9.9746094-30.1679688,7.5419922-41.1669922
		c-0.7070313-3.0644531,2.6699219-4.0849609,5.0263672-4.0849609c11.2333984-0.0791016,14.5341797,8.640625,14.2177734,18.3046875
		c-0.4707031,15.7880859-6.4414063,41.5585938-8.9550781,49.0214844c-0.3925781,1.5703125-2.3574219,8.8798828-0.6289063,9.1923828
		c1.2304688,0.1357422,4.3671875-3.65625,7.6455078-8.2675781c0.3681641-1.4042969,0.8339844-2.7919922,1.4052734-4.1455078
		c3.2207031-7.3828125,12.8046875-17.6757813,22.78125-16.5751953
		c16.3398438-10.9208984,28.8320313,5.6552734,28.8320313,21.3662109c0,0.7080078-0.078125,1.4951172-0.078125,2.2011719
		c3.0869141-0.2919922,5.34375-1.9741211,7.2285156-4.5009766c0.1035156-0.1992188,0.2089844-0.3994141,0.3554688-0.6035156
		c2.9082031-4.1650391,5.65625-8.6435547,7.1503906-11.2353516c-4.0859375-0.9423828-7.1503906-4.0068359-6.9921875-9.5058594
		c0.1572266-7.2275391,10.1347656-13.671875,15.3984375-9.1943359c2.90625,2.3564453,2.5136719,7.0712891,1.1777344,11.6279297
		c5.890625-1.8076172,21.2890625-6.1289063,23.4902344,0.3925781c0.4707031,1.6523438-0.9433594,3.5371094-1.9648438,6.0507813
		c-1.9628906,4.7910156-3.8496094,13.4335938-4.3222656,18.6171875c-0.0800781,0.8652344-0.2353516,3.3798828,0.7851563,3.6923828
		c1.2197266,0.2041016,4.3730469-3.5737305,7.6894531-8.2480469c3.2597656-12.628418,14.3730469-24.2861328,31.5292969-23.8847656
		c21.9960938,0.4716797,31.421875,22.0761719-5.5800781,26.3183594c-0.9414063,7.1513672,19.2480469,8.5644531,28.125-4.6337891
		c2.7519531-4.0048828,8.5644531-1.6484375,5.9726563,3.2978516c-8.1699219,14.5341797-19.8730469,29.6181641-37.2363281,29.4609375
		c-13.8046875-0.1162109-21.2402344-7.7792969-23.2480469-17.3203125
		c-6.8779297,9.3564453-14.8369141,17.2480469-22.0195313,17.2480469c-21.2128906,0-8.9589844-35.1162109-3.5371094-45.0947266
		c-0.7871094,0.3945313-1.5722656,0.7070313-2.4365234,0.9423828c-0.1552734,0.3164063-0.3125,0.7080078-0.4716797,0.8652344
		c-1.9921875,4.1352539-4.4111328,8.6162109-7.0439453,13.0571289c-0.0664063,0.1757813-0.1298828,0.3515625-0.2236328,0.5317383
		c-4.0039063,6.7558594-8.7998047,10.0537109-15.7109375,10.6826172c-9,23.4404297-46.4853516,26.7685547-51.5302734,2.1191406
		c-3.3574219,4.5029297-6.9580078,8.5673828-10.7011719,11.7070313c-5.8144531,4.8701172-15.6337891,8.6425781-20.8193359,0.9433594
		c-1.8066406-2.7490234-2.5136719-6.5214844-2.5136719-10.4482422c-5.890625,9.9003906-13.1191406,14.7695313-18.0683594,14.6914063
		c-10.6875,0-14.6933594-8.8769531-13.9853516-19.2480469C325.0683594,309.5166016,348.2421875,296.0029297,364.9755859,300.7167969
		z M452.234375,365.6669922c1.8847656,9.5048828-8.9541016,38.6494141-16.0273438,49.3359375
		c3.8496094-21.1318359-4.0859375-28.5947266-14.2988281-42.5c-0.2548828-0.3691406-0.5214844-0.7275391-0.7890625-1.0849609
		c13.0664063,0.5693359,27.4492188-6.1972656,33.9003906-19.4785156c0.9042969-0.1748047,1.8554688-0.4511719,2.8271484-0.8085938
		c0.3896484,0.7167969,0.8251953,1.4335938,1.3486328,2.1416016l2.0917969,2.7890625
		C455.5673828,356.4345703,451.0439453,359.8339844,452.234375,365.6669922z M218.8740234,190.2871094
		c-1.9619141,38.2607422-5.8115234,103.6201172-46.5849609,119.2548828
		c-37.0019531,14.1386719-57.8984375-25.4560547-32.9960938-45.9580078
		c5.2636719-4.0058594,9.5058594-3.3798828,9.3486328,2.2001953c-0.2392578,12.1777344,12.7255859,12.9619141,20.9736328,5.1845703
		c20.1123047-19.0097656,28.6728516-53.6542969,33.3105469-79.8945313
		c-5.9707031-0.0800781-10.6845703,0.3935547-14.2988281,1.4130859
		c-15.6308594,4.3212891-10.5253906,21.9189453,0.3164063,19.8769531c2.2011719-0.3945313,2.0419922,2.3554688,2.0419922,2.3554688
		c-3.1425781,12.0195313-13.5908203,17.6757813-24.0390625,17.3632813
		c-31.9736328-0.9423828-41.7148438-54.4423828,17.2041016-55.5419922c7.6992188-0.15625,15.3222656,0.6289063,21.7617188,2.2001953
		c4.5566406-11.2353516,16.6542969-13.5136719,22.78125-9.0351563
		C236.5478516,175.4404297,229.8710938,190.2900391,218.8740234,190.2871094z M314.6445313,383.8330078
		c-16.890625,0-25.5322266-16.0273438-25.375-34.4873047c0.078125-8.25,2.3564453-16.65625,5.3417969-24.8271484
		c-4.4765625,0.6308594-9.1914063,1.4169922-13.9052734,2.2011719
		c-17.8330078,33.1513672-41.4794922,65.4394531-68.03125,66.0683594
		c-42.8974609,0.9414063-40.6962891-50.5146484-13.5136719-50.5146484c3.5341797,0,5.9677734,1.1777344,5.2626953,3.8496094
		c-0.2363281,1.4931641-0.2363281,2.8291016,0,4.0859375c1.5722656,6.5986328,10.6054688,8.8789063,18.6992188,5.3427734
		c9.265625-4.0859375,19.1660156-14.1425781,28.6728516-26.4755859c-1.4150391-0.15625-2.6728516-0.4716797-3.6923828-0.7851563
		c-8.4082031-2.984375-12.3349609-12.0966797-9.6640625-19.4833984c0.7070313-1.8056641,1.7275391-3.3779297,3.2207031-4.3193359
		c1.8066406-1.1796875,3.6132813-0.3945313,4.6337891,1.3359375c2.4365234,4.3193359,8.6416016,6.4404297,16.7333984,7.4628906
		c11.8613281-17.9111328,22.2324219-36.9208984,28.5957031-48.15625
		c-5.5761719-2.1240234-10.1328125-3.2246094-13.9042969-3.5371094
		c-16.1816406-1.1806641-17.2822266,17.1240234-6.3613281,18.9316406c2.1982422,0.3164063,1.0976563,2.8300781,1.0976563,2.8300781
		c-6.9921875,10.2128906-18.6972656,12.0976563-28.5175781,8.2480469
		c-29.7724609-11.6259766-20.8964844-65.2832031,34.9560547-46.5136719
		c7.3056641,2.4365234,14.2177734,5.8144531,19.7958984,9.4287109c9.9775391-15.0068359,36.2949219-18.1474609,37.0019531,0.3125
		c0.3154297,9.4287109-9.5839844,20.6611328-28.6738281,14.9267578
		c-4.7138672,11.0771484-11.3925781,27.3408203-19.8769531,44.3876953
		c3.8496094-0.0771484,7.7792969-0.0771484,11.4726563-0.0771484c5.7324219-13.9042969,11.546875-26.7080078,9.5048828-36.3720703
		c-0.7841797-3.0654297,2.6728516-4.0087891,4.9501953-4.0849609c5.65625,0,9.2714844,2.1972656,11.4697266,5.4980469
		c9.2705078,14.2978516-6.3623047,38.4941406-6.2841797,58.2138672c0,8.0927734,2.4355469,15.3203125,9.9765625,19.0126953
		c2.5898438,1.2578125,5.4199219,2.4365234,8.8769531,2.2001953c1.2578125-0.1552734,1.8876953,0.6289063,2.2001953,1.7294922
		C342.2958984,371.4980469,328.703125,383.7529297,314.6445313,383.8330078z M386.9511719,404.1611328
		c1.4140625-3.6132813,6.6796875-6.7558594,11.5478516-7.6201172c-1.1005859,5.9716797-3.375,11.078125-5.4199219,16.0253906
		h-0.0009766L386.9511719,404.1611328z M447.5380859,476.7490234
		c-18.9326172,40.6914063-74.4736328,42.1865234-76.2802734,6.4394531
		c-0.6289063-12.2539063,6.5214844-24.4316406,16.4179688-24.7441406c0.3925781-0.0791016,0.7841797,0,1.1777344,0.1572266
		c0.5498047,0.1552734,0.9423828,0.6279297,1.1777344,1.4130859c1.6494141,7.3085938,7.4638672,11.0771484,14.0625,11
		c10.2929688-0.1572266,18.6962891-11.0771484,25.1396484-23.4912109
		c-7.0712891,2.8300781-14.5341797,4.0068359-22.3896484,3.3789063
		c-26.9443359-2.1210938-11.0761719-31.8154297-6.9902344-42.2646484
		c16.8115234-41.8740234-25.2167969-31.3447266-27.0244141-16.1035156
		c-0.4716797,4.2392578,1.4912109,8.2470703,6.2060547,9.3476563c1.9648438,0.4697266,0.7851563,2.8261719,0.7851563,2.8261719
		c-4.2382813,5.2666016-11.8613281,7.9355469-19.4003906,7.6210938
		c-14.6914063-0.6259766-22.7070313-11.1542969-22.5498047-22.5449219
		c0.5517578-35.7460938,82.8037109-44.8583984,85.6318359,1.6494141
		c0.7861328,12.6474609-10.0546875,36.2939453,0.8652344,37.1582031
		c10.2128906,0.7871094,17.7519531-12.5673828,22.3896484-23.1748047
		c4.6337891-10.8378906,12.0185547-31.0273438,10.2128906-40.6914063c-0.7099609-3.1445313,2.7460938-4.0058594,5.1044922-3.9287109
		c10.3710938,0.2363281,13.5917969,7.4638672,13.5878906,16.6513672
		C475.7392578,395.9892578,460.8164063,448.2314453,447.5380859,476.7490234z M596.6796875,443.8398438
		c-7.9335938,13.3544922-19.7167969,29.4589844-30.0078125,29.4589844c-6.2851563,0-10.2910156-3.2197266-11.5488281-9.2695313
		c-9.7460938,13.2773438-33.15625,13.5136719-31.4248047-8.1708984c0.0722656-0.9570313,0.1806641-1.9345703,0.3134766-2.9238281
		c-1.6982422,0.6650391-3.5410156,1.0869141-5.5703125,1.2714844c-9.7412109,25.375-52.8691406,27.1835938-52.0839844-4.5556641
		c0.15625-3.6933594,0.9414063-7.4628906,2.4335938-11c3.2207031-7.3828125,12.8046875-17.6757813,22.78125-16.5751953
		c16.3398438-10.9208984,28.8320313,5.6552734,28.8320313,21.3662109c0,0.7080078-0.078125,1.4951172-0.078125,2.2011719
		c2.3867188-0.2255859,4.2763672-1.2851563,5.8847656-2.9179688c2.4853516-8.6142578,6.2792969-16.5830078,9.3486328-19.8623047
		c7.2275391-7.6220703,25.4521484-2.2011719,19.7958984,2.9833984c-3.2226563,2.9082031-7.3085938,24.8251953-5.1074219,25.2177734
		c5.1074219,0.8652344,7.2265625-9.0351563,8.5625-12.8847656c2.3574219-6.7558594,5.421875-12.6474609,7.9355469-15.3193359
		c7.2285156-7.6220703,25.4511719-2.2011719,19.796875,2.984375c-3.2207031,2.9072266-7.3066406,24.8242188-5.1054688,25.2167969
		c1.3359375,0.2363281,5.421875-4.9462891,9.2714844-10.5253906
		C593.4570313,436.6083984,599.2714844,438.8867188,596.6796875,443.8398438z"/>
	<path class="st3" d="M462.0742188,360.796875c-2.3583984-0.0771484-5.8144531,0.7841797-5.1044922,3.9287109
		c1.8056641,9.6640625-5.5791016,29.8535156-10.2128906,40.6914063
		c-4.6376953,10.6074219-12.1767578,23.9619141-22.3896484,23.1748047
		c-10.9199219-0.8642578-0.0791016-24.5107422-0.8652344-37.1582031
		c-2.828125-46.5078125-85.0800781-37.3955078-85.6318359-1.6494141
		c-0.1572266,11.390625,7.8583984,21.9189453,22.5498047,22.5449219c7.5390625,0.3144531,15.1621094-2.3544922,19.4003906-7.6210938
		c0,0,1.1796875-2.3564453-0.7851563-2.8261719c-4.7148438-1.1005859-6.6777344-5.1083984-6.2060547-9.3476563
		c1.8076172-15.2412109,43.8359375-25.7705078,27.0244141,16.1035156
		c-4.0859375,10.4492188-19.9541016,40.1435547,6.9902344,42.2646484
		c7.8554688,0.6279297,15.3183594-0.5488281,22.3896484-3.3789063
		c-6.4433594,12.4140625-14.8466797,23.3339844-25.1396484,23.4912109c-6.5986328,0.0771484-12.4130859-3.6914063-14.0625-11
		c-0.2353516-0.7851563-0.6279297-1.2578125-1.1777344-1.4130859c-0.3935547-0.1572266-0.7851563-0.2363281-1.1777344-0.1572266
		c-9.8964844,0.3125-17.046875,12.4902344-16.4179688,24.7441406c1.8066406,35.7470703,57.3476563,34.2519531,76.2802734-6.4394531
		c13.2783203-28.5175781,28.2011719-80.7597656,28.1240234-99.3007813
		C475.6660156,368.2607422,472.4453125,361.0332031,462.0742188,360.796875z"/>
	<path class="st3" d="M590.7089844,440.5351563c-3.8496094,5.5791016-7.9355469,10.7617188-9.2714844,10.5253906
		c-2.2011719-0.3925781,1.8847656-22.3095703,5.1054688-25.2167969c5.6542969-5.1855469-12.5683594-10.6064453-19.796875-2.984375
		c-2.5136719,2.671875-5.578125,8.5634766-7.9355469,15.3193359c-1.3359375,3.8496094-3.4550781,13.75-8.5625,12.8847656
		c-2.2011719-0.3925781,1.8847656-22.3095703,5.1074219-25.2177734c5.65625-5.1845703-12.5683594-10.6054688-19.7958984-2.9833984
		c-3.0693359,3.2792969-6.8632813,11.2480469-9.3486328,19.8623047c-1.6083984,1.6328125-3.4980469,2.6923828-5.8847656,2.9179688
		c0-0.7060547,0.078125-1.4931641,0.078125-2.2011719c0-15.7109375-12.4921875-32.2871094-28.8320313-21.3662109
		c-9.9765625-1.1005859-19.5605469,9.1923828-22.78125,16.5751953c-1.4921875,3.5371094-2.2773438,7.3066406-2.4335938,11
		c-0.7851563,31.7392578,42.3427734,29.9306641,52.0839844,4.5556641c2.0292969-0.1845703,3.8720703-0.6064453,5.5703125-1.2714844
		c-0.1328125,0.9892578-0.2412109,1.9667969-0.3134766,2.9238281c-1.7314453,21.6845703,21.6787109,21.4482422,31.4248047,8.1708984
		c1.2578125,6.0498047,5.2636719,9.2695313,11.5488281,9.2695313c10.2910156,0,22.0742188-16.1044922,30.0078125-29.4589844
		C599.2714844,438.8867188,593.4570313,436.6083984,590.7089844,440.5351563z M490.7109375,450.9833984
		c-6.5214844,0.3134766-4.1640625-7.8574219-1.8847656-12.5683594c1.9648438,3.3779297,4.4785156,6.2861328,7.5410156,8.7988281
		C494.7949219,449.4121094,492.8300781,450.9052734,490.7109375,450.9833984z"/>
	<path class="st3" d="M228.6933594,169.7060547c-6.1269531-4.4785156-18.2246094-2.2001953-22.78125,9.0351563
		c-6.4394531-1.5712891-14.0625-2.3564453-21.7617188-2.2001953c-58.9189453,1.0996094-49.1777344,54.5996094-17.2041016,55.5419922
		c10.4482422,0.3125,20.8964844-5.34375,24.0390625-17.3632813c0,0,0.1591797-2.75-2.0419922-2.3554688
		c-10.8417969,2.0419922-15.9472656-15.5556641-0.3164063-19.8769531c3.6142578-1.0195313,8.328125-1.4931641,14.2988281-1.4130859
		c-4.6376953,26.2402344-13.1982422,60.8847656-33.3105469,79.8945313
		c-8.2480469,7.7773438-21.2128906,6.9931641-20.9736328-5.1845703c0.1572266-5.5800781-4.0849609-6.2060547-9.3486328-2.2001953
		c-24.9023438,20.5019531-4.0058594,60.0966797,32.9960938,45.9580078
		c40.7734375-15.6347656,44.6230469-80.9941406,46.5849609-119.2548828
		C229.8710938,190.2900391,236.5478516,175.4404297,228.6933594,169.7060547z"/>
	<path class="st1" d="M157.9511719,338.6474609c-2.2695313-0.4833984-4.5371094-0.9667969-6.8066406-1.449707
		c-1.2636719,6.074707-2.9433594,18.4350586,1.7207031,32.6665039c2.8828125,8.8007813,7.203125,15.2958984,10.5097656,19.4560547
		c2.0527344-1.1748047,4.1054688-2.3505859,6.1582031-3.5253906c-2.390625-4.2197266-4.8271484-9.3134766-6.8505859-15.2617188
		C158.3925781,357.9238281,157.7128906,346.6220703,157.9511719,338.6474609z"/>
	<path class="st1" d="M179.4140625,400.2382813c-1.7734375,1.3027344-3.546875,2.6054688-5.3203125,3.9072266
		c1.6064453,3.4365234,4.7226563,8.9755859,10.4179688,14.1894531c5.9101563,5.4111328,11.9472656,8.0429688,15.5722656,9.3125
		c1.3398438-1.8935547,2.6796875-3.7871094,4.0195313-5.6806641c-3.9335938-2.1875-8.7109375-5.2949219-13.6328125-9.6445313
		C185.65625,408.0683594,182.0449219,403.8085938,179.4140625,400.2382813z"/>
	<path class="st1" d="M217.0595703,432.7578125c-1.3564453,1.265625-2.7138672,2.53125-4.0712891,3.796875
		c2.7441406,4.2832031,7.53125,10.5996094,15.1875,16.2832031c9.0722656,6.734375,17.9765625,9.4658203,23.2597656,10.6572266
		c1.0292969-1.2773438,2.0585938-2.5537109,3.0878906-3.8310547c-5.7783203-2.515625-12.8398438-6.1835938-20.2753906-11.5371094
		C226.9121094,442.84375,221.2519531,437.3886719,217.0595703,432.7578125z"/>
	<path class="st1" d="M272.3291016,466.8359375c-1.1953125,1.4931641-2.3916016,2.9863281-3.5869141,4.4785156
		c3.0859375,3.8193359,7.6796875,8.5957031,14.1474609,12.8427734c12.0947266,7.9404297,24.0839844,9.65625,30.4111328,10.0830078
		c0.5888672-1.90625,1.1787109-3.8125,1.7675781-5.71875c-5.0019531-1.015625-10.859375-2.6435547-17.1542969-5.3056641
		C286.3847656,478.3388672,277.9248047,471.9082031,272.3291016,466.8359375z"/>
	<path class="st1" d="M333.1796875,495.5712891c-0.2988281,1.9453125-0.5976563,3.890625-0.8964844,5.8359375
		c3.0996094,2.0146484,7.4638672,4.3613281,13.0185547,5.9833984c9.1552734,2.6748047,17.0732422,2.0732422,21.6962891,1.3447266
		c0.0253906-2.3193359,0.0498047-4.6386719,0.0742188-6.9580078c-4.3662109-0.0654297-9.3291016-0.4130859-14.7382813-1.2705078
		C344.8642578,499.3242188,338.4267578,497.46875,333.1796875,495.5712891z"/>
	<path class="st1" d="M282.3242188,175.6953125c6.2763672-0.2885742,11.9082031,0.1196289,16.7089844,0.8037109
		c0.34375-2.340332,0.6884766-4.6806641,1.0332031-7.0205078c-5.0800781-1.5595703-12.7050781-3.2084961-21.9511719-2.6782227
		c-14.9511719,0.8569336-25.84375,6.9345703-31.0371094,10.3295898c1.2773438,1.9355469,2.5566406,3.8706055,3.8349609,5.8061523
		C258.25,179.8027344,269.0185547,176.3076172,282.3242188,175.6953125z"/>
	<path class="st1" d="M330.6347656,176.9902344c6.5068359,0.9067383,11.9755859,2.5131836,16.1962891,4.0756836
		c0.5654297-2.2495117,1.1318359-4.4985352,1.6972656-6.7480469c-3.3222656-1.9262695-9.25-4.7973633-17.2050781-5.7646484
		c-7.6650391-0.9316406-13.8984375,0.3066406-17.5537109,1.3227539c0.1660156,2.1943359,0.3310547,4.3886719,0.4960938,6.5830078
		C318.6884766,176.1333008,324.2734375,176.1040039,330.6347656,176.9902344z"/>
	<path class="st1" d="M405.265625,199.7011719c0.5332031-1.5512695,1.0654297-3.1025391,1.5986328-4.6533203
		c-3.8212891-3.8383789-10.8740234-9.9223633-21.4042969-14.0170898c-8.8886719-3.4560547-16.7832031-4.1450195-21.8701172-4.1875
		c-0.3496094,1.8222656-0.6982422,3.6450195-1.046875,5.4672852c6.1523438,1.0839844,13.7832031,2.9707031,22.1611328,6.3686523
		C393.1943359,192.1230469,400.0595703,196.1484375,405.265625,199.7011719z"/>
	<path class="st1" d="M458.796875,226.1166992c1.2392578-1.5634766,2.4785156-3.1274414,3.7177734-4.690918
		c-3.9277344-4.9785156-12.1181641-13.8994141-25.5048828-19.3891602
		c-7.1582031-2.9360352-13.6943359-4.0258789-18.5888672-4.4130859c-0.5566406,1.8300781-1.1123047,3.6601563-1.6679688,5.4902344
		c7.3466797,1.7495117,17.4326172,5.0947266,27.9707031,11.8491211
		C450.4785156,218.6508789,455.1318359,222.5639648,458.796875,226.1166992z"/>
	<path class="st1" d="M498.9824219,255.1923828c1.6484375-1.6308594,3.2978516-3.262207,4.9472656-4.8930664
		c-2.6933594-3.8286133-7.7685547-9.9350586-16.0595703-14.652832c-5.0292969-2.8618164-9.7509766-4.3642578-13.3554688-5.1904297
		c-1.1894531,1.5678711-2.3789063,3.1357422-3.5683594,4.7036133c5.0126953,2.4492188,10.8242188,5.7841797,16.8701172,10.3271484
		C492.1953125,248.7773438,495.8984375,252.1010742,498.9824219,255.1923828z"/>
	<path class="st1" d="M524.7685547,281.0864258c3.5927734,4.1352539,6.5166016,8.1601563,8.8847656,11.8291016
		c1.9541016-1.2495117,3.9091797-2.4985352,5.8632813-3.7480469c-1.8310547-4.3076172-5.515625-11.3422852-12.6337891-17.6918945
		c-4.3173828-3.8520508-8.6201172-6.3100586-11.9707031-7.8730469c-1.4921875,1.2836914-2.9833984,2.5678711-4.4755859,3.8515625
		C514.8251953,270.8994141,519.8085938,275.3774414,524.7685547,281.0864258z"/>
	<path class="st1" d="M565.6875,367.0888672c3.7441406,15.0908203,3.5224609,28.9970703,1.96875,40.3466797
		c2.9521484-1.3125,5.9042969-2.625,8.8564453-3.9365234c0.6123047-4.1298828,1.0087891-8.7480469,0.984375-13.7773438
		c-0.0722656-14.3779297-3.5634766-26.2128906-6.8886719-34.4414063c-2.2958984,1.6396484-4.5927734,3.2802734-6.8886719,4.9199219
		C564.4335938,362.4042969,565.0957031,364.7001953,565.6875,367.0888672z"/>
	<path class="st1" d="M534.1982422,506.8242188c-7.2861328,4.1679688-14.0566406,6.0107422-18.6972656,6.8886719
		c0.328125,2.6240234,0.65625,5.2480469,0.984375,7.8720703c5.0751953-0.5996094,13.0527344-2.1933594,21.6494141-6.8876953
		C549.1894531,508.6601563,555.671875,500.5507813,558.7998047,496c-3.6083984,0-7.2167969,0-10.8251953,0
		C544.9707031,499.1679688,540.4501953,503.2490234,534.1982422,506.8242188z"/>
	<path class="st1" d="M473.9648438,517.4023438c-8.5712891,0.703125-16.0146484,0.140625-21.8378906-0.7294922
		c-0.0917969,2.3173828-0.1845703,4.6347656-0.2763672,6.9521484c5.4150391,0.7246094,11.78125,1.203125,18.9003906,1.03125
		c8.1152344-0.1953125,15.2490234-1.1875,21.1503906-2.3886719c-0.2226563-2.6347656-0.4462891-5.2695313-0.6689453-7.9052734
		C486.4560547,515.6669922,480.6396484,516.8554688,473.9648438,517.4023438z"/>
	<path class="st2" d="M351.84375,472.0175781c3.5029297-2.6083984,8.3349609-8.6806641,5.9824219-14.5361328
		c-1.4355469-3.5732422-5.1757813-6.1416016-9.2392578-6.4248047c-5.2744141-0.3691406-8.6699219,3.2802734-9.0830078,3.7402344
		c0.1777344-0.4755859,1.9951172-5.578125-1.1542969-10.1396484c-2.4726563-3.5810547-6.7314453-4.9785156-10.2216797-4.5458984
		c-6.4179688,0.7949219-9.8574219,7.7294922-10.5380859,12.4667969c-0.1074219,0.7480469-0.3945313,3.1689453,1.2138672,8.578125
		c1.1396484,3.8330078,3.3388672,9.53125,7.8808594,15.8222656c7.4150391,0.0556641,13.3085938-0.9667969,17.359375-1.9384766
		C349.0966797,473.828125,350.7646484,472.8212891,351.84375,472.0175781z M348.2119141,454.6699219
		c0.2568359-0.5390625,4.9453125-0.1464844,6.8886719,2.9521484c2.1572266,3.4394531-0.4726563,7.9746094-0.984375,8.8564453
		c-1.4472656,2.4960938-3.6777344,4.1494141-3.9365234,3.9355469c-0.2138672-0.1767578,1.1162109-1.4892578,1.96875-3.9355469
		c0.2695313-0.7744141,1.6103516-4.6230469,0-7.8730469C350.7636719,455.8115234,348.0078125,455.0986328,348.2119141,454.6699219z
		 M325.578125,450.7333984c-3.4199219,4.0917969-2.2011719,9.8271484-2.9511719,9.8408203
		c-0.6152344,0.0107422-1.7636719-3.8339844-0.984375-7.8730469c0.3173828-1.6435547,1.1611328-6.0166016,4.9199219-7.8720703
		c3.890625-1.9208984,8.8125-0.1123047,8.8574219,0.984375C335.46875,447.0556641,329.2207031,446.3759766,325.578125,450.7333984z"
		/>
	<path class="st2" d="M313.5742188,215.5825195c1.4755859,2.8427734,4.0664063,6.9946289,8.5859375,11.2680664
		c5.8320313-1.0463867,10.3046875-2.7163086,13.3369141-4.074707c3.7841797-1.6943359,4.9414063-2.730957,5.6669922-3.5205078
		c2.3554688-2.5634766,5.2294922-8.043457,2.4941406-12.2963867c-1.6689453-2.5952148-4.9941406-4.0620117-8.2285156-3.6875
		c-4.1972656,0.4858398-6.3095703,3.8510742-6.5644531,4.2734375c0.0673828-0.3999023,0.7207031-4.6748047-2.4433594-7.7939453
		c-2.484375-2.449707-6.0400391-2.9208984-8.7148438-2.0678711c-4.9199219,1.5678711-6.5683594,7.5200195-6.3847656,11.3408203
		C311.3505859,209.6274414,311.4921875,211.5703125,313.5742188,215.5825195z M339.3554688,205.7041016
		c0.3798828-0.3144531,3.1142578,1.2797852,3.9365234,3.9360352c1.0517578,3.4013672-1.5048828,7.0234375-1.96875,6.8881836
		c-0.3632813-0.105957,0.7412109-2.4726563,0-5.9042969C340.6601563,207.5522461,339.0253906,205.9775391,339.3554688,205.7041016z
		 M314.7539063,201.7675781c0.3505859-0.4609375,2.0712891-2.7270508,4.9199219-2.9521484
		c3.3261719-0.2626953,6.1269531,2.4165039,5.9042969,2.9521484c-0.1845703,0.4453125-2.0761719-0.6318359-4.9199219,0
		c-0.4658203,0.1035156-3.1162109,0.7329102-4.9199219,2.9521484c-2.1865234,2.6899414-1.6679688,5.9179688-1.96875,5.9042969
		C313.3945313,210.6069336,311.9013672,205.5239258,314.7539063,201.7675781z"/>
	<path class="st1" d="M277.6738281,195.4003906c-4.4355469,3.3569336-4.6445313,8.6240234-4.6591797,9.2783203
		c-0.1826172-0.5039063-2.2158203-5.8408203-7.8212891-7.3066406c-4.4013672-1.1513672-8.7324219,0.6796875-11.2070313,3.4414063
		c-4.5507813,5.078125-2.5566406,13.0024414,0.1298828,17.2607422c0.4238281,0.6723633,1.8447266,2.8056641,6.8046875,6.0166016
		c3.5146484,2.2758789,9.1396484,5.3081055,17.0283203,7.1928711c5.921875-5.0883789,9.9013672-9.9858398,12.453125-13.565918
		c3.1845703-4.4663086,3.8222656-6.4262695,4.1308594-7.815918c1.0029297-4.5092773,0.7011719-12.7089844-5.1533203-15.7612305
		C285.8076172,192.2783203,281.0917969,192.8144531,277.6738281,195.4003906z M265.5507813,223.4169922
		c-0.4355469,0.5087891-5.6972656-1.8759766-8.8554688-6.8886719c-0.578125-0.9160156-4.1259766-6.5463867-1.96875-11.8085938
		c1.2773438-3.1147461,4.2480469-5.3535156,4.9199219-4.9204102c0.5058594,0.3251953-0.5097656,2.0087891-0.9833984,4.9204102
		c-0.7783203,4.7797852,0.5839844,8.6914063,0.9833984,9.8408203
		C261.6777344,220.3959961,265.9609375,222.9379883,265.5507813,223.4169922z M293.1054688,206.6879883
		c-0.0585938,3.0683594-1.3300781,5.9848633-1.96875,5.9042969c-0.8164063-0.1030273,0.5664063-4.9702148-1.9677734-9.840332
		c-2.2958984-4.4106445-6.3613281-6.0498047-5.9042969-6.8886719c0.3447266-0.6323242,2.9228516-0.1958008,4.9199219,0.9838867
		C291.7714844,198.9663086,293.1699219,203.300293,293.1054688,206.6879883z"/>
	<path class="st1" d="M426.4501953,282.019043c10.3349609-0.1699219,18.53125-1.7895508,24.1591797-3.2749023
		c7.0214844-1.8540039,9.3291016-3.3100586,10.8193359-4.4628906c4.8369141-3.7431641,11.4677734-12.347168,8.0888672-20.4086914
		c-2.0615234-4.9194336-7.3164063-8.3637695-12.9853516-8.6225586c-7.3574219-0.3359375-12.0263672,4.8505859-12.5957031,5.5043945
		c0.2412109-0.6669922,2.6865234-7.8217773-1.7802734-14.0571289c-3.5078125-4.8969727-9.4667969-6.6972656-14.3232422-5.9790039
		c-8.9306641,1.3198242-13.6064453,11.0756836-14.4736328,17.6845703c-0.1367188,1.043457-0.4960938,4.4179688,1.8369141,11.8837891
		C416.8496094,265.5771484,420.0117188,273.4248047,426.4501953,282.019043z M458.4257813,249.0024414
		c0.4462891-0.5351563,5.7324219,1.4238281,7.8730469,5.9042969c3.1806641,6.6606445-2.4980469,14.9057617-2.9521484,14.7607422
		c-0.3642578-0.1162109,2.8378906-5.5463867,0.9833984-11.8085938
		C462.6640625,252.2285156,457.9804688,249.5375977,458.4257813,249.0024414z M417.0957031,247.0341797
		c2.3144531-8.7426758,11.5585938-13.8710938,12.7929688-12.7929688c1.4169922,1.237793-8.9482422,9.5834961-8.8564453,22.6333008
		c0.0654297,9.4326172,5.5605469,16.402832,4.9199219,16.7290039c-0.5498047,0.2797852-4.4414063-4.9350586-6.8886719-11.8085938
		C417.3525391,256.9863281,415.6943359,252.328125,417.0957031,247.0341797z"/>
	<path class="st3" d="M267.5195313,409.4033203c-0.7626953-1.0205078-5.1240234,0.125-7.8730469,2.9521484
		c-3.8330078,3.9423828-3.7460938,10.3486328-1.9667969,14.7607422c2.5292969,6.2753906,8.9472656,9.671875,9.8398438,8.8564453
		c1.1035156-1.0078125-7.1865234-7.5820313-5.9042969-15.7451172
		C262.5888672,414.0302734,268.4863281,410.6972656,267.5195313,409.4033203z"/>
	<path class="st3" d="M301.9609375,408.4189453c4.7519531,1.9306641,6.5214844,6.1552734,6.8886719,5.9042969
		c0.4990234-0.3408203-1.9472656-8.7236328-7.8720703-9.8408203c-4.0351563-0.7597656-8.0771484,2.1513672-7.8720703,2.953125
		C293.3027344,408.2089844,297.3457031,406.5439453,301.9609375,408.4189453z"/>
	<path class="st4" d="M326.5625,444.8291016c-3.7587891,1.8554688-4.6025391,6.2285156-4.9199219,7.8720703
		c-0.7792969,4.0390625,0.3691406,7.8837891,0.984375,7.8730469c0.75-0.0136719-0.46875-5.7490234,2.9511719-9.8408203
		c3.6425781-4.3574219,9.890625-3.6777344,9.8417969-4.9199219C335.375,444.7167969,330.453125,442.9082031,326.5625,444.8291016z"
		/>
	<path class="st4" d="M352.1484375,458.6054688c1.6103516,3.25,0.2695313,7.0986328,0,7.8730469
		c-0.8525391,2.4462891-2.1826172,3.7587891-1.96875,3.9355469c0.2587891,0.2138672,2.4892578-1.4394531,3.9365234-3.9355469
		c0.5117188-0.8818359,3.1416016-5.4169922,0.984375-8.8564453c-1.9433594-3.0986328-6.6318359-3.4912109-6.8886719-2.9521484
		C348.0078125,455.0986328,350.7636719,455.8115234,352.1484375,458.6054688z"/>
	<path class="st3" d="M258.6630859,204.7197266c0.4736328-2.9116211,1.4892578-4.5952148,0.9833984-4.9204102
		c-0.671875-0.4331055-3.6425781,1.8056641-4.9199219,4.9204102c-2.1572266,5.262207,1.390625,10.8925781,1.96875,11.8085938
		c3.1582031,5.0126953,8.4199219,7.3974609,8.8554688,6.8886719c0.4101563-0.4790039-3.8730469-3.0209961-5.9042969-8.8564453
		C259.2470703,213.4111328,257.8847656,209.4995117,258.6630859,204.7197266z"/>
	<path class="st3" d="M283.2646484,195.8632813c-0.4570313,0.8388672,3.6083984,2.4780273,5.9042969,6.8886719
		c2.5341797,4.8701172,1.1513672,9.7373047,1.9677734,9.840332c0.6386719,0.0805664,1.9101563-2.8359375,1.96875-5.9042969
		c0.0644531-3.3876953-1.3339844-7.7216797-4.9208984-9.8408203
		C286.1875,195.6674805,283.609375,195.230957,283.2646484,195.8632813z"/>
	<path class="st4" d="M313.7695313,210.6240234c0.3007813,0.0136719-0.2177734-3.2143555,1.96875-5.9042969
		c1.8037109-2.2192383,4.4541016-2.8486328,4.9199219-2.9521484c2.84375-0.6318359,4.7353516,0.4453125,4.9199219,0
		c0.2226563-0.5356445-2.578125-3.2148438-5.9042969-2.9521484c-2.8486328,0.2250977-4.5693359,2.4912109-4.9199219,2.9521484
		C311.9013672,205.5239258,313.3945313,210.6069336,313.7695313,210.6240234z"/>
	<path class="st4" d="M341.3232422,216.5283203c0.4638672,0.1352539,3.0205078-3.4868164,1.96875-6.8881836
		c-0.8222656-2.65625-3.5566406-4.2504883-3.9365234-3.9360352c-0.3300781,0.2734375,1.3046875,1.8481445,1.9677734,4.9199219
		C342.0644531,214.0556641,340.9599609,216.4223633,341.3232422,216.5283203z"/>
	<path class="st3" d="M425.9521484,273.6035156c0.640625-0.3261719-4.8544922-7.2963867-4.9199219-16.7290039
		c-0.0917969-13.0498047,10.2734375-21.3955078,8.8564453-22.6333008c-1.234375-1.078125-10.4785156,4.050293-12.7929688,12.7929688
		c-1.4013672,5.2939453,0.2568359,9.9521484,1.9677734,14.7607422
		C421.5107422,268.668457,425.4023438,273.8833008,425.9521484,273.6035156z"/>
	<path class="st3" d="M464.3300781,257.8588867c1.8544922,6.262207-1.3476563,11.6923828-0.9833984,11.8085938
		c0.4541016,0.1450195,6.1328125-8.1000977,2.9521484-14.7607422c-2.140625-4.4804688-7.4267578-6.4394531-7.8730469-5.9042969
		C457.9804688,249.5375977,462.6640625,252.2285156,464.3300781,257.8588867z"/>
</g>
</svg>
