<?xml version="1.0" encoding="utf-8"?>
<!-- Generator: Adobe Illustrator 22.0.1, SVG Export Plug-In . SVG Version: 6.00 Build 0)  -->
<svg version="1.1" id="Шар_1" xmlns="http://www.w3.org/2000/svg" xmlns:xlink="http://www.w3.org/1999/xlink" x="0px" y="0px"
	 viewBox="0 0 714 714" style="enable-background:new 0 0 714 714;" xml:space="preserve">
<g>
	<path d="M339.8378906,460.8789063c3.0361328-6.5439453,5.9072266-13.5019531,8.5996094-20.6699219l6.5605469,8.9306641
		c11.1552734,16.0478516,39.0400391,14.1845703,52.3818359-2.7109375l3.8916016,5.2646484
		c8.5429688,11.6542969,22.4345703,10.21875,32.4130859,2.5546875c2.9501953,3.8300781,7.5839844,5.90625,13.1738281,5.9082031
		c13.7324219,0,28.8183594-21.2324219,34.7275391-32.4111328c1.6757813-3.1943359,1.8369141-6.9453125-0.4794922-9.6611328
		L482.8046875,406.75c0.6357422-2.4726563-0.1611328-4.4697266-1.5185547-6.3066406l-8.7021484-11.8945313
		c-4.8691406-6.6279297-22.1123047-9.3417969-30.2548828,1.9140625
		c-5.8291016-9.2597656-22.2734375-10.3769531-29.8574219-2.2363281c-2.65625,2.8369141-5.09375,7.2480469-7.1435547,12.1972656
		c-0.9238281-1.3310547-1.8925781-2.7167969-2.9101563-4.109375c0.7128906-1,1.4082031-2.0839844,2.0820313-3.2714844
		c3.1591797-5.5644531,6.0693359-13.4765625,8.6474609-23.5175781c2.5117188-9.7763672,4.7607422-21.7451172,6.6845703-35.5771484
		c11.4619141-7.2578125,20.1152344-15.0400391,26.4492188-23.7856445
		c6.9033203-9.5336914,10.8544922-20.206543,11.7421875-31.7216797c0.0800781-1.0288086-0.2451172-2.0268555-0.9169922-2.8105469
		c-0.6708984-0.7836914-1.6074219-1.2592773-2.6367188-1.3388672c-2.1181641-0.1577148-3.9853516,1.4345703-4.1484375,3.5556641
		c-1.3818359,17.8813477-10.9267578,32.9086914-29.171875,45.9121094
		c0.7460938-6.2163086,1.4277344-12.7314453,2.0273438-19.3842773c1.0419922-11.5732422,1.5917969-20.8842773,1.8261719-25.4047852
		c0.1533203-2.9458008,0.265625-5.6386719,0.3183594-7.5825195c0.0244141-0.9077148,0.0351563-1.6323242,0.0341797-2.1577148
		c-0.0039063-0.9404297-0.0126953-2.8964844-1.9267578-4.0371094c-1.0703125-0.6386719-2.3945313-0.7260742-3.5429688-0.234375
		c-1.9638672,0.8417969-2.4072266,2.6040039-2.9697266,4.8388672c-0.3544922,1.3989258-0.7822266,3.284668-1.3388672,5.7412109
		c-1.6699219,7.3691406-4.1943359,18.5058594-7.5273438,28.5756836c-4.9404297,14.9277344-8.9375,19.1206055-10.8808594,20.2915039
		c-0.4248047,0.2558594-0.8222656,0.4072266-1.1826172,0.4501953c-0.140625-0.027832-0.2851563-0.046875-0.4316406-0.059082
		c-0.2460938-0.0214844-0.5185547-0.0820313-0.9003906-0.5595703c-0.8349609-1.0483398-2.7138672-4.8461914-2.1113281-17.4379883
		c0.4082031-8.5463867,1.7548828-17.9985352,2.8457031-25.6523438c1.0810547-7.578125,1.5878906-11.3071289,1.2939453-13.2568359
		c-0.2705078-1.7890625-1.4023438-3.1845703-3.0292969-3.7338867c-0.8369141-0.2807617-3.3837891-1.1347656-7.9570313,3.3066406
		c-0.6103516,0.59375-1.0126953,1.3847656-1.1318359,2.2260742c-0.1582031,1.1103516-0.3613281,2.6064453-0.5820313,4.371582
		c-0.2685547,0.4077148-0.4619141,0.8657227-0.5615234,1.3588867c-2.7861328,13.777832-6.9462891,25.8769531-12.0283203,34.9892578
		c-4.2548828,7.6298828-8.9951172,12.7749023-13.0029297,14.1152344c-0.7753906,0.2592773-1.4697266,0.3583984-2.1162109,0.296875
		c-0.1650391-0.0703125-0.3349609-0.1318359-0.515625-0.1791992c-0.9726563-0.2558594-4.9023438-6.027832-4.9091797-27.9267578
		c0-1.6328125,0.0224609-3.296875,0.0644531-4.9829102c3.0830078-4.8505859,10.1699219-17.8442383,16.3642578-32.5927734
		c3.6933594-8.7924805,6.3330078-16.4975586,7.8457031-22.9008789c1.9990234-8.4536133,2.0175781-14.5708008,0.0556641-18.7006836
		c-1.7001953-3.5805664-4.7753906-5.6079102-8.8916016-5.862793c-5.8652344-0.3696289-10.9169922,4.5336914-15.0791016,14.5473633
		c-5.4472656,13.105957-9.4375,34.9643555-10.4150391,57.0449219c-0.0869141,1.9594727-0.15625,4.1298828-0.1914063,6.4262695
		c-1.9199219,6.9003906-4.7299805,14.0527344-7.9477539,19.9750977
		c-5.3833008,9.9072266-11.2436523,15.5283203-16.1274414,15.4838867c-0.3295898-0.0048828-0.3857422-0.0678711-0.496582-0.1923828
		c-0.4477539-0.5039063-1.4863281-2.3647461-1.4648438-8.737793c0.0166016-4.9331055,0.6547852-11.0249023,1.2714844-16.9160156
		c1.4335938-13.6904297,2.6713867-25.5136719-2.0488281-30.640625c-1.5761719-1.7138672-3.6870117-2.5942383-6.0761719-2.5415039
		c-8.2993164,0.1772461-15.2070313,11.1499023-19.5410156,20.3237305c-1.3349609,2.8261719-2.6210938,5.8950195-3.8378906,9.1567383
		c0.0463867-0.7988281,0.0917969-1.5825195,0.1367188-2.3466797c0.5825195-4.0498047,1.3076172-9.0898438,1.7788086-13.2050781
		c0.8349609-7.3037109,0.6728516-9.2109375-0.9125977-10.7402344c-0.9291992-0.894043-2.2382813-1.2905273-3.5024414-1.0610352
		c-1.2290039,0.2236328-2.8071289,1.0512695-3.3452148,3.7246094c-0.1079102,0.5332031-0.2128906,1.2416992-0.3217773,2.1640625
		c-0.1899414,1.6044922-0.3969727,3.8681641-0.6152344,6.7290039c-0.2387695,3.1342773-0.4985352,7.0371094-0.7739258,11.5966797
		c-0.3925781,2.7265625-0.7299805,5.0791016-0.9560547,6.847168c-0.1269531,0.9858398-0.2099609,1.7231445-0.2529297,2.2587891
		c-0.0463867,0.5820313-0.152832,1.9145508,0.5249023,3.0854492c-0.4023438,7.5566406-0.7524414,14.8242188-0.9726563,19.5410156
		c-6.5400391-1.5883789-13.5498047-2.0688477-20.4624023-1.5302734
		c6.5395508-12.4389648,10.6918945-29.1450195,11.4995117-46.6713867
		c0.4414063-9.5634766-0.1269531-18.7163086-1.6884766-27.2050781c-1.6743164-9.1025391-4.4145508-16.9501953-8.1450195-23.3242188
		c-3.8041992-6.4990234-8.5541992-11.296875-14.1186523-14.2602539c-6.0429688-3.2177734-12.9360352-4.2026367-20.4321289-2.9355469
		c-1.8540039,0.1113281-3.2700195,1.7172852-3.293457,3.7353516c-0.0249023,2.1206055,1.543457,3.9038086,3.496582,3.9750977
		c13.5893555,0.4956055,21.3164063,11.2270508,25.4057617,20.1425781
		c11.3789063,24.8085938,9.2768555,66.5302734-4.4106445,87.5332031c-0.2539063,0.3896484-0.5141602,0.7558594-0.7729492,1.1274414
		c-8.2954102,2.2084961-15.871582,5.9477539-21.5966797,11.03125c-0.1166992-0.0175781-0.230957-0.0253906-0.3481445-0.0449219
		c-7.6005859-1.2680664-13.0258789-6.8881836-16.1240234-16.703125c-3.8208008-12.105957-3.8022461-29.3618164,0.0478516-47.3754883
		c9.4785156-5.359375,17.1777344-11.6157227,22.887207-18.5981445c7.6791992-9.3920898,11.0644531-19.6826172,8.8344727-26.8554688
		c-0.9145508-2.9414063-2.6567383-5.1269531-5.0380859-6.3203125c-2.5893555-1.2963867-5.7485352-1.3481445-9.137207-0.1479492
		c-9.6289063,3.4082031-18.0771484,14.300293-23.7885742,30.6708984c-1.9926758,5.7104492-3.5795898,11.8603516-4.71875,18.2817383
		c-3.2685547,1.5146484-6.7480469,2.9360352-10.347168,4.2275391c-1.840332,0.6611328-2.824707,2.8378906-2.1943359,4.8535156
		c0.3208008,1.0244141,1.0244141,1.8701172,1.9311523,2.3208008c0.8256836,0.4106445,1.7504883,0.4677734,2.6015625,0.1606445
		c2.2802734-0.8183594,4.5444336-1.6987305,6.7412109-2.6210938c-0.7744141,7.2402344-0.9355469,14.3647461-0.4785156,21.1918945
		c1.5415039,22.9863281,9.8256836,38.7387695,22.9614258,44.1010742c-2.7651367,4.3271484-4.394043,9.2700195-4.4785156,14.7744141
		c-0.078125,6.5458984,1.918457,12.2929688,5.3496094,16.8457031l8.7001953,11.8945313
		c10.0600586,13.6513672,30.3349609,14.8476563,42.5478516,6.0673828
		c-3.671875,11.7333984-3.1923828,18.2001953,2.7939453,26.3427734c4.2314453,5.7480469,8.4628906,13.4101563,15.0869141,16.2871094
		c-0.796875,0.2382813-1.5957031,0.3984375-2.4726563,0.3984375c-5.6689453,0.078125-7.0263672-1.9960938-7.9833984-4.46875
		c-1.5175781-4.0732422-3.5126953-8.5429688-8.7802734-8.3808594
		c-18.4414063,0.6386719-28.7412109,29.6171875-15.1689453,48.1386719l8.1435547,11.0947266
		C277.8076172,508.6162109,323.5517578,495.6845703,339.8378906,460.8789063z M193.0356445,276.9282227l0.097168-0.8540039
		l-0.7905273,0.3378906c-2.4233398,1.0366211-4.9375,2.0229492-7.4726563,2.9326172
		c-0.5947266,0.2133789-1.2402344,0.1723633-1.8188477-0.1147461c-0.6635742-0.3300781-1.1821289-0.9584961-1.421875-1.7241211
		c-0.472168-1.5102539,0.2358398-3.1313477,1.578125-3.6132813c3.7143555-1.3330078,7.3032227-2.8037109,10.6679688-4.3720703
		l0.2358398-0.1098633l0.0454102-0.2568359c1.1323242-6.4619141,2.7216797-12.6464844,4.7231445-18.3828125
		c5.609375-16.078125,13.8408203-26.7524414,23.1782227-30.0576172c3.1259766-1.1069336,6.0151367-1.0727539,8.3549805,0.0996094
		c2.1328125,1.0683594,3.699707,3.0473633,4.53125,5.7231445c2.1313477,6.8564453-1.1845703,16.7905273-8.6538086,25.9257813
		c-5.5893555,6.8359375-13.4736328,13.2226563-22.7998047,18.4707031l-0.1962891,0.1103516l-0.0473633,0.2197266
		c-3.9321289,18.2568359-3.9580078,35.7910156-0.0708008,48.1064453
		c3.1630859,10.0209961,8.7143555,15.8325195,16.4921875,17.3022461c0.1416016,0.0263672,0.2783203,0.0625,0.4208984,0.0864258
		c2.0761719,0.3457031,4.0830078,0.3876953,6.0258789,0.1591797c0.4179688-0.0488281,0.8330078-0.1103516,1.2446289-0.1855469
		c0.5297852-0.0976563,1.0537109-0.2163086,1.5727539-0.3574219c2.7050781-0.7358398,5.2646484-2.0688477,7.6733398-3.9912109
		c0.449707-0.3588867,0.8945313-0.7382813,1.3334961-1.1386719c0.324707-0.2958984,0.6489258-0.5957031,0.9682617-0.9145508
		c1.668457-1.6669922,3.2573242-3.6401367,4.7617188-5.9223633l0.1401367-0.2036133
		c13.8447266-21.2446289,15.980957-63.425293,4.4819336-88.4960938
		c-4.206543-9.1708984-12.1806641-20.2104492-26.2788086-20.7246094c-1.4150391-0.0517578-2.5512695-1.3813477-2.5327148-2.9643555
		c0.0175781-1.487793,1.0288086-2.6694336,2.40625-2.7548828c7.3295898-1.2358398,14.0063477-0.2851563,19.8496094,2.8261719
		c5.3979492,2.875,10.0161133,7.5458984,13.7250977,13.8823242c3.671875,6.2739258,6.371582,14.012207,8.0249023,23
		c1.5478516,8.4140625,2.1108398,17.4907227,1.6728516,26.9785156c-0.8134766,17.6557617-5.0395508,34.4584961-11.6875,46.8232422
		c-0.5991211,1.1147461-1.2109375,2.2060547-1.8486328,3.2456055c-0.3037109,0.4951172-0.6181641,0.9599609-0.9291992,1.4355469
		c-0.1230469,0.1879883-0.2436523,0.3828125-0.3676758,0.5683594c-0.1313477,0.1953125-0.2607422,0.3945313-0.3935547,0.5864258
		c-3.6723633,5.3295898-7.8129883,9.3413086-12.3417969,11.9345703c-3.2114258,1.840332-6.6103516,2.9575195-10.1020508,3.3203125
		c-2.2133789,0.230957-4.4975586,0.1469727-6.8085938-0.2216797c-0.2075195-0.0332031-0.4160156-0.0776367-0.6240234-0.1152344
		c-0.2158203-0.0395508-0.4311523-0.0751953-0.6469727-0.1196289c-0.171875-0.0356445-0.3427734-0.0566406-0.5146484-0.0952148
		c-1.3432617-0.3017578-2.6411133-0.7094727-3.8959961-1.2109375
		c-12.8740234-5.1425781-21.0083008-20.6259766-22.5292969-43.3120117
		C191.9970703,291.7558594,192.1879883,284.4008789,193.0356445,276.9282227z M276.1088867,324.4511719
		c0.2192383-4.7036133,0.5742188-12.0883789,0.9907227-19.8950195l0.0083008-0.1611328l-0.0874023-0.1362305
		c-0.590332-0.9189453-0.4995117-2.0595703-0.4550781-2.6142578c0.0415039-0.5166016,0.1225586-1.2382813,0.2475586-2.2041016
		c0.2250977-1.7646484,0.5615234-4.1113281,0.9638672-6.9106445c0.2734375-4.5581055,0.5327148-8.4555664,0.7709961-11.5844727
		c0.2172852-2.847168,0.4228516-5.0966797,0.6113281-6.6875c0.1054688-0.8955078,0.206543-1.5771484,0.309082-2.0839844
		c0.3481445-1.7290039,1.1801758-2.6904297,2.543457-2.9389648c0.9506836-0.1733398,1.9326172,0.1264648,2.6298828,0.7978516
		c1.2929688,1.2470703,1.4018555,3.0063477,0.6132813,9.90625c-0.4697266,4.1010742-1.1938477,9.1328125-1.7797852,13.2177734
		c-0.1113281,1.8818359-0.2255859,3.8374023-0.3369141,5.8349609l-0.199707,3.5786133l1.1713867-3.387207
		c1.5390625-4.4516602,3.2094727-8.5927734,4.9648438-12.3085938c4.2128906-8.9179688,10.8701172-19.5839844,18.6582031-19.7504883
		c2.1079102-0.0551758,3.9428711,0.7226563,5.3188477,2.21875c4.4145508,4.7949219,3.1982422,16.4101563,1.7905273,29.8588867
		c-0.6196289,5.9160156-1.2607422,12.0336914-1.2773438,17.0175781c-0.0209961,6.1508789,0.921875,8.5092773,1.7177734,9.4052734
		c0.2758789,0.3100586,0.5908203,0.5185547,1.2294922,0.527832c5.2133789,0.0986328,11.4536133-5.762207,17.0205078-16.0063477
		c2.7358398-5.0361328,5.1801758-10.9555664,7.0454102-16.8632813c0.0107422,4.5830078,0.1875,9.4960938,0.6630859,14.2285156
		c-0.8515625,1.8520508-1.7451172,3.652832-2.6767578,5.3681641c-4.6469727,8.5551758-12.1767578,18.7954102-21.6567383,18.9975586
		c-0.1591797,0.003418-0.3178711,0.0039063-0.4770508,0.0019531c-0.1479492-0.0019531-0.2929688-0.0083008-0.4384766-0.0175781
		l-0.0537109-0.003418l-0.0532227,0.0083008c-0.1201172,0.0180664-0.2436523,0.0307617-0.4438477,0.0332031
		c-2.7685547-0.0092773-5.1806641-1.0454102-6.9741211-2.9956055c-5.5683594-6.0581055-4.4472656-20.0322266-3.362793-33.5463867
		c0.4013672-4.996582,0.7807617-9.7158203,0.7543945-13.5180664c-0.0263672-3.7016602-0.440918-5.3730469-0.7836914-6.1235352
		l-0.184082-0.4033203l-0.4228516,0.1352539c-0.4794922,0.152832-1.3334961,0.5473633-2.6806641,1.5551758l-0.0805664,0.0761719
		c-2.4873047,2.9169922-4.9951172,7.0361328-7.4536133,12.2426758c-4.878418,10.324707-8.9311523,23.8100586-11.2866211,37.4335938
		c-0.1875,1.0859375-0.3681641,2.1728516-0.5336914,3.2592773c-0.0498047,0.3286133-0.1591797,0.6557617-0.3183594,0.9638672
		c-0.0756836,0.1469727-0.1669922,0.2866211-0.2675781,0.421875c-0.109375,0.1464844-0.2338867,0.2827148-0.3720703,0.409668
		c-0.6025391,0.5541992-1.4746094,0.9038086-2.6367188,0.7988281c-0.7001953,0.0161133-1.3745117-0.2041016-1.9125977-0.6420898
		c-0.6391602-0.5209961-1.0048828-1.3017578-1.0356445-2.1220703l-0.0170898-0.2285156
		c0.0004883-0.0068359,0.0053711-0.1181641,0.0146484-0.3251953c0.0053711-0.1269531,0.0126953-0.2939453,0.0214844-0.4907227
		C275.9482422,327.9404297,276.0166016,326.4355469,276.1088867,324.4511719z M341.7158203,285.2700195
		c0.0234375-0.6704102,0.0488281-1.3291016,0.0771484-1.9589844c0.9716797-21.9716797,4.9335938-43.699707,10.3388672-56.7050781
		c3.8486328-9.2607422,8.4082031-13.949707,13.5605469-13.949707c0.1767578,0,0.3544922,0.0053711,0.5322266,0.0166016
		c3.7324219,0.2314453,6.515625,2.0615234,8.0507813,5.293457c1.8603516,3.9165039,1.8193359,9.8178711-0.125,18.0419922
		c-1.5009766,6.3496094-4.1230469,14.0014648-7.7949219,22.7431641c-6.2207031,14.8120117-13.3359375,27.831543-16.359375,32.559082
		l-0.0751953,0.1171875l-0.0039063,0.1396484c-0.0449219,1.7426758-0.0683594,3.4614258-0.0683594,5.1474609
		c0.0068359,22.4863281,4.0849609,28.4814453,5.6542969,28.8935547c0.1542969,0.0410156,0.2988281,0.0966797,0.4394531,0.1591797
		l0.1484375,0.0400391c0.8144531,0.0883789,1.6708984-0.0205078,2.6152344-0.3354492
		c4.2421875-1.418457,9.1845703-6.7314453,13.5595703-14.5761719c4.4453125-7.9692383,8.1865234-18.1889648,10.9326172-29.7978516
		c-0.6074219,6.1547852-1.1357422,13.6679688-1.1044922,21.0014648c0.0019531,0.4882813,0.0136719,0.9550781,0.0205078,1.4321289
		c-1.5029297,3.6635742-3.1230469,7.0649414-4.8457031,10.1533203c-5.2128906,9.3447266-11.0039063,15.2988281-16.7470703,17.21875
		c-1.21875,0.4086914-2.4433594,0.628418-3.640625,0.6538086c-0.1728516,0.0039063-0.34375-0.0087891-0.5146484-0.0136719
		c-2.5644531-0.0678711-4.9892578-1.0356445-7.0214844-2.8398438c-1.2626953-1.1206055-2.3291016-2.6728516-3.2285156-4.5444336
		c-2.0449219-4.2509766-3.2236328-10.1591797-3.8662109-16.4462891c-0.0332031-0.3325195-0.0683594-0.6640625-0.0986328-0.9985352
		c-0.0322266-0.3442383-0.0615234-0.6899414-0.0908203-1.0356445c-0.4472656-5.3676758-0.5371094-10.9018555-0.4619141-15.8452148
		c0.0107422-0.7138672,0.0244141-1.4174805,0.0419922-2.1044922
		C341.6611328,286.8847656,341.6875,286.065918,341.7158203,285.2700195z M385.1337891,272.9331055
		c0.1572266-1.2119141,0.3017578-2.2714844,0.4208984-3.1030273c0.0878906-0.6240234,0.3857422-1.2099609,0.8388672-1.6499023
		c4.1347656-4.0185547,6.2460938-3.3100586,6.9414063-3.0756836c1.2636719,0.4262695,2.1455078,1.5234375,2.359375,2.9350586
		c0.2724609,1.8105469-0.2285156,5.4863281-1.3037109,13.0249023c-1.0859375,7.6157227-2.4355469,17.0942383-2.8457031,25.6870117
		c-0.5966797,12.4663086,1.2021484,16.6967773,2.328125,18.109375c0.5996094,0.7519531,1.1435547,0.8930664,1.5976563,0.9326172
		c0.1298828,0.0107422,0.2578125,0.0288086,0.3808594,0.0561523l0.0742188,0.0161133l0.0751953-0.0063477
		c0.5400391-0.0444336,1.0908203-0.2397461,1.6835938-0.597168c2.0615234-1.2421875,6.2734375-5.6000977,11.3144531-20.8334961
		c3.3486328-10.1157227,5.8789063-21.28125,7.5693359-28.7382813c0.5400391-2.3803711,0.9658203-4.2607422,1.3183594-5.6533203
		c0.5322266-2.1152344,0.8837891-3.5126953,2.3935547-4.159668c0.8535156-0.3666992,1.8398438-0.3017578,2.6367188,0.1743164
		c1.4287109,0.8515625,1.4345703,2.3105469,1.4384766,3.1835938c0.0009766,0.5151367-0.0097656,1.2299805-0.0341797,2.1254883
		c-0.0517578,1.9360352-0.1640625,4.6201172-0.3164063,7.5576172c-0.2353516,4.5131836-0.7841797,13.8100586-1.8242188,25.3666992
		c-0.6347656,7.0424805-1.3613281,13.9296875-2.1591797,20.4707031l-0.1357422,1.1113281l0.9179688-0.640625
		c19.1044922-13.3334961,29.0849609-28.8061523,30.5136719-47.3022461c0.1220703-1.5722656,1.5244141-2.7446289,3.0751953-2.6357422
		c0.7636719,0.059082,1.4570313,0.4116211,1.9550781,0.9921875c0.4970703,0.5810547,0.7382813,1.3208008,0.6796875,2.0830078
		c-0.8740234,11.3291016-4.7617188,21.8300781-11.5566406,31.2119141
		c-6.2939453,8.690918-14.9189453,16.4267578-26.3681641,23.6508789l-0.1962891,0.1240234l-0.0322266,0.2299805
		c-1.9257813,13.8920898-4.1787109,25.9018555-6.6953125,35.6967773
		c-2.5566406,9.9541016-5.4326172,17.7841797-8.5478516,23.2714844c-0.5976563,1.0527344-1.2109375,2.0185547-1.8369141,2.9160156
		c-1.1474609,1.6464844-2.3408203,3.0390625-3.5791016,4.1621094c-0.1347656,0.1210938-0.2705078,0.2333984-0.4052734,0.3486328
		c-0.1298828,0.1113281-0.2597656,0.2246094-0.390625,0.3291016c-2.2792969,1.8339844-4.7011719,2.8056641-7.25,2.8935547
		l-0.2441406,0.0058594c-6.6289063,0.1582031-11.4775391-3.4091797-13.3925781-9.7392578
		c-0.0898438-0.2988281-0.1708984-0.6035156-0.2529297-0.9355469c-0.3955078-1.3242188-0.5683594-2.6425781-0.6484375-3.7851563
		c-0.0126953-0.1796875-0.0253906-0.3583984-0.0341797-0.5283203c-0.0087891-0.1787109-0.015625-0.3525391-0.0205078-0.5195313
		c-0.0136719-0.4794922-0.015625-0.9082031-0.0166016-1.2568359c-0.0009766-0.2050781-0.0029297-0.4472656-0.0078125-0.5273438
		c-0.0185547-0.3251953,0.0205078-0.6513672,0.1142578-0.9697266l0.0195313-0.1123047
		c0.03125-0.53125,0.0996094-1.0820313,0.1582031-1.6269531c0.6835938-6.4550781,3.1552734-13.8427734,7.0917969-21.0253906
		c6.2714844-11.4414063,16.0527344-22.1572266,27.5439453-30.1738281l0.1699219-0.1186523l0.0361328-0.2036133
		c1.2138672-6.7993164,2.3925781-14.0986328,3.5029297-21.6953125l0.7167969-4.9082031l-1.6826172,4.6665039
		c-3.9804688,11.0410156-8.0966797,17.722168-12.5839844,20.4248047c-2.2929688,1.378418-4.7705078,1.765625-7.1728516,1.1171875
		c-3.9980469-1.0786133-6.8632813-4.8115234-8.515625-11.0947266c-1.1113281-4.2192383-1.7216797-9.7666016-1.8330078-16.4760742
		c-0.0068359-0.4301758-0.015625-0.8564453-0.0185547-1.2963867c-0.0009766-0.1098633-0.0048828-0.2133789-0.0048828-0.3237305
		c-0.0019531-0.3486328,0.0029297-0.6987305,0.0039063-1.0478516c0.0292969-9.9633789,1.0439453-20.1181641,1.8447266-26.5966797
		c0.0341797-0.2749023,0.0683594-0.5605469,0.1015625-0.8217773
		C385.0751953,273.3847656,385.1044922,273.1650391,385.1337891,272.9331055z M255.7890625,432.9111328
		c2.8061523-3.0488281,6.1538086-4.7197266,9.7641602-4.8408203l0.21875-0.0214844
		c0.2080078,0,0.4433594,0.0546875,0.7431641,0.1728516c0.3857422,0.109375,0.6660156,0.46875,0.8466797,1.0644531
		c1.628418,7.2236328,7.2993164,11.6396484,14.784668,11.5683594c8.996582-0.1367188,17.7387695-8.2587891,25.9829102-24.1396484
		l0.6201172-1.1943359l-1.2495117,0.5c-7.1884766,2.875-14.7685547,4.0175781-22.5283203,3.3974609
		c-6.4892578-0.5107422-10.9394531-2.6845703-13.2265625-6.4599609c-5.0932617-8.4082031,1.1845703-23.1328125,4.9355469-31.9296875
		c0.6254883-1.4667969,1.1835938-2.7773438,1.6123047-3.8730469c6.496582-16.1806641,4.0004883-23.6928711,0.7626953-27.1455078
		c-3.4277344-3.6542969-9.3813477-4.5507813-15.9306641-2.3989258c-7.1801758,2.3608398-12.6298828,7.6796875-13.2539063,12.9379883
		c-0.559082,5.0224609,2.0668945,8.9638672,6.6870117,10.0410156c0.3481445,0.0830078,0.5703125,0.2373047,0.6796875,0.4707031
		c0.2373047,0.5058594-0.0395508,1.3193359-0.190918,1.6464844c-4.0253906,4.9628906-11.4023438,7.8525391-19.2680664,7.5126953
		c-15.6181641-0.6650391-22.578125-12.0791016-22.4350586-22.4013672c0.0766602-4.9599609,1.78125-9.4086914,4.6367188-13.2724609
		c1.6601563,0.296875,3.3095703,0.4516602,4.9326172,0.4516602c0.9013672,0,1.7949219-0.0458984,2.6782227-0.1376953
		c3.6308594-0.3779297,7.1621094-1.5375977,10.4956055-3.4472656c4.8759766-2.7929688,9.3007813-7.1757813,13.1865234-13.0141602
		c2.5332031-0.3652344,5.0922852-0.5844727,7.6391602-0.6420898c5.2158203-0.112793,10.7133789,0.4345703,15.9619141,1.8051758
		l-0.0004883,0.0141602c-0.0537109,1.2138672,0.4770508,2.3979492,1.4199219,3.1665039
		c0.7255859,0.5917969,1.6513672,0.9008789,2.5141602,0.8637695c0.1694336,0.0161133,0.3339844,0.0239258,0.4951172,0.0239258
		c1.3632813,0,2.4238281-0.5708008,3.1381836-1.3886719c10.1489258,4.6508789,18.0668945,13.2363281,18.9208984,27.2763672
		c0.2788086,4.484375-0.9204102,10.4394531-2.0800781,16.1992188c-1.6938477,8.4140625-3.2939453,16.3613281-0.5317383,20.0214844
		c0.9023438,1.1953125,2.230957,1.8701172,3.9511719,2.0058594c8.2285156,0.6503906,16.0532227-7.3876953,23.2504883-23.8515625
		c2.9692383-6.9453125,12.4960938-30.4731445,10.4057617-41.6567383c-0.1879883-0.8310547-0.0639648-1.4951172,0.378418-2.0307617
		c0.8852539-1.0717773,2.8710938-1.3984375,4.3085938-1.3505859c8.9677734,0.2041016,13.3251953,5.5751953,13.3203125,16.4204102
		v0.0019531c0.0771484,18.6196289-14.8554688,71.3188477-28.5322266,100.6938477
		c-11.6850586,25.1132813-36.9223633,34.9775391-54.7314453,31.5039063
		c-13.2084961-2.5742188-21.1655273-11.6035156-21.831543-24.7744141
		C248.8891602,445.2763672,251.387207,437.6933594,255.7890625,432.9111328z M407.4638672,409.3505859
		c0.7207031-2.2460938,1.5185547-4.4208984,2.3564453-6.4521484c2.0410156-4.9462891,4.3164063-9.0302734,6.2832031-11.1308594
		c3.6816406-3.8837891,10.4619141-4.3027344,15.2060547-3.0478516c2.8203125,0.7460938,4.7714844,2.0166016,5.0908203,3.3154297
		c0.1660156,0.6728516-0.1298828,1.3632813-0.8779297,2.0488281c-3.0849609,2.7822266-6.9189453,21.5810547-5.7910156,25.5253906
		c0.1621094,0.5683594,0.4472656,0.8925781,0.8515625,0.9648438c4.8613281,0.8242188,7.1210938-6.5283203,8.6132813-11.3935547
		c0.2353516-0.7705078,0.4482422-1.4638672,0.6435547-2.0273438c2.3701172-6.7949219,5.4189453-12.6923828,7.9550781-15.3896484
		c3.6816406-3.8828125,10.4638672-4.3027344,15.2050781-3.0478516c2.8203125,0.7460938,4.7714844,2.0166016,5.0917969,3.3164063
		c0.1660156,0.6738281-0.1298828,1.3642578-0.8779297,2.0498047c-3.0849609,2.7841797-6.9160156,21.5820313-5.7880859,25.5244141
		c0.1630859,0.5683594,0.4472656,0.8925781,0.8476563,0.9638672c0.53125,0.0898438,2.1337891,0.3759766,9.9169922-10.9003906
		c1.3583984-1.9414063,3.4277344-2.1787109,4.6826172-1.4130859c1.0097656,0.6142578,1.6806641,2.0498047,0.5400391,4.2402344
		c-6.5908203,11.0898438-19.2539063,29.6787109-30.0576172,29.6787109c-6.1289063,0-10.0175781-3.1201172-11.2470703-9.0214844
		l-0.2285156-1.0986328l-0.6640625,0.9042969c-5.4052734,7.3662109-15.4306641,10.9794922-22.8212891,8.2265625
		c-0.4609375-0.171875-0.8974609-0.3720703-1.3222656-0.5859375c-5.0517578-2.5429688-7.4921875-8.0175781-6.8857422-15.609375
		c0.0654297-0.8691406,0.1611328-1.7568359,0.2783203-2.6552734c0.0244141-0.1904297,0.0507813-0.3818359,0.0771484-0.5732422
		c0.0283203-0.1992188,0.0576172-0.3994141,0.0878906-0.6005859c0.4609375-3.0498047,1.1826172-6.2148438,2.0722656-9.3066406
		c0.109375-0.3789063,0.2216797-0.7568359,0.3349609-1.1337891
		C407.1767578,410.2626953,407.3183594,409.8056641,407.4638672,409.3505859z M403.5507813,421.6083984
		c-1.3144531,0.4931641-2.7128906,0.8417969-4.2128906,1.0458984c-0.3427734,0.0458984-0.6875,0.0898438-1.0400391,0.1220703
		l-0.3105469,0.0283203l-0.1113281,0.2910156c-5.6884766,14.8183594-22.0625,21.1064453-34.6210938,18.6142578
		c-5.3974609-1.0693359-9.6875-3.6484375-12.6582031-7.3974609c-3.171875-4.0019531-4.8378906-9.3388672-4.6816406-15.6464844
		c0.1621094-3.8115234,1.0048828-7.6162109,2.4326172-10.9990234c2.3925781-5.4853516,8.1015625-12.1914063,14.6933594-15.125
		c2.109375-0.9394531,4.3085938-1.5,6.5205078-1.5c0.4736328,0,0.9492188,0.0253906,1.4228516,0.078125l0.1806641,0.0195313
		l0.1513672-0.1005859c1.1171875-0.7460938,2.2314453-1.3710938,3.3388672-1.8789063
		c0.0947266,1.109375,0.28125,2.3671875,0.6591797,3.6308594c0.0800781,0.3261719,0.1650391,0.6484375,0.2607422,0.9628906
		c2.0166016,6.6630859,7.09375,10.4541016,13.9619141,10.4541016c0.1337891,0,0.2685547-0.0009766,0.4042969-0.0039063
		l0.2626953-0.0058594c2.6835938-0.09375,5.2236328-1.0722656,7.6025391-2.9199219
		c1.2958984,3.4130859,2.03125,7.2011719,2.03125,11.0576172c0,0.3515625-0.0195313,0.7226563-0.0390625,1.09375
		c-0.0205078,0.3876953-0.0410156,0.7763672-0.0410156,1.1425781v0.5498047l0.546875-0.0517578
		c0.1396484-0.0136719,0.2705078-0.0439453,0.4082031-0.0625c1.6884766-0.2265625,3.2001953-0.8525391,4.5849609-1.9072266
		C404.5429688,415.9384766,403.9394531,418.8164063,403.5507813,421.6083984z M331.0576172,333.3027344
		c1.9150391,9.6591797-9.0976563,39.2753906-16.2861328,50.1337891
		c3.9121094-21.4726563-4.1513672-29.0566406-14.5292969-43.1870117
		c-4.0322266-5.8525391-9.7324219-10.175293-16.3310547-13.0947266c2.3344727-13.6147461,6.3769531-27.1005859,11.246582-37.40625
		c2.4086914-5.1010742,4.855957-9.1303711,7.2739258-11.9780273c0.8671875-0.6455078,1.4863281-0.9985352,1.8969727-1.1914063
		c0.2207031,0.7353516,0.5087891,2.2651367,0.5302734,5.2670898c0.0263672,3.7587891-0.3515625,8.4570313-0.7514648,13.4311523
		c-1.1010742,13.7280273-2.2402344,27.9238281,3.6235352,34.3032227c1.9873047,2.1611328,4.6523438,3.3085938,7.6923828,3.3183594
		l0.1132813,0.0004883c0.1499023-0.0029297,0.2988281-0.0166016,0.4448242-0.0366211
		c0.1450195,0.0083008,0.2895508,0.0141602,0.4370117,0.0161133c0.1694336,0.0009766,0.3378906,0.0009766,0.5087891-0.0019531
		c9.9614258-0.2124023,17.7426758-10.7324219,22.5161133-19.5200195c0.6904297-1.2709961,1.3613281-2.5864258,2.0097656-3.9355469
		c0.6503906,5.4335938,1.7314453,10.5195313,3.4560547,14.4477539
		C337.1933594,322.2973633,329.5356445,325.8491211,331.0576172,333.3027344z M364.4277344,342.5644531l-7.3291016-10.019043
		c1.2353516-0.0463867,2.4921875-0.2749023,3.7402344-0.6933594c5.9833984-2,11.9667969-8.1132813,17.3027344-17.6796875
		c1.4160156-2.5385742,2.7617188-5.2875977,4.0332031-8.2148438c0.2011719,5.7993164,0.8037109,10.6713867,1.8085938,14.4887695
		c1.75,6.6547852,4.8535156,10.6269531,9.2216797,11.8061523c2.6669922,0.7207031,5.4169922,0.2973633,7.9492188-1.2265625
		c4.0654297-2.4482422,7.8027344-7.9169922,11.3701172-16.6606445c-0.8964844,5.8896484-1.8300781,11.5688477-2.7871094,16.9370117
		c-11.7050781,8.2036133-21.2744141,18.7099609-27.6787109,30.3950195
		c-4.0869141,7.4570313-6.6220703,15.1494141-7.2519531,21.8398438c-1.6455078,0.5683594-3.2509766,1.3144531-4.796875,2.2167969
		c-1.8691406,0-3.7304688,0.28125-5.5527344,0.7929688c0.1757813-0.7695313,0.3583984-1.5439453,0.5283203-2.3066406
		C367.8603516,371.5449219,372.3300781,353.2617188,364.4277344,342.5644531z M264.71875,372.4199219
		c1.4365234-3.671875,6.7871094-6.8652344,11.734375-7.7441406c-1.1181641,6.0683594-3.4296875,11.2578125-5.5078125,16.2851563
		L264.71875,372.4199219z"/>
	<path d="M368.6816406,406.9765625l-0.4736328-0.8134766l-0.4091797,0.8466797
		c-1.9365234,4.0019531-3.3925781,9.2050781-1.6738281,11.8056641c0.7431641,1.125,1.9794922,1.6933594,3.6738281,1.6933594
		c0.125,0,0.2529297-0.0029297,0.3837891-0.0087891c2.1816406-0.0810547,4.3037109-1.4785156,6.1347656-4.0390625
		l0.2724609-0.3808594l-0.3613281-0.296875C373.1064453,413.2197266,370.6376953,410.3388672,368.6816406,406.9765625z"/>
	<path d="M222.4853516,248.5458984c5.300293-6.484375,8.2783203-13.3393555,7.9663086-18.3369141l-0.0224609-0.3564453
		l-0.3442383-0.0947266c-3.6025391-0.9868164-7.3925781,0.7094727-11.269043,5.0454102
		c-5.0732422,5.6728516-9.7822266,15.371582-13.2592773,27.3100586l-0.3769531,1.2929688l1.1293945-0.734375
		C212.8613281,258.4116211,218.3037109,253.6591797,222.4853516,248.5458984z M229.4692383,230.6362305
		c0.0849609,3.7294922-1.8964844,10.1054688-7.7583008,17.2768555c-3.8710938,4.7329102-8.847168,9.1572266-14.8032227,13.1645508
		c3.3925781-11.1928711,7.8642578-20.2519531,12.6533203-25.6074219c2.9628906-3.3134766,5.8232422-4.9819336,8.5283203-4.9819336
		C228.5537109,230.4882813,229.0141602,230.5375977,229.4692383,230.6362305z"/>
	<path d="M361.0751953,256.534668c10.6650391-25.394043,9.1660156-33.7128906,8.0263672-36.1103516
		c-0.1513672-0.3222656-0.3173828-0.5927734-0.5048828-0.828125l-0.1171875-0.1469727l-0.1845703-0.0332031
		c-3.0429688-0.546875-8.0498047,6.7587891-12.3066406,24.3334961c-2.2822266,9.4316406-4.1132813,20.9282227-5.1533203,32.3710938
		l-0.2324219,2.5551758l1.1748047-2.2807617C354.1416016,271.8056641,357.6728516,264.6347656,361.0751953,256.534668z
		 M367.9404297,220.3911133c0.0908203,0.1352539,0.1757813,0.2875977,0.2578125,0.4614258l0.0009766,0.0004883
		c1.0810547,2.2768555,2.4628906,10.2729492-8.0458984,35.2939453c-2.8564453,6.7998047-5.8037109,12.9433594-8.0703125,17.4448242
		c1.0654297-10.5185547,2.7792969-20.9404297,4.8779297-29.6069336
		C361.6171875,224.7568359,366.3730469,220.4829102,367.9404297,220.3911133z"/>
	<path d="M387.9580078,364.9316406c-3.3291016,6.0712891-5.4804688,12.1171875-6.2773438,17.3798828
		c-0.2236328,1.4814453-0.3349609,2.8955078-0.3398438,4.2363281c-0.0009766,0.1679688-0.0029297,0.3378906,0,0.5039063
		c0.0029297,0.171875,0.0136719,0.3369141,0.0205078,0.5058594c0.046875,1.1728516,0.1748047,2.2841797,0.4082031,3.3085938
		l0.0078125,0.0322266c0.3173828,1.0615234,0.7958984,1.8662109,1.421875,2.3916016
		c0.7617188,0.6386719,1.8574219,0.9589844,3.2705078,0.9589844c0.6533203,0,1.375-0.0683594,2.1621094-0.2060547
		c0.6484375-0.1132813,1.7509766-0.5644531,3.1962891-2.1015625c0.109375-0.1162109,0.2197266-0.2392578,0.3330078-0.3681641
		c0.1064453-0.1210938,0.2138672-0.2470703,0.3232422-0.3798828c0.734375-0.890625,1.5429688-2.0556641,2.4140625-3.5693359
		c1.4677734-2.5517578,3.1113281-6.0976563,4.8769531-11.0371094c3.1289063-8.7470703,6.1748047-20.5410156,9.0546875-35.0532227
		l0.2724609-1.3740234l-1.0810547,0.8911133C399.7001953,347.909668,392.7617188,356.1679688,387.9580078,364.9316406z
		 M383.8417969,392.5244141c-0.4707031-0.3955078-0.8408203-1.0332031-1.1015625-1.8964844
		c-0.2119141-0.9365234-0.3271484-1.9619141-0.3691406-3.046875c1.984375,0.1181641,3.9111328,0.6591797,5.7470703,1.640625
		c1.0351563,0.5537109,2.0175781,1.2519531,2.9501953,2.0498047c-1.3603516,1.4375-2.2822266,1.7304688-2.6083984,1.7871094
		C386.2724609,393.4375,384.71875,393.2578125,383.8417969,392.5244141z M388.7685547,383.5996094
		c-2.0195313-0.7734375-4.0458984-1.1796875-6.0537109-1.2724609c0.8076172-5.1376953,2.9189453-11.0751953,6.1201172-16.9150391
		c4.5332031-8.2695313,10.9931641-16.0849609,18.7353516-22.6787109
		c-2.7871094,13.8251953-5.7255859,25.0966797-8.7363281,33.5175781c-1.7197266,4.8105469-3.3105469,8.2431641-4.7070313,10.6953125
		C392.4277344,385.5166016,390.6425781,384.3457031,388.7685547,383.5996094z"/>
	<path d="M491,466c-10.5537109,14.1083984-23.6699219,19.7773438-29,22c-2.9384766,1.2255859-16.6171875,6.7011719-34,5
		c-2.78125-0.2724609-9.3769531-0.9902344-14.7060547-3.625C417.4736328,486.6298828,421.4755859,483.0078125,421,479
		c-0.4882813-4.1152344-5.6298828-8.0820313-11-8c-5.7441406,0.0878906-10.6777344,4.7919922-11,9
		c-0.2792969,3.6464844,2.8886719,7.1669922,7.1064453,10.1220703C402.4648438,491.5498047,398.7939453,492.5244141,397,493
		c-4.4111328,1.1689453-18.3408203,4.8535156-30.0703125,2.6728516C371.5986328,491.3574219,375.7490234,485.6201172,375,479
		c-0.828125-7.3251953-7.6699219-15.8623047-17-16c-8.4648438-0.125-16.4609375,6.7001953-17,14
		c-0.5703125,7.7255859,7.4003906,13.4257813,11,16c2.3984375,1.7148438,4.9306641,3.0869141,7.5449219,4.1757813
		C350.4384766,504.7998047,336.574707,507.0839844,331,508c-6.96875,1.1455078-19.0380859,2.1230469-34-2
		c8.8374023,3.0166016,37.0107422,11.3876953,60-3c1.4980469-0.9375,3.9013672-2.4433594,6.4716797-4.4208984
		C378.5878906,503.1210938,395.7216797,498.9775391,407,493c0.5849609-0.3095703,1.2470703-0.6611328,1.9560547-1.0488281
		C412.71875,494.1689453,416.8476563,495.9355469,420,497c21.2675781,7.1806641,51.2617188,0.3779297,69-21
		c14.4316406-17.3935547,15.1220703-37.6513672,15-45C503.5507813,437.1699219,501.6367188,451.7802734,491,466z M354,489
		c-1.0810547-1.2285156-5.0693359-5.7578125-4-11c0.5791016-2.8398438,2.6787109-6.0634766,6-7
		c4.5458984-1.2822266,9.2148438,2.3330078,11,6c2.3535156,4.8339844-0.1230469,10.1269531-1,12
		c-0.9501953,2.03125-2.1962891,3.8369141-3.6416016,5.4560547C359.1494141,493.3085938,356.2607422,491.5673828,354,489z M407,484
		c-0.5302734-0.8925781-1.8554688-3.1220703-1-5c0.9863281-2.1660156,4.5703125-3.2001953,7-2
		c1.8632813,0.9199219,3.0810547,3.171875,3,5c-0.1025391,2.3037109-2.2851563,4.2880859-5.1757813,5.9248047
		C409.2763672,486.8554688,407.9355469,485.5742188,407,484z"/>
	<path d="M521.2431641,381.5625c-2.5869141-1.4335938-6.7519531,1.2441406-9.5136719,3.0166016
		c-2.6513672,1.7021484-4.9179688,3.9033203-6.7460938,6.5478516c-2.0859375-2.7763672-4.7539063-5.0400391-7.7558594-6.5722656
		c-2.9716797-1.5166016-7.0390625-3.5957031-9.5029297-1.9716797c-4.2910156,2.8310547-0.9335938,15.5205078,2.8212891,23.6269531
		c3.2128906,6.9345703,7.9677734,13.0488281,14.1347656,18.1748047l0.3232422,0.2685547l0.3203125-0.2724609
		c7.1376953-6.0791016,12.2333984-13.2148438,15.1455078-21.2099609
		C522.6484375,397.1914063,525.703125,384.0410156,521.2431641,381.5625z M491.4541016,405.7900391
		c-3.6396484-7.8574219-6.7695313-20.0029297-3.1787109-22.3730469c0.4501953-0.296875,1.0029297-0.421875,1.6181641-0.421875
		c2.0791016,0,4.875,1.4267578,6.8789063,2.4501953c3.0664063,1.5644531,5.7695313,3.9306641,7.8183594,6.8427734
		l0.4257813,0.6044922l0.4023438-0.6201172c1.8164063-2.7939453,4.1210938-5.0996094,6.8535156-6.8525391
		c2.4052734-1.5439453,6.4326172-4.1230469,8.484375-2.9824219c3.3652344,1.8691406,1.4501953,13.0439453-1.2265625,20.3916016
		c-2.8085938,7.7099609-7.6982422,14.6103516-14.5341797,20.515625
		C499.1015625,418.3701172,494.546875,412.4667969,491.4541016,405.7900391z"/>
	<path d="M456.6806641,365.625l0.3613281,0.2148438l0.2744141-0.3183594
		c5.0712891-5.8935547,8.3330078-12.3930664,9.6962891-19.3173828c1.2119141-6.152832,1.6914063-16.4438477-2.1806641-17.8662109
		c-2.34375-0.8642578-5.4335938,1.8803711-7.4814453,3.6972656c-1.9306641,1.7124023-3.4921875,3.7739258-4.6494141,6.1357422
		c-2.0498047-1.9716797-4.5-3.4594727-7.1308594-4.3222656c-2.6445313-0.8676758-6.2636719-2.0537109-8.1064453-0.3808594
		c-3.4882813,3.1738281,2.0712891,14.2207031,5.3105469,19.0732422
		C446.2939453,357.8115234,450.9726563,362.2138672,456.6806641,365.625z M440.0703125,333.6254883
		c1.6103516,0,3.6621094,0.6728516,5.1894531,1.1738281c2.6972656,0.8847656,5.1972656,2.4667969,7.2324219,4.5751953
		l0.5126953,0.5322266l0.3027344-0.6748047c1.1240234-2.5053711,2.7070313-4.6748047,4.7089844-6.4506836
		c1.7539063-1.5556641,4.6933594-4.1586914,6.4697266-3.5048828c2.9453125,1.0820313,2.7900391,10.4140625,1.5458984,16.734375
		c-1.3046875,6.6274414-4.3994141,12.8613281-9.1992188,18.5371094c-5.4169922-3.3027344-9.8652344-7.5273438-13.2265625-12.5625
		c-4.4697266-6.6958008-7.8154297-15.6435547-5.4697266-17.7773438
		C438.6005859,333.7866211,439.2832031,333.6254883,440.0703125,333.6254883z"/>
	<path d="M480.8535156,358.7128906c1.1826172,5.5537109,3.6162109,10.7666016,7.234375,15.4941406l0.2558594,0.3339844
		l0.3730469-0.1943359c6.1728516-3.2246094,11.0410156-7.5507813,14.4697266-12.8603516
		c3.0527344-4.7255859,6.8632813-13.1489258,4.0917969-15.6347656c-1.6826172-1.5097656-5.1767578-0.2495117-7.4931641,0.5859375
		c-2.1533203,0.777832-4.1210938,1.9609375-5.8574219,3.5214844c-1.0537109-2.296875-2.5917969-4.3271484-4.4785156-5.9033203
		c-1.9199219-1.6049805-4.5478516-3.8027344-6.6621094-3.0087891
		C478.8056641,342.5410156,479.7646484,353.59375,480.8535156,358.7128906z M488.8085938,344.8232422
		c1.9404297,1.6210938,3.4892578,3.7563477,4.4794922,6.1743164l0.2802734,0.684082l0.5302734-0.5146484
		c1.7597656-1.7055664,3.7871094-2.9804688,6.0292969-3.7900391c1.9619141-0.7080078,5.2431641-1.894043,6.4824219-0.78125
		c1.8671875,1.675293-0.7480469,8.90625-4.2636719,14.3476563c-3.2646484,5.0546875-7.8789063,9.1982422-13.7197266,12.3193359
		c-3.3867188-4.5185547-5.671875-9.4814453-6.7949219-14.7587891c-1.4941406-7.0214844-1.3242188-15.5336914,1.3066406-16.5205078
		c0.1884766-0.0708008,0.3896484-0.1035156,0.6005859-0.1035156
		C485.2880859,341.8798828,487.3710938,343.621582,488.8085938,344.8232422z"/>
	<path d="M468.8349609,321.7597656c1.4345703,2.0288086,1.7607422,4.4462891,2.1416016,7.2734375
		c0.21875,1.6157227,0.2607422,2.9736328,0.2578125,3.9169922c0.0019531-0.9223633,0.0888672-2.2646484,0.5058594-3.815918
		c0.3427734-1.2783203,1.0146484-3.7792969,3.0986328-5.8017578c2.7529297-2.6708984,6.2949219-2.8828125,7.375-2.9057617
		c-3.6298828-0.6010742-5.2763672-2.4350586-5.8017578-3.0986328c-1.4404297-1.8164063-1.7197266-3.9868164-2.1425781-7.2734375
		c-0.2070313-1.6079102-0.2548828-2.9619141-0.2578125-3.9169922c-0.2539063,0.8911133-0.6582031,2.1894531-1.2685547,3.7148438
		c-1.140625,2.8500977-1.8251953,4.5610352-3.0986328,5.8017578c-2.4580078,2.3935547-6.2861328,2.2382813-8.0371094,2.0410156
		C463.1865234,317.9555664,466.7373047,318.7929688,468.8349609,321.7597656z"/>
	<path d="M474.4482422,373.0439453c2.2519531-2.4433594,5.3056641-2.7978516,6.2382813-2.8701172
		c-3.1689453-0.3447266-4.6806641-1.8505859-5.1679688-2.3994141c-1.3330078-1.5019531-1.6796875-3.3652344-2.2041016-6.1875
		c-0.2568359-1.3808594-0.3632813-2.5498047-0.4121094-3.3759766c-0.1767578,0.7832031-0.4638672,1.9257813-0.9179688,3.2744141
		c-0.8486328,2.5205078-1.3583984,4.0332031-2.4003906,5.1679688c-2.0097656,2.1894531-5.3291016,2.2392578-6.8525391,2.1542969
		c1.3779297,0.1484375,4.4892578,0.7011719,6.4472656,3.1660156c1.3388672,1.6855469,1.7382813,3.7607422,2.2050781,6.1875
		c0.2666016,1.3867188,0.3681641,2.5595703,0.4111328,3.3759766c-0.0419922-0.7978516-0.03125-1.9638672,0.2539063-3.3251953
		C472.2832031,377.0898438,472.7431641,374.8935547,474.4482422,373.0439453z"/>
	<path d="M434.0439453,369.5c2.71875-2.8867188,6.3681641-3.2695313,7.4833984-3.34375
		c-3.7783203-0.4521484-5.5634766-2.2705078-6.1376953-2.9316406c-1.5712891-1.8095703-1.9609375-4.0390625-2.5507813-7.4140625
		c-0.2890625-1.6513672-0.4003906-3.0478516-0.4482422-4.0341797c-0.2207031,0.9321289-0.5791016,2.2924805-1.1386719,3.8959961
		c-1.0449219,2.9975586-1.6728516,4.7963867-2.9316406,6.137207c-2.4267578,2.5869141-6.3896484,2.6035156-8.2070313,2.4814453
		c1.6435547,0.1953125,5.3496094,0.8955078,7.6542969,3.8632813c1.5761719,2.0292969,2.0253906,4.5107422,2.5507813,7.4140625
		c0.3007813,1.6591797,0.4072266,3.0595703,0.4482422,4.0341797c-0.0400391-0.953125-0.0126953-2.34375,0.3457031-3.9648438
		C431.4072266,374.3007813,431.984375,371.6855469,434.0439453,369.5z"/>
	<path d="M507.6103516,368.0908203c-0.8818359,2.0429688-1.4101563,3.2695313-2.3574219,4.1435547
		c-1.8271484,1.6865234-4.5976563,1.5-5.8623047,1.3232422c1.1386719,0.21875,3.6953125,0.8945313,5.1572266,3.0849609
		c1,1.4970703,1.1894531,3.2548828,1.4111328,5.3115234c0.1269531,1.1748047,0.1308594,2.1591797,0.1113281,2.8427734
		c0.0195313-0.6679688,0.1083984-1.6386719,0.4404297-2.7548828c0.2724609-0.9199219,0.8076172-2.71875,2.3574219-4.1435547
		c2.0458984-1.8818359,4.6162109-1.9667969,5.3994141-1.9619141c-2.6181641-0.5068359-3.7753906-1.8671875-4.1435547-2.3583984
		c-1.0078125-1.34375-1.1689453-2.921875-1.4111328-5.3115234c-0.1191406-1.1689453-0.1279297-2.1503906-0.1113281-2.8427734
		C508.4003906,366.0644531,508.0820313,366.9980469,507.6103516,368.0908203z"/>
	<path d="M243.3295898,416.6347656c-2.2680664-2.4931641-2.8876953-5.6152344-3.8256836-10.3417969
		c-0.4589844-2.3125-0.6616211-4.2724609-0.7597656-5.6582031c-0.2802734,1.3183594-0.7402344,3.2421875-1.4750977,5.515625
		c-1.3735352,4.2480469-2.1977539,6.7978516-3.9238281,8.7236328c-3.3291016,3.7158203-8.8989258,3.8681641-11.4584961,3.7548828
		c2.3164063,0.2216797,7.550293,1.0859375,10.8867188,5.1835938c2.28125,2.8017578,2.9931641,6.2773438,3.8256836,10.3417969
		c0.4760742,2.3232422,0.6713867,4.2890625,0.7597656,5.6582031c-0.0874023-1.3388672-0.0932617-3.2949219,0.3579102-5.5869141
		c0.371582-1.8886719,1.0986328-5.5839844,3.9238281-8.7236328c3.7294922-4.1464844,8.8481445-4.8046875,10.4130859-4.9433594
		C246.7275391,420.0439453,244.1582031,417.5458984,243.3295898,416.6347656z"/>
	<path d="M215.7441406,402.328125c-1.4394531-1.8164063-1.71875-3.9863281-2.1420898-7.2734375
		c-0.2070313-1.6074219-0.2543945-2.9619141-0.2573242-3.9169922c-0.2539063,0.8916016-0.6586914,2.1904297-1.269043,3.7148438
		c-1.140625,2.8505859-1.824707,4.5615234-3.0991211,5.8017578c-2.4570313,2.3935547-6.2851563,2.2382813-8.0361328,2.0419922
		c1.5791016,0.2597656,5.1289063,1.0966797,7.2270508,4.0634766c1.434082,2.0292969,1.7602539,4.4462891,2.1420898,7.2734375
		c0.2182617,1.6162109,0.2602539,2.9746094,0.2573242,3.9169922c0.0024414-0.921875,0.0893555-2.2636719,0.5058594-3.8154297
		c0.3432617-1.2783203,1.0146484-3.7792969,3.0991211-5.8017578c2.7519531-2.6708984,6.2944336-2.8828125,7.3740234-2.9052734
		C217.9165039,404.8261719,216.2705078,402.9921875,215.7441406,402.328125z"/>
	<path d="M230.0371094,438.1914063c-0.5009766-2.0087891-0.7617188-3.71875-0.9067383-4.9296875
		c-0.1899414,1.1679688-0.5112305,2.875-1.059082,4.8994141c-1.0239258,3.7841797-1.6386719,6.0556641-3.0708008,7.8173828
		c-2.7617188,3.4003906-7.6401367,3.7705078-9.8901367,3.7802734c2.0415039,0.0957031,6.6679688,0.6318359,9.7680664,4.0839844
		c2.1196289,2.3603516,2.8916016,5.3779297,3.7944336,8.9072266c0.5161133,2.0166016,0.7705078,3.7333984,0.9067383,4.9296875
		c-0.1337891-1.1699219-0.222168-2.8857422,0.0761719-4.9150391c0.2460938-1.671875,0.7270508-4.9433594,3.0708008-7.8173828
		c3.0952148-3.7949219,7.5561523-4.5888672,8.9228516-4.7773438c-4.6928711-0.2246094-7.0522461-2.3066406-7.8178711-3.0703125
		C231.7368164,445.0087891,231.0605469,442.2978516,230.0371094,438.1914063z"/>
</g>
</svg>
