<?xml version="1.0" encoding="utf-8"?>
<!-- Generator: Adobe Illustrator 22.0.1, SVG Export Plug-In . SVG Version: 6.00 Build 0)  -->
<svg version="1.1" id="Шар_1" xmlns="http://www.w3.org/2000/svg" xmlns:xlink="http://www.w3.org/1999/xlink" x="0px" y="0px"
	 viewBox="0 0 714 714" style="enable-background:new 0 0 714 714;" xml:space="preserve">
<style type="text/css">
	.st0{fill:#FFFFFF;}
	.st1{fill:#A22E39;}
	.st2{fill:#F9CEA7;}
	.st3{fill:#EA7878;}
</style>
<g>
	<path class="st0" d="M419.1992188,336.1953125c1.3535156-7.5761719,2.5234375-14.9912109,3.5-21.6796875
		c-4.0175781,11.1425781-8.2167969,17.9248047-12.796875,20.6816406c-2.4101563,1.4521484-5.0253906,1.8583984-7.5585938,1.1738281
		c-4.1835938-1.1298828-7.1679688-4.9833984-8.8710938-11.4521484c-1.125-4.2802734-1.7431641-9.9033203-1.8486328-16.6982422
		c-1.5234375,3.7207031-3.1650391,7.1748047-4.9130859,10.3085938
		c-5.2734375,9.4550781-11.1601563,15.4892578-17.0234375,17.4492188c-1.2792969,0.4287109-2.5488281,0.6533203-3.7890625,0.6796875
		l-0.1992188-0.0048828l7.7285156,10.5644531c7.9023438,10.6972656,3.4326172,28.9804688,0.5576172,41.6757813
		c-0.1699219,0.7626953-0.3525391,1.5371094-0.5283203,2.3066406c1.8222656-0.5117188,3.6835938-0.7929688,5.5527344-0.7929688
		c1.7089844-0.9970703,3.4892578-1.8056641,5.3164063-2.390625c0.640625-6.5292969,3.0830078-14.0048828,7.1777344-21.4775391
		C397.8789063,354.9072266,407.6035156,344.2841797,419.1992188,336.1953125z"/>
	<path class="st0" d="M397.4023438,369.7724609c-3.2822266,5.9902344-5.4111328,11.9980469-6.2050781,17.2001953
		c2.1767578,0.0419922,4.3779297,0.4404297,6.5712891,1.2802734c2.0117188,0.8007813,3.9208984,2.0869141,5.7314453,3.6630859
		c1.4375-2.5029297,3.0615234-5.9980469,4.8125-10.8964844c3.125-8.7373047,6.1601563-20.4951172,9.0332031-34.9824219
		C409.1113281,352.8242188,402.2148438,360.9931641,397.4023438,369.7724609z"/>
	<path class="st0" d="M348.0102539,317.71875c-4.7353516,8.7177734-12.3818359,19.0517578-22.0878906,19.2587891
		c-0.1640625,0.0039063-0.328125,0.0039063-0.4921875,0.0019531c-0.1552734-0.0019531-0.3085938-0.0087891-0.4628906-0.0185547
		c-0.1416016,0.0214844-0.2871094,0.0361328-0.4335938,0.0390625h-0.0869141
		c-2.9130859-0.0097656-5.4511719-1.1015625-7.3408203-3.15625c-5.7158203-6.21875-4.5859375-20.3046875-3.4931641-33.9257813
		c0.4003906-4.9921875,0.7783203-9.7060547,0.7519531-13.4736328c-0.0273438-3.8212891-0.4794922-5.3525391-0.7382813-5.9189453
		c-0.4023438,0.1289063-1.2099609,0.4892578-2.5322266,1.4785156c-2.1923828,2.5703125-4.71875,6.4902344-7.3828125,12.1318359
		c-4.8793945,10.3291016-8.9311523,23.8349609-11.2744141,37.4716797
		c6.7983398,2.9199219,12.6772461,7.3037109,16.8051758,13.2949219c10.3779297,14.1308594,18.4414063,21.7148438,14.5292969,43.1875
		c7.1884766-10.8583984,18.2011719-40.4746094,16.2861328-50.1337891
		c-1.5634766-7.6582031,6.5639648-11.1904297,14.4882813-9.2851563c-1.9995117-4.3291016-3.1606445-10.2167969-3.7929688-16.4580078
		C349.8813477,314.1132813,348.9658203,315.9599609,348.0102539,317.71875z"/>
	<path class="st0" d="M377.65625,225.2392578c-0.1269531-0.2685547-0.2695313-0.5126953-0.4433594-0.7294922
		c-2.3007813-0.4150391-7.2832031,5.5878906-11.7304688,23.9589844c-2.3320313,9.6259766-4.1171875,21.0078125-5.1425781,32.2978516
		c2.9238281-5.6777344,6.2597656-12.6337891,9.28125-19.8251953
		C380.2070313,235.7353516,378.7675781,227.5771484,377.65625,225.2392578z"/>
	<path class="st0" d="M231.1044922,252.8310547c5.9057617-7.2246094,8.112793-13.8574219,7.8549805-17.9892578
		c-3.4023438-0.9326172-7.0205078,0.7099609-10.7646484,4.8964844c-5.1728516,5.7841797-9.8208008,15.6796875-13.1518555,27.1162109
		C222.6962891,261.8769531,227.7944336,256.8789063,231.1044922,252.8310547z"/>
	<path class="st0" d="M285.453125,369.3291016c-4.9472656,0.8789063-10.2978516,4.0722656-11.734375,7.7441406l6.2265625,8.5410156
		C282.0234375,380.5869141,284.3349609,375.3974609,285.453125,369.3291016z"/>
	<path class="st0" d="M536.5,391.1533203c-0.3642578-1.6816406-1.4873047-6.8701172-5-8
		c-0.9570313-0.3076172-1.8564453-0.2382813-3,0c-2.0849609,0.4345703-6.2089844,1.6865234-11,6
		c0.4101563-1.2001953,1.2539063-3.1435547,3-5c2.6210938-2.7851563,5.6943359-3.6943359,7-4
		c-1.2402344-0.5507813-4.2460938-2.0830078-6.5-5.5c-2.3720703-3.5957031-2.5136719-7.1572266-2.5-8.5
		c-0.3818359,1.0654297-1.6796875,4.2480469-5,6c-1.0966797,0.578125-2.1474609,0.8603516-3,1
		c5.7548828-4.9658203,8.0380859-10.1591797,9-13c0.7304688-2.1572266,3.4228516-10.1025391,0-13
		c-1.2910156-1.0927734-2.9609375-1.0517578-5-1c-4.9316406,0.1240234-8.7685547,2.3564453-11,4
		c-2.21875-5.4619141-6.8916016-8.6210938-11-8c-2.9912109,0.4521484-4.8300781,2.7792969-5,3
		c-1.9072266,2.4853516-1.8056641,5.5429688-1,11c0.6181641,4.1884766,1.65625,9.8320313,3.5,16.5
		c-1.0107422-0.4414063-2.6347656-1.3183594-4-3c-0.6054688-0.7460938-1.2568359-1.7705078-2-4
		c-0.6230469-1.8691406-1.3632813-4.7470703-1.5-8.5c-1.0019531,3.7978516-2.4140625,6.6376953-3.5,8.5
		c-1.296875,2.2236328-2.1962891,3.7275391-4,5c-2.6542969,1.8720703-5.5498047,2.0302734-7,2
		c2.4482422-2.4472656,6.9306641-7.5791016,9.5-15.5c2.4609375-7.5869141,1.9873047-14.0996094,1.5-17.5
		c0.6669922,0.6669922,1.3330078,1.3330078,2,2c0.1279297-1.4248047,0.7939453-6.9736328,5.5-11.5
		c4.3886719-4.2216797,9.4960938-4.8652344,11-5c-1.5283203-0.5166016-7.4189453-2.7080078-11-9
		c-2.8046875-4.9287109-2.6542969-9.6679688-2.5-11.5c-0.1835938,1.2529297-1.5410156,9.5791016-9,14
		c-3.8076172,2.2568359-7.5507813,2.5146484-9.5,2.5c1.5273438,0.4150391,5.4570313,1.7080078,8.5,5.5
		c1.8164063,2.2626953,2.6220703,4.5507813,3,6c-0.4394531-0.2275391-5.828125-2.9091797-11,0
		c-3.3691406,1.8955078-4.6503906,5.0400391-5,6c-1.1132813-1.0810547-3.4501953-3.0478516-7-4
		c-5.3076172-1.4228516-9.6933594,0.3974609-11,1c5.7089844-3.3408203,16.6142578-10.8583984,23.5-24.5
		c3.0019531-5.9462891,4.03125-10.6240234,6-20c2.9804688-14.1923828,1-16.9433594,0-18
		c-2.6572266-2.8095703-7.5068359-3.2988281-11-2c-1.0244141,0.3808594-4.1894531,1.7548828-8,10
		c-3.5195313,7.6162109-3.0966797,11.3740234-5,17c-1.4863281,4.3955078-4.6064453,10.5615234-12,17
		c0.5244141-1.6855469,1.2402344-4.0898438,2-7c1.2216797-4.6816406,3.265625-12.6484375,4-22
		c0.8701172-11.0810547,1.3046875-16.6201172-2-20c-3.8847656-3.9716797-11.3535156-4.8984375-16-2
		c-3.1318359,1.9541016-3.8691406,4.9511719-7,17c-3.8857422,14.9550781-5.5410156,21.0800781-6,21
		c-0.6025391-0.1044922-0.3076172-11.1035156,1-23c0.546875-4.9716797,1.0898438-8.4619141-1-12
		c-1.7490234-2.9609375-5.046875-5.4570313-9-6c-4.8837891-0.6708984-8.5605469,1.9423828-10,3
		c-3.546875,2.6054688-5.2460938,6.0185547-8,14c-4.7265625,13.6982422-4.2226563,16.6904297-8,25
		c-2.6064453,5.7333984-7.0820313,13.6279297-9,13c-0.3662109-0.1201172-0.9082031-0.6386719-1-5
		c-0.0820313-3.8925781,0.2265625-9.3847656,2-16c1.3408203-2.7148438,3.4208984-6.9023438,6-12
		c11.0927734-21.9267578,12.8486328-23.9775391,15-31c2.2998047-7.5078125,5.0742188-16.5664063,2-27
		c-0.9365234-3.1767578-4.3349609-14.7138672-13-17c-10.2539063-2.7060547-20.6674805,9.4453125-22,11
		c-10.359375,12.0888672-11.1586914,28.6083984-12,46c-0.3496094,7.2216797-0.1547852,14.0791016-2,25
		c-0.6040039,3.5751953-1.9672852,10.7861328-6,19c-2.0844727,4.2451172-5.7304688,10.4892578-7,10
		c-0.921875-0.3544922-0.0341797-4.0458984,1-11c0.7094727-4.7724609,2.0703125-14.1142578,2-23
		c-0.0805664-10.2275391-0.1210938-15.3466797-4-19c-5.7036133-5.3720703-15.0859375-3.2226563-16-3
		c-6.0844727,1.4833984-9.7158203,5.4482422-11,7c-1.9384766-3.2763672-5.4350586-5.2373047-9-5
		c-4.1982422,0.2802734-7.8769531,3.5683594-8.8383789,8.0488281c1.2666016-7.5751953,2.2265625-20.6328125-3.1616211-35.0488281
		c-2.5058594-6.7041016-8.4257813-22.5439453-24-30c-2.8295898-1.3544922-12.2636719-5.7119141-23-3
		c-2.690918,0.6796875-7.4296875,1.9404297-11,6c-3.4887695,3.9667969-2.9946289,7.3447266-5,13
		c-3.0854492,8.7001953-7.684082,10.3691406-12.5,17.5c-3.4438477,5.0986328-7.2241211,13.3242188-7.5,26.5
		c-1.7050781,0.3994141-4.2919922,1.2138672-7,3c-2.1855469,1.4404297-5.6386719,3.7177734-7,8
		c-0.1967773,0.6181641-2.3198242,7.6416016,2,11c3.1420898,2.4423828,7.4213867,1.1806641,8,1
		c-1.6362305,11.359375-0.2651367,20.4736328,1,26c1.5883789,6.9365234,3.8032227,16.6123047,12,25
		c4.0141602,4.1074219,8.1621094,6.5761719,11,8c-3.0493164,6.6015625-3.1630859,12.1259766-3,15
		c0.2744141,4.8339844,1.6982422,8.5761719,3,12c1.6416016,4.3164063,3.5380859,7.6884766,5,10
		c-0.1005859,1.5546875-0.4243164,3.890625-1.5,6.5c-1.9243164,4.6660156-5.0649414,7.3173828-6.5,8.5
		c-3.1557617,2.6005859-6.3510742,3.8632813-8.5,4.5c2.3920898,0.6240234,6.5839844,2.1357422,9,6
		c0.6865234,1.0976563,1.1625977,2.2783203,2,6c0.6616211,2.9404297,1.4462891,7.0107422,2,12
		c1.078125-1.2285156,3.0507813-3.0927734,6-4c6.1196289-1.8818359,13.0263672,1.4091797,16.5,6.5
		c3.2226563,4.7226563,2.7255859,9.8740234,2.5,11.5c-1.2104492-1.3535156-2.7280273-3.3408203-4-6
		c-1.0913086-2.28125-1.6743164-4.3740234-2-6c-0.1772461,1.9921875-1.0537109,9.1181641-7,15
		c-4.8276367,4.7753906-10.3344727,6.0986328-12.5,6.5c2.8012695,1.0732422,7.894043,3.4580078,12.5,8.5
		c5.6938477,6.2324219,7.421875,12.9960938,8,16c0.1259766-3.5253906,0.9267578-10.671875,6-17
		c1.3071289-1.6298828,2.6875-2.9443359,4-4c0.5,5.9023438,2.1142578,14.9814453,7.5,24.5
		c2.684082,4.7441406,7.0151367,12.2158203,16,18c8.4311523,5.4277344,16.6621094,6.6679688,21,7
		c4.0532227,2.8808594,33.6601563,23.2529297,64,12c7.4804688-2.7744141,13.4238281-6.8847656,18-11
		c5.0732422,1.3242188,14.0830078,2.9560547,25,1c8.4355469-1.5117188,14.8935547-4.6074219,19-7
		c5.8740234,2.96875,16.3339844,7.3134766,30,8c7.1162109,0.3574219,20.7910156,0.8691406,35-7
		c15.2519531-8.4472656,22.1103516-21.5615234,26-29c6.2167969-11.8876953,7.6523438-22.1660156,8-25
		c0.8427734-6.8808594,0.5175781-12.7480469,0-17c6.9482422-8.4453125,11.296875-16.2753906,14-22
		C536.4941406,401.6953125,537.6162109,396.3115234,536.5,391.1533203z M470.6074219,322.3486328
		c1.7509766,0.1972656,5.5791016,0.3525391,8.0371094-2.0410156c1.2734375-1.2412109,1.9580078-2.9521484,3.0986328-5.8017578
		c0.6103516-1.5253906,1.0146484-2.8242188,1.2685547-3.7148438c0.0029297,0.9550781,0.0507813,2.3085938,0.2578125,3.9169922
		c0.4228516,3.2861328,0.7021484,5.4570313,2.1425781,7.2734375c0.5253906,0.6630859,2.171875,2.4970703,5.8017578,3.0986328
		c-1.0800781,0.0234375-4.6220703,0.234375-7.375,2.90625c-2.0839844,2.0214844-2.7558594,4.5234375-3.0986328,5.8007813
		c-0.4169922,1.5517578-0.5039063,2.8945313-0.5058594,3.8164063c0.0029297-0.9433594-0.0390625-2.3007813-0.2578125-3.9169922
		c-0.3808594-2.8271484-0.7070313-5.2451172-2.1416016-7.2734375
		C475.7373047,323.4462891,472.1865234,322.609375,470.6074219,322.3486328z M514.2529297,376.8876953
		c0.9472656-0.8740234,1.4755859-2.1005859,2.3574219-4.1435547c0.4716797-1.0927734,0.7900391-2.0263672,0.9912109-2.6669922
		c-0.0166016,0.6923828-0.0078125,1.6738281,0.1113281,2.8427734c0.2421875,2.3896484,0.4033203,3.9677734,1.4111328,5.3115234
		c0.3681641,0.4912109,1.5253906,1.8515625,4.1435547,2.3583984c-0.7832031-0.0048828-3.3535156,0.0800781-5.3994141,1.9619141
		c-1.5498047,1.4248047-2.0849609,3.2236328-2.3574219,4.1435547c-0.3320313,1.1162109-0.4208984,2.0869141-0.4404297,2.7548828
		c0.0195313-0.6835938,0.015625-1.6679688-0.1113281-2.8427734c-0.2216797-2.0566406-0.4111328-3.8144531-1.4111328-5.3115234
		c-1.4619141-2.1904297-4.0185547-2.8662109-5.1572266-3.0849609
		C509.6552734,378.3876953,512.4257813,378.5742188,514.2529297,376.8876953z M491.9628906,346.1679688
		c1.8398438-0.6894531,4.3828125,1.4335938,6.1660156,2.9248047c2.6972656,2.2529297,4.0136719,4.8828125,4.6220703,6.3681641
		c1.1572266-1.1210938,3.2089844-2.8183594,6.2041016-3.9003906c2.1982422-0.7929688,5.5273438-1.9951172,6.9892578-0.6835938
		c2.3818359,2.1367188-1.0605469,10.1660156-4.1777344,14.9912109c-2.1220703,3.2861328-6.3164063,8.5283203-14.28125,12.6884766
		c-2.3349609-3.0517578-5.6376953-8.2236328-7.1425781-15.2949219
		C489.0117188,357.0039063,488.6914063,347.3964844,491.9628906,346.1679688z M478.5839844,371.3066406
		c1.0419922-1.1347656,1.5517578-2.6474609,2.4003906-5.1679688c0.4541016-1.3486328,0.7412109-2.4912109,0.9179688-3.2744141
		c0.0488281,0.8261719,0.1552734,1.9951172,0.4121094,3.3759766c0.5244141,2.8222656,0.8710938,4.6855469,2.2041016,6.1875
		c0.4873047,0.5488281,1.9990234,2.0546875,5.1679688,2.3994141c-0.9326172,0.0722656-3.9863281,0.4267578-6.2382813,2.8701172
		c-1.7050781,1.8496094-2.1650391,4.0458984-2.3994141,5.1679688c-0.2851563,1.3613281-0.2958984,2.5273438-0.2539063,3.3251953
		c-0.0429688-0.8164063-0.1445313-1.9892578-0.4111328-3.3759766c-0.4667969-2.4267578-0.8662109-4.5019531-2.2050781-6.1875
		c-1.9580078-2.4648438-5.0693359-3.0175781-6.4472656-3.1660156
		C473.2548828,373.5458984,476.5742188,373.4960938,478.5839844,371.3066406z M446.8007813,338.4912109
		c1.6259766-1.4785156,5.1455078-0.3232422,7.6152344,0.4863281c3.734375,1.2255859,6.1894531,3.4111328,7.4355469,4.703125
		c0.7373047-1.6435547,2.1679688-4.2558594,4.8310547-6.6181641c1.9550781-1.734375,4.9150391-4.359375,6.9765625-3.6015625
		c3.3583984,1.2333984,3.1044922,10.9970703,1.8632813,17.2998047c-0.8447266,4.2900391-3.0322266,11.4716797-9.5849609,19.0878906
		c-3.6884766-2.2041016-9.2578125-6.2089844-13.7470703-12.9326172
		C448.21875,350.9667969,443.9111328,341.1191406,446.8007813,338.4912109z M444.3896484,367.8779297
		c0.5742188,0.6611328,2.359375,2.4794922,6.1376953,2.9316406c-1.1152344,0.0742188-4.7646484,0.4570313-7.4833984,3.34375
		c-2.0595703,2.1855469-2.6367188,4.8007813-2.9316406,6.1376953c-0.3583984,1.6210938-0.3857422,3.0117188-0.3457031,3.9648438
		c-0.0410156-0.9746094-0.1474609-2.375-0.4482422-4.0341797c-0.5253906-2.9033203-0.9746094-5.3847656-2.5507813-7.4140625
		c-2.3046875-2.9677734-6.0107422-3.6679688-7.6542969-3.8632813c1.8173828,0.1220703,5.7802734,0.1054688,8.2070313-2.4814453
		c1.2587891-1.3408203,1.8867188-3.1396484,2.9316406-6.1367188c0.5595703-1.6035156,0.9179688-2.9648438,1.1386719-3.8964844
		c0.0478516,0.9863281,0.1591797,2.3828125,0.4482422,4.0341797
		C442.4287109,363.8398438,442.8183594,366.0683594,444.3896484,367.8779297z M223.171875,412.9863281
		c-2.0844727,2.0224609-2.7558594,4.5234375-3.0991211,5.8017578c-0.4165039,1.5517578-0.503418,2.8935547-0.5058594,3.8154297
		c0.0029297-0.9423828-0.0390625-2.3007813-0.2573242-3.9169922c-0.3818359-2.8271484-0.7080078-5.2441406-2.1420898-7.2734375
		c-2.0981445-2.9667969-5.6479492-3.8037109-7.2270508-4.0634766c1.7509766,0.1962891,5.5791016,0.3515625,8.0361328-2.0419922
		c1.2744141-1.2402344,1.9584961-2.9511719,3.0991211-5.8017578c0.6103516-1.5244141,1.0151367-2.8232422,1.269043-3.7148438
		c0.0029297,0.9550781,0.050293,2.3095703,0.2573242,3.9169922c0.4233398,3.2871094,0.7026367,5.4570313,2.1420898,7.2734375
		c0.5263672,0.6640625,2.1723633,2.4980469,5.8017578,3.0996094
		C229.4663086,410.1035156,225.9238281,410.3154297,223.171875,412.9863281z M241.7265625,459.6005859
		c-2.34375,2.8740234-2.824707,6.1455078-3.0708008,7.8173828c-0.2983398,2.0292969-0.2099609,3.7451172-0.0761719,4.9150391
		c-0.1362305-1.1962891-0.390625-2.9130859-0.9067383-4.9296875c-0.902832-3.5292969-1.6748047-6.546875-3.7944336-8.9072266
		c-3.1000977-3.4521484-7.7265625-3.9882813-9.7680664-4.0839844c2.25-0.0097656,7.128418-0.3798828,9.8901367-3.7802734
		c1.4321289-1.7617188,2.046875-4.0332031,3.0708008-7.8173828c0.5478516-2.0244141,0.8691406-3.7314453,1.059082-4.8994141
		c0.1450195,1.2109375,0.4057617,2.9208984,0.9067383,4.9296875c1.0234375,4.1064453,1.699707,6.8173828,3.7944336,8.9082031
		c0.765625,0.7636719,3.125,2.8457031,7.8178711,3.0703125
		C249.2827148,455.0117188,244.8217773,455.8056641,241.7265625,459.6005859z M250.640625,430.1552734
		c-2.8251953,3.1396484-3.5522461,6.8349609-3.9238281,8.7236328c-0.4511719,2.2919922-0.4453125,4.2480469-0.3579102,5.5869141
		c-0.0883789-1.3691406-0.2836914-3.3349609-0.7597656-5.6582031c-0.8325195-4.0644531-1.5444336-7.5400391-3.8256836-10.3417969
		c-3.3364258-4.0976563-8.5703125-4.9619141-10.8867188-5.1835938c2.5595703,0.1132813,8.1293945-0.0390625,11.4584961-3.7548828
		c1.7260742-1.9257813,2.550293-4.4755859,3.9238281-8.7236328c0.7348633-2.2734375,1.1948242-4.1972656,1.4750977-5.515625
		c0.0981445,1.3857422,0.3007813,3.3457031,0.7597656,5.6582031c0.9379883,4.7265625,1.5576172,7.8486328,3.8256836,10.3417969
		c0.8286133,0.9111328,3.3979492,3.4091797,8.7241211,3.9238281
		C259.4887695,425.3505859,254.3701172,426.0087891,250.640625,430.1552734z M267.1699219,486.6054688l-8.1435547-11.0947266
		c-13.5722656-18.5214844-3.2724609-47.5,15.1689453-48.1386719c5.2675781-0.1621094,7.2626953,4.3076172,8.7802734,8.3808594
		c0.9570313,2.4726563,2.3144531,4.546875,7.9833984,4.46875c0.8769531,0,1.6757813-0.1601563,2.4726563-0.3984375
		c-6.6240234-2.8769531-10.8554688-10.5390625-15.0869141-16.2871094
		c-5.9863281-8.1425781-6.4658203-14.609375-2.7939453-26.3427734c-12.2128906,8.7802734-32.487793,7.5839844-42.5478516-6.0673828
		l-8.7001953-11.8945313c-3.4311523-4.5527344-5.4277344-10.2998047-5.3496094-16.8457031
		c0.0874023-5.7060547,1.8256836-10.8115234,4.777832-15.25c-13.0102539-5.2490234-21.2236328-20.8691406-22.7543945-43.7109375
		c-0.4770508-7.109375-0.269043-14.5615234,0.5693359-21.9521484c-2.3662109,1.0136719-4.8637695,1.9980469-7.5004883,2.9443359
		c-1.5947266,0.5732422-3.3344727-0.3945313-3.8867188-2.1601563s0.2919922-3.6601563,1.8867188-4.2324219
		c3.8530273-1.3837891,7.3857422-2.8457031,10.625-4.3554688c1.1220703-6.4042969,2.715332-12.6494141,4.7431641-18.4609375
		c5.6601563-16.2236328,14.0004883-27.0078125,23.4833984-30.3642578c6.359375-2.2529297,11.6708984,0.1611328,13.5302734,6.1455078
		c2.1816406,7.0146484-1.1699219,17.1269531-8.7441406,26.390625c-4.3618164,5.3349609-11.5405273,12.1748047-22.9414063,18.5898438
		c-3.5512695,16.4882813-4.2573242,34.6240234-0.0825195,47.8505859c3.15625,10.0009766,8.7075195,15.7333984,16.4985352,17.0419922
		c5.9316406-5.4306641,13.9584961-9.3681641,22.7416992-11.6044922c0.1655273-0.2441406,0.3339844-0.4746094,0.4975586-0.7255859
		c13.765625-21.1240234,15.8847656-63.0751953,4.4453125-88.0146484
		c-4.1474609-9.0429688-11.9980469-19.9287109-25.8417969-20.4335938c-1.6870117-0.0615234-3.0366211-1.6142578-3.0146484-3.4697266
		c0.0205078-1.7539063,1.2612305-3.1484375,2.8232422-3.2421875c7.4375-1.2548828,14.2226563-0.2880859,20.1679688,2.8779297
		c5.4804688,2.9189453,10.1640625,7.6533203,13.9208984,14.0712891c3.7001953,6.3212891,6.4208984,14.1142578,8.0849609,23.1621094
		c1.5546875,8.4511719,2.1201172,17.5673828,1.6816406,27.0917969c-0.8125,17.6162109-5.0136719,34.3925781-11.6225586,46.8017578
		c7.2871094-0.6328125,14.7016602-0.1386719,21.5766602,1.5976563c0.2211914-4.7304688,0.5766602-12.1220703,0.9882813-19.84375
		c-0.6845703-1.0654297-0.5800781-2.3369141-0.5332031-2.9248047c0.0419922-0.5234375,0.1230469-1.2519531,0.25-2.2275391
		c0.2255859-1.7666016,0.5625-4.1171875,0.9541016-6.8398438l0.0058594-0.0380859
		c0.2773438-4.6083984,0.5361328-8.4892578,0.7724609-11.5917969c0.2207031-2.8935547,0.4287109-5.1503906,0.6132813-6.7080078
		c0.1074219-0.9130859,0.2099609-1.6083984,0.3144531-2.125c0.3886719-1.9248047,1.3789063-3.046875,2.9443359-3.3320313
		c1.1064453-0.2011719,2.2529297,0.1464844,3.0664063,0.9306641c1.4394531,1.3876953,1.5751953,3.2207031,0.7626953,10.3222656
		c-0.4570313,4-1.1533203,8.8613281-1.7763672,13.1914063c-0.1123047,1.8808594-0.2265625,3.8349609-0.3378906,5.8330078
		c1.53125-4.4267578,3.2050781-8.5908203,4.9863281-12.359375c4.2734375-9.0449219,11.0566406-19.8652344,19.0986328-20.0361328
		c2.2509766-0.0478516,4.2216797,0.7744141,5.6972656,2.3789063c4.5664063,4.9609375,3.3408203,16.6796875,1.9208984,30.2509766
		c-0.6191406,5.9101563-1.2587891,12.0214844-1.2753906,16.9667969c-0.0214844,6.3085938,0.9892578,8.3925781,1.5917969,9.0703125
		c0.2080078,0.2333984,0.3974609,0.3535156,0.8632813,0.3603516c5.0576172,0.0693359,11.0986328-5.6679688,16.5742188-15.7441406
		c3.2436523-5.9707031,6.0756836-13.1865234,8.0068359-20.1455078c0.0351563-2.3144531,0.1049805-4.5009766,0.1923828-6.4736328
		c0.9746094-22.0263672,4.9511719-43.8193359,10.3764648-56.8740234
		c4.0722656-9.7958984,8.9765625-14.5878906,14.5859375-14.2402344c3.9257813,0.2431641,6.8535156,2.171875,8.4726563,5.578125
		c1.9101563,4.0224609,1.8808594,10.03125-0.0917969,18.3710938c-1.5058594,6.3759766-4.1367188,14.0537109-7.8203125,22.8222656
		c-6.0449219,14.3916016-13.1953125,27.6240234-16.3984375,32.6337891c-0.0449219,1.7382813-0.0683594,3.453125-0.0683594,5.1347656
		c0.0058594,22.0595703,3.9140625,28.0507813,5.28125,28.4101563c0.1816406,0.0478516,0.3515625,0.1123047,0.515625,0.1855469
		c0.7421875,0.0820313,1.5371094-0.0234375,2.4023438-0.3125c4.125-1.3789063,8.9648438-6.6074219,13.28125-14.3457031
		c5.1074219-9.15625,9.2851563-21.3046875,12.0820313-35.1337891c0.0957031-0.4746094,0.2910156-0.9023438,0.5537109-1.2734375
		c0.2246094-1.8144531,0.4326172-3.3515625,0.5947266-4.4853516c0.1035156-0.7373047,0.4511719-1.4179688,0.984375-1.9375
		c4.3574219-4.2324219,6.6855469-3.4482422,7.4511719-3.1904297c1.4453125,0.4863281,2.4511719,1.7324219,2.6933594,3.3330078
		c0.2832031,1.8808594-0.2207031,5.5830078-1.2949219,13.1113281c-1.0878906,7.6220703-2.4394531,17.1064453-2.8496094,25.6982422
		c-0.5878906,12.3056641,1.1386719,16.4179688,2.2207031,17.7744141c0.4824219,0.6054688,0.8847656,0.7158203,1.2460938,0.7460938
		c0.1542969,0.0126953,0.3027344,0.0351563,0.4492188,0.0673828c0.4003906-0.0341797,0.8808594-0.1757813,1.4667969-0.5283203
		c2.0019531-1.2060547,6.1054688-5.4804688,11.0976563-20.5625c3.3417969-10.0947266,5.8691406-21.2480469,7.5410156-28.6279297
		c0.5488281-2.4121094,0.9785156-4.3173828,1.3339844-5.7246094c0.5488281-2.1796875,0.9453125-3.7558594,2.6835938-4.5009766
		c1-0.4287109,2.1542969-0.3525391,3.0898438,0.203125c1.671875,0.9980469,1.6777344,2.6992188,1.6816406,3.6132813
		c0.0019531,0.5185547-0.0097656,1.2392578-0.0332031,2.1396484c-0.0527344,1.9628906-0.1660156,4.6513672-0.3183594,7.5712891
		c-0.234375,4.5078125-0.78125,13.7998047-1.8242188,25.3847656c-0.5507813,6.1210938-1.2617188,13.1152344-2.1621094,20.4863281
		c18.9589844-13.2314453,28.8886719-28.6357422,30.3027344-46.9316406c0.1425781-1.8515625,1.7617188-3.234375,3.6113281-3.09375
		c1.8515625,0.1425781,3.2382813,1.7597656,3.09375,3.6113281c-0.8808594,11.4228516-4.8007813,22.0097656-11.6484375,31.4658203
		c-6.3242188,8.734375-15.0039063,16.5234375-26.5078125,23.78125c-1.6835938,12.1425781-3.8789063,24.7441406-6.7050781,35.7519531
		c-2.5664063,9.9970703-5.4589844,17.8681641-8.5976563,23.3945313c-0.6425781,1.1328125-1.3046875,2.1679688-1.9814453,3.1259766
		c1.1357422,1.5410156,2.2158203,3.0820313,3.2373047,4.5546875c2.0498047-4.9492188,4.4873047-9.3603516,7.1435547-12.1972656
		c7.5839844-8.140625,24.0283203-7.0234375,29.8574219,2.2363281c8.1425781-11.2558594,25.3857422-8.5419922,30.2548828-1.9140625
		l8.7021484,11.8945313c1.3574219,1.8369141,2.1542969,3.8339844,1.5185547,6.3066406l8.3017578,11.3339844
		c2.3164063,2.7158203,2.1552734,6.4667969,0.4794922,9.6611328c-5.9091797,11.1787109-20.9951172,32.4111328-34.7275391,32.4111328
		c-5.5898438-0.0019531-10.2236328-2.078125-13.1738281-5.9082031c-9.9785156,7.6640625-23.8701172,9.0996094-32.4130859-2.5546875
		l-3.8916016-5.2646484c-13.3417969,16.8955078-41.2265625,18.7587891-52.3818359,2.7109375l-6.5605469-8.9306641
		c-2.6923828,7.1679688-5.5634766,14.1259766-8.5996094,20.6699219
		C332.5517578,500.3378906,286.8076172,513.2695313,267.1699219,486.6054688z M498,480.6533203
		c-17.7382813,21.3779297-47.7324219,28.1806641-69,21c-3.1523438-1.0644531-7.28125-2.8310547-11.0439453-5.0488281
		c-0.7089844,0.3876953-1.3710938,0.7392578-1.9560547,1.0488281c-11.2783203,5.9775391-28.4121094,10.1210938-43.5283203,5.5791016
		c-2.5703125,1.9775391-4.9736328,3.4833984-6.4716797,4.4208984c-22.9892578,14.3876953-51.1625977,6.0166016-60,3
		c14.9619141,4.1230469,27.03125,3.1455078,34,2c5.574707-0.9160156,19.4384766-3.2001953,28.5449219-10.8242188
		c-2.6142578-1.0888672-5.1464844-2.4609375-7.5449219-4.1757813c-3.5996094-2.5742188-11.5708008-8.2744141-11-16
		c0.5390625-7.2998047,8.5351563-14.125,17-14c9.3300781,0.1376953,16.171875,8.6748047,17,16
		c0.7490234,6.6201172-3.4013672,12.3574219-8.0703125,16.6728516c11.7294922,2.1806641,25.6591797-1.5039063,30.0703125-2.6728516
		c1.7939453-0.4755859,5.4648438-1.4501953,9.1064453-2.8779297c-4.2177734-2.9550781-7.3857422-6.4755859-7.1064453-10.1220703
		c0.3222656-4.2080078,5.2558594-8.9121094,11-9c5.3701172-0.0820313,10.5117188,3.8847656,11,8
		c0.4755859,4.0078125-3.5263672,7.6298828-7.7060547,10.375c5.3291016,2.6347656,11.9248047,3.3525391,14.7060547,3.625
		c17.3828125,1.7011719,31.0615234-3.7744141,34-5c5.3300781-2.2226563,18.4462891-7.8916016,29-22
		c10.6367188-14.2197266,12.5507813-28.8300781,13-35C513.1220703,443.0019531,512.4316406,463.2597656,498,480.6533203z
		 M529,407.6533203c-1.8085938,4.9648438-5.7578125,13.1289063-15,21c-3.9921875-3.3183594-9.8945313-9.1376953-14-18
		c-3.6328125-7.8427734-6.9394531-20.4003906-3-23c2.2167969-1.4619141,6.203125,0.5722656,9,2
		c4.2285156,2.1582031,6.7519531,5.2265625,8,7c1.1865234-1.8251953,3.3798828-4.6757813,7-7
		c2.65625-1.7050781,6.6806641-4.2890625,9-3C533.7783203,388.7529297,531.65625,400.3613281,529,407.6533203z"/>
	<path class="st0" d="M376,481.6533203c-1.7851563-3.6669922-6.4541016-7.2822266-11-6
		c-3.3212891,0.9365234-5.4199219,4.1601563-6,7c-1.0698242,5.2421875,2.9179688,9.7714844,4,11
		c2.2607422,2.5673828,5.1494141,4.3085938,8.3583984,5.4560547c1.4453125-1.6191406,2.6914063-3.4248047,3.6416016-5.4560547
		C375.8769531,491.7802734,378.3535156,486.4873047,376,481.6533203z"/>
	<path class="st0" d="M425,486.6533203c0.0810547-1.828125-1.1367188-4.0800781-3-5c-2.4296875-1.2001953-6.0136719-0.1660156-7,2
		c-0.8554688,1.8779297,0.4697266,4.1074219,1,5c0.9355469,1.5742188,2.2763672,2.8554688,3.8242188,3.9248047
		C422.7148438,490.9414063,424.8974609,488.9570313,425,486.6533203z"/>
	<path class="st1" d="M259.9560547,332.5800781c8.1884766-1.1865234,16.7348633-0.8515625,24.4414063,1.2255859
		c0.0327148-0.7275391,0.109375-2.4365234,0.2211914-4.8310547c-6.875-1.7363281-14.2895508-2.2304688-21.5766602-1.5976563
		c-0.6425781,1.2050781-1.2993164,2.3857422-1.9868164,3.5058594
		C260.6958008,331.46875,260.3251953,332.0224609,259.9560547,332.5800781z"/>
	<path class="st1" d="M237.6025391,340.5478516c2.3994141-1.5478516,5.0258789-2.9072266,7.8208008-4.0576172
		c2.3017578-1.8583984,4.4624023-4.2705078,6.4760742-7.2324219c-8.7832031,2.2363281-16.8100586,6.1738281-22.7416992,11.6044922
		l0.0200195,0.0039063C232.1230469,341.3574219,234.9321289,341.2441406,237.6025391,340.5478516z"/>
	<path class="st1" d="M348.8378906,465.5322266c3.0361328-6.5439453,5.9072266-13.5019531,8.5996094-20.6699219l6.5605469,8.9306641
		c11.1552734,16.0478516,39.0400391,14.1845703,52.3818359-2.7109375l3.8916016,5.2646484
		c8.5429688,11.6542969,22.4345703,10.21875,32.4130859,2.5546875c2.9501953,3.8300781,7.5839844,5.90625,13.1738281,5.9082031
		c13.7324219,0,28.8183594-21.2324219,34.7275391-32.4111328c1.6757813-3.1943359,1.8369141-6.9453125-0.4794922-9.6611328
		l-8.3017578-11.3339844c0.6357422-2.4726563-0.1611328-4.4697266-1.5185547-6.3066406l-8.7021484-11.8945313
		c-4.8691406-6.6279297-22.1123047-9.3417969-30.2548828,1.9140625
		c-5.8291016-9.2597656-22.2734375-10.3769531-29.8574219-2.2363281c-2.65625,2.8369141-5.09375,7.2480469-7.1435547,12.1972656
		c-1.0214844-1.4726563-2.1015625-3.0136719-3.2373047-4.5546875c-1.3037109,1.84375-2.6689453,3.3623047-4.0917969,4.5527344
		c1.5078125,3.7109375,2.3388672,7.8398438,2.3388672,11.9140625c0,0.71875-0.0800781,1.5195313-0.0800781,2.2363281
		c2.4277344-0.2304688,4.3486328-1.3076172,5.9833984-2.96875c2.5263672-8.7529297,6.3808594-16.8486328,9.4990234-20.1796875
		c7.3447266-7.7460938,25.8642578-2.2363281,20.1171875,3.03125c-3.2763672,2.9550781-7.4277344,25.2265625-5.1914063,25.6259766
		c5.1914063,0.8779297,7.3447266-9.1816406,8.7021484-13.0927734c2.3945313-6.8652344,5.5097656-12.8525391,8.0634766-15.5683594
		c7.3447266-7.7451172,25.8642578-2.2363281,20.1171875,3.0332031c-3.2734375,2.9541016-7.4248047,25.2255859-5.1884766,25.625
		c1.3574219,0.2392578,5.5087891-5.0273438,9.4208984-10.6953125c2.7939453-3.9902344,8.7021484-1.6757813,6.0683594,3.3574219
		c-8.0634766,13.5703125-20.0371094,29.9355469-30.4941406,29.9355469c-6.3867188,0-10.4560547-3.2714844-11.7363281-9.4199219
		c-9.9013672,13.4921875-33.6904297,13.7324219-31.9316406-8.3027344c0.0742188-0.9726563,0.1835938-1.9667969,0.3183594-2.9716797
		c-1.7265625,0.6757813-3.5996094,1.1054688-5.6630859,1.2929688c-9.8984375,25.7861328-53.7246094,27.6220703-52.9277344-4.6298828
		c0.1601563-3.7529297,0.9570313-7.5839844,2.4746094-11.1777344c3.2724609-7.5019531,13.0117188-17.9619141,23.1494141-16.84375
		c1.3896484-0.9287109,2.7480469-1.6445313,4.0771484-2.1992188c-0.0449219-0.7841797-0.0478516-1.4736328-0.0498047-2.0048828
		c-0.0019531-0.2001953-0.0019531-0.4501953-0.0058594-0.53125c-0.0234375-0.3964844,0.0273438-0.7792969,0.1328125-1.1396484
		c0.0273438-0.4521484,0.0878906-0.9228516,0.1328125-1.3847656c-1.8271484,0.5849609-3.6074219,1.3935547-5.3164063,2.390625
		c-1.8691406,0-3.7304688,0.28125-5.5527344,0.7929688c0.1757813-0.7695313,0.3583984-1.5439453,0.5283203-2.3066406
		c2.875-12.6953125,7.3447266-30.9785156-0.5576172-41.6757813l-7.7285156-10.5644531
		c-2.8046875,0.0107422-5.4453125-0.9912109-7.6796875-2.9746094c-1.3745117-1.2197266-2.5175781-2.9394531-3.4736328-5.0078125
		c-7.9243164-1.9052734-16.0517578,1.6269531-14.4882813,9.2851563c1.9150391,9.6591797-9.0976563,39.2753906-16.2861328,50.1337891
		c3.9121094-21.4726563-4.1513672-29.0566406-14.5292969-43.1875c-4.1279297-5.9912109-10.0068359-10.375-16.8051758-13.2949219
		c-0.1767578,1.0273438-0.3461914,2.0566406-0.5029297,3.0839844c-0.0844727,0.5527344-0.3120117,1.0849609-0.6450195,1.5507813
		c10.7734375,4.84375,18.7197266,13.8867188,19.5722656,27.8974609
		c0.7988281,12.8515625-10.2177734,36.8808594,0.8789063,37.7597656
		c10.3779297,0.7998047,18.0400391-12.7714844,22.7519531-23.5498047
		C339.2011719,367.3359375,346.7050781,346.8203125,344.8701172,337c-0.7216797-3.1953125,2.7900391-4.0703125,5.1865234-3.9921875
		c10.5390625,0.2402344,13.8125,7.5839844,13.8085938,16.9199219c0.078125,18.8408203-15.0869141,71.9287109-28.5791016,100.9072266
		c-19.2382813,41.3496094-75.6787109,42.8691406-77.515625,6.5439453
		c-0.6386719-12.4521484,6.6279297-24.8271484,16.6845703-25.1455078c0.3994141-0.0800781,0.796875,0,1.1962891,0.1601563
		c0.5585938,0.1582031,0.9580078,0.6386719,1.1982422,1.4355469c1.6748047,7.4277344,7.5839844,11.2568359,14.2890625,11.1787109
		c10.4599609-0.1591797,18.9990234-11.2568359,25.546875-23.8701172c-7.1855469,2.875-14.7695313,4.0712891-22.7529297,3.4316406
		c-27.3798828-2.1542969-11.2548828-32.3300781-7.1035156-42.9472656
		c17.0839844-42.5507813-25.6240234-31.8525391-27.4609375-16.3642578c-0.4794922,4.3076172,1.515625,8.3818359,6.3066406,9.4990234
		c1.9960938,0.4785156,0.7978516,2.8720703,0.7978516,2.8720703c-4.3076172,5.3505859-12.0527344,8.0634766-19.715332,7.7441406
		c-14.9287109-0.6357422-23.0737305-11.3349609-22.9135742-22.9091797
		c0.0805664-5.2167969,1.8803711-9.8720703,4.9003906-13.8857422c-0.3178711-0.0605469-0.6337891-0.1035156-0.953125-0.1757813
		c-1.4008789-0.3144531-2.7539063-0.7402344-4.0600586-1.2666016c-2.9521484,4.4384766-4.6904297,9.5439453-4.777832,15.25
		c-0.078125,6.5458984,1.918457,12.2929688,5.3496094,16.8457031l8.7001953,11.8945313
		c10.0600586,13.6513672,30.3349609,14.8476563,42.5478516,6.0673828
		c-3.671875,11.7333984-3.1923828,18.2001953,2.7939453,26.3427734c4.2314453,5.7480469,8.4628906,13.4101563,15.0869141,16.2871094
		c-0.796875,0.2382813-1.5957031,0.3984375-2.4726563,0.3984375c-5.6689453,0.078125-7.0263672-1.9960938-7.9833984-4.46875
		c-1.5175781-4.0732422-3.5126953-8.5429688-8.7802734-8.3808594
		c-18.4414063,0.6386719-28.7412109,29.6171875-15.1689453,48.1386719l8.1435547,11.0947266
		C286.8076172,513.2695313,332.5517578,500.3378906,348.8378906,465.5322266z M273.71875,377.0732422
		c1.4365234-3.671875,6.7871094-6.8652344,11.734375-7.7441406c-1.1181641,6.0683594-3.4296875,11.2578125-5.5078125,16.2851563
		L273.71875,377.0732422z"/>
	<path class="st1" d="M377.2490234,411.8808594c-2.3164063,4.7871094-4.7119141,13.0898438,1.9150391,12.7724609
		c2.1533203-0.0800781,4.1503906-1.5976563,5.7470703-3.8300781
		C381.7998047,418.2685547,379.2460938,415.3134766,377.2490234,411.8808594z"/>
	<path class="st1" d="M391.1972656,386.9726563c-0.2558594,1.6767578-0.3691406,3.2666016-0.3408203,4.7470703
		c3.7695313,0.0849609,7.1279297,1.6337891,9.9121094,4.1386719c0.8017578-0.9101563,1.7197266-2.1796875,2.7314453-3.9423828
		c-1.8105469-1.5761719-3.7197266-2.8623047-5.7314453-3.6630859
		C395.5751953,387.4130859,393.3740234,387.0146484,391.1972656,386.9726563z"/>
	<path class="st2" d="M245.4233398,336.4902344c-2.7949219,1.1503906-5.4213867,2.5097656-7.8208008,4.0576172
		C240.3637695,339.828125,242.9726563,338.4707031,245.4233398,336.4902344z"/>
	<path class="st2" d="M287.862793,337.7089844c-0.8046875,0.0283203-1.6083984-0.2333984-2.2460938-0.7539063
		c-0.8251953-0.671875-1.2832031-1.6933594-1.2363281-2.7558594c0.0004883-0.0136719,0.0063477-0.1523438,0.0170898-0.3935547
		c-7.706543-2.0771484-16.2529297-2.4121094-24.4414063-1.2255859c-3.8632813,5.84375-8.2626953,10.2226563-13.1108398,13
		c-3.2880859,1.8828125-6.7314453,3.0126953-10.2988281,3.3837891c-2.5400391,0.2646484-5.1464844,0.1220703-7.8022461-0.3857422
		c-3.0200195,4.0136719-4.8198242,8.6689453-4.9003906,13.8857422
		c-0.1601563,11.5742188,7.9848633,22.2734375,22.9135742,22.9091797c7.6625977,0.3193359,15.4077148-2.3935547,19.715332-7.7441406
		c0,0,1.1982422-2.3935547-0.7978516-2.8720703c-4.7910156-1.1171875-6.7861328-5.1914063-6.3066406-9.4990234
		c1.8369141-15.4882813,44.5449219-26.1865234,27.4609375,16.3642578
		c-4.1513672,10.6171875-20.2763672,40.7929688,7.1035156,42.9472656
		c7.9833984,0.6396484,15.5673828-0.5566406,22.7529297-3.4316406
		c-6.5478516,12.6132813-15.0869141,23.7109375-25.546875,23.8701172
		c-6.7050781,0.078125-12.6142578-3.7509766-14.2890625-11.1787109c-0.2402344-0.796875-0.6396484-1.2773438-1.1982422-1.4355469
		c-0.3994141-0.1601563-0.796875-0.2402344-1.1962891-0.1601563c-10.0566406,0.3183594-17.3232422,12.6933594-16.6845703,25.1455078
		c1.8369141,36.3251953,58.2773438,34.8056641,77.515625-6.5439453
		c13.4921875-28.9785156,28.6572266-82.0664063,28.5791016-100.9072266
		c0.0039063-9.3359375-3.2695313-16.6796875-13.8085938-16.9199219c-2.3964844-0.078125-5.9082031,0.796875-5.1865234,3.9921875
		c1.8349609,9.8203125-5.6689453,30.3359375-10.3779297,41.3496094
		c-4.7119141,10.7783203-12.3740234,24.3496094-22.7519531,23.5498047
		c-11.0966797-0.8789063-0.0800781-24.9082031-0.8789063-37.7597656
		c-0.8525391-14.0107422-8.7988281-23.0537109-19.5722656-27.8974609
		C290.6044922,337.1992188,289.434082,337.859375,287.862793,337.7089844z"/>
	<path class="st2" d="M398.9433594,408.3046875c-6.8417969,0.1464844-11.8925781-3.5214844-13.8828125-10.0947266
		c-0.0917969-0.3066406-0.1757813-0.6201172-0.2539063-0.9375c-0.4453125-1.4931641-0.6191406-2.9638672-0.6904297-4.1953125
		c-1.3291016,0.5546875-2.6875,1.2705078-4.0771484,2.1992188c-10.1376953-1.1181641-19.8769531,9.3417969-23.1494141,16.84375
		c-1.5175781,3.59375-2.3144531,7.4248047-2.4746094,11.1777344c-0.796875,32.2519531,43.0292969,30.4160156,52.9277344,4.6298828
		c2.0634766-0.1875,3.9365234-0.6171875,5.6630859-1.2929688c-0.1347656,1.0048828-0.2441406,1.9990234-0.3183594,2.9716797
		c-1.7587891,22.0351563,22.0302734,21.7949219,31.9316406,8.3027344c1.2802734,6.1484375,5.3496094,9.4199219,11.7363281,9.4199219
		c10.4570313,0,22.4306641-16.3652344,30.4941406-29.9355469c2.6337891-5.0332031-3.2744141-7.3476563-6.0683594-3.3574219
		c-3.9121094,5.6679688-8.0634766,10.9345703-9.4208984,10.6953125c-2.2363281-0.3994141,1.9150391-22.6708984,5.1884766-25.625
		c5.7470703-5.2695313-12.7724609-10.7783203-20.1171875-3.0332031c-2.5537109,2.7158203-5.6689453,8.703125-8.0634766,15.5683594
		c-1.3574219,3.9111328-3.5107422,13.9707031-8.7021484,13.0927734c-2.2363281-0.3994141,1.9150391-22.6708984,5.1914063-25.6259766
		c5.7470703-5.2675781-12.7724609-10.7773438-20.1171875-3.03125c-3.1181641,3.3310547-6.9726563,11.4267578-9.4990234,20.1796875
		c-1.6347656,1.6611328-3.5556641,2.7382813-5.9833984,2.96875c0-0.7167969,0.0800781-1.5175781,0.0800781-2.2363281
		c0-4.0742188-0.8310547-8.203125-2.3388672-11.9140625c-2.4384766,2.0410156-5.0458984,3.1269531-7.8056641,3.2226563
		L398.9433594,408.3046875z M379.1640625,424.6533203c-6.6269531,0.3173828-4.2314453-7.9853516-1.9150391-12.7724609
		c1.9970703,3.4326172,4.5507813,6.3876953,7.6621094,8.9423828
		C383.3144531,423.0556641,381.3173828,424.5732422,379.1640625,424.6533203z"/>
	<path class="st2" d="M391.2636719,395.3554688c0.2558594,0.8574219,0.6503906,1.6367188,1.2636719,2.1523438
		c0.9960938,0.8339844,2.6855469,1.0507813,5.0253906,0.6435547c0.5175781-0.0908203,1.6455078-0.5107422,3.2158203-2.2929688
		c-2.7841797-2.5048828-6.1425781-4.0537109-9.9121094-4.1386719
		C390.8808594,393.0234375,391.0107422,394.2441406,391.2636719,395.3554688z"/>
	<path class="st3" d="M228.7441406,348.578125c2.6557617,0.5078125,5.262207,0.6503906,7.8022461,0.3857422
		c3.5673828-0.3710938,7.0107422-1.5009766,10.2988281-3.3837891c4.8481445-2.7773438,9.2475586-7.15625,13.1108398-13
		c0.3691406-0.5576172,0.7397461-1.1113281,1.0991211-1.6972656c0.6875-1.1201172,1.3442383-2.3007813,1.9868164-3.5058594
		c6.6088867-12.4091797,10.8100586-29.1855469,11.6225586-46.8017578c0.4384766-9.5244141-0.1269531-18.640625-1.6816406-27.0917969
		c-1.6640625-9.0478516-4.3847656-16.8408203-8.0849609-23.1621094
		c-3.7568359-6.4179688-8.4404297-11.1523438-13.9208984-14.0712891
		c-5.9453125-3.1660156-12.7304688-4.1328125-20.1679688-2.8779297c-1.5620117,0.09375-2.8027344,1.4882813-2.8232422,3.2421875
		c-0.0219727,1.8554688,1.3276367,3.4082031,3.0146484,3.4697266c13.84375,0.5048828,21.6943359,11.390625,25.8417969,20.4335938
		c11.4394531,24.9394531,9.3203125,66.890625-4.4453125,88.0146484c-0.1635742,0.2509766-0.3320313,0.4814453-0.4975586,0.7255859
		c-2.0136719,2.9619141-4.1743164,5.3740234-6.4760742,7.2324219c-2.4506836,1.9804688-5.0595703,3.3378906-7.8208008,4.0576172
		c-2.6704102,0.6962891-5.4794922,0.8095703-8.4248047,0.3183594l-0.0200195-0.0039063
		c-7.7910156-1.3085938-13.3422852-7.0410156-16.4985352-17.0419922c-4.1748047-13.2265625-3.46875-31.3623047,0.0825195-47.8505859
		c11.4008789-6.4150391,18.5795898-13.2548828,22.9414063-18.5898438
		c7.5742188-9.2636719,10.9257813-19.3759766,8.7441406-26.390625c-1.859375-5.984375-7.1708984-8.3984375-13.5302734-6.1455078
		c-9.4829102,3.3564453-17.8232422,14.140625-23.4833984,30.3642578c-2.027832,5.8115234-3.6210938,12.0566406-4.7431641,18.4609375
		c-3.2392578,1.5097656-6.7719727,2.9716797-10.625,4.3554688c-1.5947266,0.5722656-2.4389648,2.4667969-1.8867188,4.2324219
		s2.2919922,2.7333984,3.8867188,2.1601563c2.6367188-0.9462891,5.1342773-1.9306641,7.5004883-2.9443359
		c-0.8383789,7.390625-1.0463867,14.8427734-0.5693359,21.9521484c1.5307617,22.8417969,9.7441406,38.4619141,22.7543945,43.7109375
		c1.3061523,0.5263672,2.6591797,0.9521484,4.0600586,1.2666016
		C228.1103516,348.4746094,228.4262695,348.5175781,228.7441406,348.578125z M228.1948242,239.7382813
		c3.7441406-4.1865234,7.3623047-5.8291016,10.7646484-4.8964844c0.2578125,4.1318359-1.9492188,10.7646484-7.8549805,17.9892578
		c-3.3100586,4.0478516-8.4082031,9.0458984-16.0615234,14.0234375
		C218.3740234,255.4179688,223.0219727,245.5224609,228.1948242,239.7382813z"/>
	<path class="st3" d="M284.3803711,334.1992188c-0.046875,1.0625,0.4111328,2.0839844,1.2363281,2.7558594
		c0.6376953,0.5205078,1.4414063,0.7822266,2.2460938,0.7539063c1.5712891,0.1503906,2.7416992-0.5097656,3.4262695-1.4667969
		c0.3330078-0.4658203,0.5605469-0.9980469,0.6450195-1.5507813c0.1567383-1.0273438,0.3261719-2.0566406,0.5029297-3.0839844
		c2.3432617-13.6367188,6.3950195-27.1425781,11.2744141-37.4716797c2.6640625-5.6416016,5.1904297-9.5615234,7.3828125-12.1318359
		c1.3222656-0.9892578,2.1298828-1.3496094,2.5322266-1.4785156c0.2587891,0.5664063,0.7109375,2.0976563,0.7382813,5.9189453
		c0.0263672,3.7675781-0.3515625,8.4814453-0.7519531,13.4736328c-1.0927734,13.6210938-2.2226563,27.7070313,3.4931641,33.9257813
		c1.8896484,2.0546875,4.4277344,3.1464844,7.3408203,3.15625h0.0869141
		c0.1464844-0.0029297,0.2919922-0.0175781,0.4335938-0.0390625c0.1542969,0.0097656,0.3076172,0.0166016,0.4628906,0.0185547
		c0.1640625,0.0019531,0.328125,0.0019531,0.4921875-0.0019531c9.7060547-0.2070313,17.3525391-10.5410156,22.0878906-19.2587891
		c0.9555664-1.7587891,1.8710938-3.6054688,2.7426758-5.5058594c0.6323242,6.2412109,1.793457,12.1289063,3.7929688,16.4580078
		c0.9560547,2.0683594,2.0991211,3.7880859,3.4736328,5.0078125c2.234375,1.9833984,4.875,2.9853516,7.6796875,2.9746094
		l0.1992188,0.0048828c1.2402344-0.0263672,2.5097656-0.2509766,3.7890625-0.6796875
		c5.8632813-1.9599609,11.75-7.9941406,17.0234375-17.4492188c1.7480469-3.1337891,3.3896484-6.5878906,4.9130859-10.3085938
		c0.1054688,6.7949219,0.7236328,12.4179688,1.8486328,16.6982422c1.703125,6.46875,4.6875,10.3222656,8.8710938,11.4521484
		c2.5332031,0.6845703,5.1484375,0.2783203,7.5585938-1.1738281c4.5800781-2.7568359,8.7792969-9.5390625,12.796875-20.6816406
		c-0.9765625,6.6884766-2.1464844,14.1035156-3.5,21.6796875c-11.5957031,8.0888672-21.3203125,18.7119141-27.6953125,30.34375
		c-4.0947266,7.4726563-6.5371094,14.9482422-7.1777344,21.4775391c-0.0449219,0.4619141-0.1054688,0.9326172-0.1328125,1.3847656
		c-0.1054688,0.3603516-0.15625,0.7431641-0.1328125,1.1396484c0.0039063,0.0810547,0.0039063,0.3310547,0.0058594,0.53125
		c0.0019531,0.53125,0.0048828,1.2207031,0.0498047,2.0048828c0.0712891,1.2314453,0.2451172,2.7021484,0.6904297,4.1953125
		c0.078125,0.3173828,0.1621094,0.6308594,0.2539063,0.9375c1.9902344,6.5732422,7.0410156,10.2412109,13.8828125,10.0947266
		l0.25-0.0068359c2.7597656-0.0957031,5.3671875-1.1816406,7.8056641-3.2226563
		c1.4228516-1.1904297,2.7880859-2.7089844,4.0917969-4.5527344c0.6767578-0.9580078,1.3388672-1.9931641,1.9814453-3.1259766
		c3.1386719-5.5263672,6.03125-13.3974609,8.5976563-23.3945313c2.8261719-11.0078125,5.0214844-23.609375,6.7050781-35.7519531
		c11.5039063-7.2578125,20.1835938-15.046875,26.5078125-23.78125c6.8476563-9.4560547,10.7675781-20.0429688,11.6484375-31.4658203
		c0.1445313-1.8515625-1.2421875-3.46875-3.09375-3.6113281c-1.8496094-0.140625-3.46875,1.2421875-3.6113281,3.09375
		c-1.4140625,18.2958984-11.34375,33.7001953-30.3027344,46.9316406c0.9003906-7.3710938,1.6113281-14.3652344,2.1621094-20.4863281
		c1.0429688-11.5849609,1.5898438-20.8769531,1.8242188-25.3847656c0.1523438-2.9199219,0.265625-5.6083984,0.3183594-7.5712891
		c0.0234375-0.9003906,0.0351563-1.6210938,0.0332031-2.1396484c-0.0039063-0.9140625-0.0097656-2.6152344-1.6816406-3.6132813
		c-0.9355469-0.5556641-2.0898438-0.6318359-3.0898438-0.203125c-1.7382813,0.7451172-2.1347656,2.3212891-2.6835938,4.5009766
		c-0.3554688,1.4072266-0.7851563,3.3125-1.3339844,5.7246094c-1.671875,7.3798828-4.1992188,18.5332031-7.5410156,28.6279297
		c-4.9921875,15.0820313-9.0957031,19.3564453-11.0976563,20.5625c-0.5859375,0.3525391-1.0664063,0.4941406-1.4667969,0.5283203
		c-0.1464844-0.0322266-0.2949219-0.0546875-0.4492188-0.0673828c-0.3613281-0.0302734-0.7636719-0.140625-1.2460938-0.7460938
		c-1.0820313-1.3564453-2.8085938-5.46875-2.2207031-17.7744141c0.4101563-8.5917969,1.7617188-18.0761719,2.8496094-25.6982422
		c1.0742188-7.5283203,1.578125-11.2304688,1.2949219-13.1113281c-0.2421875-1.6005859-1.2480469-2.8466797-2.6933594-3.3330078
		c-0.765625-0.2578125-3.09375-1.0419922-7.4511719,3.1904297c-0.5332031,0.5195313-0.8808594,1.2001953-0.984375,1.9375
		c-0.1621094,1.1337891-0.3701172,2.6708984-0.5947266,4.4853516c-0.2626953,0.3710938-0.4580078,0.7988281-0.5537109,1.2734375
		c-2.796875,13.8291016-6.9746094,25.9775391-12.0820313,35.1337891c-4.3164063,7.7382813-9.15625,12.9667969-13.28125,14.3457031
		c-0.8652344,0.2890625-1.6601563,0.3945313-2.4023438,0.3125c-0.1640625-0.0732422-0.3339844-0.1376953-0.515625-0.1855469
		c-1.3671875-0.359375-5.2753906-6.3505859-5.28125-28.4101563c0-1.6816406,0.0234375-3.3964844,0.0683594-5.1347656
		c3.203125-5.0097656,10.3535156-18.2421875,16.3984375-32.6337891c3.6835938-8.7685547,6.3144531-16.4462891,7.8203125-22.8222656
		c1.9726563-8.3398438,2.0019531-14.3486328,0.0917969-18.3710938c-1.6191406-3.40625-4.546875-5.3349609-8.4726563-5.578125
		c-5.609375-0.3476563-10.5136719,4.4443359-14.5859375,14.2402344
		c-5.425293,13.0546875-9.4018555,34.8476563-10.3764648,56.8740234c-0.0874023,1.9726563-0.1572266,4.1591797-0.1923828,6.4736328
		c-1.9311523,6.9589844-4.7631836,14.1748047-8.0068359,20.1455078
		c-5.4755859,10.0761719-11.5166016,15.8134766-16.5742188,15.7441406
		c-0.4658203-0.0068359-0.6552734-0.1269531-0.8632813-0.3603516c-0.6025391-0.6777344-1.6132813-2.7617188-1.5917969-9.0703125
		c0.0166016-4.9453125,0.65625-11.0566406,1.2753906-16.9667969c1.4199219-13.5712891,2.6455078-25.2900391-1.9208984-30.2509766
		c-1.4755859-1.6044922-3.4462891-2.4267578-5.6972656-2.3789063c-8.0419922,0.1708984-14.8251953,10.9912109-19.0986328,20.0361328
		c-1.78125,3.7685547-3.4550781,7.9326172-4.9863281,12.359375c0.1113281-1.9980469,0.2255859-3.9521484,0.3378906-5.8330078
		c0.6230469-4.3300781,1.3193359-9.1914063,1.7763672-13.1914063c0.8125-7.1015625,0.6767578-8.9345703-0.7626953-10.3222656
		c-0.8134766-0.7841797-1.9599609-1.1318359-3.0664063-0.9306641c-1.5654297,0.2851563-2.5556641,1.4072266-2.9443359,3.3320313
		c-0.1044922,0.5166016-0.2070313,1.2119141-0.3144531,2.125c-0.1845703,1.5576172-0.3925781,3.8144531-0.6132813,6.7080078
		c-0.2363281,3.1025391-0.4951172,6.9833984-0.7724609,11.5917969l-0.0058594,0.0380859
		c-0.3916016,2.7226563-0.7285156,5.0732422-0.9541016,6.8398438c-0.1269531,0.9755859-0.2080078,1.7041016-0.25,2.2275391
		c-0.046875,0.5878906-0.1513672,1.859375,0.5332031,2.9248047c-0.4116211,7.7216797-0.7670898,15.1132813-0.9882813,19.84375
		c-0.1118164,2.3945313-0.1884766,4.1035156-0.2211914,4.8310547
		C284.3867188,334.046875,284.3808594,334.1855469,284.3803711,334.1992188z M408.3125,381.0195313
		c-1.7509766,4.8984375-3.375,8.3935547-4.8125,10.8964844c-1.0117188,1.7626953-1.9296875,3.0322266-2.7314453,3.9423828
		c-1.5703125,1.7822266-2.6982422,2.2021484-3.2158203,2.2929688c-2.3398438,0.4072266-4.0292969,0.1904297-5.0253906-0.6435547
		c-0.6132813-0.515625-1.0078125-1.2949219-1.2636719-2.1523438c-0.2529297-1.1113281-0.3828125-2.3320313-0.4072266-3.6357422
		c-0.0283203-1.4804688,0.0849609-3.0703125,0.3408203-4.7470703c0.7939453-5.2021484,2.9228516-11.2099609,6.2050781-17.2001953
		c4.8125-8.7792969,11.7089844-16.9482422,19.9433594-23.7353516
		C414.4726563,360.5244141,411.4375,372.2822266,408.3125,381.0195313z M365.4824219,248.46875
		c4.4472656-18.3710938,9.4296875-24.3740234,11.7304688-23.9589844c0.1738281,0.2167969,0.3164063,0.4609375,0.4433594,0.7294922
		c1.1113281,2.3378906,2.5507813,10.4960938-8.0351563,35.7021484c-3.0214844,7.1914063-6.3574219,14.1474609-9.28125,19.8251953
		C361.3652344,269.4765625,363.1503906,258.0947266,365.4824219,248.46875z"/>
	<path class="st3" d="M500,470.6533203c-10.5537109,14.1083984-23.6699219,19.7773438-29,22
		c-2.9384766,1.2255859-16.6171875,6.7011719-34,5c-2.78125-0.2724609-9.3769531-0.9902344-14.7060547-3.625
		c4.1796875-2.7451172,8.1816406-6.3671875,7.7060547-10.375c-0.4882813-4.1152344-5.6298828-8.0820313-11-8
		c-5.7441406,0.0878906-10.6777344,4.7919922-11,9c-0.2792969,3.6464844,2.8886719,7.1669922,7.1064453,10.1220703
		c-3.6416016,1.4277344-7.3125,2.4023438-9.1064453,2.8779297c-4.4111328,1.1689453-18.3408203,4.8535156-30.0703125,2.6728516
		c4.6689453-4.3154297,8.8193359-10.0527344,8.0703125-16.6728516c-0.828125-7.3251953-7.6699219-15.8623047-17-16
		c-8.4648438-0.125-16.4609375,6.7001953-17,14c-0.5708008,7.7255859,7.4003906,13.4257813,11,16
		c2.3984375,1.7148438,4.9306641,3.0869141,7.5449219,4.1757813C359.4384766,509.453125,345.574707,511.7373047,340,512.6533203
		c-6.96875,1.1455078-19.0380859,2.1230469-34-2c8.8374023,3.0166016,37.0107422,11.3876953,60-3
		c1.4980469-0.9375,3.9013672-2.4433594,6.4716797-4.4208984c15.1162109,4.5419922,32.25,0.3984375,43.5283203-5.5791016
		c0.5849609-0.3095703,1.2470703-0.6611328,1.9560547-1.0488281c3.7626953,2.2177734,7.8916016,3.984375,11.0439453,5.0488281
		c21.2675781,7.1806641,51.2617188,0.3779297,69-21c14.4316406-17.3935547,15.1220703-37.6513672,15-45
		C512.5507813,441.8232422,510.6367188,456.4335938,500,470.6533203z M371.3583984,499.109375
		c-3.2089844-1.1474609-6.0976563-2.8886719-8.3583984-5.4560547c-1.0820313-1.2285156-5.0698242-5.7578125-4-11
		c0.5800781-2.8398438,2.6787109-6.0634766,6-7c4.5458984-1.2822266,9.2148438,2.3330078,11,6
		c2.3535156,4.8339844-0.1230469,10.1269531-1,12C374.0498047,495.6845703,372.8037109,497.4902344,371.3583984,499.109375z
		 M416,488.6533203c-0.5302734-0.8925781-1.8554688-3.1220703-1-5c0.9863281-2.1660156,4.5703125-3.2001953,7-2
		c1.8632813,0.9199219,3.0810547,3.171875,3,5c-0.1025391,2.3037109-2.2851563,4.2880859-5.1757813,5.9248047
		C418.2763672,491.5087891,416.9355469,490.2275391,416,488.6533203z"/>
	<path class="st1" d="M530,386.6533203c-2.3193359-1.2890625-6.34375,1.2949219-9,3c-3.6201172,2.3242188-5.8134766,5.1748047-7,7
		c-1.2480469-1.7734375-3.7714844-4.8417969-8-7c-2.796875-1.4277344-6.7832031-3.4619141-9-2
		c-3.9394531,2.5996094-0.6328125,15.1572266,3,23c4.1054688,8.8623047,10.0078125,14.6816406,14,18
		c9.2421875-7.8710938,13.1914063-16.0351563,15-21C531.65625,400.3613281,533.7783203,388.7529297,530,386.6533203z"/>
	<path class="st1" d="M465.9375,369.8486328c6.5527344-7.6162109,8.7402344-14.7978516,9.5849609-19.0878906
		c1.2412109-6.3027344,1.4951172-16.0664063-1.8632813-17.2998047c-2.0615234-0.7578125-5.0214844,1.8671875-6.9765625,3.6015625
		c-2.6630859,2.3623047-4.09375,4.9746094-4.8310547,6.6181641c-1.2460938-1.2919922-3.7011719-3.4775391-7.4355469-4.703125
		c-2.4697266-0.8095703-5.9892578-1.9648438-7.6152344-0.4863281c-2.8896484,2.6279297,1.4179688,12.4755859,5.3896484,18.4248047
		C456.6796875,363.6396484,462.2490234,367.6445313,465.9375,369.8486328z"/>
	<path class="st2" d="M497.4853516,378.5566406c7.9648438-4.1601563,12.1591797-9.4023438,14.28125-12.6884766
		c3.1171875-4.8251953,6.5595703-12.8544922,4.1777344-14.9912109c-1.4619141-1.3115234-4.7910156-0.109375-6.9892578,0.6835938
		c-2.9951172,1.0820313-5.046875,2.7792969-6.2041016,3.9003906c-0.6083984-1.4853516-1.9248047-4.1152344-4.6220703-6.3681641
		c-1.7832031-1.4912109-4.3261719-3.6142578-6.1660156-2.9248047c-3.2714844,1.2285156-2.9511719,10.8359375-1.6201172,17.09375
		C491.8476563,370.3330078,495.1503906,375.5048828,497.4853516,378.5566406z"/>
	<path class="st3" d="M479.9765625,333.6865234c0.21875,1.6162109,0.2607422,2.9736328,0.2578125,3.9169922
		c0.0019531-0.921875,0.0888672-2.2646484,0.5058594-3.8164063c0.3427734-1.2773438,1.0146484-3.7792969,3.0986328-5.8007813
		c2.7529297-2.671875,6.2949219-2.8828125,7.375-2.90625c-3.6298828-0.6015625-5.2763672-2.4355469-5.8017578-3.0986328
		c-1.4404297-1.8164063-1.7197266-3.9873047-2.1425781-7.2734375c-0.2070313-1.6083984-0.2548828-2.9619141-0.2578125-3.9169922
		c-0.2539063,0.890625-0.6582031,2.1894531-1.2685547,3.7148438c-1.140625,2.8496094-1.8251953,4.5605469-3.0986328,5.8017578
		c-2.4580078,2.3935547-6.2861328,2.2382813-8.0371094,2.0410156c1.5791016,0.2607422,5.1298828,1.0976563,7.2275391,4.0644531
		C479.2695313,328.4414063,479.5957031,330.859375,479.9765625,333.6865234z"/>
	<path class="st3" d="M478.1787109,376.6269531c1.3388672,1.6855469,1.7382813,3.7607422,2.2050781,6.1875
		c0.2666016,1.3867188,0.3681641,2.5595703,0.4111328,3.3759766c-0.0419922-0.7978516-0.03125-1.9638672,0.2539063-3.3251953
		c0.234375-1.1220703,0.6943359-3.3183594,2.3994141-5.1679688c2.2519531-2.4433594,5.3056641-2.7978516,6.2382813-2.8701172
		c-3.1689453-0.3447266-4.6806641-1.8505859-5.1679688-2.3994141c-1.3330078-1.5019531-1.6796875-3.3652344-2.2041016-6.1875
		c-0.2568359-1.3808594-0.3632813-2.5498047-0.4121094-3.3759766c-0.1767578,0.7832031-0.4638672,1.9257813-0.9179688,3.2744141
		c-0.8486328,2.5205078-1.3583984,4.0332031-2.4003906,5.1679688c-2.0097656,2.1894531-5.3291016,2.2392578-6.8525391,2.1542969
		C473.109375,373.609375,476.2207031,374.1621094,478.1787109,376.6269531z"/>
	<path class="st3" d="M441.390625,356.4296875c-0.2207031,0.9316406-0.5791016,2.2929688-1.1386719,3.8964844
		c-1.0449219,2.9970703-1.6728516,4.7958984-2.9316406,6.1367188c-2.4267578,2.5869141-6.3896484,2.6035156-8.2070313,2.4814453
		c1.6435547,0.1953125,5.3496094,0.8955078,7.6542969,3.8632813c1.5761719,2.0292969,2.0253906,4.5107422,2.5507813,7.4140625
		c0.3007813,1.6591797,0.4072266,3.0595703,0.4482422,4.0341797c-0.0400391-0.953125-0.0126953-2.34375,0.3457031-3.9648438
		c0.2949219-1.3369141,0.8720703-3.9521484,2.9316406-6.1376953c2.71875-2.8867188,6.3681641-3.2695313,7.4833984-3.34375
		c-3.7783203-0.4521484-5.5634766-2.2705078-6.1376953-2.9316406c-1.5712891-1.8095703-1.9609375-4.0380859-2.5507813-7.4140625
		C441.5498047,358.8125,441.4384766,357.4160156,441.390625,356.4296875z"/>
	<path class="st3" d="M508.390625,378.2109375c1.1386719,0.21875,3.6953125,0.8945313,5.1572266,3.0849609
		c1,1.4970703,1.1894531,3.2548828,1.4111328,5.3115234c0.1269531,1.1748047,0.1308594,2.1591797,0.1113281,2.8427734
		c0.0195313-0.6679688,0.1083984-1.6386719,0.4404297-2.7548828c0.2724609-0.9199219,0.8076172-2.71875,2.3574219-4.1435547
		c2.0458984-1.8818359,4.6162109-1.9667969,5.3994141-1.9619141c-2.6181641-0.5068359-3.7753906-1.8671875-4.1435547-2.3583984
		c-1.0078125-1.34375-1.1689453-2.921875-1.4111328-5.3115234c-0.1191406-1.1689453-0.1279297-2.1503906-0.1113281-2.8427734
		c-0.2011719,0.640625-0.5195313,1.5742188-0.9912109,2.6669922c-0.8818359,2.0429688-1.4101563,3.2695313-2.3574219,4.1435547
		C512.4257813,378.5742188,509.6552734,378.3876953,508.390625,378.2109375z"/>
	<path class="st3" d="M252.3295898,421.2880859c-2.2680664-2.4931641-2.8876953-5.6152344-3.8256836-10.3417969
		c-0.4589844-2.3125-0.6616211-4.2724609-0.7597656-5.6582031c-0.2802734,1.3183594-0.7402344,3.2421875-1.4750977,5.515625
		c-1.3735352,4.2480469-2.1977539,6.7978516-3.9238281,8.7236328c-3.3291016,3.7158203-8.8989258,3.8681641-11.4584961,3.7548828
		c2.3164063,0.2216797,7.550293,1.0859375,10.8867188,5.1835938c2.28125,2.8017578,2.9931641,6.2773438,3.8256836,10.3417969
		c0.4760742,2.3232422,0.6713867,4.2890625,0.7597656,5.6582031c-0.0874023-1.3388672-0.0932617-3.2949219,0.3579102-5.5869141
		c0.371582-1.8886719,1.0986328-5.5839844,3.9238281-8.7236328c3.7294922-4.1464844,8.8481445-4.8046875,10.4130859-4.9433594
		C255.7275391,424.6972656,253.1582031,422.1992188,252.3295898,421.2880859z"/>
	<path class="st3" d="M224.7441406,406.9814453c-1.4394531-1.8164063-1.71875-3.9863281-2.1420898-7.2734375
		c-0.2070313-1.6074219-0.2543945-2.9619141-0.2573242-3.9169922c-0.2539063,0.8916016-0.6586914,2.1904297-1.269043,3.7148438
		c-1.140625,2.8505859-1.824707,4.5615234-3.0991211,5.8017578c-2.4570313,2.3935547-6.2851563,2.2382813-8.0361328,2.0419922
		c1.5791016,0.2597656,5.1289063,1.0966797,7.2270508,4.0634766c1.434082,2.0292969,1.7602539,4.4462891,2.1420898,7.2734375
		c0.2182617,1.6162109,0.2602539,2.9746094,0.2573242,3.9169922c0.0024414-0.921875,0.0893555-2.2636719,0.5058594-3.8154297
		c0.3432617-1.2783203,1.0146484-3.7792969,3.0991211-5.8017578c2.7519531-2.6708984,6.2944336-2.8828125,7.3740234-2.9052734
		C226.9165039,409.4794922,225.2705078,407.6455078,224.7441406,406.9814453z"/>
	<path class="st3" d="M239.0371094,442.8447266c-0.5009766-2.0087891-0.7617188-3.71875-0.9067383-4.9296875
		c-0.1899414,1.1679688-0.5112305,2.875-1.059082,4.8994141c-1.0239258,3.7841797-1.6386719,6.0556641-3.0708008,7.8173828
		c-2.7617188,3.4003906-7.6401367,3.7705078-9.8901367,3.7802734c2.0415039,0.0957031,6.6679688,0.6318359,9.7680664,4.0839844
		c2.1196289,2.3603516,2.8916016,5.3779297,3.7944336,8.9072266c0.5161133,2.0166016,0.7705078,3.7333984,0.9067383,4.9296875
		c-0.1337891-1.1699219-0.222168-2.8857422,0.0761719-4.9150391c0.2460938-1.671875,0.7270508-4.9433594,3.0708008-7.8173828
		c3.0952148-3.7949219,7.5561523-4.5888672,8.9228516-4.7773438c-4.6928711-0.2246094-7.0522461-2.3066406-7.8178711-3.0703125
		C240.7368164,449.6621094,240.0605469,446.9511719,239.0371094,442.8447266z"/>
</g>
</svg>
