<?xml version="1.0" encoding="utf-8"?>
<!-- Generator: Adobe Illustrator 22.0.1, SVG Export Plug-In . SVG Version: 6.00 Build 0)  -->
<svg version="1.1" id="Шар_1" xmlns="http://www.w3.org/2000/svg" xmlns:xlink="http://www.w3.org/1999/xlink" x="0px" y="0px"
	 viewBox="0 0 714 714" style="enable-background:new 0 0 714 714;" xml:space="preserve">
<g>
	<path d="M235.637207,393.4658203c27.7827148,37.8388672,97.2329102,16.9228516,112.1630859-23.3916016
		c0.0629883-0.1689453,0.1157227-0.3408203,0.1772461-0.5097656c8.5634766,11.2431641,22.2568359,9.7636719,32.1259766,2.1835938
		c2.9501953,3.8310547,7.5839844,5.9072266,13.1738281,5.9091797c5.7148438,0,11.6630859-3.6826172,17.0878906-8.7832031
		l1.8212891,2.4794922c7.1054688,10.21875,19.9589844,6.625,28.0205078-0.1591797
		c0.7841797-0.6572266,1.578125-1.3798828,2.3740234-2.1386719c3.7470703,4.9199219,7.7695313,8.5205078,15.2783203,8.5205078
		c6.9570313,0,14.3603516-5.5859375,20.7480469-12.5859375c6.4414063,8.6230469,13.3759766,12.5820313,24.9804688,12.6621094
		c19.6396484,0.2392578,33.6103516-16.6835938,42.0712891-32.4921875c1.6748047-3.109375,1.8349609-6.8632813-0.4794922-9.65625
		l-7.5839844-10.2167969c-3.3515625-4.6308594-1.9150391-2.3945313-4.3095703-4.3911133l-6.8652344-9.4194336
		c-5.8271484-7.9038086-12.4550781-11.1782227-23.0703125-11.4179688c-6.2822266-0.1474609-11.890625,1.1342773-16.7607422,3.40625
		c-0.5175781-1.7832031-1.3720703-3.4682617-2.546875-4.921875l-3.4335938-4.7905273
		c-4.7109375-6.3842773-8.1435547-13.0102539-16.5244141-13.0102539c-3.7568359,0-6.9892578,1.4526367-9.3769531,3.7246094
		c-0.3398438-2.550293-0.9667969-6.137207-4.1230469-10.4267578l-8.7021484-11.8969727
		c-8.2236328-11.2563477-27.5400391-8.4628906-24.90625,3.0332031c0.9609375,4.5507813,0.3994141,10.1381836-0.5566406,15.168457
		c-10.3779297,0-12.1367188,8.7021484-8.2246094,13.4111328l3.2724609,4.4692383
		c-0.7402344,2.21875-1.6601563,4.7866211-2.6572266,7.5859375c-5.1044922-6.4506836-22.0195313-8.9663086-30.0625,2.152832
		c-5.8291016-9.2597656-22.2734375-10.3779297-29.8574219-2.2363281
		c-4.1635742,4.4477539-7.7939453,12.762207-10.2265625,20.9584961l-2.199707-2.996582
		c-14.9287109-21.6342773-58.0375977-16.206543-63.3852539,12.2929688
		c-0.6391602,3.5126953-0.1601563,6.3066406,1.3574219,8.0634766l4.6289063,6.3056641
		c3.9936523,5.3486328,5.4311523,9.2597656,12.1367188,8.3017578c-1.4375,8.2236328-7.9033203,11.6572266-14.8486328,9.5810547
		c-4.3115234-1.2744141-4.3896484-2.3925781-5.9868164-7.9023438c-5.7470703-19.8798828-2.3144531-46.2231445,12.5327148-61.8691406
		c10.9350586,2.3925781,21.1533203,4.1499023,32.5693359,2.7919922
		c27.0654297-3.1894531,33.3701172-22.3510742,23.6308594-35.1235352l-8.1416016-11.0952148
		c-15.6474609-21.3959961-49.4130859-13.7319336-69.8510742,1.1967773
		c-9.4995117-2.8754883-18.6010742-5.2700195-28.8188477-5.5092773c-46.78125-1.199707-63.4638672,34.484375-48.4570313,54.9223633
		l7.5844727,10.2998047c6.3095703,8.5439453,14.0498047,13.6523438,26.1865234,13.2529297
		c-0.878418,5.0297852-1.3579102,9.9790039-1.3642578,14.9321289C216.078125,369.0380859,223.9799805,377.5,235.637207,393.4658203z
		 M465.1933594,285.5307617c4.9521484,0,8.9423828,3.9936523,8.9423828,8.9418945
		c0,5.0302734-3.9931641,9.0205078-8.9423828,9.0205078c-0.7207031,0-1.4199219-0.09375-2.09375-0.2539063
		c-3.9521484-0.9404297-6.9257813-4.4716797-6.9257813-8.7666016c0-1.5239258,0.3886719-2.9555664,1.0664063-4.2094727
		C458.765625,287.4448242,461.7675781,285.5307617,465.1933594,285.5307617z M353.4628906,308.9238281
		c7.3447266-7.7456055,25.8642578-2.2363281,20.1171875,3.0317383c-3.2763672,2.9550781-7.4277344,25.2260742-5.1914063,25.6264648
		c5.1914063,0.8779297,7.34375-9.1816406,8.7021484-13.09375c2.3945313-6.8652344,5.5087891-12.8520508,8.0634766-15.5673828
		c7.34375-7.7456055,25.8632813-2.2363281,20.1162109,3.0332031c-3.1816406,2.8710938-7.1923828,24-5.3574219,25.5351563
		l0.1699219,0.0888672c1.1396484,0.2011719,4.2490234-3.4814453,7.5322266-8.0214844
		c1.4248047-5.5629883,3.4423828-11.6005859,5.5634766-17.7998047c2.2568359-6.59375,4.6220703-13.3623047,6.4960938-19.9228516
		h-3.9121094c-1.9150391,0-3.4326172-1.5175781-3.4326172-3.3544922c0-1.9150391,1.5175781-3.4326172,3.4326172-3.4326172h5.7480469
		c1.8369141-7.7421875,2.6367188-15.0869141,1.3574219-21.0737305c-0.8007813-3.1147461,2.7158203-4.1513672,5.1083984-4.1513672
		c11.4179688-0.078125,14.7714844,8.7807617,14.4511719,18.6010742c-0.078125,2.0766602-0.2402344,4.3129883-0.4794922,6.6274414
		h5.1083984c1.9150391,0,3.4345703,1.5175781,3.4345703,3.4326172c0,1.8369141-1.5195313,3.3544922-3.4345703,3.3544922h-5.9091797
		c-2.0742188,14.5292969-5.90625,30.7338867-7.8203125,36.3950195c-0.3632813,1.4506836-2.0361328,7.7041016-1.0195313,9.0703125
		c0.1015625,0.1367188,0.2207031,0.2412109,0.3808594,0.2705078c1.1699219,0.1308594,4.0908203-3.2890625,7.2490234-7.628418
		c2.5273438-9.0844727,6.5410156-17.6152344,9.7666016-21.0239258c3.1074219-3.2758789,8.2275391-4.1748047,12.6630859-3.734375
		c6.046875,0.6000977,10.8183594,3.6938477,7.4570313,6.6875c-3.1943359,2.9550781-7.4238281,25.3076172-5.1914063,25.6259766
		c0.1962891,0.0332031,0.4453125-0.0439453,0.7324219-0.2011719c1.4697266-0.8027344,4.0351563-3.9189453,6.75-7.671875
		c1.953125-8.0922852,7.0810547-15.8466797,14.9189453-20.465332c4.7783203-2.815918,10.5605469-4.4707031,17.2509766-4.3139648
		c22.3515625,0.4790039,31.9306641,22.4326172-5.6708984,26.7441406c-0.9570313,7.265625,19.5595703,8.7021484,28.5791016-4.7089844
		c2.7978516-4.0703125,8.703125-1.6757813,6.0703125,3.3510742c-8.3027344,14.769043-20.1953125,30.0961914-37.8388672,29.9370117
		c-4.3046875-0.0361328-7.9931641-0.8007813-11.1074219-2.1142578c-6.9638672-2.9375-11.0185547-8.6494141-12.4707031-15.2832031
		c-1.4208984,1.9238281-2.8867188,3.7861328-4.3837891,5.5332031c-5.4599609,6.3710938-11.3222656,11.1914063-16.8203125,11.7324219
		c-0.3417969,0.0341797-0.6816406,0.0527344-1.0195313,0.0527344c-3.2734375,0-6.3847656-1.0390625-8.6992188-3.1933594
		c-2.3779297-2.3359375-3.3710938-6.2675781-3.4277344-10.9140625c-1.6992188,2.1142578-3.4550781,4.09375-5.2626953,5.8886719
		c-1.0556641,1.046875-2.1269531,2.0390625-3.2167969,2.9472656c-2.9082031,2.4677734-6.8466797,4.6572266-10.7197266,5.2626953
		c-3.8916016,0.6083984-7.7158203-0.3837891-10.3574219-4.3056641c-1.8320313-2.765625-2.5-6.5302734-2.5537109-10.421875
		c-1.7558594,2.2451172-3.5683594,4.3623047-5.4101563,6.2587891c-4.9335938,5.0791016-10.0771484,8.5615234-14.8984375,8.5615234
		c-6.3857422,0-10.4560547-3.2714844-11.7353516-9.4199219c-5.5722656,7.5927734-15.5405273,10.9882813-22.8803711,8.5800781
		c-5.7041016-1.8710938-9.8208008-7.2470703-9.0517578-16.8828125c0.2382813-3.1435547,0.8144531-6.4912109,1.6176758-9.8222656
		C345.4462891,322.5952148,349.9277344,312.7001953,353.4628906,308.9238281z M206.1411133,311.7158203
		c-15.4863281-0.6386719-23.7890625-12.0532227-22.6708984-24.1879883
		c2.1547852-24.1103516,27.8623047-32.4916992,48.6958008-32.012207
		c10.8603516,0.2397461,20.1982422,3.0332031,29.8574219,5.9868164
		c12.0551758-9.4194336,27.0620117-15.3266602,41.5913086-14.769043c30.8125,1.0366211,36.7993164,33.0488281,1.9150391,37.1220703
		c-12.1347656,1.4360352-22.8320313-0.878418-33.4477539-3.3544922
		C239.1894531,311.5561523,254.4394531,382.5253906,285.652832,372.625
		c15.5673828-4.9462891,13.6523438-34.4863281-3.9902344-31.3710938c-2.793457,0.4775391-4.7900391,0.6386719-3.9116211-4.390625
		c5.1826172-27.5117188,53.9399414-30.0664063,58.5625-0.3798828c0.2197266,1.4101563,0.3427734,2.8916016,0.3535156,4.4492188
		c0.0117188,2.8632813-0.2827148,5.6533203-0.8286133,8.3671875C325.5,400.671875,220.4619141,423.2109375,220.9912109,344.1259766
		c0.1582031-21.7143555,10.1381836-48.0576172,26.3432617-67.8544922
		c-10.6176758-0.5576172-27.3032227,3.034668-28.4995117,16.0463867c-0.3193359,3.9086914,1.7568359,7.7426758,6.1464844,8.8603516
		c2.0766602,0.4780273,0.8803711,2.7939453,0.8803711,2.7939453
		C221.4707031,309.3217773,213.8046875,312.0336914,206.1411133,311.7158203z"/>
	<path d="M301.621582,269.0083008c11.0131836-0.6391602,10.0566406-6.9487305,0.078125-4.9516602
		c-3.5126953,0.71875-7.5839844,2.1547852-11.6542969,4.394043
		C293.4780273,269.0083008,297.5483398,269.3261719,301.621582,269.0083008z"/>
	<path d="M504.3662109,316.3432617c-2.9550781,1.7587891-5.1113281,4.7124023-6.0664063,7.8237305
		C511.2314453,323.2885742,513.5458984,310.8359375,504.3662109,316.3432617z"/>
	<path d="M367,399c-81.0722656,14.84375-142.3608398,34.5273438-142,36c0.4042969,1.6503906,78.6669922-18.0830078,200-37
		c59.1875-9.2275391,75.8251953-10.0292969,76-9c0.3154297,1.8525391-52.5761719,10.5400391-123,33
		c-28.9370117,9.2285156-71.2563477,22.7255859-70,29c1.8540039,9.2607422,97.7851563-1.4179688,112-3
		c56.7626953-6.3183594,87.3964844-13.9726563,89-9c1.0341797,3.2060547-9.9990234,11.6767578-64,35
		c60.4101563-19.9101563,100.6210938-35.9335938,99-43c-3.5742188-15.5810547-208.5004883,21.1523438-210,13
		c-1.5493164-8.4238281,216.7705078-50.1445313,215-61C547.8603516,376.0126953,455.6933594,382.7607422,367,399z"/>
	<path d="M205.7636719,365.0537109c-6.2216797-1.8603516-9.9287109-5.7626953-12.0380859-7.9833984
		c-11.0400391-11.6230469-12.7695313-34.1831055-12.9331055-36.6166992
		c0.0717773,4.5776367,0.0253906,23.5864258-9.6108398,35.7299805c-1.3935547,1.7568359-3.8432617,4.78125-8.1318359,7.1328125
		c-6.6547852,3.6494141-13.3017578,3.2451172-16.3032227,2.8632813c5.7954102,1.2978516,18.5336914,5.0917969,26.9433594,16.5087891
		c5.2568359,7.1376953,7.09375,14.90625,8.5332031,20.9941406c1.8520508,7.8330078,2.1552734,14.5585938,2.0844727,19.2001953
		c0.2460938-3.1464844,0.6728516-7.6669922,1.4453125-13.0732422c2.0908203-14.6308594,3.1362305-21.9462891,7.0102539-28.2226563
		c2.0922852-3.3896484,7.9003906-11.2519531,22.3935547-15.6455078
		C213.0131836,366.1464844,209.621582,366.2070313,205.7636719,365.0537109z"/>
	<path d="M152.871582,327.7421875c0.418457,5.2128906-0.0483398,9.5625-0.5507813,12.5361328
		c0.4677734-1.9960938,1.1865234-4.8574219,2.2148438-8.2539063c2.7827148-9.1904297,4.1738281-13.7861328,7.2797852-17.4355469
		c1.6772461-1.9711914,6.1806641-6.4487305,15.9213867-7.8442383c-1.3969727-0.0795898-3.5810547-0.3745117-5.9453125-1.4946289
		c-3.8129883-1.8066406-5.809082-4.6777344-6.9458008-6.3120117c-5.9462891-8.5512695-4.8369141-23.2104492-4.7026367-24.7890625
		c-0.4042969,2.9467773-2.3046875,15.1503906-9.6884766,22.0014648c-1.0678711,0.9907227-2.9384766,2.6923828-5.9243164,3.7807617
		c-4.6328125,1.6884766-8.8623047,0.7749023-10.7524414,0.234375c3.5942383,1.4038086,11.4018555,5.09375,15.6796875,13.2543945
		C152.1308594,318.5205078,152.5463867,323.6914063,152.871582,327.7421875z"/>
	<path d="M546.4853516,316.2978516c3.8076172,6.4311523,4.6933594,13.1044922,5.3876953,18.3330078
		c0.8925781,6.7275391,0.5791016,12.3964844,0.1279297,16.2841797c0.4726563-2.6191406,1.2119141-6.3759766,2.3164063-10.8466797
		c2.9882813-12.0981445,4.4824219-18.1474609,8.2626953-23.0864258c2.0410156-2.6669922,7.5771484-8.7729492,20.1074219-11.2363281
		c-1.8154297-0.0092773-4.6669922-0.2446289-7.8056641-1.5375977c-5.0634766-2.0849609-7.84375-5.671875-9.4267578-7.7133789
		c-8.28125-10.6826172-7.828125-29.7553711-7.7607422-31.8110352c-0.3261719,3.8466797-1.96875,19.7905273-11.0771484,29.1655273
		c-1.3183594,1.355957-3.6279297,3.6870117-7.4248047,5.2983398c-5.890625,2.5-11.4335938,1.5996094-13.9189453,1.0268555
		C530.0253906,301.7519531,540.3925781,306.0087891,546.4853516,316.2978516z"/>
	<path d="M581.0439453,368.7929688c-3.3789063-1.5019531-5.1904297-3.9746094-6.2207031-5.3818359
		c-5.3925781-7.3652344-4.7333984-20.2324219-4.6494141-21.6191406c-0.2910156,2.5908203-1.6962891,13.3232422-8.0195313,19.484375
		c-0.9140625,0.890625-2.5166016,2.421875-5.109375,3.4384766c-4.0234375,1.5791016-7.7480469,0.8681641-9.4160156,0.4355469
		c3.1787109,1.1533203,10.0986328,4.21875,14.0205078,11.2773438c2.4521484,4.4121094,2.9267578,8.9335938,3.2978516,12.4765625
		c0.4785156,4.5585938,0.1621094,8.3789063-0.2148438,10.9951172c0.3671875-1.7587891,0.9355469-4.28125,1.7636719-7.2792969
		c2.2421875-8.1113281,3.3632813-12.1679688,6.0058594-15.4316406c1.4277344-1.7626953,5.2783203-5.7822266,13.7832031-7.2128906
		C585.0595703,369.9355469,583.1396484,369.7236328,581.0439453,368.7929688z"/>
</g>
</svg>
