<?xml version="1.0" encoding="utf-8"?>
<!-- Generator: Adobe Illustrator 22.0.1, SVG Export Plug-In . SVG Version: 6.00 Build 0)  -->
<svg version="1.1" id="Шар_1" xmlns="http://www.w3.org/2000/svg" xmlns:xlink="http://www.w3.org/1999/xlink" x="0px" y="0px"
	 viewBox="0 0 714 714" style="enable-background:new 0 0 714 714;" xml:space="preserve">
<style type="text/css">
	.st0{fill:#FFFFFF;}
	.st1{fill:#A22E39;}
	.st2{fill:#EA7878;}
	.st3{fill:#F9CEA7;}
</style>
<g>
	<path class="st0" d="M581,370c-0.5683594-0.7578125-1.8583984-2.5722656-3.5-6.5
		c-1.7998047-4.3066406-4.0302734-11.171875-4.5-20.5c-0.6435547,4.0976563-3.1904297,16.8378906-14,24
		c-2.0136719,1.3339844-4.0498047,2.2998047-6,3c4.0009766-12.5175781,8.2021484-22.4316406,11.5-29.5
		c3.0664063-6.5722656,4.7294922-9.2900391,7-12c7.0927734-8.4658203,16.5107422-11.671875,22-13
		c-4.8886719-0.6425781-13.9501953-2.6308594-20-10c-2.5966797-3.1630859-3.7353516-6.2177734-5-10
		c-2.4160156-7.2255859-5.4589844-17.6171875-8-31c-3.4365234,13.7021484-9.1777344,22.8652344-13,28
		c-5.2587891,7.0644531-9.1943359,9.6064453-12,11c-5.5605469,2.7617188-10.8505859,3.078125-14,3
		c-2.4570313-1.4355469-9.1601563-4.9023438-18-4c-5.5019531,0.5615234-9.6396484,2.5927734-12,4
		c-3.1455078-7.1396484-7.3496094-11.6015625-10-14c-3.5429688-3.2050781-7.3154297-6.6191406-13-7
		c-3.9648438-0.265625-7.1816406,1.0566406-9,2c-0.9306641-4.3515625-3.1669922-11.4921875-9-18
		c-2.6660156-2.9746094-6.4501953-7.1953125-13-9c-2.734375-0.7529297-8.7431641-1.8544922-15,1
		c-3.875,1.7675781-10.234375,6.1416016-10,11c0.0859375,1.7929688,1.0058594,2.2949219,2,6
		c0.7783203,2.9003906,0.9628906,5.3789063,1,7c-0.7314453,0.1171875-7.0566406,1.2431641-10,7
		c-2.0683594,4.0449219-1.2353516,7.96875-1,9c0.859375,3.7685547,3.0683594,6.1123047,4,7
		c-1.3935547-0.890625-10.2089844-6.3300781-20-3c-3.7333984,1.2695313-6.3730469,3.3945313-8,5
		c-1.2587891-1.2119141-8.9794922-8.4199219-19-7c-6.1376953,0.8691406-10.28125,4.5703125-13,7
		c-5.2402344,4.6806641-7.7978516,9.9521484-9,13c-1.1386719-1.4628906-2.7680664-3.2636719-5-5
		c-2.6015625-2.0234375-5.112793-3.2509766-7-4c1.7255859-0.3427734,17.996582-3.8242188,23-17
		c2.2988281-6.0546875,1.4257813-12.0673828,1-15c-1.140625-7.8505859-4.5517578-13.2285156-7-17
		c-3.2783203-5.0488281-9.1533203-14.0976563-20-19c-12.1855469-5.5078125-23.8251953-2.6972656-35,0
		c-6.9199219,1.6699219-17.5268555,5.1474609-29,13c-6.4389648-3.3632813-17.2202148-7.7763672-31-8
		c-6.9892578-0.1132813-22.105957-0.359375-36,10c-3.2583008,2.4296875-12.5927734,9.5957031-17,23
		c-3.6616211,11.1367188-2.0048828,20.7480469-1,25c-2.3393555-3.1201172-4.8642578-7.1083984-7-12
		c-4.7485352-10.875-5.2358398-20.8564453-5-27l-0.0292969-0.2480469C162.8544922,270.0214844,158.9492188,291.0488281,146,301
		c-3.5507813,2.7285156-9.5214844,5.9619141-19.5,6.5c9.2602539,4.3632813,14.2099609,10.2773438,16.5,13.5
		c4.1811523,5.8837891,5.6445313,11.4472656,7.5,18.5c2.1420898,8.1425781,2.8037109,15.1308594,3,20
		c1.8808594-5.7578125,3.6445313-10.5117188,5-14c3.8457031-9.8925781,5.5-12.4023438,7.5-14.5
		c3.1704102-3.3261719,6.6904297-5.0761719,9-6c0.7626953,4.0644531,2.3408203,15.5517578-4,27
		c-5.2255859,9.4345703-13.1420898,13.9912109-17.5,16.5c-7.3198242,4.2128906-14.1552734,5.8164063-18.5,6.5
		c21.4370117,6.4804688,30.965332,18.3388672,34.5,23.5c4.1074219,5.9980469,6.1806641,11.7226563,9,20
		c4.890625,14.359375,6.9941406,26.6689453,8,35c1.7133789-11.1582031,3.4536133-20.9228516,5-29
		c3.7114258-19.3857422,5.6542969-25.6328125,11-31c4.6879883-4.7070313,10.1611328-6.8964844,14-8
		c1.2373047,5.4091797,5.5356445,20.8662109,20,32c6.6123047,5.0898438,13.237793,7.6503906,18,9
		c-6.3730469,2.9707031-15.3657227,7.3183594-26,13c-13.5244141,7.2255859-14.7226563,8.6044922-14.5,9.5
		c1.0849609,4.359375,36.3149414-1.0068359,39.5-1.5c14.0795898-2.1816406,18.4326172-3.8886719,45-10
		c22.6982422-5.2207031,16.5791016-3.4912109,50-11c21.0976563-4.7402344,27.4833984-6.3164063,39-8
		c12.9394531-1.8916016,23.7089844-2.6542969,31-3c-3.0371094,0.6679688-7.5517578,1.6835938-13,3
		c-6.8476563,1.6542969-25.4423828,6.2617188-58,17c-13.0786133,4.3134766-23.5625,8.0166016-36,15
		c-16.4492188,9.2353516-16.2612305,12.9472656-16,14c0.605957,2.4423828,4.7773438,3.3681641,8,4c27.984375,5.484375,55,3,55,3
		c19.5576172-1.5859375,29.3369141-2.3779297,30.5-2.5c10.3701172-1.0869141,25.6982422-2.9082031,51-7
		c39.9833984-6.4648438,55.1474609-10.5566406,56-8c0.2763672,0.8291016-0.8310547,2.7167969-24,15
		c-15.6621094,8.3027344-28.8271484,14.6884766-38,19c51.1220703-8.4570313,82.2460938-21.6494141,100.5-31.5
		c7.2880859-3.9326172,25.6640625-13.8486328,24-20c-0.796875-2.9453125-5.9287109-4.0664063-13-5
		c-19.4306641-2.5664063-35.984375-1.4140625-59.3222656,1.2041016C470.7460938,434.4355469,449.0214844,437.1806641,446.5,437.5
		c-15.3486328,1.9433594-13.2265625,1.4111328-34,4c-28.6835938,3.5742188-40.8886719,5.6054688-41,5
		c-0.1376953-0.7509766,18.90625-4.8447266,57-13c18.6669922-3.9960938,37.2890625-8.2099609,56-12
		c9.0361328-1.8300781,17.9121094-4.4443359,27-6c0,0,22.5927734-3.8681641,33-10c4.0507813-2.3867188,6.6005859-5.5029297,7-6
		c1.1542969-1.4345703,2.3769531-2.9560547,3-5c1.6533203-5.4238281-2.0742188-10.7460938-3-12
		c2.2353516,1.1621094,5.7958984,3.421875,8.5,7.5c1.5029297,2.2666016,2.5205078,4.7617188,3.5,9.5
		c2.3955078,11.59375,1.7773438,20.8808594,2,20c0.9404297-3.7275391,2.4775391-8.9638672,5-15
		c3.0839844-7.3798828,4.9199219-11.7714844,9-16c2.3203125-2.4042969,7.2802734-6.7402344,16-9
		C591.9794922,378.5019531,585.5634766,376.0820313,581,370z M541.1923828,309.1474609
		c3.796875-1.6113281,6.1064453-3.9423828,7.4248047-5.2978516c9.1083984-9.375,10.7509766-25.3193359,11.0771484-29.1660156
		c-0.0673828,2.0556641-0.5205078,21.1289063,7.7607422,31.8105469c1.5830078,2.0419922,4.3632813,5.6289063,9.4267578,7.7138672
		c3.1386719,1.2929688,5.9902344,1.5283203,7.8056641,1.5380859c-12.5302734,2.4628906-18.0664063,8.5683594-20.1074219,11.2363281
		c-3.7802734,4.9384766-5.2744141,10.9882813-8.2626953,23.0859375c-1.1044922,4.4707031-1.84375,8.2275391-2.3164063,10.8466797
		c0.4511719-3.8876953,0.7646484-9.5556641-0.1279297-16.2841797c-0.6943359-5.2285156-1.5800781-11.9023438-5.3876953-18.3330078
		c-6.0927734-10.2890625-16.4599609-14.5458984-21.2119141-16.1240234
		C529.7587891,310.7470703,535.3017578,311.6474609,541.1923828,309.1474609z M163.8154297,324.5888672
		c-3.105957,3.6494141-4.4970703,8.2451172-7.2797852,17.4355469c-1.0283203,3.3964844-1.7470703,6.2568359-2.2148438,8.2548828
		c0.5024414-2.9746094,0.9692383-7.3242188,0.5507813-12.5371094c-0.3251953-4.0507813-0.7407227-9.2216797-3.4140625-14.3222656
		c-4.277832-8.1601563-12.0854492-11.8505859-15.6796875-13.2539063c1.8901367,0.5400391,6.1196289,1.453125,10.7524414-0.234375
		c2.9858398-1.0888672,4.8564453-2.7910156,5.9243164-3.78125c7.3837891-6.8515625,9.2841797-19.0546875,9.6884766-22.0019531
		c-0.1342773,1.5791016-1.2436523,16.2382813,4.7026367,24.7890625c1.1367188,1.6347656,3.1328125,4.5058594,6.9458008,6.3125
		c2.3642578,1.1201172,4.5483398,1.4150391,5.9453125,1.4941406
		C169.9960938,318.140625,165.4926758,322.6171875,163.8154297,324.5888672z M194.7631836,391.5869141
		c-3.8740234,6.2763672-4.9194336,13.5917969-7.0102539,28.2226563c-0.7724609,5.40625-1.1992188,9.9267578-1.4453125,13.0732422
		c0.0708008-4.6416016-0.2324219-11.3671875-2.0844727-19.2001953c-1.4394531-6.0878906-3.2763672-13.8564453-8.5332031-20.9941406
		c-8.409668-11.4169922-21.1479492-15.2109375-26.9433594-16.5087891c3.0014648,0.3818359,9.6484375,0.7861328,16.3032227-2.8632813
		c4.2885742-2.3515625,6.7382813-5.3759766,8.1318359-7.1328125c9.6362305-12.1435547,9.6826172-31.1523438,9.6108398-35.7304688
		c0.1635742,2.4335938,1.8930664,24.9941406,12.9331055,36.6171875c2.109375,2.2207031,5.8164063,6.1230469,12.0380859,7.9833984
		c3.8579102,1.1533203,7.2495117,1.0927734,9.3930664,0.8876953
		C202.6635742,380.3349609,196.8554688,388.1972656,194.7631836,391.5869141z M237.637207,403.4658203
		C225.9799805,387.5,218.078125,379.0380859,218.237793,354.1308594c0.0063477-4.953125,0.4858398-9.9023438,1.3642578-14.9316406
		c-12.1367188,0.3984375-19.8769531-4.7089844-26.1865234-13.2539063l-7.5844727-10.2988281
		c-15.0068359-20.4384766,1.6757813-56.1230469,48.4570313-54.9228516
		c10.2177734,0.2392578,19.3193359,2.6337891,28.8188477,5.5087891
		c20.4379883-14.9277344,54.2036133-22.5917969,69.8510742-1.1962891l8.1416016,11.0947266
		c9.7392578,12.7734375,3.4345703,31.9345703-23.6308594,35.1240234
		c-11.4160156,1.3583984-21.6342773-0.3994141-32.5693359-2.7919922
		c-14.847168,15.6464844-18.2797852,41.9892578-12.5327148,61.8691406c1.597168,5.5097656,1.675293,6.6279297,5.9868164,7.9023438
		c6.9453125,2.0761719,13.4111328-1.3574219,14.8486328-9.5810547c-6.7055664,0.9580078-8.1430664-2.953125-12.1367188-8.3017578
		l-4.6289063-6.3056641c-1.5175781-1.7568359-1.996582-4.5507813-1.3574219-8.0634766
		c5.3476563-28.5,48.456543-33.9277344,63.3852539-12.2929688l2.199707,2.9960938
		c2.4326172-8.1953125,6.0629883-16.5097656,10.2265625-20.9580078c7.5839844-8.1416016,24.0283203-7.0234375,29.8574219,2.2363281
		c8.0429688-11.1191406,24.9580078-8.6035156,30.0625-2.1533203c0.9970703-2.7988281,1.9169922-5.3671875,2.6572266-7.5859375
		l-3.2724609-4.46875c-3.9121094-4.7089844-2.1533203-13.4111328,8.2246094-13.4111328
		c0.9560547-5.0302734,1.5175781-10.6181641,0.5566406-15.1689453c-2.6337891-11.4960938,16.6826172-14.2890625,24.90625-3.0332031
		l8.7021484,11.8974609c3.15625,4.2900391,3.7832031,7.8759766,4.1230469,10.4267578
		c2.3876953-2.2714844,5.6201172-3.7246094,9.3769531-3.7246094c8.3808594,0,11.8134766,6.6259766,16.5244141,13.0097656
		l3.4335938,4.7910156c1.1748047,1.453125,2.0292969,3.1386719,2.546875,4.921875
		c4.8701172-2.2714844,10.4785156-3.5537109,16.7607422-3.40625c10.6152344,0.2402344,17.2431641,3.5136719,23.0703125,11.4179688
		l6.8652344,9.4199219c2.3945313,1.9960938,0.9580078-0.2402344,4.3095703,4.390625l7.5839844,10.2167969
		c2.3144531,2.7929688,2.1542969,6.546875,0.4794922,9.65625c-8.4609375,15.8085938-22.4316406,32.7314453-42.0712891,32.4921875
		c-11.6044922-0.0800781-18.5390625-4.0390625-24.9804688-12.6621094c-6.3876953,7-13.7910156,12.5859375-20.7480469,12.5859375
		c-7.5087891,0-11.53125-3.6005859-15.2783203-8.5205078c-0.7958984,0.7587891-1.5898438,1.4814453-2.3740234,2.1386719
		c-8.0615234,6.7841797-20.9150391,10.3779297-28.0205078,0.1591797l-1.8212891-2.4794922
		c-5.4248047,5.1005859-11.3730469,8.7832031-17.0878906,8.7832031c-5.5898438-0.0019531-10.2236328-2.078125-13.1738281-5.9091797
		c-9.8691406,7.5800781-23.5625,9.0595703-32.1259766-2.1835938c-0.0605469,0.1689453-0.1132813,0.3408203-0.1767578,0.5097656
		C334.8701172,420.3886719,265.4199219,441.3046875,237.637207,403.4658203z M336,454
		c1.4995117,8.1523438,206.4257813-28.5810547,210-13c1.6210938,7.0664063-38.5908203,23.0898438-99,43
		c54.0009766-23.3232422,65.0341797-31.7939453,64-35c-1.6035156-4.9726563-32.2373047,2.6816406-89,9
		c-14.2148438,1.5820313-110.1459961,12.2607422-112,3c-1.2563477-6.2744141,41.0625-19.7714844,70-29
		c70.4238281-22.4599609,123.3154297-31.1474609,123-33c-0.1748047-1.0292969-16.8125-0.2275391-76,9
		c-121.3330078,18.9169922-199.5957031,38.6503906-200,37c-0.3608398-1.4726563,60.9277344-21.15625,142-36
		c88.6933594-16.2392578,180.8603516-22.9873047,182-16C552.7705078,403.8554688,334.4506836,445.5761719,336,454z
		 M574.5019531,387.1884766c-2.6425781,3.2636719-3.7636719,7.3203125-6.0058594,15.4316406
		c-0.828125,2.9980469-1.3964844,5.5205078-1.7636719,7.2792969c0.3769531-2.6162109,0.6933594-6.4365234,0.2148438-10.9951172
		c-0.3710938-3.5429688-0.8457031-8.0644531-3.2978516-12.4765625c-3.921875-7.0585938-10.8417969-10.1240234-14.0205078-11.2773438
		c1.6679688,0.4326172,5.3925781,1.1435547,9.4160156-0.4355469c2.5927734-1.0166016,4.1953125-2.5478516,5.109375-3.4384766
		c6.3232422-6.1611328,7.7285156-16.8935547,8.0195313-19.484375c-0.0839844,1.3867188-0.7431641,14.2539063,4.6494141,21.6191406
		c1.0302734,1.4072266,2.8417969,3.8798828,6.2207031,5.3818359c2.0957031,0.9306641,4.015625,1.1425781,5.2412109,1.1826172
		C579.7802734,381.40625,575.9296875,385.4257813,574.5019531,387.1884766z"/>
	<path class="st1" d="M303.621582,279.0078125c11.0131836-0.6386719,10.0566406-6.9482422,0.078125-4.9511719
		c-3.5126953,0.71875-7.5839844,2.1542969-11.6542969,4.3945313
		C295.4780273,279.0078125,299.5483398,279.3261719,303.621582,279.0078125z"/>
	<path class="st1" d="M349.8007813,380.0742188c0.0634766-0.1689453,0.1162109-0.3408203,0.1767578-0.5097656
		c8.5634766,11.2431641,22.2568359,9.7636719,32.1259766,2.1835938c2.9501953,3.8310547,7.5839844,5.9072266,13.1738281,5.9091797
		c5.7148438,0,11.6630859-3.6826172,17.0878906-8.7832031l1.8212891,2.4794922
		c7.1054688,10.21875,19.9589844,6.625,28.0205078-0.1591797c0.7841797-0.6572266,1.578125-1.3798828,2.3740234-2.1386719
		c3.7470703,4.9199219,7.7695313,8.5205078,15.2783203,8.5205078c6.9570313,0,14.3603516-5.5859375,20.7480469-12.5859375
		c6.4414063,8.6230469,13.3759766,12.5820313,24.9804688,12.6621094
		c19.6396484,0.2392578,33.6103516-16.6835938,42.0712891-32.4921875c1.6748047-3.109375,1.8349609-6.8632813-0.4794922-9.65625
		l-7.5839844-10.2167969c-3.3515625-4.6308594-1.9150391-2.3945313-4.3095703-4.390625l-6.8652344-9.4199219
		c-5.8271484-7.9042969-12.4550781-11.1777344-23.0703125-11.4179688c-6.2822266-0.1474609-11.890625,1.1347656-16.7607422,3.40625
		c-0.5175781-1.7832031-1.3720703-3.46875-2.546875-4.921875l-3.4335938-4.7910156
		c-4.7109375-6.3837891-8.1435547-13.0097656-16.5244141-13.0097656c-3.7568359,0-6.9892578,1.453125-9.3769531,3.7246094
		c-0.3398438-2.5507813-0.9667969-6.1367188-4.1230469-10.4267578l-8.7021484-11.8974609
		c-8.2236328-11.2558594-27.5400391-8.4628906-24.90625,3.0332031c0.9609375,4.5507813,0.3994141,10.1386719-0.5566406,15.1689453
		c-10.3779297,0-12.1367188,8.7021484-8.2246094,13.4111328l3.2724609,4.46875
		c-0.7402344,2.21875-1.6601563,4.7871094-2.6572266,7.5859375c-5.1044922-6.4501953-22.0195313-8.9658203-30.0625,2.1533203
		c-5.8291016-9.2597656-22.2734375-10.3779297-29.8574219-2.2363281
		c-4.1635742,4.4482422-7.7939453,12.7626953-10.2265625,20.9580078l-2.199707-2.9960938
		c-14.9287109-21.6347656-58.0375977-16.2070313-63.3852539,12.2929688
		c-0.6391602,3.5126953-0.1601563,6.3066406,1.3574219,8.0634766l4.6289063,6.3056641
		c3.9936523,5.3486328,5.4311523,9.2597656,12.1367188,8.3017578c-1.4375,8.2236328-7.9033203,11.6572266-14.8486328,9.5810547
		c-4.3115234-1.2744141-4.3896484-2.3925781-5.9868164-7.9023438c-5.7470703-19.8798828-2.3144531-46.2226563,12.5327148-61.8691406
		c10.9350586,2.3925781,21.1533203,4.1503906,32.5693359,2.7919922
		c27.0654297-3.1894531,33.3701172-22.3505859,23.6308594-35.1240234l-8.1416016-11.0947266
		c-15.6474609-21.3955078-49.4130859-13.7314453-69.8510742,1.1962891c-9.4995117-2.875-18.6010742-5.2695313-28.8188477-5.5087891
		c-46.78125-1.2001953-63.4638672,34.484375-48.4570313,54.9228516l7.5844727,10.2988281
		c6.3095703,8.5449219,14.0498047,13.6523438,26.1865234,13.2539063c-0.878418,5.0292969-1.3579102,9.9785156-1.3642578,14.9316406
		c-0.159668,24.9072266,7.7421875,33.3691406,19.3994141,49.3349609
		C265.4199219,441.3046875,334.8701172,420.3886719,349.8007813,380.0742188z M467.1933594,295.53125
		c4.9521484,0,8.9423828,3.9931641,8.9423828,8.9414063c0,5.0302734-3.9931641,9.0205078-8.9423828,9.0205078
		c-4.9501953,0-9.0195313-3.9931641-9.0195313-9.0205078C458.1738281,299.5234375,462.2431641,295.53125,467.1933594,295.53125z
		 M343.409668,352.453125c0.956543-12.6132813,7.3442383-28.4990234,12.0532227-33.5292969
		c7.3447266-7.7460938,25.8642578-2.2363281,20.1171875,3.03125c-3.2763672,2.9550781-7.4277344,25.2265625-5.1914063,25.6269531
		c5.1914063,0.8779297,7.34375-9.1816406,8.7021484-13.09375c2.3945313-6.8652344,5.5087891-12.8515625,8.0634766-15.5673828
		c7.34375-7.7451172,25.8632813-2.2363281,20.1162109,3.0332031c-3.2724609,2.953125-7.4238281,25.2255859-5.1875,25.6240234
		c1.1396484,0.2011719,4.2490234-3.4814453,7.5322266-8.0214844c2.9414063-11.4814453,8.4248047-24.9941406,12.0595703-37.7226563
		h-3.9121094c-1.9150391,0-3.4326172-1.5175781-3.4326172-3.3544922c0-1.9150391,1.5175781-3.4326172,3.4326172-3.4326172h5.7480469
		c1.8369141-7.7421875,2.6367188-15.0869141,1.3574219-21.0742188c-0.8007813-3.1142578,2.7158203-4.1503906,5.1083984-4.1503906
		c11.4179688-0.078125,14.7714844,8.7802734,14.4511719,18.6005859c-0.078125,2.0771484-0.2402344,4.3134766-0.4794922,6.6279297
		h5.1083984c1.9150391,0,3.4345703,1.5175781,3.4345703,3.4316406c0,1.8378906-1.5195313,3.3554688-3.4345703,3.3554688h-5.9091797
		c-2.0742188,14.5292969-5.90625,30.7333984-7.8203125,36.3945313c-0.3994141,1.5957031-2.3955078,9.0234375-0.6386719,9.3408203
		c1.1699219,0.1298828,4.0908203-3.2900391,7.2490234-7.6279297c2.5273438-9.0849609,6.5410156-17.6152344,9.7666016-21.0244141
		c7.3447266-7.7431641,25.9472656-2.2363281,20.1201172,2.953125c-3.1943359,2.9550781-7.4238281,25.3076172-5.1914063,25.6259766
		c1.1992188,0.2001953,4.2363281-3.3857422,7.4824219-7.8730469c3.1435547-13.0263672,14.5058594-25.1933594,32.1699219-24.7792969
		c22.3515625,0.4785156,31.9306641,22.4326172-5.6708984,26.7441406c-0.9570313,7.265625,19.5595703,8.7021484,28.5791016-4.7089844
		c2.7978516-4.0703125,8.703125-1.6757813,6.0703125,3.3515625c-8.3027344,14.7685547-20.1953125,30.0957031-37.8388672,29.9365234
		c-13.9296875-0.1171875-21.4765625-7.796875-23.578125-17.3974609
		c-6.9228516,9.3779297-14.9404297,17.3183594-22.2236328,17.3183594c-3.2734375,0-6.3847656-1.0390625-8.6992188-3.1933594
		c-2.3779297-2.3359375-3.3710938-6.2675781-3.4277344-10.9140625c-2.6914063,3.3486328-5.5234375,6.3720703-8.4794922,8.8359375
		c-5.8310547,4.9482422-15.8076172,8.7802734-21.0771484,0.9570313c-1.8320313-2.765625-2.5-6.5302734-2.5537109-10.421875
		c-6.4589844,8.2578125-13.6875,14.8203125-20.3085938,14.8203125c-6.3857422,0-10.4560547-3.2714844-11.7353516-9.4199219
		C365.4394531,374.2490234,341.6508789,374.4882813,343.409668,352.453125z M222.9912109,354.1259766
		c0.1582031-21.7138672,10.1381836-48.0576172,26.3432617-67.8544922
		c-10.6176758-0.5576172-27.3032227,3.0351563-28.4995117,16.046875c-0.3193359,3.9082031,1.7568359,7.7421875,6.1464844,8.859375
		c2.0766602,0.4785156,0.8803711,2.7949219,0.8803711,2.7949219c-4.3911133,5.3496094-12.0571289,8.0605469-19.7207031,7.7431641
		c-15.4863281-0.6386719-23.7890625-12.0537109-22.6708984-24.1884766
		c2.1547852-24.109375,27.8623047-32.4912109,48.6958008-32.0117188
		c10.8603516,0.2402344,20.1982422,3.0332031,29.8574219,5.9863281
		c12.0551758-9.4189453,27.0620117-15.3261719,41.5913086-14.7685547c30.8125,1.0361328,36.7993164,33.0488281,1.9150391,37.1220703
		c-12.1347656,1.4355469-22.8320313-0.8789063-33.4477539-3.3544922
		C241.1894531,321.5566406,256.4394531,392.5253906,287.652832,382.625
		c15.5673828-4.9462891,13.6523438-34.4863281-3.9902344-31.3710938c-2.793457,0.4775391-4.7900391,0.6386719-3.9116211-4.390625
		c5.4291992-28.8193359,58.6762695-30.2558594,58.9160156,4.0693359
		C338.9047852,408.0117188,222.434082,437.3886719,222.9912109,354.1259766z"/>
	<path class="st1" d="M506.3662109,326.34375c-2.9550781,1.7578125-5.1113281,4.7119141-6.0664063,7.8232422
		C513.2314453,333.2890625,515.5458984,320.8359375,506.3662109,326.34375z"/>
	<path class="st2" d="M338.6669922,350.9326172c-0.2397461-34.3251953-53.4868164-32.8886719-58.9160156-4.0693359
		c-0.878418,5.0292969,1.1181641,4.8681641,3.9116211,4.390625c17.6425781-3.1152344,19.5576172,26.4248047,3.9902344,31.3710938
		c-31.2133789,9.9003906-46.4633789-61.0683594-13.5708008-92.1240234
		c10.6157227,2.4755859,21.3129883,4.7900391,33.4477539,3.3544922
		c34.8842773-4.0732422,28.8974609-36.0859375-1.9150391-37.1220703
		c-14.5292969-0.5576172-29.5361328,5.3496094-41.5913086,14.7685547
		c-9.6591797-2.953125-18.9970703-5.7460938-29.8574219-5.9863281
		c-20.8334961-0.4794922-46.5410156,7.9023438-48.6958008,32.0117188
		c-1.1181641,12.1347656,7.1845703,23.5498047,22.6708984,24.1884766
		c7.6635742,0.3173828,15.3295898-2.3935547,19.7207031-7.7431641c0,0,1.1962891-2.3164063-0.8803711-2.7949219
		c-4.3896484-1.1171875-6.4658203-4.9511719-6.1464844-8.859375c1.1962891-13.0117188,17.8818359-16.6044922,28.4995117-16.046875
		c-16.2050781,19.796875-26.1850586,46.140625-26.3432617,67.8544922
		C222.434082,437.3886719,338.9047852,408.0117188,338.6669922,350.9326172z M303.699707,274.0566406
		c9.9785156-1.9970703,10.9350586,4.3125-0.078125,4.9511719c-4.0732422,0.3183594-8.1435547,0-11.5761719-0.5566406
		C296.1157227,276.2109375,300.1870117,274.7753906,303.699707,274.0566406z"/>
	<path class="st3" d="M375.3417969,360.7558594c1.2792969,6.1484375,5.3496094,9.4199219,11.7353516,9.4199219
		c6.6210938,0,13.8496094-6.5625,20.3085938-14.8203125c-0.0615234-4.421875,0.671875-9.0078125,1.4355469-12.4882813
		c0.234375-1.0800781,0.5068359-2.1894531,0.7939453-3.3105469c-3.2832031,4.5400391-6.3925781,8.2226563-7.5322266,8.0214844
		c-2.2363281-0.3984375,1.9150391-22.6708984,5.1875-25.6240234c5.7470703-5.2695313-12.7724609-10.7783203-20.1162109-3.0332031
		c-2.5546875,2.7158203-5.6689453,8.7021484-8.0634766,15.5673828c-1.3583984,3.9121094-3.5107422,13.9716797-8.7021484,13.09375
		c-2.2363281-0.4003906,1.9150391-22.671875,5.1914063-25.6269531c5.7470703-5.2675781-12.7724609-10.7773438-20.1171875-3.03125
		c-4.7089844,5.0302734-11.0966797,20.9160156-12.0532227,33.5292969
		C341.6508789,374.4882813,365.4394531,374.2490234,375.3417969,360.7558594z"/>
	<path class="st2" d="M407.3857422,355.3554688c0.0537109,3.8916016,0.7216797,7.65625,2.5537109,10.421875
		c5.2695313,7.8232422,15.2460938,3.9912109,21.0771484-0.9570313c2.9560547-2.4638672,5.7880859-5.4873047,8.4794922-8.8359375
		c-0.0605469-4.8847656,0.9160156-10.5585938,2.4414063-16.0390625c-3.1582031,4.3378906-6.0791016,7.7578125-7.2490234,7.6279297
		c-1.7568359-0.3173828,0.2392578-7.7451172,0.6386719-9.3408203c1.9140625-5.6611328,5.7460938-21.8652344,7.8203125-36.3945313
		h5.9091797c1.9150391,0,3.4345703-1.5175781,3.4345703-3.3554688c0-1.9140625-1.5195313-3.4316406-3.4345703-3.4316406h-5.1083984
		c0.2392578-2.3144531,0.4013672-4.5507813,0.4794922-6.6279297c0.3203125-9.8203125-3.0332031-18.6787109-14.4511719-18.6005859
		c-2.3925781,0-5.9091797,1.0361328-5.1083984,4.1503906c1.2792969,5.9873047,0.4794922,13.3320313-1.3574219,21.0742188h-5.7480469
		c-1.9150391,0-3.4326172,1.5175781-3.4326172,3.4326172c0,1.8369141,1.5175781,3.3544922,3.4326172,3.3544922h3.9121094
		c-3.6347656,12.7285156-9.1181641,26.2412109-12.0595703,37.7226563c-0.2871094,1.1210938-0.5595703,2.2304688-0.7939453,3.3105469
		C408.0576172,346.3476563,407.3242188,350.9335938,407.3857422,355.3554688z"/>
	<path class="st3" d="M467.1933594,313.4931641c4.9492188,0,8.9423828-3.9902344,8.9423828-9.0205078
		c0-4.9482422-3.9902344-8.9414063-8.9423828-8.9414063c-4.9501953,0-9.0195313,3.9921875-9.0195313,8.9414063
		C458.1738281,309.5,462.2431641,313.4931641,467.1933594,313.4931641z"/>
	<path class="st3" d="M442.9238281,366.8984375c2.3144531,2.1542969,5.4257813,3.1933594,8.6992188,3.1933594
		c7.2832031,0,15.3007813-7.9404297,22.2236328-17.3183594c-0.9140625-4.1738281-0.8017578-8.7089844,0.2685547-13.1464844
		c-3.2460938,4.4873047-6.2832031,8.0732422-7.4824219,7.8730469c-2.2324219-0.3183594,1.9970703-22.6708984,5.1914063-25.6259766
		c5.8271484-5.1894531-12.7753906-10.6962891-20.1201172-2.953125c-3.2255859,3.4091797-7.2392578,11.9394531-9.7666016,21.0244141
		c-1.5253906,5.4804688-2.5019531,11.1542969-2.4414063,16.0390625
		C439.5527344,360.6308594,440.5458984,364.5625,442.9238281,366.8984375z"/>
	<path class="st2" d="M473.8466797,352.7734375c2.1015625,9.6005859,9.6484375,17.2802734,23.578125,17.3974609
		c17.6435547,0.1591797,29.5361328-15.1679688,37.8388672-29.9365234c2.6328125-5.0273438-3.2724609-7.421875-6.0703125-3.3515625
		c-9.0195313,13.4111328-29.5361328,11.9746094-28.5791016,4.7089844
		c37.6015625-4.3115234,28.0224609-26.265625,5.6708984-26.7441406
		c-17.6640625-0.4140625-29.0263672,11.7529297-32.1699219,24.7792969
		C473.0449219,344.0644531,472.9326172,348.5996094,473.8466797,352.7734375z M506.3662109,326.34375
		c9.1796875-5.5078125,6.8652344,6.9453125-6.0664063,7.8232422
		C501.2548828,331.0556641,503.4111328,328.1015625,506.3662109,326.34375z"/>
	<path class="st2" d="M369,409c-81.0722656,14.84375-142.3608398,34.5273438-142,36
		c0.4042969,1.6503906,78.6669922-18.0830078,200-37c59.1875-9.2275391,75.8251953-10.0292969,76-9
		c0.3154297,1.8525391-52.5761719,10.5400391-123,33c-28.9375,9.2285156-71.2563477,22.7255859-70,29
		c1.8540039,9.2607422,97.7851563-1.4179688,112-3c56.7626953-6.3183594,87.3964844-13.9726563,89-9
		c1.0341797,3.2060547-9.9990234,11.6767578-64,35c60.4091797-19.9101563,100.6210938-35.9335938,99-43
		c-3.5742188-15.5810547-208.5004883,21.1523438-210,13c-1.5493164-8.4238281,216.7705078-50.1445313,215-61
		C549.8603516,386.0126953,457.6933594,392.7607422,369,409z"/>
	<path class="st2" d="M207.7636719,375.0537109c-6.2216797-1.8603516-9.9287109-5.7626953-12.0380859-7.9833984
		c-11.0400391-11.6230469-12.7695313-34.1835938-12.9331055-36.6171875
		c0.0717773,4.578125,0.0253906,23.5869141-9.6108398,35.7304688c-1.3935547,1.7568359-3.8432617,4.78125-8.1318359,7.1328125
		c-6.6547852,3.6494141-13.3017578,3.2451172-16.3032227,2.8632813c5.7954102,1.2978516,18.5336914,5.0917969,26.9433594,16.5087891
		c5.2568359,7.1376953,7.09375,14.90625,8.5332031,20.9941406c1.8520508,7.8330078,2.1552734,14.5585938,2.0844727,19.2001953
		c0.2460938-3.1464844,0.6728516-7.6669922,1.4453125-13.0732422c2.0908203-14.6308594,3.1362305-21.9462891,7.0102539-28.2226563
		c2.0922852-3.3896484,7.9003906-11.2519531,22.3935547-15.6455078
		C215.0131836,376.1464844,211.621582,376.2070313,207.7636719,375.0537109z"/>
	<path class="st3" d="M173.7915039,315.25c-3.8129883-1.8066406-5.809082-4.6777344-6.9458008-6.3125
		c-5.9462891-8.5507813-4.8369141-23.2099609-4.7026367-24.7890625c-0.4042969,2.9472656-2.3046875,15.1503906-9.6884766,22.0019531
		c-1.0678711,0.9902344-2.9384766,2.6923828-5.9243164,3.78125c-4.6328125,1.6875-8.8623047,0.7744141-10.7524414,0.234375
		c3.5942383,1.4033203,11.4018555,5.09375,15.6796875,13.2539063c2.6733398,5.1005859,3.0888672,10.2714844,3.4140625,14.3222656
		c0.418457,5.2128906-0.0483398,9.5625-0.5507813,12.5371094c0.4677734-1.9980469,1.1865234-4.8583984,2.2148438-8.2548828
		c2.7827148-9.1904297,4.1738281-13.7861328,7.2797852-17.4355469c1.6772461-1.9716797,6.1806641-6.4482422,15.9213867-7.8447266
		C178.3398438,316.6650391,176.1557617,316.3701172,173.7915039,315.25z"/>
	<path class="st2" d="M548.4853516,326.2978516c3.8076172,6.4306641,4.6933594,13.1044922,5.3876953,18.3330078
		c0.8925781,6.7285156,0.5791016,12.3964844,0.1279297,16.2841797c0.4726563-2.6191406,1.2119141-6.3759766,2.3164063-10.8466797
		c2.9882813-12.0976563,4.4824219-18.1474609,8.2626953-23.0859375c2.0410156-2.6679688,7.5771484-8.7734375,20.1074219-11.2363281
		c-1.8154297-0.0097656-4.6669922-0.2451172-7.8056641-1.5380859c-5.0634766-2.0849609-7.84375-5.671875-9.4267578-7.7138672
		c-8.28125-10.6816406-7.828125-29.7548828-7.7607422-31.8105469c-0.3261719,3.8466797-1.96875,19.7910156-11.0771484,29.1660156
		c-1.3183594,1.3554688-3.6279297,3.6865234-7.4248047,5.2978516c-5.890625,2.5-11.4335938,1.5996094-13.9189453,1.0263672
		C532.0253906,311.7519531,542.3925781,316.0087891,548.4853516,326.2978516z"/>
	<path class="st3" d="M583.0439453,378.7929688c-3.3789063-1.5019531-5.1904297-3.9746094-6.2207031-5.3818359
		c-5.3925781-7.3652344-4.7333984-20.2324219-4.6494141-21.6191406c-0.2910156,2.5908203-1.6962891,13.3232422-8.0195313,19.484375
		c-0.9140625,0.890625-2.5166016,2.421875-5.109375,3.4384766c-4.0234375,1.5791016-7.7480469,0.8681641-9.4160156,0.4355469
		c3.1787109,1.1533203,10.0986328,4.21875,14.0205078,11.2773438c2.4521484,4.4121094,2.9267578,8.9335938,3.2978516,12.4765625
		c0.4785156,4.5585938,0.1621094,8.3789063-0.2148438,10.9951172c0.3671875-1.7587891,0.9355469-4.28125,1.7636719-7.2792969
		c2.2421875-8.1113281,3.3632813-12.1679688,6.0058594-15.4316406c1.4277344-1.7626953,5.2783203-5.7822266,13.7832031-7.2128906
		C587.0595703,379.9355469,585.1396484,379.7236328,583.0439453,378.7929688z"/>
</g>
</svg>
