<?xml version="1.0" encoding="utf-8"?>
<!-- Generator: Adobe Illustrator 22.0.1, SVG Export Plug-In . SVG Version: 6.00 Build 0)  -->
<svg version="1.1" id="Шар_1" xmlns="http://www.w3.org/2000/svg" xmlns:xlink="http://www.w3.org/1999/xlink" x="0px" y="0px"
	 viewBox="0 0 714 714" style="enable-background:new 0 0 714 714;" xml:space="preserve">
<g>
	<path d="M282.8652344,333.1064453c-1.1977539,7.3447266-1.8369141,15.0102539-2.3945313,21.7939453
		c1.6757813-0.2397461,3.5126953-0.078125,5.2700195,0.1616211
		C291.9667969,348.5161133,291.8071289,338.0566406,282.8652344,333.1064453z"/>
	<path d="M358.7558594,383.0019531c1.4375-4.7084961,3.1933594-9.1811523,5.0283203-12.7719727
		C350.453125,375.3383789,343.5048828,407.9882813,358.7558594,383.0019531z"/>
	<path d="M415.2285156,381.7226563c-1.9150391,4.7910156-3.0332031,11.0185547,2.7939453,10.7792969
		c1.5146484,0,2.8720703-0.796875,4.1503906-1.9970703C419.21875,388.1103516,416.4257813,384.5166016,415.2285156,381.7226563z"/>
	<path d="M426.2460938,369.7509766c-1.7578125,0.1611328-2.3984375,4.7919922,1.9931641,8.0629883
		C429.5966797,371.9853516,427.7597656,369.7509766,426.2460938,369.7509766z"/>
	<path d="M516.6054688,380.2885742c-3.3515625-4.6308594-1.9150391-2.3945313-4.3095703-4.3911133l-6.8652344-9.4194336
		c-5.8271484-7.9038086-12.4550781-11.1782227-23.0703125-11.4179688
		c-15.1503906-0.3549805-26.4501953,7.503418-32.6367188,17.9091797
		c-3.9697266-5.5830078-8.6240234-12.4790039-13.6787109-15.5131836
		c1.1181641-10.4560547,0.7177734-21.7939453-4.5507813-28.4179688l-8.7021484-11.8955078
		c-8.1416016-11.0180664-27.3828125-8.5424805-24.9072266,2.8754883
		c2.5136719,11.5366211-3.2177734,26.1420898-8.2988281,41.0356445c-8.1376953-9.8520508-23.1425781-3.9936523-23.1425781-3.9936523
		c-10.2988281-3.9916992-22.1132813-1.597168-31.2929688,4.2299805c-6.3261719,4.0205078-11.3676758,9.90625-14.7939453,16.4614258
		c-2.2485352-3.046875-4.6958008-6.144043-7.1875-9.5166016c6.2265625-9.5805664,6.7055664-20.9169922-0.1616211-29.9370117
		l-10.4560547-14.050293c5.5874023-7.9018555,1.3579102-9.9785156-7.3442383-21.7954102
		c-7.8237305-10.8554688-24.3496094-7.9833984-33.1303711,5.9086914
		c-22.5927734-1.1967773-56.4418945,6.3876953-58.8344727,32.9702148
		c-0.878418,9.5810547,2.3144531,14.6889648,6.8652344,20.9169922c7.9833984,10.8554688,13.3330078,20.515625,29.8574219,21.1552734
		c-2.3925781,5.7470703-5.3476563,10.6962891-9.1015625,13.5712891
		c-0.3178711-3.9902344-7.4228516-12.2138672-10.1381836-15.8857422
		c-4.4692383-6.1484375-11.9750977-7.7456055-19.1582031-7.7456055
		c-32.0141602-0.078125-46.621582,32.1733398-27.6230469,57.9594727l10.5395508,14.2089844
		c30.2753906,36.6777344,124.6748047,30.3945313,143.0996094-21.9277344l0.6220703,0.8476563
		c8.3017578,11.3369141,20.9160156,10.4589844,30.8945313,0.1621094c3.7529297,5.1894531,7.7431641,7.9833984,14.7685547,7.9833984
		c7.2744141,0,15.0097656-6.0361328,21.5605469-13.4238281l1.9736328,2.7275391
		c12.6640625,17.1953125,44.6542969,13.7890625,56.8925781-6.5087891l3.2363281,4.5087891
		c6.4658203,8.703125,13.4111328,12.6933594,25.0664063,12.7734375
		c19.6396484,0.2382813,33.6103516-16.6845703,42.0712891-32.4921875c1.6748047-3.109375,1.8349609-6.8632813-0.4794922-9.6572266
		L516.6054688,380.2885742z M226.1542969,404.7949219c0.2397461,1.9980469,1.1181641,3.8339844,2.3945313,5.4306641
		l11.2563477,14.6884766c-5.5092773-0.3984375-11.0166016-1.9960938-15.4863281-4.9492188
		C223.1210938,415.3339844,222.9614258,408.9462891,226.1542969,404.7949219z M237.5200195,451.1757813
		c-81.0292969-1.1162109-79.3500977-73.1220703-33.8486328-73.0439453c8.3808594,0,15.2480469,2.9536133,15.2480469,6.9453125
		c0,0.5605469-0.2397461,1.1181641-0.9584961,1.5957031c-4.3110352,2.7158203-6.3862305,9.1035156-6.4658203,13.9716797
		c-0.0786133,42.0722656,78.4750977,40.7148438,77.1171875-16.921875c-0.1577148-5.9067383-1.675293-11.4145508-4.7089844-15.965332
		c-1.675293,0.7172852-3.3540039,1.355957-5.0297852,1.9150391c-2.6323242,17.324707-9.2597656,41.1928711-25.8637695,42.3100586
		c-17.9619141,1.1181641-19.8774414-6.3046875-20.0371094-8.0615234c-0.081543-0.9580078,0.6357422-1.5966797,1.2744141-1.9970703
		c16.1269531-9.9003906,18.9990234-44.0668945,25.8657227-70.012207
		c-7.6640625,2.3959961-13.8901367,7.4243164-14.6088867,14.6889648c-0.3178711,3.8339844,1.7583008,7.6640625,6.2280273,8.7822266
		c1.9931641,0.4775391,0.796875,2.7939453,0.796875,2.7939453c-4.3129883,5.3476563-12.0566406,8.1416016-19.7207031,7.8237305
		c-15.4863281-0.71875-23.7089844-12.1333008-22.6708984-24.2685547
		c1.9150391-21.7138672,31.0551758-30.6542969,56.6811523-28.3398438
		c4.2329102-7.9052734,9.9804688-12.8535156,18.3613281-12.6137695c3.1933594,0.078125,10.5375977,2.871582,7.1049805,6.7836914
		c-2.3144531,2.793457-4.1513672,6.3095703-5.5874023,10.2993164c11.8969727,4.6293945,20.0385742,12.6923828,19.3198242,23.7094727
		c-0.4794922,6.6274414-4.0717773,12.6123047-9.1816406,17.5625c10.1616211,5.4648438,18.190918,13.7329102,20.9311523,24.5444336
		c0.6611328,2.6083984,1.0229492,5.3623047,1.0224609,8.2646484c0,5.3466797-0.7202148,10.3105469-2.0488281,14.90625
		C307.8520508,437.5849609,271.4790039,451.6621094,237.5200195,451.1757813z M514.4384766,385.2353516
		c-8.3027344,14.7685547-20.1953125,30.0966797-37.8388672,29.9365234
		c-6.4755859-0.0546875-11.5722656-1.7431641-15.3847656-4.4990234c-5.4130859-3.9130859-8.2294922-9.9794922-8.7275391-16.5751953
		c-1.8369141,0.9003906-3.8916016,1.4609375-6.2861328,1.6787109c-0.3486328,0.9179688-0.7460938,1.8017578-1.1777344,2.6582031
		c-3.3222656,6.5927734-8.9892578,11.3505859-15.3486328,14.1074219
		c-8.4638672,3.6347656-20.2167969,4.1962891-28.4560547-0.6337891c-2.796875-1.6396484-5.1904297-3.8984375-6.9101563-6.8730469
		c-1.5849609-2.7363281-2.5185547-5.734375-2.984375-8.8632813c-1.9453125,2.7246094-3.9882813,5.3613281-6.0888672,7.7578125
		c-5.6552734,6.4521484-11.7236328,11.1660156-17.3779297,11.1660156c-3.2724609,0-6.3876953-1.0380859-8.7021484-3.1933594
		c-2.3955078-2.3964844-3.3544922-6.3867188-3.4326172-11.1777344c-5.90625,9.6591797-13.0927734,14.3681641-18.0419922,14.3681641
		c-3.0395508-0.0224609-5.527832-0.7695313-7.543457-2.0400391c-5.1333008-3.234375-7.1040039-9.9746094-6.5878906-17.5976563
		c0.246582-3.5732422,0.9208984-6.9111328,1.934082-10.0068359c6.8632813-20.9702148,29.5629883-30.565918,44.4472656-23.1235352
		c6.2480469-4.003418,16.5400391-2.0605469,18.8183594,1.2041016c0.7207031,1.0322266,0.6474609,2.1958008-0.6181641,3.3466797
		c-0.2724609,0.246582-0.5517578,0.6381836-0.8320313,1.1298828c-3.0849609,5.40625-6.3974609,24.1860352-4.3574219,24.4956055
		l0.0029297,0.0009766c1.2773438,0.2246094,5.0244141-4.3515625,8.7207031-9.6132813
		c0.7978516-4.9116211,2.1572266-9.7304688,3.5224609-14.0166016l0.0556641-0.168457
		c5.4306641-16.7167969,13.5849609-34.769043,10.5615234-49.7255859c-0.796875-3.1948242,2.796875-4.1513672,5.0302734-4.1513672
		c3.9931641,0,7.0263672,1.0380859,9.1816406,2.796875c9.3408203,7.5009766,5.0292969,32.2519531,1.7568359,43.8261719
		c12.7314453-6.234375,22.703125,3.90625,25.578125,16.2006836c0.5498047,2.3505859,0.8427734,4.7792969,0.8427734,7.1875
		c0,0.71875-0.078125,1.5195313-0.078125,2.2363281c1.8730469-0.2089844,3.9785156-1.9404297,5.4199219-3.3876953
		c0.8125-2.9790039,2.0556641-5.8955078,3.7060547-8.6123047c5.3671875-8.8330078,15.0351563-15.5336914,28.2177734-15.2250977
		c22.3515625,0.4790039,31.9306641,22.4321289-5.6708984,26.7446289c-0.9570313,7.265625,19.5595703,8.7011719,28.5791016-4.7094727
		C511.1660156,377.8139648,517.0712891,380.2084961,514.4384766,385.2353516z"/>
	<path d="M485.5410156,371.3447266c-2.9550781,1.7587891-5.1113281,4.7124023-6.0664063,7.8237305
		C492.40625,378.2900391,494.7207031,365.8374023,485.5410156,371.3447266z"/>
	<path d="M180.7724609,371.25c-1-3.4189453-2.6757813-11.1821289,0.2275391-20.25
		c2.8164063-8.7958984,8.4003906-13.9921875,10.8076172-15.9956055
		c-4.2114258-2.1113281-10.6831055-6.0170898-16.7373047-12.8398438
		c-7.2441406-8.1635742-10.4018555-16.5722656-11.809082-21.3666992C163.6943359,305.4057617,163.9765625,315.2211914,159,326
		c-3.7480469,8.1181641-8.9223633,13.4101563-12.2138672,16.2895508c3.9248047,0.4799805,10.1113281,1.7924805,16.4824219,5.7734375
		C175.0356445,355.4160156,179.3964844,366.8466797,180.7724609,371.25z"/>
	<path d="M199.2983398,303.2314453c4.5922852,9.5898438,2.9165039,18.6518555,2.2011719,21.7290039
		c0.8071289-2.840332,3.1948242-9.7788086,9.8891602-15.4985352c5.175293-4.4213867,10.5405273-6.078125,13.3994141-6.7416992
		c-1.9995117-2.1865234-5.2333984-6.3354492-6.9179688-12.4150391c-2.4399414-8.8046875-0.1582031-16.3388672,1.2236328-19.8100586
		c-1.7983398,4.09375-6.0766602,11.956543-15.0039063,17.3398438c-4.972168,2.9985352-9.7329102,4.2285156-13.046875,4.7734375
		C193.375,294.5771484,196.8007813,298.0161133,199.2983398,303.2314453z"/>
	<path d="M516,353c8.2636719,3.3144531,12.5390625,9.6020508,14,12c0.3144531-3.7299805,1.0957031-8.590332,3-14
		c2.3300781-6.6166992,5.4863281-11.6293945,8-15c-2.7265625-0.1088867-9.9785156-0.7602539-17-6
		c-6.2216797-4.6430664-8.9609375-10.4243164-10-13c0.7285156,3.2749023,1.5576172,9.0834961,0,16
		c-2.1376953,9.4921875-7.5263672,15.5361328-10,18C506.6923828,350.8740234,511.1005859,351.034668,516,353z"/>
	<path d="M577.5048828,383.7890625C574.7236328,382.2050781,570.2861328,378.855957,566,369
		c-5.1083984-11.7470703-5.9980469-23.5341797-6-31c-0.4189453,3.9833984-2.5458984,19.7607422-16,31
		c-6.6904297,5.5888672-13.6503906,7.9404297-18,9c11.3535156,6.4199219,15.5175781,14.5068359,17,18
		c2.4121094,5.6855469,2.6376953,10.7880859,3,19c0.3867188,8.7539063-0.2978516,16.0048828-1,21
		c1.1142578-3.0175781,2.8164063-7.5419922,5-13c5.515625-13.7841797,8.3476563-20.7636719,12-25
		c2.9863281-3.4638672,9.078125-9.0341797,21-12C581.6289063,385.6494141,579.6513672,385.0117188,577.5048828,383.7890625z"/>
</g>
</svg>
