<?xml version="1.0" encoding="utf-8"?>
<!-- Generator: Adobe Illustrator 22.0.1, SVG Export Plug-In . SVG Version: 6.00 Build 0)  -->
<svg version="1.1" id="Шар_1" xmlns="http://www.w3.org/2000/svg" xmlns:xlink="http://www.w3.org/1999/xlink" x="0px" y="0px"
	 viewBox="0 0 714 714" style="enable-background:new 0 0 714 714;" xml:space="preserve">
<style type="text/css">
	.st0{fill:#FFFFFF;}
	.st1{fill:#A22E39;}
	.st2{fill:#EA7878;}
	.st3{fill:#F9CEA7;}
	.st4{fill:#FCA7A7;}
	.st5{fill:#FF7979;}
</style>
<g>
	<path class="st0" d="M239.8051758,408.9140625l-11.2563477-14.6884766
		c-1.2763672-1.5966797-2.1547852-3.4326172-2.3945313-5.4306641c-3.1928711,4.1513672-3.0332031,10.5390625-1.8354492,15.1699219
		C228.7885742,406.9179688,234.2958984,408.515625,239.8051758,408.9140625z"/>
	<path class="st0" d="M569.5,335.5c-4.5029297-10.5644531-6.7958984-20.2636719-8-28
		c-2.0322266,6.9086914-5.7841797,16.4047852-13,26c-3.3496094,4.4545898-6.8105469,8.0849609-10,11
		c1.6982422-6.5078125,3.9609375-13.5751953,7-21c1.2929688-3.1586914,2.6347656-6.1586914,4-9
		c-5.5283203-1.9526367-12.5605469-5.0405273-20-10c-8.671875-5.78125-14.8662109-12.0864258-19-17
		c-0.0732422,6.2714844-1.1064453,17.8984375-8,30c-3.5292969,6.1953125-7.6103516,10.7875977-11,14
		c-2.8886719-1.0854492-11.5146484-3.9013672-22-1c-11.1054688,3.0727539-17.2011719,10.5947266-19,13
		c-1.6669922-1.3334961-3.3330078-2.6665039-5-4c0.0722656-2.8876953,0.0771484-5.8901367,0-9
		c-0.1328125-5.315918-0.4921875-10.3276367-1-15c-2.6445313-5.8847656-8.7060547-16.8935547-21-24
		c-5.1699219-2.9882813-13.1123047-7.5791016-22-5c-1.6083984,0.4667969-8.0761719,2.3432617-11,8
		c-3.5205078,6.8105469,1.6513672,12.2216797,0,22c-1.0664063,6.3144531-4.4013672,11.0356445-7,14
		c-1.5292969-0.5097656-3.5751953-0.9868164-6-1c-5.9208984-0.0317383-10.2451172,2.7246094-12,4
		c-2.8056641-1.0927734-13.6064453-4.9150391-25,0c-4.6357422,1.9995117-7.9111328,4.8164063-10,7
		c-1.6665039-1.6665039-3.3334961-3.3334961-5-5c0.4360352-2.1748047,2.1782227-12.0800781-4-21
		c-2.9746094-4.2949219-6.6547852-6.7285156-9-8c0.9921875-1.9995117,2.184082-5.1625977,2-9
		c-0.3984375-8.3105469-6.9560547-13.6855469-11-17c-3.34375-2.7407227-11.6728516-9.5673828-24-9
		c-11.3520508,0.5224609-18.8339844,6.9814453-21,9c-3.0019531-0.6591797-8.4536133-1.4438477-15,0
		c-5.8320313,1.2861328-10.0712891,3.7978516-12.5,5.5c-2.1796875-4.2236328-4.5644531-9.9501953-6-17
		c-2.4785156-12.1689453-0.9350586-22.4160156,0.5-28.5c-4.5732422,7.1196289-13.15625,18.2036133-27.5,26.5
		c-5.7460938,3.3237305-11.2416992,5.5200195-16,7c2.7490234,4.621582,4.9272461,8.5654297,6.5,11.5
		c4.6704102,8.7143555,5.5654297,11.3808594,6,14c0.684082,4.1230469,0.3803711,7.6386719,0,10
		c-3.1240234-1.2753906-7.4760742-3.4169922-12-7c-0.9853516-0.7802734-4.2436523-3.4228516-8-8
		c-7.5258789-9.1704102-11.8359375-19.7519531-14-26c0.4121094,7.0566406,0.625,27.1826172-13,45
		c-4.9467773,6.4692383-10.4350586,10.9560547-15,14c5.7714844,1.2832031,16.8666992,4.6181641,27,14
		c5.2929688,4.9003906,8.7661133,10.0087891,11,14c-3.8110352,4.3447266-10.003418,12.5498047-13.5,24.5
		c-1.3447266,4.5957031-4.5786133,16.1357422-1.5,29.5c3.8725586,16.8105469,15.4677734,26.6699219,23.5,33.5
		c22.7612305,19.3544922,48.4873047,22.4355469,58.5,23.5c24.2895508,2.5830078,42.6044922-3.1640625,48-5
		c9.8696289-3.3583984,24.4423828-8.5195313,36.5-22.5c5.3256836-6.1748047,8.5668945-12.2226563,10.5-16.5
		c5.3310547,6,12.9350586,8.3515625,19,6c3.7607422-1.4580078,5.9580078-4.3466797,7-6
		c1.1523438,0.8955078,11.4355469,8.6083984,24,5c8.0351563-2.3076172,12.5283203-7.9609375,14-10
		c2.8183594,2.7441406,8.46875,7.4814453,17,10c12.4902344,3.6875,22.8935547,0.1787109,26-1
		c8.1845703-3.1044922,13.4111328-8.1220703,16-11c2.9052734,2.7607422,11.9833984,10.6630859,26,12
		c13.59375,1.296875,23.5400391-4.3730469,28-7c4.6669922-2.75,13.875-8.3496094,19-20
		c4.1162109-9.3554688,3.5439453-17.9394531,3-22c1.7910156,2.8447266,4.21875,7.2519531,6,13
		c2.1289063,6.8681641,2.0449219,11.4873047,3,23c0.375,4.5195313,0.9892578,11.046875,2,19
		c4.1953125-11.3066406,12.5078125-28.8574219,29-45c7.6494141-7.4873047,15.3369141-12.9863281,22-17
		C586.4023438,364.1914063,576.6728516,352.3271484,569.5,335.5z M514,317c1.5576172-6.9165039,0.7285156-12.7250977,0-16
		c1.0390625,2.5756836,3.7783203,8.3569336,10,13c7.0214844,5.2397461,14.2734375,5.8911133,17,6
		c-2.5136719,3.3706055-5.6699219,8.3833008-8,15c-1.9042969,5.409668-2.6855469,10.2700195-3,14
		c-1.4609375-2.3979492-5.7363281-8.6855469-14-12c-4.8994141-1.965332-9.3076172-2.1259766-12-2
		C506.4736328,332.5361328,511.8623047,326.4921875,514,317z M191.0429688,276.6083984
		c3.3139648-0.5449219,8.074707-1.7749023,13.046875-4.7734375c8.9272461-5.3833008,13.2055664-13.2460938,15.0039063-17.3398438
		c0.1933594-0.4863281,0.3696289-0.8945313,0.5126953-1.2133789c-0.1401367,0.3491211-0.315918,0.7651367-0.5126953,1.2133789
		c-1.3818359,3.4711914-3.6635742,11.0053711-1.2236328,19.8100586c1.6845703,6.0795898,4.918457,10.2285156,6.9179688,12.4150391
		c-2.8588867,0.6635742-8.2241211,2.3203125-13.3994141,6.7416992c-6.6943359,5.7197266-9.0820313,12.6582031-9.8891602,15.4985352
		c0.715332-3.0771484,2.3911133-12.1391602-2.2011719-21.7290039
		C196.8007813,282.0161133,193.375,278.5771484,191.0429688,276.6083984z M163.2685547,332.0629883
		c-6.3710938-3.980957-12.5576172-5.293457-16.4824219-5.7734375C150.0776367,323.4101563,155.2519531,318.1181641,159,310
		c4.9765625-10.7788086,4.6943359-20.5942383,4.2612305-25.2021484c1.4072266,4.7944336,4.5649414,13.203125,11.809082,21.3666992
		c6.0541992,6.8227539,12.5258789,10.7285156,16.7373047,12.8398438C189.4003906,321.0078125,183.8164063,326.2041016,181,335
		c-2.9033203,9.0678711-1.2275391,16.8310547-0.2275391,20.25c0.0869141,0.2773438,0.1635742,0.53125,0.2275391,0.75
		c-0.0693359-0.2177734-0.1464844-0.4746094-0.2275391-0.75
		C179.3964844,350.8466797,175.0356445,339.4160156,163.2685547,332.0629883z M524.6689453,384.1621094
		c-8.4609375,15.8076172-22.4316406,32.7304688-42.0712891,32.4921875
		c-11.6552734-0.0800781-18.6005859-4.0703125-25.0664063-12.7734375l-3.2363281-4.5087891
		c-12.2382813,20.2978516-44.2285156,23.7041016-56.8925781,6.5087891l-1.9736328-2.7275391
		c-6.5507813,7.3876953-14.2861328,13.4238281-21.5605469,13.4238281c-7.0253906,0-11.015625-2.7939453-14.7685547-7.9833984
		c-9.9785156,10.296875-22.5927734,11.1748047-30.8945313-0.1621094l-0.6220703-0.8476563
		c-18.4248047,52.3222656-112.8242188,58.6054688-143.0996094,21.9277344l-10.5395508-14.2089844
		c-18.9985352-25.7861328-4.3911133-58.0371094,27.6230469-57.9589844c7.1831055,0,14.6889648,1.5966797,19.1582031,7.7451172
		c2.715332,3.671875,9.8203125,11.8955078,10.1381836,15.8857422c3.7539063-2.875,6.7089844-7.8242188,9.1015625-13.5712891
		c-16.5244141-0.6396484-21.8740234-10.2998047-29.8574219-21.1552734
		c-4.5507813-6.2280273-7.7436523-11.3359375-6.8652344-20.9169922
		c2.3925781-26.5825195,36.2416992-34.1669922,58.8344727-32.9702148
		c8.7807617-13.8920898,25.3066406-16.7641602,33.1303711-5.9086914
		c8.7021484,11.8168945,12.9316406,13.8935547,7.3442383,21.7954102l10.4560547,14.050293
		c6.8671875,9.0200195,6.3881836,20.3564453,0.1616211,29.9370117c2.4916992,3.3725586,4.9389648,6.4702148,7.1875,9.5161133
		c3.4262695-6.5546875,8.4677734-12.4404297,14.7939453-16.4609375c9.1796875-5.8271484,20.9941406-8.2216797,31.2929688-4.2299805
		c0,0,15.0048828-5.8579102,23.1425781,3.9936523c5.0810547-14.8935547,10.8125-29.4990234,8.2988281-41.0356445
		c-2.4755859-11.4179688,16.765625-13.8935547,24.9072266-2.8754883l8.7021484,11.8955078
		c5.2685547,6.6240234,5.6689453,17.9619141,4.5507813,28.4179688c5.0546875,3.0341797,9.7089844,9.9301758,13.6787109,15.5126953
		c6.1865234-10.4052734,17.4863281-18.2636719,32.6367188-17.9086914
		c10.6152344,0.2397461,17.2431641,3.5141602,23.0703125,11.4179688l6.8652344,9.4194336
		c2.3945313,1.9970703,0.9580078-0.2392578,4.3095703,4.3916016l7.5839844,10.2158203
		C526.5039063,377.2988281,526.34375,381.0527344,524.6689453,384.1621094z M562,382
		c-3.6523438,4.2363281-6.484375,11.2158203-12,25c-2.1835938,5.4580078-3.8857422,9.9824219-5,13
		c0.7021484-4.9951172,1.3867188-12.2460938,1-21c-0.3623047-8.2119141-0.5878906-13.3144531-3-19
		c-1.4824219-3.4931641-5.6464844-11.5800781-17-18c4.3496094-1.0595703,11.3095703-3.4111328,18-9
		c13.4541016-11.2392578,15.5810547-27.0166016,16-31c0.0019531,7.4658203,0.8916016,19.2529297,6,31
		c4.2861328,9.8564453,8.7236328,13.2050781,11.5048828,14.7890625C579.6513672,369.0117188,581.6289063,369.6494141,583,370
		C571.078125,372.9658203,564.9863281,378.5361328,562,382z"/>
	<path class="st1" d="M282.8652344,317.1064453c-1.1977539,7.3447266-1.8369141,15.0102539-2.3945313,21.7939453
		c1.6757813-0.2397461,3.5126953-0.078125,5.2700195,0.1616211
		C291.9667969,332.5161133,291.8071289,322.0566406,282.8652344,317.1064453z"/>
	<path class="st1" d="M358.7558594,367.0019531c1.4375-4.7089844,3.1933594-9.1816406,5.0283203-12.7719727
		C350.453125,359.3378906,343.5048828,391.9882813,358.7558594,367.0019531z"/>
	<path class="st1" d="M415.2285156,365.7226563c-1.9150391,4.7910156-3.0332031,11.0185547,2.7939453,10.7792969
		c1.5146484,0,2.8720703-0.796875,4.1503906-1.9970703C419.21875,372.1103516,416.4257813,368.5166016,415.2285156,365.7226563z"/>
	<path class="st1" d="M426.2460938,353.7509766c-1.7578125,0.1611328-2.3984375,4.7919922,1.9931641,8.0634766
		C429.5966797,355.9853516,427.7597656,353.7509766,426.2460938,353.7509766z"/>
	<path class="st1" d="M485.5410156,355.3447266c-2.9550781,1.7587891-5.1113281,4.7119141-6.0664063,7.8232422
		C492.40625,362.2900391,494.7207031,349.8374023,485.5410156,355.3447266z"/>
	<path class="st1" d="M516.6054688,364.2890625c-3.3515625-4.6308594-1.9150391-2.3945313-4.3095703-4.3916016l-6.8652344-9.4194336
		c-5.8271484-7.9038086-12.4550781-11.1782227-23.0703125-11.4179688
		c-15.1503906-0.3549805-26.4501953,7.503418-32.6367188,17.9086914
		c-3.9697266-5.5825195-8.6240234-12.4785156-13.6787109-15.5126953
		c1.1181641-10.4560547,0.7177734-21.7939453-4.5507813-28.4179688l-8.7021484-11.8955078
		c-8.1416016-11.0180664-27.3828125-8.5424805-24.9072266,2.8754883
		c2.5136719,11.5366211-3.2177734,26.1420898-8.2988281,41.0356445c-8.1376953-9.8515625-23.1425781-3.9936523-23.1425781-3.9936523
		c-10.2988281-3.9916992-22.1132813-1.597168-31.2929688,4.2299805c-6.3261719,4.0205078-11.3676758,9.90625-14.7939453,16.4609375
		c-2.2485352-3.0458984-4.6958008-6.1435547-7.1875-9.5161133c6.2265625-9.5805664,6.7055664-20.9169922-0.1616211-29.9370117
		l-10.4560547-14.050293c5.5874023-7.9018555,1.3579102-9.9785156-7.3442383-21.7954102
		c-7.8237305-10.8554688-24.3496094-7.9833984-33.1303711,5.9086914
		c-22.5927734-1.1967773-56.4418945,6.3876953-58.8344727,32.9702148
		c-0.878418,9.5810547,2.3144531,14.6889648,6.8652344,20.9169922c7.9833984,10.8554688,13.3330078,20.515625,29.8574219,21.1552734
		c-2.3925781,5.7470703-5.3476563,10.6962891-9.1015625,13.5712891
		c-0.3178711-3.9902344-7.4228516-12.2138672-10.1381836-15.8857422
		c-4.4692383-6.1484375-11.9750977-7.7451172-19.1582031-7.7451172
		c-32.0141602-0.078125-46.621582,32.1728516-27.6230469,57.9589844l10.5395508,14.2089844
		c30.2753906,36.6777344,124.6748047,30.3945313,143.0996094-21.9277344l0.6220703,0.8476563
		c8.3017578,11.3369141,20.9160156,10.4589844,30.8945313,0.1621094c3.7529297,5.1894531,7.7431641,7.9833984,14.7685547,7.9833984
		c7.2744141,0,15.0097656-6.0361328,21.5605469-13.4238281l1.9736328,2.7275391
		c12.6640625,17.1953125,44.6542969,13.7890625,56.8925781-6.5087891l3.2363281,4.5087891
		c6.4658203,8.703125,13.4111328,12.6933594,25.0664063,12.7734375
		c19.6396484,0.2382813,33.6103516-16.6845703,42.0712891-32.4921875c1.6748047-3.109375,1.8349609-6.8632813-0.4794922-9.6572266
		L516.6054688,364.2890625z M226.1542969,388.7949219c0.2397461,1.9980469,1.1181641,3.8339844,2.3945313,5.4306641
		l11.2563477,14.6884766c-5.5092773-0.3984375-11.0166016-1.9960938-15.4863281-4.9492188
		C223.1210938,399.3339844,222.9614258,392.9462891,226.1542969,388.7949219z M237.5200195,435.1757813
		c-81.0292969-1.1162109-79.3500977-73.1220703-33.8486328-73.0439453c8.3808594,0,15.2480469,2.9541016,15.2480469,6.9453125
		c0,0.5605469-0.2397461,1.1181641-0.9584961,1.5957031c-4.3110352,2.7158203-6.3862305,9.1035156-6.4658203,13.9716797
		c-0.0786133,42.0722656,78.4750977,40.7148438,77.1171875-16.921875c-0.1577148-5.90625-1.675293-11.4140625-4.7089844-15.965332
		c-1.675293,0.7172852-3.3540039,1.355957-5.0297852,1.9150391c-2.6323242,17.324707-9.2597656,41.1928711-25.8637695,42.3100586
		c-17.9619141,1.1181641-19.8774414-6.3046875-20.0371094-8.0615234c-0.081543-0.9580078,0.6357422-1.5966797,1.2744141-1.9970703
		c16.1269531-9.9003906,18.9990234-44.0668945,25.8657227-70.012207
		c-7.6640625,2.3959961-13.8901367,7.4243164-14.6088867,14.6889648c-0.3178711,3.8339844,1.7583008,7.6640625,6.2280273,8.7822266
		c1.9931641,0.4775391,0.796875,2.7939453,0.796875,2.7939453c-4.3129883,5.3476563-12.0566406,8.1416016-19.7207031,7.8237305
		c-15.4863281-0.71875-23.7089844-12.1333008-22.6708984-24.2685547
		c1.9150391-21.7138672,31.0551758-30.6542969,56.6811523-28.3398438
		c4.2329102-7.9052734,9.9804688-12.8535156,18.3613281-12.6137695c3.1933594,0.078125,10.5375977,2.871582,7.1049805,6.7836914
		c-2.3144531,2.793457-4.1513672,6.3095703-5.5874023,10.2993164c11.8969727,4.6293945,20.0385742,12.6923828,19.3198242,23.7094727
		c-0.4794922,6.6274414-4.0717773,12.6123047-9.1816406,17.5625c12.6142578,6.7836914,21.9570313,17.8803711,21.9536133,32.809082
		C318.7890625,417.0546875,276.5556641,435.7353516,237.5200195,435.1757813z M514.4384766,369.2353516
		c-8.3027344,14.7685547-20.1953125,30.0966797-37.8388672,29.9365234
		c-15.6708984-0.1318359-23.2636719-9.8330078-24.1123047-21.0742188c-1.8369141,0.9003906-3.8916016,1.4609375-6.2861328,1.6787109
		c-3.0332031,7.9853516-9.3408203,13.6503906-16.5263672,16.765625
		c-11.3378906,4.8681641-28.5791016,4.2294922-35.3662109-7.5068359c-1.5849609-2.7363281-2.5185547-5.734375-2.984375-8.8632813
		c-7.1787109,10.0585938-15.7109375,18.9238281-23.4667969,18.9238281c-3.2724609,0-6.3876953-1.0380859-8.7021484-3.1933594
		c-2.3955078-2.3964844-3.3544922-6.3867188-3.4326172-11.1777344c-5.90625,9.6591797-13.0927734,14.3681641-18.0419922,14.3681641
		c-10.7802734-0.0791016-14.8500977-9.0205078-14.1313477-19.6376953
		c1.918457-27.7792969,29.300293-41.6713867,46.3813477-33.1303711c8.2236328-5.2695313,23.4697266-0.2397461,18.2001953,4.5507813
		c-3.2714844,2.9550781-7.4189453,25.3081055-5.1865234,25.6264648c1.2773438,0.2246094,5.0244141-4.3525391,8.7207031-9.6132813
		c0.7978516-4.9111328,2.15625-9.7304688,3.5224609-14.0166016c5.4306641-16.7636719,13.6503906-34.887207,10.6171875-49.894043
		c-0.796875-3.1948242,2.796875-4.1513672,5.0302734-4.1513672c3.9931641,0,7.0263672,1.0380859,9.1816406,2.796875
		c9.3408203,7.5009766,5.0292969,32.2519531,1.7568359,43.8261719c15.1650391-7.4262695,26.4208984,8.3808594,26.4208984,23.3881836
		c0,0.71875-0.078125,1.5195313-0.078125,2.2363281c1.8730469-0.2089844,3.9785156-1.9404297,5.4199219-3.3876953
		c3.453125-12.6650391,14.6865234-24.2412109,31.9238281-23.8374023
		c22.3515625,0.4790039,31.9306641,22.4321289-5.6708984,26.7446289c-0.9570313,7.265625,19.5595703,8.7011719,28.5791016-4.7089844
		C511.1660156,361.8144531,517.0712891,364.2089844,514.4384766,369.2353516z"/>
	<path class="st2" d="M181,335c2.8164063-8.7958984,8.4003906-13.9921875,10.8076172-15.9956055
		c-4.2114258-2.1113281-10.6831055-6.0170898-16.7373047-12.8398438
		c-7.2441406-8.1635742-10.4018555-16.5722656-11.809082-21.3666992C163.6943359,289.4057617,163.9765625,299.2211914,159,310
		c-3.7480469,8.1181641-8.9223633,13.4101563-12.2138672,16.2895508c3.9248047,0.4799805,10.1113281,1.7924805,16.4824219,5.7734375
		c11.7670898,7.3530273,16.1279297,18.7836914,17.5039063,23.1870117C179.7724609,351.8310547,178.0966797,344.0678711,181,335z"/>
	<path class="st3" d="M201.4995117,308.9604492c0.8071289-2.840332,3.1948242-9.7788086,9.8891602-15.4985352
		c5.175293-4.4213867,10.5405273-6.078125,13.3994141-6.7416992c-1.9995117-2.1865234-5.2333984-6.3354492-6.9179688-12.4150391
		c-2.4399414-8.8046875-0.1582031-16.3388672,1.2236328-19.8100586c-1.7983398,4.09375-6.0766602,11.956543-15.0039063,17.3398438
		c-4.972168,2.9985352-9.7329102,4.2285156-13.046875,4.7734375c2.3320313,1.96875,5.7578125,5.4077148,8.2553711,10.6230469
		C203.890625,296.8212891,202.2148438,305.8833008,201.4995117,308.9604492z"/>
	<path class="st3" d="M516,337c8.2636719,3.3144531,12.5390625,9.6020508,14,12c0.3144531-3.7299805,1.0957031-8.590332,3-14
		c2.3300781-6.6166992,5.4863281-11.6293945,8-15c-2.7265625-0.1088867-9.9785156-0.7602539-17-6
		c-6.2216797-4.6430664-8.9609375-10.4243164-10-13c0.7285156,3.2749023,1.5576172,9.0834961,0,16
		c-2.1376953,9.4921875-7.5263672,15.5361328-10,18C506.6923828,334.8740234,511.1005859,335.034668,516,337z"/>
	<path class="st2" d="M577.5048828,367.7890625C574.7236328,366.2050781,570.2861328,362.8564453,566,353
		c-5.1083984-11.7470703-5.9980469-23.5341797-6-31c-0.4189453,3.9833984-2.5458984,19.7607422-16,31
		c-6.6904297,5.5888672-13.6503906,7.9404297-18,9c11.3535156,6.4199219,15.5175781,14.5068359,17,18
		c2.4121094,5.6855469,2.6376953,10.7880859,3,19c0.3867188,8.7539063-0.2978516,16.0048828-1,21
		c1.1142578-3.0175781,2.8164063-7.5419922,5-13c5.515625-13.7841797,8.3476563-20.7636719,12-25
		c2.9863281-3.4638672,9.078125-9.0341797,21-12C581.6289063,369.6494141,579.6513672,369.0117188,577.5048828,367.7890625z"/>
	<path class="st3" d="M318.7890625,375.9423828c0.003418-14.9287109-9.3393555-26.0253906-21.9536133-32.809082
		c5.1098633-4.9501953,8.7021484-10.9350586,9.1816406-17.5625c0.71875-11.0170898-7.4228516-19.0800781-19.3198242-23.7094727
		c1.4360352-3.9897461,3.2729492-7.5058594,5.5874023-10.2993164c3.4326172-3.9121094-3.9116211-6.7055664-7.1049805-6.7836914
		c-8.3808594-0.2397461-14.128418,4.7084961-18.3613281,12.6137695
		c-25.6259766-2.3144531-54.7661133,6.6259766-56.6811523,28.3398438
		c-1.0380859,12.1352539,7.1845703,23.5498047,22.6708984,24.2685547
		c7.6640625,0.3178711,15.4077148-2.4760742,19.7207031-7.8237305c0,0,1.1962891-2.3164063-0.796875-2.7939453
		c-4.4697266-1.1181641-6.5458984-4.9482422-6.2280273-8.7822266c0.71875-7.2646484,6.9448242-12.2929688,14.6088867-14.6889648
		c-6.8666992,25.9453125-9.7387695,60.1118164-25.8657227,70.012207c-0.6386719,0.4003906-1.355957,1.0390625-1.2744141,1.9970703
		c0.159668,1.7568359,2.0751953,9.1796875,20.0371094,8.0615234c16.6040039-1.1171875,23.2314453-24.9853516,25.8637695-42.3100586
		c1.6757813-0.559082,3.3544922-1.1977539,5.0297852-1.9150391c3.0336914,4.5512695,4.5512695,10.059082,4.7089844,15.965332
		c1.3579102,57.6367188-77.1958008,58.9941406-77.1171875,16.921875c0.0795898-4.8681641,2.1547852-11.2558594,6.4658203-13.9716797
		c0.71875-0.4775391,0.9584961-1.0351563,0.9584961-1.5957031c0-3.9912109-6.8671875-6.9453125-15.2480469-6.9453125
		c-45.5014648-0.078125-47.1806641,71.9277344,33.8486328,73.0439453
		C276.5556641,435.7353516,318.7890625,417.0546875,318.7890625,375.9423828z M285.7407227,339.0620117
		c-1.7573242-0.2397461-3.5942383-0.4013672-5.2700195-0.1616211c0.5576172-6.7836914,1.1967773-14.4492188,2.3945313-21.7939453
		C291.8071289,322.0566406,291.9667969,332.5161133,285.7407227,339.0620117z"/>
	<path class="st2" d="M391.6650391,366.8886719c-3.6962891,5.2607422-7.4433594,9.8378906-8.7207031,9.6132813
		c-2.2324219-0.3183594,1.9150391-22.6713867,5.1865234-25.6264648c5.2695313-4.7905273-9.9765625-9.8203125-18.2001953-4.5507813
		c-17.0810547-8.5410156-44.4628906,5.3510742-46.3813477,33.1303711
		c-0.71875,10.6171875,3.3510742,19.5585938,14.1313477,19.6376953c4.9492188,0,12.1357422-4.7089844,18.0419922-14.3681641
		c0.078125,4.7910156,1.0371094,8.78125,3.4326172,11.1777344c2.3144531,2.1552734,5.4296875,3.1933594,8.7021484,3.1933594
		c7.7558594,0,16.2880859-8.8652344,23.4667969-18.9238281
		C390.6855469,375.8828125,390.9404297,371.3486328,391.6650391,366.8886719z M358.7558594,367.0019531
		c-15.2509766,24.9863281-8.3027344-7.6640625,5.0283203-12.7719727
		C361.9492188,357.8203125,360.1933594,362.2929688,358.7558594,367.0019531z"/>
	<path class="st3" d="M453.5361328,367.6865234c-1.4414063,1.4472656-3.546875,3.1787109-5.4199219,3.3876953
		c0-0.7167969,0.078125-1.5175781,0.078125-2.2363281c0-15.0073242-11.2558594-30.8144531-26.4208984-23.3881836
		c3.2724609-11.5742188,7.5839844-36.3251953-1.7568359-43.8261719c-2.1552734-1.7587891-5.1884766-2.796875-9.1816406-2.796875
		c-2.2333984,0-5.8271484,0.956543-5.0302734,4.1513672c3.0332031,15.0068359-5.1865234,33.1303711-10.6171875,49.894043
		c-1.3662109,4.2861328-2.7246094,9.1054688-3.5224609,14.0166016c-0.7246094,4.4599609-0.9794922,8.9941406-0.3408203,13.2832031
		c0.4658203,3.1289063,1.3994141,6.1269531,2.984375,8.8632813c6.7871094,11.7363281,24.0283203,12.375,35.3662109,7.5068359
		c7.1855469-3.1152344,13.4931641-8.7802734,16.5263672-16.765625c2.3945313-0.2177734,4.4492188-0.7783203,6.2861328-1.6787109
		C452.2294922,374.6933594,452.5917969,371.1503906,453.5361328,367.6865234z M418.0224609,376.5019531
		c-5.8271484,0.2392578-4.7089844-5.9882813-2.7939453-10.7792969c1.1972656,2.7939453,3.9902344,6.3876953,6.9443359,8.7822266
		C420.8945313,375.7050781,419.5371094,376.5019531,418.0224609,376.5019531z M428.2392578,361.8144531
		c-4.3916016-3.2714844-3.7509766-7.9023438-1.9931641-8.0634766
		C427.7597656,353.7509766,429.5966797,355.9853516,428.2392578,361.8144531z"/>
	<path class="st2" d="M508.3681641,365.8847656c-9.0195313,13.4101563-29.5361328,11.9746094-28.5791016,4.7089844
		c37.6015625-4.3125,28.0224609-26.265625,5.6708984-26.7446289c-17.2373047-0.4038086-28.4707031,11.1723633-31.9238281,23.8374023
		c-0.9443359,3.4638672-1.3066406,7.0068359-1.0488281,10.4111328c0.8486328,11.2412109,8.4414063,20.9423828,24.1123047,21.0742188
		c17.6435547,0.1601563,29.5361328-15.1679688,37.8388672-29.9365234
		C517.0712891,364.2089844,511.1660156,361.8144531,508.3681641,365.8847656z M485.5410156,355.3447266
		c9.1796875-5.5073242,6.8652344,6.9453125-6.0664063,7.8232422
		C480.4296875,360.0566406,482.5859375,357.1035156,485.5410156,355.3447266z"/>
</g>
</svg>
