<?xml version="1.0" encoding="utf-8"?>
<!-- Generator: Adobe Illustrator 22.0.1, SVG Export Plug-In . SVG Version: 6.00 Build 0)  -->
<svg version="1.1" id="Шар_1" xmlns="http://www.w3.org/2000/svg" xmlns:xlink="http://www.w3.org/1999/xlink" x="0px" y="0px"
	 viewBox="0 0 714 714" style="enable-background:new 0 0 714 714;" xml:space="preserve">
<g>
	<path d="M451.0712891,433.4609375c-0.3544922-0.9609375-1.2978516-1.1416016-2.3525391-0.9628906
		c-2.6728516,0.4550781-6.8427734,0.9892578-11.7958984,1.4599609c0.484375-1.8369141,0.8525391-3.5136719,1.1054688-5.0341797
		l0.015625-0.0537109c0.2939453-1.2548828,0.4082031-2.4335938,0.3798828-3.5175781
		c0.1035156-2.3642578-0.1982422-4.1914063-0.9072266-5.5078125c-0.7529297-1.3974609-1.9580078-2.2587891-3.484375-2.4921875
		c-1.5908203-0.2431641-3.0917969,0.2666016-4.3408203,1.4736328c-1.6582031,1.6005859-2.8408203,4.3730469-3.6142578,8.4755859
		c-0.0996094,0.5244141-0.5146484,3.1279297-1.0019531,6.9023438c-8.2705078-0.1435547-16.59375-0.8916016-21.7695313-2.109375
		c-3.1708984-0.7460938-5.1601563-2.0947266-4.9511719-3.3574219c0.4023438-2.4326172,7.4716797-6.5908203,21.9882813-5.1796875
		c1.0195313,0.0976563,1.9257813-0.6474609,2.0244141-1.6669922c0.0996094-1.0185547-0.6464844-1.9257813-1.6660156-2.0244141
		c-8.8994141-0.8652344-14.7509766,0.2900391-18.0927734,1.4121094c-4.5615234,1.53125-7.4453125,4.0292969-7.9130859,6.8535156
		c-0.2148438,1.2978516-0.2900391,5.6787109,7.7607422,7.5732422c5.0986328,1.1992188,13.4482422,2.0214844,22.1650391,2.203125
		c-0.4335938,3.7392578-0.8662109,8.1289063-1.1513672,12.6142578c-0.2480469,3.9160156-0.3554688,7.4921875-0.3300781,10.71875
		c-3.0458984,7.7792969-8.1367188,16.4472656-13.0498047,17.5712891c-0.4033203,0.0908203-0.7236328,0.1259766-0.9765625,0.1230469
		c-0.1855469-0.0615234-0.3828125-0.0927734-0.5888672-0.0898438h-0.0009766
		c-0.2109375-0.0751953-0.3134766-0.1816406-0.3681641-0.2373047c-0.3916016-0.4023438-1.2255859-1.9023438-0.5009766-7.1357422
		c0.5273438-3.8027344,1.6875-8.3193359,2.7099609-12.3037109c2-7.7910156,2.7539063-11.0175781,1.2802734-12.6503906
		c-0.5546875-0.6152344-1.3603516-0.8964844-2.2119141-0.7685547c-2.4863281,0.3691406-3.875,2.4189453-5.21875,4.3994141
		c-0.6298828,0.9306641-1.2460938,1.8378906-1.9619141,2.6103516c-0.9140625,0.9892578-1.9931641,1.7568359-3.4765625,2.0693359
		c-0.3466797,0.0742188-0.7060547-0.0126953-1.0537109-0.1845703c1.6660156-8.1152344,1.2226563-17.7822266-1.5380859-21.6708984
		c-1.4521484-2.046875-3.2148438-2.1738281-4.1376953-2.0654297c-1.7275391,0.2001953-3.0869141,1.3349609-3.8242188,3.1953125
		c-0.9794922,2.4677734-0.9238281,6.4316406,0.1513672,10.8759766c1.0488281,4.3369141,2.8291016,8.2207031,4.8818359,10.6572266
		l0.0458984,0.0517578c-0.859375,3.7910156-2.6601563,8.7373047-4.7685547,12.9521484
		c-3.5429688,7.0830078-6.2470703,9.0410156-7.2861328,9.0800781l-0.1943359,0.0009766l-0.2109375-0.0205078l-0.125-0.0078125
		c-0.4492188-0.0693359-0.8076172-0.2636719-1.1210938-0.6035156c-0.7763672-0.8417969-1.6933594-2.9755859-1.6503906-8.3613281
		c0.0332031-4.1035156,0.5976563-8.8125,1.0957031-12.9677734c0.421875-3.5136719,0.7851563-6.5488281,0.75-8.5732422
		c-0.0195313-1.0986328-0.859375-1.9824219-1.953125-2.0566406c-0.5654297-0.0380859-1.09375,0.1445313-1.5009766,0.4785156
		c-0.7382813,0.3496094-1.7197266,1.203125-1.9902344,3.2978516c-0.0722656,0.5615234-0.1708984,1.2539063-0.2851563,2.0566406
		c-0.34375,2.4111328-0.8066406,5.6572266-1.1035156,9.1298828c-0.7246094,2.8652344-1.5722656,5.7167969-2.5556641,8.3173828
		c-1.6464844,4.3544922-4.1933594,9.3505859-7.4541016,10.3408203c-2.5263672,0.1611328-3.3955078-1.0556641-3.8681641-2.1474609
		c-1.105957-2.5546875-0.7719727-7.0908203,0.8613281-12.2099609c0.15625-0.4316406,0.296875-0.8740234,0.4433594-1.3125
		c1.7666016-4.9580078,4.3828125-9.3632813,6.9287109-11.5996094c1.1162109-0.9794922,2.0839844-1.4433594,2.890625-1.3876953
		c0.3154297,0.2412109,0.6904297,0.3701172,1.0703125,0.3818359c0.8261719,0.3134766,1.78125,0.0019531,2.2490234-0.7822266
		c0.5244141-0.8798828,0.2373047-2.0175781-0.6416016-2.5429688c-0.2441406-0.1455078-0.5351563-0.2929688-0.8671875-0.4199219
		c-1.5761719-1.2724609-3.6113281-1.6367188-5.8261719-1.0214844c-2.6611328,0.7392578-5.4072266,2.859375-7.7333984,5.9707031
		c-2.4521484,3.2802734-4.2421875,7.3740234-5.1777344,11.8378906c-0.4462891,2.1298828-0.6962891,4.7412109-0.5478516,7.3466797
		c-2.9072266,4.6201172-6.4262695,7.6552734-9.8574219,7.9941406c-0.4003906,0.0400391-0.7871094,0.0625-1.1611328,0.0703125
		c-2.9550781-0.0390625-4.7929688-2.1894531-5.4638672-6.3964844c-0.2285156-1.4306641-0.2939453-3.0507813-0.2109375-4.7568359
		c10.109375-9.3212891,11.1943359-14.9951172,10.2285156-18.1630859c-0.6015625-1.9736328-2.1738281-3.3486328-4.1025391-3.5878906
		c-1.8652344-0.2304688-4.71875,0.46875-7.7158203,5.1152344c-2.2177734,3.4365234-3.9453125,8.2832031-4.6210938,12.9628906
		c-0.1376953,0.9541016-0.2148438,1.8789063-0.2636719,2.7880859c-0.3686523,0.8251953-0.746582,1.6376953-1.1445313,2.4189453
		c-2.1757813,4.2724609-4.6767578,7.5185547-6.8623047,8.9072266c-0.8837891,0.5615234-1.6542969,0.7919922-2.2939453,0.6865234
		l-0.1914063-0.0478516c-0.4091797-0.1806641-0.8886719-1.234375-0.9697266-3.6923828
		c-0.0917969-2.8017578,0.3486328-6.5908203,0.7744141-10.2548828c0.453125-3.8945313,0.9208984-7.9208984,0.8066406-11.1113281
		c-0.0576172-1.5996094-0.2333984-6.46875-3.9707031-7.4443359c-1.4433594-0.3769531-3.6826172-0.2802734-6.1542969,2.3173828
		c-1.4306641,1.5029297-2.8388672,3.6972656-4.3056641,6.7089844c-2.1992188,4.515625-4.1640625,10.1757813-5.7119141,14.8310547
		c0.1601563-3.0351563,0.3730469-6.5625,0.6494141-10.3349609l0.0419922-0.0390625
		c2.2441406-2.4052734,6.3691406-10.8857422,9.390625-19.3085938c2.7832031-7.7578125,5.6738281-18.2089844,3.6425781-23.9355469
		c-1.1064453-3.1191406-3.3261719-4.0488281-4.9931641-4.2802734c-1.4287109-0.1992188-3.5449219,0.0908203-5.5244141,2.5947266
		c-2.1601563,2.7324219-3.8466797,7.6503906-5.1542969,15.0351563c-1.0292969,5.8095703-1.7841797,12.9638672-2.2451172,21.2617188
		c-0.4824219,8.7050781-0.4912109,16.0410156-0.453125,19.6386719c0.0595703,5.6083984,0.2607422,9.0146484,0.5986328,10.140625
		l0.0146484,0.0488281l0.0351563,0.1015625l0.0097656,0.0214844l0.0292969,0.0673828
		c0.4287109,0.9951172,1.2871094,1.3408203,1.9560547,1.3183594c1.6181641-0.0429688,2.2636719-1.7431641,2.8876953-3.3876953
		c0.5341797-1.4072266,1.1728516-3.3457031,1.9121094-5.5898438c1.6923828-5.1376953,3.7988281-11.5322266,6.2480469-16.5605469
		c1.7939453-3.6826172,3.5683594-6.0908203,4.9863281-6.8447266l0.0917969-0.0048828
		c0.1425781,0.2949219,0.4189453,1.1835938,0.3642578,3.5908203c-0.0498047,2.2470703-0.3603516,5.0449219-0.6894531,8.0058594
		c-0.9042969,8.1445313-1.7587891,15.8369141,1.3837891,19.1923828c0.9775391,1.0429688,2.2792969,1.5898438,3.7822266,1.5917969
		c0.3554688,0.0703125,0.7148438,0.1064453,1.0791016,0.1064453c1.2802734,0,2.6074219-0.4326172,3.9619141-1.2929688
		c2.2724609-1.4443359,4.5444336-4.1074219,6.6171875-7.5605469c0.3623047,1.3886719,0.8623047,2.6542969,1.5234375,3.7363281
		c1.46875,2.40625,4.3330078,5.1171875,9.7802734,5.1171875l0.2148438-0.0029297l0.1074219,0.0029297l0.1269531-0.0009766
		l0.1933594-0.0126953c0.3662109-0.0136719,0.7412109-0.0380859,1.1289063-0.0761719
		c3.5976563-0.3554688,7.215332-2.6708984,10.4033203-6.5996094c0.3876953,1.171875,0.9013672,2.2675781,1.5800781,3.2197266
		c1.3847656,1.9404297,3.3261719,3.1181641,5.6152344,3.40625c0.3388672,0.0419922,0.6748047,0.0634766,1.0068359,0.0634766
		c0.6435547,0,1.2744141-0.0830078,1.8925781-0.2421875c0.0908203-0.0175781,0.1777344-0.0419922,0.2636719-0.0712891
		c3.4267578-1.0185547,6.4443359-4.5205078,9.0068359-10.4609375c0.4462891,3.1416016,1.3310547,5.4814453,2.6679688,7.078125
		c1.2148438,1.4501953,2.8300781,2.2900391,4.6884766,2.4423828c0.3330078,0.0400391,0.6757813,0.0537109,1.0283203,0.0410156
		c1.8896484-0.0732422,3.7890625-1.2822266,5.8056641-3.6962891c1.5273438-1.828125,3.1367188-4.3974609,4.6542969-7.4316406
		c1.3154297-2.6298828,2.4941406-5.4824219,3.4404297-8.2207031l0.0830078-0.1337891
		c0.5400391-1.1113281,1.0146484-2.3486328,1.4248047-3.6708984c1.0556641,0.3652344,1.9970703,0.3417969,2.7421875,0.1845703
		c1.7597656-0.3691406,3.1376953-1.1289063,4.2636719-2.0634766l0.0009766-0.0009766
		c0.1513672-0.0712891,0.2919922-0.1630859,0.421875-0.2773438c-0.2041016,1.2714844-0.5,2.7841797-0.7617188,4.1308594
		c-1.4169922,7.2685547-3.1796875,16.3125,0.2460938,20.3154297c0.7675781,0.8964844,2.1425781,1.9375,4.4082031,1.9902344
		c0.3134766,0.0556641,0.6542969,0.0869141,1.0214844,0.0869141c0.5322266,0,1.1230469-0.0644531,1.7763672-0.2138672
		c5.3261719-1.2177734,9.6689453-7.5478516,12.3740234-12.6455078c0.0927734-0.1757813,0.1826172-0.3535156,0.2744141-0.5292969
		c0.5664063,5.1640625,1.6875,8.7568359,3.4248047,10.9169922c1.2470703,1.5507813,2.8603516,2.3984375,4.6640625,2.4521484
		l0.0556641,0.0009766c0.1054688,0,0.2089844-0.0107422,0.3105469-0.0283203
		c0.2578125,0.0302734,0.5166016,0.046875,0.7734375,0.046875c1.1142578,0,2.2167969-0.2783203,3.2705078-0.8320313
		c3.2382813-1.7050781,6.0859375-5.9746094,8.7050781-13.0527344c2.1582031-5.8310547,3.6640625-12.3349609,4.3066406-15.1132813
		c0.2314453-0.9970703-0.390625-1.9931641-1.3876953-2.2246094c-0.9980469-0.2304688-1.9941406,0.390625-2.2246094,1.3886719
		c-0.6269531,2.7089844-2.0957031,9.0527344-4.171875,14.6630859c-2.8095703,7.5908203-5.3330078,10.203125-6.9550781,11.0566406
		c-0.9287109,0.4882813-1.8164063,0.5380859-2.7919922,0.1542969c-0.5556641-0.2177734-1.6962891-1.8398438-2.4472656-6.5332031
		c-0.5957031-3.7275391-0.8583984-8.7841797-0.7685547-14.6552734c0.15625-0.5195313,0.2978516-1.0195313,0.4248047-1.4931641
		c2.8427734-6.2490234,5.375-12.7773438,7.078125-18.25c6.4736328-0.4931641,11.0976563-1.1347656,14.2246094-1.7226563
		C451.0615234,435.8378906,451.4248047,434.421875,451.0712891,433.4609375z M300.984375,450.4541016
		c0.8291016-8.5595703,1.8339844-15.6875,2.9873047-21.1855469c1.7949219-8.5595703,3.5683594-11.2431641,4.4648438-12.0810547
		c0.2890625-0.2705078,0.5380859-0.4013672,0.734375-0.3867188l0.0585938,0.0009766
		c0.1972656,0.2548828,0.3798828,0.5888672,0.5371094,1.0302734c1.2802734,3.6113281-0.0449219,11.4277344-3.6386719,21.4443359
		c-1.6542969,4.6113281-3.5830078,9.0449219-5.2607422,12.4052734
		C300.9052734,451.2724609,300.9443359,450.8632813,300.984375,450.4541016z M342.7001953,450.6494141l0.015625,0.0458984
		c0.2099609,0.6855469,0.3154297,2.2685547-1.3271484,5.1591797c-1.0205078,1.7939453-2.5244141,3.7539063-4.4902344,5.8564453
		c0.2490234-1.0634766,0.5458984-2.1171875,0.890625-3.1386719
		C339.109375,454.65625,340.9775391,451.6728516,342.7001953,450.6494141z M391.9785156,444.1083984
		c-0.8730469-3.6074219-0.9912109-6.9179688-0.3095703-8.6376953c0.3261719-0.8242188,0.6621094-0.8632813,0.8046875-0.8789063
		l0.0322266-0.0029297c0.1845703,0,0.4033203,0.1787109,0.6533203,0.5302734
		c1.2441406,1.7548828,1.953125,6.1162109,1.8046875,11.1113281c-0.0488281,1.6142578-0.1806641,3.21875-0.3867188,4.7666016
		C393.5195313,449.0947266,392.5996094,446.6777344,391.9785156,444.1083984z M428.8662109,446.2578125
		c0.2236328-2.8378906,0.5068359-5.6435547,0.8378906-8.3193359c0.7412109-0.0078125,1.4707031-0.0195313,2.1865234-0.0371094
		C431.0410156,440.5185547,430.0146484,443.3515625,428.8662109,446.2578125z M433.0292969,434.1474609
		c-0.9267578,0.03125-1.8681641,0.0537109-2.8193359,0.0664063c0.5898438-3.9785156,1.2861328-7.5205078,2.0419922-10.2421875
		c0.4277344-1.5390625,0.9882813-1.9130859,1.0810547-1.9228516c0.0273438,0,0.2246094,0.0615234,0.4833984,0.3779297
		c0.4482422,0.5478516,0.8466797,1.5693359,0.8955078,2.9775391
		C434.6025391,427.3291016,434.1542969,430.1210938,433.0292969,434.1474609z"/>
	<path d="M255.5048828,356.5488281c1.2871094-4.21875,2.8603516-8.2250977,4.5039063-11.4418945
		C248.0664063,349.6831055,241.8417969,378.9296875,255.5048828,356.5488281z"/>
	<path d="M306.9492188,357.6933594c8.2246094-1.7167969,15.5205078-12.5864258,11.9404297-12.9438477
		c-3.359375-0.3583984-6.8642578,3.2890625-9.1523438,6.7929688
		C308.1650391,353.9755859,307.8798828,355.1904297,306.9492188,357.6933594z"/>
	<path d="M372.0019531,346.105957c-2.6474609,1.5751953-4.5791016,4.2207031-5.4345703,7.0083008
		C378.1513672,352.3271484,380.2246094,341.1713867,372.0019531,346.105957z"/>
	<path d="M571.0253906,347.4663086l-7.2958984-9.9423828c-6.1503906-8.4365234-21.3134766-7.5791016-28.1777344,1.359375
		l-1.5009766-2.0732422c-4.7207031-6.4355469-19.0224609-7.0078125-25.3867188-0.2841797
		c-1.7392578,1.8359375-3.5947266,4.7573242-5.3183594,8.3017578c-1.6054688-2.2036133-3.2216797-4.3979492-4.8212891-6.5859375
		c-7.1513672-9.7265625-23.8125-7.7958984-31.9658203-2.5029297c-6.0771484-5.5791016-16.6630859-5.0048828-24.3857422-2.359375
		c-6.4365234-3.0048828-16.0908203-1.9316406-20.8808594,3.1464844c-5.3378906,5.5874023-9.71875,17.6293945-11.1123047,27.8647461
		c-0.2080078-0.3876953-0.4472656-0.7646484-0.7421875-1.1210938l-6.7939453-9.1523438
		c-3.0019531-4.1479492-1.7158203-2.1450195-3.8603516-3.934082l-6.1503906-8.4375
		c-5.2197266-7.0800781-11.15625-10.0136719-20.6660156-10.2285156c-11.859375-0.277832-21.0839844,5.0649414-26.921875,12.6357422
		l-0.1884766-0.2607422c-5.1484375-7.0087891-7.2226563-11.6572266-17.4492188-12.3017578
		c0.3076172-2.7939453,0.5625-5.5541992,0.5947266-8.2431641l230.3710938,0.737793l0.4179688,0.0014648l0.0751953-0.4106445
		c3.0419922-16.4296875,5.4550781-48.5644531-12.5634766-79.1870117
		c-5.2617188-8.9428711-16.2099609-27.5512695-38.3632813-36.9238281
		c-26.1445313-11.0610352-50.9384766-2.4628906-65.7539063,2.6748047
		c-46.3359375,16.0683594-72.3935547,54.378418-84.0263672,76.4052734
		c-9.9086914-20.1616211-32.4243164-55.6459961-74.1948242-73.7143555
		c-13.8388672-5.9863281-39.5996094-17.1303711-68.534668-8.0869141
		c-21.0678711,6.5839844-33.4013672,20.3520508-35.6601563,23.0454102
		c-13.7714844,16.4233398-18.9453125,37.3051758-20.4814453,55.2709961
		c-4.9951172,2.3989258-9.440918,5.8222656-12.8066406,10.5258789c-5.5078125,7.7226563-7.0087891,17.8789063-2.8603516,26.6035156
		c1.6445313,3.4326172,7.7255859,11.2998047,10.3681641,14.8740234
		c15.0888672,20.5239258,49.9169922,5.8623047,41.3349609-5.8642578l-4.7294922-6.3925781l15.1967773,0.0488281
		c-6.7514648,17.7724609-17.4208984,43.659668-17.5493164,59.4067383
		c-0.0703125,11.7275391,2.7900391,19.5234375,9.1523438,28.1044922
		c7.1533203,9.7246094,12.2285156,18.9511719,26.6035156,18.9511719c5.9985352,0,11.3984375-1.8662109,15.7763672-4.7431641
		c11.7548828,15.4140625,23.9633789,30.5742188,36.4682617,45.2529297
		c26.9082031,31.5830078,55.9829102,61.9355469,86.4165039,90.2158203l0.3183594,0.2949219l0.3369141-0.2724609
		C400.5,530.078125,434.4560547,496.0976563,464.2382813,459.1669922
		C475.3457031,445.3925781,486,431.0253906,496.0292969,416.3417969c0.0605469,2.0615234,0.4257813,4.1787109,1.1933594,6.2832031
		c1.5039063,4.2910156,6.7236328,10.5859375,9.6552734,14.5898438c5.2216797,7.0087891,11.0136719,10.3691406,20.9541016,9.7255859
		c29.5351563-1.9306641,31.9667969-45.6953125,35.7558594-67.5087891
		c0.7138672-4.0761719,4.2177734-20.1660156,6.6503906-22.8115234
		C573.0283203,353.9033203,573.4580078,350.3276367,571.0253906,347.4663086z M409.7451172,372.1445313
		c0.0654297,1.5195313,0.2382813,2.9179688,0.5341797,4.1425781c1.2167969,4.9335938,7.5078125,12.2294922,10.7275391,16.6630859
		c7.7216797,10.5820313,29.03125,11.2998047,28.1748047-1.2167969l0.4990234,0.7138672
		c7.5810547,10.2285156,26.1738281,11.6591797,28.6767578,2.2177734c3.1464844,4.2890625,6.7939453,6.2919922,12.4433594,6.2919922
		c5.2949219,0,10.5009766-3.2470703,15.2021484-7.7460938c2.6201172,3.5693359,5.6220703,6.8505859,9.8125,7.8173828
		c-0.4306641,0.7158203-0.9296875,1.2880859-1.359375,1.359375c-4.6347656-6.6357422-11.8251953-3.6318359-15.71875,3.1123047
		h-247.621582c-0.1582031-1.953125-0.7631836-3.7949219-1.8671875-5.4228516
		c3.2333984-1.1181641,6.4335938-3.2333984,9.3774414-6.2714844c3.3623047,4.6484375,6.9375,7.1513672,13.2304688,7.1513672
		c5.6489258,0,11.609375-4.0625,16.9189453-9.4541016c0.2802734,0.3740234,0.5512695,0.7392578,0.8017578,1.0859375
		c7.7226563,10.4414063,26.3886719,11.5146484,28.1035156,1.359375c5.0791016,5.9375,11.9423828,8.8691406,19.453125,5.6494141
		c4.0981445-1.7207031,8.5380859-5.5068359,12.6201172-9.9765625c5.784668,7.7695313,12.0019531,11.3330078,22.4257813,11.4042969
		C389.6796875,401.2392578,402.1533203,386.2402344,409.7451172,372.1445313z M363.0224609,559.1152344
		c-30.2905273-28.1689453-59.2290039-58.3925781-86.0185547-89.8359375
		c-12.4833984-14.6533203-24.6723633-29.7861328-36.4077148-45.1728516
		c6.5473633-4.6308594,10.5932617-11.5332031,10.565918-17.6064453h247.0371094
		c-1.1894531,2.3662109-1.9707031,5.1191406-2.1445313,8.0361328
		c-10.2597656,15.0947266-21.1914063,29.8613281-32.5957031,44.0039063
		C433.8125,495.3027344,400.0205078,529.140625,363.0224609,559.1152344z M322.5400391,335.9516602
		c20.0234375-1.7880859,20.0234375,13.2304688,1.8603516,22.6704102c2.8076172,5.2158203,7.4316406,9.4326172,13.5766602,4.3984375
		c0.425293-0.3486328,0.8574219-0.7392578,1.2973633-1.1787109c1.4248047-1.3769531,2.7416992-2.8261719,3.9643555-4.3369141
		c0.8803711-3.3896484,2.3793945-6.7001953,4.4609375-9.6743164c4.96875-7.0996094,13.2368164-12.2807617,24.2290039-12.0234375
		c20.0224609,0.4296875,28.6035156,20.0961914-5.0800781,23.9584961c-0.8574219,6.5087891,17.5214844,7.7949219,25.6015625-4.21875
		c2.5058594-3.6459961,7.7958984-1.5009766,5.4375,3.0019531c-7.4375,13.2294922-18.0908203,26.9599609-33.8964844,26.8173828
		c-3.5742188-0.0302734-6.6743164-0.6210938-9.3310547-1.6435547c-6.6235352-2.5507813-10.4536133-7.8144531-11.7939453-13.9589844
		c-1.0610352,1.4375-2.1708984,2.8642578-3.3217773,4.2382813c-3.7978516,4.53125-8.0253906,8.4804688-12.2836914,10.2910156
		c-11.8691406,5.0078125-20.0947266-10.8681641-21.953125-20.3066406c-1.2880859,7.4355469-0.2861328,13.8720703,0,17.0166016
		c0.1435547,1.7158203-1.0019531,3.1464844-2.7167969,3.71875c-1.8535156,0.5664063-4.7861328,0.7490234-8.0131836,0.0947266
		c-1.2583008-0.2548828-2.5566406-0.6240234-3.8598633-1.1660156c-4.5058594-1.8603516-6.7939453-5.2197266-7.7949219-9.296875
		c-0.2275391-0.9570313-0.3564453-1.9863281-0.4213867-3.0625c-1.2158203,1.5830078-2.465332,3.1015625-3.7363281,4.5214844
		c-4.934082,5.5107422-10.1948242,9.4853516-15.1069336,9.4853516c-2.9326172,0-5.7226563-0.9306641-7.7958984-2.8613281
		c-2.1464844-2.1474609-3.0048828-5.7216797-3.0751953-10.0126953
		c-5.2910156,8.6523438-11.7285156,12.8701172-16.1621094,12.8701172c-1.9287109-0.0136719-3.6074219-0.3564453-5.0703125-0.953125
		c-5.8618164-2.3886719-8.1040039-9.0263672-7.5888672-16.6367188c0.9394531-13.6044922,8.699707-23.4780273,18.0385742-28.3955078
		c7.7446289-4.078125,16.5737305-4.7519531,23.5102539-1.2836914c7.3662109-4.7207031,21.0244141-0.2138672,16.3037109,4.0771484
		c-2.9296875,2.6474609-6.6464844,22.6713867-4.6455078,22.956543c0.3037109,0.0537109,0.7636719-0.1962891,1.3369141-0.6806641
		c1.4770508-1.2460938,3.7080078-4.0478516,5.9707031-7.2216797c1.2939453-4.8974609,3.065918-10.1816406,4.9257813-15.5942383
		c2.0693359-6.0219727,4.2290039-12.1904297,5.9365234-18.1474609l0.0498047-0.171875
		c0.0473633-0.1665039,0.097168-0.3334961,0.1435547-0.4995117c0.046875-0.1660156,0.0961914-0.3334961,0.1420898-0.4995117
		c1.0024414-3.6108398,1.8110352-7.1269531,2.3178711-10.4746094c0.6938477-4.5864258,0.8139648-8.8530273,0.015625-12.5742188
		c-0.7138672-2.7900391,2.3574219-3.71875,4.5058594-3.71875c10.2949219-0.0712891,13.2285156,7.8652344,12.9404297,16.6630859
		c-0.0834961,3.0615234-0.4013672,6.5336914-0.8662109,10.1650391c-0.0214844,0.1660156-0.043457,0.3330078-0.0654297,0.5
		c-0.0219727,0.1665039-0.0429688,0.3320313-0.0654297,0.4995117c-0.7148438,5.3212891-1.7290039,10.934082-2.7919922,16.0825195
		C315.3183594,337.3110352,319.1074219,336.2368164,322.5400391,335.9516602z M258.6865234,292.7602539
		c3.5048828,8.0800781-7.5078125,7.1513672-12.2978516,6.2919922l-9.65625-13.7324219
		c-7.6503906-10.4414063-24.8876953-7.5810547-22.4550781,2.5019531c-11.2265625-4.71875-24.3847656-9.7958984-35.6845703-9.2246094
		c-6.2587891,0.2929688-12.5874023,1.5498047-18.2675781,4.0791016
		c1.5810547-17.6704102,6.7368164-38.0766602,20.2109375-54.1445313
		c2.2270508-2.6557617,14.3901367-16.2329102,35.1914063-22.7338867
		c28.5786133-8.9331055,54.1191406,2.1147461,67.8637695,8.0610352
		c42.0708008,18.1982422,64.4853516,54.2446289,74.1015625,74.1113281l0.4335938,0.8959961l0.4599609-0.8828125
		c11.3286133-21.7407227,37.2963867-60.628418,83.9272461-76.7983398
		c14.6777344-5.0908203,39.2470703-13.6108398,65.0351563-2.6992188
		c21.8496094,9.2436523,32.6855469,27.659668,37.8925781,36.5097656
		c17.7050781,30.0908203,15.4970703,61.675293,12.5175781,78.0878906l-229.9521484-0.7363281
		c-0.0522461-5.0649414-1.0068359-9.8491211-4.1044922-14.0703125l-7.8671875-10.5830078
		c-7.5078125-10.2978516-24.7402344-7.6533203-22.3818359,2.5732422l0.0375977,0.2104492l-7.184082-9.7924805
		C274.9921875,275.0239258,253.6083984,281.3188477,258.6865234,292.7602539z M286.2089844,337.2294922
		c-1.3803711-1.777832-2.9980469-3.0209961-4.7163086-3.8657227c1.5581055-0.4194336,3.0668945-0.9541016,4.5053711-1.6347656
		c0.909668-0.425293,1.7602539-0.8955078,2.5620117-1.3989258
		C287.7978516,332.6137695,287.0048828,334.9194336,286.2089844,337.2294922z M252.5908203,331.6835938
		c-3.0991211,0.2988281-6.1679688,1.0668945-9.0898438,2.2099609c0.4492188-1.6699219,0.8457031-3.1972656,1.1640625-4.5219727
		C247.1811523,330.1728516,249.8461914,330.965332,252.5908203,331.6835938z M206.1699219,321.9570313l-15.7128906-0.050293
		c2.7924805-7.3359375,11.1708984-6.3706055,17.5234375-4.8339844
		C207.4272461,318.605957,206.8173828,320.2431641,206.1699219,321.9570313z M215.8603516,413.8291016
		c-15.3769531,0-23.171875-14.5888672-23.0292969-31.3935547c0-6.6494141,2.8623047-17.4462891,6.2216797-28.1035156
		c2.359375-8.1347656,7.2119141-19.7373047,11.5507813-31.3613281c0.0620117-0.1660156,0.1254883-0.3325195,0.1875-0.4990234
		s0.1235352-0.3330078,0.1850586-0.4995117c1.9677734-5.3100586,3.8115234-10.6040039,5.2407227-15.5527344
		c-8.1523438-2.8613281-15.6630859-5.2910156-21.5253906-6.0068359
		c-16.8769531-2.0751953-22.4560547,17.3056641-11.4443359,19.9521484c0.9326172,0.2241211,1.0854492,0.9130859,1.0205078,1.5219727
		c-0.0195313,0.1787109-0.0556641,0.3491211-0.0986328,0.5c-0.0668945,0.2348633-0.1430664,0.4160156-0.1806641,0.4990234
		l-0.0244141,0.0522461c-3.859375,4.7929688-10.796875,7.2226563-17.6611328,6.9384766
		c-23.3491211-0.9760742-28.0986328-29.2783203-7.3671875-41.5126953c0.1601563-0.0942383,0.3203125-0.1879883,0.4829102-0.2802734
		c0.1787109-0.1010742,0.3579102-0.2026367,0.5405273-0.3017578c4.9697266-2.6977539,11.2958984-4.5073242,19.0712891-4.890625
		c11.7275391-0.5722656,25.8876953,5.578125,39.8320313,11.3701172c0.2841797-2.8603516,0.2841797-5.3632813-0.1435547-7.4365234
		c-0.7138672-2.8613281,2.4316406-3.71875,4.5048828-3.71875c5.1494141-0.0732422,8.4423828,1.9306641,10.4423828,5.0048828
		c1.7158203,2.6464844,2.1464844,7.0791016,1.6445313,12.4423828c6.5078125,2.1445313,12.7304688,3.5039063,18.3798828,3.3603516
		c9.5810547-0.2841797,11.5839844-7.2929688,9.1523438-12.8701172c-1.7890625-4.0068359,3.2158203-6.0097656,9.0810547-5.0800781
		c15.1611328,2.2910156,19.5947266,23.3134766,4.1513672,30.5341797
		c-10.8720703,5.1494141-26.890625,1.2890625-42.6230469-4.0039063c-0.6606445,3.0688477-1.4453125,6.2744141-2.2988281,9.543457
		c-0.043457,0.1669922-0.0859375,0.3320313-0.1298828,0.4995117c-0.043457,0.1660156-0.0883789,0.3330078-0.1323242,0.4995117
		c-3.2543945,12.3095703-7.4291992,25.4350586-9.8237305,35.7158203c-0.7382813,3.1679688-1.3032227,6.0605469-1.6230469,8.5800781
		c-0.1943359,1.5322266-0.3022461,2.9316406-0.2949219,4.1601563c0,6.890625,1.9116211,12.9775391,7.6494141,16.5097656
		c0.4555664,0.2802734,0.9277344,0.5498047,1.4326172,0.796875c2.3603516,1.1445313,4.9355469,2.2177734,8.0810547,2.0029297
		c1.1455078-0.0712891,1.7148438,0.5722656,2.0029297,1.5742188c0.6401367,2.4267578,0.434082,4.8994141-0.4091797,7.2636719
		c-0.7397461,2.0732422-1.9707031,4.0615234-3.5737305,5.8603516c-0.1503906,0.1689453-0.3046875,0.3349609-0.4614258,0.5
		c-0.1601563,0.1689453-0.3251953,0.3349609-0.4916992,0.5c-1.109375,1.0996094-2.3574219,2.1132813-3.7128906,3.0146484
		c-0.1391602,0.0927734-0.2758789,0.1875-0.4174805,0.2773438c-0.1401367,0.0888672-0.284668,0.1738281-0.4272461,0.2607422
		C225.0102539,412.3808594,220.465332,413.8291016,215.8603516,413.8291016z M559.2021484,342.1000977
		c-3.359375,3.0751953-7.0087891,20.0229492-7.8652344,25.1733398
		c-3.5048828,19.8085938-5.7929688,62.2871094-31.8935547,64.0029297
		c-22.0976563,1.4296875-23.3134766-23.8164063-11.4414063-28.2490234c1.2890625-0.4990234,2.3613281,0.359375,3.0751953,1.7890625
		c0.9316406,1.7880859,3.0751953,2.2880859,5.078125,1.5742188c5.9365234-1.9296875,10.2978516-21.0214844,12.0869141-31.0351563
		C523.8710938,380.9042969,518,384.6953125,512.8330078,385.5c-5.8232422,0.9072266-10.7509766-1.9804688-11.6220703-10.4296875
		c-0.1015625-0.9707031-0.1416016-1.9960938-0.1337891-3.0556641c-1.34375,1.7158203-2.7226563,3.3466797-4.1240234,4.8417969
		c-4.6611328,4.9736328-9.5576172,8.4375-14.1425781,8.4375c-17.6640625,0-10.0830078-29.1025391-5.2919922-37.5424805
		c1.4306641-2.1464844-0.5029297-5.1503906-4.7207031-0.7871094c-6.3652344,8.0805664-7.2939453,23.597168-6.4365234,34.0385742
		c0.1445313,1.7158203-0.9296875,3.1464844-2.7158203,3.71875c-2.5742188,0.7871094-7.2226563,0.859375-11.7988281-1.0712891
		c-14.1591797-5.7919922-9.7265625-24.5986328-4.3632813-34.5395508c2.7177734-5.0761719-0.3574219-5.8632813-3.9316406-2.1435547
		c-6.1513672,7.7211914-7.3681641,24.0981445-6.5810547,34.0385742c0.1445313,1.7158203-1.0019531,3.1464844-2.7158203,3.71875
		c-2.5771484,0.7871094-7.2226563,0.8574219-11.8740234-1.0712891c-4.1464844-1.7158203-6.6484375-4.7207031-7.5800781-8.4394531
		c-1.859375-7.7949219,2.7167969-28.1743164,9.9404297-35.7543945c4.5058594-4.7929688,13.8017578-3.9335938,17.5214844-1.4316406
		c7.078125-2.9316406,19.8076172-4.3613281,23.8125,3.6474609c2.1435547-1.7880859,4.5029297-3.2890625,6.0771484-3.9316406
		c3.2197266-1.2167969,7.2958984-2.0751953,11.2285156-2.0751953c23.9570313,0.2861328,9.5820313,28.8188477,12.8720703,29.3930664
		c0.2285156,0.0380859,0.5332031-0.0820313,0.8935547-0.3232422c1.4667969-0.9804688,3.9121094-4.0693359,6.4433594-7.6445313
		c0.8242188-2.8007813,1.796875-5.515625,2.8349609-7.9780273c1.8125-4.2973633,3.8222656-7.8217773,5.5839844-9.6591797
		c6.5791016-6.9355469,23.1689453-2.0039063,18.0185547,2.6455078c-2.9296875,2.6474609-6.6494141,22.6713867-4.6455078,22.956543
		c1.7158203,0.2841797,6.0771484-8.2255859,9.1513672-14.6616211c1.6455078-4.1464844,4.0039063-9.5097656,7.8671875-12.0126953
		C549.6220703,333.0913086,564.1386719,337.7407227,559.2021484,342.1000977z"/>
	<path d="M180,239.7773438c-11.921875,14.8891602-12.9189453,31.2563477-13,37c1.5048828-6.5771484,4.1513672-14.9863281,9-24
		c7.6484375-14.2182617,17.3540039-23.5771484,24-29C194.9545898,226.269043,186.9692383,231.0737305,180,239.7773438z"/>
	<path d="M231,207.7773438c-9.6206055,2.0351563-17.0063477,6.3256836-22,10c7.1801758-2.7568359,18.2558594-5.9746094,32-6
		c21.3491211-0.0390625,37.3496094,7.6474609,45,12C282.4702148,220.7661133,259.4614258,201.7568359,231,207.7773438z"/>
	<path d="M322,254.7773438c11.0151367,11.5419922,19.9003906,22.8310547,27,33c-3.8916016-9.3447266-11.5092773-24.1582031-26-38
		c-9.7250977-9.2900391-19.5097656-15.2421875-27-19C304.1899414,237.4291992,313.0253906,245.3735352,322,254.7773438z"/>
	<path d="M413,235.7773438c-6.8183594,3.4145508-17.8857422,10.0488281-28,22c-8.9619141,10.5893555-13.5927734,21.1186523-16,28
		c4.9003906-7.4824219,10.8378906-15.6210938,18-24C395.9570313,251.2978516,404.8925781,242.7084961,413,235.7773438z"/>
	<path d="M510,216.7773438c-5.5908203-2.9692383-19.9248047-9.6220703-39-8c-20.5273438,1.7456055-34.2060547,12.0244141-39,16
		c7.9277344-3.9667969,20.6152344-9.1289063,37-11C486.6855469,211.7578125,501.1582031,214.4306641,510,216.7773438z"/>
	<path d="M551,271.7773438c-0.3017578-5.2329102-1.7050781-17.1362305-10-29c-6.5732422-9.4008789-14.5097656-14.5385742-19-17
		c5.1220703,5.0200195,11.2529297,11.9458008,17,21C544.921875,256.1083984,548.6347656,264.8608398,551,271.7773438z"/>
	<path d="M554,319.7773438c1.4501953-4.1035156,3.2255859-10.7314453,3-19c-0.2597656-9.5195313-3.0507813-16.8525391-5-21
		c1.3398438,5.1591797,2.5605469,11.5756836,3,19C555.4853516,306.9921875,554.8769531,314.1323242,554,319.7773438z"/>
	<path d="M248,425.7773438c4.2011719,8.0429688,10.2827148,17.8828125,19,28c7.3100586,8.4833984,14.6503906,15.0458984,21,20
		c-5.9672852-6.8085938-11.9716797-13.8076172-18-21C262.3745117,443.6796875,255.0444336,434.671875,248,425.7773438z"/>
	<path d="M322,514.7773438c4.4443359,4.2285156,8.8330078,7.8710938,13,11c-11.3334961-12-22.6665039-24-34-36
		C306.0854492,497.40625,312.9189453,506.1367188,322,514.7773438z"/>
	<path d="M349,542.7773438c4.5410156,5,9.0444336,8.9462891,13,12c-7.6665039-8.3330078-15.3334961-16.6669922-23-25
		C341.5498047,533.7197266,344.828125,538.1835938,349,542.7773438z"/>
	<path d="M378,542.7773438c4.0800781-4.1953125,7.3720703-8.3037109,10-12c-8,8-16,16-24,24
		C368.2441406,551.7597656,373.0898438,547.8251953,378,542.7773438z"/>
	<path d="M393,526.7773438c4.9472656-3.3964844,10.4267578-7.6679688,16-13c8.4443359-8.078125,14.5986328-16.1914063,19-23
		c-4.8125,5.2792969-9.8105469,10.6181641-15,16C406.2646484,513.7617188,399.5869141,520.4257813,393,526.7773438z"/>
	<path d="M486,417.7773438c-3.7636719,6.3828125-8.0712891,13.0957031-13,20c-7.3994141,10.3642578-14.8945313,19.3320313-22,27
		c6.0478516-4.3652344,14.375-11.4277344,22-22C479.7783203,433.3798828,483.6972656,424.4033203,486,417.7773438z"/>
</g>
</svg>
