<?xml version="1.0" encoding="utf-8"?>
<!-- Generator: Adobe Illustrator 22.0.1, SVG Export Plug-In . SVG Version: 6.00 Build 0)  -->
<svg version="1.1" id="Шар_1" xmlns="http://www.w3.org/2000/svg" xmlns:xlink="http://www.w3.org/1999/xlink" x="0px" y="0px"
	 viewBox="0 0 714 714" style="enable-background:new 0 0 714 714;" xml:space="preserve">
<style type="text/css">
	.st0{fill:#FFFFFF;}
	.st1{fill:#A22E39;}
	.st2{fill:#EA7878;}
	.st3{fill:#F9CEA7;}
	.st4{fill:#FCA7A7;}
	.st5{fill:#FF7979;}
</style>
<g>
	<path class="st0" d="M290.9980469,324.7290039c-1.4384766,0.6806641-2.9472656,1.215332-4.5053711,1.6347656
		c1.7182617,0.8447266,3.3359375,2.0878906,4.7163086,3.8657227c0.7958984-2.3100586,1.5888672-4.6157227,2.3510742-6.8994141
		C292.7583008,323.8334961,291.9077148,324.3037109,290.9980469,324.7290039z"/>
	<path class="st0" d="M519.4560547,395.3876953c0.4296875-0.0712891,0.9287109-0.6435547,1.359375-1.359375
		c-4.1904297-0.9667969-7.1923828-4.2480469-9.8125-7.8173828c-4.7011719,4.4990234-9.9072266,7.7460938-15.2021484,7.7460938
		c-5.6494141,0-9.296875-2.0029297-12.4433594-6.2919922c-2.5029297,9.4414063-21.0957031,8.0107422-28.6767578-2.2177734
		l-0.4990234-0.7138672c0.8564453,12.5166016-20.453125,11.7988281-28.1748047,1.2167969
		c-3.2197266-4.4335938-9.5107422-11.7294922-10.7275391-16.6630859c-0.2958984-1.2246094-0.46875-2.6230469-0.5341797-4.1425781
		c-7.5917969,14.0957031-20.0654297,29.0947266-37.5654297,28.8808594
		c-10.4238281-0.0712891-16.6416016-3.6347656-22.4257813-11.4042969
		c-4.0820313,4.4697266-8.5219727,8.2558594-12.6201172,9.9765625c-7.5107422,3.2197266-14.3740234,0.2880859-19.453125-5.6494141
		c-1.7148438,10.1552734-20.3808594,9.0820313-28.1035156-1.359375c-0.2504883-0.3466797-0.5214844-0.7119141-0.8017578-1.0859375
		c-5.3095703,5.3916016-11.2700195,9.4541016-16.9189453,9.4541016c-6.2929688,0-9.8681641-2.5029297-13.2304688-7.1513672
		c-2.9438477,3.0380859-6.144043,5.1533203-9.3774414,6.2714844c1.1977539,1.765625,1.8105469,3.7841797,1.9003906,5.9228516
		c82.4399414,0,164.8793945,0,247.3188477,0C507.2890625,391.9130859,514.7089844,388.5927734,519.4560547,395.3876953z"/>
	<path class="st0" d="M249.6650391,322.371582c-0.3183594,1.324707-0.7148438,2.8520508-1.1640625,4.5219727
		c2.921875-1.1430664,5.9907227-1.9111328,9.0898438-2.2099609
		C254.8461914,323.965332,252.1811523,323.1728516,249.6650391,322.371582z"/>
	<path class="st0" d="M585.5,344.2773438c-0.2363281-2.3017578-0.9570313-4.2333984-3-8
		c-2.0888672-3.8510742-5.2783203-9.1005859-10-15c3.1513672-14.027832,5.7666016-36.0224609-1-61
		c-3.4873047-12.871582-12.8291016-47.3549805-45-65c-19.3447266-10.6103516-38.0800781-10.2705078-47-10
		c-25.8212891,0.7832031-44.1171875,11.3798828-59,20c-22.9511719,13.293457-36.5390625,28.6948242-41,34
		c-7.8759766,9.3662109-13.3349609,18.21875-17,25c-2.9716797-6.0932617-7.7333984-14.7080078-15-24
		c-3.5166016-4.4960938-19.2573242-24.0327148-48-39c-6.8876953-3.5869141-15.1665039-7.8364258-27-11
		c-12.4155273-3.3193359-38.8989258-10.3989258-65.5,2.5c-18.0498047,8.7524414-27.6577148,22.5839844-32,29
		c-14.1337891,20.8852539-15.8120117,41.9375-16,51c-2.425293,0.5556641-9.0097656,2.4013672-14.5,8.5
		c-1.0244141,1.1381836-6.1030273,6.9702148-7,16c-0.1547852,1.5600586-0.4970703,6.3564453,3,16
		c3.7749023,10.4101563,8.4443359,23.2866211,21,30c6.4072266,3.4257813,12.3540039,3.9023438,14,4
		c7.3803711,0.4384766,13.1171875-1.6923828,16-3c-0.8046875,1.9272461-1.8862305,4.6630859-3,8
		c-2.6870117,8.0507813-5.140625,15.4013672-5,24c0.1459961,8.9267578,3.0273438,15.4990234,5,20
		c1.3515625,3.0830078,5.6328125,12.1689453,15,21c7.0405273,6.6376953,14.9091797,14.0556641,26,14
		c5.1679688-0.0263672,9.3500977-1.6660156,12-3c14.4951172,22.4453125,28.3774414,39.765625,39,52
		c13.394043,15.4257813,24.5878906,26.2011719,41,42c18.2441406,17.5625,34.1425781,31.7392578,46,42
		c25.7861328-18.3398438,45.9960938-36.2949219,61-51c21.0742188-20.6542969,34.9804688-37.9384766,39-43
		c13.4833984-16.9785156,23.9960938-32.7792969,32-46c1.0605469,3.3242188,3.6845703,10.0019531,10,16
		c2.1171875,2.0107422,7.4794922,6.9794922,16,9c13.3359375,3.1621094,24.2470703-3.3085938,27-5
		c9.75-5.9892578,13.9892578-14.7177734,16-19c1.2421875-2.6455078,1.6337891-4.0947266,6-29
		c2.2675781-12.9355469,2.7392578-15.8398438,4-22c2.2304688-10.9023438,3.3457031-16.3535156,4-18
		C584.1357422,352.1586914,585.9814453,348.9707031,585.5,344.2773438z M575.2382813,349.6196289
		c-2.4326172,2.6455078-5.9365234,18.7358398-6.6503906,22.8120117
		c-3.7890625,21.8134766-6.2207031,65.578125-35.7558594,67.5087891
		c-9.9404297,0.6435547-15.7324219-2.7167969-20.9541016-9.7255859c-2.9316406-4.0039063-8.1513672-10.2988281-9.6552734-14.5898438
		c-0.8740234-2.3964844-1.2412109-4.8125-1.2119141-7.140625c-9.6054688,14.1005859-20.2724609,28.6259766-32.1621094,43.3691406
		C434.8710938,493.9863281,399.71875,527.1132813,368,552.7773438
		c-27.7680664-25.8027344-57.0273438-55.7255859-86.3764648-90.1738281
		c-13.0478516-15.3164063-25.1616211-30.4238281-36.4355469-45.2089844c-4.4501953,3.0341797-10,5.0234375-16.1899414,5.0234375
		c-14.375,0-19.4501953-9.2265625-26.6035156-18.9511719c-6.3623047-8.5810547-9.2226563-16.3769531-9.1523438-28.1044922
		c0.1298828-15.8935547,11-42.1225586,17.7392578-59.9057617c-5.2412109-0.0170898-10.4824219-0.0336914-15.7236328-0.050293
		l-0.0117188,0.0297852l5.078125,6.8632813c8.5820313,11.7265625-26.2460938,26.3876953-41.3349609,5.8642578
		c-2.6425781-3.5742188-8.7236328-11.4414063-10.3681641-14.8740234
		c-4.1484375-8.7246094-2.6474609-18.8808594,2.8603516-26.6035156c3.4746094-4.855957,8.1010742-8.3457031,13.2944336-10.753418
		c1.5546875-17.8125,6.7270508-38.4443359,20.3769531-54.722168c3.3842773-4.0356445,15.4663086-16.6518555,35.4257813-22.8896484
		c28.7734375-8.9921875,54.0649414,1.9599609,68.2114258,8.0791016
		c45.1826172,19.5444336,66.9472656,59.0527344,74.3525391,74.3525391
		c8.2861328-15.9013672,33.7978516-59.5595703,84.2070313-77.0400391
		c14.3789063-4.9858398,39.4296875-13.6723633,65.3945313-2.6870117c22,9.3076172,32.8613281,27.765625,38.1279297,36.7167969
		c19.3134766,32.8237305,14.7236328,66.8486328,12.5029297,78.8427734
		c-76.7900391-0.2456055-153.5800781-0.4916992-230.3706055-0.737793c-0.0029297,2.8461914-0.2705078,5.7758789-0.597168,8.7431641
		c10.2265625,0.6445313,12.3007813,5.2929688,17.4492188,12.3017578l0.1884766,0.2607422
		c5.8378906-7.5708008,15.0625-12.9135742,26.921875-12.6357422c9.5097656,0.2148438,15.4462891,3.1484375,20.6660156,10.2285156
		l6.1503906,8.4375c2.1445313,1.7890625,0.8583984-0.2138672,3.8603516,3.9335938l6.7939453,9.152832
		c0.2949219,0.3564453,0.5341797,0.7333984,0.7421875,1.1210938c1.3935547-10.2353516,5.7744141-22.2773438,11.1123047-27.8647461
		c4.7900391-5.078125,14.4443359-6.1513672,20.8808594-3.1464844c7.7226563-2.6455078,18.3085938-3.2197266,24.3857422,2.359375
		c8.1533203-5.2929688,24.8144531-7.2236328,31.9658203,2.5029297c1.5996094,2.1879883,3.2158203,4.3823242,4.8212891,6.5859375
		c1.7236328-3.5444336,3.5791016-6.4658203,5.3183594-8.3017578c6.3642578-6.7236328,20.6660156-6.1513672,25.3867188,0.2841797
		l1.5009766,2.0732422c6.8642578-8.9384766,22.0273438-9.7958984,28.1777344-1.359375l7.2958984,9.9423828
		C578.4580078,343.3276367,578.0283203,346.902832,575.2382813,349.6196289z"/>
	<path class="st2" d="M219.2773438,280.8217773c-2.4326172-10.0830078,14.8046875-12.9433594,22.4550781-2.5019531
		l9.65625,13.7324219c4.7900391,0.859375,15.8027344,1.7880859,12.2978516-6.2919922
		c-5.078125-11.4414063,16.3056641-17.7363281,27.8203125-2.0751953l7.184082,9.7924805l-0.0375977-0.2104492
		c-2.3583984-10.2265625,14.8740234-12.8710938,22.3818359-2.5732422l7.8671875,10.5830078
		c3.1992188,4.3598633,4.1074219,9.3212891,4.1020508,14.5703125c76.7905273,0.2460938,153.5805664,0.4921875,230.3706055,0.737793
		c2.2207031-11.9941406,6.8105469-46.019043-12.5029297-78.8427734
		c-5.2666016-8.9511719-16.1279297-27.4091797-38.1279297-36.7167969
		c-25.9648438-10.9853516-51.015625-2.2988281-65.3945313,2.6870117
		c-50.4091797,17.4804688-75.9208984,61.1386719-84.2070313,77.0400391
		c-7.4052734-15.2998047-29.1699219-54.8081055-74.3525391-74.3525391
		c-14.1464844-6.1191406-39.4379883-17.0712891-68.2114258-8.0791016
		c-19.9594727,6.237793-32.0415039,18.8540039-35.4257813,22.8896484
		c-13.6499023,16.277832-18.8222656,36.909668-20.3769531,54.722168c5.8203125-2.6982422,12.3549805-4.0332031,18.8168945-4.3354492
		C194.8925781,271.0258789,208.0507813,276.1030273,219.2773438,280.8217773z M562,293.7773438
		c0.2255859,8.2685547-1.5498047,14.8964844-3,19c0.8769531-5.6450195,1.4853516-12.7851563,1-21
		c-0.4394531-7.4243164-1.6601563-13.8408203-3-19C558.9492188,276.9248047,561.7402344,284.2578125,562,293.7773438z
		 M546,235.7773438c8.2949219,11.8637695,9.6982422,23.7670898,10,29c-2.3652344-6.9165039-6.078125-15.6689453-12-25
		c-5.7470703-9.0541992-11.8779297-15.9799805-17-21C531.4902344,221.2387695,539.4267578,226.3764648,546,235.7773438z
		 M476,201.7773438c19.0751953-1.6220703,33.4091797,5.0307617,39,8c-8.8417969-2.3466797-23.3144531-5.0195313-41-3
		c-16.3847656,1.8710938-29.0722656,7.0332031-37,11C441.7939453,213.8017578,455.4726563,203.5229492,476,201.7773438z
		 M390,250.7773438c10.1142578-11.9511719,21.1816406-18.5854492,28-22c-8.1074219,6.9311523-17.0429688,15.5205078-26,26
		c-7.1621094,8.3789063-13.0996094,16.5175781-18,24C376.4072266,271.8959961,381.0380859,261.3666992,390,250.7773438z
		 M328,242.7773438c14.4907227,13.8417969,22.1083984,28.6552734,26,38c-7.0996094-10.1689453-15.9848633-21.4580078-27-33
		c-8.9746094-9.4038086-17.8100586-17.3481445-26-24C308.4902344,227.5351563,318.2749023,233.4873047,328,242.7773438z
		 M236,200.7773438c28.4614258-6.0205078,51.4702148,12.9887695,55,16c-7.6503906-4.3525391-23.6508789-12.0390625-45-12
		c-13.7441406,0.0253906-24.8198242,3.2431641-32,6C218.9936523,207.1030273,226.3793945,202.8125,236,200.7773438z
		 M172,269.7773438c0.0810547-5.7436523,1.078125-22.1108398,13-37c6.9692383-8.7036133,14.9545898-13.5083008,20-16
		c-6.6459961,5.4228516-16.3515625,14.7817383-24,29C176.1513672,254.7910156,173.5048828,263.2001953,172,269.7773438z"/>
	<path class="st2" d="M195.2578125,315.40625c5.2412109,0.0166016,10.4824219,0.0332031,15.7236328,0.050293
		c0.71875-1.8979492,1.3920898-3.7016602,1.9990234-5.3837891
		C206.4814453,308.5004883,197.8461914,307.503418,195.2578125,315.40625z"/>
	<path class="st2" d="M399.9638672,439.2304688c0.1484375-4.9951172-0.5605469-9.3564453-1.8046875-11.1113281
		c-0.25-0.3515625-0.46875-0.5302734-0.6533203-0.5302734l-0.0322266,0.0029297
		c-0.1425781,0.015625-0.4785156,0.0546875-0.8046875,0.8789063c-0.6816406,1.7197266-0.5634766,5.0302734,0.3095703,8.6376953
		c0.6210938,2.5693359,1.5410156,4.9863281,2.5986328,6.8886719
		C399.7832031,442.4492188,399.9150391,440.8447266,399.9638672,439.2304688z"/>
	<path class="st2" d="M314.7666016,410.8320313c-0.1572266-0.4414063-0.3398438-0.7753906-0.5371094-1.0302734l-0.0585938-0.0009766
		c-0.1962891-0.0146484-0.4453125,0.1162109-0.734375,0.3867188c-0.8964844,0.8378906-2.6699219,3.5214844-4.4648438,12.0810547
		c-1.1533203,5.4980469-2.1582031,12.6259766-2.9873047,21.1855469c-0.0400391,0.4091797-0.0791016,0.8183594-0.1171875,1.2275391
		c1.6777344-3.3603516,3.6064453-7.7939453,5.2607422-12.4052734
		C314.7216797,422.2597656,316.046875,414.4433594,314.7666016,410.8320313z"/>
	<path class="st2" d="M346.3886719,448.8544922c1.6425781-2.890625,1.5371094-4.4736328,1.3271484-5.1591797l-0.015625-0.0458984
		c-1.7226563,1.0234375-3.5908203,4.0068359-4.9111328,7.9228516c-0.3447266,1.0214844-0.6416016,2.0751953-0.890625,3.1386719
		C343.8642578,452.6083984,345.3681641,450.6484375,346.3886719,448.8544922z"/>
	<path class="st2" d="M438.3330078,415.0488281c-0.0927734,0.0097656-0.6533203,0.3837891-1.0810547,1.9228516
		c-0.7558594,2.7216797-1.4521484,6.2636719-2.0419922,10.2421875c0.9511719-0.0126953,1.8925781-0.0351563,2.8193359-0.0664063
		c1.125-4.0263672,1.5732422-6.8183594,1.6826172-8.7431641c-0.0488281-1.4082031-0.4472656-2.4296875-0.8955078-2.9775391
		C438.5576172,415.1103516,438.3603516,415.0488281,438.3330078,415.0488281z"/>
	<path class="st2" d="M433.8662109,439.2578125c1.1484375-2.90625,2.1748047-5.7392578,3.0244141-8.3564453
		c-0.7158203,0.0175781-1.4453125,0.0292969-2.1865234,0.0371094
		C434.3730469,433.6142578,434.0898438,436.4199219,433.8662109,439.2578125z"/>
	<path class="st2" d="M256.1489258,399c0.265625,6.3154297-3.9887695,13.6396484-10.9609375,18.3945313
		c11.2739258,14.7851563,23.3876953,29.8925781,36.4355469,45.2089844
		C310.9726563,497.0517578,340.2319336,526.9746094,368,552.7773438
		c31.71875-25.6640625,66.8710938-58.7910156,100.8486328-100.9238281
		c11.8896484-14.7431641,22.5566406-29.2685547,32.1621094-43.3691406c0.0449219-3.4814453,0.9873047-6.7587891,2.4570313-9.484375
		C421.0283203,399,338.5888672,399,256.1489258,399z M272,446.7773438c-8.7172852-10.1171875-14.7988281-19.9570313-19-28
		c7.0444336,8.8945313,14.3745117,17.9023438,22,27c6.0283203,7.1923828,12.0327148,14.1914063,18,21
		C286.6503906,461.8232422,279.3100586,455.2607422,272,446.7773438z M327,507.7773438
		c-9.0810547-8.640625-15.9145508-17.3710938-21-25c11.3334961,12,22.6665039,24,34,36
		C335.8330078,515.6484375,331.4443359,512.0058594,327,507.7773438z M354,535.7773438c-4.171875-4.59375-7.4501953-9.0576172-10-13
		c7.6669922,8.3330078,15.3330078,16.6669922,23,25C363.0439453,544.7236328,358.5410156,540.7773438,354,535.7773438z
		 M383,535.7773438c-4.9101563,5.0478516-9.7558594,8.9824219-14,12c8-8,16-16,24-24
		C390.3720703,527.4736328,387.0800781,531.5820313,383,535.7773438z M414,506.7773438
		c-5.5732422,5.3320313-11.0527344,9.6035156-16,13c6.5869141-6.3515625,13.2646484-13.015625,20-20
		c5.1894531-5.3818359,10.1875-10.7207031,15-16C428.5986328,490.5859375,422.4443359,498.6992188,414,506.7773438z
		 M455.0556641,429.0263672c-3.1269531,0.5878906-7.7509766,1.2294922-14.2246094,1.7226563
		c-1.703125,5.4726563-4.2353516,12.0009766-7.078125,18.25c-0.1269531,0.4736328-0.2685547,0.9736328-0.4248047,1.4931641
		c-0.0898438,5.8710938,0.1728516,10.9277344,0.7685547,14.6552734c0.7509766,4.6933594,1.8916016,6.3154297,2.4472656,6.5332031
		c0.9755859,0.3837891,1.8632813,0.3339844,2.7919922-0.1542969c1.6220703-0.8535156,4.1455078-3.4658203,6.9550781-11.0566406
		c2.0761719-5.6103516,3.5449219-11.9541016,4.171875-14.6630859c0.2304688-0.9980469,1.2265625-1.6191406,2.2246094-1.3886719
		c0.9970703,0.2314453,1.6191406,1.2275391,1.3876953,2.2246094c-0.6425781,2.7783203-2.1484375,9.2822266-4.3066406,15.1132813
		c-2.6191406,7.078125-5.4667969,11.3476563-8.7050781,13.0527344c-1.0537109,0.5537109-2.15625,0.8320313-3.2705078,0.8320313
		c-0.2568359,0-0.515625-0.0166016-0.7734375-0.046875c-0.1015625,0.0175781-0.2050781,0.0283203-0.3105469,0.0283203
		l-0.0556641-0.0009766c-1.8037109-0.0537109-3.4169922-0.9013672-4.6640625-2.4521484
		c-1.7373047-2.1601563-2.8583984-5.7529297-3.4248047-10.9169922c-0.0917969,0.1757813-0.1816406,0.3535156-0.2744141,0.5292969
		c-2.7050781,5.0976563-7.0478516,11.4277344-12.3740234,12.6455078c-0.6533203,0.1494141-1.2441406,0.2138672-1.7763672,0.2138672
		c-0.3671875,0-0.7080078-0.03125-1.0214844-0.0869141c-2.265625-0.0527344-3.640625-1.09375-4.4082031-1.9902344
		c-3.4257813-4.0029297-1.6630859-13.046875-0.2460938-20.3154297c0.2617188-1.3466797,0.5576172-2.859375,0.7617188-4.1308594
		c-0.1298828,0.1142578-0.2705078,0.2060547-0.421875,0.2773438l-0.0009766,0.0009766
		c-1.1259766,0.9345703-2.5039063,1.6943359-4.2636719,2.0634766c-0.7451172,0.1572266-1.6865234,0.1806641-2.7421875-0.1845703
		c-0.4101563,1.3222656-0.8847656,2.5595703-1.4248047,3.6708984l-0.0830078,0.1337891
		c-0.9462891,2.7382813-2.125,5.5908203-3.4404297,8.2207031c-1.5175781,3.0341797-3.1269531,5.6035156-4.6542969,7.4316406
		c-2.0166016,2.4140625-3.9160156,3.6230469-5.8056641,3.6962891c-0.3525391,0.0126953-0.6953125-0.0009766-1.0283203-0.0410156
		c-1.8583984-0.1523438-3.4736328-0.9921875-4.6884766-2.4423828c-1.3369141-1.5966797-2.2216797-3.9365234-2.6679688-7.078125
		c-2.5625,5.9404297-5.5800781,9.4423828-9.0068359,10.4609375c-0.0859375,0.0292969-0.1728516,0.0537109-0.2636719,0.0712891
		c-0.6181641,0.1591797-1.2490234,0.2421875-1.8925781,0.2421875c-0.3320313,0-0.6679688-0.0214844-1.0068359-0.0634766
		c-2.2890625-0.2880859-4.2304688-1.4658203-5.6152344-3.40625c-0.6787109-0.9521484-1.1923828-2.0478516-1.5800781-3.2197266
		c-3.1884766,3.9287109-6.8056641,6.2441406-10.4033203,6.5996094c-0.3876953,0.0380859-0.7626953,0.0625-1.1289063,0.0761719
		l-0.1933594,0.0126953l-0.1269531,0.0009766l-0.1074219-0.0029297l-0.2148438,0.0029297
		c-5.4472656,0-8.3115234-2.7109375-9.7802734-5.1171875c-0.6611328-1.0820313-1.1611328-2.3476563-1.5234375-3.7363281
		c-2.0727539,3.453125-4.3447266,6.1162109-6.6171875,7.5605469c-1.3544922,0.8603516-2.6816406,1.2929688-3.9619141,1.2929688
		c-0.3642578,0-0.7236328-0.0361328-1.0791016-0.1064453c-1.5029297-0.0019531-2.8046875-0.5488281-3.7822266-1.5917969
		c-3.1425781-3.3554688-2.2880859-11.0478516-1.3837891-19.1923828c0.3291016-2.9609375,0.6396484-5.7587891,0.6894531-8.0058594
		c0.0546875-2.4072266-0.2216797-3.2958984-0.3642578-3.5908203l-0.0917969,0.0048828
		c-1.4179688,0.7539063-3.1923828,3.1621094-4.9863281,6.8447266c-2.4492188,5.0283203-4.5556641,11.4228516-6.2480469,16.5605469
		c-0.7392578,2.2441406-1.3779297,4.1826172-1.9121094,5.5898438c-0.6240234,1.6445313-1.2695313,3.3447266-2.8876953,3.3876953
		c-0.6689453,0.0224609-1.5273438-0.3232422-1.9560547-1.3183594l-0.0292969-0.0673828l-0.0097656-0.0214844l-0.0351563-0.1015625
		l-0.0146484-0.0488281c-0.3378906-1.1259766-0.5390625-4.5322266-0.5986328-10.140625
		c-0.0380859-3.5976563-0.0292969-10.9335938,0.453125-19.6386719c0.4609375-8.2978516,1.2158203-15.4521484,2.2451172-21.2617188
		c1.3076172-7.3847656,2.9941406-12.3027344,5.1542969-15.0351563c1.9794922-2.5039063,4.0957031-2.7939453,5.5244141-2.5947266
		c1.6669922,0.2314453,3.8867188,1.1611328,4.9931641,4.2802734c2.03125,5.7265625-0.859375,16.1777344-3.6425781,23.9355469
		c-3.0214844,8.4228516-7.1464844,16.9033203-9.390625,19.3085938l-0.0419922,0.0390625
		c-0.2763672,3.7724609-0.4892578,7.2998047-0.6494141,10.3349609c1.5478516-4.6552734,3.5126953-10.3154297,5.7119141-14.8310547
		c1.4667969-3.0117188,2.875-5.2060547,4.3056641-6.7089844c2.4716797-2.5976563,4.7109375-2.6943359,6.1542969-2.3173828
		c3.7373047,0.9755859,3.9130859,5.8447266,3.9707031,7.4443359c0.1142578,3.1904297-0.3535156,7.2167969-0.8066406,11.1113281
		c-0.4257813,3.6640625-0.8662109,7.453125-0.7744141,10.2548828c0.0810547,2.4580078,0.5605469,3.5117188,0.9697266,3.6923828
		l0.1914063,0.0478516c0.6396484,0.1054688,1.4101563-0.125,2.2939453-0.6865234
		c2.1855469-1.3886719,4.6865234-4.6347656,6.8623047-8.9072266c0.3979492-0.78125,0.7758789-1.59375,1.1445313-2.4189453
		c0.0488281-0.9091797,0.1259766-1.8339844,0.2636719-2.7880859c0.6757813-4.6796875,2.4033203-9.5263672,4.6210938-12.9628906
		c2.9970703-4.6464844,5.8505859-5.3457031,7.7158203-5.1152344c1.9287109,0.2392578,3.5009766,1.6142578,4.1025391,3.5878906
		c0.9658203,3.1679688-0.1191406,8.8417969-10.2285156,18.1630859c-0.0830078,1.7060547-0.0175781,3.3261719,0.2109375,4.7568359
		c0.6708984,4.2070313,2.5087891,6.3574219,5.4638672,6.3964844c0.3740234-0.0078125,0.7607422-0.0302734,1.1611328-0.0703125
		c3.4316406-0.3388672,6.9501953-3.3740234,9.8574219-7.9941406c-0.1484375-2.6054688,0.1015625-5.2167969,0.5478516-7.3466797
		c0.9355469-4.4638672,2.7255859-8.5576172,5.1777344-11.8378906c2.3261719-3.1113281,5.0722656-5.2314453,7.7333984-5.9707031
		c2.2148438-0.6152344,4.25-0.2509766,5.8261719,1.0214844c0.3320313,0.1269531,0.6230469,0.2744141,0.8671875,0.4199219
		c0.8789063,0.5253906,1.1660156,1.6630859,0.6416016,2.5429688c-0.4677734,0.7841797-1.4228516,1.0957031-2.2490234,0.7822266
		c-0.3798828-0.0117188-0.7548828-0.140625-1.0703125-0.3818359c-0.8066406-0.0556641-1.7744141,0.4082031-2.890625,1.3876953
		c-2.5458984,2.2363281-5.1621094,6.6416016-6.9287109,11.5996094c-0.1464844,0.4384766-0.2871094,0.8808594-0.4433594,1.3125
		c-1.6337891,5.1191406-1.9677734,9.6552734-0.8613281,12.2099609c0.4726563,1.0917969,1.3417969,2.3085938,3.8681641,2.1474609
		c3.2607422-0.9902344,5.8076172-5.9863281,7.4541016-10.3408203c0.9833984-2.6005859,1.8310547-5.4521484,2.5556641-8.3173828
		c0.296875-3.4726563,0.7597656-6.71875,1.1035156-9.1298828c0.1142578-0.8027344,0.2128906-1.4951172,0.2851563-2.0566406
		c0.2705078-2.0947266,1.2519531-2.9482422,1.9902344-3.2978516c0.4072266-0.3339844,0.9355469-0.5166016,1.5009766-0.4785156
		c1.09375,0.0742188,1.9335938,0.9580078,1.953125,2.0566406c0.0351563,2.0244141-0.328125,5.0595703-0.75,8.5732422
		c-0.4980469,4.1552734-1.0625,8.8642578-1.0957031,12.9677734c-0.0429688,5.3857422,0.8740234,7.5195313,1.6503906,8.3613281
		c0.3134766,0.3398438,0.671875,0.5341797,1.1210938,0.6035156l0.125,0.0078125l0.2109375,0.0205078l0.1943359-0.0009766
		c1.0390625-0.0390625,3.7431641-1.9970703,7.2861328-9.0800781c2.1083984-4.2148438,3.9091797-9.1611328,4.7685547-12.9521484
		l-0.0458984-0.0517578c-2.0527344-2.4365234-3.8330078-6.3203125-4.8818359-10.6572266
		c-1.0751953-4.4443359-1.1308594-8.4082031-0.1513672-10.8759766c0.7373047-1.8603516,2.0966797-2.9951172,3.8242188-3.1953125
		c0.9228516-0.1083984,2.6855469,0.0185547,4.1376953,2.0654297c2.7607422,3.8886719,3.2041016,13.5556641,1.5380859,21.6708984
		c0.3476563,0.171875,0.7070313,0.2587891,1.0537109,0.1845703c1.4833984-0.3125,2.5625-1.0800781,3.4765625-2.0693359
		c0.7158203-0.7724609,1.3320313-1.6796875,1.9619141-2.6103516c1.34375-1.9804688,2.7324219-4.0302734,5.21875-4.3994141
		c0.8515625-0.1279297,1.6572266,0.1533203,2.2119141,0.7685547c1.4736328,1.6328125,0.7197266,4.859375-1.2802734,12.6503906
		c-1.0224609,3.984375-2.1826172,8.5009766-2.7099609,12.3037109c-0.7246094,5.2333984,0.109375,6.7333984,0.5009766,7.1357422
		c0.0546875,0.0556641,0.1572266,0.1621094,0.3681641,0.2373047h0.0009766
		c0.2060547-0.0029297,0.4033203,0.0283203,0.5888672,0.0898438c0.2529297,0.0029297,0.5732422-0.0322266,0.9765625-0.1230469
		c4.9130859-1.1240234,10.0039063-9.7919922,13.0498047-17.5712891c-0.0253906-3.2265625,0.0820313-6.8027344,0.3300781-10.71875
		c0.2851563-4.4853516,0.7177734-8.875,1.1513672-12.6142578c-8.7167969-0.1816406-17.0664063-1.0039063-22.1650391-2.203125
		c-8.0507813-1.8945313-7.9755859-6.2753906-7.7607422-7.5732422c0.4677734-2.8242188,3.3515625-5.3222656,7.9130859-6.8535156
		c3.3417969-1.1220703,9.1933594-2.2773438,18.0927734-1.4121094c1.0195313,0.0986328,1.765625,1.0058594,1.6660156,2.0244141
		c-0.0986328,1.0195313-1.0048828,1.7646484-2.0244141,1.6669922c-14.5166016-1.4111328-21.5859375,2.7470703-21.9882813,5.1796875
		c-0.2089844,1.2626953,1.7802734,2.6113281,4.9511719,3.3574219c5.1757813,1.2177734,13.4990234,1.9658203,21.7695313,2.109375
		c0.4873047-3.7744141,0.9023438-6.3779297,1.0019531-6.9023438c0.7734375-4.1025391,1.9560547-6.875,3.6142578-8.4755859
		c1.2490234-1.2070313,2.75-1.7167969,4.3408203-1.4736328c1.5263672,0.2333984,2.7314453,1.0947266,3.484375,2.4921875
		c0.7089844,1.3164063,1.0107422,3.1435547,0.9072266,5.5078125c0.0283203,1.0839844-0.0859375,2.2626953-0.3798828,3.5175781
		l-0.015625,0.0537109c-0.2529297,1.5205078-0.6210938,3.1972656-1.1054688,5.0341797
		c4.953125-0.4707031,9.1230469-1.0048828,11.7958984-1.4599609c1.0546875-0.1787109,1.9980469,0.0019531,2.3525391,0.9628906
		C456.4248047,427.421875,456.0615234,428.8378906,455.0556641,429.0263672z M456,457.7773438
		c7.1054688-7.6679688,14.6005859-16.6357422,22-27c4.9287109-6.9042969,9.2363281-13.6171875,13-20
		c-2.3027344,6.6259766-6.2216797,15.6025391-13,25C470.375,446.3496094,462.0478516,453.4121094,456,457.7773438z"/>
	<path class="st1" d="M456.0712891,426.4609375c-0.3544922-0.9609375-1.2978516-1.1416016-2.3525391-0.9628906
		c-2.6728516,0.4550781-6.8427734,0.9892578-11.7958984,1.4599609c0.484375-1.8369141,0.8525391-3.5136719,1.1054688-5.0341797
		l0.015625-0.0537109c0.2939453-1.2548828,0.4082031-2.4335938,0.3798828-3.5175781
		c0.1035156-2.3642578-0.1982422-4.1914063-0.9072266-5.5078125c-0.7529297-1.3974609-1.9580078-2.2587891-3.484375-2.4921875
		c-1.5908203-0.2431641-3.0917969,0.2666016-4.3408203,1.4736328c-1.6582031,1.6005859-2.8408203,4.3730469-3.6142578,8.4755859
		c-0.0996094,0.5244141-0.5146484,3.1279297-1.0019531,6.9023438c-8.2705078-0.1435547-16.59375-0.8916016-21.7695313-2.109375
		c-3.1708984-0.7460938-5.1601563-2.0947266-4.9511719-3.3574219c0.4023438-2.4326172,7.4716797-6.5908203,21.9882813-5.1796875
		c1.0195313,0.0976563,1.9257813-0.6474609,2.0244141-1.6669922c0.0996094-1.0185547-0.6464844-1.9257813-1.6660156-2.0244141
		c-8.8994141-0.8652344-14.7509766,0.2900391-18.0927734,1.4121094c-4.5615234,1.53125-7.4453125,4.0292969-7.9130859,6.8535156
		c-0.2148438,1.2978516-0.2900391,5.6787109,7.7607422,7.5732422c5.0986328,1.1992188,13.4482422,2.0214844,22.1650391,2.203125
		c-0.4335938,3.7392578-0.8662109,8.1289063-1.1513672,12.6142578c-0.2480469,3.9160156-0.3554688,7.4921875-0.3300781,10.71875
		c-3.0458984,7.7792969-8.1367188,16.4472656-13.0498047,17.5712891c-0.4033203,0.0908203-0.7236328,0.1259766-0.9765625,0.1230469
		c-0.1855469-0.0615234-0.3828125-0.0927734-0.5888672-0.0898438h-0.0009766
		c-0.2109375-0.0751953-0.3134766-0.1816406-0.3681641-0.2373047c-0.3916016-0.4023438-1.2255859-1.9023438-0.5009766-7.1357422
		c0.5273438-3.8027344,1.6875-8.3193359,2.7099609-12.3037109c2-7.7910156,2.7539063-11.0175781,1.2802734-12.6503906
		c-0.5546875-0.6152344-1.3603516-0.8964844-2.2119141-0.7685547c-2.4863281,0.3691406-3.875,2.4189453-5.21875,4.3994141
		c-0.6298828,0.9306641-1.2460938,1.8378906-1.9619141,2.6103516c-0.9140625,0.9892578-1.9931641,1.7568359-3.4765625,2.0693359
		c-0.3466797,0.0742188-0.7060547-0.0126953-1.0537109-0.1845703c1.6660156-8.1152344,1.2226563-17.7822266-1.5380859-21.6708984
		c-1.4521484-2.046875-3.2148438-2.1738281-4.1376953-2.0654297c-1.7275391,0.2001953-3.0869141,1.3349609-3.8242188,3.1953125
		c-0.9794922,2.4677734-0.9238281,6.4316406,0.1513672,10.8759766c1.0488281,4.3369141,2.8291016,8.2207031,4.8818359,10.6572266
		l0.0458984,0.0517578c-0.859375,3.7910156-2.6601563,8.7373047-4.7685547,12.9521484
		c-3.5429688,7.0830078-6.2470703,9.0410156-7.2861328,9.0800781l-0.1943359,0.0009766l-0.2109375-0.0205078l-0.125-0.0078125
		c-0.4492188-0.0693359-0.8076172-0.2636719-1.1210938-0.6035156c-0.7763672-0.8417969-1.6933594-2.9755859-1.6503906-8.3613281
		c0.0332031-4.1035156,0.5976563-8.8125,1.0957031-12.9677734c0.421875-3.5136719,0.7851563-6.5488281,0.75-8.5732422
		c-0.0195313-1.0986328-0.859375-1.9824219-1.953125-2.0566406c-0.5654297-0.0380859-1.09375,0.1445313-1.5009766,0.4785156
		c-0.7382813,0.3496094-1.7197266,1.203125-1.9902344,3.2978516c-0.0722656,0.5615234-0.1708984,1.2539063-0.2851563,2.0566406
		c-0.34375,2.4111328-0.8066406,5.6572266-1.1035156,9.1298828c-0.7246094,2.8652344-1.5722656,5.7167969-2.5556641,8.3173828
		c-1.6464844,4.3544922-4.1933594,9.3505859-7.4541016,10.3408203c-2.5263672,0.1611328-3.3955078-1.0556641-3.8681641-2.1474609
		c-1.1064453-2.5546875-0.7724609-7.0908203,0.8613281-12.2099609c0.15625-0.4316406,0.296875-0.8740234,0.4433594-1.3125
		c1.7666016-4.9580078,4.3828125-9.3632813,6.9287109-11.5996094c1.1162109-0.9794922,2.0839844-1.4433594,2.890625-1.3876953
		c0.3154297,0.2412109,0.6904297,0.3701172,1.0703125,0.3818359c0.8261719,0.3134766,1.78125,0.0019531,2.2490234-0.7822266
		c0.5244141-0.8798828,0.2373047-2.0175781-0.6416016-2.5429688c-0.2441406-0.1455078-0.5351563-0.2929688-0.8671875-0.4199219
		c-1.5761719-1.2724609-3.6113281-1.6367188-5.8261719-1.0214844c-2.6611328,0.7392578-5.4072266,2.859375-7.7333984,5.9707031
		c-2.4521484,3.2802734-4.2421875,7.3740234-5.1777344,11.8378906c-0.4462891,2.1298828-0.6962891,4.7412109-0.5478516,7.3466797
		c-2.9072266,4.6201172-6.4257813,7.6552734-9.8574219,7.9941406c-0.4003906,0.0400391-0.7871094,0.0625-1.1611328,0.0703125
		c-2.9550781-0.0390625-4.7929688-2.1894531-5.4638672-6.3964844c-0.2285156-1.4306641-0.2939453-3.0507813-0.2109375-4.7568359
		c10.109375-9.3212891,11.1943359-14.9951172,10.2285156-18.1630859c-0.6015625-1.9736328-2.1738281-3.3486328-4.1025391-3.5878906
		c-1.8652344-0.2304688-4.71875,0.46875-7.7158203,5.1152344c-2.2177734,3.4365234-3.9453125,8.2832031-4.6210938,12.9628906
		c-0.1376953,0.9541016-0.2148438,1.8789063-0.2636719,2.7880859c-0.3686523,0.8251953-0.746582,1.6376953-1.1445313,2.4189453
		c-2.1757813,4.2724609-4.6767578,7.5185547-6.8623047,8.9072266c-0.8837891,0.5615234-1.6542969,0.7919922-2.2939453,0.6865234
		l-0.1914063-0.0478516c-0.4091797-0.1806641-0.8886719-1.234375-0.9697266-3.6923828
		c-0.0917969-2.8017578,0.3486328-6.5908203,0.7744141-10.2548828c0.453125-3.8945313,0.9208984-7.9208984,0.8066406-11.1113281
		c-0.0576172-1.5996094-0.2333984-6.46875-3.9707031-7.4443359c-1.4433594-0.3769531-3.6826172-0.2802734-6.1542969,2.3173828
		c-1.4306641,1.5029297-2.8388672,3.6972656-4.3056641,6.7089844c-2.1992188,4.515625-4.1640625,10.1757813-5.7119141,14.8310547
		c0.1601563-3.0351563,0.3730469-6.5625,0.6494141-10.3349609l0.0419922-0.0390625
		c2.2441406-2.4052734,6.3691406-10.8857422,9.390625-19.3085938c2.7832031-7.7578125,5.6738281-18.2089844,3.6425781-23.9355469
		c-1.1064453-3.1191406-3.3261719-4.0488281-4.9931641-4.2802734c-1.4287109-0.1992188-3.5449219,0.0908203-5.5244141,2.5947266
		c-2.1601563,2.7324219-3.8466797,7.6503906-5.1542969,15.0351563c-1.0292969,5.8095703-1.7841797,12.9638672-2.2451172,21.2617188
		c-0.4824219,8.7050781-0.4912109,16.0410156-0.453125,19.6386719c0.0595703,5.6083984,0.2607422,9.0146484,0.5986328,10.140625
		l0.0146484,0.0488281l0.0351563,0.1015625l0.0097656,0.0214844l0.0292969,0.0673828
		c0.4287109,0.9951172,1.2871094,1.3408203,1.9560547,1.3183594c1.6181641-0.0429688,2.2636719-1.7431641,2.8876953-3.3876953
		c0.5341797-1.4072266,1.1728516-3.3457031,1.9121094-5.5898438c1.6923828-5.1376953,3.7988281-11.5322266,6.2480469-16.5605469
		c1.7939453-3.6826172,3.5683594-6.0908203,4.9863281-6.8447266l0.0917969-0.0048828
		c0.1425781,0.2949219,0.4189453,1.1835938,0.3642578,3.5908203c-0.0498047,2.2470703-0.3603516,5.0449219-0.6894531,8.0058594
		c-0.9042969,8.1445313-1.7587891,15.8369141,1.3837891,19.1923828c0.9775391,1.0429688,2.2792969,1.5898438,3.7822266,1.5917969
		c0.3554688,0.0703125,0.7148438,0.1064453,1.0791016,0.1064453c1.2802734,0,2.6074219-0.4326172,3.9619141-1.2929688
		c2.2724609-1.4443359,4.5444336-4.1074219,6.6171875-7.5605469c0.3623047,1.3886719,0.8623047,2.6542969,1.5234375,3.7363281
		c1.46875,2.40625,4.3330078,5.1171875,9.7802734,5.1171875l0.2148438-0.0029297l0.1074219,0.0029297l0.1269531-0.0009766
		l0.1933594-0.0126953c0.3662109-0.0136719,0.7412109-0.0380859,1.1289063-0.0761719
		c3.5976563-0.3554688,7.2148438-2.6708984,10.4033203-6.5996094c0.3876953,1.171875,0.9013672,2.2675781,1.5800781,3.2197266
		c1.3847656,1.9404297,3.3261719,3.1181641,5.6152344,3.40625c0.3388672,0.0419922,0.6748047,0.0634766,1.0068359,0.0634766
		c0.6435547,0,1.2744141-0.0830078,1.8925781-0.2421875c0.0908203-0.0175781,0.1777344-0.0419922,0.2636719-0.0712891
		c3.4267578-1.0185547,6.4443359-4.5205078,9.0068359-10.4609375c0.4462891,3.1416016,1.3310547,5.4814453,2.6679688,7.078125
		c1.2148438,1.4501953,2.8300781,2.2900391,4.6884766,2.4423828c0.3330078,0.0400391,0.6757813,0.0537109,1.0283203,0.0410156
		c1.8896484-0.0732422,3.7890625-1.2822266,5.8056641-3.6962891c1.5273438-1.828125,3.1367188-4.3974609,4.6542969-7.4316406
		c1.3154297-2.6298828,2.4941406-5.4824219,3.4404297-8.2207031l0.0830078-0.1337891
		c0.5400391-1.1113281,1.0146484-2.3486328,1.4248047-3.6708984c1.0556641,0.3652344,1.9970703,0.3417969,2.7421875,0.1845703
		c1.7597656-0.3691406,3.1376953-1.1289063,4.2636719-2.0634766l0.0009766-0.0009766
		c0.1513672-0.0712891,0.2919922-0.1630859,0.421875-0.2773438c-0.2041016,1.2714844-0.5,2.7841797-0.7617188,4.1308594
		c-1.4169922,7.2685547-3.1796875,16.3125,0.2460938,20.3154297c0.7675781,0.8964844,2.1425781,1.9375,4.4082031,1.9902344
		c0.3134766,0.0556641,0.6542969,0.0869141,1.0214844,0.0869141c0.5322266,0,1.1230469-0.0644531,1.7763672-0.2138672
		c5.3261719-1.2177734,9.6689453-7.5478516,12.3740234-12.6455078c0.0927734-0.1757813,0.1826172-0.3535156,0.2744141-0.5292969
		c0.5664063,5.1640625,1.6875,8.7568359,3.4248047,10.9169922c1.2470703,1.5507813,2.8603516,2.3984375,4.6640625,2.4521484
		l0.0556641,0.0009766c0.1054688,0,0.2089844-0.0107422,0.3105469-0.0283203
		c0.2578125,0.0302734,0.5166016,0.046875,0.7734375,0.046875c1.1142578,0,2.2167969-0.2783203,3.2705078-0.8320313
		c3.2382813-1.7050781,6.0859375-5.9746094,8.7050781-13.0527344c2.1582031-5.8310547,3.6640625-12.3349609,4.3066406-15.1132813
		c0.2314453-0.9970703-0.390625-1.9931641-1.3876953-2.2246094c-0.9980469-0.2304688-1.9941406,0.390625-2.2246094,1.3886719
		c-0.6269531,2.7089844-2.0957031,9.0527344-4.171875,14.6630859c-2.8095703,7.5908203-5.3330078,10.203125-6.9550781,11.0566406
		c-0.9287109,0.4882813-1.8164063,0.5380859-2.7919922,0.1542969c-0.5556641-0.2177734-1.6962891-1.8398438-2.4472656-6.5332031
		c-0.5957031-3.7275391-0.8583984-8.7841797-0.7685547-14.6552734c0.15625-0.5195313,0.2978516-1.0195313,0.4248047-1.4931641
		c2.8427734-6.2490234,5.375-12.7773438,7.078125-18.25c6.4736328-0.4931641,11.0976563-1.1347656,14.2246094-1.7226563
		C456.0615234,428.8378906,456.4248047,427.421875,456.0712891,426.4609375z M305.984375,443.4541016
		c0.8291016-8.5595703,1.8339844-15.6875,2.9873047-21.1855469c1.7949219-8.5595703,3.5683594-11.2431641,4.4648438-12.0810547
		c0.2890625-0.2705078,0.5380859-0.4013672,0.734375-0.3867188l0.0585938,0.0009766
		c0.1972656,0.2548828,0.3798828,0.5888672,0.5371094,1.0302734c1.2802734,3.6113281-0.0449219,11.4277344-3.6386719,21.4443359
		c-1.6542969,4.6113281-3.5830078,9.0449219-5.2607422,12.4052734
		C305.9052734,444.2724609,305.9443359,443.8632813,305.984375,443.4541016z M347.7001953,443.6494141l0.015625,0.0458984
		c0.2099609,0.6855469,0.3154297,2.2685547-1.3271484,5.1591797c-1.0205078,1.7939453-2.5244141,3.7539063-4.4902344,5.8564453
		c0.2490234-1.0634766,0.5458984-2.1171875,0.890625-3.1386719
		C344.109375,447.65625,345.9775391,444.6728516,347.7001953,443.6494141z M396.9785156,437.1083984
		c-0.8730469-3.6074219-0.9912109-6.9179688-0.3095703-8.6376953c0.3261719-0.8242188,0.6621094-0.8632813,0.8046875-0.8789063
		l0.0322266-0.0029297c0.1845703,0,0.4033203,0.1787109,0.6533203,0.5302734
		c1.2441406,1.7548828,1.953125,6.1162109,1.8046875,11.1113281c-0.0488281,1.6142578-0.1806641,3.21875-0.3867188,4.7666016
		C398.5195313,442.0947266,397.5996094,439.6777344,396.9785156,437.1083984z M433.8662109,439.2578125
		c0.2236328-2.8378906,0.5068359-5.6435547,0.8378906-8.3193359c0.7412109-0.0078125,1.4707031-0.0195313,2.1865234-0.0371094
		C436.0410156,433.5185547,435.0146484,436.3515625,433.8662109,439.2578125z M438.0292969,427.1474609
		c-0.9267578,0.03125-1.8681641,0.0537109-2.8193359,0.0664063c0.5898438-3.9785156,1.2861328-7.5205078,2.0419922-10.2421875
		c0.4277344-1.5390625,0.9882813-1.9130859,1.0810547-1.9228516c0.0273438,0,0.2246094,0.0615234,0.4833984,0.3779297
		c0.4482422,0.5478516,0.8466797,1.5693359,0.8955078,2.9775391
		C439.6025391,420.3291016,439.1542969,423.1210938,438.0292969,427.1474609z"/>
	<path class="st1" d="M260.5048828,349.5483398c1.2871094-4.21875,2.8603516-8.2246094,4.5039063-11.4414063
		C253.0664063,342.6831055,246.8417969,371.9296875,260.5048828,349.5483398z"/>
	<path class="st1" d="M323.8896484,337.7495117c-3.359375-0.3583984-6.8642578,3.2890625-9.1523438,6.7929688
		c-1.5722656,2.4326172-1.8574219,3.6474609-2.7880859,6.1503906
		C320.1738281,348.9760742,327.4697266,338.1069336,323.8896484,337.7495117z"/>
	<path class="st1" d="M377.0019531,339.105957c-2.6474609,1.5751953-4.5791016,4.2207031-5.4345703,7.0078125
		C383.1513672,345.3266602,385.2246094,334.1713867,377.0019531,339.105957z"/>
	<path class="st1" d="M568.7294922,330.5239258c-6.1503906-8.4365234-21.3134766-7.5791016-28.1777344,1.359375
		l-1.5009766-2.0732422c-4.7207031-6.4355469-19.0224609-7.0078125-25.3867188-0.2841797
		c-1.7392578,1.8359375-3.5947266,4.7573242-5.3183594,8.3017578c-1.6054688-2.2036133-3.2216797-4.3979492-4.8212891-6.5859375
		c-7.1513672-9.7265625-23.8125-7.7958984-31.9658203-2.5029297c-6.0771484-5.5791016-16.6630859-5.0048828-24.3857422-2.359375
		c-6.4365234-3.0048828-16.0908203-1.9316406-20.8808594,3.1464844c-5.3378906,5.5874023-9.71875,17.6293945-11.1123047,27.8647461
		c-0.2080078-0.3876953-0.4472656-0.7646484-0.7421875-1.1210938l-6.7939453-9.152832
		c-3.0019531-4.1474609-1.7158203-2.1445313-3.8603516-3.9335938l-6.1503906-8.4375
		c-5.2197266-7.0800781-11.15625-10.0136719-20.6660156-10.2285156c-11.859375-0.277832-21.0839844,5.0649414-26.921875,12.6357422
		l-0.1884766-0.2607422c-5.1484375-7.0087891-7.2226563-11.6572266-17.4492188-12.3017578
		c0.3266602-2.9672852,0.5942383-5.8969727,0.597168-8.7431641c0.0053711-5.2490234-0.902832-10.2104492-4.1020508-14.5703125
		l-7.8671875-10.5830078c-7.5078125-10.2978516-24.7402344-7.6533203-22.3818359,2.5732422l0.0375977,0.2104492l-7.184082-9.7924805
		c-11.5146484-15.6611328-32.8984375-9.3662109-27.8203125,2.0751953c3.5048828,8.0800781-7.5078125,7.1513672-12.2978516,6.2919922
		l-9.65625-13.7324219c-7.6503906-10.4414063-24.8876953-7.5810547-22.4550781,2.5019531
		c-11.2265625-4.71875-24.3847656-9.7958984-35.6845703-9.2246094c-6.4619141,0.3022461-12.996582,1.637207-18.8168945,4.3354492
		c-5.1933594,2.4077148-9.8198242,5.8974609-13.2944336,10.753418c-5.5078125,7.7226563-7.0087891,17.8789063-2.8603516,26.6035156
		c1.6445313,3.4326172,7.7255859,11.2998047,10.3681641,14.8740234
		c15.0888672,20.5234375,49.9169922,5.8623047,41.3349609-5.8642578l-5.078125-6.8632813l0.0117188-0.0297852
		c2.5883789-7.902832,11.2236328-6.9057617,17.7226563-5.3334961c-0.6069336,1.6821289-1.2802734,3.4858398-1.9990234,5.3837891
		c-6.7392578,17.7832031-17.609375,44.012207-17.7392578,59.9057617
		c-0.0703125,11.7275391,2.7900391,19.5234375,9.1523438,28.1044922
		c7.1533203,9.7246094,12.2285156,18.9511719,26.6035156,18.9511719c6.1899414,0,11.7397461-1.9892578,16.1899414-5.0234375
		c6.972168-4.7548828,11.2265625-12.0791016,10.9609375-18.3945313c-0.0898438-2.1386719-0.7026367-4.1572266-1.9003906-5.9228516
		c3.2333984-1.1181641,6.4335938-3.2333984,9.3774414-6.2714844c3.3623047,4.6484375,6.9375,7.1513672,13.2304688,7.1513672
		c5.6489258,0,11.609375-4.0625,16.9189453-9.4541016c0.2802734,0.3740234,0.5512695,0.7392578,0.8017578,1.0859375
		c7.7226563,10.4414063,26.3886719,11.5146484,28.1035156,1.359375c5.0791016,5.9375,11.9423828,8.8691406,19.453125,5.6494141
		c4.0981445-1.7207031,8.5380859-5.5068359,12.6201172-9.9765625c5.7841797,7.7695313,12.0019531,11.3330078,22.4257813,11.4042969
		c17.5,0.2138672,29.9736328-14.7851563,37.5654297-28.8808594c0.0654297,1.5195313,0.2382813,2.9179688,0.5341797,4.1425781
		c1.2167969,4.9335938,7.5078125,12.2294922,10.7275391,16.6630859c7.7216797,10.5820313,29.03125,11.2998047,28.1748047-1.2167969
		l0.4990234,0.7138672c7.5810547,10.2285156,26.1738281,11.6591797,28.6767578,2.2177734
		c3.1464844,4.2890625,6.7939453,6.2919922,12.4433594,6.2919922c5.2949219,0,10.5009766-3.2470703,15.2021484-7.7460938
		c2.6201172,3.5693359,5.6220703,6.8505859,9.8125,7.8173828c-0.4306641,0.7158203-0.9296875,1.2880859-1.359375,1.359375
		c-4.7470703-6.7949219-12.1669922-3.4746094-15.9882813,3.6123047c-1.4697266,2.7255859-2.4121094,6.0029297-2.4570313,9.484375
		c-0.0292969,2.328125,0.3378906,4.7441406,1.2119141,7.140625c1.5039063,4.2910156,6.7236328,10.5859375,9.6552734,14.5898438
		c5.2216797,7.0087891,11.0136719,10.3691406,20.9541016,9.7255859
		c29.5351563-1.9306641,31.9667969-45.6953125,35.7558594-67.5087891
		c0.7138672-4.0761719,4.2177734-20.1665039,6.6503906-22.8120117c2.7900391-2.7167969,3.2197266-6.2919922,0.7871094-9.1533203
		L568.7294922,330.5239258z M291.2089844,330.2294922c-1.3803711-1.777832-2.9980469-3.0209961-4.7163086-3.8657227
		c1.5581055-0.4194336,3.0668945-0.9541016,4.5053711-1.6347656c0.909668-0.425293,1.7602539-0.8955078,2.5620117-1.3989258
		C292.7978516,325.6137695,292.0048828,327.9194336,291.2089844,330.2294922z M249.6650391,322.371582
		c2.5161133,0.8012695,5.1811523,1.59375,7.9257813,2.3120117c-3.0991211,0.2988281-6.1679688,1.0668945-9.0898438,2.2099609
		C248.9501953,325.2236328,249.3466797,323.6962891,249.6650391,322.371582z M220.8603516,406.8291016
		c-15.3769531,0-23.171875-14.5888672-23.0292969-31.3935547c0-6.6494141,2.8623047-17.4462891,6.2216797-28.1040039
		c3.5048828-12.0839844,12.5166016-31.8212891,17.1640625-47.9121094
		c-8.1523438-2.8613281-15.6630859-5.2910156-21.5253906-6.0068359
		c-16.8769531-2.0751953-22.4560547,17.3056641-11.4443359,19.9521484c1.7890625,0.4296875,0.7167969,2.5732422,0.7167969,2.5732422
		c-3.859375,4.7929688-10.796875,7.2226563-17.6611328,6.9384766c-29.109375-1.2167969-29.3203125-44.9121094,12.7275391-46.9853516
		c11.7275391-0.5722656,25.8876953,5.578125,39.8320313,11.3701172c0.2841797-2.8603516,0.2841797-5.3632813-0.1435547-7.4365234
		c-0.7138672-2.8613281,2.4316406-3.71875,4.5048828-3.71875c5.1494141-0.0732422,8.4423828,1.9306641,10.4423828,5.0048828
		c1.7158203,2.6464844,2.1464844,7.0791016,1.6445313,12.4423828c6.5078125,2.1445313,12.7304688,3.5039063,18.3798828,3.3603516
		c9.5810547-0.2841797,11.5839844-7.2929688,9.1523438-12.8701172c-1.7890625-4.0068359,3.2158203-6.0097656,9.0810547-5.0800781
		c15.1611328,2.2910156,19.5947266,23.3134766,4.1513672,30.5341797
		c-10.8720703,5.1494141-26.890625,1.2890625-42.6230469-4.0039063
		c-4.4335938,20.5966797-14.3720703,47.2695313-14.3027344,58.9985352c0,7.4375,2.21875,13.9453125,9.0820313,17.3066406
		c2.3603516,1.1445313,4.9355469,2.2177734,8.0810547,2.0029297c1.1455078-0.0712891,1.7148438,0.5722656,2.0029297,1.5742188
		C246.0322266,395.6738281,233.6611328,406.8291016,220.8603516,406.8291016z M402.8876953,351.5483398
		c-7.4375,13.2299805-18.0908203,26.9604492-33.8964844,26.8178711c-12.4863281-0.1054688-19.2470703-6.9941406-21.125-15.6025391
		c-4.5620117,6.1787109-10.0566406,12.1699219-15.6054688,14.5292969
		c-11.8691406,5.0078125-20.0947266-10.8681641-21.953125-20.3066406c-1.2880859,7.4355469-0.2861328,13.8720703,0,17.0166016
		c0.1435547,1.7158203-1.0019531,3.1464844-2.7167969,3.71875c-2.5761719,0.7871094-7.2265625,0.859375-11.8730469-1.0712891
		c-4.5058594-1.8603516-6.7939453-5.2197266-7.7949219-9.296875c-0.2275391-0.9570313-0.3564453-1.9863281-0.4213867-3.0625
		c-5.9365234,7.7275391-12.6655273,14.0068359-18.8432617,14.0068359c-2.9326172,0-5.7226563-0.9306641-7.7958984-2.8613281
		c-2.1464844-2.1474609-3.0048828-5.7216797-3.0751953-10.0126953
		c-5.2910156,8.6523438-11.7285156,12.8701172-16.1621094,12.8701172
		c-9.6572266-0.0693359-13.3027344-8.0800781-12.6591797-17.5898438
		c1.71875-24.8852539,26.2470703-37.3295898,41.5488281-29.6791992c7.3662109-4.7207031,21.0244141-0.2138672,16.3037109,4.0771484
		c-2.9296875,2.6474609-6.6464844,22.6713867-4.6455078,22.956543c1.0854492,0.1914063,4.1660156-3.4960938,7.3076172-7.902832
		c4.9067383-18.5717773,16.7915039-42.7661133,13.53125-57.9609375c-0.7138672-2.7900391,2.3574219-3.71875,4.5058594-3.71875
		c10.2949219-0.0712891,13.2285156,7.8652344,12.9404297,16.6630859
		c-0.2128906,7.7949219-1.9287109,18.2353516-3.7890625,27.2470703c3.6494141-2.0751953,7.4384766-3.1494141,10.8710938-3.4345703
		c20.0234375-1.7880859,20.0234375,13.2304688,1.8603516,22.6699219c3.0019531,5.5776367,8.0800781,10.0141602,14.8740234,3.2197266
		c1.4248047-1.3774414,2.7421875-2.8261719,3.9648438-4.3374023c2.9824219-11.4780273,13.0927734-22.0620117,28.6894531-21.6967773
		c20.0224609,0.4296875,28.6035156,20.0957031-5.0800781,23.9580078c-0.8574219,6.5092773,17.5214844,7.7954102,25.6015625-4.21875
		C399.9560547,344.9008789,405.2460938,347.0454102,402.8876953,351.5483398z M564.2021484,335.1000977
		c-3.359375,3.0751953-7.0087891,20.0224609-7.8652344,25.1733398
		c-3.5048828,19.8085938-5.7929688,62.2871094-31.8935547,64.0029297
		c-22.0976563,1.4296875-23.3134766-23.8164063-11.4414063-28.2490234c1.2890625-0.4990234,2.3613281,0.359375,3.0751953,1.7890625
		c0.9316406,1.7880859,3.0751953,2.2880859,5.078125,1.5742188c5.9365234-1.9296875,10.2978516-21.0214844,12.0869141-31.0351563
		c-9.296875,11.8017578-25.3867188,15.6611328-27.03125-0.2851563c-0.1015625-0.9707031-0.1416016-1.9960938-0.1337891-3.0556641
		c-5.8144531,7.4238281-12.3046875,13.2792969-18.2666016,13.2792969c-17.6640625,0-10.0830078-29.1030273-5.2919922-37.5424805
		c1.4306641-2.1464844-0.5029297-5.1503906-4.7207031-0.7871094c-6.3652344,8.0800781-7.2939453,23.597168-6.4365234,34.0385742
		c0.1445313,1.7158203-0.9296875,3.1464844-2.7158203,3.71875c-2.5742188,0.7871094-7.2226563,0.859375-11.7988281-1.0712891
		c-14.1591797-5.7919922-9.7265625-24.5991211-4.3632813-34.5395508c2.7177734-5.0761719-0.3574219-5.8632813-3.9316406-2.1435547
		c-6.1513672,7.7207031-7.3681641,24.0981445-6.5810547,34.0385742c0.1445313,1.7158203-1.0019531,3.1464844-2.7158203,3.71875
		c-2.5771484,0.7871094-7.2226563,0.8574219-11.8740234-1.0712891c-4.1464844-1.7158203-6.6484375-4.7207031-7.5800781-8.4394531
		c-1.859375-7.7949219,2.7167969-28.1743164,9.9404297-35.7543945c4.5058594-4.7929688,13.8017578-3.9335938,17.5214844-1.4316406
		c7.078125-2.9316406,19.8076172-4.3613281,23.8125,3.6474609c2.1435547-1.7880859,4.5029297-3.2890625,6.0771484-3.9316406
		c3.2197266-1.2167969,7.2958984-2.0751953,11.2285156-2.0751953c23.9570313,0.2861328,9.5820313,28.8188477,12.8720703,29.3930664
		c1.1601563,0.1923828,4.1835938-3.5141602,7.3369141-7.9682617c2.2636719-7.6889648,5.6474609-14.746582,8.4189453-17.6367188
		c6.5791016-6.9355469,23.1689453-2.0039063,18.0185547,2.6455078c-2.9296875,2.6474609-6.6494141,22.6713867-4.6455078,22.956543
		c1.7158203,0.2841797,6.0771484-8.2260742,9.1513672-14.6616211c1.6455078-4.1464844,4.0039063-9.5097656,7.8671875-12.0126953
		C554.6220703,326.0913086,569.1386719,330.7407227,564.2021484,335.1000977z"/>
	<path class="st3" d="M243.3154297,385.3759766c-0.2880859-1.0019531-0.8574219-1.6455078-2.0029297-1.5742188
		c-3.1455078,0.2148438-5.7207031-0.8583984-8.0810547-2.0029297c-6.8632813-3.3613281-9.0820313-9.8691406-9.0820313-17.3066406
		c-0.0693359-11.7290039,9.8691406-38.4018555,14.3027344-58.9985352
		c15.7324219,5.2929688,31.7509766,9.1533203,42.6230469,4.0039063
		c15.4433594-7.2207031,11.0097656-28.2431641-4.1513672-30.5341797c-5.8652344-0.9296875-10.8701172,1.0732422-9.0810547,5.0800781
		c2.4316406,5.5771484,0.4287109,12.5859375-9.1523438,12.8701172c-5.6494141,0.1435547-11.8720703-1.2158203-18.3798828-3.3603516
		c0.5019531-5.3632813,0.0712891-9.7958984-1.6445313-12.4423828c-2-3.0742188-5.2929688-5.078125-10.4423828-5.0048828
		c-2.0732422,0-5.21875,0.8574219-4.5048828,3.71875c0.4277344,2.0732422,0.4277344,4.5761719,0.1435547,7.4365234
		c-13.9443359-5.7919922-28.1044922-11.9423828-39.8320313-11.3701172
		c-42.0478516,2.0732422-41.8369141,45.7685547-12.7275391,46.9853516
		c6.8642578,0.2841797,13.8017578-2.1455078,17.6611328-6.9384766c0,0,1.0722656-2.1435547-0.7167969-2.5732422
		c-11.0117188-2.6464844-5.4326172-22.0273438,11.4443359-19.9521484
		c5.8623047,0.7158203,13.3730469,3.1455078,21.5253906,6.0068359
		c-4.6474609,16.0908203-13.6591797,35.828125-17.1640625,47.9121094
		c-3.359375,10.6577148-6.2216797,21.4545898-6.2216797,28.1040039
		c-0.1425781,16.8046875,7.6523438,31.3935547,23.0292969,31.3935547
		C233.6611328,406.8291016,246.0322266,395.6738281,243.3154297,385.3759766z"/>
	<path class="st3" d="M397.4501953,348.5463867c-8.0800781,12.0141602-26.4589844,10.7280273-25.6015625,4.21875
		c33.6835938-3.8623047,25.1025391-23.5283203,5.0800781-23.9580078
		c-15.5966797-0.3652344-25.7070313,10.21875-28.6894531,21.6967773c-1.2226563,1.5112305-2.5400391,2.9599609-3.9648438,4.3374023
		c-6.7939453,6.7944336-11.8720703,2.3579102-14.8740234-3.2197266
		c18.1630859-9.4394531,18.1630859-24.4580078-1.8603516-22.6699219c-3.4326172,0.2851563-7.2216797,1.359375-10.8710938,3.4345703
		c1.8603516-9.0117188,3.5761719-19.4521484,3.7890625-27.2470703c0.2880859-8.7978516-2.6455078-16.734375-12.9404297-16.6630859
		c-2.1484375,0-5.2197266,0.9287109-4.5058594,3.71875c3.2602539,15.1948242-8.6245117,39.3891602-13.53125,57.9609375
		c-3.1416016,4.4067383-6.222168,8.0942383-7.3076172,7.902832c-2.0009766-0.2851563,1.7158203-20.309082,4.6455078-22.956543
		c4.7207031-4.2910156-8.9375-8.7978516-16.3037109-4.0771484c-15.3017578-7.6503906-39.8300781,4.7939453-41.5488281,29.6791992
		c-0.6435547,9.5097656,3.0019531,17.5205078,12.6591797,17.5898438c4.4335938,0,10.8710938-4.2177734,16.1621094-12.8701172
		c0.0703125,4.2910156,0.9287109,7.8652344,3.0751953,10.0126953c2.0732422,1.9306641,4.8632813,2.8613281,7.7958984,2.8613281
		c6.1777344,0,12.9067383-6.2792969,18.8432617-14.0068359c0.0649414,1.0761719,0.1938477,2.1054688,0.4213867,3.0625
		c1.0009766,4.0771484,3.2890625,7.4365234,7.7949219,9.296875c4.6464844,1.9306641,9.296875,1.8583984,11.8730469,1.0712891
		c1.7148438-0.5722656,2.8603516-2.0029297,2.7167969-3.71875c-0.2861328-3.1445313-1.2880859-9.5810547,0-17.0166016
		c1.8583984,9.4384766,10.0839844,25.3144531,21.953125,20.3066406c5.5488281-2.359375,11.043457-8.3505859,15.6054688-14.5292969
		c1.8779297,8.6083984,8.6386719,15.4970703,21.125,15.6025391c15.8056641,0.1425781,26.4589844-13.5878906,33.8964844-26.8178711
		C405.2460938,347.0454102,399.9560547,344.9008789,397.4501953,348.5463867z M260.5048828,349.5483398
		c-13.6630859,22.3813477-7.4384766-6.8652344,4.5039063-11.4414063
		C263.3652344,341.3237305,261.7919922,345.3295898,260.5048828,349.5483398z M311.9492188,350.6928711
		c0.9306641-2.5029297,1.2158203-3.7177734,2.7880859-6.1503906c2.2880859-3.5039063,5.7929688-7.1513672,9.1523438-6.7929688
		C327.4697266,338.1069336,320.1738281,348.9760742,311.9492188,350.6928711z M377.0019531,339.105957
		c8.2226563-4.9345703,6.1494141,6.2207031-5.4345703,7.0078125
		C372.4228516,343.3266602,374.3544922,340.6811523,377.0019531,339.105957z"/>
	<path class="st3" d="M547.4003906,331.3842773c-3.8632813,2.5029297-6.2216797,7.8662109-7.8671875,12.0126953
		c-3.0742188,6.4355469-7.4355469,14.9458008-9.1513672,14.6616211c-2.0039063-0.2851563,1.7158203-20.309082,4.6455078-22.956543
		c5.1503906-4.6494141-11.4394531-9.5810547-18.0185547-2.6455078c-2.7714844,2.8901367-6.1552734,9.9477539-8.4189453,17.6367188
		c-3.1533203,4.4541016-6.1767578,8.1606445-7.3369141,7.9682617c-3.2900391-0.5742188,11.0849609-29.1069336-12.8720703-29.3930664
		c-3.9326172,0-8.0087891,0.8583984-11.2285156,2.0751953c-1.5742188,0.6425781-3.9335938,2.1435547-6.0771484,3.9316406
		c-4.0048828-8.0087891-16.734375-6.5791016-23.8125-3.6474609c-3.7197266-2.5019531-13.015625-3.3613281-17.5214844,1.4316406
		c-7.2236328,7.5800781-11.7998047,27.9594727-9.9404297,35.7543945c0.9316406,3.71875,3.4335938,6.7236328,7.5800781,8.4394531
		c4.6513672,1.9287109,9.296875,1.8583984,11.8740234,1.0712891c1.7138672-0.5722656,2.8603516-2.0029297,2.7158203-3.71875
		c-0.7871094-9.9404297,0.4296875-26.3178711,6.5810547-34.0385742c3.5742188-3.7197266,6.6494141-2.9326172,3.9316406,2.1435547
		c-5.3632813,9.9404297-9.7958984,28.7475586,4.3632813,34.5395508c4.5761719,1.9306641,9.2246094,1.8583984,11.7988281,1.0712891
		c1.7861328-0.5722656,2.8603516-2.0029297,2.7158203-3.71875c-0.8574219-10.4414063,0.0712891-25.9584961,6.4365234-34.0385742
		c4.2177734-4.3632813,6.1513672-1.359375,4.7207031,0.7871094c-4.7910156,8.4394531-12.3720703,37.5424805,5.2919922,37.5424805
		c5.9619141,0,12.4521484-5.8554688,18.2666016-13.2792969c-0.0078125,1.0595703,0.0322266,2.0849609,0.1337891,3.0556641
		c1.6445313,15.9462891,17.734375,12.0869141,27.03125,0.2851563c-1.7890625,10.0136719-6.1503906,29.1054688-12.0869141,31.0351563
		c-2.0029297,0.7138672-4.1464844,0.2138672-5.078125-1.5742188c-0.7138672-1.4296875-1.7861328-2.2880859-3.0751953-1.7890625
		c-11.8720703,4.4326172-10.65625,29.6787109,11.4414063,28.2490234
		c26.1005859-1.7158203,28.3886719-44.1943359,31.8935547-64.0029297
		c0.8564453-5.1508789,4.5058594-22.0981445,7.8652344-25.1733398
		C569.1386719,330.7407227,554.6220703,326.0913086,547.4003906,331.3842773z"/>
	<path class="st3" d="M205,216.7773438c-5.0454102,2.4916992-13.0307617,7.2963867-20,16
		c-11.921875,14.8891602-12.9189453,31.2563477-13,37c1.5048828-6.5771484,4.1513672-14.9863281,9-24
		C188.6484375,231.559082,198.3540039,222.2001953,205,216.7773438z"/>
	<path class="st3" d="M291,216.7773438c-3.5297852-3.0112305-26.5385742-22.0205078-55-16
		c-9.6206055,2.0351563-17.0063477,6.3256836-22,10c7.1801758-2.7568359,18.2558594-5.9746094,32-6
		C267.3491211,204.7382813,283.3496094,212.4248047,291,216.7773438z"/>
	<path class="st3" d="M327,247.7773438c11.0151367,11.5419922,19.9003906,22.8310547,27,33
		c-3.8916016-9.3447266-11.5092773-24.1582031-26-38c-9.7250977-9.2900391-19.5097656-15.2421875-27-19
		C309.1899414,230.4291992,318.0253906,238.3735352,327,247.7773438z"/>
	<path class="st3" d="M418,228.7773438c-6.8183594,3.4145508-17.8857422,10.0488281-28,22
		c-8.9619141,10.5893555-13.5927734,21.1186523-16,28c4.9003906-7.4824219,10.8378906-15.6210938,18-24
		C400.9570313,244.2978516,409.8925781,235.7084961,418,228.7773438z"/>
	<path class="st3" d="M515,209.7773438c-5.5908203-2.9692383-19.9248047-9.6220703-39-8
		c-20.5273438,1.7456055-34.2060547,12.0244141-39,16c7.9277344-3.9667969,20.6152344-9.1289063,37-11
		C491.6855469,204.7578125,506.1582031,207.4306641,515,209.7773438z"/>
	<path class="st3" d="M556,264.7773438c-0.3017578-5.2329102-1.7050781-17.1362305-10-29
		c-6.5732422-9.4008789-14.5097656-14.5385742-19-17c5.1220703,5.0200195,11.2529297,11.9458008,17,21
		C549.921875,249.1083984,553.6347656,257.8608398,556,264.7773438z"/>
	<path class="st3" d="M559,312.7773438c1.4501953-4.1035156,3.2255859-10.7314453,3-19
		c-0.2597656-9.5195313-3.0507813-16.8525391-5-21c1.3398438,5.1591797,2.5605469,11.5756836,3,19
		C560.4853516,299.9921875,559.8769531,307.1323242,559,312.7773438z"/>
	<path class="st3" d="M253,418.7773438c4.2011719,8.0429688,10.2827148,17.8828125,19,28
		c7.3100586,8.4833984,14.6503906,15.0458984,21,20c-5.9672852-6.8085938-11.9716797-13.8076172-18-21
		C267.3745117,436.6796875,260.0444336,427.671875,253,418.7773438z"/>
	<path class="st3" d="M327,507.7773438c4.4443359,4.2285156,8.8330078,7.8710938,13,11c-11.3334961-12-22.6665039-24-34-36
		C311.0854492,490.40625,317.9189453,499.1367188,327,507.7773438z"/>
	<path class="st3" d="M354,535.7773438c4.5410156,5,9.0439453,8.9462891,13,12c-7.6669922-8.3330078-15.3330078-16.6669922-23-25
		C346.5498047,526.7197266,349.828125,531.1835938,354,535.7773438z"/>
	<path class="st3" d="M383,535.7773438c4.0800781-4.1953125,7.3720703-8.3037109,10-12c-8,8-16,16-24,24
		C373.2441406,544.7597656,378.0898438,540.8251953,383,535.7773438z"/>
	<path class="st3" d="M398,519.7773438c4.9472656-3.3964844,10.4267578-7.6679688,16-13
		c8.4443359-8.078125,14.5986328-16.1914063,19-23c-4.8125,5.2792969-9.8105469,10.6181641-15,16
		C411.2646484,506.7617188,404.5869141,513.4257813,398,519.7773438z"/>
	<path class="st3" d="M478,430.7773438c-7.3994141,10.3642578-14.8945313,19.3320313-22,27
		c6.0478516-4.3652344,14.375-11.4277344,22-22c6.7783203-9.3974609,10.6972656-18.3740234,13-25
		C487.2363281,417.1601563,482.9287109,423.8730469,478,430.7773438z"/>
</g>
</svg>
