<?xml version="1.0" encoding="utf-8"?>
<!-- Generator: Adobe Illustrator 22.0.1, SVG Export Plug-In . SVG Version: 6.00 Build 0)  -->
<svg version="1.1" id="Шар_1" xmlns="http://www.w3.org/2000/svg" xmlns:xlink="http://www.w3.org/1999/xlink" x="0px" y="0px"
	 viewBox="0 0 714 714" style="enable-background:new 0 0 714 714;" xml:space="preserve">
<g>
	<path d="M340.2822266,367.6201172c-1.9897461,4.1123047-4.0478516,11.2441406,1.6450195,10.9716797
		c1.8496094-0.0683594,3.5649414-1.3720703,4.9370117-3.2910156
		C344.1914063,373.1074219,341.9975586,370.5683594,340.2822266,367.6201172z"/>
	<path d="M559.4121094,366.7285156c-2.0556641-3.2919922-6.0332031-3.9765625-9.3935547-2.0546875
		c-4.1152344-5.7597656-9.5322266-14.6748047-16.2519531-17.3505859
		c-5.5556641-2.1269531-11.1767578-1.0302734-16.1142578,1.8515625c-1.1435547,0-2.28125,0.1376953-3.4082031,0.3662109
		c2.6533203-7.4873047,4.4248047-15.015625,4.8525391-22.2412109c0.3398438-5.8994141-0.7578125-11.3144531-3.7070313-15.1572266
		l-7.5439453-10.21875c-7.0605469-9.6015625-23.2451172-7.5429688-21.2568359,2.1953125
		c2.4697266,13.2333984-6.8574219,29.4853516-16.2509766,41.6933594c-0.6181641-2.9501953-1.1669922-5.8984375-1.4394531-8.7099609
		c9.3251953-3.015625,14.7421875-15.1542969,8.9140625-22.4921875l-6.9960938-9.53125
		c-7.4052734-10.4257813-21.8740234-6.7890625-27.8408203,2.9492188
		c-16.2529297-3.0175781-39.2246094-1.8515625-51.0878906,10.8349609
		c-9.0537109,9.6689453-9.2597656,23.5888672-1.6455078,33.9433594l9.6689453,12.8242188
		c-4.7138672,0.6445313-9.3691406,2.6523438-13.4287109,5.671875l-3.3466797-4.5742188
		c-2.0546875-3.2919922-6.0332031-3.9765625-9.3935547-2.0546875c-4.1152344-5.7597656-9.5322266-14.6748047-16.2514648-17.3505859
		c-5.5556641-2.1269531-11.1772461-1.0302734-16.1142578,1.8515625c-1.1435547,0-2.2817383,0.1376953-3.4086914,0.3662109
		c2.6533203-7.4873047,4.4248047-15.015625,4.8525391-22.2412109c0.3398438-5.8994141-0.7578125-11.3144531-3.706543-15.1572266
		l-7.5439453-10.21875c-7.0605469-9.6015625-23.2451172-7.5429688-21.2568359,2.1953125
		c2.4697266,13.2333984-6.8579102,29.4853516-16.2514648,41.6933594c-0.6176758-2.9501953-1.1665039-5.8984375-1.4394531-8.7099609
		c9.3251953-3.015625,14.7421875-15.1542969,8.9145508-22.4921875l-6.9960938-9.53125
		c-7.4057617-10.4257813-21.8745117-6.7890625-27.8408203,2.9492188
		c-16.2529297-3.0175781-39.2250977-1.8515625-51.0883789,10.8349609
		c-9.0532227,9.6689453-9.2592773,23.5888672-1.6450195,33.9433594l9.6689453,12.8242188
		c-12.5507813,1.7148438-24.6870117,13.0966797-26.262207,27.4980469
		c-1.5092773,13.7148438,5.5541992,21.4628906,12.7539063,31.2705078
		c7.9541016,10.8359375,17.690918,15.7021484,31.6108398,16.4570313
		c16.2529297,0.9609375,33.328125-9.6689453,45.8789063-20.2294922
		c6.9936523,9.5322266,15.2236328,19.3388672,28.3208008,19.3388672c11.5200195,0,25.6489258-8.9814453,25.9223633-21.4619141
		c0.0888672-2.6132813-0.5185547-4.6542969-1.6376953-6.5859375c11.1870117,3.4082031,25.5527344-0.5371094,33.534668-10.9755859
		c1.3310547,9.1884766,6.9375,15.6806641,12.6464844,23.4570313c7.9541016,10.8359375,17.6904297,15.7021484,31.6103516,16.4570313
		c16.2529297,0.9609375,33.328125-9.6689453,45.8789063-20.2294922
		c6.9941406,9.5322266,15.2236328,19.3388672,28.3212891,19.3388672c11.5195313,0,25.6484375-8.9814453,25.921875-21.4619141
		c0.0888672-2.6132813-0.5185547-4.6542969-1.6376953-6.5859375c12.7841797,3.8945313,29.7255859-1.8125,36.5380859-15.8369141
		c7.8154297-1.5097656,19.6113281-11.3847656,13.8515625-19.1347656L559.4121094,366.7285156z M494.0791016,387.3007813
		c0.7773438,2.2089844,1.8583984,4.3125,3.2724609,6.2412109l3.703125,5.0410156
		c-2.2792969-0.3867188-5.3916016-1.7421875-10.4179688-6.546875
		C491.7851563,390.5078125,492.9345703,388.9248047,494.0791016,387.3007813z M317.8027344,387.3007813
		c0.7773438,2.2089844,1.8588867,4.3125,3.2729492,6.2412109l3.703125,5.0410156
		c-2.2797852-0.3867188-5.3916016-1.7421875-10.4179688-6.546875
		C315.5087891,390.5078125,316.6586914,388.9248047,317.8027344,387.3007813z M308.0712891,424.9462891
		c-11.5878906,0-20.8452148-10.3554688-27.2929688-21.5332031c-15.5654297,14.0595703-32.4345703,23.3164063-46.6308594,22.4941406
		c-39.8408203-2.2626953-42.7197266-47.3173828-11.3144531-55.8876953
		c6.4477539-1.4394531,10.0810547,0.8925781,7.6811523,5.8974609c-5.28125,11.109375,6.309082,17.1455078,17.074707,13.4414063
		c6.3779297-2.1933594,14.2636719-6.9257813,22.3564453-13.2353516
		c-4.7998047-18.3779297-5.9663086-38.1972656-3.4277344-52.5976563c-5.2114258-0.0703125-9.3261719,0.3427734-12.480957,1.2333984
		c-13.6445313,3.7724609-9.1889648,19.1328125,0.2758789,17.3505859c1.9208984-0.3447266,1.7827148,2.0556641,1.7827148,2.0556641
		c-2.7431641,10.4921875-11.8637695,15.4296875-20.984375,15.15625
		c-27.9101563-0.8222656-36.4135742-47.5214844,15.0180664-48.4814453
		c6.7207031-0.1357422,13.3740234,0.5488281,18.9956055,1.9208984c3.9780273-9.8085938,14.5395508-11.796875,19.8891602-7.8876953
		c6.8579102,5.0087891,1.0307617,17.9677734-8.5717773,17.9677734c0.4121094,9.1875,3.5664063,22.4228516,8.7089844,35.453125
		c15.9770508-17.4179688,28.456543-38.6074219,25.3720703-54.9970703c-0.6186523-2.7441406,2.3999023-3.4960938,4.4570313-3.4287109
		c9.8051758,0.2060547,12.4106445,7.8164063,11.9291992,16.3203125
		c-1.1665039,19.6123047-13.4414063,44.4345703-29.96875,65.5566406
		c5.621582,8.7773438,12.1391602,15.9091797,18.9956055,19.2685547c2.2612305,1.0957031,4.730957,2.125,7.7485352,1.8505859
		l0.2416992,0.0039063c0.9331055,0.0351563,1.4248047,0.6259766,1.6762695,1.5742188
		c0.0751953,0.2822266,0.1347656,0.5644531,0.1865234,0.8476563
		C331.5253906,414.8554688,319.9931641,424.9462891,308.0712891,424.9462891z M242.0097656,379.9638672l-4.6625977-6.3759766
		c9.0532227,2.125,19.4072266-0.9609375,25.9223633-7.9550781c0.5488281,3.0166016,1.1660156,5.9648438,1.8510742,8.8466797
		c-5.484375,4.0419922-15.5654297,10.9013672-22.2192383,11.65625
		C243.3803711,384.0791016,243.2460938,381.8818359,242.0097656,379.9638672z M366.1333008,381.4042969
		c-7.9360352,20.6738281-41.2504883,23.4169922-45.1005859,1.1650391c-0.2749023-1.5888672-0.4106445-3.2949219-0.3652344-5.1416016
		c0.137207-3.2246094,0.8222656-6.5146484,2.1254883-9.6015625c2.090332-4.7919922,7.2519531-10.984375,13.3417969-13.453125
		c2.1005859-0.8515625,4.3105469-1.2626953,6.5444336-1.0166016c14.2636719-9.5322266,25.1679688,4.9375,25.1679688,18.6513672
		c0,0.6181641-0.0688477,1.3056641-0.0688477,1.9208984c2.8818359-0.2724609,4.9404297-1.9208984,6.6542969-4.3876953
		c3.015625-3.8417969,7.2666016-1.0302734,5.4150391,2.5380859
		C376.3535156,377.9765625,372.1669922,380.8554688,366.1333008,381.4042969z M484.3476563,424.9462891
		c-11.5878906,0-20.8457031-10.3554688-27.2929688-21.5332031c-15.5654297,14.0595703-32.4345703,23.3164063-46.6308594,22.4941406
		c-22.2773438-1.265625-32.9941406-15.9091797-32.6269531-30.0742188
		c0.2080078-8.0214844,3.9697266-15.8886719,11.2060547-21.0849609c2.8378906-2.0371094,6.2070313-3.6640625,10.1064453-4.7285156
		c6.4472656-1.4394531,10.0810547,0.8925781,7.6806641,5.8974609c-5.28125,11.109375,6.3095703,17.1455078,17.0751953,13.4414063
		c6.3779297-2.1933594,14.2636719-6.9257813,22.3564453-13.2353516
		c-4.7998047-18.3779297-5.9667969-38.1972656-3.4277344-52.5976563c-5.2119141-0.0703125-9.3261719,0.3427734-12.4814453,1.2333984
		c-13.6435547,3.7724609-9.1884766,19.1328125,0.2763672,17.3505859c1.9208984-0.3447266,1.7822266,2.0556641,1.7822266,2.0556641
		c-2.7431641,10.4921875-11.8632813,15.4296875-20.984375,15.15625
		c-27.9101563-0.8222656-36.4130859-47.5214844,15.0185547-48.4814453
		c6.7207031-0.1357422,13.3740234,0.5488281,18.9960938,1.9208984c3.9775391-9.8085938,14.5390625-11.796875,19.8886719-7.8876953
		c6.8574219,5.0087891,1.0302734,17.9677734-8.5712891,17.9677734c0.4111328,9.1875,3.5654297,22.4228516,8.7080078,35.453125
		c15.9775391-17.4179688,28.4570313-38.6074219,25.3720703-54.9970703
		c-0.6181641-2.7441406,2.4003906-3.4960938,4.4570313-3.4287109c9.8056641,0.2060547,12.4111328,7.8164063,11.9296875,16.3203125
		c-1.1669922,19.6123047-13.4414063,44.4345703-29.96875,65.5566406
		c5.6210938,8.7773438,12.1386719,15.9091797,18.9951172,19.2685547c2.2617188,1.0957031,4.7314453,2.125,7.7490234,1.8505859
		l0.2412109,0.0039063c0.9326172,0.0351563,1.4248047,0.625,1.6767578,1.5742188
		c0.0751953,0.2822266,0.1347656,0.5654297,0.1865234,0.8486328
		C507.8007813,414.8554688,496.2685547,424.9462891,484.3476563,424.9462891z M418.2861328,379.9638672l-4.6630859-6.3759766
		c9.0537109,2.125,19.4072266-0.9609375,25.9228516-7.9550781c0.5488281,3.0166016,1.1660156,5.9648438,1.8505859,8.8466797
		c-5.484375,4.0419922-15.5654297,10.9013672-22.21875,11.65625
		C419.65625,384.0791016,419.5224609,381.8818359,418.2861328,379.9638672z M556.1240234,372.0791016
		c-3.4951172,5.8974609-7.6816406,8.7763672-13.7148438,9.3251953
		c-7.9365234,20.6738281-41.2509766,23.4169922-45.1005859,1.1650391c-0.2753906-1.5888672-0.4111328-3.2949219-0.3652344-5.1416016
		c0.1376953-3.2246094,0.8222656-6.5146484,2.1259766-9.6015625c2.0908203-4.7919922,7.2519531-10.984375,13.3417969-13.453125
		c2.1005859-0.8515625,4.3105469-1.2626953,6.5439453-1.0166016c14.2636719-9.5322266,25.1679688,4.9375,25.1679688,18.6513672
		c0,0.6181641-0.0683594,1.3056641-0.0683594,1.9208984c2.8808594-0.2724609,4.9394531-1.9208984,6.6533203-4.3876953
		C553.7236328,365.6992188,557.9746094,368.5107422,556.1240234,372.0791016z"/>
	<path d="M516.5585938,367.6201172c-1.9902344,4.1123047-4.0478516,11.2441406,1.6455078,10.9716797
		c1.8486328-0.0683594,3.5644531-1.3720703,4.9365234-3.2910156
		C520.4677734,373.1074219,518.2734375,370.5683594,516.5585938,367.6201172z"/>
	<path d="M208.328125,366.0361328c0.6503906-0.3681641,1.3022461-0.734375,1.9731445-1.0810547l1.5869141-0.8222656
		l-1.7827148-0.1210938c-13.5029297-0.9160156-26.2919922,1.1171875-38.0229492,6.0507813
		c-8.0131836,3.3710938-21.4248047,9.0136719-25.1933594,20.9267578c-0.5722656,1.8076172-2.3129883,7.3095703,0.0112305,13.2177734
		c1.5371094,3.9082031,4.4985352,7.1699219,8.8017578,9.6962891c2.1655273,1.2734375,4.4047852,2.5888672,7.1142578,2.6464844
		l0.0991211,0.0009766c0.3457031,0,0.699707-0.0419922,1.0600586-0.1152344
		c2.5673828,0.4482422,5.152832,0.3544922,7.4414063-0.3857422c1.8398438-0.5947266,4.5166016-1.9316406,15.4619141-20.6152344
		c5.7700195-9.8496094,6.6186523-12.1972656,10.3076172-17.1796875
		C201.1479492,372.9042969,205.1542969,368.8789063,208.328125,366.0361328z M155.1337891,412.3613281
		c-3.5195313-2.3037109-5.9814453-5.1611328-7.3027344-8.5195313c-2.1948242-5.5791016-0.5341797-10.8271484,0.0112305-12.5517578
		c3.6293945-11.4716797,16.2661133-16.7880859,24.6279297-20.3056641c7.4301758-3.125,15.2944336-5.0654297,23.4985352-5.8203125
		c2.5952148-0.2392578,5.2231445-0.3662109,7.8842773-0.3662109c1.4638672,0,2.9394531,0.0361328,4.421875,0.1083984
		c-6.2197266,3.4521484-11.5195313,7.8300781-15.7705078,13.0322266c-2.4223633,2.9638672-3.4370117,4.8857422-4.9731445,7.7958984
		c-1.1918945,2.2568359-2.6748047,5.0664063-5.3725586,9.4375c-8.1181641,13.1503906-14.9443359,20.3789063-19.2407227,20.3789063
		l-0.0800781-0.0009766c-2.4492188-0.0517578-4.5742188-1.3007813-6.6293945-2.5087891
		C155.8354492,412.8222656,155.4853516,412.5908203,155.1337891,412.3613281z"/>
	<path d="M153.9448242,364.8486328c3.8466797,0,8.8657227-0.9824219,15.7211914-2.3251953
		c1.6694336-0.3271484,3.4511719-0.6757813,5.355957-1.0380859c8.6381836-1.6445313,17.5620117-3.0605469,26.5229492-4.2089844
		l1.1733398-0.1503906l-0.925293-0.7373047c-0.6630859-0.5283203-1.3354492-1.0429688-2.0058594-1.5595703
		c-4.4379883-4.9882813-11.2099609-11.6318359-20.6391602-17.8056641
		c-10.9023438-7.1381836-20.1977539-13.2241211-27.4873047-9.4487305c-1.769043,0.9160156-3.2856445,2.3442383-4.5048828,4.0874023
		c-0.3447266,0.2016602-0.675293,0.4257813-0.9780273,0.6904297c-1.1362305,0.9941406-1.6601563,2.1542969-2.7036133,4.4648438
		c-1.9086914,4.2246094-2.4995117,8.9423828-1.7568359,14.0224609c0.5483398,3.7548828,1.2314453,8.4267578,4.487793,11.4384766
		C148.2011719,364.1240234,150.6401367,364.8486328,153.9448242,364.8486328z M145,335.8867188
		c0.6220703-1.3242188,1.0883789-2.1279297,1.8359375-2.7822266c1.2446289-1.0888672,2.9394531-1.5483398,4.9282227-1.5483398
		c6.847168,0,17.1748047,5.4448242,24.5737305,9.3461914c8.3012695,4.3759766,16.3374023,9.5986328,23.902832,15.5341797
		c-0.8598633,0.1123047-1.7158203,0.2382813-2.574707,0.3554688c-7.715332,1.0546875-15.3803711,2.2929688-22.8310547,3.7109375
		c-1.90625,0.3623047-3.6899414,0.7119141-5.3608398,1.0390625c-12.4130859,2.4306641-18.6425781,3.6523438-22.590332,0.0019531
		c-2.996582-2.7714844-3.6513672-7.25-4.1772461-10.8486328c-0.7143555-4.8876953-0.1499023-9.4179688,1.6787109-13.4658203
		C144.612793,336.7255859,144.8125,336.2851563,145,335.8867188z"/>
	<path d="M206.3994141,354.6435547l1.1826172,0.6328125l-0.4799805-1.2519531
		c-0.2993164-0.78125-0.5737305-1.546875-0.8510742-2.3134766c-3.168457-21.5224609-0.4038086-33.0170898,2.9614258-39.5976563
		c0.9316406-1.8222656,4.0483398-7.4506836,3.4360352-14.6030273c-0.1845703-2.1557617-0.7329102-7.5957031-5.1542969-12.0258789
		c-2.0532227-2.0571289-4.3383789-3.2875977-6.4179688-4.0327148c-0.3432617-0.25-0.6953125-0.4873047-1.0668945-0.6972656
		c-4.7602539-2.6855469-10.0927734-1.0307617-13.2783203-0.0419922c-0.8828125,0.2734375-8.7514648,2.8691406-13.15625,9.6538086
		c-6.8769531,10.5932617-1.1015625,24.6352539,1.6748047,31.3862305
		C182.3237305,338.9501953,196.09375,349.1308594,206.3994141,354.6435547z M195.0068359,280.3310547
		c1.5126953,0.0986328,3.050293,0.4697266,4.5112305,1.2944336c4.2412109,2.3935547,6.4677734,7.7412109,6.6171875,15.894043
		c0.1206055,6.5595703-2.0991211,11.5048828-3.1655273,13.8813477l-0.2275391,0.5112305
		c-4.4453125,10.1132813-3.4521484,23.9716797,2.949707,41.2070313c-0.7905273-0.4394531-1.6030273-0.9169922-2.4243164-1.4121094
		c-9.5756836-5.7714844-20.9267578-15.3447266-27.0942383-30.3374023
		c-2.7104492-6.5908203-8.3510742-20.3056641-1.7597656-30.4584961c4.2133789-6.4902344,11.7661133-8.980957,12.6137695-9.2436523
		c1.8300781-0.5683594,4.4038086-1.3676758,7.1220703-1.3676758
		C194.4335938,280.2998047,194.7202148,280.3125,195.0068359,280.3310547z"/>
	<path d="M511.8183594,292.2382813c5.1806641,4.6894531,11.4736328,13.9155273,15.8925781,33.956543
		c0.0136719,0.8129883,0.0273438,1.6259766,0.0244141,2.4609375l-0.0048828,1.3413086l0.8818359-1.0107422
		c7.28125-8.3466797,16.0634766-21.9951172,16.5556641-39.6157227c0.1923828-6.9145508,0.5927734-21.3022461-9.0673828-28.3852539
		c-6.1835938-4.5332031-14.0400391-4.1948242-14.9140625-4.1391602c-3.1582031,0.1938477-8.4443359,0.519043-11.765625,4.5063477
		c-0.2773438,0.3325195-0.5234375,0.6850586-0.7558594,1.046875c-1.5712891,1.3535156-3.1542969,3.1953125-4.2666016,5.6733398
		c-2.4287109,5.4086914-1.0878906,10.4116211-0.5273438,12.3837891
		C505.7304688,286.9975586,510.3808594,290.9370117,511.8183594,292.2382813z M514.1523438,259.1591797
		c2.5-1.0297852,5.2001953-1.1987305,7.0957031-1.3149414c0.1445313-0.0087891,0.4873047-0.0258789,0.9853516-0.0258789
		c2.3955078,0,8.3925781,0.3930664,13.2753906,3.9736328c9.2382813,6.7724609,8.8476563,20.8066406,8.6591797,27.5522461
		c-0.4257813,15.2407227-7.1738281,27.4638672-13.6757813,35.7851563c-0.5908203,0.7548828-1.1787109,1.4897461-1.7597656,2.1796875
		c-0.1259766-17.3862305-3.9023438-29.9790039-11.2304688-37.4404297l-0.3720703-0.3745117
		c-1.7412109-1.7456055-5.3662109-5.378418-7.4609375-11.2260742c-2.6044922-7.2602539-2.4296875-12.7363281,0.5195313-16.2758789
		C511.3085938,260.6474609,512.6972656,259.7583008,514.1523438,259.1591797z"/>
	<path d="M533.2373047,328.9545898l-0.6044922,1.0170898l1.1503906-0.2753906
		c8.3261719-1.9926758,16.7060547-3.7348633,24.9072266-5.1787109c1.8076172-0.3178711,3.5029297-0.6069336,5.0908203-0.8779297
		c12.1376953-2.0703125,18.2304688-3.109375,20.7207031-8.1098633c1.8779297-3.7695313,0.9130859-8.1430664,0.1367188-11.6572266
		c-1.046875-4.7519531-3.15625-8.7368164-6.2763672-11.8491211c-1.7021484-1.6967773-2.5556641-2.5488281-3.8984375-3.0493164
		c-0.3789063-0.1411133-0.7695313-0.2329102-1.1660156-0.2949219c-1.6503906-1.1137695-3.4521484-1.855957-5.3056641-2.0708008
		c-7.7246094-0.8964844-13.9150391,7.6162109-21.1757813,17.6005859
		c-6.2333984,8.5703125-9.9921875,16.6738281-12.2539063,22.5717773
		C534.1171875,327.5029297,533.6708984,328.2246094,533.2373047,328.9545898z M576.9179688,292.0004883
		c0.2304688,0.2265625,0.4716797,0.4658203,0.7421875,0.7358398c2.9775391,2.9702148,4.9970703,6.7890625,6.0019531,11.3515625
		c0.7421875,3.3603516,1.6650391,7.5429688-0.0546875,10.9956055c-2.2646484,4.5463867-8.1894531,5.5571289-19.9941406,7.5703125
		c-1.5898438,0.2709961-3.2861328,0.5605469-5.0966797,0.8793945c-7.0048828,1.2333984-14.140625,2.6943359-21.2626953,4.3320313
		c-0.8486328,0.1958008-1.6992188,0.3828125-2.5478516,0.5834961c4.6962891-7.7719727,10.0488281-15.0786133,15.9228516-21.7314453
		c6.1386719-6.9536133,15.125-17.1337891,21.5996094-17.1337891c0.65625,0,1.2871094,0.1049805,1.8857422,0.328125
		C575.0615234,290.2641602,575.7822266,290.8847656,576.9179688,292.0004883z"/>
	<path d="M593.5351563,341.1640625c-7.3476563-9.2978516-21.1298828-9.7915039-29.3642578-10.0864258
		c-12.0380859-0.434082-24.0693359,2.0610352-35.7265625,7.4106445l-1.6240234,0.7451172l1.7753906,0.2060547
		c0.7470703,0.0859375,1.484375,0.1953125,2.2197266,0.3105469c3.7529297,1.453125,8.6103516,3.6621094,13.8671875,7.0400391
		c4.9414063,3.1748047,6.4814453,4.9697266,14.9003906,11.7568359
		c15.9697266,12.8759766,18.7900391,13.1611328,20.6191406,13.0703125c2.2587891-0.1123047,4.5634766-0.8867188,6.6738281-2.1289063
		c0.3964844-0.0615234,0.7753906-0.1523438,1.1230469-0.2919922c2.3857422-0.9628906,3.9296875-2.8818359,5.4238281-4.7412109
		c2.9667969-3.6894531,4.4970703-7.5791016,4.546875-11.5615234
		C598.0439453,346.8701172,594.6503906,342.5751953,593.5351563,341.1640625z M592.6425781,363.8310547
		c-1.4130859,1.7558594-2.8740234,3.5722656-5.0185547,4.4375c-3.7626953,1.5214844-12.2626953-2.5888672-23.9316406-11.5595703
		c-3.8574219-2.9658203-6.1142578-4.9560547-7.9277344-6.5546875c-2.3388672-2.0625-3.8837891-3.4248047-7.0273438-5.2382813
		c-5.4912109-3.1689453-11.6279297-5.2636719-18.2646484-6.2392578c3.7880859-1.6474609,7.6132813-2.9833984,11.4638672-4.0214844
		c7.3398438-1.9785156,14.7685547-2.8505859,22.1992188-2.578125c8.5830078,0.3076172,21.5537109,0.7714844,28.6142578,9.7060547
		c1.0615234,1.3427734,4.2900391,5.4287109,4.2197266,11.0986328c-0.0419922,3.3623047-1.2246094,6.6679688-3.5,9.8466797
		C593.2060547,363.0976563,592.9365234,363.4658203,592.6425781,363.8310547z"/>
</g>
</svg>
