<?xml version="1.0" encoding="utf-8"?>
<!-- Generator: Adobe Illustrator 22.0.1, SVG Export Plug-In . SVG Version: 6.00 Build 0)  -->
<svg version="1.1" id="Шар_1" xmlns="http://www.w3.org/2000/svg" xmlns:xlink="http://www.w3.org/1999/xlink" x="0px" y="0px"
	 viewBox="0 0 714 714" style="enable-background:new 0 0 714 714;" xml:space="preserve">
<style type="text/css">
	.st0{fill:#FFFFFF;}
	.st1{fill:#A22E39;}
	.st2{fill:#EA7878;}
	.st3{fill:#F9CEA7;}
	.st4{fill:#FCA7A7;}
	.st5{fill:#FF7979;}
</style>
<g>
	<path class="st0" d="M498.0546875,397.5830078l-3.703125-5.0410156c-1.4140625-1.9287109-2.4951172-4.0322266-3.2724609-6.2412109
		c-1.1445313,1.6240234-2.2939453,3.2070313-3.4423828,4.7353516
		C492.6630859,395.8408203,495.7753906,397.1962891,498.0546875,397.5830078z"/>
	<path class="st0" d="M262.1206055,373.4794922c-0.6850586-2.8818359-1.3022461-5.8300781-1.8510742-8.8466797
		c-6.5151367,6.9941406-16.8691406,10.0800781-25.9223633,7.9550781l4.6625977,6.3759766
		c1.2363281,1.9179688,1.3706055,4.1152344,0.8916016,6.171875
		C246.5551758,384.3808594,256.6362305,377.5214844,262.1206055,373.4794922z"/>
	<path class="st0" d="M438.3964844,373.4794922c-0.6845703-2.8818359-1.3017578-5.8300781-1.8505859-8.8466797
		c-6.515625,6.9941406-16.8691406,10.0800781-25.9228516,7.9550781l4.6630859,6.3759766
		c1.2363281,1.9179688,1.3701172,4.1152344,0.8916016,6.171875
		C422.8310547,384.3808594,432.9121094,377.5214844,438.3964844,373.4794922z"/>
	<path class="st0" d="M321.7788086,397.5830078l-3.703125-5.0410156c-1.4140625-1.9287109-2.4956055-4.0322266-3.2729492-6.2412109
		c-1.144043,1.6240234-2.2939453,3.2070313-3.4418945,4.7353516
		C316.387207,395.8408203,319.4990234,397.1962891,321.7788086,397.5830078z"/>
	<path class="st0" d="M604.3505859,350.1962891c-0.2587891-2.4599609-1.3896484-11.7871094-9.4492188-18.8969727
		c-6.0830078-5.3676758-12.8027344-6.5483398-15.4619141-6.8720703c1.8066406-0.4091797,7.3398438-1.9072266,10.3085938-6.871582
		c2.5234375-4.2211914,1.7646484-8.5595703,0.8583984-13.7441406c-0.828125-4.7402344-2.1533203-12.3208008-8.5898438-18.8974609
		c-2.6289063-2.6870117-8.7832031-8.9750977-18.0380859-8.5898438c-8.6777344,0.3613281-14.2363281,6.3452148-15.4619141,7.730957
		c0.7929688-2.7226563,2.1074219-8.6762695,0-15.4614258c-3.4697266-11.1728516-13.5-15.8613281-16.3203125-17.1796875
		c-2.0166016-0.9423828-11.8417969-5.2827148-23.1923828-1.7182617c-3.5625,1.1186523-10.015625,3.1455078-13.7441406,9.4487305
		c-3.7861328,6.4023438-2.3730469,13.1777344-1.7177734,16.3208008c2.0751953,9.9501953,8.9873047,15.984375,12.1289063,18.3427734
		c-7.1914063-5.2592773-13.6298828-6.7099609-17.2832031-7.1762695c-5.1914063-0.6621094-6.9990234,0.3540039-7.7304688,0.859375
		c-3.5322266,2.4404297-4.4628906,8.5126953-2.5771484,15.4614258c-0.8105469-2.0283203-3.3496094-7.6040039-9.4492188-11.1665039
		c-6.2148438-3.6308594-12.3017578-2.9370117-15.4609375-2.5771484c-9.9560547,1.1347656-16.5107422,7.0483398-18.8974609,9.4487305
		c-4.5429688-1.4418945-14.9775391-4.065918-27.4882813-0.8588867c-4.7197266,1.2099609-15.7382813,4.2036133-24.0507813,14.6025391
		c-2.8027344,3.5063477-10.65625,13.3300781-8.5898438,26.6289063c1.7138672,11.0351563,9.2021484,17.7421875,12.1435547,20.0478516
		c-2.4472656-1.8466797-5.6220703-3.8398438-9.5664063-5.4453125c-1.8193359-0.7402344-3.5527344-1.296875-5.1542969-1.7177734
		c-0.6484375-1.6582031-6.0776367-14.9638672-18.0385742-17.1801758c-1.7739258-0.3286133-4.0952148-0.4882813-6.8720703,0
		c1.1000977-3.7631836,2.6557617-11.0102539,0.8588867-19.7563477c-0.6757813-3.2900391-2.0058594-9.4077148-6.871582-15.4619141
		c-1.0522461-1.309082-6.796875-8.2475586-17.1796875-11.1665039c-5.3369141-1.5004883-13.5947266-3.8217773-18.0385742,0.8588867
		c-4.3676758,4.6005859-2.0141602,12.765625-1.7177734,13.7436523c-2.8662109-3.1274414-7.9306641-7.6855469-15.4619141-10.3076172
		c-3.5273438-1.2280273-8.456543-2.9443359-14.6025391-1.7182617c-8.2451172,1.6455078-13.0952148,7.4711914-14.6030273,9.4492188
		c-4.2700195-1.5200195-17.3818359-5.5512695-31.7822266,0c-6.2280273,2.4003906-10.7695313,5.8505859-13.7436523,8.5898438
		c0.9638672-2.1875,2.253418-5.7631836,2.5771484-10.3081055c0.1542969-2.1674805,1.0522461-14.7861328-7.730957-22.3334961
		c-4.6425781-3.9892578-9.8535156-4.7255859-12.8847656-5.1538086c-1.6914063-0.2392578-19.3798828-2.4399414-29.6347656,10.7373047
		c-7.3701172,9.4702148-5.9716797,20.5478516-5.5834961,23.6220703c1.1884766,9.4130859,5.9321289,15.8115234,8.1601563,18.4682617
		c-1.7797852-1.2451172-8.4057617-5.5615234-17.6088867-4.7246094c-2.0585938,0.1870117-10.315918,1.0629883-16.3208008,7.730957
		c-5.4306641,6.0302734-5.6977539,13.1088867-6.0126953,21.4741211c-0.3066406,8.1425781-0.5141602,13.6396484,3.4360352,18.0390625
		c5.4794922,6.1035156,14.6733398,5.3203125,16.3203125,5.1533203c-1.5854492,0.6582031-13.4467773,5.8125-17.1796875,18.8974609
		c-3.2680664,11.4580078,2.0454102,20.7587891,3.4360352,23.1933594
		c4.7509766,8.3164063,14.8442383,17.2578125,26.628418,16.3203125c6.3383789-0.5039063,10.8496094-3.6826172,12.8847656-5.1542969
		c8.9658203-6.4814453,11.4086914-16.0478516,12.0258789-18.8974609
		c0.5131836,4.4912109,3.3671875,25.1796875,21.4746094,39.5136719c15.2773438,12.09375,37.1210938,16.2646484,55.8334961,8.5898438
		c10.9511719-4.4912109,17.8833008-11.8310547,21.4746094-16.3212891
		c8.4472656,15.4257813,24.9775391,23.2724609,39.5131836,19.7568359c9.3691406-2.265625,18.059082-9.2871094,22.3334961-18.8974609
		c3.4038086-7.6513672,2.9995117-14.6787109,2.5771484-18.0390625c0.6069336,0.3544922,6.0551758,3.4130859,12.0258789,0.859375
		c4.565918-1.953125,6.4462891-5.9091797,6.8720703-6.8720703c4.1455078,21.5761719,17.7646484,38.7509766,35.2177734,42.9492188
		c16.3330078,3.9287109,31.8623047-4.5068359,37.7949219-7.7304688
		c10.1220703-5.4990234,16.7841797-12.4785156,20.6162109-17.1796875
		c0.7011719,0.9824219,14.9628906,20.3212891,36.0771484,18.0380859
		c2.3203125-0.2509766,19.5927734-2.3886719,25.7695313-16.3203125c2.5957031-5.8564453,2.2041016-11.4794922,1.7177734-14.6025391
		c0.6484375,0.2285156,15.7646484,5.2851563,26.6279297-4.2949219c5.5341797-4.8798828,7.1962891-11.1162109,7.7314453-13.7441406
		c1.1074219-0.2666016,9.8583984-2.5341797,13.7431641-11.1669922c2.8310547-6.2880859,1.3427734-12.0976563,0.859375-13.7431641
		c1.7783203,0.7558594,4.7929688,1.7675781,8.5898438,1.7177734c7.96875-0.1044922,13.3115234-4.8027344,14.6025391-6.0126953
		C605.8730469,364.6650391,604.6308594,352.8583984,604.3505859,350.1962891z M543.8164063,303.2089844
		c7.2607422-9.984375,13.4511719-18.4970703,21.1757813-17.6005859c2.2685547,0.2631836,4.4609375,1.315918,6.3896484,2.8745117
		c1.1904297,0.4697266,2.0195313,1.2915039,3.6318359,2.8994141c4.4960938,4.4848633,5.7255859,9.730957,6.1367188,11.5976563
		c0.7490234,3.3930664,1.703125,7.7163086-0.0957031,11.3266602c-2.6904297,5.4013672-9.8886719,5.9785156-25.4511719,8.71875
		c-5.9912109,1.0546875-14.5507813,2.6992188-24.9365234,5.1845703
		C532.7822266,322.2314453,536.6767578,313.0258789,543.8164063,303.2089844z M500.8710938,279.456543
		c-0.5605469-1.972168-1.9013672-6.9750977,0.5273438-12.3837891c1.4960938-3.3325195,3.8408203-5.5200195,5.8642578-6.9008789
		c3.2080078-3.3432617,8.0830078-3.6503906,10.9560547-3.8266602c0.8271484-0.0507813,8.4951172-0.4223633,14.5859375,4.043457
		c9.4501953,6.9282227,9.0556641,21.0634766,8.8632813,27.9697266
		c-0.5341797,19.1337891-11.0556641,33.1352539-16.4326172,39.2993164
		c-4.4345703-21.7617188-11.0283203-31.5415039-16.4169922-36.4194336
		C507.3808594,289.9370117,502.7304688,285.9975586,500.8710938,279.456543z M170.9941406,289.6386719
		c4.3408203-6.6875,12.0483398-9.1894531,12.8847656-9.4487305c2.9013672-0.9008789,7.828125-2.421875,12.2446289-0.3227539
		c2.5146484,0.6064453,5.6469727,1.8881836,8.3706055,4.6171875c4.4213867,4.4301758,4.9697266,9.8701172,5.1542969,12.0258789
		c0.6123047,7.1523438-2.5043945,12.7807617-3.4360352,14.6030273c-3.4931641,6.8310547-6.3417969,18.9511719-2.5771484,42.0898438
		c-7.612793-4.0722656-23.2368164-13.9550781-30.9233398-32.6411133
		C169.9379883,313.8173828,164.2592773,300.0126953,170.9941406,289.6386719z M143.5444336,360.9111328
		c-3.1259766-2.890625-3.8022461-7.5146484-4.3325195-11.1435547c-0.2919922-1.9970703-1.0419922-7.6347656,1.7177734-13.7441406
		c0.9892578-2.1899414,1.5004883-3.3115234,2.4995117-4.2202148c1.3208008-2.2602539,3.0908203-4.1196289,5.2314453-5.2285156
		c7.2895508-3.7753906,16.5849609,2.3105469,27.4873047,9.4487305
		c10.7197266,7.0185547,18.0083008,14.6474609,22.3334961,19.7568359
		c-11.1811523,1.4326172-20.2446289,3.0126953-26.5532227,4.2138672
		C155.5419922,363.1123047,148.2211914,365.2353516,143.5444336,360.9111328z M183.8789063,394.4345703
		c-10.9453125,18.6835938-13.6220703,20.0205078-15.4619141,20.6152344
		c-2.8862305,0.9335938-6.2441406,0.8583984-9.4428711-0.0683594c-2.2133789-0.2792969-4.1455078-1.4082031-6.0185547-2.5087891
		c-1.4604492-0.8574219-6.3374023-3.7226563-8.5898438-9.4482422c-2.2592773-5.7431641-0.578125-11.0576172,0-12.8847656
		c3.6987305-11.6923828,16.7094727-17.1660156,24.9106445-20.6162109c7.0053711-2.9462891,20.046875-7.2207031,37.7949219-6.0126953
		c-3.3574219,2.8447266-8.1611328,7.3642578-12.8847656,13.7441406
		C190.4975586,382.2373047,189.6489258,384.5849609,183.8789063,394.4345703z M550.0361328,395.0810547
		c-6.8125,14.0244141-23.7539063,19.7314453-36.5380859,15.8369141c1.1191406,1.9316406,1.7265625,3.9726563,1.6376953,6.5859375
		c-0.2734375,12.4804688-14.4023438,21.4619141-25.921875,21.4619141c-13.0976563,0-21.3271484-9.8066406-28.3212891-19.3388672
		c-12.5507813,10.5605469-29.6259766,21.1904297-45.8789063,20.2294922
		c-13.9199219-0.7548828-23.65625-5.6210938-31.6103516-16.4570313
		c-5.7089844-7.7763672-11.3154297-14.2685547-12.6464844-23.4570313
		c-7.9819336,10.4384766-22.3476563,14.3837891-33.534668,10.9755859c1.1191406,1.9316406,1.7265625,3.9726563,1.6376953,6.5859375
		c-0.2734375,12.4804688-14.4023438,21.4619141-25.9223633,21.4619141c-13.097168,0-21.3271484-9.8066406-28.3208008-19.3388672
		c-12.5507813,10.5605469-29.6259766,21.1904297-45.8789063,20.2294922
		c-13.9199219-0.7548828-23.6567383-5.6210938-31.6108398-16.4570313
		c-7.199707-9.8076172-14.2631836-17.5556641-12.7539063-31.2705078
		c1.5751953-14.4013672,13.7114258-25.7832031,26.262207-27.4980469l-9.6689453-12.8242188
		c-7.6142578-10.3544922-7.4082031-24.2744141,1.6450195-33.9433594
		c11.8632813-12.6865234,34.8354492-13.8525391,51.0883789-10.8349609c5.9663086-9.7382813,20.4350586-13.375,27.8408203-2.9492188
		l6.9960938,9.53125c5.8276367,7.3378906,0.4106445,19.4765625-8.9145508,22.4921875
		c0.2729492,2.8115234,0.8217773,5.7597656,1.4394531,8.7099609c9.3935547-12.2080078,18.7211914-28.4599609,16.2514648-41.6933594
		c-1.9882813-9.7382813,14.1962891-11.796875,21.2568359-2.1953125l7.5439453,10.21875
		c2.9487305,3.8427734,4.0463867,9.2578125,3.706543,15.1572266c-0.4277344,7.2255859-2.1992188,14.7539063-4.8525391,22.2412109
		c1.1269531-0.2285156,2.2651367-0.3662109,3.4086914-0.3662109c4.9370117-2.8818359,10.5585938-3.9785156,16.1142578-1.8515625
		c6.7192383,2.6757813,12.1362305,11.5908203,16.2514648,17.3505859c3.3603516-1.921875,7.3388672-1.2373047,9.3935547,2.0546875
		l3.3466797,4.5742188c4.0595703-3.0195313,8.7148438-5.0273438,13.4287109-5.671875l-9.6689453-12.8242188
		c-7.6142578-10.3544922-7.4082031-24.2744141,1.6455078-33.9433594
		c11.8632813-12.6865234,34.8349609-13.8525391,51.0878906-10.8349609c5.9667969-9.7382813,20.4355469-13.375,27.8408203-2.9492188
		l6.9960938,9.53125c5.828125,7.3378906,0.4111328,19.4765625-8.9140625,22.4921875
		c0.2724609,2.8115234,0.8212891,5.7597656,1.4394531,8.7099609c9.3935547-12.2080078,18.7207031-28.4599609,16.2509766-41.6933594
		c-1.9882813-9.7382813,14.1962891-11.796875,21.2568359-2.1953125l7.5439453,10.21875
		c2.9492188,3.8427734,4.046875,9.2578125,3.7070313,15.1572266c-0.4277344,7.2255859-2.1992188,14.7539063-4.8525391,22.2412109
		c1.1269531-0.2285156,2.2646484-0.3662109,3.4082031-0.3662109c4.9375-2.8818359,10.5585938-3.9785156,16.1142578-1.8515625
		c6.7197266,2.6757813,12.1367188,11.5908203,16.2519531,17.3505859c3.3603516-1.921875,7.3378906-1.2373047,9.3935547,2.0546875
		l7.4755859,10.2177734C569.6474609,383.6962891,557.8515625,393.5712891,550.0361328,395.0810547z M590.0332031,363.1425781
		c-1.2900391,1.6035156-2.6220703,3.2529297-4.4892578,4.2431641c-2.5224609,1.8945313-5.4716797,3.0888672-8.3417969,3.2314453
		c-1.8291016,0.0908203-4.6494141-0.1943359-20.6191406-13.0703125c-8.4189453-6.7871094-9.9589844-8.5820313-14.9003906-11.7568359
		c-6.3261719-4.0644531-12.0996094-6.4550781-16.0292969-7.8476563c15.3164063-7.0302734,28.3046875-7.6235352,35.5-7.3652344
		c8.4228516,0.3017578,21.7861328,0.78125,28.9892578,9.8964844c1.125,1.4248047,4.3994141,5.5683594,4.3271484,11.4140625
		C594.3964844,357.7167969,591.0390625,361.8916016,590.0332031,363.1425781z"/>
	<path class="st1" d="M337.2822266,366.6201172c-1.9897461,4.1123047-4.0478516,11.2441406,1.6450195,10.9716797
		c1.8496094-0.0683594,3.5649414-1.3720703,4.9370117-3.2910156
		C341.1914063,372.1074219,338.9975586,369.5683594,337.2822266,366.6201172z"/>
	<path class="st1" d="M556.4121094,365.7285156c-2.0556641-3.2919922-6.0332031-3.9765625-9.3935547-2.0546875
		c-4.1152344-5.7597656-9.5322266-14.6748047-16.2519531-17.3505859
		c-5.5556641-2.1269531-11.1767578-1.0302734-16.1142578,1.8515625c-1.1435547,0-2.28125,0.1376953-3.4082031,0.3662109
		c2.6533203-7.4873047,4.4248047-15.015625,4.8525391-22.2412109c0.3398438-5.8994141-0.7578125-11.3144531-3.7070313-15.1572266
		l-7.5439453-10.21875c-7.0605469-9.6015625-23.2451172-7.5429688-21.2568359,2.1953125
		c2.4697266,13.2333984-6.8574219,29.4853516-16.2509766,41.6933594c-0.6181641-2.9501953-1.1669922-5.8984375-1.4394531-8.7099609
		c9.3251953-3.015625,14.7421875-15.1542969,8.9140625-22.4921875l-6.9960938-9.53125
		c-7.4052734-10.4257813-21.8740234-6.7890625-27.8408203,2.9492188
		c-16.2529297-3.0175781-39.2246094-1.8515625-51.0878906,10.8349609
		c-9.0537109,9.6689453-9.2597656,23.5888672-1.6455078,33.9433594l9.6689453,12.8242188
		c-4.7138672,0.6445313-9.3691406,2.6523438-13.4287109,5.671875l-3.3466797-4.5742188
		c-2.0546875-3.2919922-6.0332031-3.9765625-9.3935547-2.0546875c-4.1152344-5.7597656-9.5322266-14.6748047-16.2514648-17.3505859
		c-5.5556641-2.1269531-11.1772461-1.0302734-16.1142578,1.8515625c-1.1435547,0-2.2817383,0.1376953-3.4086914,0.3662109
		c2.6533203-7.4873047,4.4248047-15.015625,4.8525391-22.2412109c0.3398438-5.8994141-0.7578125-11.3144531-3.706543-15.1572266
		l-7.5439453-10.21875c-7.0605469-9.6015625-23.2451172-7.5429688-21.2568359,2.1953125
		c2.4697266,13.2333984-6.8579102,29.4853516-16.2514648,41.6933594c-0.6176758-2.9501953-1.1665039-5.8984375-1.4394531-8.7099609
		c9.3251953-3.015625,14.7421875-15.1542969,8.9145508-22.4921875l-6.9960938-9.53125
		c-7.4057617-10.4257813-21.8745117-6.7890625-27.8408203,2.9492188
		c-16.2529297-3.0175781-39.2250977-1.8515625-51.0883789,10.8349609
		c-9.0532227,9.6689453-9.2592773,23.5888672-1.6450195,33.9433594l9.6689453,12.8242188
		c-12.5507813,1.7148438-24.6870117,13.0966797-26.262207,27.4980469
		c-1.5092773,13.7148438,5.5541992,21.4628906,12.7539063,31.2705078
		c7.9541016,10.8359375,17.690918,15.7021484,31.6108398,16.4570313
		c16.2529297,0.9609375,33.328125-9.6689453,45.8789063-20.2294922
		c6.9936523,9.5322266,15.2236328,19.3388672,28.3208008,19.3388672c11.5200195,0,25.6489258-8.9814453,25.9223633-21.4619141
		c0.0888672-2.6132813-0.5185547-4.6542969-1.6376953-6.5859375c11.1870117,3.4082031,25.5527344-0.5371094,33.534668-10.9755859
		c1.3310547,9.1884766,6.9375,15.6806641,12.6464844,23.4570313c7.9541016,10.8359375,17.6904297,15.7021484,31.6103516,16.4570313
		c16.2529297,0.9609375,33.328125-9.6689453,45.8789063-20.2294922
		c6.9941406,9.5322266,15.2236328,19.3388672,28.3212891,19.3388672c11.5195313,0,25.6484375-8.9814453,25.921875-21.4619141
		c0.0888672-2.6132813-0.5185547-4.6542969-1.6376953-6.5859375c12.7841797,3.8945313,29.7255859-1.8125,36.5380859-15.8369141
		c7.8154297-1.5097656,19.6113281-11.3847656,13.8515625-19.1347656L556.4121094,365.7285156z M491.0791016,386.3007813
		c0.7773438,2.2089844,1.8583984,4.3125,3.2724609,6.2412109l3.703125,5.0410156
		c-2.2792969-0.3867188-5.3916016-1.7421875-10.4179688-6.546875
		C488.7851563,389.5078125,489.9345703,387.9248047,491.0791016,386.3007813z M314.8027344,386.3007813
		c0.7773438,2.2089844,1.8588867,4.3125,3.2729492,6.2412109l3.703125,5.0410156
		c-2.2797852-0.3867188-5.3916016-1.7421875-10.4179688-6.546875
		C312.5087891,389.5078125,313.6586914,387.9248047,314.8027344,386.3007813z M305.0712891,423.9462891
		c-11.5878906,0-20.8452148-10.3554688-27.2929688-21.5332031c-15.5654297,14.0595703-32.4345703,23.3164063-46.6308594,22.4941406
		c-39.8408203-2.2626953-42.7197266-47.3173828-11.3144531-55.8876953
		c6.4477539-1.4394531,10.0810547,0.8925781,7.6811523,5.8974609c-5.28125,11.109375,6.309082,17.1455078,17.074707,13.4414063
		c6.3779297-2.1933594,14.2636719-6.9257813,22.3564453-13.2353516
		c-4.7998047-18.3779297-5.9663086-38.1972656-3.4277344-52.5976563c-5.2114258-0.0703125-9.3261719,0.3427734-12.480957,1.2333984
		c-13.6445313,3.7724609-9.1889648,19.1328125,0.2758789,17.3505859c1.9208984-0.3447266,1.7827148,2.0556641,1.7827148,2.0556641
		c-2.7431641,10.4921875-11.8637695,15.4296875-20.984375,15.15625
		c-27.9101563-0.8222656-36.4135742-47.5214844,15.0180664-48.4814453
		c6.7207031-0.1357422,13.3740234,0.5488281,18.9956055,1.9208984c3.9780273-9.8085938,14.5395508-11.796875,19.8891602-7.8876953
		c6.8579102,5.0087891,1.0307617,17.9677734-8.5717773,17.9677734c0.4121094,9.1875,3.5664063,22.4228516,8.7089844,35.453125
		c15.9770508-17.4179688,28.456543-38.6074219,25.3720703-54.9970703c-0.6186523-2.7441406,2.3999023-3.4960938,4.4570313-3.4287109
		c9.8051758,0.2060547,12.4106445,7.8164063,11.9291992,16.3203125
		c-1.1665039,19.6123047-13.4414063,44.4345703-29.96875,65.5566406
		c5.621582,8.7773438,12.1391602,15.9091797,18.9956055,19.2685547c2.2612305,1.0957031,4.730957,2.125,7.7485352,1.8505859
		c1.0961914-0.0673828,1.6450195,0.5488281,1.9179688,1.578125
		C329.2109375,413.2490234,317.3461914,423.9462891,305.0712891,423.9462891z M239.0097656,378.9638672l-4.6625977-6.3759766
		c9.0532227,2.125,19.4072266-0.9609375,25.9223633-7.9550781c0.5488281,3.0166016,1.1660156,5.9648438,1.8510742,8.8466797
		c-5.484375,4.0419922-15.5654297,10.9013672-22.2192383,11.65625
		C240.3803711,383.0791016,240.2460938,380.8818359,239.0097656,378.9638672z M363.1333008,380.4042969
		c-8.5029297,22.1503906-46.1503906,23.7285156-45.4658203-3.9765625c0.137207-3.2246094,0.8222656-6.5146484,2.1254883-9.6015625
		c2.8115234-6.4453125,11.1772461-15.4296875,19.8862305-14.4697266c14.2636719-9.5322266,25.1679688,4.9375,25.1679688,18.6513672
		c0,0.6181641-0.0688477,1.3056641-0.0688477,1.9208984c2.8818359-0.2724609,4.9404297-1.9208984,6.6542969-4.3876953
		c3.015625-3.8417969,7.2666016-1.0302734,5.4150391,2.5380859
		C373.3535156,376.9765625,369.1669922,379.8554688,363.1333008,380.4042969z M481.3476563,423.9462891
		c-11.5878906,0-20.8457031-10.3554688-27.2929688-21.5332031c-15.5654297,14.0595703-32.4345703,23.3164063-46.6308594,22.4941406
		c-39.8408203-2.2626953-42.7202148-47.3173828-11.3144531-55.8876953
		c6.4472656-1.4394531,10.0810547,0.8925781,7.6806641,5.8974609c-5.28125,11.109375,6.3095703,17.1455078,17.0751953,13.4414063
		c6.3779297-2.1933594,14.2636719-6.9257813,22.3564453-13.2353516
		c-4.7998047-18.3779297-5.9667969-38.1972656-3.4277344-52.5976563c-5.2119141-0.0703125-9.3261719,0.3427734-12.4814453,1.2333984
		c-13.6435547,3.7724609-9.1884766,19.1328125,0.2763672,17.3505859c1.9208984-0.3447266,1.7822266,2.0556641,1.7822266,2.0556641
		c-2.7431641,10.4921875-11.8632813,15.4296875-20.984375,15.15625
		c-27.9101563-0.8222656-36.4130859-47.5214844,15.0185547-48.4814453
		c6.7207031-0.1357422,13.3740234,0.5488281,18.9960938,1.9208984c3.9775391-9.8085938,14.5390625-11.796875,19.8886719-7.8876953
		c6.8574219,5.0087891,1.0302734,17.9677734-8.5712891,17.9677734c0.4111328,9.1875,3.5654297,22.4228516,8.7080078,35.453125
		c15.9775391-17.4179688,28.4570313-38.6074219,25.3720703-54.9970703
		c-0.6181641-2.7441406,2.4003906-3.4960938,4.4570313-3.4287109c9.8056641,0.2060547,12.4111328,7.8164063,11.9296875,16.3203125
		c-1.1669922,19.6123047-13.4414063,44.4345703-29.96875,65.5566406
		c5.6210938,8.7773438,12.1386719,15.9091797,18.9951172,19.2685547c2.2617188,1.0957031,4.7314453,2.125,7.7490234,1.8505859
		c1.0957031-0.0673828,1.6445313,0.5488281,1.9179688,1.578125
		C505.4873047,413.2490234,493.6220703,423.9462891,481.3476563,423.9462891z M415.2861328,378.9638672l-4.6630859-6.3759766
		c9.0537109,2.125,19.4072266-0.9609375,25.9228516-7.9550781c0.5488281,3.0166016,1.1660156,5.9648438,1.8505859,8.8466797
		c-5.484375,4.0419922-15.5654297,10.9013672-22.21875,11.65625
		C416.65625,383.0791016,416.5224609,380.8818359,415.2861328,378.9638672z M553.1240234,371.0791016
		c-3.4951172,5.8974609-7.6816406,8.7763672-13.7148438,9.3251953
		c-8.5029297,22.1503906-46.1503906,23.7285156-45.4658203-3.9765625c0.1376953-3.2246094,0.8222656-6.5146484,2.1259766-9.6015625
		c2.8115234-6.4453125,11.1777344-15.4296875,19.8857422-14.4697266c14.2636719-9.5322266,25.1679688,4.9375,25.1679688,18.6513672
		c0,0.6181641-0.0683594,1.3056641-0.0683594,1.9208984c2.8808594-0.2724609,4.9394531-1.9208984,6.6533203-4.3876953
		C550.7236328,364.6992188,554.9746094,367.5107422,553.1240234,371.0791016z"/>
	<path class="st1" d="M513.5585938,366.6201172c-1.9902344,4.1123047-4.0478516,11.2441406,1.6455078,10.9716797
		c1.8486328-0.0683594,3.5644531-1.3720703,4.9365234-3.2910156
		C517.4677734,372.1074219,515.2734375,369.5683594,513.5585938,366.6201172z"/>
	<path class="st2" d="M326.6025391,403.4423828c-0.2729492-1.0292969-0.8217773-1.6455078-1.9179688-1.578125
		c-3.0175781,0.2744141-5.4873047-0.7548828-7.7485352-1.8505859c-6.8564453-3.359375-13.3740234-10.4912109-18.9956055-19.2685547
		c16.5273438-21.1220703,28.8022461-45.9443359,29.96875-65.5566406
		c0.4814453-8.5039063-2.1240234-16.1142578-11.9291992-16.3203125c-2.0571289-0.0673828-5.0756836,0.6845703-4.4570313,3.4287109
		c3.0844727,16.3896484-9.3950195,37.5791016-25.3720703,54.9970703c-5.1425781-13.0302734-8.296875-26.265625-8.7089844-35.453125
		c9.6025391,0,15.4296875-12.9589844,8.5717773-17.9677734c-5.3496094-3.9091797-15.9111328-1.9208984-19.8891602,7.8876953
		c-5.621582-1.3720703-12.2749023-2.0566406-18.9956055-1.9208984
		c-51.4316406,0.9599609-42.9282227,47.6591797-15.0180664,48.4814453c9.1206055,0.2734375,18.2412109-4.6640625,20.984375-15.15625
		c0,0,0.1381836-2.4003906-1.7827148-2.0556641c-9.4648438,1.7822266-13.9204102-13.578125-0.2758789-17.3505859
		c3.1547852-0.890625,7.2695313-1.3037109,12.480957-1.2333984c-2.5385742,14.4003906-1.3720703,34.2197266,3.4277344,52.5976563
		c-8.0927734,6.3095703-15.9785156,11.0419922-22.3564453,13.2353516
		c-10.765625,3.7041016-22.355957-2.3320313-17.074707-13.4414063c2.3999023-5.0048828-1.2333984-7.3369141-7.6811523-5.8974609
		c-31.4052734,8.5703125-28.5263672,53.625,11.3144531,55.8876953c14.1962891,0.8222656,31.0654297-8.4345703,46.6308594-22.4941406
		c6.4477539,11.1777344,15.7050781,21.5332031,27.2929688,21.5332031
		C317.3461914,423.9462891,329.2109375,413.2490234,326.6025391,403.4423828z"/>
	<path class="st3" d="M376.8476563,371.0791016c1.8515625-3.5683594-2.3994141-6.3798828-5.4150391-2.5380859
		c-1.7138672,2.4667969-3.7724609,4.1152344-6.6542969,4.3876953c0-0.6152344,0.0688477-1.3027344,0.0688477-1.9208984
		c0-13.7138672-10.9042969-28.1835938-25.1679688-18.6513672c-8.7089844-0.9599609-17.074707,8.0244141-19.8862305,14.4697266
		c-1.3032227,3.0869141-1.9882813,6.3769531-2.1254883,9.6015625c-0.6845703,27.7050781,36.9628906,26.1269531,45.4658203,3.9765625
		C369.1669922,379.8554688,373.3535156,376.9765625,376.8476563,371.0791016z M338.9272461,377.5917969
		c-5.6928711,0.2724609-3.6347656-6.859375-1.6450195-10.9716797c1.715332,2.9482422,3.9091797,5.4873047,6.5820313,7.6806641
		C342.4921875,376.2197266,340.7768555,377.5234375,338.9272461,377.5917969z"/>
	<path class="st2" d="M502.8789063,403.4423828c-0.2734375-1.0292969-0.8222656-1.6455078-1.9179688-1.578125
		c-3.0175781,0.2744141-5.4873047-0.7548828-7.7490234-1.8505859c-6.8564453-3.359375-13.3740234-10.4912109-18.9951172-19.2685547
		c16.5273438-21.1220703,28.8017578-45.9443359,29.96875-65.5566406
		c0.4814453-8.5039063-2.1240234-16.1142578-11.9296875-16.3203125c-2.0566406-0.0673828-5.0751953,0.6845703-4.4570313,3.4287109
		c3.0849609,16.3896484-9.3945313,37.5791016-25.3720703,54.9970703c-5.1425781-13.0302734-8.296875-26.265625-8.7080078-35.453125
		c9.6015625,0,15.4287109-12.9589844,8.5712891-17.9677734c-5.3496094-3.9091797-15.9111328-1.9208984-19.8886719,7.8876953
		c-5.6220703-1.3720703-12.2753906-2.0566406-18.9960938-1.9208984
		c-51.4316406,0.9599609-42.9287109,47.6591797-15.0185547,48.4814453c9.1210938,0.2734375,18.2412109-4.6640625,20.984375-15.15625
		c0,0,0.1386719-2.4003906-1.7822266-2.0556641c-9.4648438,1.7822266-13.9199219-13.578125-0.2763672-17.3505859
		c3.1552734-0.890625,7.2695313-1.3037109,12.4814453-1.2333984c-2.5390625,14.4003906-1.3720703,34.2197266,3.4277344,52.5976563
		c-8.0927734,6.3095703-15.9785156,11.0419922-22.3564453,13.2353516
		c-10.765625,3.7041016-22.3564453-2.3320313-17.0751953-13.4414063c2.4003906-5.0048828-1.2333984-7.3369141-7.6806641-5.8974609
		c-31.4057617,8.5703125-28.5263672,53.625,11.3144531,55.8876953c14.1962891,0.8222656,31.0654297-8.4345703,46.6308594-22.4941406
		c6.4472656,11.1777344,15.7050781,21.5332031,27.2929688,21.5332031
		C493.6220703,423.9462891,505.4873047,413.2490234,502.8789063,403.4423828z"/>
	<path class="st3" d="M547.7080078,368.5410156c-1.7138672,2.4667969-3.7724609,4.1152344-6.6533203,4.3876953
		c0-0.6152344,0.0683594-1.3027344,0.0683594-1.9208984c0-13.7138672-10.9042969-28.1835938-25.1679688-18.6513672
		c-8.7080078-0.9599609-17.0742188,8.0244141-19.8857422,14.4697266c-1.3037109,3.0869141-1.9882813,6.3769531-2.1259766,9.6015625
		c-0.6845703,27.7050781,36.9628906,26.1269531,45.4658203,3.9765625
		c6.0332031-0.5488281,10.2197266-3.4277344,13.7148438-9.3251953
		C554.9746094,367.5107422,550.7236328,364.6992188,547.7080078,368.5410156z M515.2041016,377.5917969
		c-5.6933594,0.2724609-3.6357422-6.859375-1.6455078-10.9716797c1.7148438,2.9482422,3.9091797,5.4873047,6.5820313,7.6806641
		C518.7685547,376.2197266,517.0527344,377.5234375,515.2041016,377.5917969z"/>
	<path class="st1" d="M207.0712891,363.5107422c-4.7548828,2.4609375-11.3959961,6.6669922-17.1796875,13.7441406
		c-4.2397461,5.1875-4.1005859,7.1240234-10.3076172,17.1796875
		c-12.5395508,20.3134766-18.1923828,20.6484375-19.7568359,20.6152344
		c-0.2895508-0.0058594-0.5727539-0.0322266-0.8530273-0.0683594c3.1987305,0.9267578,6.5566406,1.0019531,9.4428711,0.0683594
		c1.8398438-0.5947266,4.5166016-1.9316406,15.4619141-20.6152344c5.7700195-9.8496094,6.6186523-12.1972656,10.3076172-17.1796875
		C198.9101563,370.875,203.7138672,366.3554688,207.0712891,363.5107422z"/>
	<path class="st1" d="M203.6352539,296.5102539c0.1318359,7.1884766-2.5014648,12.4765625-3.4360352,14.6030273
		c-3.3271484,7.5708008-4.9550781,20.1845703,3.4360352,42.0898438
		c-3.7646484-23.1386719-0.9160156-35.2587891,2.5771484-42.0898438c0.9316406-1.8222656,4.0483398-7.4506836,3.4360352-14.6030273
		c-0.1845703-2.1557617-0.7329102-7.5957031-5.1542969-12.0258789c-2.7236328-2.7290039-5.855957-4.0107422-8.3706055-4.6171875
		c0.2143555,0.1020508,0.4287109,0.203125,0.6401367,0.3227539
		C203.4047852,283.9379883,203.5849609,293.7661133,203.6352539,296.5102539z"/>
	<path class="st1" d="M173.5712891,339.4589844c6.4394531,3.3955078,15.2148438,8.5996094,24.9101563,16.3212891
		c-4.3251953-5.109375-11.6137695-12.7382813-22.3334961-19.7568359
		c-10.9023438-7.1381836-20.1977539-13.2241211-27.4873047-9.4487305c-2.140625,1.1088867-3.9106445,2.9682617-5.2314453,5.2285156
		l0.0776367-0.074707C149.2963867,326.6606445,163.8710938,334.3452148,173.5712891,339.4589844z"/>
	<path class="st3" d="M171.9282227,359.9941406c6.3085938-1.2011719,15.3720703-2.78125,26.5532227-4.2138672
		c-9.6953125-7.7216797-18.4707031-12.9257813-24.9101563-16.3212891
		c-9.7001953-5.1137695-24.2749023-12.7983398-30.0644531-7.7304688l-0.0776367,0.074707
		c-0.9990234,0.9086914-1.5102539,2.0302734-2.4995117,4.2202148c-2.7597656,6.109375-2.0097656,11.7470703-1.7177734,13.7441406
		c0.5302734,3.6289063,1.206543,8.2529297,4.3325195,11.1435547
		C148.2211914,365.2353516,155.5419922,363.1123047,171.9282227,359.9941406z"/>
	<path class="st2" d="M203.6352539,353.203125c-8.3911133-21.9052734-6.7631836-34.519043-3.4360352-42.0898438
		c0.9345703-2.1264648,3.5678711-7.4145508,3.4360352-14.6030273c-0.050293-2.7441406-0.2304688-12.5722656-6.871582-16.3203125
		c-0.2114258-0.1196289-0.4257813-0.2207031-0.6401367-0.3227539c-4.4165039-2.0991211-9.3432617-0.578125-12.2446289,0.3227539
		c-0.8364258,0.2592773-8.5439453,2.7612305-12.8847656,9.4487305c-6.7348633,10.3740234-1.0561523,24.1787109,1.7177734,30.9233398
		C180.3984375,339.2480469,196.0224609,349.1308594,203.6352539,353.203125z"/>
	<path class="st2" d="M179.5839844,394.4345703c6.2070313-10.0556641,6.0678711-11.9921875,10.3076172-17.1796875
		c5.7836914-7.0771484,12.4248047-11.2832031,17.1796875-13.7441406
		c-17.7480469-1.2080078-30.7895508,3.0664063-37.7949219,6.0126953
		c-8.2011719,3.4501953-21.2119141,8.9238281-24.9106445,20.6162109c-0.578125,1.8271484-2.2592773,7.1416016,0,12.8847656
		c2.2524414,5.7255859,7.1293945,8.5908203,8.5898438,9.4482422c1.8730469,1.1005859,3.8051758,2.2294922,6.0185547,2.5087891
		c0.2802734,0.0361328,0.5634766,0.0625,0.8530273,0.0683594
		C161.3916016,415.0830078,167.0444336,414.7480469,179.5839844,394.4345703z"/>
	<path class="st1" d="M560.3876953,356.1054688c-8.875-6.8232422-9.4023438-8.5849609-14.9003906-11.7578125
		c-7.5-4.3261719-14.7949219-5.8222656-19.8339844-6.4052734c3.9296875,1.3925781,9.703125,3.7832031,16.0292969,7.8476563
		c4.9414063,3.1748047,6.4814453,4.9697266,14.9003906,11.7568359
		c15.9697266,12.8759766,18.7900391,13.1611328,20.6191406,13.0703125c2.8701172-0.1425781,5.8193359-1.3369141,8.3417969-3.2314453
		c-0.2363281,0.1259766-0.4785156,0.2441406-0.7324219,0.3466797
		C583.4365234,368.2871094,578.3173828,369.8886719,560.3876953,356.1054688z"/>
	<path class="st1" d="M508.8183594,291.2382813c5.3886719,4.8779297,11.9824219,14.6577148,16.4169922,36.4194336
		c0.0771484-22.222168-5.6005859-32.8496094-11.0898438-38.4389648c-1.5419922-1.5693359-5.6503906-5.3696289-7.9482422-11.7817383
		c-0.8769531-2.4477539-4.0175781-11.2143555,0.6074219-16.7651367c0.1474609-0.1767578,0.3027344-0.3378906,0.4580078-0.5
		c-2.0234375,1.3808594-4.3681641,3.5683594-5.8642578,6.9008789c-2.4287109,5.4086914-1.0878906,10.4116211-0.5273438,12.3837891
		C502.7304688,285.9975586,507.3808594,289.9370117,508.8183594,291.2382813z"/>
	<path class="st1" d="M547.2529297,305.387207c6.875-7.7875977,17.2050781-19.4892578,24.0361328-16.9443359l0.0927734,0.0400391
		c-1.9287109-1.5585938-4.1210938-2.6113281-6.3896484-2.8745117c-7.7246094-0.8964844-13.9150391,7.6162109-21.1757813,17.6005859
		c-7.1396484,9.8168945-11.0341797,19.0224609-13.1494141,25.0009766
		C536.6621094,318.1142578,542.6884766,310.5576172,547.2529297,305.387207z"/>
	<path class="st3" d="M547.2529297,305.387207c-4.5644531,5.1704102-10.5908203,12.7270508-16.5859375,22.8227539
		c10.3857422-2.4853516,18.9453125-4.1298828,24.9365234-5.1845703c15.5625-2.7402344,22.7607422-3.3173828,25.4511719-8.71875
		c1.7988281-3.6103516,0.8447266-7.9335938,0.0957031-11.3266602c-0.4111328-1.8666992-1.640625-7.112793-6.1367188-11.5976563
		c-1.6123047-1.6079102-2.4414063-2.4296875-3.6318359-2.8994141l-0.0927734-0.0400391
		C564.4580078,285.8979492,554.1279297,297.5996094,547.2529297,305.387207z"/>
	<path class="st2" d="M506.1972656,277.4370117c2.2978516,6.4121094,6.40625,10.2124023,7.9482422,11.7817383
		c5.4892578,5.5893555,11.1669922,16.2167969,11.0898438,38.4389648
		c5.3769531-6.1640625,15.8984375-20.1655273,16.4326172-39.2993164c0.1923828-6.90625,0.5869141-21.0415039-8.8632813-27.9697266
		c-6.0908203-4.4658203-13.7587891-4.0942383-14.5859375-4.043457c-2.8730469,0.1762695-7.7480469,0.4833984-10.9560547,3.8266602
		c-0.1552734,0.1621094-0.3105469,0.3232422-0.4580078,0.5
		C502.1796875,266.2226563,505.3203125,274.9892578,506.1972656,277.4370117z"/>
	<path class="st2" d="M561.1533203,330.5771484c-7.1953125-0.2583008-20.1835938,0.3349609-35.5,7.3652344
		c5.0390625,0.5830078,12.3339844,2.0791016,19.8339844,6.4052734c5.4980469,3.1728516,6.0253906,4.9345703,14.9003906,11.7578125
		c17.9296875,13.7832031,23.0488281,12.1816406,24.4238281,11.6269531c0.2539063-0.1025391,0.4960938-0.2207031,0.7324219-0.3466797
		c1.8671875-0.9902344,3.1992188-2.6396484,4.4892578-4.2431641c1.0058594-1.2509766,4.3632813-5.4257813,4.4365234-11.2548828
		c0.0722656-5.8457031-3.2021484-9.9892578-4.3271484-11.4140625
		C582.9394531,331.3583984,569.5761719,330.8789063,561.1533203,330.5771484z"/>
</g>
</svg>
