<?xml version="1.0" encoding="utf-8"?>
<!-- Generator: Adobe Illustrator 22.0.1, SVG Export Plug-In . SVG Version: 6.00 Build 0)  -->
<svg version="1.1" id="Шар_1" xmlns="http://www.w3.org/2000/svg" xmlns:xlink="http://www.w3.org/1999/xlink" x="0px" y="0px"
	 viewBox="0 0 714 714" style="enable-background:new 0 0 714 714;" xml:space="preserve">
<g>
	<path d="M218.8378906,155.8735352c-4.6318359,12.7739258-6.7050781,31.9335938-7.265625,36.8022461
		C236.9619141,192.9155273,233.2060547,115.7978516,218.8378906,155.8735352z"/>
	<path d="M275.6894531,210.2387695c-2.3164063,4.7871094-4.7119141,13.0898438,1.9150391,12.7719727
		c2.1533203-0.0795898,4.1503906-1.597168,5.7470703-3.8300781
		C280.2402344,216.6264648,277.6865234,213.6713867,275.6894531,210.2387695z"/>
	<path d="M398.1279297,201.8540039c-2.9550781,1.7587891-5.1113281,4.7124023-6.0664063,7.8237305
		C404.9931641,208.7993164,407.3076172,196.3466797,398.1279297,201.8540039z"/>
	<path d="M490.265625,339.2197266c-2.3164063,4.7871094-4.7119141,13.0908203,1.9150391,12.7724609
		c2.1533203-0.0800781,4.1503906-1.5976563,5.7470703-3.8300781
		C494.8164063,345.6074219,492.2626953,342.6523438,490.265625,339.2197266z"/>
	<path d="M612.1240234,350.0771484l-8.3017578-11.3349609c0.6357422-2.4726563-0.1611328-4.46875-1.5185547-6.3056641
		l-8.7021484-11.8955078c-4.8691406-6.6279297-22.1123047-9.3417969-30.2548828,1.9150391
		c-5.8291016-9.2597656-22.2734375-10.3779297-29.8574219-2.2363281c-2.65625,2.8369141-5.09375,7.2480469-7.1435547,12.1972656
		c-4.4414063-6.4018555-9.9589844-14.1962891-16.5595703-16.8242188
		c-6.4667969-2.4765625-13.0117188-1.2001953-18.7587891,2.1542969c-1.8691406,0-3.7294922,0.28125-5.5527344,0.7924805
		c0.1757813-0.7685547,0.3583984-1.543457,0.5283203-2.3061523c2.875-12.6962891,7.3447266-30.9794922-0.5576172-41.6767578
		l-8.7021484-11.8950195c-8.0634766-11.0166016-26.9824219-8.7021484-24.6679688,2.6337891
		c1.9150391,9.659668-9.0976563,39.2749023-16.2861328,50.1342773c3.9121094-21.4736328-4.1513672-29.0576172-14.5292969-43.1875
		c-3.125-4.5356445-7.2558594-8.1464844-12.0253906-10.9038086c13.8359375-4.7553711,24.0908203-18.0610352,30.8378906-30.6669922
		c1.6748047-3.1098633,1.8349609-6.8632813-0.4794922-9.6572266l-7.5839844-10.2163086
		c-3.3515625-4.6308594-1.9150391-2.3945313-4.3095703-4.3911133l-6.8652344-9.4194336
		c-5.8271484-7.9038086-12.4550781-11.1782227-23.0703125-11.4179688
		c-11.3300781-0.265625-20.5039063,4.0668945-27.0019531,10.6176758l-3.7441406-5.1035156
		c-7.2666016-9.8168945-17.8837891-5.1879883-22.7529297,1.7573242l-1.4355469-1.9155273
		c-4.9482422-7.5839844-21.0751953-6.7055664-27.7011719,0.3178711c-2.1821289,2.2729492-3.7172852,5.6630859-4.7856445,9.4287109
		c-4.078125-5.7270508-8.9487305-11.8027344-14.6206055-14.0610352c-6.4667969-2.4755859-13.0117188-1.199707-18.7587891,2.1547852
		c-1.7597656,0-3.5112305,0.2529297-5.2314453,0.7084961c0.7226563-2.5029297,1.2749023-5.1054688,1.6201172-7.8164063
		c1.9941406-15.8041992-2.4755859-23.7890625-10.2988281-34.1669922l-4.6289063-6.3847656
		c-10.7792969-14.7670898-29.2988281-18.3579102-45.5849609-9.7368164
		c-19.7158203,10.4589844-24.0273438,29.8569336-28.4179688,48.7758789
		c-1.0371094-0.7172852-2.1547852-1.6757813-3.2729492-2.6323242c-1.1967773-3.1933594-1.5976563-6.3876953-0.4794922-9.4213867
		c2.0766602-5.1894531-1.5957031-8.7021484-5.1083984-13.3310547c-3.831543-5.2695313-6.5473633-10.7788086-13.0932617-10.0600586
		c-21.2329102,2.4760742-35.762207,33.4482422-19.5576172,55.5615234
		c8.4628906,11.4145508,13.0917969,20.0385742,27.5429688,26.1035156c-0.637207,1.0366211-1.2763672,2.0766602-1.9150391,3.0332031
		c-21.3164063-9.8203125-38.7993164,21.7924805-24.5893555,41.1123047l8.1411133,11.0966797
		c10.2182617,13.9702148,29.059082,16.046875,42.8691406,5.9868164
		c11.1787109,10.1381836,27.2255859,18.5195313,42.0722656,18.7587891
		c31.0556641,0.5610352,40.3154297-30.1767578,27.3017578-47.2602539l-1.7568359-2.3925781
		c-8.3818359-11.4960938-13.5732422-21.0766602-31.6132813-21.3964844c-2.4755859,0-7.2626953,0.4794922-9.8984375,1.8369141
		c0.5576172-2.793457,0.9570313-5.6689453,1.4355469-8.5405273c9.1870117-1.4067383,17.902832-4.4746094,25.4624023-9.0405273
		c-0.7226563,7.4121094,0.9682617,14.8549805,5.3686523,20.855957l8.6210938,11.7353516
		c11.7451172,16.8964844,42.0292969,13.9321289,54.3647461-5.5219727c0.3383789,0.4750977,0.6816406,0.9545898,1.0454102,1.4521484
		c5.7490234,7.7421875,9.5019531,15.0869141,19.9580078,15.0869141c11.2353516,0,22.2392578-12.5791016,28.7685547-22.3168945
		l6.8466797,9.5395508c1.15625,1.5566406,2.3300781,2.9560547,3.5419922,4.2158203
		c-23.0195313,1.5307617-45.1875,14.3583984-45.5058594,35.1191406c-0.078125,6.5458984,1.9179688,12.2929688,5.3496094,16.8447266
		l8.7001953,11.8955078c10.0605469,13.6513672,30.3349609,14.8476563,42.5478516,6.0664063
		c-3.671875,11.734375-3.1923828,18.2001953,2.7939453,26.34375c4.2314453,5.7470703,8.4628906,13.4091797,15.0869141,16.2861328
		c-0.796875,0.2382813-1.5957031,0.3994141-2.4726563,0.3994141c-5.6689453,0.078125-7.0263672-1.9970703-7.9833984-4.4697266
		c-1.5175781-4.0732422-3.5126953-8.5419922-8.7802734-8.3808594
		c-18.4414063,0.6386719-28.7412109,29.6181641-15.1689453,48.1386719l8.1435547,11.0957031
		c3.7197266,5.0507813,8.3779297,8.6777344,13.5927734,11.0078125c-0.7617188,1.6953125-1.2158203,3.4804688-1.265625,5.2607422
		c-0.2392578,6.3066406,2.2363281,8.4628906,4.8681641,12.2148438c-0.4921875,0.7675781-1.0058594,1.5126953-1.5146484,2.2460938
		c-4.6875-6.6894531-10.7314453-16.1396484-18.1357422-19.0878906c-6.4667969-2.4765625-13.0117188-1.2001953-18.7587891,2.1542969
		c-1.5029297,0-3,0.1826172-4.4765625,0.5195313c4.6621094-17.5332031,7.5878906-33.9355469,2.3027344-42.1123047
		l-9.6591797-13.171875c-8.4628906-11.5742188-27.7011719-8.7021484-25.0664063,2.7939453
		c0.7197266,3.1113281,0.0810547,7.5029297-0.5576172,10.8574219c-4.1513672,9.1777344-12.5332031,17.2412109-20.2783203,24.7451172
		l-10.9355469-14.6884766c2.5541992-4.6308594,7.2666016-7.6640625,2.7158203-13.890625l-8.1416016-11.0947266
		c-7.8237305-10.6181641-23.5493164-7.1884766-31.7744141,4.2294922
		c-23.3095703-4.0703125-56.4399414,3.4326172-65.5380859,26.6640625
		c-3.9121094,9.8984375-2.1547852,19.6376953,3.2709961,26.7421875l7.5058594,10.21875
		c6.8657227,9.3378906,15.8041992,14.6074219,28.8193359,13.171875c-2.715332,6.625-6.0668945,12.9316406-10.1381836,18.1210938
		c-3.9121094,4.8701172-10.9384766,7.8242188-16.0483398,6.3066406l-2.7138672-3.7519531
		c-3.1948242-4.3115234-5.4277344-8.8623047-10.3779297-8.703125c-18.3632813,0.640625-28.659668,29.5380859-15.4082031,46.9423828
		l8.1386719,11.0986328c16.84375,22.9101563,50.375,18.359375,70.4116211-1.2773438
		c18.1201172-17.8056641,23.5498047-44.7060547,27.4614258-70.6523438l3.3510742,4.7910156
		c3.2763672,4.390625,7.3461914,11.9746094,12.8535156,13.0917969c-0.956543,4.4726563-1.597168,8.8632813-1.675293,12.6142578
		c-0.081543,13.0927734,3.1118164,21.7919922,10.2182617,31.3730469c7.9833984,10.8564453,13.6494141,21.15625,29.6962891,21.15625
		c14.8486328,0,34.0849609-13.4111328,29.6152344-29.9375c-0.140625-0.5634766-0.5224609-1.3310547-1.0390625-2.203125
		c14.2636719,2.4228516,31.3994141-4.4072266,38.6582031-19.3496094c0.9189453-0.1777344,1.8867188-0.4589844,2.875-0.8222656
		c0.3964844,0.7285156,0.8388672,1.4570313,1.3710938,2.1767578l2.3945313,3.1933594
		c5.9052734,8.0634766,9.1796875,15.1679688,19.8769531,15.1679688c7.0693359,0,14.5751953-5.7011719,21.0166016-12.8037109
		l0.0771484,0.1083984c6.4658203,8.7021484,13.4111328,12.6923828,25.0664063,12.7724609
		c19.6396484,0.2392578,33.6103516-16.6845703,42.0712891-32.4912109c1.6748047-3.1103516,1.8349609-6.8642578-0.4794922-9.6572266
		l-7.5839844-10.2167969c-3.3515625-4.6308594-1.9150391-2.3945313-4.3095703-4.3916016l-6.8652344-9.4189453
		c-5.8271484-7.9033203-12.4550781-11.1787109-23.0703125-11.4179688
		c-11.2949219-0.2646484-20.4462891,4.0410156-26.9394531,10.5585938c-1.4716797-1.9599609-2.8300781-3.7236328-3.5771484-4.7285156
		c-3.6425781-5.0585938-8.5449219-6.1210938-15.4638672-5.2714844
		c14.3505859-5.1210938,27.8320313-16.4179688,35.2314453-32.2324219
		c3.0361328-6.5439453,5.9072266-13.5019531,8.5996094-20.6689453l6.5605469,8.9306641
		c11.1552734,16.0478516,39.0400391,14.1835938,52.3818359-2.7119141l3.8916016,5.265625
		c8.5429688,11.6542969,22.4345703,10.2177734,32.4130859,2.5537109c2.9501953,3.8310547,7.5839844,5.9072266,13.1738281,5.9091797
		c13.7324219,0,28.8183594-21.2333984,34.7275391-32.4111328
		C614.2792969,356.5429688,614.4404297,352.7929688,612.1240234,350.0771484z M209.2539063,211.6796875
		c-2.15625,16.2045898-5.5078125,32.5708008-13.7324219,45.6625977c4.0732422,2.4726563,8.4648438,4.0698242,13.4931641,4.4692383
		c13.4111328,0.8769531,21.234375-10.7768555,13.8125-17.4042969c-1.5166016-1.4360352,0.6386719-2.8720703,0.6386719-2.8720703
		c2.3955078-1.0366211,5.0302734-1.4360352,7.8232422-1.4360352c34.5693359,0.5576172,33.2900391,49.4951172-3.1113281,48.855957
		c-15.0898438-0.3178711-31.6123047-9.8168945-41.9121094-20.3564453
		c-7.2631836,6.7856445-15.965332,8.7822266-23.5498047,7.4243164
		c-34.1665039-6.4658203-15.4858398-56.9189453,7.5058594-40.3149414
		c4.9501953-6.0683594,8.3828125-13.7319336,11.0170898-22.0336914
		c-12.7724609-1.2792969-24.2685547-5.7485352-32.012207-13.7319336
		c-8.5424805-8.8637695-10.6958008-22.9921875-5.1083984-34.7275391
		c3.5927734-7.5844727,10.6191406-14.769043,19.2402344-15.7260742c2.715332-0.3178711,5.1079102,1.3579102,3.9116211,4.3115234
		c-4.0717773,10.6958008,5.5874023,26.0253906,20.5961914,33.9272461
		c1.5957031-6.7055664,3.1113281-13.4926758,4.8681641-20.1982422c13.4111328-51.9677734,72.5673828-43.9042969,66.8984375,0.878418
		C257.15625,187.7241211,241.3496094,208.2421875,209.2539063,211.6796875z M372.5683594,240.2094727
		c-5.1542969-4.3706055-7.5830078-10.8852539-7.5761719-17.7788086c-1.7333984,0.4477539-3.5039063,0.578125-5.2148438,0.4785156
		c-1.5439453-0.0898438-3.0400391-0.3637695-4.4101563-0.7768555
		c-7.5029297,12.2929688-18.2802734,23.5493164-26.9824219,23.5493164c-3.5,0-6.1464844-1.0297852-8.1889648-2.847168
		c-1.8706055-1.6645508-3.2353516-3.9887695-4.2651367-6.8134766c-1.2553711-3.4428711-2.0317383-7.6274414-2.3857422-12.0180664
		c-1.574707,0.8769531-3.2788086,1.5068359-5.1499023,1.8964844c-0.8369141,0.1743164-1.7060547,0.3037109-2.6118164,0.3862305
		c-9.8984375,25.7856445-53.7246094,27.6225586-52.9277344-4.6293945c0.0849609-1.9970703,0.3569336-4.015625,0.8154297-6.0092773
		c0.402832-1.7529297,0.9492188-3.4873047,1.6591797-5.1689453c2.2910156-5.2524414,7.753418-11.9492188,14.3017578-15.112793
		c2.8046875-1.3554688,5.8076172-2.0664063,8.8476563-1.730957c16.6044922-11.0966797,29.2988281,5.7470703,29.2988281,21.7124023
		c0,0.71875-0.0800781,1.5195313-0.0800781,2.2363281c0.1445313-0.0136719,0.2768555-0.046875,0.4179688-0.0664063
		c2.0947266-0.2910156,3.8095703-1.2226563,5.2851563-2.6323242c0.1376953-2.9638672,0.4511719-5.8544922,0.9262695-8.519043
		c0.9458008-5.3076172,2.527832-9.7094727,4.6362305-11.9335938c7.3447266-7.7456055,24.5859375-3.4331055,20.1162109,3.0332031
		c-1.5175781,2.2329102-0.3203125,25.2250977,1.9150391,25.6240234c1.1972656,0.1582031,4.3095703-3.5922852,7.6630859-8.2226563
		c-13.7304688-27.0620117,29.0585938-37.5996094,11.0966797-1.1967773c0.2626953,0.3891602,0.578125,0.6831055,0.9267578,0.9033203
		c1.5576172,0.9824219,3.8242188,0.3852539,5.5585938-0.8129883c1.3984375-4.8681641,3.953125-9.5532227,7.5546875-13.4389648
		c5.640625-6.0854492,13.8525391-10.2060547,24.2519531-9.9624023c22.3515625,0.4790039,31.9306641,22.4326172-5.6708984,26.7441406
		c-0.9570313,7.2661133,19.5595703,8.7021484,28.5791016-4.7089844c2.7978516-4.0703125,8.703125-1.6757813,6.0703125,3.3510742
		c-8.3027344,14.769043-20.1953125,30.0966797-37.8388672,29.9370117
		C381.9824219,245.6210938,376.4892578,243.5341797,372.5683594,240.2094727z M385.7363281,304.4130859
		c1.4365234-3.6728516,6.7871094-6.8662109,11.734375-7.7441406c-1.1181641,6.0683594-3.4296875,11.2578125-5.5078125,16.2841797
		L385.7363281,304.4130859z M322.8867188,516.4267578c-17.2431641,0-25.9462891-16.2861328-25.7861328-35.0458984
		c0.0800781-7.4238281,3.1943359-19.4775391,6.9453125-31.3730469c2.2324219-7.7451172,6.5458984-18.2832031,10.6953125-29.2177734
		c-5.2675781,5.1074219-10.9345703,10.2158203-16.6826172,14.5292969
		c-0.5605469,19.4003906-18.2827148,19.5576172-16.5253906,9.3408203c0.3989258-2.2363281,1.597168-5.2695313,4.3110352-9.4208984
		c-0.3959961-5.3476563-6.2265625-20.1171875-17.3232422-28.8193359
		c-6.3857422,32.4912109-6.7055664,75.2021484-30.894043,98.9912109
		c-26.6640625,26.1074219-65.699707,16.2080078-67.0571289-10.6953125
		c-0.6391602-12.453125,6.6240234-24.8271484,16.684082-25.1464844c0.3959961-0.0791016,0.796875,0,1.1962891,0.1611328
		c0.5576172,0.1582031,0.956543,0.6386719,1.1962891,1.4355469c3.0332031,13.5693359,20.3598633,15.2470703,30.3364258,2.6337891
		c14.690918-18.5205078,19.4814453-49.0136719,27.1435547-73.8427734
		c-10.6987305,0.8789063-21.2348633,6.6279297-22.1132813,16.1269531c-0.3178711,3.8320313,1.7568359,7.6621094,6.1479492,8.7802734
		c2.0751953,0.4794922,0.796875,2.7939453,0.796875,2.7939453c-4.3110352,5.3476563-11.9750977,8.1416016-19.637207,7.8242188
		c-15.4892578-0.7197266-23.7924805-12.1337891-22.6743164-24.2685547
		c2.0766602-23.1523438,35.527832-36.4814453,64.9042969-29.9375c4.1499023-6.9433594,9.6591797-11.2558594,17.4829102-11.0166016
		c2.4760742,0.0800781,4.7119141,0.796875,6.6274414,2.3945313c1.355957,1.1181641,1.8349609,2.7939453,0.4775391,4.390625
		c-2.6323242,3.1933594-4.5478516,7.3447266-6.0649414,11.65625C284.090332,395.40625,292.9492188,406.1816406,296.7832031,421.75
		c9.8203125-10.2998047,22.8300781-20.4345703,28.5791016-33.6884766c1.0400391-5.2695313,1.3574219-9.8994141,0.6386719-13.4111328
		c-0.796875-3.1923828,2.7158203-4.1513672,5.0302734-4.1513672c5.7490234-0.0810547,9.4990234,2.1552734,11.6542969,5.5878906
		c9.4189453,14.5292969-16.2832031,73.1240234-16.2050781,93.0830078c0,8.3027344,2.4755859,15.5673828,10.1376953,19.3193359
		c1.8168945,0.8818359,3.7539063,1.7128906,5.9287109,2.0722656c0.9794922,0.1621094,2.0019531,0.2382813,3.0917969,0.1640625
		c1.2792969-0.0800781,1.9179688,0.6386719,2.2363281,1.7568359c0.3710938,1.3730469,0.4941406,2.7587891,0.4091797,4.1357422
		C347.6591797,506.7744141,335.4008789,516.4306641,322.8867188,516.4267578z M437.2939453,433.1669922
		c0.4785156,1.6796875-0.9589844,3.5947266-1.9970703,6.1484375c-1.9931641,4.8691406-3.9121094,13.6513672-4.390625,18.9189453
		c-0.0820313,0.8789063-0.2402344,3.4345703,0.796875,3.7519531c0.4306641,0.0712891,1.1015625-0.3515625,1.9306641-1.1240234
		c1.5585938-1.453125,3.6865234-4.1621094,5.8876953-7.2646484c1.3652344-5.2841797,4.0859375-10.3964844,8.0292969-14.5585938
		c5.6328125-5.9433594,13.7568359-9.9453125,24.0087891-9.7050781c22.3515625,0.4785156,31.9306641,22.4326172-5.6708984,26.7441406
		c-0.9570313,7.265625,19.5595703,8.7021484,28.5791016-4.7089844c2.7978516-4.0703125,8.703125-1.6757813,6.0703125,3.3505859
		c-8.3027344,14.7695313-20.1953125,30.0976563-37.8388672,29.9375c-4.0869141-0.0341797-7.6230469-0.7216797-10.6357422-1.9160156
		c-7.328125-2.9033203-11.5439453-8.8154297-12.9882813-15.6865234c-1.2099609,1.6455078-2.4511719,3.2441406-3.7167969,4.765625
		c-6.0488281,7.2753906-12.625,12.7636719-18.6621094,12.7636719c-5.1269531,0-8.3125-2.0332031-10.1425781-5.2460938
		c-3.9121094-6.8662109-1.5703125-19.1708984,1.6796875-28.9111328c1.6240234-4.8671875,3.4697266-9.0917969,4.8691406-11.6669922
		c-0.8007813,0.4013672-1.5976563,0.71875-2.4765625,0.9580078c-0.1582031,0.3212891-0.3173828,0.71875-0.4785156,0.8789063
		c-1.1298828,2.3447266-2.3974609,4.8007813-3.7568359,7.2958984c-1.0800781,1.9824219-2.2246094,3.9873047-3.4101563,5.9863281
		c-0.0673828,0.1748047-0.1289063,0.3486328-0.2216797,0.5263672c-2.1816406,3.6826172-4.5996094,6.3447266-7.4521484,8.1289063
		c-2.4667969,1.5419922-5.2558594,2.4306641-8.5126953,2.7265625
		c-7.3876953,19.2470703-33.6748047,25.1474609-46.2021484,13.4931641
		c-4.2568359-3.9599609-6.9277344-9.9433594-6.7255859-18.1220703c0.1601563-3.7539063,0.9570313-7.5839844,2.4746094-11.1777344
		c2.4477539-5.6123047,8.5146484-12.8769531,15.6591797-15.7148438c2.40625-0.9560547,4.9355469-1.4111328,7.4902344-1.1289063
		c16.6044922-11.0966797,29.2988281,5.7470703,29.2988281,21.7119141c0,0.71875-0.0800781,1.5195313-0.0800781,2.2363281
		c0.8105469-0.0761719,1.5615234-0.2509766,2.2675781-0.5058594c2.0322266-0.7314453,3.6640625-2.1689453,5.0878906-4.0791016
		c0.1035156-0.1992188,0.2080078-0.3984375,0.3535156-0.6015625c1.5986328-2.2900391,3.1425781-4.6630859,4.4697266-6.7851563
		c1.1269531-1.8007813,2.1005859-3.4238281,2.796875-4.6328125c-4.1513672-0.9560547-7.2666016-4.0712891-7.1054688-9.6582031
		c0.0273438-1.2539063,0.3505859-2.4833984,0.8867188-3.6396484c2.6015625-5.6162109,10.3242188-9.4775391,14.7607422-5.7041016
		c1.8857422,1.5283203,2.4013672,4.0351563,2.1767578,6.8525391c-0.1269531,1.5947266-0.4892578,3.2890625-0.9804688,4.9638672
		C419.4101563,430.9306641,435.0576172,426.5400391,437.2939453,433.1669922z M448.3037109,378.1738281
		c-19.2382813,41.3505859-75.6787109,42.8691406-77.515625,6.5449219
		c-0.6386719-12.453125,6.6279297-24.828125,16.6845703-25.1455078c0.3994141-0.0800781,0.796875,0,1.1962891,0.1591797
		c0.5585938,0.1582031,0.9580078,0.6396484,1.1982422,1.4365234c1.6748047,7.4277344,7.5839844,11.2558594,14.2890625,11.1777344
		c10.4599609-0.1591797,18.9990234-11.2558594,25.546875-23.8701172c-7.1855469,2.875-14.7695313,4.0712891-22.7529297,3.4326172
		c-27.3798828-2.1552734-11.2548828-32.3300781-7.1035156-42.9472656
		c17.0839844-42.5517578-25.6240234-31.8525391-27.4609375-16.3652344c-0.4794922,4.3085938,1.515625,8.3818359,6.3066406,9.5
		c1.9960938,0.4775391,0.7978516,2.8720703,0.7978516,2.8720703c-4.3076172,5.3505859-12.0527344,8.0634766-19.7158203,7.7431641
		c-14.9287109-0.6357422-23.0732422-11.3339844-22.9130859-22.9082031
		c0.2919922-18.9194336,23.1044922-30.4897461,45.3056641-30.5634766c7.1503906-0.0239258,14.2363281,1.140625,20.4873047,3.6425781
		c11.6054688,4.644043,20.3291016,13.878418,21.2246094,28.5966797
		c0.7988281,12.8515625-10.2177734,36.8798828,0.8789063,37.7587891
		c10.3779297,0.8007813,18.0400391-12.7705078,22.7519531-23.5498047
		c4.7089844-11.0126953,12.2128906-31.5292969,10.3779297-41.3496094c-0.7216797-3.1948242,2.7900391-4.0698242,5.1865234-3.9916992
		c10.5390625,0.2397461,13.8125,7.5844727,13.8085938,16.9204102
		C476.9609375,296.1083984,461.7958984,349.1953125,448.3037109,378.1738281z M599.8662109,344.7324219
		c-8.0634766,13.5712891-20.0371094,29.9355469-30.4941406,29.9355469c-6.3867188,0-10.4560547-3.2714844-11.7363281-9.4189453
		c-6.2851563,8.5654297-18.1601563,11.7773438-25.5507813,7.3525391c-4.2509766-2.5449219-7.0234375-7.609375-6.3808594-15.65625
		c0.0742188-0.9726563,0.1835938-1.9667969,0.3183594-2.9716797c-1.7255859,0.6767578-3.5996094,1.1054688-5.6630859,1.2929688
		l-0.0996094,0.2431641c-8.0507813,20.4042969-37.4335938,25.6132813-48.5429688,10.5126953
		c-2.8027344-3.8095703-4.4453125-8.9082031-4.2851563-15.3847656c0.1601563-3.7539063,0.9570313-7.5839844,2.4746094-11.1777344
		c2.2773438-5.2211914,7.6875-11.8701172,14.1835938-15.0566406c2.8388672-1.3925781,5.8828125-2.1269531,8.9658203-1.7871094
		c16.6044922-11.0966797,29.2988281,5.7470703,29.2988281,21.7119141l-0.0048828,0.1425781
		c-0.0087891,0.6816406-0.0751953,1.4228516-0.0751953,2.09375c2.4277344-0.2294922,4.3486328-1.3076172,5.9833984-2.96875
		c0.890625-3.0844727,1.9453125-6.0849609,3.0751953-8.8261719c2.0771484-5.0375977,4.4052734-9.1958008,6.4248047-11.3535156
		c7.34375-7.7451172,25.8632813-2.2363281,20.1162109,3.0322266c-3.2763672,2.9550781-7.4277344,25.2265625-5.1914063,25.6259766
		c5.1914063,0.8779297,7.3447266-9.1816406,8.7021484-13.09375c2.3945313-6.8652344,5.5097656-12.8525391,8.0634766-15.5673828
		c7.3447266-7.7460938,25.8642578-2.2363281,20.1171875,3.0332031c-3.2734375,2.953125-7.4248047,25.2246094-5.1884766,25.6240234
		c1.3574219,0.2402344,5.5087891-5.0263672,9.4208984-10.6953125
		C596.5917969,337.3847656,602.5,339.6992188,599.8662109,344.7324219z"/>
	<path d="M356.7001953,449.2138672c-2.3164063,4.7871094-4.7119141,13.0908203,1.9150391,12.7724609
		c2.1533203-0.0800781,4.1503906-1.5976563,5.7470703-3.8300781
		C361.2509766,455.6015625,358.6972656,452.6464844,356.7001953,449.2138672z"/>
	<path d="M471.640625,440.8300781c-2.9550781,1.7587891-5.1113281,4.7119141-6.0664063,7.8232422
		C478.5058594,447.7753906,480.8203125,435.3222656,471.640625,440.8300781z"/>
	<path d="M289.0063477,304.765625c-4.3305664-2.8066406-12.1025391-5.5136719-17.1040039-2.3500977
		c-7.6391602,4.831543-4.2421875,20.4658203-3.9331055,21.8168945
		c4.6865234,20.4921875,28.6987305,29.5800781,33.0395508,31.1484375
		c3.9052734-2.9833984,24.2470703-19.0551758,22.6547852-39.9023438c-0.2348633-3.0756836-1.2080078-15.8208008-9.3911133-18.887207
		c-4.3496094-1.6298828-9.703125-0.1381836-13.3242188,2.9296875c-5.652832,4.7900391-5.171875,11.8046875-5.1142578,12.4736328
		C294.7524414,310.1425781,292.6523438,307.1289063,289.0063477,304.765625z"/>
	<path d="M251.6123047,344.2773438c0.5644531-2.2265625,2.9018555-11.4521484-2.1455078-15.5581055
		c-2.6826172-2.1821289-6.8149414-2.4003906-10.0981445-1.0942383c-5.1264648,2.0390625-6.4516602,7.1035156-6.5693359,7.5893555
		c-0.3237305-1.5634766-1.0908203-4.1889648-3.1030273-6.722168c-2.3901367-3.0083008-7.2329102-6.7631836-11.5131836-5.7172852
		c-6.5375977,1.5966797-7.8500977,13.4365234-7.953125,14.4633789c-1.5551758,15.5742188,13.234375,27.6855469,15.925293,29.8222656
		C229.6196289,365.8828125,247.7890625,359.3671875,251.6123047,344.2773438z"/>
	<path d="M186.2827148,338.8354492c2.097168-2.2832031,12.9594727-14.5073242,9.6728516-27.2792969
		c-0.4848633-1.8847656-2.4941406-9.6928711-7.9145508-10.6958008c-2.8813477-0.5327148-6.0424805,0.9833984-7.953125,3.2880859
		c-2.9829102,3.5981445-1.9111328,7.9018555-1.8012695,8.3110352c-0.8759766-1.0307617-2.5126953-2.6713867-5.0375977-3.7373047
		c-2.9990234-1.265625-8.1245117-2.090332-10.8823242,0.4257813c-4.2124023,3.8427734-0.3789063,13.1787109-0.0380859,13.9838867
		C167.4980469,335.3422852,183.4140625,338.3398438,186.2827148,338.8354492z"/>
</g>
</svg>
