<?xml version="1.0" encoding="utf-8"?>
<!-- Generator: Adobe Illustrator 22.0.1, SVG Export Plug-In . SVG Version: 6.00 Build 0)  -->
<svg version="1.1" id="Шар_1" xmlns="http://www.w3.org/2000/svg" xmlns:xlink="http://www.w3.org/1999/xlink" x="0px" y="0px"
	 viewBox="0 0 714 714" style="enable-background:new 0 0 714 714;" xml:space="preserve">
<style type="text/css">
	.st0{fill:#FFFFFF;}
	.st1{fill:#A22E39;}
	.st2{fill:#EA7878;}
	.st3{fill:#F9CEA7;}
	.st4{fill:#FCA7A7;}
	.st5{fill:#FF7979;}
</style>
<g>
	<path class="st0" d="M403.4707031,333.6689453c-4.9472656,0.8779297-10.2978516,4.0712891-11.734375,7.7441406l6.2265625,8.5400391
		C400.0410156,344.9267578,402.3525391,339.7373047,403.4707031,333.6689453z"/>
	<path class="st0" d="M625.5,381.5c-2.4423828-4.0234375-4.2421875-3.5097656-8-8c-5.8896484-7.0390625-3.8955078-11.2045898-8-18
		c-4.7148438-7.8056641-14.5654297-14.2602539-25-14c-7.8125,0.1948242-13.5488281,4.0947266-16,6
		c-1.4716797-0.9902344-10.5429688-6.8774414-22-4c-8.6738281,2.1787109-13.5429688,8.081543-15,10
		c-1.2519531-1.6083984-8.3623047-10.4301758-20-11c-4.7041016-0.2304688-8.5478516,0.9663086-11,2
		c1.5693359-3.1015625,7.8203125-16.3022461,3-31c-2.8203125-8.5986328-8.3046875-14.2802734-10-16
		c-1.8789063-1.90625-5.3554688-5.3706055-11-8c-3.1542969-1.4692383-9.7832031-4.449707-18-3
		c-3.2783203,0.578125-10.453125,1.8442383-13,7c-1.9794922,4.0078125,0.5732422,6.8500977-1,13
		c-1.0546875,4.1235352-3.2988281,7.1269531-5,9c-0.8115234-2.5595703-2.0546875-5.6782227-4-9
		c-2.6367188-4.5024414-5.6269531-7.7817383-8-10c4.3671875-3.65625,10.4628906-9.5126953,16-18
		c4.4101563-6.7607422,6.6152344-10.1411133,7-15c0.6884766-8.6972656-4.9648438-15.2363281-16-28
		c-8.4365234-9.7587891-12.6552734-14.6376953-20-18c-3.3095703-1.5146484-13.4355469-5.972168-26-3
		c-8.4667969,2.0029297-14.1972656,6.4702148-17,9c-0.3710938-0.6933594-4.4414063-7.984375-13-9
		c-7.1318359-0.8466797-12.1572266,3.2841797-13,4c-1.7148438-1.2446289-4.4033203-2.9013672-8-4
		c-7.28125-2.2236328-13.4360352-0.6787109-16,0c-6.3417969,1.6791992-10.6982422,4.9619141-13,7
		c-2.2856445-2.5664063-7.5751953-7.7578125-16-10c-3.9121094-1.0410156-7.3930664-1.1513672-10-1
		c0.2558594-5.2109375,0.003418-14.1064453-4-24c-1.9355469-4.7832031-8.2783203-19.7827148-25-28
		c-4.9501953-2.4326172-19.6181641-8.5996094-36-3c-13.0996094,4.4775391-20.3183594,14.0947266-24,19
		c-4.7314453,6.3037109-6.6103516,11.8193359-7,13c-1.3144531,3.9814453-1.8066406,7.484375-2,10
		c-0.0136719-1.4296875-0.1821289-3.5761719-1-6c-0.7451172-2.2084961-1.9501953-4.4140625-6-9
		c-4.1835938-4.7373047-6.2753906-7.1054688-8-8c-5.8725586-3.0449219-12.6352539-0.5869141-17,1
		c-12.6264648,4.5898438-19.1435547,14.6381836-20,16c-8.1904297,13.0253906-5.8818359,26.7553711-5,32
		c1.3330078,7.9272461,4.2285156,13.5976563,6,17c5.1079102,9.8100586,11.6376953,16.2924805,16,20
		c-2.7109375,0.956543-7.0947266,2.9228516-11,7c-7.3457031,7.6689453-7.7885742,17.3681641-8,22
		c-0.4589844,10.050293,2.9072266,17.5053711,5,22c2.4179688,5.1933594,6.1445313,13.1972656,15,19
		c7.0786133,4.6381836,14.1401367,5.7119141,18,6c1.3334961,1.6665039,2.6665039,3.3334961,4,5
		c-0.4438477-0.2739258-6.9887695-4.1699219-13-1c-4.1401367,2.1835938-5.4804688,6.3754883-6,8
		c-2.3935547,7.4863281,1.5317383,14.4101563,3,17c3.8608398,6.8105469,9.5546875,10.0791016,13,12
		c7.0722656,3.9423828,13.8417969,4.8300781,18,5c4.859375-4.9179688,7.5317383-9.7539063,9-13
		c2.4970703-5.5195313,3.2539063-10.2924805,4-15c0.7666016-4.8354492,0.9731445-8.9648438,1-12
		c0.1855469,1.1494141,1.3261719,7.5283203,7,11c2.2666016,1.3867188,4.4936523,1.8427734,6,2
		c-1.8334961,1.4228516-10.7783203,8.6674805-12,21c-0.1582031,1.5966797-0.6967773,8.4277344,3,16
		c3.7275391,7.6347656,9.5810547,11.5595703,12,13c-6.1635742,1.3857422-18.5,5.1328125-29,16
		c-4.7246094,4.8896484-13.8500977,14.3339844-14,28c-0.1147461,10.4814453,5.1074219,18.2265625,9,24
		c1.4648438,2.1728516,7.2255859,10.3818359,18,17c5.0136719,3.0800781,9.6279297,4.9033203,13,6
		c-0.8798828,1.6835938-2.6821289,4.5732422-6,7c-2.2543945,1.6484375-4.4404297,2.5224609-6,3
		c-0.7861328-1.2900391-5.9936523-9.53125-16-11c-7.9121094-1.1611328-13.8671875,2.6386719-16,4
		c-8.9555664,5.7148438-11.628418,15.1552734-13,20c-0.7055664,2.4921875-3.0776367,11.7568359,0,23
		c2.1069336,7.6972656,5.7753906,12.6943359,9,17c4.0126953,5.3574219,11.9697266,15.9804688,27,22
		c14.828125,5.9384766,28.0336914,3.9882813,33,3c21.4238281-4.265625,33.3789063-19.2998047,37-24
		c8.9033203-11.5546875,11.7080078-23.3554688,14-33c2.293457-9.6503906,2.9042969-17.9931641,3-24
		c0.4477539,1.5019531,1.3046875,3.7148438,3,6c1.3833008,1.8652344,2.8647461,3.1572266,4,4
		c-1.2167969,6.3554688-2.0644531,16.0615234,1,27c2.5483398,9.0957031,6.7509766,15.2939453,10,20
		c5.1855469,7.5117188,8.9160156,12.9150391,16,17c14.9873047,8.6416016,31.0361328,3.3359375,32,3
		c11.8613281-4.1308594,18.0302734-12.8916016,20-16c4.6083984-7.2734375,5.6943359-14.3134766,6-18
		c1.1650391,0.3398438,12.6962891,3.4960938,22-4c5.7509766-4.6337891,7.4882813-10.7900391,8-13
		c0.3056641,1.0273438,4.8515625,15.4882813,18,19c8.3203125,2.2226563,15.8632813-1.0683594,18-2
		c4.8173828-2.1015625,8.1015625-5.0224609,10-7c2.5664063,2.4726563,11.5449219,10.5048828,25,11
		c10.9345703,0.4023438,18.7568359-4.3964844,23-7c11.6679688-7.1591797,16.8974609-17.2001953,22-27
		c3.5458984-6.8105469,5.3125-10.3105469,5-15c-0.4472656-6.7080078-4.5908203-11.9277344-11-20
		c-1.6630859-2.0947266-4.1308594-4.7578125-9-10c-8.6152344-9.2753906-12.9648438-13.9345703-15-15
		c-8.7646484-4.5869141-18.4941406-2.4375-25-1c-7.7089844,1.703125-13.4951172,4.7958984-17,7
		c0.0253906-0.1738281,0.2246094-1.7753906-1-3s-2.8261719-1.0253906-3-1c5.7167969-2.0332031,18.6660156-7.5908203,27-21
		c2.4101563-3.8779297,3.9707031-7.6660156,5-11c2.0439453,2.9423828,7.8847656,10.4541016,18,13
		c9.1894531,2.3125,17.0273438-0.7021484,23-3c6.3251953-2.4335938,11.0078125-5.6337891,14-8
		c0.9228516,1.9111328,2.9775391,5.4716797,7,8c6.3417969,3.9873047,13.2617188,2.6972656,17,2
		c2.6201172-0.4882813,7.1181641-1.6826172,12-5c2.0058594,1.6044922,5.765625,4.1396484,11,5
		c6.7509766,1.1103516,12.0488281-1.2080078,16-3c9.9824219-4.5283203,15.4580078-11.8916016,20-18
		c4.3720703-5.8798828,7.5478516-10.1503906,9-17C628.1376953,397.4931641,629.96875,388.8613281,625.5,381.5z
		 M192.2827148,375.8359375c-2.8686523-0.4960938-18.784668-3.4941406-23.9541016-15.7041016
		c-0.3408203-0.8051758-4.1743164-10.1411133,0.0380859-13.9838867c2.7578125-2.5161133,7.8833008-1.6914063,10.8823242-0.4257813
		c2.5249023,1.065918,4.1616211,2.706543,5.0375977,3.7373047c-0.1098633-0.4091797-1.1816406-4.7128906,1.8012695-8.3110352
		c1.9106445-2.3046875,5.0717773-3.8208008,7.953125-3.2880859c5.4204102,1.0029297,7.4296875,8.8110352,7.9145508,10.6958008
		C205.2421875,361.328125,194.3798828,373.5517578,192.2827148,375.8359375z M216.2299805,374.2382813
		c0.1030273-1.0263672,1.4155273-12.8666992,7.953125-14.4633789c4.2802734-1.0458984,9.1230469,2.7089844,11.5131836,5.7172852
		c2.012207,2.5332031,2.7792969,5.1582031,3.1030273,6.7216797c0.1176758-0.4853516,1.4428711-5.5498047,6.5693359-7.5888672
		c3.2832031-1.3061523,7.4155273-1.0878906,10.0981445,1.0942383c5.0473633,4.105957,2.7099609,13.331543,2.1455078,15.5581055
		c-3.8232422,15.0898438-21.9926758,21.6054688-25.4570313,22.7832031
		C229.4643555,401.9238281,214.6748047,389.8125,216.2299805,374.2382813z M618.6035156,396.7382813
		c-5.9091797,11.1777344-20.9951172,32.4111328-34.7275391,32.4111328
		c-5.5898438-0.0019531-10.2236328-2.078125-13.1738281-5.9091797c-9.9785156,7.6640625-23.8701172,9.1005859-32.4130859-2.5537109
		l-3.8916016-5.265625c-13.3417969,16.8955078-41.2265625,18.7597656-52.3818359,2.7119141l-6.5605469-8.9306641
		c-2.6923828,7.1669922-5.5634766,14.125-8.5996094,20.6689453c-7.3994141,15.8144531-20.8808594,27.1113281-35.2314453,32.2324219
		c6.9189453-0.8496094,11.8212891,0.2128906,15.4638672,5.2714844c0.7470703,1.0048828,2.1054688,2.7685547,3.5771484,4.7285156
		c6.4931641-6.5175781,15.6445313-10.8232422,26.9394531-10.5585938
		c10.6152344,0.2392578,17.2431641,3.5146484,23.0703125,11.4179688l6.8652344,9.4189453
		c2.3945313,1.9970703,0.9580078-0.2392578,4.3095703,4.3916016l7.5839844,10.2167969
		c2.3144531,2.7929688,2.1542969,6.546875,0.4794922,9.6572266c-8.4609375,15.8066406-22.4316406,32.7304688-42.0712891,32.4912109
		c-11.6552734-0.0800781-18.6005859-4.0703125-25.0664063-12.7724609l-0.0771484-0.1083984
		c-6.4414063,7.1025391-13.9472656,12.8037109-21.0166016,12.8037109c-10.6972656,0-13.9716797-7.1044922-19.8769531-15.1679688
		l-2.3945313-3.1933594c-0.5322266-0.7197266-0.9746094-1.4482422-1.3710938-2.1767578
		c-0.9882813,0.3632813-1.9560547,0.6445313-2.875,0.8222656c-7.2587891,14.9423828-24.3945313,21.7724609-38.6582031,19.3496094
		c0.5166016,0.8720703,0.8984375,1.6396484,1.0390625,2.203125c4.4697266,16.5263672-14.7666016,29.9375-29.6152344,29.9375
		c-16.046875,0-21.7128906-10.2998047-29.6962891-21.15625c-7.1064453-9.5810547-10.2998047-18.2802734-10.2182617-31.3730469
		c0.078125-3.7509766,0.71875-8.1416016,1.675293-12.6142578c-5.5073242-1.1171875-9.5771484-8.7011719-12.8535156-13.0917969
		l-3.3510742-4.7910156c-3.9116211,25.9462891-9.3413086,52.8466797-27.4614258,70.6523438
		c-20.0366211,19.6367188-53.5678711,24.1875-70.4116211,1.2773438l-8.1386719-11.0986328
		c-13.2514648-17.4042969-2.9550781-46.3017578,15.4082031-46.9423828c4.9501953-0.1591797,7.1831055,4.3916016,10.3779297,8.703125
		l2.7138672,3.7519531c5.1098633,1.5175781,12.1362305-1.4365234,16.0483398-6.3066406
		c4.0712891-5.1894531,7.4228516-11.4960938,10.1381836-18.1210938
		c-13.0151367,1.4355469-21.9536133-3.8339844-28.8193359-13.171875l-7.5058594-10.21875
		c-5.4257813-7.1044922-7.1831055-16.84375-3.2709961-26.7421875c9.0981445-23.2314453,42.2285156-30.734375,65.5380859-26.6640625
		c8.2250977-11.4179688,23.9506836-14.8476563,31.7744141-4.2294922l8.1416016,11.0947266
		c4.5507813,6.2265625-0.1616211,9.2597656-2.7158203,13.890625l10.9355469,14.6884766
		c7.7451172-7.5039063,16.1269531-15.5673828,20.2783203-24.7451172c0.6386719-3.3544922,1.2773438-7.7460938,0.5576172-10.8574219
		c-2.6347656-11.4960938,16.6035156-14.3681641,25.0664063-2.7939453l9.6591797,13.171875
		c5.2851563,8.1767578,2.359375,24.5791016-2.3027344,42.1123047c1.4765625-0.3369141,2.9736328-0.5195313,4.4765625-0.5195313
		c5.7470703-3.3544922,12.2919922-4.6308594,18.7587891-2.1542969c7.4042969,2.9482422,13.4482422,12.3984375,18.1357422,19.0878906
		c0.5087891-0.7333984,1.0224609-1.4785156,1.5146484-2.2460938c-2.6318359-3.7519531-5.1074219-5.9082031-4.8681641-12.2148438
		c0.0498047-1.7802734,0.5039063-3.5654297,1.265625-5.2607422c-5.2148438-2.3300781-9.8730469-5.9570313-13.5927734-11.0078125
		l-8.1435547-11.0957031c-13.5722656-18.5205078-3.2724609-47.5,15.1689453-48.1386719
		c5.2675781-0.1611328,7.2626953,4.3076172,8.7802734,8.3808594c0.9570313,2.4726563,2.3144531,4.5478516,7.9833984,4.4697266
		c0.8769531,0,1.6757813-0.1611328,2.4726563-0.3994141c-6.6240234-2.8769531-10.8554688-10.5390625-15.0869141-16.2861328
		c-5.9863281-8.1435547-6.4658203-14.609375-2.7939453-26.34375c-12.2128906,8.78125-32.4873047,7.5849609-42.5478516-6.0664063
		l-8.7001953-11.8955078c-3.4316406-4.5517578-5.4277344-10.2988281-5.3496094-16.8447266
		c0.3183594-20.7607422,22.4863281-33.5883789,45.5058594-35.1191406c-1.2119141-1.2597656-2.3857422-2.6591797-3.5419922-4.2158203
		l-6.8466797-9.5395508c-6.5292969,9.737793-17.5332031,22.3168945-28.7685547,22.3168945
		c-10.4560547,0-14.2089844-7.3447266-19.9580078-15.0869141c-0.3637695-0.4975586-0.7070313-0.9770508-1.0454102-1.4521484
		c-12.3354492,19.4541016-42.6196289,22.418457-54.3647461,5.5219727l-8.6210938-11.7353516
		c-4.4003906-6.0009766-6.0913086-13.4438477-5.3686523-20.855957c-7.5595703,4.565918-16.2753906,7.6337891-25.4624023,9.0405273
		c-0.4785156,2.871582-0.8779297,5.7470703-1.4355469,8.5405273c2.6357422-1.3574219,7.4228516-1.8369141,9.8984375-1.8369141
		c18.0400391,0.3198242,23.2314453,9.9003906,31.6132813,21.3964844l1.7568359,2.3925781
		c13.0136719,17.0834961,3.7539063,47.8212891-27.3017578,47.2602539
		c-14.8466797-0.2392578-30.8935547-8.6206055-42.0722656-18.7587891
		c-13.8100586,10.0600586-32.6508789,7.9833984-42.8691406-5.9868164l-8.1411133-11.0966797
		c-14.2099609-19.3198242,3.2729492-50.9326172,24.5893555-41.1123047c0.6386719-0.956543,1.277832-1.996582,1.9150391-3.0332031
		c-14.4511719-6.0649414-19.0800781-14.6889648-27.5429688-26.1035156
		c-16.2045898-22.1132813-1.675293-53.0854492,19.5576172-55.5615234c6.5458984-0.71875,9.2617188,4.7905273,13.0932617,10.0600586
		c3.5126953,4.6289063,7.1850586,8.1416016,5.1083984,13.3310547c-1.1181641,3.0336914-0.7172852,6.2280273,0.4794922,9.4213867
		c1.1181641,0.956543,2.2358398,1.9150391,3.2729492,2.6323242c4.390625-18.9189453,8.7021484-38.3168945,28.4179688-48.7758789
		c16.2861328-8.6210938,34.8056641-5.0302734,45.5849609,9.7368164l4.6289063,6.3847656
		c7.8232422,10.3779297,12.2929688,18.362793,10.2988281,34.1669922c-0.3452148,2.7109375-0.8974609,5.3134766-1.6201172,7.8164063
		c1.7202148-0.4555664,3.4716797-0.7084961,5.2314453-0.7084961c5.7470703-3.3544922,12.2919922-4.6303711,18.7587891-2.1547852
		c5.671875,2.2583008,10.5424805,8.3339844,14.6206055,14.0610352c1.0683594-3.765625,2.6035156-7.1557617,4.7856445-9.4287109
		c6.6259766-7.0234375,22.7529297-7.9018555,27.7011719-0.3178711l1.4355469,1.9155273
		c4.8691406-6.9453125,15.4863281-11.5742188,22.7529297-1.7573242l3.7441406,5.1035156
		c6.4980469-6.5507813,15.671875-10.8833008,27.0019531-10.6176758
		c10.6152344,0.2397461,17.2431641,3.5141602,23.0703125,11.4179688l6.8652344,9.4194336
		c2.3945313,1.996582,0.9580078-0.2397461,4.3095703,4.3911133l7.5839844,10.2163086
		c2.3144531,2.7939453,2.1542969,6.5473633,0.4794922,9.6572266c-6.7470703,12.605957-17.0019531,25.9116211-30.8378906,30.6669922
		c4.7695313,2.7573242,8.9003906,6.3681641,12.0253906,10.9038086c10.3779297,14.1298828,18.4414063,21.7138672,14.5292969,43.1875
		c7.1884766-10.859375,18.2011719-40.4746094,16.2861328-50.1342773
		c-2.3144531-11.3359375,16.6044922-13.6503906,24.6679688-2.6337891l8.7021484,11.8950195
		c7.9023438,10.6972656,3.4326172,28.9804688,0.5576172,41.6767578c-0.1699219,0.7626953-0.3525391,1.5375977-0.5283203,2.3061523
		c1.8232422-0.5112305,3.6835938-0.7924805,5.5527344-0.7924805c5.7470703-3.3544922,12.2919922-4.6308594,18.7587891-2.1542969
		c6.6005859,2.6279297,12.1181641,10.4223633,16.5595703,16.8242188c2.0498047-4.9492188,4.4873047-9.3603516,7.1435547-12.1972656
		c7.5839844-8.1416016,24.0283203-7.0234375,29.8574219,2.2363281c8.1425781-11.2568359,25.3857422-8.5429688,30.2548828-1.9150391
		l8.7021484,11.8955078c1.3574219,1.8369141,2.1542969,3.8330078,1.5185547,6.3056641l8.3017578,11.3349609
		C620.4404297,389.7929688,620.2792969,393.5429688,618.6035156,396.7382813z M306.9482422,336.5209961
		c3.6210938-3.0678711,8.9746094-4.5595703,13.3242188-2.9296875c8.1831055,3.0664063,9.15625,15.8115234,9.3911133,18.887207
		c1.5922852,20.8476563-18.7495117,36.9189453-22.6547852,39.9023438
		c-4.3408203-1.5683594-28.3530273-10.65625-33.0395508-31.1484375c-0.309082-1.3510742-3.7060547-16.9853516,3.9331055-21.8168945
		c5.0014648-3.1635742,12.7734375-0.456543,17.1040039,2.3500977c3.6459961,2.3632813,5.7460938,5.3769531,6.8276367,7.2290039
		C301.7763672,348.3256836,301.2954102,341.3110352,306.9482422,336.5209961z"/>
	<path class="st1" d="M224.8378906,192.8735352c-4.6318359,12.7739258-6.7050781,31.9335938-7.265625,36.8022461
		C242.9619141,229.9155273,239.2060547,152.7978516,224.8378906,192.8735352z"/>
	<path class="st1" d="M281.6894531,247.2387695c-2.3164063,4.7871094-4.7119141,13.0898438,1.9150391,12.7719727
		c2.1533203-0.0795898,4.1503906-1.597168,5.7470703-3.8300781
		C286.2402344,253.6264648,283.6865234,250.6713867,281.6894531,247.2387695z"/>
	<path class="st1" d="M404.1279297,238.8540039c-2.9550781,1.7587891-5.1113281,4.7124023-6.0664063,7.8237305
		C410.9931641,245.7993164,413.3076172,233.3466797,404.1279297,238.8540039z"/>
	<path class="st1" d="M496.265625,376.2197266c-2.3164063,4.7871094-4.7119141,13.0908203,1.9150391,12.7724609
		c2.1533203-0.0800781,4.1503906-1.5976563,5.7470703-3.8300781
		C500.8164063,382.6074219,498.2626953,379.6523438,496.265625,376.2197266z"/>
	<path class="st1" d="M609.8222656,375.7421875c0.6357422-2.4726563-0.1611328-4.46875-1.5185547-6.3056641l-8.7021484-11.8955078
		c-4.8691406-6.6279297-22.1123047-9.3417969-30.2548828,1.9150391
		c-5.8291016-9.2597656-22.2734375-10.3779297-29.8574219-2.2363281c-2.65625,2.8369141-5.09375,7.2480469-7.1435547,12.1972656
		c-4.4414063-6.4018555-9.9589844-14.1962891-16.5595703-16.8242188
		c-6.4667969-2.4765625-13.0117188-1.2001953-18.7587891,2.1542969c-1.8691406,0-3.7294922,0.28125-5.5527344,0.7924805
		c0.1757813-0.7685547,0.3583984-1.543457,0.5283203-2.3061523c2.875-12.6962891,7.3447266-30.9794922-0.5576172-41.6767578
		l-8.7021484-11.8950195c-8.0634766-11.0166016-26.9824219-8.7021484-24.6679688,2.6337891
		c1.9150391,9.659668-9.0976563,39.2749023-16.2861328,50.1342773c3.9121094-21.4736328-4.1513672-29.0576172-14.5292969-43.1875
		c-3.125-4.5356445-7.2558594-8.1464844-12.0253906-10.9038086c13.8359375-4.7553711,24.0908203-18.0610352,30.8378906-30.6669922
		c1.6748047-3.1098633,1.8349609-6.8632813-0.4794922-9.6572266l-7.5839844-10.2163086
		c-3.3515625-4.6308594-1.9150391-2.3945313-4.3095703-4.3911133l-6.8652344-9.4194336
		c-5.8271484-7.9038086-12.4550781-11.1782227-23.0703125-11.4179688
		c-11.3300781-0.265625-20.5039063,4.0668945-27.0019531,10.6176758l-3.7441406-5.1035156
		c-7.2666016-9.8168945-17.8837891-5.1879883-22.7529297,1.7573242l-1.4355469-1.9155273
		c-4.9482422-7.5839844-21.0751953-6.7055664-27.7011719,0.3178711c-2.1821289,2.2729492-3.7172852,5.6630859-4.7856445,9.4287109
		c-4.078125-5.7270508-8.9487305-11.8027344-14.6206055-14.0610352c-6.4667969-2.4755859-13.0117188-1.199707-18.7587891,2.1547852
		c-1.7597656,0-3.5112305,0.2529297-5.2314453,0.7084961c0.7226563-2.5029297,1.2749023-5.1054688,1.6201172-7.8164063
		c1.9941406-15.8041992-2.4755859-23.7890625-10.2988281-34.1669922l-4.6289063-6.3847656
		c-10.7792969-14.7670898-29.2988281-18.3579102-45.5849609-9.7368164
		c-19.7158203,10.4589844-24.0273438,29.8569336-28.4179688,48.7758789
		c-1.0371094-0.7172852-2.1547852-1.6757813-3.2729492-2.6323242c-1.1967773-3.1933594-1.5976563-6.3876953-0.4794922-9.4213867
		c2.0766602-5.1894531-1.5957031-8.7021484-5.1083984-13.3310547c-3.831543-5.2695313-6.5473633-10.7788086-13.0932617-10.0600586
		c-21.2329102,2.4760742-35.762207,33.4482422-19.5576172,55.5615234
		c8.4628906,11.4145508,13.0917969,20.0385742,27.5429688,26.1035156c-0.637207,1.0366211-1.2763672,2.0766602-1.9150391,3.0332031
		c-21.3164063-9.8203125-38.7993164,21.7924805-24.5893555,41.1123047l8.1411133,11.0966797
		c10.2182617,13.9702148,29.059082,16.046875,42.8691406,5.9868164
		c11.1787109,10.1381836,27.2255859,18.5195313,42.0722656,18.7587891
		c31.0556641,0.5610352,40.3154297-30.1767578,27.3017578-47.2602539l-1.7568359-2.3925781
		c-8.3818359-11.4960938-13.5732422-21.0766602-31.6132813-21.3964844c-2.4755859,0-7.2626953,0.4794922-9.8984375,1.8369141
		c0.5576172-2.793457,0.9570313-5.6689453,1.4355469-8.5405273c9.1870117-1.4067383,17.902832-4.4746094,25.4624023-9.0405273
		c-0.7226563,7.4121094,0.9682617,14.8549805,5.3686523,20.855957l8.6210938,11.7353516
		c11.7451172,16.8964844,42.0292969,13.9321289,54.3647461-5.5219727c0.3383789,0.4750977,0.6816406,0.9545898,1.0454102,1.4521484
		c5.7490234,7.7421875,9.5019531,15.0869141,19.9580078,15.0869141c11.2353516,0,22.2392578-12.5791016,28.7685547-22.3168945
		l6.8466797,9.5395508c1.15625,1.5566406,2.3300781,2.9560547,3.5419922,4.2158203
		c-23.0195313,1.5307617-45.1875,14.3583984-45.5058594,35.1191406c-0.078125,6.5458984,1.9179688,12.2929688,5.3496094,16.8447266
		l8.7001953,11.8955078c10.0605469,13.6513672,30.3349609,14.8476563,42.5478516,6.0664063
		c-3.671875,11.734375-3.1923828,18.2001953,2.7939453,26.34375c4.2314453,5.7470703,8.4628906,13.4091797,15.0869141,16.2861328
		c-0.796875,0.2382813-1.5957031,0.3994141-2.4726563,0.3994141c-5.6689453,0.078125-7.0263672-1.9970703-7.9833984-4.4697266
		c-1.5175781-4.0732422-3.5126953-8.5419922-8.7802734-8.3808594
		c-18.4414063,0.6386719-28.7412109,29.6181641-15.1689453,48.1386719l8.1435547,11.0957031
		c3.7197266,5.0507813,8.3779297,8.6777344,13.5927734,11.0078125c-0.7617188,1.6953125-1.2158203,3.4804688-1.265625,5.2607422
		c-0.2392578,6.3066406,2.2363281,8.4628906,4.8681641,12.2148438c-0.4921875,0.7675781-1.0058594,1.5126953-1.5146484,2.2460938
		c-4.6875-6.6894531-10.7314453-16.1396484-18.1357422-19.0878906c-6.4667969-2.4765625-13.0117188-1.2001953-18.7587891,2.1542969
		c-1.5029297,0-3,0.1826172-4.4765625,0.5195313c4.6621094-17.5332031,7.5878906-33.9355469,2.3027344-42.1123047
		l-9.6591797-13.171875c-8.4628906-11.5742188-27.7011719-8.7021484-25.0664063,2.7939453
		c0.7197266,3.1113281,0.0810547,7.5029297-0.5576172,10.8574219c-4.1513672,9.1777344-12.5332031,17.2412109-20.2783203,24.7451172
		l-10.9355469-14.6884766c2.5541992-4.6308594,7.2666016-7.6640625,2.7158203-13.890625l-8.1416016-11.0947266
		c-7.8237305-10.6181641-23.5493164-7.1884766-31.7744141,4.2294922
		c-23.3095703-4.0703125-56.4399414,3.4326172-65.5380859,26.6640625
		c-3.9121094,9.8984375-2.1547852,19.6376953,3.2709961,26.7421875l7.5058594,10.21875
		c6.8657227,9.3378906,15.8041992,14.6074219,28.8193359,13.171875c-2.715332,6.625-6.0668945,12.9316406-10.1381836,18.1210938
		c-3.9121094,4.8701172-10.9384766,7.8242188-16.0483398,6.3066406l-2.7138672-3.7519531
		c-3.1948242-4.3115234-5.4277344-8.8623047-10.3779297-8.703125c-18.3632813,0.640625-28.659668,29.5380859-15.4082031,46.9423828
		l8.1386719,11.0986328c16.84375,22.9101563,50.375,18.359375,70.4116211-1.2773438
		c18.1201172-17.8056641,23.5498047-44.7060547,27.4614258-70.6523438l3.3510742,4.7910156
		c3.2763672,4.390625,7.3461914,11.9746094,12.8535156,13.0917969c-0.956543,4.4726563-1.597168,8.8632813-1.675293,12.6142578
		c-0.081543,13.0927734,3.1118164,21.7919922,10.2182617,31.3730469c7.9833984,10.8564453,13.6494141,21.15625,29.6962891,21.15625
		c14.8486328,0,34.0849609-13.4111328,29.6152344-29.9375c-0.140625-0.5634766-0.5224609-1.3310547-1.0390625-2.203125
		c14.2636719,2.4228516,31.3994141-4.4072266,38.6582031-19.3496094c0.9189453-0.1777344,1.8867188-0.4589844,2.875-0.8222656
		c0.3964844,0.7285156,0.8388672,1.4570313,1.3710938,2.1767578l2.3945313,3.1933594
		c5.9052734,8.0634766,9.1796875,15.1679688,19.8769531,15.1679688c7.0693359,0,14.5751953-5.7011719,21.0166016-12.8037109
		l0.0771484,0.1083984c6.4658203,8.7021484,13.4111328,12.6923828,25.0664063,12.7724609
		c19.6396484,0.2392578,33.6103516-16.6845703,42.0712891-32.4912109c1.6748047-3.1103516,1.8349609-6.8642578-0.4794922-9.6572266
		l-7.5839844-10.2167969c-3.3515625-4.6308594-1.9150391-2.3945313-4.3095703-4.3916016l-6.8652344-9.4189453
		c-5.8271484-7.9033203-12.4550781-11.1787109-23.0703125-11.4179688
		c-11.2949219-0.2646484-20.4462891,4.0410156-26.9394531,10.5585938c-1.4716797-1.9599609-2.8300781-3.7236328-3.5771484-4.7285156
		c-3.6425781-5.0585938-8.5449219-6.1210938-15.4638672-5.2714844
		c14.3505859-5.1210938,27.8320313-16.4179688,35.2314453-32.2324219
		c3.0361328-6.5439453,5.9072266-13.5019531,8.5996094-20.6689453l6.5605469,8.9306641
		c11.1552734,16.0478516,39.0400391,14.1835938,52.3818359-2.7119141l3.8916016,5.265625
		c8.5429688,11.6542969,22.4345703,10.2177734,32.4130859,2.5537109c2.9501953,3.8310547,7.5839844,5.9072266,13.1738281,5.9091797
		c13.7324219,0,28.8183594-21.2333984,34.7275391-32.4111328c1.6757813-3.1953125,1.8369141-6.9453125-0.4794922-9.6611328
		L609.8222656,375.7421875z M215.2539063,248.6796875c-2.15625,16.2045898-5.5078125,32.5708008-13.7324219,45.6625977
		c4.0732422,2.4726563,8.4648438,4.0698242,13.4931641,4.4692383c13.4111328,0.8769531,21.234375-10.7768555,13.8125-17.4042969
		c-1.5166016-1.4360352,0.6386719-2.8720703,0.6386719-2.8720703c2.3955078-1.0366211,5.0302734-1.4360352,7.8232422-1.4360352
		c34.5693359,0.5576172,33.2900391,49.4951172-3.1113281,48.855957
		c-15.0898438-0.3178711-31.6123047-9.8168945-41.9121094-20.3564453
		c-7.2631836,6.7856445-15.965332,8.7822266-23.5498047,7.4243164
		c-34.1665039-6.4658203-15.4858398-56.9189453,7.5058594-40.3149414
		c4.9501953-6.0683594,8.3828125-13.7319336,11.0170898-22.0336914
		c-12.7724609-1.2792969-24.2685547-5.7485352-32.012207-13.7319336
		c-8.5424805-8.8637695-10.6958008-22.9921875-5.1083984-34.7275391
		c3.5927734-7.5844727,10.6191406-14.769043,19.2402344-15.7260742c2.715332-0.3178711,5.1079102,1.3579102,3.9116211,4.3115234
		c-4.0717773,10.6958008,5.5874023,26.0253906,20.5961914,33.9272461
		c1.5957031-6.7055664,3.1113281-13.4926758,4.8681641-20.1982422c13.4111328-51.9677734,72.5673828-43.9042969,66.8984375,0.878418
		C263.15625,224.7241211,247.3496094,245.2421875,215.2539063,248.6796875z M370.9921875,259.4306641
		c-3.2978516,0.8515625-6.7363281,0.5727539-9.625-0.2983398c-7.5029297,12.2929688-18.2802734,23.5493164-26.9824219,23.5493164
		c-6.7060547,0-10.2998047-3.7519531-12.4541016-9.6606445c-1.2553711-3.4428711-2.0317383-7.6274414-2.3857422-12.0180664
		c-2.2792969,1.2695313-4.8310547,2.0161133-7.7617188,2.2827148c-9.8984375,25.7856445-53.7246094,27.6225586-52.9277344-4.6293945
		c0.1601563-3.753418,0.9570313-7.5839844,2.4746094-11.1782227c3.2724609-7.5024414,13.0117188-17.9619141,23.1494141-16.84375
		c16.6044922-11.0966797,29.2988281,5.7470703,29.2988281,21.7124023c0,0.71875-0.0800781,1.5195313-0.0800781,2.2363281
		c2.2915039-0.2172852,4.128418-1.1943359,5.703125-2.6987305c0.4121094-8.8676758,2.3959961-17.1118164,5.5625-20.4526367
		c7.3447266-7.7456055,24.5859375-3.4331055,20.1162109,3.0332031c-1.5175781,2.2329102-0.3203125,25.2250977,1.9150391,25.6240234
		c1.1972656,0.1582031,4.3095703-3.5922852,7.6630859-8.2226563c-13.7304688-27.0620117,29.0585938-37.5996094,11.0966797-1.1967773
		c1.4375,2.1274414,4.3623047,1.5571289,6.4853516,0.090332c3.5898438-12.4931641,14.7675781-23.800293,31.8066406-23.4013672
		c22.3515625,0.4790039,31.9306641,22.4326172-5.6708984,26.7441406
		c-0.9570313,7.2661133,19.5595703,8.7021484,28.5791016-4.7089844c2.7978516-4.0703125,8.703125-1.6757813,6.0703125,3.3510742
		c-8.3027344,14.769043-20.1953125,30.0966797-37.8388672,29.9370117
		C378.5126953,282.5415039,370.9804688,271.5673828,370.9921875,259.4306641z M391.7363281,341.4130859
		c1.4365234-3.6728516,6.7871094-6.8662109,11.734375-7.7441406c-1.1181641,6.0683594-3.4296875,11.2578125-5.5078125,16.2841797
		L391.7363281,341.4130859z M328.8867188,553.4267578c-17.2431641,0-25.9462891-16.2861328-25.7861328-35.0458984
		c0.0800781-7.4238281,3.1943359-19.4775391,6.9453125-31.3730469c2.2324219-7.7451172,6.5458984-18.2832031,10.6953125-29.2177734
		c-5.2675781,5.1074219-10.9345703,10.2158203-16.6826172,14.5292969
		c-0.5605469,19.4003906-18.2827148,19.5576172-16.5253906,9.3408203c0.3989258-2.2363281,1.597168-5.2695313,4.3110352-9.4208984
		c-0.3959961-5.3476563-6.2265625-20.1171875-17.3232422-28.8193359
		c-6.3857422,32.4912109-6.7055664,75.2021484-30.894043,98.9912109
		c-26.6640625,26.1074219-65.699707,16.2080078-67.0571289-10.6953125
		c-0.6391602-12.453125,6.6240234-24.8271484,16.684082-25.1464844c0.3959961-0.0791016,0.796875,0,1.1962891,0.1611328
		c0.5576172,0.1582031,0.956543,0.6386719,1.1962891,1.4355469c3.0332031,13.5693359,20.3598633,15.2470703,30.3364258,2.6337891
		c14.690918-18.5205078,19.4814453-49.0136719,27.1435547-73.8427734
		c-10.6987305,0.8789063-21.2348633,6.6279297-22.1132813,16.1269531c-0.3178711,3.8320313,1.7568359,7.6621094,6.1479492,8.7802734
		c2.0751953,0.4794922,0.796875,2.7939453,0.796875,2.7939453c-4.3110352,5.3476563-11.9750977,8.1416016-19.637207,7.8242188
		c-15.4892578-0.7197266-23.7924805-12.1337891-22.6743164-24.2685547
		c2.0766602-23.1523438,35.527832-36.4814453,64.9042969-29.9375c4.1499023-6.9433594,9.6591797-11.2558594,17.4829102-11.0166016
		c2.4760742,0.0800781,4.7119141,0.796875,6.6274414,2.3945313c1.355957,1.1181641,1.8349609,2.7939453,0.4775391,4.390625
		c-2.6323242,3.1933594-4.5478516,7.3447266-6.0649414,11.65625C290.090332,432.40625,298.9492188,443.1816406,302.7832031,458.75
		c9.8203125-10.2998047,22.8300781-20.4345703,28.5791016-33.6884766c1.0400391-5.2695313,1.3574219-9.8994141,0.6386719-13.4111328
		c-0.796875-3.1923828,2.7158203-4.1513672,5.0302734-4.1513672c5.7490234-0.0810547,9.4990234,2.1552734,11.6542969,5.5878906
		c9.4189453,14.5292969-16.2832031,73.1240234-16.2050781,93.0830078c0,8.3027344,2.4755859,15.5673828,10.1376953,19.3193359
		c2.6347656,1.2783203,5.5097656,2.4755859,9.0205078,2.2363281c1.2792969-0.0800781,1.9179688,0.6386719,2.2363281,1.7568359
		C356.9863281,540.9785156,343.0976563,553.4316406,328.8867188,553.4267578z M443.2939453,470.1669922
		c0.4785156,1.6796875-0.9589844,3.5947266-1.9970703,6.1484375c-1.9931641,4.8691406-3.9121094,13.6513672-4.390625,18.9189453
		c-0.0820313,0.8789063-0.2402344,3.4345703,0.796875,3.7519531c1.2392578,0.2070313,4.4472656-3.6357422,7.8183594-8.3886719
		c3.3154297-12.8300781,14.6074219-24.671875,32.0380859-24.2636719
		c22.3515625,0.4785156,31.9306641,22.4326172-5.6708984,26.7441406c-0.9570313,7.265625,19.5595703,8.7021484,28.5791016-4.7089844
		c2.7978516-4.0703125,8.703125-1.6757813,6.0703125,3.3505859c-8.3027344,14.7695313-20.1953125,30.0976563-37.8388672,29.9375
		c-14.0292969-0.1181641-21.5849609-7.90625-23.6240234-17.6025391
		c-6.9902344,9.5087891-15.0791016,17.5292969-22.3789063,17.5292969c-21.5566406,0-9.1035156-35.6845703-3.59375-45.8242188
		c-0.8007813,0.4013672-1.5976563,0.71875-2.4765625,0.9580078c-0.1582031,0.3212891-0.3173828,0.71875-0.4785156,0.8789063
		c-2.0263672,4.2070313-4.4882813,8.765625-7.1669922,13.2822266c-0.0673828,0.1748047-0.1289063,0.3486328-0.2216797,0.5263672
		c-4.0683594,6.8652344-8.9414063,10.2167969-15.9648438,10.8554688
		c-9.8984375,25.7861328-53.7246094,27.6230469-52.9277344-4.6289063c0.1601563-3.7539063,0.9570313-7.5839844,2.4746094-11.1777344
		c3.2724609-7.5029297,13.0117188-17.9619141,23.1494141-16.84375
		c16.6044922-11.0966797,29.2988281,5.7470703,29.2988281,21.7119141c0,0.71875-0.0800781,1.5195313-0.0800781,2.2363281
		c3.1416016-0.296875,5.4375-2.0107422,7.3554688-4.5849609c0.1035156-0.1992188,0.2080078-0.3984375,0.3535156-0.6015625
		c2.9550781-4.2324219,5.7490234-8.7832031,7.2666016-11.4179688c-4.1513672-0.9560547-7.2666016-4.0712891-7.1054688-9.6582031
		c0.1601563-7.3447266,10.2978516-13.8945313,15.6474609-9.34375c2.9541016,2.3945313,2.5546875,7.1855469,1.1962891,11.8164063
		C425.4101563,467.9306641,441.0576172,463.5400391,443.2939453,470.1669922z M454.3037109,415.1738281
		c-19.2382813,41.3505859-75.6787109,42.8691406-77.515625,6.5449219
		c-0.6386719-12.453125,6.6279297-24.828125,16.6845703-25.1455078c0.3994141-0.0800781,0.796875,0,1.1962891,0.1591797
		c0.5585938,0.1582031,0.9580078,0.6396484,1.1982422,1.4365234c1.6748047,7.4277344,7.5839844,11.2558594,14.2890625,11.1777344
		c10.4599609-0.1591797,18.9990234-11.2558594,25.546875-23.8701172c-7.1855469,2.875-14.7695313,4.0712891-22.7529297,3.4326172
		c-27.3798828-2.1552734-11.2548828-32.3300781-7.1035156-42.9472656
		c17.0839844-42.5517578-25.6240234-31.8525391-27.4609375-16.3652344c-0.4794922,4.3085938,1.515625,8.3818359,6.3066406,9.5
		c1.9960938,0.4775391,0.7978516,2.8720703,0.7978516,2.8720703c-4.3076172,5.3505859-12.0527344,8.0634766-19.7158203,7.7431641
		c-14.9287109-0.6357422-23.0732422-11.3339844-22.9130859-22.9082031
		c0.5605469-36.3251953,84.1425781-45.5849609,87.0175781,1.6757813
		c0.7988281,12.8515625-10.2177734,36.8798828,0.8789063,37.7587891
		c10.3779297,0.8007813,18.0400391-12.7705078,22.7519531-23.5498047
		c4.7089844-11.0126953,12.2128906-31.5292969,10.3779297-41.3496094c-0.7216797-3.1948242,2.7900391-4.0698242,5.1865234-3.9916992
		c10.5390625,0.2397461,13.8125,7.5844727,13.8085938,16.9204102
		C482.9609375,333.1083984,467.7958984,386.1953125,454.3037109,415.1738281z M605.8662109,381.7324219
		c-8.0634766,13.5712891-20.0371094,29.9355469-30.4941406,29.9355469c-6.3867188,0-10.4560547-3.2714844-11.7363281-9.4189453
		c-9.9013672,13.4921875-33.6904297,13.7314453-31.9316406-8.3037109c0.0742188-0.9726563,0.1835938-1.9667969,0.3183594-2.9716797
		c-1.7255859,0.6767578-3.5996094,1.1054688-5.6630859,1.2929688c-9.8984375,25.7861328-53.7246094,27.6230469-52.9277344-4.6289063
		c0.1601563-3.7539063,0.9570313-7.5839844,2.4746094-11.1777344c3.2724609-7.5029297,13.0117188-17.9619141,23.1494141-16.84375
		c16.6044922-11.0966797,29.2988281,5.7470703,29.2988281,21.7119141c0,0.71875-0.0800781,1.5195313-0.0800781,2.2363281
		c2.4277344-0.2294922,4.3486328-1.3076172,5.9833984-2.96875c2.5263672-8.7519531,6.3808594-16.8476563,9.5-20.1796875
		c7.34375-7.7451172,25.8632813-2.2363281,20.1162109,3.0322266c-3.2763672,2.9550781-7.4277344,25.2265625-5.1914063,25.6259766
		c5.1914063,0.8779297,7.3447266-9.1816406,8.7021484-13.09375c2.3945313-6.8652344,5.5097656-12.8525391,8.0634766-15.5673828
		c7.3447266-7.7460938,25.8642578-2.2363281,20.1171875,3.0332031c-3.2734375,2.953125-7.4248047,25.2246094-5.1884766,25.6240234
		c1.3574219,0.2402344,5.5087891-5.0263672,9.4208984-10.6953125
		C602.5917969,374.3847656,608.5,376.6992188,605.8662109,381.7324219z"/>
	<path class="st1" d="M362.7001953,486.2138672c-2.3164063,4.7871094-4.7119141,13.0908203,1.9150391,12.7724609
		c2.1533203-0.0800781,4.1503906-1.5976563,5.7470703-3.8300781
		C367.2509766,492.6015625,364.6972656,489.6464844,362.7001953,486.2138672z"/>
	<path class="st1" d="M477.640625,477.8300781c-2.9550781,1.7587891-5.1113281,4.7119141-6.0664063,7.8232422
		C484.5058594,484.7753906,486.8203125,472.3222656,477.640625,477.8300781z"/>
	<path class="st4" d="M198.734375,204.5292969c-1.7568359,6.7055664-3.2724609,13.4926758-4.8681641,20.1982422
		c-15.0087891-7.9018555-24.6679688-23.2314453-20.5961914-33.9272461c1.1962891-2.9536133-1.1962891-4.6293945-3.9116211-4.3115234
		c-8.6210938,0.9570313-15.6474609,8.1416016-19.2402344,15.7260742
		c-5.5874023,11.7353516-3.434082,25.8637695,5.1083984,34.7275391c7.7436523,7.9833984,19.2397461,12.4526367,32.012207,13.7319336
		c-2.6342773,8.3017578-6.0668945,15.965332-11.0170898,22.0336914
		c-22.9916992-16.6040039-41.6723633,33.8491211-7.5058594,40.3149414
		c7.5844727,1.3579102,16.2866211-0.6386719,23.5498047-7.4243164
		c10.2998047,10.5395508,26.8222656,20.0385742,41.9121094,20.3564453
		c36.4013672,0.6391602,37.6806641-48.2983398,3.1113281-48.855957c-2.7929688,0-5.4277344,0.3994141-7.8232422,1.4360352
		c0,0-2.1552734,1.4360352-0.6386719,2.8720703c7.421875,6.6274414-0.4013672,18.28125-13.8125,17.4042969
		c-5.0283203-0.3994141-9.4199219-1.996582-13.4931641-4.4692383c8.2246094-13.0917969,11.5761719-29.4580078,13.7324219-45.6625977
		c32.0957031-3.4375,47.9023438-23.9555664,50.3789063-43.2719727
		C271.3017578,160.625,212.1455078,152.5615234,198.734375,204.5292969z M217.5722656,229.6757813
		c0.5605469-4.8686523,2.6337891-24.0283203,7.265625-36.8022461
		C239.2060547,152.7978516,242.9619141,229.9155273,217.5722656,229.6757813z"/>
	<path class="st4" d="M433.0253906,252.7446289c2.6328125-5.0268555-3.2724609-7.4213867-6.0703125-3.3510742
		c-9.0195313,13.4111328-29.5361328,11.9750977-28.5791016,4.7089844
		c37.6015625-4.3115234,28.0224609-26.2651367,5.6708984-26.7441406
		c-17.0390625-0.3989258-28.2167969,10.9082031-31.8066406,23.4013672c-2.1230469,1.4667969-5.0478516,2.0371094-6.4853516-0.090332
		c17.9619141-36.402832-24.8271484-25.8652344-11.0966797,1.1967773c-3.3535156,4.6303711-6.4658203,8.3808594-7.6630859,8.2226563
		c-2.2353516-0.3989258-3.4326172-23.3911133-1.9150391-25.6240234c4.4697266-6.4663086-12.7714844-10.7788086-20.1162109-3.0332031
		c-3.1665039,3.3408203-5.1503906,11.5849609-5.5625,20.4526367c-1.574707,1.5043945-3.4116211,2.4814453-5.703125,2.6987305
		c0-0.7167969,0.0800781-1.5175781,0.0800781-2.2363281c0-15.965332-12.6943359-32.809082-29.2988281-21.7124023
		c-10.1376953-1.1181641-19.8769531,9.3413086-23.1494141,16.84375c-1.5175781,3.5942383-2.3144531,7.4248047-2.4746094,11.1782227
		c-0.796875,32.2519531,43.0292969,30.4150391,52.9277344,4.6293945c2.9306641-0.2666016,5.4824219-1.0131836,7.7617188-2.2827148
		c0.3540039,4.390625,1.1303711,8.5751953,2.3857422,12.0180664c2.1542969,5.9086914,5.7480469,9.6606445,12.4541016,9.6606445
		c8.7021484,0,19.4794922-11.2563477,26.9824219-23.5493164c2.8886719,0.8710938,6.3271484,1.1499023,9.625,0.2983398
		c-0.0117188,12.1367188,7.5205078,23.1108398,24.1943359,23.2509766
		C412.8300781,282.8413086,424.7226563,267.5136719,433.0253906,252.7446289z M404.1279297,238.8540039
		c9.1796875-5.5073242,6.8652344,6.9453125-6.0664063,7.8237305
		C399.0166016,243.5664063,401.1728516,240.612793,404.1279297,238.8540039z M283.6044922,260.0107422
		c-6.6269531,0.3178711-4.2314453-7.9848633-1.9150391-12.7719727c1.9970703,3.4326172,4.5507813,6.3876953,7.6621094,8.9418945
		C287.7548828,258.4135742,285.7578125,259.9311523,283.6044922,260.0107422z"/>
	<path class="st3" d="M469.0742188,297.347168c-2.3964844-0.078125-5.9082031,0.796875-5.1865234,3.9916992
		c1.8349609,9.8203125-5.6689453,30.3369141-10.3779297,41.3496094
		c-4.7119141,10.7792969-12.3740234,24.3505859-22.7519531,23.5498047
		c-11.0966797-0.8789063-0.0800781-24.9072266-0.8789063-37.7587891c-2.875-47.2607422-86.4570313-38.0009766-87.0175781-1.6757813
		c-0.1601563,11.5742188,7.984375,22.2724609,22.9130859,22.9082031c7.6630859,0.3203125,15.4082031-2.3925781,19.7158203-7.7431641
		c0,0,1.1982422-2.3945313-0.7978516-2.8720703c-4.7910156-1.1181641-6.7861328-5.1914063-6.3066406-9.5
		c1.8369141-15.4873047,44.5449219-26.1865234,27.4609375,16.3652344
		c-4.1513672,10.6171875-20.2763672,40.7919922,7.1035156,42.9472656
		c7.9833984,0.6386719,15.5673828-0.5576172,22.7529297-3.4326172
		c-6.5478516,12.6142578-15.0869141,23.7109375-25.546875,23.8701172c-6.7050781,0.078125-12.6142578-3.75-14.2890625-11.1777344
		c-0.2402344-0.796875-0.6396484-1.2783203-1.1982422-1.4365234c-0.3994141-0.1591797-0.796875-0.2392578-1.1962891-0.1591797
		c-10.0566406,0.3173828-17.3232422,12.6923828-16.6845703,25.1455078
		c1.8369141,36.3242188,58.2773438,34.8056641,77.515625-6.5449219
		c13.4921875-28.9785156,28.6572266-82.0654297,28.5791016-100.90625
		C482.8867188,304.9316406,479.6132813,297.5869141,469.0742188,297.347168z"/>
	<path class="st3" d="M599.7978516,378.375c-3.9121094,5.6689453-8.0634766,10.9355469-9.4208984,10.6953125
		c-2.2363281-0.3994141,1.9150391-22.6708984,5.1884766-25.6240234c5.7470703-5.2695313-12.7724609-10.7792969-20.1171875-3.0332031
		c-2.5537109,2.7148438-5.6689453,8.7021484-8.0634766,15.5673828c-1.3574219,3.9121094-3.5107422,13.9716797-8.7021484,13.09375
		c-2.2363281-0.3994141,1.9150391-22.6708984,5.1914063-25.6259766c5.7470703-5.2685547-12.7724609-10.7773438-20.1162109-3.0322266
		c-3.1191406,3.3320313-6.9736328,11.4277344-9.5,20.1796875c-1.6347656,1.6611328-3.5556641,2.7392578-5.9833984,2.96875
		c0-0.7167969,0.0800781-1.5175781,0.0800781-2.2363281c0-15.9648438-12.6943359-32.8085938-29.2988281-21.7119141
		c-10.1376953-1.1181641-19.8769531,9.3408203-23.1494141,16.84375c-1.5175781,3.59375-2.3144531,7.4238281-2.4746094,11.1777344
		c-0.796875,32.2519531,43.0292969,30.4150391,52.9277344,4.6289063c2.0634766-0.1875,3.9375-0.6162109,5.6630859-1.2929688
		c-0.1347656,1.0048828-0.2441406,1.9990234-0.3183594,2.9716797c-1.7587891,22.0351563,22.0302734,21.7958984,31.9316406,8.3037109
		c1.2802734,6.1474609,5.3496094,9.4189453,11.7363281,9.4189453c10.4570313,0,22.4306641-16.3642578,30.4941406-29.9355469
		C608.5,376.6992188,602.5917969,374.3847656,599.7978516,378.375z M498.1806641,388.9921875
		c-6.6269531,0.3183594-4.2314453-7.9853516-1.9150391-12.7724609c1.9970703,3.4326172,4.5507813,6.3876953,7.6621094,8.9423828
		C502.3310547,387.3945313,500.3339844,388.9121094,498.1806641,388.9921875z"/>
	<path class="st4" d="M353.875,529.4824219c-0.3183594-1.1181641-0.9570313-1.8369141-2.2363281-1.7568359
		c-3.5107422,0.2392578-6.3857422-0.9580078-9.0205078-2.2363281c-7.6621094-3.7519531-10.1376953-11.0166016-10.1376953-19.3193359
		c-0.078125-19.9589844,25.6240234-78.5537109,16.2050781-93.0830078
		c-2.1552734-3.4326172-5.9052734-5.6689453-11.6542969-5.5878906c-2.3144531,0-5.8271484,0.9589844-5.0302734,4.1513672
		c0.71875,3.5117188,0.4013672,8.1416016-0.6386719,13.4111328c-5.7490234,13.2539063-18.7587891,23.3886719-28.5791016,33.6884766
		c-3.8339844-15.5683594-12.6928711-26.34375-23.7094727-33.0488281c1.5170898-4.3115234,3.4326172-8.4628906,6.0649414-11.65625
		c1.3574219-1.5966797,0.878418-3.2724609-0.4775391-4.390625c-1.9155273-1.5976563-4.1513672-2.3144531-6.6274414-2.3945313
		c-7.8237305-0.2392578-13.3330078,4.0732422-17.4829102,11.0166016c-29.3764648-6.5439453-62.8276367,6.7851563-64.9042969,29.9375
		c-1.1181641,12.1347656,7.1850586,23.5488281,22.6743164,24.2685547c7.6621094,0.3173828,15.3261719-2.4765625,19.637207-7.8242188
		c0,0,1.2783203-2.3144531-0.796875-2.7939453c-4.3911133-1.1181641-6.4658203-4.9482422-6.1479492-8.7802734
		c0.878418-9.4990234,11.4145508-15.2480469,22.1132813-16.1269531
		c-7.6621094,24.8291016-12.4526367,55.3222656-27.1435547,73.8427734
		c-9.9765625,12.6132813-27.3032227,10.9355469-30.3364258-2.6337891c-0.2397461-0.796875-0.6386719-1.2773438-1.1962891-1.4355469
		c-0.3994141-0.1611328-0.800293-0.2402344-1.1962891-0.1611328c-10.0600586,0.3193359-17.3232422,12.6933594-16.684082,25.1464844
		c1.3574219,26.9033203,40.3930664,36.8027344,67.0571289,10.6953125c24.1884766-23.7890625,24.5083008-66.5,30.894043-98.9912109
		c11.0966797,8.7021484,16.9272461,23.4716797,17.3232422,28.8193359c-2.7138672,4.1513672-3.9121094,7.1845703-4.3110352,9.4208984
		c-1.7573242,10.2167969,15.9648438,10.0595703,16.5253906-9.3408203
		c5.7480469-4.3134766,11.4150391-9.421875,16.6826172-14.5292969
		c-4.1494141,10.9345703-8.4628906,21.4726563-10.6953125,29.2177734
		c-3.7509766,11.8955078-6.8652344,23.9492188-6.9453125,31.3730469
		c-0.1601563,18.7597656,8.5429688,35.0458984,25.7861328,35.0458984
		C343.0976563,553.4316406,356.9863281,540.9785156,353.875,529.4824219z"/>
	<path class="st4" d="M418.2265625,457.9521484c-5.3496094-4.5507813-15.4873047,1.9990234-15.6474609,9.34375
		c-0.1611328,5.5869141,2.9541016,8.7021484,7.1054688,9.6582031c-1.5175781,2.6347656-4.3115234,7.1855469-7.2666016,11.4179688
		c-0.1455078,0.203125-0.25,0.4023438-0.3535156,0.6015625c-1.9179688,2.5742188-4.2138672,4.2880859-7.3554688,4.5849609
		c0-0.7167969,0.0800781-1.5175781,0.0800781-2.2363281c0-15.9648438-12.6943359-32.8085938-29.2988281-21.7119141
		c-10.1376953-1.1181641-19.8769531,9.3408203-23.1494141,16.84375c-1.5175781,3.59375-2.3144531,7.4238281-2.4746094,11.1777344
		c-0.796875,32.2519531,43.0292969,30.4150391,52.9277344,4.6289063
		c7.0234375-0.6386719,11.8964844-3.9902344,15.9648438-10.8554688c0.0927734-0.1777344,0.1542969-0.3515625,0.2216797-0.5263672
		c2.6787109-4.5166016,5.140625-9.0751953,7.1669922-13.2822266c0.1611328-0.1601563,0.3203125-0.5576172,0.4785156-0.8789063
		c0.8789063-0.2392578,1.6757813-0.5566406,2.4765625-0.9580078c-5.5097656,10.1396484-17.9628906,45.8242188,3.59375,45.8242188
		c7.2998047,0,15.3886719-8.0205078,22.3789063-17.5292969c2.0390625,9.6962891,9.5947266,17.484375,23.6240234,17.6025391
		c17.6435547,0.1601563,29.5361328-15.1679688,37.8388672-29.9375c2.6328125-5.0263672-3.2724609-7.4208984-6.0703125-3.3505859
		c-9.0195313,13.4111328-29.5361328,11.9746094-28.5791016,4.7089844
		c37.6015625-4.3115234,28.0224609-26.265625,5.6708984-26.7441406
		c-17.4306641-0.4082031-28.7226563,11.4335938-32.0380859,24.2636719
		c-3.3710938,4.7529297-6.5791016,8.5957031-7.8183594,8.3886719c-1.0371094-0.3173828-0.8789063-2.8730469-0.796875-3.7519531
		c0.4785156-5.2675781,2.3974609-14.0498047,4.390625-18.9189453c1.0380859-2.5537109,2.4755859-4.46875,1.9970703-6.1484375
		c-2.2363281-6.6269531-17.8837891-2.2363281-23.8710938-0.3984375
		C420.78125,465.1376953,421.1806641,460.3466797,418.2265625,457.9521484z M364.6152344,498.9863281
		c-6.6269531,0.3183594-4.2314453-7.9853516-1.9150391-12.7724609c1.9970703,3.4326172,4.5507813,6.3876953,7.6621094,8.9423828
		C368.765625,497.3886719,366.7685547,498.90625,364.6152344,498.9863281z M477.640625,477.8300781
		c9.1796875-5.5078125,6.8652344,6.9453125-6.0664063,7.8232422
		C472.5292969,482.5419922,474.6855469,479.5888672,477.640625,477.8300781z"/>
	<path class="st1" d="M295.0063477,341.765625c-4.3305664-2.8066406-12.1025391-5.5136719-17.1040039-2.3500977
		c-7.6391602,4.831543-4.2421875,20.4658203-3.9331055,21.8168945
		c4.6865234,20.4921875,28.6987305,29.5800781,33.0395508,31.1484375
		c3.9052734-2.9833984,24.2470703-19.0546875,22.6547852-39.9023438c-0.2348633-3.0756836-1.2080078-15.8208008-9.3911133-18.887207
		c-4.3496094-1.6298828-9.703125-0.1381836-13.3242188,2.9296875c-5.652832,4.7900391-5.171875,11.8046875-5.1142578,12.4736328
		C300.7524414,347.1425781,298.6523438,344.1289063,295.0063477,341.765625z"/>
	<path class="st3" d="M232.1552734,404.0605469c3.4643555-1.1777344,21.6337891-7.6933594,25.4570313-22.7832031
		c0.5644531-2.2265625,2.9018555-11.4521484-2.1455078-15.5581055c-2.6826172-2.1821289-6.8149414-2.4003906-10.0981445-1.0942383
		c-5.1264648,2.0390625-6.4516602,7.1035156-6.5693359,7.5888672c-0.3237305-1.5634766-1.0908203-4.1884766-3.1030273-6.7216797
		c-2.3901367-3.0083008-7.2329102-6.7631836-11.5131836-5.7172852c-6.5375977,1.5966797-7.8500977,13.4370117-7.953125,14.4633789
		C214.6748047,389.8125,229.4643555,401.9238281,232.1552734,404.0605469z"/>
	<path class="st1" d="M194.0410156,337.8603516c-2.8813477-0.5327148-6.0424805,0.9833984-7.953125,3.2880859
		c-2.9829102,3.5981445-1.9111328,7.9018555-1.8012695,8.3110352c-0.8759766-1.0307617-2.5126953-2.6713867-5.0375977-3.7373047
		c-2.9990234-1.265625-8.1245117-2.090332-10.8823242,0.4257813c-4.2124023,3.8427734-0.3789063,13.1787109-0.0380859,13.9838867
		c5.1694336,12.2099609,21.0854492,15.2080078,23.9541016,15.7041016
		c2.097168-2.2841797,12.9594727-14.5078125,9.6728516-27.2797852
		C201.4707031,346.6713867,199.4614258,338.8632813,194.0410156,337.8603516z"/>
</g>
</svg>
