<?xml version="1.0" encoding="utf-8"?>
<!-- Generator: Adobe Illustrator 18.0.0, SVG Export Plug-In . SVG Version: 6.00 Build 0)  -->
<!DOCTYPE svg PUBLIC "-//W3C//DTD SVG 1.1//EN" "http://www.w3.org/Graphics/SVG/1.1/DTD/svg11.dtd">
<svg version="1.1" id="Layer_1" xmlns="http://www.w3.org/2000/svg" xmlns:xlink="http://www.w3.org/1999/xlink" x="0px" y="0px"
	 viewBox="0 0 432 432" enable-background="new 0 0 432 432" xml:space="preserve">
<g>
	<g>
		<path d="M16.3,208.2c-3.6-5.1-5.9-11.4-5.3-17.7c1-9.1,6.5-17.1,15-20.9c17.8-7.9,46.4-2.2,48,20.9c0.2,2.5-2.2,4.6-4.6,4.6
			c-2.6,0-4.4-2.1-4.6-4.6c0-0.2-0.1-1.2-0.1-1.1c-0.1-0.4-0.2-0.9-0.3-1.3c-0.2-1-0.5-2-1-2.9c-0.6-1.2-1.4-2.3-2.3-3.3
			c-0.4-0.4-0.8-0.8-1.2-1.1c-0.1-0.1-0.7-0.5-0.7-0.5c-0.8-0.6-1.8-1.2-2.7-1.7c-1-0.5-1.5-0.8-2.3-1.1c-4.5-1.7-8.3-2.2-12.9-2.1
			c-2.5,0.1-3.9,0.2-6.2,0.7c-1.1,0.3-2.2,0.6-3.3,0.9c-1.1,0.4-1.6,0.6-2.2,0.9c-1.9,0.9-3.6,2-5.1,3.5c-0.9,0.9-1.5,1.6-2.1,2.8
			c-0.3,0.4-0.5,0.9-0.7,1.3c-0.1,0.2-0.5,1.1-0.5,1c-0.6,1.4-0.9,2.9-1.2,4.5c0,0.1,0,0.1,0,0.2c0,0.7-0.1,1.4,0,2.1
			c0,0.4,0,0.8,0.1,1.2c0,0.1,0,0.1,0,0.2c0,0,0,0,0,0.1c0.2,0.7,0.3,1.4,0.5,2.1c0.2,0.7,0.5,1.5,0.7,2.2c0,0,0,0,0,0
			c0,0,0,0.1,0.1,0.1c0.2,0.3,0.3,0.7,0.5,1c0.7,1.4,1.6,2.7,2.5,3.9c0.1,0.1,0.1,0.2,0.2,0.2c0,0,0,0.1,0.1,0.1
			c0.3,0.3,0.5,0.7,0.8,1c0.5,0.6,1,1.2,1.6,1.8c2.4,2.6,5.1,4.9,7.8,7.2c1.4,1.2,2.9,2.3,4.4,3.5c0.1,0.1,0.4,0.3,0.5,0.4
			c0.1,0.1,0.2,0.2,0.3,0.2c0.3,0.3,0.7,0.5,1,0.8c0.7,0.6,1.5,1.1,2.2,1.7c3.3,2.5,6.5,4.9,9.7,7.5c5.8,4.8,11.5,10,15.5,16.4
			c3.7,5.8,5.7,12.7,5.2,19.5c-0.3,4.6-1.6,9.2-4.3,13c-3.1,4.3-7.3,7.1-12.3,8.9c-17.9,6.5-45.2-1.7-44.2-24.3
			c0.1-2.5,2-4.6,4.6-4.6c2.4,0,4.6,2.1,4.6,4.6c0,0.8,0,1.7,0,2.5c0.1,1,0.1,1,0.4,2.3c0.6,2.3,1.6,4.3,3.2,6
			c1.5,1.6,2.5,2.3,4.6,3.4c3.4,1.8,7.9,2.8,11.8,3c4.7,0.2,8.2-0.2,12.6-1.8c0.6-0.2,1.4-0.6,2.5-1.1c0.8-0.4,1.5-0.9,2.2-1.4
			c1.4-1.1,3-3.1,3.9-5.1c0,0,0.3-0.9,0.4-1c0.2-0.5,0.3-1,0.5-1.6c0.1-0.4,0.2-0.9,0.3-1.3c0-0.2,0.1-0.4,0.1-0.6c0,0,0-0.1,0-0.1
			c0.1-1.2,0.2-2.4,0.2-3.6c0-0.8-0.1-1.6-0.2-2.4c0-0.1-0.1-0.4-0.1-0.5c-0.1-0.4-0.2-0.8-0.3-1.3c-0.2-0.8-0.4-1.7-0.7-2.5
			c-0.1-0.3-0.3-0.7-0.4-1c0-0.1-0.1-0.2-0.1-0.3c0,0,0-0.1-0.1-0.2c-0.7-1.5-1.5-3-2.4-4.4c-0.5-0.7-1-1.5-1.5-2.2c0,0,0,0,0-0.1
			c-0.1-0.1-0.2-0.3-0.3-0.4c-0.2-0.3-0.5-0.6-0.7-0.9c-2.4-2.8-5-5.3-7.7-7.7c-1.4-1.2-2.9-2.5-4.4-3.6c-0.8-0.6-1.6-1.2-2.3-1.8
			c-0.1-0.1-0.7-0.6-0.8-0.6c-0.3-0.2-0.6-0.4-0.8-0.7c-3.2-2.5-6.5-4.9-9.7-7.4C26.1,219,20.5,214.2,16.3,208.2z"/>
		<path d="M132.7,173.6c-0.2,8-0.3,16-0.5,24.1c-0.6,28.3-1.2,56.5-1.7,84.8c-0.1,5.9-9.2,5.9-9.1,0c0.2-8,0.3-16,0.5-24.1
			c0-1.8,0.1-3.5,0.1-5.3c-1.4,5.2-3.1,10.3-5.3,15.2c-2.4,5.3-5.6,10.6-10.6,13.8c-5.6,3.6-12.9,3.2-17.3-2c-4.3-5-6-11.8-7.2-18.2
			c-1.6-9-2.2-18.1-2.4-27.2c-0.5-20.2,0.7-40.5,2.4-60.7c0.2-2.5,1.9-4.6,4.6-4.6c2.3,0,4.8,2.1,4.6,4.6c-0.2,2.2-0.4,4.5-0.5,6.7
			c-1.4,19.4-2.5,39-1.7,58.5c0.2,4.4,0.5,8.8,0.9,13.2c0.3,2.4,0.3,2.8,0.7,5c0.3,1.8,0.6,3.5,1,5.2c0.3,1.6,0.7,3.1,1.2,4.6
			c0.2,0.7,0.5,1.5,0.8,2.2c0,0.1,0.1,0.3,0.2,0.5c0.1,0.2,0.2,0.5,0.3,0.6c0.5,1.1,1.2,2,1.8,3.1c0.2,0.2,0.3,0.4,0.5,0.6
			c0.1,0.1,0.3,0.3,0.4,0.4c0.3,0.2,0.7,0.4,1,0.6c0.1,0,0.3,0.1,0.4,0.1c0.6,0.1,1,0,1.7-0.2c0.2-0.1,0.4-0.1,0.7-0.2
			c0.1,0,0.2-0.1,0.4-0.2c0.1,0,0.2-0.1,0.2-0.1c0.2-0.1,0.4-0.2,0.6-0.3c0.2-0.1,0.5-0.3,0.7-0.4c0,0,0.1-0.1,0.1-0.1
			c0.2-0.2,0.8-0.7,0.9-0.8c0.4-0.4,0.8-0.8,1.2-1.2c0.2-0.2,0.4-0.5,0.6-0.7c0,0,0-0.1,0.1-0.1c0.3-0.5,0.7-1,1-1.5
			c0.8-1.2,1.5-2.4,2.1-3.7c0.3-0.7,0.6-1.3,0.9-2c0.1-0.2,0.3-0.7,0.3-0.8c0.1-0.2,0.2-0.4,0.2-0.6c0.6-1.5,1.1-3,1.7-4.6
			c2.3-7.1,3.9-14.4,5.2-21.8c0.3-2,0.7-3.9,0.9-5.9c0.4-2.5,0.5-3.3,0.8-5.5c0.5-4,0.9-8,1.3-12c1.2-13.2,1.9-26.4,2.2-39.6
			c0.1-3.8,3.9-5.1,6.6-4C130.4,169.1,132.8,170.6,132.7,173.6z M96.3,274.7C96.3,274.7,96.3,274.7,96.3,274.7
			C96.7,275.1,96.6,274.9,96.3,274.7z"/>
		<path d="M210.1,283.7c0,5.9-9.1,5.9-9.1,0c0.2-23.4,0.7-46.8,0.5-70.2c-0.1-6.8-0.2-13.6-0.6-20.4c-0.2-2.5-0.4-4.9-0.7-7.3
			c0,0-0.2-1.2-0.2-1.5c-0.1-0.5-0.2-1-0.3-1.5c-0.2-0.9-0.4-1.8-0.6-2.7c-0.2-0.8-0.4-1.6-0.7-2.3c0,0,0-0.1,0-0.1c0,0,0,0,0,0
			c0,0-0.1-0.2-0.2-0.4c0,0,0,0,0,0c-0.1-0.3-0.1-0.3-0.1-0.2c-0.1-0.1-0.1-0.2-0.1-0.3c-0.1-0.3-0.3-0.5-0.5-0.8c0,0,0.1,0,0.1,0
			c0,0-0.1-0.1-0.2-0.2c0-0.1-0.1-0.1-0.1-0.2c0,0,0,0,0,0c0,0,0-0.1-0.1-0.1c0,0,0,0,0,0c0,0,0,0,0,0c0,0,0,0,0,0c0,0,0,0,0,0l0,0
			c0,0,0,0,0,0c0,0,0,0,0,0c0,0,0,0,0,0c0,0-0.1,0-0.1,0.1c-0.2,0.2-0.4,0.5-0.7,0.7c0,0,0,0,0,0.1c-0.4,0.7-0.8,1.3-1.2,2
			c-0.2,0.5-0.5,0.9-0.7,1.4c-0.1,0.2-0.2,0.4-0.3,0.6c-0.4,1-0.8,1.9-1.1,2.9c-2,5.7-3.4,11.6-4.7,17.4
			c-4.4,19.7-7.7,39.6-11.3,59.4c0,0.4-0.1,0.7-0.2,1.1c-0.6,2.2-3.4,3.5-5.5,2.9c-0.7-0.2-1.3-0.5-1.8-1c-0.9-0.7-1.6-1.9-1.6-3.4
			c0.1-19.4,0.5-38.9,0.3-58.3c-0.1-5.4-0.2-10.9-0.7-16.3c-0.1-1-0.3-2-0.3-3c0-0.2,0-0.3-0.1-0.5c-0.1-0.4-0.1-0.8-0.2-1.2
			c-0.2-1.2-0.5-2.3-0.8-3.4c-0.2,0.3-0.3,0.7-0.5,1c0,0,0,0.1-0.1,0.1c-0.3,0.7-0.6,1.5-0.8,2.2c-0.7,1.9-1.2,3.8-1.7,5.7
			c-1.4,5.4-2.5,10.8-3.5,16.3c-3.3,17-5.9,34.2-8.6,51.3c0,10.1,0,20.2-0.1,30.3c0,5.9-9.1,5.9-9.1,0c0-8.3,0-16.5,0.1-24.8
			c0.1-29,0.1-58,0.2-87c0-5.9,9.1-5.9,9.1,0c0,8.3,0,16.5-0.1,24.8c0,0.5,0,1,0,1.5c0.3-1.7,0.7-3.4,1-5.1c1-4.9,2.1-9.9,3.7-14.6
			c1.1-3.3,2.3-6.8,4.7-9.4c2.1-2.3,5.2-3.4,8.2-2.4c3.4,1.1,5.2,4.3,6.3,7.5c1.3,3.9,1.6,8.1,1.9,12.1c0.5,5.9,0.6,11.9,0.6,17.8
			c0,1.4,0,2.7,0,4.1c1.2-5.7,2.4-11.3,3.8-16.9c1.4-5.5,2.9-10.9,5.3-16c1.4-3.1,3.5-6.4,6.7-8c3.5-1.7,7.7-0.9,10.4,1.9
			c2.6,2.6,3.8,6.4,4.5,9.9c2.7,12.5,2.4,25.8,2.4,38.6C210.7,239.5,210.3,261.6,210.1,283.7z M165.4,175
			C165.4,175,165.4,175,165.4,175C165.4,175,165.4,175,165.4,175z M196.8,175.1C196.8,175.1,196.8,175.1,196.8,175.1
			C196.8,175.1,196.7,175.1,196.8,175.1C196.7,175.1,196.8,175.1,196.8,175.1z M197,175.2C197,175.2,197,175.2,197,175.2
			c-0.1,0-0.2,0-0.2-0.1c0,0,0.1,0.1,0.1,0.1C196.9,175.3,197,175.3,197,175.2z M197.1,175.3C197.1,175.3,197.1,175.3,197.1,175.3
			c-0.1,0-0.1,0-0.1,0C197,175.4,197.1,175.4,197.1,175.3C197.1,175.4,197.1,175.3,197.1,175.3z M197.3,175.3c0.1,0,0.1,0.1,0.1,0.1
			C197.5,175.4,197.5,175.4,197.3,175.3z"/>
		<path d="M288.6,283.7c0,5.9-9.1,5.9-9.1,0c0.2-23.4,0.7-46.8,0.5-70.2c-0.1-6.8-0.2-13.6-0.6-20.4c-0.2-2.5-0.4-4.9-0.7-7.3
			c0,0-0.2-1.2-0.2-1.5c-0.1-0.5-0.2-1-0.3-1.5c-0.2-0.9-0.4-1.8-0.6-2.7c-0.2-0.8-0.4-1.6-0.7-2.3c0,0,0-0.1,0-0.1c0,0,0,0,0,0
			c0,0-0.1-0.2-0.2-0.4c0,0,0,0,0,0c-0.1-0.3-0.1-0.3-0.1-0.2c-0.1-0.1-0.1-0.2-0.1-0.3c-0.1-0.3-0.3-0.5-0.5-0.8c0,0,0.1,0,0.1,0
			c0,0-0.1-0.1-0.2-0.2c0-0.1-0.1-0.1-0.1-0.2c0,0,0,0,0,0c0,0,0-0.1-0.1-0.1c0,0,0,0,0,0c0,0,0,0,0,0c0,0,0,0,0,0c0,0,0,0,0,0l0,0
			c0,0,0,0,0,0c0,0,0,0,0,0c0,0,0,0,0,0c0,0-0.1,0-0.1,0.1c-0.2,0.2-0.4,0.5-0.7,0.7c0,0,0,0,0,0.1c-0.4,0.7-0.8,1.3-1.2,2
			c-0.2,0.5-0.5,0.9-0.7,1.4c-0.1,0.2-0.2,0.4-0.3,0.6c-0.4,1-0.8,1.9-1.1,2.9c-2,5.7-3.4,11.6-4.7,17.4
			c-4.4,19.7-7.7,39.6-11.3,59.4c0,0.4-0.1,0.7-0.2,1.1c-0.6,2.2-3.4,3.5-5.5,2.9c-0.7-0.2-1.3-0.5-1.8-1c-0.9-0.7-1.6-1.9-1.6-3.4
			c0.1-19.4,0.5-38.9,0.3-58.3c-0.1-5.4-0.2-10.9-0.7-16.3c-0.1-1-0.3-2-0.3-3c0-0.2,0-0.3-0.1-0.5c-0.1-0.4-0.1-0.8-0.2-1.2
			c-0.2-1.2-0.5-2.3-0.8-3.4c-0.2,0.3-0.3,0.7-0.5,1c0,0,0,0.1-0.1,0.1c-0.3,0.7-0.6,1.5-0.8,2.2c-0.7,1.9-1.2,3.8-1.7,5.7
			c-1.4,5.4-2.5,10.8-3.5,16.3c-3.3,17-5.9,34.2-8.6,51.3c0,10.1,0,20.2-0.1,30.3c0,5.9-9.1,5.9-9.1,0c0-8.3,0-16.5,0.1-24.8
			c0.1-29,0.1-58,0.2-87c0-5.9,9.1-5.9,9.1,0c0,8.3,0,16.5-0.1,24.8c0,0.5,0,1,0,1.5c0.3-1.7,0.7-3.4,1-5.1c1-4.9,2.1-9.9,3.7-14.6
			c1.1-3.3,2.3-6.8,4.7-9.4c2.1-2.3,5.2-3.4,8.2-2.4c3.4,1.1,5.2,4.3,6.3,7.5c1.3,3.9,1.6,8.1,1.9,12.1c0.5,5.9,0.6,11.9,0.6,17.8
			c0,1.4,0,2.7,0,4.1c1.2-5.7,2.4-11.3,3.8-16.9c1.4-5.5,2.9-10.9,5.3-16c1.4-3.1,3.5-6.4,6.7-8c3.5-1.7,7.7-0.9,10.4,1.9
			c2.6,2.6,3.8,6.4,4.5,9.9c2.7,12.5,2.4,25.8,2.4,38.6C289.2,239.5,288.8,261.6,288.6,283.7z M243.9,175
			C243.9,175,243.9,175,243.9,175C243.9,175,243.9,175,243.9,175z M275.3,175.1C275.3,175.1,275.3,175.1,275.3,175.1
			C275.3,175.1,275.2,175.1,275.3,175.1C275.2,175.1,275.3,175.1,275.3,175.1z M275.5,175.2C275.5,175.2,275.5,175.2,275.5,175.2
			c-0.1,0-0.2,0-0.2-0.1c0,0,0.1,0.1,0.1,0.1C275.4,175.3,275.5,175.3,275.5,175.2z M275.6,175.3
			C275.6,175.3,275.6,175.3,275.6,175.3c-0.1,0-0.1,0-0.1,0C275.5,175.4,275.6,175.4,275.6,175.3
			C275.6,175.4,275.6,175.3,275.6,175.3z M275.8,175.3c0.1,0,0.1,0.1,0.1,0.1C276,175.4,276,175.4,275.8,175.3z"/>
		<path d="M356.9,228.5c-0.3,2.5-1.9,4.5-4.6,4.6c-15.7,0.3-31.4,0.5-47.2,0.8c0,2.5,0,5,0.2,7.4c0.1,1.9,0.3,3.7,0.5,5.5
			c0,0.2,0.1,1,0.1,1.1c0,0.3,0.1,0.6,0.1,0.9c0.1,0.8,0.3,1.7,0.4,2.5c0.6,3.3,1.4,6.6,2.5,9.7c0.3,0.8,0.6,1.5,0.9,2.3
			c0,0,0,0.1,0.1,0.1c0,0,0,0,0,0c0.2,0.4,0.3,0.7,0.5,1.1c0.6,1.3,1.3,2.6,2.1,3.8c0.4,0.6,0.8,1.2,1.2,1.8c0,0,0,0,0,0
			c0,0,0,0,0,0c0.2,0.3,0.4,0.5,0.7,0.8c0.8,0.9,1.7,1.8,2.7,2.6c0,0,0,0,0,0c0,0,0.1,0.1,0.2,0.1c0.2,0.2,0.5,0.3,0.7,0.5
			c0.7,0.4,1.7,1,2.2,1.2c1.8,0.8,4.4,1.4,6.5,1.6c4.8,0.3,9.8-0.9,13.1-4.1c1.6-1.5,2.4-2.7,3.5-4.8c0.6-1.2,0.6-1.1,1-2.3
			c0.3-0.9,0.6-1.7,0.8-2.6c0.2-0.9,0.4-1.7,0.6-2.6c0.1-0.3,0.1-0.7,0.2-1c0-0.1,0-0.2,0-0.2c0.1-0.8,0.2-1.6,0.2-2.4
			c0.1-2.5,2-4.6,4.6-4.6c2.4,0,4.7,2.1,4.6,4.6c0,0.9-0.1,1.8-0.2,2.8c-1.2,9.8-5.9,19.7-15.3,24c-9.8,4.4-22.3,2.7-30.2-4.8
			c-5-4.7-8-11.3-10-17.7c-2.3-7.7-3.2-15.8-3.4-23.8c-0.4-16.6,2.2-34,9-49.2c2.6-5.9,6.1-11.8,11.1-15.9
			c6.9-5.7,16.5-6.9,24.5-2.5c8,4.4,12.3,13.4,14.5,21.9C358.3,203.7,358.2,216.4,356.9,228.5z M344.8,189c-0.5-1.3-1.3-3-2.3-4.8
			c-0.5-0.8-1-1.5-1.5-2.2c-0.1-0.1-0.3-0.4-0.4-0.5c-0.3-0.3-0.5-0.6-0.8-0.9c-0.6-0.6-1.3-1.2-1.9-1.8c-0.1,0-0.1-0.1-0.1-0.1
			c-0.1,0-0.1-0.1-0.3-0.2c-0.3-0.2-0.6-0.4-0.9-0.6c-0.4-0.2-0.8-0.5-1.3-0.7c0,0-0.1,0-0.1-0.1c-0.6-0.2-1.2-0.4-1.8-0.6
			c-2.3-0.6-4.7-0.6-7.1,0.1c-0.3,0.1-0.5,0.2-0.8,0.3c-0.5,0.3-1,0.5-1.5,0.8c-0.5,0.3-1,0.7-1.5,1c1.1-0.8-0.3,0.3-0.7,0.6
			c-1,0.9-1.9,1.8-2.7,2.8c-0.1,0.2-0.6,0.7-0.6,0.7c-0.1,0.1-0.2,0.2-0.3,0.3c-0.4,0.6-0.8,1.1-1.2,1.7c-0.8,1.3-1.6,2.6-2.3,3.9
			c-0.8,1.4-1.4,2.9-2.1,4.4c0,0,0,0,0,0c-0.1,0.2-0.1,0.3-0.2,0.5c-0.2,0.4-0.3,0.8-0.5,1.2c-0.3,0.8-0.6,1.6-0.9,2.3
			c-1.2,3.4-2.2,6.9-3,10.5c-0.4,1.8-0.8,3.6-1.1,5.4c-0.2,1-0.3,2-0.5,3c-0.1,0.5-0.2,1-0.2,1.5c0,0.1-0.1,0.7-0.1,0.9
			c0,0.2-0.1,1-0.2,1.3c0,0.4-0.1,0.9-0.1,1.3c-0.1,0.9-0.2,1.9-0.3,2.8c0,0.3,0,0.5-0.1,0.8c14.2-0.2,28.4-0.5,42.6-0.7
			c0.1-1.6,0.2-3.3,0.3-4.9C349,208.9,348.5,198.6,344.8,189z"/>
		<path d="M421.1,199.5c0,5.9-9.1,5.9-9.1,0c0-5.3-0.7-11.2-3-15.6c-1.2-2.3-2-3.4-3.8-5c0,0-0.3-0.2-0.4-0.3
			c-0.1-0.1-0.3-0.2-0.3-0.2c-0.4-0.3-0.9-0.5-1.3-0.8c-0.1,0-0.1-0.1-0.2-0.1c-0.2-0.1-0.4-0.2-0.6-0.2c-1.9-0.6-3.5-0.8-5.6-0.5
			c-0.8,0.1-1.6,0.4-2.4,0.7c0,0,0,0,0,0c0,0,0,0,0,0c-0.3,0.1-0.6,0.3-0.8,0.4c-0.6,0.3-1.1,0.7-1.7,1.1c0,0,0,0-0.1,0
			c0,0-0.1,0.1-0.2,0.1c-0.2,0.2-0.5,0.4-0.7,0.7c-0.5,0.5-1,1-1.5,1.6c-0.2,0.3-0.5,0.5-0.7,0.8c-0.1,0.1-0.2,0.2-0.2,0.3
			c-1.9,2.6-3.5,5.4-4.8,8.4c-0.1,0.2-0.3,0.7-0.4,0.9c-0.1,0.2-0.3,0.7-0.3,0.8c-0.3,0.8-0.6,1.5-0.9,2.3c-0.6,1.7-1.2,3.4-1.7,5.1
			c-1.9,6.2-3.3,12.5-4.3,18.9c-0.2,1.3-0.4,2.5-0.6,3.8c-0.1,0.5-0.3,2.1-0.1,0.7c-0.1,0.5-0.1,0.9-0.2,1.4
			c-0.1,1.1-0.3,2.1-0.4,3.2c-0.1,0.8-0.3,1.5-0.6,2.1c0,17.9,0.3,35.9,1.1,53.8c0.1,2.5-2.2,4.6-4.6,4.6c-2.5,0-4.5-2.1-4.6-4.6
			c-0.3-8-0.6-16.1-0.7-24.1c-0.6-29.3-0.3-58.5,1-87.8c0.1-2.5,2-4.6,4.6-4.6c2.4,0,4.7,2.1,4.6,4.6c-0.2,5.5-0.5,11-0.6,16.4
			c2.4-5.7,5.5-11.5,10.2-15.5c6.5-5.6,16.2-7.2,23.7-2.5C418.4,176.2,421.2,188.9,421.1,199.5z M388.3,182.5 M402.9,177.4
			 M403.2,177.5c0,0-0.1,0-0.1-0.1c0,0,0,0,0,0C403.1,177.5,403.1,177.5,403.2,177.5z"/>
	</g>
	<g>
		<g>
			<path d="M247,155.7c0.4-0.3,0.8-0.6,1.2-0.9c0.2-0.2,0.5-0.3,0.7-0.4c0.3-0.3,0.7-0.3,0.9,0.2c0.2,0.4,0.5,0.5,0.9,0.2
				c0.9-0.5,1.8-1.1,2.7-1.6c0.3-0.1,0.6-0.2,0.8-0.3c0.2-0.1,0.5-0.2,0.7-0.2c0.3,0,0.6,0,0.9,0.1c0.4,0.1,0.8,0.4,1.3,0.4
				c0.8,0.1,0.9,0.1,0.9,0.9c0,0.5,0.3,0.6,0.7,0.4c0.6-0.3,1.2-0.6,1.8-0.9c0.3-0.2,0.6-0.3,1-0.4c0.6-0.2,0.7-0.2,0.8,0.6
				c1.5-0.1,3.1,0.4,4.5-0.7c0.3-0.3,0.6-0.3,1-0.2c0.4,0.1,0.8,0,1.2,0.1c0.2,0,0.5-0.1,0.7,0c0.7,0.3,1.3,0.7,1.9,1.1
				c0.4,0.3,0.8,0.4,1.1,0c0.8-0.7,1.7-1,2.7-1.2c0.3-0.1,0.9-0.1,0.7-0.7c0,0,0.1-0.1,0.1-0.2c0.4-0.4,0.7-0.8,1.1-1.2
				c0.1-0.1,0.2-0.1,0.3-0.1c0.5,0.1,1,0.1,1.5,0.2c0,0.1,0.1,0.1,0.1,0.1c0,0.9,0,0.9,0.9,1.3c0.8,0.3,1.5,0.6,2.4,0.4
				c0.6-0.1,1.1-0.4,1.7-0.6c0.1,0,0.1-0.2,0.2-0.3c0.3-0.4,0.5-0.8,0.7-1.3c0.2-0.4,0.3-0.9,0.4-1.4c-2,0.1-3.7-0.3-5.5-0.4
				c-2.6-0.2-5.2-0.5-7.8-0.8c-3.2-0.3-6.4-0.7-9.6-1c-4-0.4-8-0.8-12-1.3c-3.5-0.4-7.1-0.7-10.6-1.1c-0.1,0-0.2,0-0.3,0
				c-0.5-0.1-0.8-0.5-0.7-1c0.1-0.4,0.4-0.8,0.9-0.8c0.7,0,1.4,0.1,2,0.2c2.8,0.3,5.7,0.6,8.5,0.9c3.3,0.3,6.6,0.7,9.9,1.1
				c3.6,0.4,7.3,0.8,10.9,1.1c3.6,0.4,7.2,0.8,10.8,1.1c1,0.1,2.1,0.2,3.1,0.3c-0.1-0.8,0.5-1.2,0.8-1.7c0.4-0.5,0.7-1.1,1-1.6
				c0.1-0.1,0.4-0.3,0.4-0.2c0.5,0.5,1.1,0.4,1.7,0.4c0.5,0,0.7,0.2,0.8,0.6c0.1,0.5,0.2,0.9,0.2,1.4c0,0.1,0,0.3,0.2,0.4
				c0-0.2,0.1-0.4,0.1-0.7c0.8-4.5,2.5-8.6,5-12.4c2-3.1,4.5-5.8,7.4-8.1c2.7-2.1,5.6-3.8,8.8-5.1c4.8-1.9,9.8-2.6,15-2.2
				c3.7,0.3,7.3,1.1,10.8,2.6c2.8,1.2,5.4,2.8,7.8,4.7c2.7,2.1,5.1,4.6,7,7.5c2,2.9,3.6,6.1,4.5,9.5c0.4,1.5,0.7,3,1,4.5
				c0,0.2,0.2,0.4,0.3,0.5c0.3,0.4,0.6,0.8,0.8,1.2c0.2,0.5,0.5,0.7,1,0.8c1.1,0.3,2.2,0.5,3.3,0.7c0.4,0.1,0.9,0,1.3-0.1
				c0.8-0.2,0.9-0.2,1.4,0.4c0.1,0.1,0.3,0.2,0.5,0.2c0.8-0.1,1.7-0.2,2.5-0.3c0.5-0.1,0.9,0.1,1.2,0.5c0.1,0.2,0.3,0.3,0.6,0.7
				c0.2-0.2,0.3-0.5,0.4-0.6c0.5-0.6,0.9-0.7,1.6-0.3c1.1,0.7,2.2,0.5,3.2,0.3c1.2-0.3,2.4-0.4,3.7-0.3c0.6,0.1,1.1,0.4,1.6,0.7
				c0.5,0.3,1.1,0.6,1.6,0.9c0.8,0.5,1.7,0.8,2.7,0.8c1.5,0,3,0.3,4.5,0.7c1.1,0.3,2.1,0.4,3.2,0.4c1.8,0,3.6,0,5.5-0.1
				c0.5,0,0.9,0.1,1.3,0.4c0.3,0.3,0.7,0.6,1,0.9C349.8,155.7,298.4,155.7,247,155.7z M327.9,147.3c1-0.5,1.8-1.2,2.4-2.1
				c0.3-0.5,0.6-0.9,1.3-0.8c0.2,0,0.4-0.1,0.6-0.1c0.3-0.1,0.7,0,0.8,0.4c0.1,0.8,0.7,1.2,1.3,1.7c0.2,0.2,0.5,0.2,0.7,0
				c0.8-0.5,1.4-1.2,1.6-2.2c0-0.1,0.3-0.3,0.4-0.4c0.6-0.2,1.3-0.1,1.9,0.2c0.4,0.2,0.9,0.3,1.4,0.5c0.3,0.1,0.7,0.3,0.8,0.5
				c0.6,1.3,1.2,2.7,1.3,4.2c0,1.3,0,1.3,1.3,1.2c0.1,0,0.1,0,0.2,0c1.5-0.2,3.1-0.2,4.6,0c0.7,0.1,1.4,0.2,2-0.2
				c0.9-0.6,1.9-1,2.9-1.3c0.4-0.1,0.8-0.3,1.1-0.6c0.4-0.3,0.8-0.7,1.1-1.1c0.1-0.1,0.2-0.3,0.2-0.5c-0.1-0.8-0.3-1.6-0.5-2.3
				c-1.1-4.4-3.1-8.4-5.9-11.9c-2.1-2.7-4.7-5-7.6-6.9c-2.7-1.7-5.5-3.1-8.5-4c-3.7-1.1-7.6-1.5-11.5-1.2c-4.1,0.3-7.9,1.3-11.6,3.1
				c-3.6,1.7-6.8,4.1-9.5,7c-3.3,3.5-5.7,7.6-7.2,12.2c-0.6,1.7-1,3.5-1.2,5.3c0.2,0.2,0.7,0,0.5,0.5c-0.2,0.6,0.2,1,0.5,1.4
				c0.3,0.3,0.5,0.3,0.7,0c0.4-0.4,0.8-0.7,1.2-1c0.2-0.2,0.4-0.3,0.6-0.5c0.4-0.7,1.1-1,1.8-1.1c0.4,0,0.9,0,1.4,0
				c0.1-0.2,0.3-0.5,0.6-0.8c0.2,0.2,0.3,0.3,0.4,0.4c0.1,0.4,0.4,0.4,0.8,0.5c0.9,0.1,1.7,0.3,2.6,0.4c-0.2,1.2,0.6,1.4,1.4,1.5
				c-0.1,0.8,0,0.9,0.6,0.8c0.1,0,0.3-0.1,0.4-0.3c0.1-0.1,0.2-0.3,0.4-0.5c0.2,0.2,0.4,0.4,0.7,0.6c0.2-0.7,0.5-1.2,0.6-1.8
				c0.2-0.9,0.8-1.5,1.8-1.6c0.4-0.1,0.8-0.2,1.2-0.4c0.4-0.2,0.8-0.2,1.1,0c0.3,0.1,0.6,0.3,0.9,0.4c0.1,0.1,0.2,0.3,0.2,0.4
				c-0.1,0.7,0,0.8,0.7,0.9c0.2,0,0.3,0.3,0.5,0.5c0.2,0.3,0.4,0.6,0.6,0.8c0.7,0.3,1.6-0.1,1.8-0.9c0.1-0.2,0.1-0.3,0.2-0.5
				c0.1-0.3,0.2-0.5,0.6-0.4c0.6,0.1,1.1-0.2,1.4-0.8c0.1-0.2,0.3-0.4,0.5-0.6c0.3-0.3,0.7-0.5,1.1-0.7c0.2-0.1,0.4,0,0.4,0.3
				c0,0.3,0.2,0.5,0.5,0.5c0.2,0,0.3,0,0.5,0.1c0,0.6,0.1,1.2,0.1,1.9c0.2-0.1,0.4-0.2,0.4-0.3c0.5-0.9,1.2-1.3,2.2-1.4
				c0.3,0,0.6-0.3,0.8-0.5c0.4-0.4,0.9-0.4,1.2,0c0.1,0.1,0.3,0.2,0.5,0.3c0.2,0.1,0.5,0.2,0.7,0.4
				C327.6,146.8,327.7,147.1,327.9,147.3z"/>
			<path d="M313.1,57.8c0.4,0.2,0.6,0.6,0.6,1c0.5,4.4,1,8.9,1.6,13.3c0.4,3.1,0.8,6.2,1.2,9.3c0.4,3.6,0.8,7.1,1.3,10.7
				c0.4,3.1,0.8,6.2,1.1,9.3c0.4,3.2,0.8,6.4,1.1,9.6c0.1,0.6,0.2,1.3,0.2,1.9c0,0.6-0.2,1-0.8,1c-0.5,0.1-0.9-0.3-1-0.8
				c-0.2-1.8-0.4-3.6-0.7-5.4c-0.4-3.5-0.8-7.1-1.3-10.6c-0.3-2.9-0.7-5.8-1-8.6c-0.5-3.8-0.9-7.7-1.4-11.5
				c-0.6-4.9-1.2-9.8-1.7-14.7c-0.1-1.1-0.2-2.1-0.4-3.2c-0.1-0.6,0-1,0.5-1.4C312.7,57.8,312.9,57.8,313.1,57.8z"/>
			<path d="M333.8,57.8c0.5,0.3,0.6,0.8,0.5,1.4c-0.5,5.7-1,11.4-1.4,17.2c-0.4,5.3-0.9,10.6-1.3,15.9c-0.4,5.1-0.8,10.1-1.3,15.2
				c-0.1,1.8-0.3,3.6-0.4,5.3c0,0.2,0,0.4-0.1,0.5c-0.1,0.5-0.5,0.8-0.9,0.8c-0.5,0-0.8-0.4-0.8-0.9c0-0.5,0.1-1,0.1-1.5
				c0.4-4.4,0.7-8.8,1.1-13.3c0.3-3.8,0.6-7.5,0.9-11.3c0.3-4.2,0.7-8.3,1-12.5c0.4-5.3,0.9-10.5,1.3-15.8c0-0.4,0.2-0.7,0.6-0.9
				C333.4,57.8,333.6,57.8,333.8,57.8z"/>
			<path d="M415.7,133c-0.3,0.2-0.6,0.5-0.9,0.6c-3.6,0.8-7.2,1.5-10.8,2.3c-4.8,1-9.7,2-14.5,3c-4.8,1-9.6,2-14.4,3
				c-3.9,0.8-7.7,1.6-11.6,2.4c-0.1,0-0.3,0-0.4,0.1c-0.6,0.1-1-0.2-1.1-0.7c-0.1-0.5,0.2-0.9,0.8-1c2.3-0.5,4.7-1,7-1.4
				c3.5-0.7,6.9-1.5,10.4-2.2c5.8-1.2,11.6-2.4,17.5-3.6c4.8-1,9.6-2,14.4-3c0.7-0.2,1.5-0.3,2.2-0.5c0.6-0.2,1.1,0,1.4,0.5
				C415.7,132.6,415.7,132.8,415.7,133z"/>
			<path d="M235.4,131.2c0.4-0.6,0.8-0.6,1.5-0.5c4.9,1.2,9.8,2.4,14.7,3.6c4.5,1.1,9.1,2.2,13.6,3.3c3.3,0.8,6.5,1.6,9.8,2.4
				c3.5,0.9,7.1,1.7,10.6,2.6c0.4,0.1,0.7,0.2,0.9,0.7c0.2,0.7-0.4,1.3-1.1,1.1c-1.3-0.3-2.7-0.7-4-1c-4.6-1.1-9.1-2.2-13.7-3.3
				c-3.1-0.8-6.2-1.5-9.3-2.3c-3.7-0.9-7.4-1.8-11.1-2.7c-3.7-0.9-7.3-1.8-11-2.7c-0.3-0.1-0.6-0.4-0.9-0.6
				C235.4,131.6,235.4,131.4,235.4,131.2z"/>
			<path d="M382,73.2c-0.2,0.3-0.3,0.6-0.4,0.8c-1.8,2.5-3.6,5-5.4,7.4c-2.7,3.7-5.4,7.4-8.1,11.1c-2.1,2.9-4.2,5.8-6.3,8.7
				c-2.7,3.7-5.4,7.4-8.1,11.1c-2,2.7-4,5.4-5.9,8.2c-0.4,0.5-0.9,0.6-1.3,0.3c-0.4-0.3-0.5-0.8-0.1-1.3c1.8-2.5,3.6-5,5.4-7.5
				c2.1-2.9,4.3-5.8,6.4-8.8c1.5-2.1,3-4.1,4.5-6.2c1.7-2.3,3.4-4.7,5.1-7c1.7-2.3,3.4-4.7,5.1-7c1.9-2.6,3.8-5.2,5.6-7.8
				c0.6-0.8,1.2-1.6,1.8-2.4c0.2-0.3,0.6-0.6,1-0.3C381.5,72.6,381.7,72.9,382,73.2z"/>
			<path d="M396.7,89.2c-0.2,0.3-0.3,0.6-0.5,0.7c-1.4,1.3-2.9,2.6-4.3,3.9c-1.7,1.5-3.4,3.1-5.1,4.6c-1.7,1.5-3.4,3-5,4.5
				c-1.9,1.7-3.8,3.4-5.6,5c-1.9,1.7-3.8,3.4-5.7,5.1c-1.7,1.5-3.4,3.1-5.1,4.6c-2.1,1.9-4.2,3.8-6.3,5.6c-1.3,1.1-2.6,2.3-3.8,3.4
				c-0.2,0.2-0.3,0.3-0.5,0.5c-0.4,0.3-0.9,0.2-1.2-0.1c-0.3-0.4-0.3-0.9,0.1-1.2c1.4-1.2,2.7-2.5,4.1-3.7c1.7-1.5,3.4-3.1,5.1-4.6
				c1.9-1.7,3.8-3.4,5.7-5.1c1.9-1.7,3.9-3.5,5.8-5.2c1.7-1.5,3.3-2.9,5-4.4c2.4-2.1,4.7-4.2,7.1-6.3c2.3-2.1,4.7-4.2,7-6.2
				c0.6-0.5,1.2-1.1,1.8-1.6c0.3-0.3,0.7-0.4,1.1-0.1C396.4,88.6,396.5,88.9,396.7,89.2z"/>
			<path d="M268.9,73.7c0.3,0.2,0.6,0.3,0.8,0.5c2,2.8,4.1,5.7,6.1,8.5c1.7,2.4,3.4,4.7,5.1,7.1c1.9,2.7,3.8,5.3,5.7,8
				c2.1,2.9,4.2,5.8,6.3,8.7c2.5,3.5,5,6.9,7.4,10.4c0.5,0.7,1.1,1.5,1.6,2.2c0.5,0.7,0.6,1.3,0.1,1.6c-0.4,0.3-1,0.2-1.5-0.5
				c-1.9-2.7-3.8-5.4-5.8-8.1c-1.5-2.1-3-4.1-4.5-6.2c-1.7-2.4-3.4-4.7-5.1-7.1c-1.5-2.1-3-4.1-4.5-6.2c-1.5-2.1-3.1-4.3-4.6-6.4
				c-1.9-2.6-3.8-5.3-5.7-7.9c-0.7-1-1.5-2.1-2.2-3.1c-0.2-0.2-0.2-0.7-0.1-0.9C268.3,74,268.6,73.9,268.9,73.7z"/>
			<path d="M289.6,62.7c0.4,0,0.7,0.3,0.8,0.7c0.7,1.7,1.3,3.3,2,5c0.9,2.2,1.8,4.5,2.6,6.7c1.4,3.5,2.7,6.9,4.1,10.4
				c1.3,3.4,2.7,6.7,4,10.1c1.7,4.3,3.3,8.5,5,12.8c0.9,2.2,1.7,4.3,2.6,6.5c0.2,0.6,0.1,1.1-0.4,1.3c-0.5,0.2-1,0-1.2-0.6
				c-1.4-3.5-2.7-6.9-4.1-10.4c-1.1-2.8-2.2-5.6-3.3-8.4c-1.3-3.3-2.6-6.6-3.9-10c-1.1-2.7-2.2-5.5-3.2-8.2c-1-2.4-1.9-4.8-2.8-7.3
				c-0.9-2.3-1.8-4.6-2.8-7c-0.1-0.2-0.2-0.5-0.2-0.8C288.7,63.2,289,62.7,289.6,62.7z"/>
			<path d="M359.5,135.3c-0.5,0-0.8-0.3-0.9-0.7c-0.1-0.4,0.1-0.8,0.5-1c0.7-0.4,1.4-0.8,2.2-1.1c4.1-2.1,8.1-4.2,12.2-6.3
				c3.3-1.7,6.6-3.4,9.9-5.2c3.6-1.9,7.2-3.8,10.9-5.6c4-2.1,8.1-4.2,12.1-6.3c0.4-0.2,0.8-0.4,1.2-0.6c0.5-0.3,1-0.1,1.3,0.4
				c0.2,0.4,0,0.9-0.5,1.2c-2,1-4,2.1-6,3.1c-2.5,1.3-5.1,2.7-7.6,4c-2.8,1.4-5.6,2.9-8.3,4.3c-2.1,1.1-4.2,2.2-6.3,3.2
				c-2.5,1.3-5,2.6-7.5,3.9c-2.6,1.4-5.2,2.7-7.8,4.1c-1.6,0.8-3.2,1.6-4.7,2.5C359.8,135.3,359.6,135.3,359.5,135.3z"/>
			<path d="M253.6,90.6c0.3,0.2,0.6,0.2,0.7,0.4c1.7,1.4,3.4,2.9,5.1,4.4c2.5,2.1,4.9,4.2,7.4,6.4c1.8,1.5,3.5,3,5.3,4.6
				c2.7,2.3,5.4,4.6,8.1,6.9c2.4,2.1,4.8,4.1,7.2,6.2c2.4,2.1,4.9,4.2,7.3,6.3c0.5,0.4,0.6,0.9,0.3,1.3c-0.3,0.4-0.8,0.5-1.3,0.1
				c-1.4-1.2-2.8-2.4-4.1-3.5c-2.7-2.3-5.4-4.6-8.1-7c-2.9-2.5-5.8-5-8.7-7.5c-2.9-2.5-5.9-5-8.8-7.6c-2.7-2.3-5.3-4.6-8-6.9
				c-0.9-0.8-1.9-1.6-2.8-2.4c-0.3-0.3-0.4-0.7-0.2-1C253,91,253.3,90.8,253.6,90.6z"/>
			<path d="M242.3,109.5c0.4,0.2,1,0.5,1.5,0.7c3.9,2,7.8,4,11.6,6c2.9,1.5,5.8,3,8.7,4.5c3.7,1.9,7.3,3.8,11,5.6
				c2.6,1.3,5.2,2.7,7.8,4c2.1,1.1,4.2,2.1,6.3,3.2c0.5,0.3,0.7,0.7,0.7,1.1c-0.1,0.6-0.7,0.9-1.4,0.6c-1.2-0.6-2.5-1.3-3.7-1.9
				c-2.6-1.3-5.2-2.7-7.8-4c-2.6-1.3-5.2-2.7-7.8-4c-4.1-2.1-8.1-4.2-12.2-6.3c-3.7-1.9-7.3-3.8-11-5.7c-1.3-0.7-2.7-1.4-4-2.1
				c-0.4-0.2-0.6-0.5-0.6-1c0-0.4,0.3-0.7,0.7-0.8C242,109.5,242.1,109.5,242.3,109.5z"/>
			<path d="M337.5,115.5c0.1-0.2,0.1-0.4,0.2-0.6c2-4.6,4-9.2,6-13.9c1.5-3.5,3-7.1,4.6-10.6c1.5-3.5,3-7,4.5-10.6
				c1.5-3.5,3-7,4.5-10.5c0.1-0.3,0.2-0.6,0.4-0.9c0.2-0.5,0.7-0.7,1.2-0.5c0.5,0.2,0.7,0.6,0.4,1.2c-0.7,1.6-1.4,3.3-2.1,4.9
				c-1.1,2.7-2.3,5.3-3.4,7.9c-1.1,2.6-2.2,5.1-3.3,7.7c-1.3,3-2.6,6.1-3.9,9.1c-0.9,2.1-1.8,4.2-2.7,6.2c-1.3,3.1-2.7,6.2-4,9.4
				c-0.2,0.5-0.4,1-0.7,1.5c-0.2,0.4-0.6,0.6-1,0.4C337.7,116.2,337.5,115.9,337.5,115.5z"/>
			<path d="M266.6,89.5c0-0.5,0.3-0.7,0.6-0.9c0.4-0.2,0.7-0.1,0.9,0.2c0.5,0.5,1,1,1.5,1.6c1.8,2,3.5,3.9,5.3,5.9
				c1.7,1.9,3.4,3.8,5.1,5.7c1.9,2.1,3.8,4.2,5.7,6.3c1.7,1.9,3.4,3.8,5.1,5.7c1.7,1.9,3.5,3.8,5.2,5.7c0.8,0.9,1.6,1.8,2.4,2.6
				c0.4,0.4,0.4,1,0,1.3c-0.4,0.3-0.9,0.3-1.3-0.2c-1.9-2.2-3.9-4.3-5.8-6.5c-2.1-2.3-4.2-4.6-6.3-6.9c-1.9-2.1-3.8-4.3-5.7-6.4
				c-1.7-1.9-3.4-3.7-5.1-5.6c-1.9-2.1-3.8-4.3-5.7-6.4c-0.5-0.5-1-1-1.4-1.6C266.8,90,266.7,89.7,266.6,89.5z"/>
			<path d="M343,118.4c-0.7,0-1.3-0.7-1-1.3c0.6-1.1,1.2-2.2,1.8-3.3c1.6-2.9,3.1-5.9,4.7-8.8c1.5-2.8,3-5.6,4.5-8.4
				c1.7-3.2,3.4-6.5,5.1-9.7c1.3-2.5,2.6-4.9,3.9-7.4c0.4-0.7,0.8-1.5,1.2-2.2c0.3-0.5,0.8-0.7,1.2-0.5c0.5,0.2,0.6,0.7,0.3,1.3
				c-1.2,2.2-2.4,4.4-3.5,6.7c-2.3,4.3-4.6,8.7-6.9,13c-1.3,2.5-2.6,4.9-3.9,7.4c-1.7,3.2-3.4,6.4-5.1,9.6c-0.5,1-1.1,2.1-1.7,3.1
				C343.4,118.1,343.1,118.2,343,118.4z"/>
			<path d="M292.4,130.3c-0.2,0.3-0.4,0.6-0.6,0.8c-0.3,0.2-0.7,0.1-1.1-0.1c-0.9-0.6-1.8-1.2-2.6-1.8c-2.7-1.8-5.4-3.6-8.1-5.4
				c-2.9-1.9-5.7-3.9-8.6-5.8c-3.2-2.2-6.5-4.4-9.7-6.6c-2.7-1.8-5.4-3.7-8.2-5.5c-0.5-0.3-0.7-0.9-0.4-1.3c0.3-0.5,0.8-0.6,1.3-0.2
				c4.4,2.9,8.7,5.9,13.1,8.8c3.1,2.1,6.2,4.2,9.3,6.3c3.7,2.5,7.4,5,11.1,7.4c1.2,0.8,2.4,1.6,3.6,2.5
				C291.9,129.7,292.1,130,292.4,130.3z"/>
			<path d="M356.9,131.2c-0.2-0.2-0.6-0.4-0.7-0.6c-0.2-0.4-0.1-0.8,0.3-1.1c0.7-0.5,1.4-0.9,2.1-1.4c2.6-1.7,5.1-3.4,7.7-5.2
				c3.2-2.1,6.4-4.3,9.5-6.4c3.1-2.1,6.2-4.2,9.3-6.3c2.9-2,5.9-4,8.8-5.9c0.4-0.3,1-0.2,1.2,0.2c0.3,0.4,0.2,1-0.3,1.3
				c-2.1,1.4-4.3,2.9-6.4,4.3c-3.2,2.1-6.3,4.3-9.5,6.4c-3.1,2.1-6.2,4.1-9.2,6.2c-3.1,2.1-6.3,4.2-9.4,6.4
				c-0.9,0.6-1.8,1.2-2.7,1.8C357.4,131.1,357.2,131.1,356.9,131.2z"/>
			<path d="M306.5,117.4c0,0.5-0.2,0.8-0.6,1c-0.4,0.1-0.7,0-1-0.3c-0.5-0.9-1-1.9-1.6-2.9c-1.7-3.3-3.5-6.6-5.2-9.8
				c-1.7-3.2-3.4-6.4-5.1-9.5c-1.5-2.9-3-5.7-4.6-8.6c-1.1-2.1-2.2-4.2-3.3-6.3c-0.5-0.9-0.9-1.7-1.4-2.6c-0.4-0.6-0.3-1.2,0.2-1.4
				c0.5-0.3,1,0,1.3,0.6c1.1,2,2.2,4.1,3.3,6.1c1.3,2.4,2.6,4.8,3.9,7.2c1.3,2.4,2.5,4.8,3.8,7.2c1.7,3.3,3.5,6.5,5.2,9.8
				c1.6,2.9,3.1,5.9,4.7,8.8C306.3,116.9,306.4,117.2,306.5,117.4z"/>
			<path d="M381.9,89.4c-0.2,0.3-0.3,0.6-0.5,0.8c-1.3,1.4-2.6,2.9-3.9,4.3c-1.5,1.7-3,3.4-4.6,5.1c-1.7,1.9-3.5,3.9-5.2,5.8
				c-1.7,1.9-3.4,3.8-5.1,5.7c-1.7,1.9-3.4,3.8-5.1,5.6c-1.9,2.1-3.8,4.2-5.7,6.4c-0.2,0.2-0.4,0.4-0.6,0.6
				c-0.3,0.3-0.8,0.4-1.2,0.1c-0.4-0.3-0.5-0.8-0.2-1.2c0.8-0.9,1.6-1.8,2.4-2.7c2.7-3,5.4-6,8.1-9c3-3.3,5.9-6.6,8.9-9.8
				c1.9-2.1,3.8-4.2,5.6-6.3c1.7-1.9,3.5-3.9,5.3-5.8c0.3-0.3,0.6-0.5,1-0.3C381.5,88.8,381.7,89.1,381.9,89.4z"/>
			<path d="M314.6,114.9c-0.5,0-0.8-0.2-0.9-0.8c-0.5-2-1-4-1.5-6c-1-3.8-1.9-7.7-2.9-11.5c-1-3.9-2-7.9-2.9-11.8
				c-1.2-4.7-2.4-9.5-3.5-14.2c-0.1-0.5,0-0.9,0.4-1.1c0.4-0.2,0.7-0.1,1,0.1c0.1,0.1,0.2,0.3,0.3,0.5c0.6,2.2,1.1,4.5,1.7,6.7
				c0.5,2.2,1.1,4.4,1.6,6.6c0.9,3.8,1.9,7.6,2.8,11.4c1.1,4.4,2.2,8.8,3.3,13.2c0.5,1.9,0.9,3.8,1.4,5.7
				C315.6,114.4,315.2,114.9,314.6,114.9z"/>
			<path d="M244.7,122.6c0.2,0,0.4,0.1,0.6,0.2c4.8,1.7,9.5,3.5,14.3,5.2c4.4,1.6,8.8,3.2,13.2,4.8c4.4,1.6,8.8,3.2,13.2,4.8
				c0.4,0.2,0.9,0.3,1.3,0.5c0.6,0.2,0.8,0.7,0.6,1.2c-0.2,0.5-0.6,0.6-1.2,0.4c-1.6-0.6-3.1-1.1-4.6-1.7c-3.8-1.4-7.6-2.8-11.4-4.1
				c-4.3-1.6-8.5-3.1-12.8-4.7c-3.6-1.3-7.2-2.6-10.8-4c-0.9-0.3-1.7-0.6-2.6-0.9c-0.5-0.2-0.7-0.6-0.6-1.1
				C243.9,122.8,244.2,122.6,244.7,122.6z"/>
			<path d="M333.8,114.9c-0.6,0-1-0.5-0.8-1.1c0.5-2,1-4,1.5-6.1c1.2-4.9,2.4-9.7,3.6-14.6c1-4,2-8,3-12c0.9-3.5,1.8-7.1,2.6-10.6
				c0-0.1,0.1-0.3,0.1-0.4c0.2-0.6,0.6-0.8,1.1-0.7c0.5,0.1,0.8,0.6,0.6,1.2c-0.6,2.5-1.3,5.1-1.9,7.6c-1.4,5.7-2.8,11.3-4.2,17
				c-1,4-2,8-3,12c-0.6,2.3-1.2,4.6-1.7,6.9C334.5,114.7,334.3,114.9,333.8,114.9z"/>
			<path d="M404.7,123.5c0,0.5-0.4,0.7-0.9,0.9c-2,0.7-3.9,1.4-5.9,2.1c-4.1,1.5-8.3,3-12.4,4.5c-4.9,1.8-9.8,3.6-14.7,5.4
				c-3,1.1-5.9,2.1-8.9,3.2c-0.1,0-0.2,0.1-0.3,0.1c-0.5,0.1-0.9-0.1-1.1-0.6c-0.2-0.4,0-0.9,0.5-1.1c0.7-0.3,1.5-0.6,2.2-0.8
				c5.8-2.1,11.6-4.2,17.3-6.3c4.7-1.7,9.4-3.4,14.1-5.2c2.8-1,5.6-2,8.4-3c0.3-0.1,0.5-0.2,0.8-0.2
				C404.3,122.6,404.7,123,404.7,123.5z"/>
			<path d="M363.8,149.1c-0.7,0-1.1-0.2-1.1-0.8c0-0.5,0.3-0.9,1-1c4.1-0.4,8.1-0.8,12.2-1.3c3.1-0.3,6.3-0.7,9.4-1
				c3.7-0.4,7.5-0.8,11.2-1.2c3.9-0.4,7.8-0.8,11.7-1.2c0.6-0.1,1.1,0.2,1.1,0.8c0.1,0.5-0.3,0.9-0.9,1c-5.2,0.6-10.4,1.1-15.6,1.7
				c-3.8,0.4-7.6,0.8-11.4,1.2c-3.8,0.4-7.6,0.8-11.4,1.2C367.9,148.7,365.8,148.9,363.8,149.1z"/>
			<path d="M325.1,90.3c0,7.4,0,14.9,0,22.3c0,0.7-0.2,1.1-0.8,1.1c-0.5,0-0.9-0.3-0.9-0.8c0-0.3,0-0.6,0-0.9c0-14.6,0-29.3,0-43.9
				c0-0.3,0.1-0.7,0.2-0.9c0.2-0.2,0.6-0.3,0.9-0.3c0.3,0.1,0.5,0.4,0.6,0.7c0.1,0.2,0,0.5,0,0.8C325.1,75.7,325.1,83,325.1,90.3z"
				/>
		</g>
		<g>
			<path d="M16.6,133.3c-0.5-24.8-0.2-49.6,0.9-74.3c0.1-2.1,1.7-3.9,3.9-3.9c2,0,3.9,1.8,3.9,3.9c-0.3,6.9-0.6,13.8-0.7,20.7
				c-0.4,13.3-0.5,26.5-0.3,39.8c10,0,20,0.1,30,0.1c-0.2-20.2,0.2-40.4,1.1-60.6c0.1-2.1,1.7-3.9,3.9-3.9c2,0,3.9,1.8,3.9,3.9
				c-0.3,6.9-0.6,13.8-0.7,20.7c-0.6,24.7-0.5,49.4,0.5,74.1c0.1,2.1-1.8,3.9-3.9,3.9c-2.1,0-3.8-1.8-3.9-3.9
				c-0.3-6.8-0.5-13.6-0.6-20.4c0-2-0.1-4-0.1-6.1c-10,0-20-0.1-30-0.1c0.1,8.9,0.4,17.7,0.7,26.6c0.1,2.1-1.8,3.9-3.9,3.9
				c-2.1,0-3.8-1.8-3.9-3.9C17,147,16.8,140.1,16.6,133.3z"/>
			<path d="M119.9,107c-0.2,2.1-1.6,3.8-3.9,3.9c-13.3,0.2-26.6,0.4-39.9,0.7c0,2.1,0,4.2,0.2,6.3c0.1,1.6,0.2,3.1,0.4,4.7
				c0,0.2,0.1,0.9,0.1,0.9c0,0.2,0.1,0.5,0.1,0.7c0.1,0.7,0.2,1.4,0.4,2.1c0.5,2.8,1.2,5.6,2.1,8.2c0.2,0.6,0.5,1.3,0.7,1.9
				c0,0,0,0.1,0,0.1c0,0,0,0,0,0c0.1,0.3,0.3,0.6,0.4,0.9c0.5,1.1,1.1,2.2,1.8,3.2c0.3,0.5,0.7,1,1,1.5c0,0,0,0,0,0c0,0,0,0,0,0
				c0.2,0.2,0.4,0.5,0.6,0.7c0.7,0.8,1.5,1.5,2.3,2.2c0,0,0,0,0,0c0,0,0.1,0.1,0.2,0.1c0.2,0.1,0.4,0.3,0.6,0.4
				c0.6,0.4,1.4,0.8,1.9,1c1.5,0.7,3.7,1.2,5.5,1.3c4.1,0.3,8.3-0.8,11.1-3.5c1.4-1.3,2-2.3,3-4.1c0.5-1,0.5-1,0.9-1.9
				c0.3-0.7,0.5-1.5,0.7-2.2c0.2-0.7,0.4-1.5,0.5-2.2c0.1-0.3,0.1-0.6,0.1-0.8c0-0.1,0-0.1,0-0.2c0.1-0.7,0.1-1.3,0.2-2
				c0.1-2.1,1.7-3.9,3.9-3.9c2,0,3.9,1.8,3.9,3.9c0,0.8-0.1,1.6-0.2,2.3c-1,8.3-5,16.7-13,20.3c-8.3,3.7-18.9,2.3-25.6-4
				c-4.2-4-6.8-9.5-8.4-15c-2-6.5-2.7-13.4-2.9-20.1c-0.4-14.1,1.9-28.8,7.6-41.7c2.2-5,5.2-10,9.4-13.5c5.9-4.8,14-5.9,20.7-2.1
				c6.8,3.8,10.4,11.4,12.3,18.6C121.2,86,121.1,96.7,119.9,107z M109.7,73.5c-0.4-1.1-1.1-2.6-2-4c-0.4-0.6-0.8-1.3-1.3-1.9
				c-0.1-0.1-0.3-0.3-0.3-0.4c-0.2-0.2-0.4-0.5-0.7-0.7c-0.5-0.5-1.1-1-1.6-1.5c-0.1,0-0.1-0.1-0.1-0.1c0,0-0.1-0.1-0.2-0.1
				c-0.3-0.2-0.5-0.3-0.8-0.5c-0.4-0.2-0.7-0.4-1.1-0.6c0,0-0.1,0-0.1-0.1c-0.5-0.2-1-0.4-1.6-0.5c-2-0.5-4-0.5-6,0.1
				c-0.2,0.1-0.4,0.2-0.7,0.3c-0.4,0.2-0.8,0.4-1.2,0.7c-0.4,0.3-0.9,0.6-1.3,0.9c0.9-0.6-0.3,0.2-0.6,0.5c-0.8,0.7-1.6,1.5-2.3,2.4
				c-0.1,0.1-0.5,0.6-0.5,0.6c-0.1,0.1-0.1,0.2-0.2,0.3c-0.3,0.5-0.7,1-1,1.5c-0.7,1.1-1.3,2.2-1.9,3.3c-0.6,1.2-1.2,2.5-1.8,3.7
				c0,0,0,0,0,0c-0.1,0.1-0.1,0.3-0.2,0.4c-0.1,0.3-0.3,0.7-0.4,1c-0.3,0.7-0.5,1.3-0.7,2c-1,2.9-1.9,5.9-2.6,8.9
				c-0.4,1.5-0.7,3-0.9,4.5c-0.2,0.8-0.3,1.7-0.4,2.5c-0.1,0.4-0.1,0.8-0.2,1.3c0,0.1-0.1,0.6-0.1,0.8c0,0.2-0.1,0.9-0.1,1.1
				c0,0.4-0.1,0.7-0.1,1.1c-0.1,0.8-0.2,1.6-0.2,2.4c0,0.2,0,0.4,0,0.7c12-0.2,24.1-0.4,36.1-0.6c0.1-1.4,0.2-2.8,0.3-4.2
				C113.2,90.4,112.8,81.7,109.7,73.5z"/>
			<path d="M152.4,158.5c-6.9,0-13.7,0-20.6-0.1c-2.1,0-3.3-1.4-3.6-3c-0.3-0.5-0.4-1.1-0.4-1.7c-0.3-6.8-0.5-13.6-0.6-20.4
				c-0.5-24.8-0.2-49.6,0.9-74.3c0.1-2.1,1.7-3.9,3.9-3.9c2,0,3.9,1.8,3.9,3.9c-0.3,6.9-0.6,13.8-0.7,20.7
				c-0.6,23.7-0.5,47.4,0.4,71.1c5.7,0,11.4,0,17.1,0C157.3,150.8,157.3,158.5,152.4,158.5z"/>
			<path d="M184.2,158.5c-6.9,0-13.7,0-20.6-0.1c-2.1,0-3.3-1.4-3.6-3c-0.3-0.5-0.4-1.1-0.4-1.7c-0.3-6.8-0.5-13.6-0.6-20.4
				c-0.5-24.8-0.2-49.6,0.9-74.3c0.1-2.1,1.7-3.9,3.9-3.9c2,0,3.9,1.8,3.9,3.9c-0.3,6.9-0.6,13.8-0.7,20.7
				c-0.6,23.7-0.5,47.4,0.4,71.1c5.7,0,11.4,0,17.1,0C189.1,150.8,189.1,158.5,184.2,158.5z"/>
			<path d="M234.5,109.6c0,2.2-0.1,4.4-0.3,6.6c-1.2,15-6.7,38.6-25.4,39.7c-8.1,0.5-14.7-4.8-18.7-11.5c-4.5-7.4-6.5-16.1-7.6-24.5
				c-1.1-8.3-0.7-16.7,0.4-25c1.1-8.6,3.1-17.2,7.2-24.9c3.4-6.4,8.9-12.4,16.4-13.6c7.7-1.2,14.2,2.4,18.5,8.6
				c4.4,6.2,6.4,14.1,7.6,21.4C233.9,94.2,234.5,101.9,234.5,109.6z M226.8,109.6c0-1.5,0-3-0.1-4.5c-0.1-3.5-0.3-7-0.7-10.4
				c-0.1-0.9-0.2-1.8-0.3-2.7c0-0.1-0.1-0.8-0.1-0.9c-0.1-0.4-0.1-0.8-0.2-1.2c-0.3-1.8-0.6-3.6-1-5.4c-0.7-3.3-1.8-7.2-3-9.8
				c0.1,0.2-0.3-0.8-0.5-1c-0.1-0.3-0.3-0.6-0.5-1c-0.3-0.7-0.7-1.3-1.1-2c-0.4-0.7-0.9-1.4-1.4-2.1c0,0,0,0,0,0
				c-0.1-0.1-0.1-0.1-0.2-0.2c-0.2-0.3-0.5-0.6-0.7-0.8c-0.5-0.5-1-1-1.5-1.5c0,0-0.1-0.1-0.1-0.1c0,0-0.1,0-0.1-0.1
				c-0.3-0.2-0.6-0.4-0.9-0.6c-0.3-0.2-0.7-0.4-1-0.6c-0.1-0.1-0.2-0.1-0.3-0.1c-0.6-0.2-1.1-0.4-1.7-0.5c-0.3-0.1-1.1-0.2-0.7-0.1
				c-0.3,0-0.6,0-0.8-0.1c-0.6,0-1.2,0-1.8,0.1c0.1,0-0.5,0.1-0.7,0.1c-0.4,0.1-0.7,0.2-1.1,0.3c-0.3,0.1-0.6,0.2-0.9,0.3
				c-0.1,0-0.1,0-0.2,0c0,0-0.1,0.1-0.2,0.1c-0.7,0.4-1.3,0.7-1.9,1.1c-0.1,0.1-0.5,0.4-0.6,0.4c-0.2,0.2-0.4,0.3-0.6,0.5
				c-0.6,0.6-1.2,1.2-1.8,1.8c-0.2,0.3-0.4,0.5-0.7,0.8c0,0,0,0,0,0c-0.1,0.2-0.2,0.3-0.3,0.5c-1,1.4-1.8,2.8-2.6,4.3
				c-0.9,1.8-1.3,2.7-1.9,4.4c-2.8,7.5-4.1,15.3-4.7,22.9c-0.3,3.7-0.4,7.4-0.3,11.1c0.1,3.9,0.5,7,1.1,10.5
				c0.7,3.8,1.7,7.6,3.1,11.2c0.6,1.6,1.1,2.7,2,4.4c0.4,0.8,0.9,1.6,1.4,2.3c0.2,0.4,0.5,0.7,0.7,1.1c0.1,0.1,0.3,0.4,0.4,0.5
				c0.5,0.6,1,1.2,1.5,1.7c0.3,0.3,0.6,0.6,0.9,0.8c0.1,0.1,0.4,0.4,0.5,0.5c0.2,0.1,0.7,0.5,0.8,0.6c0.3,0.2,0.7,0.4,1,0.6
				c0.2,0.1,0.4,0.2,0.7,0.3c0.1,0,0.5,0.2,0.7,0.3c0.4,0.1,0.7,0.2,1.1,0.3c0.1,0,0.6,0.1,0.8,0.2c0.2,0,0.8,0.1,0.9,0.1
				c0.4,0,0.7,0,1.1,0c0.4,0,0.8,0,1.2-0.1c0.1,0,0.5-0.1,0.6-0.1c0.7-0.2,1.5-0.4,2.2-0.6c0,0,0.1,0,0.1,0c0,0,0.1,0,0.1-0.1
				c0.2-0.1,0.3-0.1,0.5-0.2c0.4-0.2,0.7-0.4,1-0.6c0.3-0.2,0.6-0.4,0.9-0.6c0.1-0.1,0.2-0.1,0.2-0.1c0,0,0.1-0.1,0.3-0.2
				c0.6-0.5,1.2-1.1,1.8-1.7c0.2-0.3,0.5-0.5,0.7-0.8c0,0,0.2-0.3,0.3-0.4c0.1-0.1,0.1-0.2,0.1-0.2c1.1-1.4,2-3,2.8-4.5
				c0.9-1.9,1.4-2.9,2.1-4.9C225.8,125.3,226.7,117.7,226.8,109.6z"/>
		</g>
	</g>
</g>
</svg>
