<?xml version="1.0" encoding="utf-8"?>
<!-- Generator: Adobe Illustrator 25.0.0, SVG Export Plug-In . SVG Version: 6.00 Build 0)  -->
<svg version="1.1" id="Layer_1" xmlns="http://www.w3.org/2000/svg" xmlns:xlink="http://www.w3.org/1999/xlink" x="0px" y="0px"
	 viewBox="0 0 500 500" style="enable-background:new 0 0 500 500;" xml:space="preserve">
<style type="text/css">
	.st0{fill:#B51B2C;}
	.st1{fill:#030304;}
	.st2{fill:#020203;}
	.st3{fill:#13110C;}
	.st4{fill:#CE536A;}
	.st5{fill:#F192AC;}
	.st6{fill:#E3748C;}
	.st7{fill:#C0364A;}
	.st8{fill:#EE7289;}
</style>
<g>
	<path class="st0" d="M131.86,331.27c-5.91-14.97-10.47-30.66-14.96-46.08c-2.98-12.58-8.96-25.65-10.8-38.4
		c0.27-6.06,2.86-8.71,5.76-15.36c9.57-19.08,19.39-38.6,28-57.28c2.11-5.31,0.33-11.72-6.24-11.84c-3.26-0.03-6.12,2.68-7.2,5.92
		c-6.79,15.81-16.43,32.82-24,49.12c-1.06,1.75-2.03,4.22-3.84,5.28c-4.83-15.69-9.01-30.61-11.6-46
		c-3.81-12.87-3.73-14.3-17.52-14.48c-3.73-0.35-7.46,0.08-11.2,0c-6.72-0.21-17.16,0.39-17.28,8.96
		c0.88,5.48,3.36,10.86,3.76,16.32c5.88,29.77,16.02,58.99,24.72,88.4c0.89,3.4,0.84,7.12-1.12,10.96
		c-10.43,21.16-21.22,43.1-30.24,64.32c-3.18,5.1-1.48,12.29,5.28,12.64c5.47,0.12,8.09-5.68,9.76-10.08
		c6.3-14.86,13.66-30.34,21.12-45.28c0.99-1.8,1.04-3.5,3.2-4.48c2,2.72,2.65,7.13,3.68,10.56c3.89,14.81,10.83,28.19,16,42.56
		c3.01,9.57,16.81,6.13,24.16,6.72c7.23-0.25,20.07,0.38,20.64-9.28c0.01-1.58-0.52-2.69-1.12-4.16
		C137.41,344.12,134.42,337.77,131.86,331.27z M57.3,197.19c-1.59-3.91-1.1-10.64,4.32-10.72c2.34-0.13,3.86,1.97,5.92,2.56h0.32
		c2.1-1.65,1.7-5.27,4.8-6.08c5.9-1.23,9.21,6.68,9.12,11.68c-0.13,6.25-4.2,15.78-9.6,15.36C67.26,210.1,58.45,203.28,57.3,197.19z
		 M66.74,229.67c-2.52-9.8,2.69-13.24,10.88-7.68c3.61-12.94,13.92-4.4,13.76,4.96c0.02,5.68-2.62,10.24-5.92,14.56
		c-0.68,1.29-1.47,1.56-2.56,1.76C75.78,240.83,69.06,237.51,66.74,229.67z M76.66,262.79c-2.43-8.71,3.1-13.02,10.4-7.2
		c2.24-1.88,1.88-5.38,4.96-6.24c9.81-1.56,10.48,13.43,7.44,19.92c-1.44,3.45-3.03,6.34-6,7.44
		C86.38,277.42,78.41,269.35,76.66,262.79z M85.78,296.39c-1.33-3.27-0.85-9.91,2.56-10.56c2.47-0.64,6.04,0.89,7.68,3.2
		c1.63-2.64,2.72-6.52,5.76-7.04c2.38-0.64,4.36,0.66,6.24,3.36c3.96,7.3,2.17,18.66-4.48,23.68c-0.86,0.52-1.77,0.76-2.72,0.48
		C94.13,306.81,88.03,303.81,85.78,296.39z M119.22,333.03c-2.46,3.86-2.92,8-6.24,9.28c-3.8,0.57-6.52-2.41-10.56-4.48
		c-5.47-2.92-10.46-14.25-4.48-18.72c3.43-2.25,5.71,0.56,8.8,2.24c2.11-6.33,7.56-10.18,11.52-2.72
		C121.15,323.2,121.78,328.18,119.22,333.03z"/>
	<path class="st0" d="M366.27,350.31c-3.42-6.19-6.4-12.54-8.96-19.04c-5.91-14.97-10.47-30.66-14.96-46.08
		c-2.98-12.58-8.96-25.65-10.8-38.4c0.27-6.06,2.86-8.71,5.76-15.36c9.57-19.08,19.39-38.6,28-57.28
		c2.11-5.31,0.33-11.72-6.24-11.84c-3.26-0.03-6.12,2.68-7.2,5.92c-6.79,15.81-16.43,32.82-24,49.12c-1.06,1.75-2.03,4.22-3.84,5.28
		c-4.83-15.69-9.01-30.61-11.6-46c-3.81-12.87-3.73-14.3-17.52-14.48c-3.73-0.35-7.46,0.08-11.2,0c-6.72-0.21-17.16,0.39-17.28,8.96
		c0.88,5.48,3.36,10.86,3.76,16.32c5.88,29.77,16.02,58.99,24.72,88.4c0.89,3.4,0.84,7.12-1.12,10.96
		c-10.43,21.16-21.22,43.1-30.24,64.32c-3.18,5.1-1.48,12.29,5.28,12.64c5.47,0.12,8.09-5.68,9.76-10.08
		c6.3-14.86,13.66-30.34,21.12-45.28c0.99-1.8,1.04-3.5,3.2-4.48c2,2.72,2.65,7.13,3.68,10.56c3.89,14.81,10.83,28.19,16,42.56
		c3.01,9.57,16.81,6.13,24.16,6.72c7.23-0.25,20.07,0.38,20.64-9.28C367.39,352.89,366.86,351.78,366.27,350.31z M282.75,197.19
		c-1.59-3.91-1.1-10.64,4.32-10.72c2.34-0.13,3.86,1.97,5.92,2.56h0.32c2.1-1.65,1.7-5.27,4.8-6.08c5.9-1.23,9.21,6.68,9.12,11.68
		c-0.13,6.25-4.2,15.78-9.6,15.36C292.7,210.1,283.9,203.28,282.75,197.19z M292.19,229.67c-2.52-9.8,2.69-13.24,10.88-7.68
		c3.61-12.94,13.92-4.4,13.76,4.96c0.02,5.68-2.62,10.24-5.92,14.56c-0.68,1.29-1.47,1.56-2.56,1.76
		C301.22,240.83,294.5,237.51,292.19,229.67z M302.11,262.79c-2.43-8.71,3.1-13.02,10.4-7.2c2.24-1.88,1.88-5.38,4.96-6.24
		c9.81-1.56,10.48,13.43,7.44,19.92c-1.44,3.45-3.03,6.34-6,7.44C311.82,277.42,303.85,269.35,302.11,262.79z M311.23,296.39
		c-1.33-3.26-0.85-9.91,2.56-10.56c2.47-0.64,6.04,0.89,7.68,3.2c1.63-2.64,2.72-6.52,5.76-7.04c2.38-0.64,4.36,0.66,6.24,3.36
		c3.96,7.3,2.17,18.66-4.48,23.68c-0.86,0.52-1.77,0.76-2.72,0.48C319.58,306.81,313.47,303.81,311.23,296.39z M344.67,333.03
		c-2.46,3.86-2.92,8-6.24,9.28c-3.8,0.57-6.52-2.41-10.56-4.48c-5.47-2.92-10.46-14.25-4.48-18.72c3.43-2.25,5.7,0.56,8.8,2.24
		c2.11-6.33,7.56-10.18,11.52-2.72C346.59,323.2,347.22,328.18,344.67,333.03z"/>
</g>
<g>
	<path class="st8" d="M230.9,170.47c-9.59-9.45-26.25-8.65-38.88-8.16c-4.55,0.57-10.16-0.07-14.08,2.4
		c-22.78,20.18-21.37,56.12-24.32,84.32c-2.01,23.33,1.84,114.11,32.32,114.88c16.02-0.52,39.89,4.3,47.84-13.76
		c12.44-29.54,15.93-61.23,16.96-93.28c-0.43-26.08-6.1-51.46-14.08-76.16C235.38,176.65,233.46,173.24,230.9,170.47z
		 M179.38,178.47c3.01,0.69,3.04,4.48,5.28,6.24c7.18-6.6,13.16-1.69,10.72,7.36c-0.75,6.04-9.91,13.51-14.4,13.44
		c-4.54,0.32-8.59-6.44-10-12.16C170.04,187.64,171.75,177.48,179.38,178.47z M164.02,219.11c0.9-3.68,5.14-7.27,8.72-4.4
		c1.27,1,2.09,2.79,3.28,3.92c2.59-0.53,3.09-3.72,6.88-3.68c4.51-0.25,5.8,6.04,5.44,9.76c-0.05,5.27-4.28,9.51-7.76,13.28
		c-5.11,5.27-11.02,1.72-13.76-3.84C163.66,229.3,162.25,224.82,164.02,219.11z M165.14,248.87c3.83-1.49,5.5,2.6,7.84,4.8
		c6.68-8.6,12.19-5.2,12.64,4.96c0,3.84-1.28,7.09-3.84,9.76c-3.51,3.35-4.91,6.55-8.64,7.2c-3.93-0.64-5.22-4-8.96-7.36
		C159.82,263.77,158.48,251.7,165.14,248.87z M162.42,295.11c-0.87-4.49-0.07-11.11,5.44-11.36c2.85,0.07,4.1,2.96,6.56,4.16
		c1.88-2.63,3.99-6.11,7.68-4.96c4.62,1.57,4.59,6.36,4.8,10.4c0,3.41-0.93,6.38-2.8,8.88c-2.22,2.48-4.83,6.82-8.08,7.76
		c-3.86-0.56-6.91-4.32-9.6-6.56C164.29,301.29,162.96,298.52,162.42,295.11z M191.62,336.39c-1.83,3.28-5.32,8.85-9.52,7.04
		c-6.2-3.88-11.81-8.05-12.64-16c-0.77-9.56,6.38-12.78,11.52-4.8c3.27-5.45,8.72-9.53,12.32-1.76
		C195.33,325.97,193.95,331.56,191.62,336.39z M214.26,348.39c-12.27-1.01-15.68-37.3-18.08-47.68
		c-4.54-20.95-3.78-110.36,14.32-121.68c4.49-2.31,9.66,0.07,11.44,4.88c8.78,25.19,13.89,49.86,13.92,76.8
		C236.22,274.21,228.67,347.42,214.26,348.39z"/>
	<path class="st8" d="M462.11,180.71c-1.28-4.05-3.2-7.47-5.76-10.24c-9.59-9.45-26.25-8.65-38.88-8.16
		c-4.55,0.57-10.16-0.07-14.08,2.4c-22.78,20.18-21.37,56.12-24.32,84.32c-2.01,23.33,1.84,114.11,32.32,114.88
		c16.02-0.52,39.89,4.3,47.84-13.76c12.44-29.54,15.93-61.23,16.96-93.28C475.75,230.79,470.08,205.41,462.11,180.71z
		 M404.83,178.47c3.01,0.69,3.04,4.48,5.28,6.24c7.18-6.6,13.16-1.69,10.72,7.36c-0.75,6.04-9.91,13.51-14.4,13.44
		c-4.54,0.32-8.59-6.44-10-12.16C395.48,187.64,397.19,177.48,404.83,178.47z M389.47,219.11c0.9-3.68,5.14-7.27,8.72-4.4
		c1.27,1,2.09,2.79,3.28,3.92c2.59-0.53,3.09-3.72,6.88-3.68c4.51-0.25,5.8,6.04,5.44,9.76c-0.05,5.27-4.28,9.51-7.76,13.28
		c-5.11,5.27-11.02,1.72-13.76-3.84C389.1,229.3,387.69,224.82,389.47,219.11z M390.59,248.87c3.83-1.49,5.5,2.6,7.84,4.8
		c6.68-8.6,12.19-5.2,12.64,4.96c0,3.84-1.28,7.09-3.84,9.76c-3.51,3.35-4.91,6.55-8.64,7.2c-3.93-0.64-5.22-4-8.96-7.36
		C385.27,263.77,383.92,251.7,390.59,248.87z M387.87,295.11c-0.87-4.49-0.07-11.11,5.44-11.36c2.85,0.07,4.1,2.96,6.56,4.16
		c1.88-2.63,3.99-6.11,7.68-4.96c4.62,1.57,4.59,6.36,4.8,10.4c0,3.41-0.93,6.38-2.8,8.88c-2.22,2.48-4.83,6.82-8.08,7.76
		c-3.86-0.56-6.91-4.32-9.6-6.56C389.73,301.29,388.4,298.52,387.87,295.11z M417.07,336.39c-1.83,3.28-5.32,8.85-9.52,7.04
		c-6.2-3.88-11.81-8.05-12.64-16c-0.77-9.56,6.38-12.78,11.52-4.8c3.27-5.45,8.72-9.53,12.32-1.76
		C420.77,325.97,419.39,331.56,417.07,336.39z M439.71,348.39c-12.27-1.01-15.68-37.3-18.08-47.68
		c-4.54-20.95-3.78-110.36,14.32-121.68c4.49-2.31,9.66,0.07,11.44,4.88c8.78,25.19,13.89,49.86,13.92,76.8
		C461.67,274.21,454.12,347.42,439.71,348.39z"/>
</g>
</svg>
