<?xml version="1.0" encoding="utf-8"?>
<!-- Generator: Adobe Illustrator 27.3.1, SVG Export Plug-In . SVG Version: 6.00 Build 0)  -->
<svg version="1.1" id="Layer_1" xmlns="http://www.w3.org/2000/svg" xmlns:xlink="http://www.w3.org/1999/xlink" x="0px" y="0px"
	 viewBox="0 0 1200 800" enable-background="new 0 0 1200 800" xml:space="preserve">
<g>
	<path fill="#C49A6C" d="M1075,611c8.1-11.6,6.6-29.2-5.6-35.2c-10.6-5.2-15.7-12.9-20-22.3c-1-2.3-1.9-5.4-1.2-7.6
		c3.6-11.4,7.9-22.6,18.8-30.6c-27.5-16.2-54-17.3-80.6,1c1.9-6.6,4.5-12.6,6.1-18.9c2.1-7.8,7-11.7,14.3-14.2
		c11.5-3.9,22.9-8.3,33.9-13.3c8.8-4,15.9-10.6,20.5-19.4c7.9-15.2-2.2-32.1-19.3-32.3c-9.9-0.1-18.3,3.6-25.1,10.6
		c-3.2,3.3-6.1,6.8-9.8,11c-1.6-8.9,0.9-16.2,3.8-23.4c0.5-1.1,2.8-1.5,4.3-2.1c6.9-2.9,14.1-5.1,20.6-8.8c8.5-4.9,14.9-12,17.1-22
		c3.1-13.6-6.1-24.5-20-24.1c-1.6,0.1-3.8-1.4-4.8-2.8c-6.1-8.6-13.9-12.1-24.4-9.4c-9.4,2.4-16.6,10-17.8,20.2
		c-1.7,14.4,1.2,27.5,11.2,38.7c2.4,2.6,3.8,6.1,5.6,9.3c-0.6,0.6-1.2,1.3-1.8,1.9c-10.2-21.6-25.2-29.4-47.5-16.5
		c0-3.4,0.1-5.7,0-8.1c-0.7-17.4-0.8-34.9-2.4-52.2c-1.1-11.7,4-18.9,13-24.6c3-1.9,6.3-3.4,9.5-4.8c23.7-10.6,34.1-31.3,42-55.2
		c-16.5-1-32.2-1.7-47.1,5.9c-15,7.6-24.3,19.9-28.8,36.2c-1.4-2.1-2.2-3.9-2.8-5.8c-14.9-48.6-41.1-90.1-77.7-125.2
		C807.1,116.9,746,86.1,673.3,81.2c-23.2-1.6-46.1,0.4-67.6,10.6c-1.5,0.7-3.8,0.1-5.6-0.5c-9-3.1-17.7-7.6-26.9-9.6
		c-30.2-6.5-60.5-4-90.3,3c-68,16.1-125.6,50-171.7,102.8c-33.3,38.1-55.9,81.8-66,131.6c-1,4.8-2,9.7-3.3,16
		c-22.1-30.4-51.8-34.8-85.1-30.1c0.4,2,0.5,3.2,0.9,4.2c11.1,28.1,27.3,51.1,57.8,61c5.1,1.7,10.5,4.9,13.7,9
		c6.4,8,9.5,17.6,9.9,28.2c0.7,20.8,1.9,41.6,2.9,62.3c0.1,1.7,0,3.4,0,6.2c-1.8-1.6-2.5-2.3-3.1-2.9c-5.6-5.5-10.8-11.7-20.1-10.1
		c-0.8,0.1-2.1-0.4-2.5-1c-6-10-17.1-17.1-14.6-31.8c2-12.3-6.1-23.4-17.8-27.5c-11.1-3.9-22.5-5.2-34.5-3.3
		c-0.8,4.1-0.3,9.6-2.8,12.2c-4.3,4.5-2.3,8-0.9,12.1c1.7,4.7,3.6,9.4,5.7,14.1c5.2,11.7,23.3,21.8,37.5,15.1
		c8.1-3.8,14.1,0.5,15.5,8.8c-5-0.5-10.3-1.2-15.6-1.4c-3.6-0.1-7.1,0.6-10.7,0.6c-3.6,0.1-7.2-0.2-9.1,3.9c-0.3,0.7-1.2,1.6-2,1.7
		c-8.1,1.1-13,5.8-16.1,13.1c-0.8,1.9-3.2,3-4.9,4.5c-10.9,9.1-15.8,22.5-10.6,34.1c5.5,12.2,14.3,22.6,24.8,30.9
		c9.4,7.4,20.9,7.5,32.3,5.3c3.2-0.6,5.4,0,7.9,2.3c6.2,5.6,13.7,9.7,22,6.9c6.4-2.1,9.4,0.4,13.2,4.6
		c17.3,19.4,17.1,43.1,16.8,66.9c0,0.3-0.4,0.5-0.7,0.9c-9-3.4-16.3-0.8-22,7.2c-2.5-6.7-4.9-12.8-7.2-19c-2.4-6.3-5-12.5-7.1-19
		c-1.1-3.3-2.1-7.1-1.5-10.4c2.4-13.6-3.3-23.2-14-30.7c-4.8-3.3-6.1-3-8.2,2.4c-5.3,13.2-1.9,25.3,9.3,34.1c2.5,2,4.7,4.5,7,6.7
		c-0.5,0.6-1,1.1-1.4,1.7c-10.3-9.2-22.6-13.5-35.8-15.8c-1.2-0.2-2.3-1.3-3.2-2.2c-11.9-12.3-31.2-11.4-47.8-1.1
		c0.6,1.1,1.1,2.3,1.8,3.3c8.1,11.6,21.2,16.4,35.1,11.9c9.8-3.2,19.4-4,28.4,0.6c7.9,4,15.3,9.4,22,15.2c4.3,3.7,6.9,9.4,11.1,15.5
		c-17.4-0.1-32,7.5-48,3.5c-6.1-1.5-11.8,2-16.3,6.7c7.8,9.6,18.1,11.4,30.1,4.9c9.1-4.9,18.8-7.4,29-8.1c6.7-0.5,8.1,0.8,9.2,8.4
		c-17-2.4-29.1,3.2-32.9,21.5c-1.2-0.7-1.8-1.1-2.5-1.3c-2-0.6-4-1.1-6-1.7c-0.2,2.1-1.3,4.6-0.6,6.3c2.7,6.4,6,12.5,9.1,18.5h-25.5
		V722H1033v-26.7h-28.4c-2.8-2.1-6-3.8-9.7-5c-1.3-0.4-2.4-1.6-4.1-2.7c3.6-5,7-9.8,10.4-14.5c1.7,0.7,2.9,1.2,4.2,1.6
		c14.6,4,29.9,5.1,40.2-7.2c5.9-7.1,13.1-10.6,20-15.3c1.2-0.8,2.5-1.7,3.6-2.7c9.7-8.5,11.6-17.9,5-29
		C1072.1,616.6,1072.7,614.3,1075,611z M1009.9,468.7c7.1-10.2,12.1-21.9,22.8-29.3c3.6-2.5,6.6-0.8,9.2,2.4
		c-10.6,9.6-20.7,18.7-30.9,27.9C1010.7,469.4,1010.3,469.1,1009.9,468.7z M1023.9,466.3c-0.4-0.5-0.8-0.9-1.2-1.4
		c9.1-7.1,18.1-14.2,27.2-21.3c0.6,0.8,1.2,1.5,1.8,2.3C1044.3,455.1,1033.6,460,1023.9,466.3z M1033.8,425.5
		c5.7-2.5,12.1-2.2,16.8,2.4c1.9,1.8,3.5,5.9,2.7,8.1c-1.3,3.8-5,2.1-7.6,0.6c-10.1-6-18.1-2.8-27.5,9.2c-2.7,3.5-4.9,7.3-7.5,11.2
		c-0.6-0.9-1-1.3-0.9-1.5C1014.1,442.4,1020.7,431.2,1033.8,425.5z M1023.7,394.7c5.8-5.2,11.6-10.4,18-16.2
		C1040.7,386.5,1032.5,394.2,1023.7,394.7z M1018.1,357.4c0.8-0.2,1.6-0.5,2.4-0.7c1.2,2.5,2.8,4.9,3.4,7.6
		c0.6,2.7,0.1,5.7,0.1,10.3c3.8-2.9,6.2-5.1,9-6.6c1.9-1,5.1-2.2,6.5-1.3c3.1,1.8,1.4,4.5-0.7,6.4c-6.8,6.5-13.7,12.9-20.8,19.5
		C1018.1,380.4,1018.1,368.9,1018.1,357.4z M1009.1,359.9c0.5,0,0.9,0,1.4-0.1c0,10.2,0,20.4,0,30.6c-0.5,0-0.9,0-1.4,0
		C1009.1,380.3,1009.1,370.1,1009.1,359.9z M999.4,380c-0.3,0-0.6,0.1-1,0.1c0-5.6,0-11.2,0-16.8c0.3,0,0.6,0,1,0
		C999.4,368.8,999.4,374.4,999.4,380z M989.1,276.6c-5,4.7-9.8,9.6-15,14.1c-5.3,4.7-10.8,9.1-16.9,14.3
		C961.7,285.3,973.1,275.4,989.1,276.6z M192.1,326.6c13.3,0.3,33.5,17.8,34.3,32.4C214.2,348.7,200.6,340.8,192.1,326.6z
		 M156.5,422.5c-6.9-1.7-8.2-3.4-6.6-8.9c2.7-9.4,5.8-12,12.1-10c4.1,1.3,6.2,4,5.2,7.4c-4-0.6-7.3-1.4-10.4-1.2
		c-0.9,0.1-1.6,3.3-2.4,5.1c3.3,1.2,6.5,2.3,10.3,3.7C164.6,423.7,163.7,424.3,156.5,422.5z M185.7,447.7
		c-8.5,5.4-21.9,1.8-27.9-7.4c5.7-3.5,11-6.8,16.3-10.1c0.6-0.4,1.8-1,1.9-0.8c4.6,4.6,9.2,9.2,13.4,14
		C189.7,443.6,187.3,446.6,185.7,447.7z M195.1,435.5c-11.6-6-14.4-16.4-16-28.5c7.7,0.3,12.1,4.8,15.5,10.2
		C198.2,423,197.7,429.1,195.1,435.5z M147.8,508.9c-2.2,4.8-1.9,10.8-2.7,16.3c-10.3-6-10.8-25-0.8-32.5
		C148.6,497.4,150.9,502,147.8,508.9z M165.8,471.7c6.7-1.5,13.4-3.1,20-5c13.7-3.9,29.6,9.1,29.5,25.7c-8.7-11.3-20.2-12.5-32-12.5
		c-8.1,0-14.4,3.8-17.9,11.4c-0.6,1.2-1.1,2.4-2,3.4c-3.9,4.4-7.4,3.7-9.5-1.9C150.6,483.3,156.1,473.8,165.8,471.7z M174.2,504.8
		c-3.5-6.8-1.7-11.3,1.8-15.2c4.1-4.5,7.8,0.1,12.1,1.4C180.7,492.3,177.2,497.4,174.2,504.8z M186.7,514c-0.4,0.8-0.7,1.6-1.1,2.3
		c-2.7-1.2-5.5-2.4-8.2-3.6c0.5-1,0.9-1.9,1.4-2.9C181.4,511.2,184,512.6,186.7,514z M180.1,522.8c0.7-0.2,1.5,0,2.2,0
		c0.1-0.3,0.2-0.5,0.2-0.8c5.5,1.6,11,3,16.4,4.9c1.2,0.4,2.5,2.3,2.7,3.6c0.1,0.8-1.8,2.3-3,2.8c-7.7,3.1-15,2.5-21.3-3.3
		c-1.4-1.3-2.1-3.3-3.1-4.9C176.3,524.3,178.2,523.4,180.1,522.8z M196.1,514.3c0-2.8,0.7-5.7,1.1-8.5c0.6,0,1.2-0.1,1.7-0.1
		c0.7,2.7,1.8,5.4,2.1,8.2c0.1,1.1-1.6,2.3-2.4,3.4C197.7,516.3,196.1,515.3,196.1,514.3z M193.3,490.6c7-2.9,12.8,1.5,13.4,10.3
		C202.3,497.5,198,494.2,193.3,490.6z M165.8,522.5c-3.9-2.7-7.5-4.1-9.1-6.7c-1.5-2.5-0.9-6.3-1.4-10.7
		C163.4,508.8,164.4,510.5,165.8,522.5z M195.8,550.1c-12.3,2.7-24.5,3.5-35.5-4.7c-7.2-5.4-8.6-9.3-5.1-17.4c2.5,2.2,5,3.7,6.4,5.8
		c8.8,13.4,32.4,13.8,43.6,3.2c2.1-2,3.2-5.3,4.2-8.3c2.6-7.4,4.6-14.9,7.4-22.2c0.7-1.7,2.8-2.9,4.6-4.2c0.2-0.2,0.5-0.4,0.7-0.6v0
		l0,0c0.3,0.5,0.7,1,1.1,1.5c0.4,0.5,0.8,1,1.2,1.5c0.8,1,1.4,2.1,1.5,3.1C227.5,529.1,219.5,544.9,195.8,550.1z M230.4,530.8
		c4-8.5,5.4-17.3,3.2-26.2c-1-4.2-4.2-7.9-6.5-11.8c-0.7-1.2-1.8-2.3-2.4-3.6c-2.2-4.7-3.9-9.7-6.4-14.2c-2.2-4-0.9-5.7,3-5.8
		c2.3,0,5,0.5,6.8,1.7C248.5,484.4,249.8,515.8,230.4,530.8z M242.8,553.6c0.8-4.7-0.5-9.9-1.4-14.8c-1-5.4-0.7-10.2,4.8-15.3
		c1.3,15.6,2.6,29.9,3.8,44.6C243.4,565.3,241.8,559.8,242.8,553.6z M1059.8,612c-3.4,6.9-13,11.1-20.6,9.5c2.6-4.3,5-8.6,7.7-12.7
		c2.7-4.1,5.7-8,8.6-12.1C1061,601.5,1062.2,607,1059.8,612z M1027,581c6.9,5.1,8.1,10.1,3.8,15.2c-5.1-10.9-7.8-13.2-18.4-15.4
		C1015.5,576.1,1020.3,576.1,1027,581z M1013,558.5c3.7-1.3,7.4-2.7,11.2-4c0.2,0.6,0.4,1.1,0.6,1.7c-3.6,1.8-6.3,5.6-11,4.6
		C1013.6,560.1,1013.3,559.3,1013,558.5z M996.4,603.1c5.5,5.6,10.6,11.6,16.2,17.9c-9.8,1.7-20.1-4.5-22.3-13.5
		c-0.4-1.5,0-4.1,1-4.7C992.6,602.1,995.5,602.2,996.4,603.1z M994.8,583c2.5-3.7,6.1-2.1,9.8-0.5c-3,4.5-5.7,8.6-9,13.5
		C992,591.2,992.2,586.9,994.8,583z M1010.6,607.8c-0.4,0.1-1.2-2.2-1.8-3.5c2.5-0.6,5.1-1.3,7.6-1.9c0.3,1.1,0.7,2.3,1,3.4
		C1015.1,606.5,1012.9,607.4,1010.6,607.8z M1030.3,605c1.9-1.3,5.1-0.7,7.7-1c0,2.4,0.7,5.1-0.2,7.1c-3.2,7.2-15.2,9.9-21.4,5.2
		C1021.1,612.4,1025.4,608.3,1030.3,605z M1012.9,589.8c2.9,0,5.9,2.3,8.8,3.5c-0.3,0.5-0.6,1.1-1,1.6c-5.6,0.8-11.2,1.6-17.2,2.5
		C1004.8,592,1008.6,589.8,1012.9,589.8z M1002.6,572c-0.5,0.3-1,0.5-1.6,0.6c-14.2,3.1-19.6,13.2-21.1,26.4
		c-0.2,1.8-0.7,3.5-1.2,5.7c-5.1-2.7-6.9-6.7-7.9-11.1c-2.5-11.7,0.8-22,8.9-30.6c6.6-7.1,17.2-8,24-2.7
		C1008.5,564.1,1008,569.3,1002.6,572z M966.2,615.5c-16.5-8.7-21.1-14.7-20.1-25.2c1-10.9,12.1-22.8,25.2-25.8
		C956.5,581,960.3,598.1,966.2,615.5z M973.1,645.9c3.7,3.5,8,6.5,12.3,10c-4.7,4-8.8,3.3-12.5,0.7c-7.8-5.4-10.4-13.4-11.1-23
		C966,638.2,969.3,642.3,973.1,645.9z M977,617.5c6.9,8.9,16.6,9.4,26.5,10.2c2.8,0.2,5.7,2.6,8.1,4.4c3.6,2.8,6.9,6.2,10.6,9.5
		C1007.7,651,982,637.7,977,617.5z M1021.8,629.5c8.5-0.5,16.5-1,25.1-1.6c-2.7,6.1-7.2,8.6-13.1,8.3
		C1028.7,636.1,1024.3,634.1,1021.8,629.5z M1053,583.8c-0.6,6.1-5.7,12.5-11,13.3c1.8-17.6-10.1-23.5-24.6-27.5
		c5.5-8,14.6-10.8,22.8-7.9C1048.8,564.8,1054,573.8,1053,583.8z M1049.2,560c-0.6-0.3-1.2-0.6-1.8-0.9c-4.1-2-7.7-3.8-11.2-5.6
		c0,0,0,0,0,0c0,0,0,0,0,0c3.5-3.5,8.4-2,11.7,3.7C1048.4,558.1,1048.8,559,1049.2,560z M1005.5,515.1c11.6-6.4,24.1-7.8,36.9-3.6
		c3.3,1.1,6.6,2.4,9.8,3.6c1.1,0.4,2.2,0.8,3.3,1.2v0c-0.8,2.1-1.6,4.2-2.4,6.3c-0.8,2.1-1.6,4.2-2.4,6.3c-1.7,4.3-4,8.5-5.3,13
		c-1.6,5.4-5.3,7.3-10.4,7.4c-4.1,0.1-8.3,0-12.8,0c8.4-8.5,15.5-15.7,22.6-23c0.6-0.6,0.8-1.6,1.5-3.3c-17.6-5.5-34.1-1.3-50.5,3.9
		c-0.4-0.6-0.8-1.3-1.2-1.9C998.2,521.7,1001.3,517.5,1005.5,515.1z M1013.4,541.5c-5.6-2.1-11.2-3.8-17.7-6
		c10.2-4.9,20.2-5.2,30.4-3C1025.8,537.9,1018,543.2,1013.4,541.5z M1016.3,551.5c-4.1,0.7-7.1,2.2-9.3,1.4
		c-9.1-3.2-17.7-1.4-26.3,1.5c-2.7,0.9-5.6,1.5-9.5,2.5c1.4-8.4,6.5-11.8,12.5-14.2C993.4,538.8,1007.1,542.1,1016.3,551.5z
		 M979.8,402.3c7.9,3.7,12.9,10.4,15.2,18.5c2.1,7.6,3.1,15.6,4.6,23.4c-0.6,0.2-1.3,0.5-1.9,0.7c-6.7-15.7-9.5-35.1-33.2-33.4
		C965.4,403,972.5,398.8,979.8,402.3z M991.7,447.9c-7.3-10.1-14.6-20.2-21.8-30.2C979,417.7,989.3,432,991.7,447.9z M990.3,467.6
		c-9.6-15.2-26.9-25.7-28.1-46C975.7,434.4,985.3,449.6,990.3,467.6z M951.9,433c7.5,9.3,15,18.6,22.1,27.5
		C964.8,458.6,951.4,442.2,951.9,433z M948.9,459.4c4,4.4,3.6,7.4-2.2,11.5C947.4,467.2,948.1,463.5,948.9,459.4z M943.8,508.6
		c0.5-14.3,8.1-25.4,16-36.4c0.7-1,3.5-1.9,4.5-1.4c5.7,3.2,11.4,6.5,16.6,10.4c4.7,3.6,6.1,8.7,4.3,14.6
		c-6.6,21.2-14.6,41.7-28.3,59.5c-2.5,3.2-4.5,6.8-6.7,10.3c-0.6,0-1.3,0-1.9,0c-1.9-11.9-4.2-23.7-5.4-35.7
		C942.1,522.9,943.5,515.7,943.8,508.6z M941.1,563.6c0.5,0,0.9,0,1.4,0c0,3.8,0,7.7,0,11.5c-0.7,0-1.4-0.1-2.2-0.1
		C940.5,571.2,940.8,567.4,941.1,563.6z M945.2,613.1c2,13.2,3.7,25.1,5.6,37.7c-6-0.4-8.6-5.3-11-9.8
		C935.4,632.9,937.4,621.2,945.2,613.1z M933.5,671.3c0.5-9.2,1.3-18.4,2-27.6c0.6-0.1,1.3-0.3,1.9-0.4c1.1,2.4,3.1,4.7,3.2,7.1
		c0.4,8.9,0.2,17.8,0.2,27C933.5,678.1,933.1,678,933.5,671.3z M939.7,695.3h-3.3c0.5-1,1-2,1.4-3c0.6,0.3,1.2,0.5,1.7,0.8
		C939.6,693.8,939.6,694.5,939.7,695.3z M925.9,691.8c0.1,1.2,0.2,2.3,0.4,3.5h-3.6c0.2-1.2,0.4-2.4,0.5-3.6
		C924.2,691.7,925,691.7,925.9,691.8z M827.4,667.4c-0.5,0.2-0.9,0.3-1.4,0.5c-1-1.4-2.1-2.6-2.9-4.1c-12.6-23.6-3.7-56.2,18.9-70.5
		c4.8-3,9.1-3.3,13.4,0.2c4.9,4,9.7,8.3,14.6,12.3c6.9,5.7,14.1,11.1,20.9,16.8c2.1,1.8,3.7,4.3,5.5,6.4c-0.6,0.5-1.2,1.1-1.8,1.6
		c-7.2-2.4-14.5-4.6-21.6-7.3c-20.8-7.8-42.4,5.8-45.5,29C826.9,657.3,827.4,662.4,827.4,667.4z M837.4,491.4c1.8-1.6,3.2-3.2,5-4.2
		c3-1.8,6.3-3.2,9.5-4.8c2.2-1.1,4.4-2.3,6.7-3.5C852.9,492.9,846.2,496.8,837.4,491.4z M843.1,499c-3.1,4-4.6,6.6-6.8,8.5
		c-1,1-3.3,1.3-4.8,0.9c-2.7-0.7-5.5-1.7-7.7-3.3c-1.6-1.2-3.5-3.8-3.1-5.3c0.4-1.7,3.2-4.2,4.8-4
		C830.9,496.2,836.3,497.6,843.1,499z M844.8,509.2c3.8-3.1,7.6-6.9,12.1-8.3c7.7-2.3,12.6,2.9,10.3,10.6
		c-1.7,5.9-4.5,11.6-6.5,16.5c-5.5-4.9-10.8-9.3-15.7-14C844.1,513.1,844,509.8,844.8,509.2z M864.9,493.2c3.5-2.6,6.3-4.6,9.1-6.6
		c0.7,0.3,1.4,0.7,2,1c-0.2,3.1-0.3,6.2-0.5,10C871.7,496,868.9,494.8,864.9,493.2z M887,636c7.8,1.8,13.8,8.6,14.3,17.6
		c0.4,6.5-0.3,13-0.9,19.5c-0.1,1.2-2.1,3.1-3.5,3.3c-5.3,0.7-10.6,0.8-16.1,1.2C891.5,657,891.5,657,887,636z M890.4,602.2
		c3.3,2.9,6.7,5.9,10,8.8c-0.5,0.5-0.9,1-1.4,1.5c-3.3-3-6.5-6-9.8-9C889.6,603,890,602.6,890.4,602.2z M880,572.9
		c8.5,1.5,20.7,13.5,21.2,21.4C892,593.8,879.9,581.3,880,572.9z M881.9,556.4c-0.6,0.4-1.2,0.7-1.7,1.1c-0.4,3.7-0.7,7.5-1,9.9
		c0-6.1,0-13.6,0-21.2c20.5,3.9,26.3,10,23,24.6C895.1,565.7,888.5,561,881.9,556.4z M879.8,604.5c-6.7-6.7-11.1-13.8-13-22.4
		c-0.3-1.6,1.2-3.5,1.9-5.3c1.1,1.4,2.7,2.5,3.3,4.1C874.7,588.4,877,595.9,879.8,604.5z M848.1,633.3c9.5-6,20.4-5.6,27.3,1.5
		c7.3,7.4,8.5,21.9,2.6,30.2c-4.3,6.1-13.1,6.1-16.6-0.6c-1.1-2.2-0.8-6.6,0.8-8.3c2.5-2.8,5.4-0.8,7.2,2.1c0.5,0.8,0.8,1.8,1.4,3.1
		c5.2-5.1,4.4-8.4,0.7-11.4c-4.1-3.2-8.7-4.5-13.7-2.4c-5,2.1-7.2,6.3-7.3,11.6c-0.1,7.5,3.6,12.8,9.9,16.4c1.9,1.1,3.9,1.9,7.1,3.5
		c-7.2,2.1-13.2,4-19.3,5.6c-1.2,0.3-3.1-0.3-3.9-1.2C831.1,669.3,832.3,643.3,848.1,633.3z M865.2,695.2
		C865.2,695.2,865.2,695.2,865.2,695.2L865.2,695.2C865.1,695.2,865.2,695.2,865.2,695.2z M873,694c1.1,0,2.2,0.1,3.2,0.1
		c0,0.4,0.1,0.8,0.1,1.1h-3.5C873,694.8,873,694.4,873,694z M886.7,692.6c0.6,0.9,1.6,1.8,2.3,2.6h-4.2
		C885.3,694.4,886.1,693.5,886.7,692.6z M897.5,691.6c0.7,0,1.4,0,2,0c0.6,1.2,1.1,2.4,1.5,3.7h-4.1
		C897.1,694.1,897.3,692.8,897.5,691.6z M921.1,371.1c2.1,8.5,2.1,48-0.2,58.5c-7.7-25.4-19.3-47.3-34.6-68.9
		c12,2.6,22.2,4.8,32.3,7.2C919.7,368.2,920.8,369.9,921.1,371.1z M913.9,695.3h-4.1c0.3-1.1,0.7-2.1,1.1-3.2
		c0.9,0.1,1.9,0.1,2.8,0.2C913.8,693.3,913.8,694.3,913.9,695.3z M909,309.6c4.7,11.4,7.4,22.3,8.2,33.7c0.1,1.3-1.7,3.2-3.1,4.1
		c-7.5,4.8-21.9,1.5-25.7-6.6c-1.6-3.4-1.2-8.3-0.1-12.1c0.5-1.6,5.4-3.3,7.8-2.7c3.6,0.9,3.3,4.4,1.3,7.3c-2.8,4.1-0.1,5,3.1,5.2
		c5.1,0.3,9.1-5.2,7.7-10.6c-0.6-2.3-1.8-4.5-2.6-6.8C904.5,317.2,904.8,313.5,909,309.6z M897.1,274.7c3.6,8.6,6.9,16.3,9.9,24.2
		c0.4,1-1.3,3-2.2,4.3c-1.7,2.4-4.5,4.4-5.1,7c-1,4.6-3.2,6.8-7.7,7.4c-8.5,1.1-13.2,6.9-16.8,15.4c-4.9-15.2-4.4-28.9,1.4-42.4
		c-0.5,2.7-0.9,5.4-1.4,8.1C882.3,291.1,886.5,281.3,897.1,274.7z M861.3,229.4c5.6,5.1,4.1,13.3-3.1,15.6c-1.3,0.4-4.4-0.7-4.7-1.7
		c-1-3.7-3-4.1-5.7-2.3c-3,1.9-5.6,4.7-3,8.3c1.4,1.9,4.1,3.3,6.5,3.8c7.7,1.4,13.9-1.8,19.1-7.2c1.8-1.9,3.4-4,6.2-7.3
		c4.4,8,8.4,14.9,12,22c0.5,1.1-0.7,4.3-1.8,4.7c-23.3,9.1-29.1,27.8-28,50.3c0,1,0,2.1,0,4.1c-1.4-1.2-2.2-1.7-2.7-2.3
		c-7.8-10.8-15.8-21.4-23.3-32.4c-10.2-15.2-7.2-41.2,5.7-53.6C845.7,224.4,854.9,223.6,861.3,229.4z M764,287.1
		c-7.8-9.6-18.3-14-30.2-15.6c-5.7-0.8-8.8,1.9-8.2,7.6c0.5,4.9,2.1,9.8,3.4,15.6c-2.3-1.3-4.4-2.2-6.1-3.6
		c-7.9-6.6-15.8-13.2-23.5-20c-1.4-1.2-2.7-3.4-2.8-5.3c-0.3-8.6-0.1-17.1-0.1-26.1c20.9,3.4,40.6,6.1,60,10
		c19.9,4,35.3,16,48.6,30.7c9,9.9,17.5,20.3,27,31.5c-2.3,0-3.1,0.2-3.7,0c-14.2-4.5-29-5.6-43.8-6.6c-3.7-0.3-7.7-3.3-10.7-6.1
		C770.2,295.7,767.3,291.2,764,287.1z M768.4,305c-11.8,1.1-14.2-1.7-14.3-17C759.2,294,763.6,299.3,768.4,305z M745.6,297.8
		c-3-4.9-6.1-9.9-9.9-16.1C742.5,283.7,746.7,290.8,745.6,297.8z M707,193.4c-7.5-4.7-18.4-3.4-24.8,3c-1.6,1.6-2.9,3.4-5.2,6
		c-2-13.4,10.9-24,22.1-19.1c6.8,2.9,13.1,7.8,18.6,12.9c12.8,11.8,25.1,24.3,37.3,36.3c-7.7-1.1-16.6-2.2-25.4-3.9
		c-4.9-1-9.6-3-14.3-4.7c-3.3-1.2-4.2-3.4-2.7-6.6c0.2-0.5,0.4-1,0.6-1.6C717,204.9,715.3,198.5,707,193.4z M685,208.4
		c0.5-5.7,5.3-9.8,11.1-9.4c5.9,0.3,10.1,4.7,9.8,10c-0.3,5.7-5.6,10.4-11.2,10.2C688.9,218.9,684.5,214,685,208.4z M780.3,202
		c-1.2,0.3-3.8-1.6-4.6-3.1c-2.4-4.4-1.5-8.8,1.9-12.4c3.3-3.5,7.6-4.4,11.7-1.8c3.3,2,6,4.9,9.4,7.8
		C793.5,199,786.7,200.2,780.3,202z M793.7,209.7c0.2,1.2-1.8,2.7-3.5,5c-2.3-2.3-3.7-3.7-5.1-5.1c1.8-1.4,3.4-3.2,5.4-3.8
		C791.1,205.5,793.5,208.2,793.7,209.7z M844,199.1c5.5,4.9,10.1,10.8,15,17.2c-16.3,0.8-28.9,7.1-37.3,21.2
		c-0.4-11.8,0.2-23.2,4.6-33.8C829.8,195.4,837.4,193.3,844,199.1z M810.8,170c5.8,4.5,11.2,8.8,17.5,13.6
		C814.5,185.6,807.8,180.1,810.8,170z M803,196c3-2.8,5.4-1.2,8,0.6c3.7,2.6,5,5.5,4.5,10.4c-1.6,15.8-2.5,31.6-3.7,47.4
		c-0.1,1.4-0.5,2.8-0.9,5.2c-8.8-7.8-18.4-13.4-22.6-23.9c-1.5-3.8-2-8.3-2.1-12.5c-0.1-3.6,2-5.6,6.2-5.3
		c9.8,0.6,13.1-4.4,8.6-13.2C799,200.7,800.4,198.5,803,196z M743,133.4c1.7,0.3,3.4,0.3,5,0.8c18.1,5.7,34,15.4,49.2,26.6
		c3.6,2.6,5.2,6.1,4.8,10.7c-0.3,3.8-0.1,7.7-0.1,12.6c-2.1-1.5-3.7-2.6-5.3-3.7c-7-5.1-14.1-5.3-20.8-0.6
		c-6.7,4.6-10.2,13.3-8.2,20.6c0.4,1.6,1,3.8,2.2,4.4c6.2,3.4,5.5,8.9,5.2,14.5c-0.2,4.2,0,8.4,0,12.8c-8.1-2.8-42-32.8-47.5-42
		c3.1-1.4,6.1-2.7,9.1-4c20.8-9.6,24.9-32.6,8.6-48.7c-0.9-0.9-2.4-1.1-3.6-1.6C742,134.9,742.5,134.1,743,133.4z M743.4,161.3
		c-0.1,11-8.2,19-19.3,19c-11.5,0-21.6-10.4-21.6-22.2c0-10.9,8.1-19.8,18-19.8C732.5,138.3,743.5,149.3,743.4,161.3z M482.9,120.3
		c20.1-5.4,40.4-8.3,61.1-3.9c21.8,4.6,35.3,19.3,45.3,38c2.5,4.7,3.7,10.4,10,12c0.6,0.2,1.1,2.2,1.1,3.4
		c-0.1,38.4-0.2,76.9-0.3,115.3c0,0.3-0.3,0.7-0.7,1.5c-1.6-0.8-3.2-1.4-4.8-2.3c-10.7-6.1-21.3-7-31.6,0.7
		c-8.4,6.3-11.8,20-8.2,31.9c3.1,10.2,9.7,18.2,17.5,25c7.9,6.8,16.5,12.9,24.6,19.6c1.6,1.3,3.1,3.9,3.2,5.8
		c0.2,26.6,0.1,53.2,0.1,79.9c0,1.2-0.4,2.5-0.5,3.6c-4-0.6-7.6-1.9-11.2-1.7c-13,0.9-19.9,12.2-15.6,25.3c1.2,3.5,3,7.1,5.5,9.7
		c7.5,7.8,15.5,15.1,24,23.3c9.3-8.7,18.3-16.3,26.1-25c3.3-3.7,5.3-9.7,5.7-14.8c1-12.8-10.3-20.9-22.5-16.9
		c-1.4,0.5-2.8,1.1-4.9,2c-0.2-2-0.6-3.8-0.6-5.5c0.2-26.1,0.5-52.1,0.5-78.2c0-4.7,1.9-7.3,5.5-10.1c10.1-8.1,20.2-16.2,29.3-25.3
		c7-6.9,11.4-15.8,11.8-26.1c0.3-10.4-3.3-19-12.4-24.2c-9.5-5.5-19.1-3.8-28.2,1.8c-1.6,1-3,2.1-5.5,3.8c-0.2-2.6-0.5-4.5-0.5-6.4
		c0.2-37.1,0.4-74.2,0.6-111.3c0-3.6-0.1-7.2,4.4-8.7c1.2-0.4,2-2.1,2.8-3.4c1.3-2.1,2.5-4.2,3.6-6.4c12.7-24.9,32.8-37.8,60.9-35.8
		c13.9,1,27.7,4.2,41.5,6.6c2.3,0.4,4.4,1.9,6.5,4.1c-1.4,0.2-2.9,0.6-4.4,0.7c-21.5,1.4-34.8,17-32,38.2c0.6,4.3-0.3,6.2-4.5,7.7
		c-13.3,4.9-20.6,14.8-21.3,28.9c-0.7,14.5,6.7,24.7,19.6,30.6c4,1.8,5.2,4.1,5.1,8.1c-0.2,5.9-0.1,11.8-0.1,17.8
		c-0.5,0.3-1.1,0.5-1.6,0.8c-2.2-2.1-4.3-4.2-6.5-6.3c-13.7-13.5-26.9-27.7-41.4-40.2c-6.5-5.6-15.8-8.2-24-11.7
		c-1.3-0.6-3.6,1.3-5.5,2c0.9,1.8,1.4,4.8,2.7,5.2c26.5,9,42.9,30.1,60.3,49.9c4.2,4.8,8.1,9.9,12.6,14.3c3.1,3.1,3.9,6.4,3.9,10.6
		c-1.1,67.1-2.1,134.2-3.1,201.3c-0.1,3.7,0,7.3,0,11.7c-2.9-0.8-4.6-1.4-6.3-1.8c-11-3-21,4.1-21.8,15.5
		c-0.5,7.5,1.7,14.3,6.8,19.7c6,6.4,12.7,12.2,19.3,18c1.2,1,4.2,1.5,5.2,0.8c7.3-5.8,15.1-11.3,21.3-18.2
		c4.1-4.6,7.3-11.2,8.3-17.3c2.1-13.1-8.4-21.3-21.2-17.8c-1.4,0.4-2.8,0.8-5,1.4c1.1-70.9,2.3-141.2,3.4-212.6c2.5,1.5,3.9,2,4.9,3
		c12.5,12.1,27.6,19.9,43.8,25.6c3.3,1.2,4.3,2.9,4.2,6.1c-0.4,8.3-0.6,16.7-1,25.4c-1.8-0.2-2.7-0.2-3.6-0.4
		c-12.6-2.8-22.1,5.9-19.4,18.3c2.9,13.5,13.9,20.3,24.6,27c0.7,0.5,2.6-0.2,3.5-0.9c6.4-5.1,13.4-9.8,18.8-15.9
		c3.5-3.9,6-9.7,6.5-14.9c1-10.3-8.1-16.6-18-13.6c-1.6,0.5-3.1,0.9-4.7,1.4c0-9.1-0.1-17.9,0.1-26.6c0-1,2.1-2.8,3.2-2.7
		c9.7,0.5,19.3,1.4,29.7,2.2c-4.5,5.9-10.1,11.7-2.5,18.2c3.7,3.2,8.1,2.3,11.7-1c4.8-4.3,4.6-7.4-0.5-15.6
		c16.8-5.1,56.8,23.3,73.1,52.2c-6.4-2.1-12.4-4.5-18.7-6.1c-25.3-6.2-54.7,5-68.5,25.8c-13.4,20.1-7.9,45.2,12.1,55.8
		c18.7,9.9,43.7,0.6,50.5-18.8c5.8-16.7-6.2-32.5-24-31.3c-1.1,0.1-2.1,0-4,0c0.3-5,0.2-9.7,1.2-14.2c0.4-1.7,3.1-3.6,5.1-4.1
		c18.8-4.5,34.3,2.2,47.8,14.8c14.1,13.2,21.8,30.3,27.6,48.3c11.1,34.1,12.5,69.2,9.5,104.6c-0.1,0.9-0.4,1.8-0.9,3.4
		c-2.1-1-3.8-1.9-5.6-2.7c-6.7-2.9-13.3-6.1-20.2-8.4c-5.9-2-7.9-0.5-8.8,5.7c-0.8,5.9-1.4,11.9-1.8,17.9c-0.3,4.1-2.2,6.3-6.2,6.6
		c-4.5,0.4-4.6-3.3-4.7-6.2c-0.3-5.2,0-10.5,0.1-15.7c0.1-4.6,2.3-7.7,6-10.7c11.4-9.4,14.9-22.4,15.3-36.6c0.1-5.9,0-11.9,0-18.5
		c-2.8,0-6.4,0-9.7,0c-6.1-8.4-16.4-12.9-26.1-4.5c-1.5,1.3-4.3,1-6.1,2.1c-4,2.2-7.7,4.9-11.6,7.3c-2.4,1.4-4.9,3.2-7.6,3.7
		c-4.5,0.9-6.9,2.9-7.7,7.5c-0.4,2.2-2.6,3.9-3.8,6c-2,3.3-3.9,6.8-5.2,9.1c6.9,6.9,13.1,13.1,19.2,19.2
		c6.4,6.3,13.7,10.9,23.1,11.7c1.6,0.1,4.2,2.1,4.4,3.6c1.1,7.7,1.6,15.6,2.4,23.8c-1.1,0.5-2.6,1.2-4.1,1.8
		c-6.7,2.4-7.9,2-10.1-5.1c-4.4-14-12.3-24-28-25.3c-2.1-0.2-4.3,0-7.4,0c2.1,6.9,3.8,12.7,5.6,18.8c-6.4,1-12.6,1.9-19.6,2.9
		c5.5,9.4,11,17.5,21,19c8.7,1.3,17.9,0.3,28.8,0.3c-20.1,13.3-30.6,30.6-31.2,53.2c-0.6,23.2,10.3,40.1,29.9,52.1
		c-1.3,1.8-2.5,3.6-3.7,5.5h-70.2c-2.4-1.4-5.3-2.9-8.9-4.4c-5.5-2.4-11.2-4.1-17.2-6.2c1.8-4,9.5-5.4,5.5-11.1
		c-2.5-3.5-6.5-6-10.4-9.5c2.1-0.7,4.1-1,5.6-2.1c4.2-2.9,8.9-5.6,12.2-9.4c3.8-4.3,2.6-6.4-3-8.3c-1-0.3-2-0.8-3.3-1.4
		c2.6-3.6,5.5-6.6,7.3-10.2c1.9-3.9,3.4-8.3,4-12.7c0.8-5.8-1.5-7.2-6.9-4.9c-15.1,6.5-28.6,15.5-40.5,27c-0.6,0.6-1.4,1.1-2.4,1.9
		c-1.2-2-2.2-3.7-3.6-6.1c20.1-8.4,32-21.8,27-45c2.1-0.7,3.9-1.1,5.6-1.8c5.6-2.2,9.5-8.2,9.3-14.1c-0.2-6.9-4.5-12.3-11.4-14.4
		c-5.8-1.8-12-0.1-15.3,5.2c-2.2,3.5-4,2.2-6.4,1.1c-16.9-7.7-35.4-5.3-47.4,5.4c-19.4,17.3-14.3,54.3,12.5,61.7
		c0.5,0.1,1,0.5,3,1.6c-4.5,5.4-8.4,10.9-13.2,15.6c-1.3,1.2-5.1,0.3-7.6-0.3c-4.7-1.1-9.1-3.4-13.8-3.8c-4.9-0.4-6.5,2.6-5.1,7.3
		c3.4,11.5,14.3,17.8,28.5,16.2c-0.6,2.7-1.1,5.3-1.7,7.9c-11.6,4.1-13.5,5.3-14.4,14.8h-15.5c0-0.4,0-0.7,0-1.1c0-27,0.1-54,0.2-81
		c0-8.8-1.1-11-9.7-13.1c-6.9-1.7-14.1-2-21.2-3c-0.2,1-0.4,1.9-0.6,2.9c7.8,1.7,15.5,3.5,24,5.4c-8.5,10.5-50,10.7-60.4,0.1
		c9.1-2.1,17.2-3.9,26.5-6c-1.9-0.9-2.8-1.7-3.6-1.7c-7.2,0.8-14.5,1.4-21.6,2.9c-4.8,1-7.1,4.4-7.1,9.9c0.2,26.6,0,53.2,0,79.8
		c0,1.6,0,3.1,0,4.8h-10.7c0.7-9.5-3-11.9-16.6-15.9c-0.4-2.5-0.9-5-1.4-8c1.6-0.2,3.3-0.3,4.9-0.6c9.3-1.3,16.8-5.7,20.7-14.4
		c1.1-2.6,1.3-7-0.2-8.9c-1.4-1.8-5.8-2-8.6-1.5c-3.4,0.6-6.5,2.7-9.6,4.4c-3.2,1.8-6,1.8-8.5-1.2c-3.9-4.7-7.8-9.4-12.4-14.9
		c13.7-4.6,22.6-12.7,25.8-26.1c2.2-9.1,1.4-17.9-2.9-26.2c-10.1-19.6-29.8-24.2-58.3-13.8c-6.2-8.8-12-11.4-19.6-8.7
		c-6.4,2.3-10.8,8.9-10.3,15.8c0.5,7.7,5.4,12.5,14.6,14.3c-0.7,27.2,4.5,35.7,28,45.5c-5.2,12.2-10.8,24.2-15.4,36.6
		c-2.5,6.8-6.3,10-13.4,11.8c-9.7,2.4-19.1,6.4-28.4,10.4c-0.9,0.4-1.7,0.8-2.4,1.2h-76.9c-1.3-4.2-3.3-8.1-6.6-11.8
		c27-12.5,39.4-34.3,40.2-62.8c5.1,0,10.2,0.7,14.9-0.2c5.8-1.1,6.1-2.9,3.8-8.2c-4.3-9.7-10.8-16.5-21.9-17.9
		c-1-0.1-1.9-0.9-2.9-2.9c3.3-0.3,6.6-0.6,9.9-0.9c10.8-1,18.4-7.2,21.1-16.6c1.2-4.2,0.1-6.2-4.1-7.3c-8.8-2.3-14.2-0.8-19.7,6.5
		c-0.1,0.1-0.2,0.3-0.3,0.5c-9.4,12.6-9.3,12.3-22.7,5.4c-5.7-3-12.2-4.5-18.5-6.7c0.2-0.3,0.6-1.4,1.3-1.9
		c12.4-8.8,24.8-17.5,37.2-26.3c2.2-1.6,4-3.8,5.4-6.6c-18.3,5-35.2,14.1-55.5,13.4c1.1-0.8,1.5-1.3,2-1.4
		c12.5-3.8,25.1-7.5,37.6-11.3c7.1-2.2,8.5-7.3,3.5-12.6c-1.9-2.1-3.9-3.7-0.9-6.4c0.6-0.6,0.8-2.8,0.5-3c-5.2-3.1-2-7.6-1.9-11.5
		c0.2-5.5-2.2-9.1-7-11.8c-2-1.1-3.8-3.2-5-5.2c-3.1-5.7-8.7-8.3-14.5-5.6c-3.5,1.6-5.3,0.8-7.5-1.9c-5-6.1-6.2-5.9-12-0.6
		c-11.6,10.6-16.4,24.3-18.6,39.3c-0.2,1.5-0.4,3-0.6,4.4c0,0.3-0.5,0.4-1.2,1c-2.8-21.8,8.6-39.6,14.8-59
		c-11.2,11.2-20.3,23.8-27.7,37.5c-7.3,13.6-14.1,27.4-21.7,42.1c-0.6-2.1-1.2-3.5-1.3-5c-1.4-31.4-1.1-62.6,8.7-93
		c5.9-18.2,13.8-35.3,26.8-49.6c15.5-16.9,34.3-25.2,57.4-20.7c9.8,1.9,9.7,2.2,9.7,12.3c0,2.2,0,4.4,0,6.7c-4.1,0-7.7-0.4-11.1,0.1
		c-15.1,2.1-23.8,15.5-19.2,30.1c4,12.9,13.2,20.7,26.3,23.6c14,3.1,26.1-1,35.8-11.3c11.6-12.4,13-30,3.9-45.3
		c-11.2-19-28.9-27.6-50-30.3c-13.9-1.8-27.3,0.5-39.9,6.8c-1.5,0.7-3.1,1.2-4.8,1.9c7.6-24,54.7-58.2,73.1-54
		c-0.7,4.1-1.8,8.1-1.9,12.1c0,1.6,1.8,3.8,3.4,4.9c3.9,2.8,7.9,1.9,11.2-1.3c3.8-3.7,3.1-6.7-3.9-16.4c10.9,0,21.5,0,32.9,0
		c0,7.8,0,15.8,0,24.5c-1.2-0.2-2.8-0.5-4.3-0.8c-11.9-2.1-21.3,8.1-17.6,19.7c1.3,4,3.5,8.1,6.4,11c6.7,6.7,14.2,12.7,21.7,19.3
		c9.3-7.5,18.7-13.7,24.2-23.9c5.3-9.9,3.2-20.8-5.8-24.1c-4.8-1.7-10.7-0.3-17.5-0.3c0-7.8-0.1-16.7,0.1-25.6
		c0-0.9,1.3-2.4,2.3-2.6c19.5-4.5,36.5-14.5,53.2-25c0.3-0.2,0.7,0,2.7,0c1.7,68.8,2.4,137.8,3.3,207.2c-2.1-0.7-3.4-1.2-4.8-1.6
		c-11.4-3-22.1,4.7-21,16.4c0.5,6,2.8,12.8,6.6,17.4c6.1,7.4,14.1,13.3,21.5,19.6c0.8,0.7,3.4,0.7,4.3-0.1
		c7.5-6.5,15.2-12.8,21.8-20.1c4.7-5.1,7.1-12,5.8-19.3c-2-11.1-11.5-16.7-22.2-13.3c-1.6,0.5-3.1,1-5.6,1.8
		c-0.7-68.5-1.4-136.4-2.1-205.5c2.3,2,3.8,3.3,5.3,4.6c5.3,4.3,11.2,6.2,17.8,3.5c6.3-2.5,8.3-7.1,6.6-14c-0.3-1.1-0.5-2.2-0.4-3.3
		c1.6-11.1,1.2-11.9-8.6-16.6c10.7-8.3,22.2-13.9,35.5-15.6c2-0.3,4.3-0.1,6.1-0.9c1.3-0.6,2.8-2.5,2.7-3.8c-0.1-1.1-2.3-3.2-3.3-3
		c-7,0.9-14.2,1.6-20.9,3.7c-13.8,4.3-25.6,12.2-36.7,21.4c-0.7,0.6-1.4,1.1-3.1,2.3c-0.3-2.7-0.6-4.6-0.6-6.5
		c-0.1-7.5,0.1-15-0.4-22.5c-0.3-4.8,1-8,5.8-9.4c1.1-0.3,2-0.9,3-1.5c11.9-6.5,18.6-16.2,17.8-30.1c-0.8-14.4-8.2-24.2-21.6-29.4
		c-3.1-1.2-4.6-2-3.8-5.8c4.4-21.1-7.7-37.5-29.1-40.1c-1.8-0.2-3.6-0.5-6.6-1C481.1,121.7,481.9,120.6,482.9,120.3z M822,415.3
		c-1.3-2.5-3.4-5.7,0-7.2c2.3-1,6.3-0.3,8.5,1.1c5.7,3.7,7.1,11.9,4.1,19.3c-6,15-25.6,19.3-37.2,8c-7.9-7.7-10.7-16.9-7.9-27.7
		c2.8-10.5,9.1-18,19.2-23.1c2.4,7.2,1.8,13.2-1.2,19.5c-1.9,4-3.4,8.9-3,13.2c0.8,8.3,9.6,12,15.6,7.4
		C824.1,422.7,824,419.2,822,415.3z M761.3,695.3h-36.2c0.2-1.2,0.3-2.5,0.4-3.8c0.1-2.2,0.2-4.4,0.3-7.4
		C738.4,686.5,750.7,688.8,761.3,695.3z M572.1,647.5c8.9,15.9,17.9,31.9,26.8,47.8h-4.2C585,680.2,576.6,664.9,572.1,647.5z
		 M577.5,622.7c0.5-0.3,1-0.6,1.5-0.9c7.3,11.8,14.5,23.6,21.8,35.3c0.7,0,1.4,0.1,2.2,0.1c6.6-11.5,13.2-23.1,19.7-34.6
		c0.6,0.3,1.1,0.6,1.7,0.8c-5.5,15.6-13.4,29.9-22.8,44.7C591.2,653.4,583.7,638.4,577.5,622.7z M630,647.4
		c1.2,5.6-10.3,31.3-20.7,47.8h-4.7C613.2,679.2,621.7,663.2,630,647.4z M448.5,695.3h-2.8c1.3-0.6,2.7-1.3,4.3-2.1
		C449.4,694,448.9,694.6,448.5,695.3z M285.6,686c-3.7-0.3-6.5,2.4-5.6,5.9c0.3,1.2,1.1,2.3,2,3.4h-7.2c-2-3.7-3.5-7.9-3.7-11.9
		c-0.3-5.3,5.6-7.8,9.5-4.3c3.7,3.3,5.6,1.8,8.2-1.1c1.5-1.7,5-3.9,5.9-3.3c2.5,1.7,5,4.4,5.9,7.2c0.8,2.3,0,5.7-1.2,8.1
		c-0.9,1.8-1.8,3.5-2.8,5.3h-7.6c1.2-1.5,2.6-3.1,4.2-5.1C289.8,688.2,287.8,686.2,285.6,686z M254.5,686.1
		c-0.6-5.3,2.8-13,8.3-13.9c10.3-1.8,14.6-9.5,19.8-16.7c0.8-1,1.7-2,2.5-2.9c6.9,5.2,7,8.6,1.7,14.3c-3,3.2-5.7,4.5-10.3,4.1
		c-9.2-0.8-16,9.4-13.6,19.4c0.4,1.5,0.9,3,1.5,4.8h-3.8C257.1,693.3,255,690.1,254.5,686.1z M368.5,518.4c5.1,3,9.6,7.1,15.1,11.3
		c-8.7,5.8-16.7,5.1-24.7,5.3c-7.8,0.1-15.6,0.7-24.1,1.1c2-9.4,7.5-17.7,7.9-27.3c-0.5-0.3-1-0.7-1.5-1c-2.2,1.7-4.5,3.4-6.7,5
		c-4.4-7.6,0.1-22.4,9.6-30.3c4.4,4,6.7,9.2,7.8,14.9c1,5.1,0.1,11.5,2.8,15.2C357.5,515.9,364.2,515.9,368.5,518.4z M361.1,489.8
		c0-0.3,0.1-0.7,0.1-1c0-0.3,0.1-0.7,0.1-1h0c1,0.2,2.1,0.4,3.1,0.7c0.3,0.1,0.7,0.2,1,0.3c0.5,0.1,1.1,0.7,1.1,1.2
		c1.1,6,5.4,7.8,10.6,9.6c4,1.4,3.9,8.3,0.3,14.8c-0.5-0.1-0.7-0.1-0.9-0.2c-7.8-2-12.3-6.6-12.4-15.1c0-2.4-2.1-4.7-2.9-7.1
		C361,491.2,361,490.5,361.1,489.8z M360.5,556.7c0.7-0.2,1.5,0,2.6,0c-13.5,9-26.4,17.7-39.5,26.3c-0.8,0.5-2.4,0.9-3.1,0.5
		c-7.5-4.8-14-0.8-20.7,2c-1.2,0.5-2.3,1-4.7,2.1c0.5-2.4,0.4-4.2,1.1-5.3c6.4-9.1,12.8-18.2,19.6-27.1c0.9-1.2,4-2.1,5.3-1.4
		C333.9,560.1,347,559.8,360.5,556.7z M350.6,613.8c-16.5-4.8-37.1,5.4-38.2,25c-0.1,1.7-1.2,3.9-2.6,5c-4,3.2-8.4,6-13.1,9.3
		c-2.4-3.2-5.1-6.7-7.8-10.3c-2.6-3.6-2.1-7.1,1.5-9.2c12.6-7.1,20.8-18.1,27.7-30.3c1.2-2.1,2.8-4,4.3-5.9
		c10-12.4,22.4-18.6,38.5-14.6c15.9,3.9,23.7,15.5,26.3,30.4c3.4,18.9-2.3,35.5-15.2,49.8c-0.7,0.8-1.7,1.4-3.5,1.7
		c0.7-1.9,1.4-3.9,2.1-5.8C377.4,639,368.5,619,350.6,613.8z M347.5,659.5c5.3-5.1,5.5-12.9,0.7-18.2c-4.6-5.1-12.6-5.4-18.2-1
		c-1.4,1.1-3.5,1.4-5.2,2.1c-0.8-2.1-2.5-4.3-2.3-6.3c1.1-13,17.4-19.9,29.6-12.5c9.9,6,13.3,15.7,11.9,26.6
		c-1.9,14.5-9.5,25.4-23.6,31c-2.9,1.2-5,1.4-7.4-1.3c-1.9-2.2-4.6-3.9-7.3-5.1c-3.6-1.6-3.3-3.4-1.5-6c1.4-2,2.6-4,4-6.4
		C335.3,666.4,341.8,665.1,347.5,659.5z M329.3,650.8c3.7-2.9,5.8-5.6,8.4-6.1c1.3-0.3,5.3,4.1,4.9,5.1c-1.1,2.9-3.9,5.2-6,7.7
		C334.6,655.7,332.6,653.9,329.3,650.8z M310.6,682.8c-3.7-5.4-7.2-10.7-10.8-15.9c5.8-0.9,11.7,1.5,13.5,6.3
		C314.7,677.1,314,680.8,310.6,682.8z M286.5,611.5c-0.4-2.4,0.2-5.4,1.4-7.5c5.7-9.8,14.9-14.5,25.8-16.8
		c-2.2,11.5-6.5,21.7-14.6,29.7c-1.7,1.7-6,1.9-8.6,1.1C288.6,617.2,286.9,613.9,286.5,611.5z M311,547.6
		c-10.6,11.3-18.8,24.1-23.8,38.9c-0.1,0.3-0.6,0.4-0.9,0.5c-3.6-14.4,10.4-60.4,22.1-73.3c1.3,9.8,2.7,19.5,3.9,29.3
		C312.4,544.5,312,546.6,311,547.6z M320.7,331.6c0.7-13.4,1.7-26.8,2.6-40.1c0.1-1.2,0.6-2.3,1.3-4.6c5.1,8,7.7,15.8,6.8,24
		c-0.9,7.4-3.4,14.7-5.5,22c-0.3,0.9-1.8,1.4-2.9,2.1c-0.2,0.1-0.3,0.2-0.5,0.3c-0.1-0.2-0.2-0.3-0.3-0.5
		C321.6,333.7,320.7,332.6,320.7,331.6z M397.5,403.4c-4.9-7.9-5.6-11.3-4-21c12.5,4,22.4,17.4,22.5,30.3
		c0.1,12.1-7.3,22.2-19.2,26.1c-12.3,4-26.5-3-30.5-15.1c-2.9-8.8,1.7-17.7,9.7-18.9c5.2-0.8,6.9,1.2,5.1,6.1
		c-2.3,6.4-1.1,11,3.5,13.2c4.6,2.2,10.7-0.4,13.6-5.8C400.7,413.3,400.5,408.2,397.5,403.4z M400.1,191.1c-3.4-1.9-3.6-4.3-1.1-7.2
		c4.1-4.8,11.2-7.2,16.6-5.3c5.2,1.8,9.1,7.1,9,12.3c-0.1,5.5-5.9,9.5-11.2,7.2C408.8,196.1,404.5,193.6,400.1,191.1z M409.1,204.7
		c-1.6,1.5-3.3,3.1-6,5.6c-2.3-2.7-5-4.4-4.9-6c0.1-1.8,3.5-5.2,3.9-5C404.7,200.6,406.8,202.8,409.1,204.7z M444.7,246
		c20.4-3.3,41-5.9,62.6-9c0,11.3,0.1,22.8-0.1,34.4c0,1.6-1.1,3.8-2.4,4.8c-9.9,7-19.9,13.7-29.9,20.5c-0.5-0.5-1.1-1-1.6-1.6
		c0.6-1.4,1.4-2.7,1.8-4.1c1.5-5.5,3.2-11.1,4-16.7c0.7-4.2-1.8-5.9-6.2-5.5c-15.9,1.6-28.5,12.4-31.4,28.3
		c-0.9,4.9-3.2,5.9-7.5,5.9c-12.5-0.1-25.1-0.8-37.6,0.3c-10.5,0.9-20.8,4.1-31.2,6.3c-0.1,0.2-0.1-0.5,0.3-0.9
		c12.5-17,26.2-32.7,42.7-46C419.1,254.1,431.1,248.2,444.7,246z M498.8,190.7c-6.5,4.8-8.5,12.8-4.3,22.3c2.4,5.5,0.7,8.2-4.3,9.4
		c-6.3,1.6-12.7,3-19.2,4c-9,1.3-18,2.2-28.4,3.3c2.5-2,4.1-3.2,5.5-4.5c13.1-11.9,26-24.1,39.5-35.7c5.4-4.6,11.8-8.3,18.2-11.6
		c7.7-3.9,23.3,4.6,22.9,17.8c-1.7-1.4-3-2.6-4.3-3.7C516.8,185.9,506,185.3,498.8,190.7z M521.8,206c0.2,5.3-4,9.8-9.2,9.9
		c-6.2,0.1-11.4-4.9-11.6-11.1c-0.1-5.3,3.7-9.1,9.1-9.2C516.2,195.5,521.6,200.3,521.8,206z M449,300.8c-4-10.1,5.3-23.2,15.8-22.2
		C466.9,290.6,460.4,299.7,449,300.8z M535.2,288c1.1,0.1,3.1,1.1,3,1.6c-0.1,1.3-0.8,2.9-1.8,3.7c-4.6,3.7-11.1,0.7-12.2-6.1
		C528.2,287.5,531.7,287.6,535.2,288z M526.2,278.4c-0.2-4.2,3.5-5.8,6.9-5.6c1.2,0.1,2.3,1.1,3.4,2.3c0.7,0.7,1.3,1.4,2,2
		c-0.3,0.2-0.5,0.5-0.8,0.8c-1.8,1.8-3.7,3.6-6.1,5.9C529.1,281.3,526.3,279.9,526.2,278.4z M482.8,133.7c12.8,0.1,22.3,9.4,22,21.3
		c-0.3,11.9-10.4,21.4-22.4,21.2c-12.2-0.2-21.7-10-21.5-22.1C461.2,143,471.3,133.6,482.8,133.7z M406.6,151.2
		c16-8.1,32.4-15.3,48.8-22.6c2.8-1.3,6.1-1.5,9.1-2.2c0.4,0.5,0.7,0.9,1.1,1.4c-11.2,8.1-16.8,18.7-14.8,32.4
		c2,14.2,11.6,21.6,24.2,25.8c-2.4,7.5-43.8,41.5-55.8,45.4c-0.4-8.4-0.9-16.5-1.1-24.6c0-0.9,1.8-2.2,3-2.8
		c9.6-5.3,12.4-13.8,7.5-23c-5.2-9.7-16.2-13.4-25.3-8.5c-1.8,0.9-3.4,2.1-5.3,3.2C394.6,163.6,396.6,156.3,406.6,151.2z
		 M391.3,201.5c-2.6,6.2,0.5,11.4,7.2,11.9c11,0.9,11.7,1.6,10.8,12.7c-0.2,2.6-0.8,5.2-1.8,7.6c-3,7.5-14.5,19.7-22.7,23.5
		c0-3.1,0-5.2,0-7.4c-0.1-18.1,0.6-36.3-3.9-54.2c-0.5-2.1,0.7-5.6,2.4-7.1c1.2-1.1,5.7-1.1,6.5,0c1.8,2.7,2.5,6.2,3.3,9.5
		C393.2,199,391.8,200.3,391.3,201.5z M388.3,162.9c3.5,7.7,1.1,13-6.2,14.2c-3.9,0.6-7.9,0.8-11.8,1.2c-0.2-0.6-0.4-1.2-0.6-1.8
		C375.8,172,382,167.5,388.3,162.9z M355,191.6c3.6-2.9,11.5-0.4,14.7,3.5c4.9,5.9,8.4,29,5.1,38.1c-9.7-14.5-21.4-23.8-39.7-20.8
		c-0.2-0.8-0.3-1.5-0.5-2.3C341.4,203.9,347.9,197.3,355,191.6z M318.2,233.6c2,2.6,3.2,4.2,4.4,5.7c5,6.2,12.5,8.8,19.5,6.1
		c2.3-0.9,4.5-2.8,5.8-4.8c0.7-1.1-0.4-4-1.6-5.2c-0.7-0.8-3.4-0.5-4.7,0.2c-4.7,2.8-8.8,2.2-11.5-2.1c-2.6-4.1-1.1-8.6,3.8-11.1
		c6.6-3.4,16.4-1.5,23.4,4.7c14.1,12.4,17.8,42.1,7.2,55.3c-7.9,9.9-15.2,20.4-23.8,32.1c-0.7-27.2-7.9-48.8-37.4-57.2
		C308.4,249.1,313,241.8,318.2,233.6z M286.3,293.4c3.2-7.9,6.6-15.8,10.1-24c14.3,6.8,24.3,33.1,19.9,49.9
		c-6.1-2.6-12.3-5.3-19.5-8.4c-0.9-5.2-3.1-11.2-9.9-14.2C286.3,296.5,285.9,294.4,286.3,293.4z M275.7,336.6
		c1.9-8.9,4-17.8,6.4-26.7c0.4-1.6,2.5-2.8,3.8-4.1c1.3,1.9,3.5,3.7,3.6,5.7c0.2,2.4-1.8,4.8-2.2,7.3c-0.7,4.1-2.1,8.5-1.1,12.2
		c1.4,5.7,7.3,6.3,11.8,1.8c-0.2-0.6-0.3-0.7-0.4-0.9c-1.3-2.4-2.9-4.8-3.5-7.4c-0.1-0.6,3.5-3.3,4.7-2.9c3.1,1.1,7,2.6,8.6,5.2
		c2.8,4.5,1.2,9.4-2.3,13.4c-6.8,7.6-20,8.3-27.3,1.2C276.4,340.3,275.4,338,275.7,336.6z M269.4,424.8c0.6-18.3,1.3-36.6,1.8-54.9
		c0.1-4.3,1.6-6.2,6.2-6.5c10.7-0.8,21.1-2.8,30.6-8.3c1.2-0.7,2.7-0.8,4.5-0.7c-18,24.7-33.8,50.2-41.7,80c-0.5-0.1-1-0.1-1.5-0.2
		C269.4,430.9,269.3,427.8,269.4,424.8z M262.3,635c0.4-1.5,2.1-2.6,4.3-5.1c1.1,1,2.1,2,3.1,2.9c1,0.9,1.9,1.8,2.9,2.6
		c1.4,1.3,2.7,2.5,4,3.7c0.4,0.4,0.9,0.8,1.3,1.2c-0.5,0.6-1.1,1.2-1.6,1.9c-1.6,2-3.1,4-5.1,4.8C268.4,647.9,261.4,638.3,262.3,635
		z M221.5,665.9c2.4-3.4,5.7-6.1,8.3-9.3c2-2.4,4.5-5,5.1-7.9c1.7-8.1,6.3-11.5,13.5-7.6c5.3,2.8,10.1,7,14.2,11.5
		c3.9,4.3,2.5,7.6-2.9,9.9c-3.4,1.4-6.6,3-10.5,4.8c-0.5-2.8-1-5.6-1.5-8.5c-0.6-0.1-1.2-0.2-1.7-0.3c-2.3,6.3-4.5,12.6-7,19.3
		c-5.8-2.5-11.1-4.5-16-7.1C221.9,670.3,220.8,666.8,221.5,665.9z M213,686.2c-1.8-3.7-3.7-5.6-7.7-6c-1.8-0.2-3.6-0.9-5.4-1.6
		c-6.8-2.4-8.1-6.1-4.7-12.5c3.7-6.9,13.7-11,22.9-7.9c-4.8,13.2-3.7,17,7.6,26.3c1,0.8,2.4,1.7,2.7,2.7c0.6,2.6,0.8,5.3,1,8h-8.1
		C218,692.8,214.7,689.8,213,686.2z M949.2,695.3c0.5-0.4,1.1-0.7,1.5-1.1c0.1,0.1,0.2,0.3,0.4,0.4c0.2,0.2,0.4,0.4,0.6,0.6H949.2z
		 M992,678.1c-5.1,5.8-11.8,8.5-19.5,8c-8.3-0.6-16.6-1.6-25.2-2.5c-1.1-9-2.3-18.4-3.5-27.8c0.7-0.4,1.5-0.7,2.2-1.1
		c2.6,1.5,5.5,2.7,7.7,4.7c7.3,6.3,15.2,9.1,24.8,5.9c4.9-1.6,13.2,2.3,15,7C994.1,673.8,993.2,676.7,992,678.1z M1034.7,664.1
		c-9.7,11.1-31.8,10-40.2-2c-0.7-1-0.7-3.4,0-4.3c3.2-3.8,6.3-7.5,12.4-7.3c4.4,0.2,8.8-1.2,12.3-1.7c4.3,0,16.8,7.5,17.4,10.5
		C1036.8,660.8,1035.8,662.9,1034.7,664.1z M1066.6,645.5c-11.3,9.8-23.3,10.9-33.4,2.4c5.5-4.2,10.7-8.1,15.8-12.1
		c1.3-1,3.1-2.3,3.3-3.7c1.1-6.9,6.7-10.5,10.6-15.3c4.7-5.8,5.9-14.9,0.9-20.2c-6.1-6.5-5-13-2.6-20.7c6.5,1.8,10.4,6.3,12.7,12.2
		c3.2,8.6,1.7,16.6-4.5,23.5c-2.4,2.6-2.6,4.7-0.5,7.8C1076.4,630.9,1075.7,637.6,1066.6,645.5z"/>
	<path fill="#C49A6C" d="M597.4,594.5c1.9-2.7,3.4-4.8,5.3-7.4c1.5,2.9,2.6,4.8,3.6,6.6c9.4-2.7,16.8-15.2,12.7-28.7
		c-3.9-12.7-10.3-24.6-15.6-36.8c-0.7,0.1-1.4,0.3-2.1,0.4c-4.8,9.2-10.1,18.2-14.1,27.7c-2.2,5.3-3.2,11.6-3,17.4
		C584.5,582.9,588.7,590.3,597.4,594.5z"/>
	<path fill="#C49A6C" d="M600.7,595.8c-0.8,1-2.2,1.9-2.4,3c-0.3,3.1-0.1,6.2-0.1,9.4c2.4,0,4,0,6.3,0c-0.2-3.6-0.1-6.7-0.7-9.5
		C603.6,597.6,601.8,596.8,600.7,595.8z"/>
</g>
</svg>
