<?xml version="1.0" encoding="utf-8"?>
<!-- Generator: Adobe Illustrator 27.3.1, SVG Export Plug-In . SVG Version: 6.00 Build 0)  -->
<svg version="1.1" id="Layer_1" xmlns="http://www.w3.org/2000/svg" xmlns:xlink="http://www.w3.org/1999/xlink" x="0px" y="0px"
	 viewBox="0 0 1200 800" enable-background="new 0 0 1200 800" xml:space="preserve">
<g>
	<path fill="#C49A6C" d="M1150.4,448.9c-5.8,0.9-11.9,0.2-18.7,0.2c1.8-2.8,3.1-5.2,4.7-7.5c3.5-5.1,7.3-10,10.7-15.3
		c1.2-1.9,1.5-4.5,2.2-6.7c-0.4-0.3-0.8-0.6-1.2-0.9c-1.7,0.9-3.7,1.5-5.2,2.7c-3,2.6-5.5,5.8-8.6,8.3c-2.4,1.9-5.4,3.1-8.1,4.6
		c-1.1-2.8-2.6-5.5-3.2-8.3c-0.8-4.6-0.8-9.4-1.5-14.1c-0.2-1.5-1.7-2.9-2.6-4.3c-1.1,1.2-2.6,2.3-3.2,3.7c-1.1,2.9-1.6,6-2.5,8.9
		c-1.3,4.4-2.3,8.9-4.2,13c-1,2.1-3.5,3.5-5.4,5.1c-1-2.3-2.4-4.5-2.8-6.9c-0.7-4.1-0.5-8.3-1.1-12.3c-0.2-1.6-1.5-3-2.4-4.4
		c-0.5,0.1-0.9,0.2-1.4,0.3c-0.8,1.9-1.8,3.6-2.3,5.6c-2.2,8-1.7,16,0.4,24.1c0.9,3.4,1.4,9.3-0.4,10.7
		c-7.4,5.5-14.8,10.6-16.8,21.2c-1-1.5-1.4-1.8-1.5-2.2c-0.2-1.9-0.4-3.8-0.4-5.7c0-42.2,1.3-84.3,8.2-126.1c2.4-14.9,4-29.9,6-44.8
		c1-7.7,1.9-8.5,9.2-7.4c5.3,0.7,9.8-0.6,14.4-3.3c2.8-1.7,6.1-2.9,9.3-3.4c8.6-1.3,15.3-7.9,15.8-16.6c0.2-2.7,1.2-4.3,3.6-5.4
		c8.1-3.9,12.1-10.4,12-19.6c0-2.3,1.3-5,2.9-6.8c5.1-5.9,6.5-13.3,2.6-20.1c-1.5-2.7-1.3-4.8-0.3-7.4c3.2-8.1,1-14.6-5.9-19.9
		c-1.7-1.3-2.9-3.9-3.2-6.1c-1-9.4-8-17.3-16.8-17.9c-3.4-0.2-4.7-1.5-5.7-4.6c-2.9-9.6-12.1-15.6-21.5-13.8
		c-3.5,0.7-4.8-0.2-6.5-3.1c-5.2-9.1-18.3-12-25.2-5.3c-3.3,3.2-5.4,2.8-9,0.9c-8.2-4.5-17.7-1.7-22.2,6.4c-1.5,2.7-3.2,3.2-6,3.1
		c-9.2-0.2-13.7,3.4-15.7,12.2c-0.2,1-0.5,1.9-0.7,2.7c-14.8,1.4-19.1,6.3-18.5,20.7c0,1-0.9,2.4-1.8,3
		c-10.3,7.4-11.9,13.7-6.9,25.6c0.5,1.2,0.6,3.2-0.1,4.3c-5.7,10.2-4.2,17.6,5.6,24.3c2.3,1.6,2.6,3.3,2.1,5.6
		c-0.6,2.6-1.1,5.6-4.6,5.6c-10.4-0.1-20.9-0.5-31.8-0.7c0.5-8.8,3.1-16.9,1.1-25.2c-1.2,1.4-2.1,3-2.6,4.6
		c-0.8,2.7-1.2,5.5-2.2,8.1c-0.6,1.5-1.8,3.6-3.1,3.9c-1.2,0.3-3.5-1.1-4.2-2.4c-2.6-4.6-5.1-9.3-6.7-14.3
		c-1.4-4.4-1.5-9.1-2.4-14.8c-8.6,9.1-4.3,19.3-4.7,29.8c-6.1-4.5-11.3-8.4-17.1-12.7c-4.6,12.5,3.8,19.2,9.8,27.1
		c-2.5,0.6-4.8,1.2-6.7,0.5c-7.1-2.7-15.6-0.3-21,7c2.8,0.4,5.1,1.1,7.4,1c3.4-0.1,6.8-1.1,10.1-0.8c2,0.2,5.1,1.6,5.6,3.1
		c0.6,1.9-0.2,5.5-1.7,6.7c-3.3,2.6-7.3,4.1-11.1,5.9c-1.3,0.6-2.8,0.9-4.2,1.4c0,0.4-0.1,0.9-0.1,1.3c1.8,0.9,3.5,1.9,5.3,2.5
		c5.5,1.7,10.5,0,15.4-2.3c2-0.9,4.3-1.1,6.4-1.7c0.2,0.5,0.4,1,0.6,1.5c-1.1,1.1-2,2.4-3.2,3.3c-4.6,3.7-9.4,7.1-13.9,11
		c-1.3,1.1-1.9,3.3-2.8,4.9c1.7-0.4,3.7-0.4,5.2-1.2c4.6-2.3,9.1-5,13.6-7.5c1.6-0.8,3.3-1.4,6.3-2.5c-2.5,44.7-5.4,88.1-16.9,130.5
		c-3.7-0.8-6.2-1.4-9.5-2.2c0.7,2.1,0.8,3.2,1.4,4c3.5,4.6,3.5,9.7,1.5,14.7c-3.7,9.6-7.6,19.2-11.5,28.8c-0.6,1.5-1.8,2.9-2.7,4.3
		c-0.4-0.1-0.8-0.2-1.1-0.3c-1.5-14.8,0.7-29.7,0.4-44.6c-6,7.6-5,17.4-8.5,27c-1.2-2.1-2.1-3.1-2.4-4.3
		c-3.6-12.2-7.2-24.3-10.7-36.6c-2-6.9,0.1-12.5,5.2-17.7c6.4-6.6,12.3-13.6,18.1-20.7c1.5-1.8,2-4.5,3-6.8c-0.5-0.3-1-0.6-1.5-1
		c-11.1,5.2-16.5,16.5-25.2,25.2c-0.5-1.8-0.9-2.9-1.1-4c-2.1-14.8-1.1-29.5,1.2-44.2c3.1-20.7,2.6-41.4-0.9-61.9
		c-2.6-15.4-6.4-30.6-9.8-45.9c-2.1-9.5-1.9-10.3,5.9-15.3c1.5-1,3.1-1.8,4.5-2.8c8.3-5.8,16.1-12.3,20.1-21.9
		c0.7-1.6-0.2-3.8-0.3-5.7c-1.8,0.3-3.7,0.2-5.3,1c-2.9,1.5-5.6,3.5-8.9,5.6c-1-8.8,5.7-16.1,3.1-24.2c-0.5-0.1-0.9-0.3-1.4-0.4
		c-2.3,3.6-4.6,7.1-7.5,11.5c-0.9-2.4-1.1-3.7-1.8-4.7c-1.1-1.6-2.4-3.1-3.6-4.6c-1.5,1.2-3.4,2.2-4.5,3.8c-1.4,2.1-2.3,4.5-3.7,7.5
		c-0.8-1.4-1.2-2-1.4-2.7c-1.5-5.2-2.9-10.5-4.5-15.7c-0.3-1.1-1.4-1.9-2.1-2.9c-0.8,0.9-1.8,1.8-2.2,2.9c-0.5,1.3-0.5,2.9-0.8,4.3
		c-0.5,2.8-1,5.7-1.5,8.5c-0.4,0.1-0.9,0.3-1.3,0.4c-3.7-4-7.4-8-11.6-12.6c-5.4,9.6,1.3,17.8,1.9,27.2c-5.5-4.1-10.1-7.7-14.9-11.2
		c-1.3-1-3-1.4-4.5-2.1c-0.3,1.8-0.9,3.6-0.7,5.3c0.3,2,1.1,4,2,5.9c1.5,3.3,3.2,6.6,5,10.5c-2.5,0.3-4.5,0.3-6.4,0.8
		c-1.5,0.5-2.9,1.6-4.3,2.4c0.9,1.3,1.4,3,2.6,3.8c2.7,1.9,5.6,3.2,8.4,4.9c1.4,0.8,2.6,2,4.6,3.6c-4.4,0.5-7.6,0.7-10.8,1.4
		c-2,0.5-3.8,1.7-5.7,2.6c1.2,1.8,2.1,4.2,3.7,5.5c6.1,4.7,13.2,4.8,20.4,3.9c4.2-0.6,8.4-1.7,12.6-2.4c5.3-0.9,7,0.1,8.8,5
		c0.5,1.4,0.9,2.8,1.3,4.2c5.9,21.9,10.7,43.9,12.1,66.6c0.4,6.1,0.1,12.2,0.1,18.3c-0.5,0-1,0.1-1.6,0.1
		c-3.7-9.6-4.8-19.6-3.9-30.5c-2.1,1.5-3.4,2.5-5.3,3.9c-1.9-6.9-3.6-13.2-5.6-20.4c-1.4,2.7-2.2,4.3-3.3,6.3
		c-3.2-4.6-6-8.7-9.1-13.2c-1.2,1.4-2,2.2-2.7,3.2c-3-1.8-5.6-3.7-8.6-5.1c-1.7-0.8-3.8-0.8-5.7-1.2c0.3,1.6,0.7,3.3,1,4.9
		c0,0.3-0.1,0.5-0.2,0.8c-1.5,0.7-3,1.5-5.5,2.7c10,2.6,14.3,9.7,19.7,17.3c-4.1-0.3-7.1-0.5-10-0.8c-0.1,0.4-0.1,0.8-0.2,1.3
		c0.9,0.5,1.7,1.1,2.6,1.5c5.7,2.4,11.4,4.9,17.2,7.2c3.7,1.5,6.1,3.9,6.1,8.5c-5.8-1.8-10.5-6.5-17.2-5c1.6,2.3,3.4,4.4,5.6,5.8
		c5,3.2,10.2,6.1,15.2,9.2c4,2.5,6.1,6,5.6,11.2c-6.8-1.9-11-8.7-19.6-8.3c1.5,2.4,2.1,4.4,3.4,5.4c3.6,2.8,7.1,6.3,11.2,7.7
		c6.8,2.2,8.7,6.1,7.6,12.6c-0.3,1.7,0,3.6-0.2,5.3c-0.3,2.7-0.8,5.3-1.3,9c-5.8-4.5-5.4-12.3-12.2-15.7c0.7,4.1,1.3,7.3,1.8,10.6
		c-0.3,0.3-0.7,0.5-1,0.8c-1.5-1.4-3.2-2.5-4.3-4.1c-2-2.9-3.5-6.2-5.5-9.1c-0.7-1-2.4-1.2-3.7-1.7c-0.4,1.3-1.1,2.5-1.1,3.8
		c0,1.1,0.6,2.3,0.9,3.4c2.7,8.1,9,12.6,16.3,15.9c5.4,2.4,7.8,6.5,8.4,12.1c0.4,3.1,0.8,6.2,1.1,9.2c0.2,2.2,0.4,4.5,0.6,6.7
		c-0.7,0.4-1.4,0.9-2.1,1.3c-0.6-1.2-1-2.4-1.7-3.5c-2.5-4.1-6.5-5.9-10.9-5.7c-8.5,0.5-17.1,1.6-25.6,2.6c-0.8,0.1-2.1,1.1-2.1,1.7
		c-0.1,0.7,0.8,1.9,1.6,2.3c1.6,0.8,3.3,1.6,5,1.6c4.6,0,9.2-0.1,13.7-0.6c11.1-1.2,20.8,6.1,23,17.1c2.1,10.9,4.7,21.7,6.8,32.5
		c3,15.1,5.8,30.1,8.6,45.2c0.4,2,0,4.1,0,6.1c-0.5,0.1-1,0.2-1.5,0.3c-5.9-13.3-12.7-26-22.5-36.7c-0.4,0.2-0.8,0.3-1.2,0.5
		c0.9,4.9,1.8,9.8,2.8,14.7c-0.4,0.3-0.8,0.5-1.3,0.8c-1.5-1.4-3.2-2.7-4.6-4.2c-7.8-8.3-15.6-16.6-23.5-24.8
		c-1.4-1.5-3.5-2.4-5.3-3.6c-0.5,0.4-0.9,0.7-1.4,1.1c0.7,3.1,1.1,6.2,2.1,9.2c2.3,6.9,2.4,6.9-3.7,10.4c-0.5,0.3-0.8,0.7-1.8,1.5
		c3.8,1.2,7.1,2.2,10.4,3.3c3,1,5.6,2.4,4.3,4.8c4.1,4.5,8.5,8,10.9,12.4c1.2,2.3,2,4.5,4.2,6c4.2,3,6.9,7.1,9.7,12
		c-5.1-1.6-9.2-2.9-13.3-4.2c-0.2,0.5-0.5,1.1-0.7,1.6c1.3,1.1,2.6,2.2,4,3.1c7,4.6,13.2,10.1,17,17.8c3.5,7.1,7.2,14.2,10.3,21.6
		c4,9.4,7.4,18.9,11.1,28.4c2.9,7.4,5.9,14.9,9,22.7c0.6,0,1.8-0.1,3,0c3.9,0.3,6.3-0.8,6.9-5.3c0.6-4.3,1.7-8.7,3.3-12.8
		c1.9-4.9,4.6-9.5,6.7-14.3c4.9-11.1,12.8-20.3,20.5-29.5c4.9-5.9,9.9-11.8,14.6-17.8c0.8-1,0.2-3.1,0.3-4.7c-1.3,0.2-3,0-3.9,0.8
		c-2.1,1.8-3.8,4-5.6,6.1c-1.5,1.7-2.9,3.3-4.5-0.5c-11.5,12.7-20.1,26.7-28.4,41c-0.4-1.5-0.6-2.8-0.4-4c1.4-7.1,2.9-14.2,4.5-21.2
		c1.6-7.2,4.2-13.8,10.7-18.3c1.5-1,2.5-2.8,3.8-4.3c-1.1-0.7-1.9-1.2-3.3-2.1c3.5-2.7,6.5-5.1,9.9-7.7c-1.5-1-2.6-1.7-3.9-2.7
		c3.4-2.8,6.4-5.1,9.2-7.7c0.9-0.8,1.2-2.2,1.7-3.3c-1-0.5-2.1-1-3.2-1.4c0.3-0.5,0.7-1,1.8-2.7c-6.6,1.2-12.3,2.2-18.8,3.3
		c1.8-5.8,3.3-11.3,5.2-16.6c0.4-1.2,2-2.5,3.2-2.6c4.7-0.7,9.4-1.2,14.1-1.4c2-0.1,4,0.8,6,1.3c0.3-0.5,0.6-1.1,0.9-1.6
		c-3.5-2.9-7-5.9-11.2-9.4c2.2-1.2,4.3-2.3,6.4-3.4c2.3-1.2,5.2-2.1,2.6-5.2c5.5-4.2,10.7-8.1,15.9-12c-0.3-0.4-0.5-0.8-0.8-1.2
		c-8.6,0.5-16.6,2.6-23.7,8c4.6-8.2,12-12.5,21.1-14.3c-0.1-0.3-0.3-0.7-0.4-1c-2-1-4-2-7.2-3.5c6.5-5.8,12.3-11,18.1-16.1
		c-0.5-2.1-1-4.3-1.7-7.5c-3.2,1.3-6.5,2.1-9.2,3.8c-3.3,2.1-6.1,5.2-9.3,7.5c-1.9,1.3-4.2,2-7.2,3.4c-3.1,4.9-7.1,10.8-10.8,17
		c-3.6,6.1-6.8,12.4-10.1,18.6c-0.4-0.1-0.8-0.2-1.3-0.4c0-3.7,0.7-7.5-0.1-10.9c-2.9-11.4,0.9-21.4,6-31c1.7-3.2,4.6-6.2,7.7-8.1
		c6.9-4.3,12.4-9.6,15.7-17c2.2-4.8,4.4-9.7,6.5-14.6c0.5-1.1,0.9-2.9,0.4-3.4c-0.9-0.9-2.9-1.7-3.8-1.2c-1.9,0.8-3.9,2.2-4.9,3.9
		c-1.8,3.2-2.9,6.7-4.3,10.2c-3.2,8.1-9.3,13.7-16.6,18.8c-0.2-1.1-0.5-1.6-0.4-2.2c0.3-2.2,0.6-4.4,0.9-6.6
		c5.4-30.6,8.1-61.6,9.7-92.6c0.1-1.7,1.1-3.4,1.7-5.1c1.5,0.8,3.2,1.3,4.5,2.3c5.7,4,11.2,8.2,16.8,12.2c1.3,0.9,3.1,1.2,4.7,1.8
		c0.3-0.3,0.6-0.6,0.8-0.9c-0.9-1.5-1.7-3.1-2.8-4.5c-2.4-2.8-5.1-5.3-7.4-8.3c-2.1-2.7-4-5.5-5.3-8.6c-0.6-1.4,0.4-3.5,0.7-5.3
		c1.6,0.4,3.4,0.6,4.8,1.4c2.4,1.4,4.4,3.5,6.9,4.8c5,2.7,11.4,1.9,14.4-2c-7.2-2.3-15.2-3.6-18.5-11.6c8.6-3.3,17-6.7,25.4-9.6
		c1.5-0.5,3.8,0.7,5.5,1.7c2.7,1.7,5,4.2,7.9,5.6c2.6,1.3,4.1,2.9,4.9,5.7c2.7,9.2,9.2,13.9,18.9,13.4c3.5-0.2,5.8,0.8,8,3.5
		c3.1,3.8,7.3,7,12.2,6.1c7.3-1.3,13.9-0.4,20.4,2.8c0.3,0.1,0.6,0.2,0.9,0.2c4.3,0.1,4.9,2.6,4.4,6.3c-1.6,10.5-2.8,21.1-4.3,31.6
		c-0.8,5.9-1.8,11.8-2.7,17.7c-0.5,0-0.9,0.1-1.4,0.1c-0.8-1.5-1.6-3-2.3-4.5c-2.9-6.6-5.6-13.4-8.7-19.9c-1-2.1-2.8-3.7-4.3-5.5
		c-0.5,0.2-1,0.4-1.6,0.6c0,3.1-0.6,6.3,0.1,9.3c1.6,7.2,3.9,14.2,5.7,21.4c0.3,1.4,0,3.7-0.9,4.5c-4.6,3.7-9.5,7.1-14.4,10.3
		c-1,0.7-3.5,1-3.9,0.5c-0.8-1.1-1-3-0.7-4.4c0.4-1.6,1.8-3,2.5-4.6c1.3-2.8,2.6-5.6,3.4-8.6c0.4-1.3-0.4-3-0.7-4.5
		c-1.7,0.6-3.8,0.8-4.9,1.9c-1.8,1.9-3,4.4-4.4,6.6c-4.5,6.8-8.8,7.7-15.5,3.4c-4-2.6-7.9-5.2-12-7.5c-1-0.6-2.7,0-4,0
		c0.1,1.4-0.3,3.2,0.4,4.2c2.2,2.9,5,5.4,7.4,8.1c1.8,2.1,4,4.1,5,6.6c0.7,1.7-0.3,4.2-0.5,6.3c-1.7-0.4-3.6-0.5-5.1-1.3
		c-5.9-3.3-11.7-3.8-17.7-0.3c-0.9,0.5-2.3,1.9-2.1,2.4c0.4,1.1,1.5,2.3,2.6,2.6c2.5,0.7,5.2,1,7.9,1.4c4.7,0.7,8.2,3,10.3,7.4
		c1.4,2.9,1.2,5-2.4,5.4c-2.9,0.3-5.8,0-8.7,0.2c-3.1,0.2-6.3,0.4-9.3,1.3c-1.2,0.4-1.9,2.6-2.8,4c1.5,1,3,2.7,4.6,2.8
		c5.9,0.4,11.8,0.5,17.7,0.3c5.7-0.3,7,1,5.7,6.6c-0.7,3-1.7,6-2.4,9c-0.9,4.2-1.7,8.4-2.1,12.6c-0.2,1.5,0.8,3,1.3,4.6
		c0.4,0,0.8,0,1.3,0c0.8-1.3,1.6-2.6,2.3-4c3.7-7.7,7.2-15.5,10.9-23.2c0.5-1.1,1.8-2.4,2.8-2.4c0.8-0.1,2,1.5,2.5,2.5
		c1.4,2.8,2.8,5.6,3.6,8.6c4,15.4,8.2,30.8,11.6,46.4c2.2,10.5,3.5,21.2,4.6,31.9c0.5,5.4-2.3,10.4-5.4,16c-1.9-2.8-3.3-4.7-4.4-6.7
		c-7.2-14.4-10.4-29.5-7.7-45.6c0.2-1.1-0.5-2.3-0.8-3.5c-1,0.4-2.6,0.5-3,1.3c-2.2,3.7-5,7.5-6,11.6c-2.7,11.4,0.2,21.9,6.8,31.5
		c1.6,2.3,2.9,4.8,4.3,7.3c-0.4,0.4-0.8,0.8-1.2,1.2c-10.7-5.9-21.5-11.8-33.2-18.2c0.5,7.1,3.2,11.8,8,14.7
		c6.7,4,13.7,7.6,20.7,11.1c3.1,1.6,4.2,3.3,1.5,5.9c-2.8,2.8-5.9,5.3-8.8,8c-2.9,2.7-5.2,5.7-3.7,10.8c1.9-0.8,3.7-1.3,5.1-2.3
		c3.4-2.4,6.6-5,9.9-7.6c11-8.8,16.6-9.1,28.3-1c2,1.4,4.1,3.5,4.7,5.7c2.4,9.4,4.9,18.8,6,28.4c0.9,7.4-0.2,15-0.1,22.5
		c0,1.5,1.2,3.7,2.4,4.2c4,1.6,8.2,2.5,12,3.6c0.8-1.9,0.8-3.1,1.4-3.4c4.4-2.8,3.3-6,1.5-9.9c-3.6-7.9-5.5-15.9-3-24.7
		c2.6-9.1,4.4-18.4,6.6-27.6c3.5-14.8,6.9-29.7,10.6-44.4c0.5-1.9,2-3.5,3.4-5.7c6.7,10.7,10.3,21.5,11.9,34.1
		c4.9-5.3,5.7-10.6,4.8-16c-1.5-8.3-6.9-15.2-7.7-23.6c-0.1-0.6-0.1-1.2-0.1-1.8c0-0.3,0-0.6,0-0.9c0-0.6,0-1.2-0.1-1.8
		c0.7,0,1.6-0.1,2.4-0.2c0.1,0,0.2,0,0.4,0c0.9-0.1,1.7,0,2.2,0.4c4.6,4.1,7.6,10.2,12.1,14.5c4.3,4.1,8.8,8.2,13.4,11.9
		c1.1,0.9,3.4,0.5,5.2,0.7c-0.2-1.5,0-3.2-0.7-4.5c-5.2-9.9-12.9-18-19.7-26.8c-2.7-3.6-2.2-4.4,2.4-5.1c9.1-1.2,18.1-2.6,27.2-3.9
		c0.6-0.1,1.2-0.6,1.9-1C1161.9,449.9,1157.1,447.8,1150.4,448.9z M913.3,524c-0.8,7.9-1.2,15.9-1.8,23.8c-0.1,1-0.5,1.9-0.7,2.9
		c-0.5,0.1-1.1,0.2-1.6,0.3c-1.4-5.2-3.3-10.3-4-15.5c-1.8-14.9-3-29.9-4.4-44.8c-0.1-0.7-0.2-1.6,0.1-2.2c0.5-1.1,1.4-2,2.1-2.9
		c0.8,0.7,2.1,1.2,2.4,2.1C910,499.4,914.7,511,913.3,524z M927.3,461.5c-2.5,13.4-5.6,26.7-8.5,40.1c-0.5,0-1,0-1.5,0
		c-3.4-4.8-5.1-10.4-5.8-16.2c-0.7-5.9-0.3-11.7,2.7-17.1c2.7-4.9,4.7-10.2,7.2-15.2c0.9-1.7,2.3-3.2,3.4-4.7
		c0.6,0.1,1.2,0.3,1.7,0.4C926.9,453,928,457.4,927.3,461.5z M949.4,269.5c-7,0-12.2-5.2-12.2-12.3c-0.1-6.7,4.8-11.4,11.9-11.6
		c7-0.1,12.3,5.3,12.2,12.3C961.2,264.6,956.2,269.5,949.4,269.5z M968,260.3c-0.7,0.1-1.5-1-2.1-1.7c-0.1-0.1,0.7-1.4,1.2-1.5
		c4.5-0.4,9.1-0.7,13.6-1.1c0,0.9,0.1,1.9,0.1,2.8C976.6,259.3,972.3,259.9,968,260.3z M1102.2,283.7c-3.9,0.2-7.3-1.4-8.8-5.5
		c-2.2-5.9-4.1-12-5.9-18c-1-3.3,0.4-5.4,4.1-5.8c2-0.2,4.2-0.5,6-1.4c4.6-2.2,7.2-0.3,9.1,3.8c2,4.3,4.3,8.4,6,12.8
		C1115.8,277.8,1111.4,283.7,1102.2,283.7z M1082.3,229c0.4-0.4,0.9-0.8,1.3-1.1c5.5,3.8,10.7,7.8,14,13.9c0.5,0.9-1.2,4.1-2.3,4.3
		c-1.8,0.3-4.9-0.3-5.6-1.6C1086.9,239.5,1084.8,234.2,1082.3,229z M1081.8,251.5c-5.2,2.7-9.8,0.4-9.5-5.9
		c0.4-3.4,0.9-8.1,1.7-12.7c0.2-1.2,1.5-2.2,2.3-3.2c1,0.9,2.6,1.5,3,2.6c1.7,5,3.3,10.1,4.5,15.2
		C1084.2,248.7,1083,250.9,1081.8,251.5z M1087.1,185.1c2.3-4,13.7-2.3,15.1,2c0.3,0.9-0.5,2.5-1.3,3.4c-3.9,4.2-7.9,8.3-12,12.3
		c-0.9,0.8-2.8,1.7-3.6,1.3c-1.6-0.9-2.7-2.7-4.3-4.3C1083.1,194.5,1084.6,189.5,1087.1,185.1z M1077.1,199c-0.6,0-1.3-0.1-1.9-0.1
		c-0.1-2.3-0.3-4.7-0.4-7c0-3.4-0.1-6.8,0.2-10.2c0.3-3.5,2.9-4.3,5.8-3.7c3.1,0.6,2.3,3,1.6,5
		C1080.8,188.4,1078.9,193.7,1077.1,199z M1091,219.7c0.1-0.5,0.2-1,0.3-1.5c6.9,0.9,13.7,1.8,20.6,2.9c0.8,0.1,2.1,2,1.9,2.3
		c-0.5,1-1.8,2.3-2.7,2.2C1103.9,225.4,1097.3,222.8,1091,219.7z M1108.4,234.6c-0.3,2-1.6,4-2.9,5.7c-0.3,0.4-3-0.2-3.1-0.7
		c-1.9-7.3-8.3-10.4-13.5-14.7c-0.6-0.5-1-1.2-1.5-1.8c0.2-0.3,0.4-0.6,0.6-0.9c2.1,1.1,4.1,2.3,6.2,3.4c3.8,1.9,7.8,3.5,11.6,5.6
		C1107,231.8,1108.6,233.6,1108.4,234.6z M1110.5,215.8c-6.4-0.5-12.7-1.2-19.1-1.9c-0.1-0.5-0.2-1-0.3-1.5c1.9-0.9,3.8-1.9,5.7-2.7
		c4.2-1.7,8.5-3.5,12.8-4.8c1.2-0.4,4.1,0.4,4.2,1c0.5,2.8,0.6,5.7,0.3,8.5C1114,215,1111.7,215.9,1110.5,215.8z M1092.5,206.9
		c5.1-8.2,12.8-11.9,17.8-8.3C1104.2,201.4,1098.9,203.9,1092.5,206.9z M1131.7,269.5c-1.1,2.5-3.6,4.8-6,6.3c-1,0.6-4.4-0.5-5-1.7
		c-3.8-7.8-7.2-15.8-10.6-23.8c-0.4-0.8,0-1.9,0-4.2c2.5,1.9,4.2,3,5.7,4.3c4.4,3.6,8.8,7.4,13.3,11
		C1131.9,263.5,1133,266.6,1131.7,269.5z M1147.9,247.8c-1.2,5.1-6.1,9.2-12.3,9.2c-0.8-0.4-2.9-0.8-4.5-2
		c-5.3-4-10.4-8.3-15.7-12.3c-3.3-2.5-2.2-5.4-1.1-8.3c1.2-3,3-6,6.7-5.2c7.1,1.5,14.2,2.9,20.9,5.3
		C1147.4,236.4,1149.3,241.8,1147.9,247.8z M1155.6,222.6c0.4,3.5-0.6,6.8-3.8,8.8c-0.7,0.4-2,0.2-2.9-0.1c-7.5-2.6-14.9-5.3-22.4-8
		c-1.4-0.5-2.6-1.4-4-2c0-0.5,0.1-1,0.1-1.4c7.3-1.3,14.6-2.7,21.9-3.9c1.6-0.3,3.2-0.4,4.8-0.3
		C1153.6,216,1155.1,219.1,1155.6,222.6z M1151.5,195c1.9,1.9,3.1,5.3,3.2,8.1c0.1,3.6-2.8,5.8-6.3,6.4c-8.9,1.6-17.9,3-26.7,4.4
		c-1.7-3.5-0.9-5.2,1.9-6.8c6.5-3.6,12.7-7.4,19-11.3C1145.5,194.1,1148.9,192.3,1151.5,195z M1138.4,171.3c4,2.8,6,6.7,6.9,12.2
		c-1.5,2.4-2.5,5.3-4.5,7.1c-3.1,2.7-6.7,4.8-10.3,6.8c-8.7,4.9-10.7,4.5-16.6-3.5c-0.9-1.2-1-4.2-0.1-5.5
		c3.6-5.6,7.6-10.9,11.7-16.1C1128.2,168.8,1134.2,168.4,1138.4,171.3z M1101.9,154.2c2.3-4.5,8.5-5.2,13.4-2.5
		c7.4,4.1,9.4,12,4.5,19c-3.5,5-7.4,9.7-11.2,14.5c-0.4-0.1-0.8-0.3-1.2-0.4c-1.8-7.9-8.1-8-15.5-8.1
		C1095.4,168.6,1098.2,161.2,1101.9,154.2z M1077.7,141c4.4-2.8,9.1-2.1,13.4,0.4c4.1,2.4,6.1,6.7,4.9,11c-2,7-5.2,13.7-8,20.5
		c-0.1,0.3-0.7,0.4-1.1,0.6c0-0.3,0-0.6,0.1-0.9c-3.8-0.5-7.7-1-12.1-1.5c-0.2-8.1-0.7-16.7-0.6-25.4
		C1074.3,144.1,1076.2,142,1077.7,141z M1085.2,215.5c-0.1,5.9-4.6,10.6-10.3,10.7c-6.6,0.1-12.5-5.2-12.5-11.3
		c0-6.1,4.6-10.4,11.3-10.5C1080.1,204.3,1085.2,209.3,1085.2,215.5z M1041,205.3c4.9,1.1,9.9,2.4,16,3.9c-6.4,3.3-12,4-17.6,2.8
		c-1.3-0.3-2.9-3.5-2.8-5.4C1036.7,203.5,1039.4,205,1041,205.3z M1039.9,199.4c2.2-5.1,4.3-5.9,8-3c3.1,2.4,5.9,5.3,8.8,7.9
		c-0.2,0.4-0.4,0.8-0.6,1.2C1050.7,203.5,1045.3,201.5,1039.9,199.4z M1040.6,218.6c5.1-1.3,10.2-2.3,15.3-3.4
		c0.1,0.5,0.3,0.9,0.4,1.4c-4.5,2.8-8.9,5.6-13.4,8.3c-1.6,1-3.4,1.7-4.2-0.9C1038.2,221.9,1037.5,219.4,1040.6,218.6z
		 M1043.5,231.4c0.3-0.7,0.5-1.4,1-1.8c3.8-2.8,7.8-5.4,11.8-7.9c0.9-0.6,2.2-0.5,3.4-0.7c0,0.4,0,0.8,0.1,1.2
		c-4.2,3.5-8.3,7.1-12.6,10.3c-0.6,0.4-1.5,0.3-2.4,0.2c-0.6-0.1-1.2-0.2-1.7-0.2C1043.2,232.3,1043.4,231.9,1043.5,231.4z
		 M1049,187.4c-0.6-0.8,0.6-4,1.7-4.6c1.6-0.8,5.3-1.1,5.8-0.2c3.3,5.5,6.1,11.4,9.1,17.5c-0.7,0.9-1.1,2-1.8,2.3
		c-0.8,0.3-2.3,0.3-2.8-0.2C1056.9,197.3,1052.7,192.5,1049,187.4z M1070.4,198.6c-0.4,0.1-0.7,0.1-1.1,0.2c-2-5-4.2-9.9-5.7-15
		c-0.4-1.4,0.7-4.4,1.8-4.8c2.7-1.1,3.5,1.3,3.7,3.5C1069.6,187.8,1070,193.2,1070.4,198.6z M1053.4,142c6.2-2.1,13.6,1,14.5,6.9
		c1.1,7.6,1,15.5,1.4,22.5c-4.1,0.8-7.3,1.7-10.6,2c-1,0.1-2.7-0.9-3.2-1.9c-2.8-5.4-5.5-10.8-7.8-16.3
		C1045.2,149.5,1047.8,143.8,1053.4,142z M1031.2,154.6c4.6-2.6,9.8-1.2,12.3,3.8c2.8,5.5,5.3,11.1,7.7,16.3
		c-3.2,2.9-5.9,5.2-9.2,8.2c-4.6-4.8-9.8-9.6-14.2-15.1C1024.8,164,1027,157.1,1031.2,154.6z M1008.2,174.5
		c2.3-5.6,9.6-7.9,13.9-3.9c6.6,6.1,12.8,12.5,19.2,18.8c-4.6,6.2-9.3,7.1-15.3,3.7c-3.9-2.2-8.4-3.5-12.4-5.7
		C1008.3,184.6,1006.3,179.3,1008.2,174.5z M996.7,198.4c1.1-4.9,6-8,11.4-6.3c7.3,2.4,14.4,5.3,21.5,8.2c0.9,0.3,1.9,1.6,1.9,2.5
		c0.1,3.3-0.2,6.5-0.4,11.1c-8.9-0.4-18.3-0.4-27.7-1.4C998.3,211.9,995.3,204.6,996.7,198.4z M1024.2,219.5c-2.8,0-5.6,0.1-8.5,0.1
		C1018.5,219.6,1021.4,219.5,1024.2,219.5z M996.1,229.1c-1.8-5.3,0.3-8.9,5.9-9.4c1.1-0.1,2.3-0.1,3.4-0.2
		c3.4-0.1,6.9,0.1,10.3,0.1c3.8,0,7.5-0.3,11.2,0c0.5,0,1.1,0.1,1.6,0.2c1.8,0.3,4.2,2.3,4.7,4c0.4,1.2-1.6,4.1-3.2,4.7
		c-7.1,2.8-14.3,5.4-21.7,7.6C1003.4,237.6,997.8,234,996.1,229.1z M1017.8,259.1c-3.4,2.8-6.9,1.8-9.6-1.7
		c-3.2-4.1-2.8-10.6,0.9-13.7c1.4-1.2,3.2-2.1,5-2.8c5-1.9,10-3.7,15-5.4c6.1-2.1,6.8-1.7,10.5,4.4
		C1032.4,246.3,1025.3,252.9,1017.8,259.1z M1042.3,271.9c-0.1,0.3-0.2,0.5-0.3,0.8c-1.8,3.8-5,5.1-9,5.4c-4.4,0.1-8.7-2.3-10.5-5.7
		c-0.1-0.2-0.2-0.5-0.3-0.7c-1.8-4.5,0.2-7.6,3.5-10.5c4.8-4.3,9.6-8.8,14.4-13.2c3.1-2.9,5.9-1.7,8.7,0.4c3,2.2,1.2,4.4,0.3,6.7
		C1046.8,260.7,1044.4,266.2,1042.3,271.9z M1065.7,262.4c-0.8,6.6-1.8,13.2-3,19.7c-0.7,3.9-4.6,6.2-8.8,5.6
		c-4.7-0.6-7.8-4-8.4-8.7c3.4-7,6.4-14.3,10.4-20.9c0.9-1.5,5.6-1.2,8.4-0.9C1064.9,257.3,1065.9,260.7,1065.7,262.4z M1065.9,244.8
		c-0.4,1.1-1.6,2-2.5,2.9c-0.6-1.2-1.8-2.5-1.7-3.6c0.2-2.4,1.1-4.8,1.8-7.2c0.4-1.3,1.4-2.4,1.5-3.6c0.1-0.8-0.5-1.8-1-2.7
		c-0.1-0.1-0.1-0.3-0.2-0.4c-0.1,0.1-0.3,0.1-0.4,0.1c-0.3,0.1-0.6,0.2-0.8,0.2c-0.7,0.2-1.4,0.4-1.6,0.9c-2.2,3.8-4.1,7.7-6.3,11.9
		c-4.7-2.9-5-4-1.7-7.8c2-2.3,4.4-4.3,6.4-6.7c2.4-2.8,4.6-3.1,7.9-1.2c3.5,2,1.9,4.4,1.3,6.9C1067.9,238,1067.1,241.4,1065.9,244.8
		z M1078.4,291.1c-6.5-0.1-10.1-4.1-9.3-10.5c0.7-5.7,1.6-11.4,2.6-17c0.4-2.1,0.5-4.5,3.6-4.7c3.1-0.2,5.1,0.9,6.1,3.9
		c2.1,6.1,4.3,12.2,6.3,18.4C1089.3,286,1084.4,291.1,1078.4,291.1z M1028.1,391.4c-1.2,0-3-1-3.3-2c-1.8-4.8,3.7-12.6,10-12.5
		c0.6,0.8,2.3,2.2,2.6,3.7C1038.4,385.4,1033.1,391.4,1028.1,391.4z M1041.6,402.4c-0.4-1.6-0.7-3.2-0.8-4.8
		c-0.1-3.5,1.8-5.5,5.2-4.8c5.8,1.1,11.6,2.3,17.2,4.2c1.6,0.5,3.5,3.3,3.6,5.2c0.4,5.9,0,11.8-0.1,17.7c0,6.5,0,13,0,19.5
		c-0.2,0-0.4,0-0.6,0c0,11.5,0.1,23.1-0.1,34.6c0,1.2-0.9,2.4-1.6,3.6c-0.3,0.4-0.5,0.8-0.7,1.2c-0.1-0.2-0.3-0.3-0.4-0.5
		c-0.2-0.2-0.3-0.3-0.5-0.5c-0.3-0.3-0.6-0.6-0.9-1c-0.6-0.6-1.1-1.3-1.3-2.1C1054.2,450.6,1047.9,426.5,1041.6,402.4z
		 M1066.5,522.6c-3.5-2-7.1-3.9-10.5-6.1c-0.7-0.4-1-2.5-0.6-3.3c1.3-2,3-3.7,4.7-5.3c0.1-0.1,2.4,1.5,2.9,2.6
		c1.6,3.7,2.9,7.6,4.3,11.3C1067.2,522.1,1066.9,522.3,1066.5,522.6z M1067.8,388.1c-5.2-0.9-10-1.6-14.8-2.6
		c-5-1.1-6.3-4.7-2.8-8.4c3.2-3.4,7-6.3,10.7-9.2c2.6-2.1,4.6-1.1,5.7,1.9C1068.9,375.7,1069.3,381.6,1067.8,388.1z M1099.5,475.2
		c-0.4,1.1-0.9,2.2-1.2,3.4c-0.8,2.9-0.6,6.1-1,9.1c-0.7,5.1-2.4,10.2-3.5,15.2c-0.6,2.7-5.5,29.2-6.8,29.2c-0.6,0-1.1,0.1-1.7,0.1
		c-0.6-1.2-1.5-2.3-1.6-3.5c-1.5-9.6-3.2-19.2-4.1-28.9c-0.7-6.7,1.8-12.9,3.8-19.4c2.1-6.7,5.8-10.8,10.9-14.3
		c1.4-1,3.6-0.9,5.4-1.3c0.3,1.8,0.9,3.5,0.9,5.3C1100.6,472,1100.1,473.6,1099.5,475.2z M1114.1,457.7c-4.9,0-8-2.7-8.1-6.9
		c0-4.8,4.7-8.1,11.3-8c4.8,0.1,6.7,2.2,6.6,7.3C1123.9,455,1120.3,457.8,1114.1,457.7z"/>
	<path fill="#C49A6C" d="M241.7,493.7c-0.5-0.7-1.3-1.4-2.2-1.7c-0.8-0.2-1.8,0-2.6,0.1c-20.5,3.3-41.2,6.1-61.6,10.3
		c-15.8,3.2-28.5,11.8-36.7,26.3c-3,5.3-6.4,10.3-9.7,15.4c-0.7,1.2-1.6,2.3-2.4,3.4c-0.4-0.1-0.8-0.3-1.2-0.4
		c0.1-1.6,0.1-3.3,0.2-4.9c0.6-6.1,1.5-12.3,1.8-18.4c0.7-12.7,4-24.7,7.9-36.7c1.9-6,7-11.7,10.6-16.8c4-5.8,8.2-11.5,12.5-17.1
		c7.2-9.5,16.9-14.6,28.8-15.4c3.1-0.2,6.2-0.7,9.3-1c11.4-1.1,20.4-6.7,27.8-15.1c1.4-1.6,2.6-3.6,3.5-5.6c1.5-3.1,0.8-5.6-2.8-6.5
		c-3.3-0.9-6.6-2.1-9.9-2.2c-19.1-0.7-34.7,7.4-47.9,20.3c-1.9,1.9-2.2,5.5-3.2,8.4c-0.6,1.7-0.6,4-1.8,5.1
		c-11.2,10.6-19.5,23.3-27.9,36c-0.5,0.7-1.2,1.3-1.8,2c-0.3-0.2-0.7-0.3-1-0.5c1.1-4.5,1.8-9.3,3.5-13.6
		c3.2-8.3,7.2-16.2,10.4-24.5c4.7-12.1,8.9-24.5,13.5-36.6c0.8-2,2.5-4.4,4.3-5c15.2-4.7,24.4-15.3,30.9-29.2
		c7-15.2,3.2-31.2,4.1-46.9c0.1-1.1-1.3-3-2.3-3.3c-0.9-0.3-2.7,1-3.3,2.1c-4.5,7.7-11.2,13.2-17.6,19.2c-11.1,10.4-18.5,23-21.4,38
		c-0.9,4.9-1.5,10.2,1.7,14.6c1.8,2.5,1.7,4.7,0.6,7.4c-5.7,13.1-11.3,26.3-16.9,39.5c-0.6,1.4-1.5,2.6-2.9,4.9
		c-0.3-2.2-0.6-3.1-0.6-3.9c0.1-2.7,0.2-5.3,0.4-8c1.2-22.9,3.3-45.8,3.2-68.7c-0.1-19.5-2.9-38.9-4.4-58.4c-0.1-1.5,0-3.8,0.9-4.5
		c3.4-2.7,3-6.1,2.9-9.7c-0.1-2.2,0-4.5,0-6.7c2.2,1,3.4,2.2,4.6,3.5c2.7,3.1,5.2,6.4,8.1,9.4c1.1,1.1,3.9,2.1,4.5,1.6
		c1.3-1.2,2.3-3.4,2.4-5.2c0.1-2.3-0.8-4.6-1.3-6.9c-0.7-3.4-1.5-6.8-2.2-10.1c0.3-0.2,0.7-0.4,1-0.6c1.6,1.1,3.2,2.4,4.9,3.4
		c4,2.5,7.9,5.2,12.1,7.3c1.5,0.7,4.6,0.5,5.4-0.5c0.9-1.2,0.8-4.1,0-5.6c-2-3.6-4.7-6.8-7.1-10.1c-0.8-1.1-1.4-2.2-2.8-4.4
		c6.8,2.3,12.1,4.2,17.6,6c3.5,1.1,6.3,0.8,8-3.2c1.6-3.8-0.7-5.3-3.3-7.1c-3.8-2.5-7.4-5.1-11.1-7.6c1.9-1,3.5-0.8,5-1
		c7.1-1,14.3-2,21.3-3.3c1.1-0.2,2.3-1.8,2.6-3c0.1-0.6-1.5-2.1-2.6-2.4c-4.2-1.4-8.5-2.5-12.7-3.6c-3.8-1-7.7-2-11.5-3
		c1.6-1.6,3.2-1.9,4.7-2.6c3.9-1.7,7.9-3.3,11.7-5.3c1.2-0.6,2.5-2.5,2.4-3.7c-0.1-1-2.1-2-3.3-2.8c-0.7-0.4-1.7-0.3-2.6-0.5
		c-4.7-0.7-9.4-1.5-14.9-2.4c8.4-6.9,18-11,23.9-19.3c-0.2-0.6-0.5-1.2-0.7-1.8c-8.6,0.7-17.2,1.4-27.1,2.2c1.9-2,2.8-3.1,3.8-4.1
		c2.3-2.7,4.7-5.3,6.9-8.1c2.1-2.8,0.7-5.2-1.2-7.6c-2-2.5-3.9-1.2-5.9-0.2c-4,2.2-8,4.5-12,6.8c-1.3,0.7-2.7,1.3-4,1.9
		c0.3-2.3,1.2-3.8,2-5.3c1.8-3.4,3.7-6.7,5.4-10.1c1.8-3.4-1.2-5-3.1-6.4c-1.1-0.9-3.7-1.2-4.9-0.5c-4.4,2.6-8.6,5.7-12.8,8.7
		c-1.5,1-2.9,2-5.2,3.6c0.6-3.3,1.2-5.3,1.2-7.3c0.3-6.4,0.9-13,0.3-19.3c-0.4-4-3.7-4.5-6.2-1.3c-2.1,2.7-3.7,5.7-5.5,8.6
		c-1.9,3-3.7,6-5.6,9c-1.4-6-1.9-11.6-2.1-17.2c-0.2-3.3-1.9-4.7-4.9-5.1c-5.5-0.7-6.3-0.1-7.3,5.4c-0.3,1.7-0.6,3.5-0.9,5.2
		c-0.8,4.2-1.6,8.4-2.4,12.6c-1.4-1-1.9-1.9-2.3-2.8c-2.1-5.2-4.4-10.4-6.4-15.6c-1.4-3.8-4-4-7.5-3.2c-3.6,0.8-2.7,3.5-2.5,5.6
		c0.6,5.3,1.5,10.5,2.2,15.8c0.3,1.9,0.4,3.8,0.7,6.9c-1.5-1.6-1.9-2.2-2.4-2.7c-4.6-5-9-10.2-13.9-14.9c-1.2-1.2-3.7-1.1-5.6-1.6
		c-0.4,1.8-1.3,3.6-0.9,5.3c0.9,4.6,2.3,9.1,3.6,13.7c0.9,3.2,2,6.3,3.4,10.5c-5-3.1-9-5.7-13-8c-5.4-3.1-6.1-2.7-9.7,2.2
		c-2.1,2.9-1.6,5,0.8,7.3c3.5,3.4,7,6.9,11.3,11.2c-2.6-0.2-3.8-0.4-4.9-0.4c-6.2,0.2-12.4,0.2-18.5,0.7c-1.4,0.1-3.4,1.3-3.8,2.4
		c-0.3,1.1,0.8,3.1,1.9,4c2.6,2.2,5.5,4,8.4,5.8c2.2,1.4,4.5,2.5,6.8,3.8c-4.2,1.9-8.3,2.8-12.5,3.5c-3.4,0.6-5.1,2.2-5,5.9
		c0.1,3.8,2.6,4.1,5.3,4.5c4.1,0.6,8.2,1.2,12.3,1.8c0,0.4,0,0.8,0.1,1.2c-4.1,1.5-8.2,3.2-12.3,4.6c-3.3,1.1-3.9,3.2-3.1,6.2
		c0.8,3.2,2.8,4.7,6,4.9c4.1,0.2,8.1,0.4,13.2,0.6c-3.7,4.5-6.8,8.2-9.7,12c-0.8,1.1-1.9,2.6-1.7,3.8c0.9,6.3,5.7,8.4,11,5
		c3.8-2.4,7.3-5.1,11-7.7c-1.8,5.7-4.5,10.7-6.8,15.9c-0.8,1.7-0.6,3.8-0.9,5.7c2.2,0.2,4.5,0.7,6.6,0.4c2.1-0.3,4.1-1.6,6.2-2.5
		c2.7-1.1,5.3-2.3,8.8-3.8c-0.3,2.3-0.4,3.7-0.7,5.1c-0.7,3.6-1.7,7.2-2,10.9c-0.1,1.5,0.8,3.9,1.9,4.4c1.6,0.7,4.1,0.6,5.7-0.1
		c1.7-0.8,3-2.8,4.4-4.3c1.8-2,3.6-4.1,5.4-6.1c0.4,0.2,0.7,0.3,1.1,0.5c0,3.9-0.1,7.8,0,11.8c0.1,4.1,2.4,5.9,5.9,4.1
		c1.7-0.9,3.4-2.5,4.3-4.2c2.1-3.7,3.6-7.8,5.4-11.6c0.7-1.5,1.6-2.9,2.4-4.5c11.3,10.5,12.9,130.2,6.9,143.8
		c-1.5-3-2.6-5.5-3.8-7.9c-7.3-14.5-13.9-29.4-21.9-43.5c-8-14.1-18.2-26.7-32.3-35.4c-13.3-8.2-27.6-10.8-42.9-7.8
		c-3.5,0.7-4.9,2.4-3.4,5.9c0.5,1.2,0.9,2.5,1.6,3.7c8.5,15.6,20.6,25.1,39.3,24.9c15.1-0.2,27.1,6.5,35.3,18.8
		c9,13.4,17,27.8,21.3,43.5c2.1,7.8,3.3,15.8,3.4,23.8c0.1,7.1-6.2,72.5-7.4,72.5c-0.5,0-1.1,0-1.6,0c-1.8,0-10-28.1-11.1-31.1
		c-1.9-5.4-4.1-10.8-5.8-16.2c-1.4-4.5,0.1-5.4,1.5-9.7c2.4-7.4,3.7-14.9,2.1-22.7c-2.8-13.9-11.4-24-22.3-32.1
		c-7.2-5.3-15.3-9.4-23.2-13.8c-9-5.1-18.1-9.9-27.6-15.1c0.3,1.4,0.5,2.5,0.8,3.5c4.5,14.3,8.8,28.8,13.6,43
		c3.3,9.9,6.9,19.8,11.4,29.2c2.5,5.2,6.8,10.9,12,13.6c5.8,3,14.4,3.2,20.8,3.7c2.8,0.2,4.3,1.1,5.3,3.6c2.7,7.2,5.6,14.3,8.3,21.5
		c4.8,12.9,9.2,25.9,9.4,39.9c0.2,12.1,0.7,24.2,1.1,36.4c0.1,5.1,1.7,6.4,7.7,6.4c4.8,0,5.5-0.9,5.7-6.1c0.2-4.5-0.5-9.7,1.5-13.4
		c7-12.9,16.9-23.5,30.9-28.7c29.8-11,54.2-32,83.1-44.6C240.9,495.3,241.8,493.9,241.7,493.7z M117.8,246.5
		c-9.9,0.2-18-7.7-18.1-17.8c-0.2-11.5,8.8-20.9,20-21c10.3-0.1,18,7.4,18.1,17.7C138,236.8,129,246.3,117.8,246.5z"/>
	<path fill="#C49A6C" d="M669.5,227.9c0.2-1.9,0.5-3.8,0.3-5.7c-0.3-4.1-3.1-5.7-6.7-6.6c-3.5-0.9-5.2,1.1-6.6,3.8
		c-1,1.8-2,3.6-3.3,5.3c-2.2,2.9-4.4,2.9-6.1-0.3c-0.9-1.7-0.9-3.9-0.9-5.9c0-1.9,0.8-3.8,0.7-5.7c-0.1-1.3-1.1-2.5-1.7-3.7
		c-1,0.7-2.4,1.3-2.9,2.2c-1.1,2-1.7,4.4-2.8,6.5c-0.7,1.3-1.9,2.4-2.8,3.5c-0.8-1.2-2.2-2.4-2.4-3.7c-0.4-2.9-0.1-6-0.1-9
		c-0.9-0.7-3.5-1.9-3.4-2.7c0.4-2.3,1.5-4.7,3.1-6.3c1.1-1.2,3.5-1.2,5.4-1.5c7.8-1.1,13.1-5.7,17-12.2c0.7-1.1,0.8-3.5,0-4.3
		c-0.8-0.8-3.4-1.2-4.3-0.5c-2.7,2-5,4.7-7.5,7c-1.2,1.1-2.5,2-3.8,3c-0.7-1.4-2-2.9-1.9-4.3c0-2.3,0.8-4.6,1.4-6.9
		c0.6-2,2-3.9,2-5.8c0-1.7-1.2-4.8-2.1-4.9c-2-0.1-4.3,0.9-6,2.1c-0.9,0.6-1.1,2.7-1.2,4.1c-0.2,2.8,0.2,5.7-0.3,8.4
		c-0.7,4.5-1.4,9-3.1,13.2c-1.4,3.4-4.1,3.4-5.9,0.1c-1.2-2.3-2-5.3-1.9-7.9c0.4-7.1,0.4-13.9-5-19.6c-0.5-0.6-0.6-2.3-0.1-3.1
		c4-6.3,7.5-13.4,16.7-13c2.5,0.1,5.1,0.6,7.6,1c1.1,0.2,2.1,1.2,3.2,1.4c1,0.1,2.1-0.5,3.1-0.8c-0.4-0.9-0.6-1.9-1.1-2.6
		c-0.7-0.9-2.3-1.7-2.3-2.5c0.3-6.1-3.3-4-6.4-3.3c-3.4,0.8-6.9,1.6-11.4,2.6c0.8-3.6,1.5-5.7,1.6-7.9c0.2-3.8,0.4-7.6,0-11.3
		c-0.1-1.1-2.3-1.9-3.5-2.8c-0.7,1-1.8,1.9-2.2,3c-1,3.4-2.6,3.3-5.6,2.1c-4.5-2-9.3-3.8-14.1-5c-6.9-1.8-7.8-3.7-3.8-9.7
		c2.2-3.3,4.4-6.7,1.4-12.4c-2.7,3.9-4.9,7-7.2,10.3c-0.8-0.5-1.4-0.8-2-1.3c-5.9-4.5-7.8-3.9-9.6,3c-1.2,4.6-4.9,5.9-8.7,3
		c-1.1-0.9-2.2-1.8-3.3-2.7c-0.4,0.1-0.8,0.2-1.2,0.3c0.2,2.4,0.3,4.9,0.4,7.3c-5.1,3.1-5.3,4.4-1.6,9.1c2.4,3,5,5.9,7.1,9.1
		c2.1,3.1,0.8,5.1-2.9,5c-1.3,0-2.6-0.5-3.9-0.6c-5.8-0.6-9.9,1.7-11.5,7.3c-0.8,2.9-0.9,6.2-0.5,9.1c0.7,4.6,2.2,9,3.4,13.7
		c-4.1,1.2-6.4-0.6-8.7-3.3c-1.6-1.8-3.5-3.7-5.7-4.6c-2.4-1-5.7-0.7-5.8,2.6c-0.1,1.9,1.7,4.7,3.4,5.6c3.5,1.9,7.5,3.1,11.4,4.2
		c6.1,1.6,9.2,6.2,11.9,11.2c1.8,3.3,0.8,5.6-3,5.9c-3.3,0.3-6.6,0.1-10.1,0.1c0.4,4.2,2.1,6,5.8,5.7c1.9-0.2,3.8-0.3,5.7-0.6
		c3.7-0.6,6.4,0.6,9,3.5c2.4,2.7,5.2,5.4,8.4,7c3.2,1.6,7.1,1.9,10.7,2.6c3,0.6,4.8,1.9,4.7,5.3c-0.4,18.9,1.5,37.9-1.8,56.7
		c-0.2,1.3-0.7,2.6-1.3,4.6c-0.9-1.3-1.3-1.8-1.5-2.3c-0.4-1.3-0.8-2.5-1-3.9c-1.4-11-3.3-21.9-9.2-31.7c-2.4-4-1.6-7.9,1-11.6
		c1.5-2,2.8-4.2,3.8-6.5c0.5-1.1-0.1-2.7-0.2-4c-1.3,0.5-3,0.6-3.7,1.6c-2.2,3.1-4,6.5-5.9,9.8c-1.5,2.8-3.4,4-6.4,2.1
		c-4.9-3.1-9.7-6.2-14.6-9.2c-2.9-1.8-4.2-4.3-4.2-7.7c0-3.7-0.3-7.4-0.8-11.1c-0.3-2-0.8-3.9-3.9-3.6c-2.4,0.3-4.9-0.5-7.3-1
		c-1.8-0.4-3.6-1.6-5.4-1.6c-1.7,0-3.3,1.2-4.9,1.8c0.8,1.7,1.2,4,2.6,5c2.3,1.7,5.3,2.6,7.9,4c2.7,1.5,5,8.1,3.1,9.1
		c-2,1-5.3,0.7-7.5-0.3c-4.2-1.7-8-4.5-12.1-6.4c-1.5-0.7-3.6-0.1-5.4-0.2c0.4,1.9,0.3,4.1,1.3,5.5c3.2,4.7,8,6.8,13.6,7.1
		c8.2,0.4,16.5,0.7,23.5,5.4c6.9,4.7,13.6,10,20,15.5c5.6,4.8,7.6,11.7,9,18.8c1.6,8.1,3.8,16,5.8,24.1c0.4,1.6,0.8,3.2,1.3,5.3
		c-11.8-6-16.9-17.8-13.6-29.5c0.7-2.5,2-5.3-1.8-8.7c-1.5,5.2-3.1,9.6-3.9,14c-0.6,3.5-2.2,3.8-4.9,2.7c-5.6-2.4-9.1-6.8-12.1-11.9
		c-1.5-2.6-1.6-4.8,1.1-7c3.1-2.5,3.5-6.1,2.1-9.7c-0.3-0.9-1.6-1.4-2.5-2.1c-0.6,0.7-1.4,1.4-1.8,2.3c-0.8,1.8-1.3,3.7-2.3,6.5
		c-2.1-1.9-3.6-3.2-5.1-4.5c-1.8-1.6-3.3-3.4-5.3-4.7c-2.4-1.5-5.3-3-7.6-0.1c-2.2,2.8-0.3,5.6,1.9,7.3c3.2,2.5,6.7,4.8,10.4,6.7
		c4.6,2.3,6,6.1,6.3,11.2c-6.9,1-12.5-0.7-17.2-5.4c-2.4-2.4-4.4-5.3-6.8-7.6c-1.6-1.4-3.7-2.2-5.6-3.3c-0.4,0.4-0.8,0.7-1.3,1.1
		c0.7,1.9,1.1,4.1,2.2,5.8c5.3,8.4,13.5,12.6,22.9,14.8c4,0.9,8.1,1.7,12,3c1.1,0.4,1.8,2,2.7,3.1c-1.1,0.8-2.1,2-3.3,2.3
		c-2.7,0.7-5.6,0.8-8.2,1.7c-1.4,0.5-2.5,2-3.7,3.1c1.6,0.7,3.3,2.2,4.8,2c5.1-0.9,10.2-2,15-3.7c4.2-1.5,7.3-1,10.3,2.3
		c4.1,4.5,8,9.2,12.7,12.9c5,3.8,8.2,8.5,8.3,14.5c0.3,12.4-0.2,24.8-0.5,37.1c0,1.1-0.5,2.1-0.8,3.2c-0.7-0.1-1,0-1.2-0.2
		c-0.6-0.5-1.1-1-1.5-1.6c-5.4-7.4-9.7-15.2-8.8-24.9c0.2-2.7-0.8-5.6-1.2-8.4c-0.4,0.1-0.9,0.1-1.3,0.2c-1,2.8-1.9,5.6-2.9,8.4
		c-10.2-4.7-13.1-8.8-14.2-19c-0.2-2.3-0.6-4.7-1.3-6.9c-0.5-1.4-1.8-2.4-2.7-3.6c-0.5,0.2-1,0.4-1.5,0.7c0.2,3.4,0.4,6.8,0.6,10.5
		c-4.5-1.3-6.7-4.2-8.4-7.8c-0.5-1.1-1.2-2.5-2.2-2.9c-3.4-1.4-11.4,0.2-12.5,2.6c-2,4.2-0.3,8,2.2,11.5c0.3,0.4,0.5,0.7,0.8,1
		c2.8,2.4,4.1,4.9-0.1,8.9c3.1-0.7,4.9-1.1,6.6-1.6c0,5.4,0.7,6,5,4.7c11.3-3.3,20.6,0.6,25.6,9.4c4.7,8.2,10,16.1,14.6,24.3
		c1.7,3.1,3,6.8,3.3,10.3c0.5,5.3-0.1,10.6-0.2,16c-0.1,3.6-2.2,3.8-4.3,2.2c-2.3-1.7-4.3-4-6-6.4c-8.2-10.9-11.1-23.7-13.1-36.8
		c-0.4-2.5-1.2-4.9-1.9-7.3c-0.4,0.1-0.7,0.1-1.1,0.2c-0.5,3.8-0.9,7.6-1.4,11.3c-0.4,0.1-0.9,0.3-1.3,0.4c-1.4-1.4-2.6-2.9-4.1-4.1
		c-3.5-2.8-6.9-6.1-10.9-8c-4-2-7.1,0.6-6.6,5.1c0.5,3.9,1.9,7.6,2.7,10.9c-1.7,1.8-3.3,3.3-4.8,4.9c0.2,0.4,0.5,0.7,0.7,1.1
		c6.1-0.6,11.3,0.8,16,6.2c-3.2,0.7-5.2,1.2-7.9,1.7c4.2,3.6,8.6,4,13,4c7.4-0.1,12.8,2.5,16,9.5c2.5,5.5,6.6,9.6,11.9,12.9
		c1.7,1.1,3.6,3.4,3.7,5.3c0.9,11.2,1.4,22.4,1.8,33.7c0.1,1.6-0.6,3.3-0.9,5c-1.9-0.6-3.9-0.9-5.5-2c-2.1-1.4-3.9-3.2-5.6-5
		c-5.3-5.8-9-12.4-11.2-19.9c-0.9-3.2-2.6-6.1-4-9.1c-0.4,0.2-0.7,0.3-1.1,0.5c0.5,3.1,0.9,6.1,1.5,10c-6.2-2.6-10.4-5.5-10.9-12.4
		c-2.9,5.4-6.8,4.2-10.8,3.1c-1-0.3-2.2-0.6-3.1-0.2c-2.5,0.9-5.8,1.4-7,3.3c-0.8,1.2,1.1,4.8,2.5,6.7c2.3,3.1,6.7,4.8,4.5,9.9
		c7-0.7,24.1,5.3,27.4,9.6c-4.9,1.1-9.5,2.1-14.1,3.2c0,0.4,0,0.8,0,1.1c1.5,0.3,2.9,0.9,4.4,0.9c3.2,0,6.5-0.2,9.7-0.7
		c11.9-1.6,25.1,7.5,26.9,19.3c1.4,8.9,1.8,17.9,2.6,26.9c0.1,1.8-0.3,3.7-0.5,5.7c-6.3-2.6-10.4-7.9-11.3-13.9
		c-0.5-3.3-1.4-6.5-2.2-9.7c-0.4,0.1-0.9,0.2-1.3,0.2c-0.8,2.6-1.6,5.2-2.7,9c-1.7-2.8-2.8-4.7-4-6.4c-0.6-0.8-1.6-1.9-2.4-1.9
		c-5.2,0-7.1-2.9-7.2-7.6c-0.1-2.9-2-3.5-3.8-2.1c-2.9,2.2-5.5,1.3-8.4,0.5c-2-0.6-4.1-1-6.1-0.9c-6.6,0.1-8.8,3.9-5.7,9.6
		c2,3.7,5.3,6.9,1.8,12c5.5-3.6,10.7-2.9,15.7-1.1c4.9,1.8,10.4,2,15.6,6.5c-3,0.8-4.6,1.2-6.3,1.6c-4.7,1-10,0.9-13.1,5.5
		c-1.8,2.6-3.5,2.3-6,1.4c-3.1-1.1-6.5-2.5-9.7-2.3c-5.8,0.3-7.6,4.2-4.8,9.3c1.1,2,2.6,3.9,4,5.9c-2.1,2.6-4,5.2-6,7.7
		c0.3,0.5,0.6,0.9,0.8,1.4c3.1-1.4,6.2-2.8,8.9-4c8.7,5.2,19.9,6.4,27.6,14.3c-7.8,1.4-15.8-2.7-22.7,3.5c4,0.9,8,1.6,12,1.2
		c10.3-1.1,18,2.3,24.9,10.3c5.6,6.6,7.6,13.3,6.4,21.5c-1,7-1.9,14-2.6,21.1c-0.1,1.1,0.8,3,1.7,3.4c5,2.2,8.6,0,9-5.2
		c0.1-1,0.3-2.1,0.2-3.1c-0.2-8,2-15.3,8.3-20.5c6.3-5.2,11-12.7,21-13.6c-4.1-3.4-1.6-4.9,0.7-6c2.1-1,4.4-1.5,6.7-2.2
		c5-1.5,9.9-2.8,14.9-4.5c1.3-0.4,2.3-1.6,3.4-2.5c-0.2-0.5-0.4-1-0.6-1.6c-4.8,0.7-9.6,1.5-15.6,2.4c2.8-3.1,4.9-5.4,6.8-7.7
		c2.8-3.3,5.7-3.6,9.2-0.8c1.1,0.9,2.9,1,4.3,1.5c0.3-0.6,0.6-1.1,0.9-1.7c-2.5-2.2-5-4.4-7.5-6.5c1-2.2,2.8-4.5,3-7
		c0.2-2.7-0.5-5.9-2.1-7.9c-0.7-1-4.7-0.3-6.6,0.7c-5.9,3.1-12.1,5.9-14.4,13c-0.3,0.9-1.1,1.7-1.6,2.5c-1.8-1.4-2.9-2.3-5-3.9
		c1.7,22.5-10.7,35.6-26.6,46.8c-0.1-0.6-0.4-1.2-0.3-1.7c0.9-10.8,1.8-21.5,2.7-32.3c0.6-8.2,7.1-12.2,12.5-16.9
		c2.4-2.1,5-4.4,7.9-5.2c5.7-1.6,11.6-2.1,17.4-3.2c2.1-0.4,4.2-1.2,6.3-1.8c-0.1-0.6-0.2-1.1-0.2-1.7c-5-0.4-9.9-0.7-14.9-1.1
		c2.8-2.9,6.1-4.6,8.8-6.9c4.6-4,8.9-5.3,13.8-0.3c2.3,2.3,4.3,0.6,3.8-1.9c-0.4-2.6-2.3-4.9-3.9-8.2c1.4-1.3,3.8-2.9,5.5-5
		c3.1-3.8,2.7-6.6-1.9-8.3c-3.3-1.2-7.1-1.4-10.7-1.5c-3.5-0.1-7,0.5-10.9,0.8c0.4,5.9-3,10.4-8.7,14.6c-1-3.1-1.7-5.6-2.5-8.1
		c-0.5,0-1.1,0-1.6-0.1c-1,7.1,1.5,14.9-3.8,21.2c-4.8,5.7-6.7,13.8-14.5,17.3c0-4.3,0.2-8.1,0-11.8c-0.9-12.5-2-25.1-2.8-37.6
		c-0.1-1.7,0.6-3.7,1.7-5c2.6-3.2,5.7-6,8.4-9.1c5-6,11.7-7.7,18.7-4.5c1.7,0.8,3.2,2,4.8,3c1.9-2.2,3.5-4.2,5.3-6.3
		c1.4,0.9,2.4,1.6,3.4,2.3c1.2-1.7,3.8-4.1,3.4-4.7c-2.1-3.6,1.3-4.6,2.5-6.6c1-1.7,2.6-3.1,2.9-4.9c0.5-2.3,0.8-5.3-0.3-7
		c-1-1.4-4.3-1.9-6.4-1.5c-4.6,0.9-9,3.3-13.3-1c-1.7,9.9-1.9,10.1-7.1,9.8c0.4-1.3,1.1-2.5,1.1-3.7c0-1.2-0.7-2.5-1-3.7
		c-1.1,0.5-2.7,0.6-3.2,1.4c-1.7,3.2-3,6.7-4.7,10c-1.3,2.6-2.7,5.1-4.4,7.5c-2.3,3.3-4.9,6.5-7.3,9.7c-0.8,1.1-1.2,2.5-2.1,3.3
		c-1.7,1.6-3.8,2-4-1c-0.9-10.6-2.5-21.3,1.1-31.7c5.3-15.1,15.4-22.6,31.3-23.5c1.9-0.1,3.9-0.2,5.7-0.8c1-0.3,1.8-1.6,2.7-2.4
		c-0.8-0.7-1.6-2.1-2.5-2.1c-3.5-0.1-7,0.3-10.5,0.3c-1.7,0-3.5-0.5-5.2-0.8c0.8-1.7,1.2-4.2,2.6-5.1c3.6-2.3,7.7-3.7,11.5-5.7
		c1.7-0.8,4.2-1.8,4.5-3.1c1-4.8,4.7-4.8,8.1-5.2c2.6-0.3,5.2-0.3,7-0.4c1.5-3.6,2.6-6.3,3.8-9.1c-0.3,0-0.6-0.1-0.9-0.1
		c0.2-2.2,0.2-4.5,0.6-6.6c0.8-3.9,1.8-7.7-2.3-10.4c-3.1-2-8.6-0.5-11.6,2.9c-0.8,0.9-1.3,2-2.1,2.8c-0.7,0.7-1.6,1.9-2.3,1.8
		c-2.8-0.5-2.6,1.3-3.2,3.1c-1.1,3.2-2.6,6.3-4,9.4c-0.5-0.1-1-0.1-1.5-0.2c-0.9-1.6-1.9-3.2-2.7-4.8c-0.9-1.7-1.8-3.4-2.6-5.1
		c-0.5,0.2-1.1,0.4-1.6,0.6c0.5,1.8,0.7,3.7,1.4,5.4c2.5,6.2,0.3,13-6.1,17.3c-0.7-1.9-1.3-3.8-1.9-5.6c-2.4,14.7-11,25.8-19.8,37.5
		c-0.5-1.5-1-2.3-1-3.1c-0.4-12.7-0.9-25.4-0.9-38.1c0-5.8,2.2-10.9,6.3-15.2c2.7-2.8,4.9-5.9,7.2-9c2.9-3.9,5.6-8,8.5-11.9
		c2.4-3.3,5.5-4.6,9.6-4c4.8,0.6,9.7,1,14.6,1.3c1.6,0.1,3.3-0.5,4.9-0.7c0-0.6,0-1.2,0-1.8c-5.3-1.4-10.5-2.8-15.8-4.1
		c-0.1-0.5-0.2-1-0.3-1.5c2.1-1.1,4.1-3,6.3-3.3c4.3-0.6,8.8-0.3,13.2-0.7c1.6-0.1,3.3-0.8,4.5-1.8c1.7-1.4,2.7-3.6,4.5-4.8
		c4.5-2.9,4.9-5.6,0.4-9.3c-5.6,5.8-11.2,11.8-21,10c1.8-7.9,8.7-9.3,13.5-11.9c-0.3-2.3-1-3.9-0.6-5.3c1.5-5.5,0.7-7.4-4.7-9.6
		c-3.3-1.4-6.7-2.8-10.3-4.2c2.6-4.1,5.4-4.6,9-2.6c2.3,1.3,4.6,2.3,7,3.4c0.3-1.9,0.1-2.7-0.4-3.4c-1.6-2.1-5.1-4.7-4.7-6.1
		c0.8-2.4,4-4.1,6.1-6.1c0.2-0.2,0.4-0.4,0.7-0.6c2.7-2.3,5.3-5.1,3.2-8.7c-2-3.4-5.5-3.5-9-2.3c-2.8,1-5.7,1.9-8.5,2.9
		c-0.3-0.4-0.7-0.7-1-1.1c1.8-2.7,3.1-6,5.5-8.1c3.8-3.2,8.7-4.9,13.1-7.2c4-2.1,8.8-1.2,5.7-7.9
		C668.8,229.5,669.4,228.7,669.5,227.9z M541.8,312.2c-0.3-1.3-0.6-3.6,0-4c1.2-0.7,3.3-1,4.5-0.4c6.4,3.2,11.7,7.7,14.3,15.1
		C553.3,325.8,543.2,318.9,541.8,312.2z M563.7,365.6c-7-3.4-12.5-8.3-14.5-16.3c-0.3-1.2-0.3-3.1,0.4-3.6c1-0.7,2.7-0.4,4.1-0.6
		c0.1,0,0.3,0.1,0.4,0.2c7.5,4.9,12.3,11.9,16.1,21C567.3,366.1,565.2,366.4,563.7,365.6z M545.8,412.7c8.7-4.6,28.7,6.4,30.4,16.8
		C568.1,429.9,547.8,418.7,545.8,412.7z M551.7,465c6.1-3.4,24.2,4.9,26.5,12.5C571,480.4,556.7,473.1,551.7,465z M572.8,518.2
		c-2.1-0.5-4.5-0.5-6.2-1.6c-6.9-4.8-13.7-9.8-20.4-14.9c-0.7-0.5-0.7-2.1-1-3.1c1.1-0.2,2.3-0.9,3.2-0.6c9.1,3.2,17,8.2,23.6,15.2
		c0.9,1,1.2,2.5,1.7,3.8C573.4,517.5,573.1,517.8,572.8,518.2z M575.5,497.3c-0.5,3-1.6,5.9-2.8,9.9c-2.7-2.1-4.8-3.7-6.8-5.3
		c-3.2-2.5-2.7-5.3-0.5-8c2.1-2.6,7.2-3.2,9.1-0.9C575.3,494,575.7,496,575.5,497.3z M602.5,505.3c-0.7,11.9-2.1,23.7-3.2,36.7
		c-2.6-1.1-4.8-1.4-5.7-2.6c-4.3-6-8.3-12.1-12.3-18.3c-3.6-5.6-3.4-11.7-2.6-18c0.2-1.4,0.5-2.9,0.5-4.3c0.1-7.2,4.6-10.6,11.7-8.7
		C598,491.9,603,498,602.5,505.3z M655.5,507c-1.3,8.2-15.8,24.6-21.2,23.9C635.5,520.6,648.2,506.3,655.5,507z M653.8,468.7
		c1.3-0.1,3,0.4,4,1.2c0.4,0.3,0,2.6-0.7,3.4c-7.2,7.8-15.7,13.8-25.4,18c-0.3,0.1-0.8-0.1-1.6-0.2
		C631.9,483.1,646.6,469.3,653.8,468.7z M651.8,422c-2.2,10-14.1,17.6-21.9,14C631.5,430.4,645.7,421.3,651.8,422z M641.3,364.1
		c2.8-4.3,5.4-8.8,8.5-12.9c1.5-2,3.7-3.8,6-4.6c2.7-0.9,4.5,0.5,3.8,3.9c-1.5,7.5-13,18.5-22.1,19.9
		C639.1,367.8,640.2,365.9,641.3,364.1z M626.5,212c1.2,2.2,2.7,4.3,3.4,6.6c0.7,1.9,0.6,4.1,0.7,6.1c0.3,4.8-1.3,6.8-6.6,8.6
		c-0.4-2.8-0.4-5.6-1.2-8.2c-0.7-2.4-2.1-4.5-3.6-7.6c-0.1,0.2,0.1-0.9,0.9-1.5C622.1,214.6,624.4,213.3,626.5,212z M621,202.9
		c0.6,0.9,0.8,2.9,0.2,3.7c-4.9,6.4-10,12.7-15,18.9c-0.3,0.4-1.1,0.4-2.8,0.9c0.2-3.1,0.4-5.5,0.4-8c0-6,0.3-12.1-0.2-18.1
		c-0.5-7-0.9-14,2.3-20.4c1.5-2.9,3.8-5.3,5.8-7.9c0.6,0.1,1.3,0.2,1.9,0.3c0.8,3,2,5.9,2.2,8.9C616.2,188.8,616.3,196.3,621,202.9z
		 M614.3,242.2c-2.5,2-3.8,5.2-6,7.5c-1,1.1-2.8,1.3-4.2,2c-0.6-1.4-1.3-2.8-1.7-4.2c-0.3-1.1-0.1-2.4-0.1-3.5
		c0-10.8,3.5-15.6,14-19.7C620.5,232.4,619.1,238.4,614.3,242.2z M616.3,140.4c4.4,7.1,4.1,13.3-1.3,20c-2,2.5-4.5,4.7-7,6.8
		c-1.8,1.5-3.9,1.3-4.5-1.2c-2.6-11-5-22.1-7.5-33.4C605.5,130.8,612.2,133.6,616.3,140.4z M587.4,118.2c0.9,1.8,2.2,3.3,2.5,5.1
		c2.5,13.9,4.8,27.8,7.2,42C581.2,154.4,571.5,134.6,587.4,118.2z M576.3,204.5c-1.3-2-2.3-4.5-2.6-6.9c-0.5-3.9,2.4-6.2,5.5-7.1
		c1.7-0.5,4.7,0.5,6.1,1.9c5.7,5.5,11.5,11.2,11.7,20.7C588.8,212.5,581.1,211.7,576.3,204.5z M596.8,192.2
		c-1.3,3.5-3.5,1.7-5.1,0.2c-4-3.9-7.9-7.9-12.3-12.5c-1,1.8-1.7,2.9-2.3,4c-2.9,5.2-8.4,5.5-10.9,0.2c-1.9-4.2-2.6-9-3.5-13.6
		c-0.4-2.3-0.2-4.7,0-7.1c0.4-3.3-0.3-7.4,4-8.5c5-1.4,10.3-2.6,14.6,1.7c2.2,2.2,3.8,4.9,5.8,7.2c3.5,4,7.3,7.6,10.6,11.7
		c1.3,1.5,2.4,3.9,2.2,5.7C599.3,185,598.1,188.7,596.8,192.2z M598.8,302.3c-0.3-0.8,0-1.8,0-2.6c0.8-8.7,1.4-17.3,2.3-26
		c0.2-1.5,0.3-3,0.5-4.5c0.2-1.4,0.3-2.9,0.5-4.3c0.3-2.6,2.1-5.4,4-7.4c3.1-3.3,6.8-6.2,10.4-8.9c5.1-3.7,8.4-2.4,10.2,3.5
		c0.9,3,2,5.9,3.2,8.7c1.4,3.2,1.3,6.2-0.6,9.2c-6.6,10.8-13.2,21.6-19.8,32.4c-0.6,1-1.2,2.1-2.1,2.8c-1.8,1.6-3.7,2.9-5.6,4.4
		C600.9,307.2,599.7,304.8,598.8,302.3z M650.6,284.8c3.4,1.3,3.8,3.7,1.2,6.6c-2,2.3-3.8,4.9-5.7,7.3c-0.5-0.4-1-0.8-1.5-1.2
		c-0.6-1.3-1.2-2.6-2.4-5.2c-1,3.3-1.4,5.6-2.4,7.7c-2.3,5-4.7,10.1-7.3,14.9c-0.6,1.1-2.6,1.5-4,2.3c-0.5-1.3-1.2-2.5-1.6-3.8
		c-0.6-2.5-1.1-5.1-1.6-7.7c-0.8,0.1-1.6,0.2-2.5,0.2c-0.1,3.2-0.6,6.5-0.2,9.7c0.8,5.6-0.2,10.2-4.3,14.6c-3.3,3.5-5.4,8.1-8.2,12
		c-1.3,1.8-3.2,3.3-4.8,4.9c-0.4-0.1-0.9-0.3-1.3-0.4c-0.2-3.3-0.2-6.6-0.6-9.8c-1.4-11.4,1.3-21.3,8.6-30.5
		c5.1-6.4,8.7-14.1,12.8-21.3c2.7-4.7,6.4-6.3,11.5-4.8C641.1,281.7,646,283,650.6,284.8z M653.1,256.2c1-0.7,3.1,0.1,4.8,0.3
		c-0.5,1.5-0.5,3.6-1.6,4.6c-5,4.3-10.3,8.3-15.5,12.4c-1,0.8-2.4,1-3.8,1.5c-1.1-0.5-2.5-0.8-3-1.6c-0.4-0.7,0-2.5,0.6-3
		C640.6,265.5,646.8,260.7,653.1,256.2z M645.4,243.1c-1.7,5.3-4.6,10.1-7.1,15.1c-0.7,1.4-1.8,2.6-3,4.2c-5.2-5.8-5.8-10.4-3-16.7
		c0.6-1.4,0.4-3.2,0.6-4.8c-1.5,0.3-3,0.6-4.5,1c-2.5,0.6-4.9,1.4-7.4,2.1c-0.2-0.6-0.5-1.1-0.7-1.7c1.9-1.4,3.9-2.8,5.8-4.3
		c4.1-3.2,7.9-6.6,12.1-9.7c4.2-3.1,7-2.2,7.9,2.9C646.7,235.1,646.6,239.4,645.4,243.1z M657.3,236c-1.2,0.3-2.8-1.4-3.6-1.8
		c-0.1-4.7,5.3-11.9,8.4-12.7c2.7-0.6,3.5,0.9,3.4,3.2C665.5,228.2,660.7,235.2,657.3,236z"/>
	<path fill="#C49A6C" d="M357.6,425.2c-10.9,0.8-20.7,4.6-29.6,10.8c-14.2,10-24,23.5-30.1,39.6c-0.7,2-1.7,3.8-2.5,5.7
		c-1-8.5,1.2-15.9,5.4-22.9c8.7-14.6,15.6-29.9,18.8-46.7c1.5-7.9,2.5-15.9,3.7-23.8c-0.5-0.2-1.1-0.5-1.6-0.7
		c-1.6,1.2-3.2,2.3-4.7,3.6c-11.1,10.5-15.6,24.1-18.1,38.6c-1.1,6.2-2,12.3-3,18.5c-1.3-0.9-1.8-1.8-2-2.7
		c-1.7-13.2-3.6-26.4-5-39.6c-0.6-5.9,2.1-11.1,6.4-15c2.9-2.6,6.6-4.4,10.1-6.3c15.1-7.9,26.5-20.3,38.3-32c2.1-2.1,2-4.4-1.6-4.9
		c-2.8-0.4-5.6-0.9-8.4-0.6c-20.5,1.8-38.2,16.7-43.8,36.7c-0.5,1.6-0.9,3.2-1.4,4.8c-0.4,0-0.7,0-1.1,0c-0.4-1.8-0.9-3.6-1.1-5.4
		c-1-13.6-2-27.1-2.8-40.7c-0.4-6.5,2.5-10.5,8.7-12.7c2.9-1,6.2-1.2,8.9-2.6c2.1-1.1,3.4-3.5,5-5.4c-1.8-0.8-3.7-1.6-5.5-2.5
		c-1-0.5-1.9-1-2.8-1.5c0.6-1.1,0.9-2.7,1.9-3.2c2.2-1.1,4.9-1.2,7.1-2.4c2.4-1.3,4.8-3.2,6.3-5.4c0.4-0.6-2.4-3.4-4-5.5
		c1.9-1.4,4.5-3,6.8-5c1-0.8,2.1-2.8,1.7-3.5c-0.6-1.2-2.4-2.5-3.7-2.5c-2.9,0.1-6,0.6-8.5,1.8c-2.6,1.2-4.5,4.7-7,5.1
		c-2.6,0.4-5.5-1.8-8-2.8c0.9,6,2.9,11.8,2.5,17.5c-0.4,6.2-5,10.9-9.7,15.3c-2.6-6.3-3.2-21.9-1.4-30c1.3-5.8,3-7,8.8-8.4
		c3-0.7,5.9-2.4,8.5-4.1c1-0.7,1.5-3.2,1-4.3c-0.4-0.9-2.6-1.1-4-1.6c-1.3-0.4-2.6-0.7-3.9-1c0.5-1.3,0.7-3,1.7-3.9
		c2-1.9,5.1-2.9,6.6-5.1c1.7-2.5,2.2-5.8,2.9-8.8c0.1-0.6-1.7-2.3-2-2.2c-2.6,1.1-5.6,2-7.4,4c-2.2,2.5-3.1,6-4.8,8.9
		c-2.6,4.5-5.4,8.9-8.8,14.3c-0.9-2.8-1.9-4.4-1.8-5.9c0.1-5-0.5-10.3,1.2-14.7c1-2.6,5.9-3.6,8.8-5.6c1.4-1,2.4-2.7,4-4.5
		c-3.1-1-4.9-1.6-7.4-2.3c1.9-2.5,3.4-4.7,5.1-6.7c3.6-4.2,4.8-9.2,4.5-14.4c-0.1-1.5-1.4-3.4-2.7-4c-0.8-0.4-3.1,1-3.8,2.1
		c-1.5,2.3-2.5,4.9-3.5,7.6c-1.4,3.9-2.3,7.9-3.8,11.8c-0.6,1.6-2,2.8-3.1,4.2c-0.4-0.2-0.8-0.4-1.2-0.6c-0.8-5.7-0.9-11.3,2.4-16.5
		c2.8-4.5,5.9-8.9,8.5-13.5c1-1.9,1-4.4,1.4-6.6c-0.5-0.1-0.9-0.3-1.4-0.5c-3.8,3.3-7.5,6.7-11.6,10.3c-1.9-3.7-0.5-6,1.3-8.3
		c2.2-2.6,4.6-5.1,6.4-7.9c2.2-3.6,2.4-7.6-0.1-12.4c-3.9,4.6-7.2,8.6-11,13c-2.2-10.9,7-15.8,11.2-23.3c-4.3-0.3-4.3-0.2-8.1,4.1
		c-0.7,0.8-2.1,1-3.2,1.4c-0.1-1.2-0.7-2.5-0.3-3.5c0.8-2,2.1-3.9,3.2-5.8c3.1-5.5,2.5-11.2,1.2-17.1c-5.1,7-3,17-9.8,23.7
		c-2.9-4.4-5.8-8.6-8.6-12.9c-0.4,0.2-0.8,0.4-1.2,0.6c0,0.8-0.2,1.7,0,2.4c2.4,5.8,5,11.6,7.4,17.4c1.1,2.8,2,5.6,3,8.5
		c-0.6,0.3-1.2,0.6-1.7,0.8c-2.8-3.4-5.6-6.8-8.4-10.2c-0.5,0.3-0.9,0.6-1.4,0.8c0.6,2.5,0.7,5.4,2,7.5c2.8,4.5,6,8.8,9.3,12.8
		c2.9,3.5,4.3,6.9,2.2,11.7c-6.1-4.2-4.9-14.8-15.3-15c1.1,3.5,1.6,7,3.3,9.7c2.8,4.6,6.5,8.8,9.6,13.2c1.5,2.2,2.7,4.6,4.2,7.1
		c-1.3,0.4-1.7,0.7-2.1,0.7c-0.6,0-1.2-0.1-1.7-0.2c-5.8-1.8-10.3-4.9-12.1-11.2c-0.7-2.5-1.9-4.8-3.2-8.1
		c-3.5,7.2-2.2,15.2,2.9,19.2c3,2.3,6.6,3.9,10.1,5.4c6,2.6,8.7,8.5,6.4,15.4c-5.7-3.8-7.3-12.4-15.8-13.2c0.2,1.9,0.2,3.7,0.6,5.3
		c1.6,6.3,5.9,10.5,11.4,13.5c3.6,1.9,5.7,4.5,6.2,8.5c0.5,4.1,0.9,8.2,1.3,12.3c0.1,1-0.5,2.1-0.9,3.7c-6.9-5.3-2.7-14.6-8.7-20
		c-1.3,1.9-2.3,3.3-3.4,4.8c-4.9-4.2-7.6-10.7-15-11.6c-2.7,12.7,7.9,16.3,15.1,22.6c-1.7,0.8-2.9,1.2-3.7,1.9c-1.1,0.8-2.6,2-2.6,3
		c0.1,1.1,1.4,2.7,2.6,3.2c2.3,0.9,4.8,1.2,7.3,1.6c3.6,0.5,6.9,1.4,8.2,5.1c2.7,7.4,3,15.2,2.9,23.8c-5.5-3.2-7.6-7.4-8.2-12.6
		c-0.4-3.1-0.5-6.2-1-9.3c-0.2-1-1.1-2-2-2.6c-0.3-0.2-1.9,0.9-2.2,1.6c-1.3,3.4-4,3.1-6.7,2.6c-4.3-0.8-8.1-2.5-10.8-6.3
		c-0.6-0.8-2.2-1-3.4-1.4c-0.2,1.2-1,2.7-0.6,3.5c1.8,3.1,3.3,7.3,6.1,8.7c7.2,3.5,12.6,8.5,17.6,14.5c2.1,2.5,5.4,4.1,8,6.2
		c1.5,1.3,3.8,2.7,4,4.4c1,7.2,1.4,14.4,2.2,22.6c-8.6-3.7-12.1-9.1-12.2-17.1c0-1.5-1.5-3-2.4-4.5c-1.2,1.3-2.4,2.6-3.5,4
		c-0.8,1-1.6,2.1-2.4,3.1c-1.4-1.2-3.5-2-4-3.5c-0.8-2.3-0.4-5-1-7.4c-0.3-1.4-1.6-2.5-2.4-3.8c-1,0.9-2.5,1.5-2.9,2.6
		c-1.4,3.3-3.3,2.8-5.4,1c-1.5-1.4-2.8-3.3-4.6-4.1c-2.1-1-5.3-2.4-5.7,1.6c-0.3,3.4-2.5,4.4-4.8,5.7c-2.2,1.2-4.2,2.7-7.2,4.6
		c8.6,3.8,16.2-0.4,23.6,1.6c-1.1,1.2-2.7,1.6-3.6,2.6c-1.2,1.4-2.8,3.3-2.7,4.8c0.1,1.1,2.6,2.8,4.1,2.9c3,0.3,6.2-0.2,9.2-0.6
		c1.7-0.2,3.4-1.1,5.2-1.2c1-0.1,2.1,0.8,3.2,1.3c-0.6,0.9-1,2.1-1.8,2.6c-1.7,1.1-4,1.5-5.5,2.8c-1.3,1.2-2.8,4-2.3,4.8
		c1,1.5,3.4,2.6,5.2,2.7c1.9,0,3.8-1.4,5.7-2.3c6.3-2.9,10.8-2.2,14.9,3.3c2,2.7,3.7,6.2,4.2,9.5c1.1,8,1.4,16.2,1.9,24.3
		c0.1,1.5-0.2,3-0.3,4.4c-6.8-11.1-14.3-20.9-25.8-26.7c-11.4-5.7-23.4-7.3-37.3-3.7c2.6,2.6,4.1,4.6,6,6
		c8.9,6.7,17.5,13.7,26.8,19.7c6,3.8,12.9,6.5,19.8,8.5c8.9,2.6,13.6,6.4,14.5,15.6c1.3,12.8,1.9,25.6,2.6,38.5
		c0.1,2.5-0.7,5.1-1.1,7.6c-0.5,0.3-1,0.5-1.5,0.8c-8.5-19.9-21.8-33.3-44.3-35.1c1.3,0.1,7,9.5,8.3,10.9c3.3,3.9,6.9,7.5,10.6,11
		c5.9,5.6,12.2,10.7,18,16.3c4.5,4.3,8.6,6.5,8.5,13.4c-0.2,11.5-0.6,23.1-1.1,34.6c-0.1,3.5-0.6,7-0.9,10.4c-3-5.1-5-10.4-7.3-15.6
		c-5-11.1-11-21.7-21.2-29c-2.3-1.7-5.2-2.5-7.9-3.7c-0.4,0.4-0.7,0.8-1.1,1.2c1.1,4.2,1.9,8.6,3.3,12.7c4.6,13.7,13.5,24.8,24,34.3
		c11,10,10.8,21.8,8.2,34.8c-8.2-19.6-19.5-35.5-44-37.7c1.2,2.4,1.7,3.9,2.6,5.2c8.7,13.3,20.2,23.8,32.7,33.4
		c6.6,5,10.4,11,9.8,19.6c-0.2,2.2-0.9,5.9,2.8,5.7c1.2-0.1,2.1-3.8,3.1-6c0.2-0.3-0.1-0.8-0.1-1.3c-0.7-6.4,0.7-12.1,6.1-16.2
		c3.1-2.3,6.3-4.4,9.5-6.5c10.3-6.7,20.7-13.2,28.6-22.8c1.7-2.1,2.7-4.7,4.5-7.7c-9.3-0.9-16.9,1.3-23.7,5.7
		c-6.5,4.3-12.7,9.1-19.4,13.9c12.1-14.1,24.2-28,35.5-41.1c0.1-1.6,0-2.5,0.3-3.3c1.1-2.6,2.7-5,3.3-7.7c1.1-4.5,3.8-9,0.7-14.3
		c-1.7,1-3.1,1.7-4.4,2.6c-9.8,6.6-17.1,15.4-22.2,26c-4.3,8.9-8.1,18-12.4,27c-1.2,2.5-3,4.7-4.5,7c-0.6-0.2-1.2-0.4-1.9-0.6
		c1-7.5,1.4-15.2,3.2-22.5c2.7-10.9,10.6-18.4,18.4-25.9c10-9.7,19.4-19.8,29-29.9c0.9-1,1.9-3.1,1.5-3.8c-0.7-1.1-2.8-2.1-4-1.9
		c-5,1.1-10.3,1.8-14.6,4.2c-14.4,7.7-24.2,19.6-29.1,35.3c-0.4,1.2-1,2.3-1.5,3.4c-0.5-0.2-1.1-0.3-1.6-0.5
		c1.2-4.7,1.8-9.8,3.8-14.1c6.1-12.9,15.2-23.2,26.6-32.1c12.7-9.9,24.4-21.1,36.4-31.8c1.3-1.2,2.1-2.9,3.7-5.1
		C360.1,425.5,358.9,425.1,357.6,425.2z"/>
	<path fill="#C49A6C" d="M267.9,478.5C267.9,478.5,267.9,478.5,267.9,478.5C267.9,478.5,267.9,478.5,267.9,478.5
		C267.9,478.5,267.9,478.5,267.9,478.5z"/>
	<path fill="#C49A6C" d="M527.3,382.3c-2.8,0.5-5.6,0.8-8.9,1.3c-0.1,0.7-0.3,2.5-0.9,4.1c-1.3,3.6-3.3,6.5-7.6,7.2
		c-4.1,0.7-8.2,2-12.2,3c-2.2,0.6-4.4,1.3-6.6,1.9c-0.3-0.4-0.6-0.8-0.9-1.2c3.1-9,7.6-17,16.9-21.8c-0.3-0.3-0.7-0.5-1-0.8
		c-2.4,0-4.7,0-6.9,0c-1.4,1.8-2.9,3.8-4.1,5.3c-2.6-3.9-4.7-7-7.1-10.6c0.5,6.3,0.8,11.5,1.2,16.7c-0.4,0.1-0.8,0.2-1.2,0.2
		c-0.8-1-1.5-1.9-2.5-3.2c-0.7,1.8-1.2,3.3-1.8,4.8c-1.2-0.6-2.1-1-3.4-1.6c-0.3,3.3-1.2,6.1-0.8,8.8c0.6,4.1-1.4,5.6-4.5,7.4
		c-7.4,4.2-14.5,9-21.8,13.5c-1.1,0.7-2.1,1.4-3.8,2.6c-0.5-2.3-1-4-1.1-5.7c-0.8-14.2-1.4-28.4-2.1-42.6c-0.2-4.1,1.6-7.2,4.7-9.6
		c6-4.8,12-9.6,18.3-14.1c6.4-4.5,12.3-9.5,15.5-16.7c2.1-4.6,5.1-5.6,9.5-4.9c1.6,0.3,3.3,0.7,4.8,0.5c4.6-0.7,9.3-1.4,13.6-2.8
		c1.8-0.6,2.9-3.3,4.9-5.6c-3.3-0.5-5.1-0.8-7.4-1.1c1.2-2,2.1-3.6,3.7-6.1c-4,0.9-6.9,1.5-10.2,2.2c1.2-3.2,2.3-5.9,3.6-9.1
		c-3.7,0.7-6.6,1.3-9.9,1.9c0.8-3.5,1.5-6.2,2.1-8.8c-0.8-0.6-1.6-1.1-2.4-1.7c-1.4,2.5-2.8,5.1-4.1,7.6c-0.4-0.4-0.8-0.7-1.2-1.1
		c-0.4-2.4-0.8-4.8-1.2-7.2c-0.7-0.1-1.4-0.1-2-0.2c-1.6,5.5-3.9,11-4.6,16.6c-0.9,6.4-3.8,10.4-9.3,13.5
		c-11.4,6.3-20.2,15.3-25.9,27.2c-0.7,1.4-1.7,2.6-3.2,4.8c-0.6-2.7-1.1-4.2-1.2-5.7c-2.4-23.5-3.2-46.9,0-70.4
		c1.4-9.8,2.8-19.6,4.4-29.4c0.5-2.9,2-5.5,5.4-5.5c12.2,0,25-2.9,35.6,6.7c1.1,1,3.2,0.9,4.8,1.4c0.2-0.5,0.5-1,0.7-1.5
		c-1.4-1.5-2.8-3.3-4.4-4.6c-7.5-6.3-15.8-9.7-25.8-7.9c-1.7,0.3-3.5-0.1-5.6-0.2c1.6-4.9,5.1-6.6,8.6-7.5
		c9.2-2.5,15.9-8.3,21.6-15.5c1.5-1.9,5.2-4.1,2.5-6.5c-2.8-2.5-4.8,1.3-6.7,3.1c-3.9,3.6-7.5,7.6-11.7,10.7c-2.3,1.7-5.7,2-9,3.1
		c0.5-8.6,6.6-22.8,12.6-30.7c0.5-0.6,0.7-1.4,0.8-2.3c0.1-0.5,0.2-1,0.3-1.5v0c-0.2,0-0.3,0-0.5,0c-1.2,0-2.5-0.1-3.5,0.4
		c-6.3,3.1-9.5,8.7-11.2,15.2c-1.3,5.1-2.3,10.4-3.7,15.5c-0.4,1.4-1.7,2.5-2.5,3.8c-0.6-0.1-1.1-0.2-1.7-0.3
		c4.7-14.4-3.6-26-6.9-38.9c-1.2,1.6-2.2,3.3-1.9,4.7c1.3,6.1,3.2,12.2,4.5,18.3c0.8,3.6,1.7,7.4,1.5,11.1c-0.1,3.2-2.6,4.3-5.4,2.4
		c-3.5-2.4-7-5-10.1-7.8c-7.2-6.4-15-10.9-25-11c-1.3,0-3.2-1.1-3.8-2.2c-2.2-3.8-4.1-7.9-6-11.8c-1.3-2.6-0.6-3.9,2.2-4.9
		c3.4-1.3,7.1-2.8,9.6-5.2c5.2-5,11.2-6.1,17.9-5.8c3.5,0.2,7.1-0.1,10.6-0.4c0.8-0.1,1.6-1,2.4-1.5c-0.7-0.9-1.2-1.9-2-2.5
		c-0.8-0.6-1.9-0.8-2.9-1c-9.2-1.9-17.8-1.5-25.5,5.1c-2.4,2.1-6.5,4.9-8.9,1.8c-2.6-3.4,1.4-6.3,4.1-8c8.7-5.4,11.8-14.1,14.7-23
		c0.4-1.3-0.2-2.8-0.3-5.1c-5.5,3.5-7.3,8.4-8.5,13.1c-2.1,8.3-8.8,11.2-15.6,14.8c2.9-12.3,5.4-24.5,5.2-38
		c-5.1,2.8-6.3,6.7-6.8,10.8c-1.1,7.7-1.7,15.5-2.8,23.3c-0.2,1.8-1.6,3.4-2.6,5.4c-2.3-8.2-3.6-15.8-6.6-22.7
		c-3-6.9-5.8-14.3-11.6-19.9c-0.6,2.1-1.2,4.3-0.5,6.1c2,5.2,4.3,10.3,6.6,15.3c2.1,4.7,4.5,9.3,6.4,14c0.6,1.6,0.1,3.7,0.1,5.6
		c-0.5,0.2-1,0.3-1.5,0.5c-11.6-7.2-20.2-17.8-29.6-27.7c-0.1,2.9,0,5.7,1.3,7.6c3.4,4.9,7.3,9.6,11.3,14.1c2.5,2.9,5.8,5.1,8.4,7.8
		c1,1,1.3,2.7,1.9,4.1c-1.5,0.4-3.2,1.4-4.5,1.1c-4.1-1.1-8.1-2.5-12.1-4.1c-5.7-2.3-11.4-3.1-17.1-0.3c-1.2,0.6-1.9,2.3-2.8,3.4
		c1.3,0.4,2.7,1.5,3.9,1.2c12.8-3,22.9,6.9,36.2,6.4c-5.5,6.3-11.5,8.9-17.8,11.1c-4.6,1.6-9.2,3.2-13.6,5.2
		c-1.2,0.5-1.7,2.4-2.6,3.7c1.4,0.5,2.8,1.5,4.2,1.5c1.6,0.1,3.3-0.3,4.7-0.9c6.4-2.6,12.8-5.4,19.2-8c3.7-1.5,7.4-3,11.2-3.9
		c4.4-1.1,8.4,0.4,10.7,4.4c3.5,6.1,7.3,12.2,10,18.7c3.5,8.4,6.1,17.3,9,25.9c1.9,5.4,1.5,6-3.8,8.1c-1.1,0.4-2,1.4-3,2.1
		c1,0.6,2,1.4,3.1,1.7c2.9,0.9,6.5,0.4,7.3,4.5c3,13.7,5.9,27.3,8.9,41c-0.5,0.3-1,0.5-1.5,0.8c-0.9-0.4-1.9-0.7-2.6-1.3
		c-11-9.2-23.9-14.1-37.8-16.3c-7.2-1.1-11.1-5-13.1-11.9c-1.3-4.3-4.1-8.1-6.5-12c-0.4-0.7-2-0.7-3-1.1c-0.3,1-0.9,2.1-0.8,3.1
		c0.2,1.7,0.8,3.3,1.4,5.4c-3.1,0-5.5,0-8.4,0c1.6,2.2,2.7,3.7,4.3,6c-1.6-0.3-2.2-0.5-2.7-0.5c-1.3,0.1-2.7,0.3-4,0.5
		c0.4,1.3,0.8,2.7,1.4,3.9c0.6,1.2,1.4,2.4,2.6,4.4c-3.8-0.2-6.6-0.4-9.3-0.6c-0.1,0.4-0.3,0.7-0.4,1.1c1.6,1.2,3.2,2.5,4.9,3.8
		c-1.5,1-2.6,1.8-4.8,3.3c2.8,1.2,4.7,2.6,6.6,2.6c5,0,9.9-0.9,14.9-1.1c3.4-0.1,7.7-0.7,10.1,1.1c10.8,8.2,22.8,12.8,36.1,14.8
		c6.6,1,11.8,4.8,14.4,11.2c1.4,3.4,2.6,6.9,3.3,10.5c5.6,26.6,7.2,53.6,7.7,80.7c0,1.8-0.5,3.6-0.7,5.5c-1.7-0.7-2.6-1.6-3-2.7
		c-2.8-7.4-7.7-13.3-13.4-18.5c-3-2.8-3.6-5.3-1.2-8.8c3.8-5.5,5.9-11.5,5.1-18.4c-0.7-6.1-6.5-14-11.7-15c2.1,4.1,4.1,7.8,5.8,11.7
		c2.5,5.8,1.6,11-2.2,14.7c-2,2-3.8,2.1-5.5-0.3c-1.4-1.9-2.8-3.8-4.2-5.7c-0.4,0.2-0.9,0.4-1.3,0.6c1.5,5.1,3,10.2,4.5,15.5
		c-4.3,1.5-7.2-0.4-9.5-3.2c-5-6.2-10.1-12.4-14.8-18.8c-2.2-3-3.6-6.6-5.6-10.5c-2.6,1.8-6.5,4.7-11.1-0.2
		c-0.1,0.6-0.2,1.1-0.3,1.7c1.2,1.3,2.3,2.7,3.5,4c-2,4.7,0.7,11.3,5.5,13.7c1,0.5,2.3,1,2.9,1.9c2.2,3.3,3.8,6.9,6.1,10.1
		c2.7,3.7,6.5,6,11.2,6.3c1.5,0.1,3,0.6,5.3,1.1c-5.3,8-14.3,7.1-22.2,10.7c2.1,1.4,3.4,2.2,4.4,2.8c-0.9,2.3-1.5,4-2.4,6.4
		c-2.6-1.3-5.8-1.9-7.6-3.8c-3.5-3.8-3.1-4.1-6.5-0.6c-2.1-0.3-4-0.5-5.9-0.7c-0.1,0.5-0.3,1.1-0.4,1.6c4.4,2.6,6.5,9,12.9,7.1
		c5.9,5.7,12.9,8.6,20.5,10.3c-0.1,0.5-0.2,1-0.3,1.5c-2.4,1-4.8,2-7.3,3.1c1.5,3.6,4.3,4.5,7.3,4.5c2.7,0,5.4-0.8,8-0.5
		c2.3,0.3,4.4,1.5,6.7,2.3c-0.1,0.5-0.2,1-0.3,1.5c-3.1,1.7-6.2,3.2-9.2,5c-4.6,2.9-5.5,5.1-4.3,7c4.4-1.6,8.4-3.4,12.6-4.5
		c2.8-0.7,5.9-0.5,8.8-0.7c4.1-0.3,7.1,1.4,9.7,4.4c4.1,4.8,3.8,7.1-2.3,9.5c1.9,1.9,3.3,4.2,5.3,5.3c6.9,3.8,6.7,9.8,5.1,16.1
		c-0.3,1.3-1.7,2.4-2.6,3.6c-1.4-1.1-3-2.1-4-3.5c-0.8-1.1-0.7-2.9-1.2-4.2c-1.1-2.9-2.9-5.1-6.5-5.1c-1.9,5.5,1.1,9.1,4.3,12.6
		c3.2,3.5,5.8,7.3,6.5,11.4c-5.8,3.4,0.2,7.7-1.8,10.8c-2.7-1.1-5.4-2.3-8.1-3.5c-0.2,0.5-0.5,0.9-0.7,1.4c1.3,1.1,2.6,2.4,4.1,3.1
		c4.9,2.3,6.2,6.3,6.1,11.2c-0.1,6.2,0,12.4-0.1,18.6c0,1.2-0.4,2.5-0.6,4c-1.2-0.6-1.9-0.8-2.4-1.2c-5.7-5.2-11.4-10.3-16.8-15.7
		c-2-2-3.6-4.7-4.4-7.4c-1.2-4.3-1.6-8.9-2.4-13.4c-0.2,0-0.3,0-0.5-0.1c-0.5,4-1,7.9-1.6,11.9c-7.7-0.6-22.4-11.3-23.3-16.3
		c-2.8-1.3-5.1-2.4-7.6-3.6c-1.3,5.6-5.4,0.5-8.8,2.5c3.8,2.3,7.6,4.5,11,6.6c-1.5,1.6-3.9,3.2-3.6,4c0.5,1.6,2.4,2.9,3.8,4.2
		c1.2,1.1,2.8,1.8,3.7,3c4.5,6,10.2,6.1,16.6,4.1c1.1-0.3,2.5,0.5,3.8,0.9c-0.1,0.5-0.2,1-0.4,1.5c-1.7,0.2-3.6,0.1-5.1,0.8
		c-1.6,0.7-2.8,2.2-4.1,3.3c1.4,1.1,2.6,2.9,4.1,3.1c2.3,0.3,5.2,0.3,7.2-0.8c4-2.1,7.4-1.6,10.8,0.7c2.2,1.5,4.5,3,6.3,4.9
		c7.3,7.2,14.6,14.4,13.9,26.1c-0.5,8.3-0.3,16.6-0.5,24.8c-0.1,4.1-0.5,8.2-0.7,12.4c-0.1,3,0,6.2,3.8,6.9c3.9,0.8,5.5-1.8,5.7-5
		c0.2-3.1-0.5-6.1-0.4-9.2c0.1-5.6,0.8-11.1,0.7-16.6c-0.2-6.9,4.6-10.9,9.2-13.6c6.1-3.4,12.1-7.4,19.5-8.4c3-0.4,5.8-3.4,8.6-5.2
		c2.4-1.6,4.7-3.6,7.2-5.1c3.6-2.1,5.7-5.6,4.9-10.3c-6.4,10.4-15.8,9.9-25.7,8.4c3.6-4.4,7.9-7.9,11.7-11.9c3.5-3.7,7.7-5.4,12.5-7
		c5.1-1.7,9.7-4.9,14.4-7.5c0.2-0.1,0-0.8-0.1-1.9c-2.2,0.4-4.3,0.9-6.4,1.1c-2,0.2-4.1,0.7-5.9,0.1c-5.1-1.8-8.8-0.8-11.9,3.5
		c-1.1,1.6-2.4,3-3.4,4.3c-1.7-1.8-2.9-3.2-4.1-4.5c-1.4,1.6-3,3-4.2,4.8c-0.7,1-1,2.4-1.5,3.7c-1.3,3.5-2.7,7-4,10.5
		c-0.6,0-1.2,0-1.8,0c-0.2-1.7-0.3-3.4-0.6-5.1c-0.2-1.4-0.5-2.7-0.6-3.2c-2.8,1.6-4.8,2.5-6.4,3.8c-0.6,0.5-1,2.3-0.6,3.1
		c0.8,1.6,2.2,2.7,3.2,4.2c3.1,4.8,3.3,8.3-0.2,11.5c-4.4,4-9.4,7.3-14.5,11.2c-0.2-1.1-0.4-1.6-0.4-2.2c0.5-13.7,0.7-27.5,1.7-41.2
		c0.3-3.6,2.1-7.6,4.5-10.3c4.6-5.1,9.7-10,15.3-13.9c4.9-3.5,9.4-7.1,12.4-12.4c1.8-3.1,4.4-4.6,7.9-5c2.5-0.3,5.2-0.5,7.3-1.7
		c2.9-1.7,5.2-1.5,7.7,0.3c2.5,1.8,4.9,1.6,7.2-0.6c1.1-1,2.4-1.7,3.5-2.7c0.6-0.5,1.2-1.1,1.7-1.7s1.1-1.2,1.7-1.8
		c-1.7,0-3.4,0.1-5.1,0.1c-0.2,0-0.5-0.1-0.8-0.2c0.1-0.4,0.2-0.7,0.3-1.1c1.1-3.7,3.6-7.7,6.4-10.2c0.4-0.4,0.8-0.7,1.2-1
		c1.2-0.9,2.4-1.5,3.5-1.7c-1.6,2.8-3,5.3-4.4,7.8c0.2,0.4,0.5,0.8,0.7,1.3c1.7-0.8,3.8-1.2,5.1-2.3c3.1-2.7,3.6-6,2.7-10.3
		c-1.2-5.9-0.5-6.1-4.3-4.6c-2.9-1.1-4.8-1.9-6.8-2.6c-0.1,2.1-0.2,4.3-0.4,6.4c-0.1,1.5,0.2,3.4-0.5,4.5c-2.6,3.8-5.5,7.4-8.5,10.8
		c-0.7,0.7-3.1,1.1-3.6,0.6c-3.1-3.4-4.6-1.5-6.3,1.3c-2,3.3-5,4.2-9.4,3.4c1.9-8.5,3.8-16.8,5.8-25.9c-1.9,1.7-3.3,2.9-4.8,4.2
		c-4-2.6-4.6-8.8-11.1-10c3.1,7.5,5.9,14.3,8.9,21.6c-3,0-4.8-0.6-6,0.1c-2.9,1.7-4.1,7.4-2.9,10.8c1.6,4.3-0.3,9.4-4.9,12.3
		c-0.2-2.3-0.4-4.5-0.6-6.7c-0.4-0.1-0.7-0.1-1.1-0.2c-2,5.1-1.1,11.4-6.8,14.9c-4.9,3-9.3,6.8-14.7,10.8c-0.1-2.8-0.3-4.5-0.3-6.2
		c0.3-15.8,0.5-31.7,0.9-47.5c0.2-9.7,0.3-9.7,9.5-12.6c5.4-1.7,10.3-7.3,10.8-13.6c-5.6,2.9-10.5,5.4-15.3,7.9
		c-0.2-0.6-0.5-1-0.4-1.1c4.7-6.5,10.5-11.6,18.3-13.7c1.7-0.5,4,0.7,5.9,1.4c3.2,1.1,6.2,2.9,9.5,3.6c2.9,0.6,7.5,2.1,8.2-2.1
		c0.6-3.8-4-4.5-7-5.3c-2.9-0.8-5.9-1.1-8.8-1.6c5-3.6,10.4-3.5,15.8-3.6c4.2,0,8.6-0.2,12.7-0.9c1.5-0.3,2.7-2.4,4.1-3.7
		c1.4-1.3,3.4-1.6,5.5-2c7.3-1.3,11.2-6.2,13.5-12.7C531.3,384,529.8,381.9,527.3,382.3z M479.3,327.1c0.3,0.3,0.7,0.7,1,1
		c-1,6.2-11.5,15.9-19.1,16.1C467.3,338.5,473.3,332.8,479.3,327.1z M410.4,295.8c-8-1-15.8-3-22.5-7.8c0.2-0.4,0.3-0.9,0.5-1.3
		c7.5,2.6,15,5.3,22.5,7.9C410.7,295.1,410.5,295.4,410.4,295.8z M412.5,212.1c9.9-1.1,24.1,9.4,25.4,18.8c0.1,1-0.5,2.8-1.3,3.2
		c-4.4,2.3-8.9,4.4-13.6,6.7C419.5,231.3,416,221.7,412.5,212.1z M438.2,298.2c-0.2,1.4-0.6,2.8-0.9,4.3c-0.5,0-0.9,0.1-1.4,0.1
		c-1.2-5.9-2.4-11.7-3.6-17.6c-2.1-10.4-4-20.8-6.4-31.2c-2.4-9.9,5.8-14,13-12c3.8,1.1,6,3.2,5.5,7.3c-1.1,9.3-2.5,18.7-3.7,28
		C439.9,284.1,439.1,291.2,438.2,298.2z M394.7,378.4c-4.5-5-8.7-9.8-13-14.6c0.4-0.3,0.7-0.6,1.1-1
		C388,364,395.5,373.4,394.7,378.4z M383.1,510.9c5.1-1.5,9.7-1.2,13.9,4.2C391.2,515.9,387.5,512.1,383.1,510.9z M442.6,453.6
		c-1.2-1.5-1.9-2.4-2.7-3.1c-3.7-3.5-7-7.8-11.3-10.3c-5.1-2.9-7.1-6.6-7.4-12c-0.1-2.3-0.7-4.5-1-6.8c-0.5-0.1-1-0.2-1.5-0.2
		c-1.1,3-2.2,6-3.3,9c-0.5,0.1-0.9,0.2-1.4,0.3c-1-4.3-1.9-8.5-2.9-12.8c-0.3,0-0.5,0-0.8,0c-0.5,1.6-0.8,3.3-1.5,4.9
		c-0.4,0.9-1.4,1.6-2.2,2.4c-0.9-0.8-2.2-1.5-2.5-2.5c-1.1-3.6-1.8-7.2-2.7-10.9c-0.5,0-0.9,0-1.4,0c-0.5,1.6-0.9,3.2-1.8,6.2
		c-1.9-2.3-4.1-3.9-4.3-5.7c-0.3-2.5,0.2-5.2,4-6.3c4-1.1,8-3.2,11.2-5.8c9-7.1,12.6-6.8,19.3,2.7c1.1,1.5,1.9,3.3,3.4,5.7
		c-3.6,0.3-6.5,0.5-9.4,0.7c-0.2,0.5-0.5,1.1-0.7,1.6c3.3,1.7,6.4,4.1,9.9,4.9c8.3,1.9,10.7,7.3,10.7,14.9
		C442.5,437.9,442.6,445.3,442.6,453.6z M476,545.2c-2.9,1.5-5.7,3-8.6,4.5c-0.3-0.5-0.6-1.1-0.9-1.6
		C468.7,545.2,472.1,544.7,476,545.2z M514.5,396.3c3.5-3,6.1-5.2,8.7-7.4c0.3,0.4,0.6,0.7,1,1.1
		C523.4,394.5,520.1,395.8,514.5,396.3z"/>
	<path fill="#C49A6C" d="M817,351.7c-1.7,1.3-3.4,2.7-5.7,4.5c-0.5-2.4-0.9-4.1-1.1-5.8c-0.5-3.2-2.2-6.1-5.4-6.1
		c-2.8,0-6.4,1.1-8,3.1c-1.4,1.8-1.2,5.6-0.5,8.1c0.6,2,2.9,3.6,4.8,5c6.2,4.7,6.5,5.4,2.5,12.4c-0.7,1.1-1.4,2.3-2.2,3.3
		c-2.6,3.2-3.7,3-5.5-0.7c-1.1-2.4-2.3-4.9-4-6.8c-2.9-3.1-8.6-3.5-10.9-1.1c-2.4,2.5-2.4,8.1,0.7,10.9c2.3,2.1,5.4,3.5,8.4,4.7
		c4.7,1.8,6,3.1,3.3,7.3c-4.9,7.8-10.6,15.1-16.1,22.6c-0.6,0.8-1.9,1.2-3.8,2.4c0-2.6-0.3-4.4,0.1-6.1c1.1-4.4,2.7-8.8,3.6-13.2
		c1.5-6.9-2-10.9-9.1-10.4c-1.8,0.1-4.4,1.3-5,2.6c-0.8,1.9-0.4,4.6,0.4,6.5c0.7,1.8,2.6,3.1,4.1,4.6c4.4,4.4,4.3,5.6-0.3,7.9
		c0,4.8,1.2,9.6-0.2,13.5c-3.2,8.8-10.2,15.2-16.5,23.3c-0.7-2.8-1.2-4.5-1.4-6.2c-1.4-14.3-3.4-28.5-4.1-42.8
		c-0.7-15.5-0.3-31.1-0.2-46.6c0-1.9,1.5-3.8,2.4-5.7c2.1,0.9,4.5,1.4,6.1,2.8c1.8,1.6,2.9,4.1,4.1,5.8c10.5-7.1,5.7-35.8-0.6-52.3
		c-3.3,4.2-3.6,10.3-9.9,13.2c1-5.1,1.9-9.2,2.7-13.3c-1.3,0.1-1.8,0.4-2,0.8c-4.4,6.9-8.7,13.7-13,20.6c-3.6,5.6-4.7,11.9-3.6,18.3
		c0.4,2.3,2.1,5.1,4.1,6.1c2.7,1.5,3.4,3.1,3.4,5.9c-0.1,13.9,0,27.8,0.1,41.7c0,6.1,0,12.3,0,19c-1.5-0.7-2.5-1-3.2-1.6
		c-7.8-6.2-9.2-10.9-6.6-20.6c0.8-2.9,1.5-6.3,0.8-9c-0.6-2.2-3.2-5.1-5.3-5.4c-2.2-0.3-5.6,1.5-6.9,3.4c-1.1,1.6-0.7,5,0.1,7.2
		c0.8,2.2,3.2,3.9,4.4,6.1c0.6,1.1,0,2.9-0.1,4.4c-1.2-0.3-2.7-0.2-3.5-0.9c-5.5-5-9.9-10.9-12.6-18c-1.2-3.1-0.4-4.6,2.8-5.4
		c5.1-1.3,8.7-4.6,9.9-9.7c0.5-2.3,0.4-5.8-1-7.1c-2.5-2.3-6.2-1.9-8.9,0.6c-1.5,1.4-2.5,3.3-3.7,5c-0.9,1.3-1.7,2.5-2.6,3.8
		c-0.4-0.1-0.8-0.2-1.2-0.3c-0.1-1.7-0.3-3.3-0.3-5c0-1.3,0.5-2.7,0.4-4c-0.3-3.9-1.9-6.9-6.1-7.6c-3.3-0.5-6.3,0.1-7.8,3.5
		c-1.6,3.7-0.1,6.6,2.7,9c1.3,1.1,2.9,2,4.3,3.1c4.4,3.5,5.8,8.4,7,13.1c-4.6,0-8.7-0.5-12.6,0.2c-1.9,0.4-4.8,3.2-4.8,4.8
		c0.1,2.3,1.9,5.4,3.9,6.6c1.8,1.1,5,0.5,7.3-0.3c1.6-0.5,2.5-3,4.1-3.8c1.4-0.7,4-1.1,4.9-0.4c2.3,2.1,4,4.9,6.4,8
		c-2.5,0.6-4,0.9-5.5,1.3c-8.4,1.8-10.4,4.5-9.1,12.9c0.6,3.7,1.6,7.3,2.5,11.3c-3.3-0.6-6.3-1.2-9.3-1.7c-0.2,0.5-0.5,1-0.7,1.5
		c5.2,4.8,10.3,9.6,15.3,14.3c-3.2,1.7-0.8,3.1,1,4.8c3.4,3.2,6.8,6.5,9.9,10c2.4,2.8,1.7,5.1-2.1,6.2c-2,0.6-3.8,1.4-5.7,2.1
		c1.6,1.3,3,1.8,4.5,1.9c6.9,0.5,11.7,4.1,14.1,10.5c3.6,9.2,6.9,18.5,10.2,27.8c0.4,1.2,0.2,2.7,0.4,5.2c-2.4-2.2-4.2-3.2-5.1-4.8
		c-2.7-4.7-7-4.5-11.4-3.9c-4.5,0.6-5.5,2-3.6,6.2c2.4,5.4,5.4,10.5,8.3,15.6c1.1,2,2.5,3.9,4.1,6.4c-3-0.2-5-0.3-7.1-0.5
		c-0.4,0.5-0.8,1-1.2,1.6c1.3,0.7,2.7,1.3,3.9,2.2c8,5.9,12.2,14,14.2,23.7c2.9,14.2,2.5,28.5,2.3,42.8c-0.1,4.3,2,5.5,5.5,5.5
		c1.8,0,3.6-0.8,4.2-1c0.8-4.8,1.6-8.5,2.1-12.4c0.9-7.2,1-14.6,2.5-21.6c2.1-9.8,5.4-19.3,7.9-29c5.5-21,13.1-41.1,24.9-59.4
		c2.7-4.2,5.6-7.9,10.7-9.5c1.4-0.5,2.6-1.7,4.1-2.7c-1.5-0.9-2.5-1.5-4.3-2.5c5.1-3.4,9.6-6.4,14-9.4c-0.4-0.2-0.8-0.4-1.2-0.7
		c0.7-1.6,1-3.5,2.1-4.8c2.7-3.1,5.9-5.8,8.7-8.8c1-1.1,1.4-2.7,2.1-4c-0.4-0.4-0.8-0.7-1.2-1.1c-4.5,2.2-8.9,4.4-13.4,6.6
		c-1.4,0.7-3.4,2.1-4.4,1.7c-3.9-1.8-4.9,1-6.4,3.3c-0.8,1.2-1.8,2.2-2.9,3.6c-0.9-1.6-1.5-2.6-2-3.7c-0.4,0-0.9,0.1-1.3,0.1
		c-0.2,3.2-0.4,6.5-0.5,9.7c-0.3,6.6-4.1,9.5-9.6,6.9c0.9,10.1-7.3,16-9.7,25c-2.2-2.5-3.6-4.2-4.6-5.5c-0.9,6.2-0.9,12.3-2.8,17.7
		c-1.8,5.4-3,11.6-8.1,16.4c-0.5-2.2-1.1-3.6-1.2-5c-1.3-15-2.5-30.1-3.8-45.1c-0.7-7.2,2.7-11.4,8.7-15c6.5-3.9,12.6-8.7,18.6-13.4
		c2.5-2,4.7-3.1,8-2.6c5.7,0.9,8.5-1.5,9.1-7c0.9-8.4-2.7-11.2-10.6-8.3c-0.4,0.1-0.8,0.1-2.2,0.3c1.7-2.3,2.9-4.1,4.3-5.6
		c3.8-4.2,5.5-4,9.4-0.1c1.7,1.8,3.6,3.5,5.8,4.7c3.5,1.9,8.2,0.5,10.2-2.6c2.1-3.3,1.1-7.5-2.5-10.1c-3.4-2.5-7.1-3.3-11.3-1.7
		c-1.3,0.5-2.9-0.2-4.4-0.3c0.4-1.3,0.5-2.8,1.3-3.9c1.5-2.2,3.1-4.4,5-6.2c3.2-2.9,5.7-2.6,8.8,0.4c1.3,1.2,2.6,2.4,4.1,3.2
		c3.2,1.7,6.4,1.5,9-1.1c2.8-2.6,3.2-6.1,1.9-9.4c-1.3-3.3-4.3-4.5-7.6-4.1c-2.4,0.3-4.7,1.4-7.1,2c-1.6,0.4-3.3,0.7-5.9,1.3
		c1.1-2.6,1.8-3.9,2.2-5.3c1.3-5,4.1-7.5,9.7-7.3c4.9,0.2,8.5-3,9.9-7.6c0.7-2.2,0.4-5.6-0.9-7.2C823.2,349.4,819.8,349.6,817,351.7
		z M749.9,534c-2.1-36.4-15.2-69.5-29.8-102.5c1.7-0.3,3-0.5,4.4-0.8c-4.8-0.4-7.4-3.4-9.8-7.3c-3-4.7-6.8-8.7-9.9-13.3
		c-1.4-2-2.6-4.6,0.1-6.8c3.2-2.6,6.3-6.9,11.1-4.6c3.6,1.6,6.5,4.7,9.7,7.1c-0.2,0.6-0.5,1.1-0.7,1.7c-2.4,0.9-4.8,1.9-7.2,2.8
		c2.7,6.1,4.1,6.8,10,5.3c4.6-1.2,8.8,0.7,10.4,5.9c1.8,6,3,12.3,3.8,18.6c2.7,20.8,5.2,41.6,7.5,62.4c0.9,8.4,1.4,16.8,1.9,25.2
		C751.4,529.7,750.8,531.9,749.9,534z M779.8,422.6c-0.7,4.5-9.9,12.3-14.6,12.4c-0.4-0.4-0.7-0.8-1.1-1.2
		c4.2-4.4,8.4-8.8,12.8-13.1c0.4-0.4,1.7-0.3,2.4-0.1C779.6,420.8,779.9,422,779.8,422.6z"/>
	<path fill="#C49A6C" d="M1178.1,359.1c-4.7-2.8-9.6-5.3-14.3-8c-1.6-0.9-3-2.1-4.4-3.2c0.1-0.4,0.3-0.9,0.4-1.3
		c2.8,0.2,5.7,0.7,8.5,0.5c3.7-0.2,7.6-0.7,11.1-1.8c1.3-0.4,2.1-2.8,3.1-4.3c-1.4-0.9-2.8-2.3-4.4-2.5c-4.8-0.5-9.7-0.6-14.6-0.8
		c-1.9-0.1-3.9-0.3-6.2-0.5c5.2-9.7,12.6-18.1,9.1-29.3c-0.6-0.3-1.3-0.7-1.9-1c-5.8,6.8-11.6,13.6-17.5,20.4
		c-0.4-0.2-0.9-0.4-1.3-0.6c0.5-4.5,1.2-8.9,1.4-13.4c0.2-3.6,0.2-7.4-0.5-10.9c-0.7-3.1-3.4-3.6-5.1-0.7c-1.6,2.8-2.9,6.2-3.3,9.4
		c-0.6,4.4-0.1,8.9-0.4,13.3c0,0.4-0.2,0.7-0.5,1.1c-0.2,0.2-0.4,0.5-0.6,0.7c-0.2,0.2-0.3,0.4-0.5,0.5c-0.2,0.2-0.3,0.4-0.5,0.5
		c-0.2-0.1-0.3-0.3-0.5-0.4c-0.2-0.1-0.3-0.2-0.5-0.4c-0.6-0.4-1.1-0.8-1.4-1.4c-0.8-1.5-1.1-3.4-1.9-5c-3.3-7.2-6.6-14.5-10.2-21.5
		c-0.6-1.2-2.6-1.7-3.9-2.5c-0.8,1.5-2.1,2.9-2.2,4.4c-1.1,9.6,1.3,18.5,6.2,26.7c1,1.7,1.8,3.5,2.7,5.3c-0.2,0.4-0.5,0.8-0.7,1.2
		c-2.1-0.5-4.6-0.4-6.3-1.5c-8.2-5.3-15.2-2.4-21.9,2.8c-2.9,2.2-2.9,4.5,0.3,6.2c2.4,1.3,5.1,2.1,7.8,3c1.5,0.5,3,0.7,4.5,1.1
		c-1.3,1.7-2.7,2.4-4.1,2.8c-2.8,0.9-5.7,1.5-8.5,2.5c-0.7,0.2-1.3,0.8-1.9,1.3c-0.2,0.2-0.3,0.3-0.5,0.5c-0.2,0.2-0.4,0.3-0.5,0.5
		l0,0h0c0.4,0.4,0.8,1.1,1.3,1.6c0.4,0.5,0.9,0.9,1.3,1c5.2,0.7,10.4,1.1,15.7,1.4c1.5,0.1,3-0.6,5.7-1.2c-1.2,2.3-1.9,3.5-2.6,4.7
		c-2,3.1-4.3,6.1-5.9,9.4c-1.1,2.3-1,5.1-1.5,7.7c2.4-0.4,4.9-0.3,7-1.1c3.4-1.3,6.6-3.3,10-4.7c1.7-0.7,3.6-0.6,5.4-0.9
		c0.2,1.8,0.7,3.7,0.5,5.5c-0.5,3.8-1.6,7.5-2,11.3c-0.3,2.6,0.1,5.2,0.2,7.8c0.6,0.2,1.3,0.3,1.9,0.5c4.5-6.9,9.1-13.7,13.5-20.6
		c3.2-4.9,3.4-4.9,7.6-0.7c4.2,4.3,8.6,8.6,13.2,12.4c0.9,0.7,2.2,0.8,3.6,0.9c0.8,0,1.7,0,2.5,0.1c0,0,0,0,0,0
		c-0.1-0.9-0.1-1.9-0.2-2.9c-0.1-1-0.2-1.9-0.6-2.7c-2.6-4.8-5.7-9.3-8.4-14.1c-1.5-2.6-2.5-5.5-3.8-8.2c0.3-0.4,0.6-0.8,1-1.3
		c3.4,1.1,6.8,2.3,10.3,3.2c3.1,0.8,6.3,1.5,9.5,1.8c1,0.1,2.1-1.3,3.2-2C1179.6,361,1179.1,359.7,1178.1,359.1z M1136.1,357.5
		c-6.7-0.1-11.8-5.6-11.7-12.9c0.1-5.8,5.5-10.3,12.2-10.1c6.2,0.1,11.2,5.3,11.1,11.5C1147.7,352.3,1142.4,357.6,1136.1,357.5z"/>
	<path fill="#C49A6C" d="M690.5,293.6c-0.6,0.2-1.2,0.3-1.6,0.6c-1.3,1-2.5,2-3.8,3.1c1.3,1.1,2.4,2.9,3.8,3.2
		c5,0.9,10.4,2.4,15.2,1.4c8.9-1.8,17.5-5.1,26.1-8.1c4.1-1.5,7.8-3.8,12-5.9c-3.5-7.6-11.4-5.9-16.1-10.2c4,0.3,7.9,0.6,11.9,0.8
		c0.9,0,1.8-0.6,2.7-1c-0.5-1-0.7-2.4-1.4-2.9c-11.6-6.9-23.7-12.6-37.5-10.5c-14.6,2.2-16.9,5.4-8,20
		C697.7,290.5,697.9,290.9,690.5,293.6z"/>
	<path fill="#C49A6C" d="M753.5,249.8c0.7,5.5,0.1,11.2,0.2,16.8c0,1.7,0.4,3.4,0.6,5c0.5,0,1.1,0.1,1.6,0.1
		c2.2-5.3,4.5-10.5,6.7-15.8c0.4,0.1,0.9,0.2,1.3,0.4c0.2,0.5,0.8,1.1,0.7,1.5c-0.7,4.6-1.7,9.2-2.2,13.9c-0.2,1.8,0,4.5,1,5.3
		c1.2,0.9,4.2,0.7,5.5-0.2c11.3-8.3,19.2-18.9,20.7-33.2c0.3-2.8-0.3-5.9-1-8.7c-0.6-2.5-2.7-3.7-5.2-2.4c-4.5,2.4-5.4,0-5.7-3.7
		c-0.1-0.9-0.2-1.8-0.4-2.6c-0.8-3.8-3-4.5-5.9-1.8c-1.3,1.2-2.2,2.7-3.3,4.1c-2.7,3.4-3.9,3.3-6-0.4c-0.9-1.7-1.7-3.6-2.9-4.9
		c-1.1-1.2-3-2.5-4.3-2.3c-1.2,0.2-2.2,2.3-3,3.6c-0.7,1.1-0.7,2.9-1.6,3.6c-4,3-2.1,5.9-0.7,9.3C751.3,241.3,753,245.6,753.5,249.8
		z"/>
	<path fill="#C49A6C" d="M713.5,251.5c8.7,7.2,18.4,13.3,27.8,19.7c0.5,0.3,1.3,0.3,2.4,0.5c-1.3-3.5-2.4-6.4-3.5-9.3
		c0.4-0.3,0.9-0.6,1.3-1c2.4,2.8,4.9,5.7,8,9.3c0.5-1.8,1.2-2.9,1.1-4c-0.4-6.9-0.4-13.9-1.8-20.6c-0.7-3.6-3.7-6.9-6.3-9.8
		c-2.3-2.6-5.4-4.6-8.2-6.7c-6.5-4.7-8.8-4.1-11.8,3.1c0,0.1-0.2,0.2-0.6,0.4c-2.5-1.1-5.1-2.5-7.8-3.3c-6.5-2-11.1,1.9-8.8,8.4
		C707,243.1,709.7,248.4,713.5,251.5z"/>
	<path fill="#C49A6C" d="M772.4,333c1.2,3.6,2.3,8.6,6.5,8.6c2.7-0.1,6.2-3.7,7.9-6.5c2.7-4.3,5.5-6.1,10.5-4.5
		c2.2,0.7,4.7,0.2,4.7-3c0.2-6.5-0.6-12.8-5.2-17.8c-7-7.6-15-13.8-24.8-17.3c-1.2-0.5-2.6-0.6-3.9-0.9c-0.2,0.4-0.4,0.7-0.6,1.1
		c3.4,3.5,6.8,7,10.2,10.5c-0.3,0.4-0.7,0.8-1,1.3c-1.2-0.7-2.4-1.4-3.6-2.1c-2.3-1.4-4.5-2.9-6.9-4c-1-0.5-2.7-0.3-3.6,0.3
		c-0.5,0.3-0.3,2.2,0,3.2C765.8,312.2,769.1,322.6,772.4,333z"/>
	<path fill="#C49A6C" d="M768.8,284.7c-0.9,0.8-1.4,2.7-1,3.8c0.2,0.8,2.2,1.6,3.3,1.4c9-1.3,16.4,1.9,23.2,7.5
		c3.9,3.2,8.6,4.9,13.7,3.6c2.6-0.7,5.8-2.2,7.1-4.3c0.8-1.3-1.5-4.5-2.6-6.8c-0.4-0.9-1.3-1.6-2-2.4c-2.1-2.5-2.2-4.9,0.1-7.5
		c1.6-1.7,2.8-3.8,4.1-5.8c1.5-2.4,0.3-4.3-2-4.7c-6.2-1.3-12.4-2.1-19.8-3.4c-1.1,0.3-3.6,0.5-5.1,1.7
		C781.2,273.4,775,279,768.8,284.7z"/>
	<path fill="#C49A6C" d="M745.5,292.1L745.5,292.1c-0.1,0-0.2,0-0.4,0c-0.2,0-0.5,0-0.8,0c-0.6,0-1.3,0-1.7,0.3
		c-11.9,7.7-24,15-35.3,23.5c-3.7,2.8-5.4,8.5-7.5,13c-0.4,0.8,1.3,3.8,2.3,4c4.3,0.9,8.7,1.1,15.1,1.8c1.9-1.7,5.5-4.2,7.8-7.5
		c6.5-9.2,12.4-18.7,18.5-28.1c0.8-1.2,1.6-2.5,2-3.9c0.1-0.4,0.1-0.7,0.1-1.1c0-0.3,0-0.5-0.1-0.8c0-0.3-0.1-0.5-0.1-0.8
		C745.5,292.4,745.5,292.2,745.5,292.1z"/>
	<path fill="#C49A6C" d="M756.5,295.5c4-0.1,7.5-4,7.5-8.4c0.1-6.5-5.5-11.9-12.3-12c-4.8,0-7.2,2.1-7.2,6.4
		C744.5,287.9,751.1,295.6,756.5,295.5z"/>
	<path fill="#C49A6C" d="M200.7,487.1c-3.2,0.5-6.3,1.5-9.3,2.6c-1.2,0.5-1.9,2.2-2.9,3.3c1.5,0.6,2.9,1.8,4.4,1.8c2,0,4-0.7,6-1.3
		c14-4.4,28.3-5.8,42.8-4.4c1.6,0.2,3.2,0.2,5.5,0.3c-1.4-4.6-4.9-3.8-7.4-4.1C226.7,483.7,213.7,485,200.7,487.1z"/>
</g>
</svg>
