<?xml version="1.0" encoding="utf-8"?>
<!-- Generator: Adobe Illustrator 27.3.1, SVG Export Plug-In . SVG Version: 6.00 Build 0)  -->
<svg version="1.1" id="Layer_1" xmlns="http://www.w3.org/2000/svg" xmlns:xlink="http://www.w3.org/1999/xlink" x="0px" y="0px"
	 viewBox="0 0 1200 800" enable-background="new 0 0 1200 800" xml:space="preserve">
<g>
	<path fill="#C49A6C" d="M636.7,488.1c1.7-6.2,3.4-10,11.3-10.9c13.8-1.5,22.8-11.9,31.7-21.6c0.1-0.1-0.1-0.5-0.1-0.8
		c-13.9-2.1-26.3,0.5-36.8,10.9c0.7-4.4-0.3-9,4.9-11.7c2.5-1.3,4.3-4.5,5.5-7.2c1.8-4.3,3.1-8.9,4.2-13.5c1.3-5.6,2.1-11.4,3-16.6
		c-3-1.3-5.1-2.3-8-3.5c-1.4,3.3-3,6.7-4.8,10.9c-1.5-1.7-2.4-2.7-3.4-3.7c-2-2-3.8-1.8-4.4,1.1c-2,9.2-4.5,18.4-2.2,27.9
		c1.5,6.3,0,12.1-1.7,18.1c-0.7-0.3-1.1-0.3-1.2-0.5c-5.6-10.2-12.7-19.1-22-26.2c-0.8-0.6-1.1-2.7-0.7-3.8c3.2-8.4,6.7-16.6,10-25
		c1-2.6,2.1-3.5,5.2-2.5c3.2,1,7.4,1.8,10.3,0.7c7.1-2.7,13.7-6.5,20.4-10c0.9-0.5,1.3-2.1,1.9-3.1c-1.3-0.5-2.6-1.6-3.8-1.5
		c-2.9,0.1-5.7,0.8-8.6,1.2c-0.2-0.3-0.5-0.7-0.7-1c3.5-3.4,7.1-6.8,11.1-10.7c-2.6-0.5-4.2-0.8-5.3-1.1c0.3-2.1,0.5-3.9,0.7-5.7
		c-2.1-0.1-4.3-0.7-6.3-0.1c-2,0.6-3.8,2.2-5.7,3.3c-0.9,0.6-1.8,1.1-3.3,2c0.6-5.1,1.2-9.4,1.8-14.6c-2.3,1.1-3.5,1.7-4.6,2.2
		c-2.9-3.3-4.9-3.4-7.3,0.1c-2,2.7-3.5,5.9-5.2,9c-5.7-9.2-5.7-9.2-8.7-10.1c-0.9,6.2,0.8,22.6,3.6,30.4c1.1,3,0.8,5.5-0.4,8.4
		c-2.6,6.2-4.9,12.6-7.3,18.9c-0.6,1.6-1.3,3.2-2,4.8c-1-1.4-1.3-2.6-1.3-3.7c0.7-20,1.4-40,2.3-60c0.1-1.4,1-3.3,2.1-4.1
		c3.9-2.9,8-5.4,11.9-8c6.2,5.8,6.9,5.6,11.4-1.6c1-1.6,2-3.2,3.2-4.9c2.5,4.8,4.7,9.2,7.3,13.5c1.7,2.9,4.1,2.5,5.2-0.5
		c1.3-3.5,2.1-7.3,2.9-11c0.4-1.9,0.4-3.8,0.7-5.8c2.5,2.2,4.6,4.1,6.7,5.9c2.4,2,5,3.6,7.9,1.2c2.9-2.3,5.1-5,3.8-9.1
		c-0.5-1.5-0.9-3-1.4-4.7c2.8-0.7,5.3-1,7.6-1.8c3-1.1,4.7-3.2,5.1-6.5c0.4-3.4-1.7-4.7-4.2-5.9c-3.4-1.6-6.7-3.4-10.1-5.1
		c3.8-3.1,7.5-5.8,10.8-8.8c2.9-2.6,2.6-5.9-1-7.4c-2.8-1.2-6.2-1.1-9.3-1.3c-1.5-0.1-3,0.7-5.4,1.4c1-2.6,1.6-4.3,2.3-6
		c2.3-5.4,2.1-9.8-0.5-11.4c-2.5-1.5-8.2,0.9-11.1,4.7c-0.7,0.9-1.2,2-1.9,3c-0.5,0.8-1.1,1.5-1.9,2.6c-0.8-3.3-1.5-6-2.2-8.7
		c-0.6-2.3-0.6-5.2-4.2-5.1c-3.5,0.1-6.5,0.8-7.3,4.9c-0.5,2.4-1,4.7-1.5,7.1c-0.4,0.2-0.8,0.5-1.2,0.7c-2.1-2.4-4-5-6.3-7.2
		c-2.5-2.4-5.2-3.2-8,0c-1,1.1-2.8,1.5-4.3,2.2c-0.4-0.3-0.9-0.5-1.3-0.8c1.9-17.1,3.8-34.2,5.8-51.8c2.2,0.7,3.4,1.2,4.7,1.4
		c4.9,0.8,8.7-2.6,8.8-7.5c0-5.3,1.9-6.8,7.1-5.9c7,1.3,11.6-1.8,13.4-8.6c0.3-1.2,2.1-2.4,3.5-2.8c6.1-1.9,8.6-9.3,4.5-13.7
		c-1.6-1.6-4.2-2.6-2.1-5.6c1.3-2,1.7-4.9,3.4-6.3c5.9-4.8,6.4-8.7,1.4-14.8c-0.8-1-1.3-3-0.9-4.2c2.7-9.5-2.9-16.6-13.2-15.5
		c-1-3.2-2.3-6.4-3-9.8c-1.3-5.7-5.1-8.6-11.2-8.3c-1.3,0.1-2.9-0.3-3.9-1.1c-8-6.1-18.7-3.1-21.9,6.4c-1-0.7-2-1.3-2.9-1.9
		c-7.5-5.2-13.6-4.6-20,1.8c-0.9,0.9-2.1,1.7-3.3,2.2c-9.1,3.8-10.3,7.3-4.6,16.2c-3,1.4-5.7,3.2-8.7,4.1c-4.1,1.2-7.8,3.2-8.4,7.5
		c-0.5,3.6,0.8,7.4,1.3,11.1c0.4,1.1-0.5,2.3-1.3,3.5c-4.5,6.8-2.4,12.8,5.3,15.4c3,1,2.9,2.7,1.6,5c-2.5,4.6-1.7,8.7,1.6,12.4
		c3.2,3.6,6.8,2.3,9.6,1.4c1.6,4.4,2.2,9.2,4.8,12.1c4.4,5,7.5-1.1,11.6-3.2c1.8,8.8,8.3,10.4,16.7,10c-2.2,8.7-4.3,16.7-6.3,24.8
		c-0.1,0.4-0.5,0.7-0.8,1c-3.3,3.3-6.5,6.5-9.8,9.8c-1.1,1.1-2.3,2.2-3.4,3.3c0.3-5,1.7-9.4,2.2-13.9c0.2-2.1-0.6-5.4-2.1-6.3
		c-1.8-1.1-5.4-1.3-7.3-0.2c-2.3,1.4-3.6,4.4-5.2,6.9c-0.7,1-1,2.2-1.7,3.9c-2.4-3.6-4-6.8-6.4-9.3c-1.4-1.4-4.2-2.7-5.9-2.2
		c-1.8,0.5-3.7,2.8-4.3,4.8c-0.6,2.1,0.1,4.6,0.5,6.9c0.4,2.2,1.1,4.3,2,7.3c-2.2-1.3-3.4-2-4.7-2.8c-1.4-0.8-2.8-1.7-4.3-2.3
		c-4.2-2-7.1-1-9.8,3c-2.5,3.7-0.3,6.2,2.1,8.4c1.9,1.8,4.2,3.2,6.4,4.8c1.6,1.2,3.2,2.3,5.3,3.8c-5.8,1.1-10.7,1.9-15.5,2.8
		c-4.1,0.7-4.8,3.5-4,6.9c0.9,3.8,3.2,6.2,7.4,6.4c2.6,0.1,5.1,0.4,7.7,0.6c0.4,0.6,0.9,1.3,1.3,1.9c-2.9,2.2-5.9,4.4-8.5,6.8
		c-0.9,0.9-1.9,2.7-1.6,3.7c0.3,0.9,2.4,1.9,3.5,1.8c5.7-0.7,9.4,2.7,12.3,6.5c3.8,5.1,8.4,5.2,13.3,3.3c3.9-1.5,7.3-4.1,11.3-6.4
		c1.2,3.1,2.8,6.5,3.9,9.9c4,12.1,9.3,23.7,8.8,37.1c-0.6,18.7-0.4,37.4-0.5,56.2c0,1.3-0.3,2.7-0.5,4.7c-1.1-1-1.7-1.3-1.9-1.8
		c-4-8.4-8-16.7-11.8-25.2c-0.5-1.1-0.3-2.6-0.1-3.8c0.6-3.5,1.3-6.9,2-10.3c1.1-5,2.4-9.9,3.4-14.9c0.3-1.6,0.2-3.3,0.2-4.9
		c-1.7,0.5-4,0.5-5,1.6c-2.2,2.4-3.7,5.5-5.7,8.7c-0.4-2.1-0.6-3.8-0.9-5.5c-0.3-1.7-0.7-3.3-1-5c-1.7,0.5-3.4,1.1-5.5,1.8
		c-2.8-2.8-5.1-1-7.7,1.7c-1.6,1.7-3.9,2.8-5.9,4c-3,1.6-6.4,2.6-9,4.7c-0.9,0.8-0.3,3.8,0,5.7c0.1,0.8,1.1,1.4,1.8,2.2
		c-7.8,2.4-8.3,2.8-9.1,7.1c5.4,1.7,10.7,3.4,16.2,5.2c-3.8,2.8-6.9,4.8-9.4,7.3c-0.8,0.8-0.2,3-0.2,4.6c1.4-0.2,3,0,4.3-0.6
		c2.7-1.2,5-3.3,7.7-4c5.4-1.5,10.9-2.4,16.4-3.3c0.9-0.2,2.7,0.6,3.1,1.4c4.5,9.7,8.7,19.5,13,29.2c-0.4,0.3-0.7,0.7-1.1,1
		c-7.9-6.8-16.4-12.1-27.2-11.7c-10.1,0.4-20.1,1.4-29.2,9c5.1,1.3,9.1,2.4,13.7,3.5c-2,2.8-3.5,5.1-5.3,7.2
		c-0.6,0.7-2.5,0.9-3.4,0.5c-3.9-1.6-7.6-3.5-11.7-5.5c0-1.5,0.3-3.5-0.1-5.3c-0.3-1.8-0.9-4.5-2-4.9c-1.6-0.5-4.2,0.2-5.5,1.4
		c-2.2,1.9-4.2,4.3-5.3,6.9c-1.8,4.3-3.2,8.8-4.2,13.4c-0.7,3.3-2.2,4-5.7,2.9c2.9-6.9,6-13.4,8.3-20.2c2.3-6.8,3.9-13.8,5.8-20.7
		c-0.6-0.2-1.1-0.5-1.7-0.7c-0.9,1.3-2,2.6-2.8,4.1c-3.9,7.1-7.6,14.3-11.5,21.4c-0.8,1.4-1.6,2.9-2.8,3.9
		c-5.9,4.9-11.9,9.7-18.2,14.8c0.6-2.5,0.8-5.4,1.9-7.9c3.1-6.8,6.5-13.5,9.8-20.3c1-2,1.6-4.2,2.6-6.8c-6.7-0.2-8.1,5.8-12.3,8.2
		c-1.2-7.2,6.3-9.9,7.5-16.8c-2.9,1.8-4.9,3.1-7.9,4.9c1.6-5.7,2.9-10.5,4.5-15.1c0.3-0.9,1.9-1.6,3.1-2.1
		c6.2-2.2,12.5-4.3,18.7-6.5c8.7-3,17.5-5.9,26.2-8.8c0.6-0.2,1.1-0.7,2.5-1.6c-7.9-2.9-15.3-2.4-22.3-1c-7,1.4-13.5,4.6-21.4,7.4
		c4.1-6,7-12.1,11.6-16.4c9-8.5,18.9-15.9,28.4-23.8c1.3-1.1,2.7-2.2,4-3.3c-17.7,2.2-32.5,9.9-45.8,23.2c0-3.9-0.2-6.5,0.1-9.1
		c0.1-0.9,1.1-2,2-2.5c6.3-3.3,11.3-13.7,9.7-20.6c-2.1-8.5-7.6-14.3-15.2-18c-11.8-5.9-23.9-11.4-35.8-17c-0.7-0.3-1.5-0.4-2.3-0.6
		c-0.1,0.2-0.2,0.4-0.4,0.6c5.7,4.8,11.4,9.7,17,14.5c-0.3,0.4-0.6,0.8-1,1.3c-6.5-4.3-13-8.6-19.8-13c-1.8,4,1.1,6,2.9,8.2
		c4.8,6,9.9,11.7,14.7,17.6c2.3,2.8,4.1,6,6.1,9c-0.3,0.2-0.7,0.5-1,0.7c-8.8-9.6-17.6-19.2-26.4-28.9c-0.3,0.3-0.7,0.5-1,0.8
		c2.4,6.3,6.7,12.2,6.5,20.6c-5.6-6.6-6.3-14.8-11.9-21.1c-0.4,2-0.7,2.7-0.6,3.3c0.7,11.6,1,23.3,2.2,34.8
		c1.6,14.1,8.8,24.7,21.4,31.6c4.5,2.4,5.5,2.4,8-2.2c3-5.7,5.7-11.6,8.3-17.5c1.5-3.3,2.6-6.7,4.1-10.5c4,3.2,9.7,3.9,8.4,10.8
		c-1.9,10.3-3,20.7-5.1,30.9c-1.7,8.3-4.2,16.5-6.2,24.8c-0.6,2.4-0.9,4.9-1.3,7.3c-0.4,0-0.8,0-1.2,0c-1.6-3.9-3.3-7.8-4.8-11.7
		c-1.5-3.8-2.7-7.8-4.3-11.6c-1.5-3.7-3.2-7.4-4.9-11c-0.4,0.2-0.9,0.4-1.3,0.6c-0.1,1-0.2,2-0.2,3c1.2,17.7,3.4,35.2,11.9,51.2
		c2.1,4,3.4,8.2,2.5,13.8c-9.4-10.8-20.1-16.7-34.2-15.5c-0.5-6.5-1.3-12.6-1.3-18.8c-0.1-13.5,0.1-27.1,0.2-40.6
		c0.1-7.6,1.5-15.5,0-22.7c-3.2-15.1-6.9-30.1-7-45.7c0-1-0.7-1.9-1-2.8c-3.9,8.4-4.2,17.6-8.3,25.5c-0.6-0.1-1.2-0.3-1.8-0.4
		c1.5-7.3,3-14.6,4.7-22.8c-1.1,1.7-1.8,2.6-2.3,3.6c-6.6,13.3-13.5,26.5-19.6,40c-2.4,5.3-3.8,11.1-4.6,16.9
		c-0.8,5.8,0.9,7.7,6.5,9.1c7.6,2,15.1,1.3,22.7-3c0,2.1,0,3.5,0,4.9c0.4,21.6,0.4,43.3,1.4,64.9c0.8,16.5,2.8,32.9,4.2,49.3
		c0.1,1.3-0.3,3.4-1.2,3.8c-4.7,2.3-5.5,6.6-6.5,10.9c-0.5,2-1.1,4.1-1.7,6.4c-2.4-3.4-4.2-6.4-6.5-9.1c-0.4-0.5-1-0.8-1.7-1.1
		c-0.3-0.1-0.7-0.3-1.1-0.4c-0.4-0.1-0.7-0.3-1-0.4v0h0c0,0.1-0.1,0.2-0.1,0.3c-0.1,0.2-0.2,0.5-0.3,0.7c-0.5,1-1,2-0.9,2.9
		c0.7,3.7,1.4,7.6,3,10.9c3.2,6.4,2.3,10.2-4.7,14.1c-0.5-1.5-0.9-3.2-1.7-4.5c-2.2-3.6-4.4-7.2-7-10.6c-0.7-0.9-2.8-1.6-3.8-1.2
		c-0.9,0.4-1.8,2.5-1.6,3.6c1.1,5.7,1.9,11.6,4,16.9c2,5.3,2,6.6-3.5,9.4c-2.6-6.3-2.4-14-8.9-19.4c-0.9,1.8-1.8,3.1-2.3,4.5
		c-1.8,6.4-0.3,12.2,3.2,17.7c2.7,4.3,2.6,4.8-2.2,8.2c-4-12.1-9.6-23.7-10.6-36.7c11.3,1.7,18.2-2,20.2-11.1
		c-5.8,0.7-11.4,1.4-17,2c-0.1-0.4-0.2-0.8-0.3-1.2c1.8-1.2,3.4-2.7,5.4-3.6c3.5-1.5,7.2-2.5,10.8-3.9c6.7-2.4,9.5-6.7,9-14
		c-2.9,1.7-5.5,3.2-8.5,4.9c0.1-1,0.3-1.4,0.2-1.8c-0.2-2.6-0.4-5.1-0.6-7.7c-1.7,2.1-3.7,4.1-4.9,6.5c-1.3,2.5-1.8,5.4-3.1,9.4
		c-1.5-2.4-2.2-3.6-3-4.8c-0.8-1.1-1.7-2.1-3.5-4.3c-0.6,2.9-1.1,4.5-1.2,6.1c-0.1,2,0.6,4.3,0.1,6.1c-0.4,1.3-1.5,2.4-2.5,3.5
		c-0.3,0.4-0.7,0.7-1,1.1c-0.1-0.1-0.3-0.3-0.4-0.4c0,0,0,0,0,0c-0.1-0.1-0.3-0.3-0.5-0.4c-0.9-0.9-1.9-1.7-2.2-2.8
		c-0.9-3.2-1.5-6.6-1.6-10c-0.1-6.5,2.5-9.2,9-10.5c7.2-1.5,14.4-3.1,21.5-4.8c1.4-0.3,2.5-1.5,3.7-2.4c-1.3-0.9-2.6-2.6-4-2.7
		c-6.3-0.2-12.6-0.1-18.9,0c-2.3,0-4.5,0.3-6.9,0.4c1.1-8.2,1.2-8,8.4-9.5c11.7-2.3,22.4-7.2,32-14.4c3-2.2,2.7-5.1-0.8-6.3
		c-2.5-0.9-5.7-1.2-8.1-0.5c-7.3,2.2-14.3,5.1-21.5,7.8c-1.4,0.5-2.8,1.3-4.8,2.2c2.4-14.9,13.2-23.5,22.2-34.4
		c-7.5-0.2-12,3.9-16.7,7.5c-0.4-0.2-0.7-0.3-1.1-0.5c1.4-7.3,2.7-14.6,4.1-21.9c0.4,0.3,0.8,0.7,1.1,1c2.6-0.3,5.2-0.6,7.7-1l0,0h0
		c-0.2-0.2-0.3-0.5-0.5-0.7c-1.1-1.8-2.2-3.6-3.7-6c1.6-1.4,3.6-2.9,5.3-4.7c0.8-0.9,0.8-2.4,1.2-3.7c-1.6,0-3.4-0.3-4.8,0.2
		c-1.4,0.6-2.5,2.1-4.2,3.7c-0.3-6.4,0.1-12.2-3.8-16.6c-0.6,0-1.2,0-1.8,0.1c-0.3,4.9-0.6,9.8-0.9,15.1c-3.1-3-5.1-7.4-10.6-5.2
		c2.9,6.3,9.9,10.4,8.7,18.3c-1,6.6-1.7,13.3-2.6,19.9c-2.7-3.1-4-6.3-5.9-9c-1.7-2.3-2.1-6.7-7.1-6c0.2,1.2,0.2,2.1,0.4,2.9
		c2.9,8.5,5.6,17,8.8,25.4c1.7,4.6,1.1,8.5-1.6,13.1c-6.5-14.1-13.5-27.4-24.8-37.9c-0.2,2.6,0.2,4.8,1.1,6.9
		c6,13.6,12.1,27.1,17.9,40.8c1.2,2.9,1.2,6.4,1.8,9.7c-0.5,0.1-1.1,0.3-1.6,0.4c-0.6-1.2-1.2-2.6-1.9-3.7
		c-3.4-5.5-6.6-11.1-10.5-16.3c-2.2-3-5.4-5.4-8.5-7.6c-1-0.7-3.1-0.6-4.3-0.1c-0.5,0.2-0.6,2.7-0.1,3.8c0.9,2.3,2.2,4.5,3.5,6.6
		c5.5,9.2,11.2,18.4,16.7,27.6c1.9,3.2,2.5,6.2-0.4,9.6c-1.8,2.1-2.2,5.4-3,8.2c-0.7,2.5-1,5.1-1.5,7.7c-5.8-3.4-7.3-8.1-5.6-13.8
		c1.1-4,1.2-8.3,1.4-12.4c0-1.1-1.4-2.3-2.1-3.5c-1.2,0.9-2.7,1.7-3.6,2.8c-0.7,1-0.8,2.5-1.1,3.7c-0.5,2.3-0.9,4.7-1.3,7
		c-0.5,0-1,0-1.6,0c-0.3-1.7-0.8-3.3-0.9-5c-0.3-3.6-0.3-7.3-0.8-11c-0.5-4-3-5-6.9-3.5c0.4,3.6,0.8,7.1,1.2,10.6
		c-1.8-1.8-2.7-4.1-4.2-5.8c-2.4-2.9-5.1-5.6-8-7.9c-0.9-0.8-3-0.2-4.5-0.3c0.2,1.5-0.2,3.6,0.7,4.5c2.2,2.5,4.9,4.5,7.5,6.6
		c1.7,1.4,3.6,2.6,5.7,4.1c-5.1,1.4-9.4,2.5-13.6,3.7c0,0.5-0.1,1-0.1,1.6c1.7,1.3,3.3,3.5,5.1,3.7c3.8,0.4,7.8-0.2,11.7-0.3
		c1.4,0,3.4,0,4.1,0.8c1.4,1.7,2.1,3.9,3.4,6.6c-3.7-0.6-6.4-1.4-9.1-1.4c-2.8,0-5.8,0.4-8.5,1.4c-2.4,0.9-2.6,2.7,0,4.1
		c5.7,3,11.3,5.5,18.1,3.7c5.9-1.6,7.6-0.2,9.4,6.3c-8-0.3-16.1-1.9-24.9,2.3c2.6,1.6,4.2,3.4,6.1,3.7c6.3,1,12.8,2,19.1,1.8
		c4.4-0.2,7.3,0.5,9.2,4.5c4.4,9.9,8.9,19.9,13.3,29.8c0.1,0.2-0.2,0.5-0.5,1.1c-2.3-1.6-4.4-3.4-6.8-4.8c-2.8-1.7-4.1-3.8-3.6-7.3
		c0.4-2.3,0.4-4.8-0.2-7c-0.4-1.6-1.9-3-2.8-4.4c-1.2,1.4-2.8,2.6-3.3,4.3c-0.8,2.4-0.8,5.1-1.1,7.6c-4.6-0.1-5.8-2.2-4.6-6.3
		c0.6-2.1,1-4.4,1-6.5c-0.1-2.5-0.7-4.9-1.2-7.4c-2.1,1.9-4.6,3.7-6.3,5.9c-0.8,1.1-0.5,3.1-0.6,4.7c-0.1,1.7,0,3.4,0,5.1
		c-0.3,0.3-0.6,0.5-0.9,0.8c-1.9-2-4.1-3.7-5.7-6c-1.7-2.4-2.6-5.3-4.3-7.7c-0.8-1-2.7-1.7-4.1-1.6c-0.7,0.1-1.6,2.1-1.8,3.4
		c-0.3,1.8-0.1,3.7-0.1,5.9c-2.3,0.1-4.6,0.3-6.8,0.4c-0.1,0.4-0.2,0.8-0.4,1.3c5.5,2.8,10.9,5.6,16.6,8.5c-2,2.3-3.6,4.2-5.9,6.9
		c2.6,0.6,4.3,1.5,5.9,1.3c4.3-0.6,8.6-1.9,12.9-2.7c2.4-0.4,4.8-0.4,7.2-0.5c0.1,0.6,0.2,1.2,0.3,1.8c-6.3,1.8-13.3,2.4-17.8,8.4
		c2.9,3.4,6.1,4.7,10,3.1c3.8-1.5,7.4-3.6,11.3-4.9c2-0.6,5-0.7,6.4,0.3c4,3,7.8,6.4,10.9,10.2c2.5,3.1,3.9,7.1,6.3,11.7
		c-7.3-3.5-11.5-7.8-14-14c-1.2-3-4-5.3-6-7.9c-0.5,0.2-0.9,0.5-1.4,0.7c-0.3,2.7-0.5,5.4-0.8,8c-6.5,1-7.4,3.1-3.1,8.1
		c1.9,2.2,4.9,3.6,7.6,5c2.1,1.1,4.6,1.5,8.1,2.7c-2.5,1.5-4,2.4-5.4,3.3c-3.4,2-5.6,2.1-8-2.1c-1.7-3-5.6-5-8.8-6.6
		c-1.3-0.7-3.6,0.7-5.5,1.1c0.5,2,0.8,4.2,1.6,6.1c0.5,1.1,1.8,1.9,2.9,2.6c1.9,1.3,3.8,2.6,6,4c-1.3,2.1-2.4,3.8-3.4,5.3
		c-8.9-2.7-15.8,0.4-17.3,8c1.8,0.2,3.5,0.4,5.2,0.4c1.8,0,3.6-0.3,5.4-0.4c0.2,0.3,0.4,0.6,0.6,1c-1.6,1.4-3.2,2.7-4.7,4.1
		c-4,3.5-5.6,8-3.9,11.7c1.2,2.7,2.7,3.9,5.8,1.7c3.2-2.3,5.3-4.9,5.7-8.9c0.2-2.1,0.9-4.1,1.7-7.4c2,3.7,3.3,6.1,4.8,8.4
		c0.5,0.7,1.3,1.3,2,1.8c0.3,0.2,0.5,0.4,0.7,0.6h0c0.2-0.2,0.4-0.5,0.6-0.7c0.7-0.7,1.4-1.4,1.6-2.2c1.9-5.9,1.4-11.3-4.3-15.7
		c2.9-2.3,5.1-4.5,7.6-6.1c11.4-7.1,21.5-3.1,25.2,9.8c0.8,2.7,1.4,5.4,1.9,8.1c2.3,12.7,4.7,25.5,6.9,38.2c0.6,3.6,2.1,4.9,6.3,3.1
		c-0.8-7.9-2.1-15.9-2.4-24c-0.4-9.5,0-19.1,0.1-28.6c0-3.3,1.8-4.4,5.2-4.1c4.8,0.4,8.4-0.7,11.1-3.4c1.6-1.6,3-3.8,4-6.5v0
		c-0.3-0.2-0.5-0.4-0.8-0.6c-0.3-0.2-0.5-0.4-0.8-0.5c-0.5-0.3-1-0.5-1.5-0.7c-0.3-0.1-0.7-0.2-1-0.2c-0.3-0.1-0.7-0.1-1-0.1
		c-3.7-0.1-7.2,2.5-11.1,3.2c1.5-3.4,3.3-6.4,5.5-9c3-3.5,5.4-7.1,4.6-11.9c-0.3-1.5-1.9-2.8-2.9-4.2c-1.1-8.7-8.1-11.4-15.2-14.1
		c2.3-4.3,2.7-4.5,6.8-3.4c2,0.5,4,1.3,6,1.5c6,0.8,11.5-0.4,15.5-5.4c2.6-3.3,1.7-5.7-2.4-6.5c-3.7-0.7-7.5-0.9-12.8-1.4
		c2.6-2.4,4.3-5.1,6.1-5.2c3.7-0.2,7.4,1,11.4,1.7c0.1,1,0.3,2.1,0.3,3.3c0,15,0.2,30.1-0.2,45.1c-0.2,9.3-1.2,18.5-2.1,27.7
		c-1.4,14.7-3,29.3-4.4,44c-0.1,1.2,0.7,3.2,1.6,3.6c5.5,2.7,10.3-0.6,11.2-6.6c0.8-5.9,1.4-12.1,3.7-17.6
		c6.4-15.6,13.6-30.9,20.6-46.3c3.4-7.5,15.7-14.7,24.1-14.1c-0.4,4.5-1.1,8.9-1,13.4c0.1,5.1,3.5,9,8.8,10
		c0.8-7.1,1.6-14.2,2.5-22.2c3.2,1.5,6.2,2.6,8.6,4.5c0.5,0.4-1.4,3.9-2.4,5.9c-3.2,6.6-2,14.6,3,18.8c2.4-5.6,4.7-11.2,7-16.7
		c0.6,0.1,1.1,0.1,1.7,0.2c0.2,2.3,0.8,4.7,0.4,6.9c-1.2,6.6,1,15,5.8,20.3c1.1-9.5,4.7-18.8-0.9-28.7c4.9,0.8,8.9,1.5,12.9,2.1
		c-1.1-9.4-7.1-13.8-14.5-11.2c-5.1,1.8-8.6,0.7-12.5-4.3c1.8-0.8,3.5-1.5,5.1-2.4c2.9-1.6,6-3.1,8.6-5.2c1.4-1.1,1.9-3.2,2.9-4.9
		c-2.1-0.8-4.2-2.3-6.2-2.3c-7.1-0.1-11.7,3.8-14.8,10c-0.6,1.2-2.1,2.7-3.1,2.6c-3-0.2-5.9-1.2-10.1-2.1c2.5-2,4.2-3.3,5.8-4.6
		c3.2-2.7,6.6-5.4,9.6-8.4c0.9-0.9,0.8-2.6,1.2-4c-1.4-0.3-2.8-1-4.1-0.9c-8.8,0.7-14.1,5.9-17.2,13.8c-0.6,1.4-1.2,3.3-2.4,3.9
		c-3.4,1.9-7.1,3.2-11.4,5c5.8-11.9,13.2-20.8,26.3-22.9c-1.4-6.2,1.6-9.2,11-11.8c-0.2,1.8-1.1,3.9-0.4,5.1c1.7,3.2,4,6.2,6.2,9.1
		c0.2,0.3,2.1-0.1,2.2-0.4c0.8-3.3,1.6-6.6,1.8-10c0.1-1.7-1.1-3.4-1.7-5.2c7.7-0.6,7.9,0,9.2,6.5c0.6,3.1,3.1,5.8,4.7,8.7
		c0.6-0.1,1.2-0.3,1.7-0.4c0.9-2.7,2.9-5.7,2.4-8.1c-0.8-3.7-3.3-7.1-5.1-10.7c3.8-2.1,8.5-4.4,12.8-7.1c3.4-2.1,3.1-4.2-0.6-6
		c-5.2-2.6-13.7,1-16,6.6c-2.2,5.6-3.8,6.3-10.4,4.2c0.8-1.6,1.7-3.1,2.2-4.7c0.9-3.5,1.8-7,2.3-10.6c0.2-1.3-0.8-3.5-1.8-3.9
		c-1.1-0.5-3.3,0.1-4.4,1c-4.5,3.5-6.8,7.9-5.3,13.9c0.5,1.9,0.2,5.1-1.1,6.2c-2.2,1.9-5.4,2.5-8.2,3.7c-0.4-0.2-0.9-0.5-1.3-0.7
		c5.6-7.9,9.8-15.9,2-24.4c7.8-7,15.2-13.8,22.8-20.3c1.9-1.7,4.6-2.9,7.1-3.4c4.8-1,9.7-2.5,14.2,1.5c3.6,3.3,7.7,6.1,11.9,9.3
		c-2,2.4-4.4,5.3-6.8,8.2c0.1,0.5,0.2,1,0.3,1.5c4.2,0.1,8.5,0.4,12.7,0.2c7-0.3,7.9,0.5,7.6,7.8c0,1-0.2,2.1-0.4,3.1
		c-2.9,13.8-1.6,26.9,6.5,38.9c0.8,1.2,0.8,2.8,1.6,5.5c-5.7-2.7-10-4.7-15-7c1.5,6.3,2.6,11.7,4,17.1c3.7,14,9.9,26.1,24.2,32.4
		c1.6,0.7,3.1,3.7,3.2,5.6c0.8,14.6,1.2,29.2,1.9,43.7c0.1,1.1,0.7,2.1,1.3,3.1c0.2,0.3,0.4,0.7,0.6,1l0,0v0
		c0.2-0.2,0.4-0.4,0.6-0.7c0,0,0,0,0.1-0.1c0.2-0.2,0.5-0.5,0.7-0.7c0.8-0.8,1.5-1.6,1.7-2.4c1.8-13.6,3.4-27.1,4.8-40.7
		c0.4-3.4,1.5-4.9,5.1-4.9c7.8,0.1,14.1-3.6,19.6-8.7c2.4-2.2,4.7-4.5,7.1-6.7c6.3-5.9,6.3-5.8-0.9-10.8c-0.2-0.1-0.2-0.5-0.4-1.1
		c5.6-8.7,11.2-17.5,17.3-27c-2.5-0.5-3.8-0.8-5-1c-1.2-0.2-2.5-0.2-3.1-0.3c0-12.8,0-25.1,0-37.4c-10.6,10.1-16.9,23.3-29.8,30.8
		c-0.1-1-0.3-1.6-0.2-2.1c1.4-13.7,6.3-25.1,17.5-34.2c12.6-10.2,22.5-22.9,29.2-37.8c0.9-2.1,1.3-4.4,1.9-6.6
		c-0.5-0.3-1.1-0.5-1.6-0.8c-17.8,11.1-26.8,29.8-38.9,46.1c0-1.9,0.3-3.5,0.8-5.1C631.3,505.5,634.4,496.9,636.7,488.1z
		 M621.2,299.8c1.8,2.9,3.6,5.9,5.8,9.5c-4.6-0.6-8.6-1.2-12.5-1.7C614.4,303.5,614.7,303.2,621.2,299.8z M631.7,209.2
		c-2.2-2.5-4.5-4.8-6.4-7.5c-0.5-0.7,0.1-2.3,0.3-3.6c1.1,0.4,2.8,0.4,3.3,1.2c1.7,2.8,3.1,5.8,4.6,8.7
		C632.9,208.4,632.3,208.8,631.7,209.2z M639.9,201.3c-3.1-1.4-6.3-2.8-9.4-4.4c-0.6-0.3-0.6-1.9-0.8-3c1.1-0.2,2.5-1,3.1-0.5
		c2.8,1.8,5.4,4,8.1,6.1C640.6,200.1,640.3,200.7,639.9,201.3z M643.1,190.7c-2.7,0-5.4,0.3-8-0.1c-0.7-0.1-1.2-1.2-1.7-2.1
		c-0.2-0.3-0.4-0.6-0.5-0.9c0.2-0.1,0.5-0.3,0.7-0.4c0.7-0.5,1.5-1,2.1-0.8c2.7,0.6,5.4,1.7,8,2.6
		C643.4,189.4,643.3,190,643.1,190.7z M644,179.8c-2.7,1-5.4,2.1-8.2,2.8c-0.7,0.2-1.7-1-2.6-1.6c0.7-0.9,1.3-2.6,2.2-2.7
		c2.7-0.3,5.5-0.1,8.2-0.1C643.7,178.8,643.8,179.3,644,179.8z M639.6,168.2c0.4,0.6,0.8,1.2,1.1,1.8c-1.8,1.5-3.5,3.3-5.6,4.5
		c-0.9,0.5-2.5-0.1-3.7-0.3c0.3-1.3,0.3-3.3,1-3.7C634.7,169.4,637.2,168.9,639.6,168.2z M634.8,160.7c0.5,0.3,0.9,0.7,1.4,1
		c-1.9,2.4-3.7,4.9-5.8,7c-0.5,0.5-2,0-3,0c0.2-1,0-2.4,0.6-2.9C630.1,163.9,632.5,162.4,634.8,160.7z M622.2,162.1
		c1.3-2.3,2.9-4.5,4.4-6.8c0.6,0.3,1.2,0.5,1.8,0.8c-1,2.6-1.8,5.3-3,7.9c-0.3,0.6-1.9,0.6-3,0.8C622.3,164,621.8,162.8,622.2,162.1
		z M622.6,203.6c0.7,3,0.8,6.2,1.2,9.3c-0.6,0.1-1.2,0.3-1.8,0.4c-1.3-2.9-2.8-5.7-3.8-8.7c-0.3-0.9,1-2.3,1.5-3.5
		C620.7,202,622.4,202.6,622.6,203.6z M617.5,153c0.6,0.1,1.3,0.2,1.9,0.3c0,2.7,0.2,5.3-0.1,8c-0.1,0.8-1.5,1.4-2.2,2.1
		c-0.7-0.8-2-1.8-1.9-2.4C615.7,158.3,616.7,155.7,617.5,153z M599.2,158.1c1.9,2.1,4,4.1,5.8,6.3c0.4,0.5,0,1.7,0,2.6
		c-1.1-0.1-2.7,0.2-3.1-0.3c-1.7-2.3-3-4.9-4.5-7.4C598,159,598.6,158.5,599.2,158.1z M592.3,164.2c2.5,1.6,5.1,3.2,7.5,5
		c0.5,0.4,0.3,1.6,0.4,2.4c-0.9,0.1-2.3,0.7-2.8,0.3c-2.3-1.9-4.3-4-6.4-6C591.5,165.3,591.9,164.8,592.3,164.2z M586.9,172.4
		c2.9,0.7,5.8,1.2,8.6,2.2c0.2,0.1,0.3,0.2,0.5,0.4c0.1,0.2,0.3,0.4,0.4,0.7c0.1,0.3,0.2,0.6,0.3,0.8s0.2,0.6,0.3,0.8v0
		c-0.4,0.2-0.7,0.4-1.1,0.6c-0.6,0.4-1.3,0.7-1.7,0.6c-2.8-1.2-5.4-2.7-8.1-4.1C586.4,173.7,586.6,173,586.9,172.4z M585.5,184.9
		c0-0.8,0-1.5-0.1-2.3c2.9-0.5,5.7-1.2,8.6-1.4c0.8,0,1.7,1.6,2.5,2.5c-0.9,0.6-1.8,1.7-2.6,1.7
		C591.1,185.5,588.3,185.2,585.5,184.9z M587.7,194.9c-0.3-0.7-0.6-1.4-0.8-2.1c2.9-1.4,5.8-2.9,8.8-4c0.4-0.1,1,0.2,1.6,0.7
		c0.2,0.2,0.5,0.4,0.7,0.5c0.1,0.1,0.2,0.2,0.4,0.2l0,0c-0.2,0.3-0.3,0.7-0.5,1c-0.1,0.2-0.2,0.5-0.3,0.7c-0.2,0.3-0.4,0.5-0.6,0.6
		C593.9,193.5,590.7,194.1,587.7,194.9z M592.3,204.5c-0.3-0.4-0.7-0.8-1-1.2c0.9-4.1,3.8-6.5,7.4-8.2c0.8-0.4,2.1,0.5,3.1,0.7
		c-0.3,1-0.3,2.4-1,2.9C598,200.8,595.1,202.6,592.3,204.5z M607.5,203.1c-1.9,2.8-4.1,5.4-6.2,8.1c-0.6-0.4-1.3-0.8-1.9-1.3
		c1.5-3.1,2.9-6.2,4.7-9.1c0.4-0.7,2.2-0.5,3.4-0.7C607.5,201.1,608,202.4,607.5,203.1z M608.2,163.1c-0.9-2.8-1.5-5.7-2.2-8.6
		c4.6,1.1,5.4,4.2,5.8,7.3c0.1,0.7-0.8,1.8-1.5,2.3C609.9,164.4,608.4,163.6,608.2,163.1z M612.4,214.4c-0.8-0.1-1.6-0.2-2.4-0.3
		c0.3-3.5,0.4-7,1-10.4c0.1-0.7,1.9-1.2,3-1.7c0.5,0.9,1.5,2,1.3,2.8C614.6,208,613.5,211.2,612.4,214.4z M612.3,321.3
		c3.8,1.5,7,2.7,10.1,4c0,0.4-0.1,0.9-0.1,1.3c-3.4,1.3-6.9,2.7-11.1,4.3C611.7,327.5,612,324.9,612.3,321.3z M610.1,341.4
		c5.2,0,9.6,0,14.7,0c-5,5.3-9.6,10.2-14.7,15.6C610.1,351,610.1,346.1,610.1,341.4z M371,514.3c1.6,7.5,2.9,14,4.3,20.6
		C368,528.4,367.1,524.6,371,514.3z M417.6,577.4c-1.5,5-3.3,10.8-5.3,17.3c-3.4-3.9-6.5-7.5-9.7-11.1c-4,4.2-4.5,10.6,0,13.8
		c6.7,4.8,5.7,9.8,2.6,15.7c-0.3,0.6-0.5,1.3-0.7,2.2c-0.7-0.3-0.9-0.3-0.9-0.4c-2.9-10.6-6.1-21.1-8.5-31.8
		c-1.2-5.2,1.9-9.6,4.9-13.5C406.1,572.2,412,574.9,417.6,577.4z M430.6,531.1c2.2-3.3,4-6,6-9.1C439.3,530,438,531.9,430.6,531.1z
		 M476,507.9c-2.5-3.2-4.7-6-7-8.9c-0.5,0.2-1,0.3-1.5,0.5c0.1,2.2,0,4.5,0.5,6.6c1,4,1.9,8.1,3.6,11.8c4.3,9.4,2.2,18.8,0.4,28.2
		c-4.4,22.3-12,43.6-21.2,64.4c-0.3,0.6-0.8,1.2-1.1,1.8c3.7-53.5-1.1-106.6-7-159.8C460.5,456.2,479.5,487.7,476,507.9z
		 M502.4,450.7c1.5,7.9-9,30.9-16.3,35.7C487.8,472.4,492.1,460.6,502.4,450.7z M499.6,535.9c-0.5,0.1-1.1,0.2-1.6,0.3
		c-1.1-1.7-2.2-3.4-3.3-5.1c-6.2,4.8-6.4,9.3-0.8,16.9c-4.2,3.8-8.4,7.6-11.8,10.7c0.9-3.9,2.1-9.3,3.3-14.8
		c0.2-0.9,0.5-1.7,0.4-2.6c-0.8-10.5,6.8-15,14.9-19.7C500.4,526.4,500,531.1,499.6,535.9z M492.2,518.3c-1.2,0.5-2.8,0.2-4.2,0.2
		c0-1.7-0.5-3.7,0.2-5c2.3-4.1,5.1-7.9,7.6-11.9c1.9-3,3.8-6.1,5.6-9.2c-0.3-0.3-0.7-0.6-1-0.9c-4.3,3.2-8.6,6.4-12.9,9.6
		c-0.4-0.3-0.9-0.6-1.3-0.8c0.6-2.1,0.5-4.8,1.8-6.3c7.4-8.3,11.9-18.2,15.9-28.3c0.5-1.3,1.9-2.2,2.9-3.3c0.5,1.5,1.3,3.1,1.4,4.6
		c0.3,7.2-0.2,14.4,0.8,21.5C511.4,504.2,505.8,513.3,492.2,518.3z M516.1,491.7c-1.8-7.4-4.8-14.7-3.2-22.7c0.5-2.5,2.4-3.8,5-2.6
		c3.8,1.7,7.5,3.7,11.3,5.7c-4.4,7.3-8.2,13.5-12,19.7C516.9,491.7,516.5,491.7,516.1,491.7z M524.7,492.2c1.9-4.8,3.8-9.5,6-15
		c3.3,4.4,5.9,7.9,8.1,10.8C535.6,488.9,530.5,490.4,524.7,492.2z M595.7,330c-0.2-0.6-0.1-1.6,0.2-2.1c4.1-6.2,4.5-12.6,0.4-19.2
		c6-0.1,8.3,2.5,7.9,7.4c-0.7,8.4-1.1,16.7-1.6,25.1c-0.1,1.7-0.3,3.4-0.4,5.1c-0.4,0.1-0.7,0.1-1.1,0.2
		C599.3,341,597.4,335.5,595.7,330z M553.2,455.1c-0.4-10.2,1.7-12.8,9.7-10.7c-3,4.1-5.7,7.8-8.4,11.6
		C554,455.6,553.6,455.4,553.2,455.1z M561.1,471.1c-0.4-0.2-0.8-0.3-1.1-0.5c1.9-7.9,3.7-15.8,5.7-23.7c0.2-0.8,1.4-2,2-1.9
		c4.2,0.4,8.4,1.1,12.6,1.8c0.4,0.1,0.9,0.3,1.1,0.6c1.6,1.9,0,14.6-2.1,16c-1.9,1.4-3.8,2.7-6.5,4.5c0-2.3,0-3.7,0-6.4
		C568.4,465.2,564.8,468.1,561.1,471.1z M573.1,495.9c-3.5,0.6-7.4-4.8-5.6-8.4c4-7.6,8.6-14.9,12.9-22.2
		c3.7,9.9,7.2,19.3,10.3,27.6C585.3,493.8,579.2,494.9,573.1,495.9z M575.6,514.9c6.6-4.2,12.3-7.8,18.5-11.7
		c7.1,25.8,12.6,52.1,13,79.3C601.2,557.7,591.2,534.9,575.6,514.9z M613.6,549.2c-0.6,0.1-1.1,0.2-1.7,0.4c-0.5-1.6-1-3.3-1.5-4.9
		c-3.9-14.9-7.8-29.8-11.7-44.8c-0.9-3.6-0.9-6.8,0.8-10.5c2.9-6.3,2.1-13.3-0.1-19.9c-2.3-7.1-5.3-13.9-8.2-21.3
		c2.3-0.2,4.5-0.4,7.9-0.8C606.2,481.1,614.8,514.4,613.6,549.2z M620.7,518.4c-0.1,0.3-0.6,0.5-1,0.7c-2.6-5.9-11.9-70.1-10-74.7
		c1.6,4.4,2.9,7.6,4,10.9c3.8,10.7,7.8,21.3,17.3,28.6c0.7,0.5,1.3,1.9,1,2.6C628.4,497.2,624.6,507.8,620.7,518.4z"/>
	<path fill="#C49A6C" d="M1178,562.1c-9.6,8.4-21,11.2-33.3,10.1c-11.3-1-16,5-19.5,13.1c-0.6,1.3-1.2,2.6-1.8,3.9
		c-0.5-0.2-1-0.4-1.6-0.6c3.1-15.2,6.3-30.4,9.6-46.3c1.8,1.2,2.5,1.7,3.2,2.2c4.8,3.4,4.7,3.3,8.6-1.3c1.4-1.6,3.4-2.8,5.3-3.7
		c3-1.5,6.2-2.7,9.3-3.9c4.1-1.6,4.7-4.7,2.3-7.6c-2.8-3.5-6.5-6.3-10.3-9.9c-0.2,0.6,0-0.1,0.3-0.8c3.5-7.1,5.2-14.3,2.6-22.2
		c-0.7-2.2,0.2-4.9,0.4-7.4c0.1-1,0.7-2,0.6-3c-0.2-1.3-0.8-2.6-1.2-4c-1.2,0.5-2.7,0.7-3.7,1.5c-3.3,2.7-6.7,5.4-9.6,8.5
		c-4.6,4.9-8.9,10.1-13.1,15.3c-1.2,1.4-1.8,3.3-2.9,5.5c-7.2-4.5-13.6-1-20.6,2.1c-0.2-10.5-0.5-20,0.9-29.5c1.8,2.4,2.6,5,3.7,7.4
		c4.3,9,17.1,10.5,22.1,1.9c2.6-4.5,2.7-10.7,0.2-15.9c-2.1-4.4-4.9-4.6-8.1-0.9c-1.4,1.7-2.6,3.6-3.9,5.4c-2,2.7-4.3,3.2-7.2,1.2
		c-2.9-2-3.2-4.3-1.1-7c1.5-2,3.1-3.9,4.5-6c2-2.9,4.7-3.8,8.1-3.1c1.7,0.4,3.5,0.6,5.2,0.9c7.7,1.3,15.5,2.6,22.9-1.2
		c2.4-1.2,4.3-3.2,6.5-4.8c-4.2-0.6-7.7,0-11.2-0.1c-0.5,0-1-0.2-1.5-0.5c-0.3-0.2-0.7-0.4-1-0.7c-0.5-0.4-1-0.7-1.5-1
		c0.2-0.1,0.3-0.2,0.5-0.3c1.1-0.7,2.2-1.8,3.2-1.8c7.4,0.2,19.3-12.4,20.8-18c-3.2-1-4.8-3-4.3-6.5c0.1-1-0.7-2.2-1.1-3.2
		c-0.5-1.3-1.8-3.4-1.5-3.8c1.1-1.1,2.9-1.4,4.3-2c1.4-0.7,4-1.5,3.9-2.2c-0.1-3.7,4.5-8.3-1.7-11.2c-0.3-0.1-0.2-0.8-0.4-1.2
		c-0.7-1.2-1.4-3.5-2.1-3.5c-1.9,0-3.8,0.7-5.5,1.6c-1.2,0.6-2.2,1.8-3.7,3c-0.6-8.7-0.6-8.6,7-9.9c1.6-0.3,3.2-0.8,4.6-1.4
		c4-1.8,8.2-7.5,6.9-10.3c-1.9-4-0.8-7.6-0.4-11.5c0.1-1.3-0.4-2.7-1-4.1c-0.3-0.8-0.7-1.7-1-2.5c-0.1,0-0.3,0.1-0.4,0.1
		c-0.8,0.3-1.7,0.6-2.5,0.9c-0.6,0.2-1.3,0.4-1.9,0.7c-0.9,0.4-1.8,0.8-2.6,1.4c-1.3,0.9-1.4,3.2-2.4,4.6c-2.6,4.1-5.4,8.1-8.2,12.3
		c-6.9-7.5-7.5-11.3-2.7-19c2.7-4.4,6.2-8.2,9.2-12.4c3.9-5.4,5.8-11.2,4.3-17.9c-0.3-1.2-0.9-3.1-1.7-3.3c-5.2-1.2-5.9-5.7-7.7-9.4
		c-2.7-5.7-10.1-7.9-14.8-3.6c-2.7,2.5-4.5,6.4-5.7,9.9c-1.4,4.1-1.9,8.6-2.3,13c-0.5,4.6-0.7,9.3-0.4,14c0.2,3.6,1.3,7.1,2,10.4
		c-2.1,0.3-4.3,0-5.5,1c-3.1,2.6-5.7,5.8-8.6,8.6c-8.3,8-8.3,14.1-0.6,22.8c2.8,3.1,5.4,6.8,6.9,10.6c3.5,8.8,2.3,10.6-6.6,12.9
		c-0.5,0.1-1.1,0.1-1.7,0.2c0.8-2.6,3.1-4.8,3.1-7.6c0,0,0,0,0,0c0-0.2,0-0.4,0-0.6c-0.1-0.5-0.2-1-0.4-1.5
		c-0.1-0.3-0.2-0.5-0.4-0.8c-0.9-1.5-0.7-3.7-0.9-5.6c-0.2-2,1.1-4.5-2.4-5.2c-1.8-0.4-3.5-1.3-6.2-2.4c-2,3-4.4,6.2-6.3,9.8
		c-1.8,3.5-3.1,7.3-4.9,11.7c-1.2-7.7-2-14.5-3.3-21.3c-0.6-2.9,0.3-4.2,2.9-5.4c6.8-3.1,12.2-8,14.8-15c3.4-9.2,6.4-18.6,9.1-28
		c1.2-4.2,1.3-8.7,1.8-13.1c-0.6-0.4-1.2-0.7-1.8-1.1c-4.4,3.5-9.2,6.6-13.1,10.7c-10,10.7-14,23.8-14.8,38.3
		c-0.7-0.9-1.4-1.8-1.4-2.6c0-6.4-1-13.2,0.6-19.2c6.3-24.8,13.4-49.3,20-74.1c1.2-4.5,3.9-6,8-6.9c9.8-2.1,17.8-7,23.1-15.7
		c1.1-1.9,0.8-4.6,1.2-6.9c-2.5,0-5.7-1.1-7.3,0.1c-6.1,4.3-11.7,9.3-17.3,14.1c-1.3,1.1-2.2,2.5-3.3,3.8c-0.3-0.2-0.7-0.4-1-0.6
		c0.6-1.7,0.9-3.6,1.8-5.1c3-5.2,6.8-10.1,9.4-15.5c3.3-7,6.3-14.2,8.5-21.6c0.7-2.4-0.5-6.5-2.4-8.2c-2.8-2.5-6.1-0.1-8.6,2.1
		c-4.3,3.9-6.7,8.9-7.7,14.6c-0.5,3.2-0.9,6.4-1.3,10.1c-3.7-6.3-4-6.5-8.3-6.5c-0.6,7.7-1.3,15.6,2.4,22.5
		c2.5,4.6,2.4,8.3,1.1,12.8c-2.5,8.4-4.9,16.9-7.3,25.3c-1.3-1.4-1.5-2.8-2-4.1c-2-5.3-4-10.7-6.4-15.9c-0.7-1.6-2.9-2.4-5.2-4.2
		c-0.4,3.8-0.7,6.2-0.9,8.6c-0.4,0-0.8,0.1-1.2,0.1c-4.8-13.7-3.7-28.2-4.9-42.1c4.4-0.8,8.1-1.2,11.6-2.3
		c7.1-2.2,13.9-4.9,12.8-14.5c-0.1-1,0.2-2.1,0.5-3c2.6-7.8-6-11.6-6.6-18.3c0-0.5-2-0.7-3.1-1.1c-5.3-1.8-6.9-5.8-3.3-10.1
		c1.8-2.2,4.4-3.7,6.8-5.2c2.3-1.3,4.9-2,7.2-3.3c3.2-1.9,3.9-4.9,3.1-8.4c-0.8-3.4-2.4-5.9-6.5-6c-1.5,0-3.1-1.3-4.5-2.2
		c-3.1-2.1-6.3-1.6-7.5,2c-1.1,3.3-1.8,6.9-1.9,10.3c-0.3,7.9-4.2,14.4-7.4,21.7c-1.2-8.3-2.3-16-3.3-23.6c0-0.3-0.2-0.6-0.1-0.9
		c0.4-1.1,0.7-2.2,1.3-3.2c3.1-4.8,6.4-9.3,9.3-14.2c2.7-4.5,1.9-6.9-2.8-9.2c-3-1.5-6.3-2.6-9.2-4.3c-6-3.7-8-4-13.3,0.4
		c-2.7,2.2-5.2,4.8-7.2,7.7c-4.3,6.3-2.6,13.1,4,17.1c2.2,1.4,4.8,2.3,7.1,3.6c1.1,0.6,2.7,1.2,3.2,2.2c3.8,8.1,4.3,16.7,4,26.6
		c-1.3-2-2-2.8-2.4-3.7c-3.1-6.7-6.1-13.4-9.2-20c-2.1-4.6-4.7-5.2-8.6-2c-2.6,2.2-5.1,4.5-7.6,6.8c-3.9,3.8-3.1,7.9,2.1,9.8
		c1.9,0.7,4,1.1,5.9,1.8c4.8,1.9,8.5,5.7,7.4,9.3c-1.8,5.8,0.4,11,1.1,16.4c0.9,7,3.3,13.1,10.3,16.5c0.9,0.4,1.8,1.7,1.9,2.6
		c0.4,4.5,0.5,9,0.8,14.2c-3.2-5.9-5.8-11.3-9-16.2c-3.2-4.9-7.3-9.1-13.9-11.3c1.9,18.6,7.2,34.3,21.5,45.9
		c1.8,1.5,3.6,3.7,4.1,5.9c1.3,5.9,1.7,11.9,2.9,17.8c2,10.3,1.7,21.2,7.6,30.6c0.4,0.7,0.6,1.8,0.4,2.6c-1.7,6.5-3.6,12.9-5.6,20.3
		c-3.4-6.1-7.2-10.3-5.1-17.9c4-14.6-0.5-27.3-12.6-37c-0.8-0.6-1.8-1-3.6-2c3.3,13.8,6.4,26.7,9.8,40.6c-3.5-2.8-5.9-4.6-8.2-6.6
		c-0.6-0.6-1.1-1.8-1-2.6c1.2-6.4-0.9-12.2-2.9-18.1c-0.6-1.8-0.4-4-0.1-5.9c1.9-9.3,2.4-18.4-1.3-27.4c-0.8-1.8-2.1-3.4-3.9-6.2
		c-1.4,3.7-2.3,6-3.2,8.3c-0.4-0.1-0.8-0.2-1.3-0.3c0.3-5.7,0.7-11.4,0.7-17c0-6.6-0.1-13.2-0.6-19.8c-0.2-2.7-1.7-5.7-5.3-5.5
		c-3.3,0.2-5.3,2.3-6,5.6c-0.3,1.6-0.5,3.2-0.4,4.8c0.3,3.4,0.8,6.7,1.2,10.1c0.6,4.5,1.1,9,1.7,13.5c-0.4,0.1-0.8,0.2-1.2,0.3
		c-4.2-7.6-12.6-13.3-10-23.9c0.3-1.1,0-2.4-0.1-3.5c-1-9.6-9.1-20.1-17.3-21.7c-2.7,11.6,1,21.7,6.9,31.6c-1.6-0.6-2.5-1.7-3.7-2.4
		c-1.5-0.9-3.8-2.5-4.7-2c-1.5,0.8-2.9,3.2-2.9,4.8c0,4.5,0.7,9,1.2,13.6c0.2,1.9,0.4,3.7,0.5,5.6c0.2,2.4-0.5,5.2,0.7,7
		c2.6,4.1,6,7.9,9.3,11.5c1.1,1.2,2.9,1.7,4.4,2.5c-0.6,0.7-1.1,1.5-1.7,2.2c-2.2-0.6-4.3-1.4-6.5-1.8c-2.6-0.5-5.2-0.8-7.8-0.8
		c-0.6,0-1.9,1.8-1.8,2.6c1.2,7.4,11.2,11.2,16.9,6.4c0.8-0.6,1.5-1.2,2.6-2.1c2,3.2,3.9,6.1,6.2,9.8c-2.3-0.3-3.8-0.5-5.2-0.6
		c-3.6-0.4-7.4-1.4-10.9-1c-2.4,0.3-4.6,2.5-6.8,3.8c1.7,1.9,3,4.4,5,5.5c5.8,3.1,11.4,1.2,16.7-1.8c5-2.8,7.2-2,9.7,3.5
		c-8.1,1.3-15.6,4.1-23.1,9.6c8.6,0,16.1,0.9,23.2-0.3c5-0.8,8.3-1,13.1,1.9c7.8,4.7,13.5,10.9,18.2,18.2c4.6,7.1,7.4,14.9,8.7,22.9
		c-6.1-4.2-11.7-9.3-18.2-12.1c-6.7-2.9-14.3-3.5-21.5-5.2c0.6-2,1.4-4.5,1.8-7.1c0.1-0.9-0.8-2.7-1.3-2.7c-1.1-0.1-2.5,0.5-3.3,1.3
		c-1,1-1.5,2.6-2.8,4.8c-1.1-2.4-1.7-3.9-2.4-5.2c-0.5-1-1.4-2.5-2-2.5c-1.1,0-2.4,0.9-3,1.9c-3.7,5.3-5.7,10.8-2.1,17.3
		c2.1,3.7,1.1,7.2-2.6,10.6c-2.2-6.2-6.7-8.4-12.5-8.5c-0.6,0-1.2-0.2-1.7-0.4c-4.4-1.2-6.2,0.1-6.4,4.7c-0.2,3.4,1,6.1,4.1,7.8
		c2.8,1.6,5.8,2.9,8.7,4.3c4,1.9,5,4.9,3.2,9.7c-1.8-1.5-3.1-2.7-4.6-3.8c-4.2-3.2-6.1-2.5-7,2.7c-0.1,0.7-0.3,1.6-0.8,2
		c-3.7,3.2-2.2,6.7-0.4,9.9c1.4,2.4,3.5,4.4,5.1,6.7c0.6,0.8,1.1,2.6,0.7,3c-2.3,2.3-4.9,4.4-7.4,6.5c-0.4-0.3-0.8-0.6-1.2-0.8
		c2.8-6.3,1.9-12.2-1.8-17.7c-0.8-1.1-2-2.5-3.2-2.7c-3.3-0.6-6.8-0.9-10.2-0.9c-0.8,0-1.9,1.1-2.5,2c-0.7,1-1.1,2.3-1.6,3.6
		c-4.9-3.7-4.9-3.6-2-8.4c1.5-2.4,3-4.7,4.4-7.2c4-7.4,7.7-15,8.1-23.6c0.1-1.5-1-3.1-1.5-4.6c-1.5,0.7-3.5,1-4.5,2.1
		c-3.2,4-6.5,8-8.9,12.6c-2.8,5.3-4.6,11-6.7,16.5c-13.9-21.2-26-31.7-34.1-29.8c12.3,14.7,14.3,18.8,18.5,33.4
		c2.4,8.3,5.9,16.2,8.5,24.5c0.6,2-0.2,4.4-0.4,7.2c-5.6-3.5-8.4-3.3-8.4-0.2c0,4.9-3,6.7-6.5,8.4c-3.5,1.7-4.9,4.2-4.5,8.2
		c0.3,3,0.1,6.1,0.1,9.2c-0.6,0-1.2,0.1-1.7,0.1c-0.2-1.8-0.7-3.5-0.7-5.3c-0.1-1.9,0.8-4,0.2-5.7c-1.5-4.2,0.4-6.4,3.5-8.8
		c6.7-5.2,6.6-8.8,0.4-14.6c-2.2-2.1-3.8-1.8-5.4,0.4c-1,1.5-2,3-3.5,5.2c-2.2-4.8-2-8.4,1-11.7c2.2-2.4,5-4.3,6.8-6.9
		c1.5-2.3,2.6-5.3,2.5-8c-0.2-4.4-3.5-5.6-7-2.9c-1.4,1.1-2.9,2.1-4.6,3.4c-0.6-2.9-0.9-5.1-1.4-7.2c-1.3-5.1-7.4-9.7-12.6-9.2
		c-1.3,0.1-3.4,1-3.5,1.8c-0.3,1.2,0.5,3.1,1.4,4.1c2.9,3.1,6.2,5.8,9.2,8.9c1.2,1.3,1.9,3.2,2.8,4.8c-0.3,0.2-0.7,0.5-1,0.7
		c-1-0.6-1.9-1.2-3-1.7c-2-0.9-4.5-3.6-5.9-0.6c-1,2-0.4,5.4,0.7,7.5c1.1,2,4.1,2.8,5.7,4.6c1.5,1.6,2.4,3.9,3.5,5.8
		c-6.5-1.2-11.9-2.2-18-3.3c0,6.4,1.3,10.9,4.7,14.7c3.3,3.6,7.6,4.7,12.3,5.3c1.2,0.1,2.2,1.9,3.3,2.8c-1.3,0.6-2.5,1.8-3.8,1.8
		c-1.8,0-3.7-0.8-5.4-1.5c-4.5-1.9-11.2-0.3-13.7,3.8c-0.7,1.1-0.4,4.2,0.3,4.5c6.7,3.1,10.3,8.6,12.4,15.4c0.1,0.4,0.9,0.7,0.8,1
		c-0.4,1.6-0.6,3.4-1.4,4.8c-0.5,0.9-1.3,1.6-2.2,2.4c-0.3,0.3-0.7,0.6-1,0.9c-0.2,0.1-0.3,0.3-0.5,0.4h0l0,0c0.6,0.4,1.1,1,1.7,1.5
		c0.9,0.9,1.9,1.7,2.9,1.8c6.2,0.7,12.5,1,18.7,1c3.2,0,6.5-1,8,3.4c-0.9,0.2-1.6,0.4-2.3,0.5c-8.9,1.8-8.9,1.8-4.8,9.9
		c3.9,7.8,12.3,8.5,17.7,1.6c0.8-1,1.7-1.9,3.5-4c2.4,19,1.9,36.8,1.1,54.5c-10.9-0.7-11-0.3-12.5,9.8c-0.7,4.4-2.9,8.6-4.5,12.8
		c-3.3-5.9-2.1-11,0.5-16c3.2-6.3,3.8-12.8-0.5-18.8c-2.7-3.8-2.1-7.1,0.4-10.5c2.2-2.9,4.7-5.6,7.1-8.4c0.8-0.9,1.6-1.9,3-3.6
		c-13.2-1.3-17.5,7.2-21.1,16.8c-3.2-3.6-4.7-6.5-2.9-10.8c1.2-2.9,1-6.3,1.4-9.6c-0.4-0.2-0.9-0.3-1.3-0.5c-1.7,1-3.3,2-5,3.1
		c-0.3-0.2-0.7-0.4-1-0.5c0.6-1.8,0.9-3.8,1.9-5.3c4.6-6.7-5.5-4.7-5.1-8.9c-1.3-0.1-2.6-0.2-3.9-0.3c-0.2,0-0.4,0.4-0.7,0.5
		c-0.9,0.4-1.9,0.9-2.9,1.1c-2.6,0.3-4.5,1.2-4.8,4.2c-0.2,3.1-0.5,5.9,3.3,7.7c2.7,1.2,4.7,3.7,7.1,5.7c-0.3,0.4-0.6,0.9-0.9,1.3
		c-3.4-1.2-6.9-2.3-10.5-3.6c-0.5,8.3,1.2,10.5,9.6,12.7c5.4,1.5,6.8,3.1,7,8.6c-4.2,0.6-8.5,0.8-12.6,1.8c-3.6,0.8-6.6,6.5-5.4,9.3
		c1.6,3.7,3.8,7,7.8,8.4c4.2,1.5,8.4,3.2,12.6,4.8c-0.9,3.4-2.3,6.3-6.4,7.5c-1,0.3-1.7,2.5-1.9,3.9c-0.5,3.8-0.6,7.7-1,12.6
		c-5.3-4.5-9.6-8.3-13.9-12c-0.4,0.3-0.9,0.6-1.3,0.9c0.1,1.5,0,3.1,0.3,4.5c1.6,8.2,6.1,15,11.4,21.2c7.3,8.5,15.1,16.5,22.6,24.8
		c1.2,1.3,2.2,2.8,3.3,4.2c-0.3,0.3-0.5,0.6-0.8,1c-1.2-0.6-2.9-0.8-3.5-1.7c-4.8-7.3-12-9.2-20.1-8.9c-1.5,0-3.8,1.1-4.3,2.3
		c-0.4,1,0.9,3.1,2,4.4c6.8,7.9,15.9,9.5,25.7,8.7c5.7-0.4,9.1,1.7,11.9,7.7c-9.6,0-19.1-5.4-29,0.7c1.3,1.4,2.1,2.6,3.2,3.5
		c7.6,6.1,16.2,6.7,24.7,2c2.4-1.3,4.8-2.4,7.7-3.8c1.2,5.3,2.2,9.7,3.2,14.1c1.6,6.9,2.8,7.7,9.7,6.9c4.7-0.5,4.8-4.6,5.8-7.8
		c2.5-7.8,2.4-7.8,10-5.4c0.6,0.2,1.3,0.7,1.7,0.5c2.5-1.3,5.1-2.5,7.3-4.1c0.7-0.5,1.1-2.7,0.6-3.4c-1.7-2.3-1.2-4,0-6.4
		c0.7-1.4,0.1-4.2-1-5.4c-1.1-1.2-3.6-1.7-5.3-1.4c-4,0.7-4.7,4.4-5.7,7.7c-0.9,3-1.9,5.8-6.5,6c1.3-4.7,2.4-8.9,3.7-13.1
		c0.2-0.7,1-1.5,1.7-1.8c4.7-1.8,9.4-3.5,14.3-5.4c0.7-5-1-8.1-6.3-10.7c2.3-3.3,1.3-6.3-1.1-9.1c-5.2-6.4-5.2-6.8,0.1-13.3
		c0.6-0.8,1.5-1.5,1.9-2.4c1.2-2.8,0.9-5.5-1.6-7.5c-1.4-1.1-2.8-2.3-4.2-3.4c0.1-0.5,0.2-0.9,0.3-1.4c-4.3,1.5-8.5,3.1-13.2,4.8
		c0.6-6.3,3.3-8.6,9.3-9.1c4.9-0.4,9.7-0.9,15.4-1.5c-1.8-2.1-2.8-3.4-4.1-5c1.2-0.9,2.4-1.6,3.2-2.5c0.5-0.6,1-1.3,1.5-2
		s0.9-1.4,1.3-2.1l0,0c-0.7-0.4-1.4-0.9-2.1-1.3c-0.7-0.4-1.4-0.9-2.1-1.3c-1-0.6-3-1-3.1-1.6c-0.5-4-3.2-2.9-4.8-1.8
		c-4.3,3-8.4,6.3-12.3,9.8c-2.2,2-3.7,4.7-5.9,7.7c0-8.5-0.6-16.1,0.2-23.6c0.5-5.1,2.4-10.3,4.5-15c2.3-5.1,3.3-4.7,8-1.7
		c4,2.6,8.2,5,12.7,6.6c2.7,0.9,6.2,0.2,5.2-4.5c-0.1-0.7,0.3-2,0.9-2.3c3.6-2.2,3.6-5.2,1.4-9.1c2.5,0,4.4-0.1,6.2,0
		c3.6,0.3,6.4-1.3,6.8-4.7c0.3-2.8,1.1-4.6,3.3-6.2c0.9-0.7,1.2-2.6,0.9-3.8c-0.1-0.5-2.2-0.9-3.3-1c-1.6,0-4,1.1-4.6,0.4
		c-3-3.6-5.8-1.3-8.7-0.3c-2.8,0.9-5.6,1.6-8.4,2.4c-0.2-0.4-0.3-0.9-0.5-1.3c2.5-3.9,4.8-7.5,10.7-7.3c7.8,0.3,9.5-1.7,7.6-7.7
		c1.8-0.8,3.8-1.4,5.5-2.5c0.7-0.5,1.4-1.1,2-1.7c0.6-0.6,1.2-1.3,1.9-1.9c-0.4-0.2-0.8-0.5-1.3-0.7s-0.8-0.5-1.3-0.8
		c-0.8-0.5-1.7-0.9-2.5-0.9c-3.3-0.1-6.6,0.7-10.7,1.2c1.4-1.8,2.2-2.9,3.1-4c3.2-3.5,6.2-7.1,6.5-12.2c0-0.7,0.5-1.4,0.9-2
		c2.9-4.6,2.4-5.6-3.3-6.2c-0.4,0-0.9,0-1.3-0.2c-5.8-2.1-6.8-1.9-9,3.7c-1.7,4.3-2.8,8.8-4.4,13.6c-1.1-2.2-2.2-4.2-3.6-7.1
		c-1.4,2.1-2.5,3.3-2.9,4.7c-1.7,5-1.3,9.8,1.3,14.5c0.8,1.5,2,3.6,1.5,4.8c-2.4,5.5-5.3,10.8-8,16.2c-0.4-0.2-0.9-0.4-1.3-0.5
		c0.3-1.5,0.6-3.1,1-4.6c2.2-7.3,1.9-7.9-4.9-9.2c-1.1-5.7-2.6-6.3-7.6-3.3c-0.6,0.4-1.2,0.8-1.9,1.1c-2.6,1-4.7,0.2-4.9-2.6
		c-0.3-4.5-0.1-9-0.1-14c4.6,0,9,0,14,0c-1.8-5.2-5.7-7.2-9.6-9.3c-1.6-0.9-3.8-2-4.2-3.4c-1.6-5.9,2.2-19,10.4-21.3
		c0.8,2,1.5,4.1,2.5,6c1.5,3,2.9,6.2,5.1,8.6c2.2,2.5,5,2.9,7.9-0.3c2.6-2.9,4.2-4.9,0.2-7.6c-0.3-0.2-0.4-0.7-0.7-1.2
		c1.2-1,2.4-2,4.5-3.6c-4-2.4-7.6-4.5-11.1-6.6c7.7-4.8,8.4-4.7,14.2,1.3c2.5,2.5,4.7,5.3,7.2,7.8c0.9,0.9,2.5,2.1,3.3,1.8
		c4.2-1.4,8.2-3.2,12.9-5.1c-3.9-3.7-1.3-6.4,1.2-9.9c-8.2-0.8-15.5-1.5-23.9-2.2c6-4,10.2-9.1,17.9-6.4c4.4,1.5,9.3,1.3,14,1.7
		c4.4,0.4,5.3-1.1,3.7-5.1c-0.4-1.1-0.1-2.4-0.2-3.6c-0.2-1.6-0.3-3.2-0.7-4.8c-0.3-1.1-1.2-2.1-1.7-3c2.9-1.6,5.9-2.6,7.8-4.6
		c1.9-2.1,3-5.3-1.1-6.9c1.7-2.9,3.2-5.4,4.8-8.2c-3.6-1-6.6-1.9-9.7-2.7c-0.1-0.5-0.2-1-0.2-1.4c-5.1,3.7-10.2,7.5-15.6,11.4
		c-0.4-7.6,1.8-11.7,7.3-13c5.5-1.4,10.5-3.1,11.9-10.6c10.3,12.4,22,20.9,36.6,25.3c0.7,0.2,1.5,2.6,1.1,3.3
		c-1.8,2.9-3.7,6-6.2,8.3c-5.6,5.2-7.9,12.5-5.2,18.7c1.5,3.6,3.8,5.5,7.9,4.5c3.8-0.9,6-3.2,5.7-7.2c-0.2-3.4-1.3-6.7-1.5-10
		c-0.1-2.9,0.6-5.8,1-8.7c0.4,0.1,0.8,0.2,1.2,0.3c3.7,19.5,7.4,105.9,4.5,116.7c-3.9-7.2-7.4-13.3-10.6-19.6
		c-0.5-1-0.1-2.7,0.4-3.8c4.6-10.2,4-21,3.6-31.7c-0.2-4.9-1.2-9.8-1.8-14.7c-0.5,0-1-0.1-1.5-0.1c-6.5,9.7-6.7,21.5-9.8,32.7
		c-3.4-3.7-6.2-6.9-9-10.1c-2.1-2.3-1.9-4.1,0.5-6.3c2.1-1.9,3.9-4.4,5.2-7c2.8-5.7,5.2-11.7,7.9-17.8c-11.5-0.9-14.7,10-22.3,17.2
		c-1.3-5.8-2.2-10.5-3.4-15.1c-1.6-5.8-3.4-11.5-5.3-17.1c-0.3-0.9-1.6-1.4-2.5-2.1c-0.5,1.1-1.4,2.2-1.4,3.3
		c0.3,3.9,0.9,7.8,1.4,11.5c-7.5-6.4-7.5-6.4-10.2-5.7c2.5,3.6,5.1,7.2,7.6,10.8c-0.3,0.3-0.5,0.6-0.8,0.9
		c-4.2-1.2-8.4-2.4-12.6-3.7c-0.3,0.4-0.6,0.8-0.8,1.2c1,1.4,1.8,3.5,3.2,4.2c3.6,1.7,7.5,3.3,11.4,4.1c5.2,1,6.1,1.5,6.9,6.9
		c-5.4-1-10.9-1.9-16.4-2.9c-0.3,0.5-0.6,1.1-0.9,1.6c0.9,1.7,1.5,3.8,2.8,5.1c4.8,4.8,10.4,7.6,17.4,6.5c5-0.8,5.4-0.5,5.9,3.4
		c-7.8,0.6-15.5,1.2-24.4,1.9c7.2,6.4,14.2,11.2,22.5,11.8c9.9,0.7,15.9,5.6,20.1,13.9c0.6,1.2,1.5,2.2,2.1,3.4
		c3.5,6.8,7,13.7,10.5,20.6c-0.4,0.3-0.8,0.6-1.2,0.9c-2.5-2.4-5.2-4.5-7.5-7.1c-2.7-3.1-4.8-6.7-7.4-9.9
		c-5.2-6.7-17.9-8.3-22.1-3.4c9.2,8.5,16.9,19.2,31.9,20.1c-1.6,1.5-2.4,2.2-3.1,2.8c1.7,2.9,3.4,5.6,5.2,8.6c-7.9,0-14.9,0-22,0
		c-0.1,0.5-0.2,1-0.3,1.5c9.5,3.2,19,6.6,28.7,9.6c2.9,0.9,4.2,2,4.2,5c0.3,16.2,0.9,32.4,1.2,48.6c0.1,6.6-0.5,13.3-0.8,20
		c-2.7-4.1-4.5-8.4-6.7-12.5c-3.7-6.7-7.9-13.1-11.4-19.9c-2.2-4.3-3.7-9-5.3-12.8c5.2-1.9,9.5-2.9,13.2-4.9
		c3.3-1.8,3.4-5.5,0.6-8.2c-1.1-1.1-2.4-2.3-3.8-2.9c-4.8-2.3-5.6-5.8-4.1-10.6c1.1-3.8-0.6-5.2-4.6-4.2c-1.1,0.3-2.7,0.9-3.2,0.4
		c-4.4-4-9.2-7.8-12.8-12.5c-4.2-5.6-7.1-12.2-10.9-18.1c-0.8-1.3-3.3-1.6-5-2.3c-0.2,1.6-0.6,3.2-0.6,4.7c0,1,0.3,2.1,0.7,3
		c5.5,12.6,3.5,24.9-1.2,37.2c-1.5,4.1-0.5,5.7,3.8,6.6c1.4,0.3,2.7,0.7,4.8,1.3c-1.4,1.8-2.5,2.9-3.2,4.3c-2,3.6-1.7,7.1,0.6,10.4
		c2.2,3.1,5.4,2.7,8.4,1.9c2.2-0.6,4.3-1.9,6.5-2.6c1.1-0.3,3.1-0.3,3.4,0.3c2.1,4,3.9,8.3,6.5,13.8c-6.5,0-11.5-0.1-16.5,0
		c-3.7,0.1-8,0.3-9.8,4c-2.3,4.7-5.8,5.2-10.1,4.8c-1.2-0.1-2.4-0.2-3.5,0.1c-0.9,0.2-1.9,0.8-2.3,1.5c-0.2,0.4,0.5,1.5,1,2.1
		c1.9,2.2,3.9,4.4,5.8,6.6c4.3,5.1,6.9,11.8,14.2,13.9c0.7,0.2,1.3,2.4,1.3,3.6c0,2.6-1,5.4-0.5,7.8c0.4,1.8,2.4,3.4,4,4.6
		c0.3,0.2,2.5-1.6,3.4-2.9c3.4-4.7,6.5-9.5,9.8-14.1c0.5-0.7,1.6-1.4,2.5-1.6c6.2-1.3,7.5-2.8,8.1-9.2c0.2-1.6,0.7-3.2,1.3-5.8
		c6.7,7.3,11,14.4,11.5,23.3c0.4,7.5,0.5,15,0.9,22.5c0.1,1.3,0.6,3.1,1.5,3.8c4.7,3,9.6,0,10.5-5.5c1.1-7.1,2.7-14.1,4.6-21
		c1.2-4.5,3.8-5.1,7.4-1.9c2.4,2.1,4.2,4.9,6.4,7.3c4,4.2,9.3,5.2,14.6,2.6c-6.6-6.8-4-14-0.9-21.3c0.8-2,1.3-4.2,1.5-6.4
		c0.9-7.7-1.5-14.2-8.6-18.6c1-0.5,1.3-0.8,1.7-0.9c2-0.6,3.9-1.2,5.9-1.7c18.1-4.7,31.3-16.4,43.1-30.2c0.9-1.1,0.8-3.1,1.2-4.7
		C1180.8,561.9,1178.9,561.4,1178,562.1z M1044.7,319.2c-1.3-6.8-3.7-13.1-8.6-19c-0.6,1.9-1.1,3.3-1.7,5.2
		c-7.9-10.5-9.4-22.5-11-35.8c3,1.6,5.7,2.4,7.6,4.1c7.4,6.9,11.7,15.7,15.3,25c0.2,0.5,0.5,1.5,0.3,1.7c-3.8,3-0.5,5.6,0.7,7.9
		c3.3,6.7,7.8,12.9,8.5,20.6c0.1,0.9,0.1,1.7,0.3,3.7C1050.3,328.8,1045.9,325.5,1044.7,319.2z M949.4,474.5c-0.8,1.3-3,1.7-4.8,2.6
		c-2.6-1.1-5.5-1.4-7-3.1c-1.6-1.7-3.4-5.5-2.6-6.8c1.4-2.1,4.7-3.1,7.3-4.3c0.5-0.2,1.8,0.7,2.3,1.4c1.4,1.7,2.7,3.5,3.7,5.5
		C949,471.3,950,473.5,949.4,474.5z M960,484.2c-2.3-2.1-4.5-4.3-6.8-6.4c0.3-0.6,0.6-1.2,1-1.8c2.2,0.5,5.1,0.3,6.5,1.6
		c1.2,1.2,0.8,4.1,1.1,6.2C961.2,483.9,960.6,484.1,960,484.2z M960.5,458.8c3-4.2,2.8-9.8,8.7-12.6c0.6,5.3,1.1,9.6,1.7,14.8
		C967.4,460.2,964.3,459.6,960.5,458.8z M971.2,481.5c-0.2,2-0.2,4-0.3,6c-4.9,0.7-4.4-1-4.8-9.9C969.5,476.6,971.7,477,971.2,481.5
		z M946.1,566.1c-4.4,0-5-0.6-6.7-5.9C944.2,558.7,945.7,560,946.1,566.1z M941.2,544c0.8,4,1.5,7.4,2.3,11
		C935.8,551.6,935.1,549.2,941.2,544z M945.5,589.7c-4.5,3.1-3.7,10.1-6.8,16c-2.8-5-6.2-8.9-5.3-14.9c0.6-4.3,0.1-8.7,0.1-12.3
		c4.4,0.7,9.1,1.3,13.7,2.2c1.2,0.2,2.8,1.1,3.3,2.1c1.2,2.6,1.9,5.5,3.2,9.6C950.7,591.4,948.6,590.8,945.5,589.7z M965.8,635.2
		c-9.4-7.5-17.6-15.7-17.3-29.2c0.1-4.8,1.7-8.2,6.4-10.5c4.1,13.2,8.2,26.2,12.3,39.2C966.7,634.8,966.3,635,965.8,635.2z
		 M970,608.6c-0.2,3.3,0,6.6,0,9.9c-0.8,0.1-1.5,0.2-2.3,0.2c-2.1-7.1-4.5-14.1-6.2-21.3c-1.2-5.3-2.2-10.7-2-16.1
		c0.1-3.6,1.9-7.4,3.9-10.5c1-1.5,4.2-2,6.5-2.1c0.6,0,2,3,2,4.6C971.3,585.1,970.6,596.8,970,608.6z M982,587.4
		c4.5,2.5,8.1,9.1,8.9,16.4c-1.3,0.1-2.7-0.1-3.9,0.3c-1.4,0.4-3.6,0.9-3.9,1.9c-0.4,1.4,0,4,1,4.7c7.6,5.3,5.9,11.8,3.3,18.8
		c-2.1,5.6-3.9,11.3-5.9,17.4C978.7,641.9,979.3,596.7,982,587.4z M999.6,513.5c0.7-0.6,2.9-0.4,3.7,0.2c2.5,2,4.7,4.4,8,7.6
		c-7.9,1-14.5,1.8-22.4,2.8C993,520,996.2,516.6,999.6,513.5z M978.4,503.1c5.5,0.6,6.3,2,5,7.5c-0.5,2.2-0.6,4.9,0.2,6.9
		c2.3,5.9-2,9.1-4.1,13.2c-0.4-0.1-0.8-0.1-1.2-0.2C978.4,521.3,978.4,512.2,978.4,503.1z M974.4,447.9c0-5.5,0-10.6,0-16
		C983,435.9,983,438.6,974.4,447.9z M985.5,438.1c1.2-5.7,2.3-10.7,3.4-15.8c3.6,2.8,7.3,5.7,11.7,9
		C995.3,433.7,990.7,435.8,985.5,438.1z M1033.8,407.3c2.1,0.9,4.2,2,7,3.4c-4.6,5.8-11.4,6.4-17.4,8.7c1-2.9,1.9-5.8,2.9-8.7
		C1027.9,405.6,1028.7,405.2,1033.8,407.3z M1072.4,611.9c1.2-2.9,2.1-5.1,3.5-8.7c2.2,3.4,3.8,5.8,6.1,9.4
		C1078.2,612.3,1075.8,612.1,1072.4,611.9z M1142.1,391.2c9.9,6.1,8.9,27.3-2,38.7C1140.8,416.6,1141.4,404,1142.1,391.2z
		 M1149.3,428.3c2.5-3.8,4.9-1.4,7.4-0.5c-1.2,2.2-2.5,4.1-3.3,6.2c-1,2.8-2.3,4.7-5.7,5.2c-1.5,0.2-2.9,2.5-3.9,4.1
		c-0.9,1.5-1.2,3.5-2,6.2c-2-1.8-3.3-2.9-4.4-4C1141.5,439.6,1145.5,434.1,1149.3,428.3z M1135.8,459.2c-2.5,2-6.6,1.8-10,2.6
		c-0.2-0.5-0.3-1.1-0.5-1.6c3.2-2.7,6.4-5.5,9.9-8.5C1137.3,453.7,1137.9,457.5,1135.8,459.2z M1127.5,398.6
		c0.3-5.7,3.7-9.2,9.4-9.6c0,6.5,0,12.8,0,19.1C1130.6,407.2,1127.2,403.7,1127.5,398.6z M1101.8,471.9c-0.3-9.7-0.7-19.4-0.9-29.1
		c-0.2-11.3,3.7-14.9,15.1-14c0,0,0.1,0,0.1-0.1c0,0,0.1,0.1,0.1,0.1c0,0-0.1,0-0.1,0c-5.9,4-6.7,10-5.8,16.4
		c0.7,5.1,6.4,7.2,10.5,4c2.1-1.6,3.7-3.8,5.7-5.5c0.7-0.6,2-0.6,3-0.9c0.2,1.1,0.8,2.5,0.4,3.2c-1.8,2.8-3.5,5.9-6,8
		c-7.7,6.4-15.9,12.1-20.4,21.7c-0.4-0.1-0.7-0.2-1.1-0.3C1102.2,474.2,1101.8,473.1,1101.8,471.9z M1117.1,585.4
		c-0.8,4-4,5.7-6.8,6.9c-4.2,1.8-5.9,3.6-5.4,7.9c0.7,6,1.8,11.9,1.7,17.9c-0.1,5.1-1.8,10.1-2.8,15.2c-0.4-0.1-0.8-0.2-1.2-0.3
		c0-37.4,0-74.7,0-112.1c0.4-0.3,0.9-0.7,1.3-1c2.6,1.5,5.3,3,7.9,4.6c4.4,2.8,8.6,6,13.1,8.5c3.1,1.8,2.1,4.3,1.7,6.6
		c-1.3,7.2-2.8,14.4-4.4,21.6C1120.6,569.3,1118.7,577.3,1117.1,585.4z"/>
	<path fill="#C49A6C" d="M912.1,570.5c-18.3,2.4-34.5,9.7-48.1,23.1c-1.7-3-2.9-5.8-4.6-8c-2.4-3-1.5-5.2,0.9-7.6
		c5.7-5.8,11.5-11.5,16.9-17.5c4.6-5,8.9-10.4,13.4-15.6c-0.4-0.5-0.8-0.9-1.2-1.4c-15.7,3.4-28.1,11.7-37.3,25.6
		c1-8.2,2-16.4,3.1-25.1c3.3,1,5.7,2.2,8.3,2.5c3,0.3,6.8,1,8.9-0.5c3-2.2,4.8-6.1,7.2-9.3c0.1-0.1,0-0.3,0-0.4
		c0-2.7-3.7-7.7-6.3-8.3c-3.8-0.9-5.1,1.8-6.6,4.5c-1.9,3.4-4.5,5.7-8.9,5c-1-11.3,10.7-13.3,13.9-21c2.9,3.9,5.4,7.3,7.9,10.7
		c0.6-0.1,1.2-0.2,1.8-0.2c1.9-3.7,3.8-7.4,5.6-10.9c4.2,1.3,8.8,2.8,13.4,4.2c0.5-0.6,1-1.2,1.5-1.7c-1.8-3.6-3.5-7.3-5.3-11
		c2.4-0.5,5-1,9.2-1.8c-2.9-4.8-5.4-9-8.1-13.5c1.9-2.1,4.1-4.6,6.3-7.1c-4.7-5.1-4.6-5.2-1.1-11.1c1.5-2.5,2.5-5.4,3.9-8.4
		c-4.7-1.3-7.5-0.9-8.6,3.5c-1.1,4.9-4.7,7.5-9.6,10.1c0.5-2.5,0.9-4.3,1.3-6.1c1.1-4.1,2.4-8.2,3.2-12.3c0.3-1.3-0.8-2.9-1.2-4.4
		c-1.4,0.6-3.3,0.8-4.2,1.8c-0.5,0.5-1,1.1-1.4,1.6c-1.4,1.7-2.6,3.5-3.8,5.2c-3-2.1-4.7-2.5-6.2-0.9c-0.1,0.1-0.2,0.2-0.3,0.3
		c-0.5,0.7-1,1.6-1.5,2.7c-1.3,3.2-2,6.6-3.1,10.4c-1-1.1-1.8-1.6-2.1-2.3c-1.8-4.6-5.8-4.9-9.5-4.2c-1.4,0.3-2.3,3.5-3.8,6.2
		c-3-0.8-6.7-1.8-10.4-2.8c0-0.5,0.1-1.1,0.1-1.6c1.2-0.8,2.3-1.7,3.6-2.3c14.2-6.6,21.3-18.5,24.8-33c4-16.4,5.8-33,2.6-49.9
		c-0.3-1.3,0.1-3.2,1-4.2c2.3-2.7,5-5.1,7.5-7.6c-0.3-0.4-0.6-0.9-0.9-1.3c1.4,0,3.1,0.4,4.3-0.1c2.1-0.9,5.2-2.1,5.7-3.8
		c1-3.5,2.2-9.4,0.4-10.9c-4.3-3.6-1.3-7.8-3.9-12c8.1,1.6,10-3.6,12.7-9.1c-2.8-1.1-5.4-2.2-7-2.8c-1.9-2.7-3.1-5.7-5.3-7
		c-2.2-1.4-5.4-1.4-8.2-2c0.8-5.4,0.7-5.2-4.6-7.4c-0.7-0.3-1.3-2.5-1-3.3c0.4-1,1.9-1.7,3-2.4c3.3-2,3.5-5.2,0.2-7.2
		c-2.8-1.6-5.7-3.2-8.7-4.1c-2-0.6-4.8-1-6.3-0.1c-4.4,2.9-8.5,6.4-12.2,10.1c-0.9,0.9-0.8,4.3,0.2,5.6c2.5,3.3,3.4,10.5,0.7,13.8
		c-0.7,0.9-2.5,1.8-3.3,1.5c-4.2-1.7-7.3-0.6-9.5,3.6c-0.4-0.2-0.7-0.4-1.1-0.6c-2.3-18.4-4.5-36.8-6.8-55.2
		c9.5-3.8,2.4-11.1,3.6-17.2c4.6,3.4,8.6,9.6,14.5,4.9c4.8-3.8,1.5-8.4-1.9-12.5c3.7,0.8,6.8,1.7,10,2c7.7,0.6,11.4-3.3,11-11
		c-0.1-2.4-0.1-5.1,0.8-7.3c2.4-5.7,1.2-8.1-5.1-8.6c-2.6-0.2-5.1,0-7.7,0c2.5-2.8,5-4.9,6.6-7.6c1.8-3.2,3.4-6.9,3.9-10.6
		c0.2-1.4-2.6-3.3-4-5c-0.2-0.2-0.3-0.5-0.5-0.8c-2.9-4.2-5-4.7-9.6-2.3c-1.7,0.9-3.4,1.6-5.9,2.9c1.4-3.3,2.5-5.4,3.1-7.7
		c0.4-1.7,0.6-4-0.3-5.3c-0.6-0.8-3.3-0.8-4.8-0.2c-2.9,1-4.5,0.3-5.2-2.7c-0.2-0.7-0.4-1.6-0.9-2c-1-0.9-2.3-1.5-3.4-2.2
		c-0.5,1.1-1.3,2.2-1.4,3.3c-0.2,2.9-0.1,5.9-0.1,8.8c-0.9-1.2-1-2.3-1.2-3.5c-0.5-4.4-2.1-8.2-6.8-9.4c-4.5-1.2-7,2.2-9.3,5.3
		c-1.3,1.8-2.4,3.8-3.8,6.1c-0.9-1.8-1.5-3.2-2.3-4.4c-0.9-1.3-1.9-2.7-3-3.8c-3.6-3.8-6.9-3.1-8.5,1.8c-0.6,1.9-0.4,4-0.4,6.1
		c0,1.3,0.2,2.7,0.3,4.7c-2.4-1.1-3.9-2-5.6-2.4c-3.2-0.7-6.6-1.8-9.8-1.5c-5.1,0.5-6.4,3.7-3.8,8.1c1.2,2.1,2.7,3.9,4.4,6.2
		c-1.8,0.4-2.9,0.7-4,0.9c-7.2,1-8.3,3.6-3.9,9.5c1.4,1.8,3.3,3.3,5.1,4.9c1.3,1.1,2.7,2,5.1,3.8c-3.7,0.3-6.2,0.4-8.6,0.6
		c-3.4,0.4-6.2,1.9-6.6,5.4c-0.4,3.6,2.5,5.1,5.5,5.8c3.5,0.8,7,1.4,10.5,2.1c-2.1,3.2-4.6,5.9-5.6,9.1c-0.7,2.3,0,5.6,1.3,7.6
		c0.6,0.9,4.7,0.1,6.7-0.9c2.8-1.3,5.1-3.5,7.7-5.3c-0.2,2.3-1.6,3.8-1.9,5.5c-0.7,3.5-1.8,7.3-1.1,10.6c1,5,4.5,5.7,8.5,2.5
		c1.2-1,2.5-2,3.7-3.1c0.7,0.6,1.1,1,1.5,1.4c3.2,3.9,3.8,4,7.5,0.5c1.6-1.5,3.2-3.1,5-4.9c5.7,14,12.8,87.3,9.3,94.9
		c-2-2.6-3.9-5-5.8-7.5c1.5,8.9,4.7,17.1,6.1,25.6c1.4,8.7,1.1,17.7,1.6,26.6c-0.4,0.1-0.8,0.1-1.3,0.2c-0.4-0.9-0.9-1.7-1-2.6
		c-1.6-9.9-3.3-19.7-4.7-29.6c-2.1-14.8-6.6-28.4-17.7-39.1c-2.1-2-1.6-3.5-0.2-5.7c5.7-8.4,9.8-17.5,10.9-27.7
		c1.1-9.2-0.4-10.3-9.2-7.4c-17.7,5.9-30.3,18.1-41.3,32.6c-3.5,4.7-8.2,8.8-13,12.3c-7.9,5.9-16.3,11.1-24.6,16.5
		c-0.8,0.5-1.7,0.8-3.4,1.6c0.1-22.6,8.4-40.3,25.2-54.5c-1.9,0-4.1-0.2-5.3,0.8c-3.9,3-7.9,6.1-11.2,9.7
		c-4.1,4.5-7.5,9.5-11.3,14.4c-1.8-6.1-2.7-11.9-3.2-17.7c-0.1-0.7,1.4-2,2.4-2.4c2.9-1.1,6-1.6,8.8-2.9c9.4-4.3,12.9-16,2.6-21.7
		c-0.2-0.1-0.3-0.5-0.5-0.9c0.8-1.4,2.1-2.9,2.4-4.5c0.5-3.2,1.9-7.7,0.4-9.6c-4.3-5.5-9.2-11-16.3-13.1c-1.8-0.5-3.8-0.3-5.7-0.2
		c-2,0.2-4,0.7-6.2,1.2c-0.4-4.2-0.8-8.2-0.9-12.1c0-0.9,1.5-1.9,2.5-2.5c3-1.9,6.4-3.1,9-5.4c7.7-6.7,7-14.8-1.7-20.2
		c0.2-0.9,0.5-1.9,0.8-2.9c2.7-8.5,0.4-13-7.9-16c-0.9-0.3-1.6-1.2-2.4-1.7c-2-1.2-4-3.1-6.2-3.5c-8.5-1.5-19.4,4.6-23.1,12.4
		c-2.9,6.2-0.8,13.3,5.4,16.1c4,1.8,4.3,3.6,2.3,7.2c-2.2,4.1-2.5,8.6,0.8,12.4c3.3,3.9,7.4,5.8,12.6,4.4c0.9-0.2,1.9-0.2,3.1-0.3
		c0.9,7.1,3.4,13.5-4.4,18.9c-6.1,4.2-4.3,13.7,2.2,18.1c1.2,0.8,2.4,1.5,4.1,2.6c-4.1,5.1-7.8,10.3-4.8,17c3,6.7,9.3,7.3,15.5,7.7
		c1.6,17,3.2,33.5,4.7,50.1c0.6,6.6-0.2,7.6-7.9,11.1c-1.7-7.1,0.4-14.9-2.6-21.7c-0.4,0.1-0.8,0.1-1.1,0.2c-1.4,3.3-2.8,6.7-4.2,10
		c-0.4-0.1-0.8-0.2-1.1-0.2c5-20.1-5.6-33.7-19.3-47.3c1.1,4.7,2.2,8.3,2.7,11.8c1.4,10.4,2.1,20.8,4.1,31.1
		c2.3,12.3,5.6,24.3,8.6,36.5c1.4,5.6,0,10.7-1.5,16c-7.9-10.7-11.1-23.1-14.9-35.4c-0.9,1.3-1.5,2.5-1.5,3.7
		c-1.7,23.7,0.5,46.9,11.2,68.5c3.5,7,5.2,13.6,4,21.4c-1.7,11-2.1,22.3-3.1,33.4c-0.1,1.4-0.5,2.8-0.7,4.3c-1.5-0.3-2.6-0.5-4-0.8
		c-0.8,2.9-1.6,5.6-2.5,9c-4.9-6.7-7.7-14-14.8-19.7c1.1,10.7,0.9,20.2,3.2,29c2.3,8.8,7.2,16.9,11.5,26.6c-5-2.2-9.1-4-13.8-6
		c1,7.5,0.7,14.9,3.1,21.3c2.4,6.4,7.6,11.8,11.7,18c-3.1,0.2-6.7,0.5-11,0.8c1.1,1,1.5,1.5,2.1,1.9c9.9,7.7,15.6,18,17.2,30.2
		c2.2,16,3.6,32.2,8.8,47.6c0.6,1.6,2.2,2.9,3.3,4.4c0.9-1.5,2.2-2.8,2.6-4.4c3.3-14,6.2-28.1,9.7-42c1.1-4.2,3.7-8,5.6-12
		c0.7,0.1,1.4,0.3,2.1,0.4c0,6.2,0.8,12.5,0,18.5c-1.1,8.1-3.6,16-5.2,24.1c-0.4,2.2-1.8,5.3,2.3,5.8c3.1,0.4,6.8,2.4,7.8-3.1
		c1.8-10,4.1-19.8,5.9-29.8c1.5-8.5,2.2-17,7.8-24.5c4.6-6.2,8.2-13.3,11.1-20.5c8.5-21.1,13.8-42.9,11.2-65.9
		c-0.5-4.6-1.7-9-0.1-13.7c0.5-1.6,0.3-3.6-0.2-5.2c-2-6.2-1.2-12.1,1.3-18.1c1.9-4.8,0.2-7.7-5-8.4c-8.7-1.2-16.8,0.4-22.8,7.6
		c-0.8,0.9-1.2,2.2-1.8,3.3c-0.4-0.4-0.8-0.7-1.2-1.1c-0.3-5.1-0.2-10.3-1-15.4c-0.7-5.1,1.2-7.2,6-8.7c12.8-4,19.9-14.1,19.9-27.6
		c0-3.8-0.3-7.7-0.3-11.5c-0.1-5.9-0.6-11.9,5.3-15.9c0.7-0.5,0.2-2.6,0.2-4c-1.2,0-2.5-0.3-3.5,0c-1.2,0.4-2.2,1.4-3.2,2.1
		c-0.8-3.9,6.4-5,2.7-8.9c-1.5-1.6-5.1-1.3-8.4-2c-3-8.1-3-8.1-7.5-3.3c-1.8-1.2-3.6-2.4-5.4-3.6c-0.9,1.9-1.7,3.7-2.6,5.6
		c-6.1-0.8-6.3-0.5-4,5.4c0.4,1.1,1,2.2,1.1,3.3c0.4,3.4,0.7,6.9,1,10.4c-0.5,0.1-1.1,0.2-1.6,0.4c-1-1.6-2.5-3-2.9-4.7
		c-1.7-7-3.1-14-4.4-21.1c-0.2-0.9,0.6-2.3,1.4-2.9c8-6.2,16-12.3,26.3-15c9.2-2.4,18.4-5.3,27.1-8.9c5.3-2.2,9.9-6.1,15.3-9.5
		c5.9,9.4,11.2,19.2,12.1,30.6c0.3,3.2,0.3,6.5-0.3,9.7c-0.4,1.9-0.8,5.2-4.6,3.4c-1.1-0.5-3.1-1.2-3.3-0.9
		c-0.8,1.3-1.2,2.8-1.4,4.3c-0.1,1,0.3,2.1,0.4,2.6c-2.1,0.2-4-0.1-5.4,0.6c-0.6,0.3-0.6,3,0.1,4.2c2.8,4.9,2.7,6.3-1.4,10.6
		c-6.1,6.4-6.1,11.2,0.9,16.5c2.2,1.7,5.6,2.5,8.5,2.4c4.7,0,9.4-1,14.2-1.5c0,3.8-0.9,4.3-5.8,3.3c-5.8-1.2-6.8-0.7-9.2,4.6
		c-0.4,0.9-0.8,1.9-1.3,2.8c-1.9,2.9-0.7,4.6,2,5.9c5.9,3,12,5,18.7,4.1c2.6-0.4,3.7,0.5,4.5,2.8c4.2,12.4,9.6,24.4,10.5,37.7
		c1.4,20.3,2.7,40.5,3.9,60.8c0.1,1-0.4,2-0.7,4c-4.2-5.6-5-11.2-4.6-16.7c1-16.2-5.1-30.6-10.7-45.2c-0.3-0.7-1-1.2-1.5-1.8
		c-0.5,0-0.9,0-1.4,0c-0.9,6.5-1.8,13.1-2.7,19.6c-1.5-1.2-2.5-2.7-2.6-4.2c-0.3-4.1-0.2-8.2-0.3-12.4c-0.2-7.2,0.5-14.9-5.3-20.4
		c-6.3-5.9-10.9-12.7-14.8-20.2c-1.3-2.5-3.1-4.3-6.7-3.1c0.8,8.8,1.5,17.6,2.3,26.4c-0.4,0.1-0.9,0.2-1.3,0.3
		c-1.2-2.6-2.4-5.2-3.6-7.8c-0.5,0.1-1,0.2-1.5,0.3c-0.1,1.7-0.5,3.3-0.3,5c0.4,2.9,1,5.8,1.6,8.7c2.8,12,4.6,24.4,13.1,34.3
		c0.8,1,0.6,3.4,0.2,4.9c-4.6,17-4.5,34.1-1.3,51.2c2.4,13.2,9.5,23.9,17.5,34.2c9.4,12.1,12.8,25.6,9,40.7c-0.9,3.6-1.5,7.3-2.2,11
		c9.2,2,9.5,1.8,11.3-6.3c1.6-7.5,3.5-14.9,5-22.4c1.4-7,5.4-10.9,12.6-11.3c1.2-0.1,2.4,0,3.5-0.4c3.1-0.9,4.4,0.3,4.8,3.2
		c1.5,11.5,3,23,4.4,34.5c0.4,3.4,0.4,6.8,0.8,10.1c0.1,0.7,1.3,1.8,1.9,1.8c1-0.1,2.2-0.7,2.7-1.5c0.5-0.7,0.4-2,0.5-3
		c1.1-14.8,0.2-29.4-3.4-43.8c-0.9-3.6-0.2-5.8,3.5-8c6.4-3.9,12.3-8.6,17.9-13.6c3.2-2.9,6-6.8,7.3-10.8c1.1-3.2,2.5-4.8,5.2-6.4
		c3-1.7,5.6-4.2,8.4-6.4C912.8,571.5,912.5,571,912.1,570.5z M864.2,489.6c1.8,0.5,3.5,1.3,5.3,2c-1.1,1-2.1,2.8-3.3,2.9
		c-1.4,0.1-3-1.2-4.4-2.1c-0.4-0.3-0.4-1.3-0.7-2.2C862.3,489.9,863.3,489.4,864.2,489.6z M714,263.2c1.1,0.1,2.8,1.2,3.1,2.1
		c0.3,1.3-0.5,2.9-0.8,4.4c-1.3-0.4-2.7-0.5-3.8-1.1c-1.6-0.9-2.9-2.2-4.3-3.3c0.1-0.4,0.2-0.8,0.3-1.2
		C710.4,263.8,712.2,263.1,714,263.2z M711.9,206.3c0.2-0.2,0.4-0.4,0.6-0.7c0.2-0.2,0.4-0.4,0.5-0.6c0.2,0.2,0.4,0.4,0.7,0.5
		c0.4,0.4,0.9,0.7,1.3,1.1c0.2,0.2,0.5,0.4,0.7,0.6c0.5,0.4,1,0.8,1.5,1.2c0.5,0.4,1.1,0.9,1.8,1.4c-0.5,0.5-0.9,0.8-1.3,1.2
		c-0.4,0.4-0.7,0.7-1,1c-0.2,0.1-0.3,0.3-0.4,0.4c-0.2,0.2-0.4,0.4-0.6,0.6c-0.2,0.2-0.4,0.4-0.6,0.5c0,0-0.1-0.1-0.1-0.1
		c-0.5-0.6-1-1.3-1.6-1.9c-0.4-0.4-0.7-0.9-1.1-1.4c-0.5-0.7-1-1.4-1.4-2.1C710.7,207.7,711.3,207,711.9,206.3z M708,236
		c3.2-3.4,6.8-6.5,10.3-9.6c0.6-0.5,2-0.7,2.7-0.4c0.8,0.4,1.1,1.5,1.4,1.9c0.1,5-9.1,13.2-13.4,12.3
		C706.2,239.8,706.6,237.5,708,236z M689.5,202c2.2-0.2,4.5-0.9,6.4-0.2c1.1,0.4,1.4,3,2,4.6c-0.5,0.4-1,0.8-1.5,1.2
		c-2.4-1.4-4.8-2.7-7.2-4.1C689.4,202.9,689.5,202.4,689.5,202z M687.6,219c-2,1.1-4.7-3-4.6-8.2c0.6-0.7,2-2.4,3.5-4.1
		c2,2,5.2,3.7,5.5,5.9C692.2,214.6,689.7,217.8,687.6,219z M699.7,241.9c-3.9,1.1-6.8-0.9-8.3-4.1c-0.8-1.7,0-4.3,0.1-6.7
		c4.8,2.2,8.1,3.7,12.1,5.5C703.8,238.5,702.9,241,699.7,241.9z M703.2,205.6c-1.3-1.6-2.7-3.2-4.6-5.5c4.3-1,6.6-0.5,7.3,2.4
		C706,203.3,704.1,204.6,703.2,205.6z M704.5,280.4c-1.6-1.9-3.3-3.9-5.6-6.6c2.4-2.3,4.9-5.4,5.6-5.1c2.2,1.1,5.4,3.7,5.2,5.3
		C709.4,276.4,706.4,278.3,704.5,280.4z M711.2,304.9c-3.9-0.3-5.7-3.4-6.5-6.8c-0.3-1.2,0.8-3.1,1.9-3.9c0.5-0.4,2.5,0.7,3.6,1.4
		c2.3,1.4,4.5,2.9,7.5,4.9C717.1,303,714.9,305.2,711.2,304.9z M731.4,270.1c1.9,1.1,3.5,2.7,5.8,4.7c-1.8,2.1-2.8,3.3-3.8,4.5
		c-1.6-2.1-3.4-4-4.7-6.3C728.4,272.6,731.1,269.9,731.4,270.1z M721.8,262.9c1.7,0.6,3.2,1.7,5.7,3.1c-2.1,1.6-3.9,3.2-4.1,3
		c-1.4-1.1-2.5-2.7-3.5-4.2C719.7,264.6,721.4,262.8,721.8,262.9z M721.5,306.5c0-2.1,0-3.8,0-4.3c4.5-3.1,8.3-5.9,12.2-8.5
		c0.9-0.6,2.5-1.4,3-1c0.9,0.7,1.7,2.2,1.6,3.3c-0.2,1.5-0.9,3.2-1.9,4.3C732.4,304.2,727.6,306.3,721.5,306.5z M708.2,416.8
		c0.2-6.3,1.2-12.6,1.7-18.9c0.6-8.3,6.9-11.6,13.6-16c0.6,4.9,1.2,9.1,1.6,13.3c0.4,4.2,0.5,8.5,1,12.8c0.6,5.4-0.7,9.7-4.3,14.1
		c-5,6.2-8.9,13.3-13.6,20.5C708.1,433.8,707.9,425.3,708.2,416.8z M727.8,587.9c-0.6,4.4-2.2,9-4.6,12.7
		c-6.6,10.9-9.9,22.9-12.3,35.2c-0.3,1.6-0.8,3.1-1.2,4.6c-0.2,0-0.5,0-0.7,0c-0.3-2.4-0.7-4.8-1-7.3c-0.5-5.4-0.9-10.9-1.5-16.3
		c-0.8-6.9-0.3-13.2,4.1-19.3c6.3-8.7,9.9-18.7,11.2-29.4c0.1-1.1,0-2.3,0-4.1c-3.1,0.7-5.9,1.4-9.8,2.3c6-13.4,6.6-25.9-1.3-38.6
		c-2,2.4-3.6,4.4-5.7,6.8c-0.4-1.3-0.8-2.1-0.8-2.8c0.9-19.7,1.7-39.4,2.7-59.1c0.1-1.7,0.4-3.6,1.2-5.1
		c5.4-9.2,10.9-18.4,16.4-27.5c0.4,0.1,0.8,0.3,1.1,0.4c0.2,1,0.7,2.1,0.7,3.1c0.1,15,0.5,30.1,0.1,45.1c-0.1,4.4-2,8.9-3.6,13.1
		c-4.4,11.6-5.2,23.3-0.6,34.9C728.9,553.3,730.3,570.4,727.8,587.9z M764.9,514.4c-0.4,2.4-0.7,4.7-1.1,7.4
		C760,519.4,760.1,518.3,764.9,514.4z M739.7,583.1c-1-5.8,4.3-13,10.7-13.6C747,573.8,743.5,578.2,739.7,583.1z M744.9,525.7
		c3.5-0.5,7-1.4,11-2.1c3.1,8.2,1.8,13.3-4.8,19.6c-3.5,3.4-6.6,7.3-10.2,11.3c-0.1-1.5-0.1-2.9-0.2-4.4c-0.4-5.7-0.6-11.4-1.3-17.1
		C739,529.4,741.2,526.2,744.9,525.7z M840.9,587.5c-1.2,4.5-1.8,9.2-2.5,12.7c-3.8-7.5-7.3-15.6-11.9-23
		c-8.1-13.1-11.1-27.7-14.2-42.4c-1-5-1.8-10-2.8-15.6c4.8,1.2,8.3,2.7,9.6,7.3c0.9,3.1,1.6,6.3,3,9.2c2.6,5.4,5.5,10.6,8.4,15.8
		c0.2,0.4,0.5,0.7,0.8,1C841.4,562.3,844.6,573.9,840.9,587.5z M842.5,460.2c-2.3-4.5-3.7-14-2.8-22.2c0.9-7.9,1.7-15.8,2.9-23.6
		c1.2-7.6,2.7-15.2,4.1-22.9c-0.4-0.2-0.8-0.4-1.3-0.5c-1.4,2.3-2.8,4.7-4.2,7c-0.3-0.1-0.5-0.1-0.8-0.2c0-8.8,0-17.6,0-26.7
		c4.3,1.3,9.4,0,10.8,6.4c0.5,2.4,4.1,2.2,5.7,0c0.9-1.2,1.5-2.6,2.9-4.1c1.3,6,1,13.1,10.7,11.5c-0.2,3.5,0,6.4-0.5,9.2
		c-3.3,18.3-9.9,35.3-19.9,51.1C847.1,450,845,455.3,842.5,460.2z M851.6,531.4c0-5.2,0-9.5,0-13.9
		C857.4,519.2,857.2,525.4,851.6,531.4z M855.9,499.7c-1.7,2.9-3.1,5.1-4.4,7.3c-0.4-0.1-0.8-0.1-1.1-0.2c-0.3-2.4-0.6-4.9-0.9-7.7
		C851.6,499.3,853.3,499.5,855.9,499.7z M858.4,601.1c-4.1,8.9-6.9,11.4-12.4,10.2c1.8-8,3.5-16.1,5.4-24.7
		C855.9,590.3,859.6,598.6,858.4,601.1z"/>
	<path fill="#C49A6C" d="M274.7,462.2c5-3.6,10.2-7,15.3-10.5c2.8-2,5.2-2.1,8.3,0c6.4,4.3,10.9,3.4,16.7-1.6
		c1.9-1.7,4.8-2.1,7.3-3.1c1.8-0.7,3.7-1.2,5.5-1.7c-0.9-1.6-1.4-3.5-2.6-4.7c-2.5-2.5-2.4-4.5-0.4-7.3c3-4.2,5.7-8.6,8.3-13
		c1.9-3.4,3.2-7.1,5.2-11.5c-10.9,0.3-19.8,2.3-27.1,10.6c-0.4-6.9-0.7-12.6-1.1-18.4c-0.7-0.4-1.3-0.8-2-1.2
		c-0.8,1.4-1.4,3-2.4,4.2c-8.3,9.9-14.2,20.9-15.8,33.9c-0.3,2.8-1.2,6.2-3.1,8c-4.5,4.1-9.7,7.4-15.2,11.4c-0.3-1.7-0.5-2.4-0.5-3
		c0.4-10.3,0.6-20.6,1.4-30.9c0.5-7.2,1.6-14.3,3.1-21.3c1.1-5.4,3.4-10.5,8.8-14.1c3.6,7,8.3,11.7,16.6,11.6c7.5-0.1,14-2,20.4-7.2
		c-3.5-2-6.3-3.7-10-5.9c15.6-2.5,26.2-10.5,33.1-23.2c-0.2-0.6-0.5-1.1-0.7-1.7c-6.2,1.2-12.4,2.4-19.7,3.9
		c10.5-16.9,14.2-34.4,11.9-53.8c-12.8,6.9-27.2,9.5-35,23.2c-2.2-3.8-3.9-6.9-6.1-10.8c-2,2.7-3.9,4.5-4.8,6.7
		c-5.3,12.2-7.9,24.9-5.6,38.3c0.4,2.6,0.4,5.9-0.9,8.1c-2.8,4.8-6.4,9.1-9.7,13.7c-0.4-0.2-0.9-0.4-1.3-0.7
		c1.4-29.9,1.4-60,7.5-90.6c3.6,2.1,6.3,3.3,8.6,5.1c7.6,5.9,15.3,5.6,20.8-2.3c4.5-6.5,9.6-11.4,17.5-12.8c0.6-0.1,1.1-0.5,1.6-0.7
		c7-3.6,8.9-10.2,5-17c-1.7-2.9-3.3-5.8-5-8.8c2.1-0.9,4.1-1.1,5.2-2.2c4.6-4.8,9.1-9.6,13.1-14.8c3.4-4.5,3.4-8.6,0-12
		c-4.7-4.8-5-9.5-1.5-15.1c3.3-5.2,3.3-11,1.1-16.6c-0.7-1.7-2.4-4.1-3.9-4.2c-8.1-0.7-11-5.8-11.8-12.9c-0.1-1-0.6-2-1-2.9
		c-1.6-4-4-4.8-7.6-2.4c-1.9,1.2-3.6,2.5-5.4,3.8c2.6-7.7,1.4-14.6-2.4-20.9c-1.4-2.4-4.3-4.5-6.9-5.4c-3-1-5.2-2.2-6.6-5.2
		c-1.7-3.6-4.7-4.7-8.5-3.4c-1.9,0.7-3.9,1.4-5.7,2.3c-3.8,2-7.5,2.9-11.8,1.3c-4.4-1.7-8.5-0.7-11.5,3.3c-2.5,3.4-4.7,7-7.3,10.8
		c-2.1-2.5-4.1-5-6.3-7.3c-4.3-4.5-9.5-5-14.8-1.9c-3.4,2-6.9,3.7-10.5,5.3c-5.8,2.5-7.5,5.4-6.4,11.7c0.5,2.9,0.8,5.8,1.1,8.8
		c0.3,3-1.2,4.7-4.2,5.1c-7.8,1-13.1,5.5-17.5,11.6c-2.3,3.1-2.3,6.1,0.1,9.3c3.9,5.3,3.9,8.1,0.2,13.6c-1.4,2.1-3.2,3.8-4.9,5.7
		c-3.5,3.9-3.5,6.4,0.7,9.5c4,3,5.9,6.5,5.6,11.7c-0.5,6.8,3.3,11.6,10.2,11.8c4.8,0.2,9.7-1.3,14.6-2.2c2.2-0.4,5-2.6,6,0.7
		c0.7,2.3,0.1,5.6-1.2,7.6c-1.3,2-4.2,3-6.4,4.5c-4.7,3.1-6.3,7-5.1,12.5c0.8,3.7,1.7,7.5,2.7,11.2c2.4,8.8,8.3,12.2,17.1,9.4
		c3.2-1,5.7-0.4,8.1,1.6c2.3,1.8,4.6,3.8,7.1,5.2c4,2.2,6.6,1.6,8.8-2.4c2.4-4.4,4.1-9.1,6.2-13.6c0.7-1.6,1.9-2.9,2.9-4.4
		c0.6,0.2,1.2,0.5,1.7,0.7c-5.2,41.2-7.2,82.6-7.5,124.1c-1-1.6-1.6-3.2-2.2-4.9c-2.9-8.5-5.2-17.3-9-25.3
		c-3.8-8.1-3.1-15.2,0.5-22.8c1.9-4.1,3.7-8.4,4.5-12.8c1.3-6.9,0-13.5-4-20.4c-7.8,9-10.6,19.2-12.7,29.9
		c-3.3-7.7-3.5-15.5-2.8-23.5c0.4-4.8,0.9-9.7,0.5-14.5c-0.2-2.9-1.9-5.8-3.3-9.8c-8.5,13.5-17,25.3-13.9,41.3
		c-0.5,0-0.9,0.1-1.4,0.1c-5.6-4.1-11.2-8.1-16.8-12.2c-0.7,2.1-0.5,3.6-0.2,5c1.8,7,5.9,12.3,12.2,16.1c3,1.8,5.6,4.3,8.4,6.5
		c-0.2,0.4-0.4,0.7-0.7,1.1c-5.7-2-11.3-4-17-5.9c2.3,8.5,5.8,15.6,14.2,17.9c5,1.4,10.3,2.2,15.6,2.5c7.7,0.5,10.9,2.3,13.6,9.6
		c2.9,7.9,5.7,15.8,8.1,23.8c4.5,15,8.3,30.2,4.4,46c-0.5,2.1-2.4,3.9-3.6,5.8c-1.8-2.3-3.8-4.6-5.4-7.1c-0.5-0.8,0.2-2.3,0.4-3.4
		c1.5-10.3,0.4-20.3-4.4-29.6c-0.7-1.3-2.3-2.8-3.5-2.8c-1.1-0.1-2.3,1.7-3.3,2.8c-0.7,0.8-1.2,1.8-2.1,3.2c-1.4-2-2.5-3.5-3.6-5.1
		c-1.1-1.6-2.1-3.2-3.4-4.7c-3.8-4.6-4.2-4.6-8.3-0.6c-2.4-3.3-4.6-6.9-7.3-9.8c-2.7-2.9-5.9-5.2-9-7.8c-0.7,0.5-1.4,1-2,1.5
		c0.2,17.8,8.2,32.6,20,46.2c-2.6,1-4.7,1.8-6.7,2.5c-2.7,1-3.3,2.6-1,4.4c7,5.6,14.9,9.1,23.9,8.9c3.1-0.1,5,0.4,6.7,2.8
		c1.3,1.8,2.6,3.6,4.2,5.1c3.8,3.8,4.3,8,3.4,13.3c-2.1,11.7-3.5,23.6-4.8,35.4c-0.9,7.7-1.2,15.4-1.8,23.1
		c-8.3-7.7-15.2-16-20.5-25.6c-1.3-2.3-0.4-5.1,2.8-6.4c3.2-1.2,6.3-2.7,9.3-4.3c0.6-0.3,0.9-1.4,1.2-2.2c1.5-4.5,3-8.9,4.4-13.4
		c0.7-2.4,1.2-4.9,2.1-8.2c-5.3,1.2-9.5,1.9-13.5,3.2c-1.7,0.5-3.6,1.9-4.5,3.4c-2.6,4.5-4.7,9.3-7,13.9c-4.3-2.7-4.5-4.3-1.9-9.4
		c2.6-5.1,8.1-10,2.7-16.5c-0.1-0.1-0.1-0.3,0-0.4c1.7-7.6-6-9.1-9.1-14.1c-2.1,3.1-3.5,6.2-5,9.2c-0.5,1.1-1.4,2.8-2.1,2.8
		c-4,0-4,2.5-4,5.4c0,1.7-0.5,3.5-1,5.2c-1.7,6.1,2.7,13.2,8.8,14.2c0.7,0.1,1.2,0.7,1.8,1.3c0.2,0.2,0.4,0.4,0.6,0.5
		c-0.2,0.2-0.4,0.5-0.6,0.8c-0.6,0.9-1.3,1.9-2,2c-8.8,0.7-11.2,7.6-13.9,14.1c-1.3,3-0.1,4.3,3.2,4.5c2,0.1,4,1.2,6,1.6
		c0.9,0.2,1.8-0.1,2.8-0.2c0.9-0.1,2.1-0.5,2.7,0c2.4,1.6,4.2,0.7,5.8-1.1c1.4-1.6,2.9-2.3,4.4-0.3c5.1,6.6,10.1,13.3,15.3,20.1
		c-3.6,2.6-6.4,2.7-8.9-0.5c-2.2-2.8-4.3-5.6-6.7-8.2c-3.2-3.5-5.2-3.5-7.6,0.4c-1.6,2.6-3.1,2.3-5.4,1.6c-3.8-1.2-7.6-2.3-11.5-3.1
		c-3.4-0.7-4.9,0.8-4.3,4.4c1,6.3,4.6,10.7,9.6,14.2c1.4,1,2.8,2,4.2,3c-0.7,1.2-1.2,2-1.7,2.7c-2.9,4.7-2.6,6,2.4,8.4
		c3,1.4,6.1,2.5,9.5,3.2c3.7,0.8,4.7-1.2,7-2.1c3.2-1.2,3.5-3.6,4.4-6.2c0.8-2.5,2.4-5.6,4.6-6.8c8.1-4.4,14.6-0.4,15,8.9
		c0.4,9.1,0.7,18.3,1.1,27.4c0.1,3.1,0.5,6.3,0.7,9.3c-4.1,1-5.7-0.6-6.7-3.9c-2.9-9.8-14.3-17.1-24.2-15.6c-0.2,2-0.5,4.1-0.8,6.8
		c-4.1-2.4-7.7-4.9-11.5-6.9c-4-2-5.2-1.2-5.8,3.2c-0.1,0.7-0.3,1.4-0.4,2.3c-5.4-0.8-10.6-1.6-16.5-2.5c0.6,1.8,0.8,2.5,1.1,3.1
		c9.1,14.8,30.3,29.6,51.6,22.5c2.2-0.7,4.5-1.3,6.8-1.7c4-0.7,7.1,0.9,8.5,4.6c0.8,2.1,1.1,4.6,1.4,6.9c1.6,12.9,3,25.7,4.7,38.6
		c0.2,1.9,0.5,4.8,3.4,3.8c1-0.3,2-2.9,1.9-4.4c-0.3-6.5-1.3-12.9-1.6-19.4c-0.3-8.3,7.8-15.2,15.7-12.5c8.5,2.9,15.1,0.8,21.7-4.3
		c4.1-3.1,4.3-4.1,0.5-7.7c-0.5-0.5-1.1-1-1.7-1.6c8.1-8.7,16-17.3,20.5-29.8c-2.9,0.4-4.6,0.2-6,0.8c-7.2,2.9-14.4,5.1-22.3,4.8
		c-3.4-0.1-5.2,2.3-5.1,5.9c0.1,1.2-0.2,2.4-0.3,4.4c-1.4-1.1-2-1.7-2.7-2.2c-1.5-1.1-3.3-3.4-4.5-3.1c-1.7,0.4-3.8,2.3-4.4,4.1
		c-1.7,5.1-3.2,10.4-4,15.7c-0.8,5.4-2.2,7.7-8.8,10c-1.7-13.5-3.6-26.9-4.9-40.3c-0.7-6.8,0.8-8,7.2-10.9c4.1-1.9,8-4.4,12-6.4
		c2-1,4.1-1.8,6.3-2.3c5.1-1.1,10.7-1.1,15.3-3.1c7.2-3.1,7.5-5.9,3.2-12.4c1.7-1,3.4-2.1,5.2-3.1c6.8-4.2,10.9-11.4,8.9-17.2
		c-1.5-4.3-0.9-8,0.8-11.9c0.6-1.3,1-3.7,0.3-4.3c-1.1-1-3.3-1.5-4.8-1.1c-5.5,1.5-9.8,4.3-12,10.1c-0.9,2.3-3,4-4.5,6.2
		c-1.8,2.6-3.4,5.3-5,8c-0.9,1.6-1.5,3.4-2.2,5.1c-1.1-1.4-2.2-2.8-3.2-4.3c-0.2-0.2-0.1-0.6-0.3-0.8c-1.5-1.8-3.1-3.6-4.6-5.4
		c-1.6,1.9-4.2,3.5-4.7,5.6c-1.4,6-2.1,12.1-2.8,18.3c-0.7,7.6-6.3,13.2-14.5,13.5c-0.2-16.6-0.3-33.3,3.2-49.6
		c0.7-3.2,3.3-6.2,5.6-8.7c2.8-3,6.1-3.5,9.6-0.2c4,3.7,9,3.3,13.1-0.4c1.2-1.1,2.2-2.4,3.6-3.3c5.5-3.4,11.2-6.6,16.7-10.1
		c3.7-2.3,3.7-3.8,0.8-7c-9-9.9-25-9.2-33.4,1.3c-3,3.8-6.3,7.4-9.7,10.9c-1.5,1.5-3.4,2.6-6,4.5c1.6-14.8,4.5-28.1,9-41
		C271.8,464.5,273.3,463.2,274.7,462.2z M275.6,280.6c-1-0.1-1.8-2.9-2.7-4.5c2.5-1.1,4.9-2.1,7.4-3.2c0.3,0.6,0.6,1.1,0.9,1.7
		C280,277.3,279.5,280.9,275.6,280.6z M312.1,258.6c-2.4,0.6-4.7,1.2-7.3,1.9c1.1,3.1,1.1,6.1-3.8,5.8c-0.2,0-0.7,0.2-0.7,0.4
		c-0.5,6.3-7.5,5.6-10.3,9.6c-1.4,1.9-4,3.6-6.3,0.9c-1.7-1.9-2-4.1,0.9-5.4c8.2-3.7,14.1-9.7,18.5-17.6c0.4-0.8,2.7-1.3,3.7-0.9
		c2,0.9,3.8,2.6,5.6,3.9C312.1,257.7,312.1,258.2,312.1,258.6z M305.4,250c0.3-2.9-0.3-6.1,3.8-5.2c1.9,0.4,3.5,1.8,5.2,2.8
		C312.3,251.2,309.1,250.4,305.4,250z M315.3,236.5c-0.6,4.9-3.7,5.3-6.5,4.6c-1.3-0.3-2-2.8-3-4.3c0.4-0.4,0.8-0.9,1.2-1.3
		C309.6,235.8,312.4,236.1,315.3,236.5z M313.6,228.5c-1.6,1-3.1,2.6-4.8,2.9c-0.9,0.1-2.2-1.9-3.3-2.9c1.3-1,2.6-2.1,4.5-3.6
		C311.5,226.3,312.6,227.4,313.6,228.5z M307.9,215.5c1.5,1.7,3.2,2.8,3.3,4c0.4,3.3-2.7,3.9-4.7,3.7c-1.4-0.1-2.6-2.4-3.9-3.6
		C304.1,218.3,305.7,217.1,307.9,215.5z M303.6,207.4c0.8-0.3,2.3,1.3,3.5,2c0,0.6,0.1,1.2,0.1,1.7c-1.8,1-3.6,2.5-5.5,2.8
		c-0.9,0.2-2.1-2-3.2-3.1C300.1,209.7,301.7,208.1,303.6,207.4z M296.9,198.7c0.5-0.3,2.4,2.1,4.6,4.1c-2.5,1.7-4.1,3.6-5.8,3.7
		c-1.3,0.1-2.7-2.2-4-3.4C293.4,201.6,294.9,199.7,296.9,198.7z M283.1,197c0.4-1.6,2.1-3.4,3.6-3.8c0.8-0.3,2.4,2,4.5,3.9
		c-2.2,1.6-3.7,3.5-4.8,3.3C285.1,200.2,282.9,197.9,283.1,197z M275.9,191.5c0.8,1,2.2,1.9,2.3,3c0.1,0.9-1.2,2-2.5,4
		c-1.3-2.1-2.6-3.3-2.4-4.2C273.5,193.3,275,192.5,275.9,191.5z M257.3,195.9c1.1,1.1,2.7,2,3.3,3.3c0.3,0.7-1,2.2-2.2,4.5
		c-1.5-2.4-2.7-3.6-3-5C255.1,197.9,256.6,196.8,257.3,195.9z M239.1,229c-3.1,0.6-5.9,0.2-7.3-3c-0.2-0.5,1.1-2.5,1.9-2.5
		c3.5-0.4,5.6,1.5,6.7,4.7C239.8,228.5,239.5,228.9,239.1,229z M240.7,220.9c-1.9-1.5-3.6-3.2-5.1-5c-0.1-0.2,1.9-2.5,2-2.4
		c2.1,1.3,4,2.9,6.7,5C242.4,219.7,241,221.1,240.7,220.9z M243.8,272.7c-0.5-0.3-1-0.6-1.5-0.8c-0.9-2.5-0.2-4.7,2.3-5.9
		c0.6-0.3,1.9,0.8,2.9,1.2C246.3,268.9,245,270.8,243.8,272.7z M245.3,214.9c-1.8-2.6-3.2-4.4-4.1-6.4c-0.2-0.5,1.4-1.8,2.2-2.7
		c1.6,1.6,3.3,3.1,4.5,4.9C248.2,211.2,246.6,212.9,245.3,214.9z M248,202.9c-0.1-0.2,1-1.3,1.8-2.2c0.1-0.1,0.2-0.2,0.3-0.4
		c0.3,0.3,0.7,0.6,1,0.9c1,0.9,2.1,1.9,3.5,3.1c-1.3,1.2-2.6,2.6-2.7,2.5C250.5,205.7,249.1,204.5,248,202.9z M253.8,279.2
		c-0.8-0.8-2.4-2.1-2.2-2.5c0.9-1.8,2-3.4,3.5-4.8c0.4-0.3,2,0.8,3.9,1.5C256.8,275.9,255.3,277.5,253.8,279.2z M266.5,281.4
		c-0.3,0.5-0.7,0.9-1,1.4v0c-0.5-0.5-0.9-1-1.4-1.6c-0.8-1-1.8-2.1-3.2-3.6c2.5-1.4,3.9-2.7,5.4-2.8c1-0.1,3.2,2.1,3.1,2.3
		C268.5,278.6,267.5,280,266.5,281.4z M253.1,262.5c9,4.5,18.1,6.3,27.7,2.5c9.5-3.7,14-12,18.2-21.2c1.4,9.3-6.3,20.2-16.7,24.8
		C271.7,273.1,259.1,270.6,253.1,262.5z"/>
	<path fill="#C49A6C" d="M185.2,423.6c0.1-1.6-1.2-3.3-1.9-5c-1.5,0.8-3.5,1.2-4.5,2.5c-2.9,3.4-5.2,7.2-8,10.5
		c-0.8,0.9-2.8,1.8-3.8,1.4c-3.2-1.2-5.6-0.2-7.6,2c-3.9,4.4-7.6,8.9-11.4,13.4c-1.6,1.9-3.4,3.7-5.5,6c-1.6-4.2-2.6-7.6-4.2-10.7
		c-2-4-3.3-4-5.9-0.6c-6.1,8-9,17.2-8.5,27.3c0.4,7.2-2,11.2-9.2,14.4c-0.1-0.6-0.3-1.1-0.3-1.7c0.2-14.1,0.5-28.3,0.6-42.4
		c0-5.4,2.6-8.8,7.4-10.9c6-2.7,12-5.6,18-8.3c4.3-1.9,7.1-5,8.5-9.8c-1.4-0.4-2.6-0.8-4.4-1.4c6.5-3.7,12.6-6.8,18.2-10.4
		c5.6-3.6,10.5-8,12.8-14.5c-0.3-0.4-0.5-0.7-0.8-1.1c-3.6,1.5-7.3,2.9-11.9,4.8c1.2-2.9,1.9-4.6,2.6-6.4c2.7-7.6,5.6-15.2,7.9-22.9
		c0.9-2.9,1.1-6.4-1.9-8.9c-10.6,12-21,23.9-31.9,36.2c-0.9-1.7-1.3-3-2.1-4c-1.7-2.1-3.5-4.1-5.2-6.1c-1.4,2.1-3.5,4.1-4.2,6.4
		c-2.6,9.2-4.6,18.5-7.2,27.7c-1.1,3.9-3.1,7.5-4.7,11.3c-0.6-0.2-1.1-0.3-1.7-0.5c-1.9-19.3-2-38.6-0.7-58.6
		c5.3,2,8.8-0.5,12.4-3.6c1.4-1.3,4.2-1.7,6.2-1.4c4.1,0.6,8.1,2,12.5,3.2c0.7-2.4,1.2-5.2,2.5-7.6c0.8-1.4,3.1-2.8,4.6-2.7
		c4.6,0.5,7.7-1.4,9.9-5.1c5.4-9.2,5.9-18.6,0.1-27.6c-5.4-8.4-13.8-10.7-23.4-9.2c-1.4,0.2-3,0.3-4.4-0.1c-1.1-0.4-1.8-1.6-2.7-2.5
		c1.2-1,2.3-2.4,3.6-2.9c0.8-0.3,2.4,0.4,3.2,1.1c2.5,2.2,4.6,1.1,7.1-0.2c3.6-1.7,7.6-3.2,11.5-3.7c6.7-0.9,12.9-2.5,16.1-9.1
		c1.8-3.7,2.9-7.7,3.9-11.7c0.9-3.4-0.3-5.8-4-7.1c-4.8-1.7-6-4.3-5.2-9.2c0.2-1,0.4-2,0.8-3c1-2.6,0-3.5-2.5-4.3
		c-3.5-1.1-6.7-2.9-10.2-4.2c-2-0.8-4.2-1.6-6.3-1.7c-9.3-0.5-20.9,8.8-23.6,18.2c-0.7,2.4-1.1,5.9-4.8,5c-3.9-0.9-2.7-4-2.1-6.8
		c0.3-1.7,0.5-4.1-0.4-5.4c-4-5.9-2.9-10.6,2.3-14.9c0.6-0.5,1-1.1,1.3-1.8c6.2-12,12.5-24,18.7-36c1.2-2.4-0.3-3.5-2.5-2.9
		c-3.6,0.9-7,2.3-10.5,3.3c-2,0.6-4,0.7-6.4,1.2c0.2-1.3,0.1-1.8,0.3-2.2c8-12.2,8.8-26.4,11.1-40.1c0.8-4.7-0.5-5.8-5-4.5
		c-3.2,0.9-6.2,2.4-9.7,3.8c-0.4-1.8-0.8-3.5-1.2-5.2c-1.6-6.1-3.2-12.3-5.1-18.3c-0.5-1.6-2.2-2.9-3.4-4.3
		c-1.2,1.2-2.9,2.2-3.4,3.6c-3.2,9.1-6.2,18.3-9.3,27.5c-0.5,1.6-0.9,3.2-1.6,5.8c-1.7-2-2.7-3.2-3.8-4.3c-1.3-1.2-2.7-2.3-4.1-3.5
		c-1,1.7-2.8,3.3-2.9,5.1c-0.4,7.8-0.5,15.6-0.3,23.3c0.2,4.6,1.3,9.1,2,14.2c-2.7-1.3-4.8-2.2-8-3.7c0.7,3.2,0.8,5.2,1.5,7
		c4.4,12.1,10.7,22.9,19.9,32c1.4,1.4,2.2,3.7,2.4,5.7c0.4,3.6,0.1,7.3-0.1,11c0,0.9-0.5,1.7-0.8,2.5c-0.5,0.3-0.9,0.5-1.4,0.8
		c-0.6-1.5-1.2-3-1.8-4.6c-2.2,1.7-3.5,2.7-5.2,4c-0.9-1.9-1.8-3.3-2.3-4.9c-1.8-5.8-3.2-11.7-5.3-17.3c-3.3-8.6-7.7-11-16.7-10.4
		c-4.1,0.3-8.2,0.6-12.3,1c-5.4,0.5-6.9,2.7-5.6,7.9c1.3,5.5-0.1,9.2-4.6,12.2c-7.4,4.9-8.2,11.5-2.1,18.2c1,1.1,2.1,2.2,3.1,3.2
		c-5.9,0.6-11.3,1-16.6,1.9c-4.3,0.7-6.4,3.5-5,6.5c3.3,7.4,1.7,13.4-4.3,18.5c-2.5,2.1-2.6,4.6-1.6,7.6c3.2,9.1,10.6,14.4,21,14.8
		c5.9,0.2,11.9,0,18.3,0c-1.6,1.3-3.2,2.2-4.1,3.5c-2.7,3.9-5.7,7.8-7.5,12.2c-1.4,3.6-1.5,8.1,2.7,10.7c4,2.5,5.9,5.8,6,10.6
		c0,1.5,2.2,3.9,3.8,4.3c5.2,1.3,10.8,3.2,16,2.6c8.7-1,12.7,4.4,17.2,9.9c2.4,3,5.1,5.8,7.1,9c1.4,2.3,2.5,5,2.7,7.7
		c1.2,17.3,2.3,34.7,3.1,52.1c0.3,6.7,0.1,13.4,0.1,21.1c-1.4-1.3-2.1-1.6-2.4-2.1c-4.3-7-8.9-14-7.4-22.9c0.4-2.1,0.3-4.5-0.1-6.6
		c-0.9-5.2-1.7-10.5-3.4-15.4c-1.4-4.1-3.7-4.1-6.4-0.8c-1.2,1.5-2.3,3.2-3.6,4.9c-4.6-5.1-7.9-10.4-9.2-16.8
		c-0.7-3.3-1.4-6.6-2.4-9.9c-0.7-2.3-2.1-4.2-4.9-2.8c-3.2,1.6-4.8-0.1-5.9-2.6c-1.5-3.2-2.7-6.5-3.8-9.8c-1-3.1-1.5-6.4-2.9-9.2
		c-0.8-1.6-2.9-2.6-4.4-3.8c-1.1,1.5-3.1,3-3.3,4.6c-1.4,10.7,0.9,20.4,7.9,28.9c1.5,1.8,2.8,3.7,4.2,5.6c-0.3,0.4-0.6,0.7-0.8,1.1
		c-3.6-0.4-7.3-0.8-11.8-1.3c0.9,2.6,1.3,4.4,2.2,6c7.8,14.2,17,27.3,31.1,36.1c1.5,0.9,2.6,2.5,3.9,3.8c-0.3,0.3-0.6,0.6-0.8,0.8
		c-1.7-0.5-3.4-1.1-5.1-1.6c-0.4,0.4-0.8,0.8-1.1,1.2c1.7,2.3,3,5.2,5.2,6.8c4.6,3.2,9.6,5.7,14.5,8.4c4.1,2.3,7.3,5.4,7.5,10.2
		c0.6,12.5,0.9,24.9,1.3,37.4c0,0.6-0.5,1.2-1,2.2c-5.9-5.2-7.2-11.9-8.7-18.7c-1.9-8.3-4.4-16.4-6.8-24.6c-1-3.4-2.9-3.3-5-0.8
		c-1.2,1.4-2.3,3-3.3,4.4c-3.9-4.4-7.3-8.9-11.4-12.6c-6.4-5.7-11.7-11.9-14.5-20.2c-0.3-0.8-1-1.5-1.8-2.2c-0.6-0.5-1.3-1-1.9-1.5
		c-0.2-0.2-0.4-0.3-0.6-0.5v0l0,0c-0.1,0.2-0.2,0.5-0.4,0.7c-0.3,0.5-0.6,0.9-0.8,1.4c-0.7,1.1-1.4,2.3-1.5,3.5
		c-0.6,7.4,2,14.2,5.1,20.7c0.8,1.7,1.5,3.5,2.4,5.5c-2.3-0.2-4-0.4-5.7-0.6c-0.4,0.3-0.7,0.7-1.1,1c2,3.8,3.6,7.8,6,11.4
		c6.3,9.2,15.3,15.4,24.3,21.6c1.9,1.3,3.7,2.8,5.8,4.4c-1.8,0.6-3,1.1-4.9,1.7c1.8,1.9,3,3.9,4.7,5c4,2.5,8.1,4.8,12.4,6.8
		c5.6,2.7,8.4,6.7,8.4,13.2c0,11.3,0.4,22.7,0.8,34c0.1,3.5,0.5,7.1,0.8,10.6c-4.5-5.2-7.9-10.6-11.7-15.8c-1.9-2.6-1.7-4.6,0-7.1
		c2.4-3.5,4.7-7.1,6.7-10.9c0.6-1.2,0.7-4,0.1-4.4c-1.3-0.7-3.4-0.7-5-0.3c-2,0.5-3.8,1.6-5.7,2.5c-2.4-5.6-4.3-10.8-6.8-15.7
		c-1-2-3.8-4.7-5.2-4.4c-2.3,0.4-5.2,2.8-5.8,5c-1,3.4-0.3,7.3-0.3,11.2c-0.3,0-1,0-1.7,0.1c-1.6,0.4-3.2,1-4.9,1.4
		c0.8,1.4,1.3,3.2,2.5,4.2c3.1,2.8,6.5,5.3,10.1,8.2c-3,0.7-5.6,1.4-8.3,2.1c-3.5,1-3.5,3.4-1,5c2.8,1.8,6.6,4,9.5,3.5
		c7.2-1.1,11.4,3.3,14.3,7.7c6.1,9.3,11.2,19.3,15.8,29.5c3.2,7,2.2,14.8,1.1,22.4c-6.2-1.4-6.4-1.7-4.5-6.6c0.6-1.7,1.4-3.3,1.6-5
		c0.2-1.6-0.4-3.2-0.6-4.8c-1.5,0.8-3.3,1.4-4.5,2.6c-1.6,1.6-2.8,3.7-4.1,5.5c-0.5-0.2-1-0.4-1.5-0.7c0-2.3,0-4.6,0-7
		c-0.3,0.2-0.7,0.4-1,0.7c-1.9-3.1-4-6.1-5.8-9.2c-2.2-3.9-4.1-8-6.6-11.7c-0.6-0.9-3.6-1.5-4.4-0.8c-2.9,2.2-5.7,5-4.3,9.3
		c1.5,4.7,3.2,9.4,4.9,14.5c-1.8,0.3-3.5,0.7-5.2,1c-3.2,0.5-4.3,2.6-2.2,4.9c2.1,2.2,4.9,4.1,7.8,5.2c2.6,1,5.6,0.6,9.2,0.9
		c-2.4,3.3-4.5,6.2-7.2,9.9c2.5,0.3,4.3,1,5.8,0.6c3.7-0.9,7.4-1.9,10.8-3.5c4.9-2.3,10.8,0.8,10.7,6.2c0,5.9-0.5,11.8-0.5,17.7
		c0,1.7,0.4,4.7,1,4.8c3.1,0.6,6.5,0.9,9.5,0.2c1-0.2,1.8-3.7,1.8-5.7c0.1-14.3,0.1-28.6,0-42.9c0-6,3.8-12.1,9.5-14
		c1.6-0.5,4.9,0.3,5.5,1.5c2,4.1,3.2,8.7,4.8,13c1.4,3.8,2.5,7.8,4.7,11.1c2.2,3.3,5.9,4.9,10.1,3.4c4.3-1.6,6.6-4.9,7-9.3
		c0.2-2.4,0-4.9,0-7.7c2.8,0,5.3,0.2,7.7-0.1c3.6-0.4,8-5.8,7.3-9.3c-0.8-4.2-4.6-3.5-7.5-3.5c-1.8,0-3.7,1.2-5.5,2.1
		c-1.2,0.6-2.1,1.6-3.9,2.9c0-2.6,0.2-4,0-5.4c-0.3-1.6-0.7-4.5-1.3-4.5c-1.8-0.2-3.9,0.6-5.6,1.3c-1,0.4-1.7,1.5-2.6,2.4
		c-5.3,5.5-9.1,4.7-12.2-2.7c6.7-3.5,13-7.7,21.3-7.3c4.1,0.2,8.5-0.6,11-4.9c-1.2-1.7-2.3-3.2-3.7-5.2c2.8-0.5,5.2-0.4,6.9-1.5
		c2.2-1.4,4-3.6,5.4-5.8c0.4-0.7-0.8-3-1.9-3.8c-6.3-4.6-6.4-4.5,0.7-8.2c0.3-0.1,0.5-0.3,0.8-0.4c3-1.6,4.7-4.4,3.3-7.3
		c-0.9-1.9-3.7-3.5-5.9-4c-3.2-0.8-5.2,1.5-6.1,4.5c-0.5,1.6-0.7,3.3-1,5c-6.3-2-10.3,1.5-9.1,7.6c0.4,1.9,1.4,3.6,1.6,5.5
		c0.2,1.9-0.2,3.9-0.3,5.9c-0.7,0.1-1.5,0.2-2.2,0.3c-1.2-3.4-2.2-6.9-3.5-10.3c-0.6-1.5-1.8-2.7-2.8-4c-1.1,1.2-3.1,2.3-3.2,3.7
		c-0.6,4.6-0.6,9.3-0.9,14c-0.1,1.3,0.5,3.3-0.1,3.7c-4.1,2.7-8.5,5.1-13.8,8.2c1.1-4.3,2.1-7,2.4-9.7c0.5-3.7-1.3-4.8-4.7-3.3
		c-1.9,0.8-3.8,1.7-5.8,1.8c-3.6,0.2-4.1,2-3.6,5c0.8,4.5-0.1,6.3-4.2,8.8c-0.3-2.4-0.6-4.7-0.9-7c-0.7-4.1,0.6-7.2,4.3-9.3
		c4.5-2.6,8.9-5.1,13.4-7.7c2.2-1.3,4.3-2.8,7.2-4.6c-2.8-1.8-4.8-3.1-7.7-5c13.5-4.2,25.8-8.9,29.9-24.6c-3.2,1.3-5.7,2.2-8.1,3.2
		c-0.2-0.3-0.4-0.6-0.6-0.9c8.4-6.9,18.4-12.5,21-25.4c-2.9,0.5-5.3,0.9-8.1,1.4c1.1-4.5,2.2-8.7,3.1-13c1.7-8.3,2.9-16.6,0.5-24.9
		c-0.5-1.8-2.5-4.3-4-4.4c-1.5-0.1-4.1,2.1-4.6,3.7c-1.1,3.6-1.3,7.4-1.7,11.2c-0.5,4.3-0.9,8.6-1.4,13.4c-5.1-2.1-6.3,0.6-7.3,3.6
		c-2.1,6.3-4.1,12.6-6.3,18.8c-0.6,1.8-1.9,3.3-3.1,5.3c-1-1-1.3-1.6-1.7-1.9c-1.6-1.1-3.2-2.1-4.8-3.2c-0.9,1.6-2.2,3.1-2.6,4.8
		c-1.7,7.2-3.7,14.3-4.4,21.6c-0.9,9.5-7.5,14-14.3,19.7c-0.2-1.8-0.5-2.7-0.5-3.7c-0.1-21.7-0.3-43.3-0.2-65c0-6.8,0.4-6.5,7.2-8
		c6.6-1.4,13.1-3.2,19.6-5c1.6-0.4,3-1.5,5.5-2.8c-4.9-2.4-8.7-4.3-13.2-6.6c2.3-1.3,3.8-2.5,5.5-3.2c4.9-1.9,9.9-3.6,14.9-5.4
		c7.6-2.7,14.6-6.4,19.9-12.7c1.9-2.3,2.9-5.3,4.3-8.1c-0.4-0.3-0.8-0.6-1.2-0.8c-2,0.4-3.9,0.8-5.9,1.2c1.5-3,3.5-5.1,5.4-7.3
		C180.9,437.5,184.9,431.3,185.2,423.6z M135.9,300.4c-0.6,0.2-2.8-2.1-2.7-3c0.2-1.2,1.9-2.2,3.5-3.8c2,1.5,3.4,2.5,4.7,3.5
		C139.5,298.3,137.8,299.8,135.9,300.4z M139.2,289c-1.5,0.9-3,2.3-4.5,2.3c-0.9,0-1.8-2.2-2.7-3.4c1.1-0.7,2.3-1.9,3.5-2
		c1.2-0.1,2.4,0.9,3.7,1.4C139.1,288,139.1,288.5,139.2,289z M133.2,282.8c-2.6,1.9-3.9,0.3-5-3.5c2.7,0,5-0.1,7.3-0.1
		C134.8,280.4,134.3,282,133.2,282.8z M130,270.5c0.3-0.2,1.8,1.1,3.9,2.3c-2.8,2.3-4.7,3.9-6.7,5.3c-0.1,0.1-2.3-2.4-2.2-2.5
		C126.5,273.7,128.2,272,130,270.5z M113.4,260.8c1.5,2.3,2.9,3.5,2.8,4.7c-0.1,1.1-1.7,2.2-2.6,3.2c-1-1-2.7-1.9-2.8-3.1
		C110.7,264.5,112.1,263.2,113.4,260.8z M113.4,319.6c6.9-4.7,9.9-11.7,12.1-20.3c2.8,7.7-2.1,17.6-10.4,23.2
		c-7.2,4.9-18.4,6.5-24.3,0.2C99,324.1,106.5,324.3,113.4,319.6z M92,329.5c1.1-0.1,2.3,1.1,4.5,2.2c-2.1,1.3-3.3,2.5-4.4,2.5
		c-1.1-0.1-2.1-1.5-3.1-2.4C89.9,331,90.9,329.6,92,329.5z M70.3,283.2c2.1,2.5,3.8,4.3,5,6.4c0.2,0.4-1.7,2-2.7,3
		c-1.8-2-3.6-3.9-5.1-6C67.4,286.4,68.9,284.9,70.3,283.2z M74.5,309.5c0.7,0.2,1.3,3.4,0.8,4c-1.9,2-4.4,2.7-7.2,0.4
		C69.7,311,71.2,308.5,74.5,309.5z M65.4,305.6c1.1-3.2,2-6.1,5.7-4.8c1.1,0.4,2.3,3.6,1.8,4.4C70.8,308.5,68.2,306.2,65.4,305.6z
		 M69,292.5c1.9,0.9,3.3,2.7,4.8,4.2c-0.9,0.9-1.9,1.8-3.5,3.3c-2-1.9-3.5-3.4-5-4.8C66.6,294.2,68.3,292.2,69,292.5z M63.3,324.8
		c2.1,2.6,3.6,4.7,5.4,6.6c1.7,1.9,3.7,3.6,5.8,5.5C68.7,337.6,62.8,331.3,63.3,324.8z M79.6,320.7c-1.6,1.9-3.6,3.6-5.4,5.3
		c-0.7-0.6-1.3-1.2-2-1.8c1.3-2.1,2.5-4.2,4-6.1c0.4-0.5,2.2-0.7,2.6-0.3C79.4,318.5,80,320.2,79.6,320.7z M75.2,285.3
		c-1.6-1.7-3-3.6-4.1-5.7c-0.1-0.2,2.1-2.3,2.4-2.2c2,1.2,3.7,2.8,6.4,5C77.5,283.9,75.4,285.5,75.2,285.3z M79.8,278.4
		c-1.6-1.2-3-2.8-4.1-4.5c-0.2-0.2,2-2.5,2.2-2.4c1.8,1,3.3,2.3,5.8,4.2C81.8,277.1,80.1,278.6,79.8,278.4z M83.1,328.8
		c-0.6,0.1-1.4-0.7-2.2-1.3c-0.1-0.1-0.2-0.2-0.3-0.2c0.5-0.5,0.9-1.1,1.4-1.7c0.5-0.5,1-1,1.6-1.4c0.4-0.2,1.7,1,3.3,2
		C85.2,327.5,84.2,328.6,83.1,328.8z M85.7,272.6c-1.1-1.2-2.4-2.2-3-3.5c-0.2-0.5,1.1-1.8,2.3-3.6c1.4,1.9,2.8,3,3,4.2
		C88.1,270.5,86.5,271.6,85.7,272.6z M102.1,379.3c-0.5,0.3-1,0.6-1.5,0.9c-3.9-3.9-7.8-7.8-11.6-11.8c-0.6-0.6-0.7-2-0.4-2.9
		c2.5-7.4,5.2-14.8,7.9-22.2c0.2-0.6,0.5-1.1,1-2.5C104.1,354.1,102,366.8,102.1,379.3z M107,330.4c-1.2,2-1.9,3.9-3.2,5.1
		c-0.8,0.7-2.7,1-3.8,0.5c-0.9-0.4-1.7-2.2-1.5-3.2c0.2-0.8,1.9-1.8,2.9-1.8c14-0.6,22.8-8.7,29.4-21.1c2.3,1.6,4.5,3,7.4,5
		c-1.8,1.2-2.7,1.9-3.8,2.5c-0.7,0.4-2.3,0.9-2.3,1c1.7,5-3.6,5.2-5.6,7.6c-2.1,2.6-5.1,4.4-7.9,6.3c-0.6,0.4-2-0.4-3.1-0.7
		C111.5,336.4,111.1,336.4,107,330.4z M148.8,618.9c0.6,0.4,1.1,1,1.9,1.7c1.1-1.3,1.9-2.3,2.7-3.3c2.8,3,2.9,6.7,0.4,8.8
		c-2.3,2-5.7,1.3-8.1-1.5c-0.5-0.7-1.3-1.4-1.4-2.2c-0.3-2.4-0.4-4.9-0.6-7.3C145.5,616.3,147.2,617.6,148.8,618.9z"/>
	<path fill="#C49A6C" d="M899.9,257.7c-2.1,1.3-3,1.9-4.7,2.9c3.3,1.7,6.1,3.1,9.6,5c-2.8,0.6-4.7,1-6.5,1.5c-1.7,0.6-3.3,1.4-5,2.1
		c0.2,0.7,0.3,1.4,0.5,2.1c4.4-0.3,8.9-0.6,14.7-1c-2.3,3.1-3.9,5.3-5.6,7.6c5,3.3,6.8-1.9,9.3-3.3c1.1,2.2,2.1,4.2,3.1,6.1
		c1.1-1.6,2.2-3.3,3.3-4.9c0.6,1.1,1.4,2.4,2.1,3.7c5.9,0.7,4.5-4.1,6.5-7.8c1.2,2,2.3,4,3.5,6c0.7-0.3,1.3-0.6,2-0.9
		c0-1.7,0.4-3.6-0.1-5.2c-0.5-1.8-1.7-3.5-2.7-5.2c2.1,0.6,3.5,1.9,5.1,2.8c0.9,0.5,2.3,0.1,3.4,0.1c-0.3-1.2-0.2-2.9-1-3.6
		c-1.6-1.6-3.6-2.7-5.4-3.9c0.2-0.4,0.3-0.7,0.5-1.1c2.4,0.3,4.8,0.6,8.1,1.1c-1.3-1.9-2.1-3.2-3-4.6c1-0.9,2.1-1.7,2.9-2.6
		c1-1.1,1.7-2.4,2.7-3.5c3.2-3.9,4.9-3.8,6.9,0.7c0.9,2.1,3.9,4.2,0.7,6.9c-0.2,0.2,0.5,1.6,1,2.2c1,1,2.3,1.7,3.4,2.5
		c-0.4,0.4-0.8,0.8-1.2,1.2c-4.1-0.7-4.2-5.8-7.5-8.1c0.2,3.8,0.5,7.1,0.7,10.6c-1.8-0.2-2.7-0.2-4.2-0.4c1.1,3,1.9,5.4,2.7,7.6
		c-0.8,0.3-1.5,0.6-2.2,0.8c1.9,2.7,3.8,5.4,5.8,8.2c-1.8-1-3.6-2.1-5.7-3.4c0.2,3.1,0.7,4.7,2.4,5.7c0.4,0.2,0.8,0.4,1.3,0.6
		c0.3,0.1,0.5,0.2,0.8,0.2c0.6,0.1,1.2,0.3,2,0.4c0.7,0.1,1.6,0.2,2.5,0.3c-0.2,0.1-0.3,0.2-0.5,0.3c-1.1,0.8-2.2,1.8-3.5,2.2
		c-3.3,1.2-3.1,2.8-1.3,5.1c0.8-0.4,1.6-0.9,2.4-1.3c0.8-0.4,1.5-0.8,2.3-1.2c-1.6,1.2-3.2,2.3-4.8,3.5c-1.6,1.1-3.1,2.3-4.6,3.3
		c-2.6-3-4.5-5.1-6.4-7.3c-0.5,0.2-1,0.4-1.4,0.5c-0.6,2.7-1.1,5.4-1.7,8.3c-4-2.1-0.3-6.7-2.6-9.7c-4.4,0.9-2.7,5.1-4.3,8.6
		c-2-2.3-3.7-4.2-5.8-6.5c-1.1,2.2-2.1,4-3.5,6.6c-0.3-2-0.3-3-0.7-3.9c-0.4-1-1-1.8-1.5-2.7c-0.6,1-1.5,2-1.7,3
		c-0.3,2.1-0.1,4.2-0.1,6.3c-2.8-1.4-4.9-2.7-7.1-3.6c-0.5-0.2-1.2,0-1.9,0.3c-0.3,0.1-0.5,0.2-0.8,0.3c-0.1,0-0.3,0.1-0.4,0.1v0
		c0.1,0.1,0.1,0.3,0.1,0.4c0.3,0.9,0.5,2,1.1,2.5c1.8,1.7,3.9,3.1,6.8,5.2c-11.6-2.7-11.6-2.7-13.2-0.7c2.2,1.1,4.6,2,6.6,3.5
		c1,0.8,2.2,3.1,1.8,3.8c-2.1,3.3-0.1,4.8,2.2,6.4c1.4,1,2.7,2.1,4.5,3.4c-3.6-0.2-6.4-0.3-9.3-0.4c-0.2,0.6-0.3,1.2-0.5,1.8
		c2.7,1.3,5.5,2.7,7.5,3.7c-0.1,0.6-0.3,1.1-0.4,1.6c-0.2,1-0.5,2-0.7,2.9c-0.1,0.5-0.2,0.9-0.3,1.4v0c1,0.2,2,0.4,3,0.6
		c1,0.2,2,0.4,3,0.6c-0.1,0.9-0.2,2.7-0.4,5.5c2.3-1.9,3.6-2.9,4.8-3.9c0.8,1.5,1.5,2.7,3,5.3c1.7-3.7,2.9-6.3,4-8.8
		c1.3,2.2,2.7,4.5,4,6.8c0.5-0.2,0.9-0.3,1.4-0.5c0.2-1.9,0.4-3.7,0.7-5.9c0.7,0.5,1,0.8,1.4,0.9c1.5,0.7,3,1.4,4.6,2.1
		c0-1.9,0.1-3.9-0.2-5.8c-0.2-1.1-1.3-2-1.7-3c-0.3-0.8,0.1-1.9,0.2-2.8c0.4-0.3,0.9-0.6,1.3-0.9c-0.2,5.7,3.2,5.1,6.4,5.1
		c1.2,0,2.4,0,3.5,0c7.1,0.1,9.6,2.1,12.3,10.2c-2.1-2.2-3.7-3.8-5.3-5.5c-0.5,0.3-1,0.6-1.5,0.9c1.7,3.5,3.5,6.9,5.3,10.7
		c-2.2,0-4.6,0-6.7,0c-2.2,9.1,6.2,5.3,9.5,8.3c-1.2,0.9-2.1,1.6-2.9,2.2c-1.3-0.6-2.7-1.9-3.8-1.6c-3.5,0.8-7.1,2-10.4,3.4
		c-6.3,2.7-12.6,5.8-18.8,8.7c-2,0.9-4.1,1.7-5.9,2.9c-3.7,2.4-5.2,6.3-3.7,8.9c1.6,2.7,5.7,3.5,9.5,1c4-2.7,7.8-5.8,11.3-9.2
		c5.8-5.8,12.2-10.7,20.3-12.7c0.1,1.4,0.3,2.8,0.4,4.3c1.5-0.5,3.5-0.6,4.5-1.7c1.5-1.6,2.2-3.8,3.3-5.8c0.5,0.2,1,0.4,1.5,0.6
		c-1.4,3.6-2.8,7.2-4.1,10.9c0.4,0.4,0.7,0.8,1.1,1.1c2.8-2.2,5.6-4.4,7.9-6.1c0.3,2.3,0.6,5.3,0.9,8.3c0.6,0.1,1.3,0.2,1.9,0.3
		c1.1-2.6,2.1-5.1,3.5-8.4c0.4,3.1,0.7,5.3,1,7.5c0.4,0.1,0.8,0.2,1.1,0.3c1-1.5,1.9-2.9,2.6-4c1.4,0.7,2.8,1.4,4.2,2.1
		c0.5-1.6,1.3-3.2,1.3-4.8c0.1-1.8-0.5-3.7-0.8-5.7c2.8,0.6,4.8,5.6,8.6,0.9c-2.8-2.3-5.5-4.6-9.1-7.6c4.6,0,8.1,0.2,11.5-0.1
		c1.3-0.1,2.5-1.3,3.7-2c-1.3-0.6-2.5-1.6-3.9-1.7c-2.6-0.3-5.3-0.1-9.3-0.1c3.4-4.3,10.7-2.9,10.6-9.7c-3.1,1.3-5.5,2.4-7.9,3.4
		c0.8-4.8,7.7-5.8,5.1-12.2c-2.7,2.3-5,4.3-7.2,6.2c-0.5-0.2-0.9-0.4-1.4-0.6c0.3-1.6,0.3-3.4,1-4.8c0.8-1.7,2.3-3.1,3.5-4.6
		c1.9-2.3,1.2-3.9-1.4-5.3c-2,3.1-3.9,5.9-5.8,8.8c-0.4-0.1-0.8-0.3-1.3-0.4c0.4-2,1-4,1.2-6.1c0.1-0.6-0.2-1.2-0.4-1.9
		c-0.1-0.3-0.2-0.5-0.3-0.8c0-0.1-0.1-0.3-0.1-0.4c-0.2,0.2-0.4,0.3-0.7,0.5c-0.7,0.4-1.4,0.9-1.8,1.5c-0.7,0.9-1.1,2.2-1.8,3.7
		c-1.1-1.9-1.9-3.3-2.8-4.9c-1.6,1.3-2.7,2.2-3.9,3.2c-0.8-0.7-1.6-1.4-2.5-2.2c-1.3,1.7-2.3,3.2-3.4,4.6c-0.5-1.2,0-2.1-0.2-2.8
		c-0.4-1.5-1-2.9-1.6-4.3c-1,1.4-2.4,2.7-2.8,4.2c-0.4,1.5,0.1,3.4,0.3,5.1c-2-1.6-3-3.7-4.5-5.4c-0.5-0.6-2-0.5-3-0.8
		c-0.1,1-0.7,2.2-0.3,3c0.9,1.7,2.2,3.3,3.2,4.7c-3.9-1-7.8-2-11.7-2.9c3.5-8.4-4.7-2.5-6.7-5.5c1.4-0.2,2.3-0.4,3.3-0.6
		c1.6-0.2,3.6,0,4.6-0.9c1-0.8,0.9-2.9,1.3-4.4c-1.4,0.1-2.8,0.1-4.1,0.4c-0.3,0.1-0.4,1.1-0.6,1.6c-0.4-0.3-0.8-0.6-1.3-1
		c0.7-1.5,1.1-3.4,2.3-4.4c2.2-1.8,3.3-3.5,2.4-6.4c-0.2-0.7,0.4-2.1,1.1-2.7c2.6-2.3,5.3-4.3,8.1-6.5c0.8,2,1.2,3.2,1.7,4.4
		c0.3-0.1,0.6-0.1,0.9-0.2c0.4-2.3,0.7-4.6,1.1-6.9c0.3,0,0.6,0,0.9,0c0.6,2.8,1.2,5.6,1.8,8.5c0.5,0.1,1.1,0.3,1.6,0.4
		c1.3-2.1,2.6-4.1,4-6.4c0.7,1.7,1.3,3.5,2.1,5.2c0.3,0.6,1.1,1,1.7,1.5c0.5-0.7,1.5-1.4,1.5-2.1c0-2.1-0.4-4.1-0.7-6.4
		c4.1,0.9,5.7,6.9,11,4.2c-1.6-2.5-2.9-4.6-4.3-6.7c6.7,5.3,7.8,5.5,10.7,1.4c-1.2-0.9-2.4-1.7-4.1-3c2.2-0.4,3.8-0.3,5-1
		c0.4-0.2,0.7-0.6,1.1-1c0.1-0.2,0.3-0.3,0.4-0.5c0.4-0.5,0.7-1.1,1.1-1.6v0c-0.3-0.1-0.5-0.3-0.8-0.4c-0.1-0.1-0.3-0.2-0.4-0.2
		c-0.3-0.2-0.5-0.3-0.8-0.4c-0.4-0.2-0.8-0.3-1.2-0.4c-1.6-0.2-3.2,0.2-4.8,0.3c-0.3-0.4-0.5-0.7-0.8-1.1c2.4-1.6,4.7-3.2,7.1-4.8
		c-0.3-0.4-0.6-0.8-0.9-1.2c-1.2-0.3-2.4-0.6-3.7-0.9c1.3-3.1,2.5-5.9,3.8-8.8c-0.4-0.3-0.8-0.6-1.1-0.9c-1.8,1-3.7,2-5.5,3.1
		c-0.3-0.3-0.5-0.5-0.8-0.8c1.8-2.2,3.7-4.2,5.4-6.5c1.7-2.3,1.7-4.7-0.6-6.7c-2.2-1.9-4.1-1.1-5.8,0.7c-0.9,0.9-1.5,2.1-2.3,3.1
		c-0.3-0.2-0.5-0.4-0.8-0.6c0-2.5,0-5,0-7.5c-0.4-0.3-0.8-0.5-1.2-0.8c-0.4,0.8-0.7,1.6-1.1,2.3c-0.4,0.7-0.8,1.5-1.3,2.4
		c-1.8-3.6-1.8-3.6-8.3,0.3c-1.6-1.3-3-2.5-4.4-3.6c-1.4,2.1-2.7,4.3-3.4,5.3c-1.1-1.5-2.7-4.1-4.7-6.5c-1.8-2.3-4.5-4.1-5.7-6.7
		c-3.9-7.9-7.6-15.6-4.1-25.1c2.8-7.9,3.2-16.3,1.8-24.7c-0.4-0.3-0.8-0.6-1.3-0.8c-2.2,2.5-4.5,4.9-6.7,7.4c0,0-0.3-0.1-0.3-0.4
		c-0.4-1.1-0.6-2.3-1-3.4c-2.5-8.8-6.5-16.8-13.3-23.1c-1.7-1.6-4.8-3-6.9-2.6c-3.3,0.8-2.9,4.4-2.5,7.1c1.2,8.3,4.1,16,8.9,22.8
		c2.9,4.1,6.3,7.8,9,12c2.7,4.1,4.9,8.6,7.3,13c-0.5,0.3-0.9,0.5-1.4,0.8c-0.8-1.1-1.7-2.3-2.5-3.4c-4.5-6.2-9.9-11.4-17.1-14.1
		c-2.5-0.9-5.6-0.4-8.4-0.5c0.7,2.7,0.8,5.9,2.3,8.1c4.8,7.1,11.5,12.2,19.7,15c2.1,0.7,4.2,1.3,6.2,2.2c3.1,1.3,5.8,7.7,3.9,9.5
		c-3.7,3.4-7.7,6.5-11.6,9.7c4.5-10.8,4.5-10.8,0.6-14.1c-1.4,4-2.7,7.8-4,11.7c-0.1-4.1,0.8-7.9,1.5-11.8c0.1-0.6-0.2-1.3-0.5-2
		c-0.2-0.4-0.4-0.8-0.5-1.2c-0.5,0.3-1,0.5-1.5,0.7s-1,0.5-1.5,0.8c-0.4,0.2-0.8,0.6-1.4,1.1c-0.3-1.7-0.2-3.1-0.8-4.2
		c-0.4-0.8-1.6-1.3-2.5-1.9c-0.3,0.9-1.2,1.9-0.9,2.6c0.8,2,2,4,3.1,5.8c0.7,1.2,1.8,2.2,2.7,3.3c-4.4-1.9-7.3-4.7-8.2-9.3
		c-0.2-1.2-2.2-2.2-3.4-3.2c-0.3,1.4-0.9,2.7-1,4.1c-0.1,1.6,0.3,3.3,0.5,4.9c-0.5,0.1-1.1,0.2-1.6,0.3c-0.3-2-0.3-4.1-1-6
		c-0.5-1.5-1.8-2.8-2.7-4.2c-0.3,1.7-0.9,3.4-0.9,5.1c0,1.4,0.7,2.7,1.1,4.2c-3.1,0.2-6,0.8-6.7-3.4c-0.1-0.4-1.2-0.7-2.2-1
		c-0.3-0.1-0.7-0.2-0.9-0.3c0,0.1-0.1,0.3-0.1,0.4c-0.4,1-0.9,2-0.7,2.9c0.4,1.8,1.4,3.5,2.4,6.1c-2.5-1.2-3.9-2.3-5.4-2.5
		c-1.7-0.3-3.4,0.1-5.2,0.3c1,1.3,2,2.5,3,3.8c0.2,0.2,0.3,0.5,0.3,0.5c-2,0.6-4.1,1.2-6.8,2C892.1,252.1,895.8,254.8,899.9,257.7z"
		/>
	<path fill="#C49A6C" d="M364.2,263.2c-5.1,4.7-10.6,9-15.3,14c-6.5,7.1-4.3,14.6,4.9,17.2c4.9,1.4,10.1,2,15.2,2.1
		c13.6,0.3,27.1,0.1,40.7,0.1c1.1,0,2.3-0.2,2.8-0.2c1.2-3.1,2.3-5.7,3.6-9c-13.9,0.4-21.5-8.5-28.7-18c1.4,0.4,2.6,1,3.8,1.7
		c7.3,4.4,14.6,8.9,22.1,13c1.6,0.9,4,0.2,6.1,0.2c-0.5-1.8-0.7-3.8-1.6-5.5c-4.9-8.7-9.9-17.4-14.8-26c-0.4-0.7-0.5-1.7-0.7-2.5
		c0.3-0.2,0.7-0.4,1-0.6c6.8,9.9,13.8,19.8,20.3,29.9c0.9,1.3,0.2,5-1,6.1c-3.6,3.1-4.3,6.8-4.6,11.3c-0.6,7.8,2.9,14,10.4,16.3
		c1.8,0.5,3.9-0.1,5.9-0.2c5.8,1.5,8.7,0.9,12.1-3.3c7.3-9.1,6.8-17-1.8-27.2c-3.1-0.6-6-2.3-8.9-2.4c-3.1-0.1-6.2,1.2-9.6,2
		c0.1-0.4,0.1-0.8,0.2-1.1c0.1-0.7,0.2-1.3,0.3-1.9c0-0.3,0.1-0.6,0.1-0.8v0l0,0c-0.8-1.3-1.5-2.6-2.2-3.9c-2.2-3.9-4-8-4.9-12.4
		c0.6-0.2,1.1-0.4,1.7-0.6c1.9,5.5,3.9,11,5.8,16.6c1.1,0.4,1.7,0.4,2.1,0.3c0.1,0,0.2-0.1,0.3-0.1c0.1-0.1,0.2-0.3,0.2-0.4
		c0-0.2,0-0.4,0-0.6c-0.1-0.8-0.6-1.7-0.7-2.2c-1.2-7.2-2.7-14.4-3.9-21.6c-0.3-1.5,0.3-3.2,0.5-4.8c0.4,0,0.8,0,1.2,0
		c0.7,2.5,1.5,5,2.1,7.5c1.5,6,2.8,12,4.6,17.9c0.5,1.5,2.4,2.8,4,3.6c0.4,0.2,2.2-1.7,2.9-3c2.1-3.5,4.2-7.1,5.9-10.8
		c6.4-13.9,12.8-27.7,18.7-41.8c2.5-5.9,0.1-11-4.9-13.5c-10.5-5.4-24.3,0.5-27.4,11.9c-1,3.7-2,7.5-3,11.2
		c-2.4-4.4-3.7-8.9-5.4-13.3c-1.8-4.5-4.7-6.2-8.1-4.2c-5.8,3.4-11.8,4.3-18.3,3c-4.4-0.9-6.6,1.3-7.3,5.5c-0.5,2.9-1.2,5.8-1.8,8.9
		c-9.5-4.2-17-2.8-22.8,4.8c-2.4,3.2-4.7,7.5-4.5,11.1c0.2,4.1,3.2,8,5.3,12.8C366.6,260.7,365.4,262.1,364.2,263.2z M411.1,294.6
		c-4.3-0.4-8.6-0.8-12.9-1.2c0.1-0.7,0.1-1.5,0.2-2.2c4.3,0.4,8.6,0.8,12.9,1.3C411.2,293.1,411.2,293.9,411.1,294.6z M394.9,283.1
		c4.8,2.1,9.5,4.3,14.3,6.4c-0.2,0.4-0.3,0.8-0.5,1.2c-4.8-2-9.7-3.9-14.5-5.9C394.4,284.3,394.7,283.7,394.9,283.1z M441,254.7
		c0.7,0.1,1.3,0.3,2,0.4c-1.2,6.1-2.4,12.2-3.6,18.4c-0.8-0.2-1.5-0.3-2.3-0.5C438.4,266.9,439.7,260.8,441,254.7z M401.2,269
		c5.1,4.2,10.2,8.5,15.7,13.1c-5.3-0.3-12.2-5.6-16.4-12.2C400.7,269.7,401,269.3,401.2,269z"/>
	<path fill="#C49A6C" d="M363.4,361.1c4.6,12.5,22.9,18,32.1,6.6c12.3-15.2,20.6-32.8,29.2-50.2c0.1-0.1,0-0.3,0-0.4
		c-3.5-2.4-4.6-2.7-7.3,0c-4.7,4.6-9,9.6-13.3,14.6c-1.4,1.6-2.6,3.6-3.8,5.4c-0.3-0.2-0.7-0.5-1-0.7c3.4-8.8,7-17.6,14.9-23.7
		c1.6-1.2,4.1-2.3,2.2-5.1c0,0-0.1,0-0.1,0c-2.6,4.2-13.6,9.3-19.5,8.5c5.9-5.2,12.9-6.4,19.5-8.5c0,0,0.1-0.1,0.1-0.1
		c0,0,0.1,0.1,0.1,0.1c0,0,0,0,0,0l0,0c-0.2-0.7-0.4-1.4-0.6-2.1c-0.1-0.5-0.3-0.9-0.4-1.4c-0.1-0.4-0.2-0.8-0.2-1.2
		c-0.4-2.7-1.9-2.9-4.4-2.8c-6.5,0.3-12.9,0.2-19.4,0.1c-9.3-0.1-18.6-1-27.8-0.4c-13.4,1-16.7,6.9-11.5,19.1c2.6,6,3,11.9,0.4,18
		c-1.9,4.4-1.1,5.7,3.8,5.9c4.4,0.1,8.7,0,13.5,0c-1,1.3-1.9,2.4-2.9,3.4C363.2,350.5,361.2,355.3,363.4,361.1z M419.3,318.4
		c0.7,0.5,1.4,1.1,2,1.6c-4.4,5.9-8.8,11.8-13.3,17.7c-0.7-0.5-1.3-1-2-1.5C410.5,330.3,414.9,324.3,419.3,318.4z M413.4,302.2
		c0.1,0.5,0.3,1,0.4,1.5c-5.2,3.5-11,4.7-17.2,4.7c-0.1-0.6-0.3-1.3-0.4-1.9C402,305.1,407.7,303.7,413.4,302.2z"/>
	<path fill="#C49A6C" d="M507.2,288.4c-14.2,2.1-28.5,4.1-42.8,6.1c-3.2,0.5-6.5,1.1-9.7,1.6c0.1,0.3,0.1,0.6,0.2,0.9
		c6.6,1,13.3,2.1,19.9,3.1c-0.1,0.6-0.2,1.1-0.2,1.7c-6.6-0.5-13.2-0.9-19.8-1.4c-0.1,0.4-0.1,0.8-0.2,1.1c0.7,0.4,1.5,0.9,2.2,1.3
		c12,5.9,24,11.9,36,17.7c4.4,2.1,8.8,4.3,13.4,5.6c8.7,2.6,20.1-2.4,24.3-10.3c0.6-1.2,1-3,0.5-4.2c-2.3-5.8-4.5-11.8-7.7-17.1
		C520,288.6,513.9,287.4,507.2,288.4z"/>
	<path fill="#C49A6C" d="M454.5,285.1c-0.7,0.6-1.1,1.5-2,2.7c7.8-1.4,14.9-2.6,22-3.8c0.1,0.6,0.2,1.2,0.4,1.8
		c-7.4,1.7-14.7,3.4-22.1,5.1c0,0.5,0.1,0.9,0.1,1.4c2,0,3.9,0.2,5.9,0c11.7-1.4,23.3-2.8,35-4.3c8.6-1.2,17.2-2.7,23.6-9.6
		c5-5.4,7-14.4,4.2-19.5c-6.8-12.4-22.8-14.7-33-5C477.3,264.3,465.8,274.6,454.5,285.1z"/>
	<path fill="#C49A6C" d="M444.3,276.1c-0.4,0.8-0.7,1.8-0.9,2.1c2.2,1.7,3.9,3,6.6,5.1c12.5-10.3,25.5-20.7,38.1-31.5
		c3.8-3.3,6.8-7.7,9.3-12.2c3.6-6.4,2.1-10.5-4.3-13.7c-3.2-1.6-6.8-2.7-10.3-3.7c-6.2-1.7-11.1,0.6-14.4,5.9
		c-2.3,3.6-4.1,7.5-6,11.3C456.3,251.6,450.3,263.8,444.3,276.1z M449.2,276.6c-0.5-0.3-0.9-0.6-1.4-0.9c4.2-6.8,6.8-14.7,13.3-20
		c0.5,0.3,1,0.7,1.5,1C458.1,263.3,453.6,270,449.2,276.6z"/>
</g>
</svg>
