<?xml version="1.0" encoding="utf-8"?>
<!-- Generator: Adobe Illustrator 27.3.1, SVG Export Plug-In . SVG Version: 6.00 Build 0)  -->
<svg version="1.1" id="Layer_1" xmlns="http://www.w3.org/2000/svg" xmlns:xlink="http://www.w3.org/1999/xlink" x="0px" y="0px"
	 viewBox="0 0 1200 800" enable-background="new 0 0 1200 800" xml:space="preserve">
<path fill="#C49A6C" d="M1146,562.8c-6.7-9.1-17.9-6.2-26.6-10.7c1.3-1,2.1-1.9,3-2.2c1.6-0.5,3.3-0.6,4.9-0.9c2-0.3,4-0.7,6-1
	c0-0.5,0-1-0.1-1.5c-7-3.7-14.7-1.6-22.9-1.1c3.2-2.6,5.6-4.7,8.1-6.7c-0.4-0.7-0.8-1.5-1.2-2.2c-7.5,1.8-15.1,3.6-22.6,5.3
	c-0.2-0.3-0.3-0.7-0.5-1c3-2.3,6-4.5,8.9-6.8c-0.2-0.6-0.5-1.3-0.7-1.9c-2.5,0.5-5.3,0.4-7.5,1.5c-6.6,3.1-13,6.6-19.6,9.9
	c-1.6,0.8-3.4,1-5.1,1.5c-0.3-0.6-0.7-1.1-1-1.7c2.1-1.3,4.1-2.7,5.9-3.8c-2.4-4.5-5.4-4.9-8.4-2.9c-6.1,4-12,8.2-18,12.5
	c-2.3,1.7-4.5,3.6-6.7,5.4c-0.4-0.3-0.8-0.6-1.2-0.9c0.6-1.9,0.9-4,1.7-5.8c3.8-8.9,10.9-15,18.4-20.7c10.7-8.1,21.3-16.2,30.2-26.3
	c6.9-7.9,14.1-15.6,17.8-25.7c1.3-3.5,1.8-7.3,2.7-11c-0.5-0.2-1.1-0.4-1.6-0.5c-4.1,6.6-5.7,14.9-12.1,19.9
	c-0.4-0.2-0.9-0.4-1.3-0.6c2.7-12.1,5.4-24.2,8.1-36.3c-0.6-0.2-1.2-0.3-1.7-0.5c-2.3,4.6-4.6,9.3-6.9,13.9
	c-0.4-0.1-0.8-0.3-1.1-0.4c1.6-6.2,3.2-12.3,4.8-18.5c-0.6-0.2-1.1-0.4-1.7-0.6c-1.8,3.3-3.7,6.6-5.7,10.2
	c-1.7-6.9-3.1-13.1-4.6-19.3c-0.6,0-1.2,0-1.9,0c-1,2.2-1.9,4.4-3,6.5c-0.5,0.9-1.5,1.5-2.3,2.2c-0.8-1-2.1-1.8-2.2-2.9
	c-0.3-2.9-0.1-5.9-0.1-8.5c-1.6,0.6-3.5,1.3-5.5,2c-0.7-2.5-2-5-2.1-7.5c-0.1-2.2,1.1-4.4,1.9-6.6c0.4-1.3,1-2.5,1.9-4.4
	c-9,1.5-15.8,4.8-19.7,14.3c-1.9-4-3.2-6.6-4.8-9.9c-12.2,10.2-19.3,22.4-18.5,38.9c-0.6,0-1.1,0-1.7,0c-1.6-2.5-3.1-5.1-5.4-8.8
	c-0.5,4.1-1.2,6.7-1,9.3c0.6,5.9,2,11.8,2.3,17.7c0.1,2.3-1.3,4.8-2.8,6.8c-0.3,0.5-3.5-1-5.2-1.8c-1.1-0.5-1.9-1.5-3.5-2.9
	c-0.5,17.4,11.5,31.8,8.7,48.8c-12.1-24.4-23.8-48.9-48.1-63.6c-0.5,0.3-0.9,0.6-1.4,0.9c2.8,6.5,5.5,13,8.9,20.8
	c-7.8-3-14-5.3-20.1-7.7c-0.3,0.4-0.5,0.8-0.8,1.2c0.9,1.7,1.6,3.6,2.8,5.1c2.6,3.4,3.3,6.4-0.4,9.6c-2.5,2.1-0.8,3.8,0.8,5.4
	c3.6,3.5,7.2,6.9,10.7,10.4c0.9,0.9,1.7,1.7,2.2,2.4c2.5,3.1,1.5,4.3-2.9,7.7c0,0.3,0,0.7,0.1,1c3.3,5.4,10.4,8.4,10.5,16
	c5.4,2,4.9,7.7,7.5,11.3c3.2,4.5,8.2,7.6,12.5,11.3c2.2,1.9,4.5,3.7,7.3,5.9c-2.4,1.8-4,3.2-5.7,4.4c-25.9,17.4-54.3,28.9-84.8,34.5
	c-20.1,3.7-40.5,5.6-60.8,8c-7.2,0.9-14.4,1.1-23.1,1.8c2.1-3.6,3.1-6.2,4.8-8.2c8.3-9.3,16.6-18.5,25.3-27.5
	c3.1-3.1,6.9-5.9,10.8-7.8c7.2-3.5,14.7-6.2,22.1-9.2c3.6-1.5,6-3.4,2.2-7.6c3.1-1.4,5.6-2.6,8.2-3.6c6.7-2.8,12.7-6.5,16.7-12.8
	c2.4-3.8,2.1-5.2-2.2-6.4c-2.5-0.7-5.1-0.8-6.9-1.1c11.9-6.8,18.8-18.7,27.8-28.7c-0.2-0.6-0.5-1.1-0.7-1.7
	c-5.8,0.9-11.6,1.8-17.4,2.7c2.6-2.7,5.6-4.4,8.7-5.8c9-4.1,12.7-12.3,14.4-21c0.6-3,1.4-5.3,2.9-7.6c4.4-6.5,6.2-13.7,6.2-22
	c-2.1,0.5-3.5,0.8-5.3,1.2c4.5-13.1,0.4-24.3-6.9-35.3c-6.2,4.1-9.9,9.4-11.4,16.5c-0.6,2.7-1.1,6.1-2.9,7.7
	c-7.6,6.6-8.3,14.7-6.5,23.7c0.4,1.8-0.1,3.9-0.2,5.8c-0.6,0.1-1.1,0.2-1.7,0.2c-1.6-3.6-3.1-7.3-4.8-11.1
	c-11.9,13.2-12.6,29.6-14.1,45.8c-0.5-0.1-0.9-0.1-1.4-0.2c-2.6-7.5-5.3-15-8.4-23.7c-5.1,13.5-8.4,25.8-9.1,38.7
	c-0.2,3.9-1.8,7.7-2.7,11.5c-0.6,0-1.1,0-1.7,0.1c-7.4-16.7-23.3-23.9-38.1-34.5c1.4-0.7,2.2-1,2.9-1.5c8.7-5.7,16.8-11.6,23.2-20.2
	c4.8-6.5,12.5-10.8,18.5-16.5c4-3.8,10.3-5.8,11.5-13.4c-7.6,0.5-14.7,0.9-21.8,1.3c0.8-1.5,1.7-2.1,2.7-2.5
	c4.9-1.6,9.8-3.2,14.7-4.8c8.9-3,16.6-7.7,22.4-15.2c1.2-1.5,1.2-3.8,1.8-5.7c-1.9-0.3-3.8-1.1-5.6-0.9c-4.2,0.4-8.3,1.2-12.4,1.9
	c-0.1-0.5-0.2-0.9-0.4-1.4c4-1.5,7.9-3.2,12-4.6c7.5-2.7,15.1-5.3,20.7-11.5c1-1.1,4.1-1.4,5.7-0.7c8,3.3,14.2,0.6,19.9-4.9
	c1.5-1.5,2.9-3.1,4.8-5.1c1.4,3.4,2.6,6.2,3.9,9.1c8.1,17.9,18.6,25.1,36.2,24.2c19.4-1,40.2-17.3,33.7-43c-1.7-6.7-4-13.2-6.4-21
	c2.6,2.1,4.1,3.6,5.9,4.8c5.4,3.6,10.5,7.9,16.3,10.3c12.7,5.3,25.8-0.7,30.3-13.6c3.4-9.9,6.3-20,8.5-30.2
	c3.4-15.9-5.6-29.3-21.4-32c-5.5-0.9-11.3-0.3-16.9,0.1c-5.5,0.4-11,1.4-16.6,2.1c-0.2-0.5-0.4-1-0.6-1.6c2.1-1,4.1-2.1,6.2-2.8
	c9-3.1,18.2-5.6,26.9-9.1c5.8-2.3,11.4-5.5,16.3-9.4c6.6-5.1,7.9-12.5,4.8-20.3c-3.1-7.9-8.6-13.8-15.9-17.9c-7-4-13-9-16-16.5
	c-5.5-13.9-17.6-16.1-29-14.4c-7.5,1.1-15.2,1.8-22.8,2.1c-6.5,0.2-13-0.9-19.4-0.6c-11.9,0.4-21.2,7.5-25,18.9
	c-3.7,10.9-3.1,22-0.5,33c1.1,4.6,2.8,9,4.2,13.5c-0.5,0.4-0.9,0.8-1.4,1.2c-2.7-3.2-5-6.7-8.2-9.4c-5.4-4.7-10.9-9.4-17-13
	c-11.7-6.8-22-4-28.2,7.9c-11.4,21.9-21,44.5-25.7,68.8c-1.5,7.6-1.4,15.7,4.3,21.8c6.6,7,13.8,13.4,20.7,20c1.1,1,2.4,2.2,3.7,2.4
	c9.2,1.4,10.5,8.9,13,16.6c-5.5,1.3-10.6,2.5-15.2,3.6c-0.5-6.1-1-11.2-1.5-17.2c-13.1,8.3-17.2,22.4-27.9,31.6
	c-2.4-8.2-4.5-15.5-6.9-23.5c-7.9,9.1-12.3,16.9-8.6,29.4c0.3,1.1-0.1,2.6-0.4,3.8c-1.5,5.1-4.1,10.1-4.4,15.2
	c-0.6,10.7-6.2,17.5-14.9,22.6c-3,1.8-6,3.5-9.3,4.8c-23.9,9.6-49.2,13.8-74.1,19.6c-0.9,0.2-2-0.3-3.7-0.5c1.4-1.3,2.1-2.3,3.1-2.8
	c12.9-7,25.6-14.3,38.7-20.7c13.9-6.8,28.2-12.6,42.3-19c1.8-0.8,3.2-2.4,4.8-3.6c-0.3-0.6-0.7-1.2-1-1.9c-2.5,0.7-5,1.2-7.4,2.1
	c-15.8,6.6-31.6,13.3-47.4,19.9c-2.2,0.9-4.4,1.7-6.6,2.5c6.3-9.7,12.9-18.6,19.9-27.3c5.9-7.4,13.3-12.5,23.2-13.1
	c4.1-0.3,8.3-0.3,12.4-0.9c6.5-0.9,8-3.1,7.9-9.5c0-1.2,0.6-2.5,1-3.8c3.1-9.1,6.6-18.1,9.2-27.4c3.2-11.8,0.8-23.5-2.6-35.1
	c-5.2,14.7-11.3,28.8-21.3,42.3c-3-19.6-14.9-23.5-31.6-18.9c1.9-10.5,6.2-18,15.7-21.2c5.2-1.7,10.6-3.1,16-3.7
	c8.4-0.9,15.2-4.4,19.4-11.6c3.4-5.8,6-12.2,8-18.6c1.9-6.2,0-7.7-6.3-5.9c-12.7,3.7-21.2,12-25.7,24.5c-0.6,1.7-1.3,4.2-2.5,4.5
	c-5.3,1.7-10.7,2.7-16.8,4.2c0.7-2.8,1-4.4,1.5-6c6.4-19.9,12.7-39.9,19.4-59.8c4.4-13,0.9-12,17.2-12.2
	c18.8-0.2,35.7-5.8,50.6-17.2c4.6-3.5,8.1-7.8,9.1-14.4c-25.5-5.5-48,1-69.2,15.3c1.6-8.9,3.7-17.4,5.9-25.9
	c4-15.3,13.9-24.8,28.7-29.9c9.7-3.4,19-7.9,28.5-12.1c2.9-1.2,5.6-2.8,8-4.1c2.3,3.4,4,6.5,6.3,9.2c10.6,12.1,29.1,12.2,40.2,5.2
	c5.5-3.4,6.3-7.2,3-12.6c-0.8-1.4-2.3-3.2-2-4.3c2.2-7.2,0.1-12.4-6.8-15.1c3.1-11,1-16.7-7.3-18.9c-3.8-1-5.3-2.7-6.1-6.4
	c-1-4.7-4.6-7-9.2-8c-4.1-0.9-6.7,1.5-8.8,4.4c-4,5.5-7.9,11.1-11.7,16.8c-4,5.9-5.1,12.1-1.7,18.8c0.5,1.1-0.2,3.9-1.1,4.3
	c-13.4,6.6-26.7,13.4-40.6,19c-7.9,3.2-11.2,0-9.5-8.3c5-24.3,14.9-46.5,29.1-66.8c1.1-1.6,4.5-2.9,6.3-2.3
	c7.2,2.3,13.6,1.2,20.1-2.4c7.7-4.2,16.4-7,22.1-14.2c1.7-2.2,3.7-5.6,3.1-7.7c-0.6-2-4.3-3.7-6.9-4.2c-4-0.8-5.5-2.3-5.3-6.5
	c0.2-4.5-2-5.8-6.4-4.8c-0.9,0.2-1.9,0.4-2.8,0.5c-4.1-13.1-7-14.1-20.1-7.7c-3.4-3.8-6.1-8.2-10-10.8c-5-3.3-9.6,0.5-14,3.7
	c-3-5.3-6.8-9.7-12.8-7.9c-4.8,1.5-8.8,5.2-13.4,8.1c-2.3-4.3-5.6-8.3-11.8-8.3c-6.5,0-8.9,5.2-11.9,9.8c-1.4-1.2-2.5-2.2-3.7-3.1
	c-5.6-4.1-11.2-4.9-14.6-1.6c-4.3,4.3-2.5,9.3,0.1,13.3c5.1,7.9,10.7,15.6,16.8,22.8c2.5,2.9,6.8,5.5,10.5,6
	c5.8,0.8,6.6,3.9,7.4,8.6c2.7,16,5.5,32.1,8.8,48c1.5,7.3,2.7,14.3,1,21.6c-2.2,9-3.9,18.2-5.9,27.3c-1,4.4-2.1,8.8-3.2,13.2
	c-0.5,0.1-1,0.2-1.4,0.3c-6.4-20.3-16.3-37.9-35.7-49.1c-0.9,5.2-1.9,10.4-1,15.2c3.7,18.9,14.5,33.4,29.4,44.9
	c3.6,2.8,4.6,5.7,3.5,9.9c-4.8,17.4-9.5,34.9-14.2,52.4c-0.4,1.3-1,2.6-1.6,3.9c-0.5,0.1-1,0.1-1.5,0.2c-1.2-36.5-17.3-65.9-41-92.1
	c-0.9,0.8-1.2,1-1.3,1.3c-0.3,0.6-0.5,1.2-0.7,1.8c-3.8,13.5-3.7,27,0.4,40.3c6.6,21,19.7,37.6,36.4,51.5c3.4,2.9,4.6,5.7,3.2,9.9
	c-3.2,9.8-6,19.7-9.1,29.5c-0.3,0.8-0.9,1.5-1.8,3c-3.6-6.2-6.8-11.8-10.2-17.3c-2-3.2-2.2-6.2-1-9.9c3.9-12.1-0.6-26.3-10-32.7
	c-7.3-5-9.5-4.1-11,4.4c-0.1,0.8-0.5,1.6-0.5,2.4c-1.4,12.8,1.5,24.1,11.8,32.8c2.5,2.1,5,4.6,6.3,7.4c3.7,8.5,6.8,17.3,10.1,26
	c0.2,0.6,0.3,1.4,0.2,2c-1.7,5.7-3.2,11.5-5.4,17c-0.8,2-3.1,3.4-4.7,5c-0.5-0.1-0.9-0.1-1.4-0.2c-0.3-11.2-1-22.2-14-25.8
	c-11.5-3.1-21.1,1.5-30.3,9.4c-0.5-2.4-0.8-4.1-1.2-5.8c-1.6-8.6-4.1-16.8-10.8-23c-5.6-5.1-13-5.7-18.4-0.4
	c-4.1,4.2-7.2,9.4-10.4,14.4c-1.6,2.4-2.3,5.4-3.7,9c-6.8-11.6-17.2-17.3-28.4-22c-4.9-2.1-9.3-1.1-11.8,3.2c-3.4,6-6.4,12.4-8.1,19
	c-1.5,5.8-1,12.1-1.4,18.8c-2.4-0.9-4.5-1.7-6.6-2.6c-10-4.4-12-3.2-13.4,7.6c-0.4,3.1-0.7,6.8-4.9,8.7c0.7-23.5,1.3-46.3,2-69.1
	c0-0.9,0.4-2.3,1-2.6c6-3.6,10.3-11,19.5-7.6c6.1,2.2,10.6-1.8,10.2-8.4c-0.3-6.1-1.6-12.2-2.1-18.3c-0.1-1.9,1.2-3.9,1.9-5.8
	c1.7,1.3,4,2.2,5,3.8c2.9,4.9,4.9,10.2,7.8,15c4,6.6,11.2,7.9,17.7,3.8c3.3-2.1,6.9-4,10.5-5.6c15.6-6.9,26.1-17.8,28.6-35.4
	c0.7-5.2-0.5-9.2-4.3-12.6c-1.9-1.7-4-3.3-6.8-5.6c2-0.8,3.3-1.4,4.6-1.9c3.8-1.3,7.9-2,11.3-3.8c8.4-4.5,16.1-9.2,17.7-20.4
	c1.1-7.9,4.6-15.6,7-23.3c0.9-2.9,2.1-5.6,2.7-8.6c2.2-10.6-2.9-16.9-13.7-17c-5.5,0-11,0.6-16.5,0.4c-2.5-0.1-4.9-1.2-7.3-1.9
	c0-0.6,0.1-1.2,0.1-1.8c1.7-0.9,3.5-1.6,5.2-2.6c7-4,14.3-7.7,21-12.3c5-3.4,4.7-7.8,0.1-11.5c-2.9-2.3-6-4.2-8.9-6.4
	c-4.6-3.4-9.2-6.9-14.5-10.9c3.9-3.6,7.3-6.4,10.1-9.6c5-5.7,4.7-9.3-0.8-14.5c-1-0.9-2-1.8-3-2.7c-7.5-7.5-15-15.1-22.4-22.6
	c-1.8-1.8-3.3-3.7-5.2-5.4c-3.5-3-7.3-3.3-10.7,0c-3.9,3.8-7.6,7.9-11.5,11.8c-1.3,1.3-2.9,2.5-5.2,4.4c-0.5-3.7-1.2-6.2-1.3-8.8
	c-0.2-5.5-0.3-11-0.3-16.5c0-3.4-1.4-5.6-4.6-6.1c-15-2.3-28.7-8.1-42.5-14c-8.6-3.7-12-2.2-14.8,7c-2.7,8.7-4.6,17.7-6.9,26.5
	c-0.6,2.4-1.5,4.7-2.3,7c-0.5-0.1-1-0.1-1.5-0.2c-0.5-1.5-1-3-1.4-4.5c-1.7-8-3-16-5.1-23.9c-1.7-6.8-4.7-7.8-10.5-3.8
	c-4.4,3-8.2,6.8-12.5,9.9c-1.3,0.9-3.5,1.2-5.2,0.9c-3.6-0.6-7.1-2.6-10.6-2.5c-9.8,0.3-16.2,6.7-22.2,13.7
	c-4.6,5.4-5.4,11.3-2.6,17.7c2,4.6,4.6,8.8,6.8,13.3c0.7,1.5,0.8,3.2,1.2,4.8c-1.7-0.4-3.4-0.5-4.9-1.3c-3.6-1.8-6.8-4.2-10.5-5.6
	c-2.2-0.8-5.8-1.1-7.4,0.1c-9.4,7.2-18.7,14.5-27.3,22.5c-5.6,5.2-5.2,7.7-0.7,14.3c1,1.4,2.6,3.9,2.1,4.6c-2.8,4.1,0.2,5.9,2.5,8.2
	c1.2,1.2,1.9,2.8,3.3,4.8c-3.5,0.3-6.1,0.5-9.7,0.7c8.7,12,23,7.4,33.1,13.8c-1.7,1-3.5,1.7-5.2,1.4c-6.1-0.9-12.2-1.9-18.1-3.3
	c-4.1-1-6.4-0.5-6.6,4.3c-0.1,2.8-1,5.6-1.4,8.4c-1.1,7.7-2.7,15.5-3,23.2c-0.5,14.2,6.7,20.9,20.9,20.4c2.8-0.1,5.6-0.7,8.4-0.7
	c0.8,0,1.7,0.3,2.5,0.5c0.5,0.2,1,0.4,1.5,0.5c-0.1,0.2-0.1,0.3-0.2,0.5c-0.3,1.2-0.5,2.6-1.3,3.4c-2.9,3.2-6.1,6.1-9,9.4
	c-4.8,5.4-4.6,6.9,1.2,11.1c15.3,11.1,30,22.7,41.6,37.8c3.6,4.7,7.3,4.5,11.3-0.1c2.9-3.2,5.2-7,8-10.2c1.5-1.7,3.5-2.9,5.3-4.4
	c0.4,0.3,0.8,0.6,1.2,0.8c-0.1,1.8-0.1,3.5-0.4,5.3c-0.7,4.1-1.6,8.2-2.2,12.3c-0.7,4.7,0.2,8.1,5.4,10.3c10.1,4.2,21,6.8,28.9,15.7
	c3.4,3.9,6,6.8,5.8,12.2c-1.6,33.8-2.9,67.6-4.3,101.4c0,1.1-0.6,2.3-0.9,3.4c-0.5,0-1,0-1.5,0.1c-0.6-2.3-1-4.5-1.7-6.7
	c-1.7-5.7-3-11.6-5.5-17c-2.9-6.1-6.1-6.3-11.2-1.9c-1.8,1.5-3.6,3-6,5.1c-0.4-9.7-0.4-18.2-1.4-26.6c-0.6-5.3-2.1-10.8-4.6-15.5
	c-3.1-5.9-5.7-5.6-10.1-0.5c-1.4,1.7-3.2,3-5.9,5.4c-0.2-4,0-6.2-0.4-8.3c-1.4-7.1-2.3-14.5-4.9-21.1c-2.5-6.4-5.5-6.3-10.6-1.5
	c-2,1.8-4.1,3.5-7,5.9c-0.2-3.1-0.2-4.7-0.4-6.3c-0.7-7.9-3.6-14.8-9.3-20.4c-2.5-2.5-4.7-3.4-7.1,0.3c-1.1,1.8-3.1,3-5.2,5.1
	c-0.7-2.3-1.1-3.5-1.3-4.8c-1.5-6.9-4.5-12.9-10.1-17.3c-5-3.9-6.2-3.4-8.4,2.5c-0.8,2.1-1.9,4-2.9,6c-0.5-0.1-1-0.3-1.5-0.4
	c-0.6-1.8-1-3.8-2-5.4c-3.1-5-6-10.2-9.9-14.6c-3.2-3.5-5.6-2.5-7.3,2c-0.9,2.3-1.7,4.7-3,8.1c-7.2-8.6-14.3-15.4-26.2-15
	c1.5,5.5,2.9,10.4,4.3,15.4c-4.4,0-8.3,0-12.2,0c0-2.2,0-4,0-7.3c-8.1,4.9-15.4,9.3-21.4,12.9c2.7-3.1,6.5-7.3,10-11.8
	c5-6.5,10.6-13.1,10.6-21.6c0-7.2,2.3-11.5,7.9-16.4c9.8-8.6,14.9-20.8,17-33.7c1.6-9.6-3.6-17.3-12.9-20.4
	c-2.6-0.9-5.4-1.5-8.9-2.5c6.9-7,7.4-15,3.7-22.6c-6.3-12.8-13-25.4-20.8-37.3c-5.4-8.2-13.3-14-24.2-7.7c-2.3-14.9-5-19-17-22.6
	c-7.9-2.4-16.1-4.2-24.3-5.1c-13.6-1.6-23.9,5.7-28.3,18.6c-0.5,1.6-1.2,3.2-2.2,6c-0.9-3-1.5-4.5-1.9-6.1
	c-4.4-15-15-21.1-29.4-15.2c-23.1,9.4-37.5,26.9-43.3,51.2c-2.4,10.1,1.2,17.9,9,24.2c2.2,1.7,4.4,3.4,7,5.4
	c-4.7,1.8-8.8,3.2-12.8,4.8c-9.2,3.8-13.3,10.8-13.3,20.8c0,9.5,2.4,18.5,6.4,27c4.1,8.8,8.8,17.5,18.3,21.6
	c4.4,1.9,5.7,4.3,4.1,8.9c-0.6,1.7-0.2,4,0.2,5.8c2.9,12.1,13.1,19.4,25.2,17.6c6.3-0.9,11.2,0.5,14.5,6.1c3.3,5.6,6.3,11.3,9.4,17
	c7.2,13.4,15.4,17.6,30.3,15.5c2.3-0.3,4.6-1.1,6.9-1c1.6,0,4.2,0.6,4.7,1.6c3.8,7.8,7.2,15.9,10.9,24.3c-7.7,1.7-12.4-2.4-18.2-5.9
	c3.9,15.3,7.5,29.4,14.1,42.6c0.6,1.3-0.1,3.2-0.1,4.8c-1.5-0.1-3.2,0.2-4.4-0.5c-7.5-4.5-12.6-11.2-16.4-19c-2.5-5.2-5-10.5-8-15.5
	c-6.1-9.9-14.9-17-25.4-23.3c-1.9,26.4,5.9,47.5,27,63.1c1.6,1.2,3.3,4,3.1,5.9c-0.8,8.4-2.4,16.8-3.5,25.2c-0.7,5.4-4,7.9-9.4,9.3
	c-1.4-8.6-1.5-17.7-10.6-23.8c-6.4,9.1-13.6,17.3-18.6,26.8c-11.5,22-14.1,45.5-8.6,69.8c0.5,2.1,0.4,4.4,0.6,6.5
	c-0.7,0.2-1.3,0.4-2,0.6c-20-21.8-37.7-45.3-54.3-69c4.5-3.8,9.2-6.9,12.6-11c7.1-8.6,5.3-15.8-4.8-20.8c-2.8-1.4-4.6-2.9-5.6-6.3
	c-2.5-9.5-14.5-13-21.4-6.2c-4,3.9-6.3,2.8-9.1-0.7c-9.2-11.4-18.5-22.7-27.7-34.1c-1.1-1.3-1.7-3-3-5.4c17-2.9,32-0.6,45.4,9.1
	c6.5,4.7,12.3,9.6,11.7,19.3c-0.3,4.9,4.5,7.8,9.4,9c4.6,1.1,7.2-1.3,9-5.2c0.2-0.5,0.8-0.9,1.2-1.3c4.1,1.7,7.8,3.8,11.8,4.7
	c4.1,0.9,8.6,0.3,12.8,1c3.6,0.6,6.9,2.3,10.4,3.5c-0.6,1.3-0.6,1.7-0.9,1.9c-10.6,11-19.5,10.4-28.2-1.8c-1.2-1.6-2.6-3-3.9-4.5
	c-0.4,0.2-0.8,0.4-1.3,0.6c0.1,1.7-0.4,4,0.5,5c4.6,5.3,9.4,10.6,14.7,15.2c1.2,1.1,5.1,0.6,6.9-0.5c7.9-5.1,15.8-10.5,23.2-16.4
	c5.5-4.3,6.1-11.5,2.3-16.5c-7.4-9.5-14.6-11.5-26-8.6c-7.4,1.9-15.2,2.7-22.6,3.9c-0.9-3-1.5-4.9-2.1-7c-1.3,0-2.5-0.2-3.6,0
	c-8.9,2.1-15.8-1.4-22.3-7.1c-6.8-6-15.2-8.7-24.1-10.1c-3.1-0.5-6.1-1.2-9.1-1.8c9.5-1,18.8-1.2,28.1-0.9c2.3,0.1,5,0.8,6.8,2.2
	c17.3,14,36.3,14.9,56.5,7.7c11.7-4.2,20.1-19.3,16.3-31.2c-1.3-4-4.7-8.1-8.3-10.5c-3.5-2.3-8.4-2.8-12.8-3.2
	c-6.5-0.6-13,0.2-19.5-0.6c-17.5-2.2-32.4,7.1-37.1,24.1c-0.9,3.4-2.6,5.5-6,5.5c-9.4,0.1-18.8,0-28.8,0c1.4-1.1,2.2-2,3.3-2.7
	c13.8-8.1,26.1-17.9,34.9-31.5c1.7-2.6,3.4-2.2,5.8-1.3c11.8,4.1,22.5-2.2,24.6-14.5c1.7-10.2-0.5-19.5-6.3-28
	c-5.6-8.2-12-8.7-18.1-1.1c-4.7,5.8-8.9,12-13.1,18.2c-3.3,4.8-4,10.5-0.6,15c4,5.3,2.4,9-1.3,13c-1.3,1.5-2.5,3.1-3.8,4.6
	c-7.2,8.1-15.4,14.9-25.8,20c0.3-1.2,0.3-1.7,0.6-2c9.7-11.3,10.8-24.1,7.1-38.1c-0.7-2.6,0.4-6.2,1.9-8.6
	c11.1-17.1,7.4-33.8-10-44.4c-4.5-2.7-8.7-2.6-13.1,0.1c-10.3,6.4-16.6,20.3-14.7,32.4c1.6,9.9,12.4,17.1,22.1,15.3
	c1.7-0.3,4.6,1,5.5,2.5c10.4,17.2,1.5,35.5-13.1,45.3c-0.9,0.6-2.6-0.1-3.9-0.1c0.3-1.2,0.3-2.6,1-3.5c2.4-3.2,5.4-5.9,7.6-9.2
	c8.3-12.5,4.8-22.8-9.5-27.5c-2.7-0.9-6-0.2-9,0.1c-0.4,0-1.1,3.2-0.7,3.4c2.7,1.6,5.5,3.7,8.5,4.1c7.6,0.9,9.8,3.6,7.7,11.1
	c-2.8,10.2-11.4,15.4-18.7,22c-5.2-5.9-9.9-11.5-14.8-17c-3.9-4.4-7.3-8.7-3.9-15c0.3-0.5,0.2-1.3,0.2-2
	c0.8-14.5-11.6-26.1-27.8-26.2c-9.9,0-15.4,3.3-17.2,11.1c-2.6,10.9,2,19.5,9.5,26.8c7.3,7.1,15.4,6.6,23.9,1.9
	c1.3-0.7,4.1-1.1,4.8-0.3c6.2,7.1,12.1,14.4,18.4,22.2c-3.3,3.4-5.7,7.5-9.1,9.1c-8.8,3.9-17.9,7.2-27.9,6.5
	c-1.6-0.1-3.2-0.5-4.8-0.7c0-0.4,0.1-0.9,0.1-1.3c3.4-0.2,6.8-0.4,10.5-0.7c-1-5-4.5-5.1-7.7-5.4c-4.6-0.4-7.9-2-10.4-6.3
	c-2.3-4-5.6-7.5-9-10.6c-6-5.6-13.3-6.5-20.9-3.6c-8.8,3.3-16.6,7.9-19.4,17.8c-0.2,0.6-0.1,1.3-0.1,2c-1.4,18.2,9.8,30.3,24.7,36.5
	c5,2.1,11,2.6,15.7-1.4c3.6-3.1,6.8-6.8,10-10.4c2.4-2.7,3.9-7,6.8-8.1c5.9-2.3,12.5-2.9,19-4.2c0.5,2,0.8,3.4,1.1,4.8
	c1.9,0.6,3.5,1.2,5.6,1.8c-0.9,1.3-1.4,2.3-2.2,3.1c-8.9,9.2-17.7,18.5-26.8,27.6c-0.7,0.7-2.8,0.8-3.7,0.2
	c-11.2-6.4-23-4.7-34.5-1.7c-4.3,1.1-8.5,4-11.7,7.2c-2.2,2.2-3.9,6.2-3.7,9.3c1.1,12,15.8,24.8,28,25c2.7,0.1,5.5,0.2,8.8,0.4
	c-0.7,2-1,3.3-1.6,4.4c-3.6,7.4-3.3,14.7,1.1,21.4c3.4,5.1,7.2,10.1,11.9,13.9c11.4,9.3,25.2,6.5,32.6-6.4c3-5.3,4.9-11.2,7.1-16.9
	c1-2.5,1.5-5.1,2.5-8.8c2.4,4.5,4.2,7.9,6.1,11.2c2,3.6,3.9,7.4,6.2,10.8c6.8,10.3,16.2,11.6,25.2,3.2c3.7-3.5,6.6-7.9,9.3-12.3
	c3.5-5.7,3.2-5.9,9.2-3c7,3.4,13.3,2.1,18.5-3.7c3.2-3.6,3.4-6.9,0.7-10.4c-1.7,1.6-3.3,3-4.9,4.1c-8.6,5.9-15.9,4.5-19.4-4.2
	c0,0,0,0,0,0c0,0,0,0,0,0c3.5-1.1,7.5-1.5,10.7-3.1c0.5-0.2,0.9-0.5,1.3-0.8c3.5-2.4,5.9-6.6,9.3-10.7
	c11.8,16.8,23.2,33.3,35.1,49.6c11.8,16.2,24.1,32,36.4,48.3c-22.4-8.5-43.9-16.6-65.8-24.9c-2.4,7.6-2.7,14.3-0.3,20.6
	c7.6,19.9,20.4,35,41.2,42.4c17.5,6.2,35.1,6.4,52.5,0.7c8.4-2.8,14.1,0,19.8,5.2c0.6,0.6,1.2,1.2,1.8,1.7
	c13,11.4,26.1,22.7,39.1,34.1c4.3,3.8,8.3,7.8,13.4,12.7c-4.4,0-7.2,0.1-9.9,0c-8.5-0.5-17-1-25.4-1.5c-18-1.1-35.9-1.8-53.9-3.2
	c-31.5-2.4-61.4-11-90.3-23.2c-1.7-0.7-3.4-1.6-4.9-2.4c6.6-4.5,12.9-8.8,19.8-13.6c-9.1-4-15.7,0.4-22.9,4.1
	c0.3-7.3,2.4-12.7,6.4-17.5c0.9-1.1,0.9-2.9,1.3-4.3c-1.7-0.1-4-0.9-5-0.1c-2.8,2.4-5.7,5.2-7.2,8.4c-1.6,3.6-1.6,7.9-2.4,12.3
	c-3.2-5.8-5.1-11.9-3-18.2c2.1-6.6,5.3-12.8,7.7-19.3c1.5-4,2.8-8.2,3.4-12.4c0.3-2-1.2-4.3-1.9-6.5c-1.3,1.7-3.1,3.1-3.9,5
	c-1.8,4.4-3.1,9.1-4.7,13.6c-0.5,1.5-1.5,2.8-2.2,4.2c2.4-13.2-3.1-23.4-10.9-32.8c-0.9-1.1-2.8-1.4-4.2-2c-0.6,1.4-2,3-1.8,4.2
	c1.1,6.7,2.4,13.4,4.1,19.9c3.8,14.5,8,28.9,12,43.3c-0.8,0.2-1.6,0.5-2.4,0.7c-6.9-22.4-18-43.6-17.5-68.2c-0.4,0-0.8-0.1-1.3-0.1
	c-1.6,2.5-3.1,5.1-4.7,7.6c-3.9-2.6-7.5-5.3-11.3-7.6c-1.2-0.7-3.8-0.9-4.4-0.2c-0.8,1-1,3.5-0.3,4.6c2,3.2,4,7.5,7,8.7
	c7.7,3.1,10.5,8.9,12.1,16.1c0.8,3.5,2.4,6.9,3.5,10.4c2,6.1,3.8,12.2,5.7,18.4c-2.6-1.4-4.3-3.2-5.9-5
	c-8.4-9.6-16.9-19.2-25.3-28.9c-1.3-1.5-2.4-3.1-3.7-4.7c-3.3-4.2-6.2-8.6-10-12.3c-1.9-1.8-5.2-2.8-7.8-2.7c-0.9,0-1.7,4.3-2.9,7.4
	c-8.5,3.3-9.4,8.2-2.7,15.9c4.7,5.5,10.1,4.6,15.9,3.8c3.5-0.4,8.1-1.3,10.6,0.4c8.7,5.9,14.7,14.6,21.8,24
	c-3.5-0.2-5.6-0.2-7.6-0.6c-14.3-2.8-27.7-7.8-40.2-15.6c-5-3.1-10.8-5.2-16.5-6.6c-4.5-1.1-6.3,2-4.7,6.4c0.5,1.3,0.8,2.8,0.5,4.1
	c-1.1,5.1,0.5,9.1,5.8,10.1c4.2,0.8,8.9,0.3,13.2-0.6c5-1.1,9.6-1.6,14.6,0.4c4.7,1.9,9.8,3.1,14.8,4.3c12.7,3.1,24.9,7.1,36.3,13.7
	c-1.1,0.2-2.1,0.2-3-0.1c-7.7-3.2-15.7-3.3-23.5-1.4c-9.3,2.2-17.7,1-26.6-2.7c-7.4-3.1-15.7-4-23.7-5.5c-1.4-0.3-3,1.2-4.6,1.8
	c1.1,1.4,2,3.4,3.4,4.1c6.7,3.2,13.5,6,20.2,8.9c0.7,0.3,1.3,0.9,2.2,1.6c-3.7,3-7.2,5.7-10.7,8.5c0.3,0.6,0.6,1.2,0.9,1.8
	c17.6-3.2,33.1-15.4,52-13.1c-4.2,3.9-8.2,7.6-12.3,11.3c0.3,0.6,0.6,1.3,1,1.9c9.6-2.1,19.2-4.3,30-6.7c-4.1,8.2-7.3,14.9-7.1,23.6
	c7-5.5,11.7-11.5,14.8-18.8c1.6-3.9,3.4-4.1,6.7-1.6c3,2.2,6.2,4.4,9.6,5.7c4.3,1.6,9,2.3,13.5,3.5c12.9,3.7,25.8,7.9,38.8,11
	c11.1,2.7,15.6,11.3,21.8,20.1c-3.4,0.7-5.7,1.1-8.1,1.6c-12.7,2.3-25.5,4.4-38.2,7.1c-7,1.5-12.3,6-16.6,12.2
	c2.6,0.8,4.7,1.4,6.8,2c0,0.5,0.1,0.9,0.1,1.4c-5.9,2.1-11.8,3.9-17.6,6.2c-4.6,1.8-9.3,3.7-13.5,6.2c-3.8,2.3-3.8,5.7-0.3,8.6
	c2.3,1.9,5.1,3.1,7.6,4.6c3.1,1.8,3.9,4,1,6.7c-3.5,3.1-6.9,6.3-10.4,9.3c-6.8,5.8-12.7,12.3-15.4,21.1c-1.1,3.6,0.5,7,4,8.2
	c6.5,2.3,6.7,2.8,5.5,9.6c-2.6,15-4.2,30-1.6,45.1c0.4,2.1,2.4,4,3.6,6c1.5-1.8,3.6-3.3,4.3-5.4c3.4-9.4,8.3-17.8,15-25.1
	c3-3.2,5.8-6.6,9.7-4.5c2.9-3,4.9-5.9,7.6-7.9c5.5-3.9,4.5,4.9,9.3,4.4c0.3-15.7,3.8-30.3,18.7-40.8c1.1,3.7,1.7,6.2,2.5,8.7
	c2.4,6.8,5.4,13.3,12.5,16.6c4.2,2,6,0.8,5.6-3.7c-0.2-2.5-0.8-4.9-0.8-7.4c-0.2-17.9,7-32.1,21.1-42.9c4.5-3.5,8.5-8.1,15.2-7.8
	c-0.3,1.4-0.7,2.9-1,4.3c-4.8,19.2-2.5,37,10.5,52.6c1.3,1.5,3.3,2.5,5,3.7c0.4-3.1-0.2-5.1-0.7-7.1c-6.6-22.7-1.2-42.1,16.5-57.8
	c1.9-1.7,5-2,7.5-2.9c0.5,2.1,1.2,4.3,1.4,6.4c0.6,6.3,0.9,12.7,1.3,19c0.7,0.2,1.3,0.5,2,0.7c4.7-4.7,9.6-9.2,14.2-14.1
	c11.7-12.4,23.2-25.1,35.1-37.3c5.3-5.3,8.3-5.2,14.6-1.2c13.3,8.6,26.7,16.9,39.5,26.1c7.5,5.4,13.9,12.3,20.7,18.6
	c0.9,0.8,1.4,2,2.9,4.3c-4.8-1.4-8.3-2.5-11.7-3.5c-17.1-5.2-34.4-7.6-52.2-4.4c-12.1,2.2-24.1,4.7-36.1,7.2
	c-2.2,0.5-4.3,1.7-6.9,2.8c7.2,6,7.3,7.6,2.2,14.5c-2.1,2.8-4.2,5.6-6.2,8.5c-8.2,12.2-12.5,25.3-9.2,40.1c0.2,1,0.9,1.9,1.4,2.9
	c0.9-0.5,2.1-0.8,2.8-1.5c6.8-7.2,13.6-14.3,20.2-21.7c7.2-7.9,10.7-8.4,18.8-1.8c3.4-6,5.8-12.7,13.3-15.7
	c0.7,6.3,1.3,12.2,2.1,19.1c6.3-5.4,11.5-10.3,17.2-14.5c5.8-4.3,12.6-6.4,19.3-5.4c-1.6,10.9-3.2,21.3-4.8,31.7
	c0.6,0.4,1.3,0.7,1.9,1.1c1.7-0.9,3.8-1.5,5.1-2.8c8.1-7.9,18.1-12.4,28.8-15.3c5-1.3,10.6-1.9,15.7-1c13.6,2.4,22.8,11.8,30.9,22.1
	c6.3,8,11.8,16.5,17.6,24.9c5.1,7.2,9.5,8.5,18,5.6c5.8-2,11.7-3.9,17.6-5.5c9.1-2.5,11-4.6,11.7-14.2c1.9-26.7,3.9-53.5,5.9-80.2
	c0.1-1.5,0.5-3,0.8-4.5c0.5-0.1,0.9-0.1,1.4-0.2c0.5,1,1.3,2.1,1.4,3.2c0.5,4,0.8,7.9,1.3,11.9c2.9,24.8,6.1,49.5,8.8,74.3
	c0.9,8.2,3.3,9.6,12.1,11.5c7,1.5,13.7,3.9,20.6,5.7c5.8,1.5,11.5,3.2,17.4,3.7c2.7,0.2,6.7-1.4,8.3-3.5c6.2-8.4,11.4-17.5,17.5-26
	c3.6-5,5-13.3,14.2-11.5c-1.7-0.3-3.4-0.6-6.1-1c1.8-3.4,3.3-6.2,4.9-9c5.4-9.6,18.5-13,28.1-7.5c2.2,1.3,4.9,1.8,7.3,2.9
	c8,3.7,16,7.4,23.9,11.2c-0.2,0.5-0.3,0.9-0.5,1.4c-0.7,0.3-1.4,0.6-1.5,0.7c3.5,2.2,7.5,4.3,11,7.1c2.8,2.3,4.8,5.5,7.5,8
	c1.1,1.1,3,2.1,4.3,1.9c0.9-0.2,1.9-2.4,2.1-3.9c0.5-3.6,0.5-7.2,0.8-12.5c3.2,1.7,6.1,2.5,7.9,4.4c5.7,6,10.9,12.5,16.5,18.6
	c2,2.2,3.9,6.2,7.9,1.9c0.7-0.7,3.5,0.1,5,0.8c1.9,1,3.3,2.8,5.1,3.9c6.1,3.6,12.3,7.2,18.6,10.6c3.8,2,7.1,0,9.1-2.9
	c0.8-1.2-0.2-4.1-1-6c-2.6-5.9-5.5-11.7-8.2-17.6c-0.5-1.2-0.8-3.1-0.2-4.2c2.1-3.8,4.6-7.3,7.2-11.3c-0.7-0.6-1.8-2.2-3.3-3.1
	c-12-7-17.4-18.3-20.7-31.1c-2.5-9.6-5.3-11.5-15.1-12.9c-9.7-1.4-19.3-3.1-28.9-5c-6.2-1.2-10-4.9-11.9-11.3
	c-2.8-9.6-6.6-11.1-16.1-7.5c-2.3,0.9-4.6,1.9-6.8,3.2c-8.7,4.9-17.4,9.8-26.1,14.7c-1.8,1-3.7,1.8-5.5,2.7c-0.3-0.3-0.6-0.6-1-1
	c0.5-1.3,0.9-2.6,1.6-3.8c2.4-4.2,4.8-8.4,7.5-12.4c5.8-8.3,10.8-17.5,18-24.5c7.1-6.9,12.4-14.6,16.8-23.2c0.9-1.8,1.9-3.6,3.1-5.8
	c0.7,1.2,0.9,1.6,1.1,2.1c0.8,1.8,1.6,3.6,2.4,5.5c6.3,14.4,15.7,25.3,30.7,31.7c10,4.3,19,10.8,28.3,16.7
	c4.5,2.9,8.5,6.5,13.7,10.7c0.7-6.9,1.2-12.5,1.8-18.1c0.5-5.3,3.6-7,8.2-4.4c14.7,8.4,23.9,22.7,21,40.7c-0.7,4.5-1.5,9.1-2.3,13.7
	c13.4-4.7,19.2-22.1,16.4-49.4c3,0.3,6.4-0.2,8.6,1.1c19.8,11.5,34,26.9,34.4,52.3c2-1.3,3.1-2.8,4-4.3c1.8-3,3.5-6.1,5.2-9.1
	c3.4-5.8,6.4-6.5,10.8-1.3c4,4.6,7.1,10,10.4,15.1c1.2,1.8,2,4,3.4,6.8c1.9-2.4,3.1-4.2,4.5-5.7c2.8-3.1,8.2-2.5,8.8,1.3
	c1,5.9,4.9,8.7,9.6,11.1c1.1,0.5,1.8,1.6,2.9,2.6c-1.3,0.7-2,1.1-3.9,2.1c12,0.1,13.1,11.4,20.4,16.9c9.3-20,4.3-39.1-1.7-57.9
	c4.5-1.7,8.8-2.6,12.4-4.8c4.8-3,5.3-5.4,1.3-9c-4.9-4.4-10.5-8.1-16.3-11.1c-8.7-4.4-18-7.7-26.9-11.8c-2.3-1.1-3.8-3.6-6.4-6.1
	c4.3-1.9,7.4-3.3,12.2-5.3c-5.3-2.4-9.2-4.5-13.3-5.8c-13.5-4.2-27-8.1-40.6-12.2c-2.3-0.7-4.4-2-7.5-3.4
	c9.3-12.5,19.1-22.9,32.6-29.1c12.4-5.7,25-11,37.6-16.1c5.5-2.2,11.3-3.7,16.9-5.7c1.7-0.6,3.3-1.7,4.6-2.8c2.3-2,4.4-1.8,6,1
	c2.1,3.7,10.5,6.8,14.8,6.3c6.5-0.8,13.6-2.6,19.6-1c13.3,3.5,25.4,10,35.1,20.1c2.1,2.2,4.5,4.2,7.1,6.5c0.6-2.1,1-3.3,1.4-4.6
	c1.6,0.6,3.5,0.9,4.8,2c3.1,2.6,5.9,5.5,8.8,8.2c0.4-0.3,0.8-0.6,1.3-1c-0.7-2.7-1.5-5.4-2.2-8.2c0.3-0.3,0.6-0.7,0.9-1
	c2.3,1.3,4.6,2.8,7.1,3.8c2.3,1,4.8,1.4,7.2,2.1c0-2.1,0-4.3,0-6.7c0.3-0.1,1-0.1,1.6-0.3c1.7-0.6,3.4-1.4,5-2.1
	c-1.4-1.6-2.5-3.7-4.2-4.8c-2.3-1.5-5-2.2-7.8-3.3c6.6-1.1,12.6-2.1,19.9-3.2c-2.2-2.8-3.6-4.5-5.3-6.5c1.3-0.7,2.5-1.2,3.6-1.9
	c1.4-1,3.6-2.1,3.7-3.2c0.1-1.3-1.7-3-3.1-3.9c-3.1-2.1-6.4-3.9-9.6-5.8c0-0.6,0.1-1.1,0.1-1.7
	C1137.3,564.2,1141.4,563.5,1146,562.8z M940,427.8c0.4,0,0.7,0.1,1.1,0.1c0,4.1,0,8.2,0,12.3c-0.7-0.1-1.5-0.2-2.2-0.3
	C939.2,435.9,939.6,431.8,940,427.8z M933.9,473.4c-3,13.2-11.2,23.2-19,33.4c-0.7-0.4-1.4-0.9-2.1-1.3
	C919.4,494.5,925,483,933.9,473.4z M904.2,517.9c0.6,0.6,1.2,1.2,1.8,1.8c-5.7,5.3-11.4,10.6-17.1,15.9c-0.5-0.5-1-1-1.4-1.4
	C889.4,528.5,898.2,519.9,904.2,517.9z M1034.5,378.2c1.3,7.2-0.1,13.5-4.5,19.2c-10.2,13.1-30.6,17.2-42.4,8.5
	c-13.7-10.1-18.7-27-12.1-42.6c3.3-7.9,7.4-15.5,11.4-23.7c8,3.9,6.8,12,12.1,18.1c-0.2-9.7,4.3-17.4,1.7-26.3
	c-1.2-4.1-0.2-8.8-0.2-13.2c0.5,0,1.1-0.1,1.6-0.1c2.3,14.1,4.7,28.2,7,42.3c0.5-0.1,1-0.1,1.5-0.2c0-5.5,0-10.9,0-17.4
	c1.7,2.6,2.9,4.4,4.1,6.2c0.3-0.1,0.6-0.1,1-0.2c-0.4-3.7-0.9-7.5-1.5-12.6c2,1.9,3.5,2.7,4.2,4
	C1025.5,352.2,1032,364.3,1034.5,378.2z M965.1,318.2c0.3-3.3,0.6-6.8,0.9-10.2c0.3-3.5,0.3-6.9,1-10.3c0.3-1.4,1.8-2.6,2.8-3.8
	c0.4,0,0.8,0,1.2,0.1c-1.3,5.9,2.5,6.6,6.4,7.4c3.4,0.8,6.7,1.9,10,2.8c-0.1,0.5-0.2,1-0.2,1.5c-5.2,0.4-10.4,0.9-16.2,1.4
	C971.6,312.6,971.4,317.8,965.1,318.2z M981.1,275.1c0.7-0.4,1.4-0.8,2-1.3c3,4.8,6,9.7,8.9,14.5c-0.6,0.3-1.1,0.6-1.7,0.9
	C987.3,284.5,984.2,279.8,981.1,275.1z M993.1,311c-7.2,1.9-15.1,2.8-18.3,11.2C975,311.5,982.7,306.8,993.1,311z M996.6,314.7
	c0.5,0.1,1,0.1,1.5,0.2c-1,6.5-2,13-3.2,19.4c-0.2,0.8-1.8,1.3-2.8,1.9c-0.6-1.3-2.1-2.9-1.8-3.9
	C992.2,326.4,994.5,320.6,996.6,314.7z M999.5,278.8c0.2-3.1,0.4-6.2,0.7-9.3c0.7,0,1.3,0.1,2,0.1c-0.2,3.1-0.3,6.1-0.5,9.2
	C1001,278.8,1000.2,278.8,999.5,278.8z M1029.6,317.1c-5.8-2.6-11.3-5.1-16.7-7.5C1022,309,1029.4,312.2,1029.6,317.1z
	 M1012.9,296.3c3-3.4,5.5-6.2,8.7-9.9C1021.9,292.4,1019.2,295.4,1012.9,296.3z M1023.8,300.6c-0.3-0.6-0.5-1.1-0.8-1.7
	c3.3-1.6,6.6-3.3,9.9-4.9c0.4,0.7,0.7,1.4,1.1,2.2C1030.7,297.7,1027.3,299.1,1023.8,300.6z M1027.3,288.9c-0.1,0.2-1.1-0.1-2.1-0.3
	c-0.3-0.1-0.6-0.2-0.9-0.2v0l0,0c0.9-2,1.9-4.1,2.8-6.1c0.8,0.3,1.7,0.5,2.5,0.8C1029,285,1028.3,287,1027.3,288.9z M1017,281.6
	c-2.5,2.4-4.2,5.7-6.2,8.6c-0.7-0.4-1.5-0.8-2.2-1.2c3-4.9,5.6-10.2,9.3-14.5c1-1.2,5.3,0.4,9.3,0.9
	C1022.9,277.9,1019.5,279.3,1017,281.6z M1015.4,330.6c-0.9,0.4-1.8,0.7-2.7,1.1c-2.1-5.9-4.2-11.8-6.3-17.6c0.5-0.2,1-0.4,1.5-0.6
	C1010.3,319.1,1012.9,324.9,1015.4,330.6z M1039.4,308c8.1,3.2,16.2,6.3,24.3,9.5c0.2-0.5,0.4-1,0.6-1.5c-6.6-6.2-15.5-8-23.5-11.9
	c10.8-1,20.4,4.7,30.8,6c-7.4-7.6-18.2-7.3-27-11.5c0-0.5,0-1,0-1.5c8.2,0,16.4-0.6,24.6,0.1c13.3,1.2,20.9,12,18.6,25.7
	c-1.4,8.5-3,17-4.9,25.4c-3.6,16.2-16.7,21.6-30,11.8c-9.6-7.1-18.2-15.5-27.2-23.5c-1.4-1.2-2-3.3-2.9-5c0.5-0.3,1.1-0.6,1.6-1
	c8.5,8.2,17,16.4,25.5,24.6c0.3-0.3,0.7-0.6,1-0.9c-5.8-11.4-19.3-17.1-22.9-30c6.8,5.3,13.6,10.6,20.4,15.9
	c0.5-0.6,1.1-1.1,1.6-1.7c-1.1-1.3-2.1-2.8-3.4-4c-4.1-3.7-8.3-7.2-12.3-11c-1-0.9-1.2-2.7-1.8-4.1c1.4,0.2,3.2,0,4.3,0.7
	c5,3.2,9.8,6.9,14.8,10.1c2.1,1.3,4.8,1.9,7.6,2.1c-7.3-6.5-16.2-10.9-22.4-18.7c8.9,3.2,16.3,9.3,25.4,11.6
	c0.3-0.5,0.6-1.1,0.9-1.6c-8.2-4.9-16.4-9.8-24.6-14.6C1039,309,1039.2,308.5,1039.4,308z M967,239.1c0.4-19.5,12.7-30.1,32-28.7
	c10.8,0.8,21.8-0.3,32.8-0.3c5.6,0,11.4,0.1,16.8,1.4c2.7,0.7,5.6,3.8,6.9,6.5c4.4,8.9,11,15.1,19.6,19.9c4.1,2.3,8,6.2,10.5,10.2
	c5,8.1,3.2,14.7-4.6,20.3c-10.3,7.4-22.3,11-34.1,14.8c-3.3,1-6.5,2-10.1,2.4c8.5-6.6,19.8-8.6,27.4-16.5c-0.2-0.4-0.4-0.8-0.6-1.2
	c-9,4-18,8.1-27,12.1c-0.3-0.6-0.6-1.1-0.8-1.7c9.4-5.3,18.9-10.5,28.3-15.8c-0.4-0.7-0.7-1.4-1.1-2.1c-8.9,4.3-17.8,8.7-27,13.2
	c2.4-11.1,12.3-16.1,19-23.8c-11.8,3.4-18.6,13.5-28.1,20.1c1.5-8.3,7.1-14.6,10.4-22.1c-8.8,4-11.4,13.8-17.8,20.2
	c-2-5.2-1.2-6.7,14.8-28.7c-6.1,1.6-8.9,5.9-11.9,9.9c-3,4-5.8,8.2-8.7,12.3c-0.7-0.4-1.4-0.8-2.1-1.1c3.2-7.4,6.3-14.8,9.5-22.2
	c-6.3,4.8-9,11.7-11.6,18.5c-1.2,3.2-2.9,4.2-7,3c0.8-5.3,1.6-10.5,2.4-15.6c-0.4-0.1-0.8-0.2-1.2-0.4c-2.1,6.1-4.1,12.3-6.2,18.4
	c-0.5-0.1-1-0.2-1.5-0.3c0-9.2,0-18.3,0-27.5c-0.6-0.1-1.2-0.2-1.8-0.3c-1,4.6-2.2,9.2-2.9,13.9c-0.5,3.6,0,7.3-0.3,11
	c-0.1,1.7-1.1,3.4-1.8,5c-0.8-1.4-2-2.7-2.4-4.2c-1.2-4.1-2.1-8.3-3.3-13.6c-3.6,8.8,4.3,19-6,25.5c-1.3-1.8-2.8-3.4-3.8-5.2
	C969.1,257.9,966.9,248.8,967,239.1z M907.4,289c0.3-11.4,4.1-21.9,10.7-31.2c5.9-8.4,14.3-10.5,23.1-4.6
	c8.1,5.4,15.1,12.4,22.3,19.1c4.1,3.8,7.5,8.3,10.6,13.2c-9.4-3.9-17.2-10.2-25.4-15.9c-0.4,0.5-0.9,0.9-1.3,1.4
	c6.1,5.4,12.1,10.8,19,16.9c-10.2-0.1-16.4-7.5-25-9.1c5.7,7.4,13.9,11,22,15.3c-9.8,2.7-19.3-2.8-29-1.5c-0.1,0.6-0.3,1.3-0.4,1.9
	c7.3,2,14.6,4,21.9,6c0,0.4,0,0.7,0,1.1c-6.4,0.3-12.8,0.7-19.2,1c0,0.7-0.1,1.3-0.1,2c7.5,0.5,15.1,1.1,22.6,1.6
	c-10.6,4.1-21.6,3.4-32.7,2.9c9.5,6.5,20.3,2.6,30.6,4.5c-6.5,1.2-13,2.8-19.5,3.6C918,319.3,906.9,309.1,907.4,289z M920,361.5
	c-4.2-1.7-7.4-5.9-10.9-9c-3.2-2.8-5.9-6.2-9.4-8.6c-5-3.4-7.6-7.8-7.7-13.7c-0.2-7.5,6-28.8,10.6-36c0.5,1.4,1,2.6,1.4,3.8
	c1.4,3.7,2.5,7.6,4.2,11.2c6.9,14.1,15,17.5,32,13.9c4.5-1,9.1-2.1,13.6-3.1c1.6-0.3,3.3-0.2,5.2,0.8c-7.7,3.5-15.3,7.1-23,10.6
	c0.3,0.7,0.6,1.5,0.9,2.2c8.8-3,17.7-5.9,26.5-8.9c0.2,0.4,0.4,0.9,0.6,1.3c-9.3,4.8-18.5,9.6-27.8,14.4c6.2,1,11.1-2.4,16.2-4.8
	c5.3-2.5,10.3-5.5,15.5-8.3c0.4,0.5,0.8,1.1,1.2,1.6c-5.4,4.2-10.9,8.3-16.3,12.5c11.1-1.3,17.5-9.7,25.4-16.3c0,3.2,0,5.9,0,9
	c1.8-0.7,3.3-1.2,5.4-2c-0.3,1.6-0.4,2.7-0.8,3.6c-6.6,13.1-13.2,26.1-19.8,39.1c-1.1,2.2-2.4,4.4-3.9,6.4c-6.9,9.8-18,9.4-24.3-0.9
	c-1-1.7-1.8-3.6-2.4-5.4C930.5,368.2,926.5,364.2,920,361.5z M848.5,89.3c-0.2-1.7,0.3-4.6,1.4-5.2c11.8-6.5,16.9-17.9,22-29.4
	c0.3-0.6,0.5-1.2,0.7-1.8c0.6,0,1.1,0.1,1.7,0.1c0.2,4.6,0.2,9.2,0.7,13.7c0.6,5.2,1.1,10.6,2.6,15.6c0.8,2.8,3.2,5.4,5.5,7.4
	c2.3,2,2.8,3.5,1.1,6.2c-7.8,13.1-15.5,26.4-23.2,39.6c-0.6,0.9-1.3,1.8-3.1,4c-1.9-7.7-3.8-14.2-5-20.7
	C851.3,109.1,849.9,99.2,848.5,89.3z M300.8,390.6c-3.1,2.7-5.9,2.2-9.9-2c3.7-2.7,7.3-5.4,10.9-8.1
	C304.6,383.7,304.2,387.5,300.8,390.6z M300.1,379.2c-5.4,1.2-10.6,2.3-16.3,3.6c0.4-4.1,0.2-7-4.5-5.7c-0.8,0.2-2.2-1.6-3.9-3
	C285.7,369.9,296.1,372.1,300.1,379.2z M262.8,379.7c2.7-1.3,5.5-2.5,8.2-3.8c0.5,0.4,0.9,0.7,1.4,1.1c-1,2.2-1.4,5.4-3.1,6.2
	c-1.6,0.8-4.5-0.8-6.8-1.3C262.6,381.2,262.7,380.5,262.8,379.7z M232.9,331c4.8-4.8,6.7-12.9,14.9-14c1-0.1,2-0.5,2.9-0.5
	c10.6,0,21.2,0,31.8,0.2c9.3,0.2,15.7,5.5,16,13c0.3,9.7-6.1,17.3-15,18.7c-6,0.9-12.2,2-17.8,4.2c-10.2,4.1-17.8-0.4-26.6-6.5
	c4.8-0.8,8.5-1.4,12.2-2.1c0.1-0.4,0.1-0.8,0.2-1.2c-1.7-1.1-3.4-2.2-5-3.3c0-0.4-0.1-0.8-0.1-1.1c2.4-0.1,5.1,0.4,7-0.6
	c1.8-0.9,2.9-3.4,4.3-5.2c-0.4-0.4-0.9-0.8-1.3-1.2c-2.2,0.9-4.3,1.9-7.8,3.4c1.6-3.1,2.6-5,4.2-8.1c-3.9,1.5-6.9,2.6-10.9,4.1
	c1.8-2.4,3.1-4,4.4-5.7c-4.8-1.5-7.1-0.3-13,6.6C233,331.4,232.8,331.1,232.9,331z M230.7,277.6c2.8-4.3,6.2-8.2,9.7-11.9
	c2.3-2.5,5.3-2.5,8-0.1c5.8,5.2,6.8,21.6,1.6,27.4c-3.3,3.7-7.2,5.7-12.7,5c-2.8-7.2-3.4-7.4-9-3.7
	C226.4,288.2,227.5,282.6,230.7,277.6z M190.3,278.6c-2.7-2.4-5.3-5.1-8-7.5c-1.9-1.7-3.8-4.5-6.7-1.9c-3,2.6,0.3,4.3,1.4,6.2
	c0.2,0.4,0.4,0.9,0.7,1.4c-2.9,2.8-4.6,0.1-6-1.6c-5-5.8-3.2-18.5,3.2-24.7c0.4-0.3,0.7-0.7,1.2-1c3.4-2,5.3-8,10.7-5.3
	c6.4,3.2,11.4,8.3,12.1,15.5c0.5,5.6-1,11.4-2.2,17.1C195.9,280.6,193.2,281.1,190.3,278.6z M134.1,301.5c-1.4-1.9-2.5-4.1-4.2-5.5
	c-3.1-2.6-4.2-0.4-4.4,3.1c-1-1.7-1.8-2.9-2.5-4.1c-5.4,0.6-5.9,1.3-3.8,5.9c1,2.3,2.1,4.5,2.3,7.2c-2.4-3.1-4.7-6.2-7.7-10.2
	c-1.9,6.3,2.5,8.1,5.6,11.8c-2-0.1-3.2,0.2-4.1-0.3c-6.2-3-11-7.6-12.8-14.5c-1.6-6.2,2-11.7,8.4-12.9c11-2.1,20.3,2.9,23.5,12.8
	C134.9,296.9,134.9,299,134.1,301.5z M78.9,370.1c-7.9-2.5-14.3-6.8-17.2-15.2c-4.3-12.5,1.9-20.5,13-24.2
	c10.6-3.5,20.7,1.9,23.6,12.3c0.6,2-0.5,5-1.7,7c-1.8,2.9-4.5,5.3-6.7,7.9c-0.5,0.6-0.6,1.5-0.9,2.2c0.3,0.4,0.6,0.9,0.9,1.3
	c4-2.2,8.1-4.3,12.5-6.7C100,367.3,89.9,373.7,78.9,370.1z M78.2,424.8c-7.1-0.1-13.2-6.8-14.7-13.8c-1.1-5.1,0.7-9.9,5.3-11.8
	c10.3-4.2,20.9-6.3,32.6-3.7c-1.5,2.2-2.6,3.7-4.1,6c3.3-0.2,5.5-0.3,7.7-0.4c0.6,0.7,1.2,1.4,1.8,2.1c-3.1,1.3-6.2,2.6-9.3,3.8
	c0.7,1.1,1.5,2.2,2.2,3.2c2.9-0.6,5.9-1.1,8.8-1.7c0.2,0.2,0.4,0.4,0.5,0.6c-2.9,2-5.9,4.1-10.1,7c3-0.8,4.7-1.3,6.7-1.8
	c-0.5,3.9-2.4,6.9-6,7.6C92.6,423.5,85.4,425,78.2,424.8z M138.1,441.4c-1.1,11.1-6.3,19.8-15.9,25.6c-5.4,3.2-11.2,3.4-16.4-0.5
	c-7.4-5.5-12.9-12.2-11.6-22.1c1.2-9.6,8.3-14.3,16.3-17.9c2.2-1,4.7-1.5,7.8-2.5c-1.9-1.5-3.2-2.5-4.4-3.4c1.6-4.2,3-8,4.7-12.4
	C128.2,417.6,139.6,425.6,138.1,441.4z M137.9,413.9c-0.5,0.2-0.9,0.5-1.4,0.7c-6.6-5.4-13.2-10.7-19.6-16.3
	c-0.7-0.6-0.4-3.7,0.5-4.7c7.5-9.1,15.2-17.9,22.8-26.8c0.6,0.3,1.2,0.6,1.8,0.9C134.4,382.4,136.6,398.2,137.9,413.9z M146.3,423.6
	c-0.3,0.8-1.1,1.5-2,2.7c-0.5-1.4-1.1-2.2-1.2-3.1c-0.3-11.6-0.8-23.3-0.8-34.9c0-11.3,7.3-18.5,15.4-24.9c2.4-1.9,4.9-2.1,6.2,1.6
	c3.2,8.7,6.7,17.3,9.8,26.1c1.9,5.4,0.3,9.5-4.9,11.4C158.2,406.4,150.5,413,146.3,423.6z M173.4,459.1c-2.2,0.4-4.8,0.1-6.8-0.8
	c-14.2-6.5-19.3-28.1-9.6-40.2c0.4-0.5,1-0.8,1.6-1.3c2,5,3.9,9.8,5.8,14.5c0.6-0.1,1.1-0.2,1.7-0.4c1.3-3.6,2.6-7.3,3.9-10.9
	c0.4,0,0.8,0,1.1,0.1c0.7,2.8,1.5,5.7,2.2,8.5c0.4,0,0.9,0,1.3,0c0.7-3.9,1.5-7.7,2.2-11.6c0.3,0,0.6,0.1,0.9,0.1
	c0.8,4.4,1.5,8.9,2.3,13.3c0.7-0.1,1.5-0.1,2.2-0.2c0.6-5.8,1.1-11.5,1.7-17.3c0.5-0.1,0.9-0.1,1.4-0.2c0.6,1.4,1.5,2.8,1.7,4.2
	c0.8,7.6,1.8,15.2,2.1,22.8C189.4,447.7,181,457.7,173.4,459.1z M203.7,408.2c-0.8,0.2-1.6,0.5-2.3,0.8c-2.4,1-5.6,3.5-7,2.7
	c-3.5-2-7.3-4.9-8.9-8.4c-5.2-11.8-9.6-23.9-14.1-36.1c-0.6-1.7,0.5-4,1-7c2.2,1.7,3.5,2.4,4.2,3.3c10,12.2,20,24.4,29.7,36.8
	C209.7,404.7,208.7,406.7,203.7,408.2z M221.9,414.5c3.1,0,4.8,0.2,6.3,0c3.3-0.6,7.1-0.7,9.8-2.4c3.5-2.2,5.8-1.2,8.4,1
	c2.8,2.4,3.8,5.1,1.7,8.3c-3.2,4.8-6.6,9.4-10.4,14.8C232.6,429.1,227.7,422.4,221.9,414.5z M373.4,634.9c-2.7,0-5.4,0.3-8,0
	c-35.1-4.4-67.8,2.4-98.3,20.3c-18.3,10.7-31.8,26.1-42.3,44.2c-5.3,9-9.7,18.5-14.6,27.8c-0.3,0.6-0.9,1.2-1.4,1.7
	c-0.6-0.3-1.2-0.5-1.8-0.8c2.4-6,4.1-12.5,7.4-18c7.9-13.3,15.6-26.8,25.1-38.9c5.6-7.2,13.9-12.9,21.9-17.7
	c15.3-9.2,31-18.5,49-21.4c19.6-3.2,39.3-4.7,59.1-1c1.5,0.3,2.9,1.3,4.3,2C373.6,633.6,373.5,634.2,373.4,634.9z M482.9,293.6
	c6.1,4.2,12.2,8.5,18.3,12.7c-0.2,0.4-0.5,0.7-0.7,1.1c-6.2-4.1-12.3-8.3-18.5-12.4C482.3,294.5,482.6,294.1,482.9,293.6z
	 M498.2,311.6c-9.3-2.2-18.5-4.9-27.9-6.4c-9.5-1.5-19.1-1.7-28.7-2.4c0.1-0.5,0.2-1.1,0.2-1.6C455.8,295.1,487.9,300.5,498.2,311.6
	z M442.4,289.2c8.1,0.8,16.1,1.8,24.2,2.8c1.2,0.1,2.3,0.9,3.4,1.3c-0.1,0.2-0.2,0.4-0.4,0.7c-10.9,0.5-21.9,1-33.1,1.5
	C436.4,291.5,437.8,288.7,442.4,289.2z M434,299c4.9,4.5,9.1,8.9,13.8,12.8c10.7,8.9,23.6,9,36.6,8c13.9-1,25.7,4,36.7,11.9
	c0.9,0.7,1.7,1.6,2.5,2.4c0.5,0.6,0.8,1.4,0.7,3.3c-3-0.9-6-1.8-8.9-2.7c-12-3.8-23.9-8-36.1-11.1c-5-1.3-10.6-0.2-16.3,0.5
	c3.8,5.3,7.3,10.5,13.6,12.7c13,4.7,25.7,9.7,39.8,10.7c11,0.8,20.2,6.4,27.5,14.7c0.9,1,1.6,2.1,2.4,3.2c0.3,0.5,0.4,1.2,1.2,3.2
	c-3.1-1.6-5.3-2.5-7.3-3.8c-9.2-6-18.5-12-29.8-13.4c-5.3-0.6-10.7-0.1-16.1-0.1c-0.3,0.6-0.5,1.3-0.8,1.9c2.1,2.8,3.9,6,6.5,8.4
	c9.9,9.3,21.5,15.4,34.9,18.5c6.4,1.5,12.8,3.7,18.9,6.3c2.6,1.1,4.5,3.9,5.9,6.7c-10-3.4-19.9-8.1-30.2-9.8
	c-10.5-1.7-21.5-0.4-32.2-0.4c-1.4-17.2-13.6-26.3-30.5-23.1c-3.1,0.6-6.3,0.7-9.3,1.4c-3.1,0.7-6.1,1.8-10.4,3.1
	c-0.2-1.6-1.4-4.2-0.9-6.4c1.5-7,3.6-13.8,5.3-20.7c0.3-1.3,0.6-2.7,0.2-3.9c-0.3-1.2-1.3-2.6-2.3-2.9c-0.8-0.3-2.7,0.7-3.1,1.6
	c-2.8,5.4-5.3,11-8.1,16.5c-0.9,1.7-2.4,3.1-3.7,4.7c-1.2-1.5-2.8-2.7-3.4-4.4c-2.2-6-4.1-12.2-6.5-19.6c-5.1,8.8-4,17.1-3,25.6
	c-0.8,0.1-1.6,0.3-2.3,0.3c-6.2-0.4-7.1,0.4-7,6.4c0.1,6-11.9,13.3-17.1,10.2c-1.2-0.7-2.2-3.5-1.9-5c1.6-7.5,3.3-15,5.7-22.2
	c0.9-2.7,3.4-5.5,5.9-7c13.2-8,21.3-19.8,27-33.7C432.4,302.2,433.2,300.7,434,299z M553.7,423.1c7.1,2.2,13.4,4.5,18.5,10.3
	C565,434.3,554.6,428.8,553.7,423.1z M576.1,482c4.3,6.7,8.4,13.6,11.8,20.8c3.9,8.1,3.2,9-4.4,13.7c-7.5-13.2-14.9-26-21.9-39
	c-0.7-1.4-0.1-4.1,0.8-5.5c0.5-0.7,3.7-0.7,4.7,0.2C570.3,475.1,573.7,478.3,576.1,482z M435.5,530c-1.5-10.1-1-10.5,9.2-11.2
	c8.2-0.6,13.1-6.5,17.7-12.5c0.9-1.3,1.8-2.6,2.7-3.9c0-0.1-0.1-0.2-0.1-0.3c0.1,0,0.1,0.1,0.2,0.1c0.1-0.3,0.2-0.5,0.3-0.8
	c0.3-1,0.5-2,1.1-2.4c7.7-5.5,10.2-13.7,11.1-22.5c0.4-3.8,1.8-5.3,5.5-5.4c2,0,3.9-0.6,5.8-1.1c6.2-1.5,9.8,0.7,9.9,7.2
	c0.2,7-0.8,13.9-6.4,19.2c-1.2,1.2-2.2,3-2.5,4.6c-1.3,5.9-5,8.4-10.8,6.5c-4.8-1.6-9.4-3.6-14.1-5.4c0,0,0,0.1,0,0.1l0,0v0
	c0,0-0.1,0.1-0.1,0.1c0.7,2.7,1.8,5,3.2,7c1.6,2.3,3.7,4.1,6.1,5.7c0.6,0.4,1.1,0.8,1.7,1.1c0.8,0.5,1.5,0.9,2.3,1.3
	c5,2.7,5.5,4.1,1.7,8.4c-1.1,1.2-2.3,2.5-3.8,3.2c-10.9,5-21.8,9.7-34.2,8.8c-4-0.3-6.8-1.4-6.4-6.1
	C435.9,531.3,435.6,530.7,435.5,530z M431.9,373.9c-0.5-0.1-1.1-0.1-1.6-0.2c-1.8,6.5-3.6,13.1-5.4,19.6c-0.7,0-1.4,0.1-2,0.1
	c-1.3-7.6-2.9-15.2-3.7-22.9c-0.4-3.5,2.3-5.8,6-6c3.5-0.2,7-0.3,10.5-0.3c9.1,0.2,13.8,6,12,14.8c-0.5,2.7-1.5,5.3-2.3,8
	c-0.5,0-0.9-0.1-1.4-0.1c-0.2-2.8-0.3-5.7-0.5-8.5c-0.4-0.1-0.8-0.1-1.3-0.2c-0.8,2.2-1.3,4.5-2.4,6.6c-1.1,2.2-2.7,4.2-4.2,6.5
	c-0.5-1.2-0.9-2-1.4-3.2c-1.3,1.4-2.3,2.5-3.9,4.2C429.5,385.7,434.5,379.8,431.9,373.9z M421,402.4c6.4-1,12.8-1.7,19.2-2.9
	c3.5-0.6,5.9,0.5,7.1,3.8c1,2.8,1.9,5.7,2.3,8.6c1.1,7.5,1.9,15.1,2.8,22.5c-7-6.4-14.8-3.2-22.3,0.5c-3-5.7-4.8-12.8-9.4-16.4
	c-4.5-3.5-11.8-3.4-18.8-5C407.8,407.9,413.5,403.6,421,402.4z M526.7,417.5c-1-0.1-1.6-3.8-2.4-5.9c0.4-0.3,0.8-0.6,1.2-1
	c3.1,1.1,6.2,2.2,9.4,3.3c0.1,0.6,0.1,1.1,0.2,1.7C532.1,416.4,529.3,417.8,526.7,417.5z M535.1,420c7.2,0.1,11.9,3.6,12.9,9.4
	c1.1,6.4-2.9,14-9.3,15.3c-8.4,1.6-15.6,5-22.3,10.1c-2.4,1.8-5.5,2.5-8.3,3.7c-0.5-0.4-1.1-0.9-1.6-1.3c1.7-3.9,3.1-8.1,5.2-11.8
	c3.9-7.1,8.2-14,12.6-20.7c1.2-1.8,3.4-3.3,5.4-4.3C531.2,419.6,533.3,420,535.1,420z M524.3,401.4c-3.4,5.5-4.6,11.1-4.2,17.5
	c0.2,2.8-0.9,6.1-2.6,8.4c-4.3,5.8-9.2,11.1-14,16.7c-5-8.2-1.3-14.7,1.2-21.3c-0.4-0.2-0.9-0.4-1.3-0.6c-2.1,2.3-4.2,4.6-6.4,6.9
	c-0.5,0-1,0-1.5-0.1c0-4.2-0.7-8.6,0.2-12.7c0.8-4,3.2-7.6,4.2-11.7c-6.7,2.1-6.5,8.8-9.8,13.5c-2-1.5-3.9-2.9-6.5-4.8
	c7.6-6.2,9.7-14.7,11.9-23.2c0.4-1.4,2.2-3.1,3.6-3.6c8.3-2.5,16.1-1.4,23,4.3C525.6,393.8,526.7,397.5,524.3,401.4z M495.7,462
	c-3.3,3.5-10.1,5.7-13.1,3.8c-1-0.7-1.6-2.4-1.8-3.7c-0.6-6.6-4.4-11.5-8.7-15.8c-1.8-1.8-5.1-2.3-7.4-3.3c-2.1-2.9-5-5.6-6.2-9
	c-1.5-4.2-1.8-8.8-2.4-13.3c-0.1-0.9,1-2.1,1.8-2.8c4.4-3.5,16.2-3.6,20.7-0.2c2.5,1.9,5.4,3.6,7.2,6.1c1.9,2.7,3.8,6.1,3.9,9.2
	c0.1,6.9,1.4,13.1,6.2,18.4C499,454.8,499,458.4,495.7,462z M491.6,381.2c-1.3,5.3-2.5,10.6-3.8,15.9c-1.8,7-6.1,10.2-12.6,9.4
	c-4.9-0.6-5.9-2.2-3.8-6.5c0.8-1.6,2.1-2.9,3.2-4.4c1.3-1.7,2.5-3.3,3.4-5.3c-5,3.1-10,6.1-10.9,12.8c-0.5,3.5-2.9,5.5-6.8,5.7
	c-4.2-9.2,1.1-18.2,0.9-27.3c-7.9,7.4-5.4,17.2-6.1,26.9c-2.4-5.1-4.7-9.1-6-13.3c-0.8-2.5-0.5-5.4-0.2-8.1
	c0.8-5.9,2.3-11.6,2.9-17.5c0.3-2.8,1.3-3.7,3.9-3.8c4.7-0.1,9.3-0.3,14-0.9c6.3-0.8,11.8,1.1,17,4.4
	C491.5,372.3,492.9,375.7,491.6,381.2z M414,395.6c-0.6-0.1-1.2-0.1-1.8-0.2c-1.2-2.1-2.4-4.2-3.6-6.3c-0.3,0-0.6,0.1-0.9,0.1
	c0.3,2.8,0.6,5.6,0.9,8.4c-0.4,0.2-0.9,0.4-1.3,0.6c-1.4-2.7-2.5-5.5-4.1-8.1c-1-1.6-2.5-2.7-3.8-4.1c-1.1,1.4-2.7,2.7-3.1,4.2
	c-0.8,3.1,1.7,3.4,3.9,3.7c0.5,0.1,0.9,0.3,2.2,0.8c-1.7,9.8-10.2,4.4-15.8,7.6c2.3,1.3,4.2,2.3,6.4,3.4c0.1,0.6,0.5,1.6,0.4,2.5
	c-0.2,1.3-0.7,2.6-1.1,4c-1.3-0.5-2.9-0.7-3.9-1.6c-4.9-4.7-9.8-9.4-14.2-14.5c-1.1-1.2-1.5-4-1-5.7c2.3-6.5,15.3-13.7,22.1-13.1
	c2.7,0.2,5.6-0.5,8.2-1.3c8.4-2.6,12.5,0.1,12.5,8.8C416.1,388.4,414.7,392,414,395.6z M393.5,420.3c0.8-0.8,2.5-1.2,3.6-0.9
	c6.3,1.2,12.7,2.4,18.9,4.1c2.2,0.6,4.6,2.3,5.7,4.2c2.6,4.5,0.6,7-4.5,7.7c-2.4,0.3-5,2.1-6.7,3.9c-5.5,6.2-10.3,13-15.9,19
	c-2.6,2.8-6.3,0.4-7.7-1.9c-2.5-4.2-3.8-9-5-12.1C383.3,433.8,387.5,426.5,393.5,420.3z M406.5,476.7c0.4,0.2,0.6,1.2,0.5,1.7
	c-1,6.5,1.9,10.5,8,12.4c0.6,0.2,1,0.8,1.5,1.1c-2.6,4.7-5.7,5.7-10,3.6c-4.1-2.1-9.5-4.5-8.4-9.3c1.3-6-1.6-11.3-0.7-16.8
	c0.4-2.2,2.4-4.2,3.7-6.3c0.5,0.2,1,0.5,1.5,0.7C402,468.7,401.3,473.7,406.5,476.7z M412.7,471.8c-0.2,0.3-0.4,0.7-0.6,1
	c-2-1.1-5.6-2.1-5.7-3.3c-0.1-2.8,1.5-5.6,2.4-8.4c0.8,0.1,1.6,0.2,2.4,0.4c0,2.3,0,4.6,0,6.9c-0.4,0.1-0.7,0.1-1.1,0.2
	C411,469.6,411.9,470.7,412.7,471.8z M427.6,479.7c-6,2.6-10.7,4.6-15.7,6.7C411.4,479.7,418.1,476.8,427.6,479.7z M418.7,450.3
	c0.7-0.4,1.4-0.7,2-1.1c2.2,4.4,4.4,8.9,6.6,13.3c-0.4,0.2-0.9,0.5-1.3,0.7C423.5,458.9,421.1,454.6,418.7,450.3z M390.2,463.9
	c1.7,1.6,1.7,4.9,2.5,7.4c-0.7,8.4-3.8,15.3-8.7,21.6c-2.5,3.2-4.5,3.3-7,0c-7.6-10.1-7.1-21.5-4.6-32.9c0.8-3.9,4.7-3.4,7.5-2.2
	C383.6,459.5,387.4,461.2,390.2,463.9z M374.3,523.4c0.3,0.9,1.7,2.3,2.5,2.2c6-0.6,5.5,3.2,5.2,7.1c-0.2,3,0,6.1,0,9.1
	c0.9,0.5,1.8,1,2.7,1.4c1.2-1.8,2.5-3.7,3.8-5.6c0.3,0.7,0.5,1.4,1,2.6c0.3-0.3,0.6-0.6,0.9-1c0.9-0.9,1.7-1.8,2.5-2.6c0,0,0,0,0,0
	c0,0,0,0,0,0c4.2,3.1,6.2,5.8,5.9,9.2c-0.1,1.6-0.7,3.3-1.8,5.3c-2.7,5-7,9.1-10.8,13.4c-0.9,1-2.6,1.5-4,1.7
	c-8.3,1.2-21.5-8.6-21.5-16.9c0-7.7,1.5-15.5,3.1-23.1c1-4.5,4.3-7.7,9.8-8.2C373.8,519.9,373.7,521.8,374.3,523.4z M398.5,528.9
	c-1.8-2-4.5-3.3-6.9-4.8c-9.4-5.9-11.3-14.5-5.3-23.6c1.7-2.6,3.6-5.1,5.7-8c6.1,7.5,11.6,14.6,22.7,11.9
	c0.2,8.6,6.5,12.2,12.2,16.2c4.1,2.9,3.4,7.4,2.8,11.4c-0.6,3.9-3.8,4.8-7.4,5.2C413,538.3,405,536.2,398.5,528.9z M411.4,546.4
	c-0.8,5-1.4,8.8-2.1,13.2c6.3-3.9,7.5-13.8,17.9-13.9c0,0,0.7-1.1,2.2-3.2c1.1,2.2,2.2,3.6,2.4,5.1c0.8,8.8-0.8,17.1-5.4,24.8
	c-4.2,7-11.4,9.4-18.5,11.5c-1.6,0.5-5.2-1.6-6.2-3.4C397.4,572.9,402.7,552.9,411.4,546.4z M428.8,510.7c-3-0.6-6.5-4.9-7.5-8.2
	c-0.8-2.5,2-6,3.1-9.1c0.4,0.1,0.8,0.3,1.2,0.4c1,2.3,2,4.7,3.2,7.7c1.7-1.9,2.9-3.2,4-4.4c10.7,2,10.7,2,10.3-8.7
	c2.2,3.4,3.9,6.1,5.6,8.8c0.6-0.2,1.2-0.4,1.8-0.6c-0.8-3.4-1.6-6.8-2.3-10c2.8,1.2,6,3.7,9,3.5c2.2-0.2,4.5-3.7,6.1-6.1
	c3.2-5.1,1.9-9.6-3.2-12.9c1.7-1.5,3.4-3.1,5.1-4.6c-0.4-0.6-0.7-1.1-1.1-1.7c-4.9,1.9-9.9,3.8-14.8,5.7c-0.3-0.4-0.5-0.8-0.8-1.2
	c4.8-2.9,9.6-5.9,15.1-9.3c-2.4-1-3.8-1.6-5.2-2.2c-0.9-10.2-1.6-10.5-12.4-6.1c-0.1-2.4-0.2-4.7-0.3-7c-0.5-0.1-0.9-0.2-1.4-0.3
	c-1.2,4.6-2.5,9.2-4,14.8c-0.4-5.3-0.6-9.6-0.9-13.8c-0.7,0-1.5-0.1-2.2-0.1c-0.5,4.7-1.1,9.4-1.6,14c-1.9-3.2-0.2-8.7-4.9-10.4
	c-0.5,0.3-1,0.6-1.4,0.9c1,4.1,1.9,8.2,2.9,12.2c-0.5,0.1-0.9,0.3-1.4,0.4c-1.7-4.2-3.1-8.5-5.1-12.5c-2.4-4.8-5.6-5.1-8.8-1.1
	c-0.8,1-1.1,3-0.8,4.4c0.5,2.2,1.6,4.3,2.6,6.9c-4.9-0.3-8.8-7.6-13.6-1.1c-1.4-4.5,0.5-7.8,4.4-8.6c1.3-0.3,2.7-1.2,3.6-2.3
	c1.6-1.7,2.6-3.9,4.1-5.6c3.4-3.6,8.1-3.4,11.5,0.1c1.2,1.3,2.4,2.6,3.8,4.1c0.7-0.8,1.2-1.3,1.5-1.8c2.2-3.3,2.8-8,9.2-5.8
	c3.8,1.3,8.2,0.9,11,4.7c0.9,1.2,2.1,2.5,3.4,2.9c6.9,1.9,10.6,6.5,13.4,13c1.7,3.9,2.4,6.8,0.4,10.6c-0.9,1.6-1.3,3.9-0.8,5.6
	c1.7,6.2-0.6,10.7-5.7,13.5c-3.9,2.1-5.1,5.2-5.7,9.1c-1.1,7-4.6,9.1-11,6.8C443.1,512,435.7,512,428.8,510.7z M445.7,464.8
	c2.3-4.1,4.7-8.1,7-12.2c0.7,0.4,1.3,0.7,2,1.1c2.3,7.1-4.9,8.1-7.6,11.9C446.6,465.4,446.2,465.1,445.7,464.8z M439.1,549.4
	c1.3,2.2,2.6,4.5,4.6,7.9c0.6-3.8,1.1-6.4,1.7-10.1c3.7,2.1,7,4,10.3,5.9c0.4-0.4,0.9-1,1.5-1.7c0.8,1.3,1.6,2.5,2.5,3.9
	c1.2-2.9,2.2-5.5,3.2-8c0.5,0.1,0.9,0.2,1.4,0.2c0.7,2.5,1.4,5.1,2.6,9c1.1-3.6,1.8-5.8,2.8-8.8c4.6,6.4,9,12.5,13.3,18.5
	c0.2-0.1,0.4-0.2,0.6-0.3c-3.5-7.1-6.9-14.2-10.4-21.3c0.5-0.3,1-0.6,1.5-0.9c1.3,1.1,2.5,2.1,4.4,3.7c-0.6-2.8-1.1-4.8-1.6-7.3
	c3,2.4,5.7,4.5,8.3,6.6c0.5-0.5,0.9-0.9,1.4-1.4c-1.1-2.7-2.4-5.4-3.2-8.2c-0.6-2-1.1-4.3-0.6-6.2c1.3-4.5,4.5-5.2,7.1-1.5
	c4.4,6.2,8.7,12.6,11.8,19.5c3.2,7,1.9,12.6-4.8,16.5c-9.8,5.7-20.2,10.6-30.9,14.7c-6.2,2.4-12.7,0.1-16.8-5.7
	c-3.7-5.1-7.1-10.4-10.1-15.9c-1.3-2.5-1.4-5.6-2.1-8.5C438.1,549.6,438.6,549.5,439.1,549.4z M495.9,577.1c3.4-4.1,7.1-7.9,11-11.5
	c0.8-0.7,3.4-0.6,4.2,0.1c1.6,1.5,2.7,3.7,3.4,4.9c-4.4,7.7-8.4,14.9-12.6,22.4c-2.3-3.3-5.2-6.6-7.1-10.3
	C494.1,581.3,494.8,578.4,495.9,577.1z M507.9,538.6c-5.4-5.4-11.1-10.5-16.7-15.7c-1.9-1.8-5.5-2.8-2.8-6.6c2.6-3.7,7-4.8,10.4-2.5
	c2,1.3,3.8,2.8,6.6,3.6c-1.5-2.9-3-5.9-5.1-9.9c4.5,0,8.2-0.8,11.2,0.2c2.9,1,5,4,7.5,6.1c0.5-0.5,1-1.1,1.6-1.6
	c-2.7-2.8-5.4-5.7-8.2-8.3c-5.7-5.3-7.5-12.2-4.9-19.5c0.3-0.7,0.8-1.4,2-3.3c7.6,8.4,15,16.1,21.7,24.4c1.3,1.6,0.7,6.2-0.7,8.1
	c-4.4,5.9-7.5,12.1-8.5,19.4c-0.1,0.8-0.4,1.6-0.7,2.4C518.3,544.2,514.4,545.1,507.9,538.6z M519.6,551.3c2.3-4.7,4.6-9.5,7.2-14
	c1.1-1.8,3-3.1,4.5-4.7c1.3,1.3,3,2.5,3.8,4.1c3.6,7.4,6.9,15,10.4,22.6c-6.9,1.8-12.9,3.4-19,4.8c-0.8,0.2-2.4-0.4-2.9-1.1
	c-1.7-2.4-3.4-5-4.6-7.7C518.6,554.3,519,552.5,519.6,551.3z M523.7,487.6c-6.5-6.4-12.2-13.5-20.1-18.5c-0.7-0.5-1.1-1.5-1.7-2.3
	c5.5-3.8,10.7-3.6,17.3,0.8c-1,1.3-2.1,2.5-3.1,3.7c0.1,0.2,0.2,0.4,0.3,0.7c4.1-1.8,8.3-3.6,13.6-6c-4.9-1.5-9.1-2.8-13.3-4.1
	c-0.1-0.5-0.3-0.9-0.4-1.4c2.9-1.2,5.8-2.5,8.8-3.4c6.5-1.9,13-3.7,19.6-5.3c1.6-0.4,4-0.1,5.1,0.8c6.3,5.6,7.3,10.8,4.3,18.7
	c-1.1,2.9-2.1,6-3.1,8.9C546.9,493,533.2,497.1,523.7,487.6z M425.2,295c0.5,0.4,1.1,0.8,1.6,1.2c-4.9,6.5-9.8,13.1-14.6,19.6
	c-0.5-0.4-1.1-0.8-1.6-1.2C415.4,308,420.3,301.5,425.2,295z M429.4,261.1c-7.4,13.1-17.7,23.8-29.9,32.4c-9,6.3-18.9,3.3-22.1-7
	c-3.2-10.3-5-21-7.1-31.6c-0.3-1.7,0.7-4.3,2-5.7c7.5-8,15-15.9,23-23.3c2-1.9,5.7-2.1,8.4-3.1c6.4,1.4,12.4,2.1,18,4.1
	c2.8,1,5.7,3.8,7.1,6.5C433.5,242.4,434.6,251.9,429.4,261.1z M354.8,144.4c-0.9,1.7-2.3,3.3-2.6,5.1c-0.8,4.8-1.1,9.8-1.7,14.7
	c-0.6,0.1-1.2,0.1-1.8,0.2c-1.5-6.7-3.5-13.4-4.2-20.2c-0.4-3.6,3.6-4.8,6.9-5c4.4-0.3,7.4,1.6,8.6,5.9c1.6,5.8-1.4,10.2-4.7,15.5
	c0.6-4.2,1.3-7.4,1.3-10.6C356.6,148.1,355.4,146.3,354.8,144.4z M353.2,238.9c0.3,1-0.5,2.9-1.4,3.6c-3.6,2.7-11.2,2.2-14.5-0.9
	c-1-0.9-1.9-2.7-1.7-3.8c1.9-9.4,4-18.7,6.4-29.5c1.7,2.5,3.6,4.4,4.3,6.6C348.9,222.9,351.1,230.9,353.2,238.9z M352.8,220.4
	c3.4,3.9,6.5,7.4,9.5,10.9c0.6-0.4,1.1-0.8,1.7-1.2c-3.7-6.3-7.3-12.7-11-19c0.4-0.3,0.9-0.6,1.3-0.8c5.1,6,10.2,12.1,15.6,18.5
	c2.1-3.8,0.5-5.7-1.5-7.9c-3.2-3.6-6.3-7.2-8.9-11.2c-0.1-0.2-0.2-0.3-0.3-0.5c-1.4-2.5-0.5-4.3,3.2-3.7c0,0-0.1-0.1-0.1-0.1
	c0.1,0,0.2,0,0.3,0c0.9-0.9,1.8-2.3,2.7-2.8c0.1-0.1,0.3-0.1,0.4-0.1c8.7-1.2,17.5-2,26.2-2.9c1.8-0.2,3.6-0.6,5.3-1.5
	c-7-4-14.3-2.3-21.7-2.6c2.9-1,5.9-1.7,8.5-3.2c1.2-0.7,1.5-2.9,2.2-4.4c-1.5-0.3-3.3-1.2-4.5-0.7c-5.3,2.2-10.4,4.9-15.5,7.4
	c-0.2-0.4-0.5-0.9-0.7-1.3c9-5.1,18-10.2,27-15.3c-0.3-0.6-0.6-1.1-0.9-1.7c-9.1,0.4-15.6,7.5-24.4,9.6c0.9-1,1.7-2,2.7-2.9
	c5-4.6,10.1-9.2,15.1-13.8c4.7-4.3,10.2-3.5,14.9,2.2c4.5,5.5,4,9.8-1.9,13.8c-2.2,1.5-4.5,2.8-6.8,4.2c1.8,1.1,3.5,2.1,5.1,3.2
	c5.3,3.8,7.1,8.5,4.3,14.9c-2.4,5.4-5.9,10.3-9.5,15.1c-1.1,1.5-4.4,2.9-5.9,2.3c-1.9-0.8-2.9-3.6-5.1-6.7c3.6,0.4,5.5,0.6,8.1,0.9
	c-4.3-8.8-14-6.4-19.8-11.3c8.7-0.7,17.1-1.4,25.5-2c0-0.7-0.1-1.3-0.1-2c-10.5-1.7-20.9,1.3-31.3,1.6c0,0-0.1,0.1-0.1,0.1
	c0,0,0,0,0,0c0,0,0,0,0,0c2.7,2.5,5.4,4.9,8,7.4c2.4,2.3,5.1,4.3,7,6.9c4.6,6.5,2.9,13.2-3.9,17.3c-1.4,0.8-2.9,1.6-4.5,2
	c-8.2,2.5-9.4,1.8-12.2-6.5C355.5,228.6,354.2,224.7,352.8,220.4z M377.9,152.2c-1.1,0.9-2.9,1.6-3.3,2.7c-1.4,4.3-2.4,8.7-3.6,13.5
	c-4.8-2.4-7.7-4.8-6.2-10c0.7-2.5,0.7-5.3,1.3-7.8c1.4-6.2,4.8-8.8,9.5-7.7c5.6,1.3,9.6,6.9,8.7,12.1c-1,5.5-4.3,9.5-9.5,13.7
	c1.7-5.1,3.1-8.9,4.1-12.9C379.3,154.8,378.3,153.4,377.9,152.2z M453.4,193c4.5,1.7,5.4,6.7,4.5,11.2c-2.3,11.1-7.7,20.8-14.9,29.4
	c-3,3.6-6.4,3.5-8-0.1c-5.5-13.1-16.1-16.7-29-16.4c-0.7,0-1.3-0.1-1.8-0.2c0.8-7,1.4-13.8,2.6-20.4c0.4-1.9,2.4-4.3,4.3-5
	C425.3,186.3,439.6,187.9,453.4,193z M401.7,121.5c6.8-3.8,12.4-3.2,17.6,2.5c10.4,11.3,17.3,24.9,21.5,39.5
	c2.3,8.1-1.4,13.5-9.4,15.8c-7.6,2.2-15.3,4.3-23.7,6.6c3-14.3-2.7-24.3-12.2-32.7c-3.4-3-6.8-5.9-9.8-9.2c-0.9-1-1.5-3.5-0.9-4.6
	C388.9,132.1,394.2,125.7,401.7,121.5z M340.8,98.5c8.3-8.7,17.8-7.1,27.6-4.4c4.1,1.1,8.2,2.7,12.3,3.6
	c11.3,2.4,16.1,14.1,9.4,23.4c-3.7,5.1-7.3,10.3-11.2,15.2c-0.9,1.1-3.2,1.8-4.5,1.5c-11.9-2.7-23.8-4.8-36-2.5
	c-3.7,0.7-4.9-1.1-5.2-4.1c-0.3-3-0.5-6-0.6-8.2C332.8,113.5,334.2,105.4,340.8,98.5z M329.6,139.9c5.5,6.7,10.3,14.1,14.9,21.6
	c1.2,1.9,0.4,4.9,0.6,7.4c-0.7,0-1.4,0-2.1,0.1c-5.3-8.2-10.5-16.5-18.2-22.8c-0.5,0.4-1,0.7-1.5,1.1c5.9,9,11.8,18,17.8,27.1
	c-0.5,0.4-1.1,0.8-1.6,1.1c-6.4-7.4-8.7-19-19.9-21.4c-0.4,0.4-0.7,0.7-1.1,1.1c0.9,1,1.9,1.9,2.7,2.9c4.7,6,9.3,12,13.8,18.2
	c0.3,0.4,0.3,1,0.2,1.6c0,0.3-0.1,0.6-0.1,1c0,0.2,0,0.3-0.1,0.5c0,0.2,0,0.3,0,0.5h0l0,0c-0.1,0-0.3,0-0.5-0.1
	c-0.3,0-0.7-0.1-1-0.1c-0.8-0.1-1.6-0.1-2.1-0.6c-6-6-12.1-11.8-17.5-18.4c-5.8-7.2-2.2-19.4,6.6-22.3
	C323.3,137.5,328.1,138.1,329.6,139.9z M332.5,210.8c0.3,0.3,0.6,0.6,0.8,0.9c-3.5,4.7-7,9.3-10.5,14c0.5,0.6,1,1.1,1.5,1.7
	c3-1.5,5.9-3,8.9-4.4c0.9,6.5-2.8,11.8-9.4,13.1c-7.5,1.5-13.4-1.7-14.2-8.7c-0.5-4.5-2.6-6-6.1-8.2c-3.5-2.3-6.4-6.3-8.3-10.2
	c-1.9-3.8-0.7-7.9,2.8-10.8c3.2-2.7,6.8-3.9,11-1.9c-2.4,2.6-4.5,4.9-6.7,7.3c0.4,0.5,0.8,1,1.1,1.5c8.6-2.2,15.8-9.8,25.3-8
	c-8.6,5.3-17.3,10.6-26.2,16.1c2.4,3.7,4.8,2.1,7,0.9c5.1-2.8,10.1-5.9,15.2-8.5c2.5-1.3,5.4-1.9,8.1-2.8c0.2,0.5,0.4,1,0.6,1.5
	c-4.2,5.1-14.3,4.4-14.6,15C324.2,216.2,328.3,213.5,332.5,210.8z M327.9,185.5c-0.1,0.2-0.1,0.4-0.2,0.7
	c-10.7-2.5-21.4-4.9-32.1-7.4c-0.3,0.7-0.6,1.3-0.9,2c2.5,1.4,4.9,3.3,7.6,4.1c6.5,1.9,13.2,3.2,19.8,4.8c0.9,0.2,1.8,0.6,2.6,0.9
	c-0.1,0.4-0.1,0.9-0.2,1.3c-7.2-1-14.5-2-21.7-3c-0.5-0.1-0.9-0.3-1.4-0.4c-5.6-1.1-12.3-1.8-13.2-8.5c-1.1-8,0.5-16.1,7.6-21.6
	c2.6-2,5.4-2.6,8.1,0.1c7.6,7.6,15.1,15.3,22.2,22.5c-9.8-1-18.3-9.8-29.4-9.7c-0.3,0.8-0.6,1.6-0.9,2.4
	C306.6,177.5,317.2,181.5,327.9,185.5z M267.4,162.6c-8.1-5.9-10.8-12.1-7.9-21.6c5.7-18.8,17-33.5,35-42c5.4-2.5,12.2-2.4,18.4-2.5
	c4.6-0.1,7,3.8,8.1,7.7c2.5,9.1,4.6,18.2,7,28c-10.8-0.1-18.1,3.7-22,13c-0.4,0.9-1.9,1.9-3,1.9c-9.3,0.3-13.8,6.4-16.9,14
	c-3.7,8.9-5.4,9.6-14.2,4.5C270.4,164.7,268.8,163.7,267.4,162.6z M262.2,233c-8.7-9.2-12.5-20.6-13.4-33
	c-0.4-9.2,1.7-14.2,13.1-18.7c5.3-2.1,11.2-2.9,16.9-4.1c3-0.6,5,0.6,5.6,4c1.4,7.6,3,15.3,4.9,22.8c1.2,4.8,3.3,9.4,4.7,14.1
	c0.4,1.4,0.7,3.6,0,4.3c-4.9,4.5-9.8,9.1-15.3,12.7C272.5,239.3,267.3,238.5,262.2,233z M319.1,284.1c-2.9-2.7-5.1-6.2-7.6-9.3
	c-4.5-5.5-9.8-7.9-17.1-5.4c-6.3,2.1-10.4,0.3-14.2-5c-3.5-4.9-4.2-10.1-0.5-14.8c5.3-6.8,11.1-13.2,16.9-19.7
	c2.5-2.8,5.1-2.3,6.8,1c5.1,9.4,12.8,13.8,23.6,13.9c3,0,6.2,2.2,8.9,4c5.4,3.9,10.7,4.6,16.8,1.3c2.4-1.3,5.6-1.3,8.4-2
	c0.5,3.3,1.9,6.8,1.5,9.9c-2.3,15.4-19.3,31.4-32.6,31.3c-0.3,0.4-0.6,0.8-0.8,1.2C325.5,288.5,321.9,286.7,319.1,284.1z
	 M365.6,305.9c-2.2-1.1-3.8-1.9-5.8-2.8c-0.1,1.7-0.1,3-0.2,4.3c-14.4,4.4-30.3,1.6-32.2-9.8c17.4-2,29-12.8,39-28
	C368.7,282.8,369.2,294.1,365.6,305.9z M368.3,310.5c2.4-5.3,4.8-10.4,7.3-16.1c9.3,14.9,20.7,11.2,32.7,2.6
	c-7.9,9.5-11.1,20.3-12.7,31.8c-1.1,7.6-2.1,15.1-3.5,22.6c-0.5,2.8-1.7,5.5-2.7,8.2c-6.1-11.6-0.9-23.7-5.2-35.3
	c-1.2,3.5-2.4,7-3.9,11.4C375.9,326.6,371.9,318.2,368.3,310.5z M363.9,348.5c10.4,0.7,20.1,11,19,19.6c-0.3,2.5-3.6,4.6-5.5,6.9
	c-0.6-0.1-1.3-0.3-1.9-0.4C371.7,366.1,367.9,357.6,363.9,348.5z M330.7,455.9c2.5,1.5,4,2.3,6.4,3.7c-2.8,1.3-4.8,2.3-8,3.8
	C329.8,460.5,330.2,458.7,330.7,455.9z M328.5,476.7c0.8-5.6,4.9-7.6,9.7-8.6c5.5-1.2,11.1-2.2,16.6-3.4c1.4-0.3,2.7-1.1,3.9-2.9
	c-2.2-0.5-4.5-0.7-6.5-1.5c-5.3-2.2-10.9-4.2-15.6-7.4c-5.6-3.7-6.2-9.5-2.4-15.3c0.7-1.1,1.4-2.4,2.4-3.2
	c9.4-6.7,10.2-16.9,11.5-27c0.4-3,0.6-6,1.2-8.9c0.9-4.6,3.6-6.2,7.5-3.6c9.8,6.5,19.4,13.4,29.2,20.2c-4.6,10.5-15.2,12.7-22.5,19
	c2.7,4.6,2.7,4.6,10.3,2c1.6,5-1.3,8.3-6.8,8.1c-6.5-0.2-13,0-19.7,0.6c4.4,1.6,8.8,3.1,13.2,4.7c-0.1,0.4-0.2,0.9-0.3,1.3
	c-1.6,0.3-3.3,0.5-6.4,1c2.7,1.7,4.2,2.8,5.8,3.7c5.3,3.3,6.5,10.2,2.6,15.1c-0.4,0.5-1.3,1-1.3,1.4c-0.2,8.6-7.5,8.8-13,11.1
	c-0.5,0.2-1,0.5-1.6,0.8c0.4,0.4,0.5,0.6,0.6,0.6c5.7-2.7,10.6,1.3,15.9,1.9c4.4,0.5,4.7,3.8,4.1,7.1c-0.9,4.2-2.2,7.9,4.4,8.4
	c2.7,0.2,2.9,8.2,0.3,10.3c-4.1,3.3-8.3,6.4-13.3,10.2c-4.1-7.3-8.2-14.8-12.3-22.3c-2.3-4.2-4.4-8.2-9.6-10
	C330.9,488.3,327.8,481.8,328.5,476.7z M244.9,531.1c1.3,0.4,2.8,0.6,4,1.3c11,6.6,23.4,8,35.8,9.4c5.6,0.6,11.1,1.8,16.7,2.9
	c1.2,0.2,2.2,1.2,3.7,2C290.1,550.7,255.6,546,244.9,531.1z M321.7,435.4c-4.7,23.9-9.1,46.5-13.5,69.1
	C303.3,495.9,312.6,444.6,321.7,435.4z M495.1,706.3c-36.1-17.8-72.2-24.9-108.4,0.3c-0.2-0.6-0.4-1.3-0.5-1.9
	c1.3-1.1,2.4-2.5,3.8-3.4c7.2-4.5,14-10.3,21.8-13c8.3-2.8,17.6-3.9,26.4-3.6c14.8,0.5,29.4,3.1,42.8,10c5.3,2.7,10.1,6.2,15.2,9.4
	C495.8,704.9,495.5,705.6,495.1,706.3z M554.8,743.5c-1.7-2-3.6-3.8-5.2-5.9c-14.8-20.5-30.5-40.4-48.8-58
	c-21.8-21-46.3-38.6-71.6-55c-29.9-19.4-57.6-41.3-83.1-66.1c-8.6-8.4-17.5-16.4-26.4-24.5c-3.2-2.9-4.5-6.2-4.2-10.6
	c0.8-12.5,4.8-24,9.8-36.1c7.8,7.6,16.6,12.9,19.9,23.4c1.1,3.6,4.4,6.5,6.9,9.7c3,3.9,4.2,8,3.5,13c-0.8,5.9-0.9,12-0.6,17.9
	c0.5,11.3,15.4,23.8,26.5,22c3.7-0.6,7.1-3.2,10.7-4.9c1.2,4.2,2.1,8.5,3.7,12.6c3.6,9,9.2,11.2,18.2,8.2c9-3,16.8-7.3,20.7-16.6
	c0.4-0.9,1.2-1.5,2.5-3.1c2.6,2.9,5.2,5.3,7.3,8.1c7.4,10,16.4,14,28.8,9.5c2.3-0.8,6.3,0.6,8.3,2.3c3.2,2.7,5.4,6.6,7.7,10.6
	c-15.6-2.8-28.9-0.1-38.1,13.1c-3.3,4.7-5.7,10.2-3,16.7c2.7-2.7,5-5.3,7.6-7.4c16.5-13.5,44.3-9.5,56.2,8.1
	c19.1,28.3,30.9,59.9,39.9,92.6c1.7,6.3,3,12.8,4.6,19.2C555.9,742.8,555.4,743.1,554.8,743.5z M571.2,761.1c-0.6,0-1.3,0-1.9,0
	c-0.8-2.4-1.7-4.8-2.2-7.3c-8.7-43.6-21-85.8-43.1-124.7c-1.6-2.9-3.4-5.7-5.2-8.5c-6.4-9.6-5.9-19.8-2.3-30.1
	c0.8-2.3,3.5-4,5.4-5.9c1.6,1.7,3.8,3.2,4.9,5.2c12.3,22.9,21.6,47.2,29.2,72c5.8,19.2,11.5,38.6,15.4,58.2
	c2.4,11.7,1.3,24.2,1.6,36.3C572.9,757.9,571.8,759.5,571.2,761.1z M575.3,681.3c-0.4,0.1-0.8,0.2-1.2,0.3c-0.7-1.7-1.5-3.4-2.1-5.2
	c-10.5-32.8-22.6-65-38.1-95.9c-2.3-4.6-1.4-6.5,3.4-8.5c1.7-0.7,3.5-1.2,5.3-1.6c4.6-0.8,7.8,0.6,9.1,5.4
	c5.8,21.8,12,43.6,17.3,65.5c2.9,11.9,4.3,24.2,6.3,36.3C575.4,678.9,575.3,680.1,575.3,681.3z M601,577.5
	c-1.2,17.9-2.1,35.9-3.4,53.9c-1.4,20.6-3,41.2-4.6,61.8c-0.5,6.5-1.4,12.9-2.2,19.3c-0.1,1-0.8,2-2.4,3.1c-0.5-1.9-1.3-3.9-1.4-5.8
	c-1.9-39.1-8-77.5-19.3-114.9c-6.6-22-16.5-43.1-24.3-64.8c-2.7-7.5-3.7-15.7-5.3-23.6c-1.6-7.8-1.6-7.9,6.1-9.8
	c4.5-1.1,7.8-3.6,9.7-7.8c1.3-2.8,2.5-5.7,3.8-8.6c0.5-0.1,1-0.3,1.6-0.4c4.8,9.1,9.8,18.1,14.4,27.2c2.1,4.1,3.9,8.5,5.2,12.9
	c0.6,2-0.1,4.5-0.3,6.8c-0.7,0.1-1.4,0.3-2.1,0.4c6.9,12.5,13.6,25.1,20.9,37.4C600,568.6,601.3,572.6,601,577.5z M599.6,503.3
	c-0.5,0.1-1,0.1-1.5,0.2c-2.4-9.4-4.8-18.8-7.1-28.3c-7.9-33-15.8-66-32.2-96.1c-7.6-14-16.6-27.2-25-40.8c-0.9-1.5-1.9-3-2.9-4.4
	c0.4-0.3,0.7-0.6,1.1-0.8c5.5,6.5,11.4,12.7,16.4,19.6c24.9,34,39.5,72.4,48.7,113.2c1.7,7.6,3.1,15.3,5.1,22.9
	C603.5,494.1,601.8,498.7,599.6,503.3z M853.1,571.1c-1.4-15.3-7-28.6-15.1-41.2c11.9-0.9,23.3-1.7,34.4-2.5
	C871.8,544,869.5,560.1,853.1,571.1z M831.2,465.1c8-3.2,15.9-6.6,23.6-10.5c3.4-1.8,4.8-0.9,5.9,2.2c1.2,3.6,0.8,6.7-2,9.6
	c-5.2,5.5-11.9,6.5-18.7,6.6c-8.8,0.1-17.5-0.6-26.3-0.9c-0.1-0.4-0.1-0.8-0.2-1.2C819.4,469,825.5,467.4,831.2,465.1z M836.8,480.5
	c0,0.6-0.1,1.2-0.1,1.8c-5.7-0.8-11.5-1.7-17.2-2.5c0-0.2,0-0.4,0-0.6C825.3,479.6,831,480.1,836.8,480.5z M794.8,480.7
	c16.8,4.8,33.6,9.5,49.8,15.8c9.4,3.7,17.6,10.4,26.1,16.1c2.2,1.5,3.7,4.2,6.3,7.2c-15.9,4.1-30.8,6.4-45.8,2.2
	c-23.6-6.6-43.6-20-63.1-34.4c-0.6-0.5-1-1.3-1.6-2.1C775.2,478.3,785,477.9,794.8,480.7z M787.8,445.9c-4.7,6.1-18.9,15-28,17.2
	c0.6-1.9,0.8-3.2,1.4-4.3c7.2-14.3,14.4-28.5,21.6-42.8c0.8-1.6,1.9-3.1,2.8-4.7c3.9-6.5,9.4-9.7,17.1-8.2c5.5,1,11,1.9,15.3,2.6
	C808,419.2,797.9,432.6,787.8,445.9z M821.3,360.7c4.5-0.4,7.8,1,10,4.9c4,7.2,7.4,14.5,2.3,22.5c-5.2,8.1-12.8,11.4-22.3,10.1
	c-4.9-0.7-9.7-2.1-16.2-3.5c7.2-8.8,13.4-16.4,19.7-24.1c-0.6-0.6-1.2-1.2-1.7-1.8c-1.9,1.3-3.9,2.4-5.7,3.8
	c-14,11.2-22.7,26.3-31.1,41.7c-5.7,10.5-11.4,21.1-17.1,31.6c-0.9,1.7-2,3.4-4,4.9c0-1.5-0.3-3.1,0-4.5c4.7-18.5,8.6-37.3,18.7-54
	C784.6,374.3,799.7,362.7,821.3,360.7z M748,360.5c1.4-12.9,13.8-21.8,26.6-19.2c7.3,1.5,12,9.6,10.1,18c-0.6,2.7-1.6,5.5-3.2,7.8
	c-14.9,20.9-23.8,44.4-29.5,69.2c-0.6,2.5-1.5,5-2.3,7.5c-0.4,0-0.9-0.1-1.3-0.1c-0.1-1.9-0.3-3.8-0.3-5.8
	c-0.2-22-0.5-43.9-0.6-65.9C747.5,368.2,747.6,364.3,748,360.5z M714.3,325.1c6.4-9.1,13.8-9.7,19.6-0.2c3.8,6.1,6.2,13.7,7,20.9
	c1.4,13,1.2,26.2,1.5,39.4c0.4,20.8,0.6,41.6,0.9,62.4c0,2.1,0,4.3,0,6.4c-0.5,0.1-1.1,0.3-1.6,0.4c-1.2-2.6-2.7-5.1-3.6-7.9
	c-9.6-29.2-19.3-58.3-28.5-87.6C705.9,347.2,706.9,335.5,714.3,325.1z M661.8,328.4c3.6-6.9,5.6-7.1,12.7-4.1
	c14.4,5.9,22.9,16.6,27.8,31.3c9.4,28.6,19.6,56.9,29.3,85.3c1.5,4.3,2.1,8.9,3.1,13.4c-0.8,0.3-1.6,0.5-2.5,0.8
	c-1.7-2.3-3.5-4.7-5.2-7c-15.3-21-30.5-42-46-62.8c-4.3-5.7-9.3-10.9-14.3-16C655,357.3,654.5,342.5,661.8,328.4z M668.1,378.3
	c11.2,13.8,21.8,28.1,32.4,42.4c7.7,10.4,15,21.2,22.5,31.8c0.9,1.3,1.7,2.7,2.6,4c-0.5,0.4-0.9,0.9-1.4,1.3
	c-16.3-12.8-33-25.1-48.9-38.4c-14-11.7-25.4-25.9-33-42.7c-2.3-5-3.6-10.5-5.7-16.9C650.4,362.6,660.4,369,668.1,378.3z M634.7,373
	c1.3,2.1,1.9,2.9,2.3,3.8c10.8,26.4,30.2,45.5,52.8,61.9c12.4,9,25,17.7,38.2,27c-1.6,0.1-2.6,0.4-3.6,0.2
	c-21.2-4.9-42.4-9.6-63.5-14.8c-16.2-3.9-28.7-12.4-33.2-29.6C623.3,404.8,628.1,389.5,634.7,373z M631.3,439.1
	c-6.7-1.4-10-8.1-7.8-15.6C626.3,429,628.7,433.9,631.3,439.1z M623.5,217.1c-0.6,0-1.2,0.1-1.8,0.1c-0.5-2.1-1.9-4.6-1.3-6.1
	c1.5-3.2,4.5-3.5,8.1-1C626.6,212.7,625.1,214.9,623.5,217.1z M586.5,180.5c2.4-2.9,6.8-2.3,10.8,1.7c-3.2,2.5-4.4,8.3-9.9,5.2
	C585,186,584.3,183.1,586.5,180.5z M583.2,145.9c0.1-1.3,2.3-3.7,3-3.5c4.9,1,4.9,4.9,4.8,9.2C587.1,150.8,582.7,151.4,583.2,145.9z
	 M597.2,165c0.5-4.3,3.5-2.8,5.6-2.2c3.7,1.1,7.8,2,9.4,7.5c-4,0-7.5-0.1-10.9,0C597.2,170.5,596.8,168.2,597.2,165z M601.6,139.4
	c3.1-2,4.5,0.7,5.6,3c1.9,4.3,3.6,8.6,5.4,13c-0.6,0.5-1.2,1-1.8,1.5c-3.9-3.1-8.2-5.8-11.5-9.4
	C596.7,144.6,598.7,141.2,601.6,139.4z M607.6,200.2c0.4,4.1,1,7.8-3.6,8.7c-1.1,0.2-3.7-2-3.7-3.2
	C599.9,200.7,603.9,201,607.6,200.2z M607.7,185.6c-1.3,0.3-3.1-1.2-4.7-1.8c0-0.7,0.1-1.4,0.1-2.1c4.2-1.3,8.4-2.6,12.6-3.9
	c0.3,0.6,0.7,1.2,1,1.8C614.6,182.9,611.3,184.7,607.7,185.6z M623.3,182.8c1.6,8.4-3.6,17.3-9.8,17.3
	C614.9,193.4,618.7,188.5,623.3,182.8z M627.8,195.5c1.2-4.2,2.2-8,3.4-11.8c0.2-0.5,0.7-0.9,1.3-1.3c0.2-0.2,0.5-0.3,0.7-0.5
	c0.1-0.1,0.2-0.2,0.3-0.2c0.3,0.4,0.6,0.7,0.9,1.1c0.3,0.4,0.6,0.7,0.7,1.2C637.8,190.9,634.6,196.4,627.8,195.5z M645.2,255.2
	c-2.7,1.4-6.2,0.4-6.7-3c-1.4-8.5-1.3-17,1.6-25.3c0.5,0,1.1-0.1,1.6-0.1c2.7,7.5,5.8,14.8,7.9,22.4
	C649.9,250.8,647.2,254.1,645.2,255.2z M654.2,136.9c-2,1.9-5.4,2.4-8.2,3.5c-0.4-0.6-0.9-1.1-1.3-1.7c1.5-2.5,2.7-5.3,4.7-7.3
	c1.1-1.2,3.6-1,5.4-1.5C654.7,132.4,655.5,135.7,654.2,136.9z M665,176.1c1.2,0.5,1.2,3.9,1.7,5.9c-1.6,0-3.5,0.6-4.7-0.1
	c-3.5-1.9-6.7-4.3-10-6.5c0.4-0.8,0.7-1.6,1.1-2.4C657,174,661.2,174.5,665,176.1z M660.2,157.1c1.4-1.5,3.6-2.3,5-3.1
	c2.7,0.7,4.7,0.7,6,1.7c0.7,0.5,0.5,3.7,0.3,3.8c-3.5,0.8-7.2,1.3-10.8,1.9C660.5,159.9,659.6,157.8,660.2,157.1z M648.6,154.8
	c-1.9-6.1-1.2-7.6,3.8-8.7c2-0.4,4.6-1.9,5.1,1.6C658.1,151.2,653.9,154.4,648.6,154.8z M645.9,178.6c1.6,4.7,3.1,9.4,4.2,14.2
	c0.3,1.2-1.5,2.9-2.3,4.3c-0.6-0.1-1.2-0.3-1.8-0.4c-1.2-5.6-2.6-11.2-3.7-16.8c-0.2-0.8,0.9-1.8,1.4-2.7
	C644.4,177.6,645.7,177.9,645.9,178.6z M649.1,206.3c1.5-1.3,3.4-3.9,4.4-3.6c2.1,0.6,3.6,2.8,6.4,5.2c-2.6,2-4.8,4.2-5.2,3.9
	C652.5,210.4,650.9,208.2,649.1,206.3z M660.4,249c-3.1,1.5-5.6-1.1-6.3-4c-1.6-6-2.8-12.2-3.9-18.4c-0.2-1.1,0.9-3.1,1.9-3.6
	c0.9-0.4,3,0.2,3.8,1.1c4.8,5.1,7.9,11.1,8.7,19.7C663.8,245.1,662.6,248,660.4,249z M674.8,239.8c-1.5,1.9-3.8,3.6-5.2-0.2
	c-3.1-8.2-6.1-16.4-9.6-26.1c10.2,3.4,14.8,11.3,21,17.5C678.8,234.2,677,237.2,674.8,239.8z M686.6,222.8c-8.5-4.5-15-11-17.8-20.8
	c8.2,4.1,16.9,7.2,22.5,14.9c1,1.4,0.7,3.8,0.9,5.7C690.3,222.7,688,223.6,686.6,222.8z M704.5,215.5c-0.8,0.8-3,1.2-3.8,0.7
	c-10-6.5-19.8-13.2-29.6-19.9c-0.6-0.4-0.9-1.3-2-2.9c5.3-1.5,9.9-2.6,14.1,0.1c6.1,4,12,8.3,17.8,12.8c1.8,1.4,3.3,3.3,4.4,5.3
	C705.7,212.6,705.3,214.7,704.5,215.5z M672.4,178.8c1-1.9,2.6-3.5,4-5.1c1.1,1.1,2.2,2.3,4.1,4.2c-1.9,1.8-3.1,3.8-4.4,3.8
	C674.8,181.7,672.2,179.1,672.4,178.8z M716.7,197.3c-1.3,2.2-3.3,5.1-5.5,5.5c-5.8,1.2-20.6-8.2-23.8-15c10.1,0,19.1,1.3,27.6,5.1
	C716.1,193.4,717.2,196.5,716.7,197.3z M715.3,183.2c-6.1,0.1-12.2,0.1-18.2-0.4c-4.3-0.4-8.5-1.9-13.6-3.1c1.2-1.4,1.4-1.9,1.6-1.9
	c10.2,0.1,20.4,0.2,30.6,0.5c0.7,0,2.1,1.7,1.9,2.4C717.4,181.7,716.2,183.2,715.3,183.2z M688,172.1c-1.6,0-3.2-2.2-4.8-3.4
	c1.3-1.5,2.4-4,3.9-4.2c7.6-1.3,15.4-2.6,23.1-2.8c5.9-0.1,9.3,4,10,10.6C709.2,172.3,698.6,172.4,688,172.1z M716.7,151.6
	c-7.3,2.2-14.7,4.3-22.6,3.3c5.3-4.8,11.4-8,18.4-8.5c1.6-0.1,3.3,2.2,5,3.4C717.2,150.4,717,151,716.7,151.6z M712.3,133.3
	c0.3-0.1,0.9,0.4,2.3,1.1c-1.3,1.5-2,2.9-3.1,3.5c-9.9,4.8-19.9,9.5-30,13.9c-1.6,0.7-4.1-0.8-6.1-1.2c0.9-2.4,1.3-6.5,2.8-7.1
	C689.4,139.7,700.9,136.6,712.3,133.3z M703.4,117.3c1.1-0.1,2.9,0.4,3.4,1.3c0.4,0.7-0.2,2.5-0.9,3.4c-7.7,9.4-18.3,13.1-29.7,15.1
	c-0.5-0.7-1-1.4-1.5-2.1c1.2-0.6,2.5-1.1,3.6-1.8c7-4.7,14-9.6,21.1-14.3C700.5,118.1,702,117.4,703.4,117.3z M699.2,109
	c-2.5,1.8-4.6,3.6-6.9,5.1c-4.5,2.8-9.3,5.2-13.8,8c-5.2,3.2-9,7.4-8.3,14.1c-4.9,1.4-6.8,0-5.4-4.3c1-3.3,2.5-6.9,4.9-9.1
	c6.1-5.6,12.6-10.8,19.3-15.7C692,104.9,695.7,103.9,699.2,109z M684.4,99.3c-4.1,5.9-7.7,11.4-14.9,13.7
	C670.6,102.7,677.5,96.1,684.4,99.3z M667.6,89.4c0.6,0.1,1.5,3,1.4,4.6c-0.6,9.9-8,17.7-18.6,19.1c2.5-8.6,5.9-16,11.4-22.2
	C662.9,89.5,665.7,89.2,667.6,89.4z M644,81.3c0.3-1.4,3.8-3,5.8-3c1.3,0,3.5,2.5,3.8,4.2c0.5,2.5,0.3,5.4-0.6,7.7
	c-1.9,4.9-4.4,9.6-7,14.2c-1.1,1.9-3.3,3.2-5,4.8c-0.6-0.3-1.2-0.6-1.8-0.9C640.8,99.3,642.1,90.2,644,81.3z M640.5,118.7
	L640.5,118.7L640.5,118.7c0.1,0.6,0.2,1.2,0.3,1.9c0.2,1,0.4,2.1,0,2.8c-2.2,4.8-4.9,9.4-7.4,14c-0.4,0.7-1.3,1.2-3.2,2.8
	c1-7.9,1.2-14.4,5.1-20c0.5-0.7,1.7-1,2.9-1.2C639.1,119,639.8,118.9,640.5,118.7z M633.6,72.2c1.1-0.3,4.2,2.5,4.1,3.4
	c-1.4,8.3-3.4,16.4-5.3,24.6c-0.1,0.3-0.8,0.5-2.3,1.4c-0.6-9.1-1.4-17.3-1.4-25.5C628.6,74.7,631.6,72.6,633.6,72.2z M639.8,163.8
	c-0.1,6.3-4.6,10.4-11.4,10.4c-7.3,0-12.9-5.2-12.7-11.8c0.2-6.9,4.7-11.1,12-11.1C634.5,151.3,639.9,156.8,639.8,163.8z
	 M615.9,79.8c0.1-1.4,1.8-2.6,2.8-4c1.4,1.1,3.9,1.9,4.1,3.3c1.3,6.1,2,12.4,3,19.1c-0.9,4.9-1.6,10.2-2.9,15.3
	c-0.4,1.4-2.6,2.4-3.9,3.5c-0.3-1.6-1.2-3.4-0.8-4.7c2.5-8-0.8-15.4-1.7-23.1C616.1,86.1,615.7,82.9,615.9,79.8z M613.4,130.2
	c1.9-2.1,4.1-2.4,4.8,1.3c0.9,5,1.9,10-1.2,14.5c-0.6,0.1-1.1,0.1-1.7,0.2c-1.4-3.5-3.2-6.8-3.9-10.4
	C611,134.2,612.2,131.7,613.4,130.2z M603.3,77.9c1.6,0.8,4.1,1.2,4.7,2.5c3,5.8,2.2,11.8-0.2,17.5c-0.5,0.1-1,0.1-1.4,0.2
	c-1.7-5.3-3.7-10.5-5.1-15.9C601,81,602.6,79.3,603.3,77.9z M588.3,82.9c4.9,0.8,8.2,4.1,10.6,8.3c4.3,7.5,3.9,15.4,2.2,23.5
	c-3.8,0.5-5.5-1.2-6-4.2c-1.9-9.5-4.6-18.6-13.1-26.7C584.9,83.3,586.7,82.6,588.3,82.9z M588.5,109.7c-4.8-6.3-9.3-12.3-13.9-18.3
	C580.9,88.7,589.3,99.7,588.5,109.7z M563.3,101.2c1.9-3,7.9-4,10.7-1.5c3.5,3.2,6.9,6.8,9.7,10.6c5.1,6.8,9.7,14,15.2,22
	c-2-0.3-4.1,0.1-5.2-0.8c-4.9-3.7-9.7-7.7-14.4-11.8c-4.2-3.7-8.2-7.7-12.3-11.5C565,106.3,560.5,105.6,563.3,101.2z M553.5,115
	c1-1.7,4.5-3.6,6.2-3.1c4.3,1.4,8.7,3.4,12,6.3c4.5,3.9,7.1,11.5,7.2,17.3c-4.3-3.7-7.8-7.1-11.7-9.8c-3.1-2.2-6.7-3.6-10.1-5.3
	C554.7,119.3,552,117.8,553.5,115z M547.2,128.5c0.7-1.4,2.8-3.1,4.1-3c10.8,1,18.9,6.7,25,15.4c2.1,3-0.1,5.8-5,7
	c-3.4-2.1-6.9-4.2-10.1-6.5c-4-2.8-7.9-5.8-11.7-9C548.3,131.4,546.8,129.2,547.2,128.5z M555.9,143.6c-5.1-1.3-9.3-2.4-13.5-3.4
	C547.5,135.9,551.6,137.2,555.9,143.6z M540.7,150.5c4.1-5.3,21.5-3.4,25.7,3.2C558.1,152.6,549.7,151.6,540.7,150.5z M543.1,169.5
	c-0.5-1.9-0.3-5.4,0.9-6.1c3.3-1.9,7.2-3,10.9-3.7c2.9-0.6,6-0.1,9-0.1c0,0.1,0,0.2,0,0.3c4.9-0.4,9.9-1,14.8-1.1
	c1.7,0,3.4,1.2,5.1,1.8c-1.1,1.5-1.9,3.7-3.4,4.3c-4.8,1.7-9.8,3.1-14.8,4c-5.9,1.1-11.8,1.8-17.7,2.3
	C546.3,171.3,543.4,170.4,543.1,169.5z M544.4,185c-0.3-1,1.6-3.2,3-4c7.8-4.1,15.9-3.4,24.1-1.4c0.5,0.1,0.8,0.9,1.9,2.2
	c-7.2,2.6-13.9,5.2-20.7,7.5c-1.3,0.4-3.1,0.2-4.3-0.4C546.8,187.9,544.8,186.5,544.4,185z M554.6,203.3c-1.4,0.2-2.9-0.5-4.4-0.8
	c0.3-1.5,0.2-3.5,1.1-4.5c5-5.8,11.6-8.3,19.9-8.8C567.1,196.8,562.6,202.2,554.6,203.3z M559.4,213.6c5.5-11.2,22.5-21.8,29.2-18.2
	C583.4,202.8,563.1,215.4,559.4,213.6z M577,224.6c-1.5,1.4-4.5,1.7-6.8,1.6c-3.4-0.2-4.3-2.5-2.3-5.2c6.5-9.2,15-15.9,26.1-18.6
	c0.6,0.3,1.1,0.6,1.7,0.9c-0.8,1.7-1.2,3.9-2.4,5.2C588,214,582.7,219.5,577,224.6z M591.3,228.5c-2.8,5.8-4.3,6.3-11.3,2.9
	c5.8-6.5,11.3-12.6,16.8-18.7c0.5,0.3,1,0.6,1.5,0.9c-0.5,1.1-0.9,2.2-1.4,3.3C594.9,220.7,593.1,224.6,591.3,228.5z M606.9,238.4
	c-0.8,2.8-2.4,5.3-6,4.7c-3.7-0.6-4-3.4-4-6.4c0.1-6.9,1.7-13.3,7.2-17.9c1.7-1.5,4.4-1.9,6.6-2.8c0.5,0.6,0.9,1.2,1.4,1.8
	C610.3,224.7,608.8,231.6,606.9,238.4z M615.2,246.2c-1.1-0.3-2.7-2.4-2.5-3.4c1.2-6.7,2.9-13.3,4.5-19.9c0.8,0.1,1.6,0.3,2.3,0.4
	c2.6,7,1.8,14.1-0.5,21C618.6,245.3,616.3,246.4,615.2,246.2z M609,458.4c-0.6-11.2,1-13.1,12.3-11.8c7,0.8,14,2.9,20.9,4.6
	c22.6,5.6,45.1,11.2,67.7,16.9c5,1.2,10,2.3,15,3.8c1.2,0.3,2,1.8,3,2.7c-1.1,0.6-2.2,1.5-3.3,1.6c-8.8,1-17.5,2-26.3,2.7
	c-18.1,1.4-36.2,2.5-53.3,3.6c-5.9-0.3-10.8-0.1-15.5-0.9C616.6,479.5,609.7,471.4,609,458.4z M614.3,498.3c0.8-6.1,5.1-9.6,11.1-10
	c29.9-1.9,59.7-3.9,89.6-5.9c1.1-0.1,2.3,0,3.5,0c0.2,0.4,0.4,0.7,0.7,1.1c-2.6,2.2-5.1,4.5-8,6.4c-20.9,14.1-41.9,28.3-62.9,42.2
	c-9.8,6.5-17.6,5.1-25.4-4C615.5,519.5,612.9,509.4,614.3,498.3z M632.2,542.3c-4.7,4.7-8.8,8.9-13.8,13.9c0-5.8-0.2-10.7,0.2-15.5
	c0.1-0.7,2.9-2,4.2-1.7C625.8,539.6,628.7,541,632.2,542.3z M618.7,564.1c6.3-6.1,12.3-12.8,19.4-17.8
	c29.1-20.5,58.6-40.5,87.9-60.7c2.4-1.6,4.1-5.1,8.9-3c-2.1,3.4-3.8,6.4-5.8,9.2c-15.4,21.5-30.3,43.4-46.4,64.3
	C666,578,643.3,578,619.9,569.8C616.6,568.6,616.3,566.3,618.7,564.1z M645,695.9c-1.3,19.1-3.2,38.1-4.9,57.2
	c-0.1,1.3-0.8,2.6-1.3,3.9c-0.7,0-1.3,0-2,0c-1.9-8.5-4.1-17-5.8-25.6c-6.9-35.9-9.6-72.2-12.1-108.6c-0.9-13.1-1.4-26.3-1.7-39.4
	c-0.2-6.3,1.5-7.4,7.6-5.6c12.9,3.8,25.9,6.3,39.2,1.8c0.7-0.2,1.6-0.2,2.6-0.2c-3.7,13.9-7.5,27.5-10.8,41.1
	C649.7,645.3,646.8,670.5,645,695.9z M656.7,696.4c3-23.9,5.9-47.7,8.9-71.6c0.5-0.1,1-0.3,1.4-0.4c5,5.4,10,10.7,15.1,16.1
	c-7.9,18.4-15.9,37.2-23.9,56C657.8,696.5,657.2,696.4,656.7,696.4z M727.5,702.4c13.9-7.5,28.8-6.9,43.8-5.3
	c27.1,2.9,47.4,17.1,63.6,38c0.7,0.9,1,2,1.5,3c-0.3,0.5-0.6,0.9-0.9,1.4c-1.6-1-3.6-1.6-4.8-3c-15.6-17.6-33.7-31.2-57.6-35
	c-15.9-2.5-31.5-1.3-46.3,5.6c-0.4,0.2-0.8,0.3-1.3,0.5c-0.1,0-0.2,0.1-0.3,0.1c-1.3,0.3-2.8,0.5-4.2,0.7c-0.1,0.1-0.2,0.2-0.2,0.2
	l-0.2-0.2c0,0,0,0,0,0c0,0,0,0,0,0c0.1,0,0.3-0.1,0.4-0.1c1-1,2-2.1,2.9-3.1C725.1,704.1,726.2,703.1,727.5,702.4z M726.3,661.9
	c-13.8,21.6-27.9,43-40.8,65.1c-7.2,12.3-12.3,25.8-18.4,38.7c-0.1,0.2-0.2,0.4-0.3,0.6c-0.2,0.4-0.5,0.8-0.8,1.1
	c-0.1,0.2-0.3,0.4-0.5,0.5c-0.6,0.7-1.3,1.4-1.9,2.1l0,0l0,0c-0.1-0.2-0.2-0.5-0.3-0.7c-0.4-0.8-1-1.7-1.4-2.5
	c-0.1-0.3-0.3-0.6-0.4-0.9c-0.1-0.5-0.2-0.9-0.2-1.4c0.9-22.1,4.1-43.9,10.2-65.3c4.9-17,11.4-33.4,20.2-48.8c2.2-3.8,5.1-6.2,9-8.1
	c6.9-3.4,13.5-7.5,20.6-11.6c0.5,2.4,0.8,5,1.6,7.5c0.9,2.8,1.4,6.5,3.4,8.1C733.2,652,729.8,656.5,726.3,661.9z M733.2,637
	c-0.5,1.2-1.7,2.1-2.6,3.2c-0.8-1.3-2.4-2.6-2.4-3.9c-0.1-6.8,0-13.6,0.5-20.4c1.3-14.4,2.9-28.8,4.3-43.2c0.1-1.3,0-2.6,0-4.2
	c-4.9-0.1-4.3,3.7-4.7,6.2c-1.3,8.9-2,17.8-3.2,26.7c-1.8,13-6.7,24.1-19.4,30c-17,7.9-33.7-1.6-35.7-20.2
	c-2-18.4,4.3-34.3,15.1-48.8c13.9-18.7,27.7-37.5,41.2-56.5c4.2-5.9,7.5-12.6,11.5-18.7c0.3-0.5,0.8-0.8,1.3-1.1
	c0.4-0.2,0.8-0.4,1.2-0.5c0.2-0.1,0.4-0.2,0.6-0.3c0.4-0.2,0.8-0.3,1.2-0.5l0,0h0c0.1,0.6,0.2,1.3,0.3,2c0.2,1.1,0.4,2.2,0,3
	c-7.1,14-7.5,29.5-10.2,44.5c-0.4,2-0.5,3.9-0.8,6.3c3.3,1.3,4.4,0.1,4.9-2.9c1.9-11.3,3.9-22.6,5.9-33.9c0.3-1.6,0.9-3.1,2.3-4.8
	c1.2,7.4,3,14.8,3.4,22.2c0.9,18.8,1.5,37.6,1.4,56.4c-0.1,17.4-6.7,33.4-12.3,49.6C735.8,630.5,734.6,633.8,733.2,637z
	 M765.6,607.7c-0.9,8.8-3.3,17-8.9,24c-4.3,5.4-9.4,9.8-18.1,9.2c1-3.4,1.8-6.4,2.7-9.3c4.4-13.9,9.2-27.8,13-41.9
	c2.1-7.8,2.3-16.1,3.3-24.1C764,579,767.1,593,765.6,607.7z M818.8,616.2c-4.7,10-10.1,19.6-15.7,30.2c-5.2-0.1-9.7-4-13.5-8.7
	c-8.7-10.5-13-22.9-16-36c-5.7-24.4-12.2-48.6-18.1-73c-2.3-9.3-3.8-18.9-5.5-28.3c-0.3-1.8,0.2-3.8,0.3-5.7
	c0.6-0.2,1.1-0.4,1.7-0.6c1.7,2.1,3.7,4.1,5.2,6.4c17.6,27,35.4,54,52.4,81.3c4.6,7.3,7.2,16,10,24.3
	C820.6,609.2,820.2,613.4,818.8,616.2z M833.1,595.3c-0.7,0.6-3.9-0.3-4.8-1.4c-6.2-7.4-12.7-14.6-18.1-22.6
	c-14.9-21.9-29.3-44-43.7-66.2c-2.4-3.7-4.1-8-6.1-12c0.5-0.4,0.9-0.8,1.4-1.2c1.5,0.7,3.2,1.3,4.6,2.2c17.5,11.5,35.5,22.1,54.6,31
	c18.1,8.3,28.8,31.6,25.2,51.2C844.5,584.4,839,590.2,833.1,595.3z M989.6,695.3c2.1,3.2,3.6,6.8,5.4,10.2c-0.5,0.3-1,0.7-1.5,1
	c-1.1-1.2-2.2-2.4-3.2-3.8c-16-22.2-35-40.9-59.9-53.2c-19.1-9.4-39.2-14.5-60.4-15.3c-9.5-0.4-18.5,1.9-27.1,5.7
	c-2,0.9-4.1,1.4-6.2,2.1c-0.3-0.4-0.5-0.9-0.8-1.3c1.2-1.1,2.3-2.4,3.7-3.2c9.5-5.9,20.1-7.8,31.1-7.4c18.3,0.6,35.9,3.6,52.9,10.9
	C950.8,652.8,973,670.6,989.6,695.3z M1037.9,535.3c-0.6-0.2-1.2-0.5-1.7-0.7c3.2-27.9,7.8-55.5,13.9-83.1
	c6.6,21.5,3.6,43.1,1.3,65.8c7.6-4.2,11.3-10.1,14.3-16.6c2.9-6.4,5.4-13,8-19.4c0.6,0.1,1.3,0.2,1.9,0.4c0,1.9,0.3,3.9,0,5.8
	c-2.4,15.1-10.9,26.5-22.4,35.9C1048.1,527.4,1043,531.3,1037.9,535.3z M1074.1,569.6c5.5-1.7,19.3,3.7,23.7,10
	C1089.2,576.1,1081.7,572.9,1074.1,569.6z"/>
</svg>
