<?xml version="1.0" encoding="utf-8"?>
<!-- Generator: Adobe Illustrator 27.3.1, SVG Export Plug-In . SVG Version: 6.00 Build 0)  -->
<svg version="1.1" id="Layer_1" xmlns="http://www.w3.org/2000/svg" xmlns:xlink="http://www.w3.org/1999/xlink" x="0px" y="0px"
	 viewBox="0 0 1200 800" enable-background="new 0 0 1200 800" xml:space="preserve">
<g>
	<path fill="#C49A6C" d="M966.2,121c0.3,0.8,0.6,1.5,0.8,2.3C966.8,122.5,966.5,121.7,966.2,121z"/>
	<path fill="#C49A6C" d="M993.1,256.4C993.1,256.4,993.1,256.4,993.1,256.4C993.1,256.4,993.1,256.4,993.1,256.4c0,0.1,0,0.1,0,0.1
		C993,256.4,993,256.4,993.1,256.4c-0.4,1.8-1,3.3-1.8,4.7C992.1,259.6,992.7,258.1,993.1,256.4z"/>
	<path fill="#C49A6C" d="M966.2,121c-0.1-0.3-0.2-0.5-0.2-0.7c-0.6,0.2-1.4,0.3-2.1,0.4c0.7-0.1,1.5-0.2,2.1-0.4
		C966.1,120.5,966.2,120.7,966.2,121z"/>
	<path fill="#C49A6C" d="M1105.5,197.3c0.6-0.2,1.1-0.8,1.6-1.3c0,0,0,0,0,0C1106.5,196.5,1106.1,197.2,1105.5,197.3z"/>
	<path fill="#C49A6C" d="M1103.1,207.5c1.5-4.2,2.8-7.8,4.1-11.5c0,0,0,0,0,0C1105.8,199.7,1104.6,203.3,1103.1,207.5z"/>
	<path fill="#C49A6C" d="M793.9,170.7c0.3-0.6,0.9-1.2,1.3-1.8C794.7,169.5,794.2,170.1,793.9,170.7L793.9,170.7z"/>
	<path fill="#C49A6C" d="M1102.6,185c-1.4,1-2.8,2-4.2,3.1C1099.9,187.1,1101.2,186,1102.6,185L1102.6,185z"/>
	<path fill="#C49A6C" d="M46.9,544.8c-1.2,0.3-2.4,0.5-3.6,0.5C44.5,545.3,45.7,545.1,46.9,544.8z"/>
	<path fill="#C49A6C" d="M1093.4,198.2c0.1,0.3,0.3,0.7,0.4,1l0,0C1093.7,198.9,1093.5,198.6,1093.4,198.2z"/>
	<path fill="#C49A6C" d="M34.2,656.6L34.2,656.6c0.6-0.6,1.2-1.2,1.7-1.8C35.4,655.4,34.8,656,34.2,656.6z"/>
	<path fill="#C49A6C" d="M315,562.4c0.3,0.1,0.6,0.2,1,0.3C315.6,562.6,315.3,562.5,315,562.4z"/>
	<path fill="#C49A6C" d="M747.3,280.7L747.3,280.7c0,0.2,0.1,0.5,0.2,0.8C747.4,281.2,747.4,280.9,747.3,280.7z"/>
	<path fill="#C49A6C" d="M316,562.6c0.3,0.1,0.7,0.2,1,0.3C316.7,562.8,316.3,562.7,316,562.6z"/>
	<path fill="#C49A6C" d="M827.2,231.4c-0.5-0.6-1.1-1.2-1.6-1.8C826.2,230.2,826.7,230.7,827.2,231.4c0.6-0.7,1.4-1.3,2.1-2
		C828.7,230,827.8,230.7,827.2,231.4z"/>
	<path fill="#C49A6C" d="M317.5,563.1c-0.2-0.1-0.3-0.1-0.5-0.2C317.2,563,317.3,563,317.5,563.1L317.5,563.1z"/>
	<path fill="#C49A6C" d="M1023.8,238.4L1023.8,238.4c-0.5,1.3-1,2.6-1.5,3.9C1022.8,241,1023.3,239.7,1023.8,238.4z"/>
	<path fill="#C49A6C" d="M1116.3,756.3c0.4,0.2,0.9,0.4,1.3,0.6C1117.1,756.7,1116.7,756.5,1116.3,756.3z"/>
	<path fill="#C49A6C" d="M1117.6,756.9c0.3,0.1,0.5,0.1,0.8,0.2C1118.1,757,1117.9,756.9,1117.6,756.9z"/>
	<path fill="#C49A6C" d="M991.7,634.5c-1.9-0.8-4.1-1.9-6-1.6c-4.9,0.7-10.3,1.1-14.4,3.5c-10,6-20.1,12.2-28.8,19.9
		c-18.5,16.3-31.9,36.7-43.6,58.2c-1.2,2.3-2.6,4.5-3.9,6.8c-0.4-0.1-0.9-0.3-1.3-0.4c0.5-6.4,0.4-13,1.6-19.3
		c4.8-25.5,16.6-47.9,31.3-68.9c4.8-6.8,11-11.8,18.5-15.2c5.8-2.6,11.8-4.9,17.4-8c3.2-1.8,6.1-4.5,8.3-7.4
		c2.5-3.2,1.3-6.6-1.2-9.6c-2.8-3.2-5.2-0.9-7.6,0.6c-12.6,7.9-23.4,18.1-33.2,29.1c-14.5,16.3-24.5,35.5-33.2,55.4
		c-1,2.4-2.2,4.6-3.8,7.8c-0.5-1.6-0.7-2-0.7-2.4c0.3-13.9,0.6-27.7,1.1-41.6c0.1-1.9,0.9-3.9,1.7-5.6c6.8-14.5,13.6-28.9,16.2-44.9
		c0.5-3.2,1.5-6.9,3.6-9.1c3.9-4,8.6-7.3,13.3-10.4c12.2-8.1,24.4-16.1,33.3-28.1c6.1-8.3,9.2-17.3,6.7-27.5
		c-2.1-8.7-4-17.6-7.5-25.7c-7.1-16.8-8.8-33.3-2.3-50.6c1.1-2.9,1-6.2,1.5-9.3c-8.9,10.8-12.2,23.1-11.4,36.6
		c-5.9-9.4-6.9-18.7-1.6-28.6c2.7-5.1,5.3-10.4,6.7-15.9c1.1-4.1,0.2-8.7,0.2-13.1c-0.5,0-0.9,0-1.4-0.1c-0.3,1.1-0.5,2.3-0.8,3.4
		c-1.8,5.8-2.8,12-5.8,17.2c-3.8,6.7-7.4,13.1-7.1,21.4c-5.2-4.2-7-9.9-4.6-15.9c2.8-6.7,6.4-13.1,9.2-19.8c2.3-5.4,3.5-11,2.3-17.4
		c-6.4,13.4-12.4,26.2-18.5,39c-6.7-6.4-7.6-13.8-3.7-21.9c1.5-3.1,3.5-6,5.3-9.1c2.2-3.8,4.8-7.5,6.4-11.5
		c1.2-3.1,1.2-6.6,1.8-10.7c-4.3,6.1-7.3,11.7-11.6,16c-5,5.1-8.1,10.5-8.5,17.6c-0.1,1.1-0.4,2.2-0.6,3.4c-0.4,0.1-0.9,0.3-1.3,0.4
		c-1.2-2.6-2.9-5.1-3.7-7.8c-2.1-7.8-1-15.2,3.3-22.4c3.8-6.4,7-13.2,9.7-20c1.4-3.4,1.6-7.6-0.8-10.4c-3.3,6.1-6.5,12-9.6,18
		c-3.2,6-6.3,12.1-9.7,18.8c-0.4-1.7-1.2-3.1-1.1-4.4c0.7-6.6,1.1-13.4,2.5-19.8c1.3-5.7,4.2-11.1,5.7-16.8
		c0.9-3.4,0.6-7.1,0.9-10.7c-0.5,0-1-0.1-1.5-0.1c-6.6,12.8-14.2,25.2-13.8,40.7c-1.7-1.9-3.1-3.8-3.8-5.8c-2.5-7.6-1.4-15,1.1-22.4
		c1.9-5.9,4.1-11.8,5.3-17.9c0.6-2.8-0.8-6-1.3-9c-0.4,0.1-0.8,0.2-1.3,0.2c-2.4,13.5-11.9,25.1-10.8,39.7c-5.8-4.8-8-11-7.2-17.8
		c0.8-7.1,2.9-14,4.3-21c1-4.9,1.4-9.9-2.4-15.8c-2.7,12.5-5.1,23.7-7.6,35.6c-1.2-2.1-2.5-3.9-3-5.8c-1.5-5.6-2.2-11.3-3.9-16.9
		c-2.7-9.3-6.9-17.9-14.4-24.4c-1.4-1.3-4.1-1.1-6.2-1.7c0.4,1.9,0.3,4.2,1.2,5.8c4.8,8.3,9.9,16.5,14.8,24.7c1,1.6,1.6,3.4,3,6.3
		c-10.7-4.9-20.1-9.1-29.2-13.3c0,4.8,5.1,11.4,12,14c3.4,1.3,7,2.1,10.4,3.4c5.4,2,9.8,5.3,12.1,11.7c-9.5-2.9-18.5-4.4-27.6,0.6
		c3.3,1.9,6.8,3.3,10.3,3.7c7.7,1,15.6,1,22.3,5.8c1.7,1.3,3.1,3.1,4.6,4.6c-0.3,0.4-0.6,0.9-0.9,1.3c-10.9-2.3-21.8-4.6-32.7-6.9
		c4.4,8,11,11.9,19.3,12.8c4.2,0.5,8.5,0.6,12.8,1c6.2,0.6,11.8,5.1,13.1,11.4c-12.7-2.6-24.9-5.1-38.2-7.9
		c4.6,5.9,9.1,10.6,16.1,11.7c7.1,1.2,14.2,2,21.3,3c7.1,1,10.8,4.4,12.1,11.4c-13.4-2.5-26.6-5-39.7-7.4c0.8,0.9,1.9,2.3,3.1,3.5
		c6.3,6.8,14.6,8.3,23.2,9.2c4.7,0.5,9.4,1.4,13.9,2.5c3.2,0.8,6.2,2.4,7,5.7c-10.3,0-20.6,0-30.9,0c2.7,4.3,6.6,7.2,12.4,7
		c3.8-0.2,7.6-0.7,11.4-0.6c7.6,0.2,14,3.1,18.4,9.8c-10.6-3-21.2-3.2-32.2-1.6c1.9,4,4.6,5.8,8.5,5.6c3.2-0.1,6.4-0.1,9.6-0.1
		c11,0.1,20.1,4.2,27.1,12.8c12.5,15.2,20.4,32.7,25.9,51.4c3.7,12.3,3.7,24.8-6.5,34c-12,10.8-25.2,20.3-37.9,30.4
		c-0.5-0.3-0.9-0.6-1.4-1c1-6.4,1.8-12.8,3.1-19.1c0.5-2.6,0.3-4.6-1.6-6.6c-2.6-2.7-2.6-5.4,0.1-8.4c5-5.7,10-11.5,14.3-17.8
		c3.4-5,6.2-10.4,8.5-16c1.6-4,1.6-8.6-2-11.6c-3.4,7.2-6.4,14.6-10.3,21.4c-3.4,5.9-7.7,11.3-11.8,16.8c-2.1,2.9-4.5,3-7,0
		c-3.8-4.6-6.5-9.5-6.8-15.6c-0.4-8.5-3.2-15.9-8.7-22.5c-10-12.1-17.5-25.2-16.2-41.9c0.2-2.8-1.8-5.8-2.9-8.7
		c-0.8,0.2-1.5,0.3-2.3,0.5c0,5.5,0,11,0,16.5c-0.7,0.2-1.4,0.3-2.1,0.5c-1.5-3-3.9-5.9-4.2-9c-0.7-7.4-0.4-14.9-0.7-22.3
		c-0.1-1.8-0.6-3.6-0.9-5.5c-0.5,0-1,0.1-1.6,0.1c-1,7.7-2,15.4-3.1,23.2c-5.6-3.6-7-6.8-6.2-13c0.6-4.8,1.2-9.7,1-14.5
		c-0.1-2.5-1.7-5-2.6-7.5c-0.3,0.2-0.5,0.3-0.8,0.5c-1,7.6-1.9,15.1-2.9,22.7c-0.7,0.2-1.4,0.3-2,0.5c-1.4-2.1-3.5-4.1-4.1-6.4
		c-1.1-4.5-1.5-9.3-2-14c-0.7-5.8-1.8-11.3-7-15.6c1.3,10.3,2.5,20.1,3.7,30c-17.4-5.3-21.1-9.2-20.6-25.3c0.3-9.2-5.5-16.4-9-25.3
		c-2.9,5.8-1.4,10.5,0,15.3c1.5,5.2,2.7,10.6,3.7,15.9c0.2,1.1-0.5,3-1.3,3.4c-0.9,0.4-2.7-0.1-3.7-0.8c-4.3-2.8-7.1-6.6-7-12.1
		c0-3.8,0.4-7.7-0.2-11.4c-1.2-7.3-3.1-14.5-4.6-21.7c-0.6,0.1-1.2,0.2-1.8,0.3c-4,12.6,0.9,24.9,1.9,37.7
		c-7.1-3.7-11.8-8.5-11.4-16.9c0.2-4.7,0.1-9.5-0.5-14.2c-0.5-4.6-1.5-9.3-5.9-13c0.7,8.7,1.3,16.6,1.9,24.4c-0.5,0.1-1,0.2-1.5,0.3
		c-2.6-3.5-5.1-7.1-7.9-10.5c-2.6-3.3-3.3-8.2-8.2-10.8c-1.2,11.3,5.4,18,11.9,25.2c-4.6,0.2-8.6,0.4-12.5,0.6
		c-0.1,0.6-0.3,1.1-0.4,1.7c1.4,0.9,2.7,2.3,4.2,2.8c4.9,1.6,10,2.7,14.9,4.4c1.7,0.6,3,2.2,4.5,3.4c-0.2,0.6-0.5,1.1-0.7,1.7
		c-6.1-0.6-12.2-1.2-19.6-1.9c1.8,2.2,2.8,3.9,4.2,5c5.1,4.3,11.3,4.4,17.4,3.3c7-1.2,11.5,3.1,16.7,6c0,0.6-0.1,1.2-0.1,1.8
		c-10.7,0.8-21.4,1.6-31.9,2.4c4.2,6.2,8.6,8.5,16.2,7.6c4.3-0.5,8.6-1.9,12.9-3.1c8.4-2.4,16-0.4,23.4,3.9
		c-13.2,1.4-24.6,12.6-39.4,5.8c4.4,8.3,11.6,11.3,18.5,8.7c6.5-2.5,13.1-4.9,19.7-7.2c11.3-3.9,19.6,2.9,28.3,8.2
		c-14.5,0.3-28.2,9.3-43.6,3.2c3.9,6.6,12.1,9.7,20.1,8c5.2-1.1,10.3-2.6,15.5-4c7.7-2.1,14.7-0.8,20.2,5.1
		c5.3,5.7,10.2,11.7,15.1,17.7c1,1.2,1.5,2.8,2.9,5.6c-8.6-2.5-16.5-3.6-23-7.2c-6.6-3.7-11.9-9.9-17.7-14.9c-0.5,0.3-1,0.6-1.4,0.9
		c1,3,1.4,6.6,3.3,9c3.4,4.4,7.1,8.8,11.6,12.1c9.6,7.1,11.2,17.4,13.3,28.4c-2.6-0.7-4.6-0.8-6.1-1.6c-8.8-4.8-17.8-9.3-26-15
		c-8.4-5.9-14.5-13.9-15.1-24.9c-0.1-1.1-0.8-2.1-1.2-3.1c-0.5,0-1-0.1-1.6-0.1c-0.6,3.1-1.9,6.3-1.6,9.3c1,11.9,7.2,21.3,17.3,26.9
		c9.5,5.3,19.9,9,30.2,12.8c5.2,1.9,9.2,4.4,11,9.9c3.5,10.4,7.7,20.6,10.7,31.1c1.9,6.5,2.9,13.4,3.1,20.2
		c0.5,11.3,0.1,22.6,0.1,33.8c0,5.6,0,11.1,0,16.7c-0.4,0.2-0.7,0.3-1.1,0.5c-1.8-2.3-4.2-4.4-5.3-7c-3.9-8.7-7.9-17.4-11-26.5
		c-6-17.7-10.4-36-19.6-52.4c-3.2-5.7-6.9-11.1-10.3-16.6c-0.5,0.2-1,0.4-1.5,0.6c0,2.7-0.4,5.4,0.1,8c0.9,5.1,2,10.1,3.5,15
		c9.1,29.5,23.1,56.6,39.5,82.6c2.8,4.4,4.6,10.1,4.9,15.3c0.8,12.8,0.6,25.6,0.7,38.4c0,1.2-0.3,2.5-0.4,3.7
		c-0.4,0.1-0.8,0.2-1.2,0.3c-0.8-1.3-1.7-2.6-2.2-3.9c-4.5-11.1-8.7-22.4-13.4-33.5c-8.2-19.7-17-39.1-29.4-56.6
		c-3.8-5.4-8.9-10-13.8-14.5c-1.5-1.4-4.6-2.2-6.6-1.7c-5.6,1.3-6.4,6.4-1.9,11.2c4.8,5.1,9.9,9.9,14.7,15
		c4.8,5.1,9.9,10.1,14.2,15.6c11.4,14.5,20.1,30.6,25.8,48c5.6,17.3,13.1,34.2,12.4,53c-0.1,1.5-0.2,3-0.3,5.1c-1-0.8-1.2-1-1.4-1.2
		c-0.4-0.8-0.8-1.6-1.2-2.4c-12.8-26.2-29-50.1-49.8-70.6c-12.3-12.1-25.4-23.3-41.8-29.6c-3.1-1.2-6.9-1.7-10.2-1.4
		c-5.1,0.5-6.5,4.5-3.5,8.5c1.5,1.9,3,3.9,4.9,5.4c9.8,8,19.7,15.7,29.5,23.7c13.3,10.9,27.1,21.2,39.3,33.2
		c9.5,9.3,17.6,20.4,23.8,32.2c3.1,5.9,6,12.1,7.7,18.6c1.2,4.5-0.1,12.7,5.2,14.7c3.9,1.5,12.7,2.1,13.3-3.7
		c1-10.3,1.7-19,6.7-28.3c1.6-2.9,4.3-5.2,6.5-7.8c0-0.3-0.5-1.8,0.1-2.5c7.6-9.2,14.2-19.8,23.4-27.2c12.5-10.2,27-18.1,40.6-26.9
		c6.9-4.5,14.2-8.4,18.6-15.9C994.8,637.6,994.5,635.7,991.7,634.5z M909.3,551.3c-0.7,24.1-2.4,48.1-13.8,70.1
		c-0.5,0.9-1.1,1.8-1.7,2.7c-0.2,0.3-0.7,0.5-2.5,1.8c0.6-20.7,0.9-40.2,2-59.6c0.4-7.6,4.7-13.7,11.7-17.5
		C907.7,547.2,909.4,547.8,909.3,551.3z M871.4,506.8c-2.8-7.7-5.6-15.4-8.3-23.1c-0.3-0.9-0.1-2.1-0.2-3c7.1-2.1,11.8-1.1,15.4,4.6
		c5.6,8.7,10.5,17.7,15.6,26.6c0.8,1.4,0.9,3.1,1.5,5.4c-8.1-3.1-15.4-6-22.6-8.9C872.2,508.1,871.6,507.4,871.4,506.8z
		 M872.3,514.6c16.2,1.3,25,11.3,34.2,20.7c-5.2,6.9-10.2,13.6-15.1,20.2c-0.6,0.2-1.2,0.3-1.7,0.5
		C884.1,542.6,878.4,529.2,872.3,514.6z"/>
	<path fill="#C49A6C" d="M512.5,148.4c0.7,1.2,1.5,3,1,4.1c-3,7.1-1.2,12.8,4.6,17.4c2.1,1.7,2.6,3.5,0.8,5.8
		c-2.5,3.2-2,6.5-0.2,9.8c2.2,4,4.8,7.7,9.5,9.4c1.3,0.5,2.5,2.3,3.1,3.8c1.3,3.2,1.6,6.9,3.3,9.9c1.7,2.9,3.1,5.6,3.3,9.1
		c0.4,7,4.6,10.1,11.3,9.9c2-0.1,4.4,1,6.1,2.2c5,3.3,8.2,3.3,11.8-1.6c2.8-3.9,5.4-8.1,7.3-12.6c4.2-9.6,7.8-19.5,11.9-29.2
		c1.4-3.3,3.6-6.2,5.4-9.3c0.6,0.3,1.2,0.6,1.7,0.9c-0.3,1.4-0.6,2.8-1,4.1c-1.4,4-3,8-4.4,12c-3.1,8.7-6.1,17.5-9.1,26.3
		c-1.2,3.5-3.4,7.1-3.3,10.6c0.1,3.4,1.8,7.4,4.2,9.8c2.7,2.7,6.4,0.8,9.6-1.1c7.4-4.5,12.8-1.4,13.2,7.3c0.3,7.3,0.7,14.6,0.8,21.9
		c0.9,50.8,1.7,101.5,2.6,152.3c0,1,1.3,2.7,2,2.7c1.2,0,2.9-0.8,3.5-1.9c0.6-1,0.2-2.7,0.2-4c-0.3-55.8-0.6-111.6-1.1-167.4
		c0-5.6,0.8-9.3,6.9-11.2c5.4-1.7,7.6-10.7,4.5-15.5c-0.9-1.4-2.2-2.7-2.6-4.3c-3.4-12.9-6.6-25.8-9.9-39c5.8-2,6.7-1.8,8.5,3.9
		c4.5,14.6,8.6,29.5,13.1,44.1c0.8,2.6,3,4.8,4.6,7.2c2.4-1.8,5.4-3.3,6.9-5.6c1.8-2.7,3.6-3.8,6.3-2.9c7.5,2.5,13.8-3.4,13.1-12.1
		c-0.3-3.9-0.3-7.8-0.5-12.2c-17.3-3.2-24.8-20.1-38-29.8c3.4-4.8,8.6-7,11.3-5.4c2.4,1.5,4.9,2.9,7.5,4.2
		c11,5.6,19.9,13.2,22.8,25.8c0.7,3.1,2.3,4,4.8,4.4c5.5,1,9.5-1.6,13.3-5.5c9.9-10.3,7.9-23.5-4.8-29.7c-3.9-1.9-8.2-3.3-12.4-4.5
		c-8.7-2.5-17.6-4.7-26.3-7.2c-0.9-0.3-1.5-1.8-2.3-2.7c1-0.3,2.1-1,3.1-0.9c10.1,1.2,20.2,2.7,30.4,3.8c6.1,0.7,11.5,2.3,15.9,7
		c1,1.1,3.7,1.6,5.1,1c3.6-1.4,5.7-6.3,4.1-9.9c-1.6-3.5-1-5.9,1.1-9c5.6-8,3.7-15.8-4.6-18.5c-4.2-1.4-6-3.4-6.8-7.6
		c-1.4-6.7-5.4-7.8-10.4-3.2c-9.9,9.1-22,13.8-34.7,17.4c-2.7,0.8-3.8,0.1-4.6-2.6c-0.9-3,0-4.5,2.6-5.9c9.9-5.3,20-10.4,29.6-16.3
		c3.8-2.4,7.2-6.2,9.6-10.1c4-6.6,0.9-16.4-5.6-18c-3.7-0.9-5.4-2.6-7.2-5.6c-2.4-4.1-7.6-4.8-11-1.6c-1.9,1.7-3.3,2-5.6,1.3
		c-1.4-0.5-3-0.3-4.5-0.2c-6,0.2-6.7-0.5-3.9-5.7c3.9-7.3-2.2-14.1-9.8-13.1c-3.2,0.4-6.3,1.9-9.8,3.1c-3.2-3.7-7.5-6.3-12.6-4
		c-5.7,2.5-3.6,8.6-4.2,12c-3.8,0.7-6.9,1.3-10,1.9c-2.2-10.4-6.9-12.8-17.7-8.7c-1.4,0.5-3.5,0.2-5-0.4c-5.1-2-9.6-1.4-11.9,2.1
		c-2.2,3.4-1.1,8.4,1.9,12.1c2.7,3.4,5.1,7.2,7,11.1c2.8,5.8,5.1,11.7,7.4,17.7c1.3,3.4,3,6.8,3.4,10.4c0.2,2.1-1.6,4.5-2.5,6.7
		c-1.9-0.9-3.9-1.5-5.6-2.7c-1.2-0.8-1.9-2.3-2.7-3.6c-5.5-8.9-8.8-18.7-10-29.1c-0.4-3.1-1.6-5.3-4.9-5.6c-3.1-0.3-5.8,0.8-7,3.9
		c-0.8,2.1-1.4,4.2-2.1,6.3c-6.3-0.5-13.1-3.1-17.2,3.8c-3.9,6.6,1.2,12.1,3.2,18c-2.1,0.9-4.1,1.7-6,2.7c-2.4,1.3-4.4,2.8-3.1,6.1
		c1.2,2.9,3,3.5,6.1,3.3c3.5-0.3,7.3-0.3,10.7,0.7c9.5,2.9,18.7,6.6,28.2,9.4c4.7,1.4,3.4,4.3,3,7.1c-0.4,3.8-3.5,2.4-5.4,2
		c-7.9-1.5-15.8-3.3-23.6-5.1c-7.1-1.6-14.1-3.5-21.2-5.2c-3.8-0.9-7.6-1.2-10.3,2.6c-2.7,3.9-1.2,7.6,1,11
		C510.2,145.8,511.7,146.9,512.5,148.4z M680.5,135.6c-6.1,6.3-39.7,10.4-42.8,5C652.1,138.9,666.1,137.3,680.5,135.6z M567.3,194
		c-3.3,3.3-7.4,5.8-11.4,8.1c-1.5,0.8-3.9-0.2-6-0.4c0.6-1.7,0.7-3.9,1.9-5c9.1-8,18.4-15.9,27.8-23.5c1.2-1,3.7-0.4,5.6-0.5
		c0.1,0.5,0.1,1,0.2,1.5C579.4,180.8,573.7,187.7,567.3,194z M576.6,157.1c-0.9-2.6-1.6-4.5-2.5-7c4.3-0.4,8.2-0.8,12.1-1.1
		c0.2,0.5,0.4,1,0.6,1.6C583.6,152.6,580.3,154.7,576.6,157.1z M589,153.2c0.3,0.4,0.6,0.7,1,1.1c-0.7,4.5-4.2,7.1-7.8,10.2
		c-1.5-1.7-2.8-3.1-4.8-5.2C581.8,157.1,585.4,155.1,589,153.2z M584.3,167.6c3.3-3.7,5.8-6.5,8.9-9.9c0.8,5.3-1.1,8.4-4.2,10.6
		C588.2,168.8,586.4,167.9,584.3,167.6z M589.3,171.3c2.8-4.1,5.1-7.5,7.4-10.8c0.3,0.1,0.7,0.2,1,0.2c0,4.1,0,8.2,0,12.7
		C594.9,172.7,592.4,172.1,589.3,171.3z M611.8,218.6c0.2,1.8-0.6,4.8-1.9,5.6c-2.9,1.8-4.9,0-5.3-4.3c-0.8-8.6-1.3-17.3-1.9-26
		c-0.1-1,0-2-0.5-3.1c-6,12.1-8.8,25.8-17.9,36.1c-0.6-0.3-1.2-0.6-1.8-1c1.5-4.6,3.1-9.1,4.6-13.7c2.9-8.8,5.9-17.6,8.7-26.4
		c1.3-4,4.1-4.3,7.5-4.1c3.4,0.2,3.7,2.8,4,5.1C608.9,197.5,610.5,208.1,611.8,218.6z M613.1,169.8c-2-2.7-3.5-5.7-5.1-8.6
		c0.7-0.6,1.3-1.1,2-1.7c2.6,2.6,5.2,5.1,8.7,8.5C616.1,168.9,613.4,170.2,613.1,169.8z M629.6,133.2c-2,1-4.1,1.8-6.3,2.2
		c-0.9,0.2-2.5-0.4-2.8-1.1c-0.4-0.8-0.1-2.7,0.6-3.1c2.3-1.3,4.9-2.2,8-3.6c0.7,1,1.8,1.9,2,3C631.2,131.5,630.4,132.9,629.6,133.2
		z M633.5,139.1c0.2,1.5,0.3,2.8,0.6,4.6c-4,0.4-7.8,0.8-11.6,1.2C622.4,140.4,624.1,139.5,633.5,139.1z M616.2,129.5
		c-1.3-5,1.5-7.1,3.9-8.6c1.3-0.8,3.8,0.4,5.8,0.7c0.1,0.6,0.1,1.2,0.2,1.8C622.9,125.3,619.8,127.2,616.2,129.5z M613.8,123.4
		c-0.6,0.7-2.8,0.2-4.3,0.2c0.1-2.5-0.2-5.2,0.6-7.5c0.3-0.8,3.1-0.9,4.7-1.2c0.7-0.1,1.4,0.4,2.9,0.8
		C616.3,118.8,615.4,121.4,613.8,123.4z M625,180.4c7.3,9.1,14.4,18.4,21.5,27.7c1.5,2.1,2.6,4.8-0.1,6.9c-2.6,2-5.2,0.8-6.9-1.1
		c-2.7-3.1-5.2-6.4-7.1-9.9c-4.3-7.8-8.3-15.9-12.4-23.8c-0.6-1.1-0.8-2.4-1.2-3.7c0.3-0.2,0.6-0.4,0.8-0.6
		C621.4,177.4,623.5,178.6,625,180.4z M619.9,166.4c-2-2.4-3.9-4.8-5.8-7.2c0.3-0.4,0.6-0.9,0.9-1.3c2.8,1.7,5.6,3.5,9,5.5
		C622.4,164.7,621.5,165.4,619.9,166.4z M624.4,161.5c-2.6-1.1-4.8-3.2-7.2-4.8c0.5-0.7,1-1.3,1.4-2c3.3,1.2,6.6,2.4,9.9,3.5
		c0.1,0.4,0.2,0.9,0.3,1.3C627.3,160.2,625.4,162,624.4,161.5z M631.3,154.6c-3.8-0.9-7.5-2.3-11.3-3.5c0.2-0.8,0.3-1.6,0.5-2.4
		c4.2,0.5,8.5,0.9,14.1,1.6C633,152.5,631.9,154.8,631.3,154.6z M654.6,165.2c-0.2,0.5-0.3,1.1-0.5,1.6c-7,0.5-13-2.9-19.1-5.7
		c0.2-0.6,0.3-1.2,0.5-1.8C641.8,161.2,648.2,163.2,654.6,165.2z M664.3,92.6c-0.5,1.7-0.6,3.5-1.4,5c-3.3,6-22.5,19.4-30,20.9
		C634.6,107.9,655.2,90.6,664.3,92.6z M638.3,85.1c1.9-2.7,4.8-5.1,10.1-3.8c-2.3,4.3-4.1,8.1-6.4,11.5c-4.8,7.2-9.9,14.1-14.9,21.2
		c-1.3,1.9-2.8,3.2-4.7,1.3c-0.9-0.9-1.5-3.4-0.9-4.3C626.9,102.2,632.4,93.5,638.3,85.1z M624.6,73.4c0.4,9.7-8.9,31.7-14.1,33.8
		C611.3,94.9,619.3,75.5,624.6,73.4z M609.4,69.3c4.4,3.6,2.2,26.3-2.9,32.2C607.9,91,603.7,79.9,609.4,69.3z M608.4,171.3
		c-2.8,0.5-5.3,0.9-8.6,1.4c0.4-4.3,0.8-8,1.1-11.6C605.8,161.4,607.8,164.1,608.4,171.3z M603.6,121.4c-0.2,0.9-0.9,2.1-1.6,2.3
		c-0.8,0.2-2.3-0.3-2.7-0.9c-1.5-2.4-2.7-4.9-4-7.5C602.4,113.2,604.7,115.1,603.6,121.4z M593.2,75.1c1.4,0.1,3.5,1.1,3.8,2.2
		c2.9,9,3.4,18.1,0.3,27.2c-0.4,1.2-1.9,2.1-3.9,4.3c-0.8-5.5-1.7-9.6-2-13.7c-0.5-5.7-0.7-11.5-0.7-17.2
		C590.7,76.9,592.4,75,593.2,75.1z M596.4,125.1c-3.5,3.6-7,1.5-10.1-6.2C592,116,592,116,596.4,125.1z M571.4,74.6
		c6.6-2.6,9.7-1.4,10.9,4.3c1.9,9.2,3.5,18.4,4.8,27.7c0.2,1.7-1.5,3.8-2.3,5.7c-0.5-0.2-1-0.3-1.5-0.5
		C579.3,99.5,575.4,87,571.4,74.6z M583.5,120.7c2.3,2.9,4.4,5.3,6.2,7.8c0.5,0.7,0.4,2.4-0.1,3.1c-0.5,0.7-2.1,1.1-2.9,0.8
		c-3-1.3-5.9-2.9-9.7-4.8C579.6,124.9,581.5,122.9,583.5,120.7z M574.7,131.8c4.1,1.5,7.8,2.8,11.5,4.1c-0.1,0.6-0.2,1.2-0.3,1.8
		c-4,0.2-8,0.4-12.6,0.7C573.8,135.8,574.2,134.1,574.7,131.8z M575.6,141.5c3.1-0.5,6.2-0.6,9.6-0.9c0.1,1.6,0.2,2.9,0.3,5
		c-3.6,0-6.8,0.1-10-0.1c-0.8-0.1-1.6-1.4-2.4-2.1C573.9,142.7,574.7,141.6,575.6,141.5z M575.2,165c0,0.5,0.1,1.1,0.1,1.6
		c-11.2,8.8-24.1,13.8-37.9,16.4c-0.8,0.2-1.9-0.9-2.9-1.3c0.5-0.8,0.9-1.7,1.6-2.3c0.8-0.6,1.9-1.1,2.9-1.3
		c11.4-2.5,21.9-7.2,32.1-12.8C572.2,164.7,573.8,165.1,575.2,165z M535.6,99.8c4.1,0.7,35,22.8,35.9,25.3
		C564.4,126.8,541.2,110.7,535.6,99.8z M556.2,145.4c-10.5,1.7-21.1,2.1-31.7,0.3C535,142.4,545.6,145.1,556.2,145.4z M545.9,160.1
		c6-2.2,12.1-4,18.1-6.1c4.6-1.7,5.3-1.5,7.4,3.3c-8.8,9.4-38,17.4-46.6,12.8c-0.1-0.6-0.3-1.1-0.4-1.7
		C531.6,165.6,538.7,162.8,545.9,160.1z"/>
	<path fill="#C49A6C" d="M1155,626.2c-0.1-0.2-0.5-0.4-1.7-1.3c-4.7,4.9-9.6,9.8-14.7,15c-0.6-2.2-1.1-4.1-1.9-7
		c-4.9,8.3-9.7,15.7-10.4,24.7c-0.6,7.8-2.9,14.6-8.6,20.2c-0.2-0.4-0.5-0.6-0.5-0.8c-0.3-23-0.6-46-0.8-69.1c0-1.5,0.7-3.5,1.8-4.4
		c5.7-5,11-10.9,17.6-14.4c9.3-4.9,16.3-11.6,22-20.1c1.5-2.3,3.5-6.1,2.6-7.7c-1.5-2.8-0.2-3.6,0.9-5.3c2.8-4.1,5.5-8.4,8.3-12.6
		c1.7-2.5,0.5-4.1-1.8-4.9c-1.4-0.5-3.2-0.9-4.4-0.3c-5.5,2.3-10.8,5-16.2,7.6c-0.2-1.3-0.6-3.5-1.1-6.4
		c-7.9,6.3-14.9,12.3-16.2,22.7c-0.6,5.1-1.6,10.2-2.7,15.3c-1.6,7.2-6.8,12-11.9,17.1c-0.7-19-0.7-37.7-0.7-56.4
		c0-0.6,0-1.4,0.3-1.8c5.2-5,10.2-10.3,16-14.7c5.2-3.9,11.4-6.4,16.7-10.1c5.2-3.6,8.5-8.9,10.4-15.1c-1.5-0.8-2.8-1.5-4.3-2.3
		c6.3-10.6,12.9-20.8,10.9-33.8c-2.4,2-4,4.4-5.8,6.6c-2,2.3-4.2,5.9-6.5,6c-3.2,0.2-4.1,1.9-5.6,3.6c-1.2,1.4-2.2,2.8-3.7,4.6
		c-0.7-2.1-1.2-3.6-1.8-5.5c-9,8.8-14,19.4-16.4,31c-1.4,6.6-5.6,10.7-10.1,15.1c-0.6-13.3-0.7-26.5-0.5-39.7c0-1.1,1.8-2.5,3-3.3
		c6.6-4.4,13.5-8.2,19.7-13c3.4-2.6,5.5-6.9,8.2-10.4c-0.4-0.4-0.7-0.8-1.1-1.3c-3,0.9-6.1,1.8-9.1,2.7c0.2-1.9,1-3,2-4
		c2.2-2.5,4.8-4.7,6.7-7.5c1.5-2.2,3-5-1-6.7c4.9-6.7,7.4-13.9,7.3-21.8c-0.4-0.3-0.8-0.6-1.2-1c-4.3,5-8.7,10.1-13.4,15.6
		c-0.9-3-1.8-5.6-2.6-8.3c-0.4-0.2-0.8-0.3-1.3-0.5c-5.5,8.7-11,17.4-16.8,26.6c-0.6-1.2-1.1-1.7-1.1-2.2
		c-0.2-7.5-0.5-14.9-0.4-22.4c0-1.2,1.6-2.7,2.8-3.5c3.1-2.1,6.8-3.6,9.6-6c3.5-3,5.9-6.9,6.4-12c-1.7,0.2-3.1,0.4-4.4,0.5
		c-0.2,0.2-0.3,0.4-0.5,0.6c-0.4-0.1-0.8-0.3-1.1-0.4c0.5-0.1,1.1-0.1,1.6-0.2c2.6-3.2,5.6-6.2,7.4-9.8c2.1-4.2,3-8.9,4.2-13.5
		c0.3-1.2-0.5-2.7-0.8-4c-1.2,0.5-2.6,0.7-3.4,1.6c-3,3.2-5.8,6.5-8.8,9.9c-1.4-1.5-2.5-2.7-3.9-4.2c-2.9,4.4-5.6,8.6-8.3,12.7
		c-0.5-0.2-0.9-0.5-1.4-0.7c-0.5-8.2-3.1-16.8,5.2-23.4c1.4-1.1,2.6-2.6,3.5-4.2c2.3-4,5.3-7.8,3.5-13.7c-1.9,1.4-3.3,2.8-4.9,3.6
		c-1,0.5-3,0.7-3.4,0.2c-0.7-1-1.1-2.9-0.5-3.8c1.3-2,3.5-3.4,4.8-5.4c1.7-2.6,2.8-5.5,4.1-8.2c-0.6-0.4-1.2-0.8-1.8-1.2
		c-3.6,3.2-7.3,6.4-11.1,9.8c-0.5-4.5,0-8.2,3.3-11.5c4.1-4.1,7.1-8.7,6.2-15c-5.7,0.2-5.8,8.9-12.8,8c2.4-7.7,8-14.3,5.3-23.3
		c-2.2,2.7-4.1,5-6.5,7.9c-1.4-6.2-2.6-11.5-3.8-16.7c-0.5,0.1-1.1,0.1-1.6,0.2c-4.3,9-2.2,18.8-3.3,29.3c-2.8-3.5-5.1-6.2-7.4-9.1
		c-3.5,7.9,3.4,12.7,5.7,19.6c-3.1-1.4-5.2-2.4-8-3.7c-0.3,10.3,6.6,16.1,12,22.7c-7.5,2.1-9.4-4.9-13.8-7.8
		c-1.8,6.6,1.6,15,8.5,18.1c8.4,3.7,10.6,9.6,9.8,17.9c-0.2,2.1,0.2,4.3,0,6.4c-0.2,1.5-0.9,2.9-1.4,4.4c-1.1-0.9-2.5-1.6-3.3-2.7
		c-3.8-5.3-7.5-10.6-11.3-16.2c-3.1,2.8-3.5-0.8-4.6-2.6c-1.5-2.2-3.1-5.3-5.6-1.6c-3.1,4.5-4.9,10.3-2.1,15.2
		c5.1,9,11,17.8,22.4,20c4.6,0.9,6.8,3.4,6.9,8.1c0,9,0.2,18,0.2,27c0,0.7-0.4,1.4-0.6,2.1c-6.3-2.9-9.2-7.9-9-14.2
		c0.2-5.4-1-10.6-4.2-15.4c-1.5,1.7-2.6,3-3.7,4.1c-5.6-6.6-10.8-12.9-16.1-19.2c-0.6,0.2-1.2,0.5-1.8,0.7
		c1.5,7.2,3.1,14.5,4.6,21.7c-1.8,0.2-3.7,0.4-5.6,0.6c-0.2,0.5-0.5,0.9-0.7,1.4c5.8,4.3,11.6,8.6,17.4,12.8c-0.3,0.5-0.7,1.1-1,1.6
		c-3.3-1.1-6.6-2.2-10-3.3c-0.5,4.2,3.7,10.2,8.8,11.6c7.1,1.8,13.2,5.1,19,9.5c2.2,1.7,3.1,3.4,3.1,6c0,16,0,32,0,48
		c0,1.1-0.3,2.2-0.6,3.9c-9-12.2-11-27.1-18.7-39.1c-0.5,0.1-1.1,0.2-1.6,0.4c-0.2,3.1-0.5,6.2-0.8,10.7c-3-5.9-5.3-10.5-7.6-15.2
		c-0.4,0.2-0.8,0.3-1.2,0.5c-0.6,2-1.2,3.9-1.9,6.6c-5.9-7.6-11-15.2-20.3-18.5c0.7,13.9,8.1,24.2,16.7,34c0.1,2.3,0.4,4.7,1.5,6.4
		c4.3,6.5,10.7,10.1,17.9,12.7c9.8,3.5,16.9,14.3,16.8,24.6c-0.1,16.2-0.2,32.3-0.2,48.5c0,1.6,0,3.2,0,4.8
		c-8.1-9.2-16.5-17.9-17.6-30.8c-0.3-3.6-1.4-7.2-2.8-10.5c-1.3-3.2-3.5-5.9-5.8-9.7c-1.2,2.7-1.8,4.1-2.5,5.8
		c-3.8-4.8-7.2-9.1-11.4-14.4c-0.8,3.5-1.2,5.5-1.9,8.7c-6.2-5.8-11.9-11.1-18.1-17c-0.3,2.4-1.1,4.3-0.7,5.9
		c1.4,6.2,2.6,12.5,5,18.3c5.8,13.7,17.4,22,29,30.3c4,2.9,8,6.2,11.2,9.9c4.4,5.2,8.3,10.9,12,16.7c1.5,2.3,2.7,5.2,2.7,7.9
		c0.1,16.5-0.1,32.9-0.2,49.4c0,0.5-0.3,1-0.7,2.4c-7.6-11.2-14.9-21.6-16.7-34.7c-0.6-4.5-1.7-9-2.5-13.5c-0.5-2.7,0.1-6.2-4.6-5.4
		c-0.5,0.1-1.3-1.5-1.9-2.2c-1.2-1.3-2.4-2.6-3.6-3.9c-2.1-2.2-4.3-4.4-6.4-6.7c-1.2-1.3-2.2-2.6-3.3-3.9c-0.5,0.3-0.9,0.5-1.4,0.8
		c0.3,4.5,0.6,9,0.9,13.5c-17.4-3.9-17.4-3.9-20.6,0.9c1.7,1.6,3.4,3.3,5.2,4.9c3.2,3,6.4,6.1,9.6,9.2c0.7,0.7,1.7,2.3,1.5,2.5
		c-2.7,3,0.3,4.7,1.7,6.1c4.5,4.2,9.5,8.1,14.2,12c2.8,2.3,6.3,4.1,8.3,7c6.5,9.5,12.6,19.4,18.5,29.3c1.2,2.1,1.6,4.9,1.7,7.4
		c0.2,14.6,0.1,29.3,0.1,43.9c0,1.5-0.2,3-0.4,4.5c-0.4,3.3-1.4,6.6-1,9.7c0.4,3.1,3.2,9.5,6.9,10.1c5.7,0.9,8.1-8.4,10.1-12.3
		c-0.6-2.7-1.4-4.8-1.5-7c-0.3-12.5-0.4-25-0.6-37.5c-0.2-12.4,7.7-23.1,19.9-25.6c11.3-2.4,18.1-10,23.8-19
		c0.9-1.5,0.4-3.8,0.6-5.8c2.5-4.7,6.1-9.3,9-14.2c1.4-2.3,1.5-5.4,2.2-8.1c-3.1,0.7-6.6,0.6-9.2,2.1
		C1157.7,633.5,1157.8,633.8,1155,626.2z"/>
	<path fill="#C49A6C" d="M1127,404.2c0.2-0.2,0.3-0.4,0.5-0.6c-0.6,0.1-1.1,0.1-1.6,0.2C1126.2,403.9,1126.6,404,1127,404.2z"/>
	<path fill="#C49A6C" d="M170.4,100.8c5.4,13.1,15,23.8,27.7,29.3c11.5,5,18.5,11.6,21.9,23.4c1.9,6.4,5.8,12.2,8.6,17.7
		c-9.9,0-19.9,0-30.2,0c9.3,12.4,20.1,21.3,33.7,17.1c1.9-0.6,5,0.8,6.7,2.2c3.4,3,5.9,7,9.4,10c12.7,11,26.4,20.6,41.4,28.3
		c1,0.5,1.9,1.1,2.2,1.2c-10.3,2.7-21,5.6-32.4,8.6c11.2,13.5,25.3,16.9,37.2,8.4c7.5-5.3,14.2-4.8,21.3-0.9
		c8.5,4.7,16.9,9.7,24.8,15.3c9.3,6.6,18.4,13.6,26.9,21.1c6.2,5.5,12.4,11.3,13.9,20.3c4.4,26.7,9.4,53.3,13.5,80.1
		c3.2,20.9,5.3,42,7.7,63c2.8,25.4,5.1,50.9,8.2,76.3c1.9,15.5,4.7,31,7.2,46.4c0.3,1.6,1.1,3.1,1.6,4.7c0.4-0.1,0.7-0.2,1.1-0.3
		c-0.7-9.4-1.3-18.8-2.1-28.1c-2.9-34.9-5.6-69.9-9-104.7c-2.3-23.8-4.3-47.7-8.9-71.1c-7.4-37.4-16.7-74.4-25.4-111.5
		c-3.7-15.8,2-28.7,11.6-40.5c3.6-4.4,7.6-4.6,11.5-0.7c2.8,2.8,5.4,6.3,6.7,10c11.6,32.5,17.1,66.3,19.1,100.5
		c1.7,29.5,1.5,59.1,2.1,88.7c0.9,39.5,1.8,78.9,2.7,118.4c0.1,3.1,0.6,5.3,4.5,5.4c3.6,0.1,4.5-1.5,4.9-4.9
		c2-17.1,4.5-34.1,6.4-51.2c2.8-25.4,5.7-50.9,7.9-76.4c2.4-27.3,4.2-54.7,5.9-82.1c1.9-30.6,4.2-61.2,4.9-91.8
		c0.5-26.5-0.8-53-1.8-79.5c-0.2-5.2,1.8-8.4,5.4-11.2c11.4-8.8,16.1-20.8,16.5-34.7c0.5-17.3-5-27.7-21.7-33.9
		c-8.2-3-15.8-7.7-23.6-11.6c-2.9-1.4-5.7-3-8.6-4.1c-2.1-0.7-4.4-0.8-6.5-1.1c0.7,4.2,2.1,7.6,1.8,10.9
		c-1.2,12.5-4.5,24.4-12.1,34.8c-1.2,1.6-1.8,3.9-2,5.9c-1.2,10.6,2.6,19.6,10.2,26.7c7.6,7.2,15.1,15.1,27.5,11.4
		c3.5-1,5.9,0.7,6.2,4.7c0.5,6.2,1.4,12.4,1.7,18.7c2.3,41.5,0.2,82.9-2,124.3c-1.6,30.1-3.3,60.3-5.3,90.4
		c-1.3,18.4-3.1,36.7-5.1,55.1c-1.7,15.3-4,30.5-5.9,45.7c-1,7.7-1.8,15.5-2.7,23.2c-0.4,0-0.9,0-1.3,0c-0.4-7.2-1.2-14.4-1.3-21.7
		c-0.5-34.2-0.9-68.3-1.1-102.5c-0.2-33.1-1.2-66.1-7.2-98.8c-4-21.8-9-43.4-17-64.2c-0.8-2.2,0.1-5.1,0.4-7.7
		c0.3-2.9,0.7-5.9,1-8.8c0.2-2.3-0.3-4.9,0.6-6.9c3.1-7.5,4.9-15.2,4.1-23.1c-1.3-12.1-2.6-24.2-5.1-36.1
		c-1.8-8.3-5.5-16.3-8.4-24.4c-0.4,0.1-0.9,0.1-1.3,0.2c-0.4,1.4-0.7,2.8-1.2,4.2c-2.1,7.1-4.3,14.2-6.2,21.3
		c-1.7,6.3-3.3,12.6-4.3,19.1c-1.9,12.4,0.3,24.5,3.7,36.5c0.5,1.9-0.1,4.8-1.3,6.4c-6.6,8.7-11.5,18.2-15,28.5
		c-0.9,2.8-2,5.6-3.4,9.7c-1.5-2.7-2.4-4-2.9-5.4c-9.3-26.2-20.9-51.4-35.5-74.9c-7.2-11.5-6.2-21.5-1.6-32.6
		c0.9-2.1,1.8-4.2,2.8-6.3c6.9-14.6,9.1-29.9,6.9-45.8c-0.2-1.4-1-2.7-1.5-4c-0.4,0.1-0.8,0.1-1.2,0.2c0,10.4-5.8,18.6-10.1,27.3
		c-4.4,9.1-7.6,18.6-8.4,28.7c-0.1,1-0.5,2.1-0.9,3.8c-0.8-1.3-1.3-1.7-1.4-2.3c-6.9-22.9-19.9-43.8-21.1-68.5
		c-0.3-6-1.6-12.3-6.4-17.9c0,10.8-1.4,21,0.4,30.5c1.8,9.5,6.9,18.4,10.5,27.6c-0.2,0.2-0.5,0.5-0.7,0.7
		c-6.6-5.8-13.2-11.6-19.8-17.5c-0.4,0.2-0.8,0.4-1.2,0.6c0.2,3.1-0.1,6.3,0.7,9.3c3.4,11.9,10.3,20.8,22.1,25.6
		c3.6,1.4,8.2,3.2,9.8,6.1c3.9,7.2,6.2,15.3,9.5,23.8c-9.1-4-17.2-7.3-25.1-11c-1.1-0.5-2-2.6-2.2-4.1c-0.8-7.5-5.3-12.9-10-18.2
		c1.2,2.8,2.4,5.6,3.2,7.7c-13.2-10.7-26.7-21.8-40.2-32.8c0.2-0.3,0.4-0.6,0.7-1c4.2,1.7,8.4,3.4,12.6,5.2c0.2-0.4,0.3-0.9,0.5-1.3
		c-7.8-6.1-16.1-11-27.7-10.2c0.8,3.5,1.2,6.4,2.1,9.3c4.7,14.7,14.1,26.5,23.3,38.5c8.2,10.6,18.5,17.6,32.8,16.5
		c11.6-0.9,21.7,2.9,30.2,10.6c4,3.6,8,7.6,10.9,12.1c4.8,7.6,8.8,15.6,12.8,23.6c13.4,27.1,21.5,56.1,30,85
		c0.2,0.6-0.1,1.3-0.1,2.6c-1.1-1-1.9-1.5-2.5-2.1c-13.5-14.9-29.5-26.9-46.9-36.8c-16.4-9.3-33-18.4-49.3-27.8
		c-7.8-4.5-13.8-10.8-17.5-19.3c-3.5-8-4.3-16.4-4.6-25c0-1.7-0.7-3.4-1-5.1c-0.5,0.1-1,0.2-1.5,0.2c-3.7,9.5-1.1,19,0.5,28.7
		c-1.8-1.1-3.3-2.2-4.3-3.6c-6.1-8.4-12.6-16.5-17.9-25.3c-7.6-12.5-13.6-25.7-15-40.8c-2.5-27.6-18-46.1-42.5-57.5
		c-6.2-2.9-12.9-4.2-21.3-2.7c1.4,4,2,8.1,4,11.1C162.2,83.9,166.7,92,170.4,100.8z M466.7,79.7c7.6,2.6,11.8,8.1,13.5,15.8
		c2,8.8,1.5,17.5-1.5,26c-0.5,1.5-1.5,2.8-2.5,4.7c-2.5-9.6-3.9-18.8-7.4-27.1c-3.5-8.4-9.1-15.9-13.5-23.3
		C458.4,76.9,462.6,78.3,466.7,79.7z M445.2,139.5c-1.4,0-2.9,0.2-4.3,0c-13.8-1.9-25.6-16.1-25-29.8c0.1-1.2,0.1-2.5,0.7-3.5
		c0.5-0.9,1.7-2,2.6-2c0.7,0,1.8,1.4,2.2,2.4c1.3,3.9,2.3,7.8,3.6,11.7c2.7,7.8,7.8,13.6,15.4,17.1c1.8,0.8,3.4,2.1,5.2,3.1
		C445.5,138.9,445.3,139.2,445.2,139.5z M450.7,137.6c-4.6-2.7-9.1-5.6-13.4-8.7c-10.9-7.7-15.5-20.2-12.4-33.3
		c1.7-7.3,3.5-14.5,5.1-21.7c0.5-2.3,0.3-4.8,0.8-7.2c0.2-1.3,1-2.6,1.5-3.9c1.3,0.8,3.2,1.4,3.8,2.6c2,3.7,4.1,7.5,5.3,11.6
		c4.5,15.7,8.7,31.6,12.9,47.4c0.1,0.4,0,0.9-0.2,2.7c-11.5-18.4-11.1-39.9-21.7-58.5c3.6,12.7,6.5,24.3,10.3,35.6
		c3.8,11.3,8.4,22.3,12.9,34.3C453.7,138.2,451.9,138.4,450.7,137.6z M440,69.9c0.5-0.3,1-0.6,1.4-0.9c8.1,6.1,14.9,13.7,20.7,22
		c6.3,8.9,9.5,19,10.2,29.9c0.1,1.8-0.2,3.6-0.3,5.4c-0.4,0.1-0.8,0.2-1.2,0.2c-1.2-4.6-2.2-9.3-3.7-13.9c-1.5-4.8-3.3-9.5-5.4-14
		c-2-4.4-4.6-8.6-6.8-12.4c3.9,9.9,7.9,20.1,11.7,30.5c1.1,3.1,1.6,6.5,2.2,9.8c1,5.8-0.6,7.9-7.3,9.4
		C454.5,113.8,447.3,91.8,440,69.9z M410.2,158.6c3.9,12.4,2.3,24.4-2.1,36.2C405.3,192.3,406.8,168,410.2,158.6z M404.2,135.8
		c4.1,2.5,4.8,6.2,4.3,9.8c-2.2,14.6-4.3,29.2-3.1,44.1c0,0.2-0.3,0.5-0.4,0.8c-3.5,1.1-4-1.8-4.2-3.8c-0.5-9.3-1.4-18.6-0.8-27.8
		C400.4,151.3,402.6,143.7,404.2,135.8z M396.2,139.9c0.8-2.1,2.5-3.9,3.8-5.8c0.5,0.2,1.1,0.4,1.6,0.6c-1.9,8.9-4.5,17.7-5.4,26.6
		c-0.9,9.1-0.2,18.4-0.2,28.4c-0.9-1.4-1.9-2.2-2.1-3.3C390,170.7,390.6,155.2,396.2,139.9z M294.2,56.6c2,10.3,4,20.6,6,31
		C293.3,78.2,292.8,67.6,294.2,56.6z M284.7,92.1c5.4,8.2,15.3,10.8,20.3,19.4C296.8,112.1,286.1,101.8,284.7,92.1z M243.3,96.6
		c14.6,13,29.2,26,44.1,39.2C271.5,138.6,247.8,115,243.3,96.6z M286.7,131.9c-15.4-13.7-30.7-27.5-47.1-42.1
		c9.7,2.3,43.8,31.8,48.2,40.9C287.5,131,287.1,131.4,286.7,131.9z M324.6,135.9c-2.2-17.7,6.9-32.4,14.9-47.4
		c0.4,0.1,0.8,0.2,1.2,0.3c-0.7,3.8-0.9,7.7-2.2,11.2C334,112.1,329.2,124.1,324.6,135.9z M273.1,241.6c0-0.5-0.1-1-0.1-1.6
		c7-0.7,14.1-1.4,21.8-2.2C290.9,243.1,280.7,244.6,273.1,241.6z M230.9,180.6c-7.3,2.1-13.8-0.2-20.1-3.7c0.1-0.5,0.2-1,0.3-1.5
		c6.7,1.2,13.4,2.4,20.2,3.6C231.1,179.5,231,180,230.9,180.6z M170.4,89.1c0.4-0.3,0.7-0.6,1.1-0.9c11.6,12.4,23.2,24.8,35.5,38
		C193.3,126.6,172.8,104.9,170.4,89.1z M208.2,111.7c-13.3-13.9-26.7-28.1-38-39.9C185.6,73.5,209.2,96.4,208.2,111.7z M205.4,115.4
		c-0.4,0.4-0.9,0.9-1.3,1.3c-13-13.7-25.9-27.5-39.1-41.5C180.4,87,192.7,101.4,205.4,115.4z"/>
	<path fill="#C49A6C" d="M253.3,448.3c1.8-0.2,3.7-0.3,5.4-0.6c6.5-1.2,12.8-3,16.4-10.2c-10.1-2-18.4,3.5-27.4,5.5
		c0.9-7.9,3.4-11.2,10.1-13.4c1.6-0.5,3.3-0.8,4.8-1.3c5.8-1.9,8.8-5.3,8.5-10.5c-5.5,1.9-10.9,3.8-16.2,5.6c-0.3-0.2-0.7-0.4-1-0.7
		c3.3-6.1,6.8-12,9.9-18.2c1.2-2.3,4.8-5.9-1.6-6.8c-0.4-0.1-0.8-1.1-0.9-1.8c-0.4-3.6-2.6-3.3-5.6-2.8
		c-0.4,17.4-3.7,33.8-13.2,49.7c-0.8-3.4-1.4-5.6-1.9-7.9c-6-0.5-5.9-0.3-4.4,5.2c1,3.9,2,8.2,1.3,12c-1.7,9.4-4.2,18.6-6.5,27.9
		c-0.2,0.8-1.1,1.5-2.3,3.2c-0.6-12.4-1.1-23.6-1.8-34.8c-0.2-3.3,0.5-5.9,3.1-8.1c1.3-1.1,2.1-2.9,3.1-4.4
		c-0.3-0.3-0.6-0.5-0.9-0.8c-2.1,0.9-4.3,1.9-7,3.1c-0.8-7.4-1.4-14.4-2.2-21.5c-0.3-2.9,0.6-4.3,3.4-5.5c4.8-2.1,8.9-5.5,10.4-10.9
		c0.4-1.5,0.2-3.8-0.8-5c-0.6-0.8-3-0.4-4.5-0.2c-1.7,0.3-3.3,0.9-5.2,1.5c2.8-8.5,5.7-10.1,13.5-8c1.3,0.4,2.8,0.7,4,0.4
		c1.6-0.4,3.1-1.3,4.6-2.1c-1.2-1.2-2.2-2.8-3.6-3.4c-2.8-1.2-5.9-1.9-10.1-3.2c3.2-2.3,5.5-3.7,7.5-5.5c2.4-2.2,4.6-4.7,6.7-7.3
		c0.5-0.6,0-1.9-0.1-2.9c-1,0.1-2.2,0-2.9,0.5c-2.1,1.5-4,3.3-5.9,5c-0.7-3.2-1.4-5.9-2-8.6c-3.5,4.9,2.5,12.1-6.4,15.7
		c0-5.9,0-11.2,0-16.6c-5.5,0.2-7.1,2.7-5.7,7.7c1.1,3.7,2.4,7.3,3.8,11.6c-3.6-1-6.2-1.7-8.7-2.5c-0.2,0.3-0.4,0.7-0.6,1
		c2,2.4,5.2,4.6,5.5,7.1c0.3,2.7-2.2,5.7-3.5,8.5c-0.5-0.1-1-0.3-1.5-0.4c-1-9.1-2.2-18.1-2.7-27.2c-0.1-3,1.3-6.5,3-9.1
		c5.6-8.8,14.7-13.5,23.3-18.6c1.3-0.8,2.4-2,4-3.4c-3.5-1.3-5.8-2.2-7.8-3c-1.6,2.4-3.1,4.7-5.2,7.9c-1-3-1.6-4.6-2.1-6.3
		c-0.5-0.1-1-0.3-1.5-0.4c-1.6,3.8-2.7,7.9-5,11.3c-2.5,3.6-6,6.6-9,9.8c-0.5-0.3-1-0.5-1.4-0.8c0.6-2.5,1-5.2,1.9-7.6
		c1.9-5,4.3-9.8,6.2-14.7c2.8-7.1,3.8-7.9,11.5-7.6c6.6,0.3,11.5-4.5,11.8-12.5c-5.5,1.8-10.8,3.6-16.7,5.6c2-8,12.6-7.9,12.4-16.9
		c-2.6,1.7-4.9,3.2-7.2,4.7c-0.4-0.3-0.8-0.5-1.2-0.8c1.7-2.9,3.6-5.7,4.9-8.8c0.8-1.9,0.6-4.2,0.4-6.3c0-0.3-2.8-1-3-0.7
		c-1,1.6-1.9,3.5-2.3,5.4c-0.5,2.8-0.5,5.7-0.8,9.6c-4.2-5.3-3.1-12-8.6-15c-2.9,4.7-2.3,8.7,1.9,13.8c4.3,5.3,4.3,5.9,0.4,11.7
		c-2.6-2.9-5.1-5.7-7.6-8.5c-0.6,0.4-1.3,0.8-1.9,1.1c1.7,3.9,3.3,7.9,4.9,11.7c-0.8,0.1-1.9,0.3-3.6,0.5c4.7,8.4,1.2,14.8-4,21.5
		c-0.3-1.6-0.6-2.6-0.7-3.6c-0.6-15.7-1.2-31.4-1.5-47.1c0-2.2,1.7-5,3.4-6.5c2.3-2.1,5.5-3.1,8.2-4.8c2.8-1.9,5.4-4.1,8.5-6.5
		c-4.4-1.7-7.4-2.9-11-4.3c-0.5,1.4-0.9,3.9-2,5.9c-1,1.9-2.7,3.5-4.1,5.2c-0.4-0.2-0.9-0.5-1.3-0.7c0.3-3.3,0.5-6.6,1-9.8
		c0.9-5.4,4.5-7.7,9.9-6.4c3.1,0.7,6.3,1.8,9.4,1.7c1.6,0,3.1-2.2,4.7-3.4c-1.4-0.9-2.6-2.2-4.1-2.6c-4-1.1-8-1.7-12.5-2.7
		c3.4-6.1,13.8-2.2,14.1-11.7c-2.4,0.3-4.2,0.5-5.9,0.7c-1.5-2.2-3.7-4.7-5.5-4.4c-3,0.5-3.6,3.6-3.2,6.6c0.2,1.4-0.1,3.1-0.7,4.4
		c-0.6,1.4-1.9,2.5-2.9,3.7c-0.4-0.2-0.9-0.4-1.3-0.6c-0.1-1.6-0.1-3.2-0.3-4.8c-0.2-1.4-0.2-3.1-1-4.1c-4.4-5.4-4.4-5.3,0.8-10.3
		c1-1,1.2-2.9,1.8-4.3c-1.5-0.3-3-0.7-4.5-0.7c-1.5-0.1-3,0.2-4.4,0.3c-0.1-0.4-0.2-0.8-0.3-1.2c-1.2,1.1-2.5,2.2-2.9,2.5
		c-2.8,0-5.6-0.8-6.4,0.1c-3.4,3.9,2.1,5.4,3.2,8.9c-1.9,1.3-3.7,3.2-5.8,3.7c-2.1,0.5-4.5-0.5-7.1-0.9c-0.2,0.7-0.5,1.9-0.8,3
		c-2.3-0.5-4.3-0.9-6.3-1.3c-0.2,0.4-0.5,0.8-0.7,1.1c1.7,1,3.4,2,4.3,2.5c-1,3-1.6,4.8-2.1,6.6c2,0.5,4,1.1,6,1.6
		c0.3,0.1,0.6,0,0.9,0c4.2,0,6.3,3.3,4.9,7.3c-0.6,1.6-0.6,3.5-0.6,5.2c0,1.7,0.3,3.3,0.4,5c-0.4,0.1-0.8,0.2-1.2,0.3
		c-1.7-2.3-3.4-4.5-5.1-6.8c-1.3-1.8-2.7-3.9-5-1.7c-2.2,2-1.2,4.2,0.6,6c1.8,1.8,3.8,3.4,6,5.3c-3.7,1.8-6.9,3.3-10.2,4.8
		c3.5,4.8,5,5.1,10.8,2.6c4.9-2.2,14.3,1.4,14.7,6c1,10.6,1.4,21.2,2.2,33c-7.4-4.5-13.9-8.5-20.5-12.4c4.2-6.5,4-12.1-0.3-18.4
		c-4.4,4.3-2.7,9.5-2,15.4c-2.7-3.5-4.7-6.2-6.8-8.9c-0.4,0.2-0.8,0.5-1.3,0.7c0.7,2.9,1.3,5.9,2,9.1c-6.3,0-11-8.4-18.4-2.5
		c1.2,1.4,2.2,2.9,3.5,3.9c5.4,4.3,11.6,5.5,18.4,5.5c3.3,0,6.7,1.4,9.8,2.7c2.2,0.9,3.8,3.1,6,4.2c7.5,3.8,11.8,9.3,10.6,18.2
		c-0.1,1,0.3,2.1,0.4,3.2c0.4,4.6,0.8,9.2,1.3,15c-4.2-2.9-7.7-5-10.9-7.4c-6.5-4.8-7-7.4-3.4-14.7c1.2-2.4,1.9-4.8-2-7.3
		c-1.5,4.4-2.8,8.4-4.6,13.9c-1.6-3-2.8-4.8-3.6-6.8c-0.6-1.7-0.5-3.6-1.1-5.3c-0.3-1-1.3-1.8-2-2.6c-0.8,1-2.1,1.9-2.2,3
		c-0.2,1.9,0.4,3.8,0.5,5.2c-5.5,0.6-10.9,1.1-17.3,1.8c4.5,5.9,8.7,7.5,14.4,5.8c2.9-0.9,6.6-2.4,8.7,2.5
		c-4.2,2.4-8.4,4.4-12.3,7.1c-1.5,1-3.3,4.2-2.9,4.9c1.4,2,3.7,3.7,6,4.4c1.3,0.4,3.6-1.2,4.7-2.6c2.2-2.7,3.7-6,5.9-8.7
		c0.9-1.1,3.4-2.3,4.4-1.8c3,1.5,5.5,3.7,8.3,5.7c-0.2,0.3-0.4,0.6-0.5,0.9c-3.5-0.5-7.1-1-11.7-1.7c3.5,6.8,8,9.8,13.9,11.4
		c2.8,0.8,7,2.7,7.4,4.8c2.1,10.3,3.3,20.8,4.8,31.7c-10.6-3.7-12-5.9-12.7-15.8c-0.3-3.5-1.7-7-2.6-10.5c-0.6,0.1-1.3,0.2-1.9,0.3
		c0,5.2,0,10.5,0,16.3c-2.2-1.1-3.7-1.8-5.2-2.5c-3.5-1.6-5.2-3.6-4.6-8.1c0.5-3.5-1-7.4-2.3-10.9c-0.5-1.4-2.7-2.2-4.2-3.3
		c-0.3,0.3-0.6,0.6-1,1c0.2,2.7,0.4,5.5,0.7,9.5c-4.4-4.6-7.9-8.2-11.4-11.8c-0.5,0.5-1,0.9-1.5,1.4c-0.1,8,8,10.6,11.4,16.8
		c-3.2-0.7-6.1-1.9-8.7-3.6c-4.1-2.8-8.1-3.9-12.5-0.7c1.7,7,7.1,5.9,12.4,5.3c-0.8,4.3,1.9,5.1,4.8,5.5c2.4,0.3,4.9,0.2,7.3,0.4
		c4.8,0.4,9.1,2,13.1,5.6c-1.6,1.9-3.2,3.3-4.3,5c-0.7,1.1-0.8,2.6-1.1,4c1.5,0.3,3.3,1.2,4.5,0.7c2.3-0.8,4.2-2.6,6.4-3.5
		c1.3-0.5,3.3-0.7,4.4,0c5,3.4,8.9,7.9,9.8,14.2c0.7,5,1.2,9.9,2,16.3c-8.1-7.6-9.4-19.6-20.6-22.6c-2.3,2.9-0.8,5.4,1.1,7.4
		c2.3,2.4,5.2,4.2,7.8,6.3c2.9,2.3,5.7,4.7,9.5,7.9c-2.9-0.2-4.3-0.3-7.4-0.5c2.1,3.6,3.1,6.7,5.2,8.7c5.2,5,6.6,11.1,6.5,17.8
		c0,1.7,0.5,3.3,0.5,5c0.1,6.2,0,12.5,0,18.7c-3.6-6.2-6.8-12.4-9-18.9c-2.2-6.6-3.3-13.5-5-20.2c-0.5,0-1-0.1-1.6-0.1
		c-1.4,2.9-2.9,5.9-4.3,8.8c-0.3,0-0.6-0.1-1-0.1c-0.6-6-1.3-12-1.9-18.1c-0.6-0.1-1.2-0.2-1.8-0.3c-1.1,2.8-2.2,5.6-3.3,8.4
		c-0.5,0-1-0.1-1.4-0.1c-0.2-6.8-0.4-13.6-0.6-20.4c-0.7,0-1.3,0-2,0c-6.1,5.3-0.3,12-1.1,18.8c-4-3.4-7.3-6.6-11-9.3
		c-2-1.4-4.5-2.2-6.8-3c-0.3-0.1-1.6,1.6-1.5,1.8c1.5,2.2,2.8,4.7,4.9,6.2c4.3,2.9,9,5.1,13.4,7.8c1.3,0.8,2.4,2,3.5,3
		c-8.8,1.4-17.4-3.7-26,1.3c3.9,5.3,8.5,6.2,14.1,5.1c5.3-1.1,10.7-1.7,15.9,1.5c-6.4,2.3-12.4,4.5-19.2,6.9
		c6.2,5.2,12.5,1.2,18.3,2.6c-0.9,1.4-1.9,2.3-2.2,3.4c-0.4,1.9-0.3,3.9-0.4,5.8c1.8-0.4,3.9-0.4,5.3-1.4c2.3-1.7,4.1-4,6.1-6.1
		c2-2.1,3.9-1.8,5.1,0.6c3.4,6.7,6.6,13.6,9.8,20.4c-0.4,0.5-0.8,1-1.3,1.5c-6.5-3.7-12.9-7.3-19.4-11c-0.4,0.2-0.7,0.4-1.1,0.6
		c0.7,1.8,1.2,3.8,2.2,5.4c2.7,4.3,7,6.2,11.6,7.5c7.3,2.1,11.3,6.7,11.4,14.5c0,2.4,0.5,4.8,0.7,7.3c0.5,6.5,0.9,13.1,1.3,19.7
		c-0.3,0.1-0.7,0.1-1,0.2c-2.4-3.4-4.8-6.7-7.2-10.1c-0.4,0.3-0.8,0.5-1.1,0.8c-0.1,6.8,0.7,13.2,5.4,18.7c1.5,1.7,2.7,4.2,2.8,6.5
		c0.8,10.9,1.2,21.9,1.6,32.9c0.1,1.4-0.2,2.9-0.3,4.4c-0.4,0.1-0.8,0.2-1.3,0.3c-1.4-3.2-3.7-6.4-4.2-9.7
		c-1.7-11.7-2.6-23.5-4.1-35.3c-0.3-2.7-1.6-5.3-2.5-7.9c-0.6,0.1-1.3,0.1-1.9,0.2c-1.6,3.6-3.3,7.2-5.2,11.6
		c-1.4-2.1-2.9-3.6-3.4-5.3c-1.9-6.1-3.6-12.2-5-18.4c-0.9-3.9-0.1-7.5,3.1-10.4c1.4-1.3,2.3-3.2,2.9-5.1c0.4-1.1-0.3-2.5-0.5-3.8
		c-1.2,0.3-2.5,0.4-3.6,0.9c-1.5,0.7-2.7,1.8-3.8,2.6c-1.1-1.5-2.6-4-2.8-3.8c-3.5,1.8-5.2-0.6-7.3-2.6c-0.6-0.6-2.1-0.3-3.2-0.4
		c-0.4,0.4-0.8,0.8-1.2,1.2c1.8,3.1,3,7,5.6,9.3c6.7,6.1,6,14.5,8.5,22.6c-6.1-1.9-10.4-4.6-12.7-9.9c-0.7-1.7-1.2-3.5-2.2-5
		c-0.6-1-2-1.5-3-2.2c-0.8,1.1-2.4,2.5-2.1,3.4c0.8,2.8,1.6,6.2,3.6,8.1c3.6,3.4,8.1,5.8,12.2,8.7c1.5,1,2.9,2.2,5.3,3.9
		c-6.2,0.3-11.4-4.3-16.4,0.7c4.2,4.8,8.7,7.8,15.2,7.1c7.1-0.7,11.3,5.1,16.8,8.2c0.6,0.3,0.8,1.6,0.9,2.5
		c1.2,7.8,2.3,15.6,3.5,24.3c-1.4-1.6-2.3-2.7-3.2-3.8c-3.4-3.9-6.6-8-10.2-11.7c-0.9-1-3-0.9-4.5-1.3c0,1.5-0.6,3.4,0.1,4.5
		c1.9,2.9,4,5.8,6.5,8.1c5.1,4.8,10.5,9.3,15.9,13.7c2.7,2.2,3.9,4.7,3.5,8.3c-1.3,10.7-2.2,21.5-3.4,32.2
		c-0.8,6.9-1.7,13.7-2.6,21.3c-4.7-7.1-6.7-13.8-3.7-21.4c0.9-2.4,0.9-5.1,1.2-7.6c0.6-5.6,0-6.1-5.4-4.9c-0.6,3.8-1.3,7.5-2,11.8
		c-8.2-8.2-10.9-17.4-7.6-24.9c-8.4-2.8-8.5-3.5-4.6-11.9c1.3-2.7,1.7-5.8,2.5-8.7c-0.6-0.4-1.3-0.8-1.9-1.3c-2.9,2.5-5.9,5-8.9,7.6
		c-0.9-5.5-1.9-11.1-2.7-15.6c-4.6-0.3-8.2-0.5-12.1-0.7c-0.7,4.7,1.3,8.5,4.8,11.5c7.5,6.4,9,16.1,14.4,24.6
		c-2.4-0.2-3.6-0.2-4.7-0.5c-4.1-1-8.2-2.2-12.4-3c-1.6-0.3-4-0.8-3.7,2.2c0.3,4,4.5,8.3,8.6,8.7c2.7,0.2,5.5-0.1,8.2,0.3
		c2.6,0.5,5.8,0.9,7.4,2.7c2.9,3.2,4.7,7.2,7.4,11.7c-7.8,0-14.5,0-21.7,0c3.6,6.5,8.4,8.6,16.1,8.5c3.4,0,8,0.5,10.1,2.7
		c5.1,5.2,9.1,11.6,9,19.3c-0.3,11.3-1.2,22.5-2,33.8c-0.1,1-0.6,2-1.3,4c-4.5-8.7-1.8-19.4-11.7-24.5c0.8,5.3,1.7,10.6,2.6,16.5
		c-2.9-1.7-5.4-3.2-8.1-4.6c-8.9-4.7-11.5-12-9.5-21.5c0.2-0.7,0.4-1.5,0.3-2.2c-0.4-3.1-0.9-6.3-1.3-9.4c-0.6,0-1.2,0.1-1.7,0.1
		c-6,5.5-3.5,12.9-3.2,21c-6.6-2.4-12.5-4.5-18.6-6.7c-0.1,9.6,10.3,16.4,16.4,17.2c6.4,0.8,10.1,4.7,15.6,8.1
		c-5.2,2.1-9.6,3.8-14,5.6c5.2,7.4,6.2,8.5,16,4.9c0.1-0.1,0.3-0.1,0.4-0.2c9.1-3.7,14.5-0.6,16.3,9.1c1.7,8.9,3.4,17.9,5.4,26.8
		c0.5,2.3,2,4.4,3.2,6.8c5.9-3.5,3-7.8,2.3-11.4c-1.9-9.9,3.4-15,13.3-12.7c2.3,0.5,5.3-0.4,7.4-1.6c1.3-0.7,2.5-3.6,2-4.9
		c-0.5-1.2-3.1-2-4.9-2.2c-2.3-0.2-4.7,0.3-8.2,0.6c1.5-1.3,2.1-2.3,2.8-2.4c4-0.7,8-1.6,12-1.5c4.1,0.1,6.4-1.7,7.7-5.1
		c0.4-1.2-0.1-2.7-0.2-4.1c-3,0.3-6,0.7-9,1.1c-0.4,0.1-0.6,0.8-1,0.9c-1.2,0.2-2.9,0.8-3.6,0.3c-3.3-2.9-5-1-6.8,1.8
		c-2.2,3.3-4.7,6.4-7.1,9.6c-0.5-0.3-1-0.5-1.5-0.8c0.4-1.5,0.5-3.1,1.2-4.4c2-3.4,3.9-7,6.6-9.8c1.9-2,4.9-3.7,7.6-4.1
		c7.1-1.1,7.8-1.8,6.2-8.2c-2.6-1.8-4.7-3.1-7.1-4.7c-2,2.5-4.3,5.5-7,9c-2.8-6.9-2.8-6.9-7.4-6.1c-1.7,5.5,4.1,10.4,0.8,16.2
		c-2.7,4.7-4.5,9.9-6.7,14.9c-0.5-0.1-1-0.2-1.4-0.3c0.9-12.7,1.5-25.5,2.8-38.2c0.6-6.1,4.3-8.1,10.4-7.1
		c6.9,1.2,10.3-0.5,14.7-7.9c-6.2-0.9-12-1.7-18.4-2.6c1.9-0.9,3.7-1.3,4.9-2.3c6.9-5.9,14.7-8.4,23.8-7.4c3.1,0.4,5.9-1.8,6.4-5.5
		c-2.9-0.5-5.5-1-8.6-1.5c0.8-1.9,1.4-3.2,2.3-5.1c-2.6,0.1-4.4,0.2-6.5,0.4c-0.5-4.6,1.3-8,4.8-10.7c3.2-2.5,6.6-5,9.7-7.6
		c1.3-1.1,2.6-2.6,3.3-4.2c1.1-2.8-0.1-4.9-3.2-4c-4,1.2-7.8,3.1-11.7,4.7c-1.1-1.3-2.4-3.3-4.2-5c-1-0.9-2.4-1.4-3.7-2
		c-0.3,1.7-1.3,3.5-0.9,5c0.7,2.6,2.1,4.9,3.5,7.8c-4.1,0-7.7,0-12.2,0c3.2,3.9,5.8,6.6,7.9,9.7c1,1.4,1.8,3.7,1.4,5.3
		c-1.7,6.4-15.2,16.8-22,17.3c0-0.9-0.1-1.8,0-2.7c1.6-12.9,3.5-25.7,4.6-38.6c0.7-8.1,4.6-12.5,12.3-14.1c5.2-1.1,10-2.9,13.3-7.4
		c1.4-2,2.5-4.2,3.7-6.3c-2.5,0.4-5.1,0.4-7.5,1.3c-3.6,1.3-6.9,3.2-10.3,4.9c1.2-4.8,3.5-8.6,4.7-12.6c2-6.5,5.2-11.5,12.4-13
		c1.6-0.3,3-1.5,4.5-2.3c4-2,5-5.9,5.9-9.8c0.5-2.1-0.6-3.3-2.8-2.6c-3.6,1-7.2,2.1-11.1,3.2c-0.5-0.8-1.1-1.8-2.5-4.2
		c-1.5,3.4-2.6,5.7-3.5,8.1c-3.4,9.2-6.5,18.6-10.2,27.7c-1.4,3.3-4.1,6.1-6.6,9.6c0-22.3,0-43.6,0-65.5c2.2,0.8,3.6,1.3,5,1.8
		c8.7,2.9,17.7-1.3,20.6-9.6c0.7-2,0.4-3.7-2.3-3.9c-1-0.1-1.9-0.3-3-0.4c0.2-0.8,0.4-1.3,0.4-1.7c0-1.4-0.1-2.8-0.2-4.1
		c-1.3,0.7-2.9,1.1-3.8,2.1c-0.9,1-1,2.6-1.4,3.9c-0.6-0.6-1.3-1.2-1.9-1.7c-0.8-1.2-1.5-2.4-2.3-3.6c0.7,8.8-6.2,8.5-11.6,10.5
		c-0.3-2.5-0.5-4.8-0.8-7.1c-0.6-4.2,0.4-6.7,5-8c2.8-0.8,5.5-3.1,7.6-5.3c2.5-2.6,1.5-4.6-2.2-5.2c-2-0.3-4-0.7-6.7-1.2
		c4-4.9,8.6-6,13.5-6.3c5.1-0.4,9.3-2.2,12.7-6.9c-5.1-3.6-10.1,0.3-14.7-0.3c-6.3-0.9-6.7,7.5-12.5,6.7c0.5-6,3.9-12.7,8-16.4
		c2.7-2.4,5.7-4.9,7.3-7.9c1.1-2,0.5-5.3-0.5-7.6c-0.4-0.8-3.9-0.3-6.1-0.3c-0.5,0-1,0.2-1.7,0.4
		C241.6,452.2,244.6,449.5,253.3,448.3z M209,264.6c-0.3,3.9-1.6,7.7-2.6,11.7c-4.6-1.3-6.5-3.6-6.5-7.5c0-3.2,0.9-5.6,3.9-7
		C207.1,260.3,209.2,261.1,209,264.6z M209.1,252.4c-0.4,0-0.9-0.2-1.3-0.2c-1.4,1.4-2.4,2.5-3.7,3.9c-2.1-1.9-4.1-3.5-6.4-5.6
		c3.5-2.3,6.6-4.6,9.9-6.5c2.1-1.2,4.6-1.9,5.9,0.8c1,2.1,1,4.7,1.4,7.1C213,252.1,211,252.3,209.1,252.4z M250.7,528
		c-2.7,0.5-5.1,0.9-8.3,1.5C246.1,524,248.5,523.6,250.7,528z"/>
	<path fill="#C49A6C" d="M805.5,695.9c-1.3-1-2.4-2.3-3.8-3.3c-13.5-10-28.5-16.9-44.6-21.3c-15.3-4.1-30.1-3.7-43.9,5.3
		c-0.7,0.4-1.6,0.6-3.3,1.1c1.4-3.6,2.5-6.4,3.7-9.1c9.3-22.1,18.9-43.9,35.6-61.6c6.3-6.7,13.8-12.5,21.2-18
		c9.2-6.8,18.9-12.8,28.3-19.2c2.1-1.5,4.2-3.2,5.9-5.1c4.7-5.2,4-7.8-2.7-9.8c-7.9-2.3-14.7,0.9-21,5
		c-11.8,7.8-21.6,17.8-30.5,28.7c-17.4,21.3-29.8,45.5-40.6,70.6c-0.7,1.7-1.6,3.3-2.5,4.9c-0.4-0.1-0.8-0.2-1.3-0.3
		c0-5.3-0.1-10.5,0-15.8c0.3-12.8-0.2-25.4,4.5-38.2c10.3-27.9,21.6-55.4,37.2-80.7c10.4-16.9,22.4-32.9,33.7-49.3
		c1.4-2.1,2.8-4.1,4.9-7.1c-2.6,0.2-4,0.1-5.4,0.3c-16.6,3-29.1,11.8-37.9,26.1c-7.4,12.1-10.8,25.7-14.9,39.1
		c-6.1,19.9-12.2,39.8-18.3,59.7c-0.5,1.6-1.5,3.1-2.3,4.6c-0.4-0.1-0.8-0.1-1.2-0.2c-0.2-2.5-0.6-4.9-0.6-7.4
		c0.1-17.1,0.1-34.2,0.4-51.2c0.1-6.2-0.3-12.6,1-18.7c3.7-17.8,12.2-33.5,24.9-46.5c8.5-8.7,18-16.4,26.9-24.7
		c2.8-2.6,5.1-5.6,7.7-8.3c-0.3-0.5-0.7-1-1-1.5c-2.5,0.3-5.1,0.4-7.4,1c-10.2,2.9-18.2,9.1-24.8,17.1
		c-11.2,13.6-18.1,29.5-24.2,45.8c-0.6,1.7-1.5,3.2-2.3,4.9c-0.5-0.1-1-0.3-1.6-0.4c0.8-42,1.6-83.9,2.3-125
		c-4.5-0.8-8.5-1.5-12.5-2.3c0,18.3,0,37.3,0,57.4c-1-1.5-1.4-2-1.6-2.5c-7.3-17.9-19.9-31.5-35-43.1c-10-7.7-20.6-14.6-32.7-18.7
		c-2.1-0.7-4.6-0.3-6.9-0.4c-0.2,0.6-0.4,1.3-0.7,1.9c2.5,2,4.9,4.2,7.7,5.9c8.4,5.2,17.1,10,25.5,15.2c19.3,12.1,35,27.5,42.3,49.8
		c1.6,4.8,1.4,10.1,2.1,15.2c-0.5,0.2-1,0.3-1.5,0.5c-9.2-13.1-20.7-23.2-35.8-28.7c-15-5.5-30-7.1-46.5,0.1
		c3.1,2.3,5.1,4.5,7.5,5.5c7.6,3.1,15.4,5.7,23.2,8.5c16,5.7,31.6,12.1,45.1,22.8c5.1,4,8.1,8.6,8.1,15.8
		c-0.2,33.2,0.3,66.5,0.5,99.7c0,1.4-0.2,2.8-0.3,4.3c-0.4,0.1-0.8,0.1-1.1,0.2c-0.7-1.9-1.4-3.8-2.1-5.7c-6.7-21-13-42.1-20.3-62.9
		c-5.9-16.9-14.1-32.8-27.4-45.3c-6.4-6-13.2-11.6-23.6-13.1c1.9,2.9,3.1,5,4.5,7.1c8.3,12,17.4,23.6,24.7,36.1
		c18.1,31,32.4,63.7,42.7,98.1c1.1,3.6,1.8,7.4,1.9,11.2c0.4,9.7,0.4,19.5,0.6,29.3c0.1,3.7,0,7.5,0,11.2c-0.5,0.1-0.9,0.1-1.4,0.2
		c-0.6-2.1-1.3-4.2-1.8-6.3c-5.4-23.2-13.9-45.1-28.2-64.3c-11.2-15-25-26.7-43.5-31.6c-7.4-2-15-2.3-22,3.4
		c1.1,1.4,1.7,2.9,2.9,3.7c5.6,3.9,11,8,17,11.3c17.7,9.9,36.5,18.3,47.6,36.7c3.8,6.3,8.8,12,12.1,18.5c7.8,15.5,11,32.5,13.2,49.6
		c0.8,6.2,3.2,12.2,3.4,18.3c0.4,15.7,0,31.3-0.1,47c0,4.3,1.8,6.4,5.7,6.6c4.5,0.3,5.5-2.7,5.6-6.1c0.2-4.7-0.1-9.5-0.1-14.2
		c0-10.1,0.2-20.1,0.1-30.2c-0.1-5,1.9-9.1,6.1-10.9c5.8-2.5,12.2-5.5,18.1-5.1c14.2,1,28.5,3,42.4,6.1c9.6,2.1,18.6,6.7,27.9,9.8
		c1.7,0.6,4.7,0.6,5.6-0.4C808.1,700.6,808.2,697.9,805.5,695.9z"/>
	<path fill="#C49A6C" d="M387.8,518.9c-1.9-1.7-4.1-3.8-6.4-0.5c-2,2.8-4.5,3.2-8.5,2.1c6.7-8.1,13.9-15.7,11.9-27.2
		c-2.2,2-3.7,4.5-5.8,5c-4,1-4.5,3.8-5.3,7c-1,4-1.9,8-3.4,11.8c-3.1,7.8-10.1,10.6-17.6,12.8c0.6-2.5,1.6-4.6,2.8-6.6
		c1.2-2,2.9-3.7,3.6-5.7c0.5-1.3,0.2-3.4-0.5-4.6c-0.4-0.6-2.6-0.1-4,0.1c-0.7,0.1-1.4,0.6-2,0.5c-1.7,0-3.4-0.2-5.1-0.4
		c0.2,2.3,0.3,4.6,0.7,6.8c0.4,2.3,1.8,4.6,1.8,6.9c-0.1,5.2-3.7,6.7-8.1,3.8c-1-0.7-2.1-1.6-3.2-1.7c-1.3-0.1-3.1,0.2-3.9,1
		c-0.5,0.5-0.1,2.6,0.5,3.5c0.7,1,2.3,1.4,3.3,2.3c0.9,0.8,2.3,2.1,2.2,2.9c-0.6,3.5-1.6,6.8-2.5,10.2c-5-10.3-8.9-20.7-11.1-31.8
		c-2-9.8,2.4-16,8.7-22c2.5-2.4,4.7-2.4,6,0.8c2,5.2,6.1,5.4,10.5,4.8c1.6-0.2,3-1.4,4.5-2.1c-1-1.2-1.8-2.7-3.1-3.5
		c-2.6-1.7-5.4-3-8.1-4.4c0.1-0.4,0.2-0.8,0.3-1.2c3.1-0.2,6.3-0.5,10.1-0.8c-1.9-2.1-3.3-3.6-5-5.5c8-2.5,15.2,7.2,22.8-0.6
		c-5.2-1.3-10.4-2.6-15.7-3.8c0-0.4-0.1-0.8-0.1-1.2c5-1.7,10-3.3,15-5c4.9-1.7,6.7-4.7,5.7-9.8c-4.2,2.2-8.3,4.3-12.3,6.3
		c1.2-2.9,2.4-5.8,3.9-9.5c-8.8,2-7.2,11.5-13.2,14.9c0-2,0-3.7,0-5.4c-0.3-0.2-0.7-0.3-1-0.5c-2.8,4.2-5.6,8.4-8.4,12.6
		c-0.5-0.3-0.9-0.6-1.4-0.8c0.2-1.3,0.2-2.7,0.5-4c0.4-1.5,1.5-2.9,1.4-4.3c-0.3-2.3-1.4-4.6-2.1-6.9c-1.9,2.1-4.1,4.1-5.7,6.4
		c-0.5,0.7,0.1,2.5,0.7,3.4c3.4,5,1.7,8.4-2.6,11.8c-4.2,3.4-7.8,7.5-12.3,11.9c-0.8-2.5-1.5-3.8-1.8-5.2
		c-1.9-8.7-0.8-17.4,1.5-25.8c2-7.1,4.1-14.5,7.5-20.9c3.7-7,8.3-7.1,14.4-2.1c2.3,1.8,5,3.1,7.6,4.7c0.5-0.6,1-1.2,1.5-1.9
		c-3.5-3.8-7-7.5-10.6-11.4c3.2-2.3,6.2-2.7,9.7-1.4c2.4,0.9,5.1,1.6,7.5,1.4c1.9-0.2,3.5-2.1,5.3-3.3c-1.8-1.1-3.4-2.7-5.3-3.1
		c-2.5-0.5-5.2-0.1-7.8-0.1c-0.1-0.5-0.2-1.1-0.3-1.6c7.1-3.8,15.8-4.7,22.1-11.4c-7-3.7-10.6,4.7-16.5,3.3
		c0.9-4.6,4.8-8.9,1.6-14.3c-4.9,3.4-3.8,9-5.5,13.5c-0.8-1.7-1.5-3.3-2.2-4.9c-0.6,0-1.2,0-1.8,0.1c-0.2,2.3-0.8,4.6-0.5,6.8
		c1.1,6.2-0.2,8.5-7,10.8c-0.3-4.5-0.4-8.8-0.9-13.1c-0.1-1.1-1.3-2-2-3c-0.8,1-2.3,1.9-2.3,2.9c0,3.1-0.3,6.7,1,9.4
		c2.1,4.5,1,7.1-2.9,9.2c-1.5,0.8-2.9,1.9-4.7,3.2c-0.3-5.4-2.1-10.6-0.6-14.6c2.8-7.5,7.5-14.2,11.3-21.3c1.4-2.5,2.5-5.2,3.7-7.8
		c-0.4-0.2-0.7-0.4-1.1-0.6c-1.8,1.3-3.7,2.7-5.5,4c-0.4-0.3-0.9-0.6-1.3-0.9c1.7-4.6,2.8-9.7,5.4-13.7c1-1.5,5.6-0.5,8.6-0.7
		c0.9-0.1,1.9,0,2.7-0.3c3-1,5.3-2.7,5.1-5.9c-5.5,0.3-10.7,0.5-16,0.7c0.8-7.8,2.9-10.1,9.5-11.2c1.8-0.3,3.8-0.7,5-1.8
		c1.2-1.1,1.6-3.1,2.3-4.7c-1.3-0.5-2.6-1-3.9-1.5c-0.9-0.3-2-0.5-2.8-1c-2.3-1.5-3.4-0.5-4.7,1.5c-2.7,4.3-5.7,8.3-9,13.1
		c-2.6-6.9-2.5-13.8-7.8-19c-3.1,5.2,0,9.5,0.5,13.5c-4.3-1.6-9-2.7-13.1-4.9c-1.8-1-3.2-3.8-3.6-6c-0.2-1.3,1.7-3.5,3.2-4.4
		c4.2-2.6,8.6-4.7,13.6-7.4c-5.9-3.9-10.2-0.2-15,0.4c2-7.9,11.3-12.8,8.9-22.6c-1.5,1.4-2.6,2.5-4.1,3.9c-0.6-2.2-1-3.7-1.5-5.3
		c-2.2-0.5-4.3-1-6.5-1.6c2.1-7.3,4.6-13.7,11-17.8c1-0.7,1.9-3.2,1.4-4.1c-0.5-1-2.7-1.7-4.1-1.7c-1.5,0-3.3,0.7-4.5,1.7
		c-2.5,2-3.8,1.1-4.9-1.3c-0.5-1-1-2.1-1.6-3.4c-3,1.8-5.8,5-9,1.8c-3.1-3.1-6.1,0.1-9-0.5c-4.4-0.8-5.8,1.8-6.2,5.6
		c-3.9-1.2-7.3-1.6-8.4,3.1c7.1,6.7,8.4,7.3,14.5,7.3c-0.4-0.9-0.6-1.8-1.1-2.5c-2.5-3.3-1.7-5.3,2.3-6c4.2-0.7,8.4-1.1,12.6-1.7
		c6.8-0.9,8.3,0.3,8,7.4c-0.1,2.3-1.1,5.2-2.7,6.6c-0.9,0.8-4-0.6-6.2-1.1c-0.1,1-0.3,2.8-0.4,4.4c-2.5,0.7-4.8,1.3-7,1.8
		c1.1,2.3,2.1,4.1,2.9,5.8c-7.8,2.6-4.2-5-7.8-7.2c-0.4,2.6-0.7,4.6-1,7.2c-2.3-1.1-5.3-1.7-5.7-3c-1.1-3.7-3.4-2.6-5.3-1.9
		c-1.2,0.4-2.9,2.8-2.7,2.9c1.4,1.6,2.9,3.3,4.7,4.3c1.2,0.6,3.2-0.2,4.5,0.3c5.1,2.1,11.8,3.3,14.6,7.2c4.4,6.1,6.1,14.2,8.9,21.4
		c-0.5,0.2-0.9,0.5-1.4,0.7c-6.2-4.6-6.3-13.3-11.8-19.5c-0.5,2.9-0.8,4.5-1.2,6.6c-4.4-1.5-8.5-2.8-12.5-4.1
		c-0.3,0.6-0.6,1.1-1,1.7c3,2.2,6,4.4,8.9,6.6c-0.7,1.7-1.5,3.6-2.7,6.2c3.3-0.8,5.4-1.4,7.5-1.7c1.5-0.2,3.6-0.8,4.4-0.1
		c3.6,3.6,8.1,7.1,10,11.6c3,7,4.3,14.7,6.3,22.2c-2.6-0.2-4.3-0.9-5.8-2c-5.2-4-10.5-7.7-9.5-15.9c0.4-2.9-2.2-6.3-7.5-6.7
		c1.8,5.5,3.3,10.1,4.9,15.1c-5.4-1.5-10.4-5.1-16-1.5c2.5,5.5,7.8,2.2,11.8,4.3c-2,1.6-3.8,2.8-5.2,4.3c-0.7,0.7-0.8,2.1-1.1,3.2
		c1.1,0.3,2.5,1.1,3.3,0.7c2-0.9,3.8-2.4,5.7-3.7c3.5-2.4,7.9-1.4,9.8,1.8c2.7,4.5,5.4,9.1,8.7,13.1c4.6,5.5,5,12,5.7,18.8
		c-3.8-1.7-7.7-3.2-10.2-6c-2.6-2.8-3.8-6.9-5.6-10.4c-3.9,5.3-9-1.4-13.8,1.1c3.3,2.5,6.7,4.5,10.2,6.4c1.6,0.9,3.3,1.5,4.7,2.6
		c4.1,3.3,8.4,6.6,12.1,10.4c2.1,2.1,4.2,5,4.7,7.8c2.5,14.6-4.8,27.6-6.7,41.6c-4.3-9.5-8.4-18.6-12.3-27.7c-1-2.4-0.2-4.4,2.6-5.3
		c2.4-0.8,5-1.5,7.1-3c1.1-0.8,1.9-3.2,1.6-4.6c-0.5-2.4-1.9-4.6-3.4-7.9c-1.1,1.9-2.2,3.8-3.2,5.7c-0.6,1.2-1,2.6-1.5,3.9
		c-1.3-0.8-2.6-1.5-3.9-2.3c-0.2-0.1-0.6-0.1-1.3-0.3c-1,1.6-2.1,3.4-3.6,5.9c-0.7-7.9-1.3-14.9-2.1-21.8c-0.1-0.9-1.2-2.1-2.1-2.3
		c-1.6-0.4-3.5-0.5-5.1-0.1c-0.5,0.1-0.9,2.7-0.4,3.6c1.9,3.6,1.9,8.1,5.9,10.8c1.5,1,3.1,3.4,0.5,5.8c-2.3,2.2-4.4,2.5-6.9,0.8
		c-1.1-0.8-2.1-1.8-2.7-3c-1.9-3.3-4.6-4.1-8.1-3c0,6.1,2.5,9.3,8.5,9.6c6.1,0.3,10.4,2.9,13.5,7.9c2.2,3.5,4.3,7,6.3,10.6
		c0.8,1.4,1.2,3.1,1.8,5c-4-1.3-7.3-2.4-10.6-3.4c-0.3,0.6-0.6,1.3-0.9,1.9c2.9,1.9,5.9,3.8,8.8,5.6c1.5,0.9,3.9,1.5,4.4,2.8
		c2,4.9,3.5,10.1,5.4,16.2c-8.1-3.1-11.8-8.6-15.1-15.6c-0.5,2.3-0.8,3.4-1.2,5.4c-1.3-2.2-2-3.7-2.9-5c-1.6-2.3-2.6-1.5-3.4,2.4
		c-2.6,0.5-5.2,0.9-8.4,1.5c2.3,5,5.9,6.9,10.4,7c6.9,0.1,12.7,2.9,17.7,7.4c3.1,2.8,4.3,6.2,3.5,11.4c-1.6-2.3-2.7-3.8-3.1-4.5
		c-5.6,0-10.5,0-15.3,0c-0.1,0.4-0.2,0.9-0.2,1.3c4.5,3,8.9,6.2,14.8,6.8c1.4,0.1,3.5,1.5,3.8,2.7c2.3,10.7,4.2,21.4,6.3,32
		c-2.6-2-5.4-4.2-8.3-6.4c-2.8-2-3.6-4.2-2.4-7.8c2.6-7.7,1.2-9.5-6.9-10c-0.6,0-1.2-0.2-1.3-0.2c-2.6-4.5-2-10.8-8.5-12.9
		c-0.9,6.2,1.1,10.5,5.6,13.7c3.8,2.7,5,6.7,6.2,11.5c-6.7-2.3-10.8-6.3-13.9-11.7c-3.4-5.8-10.4-8.3-17-6.3
		c3,6.9,9.5,9.6,15.2,13.8c-5.2,0.6-10.4,1.2-15.5,1.8c0,0.6-0.1,1,0,1.2c0.2,0.4,0.5,0.8,0.8,1.1c3.8,3.9,8.4,4.2,13.1,2.3
		c4.1-1.7,7.8-1.2,11.2,1.3c6.6,4.8,12.9,10.1,19.7,14.6c9.6,6.4,13.1,16.1,15.2,26.5c0.9,4.3,1,8.8,1.6,13.6
		c-5.4-1.5-13.6-7.9-16.3-12c-2.7-4.1-1.2-8.1-0.1-12.3c0.3-1.2-0.6-3.6-1.7-4c-1.2-0.5-3.6-0.1-4.5,0.9c-0.9,0.9-0.4,3-0.7,4.6
		c-0.2,0.9-0.4,1.7-0.7,2.6c-0.1,0.3-0.2,0.6-0.3,0.9h0l0,0c-0.2-0.1-0.3-0.1-0.5-0.2c-0.3-0.1-0.7-0.2-1-0.3s-0.7-0.2-1-0.3
		c-0.5-0.2-0.8-0.4-1-0.7c-1.6-2.6-2.6-5.4-3.9-8.2c-1.1-2.3-2.3-4.7-3.7-7.5c-1.3,1.5-2.2,2-2.4,2.8c-1,3.4-2,6.5-6.5,6.9
		c-0.8,0.1-1.5,3-1.9,4.7c-0.2,1,0.5,2.1,0.6,3.2c0.1,2.9,1.5,4.3,4.3,4.1c2.6-0.2,5.1-0.8,7.7-1c1-0.1,2.1,0.5,3.2,0.8
		c-0.7,1-1.3,2.4-2.2,2.9c-2.2,0.9-4.7,1.4-7,2c-5,1.3-5.9,3.3-3.3,7.8c0.9,1.6,2.3,3,3.8,5c1.9-2.3,3.4-4,4.8-5.7
		c4.7-5.6,10.8-7.7,15.2-5c3.1,1.9,5.8,4.3,9.4,7c-6.6,1.1-12.3,2-18.6,3c5.3,5.3,7.2,5.8,18.1,5.4c7.2-0.3,10.1,3.3,8.4,10.4
		c-0.4,1.6-1.2,3.2-1.5,4.8c-2.2,11.6-4.4,23.2-6.6,34.9c-2.4-3.6-4.9-7.5-7.6-11.3c-6.4-8.9-11.7-18.2-10.7-29.8
		c0.2-1.9-1.6-4-2.4-6c-0.7,0.1-1.4,0.2-2.1,0.3c-0.4,3.8-0.9,7.6-1.4,11.8c-7.6-7.7-17.4-13.5-15.2-26.5c0.3-1.9-0.2-4-0.8-5.9
		c-0.6-2-1.6-3.9-2.4-5.8c-0.6,0-1.3,0.1-1.9,0.1c-1.3,4.6-2.5,9.2-3.8,13.7c-2.5-1.6-5.4-3.4-8.3-5.2c-0.4,0.5-0.8,1-1.2,1.5
		c3.4,6.1,6.5,12.4,12.9,16.4c2.9,1.8,5.9,3.9,8.2,6.4c5.8,6.3,11.3,12.8,16.6,19.4c3.4,4.3,6.2,9.1,9.3,13.7
		c-0.3,0.3-0.5,0.6-0.8,0.9c-4.5-2.4-9-4.7-13.5-7.2c-4-2.2-7.8-4.5-9-9.7c-0.2-1-3.5-1.9-5.1-1.6c-0.8,0.1-2.2,3.7-1.7,4.4
		c2.4,3,5,6.1,8.2,8.2c9.2,5.9,18.9,11.1,28.1,17c2.4,1.5,4.9,4.3,5.6,6.9c2.2,8,3.5,16.2,5.1,24.4c-0.6,0.3-1.1,0.6-1.7,0.9
		c-1.2-1.2-2.7-2.3-3.4-3.7c-0.8-1.6-0.5-3.7-1.4-5.2c-1-1.8-2.7-3.2-4.2-4.8c-0.6,1.7-1.3,3.3-1.9,5c-0.2,0.4-0.3,0.8-0.5,1.2
		c-3.6-0.1-5.1-1.8-5.1-5.4c0-2.9-0.5-5.8-1.2-8.6c-0.4-1.6-1.8-2.8-2.8-4.2c-0.3,0.2-0.7,0.4-1,0.6c-0.4,2.7-0.7,5.3-1.1,8
		c-0.5,0.2-0.9,0.4-1.4,0.6c-1.5-2.6-3.3-5.1-4.6-7.7c-1.9-3.8-4.9-5.8-8.7-4.8c-1.3,0.4-2.9,1.3-3.4,2.4c-0.3,0.7,0.9,2.5,1.8,3.3
		c2.3,2,4.8,3.7,7.3,5.5c2.2,1.6,4.4,3.3,7.5,5.6c-5.2,1-9.2,1.8-13.1,2.6c1.2,1.8,2.9,2.3,4.1,3.4c1.1,1,2.5,2.6,2.4,3.9
		c-0.3,2.5-0.8,4.6,1.9,6.3c1.5,1,2.2,3.9,3.7,4.4c7.7,2.4,7.3,9.4,9.8,14.7c-0.3,0.3-0.7,0.6-1,0.9c-3.2-2.6-6.3-5.1-9.6-7.8
		c-0.4,1.9-0.8,3.3-1.1,4.7c-0.5,0.2-1,0.5-1.5,0.7c-2.8-3.6-5.5-7.3-8.6-10.6c-1.8-1.9-4.4-3-6.7-4.4c0.4,2.6,0.8,5.3,1.3,7.9
		c0,0.3,0.4,0.5,0.6,0.7c6.6,7.9,14.6,13.6,24.8,15.9c6.4,1.5,10.3,5.8,13.2,11.6c-7.7,1.6-12.9-4.2-19.7-5.1
		c4,11.6,15.1,11.1,24.4,14.5c-4.4,2.2-8.9,4.3-14.4,7c3.5,1.9,6.1,4.3,9,4.6c5.3,0.7,9.1,1.8,9.6,8.1c0.1,0.9,2.4,1.6,3.7,2.5
		c0.6-1,1.7-2,1.7-3.1c0.1-3.8,0.2-7.6-0.2-11.4c-0.5-5.1,2-8.2,5.7-11.2c4.7-3.8,9.3-7.8,13.5-12.2c2.7-2.8,4.8-6.4,1.7-10.9
		c-2.6,1.8-5.1,3.6-7.5,5.3c-0.7-2.3-1.3-4.2-1.9-6.2c-0.6-0.1-1.3-0.2-1.9-0.3c-2.4,5.6-4.7,11.2-7.1,16.8
		c-2.1-7.2-2.2-14.1,3.5-19.2c4.3-3.8,9.3-6.8,14-10.1c3.2-2.3,6.3-4.8,9.4-7c-3.9-6.6-8.3-3.6-12.8-2.1c0.2-2.8,0.5-5.2,0.8-9.1
		c-2.2,1.9-4,2.7-4.5,4c-1.2,2.9-2.3,6-2.5,9.1c-0.4,6.7-4.3,10.3-9.8,13c-1.3-8,6.9-15.6,0.4-23.8c-1.4,1.3-2.6,2.3-4.2,3.8
		c-0.6-3.8-1.2-7.1-1.5-10.3c-0.3-2.9-0.7-5.8-0.6-8.6c0.1-7.3,6.3-13.9,13.5-14.6c8-0.8,11.7-3.9,11.6-10c-4.1,0-8.4,4.9-12-0.4
		c-1.4,0.8-2.5,1.5-3.7,2.2c-0.8-1.5-1.3-2.6-2-4c-3.9,1.7-4.1,5.1-4.8,8.3c-0.6,3-1.6,5.8-2.5,8.7c-0.4-0.1-0.8-0.2-1.1-0.3
		c-1-9.4,1.1-17.6,9.3-23.3c2.2-1.6,4.6-3.1,6.6-4.9c2-1.8,4.3-3.6,5.3-6c0.8-1.7-0.3-4.2-0.5-6.3c-1.7,0.5-3.4,1-5.1,1.6
		c-0.5,0.2-1,0.5-1.5,0.8c-1-2-1.8-3.8-2.7-5.5c-0.5,0-0.9,0-1.4,0c-1.7,4.3-3.4,8.5-5.1,12.8c-2-10.2,1.6-14.6,8.3-14.8
		c2.7-0.1,5.5-0.3,8.2,0c7.5,0.7,10.4-0.9,12.4-7.6c-2.8-0.4-5.6-0.8-8.3-1.2c4.6-2,8.5-6.9,14.4-2.7c1.2,0.8,4.3,0.7,5.3-0.2
		c1.5-1.6,2.7-4.2,2.5-6.3c-0.1-1.4-2.8-3.7-4.3-3.7c-3.3,0.1-6.6,1.5-9.6,2.3c-1.4-0.8-3.5-2.8-4.7-2.4c-2.2,0.8-4.9,2.7-5.7,4.8
		c-2.7,6.6-10.4,12.2-18.6,11.9c1-1.9,1.6-3.9,2.8-5.3c5.4-6.1,10.9-12.3,16.7-18.1c1.4-1.4,4.5-2.6,5.9-2c6.1,2.9,10-1.3,13.9-4.2
		c1.9-1.4,2.1-5.2,3-7.9c-2.3-0.6-4.6-1.1-6.9-1.7c-0.3-0.1-0.5-0.2-0.9-0.4c0-0.7,0.1-1.5-0.1-2.1c-0.5-1.5-1.3-2.9-1.9-4.3
		c-1.5,0.8-3.5,1.3-4.4,2.5c-1.3,1.8-1.6,4.2-2.7,6.2c-0.8,1.5-2.1,2.8-3.2,4.1c-0.5-0.3-1.1-0.7-1.6-1c0.4-1.7,1-3.3,1.2-5
		c0.1-1.2,0.1-3-0.6-3.5c-4-3-6,3.7-9.9,2.4c-0.3-0.1-1.9,2.2-1.9,3.4c0,1.3,1,2.8,1.9,4c0.6,0.8,1.6,1.4,2.5,2
		c2.3,1.4,2.8,3.5,1.2,5.4c-4,4.6-8.4,8.9-12.6,13.3c-0.4-0.3-0.8-0.5-1.2-0.8c-0.2-2.8-0.3-5.7-0.7-8.5c-0.4-3-1-6-1.6-9
		c-2.2-10.2-2.2-10.1,7.8-13.5c2.8-1,5.4-2.7,8.4-4.3c-6.8-7-12.2-2.2-17.6,0.7c-0.6-7.4,0.7-9.3,6.9-10c3.3-0.4,6.7,0.1,10,0.2
		c2.3,0.1,4.6,0.9,6.8,0.5c1.7-0.3,3.2-2,4.8-3.1c-1.6-1.2-3-2.8-4.7-3.4c-1.8-0.7-4-0.5-5.9-0.7c6.9-3.8,13.4-8.1,21.6-6.8
		c1.6,0.2,3.7-0.5,5.1-1.5C388.3,522.9,390.3,521.1,387.8,518.9z M309.1,332c-1.5-4.9,1.3-9.4,5.8-9.2c2,0.1,5,1.9,5.8,3.6
		c1.1,2.6,1.2,6,0.5,8.8c-1.3,5.4-3.3,10.6-5.2,16.3C313.5,344.8,311,338.5,309.1,332z M321,368.8c5.2,1.2,9.9,2.1,14.4,3.5
		c5.1,1.7,6.1,7.8,2.2,14c-1.3-1.1-2.4-2.3-3.7-3.3c-1.1-0.9-2.3-1.8-3.4-2.7c-1.9,1.8-3.5,3.3-6.3,5.9
		C323,379.7,322.1,374.6,321,368.8z M325.7,391.2c-0.2-1.9,1.6-4,2.6-6.4c12.2,11.7,12.9,26.4,1.6,33.3
		C328.4,408.8,326.8,400,325.7,391.2z M313.2,673.3c3.8,1.3,7.6,2.5,11.8,3.9C319.8,682.1,317.4,681.3,313.2,673.3z M341,721.9
		c-11.2-8.8-15.2-21.6-20.4-35c3.9-1.1,7.1-2.3,10.3-2.7c3.9-0.5,7,1.3,8.1,5.1C342.1,699.9,342.5,710.7,341,721.9z"/>
	<path fill="#C49A6C" d="M317.7,562.2c-0.1,0.3-0.2,0.6-0.3,0.9h0C317.6,562.8,317.7,562.5,317.7,562.2z"/>
	<path fill="#C49A6C" d="M581,644c-0.5-2-0.9-3.3-1.1-4.7c-4.8-29.7-9.7-59.5-14.3-89.2c-2.5-16.4-4.3-32.9-6.5-49.4
		c-0.4-3.1,0.5-5,3.4-6.6c4.9-2.6,9.7-2.1,14.7-1c8,1.7,15.7,1.6,23.2-2.2c7.8-3.9,11.4-10,10.4-18.5c-0.9-7.2-2.1-14.3-3.1-21.7
		c-18,10.6-38.2,17.9-50.6,37.2c-0.4-2.2-0.8-3.4-0.9-4.6c-1.3-14.4-2.5-28.8-3.7-43.3c-0.9-10.5-0.9-10.5,9.4-13.6
		c16.4-5,26.3-15.8,29.1-32.9c1.5-9.6,3-19.3,4.3-28.9c0.3-2.5,0.1-5.1,0.1-6.9c-15.9,13.9-31.7,27.8-47.9,42.1
		c-0.5-1.9-1-3-1.2-4.2c-2.3-12.7-4.4-25.5-6.7-38.2c-2-11.1-2-11.1,8.5-14.8c16.5-5.8,25.1-19.3,24-36.7
		c-0.4-6.6,0.2-13.3,0.3-19.9c0.1-3.7,0-7.4,0-11.3c-20,7.1-36.5,16.8-42.3,38.6c-3.8-11.2-6.9-21.9-9.3-32.8
		c-1.1-5.1,0.3-6,5.6-4.4c5.2,1.5,7.1,0,7-5.4c0-0.7-0.1-1.4-0.1-1.5c0,0,0,0,0,0c0,0,0,0,0,0c3.4-1,6.3-1.9,9.1-2.8
		c-1-3.2-2.1-6.3-3.3-9.8c5.8-8.3,1.1-10.8-7.2-11.1c0.1-1.6,0.2-2.9,0.3-4.2c-0.3,0.3-0.6,0.5-1,0.8c-1.8-1.5-3.7-2.8-5.3-4.5
		c-2.1-2.4-4.3-2.6-6.8-0.9c-0.9,0.6-1.8,1.4-3,2.4c-2.2-4.8-4.8-4.5-7.8-1.4c-0.6,0.6-1.9,1-2.8,0.9c-3.9-0.6-4.4,1.6-4.2,4.6
		c0.1,1.6,0.5,3.2,0.8,5.1c-2.6-0.8-4.7-1.7-6.8-2.1c-3.5-0.6-6.7,2-7.1,5.5c-0.5,3.9,1.1,6.1,5.1,6.5c3.3,0.3,6.7,0.5,10,1
		c1,0.1,1.8,1.1,2.7,1.6c-3.1,0.7-5.8,0.1-8.5,0.3c-2.1,0.2-5.4,0.7-6.1,2.1c-1.3,2.7-0.6,5.6,2,8.2c4,4.2,8.2,8.3,9.6,14.4
		c0.9,4,3.4,4.4,6.1,1.1c1.6-2,2.7-4.3,4.6-7.4c6.8,13.7,10.2,27.6,14,42.3c-15-7.1-29.5-12.8-45.8-15.1c2,7.2,3.7,13.3,5.5,19.4
		c1.2,3.9,1.9,8.1,3.9,11.6c7.7,13.8,21.1,18.8,33.8,8.4c1.8-1.5,4-2.4,7.4-4.4c3.9,19.5,7.6,37.9,11.6,57.2c-1.9-1-3-1.4-3.7-2
		c-15.9-14.4-36.8-14.4-56.5-19.2c4.4,11.2,8,22.3,13.1,32.8c5.7,11.9,15.4,18.1,29.2,16.6c4.7-0.5,9.4-0.4,14.1-0.5
		c4.6-0.1,6.5,2.7,6.8,6.9c0.2,3.2,0.4,6.4,0.7,9.6c1.1,13.4,2.2,26.8,3.3,40.7c-21.3-17.2-44.6-28-73.2-28.1
		c2.9,10.3,6.3,19.1,12.3,26.5c8.9,11.1,19.8,17.9,34.9,15.8c6.6-0.9,13.3-1.3,20-1.3c6.4,0,7.4,1.2,8.4,7.7
		c3.9,25.7,7.9,51.4,11.8,77.2c0.5,3.4,0.8,6.9,1.3,10.4c-3.6-4.2-6.4-8.6-9.3-12.8c-8.6-12.3-19-22.6-32.9-28.9
		c-7.9-3.6-16.2-3.9-25-2.9c5.5,10.7,10.6,20.9,16,30.9c1.9,3.4,4.3,6.7,7.1,9.5c6.6,6.7,14.3,9.7,24,7.6c11-2.4,17.7,0.8,21,10.9
		c3.2,9.9,5,20.2,7.5,30.3c-0.4,0.3-0.7,0.5-1.1,0.8c-10.3-11.5-22.1-19.1-38.7-17c1.9,8.3,3.6,16.1,5.6,23.9
		c0.6,2.2,2.1,4.2,3.2,6.3c2.1-1.3,4.2-2.6,6.2-3.9c0.7-0.5,1.2-1.3,1.9-1.9c4.1-3.7,8.9-3.6,13.7-2.1c5,1.5,10,3.4,11.2,9.5
		c2.5,12.4,5.1,24.7,7.3,37.1c2.3,13,4,26,6.1,39c1.1,6.5,2.8,12.9,4,19.4c0.5,2.4,0.8,5,3.9,4.4c3.1-0.5,2.6-3.2,2.1-5.5
		c-1.9-10-3.7-20-5.5-30c-3.7-20-7.3-40.1-11.1-60.1c-0.8-4.5-0.5-8.2,4.5-9.9c0.6-0.2,1-0.7,1.5-1c11.9-8.7,25.1-13.6,40.1-13
		c3.5,0.1,5.6-1.5,5.6-4.5c0-4.9-0.8-9.8-1.3-14.9C612.1,616.8,594.7,626.8,581,644z M596.4,469.1c6.1-3.5,8.2-2.2,8.2,4.8
		c0.1,5.8-3,9.3-7.9,11.7c-9.3,4.6-18.4,2.9-27.6-0.2C578.4,479.8,587.4,474.3,596.4,469.1z M489.9,251.4c4.9-2.3,9-1,14.5,4.8
		C498.8,255.3,493.7,255.8,489.9,251.4z M534.7,250.5c0.4-0.2,1.1,0,1.8,0.2c0.3,0.1,0.5,0.2,0.8,0.3c0.1,0,0.3,0.1,0.4,0.1
		c-0.1,0.3-0.2,0.6-0.3,0.9c-0.3,0.9-0.5,1.9-1.1,2.1c-2.4,1-5,1.5-7.6,2.1c-0.3-0.5-0.5-1.1-0.8-1.6
		C530.2,253.2,532.4,251.6,534.7,250.5z M525.5,244.9c3.7,3.9,0.3,11.3-6.4,13.7C521.5,253.4,523.4,249.3,525.5,244.9z M494.3,267.3
		c0.2-0.4,0.4-0.9,0.6-1.3c2.6,0,5.2,0,8.8,0c-1.8,2-3.1,3.5-4.9,5.5C497.1,269.9,495.7,268.6,494.3,267.3z M503.1,278.6
		c-0.5-0.4-1.1-0.8-1.6-1.3c1-3.1,2.3-6,5.8-7.3c0.5,0.4,1,0.8,1.5,1.2C507,273.7,505,276.1,503.1,278.6z M508.6,253
		c-0.4-0.1-0.7-0.3-1.1-0.4c-0.4-3.1-1.3-6.2-1.1-9.2c0.1-0.9,3.1-2.2,4.9-2.2c0.8,0,2.8,2.8,2.4,3.6
		C512.3,247.6,510.3,250.2,508.6,253z M510.4,269c2.3-0.3,4.5-0.6,6.8-1C515.5,273.2,513.1,272.3,510.4,269z M537.4,263.8
		c-3.1,0-6.3-0.2-9.4,0.1c-1.8,0.2-3.4,1.5-5.1,1.8c-1.5,0.2-3.1-0.2-5.3-0.4C523.2,260.5,534.1,259.3,537.4,263.8z M507,343.4
		c-8.6-2.7-13.9-11.3-12.8-22.1c11.9,2.6,24,2.8,33.6,11.2C522.7,342.3,515.4,346,507,343.4z M540.9,311.4
		c3.7-7.2,9.8-12.3,16.5-16.7c3.1-2,5.3-1.9,6.2,2.3c0.4,1.9,1.1,3.8,1.6,5.7c3.5,13.2,1.2,19.8-10.2,27c-5.8,3.7-12.2,6.5-18.7,9.8
		C533.3,329.2,536.3,320.1,540.9,311.4z M545.4,419.5c-6.1,0-12.1-0.1-18.1,0c-16.6,0.4-23.1-3.9-28.8-19.4c-1.2-3.2-2-6.6-3-9.9
		c0.4-0.5,0.9-1,1.3-1.5c4.7,1.9,9.5,3.6,14.1,5.7c9.3,4.1,18.5,8.5,27.9,12.4C544,409,546,412.6,545.4,419.5z M520.6,491.7
		c-14.4,0.3-30-11.9-33.4-25.6c8.5-0.2,61.5,20.6,62.8,24C540.4,490.7,530.5,491.5,520.6,491.7z M550.8,420.3
		c-1.3-4.5-0.2-8.4,3-11.7c8-8.1,16-16.2,24.2-24.2c1.7-1.7,4.1-2.8,6.9-4.6C586.1,404.8,573.6,416.6,550.8,420.3z M512.2,558.9
		c17,4.4,30.3,13.3,42.5,25.1C531.2,590.8,519.5,582.1,512.2,558.9z"/>
	<path fill="#C49A6C" d="M533.2,269.3C533.2,269.3,533.2,269.3,533.2,269.3C533.2,269.2,533.2,269.2,533.2,269.3z"/>
	<path fill="#C49A6C" d="M852.4,169c-1.7,0.6-3.5,1.7-4.4,3.1c-0.7,1.1-0.1,3.1,0.1,4.7c0.2,1.5,1.2,3,0.9,4.3
		c-1.9,7.9,2.8,12.8,7.2,18.1c3.8,4.5,7.1,9.4,10.7,14.2c-0.5,0.4-0.9,0.7-1.4,1.1c-5.2-5.3-10.4-10.6-16.7-16.9
		c0.1,2.4-0.2,3.9,0.3,4.7c1.9,2.7,1,4.6-0.8,6.8c-3.5,4.2-3.8,9-2.2,14.2c0.4,1.5,0.3,3.6-0.4,4.9c-1.9,3.5-2.2,6.5,1.7,8.4
		c6.3,3,5.2,8.7,6.4,14.7c-3.7-0.8-6.9-0.8-9.1-2.2c-2.3-1.5-3.6-4.4-5.5-6.9c-2,3.7-1.1,6.5,0.9,9.3c1,1.4,2.2,3.4,1.9,4.8
		c-1.8,7.7,1.3,13.9,5.7,19.4c2.7,3.3,4.5,6.3,3.3,10.7c-0.4,1.4,0.2,3.1,0.3,4.7c0.5,0.2,1.1,0.4,1.6,0.7c3.9-5.7,8.1-11.2,11.7-17
		c4-6.4,9.4-8.9,16.6-6.2c6,2.2,11.9,4.8,17.6,7.6c1.6,0.8,2.8,2.6,4.1,4c-0.3,0.5-0.6,1-1,1.5c-2.9-1-5.8-1.9-10.1-3.3
		c1.6,3.4,2.6,5.6,3.6,7.8c0.7,1.7,1.2,4.8,1.9,4.9c2.2,0.1,5.1-0.3,6.7-1.7c2.5-2.2,4.9-2.6,7.5-1.4c8.6,3.7,17.2,7.6,25.7,11.6
		c7.9,3.7,12.8,9.1,9.6,18.6c-0.1,0.3,0,0.6,0,0.9c-2.8,18.2,2.6,36.9-3.4,55c2.2,0,4.2-0.1,6.1,0c5.5,0.2,5.7-0.5,5.4-5.9
		c-0.9-17.2-1.5-34.3-2-51.5c-0.2-7.3,3.3-13.4,8.7-18c10.3-8.8,22.7-12.9,35.9-14.6c3.6-0.5,5.9,1.1,7.1,4.9
		c1.4,4.6,3.5,8.8,8.2,11.1c4.3,2.1,9.2,1.1,12-2.5c3.4-4.3,3.4-7.3-0.3-11.8c-0.7-0.9-1.4-1.8-2.1-2.6c3.8-3.2,7.8-5.9,7.8-11.5
		c0-2.1,0.7-4.4,1.7-6.3c5-10.3,3.9-15.9-2.9-21.4c1.4-0.9,2.6-1.7,3.8-2.4c6.7-4.2,9.6-10.4,9.2-18.2c-0.2-3.5-2.2-5.7-5.7-6.1
		c-2.7-0.3-5.5,0.2-5.9,4.6c1.7,0.1,3.3-0.2,4.5,0.4c1.6,0.8,3.5,2,3.9,3.5c1,3.6-4.7,10-8.4,9.9c-0.7,0-2-0.8-2.1-1.3
		c-0.6-4.6-1.1-9.2-1.5-13.9c-0.2-1.9,0.5-5-0.3-5.4c-2.2-1.1-5.9-2.3-7.3-1.2c-3.7,2.8-6.2,1.2-9.3-0.6c-6.4-3.7-13-4.5-19.9-1.3
		c0.7,2,1.2,3.6,1.9,5.7c-6.3-2.1-9.6-1-10.6,4c-0.7,3.2-2.1,5-5,6.1c-1.4,0.5-2.7,1.5-3.8,2.4c-3.7,3.1-3.9,6.4-0.6,9.8
		c1.7,1.8,3.5,3.4,5.4,4.9c5.6,4.4,6.1,9.4,3.4,16c-5.6,13.2-15.4,23.3-23.8,34.5c-0.4,0.6-1.8,1.2-2.3,0.9
		c-0.7-0.4-1.4-1.5-1.4-2.4c-1.6-22.2-3.2-44.3-4.7-66.5c-0.9-13.9,2.8-26.8,8.8-39.2c6.4-13.2,14.5-25,26.9-33.4
		c7.7-5.2,15.5-10.3,21-18.1c0.9-1.3,2.9-1.8,4.4-2.7c0.5,1.5,1.3,3,1.5,4.5c1.3,8.1,3.6,15.8,9.7,21.7c4.4,4.2,8.8,3.9,12.5-0.9
		c4.4-5.7,3.6-11.7,0.6-17.6c-1.6-3.2-3.7-6.2-5.6-9.3c1-0.7,1.7-1.3,2.4-1.9c6.6-5.3,6.9-9.6,0.7-15.5c-2.7-2.6-5.9-4.7-8.7-6.9
		c3.3-2.2,6.9-4,9.8-6.5c3.7-3.1,3.6-6,0-9.2c-5.4-4.9-12-6.6-19.1-5.3c-2.1,0.4-5.4,2.4-5.6,3.9c-0.8,6.1-4.7,8.7-9.4,11.2
		c-1.9,1-3.2,3.2-4.4,5.1c-1.8,2.7-3.2,5.7-4.9,8.7c-3-2.2-3.3-4.6-1.5-7.6c3.3-5.3,4.7-11.2,4-17.5c-0.8-7.2-5.5-12.3-12-12.8
		c-6.8-0.5-12.2,3.4-13.4,10.9c-0.7,4.3,0.2,9,0.5,13.4c0.1,1.7,1.1,4.1,0.3,5.1c-4.5,6.3-9.4,12.3-14.2,18.3
		c-0.1,0.1-0.6-0.1-1.1-0.1c-1.6-6.1-3.4-12.2-4.8-18.4c-0.5-2,0.1-4.2,0.1-6.3c0-3.6,0.4-7.3-0.3-10.7c-0.5-2.8-0.1-4.1,2.1-6.1
		c4.5-4,9.1-8.2,12.3-13.2c4-6.1,0.2-12.2-7.1-12.9c-9.1-0.9-15.4,3.3-19.8,11.2c-0.8-0.4-1.3-0.7-1.8-1c-10.8-5.9-21.9-1-23.5,11.3
		c-0.8,6,0.8,12.3,1.6,18.5c0.5,3.4,1.9,6.6-2.3,8.6c-4.2,2-4.7-1.9-6.3-3.9c-4.2-5.7-9.3-6.5-14.2-1.4c-3.2,3.3-5.6,7.5-7.5,11.7
		c-1.7,3.9-1.5,8.1,2,11.4c3.6,3.5,7.7,4.3,12.2,2.4c3.2-1.4,5.7-0.6,8.4,1.4c1.8,1.3,4.8,2.5,6.6,1.9c5.6-1.8,9.5,0.8,13.1,4.2
		c2.5,2.4,5.1,4.9,7,7.9c10.3,16.3,20.9,32.5,15.5,53.4c-0.6,2.2-0.9,4.5-0.9,6.8c0.1,20,0.1,39.9,0.6,59.9
		c0.2,11.2,1.1,22.4,1.8,34c-1.2-0.4-2.1-0.5-2.9-0.9c-10.4-5-20.8-10-31.2-15.1c-2.5-1.3-5.6-2.8-6.8-5.1
		c-6.1-10.9-12-21.8-17.1-33.1c-2.7-5.9,1.7-15.6,6.3-17.6c4.7-2.1,9.4-4.2,13.8-6.7c6.3-3.5,6.2-7.2,0.5-11.2
		c-1.2-0.9-2.4-3.1-2.2-4.5c0.4-3.7-0.2-7.2-3.5-8.6c-2.3-1-5.7-0.8-8,0.2c-3.3,1.6-4,5.2-3.7,10.1c1.8-2,2.7-3.5,4-4.3
		c1.4-0.9,3.4-2.2,4.7-1.8c1.5,0.5,3.6,2.6,3.5,4c-0.1,4.4,1.3,7.8,6.8,10.6c-4.9,2-8.3,3.4-11.8,4.7c-0.6,0.2-1.9-0.2-2.3-0.7
		c-3.6-4.4-7-8.9-10.5-13.4c0.2-0.2,0.5-0.5,0.7-0.7c-1.6-0.2-3.2-0.4-4.7-0.5c-0.2-0.9-0.4-1.5-0.5-2.1c-1-7.5-4.1-15,0.7-22.5
		c0.7-1.1-0.4-4.3-1.6-5.5c-1-0.9-4.3-0.8-5.2,0.1c-1.1,1.2-1.6,4.6-0.8,5.5c2.7,3,2,5.7,0.4,8.6c-0.1,0.2,0.1,0.5,0.3,1.1
		c0.9-0.4,1.8-0.7,3.5-1.5c0,5.1,1.9,11.6-0.4,13.8c-4.8,4.5-3.1,6.1,0.2,10.1c2.2,2.6,2.3,7.1,2.9,10.9c0.9,6,1.4,12.1,2.2,19.4
		c-1.7-1.3-2.5-1.6-2.8-2.2c-5.9-10.9-11.8-21.9-17.5-32.9c-0.6-1.2-0.2-2.9-0.1-4.3c0.1-1.7,0.3-3.3,0.4-5
		c-1.7,0.1-3.3,0.2-5.1,0.4c-1.3-2.7-2.3-6-4.4-8.5c-4.3-5.4-4.4-5.1,0-10.7c1-1.3,0.9-3.7,0.8-5.5
		C855.3,169.9,853.2,168.8,852.4,169z M1022.9,289.6c1.6,3.1-0.5,4.1-3.1,4.4c-5.1,0.5-11.1-4.6-11.3-9.7c-0.1-3.4,0.6-6.3,5.1-6.4
		c2.9-0.1,5.8-0.9,8.7-1.4c0.4,0.3,0.8,0.7,1.3,1C1019,281.6,1020.8,285.5,1022.9,289.6z M1027.6,250c1.7,0.6,3.4,3.5,3.4,5.5
		c0.1,4.4,0,9-5.7,11c-2.8,1-5.1,3.6-7.6,5.5c-0.5-0.5-0.9-0.9-1.4-1.4c-0.9-6.9-0.5-13.7,4.9-18.9
		C1022.7,250.3,1025.9,249.4,1027.6,250z M1023.8,238.4c-0.5,1.3-1,2.6-1.5,3.9c-0.5,1.3-1,2.6-1.6,3.9
		c-4.7,11.1-15.3,13.9-25.2,17.5c-0.6,0.2-1.4,0-3.1-1c4.4-5.3,8.8-10.5,13.8-16.5c1,2.5,1.5,3.8,2.6,6.4c2.9-2.4,6-4.2,7.6-6.8
		c0.7-1.2-1.2-4-2.1-6.7c-0.1,0-0.1,0-0.2,0c0,0,0,0,0,0c-0.2,0.2-0.1,0.1,0,0c0-0.1,0.1-0.1,0.2-0.2c0,0.1,0,0.1,0.1,0.2
		c1.6-0.1,3.1-0.3,4.7-0.4C1020.6,238.7,1022.2,238.5,1023.8,238.4L1023.8,238.4L1023.8,238.4z M993.3,218.7
		c0.1-1.1,1.3-2.5,2.3-2.9c2.1-0.8,4.4-0.9,7.3-1.5c2.3,0.7,5,1.6,7.7,2.5c2.7,0.9,5.3,2.1,8,2.8c4,1,6.1,3.9,3.8,7.3
		c-2.1,3.1-5.6,5.2-8.7,7.6c-0.4,0.4-1.9,0.3-2.2-0.1c-2.7-3.4-6.5-3-10.2-3.7C997.3,229.9,992.8,223.1,993.3,218.7z M979.6,239.1
		c-4.5-4.9-4.4-4.9,1-8.3c1.4-0.9,1.8-3.1,2.8-4.7c0.9-1.4,2-3.8,3.1-3.8c1.8,0,4.2,1,5.2,2.5c1.4,2,1.7,4.8,2.1,6.1
		c-0.2,6.1-2.8,9.8-6.3,12.9c-0.6,0.5-2.6,0.4-3.4-0.2C982.3,242.4,981,240.6,979.6,239.1z M994.2,246.1c-0.4,3.7-0.8,7-1.2,10.3
		c0,0,0,0,0,0l0,0.1c0,0,0-0.1,0-0.1c1-4.5,2.1-9,3.1-13.4c0.5-2.3,1-4.7,1.6-7.7c3.4,1.5,6.3,2.9,10.4,4.7
		c-4.5,5.8-8.2,10.8-12.2,15.7c-0.5,0.6-1.9,0.4-2.8,0.6c-0.4,1.7-1,3.3-1.8,4.7c-2.1,3.8-5.6,6.6-9.7,9.1c-0.4,0.2-0.8,0.4-1.1,0.7
		C984.8,253.1,987.1,248.9,994.2,246.1z M988.6,275.2c-0.7-1-1.3-1.8-2-2.8c0.2-0.1,0.5-0.5,0.8-0.6c5.5-2.1,10.9-4.7,16.6-6.3
		c7.5-2.2,8.5-1.1,8.4,6.8c-12.6,3.4-24.8,6.6-37,9.8c-0.2-0.4-0.4-0.9-0.5-1.3C978.3,276.8,983.7,277,988.6,275.2z M890.9,122
		c-2.4-1.4-5.7-2.3-6.8-4.4c-1-1.9-0.1-5.3,1.1-7.5c3.1-5.8,7.6-7.6,11.8-5.2c1.2,0.6,2.4,1.6,3,2.7
		C902,111.2,895.6,121.2,890.9,122z M1032.1,147.8c0.4,2.3-0.6,6.4-2.3,7.3c-1.7,0.9-5.8-0.3-7.5-1.9c-6.8-6.4-7.7-15-7.6-25.2
		C1023,133.8,1030.3,138.6,1032.1,147.8z M1029,118.8c1.4,1.3,3.2,4.4,2.6,5.1c-1.4,1.9-4,2.9-5.1,3.6c-5,0-12.4-5.1-13-8.9
		c-0.3-2,0.5-4.5,1.7-6.1c0.6-0.8,3.5-0.6,4.9,0.1C1023.3,114.3,1026.3,116.4,1029,118.8z M1017,92.1c5.1-0.1,10.1,0.4,14.8,5.9
		c-5.1,2.1-9.3,4.3-13.8,5.6c-3.4,1-7.7-2.8-7.8-6C1010,94.2,1012.4,92.2,1017,92.1z M1001.9,107.6c0.4-1.6,2.4-2.9,4.7-5.4
		c2.5,2.8,5,4.4,5.5,6.4c0.6,2.7-1.1,5.3-4.6,5.4C1004.6,114.1,1001.2,110.5,1001.9,107.6z M993.6,119.4c-0.6-2.1,1-4.9,1.5-7.1
		c1.5,0,1.7-0.1,1.8,0c3.7,3.6,7.7,6.9,10.7,10.9c0.8,1.1-0.5,4.8-1.9,6.5c-4,4.7-8.4,9-12.9,13.3c-0.9,0.8-2.9,1.1-4.1,0.6
		c-0.7-0.2-1.1-2.5-0.8-3.6c0.8-2.7,1.7-5.6,3.3-7.8C994.2,128.1,995.1,124.3,993.6,119.4z M988.2,121.3c1,1.4,1.5,4.4,0.7,5.4
		c-1.1,1.3-3.7,1.8-5.6,1.6c-9.9-0.9-13.5-4.6-13.6-14.2c0.2-0.7,0.4-2.7,1.1-4.5c1.8-4.3,4.3-4.7,7.2-1.1
		C981.5,112.6,985.1,116.8,988.2,121.3z M980.8,83.5c3.4,0.7,5.6,2.7,6.6,6.1c1.7,6-0.2,13.7-3.4,16.2c-3.5-1.3-5.9-2.7-8.5-3
		c-4.1-0.5-5.6-2.7-6.1-6.5C968.2,87.1,972.8,81.8,980.8,83.5z M961.1,121.9c0.5-0.7,1.7-1,2.9-1.2c0.7-0.1,1.5-0.2,2.1-0.4
		c0.1,0.2,0.1,0.5,0.2,0.7c0.3,0.8,0.6,1.5,0.8,2.3c0.3,1,0.5,1.9,0.2,2.6c-2.9,5.3-6.4,10.3-9.7,15.3c-0.7,1.1-1.6,2.1-3,3.9
		C952.4,135.4,956.4,128.4,961.1,121.9z M950.5,185c0.8-8.5,1.3-17,2.7-25.4c0.7-4.3,2.7-8.6,4.7-12.6c2-3.9,5-7.3,7.4-11
		c2.3-3.5,5.1-5.1,9.3-3.5c3.2,1.2,7.8-0.2,9.1,4.5c1.6,5.6,0.5,10.5-4.2,14.4c-12,10.1-20.6,22.6-26.4,37.2
		c-0.3,0.8-0.9,1.5-1.4,2.2c-0.4-0.1-0.8-0.1-1.2-0.2C950.5,188.8,950.4,186.9,950.5,185z M947.4,63.8c3.7-0.1,7.5,1.1,11.2,1.7
		c-1.8,3.3-3.3,6.8-5.5,9.8c-1.4,1.9-3.6,3.3-5.6,4.5c-4.5,2.6-9.4-0.3-9.5-5.6C937.8,69,942,63.9,947.4,63.8z M939.7,84.5
		c4.4,1.1,4.6,5.1,5,10.3c-0.7,0.9-1.8,4.1-3.5,4.5c-1.8,0.4-4.7-1.5-6.1-3.2c-2.5-2.8-3.6-6.6-0.9-9.9
		C935.3,84.8,938.1,84.1,939.7,84.5z M923.9,71.7c5.7,0,10.3,2.8,10.1,6.3c-0.1,2.9-5.2,7.4-8.2,7.3c-6-0.2-11-4-10.9-8.2
		C915.1,73.4,917.9,71.7,923.9,71.7z M909.1,124.1c-3.7,0.3-6.4-2.6-6.4-6.7c0-4,2-6.2,5.7-6c4,0.2,5.6,2.5,5.5,6.3
		C913.9,121,913.1,123.8,909.1,124.1z M913.6,86.5c7.9,3.6,16.5,4.6,18.7,13.9c-5.9,1-11.5,1.9-17.7,2.9
		C914.3,98.2,914,92.8,913.6,86.5z M923.6,123.9c-3.9-0.1-7.8-5.8-7.7-11.4c0.1-3.6,4.8-6.7,10-6.6c5.1,0,7.5,2.3,7.5,7.1
		C933.5,118.8,928.8,124,923.6,123.9z M927.2,129.3c8.4-4.4,10.8-12.6,10-22.2c0.4-0.3,0.9-0.5,1.3-0.8c1.8,2.1,4.5,3.9,5.3,6.3
		c2.3,6.9,4.6,14,5.4,21.1c0.9,8.6,0.3,17.3,0.3,26c0,1.1-0.6,2.2-1.1,3.9C941.1,151.8,934.3,140.8,927.2,129.3z M859.9,274.6
		c-1,1.6-2.1,3.2-3.5,5.3c-3.6-4-7.1-7.2-9.8-11c-2-2.7-3.5-6.6-0.6-9.1c1.8-1.5,5.8-1.7,8.3-0.9
		C862.4,261.4,864.4,267.5,859.9,274.6z M882.2,208.8c8.8,1.4,10,9.6,2.5,20.1C883.9,222.3,883.1,215.7,882.2,208.8z M896.3,268.3
		c-1.4-0.5-2.6-0.7-3.5-1.3c-7.1-4.4-14.9-5.7-23.2-5.2c-1.6,0.1-3.3-0.9-4.9-1.6c-1.1-0.5-1.8-1.7-2.8-2.3
		c-8.6-4.5-8.1-11.8-6.2-19.5C869.8,236.7,888.3,250.2,896.3,268.3z M875.8,238.5c-9.6-4-19.9-5.7-25.8-15.1
		c-1.2-1.9-1.9-4.5-1.9-6.7c0-4.7,3.3-6.5,7.4-4.4c9.9,5.2,17,13,20.5,23.8C876.2,236.6,875.9,237.2,875.8,238.5z"/>
	<path fill="#C49A6C" d="M135.7,585c2-2.1,1-4.1-1.9-5.1c-2.4-0.8-4.8-1.9-7.5-3c-4.8,7.6-10.1,16-15.5,24.6c-0.8-1-1-1.2-1.1-1.5
		c-2-7.4-1.6-14.8,0.3-22.1c0.3-1.3-0.4-3-0.7-4.4c-1.4,0.7-3.4,1-4.2,2.1c-1.4,2.1-2.8,4.7-2.8,7.1c0.2,6.3,0.7,12.7,1.9,18.9
		c0.7,3.5,0.9,6.3-1.3,9.3c-3.6,4.9-7,10-10.4,15c-2.3,3.3-4.5,6.6-6.8,9.9c-0.3-0.1-0.6-0.2-0.9-0.3c0-1.9,0-3.8,0-5.7
		c0.3-16.9,0.7-33.8,0.8-50.7c0-4.4,0.4-8,5.2-9.9c1.5-0.6,2.7-2.4,3.5-4c2.4-4.2,5.7-5.7,10.3-3.9c4,1.6,6.5-0.5,9.5-4.4
		c-5.2-1.3-9.7-2.5-14.3-3.7c2.8-3.8,4.9-4.7,9.1-4.4c3,0.2,6.1,0.7,9.1,0.6c4.5-0.1,9.8-4.1,11.4-8.8c-6.4,2.9-12.6,6.4-19.7,0.4
		c2-1.3,3.4-2.4,5-3c3.7-1.4,7.5-2.5,11.2-4c0.4-0.2,0.8-0.4,1.1-0.8c0.3-0.3,0.6-0.7,1-1.1c0.1-0.1,0.2-0.3,0.3-0.4
		c0.1-0.1,0.2-0.2,0.3-0.4c-0.1-0.1-0.3-0.2-0.4-0.3c-0.9-0.7-1.7-1.6-2.7-1.8c-3.1-0.6-6.2-0.8-9.5-1.2c2.9-5.5,8.9-8.7,10.9-14.8
		c-3.6,0-6.6,0-8.2,0c-2.9,5-5.3,9-7.7,13.1c-0.4-0.2-0.8-0.4-1.2-0.6c-0.2-3.1-0.4-6.2-0.6-9.4c-3.4,0.1-5.5,1.3-4.9,4.4
		c2.5,12.9-3.3,22.7-11.2,31.9c-2.1,2.4-4,5-6.4,8.1c-0.4-1.4-0.6-1.8-0.6-2.2c0.3-14.6,0.4-29.3,0.9-43.9
		c0.3-8.7,6.8-16.4,15.3-18.8c7.2-2,13.3-5.5,17.1-12c0.8-1.4,0.4-3.4,0.6-5.2c-1.6,0.6-3.6,0.9-4.6,2c-5.1,6-11.7,6.7-19.5,6.4
		c1.9-3.2,3.6-5.7,4.9-8.4c2.1-4.7,5.4-6.9,10.7-6.7c2.7,0.1,5.6-1.1,8.2-2.2c0.9-0.4,1.8-2.3,1.6-3.2c-0.2-0.9-1.7-2-2.8-2.2
		c-3.2-0.6-6.5-0.9-10.3-1.3c3.9-5.3,13.1-4.6,13.4-13.2c-4.5-0.2-8.3-0.5-12-0.7c-0.7,2.1-1.4,4.1-2.4,6.9
		c-1.2-2.2-1.6-3.7-2.5-4.6c-0.9-0.9-2.4-1.4-3.6-2c-0.3,1.2-1,2.4-1,3.6c0.1,1.8,0.7,3.6,1.1,5.4c1,4,0.6,7.7-1.7,11.3
		c-3.2,5.2-6,10.6-9,15.9c-0.7,1.2-1.5,2.2-2.3,3.3c-0.8-7.1-1-13.8-0.8-20.5c0.6-23.2-2.4-17.4,13.8-33.8c3.1-3.1,5.2-7.1,7.8-10.7
		c-0.3-0.3-0.6-0.6-0.9-0.9c-4.6,1.7-9.3,3.5-14.7,5.5c0.8-1.4,1.2-1.9,1.4-2.4c0.4-1.7,0.8-3.5,1.2-5.2c-1.9,0.7-4.5,0.8-5.7,2.1
		c-1.9,2.1-3,5-5,8.6c0-5.8,0.1-10.4,0-15.1c-0.2-4.6,1.3-8,4.7-11.3c3.6-3.6,6.3-8.2,9.4-12.4c-0.5-0.6-1-1.2-1.5-1.9
		c-4.1,2.1-8.2,4.3-12.7,6.7c0-2.1,0-3.9,0-5.7c-0.1-13.7-1.8-27-9.1-39.1c-2.4-4-4.7-4.3-7.5-0.6c-1.5,1.9-2.8,4-4.4,5.8
		c-2,2.2-2.1,4.5-0.5,6.6c2.8,3.6,5.7,7.2,8.8,10.4c4.6,4.8,3.6,10.6,4.3,16.2c-0.5,0.2-0.9,0.4-1.4,0.7
		c-4.5-6.6-8.9-13.3-13.4-19.9c-0.5,0.3-1.1,0.6-1.6,0.9c0.3,1.7,0.2,3.6,1,5.1c4.3,8.2,8.8,16.3,13.3,24.4c1.6,2.9,4.4,5.6,4.8,8.7
		c1.3,8.5,1.7,17.2,2.4,26c-10.4-1.5-19-11.1-19.5-21.1c-0.1-3.2-0.4-6.4-0.6-9.6c-0.5-0.1-0.9-0.1-1.4-0.2c-1,1.4-2.1,2.8-3,4.3
		c-1.2,2.2-1.5,5.6-3.2,6.5c-2.1,1.1-5.3,0.2-8.1,0.2c-0.6,0-1.1,0.2-1.7,0.3c-0.3,4.1,2.6,5.1,5.3,6.6c3.5,2,7,4.1,10.1,6.6
		c4.9,4,9.2,8.9,14.4,12.6c7.4,5.4,10.1,13.5,5.8,23.6c-0.9-4.4-1.6-7.8-2.5-12.3c-3.3,5-6,9.2-8.5,13c-9.9-4.2-6.8-13.5-8.9-21.3
		c-5.8,2.7-3.1,8.3-5.8,12.3c-1.9,0-4.4-0.2-6.8,0.1c-1.4,0.2-2.8,1.1-4.2,1.7c1.2,1.2,2.3,2.6,3.7,3.5c0.9,0.6,2.3,0.6,3.6,0.7
		c4.5,0.4,8,2.4,11.2,5.5c4.8,4.7,9.8,9.4,15,13.8c3.2,2.8,4.9,5.8,4.8,10.2c-0.3,16.3-0.4,32.6-0.5,48.9c0,5.1,0,10.2,0,15.3
		c-2.6-1.4-4.1-3.1-5.5-4.8c-5.5-6.9-10.9-13.9-16.4-20.8c-7.7-9.7-7.7-9.7-1-19.9c2.4-3.6,2-6-2.1-9.2c-2.3,4.4-4.6,8.7-7.4,14.1
		c-2-3.4-3.2-5.9-4.8-8.2c-2-2.7-4.8-3.2-8.4-2.3c2.7,10.7,14.1,16.5,14.8,28.6c-6.3,1.1-12.5,2.3-18.6,3.4
		c2.7,4.2,7.1,6.4,12.2,6.2c1.2,0,2.4-0.2,3.6-0.5c8.2-2,15.7,1.3,20.6,9.5c-7.4,0.4-14.5,0.7-21.6,1.1c0,0.5,0,0.9,0,1.4
		c6.2,2.2,12.2,4.8,19.1,4.4c8.7-0.5,15.3,5.5,15.3,14.2c0,11.6-0.1,23.2-0.3,34.8c-0.1,7.2-0.5,14.4-0.8,22.8
		c-1.8-2.5-2.8-3.7-3.7-5.1c-4.1-6-8.1-12.2-12.4-18.1c-2.2-3-2.8-5.7-1.7-9.3c2.1-6.8-0.8-12.5-4.3-17.9c-0.5,0-1,0.1-1.5,0.1
		c0,5,0,9.9,0,14.9c-0.6,0.2-1.3,0.4-1.9,0.6c-4.8-7.8-9.6-15.6-13.8-22.5c-3.3,1.3-5.7,2.4-8.2,3.1c-3,0.8-3.6,2.7-1.8,4.6
		c1.8,1.8,4.5,2.8,6.8,4.1c2,1.2,4.1,2.4,6.1,3.5c-0.2,0.6-0.3,1.2-0.5,1.7c-3.3,0.2-6.6,0.3-9.8,0.6c-1.2,0.1-3.1,0.8-3.2,1.5
		c-0.2,1,0.6,2.6,1.4,3.5c3.3,3.8,7.8,4.1,12.2,3c3.5-0.9,5.9,0.1,7.8,2.9c1.7,2.4,3.4,4.8,5.6,8c-4.9,1.2-9.1,3.1-13.1,2.8
		c-4.1-0.3-8-2.6-12.3-4.2c3.3,8.7,9.8,12.5,17.9,10.9c1.9-0.4,4-1.4,5.8-1.2c3,0.4,6.6,0.9,8.5,2.8c3.8,3.7,6.6,8.3,9.8,12.6
		c8.3,11.1,4.9,23.7,5.7,36.5c-8.7-5.6-9.6-7.6-8-15.9c0.3-1.8,0.3-3.7,0.8-5.4c1.3-4.8-1.1-7.7-5.3-10.4
		c-1.6,5.4-3.1,10.2-4.5,15.1c-5.6-1.6-7.8-4.5-7-9.4c0.2-1.2,0.3-2.5,0-3.6c-0.2-1-1-1.9-1.5-2.9c-1.1,0.8-2.8,1.3-3.3,2.3
		c-0.9,2.1-1.2,4.5-1.7,6.7c-6.9-1-5.3-6.2-5.3-10.6c-1.7,0.3-2.9,0.6-4.1,0.8c-5.2,0.9-6.1,2.4-3.5,6.9c1.2,2.1,2.9,3.9,4.6,6
		c-1,0.5-1.7,0.7-2.1,1.1c-0.6,0.6-1.2,1.1-1.8,1.7c-0.6,0.6-1.2,1.2-1.7,1.8c0.4,0.4,0.8,0.7,1.2,1.2c0.4,0.4,0.8,0.8,1.2,1.2
		c0.8,0.8,1.6,1.4,2.5,1.7c2.7,0.7,5.7,0.2,8.6,0.4c2.6,0.1,5.1,0.5,7.7,0.8c0,0.5,0.1,0.9,0.1,1.4c-3.4,1.6-6.8,3.2-10.6,4.9
		c3.7,4.3,6.9,8.5,12.6,6.5c6.9-2.5,11.3,0.3,15.2,5.6c2.7,3.6,5.8,6.4,5.6,11.8c-0.9,19.2-1,38.4-1.4,57.6
		c-0.1,3.8,2.4,7.5,5.1,7.3c4.5-0.3,4.4-3.8,4.4-7.1c-0.1-16.6,0.2-33.2-0.5-49.7c-0.5-11.1,2.3-20,11.4-27.1
		c3.5-2.8,6.2-3.5,10.2-1.8c5,2.2,7.8,0.7,10.7-4.9c-2.8-1.5-5.7-2.9-9.2-4.7c1.6-0.7,2.2-1.2,2.9-1.2c3.3-0.1,6.7-0.2,10-0.1
		c3.7,0.1,5.7-2.3,6.7-5.1c0.2-0.7-2.9-2.6-4.4-4c0,0,0,0-0.1-0.1c0,0,0,0,0,0c-0.5-0.4-0.3-0.2,0,0c1.8-3.3,3.7-6.1,4.8-9.2
		c0.4-1-1.3-3.9-2.2-4c-1.5-0.2-3.3,1.1-4.6,2.2c-1.9,1.6-3.4,3.5-5,5.3c-0.5-0.3-0.9-0.5-1.4-0.8c-0.5-2-0.8-4.1-1.5-6.1
		c-0.3-1-1.4-1.7-2.1-2.5c-0.7,0.9-2,1.7-2.1,2.6c-0.4,2.1-0.3,4.3-0.2,6.4c0.3,5.9-0.8,7.3-7,8c-1.6-4.2-3.3-8.5-5.1-13.3
		c-4,3.7-4.5,5-3.5,8.5c0.8,2.8,1.9,5.5,2.7,8.2c0.3,1,0.5,2.6-0.1,3.3c-3,3.5-6.3,6.8-9.9,10.5c-3.6-18.7,3.7-32.4,16.6-43.9
		c3.5-3.1,7.4-3.9,11.9-2.8c1.8,0.4,3.6,0.5,5.4,0.4c7-0.4,13.2-6.1,13.6-12.9c-4.3,2-8.2,4.1-12.3,5.7c-4.7,1.8-8.6-0.5-12.2-2.8
		c1.7-3,3.2-5.4,4.6-7.9c1.8-3.3,4.1-4.6,8.2-3.8c3.3,0.6,6.9,0.2,10.2-0.6c0.7-0.2,1.3-1.1,1.8-2.1c0.1-0.2,0.2-0.5,0.4-0.7
		c0.1-0.1,0.1-0.2,0.2-0.3c0.2-0.3,0.4-0.7,0.5-1c0.1-0.1,0.1-0.2,0.2-0.3c-0.7-0.4-1.4-1-2.2-1.5c-0.7-0.5-1.5-0.9-2.2-1
		c-2.8-0.5-5.6-0.4-8.5-0.5c-0.1-0.4-0.3-0.9-0.4-1.3c1.9-1,3.8-1.8,5.6-2.9C130.7,588.3,133.7,587.1,135.7,585z"/>
	<path fill="#C49A6C" d="M128.2,531.8c0.1-0.1,0.2-0.2,0.3-0.4c-0.1-0.1-0.3-0.2-0.4-0.3c0.1,0.1,0.3,0.2,0.4,0.3
		C128.4,531.5,128.3,531.7,128.2,531.8z"/>
	<path fill="#C49A6C" d="M127.9,532.2c-0.3,0.4-0.6,0.8-1,1.1C127.3,532.9,127.6,532.5,127.9,532.2z"/>
	<path fill="#C49A6C" d="M135.6,597.2c0.1-0.1,0.1-0.2,0.2-0.3c-0.7-0.4-1.4-1-2.2-1.5c0.7,0.5,1.4,1,2.2,1.5
		C135.8,597,135.7,597.1,135.6,597.2z"/>
	<path fill="#C49A6C" d="M135.6,597.2c-0.2,0.3-0.4,0.6-0.5,1C135.3,597.9,135.5,597.5,135.6,597.2z"/>
	<path fill="#C49A6C" d="M134.9,598.5c-0.1,0.2-0.2,0.5-0.4,0.7C134.7,599,134.8,598.8,134.9,598.5z"/>
	<path fill="#C49A6C" d="M31.2,539.1c6.2-1.1,12.3-2.2,18.6-3.4C43.5,536.9,37.3,538,31.2,539.1c2.7,4.2,7.1,6.4,12.2,6.2
		C38.3,545.5,33.8,543.3,31.2,539.1z"/>
	<path fill="#C49A6C" d="M123.9,650.9C123.9,650.9,123.9,650.9,123.9,650.9C123.6,650.7,123.3,650.5,123.9,650.9z"/>
	<path fill="#C49A6C" d="M34.2,656.6L34.2,656.6c0.4,0.4,0.8,0.7,1.2,1.2C35,657.3,34.6,656.9,34.2,656.6z"/>
	<path fill="#C49A6C" d="M36.5,658.9c-0.4-0.4-0.8-0.8-1.2-1.2C35.8,658.1,36.2,658.6,36.5,658.9z"/>
	<path fill="#C49A6C" d="M164.7,476.9c-4.1-14.3-7.9-28.7-11.7-43.1c-10.1-38.2-16.4-77.1-20.3-116.4c-0.2-1.8,0-4.4,1.1-5.5
		c10.3-10.5,17.8-22.8,23.5-36.2c1.7-4,3.9-7.2,8.1-9.3c5-2.4,4.7-13.9-0.2-16.6c-0.6-0.3-1.8-0.4-2.1-0.1c-2.3,2.5-6.1,4.9-6.4,7.7
		c-1.1,11.5-6.2,21.3-12,30.7c-3.5,5.6-7.7,10.7-11.6,16c-0.6-0.2-1.2-0.5-1.8-0.7c-0.3-3.4-0.5-6.8-0.9-10.2
		c-3.4-31.2-7.3-62.3-17.2-92.2c-1.1-3.2-0.6-5.8,1.6-8.4c8-9.3,16-18.7,23.8-28.1c5.8-7,12.1-13.8,14.4-23
		c1.2-4.8,1.5-9.5-1.1-13.9c-3.3,1.8-6.1,3.7-9.1,4.9c-3.4,1.3-5.1,3.5-5.5,7c-2.2,20-15.4,33.6-27.9,47.6c-1.7,1.9-3.5,1.6-4.8-0.6
		c-4.1-6.9-7.6-14.1-7.8-22.2c-0.4-15.9-6.1-30-14-43.4c-0.7-1.2-1.8-2.2-2.7-3.4c-0.5,0.1-1,0.2-1.5,0.3c-0.3,4.6-1.1,9.2-0.7,13.8
		c1.8,19.1,7.8,36.8,17.9,53.1c1.1,1.8,2.6,3.4,3.6,5.3c0.5,1,0.5,2.7,0,3.7c-0.4,0.7-2.1,1.1-3.1,1c-1.8-0.2-3.7-0.6-5.2-1.5
		c-9.2-5.2-18.8-10.1-27.4-16.2c-7.3-5.1-13.4-12-20.5-17.4c-3.2-2.5-7.5-3.8-11.5-4.9c-1.5-0.4-3.9,1.2-5.4,2.3
		c-0.4,0.3,0.3,2.8,1,3.9c2.9,3.9,5.8,7.9,9.2,11.3c9.7,9.8,22.2,15.4,34.4,21.3c1.5,0.7,2.8,1.7,4.9,3.1c-10.7,3.1-20.2,0.5-30-1.1
		c6.5,8.7,19.8,13.6,30.7,10.5c8.3-2.4,16-2.2,24,0.9c4.5,1.8,7.5,3.9,9.1,8.6c8.1,24.6,11.1,50.1,13.3,75.7
		c0.1,0.8-0.4,1.6-0.8,3.1c-1.5-1.6-2.7-2.6-3.4-3.8c-5.1-8.9-13.1-13.6-22.4-17c-7.7-2.8-15.1-6.2-22.8-9.1c-2.5-0.9-5.5-1.5-7.9-1
		c-5,1-10,2.7-14.8,4.6c-1.3,0.5-2.7,2.9-2.6,4.3c0.3,3.4,1.2,6.9,2.4,10.2c1.5,4.4,4,4.9,8.1,2.7c3.4-1.9,7.1-4,10.8-4.5
		c7.5-0.9,15.2-1.4,22.8-0.8c4.6,0.4,9.7,2.2,13.4,5c5.9,4.4,10.7,10.2,16,15.3c-6.5,4-12.6,7.3-18.1,11.3
		c-5.1,3.6-10.5,5.3-16.6,5.4c-6.1,0.2-6.9,1.6-4.1,7.2c0.5,1.1,1.2,2.1,2,3.1c3.4,4.3,5,4.2,8.5,0c6.5-8.2,14.8-14,24.6-17.6
		c5.7-2.1,6.9-1.3,7.6,4.8c1.9,16.9,3.5,33.9,5.8,50.8c3.3,24,6.8,47.9,10.7,71.8c2.2,13.4,5.3,26.6,7.9,39.8
		c0.8,4.1,3.3,5.6,7.2,5.2c1.7-0.2,3.3-0.3,5-0.6C164.5,481.1,165.6,480.1,164.7,476.9z"/>
	<path fill="#C49A6C" d="M1033,502c-6.5,24.7-7.8,49.9-8.1,75.2c-0.5,43.7,0.1,87.5-3.9,131.2c-0.4,4.3-1,8.6-1.6,14
		c-0.6-1.5-0.8-1.8-0.8-2.2c-1.3-17.2-2.9-34.3-3.7-51.5c-1.8-37.9-2.6-75.9-5-113.8c-1.4-22-5-43.8-7.8-65.7
		c-0.9-7-2.5-13.9-3.6-20.3c3.4,0,6.6,0.8,9-0.2c4.6-1.8,8.8-4.5,12.9-7.3c1.6-1,3.6-3.3,3.3-4.6c-0.3-1.5-2.9-2.5-4.6-3.6
		c-1.5-1-4.7,0-4.1-3.6c0-0.2-1.2-0.8-1.8-0.9c-4.8-0.6-9.5-4.2-14.5,0.9c0.8-5.3,5-8.2,9.8-7.4c2.8,0.5,5.6,1.6,8.2,2.7
		c10.6,4.4,21.4-1.9,22.8-13.8c-3,2.2-5.7,4.4-8.5,6.4c-3.1,2.2-6.3,2.4-9.9,0.9c-5-2.2-10.2-3.9-15.4-5.9c1.5-4.3,5.2-7,10.3-6.6
		c3,0.3,6,0.9,9.1,1.2c9.5,0.8,21.3-7,23-15.2c-5.3,2.2-10.3,4.6-15.5,6.5c-5.8,2.1-11.3,0.4-17-1.7c1.6-3.5,4.1-5.3,7.6-5.2
		c9.8,0.1,18.5-3.6,26.7-8.4c4.5-2.6,8.3-6.2,10.4-12.7c-12.7,5-24,9.5-35.4,13.9c-0.3-0.3-0.6-0.6-0.8-0.9c1.8-2.1,3.2-4.9,5.4-6.3
		c5.2-3.2,10.6-6,16.2-8.3c6.8-2.8,12.6-6.8,16.8-12.9c1.3-1.9,2-4.1,2.9-6.2c-8.6,5.5-17.2,9.7-26.5,12.9c1.3-2.7,3.1-4.7,5-6.6
		c7.5-7.5,14.9-15,17.6-25.7c0.6-2.4,0.4-5,0.6-7.5c-0.4-0.1-0.8-0.1-1.2-0.2c-2.2,3.8-4.3,7.7-6.8,11.2c-2.5,3.6-5.5,6.9-8.3,10.3
		c-1-6.7-0.9-12.8-1.1-18.8c-0.2-5.8-0.9-11.7-1.4-17.5c-0.6,0-1.3,0-1.9,0c-0.4,2.2-1,4.3-1.1,6.5c-0.2,6.4,0.2,12.8-0.4,19.2
		c-0.7,7.8-1.8,15.7-3.4,23.3c-0.5,2.6-3.1,4.7-4.7,7c-0.5-0.2-0.9-0.4-1.4-0.6c-0.5-13.4-1-26.8-1.5-40.1c-0.5-0.1-1-0.2-1.4-0.3
		c-0.9,2.4-2.4,4.8-2.6,7.3c-0.5,5.7-0.6,11.5-0.5,17.3c0.1,6.4,0.7,12.8,0.7,19.2c0,6.4-2.1,12.2-7.4,17.2c-0.6-1.4-1.1-2.2-1.3-3
		c-3-11.3-5.9-22.6-8.8-33.9c-0.6-2.4-0.6-5.2-4.7-5.4c-0.1,2.4-0.7,4.8-0.3,6.9c1.9,9.8,4.1,19.6,6.3,29.3
		c0.7,3.4,2.1,6.8,2.3,10.2c0.3,4.6-1,8.9-4.9,12.2c-1.9-6.6-2.9-12.9-5.5-18.6c-2.6-5.7-6.6-10.8-10-16.1c-1.1,1.7-1.5,3.3-1,4.6
		c1.3,3.7,2.5,7.6,4.4,11c4.4,7.8,6,16.2,6,25c0,1.6-0.7,3.2-1,4.7c-4.9-8.4-9.6-16.6-14.3-24.7c-0.5,0.2-1,0.5-1.6,0.7
		c0.4,1.9,0.5,3.8,1.2,5.6c2.2,5.3,4.7,10.5,7.1,15.8c3.4,7.6,2.1,15.2-0.2,22.7c-0.4,1.2-2,2-3,3c-1-1-2.4-1.9-2.8-3.1
		c-1.1-3-1.6-6.1-2.5-9.2c-0.9-3.2-2.6-5.3-6.1-4.8c0.5,3.4,1.1,6.5,1.5,9.7c1,7.5,3.4,14.2,9.3,19.3c1.4,1.2,2.6,3.1,3,4.9
		c3.3,14.8,7.4,29.6,9.1,44.6c2.8,23.9,4.6,47.9,5.8,72c1.4,28.4,2.5,56.8,3.5,85.2c0.5,13.9,1,27.9,1.5,41.8
		c0.2,6.2-3.5,42.3,10.1,36c2-0.9,3.8-4.3,4-6.7c1.5-16.4,3-32.8,3.5-49.2c1.5-43.4,2.6-86.9,3.9-130.3c0.8-26.2,0.7-52.5,11.1-77.3
		c0.5-1.2,0.1-2.8,0.1-4.2C1036.9,488,1034.8,495,1033,502z"/>
	<path fill="#C49A6C" d="M803.7,268c-0.4-0.4-0.7-0.8-1.1-1.3c-21.1,5-39.4,17-60.6,24.8c2.5-3.4,4.3-5.6,5.7-8
		c0.3-0.5,0-1.3-0.2-2.1c-0.1-0.3-0.1-0.5-0.2-0.8c-0.4,0.1-0.9,0.1-1.3,0.2c-0.4,0.1-0.9,0.2-1.2,0.4c-1.7,0.9-3.2,2.1-4.8,3.1
		c-0.4-0.5-0.7-1-1.1-1.4c3-2.9,5.8-6.1,9.1-8.6c10.7-7.8,20.3-16.6,27.4-27.9c1.4-2.3,2.1-5.1,3.2-7.6c-5.8,1.7-10.8,2.9-15.7,4.6
		c-1.9,0.7-3.8,2.4-5,4.2c-3.6,5.2-7,10.7-10.3,16.1c-3.5,5.6-6.9,11.2-9.8,15.9c-0.4-1.2-1.2-3.4-1.9-5.6c-1.7,0.9-3.3,1.8-5.7,3
		c0.2-2.7-0.1-5.3,0.6-7.6c2.1-7.9,3.9-16,7.1-23.6c4.1-9.7,2.1-18.5-1.9-27.8c-0.7,1.4-1.5,2.5-1.9,3.8c-1.2,4.6-2.6,9.1-6.5,12.2
		c-0.4,0.4-0.8,1-0.9,1.6c-2.3,12.2-5.7,24.4-1.3,36.9c0.3,0.9-0.1,2.1-0.2,3.1c-0.5,0.2-0.9,0.5-1.4,0.7c-0.3-0.7-0.5-1.6-1-2
		c-1-0.7-2.2-1.2-3.3-1.7c0,1.4-0.3,2.8-0.1,4.1c0.3,1.5,1.1,2.9,1.7,4.3c-0.3,0.2-0.7,0.4-1,0.6c-1.7-2-5.3-4.5-4.9-6
		c1.6-7-2.1-12.8-3.5-19c-3-13.9-6.6-27.7-14.9-40.5c-0.8,2.5-2.2,4.8-2.1,6.9c0.1,6.4,0.3,12.8,1.4,19.1
		c2.5,13.2,10.4,23.8,17.4,34.9c1.3,2.1,1.7,4.8,2.6,7.2c-0.4,0.3-0.9,0.5-1.3,0.8c-3.4-2.6-7.3-4.9-10.3-7.9
		c-8.4-8.6-15.8-18.4-25.6-25.7c-4.8-3.6-9.1-8.1-13.6-12.1c-0.4,0.3-0.7,0.5-1.1,0.8c1.2,2.3,2.1,4.9,3.6,7
		c8,11.3,17.6,20.9,28.9,29c5.6,4.1,10.7,8.9,16.7,13.9c-1.8,0.2-3,0.7-4,0.4c-9.5-3.2-18.9-6.3-28.3-9.8c-6.2-2.3-12.1-4.7-19-3.1
		c-2.5,0.6-5.3-0.5-8-0.8c-2.6-0.3-5.1-0.6-8.1-1c2.9,7.3,8,11.7,16,13.6c13.1,3,26.3,5.2,39.9,3.5c1.6-0.2,3.2,0,5.2,0
		c-0.4,1.6-0.7,2.7-1.1,4.2c2.2,0,4.1,0,6,0c-1.4,1.2-2.9,1.6-4.4,1.9c-18.8,4.1-37,9.8-54.2,18.4c-2.9,1.5-5.6,3.5-8.3,5.3
		c0.2,0.5,0.5,1,0.7,1.5c6.1,1.9,11.9,0.5,17.5-2c12.1-5.4,24.1-10.8,36.2-16.3c4.9-2.2,9.8-4.6,16.1-0.5c-2.5,1.4-5.3,3.9-6.6,3.3
		c-2.5-1.1-3.6-0.2-5.1,1c-2.6,2-5.5,3.9-7.9,6.2c-7.4,7-14.6,14.2-21.9,21.3c-0.3,0.3-0.7,0.7-0.8,1.1c-1.2,5.1-2.3,10.2-3.7,16
		c1.7-0.4,3.4-0.4,4.4-1.2c4.5-3.6,9.5-7,13-11.4c6.2-7.9,11.4-16.4,16.9-24.8c2.2-3.3,4.4-5.6,8.3-2.4c1.2-1.4,2.1-2.6,3.3-3.6
		c0.7-0.5,1.8-0.5,2.7-0.8c0.1,0.8,0.6,1.9,0.2,2.5c-1.2,1.9-2.6,3.7-3.4,4.8c0.2,1.7,0.7,3,0.4,4.2c-0.7,2.9-1.5,5.9-2.8,8.7
		c-5.8,12.7-8.3,26.3-11.4,39.7c-0.5,2.1-0.1,4.4-0.1,6.5c0.4,0,0.9,0.1,1.3,0.1c11.4-19.7,12.5-42.8,20.5-63.8
		c0.8,1.9,0.3,3.6,0.4,5.3c0.1,1.6,0.8,3.2,1.2,4.7c0.8-1.1,1.6-2.2,2.3-3.4c0.3-0.5,0.4-1.2,0.7-1.8c0.5,0,1,0.1,1.4,0.1
		c0.2,6.9,0.6,13.9,0.4,20.8c-0.2,9.7-3.9,19.6,2.1,28.9c1,1.5,0.7,3.9,1.1,5.8c0.8,3.5,1.7,7.1,2.5,10.6c0.7,0,1.4-0.1,2.1-0.1
		c0.8-11.5,2.7-23,2.1-34.4c-0.6-11.2-3.8-22.3-5.9-33.4c0.3-0.3,0.6-0.6,0.8-0.8c2.3,3,4.8,5.8,6.9,8.9
		c6.2,9.5,12.2,19.3,18.5,28.8c2.6,3.9,6.1,7.1,11,8.1c1.9-4.3,0.8-7.9-1.4-11.5c-7.7-12.5-16.1-24.4-26.7-34.6
		c-1-0.9-1.7-2.1-2.6-3.2c0.3-0.3,0.6-0.7,0.9-1c2.1,1.1,4.4,1.9,6.2,3.3c4.8,3.8,9.3,7.9,14,11.8c10.7,8.6,21.3,17.1,32.1,25.5
		c1.6,1.2,3.9,1.6,5.8,2.3c0.3-0.5,0.6-1,0.8-1.5c-16.4-19.4-38.3-32-58.7-46.8c1.6-0.4,3.2-0.7,4.6-0.4c2.8,0.7,5.5,1.8,8.2,2.7
		c13.2,4.4,26.6,6.5,40.4,2.8c4.8-1.3,6.6-5.4,2.9-7.6c-3.8-2.2-9.6-4.7-12.9-3.2c-8.3,3.6-16.6,3.6-25.1,3.2c-6-0.3-12-1.8-18-2.7
		c0-0.5,0-1.1,0-1.6c1.9-0.5,3.9-1.1,6.1-1.7c-0.1-0.7-0.2-1.6-0.2-2.6c17.1-4,34.2-7.5,48.6-18.1
		C798.8,273.4,801.1,270.5,803.7,268z M738.7,317.8c-2.1-3.1-3.7-5.4-5.6-8.2C737.7,309.8,739.2,311.9,738.7,317.8z M727.4,310.6
		c-6.9,0-13.9-7.5-13.9-14.9c0-7,7.7-14.8,14.3-14.6c4.6,0.2,11.8,9.7,11.7,15.5C739.5,304.1,733.8,310.6,727.4,310.6z"/>
	<path fill="#C49A6C" d="M747.3,280.7c-0.4,0.1-0.9,0.1-1.3,0.2C746.4,280.8,746.9,280.7,747.3,280.7L747.3,280.7z"/>
	<path fill="#C49A6C" d="M488.3,664.6c1.9-1.8,3.3-4.1,5.1-6.4c-7.7-2.9-18.2,0.7-23.1,8.2c-3.7,5.7-6.4,12-9.3,18.2
		c-1.7,3.6-3,7.4-4.5,11.1c-1.8-4.8-2.3-9.5-3.3-14c-0.8-3.7,0.4-6.3,2.6-9.1c7.4-9.4,14.8-18.9,21.6-28.8
		c3.2-4.7,5.2-10.3,4.2-16.5c-10.8,1-18,6.7-22.3,15.7c-4,8.3-6.9,17.1-10.5,26.4c-1.9-7.5-3.7-14.5-5.4-21.6
		c-1.2-4.9,0.4-8.9,4.1-12.3c3.2-2.8,6.2-5.9,9.3-8.9c7-6.9,13.7-14,17.5-23.2c1.4-3.3,1.8-7,2.6-10.5c-0.6-0.2-1.2-0.5-1.7-0.7
		c-19,6.2-27.3,21.8-33.2,39.4c-0.4-6.1-0.2-12-0.4-17.9c-0.1-3.2,1.1-5.1,3.5-7.3c8-6.9,11.4-16,12.2-26.9
		c-7.7,2.3-11.1,8.4-15.9,14.1c-2.7-13.5-2.7-26.7-8.7-39.9c-4.5,11.3,0.5,20.9,1.5,30.5c-3.7,1.8-4,4.1-1.9,7.9
		c1.4,2.6,3.1,5.5,3.2,8.3c0.3,12.6,0.1,25.2,0.1,37.5c-1.4-1.4-3.1-3.6-5.3-5.1c-5.2-3.7-6.1-8.7-6.2-14.7
		c-0.1-4.9-1.2-10-2.9-14.6c-1-2.8-3.8-5-5.8-7.4c-0.6,0.3-1.1,0.6-1.7,0.9c1.4,6.7,2.8,13.4,4.3,20c-7.5-6.1-14.2-12.7-24.5-16
		c0.7,3.7,0.8,6.6,1.8,9.1c3.9,9.3,10.7,16.2,20,19.6c6.4,2.3,11.7,5.7,16.1,10.7c2.5,2.9,6.3,5.2,6.5,10.2
		c-12.2-9.7-24.8-16.7-41.9-14.7c9,11.8,16.2,23.3,28,30.8c5.9,3.7,11.8,7.6,17.7,11.3c5.5,3.4,8,9.9,6.4,15.9
		c-5.8-4.6-11.5-9.8-18-13.9c-6.5-4.2-14-6.1-22.1-5.4c0.1,0.9,0.1,1.4,0.3,1.8c4.5,13.1,13.5,21.1,27.2,23.4
		c8.5,1.4,13.8,6.2,15.6,14.5c1.1,5,1.7,10.2,2.3,15.3c0.7,6,0.9,12.2,1.9,18.2c0.2,1.4,2.3,2.4,3.6,3.6c0.8-1.4,2.3-2.7,2.3-4.1
		c0-4.4-0.6-8.8-0.9-13.2c-1-17.1-4.8-13.7,10.9-26.8c6.2-5.2,11.2-11.9,16.1-18.4c2.9-3.9,1-6.9-3.7-5.6
		c-5.2,1.5-10.2,4.3-14.9,7.2c-3.2,2-5.6,5.3-8.5,8.2c0-4.7,2.1-9.9,6.6-14.3C473.9,677.7,481.3,671.3,488.3,664.6z M472.5,638.9
		c0.5,0.3,1,0.7,1.5,1c-5.3,8.1-10.6,16.2-15.9,24.2c-0.5-0.2-0.9-0.5-1.4-0.7C460.8,654.5,465.3,645.9,472.5,638.9z M466.1,605.3
		c0.3,0.3,0.7,0.5,1,0.8c-5.7,7-11.3,13.9-17,20.9c-0.4-0.3-0.8-0.6-1.2-0.9C453.1,618,458.2,610.5,466.1,605.3z M413.4,622.9
		c-6.6-1.9-11.1-6.3-14.5-12c0.4-0.5,0.9-0.9,1.3-1.4c4.7,4.1,9.5,8.1,14.2,12.2C414,622.2,413.7,622.6,413.4,622.9z M406,643.8
		c16.3,1,33.7,12.5,38.9,29C431.4,663.8,416.2,657.6,406,643.8z M433.6,692.6c-5-2.2-10-4.5-15-6.7c0.3-0.8,0.6-1.6,0.9-2.4
		c5.1,2.3,10.1,4.6,15.2,6.9C434.2,691.1,433.9,691.8,433.6,692.6z"/>
	<path fill="#C49A6C" d="M727.3,140.6c8.2,6.2,18.3,5.9,28.1,6.3c3.3,0.1,6.6,0.4,10.5,0.7c-3.5,3.1-6.2,5.5-8.9,7.9
		c0.2,0.4,0.4,0.8,0.6,1.2c2.9,0.3,5.8,0.6,8.8,0.9c-1.8,4.8-3.6,9.4-5.4,14.3c4.6,0.4,5.4-2.5,6.7-5.1c1.5-3,1.4-7.1,5.8-8
		c0.7,3.2,2.3,6.5,2.1,9.7c-0.8,17.5-2,34.9-2.9,52.4c-0.1,1.2,1.5,3.3,2.6,3.6c4.1,1,4.8-2,4.9-5.1c0.7-15.4,1.4-30.7,2-46.1
		c0.2-5.7,0-11.3,0-17c0.6-0.2,1.2-0.4,1.8-0.7c2,3.6,4,7.2,5.9,10.8c0.3,0.5-0.2,1.5,0.1,1.8c0.9,0.7,1.8,1.3,2.8,1.9
		c0.3,0.2,0.6,0.4,1,0.6c0.3-0.6,0.9-1.2,1.3-1.8c0.4-0.6,0.7-1.2,0.6-1.6c-2.1-5.9-4.5-11.6-6.6-16.8c5.8-0.6,12.6-1.3,19.3-1.9
		c17.2-1.6,29.7-10.9,39.8-24c1.8-2.4,3.2-5.2,4.4-7.9c1.7-3.7,0.3-6.6-3.2-8.3c-2.6-1.3-5.5-2.3-8.3-3.5c0.4-1.3,0.8-2.4,1.2-3.6
		c1.6-6,0.3-8.2-5.8-9.3c-4-0.7-8.1-0.8-11.7-1.2c-0.3-4.2,0.3-8.7-1.2-12.4c-2-5-7.3-2.6-11.6-2.7c0.3-1.8,0.5-3.3,0.8-4.7
		c1.5-8.1-4-13-11.9-10.5c-1.3,0.4-2.5,1.3-3.8,1.4c-1.3,0.1-3.2-0.2-3.9-1.1c-5-6.7-7-7.1-14.2-2.1c-8.2-8.6-10.3-8.4-17.6,0.8
		c-0.8,1-3.2,1.2-4.6,0.9c-2.9-0.7-5.6-2.3-8.6-2.9c-6.4-1.5-10.8,2.6-10.2,9.1c0.2,1.9,0.5,3.9,0.7,5.8c-0.3-0.2-0.6-0.5-1-0.7
		c-1.3,1.7-3.3,3.2-3.8,5.1c-1,4.5-1.3,9.1-2,14.1c-3-0.2-6.3-0.6-9.6-0.5c-6.2,0.2-8.1,3.1-6.4,9c0.4,1.5,0.9,3.1,1.3,4.7
		c-1.5,0.4-2.5,0.7-3.5,1c-9.6,3.2-12.1,10-5.4,17.8C714,129.4,720.4,135.5,727.3,140.6z M846.2,111.4c3.8,1.2,4.3,3.2,2,6.3
		c-8.4,11.4-19.3,19.2-33.2,22.7c-8.2,2-16.4,3-25.4-0.6c14.9-3,24.7-12.6,35.4-20.9c1.9-1.5,3.9-3,5.6-4.7
		C835.2,109.3,840.5,109.7,846.2,111.4z M837.4,97.2c2.2,1,2.7,2.4,1.4,4.3c-1.2,1.7-2.4,3.6-4,4.9c-9.1,7.4-18.1,14.9-27.5,21.9
		c-5.5,4.1-11.7,6.9-19.6,7.8c9.9-12.3,19-23.9,28.5-35.2C820.4,95.9,831.4,94.4,837.4,97.2z M817.3,79.8c3.5,0.3,5.2,2.1,4.6,5.3
		c-0.5,2.8-1.4,5.7-3.1,7.9c-8.2,10.6-16.6,21-25.1,31.4c-2.5,3.1-5.2,6-7.9,8.8c-0.8,0.8-1.9,1.2-3,2c2.8-18.6,12.6-33.2,22-47.9
		C807.7,82.7,811.2,79.2,817.3,79.8z M810.3,68c1.5,3.9-1.7,10-7.6,13.3c-1.3-5.7-2.5-10.8-3.6-16C804.6,63.6,809.1,64.8,810.3,68z
		 M796.4,68.6c7.6,7.3,4.2,27.9-6.1,33.4c-0.3-10.2-2.8-19.8,0.7-29.4c0.5-1.4,1.1-3,2.1-3.9C793.8,68.1,795.8,68,796.4,68.6z
		 M788.4,60.9c1.4,0.8,2.7,3.2,2.7,4.9c-0.1,1.8-1.7,3.6-3.1,6.1c-2-2.4-3.7-3.9-4.7-5.8c-0.8-1.5-0.6-3.5-0.8-5.3
		C784.5,60.7,786.9,60,788.4,60.9z M778.8,66.4c4.6,3.7,8.2,7.9,8.5,14.2c0.9,16.6,0.8,33.1-7,48.5c-0.5,0.9-0.9,1.9-1.6,3.5
		C772.7,116.6,772.9,76.1,778.8,66.4z M765.9,59c3-0.5,6.2-0.4,9.2,0.2c0.5,0.1,1,3.4,0.6,5c-1,4.4-2.5,8.6-4.1,13.9
		c-2.6-5.4-4.9-9.6-6.6-14.1C764.4,62.7,765.3,59.1,765.9,59z M757.1,69.5c0.6-1.3,2.2-3,3.4-3.1c1.1-0.1,2.8,1.5,3.6,2.7
		c6,9.2,8.9,23.6,6.6,34.3c-4.5-5.1-8.7-9.2-12.2-14C754.1,83.2,754.2,76.3,757.1,69.5z M744.8,62.6c3.4,0.2,6.8,0.7,10.5,1.1
		c-1.5,5.8-2.7,10.6-4,15.7c-5.2-2.5-9.2-6.1-10.2-12.2C740.5,64.3,741.5,62.4,744.8,62.6z M735.4,82.8c0.6-3.9,3.2-5.7,6.5-3.7
		c4.4,2.6,8.4,5.8,12.1,9.3c3.2,3.1,5.4,7.4,8.6,10.6c9.6,9.5,11.8,21.6,12.2,34.3c0,0.7-0.2,1.4-0.3,2.1c-0.3,0.1-0.7,0.2-1,0.2
		c-2-3.7-4.1-7.4-6.1-11c-6.8-12.2-15.3-23-27.1-30.9C736.4,91,734.6,87.5,735.4,82.8z M720.4,96.3c0.7-0.2,1.5-0.4,2.2-0.6
		c0.7-0.2,1.5-0.3,2.2-0.3c9.1-0.3,16.9,2.6,23.5,9c9.3,9,16.5,19.3,22.3,31.9c-2.6-0.8-4.5-1.1-6.2-1.8
		c-10-4.1-18.3-10.7-26.3-17.7c-4.8-4.2-9.8-8.2-14.7-12.2c-0.6-0.5-1.4-0.9-1.7-1.5c-0.8-1.5-1.5-3.1-2.2-4.7
		c-0.2-0.5-0.5-1.1-0.7-1.6C719.4,96.5,719.9,96.4,720.4,96.3z M715.8,109.9c5.5-0.7,10.2,0.6,14.3,4.4c3.9,3.6,8,7,12.1,10.5
		c7.2,6.2,14.8,11.6,24.8,13.9c-9,0-17.3,1-25.3-0.2c-12.7-2-22.2-10.3-30-20.1C707.7,113.3,709.3,110.7,715.8,109.9z"/>
	<path fill="#C49A6C" d="M793.9,170.7L793.9,170.7c-0.3-0.2-0.6-0.4-1-0.6C793.2,170.3,793.6,170.5,793.9,170.7z"/>
	<polygon fill="#C49A6C" points="1102.6,185 1102.6,185 1102.6,185 1102.6,185 	"/>
	<path fill="#C49A6C" d="M1061.6,298.2c1.1-18.2,5.9-35.3,15-51.2c1.3-2.2,3.3-3.9,5.2-6c1.6,2.1,2.5,3.4,3.8,5.2
		c1-2.2,1.8-3.9,2.6-5.5c1.7,0.5,3.1,0.8,4.6,1.3c0.8-3,1.6-5.6,2.5-8.7c1.6,1.5,2.5,2.4,3.7,3.5c0.8-1.3,1.4-2.2,1.9-3.1
		c0.4,0.2,0.8,0.4,1.2,0.5c-0.7,2.5-1.3,5.1-2.2,7.5c-0.9,2.5-2.1,4.8-3.7,8.4c3.5-1.2,5.5-1.9,7.3-2.6c3.6,7.1-3.1,11.8-4.8,18.8
		c2.8-1.2,4.5-2,6.2-2.7c0.2,1.6,0,3.4,0.6,4.9c0.5,1.2,1.7,2.3,2.9,2.8c0.5,0.2,1.9-1.3,2.5-2.3c1.8-3.5,1.3-7-0.2-10.5
		c-1.2-3-2-6.1-3.2-9.8c3.1,1.4,5.3,2.4,7.5,3.4c0.3-0.4,0.6-0.8,1-1.2c-1.5-2.3-3.8-4.4-4.2-6.9c-0.9-4.7-0.7-9.6-0.9-14.4
		c0-0.2,0.7-0.4,1.9-1c0.9,2.1,1.6,4.1,2.6,6c1,1.9,2.4,3.6,4,5.9c0.8-2.3,1.1-3.5,2-6c5.2,5.6,2.5,12.4,5,18.1
		c1.2-1.9,2.2-3.4,3.5-5.6c3.2,4.7,6,8.8,8.9,13c0.4-0.2,0.9-0.4,1.3-0.6c-0.4-2.9-0.7-5.8-1.1-8.7c2.4,0.5,4.7,1,7.5,1.6
		c-2.5-7-9.2-7.5-14.3-11.4c3.2-0.6,5.5-1.1,8.8-1.8c-6.4-3.3-11.6-6-17.3-9c3-2.2,4.9-3.6,7.1-5.1c-3.5-3.3-6.1-2.4-9-0.7
		c-1.1,0.7-3,0.3-4.5,0.1c-0.4-0.1-1-1.9-0.7-2.2c1.2-1.2,2.6-2.6,4.1-3.1c1.2-0.4,2.7,0.6,3.6,0.8c1.2-1,2.2-2.1,3.4-2.7
		c1.5-0.7,3.2-1,4.8-1.5c0.8,3.9,3.6,1.6,5.7,1.9c1.1,0.2,2,1.1,3,1.7c0.1,0.1,0.2,0.2,0.4,0.3c2.3,3.2,4,7.2,9.4,5.7
		c0.9-0.3,2.2,1.5,3.5,1.9c1.8,0.7,3.6,1,5.5,1.5c-0.4-1.6-0.9-3.2-1.3-4.7c-0.1-0.4-0.2-0.8-0.3-1.2c8.2-1.6,8.2-1.6,9.2-5.4
		c-2.5,0-4.9-0.1-7.3,0c-3.1,0.1-6.1,0.6-7.9-3.1c-0.4-0.9-2.8-1-4.3-1.1c-1.9-0.2-4,0.2-5.7-0.3c-2.8-0.9-5.4-2.5-7.9-3.7
		c4.8-5.5,7.9-6.4,11.9-3.1c3-2.1,3-2.1,1.6-5.3c-0.3-0.6-0.4-1.8-0.1-2c0.6-0.4,1.7-0.7,2.4-0.5c1.5,0.4,2.8,1.3,4.2,1.7
		c2.7,0.7,5.4,0.9,6.9-2.7c-2.2-0.8-4.3-1.5-6.1-2c1.5-2.9,3-5.6,4.7-8.7c-6.2-1.2-7,9-13.8,4.8c1.1-1.9,2-3.3,3.5-5.9
		c-3.7,1.3-6.3,2.3-8.9,3.2c-0.8-0.9-1.7-1.8-2.1-2.2c-3.1,1.8-5.6,3.3-8.2,4.8c-0.4-0.6-0.8-1.1-1.2-1.7c2.7-2.5,5.5-5,8.2-7.5
		c-0.2-0.4-0.4-0.9-0.5-1.3c-2,0-4.1,0-6.2,0c0.3-4.3,3.8-3.3,6.2-3.6c3.4-0.5,6.9-0.8,8-5.3c-1.6-0.1-2.6-0.2-3.7-0.3
		c-1-0.1-2-0.2-3.1-0.3c0.6-8.1,0.6-8.1-2.7-10c-2.5,2.9,0.6,8.5-4.7,10.4c-1-2.5-2-4.9-3-7.2c-0.4,0-0.8,0-1.2,0
		c0,5.9-0.1,11.9,0.1,17.8c0,1,0.8,2.1,1.2,3.1c0.5-0.3,1-0.6,1.4-1c-1.1,1.4-2.2,2.9-3.8,4.9c-1.3-3.5-1.6-6.9-3.5-8.6
		c-2.8-2.6-1.9-4.2-0.4-6.6c1-1.6,1.4-3.6,2.1-5.4c-0.4-0.2-0.9-0.3-1.3-0.5c-1.3,1.7-2.6,3.5-4.6,6.2c0.5-6,0.9-10.7,1.3-15.5
		c-0.4-0.1-0.8-0.3-1.3-0.4c-1,0.9-2,1.7-2.5,2.1c-2-0.9-3.6-1.6-5.3-2.4c-0.1,1.7-0.5,3.3-0.4,5c0.1,2.1,3.7,4.4,0.5,6.3
		c-3.3,1.9-4-2-5.8-3.6c-0.1-0.1-0.3,0-0.6,0c-0.3,2.3-0.6,4.7-0.9,7c-2.4-0.9-4.1-1.6-6.5-2.5c0.3,2.5,0.4,3.9,0.5,4.9
		c-2.9,1.3-5.4,2.4-8,3.6c-0.3-2.6-0.6-5.2-0.9-7.7c-0.5,0-1-0.1-1.5-0.1c-0.7,2.9-1.3,5.8-2.2,9.9c-2.3-4-4-7.1-6-10.5
		c-5.9,6.7,1.3,9.6,3.7,13.8c-3.1,0.9-6,1.6-8.9,2.4c0,0.6,0,1.3-0.1,1.9c2.6,0.9,5.2,1.6,7.7,2.6c3.7,1.5,7.5,2.9,11,4.8
		c0.7,0.4,1.1,1.5,1.6,2.5c0.1,0.3,0.3,0.7,0.4,1l0,0v0c-0.4,0-0.7,0.1-1.1,0.2c-1.1,0.2-2.2,0.5-3.2,0.3c-1.2-0.3-2.1-1.7-3.3-2.3
		c-1-0.5-2.3-0.6-3.4-0.9c-0.1,0.5-0.3,1-0.4,1.5c4.3,2.8,8.7,5.3,14.2,5.5c1.1,0,2.1,0.6,3.2,1c-0.5,0.9-0.9,1.9-1.5,2.8
		c-0.3,0.5-1.1,0.8-1.4,1.3c-2,3.1-5.1,3.4-7.6,0.5c-1-1.1-1.7-2.5-2.6-3.8c-1.3,1-2.5,1.8-3.5,2.5c-2.2-2-4.1-3.8-6-5.6
		c-0.3,0.3-0.6,0.6-0.9,0.8c0.4,2,0.8,3.9,1.4,7.3c-4.2-3-7.3-5.3-10.8-7.8c0.2,2.4,0.4,4.1,0.6,6.2c-4,0-7.8,0-11.7,0
		c-0.4,0.2-0.8,0.4-1.2,0.6c6.7,4.1,1.4,9.6,2.4,15.3c5-4,6.5-11.9,14.5-9.3c-1.3,3-2.6,5.9-3.9,8.9c0.4,0.4,0.8,0.7,1.2,1.1
		c3.2-2.6,6.5-5.2,9.7-7.8c0.8,2.1,1.1,4,0.3,4.8c-3.8,3.6-0.9,4.8,1.9,6.1c1.1,0.6,2.4,1,5,2.1c-6,2.8-10.7,5.1-15.5,7.4
		c0.2,0.5,0.3,0.9,0.5,1.4c1.8,0.6,3.6,1.1,6.1,2c-14.1,18.5-17.2,40.6-22.9,61.6C1060.1,305.1,1061.2,304.3,1061.6,298.2z
		 M1142.2,195.9c0.9-0.1,2,1.2,3.8,2.5c-1.8,1.2-2.7,2.3-3.7,2.3c-0.7,0-2.2-1.5-2.1-2.1C1140.3,197.6,1141.3,196,1142.2,195.9z
		 M1106.6,233.5c-4.6-2.2-5.4-4.2-3-7.9C1108.9,227,1109.8,229.3,1106.6,233.5z M1104.5,221.5c0.4-4.1,1.8-4.3,10.7-2.1
		C1113.8,221.8,1113.8,221.8,1104.5,221.5z M1126.8,193.8c2.7,0.5,5.3,1.9,7.8,3.1c0.8,0.4,1.3,1.4,2.2,2.4
		c-0.9,1.3-1.4,2.7-2.4,3.4c-0.8,0.5-2.3,0.5-3.3,0.1c-2.3-0.9-4.7-1.9-6.6-3.3c-1.3-1-2.1-2.9-3-4.4
		C1123.2,194.6,1125.1,193.4,1126.8,193.8z M1122.5,203.3c2.5,5.3-1,7.2-2.7,9.9c-1.7,2.7-3.8,2.7-6.6,1.7c-2.4-0.9-5-1.1-7.6-1.6
		c-0.1-0.3-0.3-0.7-0.4-1C1111.3,210,1118.8,210.8,1122.5,203.3z M1110.5,205.8c1.9-2.7,3.7-5.5,6.1-9c0.5,3.6,0.8,5.7,1.3,8.6
		c-2,0.4-4.4,0.9-6.7,1.4C1110.9,206.4,1110.7,206.1,1110.5,205.8z M1119.4,190.1c-1.8,3.1-3.7,3.8-6.6,0.1c1.5-1.2,2.6-2.1,4-3.2
		C1117.6,188,1118.5,189,1119.4,190.1z M1116.1,178.7c-0.4,1-0.8,2.8-1.3,2.8c-1.7,0-3.3-0.6-5-0.9c0.1-0.7,0.2-1.5,0.3-2.2
		C1112.1,178.6,1114.1,178.7,1116.1,178.7z M1111.8,169.7c2.8,3.1,2.9,5.1,0.1,6.4c-0.7,0.3-1.9-0.5-2.9-0.8
		C1109.9,173.6,1110.8,171.9,1111.8,169.7z M1098.5,188.1c-1.5,1.1-2.9,2.2-4.4,3.3c-3.6-3-3.6-4.5,0.4-7.7c1.3-1,2.2-2.5,3.5-4
		c1.7,1.9,3.2,3.7,4.8,5.4c0,0,0.1-0.1,0.1-0.1l0,0c0,0,0,0,0,0l0,0c0,0,0,0,0,0c0,0,0,0,0,0c0,0,0,0.1,0,0.1c1.3,0,2.7,0,4,0
		c-0.3,1.1-0.4,2.4-1.1,3.2c-3.2,3.3-0.8,4.1,2.3,4.8c-0.3,1.1-0.6,2.1-0.9,3.1c0,0,0.1-0.1,0.1-0.1c0,0,0,0-0.1,0.1c0,0,0,0,0,0
		c0,0,0,0,0,0c0,0,0,0.1-0.1,0.1c4.2-0.1,5.1,1.3,3.4,5c-1.3,2.8-1.9,6.5-7.4,6.5c1.5-4.2,2.8-7.8,4.1-11.5c0,0-0.1,0-0.1,0
		c0,0,0,0,0,0c-0.5,0.5-1,1.1-1.6,1.3c-1.5,0.4-3.3,1.1-4.4,0.5c-0.8-0.4-1.4-2.7-1.1-3.9c0.3-1.5,0.8-3,1.3-4.5
		c0.5-1.5,1-2.9,1.5-4.4c0,0-0.1,0-0.1,0c0,0,0,0,0,0C1101.2,186,1099.9,187.1,1098.5,188.1z M1096.3,219c-2.9,6.2-4.4,6.6-9.6,2.5
		C1089.5,220.8,1092.4,220,1096.3,219z M1081.2,226.3c-0.3,0.1-1-1.8-1.5-2.7c1.9-0.6,3.8-1.1,5.7-1.7c0.3,0.9,0.6,1.7,0.8,2.6
		C1084.5,225.1,1082.9,225.9,1081.2,226.3z"/>
	<path fill="#C49A6C" d="M1102.7,185c0,0,0-0.1,0-0.1c0,0,0,0,0,0C1102.8,184.9,1102.8,185,1102.7,185L1102.7,185z"/>
	<path fill="#C49A6C" d="M1107.1,196C1107.1,196,1107.1,196,1107.1,196c0,0-0.1,0.1-0.1,0.1S1107.1,196,1107.1,196z"/>
	<path fill="#C49A6C" d="M1102.7,185C1102.7,185,1102.7,185,1102.7,185C1102.7,185,1102.6,185,1102.7,185
		C1102.6,185,1102.6,185,1102.7,185C1102.6,185,1102.6,185,1102.7,185C1102.7,185,1102.7,185,1102.7,185
		C1102.7,185,1102.7,185,1102.7,185C1102.7,185,1102.7,185,1102.7,185z"/>
	<path fill="#C49A6C" d="M1102.8,184.9C1102.8,184.9,1102.8,184.9,1102.8,184.9C1102.8,184.9,1102.8,184.9,1102.8,184.9
		C1102.8,184.9,1102.8,184.9,1102.8,184.9z"/>
	<path fill="#C49A6C" d="M1093.8,199.2c-0.4,0-0.7,0.1-1.1,0.2C1093.1,199.3,1093.5,199.2,1093.8,199.2L1093.8,199.2z"/>
	<path fill="#C49A6C" d="M347.5,360.1c3.1-7,2.2-10.5-3.4-14C340.7,351.6,341.7,355.4,347.5,360.1z"/>
	<path fill="#C49A6C" d="M831.8,186.1c-0.6-0.1-1.3-0.1-1.9-0.2c-1.3,1.8-3.6,3.5-3.7,5.5c-0.1,1.5,2.2,3.3,3.5,4.9
		c1.6-2,3.6-3.7,4.5-5.9C834.6,189.4,832.7,187.5,831.8,186.1z"/>
	<path fill="#C49A6C" d="M825.6,222.8c-0.4,0.7-2.3,2.4-2,3.6c0.3,1.1,1.1,2.2,2,3.1c0.6,0.6,1.1,1.2,1.6,1.8c0.6-0.7,1.4-1.3,2.1-2
		c0.7-0.7,1.3-1.3,1.4-2.1C831.1,225.1,830.9,222.1,825.6,222.8z"/>
	<path fill="#C49A6C" d="M293.1,370.7c0.3-2.1,0.5-4.3,0.8-6.6c-3,0-5.2,0-7.3,0c-0.3,0.4-0.6,0.9-0.9,1.3c2.1,2,4.1,4,6.2,6
		C292.3,371.2,292.7,370.9,293.1,370.7z"/>
	<path fill="#C49A6C" d="M1137.6,220.5c0,2.2,0.5,4.4,0.9,6.6c0.5,0,1.1,0,1.6,0c0.5-2.4,0.9-4.9,1.4-7.3c-0.1-0.1-0.2-0.2-0.4-0.3
		C1139.9,219.8,1137.6,220.1,1137.6,220.5z"/>
</g>
</svg>
