<?xml version="1.0" encoding="utf-8"?>
<!-- Generator: Adobe Illustrator 27.3.1, SVG Export Plug-In . SVG Version: 6.00 Build 0)  -->
<svg version="1.1" id="Layer_1" xmlns="http://www.w3.org/2000/svg" xmlns:xlink="http://www.w3.org/1999/xlink" x="0px" y="0px"
	 viewBox="0 0 1200 800" enable-background="new 0 0 1200 800" xml:space="preserve">
<g>
	<path fill="#C49A6C" d="M848.9,271c-0.3,0-0.7,0-1-0.1C848.3,270.9,848.6,270.9,848.9,271z"/>
	<path fill="#C49A6C" d="M245.1,601.1c-0.2-1.1-0.3-2.2-0.3-3.2C244.8,598.9,244.9,600,245.1,601.1z"/>
	<path fill="#C49A6C" d="M841.9,157.9c-0.3-0.7-0.5-1.4-0.8-2C841.4,156.5,841.6,157.2,841.9,157.9
		C841.9,157.9,841.9,157.9,841.9,157.9z"/>
	<path fill="#C49A6C" d="M244.7,597.9c0-0.5-0.1-1-0.1-1.6C244.7,596.8,244.7,597.4,244.7,597.9z"/>
	<path fill="#C49A6C" d="M847.4,164.1c-1.5-1.9-3.3-3.6-4.9-5.4c0,0,0,0,0,0C844.1,160.5,845.9,162.2,847.4,164.1z"/>
	<path fill="#C49A6C" d="M846.1,270.8L846.1,270.8c0.2-0.5,0.3-0.9,0.5-1.5C846.5,269.9,846.3,270.4,846.1,270.8z"/>
	<path fill="#C49A6C" d="M247.1,573.3c4.6-0.2,9.3-0.4,13.9-0.6c0,0,0,0,0,0C256.4,572.9,251.7,573.1,247.1,573.3z"/>
	<path fill="#C49A6C" d="M1051.5,307.6c-3.3-6.5-9.4-7.6-15.9-7.4c-0.3,0-0.7-0.3-1.3-0.6c0-0.8,0-1.7,0-2.7
		c-0.2-8.9-6.6-13.9-14.8-10.7c-4.1,1.6-8.6,4.8-10.4,8.5c-2.6,5.4-2.8,11.9-4.4,17.8c-0.6,2.2-1.6,4.9-3.3,5.9
		c-5,3-10.4,5.3-15.7,7.8c-3.2-12-10.1-15.4-21.1-10c-9.2,4.5-15.6,11.5-18.3,21.6c-0.6,2-1.1,4.8-2.5,5.6
		c-7.1,3.7-14.5,6.8-22.1,10.3c0-5.3-0.1-9.7,0-14.2c1.4-72.8-17.7-139.6-63.8-196.2C778.3,46,674.2,8.4,550.5,24
		c-40.4,5.1-78.4,18.5-113.9,38.6c-71.3,40.5-120.2,99.3-145,177.7c-9.6,30.6-13.9,61.9-12.9,94c0.2,6.3,0,12.6,0,19.7
		c-7.2-3.6-13.8-6.6-20-10c-1.7-0.9-3.4-3.1-3.9-5c-2.9-10.8-9.7-18-19.5-22.7c-0.9-0.4-1.8-0.7-2.7-1c-9.2-2.9-13-0.7-17.8,11
		c-3.1-1.6-6-3.6-9.2-4.6c-7.5-2.3-9.9-6.9-9.8-14.7c0.1-8.9-4.5-16-12.8-20.1c-8.4-4.2-15.2-0.7-16.8,8.4c-0.3,1.7-0.6,3.4-0.9,5.2
		c-2.7,0.3-5.3,0.3-7.8,0.8c-7.5,1.4-11.9,7.6-10.1,15c0.8,3.5,2.3,7.1,4.4,10c8.4,11.5,23.7,12.8,36.4,3.4c1.5-1.1,4-2.5,5.3-2
		c7.3,2.9,14.4,6.4,22.3,10.1c-2.5,1.8-3.9,2.8-5.2,3.8c-6.5,4.8-7.7,10.3-3.6,17.2c2.9,4.9,7.3,7.4,12.9,8.1
		c12.9,1.5,22.5-4.6,30.8-14.1c4.8,2,9.6,4.2,14.5,6c9.9,3.7,14.8,9.8,16.3,21.2c5,36.6,16.1,71.5,36.8,102.6c0.6,0.9,1,2,2.2,4.5
		c-8.4-1.8-15.9-2.5-22.6-5.1c-20.5-8-17.6-7.1-15.8-25c0.1-0.8,0.2-1.6,0.2-2.3c0.3-9.7-8.3-18.7-17.8-19
		c-4.2,11.3,0.2,21.1,5.6,31c-7.1-6.8-13.3-14-19.3-21.3c-6.6-8.1-9.3-16.9-5.2-27.2c0.9-2.3,1-5,0.9-7.5
		c-0.1-7.4-5.8-15.5-12.1-17.5c-8.6,11-7.6,22.8-2.4,35.2c-5.5-7.5-11.2-13.9-20.7-14.5c-8.6-0.5-16.7,1.3-24.3,6.3
		c2.4,3.1,4.4,5.5,6.2,8c8.8,12.1,19.7,18.7,35.2,14.2c1.5-0.4,3.9,0.4,5.1,1.6c3.4,3.4,6.4,7.2,9.5,10.8c-4.4,1.5-8.3,2.5-12,4.1
		c-1.1,0.5-2.4,2.8-2.1,3.9c3.3,11.7,17.8,19.6,29.3,16.7c2.4-0.6,5.6,0.1,7.9,1.3c9.2,4.7,18.1,9.9,27.1,14.8
		c1.5,0.8,3,1.7,4.5,2.5c-14.6-1.3-24.1,5.6-31.7,16.7c7.6,4,14.6,8.9,23.4,7.5c8.9-1.4,13.8-8.2,18.6-15.1
		c9.6,6.8,13,15.9,13.3,26.6c0.1,3.6-1.3,5.4-4.6,6.2c-6.3,1.5-12.6,2.7-18.6,4.9c-10.6,3.7-21,2.7-31.5,0.3
		c2.4-22.4-15.1-32.8-33.2-37.7c-0.6,6.7-2.5,13.4-1.4,19.6c1.1,6.3,5.1,12,7.9,18c-1.5,0.4-4.2,1.2-6.9,2
		c-11.9-14-35.4-12-50.6,4.4c7.7,5.7,15,11.8,23,16.8c8.4,5.3,18.2,5.5,27.8,5.5c4.6,0,9.3-0.2,13.9-0.4c4.6-0.2,9.3-0.4,13.9-0.6
		c-7.3,3.2-11.9,7.4-14.3,12.6c-0.4,0.8-0.7,1.6-1,2.5c-0.4,1.3-0.7,2.6-0.9,4.1c-0.1,0.5-0.1,0.9-0.1,1.4c0,0.7-0.1,1.5-0.1,2.2
		c0,0.3,0,0.5,0,0.8c0,0.5,0,1,0.1,1.6c0.1,1.1,0.2,2.1,0.3,3.2c0.6,4.4,2,9.3,3.9,14.6c4.5-3.2,8.8-6.5,13.3-9.6
		c10-6.8,14.5-15.8,12.4-28.1c-0.4-2.2,1.2-6,3.1-7.2c15.6-9.8,33.2-13.6,51.3-16.1c0.1,0.8,0.2,1.1,0.1,1.2c-0.3,0.5-0.7,1-1.1,1.3
		c-15.8,11.5-21.3,27.7-21.2,46.4c0.1,16.8,0.1,33.6,0,50.4c0,2-0.2,4-0.3,6.4c-8.9-3.5-17.2-3.9-23.1,3.5c-6.1,7.7-5,16.5-0.4,24.8
		c2.1,3.7,4.7,7.3,7.8,10.2c5.6,5.4,12,10,17.7,15.3c4.3,4,7.9,3.2,12.2,0c10.9-8.1,21.7-16.1,26.4-29.6
		c4.7-13.6-2.9-26.5-16.1-26.9c-4.1-0.1-8.2,1.5-14,2.6c1-23.7,0.6-47.3,3.3-70.5c2.1-17.6,19.5-31.5,35.7-30.4
		c9.7,0.7,19.8,3.3,28.5,7.6c18.2,8.8,35.6,19.3,53.4,29.1c4,2.2,8.1,4.3,12.1,6.5c-11.2,3.3-22.2,5.6-33.3,7.3
		c-15.1,2.3-30.3,3.3-45.3-0.8c-9-2.5-17.1-6.5-21.2-16.3c0.9-0.6,2-1,2.4-1.7c1.2-2.8,3.7-6.2,2.9-8.4c-0.8-2.4-4.6-4.6-7.4-5.2
		c-5.5-1.1-10,2.9-11,8.9c-1,6-0.5,12.3,4.1,16.4c6.4,5.8,13.3,11.6,20.9,15.5c13.9,7.2,29.3,7.2,44.6,6.7
		c5.4-0.2,10.7-0.6,16.6-0.9v50c-1.2-0.4-2.1-0.6-3-0.9c-15.6-5.6-28.4,3-29.4,19.5c-0.6,9.5,2,18.3,8.5,24.8
		c8.8,8.7,18.8,16.2,28.6,23.8c1.5,1.1,5,0.9,6.8-0.1c5.6-3.1,11.1-6.5,16.1-10.6c10.5-8.6,18.8-18.8,20.5-32.9
		c1.7-13.4-7.1-25.6-19.8-26.2c-5.5-0.3-11.1,2-16.7,3.1v-51c43.6-7.7,81.7,3.1,114.7,31.5c18,15.5,30.8,34.6,31.4,59.3
		c0.5,21.7,0.4,43.4,0.4,65.1h37.1c-0.1-21.3-0.1-42.5,0.5-63.7c0.3-9.5,3-19.4,7-28.1c7.7-16.7,20.2-29.9,35.2-40.7
		c30-21.4,63-30.1,99.6-24.1c1.8,0.3,4.6,2.2,4.7,3.5c0.3,16.1,0.2,32.3,0.2,49c-1.9-0.9-3.2-1.5-4.6-2.1
		c-13.5-6.1-28.2,0.6-30.6,15.2c-1.1,6.5,0.2,14,2.4,20.4c3.4,10.1,11.2,17.3,19.6,23.5c18.2,13.4,13.9,13.7,33.4,0.6
		c12.2-8.2,21.9-18.9,24.2-34.4c2.1-14-5.8-25.6-19.3-26.9c-4.4-0.4-9,1.3-13.7,2V625c6.9,0,13.3-0.2,19.7,0
		c19.5,0.6,38.3-2.1,54.5-13.9c4.5-3.3,8.5-8.1,11.1-13.1c3.8-7.4,0.8-15.9-5.5-19.4c-4.6-2.6-10.2-1.5-12.4,2.4
		c-2.5,4.4-0.8,7.9,5,10.9c0.5,0.2,0.9,0.7,1.4,1.3c-2.7,6.9-8.4,10.5-14.7,13.3c-13.1,5.9-27.1,6.1-40.8,4.7
		c-15.1-1.5-30.1-4.6-45.2-6.9c17.3-11.1,34.3-21,51.6-30.3c8.4-4.5,17-8.9,26-11.9c25.8-8.5,47.6,4.4,53.2,31
		c0.9,4.5,1.2,9.3,1.2,13.9c0.1,17.9,0.1,35.8,0.1,54.3c-2.7-1.1-4.4-1.8-6.3-2.4c-13.5-4.3-25.9,4.5-24.5,18.4
		c0.6,6.2,3.4,13,7.2,17.9c5.5,6.9,12.9,12.3,19.5,18.4c4.3,4,8.3,4.4,13.3,0.7c10.5-7.6,20.9-15.2,26.7-27.2
		c4.8-9.9,3.1-20-4.2-25.6c-6.4-4.9-13.3-4.2-20.9-0.8v-5.7c0-17.2,0.1-34.3,0.1-51.5c0.1-17.9-5.6-33.3-19.9-44.8
		c-1.1-0.9-2.2-1.8-4.6-3.9c19.9,2.6,37.4,6.7,53,16.7c1.8,1.1,3.3,4.3,3.2,6.5c-0.6,17.4,9.5,31.9,27,37.5c2.1-8.3,5-16.4,2.8-25.2
		c-2.3-8.9-8.5-14.2-16.8-17.9c29.9,4.6,57.6,2.7,79.1-22.1c-6.9-6-14.8-10.9-24.3-12.4c-7.4-1.1-15.3-1.6-20.8,4.6
		c-4,4.5-7.7,3.9-12.2,1.9c10.8-12.1,12.4-25.6,4.6-37.3c-17,7.4-33.4,15-30.6,37.4c-20.3,7.4-37.3-2.9-55.3-6.1
		c-0.4-13,2.3-23.8,13-31.3c13.6,17.7,24.7,19.6,41.7,7.4c-7.1-11.6-16.6-18.6-32.3-15.2c12.8-7.5,24-14.1,35.2-20.4
		c1.1-0.6,3.1-0.5,4.4,0c15,5.2,25.1-4.3,30.6-14.6c0.6-1.2-0.2-4.5-1.2-5c-3.9-1.9-8.2-3.1-12.8-4.8c1.4-1.7,3.2-3.5,4.4-5.6
		c3.5-5.8,8.2-7.7,14.9-5.9c7,1.8,14,0.7,19.5-3.8c6.5-5.5,12.1-12.2,18.6-18.9c-9.2-4.6-17.2-6.9-26.1-6.6
		c-10.6,0.4-14.7,9-20.6,15.8c0.4-2.6,1.1-5,2.1-7.2c4.3-9,2.4-17.4-1.9-25.8c-1.9-3.7-4.1-4.2-7.2-1.1c-7,7.1-8.3,15.2-6,24.8
		c1.2,4.7,2.1,10.5,0.4,14.7c-5.4,12.7-14.8,22.7-25.4,32c5.6-10.1,10.4-20.1,5.2-31.6c-12.5,2.7-18.4,10.6-17.2,22.7
		c0.4,3.7,1.4,7.4,1.1,11c-0.2,2.5-1.7,5.9-3.7,7.2c-10.7,6.8-23.1,8.2-35.9,10.7c5.1-8.9,10-16.9,14.3-25.1
		c14.6-28.2,22-58.6,26.1-90c0.3-2.5,2-5.8,4-6.9c7.1-4,14.7-7.2,22-10.9c2.8-1.4,4.2-0.3,6.5,1.5c4.8,3.9,9.9,7.9,15.5,10.1
		c8.2,3.3,16.6,2.5,23.6-3.7c6.9-6.1,6.8-13.5-0.1-19.6c-1.7-1.5-3.5-2.7-5.8-4.6c6.8-3.3,12.9-6.3,19-9.4c2.7-1.4,4.5-1.3,7.2,0.9
		c11.6,9.6,27.6,8.2,36.5-3.1C1052.2,320.6,1055,314.4,1051.5,307.6z M236.5,564.9c1.9-4.4,3-6.8,4.4-10.1
		c10.4,0.6,21.1,1.2,31.8,1.8c0,1,0.1,2.1,0.1,3.1C261.2,561.4,249.5,563.1,236.5,564.9z M301.5,689.8c-6.2-3-9.8-12.7-7.2-17.7
		c1.5-2.8,5.3-3.2,6.5-0.4C303.2,677.5,302.9,683.6,301.5,689.8z M408.3,117.5c4.1-13.7,23.8-24.1,37.5-19.7
		c5.4,1.7,9.3,5.5,10.2,11c0.4,2.4-1,5.5-2.3,7.8c-0.5,0.9-3,0.7-4.7,1c-0.1-1.6-0.6-3.4-0.1-4.8c0.9-2.7,4.6-5.2,0.2-7.7
		c-3.3-1.9-9.3,0.8-10.8,4.6c-2.1,5.4-1.4,10.4,2.8,14.5c4.3,4.2,9.4,5.4,15,3c9.5-4,13.5-15.2,8.8-25.1
		c-4.6-9.5-12.2-15.5-22.8-17.4c18.4-20.4,114.7-48.6,151.9-44.4c0,6.2,0.2,12.6-0.2,18.9c-0.1,1.1-2,2.7-3.3,2.9
		c-11,2.1-19.9,7.6-26.6,16.7c-2.7-4.3-4.9-8.6-7.9-12.4c-11.5-14.9-29.3-18.6-44.7-9.6c-5.3,3.1-8.9,7.3-10.3,13.5
		c-0.4,1.9-2.1,4.3-3.8,5.2c-20.3,10.1-24.9,41.6-4.5,60.5c2.8,2.6,6,5,9,7.4c-0.2,0.5-0.4,1.1-0.7,1.6c-1.6-0.7-3.5-0.9-4.7-2
		c-8.7-8.3-18.6-12.2-30.4-8.2c-10.2,3.5-15.8,12.2-15.4,23c0,0.8,0.1,1.6,0.1,2.3c1,15.7-0.2,17.9-14.7,27.3
		c-0.4-12.6-4.1-23.8-13-33.3c5.7-3.4,11.1-6.9,12-14.1c1-7.3-2.7-14.7-8.3-16.3c-6-1.7-9.5,0.6-13.9,9.1
		C408.1,129.6,406.4,123.8,408.3,117.5z M511.8,113.3c0.6,11.3,8.7,16.1,18.3,20c-4.9,3-9.4,4.1-14.7,2.7
		c-17.2-4.4-27.2-18.3-24.7-34.9c2.3-14.9,17.4-22.7,30.3-15.3c3.1,1.8,5.3,5.1,8,7.7c-0.2,0.6-0.4,1.3-0.6,1.9
		C518.8,97.8,511.3,102.1,511.8,113.3z M522.9,115.5c-1.4-5,0-7.4,5-8.5c11.6-2.4,15.1-12.4,7.4-22.1c-5.8-7.3-13.5-11.5-23.3-12.9
		c4.8-8,15.1-11.3,24-7.8c11.9,4.7,17.9,14.2,19,26.5c1.1,12.5-3.4,23-14.5,29.8C533.6,124.6,524.8,121.9,522.9,115.5z M561.5,113.9
		c3.4,3.8,6.9,7.7,10.9,12.1c-8.8,1.3-16.9,2.6-25.3,3.9C552.1,124.3,556.7,119.3,561.5,113.9z M487.2,150.7
		c-7.7,4.6-15,9-22.1,13.3c-5.3-5.8-4.7-12.2,0.9-17C472,141.8,481,143,487.2,150.7z M396.8,116.7v21.2c-11.7,1.1-22.7,4-31.6,12.4
		c-0.4-0.6-0.8-1.1-1.3-1.7C374.7,138,385.6,127.5,396.8,116.7z M380.4,153.1c12.4-4.8,27-0.8,36.3,10.5c3,3.7,5.6,8.1,7.2,12.6
		c4.4,12.6-0.7,22.3-13.2,26.8c-3.3,1.2-6.6,2-9.6,2.9c1.9-5.7,4.8-11,5.4-16.5c1.1-10.6-5.3-17.7-15.8-19.6c-2.6-0.5-5.2-2.1-7.7-2
		c-3.4,0.2-7.1,1-9.9,2.7c-1.3,0.8-1.9,5.3-0.9,6.5c2,2.4,5.2,4.2,8.2,5.2c2,0.6,4.5-0.6,6.8-1.1c6.1-1.1,9.5,1.8,8.8,8
		c-0.7,6.5-4.3,11.2-10.3,13.8c-6.7,2.9-13.7,2.3-18.3-3.1c-3.7-4.3-6.8-10.3-7.4-15.8C358.6,171.6,368.5,157.8,380.4,153.1z
		 M411.2,214.9c-6.1,9.7-12.1,19.3-17.9,28.4c-2.9-5.4-6.1-10.6-8.5-16.2c-1-2.4-0.2-5.6-0.2-8.5
		C393.7,217.3,402.2,216.2,411.2,214.9z M465.4,376.4c14.6,1.5,27.2,7.6,37.1,18.1c9.4,10,17.5,21.3,27.2,33.3
		c-6.2-2-10.5-3.5-14.8-4.8c-3.7-1.1-6.5,0.6-7.1,4c-0.2,1.3,2.4,4,4.2,4.6c21.8,7.4,33.9,24.3,44.2,44.1c-5-1.8-9.2-3.7-13.7-4.8
		c-9.5-2.3-18.9-1.4-28.2,1.8c-15.5,5.2-19.8,3.5-27.9-10.8c-2.7-4.7-7.4-6.9-10.4-5c-3,1.9-3.5,7.4-0.8,11.8c1,1.6,2.4,3.1,3.7,4.5
		c1.1,1.2,2.4,2.3,4.7,4.3c-10.4-2-18-6-23.6-13.7c-10.3-14.1-9.5-37,2.1-50.1c6.9-7.8,18.3-10.8,26.5-6.9c3.8,1.8,7.2,4.7,5.9,8.9
		c-1.1,3.5-4.4,6.4-7.1,9.2c-0.6,0.7-2.8-0.1-4.3-0.2c0.3-1.4,0.5-2.7,0.8-4.1c0.5-2.1,2.1-5.4,1.4-5.9c-1.9-1.5-5.2-3-7-2.3
		c-2.9,1.2-6.1,3.9-7.1,6.7c-1.7,4.8-0.2,9.6,4.2,13c6.4,4.9,15.4,4.4,22.7-1.3c6.9-5.4,9.4-14.2,5.9-22
		c-3.9-8.9-11.1-13.4-20.6-14.2c-12.8-1.1-23.3,3.5-31.4,13.5c-17.6,21.5-12.5,57,10.4,72.6c9.8,6.7,21,7.8,32.1,7.2
		c-1.3,7.6-2.6,14.6-3.9,22.1c-0.9-0.4-2.6-0.8-3.8-1.7c-23.4-16.2-45.5-33.6-61.1-58c-7.6-11.9-11.5-24.8-9.4-38.9
		C419.7,388.7,441,373.8,465.4,376.4z M450.2,353.2c-17.8-0.5-30.1-8.9-34.5-23.5c-3.6-12,0.5-18.5,12.7-20.7
		c1.5-0.3,3.2-1.9,4.1-3.3c4.9-7.8,13.2-8.9,19.5-2.1c2.3,2.5,4.2,5.7,5.1,9c2.4,8.6,4.5,17.3,6.2,26.1
		C465.2,348.8,460.7,353.5,450.2,353.2z M492,372.4c-10-4.1-18.4-7.5-26.8-10.9c3.5-3.3,7.2-6.7,11.2-10.4
		C481.2,357.7,486.2,364.5,492,372.4z M482.6,335.5c1.2-1.9,4.7-3.4,7.1-3.4c1.8,0,3.6,2.8,5.4,4.3c-0.3,0.7-0.6,1.4-0.9,2.1
		c-5.2-2.3-8.8-1.5-9.3,4.8c-0.6-0.1-1.1-0.2-1.7-0.3C482.9,340.5,481.5,337.3,482.6,335.5z M470.9,523c-11.7-1.8-24-11.1-25.3-19.5
		C454.4,510.3,462.4,516.5,470.9,523z M412.7,386c-2.8,1.6-7.9-4.9-7.8-9.1c0.1-5.1,5.2-9.9,10.9-8.7c3.7,0.8,7,4,10.4,6.1
		C421.8,378.3,417.8,383.1,412.7,386z M431.6,491.9c2,2.1,2.3,5.7,3.8,9.5c-16.4-7-31.1-13.3-45.1-19.3c1.7-4.8,4.2-10.9,6.2-17.2
		c0.6-1.9,0.2-4.3-0.3-6.3c-1-4.3-3.9-6.3-8.3-5.2c-3.7,0.9-5.1,5.7-3.8,9.7c0.7,2.3,1.1,5.4,0.2,7.4c-3.9,8.2-13.7,12.3-24.4,10.9
		c-9.5-1.3-16.4-7.4-18.4-16.3c-2.6-11.8,6.5-23.1,18-22.5c9.8,0.5,12.9,5.3,9.5,15.1c-0.7-0.3-1.4-0.8-2-0.7
		c-2.9,0.2-6.1-0.1-8.6,1.1c-1.1,0.6-1.9,4.8-1,6.1c1.7,2.5,4.5,5.1,7.3,5.7c7.2,1.5,14.8-4.2,16-12.1c1.2-7.5,1-15.1,1.4-22.7
		c0.2-2.7,0.4-5.3,0.7-9.7c3.2,5.2,5.5,8.9,7.8,12.7C402.6,457.2,416.2,475.2,431.6,491.9z M351.6,235.2c-4.1-4.7-1.5-13.7,4.3-17.1
		c6.6-3.9,14-1.5,17.6,6c-2.5,2-5.1,3.6-6.8,5.8c-1.3,1.7-2.4,4.5-1.8,6.2c0.5,1.3,3.7,2.1,5.8,2.2c4.1,0.3,9.1-2.9,11.2,3.6
		c1.8,5.5-1.6,14.4-6.8,17.3c-5.2,2.9-10.2,2.9-15.3-0.6c-4.9-3.4-7.2-7.7-5.7-13.5C355,241.2,354.4,238.4,351.6,235.2z M364,347.4
		c1.3,12.4,2.7,25,4.1,38.5c-9.6-8.3-18.8-16.3-28.2-24.5C348.1,356.6,355.9,352,364,347.4z M323.8,350.3c-14.5-3.1-23-18.7-18-32.6
		c4.7-13.1,17.3-21.5,31.8-21.4c12.4,0.1,21.2,5.7,24.8,15.9c3.5,9.7,0.2,20.7-8.7,28.3C345.1,347.9,335.7,352.8,323.8,350.3z
		 M357.2,283.8c2.5-3.7,4.8-7.2,7.4-10.6c0.7-0.9,2-1.6,3.2-1.8c3.9-0.8,7.8-1.3,11.8-2c-3.1,10.3-6.3,20.7-9.6,31.5
		C365.3,294.6,361.1,288.9,357.2,283.8z M354.3,162.5c-7.8,14.6-7.4,28.8,2.2,43.3c-10.7,4.9-16.8,13.2-17.8,24.8h-20.8
		C325.8,205.3,338.2,183,354.3,162.5z M303.6,282.3c2.6-12,5.7-23.8,8.5-35.7c0.8-3.6,2.9-5.1,6.6-5c6.8,0.2,13.5,0,20.1,0
		c3.8,8.8,4.6,18.7,13.2,24.7c1,0.7,1,3,1.4,4.5c-1.8,0.2-4.1,1.3-5.3,0.6c-3-1.8-5.2-4.6-8.2-6.5c-2.1-1.3-4.8-1.8-7.2-2.6
		c0,2.9-1.2,6.4,0.1,8.4c2.7,4.2,6.7,7.4,10.2,11.1c0.9,0.9,1.6,2,3.2,3.9c-17.7-0.5-33,2.7-45.4,16.2
		C301.6,295.3,302.2,288.7,303.6,282.3z M300.2,351.2c6.4,3.6,12.2,6.7,18.1,10c-5.7,0.9-11.2,1.8-17.2,2.7
		C300.8,360.3,300.5,356.3,300.2,351.2z M313,419c-0.6-0.1-1.2-0.1-1.8-0.2c-2.5-9.9-5.6-19.8-7.4-29.8c-1.8-9.5,3.6-15,13.2-14.5
		c18.9,1.1,33.8,9.9,47.4,24.6C344.1,400.1,325.4,401.5,313,419z M321.4,429.3c4.3-11.7,13.7-17.2,25.7-18.1
		c7.7-0.6,15.5-0.1,23.8-0.1v22.1c-9.8-1.6-19.3-2.4-27.9,3.3c-8.6,5.6-11.7,14.2-13.5,24C324.5,450.7,317,441.4,321.4,429.3z
		 M338.7,539.3c-3.5-0.1-5.4-1.4-5.6-5c-0.8-13.1-5.1-24.6-15.7-34.3c6.4-1.3,11-0.7,14.9,4c10.4,12.3,21.1,24.3,31.8,36.7
		C355.7,540.2,347.2,539.6,338.7,539.3z M380,517.6c-1.7-3-0.3-6,4.2-6c4.2,0.1,9-0.1,8.2-6.1c-0.7-5.5-5.3-6-9.9-5.6
		c-8,0.6-12.6,5.2-14.9,14c-5.7-6.6-10.7-12.4-15.8-18.3c32.9-5.5,60.5,5,85.8,23.9c5.1,3.8,10.4,7.2,15.6,10.8
		c0,0.6-0.1,1.2-0.1,1.8c-13.3,0.1-26.7,0.8-39.9-0.1c-8.4-0.5-16.9-2.8-24.8-5.6C385,525.2,381.9,521.1,380,517.6z M398.3,546.5
		h28.9c-4.4,3.9-8.3,7.3-12.7,11.2C410.2,554.7,404.8,551,398.3,546.5z M455.7,582.7c-10-5.6-19.7-11.1-30.6-17.2
		c2.7-2.9,4.4-5.2,6.6-6.9c16-12.7,34.5-13.2,53.4-9.9c8.9,1.5,17.4,4.8,26.1,7.3c-5.7,7-10.6,13-15.7,19.2
		C478.5,565.2,466.9,567,455.7,582.7z M466.6,587.8c9.2-12.6,22-7.1,36.3,15.4C490,597.8,478.6,592.9,466.6,587.8z M531.4,609
		c-6.8-3.4-13-8.5-18.5-13.8c-4.5-4.3-5.4-10.6-3.7-16.9c2.9-11.3,13.2-15.7,22.9-9.3c12.2,8.1,21.4,19.3,29.6,31.1
		c5.1,7.3,9.5,15.2,13.5,23.1c2.9,5.8,4.6,12.3,6.9,18.4C566.7,628,549.4,618.1,531.4,609z M585.7,597.5c-14.5-24.6-36-42.2-59-59.9
		c4.8-0.9,8.5-1.2,12-2.2c9.3-2.6,14.4-10,12.5-17.6c-1.8-7.1-12.2-13.7-19.9-11.7c-2.2,0.6-5.2,4.1-5.1,6.2c0.1,2.2,3,4.9,5.4,6.2
		c2,1,4.9,0.2,7.4,0.2c0.4,0.6,0.7,1.3,1.1,2c-2.1,1.7-4,4.1-6.4,4.9c-11.9,3.7-26.8-3.5-29.8-14.1c-3.7-12.8,4.1-25.2,18-28.7
		c16.6-4.2,34.2,2.9,43.5,19.9c6,10.9,10.4,23.2,13.1,35.4c4.2,19.3,6.3,39.1,9.3,58.7C587,597,586.4,597.3,585.7,597.5z
		 M594.1,522.9c0,4.1,0,8.1,0,12.2c-0.4,0-0.9,0.1-1.3,0.1c-0.9-3.3-1.9-6.6-2.8-9.9c-7.2-26-20.2-49.3-34-72.2
		c-2.3-3.9-3-6.3,2-8.4c2.7-1.2,4.9-3.8,6.9-6.1c2.7-3,3.5-6.7,0.7-10.1c-2.9-3.5-7.1-3.9-10.6-1.7c-3.2,2.1-5.6,5.5-8.3,8.2
		c-7.9-11.5-16.2-23.9-24.2-35.6c4.2-0.6,9.2,0,12.8-2.1c3.5-2,6.5-6.3,7.7-10.2c2.3-7.5-3-15.8-10.3-17.9
		c-9.2-2.7-16,1.9-21.3,14.4c-7.1-10.8-13.9-21.3-21.3-32.5c8.9-1.1,14.4-5,14.6-13.9c0.1-7-4-12.7-10.7-15.1
		c-7.6-2.7-14.7,0-21.4,8c-2.1-7.4-3.7-15.3-6.6-22.6c-3.3-8.6-9-15.6-18.8-17.6c-8-1.6-15.1-0.1-20.5,6.6c-0.9,1.2-2.1,2.4-3.4,3
		c-18.2,7.5-23.9,24.4-14.4,41.7c5.9,10.7,15.6,16,26.5,19.7c5.2,1.7,10.4,3.1,16.8,5c-1.9,0.6-2.8,0.8-3.5,1.1
		c-6.5,2.6-11.4,2.5-17-3.5c-7-7.5-16.8-7.7-26-2.9c-7.1,3.7-11.1,9.6-10.9,17.9c0.2,6.8,4.4,11,9.4,14.7c1.4,1,3,1.7,4,2.3
		c-1.3,9-2.5,17.7-3.9,27.6c-3.8-8.8-7.6-16.7-10.6-24.8c-13.9-36.9-11.4-74.1,2.1-110c31.3-82.9,90.7-131.8,179.6-143.1
		c6.1-0.8,12.3-0.9,19-1.4v105.4c-2.8-1.6-5.3-3.1-7.9-4.5c-25.5-13.9-55.6-4.8-66.3,20.5c-6.6,15.6-5.5,31.4,2.5,46.3
		c10.4,19.6,26.6,34,44.3,46.7c7.4,5.4,15.2,10.3,22.9,15.2c3.5,2.2,5,4.7,5,9C594.3,429.3,594.2,476.1,594.1,522.9z M522.9,383.7
		c0.1-1.9,3.4-4.7,5.4-4.9c1.8-0.2,3.8,2.8,5.8,4.4c-0.1,0.9-0.1,1.7-0.2,2.5c-2.2,1.3-4.6,3.9-6.4,3.5
		C525.5,388.8,522.7,385.5,522.9,383.7z M594.5,116.7c-0.1,4.6-4.6,6.2-9.9,4c-10.8-4.5-18.2-16.7-16.3-26.9
		c2-11.1,12.3-19.4,26.3-19.9C594.6,88.4,594.8,102.6,594.5,116.7z M872.2,689.4c-2-2.6-4.4-4.9-5.7-7.7c-1-2.2-1.2-5-0.7-7.4
		c0.3-1.6,2.4-2.9,3.7-4.3c1.4,1.3,3.4,2.4,4.1,4c0.8,2.1,0.5,4.6,0.6,6.9c0.3,0.1,0.6,0.2,0.8,0.3
		C874,683.9,873.1,686.7,872.2,689.4z M957.3,556.1c2.4,0.3,4.3,3.9,7.4,7.1c-14.2,1.6-25.9-1.2-37.7-4.3
		C936.9,554.5,947.2,554.7,957.3,556.1z M886.8,243.8c7.2,18.6,10.7,37.9,12,59.3c-12.4-13.9-27.1-18.4-45.9-17.1
		c3.5-3.6,5.8-5.7,7.8-8.1c2.7-3.3,5.4-6.6,7.3-10.2c0.6-1.1-0.6-4.3-1.9-5.2c-1.2-0.7-4-0.1-5.4,1c-2.8,2.1-4.8,5.3-7.7,7.1
		c-1.1,0.7-2.6,0.6-4.2,0.6c-0.3,0-0.7,0-1-0.1c-0.6,0-1.2-0.1-1.8,0c0.2-0.4,0.3-0.9,0.5-1.5c0.4-1.5,0.8-3.1,1.8-3.9
		c8-5.9,8.3-15.5,12.1-24c7.5,0,15.4-0.1,23.4,0.1C884.9,241.6,886.4,242.8,886.8,243.8z M841.3,458.8c-2.4-1.5-5.9-1.4-8.9-1.9
		c-0.5-0.1-1.1,0.1-3.5,0.4c0.6-4.2,0.2-8.5,2-11.4c2.6-4.2,12.4-5,17.4-2.1c6.2,3.6,10.5,8.7,10.6,16.3c0.1,8.1-2.9,14.4-10.3,18.2
		c-11,5.7-23.5,4-30.6-4.2c-3.1-3.6-4.6-7.2-2.6-12.3c0.8-2.2-0.2-6.5-2-7.9c-3.1-2.4-7.2-0.9-8.9,2.6c-1.3,2.8-2.2,6.6-1.4,9.4
		c1.6,5.8,4.5,11.3,6.5,16.2c-14.1,6-28.8,12.2-43.8,18.5c-1.5-2.5-1.1-5.2,2-8.6c17.2-18.7,32.7-38.7,45-61c0.9-1.7,2-3.2,4.6-4.7
		c0,4.3-0.2,8.6,0,12.9c0.3,6.2,0.4,12.5,1.3,18.6c1,6.5,7.6,12.2,14,11.9c3.1-0.2,6.6-2,8.9-4.2
		C842.8,464.4,842.5,459.5,841.3,458.8z M739.6,488.2c-9.4,7.8-19.3,15.1-29.4,22.9c-1.8-8.5-3.3-15.5-4.6-21.6
		c7.9-1.5,16.3-2.2,24.1-4.8c17-5.6,28.7-23.6,29.1-42.8c0.4-20-10-37.9-26.2-44.8c-13-5.5-27.8-2.4-35.1,7.4
		c-4.6,6.2-4.6,15.8-0.2,21.9c5.5,7.6,14.3,10.9,22,8.2c6.7-2.4,10.8-9.3,7.9-15.2c-1.5-3-5-5.4-8.1-7.2c-1.2-0.7-5.4,1.2-5.4,1.7
		c0.1,3.1,1.2,6.2,2.2,10.5c-2.7,2-5.6,0.6-8.3-2.3c-3.5-3.7-3.5-8.9-0.2-12.7c3.9-4.4,12.6-5.7,19.7-2.9
		c10.9,4.4,16.7,13.1,19.3,24.1c4.7,19.9-4.9,38.6-23,45c-1.8,0.6-3.7,0.9-6.1,0.6c2.2-2.2,4.8-4.2,6.7-6.7
		c3.5-4.5,2.9-10.2-0.9-12.4c-3.6-2.1-7.5-0.5-10.5,4.6c-0.7,1.2-1.3,2.4-1.9,3.6c-4.4,8.6-10.2,11.2-19.8,8.8
		c-4.5-1.2-9-2.6-13.5-3.6c-11.7-2.6-22.8-0.7-33.6,4.8c9.7-16.4,18.4-33.6,37.8-40.9c2.4-0.9,4.8-1.6,7-2.9c1.3-0.8,2.4-2,3.5-3.1
		c0.4-0.4,0.7-0.8,1.1-1.1c-0.3-0.2-0.6-0.4-0.9-0.6c-0.2-0.1-0.3-0.2-0.4-0.3c-0.3-0.2-0.6-0.5-0.9-0.7c-1.6-1.3-3.2-2.5-4.8-2.4
		c-4.9,0.4-9.6,2.2-14.9,3.5c14-17.7,25-38,47.7-47c24-9.5,50.1-1.5,60.6,19.9c7.4,15.1,5.8,30.5-2.3,44.9
		C767.9,461.8,754.5,475.8,739.6,488.2z M753.5,504.3c-2.6,12-13.3,14.2-22.7,17.9C738.3,516.3,745.9,510.3,753.5,504.3z M722.9,352
		c3.9,3.2,7.9,6.3,11.8,9.4c-8.9,3.7-17.7,7.5-27.2,11.5C712.8,365.8,717.8,359,722.9,352z M706,339.1c-0.3-0.4-0.6-0.9-1-1.3
		c1.1-1.8,2-4.9,3.3-5.2c2.4-0.5,6.3,0,7.6,1.6c1.7,2.2,1.4,5.8,1.9,8.8c-0.7,0.3-1.3,0.6-2,0.9C714.9,337.5,711.3,336.5,706,339.1z
		 M736.7,339.6c1.3-8.8,3.5-17.5,5.8-26.1c0.9-3.3,2.9-6.4,5-9.1c4.8-6.3,15.7-7.7,19.9,1.2c0.8,1.7,3.4,3.2,5.3,3.5
		c9.3,1.4,14.5,8,12.6,17.2c-2.3,11-8.5,19.3-19.1,23.4c-5.4,2.1-11.2,3-14.3,3.7C738.9,353.4,735.1,349.7,736.7,339.6z
		 M772.5,376.1c5.8-8.1,12.8-9.9,19-5.8c4.2,2.8,5.2,7.6,2.4,11.6c-3.5,4.9-8.1,5.6-12.3,1.9C778.5,381.2,775.4,378.6,772.5,376.1z
		 M845.1,243.6c1.7,8.7-2.3,15.7-10.3,17.3c-7.2,1.4-15-4.2-16.4-12.3c-0.4-2.6-0.2-5.5,0.6-7.9c0.6-1.7,2.7-2.8,3.7-3.7
		c3.1,0.6,5.2,1.2,7.3,1.3c1.5,0.1,3.9-0.2,4.5-1.1c0.7-1.2,0.7-3.7-0.1-4.9c-1.5-2.1-3.7-4-5.8-5.5c-3.7-2.6-3-4.9,0-7.4
		c5.3-4.4,13.2-4.2,18.1,0.5c4.5,4.5,4.3,10.9,0,16.8C845.3,238.5,844.7,241.5,845.1,243.6z M820.8,204.4
		c-9.7,0.5-17.5-6.8-17.4-16.4c0-5.7,3.6-8.6,9.2-7.4c2.5,0.5,5,1.8,7.3,1.5c2.6-0.4,6.1-1.5,7.3-3.5c1.2-2,0.9-6.1-0.6-7.9
		c-1.7-2-5.3-3.2-8-3.2c-4,0.1-7.9,1.7-11.8,2.5c-11.9,2.3-17.3,14.5-12,27.1c1,2.5,2.4,4.8,3.9,7.7c-21.3-1.8-30.2-18.8-19.8-36.4
		c8.3-14.1,23-20.4,37.8-16.2c12.4,3.5,23.2,18.2,23,31.4C839.5,195.1,831.5,203.9,820.8,204.4z M814.5,218.7c1.4,4,1.3,8-2.3,12.4
		c-2.7,3.2-3.3,8.1-4.9,12.6c-6.5-9.9-13.2-19.9-19.5-29.5C796.5,215.7,805.3,217.2,814.5,218.7z M820.5,269.1
		c4.6,0.7,9.1,1.4,12.6,1.9c3.7,4.7,6.7,8.5,10,12.7c-3.8,5.1-8.3,11-13.1,17.4C826.8,290.2,823.7,279.8,820.5,269.1z M836.1,347.5
		c7.8,4.6,15.5,9.1,24,14.1c-9,7.7-18.4,15.9-28.2,24.3C833.3,372.8,834.8,360.1,836.1,347.5z M836.3,319.8
		c0.1-15.6,14-26.1,31.1-23.1c9.6,1.6,17.5,6.4,23,14.7c6.1,9.1,7.2,18.5,1.3,28c-5.4,8.8-16.2,13-27,11.1
		C849.3,347.5,836.2,333.5,836.3,319.8z M880.8,226c0.4,1.3,0.7,2.6,1.2,4.5h-21.1c-1.7-10.9-6.7-19.9-18-24.7
		c11.6-16.1,8.5-31.7-0.5-47.1c1.7,1.8,3.5,3.5,4.9,5.4C861.5,183.1,873.2,203.5,880.8,226z M842.1,158.2c0.1,0.2,0.2,0.4,0.3,0.5
		c-0.2-0.2-0.3-0.3-0.4-0.4c-0.1-0.1-0.1-0.2-0.1-0.4C841.9,158,842,158.1,842.1,158.2z M803.7,117.2c4.5,4.1,8.8,7.4,12.4,11.3
		c8.3,8.7,16.4,17.7,24.5,26.7c0.2,0.2,0.3,0.4,0.5,0.7c0.3,0.6,0.5,1.3,0.8,2c-10-11.5-22.5-18.4-38.2-19.8V117.2z M605.9,52.6
		c0.5-3.8,0.1-7.8,0.1-11.6c24.5-8,118.9,18.7,152.7,43.3c-4.1,1.6-8.1,2.8-11.8,4.7c-12.1,6.2-17.7,19.7-12.6,30.3
		c2.9,5.9,7.8,9.1,14.5,9.1c6.3,0,11-3.4,13.2-8.9c2.4-6.2-1-13.6-7.2-14.9c-1.7-0.4-4.6,0.4-5.5,1.6c-0.9,1.2,0,3.7,0.4,5.6
		c0.4,1.7,1.4,3.3,1.7,5c0.1,0.3-2.5,1.8-3.2,1.4c-1.7-1-3.6-2.4-4.4-4.1c-2.1-4.4,0.5-10.6,5.5-14.2c5.5-3.9,11.7-4.3,17.9-2.5
		c8.8,2.5,16.4,7.2,21.9,14.8c5.5,7.6,5,15.1-0.2,19.9c-3.4-2.8-6.2-6.8-9.8-7.7c-8.5-2.1-15,5.7-13.5,15.1
		c1.1,6.7,5.1,11.2,10.7,13.8c-3.2,5.9-6.9,11.1-8.9,16.9c-2,5.5-2.4,11.7-3.7,18c-4.2-3.9-8.5-7.5-12.1-11.6c-1.5-1.7-2-4.6-2.3-7
		c-0.3-2.5,0.2-5,0.4-7.6c0.9-13.7-3.8-22.3-14.7-27c-9.9-4.2-22.2-1.2-30.5,7.4c-1.2,1.3-3.3,1.8-5,2.6c-0.3-0.6-0.7-1.2-1-1.8
		c2.6-2,5.2-4,7.6-6.1c20.8-17.8,19.4-45.6-3-61.3c-1.6-1.1-3.3-2.7-4-4.5c-5-14.4-19.4-22.4-34.3-18.6c-11.8,3-19.7,10.6-25,21.2
		c-0.8,1.5-1.4,3.2-2.1,4.8c-4.6-3.7-8.9-7.6-13.6-10.8c-3-2-6.6-4-10.1-4.4C606.6,62.8,605.1,59,605.9,52.6z M735.5,164.1
		c-7.7-4.5-15-8.8-22.2-13c2.8-8.8,14.1-8.9,20-5C739.9,150.5,740.9,156.5,735.5,164.1z M638.8,113.8c4.6,5.3,9.2,10.5,13.9,15.8
		c-8-1.2-15.9-2.4-24.3-3.7C632,121.8,635.3,117.9,638.8,113.8z M614.4,120.9c-5.4,1.6-8.5-0.1-8.5-5.2c-0.2-13.6-0.1-27.2-0.1-41.3
		c13.7,0,24.7,9.3,26.4,21.8C633.5,105.8,624.8,117.9,614.4,120.9z M655.2,69.5c7.3-6.8,18.2-8.5,26.5-3.9c2.1,1.2,3.9,2.9,5.8,4.4
		c-7,4-13.3,7-19,10.9c-5,3.5-7.7,8.7-7.2,15.1c0.4,5.9,4,9.9,9.6,10.7c3.1,0.4,7.2,0.4,6.7,4.6c-0.4,3.4-2.3,7.5-4.8,9.7
		c-4.2,3.5-10.4,2-16-2.5C642.8,107.4,642,81.8,655.2,69.5z M688.7,112.1c-0.7-10.2-7.6-14.7-18.5-16.3c2-2.9,2.9-5.2,4.6-6.6
		c6.1-5.3,13.3-8,21.1-4.9c8.3,3.3,12.6,10.4,13.7,19c2.1,16.8-12.4,33.4-29.4,33.6c-2.9,0-5.8-1.5-10.1-2.8
		C681,129.4,689.4,124,688.7,112.1z M604.9,349.7c5.3-6,11.4-11.2,16.7-17.2c10.2-11.6,18.9-24.3,21.7-40c0.6-3.1,0.1-6.5-0.4-9.7
		c-0.6-3.8-1.1-7.6,3.6-8.3c4.6-0.8,5.7,3.1,6.3,6.7c0.3,1.5,0.3,3.1,0.4,4.6c0.4,15.4-6.2,28.5-15.2,40.2
		c-7.6,9.8-16.5,18.6-24.8,27.8c-0.8,0.9-1.7,2-2.7,2.2c-2.2,0.5-4.5,0.5-6.8,0.8C604,354.4,603.5,351.3,604.9,349.7z M605.9,535.1
		v-13.8c0-46.2,0-92.5-0.1-138.7c0-4.4,1.2-6.9,5.2-9.3c20.6-12.2,39.9-26,55.3-44.6c9.5-11.5,17-24,18-39.2
		c2.4-36.7-31.8-61-65.8-47c-4.1,1.7-7.9,4-12.3,6.2V143.3c11.1,1.3,21.9,2,32.5,3.9c56.3,10.2,101.5,38.6,136,84.1
		c27.1,35.7,41.1,75.9,40.6,120.8c-0.3,24.7-8.8,47.2-19.2,70.3c-1.6-9.4-3-17.8-4.5-26.6c0.4-0.2,1.2-0.7,2-1.1
		c10.2-5.2,14.1-13.2,11-22.2c-3.3-9.7-14.4-16.9-24-14.3c-5.4,1.5-10.7,4.6-15,8.3c-3.1,2.6-5.3,3.8-9,2.3c-2.6-1-5.6-1.4-8.6-3
		c3-0.8,6.1-1.4,8.9-2.5c8.3-3.3,17.1-5.9,24.5-10.7c14.8-9.6,18.7-30,9.4-43.9c-1.6-2.4-3.7-4.8-6.1-6.2
		c-7.8-4.6-15.4-10.1-23.8-12.6c-10.2-3.1-21.8,4.6-26.5,16.5c-3,7.3-4.4,15.3-6.6,23.5c-7-7.9-15.5-12.2-25.7-5.7
		c-5.1,3.3-7.4,8.4-6.5,14.6c1,7.7,5.8,11.6,14.2,12.7c-7.5,11.4-14.4,22-22,33.6c-1.3-7.4-3.9-13.2-10.4-15.2
		c-3.5-1-7.8-1.2-11.4-0.2c-7.5,2-11.1,10.5-8.8,19.2c2.1,8,9.4,11.4,21.1,9.4c-8.6,13-16.9,25.5-25.2,38c-2.1-2.9-3.6-5.9-5.9-8.1
		c-3.5-3.2-7.9-3.9-11.7-0.6c-4,3.5-3.1,7.8,0.1,11.4c3.1,3.4,6.8,6.3,10.8,9.9c-16.4,26.9-31.5,54.9-38.6,86.5
		C607.1,535.3,606.5,535.2,605.9,535.1z M676.5,383.8c0.1,2.1-2.4,4.4-3.7,6.6c-0.8,0-1.5,0-2.3,0c-1.3-2-3.9-4.2-3.7-6
		c0.4-2.2,3.1-4,4.8-6C673.4,380.2,676.4,381.9,676.5,383.8z M611.7,599c3.9-23.7,6.9-47.7,12.1-71.1c2.4-10.9,7.9-21.7,14.4-30.9
		c9.3-13.2,23.3-17.8,39.3-14.3c11.9,2.7,20.2,13.6,19.5,25c-0.4,6.4-3.3,11.3-8.8,14.3c-7,3.8-14.4,6.5-22.3,3.3
		c-2.1-0.9-3.7-3-5.6-4.6c0.3-0.6,0.6-1.3,0.9-1.9c2,0,4.1-0.1,6.1,0c4.4,0.2,7.2-2.4,6.6-6.2c-0.4-2.5-3.2-5.9-5.7-6.6
		c-6.9-2.1-16.7,4.1-18.6,10.7c-2.1,7.6,2.3,15.9,10.3,18.5c3.6,1.2,7.5,1.4,12.8,2.4c-23.2,18.3-45.2,36.4-59.3,62.1
		C613,599.5,612.4,599.3,611.7,599z M688.9,593.9c-2.6,3.5-5.8,7-9.5,9.3c-10.4,6.4-21.6,11.7-31.8,18.4
		c-10.2,6.6-19.6,14.4-29.6,21.9c3.7-13.5,9.1-26.3,16.7-38.2c8.5-13.3,18.6-25,31.1-34.5c9.1-7,19.4-5.5,24.1,3.3
		C693.3,580.6,693.4,587.7,688.9,593.9z M728.1,589.8c-9.9,4.4-19.8,8.6-30.7,13.3c3.6-5.6,6.5-10.4,9.7-15c4.2-5.9,14.8-8.6,21-5.3
		c1.5,0.8,2.5,2.6,3.8,3.9C730.6,587.8,729.5,589.2,728.1,589.8z M744.7,582.9c-13.1-16.2-23-17.8-39.6-7.7
		c-5.4-6.5-10.5-12.4-15.5-18.4c20.1-16.5,70.5-12.4,84.9,9.1C764.4,571.6,754.5,577.3,744.7,582.9z M785.7,558.2
		c-3.9-4.5-7.4-8.5-10.2-11.7h27C795.8,551.1,790.4,554.9,785.7,558.2z M815,499.8c-4.2,0-7.6,1.5-7.9,6c-0.3,4.7,2.9,6.1,7.4,6.1
		c5.1,0,7.2,2.5,4.9,6.9c-1.7,3.3-5,6.5-8.4,8.1c-11.2,5.2-23.3,6.1-35.4,5.9c-9.7-0.2-19.4-0.9-30.1-1.5
		c35.9-30.4,61.2-39.3,103.4-36.3c-5.6,6.7-10.8,12.9-16.3,19.4C828.2,503.3,823.7,499.7,815,499.8z M882.4,499.9
		c-11,9.8-14.9,21.9-16,35.3c-0.1,1.4-2.8,3.5-4.5,3.7c-8.5,0.8-17,1.1-26.6,1.5c1.7-1.7,3.1-2.8,4.3-4.2
		c9.3-10.3,18.7-20.4,27.6-31C871.2,500.5,875.6,499.3,882.4,499.9z M876.8,449.2c-1.7,4-4,7.8-6.6,11.7
		c-1.3-10.1-5.2-18.5-13.5-24.2c-8.5-5.8-17.9-5.7-28.3-3.3v-21.9c9.6,0,19-1.2,28,0.2C875.4,414.6,884.3,431.6,876.8,449.2z
		 M887.6,420c-13.3-17.5-31.2-21.4-51.1-21.4c13.4-14.8,29.3-24.6,50-24.3c5.8,0.1,10.1,5.3,9.9,11.7C896,397.5,892,408.2,887.6,420
		z M898.7,363.3c-6.2-0.9-11.6-1.7-16.9-2.4c5.3-2.9,11-6.1,17.6-9.6C899.1,355.6,898.9,359.7,898.7,363.3z"/>
	<polygon fill="#C49A6C" points="842,158.3 842.1,158.2 842,158.3 	"/>
	<path fill="#C49A6C" d="M261,572.7C261,572.7,261,572.7,261,572.7c-7.3,3.2-11.9,7.4-14.3,12.6C249.1,580.1,253.7,575.9,261,572.7z
		"/>
	<path fill="#C49A6C" d="M244.9,591.9c0.2-1.4,0.5-2.8,0.9-4.1C245.3,589.1,245.1,590.5,244.9,591.9z"/>
	<path fill="#C49A6C" d="M245.7,587.9c0.3-0.9,0.6-1.7,1-2.5C246.3,586.2,246,587,245.7,587.9z"/>
	<path fill="#C49A6C" d="M244.7,596.3c0-1,0-2,0.1-3C244.7,594.3,244.6,595.3,244.7,596.3z"/>
	<path fill="#C49A6C" d="M470.3,229c-12.6,0-21.9,9-21.8,21c0.1,11.8,10,21.9,21.5,21.8c11.4-0.1,21.3-10.1,21.2-21.4
		C491.1,238.1,482.2,228.9,470.3,229z M469.4,261.3c-5.2-0.1-10.1-5.2-10.3-10.8c-0.2-6.1,4.3-10.9,10.4-11c5.4-0.1,11.2,5,11.3,9.9
		C480.9,255.5,475.3,261.3,469.4,261.3z"/>
	<path fill="#C49A6C" d="M520.6,207.1c2.1-4.3,4.1-8.9,5.1-13.5c1.5-6.4-2.8-11.2-11.2-11.3c-0.9,0.7-3,2.3-5.2,3.8
		c-1.3,0.9-2.8,1.5-4.1,2.4c-2.6,1.9-6.3,3.3-7.6,5.9c-1.9,3.8,0.9,7.2,4.4,9c4.5,2.3,9.2,4.2,14,5.7
		C517.4,209.5,520.1,208.3,520.6,207.1z"/>
	<path fill="#C49A6C" d="M553.4,177.3c5.2,3.6,11.2,6,17.1,8.5c0.8,0.4,3.1-0.8,3.5-1.8c2.1-4.8,4.3-9.6,5.3-14.7
		c1.1-5.5-3.3-9.9-9.5-9.7c-0.5,0.2-2.1,0.2-2.6,1c-2.8,4-7,4.5-11.3,5.5C550.3,167.5,548.7,174,553.4,177.3z"/>
	<path fill="#C49A6C" d="M730.4,229.3c-12.3,0-21.4,8.5-21.5,20c-0.1,11.7,9.8,22.2,21.1,22.3c11.6,0.1,21.9-10,21.9-21.5
		C751.9,238.6,742.3,229.3,730.4,229.3z M730.2,261.2c-5.3-0.1-11.1-6.3-10.9-11.7c0.1-5.4,5.2-10,11-10c6,0,11,5,10.9,10.7
		C741,255.8,735.6,261.3,730.2,261.2z"/>
	<path fill="#C49A6C" d="M639.1,199.5c-1.1-0.6-3,0.2-4.8,0.4c-3.6-6.5-7.2-8.4-12-6.4c-4.1,1.7-6.5,7.5-4.7,13.1
		c1.3,4.2,3.4,8.2,5.4,12.2c0.4,0.9,2.4,2,3,1.7c6-2.6,12.1-5.2,17.6-8.6c1.7-1,3.1-5.3,2.3-6.9
		C644.8,202.5,641.6,200.9,639.1,199.5z"/>
	<path fill="#C49A6C" d="M684.7,209.4c5.2-2.1,10.5-4.2,15.3-7c3.7-2.2,5.9-7,2.3-9.9c-5.2-4.3-11.8-6.9-17.3-9.9
		c-7-0.1-11.2,4.4-9.8,10.6c1.2,5,3.6,9.8,5.8,14.6C681.6,208.7,683.8,209.7,684.7,209.4z"/>
	<path fill="#C49A6C" d="M333.3,315.6c-6.7-0.1-12,4.2-12.2,9.9c-0.1,5.8,4.6,10.3,11,10.3c6,0,10.7-4.3,10.8-10
		C343.1,320,338.9,315.6,333.3,315.6z"/>
	<path fill="#C49A6C" d="M878.6,326c0-5.8-5.1-10.4-11.6-10.6c-5.9-0.1-9.6,3.4-9.7,9.2c-0.1,5.9,5.1,11.4,10.8,11.6
		C873.6,336.3,878.5,331.6,878.6,326z"/>
</g>
</svg>
