<?xml version="1.0" encoding="utf-8"?>
<!-- Generator: Adobe Illustrator 27.3.1, SVG Export Plug-In . SVG Version: 6.00 Build 0)  -->
<svg version="1.1" id="Layer_1" xmlns="http://www.w3.org/2000/svg" xmlns:xlink="http://www.w3.org/1999/xlink" x="0px" y="0px"
	 viewBox="0 0 1200 800" enable-background="new 0 0 1200 800" xml:space="preserve">
<path fill="#C49A6C" d="M923.8,246.9c-25.2-77.2-96.1-125.6-177.2-123.2c-32,0.9-62.5,8.4-91.2,23c-2.2,1.1-6.3,1.8-7.6,0.7
	c-6.5-6.1-12.4-12.8-19.2-20c12.4-8.1,22.3-18.7,25.9-33.9c3.8-15.8,0.1-29.8-9.7-42.3c-19.3-24.7-59.5-27.8-82.8-7.7
	c-18.6,16-20.9,39.6-12.2,57.2c4.1,8.2,11.1,15.1,17.4,22.1c2.9,3.3,3.9,5,0.2,8.5c-4.3,4-7.8,8.9-11.2,13.7c-2.7,3.8-5,5-9.7,2.5
	c-26.2-13.8-54.2-21.1-83.7-23.3c-100.4-7.5-183.6,60.3-195.9,162.4c-5.6,46.1,3.8,89.7,21.9,131.9
	c25.5,59.2,65.1,108.6,108.6,155.2c12.5,13.4,26.3,25.5,39.4,38.3c9.7,9.5,18.9,19.7,28.9,28.8c37.4,34,77.9,64.2,118.4,94.3
	c14.2,10.5,29.1,20.1,43.9,29.8c11.4,7.4,14.9,6.7,24.6-3c13.6-13.5,27.4-26.8,41.1-40.3c13.3-13.2,27.1-26,39.7-39.8
	c18.8-20.5,37.2-41.4,55.2-62.6c34-39.9,64.1-82.6,90.3-128.1c17.5-30.4,31.8-62.2,42.4-95.7C937,346,940.1,296.8,923.8,246.9z
	 M775.2,164.7c7,0.6,13.9,2.4,20.8,3.7c4.1,0.8,5.2,3.1,2.7,6.6c-5.6,8-8.3,16.4-4.5,26c-9.4,2.1-13.2-10.9-23.3-7.5
	c1.8,2.9,3.4,5.3,6.3,9.8c-25.1-10.4-43.9-5.1-57.4,16.4c-8.3-6.4-10.2-11.2-5.6-20.1C728.7,171.5,744.1,161.9,775.2,164.7z
	 M742.9,545.3c6.4-5.2,12.7-10.8,19.7-15.2c3-1.9,8.2-2.9,11.3-1.7c4.3,1.6,3.6,6.4,1.7,10.3c-0.6,1.2-0.9,2.5-1.3,3.7
	c-5.8,17.4-19.2,27.8-34.1,36.8c-3.6,2.2-5.5,0.5-6.8-3.2C729.5,564.7,732.9,553.4,742.9,545.3z M699.8,536.9
	c-4.6-3.1-1.6-5.7,1.2-7.7c13.8-9.9,28.8-12.7,45.1-7.4c1.7,0.6,3.7,0.7,4.9,1.8c0.5,0.4,1,0.9,1.4,1.4c0.9,1,1.7,2.1,2.5,3.2
	c0.4,0.5,0.8,1.1,1.2,1.6c-0.5,0.3-1,0.7-1.5,1.1c-1.5,1.1-2.9,2.3-4.5,3c-4.8,2.2-10.1,3.3-14.5,6.1
	C721.8,548.9,708.5,542.7,699.8,536.9z M758.7,518.1c-14.1-4.3-29.7-3.5-42.4-13c-5.8-4.4-12.8-7.1-20.2-11
	c13.1-6.5,26.5-9.8,39.4-3.4c9.8,4.9,18.1,12.9,26.9,19.8c1.4,1.1,1.5,3.8,2.3,5.7C762.6,516.9,760.3,518.6,758.7,518.1z
	 M698.5,422.4c-1.5,5.1-4,8-9,10.2c-17.3,7.2-26.4,22.1-33.8,38.2c-0.9,2-2.2,3.8-3.8,6.8c-1-2.2-1.7-3-1.6-3.7
	c1.6-18.2,2.8-36.5,4.9-54.6c1.1-9.4,6.4-17,14.1-22.3c11.4-7.9,24-13,37.7-15.4c11.3-2,21.8,1.3,32.5,4.4
	c8.4,2.4,17.2,4.5,25.8,4.7c11.3,0.3,19.9-5.8,24-16.6c2-5.2,4.5-5.9,9.5-4.4c4.9,1.5,10.1,2,16.4,3.2c-7,8-13.7,14.2-18.6,21.6
	c-4.8,7.2-7.8,15.6-11.7,23.7c-0.5-0.6-1.7-1.6-2.4-2.8c-12.5-18.9-31.1-23.9-52-21.6C713.6,395.5,703.3,406.5,698.5,422.4z
	 M746.9,436.4c6.1,1.5,9,10.3,6.5,17.7c-1.6,4.8-5.7,6.8-10.6,4.4c-5.3-2.6-11.6-4.8-15.1-9.1c-6.4-7.7-11.4-16.7-16.4-25.4
	c-0.9-1.6,0.6-4.7,1-7.1c2.1,0.9,4.7,1.2,6.1,2.7C726.3,427.9,735.6,433.6,746.9,436.4z M599,419.2c1.5-0.6,3.2-0.9,4.6-1.8
	c7.2-4.2,15-4.9,23.1-3.9c10.2,1.2,15.9,7.1,15.2,17.3c-1,14.5-3.5,29-4.4,43.5c-0.5,8.7,0.7,17.5,1,26.3c0.1,2.1-0.4,4.1-0.6,6.2
	c-2.1-0.9-4.5-1.3-6.1-2.7c-12.6-10.3-24.8-21.2-37.7-31.2c-20-15.4-36.3-33.4-46.1-57c-3.8-9.1-9-17.7-13.6-26.4
	c-0.9-1.7-2.3-3.2-4.2-5.8c8.9-0.9,15.5-1,22-2.3c19.8-3.9,34.6-14.9,44.4-32.6c3.9-7.2,5.8-8,13.1-4.8c2.4,1,4.9,2.4,6.7,4.2
	c15,14.8,25.9,31.8,28.2,53.4c0.9,8.3-0.9,9-8.7,6.7c-9-2.6-18.4-4.9-27.7-5.6C596.5,401.9,593.3,407.9,599,419.2z M490.6,405.8
	c-11.2,12.9-14.6,22.8-8.9,35.4c-6.4,4.2-13,8.4-20.5,13.3c-0.7-3.3-1.6-6.1-1.8-9c-1-19.3,2.5-37.9,11.4-55.1
	c6.2-12.1,16.6-18.5,30.1-18.1c13.4,0.5,20.4,10.1,25.9,21c0.9,1.8,0.8,4.1,1.5,7.7C514.4,398,501.6,393.2,490.6,405.8z
	 M494.8,433.5c8.4-0.7,17.5,9.1,16.1,17.3c-1,5.6-9.5,8.8-18.9,5.4c-0.7-1.2-2.5-3.9-3.7-6.9c-0.7-1.8-0.3-3.9-0.7-5.8
	C486.3,437.2,488.6,434,494.8,433.5z M429.7,359.5c10.4-2,14.1-9.6,17.3-17.8c1.3-3.4,3.6-4,7.3-3.9c7.6,0.4,15.3-0.1,23-0.2
	c1.3,0,2.5,0,3.8,0.1c1.3,0.1,2.5,0.1,3.8,0.2h0c-0.2,0.7-0.3,1.4-0.4,2c-0.4,2.1-0.7,4.1-1.6,6c-6.9,14.3-15.1,28.1-20.7,42.9
	c-5,13-7.4,27.1-10.9,40.8c-0.2,1-0.6,1.9-0.9,2.8c-0.7,0.1-1.4,0.2-2.1,0.3C445.5,407.8,441.4,383.1,429.7,359.5z M441.9,455
	c-11.9-4.6-35.6-46.1-34.5-61.6c3,1.5,6.3,2.1,7.9,4.1c4.5,5.6,9.3,11.4,12.2,17.8c5.5,12.1,9.7,24.7,14.4,37.1
	C442.2,453.1,441.9,454,441.9,455z M512.9,254.4c-2.5,3.3-4.8,6.8-7.7,9.6c-1.1,1.1-4,1.4-5.4,0.7c-1-0.4-1.4-3.4-1.1-5
	c2.1-10.7-0.1-20.3-7.2-28.4c-3.4-3.9-1.4-7,1.1-9.1c1.8-1.6,5.7-2.5,7.9-1.6C510.7,224.2,516.5,241.5,512.9,254.4z M505.2,215.4
	c11.5-2.2,17.7,3.9,23.1,9.9c12.9,14,11,40.7-3.6,51.7c-2.1,1.6-6.4,2.1-8.6,1c-3.2-1.6-5.7-5.1-3-9.4
	C525.1,249.5,523.7,231.9,505.2,215.4z M413.9,281.4c1.4,0.7,2.1,2.7,3,4.3c4.9,8.3,12.1,11.8,21.7,10.3c1.8-0.3,3.7-0.3,5.6-0.4
	l1.2,1.9c-1.9,1.9-3.6,4.4-5.9,5.6c-10.4,5.8-25.8,2.6-32.7-7.1c-2-2.8-3-6.8-3.4-10.3c-0.2-2.1,1.4-6,2.9-6.3
	C408.5,278.7,411.5,280.1,413.9,281.4z M412.2,262.6c1.7-4.4,3.8-7.1,6.4-8c0.7-0.2,1.4-0.3,2.2-0.3c0.4,0,0.8,0,1.2,0.1
	c0.6,0.1,1.2,0.3,1.8,0.6c4.4,1.9,5.8,5.1,4,9.7c-2.3,5.7-7.9,9.1-12.3,7.6c-0.7-0.2-1.2-0.5-1.7-0.7
	C410.3,269.5,410.6,266.3,412.2,262.6z M435.6,288.2c-7.7,1.5-11.3-2.8-8.3-10.1c1.7-5.2,3.5-10.3,5.2-15.5c1.5-4.4,5.9-6,9.3-3
	c5.8,5.2,5.8,12.1,4.4,19C445.1,284.3,440.9,287.2,435.6,288.2z M446.7,258.3c7.9-4,13.6-3.3,18.9,1.1c5.3,4.5,7.9,10.3,6.4,17
	c-0.5,2.4-3.3,6-5,5.9c-3.6-0.2-8.6-1.3-10.3-3.9C452.6,272.5,450,265.4,446.7,258.3z M457.9,296c1.3-1.4,2.8-2.7,4.4-3.6
	c4.6-2.3,9.4-4.3,14-6.6c3.1-1.5,4.9-1.1,5.3,2.8c1,12.8-15.9,28.6-28.3,25.9c-3-0.6-5.5-3.4-7.6-4.7
	C450.5,304.4,454.1,300.1,457.9,296z M448.7,322.9c1.2-0.1,2.5-0.5,3.7-0.4c21.4,1.2,37.7-14.7,37.1-36.2c0-0.9-0.1-1.8-0.1-2.6
	c0.1-3.1-1.7-7.9,3.2-7.7c3.5,0.1,8.7,2.5,9.9,5.3c1.8,4.3,1.7,9.9,1,14.7c-3.6,23.1-24.4,39-45.1,34.6c-3.8-0.8-7.1-3.7-10.6-5.6
	L448.7,322.9z M488.6,262c-2.2,3.8-4.8,5.9-8.9,2.2c-3.6-3.2-6.9-6.9-10.9-9.5c-3.8-2.4-8.4-3.7-13.2-5.7c0.1-1.4,0.2-2.5,0.2-3.5
	c0.4-10.9,4.7-15,15.6-14.5C485.4,231.5,495.6,249.9,488.6,262z M446.8,226.6c-1.4-1.9-3.5-5.7-2.9-6.3c2.7-2.8,6.1-5.3,9.7-6.8
	c2.1-0.9,5.1,0.2,7.4,0.4c2.2,1.4,4.3,2.4,5.8,3.8c3.6,3.3,3.8,6.3-1.3,8.3c-2.6,1.1-5.3,2.2-7.8,3.5
	C453.2,231.6,449.6,230.3,446.8,226.6z M483.7,222.1c-2.4-1.3-5.1-2.3-7.3-3.9c-4.8-3.4-8.9-8.1-14.1-10.5
	c-9.2-4.3-18.4-0.2-23.6,8.6c-1.3,2.2-4.6,5.1-6.5,4.8c-2.6-0.5-5.6-3.3-6.7-5.8c-4.8-11-0.8-20.5,10.3-25.4
	c8.9-3.9,20-4.4,32.7-0.2c9.4,2.9,17,11.1,18.5,24C487.4,216.3,484.9,219.3,483.7,222.1z M440.2,226.9c8.8,2.7,13.2,10.6,10.6,19
	c-2.2,7.1-10.9,10.3-20,7.3c-6.7-2.1-11.9-11.1-9.9-17.1C423.3,228.5,432,224.3,440.2,226.9z M416.5,231.2c-1.5,1.7-5.2,2.1-7.9,2.2
	c-3.5,0.1-6.9-1-10.4-1.3c-7.1-0.7-13.2-6.2-13.4-12.2c-0.2-5.7,4.6-10.9,11.8-12.1c4-0.6,8.2-0.2,10.7-0.2
	c7.9,3,12.6,7.4,13.6,13.7C421.4,224.4,418.8,228.6,416.5,231.2z M399.4,239c10.2-4.3,13.5-1.7,15.9,7.9c-3.7,6.3-7,10.7-9,15.6
	c-1.5,3.7-1.3,7.8-6.7,8.2c-5.2,0.4-10.6-0.3-12.3-5.5c-1.6-4.6-2.6-11-0.7-14.9C389.1,245.5,394.4,241.1,399.4,239z M415.2,309.7
	c5,2.6,11.4,2.6,17.1,4c2.4,0.6,4.6,2.1,6.9,3.1c-1.7,2.5-3.1,6.9-5.2,7.3c-8.5,1.6-17.2,1.9-22.3,2.4c-13.9-5.6-23-11-26.7-21.9
	c-1-3,0.4-6.8,0.7-10.2c3.7,0.6,7.9,0.2,10.9,2C403.1,300.3,408.5,306.2,415.2,309.7z M385.8,318.3c1.6,1.4,3.2,2.6,4.7,4.1
	c10.9,10.6,23.7,13.9,38.4,9.7c2.1-0.6,4.3-1.4,6.4-1.4c4.3,0,7.1,2.3,5.7,6.6c-1.4,4.3-3.7,8.5-6.4,12.1c-3.1,4-7.4,3.3-11.3,0.9
	c-11-6.8-22.1-13.6-32.8-20.9c-3-2.1-4.7-6-7.1-9.1C384.2,319.6,385,318.9,385.8,318.3z M521.5,373.1c-8.7-2-11-6.9-5.1-13.6
	c5.5-6.3,12.3-12.1,19.6-16.3c13.1-7.5,27.7-10.3,42.9-8.2c7.3,1,9.1,4.5,5.8,14.1c-3.2,3.3-7.8,9.3-13.6,13.9
	C556.4,374.4,539.5,377.2,521.5,373.1z M622.4,343.2c13.3-5.3,17.3-15.3,16.2-28.1c0.5-0.1,1.1-0.2,1.6-0.2c1.2,2.1,2.9,4,3.5,6.2
	c5.9,21.6,30.4,42.2,56.1,40.1c3.6-0.3,7.1,0,8,4.9c0.9,5.1-3.3,5-6.1,6.2c-15.2,6.3-30.5,12.4-46.8,19
	C650.5,371.6,639.7,356,622.4,343.2z M738.9,363.9c-1.7-0.3-3.4-0.9-5.1-1.3c-0.2,0.2-0.3,0.4-0.5,0.7c-4.8-3.4-10-6.4-14.3-10.4
	c-5.6-5-6.2-10.7-3.1-16.7c2.4-4.6,7-5.6,10.9-2.4c1.5,1.3,2.6,3,4,4.4c7.2,7.2,13.8,7.4,21.5,1c4.8-4.1,6.7-3.6,8.9,2.2
	C766.1,354.8,754.6,366.5,738.9,363.9z M766.3,357.3c1.3-1.9,5.4-3.5,7.4-2.8c5.5,1.7,10.3,5.7,9.4,11.9c-0.6,4.2-3.1,8.9-6.2,11.8
	c-6.5,5.9-14.4,8.3-23.3,5c-10.3-3.9-20.9-7.1-31-11.4c-3.3-1.4-5.5-5.1-8.2-7.7c0.7-0.8,1.4-1.6,2.1-2.3c3.2,1.8,6.3,3.8,9.5,5.5
	C741,375.3,756.7,371.2,766.3,357.3z M716.8,320c1.4,0.2,2.7,1.1,4.1,1.7c-7.2,8.3-22.3,10-33,3.7c-12.2-7.3-18.5-18.2-17.1-32.5
	c0.3-2.7,2.5-6.2,4.8-7.6c3.4-2.1,6.7-1,7.6,3.8C686.9,307.5,698,317.9,716.8,320z M711.1,300.5c2.6-5.6,6.8-9.6,13.2-8.9
	c2.9,0.3,6.9,2.9,7.8,5.4c0.8,2.4-1.1,6.4-2.8,9c-3,4.7-7.8,6.1-12.8,5.4C710.9,309.7,708.8,305.4,711.1,300.5z M744.2,336.5
	c-5.4,0.8-9.5-2.1-10.7-8.4c-0.8-4.4-0.3-9.1-0.4-13.6c0.3,0,0.6,0,0.9,0c0.6-1.4,0.9-3.2,1.9-4.2c2.3-2.1,5.1-5.4,7.6-5.3
	c2.3,0.1,5.4,3.5,6.6,6.2c1.9,4.1,3,8.8,3.6,13.3C754.6,330.6,750.3,335.6,744.2,336.5z M744.5,298.6c-5.9-2-9.7-10.6-7.5-17
	c3.3-9.3,11.6-13,21.3-9.5c7.6,2.7,10.5,9.5,7.6,17.7C762.9,297.7,753.6,301.6,744.5,298.6z M741.1,259.7c-0.2-1.9,2.1-4.6,4-5.9
	c7.2-4.9,16.9-1.7,18.9,5.8c1.2,4.4,0,7.6-5.2,7.5c-4.2-0.1-8.3-0.8-13.5-1.3C744,264,741.4,261.9,741.1,259.7z M771.2,277.7
	c-2-3.7,0-6,3-6.3c4.4-0.4,9.3-0.4,13.4,1.1c13.2,4.6,20.4,20.9,15.5,33.7c-2.7,7.1-7.9,11.2-15.3,11.9c-7.3,0.7-13.5-1.7-17.6-8.2
	c-1.4-2.2-2.8-4.4-4.5-7C773.5,295.4,776.5,287.4,771.2,277.7z M784.5,262.6c-2.7,2.1-7.6,2.2-11.3,1.6c-1.6-0.3-2.7-4.5-3.8-7
	c-4.1-9.6-13.2-15.1-22-12.2c-10.1,3.4-11.4,5.2-10.1,19.6c-6.5-0.9-8.7-4.6-9.2-9.8c-0.8-8.7,5-17.6,14-22c14-6.7,34-1.2,42.2,11.9
	c1.5,2.4,3.1,5.2,3.1,7.9C787.4,256,786.8,260.9,784.5,262.6z M732.7,271.7c1,5.7-3.9,12.5-8.2,13.5c-3.9,0.9-8.4,0.8-11.5,2.9
	c-5.4,3.6-9.8,8.6-15.2,13.5c-10.2-8.6-10.2-23.3,1.2-32.3c8-6.4,17.2-8.1,26.8-4.9C728.7,265.4,732.2,268.9,732.7,271.7z
	 M712.9,257c-11,0.6-20.4,4.4-27.1,14.1c-1.4,2-5.9,3.1-8.7,2.6c-1.7-0.3-3.6-4.1-4-6.6c-0.6-3.1,0.3-6.5,0.4-8.1
	c5.7-16.8,24-27.2,39.8-23.9c6.7,1.4,7.6,3.3,7.6,12.8C721.1,253.8,719.2,256.6,712.9,257z M675.9,238.3
	c-10.3,10.4-13.7,22.8-10.2,37.1c-4.8,2-7.8,0-10.2-3.6c-5.1-7.7-4.8-16.3-1.8-24.2c6.9-18,19.8-29.5,39.2-32.6
	c9.8-1.5,17.6,2.8,21.2,11.5C700.1,226.9,686.4,227.7,675.9,238.3z M656.6,281.7c1.6,0.7,2.5,4.8,2.3,7.1
	c-0.9,9.7,0.2,18.9,5.2,27.4c7.1,12.1,17.9,19.1,31.1,23c2.9,0.9,7.8-0.2,6.7,5.8c-1,5.4-4.5,8.3-9.3,7c-8-2.1-16.5-4.1-23.2-8.6
	c-16.4-10.9-25.6-26.5-24.6-46.9c0-1.1-0.2-2.2-0.5-4.3c-4.6,1.8-8.3,3.2-12.2,4.7C631.2,285,648,277.8,656.6,281.7z M811.8,362.7
	c-13.4,2-28.2-4.8-35.8-16.2c34.3,7.7,56-6.4,66.2-38.1c3.8-11.7,2.5-24-2.6-35.6c-5.3-11.9-15.9-17.9-27.6-22.9
	c7.8-13.3,11.5-14.5,23.9-8.2c5.9,3,11.8,6.1,17,10.1c21.9,17.3,26.9,49.2,11.7,74.8C852.7,346.6,835.1,359.1,811.8,362.7z
	 M830.2,279.4c6.1,20.7-5.1,47.3-24,57.7c-15.7,8.7-37.1,1.6-45-15.1c-2.2-4.7-3.8-9.8-5.6-14.7c0.4-0.6,0.8-1.2,1.2-1.7
	c1.7,0.8,3.8,1.2,5,2.5c1.9,2.1,3.4,4.6,4.9,7.1c5.3,8.9,12.6,14.6,23.3,13.2c10.8-1.4,18.6-7.8,22.9-17.9
	c6.4-15.2,1.1-28.4-7.1-41.1c-1.5-2.3-2-5.3-3-8c2.9-0.4,6-1.7,8.7-1.1C821.6,262.3,827.4,269.7,830.2,279.4z M793.3,251.9
	c-0.2-2.5,0.2-5.3-0.8-7.4c-10-22.7-39.8-31.9-58.5-14.9c-1.3,1.2-4.1,0.9-6.2,1.3c0-2.2-0.6-4.8,0.2-6.6
	c5-10.5,13.8-15.7,25.2-16.5c16.7-1.1,30.6,4.9,41.5,17.9c0.5-0.3,1-0.6,1.5-1c-2-5.1-4.1-10.1-6.3-15.6c8.9-1,14.6,3.3,17.3,12.8
	C810.7,233.3,806.1,245.3,793.3,251.9z M717.6,168.8c2.3-0.6,4.9-0.3,7.8-0.5c-7.1,9.6-15.3,17.3-19.1,26.7c-4,9.7-9.3,12-19,14
	c-29.2,5.9-46.8,29.7-40.8,58.8c0.3,1.5,0.4,3,0.8,5.8c-21.2-2.9-24.2,13-28.2,28c-0.6-0.1-1.1-0.2-1.7-0.3
	c-0.5-2.1-1.5-4.1-1.5-6.2c0.2-11-1.5-21.5-6.3-31.5c-0.9-1.8-0.6-4.9,0.4-6.7C634.1,213,668.4,181.8,717.6,168.8z M594.1,182.8
	c-9.2-3-14.4-14.5-10.9-24.5c3.4-9.7,14.7-14.9,24.9-11.4c9.2,3.1,14.7,14.9,11.4,24.4C616,181.3,605,186.3,594.1,182.8z
	 M605.1,290.3c-0.8,4.5-4.5,5.3-7.6,3.6c-3.3-1.8-6.3-4.8-8.4-7.9c-5.7-8.7-4.6-21.4-16.9-25.9c7-7,20.8-4.8,27.3,3.8
	C605.6,271.7,606.9,280.8,605.1,290.3z M573.1,53.5c8.3-7.6,20.4-7.8,30.9-7.4c19.6,0.7,35.3,18.8,32.4,37.4
	c-3.6,22.9-33.6,34.3-55,21.4C569.9,98,562.6,85,564,71.5c0.7-6.2,3.3-11.7,7.5-16.4C572,54.6,572.5,54,573.1,53.5z M530.9,189.1
	c13.7,0.2,55.5,43.4,58.3,59.2c-4.9,1.2-10,1.7-14.6,3.6c-12.1,4.9-13.2,14.8-3.4,23.3c4.2,3.7,8.6,7.9,11.1,12.7
	c3.5,6.8,0,13-6,12.4c-1.7-0.2-4.4-2.4-4.6-3.9c-0.8-6.6-5.2-8.6-10.6-8.6c-5.7,0-9.4,3.4-10.7,9c-3.2,13.1,12.7,28.8,27,25.5
	c6-1.4,11.3-6.2,16.8-9.7c2-1.3,3.3-3.8,5.3-4.9c3.2-1.6,6.6-1.9,7.4,3c0.7,4.1,0.7,8.4,1.7,12.4c0.9,3.8,2.8,7.4,4.9,12.9
	c-3.6-0.7-6-1.1-8.4-1.7c-11.3-2.7-22.6-6-34-7.9c-20.2-3.3-37.3,4.2-52.2,17.4c-5.4,4.8-10.6,10-15.7,15.2
	c-5.8,5.8-12.9,7.8-23.2,8.3c3.7-7.4,6.2-13.2,9.4-18.6c5.7-9.7,12.7-18.8,17.5-28.9c4.2-8.8,6-18.7,9.1-28c0.7-2,2-4.5,3.7-5.2
	c26.5-11.3,33.2-42.4,13.6-63.8c-1.8-1.9-3.6-3.9-5.7-6.2C534.4,208.3,533.1,198.7,530.9,189.1z M522.3,184.3c4.2,7,6.6,14,2.5,21.8
	c-2.4,4.6-5.5,7.2-11.2,5.6c-4.2-1.2-9.8-0.4-12.4-2.9c-2.2-2.2-0.8-7.9-1.2-12c-0.9-8.1-3.9-15.4-10.1-21c-1.8-1.6-3.4-3.3-5.7-5.6
	C492.7,167.8,518.4,177.9,522.3,184.3z M486.3,180.1c7.5,7.8,9.2,17.4,6.7,28.3c-6.9-11.1-13.3-22.1-27.1-25.9
	c-12.8-3.5-25-1.7-38.3,3.8c2.5-11.3,9.8-14.3,17.2-16.1C460.1,166.4,474.7,167.9,486.3,180.1z M433.9,163.7
	c0.4,0.7,0.9,1.5,1.3,2.2c-2.8,2.5-5.5,5.1-8.4,7.5c-4.2,3.6-13.3,5.2-18.8,3.8c-3.6-0.9-7.2-1.4-10.8-2.1c-0.1-0.8-0.2-1.6-0.3-2.3
	C408.6,167,421,164.1,433.9,163.7z M365.3,203.5c4.4-12.4,19-26.4,36.5-21.4c4.9,1.4,9.4,5.4,13.1,9.1c1.6,1.7,2.1,6.4,0.8,8.4
	c-1.1,1.8-5.2,1.9-8.1,2.3c-6.1,0.9-12.7,0.6-18.4,2.6c-6.9,2.4-10.3,8.6-10.7,16.1c-0.1,1.8-1,3.5-1.6,5.2
	c-2.1-0.8-4.8-1.1-6.3-2.6C364.7,217.3,362.5,210.2,365.3,203.5z M363.1,251.1c2.1-9.1,7.3-15.6,16.2-18.5c2.8-0.9,6.2,0.1,10.6,0.2
	c-4,5.6-7.2,9-9.3,13c-6.3,11.7-2.8,23.8,8.2,31.2c1.5,1,2.6,2.8,3.7,4.5c0.4,0.6,0.7,1.1,1.1,1.7l0,0h0c-1.1,0.4-2.3,1.1-3.4,1.7
	c-1.9,1-3.8,1.9-5.6,1.7C369.8,285.1,359.4,267.2,363.1,251.1z M365.6,282.9c3.7,4.5,7.4,8.8,6.5,15.3c-0.7,4.8-3.2,6.7-7.7,5.8
	c-2.5-0.5-5.2-1.5-7.2-3c-18.1-13.4-22.9-40.1-10.8-58.8c3.3-5.1,8-7.2,15-7.9c-1.1,3.1-1.6,5.2-2.4,7.2
	C352.8,256.6,355.3,270.4,365.6,282.9z M311.1,337.2c-6.2-46.8,3.2-89.6,33.3-126.9c2.5-3.1,5.9-5.4,9-8.2c2.9,8.4,5.4,15.6,8,23.2
	c-0.2,0.1-0.8,0.8-1.6,1.1c-21.6,6.9-31.7,25.4-26,47.5c2.7,10.5,7.9,19.6,15.5,27.3c2,2,3.9,4,5.3,5.5c-6,4.3-12.2,7.5-16.6,12.3
	c-5.3,5.7-3.7,12.6,2.7,18.3c-3.5,3-6.5,6-9.9,8.3C322.4,351.4,312.4,347.3,311.1,337.2z M327.5,396c-0.9,0.1-1.9,0.1-2.8,0.2
	c-3.4-12.8-7-25.7-10.1-38.6c-0.2-0.9,2.8-3.8,4.1-3.7c11,1,18.4-4.1,24.1-13c2.6-4,5.9-8,12.5-6.3c-7.3,7.4-6.5,19.4-16.3,25.4
	c-7.2,4.4-10.5,15.4-7.2,22.8C334.6,389.1,331.8,392.6,327.5,396z M466.3,583.4c-2.4-1.1-5.4-1.7-7-3.5
	c-28.1-32-56.1-64.2-84.1-96.3c-2.6-3-5.3-6-7.6-9.2c-1.3-1.9-1.9-4.4-3.5-8.4c3.7,1.3,5.5,1.5,6.9,2.4c32.3,19,61.6,41.8,82.2,73.6
	c6.6,10.2,9.7,22.6,14,34.1C467.9,578.1,466.6,580.9,466.3,583.4z M468.6,551.3c-10-13.4-19.1-27.7-30.3-40.1
	c-11.3-12.5-24.8-23-37.5-34.7c1.9-2.8,4.4-5.7,6-9c3.7-7.5-0.6-15.6-8.1-15.8c-5.1-0.2-9.3,3.7-9.1,8.9c0.2,5.7-3.4,6.6-6.6,4.1
	c-4.4-3.4-7.5-8.3-11.2-12.6c0.4-0.7,0.8-1.5,1.3-2.2c-3.6,0.7-7.2,1.3-10.7,2.1c-5.9,1.3-10.3-0.4-13.1-6.1
	c-4.9-10.1-10.2-20-15-30.2c-2-4.2,2.9-16.2,7-18.3c1.2-0.6,3-0.6,4.3-0.1c0.6,0.3,1.2,2.5,0.8,3.4c-2.1,4.2-4.9,8.8-1.2,12.9
	c3.2,3.7,7.2,7.4,11.6,9.3c9.4,4.1,20.5-1.3,25.5-11c3.9-7.5,3.6-14.7,0-22.2c-5-10.7-4.1-12.7,7.4-15.4c6.1-1.4,12.5-1.8,19.3-2.7
	c-2.2-5.4-5.4-7.7-11-5.4c-1.2,0.5-2.6,1-3.9,0.9c-12.5-0.5-21.8,4.2-27.4,15.9c-0.8,1.7-3.9,2.9-6.1,3.2c-5,0.7-10.1,0.7-15.2,0.9
	c-4,0.2-7.7-0.4-8.2-5.5c-0.5-4.8-0.3-9.5,5.1-11.7c2.2-0.9,4.6-1.4,7-1.8c3.3-0.6,6.6-0.9,9.8-1.4c13.4-1.9,21.7-9.5,24.7-22.4
	c1.3-5.7,3.9-6.6,8.9-4.6c13.6,5.4,23.9,14.8,29.6,28c5.2,11.9,8.4,24.6,12.5,37c0.3,0.9,0.1,2,0.1,4.9
	c-11.7-10.8-18.5-24.9-34.4-29.6c-0.5,19.5,4.5,36.7,16.2,53.9c-6.1-1-10.1-2-14.1-2.2c-6.1-0.3-12.3-0.4-18.4,0.2
	c-2.4,0.2-5.3,1.7-6.8,3.6c-1.2,1.4-1.4,4.9-0.5,6.4c0.8,1.2,4.2,1.6,6.1,1c3.5-1,6.7-3.8,10.2-4.4c14.4-2.3,24.4,0.6,30.9,14.2
	c13.3,27.4,31.6,52.3,41,81.7c1.8,5.5,3.3,11.1,4.9,16.6C469.6,551,469.1,551.2,468.6,551.3z M352.4,396.8c1.8-5.4,6.5-7.8,12-6.1
	c5.3,1.7,7.9,8,5.9,14.3c-1.2,3.9-8.2,6.1-13.9,4.3C351.4,407.8,350.1,403.7,352.4,396.8z M483,546.1l-1.7-0.2
	c-7-25.4-14-50.9-20.9-76.3c0.9-0.5,1.9-0.9,2.8-1.4c2,1.5,4,3.1,6.1,4.6c8.6,6.6,18,10.2,29,7.7c12.1-2.8,20-10.9,21.6-22.3
	c1.9-13.2-3-23.1-14-29.6c-3.6-2.1-7.2-4.5-9.8-7.5c-4.5-5.2-3.2-10.8,2.5-14.6c10.5-6.9,31.8-2.5,36.7,9.1c4.2,10,6.8,21,8,31.7
	c1.5,13.7-4.8,24.6-16.3,32.7c-12.2,8.6-22.7,19.2-29.9,32.3c-4.4,8.1-7.5,16.9-11.1,25.4C484.7,540.4,483.9,543.3,483,546.1z
	 M511.2,593.1c-1.6,4.8-3,8.2-3.8,11.7c-0.4,1.7,0.3,3.7,0.5,5.6c1.6-0.2,3.3-0.3,4.9-0.7c1.7-0.5,3.2-1.6,4.9-2
	c0.9-0.2,2.4,0.2,2.8,0.8c0.4,0.6,0.2,2.1-0.3,2.9c-0.9,1.5-2.3,2.7-3.2,4.2c-6.8,10.6-6.3,10.1-16.5,2.1
	c-10.4-8.1-14.6-18-13.8-30.9c1.6-25.7,3-51.6,18.4-73.5c6.6-9.4,15.9-17,24.1-25.3c4-4.1,8.6-7.6,12.6-11.7
	c7.5-8,11.3-17.2,9.3-28.4c-0.3-1.6,0.9-3.4,1.4-5.2c1.3,0.7,3,1.1,3.7,2.1c14.2,22.7,35.6,37.7,56.6,53.2c2.9,2.2,5.2,5.1,8.6,8.5
	c-2.5,0.6-3.7,1.3-4.8,1.1c-10.5-2.1-18.6,1.6-25.2,9.6c-0.9,1.1-2.4,2-3.8,2.4c-0.7,0.2-2.5-0.6-2.7-1.2c-0.3-1.3-0.3-3.2,0.4-4.2
	c1.6-2.2,3.6-4.1,6.6-7.3c-15.2-2.1-24.3,5.4-33.4,14.7c-3.7-3.7-7-7.6-10.8-10.6c-3.6-2.8-7.8-4.8-11.7-7.2c-0.5,0.6-1,1.2-1.5,1.8
	c1.9,4.2,3.7,8.5,5.6,12.7c-0.5,0.6-1,1.2-1.6,1.8c-6.1-3.2-12.3-6.4-18.4-9.7c-0.5,0.5-1,1.1-1.5,1.6c0.8,2.1,1.8,4.2,2.3,6.4
	c0.4,1.8,0.2,3.7,0.2,5.6c-1.9-0.1-3.8,0-5.6-0.3c-2.4-0.4-4.8-1.2-7.2-1.9c-0.5,2.9-1.9,6-1.5,8.8c1.6,13,1.8,13.2,15,32
	c-2.8,1-5.3,2.1-7.9,2.7c-9.1,2.1-11.4,4.4-12.5,13.6c-0.2,1.5-0.1,3.1-0.2,4.6C501,589.5,500.7,595.3,511.2,593.1z M567.6,582.5
	c4.8,0.4,9,10.7,6.5,18.2c-1.7,0.5-4.8,2.5-7.6,2.1c-4.6-0.7-9-11.4-6.5-16.3C561.1,584.4,565.1,582.3,567.6,582.5z M561.4,552.6
	c2.3-6.4,7.3-10.2,11.5-8.4c5,2.2,4.7,6.5,3.4,10.7c-1.8,5.7-7.9,10.6-11.3,9.3C561.5,562.8,559.8,557.1,561.4,552.6z M569.9,572.4
	c0.1-4.5,9.9-6.6,19.1-3.3c0.5,1.2,3.1,4.1,2.7,6.6c-0.8,5-9.2,7.5-15.8,4.4C573.2,578.8,569.9,575,569.9,572.4z M553.8,564.7
	c-2.5,1.4-5.5,1.9-8.8,2.9c-3.2-3.2-6.7-5.6-8.4-8.8c-1.2-2.3-1.1-7.2,0.5-8.6c1.8-1.6,6.8-1.8,8.8-0.4c3.6,2.6,6.1,6.7,8.7,10.4
	C555.3,561.2,554.7,564.3,553.8,564.7z M554.2,583.5c-1.4,6.2-9,9.8-17,7.2c-0.6-1.4-3.1-4.4-2.8-7c0.6-5.1,12.2-10.8,16.8-8.1
	C553.2,576.6,554.7,581,554.2,583.5z M616.5,703.3c-2.2-0.5-4.9-0.4-6.6-1.6c-22.2-16-44.3-32.2-66.4-48.5
	c-5.7-4.2-11.3-8.5-16.9-12.8c-6.1-4.6-5.4-11.7,1.6-14.6c1.4-0.6,4.6,0.3,5.1,1.4c2,4.3,5.3,3.4,7.8,1.8c5.8-3.7,11.2-8,17.4-12.6
	c0.3,0.5,1.7,1.8,1.9,3.2c1.4,8.4,6.9,12.1,14.6,13.1c13.7,1.9,25.1-4.1,38.7-10.3c-5-3.3-8.3-5.5-12.3-8.3c8.9-7.5,19.5-2.6,30-5.6
	c-3.6-4.4-6.6-8-9.5-11.6c0.1-0.6,0.2-1.1,0.3-1.7c3.8,0.4,7.6,0.8,12.1,1.3c-0.9-8.7-9.1-11.3-15.9-17.7c6.5-0.8,11-1.4,16.4-2.1
	c-3.3-13.7-13.2-19.2-25.3-21.9c1-2.1,1.8-4.1,2.6-6c4.1-10.3,4.8-16.9,2.3-21.9c-0.7-1.4-1.6-2.6-2.8-3.8c-0.4,0.2-0.8,0.3-1.2,0.5
	c-1.9,1.6-3.8,3.2-5.6,4.8c-1.4-1.9-4-3.8-3.8-5.6c0.3-2.9,1.5-6.9,3.7-8.3c5.9-3.8,12.4-2.6,18.1,1.2c11.6,7.7,18,19.5,22.9,31.8
	c11.1,28.2,3.8,54.1-12.8,77.7c-15.6,22.2-23.5,45.3-15.7,72.3C617.5,699.5,616.7,701.5,616.5,703.3z M738.6,615.1
	c-9.3,10.7-18.8,21.1-28.4,31.5c-0.7,0.7-1.8,1-3,1.3c-0.7,0.2-1.4,0.3-2.1,0.5c0-0.4-0.1-0.8-0.1-1.2c-0.1-1.2-0.3-2.5-0.1-3.7
	c2.4-11.1-1.5-21.7-10.2-27.1c-5.1-3.2-10.7-2.6-14.4,1.6c-3.8,4.2-4.5,10.1-1.2,13.2c4.1,3.9,8.3,2.9,12.5-0.3
	c4.1-3.2,7.2-2.1,8.5,2.9c1.3,4.9,0.1,9.1-4,12.5c-4.1,3.4-8.4,6-13.9,3.6c-3.4-1.5-6.7-3.3-10.6-5.3c0.2,11,3.3,14.1,13.2,15
	c1.3,0.1,2.7,0.5,4,0.9c1.3,0.4,2.6,0.9,3.9,1.3h0c-0.5,1-1,2-1.4,3c-0.8,1.7-1.6,3.4-2.8,4.6c-15.2,15.1-30.5,30.1-46,44.9
	c-1.8,1.7-5.6,3.5-7.2,2.7c-3.3-1.6-8-4.8-8.2-7.6c-1.1-16.3-1.7-32.8,7.1-47.7c4.3-7.3,10.2-11.6,18.7-13.3
	c5.5-1.1,10.7-4.1,16-6.3c-3.6-5.6-8.8-6.8-16-3.5c-3.6,1.7-6.9,4.1-10.5,5.7c-2.6,1.2-5.5,1.6-9.8,2.8c1.3-2.8,1.5-3.9,2.1-4.6
	c9.1-10.5,18.1-21.2,27.6-31.3c19.8-21.1,54-18.6,73.9-7.5C741.6,606.4,742.4,610.6,738.6,615.1z M784.3,559.9
	c-9.1,12.5-19.1,24.3-28.5,36.6c-3,3.9-6.4,4.6-10.3,2c-17.5-11.7-36.8-14.1-57.2-11.7c-3.8,0.4-5.7-1-6.7-4.6
	c-0.7-2.5-2.1-4.8-3.4-7.1c-5.1-8.9-0.6-19.6,9.4-22.4c0.8-0.2,2-0.2,2.5-0.7c1.2-1.3,2-2.8,3-4.3c-1.7-0.5-3.5-1.7-5.1-1.4
	c-14.2,3.2-20.7,16.1-15.2,31.6c2,5.8,1.5,9.9-4,12.8c-3.8,2-6.6,1.6-6.5-3.5c0.1-5.7,0.8-11.5,0.4-17.2c-1-14.1-2-28.1-3.9-42.1
	c-4.6-33.5,4.6-62,29.3-85.3c0.2-0.2,0.3-0.3,0.5-0.4c13-10.5,19.8-8.3,23,8c1.1,5.8,3.9,7.2,9.4,7.5c17.3,0.9,29.3,11.2,26.4,30.4
	c-2.5-0.9-5-1.5-7.2-2.5c-18.9-8.5-36.2-5.1-52.3,6.9c-1.7,1.3-2.5,3.8-3.7,5.8c1.9,0.9,3.6,2.1,5.6,2.8c5.6,2,11.4,3.3,16.7,5.9
	c3,1.5,5,5,7.9,8.1c-6.2,2.9-11.4,4.6-15.9,7.6c-4.9,3.2-10.4,6.6-8.6,14.1c1.8,7.4,6.7,11,14,12.1c5.7,0.8,11.3,2.4,17,3
	c5.4,0.6,6.7,3.3,5.6,8.1c-1.9,8.4-0.2,16.2,3.6,23.8c2.4,4.9,5.3,5.6,10.1,3c16.3-8.9,28.5-22.1,39.2-36.9c1.7-2.4,4.3-4.1,6.5-6.2
	c1.1,0.7,2.3,1.4,3.4,2.1C787.7,550.5,787.1,556,784.3,559.9z M785.3,511.1c-8.8-0.7-16.7-4.3-21.3-11.6c-2.6-4.1-2-10.1-2.9-15.2
	c0.6-0.1,1.3-0.2,1.9-0.3c3-8.5,6.4-10,12.3-3.4c6.2,6.9,11.1,15.2,15.6,23.4C793.5,508.5,790.8,511.5,785.3,511.1z M793.4,483.3
	c-4.2-2.8-6.8-4.5-9.4-6.3c-3.6-2.5-6.9-5.6-10.8-7.4c-6.8-3.1-12.4-0.1-14.8,7c-0.6,1.7-1.5,3.3-2.9,6.4
	c-3.7-6.2-3.5-10.8-1.3-15.6c2.9-6.4,6.6-12.6,8.7-19.2c3.1-10.1,0-14.1-10.4-15.6c-5.7-0.8-11.2-7.4-12.2-14.8
	c-2.1-14.8,2.3-18.5,16-13.3c12,4.6,20.8,12.6,24.4,25.2c4.5,15.7,8.5,31.5,12.6,47.3C793.7,478.3,793.4,479.6,793.4,483.3z
	 M878,397.7c-7.8,19.4-15.4,39-25,57.6c-9,17.6-20.4,34.1-30.6,51.1c-2.7,4.5-5.7,3.6-7.5,0.2c-3.4-6.4-6.5-13-8.7-19.9
	c-3.8-12-6.8-24.2-10.1-36.3c-0.4-1.5-0.8-3.2-0.4-4.6c0.6-2.4,1.8-4.6,2.8-6.8c2,1,4.5,1.6,6,3.2c8.9,9.7,19.9,12.8,32.5,10.4
	c16-2.9,23.7-17.6,19-33.2c-2.1-6.9-1.9-14.4-9.8-18.3c0.3-0.6,0.5-1.2,0.8-1.8c6-1,12-2.1,17.9-3.1c0.2-0.6,0.3-1.3,0.5-1.9
	c-3.6-0.9-7.2-2.1-10.9-2.5c-11.9-1.3-20.3,4.7-26.9,13.7c-3.3,4.5-1.2,7.8,4.6,7.9c2,0,4-0.1,6-0.1c8.2,0,14.8,8.5,12.5,16.4
	c-1,3.4-3,5.8-6.5,1.9c-1.3-1.4-2.7-2.7-4.5-4.4c-2.2,4.4-3.7,9.4-9.7,6.8c-9-3.9-3.4-12-5.9-19c-11.6-2.7-20.2,5.1-29.2,12.1
	c-0.6-0.5-1.2-1-1.8-1.5c1.8-5.4,3.4-11,5.6-16.3c7.4-17.9,20.4-30.2,38.4-37.2c15.9-6.1,33-0.6,39.5,13.1
	C878.4,388.9,879.4,394.2,878,397.7z M886,372.2c-0.2,1.1-0.6,2.1-1,3.2c-0.2,0.6-0.7,1.1-2.2,3.8c-7.9-12.2-20.5-15.6-33.4-20.4
	c4-4,7.4-7,10.4-10.4c18.3-20.7,26.7-44.6,18.5-71.6c-8.2-27-27.8-42.2-55.7-46.4c-3.1-0.5-5.6-0.5-5.5-4.7
	c0.3-10.1-4.7-17.8-12.1-24c-4.6-3.9-5.7-8.5-4.8-14.2c1.5-9.7,8.7-13.6,17.2-8.9c43.6,24.1,67.2,61.8,74.8,110.3
	C896.4,317,891.7,344.6,886,372.2z"/>
</svg>
