<?xml version="1.0" encoding="utf-8"?>
<!-- Generator: Adobe Illustrator 27.3.1, SVG Export Plug-In . SVG Version: 6.00 Build 0)  -->
<svg version="1.1" id="Layer_1" xmlns="http://www.w3.org/2000/svg" xmlns:xlink="http://www.w3.org/1999/xlink" x="0px" y="0px"
	 viewBox="0 0 1200 800" enable-background="new 0 0 1200 800" xml:space="preserve">
<path fill="#C49A6C" d="M875.2,111.1c-12.2-12-25.6-22.7-40.2-31.6c-27-16.4-58.2-25.8-89.7-27.8c-15.8-1-31.7-0.2-47.2,2.6
	c-16.4,2.9-32.1,10.5-46.7,18.2c-7.2,3.8-7.5,4-9-4c-4.2-21.6-25.2-35-46.3-35.1c-13.4-0.1-24.8,5.1-35.2,13.2
	c-8.9,6.9-13.1,16.5-13.4,27.8c-0.1,3-0.7,6.2-4.9,4.3c-40.5-17.5-86.3-21.4-128.6-7.8C302.1,106.6,247.9,213,275.1,326
	c11.6,48.1,34.9,90.9,61.9,131.7c27.1,40.9,56.6,80,89.4,116.5c36.3,40.5,73.5,80.2,111.3,119.1c23.8,24.4,49.6,46.8,74.3,70.3
	c4.5,4.3,7.4,3.8,11.1-0.7c6.8-8.2,14.2-15.8,21.1-23.9c32.9-38.6,66.5-76.6,98.2-116.1c26.1-32.5,50.7-66.3,74.7-100.4
	c32-45.5,61.8-92.3,84.3-143.5c17.4-39.6,30.1-80.4,30.4-124.1C932.1,199.4,915.1,150.3,875.2,111.1z M787.4,104.1
	c3.3-7.1,5.1-8,12-4.4c8.5,4.5,16.8,9.5,25.1,14.2c1.9,1.1,4,1.9,6,2.9c-0.6,1.3-1.1,2.6-1.7,3.8c-2.4,0.7-5.4,2.5-7.2,1.7
	c-5.5-2.3-10.3-6.1-15.8-8.4c-4.4-1.8-9.3-2.9-14.1-3.2C786.1,110.5,784.9,109.4,787.4,104.1z M800.8,129.3
	c-8.9-2.1-16.7,0.8-22.9,7.4c-2.7,2.9-3.1,6.1,0.1,9c6.4,5.8,11.4,11.9,8.7,21.5c-0.2,0.7,2.7,2.9,4.5,3.5
	c12.6,4.5,17.6,20.6,7.4,28.1c-0.4,0.3-0.8,0.6-1.1,0.9c-0.2-0.5-0.4-1.1-0.6-1.6c2.7-2.6,3.9-6.1,3.1-10.3c-1-4.8-6.1-9.4-10.5-9.4
	c-5-0.1-8.3,4.3-6.3,8.9c1.7,4,3.9,7.9,6.4,11.6c0.6,0.8,2.4,1.5,3.8,1.5c0.3,0.8,0.6,1.6,0.9,2.4c-4.1,4.3-6.3,9.3-8,15
	c-0.3,0.9-0.8,1.9-1.4,2.6c-6.8,8.8-12.6,18.9-20.8,26.2c-11.5,10.2-26,15.4-41.3,10c-10.6-3.8-20.3-10.4-30.3-15.8
	c-1-0.6-2.3-1.4-2.6-2.4c-0.4-1.5-0.1-3.1-0.1-4.7c1.4,0.1,3.1-0.4,4.1,0.3c8.3,4.8,16.4,10,24.8,14.7c15.1,8.6,41.1,2.6,48.3-16.6
	c1.5-4.1,5.4-7.8,9-10.7c6.8-5.4,10.6-16,7.7-24.2c-2-5.5-5.4-9.4-11.6-9.8c-6.6-0.4-10.6-3.2-11.2-10.6
	c-0.6-6.6-4.9-10.9-12.1-11.2c-7.9-0.3-15.9,1.1-23.8,2.1c-1.6,0.2-3.4,1.7-4.2,3.1c-1,1.5-1.8,4-1.2,5.4c0.4,1,3.5,1.7,5.1,1.3
	c5.3-1.2,10-0.3,14.2,2.9c4.5,3.5,6.6,8,5.1,13.8c-1.5,6-5.9,8.8-11.5,8.9c-1.3,0-2.6-0.1-3.9-0.3c1.1-1.3,2.1-2.7,2.8-4.2
	c0.1-0.3,0.2-0.6,0.3-0.9c2.7-2.2,5.5-3.9,5.9-6.1c0.4-2-3.2-6-5.7-6.8c-3.8-1.1-8.3-0.5-12.4-0.1c-3.8,0.3-5.1,3.7-2.1,6.2
	c2.8,2.4,6.3,4.2,10.1,6.4c-0.4,0.7-0.8,1.5-1.3,2.1c-0.7,0.8-1.4,1.6-2.3,2.3c-1.2-0.3-2.3-0.6-3.5-0.9c-1.8-0.4-3.6-1.4-6.7-2.6
	c0.2,0.6,0.3,1.2,0.3,1.8c-1.1-0.6-2.3-1.2-3.3-1.9c-0.5-0.3-1-0.7-1.5-1c-0.2-0.2-0.5-0.3-0.7-0.5c0,0-0.1-0.1-0.2-0.1
	c-0.1-0.1-0.3-0.2-0.4-0.3c-0.4-0.3-0.7-0.6-1.1-0.9c0.6-1.4,1.6-2.8,2.9-4.3c0.8-0.9,1.5-1.7,3.5-4c-1.8-1.2-3.6-2.2-5.2-3.3
	c-3.2-2.2-5.9-5.3-3.8-9c1.6-3,4.6-6.2,7.7-7.4c6.7-2.6,13.9-3.7,20.8-5.8c2.3-0.7,4.2-2.5,6.2-3.8c-1.6-1.6-3-3.7-4.9-4.8
	c-17-9.7-37.4-3.4-47,17.6c-4.3,9.3-3.8,17.6,4.5,25c1.7,1.5,1.3,5.6,1.4,8.5c0.1,2.8-1.1,6-0.3,8.5c3.3,11.2,10.2,15,22.6,13.8
	c2.9-0.3,6.6,0,8.9,1.6c10.9,7.9,17.6,8.2,27.7-0.8c2.4-2.2,3.2-6.2,4.8-9.3c-3.2,0-6.6-0.9-9.4,0.1c-15.2,5.3-27,0.3-37.2-10.9
	c-2.2-2.4-3.4-4.7-3.7-6.9c3,2.3,6.4,4.1,10,5.4c0.5,0.2,1,0.1,1.5-0.1c5,3.5,10.1,7.6,15.5,8.1c6.8,0.7,14.4-2.7,21.2-5.5
	c2.8-1.1,4.3-5.3,6.5-8.1c0.9-1.1,2.1-2.1,3.1-3.1c1.1,1.1,3.1,2.3,3,3.3c-0.5,4.3-1.4,8.5-2.7,12.6c-1.7,5.1-4.4,9.9-5.8,15
	c-3.3,11.6-20.1,18-30.8,10.7c-5.7-3.8-11.3-5.3-17.9-5c-8.8,0.4-14.6-3.9-18.4-11.9c-3.6-7.5-8.4-14.5-12-22
	c-2.7-5.5-5.2-11.2-6.3-17.1c-1-5.1,1.9-9.4,5.9-13.1c4.9-4.4,10.1-9,13.2-14.7c6.6-11.9,16.8-16.2,29.1-14.9
	c6.9,0.7,13.5,4.5,20.1,7.1c1.3,0.5,3.1,2.2,3.2,3.4c0.4,6.7,5,7.1,10.1,8.2c8.9,1.7,12.9,8.1,13.9,16.8c0.2,2.1,0.6,4.5,1.8,6.2
	c2.2,3,7.1,2.4,8.2-1.3c2.1-6.8,4.3-13.9,4.2-20.9c0-3.8-3.8-8.4-7.2-11.1c-9.5-7.7-8.9-15.1,1.9-21.3c6.8-3.9,15.5-5.8,23.4-6.1
	c10.9-0.4,20.2,17,15,27c-3.8,7.4-9.2,13.6-17,16.7c3.7-4.2,8.1-8.1,11.3-12.9C815.4,142.5,811,131.7,800.8,129.3z M774.3,269.1
	c-1,9.3-3,18.5-4.9,27.6c-0.8,3.7-2.3,7.2-4,10.6c-1.1,2.4-3,4.4-5.1,7.6c-1.9-3.1-3.1-5-4.4-6.9c-6.5-9.3-12.8-18.7-19.6-27.8
	c-3-4-2.7-5.5,2.2-7.1c9.4-3.1,18.8-6.4,28.1-9.9C771.5,261.4,775,263.2,774.3,269.1z M579.1,60.1c4.8-3.7,11.2-5.2,17.4-4.6
	c11.9,1.1,23,9.5,21.1,22.8c-1.2,8.7-9.5,16.8-19.1,18.6c-9.5,1.8-19.2-2.4-23.8-10.4C570.1,78.8,571.6,65.9,579.1,60.1z M325,363.3
	c-16.9-38.6-26.9-78.7-20.9-121.2c6.6-46.1,28.1-84.1,64.9-113c33.8-26.5,72.2-38,115-33c26,3.1,49.6,12.9,71.1,27.8
	c13.6,9.4,26.3,19.8,36.4,33c2.5,3.3,4.8,3,7.1-0.3c13.6-19.6,31.3-35.2,51.1-48c32.5-21,68.1-30,106.8-23.4
	c7.3,1.2,14.5,3.1,21.7,5.1c7.1,2,8,4.4,3.7,10.1c-7.2,9.6-14.4,19.2-22.1,28.5c-1.1,1.3-4.6,1.2-6.9,0.9c-12.7-1.8-25.2-4.8-38-5.8
	c-15.7-1.1-27.1,5.5-33.4,21c-3.4,8.3-9.3,15.8-14.8,23.1c-7.7,10.2-8.7,20-5.1,32.6c2.9,10.2,6.4,17.5,15.5,22.8
	c4.1,2.4,5,6.8,4.7,11.4c-1.2-0.4-2.3-0.8-3.5-1.2c-0.3-5.6-3.3-8.8-7.6-10.8c-4.4-2.1-8.4-4.2-10.8-8.9c-0.8-1.5-3.5-2.2-5.4-3
	c-2.5-1-5-1.9-7.5-2.9v-1.8c1.6,0.4,3.3,0.7,4.9,0.7c4.8,0,6.2-1.1,5.8-5.4c-1.3-12.3-1.3-14.7-7.3-14.5c-6,0.2-13.7,6.1-13.7,10.6
	c0,2.5,2.6,5.2,6.1,7c0,0.1,0,0.2,0,0.3v1.5c-1.7-0.7-3.3-1.4-4.9-2.2c-5.1-2.5-8.5-6.7-8-13c0.6-6.6,4.2-11.4,10.2-13.8
	c4-1.6,8.5-1.9,12.9-2.5c5.9-0.8,15.7-11.4,15.5-17.2c-0.2-7.5-8.1-15-16.6-15.8c-7.9-0.7-17.8,4.9-17.7,12.1
	c0,11.5-5.2,19.6-12.5,27.2c-1.2,1.3-2.1,3-3,4.5c-7.2,11.3-6.4,16.7,3.9,25.3c1.2,1,2.5,2.2,3.9,2.8c13.8,6.1,27.7,12.2,41.5,18.2
	c2,1.6,4,3.3,5.9,4.9c0.4,0.4,0.9,0.6,1.5,0.6c0.4,0,0.8-0.1,1.1-0.3l4.8,1.6c-0.2,3.5,0.4,7.6-1.4,9.4c-1.8,1.9-7,0-10.6,0.6
	c-3,0.6-5.8,2.2-8.4,3.7c-1.9,1.1-3.5,2.8-6.2,5c-0.6-3.5-0.7-5.9-1.5-8.1c-0.5-1.5-1.8-3.3-3.1-3.8c-0.8-0.3-2.5,1.4-3.7,2.3
	c-0.3,0.2-0.4,0.7-0.6,1c-2,2.5-4.1,5-6.1,7.5c-1.6-2.6-3-5.6-5-7.9c-3.7-4.1-7.5-8.2-11.9-11.4c-3.2-2.3-6.6-1-9.3,2.6
	c-2.1,2.8-5.2,5-7.9,7.3c-1.2,1-3,1.6-3.9,2.8c-2.5,3.3-4.9,4.7-9.5,3c-4.2-1.5-7.4,2.2-7.1,6c1.2,12.6-4.6,19.3-16.4,22.4
	c-2.6,0.7-4.9,3.4-7,5.5c-6.4,6.6-6.6,13.2-0.9,20.5c5.5,7.1,5.7,8.6,0.7,15.9c-3.9,5.8-8,11.5-12.5,16.8c-3.8,4.4-8.1,4.6-13.2,0.8
	c-4-3-9.4-4.2-13.7-6.9c-2.4-1.5-5-4.1-5.6-6.7c-5.1-21.8,0.2-40.7,16-56.7c5-5.1,9.9-10.6,13.7-16.6c5.2-8.1,5.2-16.8-1.1-24.7
	c-4-5-8.1-9.9-12.5-14.5c-2.7-2.9-1.2-5,0.2-7.5c4.1-6.9,8.6-13.6,12.1-20.8c5.6-11.7,7.3-24.1,5.4-37c-1.5-10.4-6.3-18.8-14.1-25.8
	c-7.3-6.5-15.3-8-24.6-4.9c-18.6,6.3-32.8,18.2-43.7,34.3c-2.2,3.3-4.5,6.7-6.1,10.3c-2.3,5.1-4.5,5.4-9,1.9
	c-6.6-5.2-13.5-10.1-20.9-14c-12.6-6.8-26.7-4-37.3,5.6c-3.4,3.1-8,4.8-12,7.2c-5.3,3.1-10.8,6-15.7,9.6c-3,2.2-2.6,5.5,1.2,7
	c9.9,4,14.9,11.3,16.2,21.9c0.7,6,6.2,9.9,12.4,10.4c3.4,0.3,4.6-1.4,4.8-4.6c0.7-10.5-2.7-19.3-10.7-26.3c-1.3-1.2-1.7-3.4-2.5-5.1
	c2.3,0.1,5.4-0.7,6.8,0.5c8.2,7.1,11.3,16.8,12.5,27.2c0.2,1.4-1,3-1.6,4.4c-2.6,5.6-5.3,11.2-8,17.2c-6.5-3-12.8-0.2-18.9,2.4
	c-19.7,8.7-33.5,23.2-40.7,43.6c-3,8.5-5.8,17.1-8.5,25.6c-1.9,5.8,0,9.9,6,11.7c6.7,2,12.5,5.2,16.9,10.8c1.2,1.5,3,2.8,4.8,3.6
	c18.4,7.9,36.8,16.5,57.5,16c4.1-0.1,6.2,1.5,7.8,5.1c6.7,15,16.9,26.2,32.9,31.4c5.4,1.8,9,5.3,11.8,10.3c3.2,5.7,5.3,5.3,8.3-0.3
	c3.2-6,6.8-6.8,11.9-2.1c-1.2,0.8-2.2,1.9-3.4,2.1c-4.6,1-7,3.9-8.8,8.1c-5,11.6-10.7,13.3-21.7,7.8c-15-7.5-23.1-20.5-29.4-35.2
	c-0.6-1.5-0.6-3.3-1.5-4.5c-1.4-1.9-3.4-3.3-5.1-4.9c-1,2-2.9,4.1-2.7,6c0.8,7.9-2.7,13.8-7.4,19.6c-4.1,5-7.5,10.7-11.7,16.8
	c-1.5-1.9-2.9-3.5-4-5.2c-10.9-17-26.1-24-46.3-20.8C331.3,376.9,330.9,376.7,325,363.3z M640.4,158.9c0.6-4.7,3.4-8.2,8-8.1
	c2.7,0,6.3,2.2,8,4.5c2.3,3.1,1.8,6.8-2.2,8.7c-1.9-1.3-4.1-3.6-5.1-3.2c-1.7,0.8-2.7,3.3-4.4,5.5
	C641.4,165.4,640,162.7,640.4,158.9z M576.9,299c-3.7-4.5-1.2-10.7,4.4-13.3c5.1-2.4,10.3-4.4,15.4-6.7c3.4-1.6,5.4-3.5,3.5-8
	c-1.8-4.2,0.8-7.4,4.9-5.9c4.8,1.8,9.7,3.2,14.6,4.2c1.4,4.6,4.3,8.6,8.1,11.5c2.8,3.4,5.8,6,7.2,9.3c2.9,7,5,14.4,7.2,21.7
	c0.4,1.2-0.1,3.2-0.9,4.2c-5.8,7.6-13.8,12.2-22.7,15c-2.6,0.8-8-0.3-8.8-2c-2.6-6.1-7.3-9-12.9-11.6c-1.7-0.8-3.5-3.4-3.4-5
	c0.1-1.5,2.7-3.6,4.4-3.9c3.9-0.8,4.4-2.2,3.8-6.1c-0.4-2.9,1.2-7.3,3.5-9c1.9-1.4,6.1-0.3,9.1,0.3c1.6,0.3,3.1,1.2,4.6,1.9
	c0.1,0,0.1,0.1,0.2,0.1c0.2,0.2,0.5,0.4,0.7,0.6c1,0.9,1.9,1.8,2.7,2.8c0.1,0.1,0.2,0.2,0.2,0.3c0,0,0.2,0.2,0.2,0.3
	c0.2,0.2,0.3,0.5,0.5,0.7c0.3,0.5,0.7,1,1,1.5c0.2,0.4,0.5,0.8,0.7,1.2c1.1,3.4,2.8,6.2,2.1,7.6c-0.8,1.6-4.2,1.9-6.5,2.7
	c-0.6,0.2-1.2,0.5-1.7,0.4c-2.1-0.2-4.3-0.6-6.4-0.9c1.5-1.6,3-3.2,4.4-4.9c1.3-1.7,2.4-3.5,3.6-5.2c-2.3-0.8-4.8-2.6-6.8-2.2
	c-7.6,1.5-10.1,11.8-4.4,17.4c4.1,4.1,8.7,4.7,14.2,2.3c6.3-2.7,11.1-6.5,12.2-13.5c0.2-1.2-2-3.6-3.5-4c-0.9-0.3-1.9-0.4-2.9-0.4
	c-1.2-2.5-2.6-4.8-4.4-6.8c1.2-0.4,2.4-0.9,3.5-1.3c-0.7-2.3-1-4.8-2.3-6.9c-1.9-3.1-4.6-5.8-6.6-8.9c-2.7-4.3-9.6-6.2-11.7-2.5
	c-3.1,5.6-8.4,7.1-13.3,9.5c-3.9,1.9-5.7,4.5-4.1,9.2c0.6,1.8-0.4,4.4-1.4,6.3c-2.3,4.3-5.7,8.1-7.6,12.5c-3.5,8.4-2,11.4,6.6,13.7
	c5.8,1.5,9.3,3.7,9.5,10.7c0.2,7.9,9,12.6,14.6,8.3c5.6-4.4,10.9-5.7,17.8-3.6c5.9,1.8,8.3-1,9-7.4c0.2-1.9,1.9-4.2,3.6-5.3
	c1.9-1.2,4.9-0.6,6.9-1.7c2.1-1.1,4.8-3.2,5-5c0.3-3.7,0.3-8.7-1.9-10.9c-5.2-5.2-5.9-5,0.2-10.1c5.3-4.4,5.8-9.7,4.1-15.7
	c-2-7.2-7.9-9.2-14.1-10.4c-4.3-0.8-8.7-1-12.3,1.6c-0.1-0.1-0.2-0.1-0.3-0.2c0,0-0.1-0.1-0.2-0.2c-0.1-0.1-0.2-0.2-0.2-0.2
	c-0.1-0.1-0.3-0.2-0.4-0.3c-0.9-0.8-1.8-1.7-2.6-2.6c0,0-0.1-0.1-0.2-0.2c-0.1-0.1-0.1-0.2-0.2-0.2c-0.2-0.2-0.3-0.5-0.5-0.7
	c-0.3-0.5-0.7-1.1-1-1.6c-0.2-0.4-0.4-0.8-0.6-1.2c7.5,1.2,15.1,1.6,22.9,1.8c8,0.1,12.6,5.5,14,13.3c0.7,3.9,1.5,8.1,1,11.9
	c-0.8,6-3.7,12.2,6.4,15.1c-10.2,2.5-8.3,9.6-9.5,16c-2,10.8-14.6,19.2-25.6,20.3c-6.3,0.6-12.3,3.1-18.5,4.7
	c-14.1,3.8-15.9,2.8-21-10.6c-0.6-1.5-2.4-2.8-4-3.7c-1.1-0.6-2.7-0.4-4.1-0.5c-12.6-1.1-18-12.7-10.2-23
	C580.3,309.8,582.1,305.3,576.9,299z M556.5,422.5c1.3,0.1,2.6,0.2,3.9,0.4c-2.1,1.5-4.1,3.1-6.3,4.6c-0.4,0.3-0.9,0.6-1.4,0.8
	c0,0-0.2,0.1-0.3,0.1c-0.1,0-0.2,0.1-0.2,0.1c-0.2,0.1-0.5,0.2-0.7,0.2c-0.1,0-0.2,0.1-0.4,0.1c0,0,0,0-0.1,0c-0.1,0-0.2,0-0.3,0
	c0,0,0,0,0,0c-0.1,0-0.2,0-0.3-0.1c0.1,0,0.2,0,0.2,0.1c0,0,0,0,0.1,0c0,0-0.1,0-0.1,0c0,0-0.1,0-0.1,0c0,0,0,0,0,0c0,0,0,0,0,0
	c0,0,0,0,0,0c0,0,0,0,0,0c-0.1-0.1-0.2-0.2-0.3-0.3c-0.7-0.8-1.9-0.8-2.7-0.2c-11.4-5.9-23.2-10.3-36.7-9.6
	c-9.8,0.5-19.5,8.7-21.1,18.3c-0.5,3.1,0,7.1,1.7,9.6c3,4.3,3.2,7.5,0.1,11.8c-3.7,4.9-3,10.9,1.7,12.3c6.7,2,13.9,2.7,20.9,2.6
	c0.9,0,1.7-0.2,2.3-0.4h6.5c2.9,4.6,8.1,8.1,13.4,8.2c9.2,0.1,18.4-7.9,18.6-16.3c0.2-8.2-7.2-15.1-16.2-15.2
	c-10-0.2-17.9,6.9-18,16.2c0,1,0.1,2,0.4,3H518c-0.3-0.8-0.8-1.6-1.6-2.5c-0.8-0.9-1.5-1.9-2.3-2.8c-3.9-4.7-4.2-9.8-1.9-15.2
	c2.3-5.5,6.6-8.6,12.4-8.9c3.5-0.2,7.2,0.3,10.7,0.9c6.8,1.2,12.9-1.4,16.8-7.5c1.1-0.2,2.2-0.7,3.2-1.2c1.3-0.7,2.5-1.7,3.7-2.6
	c1.5-1.1,2.9-2.1,4.4-3.2c0.7-0.5,1.1-1.3,1-2.1c11.9,3,18.4,11,20.4,25c0.4,2.8,0.8,5.6,1.3,8.3c1.4,7.8,4,9.1,10.8,5.1
	c2-1.2,4-2.8,5.5-4.6c9.2-11.3,6.6-29.3-5.2-37.9c-3.4-2.5-7.1-4.4-10.8-5.7c1.1-3.4,1.1-7.2,0.1-10.7c23.1,3.5,35,18.3,33.9,41.6
	c-0.5,10-4.2,18.2-12,24.6c-2.9,2.4-4,5.1-4.5,9.1c-1.1,8.4-4.7,15.2-10.4,20.4c-0.1-0.1-0.2-0.2-0.3-0.3c-3-2.8-6.2-5.4-9.6-7.6
	c1.6-2.6,1.6-6.3,0.2-11.1c-1.1-3.6-1.3-7.4-1.9-11.1c-1.1-7.3-1.3-14.9-3.4-21.8c-2.7-8.6-12.9-12.1-19.5-7.9
	c-5.4,3.5-6.3,8.1-1.6,11.1c17,10.9,10.9,29.4-0.5,37.5c-4,2.9-8.2,5.5-12.7,8.5c3.5,5.2,10.6,5.9,16.9,3.2c0.1,0,0.2-0.1,0.3-0.1
	c-1.1,2.4-1.8,4.9-2,7.4c-5.3,1.7-10.6,3.7-16,4.9c-7.1,1.6-14.3,2.6-21.5,3.4c-4.3,0.5-8.7,0.1-13,0.1c-0.4,0.6-0.8,1.2-1.2,1.7
	c1.6,2.3,2.7,5.6,4.9,6.9c6.7,3.8,13.5,8.1,20.9,9.9c13.7,3.4,30-9.4,31.8-23.5c0.3-2.5-0.3-3.8-1.6-4.1c0.1-0.3,0.1-0.6,0.2-0.9
	c0.2-0.7,0.4-1.4,0.6-2.1c0.1-0.4,0.3-0.7,0.4-1.1c0-0.1,0.2-0.6,0-0.1c0-0.1,0.1-0.2,0.1-0.3c0.2-0.2,0.3-0.5,0.4-0.8
	c0.3-1.1,0.6-2.1,0.9-3.2c2.3-0.7,4.7-1.2,7.1-1.5c3-0.3,5.4-1,7.3-2.1c0.7,0.4,1.3,0.9,2,1.3c0.5,0.3,0.9,0.6,1.4,1
	c0.2,0.2,0.5,0.4,0.7,0.5c0.1,0.1,0.2,0.2,0.3,0.2c0,0,0.2,0.2,0.3,0.2c0.1,0,0.2,0.1,0.2,0.1c0.1,0.1,0.2,0.2,0.3,0.2
	c0.2,0.2,0.5,0.4,0.7,0.6c0.4,0.4,0.9,0.7,1.3,1.1c0.9,0.8,1.7,1.5,2.6,2.3c0,0,0,0,0,0c-2.1,1.5-4.4,2.9-6.9,4
	c-4.5,2.1-6.1,4.5-6.3,9.4c-0.4,12.5-13.1,26.4-27.9,30.8c-14.3,4.2-27.8,2.7-39.7-7.1c-0.6-0.5-1.6-0.9-1.8-1.5
	c-3.8-9.5-12.1-10.8-20.8-12.6c-5.5-1.2-10.9-5.1-15.4-8.9c-9-7.6-7.6-16.6,3.3-22.9c9.8,14.9,25.4,12.9,40.1,12.9
	c6.9,0,13.9-1.5,20.8-2.7c1.5-0.3,2.8-2.4,4.1-3.6c-1.3-1.3-2.4-3.2-4-3.7c-16.6-5.5-33.3-10.7-49.9-16.3c-4.7-1.6-9.3-3.8-13.4-6.5
	c-6-3.8-6.1-8.7-0.3-13c3-2.3,6.5-4,10-5.5c3.5-1.6,4.5-3,2.1-6.7c-8.9-13.9-5.7-26,8.8-34.2c13.1-7.4,26.8-7.5,40.7-2.6
	c5.2,1.8,9.8,1.3,14.4-1.5c6-3.6,6.4-6.2,1.8-11.3c-7.1-7.8-15.9-12-26.4-12.7c-1.2-0.1-2.5,0.3-3.6-0.1c-1.8-0.7-3.5-1.8-5.3-2.8
	c1.5-1.4,2.8-3.6,4.5-4c13.4-2.8,34-1,44.4,16.4c3,5,6.8,6.7,12.1,7c2.1,0.1,4.2,0.4,6.3,0.7c0,0.2,0.1,0.4,0.2,0.6
	c0.4,0.9,0.8,2.2,1,3.4c0.1,0.3,0.1,1,0.1,1.6c0,0.7,0,1.4-0.1,2c-0.1,0.8-0.3,1.7-0.6,2.5c-5.5-1.4-11.2-1.9-17.1-1.7
	c-6.8,0.3-12.7,2.9-17.4,10.4C551.5,421.8,554,422.3,556.5,422.5z M636.4,471.2c-0.6-9.3,7.5-18.2,17.6-18.2
	c1.2,0.2,3.4,0.3,5.5,0.8c11.1,2.4,12.5,5.4,7.5,15.3c-4.7,9.3-6.8,19.3-6.4,29.7c0.2,5.8-1.7,10.2-6.1,14.2
	c-15.3,14.1-31.4,26.7-51.2,34.1c-3.8,1.4-6.8,4.9-10.5,6.8c-1.8,0.9-4.4,0.3-6.7,0.4c0-2.3-0.9-5.3,0.2-6.6
	c7-8,10.9-17.1,13.1-27.3c0.5-2.5,3.9-4.7,6.4-6.4c5.1-3.4,10.9-5.9,15.9-9.6C632.7,496.1,637.2,484.8,636.4,471.2z M458.5,324.6
	c-1.2-2.7-0.4-6.8,0.5-9.9c2.6-9.8,6.4-19.4,8.2-29.3c1.9-9.9-4.6-15.1-13.9-12.7c-4.9,1.3-7,3.9-5.6,9.3c2.2,8.2,1.5,16.3-2.9,23.8
	c-4,7.6-9.6,13.3-17.6,15.7c8.1-2.5,13.6-8.1,17.7-15.7c0.5-2,1.1-3.9,1.4-5.9c0.7-5.1,2.9-11.2-2.3-14.5c-5.1-3.2-10.9-0.8-16,2
	c-0.2,0.1-0.4,0.2-0.5,0.3c-10.6,11.2-24,18.6-37,26.5c-0.3,0.2-0.3,0.7-0.6,1.5c3.3,4.2,7.9,6.6,13.3,6.8
	c6.8,0.3,13.6-0.1,20.4-0.2c-13.2,4.4-25.7,3.1-37.1-5.1c-1.6-1.2-3.1-2.6-4.3-4.2c-3.8-5.2-2.8-8.4,3.6-9.8
	c13.2-2.8,24.3-9.2,33.6-18.8c1.4-1.5,1.9-3.9,2.8-5.9c-2.2-0.5-4.5-1.6-6.7-1.4c-2.3,0.2-4.5,1.5-6.6,2.7
	c-6.9,3.7-13.7,7.5-20.6,11.2c-13.8,7.5-28.3,9.5-44.3,5c4.9-11.8,7.4-24.5,16.1-34.4c8.4-9.5,20.1-8,31.3-9.2
	c3.4,0.5,6.7,0.9,10.1,1.4c0.8,0.1,1.5-0.5,1.9-1.2c1.6,1.8,2.1,3.9,2.1,6.7c0,1.8,0.5,3.9,1.5,5.5c-0.1,0.3-0.2,0.5-0.3,0.8
	c-0.3,0.5-0.6,1.1-0.9,1.5c-0.2,0.3-0.5,0.6-0.8,0.9c-1.2-2.9-2.5-5.7-4.7-6.9c-3.6-2-9.3-0.1-14.1,0c-0.8,0-1.6,0.1-2.4,0.1
	c-13.4-0.4-22,6-26.4,18.4c-1.5,4.1-2.9,8.2-4.5,12.8c14.5,3.6,45.6-7.8,54.2-19.6c-0.1-0.3-0.3-0.5-0.4-0.8c0.7-0.5,1.3-1,1.8-1.7
	c0.7-0.9,1.4-1.8,1.8-2.8c6.3,2.2,18.9-0.8,21.8-5.7c0.8-1.4,0.9-3.4,0.8-5.2c-0.2-6.7-4.5-9.3-11.2-9c0-0.6,0-1.2,0-1.8
	c1.3-1.4,2.6-2.8,3.8-4.3c2.9-3.5,1.7-7.1-2.8-7.8c-1.9-0.3-4.2-0.5-5.9,0.2c-5.2,2.1-10.3,4.4-15.2,7.2c-4.2,2.4-4.9,5.4-2,8.4
	l-4-0.5c0-0.1-0.1-0.1-0.1-0.2c-3.8-4.7-1.6-7.8,2.2-11.1c3.9-3.5,7.8-7,11.5-10.7c0.8,0.9,1.8,1.7,2.8,2.3
	c-0.3,0.4-0.6,0.8-0.9,1.2c0.8-0.2,1.5-0.4,2.2-0.5c0.6,0.3,1.2,0.5,1.9,0.7c1,0.3,2.3-0.4,2.5-1.4c0-0.1,0-0.2,0-0.4
	c3.9-1,7.6-1.8,11.1-2.7c0.7-1.8,1.1-5.3,2.4-5.7c6-1.9,12.2-3.1,18.4-3.9c1.1-0.2,2.8,2.6,4,4.1c1.2,1.6,1.9,4.8,3.2,5
	c4.3,0.7,8.1,2.2,7.8,6.6c-0.2,3.4-2.2,7.6-4.8,9.6c-3.8,2.9-7.8,5.6-11.9,8.2c-1.5-1.1-3-2.1-4.5-3.2c2.5-4.4,7.7-4.4,11.7-6.5
	c1.6-0.9,2.3-3.5,3.4-5.3c-2.1-0.3-4.5-1.4-6.4-0.8c-2.7,0.9-5.2,2.8-7.6,4.7c-2.8,2.2-5.5,2.2-6.9-0.9c-0.6-1.3,0.7-4.4,2.1-5.4
	c1.7-1.3,4.6-0.9,6.6-1.9c1.6-0.9,2.7-2.9,4-4.4c-1.4-1.2-2.8-3.2-4.3-3.3c-7.3-0.7-15.1,6.6-15.2,16.4c1.9,2.2,4.9,6,8.2,9.4
	c0.1,0.1,0.2,0.1,0.3,0.2c0.1,0.2,0.3,0.3,0.5,0.5l4.4,3c-2.6,1.7-5.2,3.3-7.9,5c-0.5,2.3-0.3,6.4-2.2,9.2c-1.9,2.9-5.7,4.4-8.7,6.6
	c0.4,0.9,0.7,1.8,1.1,2.7c5.6-1.4,12-1.7,16.7-4.6c3.2-2,5.8-4.4,9.8-4.3c4,0.1,6.6-1.4,8.1-5.6c1.7-4.8,3.3-10.6,7-13.5
	c4.5-3.6,8.1-7.2,11.2-12c2.6-3.8,2.8-6.4,0.2-10.1c-4.6-6.6-2.9-12.2,4-15.8c1.7-0.9,3.3-2.3,4.8-3.5c19.8-16,25.5-37.5,23.4-61.8
	c-20.4,2.5-47,37.1-43.1,56.8c0.9-0.3,1.8-0.8,2.7-1c2.1-0.5,4.2-0.9,6.3-1.4c-0.8,2.2-1.6,4.4-2.3,6.6c-0.7,2.4-1.1,4.9-1.8,7.4
	c-0.5,1.8-0.6,4.4-1.8,5.1c-2.7,1.5-4.7,0.4-5.7-3c-0.6-2.1-2.4-4-4.1-5.5c-3.3-2.8-6.6-6-10.5-7.7c-4.2-1.8-9.1-2.8-13.7-2.7
	c-1.4,0-2.8,4.7-4.4,7.8c-1.1-0.3-3-0.8-4.8-1.3c-7.4-2.1-8.7-1.1-7.6,6.6c0.6,4.6-0.2,8.2-4,11.2c-0.8,0.7-1.5,1.5-2.2,2.3
	c-0.4-0.2-0.9-0.5-1.3-0.8c-0.4-0.4-0.8-0.7-1.2-1.2c1.5-1.6,3-3.3,4.5-5c1.5-1.9-0.5-6.6-0.8-10.1c-0.2-2.6-0.2-5.2-0.4-7.7
	c-0.4-4.3-0.6-8.6-1.6-12.7c-1.3-5.4-4-10.6-4.9-16c-1.2-7.6,1.8-10.2,9.5-9.5c9.7,0.9,17.8,8.2,20.7,17.7c-1.2,1.1-2.3,2.3-3.4,3.6
	c-2.2-7.5-8.1-12-14.9-11.8c-4.1,0.1-6.4,2.4-5.3,6.1c1.9,6.7,4.4,13.3,7.3,19.5c1.9,4.2,7,5,9.3,1.8c2.3-3.1,3.7-6.9,4.6-8.7
	c0-0.5,0-0.9,0-1.4c1.1-1.5,2.2-2.9,3.4-4.3c0.1,1.1,0.2,2.2,0.2,3.3c0,1.8-0.2,3.5-0.3,6.2c8.9-1.1,16.3,1.4,22.2,9.8
	c-1-27.5,13.6-44.8,31.7-59.5c6.3-5.1,15-7.6,22.9-10.3c6.8-2.3,12.6,1.1,15.6,7.7c4.9,10.6,7.4,21.5,4.4,33.2
	c-1.2-7-2-13.9-3.6-20.7c-0.8-3.4-2.9-7-7.6-6.2c-4.6,0.8-7.7,3.5-8.1,8.4c-0.4,5.2,0,10.5-0.9,15.6c-3.3,19.4-13.8,34.3-29,46.3
	c-1.5,1.2-2.2,3.4-3.3,5.2c2.4,0,5.6,1,7-0.2c7.7-6.6,15.7-5.8,23.3-0.9c8.4,5.6,13.9,13.4,12.2,24.3c-0.3,2.2-1.5,4.2-3.1,6.4
	c2.1-14.3-4.5-22.8-17.2-26.1c-7.3-1.9-14.9-0.7-22.1,6c3.7,1,5.9,1.6,8.1,2.1c12.6,2.9,21.2,16.5,18.5,29.1
	c-0.1,0.3-0.1,0.6-0.2,0.8c-0.2-0.1-0.5-0.1-0.7-0.2c-0.4-0.1-0.9-0.3-1.3-0.4c-0.1,0-0.1-0.1-0.2-0.1c-0.1,0-0.1,0-0.2-0.1
	c-0.2-0.1-0.4-0.2-0.7-0.3c-0.3-0.1-0.5-0.3-0.8-0.5c0.5-0.8,0.9-1.5,0.8-1.9c-1.2-4.7-2.7-9.8-5.6-13.5c-4.7-5.8-16.9-6.3-20.6-1.6
	c-2.3,2.9-4.3,6.1-7,10.1c10,3.4,19.4,6.9,29.1,9.7c0,0,0.1,0,0.1,0c1.3,0.9,2.8,1.7,4.3,2.2c-1.9,1.1-4.6,1.2-7.5,0.2
	c-9.1-3.2-18.2-6.2-27.3-9.2c-3.5-1.2-6.7-1.5-8.2,3.1c-1.4,4.3,0.2,7,4.2,8.6c6.4,2.5,12.6,5.2,19.2,7.2
	c9.2,2.7,13.4,9.4,14.5,18.1c1.6,12.1,2.4,24.3,3.3,36.5c0.1,1.6-0.9,4.3-2.1,4.9c-8.1,4.2-14.1,10.4-18.8,18.2
	c-1.5,2.5-3.8,4.6-6.4,7.8c-1.6-3-2.6-4.7-3.4-6.3C469.8,347.1,463.8,336,458.5,324.6z M461.8,367.6c-12.2-5.2-24.3-10.7-30.6-23.7
	c-1.6-3.4-1.5-5.5,1.9-7.4c4.1-2.4,8.1-5.1,13.5-8.6c4.1,6.3,8.5,12.1,12,18.5c3,5.4,5.2,11.2,7.4,17
	C467.4,367.1,465.6,369.2,461.8,367.6z M490.7,365.8c5-12.5,15.7-20.8,26.2-20.8c9.7-0.1,17.5,5.2,19.3,13.1c0.9,3.9,0.3,6-4.5,7
	c-8,1.7-15.7,4.7-23.4,7.3c-2.8,0.9-5.4,3.1-8.3,3.4c-3.1,0.4-7.3,0.4-9.3-1.3C489.2,373.2,489.6,368.4,490.7,365.8z M458.7,429.5
	c-1.8,5.2-4.6,10.2-7.9,14.7c-3.4,4.7-6.9,4.5-10.1-0.2c-8.6-12.8-20.6-19.1-35.8-20.2c-1.3-0.1-3.2-1.8-3.5-3
	c-1.9-8.5,10.2-32.9,18.9-37.9c1.6,2.4,3.4,4.8,4.8,7.3c5.8,10.3,14.6,16.8,25.2,21.4C461.3,416.2,462.5,418.4,458.7,429.5z
	 M351.4,409.2c-4-5.3-7.5-10.9-10.9-16.5c-3-5-1.9-7.2,3.8-8.1c3.8-0.6,7.5-0.9,9.6-1.2c16-0.5,29.7,9.9,32.5,23.6
	c0.2,1.2-1.6,4-2.7,4.1c-8.5,1.1-17,2.2-25.6,2.4C355.9,413.7,353,411.3,351.4,409.2z M364.8,430.2c-1.8-3.1,0.6-4,3.3-4.7
	c6-1.5,11.9-3.3,17.9-4.7c1.7-0.4,4.8-0.5,5.3,0.4c0.9,1.6,1.3,4.7,0.3,6.1c-4.7,6.3-10,12.2-15.9,19.4
	C371.6,440.8,367.9,435.7,364.8,430.2z M385.1,444.2c8.5-11.6,22.5-14.3,33.8-6.6c3.9,2.7,7.3,6,5.8,11.4
	c-1.4,5.2-1.7,11.2-7.1,13.5c-0.4-0.6-0.8-1.3-1.2-1.9c0,0,0.1,0,0.1,0c2.2-1,4-4.2,4.6-6.8c0.4-1.7-0.9-4.8-2.5-5.9
	c-7.5-5.8-22.7-2.5-27.5,5.7c-2.1,3.5-1.4,6.3,2.5,7.5c3.6,1.1,7.4,1.5,10.6,2.1c2.8-0.5,5.5-0.7,8-1.2c0.4,0.5,0.7,1.1,1.1,1.6
	c-3.6,0.4-7.2,0.9-12.4,1.6c-3.2-0.9-8-1.6-12.2-3.7C381.8,457.9,380.5,450.4,385.1,444.2z M460.6,544c1,1.8,0.8,4.3,1.2,6.5
	c-2.2-0.8-5.1-0.9-6.5-2.5c-16.4-19.1-32.7-38.4-48.9-57.7c-3-3.5-5.9-7.1-8.5-10.9c-0.8-1.2-1-3.5-0.4-4.9c0.4-1.1,2.4-1.5,3.4-2
	c12.7,4.2,23.6,0.2,34.4-4.5c1.5-0.6,4.4,0.4,5.8,1.6c6.8,5.8,13,12.3,20,17.9c3.2,2.6,3.9,4.5,2,7.9c-2.3,4-4.2,8.2-6.3,12.3
	C449.8,520.7,453.8,532.5,460.6,544z M538.9,637.4c-18.5-19.7-37.3-39.3-55.8-59c-6-6.4-11.9-13-17.5-19.7c-1.2-1.5-1.1-4.1-1.6-6.3
	c2.1-0.4,4.3-1.3,6.4-1.2c3.2,0.1,6.3,1.2,9.5,1.3c12.9,0.4,24.3,4.5,35.8,10.4c16.1,8.3,33.3,4.5,49.8-0.8
	c13.5-4.4,15-3.4,14.7,10.9c0,0.6,0,1.2,0,1.8c0.5,15.1-4.3,28.3-14.4,39.7c-6.4,7.2-12.3,14.8-18.3,22.3
	C544.7,640.5,542.4,641.1,538.9,637.4z M632,693.2c-4,5-8.3,9.8-12.5,14.6c-1,1.1-2.4,2-3.7,3c-1.3-0.9-2.3-1.4-3.2-2.2
	c-19.3-18.7-38.6-37.4-57.9-56.1c-3-2.9-4.2-5.5-1.1-9.2c6.9-8.3,13.5-16.8,20.5-25.1c1.3-1.5,3.5-2.2,5.3-3.3
	c0.8,1.9,2.2,3.7,2.4,5.7c1.9,17.4,6.3,34,20.2,45.7c8.1,6.8,18.1,11.6,27.5,16.7C636.2,686.5,636.8,687,632,693.2z M642.3,669.4
	c-0.3,5.3-4.4,5.2-8,4.2c-14-4-25.6-11.8-32.6-24.7c-4.8-8.9-7.8-18.8-11.3-28.3c-1.1-2.9-3.3-7.1,1.4-8.7c4.5-1.4,9,0.2,11,4.9
	c1.3,3.1,1.7,6.5,2.4,9.3c-1.9,6.4,1.9,7.5,6.2,8.2c2.6,0.4,5.1,0.9,7.7,1.2C639.6,637.6,643.2,655.3,642.3,669.4z M684.5,632.9
	c-9.8,11.9-19.8,23.7-29.8,35.5c-0.6,0.7-1.6,1-3.9,2.4c0-3.6,0-5.9,0-8.2c-0.3-17.6-7.7-30.8-24.3-38.1c-2.6-1.1-5-2.7-7.6-3.6
	c-3.9-1.3-5.5-3.2-5.8-7.7c-0.5-7.5-8.3-11.5-17.7-9.8c-9.1,1.7-8.9,1.6-7.4-7.7c1.2-7.3,1.9-14.7,2.3-22.1c0.2-3.8,1.6-5.8,5-7.3
	c11.2-4.8,20-3.1,29.1,5.6c9.6,9.2,17.3,19.8,21.5,32.3c4,11.7,11.6,17.6,23.5,19.2c4.2,0.5,8.3,1.6,12.3,2.8
	C685.1,627.3,687.3,629.5,684.5,632.9z M763.4,529.6c-21.4,28.5-43.1,56.9-64.6,85.3c-2.5,3.3-5.2,4.8-9.2,2.8
	c-0.7-0.4-1.5-0.7-2.3-0.8c-18.1-2-28.8-12-36.2-28.6c-6.3-14.1-18.6-23.8-32.5-31c-1.6-0.8-3.1-1.8-5.9-3.4c2.7-1.9,4.2-3,5.8-4.1
	c11.6-7.9,23.7-15,34.6-23.8c7.7-6.2,15.4-8.7,24.9-6.9c12.8,2.5,25.5,5.1,38.4,7.3c13.7,2.4,27.2,2.7,39.6-5.2
	c3.6-2.3,7-1.4,9.1,1.4C765.9,524,764.7,527.8,763.4,529.6z M829.7,432.6c-5.5,8.9-10.6,17.9-16.4,26.6
	c-10.9,16.3-22.3,32.3-33.4,48.6c-2.4,3.6-4.5,4.6-8.8,2.5c-4.8-2.4-2.8-5.4-1.9-8.5c5.3-17.3,1.5-32.6-10.5-46.9
	c-2.8,3.1-5.5,6-8.6,9.3h-5.6c-1.5-1.2-3-2.4-4.9-4c-2.5,2.4-4.2,3.9-5.9,5.5c2.6,2.1,4.9,4.9,7.8,5.9c0.8,0.3,2.3-1.5,3.7-3.3h6.9
	c0.4,0,0.8-0.1,1.1-0.4c0.6,0.7,1.2,1.5,1.7,2.4c2.6,5,6.2,10.2,6.8,15.5c1.9,18.2-6.7,27.3-25,28.4c-4.7,0.3-9.4-0.1-13.9-0.9
	c0.6-0.7,1.2-1.5,1.9-2.2c9.4,1.9,20.9,0.4,27-4.2c6.5-4.8,8.9-15.9,4.8-22.8c-0.8-1.4-2.6-3.2-3.9-3.2c-6.8,0.1-13.5,0.4-18.3,6.7
	c-4.3,5.5-9.4,10.3-14.1,15.5c-1.4,1.6-2.9,3.1-4.5,4.7c1.4,0.8,2.9,1.5,4.5,2.1c-0.4,0.5-0.9,1-1.3,1.5c-0.2,0.3-0.4,0.6-0.5,0.9
	c-4.5-1.1-9-2.6-13.3-4.5c-1.8-0.8-3-2.7-4.5-4.1c1.5-1.4,2.9-3.3,4.7-4c10.7-4.3,20.2-9.9,26.1-20.3c1-1.7,1.1-3.8,1.6-5.8
	c-2.4,0.3-5.4-0.3-7.1,1c-6.6,4.9-13,10.1-19.2,15.5c-5.5,4.7-11.5,7.4-18,8.6c0,0,0,0,0-0.1c0-0.1,0-0.3,0-0.3
	c-0.1-0.9-0.1-1.7-0.1-2.6c0-0.4,0-0.8,0.1-1.2c14.6-3.3,23.9-14.9,34.5-24.4c-0.2-0.8-0.5-1.5-0.7-2.3c-3.7-0.7-7.3-1.8-11-2.1
	c-21.1-1.8-31.8,4.2-34.3,24.9c-0.4,3.4,0.5,4.8,4,4.8c1.1,0,2.3-0.1,3.4-0.2c-0.1,1.4,0,2.8,0.2,4.2c-2.8,0.3-5.8,0.3-8.8,0.2
	c-3.9-0.2-6.4-1.6-5.5-5.8c1.7-8,3.3-16,5.9-23.7c1.9-5.5,6.6-9,12.4-10.5c5.2-1.4,10.4-2.7,15.4-4c0.3-0.7,0.7-1.1,0.6-1.4
	c-2.2-13.7-2.2-13.5-15.7-10.7c-3.4,0.7-7.1,0.3-10.6-0.2c-6.7-0.8-13.5-1.8-20.1-3.1c-2.1-0.4-4.4-1.6-5.8-3.2
	c-5.2-6.1-9.8-12.6-15-18.6c-5.2-6-10.1-13.2-16.8-16.8c-12-6.4-22.5-13.9-32.4-23.2c-4.3-4.1-12.5-4-19.1-5.6
	c-2.9-0.7-6.1-0.2-8.8-1.1c-9-3.1-14.5-12.1-13.5-21.6c0.1-1.1,1.1-2.6,2.2-3.2c5-3.2,10.8-2.1,15.2,1.9c1.8,1.7,4.4,2.9,6.8,3.4
	c7.4,1.3,12.2,5.6,15.9,11.7c5.1,8.3,9.2,10,18.5,7.1c4.6-1.4,8.7-4,13.2-5.7c6.2-2.3,12.4-4.7,18.8-6.3c2.2-0.6,5.1,0.5,7.2,1.6
	c7,3.5,10.4,3,15.9-2.5c1.2-1.2,2.9-1.9,4.6-2.6c7.6-2.9,10.5-8.3,8.5-16.2c-1.9-7.7-1.3-8.5,6.8-8.6c1.6,0,3.4,0.3,4.8-0.4
	c3.8-1.7,7.4-3.9,11.1-5.9c-2.8-3.9-5.5-7.9-8.3-11.8c-1.6-2.2-3.2-4.3-4.8-6.4c2.5-1.5,5-3.1,7.5-4.6c1.5-0.9,3.1-1.7,4.6-2.5
	c-1.3-1.1-2.5-2.2-3.9-3.2c-0.6-0.4-1.6-0.3-2.3-0.6c-2.3-1.1-4.5-2.2-6.8-3.3c1.4-2,3.4-3.8,4.2-6c2-5.3,4.8-10.8,4.6-16.1
	c-0.1-5,0.8-12.2-6.9-14.4c-0.6-0.2-1.1-3.5-0.7-3.8c1.8-1.1,4.6-2.8,6-2.1c8,4,15.9,8.4,23.5,13.2c2.4,1.5,3.9,4.4,5.5,6.9
	c3.1,4.9,5.7,10,8.8,14.9c7.5,11.9,15.2,23.6,22.5,35.6c2.1,3.4,3.6,7.2,0.6,11.2c-3,4-6.8,4.1-11.2,3.8c-6.4-0.4-12.8-0.5-19.2,0
	c-7.6,0.6-9.1,4-7.7,11.2c1.4,7.3,1.8,15,1.9,22.5c0,1.5-3.1,4.4-4.8,4.5c-12.7,0.4-23.2,7.3-34.7,11.2c-4.3,1.5-6.2,4.3-4.4,9.5
	c1,2.8,0.6,6.7-0.6,9.5c-4,9.5-2.7,12.6,7,15.2c10,2.7,19.5,6.2,24.3,16.9c3.8-7.2,3.1-12.5-3.2-17c-4-2.9-8.7-4.9-13.4-6.6
	c-4.2-1.5-6.6-2.8-3.4-7.4c0.7-0.9,0.8-2.2,1.1-3.4c0.9-3.5,3.2-4.6,6.4-3.1c5.2,2.4,10.2,5.1,16,8c1.6-8.2-7.4-8.6-10.7-14.6
	c2.2-0.4,4.1-1.2,5.7-0.9c1.8,0.4,3.7,1.7,5.1,3c4,4,7.2,5,12.2,0.7c2.4-2,7.7-1,11.7-0.7c2,0.2,3.8,1.8,6.9,3.4
	c0.3-4.7,1.5-8.9,0.5-12.4c-2.8-10.1-6.5-20-9.7-30c-0.4-1.2,0.1-2.8,0.2-4.2c1.6,0.3,4-0.1,4.7,0.9c2.9,4.3,6,8.6,7.6,13.5
	c2.3,6.8,3.2,14,4.7,21c0.4,1.9,0.7,3.7,1.3,6.7c5.5-4.4,7.6-9.1,6.6-14.8c-0.6-3.3-2.2-6.4-3.6-9.5c-1.6-3.7-3.8-7.1-5.3-10.8
	c-1.8-4.4-3-9.3,1.9-12.5c4.8-3.1,7.9,1,10.7,4c9.9,10.4,12.7,22.9,9.3,36.7c-1.1,4.4-2.4,8.8-3.6,13.3c13.9,3.4,36.8-8.2,42.7-21.1
	c0.8-1.8,3.3-2.8,5-4.2c0.4,2.3,1.6,4.9,0.9,6.8c-2.9,7.5-7.9,13.4-14.9,17.5c-12.5,7.3-26.4,9.5-40.5,10.9
	c-0.2-0.1-0.3-0.3-0.5-0.4c-1.6-2.5-3.1-4.9-4.7-7.4c-0.9-1.4-1.6-2.9-2.8-5c-1.8,4.4-2.9,7.3-3.8,9.5c-7.5-2.7-13.8-5-20.7-7.4
	c-0.2,2.3-0.3,4-0.5,6c-2.8-0.4-5.4-0.8-8.4-1.3c0.7,4.2,5.2,8.7-1.9,10.7c-6.8,1.9-7,2.6-2.6,8c2.2,2.7,3.5,4.7,1.1,8.4
	c-1.4,2.1-1.7,7.5-0.4,8.4c3.3,2.3,7.9,4.2,11.6,3.7c5-0.6,6.1-4.9,4-9.7c-0.6-1.3-1.3-3.8-0.8-4.2c3.9-3.1,2.1-6.2,0.6-9.6
	c-0.5-1-0.4-3,0.3-3.6c0.7-0.7,2.6-0.7,3.7-0.3c2.4,0.8,4.6,2.1,6.7,3.1c1.8-2.8,3.3-5.2,4.9-7.9c5.5,7,6.9,7.5,11.4,2.1
	c1,0.9,2.1,1.8,3.1,2.6c0.2,0.2,0.5,0.4,0.8,0.5c1,3.7,1.5,7.2-3.8,9.3c2.5,2.8,4.5,5.1,6.8,7.7c-1.2,0.8-2.8,1.4-3.6,2.6
	c-4.5,6.1-9.6,8.3-16.9,4.8c0.3-2.1,0-4.3-0.9-6.2c0.7,0,1.5-0.2,2.3-0.4c0.9,0.3,1.8,0.6,2.7,0.9c0,0.1-0.1,0.2-0.1,0.2
	c0.2,0,0.4-0.1,0.6-0.1c0,0,0,0,0,0c0.5,0.2,1.2,0,1.6-0.2c0.1,0,0.1-0.1,0.2-0.1c2.7-0.6,5.4-1.4,5.5-2.4c0.3-2.9-1.1-6.6-3.1-8.8
	c-1.2-1.3-4.9-0.2-7.5-0.2c-0.5,0.6-1.1,1.3-1.6,1.9c5,1,6.3,3,5.8,5.9c-1.2-0.4-2.5-0.8-3.7-1.2c-0.5-0.2-1.2,0-1.6,0.2
	c-0.3,0.2-0.5,0.4-0.7,0.7c-1.4-1.7-2.7-3.3-4-4.9c-0.9,1.3-2.7,3.2-2.4,4c0.5,1.2,1.2,2.3,2.1,3.2c-0.6,0.7-0.8,1.6-0.3,2.4
	c0.2,0.3,0.3,0.6,0.5,0.9c0,0,0,0.1,0.1,0.1c0.1,0.1,0.1,0.3,0.2,0.4c0.1,0.3,0.2,0.6,0.2,0.8c0,0.1,0.1,0.3,0.1,0.4
	c0,0,0,0.1,0,0.1c0,0.3,0,0.7,0,1c0,0.1,0,0.3,0,0.4c0,0.1,0,0.1,0,0.2c-0.1,0.3-0.1,0.6-0.2,0.9c-1.2,0.4-2.3,1-3,1.6
	c-6.4,6.3-12.9,11-22.7,4.8c2.3,9.2,3.9,10.2,10.8,8.9c2.4-0.4,5.1,0.2,7.5,0.9c7.1,2.2,8.8,1.2,9.3-6.2c0.1-1.1,1.2-2.2,2.1-3.8
	c4.8,4.3,7.9,11.6,16,6.4c10.3-6.7,10.4-6.5,8.8-16.1c5.4-1.6,7.5-6.3,3.8-9c-2.3-1.7-5.2-2.7-7.9-4.1c1.9-5.1,4.6-7,10-7
	c14,0,26.9-3.8,37.5-13.7c2.4-2.2,5.7-3.5,8.6-5.2c0.6,0.6,1.1,1.1,1.7,1.7c-0.8,1.8-1.1,4-2.4,5.4c-10,10.4-20.7,19.6-36,21.1
	c-1.9,0.2-4.5,3.1-5,5.2c-0.8,3.2-0.2,6.5,4.6,7.5c7.9,1.5,15.2,0.4,22.1-3.5c4.4-2.5,8.9-4.8,12.7-8.1c5.6-4.8,10.8-3.3,16.4-0.6
	C831.7,427.8,831.3,430,829.7,432.6z M875.1,337.5c-2.1,4.3-5.6,8.3-2.9,13.8c0.6,1.2-0.5,3.6-1.3,5.1
	c-9.9,19.3-19.9,38.4-29.7,57.7c-2.6,5.2-6.1,5.5-10,2.1c-1.3-1.1-2.1-4.3-1.4-5.6c5.8-11.1,4.8-21.4-1.6-31.9
	c-5.3-8.8-3.8-15.3,5.1-20.9c6.4-4,13.6-6.8,20.4-10.3c1.2-0.6,2.3-1.4,3.4-2.2c-0.1-0.7-0.2-1.5-0.3-2.2
	c-11.9-6.6-21.5,1.8-32.6,7.6c2.5-21.3,16.8-30,33.4-36.4c-3.5-5.8-7-6.9-16-3.9c-5.4,1.8-10.2,5.1-15.7,7.9
	c-2.2-8.7,0.4-16.6,3.9-24c3-6.5,7.8-12.1,11.3-18.4c1.6-2.9,4.1-8.3,3.1-9.2c-3.7-3.4-8.2-1.8-11.9,1.2c-9.7,8-14.6,18.9-16.1,30.7
	c-1.3,10.2-0.5,20.8-0.7,31.2c-0.1,5.4,0.2,10.8-0.6,16.1c-2,12.3-14.2,20.1-26.4,17.1c-1.8-0.5-3.6-2.4-4.8-4.1
	c-5.9-8.1-11.5-16.4-17.6-24.3c-2.3-3-2.5-5.3-0.5-8.1c10.4-14.4,15.9-30.4,17.3-48c0.6-7.5,1.3-14.7-5.1-20.6
	c-0.9-0.9-0.2-4.4,0.6-6.2c4-8.4,8.1-16.8,12.4-25.1c1.2,1,2.6,2,4,2.8c-1.2,1.3-2.3,3.2-3.1,5.7c-1.9,5.3,2.5,5.1,5.2,6
	c21.5,6.7,53.3-9.1,62-30.3c1.1-2.6,3.7-5.1,6.2-6.5c7-3.8,7.9-5.6,2.1-10.8c-5.9-5.2-12.5-9.8-19.2-14c-5.7-3.6-11.8-6.6-18-9
	c-2.6-1-7.2-0.8-8.9,0.9c-1.4,1.5-0.7,6.1,0.3,8.8c2.8,7.5,3,14.4-2,21.1c-0.5,0.7-0.7,1.7-1.5,3.9c2.9-1.3,4.6-2.4,6.4-2.8
	c7.1-1.6,14.3-3.1,21.5-4.2c1.1-0.2,2.5,1.5,3.7,2.3c-0.7,1.1-1.4,3.1-2.1,3.1c-6.2,0.1-7.2,5.2-9.9,9.1c-2.6,3.9-5.9,7.8-9.8,10.3
	c-7.8,4.9-16.3,8.1-25.9,4.9c1.5-0.4,3-0.8,4.6-1.2c0.6,0.4,1.1,0.7,1.5,0.9c10.5-0.6,17.9-4.4,24.2-10.3c1.8-1.7,2.9-4.3,3.6-6.7
	c0.2-0.7-2.5-3.3-3-3c-8.8,3.4-17.5,6.9-25.9,11c-1.4,0.7-2.2,2.7-3.1,4.6c-1.7,0.5-3.5,0.9-5.2,1.4c-0.7,0.2-1.2,0.7-1.4,1.4
	c-0.1,0-0.1-0.1-0.2-0.1c-0.7-0.4-1.3-0.8-2-1.3c-0.2-0.1-0.3-0.2-0.5-0.3c0,0,0,0,0,0c-0.1-0.1-0.2-0.1-0.2-0.2
	c-0.3-0.3-0.6-0.5-0.9-0.8c-0.1-0.1-0.2-0.1-0.3-0.2c1-1.9,2-3.9,3.1-5.8c1.7-3.2,5-5.6,7.9-8c2.9-2.5,6.5-4.1,9.1-6.9
	c5.7-6.2,9.1-12.9,5-21.8c-3.2-7-2.7-14.3,1.3-21.4c2.1-3.8,4.2-8,4.7-12.2c1-7.6,4.3-13.4,9-19.2c3.7-4.5,6.4-4.4,10.3-0.9
	c14.7,13.5,26.6,28.9,35.4,46.8c11,22.5,17.1,46.3,17.6,71.3C896.9,277.6,889.2,308.3,875.1,337.5z"/>
</svg>
