<?xml version="1.0" encoding="utf-8"?>
<!-- Generator: Adobe Illustrator 27.3.1, SVG Export Plug-In . SVG Version: 6.00 Build 0)  -->
<svg version="1.1" id="Layer_1" xmlns="http://www.w3.org/2000/svg" xmlns:xlink="http://www.w3.org/1999/xlink" x="0px" y="0px"
	 viewBox="0 0 1200 800" enable-background="new 0 0 1200 800" xml:space="preserve">
<path fill="#C49A6C" d="M564.9,261.7c0,0-36.3-118.2-158.8-95c0,0-29.3,7.8-57.1,19.9c3-6.4,4.7-13.5,4.7-21
	c0-27.1-22.1-49.2-49.2-49.2s-49.2,22.1-49.2,49.2c0,4.8,0.7,9.5,2,13.9c-35.4-18.7-85.6-32.5-135.2-2.1c0,0-112.8,61.2-51.8,213.4
	c0,0,69.4,169.2,241.8,288.9c0,0,171.7-152.3,212.2-229.5C524.3,450.3,589.6,351.4,564.9,261.7z M517.4,246.2
	c2.5,4.1,2.4,12.9,0.3,19.2l0.2,0c-0.2,0.4-0.5,0.9-0.7,1.3c-0.7,1.7-1.5,3.2-2.5,4.2c-21.1,34.3-37.2,8-37.2,8l0.1-0.4
	c-0.1,0.1-0.1,0.1-0.2,0.2c-10.3-19.9-3.3-36.5,16.9-42.2C503.2,234,512.4,237.9,517.4,246.2z M457.7,198.6c4-1.1,8.5-1.9,12.5-1.3
	c19,2.8,30.8,15.6,41.2,30.7c-16.4-4.1-32-1.1-47.7,1.8c-9.7,1.8-15.8-2-17.6-9.3C444.1,211.9,449.6,200.9,457.7,198.6z M391.1,251
	c-5.6-11.7-4.3-21.4,3.8-27.2c9.1-6.6,27.3-6.3,34.4,0.6c5.4,5.3,6.1,11.7,2.7,18.3c-1.5,3-3.2,5.8-5.5,7.7l0,0.1
	c0,0-12.6,12.7-23.4,11c3.9,4.4,9.3,5.4,15.2,5.9c9,0.8,12.2,6.7,12.3,19.9c0,4.1-0.2,6.9-1.2,8.8l0,0c0,0-6.4,13.8-17.2,15.9
	c-5.6,2-10.4,3.7-16.7,5.9c3-19.4-6.4-29.9-22.8-35.9c5.3-3.7,10.2-6.3,14.2-9.9C394.2,265.8,395.2,259.4,391.1,251z M345.8,320.1
	c-2.9-9.8-1.1-17.7,5.1-24.1c6.2-6.4,14.4-8,22.7-4.9c10.4,3.9,12.5,13.2,14,24C373.3,317.6,358.7,308,345.8,320.1z M383.7,333.7
	c-6.1,10-23.1,12.7-31.2,4.6c-2-2-4.4-5.9-3.8-7.9c0.9-2.7,4.4-5.2,7.3-6.3c3-1.2,6.7-0.8,10.9-1.1c3.8,0.4,8.2,0.7,12.6,1.5
	C385.7,325.5,386.9,328.4,383.7,333.7z M360.1,276.1c-8.3-0.4-14.6-8.7-14.3-18.8c0.3-9.7,8.7-18.8,17.3-18.6
	c10.3,0.2,18.5,9.7,18.4,21.1C381.3,270.4,373.1,276.7,360.1,276.1z M331,253.7c4.3,6.7,7.9,12.2,11.3,17.4
	c-6.6,3.3-13.2,6.7-21.2,10.7C320.6,270.9,325,262.5,331,253.7z M304.4,129.2c20.1,0,36.4,16.4,36.4,36.4s-16.3,36.4-36.4,36.4
	S268,185.8,268,165.7S284.3,129.2,304.4,129.2z M271.9,240.6c12.6,1.7,20.8,12.4,23.3,29c4.4,0,9.7-1.6,12.2,0.4
	c3.5,2.7,6.2,7.9,7,12.5c2.2,11.7,3.1,23.6,5.7,35.5c0.7-5.2,1-10.5,2.2-15.6c1.2-5.1,2.5-10.5,5-14.9c5.9-10.3,14.6-11.7,27.2-5.1
	c-4.3,2.8-8.6,5.3-12.5,8.2c-11.8,9.1-15.7,25.3-10,40.4c5.2,13.6,17.5,22.1,31.5,20.8c13.5-1.3,23.1-9,28.6-21.2
	c2-4.4,4.2-6.2,9.3-6.5c21.5-1.2,38.4-16.4,42.7-37.7c1.7-8.5-2.3-14.9-8.1-20.5c-2.1-2-4.6-3.5-6.4-4.9c3.8-8.1,7.5-16,11.1-23.7
	l-0.5,0.1c4.8-13.7-16.2-22.8-16.2-22.8v-0.1c-25.9-7.9-41.9-1.4-49.8,20.7c-5.5,0-10.2,0.2-14.9-0.1c-1.7-0.1-4.1-0.8-4.6-1.9
	c-0.5-1.2,0.5-3.4,1.3-4.9c0.7-1.3,2.1-2.4,3.3-3.4c22.5-18.3,47.9-30.1,76.9-33.6c5-0.6,10.1-0.1,15.2-0.1
	c-5,8.2-9.6,15.5-14.1,22.9c0.2,7.7,5.6,14.9,9,18.7c7.3,1.8,15.4,3.8,23.9,5.9c-6.5,12.6-13.4,26-21,40.6
	c8.5,14.6,4.3,30.2-4.3,46.1c-9.8,18.2-26.6,24.9-44.7,29.9c-3.6,1-6.1,1.5-4.9,6.1c0.2,0.9-1.3,2.6-2.4,3.5
	c-7.8,6.3-15.6,12.4-23.6,18.7c1.3-8.1-0.5-15.8-8.3-20.7c-7.6-4.8-15.6-3.3-23.9-1.7c-0.1,0-0.3,0-0.4,0.1
	c-6.3,5.7-15.8,15-16.6,19.1c0,0-9.6-11.8-19.3-18.8c-0.5-0.1-1-0.2-1.5-0.3c-14.6-4.8-20.8-4.7-30.3,4.7
	c-8.2,9.2-2.3,32.9-1.6,35.8c5.8,8.8,15.1,13.9,27,16.2c-4.3,12.9-6.9,14.3-18.8,14.4c-6.2,0-12.4,1.8-19,2.8
	c1.6-10.9,3.1-21.9,4.7-32.8c-16.4-25.2-41.9-19-52.1-15.1c-1.5,3.5-3.2,7-5.2,10.5c-3.8,6.5-4.9,14.7-7.4,22.6
	c-5.7-5.3-4.4-11.7-3.1-17.3c2.2-9.3,5.4-18.3,8.6-27.3c5.5-15.8,7.6-31.5-0.5-47c20-4.9,39.4-9.7,60-14.8
	c-1.3,4.8-2.4,8.9-3.5,13.1c-3.1,11.9,0.3,21.4,10.2,27.6c1.9,1.2,4.8,2.3,6.5,1.7c16.4-6.2,30.4-15.2,36.1-33.2
	c1.8-5.6,0.8-9.9-3.7-13.5c-8.2-6.6-15.9-13.6-16.5-24.7c-19.9,12.6-35.1-4.7-35.1-4.7l0,0c-7.3-6.5-9.1-17-4.7-27.2
	C254.9,244.8,263.9,239.5,271.9,240.6z M376.5,458.1c-1.4-1.7-2.9-3.3-4.4-4.8c-7.6-4.4-21.6-2.9-21.6-2.9v-0.3c-0.2,0-0.5,0-0.7,0
	c-1.3-5.4-1.8-11.2-4.1-16.1c-2.4-5.1-6.6-9.4-9.5-13.5c9.6-7.3,19.5-14.7,30.3-22.8c0,2.9-0.1,5.3,0,7.8c0.4,9.3-0.3,18.7,1.5,27.7
	c2.2,11.6,9.3,20.9,24,19.3c2.7-0.3,5.6,0.3,8.1,0.5c0.2,1.5,0.6,2.2,0.4,2.5c-10,15.3-19.8,30.8-30.3,45.8c-4.9,7-10.6,6.6-20-0.2
	c3.1-1.9,5.9-3.6,8.7-5.3c9.4-5.7,17.1-13.1,19.5-24.1C379.1,467.3,378.9,461.1,376.5,458.1z M257.9,511.4L257.9,511.4
	c-1-0.2-1.9-0.5-2.8-0.8l-28.8-8.4c-1.7,0-3.5-0.5-5.7-1.2c-9.5-3.1-19.2-5.4-29.3-8.2c6.5-5.2,11.6-9.8,17.2-13.5
	c1.9-1.3,5.2-1.1,7.7-0.7c2.1,0.3,4,1.8,7.2,3.4c-0.7-3.4-1.3-5.4-1.5-7.4c-1-7.6,3.2-14.9,9.8-17.4c7.7-2.8,10.2-1.3,10.4,6.9
	c0.4,16.5,8.9,27.9,22.3,36.3c3.3,2,6.5,4.1,10.1,6.3C268.6,510.8,262.9,512.3,257.9,511.4L257.9,511.4z M250.7,419.2
	c0.8,8.9-11.2,15.3-11.2,15.3c-6.4,1.8-14.8-1.6-17.5-2.9c-2.5-0.1-4.4-2-6.4-4.4c-6.5-7.7-6.8-18.5-1.2-26.6
	c4.5-6.5,13.6-9.3,21.3-6.7c9.3,3.2,15.4,12.1,15.1,22.2C250.8,417.3,250.8,418.3,250.7,419.2L250.7,419.2z M330.8,411.6
	c-8.8,1-16.7,1.9-26.3,3c4.7-9,8.9-17,13.7-26.3C322.7,396.8,326.5,403.8,330.8,411.6z M329.2,384.7c1.9-11.1,8.1-17.2,17.5-17.3
	c9.4-0.2,15.8,6.9,14.9,16.6c-1,10.6-7.9,17.1-16.4,22.2c-1.1,0.7-3.1,0.6-4.5,0.1C333.3,403.7,327.7,393.1,329.2,384.7z M295,405.6
	c-10.3,0.4-21.9-13-21.9-25.4c0-6.8,4.5-11.6,11.2-12c11.5-0.6,24.9,11.1,25.2,22.1C309.7,397.8,302.6,405.3,295,405.6z
	 M260.9,448.2c9.5-8.5,23-5.6,28.3,6c5,11.1,10.4,22,15.3,33.1c0.5,1,0.7,2.7,0.7,4.1l0.2,0.1c0,0.3-0.1,0.7-0.2,1
	c-0.1,0.5-0.2,0.8-0.5,0.9c-0.1,0-0.1,0.1-0.2,0.1c-3.5,4.1-15.9,7-15.9,7c-13.1,1.7-26.3-15.2-28.8-18.5c-0.1,0.1-0.1,0.2-0.2,0.2
	C250.8,471,251.5,456.6,260.9,448.2z M315.9,499.7c-0.3,14.3-5.7,25.5-13.6,35.6c-1,1.3-4.7,1.1-7,0.7c-7.5-1.2-15-2.5-22.2-4.5
	c-4.1-1.1-7.7-3.8-11.3-7.6C282.6,521.1,299,510.3,315.9,499.7z M300,436.5c1.7-10.3,9-15.3,19.5-14.6c10.5,0.6,16.5,6.4,17.5,17
	c0.2,2.6,0.2,5.3-0.1,7.9c-0.3,3.1-0.6,5.2-1.1,6.6c-1.8,6.5-9.6,32.9-14.7,34.7c0,0-2.4,0.4-3.9-0.8c-0.2,0.1-0.3,0.2-0.5,0.3
	C309.8,471.1,296.7,456.6,300,436.5z M377.6,431.7c0,0.1-0.1,0.1-0.1,0.2c-6.5-11.4-5.6-21.7-1.3-31.7c4.7-11.1,12.8-19.4,23.6-24.9
	c7-3.6,14.2-5.1,21,0.2c6.6,5.2,7.4,12.7,6.1,20.3c-0.7,3.8-2.6,7.4-3.9,10.9c0,0,0,0-0.1,0C422.4,407.5,398.6,448.6,377.6,431.7z
	 M134.2,394.9c4.1-7.4,14.6-10.9,24.6-7.7c15,4.7,23.2,16,28.1,30.2c1.4,4,0.2,6.3-2.7,6.8v0c-25.5,9.5-44.2-1.4-44.2-1.4l0-0.1
	C132,415.4,129.7,403.1,134.2,394.9z M166.3,364.6c-1.4-0.3-2.7-1.2-3.8-2.7c-3.2-4.6-5.9-11-5.4-16.2c1-10.3,13.3-17.6,24.6-16.3
	c10.8,1.3,18.3,10.1,17.5,21.6c-0.4,6.2-2.2,12.3-3.5,19.5c0-0.1-0.1-0.1-0.1-0.2l-2.2,11.5L166.3,364.6z M244.2,306.1
	c-15-4.2-30.3-7.7-44.8-13.4c-13.2-5.1-19-17.2-21.5-30.6c-0.5-2.9,1-6.1,1.9-11.2c18.4,19.7,40.7,26.8,61.4,36.7
	c3.6,1.7,7.4,3.2,10.6,5.5c5.8,4.2,5.2,9.3-1.4,12C248.5,306,246.1,306.6,244.2,306.1z M290.2,301.5c-5.1,0.9-10.2,2-15.3,2.6
	c-2.7,0.3-5.5-0.3-8.2-0.6c0.3-2.5-0.3-5.6,1-7.3c1.7-2.1,5.3-4.7,7.3-4.2c5.5,1.3,10.7,4.2,16.1,6.4
	C290.8,299.5,290.5,300.5,290.2,301.5z M302.8,315.2c4,5.6,1.8,12.2-3.2,16.5c-5.5,4.8-11.7,9.2-18.2,12.5
	c-6.5,3.3-11.1,0.6-13.4-6.4c-4.6-13.5,6.9-29.9,22.2-31.7C294.5,309.1,300,311.2,302.8,315.2z M240.3,263.8v1.5
	c0,2,0.2,4.1,0.5,6.2c-0.2-0.1-0.3-0.3-0.5-0.4v3.3c-15,1.4-41.5-24-46.2-28.6c-0.2-0.1-0.5-0.3-0.6-0.5c-7-6.9-7.8-19.2-2.1-26.2
	c6.6-8.1,15.9-9,25.4-2.8c11.9,7.8,23.9,15.4,36.7,23.6C244.6,245.4,240.6,253.7,240.3,263.8z M150.5,196.5
	c22.7-10,45.3-10.9,69.4,2.8c-9.5,1.8-17.4,1.9-24,4.9c-5.2,2.4-9.7,6.5-13.9,10.1c-1.6,2.5-16.9,28.3-11,56.4
	c10.5,30.5,14.9,29.7,47.5,44.3c0,0.9,0,1.8,0,2.7c-7.2,0.2-14.5,0.6-21.7,0.6c-3.8,0-7.6-0.1-11-0.9c-2.6,0.4-33,5.9-40.8,34
	c0,0-8.3-6.2-9.7-10.2l0-0.2c-2.5-4.3-4.3-9.8-4.5-14.7c-0.5-15.1,4.8-28,14.6-39.3c4.7-5.4,9.5-10.8,14.2-16.1l0,0
	c0,0,16-23.4-7.2-32.7c0,0-11.8-4.2-27.2,4.3c-2.9,2.7-5.7,5.7-8.3,9.1c-3.4,4.5-13.3,3.9-20.9,4.6
	C105.8,228,123.9,208.3,150.5,196.5z M132.8,252.8c1.6-3.2,5.8-5,10.6-8.7c5.3,4.9,11.4,8.3,13.5,13.3c1.5,3.5-1.5,9.8-4.2,13.9
	c-2.7,4.1-6.5,3.3-9.3-1.3c-1.8-3.1-4.7-5.5-6.6-8.5C135,258.7,131.9,254.6,132.8,252.8z M93.9,276.8c1.2-10.3,7.7-15.2,18.2-14.4
	c10.2,0.8,16.3,7,15.2,17.3c-0.8,7.5-3.5,14.7-5.1,20.8c-0.1,0-0.1-0.1-0.2-0.1c-0.7,2.5-4.1,14.9-4.1,19.2
	c0.6,4.1,1.1,7.9,1.8,11.8c0.9,4.6,2.3,9.1,2.7,14.2c-7.4-5-14.4-10.6-17.3-19.2c-4.2-12.4-7.6-25.1-10.8-37.8
	C93.3,284.9,93.4,280.7,93.9,276.8z M122.1,417.1h-0.2c0.1,0,0.1,0.1,0.2,0.2c-0.4,0.6-0.8,1.1-1.3,1.7c-2-1.9-4.7-3.5-5.8-5.8
	c-6.2-13.2-13-26.2-17.6-40c-4.8-14.5-7.5-29.8-10.8-44.8c-0.7-3.4-0.1-7,1.4-11.2c15.3,21.5,26.4,45.9,51.3,59.2
	c-5.8,4.9-10.1,8.5-15.1,12.7C123.6,391.1,118.9,410.9,122.1,417.1z M153.7,464.6c-0.5,1.2-1,2.4-1.6,3.6
	c-7.7-10.7-15.2-21-23.5-32.6c1.6,0.3,3.3,0.6,4.8,1c11,2.2,20.4,4,29.8,5.9C160.2,449.4,157.3,456.3,153.7,464.6z M175.3,478.8
	c-13-9.4-9.4-29.8,4.2-36.8c7-3.6,15.9-2.6,20.8,2.3c6.7,6.6,8.4,16.5,4.5,24.1c-0.3,0.5-0.6,1-0.8,1.4l0.2,0
	C192.8,488.5,176.5,479.5,175.3,478.8C175.3,478.8,175.3,478.8,175.3,478.8z M212.2,536.9c-0.9,0-1.8,0-2.7-0.1
	c-9.4-11-18.8-22.1-28.2-33.1c0.6-0.9,1.1-1.8,1.7-2.6c16.5,3.3,32.9,6.5,51.4,10.2C225.5,520.1,210.5,521.1,212.2,536.9z
	 M254.7,544.4c-0.3,0.4-0.7,0.8-1.1,1.1c-6.8,7.9-9.6,27.3-9.6,27.3L229.1,557l0-0.2c-1.7-1.6-2.6-2.4-3.4-3.2
	c-9.4-9.1-11.2-16.6-5.7-24.3c6-8.4,18-11,27.9-6.2c10.2,5,13.2,12.8,7.8,20.1l0.5,0.1C255.6,543.6,255.1,544,254.7,544.4z
	 M276.1,595.1c0,0-10.5-0.3-14.4-7.3c0,0.1,0,0.1,0,0.2c-9.9-13.1-5.4-37.5,7.6-44.9c6.9-3.9,15.9-3.4,21.6,1.4
	c6.6,5.5,9.1,14.3,6.7,22.2c-0.2,0.6-0.4,1.1-0.6,1.6l0,0C296.9,568.4,286.7,596,276.1,595.1z M331,613.9c-0.5,0.3-1,0.5-1.4,0.8
	c-6,4.4-21,19.4-21,19.4l-15.3-14.9V619c-5.2-3.1-9.9-7.4-15.1-11.4c1.3-1.6,1.7-2.6,2.5-3.1c17.7-9.5,25.6-25.2,26.6-44.3
	c0.8-14.5,5.5-27.4,11.8-40.1c8.5-17.1,16.7-34.4,25.1-51.6c1.3-2.6,2.7-5.3,4.8-7.1c6.5-5.5,16-4.9,19.9,0.9
	c4.2,6,1.7,14.8-6.1,19.8c-8.2,5.3-16.8,9.9-25.2,14.9c-1.6,0.9-2.9,2.2-7,5.4c7.6,3.9,13.5,6.9,19.3,10c0.8,0.4,1.6,0.8,2.3,1.3
	c1.5,0.9,3.1,1.8,4.6,2.7c0.8,0.4,1.5,0.9,2.3,1.3v0c0,0,0,0,0,0c-1.7,1.6-3.4,3.4-5.1,5c-1,1-2.1,1.9-3.3,2.7
	c-5.1,3.4-10.5,6.2-15.8,9.2c-19.2,11-29,36.6-21,57.3c2.1,5.4,7.1,9.6,10.9,14.3c2,2.6,4.1,5.1,6.1,7.7l0,0
	C330.9,613.8,330.9,613.8,331,613.9C330.9,613.8,331,613.9,331,613.9L331,613.9L331,613.9z M367.6,568.5c-0.3,0-0.6,0-0.9-0.1
	c-2.1,19.7-23.3,33.4-23.3,33.4c-9.7,3.5-19.2-9.1-19.9-10c0,0.1-0.1,0.2-0.1,0.4c-7-11.2-5.6-21.8,0.1-31.9
	c7.5-13.1,19.3-21.7,32.8-27.9c7.6-3.5,12.8-0.2,12.9,8.1C369.4,549.8,368.3,559.1,367.6,568.5z M376.1,570.5
	c0.8-10.1,1.5-18.3,2.4-28.3c5.1,5.5,9.1,9.8,14,15C387.4,561.3,382.6,565.2,376.1,570.5z M397.5,549.5c-1.1,0.7-4.6-0.9-6.2-2.3
	c-4-3.8-7.5-8.1-11.9-12.9c4.2-5.4,18-4.5,31.8,3.6C406.5,542,402.3,546.2,397.5,549.5z M403.8,525c-7.2-4.9-13.9-7.8-22.6-3.9
	c-3.1,1.4-7.1,0.6-13.6,1c9.1-14.8,17-27.5,25.5-41.3c4.3,10,5.8,20.1,11.7,25.8c5.9,5.7,16.1,6.9,24.4,10.2
	C424.3,528.9,415,532.7,403.8,525z M458.6,470.8c-1,15.4-19.5,28.5-19.5,28.5c-17.8,16.2-33-1.5-33-1.5l0-0.1
	c-0.1,0.1-0.2,0.2-0.3,0.2c-0.6-5.3-2.3-10.3-1.5-14.9c2.3-13.6,10.6-23.6,21.3-31.5c10-7.4,21.7-7.9,28.7-1.6
	C459.5,454.3,460.7,463.1,458.6,470.8z M470.9,471.2c-1.1-1.7-1.6-2.1-1.6-2.6c-0.9-27-16.6-38.1-43-30.7
	c-6.2,1.8-12.8,2.3-19.2,3.4c-0.3-1-0.6-2-0.9-3c2.4-1.6,4.8-3.1,7.1-4.8c17.2-12.8,30.2-27.7,26.2-51.4c-0.2-1-0.2-2.3,0.3-3.1
	c6.5-10.4,15.4-17.5,27.8-19.3c11.5-1.6,20.2,3,26.8,12.1c1.4,1.9,1.7,4.5,3,8.3c-5.5-1.5-9.2-2.7-13-3.5
	c-12.8-2.7-24,1.2-32.7,10.3c-7.7,8.2-10.1,18.5-6.4,29.7c4.7,14.2,21.8,21.7,40,17.3c3.8-0.9,7.6-2,13.5-3.6
	C493,448.1,479,457.1,470.9,471.2z M523,332.5c-0.3,0.3-0.7,0.6-1,1c-0.4,0.4-0.7,0.8-1.1,1.1c-25,23.3-32.8,8.2-32.8,8.2v0
	c0,0-0.1,0-0.1,0c-4.1-13,1-29,11.7-35.6c7.2-4.5,14.9-4.3,20.8,0.4c5.9,4.7,7.6,12.2,4.9,20.3c-0.6,1.9-1.5,3.4-2.4,4.7L523,332.5z
	 M497.7,405.7c1,11.6-15.5,16.2-15.5,16.2c-10.6,5.4-19.2-1.2-22.3-4.1c-2.8-1.2-5.1-6.6-5-13.5c0.5-7.2,3.6-13.9,11.4-17.7
	c8.4-4.1,16.6-3.4,24,2.1c5.9,4.3,7.7,10.6,7.2,17L497.7,405.7z M524.3,376c0,0-6,17.1-10.2,21.7c0.1,0.4,0.1,0.8,0.2,1.3
	c-0.1-0.4-0.3-0.7-0.4-1c-0.5,0.5-1,0.8-1.4,0.9c0,0-2.3-8.3-5-16.9c-3.4-8.6-6.7-16.9-10.1-25.5c17.9-2.9,29.2-15.3,36.2-32.9
	c2.9,19-3.6,35.6-9.4,52.3L524.3,376z M533.1,316.2c-4-10.9-11.3-17-21.9-17.6c-4.5-0.3-9.8,0.5-13.7,2.7
	c-14.5,8-17.8,23.9-10.1,49.1c-22-2.4-41.3,2.2-54.4,21.4c-2.4-1.6-4-2.5-5.5-3.6c-1.8-1.4-3.5-3.1-6-5.3
	c14.9-9.5,26.1-21.8,35.6-35.9l-0.1,0c3.7-5,6-26.3,6-26.3l0.6-0.1c0-1.4,0.1-2.9,0.5-4.4c2.2-8.5,0.4-17.9,0.4-26.9
	c0.8-0.2,1.7-0.3,2.5-0.5c1,2.2,2.2,4.3,2.8,6.5c4,14.4,9,19.4,20.6,20.7c11.2,1.2,23-4.7,28.2-15.6c2.9-6.1,4.1-13,6-19.6
	c0.5-1.7,0.7-3.4,1-5.3C534.7,260.9,540.1,302.5,533.1,316.2z"/>
<path fill="#C49A6C" d="M1101.4,261.7c0,0-36.3-118.2-158.8-95c0,0-29.3,7.8-57.1,19.9c3-6.4,4.7-13.5,4.7-21
	c0-27.1-22.1-49.2-49.2-49.2c-27.1,0-49.2,22.1-49.2,49.2c0,4.8,0.7,9.5,2,13.9c-35.4-18.7-85.6-32.5-135.2-2.1
	c0,0-112.8,61.2-51.8,213.4c0,0,69.4,169.2,241.8,288.9c0,0,171.7-152.3,212.2-229.5C1060.8,450.3,1126.1,351.4,1101.4,261.7z
	 M1053.9,246.2c2.5,4.1,2.4,12.9,0.3,19.2l0.2,0c-0.2,0.4-0.5,0.9-0.7,1.3c-0.7,1.7-1.5,3.2-2.5,4.2c-21.1,34.3-37.2,8-37.2,8
	l0.1-0.4c-0.1,0.1-0.1,0.1-0.2,0.2c-10.3-19.9-3.3-36.5,16.9-42.2C1039.7,234,1048.9,237.9,1053.9,246.2z M994.2,198.6
	c4-1.1,8.5-1.9,12.5-1.3c19,2.8,30.8,15.6,41.2,30.7c-16.4-4.1-32-1.1-47.7,1.8c-9.7,1.8-15.8-2-17.6-9.3
	C980.5,211.9,986,200.9,994.2,198.6z M927.6,251c-5.6-11.7-4.3-21.4,3.8-27.2c9.1-6.6,27.3-6.3,34.4,0.6c5.4,5.3,6.1,11.7,2.7,18.3
	c-1.5,3-3.2,5.8-5.5,7.7l0,0.1c0,0-12.6,12.7-23.4,11c3.9,4.4,9.3,5.4,15.2,5.9c9,0.8,12.2,6.7,12.3,19.9c0,4.1-0.2,6.9-1.2,8.8l0,0
	c0,0-6.4,13.8-17.2,15.9c-5.6,2-10.4,3.7-16.7,5.9c3-19.4-6.4-29.9-22.8-35.9c5.3-3.7,10.2-6.3,14.2-9.9
	C930.7,265.8,931.6,259.4,927.6,251z M882.3,320.1c-2.9-9.8-1.1-17.7,5.1-24.1c6.2-6.4,14.4-8,22.7-4.9c10.4,3.9,12.5,13.2,14,24
	C909.8,317.6,895.2,308,882.3,320.1z M920.2,333.7c-6.1,10-23.1,12.7-31.2,4.6c-2-2-4.4-5.9-3.8-7.9c0.9-2.7,4.4-5.2,7.3-6.3
	c3-1.2,6.7-0.8,10.9-1.1c3.8,0.4,8.2,0.7,12.6,1.5C922.2,325.5,923.4,328.4,920.2,333.7z M896.6,276.1c-8.3-0.4-14.6-8.7-14.3-18.8
	c0.3-9.7,8.7-18.8,17.3-18.6c10.3,0.2,18.5,9.7,18.4,21.1C917.8,270.4,909.6,276.7,896.6,276.1z M867.5,253.7
	c4.3,6.7,7.9,12.2,11.3,17.4c-6.6,3.3-13.2,6.7-21.2,10.7C857.1,270.9,861.4,262.5,867.5,253.7z M840.9,129.2
	c20.1,0,36.4,16.4,36.4,36.4s-16.3,36.4-36.4,36.4s-36.4-16.3-36.4-36.4S820.8,129.2,840.9,129.2z M808.4,240.6
	c12.6,1.7,20.8,12.4,23.3,29c4.4,0,9.7-1.6,12.2,0.4c3.5,2.7,6.2,7.9,7,12.5c2.2,11.7,3.1,23.6,5.7,35.5c0.7-5.2,1-10.5,2.2-15.6
	c1.2-5.1,2.5-10.5,5-14.9c5.9-10.3,14.6-11.7,27.2-5.1c-4.3,2.8-8.6,5.3-12.5,8.2c-11.8,9.1-15.7,25.3-10,40.4
	c5.2,13.6,17.5,22.1,31.5,20.8c13.5-1.3,23.1-9,28.6-21.2c2-4.4,4.2-6.2,9.3-6.5c21.5-1.2,38.4-16.4,42.7-37.7
	c1.7-8.5-2.3-14.9-8.1-20.5c-2.1-2-4.6-3.5-6.4-4.9c3.8-8.1,7.5-16,11.1-23.7l-0.5,0.1c4.8-13.7-16.2-22.8-16.2-22.8v-0.1
	c-25.9-7.9-41.9-1.4-49.8,20.7c-5.5,0-10.2,0.2-14.9-0.1c-1.7-0.1-4.1-0.8-4.6-1.9c-0.5-1.2,0.5-3.4,1.3-4.9
	c0.7-1.3,2.1-2.4,3.3-3.4c22.5-18.3,47.9-30.1,76.9-33.6c5-0.6,10.1-0.1,15.2-0.1c-5,8.2-9.6,15.5-14.1,22.9
	c0.2,7.7,5.6,14.9,9,18.7c7.3,1.8,15.4,3.8,23.9,5.9c-6.5,12.6-13.4,26-21,40.6c8.5,14.6,4.3,30.2-4.3,46.1
	c-9.8,18.2-26.6,24.9-44.7,29.9c-3.6,1-6.1,1.5-4.9,6.1c0.2,0.9-1.3,2.6-2.4,3.5c-7.8,6.3-15.6,12.4-23.6,18.7
	c1.3-8.1-0.5-15.8-8.3-20.7c-7.6-4.8-15.6-3.3-23.9-1.7c-0.1,0-0.3,0-0.4,0.1c-6.3,5.7-15.8,15-16.6,19.1c0,0-9.6-11.8-19.3-18.8
	c-0.5-0.1-1-0.2-1.5-0.3c-14.6-4.8-20.8-4.7-30.3,4.7c-8.2,9.2-2.3,32.9-1.6,35.8c5.8,8.8,15.1,13.9,27,16.2
	c-4.3,12.9-6.9,14.3-18.8,14.4c-6.2,0-12.4,1.8-19,2.8c1.6-10.9,3.1-21.9,4.7-32.8c-16.4-25.2-41.9-19-52.1-15.1
	c-1.5,3.5-3.2,7-5.2,10.5c-3.8,6.5-4.9,14.7-7.4,22.6c-5.7-5.3-4.4-11.7-3.1-17.3c2.2-9.3,5.4-18.3,8.6-27.3
	c5.5-15.8,7.6-31.5-0.5-47c20-4.9,39.4-9.7,60-14.8c-1.3,4.8-2.4,8.9-3.5,13.1c-3.1,11.9,0.3,21.4,10.2,27.6
	c1.9,1.2,4.8,2.3,6.5,1.7c16.4-6.2,30.4-15.2,36.1-33.2c1.8-5.6,0.8-9.9-3.7-13.5c-8.2-6.6-15.9-13.6-16.5-24.7
	c-19.9,12.6-35.1-4.7-35.1-4.7l0,0c-7.3-6.5-9.1-17-4.7-27.2C791.4,244.8,800.3,239.5,808.4,240.6z M912.9,458.1
	c-1.4-1.7-2.9-3.3-4.4-4.8c-7.6-4.4-21.6-2.9-21.6-2.9v-0.3c-0.2,0-0.5,0-0.7,0c-1.3-5.4-1.8-11.2-4.1-16.1
	c-2.4-5.1-6.6-9.4-9.5-13.5c9.6-7.3,19.5-14.7,30.3-22.8c0,2.9-0.1,5.3,0,7.8c0.4,9.3-0.3,18.7,1.5,27.7c2.2,11.6,9.3,20.9,24,19.3
	c2.7-0.3,5.6,0.3,8.1,0.5c0.2,1.5,0.6,2.2,0.4,2.5c-10,15.3-19.8,30.8-30.3,45.8c-4.9,7-10.6,6.6-20-0.2c3.1-1.9,5.9-3.6,8.7-5.3
	c9.4-5.7,17.1-13.1,19.5-24.1C915.6,467.3,915.4,461.1,912.9,458.1z M794.4,511.4L794.4,511.4c-1-0.2-1.9-0.5-2.8-0.8l-28.8-8.4
	c-1.7,0-3.5-0.5-5.7-1.2c-9.5-3.1-19.2-5.4-29.3-8.2c6.5-5.2,11.6-9.8,17.2-13.5c1.9-1.3,5.2-1.1,7.7-0.7c2.1,0.3,4,1.8,7.2,3.4
	c-0.7-3.4-1.3-5.4-1.5-7.4c-1-7.6,3.2-14.9,9.8-17.4c7.7-2.8,10.2-1.3,10.4,6.9c0.4,16.5,8.9,27.9,22.3,36.3c3.3,2,6.5,4.1,10.1,6.3
	C805.1,510.8,799.3,512.3,794.4,511.4L794.4,511.4z M787.2,419.2c0.8,8.9-11.2,15.3-11.2,15.3c-6.4,1.8-14.8-1.6-17.5-2.9
	c-2.5-0.1-4.4-2-6.4-4.4c-6.5-7.7-6.8-18.5-1.2-26.6c4.5-6.5,13.6-9.3,21.3-6.7c9.3,3.2,15.4,12.1,15.1,22.2
	C787.3,417.3,787.2,418.3,787.2,419.2L787.2,419.2z M867.2,411.6c-8.8,1-16.7,1.9-26.3,3c4.7-9,8.9-17,13.7-26.3
	C859.2,396.8,863,403.8,867.2,411.6z M865.7,384.7c1.9-11.1,8.1-17.2,17.5-17.3c9.4-0.2,15.8,6.9,14.9,16.6
	c-1,10.6-7.9,17.1-16.4,22.2c-1.1,0.7-3.1,0.6-4.5,0.1C869.8,403.7,864.2,393.1,865.7,384.7z M831.5,405.6
	c-10.3,0.4-21.9-13-21.9-25.4c0-6.8,4.5-11.6,11.2-12c11.5-0.6,24.9,11.1,25.2,22.1C846.2,397.8,839.1,405.3,831.5,405.6z
	 M797.4,448.2c9.5-8.5,23-5.6,28.3,6c5,11.1,10.4,22,15.3,33.1c0.5,1,0.7,2.7,0.7,4.1l0.2,0.1c0,0.3-0.1,0.7-0.2,1
	c-0.1,0.5-0.2,0.8-0.5,0.9c-0.1,0-0.1,0.1-0.2,0.1c-3.5,4.1-15.9,7-15.9,7c-13.1,1.7-26.3-15.2-28.8-18.5c-0.1,0.1-0.1,0.2-0.2,0.2
	C787.2,471,788,456.6,797.4,448.2z M852.3,499.7c-0.3,14.3-5.7,25.5-13.6,35.6c-1,1.3-4.7,1.1-7,0.7c-7.5-1.2-15-2.5-22.2-4.5
	c-4.1-1.1-7.7-3.8-11.3-7.6C819.1,521.1,835.4,510.3,852.3,499.7z M836.4,436.5c1.7-10.3,9-15.3,19.5-14.6
	c10.5,0.6,16.5,6.4,17.5,17c0.2,2.6,0.2,5.3-0.1,7.9c-0.3,3.1-0.6,5.2-1.1,6.6c-1.8,6.5-9.6,32.9-14.7,34.7c0,0-2.4,0.4-3.9-0.8
	c-0.2,0.1-0.3,0.2-0.5,0.3C846.3,471.1,833.1,456.6,836.4,436.5z M914.1,431.7c0,0.1-0.1,0.1-0.1,0.2c-6.5-11.4-5.6-21.7-1.3-31.7
	c4.7-11.1,12.8-19.4,23.6-24.9c7-3.6,14.2-5.1,21,0.2c6.6,5.2,7.4,12.7,6.1,20.3c-0.7,3.8-2.6,7.4-3.9,10.9c0,0,0,0-0.1,0
	C958.9,407.5,935.1,448.6,914.1,431.7z M670.7,394.9c4.1-7.4,14.6-10.9,24.6-7.7c15,4.7,23.2,16,28.1,30.2c1.4,4,0.2,6.3-2.7,6.8v0
	c-25.5,9.5-44.2-1.4-44.2-1.4l0-0.1C668.5,415.4,666.1,403.1,670.7,394.9z M702.8,364.6c-1.4-0.3-2.7-1.2-3.8-2.7
	c-3.2-4.6-5.9-11-5.4-16.2c1-10.3,13.3-17.6,24.6-16.3c10.8,1.3,18.3,10.1,17.5,21.6c-0.4,6.2-2.2,12.3-3.5,19.5
	c0-0.1-0.1-0.1-0.1-0.2l-2.2,11.5L702.8,364.6z M780.7,306.1c-15-4.2-30.3-7.7-44.8-13.4c-13.2-5.1-19-17.2-21.5-30.6
	c-0.5-2.9,1-6.1,1.9-11.2c18.4,19.7,40.7,26.8,61.4,36.7c3.6,1.7,7.4,3.2,10.6,5.5c5.8,4.2,5.2,9.3-1.4,12
	C785,306,782.5,306.6,780.7,306.1z M826.7,301.5c-5.1,0.9-10.2,2-15.3,2.6c-2.7,0.3-5.5-0.3-8.2-0.6c0.3-2.5-0.3-5.6,1-7.3
	c1.7-2.1,5.3-4.7,7.3-4.2c5.5,1.3,10.7,4.2,16.1,6.4C827.3,299.5,827,300.5,826.7,301.5z M839.3,315.2c4,5.6,1.8,12.2-3.2,16.5
	c-5.5,4.8-11.7,9.2-18.2,12.5c-6.5,3.3-11.1,0.6-13.4-6.4c-4.6-13.5,6.9-29.9,22.2-31.7C831,309.1,836.4,311.2,839.3,315.2z
	 M776.8,263.8v1.5c0,2,0.2,4.1,0.5,6.2c-0.2-0.1-0.3-0.3-0.5-0.4v3.3c-15,1.4-41.5-24-46.2-28.6c-0.2-0.1-0.5-0.3-0.6-0.5
	c-7-6.9-7.8-19.2-2.1-26.2c6.6-8.1,15.9-9,25.4-2.8c11.9,7.8,23.9,15.4,36.7,23.6C781,245.4,777,253.7,776.8,263.8z M687,196.5
	c22.7-10,45.3-10.9,69.4,2.8c-9.5,1.8-17.4,1.9-24,4.9c-5.2,2.4-9.7,6.5-13.9,10.1c-1.6,2.5-16.9,28.3-11,56.4
	c10.5,30.5,14.9,29.7,47.5,44.3c0,0.9,0,1.8,0,2.7c-7.2,0.2-14.5,0.6-21.7,0.6c-3.8,0-7.6-0.1-11-0.9c-2.6,0.4-33,5.9-40.8,34
	c0,0-8.3-6.2-9.7-10.2l0-0.2c-2.5-4.3-4.3-9.8-4.5-14.7c-0.5-15.1,4.8-28,14.6-39.3c4.7-5.4,9.5-10.8,14.2-16.1l0,0
	c0,0,16-23.4-7.2-32.7c0,0-11.8-4.2-27.2,4.3c-2.9,2.7-5.7,5.7-8.3,9.1c-3.4,4.5-13.3,3.9-20.9,4.6C642.2,228,660.4,208.3,687,196.5
	z M669.3,252.8c1.6-3.2,5.8-5,10.6-8.7c5.3,4.9,11.4,8.3,13.5,13.3c1.5,3.5-1.5,9.8-4.2,13.9c-2.7,4.1-6.5,3.3-9.3-1.3
	c-1.8-3.1-4.7-5.5-6.6-8.5C671.4,258.7,668.3,254.6,669.3,252.8z M630.4,276.8c1.2-10.3,7.7-15.2,18.2-14.4
	c10.2,0.8,16.3,7,15.2,17.3c-0.8,7.5-3.5,14.7-5.1,20.8c-0.1,0-0.1-0.1-0.2-0.1c-0.7,2.5-4.1,14.9-4.1,19.2
	c0.6,4.1,1.1,7.9,1.8,11.8c0.9,4.6,2.3,9.1,2.7,14.2c-7.4-5-14.4-10.6-17.3-19.2c-4.2-12.4-7.6-25.1-10.8-37.8
	C629.7,284.9,629.9,280.7,630.4,276.8z M658.5,417.1h-0.2c0.1,0,0.1,0.1,0.2,0.2c-0.4,0.6-0.8,1.1-1.3,1.7c-2-1.9-4.7-3.5-5.8-5.8
	c-6.2-13.2-13-26.2-17.6-40c-4.8-14.5-7.5-29.8-10.8-44.8c-0.7-3.4-0.1-7,1.4-11.2c15.3,21.5,26.4,45.9,51.3,59.2
	c-5.8,4.9-10.1,8.5-15.1,12.7C660.1,391.1,655.4,410.9,658.5,417.1z M690.2,464.6c-0.5,1.2-1,2.4-1.6,3.6
	c-7.7-10.7-15.2-21-23.5-32.6c1.6,0.3,3.3,0.6,4.8,1c11,2.2,20.4,4,29.8,5.9C696.7,449.4,693.7,456.3,690.2,464.6z M711.7,478.8
	c-13-9.4-9.4-29.8,4.2-36.8c7-3.6,15.9-2.6,20.8,2.3c6.7,6.6,8.4,16.5,4.5,24.1c-0.3,0.5-0.6,1-0.8,1.4l0.2,0
	C729.3,488.5,713,479.5,711.7,478.8C711.7,478.8,711.7,478.8,711.7,478.8z M748.6,536.9c-0.9,0-1.8,0-2.7-0.1
	c-9.4-11-18.8-22.1-28.2-33.1c0.6-0.9,1.1-1.8,1.7-2.6c16.5,3.3,32.9,6.5,51.4,10.2C762,520.1,747,521.1,748.6,536.9z M791.1,544.4
	c-0.3,0.4-0.7,0.8-1.1,1.1c-6.8,7.9-9.6,27.3-9.6,27.3L765.6,557l0-0.2c-1.7-1.6-2.6-2.4-3.4-3.2c-9.4-9.1-11.2-16.6-5.7-24.3
	c6-8.4,18-11,27.9-6.2c10.2,5,13.2,12.8,7.8,20.1l0.5,0.1C792.1,543.6,791.6,544,791.1,544.4z M812.5,595.1c0,0-10.5-0.3-14.4-7.3
	c0,0.1,0,0.1,0,0.2c-9.9-13.1-5.4-37.5,7.6-44.9c6.9-3.9,15.9-3.4,21.6,1.4c6.6,5.5,9.1,14.3,6.7,22.2c-0.2,0.6-0.4,1.1-0.6,1.6l0,0
	C833.4,568.4,823.1,596,812.5,595.1z M867.5,613.9c-0.5,0.3-1,0.5-1.4,0.8c-6,4.4-21,19.4-21,19.4l-15.3-14.9V619
	c-5.2-3.1-9.9-7.4-15.1-11.4c1.3-1.6,1.7-2.6,2.5-3.1c17.7-9.5,25.6-25.2,26.6-44.3c0.8-14.5,5.5-27.4,11.8-40.1
	c8.5-17.1,16.7-34.4,25.1-51.6c1.3-2.6,2.7-5.3,4.8-7.1c6.5-5.5,16-4.9,19.9,0.9c4.2,6,1.7,14.8-6.1,19.8
	c-8.2,5.3-16.8,9.9-25.2,14.9c-1.6,0.9-2.9,2.2-7,5.4c7.6,3.9,13.5,6.9,19.3,10c0.8,0.4,1.6,0.8,2.3,1.3c1.5,0.9,3.1,1.8,4.6,2.7
	c0.8,0.4,1.5,0.9,2.3,1.3v0c0,0,0,0,0,0c-1.7,1.6-3.4,3.4-5.1,5c-1,1-2.1,1.9-3.3,2.7c-5.1,3.4-10.5,6.2-15.8,9.2
	c-19.2,11-29,36.6-21,57.3c2.1,5.4,7.1,9.6,10.9,14.3c2,2.6,4.1,5.1,6.1,7.7l0,0C867.4,613.8,867.4,613.8,867.5,613.9
	C867.4,613.8,867.4,613.9,867.5,613.9L867.5,613.9L867.5,613.9z M904.1,568.5c-0.3,0-0.6,0-0.9-0.1c-2.1,19.7-23.3,33.4-23.3,33.4
	c-9.7,3.5-19.2-9.1-19.9-10c0,0.1-0.1,0.2-0.1,0.4c-7-11.2-5.6-21.8,0.1-31.9c7.5-13.1,19.3-21.7,32.8-27.9
	c7.6-3.5,12.8-0.2,12.9,8.1C905.9,549.8,904.7,559.1,904.1,568.5z M912.6,570.5c0.8-10.1,1.5-18.3,2.4-28.3c5.1,5.5,9.1,9.8,14,15
	C923.9,561.3,919.1,565.2,912.6,570.5z M934,549.5c-1.1,0.7-4.6-0.9-6.2-2.3c-4-3.8-7.5-8.1-11.9-12.9c4.2-5.4,18-4.5,31.8,3.6
	C943,542,938.8,546.2,934,549.5z M940.2,525c-7.2-4.9-13.9-7.8-22.6-3.9c-3.1,1.4-7.1,0.6-13.6,1c9.1-14.8,17-27.5,25.5-41.3
	c4.3,10,5.8,20.1,11.7,25.8c5.9,5.7,16.1,6.9,24.4,10.2C960.7,528.9,951.4,532.7,940.2,525z M995.1,470.8
	c-1,15.4-19.5,28.5-19.5,28.5c-17.8,16.2-33-1.5-33-1.5l0-0.1c-0.1,0.1-0.2,0.2-0.3,0.2c-0.6-5.3-2.3-10.3-1.5-14.9
	c2.3-13.6,10.6-23.6,21.3-31.5c10-7.4,21.7-7.9,28.7-1.6C995.9,454.3,997.2,463.1,995.1,470.8z M1007.4,471.2
	c-1.1-1.7-1.6-2.1-1.6-2.6c-0.9-27-16.6-38.1-43-30.7c-6.2,1.8-12.8,2.3-19.2,3.4c-0.3-1-0.6-2-0.9-3c2.4-1.6,4.8-3.1,7.1-4.8
	c17.2-12.8,30.2-27.7,26.2-51.4c-0.2-1-0.2-2.3,0.3-3.1c6.5-10.4,15.4-17.5,27.8-19.3c11.5-1.6,20.2,3,26.8,12.1
	c1.4,1.9,1.7,4.5,3,8.3c-5.5-1.5-9.2-2.7-13-3.5c-12.8-2.7-24,1.2-32.7,10.3c-7.7,8.2-10.1,18.5-6.4,29.7
	c4.7,14.2,21.8,21.7,40,17.3c3.8-0.9,7.6-2,13.5-3.6C1029.4,448.1,1015.5,457.1,1007.4,471.2z M1059.4,332.5c-0.3,0.3-0.7,0.6-1,1
	c-0.4,0.4-0.7,0.8-1.1,1.1c-25,23.3-32.8,8.2-32.8,8.2v0c0,0-0.1,0-0.1,0c-4.1-13,1-29,11.7-35.6c7.2-4.5,14.9-4.3,20.8,0.4
	c5.9,4.7,7.6,12.2,4.9,20.3c-0.6,1.9-1.5,3.4-2.4,4.7L1059.4,332.5z M1034.1,405.7c1,11.6-15.5,16.2-15.5,16.2
	c-10.6,5.4-19.2-1.2-22.3-4.1c-2.8-1.2-5.1-6.6-5-13.5c0.5-7.2,3.6-13.9,11.4-17.7c8.4-4.1,16.6-3.4,24,2.1c5.9,4.3,7.7,10.6,7.2,17
	L1034.1,405.7z M1060.8,376c0,0-6,17.1-10.2,21.7c0.1,0.4,0.1,0.8,0.2,1.3c-0.1-0.4-0.3-0.7-0.4-1c-0.5,0.5-1,0.8-1.4,0.9
	c0,0-2.3-8.3-5-16.9c-3.4-8.6-6.7-16.9-10.1-25.5c17.9-2.9,29.2-15.3,36.2-32.9c2.9,19-3.6,35.6-9.4,52.3L1060.8,376z M1069.6,316.2
	c-4-10.9-11.3-17-21.9-17.6c-4.5-0.3-9.8,0.5-13.7,2.7c-14.5,8-17.8,23.9-10.1,49.1c-22-2.4-41.3,2.2-54.4,21.4
	c-2.4-1.6-4-2.5-5.5-3.6c-1.8-1.4-3.5-3.1-6-5.3c14.9-9.5,26.1-21.8,35.6-35.9l-0.1,0c3.7-5,6-26.3,6-26.3l0.6-0.1
	c0-1.4,0.1-2.9,0.5-4.4c2.2-8.5,0.4-17.9,0.4-26.9c0.8-0.2,1.7-0.3,2.5-0.5c1,2.2,2.2,4.3,2.8,6.5c4,14.4,9,19.4,20.6,20.7
	c11.2,1.2,23-4.7,28.2-15.6c2.9-6.1,4.1-13,6-19.6c0.5-1.7,0.7-3.4,1-5.3C1071.1,260.9,1076.5,302.5,1069.6,316.2z"/>
</svg>
