<?xml version="1.0" encoding="utf-8"?>
<!-- Generator: Adobe Illustrator 27.3.1, SVG Export Plug-In . SVG Version: 6.00 Build 0)  -->
<svg version="1.1" id="Layer_1" xmlns="http://www.w3.org/2000/svg" xmlns:xlink="http://www.w3.org/1999/xlink" x="0px" y="0px"
	 viewBox="0 0 1200 800" enable-background="new 0 0 1200 800" xml:space="preserve">
<path fill="#C49A6C" d="M967.5,138.8c-1.6-1.4-3.3-2.8-5-4.2c-70.6-57.8-174.6-56.8-254.7-20c0.2-2.3,0.3-4.5,0.3-6.8
	c0-50.8-41.3-92.2-92.2-92.2c-45.9,0-84.1,33.8-91.1,77.8C197.6-123.1-92.9,296,532.2,784.5c46.9-30,97.8-54,146.1-81.7
	c111.7-64.2,229.6-138.9,304.7-246.2C1050.5,360.1,1062.5,221.6,967.5,138.8z M707.1,512.2c-27.2-22.2,19.1-37.7-3.2-89.3
	c28.5,4.7,57.6,4.7,83.4-10.3c0.1,0.6,0.2,1.2,0.3,1.7c-4.3,16.4-1.3,34.4,1.6,50.7c3,16.3,7.6,32.3,13.6,47.7
	c0.1,0.5,0.1,0.9,0.2,1.4c-28.2-14.9-91.4,15.4-91.4,16.3C712.9,523.1,708.9,515.3,707.1,512.2z M689.6,486.9
	c-18.3,9.3-76.3,15.1-76.7,13.7c-2-11.3-14-17.6-20.1-26.9c2.3-25.4,30.8-47,42.9-70.2c10.8-13.4,27.3,7.6,39.7,10.5
	C703.6,428.2,708.2,462.4,689.6,486.9z M697.5,540c-8.8,10.5-33.8,4.9-46.7,8.4c0-0.5-0.1-1.1-0.1-1.6c-11.1-2.4-34.8,7.4-35.6-9.7
	c-0.2-24.1-0.5-24.2,22.7-28.7c13.1-2.9,30.6-7.4,43.8-4.7c0,0.8,0.2,1.6,1,2.4C691.8,515.1,697.1,527.3,697.5,540z M607.2,529.8
	c-0.2,2.8-0.5,5.7-1.1,8.5c0.2-2.8,0.3-5.7,0.3-8.5c0.1,0,0.2,0,0.3,0C606.8,529.8,607,529.8,607.2,529.8z M603.9,507.8
	c-0.2,0.1-0.4,0.2-0.5,0.3c-0.4-1.3-0.8-2.6-1.2-3.9c-0.4-1.1-0.8-2.3-1.3-3.4C602.1,503,603.1,505.4,603.9,507.8z M384,468.9
	c23.9-31.7,185.8,63.4,8.2,47.6C398.6,498.6,396.1,482.7,384,468.9z M357.2,414.2c-0.7-0.6-1.4-1.2-2.1-1.8
	c-10.1,15.7-25.7,26.3-40.8,36.3c-2.4-5.3-6.3-10.9-4.7-17.2c0.3,0.1,0.5,0.3,0.8,0.4C297.2,379.1,397.9,340.8,357.2,414.2z
	 M721.1,357.3c-16.8,3.5-30.9,6.5-45.3,9.5v-51.6C691.1,329.4,705,342.3,721.1,357.3z M686.9,311.2c2.3-41.8,79-20.6,31.6,25.6
	C711.3,340.3,689.1,320.4,686.9,311.2z M678.6,305.1c-0.9,0.8-1.8,1.6-2.8,2.6c-6.5-8.5-8.9-16-8.2-26.4
	C689.1,279.8,692,289.8,678.6,305.1z M783.4,386.1c4.1,2.5,6.9,7,10.4,10.6c-42.1,30.6-101.6,22.7-141.2-6.6
	C692.6,360.1,741.3,360,783.4,386.1z M660,371.2c-21.2,3.1-48.6,39.2-48.6,39.2c-25.3-22.4-34-78.9-35.1-87.5
	c-0.2,0-0.4,0.1-0.6,0.1c-6.5-23.1-16.8-46.5-42.4-64.6c21.6-12.1,40.1-6.9,60.5-4.9c0.9,1.8,1.8,3.5,3,5.2c1.4,2.1,4.3,2.2,5.8,0
	c1-1.5,1.9-3,2.8-4.5c1.6,0,3.1,0,4.7-0.1C666.9,243.7,670.9,336.6,660,371.2z M535.1,413.8c19.9-4.5,40-7.5,60.1-1.8
	c5,1.4,9.4,4.9,15.2,8c-30.4,48.8-26.9,44.4-80.6,34.2C531.6,442.9,524.5,422.5,535.1,413.8z M485.6,357
	c25.7-13.2,54-24.2,66.4-53.9c5.6,15.6,8.9,31.9,12.4,48.1c1.9,8.6,3.8,17.1,6.3,25.5c2.1,7.2,4.3,14.6,9.4,20.2
	c-0.5,3.5-1.8,5-4.5,3.7l-50.5,5C522.7,386,498.9,374.1,485.6,357z M518.9,443.6c-1,4.1-1.8,8.5-6.4,8L483.5,494
	c-18.7-18.8-44.1-35.3-71-40.4c10.4-11.2,20.3-20.2,28.1-30.7c13.8-10.7,27.9-60.3,45.2-53C507.7,381.8,524.7,419.6,518.9,443.6z
	 M535.6,287.4c2.3,11.6-1.5,23.5-7.9,33.2c-13.1,11.5-37.3,24.2-37.9,24.8c-2.9-8.2-7.7-14.3-13.5-18.9c6.9-3.7-0.8-6.3-4-8.4
	c-18.8-10.9-50,7.5-58.8-19.5c-16.7-37.8,45.6-70.8,76.1-54.8c4.5,7,8.5,14.3,11.9,21.9c0.7,1.7,3.1,2,4.6,1.2
	c4.2-2.4,9.2-3.4,14-2.5C528.2,269.4,533.7,277.8,535.6,287.4z M413.5,258.1c0-15.8,0.7-27.2-0.2-38.4
	c-26.8-69.5,76.5-24.6,82.1,13.8C465.9,231,438.1,235,413.5,258.1z M456,323.7c35.1,21-2.1,60.4-17.2,82
	c-15.2-27.6-48.3-30.2-74.3-43.5c18.3-14.8,24.2-37.5,40.4-52.2C415.7,330,437,327.6,456,323.7z M401.7,265.4c0,0.4,0.1,0.8,0.3,1.1
	c-3.5,63.8-44.7,82.8-44.7,82.8c-17.8-17.8-24.5-25.6-28.4-35.8c-2.4-9.7-4.4-19.5-5.9-29.4c-0.1-0.8-0.7-1.4-1.3-1.8
	c-0.6-2.8-1.2-5.8-1.9-9.1c-0.5,0.4-1,0.7-1.3,1c-1.8-6.6-4.2-13-7.1-19.3c-11.2-27.7-4.4-52.7,12.4-67.1c0.6,0,1.2,0,1.8-0.3
	c9.1-4.5,19-7.2,29-7.9c9.4-0.6,20.4-0.2,28.8,4.6c15.1,8.6,18.8,28,18.8,43.9C402.3,240.4,400.8,252.9,401.7,265.4z M324.4,452.9
	c54.6-40.1,48-64.9,49.8-74c0.2,0.1,0.5,0.2,0.8,0.2c11.4,1.9,22.8,5.1,32.3,11.9c10,7.2,15.6,18.4,19.8,29.7
	c0.3,0.8,0.9,1.4,1.5,1.8c-27.2,30.1-68.9,48.6-108.8,36.9C321.4,457.1,322.9,455,324.4,452.9z M466.2,535.5
	c20.2-60.6,113,0.6,116.2,44.8C557.7,592.8,450.7,579,466.2,535.5z M550.8,518.8c-17.2-10.2-37.7-14.7-57.8-22.1
	c8.9-15.2,20.9-24.2,33.6-28.2c17.7,4.7,38.4,2.5,53.4,14.6c14.5,11.6,19.9,30.7,19.7,48.6c-0.1,8.7-1.4,17.3-3.3,25.8
	C581.1,543.8,567.5,528.7,550.8,518.8z M792.1,381.4c-20-18-43.2-18.6-67.8-24.6c10.1-11.6,13.7-57.9,29.8-52
	c22.6,8.4,48.3,46.6,47.1,70.3C801,381.7,798.4,386.5,792.1,381.4z M761.1,300.5c-59.8-6.8,6-51.9,31.2-38.9
	c18.7,17.3,30.9,65.7,14.5,87.8C797.8,325.7,783.7,308.9,761.1,300.5z M888.8,273.2c-0.6,1.8-1.4,3.6-2.6,5.1
	c-19.5,9.2-39.2,17.9-58.9,26.7c-4-15.2-36.1-44.6-20.5-58.4c15.6-2.4,75.1-26.6,83.6-8.6C886.4,249.2,885.8,261.6,888.8,273.2z
	 M822.3,336c24.1,28.9,52.6,32.9,84.2,25.4c-13.3,32-61,32.2-91.2,30C801.7,384.1,821.1,353.5,822.3,336z M879.7,353.3
	c-74.5-1-49.1-56.2,5.9-64.9c4.7-1.1,7.8-0.3,10.2,1.4c0,0,0,0,0,0c3,5.4,6,10.9,5.7,17.2c-0.1,1.9,1.6,3.2,3.3,3.3
	c7.2,0.6,16.7,1.4,21.4,7.6c3,3.9,2.9,9.3,3.6,13.9c0,0.1,0.1,0.3,0.1,0.4C922.5,345.1,896.2,355.4,879.7,353.3z M897.8,259.4
	c-0.2-24.7,7.8-30.7,29.9-20.5c14.2,5.5,79.2,54.6,52.5,65.5C948.1,309.7,895.2,301,897.8,259.4z M722.1,158.4
	c97.8-45.8,266.5-13.5,264,116.8c-54.5-77.2-145.3-51.5-192.8-31.9c-32,4-42.3-18-60.2-34.8C724.9,193.2,690.1,166.1,722.1,158.4z
	 M768.1,252.8c-58.2,41.5-44.8,26.5-104.2,18c-9.7-16.9-30-21.8-48-31.2c2.3-3.5,4.2-8.1,7.5-11
	C737.2,125.9,670.8,188.7,768.1,252.8z M615.8,57.8c27.5,0,50,22.4,50,50c0,27.6-22.4,50-50,50c-5,0-9.9-0.8-14.5-2.2
	c-10.5-10.2-21.1-19.8-31.7-28.7c-2.5-5.9-3.8-12.4-3.8-19.2C565.8,80.2,588.3,57.8,615.8,57.8z M580.2,221.5
	c3.2,6.1,6,12.4,8.3,18.8c-8.7,4.2-35.5-2.9-66.4,9.6c-18.1,2-19.5-30-29.9-41.6c-4.1-7.1-4.4-12.5,5.7-13
	c18.6,1,44.3-13.1,61.9-6.7C567,199.2,574.2,210,580.2,221.5z M226.9,155.5c76-112,254.2-77.2,326,23.2
	c-76.3,24.7-149.9-30.2-226.7-2C305.2,184,184.1,200.7,226.9,155.5z M210.6,187.2c0.6,0.1,1.2,0.2,1.9,0.3c0,1.3,0.7,2.6,2.3,3.1
	c17,4.8,34.5,4.8,52,3.5c23.5,5.9,33.4-1.1,36.7,4.1c-0.4,0.3-0.7,0.8-0.9,1.3c-5,13.5-6.6,28-4.8,42.2c-4.1,1.2-10.3,1.2-17.5,0.8
	c-1-0.2-2.1-0.3-3.1-0.4c-9.2-2.3-19.7-2.8-31.3-1.6c6.4,0.1,13,0.5,19.4,1c-2.2,0-4.5,0.1-6.7,0.2c-3.3-0.3-6.7-0.6-10-0.8
	c-1.5-0.1-3-0.1-4.5-0.2c0.6-0.1,1.2-0.2,1.8-0.2c-3.6,0-7,0.1-10.4,0.3c-9.9,0.4-19.7,2-29,5.1
	C189.2,237.5,207.4,201.6,210.6,187.2z M207.5,349.3l-0.5-2c0.7,0.4,1.5,0.6,2.3,0.5C208.6,348.3,208,348.8,207.5,349.3z M200,261.8
	c18.9-6.3,38.8-12.3,58.6-13.4c6.2,0.6,12.3,1.5,18.5,2.5c4.5,0.7,9.1,1.3,13.6,2.3c1,0.2,2,0.5,3,0.8c12.6,11.8,21.1,27.8,23.3,45
	c0.2,6,0.1,12.6-0.6,19.7c-33.3-15.5-70.9,0.5-98.7,22.1C209.6,315,203.7,288.5,200,261.8z M241.4,391.5
	c-3.6-12.9-18.7-29.2-17.3-42.8c16.3-11.7,34.2-22.5,54.4-24.3c19.5-1.7,39.3,4.4,54.8,16.2c8.1,6.1,14.9,13.9,19.9,22.8
	c-9.2,8.2-24.7,12.1-35.1,19.2C301.7,385.9,249.2,410.1,241.4,391.5z M270,431.6c-8.7-9.7,1.3-24.8,14.2-31.5
	c11.7-6.9,17.4-5.1,19.8,0.6c-0.4,0.4-0.7,0.8-0.9,1.4c-2.5,7.5-3.9,15.5-3.8,23.5c0,4.4,0.9,8.7,1.5,13.1
	C294.1,445.9,278.9,442.4,270,431.6z M293.7,467.4c-5.8-3.5-9.4-10.6-14-16.2C288.4,438.5,329.6,468,293.7,467.4z M350.6,537.3
	c-5.4-10.7-48.7-44.1-48-59.2c0.1-0.1,0.1-0.1,0.2-0.2c0.1-0.1,0.3-0.2,0.4-0.3c0.4-0.3,0.8-0.5,1.2-0.8c0.8-0.5,1.6-0.9,2.4-1.3
	c0.4-0.2,0.8-0.4,1.2-0.6c0.5,0.2,1.1,0.2,1.7,0c7.6-2.8,14.6,3,20.3,7.8c1,0.9,2.3,1.3,3.6,0.7c1.2-0.5,2.1-1.7,2-3
	c-0.1-1.9,0-3.7,0.4-5.5c1.7-0.2,3.3-0.6,4.8-1.4c18.3-13.6,44.6,0.1,45,23C382.8,511.6,371.5,544.3,350.6,537.3z M393.7,583.1
	c-65.5-49.6,15.8-62.8,59.4-55.8c2.2,13.9,4.2,26.8,6,37.9C438.8,569.2,414.8,588.2,393.7,583.1z M463.1,646.5
	c-7.2-12.9-69.8-44.6-47.1-56.7c22.2-10.3,44.8-16.5,69.3-7c26.7,13.7,57.8,9.1,84.7,16.3c-23.3,28.1-57.2,48-84.2,67.7L463.1,646.5
	z M635,667.6c-15.8,6.6-31.6,13.2-47.7,19l1.3,0.3c-39,17-57.7,18.3-92.6-9.9c57.3-42.9,67.7-69.8,85.6-68.1c0,0,0,0,0,0
	c15.4,23.3,40.2,36.8,61.2,54.3C640.1,665,637.7,666.5,635,667.6z M648.7,659.5c-1.6-1.3-3.2-2.6-4.9-3.9c0.1-0.2,0.1-0.5,0.1-0.8
	c1.7,1.5,3.4,3,5.1,4.5C648.9,659.3,648.8,659.4,648.7,659.5z M691.7,636.2c-46.5,19.7-20.9,17.6-73.3-14.8l0.5-0.5
	c-28.9-24-38.8-19.8-13.9-54.2c13.3-19.3,44.2-5.5,64.5-8.6c2.3,1.1,4.5,2.4,6.7,3.8c10.9,22.4,25.3,43,42.6,61
	C709.3,627.7,700.5,632,691.7,636.2z M690.9,575.2c9,10.5,16.5,23.2,25,34.6C706.5,599.1,698.1,587.5,690.9,575.2z M817.8,556.2
	c-19.7,16-70.4,49.4-87.2,54.2c-10.4-20.1-34.4-28.9-41.1-53.4c38.3-18.6,96.2-61.4,130.6-15.3C823.4,547.4,823.2,552.3,817.8,556.2
	z M850.5,526.6c-6.6,5.7-14.5,20-22.9,8.9c-11.9-12.8-9.9-20.4,7.4-25.1C845.8,505.8,864.1,513.1,850.5,526.6z M850.8,500.4
	c-16.2-1.3-34.8,4.1-34.8,4.1c-9.3-29.6-20.3-65-13.8-96c3.1-15,23.3-6,33.8-6.2c15,3.1,19.2,20,25.9,31.7
	c-6.8,30.5-17.8,35.9,3.2,67.2C857.8,502.8,853.4,502.7,850.8,500.4z M882.4,493.5c-12.3,3.3-14.4-16.4-20.2-23.9
	c-1.5-36.7,60.1-43.1,60.4-21.9C909.6,463.4,896.2,478.6,882.4,493.5z M948.2,404.2c-2,5.8-5,11.2-8.4,16.4
	c-3.3,3.6-7.6,5.8-14.4,5.5c-26.5-3.4-57.6,14.6-68.2-22.6c48-6.5,65.1-51.8,76-57.3c0.2,0.6,0.4,1.2,0.6,1.9
	c3.4,9.7,9,18.2,13.1,27.5C950.9,384.9,951.5,394.5,948.2,404.2z M964.8,373.5c-14.1-18.6-22.6-36.3-22.4-58
	C1008.2,305.4,986.5,327.8,964.8,373.5z"/>
</svg>
