<?xml version="1.0" encoding="utf-8"?>
<!-- Generator: Adobe Illustrator 27.3.1, SVG Export Plug-In . SVG Version: 6.00 Build 0)  -->
<svg version="1.1" id="Layer_1" xmlns="http://www.w3.org/2000/svg" xmlns:xlink="http://www.w3.org/1999/xlink" x="0px" y="0px"
	 viewBox="0 0 1200 800" enable-background="new 0 0 1200 800" xml:space="preserve">
<path fill="#C98458" d="M951,286.6c-5.4-40.4-17.3-79.9-36.1-115.7c-15.6-29.6-35.8-56.6-60.9-79.5c-46.2-42.1-107.5-68.1-170-68.7
	C625,22.1,549,46.5,514.9,98c-5.5,8.2-9.1,30.3-17.1,35.7c-15.1,10-48.5-15.1-64-19.4c-5.3-1.5-10.7-2.7-16.1-3.8
	c8.8-6.3,14.6-16.6,14.6-28.2c0-19.1-15.5-34.6-34.6-34.6c-19.1,0-34.6,15.5-34.6,34.6c0,9.5,3.8,18,10,24.3c-3.1,0-6.2,0.2-9.3,0.3
	c-88.5,5.1-173.6,67.4-203.3,151.5C89.7,502.4,368.4,686,575,745.7c73.7,19.7,155.8,39.1,228.3,28.9c5.8-0.8,20.5-33.7,23.8-39.4
	c41.5-71.7,76.8-147.6,101.5-226.7C950.9,437.3,960.8,360.9,951,286.6z M626.8,61.8c5.4,11.2,4.7,24.4,9.3,35.7
	c-1.2,18.7,27.6,55.8,0.9,60.9c-84.9,49.1-7.2,48.8-101.5-16.1C552.1,106.4,586.6,67.8,626.8,61.8z M645.7,464.4
	c21.9,15.8,25,50.2,30.3,75.3c29.1,104.3-13,96.3-11,0.5C672.4,512.8,647.6,485.3,645.7,464.4z M657.3,443.6
	c-9.9-18.9-27.1-35.1-40.7-49c-28.5-23.3-93-46.1-8.9-42.3c70.6-13.7,97.6,15.4,78.6,85.2C676.4,466.9,674.6,470.8,657.3,443.6z
	 M589.6,320.1c-14.6,6.5-17.7,19.9-24.4,32.4c-25.2,18.4-9.4-26.7-2.3-36.8l0,0.1c22.5-43.7,153.8-76.1,97.2,4.6
	C641.7,334.2,613.6,302.9,589.6,320.1z M654.4,238.8c-3.7,4.7,5.4,16.9-2.1,20.5c-18.8,0.2-37.1,10.5-54.7,12.2
	c9.2-25,1.5-50.7,6.1-75.9c26.3-21.9,49.7-52.5,58.4-1.5C658.3,209.4,650.4,222.8,654.4,238.8z M397.8,62.1c11.1,0,20.1,9,20.1,20.1
	s-9,20.1-20.1,20.1s-20.1-9-20.1-20.1S386.7,62.1,397.8,62.1z M517.3,185.5c9.4-14.7,4.7-47,30.9-21.1c28.9,14.5,61,80.4,35,95
	c-1.9-17.6-18.7-29-34.9-27.6c-18.6,5.7-17.4,24.4,1.9,27.2c11.5-5.1,21.1-1.7,26.4,10.1c8.8,14.6-14.4,26.1-21.8,37.4
	c-13.9-1.1-14.1-31.7-27.7-40.8c-26.9-23.5-67.3-27.2-102.1-30.3c44.9,19.6,65.9,61.4,92.7,99.1c3.2,6.3,33.8,17.1,17.5,19.6
	c-19.9-1.7-28.3-15.1-43.1-26.3c-33.4-16.1-80.5-17.1-101.3-51.8c3.8-9,24.1,13.6,34.5,13.1c82.3,27-44.5-97.5-54-12.1
	c-4.7,63.9,82.6,65,74.9,78.1c-79.6-20.9-68.7,20.3-85.9-53.4C242.8,174,392.8,176,483.9,223.9c15.4-5.9-32.5-31.5-40.2-36.7
	c-43.3-30.5-100.4-37.9-147-31.8C397.8,105.5,439.7,156.2,517.3,185.5z M306,209.7c-11.6,18.7-9.8-32.6,15.1-38.3
	c11.5-11.1,85.8-2.6,63.9,8.4C357.2,177.8,314.7,177.4,306,209.7z M274.5,170.1c-8.2,20.1-8.5,41.3,8.4,60.5
	c17.2,22.1,47.2,26.6,42.5,57.7c-0.6,3.7-0.9,6.1-5.5,2.4c-32.3-19.8-82-30.1-98.1-67.7C233.1,203.4,254,177.8,274.5,170.1z
	 M211.6,237.1c12.8-12.1,43.4,55,59.2,65.4c18.7,28.6,64.6,24.7,82.8,45c-16,3.9-32.5,5.6-48.4,9.7c-38.3,9.7-61.8,35.9-92.7,57.5
	C176.9,370.1,184,288.4,211.6,237.1z M225.5,449.8c5.5-21.7,40.3-36.9,60.8-47.7c8.3-5.1,33.8,16.1,27.5,22.7
	C230.6,433,277.6,545.4,225.5,449.8z M289.8,538.8c-2.7-2.7-5.4-5.4-8.1-8.1c-5.9-6-25.9-20-24-29.7c8.2-40.2,103.7-74.7,124.2-30
	c-13,3.5-26.2-13.6-41.2-13.2c2.4,24.5-0.8,51.8,19.4,69.9c4,13.1-49.2,2-10.3,18.9c45.1,21.5,72.5,11.3,16.7,52
	c-21.2-0.2-37.6-21.2-51.5-34.8C306.5,555.5,298.1,547.2,289.8,538.8z M435.3,511.6c-11.1-54.5,24.3,31.9,8.5,28.7
	c-14.8-0.5-37.3,0.8-45.2-12.8c-2.3-15.8-1.1-32-12.6-45.1c-1.1-31.2,39,23.3,49.9,33.3C435.6,514.3,435.4,512.9,435.3,511.6z
	 M456.5,654.5c-29.8-1.9-57.8-32.8-85.8-46.3c1-25.4,44.3-37.7,66.7-36.4C506.5,567.8,409.2,594.9,456.5,654.5z M453.1,551.4
	c6.2-10.3,18.4,10.3,25.5,13.4C475.8,572,449.6,564.7,453.1,551.4z M466,660.7c24.3,9.9,33,19.8,17.2-10c24-36.8,38.3-35.3-8.8-55.5
	c-9.1-6.6,9.5-8.3,14-8.3c20-2.9,34.5,13.3,51.6,20.5c33.6,11.7,20.2,68.8,24.9,96.5C537,695.3,477.7,679.7,466,660.7z M572,707.1
	c18.7-16.6-17.1-91.3,12.8-81.4c12.2,11.1,39.2,13.5,40.1,33.2C597.8,726.3,646.3,734,572,707.1z M615.1,447.3
	c-25.8-11-56.1-21.9-80.6-3.1c-35.1-6.6-87-19.8-95.4,32c-72.5-73.1-77.3-31.9-126.7-73.1c-13-15,30.3-15.3,39.8-17.3
	c34.3-5.2,69.1,13.6,102.9,12.1c27.8,2.2,54.3-13.2,80.2-8.7C572.7,374.3,695.5,497.3,615.1,447.3z M665.1,733.1
	c-24.7-4.1-30.5-4.7-12.9-26c18.7-21.5,10.4-49.1,10.7-74.4c9.3-15.8,42.3,14.9,51.1,25.3c11.1,29.2,36.4,56.4,46.2,83.2
	C725.1,743.5,695.6,737,665.1,733.1z M769.7,543.3c1-31.6,56.5,34.4,39.1,63c-9.3,44.6-75.1,48.6-93.7,9.5
	c2.5-2.2,8.3,11.7,14.1,12.9c52.7,38.8,2.3-55.7,21-77.2c6.3,2,34.3,100.8,37.1,51.4C788.9,580.7,781.2,561.6,769.7,543.3z
	 M741.9,510.9c-24.2-0.8-59.5,41.6-48.5-9c11-12.2,18-37.8,36-19.1C743.9,495.8,788.6,510.3,741.9,510.9z M814.1,676.6
	c-12.9,13.6-24.8,77.7-43,38.7c-8.7-15-26.8-30.8-24.5-48.8c13.3-10.8,33.6-0.8,49.2-2.8C807.4,664.6,825.9,655.7,814.1,676.6z
	 M825.6,650.7c-45.4,1,11.6-37.2,8.1-57.6c12.5-68.3-84.7-66.4,46.9-70.4C867.2,566.4,847.4,610.2,825.6,650.7z M914.4,371.9
	c-8.2,45.3-9.2,101-32.4,139.9c-54.4-33.3-61.7,41.7-109.1-10.1c11.7-11.4,41-1.8,56-16.4c17.4-9.7,44.1-33.9,40.4-52.4
	c-43.2,15.3-94.8,2.2-133.8,31.5c-10-15.2,33.6-34.6,48.6-32.9c43.8,1.7,71.1-38.8,98.3-67.3c-11.1,0.4-22.6,1.9-33.9,1.3
	c-16.3-0.9-35,8.7-47.6,17.9c-0.5,0.4-1.1,0.8-1.7,0.8c-2.9,0.4-2.7-13.4-10.6-13.8c-7.7-0.4-18.5,13-23.7,17.5
	c-10.2,12.6-5.9,28.5-11.3,40.6c-32.2,9.9-49.1,40.1-67.6,63.8c-22.4-27.7,67.5-89.7-12.9-153.8c-25.5-7.9,12.9-31.4,25.6-21.2
	c12.9,17.8,8.9,44.4,15.4,63.3c31.6-29,85.2-73.4,132.5-50.8C865.3,344,917,344.5,914.4,371.9z M915.4,347.5
	c-8.1-1.4-80.2-26.5-68.3-33.3c73.3-31.8,13.8-120.9-50.1-110.7c-32.1,7.4-22.2-29.8-40-46.9c-28.7-31.9-59.3-41.5-99.1-16.3
	c-8-25.8-14.7-49.8-19.9-76.7c21.4-31.8,100.8-9.2,136.4,6.6C875.6,121,917.2,240.6,915.4,347.5z"/>
</svg>
