<?xml version="1.0" encoding="utf-8"?>
<!-- Generator: Adobe Illustrator 27.3.1, SVG Export Plug-In . SVG Version: 6.00 Build 0)  -->
<svg version="1.1" id="Layer_1" xmlns="http://www.w3.org/2000/svg" xmlns:xlink="http://www.w3.org/1999/xlink" x="0px" y="0px"
	 viewBox="0 0 1200 800" enable-background="new 0 0 1200 800" xml:space="preserve">
<path fill="#C49A6C" d="M901.2,628.2C901.2,628.2,901.2,628.2,901.2,628.2c-0.4-0.5-0.7-0.9-1.1-1.4c0,0,0,0,0,0
	c0-0.1-0.1-0.1-0.1-0.2c0,0,0,0,0,0c0,0,0,0,0,0c0.1,0,0.2,0,0.1,0c0,0,0,0,0,0C900.5,627.2,900.9,627.7,901.2,628.2
	C901.2,628.2,901.2,628.2,901.2,628.2c0,0,0.1,0.1,0.1,0.1C901.3,628.3,901.2,628.2,901.2,628.2z"/>
<path fill="#C49A6C" d="M907.3,633.2C907.3,633.2,907.3,633.2,907.3,633.2C907.3,633.2,907.3,633.2,907.3,633.2
	c0.4-0.5,0.7-0.9,1.1-1.4C908,632.3,907.6,632.7,907.3,633.2z"/>
<polygon fill="#C49A6C" points="922.3,641.9 922.3,641.9 922.3,641.9 "/>
<polygon fill="#C49A6C" points="964.1,626.6 964.1,626.7 964.1,626.7 "/>
<path fill="#C49A6C" d="M982.5,628.8C982.5,628.8,982.5,628.8,982.5,628.8C982.5,628.8,982.5,628.8,982.5,628.8
	C982.5,628.8,982.5,628.8,982.5,628.8C982.5,628.8,982.5,628.8,982.5,628.8z"/>
<path fill="#C49A6C" d="M1006.3,646.3c1-0.3,2-0.7,3-1c0,0,0,0,0.1,0c0,0,0,0,0,0c-0.7,0.6-1.4,1.2-2.1,1.9l0,0c0,0,0.1,0.1,0.1,0.1
	c0,0-0.1-0.1-0.1-0.1c0,0,0,0,0,0v0C1006.9,646.9,1006.6,646.6,1006.3,646.3C1006.3,646.3,1006.3,646.3,1006.3,646.3
	C1006.3,646.3,1006.3,646.3,1006.3,646.3c0,0-0.1-0.1-0.1-0.1l0,0C1006.2,646.2,1006.3,646.2,1006.3,646.3z"/>
<path fill="#C49A6C" d="M1060.2,572.3L1060.2,572.3C1060.2,572.3,1060.2,572.3,1060.2,572.3L1060.2,572.3c0-0.1,0-0.1,0-0.2
	C1060.2,572.2,1060.2,572.2,1060.2,572.3z"/>
<path fill="#C49A6C" d="M1100.8,562.9C1100.8,562.9,1100.8,562.9,1100.8,562.9C1100.8,562.9,1100.7,562.9,1100.8,562.9
	C1100.7,562.9,1100.7,562.9,1100.8,562.9C1100.7,562.9,1100.8,562.9,1100.8,562.9z"/>
<path fill="#C49A6C" d="M938.8,146.7c-22-21-47.5-36-75.5-45.7c-24-8.3-49.8-12.6-76.6-13.2c-12-0.3-24-0.6-35.9,0.3
	c-29.2,2.1-61.8,9.8-88.3,21.3c-4,1.8-7.8,4-11.4,6.5c7.7-12.7,9.8-28.1,4.3-42.9c-10.3-27.6-43.2-42.4-73.4-32.9
	c-30.2,9.5-46.5,39.6-36.2,67.3c0.6,1.6,1.3,3.1,2,4.6c-12.1-4.9-25.1-7.9-38.4-9.9c-58.4-8.9-113.7-0.4-165.8,26.1
	c-49.1,25-87.5,59.4-110.8,106.4c-39.2,79.1-31.3,157.5,8,233.9c25,48.6,61.3,90.4,102.4,128.7c63.9,59.7,136.8,109.4,210.1,158.7
	c14,9.4,15.4,9.3,29.7-0.8c48.7-34.6,97.8-68.7,145.9-104c76.3-55.9,145.1-118.5,199.3-193.5c36.8-50.9,61.6-105.3,64.7-167.3
	C995.4,237.8,979.1,185.1,938.8,146.7z M900.5,210.6c-0.6,0.8-1.2,1.6-1.8,2.5c-16.1-5.2-16.1-5.2-44.4-0.4
	c-0.1-11.7-0.2-23.5-0.3-38.2C870.1,186.9,885.3,198.8,900.5,210.6z M873.6,221.3c12.2,1,20.1,7.4,22.9,18.5
	c9.3,36.5-1.2,62.2-32.3,79.3c-23.9,13.2-46,7.5-58.5-15.4c-1.3-2.4-1.3-6.9,0.3-8.7c6.8-7.7,14.5-14.8,21.9-22.1
	c19.1,16.1,41,10.3,47.1-11.6c2.4-8.6,6.1-18.7-3.2-25.5c-9.9-7.2-20.8-3.6-32.3,2.8C845,226.2,858.4,220,873.6,221.3z M725.3,455.6
	c-6.4,1.4-14.6-6.2-17.9-19.4c-6-24,3.1-41.7,23.5-45.9c5,8.9,10,17.8,15.1,26.7c1-0.3,2-0.6,3-0.8c0.4-1.7,1.1-3.4,1.1-5.1
	c-0.1-7.8,5.2-10.2,12.4-10.2c7.3,0.1,14.7,2.6,14.5,9.9c-0.2,7.3-2.8,15.2-6.7,21.5c-3.9,6.2-10.9,10.7-16.8,16.2
	c-6.4-8.9-11.7-16.9-17.6-24.5c-1.8-2.3-6.5-5.2-8.1-4.5c-2.9,1.3-6.4,5.2-6.3,7.9C721.9,436.8,723.9,446.1,725.3,455.6z
	 M708.4,307.3c14.3-4.2,27-5,39.1,1.2c10.9,5.6,12.3,13.3,5.4,22.6c-10.5,14.1-24.6,22.9-45.3,26.1
	C716,340.1,717.4,324.1,708.4,307.3z M725.6,364.6c-0.1,7.6-1.2,12.1-10.2,9.9c-4.2-1-8.6-0.9-16.2-1.6L725.6,364.6z M745.5,391.8
	c4.1-10.2,13.8-12.2,28.2-7.7c13.3,4.2,21.7,13.9,18.6,23C781.4,390.7,766.7,384.4,745.5,391.8z M735.1,377.1
	c0.8-4.8,1.3-9.2,2.5-13.3c0.7-2.6,2.1-5.3,4.1-7.1c3.5-3.2,7.9-5.5,11.7-8.5c16.1-12.2,20.6-26.8,10.1-43.7c4.2-3.3,7.9-6,14.4-11
	c3.3,5.8,9.3,11.4,9,16.6c-1.5,26.6,10.5,45.8,35.3,59.2c-6.2,6-11.9,11.6-18.8,18.2C783.8,368.7,759.8,368.4,735.1,377.1z
	 M761.6,210.5c3.6,7.2,14.9,9.5,22.3,6.4c7.8-3.3,12.2-12.9,9.5-20.8c-1.8-5.3-4.5-7-9.9-2.6c-3,2.4-7.1,3.7-10.6,5.5
	c0.4-4.6-0.7-10.1,1.7-13.6c2.1-3.2,8.7-6.4,12.2-5.6c4.3,1.1,8.7,5.7,10.6,9.8c13.5,28.7-10.1,70.2-43.8,75.3
	c-6.8,1-16.8-3.6-21.9-8.6c-20.9-20.4-9.8-65.1,18.3-76.7c3.1-1.3,6.7-1.5,12.3-2.6c-1.6,6-3.7,10-3.7,14
	C758.6,197.6,758.7,204.7,761.6,210.5z M787.2,287.4c-4-4.7-10.1-13.8-8.3-15.7c11.5-12.4,24.9-23.4,38.9-35.8
	c7,14.9,4.1,30.2-5.3,38.4c-4.6,4-8.7,8.7-13.9,11.9C795.5,288,788.4,288.9,787.2,287.4z M853.3,243.2c5.9-2,10.6-0.9,12.9,4.7
	c2.9,7-3.1,18.3-14.6,22.3c-2.6-1.7-8.3-3.8-10.8-7.6C836.5,256.2,843.2,246.6,853.3,243.2z M588.1,56.7c20.2-6.3,42.2,3.5,49.1,22
	c6.9,18.5-4,38.6-24.2,44.9c-20.2,6.3-42.2-3.5-49.1-22C557.1,83.2,567.9,63,588.1,56.7z M270,319.4c0-2.5-0.3-4.9-0.1-7.3
	c5.5-59.2,43.8-97.3,97.6-124.5c40.9-20.7,85.1-27.1,131.1-19c50.1,8.8,77,35.3,82.9,81.7c1.7,13.4,1.2,27.1,1.8,42.2
	c2.8-3.1,5.8-5.5,7.5-8.6c6.9-12.5,14.4-24.8,19.8-37.8c23.4-56.7,69-85.6,133.7-91.4c27.7-2.5,54.7-1.3,80.1,10.4
	c13.1,6,21.3,21.9,18.4,35.4c-3.5,16.3-13.6,24.6-29.3,25.5c-1.2-12.9-1.5-25.9-3.8-38.6c-3.1-17.5-17.8-26.7-36.9-24.7
	c-35.1,3.6-55.8,20.4-64.7,53c-29.4-10.4-58.9-2.5-71.6,18.7c-8.2,13.8-6.2,27.6,5.7,38.4c10,9.1,27.2,11.5,40.4,3.6
	c11.4-6.8,21.2-15.8,32-24c1.1,1.6,2.9,4,4.6,6.5c8.1,12.5,19.7,19.3,35.9,18.8c5.5-0.2,12.5-0.6,11.3,6.2c-0.7,3.8-6.9,9.3-11,9.7
	c-15.5,1.3-31.1,0.8-46.7,0.7c-2.2,0-5-1.3-6.5-2.8c-8.5-8.6-18.4-9.5-30.1-6.5c-10.2,2.6-21.3,2.6-31.2,5.8
	c-11,3.6-21.2,9.5-32.6,14.9c-11-3.6-24.4-8-38.6-12.7c0.8-2.8,2.7-6.5,2.7-10.2c-0.1-7,1.4-15.8-2.6-20.4
	c-6.6-7.6-6.9-14.9-7.3-23.7c-0.8-21.4-19.7-29.8-39.6-18.2c-3.9,2.3-6.9,5.7-10.7,7.9c-2.4,1.4-5.7,1.6-8,2.1
	c1.6-6,4.6-10.6,3.2-13.6c-2.7-6.1-9-4-13.6-1.4c-13.5,7.7-26.8,15.7-41,24.1c-0.2-2.6-0.4-5-0.4-7.4c-0.2-5.8,0.1-11.7-0.5-17.5
	c-2.8-25.3-19.7-35.9-46.8-29.6c-27.7,6.5-45.8,22.6-55.6,47.7c-20.5,2-37,11-47.9,27.9c-6.2,9.7-8.1,19.8-0.5,29.4
	c7.4,9.3,18.7,11.2,30.6,10.3c8.7-0.7,9.3-7.4,11.7-13.6c-7.1,0.2-13,1.1-18.8,0.5c-12.4-1.4-18.5-10.8-13.9-21.4
	c4.6-10.8,13.8-17.3,26.2-19.4c6.6-1.1,12.2,0.5,12,8.4c-0.1,1.6,0.3,3.3,0.7,4.8c4.1,15.8,11.1,30.4,29.7,35.2
	c18.5,4.9,33.2-4.2,45.8-15.3c8.2-7.2,14.8-15.8,22.7-23.3c6.4-6.1,13.2-11.8,20.5-16.9c7.1-5,15.5-6.1,22.3,0.4
	c6.5,6.2,9.7,13.7,3.3,22c-0.4,0.5-0.7,1.2-1.1,1.6c-18.6,18.1-37.1,36.1-55.7,54.2c-1.3-0.9-2.6-1.8-3.8-2.6
	c16.2-22.5,32.4-44.9,48.6-67.4c-0.5-0.6-0.9-1.1-1.4-1.7c-4.1,3.3-9.2,5.9-12.2,9.9c-12.2,15.6-23.7,31.7-35.4,47.6
	c-2,2.7-3.4,5.8-5.6,8.3c-6.3,7.4-12.6,7.4-19.3,0.3c-0.9-1-1.6-2.2-2.7-3c-3.4-2.8-6.9-5.6-10.3-8.4l0,0c-0.5,1.6-1,3.2-1.5,4.9
	c-0.8,2.8-1.8,5.8-2.9,9.5c-4.1-0.2-10.4,0.3-16.4-0.8c-15.9-2.9-32-5.8-47.5-10c-20.7-5.7-37.8-1.5-52,13.2
	c-0.7,0.7-1.6,1.3-2.4,1.9C271.9,319.2,271.4,319.2,270,319.4z M697.6,248.6c-7,11.6-19.3,16.3-32.7,17.4
	c-14.8,1.2-23.2-8.5-20.2-21.8c0.7-3.1,1.4-7.2,3.7-8.9c6.3-4.6,13.6-8.2,20.5-12.2c2.7,4,5.5,7.9,9,13c1.7-1.9,2.9-4,4.8-5.1
	c3.9-2.2,8.5-5.6,12.3-5.2c2.5,0.3,5.7,6.2,6,9.9C701.3,240,699.9,244.9,697.6,248.6z M657.2,337.7c-8.6-16.7-24.2-19-42.5-15
	c-0.7-0.9-1.3-1.9-2-2.8c5-5.2,9.3-11.4,15.3-15.3c12.6-8.1,34.1-6.3,47.1,2.7c11.5,7.9,16.2,22.4,12,36.9
	c-4.8,16.9-17.4,28.2-32.8,38.2C664.1,367.7,664.9,352.7,657.2,337.7z M652.1,477.7c-0.2-2.9-2.9-7.4-1.8-8.2
	c3.2-2.4,7.8-4.8,11.8-4.7c13.9,0.4,27,15.6,26.3,29.5c-1.1,23.6-15.5,40.1-35.6,52.5c-10,6.2-22.3,9.3-34.6,14.2
	c-3.3-19.4-2.6-20.9,11.3-28.5c14-7.6,12.4-21.5,16.2-33.3c1.4-4.4,3.7-8.6,5.1-13C651.8,483.5,652.3,480.5,652.1,477.7z
	 M551.7,597.8c17.1,9.1,17.2,17.7-3.4,30.7c-11.7,7.4-25.6,6.9-34.7-0.4c-8.9-7.1-11.5-20.1-3.2-31.2c8.6-11.3,18.8-22.2,30.5-30.8
	c10.1-7.3,12.5-14.9,10.6-25.3c-3-16.5-0.6-22.4,10.9-26.4c12.1-4.2,26.3,0.4,34.2,11.7c11.9,17,12.5,37.7-8.7,51.4
	c-6.1-2.2-10.7-3.7-15.2-5.3c-0.8,5.8-1.5,11.7-2.5,18.9c-3.5-0.8-8-2.1-12.6-2.6c-3.2-0.3-6.6,0.8-9.9,1.2
	C549,592.6,549.4,596.6,551.7,597.8z M517.5,528.3c8.7-2.6,17.5,3.4,21.5,14.6c1.9,5.4-6.7,19.1-13.3,21.3c-5.6,1.8-21.5-9-24-16.4
	C499.5,541.5,508,531.1,517.5,528.3z M509,519.5c3.5-7.4,6.6-14.9,10.7-21.9c1.1-1.9,5.9-3.5,8.3-2.9c10.5,2.6,15.6,12.8,11.9,24.6
	c-10-7.2-19.7-5.8-28.8,1.8C510.4,520.6,509.7,520,509,519.5z M579.8,497c-1.8-0.3-3.8-1.2-5.2-0.7c-13.6,5-18.8-2.9-23.8-12
	c-2-3.7-4.9-7.4-8.5-9.8c-3.9-2.7-9.1-3.8-13.7-5.6c-0.8,3.7-1.6,7.3-2.4,11c-0.7,0.2-1.4,0.5-2.1,0.7c-3.3-14.4-6.6-28.7-9.8-42.6
	c7.2,2.9,14.6,7.1,22.8,9.1c20.2,4.9,40.7,8.9,61.1,13.2c7.6,1.6,15.4,2.7,22.8,4.8c4.6,1.3,9.8,3.3,12.7,6.5
	c2.4,2.6,3,7.7,2.1,11.3c-0.4,1.6-6.1,2.5-9.6,3.1c-2.7,0.5-6.3-0.9-8.2,0.3c-2.9,1.7-6.3,4.8-6.6,7.6c-0.3,2.9,2,7.9,4.6,8.8
	c2.7,1,7-1.8,13.4-3.8c0.9,4.5,3.7,10,2.2,14.2c-1.5,4.2-6.6,8.6-11.2,10.3c-2.3,0.9-8.6-3.3-10.6-6.5
	C602.9,505.7,593.4,499,579.8,497z M451.2,334.1c3.7-1.1,7.3-2.4,11-3.4c11-3,20.8-0.6,25.6,8.4c2.9,5.5,4.3,13.3,2.4,19.1
	c-0.6,1.7-1.5,3.1-2.7,4.1c-3.6,3-9.5,3.1-15.1,2.1c0,0,0,0,0,0c0,0,0-0.1,0-0.1c-0.1,0-0.2,0-0.3,0.1c0,0,0,0,0,0c0,0,0,0,0,0
	c0,0,0.3,0.1,0.3,0.1c-25.6,2.9-38.7-6.3-39.2-28c-0.1-3.5,1.3-8.3,4-10.4c21.2-17.2,42.8-33.8,64.9-51.1
	c7.9,11,18.4,22.3,36.2,25.2c-10.8,13.1-21,25.3-32.1,38.7c-5.5-12.8-16.5-19.6-31.2-17.8c-8.8,1.1-17,5.9-25.5,9
	C450.1,331.3,450.6,332.7,451.2,334.1z M543.1,269.7c2.8-1.2,5.7-2.4,8.4-3.8c7-3.4,13-0.3,12.8,6.9c-0.2,8.7-11.2,17.8-20.7,17.1
	c-13.6-1-30.8-13.3-32.5-23.2c-2.8-16,7.2-36.3,20.6-42c8.2-3.5,18-0.2,18.8,8.3c0.7,7.9-1.7,16.2-4.2,24c-1.1,3.5-5.7,6.1-8.7,9.1
	L543.1,269.7z M596.4,394.9c-10.3,1.5-17.3-2.2-21.9-11.5c-7.2-14.6-2.9-33.1,10.2-43.8c0.5-0.4,1-0.9,1.6-1.3c6.2-4,16,0.3,22,9.7
	c6.8,10.5,6.7,21.5-0.2,24.6c-6.7,3.1-15-1.9-14.4-8.7c0.2-2.8,0.8-5.6,1.5-10.4C581.4,364.1,582.5,378.6,596.4,394.9z M562.6,392.4
	c-19.5-2-32.2-17.8-28.8-37c3.1-18,20.2-27.1,43.5-23.2c-5.4,9.5-12.9,18.5-15.4,28.6C559.4,370.5,562.1,381.4,562.6,392.4z
	 M597.1,318.6c-0.9,1.5-5,2.8-6.9,2.2c-15-4.7-29.6-4.5-44.2,1.5c10.6-9.4,21.5-18.1,37.5-15.6c4.2,0.7,8.4,3,11.9,5.5
	C597,313.3,598,317.2,597.1,318.6z M543.5,431.3c0.5-1,0.8-1.9,1-1.9c25.2,0.4,50.3,0.9,75.5,1.5c10.2,0.2,20.3,1.1,28.2,12.1
	C612.1,436.4,576.5,444.4,543.5,431.3z M617.3,395.7c15.6-21.4,14.1-41.3-1.9-60.2c13-7.7,22.7-6.3,30.6,4.1
	C660.9,359.1,644.5,393.4,617.3,395.7z M396,240.5c-12.3-1.8-23.9-3.6-35.4-5.3c1.2-18.9,21.4-37.6,43.6-39.9
	c-1.9,7.6-3.8,15.1-5.5,22.5c-1.7,7.6,0.8,13.6,8.8,16.9c7,2.9,13.9,3,19.8-2.3c6.1-5.6,5.7-12,2.4-19c-1.4,0.6-2.5,0.7-3.2,1.3
	c-4.6,3.8-10.7,10.8-15.3,4c-2.4-3.6,2.2-13.7,6.8-18.2c5.4-5.4,12.8-2,16.9,3.9c2,2.9,3,6.7,3.3,10.2c2.3,23.1-5.8,43-23.4,59.6
	c-9.4,8.8-24.7,11.6-35.4,7.2c-13.1-5.4-20-15.7-19.7-31.3c7.7,0.9,14.6,1.6,25.1,2.8c-3.8,3.9-6.1,6.2-8.9,9.1
	C390.3,262.8,399.5,250.8,396,240.5z M351.4,376.6c8,0.5,16,1,27.3,1.6c-6.3,6.9-10.6,11.6-16.3,17.8c-4.8-6.4-8.6-11.4-12.4-16.5
	C350.5,378.6,351,377.6,351.4,376.6z M343,366.9c-2.8-13.8-5.8-28.1-8.5-42.4c-1.2-6.1,2.4-7.9,8.6-7.6
	c26.4,1.3,44.3,22.7,39.2,46.8c-1.1,5.4-3.9,5.6-8.9,5.1C364,367.8,354.6,367.6,343,366.9z M400.4,387.3c-8.8,9.3-14.2,22-31.3,17.6
	C373.9,388.3,386.9,380.5,400.4,387.3z M393.3,373.9c-1.8-17.6-3.4-32.9-5-48.8l15.1-4.7c13.2,10.5,17.5,37.2,6,49.7
	C406.4,373.3,398.8,372.7,393.3,373.9z M297.8,361.3c0.1,0.7,0.1,1.5,0.2,2.2c0.1,0.7,0.1,1.4,0.1,2.1h0c1.1-0.5,2.3-0.8,3.5-1.2
	c0.6-0.2,1.2-0.4,1.9-0.6c3.1-0.9,6-1.9,7.5-3.9c4.9-6.5,7.7-14.2,11.4-21.4l3.6,0.7c2,10.4,3.9,20.8,6.3,33
	c-11.1,0.3-21,1.7-30.6,0.6c-13-1.5-21.5-10.2-22.3-20.2c-1-12.3,6.3-25,17.9-28.5c4.2-1.3,11.5-0.5,14.1,2.1
	c2.4,2.4,1.8,9.2-0.2,12.8c-3.1,5.7-9.1,10-12.5,15.7C297.4,356.5,297.5,358.9,297.8,361.3z M300.3,309.6
	c14.3-2.2,22.3,2.7,25.5,17.4c-16.7-18.4-38.2-15-53.1,17C270.4,329.5,284.5,312,300.3,309.6z M295.2,440.9
	c-12.3-23.2-20.7-47.5-22.7-74.3c15.6,21,36.9,20.6,59.9,15.1c2.3-0.6,5.7,1.1,8,2.6c1.9,1.2,3,3.5,4.5,5.3
	c15.2,18.1,13.6,14.3-1.7,27.4c-2.7,2.3-3.8,6-5.7,9c-1.8,2.8-3,6.6-5.7,8.1c-3.3,1.8-7.2,2.7-11,3.6c-1.3,0.3-2.5,0.6-3.8,1v0
	c0.1-1,0.2-2.1,0.2-3.1c0.2-3.1,0.4-6.3,0.9-9.4c0.2-1.5,1.6-2.8,2.7-4.7c-8.1-4.2-13-1.1-16.2,5.1c-4.3,8.5-0.8,18.2,7.9,22.9
	c9.2,4.9,18.3,2.9,25.6-4.5c8.4-8.6,17.6-16.6,26.5-24.8c1.2-1.1,2.9-2.1,4.6-2.4c30.1-6.2,42.6-28.8,56.2-50.3
	c0.8-1.3,0.4-3.2,0.6-5.4c34.4,23.1,66.6,19.7,77.7-5.7c1.6,14.9,3.3,30.6,4.9,46.3c0.5,5.1-15.2,16.8-22,16.5
	c-7.8-0.3-15.6-1.2-23.4-1.1c-4.2,0.1-8.4,1.7-12.6,2.6c0,1.2-0.1,2.3-0.1,3.5c6.6,1.2,13,3.1,19.7,3.6c35,2.7,43,27.3,39.5,54.5
	c-1.5,12-6.8,23.8-11.6,35.2c-2,4.8-7.1,8.4-11.4,13.3c-4.2-11.1,4.2-69.7,9.4-71.8c-5.4-19.8-24-29.7-51-28.5
	c-2-5.3-2.9-10.3-5.7-14.3c-1.5-2.1-6-2.5-11.9-4.7l6.5,17.6c-8.3-13.7-22.2-14.2-36.2-14c-9.7,0.1-12,3.6-10.4,12.4
	c8.2-0.9,16.5-2.7,24.6-2.4c6.2,0.2,10.2,3.6,7.4,10.8c-1.6,4.1-0.7,9-1.5,13.5c-0.5,3.2-1.9,6.3-3,9.4c-1,0-2,0.1-3,0.1
	c-1.7-4.7-2.8-9.7-5.4-13.9c-2.2-3.6-6.1-8.8-9.5-8.9c-5.8-0.2-9.2,10.3-6,16c2.1,3.7,4.4,7.2,7.9,12.7c-12.2-3.6-22.1-6.9-32.2-9.3
	c-12.6-3.1-24.9-6.2-38.4-1.2C317.6,458.4,300.3,450.4,295.2,440.9z M438.3,504.7c5.9-3.8,11.7-8.9,18.6-11.4
	c4.3-1.6,10.9-0.4,15.3,1.7c2.6,1.2,2.8,6.6,4.7,11.5c-5.2-0.6-7.8-0.4-9.9-1.2c-9-3.4-15.1-1.3-20.8,6.2c-2.1,2.8-8.9,3.8-13.5,3.8
	c-12.6,0-20.3,4-23.9,13.9c-3.6,9.9,0.6,22.8,9.3,28c1.3,0.8,3.1,0.8,5,1.2c-4.5-28.5-4.4-28.8,24.9-37c7.6-2.1,16.4-3.4,21.4,3.8
	c4.9,7,2.5,14.9-3.4,20.7c-12.4,12.5-27.9,19.2-46.7,16.4c-21.9-3.3-33.6-18.6-30.4-38.8c2.5-16,11.2-29.3,21.3-42.1
	c9.3-11.8,18.6-23.7,28.4-35.3c5.3-6.3,12.5-4.2,17.9-0.5c13.1,9,19.3,21.7,21.7,37.3C440.2,485.6,434.4,489.1,438.3,504.7z
	 M342.4,513.3c-12.8-17.3-24.6-33.1-37.5-50.6c10.6,2.1,18.7,3.6,26.7,5.3c1.3,0.3,2.6,1,3.6,1.8
	C341.9,475.4,347.4,502.5,342.4,513.3z M609.7,665.8c0,0.3,0,0.7-0.1,1c-0.7,4.9-31.5,29.1-37,28.9c-1,0-2.8-0.2-3-0.7
	c-2.4-7-5.6-14-6.1-21.2c-0.2-2.7,5.6-6.9,9.5-8.4c6.4-2.5,11.7-0.6,13.7,6.5c0.5,1.6,3.1,2.7,4.7,4c1.2-1.8,3.4-3.5,3.5-5.4
	c0.5-8.5-4.2-14.2-12.9-17c-18-5.8-32.8,5.8-33.6,27.8c-7.7-5-15-9.3-21.7-14.2c-42.2-31.2-84.9-62-126.1-94.1
	c-15.3-11.9-27.4-27.2-40.6-41.2c-1.4-1.5-1.3-5.4-0.2-7.4c5-8.9,10.7-17.5,15.7-26.5c0.4-0.7-4.7-4.8-4.9-4.6
	c-4,2.9-8.5,5.7-11,9.5c-2.6,3.9-3.2,8.9-4.8,13.9c-2-13.9-3.8-27-5.7-40c-1.2-8,5.1-8.1,10.2-6.9c12.3,2.7,24.4,6.4,38.1,10.1
	c-4,6.9-7.6,12.5-10.6,18.2c-8.8,16.9-11.1,34.5-2.5,51.7c10.2,20.5,31.5,28.2,55.2,21.3c6.3-1.8,12.3-4.5,19.8-7.4
	c-2.5,6.4-5.7,11.4-6.1,16.6c-0.8,9.2-1.1,18.7,1,27.5c0.9,3.6,10,9,12.9,8c6.2-2.2,10.9-8.1,15.9-12.8c0.5-0.4-1.6-4-3.3-5.1
	c-1.1-0.7-4.1,0-5.4,1c-1.8,1.3-2.9,3.5-4.6,5.7c-10.1-3.4-10-10.6-7.9-17.6c4-13.1,11.6-24.3,22.8-33.5c9.3,7,18.2,13.7,27.9,21
	c-3.7,5.5-8.5,11-11.1,17.1c-4.2,9.9-8.2,20.1-9.8,30.5c-1.8,12.1,5.7,20.2,18.7,23.8c13.6,3.8,26.4,0.8,39.5-3.3
	c10.8-3.3,22.7-5.7,34-5.5C598.8,637.5,610.6,652,609.7,665.8z M610.5,625.2c-12.7-0.3-25.4-1.4-38.5-2.3c1.7-3.7,3.8-8.5,6.2-13.1
	c2.9-5.6,15.8-8.1,25.9-4.9c7.9,2.5,13.7,7.2,13.4,15.4C617.4,622.1,612.8,625.3,610.5,625.2z M628.8,658c1.5-13.8,2.8-26.1,4-37
	c15.7-0.5,30.1-1,44.5-1.4c0.5,1.3,1,2.6,1.5,3.8C662.5,634.6,646.2,645.9,628.8,658z M647.9,597.4c-1-0.5-2-1.1-2.9-1.6
	c2.3-2.9,5-5.7,6.6-8.9c0.8-1.7-0.2-4.1-0.4-6.3c-2.2,0.4-4.5,0.6-6.6,1.3c-4.4,1.5-9.4,2.6-12.8,5.3c-3.9,3.1-6.2,7.8-9.4,12.1
	c-9.1-2.2-19.1-4.5-29.1-6.9c12.1-19.3,42.2-28.8,70.7-22.4c18,4,26,10.7,26.5,24.8C673.9,581.1,661.4,593.3,647.9,597.4z
	 M687.8,554c-0.4,1.8-4.4,4.2-6.7,4.2c-5.5-0.1-11-1.4-18.3-2.6c9.6-9.3,17.9-17.4,26.2-25.5c0.9,0.3,1.7,0.5,2.6,0.8
	C690.4,538.6,689.6,546.4,687.8,554z M681.4,453.4c-4.6,0-9.1-0.7-14.8-1.1c0.4-22.1-6.5-39.2-31-45.9c17.1-7.4,33.1-15.7,50.1-21.2
	c7.9-2.5,17.8,0.2,27.8,0.7c-17,15.3-22.4,33-17.7,53.6C697.2,445.7,688.6,453.4,681.4,453.4z M703.1,463.6
	c1.1-1.4,6.8-0.1,10.2,0.5c7.6,1.4,15.1,3.1,22.5,4.6c-1.2,17.5-2.3,34.4-3.5,52.1c-2.1-0.1-4.8-0.1-7.5-0.4
	c-22.4-2.7-22.5-3.4-22-23.6c0.2-7.3-2.4-14.6-2.8-21.9C699.9,471.1,700.8,466.6,703.1,463.6z M700.1,544.6L700.1,544.6
	c0.3-0.6,0.5-1.3,0.7-2c0.2-0.7,0.4-1.4,0.7-2.1c0.7-2.3,1.5-4.5,3.2-5.9c6-5,18-3.4,28.4,3.9c-9.1,2.8-16.2,5.5-23.5,7.2
	c-2.1,0.5-4.6-0.2-7-0.8C701.7,544.9,700.9,544.7,700.1,544.6z M726.7,553.1c-1.1,4.9-3.5,9.5-5.5,14.1c-3.7-1.8-8.8-2.8-10.7-5.7
	c-3.7-5.4-0.1-9.1,7-12.5C720.8,550.4,726.9,552.3,726.7,553.1z M773.7,545.9c-14.7,13.2-29.9,25.9-45.3,38.5
	c-7.2,5.9-15.1,11.2-24.8,18.3c-0.2-12.2-0.3-21.7-0.4-32.8c23.3,15.7,33.6,10.2,44.2-20.9c4.1,0.6,9.3,2.5,10.2,1.3
	c2-2.4,2.5-6.4,2.3-9.6c-0.7-8.3-2.2-16.6-3.5-25.8c7,7.8,13.5,14.2,18.7,21.4C776.5,538.5,775.8,544.1,773.7,545.9z M783.3,490.5
	c-8,1.1-16.3,1.6-24.3,1.1c-2.4-0.1-6.4-4.6-6.3-6.9c0.3-6,0.8-13.2,4.4-17.7c11.5-14.2,24.4-27.5,36.8-41.1c1,0.5,2.1,1.1,3.1,1.6
	c0.6,17.8-5.4,34.1-18.2,49.8c13.4,1.6,28-6.8,31.6,7.7C800.7,487,792.1,489.3,783.3,490.5z M802.8,444.2c3.5-5.3,5.8-8.7,8.1-12.1
	c3.8,2.2,7.7,4.3,11.5,6.5c-2.6,3.7-4.7,8-8.2,10.8C813.2,450.1,808.1,446.6,802.8,444.2z M826.2,490.5c-4.2-9.4-7.3-16.2-10.2-23.1
	c-0.7-1.7-1.2-3.9-0.5-5.4c3.4-7,21.1-16.2,29.8-15.7c4.8,0.3,9.7,0.6,18,1.1C850.2,462.7,838.7,476,826.2,490.5z M845.4,417
	c2.3-0.6,4.6-1.2,6.9-1.8l5.2,14.1c-2.9,0.3-7.9,1.4-8.2,0.7C847.4,425.8,846.6,421.3,845.4,417z M875.4,425.7
	c-5.7-7.5-9.5-13.7-14.6-18.9c-2.9-3-8.3-6.7-11.7-6.1c-3.6,0.6-7.3,5.6-9,9.5c-2.4,5.6-2.7,11.5-12.2,9.8
	c-8.9-1.6-15.5-4.2-15.7-13.9c-0.3-14.5,14.5-29.3,31.3-32.5c18-3.4,35.8-7.6,53.4-12.3c5.4-1.4,10-5.7,17.1-9.9
	C905,378.6,891.5,401.6,875.4,425.7z M916.9,341.1l-39.1,12.2c-0.7-1.2-1.3-2.4-2-3.7c13.6-6.5,27.1-13.1,43.4-21
	C918,335.4,917.3,339,916.9,341.1z M922.4,313.2c-0.1,1.8-2.9,3.9-5,5c-22.3,12-45.2,23.1-67,35.9c-7.8,4.6-14.3,6.2-22.7,3.5
	c-15.7-5.1-27.2-18.8-26.9-33.1c1.4,0.5,2.8,0.7,3.7,1.4c21,16.3,42.3,18.7,65.5,5.1c32.3-18.9,60.4-52.3,45.2-96.1
	C925.8,260.5,924.1,286.9,922.4,313.2z"/>
</svg>
