<?xml version="1.0" encoding="utf-8"?>
<!-- Generator: Adobe Illustrator 27.3.1, SVG Export Plug-In . SVG Version: 6.00 Build 0)  -->
<svg version="1.1" id="Layer_1" xmlns="http://www.w3.org/2000/svg" xmlns:xlink="http://www.w3.org/1999/xlink" x="0px" y="0px"
	 viewBox="0 0 1200 800" enable-background="new 0 0 1200 800" xml:space="preserve">
<path fill="none" stroke="#ED1C24" stroke-width="0.5" stroke-miterlimit="10" d="M899.4,262.4C826.7,90.7,666.8,89.3,595.2,98.3
	c7.3-7.1,11.9-16.9,11.9-27.9c0-21.4-17.4-38.7-38.7-38.7c-21.4,0-38.7,17.4-38.7,38.7c0,13,6.4,24.4,16.2,31.5
	c-141.2-29-234.2,53.8-234.2,53.8C163,279.2,247.8,460.6,247.8,460.6c30.6,98,157.2,183.5,157.2,183.5
	C514.5,717.1,563.9,777,563.9,777c9.8,18,27,11.7,27,11.7c57.9-76.7,183.9-173,183.9-173c5.9-3.7,62.6-65.4,62.6-65.4
	C956.4,411.6,899.4,262.4,899.4,262.4z M568.4,48.8c12,0,21.7,9.7,21.7,21.7s-9.7,21.7-21.7,21.7s-21.7-9.7-21.7-21.7
	S556.4,48.8,568.4,48.8z M573.9,174.4c1.9,2.4,3,4.7,2.9,6.3c-0.6,6.8-4.7,11.5-11.4,13.6c-0.2,0.1-0.4,0.1-0.6,0.2
	c-0.1,0-0.2,0.1-0.3,0.1c-3.1,0.9-6.8,1.2-11,1c0,0,0,0,0,0c0,0,0,0,0,0c-0.1,0-0.1,0-0.2,0c-7.5-0.5-14.6-8.5-11.7-18
	c1.7-5.5,10.3-10.5,16.9-12.8C562.4,163.4,569.8,169.1,573.9,174.4z M740.7,269.5c-6-1.7-12.1-2.9-18.2-3.7
	c-2.4-0.3-4.9-0.6-7.3-0.7c-7.3-0.5-14.7-0.3-22.2,0.7c-3.7,0.5-7.5,1.2-11.3,2.1c-4.5,1.7-9.1,3.4-13.6,5.1
	c-4.1,3.3-7.9,7.1-12,10.2c-1.4,1-2.8,2-4.3,2.8c-4.7,2.6-10.9,3.9-16.3,3.9c-20.2,0-38.5,5.4-54.5,17.3c-6.3,4.6-11.5,10.6-18,16.8
	c-4.9-5.6-9.5-11-14.2-16.3c-1.5-0.7-3-1.3-4.5-2c-1.5-0.7-3-1.4-4.4-2.2c-14.9-9-31.8-12.4-49.1-12.8c-8.5-0.2-13.4-3.3-17-9.8
	c-1.2-1.1-2.3-2.2-3.5-3.3c-1.4-0.2-3.1,0-4.1-0.7c-21.2-13.3-44.2-12.7-67.7-8.4c-4.4,0.8-9.1,1.1-13.3,2.6
	c-4,1.4-7.8,1.6-11.4,0.7c-1.4-0.4-2.9-1-4.2-1.7c-0.7-0.4-1.4-0.8-2.1-1.2c-2.2-2.2-3.9-4.5-5.2-6.8c-0.4-0.8-0.8-1.6-1.2-2.4
	c-1.1-2.4-1.8-4.8-2.2-7.3c-0.3-1.7-0.5-3.3-0.5-5c-0.2-5.9,0.9-12,2.2-18.1c11.5-52,54.9-88.8,111.4-93.2c19.1-1.5,38.3-4.1,57,2.1
	c4.2,1.4,8.5,2.8,12.3,4.9c2.3,1.3,4.7,3.9,5.1,6.3c0.3,1.4-2.9,4.1-5.1,5.2c-14.7,8-20.4,17.2-18.3,30.2
	c2.1,13.4,14,24.6,28.6,26.4c4.6,0.6,9.5,0.5,14.1-0.1c14.1-1.9,24.4-10.9,27.4-23.3c2.5-10.4-4.5-24.9-14.7-31.4
	c-3.7-2.4-6.8-5.7-10.2-8.6c4.3-2.9,8.3-7,13.1-8.6c20.7-6.6,41.9-6.1,62.9-4.3c56.6,4.9,96.2,32.2,116.4,82
	c4.2,10.4,6.4,22.2,6.6,33.5C767.5,266.6,756.8,273.9,740.7,269.5z"/>
<path fill="#594A42" d="M531.5,479.2c0.7,0.1,1.6-0.2,2.5-0.6c0,0,0.1,0,0.1-0.1c0,0,0,0,0,0c0.7-0.3,1.3-0.8,1.9-1.3
	c0.8-0.7,1.5-1.4,1.7-2c0.6-1.5,1.1-3,1.6-4.5c2.4-6.7,4.6-13.4,6.3-20.3c0.1-0.5,0.3-1,0.4-1.5c0.1-0.4,0.2-0.8,0.2-1.2
	c0.5-2.6,0.6-5.7,0.1-8.3c-0.3-1.4-0.7-2.6-1.5-3.6c-1-1.3-2-2.6-3.1-3.8c-12.9-14.5-31-19.4-52.4-18.6c-0.1,0-0.2,0-0.3,0
	c0,0,0,0,0,0c0.6,3.2,1,6,1.6,8.7c2.9,13.2-0.2,20-14.3,21.6c-15.7,1.8-32,1.6-47.7-0.3c-11.3-1.4-20.5-14.5-20.7-25.3
	c0-2.1,0.3-4,1-5.8c10.5,6.4,19,16.3,32.5,17.4c0,0,0,0,0,0c0,0,0,0,0,0c-4.5-3.7-9.1-7.3-13.5-10.9c-4.1-3.3-8.1-6.7-12.1-10.2
	c-0.6-0.6-1.3-1.1-1.9-1.7c-7.2-6.6-14-13.7-20.6-20.8c-1.6-1.8-3.3-3.5-4.9-5.3c-1.6-1.8-3.4-5.3-3.1-7.2c0-0.2,0.1-0.3,0.1-0.4
	c0-0.1,0.1-0.2,0.1-0.3c4.4-7,9.8-13.3,14.9-19.9c0.6,0.3,1.3,0.6,1.9,0.8c0.2,0.1,0.4,0.2,0.6,0.3c3.7,15.8,12.1,28.6,26.2,37.7
	c3.8,2.5,7.7,5,11.6,7.4c9.5,5.8,19.6,11,32,14.5c-3.8-10.2-15.4-15-9.8-27.5c12.9,9.4,28.2,11.2,43.2,14.1
	c3.8,0.7,7.5,1.6,11.1,2.6c1.1,0.3,2.1,0.8,3.1,1.2c5.8,2.4,11.6,4.9,16.9,7.2c0.6-2.2,1.3-4.4,1.9-6.6c2.9-10.2,5.9-20.4,8.5-30.6
	c0.3-1.3,0.7-2.7,1-4c0.3-1.2,0.5-2.5,0.7-3.8c0.4-3.5,0.3-7.1-0.6-10.3c-6.4-21.2-21.8-34.2-44.3-40.3c-5.6-1.5-8.4-0.2-11.8,4.6
	c-1.7,2.4-3.6,4.7-5.7,6.9c-1.5,1.6-3.2,3.1-4.9,4.6c-1.9,1.6-3.9,3-5.9,4.2c-3.2,1.9-5.6,2.5-7.3,1.9c-1.2-0.4-2.2-1.5-2.9-3
	c-0.6-1.3-1.1-3-1.5-5.1c-0.7-3.5-1.4-7.1-2.2-10.6c-0.8-3.3-1.8-6.6-3.2-9.7c-5.7-12.7-16.6-19-30.9-19c-1.5,0-3.1,0-4.7,0.2
	c-18.4,1.6-26.9,7.7-30.7,24c-0.9,3.8-2,7.2-3.4,10.3c-4.2,9.3-10.8,15.9-19.5,20.5c-5.3,2.8-11.4,4.7-18.2,6.1c0,0,0,0,0,0
	c0,0,0,0,0,0c1,15.4,5.3,30.1,13.7,43.4c2.1,3.3,4.3,6.4,6.6,9.4c8,10.4,17.3,19.3,27.7,27.2c11.2,8.5,23.5,15.7,36.4,22.2
	c17.1,8.5,35.1,14.1,53.7,18.2c8.7,1.9,17.4,3.5,26.2,4.9C521.2,477.7,526.4,478.5,531.5,479.2z M529.7,349.7
	c11.7,1.5,17.8,11.7,14.4,19.2c-18-2.6-35.7-4.9-53.3-7.7c-10.7-1.7-20.1-5.3-22.5-17.7C489.4,345.6,509.6,347,529.7,349.7z
	 M437.8,339.7c2.9,1.1,5.9,1.9,9,2.4c9,1.4,15.4,5.1,18.9,13.8c3.9,9.7,13.1,14.1,23.1,17.1c4.3,1.3,8.8,2.2,12.8,4
	c4.7,2.1,6.7,6.2,3.7,10.3c-0.9,1.2-6.2,0.5-9.1-0.5c-7.8-2.5-15.3-5.9-23.2-8.3c-11.3-3.5-22.7-6.4-34.3-9.6
	c0.6,2.2,1.6,6,3.3,12.8c-7.3-2.4-13.4-3-17.4-6c-14.9-11.4-18.7-45.5-7.1-60.1c1.4-1.8,3.3-3.3,6.1-6c0.3,5.3,0.9,9,0.7,12.7
	C423.8,331.7,429.6,336.6,437.8,339.7z M399,321.3c3.2-4,7.3-7.3,11.5-11.3c-2.5,23.3-15.1,40-32.1,54.5c-4.7-6.7-3.3-11.8,1.1-17.3
	C386.4,338.9,392.2,329.8,399,321.3z M494.5,439.3c-0.1-1-0.3-2-0.4-2.9c4.6-1.2,9.2-2.9,13.8-3.3c7.4-0.6,15-0.8,22.4-0.3
	c3.3,0.2,6.8,1.9,9.5,3.8c0.9,0.7,0,5.7-0.7,5.9C523.8,445.2,508.7,446.4,494.5,439.3z"/>
<path fill="#594A42" d="M241.8,360.7c3.8,57,24.7,108.4,57.3,154.8c30.8,43.8,70.9,78.9,112.8,111.5c18.3,14.3,38.2,26.9,56.2,41.2
	c25.5,20.3,50.1,41,74,61.8c15.2,13.2,33.1,24.7,39.3,43.4c0.1,0.3,0.8,0.4,2.3,1.1c1-1.6,1.8-2.9,2.5-4.1c3.1-5.4,5.3-11.4,9.7-16
	c18.6-19.4,37.5-39.2,57.8-58.2c26.4-24.7,54.2-49.1,82.4-73.8c28.8-25.1,56.1-52,81.4-81.3c46.6-54.1,73.9-116,76.6-185.6
	c3.3-86.3-33.3-156-110.6-203.8c-63-38.9-132.7-54.1-209.9-34.2c-11.5,3-24.9,2-36.6-0.6c-41.4-9.1-82.4-9.4-123,3.2
	C298,156.7,234.3,249.7,241.8,360.7z M269.1,419.8c0.1-3.3,0.7-6.7,1.7-10.3c0,0,0,0,0,0c6.8,1.9,10.9,4.5,11.1,10.9
	c0,0.2,0,0.3,0,0.5c0,3.6,0.7,6.8,2.1,9.6c1.9,4,5.2,7.2,9.5,9.6c1.4,0.8,2.9,1.5,4.6,2.2c9.1,3.6,18.4,7.3,27.9,9.5
	c0.8,0.2,1.5,0.4,2.3,0.6c13.4,3.4,24.7,9.7,35.4,19.7c0,0,0,0,0,0c-0.5,0.2-0.9,0.4-1.4,0.6c-2.1,0.9-3.8,1.8-5.5,2.2c0,0,0,0,0,0
	c-0.1,0-0.2,0-0.3,0c-0.2,0-0.4,0.1-0.6,0.1c-3.5,0.2-7,0.3-10.5,0.3c-6.9,0-13.6-0.7-20.1-2.2c-8.3-2-16.1-5.6-23.3-11.6
	c-4.4-3.7-8.8-7.6-13.2-11.4c-3.3-2.9-6.6-5.8-9.8-8.7C271.7,434.9,268.9,427.8,269.1,419.8z M405.7,511.9c2.7-0.1,5.5,0,8.3,0.4
	c6.5,0.9,13,2.8,19.5,4.4c1.9,0.5,3.8,0.9,5.7,1.3c-2.3,2.1-5,3.9-7.9,5.5c-19.3,10.5-50.7,10.3-75.2,2.1c-12.1-4-22.5-10-29-17.5
	c-0.6-0.7-1.2-1.5-1.8-2.2c6.2,0.7,12.2,1.2,18.1,1.9c2.8,0.3,5.6,0.7,8.3,1.1c2.1,0.3,4.3,0.7,6.4,0.9c9.9,1.3,19.7,2.1,29.7,2.4
	C393.7,512.2,399.7,512.2,405.7,511.9z M385.1,486.9c-0.3,0.3-0.6,0.6-0.9,0.9c-4.3,3.3-14.6,3.7-20.4,1.2c-1.4-0.6-2.6-1.4-3.3-2.4
	c-0.6-0.9,0.4-3.7,1.7-5c0.2-0.2,0.4-0.4,0.6-0.5c2.9-1.8,6.8-1.9,11.2-0.5C377.6,481.7,381.5,483.8,385.1,486.9z M309.1,495.3
	c-9-3.6-16.7-11.1-21.1-19.9c-3.3-6.6-4.8-13.9-3.5-21c0.4,0.4,0.7,0.9,1.1,1.3c0.3,0.3,0.5,0.6,0.8,0.9c0.3,0.4,0.7,0.7,1,1.1
	c0.3,0.3,0.6,0.7,0.9,1c1.8,1.9,3.7,3.7,5.6,5.4c0.1,0.1,0.3,0.3,0.4,0.4c0.5,0.5,1.1,0.9,1.6,1.3c0.2,0.1,0.3,0.3,0.5,0.4
	c0.5,0.4,1,0.8,1.5,1.2c0.2,0.2,0.4,0.4,0.7,0.5c0.5,0.4,1,0.7,1.4,1.1c0.3,0.2,0.5,0.4,0.7,0.6c0.4,0.3,0.9,0.6,1.3,0.9
	c0.3,0.2,0.6,0.4,0.9,0.6c0.3,0.2,0.6,0.4,0.9,0.6c7.2,4.7,15,8.3,23.1,11.3c0,0,0.1,0,0.1,0c0.4,0.1,0.7,0.3,1.1,0.4
	c10.8,3.9,22.1,6.7,33.6,9.6c-8.1,9.2-29.7,10.1-48.8,3.6C311.6,496.2,310.3,495.8,309.1,495.3z M329.4,540.6
	c-4-4.3-6.5-9.8-8.9-15.2c-0.6-1.4-1.2-2.8-1.8-4.2c-0.3-0.7-0.4-1.4-0.4-2.1c0-1,0.1-2.1,0.3-3.2c0.3-1.4,0.6-2.9,0.7-4.3
	c0.5-0.2,1.1-0.4,1.6-0.5c0.3-0.1,0.7-0.2,1-0.3c21.2,24,46,41.8,80,45c0.3-0.4,0.6-0.7,0.9-1.1c0.3-0.3,0.5-0.7,0.8-1c0,0,0,0,0,0
	c-1.8-1.2-3.6-2.4-5.5-3.6c-2.6-1.7-5.4-3.6-8.6-5.7c-0.7-0.5-1.5-1-2.2-1.5c2.3-0.4,4.1-0.9,5.7-1.2c0,0,0.1,0,0.1,0
	c0.3-0.1,0.6-0.1,0.8-0.1c0.1,0,0.1,0,0.2,0c0.5-0.1,1.1-0.1,1.6-0.1c1.4,0.1,2.7,0.2,4.1,0.3c9.9,0.6,19.8,1.3,29.8,2.1
	c3.2,0.3,6.3,0.5,9.5,0.8c0.2,0,0.4,0.1,0.6,0.1c1.9,0.4,3.6,1.9,5.4,2.7c-0.2,0.3-0.4,0.7-0.6,1c-0.8,1.5-1.5,3.2-2.8,4.2
	c0,0,0,0-0.1,0.1c-0.2,0.2-0.5,0.3-0.7,0.5c-10.5,7.7-23.4,10-36.4,11.5C375.4,568.2,349.2,562.3,329.4,540.6z M390.1,588.4
	c-2.1-2.2-3.9-4.7-5.1-7.7c-0.2-0.5-0.3-1.1-0.3-1.8c0-0.1,0-0.2,0-0.4c0.1-1.1,0.5-2.2,1.1-2.9c0.1-0.2,0.5-0.3,0.9-0.3
	c0.3,0,0.8,0,1.2,0c0.9,0.1,2,0.3,2.7,0.6c0,0,0.1,0,0.1,0c0.6,0.3,1.1,0.5,1.7,0.8c5.3,2.5,10.5,5.2,15.6,8
	c0.5,0.3,0.9,0.5,1.4,0.8c0.7,0.5,1.5,1,2.5,1.7c1.1,0.8,2.3,1.6,4,2.8c0,0,0,0,0,0c-0.7,0.4-1.4,0.7-2,1.1
	c-4.8,2.7-8.1,5.5-10.4,4.9c-1.1-0.3-2.1-0.6-3.1-1C396.4,593.5,392.9,591.3,390.1,588.4z M413,596.4C413,596.4,413,596.4,413,596.4
	c0.7-0.8,1.4-1.7,2.1-2.5c1-1.3,2.1-2.5,3.2-3.7c0.1-0.1,0.2-0.2,0.3-0.3c5.8-6.3,12.1-12.3,17.4-18.9c1-1.3,1.9-2.5,2.9-3.2
	c1.5-1.2,2.9-1.3,5,0.6c0.4,0.4,0.9,0.9,1.3,1.5c0,0,0,0,0,0c0.6-0.9,1.1-1.7,1.6-2.5c1.2-1.9,2.3-3.6,3.4-5.4
	c4.1,4.6,5.1,10.3,3.3,15.8c-0.9,2.8-2.6,5.6-4.9,8.1C440.4,594.7,422.1,600.4,413,596.4z M463.2,516.5c0.1,0,0.2,0,0.3,0.1
	c0,0,0,0,0.1,0c0,0,0,0,0,0c0.3,0.1,0.6,0.2,0.9,0.3c0.6,0.2,1.3,0.3,2,0.4c4.2,0.7,9.1,1,8.6,7.1c0,0,0,0,0,0c0,0,0,0,0,0
	c-0.1,0.9-0.2,1.8-0.4,2.7c0,0,0,0,0,0c-0.2,0.9-0.4,1.7-0.6,2.6c-0.4,1.8-0.9,3.6-1.2,5.5c0,0,0,0.1,0,0.1
	c-0.5,3.4-0.5,6.9-0.7,11.1c0,0,0,0,0,0c0.9-0.2,1.7-0.4,2.4-0.6c2-0.5,3.6-0.9,5.2-1.3c0.3-0.1,0.6-0.1,0.9-0.2
	c6.2,8.3,12.6,16.3,18.4,24.6c3.6,5.1,7.8,9.6,12.4,13.6c5.7,5,12,9.4,18.6,13.6c0.1,0.1,0.2,0.1,0.3,0.2c1.6,1,3.1,2.1,4.7,3.1
	c0.7,0.4,1.3,0.8,2,1.2c6.1,3.5,10.3,9,19.1,9.6c2.2,0.1,4.4,0.9,6.2,2.1c2.7,1.9,4.4,5,3.1,9.3c-0.8,2.5-1.6,4.9-2.4,7.4
	c-0.2,0.6-0.4,1.1-0.6,1.7c-0.9,2.6-1.7,5.1-2.6,7.7c0,0,0,0,0,0c-4.3-2.2-9.1-4-13.1-6.4c-0.9-0.5-1.8-1.1-2.6-1.8
	c-17-13.3-33.4-27.3-44-45.5c-1.9-3.3-3.7-6.8-5.2-10.5c-0.1-0.1-0.2-0.2-0.4-0.3c-0.4-0.2-1.1-0.5-2.1-1.1c0,0,0,0,0,0
	c0.1,1.5,0.2,3,0.3,4.4c0.1,2.4,0.3,4.7,0.4,7.2c0,0.3,0,0.6,0.1,0.9c0,0,0,0,0,0c-3.5,0.4-6.8,0.3-9.8-0.2c0,0-0.1,0-0.1,0
	c-0.1,0-0.2,0-0.2,0c-6.6-1.2-12-4.5-16.1-9.6c-13.2-16.6-15.9-35.3-10.1-55.1c0.4-1.3,3-3,4.9-3.6c0,0,0.1,0,0.1,0c0,0,0.1,0,0.1,0
	C462.5,516.5,462.9,516.5,463.2,516.5z M511,525.2c0.1,0.1,0.3,0.1,0.4,0.2c0,0,0,0,0,0c2.7,1.5,5.2,3.4,7.6,5.8
	c4,4,8.1,8,12.3,11.8c0.1,0.1,0.2,0.2,0.3,0.3c0.1,0,0.1,0.1,0.2,0.1c7.1,6.5,14.6,12.6,22.6,17.9c4.1,2.7,7.2,5.7,9.4,8.8
	c0,0.1,0.1,0.1,0.1,0.2c0,0,0,0,0,0c2,2.8,3.4,5.8,4.3,8.8c2.3,7.4,1.9,15.5,1.7,23.6c0,1.2-0.3,2.1-0.8,2.7c-0.5,0.7-1.2,1-2.2,1
	c-1,0-2.3-0.4-3.6-1.3c-0.3-0.2-0.5-0.3-0.8-0.5c-1.4-0.9-2.8-1.9-4-3c-0.2-0.2-0.4-0.3-0.6-0.5c-20.3-20.1-41-40.2-61.4-61
	c-3.6-3.6-6.5-7.8-9.7-12.4c-1.5-2.2-3.1-4.4-4.9-6.8c6-0.5,11.3-0.6,16.2,0.1C502.9,521.8,507.1,523.1,511,525.2z M544.3,525.5
	c2.9,3.3,6,6.4,9.3,9.5c3.5,3.2,7.1,6.3,10.6,9.4c2.4,2.1,4.4,3.5,6.2,4c0.1,0,0.2,0,0.2,0c0.2,0.1,0.5,0.1,0.7,0.1c0,0,0,0,0,0
	c2.7,0.3,5.2-1.3,8.8-4.8c5.1-5.1,10.4-10.4,14.1-16.3c3.8-6.1,8.1-6.9,14.6-4.1c0.2,0.1,0.3,0.1,0.5,0.2c0.1,0,0.2,0.1,0.3,0.2
	c0.3,0.2,0.7,0.3,1.1,0.5c0,0,0,0,0,0c-7,12.8-15.1,24.5-26.7,33.4c-1.5,1.1-3.7,2-6.1,2.7c-4,1-8.5,1.2-11-0.1
	c-2.5-1.2-4.9-2.6-7.2-4.1c-11.1-7.2-19.6-16.8-27.6-27.2c-1.4-1.8-2.7-3.6-4.1-5.4c3.6-1.9,6.5-2.8,9-2.5c0.2,0,0.3,0.1,0.5,0.1
	c0.2,0,0.3,0,0.5,0.1c0.2,0,0.4,0.1,0.6,0.2c0.1,0,0.2,0.1,0.3,0.1c0.1,0,0.3,0.1,0.4,0.2C541,522.4,542.6,523.6,544.3,525.5z
	 M647.8,519.2c2.9-0.1,5.3,0.1,6.2,0.9c0.2,0.2,0.4,0.4,0.5,0.7c0.4,0.7,0.6,1.7,0.6,2.7c0,0.1,0,0.2,0,0.2c0,0,0,0,0,0.1
	c0,0.8-0.2,1.6-0.5,2.2c-1.6,3-3.1,6.1-4.9,9c-1.7,3-3.7,5.9-6,8.4c-18.3,19.7-36.9,38.8-55.2,57.7c-2.5,2.6-6,4.4-9.2,6.7
	c0,0,0,0,0,0c-0.8-1.3-1.4-2.7-1.9-4.2c-0.1-0.2-0.1-0.3-0.2-0.5c-0.1-0.3-0.2-0.7-0.3-1c-1.4-5.1-1.6-11.1-0.7-16.9
	c1.2-7.8,4.3-15.2,8.9-19.5c14.6-13.8,29.3-27.9,44.1-42c0.7-0.6,2-1.3,3.7-1.8C636.9,520.5,643.1,519.4,647.8,519.2z M554,664.2
	c0.2-1.8,0.6-3.6,1.2-5.3c0.6-1.8,1.4-3.6,2.1-5.4c0.3-0.8,0.7-1.7,1-2.5c1-0.1,2.1-0.2,3.1-0.3c0.1,0.2,0.1,0.4,0.2,0.6
	c1.2,4.3,2.7,8.5,3.3,12.8c0.1,0.4,0.1,0.8,0.2,1.2c0.2,1.4-3.2,3.2-4.9,4.8C558,668,553.8,666,554,664.2z M572.7,630.6
	C572.7,630.6,572.7,630.6,572.7,630.6c4.8,4,7.2,11.2,6.8,18.4c-0.2,4-1.3,8-3.3,11.5c0,0,0,0,0,0c-3-3.6-5-9.3-5.7-14.8
	C569.5,639.5,570.2,633.4,572.7,630.6z M534.6,663.6c-13.8-10.6-29-29.7-36.1-46.4c-2.2-5.3-3.7-10.3-4-14.8c0,0,0,0,0,0
	c0.2,0.2,0.4,0.5,0.6,0.7c1.2,1.4,2.4,2.8,3.5,4.2c0.1,0.2,0.3,0.4,0.5,0.6c9,11.8,19.2,22,35.1,26.8c0.8,0.2,1.6,0.6,2.4,1.1
	c2.4,1.4,4.7,3.7,5.4,5.9c3.6,9.7,6.1,19.7,9.2,30.1C546.4,671.2,540.6,668.2,534.6,663.6z M416,622.9c-2.2-2.9-3.3-6.3-3-10
	c0-0.5,0.1-1,0.2-1.5c0,0,0,0,0,0c1.6,1.2,3.1,2.3,4.6,3.5c5.2,4.3,9,8.8,10.2,15.3c0,0,0,0,0,0C422.9,629.2,418.6,626.5,416,622.9z
	 M453.4,636.2c-0.7-0.6-1.4-1.4-2.1-2.4c-1.3-1.6-2.2-3.4-3.2-5.4c-0.4-0.7-0.8-1.5-1.2-2.2c-6.6,2.8-9.4,3.6-10.9,1.4
	c-0.9-1.3-1.3-3.6-1.8-7.3c-0.8-5.7,0.2-10.4,2.7-14.5c3.2-5.2,8.7-9.4,15.9-13.2c0,0,0,0,0,0c1.3,3.9,2.4,7.2,3.9,11.7
	c0.1,0.4,0.3,0.8,0.4,1.3c0,0,0,0,0,0c0.5-7.9,0.9-14.5,1.3-21.2c0.5-0.1,0.9-0.2,1.4-0.3c0.2,0,0.4-0.1,0.6-0.1
	c1.2,3.4,2.6,6.7,3.6,10.2c0.3,1,0.6,2,0.8,3.1c0.6,2.8,0.9,5.6,1,8.4c0.1,2.1,0.2,4.1,0.2,6.2c0,1.1,0,2.2-0.1,3.3
	c-0.1,1.8-0.2,3.5-0.3,5.3c-0.1,1.9-0.3,3.8-0.4,5.8c0,0,0,0,0,0c0.7,0.1,1.5,0.2,2.2,0.3c0,0,0,0,0,0c1.2-9.3,2.5-18.7,3.8-28.5
	c0,0,0,0,0,0c5.1,13.3,3.7,25-6.2,35.8c-0.7,0.7-1.3,1.4-1.9,2C459.3,639,456.7,639.3,453.4,636.2z M502.7,683.2
	c-0.9,0.8-2.2,1.6-2.8,1.5c-1.6-0.2-3.1-0.8-4.6-1.6c-8.3-4.6-14.6-17.6-10.5-26.1c0,0,0,0,0,0c10.3,6.5,15.9,14.9,19,24.5
	c0,0,0,0.1,0,0.2C503.7,682.1,503.3,682.7,502.7,683.2z M525.4,682.5c-0.4,1.6-0.8,3.3-1.6,4.8c-0.3,0.5-0.5,1-0.9,1.4
	c-0.6,0.9-1.8,1.9-2.9,2.4c-0.6,0.3-1.2,0.5-1.6,0.4c-1.8-0.4-4.3-2.4-4.4-3.8c-0.1-1.2-0.3-2.3-0.6-3.4c-2-8.8-8.2-15.8-14.5-22.7
	c-2.4-2.7-4.6-5.4-6.5-8.2c-11.6-16.4-15.1-34.5-8.7-55c0,0,0,0,0,0c1.1,2.6,2.4,5.1,3.1,7.8c0.1,0.2,0.1,0.4,0.2,0.6
	c2.9,11.5,8.3,21.8,14.9,31.5c4.7,7,10,13.6,15.3,20.2c3.8,4.7,7,9.6,8.2,14.9C526,676.3,526.1,679.3,525.4,682.5z M544.5,721.5
	c-0.8,0.2-1.5,0.4-2.3,0.7c-0.7-0.4-1.3-0.9-1.9-1.4c-7-5.1-11.6-11.3-10.3-20.3c0.6-4.1,0.7-8.2,1.2-12.4c0.2-1.4,0.4-2.9,0.7-4.3
	c0.3-1.3,1-2.5,1.8-3.7c0.9-1.3,1.9-2.6,2.7-3.9c0,0,0,0,0,0c1.5,2.3,3.9,4.5,4.9,6.8c0.2,0.5,0.4,1.1,0.5,1.7
	c0.1,1.1,0.2,2.3,0.2,3.4c0.3,6.6-0.2,13.3,0.2,19.9c0.2,4,1.3,8,2.1,12C544.3,720.6,544.4,721,544.5,721.5
	C544.5,721.5,544.5,721.5,544.5,721.5z M573.1,731.8c-0.1,0.5-0.3,1-0.6,1.5c-1.1,2-3.7,4-5.4,6c-2.1-1.5-4.7-2.8-6.5-4.4
	c-0.6-0.5-1.1-1.1-1.5-1.8c-0.4-0.8-0.8-1.6-1.1-2.4c-1.2-3-1.6-6.4-2.3-9.6c-1.3-6.8-2.6-13.7-3.7-20.6c-0.3-1.6-0.6-3.3-0.8-4.9
	c-0.1-0.7-0.2-1.5-0.2-2.2c-0.1-2.5,0-5.1,0-8.1c3.1,0.3,6,1.1,8.7,2.3c8.2,3.7,14.1,10.9,14.6,19.1
	C574.8,715.1,574.2,723.5,573.1,731.8z M583.4,621.3c-1.1-3.4-0.4-6.4,1.4-8.8c1.9-2.4,5.1-4.1,9.1-4.8c0.5-0.1,1-0.2,1.6-0.3
	c2.7-0.6,5.4-1.6,7.5-3c7-4.7,13.5-9.8,19.6-15.2c3.2-2.8,6.2-5.7,9.2-8.8c4.5-4.6,8.8-9.5,12.7-14.7c2.8-3.6,6.1-7,9.5-10.3
	c4-3.9,8.2-7.7,12-11.8c0.4-0.4,0.7-0.8,0.9-1.3c0.8-1.5,1.3-3.4,1.3-5.1c0-0.3,0-0.7,0-1c-0.1-1.4-0.4-2.7-0.7-4.1
	c-0.6-2.4-1.4-4.8-1.9-7.3c-0.3-1.3-0.3-2.6-0.1-3.7c0.7-4.1,4.2-6.9,10.6-8.1c6.9-1.3,7.1,3.5,8.2,7.5c1.3,5,2.2,9.9,2.5,14.8
	c1,14.2-2.5,27.8-11.8,40.7c-0.5,0.7-1.2,1.4-1.8,2.1c-3.3,3.3-8.2,5.9-12.7,7.4c-7.1,2.4-9.6-0.2-8.9-7.1c0.1-1.3-0.1-2.6-0.2-3.9
	c0,0,0,0,0,0c-4.7,12.7-11.9,23.4-20.6,32.9c-5.9,6.5-12.5,12.4-19.5,18c-4.4,3.6-9,7-13.7,10.4c-0.3,0.2-0.6,0.4-0.9,0.6
	c-1.7,1.1-3.4,1.5-4.8,1.1c-0.5-0.1-1-0.4-1.5-0.7c-0.8-0.6-1.5-1.6-2.1-2.9c-0.5-1.3-1.1-2.6-1.7-3.9
	C585.5,627,584.3,624.2,583.4,621.3z M622.7,660.4c-5.1,5.5-11.5,9.9-20.5,10.4v0c2.6-11.5,4.6-21.8,7.4-32.1
	c0.5-2.1,3.2-4.6,5.6-5.4c8.2-2.9,15.4-6.7,21.5-11.4c7.2-5.6,12.8-12.6,16.5-21.5c0.1-0.3,0.4-0.6,0.7-0.8c0.3-0.3,0.7-0.6,1.1-0.8
	c0.1-0.1,0.2-0.1,0.3-0.2c0.8,0.1,1.5,0.3,2.3,0.4c0,0.3-0.1,0.5-0.1,0.8c-0.4,2.6-0.7,5.3-1.2,7.9c0,0.1,0,0.1,0,0.2c0,0,0,0,0,0.1
	c-0.2,0.9-0.5,1.9-0.8,2.8C648.6,629.3,636.6,645.5,622.7,660.4z M585.9,661.8c0-0.1,0-0.2,0-0.3c0-0.1,0-0.3,0.1-0.4
	c0.2-0.5,0.3-1,0.5-1.6c0.6-2.7,0.5-6,2.3-7.6c0.9-0.8,2.2-1.2,4.1-1c0.6,0.1,1.1,0.4,1.7,0.9c1.4,1.4,2.6,4.2,4,7.1
	c0.7,1.4,1.4,2.9,2.2,4.2c-3.7,3.3-6.6,7.9-9.3,7.9c-2.2,0-3.7-0.7-4.5-1.8C585.5,667.5,585.5,664.5,585.9,661.8z M602.9,730.6
	c0,0.1-0.1,0.2-0.1,0.3c-0.3,1-0.6,1.9-1,2.9c0,0.1-0.1,0.1-0.1,0.2c-1,2.4-3.8,5.4-6.2,5.7c-0.5,0.1-1.1,0-1.8-0.2c0,0,0,0-0.1,0
	c-0.2-0.1-0.5-0.2-0.8-0.3c-0.1,0-0.1-0.1-0.2-0.1c-1.7-0.8-3.5-2.3-4.7-3.6c0,0,0,0,0,0c-0.1-0.1-0.1-0.2-0.2-0.3
	c-7.3-8.8-8.7-28.8,0.7-42.2c2-2.9,4.6-5.5,7.7-7.6c1-0.7,2.1-1.3,3.4-2c1-0.5,2.1-1.1,3.3-1.8c0.8-0.4,1.6-0.9,2.5-1.4c0,0,0,0,0,0
	c-1.3,17.8,2.5,34-2.3,49.8C603,730.2,603,730.4,602.9,730.6z M623.2,717.4c-1.5,1.8-3.1,3.5-4.3,5.3c0,0,0,0,0,0
	c-0.6-0.2-1.3-0.5-1.9-0.7c-0.4-0.2-0.8-0.3-1.2-0.5c0.4-4.3,1.4-8.5,1.2-12.8c0,0,0-0.1,0-0.1c0-0.6-0.1-1.2-0.1-1.9
	c-0.5-7.7-1.4-15.5-2.1-23.3c-0.1-0.8-0.1-1.6-0.1-2.4c0-1.7,0.1-3.3,0.6-4.9c0.4-1.2,2.4-2.7,3.8-2.8c0,0,0,0,0,0
	c1.1-0.1,3.3,1.6,3.5,2.7c0.5,2.9,1,5.8,1.6,8.7c1.5,8.3,2.9,16.5,3.1,24.8C627.4,712.1,625.4,714.8,623.2,717.4z M639.1,688.3
	c-3.9-1.5-6.4-4.5-7.7-8.4c-0.4-1.1-0.7-2.2-0.8-3.4c-1.2-8.2,2.9-15.1,7.1-22.1c0.7-1.2,1.5-2.4,2.2-3.7c2.5-4.3,4.9-8.5,7.3-12.8
	c7-12.3,13.8-24.7,20.5-36.5c0,0,0,0,0,0c1,4.4,1.7,9,2.1,13.7c0.9,11.9-0.8,24.3-7.8,36.3C654.7,663.8,646.9,675.7,639.1,688.3
	C639.1,688.3,639.1,688.3,639.1,688.3z M671,670.8c-0.7,1.2-1.5,2.4-2.4,3.4c-2.4,2.7-5.3,5.2-8.4,7.4c-1.3,0.9-3,1.4-4.7,1.9
	c-0.5,0.2-1,0.3-1.5,0.5c0,0,0,0,0,0c-0.6-1.8-2.1-3.8-1.6-5.4c0.3-1.1,0.6-2.1,1-3.2c0.8-2.1,1.8-4,3-5.9
	c3.6-5.9,8.7-11.3,13.2-17.2c0.6,0.8,1.2,1.7,1.7,2.6C674,660,673.7,665.9,671,670.8z M704.6,627.3c-0.6,0.1-1.1,0.3-1.6,0.4
	c-0.5,0.1-0.9,0.3-1.3,0.4c0,0,0,0,0,0c-0.3-0.3-0.6-0.7-0.9-1c-0.3-0.3-0.5-0.6-0.8-0.9c0,0,0,0,0,0c-0.1,0.3-0.2,0.6-0.3,0.9
	c-0.5,1.3-1,2.7-1.4,4c-0.2,0.7-0.4,1.4-0.5,2c-0.3,2-0.9,3.5-1.8,4.2c-1,0.9-2.5,1-4.3-0.1c-0.5-0.3-1-0.6-1.6-1.1
	c-2.1-1.6-4.3-3.2-6.3-4.9c-5.4-4.5-9.6-9.6-8.2-17.8c0.1-0.5,0.1-0.9,0.3-1.4c0.1-0.5,0.2-1.1,0.2-1.6c0,0,0,0,0,0c0,0,0,0,0,0
	c0.2-3.8-2-8-2.5-12c-0.3-2.1,0-4.3,0.1-6.5c0-0.5,0.1-1,0.1-1.4c0,0,0,0,0,0c1.1-0.3,2.2-0.6,3.3-0.9c3.8,8.2,7.6,16.3,11.4,24.4
	c0,0,0,0,0,0c0,0,0,0,0.1,0c0.4-0.1,0.7-0.2,1.1-0.3c0,0,0,0,0,0c-0.6-2.5-1.2-5-1.9-7.5c-0.6-2.6-1.3-5.2-1.9-7.9
	c-0.8-3.1-1.6-6.3-2.4-9.5c3.2,1.9,6.3,3.6,9.2,5.3c3.7,2.1,7.1,4.1,10.2,6.5c3.9,3,6.4,6.6,7.7,10.6c1.4,4.2,1.4,8.8,0.1,13.5
	c0,0.1-0.1,0.2-0.2,0.3C710,626,707.2,626.6,704.6,627.3z M718.2,596.5c-0.1,0-0.1,0-0.2,0c-11.4-1.6-22.3-7.6-26.8-15.2
	c-0.5-0.8-1-1.6-1.4-2.4c-2.6-4.3-5-9.1-0.3-15.1c0,0,0,0,0,0c1.4,1.6,2.6,3,3.9,4.4c0.8,0.9,1.6,1.8,2.6,2.9c0,0,0,0,0,0
	c0.9-2.2,1.6-4,2.4-6c0.3-0.6,0.5-1.3,0.8-2c1.9,2.1,3.9,4.3,5.8,6.4c8.1,9,16.2,17.8,24.6,27.1c0,0,0,0,0,0
	c-3.4,0.5-6.9,0.5-10.3,0.1C718.9,596.6,718.5,596.5,718.2,596.5z M762.9,475.6c2.8-0.2,5.7,0.8,9.6,2.7c0.3,0.2,0.6,0.3,1,0.5
	c0,0,0,0,0.1,0c0.5,0.3,0.9,0.9,1.2,1.6c0.8,1.7,1.1,4,0.4,4.6c-4.1,4-10.6,5.1-16.5,3.8c-3.8-0.9-7.3-2.8-9.7-5.8
	c1.1-0.9,2.2-1.7,3.2-2.4C756.7,477.5,759.8,475.8,762.9,475.6z M808.8,503.2c0.3,0,0.6,0.1,1.1,0.3c0.3,0.1,0.7,0.3,1.3,0.5
	c0,0,0,0,0,0c-5.9,8.3-12.7,15.5-22.9,18.8c-22,7.3-43.5,9.7-64.4,5.5c-7-1.4-13.9-3.5-20.8-6.4c-1-0.4-1.9-0.9-2.8-1.5
	c-0.8-0.5-1.7-1.1-2.7-1.7c-0.5-0.3-1-0.7-1.6-1c2.5-1.8,5.1-3.3,7.7-4.5c6.2-2.9,12.6-3.9,18.9-3.5
	C751.4,511.8,780,507.2,808.8,503.2z M718.9,629.1C718.9,629.1,718.9,629.1,718.9,629.1c-1.9-3.5-1.3-7.5,1.5-11.3
	c1.9-2.5,4.7-5,8.4-7.2c0.8-0.5,1.7-1,2.6-1.4c0.6,2.7,0.6,5.2-0.1,7.6C729.9,622.1,725.5,626.4,718.9,629.1z M747.6,589.4
	c-1.2,1.3-2.5,2.6-3.9,3.7c-0.3,0.3-0.6,0.5-1,0.7c-3.4,2.3-8.1,3.1-11.6-1.1c-4-4.7-1.1-7.6,3.5-10.4c0.1-0.1,0.3-0.2,0.4-0.3
	c2.8-1.7,5.5-3.5,8.2-5.2c1.4-0.9,2.9-1.7,4.3-2.5c1.6-0.9,4.5-1.4,5.8-0.6c0.4,0.2,0.7,0.6,0.9,1c0.5,1.1,0.7,2.9,1.4,4.7
	c-0.2,0.2-0.4,0.4-0.5,0.7C752.6,583.2,750.2,586.5,747.6,589.4z M816.2,526c-4.2,9.7-10.5,17.7-18.6,23.6
	c-3.3,2.5-6.9,4.6-10.8,6.4c0,0-0.1,0-0.1,0.1c-0.2,0.1-0.4,0.2-0.6,0.3c-4.3,1.9-9,3.4-13.9,4.5c-6.6,1.4-13.2,2.4-19.7,2.9
	c-19.3,1.5-37.9-1.5-54.6-12c-1.6-1-2.8-2.6-4-4.1c-0.3-0.3-0.6-0.7-0.9-1c0.6-0.3,1.3-0.7,1.9-1.1c1.7-1.1,3.4-2.2,5.2-2.5
	c0.1,0,0.2-0.1,0.3-0.1c1.5-0.1,3-0.3,4.4-0.4c14.9-1.4,29.9-2.4,45.7-2.4c0,0,0,0,0,0c-3.6,2.9-7.1,5.7-10.7,8.6
	c-1,0.8-2,1.6-3.1,2.5c19,0.2,34-5.7,47.1-14.8c11.7-8.1,21.9-18.6,32-29.5c0.3,0.1,0.7,0.2,1,0.2c0.8,0.2,1.6,0.3,2.3,0.5
	c-0.8,5.2-0.7,10.7-2.1,15.7C816.8,524.2,816.5,525.1,816.2,526z M830.5,491.1c-7.6,4.7-18.7,7-29.6,7.1
	c-11.9,0.1-23.5-2.6-29.6-8.1c0.8-0.3,1.6-0.7,2.4-1c1.9-0.8,3.6-1.6,5.4-2.1c1-0.3,2.1-0.6,3.1-0.9c13.3-3.8,26.9-7,39.7-12.2
	c7.4-3,13.1-9.9,19.3-15.4c3.3-2.9,5.9-6.4,9-9.9c0,0,0,0,0,0C855.6,461.2,845.8,481.8,830.5,491.1z M861.1,430
	c-0.7,1.1-1.5,2.2-2.4,3.1c-10.7,11-21.5,22.8-34.5,30.8c-17.4,10.8-37,10.6-57.1,4.9c0,0,0,0,0,0c12.6-9,22.5-18.6,38.5-20.5
	c10.4-1.3,21.1-5.6,31-9.9c6-2.7,11-6.6,13-12c0.9-2.5,1.3-5.2,0.8-8.3c-0.4-3-0.2-5.6,1-7.8c0.7-1.2,1.6-2.2,2.9-3.1
	c1.2-0.8,2.7-1.5,4.5-2c0,0,0,0,0,0C864.4,410.6,865.7,422.2,861.1,430z M876.5,376.4c-2.7,15.3-23.1,30.9-41.6,32.9
	c-3.9,0.4-7.9,0.5-11.5,0.6c11.9-20.9,23.9-41.9,36.3-63.6c4.1-7.2,8.3-14.6,12.6-22c0.7,3.4,1.5,6.8,2.2,10.2
	C877.2,348.5,879,362.2,876.5,376.4z M279.2,252.5c2.9-2.7,6.6-4.7,9.6-6.8c-1,14.1-2.5,27.4-2.7,40.6c-0.3,15.2,6.2,28.5,17.5,38.9
	c9.6,8.8,14.2,18.7,16.3,30.9c9.3,52.1,38.8,89.9,88.1,113.6c31,14.9,63.5,24.8,98.9,25.1c1.6,0,3.3,0,4.9-0.2
	c0.4,0,0.9-0.4,2.3-1.1c-9.4-2-18.1-3.5-26.6-5.7c-42.9-11.2-83.4-27-115.6-57.8c-21.4-20.5-36.6-44.2-41.8-73.1
	c-1.4-7.8-2-15.9-2-23.9c0-9.6,6.4-13.2,15.9-9.7c1.9,0.7,3.6,1.6,5.4,2.5c6.4,3,13.9,4,18.2-0.9c3.4-3.9,3.8-10.7,4.3-16.3
	c0.2-2-2.7-5.4-5-6.5c-11.8-5.4-17.8-14.9-20.3-26.4c-6.6-30.6-4-60.2,14.6-87.4c1.1-1.6,1.9-3.3,2.2-5.4
	C341,200.2,331,225.1,323,250.2c-8,25.2-9.1,51.3-6.5,79.2c-15.3-11.9-23.9-25-25.3-42c-2.2-27.4,7.3-51.6,22.6-74.2
	c23.5-34.7,54.7-61.6,95.4-77.3c38.4-14.8,78.5-19.3,119.3-11.4c6.1,1.2,12.2,3.3,17.5,6.4c6.6,3.8,11.9,2.8,19.2,0.5
	c16.1-5.1,32.9-10.5,49.5-11.1c100-3.9,171.3,38.6,213.5,120.5c8.3,16.2,10.3,34.1,8.3,52.7c-1.7,15.3-12.2,25.4-23.8,35.8
	c-0.3-59.3-12.4-114.4-60.4-155.8c6.3,10.2,13.4,20,18.8,30.6c10.6,21,14.2,43.6,10.7,67.3c-2,13.5-6.7,25.5-23.3,29.4
	c-1.2,0.3-3.2,1.8-3.2,2.5c0.2,5.4-1.1,12.3,2,15.5c2.9,3.1,10.3,2.4,15.8,3.2c0.7,0.1,1.7-0.5,2.5-0.8c13.9-4.9,22,0.1,21.8,14.1
	c-0.3,28.3-8.6,54.2-27.5,77.5c-28.8,35.5-66.8,56.9-110.3,70.1c-12.4,3.8-25.1,6.5-37.6,11.4c13-1.5,26.3-1.9,39-4.7
	c45.6-10.2,86-29.5,115.5-66.4c17.6-21.9,27.5-46.6,31.4-73.2c1.3-8.8,4.2-16,11.3-22.7c23.2-21.9,28.5-47,18.9-74.4
	c-0.7-1.9-0.7-4.1-1.4-8.4c16,8.1,23,20.2,27.6,33.6c6.8,19.7,1.9,39.4-8.7,58c-16.7,29.2-33.8,57.6-50.6,85.6
	c-8.5,14.2-19,27-33.2,37c-38.4,26.9-80.5,45.2-126.1,53.7c-17.6,3.3-36.8,6.7-54.1-1.5c-7.8-3.7-15.2-8.2-23.7-12.8
	c-1.9,1.4-4.6,3.5-7.5,5.4c-11.9,7.7-24.5,12-39.7,12.2c-38.6,0.6-73.5-10.7-107.2-26c-17.8-8.1-35.1-17.6-51.8-27.8
	c-20.4-12.4-33.9-31-45.7-50.7c-16.3-27.3-32.8-55.1-48.5-83.6C254.1,302.7,259.3,271.4,279.2,252.5z M252.4,357.6
	c0.7-9.5,2.8-19.2,3.3-29.6c0,0,0,0,0,0c13.4,22.4,26,43.5,38.6,64.6c3.9,6.5,7.8,13.1,11.8,19.7c0,0,0,0,0,0
	c-3.4-0.2-6.6-0.5-9.8-0.9c-7.3-1-14-2.8-20.1-6.6c-2.8-1.7-5.4-3.8-8-6.4c-2.1-2.1-4.1-4.2-6-6.3c-4.1-4.7-7.5-9.7-8.9-15.9
	c-1.1-5-1.4-9.8-1.2-14.7C252.2,360.2,252.3,358.9,252.4,357.6z"/>
<path fill="#594A42" d="M732.1,307.5c-1.2-2.9-3.2-5.6-5.4-8c-0.9-1-1.9-2-2.9-2.8c-12.7-11.2-36.9-7.5-48.5,5.2
	c-1.3,1.4-2.4,3-3.4,4.6c-1.4,2.5-2.4,5.1-2.9,8c-0.7,4.6-2.4,9.1-2.9,13.7c-0.1,1.3-0.4,2.3-0.7,3.2c-0.7,1.8-1.7,3-3.2,3.6
	c-0.9,0.4-1.9,0.5-3.1,0.5c-1.1,0-2.3-0.1-3.6-0.4c-4.1-0.8-7.3-2.5-9.9-4.8c-3.8-3.3-6.6-7.6-9.8-11.6c-0.1-0.2-0.3-0.3-0.4-0.5
	c-1.6-1.8-4.4-3.7-6.6-3.6c-13.1,0.7-24.5,6.3-33,14.5c-12.6,12.3-18.4,30.4-12.4,47.3c3.1,8.7,5.4,17.7,7.9,27.1
	c0.6,2.2,1.2,4.4,1.8,6.7c0,0,0,0,0,0c0,0,0,0,0,0c2.8-1.4,5.9-3.4,9.3-4.6c4.8-1.6,9.6-3.1,14.5-4.5c1.1-0.3,2.2-0.7,3.3-1
	c5.4-1.6,10.8-3.3,16.1-5c3.8-1.2,7.4-3,11.2-4.4c1-0.4,2.1-0.8,3.1-1.1c0.8-0.3,1.6-0.5,2.4-0.7c3.8-1,7.8-1.8,11.7-2.7
	c-0.1,2.6-0.2,5.2-0.3,7.8c-0.1,1.9-0.2,3.8-0.5,5.7c-0.2,1.2-1.1,2.3-1.9,3.4c-0.4,0.5-0.7,1-1,1.4c-0.8,1.5-1.4,3.1-2.1,4.6
	c0,0,0,0,0,0c0,0,0,0,0,0c0.2,0.1,0.3,0.2,0.5,0.4c0.6,0.4,1.1,0.9,1.7,1.3c0,0,0,0,0,0l0,0c9.8-4.6,19.5-9.4,28.3-15.1
	c15.7-10.4,28.6-24,34-46c2.9,2.9,5.5,5.4,8,7.7c2.9,2.8,5.5,5.5,7.6,8.4c3.4,4.8,2.7,10.5-2.2,15.5c-2.2,2.2-4.3,4.5-6.4,6.7
	c-4.7,4.9-9.3,9.8-13.9,14.7c-4.3,4.5-8.5,9-12.7,13.4c-2,2.2-4.1,4.3-6.1,6.5c3.9-1.2,7.3-3,10.3-5.1c0.9-0.6,1.8-1.2,2.6-1.9
	c1.7-1.3,3.3-2.6,4.9-3.9c2.2-1.9,4.5-3.8,6.8-5.8c2.3,8.4,0.2,16.7-4.2,23.2c-4.2,6.2-10.5,10.8-17.1,12.4
	c-16.5,3.9-33.7,4.5-49.6-1.8c-9.1-3.6-13.1-11.6-10.7-20.7c0.5-1.7,1-3.5,1.5-5.2c0,0,0,0,0,0c0,0,0,0,0,0
	c-17.3-4.5-41.9,3.5-52.6,17c-0.5,0.6-1,1.3-1.5,2c-2.2,2.9-4.4,6.1-4.1,8.9c1.1,9.7,4.5,18.5,8.5,27.1c2,4.3,4.1,8.4,6.2,12.6
	c0.4-0.1,0.8-0.2,1.3-0.3c6.3-1.6,11.5-3.1,16.8-4.2c14.3-3,28.3-6.5,41.9-11c23-7.6,44.9-17.8,64.7-32.6c5-3.7,10-7.8,14.7-12.1
	c22.2-20.3,33.9-43.7,35.7-71.7c0,0,0,0,0,0c0,0,0,0,0,0c-14.2-6.1-21.7-9.5-27.1-15C741.1,329,737.9,321.5,732.1,307.5z
	 M621.8,361.4c-11.4,2.2-22.8,4.6-34.5,7c-3.9-7.1-2.4-13.5,6-17.6c5.3-2.6,11.2-4.6,17.1-5.4c13.9-1.9,27.9-2.9,41.9-4.1
	c2.5-0.2,5-0.1,8.2-0.1c-1.7,9.8-6.5,15.1-15.8,16.5C637.1,359,629.4,359.9,621.8,361.4z M685.4,377.1c1.3-5.3,2.1-8.2,2.4-9.7
	c-14.2,3.4-28.5,6.6-42.6,10.4c-4,1.1-7.7,3.5-11.3,5.7c-3.3,2.1-7.2,6.1-9.5,0.9c-1.2-2.8,1-8,3.3-10.9c1.7-2.1,6.2-2.4,9.6-3.1
	c13.2-2.9,23.5-8.3,27.5-22c0.9-3,6.3-5.2,9.9-7.5c1.3-0.8,3.4-0.7,5.1-1c20.8-4,26.2-8.7,21.8-27.4c-0.3-1.3-0.4-2.6-0.7-5.1
	c19.2,14,21.7,49.3,4.8,64C701.5,375.4,693.3,375.2,685.4,377.1z M594.7,441.3c-1.9-0.2-4.7-2.3-4.9-3.8c-0.2-1.7,1.5-4.5,3.3-5.6
	c6.4-3.9,38.3-0.9,44.4,6.6c-5.9,1.5-11.8,3.9-17.8,4.2C611.4,443,603,442.1,594.7,441.3z M748.7,346.7c2.6,3.7,2.2,9.3,2.2,14.3
	c-17.5-12.3-32.5-26-32.1-49.7c2.2,1.8,4.5,3.3,6.1,5.2C732.9,326.5,741.4,336.2,748.7,346.7z"/>
</svg>
