<?xml version="1.0" encoding="utf-8"?>
<!-- Generator: Adobe Illustrator 27.3.1, SVG Export Plug-In . SVG Version: 6.00 Build 0)  -->
<svg version="1.1" id="Layer_1" xmlns="http://www.w3.org/2000/svg" xmlns:xlink="http://www.w3.org/1999/xlink" x="0px" y="0px"
	 viewBox="0 0 1200 800" enable-background="new 0 0 1200 800" xml:space="preserve">
<g>
	<path fill="#C49A6C" d="M745.7,132c0.1-26.5,0.3-52.8,0.2-78.9c0-5.2-0.2-10.6-1.7-15.6c-3-10.2-14-17-25.9-17
		c-94.9,0-189.7,0.1-284.6-0.1c-83.8-0.1-167.6-0.6-251.5-0.7c-6,0-12.4,0.4-18,2.3c-9.6,3.4-15.3,10.5-15.3,20.3
		c-0.1,19,0.1,38.1,0.3,57.4c0.2,18.8,0.5,37.6,0.7,56.6c0.7,68.4,1.2,138,1.1,208.8c0,36.3-0.2,73-0.5,110
		c-0.2,18.6-0.4,37.3-0.7,56.1c-0.2,12.7-8.7,36.9,4.3,46c9,6.2,30.7,2,41.7,2h24.2h467.6h19.2h25.7c8.1-1.3,10.7-3.7,10.9-11.8
		C747.2,417.3,745.3,272.1,745.7,132z M676,52.1C676,52.1,676,52.1,676,52.1C676,52.1,676,52.1,676,52.1L676,52.1z M626.3,67.5
		c1.3-5,3.6-9.8,5.9-14.6c0.5-1.1,2.6-2.3,4-2.3c11.3-0.2,22.6-0.2,34-0.1c1,0,2,0.3,3,0.6c0.5,0.1,0.9,0.3,1.4,0.4c0,0,0.1,0,0.1,0
		c0.5,0.2,1,0.3,1.5,0.5c0,0,0,0,0,0c-0.2,0.5-0.4,1.1-0.6,1.6c0,0,0,0,0,0c0,0,0,0,0,0c0,0,0,0,0,0c-0.6,1.7-1.2,3.4-2.2,4.7
		c-0.6,0.7-3.3,0.4-4.8-0.1c-11.8-3.9-22-0.7-27.5,9.2c-1.2,2.1-2.1,4.8-1.9,7.1c0.3,3.9-1.1,6.1-4.6,7.7c-1.9,0.9-3.4,2.3-5.7,3.9
		C625.5,79.9,624.8,73.7,626.3,67.5z M671,74.6c-5.4,5-12.1,8-19.9,8.2c-4.8,0.1-7.1-2.2-7.2-6.8c-0.1-7.9,5.8-13.5,14.8-13.6
		c5.4-0.3,9.6,2.8,12.6,7.3C672.2,70.9,672,73.7,671,74.6z M596.8,108.4c2.5-1.5,4.3-3.5,6.3-3.6c4.8-0.3,9.9-0.6,14.6,0.4
		c11,2.5,19.2,9.6,26.8,17.2c0.6,0.6,0.8,1.6,1.1,2.4c-0.2,0.3-0.5,0.5-0.8,0.8c-7.8-3.1-15.4-6.5-23.3-9.3
		C613.8,113.5,605.9,111.3,596.8,108.4z M618.3,133.4c-0.6,0.8-0.6,1-0.7,1c-8.4,0.2-16.9,0.7-25.3,0.2c-2.7-0.1-5.5-2.4-7.9-4.2
		c-0.9-0.7-1.3-2.9-0.9-4c0.3-0.7,2.6-1.3,3.8-1c8.2,1.7,16.3,3.7,24.4,5.7C613.9,131.6,616,132.5,618.3,133.4z M610.2,50.9
		c1.4,0.2,3,1.8,3.7,3.1c1.4,2.6,2.4,5.4,3.1,8.2c0.8,3.6,1.8,7.4,1.6,11c-0.5,7,1.6,13.5,3.9,20c0.6,1.8,1.1,3.8,1.8,6.2
		c-5.6-1.4-10.1-2.5-14.6-3.8c-0.8-0.2-1.4-1.7-1.5-2.7c-1.6-14.7-10.3-23.1-25.5-24.8c-3.1-0.3-3.5,2-3.8,3.9
		c-1.7,9.6,2.3,17.2,10,23.5c1.2,1,2.6,1.8,4,2.5c3,1.5,2.4,2.9,0.2,4.5c-3.7,2.5-7.4,4.2-12.2,2.1c-3.5-1.5-7.4-2.2-11.1-3.3
		c-10.2-3.3-15.7-12.3-13.8-22.3c1.1-5.5,3.9-10.1,8.2-13.9C577,53.3,592.4,48.7,610.2,50.9z M512.6,50.5c17.6,0,35.2,0.1,52.9,0.2
		c0.6,0,1.2,0.3,1.8,0.4c0.3,0.3,0.5,0.6,0.8,0.9c-16.4,10-26.8,22.7-20.6,43.1c-6.6-1.8-13-2.1-16.4-7.2
		c-7.2-10.8-14-21.8-20.7-32.8C509,52.9,508.7,50.5,512.6,50.5z M457.9,50.4c13.8,0,27.7,0,41.6,0.1c1.8,0,3.1,0.4,3.4,2.7
		c0.9,6,2.2,12,3.3,18c0.1,0.7,0.2,1.4,0.3,2.4c-10.6-1.2-46.9-16.8-52-22.4C455.7,50.9,456.8,50.4,457.9,50.4z M437.4,58.8
		c3.3-1.8,5.9-1.8,9.2-0.1c10.8,5.7,21.6,11.5,32.9,16.4c8,3.5,16.7,5.5,25,8.2c1.8,0.6,3.5,1.3,5.3,2c-0.1,0.5-0.3,1.1-0.5,1.6
		c-32.8-7.4-66-12.2-99.9-13.2c0.8-0.6,1.5-1.2,2.3-1.6C420.3,67.7,428.9,63.5,437.4,58.8z M531.7,266.1c-3.7-2.5-7.9-2.4-11.7-0.5
		c-3.5,1.7-6.5,4.2-9.8,6.3c-0.7,0.4-1.7,0.5-2.5,0.7c-0.1-0.8-0.5-1.8-0.2-2.5c5.4-12.4,24.8-15.8,34.4-5.9c3,3,5.5,6.7,7.3,10.5
		c4.8,9.8,12.1,17,22.1,21.9c1.9,1,3.2,3.1,4.9,4.8c-2,1.4-3.9,3.5-6.2,4c-9.6,2.3-18.5-0.7-27.1-4.6c-6.6-3-22.3-16.4-27.2-23
		c3.9-4.5,9-5.4,14.6-5.5c1.7,0,3.3-1.1,4.9-1.6C534.1,269.2,533.2,267.1,531.7,266.1z M534.9,319.1c0.6,1.3,1.1,2.6,1.7,3.9
		c3.7,9.1,5.9,18.6,6,28.5c0.4,26.1-12.8,47.6-35.2,57.5c-1.5,0.7-3,1.3-4.6,1.8c-1.3,0.5-3.2,0.7-4.3,0.1
		c-12.2-6.3-25-7.1-38.2-3.9c-12.2,3-23.7,0.4-35.2-3.1c-17.2-5.2-33.8-11.5-48-22.6c-16.8-13.1-23.8-30-21.2-50.8
		c2.2-18.1,9.9-33.3,24-45.4c1.9-1.7,4.1-3.4,6.4-4.3c15.6-5.9,30.9-12.6,47.7-14.9c24-3.2,46.1,1.5,66,15.1
		C514.5,291,527.4,302.7,534.9,319.1z M511.8,425.8c4.3,1,8.8,1.7,12.5,3.8c3.8,2,3.7,6,0.6,9.1c-4.5,4.4-10.2,5-15.6,4.8
		c0-5.7-0.2-10.7,0-15.7C509.4,427.1,511.1,425.7,511.8,425.8z M462.6,486.3c-5.3,3.6-11.2,6.5-17,9.3c-1.8,0.9-4.6,1-6.4,0.3
		c-23.2-9.9-40.6-25.3-47.9-49.9c-0.3-1.1-0.5-2.1-0.7-3.2c-1.2-8.8-1.2-8.8,6.8-12.5c5.9-2.7,9.7-6.9,9.4-13.7
		c-0.2-4.2,3.3-4.4,6-4.9c9.5-1.7,17.6,1.3,24.3,8c1.8,1.8,3.5,3.8,5.8,6.3c1.8-2,3.1-4,4.9-5.5c7.5-6.3,15.9-8.9,25.6-5.8
		c3.4,1.1,5,2.7,3.8,6.7c-1.8,6.2,0.8,11.3,5.7,15.3c1.4,1.1,3,2,4.6,2.8c7.8,3.9,8.7,5.9,5.1,13.9
		C486.3,467.5,475.3,477.7,462.6,486.3z M481.6,487c-1.1,9.2-3.2,16.9-11.1,21.6c-4.6,2.7-9.6,1.3-11.7-3.3c-0.4-1-0.3-3.1,0.4-3.5
		C466.2,496.9,473.5,492.3,481.6,487z M426.7,507.1c-3.2,4.6-8.8,5.3-13.6,1.4c-6.3-5.2-8.7-12.3-8.7-20.6c2.2,1.7,4.3,3.5,6.5,5
		c4.9,3.3,9.7,6.5,14.8,9.6C427.9,503.8,428.1,505.1,426.7,507.1z M373.7,430.7c1.2,1.3,1.5,3-0.9,3.2c-5.3,0.4-10.5-0.1-15.6-3.2
		C360.8,427.7,371.2,428,373.7,430.7z M350.8,416.1c-1.6-0.7-3.3-1.6-4.6-2.7c-0.8-0.7-1.6-2.5-1.3-2.9c0.7-0.9,2.3-1.8,3.3-1.7
		c2.2,0.2,4.3,1,6.4,1.8c5.3,2.1,10.5,4.2,15.6,6.5c1.2,0.6,2.1,1.9,3.1,2.8c-0.3,0.4-0.5,0.7-0.8,1.1
		C364.9,421.2,357.7,419.2,350.8,416.1z M374.4,408.9c-9.6-4.2-19.1-8.5-28.5-13c-1.6-0.7-2.9-2-4.1-3.3c-0.6-0.7-1.3-2.1-1-2.8
		c0.5-0.9,1.8-1.3,3-2c2.6,1,5.2,1.6,7.4,2.8c8.4,4.7,16.7,9.5,25,14.4c1,0.6,1.5,2.2,2.2,3.3C377.1,408.7,375.5,409.4,374.4,408.9z
		 M411.4,248.6c2.3,2.2,5.1,3.9,7.4,6.1c1.8,1.8,1.4,3.3-1.4,4.3c-6,2-11.7,4.5-17.7,6.5c-12.6,4.2-24.6,2.1-36-3.7
		c-2.4-1.2-4.4-3.5-6.1-5.7c-1.7-2.1-0.8-4.1,2-4.8c1.8-0.5,3.8-0.7,5.7-0.7c8.2-0.3,15.5-2.9,22.3-7.1c3.7-2.3,7.4-4.6,11.3-6.5
		c14-6.7,27.7,0.8,33,15c0.3,0.9,0,2,0,3c-0.4,0.2-0.9,0.3-1.3,0.5c-0.8-1.2-1.8-2.3-2.5-3.6c-2.5-4.2-5.5-7.9-10.4-9.6
		c-1.4-0.5-3.1-1.1-4.3-0.6c-1.6,0.6-3.3,2-3.9,3.4C409.1,245.7,410.4,247.6,411.4,248.6z M460.4,254.5c-0.8,0.1-2.6-1.5-2.5-2.2
		c0.1-1.1,1.4-2.5,2.4-2.8c0.8-0.2,2,1.1,3.8,2.1C462.5,253,461.6,254.3,460.4,254.5z M429.1,50.5c-1.1,1.7-1.5,2.6-2.2,3.2
		c-10.5,8-23.1,12.2-35.4,16.5c-1.6-6.7-3.1-12.9-4.7-19.6H429.1z M335.8,54.3c-0.1-3.3,0.9-4.7,4.4-4.5c0.8,0.1,1.6-0.1,2.4,0
		c3.9,0.1,8.4-0.9,11.3,0.7c2.5,1.4,3.1,5.8,4.6,8.9c2.5,5.4,6.4,9.7,11.7,12.9c1.2,0.7,2.3,1.4,3.5,2.2c-0.1,0.3-0.2,0.7-0.2,1
		c-23,2.8-45.4,8.3-67.2,16c-1.2-3.2-1.1-3.4,2.3-4.3c6.3-1.6,12.1-4.1,16.7-8.7C332.2,71.6,336.1,63.6,335.8,54.3z M267.6,51.4
		c0.1-0.6,1.3-1.4,1.9-1.4c12-0.2,24-0.2,36-0.2c0.8,0,1.6,0.6,3.1,1.1c-7.1,9-9.6,19-9.4,30.9c-1.7-1.5-2.6-2.1-3.2-2.9
		c-6.7-9.7-15.8-14.8-28.5-13.6c-0.8,0.1-1.5-0.1-2.5-0.3C266,60.3,266.7,55.8,267.6,51.4z M260.3,255.3c0,1.4-0.1,2.8-0.1,4.5
		c-5.9-0.9-11.1-0.9-14.4-5.4c-0.5-0.7-1.5-1.3-2.4-1.5c-5.5-1.2-6.3-4.8-6.2-9.7c0.3-11.7,0-23.3,0-34.9c0-1.1,0.1-2.3,0.1-4
		c6-0.1,11.1,1.5,15.2,5.3c5,4.6,8,10.1,7.8,17.2C260,236.4,260.3,245.8,260.3,255.3z M235.7,281.7c-1.4-5.2,0.6-10.7,5.6-13.9
		c1.4-0.9,4.2-1.4,5.5-0.7c6.8,3.6,10.5,9.5,11.2,15.7c-0.1,7.2-3.3,9.9-9.3,9.3C243.2,291.6,237,286.6,235.7,281.7z M246,316.4
		c-3.8,1.8-13.2-0.8-13.8-3.9c-0.3-1.7,1.5-3.8,2.6-6.5C239.2,310.1,242.5,313.2,246,316.4z M237.4,261.7c0.1,0.7-1.7,1.6-2.6,2.5
		c-0.9-1-2.1-1.9-2.7-3.1c-0.2-0.3,1.3-1.4,2.6-2.7C235.9,259.8,237.3,260.7,237.4,261.7z M233.4,294.2c-0.7,8.7-7,16.6-15,18.9
		c-2.4,0.7-3.9,0.1-5.3-1.6c-6.6-7.9-5.5-17.7,3.1-24.3c3.1-2.4,7-3.9,10.5-5.6c2.1-1,3.7-0.7,4.2,1.9
		C231.7,287,232.6,290.6,233.4,294.2z M193.6,275.5c1,5.3-1.8,9.6-5.1,13.5c-2.4,2.7-2.4,5-0.2,7.4c2.3,2.4,4.5,4.8,7.1,6.9
		c4.7,4,4.1,8.4-1.7,10.7c-2.6,1-5,2.2-8.1,3.5c-0.3-2.1-0.6-3.8-0.6-5.4c-0.2-18.1-0.4-36.1-0.4-54c0-2.7,0.4-5.6,1.6-8.1
		c3.1-6.7,6.6-13.3,9.9-19.9c0.5,0.1,1,0.1,1.5,0.2c0.3,1,1,1.9,1,2.9c0.2,9.2,0.5,18.3,0.4,27.5c0,1.5-0.9,3.3-2,4.6
		C194.4,268.3,192.9,271.5,193.6,275.5z M200,287.1c2.7-2.6,5.9-3.2,10.3-1.9c-1.8,2.6-3.1,4.8-4.8,6.8c-1.8,2.1-5,2.1-6.9,0.1
		C196.6,289.9,198.6,288.5,200,287.1z M207.3,273.4c0.8-6.2,5.5-10.8,11.9-11.6c5.2-0.7,9.3,2.1,11.4,7.5c1,2.6,0.6,4.9-2.1,6.1
		c-4.9,2.1-9.9,3.8-14.9,5.6C208.5,280.1,206.7,278.1,207.3,273.4z M227.9,250.8c-1.4,0-2.9,0.7-4.3,1.3c-4.2,1.7-8.4,3.3-13.1,2.1
		c-1.5-0.4-3.2,0.3-5.6,0.6c-0.2-1.6-0.4-3-0.5-4.4c-0.3-8.5-0.7-17-0.9-25.5c0-1.2,0.1-2.7,0.8-3.8c5.2-8.7,12.7-14.4,23.1-16.4
		c2.7-0.5,4,0.1,4,3.1c0,12.7,0.2,25.5,0.4,38.4C231.8,249,231.4,250.9,227.9,250.8z M225.4,108.9c-1.6-2-1.6-3.1,0.8-4.5
		c12.2-6.7,22.7-15.3,32.2-25.2c5.4-5.6,12.4-4.8,19.1-2.9c6.8,1.9,10.5,6.5,11.2,13.2c0.7,6.3-1.7,10.8-7.4,14.9
		c-13.6,9.7-26.7,20.2-40.1,30.5c-2,1.5-3.8,3.1-6.5,5.3c-0.2-3.8-0.2-6.4-0.4-9.1C233.7,122.9,230.6,115.4,225.4,108.9z
		 M235.2,87.1c0.4-3.2,0.8-6.5,1.2-10.5c2.6,1.5,4.6,2.6,7.3,4.1c-2.9,2.7-5.1,4.8-7.3,6.9C236,87.5,235.6,87.3,235.2,87.1z
		 M243.2,53.9c0.2-3.3,2.2-4,5-4c2.4-0.1,4.8-0.3,7.2-0.2c4.3,0.2,5.4,1.4,3.9,5.2c-2.1,5.3-4.4,10.6-7.5,15.4
		c-4,6.2-10.4,6.3-15,0.6c-1.9-2.4-3.1-5.4-4.6-8.1c3.3-2.1,6-3.6,8.4-5.4C241.8,56.7,243.2,55.2,243.2,53.9z M235.2,49.3
		c0.7,0,2,0.9,1.9,1.3c-0.2,1.5-0.4,3.8-1.4,4.3c-2.3,1.2-5.2,2.3-7.7,2.1c-3.4-0.2-4.6-3.2-5.8-6.8
		C227.1,49.8,231.2,49.4,235.2,49.3z M181.2,59.7c0.3-2.9,0.8-6.8,2.8-8.5c4.6-3.8,11.6-0.8,12.5,4.8c0.4,2.6,0.7,5.2,1.3,7.7
		c1.8,6.9,8.2,11.8,15.1,11.4c5.6-0.3,8.9-2.9,10.2-8.1c0.2-0.8,0.5-1.6,1.1-3.7c2.2,2.3,4.5,3.7,5.5,5.8
		c6.1,12.6-6.2,30.7-21.6,31.6c-0.2-0.8-0.5-1.6-0.5-2.4c0.5-11.3-4.8-20.6-10.9-29.5c-2.5-3.6-6.3-5.4-10.8-6.2
		C183.9,62.1,180.9,62.4,181.2,59.7z M193,73.5c5.6,6.9,9.8,14.5,7.6,23.9c-1,4.4-3,5.8-8,6c-5.8,0.2-10.9-1.9-11-5.4
		c-0.5-9.8-0.4-19.5-0.5-29.8C186.5,68.4,190.4,70.3,193,73.5z M185.7,112.4c8.3-0.5,16.6-1.7,24.9-2.6c1.3-0.1,2.7,0.2,4.1,0.3
		c-0.4,1.2-0.5,2.5-1.2,3.5c-8.4,12.9-8.1,25.8-0.3,38.4c2,3.2,1.6,5.2-1,8c-9.4,10.3-18.4,20.8-27.6,31.3c-0.7,0.8-1.4,1.5-2.8,3
		c-0.3-2.5-0.8-4.2-0.8-5.9c0-24,0.1-47.9-0.1-71.6C181,113.4,182.1,112.6,185.7,112.4z M166.9,438.1c1-0.3,2.3,1,4.8,2.3
		c-2.6,1.6-3.9,3-5.4,3.2c-0.9,0.1-2-1.5-3.1-2.4C164.4,440.1,165.5,438.6,166.9,438.1z M167.5,466.8c-4,0-7.5-3.5-7.4-7.3
		c0.1-3.1,4.2-6.5,7.8-6.5c3.4,0,7.2,3.8,7.2,7.2C175,463.6,171.4,466.8,167.5,466.8z M177.1,529.2c1.5-10.3,2.1-20.7,7.5-30.9
		C182,509.1,179.6,519.2,177.1,529.2z M187,492.3c-1.9-3.5-1.3-20.3,1.5-24.7c3.4,4,6.7,7.7,9.6,11.7c0.5,0.7-0.5,3.2-1.5,4.2
		C193.5,486.6,190.2,489.4,187,492.3z M208.8,439.7c2.5-2.2,4.3-5.1,6-7.3c3.4,2.6,6.5,6.5,10.4,7.5c3.8,1,8.5-0.9,13.1-1.6
		c0,2.4-1.4,4.2-4.3,4.8c-1.5,0.3-3.1,0.6-4.5,1.2c-4.7,1.9-5.3,4.2-2.3,8c2.7,3.5,2.3,4.9-2.5,8c-8-12.7-17.6-9.2-27.5-0.5
		l-0.7-1.1c0.6-1.7,1-3.5,1.7-5.1c2.3-5,1.9-6.1-3.5-7.6c-0.8-0.2-1.8-0.2-2.4-0.7c-0.9-0.8-1.6-1.8-2.3-2.7
		c1.1-0.1,2.3-0.7,3.2-0.4C198.9,443.8,204.3,443.7,208.8,439.7z M193.7,429c0-2.2,3.4-4.8,6.1-4.8c3.1,0,6.5,3.3,6.4,6.7
		c-0.3,2.7-2.4,4.1-5.3,4.2C197.8,435.3,193.7,431.6,193.7,429z M224.4,428c1.8-1.7,3.5-3.3,5.9-5.5c2.3,1.9,3.8,3.2,5.4,4.5
		c-2.2,1.6-4.1,3.8-6.5,4.5C227.9,431.8,226,429.2,224.4,428z M242.7,481c2.9,12.1,10.5,19,23,20.8c3.4,0.5,7.6,0.5,6.9,5.7
		c-0.2,1.5-1.5,3.6-2.7,4c-4.4,1.5-9,2.3-13.5,3.4c-17.9-0.7-30.2-11.3-32.1-27.7c-0.6-5.2,1.1-9.6,4.2-13.6c4.6-6,9.3-12,14-18
		c0.6-0.7,1.4-1.4,2.3-1.8c9.4-3.7,23,4.9,23.6,14.9c0.3,4.8-0.6,5.3-5.6,5c-5.2-0.3-10.6-0.2-15.8,0.5
		C242,475.1,241.6,476.4,242.7,481z M217.6,469.4c-0.2,3.8-3.6,6.8-7.7,6.8c-3.9,0-7.8-3.6-7.7-7.1c0.1-3.8,3.9-7.9,7.4-7.9
		C213.9,461.1,217.8,465.2,217.6,469.4z M196.5,549.8c0.1-2,0.1-4,0.2-6c0.6-15.3,2.4-30.6,8.6-45.1c0.7-1.6,1.7-3,3.1-4.5
		c4.5,16.2,1.2,33.2,3.4,50.8c2.8-2.4,4.6-4.1,7.7-6.7c0,3.8,0.1,7.6,0.2,11.4H196.5z M280.6,534.1c-0.2,7.6-3.4,13-9.1,15.6h-22.6
		c0,0,0,0,0-0.1c1.1-1.1,2.2-2.3,3.3-3.4c3.6-3.6,5.2-7.9,4.1-12.8c-0.3-1.3-1.7-2.4-2.6-3.5c-1.1,1-2.6,1.8-3.1,2.9
		c-2,4.7-5.6,6.7-10.4,6.9c-6.3,0.3-12.4-0.2-17-4.7c-1.7-1.6-3-4.3-3.3-6.6c-0.4-4.3,0.1-8.7,0.3-13c0.1-1.5,0.6-2.9,1.1-5.1
		c2,1.3,3.6,2.1,5,3.2c11.5,9.5,24.8,11.7,39.3,8.5C277.4,519.4,281,522.2,280.6,534.1z M298.3,527.8c-0.4,0.5-3,0.3-3.4-0.4
		c-2.4-3.5-4.8-7.1-6.4-11c-1.3-3.1,1.6-7.5,5-8.7c3.6-1.3,5.3,1.2,6.6,3.6c1.4,2.6,2.1,5.7,3.3,9.2
		C301.7,522.9,300.2,525.5,298.3,527.8z M366.3,549.8h-12.9c-1-0.2-1.8-0.6-2.2-1.2c-1.8-2.5,1.9-9.7,5-11.2
		c3.6-1.8,6.2,0.1,8.6,2.5c0.6,0.6,1,1.3,1.4,2.1C368.5,546.2,368.7,548.6,366.3,549.8z M564,507.4c1.5-3.2,3.9-3.6,5.8-1.1
		c3.9,4.8,8.6,8,15,8.6c0,0.4,0,0.8,0,1.2c-6.2,5.1-12.4,10.3-19.5,16.3C563.3,523.3,560.2,515.6,564,507.4z M623.3,492.1
		c2.4-0.8,4.3-1.5,6.2-2c1.3-0.3,3-0.9,4-0.3c7.5,3.7,15,2.2,22.7,1.5c3.8-0.3,7.8,0.4,11.7,1c1.1,0.2,2.5,1.4,2.9,2.5
		c1.3,3.4-2.2,10-5.6,11.3c-7.5,2.8-15.2,2.2-22.8,0c-5.3-1.5-10.6-3.1-15.8-4.8C623.3,500.2,622.6,498,623.3,492.1z M622.7,483.9
		c-0.9-7.3,1.5-13.5,6.2-19.8c2.8,4.6,8.1,6.4,8.8,12.2c0.3,2.1,2.9,4,5.1,6.8c-6.4,1-12.4,1.9-18.3,2.7
		C624,485.8,622.8,484.6,622.7,483.9z M665.1,468.6c-8.7-3.7-16.9-2.1-25,1.8c-0.8-2.7-1.5-5.2-2.4-7.6c-1.8-5-1.3-6.1,3.7-8
		c6.9-2.7,11.9-1.6,17.1,3.8c2.6,2.8,5,5.8,7.5,8.7C665.7,467.8,665.4,468.2,665.1,468.6z M649,443.3c-2,0.7-3.9,1.4-5.9,2.1
		c-5.9,2-11.8,3.9-17.7,5.9c-1.3,1.8-2.7,3.6-4,5.3c-1.4,1.8-2.7,3.6-4,5.5c-6.3,8.9-6.9,18.8-4.4,29.1c2.1,8.7-0.8,13.1-10,17.6
		c-3,1.5-6,1-8-1.7c-3.1-4.4-5.9-9.1-8.3-14.1c4.7-0.2,7.1,3.1,10,5.5c1.8,1.5,3.2,3.6,5,5.2c0.8,0.6,2.2,0.5,3.4,0.6c0-1,0.2-2,0-3
		c-0.9-4.1-1.8-8.3-6.7-9.8c-1.6-0.5-3.3-0.6-4.8-1.1c-1.2-0.4-2.2-1-3.3-1.6c-0.6-0.4-1-1.3-1.5-1.3c-5.6,0.1-4.9-4-5.1-7.3
		c-1.4-20.9,9.6-34.6,26.7-44c8.5-4.6,18.2-7.3,27.3-10.8c0.9-0.3,1.9-0.4,2.9-0.5c6.7-0.7,6.9-0.4,7.7,6.2c0.4,3,1.5,5.9,2,8.9
		C650.5,441.1,649.8,443,649,443.3z M583.9,549.7c-3.5,0-4.1-2.5-2.2-4.5c4.5-5,9.3-9.6,14.2-14.1c0.5-0.5,2.6-0.1,3.1,0.5
		c4.1,5.1,8,10.3,11.9,15.6c0.3,0.4,0.3,1,0.8,2.5C601.9,549.7,592.9,549.8,583.9,549.7z M651.5,539.9c-1.9-0.1-5.1-2-5.4-3.5
		c-0.9-4.1-0.5-8.5-0.6-12.7c-0.1-1.5-0.3-3-0.4-4.4c-1.4,0.7-3.4,1.1-3.9,2.2c-2.3,4.5-4.1,9.2-6.2,14.2c-2.9-2-6.3-4.6-10-6.5
		c-3.2-1.7-6.8-2.7-10.4-3.8c-3.1-0.9-4-2.8-2.6-5.4c5-9.6,9.7-13.5,19.9-9.5c11.5,4.5,23.4,6.9,35.6,3.6c2-0.6,3.4,0,3.9,2.5
		C673.8,529.2,664.5,540.4,651.5,539.9z M672.2,488.6c-2.2-1.7-3.9-3.1-6.1-4.9c1.9-0.9,3.8-1.8,5.8-2.8c0.4,0.2,0.8,0.5,1.2,0.7
		C672.8,484,672.5,486.2,672.2,488.6z M661.8,431.5c8.5,2.3,15.2,0.6,19.4-8.3c4.5,9.6,11,14.6,21.5,11.8c0.1,0.4,0.2,0.9,0.3,1.3
		c-0.9,0.8-1.7,2-2.8,2.4c-5.4,2-5.8,2.7-4.1,8.1c0.3,1.1,0.5,2.2,0.4,3.7c-6.5-6.6-13.9-9.2-23-7.1
		C673.7,435.4,665.1,436.6,661.8,431.5z M663.4,419.1c0.8-0.8,1.5-1.9,2.5-2.2c0.7-0.2,1.7,0.5,3.8,1.3c-1.9,1.3-2.7,2.2-3.7,2.3
		C665.1,420.5,664.2,419.6,663.4,419.1z M695.2,416.6c2.7,0,5.6,0.1,6.2,3.6c0.5,2.9-3.9,7.3-8.5,7.5c-0.8-0.9-2.9-2.3-3.5-4.2
		C688.5,421.1,692.6,416.6,695.2,416.6z M679.1,457.3c2.5-3.8,4.7-4.6,7.3-2.4c2.1,1.8,4.1,3.9,5.7,6.1c2,2.7-1.1,9-4.6,9.1
		c-0.3-0.1-1.4-0.4-1.4-0.8c-0.3-3.6-3.5-3.9-5.9-5.2C676.7,462.2,677.4,459.8,679.1,457.3z M681.4,549.8c-0.1-2.6-0.2-5.2-0.2-7.8
		c0.2-0.1,0.5-0.4,0.7-0.4c5.5,1.3,6.4,0.8,6.4-5c0-9.8-0.6-19.7-0.3-29.5c0.1-4.4,1.8-8.7,2.7-13c0.7,0,1.5,0,2.2-0.1
		c1,1.8,2.1,3.5,2.9,5.4c6.5,16.2,9.3,33.1,10.3,50.3H681.4z M708.3,482.6c-3.2-1.2-5.7-1.9-8-3c-0.8-0.4-1.2-2-1.6-3
		c-0.2-0.4,0-1.2,0.3-1.6c2-2.1,4.2-4.2,6.3-6.2c1,2.4,2.2,4.8,2.8,7.3C708.5,477.9,708.2,479.8,708.3,482.6z M711.8,266.8
		c-0.1,2.1-1,5.4-2.4,5.8c-2.8,0.8-5.6-0.5-7.4-3.6c-6.7-11.4-21.6-15.7-35.4-10.4c-3.5,1.3-2.3,3.5-1.1,5.4
		c5.3,8.9,13.2,14.3,23.8,15.7c2,0.3,4.2,0.5,6.2,0.3c6.5-0.7,10.6,3,14.5,7.2c0.7,0.8,1.2,2.2,1.3,3.2c0,12.2-0.1,24.5-0.2,36.8
		c0,1.4-0.5,2.7-1.7,4.3c-0.8-1.3-1.6-2.6-2.5-3.8c-3.9-4.9-7.8-9.9-11.9-14.6c-0.6-0.6-1.5-0.9-2.6-1.2c-0.6-0.1-1.2-0.3-1.8-0.5
		c0,0.2,0,0.4,0,0.6c-0.1,1.3-0.4,2.6-0.1,3.9c3,14.7,10.2,28,17.1,41.4c2.4,4.7,3.4,9.4,3.3,14.5c-0.3,10.8-0.3,21.7-0.4,32.6
		c0,1.7-0.3,3.4-0.4,4.6c-7-1-13.6-1.9-20.2-2.9c6.2-11.4,1.8-21.9-6.1-31.8c-3.2-4-4-4-7.4-0.5c-8.6,8.9-10.4,19.8-5.2,31.2
		c0.4,0.8,0.6,1.7,1.1,3c-9.2-1.9-16.4,0.1-21.6,7.4c-0.6,0.8-2.1,1.3-3.2,1.3c-24.6,0.7-45.6,9.2-61.9,27.5
		c-8,9-11.5,19.7-11.4,31.6c0.1,4.7-1.3,7.3-6,8.8c-7.9,2.5-12.8,8.1-14.8,16.2c-0.7,2.7-1.5,5.3-2.3,8.5c-1.8-0.7-3.4-1.3-4.9-2
		c-7-3-14.2-3.7-21.6-2.2c-4.2,0.9-4.7,1.9-3,5.8c5.7,13.1,15.4,21.5,29.8,23.8c4.8,0.8,6.4,2.8,6.3,7.4c-0.1,5.2-0.1,6.8-2.8,7.3
		h-171c-1.3-0.7-2-1.9-2.5-4.1c-2-10.1-11.8-18.4-21-18.4c-9.8,0-20.2,8.1-22.5,18.4c-0.5,2-1.1,3.3-2.2,4.1h-30.1
		c-0.5-0.7-0.6-1.8-0.6-3.4c0.2-9.6,5.6-13.9,14.2-16.3c9.7-2.7,18.9-6.9,25.2-15c3.4-4.4,5.7-9.7,8.3-14.6c1.4-2.6,0.2-3.8-2.5-4.4
		c-7.6-1.6-14.8-0.5-22,2.3c-1.4,0.5-2.8,1.1-4.5,1.8c-0.6-1.6-1.1-2.8-1.6-4.2c-1.4,0.7-2.6,1.4-3.8,2.1c-3,1.7-5.8,1.8-8.4-0.7
		c-1-1-2.1-1.8-3.3-2.6c-5.4-3.5-10.1-3.4-15.1,1c-3,2.7-5.6,5.9-9,9.5c-0.2-1.9-0.4-3.3-0.5-4.7c-0.4-8.1-0.4-16.2-1.1-24.2
		c-1.1-13.4-6.2-24.4-19.6-29.6c-4-1.5-8.3-2.2-12.8-3.3c0.4-3.2,1-6.6,1.2-9.9c0.6-7.2-1.4-13.4-8.3-16.9c-7.2-3.7-14.5-2.7-20.9,2
		c-3.7,2.7-5.8,2.9-9.5,0c-6.2-4.9-13.4-5.2-20.9-1.7c-1.4,0.6-2.7,1.3-4.8,2.3c-0.2-7.5-2.3-14.2,3.6-20.3
		c6.3-6.4,12.2-13.1,18.2-19.7c7.9-8.7,17.6-14.5,29-17.4c3.9-1,7-3.1,9.5-6.8c-5.7-1.9-11-0.3-16.2,0.2c-2.9,0.3-6.2,2.1-8.4,1.2
		c-1.9-0.8-2.2-4.6-3.5-6.8c-3.9-6.8-9.4-11.7-17.6-12.9c-6.5-1-9.4,1.6-9,8c0.6,8.4,6.9,15.8,15.2,17.9c1.1,0.3,2.2,0.6,3.8,1.1
		c-8.4,6.3-16.2,12.2-24.6,18.5c-0.2-2.1-0.5-3.7-0.6-5.2c-0.1-8.4,0-16.8-0.3-25.1c-0.2-6.3,1.3-12,5.4-17.1c4-4.9,8-9.8,12-14.7
		c2.4-3,5-2.6,6.6,0.2c2.3,4.1,5.8,4.5,9.7,3.5c7.1-1.8,13.7-1,20.1,1.8c1.2,0.5,2.7,0.7,3.9,1.1c4.3,1.6,7.7,0.9,10.9-2.9
		c2-2.3,4.9-4,7.6-5.6c2.8-1.5,4.1-3.4,3.9-6.5c-0.1-1.1,0.1-2.1,0.1-3.2c-0.4-6.5,0.3-12.3,7.7-15.6c3.4-1.5,3.9-4.1,0.9-7.2
		c-5.5-5.5-7.8-12.1-7.4-20.1c0.6-11.4,0-22.9-0.1-34.3c0-1.7,0.1-3.3,1.1-5.4c0.6,1.2,1.4,2.4,1.9,3.7c1.7,4.4,3.2,8.8,5,13.2
		c1.1,2.8,3.2,4.1,6.5,3.2c6.5-1.8,10.1,2.5,14,6c0.6,0.6,0.7,1.9,0.7,2.9c0,27.2,0,54.6-0.1,82.2c0,1.2-0.2,2.4-0.4,4.1
		c-1.4-0.2-2.6-0.4-3.7-0.6c-4.7-0.8-8.8,2.2-7.8,6.7c0.8,3.6,2.8,7.4,5.6,9.8c9.4,8.2,7.5,7.5,16.8,0.3c2.2-1.7,4.3-4,5.7-6.4
		c3.3-5.8-0.2-10.9-7-10.7c-0.9,0-1.9,0.2-4.3,0.4c0.2-7.6,0.4-14.7,0.4-21.7c0.1-20.7,0.2-41.3,0-61.8c0-3.6,1.3-4.8,4.8-4.2
		c5.7,1,11.4,2,17.9,3.2c2.3-8.7,9.6-16.3,9.1-26.5c-0.1-1.2,1.3-3,2.5-3.7c4.7-2.9,9.8-5.3,14.4-8.4c3.8-2.5,3.7-4,0.8-7.4
		c-3.1-3.7-6.3-7.4-9.5-11.1c-3.1-3.6-6.4-6.9-6.8-12c-0.1-1.2-1.1-2.9-2.2-3.4c-10.3-4-20.7-7.7-32.2-4.2
		c-5.1,1.6-9.2,4.4-12.4,8.6c-1.1,1.4-3,2.6-4.8,3.1c-4.1,1.3-7,3.2-8,7.5c-1.1,4.7-1.8,4.9-6.3,2.6c-9.2-4.6-18.9-8.2-29.3-9.6
		c-2.5-0.3-5.1-0.5-8.3-0.8c0.7-1.3,1-2.5,1.8-3.2c15.7-13.9,33.5-21.7,55-18.5c3.4,0.5,6.7,2,9.8,3.4c3,1.4,5.6,1.5,7.4-1.4
		c1.8-2.9-0.6-4.6-2.6-6c-9.2-6.6-19.8-8.7-31-6.8c-8.6,1.5-16.9,4.7-25.4,7.1c-1,0.3-1.9,0.5-3.5,0.1c1.3-1.6,2.5-3.2,3.9-4.7
		c13.9-14.2,29.3-26.5,46.2-37.1c3-1.9,6.3-3.5,9.6-5.1c7.1-3.4,13.4-2.1,19,2.7c1,0.9,2,2.2,2.2,3.4c2.1,14.8,12,22.6,26.3,26
		c6.6,1.5,13.6,1.3,20.5,1.5c1.2,0,3.5-1.6,3.5-2.5c1-15-5-32.8-22.4-40.2c-7.7-3.3-15.6-3.5-23.3,0.5c-2.2,1.1-3.8,1.1-5.3-1.6
		c1.8-0.8,3.4-1.8,5.2-2.4c28.1-9.5,56.9-14.9,86.7-13.6c2.3,0.1,4.6,1.2,6.8,1.8c-1.1,3.3-4.1,2-6.4,2.4
		c-16.1,2.6-20.3,14.9-19.1,27.3c0.1,1,2.2,2.6,3.5,2.7c6.9,0.6,13.4-0.7,19.3-4.5c1-0.6,2-1.2,3.7-2.3l-0.2,31.8
		c-1.1-0.4-1.9-0.7-2.7-1c-7.8-4-13.9-3.8-19.2,0.6c-4.9,4-6.8,11.7-3.5,18.5c2.2,4.6,5.4,9,9,12.6c5.2,5.2,11.3,9.6,17,14.4
		c1.9,1.6,3.5,1.9,5.6-0.1c6.6-6,13.6-11.6,19.8-17.9c4.2-4.2,7.4-9.3,7.5-15.5c0.1-6-2.5-10.7-7.9-13.8c-5.2-3-10.3-2-15.3,0.7
		c-1,0.6-2.1,1.1-3.7,2.1c-0.2-1.6-0.5-2.8-0.5-4c0-11.5,0.1-23,0.1-34.5c0-5.3,2.4-9.3,7.8-10.8c6-1.6,12.2-2.9,18.4-3.7
		c4.8-0.6,5.4,0.2,5.4,4.8c0.1,12.7,0.1,25.5,0,38.3c-0.2,31.1-0.5,62.5-0.6,94.1c0,3-0.3,5.2-3.7,6.9c-2.1,1-3.7,4.2-4.3,6.7
		c-0.6,2.4-1.5,3.2-3.9,3.5c-2.8,0.3-3.5-1.2-4.1-3.3c-2.9-9.8-8.4-17.7-17.6-22.7c-12.1-6.7-24-4.8-35.6,1.9
		c-0.7,0.4-1.4,0.8-2,1.3c-8.3,7.4-18,10.2-29.3,9.8c-10.2-0.3-16.2,10.1-11.5,19c4,7.7,11.4,11.4,19.2,14.5
		c1.9,0.7,3.8,1.3,6.3,2.2c-29.1,30.6-37.5,64-15.8,102.5c-2.2-0.4-3.6-0.6-5-0.8c-3.3-0.5-6.5-1.3-9.8-1.3
		c-9.9-0.2-14.9,5.9-12.7,15.4c0.2,0.8,0.3,1.7,0.7,2.3c3.1,4.2,3.7,8.6,2.8,14c-0.9,5.8,3.6,10,8.1,13.5c2,1.6,2.9,3.1,3.1,5.7
		c0.5,5.9,4.2,10,9.2,12.9c6.8,4,14.3,5.2,22.2,4.7c1.3-0.1,3.8,0.2,3.9,0.8c0.6,2.5,0.6,5.1,0.8,7.7c0,0.2-0.4,0.4-0.6,0.6
		c-11.8,12.6-7.8,29.1,8.6,34.8c3.1,1.1,4.4,2.6,5.1,5.7c2,8.2,5,15.9,11,22.3c7.1,7.6,17.8,9.6,26.5,4.2c2.9-1.8,5.3-5.1,6.9-8.1
		c1.6-3,3.6-3.8,6.6-4.2c3.1-0.4,3.9,1.7,4.9,3.6c7.7,15.7,26.4,12.3,34.3,2.7c7.3-8.8,11.1-19.3,11-30.1
		c-0.1-11.3,6.3-19.1,10.8-28.1c0.5-0.9,2.5-1.2,3.9-1.6c6.4-1.5,13-2.2,19-4.6c7.8-3.1,12-9.6,11.7-17.9
		c-0.3-8.3-6.1-12.9-13.4-15.9c-1.3-0.5-2.6-0.9-4.7-1.6c35.9-27.3,38.8-62,24.5-101c5.1,0.7,9.6,1.3,14.2,1.8
		c6.8,0.8,13.6,0.5,19.8-2.6c5.1-2.5,8.9-6.3,9-12.3c0.1-6-3.5-9.9-8.8-12.5c-0.6-0.3-1.2-0.7-1.8-0.9c-8.9-2.6-14.1-8.8-17.7-16.7
		c-1.6-3.5-3.6-6.9-5.9-10c-12-16.3-32.5-18.4-47.6-5c-2.8,2.5-5.5,5.2-7.9,8c-1.4,1.7-2.5,1.6-4.5,0.8c-6.8-2.8-13.7-5.4-20.6-7.7
		c-2.4-0.8-3.4-1.6-3.1-4.1c0.4-4.2-0.5-7.9-4.7-10.6c-1.4-0.9-1.7-3.9-1.7-6c-0.1-18.1-0.1-36,0-53.9c0.1-26.3,0.3-52.5,0.4-78.5
		c0-4.7,0.4-5.1,5.3-4.6c6.3,0.6,12.5,1.5,18.8,2.4c2.3,0.3,4,1.1,4,3.8c-0.1,16.2,0,32.4-0.1,48.7c0,0.7-0.3,1.5-0.5,2.4
		c-0.9-0.2-1.7-0.3-2.4-0.6c-6.1-2.6-11.9-2.6-17.1,1.7c-5.6,4.6-6.8,10.6-4.6,16.9c1.3,3.9,3.7,7.9,6.7,10.9
		c6.2,6.2,13.1,11.7,19.7,17.5c1.4,1.2,2.8,1.8,4.6,0.2c6.4-5.7,13.2-10.8,19.1-16.9c3.6-3.8,6.4-8.6,8.3-13.5
		c2.5-6.2-0.2-12.9-5.5-16.5c-5.7-3.9-11.6-3.5-17.6-0.5c-1.5,0.8-2.9,1.6-4.8,2.7c-0.2-1.5-0.5-2.4-0.5-3.4
		c0.1-16.2,0.3-32.3,0.4-48.3c0-3.1,1.6-3.4,4.1-2.9c11,2.4,22.1,4.7,33,7.2c7.2,1.7,14.3,3.8,21.4,5.7c1.8,0.5,3.9,0.9,5.2,2.1
		c0.9,0.8,1.4,1.9,2,3.1c0.3,0.7,0.6,1.4,1,2c-0.6,0-1.2,0.1-1.9,0.2c-2,0.3-4,0.7-5-0.1c-4.3-3.5-8.9-4.2-14-3.5
		c-7.3,1-13.4,4.4-18.7,9.1c-2,1.8-2.2,3.3,0,5.4c8.5,8.1,21.8,8.2,30.7,0.6c1.9-1.7,5.3-2.7,7.9-2.6c6.8,0.4,12.7,3.2,17.9,7.7
		c-1.9,3.4-5,4.5-8.2,3.1c-11.8-5.1-24.7,5.6-23.7,18.2c0.4,5,2.5,10,4.1,14.9c0.8,2.6,2.7,2.7,5.1,1.7
		c10.9-4.1,17.4-11.5,18.1-22.8c0.2-3.2,1.7-4.4,4.6-5.3c5.6-1.8,11-3.9,16.6-5.9c13.3-4.7,26.8-4,40.1,0.3
		c12.8,4.1,24,11.1,34.7,18.8c0.5,0.4,0.9,1,1.3,1.6c0.2,0.3,0.3,0.7,0.5,1c0.2,0.3,0.3,0.7,0.5,1c-0.2,0-0.4,0-0.6,0
		c-0.2,0-0.4,0-0.6,0c-1.1,0-2.3,0.1-3.3-0.3c-9.4-3.9-19-7.1-29.3-7.9c-9.1-0.7-17.5,0.8-25.1,5.3c-2.4,1.4-5.3,3.3-3.3,6.4
		c1.9,2.9,4.8,3.1,8.2,1.5c13.8-6.8,27.7-4.2,41.2,1.7c6.2,2.7,11.6,6.9,17.3,10.5c1.3,0.8,2.1,2.3,4.1,4.4
		c-15,2.2-28.4,6.4-41.2,13.7c-1.3-6.2-4.8-9.3-10.2-10.6c-0.8-0.2-1.6-1-2-1.8c-5.8-9.2-15-10.8-24.8-10.2
		c-5.2,0.3-10.2,2.2-15.3,3.5c-4.4,1.2-6.6,4.1-6.9,8.5c-0.1,1.6-1.1,3.5-2.2,4.7c-4.1,4.6-8.5,9.1-12.8,13.5
		c-3,3.1-3.2,5.1,0.5,7.8c4.3,3,8.9,5.7,13.6,8.1c2.2,1.2,2.8,2.4,3.2,4.8c1.4,7.7,3.4,15.4,5.4,23c0.2,0.7,2.7,1.5,3.9,1.3
		c9.2-1.5,9.2-1.5,9.3,7.3c0.1,41.1,0,82.7,0.1,124.6c0,3.8-0.6,5.9-5.2,6.1c-4.6,0.2-6.8,4.2-5.3,8.7c2.3,6.5,7.8,10.2,13.4,13.8
		c0.6,0.4,2.1,0.3,2.7-0.2c4-3.3,8.1-6.5,11.6-10.3c2.2-2.4,3.5-5.7,0.9-9c-2.5-3.2-5.7-3.7-9.4-2.7c-0.6,0.2-1.3,0.1-2.5,0.2
		c-0.1-1.6-0.3-3-0.4-4.5c-0.2-44.1-0.3-87.8-0.6-131c0-3.1,1.1-4.9,4.1-5.8c1.9-0.6,4-1.3,5.5-2.4c4.8-3.4,9.9-3.7,15.6-2.6
		c1.4,0.3,3.9-0.8,4.6-2c2.2-3.7,3.9-7.6,5.7-11.5c0.7-1.6,1.1-3.4,2.6-5c0.1,1.2,0.4,2.3,0.3,3.5c-0.1,22.7-0.1,45.6-0.2,68.6
		c0,4.9-0.3,5-5.1,3.7c-10.1-2.6-20.1,5.7-18.9,15.7c0.7,5.9,3.7,10.8,8,14.8c4.6,4.3,9.8,8.1,14.7,12.1c2.2,1.8,4.4,2.2,6.8,0.5
		c6-4.3,12.3-8.4,18-13.1c4-3.3,6.3-8,6.6-13.3c0.7-10.7-8.2-18.3-18.9-16.1c-1.6,0.3-3.2,0.6-5.6,1c0-1.9-0.1-3.4-0.1-4.9
		c0-24.4,0.1-48.7,0-72.9c0-12.2,6.5-20.2,17.4-25.2c2.2-1,4.8-1.2,7.3-1.8c0.2,0.3,0.5,0.6,0.7,0.9c-0.7,1-1.2,2.1-2,3
		c-9,10.8-4.6,24.6,4.5,32.9c2.1,2,3.7,0.9,5.3-0.3c7.7-5.7,10.4-16.1,6.8-25.5c-0.7-1.7-1.4-3.3-1.6-6c1.5,0.5,3.4,0.6,4.3,1.5
		c5,5.4,9.9,10.9,14.5,16.6c0.9,1.1,0.9,3,0.9,4.5C712.1,242,712.1,254.4,711.8,266.8z M308.5,212.8c-4.8-2.4-4.2-7.5,0.6-10.1
		c1.7-0.9,3.4-1.7,5.2-2.4c7.9-3.3,14.4-1.4,19,5.4c3.6,5.2,1.9,9.2-4.6,10.7c-1.8,0.4-3.8,0.5-5.6,0.7c-0.1,0.3-0.3,0.5-0.4,0.8
		C317.9,216.3,312.9,215.1,308.5,212.8z M319.8,238.3c-1.4,5-4.5,6.5-9.6,4.8c-7.8-2.6-11.4-8.2-10.9-16.1c0.2-3.6,0.2-7.2,0.2-10.8
		C311.9,215.2,322.9,227.3,319.8,238.3z M309.5,197.6c-3.5,1.2-7.3,1.8-11,1.9c-1.6,0-3.7-1.6-4.5-3.1c-0.4-0.8,1-3.4,2.3-4.1
		c3.4-1.9,7.2-3.2,11.1-4.8c3.1,1.4,7.5,2,8.1,3.8C316.5,194.8,312.4,196.6,309.5,197.6z M295.1,203.1c2.6,0.9,5.4,2.4,4.8,6
		c-0.6,3.6-4.2,3.6-6.9,4.5c-0.5,0.2-1.9-0.3-2-0.7c-0.2-0.7,0.1-1.7,0.5-2.5C292.5,208.2,293.7,205.9,295.1,203.1z M291.9,216
		c5.2,7.6,4.2,16.5-6.7,20.6c-1.1,0.4-3.7-0.5-4.1-1.4c-1.4-3.1-2.2-6.6-3-9.1c0.7-3.3,0.9-5.7,1.8-7.8c0.8-1.9,2.5-4.9,3.8-4.9
		C286.5,213.4,290.6,214.1,291.9,216z M660,102.9c3.9-5.3,10.4-7.7,16.7-6.2c6,1.4,9,5.6,9.5,12.8c-0.5,2.4-1.1,4.9-1.6,7.3
		c-0.6,3.2-1.1,6.4-1.9,9.5c-0.3,1.1-1.7,3-2.3,2.9c-7.8-1.3-15.4-3.1-20.3-9.8C656.6,114.6,656.7,107.4,660,102.9z M599.3,228.1
		c3.7-6.7,10.5-9,17.1-11.3c0.1,6,0.6,11.7,0.2,17.4c-0.3,4.8-8.6,11-13.6,10.2c-1.6-0.2-3.5-2-4.3-3.5
		C596.7,236.6,597,232.2,599.3,228.1z M587.8,217.8c-4.4-1.6-5.8-4.8-3.6-8.7c2.7-4.8,6.6-8.1,14-8.7c3.5,1.6,8.3,3.5,12.6,6
		c2.6,1.5,1.9,6.2-1.1,8.1C603.1,218.5,595.8,220.6,587.8,217.8z M602.3,195.1c-0.4-1,0.7-3.2,1.8-3.8c1.6-0.9,3.9-0.9,6.9-1.4
		c2.7,1,6.4,2,9.6,3.8c3.5,1.9,3.4,4.4,0.2,6.7C616.1,203.8,604.2,200.5,602.3,195.1z M623,203.6c0.9,2.8,1.5,5.1,2.4,7.4
		c0.9,2.6-0.3,3.7-2.7,2.8c-1.9-0.7-4.5-2.3-4.9-3.8C617.1,206.7,619.9,204.9,623,203.6z M623.8,217.5c1.1-1.6,4-3,6-2.8
		c1.9,0.2,4.3,2.1,5.3,3.9c1.3,2.3,1.5,5.2,2.3,8.5c-1,2.9-1.9,6.3-3.2,9.5c-1,2.3-3,2.6-5.4,1.2C621.7,233.4,619.1,224,623.8,217.5
		z M656.3,316.9c1.8-0.9,4.3-1.1,6.4-0.8c4.4,0.6,6.4,4.3,4.5,8.1c-3.2,6.2-9.1,9.7-14.9,13.2c-0.5,0.3-1.8,0.1-2.2-0.3
		c-4.3-4.2-9-8.1-12.5-12.9c-3.1-4.2,0.1-8.5,6.4-8.5c0.6,0.2,2.4,0.2,3.4,1.1C650.5,319.3,653.1,318.5,656.3,316.9z M712,161.4
		c-10.6-7.7-20.6-15-31.7-23c11.4-0.8,21.7-1.6,32.8-2.3C712.7,144.7,714.8,152.9,712,161.4z M713.5,115.1h-0.2c0,0.3,0,0.5,0,0.8
		c-0.4,3.3,1.3,7.2-2.2,9.6c-5,3.4-11,4.7-17.1,4.3c-4-0.3-6.3-6.1-4.7-10.3c2.4-6.3,14.4-13.2,21.4-12.2c1,0.1,2.2,1.6,2.5,2.6
		C713.6,111.5,713.4,113.3,713.5,115.1z M714,97.2c-0.3,1.3-1.6,3.2-2.8,3.4c-7.3,1.1-13.6,4.1-19.7,8.9c-0.7-2.2-1.3-3.9-1.8-5.6
		c-4.6-14.3-19.4-18.1-30.3-7.7c-4.5,4.3-7.6,9.3-7.9,15.6c0,0.8-0.2,1.5-0.3,2.3c0,0.2-0.3,0.4-0.8,0.9c-8.1-6.4-15.3-13.4-18.6-23
		c-0.5-1.5,1.9-4.4,3.7-5.9c1.3-1.1,4.2-2.1,5.5-1.5c8.6,4.1,16.6,3,24.6-0.9c3.5-1.7,7.1-3.4,10.6-5.1c6.7-3.3,13.8-4.2,21.4-2.5
		C707.9,78.2,715.8,88.2,714,97.2z M714,68.1c0.1,2.7,0.3,4.6,0.2,6.4c-0.4,3.7-2.7,4.7-6,2.6c-6.5-4.1-13.2-7.5-21.3-7
		c-0.5,0-1.1,0-1.6,0c-6.1,0.6-6.6,0.2-6.9-5.8c-0.4-6.8,5.8-12.7,14.2-13.4c4.1-0.3,8.2-0.8,10.3,4.2c0.6,1.5,2.8,3,4.6,3.4
		C713.2,60.2,715.3,63.5,714,68.1z M726.7,463c-3.1-0.1-6.6-3.5-6.7-6.5c-0.1-3,3-6.5,5.7-6.5c3.1,0,7.3,3.7,7.3,6.5
		C733.1,459.5,729.6,463.1,726.7,463z"/>
	<path fill="#C49A6C" d="M674.6,51.6c0,0-0.1,0-0.1,0c-0.5-0.2-0.9-0.3-1.4-0.4C673.6,51.3,674.1,51.5,674.6,51.6z"/>
	<path fill="#C49A6C" d="M297,430.7c-4.8-4.5-9.5-9.1-13.6-14.2c-4.4-5.4-3.9-6.7,2.2-10.3c9.8-5.8,13.8-14.8,11.3-25.1
		c-3.2-13.1-16.4-21.8-31.3-19.8c-15.7,2.1-27.6,16.3-25.5,31.2c2.1,15,12.7,23.3,28.5,22.3c1.5-0.1,3.5,1,4.6,2.2
		c4.3,4.7,8.4,9.6,12.6,14.4c5.7,6.5,12.3,12.4,16.9,19.5c4.9,7.7,8,16.7,11.9,25.2c6.1-2.1,6.6-2.9,5-9.4
		C315.9,452.4,307.7,440.8,297,430.7z M256.3,373.1c4.8,11.3,9.4,22,13.9,32.6C258.6,406,249.2,385.6,256.3,373.1z M264.6,369.7
		c6.7-0.2,10.9,3.5,14.1,8.1c4.1,5.9,5.4,12.6,2.9,19.8C279.6,386,271.3,378.3,264.6,369.7z"/>
	<path fill="#C49A6C" d="M353.3,196.2c4.6-0.9,13.4-10.3,14-14.9c0.6-4.5-3-8.7-7.6-7.8c-4.9,1-9.6,3.2-13.3-0.2
		c-5.8-0.2-9,3.3-7.9,7.8c1.6,6.9,7,11,12.8,14.7C351.9,196.2,352.7,196.3,353.3,196.2z"/>
	<path fill="#C49A6C" d="M507.5,221.8c-2.5-2.2-5.6-2.4-8.3-0.8c-2.5,1.5-4.2,1.1-6.6-0.1c-5.4-2.7-10.6,0.4-10.6,5.9
		c0,4.7,8.6,14.6,13.4,15.2c0.5,0.1,1.1,0,1.5-0.3c4.9-3.4,9.7-6.8,12-12.5C510.2,226.5,509.9,223.9,507.5,221.8z"/>
	<path fill="#C49A6C" d="M502.1,344.9c-1,0.2-2.4,0.2-3,0.8c-1.8,1.9-3.4,1.5-5.5,0.3c-2-1.1-4.2-2.2-6.4-2.4
		c-7.2-0.7-13.6,4.7-15.1,12.2c-1.4,7.1,2.9,14.1,10.3,16.5c10.2,3.2,18.6,9,26.2,16.1c1.7,1.6,3.3,5.5,6.2,2.7
		c2.6-2.6-1-4.7-2.7-6.2c-4.8-4.2-9.8-8.1-14.9-11.9c-2.5-1.9-3.8-3.4-0.8-6c1.2-1,2-2.6,2.4-4.1c0.7-2.7,2-4.1,4.9-4.6
		c1.3-0.2,2.4-1.4,3.6-2.2c-0.3-0.4-0.5-0.8-0.8-1.1c-2.1,0.5-4.3,0.9-6.4,1.4c-0.3-0.5-0.5-0.9-0.8-1.4c2.3-1.5,4.5-3,6.8-4.5
		c-0.1-0.3-0.3-0.7-0.4-1c-2.5,0.4-5.1,0.9-7.6,1.3c-0.1-0.5-0.2-0.9-0.3-1.4c0.9-0.5,2.1-0.7,2.7-1.4
		C501.3,347.1,501.6,345.9,502.1,344.9z"/>
	<path fill="#C49A6C" d="M406.4,323.4c-4.4,0.6-7.5,0.4-9.3-3.9c0-0.1-0.5,0.1-1.3,0.2c0.6,2.4,1.2,4.7,1.8,7.1
		c-0.4,0.1-0.8,0.3-1.1,0.4c-1.4-1.9-2.7-3.8-4.1-5.7c-0.4,0.3-0.9,0.5-1.3,0.8c1.1,2,2.2,4.1,3.9,7.2c-2.8-1.6-4.6-2.6-6.4-3.6
		c-0.3,0.3-0.6,0.7-0.9,1c1.8,2.4,4.5,4.5,5.3,7.2c0.9,3,0.2,6.6,0.1,10.3c-1.6,0.1-3.2,0.2-4.8,0.3c-5.5,0.4-11,0.7-16.5,1.5
		c-1.4,0.2-2.6,2.1-3.9,3.2c1.5,0.6,2.9,1.2,4.5,1.7c0.6,0.2,1.4,0,2-0.2c9.6-2,19.2-2,28.7,0.4c5.9,1.4,10.6-1.5,14.2-5.7
		c3.7-4.5,4.7-9.7,1.8-15.1C416.5,325.6,412.1,322.7,406.4,323.4z"/>
	<path fill="#C49A6C" d="M451.4,365.8c-2.7,0.9-4.9-0.2-6.1-2.8c-1.2-2.4-1.1-4.3,1.7-5.7c1.1-0.6,2.7-2.6,2.4-3.2
		c-0.9-1.8-2.3-4-4-4.5c-1.7-0.5-4.4,0.3-5.9,1.4c-0.8,0.6,0,3.2,0.1,4.9c0,1.3,0.6,3,0,3.8c-2.4,3-6.1,2.7-8.4-0.3
		c-0.8-1.1-1.6-2.1-2.6-3.5c-3.4,3.2-3.1,4.8-0.1,7.6c1.4,1.3,2.5,3.3,3.1,5.1c1.1,3.5,2,7.1,6,8.1c4.1,1,7-1.5,9.8-4.2
		c1.6-1.6,3.8-2.9,5.9-3.6c3.6-1.1,4.4-2.4,2.7-5.7C454.6,364.2,453.1,365.3,451.4,365.8z"/>
	<path fill="#C49A6C" d="M402.7,358.4c-0.4-0.5-0.8-1-1.3-1.1c-3.4-1-6.9-1.5-10.4-2.2c0,0.1-0.1,0.2-0.1,0.4
		c-1.1,0-2.3-0.2-3.3,0.1c-1,0.3-1.9,1.2-2.8,1.8c0.7,0.9,1.3,2.3,2.2,2.5c4.6,0.8,9.2,1.4,13.9,1.8c0.7,0.1,1.4-0.5,2.2-1.1
		c0.2-0.2,0.5-0.3,0.7-0.5c-0.2-0.2-0.4-0.5-0.6-0.8C403.1,359,402.9,358.7,402.7,358.4z"/>
	<path fill="#C49A6C" d="M495.2,385.1c-4.1-2.4-8.4-4.6-12.8-6.9c-1.4,0.8-2.7,1.1-3.3,2c-0.3,0.5,0.2,2.3,0.8,2.6
		c4.5,2.1,9,4,13.6,5.7c0.6,0.2,2-0.5,2.3-1.1C496.1,386.9,495.7,385.4,495.2,385.1z"/>
	<path fill="#C49A6C" d="M622.3,444.3c-1.3-0.4-3.9,0.7-4.5,1.9c-1.5,2.8,0.4,5.3,2.9,6.4c0.6,0.3,1.4,0.1,2.3-0.3
		c0.2-0.1,0.4-0.2,0.6-0.3c0.7-0.3,1.3-0.6,1.9-0.8c0,0,0,0,0,0.1c0,0,0,0,0,0c0,0,0,0,0,0c0,0,0,0,0,0c0,0,0.1-0.1,0.1-0.1l0,0
		c0,0,0,0-0.1,0c0.2-0.3,0.3-0.7,0.5-1C627.8,446.4,624.8,445,622.3,444.3z"/>
</g>
<path fill="#C49A6C" d="M1026.4,575c0-49.2-36.4-90.5-84.5-97.1v67.9h-27.1v-67.9c-46.3,6.4-82.8,45.3-84.5,93.7c0,1.2,0,2.3,0,3.4
	h77.2v20.3h41.7V575H1026.4z"/>
<path fill="#C49A6C" d="M1026.4,415.5c0-49.2-36.4-90.5-84.5-97.1v67.9h-27.1v-67.9c-46.3,6.4-82.8,45.3-84.5,93.7
	c0,1.2,0,2.3,0,3.4h77.2v20.3h41.7v-20.3H1026.4z"/>
<path fill="#C49A6C" d="M464.1,591.1c-202.3,0-366.2,46.7-366.2,104.3c0,57.6,164,104.3,366.2,104.3s366.2-46.7,366.2-104.3
	C830.3,637.8,666.4,591.1,464.1,591.1z M244.7,701.9H203v-13.2h41.7V701.9z M484.9,701.9h-41.7v-13.2h41.7V701.9z M725.1,701.9
	h-41.7v-13.2h41.7V701.9z"/>
</svg>
