<?xml version="1.0" encoding="utf-8"?>
<!-- Generator: Adobe Illustrator 27.3.1, SVG Export Plug-In . SVG Version: 6.00 Build 0)  -->
<svg version="1.1" id="Layer_1" xmlns="http://www.w3.org/2000/svg" xmlns:xlink="http://www.w3.org/1999/xlink" x="0px" y="0px"
	 viewBox="0 0 1200 800" enable-background="new 0 0 1200 800" xml:space="preserve">
<path fill="#C49A6C" d="M1033.3,524.6c0.7-3.1,1.4-6.3,2-9.4c6.8-36.6,3.5-78.5-21.9-107.1c-21.3-24.1-48-35-80.3-28.7
	c-7.2,1.4-14.1,4.5-21.4,7c-0.7-9.9-2.5-19.4-11.3-25.5c-3.6-2.5-3.7-4.7-1.4-8c3.8-5.5,6.9-11.5,5.5-18.3
	c-3-14.1-20-27.9-34.4-20.8c-10.7,5.3-15.4,17.2-12.6,28.5c1.3,5.3,4.4,10.1,6.9,15.7c-10.9,6-14.2,16.6-14.9,28.9
	c-1.7-0.8-2.8-1.1-3.8-1.6c-12.1-6.4-25.2-9.3-38.5-7.9c-34.8,3.6-59.2,22.4-73.5,54.1c-14.2,31.7-11.5,64.8-3.8,96.9
	c9,37.9,26.7,72.5,47.2,105.6c29.9,48.3,63.9,93.6,99.1,138.1c4,5,7.5,4.6,11.9-1.3c38.9-52,78.1-102.9,109.4-160
	C1012.5,583.4,1026.2,554.9,1033.3,524.6z M978,412.2c0.5-1,3.3-1.5,4.7-1.1c8.9,2.5,14.3,9.1,19.1,16.5c-7-1.1-11.9,1.5-16,6.8
	c8.9,1.1,11.7,4.2,10.5,11c-0.9,5-10.2,10.4-14.6,8c-1.1-0.6-1.7-2.8-1.8-4.3c-0.2-4.6,0.2-9.3-0.2-13.9c-0.4-4-0.7-8.5-2.8-11.6
	C973.8,419.1,976.1,415.7,978,412.2z M995,485.9c5.2,4.5,5.3,13,0.2,19.2c-5.9-4.4-11.4-8.6-17-12.8
	C984.3,484.7,990.9,482.3,995,485.9z M983.1,465.3c3.3-2.9,8-4.2,12.5-6.3c0.5,6.4-4.6,12.3-12.8,15.5
	C982.9,471,981.6,466.6,983.1,465.3z M971.9,436.9c0.6,5.1,0.1,10.3,0.1,17.5c-6.4-1.6-12-2.6-17.3-4.3c-3.7-1.2-4.6-4-1.9-7.2
	c3-3.5,6-7.1,9.5-9.9C966.8,429.4,971.3,431.2,971.9,436.9z M947.6,527.4c0.1-0.4,0.3-0.7,0.4-1.1c1.5,0.3,3,0.5,4.5,1
	c14.1,4.8,16.7,8.6,14.5,21.1c-6.7-1.2-13.5-2.3-20.9-3.6c0.9-4.9-0.5-10.8,4.8-15C950.1,529.2,948.8,528.3,947.6,527.4z
	 M957.5,522.1c-3.3-1.1-6.7-1.7-9.9-3.1c-1.8-0.8-4.1-2.5-4.5-4.2c-0.4-2,0.3-5.4,1.8-6.4c4.7-3.3,9.8-6,15-8.4
	c3.7-1.8,6.4-0.5,7,3.9c0.5,3.4,1,6.8,1.3,8.8C968.1,524.9,967.4,525.4,957.5,522.1z M958.6,491.3c-4.2,1-8.4,2-12.6,3
	c-0.8-3.5-1.6-7-2.4-10.5c0.8-0.5,1.5-1,2.3-1.6c4.2,2.2,8.5,4.3,12.7,6.5C958.6,489.6,958.6,490.4,958.6,491.3z M942.7,439
	c-2.4-8.8,2.6-14.4,11.7-12.6C950.3,430.8,946.7,434.6,942.7,439z M923.8,408.1c12.6-5.3,26.2-4.9,39.8-5.1
	c-1.4,0.8-2.7,1.6-4.4,2.5c0.3,0.5,0.7,0.9,1.1,1.3c2.9,2.9,7.2,4.9,4.2,10c0,0,0,0,0,0c0,0,0,0,0,0c-8.2-1.1-14.3-1-19,0.8
	c-4.5,1.7-7.7,5.1-10.1,10.4c-0.2,0.6-0.5,1.1-0.7,1.7c-0.9,2.3-1.7,4.9-2.4,7.8c-6.4-1.3-9.5-4.8-9.4-10.8
	c0.1-6.6,0.9-7.3,11.9-9.5c0.4-0.7,0.8-1.3,1.2-2C932.2,413.1,928.3,410.8,923.8,408.1z M910.3,411.9c0.8,2.2,1.5,3.9,2.5,6.4
	c-2.4-0.3-4-0.4-5.6-0.6c-1.5-0.2-2.9-0.7-5.2-1.2C904.9,414.9,907.1,413.7,910.3,411.9z M910.9,431.8c2.2,3.3,5.2,6.1,7.9,9.1
	c0.7,0.8,2.1,1.6,2.2,2.5c1.2,11.6,9.3,19.1,16.1,27.3c0.6,0.7,1,1.5,2.5,3.8c-4.1-1-6.9-1.4-9.4-2.4c-9.1-3.9-17.6-8.9-22.5-17.9
	c-1.1-2-0.2-5.1-0.2-7.7c0-1.7,0.6-3.7-0.1-5.2c-1.8-3.8-4.1-7.3-6.3-11.2C905.3,427.3,908.2,427.7,910.9,431.8z M920,638.7
	c-3.5,0.4-5.4-0.8-6.2-4.3c-0.8-3.3-2.1-6.4-3.6-11.1c8.2,4.2,15.2,5.2,22.6,1.7c1.4-0.7,3.9,0.9,7.3,1.9
	C933.3,632.9,927.9,637.8,920,638.7z M937.9,641.7c-2.2,10.1-15,18.6-27.6,16.4C919.6,652.5,928.8,647,937.9,641.7z M928.4,614.4
	c-1.6,1.7-4.1,2.8-6.4,3.3c-3.9,0.9-5.9-0.7-6-5.2c-0.1-3.9-1.1-8-2.5-11.7c-1.8-4.9-5.6-7.6-11.1-7.9c-1.6-0.1-3.2-0.4-4.9-0.6
	c-0.1-0.4-0.2-0.9-0.3-1.3c1.8-0.7,3.5-1.7,5.4-1.9c4.9-0.7,4.8-0.6,10.6-5.7c0.7-0.6,2.2-0.6,3.3-0.4c8,1,12.8,6.1,15.4,13.2
	C934.3,602.7,933.4,609.2,928.4,614.4z M902.1,627.4c1.4,4.6,2,9.2-3.7,12.4c-2.5,1.4-3.6,5.3-5.4,8c-1.2,1.9-2.5,3.7-4.5,6.8
	c-1.9-3-4.5-5.2-4.5-7.3c0-12.7,0.3-25.4,1.3-38c0.3-3.2,3.2-6.4,5.4-9.2c2.9-3.5,6.8-3.2,10.6-1.4c3.9,1.8,4.1,5.4,3.4,8.9
	c-0.8,3.9-2.9,6.7-7.5,6.5c-0.6,0-1.1,0.1-1.2,0.1C898.3,618.8,900.7,622.9,902.1,627.4z M900.6,571.6c-5.3,4.4-10.2,9.3-15.3,14
	c-0.5-0.2-1-0.5-1.5-0.7c0.1-8-2.6-16.6,6.8-22.2c5.6-3.4,10.7-7.5,16.4-10.6c6.8-3.7,12-8.2,13-16.5c0.2-1.3,2-3.4,2.9-3.3
	c3.3,0.2,7.5,0.1,9.7,1.9c4.4,3.7,2.8,9.3-1.6,12.7C920.7,554.9,910.6,563.2,900.6,571.6z M901.2,510.6c-1.3,0.3-3.2-0.3-4.1-1.1
	c-11.7-10.6-15.6-17.7-11.8-34.1c9.9,4,18.5,9.2,23.9,17.9C913.2,499.7,908.5,509,901.2,510.6z M926.1,503c1.7,4.7,3.4,9.1,4.9,13.3
	c-9.5,4-18.6,7.2-28.4,2.8C910.2,513.9,917.9,508.7,926.1,503z M894.9,513.7c-1.2,2.4-2.1,5.2-3.8,7.3c-1,1.3-3.3,2.1-5.1,2.3
	c-0.7,0-2.2-2.4-2.2-3.8c-0.3-5.1-0.1-10.3-0.1-16.8C888.1,507.1,891.3,510.3,894.9,513.7z M892.9,535.2c3-1.7,5.4-4.5,8.5-5.7
	c2.5-1,6.1-1.3,8.2-0.2c1.2,0.7,0.7,4.9,0.6,7.5c0,0.8-1,1.7-1.7,2.2c-8.3,5.7-16.6,11.4-24.8,17.1
	C882.2,548.2,886.2,539.1,892.9,535.2z M927.6,479.7c7.8,3.6,8,6.3,1.4,11.9c-2.9,2.5-6.1,4.6-9.7,7.4c-0.4-1.8-0.7-3-0.9-4.2
	c-1-6.6-4-12-10-15.4c-7-3.9-14.1-7.8-21-11.9c-1.5-0.9-3.2-2.9-3.3-4.4c-0.4-6.9-0.2-13.8-0.2-20.7c0.5-0.2,1-0.3,1.5-0.5
	c2,2.8,3.9,5.5,5.9,8.3C900.5,463.5,912.9,473,927.6,479.7z M872.1,328c0.7-1.2,1.7-2.2,3.1-2.7c12.2-4.5,21.6,11.6,8.5,16.3
	c-4.3,1.5-8.5,0-11.1-3.8C870.8,335.3,870.5,331,872.1,328z M889.7,351.4c-0.8,1.6-1.6,3.3-2.4,4.8c-4.7,0-9.2,0-13.9,0
	c-0.6-2.1-1.2-4.1-1.7-5.8C877.7,350.7,883.6,351.1,889.7,351.4z M882.4,374.5c9.7,0.3,14.8,4.6,14.5,12.5
	c-0.3,9.2-7.9,16.6-16.7,16.4c-8.8-0.2-15.7-7.9-16-16.5C863.9,377.9,873.8,374.6,882.4,374.5z M858.3,612.5
	c-1.8-2.7-4.3-5.8-4.2-8.6c0.1-4.7,4.7-6,8.7-6.9c3.7-0.9,7.4-0.1,8.7,3.6c1.9,5.3,3.7,11,3.9,16.5c0.5,10.1-0.2,20.4-0.6,30.5
	c-0.1,1.6-1.6,3.1-2.4,4.7c-1.5-0.9-3.6-1.4-4.5-2.7c-2.9-4.3-4.1-9.9-9.8-12.3c-1.2-0.5-1.8-4.3-1.3-6.2c1.3-5.1,3.4-10.1,5.3-15.7
	C861.3,614.7,859.3,614,858.3,612.5z M822,627.3c0.2-0.1,0.4-0.2,0.6-0.3c0.4-0.2,0.8-0.5,1.2-0.8c0.4-0.3,0.8-0.5,1.2-0.7
	c0.6-0.3,1.2-0.5,1.8-0.6c6.7-0.3,13.4-0.1,20.8-0.1c-0.7,2.7-1.3,5-2,7.4c-2,6.8-3.6,7.9-10.2,5.3c-3.9-1.5-7.5-3.7-11-6
	c-0.3-0.2-0.6-0.5-0.8-0.8c-0.2-0.3-0.4-0.7-0.6-1.1c-0.1-0.2-0.2-0.4-0.3-0.6c-0.2-0.4-0.3-0.8-0.5-1.2
	C822.2,627.6,822.1,627.4,822,627.3L822,627.3L822,627.3z M849.7,659.3c-9.8,2.6-24.3-8-28-18.6
	C831.1,648.2,843.6,648.5,849.7,659.3z M843.9,612.1c0,4.9-2,5.9-6.2,5.5c-8.7-0.8-13.6-12-9.6-21.4c4.9-11.4,33.5-13.8,38.8-3.5
	c-1.5,0.1-2.5,0.2-3.4,0.2C849.7,593.3,844,598.6,843.9,612.1z M874.9,586c-5.1-4.3-10.3-8.3-14.9-12.7
	c-10.4-9.9-19.9-20.9-32.9-27.9c-3.4-1.8-1.1-10.1,3.1-12.4c5.6-3,9.3-1.5,10.7,4.7c1.6,6.7,5.9,11,11.6,14.3
	c5.3,3.1,10.7,6.1,15.6,9.7C876.7,568.1,878.3,574.5,874.9,586z M850.5,529.6c0.7-1.4,4-2,6-1.9c8.7,0.4,18.1,10.4,19.5,20.5
	c0.3,2.4,0.3,4.9,0.4,8c-7.8-5.1-15.1-9.7-22.1-14.5c-1.7-1.1-3.6-2.8-4.1-4.6C849.6,534.8,849.5,531.6,850.5,529.6z M833.7,516.7
	c-1-0.7-1.8-2.9-1.6-4.2c0.4-3.2,1.5-6.3,2.6-10.2c8.1,5.8,15.4,11,22.7,16.3c0.4,0.3,0.6,0.9,1.2,2
	C849.7,520.3,841.2,521.7,833.7,516.7z M876,521.2c0,0.8-1.9,2.2-2.8,2.1c-1.5,0-3.6-0.6-4.3-1.7c-1.6-2.3-2.5-5.1-3.5-7.3
	c3.6-3.4,6.7-6.5,10.7-10.3C876.1,510,876.2,515.6,876,521.2z M864.1,507.1c-5.7,4.5-13.4,1.2-13.7-6.2c-0.2-3.7,0.8-8.7,3.3-11.1
	c5.9-5.8,13-10.5,20.4-16.1C879.2,488.8,874.1,499.2,864.1,507.1z M875.7,464.6c-9.5,6.3-19,11.2-26.6,18.2
	c-4.2,3.9-5.4,11.1-7.8,16.6c-3.1-2.7-7.4-6.1-11.4-9.9c-4.4-4.2-3.6-7.4,2-9.6c16.4-6.5,29.3-17.5,39.8-31.5
	c0.9-1.2,1.8-2.4,2.7-3.6c0.4,0.1,0.9,0.2,1.3,0.4C875.7,452.2,875.7,459.3,875.7,464.6z M852.8,444.7c4.4,3.3,2.1,6.6,0.3,9.6
	c-6.7,11-17.2,16.3-30.3,19.7c4.5-6,8.7-10.9,12.1-16.3c2-3.3,2.6-7.4,4-11.1c0.6-1.5,1.2-3.2,2.2-4.4c3.2-4,6.8-7.8,10-11.8
	c2.5-3.1,5.1-3.5,8.9-1.6c-2.5,3.9-4.9,7.3-6.8,10.9C852.4,441,852.1,444.1,852.8,444.7z M795.6,411.4c3.4-3.6,6.3-8.1,12.2-8.6
	c18.5-1.5,35.4,4.1,52.1,10.9c1.9,0.8,3.4,2.3,5.7,3.9c-6.2,0-11.7,0-17.4,0c-3.1-5.9-7.9-9-14.1-7.7c-2.8,0.6-5.1,3.2-7.6,6.3
	c7.6-0.6,12.3,1.2,12.6,8.9c0.2,5.7-2.5,9.5-9.1,12c-5.1-19.3-10.8-22.7-34.4-20.5C795.5,414.8,794.8,412.3,795.6,411.4z M812,519.1
	c-6.2,2-12.5,3.7-19.5,5.7c0-7.2-0.3-13.5,0.1-19.8c0.3-4.6,3-7.5,7.8-5.5c5.3,2.2,10.5,4.7,15.1,8.1c1.8,1.4,2.5,5.4,2.2,8.1
	C817.5,517.1,814.2,518.4,812,519.1z M815.6,544.8c-7.3,1.2-14.3,2.5-21.6,3.7c-5.1-11.7,0.3-18,18.7-22
	C813.7,532.6,814.7,538.8,815.6,544.8z M801.7,488c3.1-1.7,6.1-3.7,9.3-5c1.6-0.6,5.3-0.3,5.4,0.1c0.5,2.7,0.9,5.7,0,8.1
	c-0.5,1.3-3.7,2.7-5.3,2.4c-3.2-0.6-6.2-2.4-9.4-3.7C801.8,489.3,801.8,488.7,801.7,488z M808.1,423.4c9.6,1.9,13.2,6.2,11.5,14.2
	C813.1,435.1,810.2,429.6,808.1,423.4z M793.1,430.9c4.5-2.8,7.9,1.8,11,4.9c0.8,0.8,1.6,1.7,2.3,2.6c6.7,7.9,5.9,10.6-3.9,13.8
	c-10.5,3.4-12.2,2-14.2-11C789.9,437.7,790.4,432.6,793.1,430.9z M748.1,454.6c6.6,7.9,12.5,15,18,21.6c-4.3,3.2-8.6,6.5-13,9.8
	C741.6,478,746,466.7,748.1,454.6z M779,475c-8.3-3.1-13.6-9.2-14-16.1c5.3,1.3,10.3,2.5,15.9,3.9C780.3,467.1,779.7,471,779,475z
	 M783.2,491.8c-5.5,4.2-11.1,8.5-17,13c-5.5-6.3-5.1-15.4,0.8-19.9C771.5,481.5,777.7,484,783.2,491.8z M751.4,521.6
	c-1.5-7.2-2.9-14.5-4.5-22.4c7.2,0.1,11.3,3.6,12.4,12c0.4,3.3-3.1,7.2-4.9,10.8C753.4,521.9,752.4,521.8,751.4,521.6z M782.4,598
	c-0.7,0.2-1.4,0.4-2.2,0.6c-4.2-9.6-8.5-19.2-12.7-28.6c5.7-0.4,10-0.7,14.9-1C782.4,578.7,782.4,588.3,782.4,598z M783.6,557.1
	c-0.1,4.1-3.5,4.4-6.3,4c-4.2-0.5-5.1-4.1-4.4-7.4c1.2-6.1,4.7-11,10.7-14.9C783.7,545.7,783.8,551.4,783.6,557.1z M784,527
	c0,0.8-0.8,1.8-1.6,2.3c-8.9,6.1-14.7,14.4-17.2,25.8c-12.8-12.1-11.1-21.8,4.1-27.3c-2.1-0.5-3.8-0.9-7-1.6
	c6.9-7.8,13.2-14.9,19.5-22c0.8,0.3,1.5,0.5,2.3,0.8C784,512.3,784.1,519.7,784,527z M784.6,424.8c-2.2,6.5-1.6,13.8-2.1,20.8
	c-0.1,2.1,0.2,4.2,0.3,6.2c-6.4,2-14,0.1-16.2-4c-2.4-4.4-0.5-9.9,4.1-12.2c1.5-0.8,2.8-2.1,4.2-3.2c-1.4-1.6-2.6-4.1-4.4-4.6
	c-3-0.9-6.3-0.6-9.5-0.9c-0.3-0.4-0.6-0.7-0.9-1.1c7.4-5.5,14.9-11,22.4-16.5C786.3,415.2,786.5,419.3,784.6,424.8z M787,475.2
	c1.2-2.4,2.6-4.7,3.6-7.2c1.4-3.5,3.8-5.3,7.6-5.9c5.2-0.8,10.3-2.4,15.7-3.7c1.3,6.4-0.4,10.9-4.8,14.4c-4.2,3.3-8.7,6.3-12.7,9.7
	c-2.8,2.4-5.2,2.5-8.2,0.3C785.3,480.5,785.6,478,787,475.2z M803.8,632.7c-0.8-0.1-1.5-0.2-2.3-0.3c-4.5-8.9-9.8-17.4-10.1-29
	c5,8.6,9.6,16.1,13.7,23.9C805.8,628.5,804.3,630.8,803.8,632.7z M810.6,618.7c-9.1-12-10.7-25.7-8.2-40.1c0.4-2.4,1.1-4.8,1.9-8.7
	c-4.3,1.1-7.6,1.9-11.3,2.9c-1.3-4.2-0.5-8.6,3.1-10.6c4.5-2.5,9.8-3.6,14.9-4.7c0.8-0.2,2.9,2.9,3.4,4.8c1.5,5,2.5,10.2,3.9,16
	c7.9-7.4,4.7-17.1,6-25.5c9,2,22.5,13.3,25.9,21.3c-5.8,1.3-11.6,2.2-17.3,4c-16.5,5.1-23.1,20.8-15.3,36.3c1.3,2.6,2.7,4.7-0.5,6.9
	C813.6,623.5,812.1,620.7,810.6,618.7z M824.2,667.2c-2.4-3.4-4.5-7.1-7.5-11.9c10.2,5.2,19.3,9.8,28.2,14.2c-5.1,0-11.1,0.1-17-0.1
	C826.5,669.3,824.9,668.2,824.2,667.2z M880,731.3c-3.6-0.2-7-1.1-6.1-5.4c0.4-2.1,3.2-3.6,6-6.5c2.9,2.8,5.8,4.2,6,6
	C886.3,728.9,884.3,731.6,880,731.3z M895.6,723.3c-3.9-8.5-3.9-8.5-12.7-8.6c-2.5,0-5,0.1-7.5,0c-5.3-0.3-10.4-0.5-9.6,8.1
	c-0.5-0.1-1-0.2-1.6-0.3c-9.5-13-19-26-29.3-40.2c30.7,0,59.5,0,88.2,0c0.4,0.7,0.8,1.3,1.1,2C914.8,697.1,905.3,710,895.6,723.3z
	 M922.8,666.9c6.4-3.7,12.6-7.3,19.7-11.4C937.2,669.3,930.6,673.1,922.8,666.9z M949.2,619.7c-1.1,1.2-4,1.6-5.7,1.1
	c-0.8-0.2-1.7-3.6-1.1-5c8.4-22.5-2.1-38.8-26.6-41c-2-0.2-4.1-0.3-6.3-0.4c3.5-8.1,18.8-20.5,26.6-21.7c0.9,9.3-1.3,19.3,6.5,28
	c0.6-4.5,0.3-8.4,1.8-11.4c2.1-4.3,5-10.3,8.5-11.1c4-0.9,9.8,2.3,13.6,5.3c2.2,1.7,2,6.3,2.9,10c-4.8-1.2-8.4-2-11.7-2.8
	c0.7,9,1.9,17.1,1.7,25.2C959.2,604.9,955.3,613,949.2,619.7z M960.1,632.6c-1-0.1-1.9-0.2-2.9-0.3c-0.2-1.9-1.3-4.2-0.6-5.6
	c3.8-7.3,8-14.4,12.1-21.5c0.6,0.2,1.1,0.4,1.7,0.5C967,614.7,963.5,623.6,960.1,632.6z M972.6,482.9c-3,2.3-6.2,2.1-9.3-0.8
	c-3.2-3-7.2-5.1-10.2-8.3c-2.8-2.9-4.8-6.6-8.1-11.3c3-1.4,4.7-3,6.2-2.8c5.8,0.9,11.8,1.9,17.4,3.8c6.2,2.1,6.1,8.7,7.8,13.7
	C976.8,478.6,974.3,481.6,972.6,482.9z M976.8,504.3c9.5,5.3,14.3,13.8,20.3,21.3c-0.2,0.6-0.3,1.2-0.5,1.8
	c-5.9,0-11.7,0.2-17.5-0.2c-1.2-0.1-3.1-2.6-3.1-3.9C975.9,517.3,976.4,511.4,976.8,504.3z M977.2,555.6c0.1-4.7,0-9.5,0-15.4
	c6.8,3.3,10,8.3,10.9,14.6c0.5,3.7-1.5,6.3-5.6,6.5C978.6,561.4,977.1,559.4,977.2,555.6z M991.4,575.6c-3.4,7.6-7,15-10.5,22.5
	c-0.8-0.3-1.6-0.6-2.3-0.8c0-9.3,0-18.6,0-28.6c4.2,1.4,8.1,2.5,11.9,4C991.2,573,991.8,574.9,991.4,575.6z M1004.8,541.8
	c-1.5,4.8-4.4,9.1-6.7,13.6c-0.7-0.1-1.4-0.1-2.1-0.2c-2.8-10.4-8-19.1-17.4-24.9c0.2-0.7,0.4-1.4,0.6-2.1
	c6.8,0.8,13.8,0.7,20.3,2.6C1003.9,532.2,1006.2,537.2,1004.8,541.8z M1010.4,523.6c-4.6-3.5-8.9-5.6-8.5-10.6
	c0.6-6.5,6.5-13.2,12.9-14.1C1013.4,507.3,1012,514.8,1010.4,523.6z M1008.7,487.2c-4.2-3.6-8.3-7.2-12.5-10.9
	c5.4-6.4,11.1-13.2,16.8-19.9C1017.9,470.9,1019,479.4,1008.7,487.2z"/>
<path fill="#C49A6C" d="M561.1,401.6c-18.2-20.5-41-31.3-68.8-28.2c-11.3,1.2-22.3,5.1-34.2,8c-0.1-0.4-0.5-1.6-0.6-2.9
	c-0.8-8.3-4.4-15.2-10.9-20.3c-3.7-2.9-4.5-5.2-1.8-9.5c5.5-8.9,6.9-18.7,1.1-27.9c-9.1-14.5-31.3-17.7-41-1.2
	c-2.5,4.3-2.8,9.1-2.2,14c0.3,2.2,6.3,20.2,6.5,20c-10,6.9-16.3,16.3-15.5,30c-3-1.4-4.7-2.2-6.4-3c-13.1-5.6-26.6-9.9-40.9-8.1
	c-37.9,4.9-68.7,32.7-77.2,70c-6.5,28.1-4.7,56.4,1.9,84.2c7.6,31.8,22.3,60.7,39.4,88.3c30.4,48.9,64.6,95,99.6,140.6
	c4.5,5.9,9.2,11.8,14.6,18.9c3.9-4.5,7.3-8,10.3-11.9c2.8-3.6,5.1-7.7,7.9-11.4c13.3-17.7,26.9-35.3,40-53.2
	c24.7-34,50-67.7,70.2-104.7c12.8-23.5,24.1-47.8,29.8-74.2c3.4-16.1,4.7-32.4,4.2-48.8C586.4,444.4,578.5,421.2,561.1,401.6z
	 M557.5,434.6c3.2,4.7,4.4,10.8,6.7,17c-3.2,0.2-4.5,0.4-5.9,0.4c-16.8-0.4-14,3-13.9-14.2c0-1.8,1.7-5.1,2.6-5.1
	C550.6,432.7,556,432.5,557.5,434.6z M511.7,405.8c0.7-0.2,1.3-0.4,2-0.6c6.5,6.1,13,12.3,20.7,19.6c-8,0-14.4,0.1-20.9-0.1
	c-0.6,0-1.7-1.6-1.7-2.5C511.7,416.7,511.7,411.2,511.7,405.8z M511.7,447.7c0.5-19.2-2.8-15.1,14.6-15.7c1.7-0.1,3.5,0.1,5.2,0
	c3.7-0.3,5.2,1.3,5.1,5c-0.2,4.8,0,9.5,0,15.1c-7.8,0-14.8,0.1-21.7-0.1c-1.1,0-2.2-1.9-3.2-3C511.6,448.6,511.7,448.1,511.7,447.7z
	 M511.5,459c8,0,15-0.1,22.1,0.2c1,0,2.8,2.1,2.8,3.3c0.3,7.1,0.4,14.3,0.1,21.4c-0.1,1.4-2.5,3.8-3.9,3.9c-5.6,0.5-11.2,0.4-16.7,0
	c-1.5-0.1-4.1-2.4-4.2-3.7C511.3,475.9,511.5,467.8,511.5,459z M521.4,560.9c-11.2-0.1-9.9,1.4-9.8-9.8c0-5.6,0.3-11.2,0.2-16.8
	c0-3.3,1.2-5.1,4.6-5.1c5.4,0,10.8-0.3,16.2,0.1c1.5,0.1,3.7,2.5,3.9,4.1c0.6,4,0.2,8.1,0.2,12.1C536.8,561,536.8,561,521.4,560.9z
	 M530.2,567.8c-6.2,9.4-11.8,18-17.4,26.6c-0.4-0.1-0.8-0.2-1.2-0.3c0-8.5,0-17.1,0-26.3C517.9,567.8,523.6,567.8,530.2,567.8z
	 M512,523.4c0.9-0.8,1.7-2.1,2.6-2.2c3.2-0.3,6.5-0.1,9.8-0.1c0,0,0,0,0-0.1c3.1,0,6.2-0.2,9.2,0.1c1,0.1,2.3,1.6,2.6,2.7
	c0.2,0.5-1.5,2.4-2.3,2.4c-6.5,0.1-13.1,0-19.6-0.3C513.6,525.9,512.8,524.3,512,523.4z M528.8,514.6c-1.3,0-2.7,0.1-4,0
	c-4.1-0.4-11.3,0.2-11.9-1.4c-1.7-5-1-10.9-0.9-16.4c0-0.8,2-2.2,3.2-2.3c3-0.3,6.1-0.1,9.2-0.1c12.4-0.1,12.4-0.1,12.4,12.5
	C536.7,514.6,536.7,514.6,528.8,514.6z M504.2,599.3c-12.9-3.3-23.3-0.1-33.5,9.3c2.6-12.3,5.4-22.9,7-33.6c1-6.8,4.2-7.8,10.2-7.7
	c16.3,0.3,16.3,0,16.3,16.1C504.2,588.3,504.2,593.3,504.2,599.3z M457.9,493.4c0.8,0.8,1.5,1.6,2.3,2.4c-5,4.6-10,9.2-15,13.8
	c-0.3-0.3-0.6-0.5-1-0.8C448.8,503.6,453.4,498.5,457.9,493.4z M429.7,514.7c0-12.4,0-25.2,0-38.5c10.8,0.3,18.7,4.5,25.7,10.2
	C446.7,496,438.1,505.5,429.7,514.7z M457.4,479.8c-6.4-3.4-12.4-7.8-19.2-9.9c-9.4-3-10.6-4-8-13.3c10.8,8.2,21.8,16.5,32.8,24.8
	c-0.3,0.5-0.6,1-0.9,1.5C460.4,481.8,459,480.6,457.4,479.8z M431,533.8c2.8-3.9,9.5-4.9,14.3-7.1c-1.6-0.4-3.8-0.9-7.3-1.8
	c9.8-9.2,18.8-17.7,28.3-26.7c4,4.9,7.8,9,10.9,13.5c0.7,1,0.1,4.3-0.9,5.1c-5.1,4-10.7,7.4-16,11.1c-10.4,7.2-20.7,14.5-32.6,22.9
	C428.7,544.6,428.1,537.9,431,533.8z M498.1,488.6c-1.7,8.5-6.6,15.2-13.8,21.4c-4.2-4.9-7.8-9.2-11.3-13.4c-0.6-0.7-1.3-2-1-2.5
	c3.2-6.1,5.9-12.5,10.1-17.8c1.3-1.7,7-1.5,9.8-0.2C496.8,478.3,499.2,483.2,498.1,488.6z M492,468.3c3.7-4,7.1-7.8,11.4-12.4
	c0,6.4,0,11.8,0,17.7C499.7,471.9,496,470.2,492,468.3z M468.9,530.7c0.4-0.5,0.7-1.1,1.1-1.6c3-0.2,6-0.2,9-0.7
	c11.3-2,16.4,4.4,19.2,13.9c1.8,5.8,3.2,11.7,5,18.3c-8.5,0-15.9,0-23.5,0C478.1,549.7,483.5,536.9,468.9,530.7z M469.6,552.4
	c-1.9,4.1-4.7,7.8-10.3,8c-9.9,0.4-16.3,7.1-22.7,13.6c-2.4,2.4-4.7,4.9-7.4,7.8c-2.7-11.2,0.2-19.6,8.2-26.3
	c6.4-5.3,12.7-10.6,19.3-15.5c3-2.2,6.6-4.6,10.4-0.9C471.2,543,471.8,547.7,469.6,552.4z M474.9,526.3c3.4-3,5.6-5,8.4-7.5
	c2,2.4,3.7,4.5,6.3,7.5C484.4,526.3,480.4,526.3,474.9,526.3z M428.8,603.9c1.7-13.3,20.7-37.2,38.7-35c2.1,6.4,0.1,11.4-4,15.6
	c-7.6,7.8-12.9,16.8-15.3,27.4c-0.9,3.9-2.9,5.1-6.5,4.6c-0.6-0.1-1.2,0-1.7,0C427.5,616.4,427.2,616.1,428.8,603.9z M455.2,617.5
	c0.8-10.6,6-17.5,12.6-24.7C466.6,602.7,464.9,611.4,455.2,617.5z M456.1,633c-3.3,3.4-6.6,6.9-9.9,10.3c-0.5-0.4-0.9-0.9-1.4-1.3
	c3.2-3.5,6.5-6.9,9.7-10.4C455.1,632.1,455.6,632.6,456.1,633z M442.1,623.3c-0.5,11.8-7.4,20.6-12.9,30.3c0-9.1-0.1-18.2,0.2-27.3
	c0-1,2.1-2.7,3.3-2.9C435.5,623,438.4,623.3,442.1,623.3z M428.8,688.5c0-1.4,0.8-3,1.6-4.2c9.2-12.8,18.5-25.5,27.6-38.5
	c3.3-4.7,6.1-9.8,8.7-15c7.7-15.4,12.4-17.9,31.7-15.2c-23.1,30.4-45.7,60.1-68.2,89.8c-0.5-0.3-1-0.5-1.4-0.8
	C428.7,699.2,428.6,693.9,428.8,688.5z M503.7,540.1c-0.3,0.1-0.6,0.2-0.9,0.2c-1.4-4-2.8-8-4-11.4c-3.7-4.5-7.4-9-10.9-13.2
	c5.5-7.2,10.6-13.9,15.8-20.7C503.7,509.8,503.7,525,503.7,540.1z M503.5,399.4c0,13.7,0,26,0,38.9c-10.6-12.2-17.6-14.8-32.8-11.7
	C482,417.3,492.1,408.8,503.5,399.4z M481,399.1c5.5-1.5,11-3.2,16.8-4.8c-0.5,0.7-0.9,1.4-1.4,1.8c-12.3,11-24.7,22-37,32.9
	c-11.8-7-25.5-2.7-29.2,9.1c-1.6-5.2-0.4-9.1,2.9-12.9C445.9,410.6,462.9,404,481,399.1z M419.7,323.2c8.4-2.6,24.8,3.8,12.4,13.6
	c-3.7,2.9-11.5,2.1-14.2-1.9C413.3,328.2,415.5,324.5,419.7,323.2z M435.4,347.2c-2.7,6.8-2.7,6.7-10.3,4.7c-2.1-0.6-4.4-0.1-7-0.1
	c-0.7-1.6-1.5-3.5-2.5-5.8C422.4,346.4,428.8,346.8,435.4,347.2z M359,396.2c6,1.4,12,2.6,17.9,4.2c16.2,4.5,30.9,11.8,41.5,25.4
	c2.2,2.8,3,6.7,4.5,10.1c-0.7,0.2-1.4,0.4-2.1,0.6c-4.6-9.7-14.5-13.9-24.8-9.8c-3.6,1.4-5.4,0.5-7.9-1.8
	c-8.4-7.9-17.1-15.5-25.7-23.1c-1.4-1.2-2.9-2.4-4.4-3.5C358.4,397.5,358.7,396.9,359,396.2z M404.1,623.2c5.8,0,10.2-0.2,14.5,0.1
	c1.1,0.1,3,2,3.1,3.1c0.2,9.9,0.1,19.8,0.1,29.8c-0.3,0.1-0.7,0.1-1,0.2C415.4,645.7,410,635,404.1,623.2z M420.2,672.1
	c-0.5,0.3-0.9,0.5-1.4,0.8c-3.2-5.8-6.4-11.5-9.6-17.3c0.5-0.3,1-0.6,1.5-0.9C413.8,660.5,417,666.3,420.2,672.1z M417.1,616.6
	c-13.1,0.3-12.8,0.3-17.7-11.6c-2.4-5.8-5.8-11.3-9.7-16.2c-4.8-6.2-10.3-11.7-5.3-21.1c8.6-0.1,15.4,5.3,21.8,10.7
	c10.2,8.6,17.5,18.8,16,33.3C421.8,615.4,420.8,616.5,417.1,616.6z M394.5,616.9c-7.3-5.6-9.8-13.9-12.1-22.3
	C389.5,600.4,393.9,607.7,394.5,616.9z M420.4,581.8c-3.5-3.8-7-7.6-10.5-11.3c-5.7-5.9-12.7-9.3-20.7-10.6
	c-5.6-0.9-8.5-4.7-8.6-9.4c-0.1-4,1.8-8.3,3.7-12c0.6-1.1,4.8-1.3,6.6-0.4c11.7,5.6,21.8,13.6,28.7,24.4c3.1,4.8,2.4,12,3.4,18.1
	C422.1,581,421.2,581.4,420.4,581.8z M372,560.4c-7.4,0-14.4,0-22.2,0c0.9-16,8.1-28.8,17.7-41.3c3,2.4,5.7,4.5,9.6,7.6
	c-4.5,0.9-7.4,1.4-10,1.9c4.6,0.3,9.7,0.7,14.7,1.1c0.1,0.7,0.2,1.3,0.3,2C369.1,537.7,372.3,549.5,372,560.4z M379.6,607.7
	c-9.5-8.6-19.1-12.2-30.6-9.5c0-10.4,0-20.1,0-30.4c7.6,0,14.8,0,22.8,0C374.2,580.4,376.7,593.2,379.6,607.7z M421.8,456.7
	c0.6,10.8,0.4,10.3-9.4,13.6c-6.2,2.1-11.9,5.8-17.8,9c-1.7,0.9-3.2,2.4-5.7,2.6c10.9-8.7,21.8-17.4,32.7-26.1
	C421.6,455.6,421.8,456.2,421.8,456.7z M396.1,487.2c6.8-6.6,15.1-10,25.2-11.2c0,13.5,0,26.6,0,40
	C413.1,506.6,404.9,497.2,396.1,487.2z M406.5,509.3c-0.4,0.4-0.7,0.7-1.1,1.1c-5.2-4.9-10.4-9.7-15.6-14.6c0.5-0.5,1-1.1,1.6-1.6
	C396.4,499.3,401.4,504.3,406.5,509.3z M421.2,536.5c1.2,4.9,0.8,10.1,1.1,15.6c-9.9-8-18.9-15.3-29.2-23.7
	c8.3,0.4,15.3,0.2,22.1,1.4C417.6,530.3,420.6,533.9,421.2,536.5z M411.1,523.6c-16,6.5-28.8,3.8-39.2-10.2
	c3.7-4.6,7.6-9.4,11.8-14.5C393,507.3,401.9,515.3,411.1,523.6z M370.4,506.3c-1.1,1.3-2.1,2.7-3.4,4.4
	c-8.5-7.2-13.6-15.1-13.5-25.7c0.1-4.8,5-10.4,9.6-11c5-0.7,7.7,2.7,9.8,6.6C380.1,494.3,380.1,494.3,370.4,506.3z M348.9,399.4
	c10.9,9.1,20.7,17.1,30.4,25.2c-12.4-0.1-22.6,3-30.4,14.9C348.9,425.7,348.9,413.6,348.9,399.4z M348.4,455c4.2,5,7.6,9,11,13
	c-3.8,2-7.3,3.8-11,5.8C348.4,467.7,348.4,461.9,348.4,455z M347.9,495c4.9,6.6,9.7,13.1,15.3,20.6c-3,3.8-6.6,8.4-10.4,13.1
	c-1.2,3.7-2.5,7.8-3.8,11.8c-0.4-0.1-0.7-0.1-1.1-0.2C347.9,525.2,347.9,510.2,347.9,495z M340.9,448.5c-0.1,1.2-2.1,3.3-3.3,3.3
	c-6.1,0.2-12.3-0.1-18.4-0.1c-3.1,0-4.1-1.6-4.3-4.7c-0.7-15.2-0.8-15.2,14.6-15.2c3.4,0,6.9,0,11.5,0
	C341.1,437.9,341.3,443.2,340.9,448.5z M336.4,560.9c-5.8-0.2-11.6,0.2-17.3-0.3c-1.5-0.1-3.9-2.5-3.9-4c-0.4-7.7-0.5-15.4,0.2-23.1
	c0.2-2.2,3.1-4.2,4.6-6c-2.1-0.2-6.1-0.4-3.9-7c6.8,0,14-0.2,21.3,0.2c1.3,0.1,3.4,2.4,3.5,3.8c0.3,10.6,0.1,21.2,0.3,31.7
	C341.1,559.6,340,561.1,336.4,560.9z M340.9,598.7c-0.4,0.1-0.8,0.2-1.2,0.3c-6.4-10.1-12.9-20.2-20.1-31.5c7.2,0,13.1-0.1,18.9,0.1
	c0.8,0,2.2,1.7,2.3,2.6C340.9,579.6,340.9,589.1,340.9,598.7z M341,494.7c0,5.7,0.2,11.1-0.1,16.4c-0.1,1.1-1.9,3.1-2.9,3.1
	c-7.4,0.3-14.9,0.1-22.7,0.1c0-7.3,0-13.2,0-19.7C323.7,494.7,331.8,494.7,341,494.7z M315.3,487.7c0-10.4,0-19.3,0-29.2
	c7.8,0,15.2-0.1,22.6,0.1c1,0,2.7,2.1,2.8,3.2c0.3,7.3,0.4,14.6,0.1,21.9c-0.1,1.3-2.2,3.7-3.5,3.7
	C330.1,487.9,322.8,487.7,315.3,487.7z M341,404.9c0,6,0.1,12-0.2,17.9c0,0.8-2.1,2.1-3.3,2.1c-6.1,0.2-12.2,0.1-18.2,0.1
	c-0.1-0.6-0.2-1.3-0.3-1.9c6.7-6.2,13.5-12.4,20.2-18.6C339.9,404.7,340.4,404.8,341,404.9z M307,559.6c-0.5,0.1-1,0.3-1.5,0.4
	c-6.1-12-9.8-25-13.2-39c5.1,0,9.8,0,14.8,0C307,534.2,307,546.9,307,559.6z M307.5,511c0,0.6-0.1,1.6-0.2,1.6
	c-3.8,0.5-7.6,1.3-11.3,1.1c-2.1-0.1-5.6-1.8-5.9-3.4c-1.2-5-1.2-10.2-1.8-16c6.6,0,12.6,0,19.3,0
	C307.5,500.2,307.5,505.6,307.5,511z M307.6,486.9c-6.2,0-11.6,0.2-16.9-0.2c-1.2-0.1-3.2-2.2-3.3-3.4c-0.2-6.7,0.2-13.5,0.4-20.2
	c0.1-3.3,1.8-4.5,5.1-4.6c14.6-0.7,14.6-0.8,14.6,13.8C307.6,476.9,307.6,481.5,307.6,486.9z M307.5,452.1
	c-6.3-0.4-11.8-0.8-18.6-1.2c2-5.9,3-11.6,5.9-16c1.4-2.1,6.5-2.2,9.8-2.1c1,0,2.6,3.6,2.8,5.6C307.8,442.6,307.5,446.8,307.5,452.1
	z M300,424.1c7.2-11.5,20.9-22.3,31.6-22.9c-3.1,2.9-5.4,5-7.6,7.2c-4.4,4.3-9,8.5-12.9,13.2C307.9,425.6,304.7,425.7,300,424.1z
	 M328.7,605c-6.5-11.1-12.3-22.5-18.4-33.9c-0.3-0.6-0.2-1.3-0.3-2c0.6-0.3,1.1-0.6,1.7-1c8.5,12.6,16.9,25.1,25.4,37.7
	c-0.5,0.7-0.9,1.4-1.4,2.1C333.3,607.1,329.7,606.8,328.7,605z M421.5,733.7c-30.4-37.8-59.2-76.2-84.9-116.9
	c0.6-0.8,1.3-1.6,1.9-2.5c2.3,1.4,5.3,2.2,6.8,4.2c15.9,21.1,31.6,42.3,47.4,63.5c8.9,11.9,18.4,23.4,26.6,35.7
	C422.1,721.9,421.8,728,421.5,733.7z M420.3,708.2c-22.5-30.5-45.1-61.1-67.6-91.6c0.4-0.5,0.8-1,1.1-1.6c5.6,0,11.3-0.8,16.6,0.3
	c3.2,0.7,7.1,3.7,8.5,6.7c10.3,23.2,26.7,42.3,40.3,63.2c3.7,5.7,2.7,14.5,3.8,21.9C422.1,707.6,421.2,707.9,420.3,708.2z
	 M406.6,382.5c2.8-4.1,5.3-8.6,8.5-12.3c1.2-1.3,4.3-1,6.6-1.2c1.9-0.1,3.8,0.2,5.6,0.1c8.6-0.5,14.3,4.4,15.2,13.3
	c0.9,9-7.3,18.2-16.2,18.3C416.3,400.9,407.5,392.6,406.6,382.5z M430.3,732.2c-1-0.3-1.9-0.7-2.9-1c1.4-5.3,1.4-11.7,4.4-15.8
	c23.3-31.7,47.2-62.9,71-94.3c2.3-3.1,4.5-6.5,10.6-3.8C488.2,657.6,458.7,694.5,430.3,732.2z M537.6,578
	c-4.7,8.6-9.9,16.9-14.5,25.5c-2.3,4.3-5.1,5.4-10,2.7c8.1-13.4,16.2-26.7,26.7-38.3c0.6,0.3,1.2,0.6,1.8,0.9
	C540.2,571.9,539.2,575.1,537.6,578z M517.3,399.7c0.6-0.7,1.2-1.4,1.8-2.1c13.9,4.6,24,14.2,32.8,25.5c-0.1,0.6-0.3,1.3-0.4,1.9
	c-3.2-0.6-7.2-0.2-9.4-2C533.6,415.6,525.6,407.5,517.3,399.7z M546.7,559.7c-0.7-0.1-1.5-0.3-2.2-0.4c-0.2-2.9-0.4-5.7-0.5-8.6
	c0-5,0.4-10,0-15c-0.4-5.6,2.1-7.2,7.1-6.7c1.9,0.2,3.7,0,7.3,0C554.2,540.1,550.5,549.9,546.7,559.7z M555.2,525.9
	c-3.5,0.1-7-0.7-10.5-1.1c0.7-1.3,1.2-3.5,2-3.6c4.1-0.4,8.3-0.2,12.4-0.2c0.3,0.6,0.5,1.3,0.8,1.9
	C558.4,524,556.8,525.9,555.2,525.9z M562,512.2c-0.2,0.9-2.1,2-3.4,2.2c-13.6,2-14.7,0.9-14.5-12.7c0-2.1,0-4.2,0-7
	c7,0,13.1,0,20.5,0C563.8,500.7,563.1,506.5,562,512.2z M565.4,484.1c0,1.3-2.4,2.5-3.7,3.7c-0.1,0.1-0.4,0-0.6,0
	c-17.1,1.2-17.1,1.2-17-16c0-4,0-8,0-13c6.3,0,12-0.2,17.7,0.2c1.2,0.1,3.2,2.4,3.2,3.7C565.5,469.9,565.6,477,565.4,484.1z"/>
<path fill="#C49A6C" d="M252.3,82.6c-7.5,1.7-14.6,5.5-22,8.4c-0.4-2.4-1-5.1-1.4-7.7c-1.1-7.4-4.5-13.8-10.3-18.2
	c-4.4-3.4-3.4-6-1.7-10.2c2.3-5.7,4.6-12,4.7-18c0.1-25.8-37.5-29.7-44.9-6c-3.5,11.2,1.3,20.7,6.7,29c-4.1,5.1-8.7,9.3-11.4,14.4
	c-2.7,5.3-3.7,11.5-5.3,17.2c-6.2-2.7-11.9-6.1-18.1-7.8c-23.7-6.4-45.5-1.3-65.3,12.4C54.4,116.1,42.4,145.4,41,179
	c-1.8,42.7,10.5,82.3,29.2,120.3c18.5,37.6,40,73.5,64.1,107.8c19.9,28.4,40.6,56.3,61.1,84.3c4.9,6.7,6.4,6.6,11.8,0.1
	c5.5-6.7,11-13.5,16.1-20.4c33.7-45.5,63.6-93.4,91.4-142.6c23.6-41.7,41.6-85.2,44.5-133.8c1.9-31.3-3.6-60.6-25.2-84.6
	C312.1,85.8,285,75.1,252.3,82.6z M224.9,116.9c16.7-14,36.3-21,58.5-17c3.7,0.7,7.3,2,11,3c0.1,0.6,0.3,1.2,0.4,1.7
	c-39.8,12.1-56.6,42.6-64.1,80.5c-0.8,0.4-1.6,0.8-2.4,1.3c-1.1-2-1.9-4.4-3.5-5.9c-12.9-12.9-28.6-16.9-46.1-13.3
	c-3.9,0.8-8.4,3.2-10.6,6.3c-3.5,4.9-7.3,4.4-11.9,3.5c-2.2-14,5.7-30.6,17.4-36.4c7.5-3.7,14.8-3.3,21.6,2c2.8,2.2,6,3.9,10,6.5
	C202,131.1,215.6,124.7,224.9,116.9z M224.1,230.4c-1-1.3-2.4-2.4-2.9-3.8c-2.5-7.4-4.8-15-7.3-22.4c-0.6-1.7-1.7-3.3-4-4.8
	c-0.1,2-0.4,4.1-0.3,6.1c0.4,12.1,1.7,24.2,1.1,36.2c-0.5,10.4-5.9,19.2-15,27.4c-0.3-3.7-0.4-6-0.6-8.3c-0.4-4.6-0.6-9.2-1.5-13.7
	c-0.2-0.9-1.1-1.6-2.1-2.2c-0.6-0.4-1.2-0.8-1.7-1.3c-0.1,0.2-0.3,0.3-0.4,0.5c-0.7,0.8-1.7,1.5-2.2,2.3c-0.2,0.3-0.3,0.6-0.4,1
	c-0.6,5.9-0.7,11.8-0.9,17.8c-0.1,1.7,0.3,3.4,0.5,5.6c-6.9-1.2-11.8-3.2-14.5-10.4c-5.5-14.2-10.4-28.5-11.8-43.8
	c13.4,8.8,26.4,17.5,40.9,27c-1.1-6.3-2.1-11.1-2.8-15.9c-2.1-15.4,1.4-29.2,13.3-39.8c2.4-2.1,7.5-4.3,9.5-3.2
	c2.9,1.6,5.8,6.2,5.9,9.6c0.5,10.7-0.2,21.5-0.6,32.3C226.2,227.7,224.8,229,224.1,230.4z M228,303.3c7.7-9.6,17.6-11.9,27.8-7.5
	c9.1,3.9,14.8,14.8,13.9,25.8c-1,11.8-6.1,21.5-15.8,28.2c-11.7,8.2-23.8,15.9-37,24.6c1.1-19,1.6-37.6,3.5-56.1
	C220.9,313.2,224.5,307.7,228,303.3z M175.7,287.3c-8.7-8.4-19.7-13.8-23.9-25.5c-1.2-3.3,0.7-7.8,1.2-11.8c0.4,0.1,0.8,0.2,1.3,0.3
	C161.3,262.4,168.3,274.4,175.7,287.3z M188.8,32.3c0.2-0.3,0.5-0.6,0.8-0.9c4.7-4.6,17.3-4.2,20.1,2.1c2.8,6.4-1.9,13.6-9.1,14
	C193.8,47.9,184.6,38.4,188.8,32.3z M210.4,50.7c-0.9,4.2-1.5,7-2.2,9.8c-5.5,0-10.9,0-17,0c-1.8-4.1-4-9-6.2-13.9
	C192.6,52,200,55.9,210.4,50.7z M199.2,75.3c10.5,0.1,17.2,6.3,17.2,16c0.1,10.5-8.3,19.1-18.4,18.8c-9.6-0.2-17-7.9-16.8-17.5
	C181.4,82,188.4,75.2,199.2,75.3z M74,131.6c20-31.5,59.1-41,91-21.7c9.5,5.8,18.3,12.5,25.8,21.8c-1.4,0.2-2.2,0.5-2.8,0.4
	c-19.4-2.6-36.7,12-40.2,33.4c-1.9,11.7-5,20.4-15.7,27.4c-11.9,7.8-16.5,21.3-17.3,35.7c-0.5,0.1-1,0.3-1.4,0.4
	c-2.8-3.6-5.8-7-8.4-10.8c-10.8-16-18.3-33.4-21.2-52.6c-1.4-9.1,0.8-17.5,7.1-23.7c8.6,17.5,17,34.7,25.7,52.4
	c9.8-10.1,16.5-22.1,19.8-36.1c1.6-6.9,3-13.9,4.7-20.8c2.8-10.7,0.6-14.6-10.3-16.7c-8.8-1.7-16.8,0.3-23.4,6.9
	c-1.5,1.5-3.8,3.2-5.7,3.1c-15.8-0.4-25.7,15.6-26.3,27.2c-1.3,25.5,9.4,46.7,23.9,66.5c2.4,3.2,5.2,6.1,7.4,8.8
	c-7.2,5.5-14.1,10.8-21.3,16.4c-12.6-15.6-22.5-33.2-24.9-53.8C57.8,173.3,61.4,151.4,74,131.6z M67.7,238.2
	c9,6.8,14.1,17.4,12.2,24.5c10.7,4.9,21.2,9.7,31.4,14.4c-6.3,8.1-12.1,15.6-18.4,23.8C81.3,281.8,72.7,261.3,67.7,238.2z
	 M198.7,465.7c-0.9-0.7-1.8-1.1-2.2-1.8c-28.5-41.9-56.9-83.8-85.3-125.8c-6.6-9.8-9.9-20.2-7.3-32.2c2.6-12.1,9.8-20.5,20.9-25.1
	c3.7-1.5,9-1.3,12.9,0c22.7,7.1,41.6,19.8,55.1,39.8c1.7,2.5,2.6,5.6,3.9,8.6c-6.3-3.1-11.6-6.9-17.5-8.4
	c-18-4.6-36.3,12.8-33.9,31.3c1.5,11.3,6.9,20.3,15.6,27.5c2.7,2.2,3,4.4,3.1,7.8c0.3,6.8,0.3,14.6,3.7,19.9
	c7,10.8,16.3,20.3,25.3,30c2.3-10.4,2.5-20.2-2.9-29.6c-2.5-4.3-5-8.7-6.9-13.3c-0.8-2,0-4.7,0.1-7.1c2.2,0.4,4.5,0.5,6.5,1.3
	c5.4,2.1,9,5.5,9,11.9C198.6,422,198.7,443.6,198.7,465.7z M190,379.8c0.2-0.4,0.3-0.7,0.5-1.1c2.3,0,4.6,0,7.7,0c0,2.3,0,4.3,0,7.4
	C195,383.6,192.5,381.7,190,379.8z M198.3,372.3c-17.1-1.2-19-4.5-11.1-20c-5.3-4.1-14.1-4.5-16.3,0.2c-2.5,5.3-2.9,11.5-4.3,17.2
	c-9.2-3.5-14.5-19.7-9.4-30.3c6.6-13.6,20.9-16,31.8-5.5C200.3,344.7,199.5,358.2,198.3,372.3z M207.7,312.9c-0.7,0-1.5,0.1-2.2,0.1
	c-2.1-8.7-4.6-17.3-6.2-26.1c-0.5-2.7,0.5-6.3,2-8.7c5.6-9.3,11.7-18.4,18.5-28.9c1,2.2,2.9,4.2,2.6,6c-0.7,6.3-1.8,12.5-3.4,18.7
	c-2.9,11.3-6.1,22.6-9.3,33.9C209.2,309.5,208.4,311.2,207.7,312.9z M341.1,190.3c-1.8,42.6-16.5,81-36.1,118.2
	c-24.3,46.1-52.7,89.6-82.4,132.3c-1.4,2-3,3.9-4.4,5.9c-0.6-0.2-1.2-0.3-1.7-0.5c1.4-17.5-1.7-35.3,4.7-52.4
	c4-10.8,10.9-19.1,18.3-22.5c0.5,4.4,0.9,8.6,1.3,12.8c0.5,0.2,0.9,0.4,1.4,0.5c2.4-2.8,5-5.5,7.2-8.6c7.7-10.8,15.8-21.4,22.7-32.7
	c6.7-11.1,7-23.4,2.3-35.6c-6.8-17.6-22.3-24.3-39.7-17c-2.1,0.9-4.1,1.8-7.7,3.4c2.5-9.1,4.6-17,7-24.8c0.3-0.8,2.1-1.7,3.2-1.7
	c12.3,0.5,18.8-7.9,24.8-16.4c4.1-5.8,7.1-12.3,10.8-18.5c1.1-1.9,2.8-3.5,5.2-6.4c-8.2-2.5-15.6-4.8-24.6-7.5
	c7.1-14.3,14-28.6,21.5-42.5c2.3-4.3,6.7-7.2,12.2-5c4.6,1.8,8.2,8.9,6.6,14.1c-1.9,5.8-4.5,11.5-7.5,16.7c-2.7,4.7-1.3,8.1,3,8.8
	c6.6,1.1,13.9,2.2,20.3,0.6c18.3-4.5,30.1-23.6,26.1-40.5c-3.1-13.3-17.9-19.9-30.1-13.6c-1.9,1-4.4,1.4-6.5,1.3
	c-19-1-33.3,6.8-42.4,23.4c-4.4,7.9-8.2,16.1-12.2,24.2c-1.2,2.4-2.4,4.8-4.8,7c0-4.2-0.4-8.4,0.1-12.6c2.6-26.6,9-51.9,28.7-71.4
	c5.8-5.8,13.5-10.4,21.1-13.7c14.7-6.2,25.2-2.5,35,10.1C338.8,144.9,342,167,341.1,190.3z"/>
<path fill="#C49A6C" d="M774.9,112.3c-18.6-14.4-39.5-21.7-63.2-17c-8,1.6-15.6,4.9-22,6.9c-3.7-7.3-6.5-15.4-11.5-21.8
	c-4-5.1-4.9-8.2-1.6-14c7.5-13.1,3.8-33.8-12.9-37.2c-12.9-2.7-27.4,5.1-29.8,18.6c-1.5,8.2,0.4,15.8,5,22.5c2.3,3.4,2.2,5.4-1.3,8
	c-6.9,5.1-10.2,12.3-10.7,20.9c-0.1,1.6-0.5,3.2-0.9,5.7c-2.7-1.5-4.7-2.5-6.7-3.6c-13.2-7.1-27.4-9.2-42-6.6
	c-23.5,4.1-42.3,16.7-56.7,35.2c-21.2,27.1-25.8,58.9-21.8,92c4.1,33.5,15.7,64.7,32,94c33.3,60.1,74.4,114.8,116.7,168.6
	c2.5,3.1,5.2,6,8.3,9.7c2.5-2.8,4.7-5,6.5-7.4c15.1-20,30.4-39.9,45-60.2c27.3-38.1,54-76.6,76.2-118c20-37.2,33.6-76.2,30.3-119.4
	C811.6,158.2,799.9,131.7,774.9,112.3z M725.8,113.9c22.2,2.4,40.4,11.2,53.4,29.8c8.4,12,13.2,25.2,14.9,39.6
	c-0.5,0.4-1.1,0.8-1.6,1.3c-1.6-1.2-3.4-2.3-4.8-3.8c-7.9-8-20.9-9.8-29-3.5c-2.2,1.7-3.8,4.8-4.4,7.5c-0.4,1.6,1.3,4.5,2.9,5.4
	c1,0.6,4.2-0.9,5.1-2.3c3.2-5.1,7.3-7.4,13.1-5.2c5.6,2.1,10.3,10.3,9.8,16.4c-0.7,7.9-6.5,14.9-14.2,17.2c-8,2.4-17.5,0-22-6.2
	c-1.7-2.3-2.9-5.6-3-8.5c-0.3-15-0.1-30.1,0-45.1c0-1.1,0.5-2.2,0.8-3.5c4.1,2.3,7.5,4.2,11.9,6.7c1.5-8.4,3-15.4,3.9-22.6
	c0.1-1-2.5-3.5-3.4-3.3c-3.8,0.7-8.9-1.3-11,5.1c-3.1-4.1-6.1-7.9-9.4-0.8c-8-8.5-17.3-3.8-25.5-2.7c-10.6,1.5-12.3,12-15.6,21.3
	c-3.6-4.5-6.6-8.7-10-12.5c-5.3-5.7-10.7-6.8-15.9-3.6c-1.5,0.9-2.7,2.2-4,3.3c-1.2,0.9-2.3,1.8-3.8,3
	C665.3,133,706.3,111.8,725.8,113.9z M689.9,379.7c-6.1,1.2-12.2,2.4-18.7,3.6c1.9-6,3.8-11.8,5.7-17.6c-0.6-0.5-1.3-1-1.9-1.4
	c-4.4,3.3-8.8,6.7-13.7,10.4c-2.2-5.6-4.4-11-6.5-16.3c-0.5,0-1.1,0-1.6,0c-1.6,5.2-3.2,10.3-4.8,15.5c-4.4-3.1-8.8-6.3-13.1-9.4
	c-0.8,0.4-1.6,0.7-2.5,1.1c0.9-4.5,1.1-9.2,2.8-13.3c2.1-5,6.5-7.1,12.3-6c4.3,0.8,8.8,0.7,13.2,0.5c12.5-0.5,18.8,6.2,17.2,18.8
	c-0.1,0.9-0.2,1.9-0.3,3.2C690.3,370.7,690.6,371,689.9,379.7z M636.2,399.1c4.5-2.5,8.6-0.3,11.6,3.6c2.3,3,4.3,6.3,7.2,10.4
	c2.8-3.7,4.9-6.9,7.4-9.8c3.1-3.8,7-6.8,11.9-4c4.5,2.6,5.2,7.3,3.9,12.2c-2.5,9.6-12.3,16.1-24,15.9c-10.9-0.2-20.4-7-22.5-16.3
	C630.5,406.2,631.7,401.5,636.2,399.1z M620.2,378.1c0.8-3.7,0.4-8.1,5.4-8.4c4.3-0.2,8.9-0.1,10.4,5.7c0.7,2.7,2.5,5,4.5,9.1
	C632.7,382,626.6,380.1,620.2,378.1z M586.4,188.4c10.8-11,24.3-13.4,38-6.2c11,5.7,20.3,13.9,25.6,25.1c2.8,6,2.2,13.6,3.1,20.5
	c-0.8,0.3-1.6,0.5-2.5,0.8c-3.3-9.3-8.8-15.6-19.3-15.2c-6.3,0.2-8.9,4.5-10.6,10.5c-1.1-1.3-2.1-2-2.3-2.9
	c-1.9-8.4-8.8-10.7-18.6-8c-12.4,3.4-20.1,17.6-17.6,30.8c1.5,7.8,4.7,14.7,10,20.5c6.5,7.1,13.5,13.8,20.2,20.6
	c3.2,3.3,6.4,3.8,9.9,0.2c8.4-9,17-17.8,25.4-26.8c1.2-1.2,2.1-2.6,4-5c0,19.5,0,37.8,0,55.4c-5.3-1-10.4-2.4-15.6-2.8
	c-4.5-0.3-8.1,2.5-8.8,6.8c-0.4,2.2,2,4.8,3.2,7.3c1.5-1,3.4-1.7,4.4-3.1c2.6-3.8,5.8-3.4,9.1-1.9c4.7,2.1,7.1,7.4,5.5,12
	c-3.1,9-10.7,12.2-19.3,7.7c-13.7-7.3-23.5-18.7-31.3-31.8c-14-23.6-23.2-49-25.2-76.6C572.9,211.9,576.1,198.9,586.4,188.4z
	 M572.5,187c0-10.9,0-21.7,0-34.4c2.1,2.9,3.2,4.8,4.7,6.2c1.2,1.1,2.9,2.1,4.4,2.1c0.7,0,1.7-2.2,2.2-3.5c1.3-3.4,2-7.1,3.5-10.3
	c2.4-5.1,6.5-5.7,10.7-2c4.7,4.2,7.9,15.8,5.5,21.4c-0.6,1.4-2.1,3-3.5,3.5c-10.1,3.9-19.7,8.5-26.3,17.8
	C573.3,187.6,572.9,187.3,572.5,187z M669.4,186.8c-0.4,0.6-0.7,1.3-1.2,1.8c-13,13.4-11.5,15.6-25.9-2.4c4.1-2.9,7.7-5.8,11.6-8.2
	c1-0.6,3.3-0.4,4.4,0.4C662,181,665.5,183.9,669.4,186.8z M662,159.2c6.2-1.3,7.1-6.6,10.2-10.4c3-3.6,7.9-3.4,11.6,0.8
	c5.3,6.2,10.1,13,15.3,19.8c-8.1,4.1-14.9,7.6-21.7,11c-3.5,1.7-11.6-2.3-15.2-7.3C659.8,169.8,659.3,159.7,662,159.2z M655.9,330.2
	c2,3.1,3.7,5.5,5.8,8.8c-4.3,0-7.6,0-12.5,0C652,335.5,653.7,333.1,655.9,330.2z M648.2,172.9c-9.4,9.2-9.3,9.1-21,3.3
	c-4.6-2.3-9.4-4.3-15.4-6.9c6-7,11.3-13.9,17.4-19.9c5.3-5.1,11-3.1,13.9,3.9c0.8,2,2.5,3.9,4.1,5.3
	C652.2,162.6,652.7,168.6,648.2,172.9z M677.5,336.4c-5.3,2.7-10.6-0.4-13.7-6.3c-2.8-5.3-2-11.2,1.8-14.3c4.4-3.5,8.5-2.7,13.2,1.9
	c1.2,1.2,3.1,1.6,4.6,2.4c0.4-1.9,1.4-4,1-5.8c-1.8-7.5-11.8-11.2-19.5-7.4c-1.7,0.8-3.2,1.8-5.2,2.9c0-20.2,0-39.6,0-58.9
	c0.4-0.1,0.9-0.2,1.3-0.4c4.3,5.8,8.2,11.8,12.8,17.3c5,5.9,10.5,11.3,15.9,16.7c3,3,6.5,3.4,9.7,0.1c8.7-9.2,17.9-18.1,25.7-28
	c7.9-10.2,7-25.9-0.7-35.7c-5-6.4-11.6-9.3-19.8-7.9c-6.6,1.1-9.4,5.9-12.1,13.2c-1.2-3.3-1.9-5-2.6-6.9c-2.5-6.9-6.5-8.9-13.5-6.8
	c-7.8,2.4-12.4,8.1-15.2,15.6c-0.6,0-1.1-0.1-1.7-0.1c0.3-5.6-0.9-12,1.3-16.8c6.7-14.7,17.2-26.2,33.2-30.8
	c18.6-5.3,37.2,7.3,41.5,27.6c2.9,13.9,1,27.6-2.3,41.2c-6.8,28.2-18.5,53.9-38.7,75C690,329.2,683.7,333.2,677.5,336.4z
	 M735.8,186.3c-6.5-7.1-14.1-12.5-23.8-14.4c-4.8-0.9-6.8-4-7.1-8.5c-0.4-6.9,0.7-13.5,6.1-18.5c4.7-4.3,9.4-3.6,12.1,2.2
	c1.8,3.8,2.4,8.1,3.9,12c0.5,1.4,1.9,3.7,2.8,3.6c1.6-0.1,3.6-1.3,4.6-2.6c1.7-2.4,2.6-5.3,3.9-8c0.4,0.1,0.8,0.1,1.2,0.2
	c0,12.2,0,24.3,0,37.3C738.1,188.4,736.9,187.4,735.8,186.3z M647.3,49.8c1.7-14,30-7.8,19.6,6.8c-2.9,4.1-6.8,5.9-12,3.9
	C650,58.6,646.6,55.7,647.3,49.8z M667.5,66.6c-1.5,3.8-2.3,6-2.8,7.3c-5.5-0.5-10.2-0.9-15.8-1.5c-0.8-1.7-2.4-4.7-4.4-8.6
	C652,66.9,658.6,71.1,667.5,66.6z M656.2,87.5c9.9-0.1,17.9,7.4,17.9,16.6c-0.1,9.3-8.1,17.6-17.1,17.6c-10,0-17.6-7.2-17.7-16.7
	C639.2,95.4,646.7,87.6,656.2,87.5z M518.2,180.2c5.6-30.8,28.8-61.1,62.3-65.8c27.8-3.9,49.9,7.8,67.7,28.6c1,1.2,1.4,2.9,2.1,4.3
	c-0.4,0.3-0.8,0.6-1.2,0.9c-1.3-1.2-2.7-2.3-4-3.6c-7.3-6.8-13.6-6.9-20.7,0.1c-3,3-5.5,6.5-8.3,9.6c-1.5,1.6-3.2,3-5.1,4.8
	c-7.2-24-22.8-32.2-37.3-19.9c-3.2-2.1-6.6-6-10.3-0.6c-1.8-1.3-3.2-3.1-5.1-3.6c-3-0.8-6.3-0.8-9.5-1.1c0,2.8-0.2,5.6,0.1,8.3
	c0.3,3.1,0.9,6.1,1.6,9.1c1.5,6.4,3.4,7.2,9,3.7c1.3-0.8,2.4-1.8,4.5-3.4c0.4,2.9,0.9,5,0.9,7.1c0.2,15.4,0.3,30.9,0.3,46.3
	c0,5.7-7.7,11.3-16,12.2c-9,0.9-17.2-3.6-20.4-11.1c-3.2-7.7-1.2-15.8,5.1-20.9c5.3-4.2,9.8-3.5,14.3,1.6c1.4,1.6,4.3,2,6.5,3
	c0.6-2.6,2.3-5.5,1.7-7.7c-1.6-5.4-6.6-7.3-11.7-8c-8.5-1.2-16,1.1-21.8,7.9c-0.9,1-2.8,1.2-4.2,1.8
	C518.8,182.6,518,181.3,518.2,180.2z M539.8,288.5c-7.7-11.2-12.2-23.8-14.2-36.5c5.9,0,11.6,0.9,17-0.2c7.4-1.6,10.4-8,8.6-15.7
	c-1.4-6.2-6.8-9.8-13.5-9c-3.2,0.4-6,1.5-5.5,6.2c2-0.1,4-0.7,5.7-0.2c2.3,0.8,5.7,2.2,6.1,4c0.5,2.2-0.8,5.7-2.5,7.4
	c-4.4,4.2-12.5,2.8-16.7-3.2c-2.7-3.9-5-8.5-5.8-13c-1.5-8.7-1.8-17.6-2.4-26.4c-0.1-1.9,0.5-3.9,1.6-6c2.5,10.2,6.3,19.4,15.8,24.5
	c9.4,4.9,19.1,3.2,28.7-0.5c2.6,15.3,5.1,30.3,7.7,45.2c-13-4.2-20.8-2.4-24.1,5.6c-2.7,6.4-1.8,9.7,4.2,12.5c0.6-2,1.4-3.9,1.9-5.9
	c0.9-3.7,2.7-6.3,6.9-6.6c4.2-0.3,6.9,1.8,8.6,5.4c2.4,5.1,1.4,12.1-2.3,16.2c-4.1,4.5-11.1,6.2-17,3.3
	C545.3,293.9,541.8,291.5,539.8,288.5z M740.9,338c-4.2,3-9,3.6-13.6,0.7c-4.7-2.9-6.5-7.4-6-12.9c0.5-5.2,3.5-8.6,8.5-9.7
	c5.1-1.2,7.2,2.5,9.1,6.2c0.9,1.7,1.7,3.3,2.7,5c5.8-4,4.7-12.6-1.6-16.9c-9.6-6.6-22.9-0.4-25.2,11.7c-2,10.3,3.1,19.8,12.8,24
	c7.5,3.3,8.4,4.9,3.7,11.9c-11.9,18-23.9,36-36.2,53.6c-11.4,16.2-23.4,32.1-35.1,48.1c-1.1,1.5-2.3,3-4.1,5.3
	c-5.6-7.2-11-13.8-16-20.8c-19.2-26.8-38.2-53.7-57.3-80.6c-0.7-0.9-1.3-1.9-1.9-2.9c-6-9.7-5.7-10.7,4.4-15.7
	c9-4.5,13.5-15.9,9.9-25.7c-3.1-8.6-12.3-13.5-20.9-11.2c-6,1.6-10,6.5-9.6,12.7c0.1,1.8,1.6,3.5,2.5,5.2c1.5-1.2,3.5-2.1,4.4-3.6
	c3.8-6.7,8.2-8.5,13.3-5c4.1,2.8,5.7,10.5,3.2,15.9c-2.6,5.7-7.6,8.3-13.7,6.1c-3.9-1.4-8.2-3.2-10.9-6.1
	c-7.9-8.2-12.1-18.5-16.1-29.6c24.6-3.2,26-4.5,29.1-26c13,27.4,27.6,51.8,55.2,65.1c0,0.7,0.1,1.3,0.1,2c-4.2,1.2-8.3,2.8-12.5,3.7
	c-9.5,2.1-20.4,15.7-19.3,25.8c3.5-0.9,6.9-1.8,11.5-3c0,3.4-0.1,6.3,0,9.3c0.1,2.8,0.5,5.5,0.7,8.3c0.5,0.1,1,0.3,1.4,0.4
	c2-2.7,3.9-5.4,6.5-8.9c3.1,4.1,5.9,7.8,8.7,11.4c-12.4,18.2-1.6,33.1,10.5,39.5c15.9,8.4,37.4,2.1,45.3-13.1
	c3.2-6.2,4-13.1,0.4-18.9c-3.8-6-2.1-9.8,2.1-13.9c0.8-0.8,1.5-1.7,2.6-3c1.3,1.5,2.4,2.9,4,4.8c2-5.4,3.7-10.3,5.6-15.4
	c3.8,1.3,7.3,2.4,11.6,3.9c0.4-9.8-2.9-17.2-9.5-21.7c-6.2-4.2-13.9-6.3-22.7-10c15-5.7,24.9-15.6,32.9-27.3
	c7.9-11.5,14.9-23.7,22.5-35.9c1,17,11,24.1,27.2,22.7c0.5,1,0.8,1.4,0.8,1.6C757.5,317.8,752.3,329.9,740.9,338z M794.1,222.5
	c-0.3,5.1-1.9,10.2-3.7,15c-2,5.3-6.2,9.3-12,9.5c-3.2,0.1-7-1.5-9.6-3.4c-1.3-1-1.9-5.7-0.9-6.6c2.1-1.9,5.4-2.6,8.3-3.5
	c1.2-0.4,2.6-0.2,4.1-0.3c0.2-4.6-2.9-5.7-6.1-6.4c-5-1.1-9.3,0.4-12,4.8c-3,4.8-3.2,9.8-0.4,14.8c3.3,5.8,8.9,7,14.9,6.7
	c2.8-0.1,5.6-0.9,9.4-1.6c-3.8,14.3-7.3,27.8-16.7,38.8c-4.8,5.7-11,8.3-18.6,6.2c-4.9-1.3-8-4.4-9.2-9.3
	c-1.3-5.2-0.9-10.3,3.4-13.8c2.1-1.7,5.8-2.9,8.2-2.2c2,0.5,3.3,4.1,4.8,6.3c1.2,1.7,2.2,3.6,3.3,5.4c1.3-2.4,3.6-4.7,3.6-7.1
	c-0.1-8.4-7-14.1-15.5-13.2c-2.8,0.3-5.6,0.9-8.6,1.5c1.5-7.7,3.2-15.1,4.3-22.6c1.1-7.3,1.5-14.8,2.3-22.9
	c10.2,5,20.2,7.4,30.4,2.6c10.3-4.8,13.6-14.4,14.8-25.1c0.6,0.1,1.1,0.2,1.7,0.3C794.2,205,794.7,213.8,794.1,222.5z"/>
</svg>
