<?xml version="1.0" encoding="utf-8"?>
<!-- Generator: Adobe Illustrator 27.3.1, SVG Export Plug-In . SVG Version: 6.00 Build 0)  -->
<svg version="1.1" id="Layer_1" xmlns="http://www.w3.org/2000/svg" xmlns:xlink="http://www.w3.org/1999/xlink" x="0px" y="0px"
	 viewBox="0 0 1200 800" enable-background="new 0 0 1200 800" xml:space="preserve">
<g>
	<path fill="#C49A6C" d="M951.7,519c31.7-96.8,25.1-191.5-23.8-281.5c-47-86.4-127.1-151.8-219.8-180.7c-27.5-8.6-56-14-85.2-15.8
		c-48.9-3-96.7,3.1-143,19.2c-42.6,14.8-80.9,37-115.8,65.4c-52.6,42.8-91.1,95.7-114.4,159.4c-19.3,53-24.7,107.7-18.2,163.6
		c3.7,32.6,11.4,64.1,23.8,94.4c27.5,67.2,72.1,120.7,130.9,162.7c14.3,10.2,29.6,19.2,44.6,28.8c-41.3,0-82.6,0-124.3,0
		c0,8.2,0,16.1,0,23.2c188.4,0.6,376.5,1.2,564.6,1.8c0-8.2,0-15.3,0-23.5c-35.2,0-69.9,0-104.7,0c-0.1-0.5-0.2-1-0.3-1.5
		C855.2,686,919.9,616.2,951.7,519z M907.3,522.6c-1.9-18.5-3.7-37-5.7-56.1c9.5-2.2,19.5-5.6,25-16.3
		C923.6,475.4,916.7,499.4,907.3,522.6z M928,369.6c0.6,4.6,1.7,9.3,1.7,13.9c-0.1,17.8-0.5,35.6-0.7,53.3c0,2.8-1.1,4.2-3.7,5
		c-4.6,1.4-9.2,2.9-14.4,4.6c4.7-7,8.7-12.6,12.2-18.3c2.3-3.6,1-5.8-3.3-6.2c-5.3-0.4-10.2,0.8-14.3,4.6c-1.7,1.5-3.4,3-6.1,3.9
		c0.4-1.6,1-3.1,1.3-4.7c0.5-2.6,1.4-5.3,1.1-7.8c-0.3-2.5-1.4-6.3-3-6.8c-3.3-1.1-7.2,0.3-8.7,4c-1.2,2.8-1.5,6.1-2,9.1
		c-0.3,1.7,0,3.5,0,5.9c-3.9-1.7-7-3.1-10.6-4.6c8.8-11.5,16.9-23.1,28.6-32.7c1.6,7.9,1.4,15.4,7.9,19.1
		c-0.5-7.7-3.1-16.2-1.1-23.4c2.1-7.1,8.9-12.8,13.6-19.1C927,369.4,927.5,369.5,928,369.6z M922.7,334c1,5,1.9,10.1,2.8,15.1
		c1,5,1,9.7-2.8,13.9c-9.4,10.1-18.6,20.3-28,30.4c-0.4,0.4-1,0.5-1.6,0.8c-0.3-0.2-0.7-0.4-1-0.7c12.5-19.4,24.2-39.1,29.4-62.2
		C922,332.2,922.6,333.1,922.7,334z M900.2,270.7c5.9,15.5,12,31,17.4,46.6c1.3,3.6,1.2,8.3,0.1,12c-3.6,11.7-8,23.1-12.2,34.6
		c-0.6,1.6-1.9,2.9-2.9,4.4c-0.4-0.1-0.8-0.3-1.2-0.4c0.3-3.7,0.6-7.5,0.9-11.3c-3.6,1.3-8.9,10-8.1,13c0.1,0.3,0.2,0.7,0.5,0.9
		c6.4,3.3,2.2,7.2,0.4,10.6c-9.2,16.9-18.7,33.5-30.1,49.3c-9.8,13.6-16.1,29.7-23.9,44.7c-1.7,3.2-3.1,6.5-5.2,10.7
		c-1.5-2.3-2.7-3.8-3.6-5.4c-1.5-2.8-2.2-6.1-4.1-8.4c-4.4-5.5-3.6-10.7-1.7-17c4.9-16.7,8.7-33.7,13.3-50.4
		c1.8-6.4,4.6-12.4,6.9-18.6c6.8-18.1,12.7-36.4,13.3-55.9c0.1-2,1-4.3,2.3-5.8c6.3-7.2,8.8-15.9,10.3-24.9c0.7-4.4,2.7-7.3,6.7-9.1
		c3.2-1.5,6.3-3,9.3-4.8c6-3.8,10.4-8.7,10.3-16.8C899.2,269.3,899.9,269.9,900.2,270.7z M809.2,515.8c-2.7-3.1-2-6.2-0.7-9.7
		c3.2-8.2,6.1-16.4,8.8-23.9c5,3,9.9,6,15.4,9.3c-8.4,17.6-18.9,35.2-34.3,49.7c2.3-8.4,4.5-16.8,6.9-25.6c1.4,0.8,2.5,1.4,3.9,2.3
		C809.2,516.9,809.5,516.1,809.2,515.8z M823.2,468.4c2.8,6.1,5.1,11.3,7.9,17.5C820.5,483.7,817.7,477.7,823.2,468.4z M855.5,203.8
		c0.4-0.2,0.8-0.3,1.2-0.5c3.2,3.9,6.5,7.8,10.2,12.3c-2.8,1.1-5.1,2.6-7.5,2.9c-1.2,0.1-3.7-1.7-3.8-2.8
		C855.2,211.8,855.5,207.8,855.5,203.8z M858.1,245.8c3.1-1.1,6.4-1.5,9.7-2.3c3.9-0.9,6.6-2.8,6.6-7.4c0-2,1.1-4,1.7-5.9
		c0.5-0.1,1-0.2,1.5-0.4c5.9,10.4,11.8,20.8,18.2,32c-3.9-1.1-6.8-2.7-9.6-2.6c-2.9,0.1-5.7,1.9-9.1,3.1c-1.7-1.1-4-3.3-6.7-4.2
		c-7.5-2.3-13.8,4-12.9,12.4c0.8,7.2,5.2,12.2,10.2,16.6c3.4,3,3.9,5.8,2.6,10c-3.9,12.7-5.9,17.6-9.7,21.5
		c-1.7-12.4-3.1-24.6-5-36.7c-1.2-7.5-3-14.9-4.6-22.4C849.1,251.6,850.4,248.6,858.1,245.8z M835.5,184.2c13.9,7,19.8,24.7,12.5,38
		c-0.7,1.3-0.3,3.4-0.2,5.1c0.1,3.9,0.4,7.8-0.4,11.8C839.6,221.4,834.9,203.3,835.5,184.2z M848.4,271.6
		c-15.9-6.4-19.8-22.1-30.7-32.7c6.3,1.3,11.4,2.5,16.5,3.5c4.9,0.9,7.9,3.4,8.9,8.6C844.5,257.6,846.4,264.1,848.4,271.6z
		 M816.8,167c11.8,7.6,16.9,18.4,14.1,32.8c-5.2-10.7-10.4-21.5-15.5-32.2C815.9,167.4,816.3,167.2,816.8,167z M817.2,181
		c-3.8-2.6-6.9-4.7-10.2-6.9C811.6,170.3,815.3,172.9,817.2,181z M608.6,84.2c5.5,2.2,8.7,9.3,6.1,15.5c-1.7,4.1-4.6,7.7-7,11.5
		c0.5-12.1-3.8-18.3-13.7-19.5C597,85.1,603,82,608.6,84.2z M580.6,83.8c6.3,0.5,10.4,6.3,10.3,12.7c0,5.3,1.1,10.8,2.6,15.9
		c0.6,2,3.6,3.3,5.8,5.2c0.1-0.2,0.1,0,0,0.1c-7.6,7.7-8.1,7.8-15.6,0.1c-4.4-4.5-8.4-9.4-11.9-14.6c-1.6-2.3-2.1-5.6-2.2-8.5
		C569.6,88.5,574.9,83.4,580.6,83.8z M565,78.8c-6.2,6.8-8.4,14.5-7,23.1c1.4,8.4,5.9,15.2,11.8,21c5.8,5.7,12.3,10.7,18.3,16.2
		c2.3,2.1,4.5,1.8,6.6,0c8.2-7.1,16.8-13.7,24.2-21.5c9.1-9.6,12.8-24.8,2.9-37.9c-0.3-0.3-0.2-0.9-0.5-1.7
		c35.6,1.7,69.4,10.4,103.6,23c-12.9,2.9-24.6,5-36,8.1c-23.5,6.4-46.2,14.9-66,29.7c-12.4,9.3-22.4,20.8-31.5,33.3
		c-1,1.3-2,2.7-3.6,4.9c-22.6-38-51.9-67.4-94.2-81.7C499.8,89.8,550.1,78.1,565,78.8z M422.4,134.9c0.1-1.3,0.8-3.1,1.8-3.7
		c7-4,14.1-7.8,21.2-11.6c0.3,0.5,0.5,0.9,0.8,1.4c-8,6.9-9.3,11.5-4.7,16.2c3.5,3.5,9.4,3.1,12.9-0.8c4.1-4.7,2.5-10.5-4.3-15.8
		c4.1-2,11.5-1.8,20.7-0.4c41.1,6.6,70.6,29.9,93.1,63.6c2.2,3.3,4.4,6.7,6.5,10.1c0.3,0.5,0.6,1.2,0.7,1.5
		c-9,2.5-17.9,5.1-26.9,7.6c3-9.2,4.1-18.6-5.9-25.1c-7.3-4.7-12.7-3.4-23.3,4.8c-2.5-1.2-4.9-3-7.5-3.7
		c-10.6-2.7-19.3,5.1-18.5,16.1c0.6,7.9,4.6,13.9,10.9,18.2c5.6,3.8,11.4,7.5,17.6,10.3c2.3,1.1,5.9-0.5,9.4-0.9
		c-2,8.5-6.2,16.4-11.5,24.2c-0.8-1.1-1.5-1.9-1.9-2.7c-7.4-14-20-19.4-34.9-20.4c-2.6-0.2-3.8-0.7-4.2-3.5
		c-1.9-12.7-8.6-22.9-17.5-31.7c-8.3-8.2-16.6-16.4-24.7-24.8C424.4,155.8,421.8,145.8,422.4,134.9z M506.2,256.2
		c-1.3,0.7-2.5,1.6-4.3,2.8c-6-10.4-14.1-15.5-26-9.4c-0.5-7.2-1-14.2-1.5-21.5c15.1,0.1,26.9,5.1,34.3,18.6
		C511.2,251.2,510.6,253.9,506.2,256.2z M437.7,223.8c9.6,1.1,18.7,2,27.6,3.1c0.9,0.1,2.1,1.3,2.3,2.2c1.7,6.7,3.2,13.5,0.8,21.1
		c-2.1-0.8-3.8-1.6-5.6-2.1c-6.3-1.8-12.2-1.3-17.2,3.4c-0.6,0.6-1.2,1.3-2,1.5c-10.4,3.6-20.9,7-32.7,11
		C424.8,253.3,439,244.4,437.7,223.8z M410.7,137.8c3.7,8.5,7.1,16.3,10.3,23.7c-16.3-4.9-32.5,0.7-48.9,6.3
		C383.9,156,397.4,146.7,410.7,137.8z M353.5,186.9c5.9-7.1,13.6-10.2,21.9-12.6c11-3.2,21.8-7.2,32.9-9.4c8.8-1.8,17.2,1.3,24,7.5
		c8.8,8.1,17.6,16.3,26,24.8c6.7,6.8,9.7,15.6,11,25.4c-7.8-1.1-15.3-2.1-22.8-3.2c-0.5-0.1-1-0.3-1.5-0.2c-5.8,0.6-9.4-2-13-6.8
		c-3-3.9-8.4-5.9-13.1-8.9c1.7-1.4,4.1-3.1,6.3-5.2c6-5.6,9.1-12.2,6.6-20.6c-1.4-4.7-4.2-7.9-9.2-8.8c-4.8-0.9-8.8,0.7-11.9,4.6
		c-0.5,0.6-1,1.3-1.7,2.3c-1.2-0.7-2.4-1.2-3.3-2c-3.5-2.9-7.7-3.8-11-1.2c-2.8,2.2-5.2,6.1-5.9,9.6c-1.4,6.5,1.8,12,6.6,16.4
		c2.7,2.5,5.6,4.7,8.8,7.2c-2.5,2-5,4-7.4,6c-18.8-11.8-29.3-10.5-39.6,5.2c-4.8-5.2-5.8-11.7-7.5-17.9
		C348.2,194,350.3,190.8,353.5,186.9z M374.8,262.7c-6.6-0.4-15.8-0.9-25.4-1.5c3.3-5.3,6.7-10.6,9.2-14.6
		C364.1,252.2,370.2,258.2,374.8,262.7z M342.6,198.1c2.8,7.5,5.2,13.9,7.8,20.6c-6.7-1.7-13.3-3.3-20.4-5.1
		C334.3,208.3,338.3,203.4,342.6,198.1z M324.8,221.8c0.8-1.2,3.4-1.9,5.1-1.8c3.6,0.2,7.2,1,10.8,1.8c11.6,2.7,15.4,6.9,15.8,18.6
		c0.2,5.6-3.2,9.8-8.1,12.8c1.2-2.4,3-4.7,3.6-7.3c0.9-4.1,1.6-8.5,1-12.5c-0.4-2.5-3.2-5.4-5.7-6.5c-3.3-1.5-6.8-0.2-9,3.3
		c-0.3,0.5-0.8,1-1.1,1.3c-0.4,0-0.6,0.1-0.8,0.1c-7.2-2.8-11-2.3-13.8,1.8c-2.9,4.3-2.1,11,2.8,15.4c3.7,3.3,8.4,5.7,12.5,8.4
		c-10.7-0.8-21.7-1.7-33.9-2.6C311,243.3,317.8,232.5,324.8,221.8z M306.6,261.9c3.3-0.3,6.6,0.2,9.9,0.5c4.1,0.3,8.2,0.4,12.3,1.2
		c5.3,1,10.6,2.2,15.7,3.9c1.1,0.4,1.5,2.9,1.6,4.9c-6.2-5.7-13.2-6.2-20.7-5c-2.5,0.4-5.3-0.2-7.8-1c-3.4-1.1-5.7-0.2-6.8,3
		c-1.4,4.1-2.4,8.3-3.2,12.5c-0.5,2.6-1,4.6-5.7,3.5c1.6-6.2,3.3-12.5,4.6-17.8c-1.8-1-3.3-1.8-4.7-2.6
		C303.5,263.8,305,262,306.6,261.9z M326,336.1c3.7,10.5-10.4,28.8-23.7,37.7C310.5,361.2,311.7,344.5,326,336.1z M306.3,305
		c-0.7-1-3.1-1-4.7-1.1c-3.9-0.1-7.8,0-11.7,0c6.5-6.6,12.4-6.3,18.5-1.2c4.6,3.9,9.9,7,14.6,11C317.8,310.2,310.5,310.9,306.3,305z
		 M295.7,272.5c0.3,0.1,0.5,0.2,0.8,0.2c-0.3,4.2-0.6,8.3-1,12.9c7.3-1.7,4.9,3.2,5.5,6.2c-4.9,1.3-9.4,2.5-15,4
		C289.5,287.6,292.6,280.1,295.7,272.5z M267.8,389c1.7-25.4,5.3-50.5,12.7-75c2.1-7.1,2.4-7.3,9.3-6.6c-1.6,5.1-4.2,10.2-4.6,15.5
		c-0.7,9.4,4.9,15.8,12.8,20.2c4.2,2.3,8.2,4.9,12.4,7.5c-2.3,4.3-4.1,7.7-5.9,11c-0.5,0-1.1-0.1-1.6-0.1c-0.6-4.4-1.2-8.8-1.8-13.2
		c-0.3-0.2-0.7-0.5-1-0.7c-1.1,2.2-2.6,4.4-3.1,6.7c-0.4,1.8,0,4.2,0.9,5.8c3.9,6.7,0.8,12.2-2.9,17.2c-7,9.5-16.4,16.3-27.1,23.2
		C267.7,396,267.5,392.5,267.8,389z M280.1,447.6c2.1-6.7,3.7-13.9,7.2-19.8c6-10.3,18.8-11,27.4-2.5c4.9,4.9,6.9,10.9,6.8,17.6
		c-0.2,8.3-6.7,12-14.6,8.4c0.2-0.2,0.3-0.6,0.5-0.6c9.9-0.7,11.7-2.4,10.1-12.3c-0.7-4.2-2.8-8.7-5.6-11.7
		c-5.9-6.4-15.4-5.4-20.8,1.4c-4.4,5.5-5.7,9.4-8,24.1c-0.6,0.2-1.1,0.4-1.7,0.6C280.9,451.1,279.7,449.1,280.1,447.6z M317.4,415.7
		c5.8,5.6,11.6,11.2,16.6,17.5c2,2.6,2.1,6.8,2.7,10.3c0.3,2,0.6,4.7-2.8,4.5c-3-0.2-6.3-0.2-6.2-4.6c0-1.2-0.1-2.3,0-3.5
		c0.3-10.3-4.6-17.6-13-23c-1-0.7-2-1.3-3.1-2c0.2-0.4,0.3-0.8,0.5-1.2C313.8,414.3,316.1,414.5,317.4,415.7z M316.7,403
		c8.2-3.1,9.6-1.7,11.7,10.8C324.5,410.2,320.8,406.7,316.7,403z M303.7,513.1c-4.1-0.3-8.2,0.1-12.3-0.2c-1.3-0.1-3.2-1-3.7-2.1
		c-1.8-4-3.1-8.3-5.1-13.8c2.5,0.8,4.3,0.8,4.8,1.6c6.8,11.1,16.6,13.3,28.5,9.7C312.4,512,308.4,513.4,303.7,513.1z M318.8,481.7
		c2.5-7.4-5-15.5-14.2-14.5c-8.6,0.9-14.3,6.5-16.8,16c-0.8,3.1-2.7,5.8-4.7,8.5c-3.2-10.9,3.3-28,12.2-33.5
		c1.3-0.8,3.3-0.5,4.9-0.5c5.9,0,11.9,0.9,17.6-0.1c3.7-0.7,6.9-4,10.4-6.2c-0.1-0.5-0.2-1-0.3-1.5c0.5,0.1,1,0.2,1.4,0.3
		c9.1,2.8,10.9,5.6,7.4,14.9c-3.5,9.4-7.9,18.5-11.9,27.7c-1.9-2.4-4-4.7-5.7-7.3C318.6,484.5,318.5,482.8,318.8,481.7z
		 M321.3,512.4c-0.5-0.5-0.3-2.2,0.1-3c1.7-3.2,3.7-6.2,5.7-9.4c3.8,5.1,6,19.5,4,22.1C327.8,518.9,324.4,515.8,321.3,512.4z
		 M378.1,609.2c-2.3,11.6-1.4,23.8-1.9,36.7c-19-18-36.1-37-50.5-59.3c4.3,0,7.7,0.7,10.7-0.2c6.6-2,13.4-4.1,19.4-7.4
		c8.1-4.5,7.7-12.5,0-18.3c3-1.8,3.6-2,5.8,1c3.3,4.5,6.2,9.4,9,14.3C376.6,586.2,380.7,596.4,378.1,609.2z M340.1,505.1
		c6.2,4.8,12.1,9.7,12.7,18.2c0.1,1.1-0.7,2.3-1.4,3.3c-0.1,0.1-1.7-0.2-2.1-0.7C345.1,519.5,341.2,513,340.1,505.1z M412.7,676.3
		c-7.1-7.3-18.3-10.6-19.3-23.6c-1-12.4-3.3-24.6-5-36.9c-0.2-1.6,0-3.2,0-4.8c0.6-0.2,1.3-0.3,1.9-0.5
		c7.9,21.7,15.7,43.4,23.6,65.1C413.5,675.8,413.1,676.1,412.7,676.3z M411.5,645.7c-1.2-2.8-2.2-4.8-3-6.9
		c-4.9-11.2-9.6-22.6-14.7-33.7c-2.4-5.2-4.1-10.3-3.2-16.2c2.2-14.4,4-28.9,6.2-43.3c0.5-3.3,2.2-6.5,3.4-9.8
		C412.6,544.9,419.8,614.3,411.5,645.7z M540.7,682.3c-4.1,8.7-6.8,17.7-4.5,27.5c1.4,6,2.4,12,3.8,19.6c-9.9-2.4-18.8-4.2-27.5-6.6
		c-24.3-6.7-47.3-16.7-69.3-29c-5.6-3.1-8.9-7.2-9.2-13.6c-0.6-15.1-1.4-30.2-2.1-45.3c0.5-0.2,0.9-0.3,1.4-0.5c1,0.7,2,1.4,2.8,2.2
		c1.2,1.1,2.2,2.8,3.6,3.4c5,2.2,9.5,4,13,9.5c2.8,4.3,10.6,5.5,16.1,8c3.2,1.5,6.4,3.1,9.6,4.6c1,0.4,2.1,0.9,3.1,0.8
		c8.4-0.5,15.8,2.1,22,7.6c3.8,3.5,7.5,4.1,11.6,1.2c6.3-4.4,12.2-4.6,17.9,1.1c1.1,1.1,2.8,2.1,4.3,2.3
		C543.1,675.6,542.4,678.6,540.7,682.3z M544.5,723.7c-0.2-3.1-0.6-6.2-1-9.3c0.5-0.2,0.9-0.4,1.4-0.6c3,5.3,6,10.6,9.1,16.2
		C545.9,731.4,544.9,730.6,544.5,723.7z M643.6,666.9c-1.3,1.5-0.9,4.5-1.2,6.8c-0.4,3-0.7,6-1,9c-0.2,1.3-0.8,2.7-0.5,3.9
		c2.6,9.4-3.1,14.6-9.5,19.5c-9.1,7.1-19.6,10.3-31.2,10.3c-0.3,0.4-0.6,0.9-0.9,1.3c1.2,1.5,2.1,3.6,3.7,4.3
		c3.7,1.8,7.7,3,11.6,4.4c1.6,0.6,3.2,1.3,4.8,1.9c0,0.6,0,1.1,0,1.7c-3.1,0.5-6.2,1.4-9.3,1.5c-14.8,0.3-29.6,0.4-44.5,0.7
		c-3.2,0.1-5.2-0.9-6.3-4.2c-1.9-5.4-4.3-10.6-5.6-16.7c7.6,9.2,14.7,18.7,28.5,13.9c4-1.4,7.9-3.3,11.6-5.4
		c1.1-0.6,1.4-2.6,2.4-4.8c-2.9-0.1-4.8-0.5-6.7-0.3c-6.4,0.7-10.9-2.2-14.5-7.1c-3.4-4.7-7-9.3-9.9-14.3c-1.6-2.8-2.7-6.2-2.9-9.4
		c-0.6-6.9,1.9-9,8.8-9.6c2.2-0.2,4.5-1.1,6.4-2.2c4.4-2.7,8.2-2.3,12.5,0.5c2.2,1.4,5.4,1.5,8.2,1.6c1.5,0.1,3.1-1.2,4.6-1.8
		c8.9-3.4,8.8-3.3,6.9-12.8c-3-14.5-6.6-28.8-8.9-43.4c-2.1-13.8-3.4-27.8-3.8-41.7c-1.1-37-1.4-73.9-2.1-110.9
		c0-0.8,0.1-1.6,0.2-2.7c1-0.2,1.5-0.3,2-0.3c10.2-0.5,10-0.4,10,9.5c0,11.8,0.5,23.6,0.6,35.4c0,3.3,1.3,4.4,4.4,4.3
		c3.6-0.1,8.2-1,10.5,0.8c1.9,1.6,0.9,6.5,1.7,9.9c6.6,29.2,13.3,58.3,19.9,87.4c0.7,3.2,1.2,6.5,1.2,9.8c0,11.1-0.4,22.3-0.6,33.4
		c0,2.3,0.1,4.7,0.6,6.9C646.3,661.5,645.9,664.1,643.6,666.9z M730.3,647.1c-6.4-16.5-13.1-32.9-19.1-49.5
		c-2.6-7.2-1.6-14.7,2.1-22.3c0.6,3.9,0.8,7.1,1.6,10.1c0.3,1.4,1.4,3.5,2.5,3.8c1.2,0.3,3.2-0.9,4.1-2.1c3-3.6,3.7-7.8,1.2-12
		c-1.1-1.9-2.3-3.7-3.9-5.2c-3.7-3.5-4.2-7.6-2.9-12.3c8.3,3.6,11.4,9.8,11.8,18.7c1.2,24.2,3.2,48.4,4.9,73.7
		C731.4,648.5,730.6,647.9,730.3,647.1z M739.1,702.5c3.8-46.1-2.8-91.1-6.1-136.2c8.5-0.8,9.2-0.4,10.8,7.9
		c3.2,16.1,7.2,32.1,9.3,48.3c3.4,26.1,1.4,51.8-10.9,75.8C741.5,699.8,740.2,701.1,739.1,702.5z M766.7,682.5
		c-0.5,3.9-2,6.7-5.8,8.5c-2.7,1.2-5,3.1-9,5.7c16.3-44.6,6.4-87-5.1-129.5c10.4-1.4,20.2-2.7,25.5-12.3c1.9-3.4,2.9-7.4,4.7-12
		c-7,2.1-12.3,3.7-17.6,5.3c-0.3-0.5-0.5-1.1-0.8-1.6c1.4-1.3,3.1-2.3,4.1-3.9c3.1-5,6.1-10.1,8.7-15.3c0.3-0.5-1.7-3-3-3.3
		c-6.3-1.4-11.3,1.4-15.9,5.4c-1.5,1.3-3.1,2.5-5.4,3c0.9-2.9,2.3-5.9,2.5-8.9c0.2-3.5-0.6-7-1-10.5c-2.8,0.6-5.5,1.3-8.9,2.1
		c4.8-11.6,10-22.8,20.1-30.7c5.5-4.3,9.5-9.2,10.3-16.4c-1.8-2.3-3.7-4.9-6.3-8.3c-3.2,2-6.8,4.4-10.7,6.9
		c-1.5-2.6-3.1-5.2-4.7-7.8c-6.4,3.6-9.1,8.8-5.8,15.2c4.8,9.7,3.6,17.8-2.4,26.3c-3,4.3-4.6,9.6-6.5,14.5
		c-1.8,4.9-3.2,10.1-4.9,15.4c-5.4-1.3-10.9-2.6-16.4-3.9c-0.3,0.4-0.7,0.9-1,1.3c1.4,3.4,2.9,6.8,4.5,10.6
		c-1.1,0.1-2.1,0.4-2.9,0.1c-3.5-1-4.6,1-4.9,3.8c-0.4,5.2-0.7,10.5-2,15.9c-0.2-1.3-0.4-2.6-0.5-3.8c-0.4-5.8-0.6-11.6-1.1-17.4
		c-0.4-4.2-2.3-6.9-5.9-6.1c-0.5,8-1.1,15.5-1.6,22.9c-0.1,2.2-0.4,4.3-0.4,6.5c0,2.4,0,4.1,0.1,5.5c0.3,3.1,1.5,3.9,4.9,4.1
		c0.1,0,0.1,0,0.2,0c0.4,0,0.9,0,1.4,0c0.8,0,1.6,0,2.6,0v0c0,0,0,0,0,0c-0.4,5-1.7,10.3-1.5,15.2c0,1.1,0.2,2.2,0.4,3.3
		c3,13.4,7.2,26.5,11.5,39.5c2.6,7.9,6.1,15.5,9.4,23.1c3.4,7.7,5.5,15.4,4.2,24.1c-1.3,9.5-1.3,19.3-2.3,28.9
		c-0.2,1.6-1.7,3.9-3,4.4c-15.9,5.3-31.8,10.3-48.4,15.5c0-10.7-0.1-19.7,0.1-28.8c0-1.4,1.7-2.7,2.5-4.2c0.8-1.4,2.3-3.6,1.9-4.3
		c-3.6-5,0.6-10.1-0.4-15.4c-1-5.4,1.2-11.4,1.6-17.2c1-13.9,2.9-27.9,2.3-41.8c-0.9-21.1-3.9-42-5.5-63.1c-0.4-5.6,0.5-11.6,2.2-17
		c2.6-8.6,6.2-16.8,9.7-25.1c0.5-1.2,2.5-2.3,4-2.6c7.9-1.5,8.5-1.5,7.7-9.6c-1.2-11.7-2.7-23.5-5-35c-3.8-18.4-2.1-36.8-1.2-55.2
		c0.8-15.7,1.4-31.4-2.6-46.7c-3.4-13.3-9.3-25.6-20.1-34.9c-2.1-1.8-3.2-4.6-5.2-6.6c-2.1-2.1-4.3-4.4-7-5.5
		c-3.7-1.6-2.9-3.8-2.1-6.4c1.4-4.8,3.2-9.5,3.9-14.4c2.1-14.4-5.3-26-19.3-29.5c-4.4-1.1-9.9,0.3-14.4,1.7
		c-5.5,1.8-10.5,5-15.8,7.2c-1.8,0.8-4.2,0.4-7,0.6c-0.6,1-2,3-3.9,6c2.5,1.7,5.2,3.5,7.1,4.7c0,4.5-0.4,8.6,0.1,12.5
		c0.6,4.2,0.5,7.9-2.4,11.2c-0.7,0.8-0.8,2.1-1.2,3.5c7.4,0.7,9.4,6.3,11.1,11.9c1.7,5.5,3.1,6.5,8.6,4.8c3.1-0.9,6.4-3.5,8.8,1.5
		c2.1,4.6,1.4,7.3-2.6,11.1c-2.2,2.1-4.1,4.9-5.1,7.8c-4.5,13.9-9.2,27.8-12.7,42c-1.7,7.1-1.1,14.9-1.1,22.4c0,3.7-1.6,5.3-4.9,6.3
		c-5.4,1.6-10.6,3.4-17.8,5.8c1.2-8,1.5-14.6,3.3-20.8c4.1-13.7,3-17.9-8.9-25.3c-1.5-1-3.1-2-4.5-3.1c-11-8.7-10.7-15-5.7-27.7
		c0.5-1.3,2.7-2.2,4.3-2.8c2-0.7,4.3-0.8,6.3-1.5c3.5-1.2,4.8-3.4,3.9-7.3c-1.1-4.4-2.1-9.2,2.4-13c-0.8-0.9-1.4-1.9-2.3-2.5
		c-4.3-3.1-8-6.4-7.7-12.5c0.1-1.1-1.1-2.4-1.7-3.5c-0.5-0.9-1.7-1.8-1.6-2.5c1.8-6.9-3.8-8-7.9-9.5c-5.8-2.1-11.7-2.2-17.2,1.4
		c-1.2,0.8-2.6,1.6-4,1.8c-12.2,2.1-18.3,9.1-18.4,21.4c0,3.9,0.6,7.9,0.9,12.2c-5,0.7-10.1,1.8-11.8,8.2c2.1-0.3,4.1-0.6,6-0.9
		c1.8,4.5,0.5,6.9-3.8,8.5c-2.5,0.9-4.4,3.4-6.3,5.7c4.9-0.4,10.2-2.7,10.5,5.5c-1.7,0.6-3.7,1.2-5.6,2c-4.8,2.1-6.8,6.3-5.8,11.4
		c0.2,1.2-0.5,2.5-0.9,4.4c1.3,1.8,3,4.3,4.5,6.4c-1.5,1.8-3.5,3.1-3.5,4.2c0.3,5.2,3.5,8.3,8.7,9.8c-1.1,1.6-2,2.9-2.8,4.2
		c5.5,6.6,5.4,7.3-0.8,11.8c1.6,0.8,3.1,1.6,4.5,2.3c-5.3,10.8-4.7,17.6,2,22.4c4.1,2.9,7.4,2.6,10.9-1c-2.7-1.2-5.8-1.8-7.9-3.6
		c-1.8-1.5-3.1-4.4-3.3-6.7c-0.1-1.2,2.4-3.2,4.1-4c6.3-3,8.6-9.7,5.8-16.1c-0.6-1.4,0.6-3.7,0.9-5.6c0.5,0,1,0,1.4,0
		c0.6,0.9,1.3,1.8,1.7,2.8c5.6,12.8,10.9,25.7,16.8,38.3c3.2,6.7,2.2,12.2-2.5,17.3c-11.4,12.2-19.5,26.5-26.6,41.4
		c-18.5,38.8-45.6,70.5-78,98.2c-4.7,4-9.5,8.1-14.2,12.1c-0.4-0.2-0.8-0.5-1.1-0.7c5.9-26.7,11.8-53.3,17.7-80.4
		c15.6,3.1,27.7-0.4,34.9-16.4c-5.9,0-11.3,0-16.7,0c-0.1-0.5-0.3-1.1-0.4-1.6c1.3-0.7,2.5-1.6,3.9-2.2c6.2-2.4,9.3-7.9,12.6-13
		c0.6-0.9-0.5-3.8-1.7-4.6c-5-3.4-10.2-2-15.1,0.4c-2.4,1.1-4.8,2.5-7.6,3.9c1.8-5,3.7-9.2,4.6-13.6c0.4-2-1-4.4-1.6-6.6
		c-3,0.8-7.3,0.7-8.9,2.7c-2.7,3.4-3.8,8.2-5.7,12.8c-5.2-4.3-10.7-9.6-19-10.9c-1.8,9.9,2.9,17.3,8.1,24.5
		c-0.5,0.4-0.9,0.8-1.4,1.3c-4.6-2.9-9.3-5.8-13.9-8.6c-4.7,11.4,1.5,20,22.3,30.8c-10.2,44.1-24.1,87.7-21.7,134
		c-0.8,0.1-1.5,0.1-2.3,0.2c-0.6-2.5-1.8-4.9-1.8-7.4c-0.1-12-0.4-24,0.2-35.9c1.3-25.8-2.5-50.7-11.9-74.7
		c-0.5-1.4-0.9-2.8-1.4-4.8c11.8-2.3,19.1-8.7,19.6-22.1c-4.9,2.1-9.1,3.9-13.4,5.7c3-6.5,5.7-12.5,8.6-18.9
		c-9.6-2.5-14.6,2-19.2,9.6c0-4.9,0.4-8.1-0.1-11.2c-0.3-1.9-2-4.8-3.3-4.9c-3.2-0.3-5.8,1.6-6,5.3c-0.2,3.3,0,6.6,0,9.5
		c-5.5-0.8-10.8-1.6-16.7-2.4c0.9,8.8,7.2,12.2,11.8,17.2c-3.8-0.5-7.7-1.1-11.5-1.6c-0.3,6.5,2.8,9.9,14.1,15.2
		c-3.5,14.9-7.1,29.8-10.8,45.2c-2.9-5.1-6-10.1-8.6-15.3c-3.2-6.5-6.1-13.2-9-19.9c-1.6-3.6-0.5-5.6,3.6-6.9c3.4-1,6.3-3.4,9.2-5.7
		c-10.3-1.6-10.3-1.6-15.2-10.6c4.8,0.3,9.8,0.2,10.6-5.3c0.5-3.4-0.2-8-2.3-10.5c-4.7-5.6-10.8-3.3-17.1-0.1
		c-1.9-4.1-5.4-8.2-4.9-11.7c0.5-3.5,5-6.3,8-9.7c-3.6,1.1-7.3,2.3-10.9,3.4c-0.2-0.3-0.4-0.7-0.6-1c0.7-0.7,1.3-1.6,2.1-2.2
		c6.5-4.6,12.9-9.4,19.7-13.7c4.3-2.7,10.5-0.2,12.4,4.3c2.4,5.8,4.8,6.2,9.7,1.7c3.3,2.8,6.9,3.9,9.9,0c2.2-2.7,2-6.1-0.7-8.6
		c-2.7-2.5-6.3-3.1-9-0.3c-2.6,2.8-4.9,3-8.6-0.1c7.9-0.6,13.8-6.6,21.9-3.9c3.3,1.1,6.6-2.3,6.8-6.2c0.3-4.4-2.2-7.4-5.9-7.7
		c-4.8-0.4-9.5-1.1-15.6-1.7c2.6-4.1,4.8-6.8,6.2-9.8c0.7-1.5,0.1-3.6,0.1-5.5c-1.6,0.6-3.8,0.8-4.7,1.9c-2.3,3-4.1,6.4-6.1,9.5
		c-3.3-4.2-3.5-8.2-0.5-12.1c2.5-3.3,1.7-6.4-1-8.9c-2.9-2.7-6.4-2.8-9.5-0.2c-2.7,2.2-3.1,6.7-0.7,9.4c6.4,7.1,7.4,18.4,0.3,26
		c-0.1-7.1-6.2-12.3-3.2-19.8c0.5-1.2-2.6-5.3-4.3-5.5c-2.8-0.3-6.6,0.8-8.5,2.7c-1.3,1.2-0.5,5.1,0.2,7.6c0.3,1.2,2.5,2,4,2.7
		c4.9,2.2,8.8,11.3,6.7,16.3c-0.4,0.9-1.2,1.6-2.8,3.6c-1.5-4.2-2.8-7.4-3.8-10.7c-0.8-2.5-0.8-5.8-4.4-5.5
		c-1.8,0.2-4.4,1.7-5.1,3.2c-1.2,2.9,0.2,5.2,3.6,6.4c1.4,0.5,3,3.5,2.6,4.7c-1.1,3.4-2.7,6.7-4.9,9.5c-4.6,5.8-11.8,10.5-18.3,12.2
		c3.5-7.3,6.2-14.2,9.9-20.5c3.9-6.8,5.9-13.3,1.6-20.6c-0.2-0.3-0.4-0.6-0.4-0.9c0.6-10.8-7-18.3-11.7-27.8
		c1.7,0.8,2.8,1.3,4.3,1.9c2.7-8.3-5.1-13.1-6.4-21.4c4.3,2.7,7.5,4.6,10.5,6.7c5.2,3.5,10.8,4.5,16.6,2.3c4.4-1.6,7.7-4.6,8.2-9.8
		c0.5-5-1.4-8.7-6-11c-1.3-0.7-2.5-2.1-3.1-3.4c-4.1-10.2-14.1-11.8-21-3.1c-1.9,2.4-3,5.5-4,8.5c-2.6,7.6-5.9,9.7-13.7,8.4
		c-7.5-1.3-8.6-0.4-10.8,8.1c-4.7,0.6-9.3,0.8-13.8,2c-6.9,1.8-7.9,3.7-8.7,10.9c-0.4,3.4-0.9,7.1-2.5,10.1
		c-5.7,10.9-7,22.4-5.1,34.4c0.4,2.6,0.1,5.3,0.1,8c-0.6,0-1.3,0.1-1.9,0.1c-1.1-5.8-2.8-11.5-3.4-17.3c-1.4-13.7-2.3-27.5-3.5-41.3
		c-0.2-2.7,0.7-4.3,3.2-6c19.9-12.7,38-27.6,53.4-45.5c9.6-11.2,11.3-24.8,10.2-39c-0.2-2.3-0.9-4.6-1-6.9c0-1.5,0.7-3,1.1-4.4
		c1.5,0.5,3.3,0.6,4.3,1.5c4,3.6,8.1,6.3,13.8,5.9c6.3-0.4,8.8-3.5,8.4-9.7c-0.1-1.8,0.6-4.1,1.7-5.6c5.1-7,3.6-12-4.8-13.8
		c-4.4-1-9.1-0.7-14.4-1c1.5-6.9,9.9-11.8,8.4-21.3c10.6,0.8,21.3,1.6,31.9,2.5c1,0.1,2.5,1.4,2.8,2.4c1.9,7.3,3.6,14.6,5.1,21.1
		c-1.4,2.4-3,4.3-3.5,6.5c-0.2,0.9,2,3.4,2.8,3.3c2-0.2,3.8-1.6,6-2.7c0.6,0.8,1.8,2.5,2.9,4.2c-0.5,0.1-0.9,0.2-1.4,0.3
		c0.4,2.4,0,5.5,1.4,7c1.2,1.3,4.8,1.7,6.6,0.9c3.6-1.7,2.5-5.1,1.5-8.1c0,0-0.1,0-0.1,0l0,0l0,0c0,0,0-0.1,0-0.1
		c-1-0.5-2.3-0.7-2.7-1.5c-4-8-7.8-16-11.6-24c-0.5-1.1-0.5-2.5-0.9-4.2c4.3-0.2,7.1,1.1,8.6,4.8c1.9,4.6,4.1,9.1,5.8,13.8
		c0.5,1.4-0.5,3.4-0.3,5c0.1,1.1,0.3,2.1,0.5,3.1c0.2,1,0.4,2,0.6,3c0,0,0.1,0,0.1,0c0,0,0,0.1,0,0.1c0.6,0.2,1.2,0.4,1.9,0.6
		c0.5,0.2,1,0.3,1.4,0.2c0.1,0,0.3,0,0.4-0.1c2.1-0.5,5.3-1.3,5.7-2.6c0.6-2.1-0.1-5.6-1.6-6.9c-4-3.5-5.4-7.6-5.1-12.9
		c1.5,2.1,2.8,4.4,4.5,6.3c2,2.2,4,4.6,6.5,6c1,0.6,2.6,0.2,4.2-0.1c0.5-0.1,1-0.2,1.5-0.2c-0.1-0.5-0.3-1-0.4-1.6
		c-0.1-0.5-0.2-1.1-0.3-1.6c-0.2-1-0.6-2-1.1-2.9c-0.9-1.3-3.1-1.8-4.6-2.8c-2-1.4-3.8-2.9-5.7-4.4c0.2-0.6,0.3-1.2,0.5-1.8
		c2.9,0.2,5.8,0.4,8.7,0.7c5.6,0.4,8-1.3,7.5-5.9c-0.2-1.8-1.8-4.5-3.1-4.8c-2.1-0.4-5.9,0.3-6.5,1.6c-1.6,3.3-4,3-6.5,3
		c-5.2,0-10.5,1-15.6-1.7c13.4-4.2,26.5-8.2,40.1-12.5c-2.2,14.8,6.9,22.8,17,30.2c3.1,2.2,6.6,4,9.5,6.4c3.2,2.6,6,2.8,9.2,0.2
		c5.8-4.7,12-9,17.4-14.1c3-2.9,6-6.8,6.9-10.7c1.2-5.1,4.1-7.6,8-10.4c8.6-6.2,13.7-15.3,18.4-24.5c4.3-8.5,8.4-17,15.9-23.3
		c8.1-6.9,17.2-11.1,27.9-12c3.1-0.2,4.9,0.7,6.3,3.6c2.4,5,5.3,9.9,8.3,15.5c4.8-6.7,9.1-12.9,13.5-19.1
		c27.5-39.3,65.9-59.3,113-63.7c33.5-3.1,64.9,3.2,93.5,21.4c2.8,1.8,5.1,4.2,7.6,6.4c-0.3,0.4-0.5,0.9-0.8,1.3
		c-7.4-0.4-14.9-0.9-23.9-1.4c3.3,3.5,5.9,6.4,8.8,9.5c-0.5,1.2-1.2,3.1-2,5.1c0.1,0.6,0.1,1.1,0.2,1.7c9.5-6.1,16.2-0.8,23.2,3.9
		c-11.3,7.8-50.5-7.9-63.7-25.3c0.6-1,2-2.2,1.8-3.1c-0.4-2.1-1.1-5.2-2.6-5.9c-1.6-0.7-4.7,0.3-6.3,1.6c-2,1.6-1.7,4.1,0.6,6
		c2,1.6,3.8,3.5,5.8,5.2c-0.3,0.5-0.7,1-1,1.6c-1.4-0.5-2.9-0.7-4.2-1.4c-3-1.7-5.9-3.7-8.8-5.6c-2.5-1.5-4.7-2.8-3-6.6
		c0.5-1.2-1.2-4.5-2.6-5.1c-2-0.9-5-0.8-6.9,0.3c-1.1,0.6-1,3.8-0.9,5.9c0.1,1.1,1.3,2.1,2.2,3.3c-4.3,1.4-7.2,1.1-8.5-3.9
		c-1.1-4-4.5-4.7-8.1-3.3c-3.6,1.4-3.5,4.8-2.5,7.7c1.1,3.2,3.9,4,7.3,3.3c1.7-0.4,3.5-0.2,5.3-0.1c3.1,0.1,6.2,0.6,9.2,0.3
		c4.6-0.4,7.8,1.4,11.2,5.9c-2.9,0.2-4.6,0.6-6.2,0.4c-2.5-0.3-5-0.7-7.3-1.5c-11.2-4-22.5-3.1-34-2.2c-2,0.2-4.4-0.9-6-2.1
		c-3.8-3.1-8-3.4-10.6-0.3c-2.7,3.2-2.1,8.8,1.3,11.2c3.5,2.6,7.9,1.2,10.4-3c0.5-0.9,1.4-2.2,2.1-2.2c7-0.5,13.9-0.9,20.9-1.2
		c1,0,2.1,0.7,3.7,1.2c-4.2,2.7-9.5,4.5-6.7,10.6c1.4,3.1,4.1,4.1,7.5,3.2c6.5-1.8,2.8-6.6,3-10.6c6.6-3.1,11.9,0.3,17.5,3.1
		c-2.1,5.5-5.6,7.9-11.2,7.9c-5.4,0-7.8,2.3-7.7,6.4c0.1,3.6,1.4,6.5,5.6,7c4.5,0.4,9.5-3,10.2-7c1.8-11.5,9.7-17,21.4-13.4
		c10.1,3.1,19.8,7.7,29.5,11.9c11.1,4.8,22.3,7.3,34.4,5.1c1.1-0.2,3.3,1,3.7,2.1c4.6,10.5,9.1,20.9,13.3,31.6
		c2,5.2,3.2,10.7,4.2,16.2c-3.6-4.8-7.8-9.1-7.9-15.8c0-3.6-0.8-7.3-2.1-10.6c-1.6-4.2-5.5-5.4-9.9-5.1c-4,0.3-4.9,3.3-6,6.3
		c-0.7,1.7-1.7,4-3.2,4.6c-6.4,2.7-6.7,7.4-2.1,12.2c0.7,0.7,1.1,1.6,1.7,2.5c-1.1,0.1-2.4,0-3.7-0.5c-0.7-0.2-1.4-0.5-2.1-0.9
		c-0.6-0.3-1.2-0.6-1.8-1c-5-3-10.2-8.3-12.4-13.2c-1.6-1-3.3-2-4.9-3.1c-1.7-1.1-3.3-2.1-4.9-3.3c-0.9-0.6-1.2-2.2-1.5-3.4
		c-0.3-1.7-0.4-3.5-0.5-5.2c-2.4,0.4-4.9,0.8-7.3,1.3c0,0-0.1,0-0.1,0c-0.6,0.5-0.4,0.1,0,0c0,0,0,0,0,0c-2.9-1.9-5.2-4.1-7.9-4.8
		c-1.2-0.3-4.3,2.3-4.7,4c-1.4,6.4,5.1,6.1,9.1,9.1c-4.8,2.4-9,4.7-13.3,6.8c-3.3,1.6-5.5,3.8-4.6,7.8c0.9,4,4.5,5.3,10.3,4
		c0.2,4.5,2.2,7.3,7.2,6.6c4.4-0.6,5.5-2.7,5-10.5c4.1-1.3,8.2-2.8,12.5-3.9c1.1-0.3,2.9,0.3,3.8,1.1c1.8,1.5,3,3.6,4.7,5.1
		c2.7,2.5,5.2,6.1,8.4,6.8c9.7,2.2,14.4,9.6,19.9,16.4c3.4,4.3,6.7,8.7,10.4,12.8c1.7,2,3.9,4.2,6.3,4.8c8.2,2.1,10.5,7.7,11.1,15.2
		c1,12.9,2.7,25.8,3.5,38.7c1,16.1-3.6,31.2-8.7,46.2c-1.9,5.7-3.8,11.5-5.7,17.5c-2.1-6.4-4.3-12.3-6-18.3
		c-0.4-1.3,0.5-3.4,1.5-4.6c2.8-3.3,6.3-6,8.8-9.5c4-5.6,3.8-14.1,0.2-18.8c-5.3-6.9-13.9-6.6-18.7,0.7c-0.6,1-1.3,1.9-2,2.9
		c-1.3-0.7-2.4-1.3-3.6-1.8c-7.2-2.9-14.4,2.4-12.4,9.9c1.2,4.5,4.4,8.8,7.5,12.5c2.3,2.7,5.6,4.8,8.9,6.3c7.1,3.2,9.5,8.9,9.9,16
		c1.3,20.9-3.2,40.9-9,60.6c-3.4-2.7-6.7-5.3-9.7-7.7c2.2-2.6,5.4-4.8,6.4-7.8c1.5-4.3-2.4-5.9-6.5-7c2.6-5.1,5.2-10.8-1.2-14.3
		c-5.8-3.2-10.4,0.2-14.6,6c-0.7-2.9-1.2-4.5-1.6-6.2c-1.5-6.8-6.2-12.4-10.9-12.9c-7.4-0.9-13.2,3.6-14.8,11.6
		c-0.4,2.3-0.7,4.6-1.2,7.5c-5.4-2.9-11-7.7-16.1-1.8c-2,2.3-1.1,7.1-1.6,12.5c-5.5,5.2-5,7.2,5.9,13.9c-3.4,3.7-10.7,5.6-7,12.7
		c3.1,6,8.8,7,14.9,6.4c3.2,8.5,5.4,8.9,16,2.6c0,4.3,0,8.1,0,11.9c-0.1,6,1.3,7.8,6.2,9.1c2-7.2,3.9-14.3,5.9-21.6
		c4.3,2,7.5,4.7,10.7,4.6c4.9-0.1,4.7-4.6,4.1-8.6c3.1,0,6,0,10.1,0c-2.6,7.2-5,13.8-7.4,20.3c-2.4,6.5-5,12.9-7.8,20.1
		c-1.2-2.2-1.9-3.7-2.8-5.2c-3.6-6.5-9.5-7.3-15.2-2.5c-1.6,1.4-4.1,2.1-6.2,2.5c-5.3,0.8-10,4.5-10.7,9c-0.7,4.8,1.1,8.7,7,10.6
		c7.1,2.3,14.6,3.4,22.1,5c-2.9,10.6-6.9,22.2-9.3,34.1c-6.3,31.6-12.1,63.3-17.7,95C769.6,657.1,768.3,669.8,766.7,682.5z
		 M752.8,483.1c0-6,2.9-10.9,9.9-15c-2.9,5.2-5.7,10.5-8.6,15.7C753.6,483.6,753.2,483.4,752.8,483.1z M535.1,367.7
		c0,6.3,0,13.3,0,20.3C528.4,381.1,528.7,373.5,535.1,367.7z M377.2,465.7c3.5-9.4,7.1-11,15.8-7.3
		C386.9,461.3,382.1,463.5,377.2,465.7z M770.4,207.4c3.7,3,7,5.7,11,9C772.2,215.1,768.1,211.6,770.4,207.4z M773.6,223.4
		c-2.4,0.8-4.7,1.8-7.2,2.4c-0.8,0.2-1.9-0.7-2.8-1.1c0.5-0.9,0.8-2.5,1.4-2.7c2.7-0.6,5.5-0.8,8.3-1.1
		C773.4,221.7,773.5,222.5,773.6,223.4z M780.7,506.5c5.3,1.3,10.8,1.8,15.8,2.6c0.2-0.1-0.7,0.9-1.4,0.8c-5.3-0.5-10.8-0.6-15.9-2
		c-5.2-1.5-6.7-4.8-5.3-8.5c1.6-4.3,5.9-6.3,10.8-4.2c-1.1,0.3-2.4,0.2-3.1,0.8c-1.8,1.7-4,3.5-4.5,5.7
		C776.7,503.1,779.1,506.1,780.7,506.5z M824.8,643.4c-0.7,0.6-1.5,1.1-3.3,1.2c6.6-20.8,13.1-41.7,19.5-62c6.2-0.4,12-0.4,17.6-1.2
		c7.1-1,11.7-6,15.5-11.6c2-2.9,1-4.3-2.5-4.1c-2.8,0.1-5.7,0.4-8.5,0.3c-1.6-0.1-3.2-0.8-5-2c8.8-3,14.1-9.2,18.5-17.2
		c-9-7.2-17.3-1.3-27.1,2.5c1.2-2.5,1.7-3.5,2.2-4.6c1.3-3,3-5.9,3.7-9.1c0.5-2.1-0.6-4.5-1-6.8c-3.1,0.6-6.8,0.4-9.2,2.1
		c-2.3,1.7-3.2,5.2-4.5,8.1c-0.7,1.6-0.8,3.5-1.2,5.1c-6.2-4.1-12.3-8.2-19.2-12.7c-2.3,11,2.6,18.3,7.2,25.7
		c-0.4,0.5-0.9,0.9-1.3,1.4c-4.6-2.8-9.2-5.6-13.8-8.4c-2.9,11.2,2.9,21.5,15.4,27.2c7.5,3.4,7.6,3.4,5,11.5
		c-6.1,19-12,38-18.4,56.8c-1.4,4.2-3.9,8.8-7.2,11.6c-10.2,8.7-21.1,16.7-31.8,24.9c-0.3,0.3-0.9,0.2-1.9,0.5
		c1-7.8,1.8-15.3,3-22.7c5.2-30.6,10.6-61.2,15.6-91.8c1.2-7.6,5.2-13.3,10.1-18.5C818,533,828.2,513,838,492.8
		c0.7-1.4,1.7-2.7,2.6-4c0,0,0,0-0.1,0.1c0,0,0.1-0.1,0.1-0.1c0.4,5.1,2.9,7.2,8,6.7c4.8-0.4,8.4-4.1,7.7-8.6
		c-0.6-4.6-2.5-8.7-6.4-11.3c-2.5,3.5-4.8,6.8-7.2,10.1c-0.8,1.1-1.6,2.2-2.3,3.3v0c0,0,0,0,0.1-0.1c0,0-0.1,0.1-0.1,0.1
		c0,0,0,0,0,0h0c0,0,0,0,0,0c0,0,0,0,0,0l0,0c0,0,0,0,0,0c1.3-2.8,2.5-5.6,3.8-8.4c2.5-5.6,5-11.3,7.5-16.9c1.3-2.8,2.6-5.6,3.9-8.4
		c1.3-2.7,2.9-5.3,4.5-7.9c0.5-0.8,1-1.6,1.5-2.5c0-0.1,0-0.2-0.1-0.3c0,0,0,0,0,0c0,0,0,0,0,0c0,0,0,0,0,0c0.1,0,0.1,0,0.2,0
		c0.4-0.7,0.8-1.5,1.3-2.2c1.4-2.3,2.7-4.7,4.2-7.3c3.9,4.2,7.4,7.9,11.1,11.8c-1.4,0.5-2.9,0.6-4.3,0.5c-0.6-0.1-1.2-0.2-1.7-0.3
		c-2.7-0.6-5.4-1.8-8.2-2.3c-0.8-0.1-1.6-0.2-2.4-0.2c0,0-0.1,0.1-0.1,0.1l0,0c0,0-0.1,0.1-0.1,0.1c1.5,8.9,6,15.2,13.4,18.3
		c1.2,0.5,2.5,0.9,3.8,1.3c1.7,0.4,3.6,0.8,5.5,0.9c0.9,0.1,1.8,0.1,2.7,0.1c4.7,0.1,7.2,1.3,7.5,6.1c0.9,13.6,2.5,27.2,2.7,40.7
		c0.2,21.7-7.8,41.3-17.7,60.1C865.3,599.3,846.7,622.7,824.8,643.4z"/>
	<path fill="#C49A6C" d="M548.7,249.9c-4-2.2-8.1-4.1-12.9-6.5c0.2-1.3,0.5-3.2,0.9-5.2c-8.7,0.7-17.4,13.3-18.5,26.6
		c2.5,0.4,5.2,0.4,7.5,1.3c2.3,1,4.1,3.4,6.4,4.5c5.1,2.4,12.1-0.4,14-5c1.2-2.8,2.5-5.7,4.1-8.2
		C552.3,254.2,551.9,251.7,548.7,249.9z M522.7,261.9c-0.2-0.7-0.5-1.4-0.7-2.1c2.3-4.2,4.6-8.4,6.9-12.7c0.6,0.4,1.2,0.8,1.8,1.1
		c-1.4,2.6-2.7,5.1-4.1,7.7c2.1,1.4,3.9,2.7,5.7,4C528.1,264.2,526.3,254.4,522.7,261.9z"/>
	<path fill="#C49A6C" d="M369.8,274c-3.5-0.1-6.7,3-6.8,6.5c-0.2,3.3,3.4,7,7,7.1c3.4,0.1,6.6-3.1,6.7-6.6
		C376.8,277.2,373.8,274.1,369.8,274z"/>
	<path fill="#C49A6C" d="M338.2,350.4c-3.6-0.1-7.1,3.2-7.3,6.8c-0.2,3.5,2.6,6.5,6.5,6.8c3.8,0.2,6.9-2.3,7.2-6
		C344.8,354.2,341.8,350.6,338.2,350.4z"/>
	<path fill="#C49A6C" d="M792.7,210.2c-0.2,1.4-0.3,2.9-0.5,4.3c-0.2,1.4-0.3,2.8-0.5,4.2c3.1,1.1,6.2,2.1,9.4,3.2
		C801.8,215,798.4,210.3,792.7,210.2z"/>
	<path fill="#C49A6C" d="M457.8,181.3c11.8,9,10.2,9.8,21.8-1.5c0.9-0.9,1.8-1.8,2.7-2.7c6.1-6.5,10.8-13.9,10.8-23.6
		c-0.1-6.1-3-10.7-7.4-13.1c-0.2-0.1-0.4-0.2-0.6-0.3c-0.1,0-0.1-0.1-0.2-0.1c-3-1.3-6.5-1.7-10.2-0.8c-1,0.2-2.1,0.6-3.1,1
		c-2,0.8-4.7,0.8-6.7,0.1c-12.7-4.8-23.8,3.4-22.3,16.8C443.6,167.6,449.8,175.2,457.8,181.3z M453.2,145.9
		c4.2-2.5,9.7-1.6,13.8,2.8c-5-1.6-9.6-2.8-13,1.9c-3.6,5-2.6,10.4,0.7,14.9c3.2,4.4,7.1,8.2,11.1,11.9c1,0.9,4.1,1.1,5.1,0.3
		c5.9-4.4,11-9.7,13.6-16.8c1.4-4,2.5-8.3-1.4-11.5c-3.9-3.2-8.1-1.9-11.9,0.7c-0.5,0.3-1.1,0.5-1.8,0.9c0.6-5.9,8.4-8.7,13.7-4.9
		c4.5,3.2,5.6,7.9,4.4,12.9c-2.4,9.6-8.4,16.8-16.6,22.2c-0.9,0.6-3,0.5-4-0.1c-8-4.9-14.3-11.4-17.7-20.3
		C447,154.7,448.9,148.5,453.2,145.9z"/>
	<path fill="#C49A6C" d="M364.8,198.7c5.3-0.1,8.9-3.8,8.9-9.2c0-4.9-4.1-9.8-8.1-9.7c-3.7,0.2-9.8,7.2-9.9,11.3
		C355.7,195.7,359.4,198.8,364.8,198.7z"/>
</g>
</svg>
