<?xml version="1.0" encoding="utf-8"?>
<!-- Generator: Adobe Illustrator 27.3.1, SVG Export Plug-In . SVG Version: 6.00 Build 0)  -->
<svg version="1.1" id="Layer_1" xmlns="http://www.w3.org/2000/svg" xmlns:xlink="http://www.w3.org/1999/xlink" x="0px" y="0px"
	 viewBox="0 0 1200 800" enable-background="new 0 0 1200 800" xml:space="preserve">
<g>
	<path fill="#C49A6C" d="M928,716.4c-7.1-12.8-18.2-21.5-31.1-28c-3.5-1.8-4.8-3.3-1.7-7c23.9-28.7,21-64.5-7.5-88.6
		c-8.6-7.3-18.1-13.6-27.3-20.2c-6-4.3-6.1-4.4-0.8-9.4c29-27.5,54.7-57.8,75.3-92.3c35.5-59.4,51.2-123.2,44.1-192.2
		c-5.2-51.2-23.8-97.2-57.1-136.6c-46.5-55.1-105.4-84.6-178.3-82.9c-43.2,1-81.8,15.4-115.3,42.9c-7.6,6.2-14.6,13-22.1,19.7
		c-0.5-0.2-0.8-0.3-1.1-0.6c-1-0.9-2-1.8-2.9-2.8c-50.9-51-113-70.3-183.2-60c-81.6,12-139.7,58.2-175,132
		c-28.4,59.2-30.2,121.6-15.4,184.6c17.7,75.2,58.9,136.7,114.6,189.1c6.2,5.9,6.6,7.6-0.1,12.9c-7.3,5.8-15.3,10.7-22.6,16.4
		c-28.8,22.4-33.4,59.2-11.1,88.1c4.4,5.8,4.5,5.8-2,9.1c-19.2,9.8-31.7,25-36.8,46.1c-1.7,7-1.5,7.4,5.8,7.3
		c79.8-0.2,159.6-0.5,239.4-0.6c126.1-0.2,252.3-0.3,378.4-0.5c12.7,0,25.3,0,38-0.1c5.4,0,6.1-0.7,4.3-5.9
		C934,730.1,931.6,722.9,928,716.4z M339.5,680.3c-1.7,0.4-4.4-1.2-5.8-2.6c-7.1-7.2-11.5-16-13-25.9c-2.6-16.5,0.9-31.4,13.1-43.5
		c1.2-1.2,2.7-2.2,4.1-3.3c0.4,0.3,0.8,0.5,1.2,0.8c-0.8,5.4-1.5,10.8-2.3,16.1c-2.4,15.7,0.5,30.4,8.7,44.1
		C348.8,671.7,346.1,678.8,339.5,680.3z M898.6,476.4c-7.8,9.5-15.7,18.9-23.6,28.3c-0.3,0.3-0.8,0.5-1.7,0.9
		c4.1-16.2,8.2-32,12.2-47.9c7.5,0.8,13.4,6.4,14.2,14.1C899.8,473.3,899.5,475.3,898.6,476.4z M916.8,446.8
		c-2.5,4.8-5.3,9.4-7.9,14.1c-0.9-0.1-1.8-0.3-2.6-0.4c-0.3-5.8-0.9-11.7-0.6-17.5c0.2-3.3,4.7-3.9,10.2-1.9
		C919.6,442.6,917.8,444.9,916.8,446.8z M921.3,437.1c-0.6,1-3.4,1-5.1,0.9c-12.7-0.8-14.2-2.4-10.3-14.6
		c2.6-8.1,6.8-15.7,10.4-23.5c0.8,0.1,1.6,0.1,2.3,0.2c1.7,2.7,3.3,5.4,5.3,8.6c-5,2-9.7,3.8-8.1,9.9c1.5,6.1,6.8,3.9,11.9,5.2
		C925.5,428.5,923.7,433,921.3,437.1z M932.6,414.2c-0.5,0-1.1,0.1-1.6,0.1c-2.5-4.5-5.1-9.1-7.6-13.6c5.7-4.1,11.4-8.2,18.1-13.1
		C938.3,397.1,935.4,405.7,932.6,414.2z M914,178.9c2.5,4.7,5.4,9.2,8.2,13.7c1.6,2.6,1.6,4.2-1.6,5.8c-2.9,1.4-5,4.2-7.8,6
		c-1.7,1.1-4.5,2.4-5.9,1.7c-6.8-3.5-13.6-5.1-21.1-2.7c-0.9,0.3-2.2-0.3-4.3-0.6c1.3-2,1.9-3.4,2.9-4.4
		c7.4-6.9,14.9-13.8,22.4-20.6C909.6,175.4,912,175,914,178.9z M901.2,164.4c1.8,2.1,5.3,4.7,4.9,6.2c-0.7,2.7-3.8,4.9-5.9,7.3
		c-1-2-2-4.1-3.2-6.8C898.5,168.7,899.9,166.5,901.2,164.4z M866.4,150c2.1-3.2,7.5-2.8,8.2-7.6c0-0.3,2.4-0.4,4-0.6
		c-0.1,1.5-0.2,2.6-0.3,3.6c0.5,0.1,0.9,0.4,1.1,0.3c5.1-1.8,7.5,0.6,8.4,5.3c1.4,7,3.2,13.9,4.2,21c1.1,7.9-1.7,14.9-7.2,20.5
		c-5.9,5.9-12.3,11.3-18.5,17c-0.6-0.3-1.2-0.6-1.7-0.9c0.3-2.3,0.4-4.6,0.8-6.9c1.2-8.4,2.7-16.7,3.5-25.2c0.3-2.9,1-4.4,3.5-5.8
		c9.6-5.1,11.5-9.7,9-21c-16.3-1.5-14.2,10.7-14.6,21.1c-0.5-0.1-1-0.1-1.5-0.2c-0.8-1.4-2-2.7-2.4-4.2C861,160.3,863,155,866.4,150
		z M881.2,207.6c2.6-0.7,4.5-0.6,5.1,2.7c0.8,4.3,3.8,6.3,7.9,7.2c4.3,0.9,5.3-2.3,7.2-4.7c0.9-1.1,2.8-2.4,3.9-2.2
		c1,0.2,2.3,2.3,2.4,3.7c1.1,17.3,15,24.9,30.2,16.4c0.4-0.2,0.9-0.4,2.4-0.9c17.2,49.6,15.3,99.3,3.8,149.2c-0.5,0.1-1,0.2-1.5,0.3
		c-0.6-2.3-0.9-4.6-1.7-6.7c-0.3-0.9-0.9-1.7-1.5-2.4c-0.4-0.5-0.7-0.9-1.1-1.4c-0.3,0.2-0.6,0.5-1,0.7c-1.1,0.7-2.2,1.3-2.5,2.2
		c-1.3,5.2-3.7,4.5-7.6,2.4c-8.5-4.5-14.4-1.2-15.2,8.4c-0.3,3.7,0.9,7.5,1,11.3c0.1,2.8,0.1,5.9-1,8.3c-2.4,5.2-5.7,10-9.4,16.3
		c-2.7-14.6-4-27.6,1.4-41.2c-2.5,1-4,1.6-5.6,2.2c-3-8.9,2.8-25.9,10.5-29.9c1.8-0.9,4.5-0.3,6.7,0c7,1.2,13.4-0.4,19.4-4.2
		c-6.7-0.9-13.5,4.1-21.9-0.7c11.2-3.1,23.3-4.3,18.7-19.2c-2-0.9-4.4-2-6.8-3.1c-0.6-0.3-1.2-0.6-1.8-0.7
		c-8.7-0.2-16.3,7.5-15,16.6c1.1,7.7-3,11.7-7.9,15.9c-2.7,2.3-4.9,1.9-6-1.6c-1.5-4.9-3.2-9.8-4.2-14.9c-0.3-1.4,1.5-3.5,2.8-4.8
		c7.9-8.1,14.6-17,16.8-28.4c1.4-7.7-0.5-14.8-6.9-19.7c-5.4-4.1-12.3-4.4-17.4-0.6c-5.5,4.1-9.4,4.3-15.9,2.3
		c-13.8-4.2-24.3,7.7-20.5,21.6c2.2,8.1,7.3,14.3,14,18.9c5.9,4,12.2,7.4,18.7,10.4c3,1.4,4.4,3.1,5.3,6.3
		c7.1,25.5,6.9,51.7,8.1,77.8c0.5,10.6,1.7,21.2,2.5,31.9c0.1,1.6,0,3.2,0,5.6c-4.2-1.7-7.9-2.8-11-4.7c-1.1-0.7-1.3-3.5-1.3-5.3
		c-0.1-20.2-3.3-39.7-10.2-58.7c-5.5-15-13.3-28.7-22.2-41.8c-6.3-9.2-12-18.7-14.8-29.8c-4.3-16.8,0.4-30.8,11.4-43.4
		c3.4-3.9,7-7.5,10.1-10.7c-3.6,0.8-9.1,4.6-15.6,12.2c-4.7,5.4-8.9,11.1-14.4,18.1c-1.7-5.4-3.7-9.6-4.4-13.9
		c-1.6-10.1,1-18.9,8.4-26.4c15.4-15.8,34-16.6,53.7-12c5.2,1.2,10,4.1,15.7,6.5c-1.8,2.5-2.8,3.9-3.8,5.4c-5.4,8-5.3,19.7,0.1,25.2
		c8.7,8.8,20.4,10,30.4,3.2c8.9-6.1,12-16.7,7.8-26.4c-4.4-10-14.6-16.1-24.3-12.4c-7.5,2.8-12.9,1.2-19.4-2
		c-11.8-5.8-24.6-6.7-37.6-4.9c-1.6,0.2-3.2,0.3-6.2,0.5c2.1-4.2,3.5-7.5,5.4-10.5C861.2,217.2,869.8,210.5,881.2,207.6z
		 M907.3,276.6c0.5,0.3,0.9,0.5,1.4,0.8c1.1,0.7,2.3,1.3,3.3,1.1c5.1-0.9,7.5-9.5,3.5-14.1c-1.9-2.2-5.4-3.3-8.4-4.2
		c-1.9-0.6-4.2-0.1-6.3-0.1c0.5-7.6,7.1-13.7,15.5-14.1c7.4-0.4,13.5,2.5,17.1,9.2c3.6,6.8,3.9,13.7-0.8,20.3
		c-5.4,7.4-15.6,11.1-23.8,8.6c-5.2-1.6-8.6-5-9.9-10.3c-0.9-3.8,0.6-6.9,3.9-8.9c3.2-2,6.5-2,9.2,0.6c1.2,1.2,1.9,3.5,1.7,5.2
		c-0.1,1-2.3,1.8-3.5,2.7c-0.6,0.5-1.2,1-1.7,1.4c-0.6,0.5-1.1,1-1.7,1.5C906.8,276.4,907.1,276.5,907.3,276.6z M323.4,140.9
		c5.3,2.7,10.1,5,14.8,7.6c0.6,0.3,1,1.7,0.9,2.5c-1.5,11.9-8.9,20.2-17.1,27.8c-0.4-0.2-0.8-0.5-1.2-0.7
		C321.6,165.9,322.5,153.6,323.4,140.9z M315.5,143.1c0.5,5.4,1,10,1.4,14.5c-0.5,0.2-1.1,0.3-1.6,0.5c-2-3.6-4-7.1-6.3-11.3
		C311.1,145.6,312.8,144.6,315.5,143.1z M313.7,189.7c-1.4,3.5-2.8,7.1-4.3,10.8C304.3,196.2,305.3,193.2,313.7,189.7z M279,182.3
		c1.7,1.8,2.8,3,3.9,4.2c3.8,4.3,8.4,6.8,14.1,7.6c1.4,0.2,3.5,2,3.7,3.3c1.4,12.6-0.8,24.6-7.9,35.3c-1.1,1.7-3.3,2.6-4.9,3.9
		c-0.4-0.6-0.9-1.2-1.3-1.7c6.9-7.7,11.1-16.3,6.1-26.3c-4.3-8.6-12.2-10.6-22.8-8.8C273.1,193.3,275.9,188.1,279,182.3z M296,291.2
		c0.3,2.9,0.5,6,0.8,8.9C293.1,298.4,292.8,295.1,296,291.2z M295.9,312.9c-0.6,0.2-1.2,0.5-1.7,0.7c-7-5.3-11.1-13.7-9.4-17.4
		c2.1,2.8,4.8,5.9,7.1,9.2C293.4,307.8,294.6,310.4,295.9,312.9z M248.1,295.5c0.6-21,3.7-41.7,9.4-61.9c0.4-1.4,1-2.7,1.5-4.1
		c4.7,2.8,9.2,5.4,13.8,8.1c0,0.1,0,0.7-0.3,1c-11.7,9.3-12.8,21.5-9.4,34.8c1.1,4.1,2.5,8.5,5,11.9c8.2,11,13.9,23.7,23.6,33.6
		c0.9,0.9,1.9,2.1,2.2,3.3c1.8,7.5,1.9,15,0.4,23.4c-2.6-1.6-4.5-2.5-6.1-3.8c-3.3-2.8-6.3-5.9-9.7-8.7c-3.7-3-5.8-6.2-6.1-11.6
		c-0.6-10-7.5-16.2-17.4-17.4C248,303,247.9,303,248.1,295.5z M324.4,501.3c-42.6-49.5-67.4-106.8-75.8-172.9
		c2.2,1.3,3.4,1.8,4.4,2.5c4.8,3.4,9.9,4.1,15.7,2.9c2-0.4,4.8,0.3,6.5,1.5c2.8,2,5,4.8,7.6,7.2c7,6.6,10.2,14.6,10.3,24.4
		c0.1,8.2,2.1,16.4,3.2,24.7c0.2,1.3,0.3,2.5,0.6,4.6c-3.9-2.9-7.1-5.3-10.3-7.7c-0.3,0.3-0.5,0.6-0.8,0.9c2.2,3.2,4.9,6.1,6.5,9.6
		c2.4,5.1,4.4,10.4,6.1,15.8c8.9,27.3,17.7,54.7,26.6,82.1c0.4,1.2,0.7,2.5,1,3.7C325.5,500.9,324.9,501.1,324.4,501.3z M300.4,349
		c0.1-3.2,0.6-6.3,0.9-9.4c0.9-8,0.4-16.2,10.1-20.7c3.4-1.6,4.7-7.9,6.7-12.2c0.8-1.7,0.9-3.8,1-4.2c3-0.3,5.4,0.1,7.1-0.8
		c7.8-4.5,15.4-9.3,22.9-14.2c3.8-2.4,7.4-2.8,11.8-1.2c12.5,4.5,21.3,1.9,29.8-8.4c3.6-4.4,7.9-8.5,8.5-14.6
		c-6.4,0-12.6-1-18.3,0.3c-4.5,1-8.4,4.8-12.5,7.4c-1.3,0.9-2.5,2.1-3.7,3.1c-0.5-0.6-1.1-1.2-1.6-1.7c1.5-1.5,2.8-3.3,4.6-4.5
		c2.6-1.8,5.4-3.3,8.3-4.6c11.7-5.2,22.1-11.7,27.7-24c5.6,1.8,9,4.9,10.6,10.4c4,13.8,6.5,27.7,1.7,41.7c-1.4,4.1-4.4,8.5-7.8,11
		c-20,14.6-39.2,30-55,49.2c-15.2,18.5-28.8,38.1-31.6,62.9c-0.9,8.2-1.1,16.6-1.6,24.9c-0.1,1.8,0,3.5,0,5.3
		c-0.6,0.4-1.2,0.8-1.8,1.3c-0.2-0.8-0.3-1.7-0.6-2.5c-7.6-19.4-13.5-39.3-15.2-60.2c-0.2-3,0.6-6.3,1.9-9.1
		c2.9-6.4,4.4-6.9,10.9-4.8c8,2.5,14.7-0.6,20.9-5.2c2.3-1.8,4.5-3.7,6.8-5.6c-0.1-0.4-0.3-0.8-0.4-1.2c-3.6,0-7.3,0-11.5,0
		c1.1-4.4,2-8,3.3-13.1c-5.9,1.1-10.6,2-15.5,2.9c-0.3-1.6-0.6-3.5-1-5.9c-9.6,7.3-7.4,20.8-15.6,28.2c-0.5-0.1-1.1-0.2-1.6-0.3
		C300.3,362.4,300.2,355.7,300.4,349z M300.3,305.3c1.5-3,2.3-4.8,3.3-6.4c0.9-1.5,2.1-2.9,3.2-4.3
		C308.2,298.5,306.6,301.7,300.3,305.3z M307.3,287.4c6,1.5,8.4,6.3,5.6,10.7C311.1,294.7,309.3,291.3,307.3,287.4z M400.3,201.6
		c9.7,2.1,18.8,13.5,18.2,22.6C408.4,219.7,405.7,210.1,400.3,201.6z M408.2,233.2c-5.8-1.1-7.9-6.4-7.6-19.9
		C404.6,215.1,408.1,224.1,408.2,233.2z M399.5,195.1c2.4-12,29-25,45.6-22.1C430.3,182.7,417.1,193,399.5,195.1z M394.3,188.7
		c-6.2-8.7-2-30.3,7.5-36.9C399.9,164.6,402.1,177.4,394.3,188.7z M391.5,202.5c0.3,1.5,1,3,0.7,4.4c-3.1,15.9-11.7,29.1-21,41.9
		c-0.5-0.1-0.9-0.2-1.4-0.3c0.2-2.9,0.1-5.9,0.7-8.7c2.7-13.1,8.1-25,17-35C388.5,203.7,390.1,203.2,391.5,202.5z M380.9,197.5
		c-3.8,0.5-6.7,1.4-9.7,1.2c-5.5-0.3-10.9-1.5-16.3-1.5c-5.2,0-10.4,1-16.1,1.6C348.6,189,372.3,189.7,380.9,197.5z M355.8,174.3
		c9.6-1.7,25.3,7.5,28.4,16.7C373.7,187.7,364.4,182.4,355.8,174.3z M379.2,650.5c-4.2,9.8-6.6,19.9-5.3,30.6
		c0.7,5.4,2.1,10.7,3.1,16.1c0.2,1-0.1,2.2-0.1,3.8c-15.6-5.8-22.1-17.3-18.5-32.9c1.4-5.9,3.4-12,6.5-17.1
		c5.5-9.1,9.3-18.6,10.1-29.3c0.2-2.3,2.5-4.5,3.8-6.8c1.7,2.4,4.4,4.5,4.9,7.2C385.9,631.9,383.1,641.4,379.2,650.5z M400.9,672.8
		c-1.4,1.6-3,3.4-4.9,4.1c-2,0.8-4.8,1.2-6.5,0.3c-1.4-0.7-2.5-3.7-2.2-5.5c0.7-4.2,2.1-8.3,3.5-12.4c3-8.5,5.9-16.9,5.4-26.2
		c-0.4-8.1-3.1-15.3-8.1-21.6c-4.9-6.1-10.2-5.9-15.5-0.1c-6,6.7-6.8,14.9-7.7,23.2c-0.8,7-2.7,13.6-8,20.1
		c-4.8-10.9-4.5-20.9-2.3-30.9c1.1-4.9,2.7-9.6,3.8-14.5c1.5-6.4,1.1-12.4-2.7-18.1c-4.3-6.4-4-9.6,0.2-14c0.9,0.6,1.8,1.2,2.7,1.9
		c11.3,9.5,22.6,19.1,34,28.6c9.5,7.9,17.5,16.7,18.7,29.6C412.5,650.5,409.5,662.6,400.9,672.8z M470.2,661.9
		c-0.2,3.8,0.2,7.7-0.1,11.5c-0.1,1.2-1.5,3.4-2.3,3.4c-15.3,0.2-30.5,0.2-47.5,0.2c10-12.3,15.2-24.5,13.5-39.6
		c1.5,0.7,2.5,1.1,3.4,1.6c9.6,5.4,19,11,28.7,16.1C469.1,656.6,470.4,658.4,470.2,661.9z M517,410.8c-7.7,5.3-15.6,10.4-23.4,15.6
		c-0.5-0.5-1.1-1-1.6-1.5c1.8-3.8,3.8-7.5,5.3-11.3c3.2-8.2,7-16.2,9-24.7c3.1-13.5,0.6-26.1-11.2-37.1c7.3-6.9,14-13.3,21.9-20.7
		c-0.3,2.5-0.1,3.7-0.6,4.5c-5.8,8.4-4.4,17.2-2.3,26.4c2.8,12.4,5.2,25,7.6,37.5C522.5,404,521,408.1,517,410.8z M620.7,654.2
		c-19.3-76.4-38.6-152.8-58.3-230.6c7.9,2.1,14.7,3.7,21.5,5.6c6.9,2,13.6,3.3,20.2-1.1c0.4,0.3,0.9,0.6,1.3,0.9
		c-1,7.8-1.9,15.7-2.9,23.5c-0.8,5.8-0.5,6.6,5.4,6.4c4.6-0.1,5.8,1.6,6,6c1.3,24.9,7.6,48.9,12.7,73.1c0.9,4.2,3.7,8,4.8,12.3
		c0.6,2.5,0.4,5.6,1.8,7.4c3.4,4.2,4.5,8.6,4.8,13.8c1.1,19.6,2.8,39.2,3.7,58.8C642.5,644.6,634.4,653,620.7,654.2z M676,648
		c-0.5,0.1-1,0-2.4,0c0.3-6.7,0.7-13.3,0.8-19.9c0.3-18.8,1-37.6,0.4-56.4c-0.3-8.1-3.5-16.2-5.2-24.3c-1.4-7-2.9-14-3.4-21
		c-0.8-12.6-1.4-25.3-1-37.9c0.2-5.8,3.2-11.4,4.5-17.2c1.9-8.9,8.8-12.9,15.6-17.1c0.9-0.6,1.8-1.4,2.5-2.3
		c6.6-9.1,9.1-19.7,11.6-30.4c2.3-9.7,5.3-19.4,6.2-29.2c1.1-12,0.2-24.3,0.5-36.4c0.1-3.2,2-6.5,1.8-9.6
		c-0.8-12.1-2.1-24.2-3.3-36.2c-0.2-2.3-0.8-4.6-1.1-6.9c-1.6-12.8-7.8-22.4-19.6-28.3c-4.5-2.3-8.2-5.7-9.7-10.9
		c-0.3-0.9-0.8-2.1-1.5-2.4c-5.6-1.9-3.6-5.5-1.9-8.8c1.1-2.2,2.5-4.3,4.2-6.2c7-8.2,7.2-17.5,4.8-27.3c-0.5-2.1-0.1-4.5,0.5-6.9
		c-1.4-2.2-3.2-5.5-6.9-1.4c-9.3-10.6-21.6-12-34.3-12.1c-3.6,0-6.6-0.3-8.4-5.1c-1.9,3.1-4,6.2-5.6,9.5c-1.4,2.9-2.4,6-3.2,9.2
		c-0.9,3.5-2.3,7.2-1.9,10.6c0.6,5.2-1.3,8.8-4.8,11.9c-2.9,2.6-3.5,3.9-0.8,7.9c2.3,3.4,2,9.4,1.3,14c-0.8,5.2,1.4,6.7,5.6,7.1
		c2.8,0.3,5.7,0.3,8.5-0.1c2.5-0.3,4.9-1.6,6.2,2c1.3,3.6,3.5,7.1-0.3,10.5c-2,1.8-4,3.5-6.2,5c-2.7,1.9-3.3,4.2-1.2,6.8
		c2.4,3,1.8,5.7-0.2,8.6c-12.2,17.9-18.2,38.5-24.9,58.6c-1.9,5.7-0.1,12.7,0.2,19.1c0.4,8.8,0.9,17.6,1.5,26.4
		c0.2,3.3-1.2,5-3.6,7.4c-5.4,5.3-10.8,4.4-16.7,2c-4.9-2-10.2-3.3-14.9-5.6c-2-1-4.3-3.6-4.6-5.7c-1.4-9.3-2.3-18.4,6.6-25.5
		c6.2-4.9,6.3-13.4,1-19.6c-5.1-5.9-10.8-11.4-15.9-17.2c-6.2-7-9-14.9-6.6-24.4c0.9-3.8,2.6-4.5,6-3.8c1.9,0.4,4,0.5,5.9,1
		c4.9,1.1,6.7-1.5,7.2-5.8c0.4-3.5,0.7-7.1,1.3-10.6c0.1-0.9,0.7-2,1.4-2.5c4.6-2.8,2.6-4.8-0.2-7.6c-2-1.9-3.2-4.9-4.2-7.6
		c-2.3-6.4-3.7-13.2-6.6-19.2c-3.6-7.4-10.9-10-18.6-9c-7.7,1-15.4,2.9-22.6,5.6c-9,3.2-13.3,10.4-12.6,19.9c0.4,5-1.4,8.2-5.6,10.6
		c-8.8,4.8-10.9,12.5-8.9,21.7c0.7,3.4,0.3,6-2.4,8.5c-5.4,5.2-4.5,9.9,3.9,13.4c-1.7,0.8-2.7,1.4-3.7,1.9c-3,1.2-2.7,3.3-1.9,5.7
		c0.7,1.9,2.6,4.8,1.9,5.6c-2,2.4-4.9,4-8.2,6.5c-1.4-7.8-3.3-14.4-10-17.4c-2.8-1.3-6.6-1.7-9.6-1.1c-9,1.8-12,10.4-9.8,27.4
		c-2.1-1.1-3.8-2-5.4-2.9c-18.5-10.2-40.6,1.7-42.5,22.8c-1.3,14,4.1,25.7,13.1,35.5c13.7,15,28.3,29.2,42.5,43.7
		c0.4,0.5,1.1,0.7,2.2,1.4c4-4.8,8.1-9.5,12-14.4c1.8-2.3,3.8-3.2,6.4-1.6c7,4.5,13.6,2.6,20.3-0.8c2.2-1.1,4.4-2.2,7.6-3.7
		c-18.2,59.7-35.6,118.5-47.7,179.3c-1.8-0.7-3.2-1.1-4.4-1.8c-33-17.9-63.4-39.3-89.1-66.9c-20-21.5-31.1-47.3-36.6-75.8
		c-4.1-21.3-6-42.6-0.8-63.9c1.5-6.3,4.4-12.6,7.7-18.2c1.8-3,6-4.6,9.2-6.9c8.2,12.7,16.6,16.8,27.4,13.8c-2.3-5-4.6-9.9-7.5-16.1
		c3,0.5,4.3,0.9,5.7,0.9c3.9,0.3,7.1-3.6,5.6-7.1c-1.1-2.5,0-3.5,1.3-5.5c4.1-6.3,8.4-12.7,10.9-19.7c1.2-3.2-1.5-7.8-2.6-12.9
		c-3,4-9.5,5.2-4,11c0.1,0.1,0.2,0.2,0.2,0.4c0.2,1.1-0.8,3.4-1.1,5c2.8,2.3,1.4,7.5-2.8,9.8c-2.7,1.5-6.2,1.9-8.7,3.7
		c-2.6,1.9-4.6,4.8-6.6,7.4c-0.5,0.6-0.9,1.4-1.2,2.1s-0.6,1.6-1,2.3h0c-0.4-0.2-0.8-0.4-1.2-0.6c-1.2-0.6-2.5-1.3-4-2.1
		c-5.1,1.9-10.8,4.1-16.4,6.2c-0.4-0.4-0.9-0.9-1.3-1.3c3.3-5.2,6.1-10.8,10-15.6c16.2-19.8,33.7-38.3,55.2-52.5
		c7.2-4.8,11-11.8,14.9-19c6.4-11.9,16-20.3,28-26.1c3.1-1.5,5.4-1.8,7.7,2c4.6,7.5,11.7,10,20.3,8.3c3.8-0.7,7.6-1.7,11.4-2.6
		c0-0.4-0.1-0.8-0.1-1.2c-2.7-0.6-5.4-1.1-7.8-1.6c3-6.1,6-12.4,9.3-19.1c-7.7-2.7-14.1-4.9-20.9-7.3c7-2.3,11.5,2.9,17,5.1
		c-1.4-7-11.4-11.3-19.4-8.5c-6.7,2.4-10.2,7.5-12.4,14c-0.7,1.9-2.2,4.2-3.9,5c-9.6,4.6-18.2,10.4-24.8,18.9
		c-0.3,0.3-0.8,0.4-1.7,0.8c-0.5-5.4-0.9-10.7-1.4-15.9c-0.2-2.5-0.2-5.2-1.2-7.3c-4.6-8.9-1.7-17.2,1.3-25.2
		c5.3,0.8,10.5,1.7,16.8,2.7c-1-3.1-1.5-4.8-2.2-7c1.8,0.7,3.3,1.3,4.7,1.9c5.1,2.2,6.9,1.3,7.5-4.4c0.8-7.9-2.1-14.7-6.9-20.8
		c-1-1.3-2.1-2.5-3.6-4.3c1.8-1.3,3.4-2.4,5-3.4c6.7-4.3,12.5-9.4,16.3-16.5c2.8-5.3,2.4-7-2.9-10.1c-7.6-4.5-15.7-6.2-24.5-4.6
		c-1.3,0.2-2.6,0.3-3.6,0.4c-1-6.5-1.3-13.1-3.1-19.1c-3.2-10.9-4.9-11.8-14.9-6.6c-7.7,4-14.6,9.4-21.9,14.2c0.2,0.5,0.3,1,0.5,1.4
		c-1.9-1.5-3.8-3.1-5.8-4.5c-6.2-4.5-12.3-2.9-14.5,4.4c-1,3.1-2.6,3.4-5.1,3.3c-5-0.3-9.9-0.6-15.9-1c0.7,3.7,1.3,6.8,1.9,9.9
		c-6.7,2.4-6.9,3.2-2.9,9.8c1.5,2.4,3,4.8,4.8,7.6c-1.5,0.6-2.8,1.2-4.1,1.7c-9.6,3.5-17.1,9.3-22.6,18.1c-2.1,3.4-1.5,5.3,1.6,7.3
		c8.6,5.7,18.2,8,28.3,8.7c1.5,0.1,2.9,0.2,4.9,0.3c-0.4,2.8-0.9,5.3-1.2,7.9c-1.2,10.5,0.1,20.6,4.2,30.4c1.3,3,1,5.3-1.2,7.7
		c-4.6,5.1-8.9,10.3-13.5,15.4c-1.4,1.5-3.3,2.5-4.9,3.7c-0.4-0.3-0.7-0.5-1.1-0.8c0.5-1.4,1.3-2.8,1.6-4.2
		c1.3-6.5,3.2-12.9,3.4-19.4c0.2-8.6-4.5-14.9-12.7-17.9c-8.2-3-15.7-1.5-22.3,4.4c-0.6,0.5-1.3,1-1.8,1.4c-3.5-3.1-6.9-6-10-9.2
		c-0.7-0.7-0.8-2.8-0.4-3.9c8.5-21.7,16.8-43.5,33.3-60.9c5.7-6,9.2-13.4,10.7-21.6c0.4-2,2.3-4.5,4.1-5.2
		c16.2-5.9,22.1-22.1,13-36.8c-0.8-1.2-1.5-2.5-2.2-3.8c49-25.6,132.6-34.8,188.2,7.6c-1.4,1.6-2.7,3.1-4.1,4.7
		c-6.8-8.7-6.8-8.7-10.8-2.9c2.2,1.3,4.6,2.8,6.5,4c-1.5,4.6-11.8,0.3-6.6,9c2.5-0.8,4.9-1.6,7.4-2.4c-0.7,7.6-0.7,7.6,4.6,6.1
		c0-2,0-4.1,0-6.3c3.1-1,7.4,3.7,8.8-1.8c0.2-0.8-3.5-2.6-5.6-4c1.6-4.1,3.9-5.1,8.2-2.4c18.9,11.5,34.1,27.1,47.1,44.9
		c1.7,2.3,3.4,4.5,5.4,7.1c4.7-6.4,8.9-12.5,13.5-18.4C649,116.5,686.5,96.7,732,91c29.7-3.7,58.4,0.6,86.6,9.7
		c2.9,0.9,3.4,2.1,2.5,5c-5.3,18,6.8,29.5,21.1,28.4c2.9-0.2,5.1,0.4,5.9,3.8c3.7,15.7,8,31.3,11.3,47.1c4,19.2-1.9,36.3-14.1,51.2
		c-5,6.2-10.9,11.7-16.5,17.4c-1.1,1.1-2.8,1.5-4.2,2.2c-0.5-1.6-1.5-3.3-1.4-4.9c0.5-7.4,1.1-14.9,2-22.3c0.4-3.1,2.1-5,5.5-6.1
		c13-4.3,18.6-14.9,21.7-27.4c-2.5,3.2-4.6,6.8-7.6,9.5c-3.9,3.7-7.4,3.2-9.8-0.3c-9.5,3.9-11.2,6.9-9.9,20.1
		c-2.3-1.7-4.2-2.5-5.2-3.9c-2.6-3.8-4.8-7.9-7.1-12c-3-5.3-2.2-13.7,2.1-18.3c2.8,6.5-1.6,14.1,2.6,19.2c7-3.1,13.5-5.8,19.8-9
		c2.2-1.1,4.3-3.2,5.7-5.3c6.7-9.9,5.1-24.1-3.3-32.7c-3.2-3.2-6.2-4.2-11.3-3.5c3.4,1.7,6.9,3,9.9,5.2c4.5,3.2,3.8,6.1-1.8,8.4
		c-0.6-3.7-0.6-8.4-5.8-8c-3.6,0.3-7.1,2-11.2,3.2c-0.2-2.7-0.3-5.4-0.5-8.1c-11.3,2.4-16.6,16.3-10.3,28.1
		c2.1-8.8,8.2-11.6,17.4-12.5c-6.9,5.2-12.8,9.5-19.3,14.3c-2-3.4-4-6.8-6.5-10.9c-3.3,5.2-2.9,10.1-1.2,14.7
		c1.7,4.4,4.4,8.5,6.7,12.8c-3.9,0.3-4.2,0.5-11.9-12.4c-3.1-5.1-5.6-11.1-6.5-17c-0.9-5.8,0.7-12,1.1-18c-6.2,6.1-6.2,6.1-11.8-1
		c2.5,8.7,5.1,17.3,7.6,26c-0.5,0.4-0.9,0.7-1.4,1.1c-3.3-1.9-6.7-3.8-10-5.6c-8-6.7-17.5-9.2-27.6-10c-6.2-0.5-12.4-0.8-14.7-8.4
		c-0.4-1.4-2-2.4-3.5-3.9c-0.5,1.9-0.8,3.1-1.1,4.3c-10-4.1-15.5-3.1-17.8,3.2c-1.9,5.2,0.8,11.3,5.6,12.9c7,2.3,10,0.5,12.4-7.6
		c7.4,0.9,14.8,1.8,22.1,2.9c1.2,0.2,2.2,1.6,3.3,2.4c-0.8,1.1-1.6,2.2-2.5,3.2c-0.4,0.5-1,0.8-2.5,1.9c5.4,0.6,2.3,3.7,2.7,7.3
		c2.8-1.5,5-2.6,7.3-3.8c0.4,1.2,1,2.6,2.2,5.7c3.3-4.2,5.9-7.5,8.5-10.9c1.6,0.6,3.1,1.1,4.7,1.7c14,9,23.2,21.8,28.7,37.2
		c0.9,2.4,1.4,5,2.4,8.7c-5.6-0.4-10.3-0.7-15-1.1c-2.5-0.2-4.9-0.9-7.4-1.1c-5.1-0.6-8.7-2.1-10.2-8.1c-1.7-6.5-7.5-8.4-14-6.1
		c-1-3.1-1.9-6.3-3.3-9.3c-0.4-0.8-2.4-0.8-4.9-1.5c2.6,6.8,6.5,12.8-2.4,18.2c0.7-2.7,0.9-4.5,1.7-5.9c1.9-3.6,1.1-5.8-2.6-7.5
		c-3.9-1.7-6-0.5-7.1,3.3c-0.1,0.2-0.2,0.4-0.2,0.5c1.5,1.5,2.9,2.6,4,4c0.6,0.7,0.5,2,1.1,2.8c1.8,2.6,3.7,5.2,5.5,7.7
		c2.5-1.9,4.9-3.8,8.1-6.2c1.5,1.1,2.3,2.7-0.3,5.1c-5,4.7-12.4,2.7-14.9-4.3c-0.6-1.6-1-3.4-2.1-4.9c-0.3,6.6,1.3,12.7,5.9,17.5
		c0.8,0.8,4-0.7,7-1.4c4.8,3.1,10.6,3.2,16.8-0.1c2.5-1.4,6-1.6,9-1.4c7.8,0.6,15.5,1.9,23.3,2.6c3.3,0.3,4.7,1.7,5.4,4.7
		c3.1,14.8,6.6,29.6,9.3,44.5c3.2,17.6,7.8,34.7,15.4,51c0.8,1.7,1.2,3.6,2.2,6.5c-2.8-0.7-4.6-0.8-6.1-1.6
		c-13.8-6.9-27.7-13.9-41.4-21.1c-1.2-0.7-1.8-3.3-1.9-5.1c-0.1-1.7,0.9-3.5,1.3-5.3c2.8-13.3-2.1-22.8-14.5-28.2
		c-1.2-0.5-2.5-1.2-3.8-1.3c-3-0.4-8-1.5-8.6-0.5c-1.5,2.9-1.2,6.8-1.4,10.3c-0.1,1.2,0.5,2.5,1.1,5.2c-7.5-5.4-14.9-11.2-20.9-1.1
		c-5,8.6,3.4,11.7,8.3,15.4c-3.7,2.3-7.4,4.3-10.7,6.9c-0.9,0.7-1.4,3.9-0.8,4.5c6.8,6.1,13.4,12.5,23.6,12.6
		c7.5,0.1,13.5-2.9,19.1-7.4c1.3-1,3.8-2.1,5.1-1.5c12.6,5.7,25,11.7,37.5,17.6c1,0.5,1.7,1.3,2.9,2.3c-5.9,1.7-11.3,3.2-16.7,4.7
		c-1,0.3-2.3,0.1-2.8,0.7c-1.3,1.5-2.6,3.2-3.3,5c-0.2,0.5,1.7,2.6,2.3,2.5c1.9-0.4,4.1-1.1,5.5-2.4c1.7-1.6,2.5-5,4.3-5.6
		c3.7-1.1,8-1.7,11.7-1c7,1.2,13.7,3.9,17.8,10.1c7.1,10.8,13.7,22,20.5,33c0.5,0.8,0.6,1.9,0.9,2.8c0.1,0.2-0.3,0.6-0.6,1.2
		c-3.7-4.8-6.4-11.2-11.2-13.6c-4.6-2.3-11.4-0.5-18.6-0.5c2.1,4.7,3.4,7.8,5,11.5c-2.8,1.1-5.6,2.1-8.5,3.3
		c6.5,6.9,20.4,8.7,28.9,4c5.9-3.2,6.6-3.1,8.7,3.4c6.6,20.3,7.2,41.2,5.5,62.3c-4,50.7-31.3,87.6-69.3,118.5
		c-36.9,30-77.1,54.1-122.4,69.4C678.6,647.2,677.3,647.6,676,648z M681.3,373.6c1.1,1.1-0.1,4.4-0.4,6.7
		c-1.4,10.5-2.8,21.1-4.3,31.6c-0.1,0.6-0.6,1.1-0.9,1.6c-1.5-7-6.9-13.1-3.7-20.7c0.3-0.8,0-2-0.5-2.8c-5.5-10.1,0-19,3.4-28
		c0.3-0.7,1.8-0.9,2.7-1.4c0.3,0.9,1.1,1.8,0.9,2.6C677.9,367.1,678.3,370.4,681.3,373.6z M475.7,346c0.1,0.5-1.7,1.7-2.8,2.2
		c-4.9,2.2-9.9,4.4-15.7,6.9c-0.3-4.3-1-8.7-1-13.1c0.1-4.3,2.5-8.1,6.7-8.9c3-0.6,7.7,0.1,9.4,2.1
		C474.7,337.8,474.9,342.2,475.7,346z M462.3,267c4.1,1.5,8.2,3,12.3,4.5C469.1,273.7,465.2,271.7,462.3,267z M478,251.2
		c4.2,1.7,5.2,5.6,2.3,13.3C479.4,259.2,478.7,255.2,478,251.2z M819.9,228.1c-0.7,8.7-1.5,17.4-2.2,26c-0.7,0.1-1.4,0.2-2.2,0.3
		c-3.7-13.8-7.5-27.5-11.4-42c5.5,4.9,10.4,9.3,15.3,13.8C819.8,226.6,819.9,227.5,819.9,228.1z M820.6,185.4
		c3.1,7.1,3.1,7.1,12.6,2.3c-2.9,4.6-5.8,7.9-10.7,7.6c-1.7-0.1-3.9-2.3-4.7-4C816.7,189,816.8,186.2,820.6,185.4z M835.2,183.5
		c0.1-2.1-0.1-4.3,0.4-6.3c0.3-1,1.8-1.6,2.8-2.4c0.6,0.9,2,2.1,1.7,2.7c-0.9,2.4-2.4,4.6-3.6,6.9
		C836.1,184.1,835.7,183.8,835.2,183.5z M764.3,176.5c-2.6,4.6-6.1,3.5-10,4.2c0.5-3.1,0.8-4.8,1.2-7.4
		C758.6,174.4,761.2,175.3,764.3,176.5z M698.4,674.6c24.8-12.4,50-25,75.5-37.7c-0.9,13.7,4.3,26,13.8,37.7
		C756.8,674.6,727.1,674.6,698.4,674.6z M830.7,699.2c0.6-3,0.7-5.5,1.5-7.7c5.2-13.5,3-26.2-2.7-39.2c-3.5-7.8-5.6-16.3-7.5-24.6
		c-0.8-3.5,0.2-7.6,1.1-11.3c0.4-1.4,2.7-3.2,4.2-3.2c1.3,0,3.2,2,3.7,3.6c1.2,3.8,1.3,7.9,2.6,11.6c1.8,5.1,3.7,10.4,6.5,15
		c6.2,9.9,9.2,20.7,10.5,32C851.8,685.6,842.3,697.2,830.7,699.2z M851.6,652.7c-4.8-4.6-7.3-9.3-8.6-14.7c-1.5-6.3-2.8-12.6-4.2-19
		c-1.3-6.2-5-10.5-10.9-12.5c-1.7-0.6-4.6,0.3-6,1.5c-10.9,9.4-12.4,21.6-9.3,34.6c1.3,5.8,3.8,11.3,5.8,17c0.6,1.7,1.4,3.4,2,5.1
		c1.5,4.1,2.2,8.3-1.8,11.3c-3,2.3-7.6,0.7-11.4-3.5c-15-16.6-15.2-44.8,0.1-60.7c6.3-6.5,14.1-11.6,21-17.6
		c6.9-6,13.4-12.4,20.3-18.8c4.7,4.5,5.5,8.3,2.1,13.2c-4.7,6.8-5.1,13.7-2.8,21.4c2.1,7,4.2,14,5.6,21.2
		C854.8,638,853.7,644.9,851.6,652.7z M879,666.5c-2.3,3.8-5.2,7.3-7.9,10.9c-1.9,2.5-4.1,2.3-6.5,0.5c-5.2-3.9-6.2-8.4-2.9-14.1
		c8.3-14,9.7-29.1,6.9-44.9c-0.9-5.2-1.8-10.3-2.7-15.5c0.4-0.2,0.8-0.4,1.1-0.6c1.6,1.3,3.4,2.3,4.9,3.8
		C888.5,623,891.3,646.1,879,666.5z"/>
	<path fill="#C49A6C" d="M500.9,102.7c-4.5,1.1-8.8,3.5-13.9,5.7c-0.4-0.5-1.3-1.4-2.2-2.4c-5.4-5.8-12-8.6-19.7-6.2
		c-7.9,2.4-12,8.4-13.4,16.4c-1.2,7.1,0.5,13.6,3.7,19.7c5.9,11.3,14.9,19.9,25,27.4c1.1,0.8,3.7,0.9,4.7,0.1
		c7.7-5.7,15.8-11.1,22.7-17.7c7-6.7,12-15.1,12.9-25.2C521.7,108.8,512.4,100,500.9,102.7z"/>
	<path fill="#C49A6C" d="M785,144.6c1.3,1,4,0.7,5.9,0.3c2.4-0.5,4.7-1.7,7-2.7c0.3,0.4,0.6,0.8,0.9,1.2c-1.3,1.7-3,3.3-3.8,5.3
		c-0.8,1.9-1.4,4.4-0.8,6.1c0.4,1.1,3.8,2.3,4.9,1.7c1.5-0.7,2.4-3.2,2.8-5c0.5-2.2,0.3-4.6,0.5-8c3.2,2.8,5.2,5,7.7,6.5
		c1.1,0.7,3.6,0.7,4.4-0.1c1.3-1.2,2.1-3.4,2.2-5.2c0-0.9-2-2.2-3.3-2.7c-2.4-0.8-5-1.1-7.5-1.6c2-2.1,4.4-2.9,6.3-4.3
		c1.7-1.3,2.9-3.2,3.9-5.1c0.2-0.4-1.9-2.8-2.7-2.7c-2,0.3-4.2,1.2-5.8,2.5c-1.8,1.4-3,3.4-4.5,5.2c-0.5-0.2-0.9-0.4-1.4-0.7
		c0.2-2.4,0.7-4.8,0.3-7.1c-0.3-1.8-1.2-4.3-2.6-5.1c-1.3-0.7-4.6-0.3-5.3,0.8c-0.9,1.5-0.7,4.1-0.1,6c0.6,2.3,2.2,4.3,3.9,7.5
		c-3.8-0.2-6.1-0.6-8.4-0.4c-1.9,0.2-4.5,0.8-5.5,2.2C783.2,140.4,783.8,143.8,785,144.6z"/>
	<path fill="#C49A6C" d="M748.6,356.7c-3.3,7.2-1.7,14.2,4.2,17.4c1.6,0.8,4.4,1,5.8,0.1c4.9-3,5.9-10.1,2.5-15.5
		C755.9,365.2,753.3,356.2,748.6,356.7z"/>
</g>
</svg>
