<?xml version="1.0" encoding="utf-8"?>
<!-- Generator: Adobe Illustrator 27.3.1, SVG Export Plug-In . SVG Version: 6.00 Build 0)  -->
<svg version="1.1" id="Layer_1" xmlns="http://www.w3.org/2000/svg" xmlns:xlink="http://www.w3.org/1999/xlink" x="0px" y="0px"
	 viewBox="0 0 1200 800" enable-background="new 0 0 1200 800" xml:space="preserve">
<path fill="#ED1C24" d="M933,89.9c-55.4-55.3-133.5-69.3-206.5-38.1c-49.9,21.3-88.3,56.5-118.6,101c-1.6,2.3-3.4,4.5-5.7,7.6
	c-3.7-5.2-6.9-9.6-9.9-14c-26-37.3-58.8-67-99.5-87.6c-36.6-18.5-75.5-26.6-116.2-21.4c-60.7,7.9-106.4,40.2-139.2,91
	c-34.8,54-42.1,113.3-30.1,175.3c9.3,47.7,30,90.9,55.7,131.8c1,1.6,2.3,2.9,4.6,5.7c0,0,66.2,100.1,101.5,133.9c0,0,0,0.1,0,0.1
	c0.6,0.6,1.3,1.1,1.9,1.6c1.6,1.4,3.1,2.8,4.5,3.9l0.2,0.1c34.1,28.9,71.2,53.6,107.9,79l41.3,30.2c0,0,0,0-0.1,0
	c28.6,22.6,55.9,44.4,76.4,74.4c2-2.5,3.1-4.1,4.4-5.5c12.8-13.9,24.4-29.1,38.6-41.3c21.5-18.5,44.9-35,67.4-52.4
	c161.1-109.1,179.1-173.3,179.1-173.3c2.3-2.6,3.9-4.2,5.3-6c12.8-17.2,26.1-34,38.3-51.6c35.6-51.2,59.4-106.9,63.5-169.9
	C1002,196.8,981.2,138,933,89.9z M963.3,161.7c1.9,4.9,3.5,9,5.1,13.2C963.8,172,958.8,169.1,963.3,161.7z M972.7,196.7
	c-7.7-9.1-16.6-15.4-29.8-14.8C955.5,173.7,970.1,181.1,972.7,196.7z M922.3,130.6c2.5,3.4,4.9,6.6,8,10.8
	C919.6,138.2,918.3,136.4,922.3,130.6z M919.9,149.4c3.7-3,10.8-2.8,14,0.7c2.5,2.7,4.3,6,6.4,9c0.9,1.2,1.8,2.4,2.8,3.6
	c6.5-5.9,7.4-8.5,4-15.7c-2.9-6.2-6.5-12.2-10.7-17.8c0.4,1.8,0.8,3.5,1.2,5.3c-0.4,0.4-0.9,0.7-1.3,1.1c-3.8-3.8-8.2-7.3-11-11.7
	c-1-1.6,1.8-5.6,2.8-8.4c0.8,0,1.6,0.1,2.4,0.1c9.7,11.6,18.6,23.8,22.7,38.7c1.8,6.3-1.5,11-6.5,14.4c-6.1,4.1-12.8,4-18.7,0.2
	c-3.4-2.2-6.1-5.9-8.2-9.5C918.1,156.5,916,152.6,919.9,149.4z M930.3,317.5C930.3,317.5,930.3,317.5,930.3,317.5c0,0,0.1,0,0.1,0.1
	c3.3-0.5,6.5-1.1,9.8-1.6c0.3,0.7,0.6,1.5,0.9,2.2c-1.2,1.5-2.4,3-3.6,4.5c-1.3-1-2.5-2.1-3.9-3.1c-1-0.7-2.1-1.4-3.2-2c0,0,0,0,0,0
	C930.4,317.6,930.4,317.6,930.3,317.5c0,0.1,0,0.1-0.1,0.1c0,0,0,0,0,0c-2.6,4.1-2.4,7.7-1,10.9c0,0.1,0,0.1,0.1,0.2
	c0.2,0.5,0.5,0.9,0.7,1.4c0.2,0.3,0.4,0.6,0.6,0.9c0.4,0.6,0.8,1.1,1.3,1.7c0.2,0.3,0.5,0.5,0.7,0.8c-8.3,5.8-16.2,11.4-23.8,16.7
	c-0.7-12.2,9.9-28.8,21.5-32.5C930.2,317.6,930.3,317.6,930.3,317.5L930.3,317.5L930.3,317.5C930.4,317.6,930.3,317.5,930.3,317.5z
	 M918.2,192.8c0.3,15-2.4,29.2-11.3,41.6c-3,4.1-7.3,7.6-11.6,10.4c-4,2.5-8.5,1.4-13-1.3c5-8.4,10.5-16.4,6.9-26.4
	c-0.8-2.3-2.6-4.3-4.4-7.2c-1.1,1.6-1.5,2-1.8,2.5c-1.4,2.8-2.8,5.6-4.1,8.4c-2.5-2-5-4-7.3-6.1c-1.6-1.5-3-3.3-5.5-6.1
	c-1.8,8.9-2.6,17.5-11.5,19.4c-6,1.3-12.7,1.3-18.8,0.1c-7.2-1.4-12.2-7.2-13-14.3c-0.7-6.3,1.1-12.9,1.9-20.3
	c-3,2.3-6.3,4.8-10.9,8.3c-3.2-11.9-6.5-23.2-9.2-34.7c-0.7-2.8,0.3-6.2,1.2-9.2c3.1-10.3,8.7-13.1,19.1-10.1
	c2.6,0.8,5.3,1.1,7.2,1.4c-3.9,2.9-7.9,5.8-12,8.8c0.3,0.6,0.5,1.1,0.8,1.7c12.5,0.9,24.9,1.8,38.8,2.8c-5.4,3.7-9.7,6.1-13.4,9.3
	c-4.8,4.1-4.2,7.8,1.9,8.9c6.8,1.2,14,0.3,22.2,0.3c-3.3,5.8-6.9,12.2-10.5,18.5c6.6,3.6,14,0.5,25-11.2c2.7,5.4,5.4,10.6,8.1,15.8
	c5.8-4,8.3-10.7,6.3-17.8c-1.3-4.4-3.8-8.5-5.6-12.8c-1.6-3.8-4.4-7.4-1.8-11.6c2.9,6.1,5.5,12.2,8.6,18.1c2.8,5.4,7.3,8.6,13.6,8.5
	C916.7,188.6,918.1,189.7,918.2,192.8z M911.1,250c0.4,11.3-7.8,24.6-17.2,27.4c-2.6,0.8-6.3,0.3-8.6-1.1c-1.3-0.8-1.4-4.5-1.2-6.9
	c0.1-1.3,1.8-3.3,3.1-3.6c9.3-2.5,16.2-8.1,22.3-15.2C909.8,250.2,910.5,250.2,911.1,250z M841.7,288.1c13.3,11.8,9.4,43.9-5.3,55.6
	c-2.6-6.5-5.2-13.1-8.2-20.7C839.7,315.7,842.2,303,841.7,288.1z M856.6,332.1c0.6,12.5,1.4,26.7,2.1,39.9
	c-6.4-5.7-13.9-12.4-20.7-18.4C844.2,346.4,850.9,338.7,856.6,332.1z M832.2,299.3c-2.9,15.1-20.8,26.4-37.9,24.1
	c-1.7-0.2-3.4-0.5-6-0.9c8.1,12.2,17.8,13.6,34.4,5.3c4.3,5.4,5.7,11.4,4.6,18.9c-16.4-2.4-32.5-3.9-44.4-16.8
	c-10.5-11.3-11.6-28.3-2.5-38.5c11.9,7.5,22.7,5.7,32.2-5.1c-0.3,20.2,5.2,26.9-21.2,30.2c1.1,1,1.7,1.9,2.6,2.3
	c12.8,5.3,30.8-3.6,34.5-17c1.4-5.3,0.5-10-2.7-14.4c-4.4-6.1-8.9-11.8-11.7-19.2c-4-10.6-21.4-13.7-32.2-6.8c-1.6,1-3.2,2.1-5,3.3
	c0.3-6,5.7-10.8,12.4-11.5C813.4,250.7,836.7,275.6,832.2,299.3z M730.3,517.2c1.5,2.5,3.3,4.8,5,7.2c4.8,6.9,4.8,6.9,11.8,7.5
	c-5.8,7.1-11.6,14-17.4,21c2-13.2-2.4-22.5-14.1-28.8c2.8,1.2,5.6,2.3,8.4,3.5c2.9,1.3,5.8,2.8,10,4.9c-0.7-2.9-0.7-4.5-1.4-5.7
	c-5.1-10.3-9.9-20.7-18.5-28.9c-1.9-1.9-3.1-6.1-2.5-8.6c0.5-2.1,4.2-4.1,6.8-4.7c5.1-1.1,10.5-1.2,17.2-1.8c-1.7,2.6-2.3,3.6-3,4.4
	C723.1,498.4,722.6,504.8,730.3,517.2z M743.8,500.6c3.2,3.9-3.3,5.8-5.4,2.1c-0.2-0.3-0.3-0.5-0.4-0.8
	C736.7,498.6,741.7,498.1,743.8,500.6z M723.8,587.3c0.9,0.3,1.7,0.6,2.6,0.9c-0.7,3.1-0.8,6.8-2.4,9.3c-1.1,1.7-4.6,1.9-7,2.8
	c-0.3-0.6-0.6-1.1-0.9-1.7C718.6,594.8,721.2,591.1,723.8,587.3z M709,596.7c-6.4-9.1,4.1-30.5,16-33.4
	C715.9,573.1,708.8,582.5,709,596.7z M713.7,539.7c-1.3,0.3-2.6,0.6-4,0.9c-8.7,1.8-15.5,6-18.8,14.8c-1,2.6-2.7,5.2-4.8,7.2
	c-1.2,1.2-3.7,1.4-5.6,1.4c-3.4-0.1-6.8-0.6-10.9-1.1c-0.9-5.6-1.9-12.1-2.8-18.6c-0.2-1.2,0.6-2.4,0.9-3.7c1.1,0.5,2.6,0.6,3.4,1.4
	c5.4,5.7,9.2,6.5,17,3.5c5.4-2.1,10.8-4.5,16.3-6.2C707.3,538.4,710.4,538.7,713.7,539.7z M632.5,524c-0.8,13.3-11.6,22.2-22.5,16.7
	c5.4-3,8.5-8.3,12.5-12.4c0.8-0.8,1.7-1.6,2.6-2.2c0.5-0.3,0.9-0.7,1.4-1c1.5-0.9,3.2-1.6,5.1-2C631.9,523.5,632.2,523.7,632.5,524
	c-0.3-0.3-0.5-0.5-0.8-0.8l0,0c0.4-0.4,0.9-1,1.4-1.5c0.5-0.5,0.8-0.9,0.7-1c-3.2-5,0.9-8,3.2-11.3c11.6-17.2,16.1-35.6,9.7-56
	c-0.8-2.4-1.1-4.9-1.5-7.4c-0.7-4.3-1.1-8.9,3.1-11.7c5-3.2,10.5-2.7,15.6-0.3c1.1,0.5,2.1,3.6,1.6,4.5c-2.8,4.6-0.7,8.1,1.8,11.8
	c4.7,6.9,11.1,10.8,19.2,11.9c1.3,0.2,2.6,0.5,4,0.7c0.1,0,0.2,0.3,0.9,1.6c-4.5,2.3-8.8,6.1-13.5,6.4c-4.5,0.4-9.3-2.8-15.6-4.9
	c6.5,11.2,2.4,20.4-1.1,29.7c-3.9,10.4-7.7,20.8-11.2,31.3c-2.6,7.6-3.3,8.4-11.1,8.4C636.5,531.4,634.5,527.7,632.5,524z
	 M635.9,548.1c-3.4,2.2-7,4.2-12.8-0.5c4.4-1.9,7.6-3.4,10.8-4.5c0.9-0.3,2.8,0.7,3.1,1.5C637.4,545.6,636.7,547.6,635.9,548.1z
	 M654.5,271.8c13-0.2,22.3,10.1,22.3,24.7c0.1,13.2-9.2,22.5-22.4,22.6c-12.8,0-21.8-9.7-22-23.8
	C632.2,281.5,641.3,271.9,654.5,271.8z M634.1,249.2c13.2,4,28.1,2.9,37.2,17.7c-6.8-1.6-12.4-3-18.1-4.4c-1.2-0.3-2.7-0.9-3.8-0.6
	C635.4,266.4,635.3,262.3,634.1,249.2z M726.3,248.4c6.2-3.6,11.7-6.7,18.3-10.5c8.1,3.2,17.9,7.1,27.8,11
	c-8.6,5.8-17.1,11.4-26.1,17.5c-0.6-0.4-2.3-1.5-4.4-3c-4.4,9.6-5.2,19.2-3.7,30.7c-3.1-2.2-5.1-3.7-7.2-5c-2-1.2-4-2.5-6.1-3.3
	c-2.8-1-4.4-5.9-1.7-8.7C731.7,267.7,732.1,257.7,726.3,248.4z M728.6,137.7c0.8,5.7,3.1,11.1,4.6,16.3
	c-5.8-2.4-15.8-14.2-15.9-20.6c-0.1-2.5,1.8-5.2,3.5-7.4c1.7-2.3,4.1-4,6.2-6c0.5,0.1,1,0.3,1.5,0.4
	C728.4,126.3,727.8,132.1,728.6,137.7z M733.1,103.1c-1.8,1.3-5.1,0.7-7.7,0.9c0.4-2.6-0.2-6.4,1.3-7.7c8.9-7.8,19.1-13.1,31.1-14.1
	c0.3,0.4,0.7,0.9,1,1.3c-2.2,1.5-4.5,2.8-6.5,4.5C745.9,93,739.8,98.4,733.1,103.1z M737.1,127.6c1.4-20.8,22.1-39.3,42.4-38.2
	c9.3,0.5,16.6,4.7,20.1,13.6c3.3,8.2,4,16.5-0.8,24.2c-6-3.8-11.2-7-16.4-10.3c-0.4,0.5-0.8,1-1.2,1.5c0.9,5.5,1.8,11.1,3,18.5
	c-17.7-10.4-32.6-10.5-44.9,6.1c-0.5-0.2-1-0.5-1.6-0.7C737.5,137.3,736.7,132.4,737.1,127.6z M798.7,154.2c0,7.4,0,14.6,0,21.8
	c-16.6-3.7-21.8-5-16.3-16.8C788.2,160.7,788.2,160.7,798.7,154.2z M760.6,133.2c8.8-0.5,15.7,4.4,17.4,12.4c0.2,1,0.3,1.9,0.6,4.5
	c-1.7,4.7-3.7,10.7-6.2,16.6c-0.5,1.2-2.8,2.1-4.3,2.2c-10.3,0.5-21.6-7.2-25.2-16.9c-0.4-1.1-0.8-2.3-0.8-3.4
	C742.5,141.9,752.3,133.8,760.6,133.2z M749.6,208.8c1.8-12.6,9.2-19,21.3-19.5c9.2-0.3,17,3,21.3,11.7c5.2,10.4,1.9,19.2-7.6,27.1
	c9.4,2.9,16.2,0.5,21.1-3.8c7.3,6.6,14.3,12.9,21.1,19.4c0.9,0.9,1.5,2.6,1.5,3.9c0.2,5.2,0.1,10.3,0.1,15.6c-0.1,0-0.6,0.3-0.7,0.2
	c-11.8-10.1-25.6-14.7-40.7-17.7c-9.5-1.9-18.7-6.4-27.5-10.8c-7.9-4-12.9-11.2-15.4-19.8c-0.7-2.4-0.5-5.1-0.8-8.5
	C746,207.6,747.5,208.1,749.6,208.8z M762.7,261c-1,6.3-1.8,12-2.8,18.1C752.9,273.8,754,266.7,762.7,261z M758.2,289.5
	c-0.5,6.5-1.2,13.1-1.8,19.6c-13.3-6.1-15.8-29.6-9.9-37.8c3.6,5.3,7.3,10.6,11,16C757.9,288,758.3,288.8,758.2,289.5z M764,296.4
	c6.3,4.2,6.2,5.8-1.5,10.8C763.1,302.9,763.6,299.8,764,296.4z M768.1,284.5c0.5-4.2,2.1-8.2,3.3-12.3c0.6,0.2,1.3,0.4,1.9,0.6
	c0.7,3.6,1.9,7.2,1.9,10.8c0,0.7-0.3,1.3-0.8,2c-0.3,0.4-0.7,0.9-1,1.3c-0.2,0.2-0.4,0.4-0.6,0.7c-0.4,0.4-0.7,0.9-1.1,1.3
	c-0.2-0.3-0.5-0.6-0.8-0.9c-0.3-0.3-0.6-0.6-0.9-0.9C768.9,286.3,768,285.3,768.1,284.5z M748,313.6c-9.9,0.5-18.6,0.9-27.6,1.4
	c0.3,1.6,0.5,3.2,0.7,4.1c-12.4,4.6-24.6,9.2-36.9,13.8c-4.3-8,2.2-22,14.7-30.6C711.8,293.5,735,298.1,748,313.6z M695.7,431.8
	c0.3-0.6,0.6-1.3,0.9-1.9c3.6,0.4,7.1,0.8,10.8,1.2c-2,5.5-3.5,9.9-5.1,14.3C703.7,439.4,700.9,435.1,695.7,431.8z M701.9,497.4
	c0.1,3.9,1.4,7.7,2.4,12.6c-5.4-2.3-10.6-4.5-15.9-6.7c-5.7-2.4-8.2-1-6.7,5c1.1,4.7,4.5,8.9,7.2,14c-2.2,1.1-5.2,2.6-8.8,4.4
	c2.2,2.4,3.9,4.2,6.3,6.9c-3.6,1.8-6.9,3.4-11.7,5.8c2.4-11,3-20.1-12.3-19.3c2.3-3.7,3.9-6.4,5.7-9c6.7-9.7,16.1-15.7,27.1-19.1
	C700.5,490.2,701.8,491.8,701.9,497.4z M692.2,448.6c-1.8,3.2-4.7,2.3-5.1-1.3c-0.3-2.1,0.6-3,1.7-3
	C690.8,444.3,693.3,446.6,692.2,448.6z M677.9,437.7c-0.3,0.4-1.7,0.1-2.5,0.1c0-1.3-0.4-2.9,0.2-3.7c2.6-3.1,5.5-6,8.8-9.4
	c-4.3-1.5-8.6-3-13-4.6c0.1-0.4,0.2-0.9,0.3-1.3c5.7,1.6,11.4,3.3,16.6,4.7C685,428,681.5,432.9,677.9,437.7z M679.5,370.1
	c7.4,4.9,9.5,15.1,4.1,19.1C677.9,382.5,676.4,375.4,679.5,370.1z M682.8,311.6c-1.2,2.2-3,4.1-4.2,6.3c-6.4,11-8.4,11.9-21.5,7.7
	c9.6-3,16.6-8.9,22.4-16.7c0.6-0.8,2.6-0.6,3.9-0.9C683.2,309.2,683.3,310.6,682.8,311.6z M658.9,351c-6.6-0.6-13-1.2-19.7-1.9
	c4.3-4.6,23.2-12.2,27.5-10.6C657.3,341.2,657,341.6,658.9,351z M640.8,321.3c-2.3,3.3-3.7,7.7-6.3,8.5c-3.4,1.1-7.6-7-7.1-13.1
	C631.2,318,634.9,319.2,640.8,321.3z M642.5,363c0.9,1.2,0.1,5.6-1,6.1c-1.9,0.9-5.9,0.9-7-0.4c-3.4-4.1-4.8-9.3-4.2-14.7
	c0.7-0.4,1.3-0.9,2-1.3C635.8,356,639.6,359.2,642.5,363z M628.7,334.6c-3.6,4.1-6.2,3.9-8.6-1.1c-2.6-5.4-2.3-10.8,1.1-16.9
	C623.9,323.1,626.3,328.8,628.7,334.6z M615.8,376.5c0.3-3.3,2.9-4.2,4.8-2.2c2.1,2.3,4.4,5.7,4.3,8.5c-0.2,4.5-3.1,8.2-9.9,8.6
	C615.3,386.1,615.4,381.3,615.8,376.5z M613.4,321.8c1.3,8.2,2.6,16.3,4,24.7C609.1,343.5,607.1,329.9,613.4,321.8z M618.4,303.2
	c-3-2.8-6.3-4.4-7.2-7c-1-2.8-1.1-7.4,0.5-9.3c3.7-4.1,8.7-7,13.2-10.4c0.7,0.6,1.5,1.2,2.2,1.8C626,287.3,623.4,295.7,618.4,303.2z
	 M605.1,278.8c-0.3-6.3-0.5-10.6-0.8-16c4.6,2.6,8,4.5,12.4,7C613,272.6,609.8,275.2,605.1,278.8z M606.8,374.6c0.7,0,1.3,0,2-0.1
	c-0.2,2.3-0.8,4.6-0.4,6.8c0.6,4.2,0.6,9.2,3,12.2c1.3,1.6,7.3,0.3,10.7-1c4.7-1.9,7-6.1,6.4-11.3c-0.3-2.5-0.9-4.9-1.6-8.5
	c3.2,0.1,6.1-0.3,8.6,0.5c4.2,1.4,8.3,3.2,12-0.3c2.6-2.4,0.9-9.6-2.7-13.9c-0.8-1-1.6-2-3.2-4.1c8,0.6,15-1.2,20.9,4.2
	c0.3,0.3,0.7,0.4,1,0.6c2.9,2.2,8.7,1.4,8.4,6.7c-0.4,7.5-0.1,15.7-3.2,22c-2.1,4.3-7.8,9-15.5,6.8c-13.3-3.9-23.2,3.6-32.6,11.5
	c-3.4,2.8-6.4,6.1-10.6,10C607,401.9,601.6,388.6,606.8,374.6z M630.2,411.3c3.9-2.8,9.1-4.3,13.9-5.4c4.1-0.9,9.1,0.3,10,4.9
	c0.7,3.7-0.7,8.2-2.6,11.7c-1.3,2.4-4.8,4.1-7.6,5c-14.6,4.6-25.3,14.1-33.8,26.4c-0.4,0.6-0.6,1.4-1,2.2c-0.6-0.4-1.1-0.8-1.7-1.3
	C610.2,437.7,615.4,421.9,630.2,411.3z M668.7,568.7c10.7,2.2,21.1,7,32.3,1.7c-10.7,12-22.3,21-39.3,13.2
	C664,578.7,666.4,573.5,668.7,568.7z M701.5,420.1c-0.9-0.4-1.9-0.9-2.3-1.7c-2.4-4.6-4.6-9.2-6.9-13.9c0.3-0.4,0.7-0.9,1-1.3
	c6.6,4.7,12.1,3.9,17.2-2.1c1-1.2,5.4-1.4,6.5-0.3c2.2,2.2,4.7,5.7,4.5,8.5C721.2,416,707.9,422.7,701.5,420.1z M720.7,423.7
	c7.7-7,9.8-15.1,6.3-24.9c-0.5-1.4-0.2-3.6,0.7-4.8c3-4,14.1-6,19.8-3.8c5.8,2.2,9.4,8.1,9.2,16.8c-1.5,10.1-8.3,18.1-19.1,22.6
	c-3.9,1.6-8.3,2.4-12.5,2.7c-1.9,0.1-4.5-1.5-5.6-3.1C718.7,428,719.5,424.8,720.7,423.7z M764.7,402.6c3.6,7.5-5.2,24.5-12.7,24
	C756.3,418.6,760.7,410.4,764.7,402.6z M761.8,372.3c-10.2-7.8-20.9-15.9-32.5-24.6c-2.3,4.5-4.5,9.1-6.8,13.8
	c-0.9-0.3-1.6-0.6-2.3-0.9c-5.7-2.6-8.2-1.3-7.9,5c0.3,6.5,1.8,13,3.1,21.1c-7.4-2.5-14.5-4.2-21.1-7.2c-4.5-2-7-9.5-5-14.4
	c0.9-2.2,3.9-4.4,6.3-4.9c2.3-0.5,5.1,1.2,7.8,1.5c1.6,0.2,3.3-0.5,5-0.8c-1-1.1-1.8-2.7-3-3.3c-10.8-4.8-12.7-15.3-4.2-23.6
	c8.5-8.5,17.7-9.7,27.9-4c1.4,0.8,3.5,0,5.3,0c2.3,0.1,4.7,0.3,7,0.5c-0.3,2.1-0.6,4.3-0.9,6.4c-0.3,2.4-1.8,6.3-0.8,7
	c2.2,1.6,5.7,2.7,8.4,2.3c5.6-0.9,9.7-8,8.8-14.1c-0.3-1.9-0.7-3.7-1.4-6.8c8,5,14.6,9.8,21.8,13.6c7.2,3.7,14.9,6.5,22.2,9.6
	c-7.2,2.9-15,4.8-21.4,8.8C771.7,361.3,766.9,367.4,761.8,372.3z M783.1,273.2c2.4-4.6,9.4-7,14.8-5.7c4.9,1.2,7.7,4.4,8.2,9.4
	c0.6,5.7-2.2,9.4-6.9,10.4c-1-4.9-1.2-9.7-3.2-13.5c-0.9-1.8-5.4-1.6-8.2-2.3c-0.6,1.9-0.8,2.3-0.9,2.6c-0.2,2-0.3,4-0.8,6
	c0,0.2-3.5-0.1-3.5-0.3C782.6,277.5,782.2,275,783.1,273.2z M874.6,152.2c3-7.4,5.8-14.3,8.5-21.1
	C886.7,141.9,882.7,152.4,874.6,152.2z M884.5,156.3c-1.5,3.5-2.4,5.6-3.7,8.4c-2-1.7-3.1-2.7-4.8-4.2
	C878.7,159.2,880.8,158.1,884.5,156.3z M904.5,129.1c-2.3,8.1-4.9,16-7.4,24c-0.7-0.2-1.4-0.4-2.1-0.7c-0.6-9-1.2-18-1.8-27.1
	c0-0.8,0.7-2.5,0.9-2.5c3.2,0.2,6.5,0.3,9.6,1.1C904.5,124.3,904.9,127.6,904.5,129.1z M905.4,152.9c2.9,6.3,5.7,12.5,8.5,18.9
	C906.3,170.9,901.8,161,905.4,152.9z M916.2,96.6c0.1,7.2-8.1,15.1-15.8,15.1c-6.3,0-12-4.6-11.9-9.6c0.2-7.2,8.1-14,16.1-14
	C912.1,88.1,916.1,91.1,916.2,96.6z M877.6,84.8c0,0-0.1-0.1-0.1-0.1C877.6,84.7,877.7,84.7,877.6,84.8c1.3-3.5,2.6-7,4.1-11.1
	c0.2-0.6,0.4-1.2,0.7-1.8c3.8,2.1,7.1,3.9,12,6.6C887.9,81,885.5,89.1,877.6,84.8C877.7,84.7,877.7,84.7,877.6,84.8
	C877.7,84.7,877.7,84.7,877.6,84.8C877.7,84.7,877.7,84.7,877.6,84.8C877.7,84.8,877.7,84.8,877.6,84.8
	C877.6,84.8,877.6,84.8,877.6,84.8c1.6,2.7,6.8,4.2,2.8,8.8c-1.1-0.9-2.1-1.6-2.9-2.4C874.3,88.2,874.4,86.5,877.6,84.8z
	 M862.3,67.5c1.6,2.6,3.4,4.3,3.3,5.8c0,1.2-2.8,3.4-3.7,3.1c-1.5-0.5-3.2-2.5-3.5-4.1C858.2,71.3,860.4,69.8,862.3,67.5z
	 M860.7,89.5c9.1,5.3,16.4,19.4,14.9,29.9c-0.8,5.6-3.2,10.3-8.2,12.8c-2.8-3-5.1-5.4-7.3-7.8c-2.3,2.4-4.7,4.9-7.3,7.6
	c-2.5-1.5-6-4.7-10.1-5.9c-4.7-1.4-8.1,2.1-9.4,8c-1.7-0.3-3.4-0.6-5-1c-7.9-1.5-8.5-3.3-4.4-10.1c1.3-2.1,1.3-5.1,2.1-9.1
	c4.2,1.5,9.6,3.5,16.2,5.8c3.7-8.8,7.9-18,11.4-27.4C855.2,88.2,856.8,87.3,860.7,89.5z M834.2,58.3c3.7,1,7.4,1.9,11,2.9
	c0,0.9-0.1,1.7-0.1,2.6c-3.2,0.6-6.4,1.7-9.6,1.6c-0.9,0-1.7-3.6-2.6-5.5C833.4,59.3,833.8,58.8,834.2,58.3z M830.8,87
	c-2.5,1.9-4.8,4.5-7.7,5.6c-5.6,2.3-10.1,4.6-5.6,12.3c-5.8-0.5-5.8-0.5-10.8-14.7c8.7,2.9,16.6,1.6,23.5-4.5
	C830.3,86.1,830.6,86.6,830.8,87z M794.3,59.6c3.8-4.8,14.5-9.7,22.1-5.8c-10.4,8-21.6,15.2-22.2,31.7
	C788.7,76,789.3,66.1,794.3,59.6z M786,52.8c-2,4.3-3.4,7.4-5.2,11.2c-3.3-2.9-6.1-5.4-10.2-9.1C776.5,54.1,780.6,53.6,786,52.8z
	 M742.7,66.4c15.3-4,26.6-0.9,32.7,10.1c-25.2-13-44-2.9-61.3,14.2C714.1,79.4,724,71.3,742.7,66.4z M708.7,144.4
	c0.1-0.5,0.7-0.9,1.7-2.2c7.6,15.8,23.4,22,36.2,32.2c-4.2,5.1-9.4,7.5-15.6,6.2C714.3,177,705.6,160.6,708.7,144.4z M733.7,202.1
	c-14.9,4.8-34.3-15.8-31.7-34C708.5,183.1,726.9,187,733.7,202.1z M702.6,86.3c0.4,0.4,0.8,0.9,1.3,1.3c-1.4,4.9-4,8.3-10.9,6.1
	C696.2,91.2,699.4,88.8,702.6,86.3z M674.5,108.4c10.4,10.9,18.1,9.9,26.3,0.6c2.2,4.4,4.4,8.9,6.8,13.7
	c-7.5,9.9-41.7,14.9-53.8,6.4C660.8,122.1,667.7,115.3,674.5,108.4z M617.6,186.8c2.4,1.1,4.8,2.1,8.4,3.6c-1-2.9-2.2-4.6-2.1-6.3
	c0.1-3.5-0.1-7.5,1.5-10.4c4.3-8,9.6-15.5,14.2-23.4c1.8-3.1,2.6-6.7,3.8-10c10.5,10.2,22.3,6.9,34.1,3.3c2.3-0.7,4.8-1.1,8.4-1.8
	c-3.2,4.8-6.3,8.2-7.9,12.1c-2.8,6.9-4.9,14.2-7,21.4c-0.8,2.6-0.3,5.6-4.4,5.6c-15.7-0.3-27.7,7.7-39.2,17.1c-1.2,1-2.4,2-3.6,2.9
	c-0.4,0.3-1.1,0.4-2.9,1.2c-1.6-5-3.1-9.8-4.7-14.6C616.5,187.3,617.1,187.1,617.6,186.8z M694.7,148.5c-2.2,14.9-4.6,30.8-7,47
	C679.8,188.3,683.9,160.3,694.7,148.5z M615,220.2c11-7.7,22-15.5,33.1-23c8-5.4,16.4-6,24.6-0.4c2.4,1.7,4.6,4,6.2,6.6
	c4.1,6.6,7.5,13.6,11.8,20.2c3.8,5.9,13.6,13,21.2,11.5c0.4-0.1,0.7-0.3,1-0.5c1.6-1.1,2.6-3,2.4-4.9c-0.4-3.2-6.3-5.1-8.7-7.1
	c-2.8-2.3-5.2-5.1-6.9-8.4c-3.8-7.4-3.7-16.2-2.9-24.3c0-0.5,0.6-0.9,1.6-2.6c3.9,13,14.5,18.5,23.9,25.3c5.5,4,9.5,9.3,9.6,16.6
	c0.1,7.9-6.9,12.7-14.4,10.2c-4.4-1.5-8.9-3-13.5-3.7c-10.8-1.8-16.8,3-17.8,13.9c-0.2,2.7,0,5.4,0,9c1.2-1.3,2.1-1.9,2.5-2.8
	c4.5-10.5,21.8-9,27.9-2.2c4.3,4.9,4.7,11.8-0.2,15.6c-1.8,1.4-5.8,2.1-7.7,1c-3.2-1.8,0.2-3.5,1.2-5.4c0.8-1.5,0.9-4.8-0.1-5.6
	c-2.2-1.8-5.1-3.2-7.9-3.4c-1.2-0.1-3.6,3-3.9,4.9c-1.2,7,3.7,14.1,10.5,16.1c5.9,1.7,5.9,1.7,6.6,9.5c-19.6-6-34.1-17.5-45.1-34.9
	c7-5,11.9-12,11.8-22c-4.7-0.9-6.7,2.2-8.9,5.1c-2.2,2.9-4.4,6-7.1,8.4c-3.7,3.1-8,3.6-13.3,0.1c8.5-5.5,15-12.1,14.1-24.1
	c-10.2,7.1-17.7,17.2-30.7,17.5c4.3-5.5,8.3-10.7,12.4-15.8c-0.4-0.6-0.9-1.3-1.3-1.9c-10.6,4.6-20.9,13.1-33,3.6
	C614.3,221.4,614.5,220.6,615,220.2z M607.1,235.6c3,1.4,6.8,2.2,8.9,4.4c3.4,3.5,6.4,7.8,8.3,12.3c2.4,5.6-1.5,9.7-7.8,9.3
	c-7.6-0.5-12.2-6.6-13.1-16.6C604.6,241.9,605.9,238.7,607.1,235.6z M599.5,241.6c0.1,1.2,0,2.3,0,3.5c0.1,10.5-5.1,16.7-13.7,16.7
	c-6.5,0-9.9-4.3-6.7-9.9c3-5.3,7.2-10.1,11.7-14.2C595.5,233.4,598.8,235.1,599.5,241.6z M577.2,539c-3.6-2.9-5.8-7.6-9.2-12.2
	c-0.7,2.9-1.4,5.5-2.1,8.1c-4.3,0.8-6.7,0.8-8.4-0.6c-0.2-0.1-0.3-0.3-0.4-0.4c0,0-0.1-0.1-0.1-0.1c-0.2-0.2-0.5-0.5-0.7-0.9
	c-0.2-0.3-0.4-0.6-0.6-0.9c-0.2-0.4-0.4-0.8-0.6-1.3c-0.3-0.7-0.6-1.4-0.9-2.3c-4-11.6-8.1-23.1-12.4-34.6
	c-3.2-8.5-5.8-16.9-2.3-26.8c-10.1,5.4-19.2,7.1-26.6-3.8c1.5-0.2,2.9-0.5,4.3-0.7c10.4-1.1,16.9-7.4,21.5-16
	c0.9-1.8-0.5-4.7-0.6-7.1c0-1.7,0.3-4.8,0.7-4.8c5.1-0.5,10.5-1.6,15.3-0.4c4.8,1.2,4.8,6.6,4.3,11c-0.3,3.1-0.7,6.2-1.7,9.2
	c-6.8,20.7-1.5,39.1,9.9,56.6c2,3,3.1,6.6,4.5,9.9c6.8,6.4,13.8,13.1,21.8,20.7C586.1,544.2,581.1,542.1,577.2,539z M579.3,547.9
	c-6,4.6-9.6,2-13-0.3c-0.6-0.4-0.8-2.2-0.4-3c0.4-0.8,2-1.9,2.7-1.7C571.8,544.2,575,545.8,579.3,547.9z M530.9,564.2
	c-2-0.6-4.6-1.1-6.4-0.3c-5,2.1-7.8-0.3-10.3-3.9c-3.1-4.6-5.3-10.2-9.4-13.7c-4.1-3.5-9.9-4.8-15-7.1c0.1-0.5,0.2-1,0.3-1.5
	c5.9,1.7,11.9,3.2,17.8,5.1c3.3,1,6.4,2.9,9.7,3.9c5.9,1.8,11.2,0.9,14.7-5c0.5-0.8,1.7-1.3,3.9-2.9c-0.2,3.6-0.1,6-0.6,8.2
	c-2.8,13-2.4,25.5,6.7,37.6c-7.6,0.5-15,2.9-20.9,1c-7.1-2.3-13-8.4-20.2-13.4c9.2,0,16.7,0.3,24.2-0.2c2.1-0.1,4.3-2.2,6-4
	C532.1,567.5,531.5,564.4,530.9,564.2z M474.1,552.8c-0.6,0.2-1.3,0.3-1.9,0.5c-2.4-3.6-4.5-7.4-7.2-10.8
	c-2.9-3.6-6.2-6.8-10.5-11.6c8.6,4.5,10.6-1.6,13.6-6.2c2.3-3.4,4.8-6.7,6.7-10.3c5.3-9.7,4.5-16.7-2.5-25.3
	c-1.2-1.5-2.4-3.1-3.5-4.7c0.3-0.7,0.7-1.3,1-2c6.6,1.2,13.3,1.9,19.7,3.8c5,1.5,5.2,7.5,0.2,11.8c-9.2,8-13.9,18.6-18.9,29.2
	c-0.5,1-0.6,2.2-1.6,5.3c5.8-2.6,10.2-4.6,14.7-6.6c0.5,0.4,1,0.7,1.5,1.1C474.6,532.7,471.4,541.5,474.1,552.8z M460.4,499.1
	c1.7-0.7,2.9-0.3,3.7,0.5c0.8,0.8,1.2,2.1,1.2,3.3C465.2,511.2,453.3,501.9,460.4,499.1z M409.6,323c-14.4,2.7-29.6-4-36.1-15.9
	c-6.4-11.6-4.1-28.2,5.6-38.6c7.5-8.1,16.7-13.3,27.9-14.7c11.5-1.5,18.4,3.1,21.6,14.6c2.4,4.4,5.4,8.5,6.8,13.1c0.6,2-2,7-3.3,7.1
	c-4.2,0.3-3.9-3.6-3.8-6.8c0.1-4.4,0.1-8.9,0.1-13.3l0,0c-6.5-7.4-14.3-11.7-23.3-10.6c-2.1,0.2-4.2,0.8-6.4,1.6
	c-4.3,1.6-8,5.8-10.9,9.6c-3.7,4.9-5.9,10.8-9.4,15.9c-6.8,10-6.2,19,2.4,27.2c9.6,9.2,22.9,11,33.1,3.1c-3.8,0-6.2,0.1-8.5,0
	c-10.7-0.7-14.8-5.1-15.1-15.8c-0.1-4.6-0.7-9.3-1-13.2c4.9,2.9,9.9,7.4,15.6,8.6c5.8,1.1,12.2-1.1,19.5-2c8.1,9.2,7,26.2-4,37.7
	c-7.7,8.1-17.8,11.7-28.4,13.9c-3.4,0.7-7,1-10.3,1.9c-4.4,1.1-6.6-0.5-5.8-4.9c0.8-4.5,2.2-8.8,3.3-13.2
	c22.8,6.7,29.1,5.8,35.2-5.5C412.4,323,410.9,322.8,409.6,323z M374.1,323.1c-2.7,7.6-5.1,14.6-7.6,21.6c-15-13-19.2-44.4-6.1-55.5
	C361.2,302.9,362.4,315.9,374.1,323.1z M474.1,120.4c11.9,5.9,14.2,12.5,7.5,22.4c-3.4,5.1-8,9.4-13,13.5
	C474.8,144.9,476.2,133.1,474.1,120.4z M477.1,104.1c-3,3.1-5.6,0.5-8-1.5c-8-6.6-16-13.2-24.1-19.9c1.5,0,3.4-0.5,4.7,0.1
	c8.7,4.1,17.4,8.3,25.8,13C478.4,97.5,480.3,100.9,477.1,104.1z M464,142.2c-12.8-14.2-27.2-17.4-43.6-5.6c-0.4-0.4-0.9-0.7-1.3-1.1
	c0.9-5.7,1.9-11.4,2.9-17.3c-7.5-0.6-11.3,5.1-15.8,9.1c-0.6-0.1-1.2-0.1-1.3-0.3c-9-12.8-0.3-34.5,14.9-37.3
	C446.9,84.8,473.1,115.3,464,142.2z M459.6,152.6c-4.5,9.8-12.7,15-23.2,16.3c-1.7,0.2-4.7-0.9-5.3-2.2c-2.7-5.8-4.7-11.8-6-15.5
	c-0.1-11.8,8-19.1,17.3-18.2c8.4,0.8,13.9,5.8,17.4,13C460.7,147.8,460.5,150.7,459.6,152.6z M416.4,172.8
	c-3.8,1.3-7.6,2.7-12.1,4.3c0-8.2,0-15.4,0-23.3c5.3,3.5,9.1,10.4,16.3,5.4C424.9,166.1,423.5,170.4,416.4,172.8z M418.1,228
	c-9.9-7.5-11.1-16.8-7-26.6c3.7-9,11.7-12,21-11.9c11.8,0.2,18.8,6.3,21.3,17.8c2,0,3.7,0,6.7,0c-1,4.3-0.8,8.9-3,11.8
	c-4.4,6-9.2,12.4-15.4,16.2c-8,4.8-17.3,8.3-26.4,10.3c-14.7,3.3-28.8,7-39.7,18.2c-0.3-6-0.6-11.6-0.7-17.2c0-1.1,1.1-2.4,2-3.3
	c6.5-6.2,13.2-12.3,20.2-18.9C402.2,229.1,409.1,231.2,418.1,228z M491,236.5c-1.9,0.9-3.4,1.4-4.7,2.2c-3.9,2.2-8.2,2.1-10.6-1.2
	c-2.2-2.9-3.8-7.4-3.3-10.9c1.1-7.8,6.6-13.1,13.1-17.1c8.8-5.4,16.7-11.6,20.2-22.2c4.3,9.4,0,25.9-8.5,33.7
	c-1.4,1.3-3,2.5-4.6,3.6C485,229.5,485,229.5,491,236.5z M470.6,203.5c0-1.2-0.5-2.7,0.1-3.5c2.4-3.3,4.7-6.7,7.7-9.4
	c8-7.2,16.3-13.9,24.2-20.7C503.7,185.9,488.4,202.8,470.6,203.5z M477.2,246.4c-1.2,2.8-2.4,5-3.1,7.4c-2.4,7.7-0.5,14.6,4.4,20.8
	c3.6,4.6,3.6,4.7,2.5,8.6c-5.6,3.8-9.9,6.7-14,9.5c-1.4-9.7-2.8-19.3-4.3-29.9c-3.2,1.8-4.9,2.8-5.5,3.1c-9.6-5.9-18.5-11.5-27.5-17
	c10-3.8,20.4-7.8,31.9-12.2C463.6,244.6,470.8,244.6,477.2,246.4z M519.6,307.5c1.4,0.4,3.6,0.4,4.2,1.3c7.6,12.7,19.2,16.6,33.2,16
	c1.4-0.1,2.8,1.6,4.2,2.5c-0.3,0.3-0.6,0.5-0.9,0.8c-9.4,0-18.8,0.1-28.2-0.1c-1.2,0-2.8-1.1-3.5-2.2c-3.1-4.7-6.1-9.5-8.8-14.3
	C519.3,310.4,519.7,308.8,519.6,307.5z M548.3,271.7c13.4,0,22.1,8.9,22.2,22.5c0,14.6-9,24.7-22.2,24.9c-13,0.1-22.1-8.8-22.3-21.9
	C525.8,282.4,535.2,271.7,548.3,271.7z M531.8,266.6c8.9-15.6,24.3-12.8,37.8-17.7c-1,4.6-1.4,8.2-2.7,11.5c-0.5,1.4-3,3.2-4.1,3
	C552.6,261.3,542.8,263.4,531.8,266.6z M592.8,288.6c1.8,3.4,2,7-2.7,9.2c-1.8,0.8-3,2.9-5.7,5.7c-4.7-7.9-7.3-16.1-8.2-26.5
	C583.7,279.7,589.5,282.5,592.8,288.6z M586,270c4.9-2.5,8.6-4.4,12.8-6.5c0,4.6,0,9,0,15.4C593.8,275.4,590.2,272.9,586,270z
	 M586.9,373c0.6,6.5,1.1,12.1,1.7,18.1c-5.8,0.2-8.7-2.3-9.6-6.6C577.8,379.3,580.2,375.7,586.9,373z M574.1,334.7
	c2.7-6.2,5.2-12,7.7-17.8c4.2,4.9,4.6,14.4,0.7,19.1C580.3,338.7,578.7,338.5,574.1,334.7z M585.8,347c1.4-9,2.7-17.3,3.9-25.4
	C596.1,327.3,594.7,342.1,585.8,347z M576.3,316.9c0.5,0.4,1,0.9,1.5,1.3c-2.8,4.4-5.6,8.8-8.4,13.2c-0.9-0.2-1.8-0.3-2.7-0.5
	c-1-3.5-2-7-3.1-10.7C568.4,319,572.4,318,576.3,316.9z M544.3,342.4c-1.2-2.1-4.8-2.9-7.6-4.4c3.6-1.8,18,3.5,28.2,10.9
	c-4.2,0.5-7.5,0.8-10.7,1.2c-3.2,0.4-6.5,0.8-9.7,1.2C544.6,348.1,545.6,344.6,544.3,342.4z M567.8,355.3c0.9-0.8,2.9-1.4,3.6-0.9
	c1.1,0.7,1.5,2.4,2.4,4c-1.6,3.5-2.4,7.4-4.8,10c-1.3,1.5-5.4,1.7-7.6,0.8c-3.4-1.3-2.4-4.5-0.6-6.8
	C562.9,359.8,565.3,357.5,567.8,355.3z M527,433.1c1.1,1.1,1.4,2.9,1.9,4.5c0.1,0.2-1.5,1.3-1.7,1.1c-1.1-0.9-2.2-1.9-3.1-3.1
	c-3.2-3.8-6.3-7.7-9.8-12c5.9-1.6,11.4-3.1,16.9-4.5c0.2,0.4,0.3,0.9,0.5,1.3c-4.3,1.4-8.6,2.9-14,4.7
	C521.3,428.1,524.3,430.4,527,433.1z M522.8,369.9c4.3,4.8,3.2,10.9-3.8,19.5C514,384.9,515.8,376.5,522.8,369.9z M520.8,327.4
	c0.3,2.1-0.7,4.3-0.9,5.9c-13.5-4.9-25.8-9.3-38.7-14c0.2-0.7,0.5-2.2,1-4.2c-8.6-0.4-17.1-0.8-25.7-1.1c-0.2-0.7-0.3-1.4-0.5-2.1
	c3.2-2.3,6.2-5,9.7-6.8c4.3-2.3,8.8-4.1,13.4-5.7C502.7,290.6,518.9,312,520.8,327.4z M446.4,287.2c3.5-5.2,7-10.4,10.6-15.7
	c6.5,12.4,2.2,29.2-10.5,38.3c-0.3-7.1-0.7-13.8-0.9-20.5C445.6,288.6,446,287.8,446.4,287.2z M443.2,280.4
	c-0.7-6.8-1.3-12.5-1.8-18.1C449.7,268,450.2,273.3,443.2,280.4z M439.7,296.5c0,3.8,0,6.7,0,9.9
	C434.8,302.9,434.8,302.2,439.7,296.5z M404.9,287.7c-5.9-1.9-8.8-6.1-8.2-11.4c0.6-5.2,4.3-8.8,9.8-9c5.9-0.2,10.6,2.4,14,7.1
	c0.9,1.3,0.7,3.6,0.7,5.5c0,0.3-2.2,0.9-2.3,0.7c-0.9-1.4-1.4-3.1-2.3-4.5c-1.1-1.7-2.3-4.3-3.8-4.5c-4.3-0.7-7.8,1.5-8.5,6
	C403.7,280.7,404.6,284,404.9,287.7z M447.2,326.6c0,2.7-0.2,5.9,0,9.1c0.4,6.2,5.2,11.2,10.8,10.9c2.2-0.1,5.1-1.4,6.3-3.1
	c0.9-1.3-0.2-4.1-0.5-6.3c-0.3-2.1-0.7-4.2-1.1-6.4c2.1-0.4,4.3-0.8,6.4-1.1c2.5-0.4,5.3-0.2,7.3-1.4c7.1-4.4,13.6-1.8,19.9,1.3
	c6.1,3.1,10.7,7.6,11,15.3c0.2,6.8-3.2,10.3-9.3,12.3c-1.4,0.5-2.3,2.4-3.5,3.7c1.8,0.3,3.8,1.3,5.3,0.8c6.7-2.2,11.9-1.6,13.7,2.2
	c2.1,4.4-0.7,13.5-5.8,15.8c-6.3,2.8-13.1,4.5-20.6,6.9c1.3-7,2.6-12.3,3.1-17.7c1-10-0.7-11.1-10.3-7.7c-1.9-4.5-3.7-9-5.5-13.1
	c-6.5,4.3-12.4,7.9-17.9,12.1c-5.4,4-10.3,8.6-16.4,13.8c-6.9-16-21.6-20.9-36.5-24C418.4,342,432.8,334.3,447.2,326.6z
	 M439.7,400.9c0.3,11.1,5.4,18.9,12.6,25.7c-0.5,0.5-1,1-1.5,1.5c-3.2-2.7-7-5-9.5-8.3C436.4,413.2,435.9,406.2,439.7,400.9z
	 M447.6,411.5c-4.9-11.7,2.1-22,16.4-21.8c1,0.2,3.7,0.5,6.2,1.4c4.7,1.7,7.3,4.1,5.1,10.1c-2.9,8.1,0.1,15.1,5.7,21.4
	c1.6,1.8,1.6,4.9,2.4,7.4c-2.5,0.7-5.2,2.3-7.6,2C462.7,430.4,452.8,424,447.6,411.5z M481.4,405c2-5.3,8.3-7.5,11.5-3.6
	c4.8,5.7,9.9,6.2,16,2.8c0.4-0.2,1.1,0,2.9,0c-2.4,4.9-4.3,9.2-6.6,13.2c-2.6,4.4-9.4,4.3-17,0.3C482.3,414.4,479.7,409.6,481.4,405
	z M528.9,539.7c-4.4-2-8-3.6-12.2-5.5c2.3-2.7,4-4.7,6.3-7.3c-3.1-1.6-5.7-3-9.1-4.7c1.5-1.6,2.9-2.8,3.9-4.3
	c1.7-2.7,3.7-5.5,4.6-8.6c0.5-1.7,0-4.8-1.3-5.8c-1.1-0.9-4-0.3-5.8,0.4c-5.7,2.3-11.2,4.9-16.5,7.2c1.1-5.7,1.7-10.7,3.2-15.4
	c0.5-1.7,3.3-3.8,5-3.8c12.3,0.5,29.9,15.4,33.3,27.6C525.9,522.8,525.9,522.8,528.9,539.7z M510,431.8c-10,3.2-11.2,8.9-6.8,16.6
	c-0.7,0-1.4-0.1-2.1-0.1c-1.2-4.1-1.7-8.6-3.9-12.1c-2.1-3.4-5.8-5.7-8.4-9.3C495,428.4,501.4,429.9,510,431.8z M478.4,586.9
	c3.1,4.6,5.6,8.4,8.1,12.1c-0.3,0.6-0.7,1.2-1,1.8c-2.2-0.8-4.9-1-6.4-2.5C476.4,595.7,475.1,592.2,478.4,586.9z M479.2,564.5
	c11.3,3.4,20.3,21.7,15.4,31.6C493.6,583.5,487.6,573.5,479.2,564.5z M563,428.5c-2.3-1.1-4.8-1.7-7-2.9c-5.6-3.1-8.4-9.1-6.7-14.1
	c1.6-4.8,6.9-7.2,13.8-5.5c3.9,1,7.8,2.6,11,5c15.2,10.8,19.5,27,22.3,44.4c-7.3-7.3-13.6-14.2-20.6-20.2
	C572.2,432.2,567.3,430.6,563,428.5z M594.8,416.6c-3.2-3-5-5.2-7.2-6.7c-7.2-4.9-14.1-10.5-22-13.8c-5.1-2.1-11.7-0.5-17.6-0.8
	c-2.4-0.1-4.9-0.7-7.1-1.7c-12.2-5.8-9.8-17-9.7-27.3c0-1.3,0.9-3.4,1.9-3.9c8.5-4,16.6-9.7,26.8-6.7c-1.7,3.5-4,6.6-4.7,10
	c-0.5,2.5,0.2,6.4,1.8,7.8c1.7,1.4,5.4,0.6,8.1,0.4c3.8-0.3,7.6-0.9,12.6-1.6c-1.1,3.9-2.4,6.1-2.1,7.9c0.7,3.8,1.1,8.9,3.6,10.7
	c3.3,2.4,8.8,3.3,12.8,2.5c1.6-0.3,2.3-7,2.7-10.8c0.3-2.7-0.5-5.6,0.4-8.4C603.1,387.8,596.4,401.3,594.8,416.6z M590.2,221.5
	c-12,10-22.7,2.7-34-2.8c0.2,9.1,8.2,11.8,12.8,17.9c-14-0.6-22.1-10.1-31.9-17.6c-3,12.6,6.2,17.6,12.9,25.3
	c-2.6,0.2-5.8,1.4-7.6,0.4c-4.4-2.6-8.2-6.1-12.1-9.5c-2.6-2.2-4.8-4.8-7.1-7.3c-0.6,0.5-1.2,1-1.8,1.5c-0.1,9.4,3.8,16.8,11.9,21.8
	c-11.6,15.8-24.4,29.2-44,34.6c-1.1-5.2-0.4-8,5-8.9c7.3-1.2,9.8-7.1,11-13.5c0.7-3.4,0.2-7.4-4-7.7c-2.8-0.2-6.4,1.5-8.2,3.6
	c-1.1,1.2,0.7,4.9,2,7.7c-0.8,4.4-3.6,5.1-7.5,2.3c-5.3-3.8-5.8-10.8-1.3-15.9c7.4-8.3,21.4-7.3,27.7,2c0.6,0.9,1.3,1.8,2.5,3.5
	c1.3-7.2,1.7-14.2-3.1-18.3c-4.2-3.6-10.8-4.5-15.8-6.5c13.3-4.2,19.3-16.5,25.3-28.8c6-12.2,17.4-16.5,29.1-9.6
	c12.6,7.3,24.5,15.9,36.7,23.9C589.3,220,589.7,220.8,590.2,221.5z M508.1,147.7c10.8,10.4,15.9,36.8,8.3,46.5
	C513.6,178.3,510.7,162.4,508.1,147.7z M559.5,140.1c9.4,11.7,17.6,22.7,21.5,35.8c1.2,4.2-1.2,9.6-2.1,15.1
	c2.3-1.1,4.6-2.2,6.8-3.3c0.5,0.2,1.1,0.4,1.6,0.6c-1.3,4.5-2.6,8.9-4.2,14.6c-3-2.2-4.9-3.5-6.6-4.8c-11.6-9.1-23.3-17.7-39.1-17.7
	c-1.3,0-3.7-1.5-3.8-2.5c-1.5-13-5.9-24.8-14.2-35.6c4.8,1.2,9.7,2.2,14.5,3.6C543.1,148.9,551.9,149.6,559.5,140.1z M511.6,94.3
	c-8.8-0.8-9.8-1.5-11.8-8C503.9,89.1,507.2,91.4,511.6,94.3z M502.1,111.5c4,1.6,8.5,4.8,12.9,4.7c4.5-0.1,8.9-3.4,15.2-6.1
	c5,5,11.6,11.4,18,18.1c0.5,0.5-0.8,2.7-1.2,4.1c0,0.1-0.3,0.1-0.5,0.2c-9.2,4.1-42.8-1.8-50.8-8.9C498,119,500.2,115,502.1,111.5z
	 M493.7,142.6c4.9,12.8-0.7,27.4-12.5,34.7c-8.5,5.2-16.9,4.3-23.8-3.5C470.5,164.6,485.8,158.2,493.7,142.6z M451.3,64.9
	c12.3,1.8,24,5.4,33.1,14.5c2.7,2.7,4.2,6.4,5.5,10.7c-18.9-17.3-38.7-27.3-63.6-13.3C432.7,68.4,440.5,63.3,451.3,64.9z
	 M431.5,54.8c-3.1,3.4-5.4,6-8.5,9.4c-2.3-4.3-3.7-7.1-5.8-11.1C422.3,53.6,426.2,54.1,431.5,54.8z M409.9,61.9
	c4.3,6.4,4.4,14.2-0.4,21.3c-2.4-13.9-12.9-21-23.5-29.1C397,51.8,404.9,54.6,409.9,61.9z M397.6,89.3c-2.9,6.2-5.1,10.8-7.2,15.4
	c-0.9,0.1-1.9,0.1-2.8,0.2c3.7-8.7-2.1-9.9-7.2-11.9c-2.6-1-4.8-3-6.9-5.5C380.7,91.6,388.1,93.4,397.6,89.3z M358.3,62
	c1.2-2.7,9.2-4.5,8.3,0.4c-0.7,3.4-6.6,4.6-8.2,1.3C358,63.1,358,62.5,358.3,62z M341,69.3c5.8-0.2,5.4,8.3,0.2,7.5
	c-1.5-0.2-3.3-2.4-3.6-4C337.3,71.7,339.7,69.3,341,69.3z M341.5,90.1c5.3-4,6.6-3.1,9,3c3.5,9.1,7.6,18,11.8,27.7
	c2.5-1.7,3.7-3.2,5.2-3.4c1.9-0.3,4.2,0.1,6,0.9c1.7,0.8,3.2,2.3,4.2,3.8c1.5,2.2,3.4,4.9,3.2,7.1c-0.1,1.5-3.7,2.8-5.8,3.9
	c-0.8,0.4-1.9,0.4-3.3,0.6c-1.8-5.8-6.8-7.9-11-7.3c-3.8,0.5-7.2,4.5-10.2,6.6c-2.2-2.6-4.4-5.2-6.6-7.8c-2.5,2.1-5,4.2-7.8,6.7
	c-5.9-3.4-8.3-9.2-8.2-15.8C328,105.2,333,96.6,341.5,90.1z M328.9,152.4c-8.3,0.8-12.4-8.2-9.1-20.1
	C322.8,139.1,325.9,145.8,328.9,152.4z M318.4,72.2c3.2,5.4,6,10.2,9.5,16c-0.8,1.4-2.4,4-3.9,6.6c-5-5.4-9.8-10.5-15.1-16.2
	C311.9,76.5,315.1,74.4,318.4,72.2z M286.4,93.4c0.1-0.3,0.2-0.6,0.3-0.9c1-2.6,4.1-4,8.9-4c5.2,0.3,9.7,1.9,13,5.8
	c0.5,0.5,0.9,1.1,1.3,1.8c2.5,3.8,4,7.9,0.8,11.9c-3.1,3.9-7.5,4.6-12.2,3.3c-6.1-1.7-12.2-10.1-12.3-16.4
	C286.2,94.3,286.3,93.8,286.4,93.4z M295.1,124.1c5.6-0.8,9.9-1.4,14.4-2c-0.7,10.5-1.3,20.6-1.9,30.7c-0.7,0.2-1.5,0.4-2.2,0.5
	C302,143.8,298.7,134.2,295.1,124.1z M297.2,167.3c-1.5,3-3.6,6.1-8.1,5.1c3-7.1,5.8-13.9,8.9-21.5
	C301.4,157,299.7,162.3,297.2,167.3z M286.5,189.8c15.3-0.8,18.4-12.8,22.6-24c0.4-1.1,0.6-2.3,0.9-3.4c0.1-0.3,0.5-0.6,2.1-0.8
	c-0.4,3.2-0.5,6.6-1.4,9.6c-1,3.1-2.9,6-4.4,8.9c-4.4,8.6-3,16.5,4,25.5c2.9-6.4,5.3-11.8,8-17.8c6.5,7.9,13.9,14.6,26.1,12.9
	c-4.2-7.2-8-13.7-11.8-20.3c10.5,2.6,19.9,5.1,29.9-4.3c-6.5-4.4-12.2-8.3-19.1-13c13.2-1.1,25.9-2.2,39-3.3
	c-2.8-6.8-8.9-8.6-16.4-10.9c4.3-0.5,7.1-0.6,9.8-1.2c12.7-3.1,22.6,6.1,22.6,19.1c0,4-0.7,8.2-1.9,12c-2.2,7.4-5,14.6-7.5,21.8
	c-4.3-2.8-8-5.3-11.7-7.7c-0.5,0.5-1.1,0.9-1.6,1.4c5.5,7.1,7.7,15.1,3.3,22.7c-2.7,4.6-7.2,8.8-11.9,11.2
	c-6.4,3.3-14.5,3.4-20.1-1.2c-4.8-3.9-7.3-10.7-11.1-16.7c-1.1,1.2-2.8,3.5-4.8,5.3c-2.1,1.8-4.5,3.3-6.8,4.9
	c-1.3-2.3-2.6-4.5-3.9-6.8c-0.5-1-0.9-2-1.4-3c-9,5.9-8.1,17.6,2,31.7c-4.3,4.3-10.5,5.3-16.2,0.9c-4.8-3.7-9.3-8.4-12.4-13.6
	c-6.6-10.9-8.7-23.3-8.4-35.9C283.9,192.5,285.5,189.9,286.5,189.8z M319.3,274.4c-0.2,1.6-2.9,3.7-4.7,3.9
	c-5.8,0.9-10.6-1.7-14.4-6c-5.8-6.4-7.8-14.4-9.3-22.7c8,7.5,15.9,14.5,26.4,17.8C318.7,267.8,319.7,272.1,319.3,274.4z
	 M265.1,129.7c-0.4-1.2-0.8-2.9-0.3-4c1.7-3.3,3.8-6.4,5.8-9.5c1.9,2.5,3.9,4.9,5.8,7.5c0.5,0.6,0.6,1.4,0.9,2.1
	c4.3,10.3,4.2,10.2-5.2,15.7c-1.2,0.7-2.1,1.9-3.9,3.4c4.3,1.6,7.7,2.8,11,4.2c4.7,2,5.6,5.4,3.7,10c-4,9.9-14.4,15.1-24.2,12.2
	c-5.4-1.6-7.1-4.5-4.7-9.6c2.4-5.1,5.4-9.9,8.3-14.7C265.7,141.5,267.2,135.9,265.1,129.7z M273.8,319c-3,1.3-6,2.7-9.8,4.4
	c-0.4-1.5-1.7-3.7-1.1-4.7c0.8-1.3,3.2-2.3,4.8-2.3c0.5,0,1.1,0.1,1.6,0.2c1.6,0.4,3.2,1.2,4.9,1.8c0,0,0,0,0,0
	c10.5,4.5,15,13.4,18.4,23.1c0.5,1.4,0.9,2.8,1.4,4.2c0.4,1.3,0.6,2.7,0.8,4c0.1,0.3-0.1,0.7-0.2,0.7c-8.3-5.2-16.6-10.5-25.7-16.2
	C272.4,330.7,276.6,325.9,273.8,319z M272.1,272.5c-0.7,2-1.7,4-2.1,6.1c-0.8,4-3,5.4-7,5.1c-12.7-1-23.7,3.2-34.4,12.5
	c-1.5-6.8-2.9-12.8-4.4-19.3c15.9,3.1,27.6-2.5,37-13.7c9.3-11.1,11.1-24.5,10.4-38.6C276.9,240.4,277.5,256.4,272.1,272.5z
	 M259,131.4c0.7,0.4,1.5,0.8,2.2,1.2c-3.4,5.9-6.9,11.8-10.3,17.6c-0.5-0.3-1-0.5-1.5-0.8C252.6,143.4,255.8,137.4,259,131.4z
	 M237.8,160.7c4.3,9,3.5,11.1-6.3,16.9C233.7,171.6,235.6,166.5,237.8,160.7z M259.4,181.2c-6.1,2.1-12.3,3.5-17.7,6.4
	c-5.5,3-10.2,7.6-15.4,11.6C230.2,182.2,243.3,174.9,259.4,181.2z M254.2,192c1.5-0.5,3.1-0.7,5-0.5c-14.6,7.8-25,18.7-28.5,35.1
	c-1.5,6.6-1.7,13.2,0.7,20.2c3.8-17.1,21.6-17.7,30.7-28.6c5.5,12.4-0.7,33.5-11.2,40c-5.1,3.2-11.9,2.6-17.5-1.8
	c-6.8-5.3-9.5-12.7-9.6-21.1C223.6,217,236.9,198.2,254.2,192z M233.7,326c-2.7-4.1-4.4-8.9-7.2-12.9c-3.6-5-3.6-8.4,1.5-13
	c0.7,2,0.8,4.2,2,5.3c2.8,2.7,5.9,5.5,9.4,6.8c1.4,0.5,4.7-2.3,6.4-4.2c7-7.8,16-9.7,26.4-10.3c-1.1,2.9-1.9,4.9-2.8,7.1
	c-1.8,0.3-4,0.4-6,1c-7.9,2.1-9.9,6.4-6.6,13.7c3.1,6.8,2.1,9.7-5.2,11.6c-3.8,1-8.2,1.2-12.1,0.4C237.3,331,235.1,328.2,233.7,326z
	 M268.3,396.2c-0.5,4-1.4,7.9-2.1,11.8c-0.9,0.2-1.8,0.5-2.7,0.7c-3.7-7.7-8-15.2-11-23.1c-1.7-4.3,1.3-6.5,5.7-5.1
	C266.7,383.3,269.4,387.3,268.3,396.2z M289.9,394.4c-0.7,10.4-3.3,18.3-5.8,23.7l-2-2.7c0.1-0.3,0.3-0.7,0.4-1
	c5.1-13.9,3.5-27.2-4.1-39.8c-3.5-6-8.8-9-15.7-7.5c-3.7,0.8-7,3.2-10.6,4.4c-1.7,0.6-4.9,0.7-5.3-0.1c-2.3-4.1-3.9-8.5-5.9-13
	c11.4,2,21.7,3.9,32.1,5.5c8.7,1.3,13.4,6.7,15.4,14.7C289.7,383.9,290.1,389.2,289.9,394.4z M288.3,365.4c-4.7-4.3-9.2-9-14.3-12.8
	c-5.9-4.5-12.3-7-20.1-3.8c-4.5,1.9-9.1,0.2-12.9-3.3c20-12.3,49.1,1.1,51.5,24.7C290.6,368,289.6,366.6,288.3,365.4z M295.7,433.9
	l-2.7-3.6l7.8-29.4l0,0c10.5-32.9,7-63-18.2-89.1c-1.3-1.4-1.4-4-2-6c2.3-0.3,4.9-1.4,6.8-0.7c7.6,2.9,13.3,8.2,16.5,15.8
	c7.3,17.6,10.8,36,8.3,54.9c-1.4,10.6-5.4,20.8-8.4,31.5L295.7,433.9z M337.9,348.5c-0.4,5.8-1.6,11.6-2.3,17.4
	c-2,15.4-4.1,30.9-5.9,46.3c0,0,0.3,40.6,4.2,73.6L323.7,472v-39.9l-10.7,25.4l-4.3-5.8c5.3-14.1,18.8-50.4,19.6-58.8l0,0
	c1.1-5.4,1.4-11,0.9-16.6c-1.7-19.3-7.7-37.4-17-54.3c-7.9-14.4-16.1-28.8-32.7-35.2c-1-0.4-1.7-3.3-1.4-4.7
	c2.3-10,4.9-19.9,7.4-29.9c0,0.6,0,1.2,0.1,1.8c2.1,20.1,10.5,29,26.8,33c6.1,1.5,11.9,5.6,16.9,9.7c5,4,6.6,10.2,6.2,17
	c-4.2-0.6-7.8-1-11.4-1.5c-0.3,0.6-0.5,1.1-0.8,1.7c1.4,1.7,2.7,3.6,4.2,5.1C335.8,327.2,338.7,337.2,337.9,348.5z M331.5,282.7
	c1.9-4.8,3.6-8.9,5.7-14c-2,0.7-3.1,1.2-4.3,1.4c-2.1,0.4-4.3,0.5-6.5,0.8c0.1-2.3-0.4-4.8,0.5-6.7c4.3-10,12.9-14.4,23-15.7
	c17.5-2.2,22.8,4.7,16.9,21.4c-0.7,2-1.7,4-2.2,6c-1.3,4.8-3.8,7.6-8.5,10c-5.2,2.7-9.1,8-13.9,12.4
	C339.8,292.6,339.6,284.9,331.5,282.7z M346.1,352.2c0.5-6.8,0.1-13.6,0.5-20.9c4.5,9.3,10.2,17.5,19.6,21.3
	c-7.9,7.1-15.3,13.8-22.9,20.6C344.3,366,345.6,359.2,346.1,352.2z M346.8,406c-0.6-0.3-1.2-0.6-1.9-0.9c1.9-11,6.5-21,13.8-29.5
	c10.1-11.5,22.6-18.5,38.5-17.2c7,0.6,13.5,2.8,17.3,9.3c0.8,1.4,1.3,4.4,0.4,5.3c-1.2,1.3-3.8,1.9-5.6,1.6
	c-2.6-0.4-5.1-1.8-7.7-2.7c-18.2-6.8-36-0.5-45.7,16.3c-2.3,4-4.2,8.4-6.3,12.5C348.8,402.5,347.8,404.2,346.8,406z M365.3,500.9
	c-2.8,4.6-7.6,9.3-7.7,14c0,1,0,2,0,3l-4-5.5c2.4-2.6,4.8-5.8,6.8-9.6c5.1-6.2,4.6-15.9,15.3-18.2
	C371.6,490.9,368.3,495.8,365.3,500.9z M373.5,459.2c-16.2-19.8-12.7-43.3,10.8-55c0.5-0.2,0.9-0.7,1.9-1.5
	c-8.2-3.7-16.1-1.7-24-0.4c0.5-14.4,15-25.9,30.2-23.5c6.7,1.1,13.1,4.5,19.4,7.3c2.8,1.2,4.5,3,8.2,0.9c3.2-1.8,7.9-0.8,12.3-1
	c-0.9,3.3-1.9,6.5-2.7,9.8c-4.7,19.1,5.4,34.1,24.3,44.4c6.8,3.7,14.4,5.8,21.5,9.1c5.9,2.7,11.5,6.1,17.3,9.2
	c-0.1,0.8-0.3,1.7-0.4,2.5c-2.5,0.3-5.3,1.5-7.4,0.7c-4.5-1.7-9.3-3.7-12.7-6.9c-9.8-9.1-21.7-11.9-34.3-12.7
	c-5.3-0.3-7.3-1.6-7.4-7.4c-0.3-13.7-15.6-25.4-29.2-22.9c-1.7,0.3-3.4,1-4.9,1.8c-4.9,2.7-8.5,9.3-7.4,13.5c1.1,4,7.1,7.1,13.2,6.4
	c3.1-0.4,6.1-1.4,9.1-2.1c6.1-1.4,9.1,0.6,11,7.6c-1.6,0.5-3.1,1.2-4.8,1.6c-13.1,3-24.4,9.1-33.5,19.1
	C379.3,465.2,378.3,465.1,373.5,459.2z M455,455.4c-8.2,2.1-15.3,3.9-23.7,6.1C436.3,453,441.4,451.9,455,455.4z M384.7,483.9
	c1-11.8,14.8-25.1,29.3-30.7c0.1,0,0.1,0,0.2-0.1c1.3-0.5,2.5-0.9,3.8-1.3c0.5-0.1,1-0.3,1.4-0.4c0.9-0.2,1.7-0.4,2.6-0.6
	c3.1-0.5,6.2-0.6,9.1-0.2c-2.2,2.3-4.3,4.3-6,6.4c-2.6,3.1-3.6,6.5-4.3,10.8c-0.8,5-5.7,9.5-9.2,13.8c-1.1,1.3-3.8,1.2-5.2,2.5
	c-0.9,0.8-1.9,1.5-2.8,2.1C397.2,490.2,391,487.5,384.7,483.9C384.7,483.9,384.7,483.9,384.7,483.9z M426.6,496
	c2.2,0.4,5.6,2.1,6.1,4.6c0.6,3.2-3.3,6.5-6.4,6.2c-3.6-0.3-5.1-5.2-3.8-8.2C423.6,496.3,425,495.7,426.6,496z M399.5,567.8
	c6.1,1.6,13.2,1.6,19.3,0c5.7-1.5,10.5-6,15.8-9.1c-1.7,2.7-3.8,4.7-6,6.6c-5.6,5.1-8.6,11.3-9.2,18.6L399.5,567.8z M406,550.6
	c10.9-8.1,24.5-7.3,37.8-11.3c-10.4,5.6-19.5,10.9-29.1,15.4c-2.2,1-5.8-0.8-8.7-1.3C406,552.5,406,551.6,406,550.6z M436.2,580
	c-2.3,4.5-4,9.1-4.8,13.8l-4.7-3.8c1.9-6.7,5-12.5,11.9-15.8C438.2,576.3,437.2,578.1,436.2,580z M447.9,605.4
	c-0.1,0.3-0.5,0.6-1,0.8l-5.6-4.5c0.1-0.2,0.1-0.4,0.2-0.5c1.5-2.5,3.9-4.5,6-6.7c0.7,0.2,1.4,0.4,2,0.6
	C449.1,598.5,449.2,602.3,447.9,605.4z M447.7,509.5c1.9,8.2,1.6,8.7-6.9,8.7c-9.3,0.1-18.6-0.1-27.7-1.3
	c-5.2-0.7-10.2-3.6-15.6-5.6c-1.1,3.3,0.1,7.3,3.3,10c3.2,2.7,7,4.8,10.8,6.7c3.6,1.8,7.6,2.8,12,4.4c-10.4,1.4-19.9,2.7-30.2,4
	c-8.7-11.7,1.2-36.9,17.5-39.8c0.3,6.5-0.1,13.7,6.7,17.3c3.5,1.8,7.6,3.3,11.4,3.4c7.1,0.2,14.1-6.3,15.4-13
	c1.8-9.4-2.5-14.2-19.6-21.8c0.9-13.8,36.8-19.4,50.4-12.4c-8.6-1.1-12.6,2.7-15.4,8.3c-0.4,0.8-1.2,1.6-2,2.1
	C446.4,487.4,445,497.5,447.7,509.5z M480.6,619.6c-3.3,2.2-5.7,4.9-7.1,8.1l-6.5-5.3c-1-2-2.7-3.4-5.1-4.1l-7.9-6.4
	c1.9-1.8,3.3-4.3,3.9-7.4c1.4-7.7,0.4-15.7,0.3-23.6c-0.1-4.3-0.6-8.6-0.9-12.9c0.6-0.1,1.3-0.1,1.9-0.2c0.3,2.2,0.5,4.4,1,6.5
	c1.4,6.4,2.3,13.1,4.6,19.2c3.8,10.6,11.4,15.3,22.7,15.5c1.2,0,2.3,0.6,5.3,1.5C487.9,614.2,484.4,617.1,480.6,619.6z M503,651.7
	l-11.6-9.4c1.4-2.2,2.6-4.7,3.2-7.1c0.9-4.2,1-8.5,1.5-12.8c0.1-0.4,0.6-0.8,1.1-1.4c0.9,1.3,1.6,2.4,2.3,3.5c1-1.2,1.8-2.3,2.6-3.3
	c0.5,0.2,1,0.3,1.5,0.5c-0.3,3.1-0.9,6.3-1,9.4C502.8,637.8,502.8,644.7,503,651.7z M515.1,661.4l-6.7-5.4c1.7-3.2,3.3-6.5,4.9-9.8
	c0.7,0.1,1.3,0.2,2,0.3C513.3,652.3,513.5,657.2,515.1,661.4z M516.5,625.5c-6.6-9.1-14.2-17.9-11.8-30.5c0.2-1.1,0.6-2.2,1.6-5.4
	c8.5,10.7,16.1,20.3,24.3,30.8c-4.2,2.3-7.4,4.2-10.7,5.7C519,626.5,517,626.2,516.5,625.5z M537.3,673.1c-0.9,0.5-2,0.5-3.5,0
	c-0.9-0.3-1.9-0.7-3-1.4c-8.1-4.5-11.5-12.5-8.8-20.6c1.3-3.9,3.3-5,6.8-2.2c1.1,0.9,2.1,1.8,3.1,2.7c4.3,4,7.3,8.7,7.5,15.2
	C539.3,670.2,538.7,672.3,537.3,673.1z M557.5,681.1c-2.4,6.8-3.7,7.1-9.1,2.9c1.7-8.2,3.2-15.7,4.7-23.5c5.5,1.3,6.4,6.2,6.4,10.9
	C559.6,674.7,558.6,678,557.5,681.1z M576.1,700.4c-3.5-2.3-7.1-4.7-11.7-7.7c8.3-4.9,13.7-5.2,14.2-1.6
	C579.1,694,577.1,697.3,576.1,700.4z M574.4,671.7c-1.5-3.1-2.7-5.7-4-8.2c-4.1-7.5-9.3-13.3-18.5-14.4c-2.4-0.3-4.7-2.5-7-3.9
	c-7.8-4.7-15.5-9.5-25-15.4c2.7-0.3,4.5-1.1,5.9-0.6c2.5,0.9,4.7,3,7.2,3.6c3.4,0.9,7,0.9,10.6,1.2c0.1-0.6,0.3-1.2,0.4-1.7
	c0.7,0.6,1.8,1.1,2.1,1.9c4.8,11.5,16.4,13.4,25.9,17.9C582.9,657.4,584.4,663.4,574.4,671.7z M585.5,561.6
	c-1.4,0.2-2.9,2.8-3.5,4.6c-0.7,1.9-0.5,4.2-1.9,5.3c-2.4,2.1-5.4,3.9-7,6.5c-1.6,2.7-1.9,6.2-2.9,9.5c-2.1-0.3-3.7-0.6-6.1-0.9
	c0.6,14.9,4.5,27.1,21,32.9c-2,0.8-2.6,1.3-3.2,1.2c-14.2-1.2-27-5.9-37.2-16.3c-3.3-3.4-6.3-7.4-2.9-12.4c2-3.1,4.9-4.1,8.6-2.6
	c3.2,1.3,6.1,1.2,7.2-3.7c-10.8-2-13.2-9.8-14.2-19.6c4.7,3.1,8.5,6.1,12.7,8c2.3,1,7.1,1.1,8.1-0.3c2.3-3.4-0.6-6.1-3.7-7.8
	c-4-2.1-4.7-5.5-4-9.4c0.7-4.2,3.9-5.4,7.2-2.8c10.6,8.3,19.9,7.2,28.9-3.3c0.2-0.3,0.6-0.4,1.6-0.9
	C593.3,555.4,592.7,560.6,585.5,561.6z M596.4,533.2c-4.5-2.9-7.9-5.1-11.4-7.3c0.1-0.5,0.2-1,0.3-1.5c3.8-0.3,7.7-0.6,12.3-1
	C597.2,527,596.9,529.5,596.4,533.2z M601,588.4c-2.4-5.5-4.1-10.3-0.2-15.2C606.8,577.1,607,582.1,601,588.4z M605.7,523.5
	c4.4,0.2,8.3,0.4,12.1,0.6c0,0.4,0.1,0.9,0.1,1.3c-3.5,2.2-7,4.5-11.4,7.3C606.2,529.5,606,527,605.7,523.5z M614.6,646.5
	c-1-3.2-2.1-6.4-3.1-9.6c0.9-0.3,1.9-0.7,2.8-1c0.8,3.3,1.5,6.6,2.3,10C615.9,646.1,615.2,646.3,614.6,646.5z M620.5,589.7
	c-2.5,3-4.9,6.1-7.6,9.4C611.9,593.8,614.3,590.4,620.5,589.7z M638.8,587.3c-2.4-0.1-4.2-0.2-6.5-0.3c-0.6-2.9-0.9-6-2-8.8
	c-0.8-1.9-2.6-4.5-4.2-4.6c-3.9-0.3-4.4-2.4-4.4-5.4c0-4.1-1.3-6.5-6-6.8c-7.7-0.4-5.7-7.5-7.1-12.4c0.9,1.2,1.9,2.5,2.8,3.7
	c6.3,8.1,20.3,9,27.1,1.7c2.6-2.7,6.1-2.3,7.3,1.3c1.3,3.7,1.2,7.3-2.3,10c-1.2,0.9-3,1.5-3.8,2.6c-1,1.6-2.2,4-1.7,5.4
	c0.4,1.1,3.8,2.4,5,1.8c4.2-1.9,8.1-4.5,12-6.9c0.9-0.6,1.8-1.4,2.8-2.2c1.4,8.7-1.8,14.3-9.3,17.7c-0.3,0.1-0.6,0.4-0.8,0.6
	c-0.2,0.3-0.5,0.6-0.7,0.9c-0.3,0.5-0.6,1-0.9,1.5c-0.1,0.2-0.2,0.3-0.3,0.5c0.4,0.2,0.7,0.4,1.1,0.6c1.1,0.6,2.1,1.3,3.2,1.6
	c1,0.2,2.2-0.5,3.3-0.8c4.7-1,8.6,2.2,8.2,7c-0.2,2-0.8,4.4-2,5.9c-10.4,12.7-24.3,17.8-40.4,17.7
	C633.3,613.4,638,601.9,638.8,587.3z M631.8,697.3c-1.8,1.3-4.1,2.1-6.2,3c-0.8-3.1-2.1-6.1-2.1-9.2c0-0.8,4.2-2.1,6.5-2.2
	c1.9-0.1,3.9,1.3,7.2,2.5C634.9,694,633.6,696,631.8,697.3z M631.3,663.6c-1.3,2.3-2.4,4.8-4.4,8.8c-2.7-4.1-6.8-7.7-6.1-10
	c1-3.7,4.6-7.5,8.1-9.6c6.5-3.7,13.9-5.9,20.6-9.4c2.4-1.2,3.9-4.1,5.6-6.4c2-2.9,3.6-4.5,8-3.3c3.1,0.8,7-2,10.7-3.1
	c2.2-0.7,4.5-1.1,6.8-1.7c0.1,0.6,0.1,1.2,0.2,1.9c-7.1,4.2-14.4,8.1-21.3,12.7c-4.3,2.9-8.3,5.6-13.7,6.6
	C638.4,651.3,634.6,657.5,631.3,663.6z M681.6,655.8c0,7-5.3,14.2-12,16.3c-4.1,1.3-6.4-0.1-6.7-4.5c-0.6-6.7,5.9-17.4,12.1-19.9
	C678.9,646.1,681.6,649.4,681.6,655.8z M689.7,667.2c-9,7.9-18.8,15.1-28.8,21.8c-6,4-12.6,1.4-15.2-5.4c-1.7-4.3-3.1-8.9-3.4-13.5
	c-0.3-4.5,1.5-8.7,7.7-10c0.1,1.8,0.4,3.3,0.2,4.7c-1.2,8.4,1.8,14.9,9.4,18.7c1.3,0.7,4.1,0.4,5.2-0.6c7.3-6.7,14.8-13.3,21.3-20.7
	c2.2-2.4,1.9-7.2,2.3-10.9c0.2-1.7-0.6-3.6-1-6.3C695.2,652.6,696.4,661.3,689.7,667.2z M686.7,624.5c-1,1.3-4.5,1.7-6.2,1.1
	c-2.9-1.2-5.4-3.6-8.6-5.8c7.8-10.3,14.6-21.3,25.6-30.5c1.5,8.4,1.9,15.3-1.8,21.7C693,615.6,690.1,620.3,686.7,624.5z
	 M700.2,648.9c-0.1-0.6-0.2-1.3-0.3-2c-0.6-6.5-1.8-13-2.3-19.5c-0.2-2.4,0.9-4.9,1.7-8.6c2,2.5,2.9,3.6,3.8,4.9
	c0.9-1.2,1.5-2.1,2.5-3.6c0.6,4.2,0.5,7.7,1.8,10.6c1.5,3.3,3.1,6.9,5.4,9.7C707.4,644.2,703.1,647,700.2,648.9z M730.3,627.3
	c-0.8-1.4-1.6-2.7-2.7-3.7c-3.5-3.3-8.3-5.1-12.1-8c-2-1.5-3.3-4-5.8-7.1c3.2,0,4.6-0.2,5.8,0c7.1,1.3,12.6-1.6,17-6.8
	c6.9-8.3,9.4-18.2,10.5-28.6c0.2-2.2,0.4-4.3,0.6-6.5c0.6,0,1.2,0.1,1.8,0.1c0,4.3,0.2,8.6,0,12.8c-0.4,7.2-1.7,14.4-1.3,21.5
	c0.2,3.4,2.9,7,5.2,9.9c0.1,0.2,0.4,0.3,0.6,0.4C742.7,617.3,736.2,622.7,730.3,627.3z M754.4,607.2c-0.1-0.4-0.2-0.7-0.4-1
	c-3.2-4.6-2.7-8.9,0.2-13.7c2.4,2.8,4.4,5.4,6.7,7.6c0.2,0.2,0.5,0.5,0.7,0.7C759.2,603,756.8,605.1,754.4,607.2z M768.9,594.1
	c0.6-5.4-0.5-10.7-3.6-15.7c-1.1-1.7-2-3.4-2.9-5.2c0.2-0.2,0.5-0.4,0.7-0.6c7.2,3.3,9.7,11.8,10.6,16.9
	C772.1,591.2,770.5,592.7,768.9,594.1z M782.8,580.9c-1.7-6.5-4.9-12.3-8.1-16.9c5.9,3.9,13,5.9,18.1,7
	C789.3,574.4,786,577.7,782.8,580.9z M807.2,536.4c-13-5.7-29.3-3.9-29.3-3.9c37.5-7.3,25.5-25.2,25.5-25.2
	c-6.3,13.2-31.3,10.7-31.3,10.7l-1.6,1c-1.7,0-3.4-0.1-5.1-0.3c-11.5-1.4-11.6-1.6-9.3-12.8c1.4-6.9,1.5-14.3-3.5-18.8
	c-7.3-6.6-11.8-17-23.2-19c15.9-2.3,31.4-2.7,45.1,7.5c2.1,1.6,3.3,4.3,5.6,7.4c-3.2,0.6-4.8,0.9-6.5,1.2
	c-9.1,1.8-15.8,10.4-14.9,18.9c0.9,7.9,8.6,13.9,17.2,13.3c10-0.7,15.7-7.1,15.9-17.4c0-0.9,0.1-1.7,0.3-2.6
	C818.8,505.7,807.4,535.9,807.2,536.4z M749.2,455.5c10.1-4.4,17.7-2.8,22.9,6C763.8,459.3,756.9,457.5,749.2,455.5z M781.7,500.8
	c2.2,9.2-13.9,5.6-9.1-3C775.1,493.3,780.8,497,781.7,500.8z M790.9,481.9c-4.1-4.2-6.7-10-9.6-15.3c-1.5-2.8-1.7-6.2-3.3-8.9
	c-1.7-2.8-4.4-5.1-7.6-8.5c4,0.4,7.2,0.1,9.9,1.1c6.2,2.1,12.3,4.5,18.2,7.4c7.2,4.7,13.5,10,19.1,15.5l13.6,25.2
	C820,497.2,790.9,481.9,790.9,481.9z M853.7,501c-0.1,0.1-0.1,0.2-0.2,0.3c-13.9-28.6-32.7-44-46.9-52.2c-0.5-0.5-1.2-0.9-2-1.3
	c-0.5-0.2-0.9-0.4-1.4-0.6c-10.3-5.4-17.6-6.8-17.6-6.8c-1.8-0.7-4.9-2.2-4.8-3c0.3-2.1,1.5-4.7,3.2-5.7c1.8-1.1,4.7-0.8,7-0.6
	c4.2,0.5,8.5,2.4,12.5,1.7c3.3-0.5,7.4-3.1,9-6c2.2-3.9,0.7-8.7-3.2-11.4c-2.9-2-6.6-3.8-10-4c-15.3-1-26.8,11-27.6,28.9
	c-1.4,0.2-2.5,0.4-3.7,0.6c-13.4,1.8-26.5,4.2-37.3,13.6c-3.3,2.9-7.6,4.8-11.7,6.4c-2.2,0.8-5-0.2-7.6-0.4c-0.2-1-0.4-2-0.6-3
	c5.9-3,11.7-6.3,17.8-9c6.9-3.1,14.4-5.1,21-8.7c13.4-7.3,26.7-20.8,23.5-41.3c-0.8-5-2.9-9.9-4-13.8c3.8,0.5,9.3-0.4,12.5,1.9
	c5.7,4,8.3-0.1,11.9-2.4c9-5.9,18.7-7.6,29.1-4.6c10.1,2.9,18.3,12.9,18.4,23.1c-7.9-1.9-15.7-4.5-23.2-1
	c6.3,5.8,12.5,11.6,19.5,18.1C837.3,419.7,859.4,453.5,853.7,501z M857.7,407.4l-0.3,0.2c-1.3-2-2.6-3.7-3.6-5.6
	c-3.1-5.9-5.5-12.1-9.1-17.6c-9.4-14.3-26.7-19.5-42.7-13.4c-3.3,1.2-6.5,2.7-9.9,3.4c-1.5,0.3-3.9-0.7-4.9-1.9
	c-0.7-0.8-0.1-3.4,0.7-4.7c4.1-6.4,10.4-9.1,17.8-9.7c16.6-1.3,30,5.5,39.4,18.5c5.8,8,9,17.9,13.3,27c0.3,0.7,0.3,1.5,0.3,2.3
	C858.7,406.2,858.4,406.5,857.7,407.4z M856.6,294.2c-2.9-2.8-5.9-5.6-9-8.2c-2.7-2.3-6.7-3.8-8-6.7c-3.6-7.9-7.4-16.2-5.1-25.2
	c0.6-2.3,3.5-4.8,5.9-5.6c10.7-3.5,26.5,2,32.7,11.5c1.9,2.9,2.2,6.8,3.3,10.2c-2.9,0.4-5.8,0.9-9.9,1.5c1.2,3.2,2.5,6.6,4.1,10.6
	c-6.1,3-8.9,8.7-9.2,17.5C859,296.9,857.9,295.4,856.6,294.2z M872.6,475.9l-3.7-78.1l0,0c-0.3-8.8-0.9-17.6-1.4-26.4
	c-0.6-11.2-1.5-22.5-2-33.7c-0.2-6.4,2.8-11.5,7.3-16c2.8-2.8,5.1-6,7.6-9.1c-0.3-0.6-0.7-1.1-1-1.7c-3.8,0.6-7.6,1.2-11.9,1.9
	c-0.2-8.2,1.6-15.4,8.2-19.9c4.9-3.2,10.6-5.8,16.3-7c11.9-2.6,19.4-9.4,22.9-20.9c1.3-4.3,2-8.8,2.7-11.8
	c2.1,8.8,4.5,18.8,7.1,28.7c1,3.8-1.2,4.8-3.9,5.9c-7.9,3.1-13.7,8.7-18.7,15.4c-14.3,19.1-22.5,40.8-27.8,63.9
	c-2.4,10.3-2.4,20.6-0.5,30.9l4.9,69.2C876.7,470.2,874.6,473.1,872.6,475.9z M913.1,439.1c-7.3-18.5-16.4-36.6-21.5-55.8
	c-5.5-20.5-1.5-41.4,6.7-61.1c3.3-8,8.9-14.3,17-17.6c2.2-0.9,5.2,0.3,7.9,0.6c-1,2.1-1.5,4.8-3.1,6.1
	c-15.2,12.6-19.9,30.1-23.2,48.4c-3.3,18.5-1,36,9.1,52.2c3.3,5.3,5.9,11,8.2,16.8c1.2,3,1.2,6.5,1.7,9.8
	C915,438.7,914,438.9,913.1,439.1z M936.3,406.3c-0.7-0.2-1.3-0.4-2-0.7c-0.5-5.4-1.2-10.8-1.3-16.1c0-4.3,7.3-10.7,11.4-9.9
	c1.5,0.3,3.8,3.3,3.5,4.6C946,392.5,941.2,399.4,936.3,406.3z M955,368.4c-1.2,2.6-2.8,2.9-5.6,1.4c-14.4-7.8-24.4-4.5-29.7,10.9
	c-2.5,7.1-2.3,15.2-3.1,22.8c-0.2,1.8,0.2,3.7,0.3,6.2c-8.4-10.8-6.7-34.8,3.4-42.3c4.2-3.1,10.4-4,15.8-5.2
	c7.4-1.6,14.9-2.6,23.6-4.1C957.9,361.8,956.5,365.1,955,368.4z M949.6,348c-17.5-3.5-27.6,6.6-36.9,18.8c-0.5,0.6-0.9,1.2-2.2,2.9
	c3.3-26.3,24-32.9,48.9-25.7c0.2,0.5,0.3,1.1,0.5,1.6C956.4,346.5,952.7,348.6,949.6,348z M964.8,328.5c-4.2,4.7-10.4,3.1-16,1.4
	c-3.7-1.2-5.7-3.3-3.8-7.4c0.2-0.5,0.3-1.1,0.5-1.7c3.5-12.4,1.3-15.3-12.3-15.9c-0.7-2.4-1.4-4.6-2.3-7.5
	c10,1.5,19.6,2.9,25.4,12.2c2.2,3.5,4.7,3.8,7.8,2.1c2-1.1,3.9-2.4,6.8-4.3C971.1,315.7,969.7,323,964.8,328.5z M975,293.2
	c-4.6-2-8.2-4-12-5c-7.6-2-15.4-3.5-23.1-5.3c-2.1-0.5-5.2-0.9-5.8-2.3c-7.6-17.4-10.6-35.2-3.9-53.9c0.2,13.4,2.2,26.2,11,36.8
	c9,10.9,19.9,16.5,35.4,12.3C976,281.7,975.5,287.1,975,293.2z M976.1,242.3c-0.2,1-0.5,1.9-0.9,2.9c-1.2,2.7-3.2,5.2-4.7,7.9
	c0,0.2-0.1,0.3-0.1,0.5l0,0v0c0,0-0.1-0.1-0.1-0.1c-9,7.8-17.4,8-23.7,0.7c-1.4-1.7-2.8-3.8-4-6.2c-4.4-9.2-5-19-4-30.1
	c8.9,6.1,17.5,11.2,25.2,17.5c2.9,2.4,3.7,7.4,5.2,11.3c0.8,2.1,0.9,4.4,1.4,6.6c0,0,0,0,0,0c0.1-0.1,0.1-0.2,0.2-0.3c0,0,0,0,0,0
	c0,0,0,0,0,0c0.2-0.6,0.3-1.3,0.5-1.9c0.4-1.4,0.7-2.7,1-4.1c0.6-3.2,1-6.4,1-9.5c0.2-11.4-3.4-22.2-11.4-31.8
	c-4.8-5.8-11.6-10-17.3-15.8c5,2.8,10.6,4.9,15,8.5C973.2,209.7,979.3,224.5,976.1,242.3z"/>
</svg>
