<?xml version="1.0" encoding="utf-8"?>
<!-- Generator: Adobe Illustrator 27.3.1, SVG Export Plug-In . SVG Version: 6.00 Build 0)  -->
<svg version="1.1" id="Layer_1" xmlns="http://www.w3.org/2000/svg" xmlns:xlink="http://www.w3.org/1999/xlink" x="0px" y="0px"
	 viewBox="0 0 1200 800" enable-background="new 0 0 1200 800" xml:space="preserve">
<g>
	<path fill="#FFDE17" d="M971.7,205.8c-8.4-50.4-29.6-94.3-68-128.6c-43.5-38.9-94.5-54.8-152.2-44.7
		C692.4,42.9,644,72.4,605.5,118.3c-2.5,3-5,6.1-7.3,9c-0.8-0.3-1.2-0.3-1.4-0.6c-0.9-1-1.8-2-2.6-3c-13.4-17.4-29-32.6-46.6-45.7
		c-32.7-24.4-69-40.4-109.6-45.4c-38.6-4.8-75.1,2.8-109,21.6c-36.7,20.4-64,50.1-81.7,87.9c-22.9,48.8-26.5,100.3-18.7,153.1
		c2.8,19.3,6.3,42.1,12.7,60.3c7,20,18.8,38,28.8,56.6c12.3,22.9,26.1,44.9,41.1,66.1c1,1.4,1.9,2.6,2.9,3.8
		c10.9,14,50.6,64,84.9,99.5c0.1,0.2,0.3,0.3,0.4,0.5c6.1,6.3,11.7,13.9,19,18.4c3,2.7,5.8,5.1,8.5,7.3c6.4,5.1,12.6,10.6,18.6,16.2
		c29.6,27.8,105.4,99.4,138.1,132c3.7,4,7.3,8.2,10.9,12.4c1.1,1.3,2.1,2,3.1,2.2c0,0,0,0,0,0l0,0c1.3,0.2,2.5-0.6,4-2.3
		c6-6.7,12.1-13.5,18.3-20.1L748,624.8l-0.4-0.6c0.8-0.6,1.7-1.3,2.4-2c13.3-11.6,26.4-23.5,39.3-35.5c2.9-2.6,5.4-5.6,8.1-8.7l0,0
		l69.6-73.1c1-0.7,2-1.6,2.9-2.8c32.6-41.1,59.4-85.6,79.4-134.2C970.9,315.8,981.1,262.2,971.7,205.8z M928.4,186.6
		c0.9,3.4,1.8,6.8,2.9,10.9c-3.1-1.2-5.3-2.1-8.4-3.3c1.3-2.6,2.6-5.2,3.9-7.8C927.4,186.5,927.9,186.5,928.4,186.6z M936.3,228.5
		c-7.1-7.7-13-3-18.8,1.6c-4.3-8.5-1-24.8,6-31.8C931.3,202,937.8,216.7,936.3,228.5z M906.7,152.8c-0.4-2,0.6-4.3,1-6.4
		c0.8-0.1,1.7-0.3,2.5-0.4c4.7,8.7,9.5,17.4,14.2,26c-5.4,1.7-10.8,1.8-13.2,4.5c-2.6,2.9-2.4,8.3-3.5,13.3c-0.9,0-2.6-0.1-4.3,0
		c-6.4,0.5-13,0.4-19.2,1.7c-3.9,0.8-5.9,0.7-7.1-3.3c-0.5-1.7-1.7-3.2-3.1-5.8c3,0.9,5.1,1.4,7.2,2.1c8.1,2.5,12.1,1.1,17.7-5.1
		C905.7,171.8,908.7,163.2,906.7,152.8z M907.7,207.7c-4.2-1.1-1.1-3.9-0.9-6c0.1-1.1,0.3-2.4,0.8-3.4c0.9-1.5,2.1-2.9,3.1-4.3
		c1.1,1.6,2.2,3.1,2.8,4c-0.3,2.3-0.3,3.5-0.7,4.6C912.2,205.3,911.6,208.7,907.7,207.7z M902.3,240.5c-4.2,2.1-7.6,5.6-11.8,8.8
		c-1.2-8.9-2.5-17.1-3.4-25.3c-0.1-0.8,1.3-2.4,2.2-2.5c6.7-0.5,11.8-3.3,14.6-11.9c2.6,3.8,4.8,6,5.9,8.6
		C912.6,225.3,909.7,236.9,902.3,240.5z M869,381.3c-2.6,0.4-5.3,0.6-7.9,1.2c-2.7,0.7-4.4,0.3-5.1-2.8c-1.4-6.2-5.5-9.9-11.6-11
		c-6.8-1.2-13,0.5-17.7,5.8c-5.2,5.8-3.1,15.4,4.1,19.8c1.5,0.9,3.1,1.7,5.2,2.9c-2.4,4.1-4.6,7.9-7.7,13.1
		c-2.7-7.2-4.2-13.7-7.5-19.2c-3.3-5.5-8.3-9.9-12.5-14.6c7.3-2.5,15-4.8,22.5-7.9c7.8-3.2,15.5-7,22.9-11
		c8.8-4.8,17.8-7.2,27.8-5.7c3.1,0.5,4.7,1.4,3.8,4.7c-2.1,7.5-4.1,15.1-6.4,22.5c-0.4,1.3-1.9,2.2-2.6,3.5c-1,1.9-1.8,3.9-2.4,5.9
		c-0.7,2.2-0.4,5-1.7,6.5c-4.8,5.4-10.2,10.3-15.9,16c-1-2-1.5-2.6-1.5-3.3c-0.4-4.9-0.7-9.8-1.2-14.7c-0.4-4,1.8-5.8,5.1-6.9
		c3.5-1.1,7.1-2.2,10.7-3.2C869.2,382.4,869.1,381.8,869,381.3z M824.6,500.6c-2.7,4.9-7.4,10.3-13.1,15.7l-1.5-7.5
		c0.9-1,1.2-2.6,0.6-5.2c-0.1-0.5,0.5-1.2,0.8-1.8c1.6-3.8,3.2-7.5,4.7-11.3c0.6-1.6,1.1-3.2,1.8-5.2c4.3,3.4,7.9,6.2,11.9,9.4
		c-1.4,2-2.7,4-4,6L824.6,500.6z M763.1,552.5c-1-0.5-2.1-0.4-3.6,1.1c-0.6,0.6-1.8,0.5-2.7,0.9c-3,1.2-5.9,2.6-8.9,3.5
		c-1.5,0.4-3.5,0.3-4.9-0.4c-1.2-0.6-1.7-2.4-2.5-3.6c-6.6-10.2-14.8-13.8-26.9-11.4c-1.2,0.2-2.5,0.9-3.3,1.8
		c-3.5,3.5-8.3,3.8-12.9,0.5c17.4-15.5,35.8-24.6,58.6-9.6c-0.7-1.9-1.2-3.2-2.2-4c-6.6-5.9-13.5-10.7-23.2-8.4
		c-2.4,0.6-5.2-0.7-7.9-1.1c1-2.5,1.9-5.1,3.1-7.5c1.3-2.7,3.5-5,4.1-7.8c2-8.9,3.3-18,4.9-27c0.3-1.7,0.6-3.4,0.8-5.1
		c0.4-0.2,0.8-0.5,1.2-0.7c10.9,13.6,30.2,14.9,40.6,29.1c0.3,0.4,0.8,0.7,1.2,0.8c3.9,1.5,3.7,4.3,2.6,8c-1.1-0.9-1.9-1.5-2.6-2.1
		c-6.8-5.8-13.2-12.2-22.7-13.8c-4.7-0.8-6.5,0.2-5.9,4.9c0.3,2.2,1.2,4.8,2.7,6.2c3.4,3.1,7.5,5.4,11.2,8.2c1.3,1,2.3,2.3,3.4,3.5
		c0,0,0,0,0,0c0,0,0,0,0-0.1l0,0c0,0,0,0,0,0c-1.7,4.3-3.2,8.6-5,12.8c1.8-4.2,3.3-8.5,5-12.8l15.1,20.7
		C773,546.3,764.9,551.4,763.1,552.5z M661.1,662.8l-10.6,11.2c-0.4-0.3-0.8-0.5-1.2-0.8c1.6-5,3.1-10,4.7-15
		c1.9-5.8,2.4-13.5,6.4-16.9c3.9-3.3,11.5-2.4,17.4-3.2c2.1-0.3,4.2-0.4,6.3-0.6c0.2,0.4,0.5,0.8,0.7,1.2
		c-7.2,7.6-14.4,15.1-21.6,22.7L661.1,662.8z M611.8,578.8c0.7-1.5,0.6-3.3,1-6.1c-8.7,5.6-11.6,13.9-15.8,22.7
		c-4.3-8.1-6.1-16.6-14.2-21.1c-2.3,5.4,4.2,11.1-0.8,15.8c-3.9,3.7-8.1,7-12.6,10.8c-2-3.5-3.2-5.6-4.5-7.7c-2-3.1-5.1-5-8.5-3.5
		c-2.1,1-3.4,3.9-5,6c-1.6,2.2-2.7,4.6-4.4,6.7c-3,3.5-6.2,6.9-9.4,10.3c-1.4,1.5-2.7,3.1-4.6,4.4c-1.2-7.8-0.9-15.3,1.3-22.6
		c1.5-5.1,3.7-10,6.2-14.7c4.5-8.5,11.2-8.6,16.4-0.7c0.9,1.5,2.1,2.8,3.3,4.5c4.4-8.6,0.8-13.8-11.5-17.7
		c1.6-6.2,8.8-10.5,15.7-7.6c7.8,3.2,15.1,7.7,22,12.4c3.8,2.6,9.5,5.1,7.5,11.9c-0.1,0.5,2.2,2.1,3.5,2.3c0.6,0.1,2.4-2.2,2.2-3
		c-0.6-2.1-1.9-3.9-3-5.8c-0.8-1.4-2.3-2.6-2.4-4c0-1.3,1.4-2.6,2.2-3.9c1.2,0.9,2.7,1.7,3.5,2.9c0.6,1,0.4,2.5,0.6,4.8
		c2-1.4,3.4-2.3,4.7-3.3c6-4.2,11.7-8.8,18-12.5c6-3.5,12.6-4.4,18.9-0.2c1.5,1,3.2,1.7,4.5,3.5c-8.3,5-18.5,7.2-13.5,20.6
		c1.7-2.3,3.1-4.1,4.4-6c4.3-6.6,10.1-7.3,14.3-1c7.6,11.3,10.7,23.9,10,37.5c0,0.6-0.3,1.3-0.6,1.9c-0.1,0.3-0.5,0.4-1.3,0.9
		c-1.2-1.4-2.4-2.8-3.7-4.3c-2.2-2.7-4.2-5.7-6.8-8c-3.7-3.3-7.2-6.2-8.2-11.7c-1-5.1-7-6-10.7-2.3c-0.8,0.8-1.5,1.8-2.1,2.8
		c-4.4,6.6-5.8,6.6-12.2,1.4C611.2,590.7,608.5,585.9,611.8,578.8z M615.4,600.8c-4.9,2.3-9,4.2-13,6.1c-0.5-0.3-1-0.7-1.4-1
		c2-4.4,3.9-8.9,6.6-14.9C610.7,595,612.8,597.6,615.4,600.8z M592.9,605.7c-0.4,0.4-0.8,0.8-1.2,1.2c-4.1-1.9-8.2-3.7-13.2-6
		c2.8-3.3,5-5.9,8.3-9.8C589.4,597.1,591.1,601.4,592.9,605.7z M525.4,602.8c0,2.8,0.4,5.7,0.2,8.5c-0.1,2-0.8,4-1.3,6
		c-2.6-0.7-6.6-0.5-7.7-2.2c-2.8-4.2-4.6-9.1-6.1-14c-0.3-0.9,2.4-3.4,4.1-4.1c6.6-3,9.7-8.3,11-15.1c1-5.2-0.3-7.2-5.4-6.9
		c-5.1,0.3-7.9-0.5-7.9-6.7c0-5-4.5-7.3-9.5-5.5c-5.1,1.9-9.9,4.7-15.8,3.7c-0.9-0.2-3,1.8-3.2,3.1c-0.8,3.7-1.9,7.7-1.2,11.3
		c0.9,4.2-0.5,6.1-3.8,7.4c-4.3,1.6-4.5,4.4-1.9,7.3c2.8,3.1,6.1,6,9.5,8.5c4.4,3.2,9.2,5.9,13.8,9c1.1,0.8,1.8,2.2,3.1,3.9
		c-4.2,1.2-7.4,2.4-10.6,3c-1.2,0.2-3-0.4-4-1.3c-10.7-10-21.3-20.1-31.9-30.2c-1-1-1.7-2.5-2-3.9c-1.6-7.1-3-14.2-4.6-21.8
		c1.2-0.2,2.3-0.7,3.3-0.5c10.3,2.5,19.8-0.6,29.1-4.3c2-0.8,4-1.7,6-2.5c13.6-5.6,25.7-1.3,37,6.2c1.3,0.8,2,3.2,2.1,4.9
		c0.3,3.3-0.4,6.7,0,10c0.3,2.8,1.7,5.4,2.2,8.2c0.3,1.5,0.3,3.9-0.6,4.6C524.6,592.8,525.3,597.9,525.4,602.8z M508.2,583.3
		c-0.9,7.2-1.4,13-2.4,18.7c-0.3,1.7-1.9,3.8-3.4,4.4c-1,0.4-3.8-1-4.4-2.2c-3-6.2-5.6-12.6-7.9-19.2c-0.4-1.1,1.2-3.4,2.5-4.4
		c4.3-3.2,9.2-2.4,13.8-0.5C507.5,580.7,508,583,508.2,583.3z M330.7,386.5c2.4,0.8,5.1,0.8,7.1,2.2c1.8,1.2,3.8,3.7,3.7,5.6
		c-0.1,4.9-1.3,9.7-2.2,14.9c-6.3-3.5-13.4-8.2-14.3-14.4c-1-7.3-5.7-11.9-7.6-18.2c-1.6-5.4-3-10.9-4.6-16.3
		c-1.1-3.6,0.4-5.8,4-5.6c6.2,0.3,12.8,0.1,18.5,2.1c7.3,2.5,13.8,7.1,21.6,11.2c-3.9,1.2-7.2,1.5-9.5,3.1c-2.9,2-6,4.6-7.3,7.7
		c-1.8,4.3-3.9,5.7-8.3,4.5c-1.8-0.5-3.7-0.3-5.5-0.5c-0.2,0.5-0.3,1-0.5,1.5C327.5,385,329.1,386,330.7,386.5z M374,361.3
		c8.6,3.1,17.1,2.6,23.6-4.4c4.8-5.1,9.2-5.3,15-2.6c8.5,4,15.9,9.2,22.7,16.5c-1.3,0.5-1.9,1-2.4,1c-23.1,0-45.9-2.2-67.8-10.4
		c-10.1-3.8-15.9-10.8-17.1-21.3c-1.3-11.3,3.2-20.2,12.6-26.4c1.5-1,4.5-1.3,5.8-0.5c14.2,9.1,28.1,18.5,42.1,27.8
		c1.1,0.7,2,1.6,3,2.5c-0.4,0.8-0.8,1.5-1.3,2.3c-6.3-2.5-12.6-5.1-19-7.5c-4-1.5-8.1-3.4-12.2-3.8c-7.1-0.6-12.8,4.3-14.1,10.9
		C363.6,352.2,367.1,358.8,374,361.3z M478.4,417.8c-1.3,2.2-1.9,3.8-2.9,5.1c-6.8,8.8-11.7,18.6-14,29.6c-0.8,3.9-2.9,5.4-6.7,6.2
		c-9.4,1.9-18.8,3.3-28.2,0.9c-10.4-2.6-12.6-7.8-6.8-16.7c4.1-6.3,8.8-12.1,13.3-18.1c0.6-0.8,1.6-1.4,2.7-2.3
		c0.4,14.7,4.7,21,13.5,20.2c8.8-0.8,13.2-7.3,12.7-15.9c-0.6-9.2-9.6-11.8-21.7-8.8c5.1-9.9,10-19.5,15.5-30.2
		c5.9,8.7,11.3,16.5,16.8,24.6c-2.7,1-4.7,1.7-6.6,2.5C468.5,420.6,469.2,420.7,478.4,417.8z M475,336.2c-2.9,0.8-6.3,0.8-9.3,0
		c-1.8-0.4-3.3-2.8-4.4-4.5c-3.4-5.5-6.7-11-9.8-16.7c-0.8-1.5-1.1-3.7-0.6-5.3c1.5-4.7,3.6-9.2,5.8-14.7
		c9.2,7.8,17.7,14.9,26.5,22.3c-1.5,1.3-3.3,2.2-4,3.6c-1.3,2.8-2.6,5.9-2.8,8.9C476.4,332.2,478.3,335.2,475,336.2z M433.7,233.2
		c-2.4-2.7-5-5.3-7.5-7.9c10.2-9.6,30-18.1,47-7.8c-3.4,5.1-6.8,9.8-9.8,14.8c-2.1,3.3-1,5,3.6,4.8c9.2-0.5,17,2.6,23.6,8.9
		c3.7,3.5,4.4,8.7,1.3,12.5c-0.6,0.8-3.8,0.6-4.7-0.2c-2.4-2.5-4.1-5.7-6.3-8.4c-5.4-6.6-11.7-11.4-21-9.8
		c-10.5,1.8-15.1,11.7-9.5,20.8c3.9,6.3,8.9,11.2,16.5,12.9c0.9,0.2,1.8,0.7,1.8,0.7c-0.3,4.2-0.8,7.9-0.8,11.6
		c0,2.7-1.4,3.5-3.4,2.5c-2.3-1.2-4.6-2.8-6.1-4.9c-2-2.8-3.8-6-4.7-9.3c-2.7-9.4-8.8-15.9-16.6-21.2c-1.7-1.2-3.6-2.2-5.1-3.2
		c0.1-0.7,0.1-1,0.2-1C441.5,242,441.5,242,433.7,233.2z M414.8,189.7c-0.5-0.2-1-0.4-1.6-0.6c1.5-4.7,2.7-9.5,4.5-14
		c1-2.5,3.3-4.5,4.8-6.9c2.3-3.7,3.8-7.8,10-6.2c3.5,0.9,6.7-1.9,7-6.2c0.3-3.6-1.4-6.3-5.2-6.7c-3.8-0.4-8,0.8-7.8,5
		c0.2,8-7.4,9.9-10.1,16.1c-3.2-7.5,1.3-20.2,8-25.1c11-8,32.6-7.1,42.8,1.8c3.3,2.8,3.1,4.8-0.5,6.2c-7.5,2.9-7.5,2.9-7.9,11.4
		c-3-0.8-5.5-1.5-8.1-2.1c-11-2.2-20.5,5.7-19.9,16.9c0.2,3.8,0.1,6.4-4.6,7c-1.3,0.2-3,2.6-3.2,4.3c-0.8,4.9,6.2,11.5,10.9,10.4
		c1.7-0.4,3.3-2.3,4.3-4c0.8-1.3,0.6-3.2,0.9-5.4c10.7,2.4,19.1,0,23.4-11.7c6.1,5.8,11.3,11,11.8,19.1c0.3,4.7-3.5,8-8,8.5
		c-9.1,0.8-18.1,2-27.1,3c-0.6,0.1-1.3,0-3.3,0c3.3-3.4,5.8-6.1,8.4-8.8c-3.3-0.9-12.8,1.6-17.3,5.4c-4.7,4.1-8.7,9-13.9,14.5
		c0.2-12.7,3.3-23.4,7.4-34.5C418.8,187.8,416.8,188.7,414.8,189.7z M471.2,156.4c-0.5-1.3-0.1-2.9-0.1-4.4c1.6,0.3,3.8,0,4.8,0.9
		c4.1,3.8,7.9,8.1,11.9,12.1c1.2,1.2,2.5,2.3,4.4,3c-3.7-10-10.9-17.8-17.5-26.2c7.8-1.1,11.2,0.9,14.4,6.7c1.8,3.2,4.4,6.3,7.2,8.6
		c2.4,1.9,3.1,3.7,2.4,6.4c-1.8,6.8-3.5,13.5-5.3,20.3c-0.2,0.9-0.7,2.1-1.4,2.5c-3.2,2.1-6.6,4-9.7,5.8c-6.7-7.4-14-15.4-21.5-23.7
		c3.6-1.3,5.9-1.7,7.8-2.9C472,163.4,472.8,160.3,471.2,156.4z M470.8,130.9c4.6-3.1,8.5-5.9,12.5-8.4c1.3-0.8,3.4-1.8,4.6-1.3
		c2.6,1,5.3,2.5,7.1,4.6c0.6,0.7-1,3.9-2.3,5.5c-1.6,2-4.2,5.3-5.9,5C481.6,135.5,475.6,135.8,470.8,130.9z M559.6,213.4
		c-0.7,0.4-1.5,0.9-2.1,1.4c-1.4,1.1-2.7,2.4-3.9,3.6c3.6,5.4,14.2,9.8,19.7,8c-0.2-1.1-0.9-2.3-0.6-3.2c0.8-2.6,1.2-6.2,3.1-7.4
		c1.6-1,5.4,0.3,7.4,1.7c1.8,1.3,2.5,4.2,3.6,6.4c1.1,2.2,1.6,5,3.2,6.7c5.8,6,4.7,13.2,4.1,20.3c-0.1,1.3-1.6,2.7-2.8,3.7
		c-3.6,3.1-7.7,5.8-11.1,9.1c-3.1,3.1-6.3,3.7-9.1,0.6c-3.6-3.9-6.6-8.3-9.4-12.8c-0.6-0.9,0.3-3.1,1-4.4c1.8-3.1,2.9-6.2-0.1-9.1
		c-2.9-2.8-6.4-3.9-9.9-1.1c-2.9,2.3-4.6,0.9-6.8-1.1c-3.8-3.4-8-6.4-11.8-9.8c-1.8-1.6-3.2-3.8-4.6-5.8c-5.7-8.4-14.4-8.8-20.7-1
		c-1.4,1.7-2.9,3.2-4.1,5c-0.6,1-0.8,2.4-0.9,3.6c-0.1,2,0.4,4-0.1,5.9c-1.1,4.3-0.4,5.2,4.3,5.1c7.5-0.2,14.9-0.2,22.4,0
		c1.9,0,3.7,1,5.4,1.5c-9.7,3.2-18.9,6.4-28.2,9.3c-5.1,1.6-7,0.4-7.9-5c-0.6-3.4-0.7-7-1.4-10.4c-0.7-3.2-1.5-6.5-2.9-9.5
		c-3.1-6.5-8.4-9.7-15.9-8.1c0.2-1,0.1-1.5,0.3-1.6c19.1-9.4,37.6-20.1,59.2-23.3c13.1-1.9,24.9,0.5,35.2,8.9c2,1.6,3.5,3.8,5.5,6.1
		c-1.6,1-2.5,1.7-3.5,2.1c-4.1,1.6-7.2,4.1-8.6,8.5c-0.2,0.6-0.7,1-1.2,1.5c-0.3,0.2-0.6,0.4-0.9,0.7c-0.3,0.2-0.6,0.4-0.8,0.7
		c-0.2-0.3-0.4-0.6-0.6-0.9c-0.6-0.9-1.2-1.7-1.5-2.6c-0.3-0.7-0.5-1.5-0.6-2.2s-0.3-1.5-0.5-2.3v0
		C561.1,212.5,560.4,213,559.6,213.4z M642.4,219.9c-2.7-2.9-4.7-5.3-6.8-7.4c-0.6-0.6-1.9-1-2.6-0.7c-0.6,0.3-1,1.5-1.1,2.4
		c-0.1,0.8,0.6,1.8,0.4,2.4c-0.6,1.4-1.5,2.6-2.3,3.8c-1-0.8-2.1-1.5-2.9-2.5c-2.4-2.7-4.3-5.9-7-8c-4-3.1-4.6-4.9-0.6-8
		c9.1-7.2,19.1-12,31.2-11.1c17.9,1.3,33.9,8,49.6,16c5.3,2.7,10.3,5.8,15.5,8.7c0,0,0,0,0,0c0.1,0,0.1,0,0.2,0c0,0,0,0,0,0
		c0,0,0.1,0,0.1,0c0,0,0,0,0,0c4.4-0.7,9-0.9,13.2-2.2c11-3.4,21.1-0.5,30.9,4.2c3.3,1.6,6.2,3.8,9.9,6c-3.9,4-7.4,7.4-10.9,11
		c-5.3,5.4-5,7.5,1.4,11.5c1.2,0.7,2.4,1.6,3.4,2.3c-4.5,3.6-9.3,6.6-12.9,10.6c-3.7,4.3-6.3,9.6-9.4,14.4
		c-2.9,4.6-5.6,9.4-8.8,13.8c-0.5,0.7-1.6,1-2.8,1.3c-0.7,0.2-1.4,0.3-2,0.5h0c-0.2-0.7-0.3-1.5-0.5-2.2c-0.2-0.7-0.3-1.5-0.4-2.2
		c-0.5-3.3-1-6.7-1.6-10.6c0.2,0,1.3-0.2,2.2-0.7c4.5-2.4,9.5-4.2,13.2-7.5c7.2-6.4,8.2-15.4,3.2-21.4c-4.9-5.9-16.4-6.9-23.4-1.7
		c-2.5,1.9-4.6,4.3-6.8,6.6c-1.2,1.3-2,3.1-3.2,4.4c-1.9,2.1-1.9,6.9-6.4,5.4c-3-1.1-3.5-9.3-0.9-12.3c5.5-6.3,12.3-10,20.9-10
		c2.7,0,5.4-0.8,8.1-1.2c-1.1-2.5-2.1-5-3.3-7.5c-2.8-5.8-6.4-10.9-13.3-12.4c-0.1,0-0.1,0-0.2,0c0,0,0,0-0.1,0
		c-6.1,0.5-10.4,1.8-13.4,4.5c-2.6,2.4-4.2,5.8-5.3,10.5c-0.2,0.8-0.4,1.7-0.5,2.6c-0.6,3.6-1,7.3-1.4,10.9
		c-0.7,5.9-2.1,6.9-7.9,5.1c-3.5-1.1-6.7-2.9-10.3-3.9c-5.9-1.6-11.8-2.8-18.7-4.4c11.4-5.8,22.7-2.6,34.9-1.6
		c-1.1-2.7-1.7-4.2-2.2-5.6c-0.4-1-1-2.1-1.1-3.2c-0.1-2,1.1-4.6,0.2-5.8c-2.5-3.6-5.3-7.5-9-9.6c-6.1-3.4-12.3-0.7-16.4,6.1
		c-2.1,3.5-4.5,6.1-8.4,7.9c-3.1,1.5-5.5,4.7-8,7.4c-1.9,2.1-3.3,2.7-5.8,0.8c-4-3-8.1-2.7-10.7,0.4c-2.9,3.4-1.7,6.6,0.9,9.4
		c2.1,2.3,2,4.3,0.3,6.6c-2.3,3-4.3,6.4-6.9,9.2c-4.1,4.4-7.7,4-11.9-0.2c-2.2-2.2-4.5-4.7-7.2-6c-4.4-2.1-5.9-5.1-5.7-9.8
		c0.3-5.9,0.5-11.4,4.8-16.3c1.9-2.2,2.4-5.8,3.5-8.7c1.9-5.2,4.9-7.5,8.6-6.5c3.5,0.9,4.9,4.7,3.7,10c-0.1,0.6-0.2,1.3-0.4,2.5
		C630,228.8,635.4,222.3,642.4,219.9z M699.4,156c2.4-1.7,4.7-4.1,5.7-6.7c2.6-7,7.8-8.9,15.8-8.9c-4,5.1-7.5,9.2-10.7,13.6
		c-3.2,4.3-6,8.9-9,13.4c0.5,0.4,1,0.8,1.5,1.3c1.7-1.6,3.4-3.1,5-4.8c3.8-4,7.4-8.1,11.4-11.9c0.9-0.8,3-0.9,4.3-0.5
		c0.7,0.2,1.5,2.2,1.3,3.2c-1.6,9.3-1.2,10.1,8.6,12.8c-0.9,1.8-1.4,3.8-2.7,5c-6.3,6.3-12.8,12.3-19.5,18.8
		c-3.3-3.6-9.4-6-10.4-13.2c-0.7-4.9-2.6-9.6-4-14.4C695.8,160.5,696.3,158.1,699.4,156z M698.6,126.6c4.6-7.4,8.3-8,15.1-2.9
		c2.4,1.8,5.1,3,7.6,4.6c0.9,0.6,1.9,1.8,1.8,2.6c-0.1,0.8-1.4,1.9-2.3,2.1c-4.1,1.2-8.3,2.3-12.6,3c-1.1,0.2-2.9-0.7-3.7-1.7
		C702.4,132,700.6,129.2,698.6,126.6z M781.5,188.5c-2.1-0.6-4.2-1.2-7.4-2.1c4.2,11.4,8.6,22.1,8.2,34.2
		c-8.1-11.7-18.6-19.4-33.7-21.7c3.8,3.6,6.9,6.5,10.1,9.4c-0.3,0.4-0.5,0.8-0.8,1.2c-1.2-0.1-2.4-0.3-3.6-0.4
		c-8.2-0.9-16.5-2.2-24.7-2.7c-6.6-0.4-10.3-4.2-9.1-10.6c1.3-6.9,5.8-11.7,11.1-17.1c4.4,12.4,13.3,14.3,24.1,11.8
		c0.4,1.2,0.7,2,0.8,2.8c0.7,4.1,1.7,7.7,7.2,6.6c5.6-1.1,10-6.4,8.6-11c-0.5-1.7-2.9-3.5-4.8-4c-2.8-0.8-4.2-1.7-3.4-4.7
		c3.1-11.5-10.3-21.3-19.7-18.8c-2.4,0.6-4.9,0.9-8.1,1.5c0.6-6.4-2-9.9-8.4-10.8c-3.2-0.5-2.7-4.5,1-6.8c10.1-6.1,21-8.5,32.6-5.3
		c13.3,3.6,17.7,9.3,19.7,25.4c0.1,1-0.3,2.1-0.6,4c-3.6-3.4-6.7-6.4-9.7-9.3c-0.5,0.4-1,0.9-1.5,1.3
		C772.5,170.6,783.5,176.3,781.5,188.5z M782.9,244.1c-0.5,0.6-1,1.3-1.5,1.9c-4.8-2.5-9.6-4.8-14.3-7.5c-0.4-0.2-0.1-2.5,0.5-3.4
		c1.1-1.7,2.7-3.2,4.8-5.6C776.3,235,779.6,239.6,782.9,244.1z M714.2,319c-0.9-0.6-1.7-1.5-2.6-2.3c8.9-7.6,17.6-14.9,27-22.9
		c2,5.6,3.9,10.8,5.6,16.1c0.3,1,0,2.4-0.5,3.4c-4,7.6-7.9,15.4-13.8,21.9c-2.8,3.1-5.9,2.4-9.1,1.2c-3-1.2-2.8-3.6-2.1-6.3
		C720,325.2,718.5,321.5,714.2,319z M722.8,411.9c5.8-8.6,11.2-16.7,17.1-25.6c1.2,2.1,2.2,3.5,2.9,5c3.6,7.1,6.6,14.6,11,21.3
		c4.8,7.3,11,13.6,16.4,20.6c3,3.9,5.8,8.2,8,12.6c2.5,5.1,1.2,8.4-3.9,11.1c-6.7,3.7-14.1,3.3-21.4,3c-12.1-0.4-20.8-3.7-22.8-18
		c-0.9-6.6-6.3-12.6-9.9-18.8c-1-1.8-2.5-3.4-3.6-5.8c4.9,0.7,10,3,13.4-3.4C727.7,413.4,725.5,412.7,722.8,411.9z M830.3,343.3
		c-1.8-7.3-9-11.3-17.3-9.3c-2.7,0.7-5.7,1.5-7.7,3.2c-6.6,5.7-15,5.4-23.4,6.6c2.3-2.2,4.4-4.7,6.9-6.4c12.9-8.8,26-17.5,39.2-25.8
		c1.7-1.1,5.3-0.9,7.2,0.2c9.4,5,13.9,13.3,13.7,23.8c-0.1,10.7-4.9,18.9-14.9,23.4c-16.9,7.7-35.1,10.1-53.4,11.4
		c-6.9,0.5-13.9,0.6-20.8,0.9c-0.2-0.5-0.3-1-0.5-1.5c8.4-8.5,17.7-16,29.6-19c2.2-0.6,5.7,1.4,7.7,3.1c6.5,5.7,13.6,8.2,22.1,6.2
		C827,358.3,832.2,350.9,830.3,343.3z M842.8,146.4c13.1,3.6,16,6.5,14.8,14.8c-3.7-2.8-7.2-5.3-10.8-7.9c1.4,2.8,0.9,4.8-2.6,5.3
		c-5.2,0.8-10.1,2.2-12.4,7.8c-0.3,0.7-2.7,1.2-3.8,0.8c-1.9-0.6-3.8-1.6-5.1-3c-3.8-4.2-8-3.5-12.8-2.2c-4.4,1.2-4.3,3.2-2.5,6.5
		c2.7,4.8,6.1,5.9,13.9,4.4c4.9-1,4.9-1,7.6,2.2c-1.9,0.6-3.5,1.1-5.1,1.7c-5.4,2.1-11,3.8-16,6.7c-8.4,4.9-9.2,11.6-2.8,19
		c1.7,2,3.8,3.6,5.8,5.4c-6,1.9-11.7,3.7-18,5.6c-0.9-7.9-1.2-16.5,1.1-24.8c2.9-10.3,6.5-20.6,11-30.4c4.5-9.9,18.4-17,28.8-14.7
		c4.4,1,8,5.5,11.9,8.5C844.9,150.4,843.9,148.5,842.8,146.4z M840.5,139c0-0.6,0-1.2,0-1.8c2.9-0.7,5.9-1.7,8.9-2.2
		c2.7-0.4,4.6,0.5,4.2,3.8c-0.4,3.1-2.2,4.7-5.1,3.9C845.7,141.9,843.1,140.3,840.5,139z M858.3,168c-1,5.8-0.6,6.2,5.6,8.4
		c1.5,0.5,2.6,2.2,4.5,3.9c-6.1,0.5-10.9,0.9-15.7,1.3c2.7-12.6-3.2-17.6-12.3-17.6c2.8-3.5,7.5-4,12.2-1.3c2,1.1,3.9,3.7,6.3,0.5
		c0.1-0.2,0.6-0.2,0.9-0.1c2.3,0.4,4.6,1.2,6.8,1.1c2.2,0,4.4-0.9,6.5-1.4c0.2,0.8,0.4,1.5,0.6,2.3C868.7,166,863.6,166.9,858.3,168
		z M887.1,166.5c-3.8,4.4-7.5,7.7-13.4,7.2C873.8,167.1,877.8,164.9,887.1,166.5z M873.9,198.2c-1.7,8.9-1.7,8.9-10.1,10.4
		c-3.8,0.7-7.5,1.5-11.2,2.3c-3.5,0.8-4.3-1.2-3.5-3.9c1.1-4.2,4-6.3,8.3-6.8C862.8,199.6,868.2,198.9,873.9,198.2z M836.7,190.3
		c1.4-1.6,4.2-2,6.4-3c0.5,2,1.6,4.1,1.5,6.1c-0.4,7.6-1.2,15.2-1.8,23.3C833.2,211.5,830.1,197.6,836.7,190.3z M835.3,169.1
		c3.2,5.6,6.1,10.6,8.9,15.5c-2.7,1-6.5-0.9-9.3-5.3C832.7,175.6,833,172,835.3,169.1z M828,209.8c-1.3-0.8-2.5-1.6-3.7-2.5
		c-3.8-2.6-7.8-4.9-11.2-8c-1.6-1.5-3-4.5-2.8-6.5c1-8.3,11.5-14.2,21.2-11.6C827.7,190.4,826,199.6,828,209.8z M824.2,217.5
		c10.7,3.3,19.3,8.9,24.8,18.7c1.9,3.5,1.6,4.1-1.6,5.4c2.3,3.5,5.3,6.8,6.9,10.6c1.6,3.8,1.8,8.1,2.7,12.2c-0.5,0.3-1,0.6-1.6,0.9
		c-3.1-2-6.2-4.3-9.5-5.9c-1.6-0.8-3.8-0.4-5.7-0.1c-5.1,0.9-9.7,3.9-15.5,1.4c-7.6-3.2-11.4-1.1-15.3,6.2c-1.1,2.1-3.6,3.4-6.4,5.8
		c-0.7-3.7-1.1-6.1-1.5-8.5c-1.4-8-3.1-16-4.2-24.1C794.6,222.4,807,212.3,824.2,217.5z M838.3,299.7c0.5,3.9,3.1,5.4,6.6,5.4
		c4.4,0,6.1-2.6,6.1-6.8c0.1-4.8,2.5-6.7,8.4-7.5c4.7-0.6,6.9,1.8,7.6,5.9c2.6,14.9-0.4,28.8-8.5,41.6c-0.4,0.7-0.6,1.6-1.6,2.1
		c-1.4-21.8-13.1-33.9-34.2-38.6c4.7-4,12.6-5.2,7.7-12.4c-1.1-1.7-5.2-2.8-7.2-2.1c-5.9,2-3.2,6.9-2.4,10.9
		c-7.7,4.4-15.3,8.7-23.9,13.5c4.2-13.3,1.5-28,12.4-37.4c4.9,2.9,8.6,5.5,12.8,7.2c3.3,1.4,6.8,0.1,8.7-3.2
		c2.7-4.5,6.7-5.1,11.2-4.3c6.3,1.2,13,1.9,17.1,8c0.6,0.9,1.1,2,2,3.8c-5.7,2.2-11,4.7-16.6,6.3
		C840.2,293.4,837.7,295.7,838.3,299.7z M802.2,386.5c-4.3-2.6-8.1-4.9-12-7.3C801.8,374.9,803.6,376.2,802.2,386.5z M762.6,385.5
		c0.7,1.1,0.3,2.9,0.3,4.3c0.1,4.6,2.3,7.3,6.3,7.4c3.9,0.1,6.9-1.2,7.7-5.5c0.7-4.1-1.5-7.4-5.8-8.6c-6.4-1.8-6.4-1.8-8.2-4.7
		c9.5,0.7,18.4-2.6,26.8,4.8c7.2,6.3,15.9,10.9,24,16.1c5.3,3.4,8.8,7.9,10.5,14c1.6,5.7-1.2,13.3-7,15.1
		c-11.6,3.6-20.8,10.2-28.1,20.9c-10.6-10.6-16.5-23.7-25.1-34.8c0.4-0.4,0.8-0.9,1.2-1.3c3.1,1.6,6.1,3.4,9.3,4.8
		c5.9,2.6,11.8,5.3,17.9,7.1c4,1.2,8.3,0.7,11.1-3.4c2.9-4.3,3.7-8.9,1.6-13.7c-3.8-8.8-17.9-13.6-26.3-9c-0.9,0.5-1.5,2-1.7,3.2
		c-0.3,1.6,0,3.3-0.2,5c-0.6,4.2-2.1,4.9-5.5,2.3c-10.1-7.4-17.3-17.3-23.6-28.4C752.7,379.7,760.7,382.1,762.6,385.5z M696.6,625.6
		c-1.6,4.1-4.2,5.7-8,6.1c-8.2,0.9-16.4,1.9-24.6,2.8c-0.5-9.8,1.6-12.4,11.6-12.3C682.6,622.4,689.8,622.4,696.6,625.6z
		 M695.1,578.1c9,0,11.5,3.2,8.6,11.7c-1.7,4.9-3.9,9.9-6.8,14.2c-2.9,4.2-6.2,3.2-7.5-2c-0.9-3.5-0.8-7.2-1.2-10.8
		c-0.2-1.5-0.4-3-0.6-4.4C686.4,579.4,687.5,578.1,695.1,578.1z M691.4,614.9c5.8-3.7,11.3-6.9,16.4-10.7c4-2.9,7.7-6.1,11.1-9.6
		c2.4-2.5,1.8-5.2-1.8-6.6c-3-1.2-4.6-2.5-3.7-6.7c0.8-4-0.4-8.6-1.5-12.7c-0.4-1.3-3.3-3.2-4.7-2.9c-4.5,1-8-0.3-11.8-2.4
		c-7.6-4.1-12.5-1.3-13.1,7.2c-0.2,3.5-1.9,4-4.8,4c-9.2,0.3-10,1.6-7.3,10.7c1.5,5.1,4.3,9.1,9.3,11.1c4.6,1.9,5.3,4.9,3.6,9.2
		c-1.8,4.7-3.2,9.6-9,11.1c-3.4,0.9-5.1,0.1-5-3.7c0.2-5.2,0.4-10.3,0.2-15.5c-0.1-2.2-0.5-5.1-2-6.3c-3.7-3.2-3.2-6.6-2-10.4
		c0.8-2.5,1.9-5,2.5-7.6c0.4-1.6,1-3.8,0.2-4.8c-3.7-5.2-0.1-7.2,3.6-9.1c12-6.2,24.3-9.8,37.6-3.6c10.9,5.1,22.2,8.1,35.2,5.2
		c-2.1,8.9-3.7,16.4-5.6,23.7c-0.5,1.8-2,3.5-3.3,4.8c-8.4,8.3-16.9,16.5-25.4,24.8C703.8,620.3,700.6,620.5,691.4,614.9z
		 M682.7,544.7c-3.9,1.7-7.5,4.4-11.2,6.6c-1.5,0.9-3,1.8-5.2,3c0-8.1-0.2-15.1,0.1-22c0.3-6.2,0.5-12-5.8-15.8
		c-0.9-0.6-1.5-3.3-1-4.4c1.7-3.7,4-7.2,5.5-9.7c3.3-1.1,5.9-2.1,8.6-2.8c1.2-0.3,2.9-0.4,3.9,0.2c1.6,1,3,2.6,4.3,4.2
		c2.9,3.5,2.2,5.9-2.1,7.4c-5.1,1.8-8.7,5-9.2,10.6c-0.5,5.9,2.9,10.4,8.9,12.2c5.8,1.7,11.4-0.4,14.3-5.3
		c2.7-4.6,1.6-10.6-2.5-14.6c-4.7-4.5-4-4.1-0.5-9.8c5.6-9.1,13-14,23.7-14.9c5.3-0.5,9.6-5.9,10-10.5c0.5-5.5-4.2-13-9.5-15.4
		c-4.7-2.1-5.9-5.7-3.1-10c0.4-0.7,0.9-1.5,1.6-1.9c3.2-2,6.4-3.8,9.6-5.7c1.4,3,3.4,5.9,4.2,9.1
		C733.8,484.5,721.5,527.8,682.7,544.7z M578.5,535.8c0.4,3.9,1.1,8,2.6,11.6c2.6,6.4,5.8,12.5,8.7,18.7c-0.4,0.4-0.8,0.8-1.2,1.2
		c-7.1-5.9-14.6-11.3-21-17.8c-4-4.1-2.7-6.6,2.3-9.9c0.9-0.6,1.6-2.1,1.7-3.2c0.5-5.9,6.1-14.7,12.6-18.6c-4,7.5-0.5,13.4,2.7,19.1
		c2.9,5.2,6.5,9.9,10.3,15.6c5-7.3,9.5-13.8,14-20.2c0.5,0.2,1.1,0.4,1.6,0.6c-1.3,4.1-2.3,8.3-4.2,12.2c-1.4,2.9-3.7,5.5-5.9,8
		c-5.7,6.3-6.6,6.3-12.2-0.3c-4.6-5.4-8-11.5-8.1-18.9c0-1.5-0.5-3-0.8-4.6l-1.8-0.1C579.3,531.4,578.3,533.7,578.5,535.8z
		 M531.8,411.4c1.3-1.4,2.6-2.8,3.8-4.2c6.8-8.2,15.8-10.7,25.5-6.4c11.1,5,19.3,13.5,25.6,23.7c1.7,2.8,3.1,5.9,4.7,8.8
		c2.3,3.9,2,7.6-0.3,10.5c-7.5-5.7-14.8-11.1-21.8-16.8c-1-0.8-1.3-2.9-1.4-4.4c-0.3-6.2-3.2-10.9-8.8-13.5
		c-6.5-3-12.8-1.8-18.3,2.4c-5,3.8-6.4,9.1-5,15.2c1.4,6,6.4,10.2,13.3,11c5.3,0.6,6.1,1.2,6.9,6.8c-5.4-1.5-10.7-2.4-15.4-4.5
		c-7.8-3.6-15.3-7.9-22.7-12.3c-4.1-2.4-4.9-6.6-3.7-11c2.5-9,9.3-14.1,17.4-19.3c-0.6,5.1-1.2,9.3-1.7,13.5
		C530.7,411,531.2,411.2,531.8,411.4z M587.3,452.4c-0.7,0.6-2.1,1.1-3,0.9c-5.7-1.9-11.7-3.3-16.7-6.3c-2.8-1.6-4-6-6-9.3
		c1.7-2.7,2.5-5.4,4.2-6.2c1.4-0.7,4.5,0.1,5.8,1.3c5.3,5.4,10.3,11.2,15.3,17C587.4,450.3,587.7,452,587.3,452.4z M532.1,448.6
		c9.7,2.1,19.4,4.1,29.2,6.2c6.6,1.4,13.3,2.6,19.8,4.1c2.6,0.6,4.4,2,4,5.3c-0.6,6.7-1.4,7.1-8,5.7c-7.3-1.5-14.7-2.3-22.1-3.5
		c-1.6-0.3-3.4-1.1-4.4-2.3c-4.7-5.6-8.6-5.6-15.1-2.4c-4.2,2.1-9.6,1.9-14.4,2c-0.9,0-2.4-3.6-2.6-5.6c-0.4-3.6,1.3-6.7,5-7.7
		c2.7-0.8,5.6-0.8,8.4-1.1L532.1,448.6z M518.9,472.1c1-0.5,1.8-1.5,2.7-2.2c5.8-4.6,13.5-7.8,20.1,0.8c-3.7,5.6-6.9,10.9-10.6,15.9
		c-0.6,0.9-2.9,1.1-4.3,0.9c-4.2-0.7-7.1,0.7-8.9,4.6c-2.9,6.3-10,7.7-15.2,3.1c-4.1-3.6-3.5-8.4-2.8-13c0.5-4,4.3-3.2,7-4.3
		C511,476.1,514.9,474.1,518.9,472.1z M534.2,494.5c2.3-16.9,17.4-26.9,35.1-22.7c5.9,1.4,11.5,4.1,16.9,6.1
		c3.3-11.2,6.6-22.6,9.9-33.9l2.1,0.1c5.1,10.8,8.4,22.3,9.9,34.7c4.2-2,7.7-3.9,11.4-5.4c14.4-6,28.9-3.1,36.8,7.5
		c3.9,5.2,5.5,11,4.7,17.4c-0.9,7.3-6.4,9.5-12.6,5.7c-3.7-2.2-7.8-3.6-11.7-5.3l-0.8,1.8c2.1,2.8,4.2,5.6,6.4,8.4
		c-0.3,0.5-0.7,1-1,1.6c-8.9-4.9-16.6-13.9-28.5-8.5c1.3-8.2,10.3-16.8,16.9-16.8c1.9,0,3.8,1.8,5.8,2.2c1.4,0.3,3.8,0,4.2-0.8
		c2.5-4.7-1.7-11.1-7-11.1c-4.5,0-7.9,2.2-10.5,5.8c-2.4,3.2-4.9,6.3-7.2,9.6c-1.9,2.7-3.8,2.8-6,0.3c-2.3-2.6-4.8-5-7.3-7.5
		c-2.5-2.6-5.2-2.8-7.9-0.3c-2.2,2-4.4,4.1-6.4,6.3c-4.3,4.7-5,4.8-9-0.4c-2.1-2.8-4-5.8-6.3-8.4c-1.8-1.9-3.9-4.2-6.3-4.6
		c-2.7-0.5-7-0.2-8.5,1.5c-1.8,2-1.9,6-1.7,9.1c0.2,2.8,2.4,2.4,4.5,1c5.1-3.3,8.5-3.4,13,0.7c3.8,3.5,6.9,7.7,10.4,11.6
		c-6.2,0.9-11.6,0.8-16.3,2.6c-4.8,1.8-9,5.5-13.4,8.3c-0.4-0.3-0.8-0.7-1.2-1c2.1-2.9,4.2-5.8,6.3-8.8c-0.2-0.5-0.4-1-0.7-1.5
		c-3.3,1.2-6.9,2.1-10,3.7c-3.4,1.8-6.4,4.6-10.5,1.9C533.7,502.6,533.7,498.6,534.2,494.5z M662.5,396c7.3,4.8,14.3,9.4,17.3,17.9
		c2.1,5.8,0.4,10.7-4.7,14.4c-9.3,6.7-19.3,11.8-30.4,14.6c-1.9,0.5-3.8,0.8-6.1,1.2c-0.4-5.4,2.8-6.1,6.5-6.6
		c9-1.1,13.9-6.2,14-14.6c0.1-8.6-6-14.8-15-15.5c-8.8-0.7-16.3,4.8-16.9,13.3c-0.3,4.6-2.4,6.4-5.9,8.6c-4.7,3-8.7,7.1-12.9,10.9
		c-1.3,1.2-2.3,2.7-3.7,4.3c-2.8-4.3-3.2-7.7-1.1-12.1c5.2-11.2,12.5-20.4,22.4-27.6c10.3-7.5,24.3-10.8,34.3,3
		c0.6,0.9,1.7,1.5,2.6,2.2l1.6-0.3C663.8,405.3,663.2,400.9,662.5,396z M669.6,463.8c-3.9-0.8-7.8-2.3-11.4-4.1
		c-3.9-1.9-8.8-1.1-11.8,3.3c-1.9,2.7-4,3.1-7.1,3.5c-7.5,0.9-15,2.5-22.5,3.9c-2.4,0.5-5.1,1.8-5.9-2c-0.7-3.1-2.6-6.8,2.1-8.5
		c5.6-2,11.3-3.7,17-5.6c0.1,0.4,0.2,0.8,0.3,1.2c4.9-1.3,9.8-3,14.8-3.8c7.9-1.2,15.8-2,23.7-2.5c4.8-0.3,7.3,2.8,8,7.3
		C677.7,461.9,675.1,464.9,669.6,463.8z M691.2,477.9c5.3,0.8,6.1,11.7,1.3,16.4c-5.1,5.1-12.1,4-15.2-2.5c-1.8-3.7-4.6-4.9-8.6-4.4
		c-1.4,0.2-3.6-0.2-4.2-1.1c-3.6-5.1-6.9-10.4-10.3-15.8c7.1-6.9,10.8-7.4,18.8-1.4C678.6,473.4,684.2,476.8,691.2,477.9z
		 M607.5,454.8c0.3-2.2,0-3.8,0.7-4.6c5.2-6.2,10.1-12.7,15.9-18.3c3.7-3.6,7.9-1.3,7.9,3.9c0,4.8-1.4,9.5-6.1,11.7
		C620.1,450.2,614.2,452.2,607.5,454.8z M601.1,513.6c-2.2-0.1-4.4-0.2-6.5,0c-4.1,0.6-5.8-1.2-5.6-4.9h15.5
		C605.3,512,604.6,513.8,601.1,513.6z M536.7,526c0.1-1.7,1.8-3.2,3.5-6.2c4.4,13.1,18.1,17.6,20.5,30.8
		c-12.1,0.8-20.2,7.2-24.7,20.1c-0.7-2.8-1.3-4.2-1.2-5.5C535.3,552.2,535.9,539.1,536.7,526z M560.1,530.7
		c-7.1,2.1-13.6-3.2-13.6-10.5c0-0.9,0.8-2.1,1.5-2.6c5.5-3.1,10.9-6.2,16.6-9c2.9-1.4,6.1-2.3,9.7-3.5c2.4,1.2,5.9,1.8,6.5,3.5
		c0.7,1.9-0.8,5-2.2,7c-2.5,3.5-5.4,6.9-8.7,9.6C567.1,527.5,563.7,529.6,560.1,530.7z M613.1,547.8c3.2-7.3,5-14.8,0.8-22.5
		c-0.8-1.6-1.1-3.4-1.8-5.4c5.6,2.4,10.8,9.9,10.9,15.4c0,2.5-0.1,4.4,3.2,5.2c1.2,0.3,2.4,3.3,2.3,4.9c-0.1,1.8-1.4,3.9-2.8,5.1
		c-6.8,6.2-13.7,12.1-20.6,18.1l-1.2-1.1C606.9,561,610.2,554.5,613.1,547.8z M613.1,511.3c-2.1-3.4,1.6-6.1,8.1-6.7
		c4.2,1.9,8.5,3.6,12.6,5.6c4.2,2,8.3,4.2,12.2,6.7c1.2,0.8,2.4,3.1,2.2,4.5c-1.2,6.8-6.9,10.7-13.6,9
		C624.1,527.9,618.3,519.7,613.1,511.3z M640.9,537.3c4.3-5.4,9.3-10.2,14.4-15.8c0.7,1,2.4,2.3,2.4,3.7c0.8,13.8,1.3,27.5,1.8,41.3
		c0,0.8-0.5,1.5-1.1,3.7c-3.9-12.9-12-19.2-26.1-19.2C635.8,545.4,637.9,541,640.9,537.3z M704.2,473.5c2.4-2.4,4.2-5.4,6.5-8.5
		c4.5,2.5,7.1,6.3,7.5,11.4c0.4,5.2-2.1,8.9-6.2,11.7c-2.8,2-5.3,1.6-7.3-1.2c-0.5-0.7-1-1.4-1.4-2
		C698.8,478.7,698.9,478.9,704.2,473.5z M723.5,442.2c-5.5,3-9.9,5.5-14.6,8.1c-5.9-9.1-15.5-6.8-24.7-6.4
		c-4.2,0.2-8.4-0.6-12.6-0.9c0-0.5-0.1-0.9-0.1-1.4c0.9-0.5,1.9-0.9,2.8-1.4c10.9-5.3,21.9-10.4,32.7-16c3-1.5,4.9-1.7,6.6,1.2
		C716.9,431.3,720.4,437.1,723.5,442.2z M714.2,389.7c0,0.4-0.4,0.8-0.9,1.8c-1.2-2.9-2-5.4-3.1-7.7c-1.8-3.7-3.4-7.6-8.7-7.8
		c-1.3,0-2.5-2.4-3.8-3.5c-3.7-3.2-7.3-6.8-11.4-9.4c-3.5-2.2-5.1-0.7-4.8,3.5c0.5,5.3,3.8,8,8.1,10.5c5.4,3.1,10.5,6.9,15.2,10.9
		c2,1.7,2.8,4.9,4.2,7.3l-0.8,0.4c-3.6-3.4-6.9-7-10.7-10.2c-3.4-2.8-8.5-1.7-10.2,2c-0.5,1.2-0.6,3,0,4.1c0.3,0.6,2.4,0.7,3.5,0.4
		c7.4-1.9,13.3,1.6,15.1,9c0.8,3.4-0.4,6.7-3.5,7.3c-5.4,1-7.5,4.2-8.6,8.9c-0.2,0.9-1.1,1.6-1,1.5c-2.3-2.6-4.8-4.9-6.7-7.6
		c-2.2-3.1-4.7-6.3-1.8-10.4c0.5-0.7,0.5-1.8,0.7-2.6c-0.6-0.3-1-0.6-1.2-0.5c-8.1,4-13.2-1.1-18.2-6.1c-3.6-3.7-6.9-7.7-10.6-11.3
		c-4.6-4.5-10.1-7-16.8-6c-3.5,0.6-4.8,2.1-2.3,5.4c1.4,1.8,2.6,3.8,4.1,6.1c-17.2,8-29,20.8-38.7,36.3c0.3-8.9-4.2-18.2,5.7-25.3
		c5.2-3.7,9-9.3,13.1-14.3c8.7-10.7,18.2-13.6,31.5-9.3c2.5,0.8,5,1.6,8.5,2.8c-1.5-2.6-2.4-4.3-4-7c2.5,0,4-0.1,5.5,0
		c5.6,0.4,8.6-1.7,8.8-6.3c0.2-4.3-3-7.2-8.2-7.3c-1,0-1.9,0-3.6,0c0.7-8.6,3.6-17.2-1.2-25.6c1.1,0.9,2.3,1.8,3.4,2.8
		c8.6,7.8,18.3,13.6,29.1,18C706,357,716.4,369,714.2,389.7z M648.4,308.4c-0.4,0.1-0.8,0.2-1.2,0.3c-1.4-4.2-2.8-8.4-4.3-13
		c-1.6,0.7-2.8,1.3-4.5,2.1c-4-12-6.2-23.8-0.7-35.6c8.6-18.7,37.1-20.5,49.3-3.1c2.2,3.1,4.4,4.3,8.1,4.6c2,0.2,4.7,1.9,5.5,3.7
		c1.9,4.2,4.5,5.3,8.7,4.2c1.9-0.5,4.1,0.1,7.2,0.2c-1.4,1.7-1.9,2.5-2.6,3c-4.8,3.2-9.5,6.7-14.5,9.5c-2,1.1-4.7,0.8-7.2,0.5
		c7.4-4.7,10.5-9.5,8.3-13.8c-1.9-3.8-8.1-5.9-12.3-4.2c-4.2,1.7-4.5,5.4-1.1,15.9c-4.7,0.2-6.3-3.3-6.7-6.5c-0.7-6.1-3.1-9.2-9.6-9
		c-2.4,0-4.9-1.9-7.3-3c-3.8-1.6-7.9-3.2-11,0.6c-3.1,3.9-1.5,7.8,1.4,11.3c0.3,0.4,0.5,0.8,0.7,1.3c-0.5,0-1,0.1-1.5,0.1
		c-1.6,5.1-3.8,10.1-4.6,15.3C647.8,297.9,648.4,303.2,648.4,308.4z M660.4,278.2c4.1-4.2,7-2.5,10-0.4c9.5,7,11.1,12.3,6.1,22.7
		C677.4,288.9,671.5,281.9,660.4,278.2z M664.9,322.8c-0.5-10.4-7.8-19.2-6.9-30.2C671.3,295.5,674.9,310.7,664.9,322.8z
		 M689.7,308.8c1.6,0.2,3,1.6,4.5,2.5c-1.1,1.2-2.1,2.7-3.4,3.5c-4.4,2.8-9,5.4-13.5,8.1c-0.9,0.5-1.9,1-3.1,1.5
		C674.3,315.8,682.1,308,689.7,308.8z M691.4,296.5c-2.6,0.7-4.9,2.9-7.3,4.4c-0.4-0.6-0.8-1.2-1.1-1.7c0.5-1.7,0.9-3.5,1.4-5.2
		c0.6-2.4,1.7-2.8,4.4-2.4c2.4,0.4,5.3-0.3,7.6-1.4c3.7-1.7,7-4.4,10.8-6c3.5-1.5,7.1-0.8,9.8,2.8c-3.4,1.1-6.8,1.4-9.4,3.1
		c-2.7,1.7-4.6,4.6-6.1,6.2C697.5,296.3,694.3,295.8,691.4,296.5z M724.3,292.3c0.7,7.8-2.8,12.1-10.3,12
		C717.6,300.1,720.7,296.5,724.3,292.3z M714.8,260.2c-0.6,0.5-1.3,0.8-2.8,1.8c3.4-12,13.8-17,22.6-12c3.4,2,5.9,4.8,4.6,8.9
		c-0.7,2.1-2.7,4.1-4.5,5.5c-0.5,0.4-3.1-1.6-4.3-3C725.1,255.8,720.9,255.4,714.8,260.2z M698.3,336.6c-1.9-0.4-3.8-0.4-5.8-0.5
		c-6.5-0.3-13-0.6-19.6-0.9c0-0.5,0-1.1,0.1-1.6c8.8-3,17.4-6.4,26.3-9c6.4-1.9,11.3,0.8,13,6.1c1.6,4.7-1.1,8.5-6,8.1
		C703.6,338.5,701,337.2,698.3,336.6z M716.5,222.5L716.5,222.5c-0.3,0.9-0.4,1.8-0.6,2.8c-0.3,1.6-0.7,3.1-1.6,4.1
		c-3.2,3.5-7,6.3-11.3,9.9c-1.9-7.8-0.1-14.6,4.7-16.7c0.6-0.3,1.3-0.4,2-0.5c0.4,0,0.7,0,1.1,0s0.7,0,1.1,0.1
		c1.1,0.1,2.3,0.3,3.5,0.4C715.7,222.5,716.1,222.5,716.5,222.5z M671.8,222.6c0.5-0.4,2.8-2.5,2.9-2.4c2.2,2.1,4.5,4.3,6,7
		c0.3,0.6-2.4,3.8-4.1,4.3C673.9,232.1,671.8,228.3,671.8,222.6z M624.7,299.5c-5.2,0-10.5,2-15.5-1.6c-1.3-0.9-3.7-0.1-5.7-0.1
		c6.9-7.9,13.8-15.9,21.3-24.5c0.6,1.9,1.1,3.1,1.3,4.3c0.9,5.6,1.6,11.2,2.5,16.8C629.2,297.6,628.3,299.4,624.7,299.5z M641.2,317
		c-6.9-0.5-13.6-1.6-20.3-1.3c-6.4,0.4-12.8,2.3-19.9,3.6C611.7,303.3,628.6,302.7,641.2,317z M605.5,325.7
		c19.1-8.1,38.7,4.1,43.5,22.8c0.5,1.8-0.9,4.2-1.6,7.3c0.1,0.4,0.6,2.1,1,3.8c-2,0.1-4.2,0.7-6,0.2c-7-2-7.5-2.1-16.5,2.4
		c0.5-1.7,0.6-2.8,1.1-3.5c2.8-4,3.2-7.2-2.4-9.2c-0.7-0.3-1.3-3-0.9-4.3c3.1-9.1,1.2-12.7-7.9-14.8c-3.9-0.9-7.3,0.1-8.8,3.8
		c-1.6,4.1-2.9,8.5-2.9,12.8c0,4.8-2.7,6.2-6.2,6.9c-3.4,0.6-6.6-3.1-6.9-6.7c-0.2-3.1-0.5-6.4-1.5-9.3c-2.4-7-8-9.2-14.7-6.2
		c-4,1.7-5.6,4.7-4.7,8.8c0.6,2.6,1.6,5,2.5,7.5c-6.6,4.4-6.6,4.4-4.6,12.9c-5.9-2.6-11.6-2.6-17.3,0.2c-1.2,0.5-3.2-0.1-4.5-0.8
		c-0.6-0.3-0.4-2.2-0.4-3.4c0-0.4,0.7-1,0.5-1.3c-3.8-9.9,2.4-16.6,8.1-22.9c6.2-6.8,14.5-10.1,23.8-9.6c3.6,0.2,7.2,1.2,10.7,2.2
		c3.6,1,5.5,3.5,5.6,7.4c0.1,3.5,0.1,7,0.6,10.5c0.2,1.5,1.6,2.8,2.5,4.2c0.7-1.3,1.9-2.6,2.1-4c0.5-3.6-0.1-7.5,0.9-10.9
		C601.4,329.8,603.3,326.6,605.5,325.7z M543.2,265.2c-3.1-3.8-6.9-2.8-10.9-1.3c-4.3,1.6-8.9,2.4-13.1,4.1c-1.6,0.6-3,2.7-3.6,4.5
		c-1.4,4-1.9,8.4-7.8,10.8c2.1-5.8,5.5-11.3,0.4-14.7c-3.2-2.1-8.5-1.1-12.8-1.5c0.4-2.6,0.7-3.2,5-3.1c4,0.1,6-1.6,8.3-4.9
		c6.7-9.4,16.7-12.2,27.8-11.5c10.2,0.7,17.6,6,21.4,15.6c4.3,11,3.1,22.2-0.4,33.8c-5.4-3.5-5.7,0.8-6.9,4c-1,2.7-2.2,5.3-3.3,7.9
		c-0.5-0.1-1-0.3-1.6-0.4c0.2-2.7,0.4-5.4,0.5-8.1c0.4-7.2,0.4-14.3-4.4-20.5c-0.6-0.8-0.1-3.1,0.6-4.2
		C544.7,272.3,546.1,268.8,543.2,265.2z M518.7,300.7c-4.9-7-3.6-14.3,3.3-20.6c3-2.7,6.1-6.3,12.4-2.3
		C523.3,282.1,517.6,289.2,518.7,300.7z M520.7,324.2c-6.9-4-13.5-7.9-20.4-11.9c2.2-3.1,4.9-3.9,8.2-2.9
		C515.6,311.6,520.4,317.4,520.7,324.2z M523.6,306.4c3.4-4.7,7.1-9.3,11.6-13.4c2.3,11-4.6,20-4.2,30.3c-0.6,0.1-1.2,0.2-1.8,0.3
		c-2-4.5-4.2-8.9-6-13.4C522.8,309.1,523,307.3,523.6,306.4z M462.5,264c-0.6,0.6-3.2,0.4-4.1-0.3c-4-3.2-3.4-9.3,1-12.4
		c8.9-6.3,21-0.8,23.4,11.6C474.8,253.9,468.6,257.1,462.5,264z M480.1,303.9c-6.1,1.2-10.3-3.8-9.3-10.6
		C473.9,296.8,477,300.2,480.1,303.9z M491.9,273.4c3.3,4.2,6.1,7.9,9.6,12.6c-2-0.2-4.1,0.3-5.2-0.5c-5.6-3.9-11.1-8.1-16.9-12.4
		C483.9,268.9,488.5,275.3,491.9,273.4z M592.4,318.6c-12.8-2.4-25.6-5.2-38.9-0.6C561.8,303,579.2,303.2,592.4,318.6z M566.3,296.9
		c0.8-7.5,2-14.9,3.2-23.5c7.9,8.9,14.8,16.8,21.3,24.2c-2.9,0.6-5.9,1.5-8.9,1.8c-4.4,0.4-8.9,0.4-13.3,0.2
		C567.7,299.5,566.2,297.7,566.3,296.9z M523.3,224.8c-0.9,3.5-0.5,7.1-4.7,6.4c-1.7-0.3-4-2.6-4.5-4.5c-0.7-3,3.3-7.3,5.8-6.5
		C521.3,220.7,522.2,223.2,523.3,224.8z M492.2,239.8c-4.9-4.2-9.2-7.6-13.2-11.4c-0.9-0.9-1.3-3.4-0.7-4.5c0.6-1.1,2.7-1.8,4.1-1.9
		C490,221.6,494.4,228.8,492.2,239.8z M478.6,288.7c1.1-4.4,3.6-5.9,6.7-4.9c3.5,1.1,7,2.9,10.1,5c3.6,2.6,6.9,5.1,11.8,3.4
		c0.7-0.3,2.7,1.3,3.2,2.4c0.8,1.5,0.8,3.4,1.6,7c-3.1-1.3-5.5-1.5-6.4-2.7c-3.2-4.4-6.6-5.1-11.3-1.1
		C490.9,291.8,486.2,287.8,478.6,288.7z M483.9,331.5c1.1-3.9,3.7-6.7,8.2-6.7c0.5,0,1-0.1,1.5,0c9.6,2.9,19.1,5.7,28.7,8.6
		c0,0.7-0.1,1.5-0.1,2.2c-6.6,0.3-13.2,0.6-19.8,1c-2.5,0.2-5,0.9-7.5,1c-3.3,0.2-6.7,0.6-9.8-0.1
		C484.2,337.4,483.4,333.4,483.9,331.5z M498.5,355.1c12.9-7.4,27.3-12.4,37.5-24.3c0.3,0.3,0.7,0.5,1,0.8c-0.7,2.7-1.6,5.5-1.9,8.2
		c-0.3,2.6-0.3,5.4,0.2,8c0.7,4.5,1.3,8.1-5.2,8.3c-3.6,0.1-5.1,3.5-4.8,7c0.3,3.6,2.2,5.8,6,6.2c0.2,0,0.3,0,0.5,0
		c7,0.5,7,0.5,3.4,6.9c4-1.2,7.5-2.5,11.2-3.4c11.9-3,21.4,0,29.1,10c4.9,6.3,10.9,11.6,16.4,17.4c0.9,0.9,2.2,2.1,2.2,3.2
		c0.2,6.4,0.1,12.7,0.1,19.6c-6-7.4-11-14.7-17.2-20.8c-6.2-6.1-13.5-11-21.1-17c1.3-2,3.3-5.2,5.7-8.9c-5.6-2.8-11.1-2.7-15.8,0.3
		c-4.1,2.6-7.6,6.4-11.2,9.8c-3.5,3.3-6.8,6.8-10.2,10.2c-3.3,3.3-7,4.4-11.2,1.4c-0.8-0.6-2-0.6-2.3-0.7c0.2,3.8,0.5,7.4,0.3,11
		c0,1.1-1.2,2.8-2.2,3.1c-4.7,1.2-5.1,4.5-5.3,8.9c-1.1-1.8-2.6-3.4-3.3-5.3c-1.3-3.2-2.9-5.4-6.7-5.8c-1.3-0.1-3.1-1.7-3.5-3
		c-1.7-5.2,1.9-8.8,4.8-12.4c2.3-2.9,5-2.4,8.1-1.3c1.6,0.6,3.5,0.2,5.3,0.2c-0.4-2-0.3-4.3-1.4-6c-2.2-3.4-6.3-3.8-9.6-0.8
		c-4,3.7-7.4,8-11.2,12.2c1.3-8.2,6.7-13.4,13.5-17.4c2.3-1.3,4.9-2.1,7.2-3.4c1.7-0.9,4.2-1.9,4.8-3.4c1.2-3.4,1.5-7.1,2.1-10.7
		c-2.8,0.7-5.9,0.8-8.5,2.1c-2.4,1.2-4.5,3.5-6.3,5.6c-2.4,2.7-4,5.9-8.4,6.3c-1.6,0.1-3.3,2.6-4.3,4.4c-1.7,3-2.8,6.3-4.1,9.3
		c-2.4-4.2-2.3-15.2,1.8-20.9C488,364.7,492.6,358.5,498.5,355.1z M483.4,424.3c0.4-0.5,2.5-0.2,3.5,0.3c12.5,5.6,25,11.4,37.5,17.1
		c0.2,0.1,0.4,0.5,1.5,2.1c-6.7,0.1-12.5,0.8-18.2,0.1c-8.5-0.9-16.3-0.8-21.5,6.6c-5.1-2.6-9.3-4.7-14.2-7.2
		C474.2,436.5,478.6,430.2,483.4,424.3z M495.4,478.2c-1.9,3.5-3.6,7.3-6.1,10.3c-0.8,1-4.5,0.8-6.1-0.2c-8-4.8-7.3-16.9-1.2-20.4
		c4.6,3.4,8.7,6.5,12.8,9.5C495,477.6,495.4,478.1,495.4,478.2z M498.1,545.8c-7.3,3.6-8.8,3.4-13.8-1.4c-1.1-1-2.9-1.5-4.4-1.7
		c-11.1-0.8-19.7,3.1-25.6,13c-2.9,4.8-3.7,5.2-7.3,3.2l-12.2-10.4c-1-5-1.7-10.1-3-15c-1-3.5-2.9-6.7-4.4-10
		c-1.6-3.6-0.6-5.6,3.2-7.3c4.2-1.9,8.1-4.7,11.5-7.7c1.8-1.6,2.9-4.5,3.2-6.9c0.5-4.6-1.5-6.2-5.9-5.1c-5.9,1.4-11.3,3.5-15.6,8.3
		c-2.6,2.9-5.9,5.1-9,7.6l-1.7-0.7c0.5-2,0.5-4.7,1.7-5.4c7-4.1,10-12.5,19.2-14.9c7.3-1.9,13.4-8.4,20-12.8c1.4-1,2.8-2,4.6-3.4
		c0.5,2.1,0.8,3.4,1.1,4.7c1.5,8.7,2.7,17.5,4.7,26.1c0.8,3.5,3.1,6.8,4.8,10c1.3,2.4,2.7,4.7,4.6,7.9c-7.6,0-14-1-19.9,0.3
		c-6,1.3-11.9,4.3-14.7,11.5C462.2,521.3,480.6,530,498.1,545.8z M413.6,491.7c1-0.7,2.2-1.5,3.4-2.4c0.3-0.2,0.7-0.5,1-0.7
		c0,0,0,0,0,0c0-0.1,0-0.1,0.1-0.2c0,0,0,0,0,0c0,0,0,0,0,0c0,0,0,0,0,0c-0.5-0.8-1-1.6-1.5-2.4c-0.5-0.9-1.1-1.8-1.7-2.8
		c6.9-1.5,13.2-2.8,20.3-4.4c-0.3,0.4-0.6,0.8-0.9,1.1c-4.6,5.2-11.1,5.6-16.2,8.5c0,0,0,0.1,0.1,0.1c-0.1,0-0.1,0.1-0.2,0.1
		c0,0,0,0,0,0c-1.2,3.9-2.3,7.8-3.5,11.8c-0.4,0.1-0.9,0.1-1.3,0.2c-2.2-5.1-6.3-4.1-10.2-3.8c-2,0.2-3.9,0.4-5.9,0.6
		c-8.1,0.8-10.1-1.8-7.6-9.7C397.5,489,405.4,490.3,413.6,491.7z M389.8,482c0.1-0.4,0.3-0.9,0.4-1.4c0.2-0.7,0.3-1.4,0.5-2.1
		c0.4-1.5,0.8-2.9,1.5-3c4.4-0.9,6.4,2.6,8.9,7.8c-2.3-0.3-4.3-0.5-6.2-0.7c-0.9-0.1-1.8-0.2-2.7-0.3c-0.4,0-0.9-0.1-1.3-0.1
		C390.6,482.1,390.2,482,389.8,482z M415.1,518.3c1.3-0.6,2.6-1.1,3.7-0.9c6.2,0.8,9.2,7.8,6.6,13.7l-20.3-1.9
		C408.4,526.3,411.8,522.7,415.1,518.3z M419.8,413.1c-0.4-3.7-0.5-6.3-1.1-8.7c-0.4-1.7-1.4-4.2-2.6-4.5
		c-7.6-2.1-15.2-2.3-21.7,3.3c-4,3.5-6,7.9-5.4,13.3c0.8,7.3,6.4,12,13.5,10.4c5.7-1.3,11.3-3.9,16.7-6.3c4.1-1.8,7.8-4.3,12.5-6.9
		c-0.4,1.5-0.4,2.1-0.7,2.6c-6.5,9.7-12.9,19.4-19.6,29c-3.7,5.2-4.9,5.1-8.7-0.1c-5.7-7.7-12.9-12.8-22.3-14.9
		c-6.1-1.4-10-9.7-8.1-15.7c2-6.6,6-11.2,11.8-14.9c8.8-5.7,17.1-12.1,26-17.7c6.6-4.2,14-1.9,21.1-2.6c0.2,0.8,0.4,1.6,0.5,2.3
		c-2,0.6-4,1.4-6,1.7c-5.1,0.8-7.8,3.8-7.3,8.3c0.5,4.1,4.1,6.8,8.6,6.5c4.1-0.3,6.2-3,6.1-7.6c-0.2-6,8.1-10.8,14.1-7.9
		C441.3,395.2,432,404.5,419.8,413.1z M367.4,372.3c6.6,2,12.8,3.9,20.7,6.2c-13.6,7-17.4,19.1-19.9,31.9l-1.4-0.3
		c-2.1-3.6-4.2-7.3-6.3-10.9C374,389.9,375.4,384.7,367.4,372.3z M393.3,385.8c0.4-2.2,0.2-5.9,1.3-6.3c2.8-1.1,6.1-0.7,9.3-0.9
		c0.2,0.7,0.3,1.4,0.5,2c-3.2,2-6.4,4-9.6,6.1C394.2,386.4,393.7,386.1,393.3,385.8z M343.8,300.8c0.6,4.1,2.8,6.9,7,7.1
		c3.7,0.2,6.5-2,7.1-5.7c0.7-4.2-1.6-7-5.3-8.6c-4.9-2.2-9.9-4.3-15.9-7c2.1-2.4,3.4-5.2,5.4-5.9c5.4-2,11-3.4,16.7-4.4
		c1.5-0.3,3.7,1.3,5,2.6c5.7,6,11.9,6.3,17.6,0.8c3.9-3.8,5-3.9,7.8,0.8c1.9,3.2,3.6,6.8,4.5,10.5c1.7,6.7,2.8,13.6,4.1,20.7
		c-6.8-3.6-12.7-6.9-18.8-9.9c-3-1.5-1.8-3.4-1.3-5.4c0.9-3.7,0-6.7-3.7-8.2c-3.4-1.4-6.2-0.4-8.4,2.4c-2.4,3.1-2.2,6.2,0.9,8.8
		c1.2,1.1,2.7,1.9,4.8,3.4c-19.8,4.3-30.1,16.5-32.4,36.9c-5.9-8.9-9-17.5-9.5-26.9c-0.3-4.9,0.3-9.9,1.1-14.8
		c0.5-3.4,3.1-5,6.7-4.2c3.2,0.7,6.9,1,6.6,5.8C343.6,299.8,343.7,300.3,343.8,300.8z M346.4,240.7c5.9-11.7,15-19,27-21.6
		c1,4,1.9,7.7,3,11.9c-0.8,2.2-3.2,5.8-2.6,8.6c0.7,2.8,4.5,4.9,7.4,7.7c-1.5,6.6-0.3,10.1,4.6,11.6c3.5,1.1,7.2-0.8,8.5-4.3
		c1.6-4.7-0.8-8-8.4-11c3.3-5.3,2.3-9.8-3.2-12.8c3.5-6.5,3.3-7.5-2-13.2c7.9-1.2,15.8,3.7,17.2,12c0.9,5.3,0.4,10.9-0.2,16.3
		c-0.8,6.9-2.3,13.8-3.7,20.6c-0.3,1.6-1.3,3.2-2,4.7c-1.8-1.1-4.2-1.7-5.3-3.3c-6.4-9.1-6.2-8.8-17.4-6.5c-4,0.8-9,0.7-12.4-1.2
		c-4.6-2.5-7.5-0.9-10.9,1.3c-1.5,1-3.1,1.7-5.2,3c0.5-8.8,0.6-16.6,10.5-20.4C349,242.6,347.9,241.8,346.4,240.7z M357.6,190.4
		c4.1,2.8,5.9,11.5,3.4,17.1c-1.5,3.2-3.8,6.1-5.7,9.1c-0.7-0.1-1.5-0.3-2.2-0.4c0-3.4,0.2-6.8,0-10.2c-0.2-4.3-0.9-8.6-1.1-12.9
		c-0.1-1.3,0.6-3.7,1.1-3.7C354.5,189.1,356.4,189.6,357.6,190.4z M353.2,186.2c3-4.5,5.9-8.6,8.7-12.8
		C363.4,179.6,360.6,184,353.2,186.2z M364.8,183c8.7-3.5,20.6,3.5,20.8,11.8c0,1.7-1.1,3.9-2.4,5c-4.2,3.3-8.7,6.3-13.2,9.3
		c-0.9,0.6-1.9,1-3.8,2.1C368.9,201,369.7,191.7,364.8,183z M384.9,208.7c1.3-0.9,2.6-1.8,3.8-2.7c8.5-6.6,8.4-15.9-0.7-21.5
		c-4.6-2.8-9.9-4.5-15-6.6c-1.6-0.7-3.4-1.1-5.1-1.6c0-0.5,0.1-1.1,0.1-1.6c2.6,0,5.3-0.3,7.9,0.1c6.3,0.9,10.5-1,12.8-6.7
		c0.5-1.1,0.1-3.4-0.8-4.1c-3.9-3.1-10.8-2.6-14.7,0.7c-1.3,1.1-2.5,2.5-3.9,3c-1.3,0.4-3.5,0.4-4.5-0.4c-7.6-6.7-7.5-6.8-16.6-9.2
		c-0.5-0.6-1-1.2-1.4-1.7c3.9-3.3,7.7-6.7,11.6-9.9c0.7-0.6,1.8-0.9,2.7-1.1c9.2-1.7,23.2,4.2,28,12c10.5,17,13.9,35.8,13.5,55.5
		c0,0.6-0.3,1.2-0.4,1.5C396.6,212.4,391.1,210.6,384.9,208.7z M351.5,150.1c-5.1,3.8-10.3,7.6-13.4,9.9
		C338,155.2,341.5,151.1,351.5,150.1z M343.8,138.3c2.2-0.3,4.3-0.9,6.5-0.9c1.2,0,2.4,0.9,4.6,1.8c-1.7,1.4-2.7,2.9-3.7,2.9
		c-2.3,0-4.7-0.6-6.9-1.3C343.9,140.7,343.9,139.1,343.8,138.3z M339.6,173.4c0.4-7,4.5-10.5,13.5-10.1c-8.9,4.1-10.3,10.9-10,18.5
		c-4.4-0.2-8.4-0.4-12.4-0.6c-0.2-0.5-0.3-1-0.5-1.4c1.7-0.5,3.3-1.4,5-1.5C338.3,178,339.4,176.4,339.6,173.4z M346.7,209.7
		c-2,0.3-4.1,1.1-6.1,0.9c-3.4-0.4-6.8-1.9-10.2-1.9c-5.6,0-7.2-2.7-6.5-8.1c4.1,0.3,7.9,0.5,11.7,1c2.6,0.4,5.4,0.8,7.5,2.2
		C344.7,205,345.5,207.7,346.7,209.7z M334.7,148.8c-5.9,1.6-12.1,3.3-18.5,5.1c-2.1-6,8.2-13.9,20-14.6
		C335.7,142.6,335.2,145.6,334.7,148.8z M321.1,171.9c-0.4,0.8-0.8,1.6-1.3,2.4c-2.7-1.4-5.4-2.8-8.1-4.3c0.4-0.8,0.9-1.6,1.3-2.4
		C315.8,169.1,318.5,170.5,321.1,171.9z M325.3,216.7c1.8-3,4.1-3.7,7.1-2.9c1.6,0.4,3.2,0.8,4.8,1.5c12.3,5.4,11.8,9,4.4,19.6
		c-0.8,1.2-3.1,1.7-4.8,1.8c-6,0.5-9.4,4.8-6.9,10.2c1.8,4,0.9,6.9-1,10.2c-2.2,3.7-4,7.6-6.2,11.8c-8.3-6.6-8.1-15.6-8.6-24.1
		c-0.3-5.3,0.2-10.7,1.2-15.9c0.4-2.3,2.5-4.4,4.2-6.3C321.3,220.6,323.9,219,325.3,216.7z M318.1,300.4c0.4,0,0.7,0,1.1,0
		c0.8,7.3,1,14.7,2.5,21.8c1.5,7.1,4.3,13.8,6.5,20.7c-8.4,0-14.5-8.6-12.9-18.6c0.9-5.6,1.9-11.1,2.7-16.7
		C318.3,305.2,318.1,302.7,318.1,300.4z M346.5,400.8c1.5-2.6,3.3-2.7,5.1-0.6c1.6,1.9,3,4,4.2,6.1c3.1,5.7,6,11.4,8.9,17.2
		c0.1,0.1,0,0.3-0.2,1c-4.3-1.8-8.3-3.3-12.2-5.1C346.6,416.8,343.4,406.3,346.5,400.8z M368.7,435.9c7.2,2.3,14.2,5.5,20.4,9.7
		c2.7,1.8,3.4,6.8,4.5,10.5c0.6,1.9,0.1,4.2,1.2,6.7l5.2-12.3c0.5,0,0.9-0.1,1.4-0.1c0.5,2.8,1.3,5.7,1.4,8.5c0.1,3.5,1.3,5,5,5
		c12.9,0.1,25.9,0.6,38.8,1c0.6,0,1.2,0.2,2,0.4c-6.7,6.8-20.4,9.6-28.9,6.5c-5.7-2.1-11.7-3.5-17.6-5.1c-0.8-0.2-1.9,0.4-2.7,0.8
		c-0.9,0.4-1.6,1.3-2.5,1.6c-5.9,2.1-11.7,4.4-10.2,12.9c-5.5-3.6-6.7-7.8-3.7-11.2c4.9-5.6,5.2-11.1,1-15c-4.4-4-13.2-3.5-17.7,1
		c0.1,0.4,0.3,0.9,0.4,1.4c0.4,2.8,0.8,5.5,1.2,8.3c-2.8-0.8-5.7-1.4-8.3-2.6c-1.7-0.8-3.1-2.5-4.4-4c-4.5-5.3-5.3-11.4-2.4-16.7
		C355.5,438.5,363.1,434.1,368.7,435.9z M378.5,487.1c0.4,2.1,0.4,3.7,0.9,5.1c1.6,5.2,3.3,10.5,6.1,14.8l0,0l-3.2,9.4L366,496
		C370.4,492.9,374.3,490.1,378.5,487.1z M422.5,545.9l3.3-3.1l6.1,9.7l-3.8,4.8h-7.1l-2.9-4.8l-5.4,2.2l-2.5-3.1L422.5,545.9z
		 M528.8,533.2c0.3,5.8,0.4,11.6,0.5,17.5c0,1-0.3,1.9-0.5,3.1c-0.8-0.1-1.5,0.1-2-0.2c-9.1-5.2-18.2-10.3-27.2-15.8
		c-29.7-18.1-39-58.7-30.6-86.3c1.6-5.4,2.8-6,7.7-3.1c2.6,1.6,5.2,3.8,6.9,6.3c2.7,3.9,1.3,7.4-2.9,9.7c-6,3.2-9.7,9.6-8.9,15.5
		c0.9,6.6,5.6,9.5,11.4,11.1c2.4,0.7,5.2,0.4,7.3,1.6c3.5,1.9,6.8,4.4,9.8,7c1.9,1.7,3,4.3,4.8,6.2c2.9,3,3.9,5.5-0.4,8.3
		c-4.9,3.1-5.6,8-4.3,13.3c1,4.1,3.9,6.6,8,7.3c5.3,0.9,10-0.3,13.4-4.7c4.7-6,2.5-13.2-5-17.4c-1.9-1.1-4.9-3.8-4.6-4.5
		c1.6-3.3,4.1-6.2,6.4-9.1c0.2-0.3,2.2,0.1,2.5,0.6c2.1,3.6,4.9,2.7,7.9,0.9c2.3,4.2,4.5,7.7,6.1,11.5c0.5,1.1,0.1,3.6-0.8,4.2
		C527.6,520.5,528.5,526.9,528.8,533.2z M785.3,490c6.9-1.5,14-2.2,21.1-3.3c2.9,7.4,0.7,10.5-7.3,9.6c-1.8-0.2-3.7-0.8-5.4-0.6
		c-3.8,0.5-7.6,1.3-11.4,2c-0.2,0.6-0.4,1.2-0.6,1.7c-1-2.3-2.4-4.6-3.1-7c-1.2-4-3.4-6.4-7.6-7.6c-3.4-1-6.5-3.3-9.7-5
		c0.3-0.6,0.6-1.2,0.9-1.7c6.1,1.2,12.3,2.3,19.1,3.6c-1,1.9-1.7,3.4-2.6,5.2C780.2,489.1,781.6,490.8,785.3,490z M796.5,481.2
		c1.9-5.4,6.2-9.3,8-7.4c1.6,1.6,2.9,5.7,2,7.2C803.7,485.2,800,481.9,796.5,481.2z M839.5,480.1c-0.3,0.4-2.6,0-3.4-0.7
		c-2.8-2.3-5.3-4.9-7.9-7.4c7.3-2.5,14.5-4.9,21.6-7.3c0.3,0.2,0.7,0.3,1,0.5C847.1,470.1,843.4,475.2,839.5,480.1z M831.5,465.9
		c-3.6,2.2-5.4,0.1-4.7-4.3c0.4-2.7,4.1-5.8-0.7-8.1c-5.2-2.4-12.2-1.2-15.1,2.8c-2.6,3.5-2.4,7.8,0.7,11.4
		c4.4,5.1,4.3,7.9-0.8,13.4c-0.6-0.7-1.1-1-1.1-1.4c-0.9-4.8-1.7-9.3-7.7-10.9c-4.5-1.2-8.7-3-13.5-1.2c-3.7,1.4-7.8,1.8-11.5,3.3
		c-6.7,2.8-13.1,3.3-19.7-0.3c-3.5-1.9-7.3-3.4-11-5c0.1-0.5,0.3-0.9,0.4-1.4c2.6,0.1,5.2,0.6,7.7,0.4c11.7-0.7,23.5-1.5,35.2-2.7
		c1.1-0.1,2.3-2.6,2.7-4.2c0.9-3,1.3-6.1,1.9-9.1l1.7,0c1.6,4,3.3,7.9,5.1,12.2c0.7-0.8,1-1.1,1-1.2c-2.4-10.8,2.9-17.2,12.1-21.2
		c4.5-2,9.3-3.7,14.1-4.6c5.6-1.1,10.5,1,13.9,5.8c3.5,4.9,4.5,10.6,1,15.4C840.3,459.4,836,463.2,831.5,465.9z M829.4,425.1
		c4.1-8.7,7.3-16.4,11.4-23.7c1.2-2.2,4.6-3.3,6.9-4.9c1.3,2.7,3.3,5.3,3.7,8.1c0.7,5.8-3.8,11.9-9.4,14.2c-2.1,0.9-4.1,2.2-6.2,3.3
		C834,422.9,832.1,423.8,829.4,425.1z M863.4,345c10.9-15.6,12.2-32.9,13.4-50.1c0.7,0,1.4,0,2,0c0.5,1.7,1.1,3.4,1.4,5.1
		c0.9,6.9,1.9,13.8,2.6,20.7C884.3,334.3,879,341.7,863.4,345z M873.9,271.3c-3.8-7.6-7.2-14.2-10.5-20.9c-0.4-0.8,0.2-2.2,0.6-3.2
		c2.7-6.8,0.6-10.4-6.4-11.8c-1.7-0.3-3.7-2-4.6-3.7c-5.9-10.9-3.9-15.7,8-19.5c4.8-1.5,8.8-1.2,11.5,3.7c0.7,1.3,1.8,2.8,3,3.2
		c7,2.2,7.2,8.2,7.4,13.6c0.3,8.3,0.4,16.7-1.1,24.8C881,262.3,876.9,266.4,873.9,271.3z M901.9,160.6c0.4,1.5-1.9,4.4-3.7,5.6
		c-1.9,1.3-3.4-0.1-5.1-2c-1.5-1.7-5-2.1-7.7-2.4c-3.6-0.4-6.3-0.5-6.1-5.6c0.2-3.8-8.7-8-14.4-7.5c-2,0.2-4,0-6.2,0
		c1.9-9.3,1.9-9.3-1.1-12.4c9.4-0.6,20.3,6.4,23.7,14.7c0.6,1.4,3.3,1.9,5.8,3.3c0.2-2.7-0.1-4.3,0.5-5.1c1.4-1.7,3.1-3.4,5-4.4
		c0.6-0.3,2.9,1.4,3.6,2.7C898.5,151.7,900.7,156.1,901.9,160.6z M878.5,108.5c0.7-0.4,2.9,0.6,3.7,1.5c4.6,5.2,9.1,10.6,13.4,16.1
		c0.7,0.9,1,3,0.4,3.8c-1.6,2.1-3.9,5.6-5.6,5.4c-8.8-1-17.5-2.9-26.9-4.6c3.2-2.5,6.6-4.2,8.4-6.9c2.2-3.3,2.9-7.6,4.3-11.4
		C876.7,111,877.3,109.2,878.5,108.5z M874.4,91.9c0.5,0.3,1.1,0.5,1.6,0.8c-0.8,3.5-1.7,7-2.5,10.5l-1.7,0
		c-1.8-2.2-3.7-4.4-6.1-7.4C869,94.3,871.7,93.1,874.4,91.9z M832,95.5c5.6-3.7,7.9-8.8,6.1-16.7c6.6,2.8,11.9,5.1,17.4,7.5
		c-5.2,9-14.7,9.6-21.5,14.4c-0.5,0.4-2.7-0.5-2.7-0.8C831.2,98.4,831.2,96.1,832,95.5z M831.3,109.5c0.9-0.8,1.8-1.5,2.7-2.2
		c13.9-10.6,21.4-9.5,31.9,4.5c-1.7,2.5-3.7,4.4-4.5,6.7c-2.4,7.3-2.8,7.7-11.5,8.7c2.4-8.5,0.7-16.3-4.2-23.6
		c-0.1,8.5,5.1,17.8-2.4,24.4c-4.4-3.9-8.1-7.4-12-10.7C828,114.7,828.4,112.1,831.3,109.5z M799.9,75.7c0.5-0.4,1.2-0.8,1.8-0.8
		c6.5,0.1,13,0.3,19.9,0.5c-0.4,2.2-0.4,3.1-0.7,3.8c-3.4,8-3.4,8,2.6,13.7c3.2,3,2.4,12.7-1.3,15.1c-2.2,1.5-3.5,0.8-4.2-1.9
		c-0.9-3.7-2.3-7.2-3.3-10.8c-0.3-1.2,0.1-2.6,0.1-3.8c-0.1-3,0-6.1-0.8-8.9c-0.2-0.7-3.8-0.5-5.8-0.5c-1.1,0-2.3,0.4-3.5,0.5
		c-3.2,0.1-5.6,0.8-5.6,4.7c0,3.5,0,7,4.8,7.1c4.4,0.1,4.7,3.4,5.4,6.5c0.7,3.1-0.1,5.4-3.3,6.9c-4.3,2.1-8.3,4.5-13.1,6.6
		c2.8-10.7,6.2-21.1-3.7-29.1C792.8,81.9,796.3,78.8,799.9,75.7z M823.7,115.1c1.8,0.5,3.2,2.2,4.8,3.4c-0.1,0.5-0.3,1-0.4,1.5
		c-6.3,1.9-7,7.7-8.9,12.5c-2,5.1-4.4,9.4-11.3,9.1c-1.2-5.5-3.8-10.5-10.7-8.7c-2.1,0.6-4.7,3.9-5,6.3c-0.8,6.8,4.5,8.3,10,8.7
		c-4.1,9.3-8,18.2-12.2,27.7c-0.2-2.7-0.5-5.1-0.7-7.4c-0.5-8.8-1.4-17.6-1.3-26.4C788.2,122.9,805.5,110.1,823.7,115.1z M785,253.4
		c1.9,1.1,4,2.9,4.8,4.8c3.3,8.1,3.9,16.6,3,25.4c-2.6-1.6-4.8-2.9-7-4.2c0,0,0,0,0,0c0,0.3,0,0.5,0,0.8c-0.1,1-0.2,2.1,0.2,2.8
		c6.7,12,5.7,24,0.5,36.1c-1.2,2.9-2.7,5.7-4,8.6c-1.5,3.4-3.3,6.1-7.8,2.5c-0.9,1.9-1.7,3.3-2.2,4.8c-4.9,13.6-12.7,25.3-23.3,35
		c-2,1.9-5.5,2.2-8.4,3.3c-4.1,1.5-8.2,3.2-12.5,4.4c-1.7,0.5-4.7,0.3-5.4-0.7c-5.8-8-11.2-16.2-17-24.9c4.4-0.1,8.5-0.5,12.4-1.3
		c21.2-4,36.1-17.4,43.5-40.5c-4.9-0.6-5.8-3.4-4.6-7.9c1.9-7.2,2.1-14.3-2.5-21c-2.5-3.7,1.7-20.8,5.1-23.9
		C766.4,251.6,778.3,249.5,785,253.4z M749.7,67.5c3.5-1.9,5.8-0.8,5.9,2.8c0,4.2-0.6,8.6-1.6,12.7c-1.1,4.7-3,9.1-4.4,13.7
		c-0.5,1.8-0.6,3.7-0.9,5.6c0.5,0.2,1,0.4,1.5,0.5c2.8-5.5,5.8-10.9,8.5-16.5c3.6-7.6,4-8,12.6-6.7c3.7,0.6,7.4,1.3,11,1.9l0.1,1.6
		c-2.5,1.2-5,2.4-7.4,3.8c-4.8,2.9-5.2,5.5-2.5,10.5c1.1,2.1,1.3,4.7,1.8,7.2c0.9,4.9,2.8,9.2,7.2,12c0.9,0.6,1.9,2.2,1.8,3.1
		c-1.3,6.9-3,13.8-4.3,19.7c-7.1-3-14.3-6.1-21.5-9.3c-1.8-0.8-3.9-1.9-4.7-3.4c-7.4-12.8-12.5-26.2-8.7-41.3
		c1.1-4.3,2.8-8.1,7.5-10.5C756.8,72,751.6,70,749.7,67.5z M718.4,90.7c2.6-0.9,6.3-1,7.7-2.8c1.3-1.7,1.2-6.1-0.1-7.7
		c-1.6-1.9-5.3-2.2-8.1-3.2c-0.5-0.2-1.2-0.1-1.7-0.1c0-0.3-0.1-0.5-0.1-0.8c9.3-2.5,18.6-5.1,28.8-7.8c-3.2,9.8-6.2,18.7-9.2,27.7
		c-3-3.8-8-6-12.4-3c-5.5,3.8-7.5,10.2-7.5,18.6c2.5-3.4,4.1-5.8,5.9-7.9c3.9-4.4,4.9-4.4,9.2-0.4c1.8,1.7,3.3,3.5,5.7,6.1
		c-8.4,2.3-11.5,7.6-11.1,15.3c-5.8,0.1-9.3-2.8-12-6.8c-4.6-7-4.4-18.8,0.7-25.5C715.1,91.4,717,91.2,718.4,90.7z M706.1,79.3
		c2-0.6,4-1.4,6.5-2.3c-0.1,5.6,0.3,10.6-3.6,14.8c-1.3,1.4-2.3,3.4-2.7,5.3c-1.9,9-8.4,13-16.2,15.5c-8.8,2.8-17.8,5.2-26.7,7.7
		c-0.1-0.2-0.1-0.4-0.2-0.6c4.6-2.4,9.2-4.9,14.6-7.8c-6.5-4.2-3.5-7.4-0.4-10.4C686.1,93.1,693.5,82.8,706.1,79.3z M676.8,90.7
		c0.5,0.6,0.9,1.2,1.4,1.7c-11.6,9.4-23.3,18.7-34.9,28.1c-0.5-0.6-1-1.2-1.6-1.8C653.4,109.3,665.1,100,676.8,90.7z M599.5,191.9
		c2.6-6.3,6.1-12.1,8.4-18.5c5.8-16.4,14.1-31.2,25.4-44.4c0.6-0.7,1.4-1.3,2.2-2.1c4.8,3.5,1.8,7.5,0.9,11.6
		c19.2-8.8,38.5-15.7,59-19.9c0.1,5.3-1.9,7-7.2,6.6c-9.2-0.7-16.5,5.4-17.4,13.7c-1,9.4,4.4,17.7,13.6,19.1
		c5.5,0.9,6.5,2.8,6.3,8.3c-0.2,7.8,1.7,15.7,2.9,23.6c0.2,1.6,0.9,3.1,1.5,4.8c-10.4-3.6-20.5-7.1-30.7-10.6
		c0.7-0.3,1.9-0.6,2.7-1.4c3.2-2.7,6.9-5.2,9.4-8.5c2.6-3.5,1.3-7.2-1.8-10.3c-3-2.9-5.8-2.1-9.1-0.5c-10.5,5.2-20.4,11.2-27.9,20.5
		c-0.4,0.4-1,0.7-1.9,0.7c3.5-7.3,3.7-15.9,12.1-20.7c8.6-4.9,14.3-12.4,13.6-23.3c-0.3-4.7-2.6-7.4-7-5.6
		c-7.8,3.1-15.7,6.6-22.5,11.5c-6.5,4.7-6,12.7-0.8,18.7c1.1,1.2,1.7,3.8,1.1,5.2c-1.7,4.7-3.6,9.4-6.3,13.5
		c-1.6,2.4-4.7,3.8-7.2,5.6c-0.5-0.4-1-0.7-1.6-1.1v-26.3l-1.4-0.2c-6.6,10.8-9.2,22.9-9.9,36c-4.4-0.9-5.2,1.8-6,5.2
		c-0.5,2.1-2.4,3.9-3.6,5.9c-0.8-0.4-1.6-0.8-2.5-1.1C595.8,202.5,597.4,197.1,599.5,191.9z M559.1,127.7
		c10.8,6.9,24.9,33.8,29.9,53.5c0.6,2.5,1.1,4.8,1.4,7c0.5,3.6,0.6,6.8,0.1,9.3c-3.5-12-7.1-23.9-10.6-35.9
		c-0.4,0.2-0.8,0.3-1.2,0.5c0,6.9,0.1,13.9-0.1,20.8c-0.1,1.9-1.1,3.8-1.7,5.7c-2.3-0.7-5.7-0.8-6.7-2.3c-3.4-5.3-6-11-8.6-16.8
		c-0.5-1.1,0.4-3.3,1.3-4.3c5.5-5.9,5.4-14.9-1.3-19.4c-6.1-4-12.8-7.2-19.5-10c-5.5-2.3-8.2-0.1-8.7,5.7
		c-0.7,7.3,1.4,13.5,7.3,18.1c1.7,1.3,3.2,3.2,5.1,4c9.6,3.9,9.4,13.6,12.7,21.4c-0.6-0.4-1.4-0.7-1.8-1.2
		c-8-8.8-18.2-14.4-28.5-19.9c-2.9-1.6-5.5-2.2-8.2,0.4c-2.7,2.7-4.5,6-2.3,9.4c1.9,3,4.8,5.3,7.5,7.6c1.6,1.3,3.8,1.8,5.8,2.7
		c-10.5,3.8-20.6,7.6-31.2,11.5c0.3-1.3,0.6-2.6,1.1-3.9c3.1-8.8,4.7-17.7,3.5-27c-0.5-3.8,0.8-5.1,4.5-6
		c8.9-2.1,13.8-8.6,13.6-17.3c-0.1-7.1-5.2-13.6-12.1-15.3c-1.6-0.4-3.3-0.7-4.9-0.4c-4.9,0.8-6.7-1.3-6.1-6.8
		c20.3,4.6,39.9,10.9,59.2,21.1c-0.1-0.9-0.4-1.9-0.7-2.7C556.6,133.4,554.7,130.3,559.1,127.7C559.1,127.7,559.1,127.7,559.1,127.7
		z M518.3,91.3c11.7,9.4,23.5,18.8,35.2,28.1c-0.5,0.6-1,1.2-1.5,1.8c-11.7-9.4-23.5-18.8-35.2-28.2
		C517.3,92.5,517.8,91.9,518.3,91.3z M482,78.7c17.9,3.4,29.6,15.1,40.1,29.3c-2,1.3-3.4,2.2-5.8,3.7c3.8,2.5,7,4.6,10.2,6.6
		c-12.2-3.6-27.7-1.6-34.3-14.4C488.2,96.2,479.6,89.4,482,78.7z M472.9,75.6c-1.6,1.7-2,2.6-2.8,3c-4.2,2.1-3.8,5.3-2.5,8.9
		c1.4,3.7,4.1,5.3,7.9,3.9c3.4-1.2,4.7,0.4,6.1,3.1c5.5,10.5,3.6,22.1-4.7,28.4c-5.2,3.9-7.1,3.2-8.1-3c-0.9-5.5-4.9-7.9-10.3-9.8
		c1.2-1.5,1.8-2.5,2.6-3.3c2.2-2.2,4.5-4.3,7.5-7.2c3.5,4,6.8,7.7,10.3,11.5c1.1-6.1-2.1-15.5-7-17.5c-2.7-1.1-6.4,0.1-9.6,0.8
		c-1.1,0.2-1.9,2-2.5,2.6c-2.9-8.9-5.8-17.7-9.1-27.7C458.3,71.5,465.1,73.4,472.9,75.6z M422.5,89.9c-2.2-2.3-5.3-3.8-9-6.4
		c6.7-2.3,12.7-3,18.7-2.4c1.6,0.2,3.1,3.2,4.1,5.2c3,5.9,5.7,11.9,8.6,17.8c0.5-0.1,1.1-0.3,1.6-0.4c-0.2-2,0-4-0.5-5.9
		c-1.7-5.9-3.8-11.7-5.3-17.7c-0.7-2.8-1-6-0.7-8.9c0.1-1.3,2.1-2.4,3.2-3.6c0.5,0.4,0.9,0.8,1.4,1.2c-0.6,1.1-1.6,2.1-1.8,3.3
		c-0.2,1.2,0,3.4,0.7,3.7c7.2,2.9,8.4,9.4,8.7,15.7c0.6,11.5-1.9,22.6-7.4,32.7c-1.5,2.8-4.7,5-7.6,6.5c-6.5,3.4-13.4,6.2-20.7,9.5
		c-0.2-1.4-0.4-3.8-0.7-6.1c-0.6-3.8-1.1-7.6-2.2-11.2c-0.9-2.8,0.3-3.9,1.8-5.9c2.6-3.4,4.6-7.5,6.4-11.5c1.4-3.1,2.5-6.4,2.9-9.7
		C424.8,93.9,423.9,91.2,422.5,89.9z M420.3,234.1c1.3-1.9,3.1-2.9,4.9-0.6c1.5,1.9,4.8,4.1,1.5,6.6c-3.9,2.9-8.4,4.8-12.7,7.2
		c-0.4-0.6-0.9-1.1-1.3-1.7C415.3,241.8,417.7,237.9,420.3,234.1z M426.1,253.8c8.4,3,14.1,7.8,13.7,17.8c-0.2,5.2,0.8,10-1.8,15.3
		c-2.1,4.2-0.5,10.3-0.5,15.6c0,2.4,0.4,4.8,0.5,7.3c-0.7,0.1-1.4,0.1-2.1,0.2c-0.1-1.4-0.4-2.7-0.3-4.1c0.3-4.7-2.4-8.1-7.1-8.6
		c-4.1-0.4-7.3,2-7.8,6c-0.6,4.8,2.3,8.3,7.4,8.6c2.6,0.2,5.5-0.1,5.8,3.3c0.5,7.2,6.2,11.2,9.9,16.2c4.1,5.4,9.3,10,14.4,14.7
		c1.5,1.3,3.9,1.8,6,2.3c7.8,1.6,15.7,3.1,23.5,4.6c0.6,0.1,1.1,0.5,0.9,0.4c-5.4,8.2-10.6,16.4-16.3,24.3c-0.8,1.1-4,1.5-5.4,0.8
		c-5.2-2.5-9.8-6.3-16.3-4.8c-1.3,0.3-3.2-1.5-4.6-2.7c-10.7-9.7-18.2-21.6-23.3-35c-1-2.5-1.4-5.3-5.5-3.9
		c-0.8,0.3-2.9-1.3-3.6-2.5c-8-14.3-12.9-29-4.5-45c0.2-0.3,0.3-0.6,0.4-1c0.2-1,0.2-2.1,0.3-3.2c-2.2,1.1-4.4,2.2-7.1,3.6
		c-0.6-8.6-0.5-17.7,3.9-26C409.2,253.4,419.5,251.4,426.1,253.8z M374.3,93.7c3.5-3.2,4.8-6.8,2.3-11.1c-2.1-3.5-0.4-4.9,2.9-5.3
		c4-0.5,8-1.2,11.9-0.9c2.1,0.1,4.2,1.8,6.1,3.1c3,2,5.8,4.2,8.9,6.5c-8.8,8.4-7.4,18.1-3.5,28.1c-9.4,0.2-16.4-7.3-13.9-14.6
		c0.5-1.5,2.4-3.3,3.9-3.5c4.5-0.8,4.9-3.8,5-7.3c0.2-3.8-2.3-4.8-5.4-5.1c-1.2-0.1-2.3-0.3-3.5-0.5c-8-1.3-11.1,2.1-8.6,10
		c1,3,0.5,4.8-1,7.2c-1,1.6-1,3.8-1.6,5.7c-0.3,0.8-0.9,2-1.5,2.2c-0.7,0.2-1.9-0.4-2.5-1.1C370.3,103,370.5,97.2,374.3,93.7z
		 M374.6,116.2c9-1.3,17.6,0.7,24.3,6.7c3.5,3.1,7.1,8,7.4,12.4c1,13.3,0.3,26.7,0.3,40.1l-1.3,0c-3.7-8.4-7.5-16.8-11.4-25.7
		c1.3-0.4,2.7-1,4-1.3c4.8-1,6.3-4.5,5.7-8.6c-0.4-2.3-2.5-5.3-4.5-6.1c-3.9-1.5-7.3,0.2-9.7,4c-1,1.7-3.6,4.3-4.4,4
		c-2.7-1.1-5.8-2.8-7-5.2c-2.8-5.5-2.9-12.5-10.6-16.7C370.4,118.3,372.4,116.5,374.6,116.2z M365,118.4c-2.8,1.6-4.2,5.7-8.7,4.8
		c-0.9-0.2-2.4,2-4,3.5c-4.3-7.6-1.2-14.4,0.8-23c4.8,3.6,8.8,6.4,12.6,9.5C368,115,367.3,117.1,365,118.4z M342,88.1
		c4.4-1.9,8.8-3.8,13.9-6c0.2,2,0.2,3.4,0.4,4.8c0.7,4.1,2,7.6,5.9,9.9c1.5,0.9,2.2,3,3.3,4.5c-0.7,0.7-1.4,1.5-2.1,2.2
		c-7.3-4.4-14.6-8.9-21.9-13.3C341.7,89.4,341.8,88.8,342,88.1z M348.9,101.7c-1.8,9.1-3.5,17.7-5.2,26.5c-4.9,0.1-7.3-1.7-8.7-6.9
		c-0.6-2.5-1.5-4.9-2.5-8.1C337.1,108.8,342.1,103.6,348.9,101.7z M322,94.7c2,1.1,4.8,1.7,5.6,3.4c0.6,1.3-1.3,3.8-2.1,5.7
		c-0.6-0.1-1.3-0.1-1.9-0.2c-0.9-2.5-1.8-5.1-2.7-7.6C321.2,95.5,321.6,95.1,322,94.7z M304,126c4.1-5.1,8.3-10.1,13.3-16
		c3.8,13.6,3.8,13.6,13,22.5c-2.9,0.3-5.2,0.5-7.6,0.9c-4.1,0.6-8.4,0.8-12.3,2.1c-4,1.4-5.5-0.5-7.7-3.1
		C300.3,129.4,302.5,127.8,304,126z M302.4,148.3c2-2.4,4-0.4,4.1,1.7c0.2,4.2,2.2,5.9,6.1,6.3c1,0.1,1.9,1.4,2.8,2.2
		c-0.9,1.1-1.6,2.8-2.7,3.2c-4.4,1.3-8.9,2.4-13.4,2.9c-1.2,0.1-2.7-2.2-4.9-4.2C297.4,155.8,299.5,151.8,302.4,148.3z M286.6,150.1
		c0.6,0.2,1.2,0.3,1.9,0.5c0.1,2,0.4,4,0.2,5.9c-0.4,7.4-0.3,14.5,4.1,21.1c6.3,9.4,12.9,12.1,23.8,8.7c1.1-0.3,2.2-0.6,3.7-1.1
		c-2.1,5.9-4.8,7.6-10.7,5.3c-4.3-1.7-9.8-0.6-14.7-0.5c-3.1,0.1-4.5-0.8-4.8-4.1c-0.9-11-2.1-11.9-13-11.8c-0.5,0-1-0.2-2.8-0.6
		C278.5,165.4,282.6,157.8,286.6,150.1z M290.7,216.5c5.4,2.9,10,5.1,14.2,7.8c1.3,0.9,2.5,3.1,2.5,4.7c-0.2,4.5-0.9,8.9-1.8,13.3
		c-0.3,1.2-2.5,3-3.4,2.7c-7.6-1.7-14.6-10.8-14.8-18.8C287,222.2,288,218.5,290.7,216.5z M286.7,207.9c-0.7-2.9-1.4-5.8-2-8.6
		c0.9-0.2,1.8-0.4,2.6-0.6l1.8,8.7L286.7,207.9z M269.2,204.7c2.9-4.1,4.3-3.9,6.6,0.4c3.4,6,4.3,12.5,3.8,19.3
		c-0.3,4.1-2.2,4.5-5.2,2.6c-3.8-2.5-7.6-3.4-12-0.4C263.3,218.6,264.5,211.1,269.2,204.7z M261.1,259.3c0-0.9,0.3-2.2,0.9-2.7
		c3-2.5,6.1-5,9.4-7c6.5-3.9,13.1-4.5,19.6,0.3c9.9,7.2,17,16.7,22.3,27.6c0.3,0.7,0.3,1.6,0.4,2.6c-6.2,0-12.1,0.2-17.9-0.1
		c-1-0.1-2.1-1.9-2.9-3.1c-6.3-9.8-17.2-12.7-26.8-6.5c-2,1.3-2.3,5-4,8.9C261.7,271.8,261.3,265.6,261.1,259.3z M303.3,320.2
		c0.2,1.4,0,2.9,0,5.8c-2.4-2.1-4-3.3-5.3-4.8c-3-3.3-5.7-6.9-8.8-10.1c-1.2-1.3-3.2-1.8-4.8-2.7c-1,1.9-2.1,3.8-3,5.8
		c-0.3,0.5-0.1,1.2-0.3,2.9c-4.6-8.1-1.6-15.9,5.7-18.8c3.8-1.5,7-4.4,10.8-5.7c2.4-0.8,5.5-0.1,8.1,0.6c0.6,0.2,1,3.7,0.3,5.1
		C302.6,305.4,302,312.7,303.3,320.2z M270.8,302.1c-2.3-3.4-4.5-6.9-6.8-10.3c0.4-0.2,0.8-0.5,1.1-0.7
		C267.3,294.6,271.5,296.8,270.8,302.1z M289,363.2c-5.4-13.5-10.8-27-16.2-40.5l2.1-0.9c5.4,13.5,10.9,27,16.3,40.4
		C290.5,362.6,289.8,362.9,289,363.2z M293.2,355.2c-1.1-4-1.8-8.2-2.4-12.4c-0.1-0.5,1.9-1.8,2.6-1.6c5.8,1.5,11.5,3.3,17.2,5
		c-0.1,0.7-0.3,1.3-0.4,2c-4.2,2.6-8.3,5.4-12.7,7.7C296.3,356.3,293.3,355.8,293.2,355.2z M296.4,383.5c-2.9-5.4-3-10.3,0.7-15.3
		c2.4-3.2,4.6-6.6,6.8-10c0.6,0.1,1.3,0.2,1.9,0.3c2.2,9.1,4.4,18.1,6.5,27.2c0.3,1.1-0.1,2.4,0.3,3.4c6.6,15.7,16.2,28.6,32.9,34.8
		c5.7,2.1,11,5.2,16.7,7.9c-4.3,2.2-8.3,3.4-11.4,5.9c-6.1,4.7-7.2,12-3.5,18.8c4.4,7.8,10.3,13.8,20.2,16.3
		c-3.3,2.7-5.7,4.9-8.4,6.7c-0.9,0.6-3.2,0.5-3.9-0.2c-2.5-2.6-4.7-5.5-6.8-8.5c-3.2-4.7-6-9.8-9.3-14.4c-3.2-4.5-6.9-8.8-10.9-13.9
		c6.4-0.9,12.3-0.9,13.7-7.6c0.9-4.3-0.3-8.6-4.1-11.1c-6.6-4.3-11.5,0.8-17,4.3c-1.4-1.9-3-3.6-4.1-5.6
		C309.9,409.4,303.3,396.4,296.4,383.5z M599.8,731c-0.7,0.8-3.7,1.2-4.3,0.5c0,0-4.5-5.8-12.7-15.2c-1.4-1.7-2.7-3.3-4.1-5
		c-1.7-2-2.9-4.7-5.6-5.8c-8.8-9.6-19.9-21.2-33-33.6h0l-24.5-25c-2.4-3.2-4.3-5.6-6.1-8c0.2-0.4,0.3-0.8,0.5-1.3c3,0.3,6,0.8,9,0.8
		c3.5,0.1,7,0,10.5,0c1.1,0,2.2,0,3.4,0v0c0,0,0,0,0-0.1v0c-0.4-0.2-0.8-0.4-1.2-0.6c-3.1-1.5-6.1-3.3-9.3-4c-5-1-10.2-1-15.3-1.4
		c-1.6-0.1-3.6,0-4.8-0.9c-1.8-1.2-3-3.2-4.4-4.9c1.8-0.9,3.5-2.4,5.4-2.6c7.1-0.6,14.2-0.9,21.3-1.1c3.1-0.1,4.7,1.3,5.3,4.6
		c0.6,3.7,2,7.2,3.1,10.8c0,0,0.1,0,0.1,0.1c0,0-0.1,0.1-0.1,0.1c0,0,0,0,0,0l0,0c0.9,1.7,2.1,3.4,2.8,5.2
		c2.7,7.4,5.1,14.8,7.8,22.1c0.8,2.3,2.2,4.4,3.3,6.5c0.6-0.2,1.2-0.5,1.8-0.7c-0.3-1.8-0.5-3.7-1.1-5.5c-2.8-9.1-6.2-18-8.3-27.2
		c-1.1-4.6-1.4-10.3,0.2-14.5c6.8-17.2,28.3-24,44-14.2c3.9,2.4,7.6,5.5,10.7,8.9c2.8,3.1,4.5,2.7,6.6-0.3c0.8-1.1,1.7-2.1,2.7-2.9
		c16.8-14.7,30.1-14.8,46.3-0.1c7.5,6.8,8.5,15.7,5.2,25.3c-4,11.5-7.4,23.1-11.2,34.7c-0.4,1.4-1.2,2.7-2.1,4.3
		c-2.8-5.6-4.9-10.7-7.8-15.2c-2-3.1-2.1-5.5,0.4-7.9c1.8-1.7,4-2.9,6-4.3c3.3-2.2,7-4,9.8-6.8c4.6-4.5,3.8-10.5-1.6-14
		c-2-1.3-4.6-2.4-6.9-2.5c-4.6-0.2-6.7-1.9-7.4-6.7c-0.9-6.1-5.6-8.3-11.1-5.4c-2.9,1.5-5.1,4.2-7.8,6.1c-1.1,0.8-2.9,1.6-4,1.2
		c-3.9-1.4-5.8,0.5-6.7,3.8c-0.7,2.4-0.6,5-1.3,7.3c-2,6.1-4.3,12.1-6.4,18.2c-0.6-0.1-1.3-0.1-1.9-0.2c-1.4-6.9-3.1-13.7-4.1-20.6
		c-0.4-2.5-0.8-4.3-1.4-5.6c-0.2-0.4-0.3-0.7-0.5-0.9c-1.4-1.9-3.7-2-8-0.8c-1.2-1.4-2.4-2.9-3.7-4.2c-0.4-0.5-0.9-0.9-1.3-1.3
		c-7.2-6.5-12.8-5.1-15.3,4.2c-0.9,3.5-2.9,4.3-6,4.5c-7.1,0.5-11.5,3.7-12.6,8.7c-1,4.3,2.2,9.1,8.2,12.5c2.9,1.6,5.9,3.2,8.4,5.3
		c3.4,2.9,5.5,6.4,1.3,10.6c-1.2,1.2-1.9,3.1-2.6,4.8c-4.3,9.8-3.5,10.6,7.2,11c6,0.3,11.9,2.2,17.7,3.9c2.9,0.8,3.6,3.1,2.7,6.4
		c-0.9,3.2-1.3,7.1-0.4,10.1c2.3,7.4,10.5,11,17.3,8.4c7.5-2.9,11-10.1,7.9-17.9c-1.4-3.6-0.6-5.4,2.4-7.3c5.4-3.4,11-4.5,17.2-3.2
		c6.3,1.3,6.8,2.3,4.4,8.1c-0.2,0.4-0.2,0.9-0.1,1.3l-5.2,5.5c-3.8,3.8-9.2,7-11.2,11.6C613.2,718.3,605.5,723.8,599.8,731z
		 M614.8,657.8c0.2,1.5-0.2,3.3,0.5,4.4c0.8,1.4,2.5,3,3.9,3.1c8.1,0.1,11,2.3,13,11.1c-10.2-2.2-17.5,3.3-24.8,9.1
		c-2.8,2.2-8.8,0.3-9.1-3.3c-0.9-9.1-1.4-18.4,3.2-26.8c1-1.8,3.9-4.3,4.8-4C609.4,652.8,614.1,652.8,614.8,657.8z M617.2,634.1
		c0.8-1.8,4.9-2.2,7.6-3.2c7.7,0.6,6.8,1,8.6,8.4c2.1,8.5-2.8,11.9-8.1,15.8c-2.1,1.6-3.8,1.5-5.5-0.7c-1.8-2.3-5.3-4.5-5.3-6.8
		C614.3,643.1,615.4,638.2,617.2,634.1z M579.5,648.4c-2.2,2.1-4.8,5.1-8,7.1c-1.1,0.7-3.9-1.2-5.7-2.2c-7.9-4.7-4.8-12.2-4.8-19
		c0-0.5,0.3-1.3,0.6-1.3c3.9-0.4,7.8-1.1,11.6-0.7c1.5,0.1,3.5,2.4,4.1,4.1C578.4,639.8,578.7,643.5,579.5,648.4z M575.2,665.5
		c3.7,0.2,3.8-2.1,3.5-4.5c-0.3-3.4,0.9-5.6,3.8-7.4c4.4-2.7,6.5-2.5,7.4,2.5c1.6,8.8,2.5,17.7,3.3,26.6c0.3,2.8-3.4,4.7-6.2,3.5
		c-1-0.5-1.9-1.3-2.9-2c-7-5.3-14.1-10.3-24.3-6.8C562.9,667.8,566.6,665.1,575.2,665.5z M903.7,376.3
		c-8.8,16.6-17.8,33.1-26.7,49.6c-0.3,0.5-1,0.9-1.7,1.5c-1.6-1.2-3-2.5-4.6-3.6c-3.5-2.4-7.3-3.6-11.2-1.2
		c-3.6,2.2-5.2,5.6-4.5,9.8c0.8,4.3,4.2,5.7,8,6.4c1.4,0.2,2.9,0,5.2,0c-4.7,11.4-13.9,17.1-23.4,23c4.2-5.9,6.5-12.1,4.8-19
		c-1.9-8-9.2-9.2-17-11.6c2.7-1.6,4.2-2.7,5.9-3.5c7.5-3.7,15-7.1,22.4-11c8.7-4.6,14.3-11.8,18.8-20.6c3.3-6.5,3.6-13.4,5.6-20
		c2.1-6.8,3.7-13.8,5.8-21.6c1.7,1.4,4,2.5,5.2,4.3c2.8,4.1,5.3,8.4,7.6,12.8C904.4,372.9,904.4,375.1,903.7,376.3z M906.7,365.6
		c-6.3-10.8-14.2-16.6-24.9-19.2c7.8-4.7,15.8-7.8,24.6-8.4c0.7-0.1,2.2,2.2,2.3,3.5c0.2,2.9-0.3,5.9,0.1,9
		c3.4-4.6,6.3-9.8,4.7-15.4c-0.7-2.5-5.2-3.9-8.2-5.9c2.1-2.8,5.3-6.2,7.4-10.1c1.2-2.2,2-6.9,0.9-7.8c-3.1-2.5-6.2,0-8.5,2.6
		c-4.2,4.9-8.2,9.8-13.3,14.6c2.7-13.2,3.3-25.8-5.2-36.9c7.7-4.6,9.3-4.4,15.1-0.1c2.2,1.7,4.9,2.8,7.6,3.6
		c10,3.3,13.4,14.1,7.1,22.5c-0.5,0.6-0.7,1.4-1.7,3.1c4.4-1.5,7.7-2.6,12.3-4.2C921.6,333.8,916,349.5,906.7,365.6z M938,261.1
		c-0.5,7.5-1.6,14.9-1.7,22.4c-0.1,8.7-6.4,14.2-9.2,21.4c-0.5,0-1,0-1.4,0c-1.7-3.3-3.4-6.6-5.2-10c9.4-3.5,13-8.1,12.3-15.7
		c-0.5-5.7-5-10.6-10.6-11.7c-8.2-1.6-14.9,3-19.8,13.4c-4.2-0.4-8.3-1.4-12.3-0.9c-3.8,0.4-7.4,2.4-11.2,3.8c0-0.2-0.2-0.9,0-1.4
		c5.9-13.1,13.3-25,24.8-33.9c8.8-6.9,20-6,27.8,2.1c0.5,0.5,0.9,1.2,1.5,1.3C939.2,252.5,938.2,257,938,261.1z"/>
	<path fill="#FFDE17" d="M767.4,296.7c-4.4,0.2-7.4,3.6-6.9,8c0.1,1,0.4,1.9,0.7,2.9c0.2,0.5,0.3,1,0.5,1.4c0.2,0.4,0.3,0.9,0.4,1.3
		c0,0-0.1,0-0.1,0c0,0,0,0,0,0c0,0,0.1,0.1,0.1,0.1c0,0,0,0,0,0l0,0c0,0,0-0.1,0-0.1c1.8,0.2,3.6,0.6,5.4,0.6c4.3,0,7.5-3.4,7.3-7.8
		C774.7,299.2,771.5,296.5,767.4,296.7z"/>
	<path fill="#FFDE17" d="M774,273.3c0,3.8,2.4,5.6,5.9,6c1.5,0.1,3,0.1,4.4,0c0.5,0,0.9,0,1.4,0c0.4-2.5,1.3-5.1,1-7.5
		c-0.5-3.9-3.5-5.5-7.3-5C775.8,267.3,774,269.7,774,273.3z"/>
	<path fill="#FFDE17" d="M785.8,279.4c0,0,0.1-0.1,0.1-0.1C785.9,279.3,785.8,279.3,785.8,279.4
		C785.8,279.3,785.8,279.3,785.8,279.4C785.8,279.4,785.8,279.4,785.8,279.4z"/>
	<path fill="#FFDE17" d="M772,279c-0.8,0-1.5,0-2.3-0.1c-1.6,2.1-4.2,4-4.7,6.3c-0.7,3.4,2.1,5.5,5.5,5.4c3.6-0.1,5.4-2.9,5.1-6
		C775.5,282.7,773.3,280.9,772,279z"/>
	<path fill="#FFDE17" d="M547.2,205.3c-3.5-1.3-6.7-0.6-8.4,3.1c-1.1,2.4-1.7,5-2.5,7.6c3.1,0.5,5.5,0.9,7.9,1.3
		c3.2,0.4,6.2,0.1,6.9-3.8C551.8,209.9,551,206.7,547.2,205.3z"/>
	<path fill="#FFDE17" d="M651.1,217c2.4,0.5,5.2-0.5,9.1-1c-1.7-3.5-2.6-7.2-4.9-9.3c-1.7-1.5-6-2.1-7.9-1c-1.9,1.1-3.3,5.2-2.7,7.4
		C645.2,214.8,648.7,216.5,651.1,217z"/>
	<path fill="#FFDE17" d="M417.2,280c3.8-1.3,5.2-4.5,3.8-8.4c-1.1-3.2-5.2-4.9-8.7-3.8c-4.6,1.5-5.6,7.1-2.3,12.4
		C412.4,280.2,415,280.8,417.2,280z"/>
	<path fill="#FFDE17" d="M410,280.2C410,280.2,410,280.2,410,280.2C410,280.2,410,280.2,410,280.2C410,280.2,410.1,280.3,410,280.2
		C410.1,280.3,410,280.2,410,280.2C410,280.2,410,280.2,410,280.2C410,280.2,410,280.2,410,280.2z"/>
	<path fill="#FFDE17" d="M425.2,291.8c2.4-0.4,5.7-3.3,6.1-5.7c0.7-3.5-2.5-5.3-7.5-6c-1,1.4-3.4,3.3-3.7,5.4
		C419.7,288.8,421.4,292.5,425.2,291.8z"/>
	<path fill="#FFDE17" d="M761.4,148.5c-3.1,0.3-5.2,2.4-5.2,6.4c0,3.9,3.1,6.4,7.4,6.3c4-0.1,5.6-2.5,5.7-6.1
		C769.4,151,766.4,148.4,761.4,148.5z"/>
	<path fill="#FFDE17" d="M746.6,441.4c7.1-0.1,12.7-6.3,12.5-14c-0.2-6.7-5.6-12.2-12.3-11.7c-9.9,0.7-13.3,3.2-13.8,13.2
		C732.5,436.3,738.5,441.5,746.6,441.4z"/>
	<path fill="#FFDE17" d="M808.7,257.9c3.7-0.5,6.7-4.1,6-7.7c-0.1-0.3-0.1-0.5-0.2-0.8c-0.5-1.7-1.5-3.3-2.3-5c0,0,0,0,0,0
		c-1.6,0-3.2-0.1-4.8,0.1c-4.3,0.5-5.8,3.5-5.7,7.3C801.7,255.5,805.2,258.3,808.7,257.9z"/>
	<path fill="#FFDE17" d="M817.4,243.4c3.7-1.5,5.5-4.4,4.2-8.3c-1.3-3.9-4.7-5-8.5-4c-3.8,1-5.4,3.9-4.4,7.6c0.6,2,2.2,3.8,3.4,5.6
		c0,0,0,0,0,0c1.5-0.3,3.2-0.3,4.6-0.7C817,243.6,817.2,243.5,817.4,243.4z"/>
	<path fill="#FFDE17" d="M812.2,244.3C812.2,244.3,812.1,244.3,812.2,244.3C812.1,244.3,812.1,244.4,812.2,244.3c0,0,0,0.1,0,0.1
		c0,0,0.1,0,0.1,0C812.2,244.4,812.2,244.4,812.2,244.3z"/>
	<path fill="#FFDE17" d="M816.4,228.7c2.5-0.6,4.5-3.4,6.7-5.2c-0.1-0.7-0.1-1.5-0.2-2.2c-2.1-1.3-4.8-4.2-6.3-3.7
		c-2.2,0.7-4.7,3.6-5.2,6C810.7,226.7,813.4,229.5,816.4,228.7z"/>
	<path fill="#FFDE17" d="M686.4,263.8c-3.8-7.8-24.3-16.2-31.1-12.8c5.8,4.3,11.5,8.8,17.5,12.8C677.8,267.2,682.2,267,686.4,263.8z
		"/>
	<path fill="#FFDE17" d="M509.2,261.9c-1.7,2.5-0.4,4.2,2,4.1c3.9-0.2,8.3-0.2,11.5-2c6-3.5,11.2-8.2,17.2-12.7
		C531.6,249.5,513.1,256.2,509.2,261.9z"/>
</g>
</svg>
