<?xml version="1.0" encoding="utf-8"?>
<!-- Generator: Adobe Illustrator 27.3.1, SVG Export Plug-In . SVG Version: 6.00 Build 0)  -->
<svg version="1.1" id="Layer_1" xmlns="http://www.w3.org/2000/svg" xmlns:xlink="http://www.w3.org/1999/xlink" x="0px" y="0px"
	 viewBox="0 0 1200 800" enable-background="new 0 0 1200 800" xml:space="preserve">
<g>
	<path fill="#C49A6C" d="M773.8,363.9c1.1,0.7,3.1,1.6,3.9,1.1c2.9-1.8,5.4-4.1,8-6.2c-0.1-0.4-0.1-0.7-0.2-1.1
		c-5.4,0.4-10.8,0.9-16.7,1.4C771.2,361.4,772.3,362.9,773.8,363.9z"/>
	<path fill="#C49A6C" d="M430.4,358.8c-4.2-0.6-8.6-0.6-14.3-0.9c4.1,3,6.7,5.6,9.8,6.7c1.8,0.7,4.5-1.1,6.8-1.8
		C432,361.4,431.4,358.9,430.4,358.8z"/>
	<path fill="#C49A6C" d="M617.6,271.4c-3.8-1.2-6.5-2.1-9.5-3.1C608.6,273.4,610.5,274,617.6,271.4z"/>
	<path fill="#C49A6C" d="M595,271.2c0.2-0.1,0-1.2,0-1.8c-1.5,0-3.1-0.1-4.6,0.1c-0.9,0.1-1.6,0.8-3,1.6c1.5,0.6,2.3,1.3,3.1,1.2
		C592,272.2,593.5,271.7,595,271.2z"/>
	<path fill="#C49A6C" d="M957.7,233.5L957.7,233.5c-5.7-40-20.1-76.7-46-108.7c-43.9-54.1-100.7-75-168.3-58
		c-68.2,17.2-113.3,62-138.8,127c-1,2.6-1.8,5.2-3.2,8.9c-1.1-2.4-1.8-3.7-2.3-5c-13.5-36.3-35.6-66.5-64.8-91.7
		c-18.5-16-39.1-28.6-62.5-35.8c-23.1-7.1-46.5-11.8-71.3-9c-50.8,5.5-90.8,29.1-119.8,70.4C243,185.5,231.4,245.5,243.6,310
		c4.2,22.2,10.8,43.7,19.9,64.3c23.1,52.3,55.3,98.7,94.2,140.4c4.7,5,9.9,9.6,16,15.6L523.1,650c26.6,26.9,52.3,54.7,75.3,84.8
		c1.2,1.5,2.6,2.9,4.2,4.6c1.4-1.5,2.5-2.5,3.3-3.6c26.2-34.9,55.2-67.2,86.9-97.1c1.8-1.7,3.6-3.7,4.4-6c0,0,86.2-69.6,127.2-98.9
		c13-9.3,27.4-24,41.3-40.6l0,0l0,0c27.2-32.4,52.3-71.8,61-91.2c1.9-4.2,3.9-8.2,5.9-12.3C943,369.1,970.5,305.9,957.7,233.5z
		 M943.4,324.7l-1.7-0.8l2.2-1.6C943.8,323.1,943.6,323.9,943.4,324.7z M931.5,362.3c-2.6,6.6-5.6,13.3-8.9,20.1
		C920.3,376.6,918.6,366.4,931.5,362.3z M726.8,571.3c1.5-3.1,2.9-6.5,4.7-9.7c0.5-0.9,1.9-1.8,3-1.9c2-0.3,4,0,6,0l8.3-0.1
		L726.8,571.3z M750,550.5c-2-0.1-4,0.1-5.8-0.4c-6-1.7-12.2-3.2-17.7-5.9c-2.4-1.2-4.5-5.1-4.9-8c-0.7-6.1-1.6-11.8-5.1-17
		c-2.2-3.2-1.4-6,1.9-8.1c8.9-5.7,18.5-7.6,28.6-3.9c9.1,3.3,11.5,7.7,9.5,17.2c-0.5,2.5-0.6,4.7,2.2,6.6l15.5,17.4L750,550.5z
		 M667.8,555c-2,2.5-3.9,3.4-7.5,2.8c-4.4-0.7-9.1,0.7-13.6,1.3c15.8-4.2,26.8-15.6,39-25.5c-0.8,1.1-1.5,2.2-2.4,3.2
		c-1,1.1-2.1,2.1-3,3.3C676,545,671.8,549.9,667.8,555z M676.2,601.1c-2.9-0.8-5.3-1.5-8.6-2.4c0.9-6.6,1.8-13.9,2.7-21.1
		c0.3,0,0.6,0,0.9,0C673,585.4,674.6,593.2,676.2,601.1z M532.3,548.9c-4-5.2-8.4-10.1-12.7-15.1c12.3,9.4,23.2,20.8,38.8,25.2
		c-3.6-0.7-7.6-2.6-10.9-1.8C539.4,559.4,536.2,554,532.3,548.9z M537.2,598.3c-3.2,0.9-5.5,1.5-8.3,2.3c1.4-7.3,2.8-14.4,4.2-21.6
		c0.4,0,0.7-0.1,1.1-0.1C535.3,585.4,536.2,591.8,537.2,598.3z M521.5,556c2,8.5,3.9,17.1,5.9,25.6c-5.7-2.3-8.8-4.8-6.6-11.2
		C522.3,566.2,521.1,561,521.5,556z M428.7,431.3c-13.2-6.9-26.5-13.9-40-21c9.7-4.3,19.4-4.7,29.5,0.5c-1.1-8-11.4-16.6-21.9-18.8
		c0.1-0.5,0.2-0.9,0.3-1.4c4.1,0.9,8.2,1.8,13.2,2.8c-2.7-4.3-5-8.1-7.4-11.8c0.3-0.6,0.7-1.1,1-1.7c7.7,9.2,17.5,12.4,30.1,12.1
		c-6.9-8.4-12.7-16.5-19.6-23.4c-5.8-5.8-6.6-6.1-2.5-13.3c2.6-4.6,5.5-9,9-14.8c1.4,7.4,5.3,10.8,10.6,13.2
		c2.1,0.9,3.4,3.8,5.9,6.7c-0.8-2.8-1.2-4.3-1.6-5.8c8.4-1.1,8.4-1.1,5.3-9.9c3.9,0.2,8,1.1,11.9,0.4c3.8-0.7,7.3-2.9,11.8-4.9
		c-3.2,8.6-7.8,16.8,1.1,24.9c-7,0-12.9,0-19.3,0c0.8,4.7,1.7,9.2,2.4,13.8c0.7,4-0.4,7.1-4.5,9c-8.6,4-11.7,11.2-11.5,20.4
		C432.8,416.1,434.3,424.3,428.7,431.3z M342.8,352c0.1,3.1-1.4,4.7-4.1,4c-5.7-1.5-11.4-3.3-16.9-5.4c-8-3.1-15.7-6.8-23.8-9.8
		c-6.5-2.4-14.1-13.6-13.8-21.6c0.1-1.8,0.2-3.5,0.3-5.6c-4.6,0.1-4.3,3.9-5.7,6.1c-0.9,1.5-2.2,2.8-3.4,4.1
		c-0.6-1.8-1.7-3.6-1.6-5.4c0.3-4.2,0.8-8.8,5.7-10.1c6.2-1.8,10.8,2,15.1,5.8c1.6,1.4,2.4,3.6,3.6,5.4c2.9,4.5,5.7,5.1,11.2,2
		c-7.8-1.9-6.8-9.4-10.8-14.8c7.1-0.9,11.5,2.5,16.2,5.6c5.3,3.6,11.3,3.7,18.8,3.2c-3.7-4-6.2-6.7-8.2-8.8
		c2.5-5.7,4.7-10.8,7.5-17.3c10.3-4.7,22.5-9.7,37.3-5.7c-5.7,4.2-10.2,8.4-6.7,16.6c1.3-2.3,1.9-4.2,3.2-5.3
		c1.9-1.6,4.3-3.5,6.6-3.6c1.5-0.1,3.6,2.7,4.5,4.6c2.9,6,0.4,18.8-4.4,23.4c-3.2,3.1-7.1,2.5-10.8,1.2c-4.1-1.5-6.6-4.5-6.6-9
		c0-0.8,0-1.7,0.1-2.5c1.8-13.2-3.1-16.7-16.6-11.2c1.8,4.8,5.8,7.3,10.1,8.6c3.4,1,4.2,2.7,4.6,6c0.4,3.1,2.1,5.9,3.4,9.3
		c-1.3,0.2-3.3,0.5-5.3,0.9c-6.3,1.3-9.8,5.5-9.8,11.9C342.4,340.4,342.5,346.2,342.8,352z M344.4,377.6c-0.3,0.5-0.7,1.1-1,1.6
		c-6.9-0.4-13.9-0.4-20.8-1.2c-6-0.6-9.5-5.1-12.5-9.8c-0.6-1-0.1-3.3,0.7-4.4c2.7-3.7,7-4.7,10.7-2.9c5,2.4,9.3,6,13.9,9.1
		c1.6,1.1,3.2,2.3,4.7,3.5C341.7,374.9,343,376.3,344.4,377.6z M292.4,364.4c2,0.2,3.6,5.9,5.4,9.1c-0.5,4.4-3.1,4.3-5.7,4.5
		c-4.4,0.3-3.8-2.8-3.7-5.3C288.7,369.3,287.2,364,292.4,364.4z M279.4,333.1c7.3,2.1,16.4,15.5,13.8,20.2c-0.5-0.4-1.2-0.8-1.5-1.3
		C287.7,345.8,283.6,339.5,279.4,333.1z M274.6,254c1.5,0,3.2,1.4,4.4,2.7c4.2,4.4,6.5,5,12.9,2.1c-1.8-0.6-3.1-0.9-4.3-1.4
		c-4.4-1.7-4.8-4.3-3.5-8.7c0.7-2.3-0.6-5.6-2-7.9c-1.6-2.7-3-10.5-1.1-12.9c0.5-0.6,2.2-1,2.9-0.6c1.4,0.8,2.7,2,3.7,3.3
		c6.4,8.9,10.2,18.7,10.2,29.7c0,1.9-0.4,3.8-0.7,6.2c-1.7-1.2-2.7-2-3.8-2.6c-3.8-1.9-5.8-0.6-6.3,3.7c-0.3,3.1-0.6,6.3-1.5,9.3
		c-1.1,3.9-4.1,5.7-8.1,4.9c-1.4-0.3-3.2-1.9-3.4-3.2c-1.5-9.7-1.4-9.7-11.4-12C262.8,261.5,270,253.9,274.6,254z M273,226.4
		c-1.4-3.6-2.3-6.1-3.3-8.8C274.7,216.9,275.6,219,273,226.4z M301.2,285.6c-0.6,0.4-1.5,0.5-3.6,1.1c8.1-8.8,12.5-18.1,10.9-28.5
		c-1.5-9.6-5.2-18.9-8-28.3c4.6-0.7,10.1-1.3,15.4-2.3c10.5-1.9,16.9,2.9,18,13.7c0.9,8.5-2.7,15.6-7.3,22.3
		C320.1,273.1,311.1,279.9,301.2,285.6z M301.5,300.3c-3.8,0.8-7.6,1.5-11.4,2.3c-0.1-0.6-0.3-1.3-0.4-1.9c3.8-0.8,7.5-1.7,11.3-2.5
		C301.1,298.9,301.3,299.6,301.5,300.3z M296,218.9c-1.8-3.2-3-6.8-4.4-10.3c0.6-0.2,1.3-0.5,1.9-0.7c2.4,3.6,4.7,7.2,7.7,11.6
		C299,219.3,296.5,219.7,296,218.9z M373.5,253.8c7.7-4.3,14.1-9.3,17-18c0.6-1.8,2-3.3,3.6-5.9c-3.5-7.3-7.9-16.6-12.6-26.5
		c2.6-0.2,4.7-0.4,6.7-0.6c12.7-1.3,25.5-2.6,38.2-4c1.7-0.2,3.3-0.5,5-0.5c3.6,0,5.3,1.3,4.9,5.5c-0.4,4.5-0.4,9.4,0.7,13.8
		c3.8,15.8,1.4,21.7-12.9,29.2c-1.4,0.7-2.8,1.6-4.2,2.4c0.1,0.6,0.3,1.2,0.4,1.9c7.4-1,15.1-1.1,22.1-3.4c7.8-2.6,8.9-11.3,12.1-19
		c1.8,3.6,3.6,6.2,4.6,9.1c0.4,1.4-0.2,3.7-1.1,4.8c-6.7,7.2-13.2,14.6-20.5,21.2c-8.5,7.6-19.3,9.9-30.2,9.8
		c-6.9,0-12-5.5-16.3-10.5c-2.6-3-0.4-6.7,4-7.5c3.5-0.6,7.1-0.9,10.7-1.4c0-0.6,0.1-1.2,0.1-1.9c-5.4-0.4-10.9-1.5-16.2-0.9
		c-4.7,0.6-5.4,5.2-4.6,9.2c1.2,5.4-1.1,6.3-5.9,6.6c-9.7,0.7-19.4,2.2-29,3.4c-0.3-0.3-0.6-0.6-0.9-0.9
		C357.2,264.4,365,258.5,373.5,253.8z M349.4,263.6c8.1-13.3,8.7-28.3,10.9-42.9c0.4-3,0.9-5.9,1.7-8.8c1.4-4.6,4.6-7.2,9.4-7.8
		c4.6-0.5,8,1.6,10.5,5.4c4.9,7.5,3.4,16.9-3.4,23.1c-2.4,2.2-5.4,4.5-6.5,7.4C368.1,251.4,357.1,255.9,349.4,263.6z M442.7,190.2
		c2.8-2.1,6.3-4.7,10.8-8.2c-1.8,5.9-3.2,10.4-4.7,15.3C446.6,194.8,444.8,192.7,442.7,190.2z M482.4,134.7
		c17.6-6,34.5-3.1,50.6,5.6c1.6,0.9,3.3,2,4.2,3.4c1.2,2.1,3,5.5,2.2,6.9c-1.6,2.8-3.2,6.3-8.1,5.8c-14.8-1.4-29.6-0.9-44,3.8
		c-11.1,3.6-21,9.2-29.8,17c3-3.7,6-7.4,9-11c-0.2-0.5-0.5-0.9-0.7-1.4c-3,0.6-6,1.2-9.9,1.9C461.2,152.5,467.4,139.8,482.4,134.7z
		 M472.4,122.5c2-0.1,3.9-0.3,6.4,0.4c-3.1,2.2-6.2,4.5-9.5,6.7C466.4,123.7,466.9,122.9,472.4,122.5z M484.6,279.5
		c3,4.5,5.7,9.4,7.4,14.4c1.7,5.1,0.3,6.2-5.1,6.7c-1.1,0.1-2.7,1.2-3.1,2.2c-3.1,7.9-5.1,8.5-12.9,2c0.3,3,0.1,5,0.7,6.6
		c0.7,2,2.1,3.7,3.1,5.5c-0.2,0.6-0.4,1.1-0.6,1.7c-3-0.6-6.1-0.8-8.9-2c-2.5-1.1-4.9-2.9-6.8-4.9c-4.2-4.2-3.9-6.1,1.6-10.8
		c-2.9-0.6-4.8-1-6.6-1.2c-12.8-1.8-18.3-11.8-12.3-23.3c6-11.4,15-20.3,25.4-27.7c1.2-0.8,3.9-1.1,4.8-0.3c2.1,1.8,5.1,4.6,4.8,6.7
		C474.8,264.9,479.6,272.1,484.6,279.5z M726.9,255c-0.4-4.9,6.6-8.3,10.6-5.5c9.5,6.7,17.5,14.9,23.5,24.9c1,1.7,1.8,3.6,2.4,5.5
		c3.3,10-1.8,18.1-12.1,19.9c-2.2,0.4-4.5,0.8-7.4,1.4c4.5,5.7,4.2,8.7-0.7,12.9c-4.1,3.6-9.3,5.1-13.8,4.1c0.2-4,5.9-7.3,1.8-12.1
		c-5.3,5.5-8.1,4.7-11.2-2.5c-0.5-1.2-2.7-2.5-4.1-2.5c-4.5,0-5.9-2.4-4.8-6.1c1.3-4.2,2.6-8.7,5.1-12.2
		C722.4,274.4,727.9,266.2,726.9,255z M761,248.1c6.8,2.2,14.4,2.3,21.7,3.3c0.1-0.6,0.3-1.3,0.4-1.9c-2.7-1.5-5.4-3-8-4.5
		c-9.9-5.8-12.3-11.7-10.4-23c1-6.1,1.2-12.4,1.3-18.7c0.1-3.3,1.4-4.9,4.4-4.7c3.6,0.2,7.2,1.2,10.8,1.6
		c11.3,1.1,22.5,2.1,33.8,3.2c1.8,0.2,3.5,0.2,6,0.4c-4.1,8.4-7.8,16.1-11.5,23.9c-1.2,2.5-4,5.3,1.1,6.9c0.7,0.2,1.3,1.5,1.6,2.4
		c3.1,8.6,9.7,13.4,17.3,17.8c9.3,5.3,18,11.7,26.6,18.5c-11.6-4.6-23.6-5.1-35.7-5.8c-1.1-0.1-2.6-2.3-3-3.8c-0.5-1.8,0.2-4,0-5.9
		c-0.4-3.8-2.7-6.4-6.5-6.4c-4.4,0-8.8,0.8-13.1,1.3c0,0.4,0,0.9,0,1.3c3,0.6,6.2,0.7,9.1,1.8c2.1,0.8,4.8,2.4,5.4,4.2
		c0.5,1.5-1,4.5-2.5,6c-6.7,6.3-14.2,9.9-24,7.4c-9.8-2.5-18.6-6.2-25.3-13.9c-4.4-5-8.9-10-13.7-14.5c-3.5-3.3-3.9-6.2-1-9.8
		c1-1.3,1.7-2.8,3-5.2C751.8,237.4,753.4,245.6,761,248.1z M749.3,183.9c0.2-0.3,0.5-0.6,0.7-0.9c3.7,2.6,7.4,5.3,11.2,7.9
		c-2.4,2.2-4.5,4.2-7.1,6.5C752.5,192.8,750.9,188.4,749.3,183.9z M830.1,204.8c5,0.3,8,3.4,9,8c1.5,6.3,2.6,12.7,3.7,19.1
		c2.2,12,4,24.2,11.7,34.3c-5.7-4.6-12.9-8.3-16.9-14.1c-5.6-8.3-11.1-16.5-17.7-24.2c-4-4.6-2.9-11-0.2-16.6
		C821.9,207,825.1,204.4,830.1,204.8z M926.1,226.9c0.2-3,0-6.1,0.8-8.9c0.3-1,2.9-1.4,4.5-2c0.4,0.5,0.9,0.9,1.3,1.4
		c-1.3,3.4-2.7,6.7-4,10.1C927.8,227.2,927,227.1,926.1,226.9z M934.5,354.3l-6.9,0c0,0,5.6-11,11.6-14.1
		C937.8,344.8,936.3,349.5,934.5,354.3z M912.6,302c-3.7,2.2-8.1,1.3-11.9-3.1c4,0.5,8.1,1.1,12.4,1.7L912.6,302z M918.9,307.8
		c0.4-0.1,0.8-0.2,1.2-0.5c10.6,4.8,6,16.7,6,16.7l-9-15.8C917.7,308.1,918.3,307.9,918.9,307.8z M929.6,272.3
		c-0.9,1.2-0.7,2.9,0.1,5.6c0.3-0.5,0.7-1.1,1-1.6c0.6,1,1.3,1.6,1.3,1.6c-1.4,4-4.6,5.5-7.7,5.9c-0.8-1-2.1-1.9-4-2.5
		c-1.4-0.5-2.4-3.1-2.9-4.9c-0.7-2.4-0.5-5-1.1-7.4c-0.4-1.6-1.1-4.1-2.2-4.4c-1.6-0.5-3.7,0.5-5.4,1.2c-1,0.4-1.7,1.5-2.7,2.4
		c-0.6-1-1.3-1.6-1.3-2.4c-0.3-2.3-0.4-4.6-0.3-6.8c9.9,7,20.8-1.8,24.7-5.5c7.2,6.3,12.7,14.6,12.7,14.6
		C932.9,268.3,930.1,270.2,929.6,272.3z M921,254.6c-4.6,2.9-12.3,2.5-16.8,2c0.6-9.5,3.9-18.3,9.9-26.3c1.3-1.7,3.8-2.4,5.4-3.4
		c5.1,8.5,0.8,14.8-2.4,21.3C918.4,250.2,919.7,252.4,921,254.6z M893.6,260.5c0.5,11,4.7,20.3,13.2,27.6c-0.7,0.4-1,0.8-1.2,0.7
		c-17.1-4.6-34.8-24.5-36.8-41.8c-0.4-3.2-0.1-6.7,0.8-9.8c2.1-7.6,6.9-10.5,14.7-9.3c3.1,0.5,6.2,1.3,9.3,1.6
		c2.9,0.4,5.9,0.4,10.1,0.6C897.7,240.1,893.1,249.5,893.6,260.5z M870.8,290c0.7,0.3,1,1.5,1.4,2.3c1.5,3.7,2.5,7.7,4.5,11.2
		c1.3,2.4,1.5,3.7-0.5,5.5c-2,1.9-3.8,4-5.8,6.1c0.3,0.4,0.7,0.9,1,1.3c6.1-0.6,12.3-0.3,17.7-4.8c4-3.4,8.6-6,15-4.7
		c-3.3,6-6.2,11.3-9.1,16.6c3.7,0.9,7.4,0.3,9.4-4.6c1.7-4.1,4.4-7,7.9-8.9c4.2,7.1,8.1,18.6-1.4,28.2c0,0,0-0.1,0-0.1
		c-17.1,6.2-32.4,15.9-51.2,20.1c0-7.9-0.2-14.2,0.1-20.5c0.4-7.4-2.1-11.3-9.2-13.3c-2.3-0.6-4.7-1.2-8.6-2.1
		c6.4-3.8,7.3-8.6,5.5-14.2c6.1-1.6,12.1-2.7,15.4-10c-4.4-0.4-8.1-0.9-11.8-1.1c-4.2-0.2-6.2,2.4-6.1,6.2c0,2.8,0.9,5.6,1.3,8.3
		c0.7,4.1-0.9,7.9-4.6,9c-3.3,1-7.9,1.2-10.7-0.4c-5.2-2.9-8.7-17.9-6.1-23.3c1-2,3.2-4.6,4.9-4.8c2.2-0.1,4.7,1.9,6.7,3.4
		c1.2,0.8,1.7,2.5,2.6,3.8c0.5-0.2,1-0.3,1.5-0.5c-0.5-2.6-0.5-5.5-1.7-7.7c-1.3-2.5-3.8-4.3-6.1-6.7c1.3-0.6,2-1,2.8-1.2
		C848.3,280.8,859.7,284.6,870.8,290z M838.1,488.4c-1.2-5.5-2.2-12.9-1.8-20.2c3.1-0.7,7-2.2,11.6-5c0,0,7.7-5.7-5.5,17.1
		C842.4,480.3,840.3,483.6,838.1,488.4z M846.4,443.7c-0.1-1.5-0.2-3-0.3-4.4c-0.2-8.2-0.7-8.6-8.7-5.9c-0.3,0.1-0.6-0.1-1.1-0.1
		c-0.2-0.5-0.3-1.5-0.7-1.7c-2.3-0.8-4.9-2.3-7.1-1.9c-1.7,0.3-3.3,2.9-4.1,4.9c-0.1,0.2-0.1,0.4,0,0.7l0,0.3
		c-4.2-1.8-8.4-2.3-11.5-2.3c-1.4-0.8-2.9-1.5-4.4-2.1c-1.9-0.8-3.9-1.2-7.2-2.1c2.4-2.4,3.7-4.5,5.5-5.5c9.7-5.3,20-8.9,31.1-6.8
		c12.6,2.4,23.2,8.6,24.2,22.1C862.2,438.8,860.8,467.5,846.4,443.7z M779.7,469.5C779.7,469.5,779.7,469.5,779.7,469.5
		c-0.6,2-1.1,3.9-1.6,5.8c0.1,0,0.3,0.1,0.4,0.1c-1.3,3.5-3.5,6.7-5.9,9.3c-3.1,0.7-6,1.6-8.8,1.2c-13.3-1.8-13.4,0.6-9.6-13.3
		c5.4-19.3,18.1-31.9,36.9-38.2c3.4-1.1,7.4-0.6,12.3-0.9c-1.8,3.1-3.3,4.5-3.3,5.9l-18.7,23.8L779.7,469.5z M705.8,484.7
		c0.6,4.2-1.1,5.8-5.2,6.6c-8.7,1.8-17.3,4.3-27.1,6.8c4.4-9.5,8.9-18.7,13.1-28.1c2.2-4.8,3.8-9.9,5.8-14.8
		c0.6-1.4,1.4-3.1,2.6-3.9c6.9-4.6,7.1-4.5,12.4,2.1c1.1,1.4,2.2,2.9,3.4,4.3c1.7,2.1,2,4,0.2,6.2
		C706,470.1,704.8,477.2,705.8,484.7z M521.8,465.5c-0.2-1.4,1.5-3.6,2.9-4.7c4-3.3,8.2-6.4,12.3-9.5c-0.3-0.4-0.5-0.7-0.8-1.1
		c-5.7,0-11.3,0.1-17,0c-3.5-0.1-5.9-2.3-5.7-5.6c0.1-1.9,2-4.6,3.8-5.5c7.8-3.7,15.7-7.4,23.9-9.9c6.8-2.1,13.6-0.8,18.8,4.8
		c5.5,6,4.7,12.8-1.9,17.5c-11.2,8-11.9,12-4,23.5c5.9,8.7,11.3,10.4,22,7c12.1-3.8,12.3-3.8,17.2,8.1c1.8,4.3,2.9,9,4.3,13.4
		c-0.6,0.3-1.3,0.6-1.9,1c-3.5-3-6.7-6.4-10.5-9c-4.8-3.2-9.7-6.7-15.1-8.3c-7.4-2.3-11.7,0-15.1,7c-3.2,6.5-5.5,13.5-8.2,20.2
		c-9.4-5.8-17.2-27.6-10.8-38.3C526.2,477.8,523.2,475.8,521.8,465.5z M494.4,463.7c-0.9-1.2-0.7-3.9,0-5.5c0.9-2.2,2.8-4.1,4.3-6.1
		c4.1-5.2,11.2-4.6,13.8,1.4c6,13.8,11.7,27.8,17.5,41.8c0.4,1,0.5,2.1,0.6,2.4c-9.1-2.4-18-5-26.9-7.1c-3.6-0.8-4.7-2.5-4.1-5.9
		C501.2,476.9,499.3,470,494.4,463.7z M468.7,350.6c1.2-4.3,3.9-8.4,4.2-12.7c0.6-9.3,7.1-12.5,14.2-14.1c8.5-2,17.3-2.6,27.1-4
		c-7,6.7-12.4,12.3-18.2,17.4c-1.6,1.3-4.5,1.1-7.2,1.6c0,3.6-0.1,7.4,0,11.2c0.1,4.1-2,6.3-5.8,6.7c-3.1,0.4-6.3,0.5-9.5,0.4
		C468.8,356.8,467.4,355,468.7,350.6z M450.3,336.9c-8.2-0.7-14.6-4.6-17.2-12.9c-2.9-9.3-3.6-18.7-1.3-27.7
		c6.2,2.8,11.8,5.1,17.2,7.7c1,0.5,2,1.7,2.4,2.8c2.7,8.8,9.3,12.5,17.6,14.1c5.9,1.2,6.1,2,3.3,7.4
		C467.4,337.8,458.8,337.6,450.3,336.9z M470.2,381.1c8.4-3.2,18.2,3.7,18.5,12.7c0.1,3.3-0.6,5.1-4.5,4.5c-2.4-0.4-5-0.7-7.5-0.4
		c-8.8,1.1-14.2-2.8-17.4-11.5C463.1,384.5,466.5,382.5,470.2,381.1z M478.4,370.2c2.1-1.1,3.5-1.9,4.9-2.5
		c8.4-3.3,13.4-9.5,14-18.4c0.5-7.8,4.2-12.8,11-15.8c14-6.1,28-12.1,41.9-18c0.9,1.5,1.3,1.9,1.2,2c-3.1,9.7-6.1,19.4-9.5,28.9
		c-0.8,2.3-3.4,4-4.9,6.2c-0.8,1.2-1.8,3.1-1.5,4.3c1.3,5.2-0.9,8.3-5.4,10.4c-6.6,3.1-13.5,3.3-20.5,2c-3.1-0.6-6.1-1.5-10.1-2.4
		c3.4,4.9,3.4,4.9,18.2,11.3c-3.4,5.5-6.9,10.9-10,16.6c-5.1,9.2-4.1,14.5,4,21.1c3.7,3,2.4,6.8,1.5,10.1c-0.8,2.9-3.1,5.5-4.8,8.2
		c-0.7-0.1-1.4-0.1-2.1-0.2c-2.7-7.8-5.6-15.4-7.9-23.3c-1.3-4.6-1.6-9.5-2.5-14.3C493.7,385.8,487.7,377.4,478.4,370.2z
		 M582.1,399.3c0.7,1.3,1.1,2.8,1.4,4.2c1.2,6.2,0.5,6.9-5.9,7.5c-4.4,0.4-8.7,1.5-13.3,2.3c3.7-4.6,7.6-8.4,10.2-12.9
		c5.7-9.8,2.5-17.9-8.2-21.6c-6.3-2.2-12.7-3.9-19.1-5.8c-1.7-0.5-3.3-1.2-5.3-1.9c1.8-5.6,3.5-10.7,5.6-16.9
		c4.6,9.3,10.4,16,20,18.4c9.2,2.4,17.7,0.5,25.6-4.7c0.3,0.4,0.6,0.7,0.9,1.1c-1.7,2.7-3.4,5.4-5.2,8.1c-2.1,3.2-4.4,6.3-6.3,9.6
		C580.4,390.8,579.9,395,582.1,399.3z M517.7,406.8c-1.2,2.4-0.9,7.1-5.9,5.8c-4-1-6.1-5.3-5.4-10.1c1.1-7.6,6.6-11.9,14.1-10.5
		c7.6,1.4,13.9,0.8,20.4-4.5c6.7-5.4,15.3-5.2,23.3-1.9c4,1.6,6.2,4.8,4.7,9.2c-1.1,3.4-2.3,7.1-4.6,9.8
		c-10.8,12.7-26,17.8-40.2,23.4c0-6-0.6-11.8,0.2-17.4c0.5-3.3,3.2-6.4,5.1-9.5c0.8-1.3,2.1-2.4,3.9-4.4
		C525.5,397.4,520.7,400.5,517.7,406.8z M567.5,443.3c0.7-0.1,1.5-0.1,2.2-0.2c3,5.2,6.1,10.2,8.9,15.5c1.8,3.4,1.6,6.4-2.9,7.7
		c-4.6,1.4-8.3,0.1-8.7-4.4C566.5,455.7,567.3,449.5,567.5,443.3z M585,454.7c10.7,4.4,22.7,5.3,34.9,0.8c-6,15.4-11.7,30-17.2,44
		C596.9,484.8,591,469.8,585,454.7z M617.8,480.7c1-1.1,4.1-0.9,6-0.6c3.7,0.7,7.3,2.2,11,3.1c5.7,1.3,10.6,0,14.1-5
		c1.5-2.2,3.3-4.2,4.6-6.5c5.4-9.5,4.1-14.2-5.2-19.6c-3.9-2.3-7.4-4.7-7-9.9c0.5-5.6,3-10.3,8.5-11.8c4.6-1.3,10.1-2.2,14.6-0.9
		c8.4,2.4,16.3,6.4,24.3,10.2c1.6,0.7,3.6,3.6,3.3,4.7c-0.7,2.2-2.9,5.2-4.7,5.4c-5.8,0.7-11.8,0.3-17.8,0.3c-0.3,0.3-0.6,0.7-1,1
		c4.3,3.2,8.5,6.7,13,9.6c2.7,1.7,3.5,3.3,2.2,6.1c-0.3,0.6-0.5,1.2-0.7,1.9c-0.6,1.6-1.1,2.9-1.6,4c-0.3,0.6-0.5,1.1-0.7,1.5
		c-1.7,3.1-3.5,3-9.8,2.8c1.6,10.4,0.5,19.8-4.5,28.2c-1.2,1.9-2.5,3.8-4.1,5.7c-1.2,1.4-2.5,2.7-4,4.1c-0.7-1.9-1.3-3.8-1.9-5.6
		c-1.5-4.1-2.7-8.3-4.5-12.2c-5-10.9-12.8-13.6-23.1-7.4c-5.5,3.3-10.2,7.9-15.3,11.9c-1.4,1.1-2.7,2.2-4.7,3
		C609.3,495.6,611.8,487.4,617.8,480.7z M627.4,458.4c2.2-5.1,5.2-9.9,7.8-14.8c0.7,0.2,1.5,0.3,2.2,0.5c0.5,5.5,1.4,11.1,1.3,16.6
		c0,2-2,4.9-3.8,5.6c-1.9,0.8-5.4,0.2-6.7-1.2C626.8,463.8,626.5,460.3,627.4,458.4z M619.8,383.7c-3.2-4.6-6.3-9.2-9.3-14.7
		c19.6,8.8,35.5,6.7,46.2-14.7c2.2,5.9,4.2,11.2,6.4,17.1c-4.7,1.5-9.3,2.9-13.8,4.3c-2.2,0.7-4.5,1.3-6.7,2
		c-16.5,4.8-19.5,14.2-8.8,27.8c2,2.6,4.4,4.9,6.9,7.7c-6.2-0.9-11.3-1.5-16.3-2.6c-1.3-0.3-3-2.3-3.1-3.6c-0.2-2.4,0.4-5,1.2-7.3
		C624.7,393.8,623.3,388.7,619.8,383.7z M636.2,397.2c-2.6-5.4-0.5-9.5,5-11.6c7.7-3,15.9-3.4,22.3,2c6.1,5.2,12,5.9,19.3,4.2
		c8.5-1.9,15.5,4.8,14.7,13.4c-0.2,1.6-0.7,3.3-1.6,4.6c-2.9,4-6.7,3.6-8.5-0.9c-2.8-7.2-7.8-11.3-16.9-12.2c2.7,2.8,4.4,4.6,6,6.5
		c2.9,3.4,4.5,6.8,3.6,11.8c-0.8,4,0.7,8.5,1.3,13.5c-3-1.2-6-2.1-8.6-3.5c-9.1-4.8-18.5-9.2-27-14.9
		C641.7,407.2,638.5,402,636.2,397.2z M699,434.9c-9.1-4.9-10.7-14.2-4.3-19.9c4.4-4,5.9-8.8,3.7-14c-3.3-7.9-7.6-15.4-11.5-23.3
		c5.4-1.9,12.2-3.5,16.7-10.2c-5.7,1-10.7,2.4-15.7,2.6c-4.4,0.1-9-0.6-13.1-2.2c-6-2.3-6.8-4.5-5.6-10.8c0.4-2.3,0.4-3.8-2.5-4.3
		c-1.1-0.2-2.5-1.3-2.9-2.3c-3.6-11-7.1-22-10.8-33.7c5.2,1.7,10.1,3.2,14.9,4.8c11.7,3.9,23.4,8,33.2,15.7c2.1,1.6,4.5,4.3,4.7,6.6
		c0.9,12.7,5.8,22.1,19.1,25.9c-0.8,1.2-1.1,1.9-1.5,2.3c-11.5,9.3-14.5,22.4-16.9,36.1C705,417.1,701.6,425.8,699,434.9z
		 M824.4,324.8c-2.3,3.5-4.5,7-6.8,10.4c0.4,0.3,0.7,0.7,1.1,1c3-2.2,6-4.3,8.9-6.5c5.4-4.2,11.4-5.2,18-4.1
		c8,1.3,11.7,8.3,8.1,15.7c-3.9,7.9-9.4,14.5-17.2,19c-10.2,5.9-20.4,11.8-30.6,17.7c-0.5,0.3-1.2,0.4-2.4,0.7
		c-0.2-4.5,0-8.5-0.7-12.4c-1.4-7.7-4.7-14.5-10.2-20.3c-6.9-7.3-10.2-15.6-8.4-26c2-11-0.1-21.5-5.7-31.3c-2.1-3.7-4-7.6-5.7-10.9
		c16.9,2.3,33.8,4.6,52.2,7.1c-6.3,6.6-11.4,12.5-17.2,17.4c-1.6,1.4-5.7-0.3-8.5-0.5C800.1,308.8,806.1,314.4,824.4,324.8z
		 M785.1,411.2c11-5.1,21.3-5.3,32.4,0.2c-8,3.6-15.2,6.6-22.1,10.1c-6.7,3.5-13.2,7.6-21,12.2c-1.2-5.4-2.6-10.1-3.2-14.9
		c-0.7-5.6-0.3-11.3-1-16.9c-0.7-5.8-3.9-10.4-9.4-12.6c-4.7-1.9-6.3-5.1-5.6-9.8c0.6-4.6,1.3-9.2,2-14.7
		c-6.1,0.4-11.6,0.7-18.6,1.1c8.5-9.6,3.7-17.7-0.5-26.3c7.7,4.4,15.2,8.6,24.9,3.6c-1.8,4.5-3.1,8.1-4.5,11.4
		c5.7-0.9,10.8-1.7,15.9-2.6c5.5-1,7-5.5,9.7-10.6c3.5,6.7,7,13.3,10.3,20.1c0.4,0.9-0.3,3.3-1.2,3.9c-7.6,4.7-11.4,12.4-16.4,19.2
		c-1.8,2.4-3.9,4.5-6.3,7.3c11.9,0.5,21.6-2.8,29.6-11.4c0.4,0.5,0.8,1,1.2,1.5c-2.3,3.7-4.6,7.3-6.5,10.4c5.8,0,11.3-0.1,16.8,0
		c4.4,0.1,14.7-6.2,16.3-10.2c1.2-3.1,0.1-4.9-3.3-5c-2.1-0.1-4.2,0.2-6.5-0.2c4.9-3.7,10.6-5.1,16.5-5.2c3.7,0,2.8,3.5,1.6,5.3
		c-3.3,4.7-0.4,5.5,3.4,6.3c3.9,0.8,7.8,1.8,11.7,2.6c2.9,0.6,3.9,2.2,2.9,5.1c-0.9,2.7-1.3,5.5-2.4,8.1c-2.6,6.3-8,10-14.6,8.8
		c-9-1.7-17.9-4.2-27.2-6.5c1-3,1.6-4.5,2.1-6C802,390.2,793,397.4,785.1,411.2z M842.4,365.5c3.9-5.2,7-9.3,10.6-14.1
		C854.1,359.2,851.5,362.8,842.4,365.5z M766.2,331.4c-2.7,3.3-8.1,5.5-12.5,6c-5.4,0.6-11.5-0.1-16.6-2c-5.2-1.8-7-7.3-8.6-12.9
		c3.6-0.8,6.5-1.2,9.3-2c6.7-1.9,11.2-6.2,13.6-12.8c0.5-1.4,1.5-2.9,2.8-3.5c5.2-2.6,10.6-4.9,16.9-7.7
		C773.2,308.2,774.8,320.7,766.2,331.4z M729.5,334.2c0.9,5.2,3.3,10.1,5,15.1c2,5.8,0.8,7.6-5.4,7.9c-0.5,0-1,0-1.5,0
		c-11.7,0.2-13.1-1.3-11.8-12.9c0.4-3.9,0.1-6.3-4.8-5.3c-0.9,0.2-2.3-0.4-3.1-1c-6-5.7-11.8-11.4-18.3-17.8
		c12.1,1.6,24.4,0.1,35.1,7C727.3,328.9,728.9,330.7,729.5,334.2z M733,381.1c4.4,1.4,8.4,3.7,12.8,5.7c-2.1,3-3.7,5.8-5.7,8.1
		c-1.2,1.4-3.2,2.7-4.9,2.8c-5.3,0.6-10.6,0.7-15.9,0.6c-1,0-2.7-1.7-2.9-2.9C715,386.6,724.4,378.4,733,381.1z M719.3,471.5
		c4-3.7,12.4-3.3,19.9,1.3c-5.5,6-10.6,11.6-15.8,17.2c-2.4,2.5-4.2,2-5.7-1.1C715.1,483.4,715.8,474.7,719.3,471.5z M742,477.5
		c0.5,0.4,0.9,0.7,1.4,1.1c-4.3,5.1-8.6,10.2-12.9,15.3c-0.4-0.3-0.9-0.7-1.3-1C733.4,487.7,737.7,482.6,742,477.5z M735.8,458.9
		c-5.9-0.6-8.5-6-10.7-9.9c-1.4-2.6,1.2-8.4,3.6-11.6c1.3-1.7,5.9-1.3,8.9-1.1c1.8,0.1,3.5,1.7,5.9,2.9c-1.2-8-5.4-12-12.2-11
		c-6,0.9-8.2-1.7-9.4-7.2c2.2-1.1,4.6-2.2,6.9-3.6c8.2-4.7,15.1-10.8,20-19c2.2-3.7,4.9-7.1,9.8-6.3c4.8,0.8,6.5,4.9,7.7,9
		c0.7,2.4,1.2,5,0.8,7.4c-1.3,9.2-2.6,18.4-4.6,27.5c-1.7,7.2-5.7,13.4-11.4,18.3C746.6,458.2,741.5,459.5,735.8,458.9z
		 M885.9,393.7c-3.6,1.8-7.2,3.6-11.9,5.9c0.9-5.8,1.6-10.3,2.4-14.8c0.1-0.4,0.5-0.9,0.8-1.2c5.3-3.5,10.6-7,16.1-10.7
		C897.7,382.9,895.6,389,885.9,393.7z M890.9,370.7c-3.5,5-7.9,8.7-14.2,8.9c-6.1,0.2-12.1,0-18.5,0c0.2-0.9,0.1-1.7,0.5-2.1
		c6.6-6.6,11.8-15.1,22-16.6c2.7-0.4,6.1,0.1,8.5,1.4C892.5,364.1,893.5,367.1,890.9,370.7z M720.5,266.3c-1.4,3.2-3,6.3-5.1,9.1
		c-5.7,7.5-9.8,15.5-10,25.1c-0.1,4.9-2.4,7.8-7.3,8.5c-6.9,1-13.8,2.2-20.7,3c-1.5,0.2-4.1-0.7-4.5-1.8c-0.5-1.3,0.5-3.4,1.3-4.9
		c0.8-1.5,2.2-2.7,3.3-4c-0.2-0.5-0.5-1-0.7-1.5c-2.1,0.4-4.2,0.6-6.2,1.3c-10.4,3.9-18.3,1.3-21.7-7.3c-3.8-9.7,0.1-19.9,10.4-22.9
		c8.5-2.5,18.3-5.8,26.3-3.8c11.8,3,20.4-2.2,30.2-5.2c1.4-0.4,3.1-0.2,4.7-0.2C720.5,263.2,721.1,265,720.5,266.3z M642.2,269.6
		c-0.8,0.3-2.5-0.3-2.9-1c-3.4-5.8-6.5-11.7-9.7-17.6c9.3,6.7,19.9,9.6,31.1,11.6C654.5,264.9,648.4,267.3,642.2,269.6z M633,309.9
		c0.2-0.4,0.8-0.5,1.2-0.8c14.8,10.2,21.3,34,13.1,48.4c-1.6,2.7-3,5.7-7.2,4.8c-1-0.2-2.5,0.8-3.5,1.6c-6.2,5.1-12.8,4.1-19.2,0.9
		c-6.3-3.2-8.4-9.2-8.7-15.8c-0.1-1.7,0.5-3.7,1.4-5.2C617.7,332.4,625.3,321.2,633,309.9z M610.2,388.3c-0.6,4.9,0.8,8.7,3.5,12.5
		c1.4,1.9,2.8,3.9,3.3,6.1c0.4,1.9-0.4,4.1-1,6.1c-0.6,2.2-2.4,4.2-2.4,6.4c0,5.4,0.4,10.6-4.9,14.4c9.4-0.4,17.4-3.1,24.2-9
		c4.8-4.2,10.2-3.5,15.9-1.7c-0.8,0.4-1.6,0.9-2.4,1.1c-16.4,3.6-28.5,13.1-37.8,26.8c-7,10.3-6.6,7.5-11.8,0.2
		c-9.4-13.4-21.3-23.3-37.7-26.9c-1-0.2-1.9-0.5-2.8-0.9c-0.2-0.1-0.4-0.5-1-1.3c6.6-0.5,12.6-1.7,18,3.2c6.2,5.6,13.9,7.9,21.1,8.5
		c-1.1-5.3-2.1-10.2-3.3-15.1c-0.4-1.6-0.8-3.6-1.9-4.5c-3.7-3-2.7-6.1-0.6-9.2c4.2-6.2,6.2-12.7,6.2-20.5c0-5.1,3.9-10.2,7-15.3
		C606,375.2,611.1,380.7,610.2,388.3z M588.4,364.1c-6.3,3.8-13,5-19.7,0.5c-0.7-0.5-1.4-1.2-2.1-1.2c-9.8-0.1-11-8-12.6-14.7
		c-2.9-12.2,5.5-32,17-39.8c8.1,12.2,16.3,23.9,23.8,36.1C598.1,350.2,594.6,360.3,588.4,364.1z M564.5,268.5
		c-0.4,0.7-2.4,1.1-3.3,0.8c-6.2-2.3-12.3-4.8-18.4-7.2c11.8-1.3,22-5.8,31.9-13.3C571,255.9,567.9,262.3,564.5,268.5z M543.6,269.6
		c6.4,1.3,10.9,5.8,12.7,12.2c1.7,6.3,0.8,12.4-4.2,17c-4.8,4.4-10.4,4.7-16.4,2.6c-3.1-1.1-6.2-1.8-9.4-2.7
		c-0.3,0.8-0.6,1.6-0.9,2.3c1.6,1.4,3.5,2.6,4.7,4.2c0.9,1.2,1.5,3.3,1,4.5c-0.4,1-2.7,2-4,1.8c-8.2-1.3-16.4-2.6-24.5-4.6
		c-1.7-0.4-3.8-3.4-3.9-5.3c-0.6-9.9-4.1-18.4-10.3-26c-2.3-2.8-4.2-6-5.7-9.3c-0.7-1.4-0.2-3.4-0.2-5.2c1.7,0,3.6-0.3,5.1,0.2
		c6.8,2.1,13.5,4.7,20.4,6.5c2.1,0.6,4.8-0.8,7.2-1.3c1-0.2,1.9-0.8,2.8-0.7C526.5,267.2,535.1,267.9,543.6,269.6z M355.9,325.5
		c7-2.1,13.5-0.9,19.4,3.5c3.3,2.5,6.5,5,9.7,7.5c0.4-0.3,0.8-0.6,1.2-1c-2.4-3.6-4.7-7.2-7.4-11.4c12.2-3.3,21.2-11,26.4-23
		c-0.8-0.3-1.1-0.6-1.3-0.5c-8,3.5-8,3.4-13.8-3.4c-1.7-2-3.4-4.2-5.3-6c-1.9-1.8-4.1-3.3-6.2-5c0.3-0.6,0.5-1.1,0.8-1.7
		c16.8-2.3,33.5-4.5,50.4-6.8c-1.6,2.9-3.3,6.3-5.1,9.5c-5.8,10.3-7.2,21.3-5.6,32.9c1.3,9.1-0.5,17.3-7,24
		c-8.7,9.1-12.7,19.7-11.3,32.3c0.1,0.6-0.2,1.3-0.3,2.2c-0.8-0.2-1.5-0.2-2-0.5c-9.4-5.3-18.7-10.8-28.2-15.9
		c-9.2-5-16.5-11.8-21.2-21.3C345.6,334.1,348.3,327.8,355.9,325.5z M359,363.2c-6.6-0.6-9.3-3.9-9.1-11
		C353.4,356.4,356.2,359.8,359,363.2z M367.8,381.4c-1-3.1-1.9-5.9-2.8-8.6c0.3-0.6,0.6-1.1,0.9-1.7c6,1.2,12.1,2.4,18.1,3.6
		c-0.1,0.6-0.2,1.3-0.2,1.9c-1.3-0.1-2.7-0.3-4-0.2c-1.8,0.3-3.6,0.9-5.4,1.3c0.7,1.9,0.9,4.4,2.3,5.5c4.4,3.7,9.2,7,14.2,10.7
		c0.2,1.4,0.6,3.5,1.2,6.6c-9.2,2.8-18.6,7-28.7,7.1c-5.5,0.1-9.5-4-11.6-9.1c-1.5-3.5-2.2-7.3-3.5-11.8
		C355,384.9,361.4,383.1,367.8,381.4z M439.3,396.6c2.8-5.7,8.5-6.4,13.2-2c1,0.9,1.9,1.9,2.5,3.1c5.7,9.7,14.2,16.2,24.1,21
		c1.3,0.6,2.5,1.5,3.7,2.1c-1.1,5.8-4,7.9-9.9,7.3c-8-0.8-12,3.3-12.3,11.9c2.1-1.3,3.8-2.5,5.6-3.5c4.3-2.4,8.8-1.4,11.4,2.5
		c3.5,5.3,2.9,9.4-0.4,13.1c-3.7,4.2-7.1,7.7-13.4,6.5c-7.5-1.5-13.1-5.6-16.8-12.2c-6.9-12.4-9.2-26-10.3-39.8
		C436.4,403.3,437.8,399.6,439.3,396.6z M467.2,471.1c4.3-0.6,8.6-1.7,12.9-1.7c3.9,0,7.8,2,8.2,6.1c0.4,4.7-0.8,9.6-1.5,14.4
		c0,0.2-3.3,0.7-4.1,0c-5.4-5.4-10.6-11-15.8-16.5C466.9,472.6,467,471.8,467.2,471.1z M495.4,420.4c8.4,8.6,2.6,22.7-6.5,27.9
		C483.3,442.6,488,428.4,495.4,420.4z M493.5,561.4c0.5-1.4,1.7-2.8,2.9-3.7c6.4-4.6,13.2-9,10.8-19.1c5.8,4.8,10,20.2,6.4,25.5
		c-2.1,3.1-6.1,5.7-9.7,6.7c-4.3,1.1-9.1,0.3-13.4,0.3C491.6,567.5,492.3,564.4,493.5,561.4z M506.3,510.8c-3.1-2.9-6.3-5.9-9.6-8.9
		c4.2-4.8,8.8-5.9,14-4.8c17,3.7,28.7,13.5,34.2,30.1c1.7,5.2,2.9,10.5,4.3,15.8c-0.4,0.5-0.8,1.1-1.2,1.6c-4.4-2.4-9.3-4.2-13-7.4
		C525.1,528.7,515.8,519.6,506.3,510.8z M554.9,539.9c-3.5-13.4-2.2-26.4,3.8-38.8c0.3-0.6,0.6-1.1,0.9-1.7
		c2.2-3.7,5.5-6.1,10.3-6.2c4.4-0.1,13.1,5.1,16.7,9.5c0.1,0.2,0.3,0.3,0.4,0.5c0.2,0.3,0.4,0.6,0.6,0.9s0.3,0.6,0.4,0.9
		c0.3,0.9-0.2,2.6-0.9,3.4c-9.6,10.6-14.9,23-16.3,37.2c-0.3,2.8-1.4,3.7-4.1,3.5C559.1,548.5,556.8,547.1,554.9,539.9z M596.6,572
		c-6.6-3.6-13-7.1-19.5-10.6C585.3,561.7,592.9,563.1,596.6,572z M589.5,548.3c-1.5-2.7-2-7.2-0.7-9.9c3.6-7.4,8.3-14.2,12.6-21.2
		c0.8,0.1,1.5,0.1,2.3,0.2c4.3,6.3,8.7,12.5,12.8,18.9c2.8,4.4,2.1,9-0.6,13.2c-4.2,6.4-8.5,12.7-13,19.3
		C598.3,561.9,593.4,555.4,589.5,548.3z M631,560.8c-7.3,3.5-13.4,6.5-19.9,9.6C614.8,561.3,623.1,562.9,631,560.8z M619,509
		c-0.9-1-0.6-3.6,0-5.1c0.6-1.6,2.3-2.8,3.6-4.1c11.4-11,21.9-8.5,26.3,6.7c1.8,6.2,2.4,12.7,3.6,19.1c-1.1,6-1.9,12-3.3,17.7
		c-1,4.1-9,7.8-12.7,6c-1-0.5-1.7-2.4-1.8-3.7C633.3,531.8,628,519.7,619,509z M656.5,544.8c1.8-24,14.2-43.8,39.5-47.7
		c4.5-0.7,8.5,0.3,12.9,4.5C690.8,515.4,678.9,535.9,656.5,544.8z M696.9,538c0,1.7,0,3.4,0,5.1c0.1,5.4,3.5,8.8,7.4,11.8
		c3.4,2.6,7.1,4.8,7,10.1c0,1.8,1.6,3.5,2.6,5.7c-6.6,2.1-13,2.3-18.4-1.3c-2.9-1.9-5.4-6.1-5.9-9.6
		C688.6,551.9,692,544.7,696.9,538z M709.2,420.3c8.5,9.6,11.4,21.2,7.4,28.3C705.7,443.6,702.2,430.4,709.2,420.3z M761.6,500.8
		c3.5-0.3,6-1.3,7.7-2.9c19.5-3.3,22.4-26,22.4-26c0-9.2,6.6-18.5,11.2-24c2.4,0.4,3.2-2.9,4.5-4.8c0.4-0.5,0.8-1,1.4-1.4l14.6,9.8
		l-0.8,11.8c0,0,0.1,0.2,0.2,0.4c-1.4,11-1.5,30.2,9.6,46.3l-11.1-1.2c2-13-10.3-31.6-10.3-31.6c-8.6-2.1-6.7,18.6-5,30l-38.2-4.1
		C765.1,502.1,763.4,501.5,761.6,500.8z M881.6,423.6L881.6,423.6L881.6,423.6L881.6,423.6l5.8,21.6c-1.1,1.7-2.2,3.4-3.3,5.2
		L881.6,423.6z M899.1,426c-1.2,2-2.4,4.2-3.8,6.5C894.8,429.9,895.3,427.2,899.1,426z M905.2,372.5c0.3-1.4,0.5-2.8,0.6-4.2
		c2.1-2,7.8-6.1,7.8,10.6l-10.1-2.3C904.3,375.2,904.9,373.9,905.2,372.5z M907.1,354.3c0.3-1.9,0.6-3.7,1.2-5.5l16.4-17.5
		C924.7,331.3,914.9,347.1,907.1,354.3z M937,318.5c-4.9-12.3,11.9-25,11.9-25l0,0c0,0.4-0.1,0.8-0.1,1.2
		C946.1,304.4,937,318.5,937,318.5z M943.8,223.7c0.7,5.9,1.1,11.9,1.5,17.8l0,0c0,0,0,0,0,0c0.1,1.1,0.2,2.3,0.3,3.4
		c0.1,0,0.2,0,0.3,0c0.7,4,1.8,11.1,3,18.5c-6.3-19.7-16.2-23.2-16.2-23.2c-0.8-1.3-1.6-3.3-1.1-4.4c1.8-4.9,4.1-9.7,6.3-14.5
		c1.1-2.5,2.4-4.9,3.7-7.4c0.7,2.9,1.6,5.7,2,8.6C943.7,222.8,943.7,223.3,943.8,223.7z M941.5,213.7
		C941.6,213.7,941.6,213.7,941.5,213.7C941.6,213.7,941.6,213.7,941.5,213.7C941.6,213.7,941.6,213.8,941.5,213.7
		C941.6,213.7,941.6,213.7,941.5,213.7c-4,1.3-7-0.2-9.4-3.5c-1.9-2.7-4-5.2-6.1-7.9C931.9,201.2,938.2,206,941.5,213.7z
		 M918.5,151.9c4.5,11.3,8.6,21.4,13,32.6C922.8,179.3,915.8,161.9,918.5,151.9z M927.6,189.7c-12.6-6-14.5-22.2-26.7-28.6
		C913.5,167.2,920.1,178.9,927.6,189.7z M897.6,168.3c1.6,1.1,3.6,1.8,4.9,3.3c9.9,11.3,15.3,25,7.5,40.2c-0.9,1.8-1.7,3.6-2.3,5.5
		c-1.2,4.1-3.7,4.4-7.5,2.8c3.4-4.6,6.7-8.8,9.6-13.3c2.6-4,2.9-8.5,0.6-12.8c-3.3-6.1-7-12.1-10.4-18.1c-1.2-2.1-2.2-4.3-3.3-6.4
		C896.9,169,897.3,168.6,897.6,168.3z M893.3,208.6c-3,3.6-6.9,7.3-11.2,8.7c-12,3.9-18.8,11.4-19.6,24.2c-0.6-0.1-1.2-0.2-1.8-0.4
		c-0.2-8.8-1-17.6-0.3-26.3c0.8-9.3,4.4-12.2,13.6-13.6c3.7-0.6,7-1.8,8.8-6.5c-8.7,1.5-16.8,2.8-24.9,4.2
		c-1.6-11.6,5.8-21.6,16.5-20.4c3.4,0.4,7,2.2,9.8,4.3c3.6,2.7,6.5,6.2,9.5,9.5C897.1,196.2,897.4,203.8,893.3,208.6z M873.3,151.6
		c-4.1-6-8.4-12.3-12.7-18.5c9.3-4.5,23.3,2.1,28.7,12.8C883.9,147.8,878.4,149.8,873.3,151.6z M887.2,125.2
		c0.5,0.2,0.9,0.5,1.4,0.7c-0.9,2.2-1.4,4.7-2.9,6.4c-0.8,0.9-3.3,0.3-5,0.4c-0.1-0.5-0.2-1-0.3-1.5
		C882.6,129.2,884.9,127.2,887.2,125.2z M878.1,122.9c-1.7,0.2-3.6,0.9-5.1,0.4c-6.2-1.7-12.2-3.7-18.5-5.7c3.1-2.4,6.1-5,9.3-7.3
		c0.9-0.6,2.8-0.9,3.7-0.3c3.4,2.3,6.8,4.6,9.7,7.5C878.2,118.5,877.8,121,878.1,122.9z M848.8,89.6c7.5,5.4,13.6,9.8,19.7,14.1
		c-8.5-3.5-16.8-1.8-25.4,0C839.2,95.8,849.5,96.2,848.8,89.6z M823.5,92c4.3,1.9,8.6,3.8,12.8,5.7c-0.4,0.8-0.7,1.5-1.1,2.3
		c-4.2-2-8.4-4.1-12.7-6.1C822.9,93.3,823.2,92.7,823.5,92z M796.1,87.8c0.5,0,1.1,0,1.6,0c1.4,2.1,2.7,4.3,4.1,6.4
		c-0.2,0.5-0.5,0.9-0.8,1.4c-2-0.6-4.8-0.6-5.8-1.9C794.4,92.5,795.7,89.8,796.1,87.8z M765,74.7c8.7,0,17.4,0,26.1,0
		c0,0.3,0,0.5,0.1,0.8c-8.7,0-17.5,0-26.2,0C765,75.3,765,75,765,74.7z M772.3,105.8c3-0.5,6-1,8.9-0.6c2.1,0.3,4.2,1.8,5.7,3.3
		c0.5,0.5-0.6,3.9-1.2,4c-2.3,0.4-4.9,0.2-7.3-0.3c-2.9-0.5-5.9-2.2-8.7-1.9c-1.8,0.2-4.3,3.1-4.5,4.9c-0.1,1.7,2.2,3.9,3.9,5.4
		c1,0.9,2.8,0.9,4.3,1c5.8,0.2,11,1,15.2,5.8c2.6,2.9,6.6,3.1,10.2,1c3.6-2.1,4-5.7,3.2-9.3c-1.9-7.9-4.8-15.1-14.9-16.8
		c1.2-0.8,1.6-1.4,2.1-1.5c9.8-0.6,19.3,0.7,27.7,6.3c3.4,2.3,4.4,4.6,2.2,8.7c-2.9,5.6-7.2,9.6-11.9,13.7c-6,5.3-10.9,12-15.7,18.5
		c-2.9,3.9-2.1,8.6,0.7,12.7c7.4,11,24.1,12.4,34.6,1.6c-3.8,1-6.2,1.7-8.6,2.3c-6.1,1.6-8.7,0.5-11-5.3c-1.7-4.5-3.5-9.1-4.1-13.8
		c-0.8-6.2,4.7-12.2,10.8-12.8c0.9-0.1,2.3,0.5,2.9,1.2c4.5,4.8,8.1,5.7,13.5,3.2c9.6-4.4,16.8-3.2,23.9,4.2
		c7.5,7.7,9.6,17.8,5.1,26.6c-3.6,7.1-7.6,14-11.7,21.6c-7.5-4.4-3.5-11-2.3-17.1c-5,0.8-9.2,1.5-13.8,2.2c-0.1-0.4-0.1,0.3,0.2,0.7
		c2,2.1,5.8,3,3.9,7.4c-2,4.7-3,9.4-9.7,10.5c-16.3,2.7-32,1.3-46.9-5.6c-11.7-5.4-21.3-13.3-23.4-27.2c-1.4-9.1,1.1-13.9,9.4-18.1
		c2.7-1.4,6.3-2.8,4.9-6.3c-0.9-2.2-4-4.1-6.5-5c-2.1-0.8-5-0.6-7.2,0c-1.1,0.3-2.6,3.3-2.2,3.9c2.2,3.3,0.1,4.7-2,6.6
		c-1.8,1.7-3.1,3.8-5,6.2c-3.3-7-3.4-14.1-1.1-20.8C750.4,114.6,759.5,107.7,772.3,105.8z M742.5,82.4c2.9-1.2,3.9,0.3,3.9,3.1
		c-0.1,3.8,0,7.6,0,12.1c-1.6-0.3-2.9-0.5-4.1-0.8c-4.1-1.1-9-2.2-8.9-7.3C733.4,84.4,738.8,83.9,742.5,82.4z M718.9,103.6
		c7.4-1,14.8-1.7,21.5-2.4c-0.3,3.9-0.9,6.6-0.8,9.4c0.1,4.4-4,8.2-8.6,7.3c-6.2-1.3-10.7-5.2-14.4-10.1
		C714.7,105.1,716.7,103.8,718.9,103.6z M734.3,122.9c-0.5,2.6-0.8,4.4-1.2,6.9c-3.8-2.4-7.1-4.4-10.3-6.4c0-0.3,0.1-0.7,0.1-1
		C726.4,122.5,730,122.7,734.3,122.9z M719.9,135.1c8.7,2.6,14.9,8.7,19.6,16.2c2.9,4.6,5.2,9.5,8.5,15.5c-4.5-0.7-7.4-1.1-10.2-1.6
		c-0.3,0.4-0.7,0.9-1,1.3c3.2,4,6.4,8,9.6,12c-0.1,0.2-0.2,0.3-0.3,0.5c-0.7-0.4-1.5-0.7-2.1-1.3c-15.2-15-34.2-20.6-54.8-21.7
		c-6.3-0.4-12.7-0.3-18.9,0.2c-3.9,0.3-5.7-2.1-6.6-4.8c-0.6-1.8,0.1-4.8,1.4-6.2c2.3-2.5,5.2-4.8,8.2-6.2
		C688.3,131.8,703.9,130.3,719.9,135.1z M699.8,121.2c-0.1,0.1-0.2,0.3-0.3,0.3c-12.4-2.6-22.3,2.6-31.5,10.1c-3,2.5-6.8,4-10.2,6
		C671.4,119.7,679.6,116.2,699.8,121.2z M648,151.9c2.9,6.6,2.2,8.4-3.4,11.4c-3.2,1.7-6.2,3.5-9.3,5.3c-0.2-0.2-0.4-0.4-0.6-0.6
		C639.1,162.7,643.5,157.4,648,151.9z M667.8,168.6c-0.9,2.1-2.1,3.7-2.2,5.4c-0.2,3.6-0.7,7.7,0.7,10.8c1.7,3.9,6.2,3.9,10.2,3.3
		c4.8-0.8,8.9-2.8,11.4-7.2c7.1-12.7,20.6-8.3,25.5,0.9c1.9,3.6,3.1,7.7,4.5,11.6c1.6,4.7,4.5,7.8,9.7,8c8.1,0.4,12.1-5.3,9-12.7
		c-0.9-2.2-2.1-4.3-2.8-6.7c6.3,5.1,9.8,11.6,9.9,19.7c0.1,16.4-7.1,29.2-20.1,38.8c-9.1,6.8-19.4,11.4-30.9,11.5
		c-9.3,0.1-18.6-0.9-27.9-1.5c-1-0.1-2.1-0.7-4.5-1.7c3.6-0.3,6,0.1,7.7-0.8c2.7-1.3,5.9-2.9,7.2-5.2c3.1-5.6,0.8-8.5-5.6-7.6
		c-9.6,1.3-19.3,2.5-28.4-2.2c-2.4-1.3-4.4-3.2-6.6-4.9c2.2-1.8,4.4-3.6,6.6-5.4c0.5-0.4,1-0.6,2.1-1.2c-7.7-3.4-14.4-1.1-22.7,1.9
		c3.1-5.7,5.5-10.2,7.9-14.7c-0.2-0.3-0.4-0.7-0.7-1c-5.1,2.7-10.3,5.4-15.9,8.4C617.4,194.6,645.7,170.2,667.8,168.6z M599.6,239.1
		c0.4-0.7,0.7-1.5,1.2-2.4c1.3,1.2,1.9,1.5,2.2,2c7.5,13.1,15.2,26.2,22.4,39.5c1.1,2,1.5,5.6,0.4,7.5
		c-7.4,12.8-15.3,25.2-23.1,37.8c-0.1,0.2-0.6,0.2-1.5,0.5c-2.2-3.1-4.6-6.1-6.6-9.5c-5.5-9.1-10.9-18.3-16.3-27.4
		c-2-3.4-1.9-6.8,0.1-10.4C585.5,264.2,592.5,251.6,599.6,239.1z M552.6,151.9c0.5-0.1,1-0.2,1.5-0.3c4.5,5.6,9,11.1,13.5,16.7
		c-0.2,0.3-0.5,0.5-0.7,0.8c-4.8-2.5-10.1-4.3-14.1-7.7C551.3,159.9,552.6,155.1,552.6,151.9z M591.1,216.2
		c-5.6-2.9-10.6-5.4-15.6-8c-0.3,0.3-0.6,0.6-0.9,0.9c2.1,4.3,4.3,8.5,6.9,13.7c-7.7-2-14.3-4.3-22.3-1.7c2.8,1.6,4.8,2.4,6.5,3.6
		c3.4,2.4,3.3,4.2-0.3,6.1c-8.7,4.5-18,5.9-27.6,4.8c-1.2-0.1-2.3-0.5-3.5-0.4c-2.7,0.2-6.3-2-7.4,2.5c-1,3.8,1.5,8.6,4.9,9.9
		c1.4,0.5,2.9,0.7,4.4,1c1.3,0.2,2.6,0.2,4,1.3c-3.4,0.5-6.9,1.2-10.3,1.6c-18.8,2.2-36.6,0.3-51.8-12.5
		c-11.8-9.9-17.8-22.6-17.6-38c0.1-7.1,2.8-13.2,8.5-19.6c-0.8,2.2-1,3.2-1.4,4c-0.4,0.9-0.9,1.8-1.3,2.7c-2.7,6.3-2.1,9.2,2.3,11.6
		c5.3,2.8,12.4,1.5,15.2-3.1c1.2-2,1.6-4.3,2.6-6.4c1.8-3.9,3.3-8.1,5.9-11.5c6.1-7.9,14.3-7.8,20.5,0c4,5.1,8.3,9,15.2,9.1
		c8.3,0.1,12.3-5.2,9.4-13c-0.7-2-1.7-3.8-2.6-5.9C554.2,168.3,582.6,191.9,591.1,216.2z M546.2,137.3c-0.2,0.4-0.4,0.8-0.6,1.2
		c-4.5-2.3-9.6-3.9-13.4-7.1c-10.4-8.6-21.6-13.1-35.2-9.1C518.8,114.5,529.8,118.2,546.2,137.3z M486.6,103.9
		c0,0.6,0.1,1.2,0.1,1.9c-4.1,4.9-8.4,9.6-14.9,11.5c-6.4,1.9-9.8-1.2-9.3-7.9c0.2-2.4-1.5-4.9-2.8-8.6
		C469,101.8,477.8,102.9,486.6,103.9z M454,81.5c5.4-0.6,9.7,1.6,12.8,5.2c2.6,3,0.2,6.2-2.7,7.7c-3,1.6-6.4,2.4-10.1,3.7
		C454,92.1,454,87,454,81.5z M410,74.5c8.2,0,16.4,0,24.6,0c0,0.2,0.1,0.5,0.1,0.7c-8.3,0-16.5,0-24.8,0C410,75,410,74.8,410,74.5z
		 M403.9,87.9c0.8,2.6,1.3,4.1,1.9,6.3c-2.5,0.2-4.4,0.3-7.7,0.5C400.4,92.1,401.8,90.4,403.9,87.9z M377,93.5
		c-3.6,1.7-7.2,3.5-11.6,5.6C367.2,94.8,370,93.3,377,93.5z M363.5,134.5c2.7,0.1,5.4,1.5,8.1,2.3c4.8,1.6,9.2,1.8,12.5-2.9
		c0.5-0.7,1.4-1.6,2.2-1.7c5.8-0.7,13.4,7.4,12,13.2c-1.3,5.3-3.3,10.5-5.3,15.6c-1.6,4-5,4.6-8.8,3.6c-3-0.8-6-1.8-9.2-2.1
		c3.4,3.5,7.1,6.5,12.2,7.1c6.8,0.7,12.9-1,18.4-5c6.4-4.6,8-11.7,3.9-18.5c-4.7-7.5-9.9-14.8-18-19c-6-3.1-8.1-9-11-14.4
		c-0.6-1.1,0.5-4.1,1.7-5c8.8-6.7,18.8-8.2,29.8-6c-6.7,2.2-10.7,6.6-12.4,13.1c-0.6,2.2-1.3,4.8-0.8,6.8c0.7,2.6,2.2,6.2,4.3,7
		c2.6,1,7.5,0.7,9.1-1.1c4.7-5.2,10.1-6.4,16.5-6.1c3.6,0.2,7.5-0.5,7.9-5c0.2-2-1.3-5-3-6c-3.3-2.1-7.3-2.8-10.4,1
		c-2.2,2.7-4.8,3.3-7.4,1.3c-1.2-1-2.1-3.3-1.9-4.8c0.2-1.2,2.3-3.1,3.6-3c12.2,0.2,23.9,2.3,32.7,12c7.2,7.8,9.3,21.1,4.6,29.7
		c-2.6-2.8-5.3-5.6-8.2-8.8c0.1-2.2,3.9-5.5-1.1-7.4c-4.5-1.7-12.6,0.5-13.9,4c-0.4,1.2-0.1,3,0.5,4.1c0.7,1.2,2.2,2,3.4,2.8
		c12.1,7.1,14.8,18.7,6.7,30.4c-6.4,9.3-15.7,14.8-26.2,18.2c-13.9,4.5-28,5.6-42.4,2.3c-4.8-1.1-9.9-7.8-8.6-12.3
		c0.7-2.4,3.2-4.2,4.6-6c-4.8-0.7-9.1-1.4-14.1-2.2c1.1,6,4.4,12.8-3,17.3c-4-8-8.3-15.3-11.5-23.1C335,150.6,347,133.6,363.5,134.5
		z M347.9,92.4c2.6,1.2,4.9,1.7,6.5,3.1c1.6,1.4,2.6,3.5,3.9,5.3c-1.8,0.4-3.7,1.2-5.5,1.1c-5.4-0.3-10.8-0.9-17-1.5
		C340.3,97.4,344.4,94.7,347.9,92.4z M324,117.4c1-1.7,2.4-3.1,3.9-4.5c4.7-4.4,7.3-4.5,12.5-0.7c2,1.5,3.9,2.9,5.7,4.3
		c-6.4,2-12.4,4-18.4,5.7c-1.5,0.4-3.3-0.2-5-0.3C323.1,120.4,323.2,118.7,324,117.4z M340.7,132.4c-4.3,5.9-8.5,11.7-12.7,17.4
		c-5.3-1.4-10.8-2.8-16.6-4.4C318.3,134,328.4,129.4,340.7,132.4z M305.2,195.8c5-7.2,10.2-14.7,19.2-17.3
		c8.5-2.4,14.7,1.3,17.5,9.7c1.1,3.2,1.5,6.7,2.1,9.7c-8.7-1.3-16.7-2.4-25.3-3.7c2.5,5.1,6.7,6.5,11.1,6.9
		c6.8,0.6,10.2,4.6,11.4,10.7c1.8,9.2,1.1,18.4-1,27.7c-1.9-12.5-9.5-19.3-21-23c-7.4-2.4-13-7.5-14.3-15.9
		C304.7,199,304.4,196.9,305.2,195.8z M304.5,168.3c-5.5,9.1-10.4,17.4-15.7,26.3C287.8,185.8,296.6,170.4,304.5,168.3z M294.7,162
		c0.3,0.4,0.7,0.8,1,1.1c-6.2,8-12.5,16-18.7,24c-0.6-0.5-1.1-0.9-1.7-1.4C281.8,177.8,288.2,169.9,294.7,162z M280.5,156.9
		c0.8,9.9-4.1,17.6-10.2,24.8C273.7,173.4,277.1,165.2,280.5,156.9z M275.1,201.1c-4.2,5.3-6.8,10.5-13.5,12.8
		C262.6,207.3,267,203,275.1,201.1z M258.4,216.6c0.5-0.1,0.9-0.3,1.4-0.4c3.4,6.5,6.8,13.1,10.5,20.1
		c-12.8,8.3-15.5,21.1-18.4,33.8C254,252.3,256.2,234.5,258.4,216.6z M254,295.7c7.6,2.4,13.6,13.5,11.6,21.8
		C256.8,312.4,257.1,303.4,254,295.7z M265.4,343c4.4,1.5,10.5,10.3,10.8,15.3C269.8,355,266.2,350,265.4,343z M281.3,384.6
		c-3.1-7.6-6-14.6-9.2-22.4C280.1,364.5,285.6,378,281.3,384.6z M297,415.4c-3.2-7.2-6.1-13.8-9.2-20.5
		C296.2,393.8,300.8,403.9,297,415.4z M308.7,435.2c-2-3.4-4-6.7-6.3-10.6C306.9,425.9,309.3,429.5,308.7,435.2z M321.1,447.8
		c-4-2.5-5.3-4.6-4-8.6c1.7-5.3,2.5-10.9,4-17.4C321.1,430.9,321.1,438.9,321.1,447.8z M308.9,387.4c-3.6-4.5-1.2-10-0.4-14.8
		c5.6,3.9,10.9,7.7,17.1,12c0.5,3.1,1.3,7.8,2.2,13.4C320.5,394.8,313.4,393,308.9,387.4z M347.9,483.1c8.5,1.8,14.5,6.4,16.2,11
		l0.2,0.5c0.3,1,0.4,2,0.3,3C359.4,493.2,353.9,488.3,347.9,483.1z M425.4,469.2c0.5,0.3,1,0.6,1.6,0.9c-0.5-1.3-1-2.4-1.4-3.4v0
		l0,0c-0.7-1.6-1.2-2.9-1.8-4.3c-0.4,0.4-0.7,0.8-1,1.1l-1-1.1L410,491.7L359.4,481c-1.7-1.5-3.8-2.6-6.5-4.3
		c9-2.6,8.9-2.6,5.2-10.4c-0.7-1.6-0.3-3.7-0.2-5.6c0.1-1.9,0.4-3.8,0.9-5.7c0.6-2.5,0.9-5.4,2.3-7.3c3.5-4.6,7.9-7.9,14.2-8.2
		c4.6-0.2,6.3-3.2,4.1-7.2c-0.9-1.8-3.3-3.8-5.1-3.9c-2.6-0.1-5.3,1.5-7.9,2.3c0.1,0.4,0.3,0.7,0.4,1.1c-2.7-0.8-5.5-1.6-8.2-2.4
		c-0.7,6.4-1,12-2,17.5c-1,5.3-5.5,6.9-9.8,3.6c-1.8-1.4-3.5-3.7-4.1-6c-3-10.6,2.7-21.5,12.9-25.7c14.8-6.1,28.7-3.3,42.3,3.7
		c1.9,1,3.2,2.8,5.8,5.1c-4.5,1.4-7.7,2.2-10.7,3.3c-3.3,1.2-5.9,2.9-5,7.1c7.1,0.5,6.8,0.7,10.1,5.3c1,1.5,3.6,1.8,5.5,2.7
		c0.5-1.9,1.5-3.9,1.3-5.8c-0.2-2-1.7-3.8-2.6-5.7c19-7.3,49.9,22.5,50.7,49.5c-4.5,0.4-9,0.8-13.7,1.3v0
		C439.2,485.4,425.4,483.3,425.4,469.2z M446.2,531.5c0,0,4.5-5.6-2.9-10.9c0,0-4.6-4,2.1-8.5c1.1,0.7,2.5,0.4,3.9-1
		c8.5-8.3,25.5-7.4,36.5-0.5c3.5,2.2,4.4,4.6,2.4,8.8c-2.1,4.2-3.9,9-4.1,13.7c-0.3,6.6-3.5,10.6-9,13.2c-2.7,1.3-5.6,2.2-8.4,2.9
		l-36.9,0.5C429.8,549.8,425,535.5,446.2,531.5z M469.7,559.5c1.9,0.8,5.1,5.5,5,7.9l-12.5-6.6L469.7,559.5z M459.4,568.8l22.8,8.6
		c2.1,6.9,12.8,18.5,20.5,21.5c2.6-5.1,5.2-10.3,8.1-16.1c3.8,5.5,6.9,10.2,10.2,14.8c2.2,3,1.1,4.8-2,6.1c-6.5,2.7-13,4.5-19.4-0.3
		c-0.4-0.3-0.8-0.5-1.4-0.7C491.3,599.1,460.7,582.8,459.4,568.8z M503.6,615.2c0.7,0.7,1.5,1.4,2.4,2c5,3.4,8.8,8.5,13.1,12.9
		c-0.3,0.4-0.7,0.8-1,1.1c-1.5-0.2-3.1-0.3-5.4-0.6c0.6,0.8,1.1,1.5,1.7,2.2C508.4,627.3,502.3,620.2,503.6,615.2z M532.2,634.2
		c-2.3-5.4-5.1-10.6-8.1-16.7c5.1,1.5,7.9,3.2,9,7.9c0.7,3,3.2,5.5,5.1,8.1c1.5,2,3.3,3.8,5.7,6.5
		C537.7,640.3,534.2,639,532.2,634.2z M549.2,615.1c0-1.5,0.5-3.8,1.5-4.3c1-0.5,3.1,0.5,4.4,1.2c1.4,0.8,2.5,2,3.9,3.2
		c-2.8,3.3-5.4,6.5-8.8,10.7C549.8,621.6,549.3,618.4,549.2,615.1z M574.3,667.9c-7.9-3.1-14.4-7.3-15.1-17.3
		C570.3,653,575.3,658.8,574.3,667.9z M589.4,646.3c-0.7,8.9-4.3,10.8-12,6.3c-3.9-2.2-8.1-4-11.7-6.5c-3.2-2.2-5.9-5.2-8.9-7.9
		c0.2-0.6,0.4-1.2,0.6-1.9c9.5-0.8,10.5-7.6,10.6-16.1c9.5,6.6,18.7,11.3,21.2,22.6C589.5,643.9,589.5,645.1,589.4,646.3z
		 M602.7,690.7c-11.7-8.3-11.9-28.8,0-37.4C614.4,663.8,614.3,680.5,602.7,690.7z M630.5,668.5c0.9-10.8,5.4-15.7,16-17.7
		C645.8,660.7,638.5,664.4,630.5,668.5z M643,644.3c-5.7,3.6-11.9,6.6-17.9,9.8c-3.4,1.8-6.1,0.9-7.2-2.6c-1-3.2-1.8-6.8-1.5-10.1
		c0.7-7.2,13.1-18.4,21.3-19.6c-1.1,7.9,1.5,13.6,10.8,14.1c0.1,0.5,0.3,1,0.4,1.5C646.9,639.8,645.4,642.8,643,644.3z M655.2,626.7
		c-3-4.2-5.5-7.7-9-12.5c3.2-1.3,6-2.4,8.7-3.4c0.7,2.9,1.7,5.7,1.9,8.6C656.9,621.6,655.9,623.8,655.2,626.7z M634.1,608.6
		c-9.9,4.9-18.9,11-26.3,19.3c-2,2.2-9.4,2-11.5-0.5c-6.6-8-15.2-13.3-24.2-18c-13.3-7.1-23.6-16.7-28.7-31.2
		c-0.6-1.6-0.9-3.3-1.6-5.9c3.1,1.2,5.3,2,6.8,2.6c1.5-1,2.8-2.5,3.9-2.4c7.2,0.8,14.1,0.3,21-2.5c5.1-2.2,12.3,3.8,12.9,10.1
		c0.1,0.8,0,1.7,0,2.5c-0.2,3.2-2,6.8,2.4,8.7c4.2,1.8,8.7,0.5,11.9-3.4c0.6-0.8,1.3-1.5,2-2.2c1.7,1.9,3,4.4,4.9,5
		c2.9,1,6.5,1.4,9.4,0.6c1.3-0.4,2.1-4.4,2.1-6.8c0-8.3,1.7-12.1,7.8-14.6c1.4-0.6,3.6-1.1,4.7-0.5c7.2,4.4,14.9,4.3,23.1,2.6
		c0.2,1.2,0.3,2.2,0.5,3.2c2.2-0.7,4.2-1.3,7.3-2.2c-0.7,2.6-0.9,4.3-1.5,5.9C655.7,592.1,647.1,602.2,634.1,608.6z M671,637.3
		c-1.3,1.9-4.8,2.4-7.3,3.5c-0.4-0.6-0.8-1.2-1.2-1.8c1.6-1.7,3.4-3.3,4.8-5.2c2.1-2.8,4.8-5.6,5.7-8.9c1.1-3.9,3.2-5.4,6.5-6.3
		c0.4,0.3,0.9,0.6,1.3,1C677.6,625.5,674.7,631.7,671,637.3z M679.8,582c-0.6-0.2-1.2-0.3-1.7-0.5c1.8-8.6,3.6-17.3,5.3-25.9
		c0.6,0.1,1.1,0.2,1.7,0.2c-0.3,1.8-0.8,3.5-0.8,5.3c-0.2,3.5-1.1,7.4,0.1,10.3C686.6,577.2,683.6,579.6,679.8,582z M684,598.8
		c3-5.3,6.4-10.3,10.3-16.3c3.3,6.2,6.1,11.5,9.3,17.5c8-7.8,17-13.3,19.5-23.5c10.1,3.7,34.3-10.6,44.8-17.2l6.9-0.1
		c-8,6.3-16.5,13-24.8,19.7c-15.4,0.5-31.1,13.1-39,20.5c-1.3,1-2.6,1.9-4,2.9c-8.4,6.1-12.8,6.4-21.3,0.8
		C684.5,602.3,683.5,599.7,684,598.8z M700.1,621.1c-3.2,3-6,5.7-8.4,8.2c-1.3,0.4-2.7,0.7-4.3,0.8c4.7-5.2,8.8-9.6,13.7-14.9
		C701.1,617.4,700.8,619.3,700.1,621.1z M713.8,602.7c0.1-0.1,0.2-0.3,0.3-0.5l11.5-3.4c-7.9,6.6-15.2,12.9-21.4,18.6
		C707,612.3,710.2,607.4,713.8,602.7z M790.3,546.9l-6.3,0.6l-15.8-19c17.3-4.6,37.9-3.2,48.7-2c-0.3,0.2-0.5,0.4-0.8,0.6
		C810,531.8,800.9,538.7,790.3,546.9z M906.7,412.1c-0.2,0.4-0.4,0.8-0.7,1.3c-1.4-6.7-1.8-17.5,9.9-18c-0.7,1.3-1.4,2.5-2.1,3.8
		C911.3,403.4,909,407.7,906.7,412.1z"/>
</g>
</svg>
