<?xml version="1.0" encoding="utf-8"?>
<!-- Generator: Adobe Illustrator 27.3.1, SVG Export Plug-In . SVG Version: 6.00 Build 0)  -->
<svg version="1.1" id="Layer_1" xmlns="http://www.w3.org/2000/svg" xmlns:xlink="http://www.w3.org/1999/xlink" x="0px" y="0px"
	 viewBox="0 0 1200 800" enable-background="new 0 0 1200 800" xml:space="preserve">
<g>
	<path fill="#C49A6C" d="M680.7,569.5c1.1-0.2,2.3-0.4,3.5-0.6c0.4-0.1,0.8-0.2,1.1-0.3c2-0.6,3.5-1.7,3.5-4.6c0-5.5-5.2-5-8.5-5.9
		c-0.9-2.6-1.3-5.4-2.8-7.1c-1.2-1.3-4.2-1.7-6.1-1.3c-3,0.8-2.5,3.3-1.3,5.6c-0.9-0.1-1.7-0.3-2.6-0.3c-6.3,0.3-7.3,1.6-3.9,6.8
		c1.6,2.5-0.3,3.5-0.3,5.1c0,2.6,0.4,5.9,2.1,7.6c1.2,1.2,4.6,0.5,7,0.3c0.5,0,1-0.3,1.5-0.7c0.2-0.2,0.5-0.4,0.7-0.5
		c0.2-0.2,0.5-0.4,0.7-0.5c-0.1,0.9-0.2,1.7-0.4,2.6c-0.5,3.2-0.1,6.4,3.7,6.4c2.5,0,5.6-1.4,7.3-3.2c2.4-2.6,0.9-5.4-1.8-7.3
		c-0.3-0.2-0.6-0.4-0.9-0.6c-0.8-0.5-1.7-0.9-2.6-1.4c0,0,0,0,0,0c-1.1,0.5-2.1,0.9-3.2,1.4c-0.4-2.9-0.9-5.8-1.3-8.6c0,0,0,0,0,0
		C677.8,564.9,679.2,567.2,680.7,569.5C680.7,569.5,680.7,569.5,680.7,569.5z"/>
	<path fill="#C49A6C" d="M950.3,423c-9.4,6.2-17.7,14.1-26.3,21.4c-5.1,4.4-9.9,9.2-14.9,13.8c11.7-13.9,23.3-27.8,32.2-43.5
		c3.1-5.5,5.5-11.5,7.5-17.5c1.1-3.4,1.8-7.3-1.3-10.8c-31,71-86.3,113-158.4,136.5c-0.8-9.7,2.8-15.6,10.8-19.6
		c9-4.6,20.5-17.8,23.2-25.9c-8.9-2.4-16.1,1-22.1,7.1c-11.1,11.2-17.3,24.6-16.1,41.1c-2.2,1.3-4.4,2.7-6.6,3.9
		c-14.7,8.4-28.5,18-40.9,29.6c-11,10.3-21.9,20.9-32.8,31.3c-1.5,1.4-3.3,2.6-5,3.8c-0.3-0.3-0.5-0.6-0.8-0.9
		c10.4-13.8,20.7-27.6,31.1-41.4c-0.4-0.4-0.9-0.8-1.3-1.1c-2,1.5-4.1,3.1-6.1,4.6c5.7-13.5,8.9-26.8,2.3-40.6
		c-6.4-13.3-16.3-22.1-32.1-24.7c-1.4,4.2-2.7,7.7-3.5,11.3c-3.5,15.4-2.2,30.6,2.4,45.6c2.1,6.9,4.1,13.9,5.6,21
		c1.9,8.9,0.5,16.9-5.9,24.3c-10.1,11.7-19.3,24.1-28.9,36.1c-0.9,1.1-2.2,1.9-4.8,4.1c1.1-3.2,1.6-4.5,2-5.9
		c5.4-17.3,1.3-32.7-10-46.3c-4.2-5-9.5-8.6-15.9-10.1c-3.6-0.8-7.3-1.8-11.3,1.8c1.7,2.5,3.1,4.9,5,7c6,6.7,11.9,13.5,18.4,19.8
		c10,9.7,12.4,20.6,6.7,33.3c-6.2,13.8-14.6,26.2-24.2,38.8c2.2-32.6,1.9-37.2-2.8-48.6c-7-16.8-23-29.7-36.9-29.2
		c1.1,2.8,2.1,5.5,3.2,8.1c7.8,20.3,16.2,40.5,23.2,61.1c6.9,20.5,1,35.5-16.7,47.7c5-33.7,3.4-44.8-8-51.7
		c11.3,26.7,6.7,51.8-4.6,77.5c-1.2-1.7-1.9-2.3-2.1-3c-3.7-13.4-7.2-26.9-10.9-40.4c-3-10.7-4-21.6-3.5-32.8
		c0.3-7.8-1.3-15.6-1.5-23.4c-0.2-6.3-0.1-12.8,0.8-19c1.2-7.7,3.4-15.3,5-23c0.5-2.1,0.5-4.3,0.8-7.3c-2.3,1-3.6,1.4-4.9,2.1
		c-34.2,18.5-39.1,68.2-10.6,90c2.9,2.2,5.6,5.4,6.8,8.7c2.6,7.1,4.2,14.6,6.2,21.9c-1.6-0.3-2.2-0.9-2.7-1.6
		c-12.1-19.2-23.8-38.5-36.3-57.4c-10.3-15.6-15.6-32.3-14-51c2.2-25.3-10.5-45.7-21.9-68c-5,4.6-9.2,8.5-13.3,12.4
		c-10.5,9.8-12.3,21.7-6.5,34.2c4.2,9.2,9.5,18,15.3,26.3c6.7,9.5,14.6,18.1,21.9,27.2c7.9,9.9,14.7,20.4,21.3,33.3
		c-2.3-1.5-3.1-1.9-3.6-2.5c-17.8-18.4-35.8-36.6-53.4-55.2c-11.8-12.5-23.2-25.3-32.5-39.8c-7.4-11.5-8.3-22.5-0.7-34.2
		c8.7-13.4,12-28.2,11.1-44c-0.4-7-0.4-14-0.8-20.9c-0.1-1.8-0.9-3.6-1.5-5.9c-18.5,5.2-29.9,16.3-33.5,34.6
		c-4.4,21.7,1.7,41.4,12.4,60c1.4,2.4,2.7,4.7,4.1,7c-8.2-5.1-15.1-11.3-22.6-16.8c-11.5-8.4-23.3-16.3-35.2-24.2
		c-2.1-1.4-4.4-3.8-8.5-1c13,9.9,25.5,19.3,38,28.8c-0.4,0.6-0.8,1.2-1.1,1.8c-14.2-11.2-29.9-18.8-47.8-21.2
		c-18.2-2.5-35.1,0.9-51.5,10.9c2,2.1,3.4,3.9,5.1,5.3c7.5,6,14.9,12.1,22.6,17.8c16.3,12.3,34.5,20.4,55,22.5c18,1.9,36,3.4,53.5-7
		c3.8,4.4,7.5,8.7,11.6,13.4c-1.5,1.1-3.3,2.4-4.7,3.5c-2.5-1.3-4.4-3.2-6.5-3.4c-6-0.6-7.7,8.4-14.4,7c-0.5-0.1-1.7,1.5-2.1,2.5
		c-1.7,3.7,0.6,6.4,6.2,8c0.3,2.7-0.1,6.8,0.9,7.1c2.4,0.8,5.6,0.6,8-0.4c2.6-1.1,5.3-3.1,6.6-5.5c4.2-7.7,11.7-4.6,17.8-6
		c0.8-0.2,2.2,0.8,2.9,1.6c7.2,7.5,14.3,15.1,21.2,22.4c-2.7,2.7-4.9,4.9-7.6,7.4c-2.5-1.7-5.6-4.7-9.5-1.6c-4.4,3.4,0,6.5,0.7,9.7
		c-2.3,0.4-4.4,0.4-6.2,1.1c-3.1,1.3-5.8,3.3-4.9,7.2c0.7,3,4.9,4,8.9,1.6c1.8-1.1,3.6-2.4,5.2-3.7c0.8-0.7,1.7-1.4,2.5-2.1
		c0.4-0.3,0.8-0.7,1.3-1c0.4-0.3,0.8-0.7,1.3-1c0.4,1.6,0.7,3.1,1.1,4.7c-4.6,0.4-7.4,3.1-8.5,7.4c-0.7,2.7,0,5.3,3.1,6.4
		c3.4,1.2,6-0.5,6.5-3.7c0.5-3-0.4-6.2-0.7-9.3c0.5,0.3,0.9,0.7,1.4,1c2.9,2.1,5.7,1.4,7.6-1.1c1.1-1.3,1.8-3.8,1.4-5.4
		c-0.9-3.2-3.8-4-7-3.5c-0.6,0.1-1.1,0.2-1.7,0.3c-0.6,0.1-1.1,0.2-1.7,0.3c0.9-0.9,1.8-2.6,2.7-2.6c5,0,10,0.5,16.7,0.9
		c8.8,9.5,18.8,20.3,29.8,32.1c-8.7-0.7-14.5-6.4-23.3-5.7c2.6,9.6,4.5,18.3,7.3,26.7c3.3,9.7,10.2,16.1,20.3,18.7
		c7,1.8,14.1,3.7,21.2,4.8c5,0.7,7.9,3.1,9.5,7.6c3.4,9.5,7.5,18.9,10.1,28.6c1.3,5,2,10.3,2.6,15.5c0.2,1.6,0.3,3.1,0.5,4.7
		c0.2,1.6,0.4,3.1,0.6,4.7h0c1.2,0,2.3,0,3.5,0c0.7-6.9,1.4-13.8,2-20.7c1.7-19.1,8.6-35.9,21.2-50c13.7,1.8,26-1.7,38-6.4
		c15.7-6.1,31.2-12.6,46.8-19c1.3-0.5,2.5-1.4,4.6-2.5c-6.4-7.5-12.6-14.1-21.8-17.2c-14.6-4.8-27,1.5-39.6,7.8
		c4.3-7,8.2-14.3,18.2-13c0.5,0.1,1.1-0.2,1.7-0.4c6.4-1.8,12.8-5,19.2-5.1c6.8-0.1,13.5,3.1,20.4,4c24.6,3,45.7-12.4,50.2-36.6
		c1.2-6.6,2-13.2,2.8-19.8c0.2-1.8-0.4-3.8-0.6-5.9c-25.2-0.1-45.8,6.8-57.7,30.6c-2.3,4.7-5.1,9.2-8.1,13.4
		c-7.5,10.5-18.3,14.2-32.6,15.1c3.1-3.8,4.9-6.3,7-8.7c20.9-24.5,44-46.3,73-61.2c5.7-2.9,10.4-3.8,16.4-2.4
		c19.2,4.6,36.8,12.6,53.1,23.5c2.8,1.9,5.8,3.4,9.1,5.3c0.8-2.1,1.4-3.1,1.5-4.2c0.3-4.3,0.7-8.7,0.7-13.1
		c-0.2-18.2-13-31.9-31.1-33.6c-13.3-1.3-25.3,1.8-35.9,10.2c-7.6,6.1-16,11.1-25.2,14.5c18.6-20.3,39.2-38,63.9-50.4
		c13-6.5,26.4-12,39.9-17.5c23.2-9.5,45.7-20.3,64.8-37c3.2-2.8,6.1-3.4,10.3-2.4c7,1.7,14.2,3.3,21.4,3.7
		c22.4,1.4,42.7-6.9,51.9-31.2c1-2.7,2.1-5.4,3.3-8.1c2.9-6.6,7.7-11.6,14.3-14.6c1.7-0.8,3.4-1.7,7.4-3.6c-2.5-1.2-3.7-1.5-4.6-2.1
		C978.3,415.3,964,413.9,950.3,423z"/>
	<path fill="#C49A6C" d="M630.6,173.4c4.4,4.4,8.7,8.9,13.2,13.4c-0.5,1.7-1.1,3-1.4,4.4c-4,17.5,2.5,29,20,33.5
		c6.9,1.8,14.4,2.3,21.6,2c10-0.4,19.9-2.1,29.9-3.2c-9.6,3.3-19.3,6-29,9.1c-11.4,3.6-22.8,7.6-31.9,15.5c-4.7,4.1-9.2,9.1-12,14.6
		c-4.9,9.8,1.2,19.5,12.1,21.1c2.5,0.4,5.1,0.6,7.6,0.9c0.3,2.6,0.4,4.6,0.8,6.6c2.7,14,16.2,19.8,27.7,11.5
		c5.4-3.8,10.6-8.4,14.5-13.7c7.4-10,13.9-20.7,20.7-31.2c4.2-6.5,8.4-13,12.6-19.5c0,3.2-1.5,5.6-2.9,8
		c-7.8,12.6-15.2,25.5-19.4,39.8c-2.2,7.3-3.7,14.6-1.6,22.3c2.9,10.2,6.4,13.1,17,13.7c0.8,0,1.5,0.7,2.8,1.4c0,5.8,0,11.7,0,17.6
		c0.4,0.1,0.9,0.3,1.3,0.4c4.5-6.1,9-12.3,13.6-18.5c1.2,1,1.9,1.6,2.5,2.2c6.2,5.7,11.1,5.6,15.9-1.1c2.5-3.5,4.4-7.6,5.7-11.6
		c5.3-16.3,6-33.1,4.6-50c-0.2-2.6-0.8-5.3-1.2-7.9c4,5,6.7,10.4,9.7,15.6c5.1,8.9,11.5,16.8,20.4,22.3c5.3,3.3,11.1,5.6,17.4,3.8
		c4.7-1.4,9-4.6,13.7-5.2c4.9-0.7,10.1,0.8,15.1,1.3c0.3-0.5,0.6-1,0.9-1.5c-3.6-4-7.1-8-11-12.4c1.6-1.3,3-2.3,4.2-3.4
		c8.1-7,8.6-14.9,0.5-22.2c-3.6-3.3-8-5.9-12.4-7.9c-10-4.5-20.4-8.5-30.6-12.8c-2.2-0.9-4.2-2.1-6.3-3.1c12.2,2.1,24,5.3,35.7,8.3
		c9.7,2.5,19.5,3.3,29.2,0c9.4-3.2,10.7-5.9,7.8-15.5c-0.1-0.5,0.3-1.1,0.5-2.1c6.6-2,13.5-4.1,21.3-6.4
		c13.1,24.3,35.9,28,60.2,27.2c4.9,29.8-2.8,107-11.4,121.2c-0.9-10.9-1.2-22.8-2.9-34.6c-2.9-20.7-12.3-38.2-29.8-50.2
		c-10.5-7.2-21.8-13.4-32.7-19.9c-1.6-0.9-3.6-1.2-6.1-1.9c-0.2,2.4-0.5,4-0.4,5.7c0.6,9.3,1.5,18.5,2.1,27.8
		c2.5,37.8,25.8,60.2,56.9,76.5c7.7,4,8.6,4.1,8.1,12.6c-0.2,3.2-0.7,6.4-1.6,9.4c-2.6,9.2-5.6,18.3-8.3,27.5c-0.7,2.3-1,4.7-1.6,7
		c2.8-2,4.4-4.3,5.4-6.9c4.2-10.8,8.8-21.5,12.3-32.6c10.1-32.3,17.1-65.2,17-99.2c-0.1-18-1-36-1.5-54c-0.1-3.4,0-6.8,0-10
		c15.2-4.1,29.8-7.8,44.3-12c5.5-1.6,11.2-3.5,16.1-6.4c10.6-6.3,10.6-14.3,0.5-20.9c-1.6-15.7-7-18.7-21.1-11.6
		c-0.5,0.3-1.1,0.5-1.6,0.8c-4.9,3.4-9.9,6.7-14.8,10.1c2.2-3.8,5-6.8,8.1-9.6c4.5-4.1,9.6-7.6,13.8-12.1c2.2-2.3,4.4-6.1,4-8.9
		c-0.7-4.4-5.4-5.9-9.5-6.1c-2.8-0.2-5.7,0.7-8.4,1.6c-2,0.6-3.8,2-6.8,3.7c1.9-4.1,3.3-6.8,4.5-9.8c1.2-3,2.4-6,3-9.1
		c1.4-7-1.5-12.6-7.8-15.9c-6-3.2-12.6-2-17.4,3.2c-1.8,2-3.3,4.4-5.5,7.4c1.5-6.7,3.1-12.3,3.8-18c1.1-8.2-3-15.1-10.2-18.4
		c-7.3-3.4-15-1.9-20.8,4c-4.4,4.6-6.9,10.2-6.8,16.5c0.1,6.2,0.7,12.4,1.3,20.4c-1.6-4.9-2.6-8.2-3.7-11.4
		c-1.2-3.6-2.4-7.2-3.7-10.7c-2.4-6.4-5.9-12-11.3-16.3c-4.6-3.6-9.7-5.1-15.5-3.3c-9,2.8-12.9,10.6-9.7,20.1
		c1.7,5,4.3,9.7,6.5,14.6c-3.6-2-5.9-5.1-8.8-7.3c-4.1-3.1-8.5-6.3-13.2-8.1c-10.8-4-19.2,1.8-20.3,13.2c-0.9,9.9,2.3,18.6,9.4,25.3
		c5.9,5.5,12.6,10.3,19.2,14.9c7.6,5.3,15.7,9.9,23.5,15.1c2.6,1.7,5.4,3.7,7.1,6.2c5.4,7.9,12.8,13.4,20.6,18.5
		c6.1,3.9,12.3,7.8,18,12.2c7.5,5.8,9.8,15.4,6.7,25.7c-1.3-1.5-2.3-2.9-3.4-4.2c-14.7-17.1-32.8-25.5-55.7-21
		c-1.6,0.3-3.5,0.1-5-0.5c-5.1-2.1-10-4.5-15.4-6.9c4.4-8.8,2.4-16.2-4.1-22.4c-6.9-6.6-15-7.1-23.5-3.7c-3.8,1.5-7.5,3.3-11,5.3
		c-7.8,4.5-15.4,9.3-23.1,14c-7.1,4.3-14.2,8.5-21.3,12.8c1.7-3,4.1-4.8,6.6-6.5c7.9-5.4,16.2-10.4,23.6-16.5c6-4.9,11.7-10.6,16-17
		c6.5-9.4,4.2-14.3-6.7-17.7c-0.1,0-0.2-0.1-0.3-0.2c-0.3-0.3-0.5-0.8-0.7-1.1c0-3,1.7-5.6,2.7-8.5c0.6-1.7,0.9-3.6,0.4-5.7
		c-4.4,1.8-8.3,3.5-12.5,5.3c-0.7-2.1-1.2-3.7-1.9-5.3c-4-9.2-13.6-12.9-22.3-8c-3.9,2.2-7.8,5.5-10.1,9.2
		c-3.6,5.8-5.9,12.5-8.8,18.8c-1.2,2.4-0.3,6.1-4.1,7c0.3-6.1,1.2-12.2,1.1-18.2c0-0.9-0.1-1.9-0.1-2.8c0-0.5-0.1-0.9-0.1-1.4
		c-1-9.4-5.4-17.8-13.6-23.4c-9.7-6.7-20-4.5-26.3,5.5c-1.2,1.9-2.2,4-3.4,6.1c-3.3-0.5-6.4-1.3-9.6-1.4
		c-9.9-0.4-16.1,6.3-14.3,16.1c0.9,4.7,2.8,9.6,5.4,13.6c4.5,7.1,9.8,13.7,14.9,20.4c3.3,4.3,6.9,8.4,10.3,12.6
		c-2.5-0.5-4.3-1.7-5.8-3.2c-6.8-6.4-13.2-13.1-20.3-19.2c-6.2-5.3-12.6-10.3-19.6-14.4c-6.8-4.1-14.5-5.5-22.7-3.3
		c-13.5,3.6-17.1,9.5-13,22.9c-7.4-0.5-14.7-1-22-1.6C631,172.2,630.8,172.8,630.6,173.4z M770.2,163.3
		C770.2,163.3,770.2,163.3,770.2,163.3c0,0.1,0,0.1,0,0.1c0,0,0,0,0,0c0.4,2.4,0.8,4.7,1.1,7.1c-0.4,0-0.7,0.1-1.1,0.1
		c0-2.4,0-4.8,0-7.2C770.2,163.4,770.2,163.4,770.2,163.3L770.2,163.3z"/>
	<path fill="#C49A6C" d="M323.3,441.6c1.5-10.9,2.6-21.9,3.9-32.9c0.8,4.1,0.8,8.2,0.8,12.2c0,9.6-0.2,19.2,0,28.8
		c0.1,8,1.9,15.7,7.5,21.8c12.8,13.7,28.7,23.3,44,33.5c0.9-0.9,1.6-1.2,1.7-1.7c8.3-21.2,12-42.9,7.3-65.6
		c-2.4-11.4-7.8-21.4-12.9-31.5c2,1.7,4.3,3.2,6,5.2c7.1,8.2,15.7,13.7,26.3,16.2c21,5,42,3.5,64,0.4c-4.7-17.7-10.4-33.9-23.3-46.6
		c-16.8-16.5-38.2-19.6-61.3-20c4.6-0.9,8.4-1.8,12.2-2.4c8.2-1.3,15.8-4.2,21.8-10c16.7-16,21.6-36.9,25.1-59.2
		c-3.2-0.5-5.4-1.2-7.6-1.1c-12.4,0.7-24.9,1.4-37.3,2.7c-15.1,1.5-27.8,7.8-37.1,20.3c-0.3,0.4-1,0.5-2.3,1.2
		c5.7-14,7.1-27.9,5.7-42.2c-1.5-14.3-2.1-28.7-6.1-44.2c-13.8,10.2-28.9,16.1-40.6,27.2c-9.7,9.2-16.5,20.3-18.6,33.7
		c-0.6,3.9-0.5,7.9-0.8,11.8c-6.8-14.1-14.5-27.3-27.6-36.3c-12.8-8.8-27.1-13.5-43.5-14.4c1.5,16.7,3.1,32.2,6.6,47.5
		c5,21.3,16.7,37.5,35.7,48.2c5.8,3.3,11.8,6.2,17.8,9.2c2.2,1.1,4.5,2.2,6.7,3.4c-7.6-0.9-14.9-2.6-22.1-4.4
		c-12.6-3-25-2.6-36.5,3.4c-11.9,6.1-23.4,12.9-34.9,19.6c-5.2,3-10.1,6.6-15.9,10.5c4.6,5.1,8.5,9.8,12.8,14
		c21.5,21.3,51.3,24,76.2,7c5.2-3.5,10.3-7.2,15.4-10.9c-0.3,2-1.4,3.1-2.5,4.2c-5,4.5-10.1,8.8-14.9,13.4
		c-9.5,9-14.2,20.3-15.1,33.3c-1.1,15.8,0.9,31.3,4.4,46.7c0.3,1.5,1.3,3,2.2,4.8c13.4-7,26.2-13.8,37.6-22.9
		C314.7,466.8,321.4,455.5,323.3,441.6z M335.9,400.5c5.2,6.1,10.6,21.7,11.8,35.3C343.9,424.2,340,412.6,335.9,400.5z M370.5,400.7
		c0.4-0.3,0.7-0.5,1.1-0.8c1,1.7,2.1,3.4,3.1,5c0.2,0.2,0.5,0.5,0.7,0.7c0,0-0.2,0.2-0.2,0.2c-0.2-0.3-0.3-0.6-0.5-0.9
		C373.3,403.6,371.9,402.2,370.5,400.7z M386,394.3c11.5,3.8,23,7.6,35.5,11.7C407.6,406.1,396.2,402.2,386,394.3z M401.8,383.5
		c-12.4,0-24.7-0.6-36.3-5.6C377.5,379.7,389.7,381.6,401.8,383.5z M358.6,355.7c-0.2-0.6-0.3-1.3-0.5-1.9
		c10.1-2.4,20.1-4.7,30.2-7.1c0.1,0.7,0.2,1.4,0.4,2C378.6,351,368.6,353.4,358.6,355.7z M388.6,324.9c-9.9,4.5-19.9,9-31.3,14.2
		C366.6,330.6,377.4,325.6,388.6,324.9z M348,403.2c2.8,5.8,5.7,11.6,8.5,17.4c-0.5,0.2-1,0.5-1.5,0.7c-3-5.8-5.9-11.6-8.9-17.3
		C346.7,403.8,347.3,403.5,348,403.2z M337.9,302c-2.3,9.9-4.5,19.9-6.8,29.8C330.9,321.3,332.6,311.3,337.9,302z M321.6,296.1
		c0-0.1,0.6-0.1,1-0.1c0,9.1,0,18,0,26.8C319,314,319.7,305.1,321.6,296.1z M311,424.1c2.7-7.7,5.4-15.4,8.2-23.1
		c0.6,0.2,1.1,0.5,1.7,0.7C318.1,409.4,316.2,417.4,311,424.1C311,424.1,311,424.1,311,424.1c-0.1,0.2-0.2,0.4-0.2,0.7l-0.2-0.1
		C310.8,424.4,310.9,424.3,311,424.1z M310.6,424.6L310.6,424.6c0,0,0.2,0.1,0.2,0.1c-0.1,0.2-0.3,0.5-0.4,0.7c0,0,0,0,0,0
		c0,0,0,0,0,0c-0.6,2.3-1.2,4.5-1.9,6.8c-0.5-0.2-1.1-0.5-1.6-0.7c1.2-2,2.3-4.1,3.5-6.1C310.5,425.2,310.5,424.9,310.6,424.6z
		 M272.4,312.6c5.9,9,11.8,18,17.7,27C281.5,332.5,275.8,323.3,272.4,312.6z M282.8,304.4c5.7,4.8,19.9,30.7,22.9,42
		C296.9,333.4,290.5,319.2,282.8,304.4z M257.9,396.9c-0.3-0.7-0.6-1.4-0.9-2.1c10.9-4.5,21.9-8.9,32.8-13.4c0.3,0.7,0.5,1.3,0.8,2
		C279.7,388,268.8,392.5,257.9,396.9z M271.5,377.2c-7.4,1.8-14.9,3.6-22.4,5.4c14-6.6,28.6-10.9,44.2-10.9
		C286.1,373.5,278.8,375.4,271.5,377.2z M294.1,418.3c4.1-7,8.3-14,12.4-21c0.5,0.3,1.1,0.6,1.6,0.9c-4.1,7-8.2,13.9-12.3,20.9
		C295.2,418.8,294.6,418.6,294.1,418.3z"/>
	<path fill="#C49A6C" d="M588.5,351.4c-0.3-14-5.7-26-15.4-36c-19.5-20.2-44-27.7-71.3-26.2c-18,1-32.3,9.3-40.3,26.2
		c-7.9,16.6-2.5,36.2,12.3,45.3c15.5,9.6,37.8,0.1,40.5-17.2c2-12.6-9.6-22.3-22.2-17.9c0.9,0.9,1.6,1.7,2.3,2.5
		c6.4,6.9,6.2,14.8-0.5,20.5c-6.5,5.5-15.4,4.8-20.6-2.4c-2.6-3.6-4.6-8.3-5-12.7c-1.9-19.8,18.2-36.2,38.2-31.6
		c8.7,2,16.4,6.2,22.8,12.3c26.8,25.3,39.7,57.2,44.3,93c-1.4-2.7-2.4-5.6-3.1-8.6c-2.9-12-10.9-18-22.8-19.5
		c-14.6-1.8-28.5,0.8-41.3,7.8c-4.2,2.3-8.3,5.7-10.9,9.6c-6.1,8.9-3.2,14.5,7.3,16.6c9.4,1.9,18.5-0.1,27.7-1
		c14.8-1.5,27.4,8.8,27.8,22.4c-6.5-1.3-13-3-19.6-3.9c-9.3-1.3-18.1,0.4-24.9,7.5c-2.7,2.8-5.6,3.4-9.3,3.4
		c-10.7,0.1-18.1,5.4-21.8,15.6c-0.5,1.3-1,2.7-1.6,4.1c-3.7,1-7.1,1.9-11.7,3.2c3.7,3.3,6.4,5.7,9.2,8.2c8.9,8.1,8.9,8.1,4.4,18.9
		c-0.4,1.1-0.9,2.1-1.3,3.2c-2.1,6.1-1.8,7.2,3.1,11.2c7.7,6.3,16.1,7.3,25.3,3.7c14.3-5.6,26.8-13.9,38.2-24c2.3-2,4.6-4,6.8-5.9
		c0.4,0.4,0.9,0.9,1.3,1.3c-1.9,2.3-3.8,4.7-5.9,6.9c-6.4,7.1-13.2,14-19.2,21.4c-4.2,5.1-8.1,10.7-10.9,16.7
		c-4.7,9.8,1.9,18.1,12.8,17c3-0.3,6-1.2,10.1-2.1c-2.6,11.1,3.3,18,10.3,25.9c3.7-6.4,6.9-12,10.5-18.1c2.4,3.6,3.9,6.4,5.9,8.8
		c5.9,7.3,13.9,7.6,20.1,0.5c2.4-2.8,4.6-6.3,5.2-9.8c1.1-5.9,0.9-12.1,1-18.1c0-2.8-0.6-5.7-0.9-8.5c3.5,8.3,5.7,16.7,8.9,24.8
		c1.8,4.4,5,8.4,8.3,12c2.4,2.6,6,3.6,9.6,1.6c3.5-2,4.5-5.2,4.3-8.9c-0.2-3.1-1-6.2-1.6-9.8c5.1,2.1,9.5,4.5,14.1,5.6
		c14,3.3,22.2-5.6,17.9-19.2c-5-15.9-13.6-29.5-26.2-40.5c-1.7-1.5-3.2-3.3-4.8-4.9c6.7,2.6,12.2,6.4,18,9.7
		c5,2.8,10.2,5.7,15.7,7.4c9.6,2.9,16.8-2.3,17.8-12.2c0.9-9.2-0.2-18.1-5.8-25.8c-2.5-3.4-3.5-6.5-1.8-10.4
		c3.2-7.7-4.3-17.9-13.5-18.5c-3.5-0.2-7,0.2-10.4,0.3c-8.1,0.4-16.2,1-24.4,1.3c-2.1,0.1-4.2-0.6-7.7-1.1
		c4.3-7.5,7.9-13.9,11.8-20.8c11.3,4.9,21.5,5,31.9-1.4c-1.4-2.9-2.2-5.5-3.7-7.5c-3.9-5-8.1-9.7-12.4-14.8c5.4-8,14-14.1,18.7-23.9
		c-6.7-2.1-13-3.2-19.3-1.5c-9.2,2.6-18.4,5.3-27.3,8.8c-12,4.8-22,12-25,25.9C588.6,382.2,588.8,366.8,588.5,351.4z M566.9,423.6
		c-10.9-14.4-12.6-18.3-10.3-25.2C563.7,401,567.5,410.3,566.9,423.6z M580.4,398.2c-3.9-17.8-9.2-35.4-11.9-54.7
		C578.2,351.2,583.9,378.2,580.4,398.2z M617.6,402.4c1.5,6.9-0.2,10.7-9.3,22.1C605.9,415.8,609.5,406.8,617.6,402.4z M600.5,393.2
		c1.1-2.6,3.5-4.6,8.1-2.5c-3,8.5-6,16.9-8.9,25.4c-0.6-0.1-1.2-0.2-1.8-0.2C596.8,408.2,597.4,400.5,600.5,393.2z"/>
	<path fill="#C49A6C" d="M937,58.2C861.1,12,781.7,10.7,702.1,48.7c-47,22.4-82.1,57.5-101.5,106.8c-0.4,1.1-1.4,2.1-2.3,3.3
		c-6.6-10.8-12.4-21.2-19.2-31C530.3,58.1,463.9,19.7,378,17.5c-44.2-1.1-85.2,10-122.1,34.8c-30.3,20.3-53.6,47.1-70.6,79.3
		c-17.2,32.6-26.9,67.3-29.5,104c-0.3,4-1.3,8.2,0.9,12.5c1.1-0.9,1.8-1.2,1.9-1.7c0.4-2.3,0.8-4.6,0.9-6.9
		c1.1-14.2,6.4-25.3,19.3-33c10.5-6.3,13.4-20.8,8.2-33.5c-9,9.2-13.7,20.8-20.2,31.3c2.7-15.5,8.3-30.1,13.5-44.8
		c5.8-16.6,18.1-25.7,33.9-31.3c14.9-5.2,30.4-5.5,45.6-2.4c13.5,2.8,26.7,7.5,41.6,11.9c-11.4-7-22.6-11.6-34.6-13.9
		c-11.5-2.2-23.3-3.1-36.8-4.8c3.3-0.9,4.9-1.4,6.6-1.8c2.3-0.5,4.6-0.9,6.9-1.1c22.1-2.2,43.5-7.1,63.5-17.2
		c2.4-1.2,4.8-2.6,8.2-4.6c-5.2-4.5-9.2-8.3-13.6-11.6c-12.4-9.1-25.9-11.1-40.4-6c-9.5,3.4-18.2,8.2-25,15.4
		c-7.8,8.2-15.4,16.7-21.8,26c-5.1,7.5-12.3,10.4-20.6,14.4c0.8-2.1,0.9-2.9,1.4-3.6c19-33.7,44.9-60.7,78.9-79.4
		c40.9-22.4,84.8-28.8,130.8-22.9c37.3,4.8,71.5,17.5,102.5,38.7c33.6,22.9,59.2,52.9,78.9,88.3c2.8,5,6,9.9,9.4,15.4
		c-1.5,8.3-3.2,17.4-5.3,28.4c-1.4-5.5-2.6-9.3-3.3-13.2c-2.8-14-9.8-23.8-24.5-27.4c-7.8-1.9-14.1-6.7-18.7-13.5
		c-0.7-1-1.8-1.8-2.9-2.8c-8.2,12.4-5.1,30.2,2.9,37.7c3.8,3.6,8,6.8,11.8,10.3c9.8,9,19.7,18,29.3,27.3c2.1,2.1,3.9,5.3,4.2,8.2
		c1.3,12.9,2,25.9,3,39.8c-2-3.2-3.5-6-5.4-8.5c-6.2-8-11.6-16.9-18.9-23.7c-13.8-13-32.9-12.9-47.7-0.9c-2.1,1.7-3.8,3.8-7.2,7.3
		c19.9-1.7,32.7,7.1,44.6,18.7c4.5,4.4,10,7.9,15.4,11.2c5.5,3.3,11.4,5.9,17.3,8.3c3.8,1.6,6,4.1,7.5,7.8
		c8.3,20.3,20,38.7,32.3,56.7c1,1.4,2.4,2.6,3.6,3.8c-3.7-9.5-8.1-18.3-13-26.9c-17.7-30.8-24.9-64.1-24.1-99.5
		c1.1-48.6,18.5-89.9,53.2-124c1.5-1.5,3.3-2.6,6.1-4.9c-4.4,14.7-8.2,27.8-8.8,42.1c13-4.1,19.6-11.5,19.8-23.4
		c0.2-8.9-1.2-17.8-1.9-27.4c0.6-0.5,1.9-1.7,3.3-2.7c54.2-40,115-55.2,181.2-44.8c76.2,12,131.4,54.4,166.6,122.8
		c15.1,29.5,22.3,61.1,21.5,94.2c-0.7,29-6.4,57.1-16.2,84.4c-4.4,12.3-9.6,24.3-14.4,36.5c-1.2,3-3.5,6.1,0.5,10.5
		c2.2-3.5,4.3-6.1,5.7-9c9.9-19.8,17.5-40.5,22.9-62c8.4-33.1,11.7-66.7,5.2-100.2C1028.7,144.8,994,92.8,937,58.2z"/>
	<path fill="#C49A6C" d="M355.2,130.9c8.9,12.9,19.2,23,33.9,28.2c10,3.5,19.4,2.8,28.5-2.6c2.4-1.4,4.8-2.6,7.3-3.9
		c0.3,0.5,0.7,0.9,1,1.4c-1.6,1.2-3.4,2.3-4.8,3.7c-8.2,8.4-12.5,18.8-13.9,30.3c-1.1,8.8,2.1,15.9,9,17.9c4.5,1.3,7.6,3.6,10.9,6.5
		c7.1,6.4,9.8,6.4,18.4,1.4c1-0.6,2-1.3,3.1-1.5c10.5-2.2,14.9-9.9,16-19.3c0.9-7.6,0.1-15.4,0-21.1c4.9,6.6,10.8,14.8,17.2,22.6
		c3.4,4.1,8.1,6.5,13.8,6.2c5.8-0.3,8.3-4.5,10.4-9.1c3.5,1.3,6.4,2.6,9.5,3.5c2.8,0.9,5.3,3.2,9.1,2c-2-3.8-3.7-7.1-5.5-10.6
		c0.7-1,1.3-2,2.1-2.8c9.5-9.9,9-23.7-4.4-32.7c-5.9-4-12.9-6.5-19.4-9.6c-2.1-1-4.4-1.8-6.5-2.7c10.6-0.5,20.7-1.4,29.6-7.2
		c8-5.3,9.4-8.8,7.2-18.4c3.3-2.8,6.7-5.7,11.3-9.7c-5.8-0.9-10-1.5-14.2-2.1c-1.6-10.2-8.6-14-17.5-15.7c-6.7-1.3-12.6,1-18.2,4.4
		c-3,1.8-5.9,3.5-8.9,5.3l0,0c-1.8,1.9-3.6,3.7-5.4,5.6c-0.4-0.4-0.7-0.9-1.1-1.3c2.1-1.5,4.2-2.9,6.4-4.4h0
		c2.7-3.4,5.5-6.6,7.9-10.2c8.1-12,4-24-9.5-28.1c-3.7-9.2-8.7-11.7-18.3-9.3c-10.1,2.6-16.9,11.3-18.3,24
		c-0.4,4.1-0.1,8.3-0.1,12.4c-2-3.3-2.3-6.9-3.6-10c-2-4.8-3.9-9.9-7.1-13.7c-6.2-7.4-14.7-7.3-22.2-1.1c-1.7,1.4-3.8,2.4-5.9,2.9
		c-13,3.1-19.3,16-12.4,27.5c3,5.1,8,9.1,12.3,13.3c2,2,4.4,3.4,6.7,5.1C384.8,100.6,370.7,116.7,355.2,130.9z"/>
	<path fill="#C49A6C" d="M782.9,392.8c-6.2-0.2-12.4,0.7-18.8,1.1c0.6-10.2,1.8-20.2-0.9-30.7c-16.2,2.2-26.8,10.2-33.1,25.7
		c-1.6-8.5-6.7-12.8-14.1-14.3c-7.7-1.5-15.5-1.6-23.5,0c-0.6,6.7,1.6,12.4,4.7,17.6c3.2,5.3,7.5,9.8,11.2,14.5
		c-18.8,1.5-32.1,9.6-36.4,22.7c14.1,10.6,29,13.2,45.3,3.6c-12.6,12-16.1,25.9-12.5,42.2c21.9-4.2,28.2-9.8,30.8-27.7
		c5.3,14.8,14.6,24.3,28.3,29.3c10.4-18.4,9.7-29.2-3.1-48.2c10.3,0.5,20.1,0.3,27.7-7.3c7.1-7.1,11.3-15.7,14.4-26.3
		C795.5,394.2,789.2,393,782.9,392.8z"/>
	<path fill="#C49A6C" d="M837.8,521.2c-14.9,8.5-30.8,14.8-46.7,21c-12.4,4.8-24.1,11.3-36.1,17.2c-1.8,0.9-3.3,2.5-5,3.8
		c7.2-1.9,13.8-4.6,20.1-8c5.1-2.7,9.7-2.3,14.9-0.1c9.1,3.7,18.2,7.6,27.7,10.3c18.3,5.3,36.2,4.2,53-5.5
		c19.4-11.2,33.9-27.9,50-45.1c-3.3-1.3-5.1-2.2-7.1-2.7C883.9,506.8,860.1,508.4,837.8,521.2z"/>
	<path fill="#C49A6C" d="M1026,288.9c0.3-1.6,0-3.3,0-6.1c-3.4,0.9-6.2,1.3-8.7,2.3c-21.6,8.4-40.5,20.3-51.6,41.6
		c-8.4,16.1-11.4,33.9-15.3,51.5c-0.1,0.4,0.4,1,0.7,1.9c1.5-0.1,3.2-0.3,4.9-0.3c28.8,0.3,59.1-18.7,63.7-56.8
		C1021.2,311.5,1024,300.2,1026,288.9z"/>
	<path fill="#C49A6C" d="M697,108.6c3.5,0.1,6.9-0.6,10.4-1c11.6-1.3,23.2-3.4,32.9-10.3c11.6-8.2,22.4-17.4,33.5-26.3
		c0.3-0.2,0.1-1,0.3-2.7c-9.7-4.3-19.5-9.3-29.7-13.2c-11.8-4.5-22.9-2-32.9,5.4c-13.3,10-23.3,22.6-28.9,38.4
		c-2.6,7.4-4.4,15-3,23.4C681.9,113.2,687.3,108.3,697,108.6z"/>
	<path fill="#C49A6C" d="M858.4,64.5c4.4,4.5,9.6,8.3,14.8,11.8c3,2.1,6.7,2.1,9.2-1.5c1.9-2.8,1.6-8-1.2-10.4
		c-2.6-2.2-5.8-3.7-8.9-5.3c-8.3-4.1-16.9-7.6-25-12.1c-16.1-9.1-33.5-12.6-51.7-13.4c-2.6-0.1-5.2,0.7-7.9,1.1
		c0,0.8-0.1,1.5-0.1,2.3c3.2,0.9,6.4,1.7,9.6,2.7c9.3,2.9,17.9,7,24.3,14.6c2.5,2.9,5.2,6.1,2.9,10.7c-2.1-0.9-3.7-1.6-5.3-2.2
		c-9.2-3.3-16.9,0.4-19.9,9.7c-0.9,2.7-1.4,5.7-1.5,8.5c-0.1,10.7,6.8,16.7,17.4,15.5c21-2.4,31.5-24.9,19.8-42.5
		c-1.5-2.3-3.2-4.5-5.7-8c2.6,0.6,4,0.8,5.3,1.3C844.3,50.8,851.4,57.4,858.4,64.5z"/>
	<path fill="#C49A6C" d="M892.4,399.5c-3.2,18.4-9.4,35.2-24.5,47.3c-9.6-6.4-16.2-16.6-18.8-29c1.6-0.9,3.2-2.1,5-2.8
		c8-2.9,11.9-8.8,12.8-17c0.7-6.2,1.9-12.4,2.9-18.8c-0.9-0.2-2-0.6-3.1-0.6c-3.8,0.1-7.6,0.2-11.3,0.6
		c-13.6,1.3-20.9,9.2-21.5,22.8c-0.4,10.6,3.3,19.9,8.4,28.9c1.4,2.4,2.8,4.8,4.9,8.3c-16-3.6-31-8.2-44.9,3.2
		c10.7,8.3,19.5,9.3,30,2.5c5.3-3.4,10.2-3.6,15.6-1.2c5,2.2,10,4.5,17.5,7.9c-10.4,6-19.1,11.1-29,16.8
		C868.7,461.7,892.2,432.5,892.4,399.5z"/>
	<path fill="#C49A6C" d="M829.2,329.3c18.9-0.8,34.5,6.1,46.1,21.5c1.7,2.3,3.2,4.7,5.3,7.7c-3.7-26-35.5-46.7-59.6-39.5
		c-15.7,4.8-24.4,18.2-21.9,33.9c1.5,9.5,8.5,16,17.5,16.4c9.4,0.4,16.5-4.9,19.2-14.8c-1.4,1-2.2,1.6-3.1,2.1
		c-7.7,4.6-13.9,2.6-17.5-5.5C810.2,339.8,816.3,329.9,829.2,329.3z"/>
	<path fill="#C49A6C" d="M201.9,193.2c14.3-8.5,28.9-11.9,44.2-2.1c3.5,2.2,7.7,3.3,11.5,4.8c8.8-17.2,7.3-30.5-3.8-38.2
		c-8.2,7.2-16.5,14.5-24.8,21.6c-1.3,1.1-2.8,2-4.4,2.4c-6.4,1.9-12.8,3.6-20.5,5.8c5.2-10.3,10.6-19.6,9-31
		c-14.6,3.8-19,13.5-16.8,36.3c-1.7,1.8-3.4,3.8-5.2,5.8C195.3,197.6,198.5,195.3,201.9,193.2z"/>
	<path fill="#C49A6C" d="M376.4,40.7c-11.9-9.2-31.4-9.4-45.1-0.4c-6.3,4.1-10.9,9.6-13,16.9c-1.9,6.6-1.8,13.2,2.4,19.2
		c4.1,5.8,11.3,8.3,17.6,6.1c6.6-2.2,9.4-7.2,8.7-18c-1.5,3.6-2.2,5.4-3.1,7.1c-1.7,3.3-4.3,5.8-8.2,5.2c-4.1-0.7-7-3.5-7.3-7.6
		c-0.2-3.9-0.1-8.3,1.5-11.7c6.5-13.6,29.4-19.2,41.8-10.6c4.3,2.9,6,6.9,5.3,12c-0.6,5.1-3.4,8.6-8,10.5c-4.9,2-8.2,0.4-10-4.8
		c-0.5-1.4-0.9-2.8-1.7-5c-4.2,10.4-0.2,16.7,8.8,15.5c9-1.3,14.3-7.2,17.2-15.4C386,52.7,383.2,46,376.4,40.7z"/>
	<path fill="#C49A6C" d="M305.1,195.4c0.6,2.1,0.7,4.4,1,7.1c4.5-6.8,4.5-11.9,0.3-16.1c-4.3-4.4-10.3-5-16-1.6
		c-11,6.6-13.1,21.3-4.2,31.9c10.4,12.5,24.4,15.9,39.4,12.4c15-3.4,23.5-14.8,27-29.2c2.9-11.8-0.7-22.1-11.8-31.1
		c0.9,2.3,1.1,3.1,1.5,3.7c10.3,16.9,6.4,34.5-10.1,45.2c-12.2,7.9-31.4,5.8-41-4.6c-6-6.5-6.3-15.5-0.7-21.2
		C295.5,186.8,303.1,188.6,305.1,195.4z"/>
	<path fill="#C49A6C" d="M977.4,233.3c-11.9,10-18.4,22.4-14.4,38.7c0.8-2.4,1.5-4.7,2.4-7.1c3.1-8.8,9.3-13.7,18.7-14.4
		c2.3-0.2,4.6-0.2,6.9-0.5c10.9-1.8,19.2-10.5,21-22.5C999.2,222.1,987.6,224.8,977.4,233.3z"/>
	<path fill="#C49A6C" d="M651.4,353.4c7.6,2.9,15.3,1.9,23.1,0.9c-3-0.8-6.1-1-9.2-1.3c-5.9-0.5-11.4-2.4-15.9-6.2
		c-3.7-3.2-5.9-7.1-5.7-12.1c0.2-4.3,2.6-6.9,6.5-8.3c5-1.7,11.9-0.3,14.5,3.1c2.9,3.7,1.7,7-1.1,10.2c-0.5,0.6-0.6,1.5-0.9,2.4
		c8.7,0.7,13.4-2,15.6-8.9c2-6.3-0.6-12.5-7.4-15.8c-6.9-3.4-14.2-5.1-21.9-3.1c-8.9,2.3-13.8,8.5-13.7,17.6
		C635.5,341.3,641.8,349.8,651.4,353.4z"/>
	<path fill="#C49A6C" d="M612.9,724.1c-12.8,6.8-18.8,18.4-21.6,32.1c-0.5,2.3-0.5,4.8-0.7,7.3c5.5,1.2,8.4-1.5,10.8-4.3
		c3.4-3.9,6.6-8.1,9.3-12.6c6-10,14.8-14.3,26.1-14.3c2,0,4,0,7.2,0C635,720.6,624.4,718,612.9,724.1z"/>
	<path fill="#C49A6C" d="M734.8,544.5c22.6-2.5,41-23.2,37.3-42.9c-7.5,4-11.4,10-15.1,16.2c-2.8,4.7-5.5,9.6-8.4,14.2
		c-1.6,2.4-3.2,5.2-7,6.1c8-23.9,2-49.2-14.1-56c1,8,6.5,13.3,8.9,19.8c2.6,7.2,4.6,14.6,3.5,22.1
		C738.7,530.9,736.5,537.6,734.8,544.5z"/>
	<path fill="#C49A6C" d="M215.6,282.5c-0.7-7.7-5.6-10.8-14.8-8.5c1.7,0.8,2.7,1.1,3.6,1.7c5.1,3.1,6.4,5.9,5.2,10.6
		c-1.3,5-5.8,8.3-11,8.1c-5.2-0.2-10-4.4-11.4-10.4c-1.6-6.8-1-13.6,3.2-19.2c4.1-5.5,9-10.4,13.6-15.6
		c-11.4,3.2-19.7,10.7-23.3,21.2c-3.5,10.2-1,21,6.4,27.1c5.4,4.5,12.6,5.4,18.7,2.2C212.2,296.4,216.2,289.3,215.6,282.5z"/>
	<path fill="#C49A6C" d="M182.8,314.5c-3.6-11.7-12.2-18.3-24.4-21c6.4,7.2,8.1,15.8,8.6,24.7c0.1,2.3,0.1,4.6,0.4,6.9
		c0.7,6,3.7,10.2,10.2,11.6C184.7,330.5,185.3,322.5,182.8,314.5z"/>
	<path fill="#C49A6C" d="M292.7,47.1c-1.1,0.1-2.4,0.2-3.4,0.6c-11,4.5-19.5,11.9-25.1,22.7c5.4-6.8,12.1-5.5,19.2-4.4
		c4.7,0.7,9.8,0.7,14.4-0.4c5.3-1.3,9-7.3,8.2-11C305,50.3,298.4,46.5,292.7,47.1z"/>
	<path fill="#C49A6C" d="M179.7,218.1c-5.3,9.9-1,21.3,9.7,23.2c9.7,1.8,19.7,1.6,29.1-2.7c-2.3-0.7-4.6-0.5-6.8-1
		c-4.2-1-8.6-1.7-12.4-3.6c-10.4-5.3-11.5-16.1-2.8-23.8c0.9-0.8,2-1.2,3-1.8C188.3,208.6,183.2,211.7,179.7,218.1z"/>
	<path fill="#C49A6C" d="M443.8,244.5c-7.4-2.9-13.2-8-21-8.5c-10.4-0.6-20.9-0.6-31.3-0.9c-0.3,0-0.6,0.8-0.9,1.2
		c5.9,3.6,11.7,7.3,17.7,10.7C420.5,254.1,432.6,253.4,443.8,244.5z"/>
	<path fill="#C49A6C" d="M378.6,229.1c-0.2,2,0.2,4.1,0.5,7.4c2.6-4.7,4.4-7.9,6.1-11.1c3.7-6.7,6-13.9,5.7-21.5
		c-0.3-8.1-3.3-14.8-12.9-19.2c5.7,10.9,5,20.8,2.7,30.8C379.8,219.9,379.2,224.5,378.6,229.1z"/>
	<path fill="#C49A6C" d="M605.6,245.5c15.4-3.6,19.2-20.9,8.6-34.2c-2.2,5.6-4.4,11.6-6.8,17.5C605.1,234.1,604.2,239.6,605.6,245.5
		z"/>
	<path fill="#C49A6C" d="M437.2,263.2c38.3,3.9,74.1-15.6,78.7-44.5C498.4,251.7,470,261.5,437.2,263.2z"/>
	<path fill="#C49A6C" d="M233.4,205.6c-0.8-7.8-9.3-13.4-19.7-13c9.4,9,12.3,13.9,1.9,28C227.2,219.1,234.2,212.9,233.4,205.6z"/>
	<path fill="#C49A6C" d="M782,441.5c0,4.4,3.9,8.2,8.4,8c4.2-0.2,7.6-3.6,7.6-7.8c0-4.4-4.1-8.3-8.4-8.1
		C785.5,433.7,782,437.4,782,441.5z"/>
	<path fill="#C49A6C" d="M315.8,498.7c-0.2,4.5,3.6,8.5,8.1,8.4c4.2-0.1,7.8-3.7,7.7-7.8c0-4.1-3.7-7.9-7.7-8
		C319.8,491.1,316,494.6,315.8,498.7z"/>
	<path fill="#C49A6C" d="M532.2,580.6c0,4.1,3.5,7.8,7.6,7.9c4,0.1,7.9-3.5,8.1-7.5c0.3-4.4-3.5-8.3-8.1-8.2
		C535.6,572.9,532.2,576.3,532.2,580.6z"/>
	<path fill="#C49A6C" d="M316.1,516.8c0.1-4-3.7-7.8-7.7-7.9c-4.1-0.1-7.9,3.6-8,7.6c0,4.1,3.6,7.9,7.7,7.9
		C312.2,524.4,316,520.8,316.1,516.8z"/>
	<path fill="#C49A6C" d="M198.8,356.1c0.1-4-3.8-7.9-7.8-7.8c-3.7,0-7.2,3.3-7.5,7.1c-0.3,4.2,3.1,8,7.2,8.2
		C194.8,363.8,198.7,360.2,198.8,356.1z"/>
	<path fill="#C49A6C" d="M984.6,390.2c3.3-1.2,5.5-3.4,4.5-7.1c-1-3.7-4.1-4.5-7.5-4.3c-6.1,0.5-9.5,5.5-9.2,14.6
		c3.9-1,7.2-1.9,10.5-2.8C983.5,390.5,984.1,390.4,984.6,390.2z"/>
	<path fill="#C49A6C" d="M207.6,333.6c-4.2,0.2-7.1,3.1-7.1,7.2c0,4.3,3.5,7.7,7.9,7.5c4.1-0.2,7-3.2,7-7.3
		C215.5,336.4,212.2,333.3,207.6,333.6z"/>
	<path fill="#C49A6C" d="M968.7,400.9c0.1-3.5-3-6.9-6.4-7c-3.4-0.1-6.7,3-6.9,6.5c-0.2,3.6,2.8,6.8,6.4,6.9
		C965.2,407.4,968.5,404.3,968.7,400.9z"/>
	<path fill="#C49A6C" d="M457.3,609.9c-1.8,1.9-3.7,3.5-5.1,5.5c-1.9,2.7-1.8,5.5,1.4,7.4c3.1,1.8,5.7,0.6,7.4-2.1
		C463.8,616.3,461.7,613.1,457.3,609.9z"/>
	<path fill="#C49A6C" d="M978,406c3.4-0.2,5.3-2.2,5.7-5.4c0.3-3.2-2.6-6.1-5.9-6.2c-3.4-0.1-6.1,2.6-6.1,6
		C971.8,403.7,974.5,406.2,978,406z"/>
	<path fill="#C49A6C" d="M611,184.4c-0.5,0-1,0-1.5,0.1c0,5.4,0,10.8,0,16.2c0.5,0,1,0,1.5,0c0-2.8,0-5.6,0-8.3
		C611,189.6,611,187,611,184.4z"/>
</g>
</svg>
