<?xml version="1.0" encoding="utf-8"?>
<!-- Generator: Adobe Illustrator 28.1.0, SVG Export Plug-In . SVG Version: 6.00 Build 0)  -->
<svg version="1.1" id="Layer_1" xmlns="http://www.w3.org/2000/svg" xmlns:xlink="http://www.w3.org/1999/xlink" x="0px" y="0px"
	 viewBox="0 0 1200 800" enable-background="new 0 0 1200 800" xml:space="preserve"><metadata><c2pa:manifest xmlns:c2pa="http://c2pa.org/manifest">AAAsaGp1bWIAAAAeanVtZGMycGEAEQAQgAAAqgA4m3EDYzJwYQAAACxCanVtYgAAAEdqdW1kYzJtYQARABCAAACqADibcQN1cm46dXVpZDo1ZmYzZmIzYi03M2NmLTQxYTgtOTBmNy03ZTMxMTc4MTg5ZmMAAAABqGp1bWIAAAApanVtZGMyYXMAEQAQgAAAqgA4m3EDYzJwYS5hc3NlcnRpb25zAAAAAMpqdW1iAAAAJmp1bWRjYm9yABEAEIAAAKoAOJtxA2MycGEuYWN0aW9ucwAAAACcY2JvcqFnYWN0aW9uc4GjZmFjdGlvbmtjMnBhLmVkaXRlZG1zb2Z0d2FyZUFnZW50bUFkb2JlIEZpcmVmbHlxZGlnaXRhbFNvdXJjZVR5cGV4Rmh0dHA6Ly9jdi5pcHRjLm9yZy9uZXdzY29kZXMvZGlnaXRhbHNvdXJjZXR5cGUvdHJhaW5lZEFsZ29yaXRobWljTWVkaWEAAACtanVtYgAAAChqdW1kY2JvcgARABCAAACqADibcQNjMnBhLmhhc2guZGF0YQAAAAB9Y2JvcqVqZXhjbHVzaW9uc4GiZXN0YXJ0GQGZZmxlbmd0aBk7OGRuYW1lbmp1bWJmIG1hbmlmZXN0Y2FsZ2ZzaGEyNTZkaGFzaFgghqKe5QVkoJiR+y5Berr2UavryCJcVmHR18bBmAN8QfFjcGFkSQAAAAAAAAAAAAAAAgtqdW1iAAAAJGp1bWRjMmNsABEAEIAAAKoAOJtxA2MycGEuY2xhaW0AAAAB32Nib3KoaGRjOnRpdGxlb0dlbmVyYXRlZCBJbWFnZWlkYzpmb3JtYXRtaW1hZ2Uvc3ZnK3htbGppbnN0YW5jZUlEeCx4bXA6aWlkOjZmZTZlZTU3LTNjNjQtNDZiNy05YTAxLWJiMGYxZTcyOGE1OW9jbGFpbV9nZW5lcmF0b3J4NkFkb2JlX0lsbHVzdHJhdG9yLzI4LjEgYWRvYmVfYzJwYS8wLjcuNiBjMnBhLXJzLzAuMjUuMnRjbGFpbV9nZW5lcmF0b3JfaW5mb4G/ZG5hbWVxQWRvYmUgSWxsdXN0cmF0b3JndmVyc2lvbmQyOC4x/2lzaWduYXR1cmV4GXNlbGYjanVtYmY9YzJwYS5zaWduYXR1cmVqYXNzZXJ0aW9uc4KiY3VybHgnc2VsZiNqdW1iZj1jMnBhLmFzc2VydGlvbnMvYzJwYS5hY3Rpb25zZGhhc2hYIOusZuFqg598YJzpOfX+1iNBgqddK8SSEhBG9CJk0CvBomN1cmx4KXNlbGYjanVtYmY9YzJwYS5hc3NlcnRpb25zL2MycGEuaGFzaC5kYXRhZGhhc2hYIM5DwpgNy4u3o/DxdNtZxWJZDdoC2FJ6XRG/sYFgLzVxY2FsZ2ZzaGEyNTYAAChAanVtYgAAAChqdW1kYzJjcwARABCAAACqADibcQNjMnBhLnNpZ25hdHVyZQAAACgQY2JvctKERKEBOCSjZnNpZ1RzdKFpdHN0VG9rZW5zgaFjdmFsWQ41MIIOMTADAgEAMIIOKAYJKoZIhvcNAQcCoIIOGTCCDhUCAQMxDzANBglghkgBZQMEAgEFADCBggYLKoZIhvcNAQkQAQSgcwRxMG8CAQEGCWCGSAGG/WwHATAxMA0GCWCGSAFlAwQCAQUABCDVyC4wq5Wto8WtvMf0HjxnUsMWX3BS9jTMEZSLDv1OwgIRAPxi+6idOLILq9LH6CxxqBMYDzIwMjQwMTEzMDI0NTU4WgIIa2rycS5rDgKgggu9MIIFBzCCAu+gAwIBAgIQBR6ekdcekQq75D1c7dDd2TANBgkqhkiG9w0BAQsFADBjMQswCQYDVQQGEwJVUzEXMBUGA1UEChMORGlnaUNlcnQsIEluYy4xOzA5BgNVBAMTMkRpZ2lDZXJ0IFRydXN0ZWQgRzQgUlNBNDA5NiBTSEEyNTYgVGltZVN0YW1waW5nIENBMB4XDTIzMDkwODAwMDAwMFoXDTM0MTIwNzIzNTk1OVowWDELMAkGA1UEBhMCVVMxFzAVBgNVBAoTDkRpZ2lDZXJ0LCBJbmMuMTAwLgYDVQQDEydEaWdpQ2VydCBBZG9iZSBBQVRMIFRpbWVzdGFtcCBSZXNwb25kZXIwWTATBgcqhkjOPQIBBggqhkjOPQMBBwNCAARNLK5R+QP/tefzBZdWrDYfEPE7mzrBFX7tKpSaxdLJo7cC9SHh2fwAeyefbtU66YaNQQzfOZX02N9KzQbH0/pso4IBizCCAYcwDgYDVR0PAQH/BAQDAgeAMAwGA1UdEwEB/wQCMAAwFgYDVR0lAQH/BAwwCgYIKwYBBQUHAwgwIAYDVR0gBBkwFzAIBgZngQwBBAIwCwYJYIZIAYb9bAcBMB8GA1UdIwQYMBaAFLoW2W1NhS9zKXaaL3WMaiCPnshvMB0GA1UdDgQWBBSwNapWwyGpi87TuLyLFiVXne804TBaBgNVHR8EUzBRME+gTaBLhklodHRwOi8vY3JsMy5kaWdpY2VydC5jb20vRGlnaUNlcnRUcnVzdGVkRzRSU0E0MDk2U0hBMjU2VGltZVN0YW1waW5nQ0EuY3JsMIGQBggrBgEFBQcBAQSBgzCBgDAkBggrBgEFBQcwAYYYaHR0cDovL29jc3AuZGlnaWNlcnQuY29tMFgGCCsGAQUFBzAChkxodHRwOi8vY2FjZXJ0cy5kaWdpY2VydC5jb20vRGlnaUNlcnRUcnVzdGVkRzRSU0E0MDk2U0hBMjU2VGltZVN0YW1waW5nQ0EuY3J0MA0GCSqGSIb3DQEBCwUAA4ICAQB4K4xCx4QQhFiUgskV+5bC9AvSyYG19a8lWMkjUcR5DEdi6guz0GUSYAzUfpCaKfD+b9gc6f4zK88OFOKWOq2L9yPB6RZSWuLgcFEyFIB1qYvF8XdSRBF/eDzjg4ux8knpF+tANOeQaMxW+xhlWsW9C63kE0V55K+oIDzVD1/RoftknDsZU3UEC4GW5HWL8aNwKenMva4mYo0cTmaojslksTFIYCsXis8KxVul23tGsDYTlF2cyMXOIsaSs1kiLaTyd9GYgUJ+PVNwA2E57IWzfWZEwNaR3/zaL9mVL73XZGfFGL8KPbwby0w755gAZ0TASml2ALN2Qr8PQpAzzlk3lCTBUQLZlMedqIWgN5w/GwielH6UNqRXznUocKW+hir9IPgYHHSBtixzydFH5q/l5qYGYKvxyIHtIY3AgA6Yw4Kts+AdC+MbQANTPDK1MdNocW+9dOJxSqjLr+cyU0Jd7IMKl1Mj/vcx0D/cv2eRcfwEFqzlwluenVez+HBQSZfMx6op5YZDkrWdZttvvR5avngtISdpZBdS7s0XSSW/+dS16DykZ6KRQ54Ol6aA+3husOGKQMffj9NCblKAbGEq3bLhYslskEBgQJ4yOvYIG0i3FvoScrbop2sWsFZSLSZEtnleWeF7MT4O3/NrkZHbTdIUx3iPdwjdzlnkXm5yuzCCBq4wggSWoAMCAQICEAc2N7ckVHzYR6z9KGYqXlswDQYJKoZIhvcNAQELBQAwYjELMAkGA1UEBhMCVVMxFTATBgNVBAoTDERpZ2lDZXJ0IEluYzEZMBcGA1UECxMQd3d3LmRpZ2ljZXJ0LmNvbTEhMB8GA1UEAxMYRGlnaUNlcnQgVHJ1c3RlZCBSb290IEc0MB4XDTIyMDMyMzAwMDAwMFoXDTM3MDMyMjIzNTk1OVowYzELMAkGA1UEBhMCVVMxFzAVBgNVBAoTDkRpZ2lDZXJ0LCBJbmMuMTswOQYDVQQDEzJEaWdpQ2VydCBUcnVzdGVkIEc0IFJTQTQwOTYgU0hBMjU2IFRpbWVTdGFtcGluZyBDQTCCAiIwDQYJKoZIhvcNAQEBBQADggIPADCCAgoCggIBAMaGNQZJs8E9cklRVcclA8TykTepl1Gh1tKD0Z5Mom2gsMyD+Vr2EaFEFUJfpIjzaPp985yJC3+dH54PMx9QEwsmc5Zt+FeoAn39Q7SE2hHxc7Gz7iuAhIoiGN/r2j3EF3+rGSs+QtxnjupRPfDWVtTnKC3r07G1decfBmWNlCnT2exp39mQh0YAe9tEQYncfGpXevA3eZ9drMvohGS0UvJ2R/dhgxndX7RUCyFobjchu0CsX7LeSn3O9TkSZ+8OpWNs5KbFHc02DVzV5huowWR0QKfAcsW6Th+xtVhNef7Xj3OTrCw54qVI1vCwMROpVymWJy71h6aPTnYVVSZwmCZ/oBpHIEPjQ2OAe3VuJyWQmDo4EbP29p7mO1vsgd4iFNmCKseSv6De4z6ic/rnH1pslPJSlRErWHRAKKtzQ87fSqEcazjFKfPKqpZzQmiftkaznTqj1QPgv/CiPMpC3BhIfxQ0z9JMq++bPf4OuGQq+nUoJEHtQr8FnGZJUlD0UfM2SU2LINIsVzV5K6jzRWC8I41Y99xh3pP+OcD5sjClTNfpmEpYPtMDiP6zj9NeS3YSUZPJjAw7W4oiqMEmCPkUEBIDfV8ju2TjY+Cm4T72wnSyPx4JduyrXUZ14mCjWAkBKAAOhFTuzuldyF4wEr1GnrXTdrnSDmuZDNIztM2xAgMBAAGjggFdMIIBWTASBgNVHRMBAf8ECDAGAQH/AgEAMB0GA1UdDgQWBBS6FtltTYUvcyl2mi91jGogj57IbzAfBgNVHSMEGDAWgBTs1+OC0nFdZEzfLmc/57qYrhwPTzAOBgNVHQ8BAf8EBAMCAYYwEwYDVR0lBAwwCgYIKwYBBQUHAwgwdwYIKwYBBQUHAQEEazBpMCQGCCsGAQUFBzABhhhodHRwOi8vb2NzcC5kaWdpY2VydC5jb20wQQYIKwYBBQUHMAKGNWh0dHA6Ly9jYWNlcnRzLmRpZ2ljZXJ0LmNvbS9EaWdpQ2VydFRydXN0ZWRSb290RzQuY3J0MEMGA1UdHwQ8MDowOKA2oDSGMmh0dHA6Ly9jcmwzLmRpZ2ljZXJ0LmNvbS9EaWdpQ2VydFRydXN0ZWRSb290RzQuY3JsMCAGA1UdIAQZMBcwCAYGZ4EMAQQCMAsGCWCGSAGG/WwHATANBgkqhkiG9w0BAQsFAAOCAgEAfVmOwJO2b5ipRCIBfmbW2CFC4bAYLhBNE88wU86/GPvHUF3iSyn7cIoNqilp/GnBzx0H6T5gyNgL5Vxb122H+oQgJTQxZ822EpZvxFBMYh0MCIKoFr2pVs8Vc40BIiXOlWk/R3f7cnQU1/+rT4osequFzUNf7WC2qk+RZp4snuCKrOX9jLxkJodskr2dfNBwCnzvqLx1T7pa96kQsl3p/yhUifDVinF2ZdrM8HKjI/rAJ4JErpknG6skHibBt94q6/aesXmZgaNWhqsKRcnfxI2g55j7+6adcq/Ex8HBanHZxhOACcS2n82HhyS7T6NJuXdmkfFynOlLAlKnN36TU6w7HQhJD5TNOXrd/yVjmScsPT9rp/Fmw0HNT7ZAmyEhQNC3EyTN3B14OuSereU0cZLXJmvkOHOrpgFPvT87eK1MrfvElXvtCl8zOYdBeHo46Zzh3SP9HSjTx/no8Zhf+yvYfvJGnXUsHicsJttvFXseGYs2uJPU5vIXmVnKcPA3v5gA3yAWTyf7YGcWoWa63VXAOimGsJigK+2VQbc61RWYMbRiCQ8KvYHZE/6/pNHzV9m8BPqC3jLfBInwAM1dwvnQI38AC+R2AibZ8GV2QqYphwlHK+Z/GqSFD/yYlvZVVCsfgPrA8g4r5db7qS9EFUrnEw4d2zc4GqEr9u3WfPwxggG3MIIBswIBATB3MGMxCzAJBgNVBAYTAlVTMRcwFQYDVQQKEw5EaWdpQ2VydCwgSW5jLjE7MDkGA1UEAxMyRGlnaUNlcnQgVHJ1c3RlZCBHNCBSU0E0MDk2IFNIQTI1NiBUaW1lU3RhbXBpbmcgQ0ECEAUenpHXHpEKu+Q9XO3Q3dkwDQYJYIZIAWUDBAIBBQCggdEwGgYJKoZIhvcNAQkDMQ0GCyqGSIb3DQEJEAEEMBwGCSqGSIb3DQEJBTEPFw0yNDAxMTMwMjQ1NThaMCsGCyqGSIb3DQEJEAIMMRwwGjAYMBYEFNkauTP+F63pgh6mE/WkOnFOPn59MC8GCSqGSIb3DQEJBDEiBCCy9O0wzi2nwdLBCJGqhmyYD/+qNqAwNR+IMGPYB3qGDDA3BgsqhkiG9w0BCRACLzEoMCYwJDAiBCCC2vGUlXs2hAJFj9UnAGn+YscUVvqeC4ar+CfoUyAn2TAKBggqhkjOPQQDAgRGMEQCIA0yPfrx+GNByaMQgIRDh0a9+07TXc+EFN4mjc8/nY37AiAY1sxehW++rOzqBjOpCUf0lRV2/hvoXRrJRTntgOCiqmd4NWNoYWluglkGMzCCBi8wggQXoAMCAQICEBtbCzvasORd8vMNnlTR2tIwDQYJKoZIhvcNAQELBQAwdTELMAkGA1UEBhMCVVMxIzAhBgNVBAoTGkFkb2JlIFN5c3RlbXMgSW5jb3Jwb3JhdGVkMR0wGwYDVQQLExRBZG9iZSBUcnVzdCBTZXJ2aWNlczEiMCAGA1UEAxMZQWRvYmUgUHJvZHVjdCBTZXJ2aWNlcyBHMzAeFw0yMzAyMDEwMDAwMDBaFw0yNDAyMDEyMzU5NTlaMIGhMREwDwYDVQQDDAhjYWktcHJvZDEcMBoGA1UECwwTQ29udGVudCBDcmVkZW50aWFsczETMBEGA1UECgwKQWRvYmUgSW5jLjERMA8GA1UEBwwIU2FuIEpvc2UxEzARBgNVBAgMCkNhbGlmb3JuaWExCzAJBgNVBAYTAlVTMSQwIgYJKoZIhvcNAQkBFhVncnAtY2FpLW9wc0BhZG9iZS5jb20wggEiMA0GCSqGSIb3DQEBAQUAA4IBDwAwggEKAoIBAQDv0wCnfYY9lkHDsykrTG7FYlnYHBcyualuD5u9ULjzv+FsTWOLg8Nhrz9RTxI9EeBbu3Wm7f4vqPsQYfxkEp0wIa6DVmEOZhbAeRfbhybWQ/D4Wvvck4mEZR+QZmTpIn7HX61gbtMFHlJUxkYBctIoAt9TBAFbz9d5Ig2WG0bsH39b6/8USXnIIk4FB6dtBRT1xeEwSDtwOd1YBpXXNBJmRWHXNJZZ85of2tBTesg/kMvTrOJJxYDZ97U416wcvbVomlees+NXUY3/ZB4xH+NsZils7m1bL2v2hSnHiLoqZeUKklbHUmT4ZpjrZCdtuIsWm5j2PPXKr7HKUuCbZSXBAgMBAAWjggGMMIIBiDAMBgNVHRMBAf8EAjAAMA4GA1UdDwEB/wQEAwIHgDAeBgNVHSUEFzAVBgkqhkiG9y8BAQwGCCsGAQUFBwMEMIGOBgNVHSAEgYYwgYMwgYAGCSqGSIb3LwECAzBzMHEGCCsGAQUFBwICMGUMY1lvdSBhcmUgbm90IHBlcm1pdHRlZCB0byB1c2UgdGhpcyBMaWNlbnNlIENlcnRpZmljYXRlIGV4Y2VwdCBhcyBwZXJtaXR0ZWQgYnkgdGhlIGxpY2Vuc2UgYWdyZWVtZW50LjBdBgNVHR8EVjBUMFKgUKBOhkxodHRwOi8vcGtpLWNybC5zeW1hdXRoLmNvbS9jYV83YTVjM2EwYzczMTE3NDA2YWRkMTkzMTJiYzFiYzIzZi9MYXRlc3RDUkwuY3JsMDcGCCsGAQUFBwEBBCswKTAnBggrBgEFBQcwAYYbaHR0cDovL3BraS1vY3NwLnN5bWF1dGguY29tMB8GA1UdIwQYMBaAFFcpejJNzP7kNU7AHyRzznNTq99qMA0GCSqGSIb3DQEBCwUAA4ICAQBXjlGa3yAK/Gijn6n/JNU9FZm72MP6vc5czrWe9y0T+EawuRvhpD5Edi1TnXkrpe8sMkgSjTGdbY+yGhq8zlCWQeXN1/aWo3L9Xr1uNxY/oVpLn0uWWfnfJ7yR9gKl/yoMfhjydT4t1fXHi/MhfhrWSVRHqX2U31UFGz/e298P2kv+vqhzpIUo1bj+jibtoPLMMQcCOTtKiJOTh4o3VSZpwQDERCzo91NkF+LnZjwYl6fE5USIkg/oCoomXxSPpowybDrcRJ9ilbtJcER48/LGgwzv/c7OYdron4PnEXm1FkOaVj+QRf7OwiNTizonhIzLR5Vfp0QHOWv/bPzvCjPQd+Xr0Q4032WlSxQwostNTAPtoVAU4OCwVH3Ech38emJ00/6fkDCdr7MN8/4n2LSNrMUvaBEZdmLqDCBnO02dbFrmpg3pTc0FqRQ4GL/88pjRNSMy5tU9SoQnSCGYqIsjfL8AzgPEGiXXRgABYc1uXecf4/eayb3K2MPs7hnWTbUKpHHJIwxpdN3vTGdZNWpz9Oxfuo3eELQlkTvACHgqkaXi/FAanHe5PChn6fr1/4cNF8goD0buPApgS3zzwqjRhxrH8ISwPfJn8JqzurMaLDMnnc18tHzUiMtX73jf6oXh7voCxX/T4D3nFPlxU3om2cpcLQ1Wd4026x18rlSGR1kGpTCCBqEwggSJoAMCAQICEAyotlR7iebSBol1zYubieIwDQYJKoZIhvcNAQELBQAwbDELMAkGA1UEBhMCVVMxIzAhBgNVBAoTGkFkb2JlIFN5c3RlbXMgSW5jb3Jwb3JhdGVkMR0wGwYDVQQLExRBZG9iZSBUcnVzdCBTZXJ2aWNlczEZMBcGA1UEAxMQQWRvYmUgUm9vdCBDQSBHMjAeFw0xNjExMjkwMDAwMDBaFw00MTExMjgyMzU5NTlaMHUxCzAJBgNVBAYTAlVTMSMwIQYDVQQKExpBZG9iZSBTeXN0ZW1zIEluY29ycG9yYXRlZDEdMBsGA1UECxMUQWRvYmUgVHJ1c3QgU2VydmljZXMxIjAgBgNVBAMTGUFkb2JlIFByb2R1Y3QgU2VydmljZXMgRzMwggIiMA0GCSqGSIb3DQEBAQUAA4ICDwAwggIKAoICAQC3Hy69vQmzXEhs/gyDrmwB6lF4JaSAPomnsbKIZNr2iXaB+fkd85X8eJiNmI7P5O4cVT4Nc1p3zrESqBV4ZUyW8gcZ78QdwoHG8QNd2VNcHnMgSR+XT9Iafsnq9Nfww3Jt9KL3l5ANQ5n1+MJqr48EWNLll942bOL/JH4ywDSMoqhZqtJEIUUUGlQVBZ8CAvJc7LE6ddA5C52PE2Ppa7RfQgHXf4gfXVZwpxYRZcziPiOHqEvLb0J3cShUbejFxV6cwX8QyAPa1ePHg1RtM0HX+D34xHo3DkyGnmT+Ddq00TEDGG26AL5PdINKFIQl+zaq6KJFQe1fdGE5wrWzU4mBPmzaz3EbLn+7FWlwAhorYqIMldbfHE3ydc+aTU1JW7+bG19qmvhO9IluGtTtQDeqFBj2fg6faxsfVfVPD7stN6TwoIDlkOCE4RE+Iin8m3z3eqi/VsTmsmRqBxWDRaqOHz02EJoEDxXJG3ei+UbIIp01XZQvdufm90WxOTuqqan2ZqTPX9K5VdjEh/ovr7xFc5q1dZo+Sa5y4sTVM854/tLU3klOgUKzzSXYPYS3GhBcYJHjwr9xNRHnNX99D6F0g7OijScWfvtjxh13aTv/H0ETvymah4yfDpVdh9cK5YSCPqnuOlsujFAyhYwJXOWDvZZU2EkWVLDhoPx9zp7N4QIDAQABo4IBNDCCATAwEgYDVR0TAQH/BAgwBgEB/wIBADA1BgNVHR8ELjAsMCqgKKAmhiRodHRwOi8vY3JsLmFkb2JlLmNvbS9hZG9iZXJvb3RnMi5jcmwwDgYDVR0PAQH/BAQDAgEGMBQGA1UdJQQNMAsGCSqGSIb3LwEBBzBXBgNVHSAEUDBOMEwGCSqGSIb3LwECAzA/MD0GCCsGAQUFBwIBFjFodHRwczovL3d3dy5hZG9iZS5jb20vbWlzYy9wa2kvcHJvZF9zdmNlX2Nwcy5odG1sMCQGA1UdEQQdMBukGTAXMRUwEwYDVQQDEwxTWU1DLTQwOTYtMzMwHQYDVR0OBBYEFFcpejJNzP7kNU7AHyRzznNTq99qMB8GA1UdIwQYMBaAFKYc4W1UJEyoj0hyv26pjNXk7DHUMA0GCSqGSIb3DQEBCwUAA4ICAQBxzuUHjKbcLdzI4DtlXgCSgZXrlSAkr59pOF3JfPG42qVNAGU7JcEYXJ6+WbfcGwY7WYMl+jO7IvJPb7shXFYW9bnJgxX7lLU14KExchmcLNY1ee6IhBJ2Y8PzZMRUKSd5CkURPg0PBLGjz/KR/DofHx+G4rPTCOGORYxeYrd01lci5hVxvKccvIk7MD69ZTewfZPSM+0WnsU3f0Zmd7hgbRpUyWceG0eHFpdUKK/ZFWhHjDVC28odCnN885tHncKXviItK0ZUUo/AIthFKlhEXsnq9VL9fFbgvO83ZvpUQo5y8mY3cuGnEVGXdhjNb53CfC1u4dbpYmWaN99subUzEsUaUb3loLPfVfzDOpg2y9v37kBdy/wuXr20teY7U62xj/fAgs1QSnhUtlMTfCqbefyEycKVmKIrJkJLsvgTSYKVvH4FFIwfd5WjqOC97jX98rcVAzhAI0iSkazsWOMvL6m0L4nLJapx+85GsVX8Y6AHmEP4bmCElwil6KAP+UewJFiw5rmwV2pESHAhYuZJa03B8tl0nd2QJzvJGmbeBqXqpF9ORinFM3HErK8puRokOjFH2+1asLeI2tB31W/ELdNe27Ogduq6Z6qBwCp59YX27qydDhD0WRfN64kCs25K88iGAGNW2CAfTDS+b+WYJBiIL9jXYZ4LF+BiUvfdu2NwYWRZC74AAAAAAAAAAAAAAAAAAAAAAAAAAAAAAAAAAAAAAAAAAAAAAAAAAAAAAAAAAAAAAAAAAAAAAAAAAAAAAAAAAAAAAAAAAAAAAAAAAAAAAAAAAAAAAAAAAAAAAAAAAAAAAAAAAAAAAAAAAAAAAAAAAAAAAAAAAAAAAAAAAAAAAAAAAAAAAAAAAAAAAAAAAAAAAAAAAAAAAAAAAAAAAAAAAAAAAAAAAAAAAAAAAAAAAAAAAAAAAAAAAAAAAAAAAAAAAAAAAAAAAAAAAAAAAAAAAAAAAAAAAAAAAAAAAAAAAAAAAAAAAAAAAAAAAAAAAAAAAAAAAAAAAAAAAAAAAAAAAAAAAAAAAAAAAAAAAAAAAAAAAAAAAAAAAAAAAAAAAAAAAAAAAAAAAAAAAAAAAAAAAAAAAAAAAAAAAAAAAAAAAAAAAAAAAAAAAAAAAAAAAAAAAAAAAAAAAAAAAAAAAAAAAAAAAAAAAAAAAAAAAAAAAAAAAAAAAAAAAAAAAAAAAAAAAAAAAAAAAAAAAAAAAAAAAAAAAAAAAAAAAAAAAAAAAAAAAAAAAAAAAAAAAAAAAAAAAAAAAAAAAAAAAAAAAAAAAAAAAAAAAAAAAAAAAAAAAAAAAAAAAAAAAAAAAAAAAAAAAAAAAAAAAAAAAAAAAAAAAAAAAAAAAAAAAAAAAAAAAAAAAAAAAAAAAAAAAAAAAAAAAAAAAAAAAAAAAAAAAAAAAAAAAAAAAAAAAAAAAAAAAAAAAAAAAAAAAAAAAAAAAAAAAAAAAAAAAAAAAAAAAAAAAAAAAAAAAAAAAAAAAAAAAAAAAAAAAAAAAAAAAAAAAAAAAAAAAAAAAAAAAAAAAAAAAAAAAAAAAAAAAAAAAAAAAAAAAAAAAAAAAAAAAAAAAAAAAAAAAAAAAAAAAAAAAAAAAAAAAAAAAAAAAAAAAAAAAAAAAAAAAAAAAAAAAAAAAAAAAAAAAAAAAAAAAAAAAAAAAAAAAAAAAAAAAAAAAAAAAAAAAAAAAAAAAAAAAAAAAAAAAAAAAAAAAAAAAAAAAAAAAAAAAAAAAAAAAAAAAAAAAAAAAAAAAAAAAAAAAAAAAAAAAAAAAAAAAAAAAAAAAAAAAAAAAAAAAAAAAAAAAAAAAAAAAAAAAAAAAAAAAAAAAAAAAAAAAAAAAAAAAAAAAAAAAAAAAAAAAAAAAAAAAAAAAAAAAAAAAAAAAAAAAAAAAAAAAAAAAAAAAAAAAAAAAAAAAAAAAAAAAAAAAAAAAAAAAAAAAAAAAAAAAAAAAAAAAAAAAAAAAAAAAAAAAAAAAAAAAAAAAAAAAAAAAAAAAAAAAAAAAAAAAAAAAAAAAAAAAAAAAAAAAAAAAAAAAAAAAAAAAAAAAAAAAAAAAAAAAAAAAAAAAAAAAAAAAAAAAAAAAAAAAAAAAAAAAAAAAAAAAAAAAAAAAAAAAAAAAAAAAAAAAAAAAAAAAAAAAAAAAAAAAAAAAAAAAAAAAAAAAAAAAAAAAAAAAAAAAAAAAAAAAAAAAAAAAAAAAAAAAAAAAAAAAAAAAAAAAAAAAAAAAAAAAAAAAAAAAAAAAAAAAAAAAAAAAAAAAAAAAAAAAAAAAAAAAAAAAAAAAAAAAAAAAAAAAAAAAAAAAAAAAAAAAAAAAAAAAAAAAAAAAAAAAAAAAAAAAAAAAAAAAAAAAAAAAAAAAAAAAAAAAAAAAAAAAAAAAAAAAAAAAAAAAAAAAAAAAAAAAAAAAAAAAAAAAAAAAAAAAAAAAAAAAAAAAAAAAAAAAAAAAAAAAAAAAAAAAAAAAAAAAAAAAAAAAAAAAAAAAAAAAAAAAAAAAAAAAAAAAAAAAAAAAAAAAAAAAAAAAAAAAAAAAAAAAAAAAAAAAAAAAAAAAAAAAAAAAAAAAAAAAAAAAAAAAAAAAAAAAAAAAAAAAAAAAAAAAAAAAAAAAAAAAAAAAAAAAAAAAAAAAAAAAAAAAAAAAAAAAAAAAAAAAAAAAAAAAAAAAAAAAAAAAAAAAAAAAAAAAAAAAAAAAAAAAAAAAAAAAAAAAAAAAAAAAAAAAAAAAAAAAAAAAAAAAAAAAAAAAAAAAAAAAAAAAAAAAAAAAAAAAAAAAAAAAAAAAAAAAAAAAAAAAAAAAAAAAAAAAAAAAAAAAAAAAAAAAAAAAAAAAAAAAAAAAAAAAAAAAAAAAAAAAAAAAAAAAAAAAAAAAAAAAAAAAAAAAAAAAAAAAAAAAAAAAAAAAAAAAAAAAAAAAAAAAAAAAAAAAAAAAAAAAAAAAAAAAAAAAAAAAAAAAAAAAAAAAAAAAAAAAAAAAAAAAAAAAAAAAAAAAAAAAAAAAAAAAAAAAAAAAAAAAAAAAAAAAAAAAAAAAAAAAAAAAAAAAAAAAAAAAAAAAAAAAAAAAAAAAAAAAAAAAAAAAAAAAAAAAAAAAAAAAAAAAAAAAAAAAAAAAAAAAAAAAAAAAAAAAAAAAAAAAAAAAAAAAAAAAAAAAAAAAAAAAAAAAAAAAAAAAAAAAAAAAAAAAAAAAAAAAAAAAAAAAAAAAAAAAAAAAAAAAAAAAAAAAAAAAAAAAAAAAAAAAAAAAAAAAAAAAAAAAAAAAAAAAAAAAAAAAAAAAAAAAAAAAAAAAAAAAAAAAAAAAAAAAAAAAAAAAAAAAAAAAAAAAAAAAAAAAAAAAAAAAAAAAAAAAAAAAAAAAAAAAAAAAAAAAAAAAAAAAAAAAAAAAAAAAAAAAAAAAAAAAAAAAAAAAAAAAAAAAAAAAAAAAAAAAAAAAAAAAAAAAAAAAAAAAAAAAAAAAAAAAAAAAAAAAAAAAAAAAAAAAAAAAAAAAAAAAAAAAAAAAAAAAAAAAAAAAAAAAAAAAAAAAAAAAAAAAAAAAAAAAAAAAAAAAAAAAAAAAAAAAAAAAAAAAAAAAAAAAAAAAAAAAAAAAAAAAAAAAAAAAAAAAAAAAAAAAAAAAAAAAAAAAAAAAAAAAAAAAAAAAAAAAAAAAAAAAAAAAAAAAAAAAAAAAAAAAAAAAAAAAAAAAAAAAAAAAAAAAAAAAAAAAAAAAAAAAAAAAAAAAAAAAAAAAAAAAAAAAAAAAAAAAAAAAAAAAAAAAAAAAAAAAAAAAAAAAAAAAAAAAAAAAAAAAAAAAAAAAAAAAAAAAAAAAAAAAAAAAAAAAAAAAAAAAAAAAAAAAAAAAAAAAAAAAAAAAAAAAAAAAAAAAAAAAAAAAAAAAAAAAAAAAAAAAAAAAAAAAAAAAAAAAAAAAAAAAAAAAAAAAAAAAAAAAAAAAAAAAAAAAAAAAAAAAAAAAAAAAAAAAAAAAAAAAAAAAAAAAAAAAAAAAAAAAAAAAAAAAAAAAAAAAAAAAAAAAAAAAAAAAAAAAAAAAAAAAAAAAAAAAAAAAAAAAAAAAAAAAAAAAAAAAAAAAAAAAAAAAAAAAAAAAAAAAAAAAAAAAAAAAAAAAAAAAAAAAAAAAAAAAAAAAAAAAAAAAAAAAAAAAAAAAAAAAAAAAAAAAAAAAAAAAAAAAAAAAAAAAAAAAAAAAAAAAAAAAAAAAAAAAAAAAAAAAAAAAAAAAAAAAAAAAAAAAAAAAAAAAAAAAAAAAAAAAAAAAAAAAAAAAAAAAAAAAAAAAAAAAAAAAAAAAAAAAAAAAAAAAAAAAAAAAAAAAAAAAAAAAAAAAAAAAAAAAAAAAAAAAAAAAAAAAAAAAAAAAAAAAAAAAAAAAAAAAAAAAAAAAAAAAAAAAAAAAAAAAAAAAAAAAAAAAAAAAAAAAAAAAAAAAAAAAAAAAAAAAAAAAAAAAAAAAAAAAAAAAAAAAAAAAAAAAAAAAAAAAAAAAAAAAAAAAAAAAAAAAAAAAAAAAAAAAAAAAAAAAAAAAAAAAAAAAAAAAAAAAAAAAAAAAAAAAAAAAAAAAAAAAAAAAAAAAAAAAAAAAAAAAAAAAAAAAAAAAAAAAAAAAAAAAAAAAAAAAAAAAAAAAAAAAAAAAAAAAAAAAAAAAAAAAAAAAAAAAAAAAAAAAAAAAAAAAAAAAAAAAAAAAAAAAAAAAAAAAAAAAAD2WQEAf+xm2W3t7jJ/+H1jjYMHhAhzayXvXs/I8pmoHIP7EOfWpFo3fiWcRJrma77V1JOawFUALG/B6OCTtCRiGz7biN2PX20IsXPq7irOrgG7fTnOszuCaTPsF/FCE4KD34mAub2XQr4HOPcc3tMH0sejpkA72HxSx22wzjuTWam+/YS/Y4zWjjGMANYLQHgxaW0s0JpR4JEWn8ygh9hYFNP/VqbszSHB2OAIVoy6xLtKo0Jw1C6JUVWAPdbWsq1DcqXWG7KLf2Hn4pzuUrkAyt8IyenqxQ1dzi5sgXSt8Q5vX9ixc++q4TVfSE5ueaBzTwZW53xA0/yjoFg4GkVRjve4bw==</c2pa:manifest></metadata>
<g id="Background_00000054944673266993349900000012533600210907832746_" display="none">
	<path display="inline" fill="#BAC1AF" d="M452.2-35.5c0,256,0,256,0,511.9c-256,0-256,0-511.9,0c0-256,0-256,0-511.9
		C196.2-35.5,196.2-35.5,452.2-35.5z"/>
	<path display="inline" fill="#DCE3DD" d="M296.7-18c-1.8,4.9,1.6,2.1,3,5.2c-1.9,9.8,9.9,18.5,17.7,25.7c0.8,0.7,9.9,4.7,10.2,10.2
		c4,1.9,3.3,4.3,3.5,4.5c2.3,2.6,3.1,1.6,3.2,1.7c2,2.3,3.2,5,5.2,7.2c3.4,3.8,8.3,5.5,6.5,8.5c9.5,2.2,10.5,14.1,18.5,16.5
		c0.2,4.5,4.3,9.9,9.2,8.2c3,1,13.4,22.2,15.7,26.2c0.5,0.8,2.9,2.6,4,4.5c0.3,0.6,1.6,5,3,7.5c0.6,1,2.1,1.3,2.5,2
		c1.7,3,12.5,26.5,12.5,28c0.1,1.6-4,5.3,1.7,9.7c3.6,2.7,21.3,9.2,8.5,8.5c-1.6,0.6-1.8,5.6,1.5,7c5.1,2.2,5.7-2.9,6.7-1.2
		c0,52.7,0,52.7,0,105.5c-5.2,0.2,0.1,7.1-9.5,6c-2.6-9.5,0.2-5.7-7-3c-0.4,0.4,0.5,1,0.5,1c-6.2,7.1-6.6,17.1-7,18
		c-0.4,0.8-6.1,7.6-7.5,16.5c-8.5,7.5-7.2,17.1-12.2,14.7c-2.8,0.8,2,6.7-7.7,12.7c-6.8,10.2-12.2,22-21.5,30.5
		c-3.6,5.7-6.3,10.8-11.2,15.2c-1.5,0.7-17.8,1.5-21,1.5c-0.4,0-2.2-1.5-3.5-1.5c-0.1,0-2.4,1-2.5,1c-3.2-0.1-5.2-1.3-9.5,1
		c-2.3-2.3-10.6-3.7-14-4c-11.4-0.9-27.4,4.1-37.5,0.5c-10.2,1.2-10.2,1.2-20.5,2.5c-3.6,1.5-3.6,1.5-7.2,3c-0.1-0.8,0.6-1.4,1-2
		c0.7-0.8,1.4-1.6,2-2.5c2.1-2.9,11.8-16.4,12.5-17.2c0.5-0.6,9.7-7.6,11.5-10.5c0.1-0.9-4.1-4.6-5-5.2c0-1,0-1,0-2
		c0.3,0.3,5.2,3.7,6.2,5.5c4.2-5.2,4.2-5.2,8.5-10.5c5.9,0.2,9.2-4.2,12.7-8c0.1-0.1,0.9-0.3,1.5-1c5.4-6.4,4.4-7.6,6.7-15.5
		c16.1,7.9,11.2-8.3,15.7-15.2c1.8-2.7,13.5-9.9,13.5-11.5c0-1.3-7.6-3.6-3-9.5c1.7-2.2,4.7-1.9,6.7-3.2c7.1-4.8-0.3-13.7,11-16.5
		c8.7-12.1-4-21.5-11.7-29c-1.7-1.6-3-3.7-5-5c0-0.1,0-0.4,0-0.5c0.4-1.5,1.6-0.8,2.5-1c8.5,4.7,28.5,6.2,27.5-6.2
		c0.7-1.7,22-7.7,19.5-27.5c-2.4-19.1-20.6-20.9-24.7-23.7c-8.8-6,3.6-2.2,15-9c9.9-5.9,28.6-32,12.7-39.2c17-20.2-5.5-28.7-6-30.5
		c2.2-6.4-2.9-7.9-3.5-9c-7.6-13.9-11.5-43-49.2-51.7c-3.8-0.9-8.3,0.7-12.5-2.5c-3.7-0.3-41.6,12.9-41.2,21
		c-0.6,0.2-0.7-0.7-2.5,0.5c0.1-0.6,1.3-1.4-0.2-1.5c-11.3,6.8-20.1,13.7-27.2,25c-0.5,0.8-1.2,1-1.5,1.5c-0.9,1.6-1.9,3-2.5,4.7
		c1.4,10.3-8.7,19.9-14,32c-4.8,10.8-6.7,26.3-10,23.5c0.6-6,0.6-31.1,0-34c-0.3-1.6-0.7-1.7-2-2.2c-0.1-0.1-0.7-1.6-2,0.5
		c-0.7,1.1-0.5,1.3-0.5,2.5c-0.3,7.1,2.7,24.3,2,33.5c-0.2,0.1-0.7,0-1,0c-1.5,0-1.1,1.2-2-1c0-1.5-7.6-22.2-9-25.2
		c-5.6-11.8-14.7-18.6-13-30.5c-1.3-2.8-1.9-2.1-2-2.2c-0.8-1.2-1.9-1.4-2-1.5c-4.6-6.4-8.2-12.6-14.2-18
		c-12.5-11.1-10.8-5.7-13.2-5.5c-0.5-1.1,1.5-1,1-1.7c-0.3-0.5-0.6,0.4-2-1.2C133.8,38.1,109,26.1,102,25c-14-2.3-35.6,4.6-46.5,14
		C43,49.8,40.4,62.5,33.7,76.2c-1.8,3.7-6,6-4.5,11c-0.6,1.8-23.6,11.2-5,30.5c-16.2,2.5-0.9,30.8,12.2,38.7c11.7,7,23.8,3.6,18,8
		c-1.2,0.9-19.4,4.8-25.2,15.2c0.9,7.4-4.9,7-2.5,18c2.7,12.1,16.8,16.7,19,19.7c0.5,0.7,0.4,1.4,0.5,1.5c0.2,0.2-1,1.5,2.7,4.5
		c10.5,8.4,25-2.9,25.7,1.7c0.6,4-35.6,23.5-9.5,37.5c0.4,11.7,4,11.1,6,12.7c1,0.8,2.9,1.4,3,1.5c2.5,2.1,5.2,5.6,3,8.7
		c-1.6,2.3-4.2-1.7-2.5,3.5c0.6,1.8,3.2,3.5,5,3.7c1.2,1.3,1.8,1.6,3.5,2c10.7,8.5,1.8,27.2,20.7,20.5c0.9,0.3,1.5,16,7.2,16.5
		c1.1,0.3,1.4-1.1,2-1c2.7,5.1,6.3,8.4,12.2,8.5c0.6,0.3,5.1,7.6,7.2,10c0.7,0.7,1.4,1.3,2,2c8.7,9.7,16.3,18.3,24,29
		c1,1.3,1.7,3,3,4c0.4,0.5,0.4,1.1,0.5,1.5c-7.9,0.2-7.9,0.2-15.7,0.5c-2-2.8-16.8-2.7-19.5-3.5c-1.9-0.6-2.2-4.8-2.2-0.2
		c-3.8-0.5-1.5,3.7-3.5,2c0,0,1.1-1,0.2-1.2c-1.4-0.5-13.5-0.2-16,1c-1.7-4-3.1-0.1-1.7,5c-0.9,0.4-0.2,1-0.7,1.5c-3-0.7,2-6-3-7
		c-2.1-0.4-3.7,0.5-4,0.5c-2.9-0.3-1.8-2.8-6.7,0.7c-0.3,1,0.6,1.4,0.5,1.7c0,0.1-1.4,0.1-1,2.7c6.3,7.6-5.8-3.8-1,3
		c-2.6,2.7-2.9-5.1-5.5,3.2c-1.2-0.1-1.4-2.1-4,0.5c0-0.1-1-0.4-1-0.7c0-3.1,3.7-12.8,3.5-14c-0.8-4.6-3.9,12.9-7,10
		c-4.3,12.8-0.9-3.2-8.5-1.2c-0.3-0.8-0.3-4.1-0.7-4.5c-0.7-0.6-16,4.1-16.7,6.7c1.4,2.3-0.5,7.2-2.7,9.2
		c-2.7,0.1-18-15.9-16.7-20.7c-10.1-6.9-13.9-19.7-23.5-27.5c-3.9-5.4-5.5-12.8-11-16.5c-3.2-7-1-9.5-5-12
		c-0.7-7.5-6.9-12.5-7.5-20.5c-4.9-3.2-3.8-5.2-4-5.5c-1.6-2.2-3.7-2.7-4-3c-0.1-0.2-0.2-2.9-1.7-3.7c-3.1-1.7-6.3,1.4-10.2-1.5
		c-0.3-51-0.3-102,0-153c0.4,0.9,4.3-2.5,5-3.2c7.1-7.8,10.1-18.2,15.5-27c1.7-2.8,5.2-4.9,5.5-9c4.1-1,7.6-11.5,10.5-16
		c1.6-2.6,4.9-5.5,6.5-8c4.4-6.7,8.6-13.3,13-20c0.7-1,0.5-3.5,1-5c5.7-3.6,8.1-9.8,9.5-11.5C44,18.2,68.2,3.6,73.7-3.3
		c2.2-2.8,6.1-11,6-14.7C152-18.5,224.4-18.4,296.7-18z"/>
	<path display="inline" fill="#DCE3DD" d="M310.7-18c-2.7,21.9,28.8,29.9,45.5,49.2c6.3,7.3,10.3,17.4,18.5,22.5
		c2.8,10.1,6.3,9.2,8,11.5c4,5.4,8.1,11.7,11.5,17.5c2.3,3.9,4.8,11.2,7,15c3.3,5.7,8,10.8,10.5,17c9,3.4,5.7,9.5,19,11.7
		c-0.4,57.8,0.5,115.7,0,173.5c-7.5,0.1-9.4,0.3-15,5.7c-2.9,2.8-10,12.6-10,17c-8.8,2.2-2.2,10.4-10,16c-0.5,2.2-0.5,2.2-1,4.5
		c-6.2,5.1-6,9.3-8,12c-4,2.2-5.9,6.7-8.7,10.2c-0.1,0.1-1.2-0.9-2.7,0.7c-0.7,0.8-5.9,12.4-13,16c-0.8,5.1-6.4,9-8,11
		c-0.5,0.6-0.9,3.4-1,3.5c-2.7,3.4-6.1,5.3-8.2,9.2c-6.7,5-22,10.2-23,11c-2.2,1.6-1,3.6-3.5,5c-12.5,2-26.7,7.4-34.2,17.7
		c-1,2.5-1.6,10.1-3,11.5c-2.1,2.1-7.6-0.9-7,2.2c-66.5,0.3-133-0.1-199.5-0.5c14.1-0.2,14.1-0.2,28.2-0.5c0-4.6-1.6-9.2-2.7-13.7
		c-8.4-4.3-15.5-10.5-23.2-15.7c-1.4-0.9-11.8-5.5-10.7-7.7c1.5-1.2,2,0.1,6.5,0.7c2.3,0.4,2.9-1.6,4.2,1c0.5-0.3,0.1-1.9,0.2-2.5
		c0.1-0.3-0.1-0.8,0-1c12.1,0.9,9.1,5.4,9.7,6c1.2,1,1.9-3.9,6.2-0.7c0.2,0.2-1.4-0.2,2.2,3.7c2.5-1.7-2.5-4.1-2-6.5
		c2.7,0.1,6.2,3.2,7,3.5c1,0.4,4.2-1,6,2.5c7.9-5,1.4,0.8,9.7,0.5c1.8-0.1,0.9-0.5,1-0.5c2.6-0.2,3.6,1,4.7,0
		c0.1-0.1,0.2-1.1,1.7-3.5c0.1-0.1,0.9-0.3,1.5-1.5c2.7,3.3,1.1-2.3,3.7-6.5c2.5,1.7,6.5,1.7,9.7,2c-0.1,0.5,0,1,0,1.5
		c-3.2,0.2-11.3-3-9.5,1.2c0.5,1.2,6.1,0.2,7.2,0.2c1.2,0.1,2.8,3,3.7,0.5c0.6-1.6,0.2-3.4,1-3.5c0.6,3.3-0.2,4.4,0,6
		c0.4,3.5,12.3,1,15.7,2.5c1,0.4,3.7,5.4,3.7,5.7c0.1,1.6-2,2.8-2,3.5c-0.2,7.1,11.5-4.8,11.2-0.7c5.8-3.2-10.2-7.5-12.2-10
		c0.5,0.1,1-0.1,1.5,0c16,2,28.6,8.4,38,6c0,0.2,0,0.3,0,0.5c0.2,0.9-0.2,2.3,0,2.7c0.1,0.2,3.6,1.3,3.7,1.2c2-0.2,4-2.9,6-3.5
		c2.8-0.9,8.4,0,10-2.5c5,2.7,8.4-0.3,9.5,0c1.7,3.4,7.1,0,14.7,2c0.4,3.9,2.4,1.4,2.7,1.5c1.8,0.7,2.2,3.8,4,3.5
		c1.5-0.3-3.5-3.9,4-6c8.1-2.3,13.5,4.2,8.2-2.5c0.5,0,3.4-2.9,9.2-1c6.2-6.8,4.6,8,6.2-0.5c5.3,6.8,1.6,0.5,1.5-4
		c7.3,6.1,3-2.8,9.5-1.7c-2.6,8.9,3.7-3.1,6.2,3.2c1.4-2,1.4-0.5,2.7-2c0.1-0.1,2.5-0.1,0-2.5c1.5-0.1,1.8-1.5,4.2,1
		c0.8-0.6,0.7-1,0.7-1c4.9-0.4,9.3-2.8,10.5,0c5.7-1.9,2.4,0,5.7,2.5c0.4-7.9,3.3-3.4,3.7-4.2c0.5-0.9-1-2.1-1-2.2
		c-1.2-7.5,5.9,2.3,5.7-10.5c3.1-0.5,1.4,1.1,2.5,1.5c4.9,1.7,5.6-3.7,13.2,3.7c-2-2.9-4.5-4.7-4.5-8.5c0-0.4,1.2,1.3,1.5-6
		c-0.1-0.6-2.7-3.5-3.2-3.7c-8.1-3.7-1.8,13.1-6,6c-3.1,1.1-3.1-2.6-2.2-4.2c0.7-1.5,2.5,0.4,2.2-5.7c-1.5,3.3-21.6,4.4-21.5,1.5
		c-2.4,2.3-5.9-1.5-9-2c-1.9-0.3-18.6,0.3-13.7,2.5c-0.2,0.5-0.7,1.1-1,1.5c-4.1-2.3-2-0.7-5.2,2c-0.4-3.2,6.9-7.6,0-6
		c-0.5,0.1,0,1.4-0.5,1.5c-0.6,0.1-6.1-5.3-5.7,5.5c-2.5,0.2-5,1.8-7.5,2c0.4-0.7,0.4-0.7,0.7-1.5c-2.5,0.8-6.1-0.3-7.5,2.5
		c-3.5-2.3-4.6-1.7-4.7,2c-0.2,0-0.2,0-0.5,0c0-0.4-0.8-2.1,0-2.7c-0.4-0.5-1.1-0.1-1.5-0.2c-5.9-1.7-25,3.3-28,3
		c0.9-1.7,6.6-9.5,8-10.5c3.6-1.5,3.6-1.5,7.2-3c10.2-1.2,10.2-1.2,20.5-2.5c10.1,3.6,26.1-1.4,37.5-0.5c3.4,0.3,11.7,1.7,14,4
		c4.3-2.3,6.3-1.1,9.5-1c0.1,0,2.4-1,2.5-1c1.3,0,3.1,1.5,3.5,1.5c3.2,0,19.5-0.8,21-1.5c4.9-4.4,7.6-9.6,11.2-15.2
		c9.3-8.5,14.7-20.3,21.5-30.5c9.7-6.1,5-12,7.7-12.7c5,2.3,3.8-7.2,12.2-14.7c1.4-8.9,7.1-15.6,7.5-16.5c0.4-0.9,0.8-10.8,7-18
		c0,0-0.9-0.6-0.5-1c7.2-2.7,4.4-6.5,7,3c9.6,1.1,4.3-5.8,9.5-6c0-52.7,0-52.7,0-105.5c-1-1.7-1.7,3.4-6.7,1.2
		c-3.3-1.4-3.1-6.4-1.5-7c12.8,0.7-4.9-5.8-8.5-8.5c-5.8-4.4-1.7-8.1-1.7-9.7c0-1.5-10.8-25-12.5-28c-0.4-0.7-1.9-1-2.5-2
		c-1.4-2.5-2.7-6.9-3-7.5c-1.1-1.9-3.5-3.7-4-4.5c-2.4-4-12.7-25.3-15.7-26.2c-4.9,1.7-9-3.8-9.2-8.2c-8-2.4-9-14.3-18.5-16.5
		c1.8-3-3.1-4.7-6.5-8.5c-2-2.2-3.3-5-5.2-7.2c-0.1-0.1-1,0.8-3.2-1.7c-0.2-0.2,0.5-2.6-3.5-4.5c-0.4-5.5-9.5-9.5-10.2-10.2
		c-7.8-7.2-19.6-15.9-17.7-25.7c-1.4-3.2-4.8-0.4-3-5.2C301.3-18,306-18,310.7-18z"/>
	<path display="inline" fill="#DCE3DD" d="M430.7,299.9c-0.1,12.1,0.1,60.7-1.5,67.2c-7.6,16-17.5,40.7-28.7,53.7
		c-7.3,8.4-23.1,19.9-34,23.5c-0.9,2.7-13.7,8.2-15,8.5c-5.1,1.1-64.8,0.4-77.2,0.5c-0.6-3.2,4.9-0.2,7-2.2c1.4-1.4,2-9,3-11.5
		c7.5-10.3,21.7-15.7,34.2-17.7c2.5-1.4,1.3-3.4,3.5-5c1-0.8,16.3-6,23-11c2.2-3.9,5.5-5.8,8.2-9.2c0.1-0.1,0.5-2.9,1-3.5
		c1.6-2,7.2-5.9,8-11c7.1-3.5,12.3-15.2,13-16c1.6-1.6,2.7-0.6,2.7-0.7c2.8-3.5,4.7-8,8.7-10.2c2-2.7,1.8-6.9,8-12
		c0.5-2.2,0.5-2.2,1-4.5c7.8-5.6,1.2-13.8,10-16c0-4.4,7.1-14.2,10-17C421.2,300.3,423.2,300.1,430.7,299.9z"/>
	<path display="inline" fill="#DCE3DD" d="M65.2,390.4c0.7,2.1,2.4,1.8,1,3c-2.4-1.2-2.4-1.2-4.7-2.5c2.6,3.6-2.7,2.5-0.2,5.5
		c-4.3,0.9-21.1,8.2-10.5,11.5c1.7,5.3,1.7,6.5,4.7,1.5c0.9,0.5-0.2,7.1,1.7,1.5c0.9,0.1,0.2,1.2,0.7,1.5c0.3,0.2,6.5-4.1,0.2,1.2
		c-0.3,2.4,5.5-4,9.5-3.7c1.3,0.1,8.5,3.8,5,6c-4.5-0.7-5-2-6.5-0.7c-1,2.3,9.4,6.8,10.7,7.7c7.8,5.3,14.8,11.5,23.2,15.7
		c1.2,4.5,2.7,9.1,2.7,13.7c-14.1,0.2-14.1,0.2-28.2,0.5c-9.6-0.1-19.2,0.9-28.7,0C22.9,441-3.8,425.3-18.8,403.7
		c-9.4-13.6-15.4-29.2-20-45c0.2-22.6,0.1-45.2,0-67.7c4,2.9,7.2-0.2,10.2,1.5c1.6,0.9,1.6,3.6,1.7,3.7c0.3,0.3,2.4,0.8,4,3
		c0.2,0.3-0.9,2.3,4,5.5c0.6,8,6.8,13,7.5,20.5c4,2.4,1.8,5,5,12c5.5,3.7,7.1,11,11,16.5c9.5,7.8,13.4,20.6,23.5,27.5
		C27,386,42.3,402,45,401.9c2.2-2.1,4.2-7,2.7-9.2c0.7-2.6,16-7.3,16.7-6.7C64.9,386.3,65,389.6,65.2,390.4z"/>
	<path display="inline" fill="#DCE3DD" d="M79.7-18c0.1,3.8-3.8,12-6,14.7c-5.5,6.9-29.7,21.4-46,41.5c-1.4,1.7-3.8,7.9-9.5,11.5
		c-0.5,1.5-0.3,4-1,5c-4.4,6.6-8.6,13.3-13,20c-1.6,2.5-4.9,5.4-6.5,8c-2.9,4.5-6.4,15-10.5,16c-0.3,4.1-3.8,6.2-5.5,9
		c-5.4,8.8-8.4,19.2-15.5,27c-0.7,0.7-4.6,4.1-5,3.2c0.1-16.7-1.5-53.3,2-67.2c3.8-14.9,18.2-39.2,28-51.5C1.7,6.1,26-17.2,43-18.5
		C46-18.7,70.6-17.9,79.7-18z"/>
	<path display="inline" fill="#DCE3DD" d="M430.7,126.5c-13.3-2.3-10-8.4-19-11.7c-2.5-6.2-7.2-11.3-10.5-17c-2.2-3.8-4.7-11.1-7-15
		c-3.4-5.8-7.5-12-11.5-17.5c-1.7-2.3-5.2-1.4-8-11.5c-8.2-5.1-12.2-15.2-18.5-22.5C339.5,11.9,308,3.9,310.7-18
		c12.7,0.1,25.5-0.5,38.2,0.5c11.9,9.3,25.5,16.7,37,26.5c5,4.2,15.1,14.1,17.7,19.2c0,0.1-0.8,0.3-0.5,2c2.2,2.6,14,15.1,14.5,16
		c2,3.6,2.3,8.1,2.5,8.5c3.7,7.4,6.2,10.3,9,19c0.2,0.5,1.4,0,1.5,0.5C431.4,76.8,430.1,117.7,430.7,126.5z"/>
	<path display="inline" fill="#BAC1AF" d="M162.2,385.9c0.2,0.5,7,7,7.5,9c-4.6-2.4-21.3,1-28.2,0.5c2.5-7.5-14.6,3.1-9-10
		c-1.5-0.5-1,1.3-2.7,4c-1.9-0.1-3,0.7-3.2-1.5c-2.6-0.7-1.9,2.6-6,1.5c-0.2,0,0.4-3.6-1,0c-14,1.6-10.7-0.6-12-1
		c-0.2-0.1-3.4,0.9-3.7,1c-1.4-5.1,0-9,1.7-5c2.4-1.2,14.6-1.5,16-1c0.9,0.3-0.3,1.2-0.2,1.2c2,1.7-0.3-2.5,3.5-2
		c0.1-4.6,0.3-0.3,2.2,0.2c2.7,0.8,17.5,0.7,19.5,3.5C154.3,386.2,154.3,386.2,162.2,385.9z"/>
	<path display="inline" fill="#BAC1AF" d="M92.2,390.4c3.3,2.8,4.1,0.7,4.7,4c1.1-0.7,0.7-1.9,0.7-2c2.2,1.8,1.8,2.4,0,4
		c-5-1-8.8,11.5-9.5,12c-1.3,0.9-2.7,0.2-3.2,0.5c-1.5,0.8-0.1,1.8-0.5,2c-0.7,0.4-5.1-3.9-7.2,2.5c-0.1,0.2,0.1,0.7,0,1
		c-2.4,1.1-1.4-8.4-1-9.2c0.8-1.7,1.4-1.2,1.5-1.2c2.1-2,5-1.4,5.2-1.5c1.6-0.8,2.4-5.4,3-5.5c0.4,0,3.2,5.1,4.5-2
		c-7.4-1.7-3.7,1.5-8.2,1c2.6-8.3,2.9-0.6,5.5-3.2c-4.8-6.8,7.3,4.6,1-3c-0.4-2.7,1-2.6,1-2.7C90.2,388,91.4,389.8,92.2,390.4z"/>
	<path display="inline" fill="#BAC1AF" d="M78.2,396.4c0,1.9-0.2,3.1-0.5,5c-2.6-2.1,0,0.8-3.5,1.5c-1.6-5.2-2.3-2.8-3-3
		c-0.1,0,0.6-1.2-1.2-1c-4.6,0.5-4.9,4-2.2,6.5c-0.1,0-0.7,1.2-1.7,1.5c-5-2.4-7.1-0.8-8.7,4c-2,5.6-0.9-1-1.7-1.5
		c-3,5-3.1,3.8-4.7-1.5c4.8-4.3,10.2-9.5,16.7-10c1.3-0.9,0.1-1.1,0.2-1.5c0-0.1,1.9,0.3,0.2-1c-0.6-0.5-2.2,1.2-1.7-2
		c1.4-1.2-0.3-0.9-1-3c7.6-2,4.2,14.1,8.5,1.2c3.1,2.9,6.2-14.6,7-10c0.2,1.2-3.5,10.9-3.5,14C77.2,396,78.2,396.4,78.2,396.4z"/>
	<path display="inline" fill="#BAC1AF" d="M103.7,389.4c0.3-0.1,3.6-1.1,3.7-1c1.3,0.4-2,2.6,12,1c1.4-3.6,0.8,0,1,0
		c4.1,1.1,3.4-2.2,6-1.5c0.2,2.2,1.3,1.4,3.2,1.5c-0.7,1.1-0.4,1.8-0.7,2c-6.9-1.3-9,1-9.5,1c-2.2,0.2-12.9-0.1-18,0
		c-0.4,0-0.2-1-0.2-1c-0.7-4.4-3-1.9-3.2-2c-0.9-0.5-1.9-4.3-3-4.5c-4.4-0.7,4.2,5.9-2.7,5.5c-0.8-0.7-2-2.5-2.5-3.5
		c0.1-0.3-0.8-0.7-0.5-1.7c4.9-3.5,3.9-1,6.7-0.7c0.3,0,1.9-0.9,4-0.5c5,1,0,6.3,3,7C103.5,390.4,102.8,389.8,103.7,389.4z"/>
	<path display="inline" fill="#BAC1AF" d="M77.7,403.9c-1.7-2.7-0.2-1.6,0-2.5c0.3-1.9,0.5-3.1,0.5-5c2.6-2.6,2.8-0.6,4-0.5
		c4.5,0.5,0.8-2.7,8.2-1c-1.3,7.1-4.1,1.9-4.5,2c-0.6,0.1-1.4,4.7-3,5.5C82.7,402.6,79.8,401.9,77.7,403.9z"/>
	<path display="inline" fill="#A0B091" d="M169.7,394.9c0.3,0.2,1,0.5,1,0.5c1.4,1.4,1.8,5.8,3.5,7c-13.5-0.2-30.1,1.8-42.7,1.5
		c-0.1,0-1.9-1-2-1c-1.3,0.5-4.3,8.1,10,7c0.8,0.4-0.7,2.4-0.7,2.5c-3.2-0.3-7.2-0.3-9.7-2c-2.6,4.2-1,9.8-3.7,6.5
		c0.7-1.5,1-4.7,2-6.7c-0.5,0-0.5,0-1,0c-0.6,1.6-1.3,2.4-1.5,4.2c-9.4-0.1-10.2,1.5-10.7,1.5c-2.2,0.1-6.2-1.9-3.5-4.5
		c-3.5-0.2-4.8-1.4-8.2-1c-4-3.6-1.1,1.6-3.2,2c-3.3,0.6-3.8-3.7-5.2-1c-5-4,3.5-10.6,4-15c1.8-1.6,2.2-2.2,0-4c1.3-1.3,1.9-1,3.5-1
		c0.1,0-0.2,1,0.2,1c5.1-0.1,15.8,0.2,18,0c0.5,0,2.6-2.3,9.5-1c0.4-0.2,0.1-0.9,0.7-2c1.8-2.7,1.2-4.5,2.7-4
		c-5.6,13.1,11.5,2.5,9,10C148.4,395.9,165.1,392.5,169.7,394.9z"/>
	<path display="inline" fill="#A0B091" d="M275.7,391.9c-3.3-0.7-4.9,2.3-5.2,2.5c-0.9,0.4-1.4-0.5-1.5-0.5
		c-5.9,2.6,1.8,0.6,2.2,1.7c0.6,1.5-1.5,2.4-1.5,2.5c-0.8,5.4,5.1-2.4,6.2-0.7c1.1-1.7,1.1-1.7,2.2-3.5c0.1,0.1,0.6,0,1,0
		c0,0.1,1-0.2,1,0.2c0,0.2-1.3,2.4-1,3c2.6,4.6,5.1-7.3,0-3.7c0.3-1.5,1.2-3.2,2-4.5c5.1-0.7,4.2,3,7,2.5c0.6-0.1,1-0.1,1.5-0.5
		c2.4,1.3-2.7,2.3,0.7,4c1.8,0.9,5-1.9,5.2-2c1.5-0.5,3.6-1.8,5.2-1c0.2,0.1,0.1,1.1,1.7,2.5c4.6,4.1,5.8-0.9,6.2-1
		c0.2-0.1,3.6,1.3,4.2,1.5c-1.6,1.1-3.9,1-4,1.7c2.1,1.9,6.2,6.1,2.5,7.5c4.7,8.5-3.3,0.5-3.7,0.7c-0.4,0.3,0.1,3.4-2.5,2.5
		c-0.4-0.1,0.9-4.2-5.7-2.5c-3.1-2.2-3.1-2.2-6.2-4.5c-0.1,4-3.3,4.7-1.7,6.5c-0.5,1.8,1.3,5.7-1.2,6c-4.6,0.5,0.8-4.4-2.5-6.5
		c-2.4,9.2-0.8,0.1-3.7,1.7c-0.2,0.1,1.2,3,0.2,3.7c-0.6,0.5-3.2-1.6-3.2-1.7c-0.6-1.9,4.1-2.7,1.2-3.7c-0.3-0.1-5.7,1.1-3,4.5
		c-14.3-4.4-0.7,0.1-1.2,4.7c0,0.3-1,0.7-1,1.2c0.1,4.5,3.8,10.8-1.5,4c-0.1-0.1,0.1-1.1,0-1.7c-0.9-0.6-0.9-0.6-1.7-1.2
		c-12.7-3-11.9,1.9-15.5,3c-0.2,0.1-3-2.3-3.7,1c-0.1,0-1.8,1.5-2-0.2c8.4-8.4-1.7-5.1-6.7-4.7c-0.4,0-1.7-3.4-2.5,3
		c4.9-0.4,4.9-0.4,9.7-0.7c0.2,0.9-9,2.1-11,1.7c0.1-0.3-0.1-0.7,0-1c0.8-3.2,2.4-6.4,4-9.5c1.3-2.4,3.2-6.2,4-6c-1,2-1.4,4.5-3,6.2
		c7.1,7.9,24.8-7.2,13.7-4.2c-1.6-4.1-6.3-2.5-9.7-4c2.4-2.3,13.7,3,9.7,0c-0.6-0.5-4.1,0.9-2.5-4c-3.1,2.4-8.2,1-4.7-3
		c0.3-0.3,7.8-3.2,8.2-1.5c1.4-1.5,1.4-1.5,2.7-3c2.5-0.2,5-1.8,7.5-2C274.8,388.7,277,388,275.7,391.9z"/>
	<path display="inline" fill="#A0B091" d="M246.2,410.4c-1.6,3.1-3.2,6.3-4,9.5c-4.9-0.3-9,1.2-13.7-0.5c-8,2.5-15.4,0.8-24,4
		c-2.5,0.9-4.1,4.6-7.2,2.5c0-0.2,0-0.3,0-0.5c0-0.1,1.3-0.5-0.2-1.5c-4.6-2-6.6,1.5-8.2-0.2c-2.4-2.5,4.6-6,2.2-7.2
		c-1.1-0.6-16.8,1.8-19.5,2c-5.4,0.4-12.5-1-12.2,1c-0.5-0.1-1,0.1-1.5,0c-0.2,0,0.4-2.5-2.2,0.5c-3.4-2.4-9.5,0.1-14.2-1.5
		c-0.2-1.6,0.6-2.7,0-6c-0.1-0.7-1.6-0.4-0.7-1.5c5.4,1.8,11.3,0.8,17,1c0.4,0,0.2-1,0.2-1c5.2,0.2,23.2,4.3,36.5,4.5
		c-4.6,5.1,5.9,3.3,0.5,0c6.5,0.1,34.3-2.7,38.7-5c0.8-0.4,0.8-1.2,0.7-2C240.8,408.8,247.1,408.5,246.2,410.4z"/>
	<path display="inline" fill="#DCE3DD" d="M319.7,409.9c-4.1-0.8-4-5.7-4.5,1.7c-0.3,0.3-3.7-1.7-4,2.2c-1.2-2.8-5.6-0.4-10.5,0
		c-0.1-2.5-5-1.4-5-6c1.9,0.4,3.5,0.2,5.2,1.5c-0.6-2.2-0.6-2.2-1.2-4.5c6.7-1.7,5.4,2.4,5.7,2.5c2.6,0.9,2.1-2.2,2.5-2.5
		c0.4-0.3,8.5,7.8,3.7-0.7c3.7-1.4-0.4-5.6-2.5-7.5c0.1-0.8,2.4-0.7,4-1.7c2.4,0.9,2.6,2,2.7,2c0.4-0.1-0.5-1.3,6.7-3.7
		c-6.2-3.7-7.9,0.6-9.5,1.7c-0.6-0.2-4-1.6-4.2-1.5c-0.4,0.1-1.6,5.1-6.2,1c3.5-0.9,3.5-0.9,7-1.7c-5.4-5.2-3.7-3-6.5-2.7
		c1.2-1.5-3.4-4.5-3.7-4.5c-0.3,0-3.6,2.9-5-0.5c-3.4,3.3-0.4-4.9-5.2,2.5c-4.7,2.4-0.6-3.6-1.7-4c-1-0.3,0.5,2.5-2.7,1
		c-4.9-2.2,11.8-2.8,13.7-2.5c3.1,0.5,6.6,4.3,9,2c-0.1,2.9,20,1.8,21.5-1.5c0.3,6.1-1.5,4.2-2.2,5.7c-0.8,1.7-0.8,5.3,2.2,4.2
		c4.2,7.1-2.1-9.7,6-6c0.5,0.2,3.1,3.2,3.2,3.7c-0.3,7.3-1.5,5.6-1.5,6c0,3.8,2.5,5.6,4.5,8.5c-7.7-7.4-8.3-2-13.2-3.7
		c-1.1-0.4,0.6-2-2.5-1.5C325.6,412.2,318.5,402.4,319.7,409.9z"/>
	<path display="inline" fill="#85956F" d="M174.2,402.4c0.2,0,0.2,0,0.5,0c1.1,1.7,4.9,2.9,5.7,5c-9.3,2-26.3-2.2-22.7,3.5
		c-0.1,0,0.2,1-0.2,1c-5.7-0.2-11.6,0.8-17-1c-0.9,1.1,0.6,0.8,0.7,1.5c-0.8,0.1-0.4,1.9-1,3.5c-3.2,0.2-1.5-0.5-1.5-2
		c0-0.5-0.1-1,0-1.5c0-0.1,1.5-2.1,0.7-2.5c-14.3,1.1-11.3-6.5-10-7c0.1,0,1.9,1,2,1C144.1,404.2,160.7,402.2,174.2,402.4z"/>
	<path display="inline" fill="#A0B091" d="M252.7,393.9c-0.1,0.9-2.3,7.3-2.7,7.5c-11.6,0.1-22.6,3.6-34.2,3c4.3-3.8,4.8-5.9,5.5-11
		c0.5,0.1,1.1-0.1,1.5,0c0,0-0.2,0.4,0.5,0.5c-2.7,5.5-0.8,2.1,10.7,0.5c6.8-0.9,19.2-0.7,17.2-3.5c0.4,0.1,1.1-0.3,1.5,0.2
		C251.9,391.8,252.7,393.6,252.7,393.9z"/>
	<path display="inline" fill="#DCE3DD" d="M93.7,411.4c1.4-2.7,2,1.6,5.2,1c2.1-0.4-0.8-5.6,3.2-2c0.2,0.1-0.3,1.7,0.2,2
		c4.1-0.3,12.6,5.5,13.7,10c-8.4,0.3-1.8-5.5-9.7-0.5c-1.8-3.5-5-2.1-6-2.5c-0.8-0.3-4.3-3.4-7-3.5c-0.5,2.4,4.5,4.8,2,6.5
		c-3.6-3.9-2-3.6-2.2-3.7c-4.4-3.2-5,1.8-6.2,0.7c-0.7-0.6,2.4-5.1-9.7-6c2.2-6.4,6.5-2.1,7.2-2.5c0.4-0.2-1-1.2,0.5-2
		c0.5-0.3,2,0.4,3.2-0.5c3.3,2.4-1,8.7,4.5,7.7C93,414.7,93,412.8,93.7,411.4z"/>
	<path display="inline" fill="#85956F" d="M253.2,393.9c0,0.8-1.1,0.3,0.5,1.5c-3.5,4,1.6,5.4,4.7,3c-1.6,4.9,1.9,3.5,2.5,4
		c3.9,3-7.4-2.3-9.7,0c-1,0.9-0.8,1.6-1,2c-0.8-0.2-2.7,3.6-4,6c0.9-1.9-5.4-1.6-12-2c-7.9-0.5-15.8-0.7-23.7-0.5
		c0.3-1.3,4.3-2.7,5.2-3.5c11.7,0.6,22.6-2.9,34.2-3c0.5-0.2,2.7-6.6,2.7-7.5C252.9,393.9,252.9,393.9,253.2,393.9z"/>
	<path display="inline" fill="#BAC1AF" d="M242.2,419.9c-0.1,0.3,0.1,0.7,0,1c-0.3,1.7-1.2,3.1-1,5c-7.7-2-13.1,1.4-14.7-2
		c-1.1-0.3-4.5,2.7-9.5,0c-1.6,2.5-7.2,1.6-10,2.5c-2,0.6-4,3.3-6,3.5c-0.2,0-3.7-1.1-3.7-1.2c-0.2-0.5,0.2-1.9,0-2.7
		c3.1,2.1,4.8-1.6,7.2-2.5c8.6-3.2,16-1.5,24-4C233.2,421.1,237.3,419.6,242.2,419.9z"/>
	<path display="inline" fill="#BAC1AF" d="M197.2,425.4c-9.4,2.4-22-4-38-6c-0.2-2,6.9-0.6,12.2-1c2.7-0.2,18.4-2.6,19.5-2
		c2.3,1.3-4.6,4.8-2.2,7.2c1.7,1.8,3.7-1.7,8.2,0.2C198.5,424.9,197.2,425.3,197.2,425.4z"/>
	<path display="inline" fill="#BAC1AF" d="M291.7,406.9c1.3,0.5,2.7,0.7,4,1c0,4.6,4.9,3.5,5,6c-0.1,0,0,0.4-0.7,1
		c-2.5-2.5-2.7-1.1-4.2-1c-4.5,0.2-6.1,1.9,0,2.5c-1.3,1.5-1.3,0-2.7,2c-2.5-6.3-8.8,5.6-6.2-3.2c-6.5-1.1-2.2,7.8-9.5,1.7
		c0-0.6,1-1,1-1.2c0.5-4.7-13-9.1,1.2-4.7c-2.7-3.4,2.7-4.6,3-4.5c2.8,1-1.8,1.8-1.2,3.7c0.1,0.2,2.6,2.2,3.2,1.7
		c1-0.8-0.4-3.7-0.2-3.7c2.9-1.6,1.4,7.5,3.7-1.7c3.3,2.1-2.1,7,2.5,6.5C293,412.7,291.2,408.7,291.7,406.9z"/>
	<path display="inline" fill="#BAC1AF" d="M254.7,421.9c1.7,0,5.2,0.5,5.5,0.5c5.2,6.7-0.2,0.2-8.2,2.5c-7.5,2.1-2.5,5.7-4,6
		c-1.8,0.3-2.2-2.8-4-3.5c-0.3-0.1-2.3,2.4-2.7-1.5c-0.2-1.9,0.7-3.3,1-5c2,0.4,11.2-0.8,11-1.7c-4.9,0.4-4.9,0.4-9.7,0.7
		c0.8-6.4,2.1-3,2.5-3c5-0.3,15.2-3.6,6.7,4.7C252.9,423.4,254.6,421.9,254.7,421.9z"/>
	<path display="inline" fill="#BAC1AF" d="M157.7,419.4c2.1,2.5,18,6.8,12.2,10c0.2-4.1-11.4,7.8-11.2,0.7c0-0.7,2.1-1.9,2-3.5
		c0-0.3-2.8-5.3-3.7-5.7c-3.4-1.5-15.3,1-15.7-2.5c4.7,1.6,10.8-0.9,14.2,1.5C158.1,416.9,157.5,419.4,157.7,419.4z"/>
	<path display="inline" fill="#DCE3DD" d="M283.7,385.9c-0.8,1-1.8,1.9-2.5,3c-0.8,1.3-1.7,3-2,4.5c0,0.2,0,0.3,0,0.5
		c-0.4,0-0.9,0.1-1,0c-0.4-0.3-0.9-1.7-2.5-2c1.3-3.9-0.9-3.2-3.5-3c-0.3-10.8,5.1-5.4,5.7-5.5c0.5-0.1,0-1.4,0.5-1.5
		c6.9-1.7-0.4,2.8,0,6C281.7,385.2,279.6,383.6,283.7,385.9z"/>
	<path display="inline" fill="#BAC1AF" d="M251.2,390.9c2,2.8-10.5,2.6-17.2,3.5c-11.6,1.6-13.4,5-10.7-0.5
		C226.2,394.3,245.3,389.2,251.2,390.9z"/>
	<path display="inline" fill="#BAC1AF" d="M124.7,414.4c-0.2,1.5-0.7,1,0.5,2.5c-0.6,1.2-1.4,1.4-1.5,1.5c-0.7-0.1-0.7-0.1-1.5-0.2
		c2.6-2.2-1.3-0.5-5.7-1.7c0.4,2.7,0.4,2.7,0.7,5.5c-0.1,0,0.8,0.4-1,0.5c-1.1-4.5-9.6-10.3-13.7-10c-0.5-0.3-0.1-1.9-0.2-2
		c3.4-0.4,4.7,0.8,8.2,1c-2.7,2.6,1.3,4.6,3.5,4.5C114.5,415.9,115.3,414.3,124.7,414.4z"/>
	<path display="inline" fill="#BAC1AF" d="M77.7,401.4c-0.2,0.9-1.7-0.2,0,2.5c-0.1,0.1-0.7-0.5-1.5,1.2c-0.4,0.9-1.4,10.4,1,9.2
		c-0.1,0.6,0.3,2.2-0.2,2.5c-1.4-2.6-2-0.6-4.2-1c3.5-2.2-3.7-5.9-5-6c1.4-5.4,8.3-1.1,6.5-7C77.8,402.2,75.1,399.3,77.7,401.4z"/>
	<path display="inline" fill="#BAC1AF" d="M275.7,420.9c-1.7,8.5-0.1-6.3-6.2,0.5c-5.9-1.9-8.8,1-9.2,1c-0.3,0-3.8-0.5-5.5-0.5
		c0.7-3.3,3.5-0.9,3.7-1c3.6-1.1,2.8-6,15.5-3c0.9,0.6,0.9,0.6,1.7,1.2C275.7,419.9,275.6,420.8,275.7,420.9z"/>
	<path display="inline" fill="#BAC1AF" d="M264.7,390.9c-1.4,1.5-1.4,1.5-2.7,3c-0.4-1.7-7.9,1.2-8.2,1.5c-1.6-1.2-0.5-0.7-0.5-1.5
		c0.1-3.7,1.3-4.3,4.7-2c1.4-2.8,5-1.7,7.5-2.5C265.1,390.2,265.1,390.2,264.7,390.9z"/>
	<path display="inline" fill="#DCE3DD" d="M123.7,418.4c-1.5,2.4-1.6,3.4-1.7,3.5c-1.2,1-2.1-0.2-4.7,0c-0.4-2.7-0.4-2.7-0.7-5.5
		c4.4,1.2,8.3-0.4,5.7,1.7C123,418.3,123,418.3,123.7,418.4z"/>
	<path display="inline" fill="#BAC1AF" d="M319.7,409.9c0,0.1,1.5,1.4,1,2.2c-0.5,0.8-3.3-3.6-3.7,4.2c-3.3-2.5-0.1-4.4-5.7-2.5
		c0.3-3.9,3.6-2,4-2.2C315.6,404.2,315.6,409.1,319.7,409.9z"/>
	<path display="inline" fill="#BAC1AF" d="M289.2,387.4c-0.9,1.5-1.5,2.3-1,4c-2.8,0.5-1.9-3.2-7-2.5c0.7-1.1,1.7-2,2.5-3
		c0.3-0.4,0.8-1,1-1.5c3.2,1.5,1.8-1.3,2.7-1C288.6,383.8,284.5,389.8,289.2,387.4z"/>
	<path display="inline" fill="#A0B091" d="M138.7,413.9c0,1.5-1.7,2.2,1.5,2c-0.9,2.5-2.6-0.4-3.7-0.5c-1.2-0.1-6.7,0.9-7.2-0.2
		C127.4,410.9,135.6,414.1,138.7,413.9z"/>
	<path display="inline" fill="#DCE3DD" d="M295.7,413.9c2.5,2.4,0.1,2.4,0,2.5C289.6,415.8,291.2,414.2,295.7,413.9z"/>
	<path display="inline" fill="#DCE3DD" d="M268.9,382.9c3.7-1.6,1.6,5,1,5C269.1,387.9,268.7,383,268.9,382.9z"/>
	<path display="inline" fill="#BAC1AF" d="M74.2,402.9c1.8,5.9-5.1,1.6-6.5,7c-4-0.2-9.7,6.2-9.5,3.7c6.2-5.3,0.1-1.1-0.2-1.2
		c-0.5-0.3,0.2-1.4-0.7-1.5c1.7-4.8,3.8-6.4,8.7-4c1-0.3,1.6-1.5,1.7-1.5c3.8-1.5,2.4-1.1,3.5-5.5C72,400.1,72.6,397.7,74.2,402.9z"
		/>
	<path display="inline" fill="#BAC1AF" d="M67.7,396.4c-0.1,0.4,1.1,0.6-0.2,1.5c-6.5,0.5-12,5.7-16.7,10
		c-10.6-3.3,6.2-10.6,10.5-11.5C63.1,396,65.7,396.4,67.7,396.4z"/>
	<path display="inline" fill="#BAC1AF" d="M66.2,393.4c-0.5,3.2,1.2,1.5,1.7,2c1.6,1.3-0.2,0.9-0.2,1c-2,0-4.6-0.4-6.5,0
		c-2.4-3,2.9-1.9,0.2-5.5C63.8,392.2,63.8,392.2,66.2,393.4z"/>
	<path display="inline" fill="#BAC1AF" d="M97.7,396.4c-0.5,4.4-9,11-4,15c-0.7,1.4-0.7,3.2-1,4.7c-5.5,1-1.2-5.4-4.5-7.7
		C88.9,407.9,92.8,395.5,97.7,396.4z"/>
	<path display="inline" fill="#BAC1AF" d="M101.2,391.4c-1.6,0-2.2-0.3-3.5,1c-0.1,0.1,0.4,1.3-0.7,2c-0.6-3.3-1.5-1.2-4.7-4
		c7,0.4-1.7-6.2,2.7-5.5c1.1,0.2,2.1,4,3,4.5C98.2,389.5,100.5,387,101.2,391.4z"/>
	<path display="inline" fill="#A0B091" d="M71.2,399.9c-1.1,4.4,0.3,4-3.5,5.5c-2.7-2.5-2.3-6,2.2-6.5
		C71.8,398.7,71.1,399.9,71.2,399.9z"/>
	<path display="inline" fill="#DCE3DD" d="M125.2,416.9c-1.2-1.5-0.7-1-0.5-2.5c0.2-1.9,0.9-2.6,1.5-4.2c0.5,0,0.5,0,1,0
		C126.2,412.2,125.9,415.5,125.2,416.9z"/>
	<path display="inline" fill="#85956F" d="M250.2,404.4c0.2-0.4,0-1.1,1-2c3.4,1.5,8.1-0.1,9.7,4c11.1-2.9-6.6,12.2-13.7,4.2
		C248.8,408.9,249.1,406.4,250.2,404.4z"/>
	<path display="inline" fill="#BAC1AF" d="M303.2,389.9c-0.1,0-0.9,0.9-1.2,1c-1,0.1-3.1-1.6-6.7,0.5c-2.2-6.5-5-0.8-5.5-0.5
		c-0.5,0.4-0.9,0.4-1.5,0.5c-0.5-1.7,0.1-2.5,1-4c4.8-7.4,1.9,0.8,5.2-2.5c1.4,3.4,4.7,0.5,5,0.5
		C299.8,385.4,304.3,388.4,303.2,389.9z"/>
	<path display="inline" fill="#A0B091" d="M299.7,404.9c0.6,2.2,0.6,2.2,1.2,4.5c-1.8-1.3-3.4-1.1-5.2-1.5c-1.3-0.3-2.7-0.5-4-1
		c-1.5-1.8,1.7-2.5,1.7-6.5C296.6,402.7,296.6,402.7,299.7,404.9z"/>
	<path display="inline" fill="#A0B091" d="M275.7,391.9c1.6,0.3,2.1,1.7,2.5,2c-1.1,1.7-1.1,1.7-2.2,3.5c-1.1-1.6-7.1,6.2-6.2,0.7
		c0-0.1,2.1-1,1.5-2.5c-0.4-1.2-8.2,0.9-2.2-1.7c0.1,0,0.6,0.9,1.5,0.5C270.8,394.2,272.3,391.2,275.7,391.9z"/>
	<path display="inline" fill="#BAC1AF" d="M302.7,394.4c-1.6-1.4-1.5-2.4-1.7-2.5c-1.7-0.8-3.8,0.5-5.2,1c-1.7-0.7-0.4-1.1-0.5-1.5
		c3.6-2.1,5.8-0.4,6.7-0.5c0.3-0.1,1.2-1,1.2-1c2.8-0.3,1.1-2.5,6.5,2.7C306.2,393.5,306.2,393.5,302.7,394.4z"/>
	<path display="inline" fill="#BAC1AF" d="M295.2,391.4c0.1,0.4-1.2,0.8,0.5,1.5c-0.3,0.1-3.5,2.9-5.2,2c-3.4-1.6,1.6-2.7-0.7-4
		C290.2,390.6,293,385,295.2,391.4z"/>
	<path display="inline" fill="#A0B091" d="M279.2,393.9c0-0.2,0-0.3,0-0.5c5.1-3.5,2.6,8.3,0,3.7c-0.3-0.6,1-2.8,1-3
		C280.2,393.8,279.2,394,279.2,393.9z"/>
	<path display="inline" fill="#C0D1B6" d="M287.4,398.9c0.4-0.8,5.8,4.3,1,2C287.9,400.7,287,399.8,287.4,398.9z"/>
	<path display="inline" fill="#A0B091" d="M261.9,403.4c0.5,0,2.7,0.6,2.7,0.7C264.8,404.8,262.2,405.7,261.9,403.4z"/>
	<path display="inline" fill="#BAC1AF" d="M313.2,394.9c1.6-1.1,3.3-5.5,9.5-1.7c-7.3,2.4-6.3,3.7-6.7,3.7
		C315.8,397,315.5,395.8,313.2,394.9z"/>
</g>
<g id="Background_00000164484173776468879820000011961328660552726457_" display="none">
	<path display="inline" fill="#A6A6A6" d="M433.7,653.9c-6.3-0.1-12.7,0-19,0c0-255.7,0-255.7,0-511.5c255.7,0,255.7,0,511.5,0
		c0,255.5,0,255.5,0,511c-3.9-0.7-3.9-0.7-7.7-1.5c-110.5-0.8-221.1,1.4-331.6-1.5c-48.3,0.8-96.6,1.8-144.8,1.5
		C437.8,652.9,437.8,652.9,433.7,653.9z"/>
	<path display="inline" fill="#A6A6A6" d="M926.2,653.4c-164.1-0.3-328.4,2.1-492.5,0.5c4.1-1,4.1-1,8.2-2
		c48.3,0.3,96.6-0.7,144.8-1.5c110.5,2.9,221.1,0.7,331.6,1.5C922.3,652.7,922.3,652.7,926.2,653.4z"/>
	<path display="inline" fill="#A6A6A6" d="M804.3,415.2c-10.4-18.6-17.1-11.9,4.2-11.5c13,0.3,27.4-4.9,33.2-17.5
		c3.8,0,9.4-3.8,10.2-4c16.7-3.2,14,11.6,28.5,10.5c3.7,1.5,3.1,5.4,7,4.5c6.4-7,2.6-11,7.2-19.2c2.9-21.7,3.9-43.5,4.5-65.4
		c3-13.2,3-13.2,6-26.5c4-26-0.8-40.4-13.5-62.9c-3.4-5.5-8.3-9.3-9.5-14.5c-3.4-4.2-5.7,0.4-9.7-8.7c-7.5,0.9-8.6-9.9-16.5-7
		c-1.3-0.2-8.9-8.4-16-6.5c-1.5-1-1.5-1-3-2c-2.5,0-2.5,0-5,0c-11.5-6.6-19.6-4.2-22-4.5c-3-0.4-6.9-1.9-7.5-2
		c-22.6-2.9-45.6-4-67.9-9c-40.8-0.4-81.6-2.3-122.4,0.5c-19.9,4-40.3,4.8-60.4,8c-6.3,1-12.4,3.6-19,3c-37,10.4-66.4,8-88.7,44.2
		c-11.8,24.2-12.3,30.7-9.5,57.4c1.7,7.2,5.9,16.5,7.5,23c4.9,19.7,4.8,50.1,6,71.4c0.1,1.5-0.7,7.5-0.5,10.5
		c0.3,3.7,2.3,23.4,9,16.5c0.3-0.3,4-6.2,4.5-7c0.2-0.4-0.2-2.6,0-3c1.3-2.3,4.8-4.6,5-9.5c8.2-7.1,11.3-3.2,20.7-0.7
		c4.5,4.7,4.5,4.7,9,9.5c3.9,1,6.7,1.6,10.2,3.5c10.1,8.9,28.8,8.7,41.2,5.5c-3.9,5.3-8.7,10.1-11.7,16c-1-0.2,0.1-3.1-2.2-4.5
		c-0.9-0.5-14.5-4-11.5-0.5c0.3,0.4,8,0.8,3,6c-0.2,0.2-4.5,2.1-6.5,1.5c0.8-7.8-3.7-12.2-3.2-3.2c-9.7,4.5-1,7.3-18.7,5.2
		c-0.9,0.3-2.4,6.1-3.5,6.5c-1.3,0.5-6.2-7.5-6,1.5c-11.9,0.1-4.6,4.3-10.2,9.7c0.2,3.7,0.2,3.7,0.5,7.5c4.3,3.2,1.4,7.5,1.5,8
		c1.4,7.6,5.5,17.3,6.5,25c2.2,3.2,2.2,3.2,4.5,6.5c-1.2,8.6,5.6,11.7,4.5,22.5c-0.5,5.3-5.5,3.6-7.7,0.7c-1.5,1.7-8.2-6.2-7.7-8.7
		c-7.2-4.6-10.1-12.4-16.5-18c-9-19.5-25.7-36.3-27.5-58.4c-4.4-5.2-4.3-21-3.5-27.5c0.9-7.1,6.7-11.1,1.5-17c0-1.6,1.5-5.7,1.5-6
		c-0.1-13.8,0.5-43.2,0-49.9c-1.4-18.2-8.8-36-10.5-53.9c-0.5-5.9,0.1-15.6,0-22c0.8-2.9,3-2.9,3.5-4c1.2-2.5,0.9-14.9,6.5-20
		c-2.9-5.1,4.8-13.9,9.5-16c-1.9-3.7,11.9-17,14.2-18.7c4.6-3.3,18.6-8.9,24.5-8.5c3.6-4.9,7.9-3.9,13-5.5c1.2-0.4,3.1-1.8,4-2
		c15.3-4.2,31.3-4.8,46.9-7.5c4.4-1,4.7,3.1,9,2c1.6-0.4,2.5-3.2,3.5-3.5c2.6-0.8,12.8,4.7,18-1.5c7.5-0.7,7.5-0.7,15-1.5
		c7.2,0.7,7.2,0.7,14.5,1.5c15.1-2.2,30.3-2.7,45.5-3c0.1,0,1.4-1,1.5-1c1.5,0,2.8,1,3,1c20.3-0.3,40.7,1.2,60.9-1
		c4.4,3.3,17.7,0.5,31,1.5c1.1,0.1,4.6,2.2,8,2.5c8.9-2.3,17.9,1.5,27,0.5c11.2,2.4,22.7,2.9,34,4c0.6,0.4,2.4,1.5,2.5,1.5
		c26.2,4.8,51.3,12.1,70.2,32.2c7.2,7.7,18.8,25.9,22.5,35.5c3.4,8.7,3.9,18.2,6.5,27c-0.3,5.1-3.2,36.2-4,38c-0.6,1.3-2.3,0-3,2
		c-0.9,2.7,1,6.6,1,7c0.3,10.2-0.4,26.4-0.5,38c0,0.9-3.1,2.5,0,17.5c-1.4,32.8,5.9,67-17.5,93.9c-0.8,4.4-2.8,9-7,11
		c-2.7,11.5-5.9,10.8-7,12.5c-2,3.1-2.4,9.7-4,13c-2,4.1-20.4,27.6-27.7,27.7c-3.6,7.3-3.5,9.8-12.5,10c-3.1,0.1,0-7.9,0.2-8.2
		c0.9-1.2,3.2,1.9,4.5-1.5c-2.2-15.5,6.2-28.9,9-44c7.8-8.7,7-21.2,11.5-31.5c0.5-8.2,0.5-8.2,1-16.5c-5-6.9-3.3-15.1-13.7-11.2
		c-1.3-3.1-8-2.9-4.5-6.5c-3.4-1.4-11.5-1-14-2.5c-3.4-2.1,2.3-9-22-7C803.9,409.2,810.8,408.3,804.3,415.2z"/>
	<path display="inline" fill="#A6A6A6" d="M535.1,468.1c1.6,4.1,3.1,9.2,7,11.7c0.5,9.9,19,26.4,28.5,30c-2,4.1-17.9,23.8-7.2,25.7
		c7.8,1.4,8.5-14.1,14-19.5c2.1,1,5.5,1.3,7.2,2c-1.5,4.6-10.4-4.9-0.2,8c8.9,1.4,1.5,5.7,8.7,10.2c-4.9,3.7,0.4,7.7,2.7,3.2
		c9.5,0.1-4.9,3.2,0.5,6c4.3,2.2,7.5-2.5,8-2.5c3.7-0.2-2.1,4,0,5c1,0.5,2.7-2.2,5-1.5c1.1,0.3,2,5.7,7,1.5c2.1,1.5-1.4,3,0,4.5
		c0.3,0.3,8,2.9,8.5,3c8.7,1.5,14.7-2.3,15.5,1.5c8.1,0,5.9-2.7,9-3.5c1-0.3,11.8,0.1,11.7,1.2c0,0.3-4.8,3.7,0.2,2.2
		c2.8-0.8-1.9-3.1,4-3.5c6.4-0.4,4.4,2.4,5.5,3c2,1.1,39.5-2.1,45-2c10.9-2.6,22-5,32.2-9.2c1.1-6.3,7.8-10.9,12.5-13.5
		c-0.6-3.7,1.6-6.7,3-10c-2.1-1.4-3.1-3.4-4-5.7c10.7-0.8,6.5,20,15.7,19.5c7.2-0.4,5.1-12.9,0.2-14.7c-2-5.7-2-5.7-4-11.5
		c5.7-3.3,14.8-6.4,16-13.5c5.9-1.6,11.2-10.4,11.5-16.5c4.6-2.9,8.5-13,10-18.2c2.2,0.4,3.9-5.4,4.2-5.5c2.1,2.6,4.8-0.2,7,0
		c15,1.1,9.6,14.7,11.7,25.2c-4.7,24.3-18.3,46.3-36.2,63.2c-4.3,0.9-11.3,6.4-14.5,8c-3.4,1.7-44,19.2-46.5,20
		c-16.3,5.1-67.9,9.4-84.9,8c-8.8-2.4-19.9-4-29-4c-21.1-8-41.6-18.4-62.4-26.5c-7.6-6.6-12.1-6.1-20.2-14.7
		c-11.3-11.9-37.4-55.4-16.5-66.9c-2.4-6.3,1.2-3.6,3.7-5.2C535,456.5,528.2,456.7,535.1,468.1z"/>
	<path display="inline" fill="#BBBBBA" d="M841.8,386.2c4.6-10,9.8-48.6,24.5-68.2c6.5-8.7,22.8-20,28-33.5
		c10.3-26.7-14.9-31.6-35.5-30.2c-7.6-6.3-13.1-3.8-14.2-8c-5.5,0.9-9.6-3.7-13-5c-0.2-0.1-2.1,0.5-5-0.5c-4-1.4-4-5.7-10.5-1.5
		c-1.3-4-10.7-0.7-14-6c-8.7-1.2-8-7.6-17-9c-11.1-9.5-26.4-13.5-40-18.5c-5.7-0.9-12.9-1.6-18-4c-9.3-0.7-18.6-1.4-27.5-4
		c-8.7-0.5-17.8,0-26-3c-15.6,4.6-36.5-1.3-48.9,5c-8.4-1-12,4.5-22,2c-9.7,7.3-26.2,4.1-35,10.5c-10.2,0.7-10.7,4.6-11.5,5
		c-0.5,0.3-4.1,0.4-10,5c-1.7,1.3-3.9,5.4-5.5,6c-2.6,1-6.3-1.4-7.5,0c-1.1,1.3,3.4,5.8-1,4.5c-0.2,0-1.2-2.3-2-2.5
		c-3.4-0.8-29.4,8.2-31.5,14.5c-6.1,1.6-11.6,5.5-17,9c-4.1-0.8-11.7-1.1-11.2,0.5c-16.9,0.9-31.1,7-25.5,26.7
		c4.7,16.6,24.7,28.5,33.5,43.5c14.5,24.8,14.8,60.5,27.5,71.7c-3.5-1.9-6.4-2.5-10.2-3.5c-4.5-4.7-4.5-4.7-9-9.5
		c-9.4-2.5-12.6-6.3-20.7,0.7c-0.2,4.9-3.7,7.2-5,9.5c-0.2,0.4,0.2,2.6,0,3c-0.5,0.8-4.2,6.7-4.5,7c-6.7,6.9-8.7-12.8-9-16.5
		c-0.2-2.9,0.6-9,0.5-10.5c-1.2-21.3-1.1-51.7-6-71.4c-1.6-6.5-5.8-15.8-7.5-23c-2.8-26.7-2.4-33.3,9.5-57.4
		c22.3-36.2,51.7-33.8,88.7-44.2c6.6,0.6,12.7-2,19-3c20.1-3.1,40.5-4,60.4-8c40.7-2.8,81.6-0.9,122.4-0.5c22.4,5,45.3,6.1,67.9,9
		c0.6,0.1,4.5,1.6,7.5,2c2.4,0.3,10.5-2.1,22,4.5c2.5,0,2.5,0,5,0c1.5,1,1.5,1,3,2c7-1.9,14.7,6.3,16,6.5c7.9-2.9,9,7.9,16.5,7
		c4.1,9.1,6.4,4.6,9.7,8.7c1.2,5.2,6.1,9,9.5,14.5c12.7,22.5,17.5,36.9,13.5,62.9c-3,13.2-3,13.2-6,26.5
		c-0.6,21.9-1.6,43.7-4.5,65.4c-4.7,8.2-0.9,12.2-7.2,19.2c-3.9,0.9-3.3-3-7-4.5c-14.4,1.1-11.7-13.7-28.5-10.5
		C851.2,382.4,845.6,386.2,841.8,386.2z"/>
	<path display="inline" fill="#D0D0CF" d="M816.8,264.8c-17.4,6.7-39.8,18.3-55.4,28.5c-7.2-10.7-7.1,1.6-11.2-4.5
		c-1-1.5-0.1-5-1.2-6.7c-1.2-2-14-5.7-16-15.5c-11.9-8.1-24.8-4.9-40.2-13.7c-8.5-1.5-8.5-1.5-17-3c-4.4,1.3-8.7-0.6-12,2
		c-3.7-2.9-10.1,0.8-15.5,1.5c-8,1.1-18.2-1-24,5.5c-4.3-4.3-17.7,3-19.2,9.2c-9.2,3.6-8.2,11.5-16.7,11.2c-1.3,1.4-7.3,6.2-7.7,7.2
		c-1.4,3.6,3.9,6-7,2.7c-15.9-10-33.3-18.6-50.9-25c0.5-4.2,3.8,2.8,11.2-0.5c0.5-0.2,7.4-5.9,7.7-6.2c0.3-0.3-1.3-4.6,5.7-3.7
		c7.5-6.5,14.6-7.1,16.5-12.5c9.7-2.2,17.7-9.9,28.5-9.5c6.7-8.1,5.3-1.5,15-4c0.4-0.1,4.1-2.6,5.5-3c3.1-1,8-0.1,9.5-3.5
		c13.9-0.9,38.4-8,49.4-9c4.1-0.4,16.2,0.1,20,1c3.1,3.5,8.6,2.9,13,4c1.2,0.3,3.4,1.7,4.5,2c4.3,1,8.8,0.1,16.2,3.2
		c3.4-12.7,7.2-1,14.2-0.7c0.1,3.9,2.7,1.8,5.5,3c1.7,0.7,5,5.2,5.5,0.5c12.1,0.9,19.3,5.7,6,5.5c-4.5-5.5-8.3-4.6-0.5,1.5
		c10.1,0.9,10.9,2.9,11.5,3c2.7,0.5,2-2.8,4.5-2c3.4,1.1-1.7,4.9,1,5.5c0.9,0.2,10.4-2.6,16.7,5.7c1.8,2.4-0.9,7.8,7.2,3.7
		c-5.9,7.2,2.4,7.2,6,12.5c5,0.1,6.5,3.5,8.5,4C813,265.2,817.2,263.3,816.8,264.8z"/>
	<path display="inline" fill="#D0D0CF" d="M761.4,293.3c-7.7,5-15.3,10.4-22.5,16c-1.2-1.3-5.6,4.5-8.2,5c-0.4,0.1-8.1-2.8-8.5-3
		c-0.2-0.1-1-3-2-3c-2.6-0.1-0.2,9.8-8.2-3.7c-0.2-6.6-0.2-6.6-0.5-13.2c1.9-1.9,3.6-4.8,6.2-7c0.4-0.4,8-1,5.7-7.7
		c-1.7-5-12.2,1.1-7,8c-20.2,19.3-35.9,40-41.5,67.9c-0.6,0.4-0.6,0.4-1.2,0.7c-2.9-0.4-2.9-0.4-5.7-0.7c-7-30.7-22.2-46.4-43-68.4
		c3.5-3.9-0.1-10.3-4.7-9.2c-4.6,1.1-1.7,10.9,3.5,9.5c1.4,1,2,2.8,3.2,4c-0.5,0.1-0.5,0.1-1,0.2c3.6,3.7-3-2.6-5.5,13
		c-12.9,8.6-7.8,9.9-8,11.5c-1.8,2-5.1-2.9-4.5,1.2c-8.8-7.1-25-19-34.5-25c10.9,3.3,5.6,0.8,7-2.7c0.4-1.1,6.5-5.8,7.7-7.2
		c8.5,0.3,7.6-7.7,16.7-11.2c1.5-6.2,14.9-13.5,19.2-9.2c5.7-6.5,16-4.4,24-5.5c5.4-0.7,11.7-4.4,15.5-1.5c3.3-2.6,7.6-0.7,12-2
		c8.5,1.5,8.5,1.5,17,3c15.4,8.8,28.3,5.6,40.2,13.7c2,9.7,14.7,13.5,16,15.5c1.1,1.8,0.2,5.2,1.2,6.7
		C754.3,294.9,754.2,282.6,761.4,293.3z"/>
	<path display="inline" fill="#BBBBBA" d="M858.8,254.4c-14.3,1-28.6,5.4-42,10.5c0.4-1.6-3.8,0.4-5.2,0c-2-0.5-3.5-3.9-8.5-4
		c-3.6-5.3-11.9-5.2-6-12.5c-8.1,4.1-5.5-1.4-7.2-3.7c-6.3-8.4-15.8-5.5-16.7-5.7c-2.7-0.6,2.4-4.4-1-5.5c-2.5-0.8-1.8,2.5-4.5,2
		c-0.6-0.1-1.4-2.1-11.5-3c-7.8-6.1-4-7,0.5-1.5c13.3,0.2,6.1-4.6-6-5.5c-0.5,4.7-3.8,0.2-5.5-0.5c-2.8-1.2-5.4,0.9-5.5-3
		c-7-0.3-10.8-12-14.2,0.7c-7.4-3.1-11.9-2.3-16.2-3.2c-1.1-0.3-3.3-1.7-4.5-2c-4.4-1.1-9.9-0.5-13-4c-3.8-0.9-15.9-1.4-20-1
		c-11,1-35.6,8.1-49.4,9c-1.5,3.4-6.4,2.5-9.5,3.5c-1.4,0.4-5.1,2.9-5.5,3c-9.7,2.5-8.3-4.1-15,4c-10.7-0.4-18.8,7.3-28.5,9.5
		c-1.9,5.4-9,6-16.5,12.5c-7.1-0.8-5.5,3.4-5.7,3.7c-0.3,0.4-7.3,6-7.7,6.2c-7.4,3.3-10.8-3.7-11.2,0.5c-16.6-6-34.1-11-51.9-10
		c-0.5-1.6,7.1-1.3,11.2-0.5c5.4-3.5,10.9-7.4,17-9c2-6.3,28-15.3,31.5-14.5c0.8,0.2,1.8,2.5,2,2.5c4.4,1.3-0.1-3.2,1-4.5
		c1.2-1.4,4.9,1,7.5,0c1.6-0.6,3.8-4.7,5.5-6c5.9-4.5,9.5-4.7,10-5c0.8-0.4,1.3-4.3,11.5-5c8.8-6.4,25.3-3.2,35-10.5
		c10,2.5,13.5-3,22-2c12.5-6.3,33.3-0.4,48.9-5c8.2,3,17.3,2.5,26,3c8.8,2.6,18.2,3.3,27.5,4c5,2.4,12.3,3.1,18,4
		c13.5,5,28.9,8.9,40,18.5c9,1.4,8.3,7.8,17,9c3.3,5.3,12.7,2,14,6c6.5-4.2,6.5,0.1,10.5,1.5c2.9,1,4.8,0.4,5,0.5
		c3.4,1.3,7.5,5.9,13,5C845.7,250.6,851.2,248,858.8,254.4z"/>
	<path display="inline" fill="#8F8F8D" d="M687.5,483.6c1.7,2.9,9.5,15.5,11,17.7c1.1,1.6,2.3,1,3,2c0.1,0.1,0.3,2.1,1,3
		c3.7,5.1,11.1,15.6,16.7,17.7c3.8,1.4,18.7,2.2,23,1.5c8.5-1.4,16.2-9.4,17.2-9.5c0.9,2.3,1.9,4.4,4,5.7c-1.4,3.3-3.6,6.3-3,10
		c-4.7,2.6-11.4,7.2-12.5,13.5c-10.2,4.2-21.3,6.6-32.2,9.2c-5.5-0.1-43,3.1-45,2c-1.1-0.6,0.9-3.4-5.5-3c-5.9,0.4-1.2,2.7-4,3.5
		c-5.1,1.4-0.3-2-0.2-2.2c0-1.2-10.7-1.5-11.7-1.2c-3.1,0.8-0.9,3.5-9,3.5c-0.8-3.8-6.8,0-15.5-1.5c-0.4-0.1-8.2-2.7-8.5-3
		c-1.4-1.5,2.1-3,0-4.5c-5,4.2-5.9-1.2-7-1.5c-2.3-0.7-4,2-5,1.5c-2.1-1,3.7-5.1,0-5c-0.5,0-3.7,4.7-8,2.5c-5.4-2.8,9-5.9-0.5-6
		c-2.4,4.5-7.6,0.4-2.7-3.2c-7.2-4.5,0.2-8.8-8.7-10.2c-10.2-12.9-1.3-3.4,0.2-8c5.5,2.2,7,6.6,14.2,7.5
		c22.3-0.2,21.2,2.6,36.7-13.7c0-1.5-5.2,2.2-7-1c0.1-1.1,4,0.9,9.7-3.2c2.5-1.8,14-18.3,16.2-22c1.9,1,1.9,1,3.7,2
		c4.1-3.5,5.2-0.9,7.7,3c4.5,12.5,9.4,3.7,11-6c3.3-0.5-0.1-3.3,6.7-2.5C684.7,482.2,686.2,483.9,687.5,483.6z"/>
	<path display="inline" fill="#E6E6E5" d="M627,288.3c7.5,7.2,23.5,26,28.5,34.7c2.9,5,12.7,28,12,30.5c-0.2,0.7-4.3,2.2-4.7,2.7
		c-2.3,3,11.2,13.9,0,10.5c-2.1-0.6-26.2-26.9-30.5-31c-7.7-7.3-16-14.8-24.2-21.5c-0.6-4.2,2.7,0.8,4.5-1.2c0.1-1.6-4.9-2.9,8-11.5
		c2.5-15.5,9.1-9.2,5.5-13C626.5,288.4,626.5,288.4,627,288.3z"/>
	<path display="inline" fill="#E6E6E5" d="M738.9,309.3c-18.1,14.1-34.9,30.4-50.4,47.2c-7.1,7.7-7.7,12.7-13.2,10.2
		c9.7-13.8,3.9-8.8,1-12c-2-2.3,6-22.5,7.7-26.2c6.5-13.7,16.9-26.4,27.5-37.2c0.2,6.6,0.2,6.6,0.5,13.2c8,13.5,5.6,3.7,8.2,3.7
		c1,0,1.8,2.9,2,3c0.4,0.2,8,3.1,8.5,3C733.3,313.8,737.7,308,738.9,309.3z"/>
	<path display="inline" fill="#A6A6A6" d="M666,490.6c-2.6-3.9-3.7-6.5-7.7-3c-1.9-1-1.9-1-3.7-2c3.4-5.5,6.3-11.6,9.2-17.5
		C664.7,468.6,662.6,481.2,666,490.6z"/>
</g>
<g id="Background_00000118365910824213673890000001215933059380669857_" display="none">
	<path display="inline" fill="#BBBAB8" d="M839.8-2.1c0,256,0,256,0,512c-256,0-256,0-512,0c0-256,0-256,0-512
		C583.8-2.1,583.8-2.1,839.8-2.1z"/>
</g>
<g id="Background_00000150813036284007513270000000662105428228957342_" display="none">
	<path display="inline" fill="#A9A6A5" d="M260.5,653c0-254.5,0-254.5,0-509c256,0,256,0,512,0c0,255,0,255,0,510
		C516.5,653.5,516.5,653.5,260.5,653z"/>
	<path display="inline" fill="#A9A6A5" d="M772.5,654c0,1,0,1,0,2c-256,0-256,0-512,0c0-1.5,0-1.5,0-3
		C516.5,653.5,516.5,653.5,772.5,654z"/>
	<linearGradient id="SVGID_1_" gradientUnits="userSpaceOnUse" x1="514.7349" y1="554.2886" x2="514.5215" y2="584.7878">
		<stop  offset="0" style="stop-color:#305D61"/>
		<stop  offset="1" style="stop-color:#729B9A"/>
	</linearGradient>
	<path display="inline" fill="url(#SVGID_1_)" d="M362.5,551c70.1,5.9,163.2,7.6,233.2,5c23.7-0.9,47.6-3.1,71.2-4.5
		c1.5-0.1,3.6-0.5,5-1c5.6,3,17.8,3.7,15,16.2c-3.3,14.9-45,17.9-57.8,19.2c-57.3,5.9-152.1,5.5-210,1c-15.4-1.2-76.5-3.3-77.2-24.2
		c-0.5-12.8,12.3-10.5,13.2-10.8c0.2,0,1.6-1,3.2-1.5C358.4,551.2,361,551.2,362.5,551z"/>
	<path display="inline" fill="#BDC1BA" d="M366.7,231.5c4.6-0.8,0.4,5.7-2.5,4.5C361.7,234.9,366.4,231.6,366.7,231.5z"/>
	<path display="inline" fill="#C5BBBB" d="M729.5,327.5c0,0-0.7,0-1,0c0-1.1,0.1-2.4,0-3.5c1.4-0.2,7.1,5.7,5.2,6.5
		C732.5,330.4,731.3,324,729.5,327.5z"/>
	<path display="inline" fill="#BDC1BA" d="M625.2,212c0.5,0,2.9-0.1,3,0C633.8,214.5,612,212.6,625.2,212z"/>
	<path display="inline" fill="#C5BBBB" d="M501.7,239.5c1.8-0.1,2.2,2.6,0.5,3C499.9,243,499.9,239.7,501.7,239.5z"/>
	<path display="inline" fill="#C5BBBB" d="M719.7,270c0.5,0.2-0.1,1.4-0.2,1.8C717.7,275.1,711,277.7,719.7,270z"/>
	<path display="inline" fill="#BDC1BA" d="M647.2,215.5c0.5,0,1.8,2.9,1,3.5C645.9,220.8,645.5,215.5,647.2,215.5z"/>
	<path display="inline" fill="#BDC1BA" d="M402.2,212.5c1.7-0.7,2.6,2.4,1,3C401.2,216.3,401.2,213,402.2,212.5z"/>
	<path display="inline" fill="#DBD7D2" d="M520.7,243.5c2-0.5,2.3,2.2,1,2.5C520.7,246.3,519.5,243.8,520.7,243.5z"/>
	<path display="inline" fill="#DBD7D2" d="M340.7,246c0.5-0.1,2.8,1.3,2.8,1.8C342.9,250.3,339.2,246.3,340.7,246z"/>
	<path display="inline" fill="#817C7A" d="M731.7,350.5c1.7,0,0.2,3,0,3C730.8,353.5,730.7,350.5,731.7,350.5z"/>
	<path display="inline" fill="#817C7A" d="M702.7,256.5c1.1-0.1,1.8,2.3,0.5,2.5C702.7,259.1,701.2,256.7,702.7,256.5z"/>
	<path display="inline" fill="#DBD7D2" d="M590.7,210c1.2-0.3,1.7,1.7,0.5,2C590,212.3,589.6,210.3,590.7,210z"/>
	<path display="inline" fill="#BDC1BA" d="M414.7,209c1.2-0.2,1.2,2.7,0,2.5C413.8,211.4,413.8,209.1,414.7,209z"/>
	<path display="inline" fill="#FFFFFF" d="M714.7,432.5c1.9,0,0.3,3.3-0.8,1.8C713.7,433.8,714.4,432.5,714.7,432.5z"/>
	<path display="inline" fill="#989594" d="M737.2,360.5c0.4-0.2,1.7-0.3,1.8,0.8C739,362.8,735.8,361.3,737.2,360.5z"/>
	<path display="inline" fill="#DBD7D2" d="M733.2,290.5c3-0.4-0.5,3.3-0.8,0.8C732.5,291.2,733.2,290.5,733.2,290.5z"/>
	<path display="inline" fill="#DBD7D2" d="M306.7,406c1.1-0.6,1.8,1.1,1,1.5C306.6,408.1,305.9,406.4,306.7,406z"/>
	<path display="inline" fill="#DBD7D2" d="M720.7,424c0.3,0,1.3,1.1,0.2,1.8C719.9,426.4,719.7,424,720.7,424z"/>
	<path display="inline" fill="#BDC1BA" d="M705.7,260c1.7-1.1,0.9,3.4-0.2,1.2C705.4,261,705.4,260.2,705.7,260z"/>
	<path display="inline" fill="#817C7A" d="M736.2,351c0.3,0,1.3,1.1,0.2,1.8C735.4,353.4,735.2,351,736.2,351z"/>
	<path display="inline" fill="#DBD7D2" d="M610.2,211c0.4-0.2,1.8,0.3,1.8,0.8C612,212.9,608.7,211.8,610.2,211z"/>
	<path display="inline" fill="#DBD7D2" d="M614.2,209.5c1.6-0.8,1.4,1.5,0.5,1.5C613.6,211,613.8,209.7,614.2,209.5z"/>
	<path display="inline" fill="#C5BBBB" d="M477.2,220c1-0.5,1.5,1.6,0.5,1.5C476.6,221.4,476.8,220.2,477.2,220z"/>
	<path display="inline" fill="#BDC1BA" d="M375.2,228.5c1-0.5,1.5,1.6,0.5,1.5C374.6,229.9,374.8,228.7,375.2,228.5z"/>
	<path display="inline" fill="#C5BBBB" d="M304.7,300.5c1.5-0.6,0.7,4.4-0.2,1.2C304.4,301.5,304.4,300.6,304.7,300.5z"/>
	<path display="inline" fill="#C5BBBB" d="M302.7,318c0.6,0,0.8,2.5-0.2,1.8C301.4,319,302.5,318,302.7,318z"/>
	<path display="inline" fill="#DBD7D2" d="M605.2,208c0.4-0.3,1.6,0,1.2,0.8C606.1,209.5,604.2,208.8,605.2,208z"/>
	<path display="inline" fill="#DBD7D2" d="M597.2,208c0.4-0.3,1.6,0,1.2,0.8C598.1,209.5,596.2,208.8,597.2,208z"/>
	<path display="inline" fill="#DBD7D2" d="M299.2,307.5c0.4-0.3,1.6,0,1.2,0.8C300.1,309,298.2,308.3,299.2,307.5z"/>
	<path display="inline" fill="#DBD7D2" d="M291.2,355c0.2,0,1.1,0.7,0.2,1.2C290.5,356.8,290.4,355,291.2,355z"/>
	<path display="inline" fill="#C5BBBB" d="M430.2,208c0.1,0,1,0.7,0.5,1C429.4,209.7,429.3,208.1,430.2,208z"/>
	<path display="inline" fill="#BDC1BA" d="M296.7,326c0.1,0.1,0.1,0.1,0.2,0.2s0.1,0.1,0.2,0.2s0.1,0.1,0.2,0.2
		c-0.1,0.1-0.1,0.1-0.2,0.2c-0.2,0-0.2,0-0.5,0c-0.1-0.1-0.1-0.1-0.2-0.2c0-0.2,0-0.2,0-0.5C296.6,326.1,296.6,326.1,296.7,326z"/>
	<path display="inline" fill="#DBD7D2" d="M298.2,368c0.2,0,0.2,0,0.5,0c0.1,0.1,0.1,0.1,0.2,0.2c0,0.2,0,0.2,0,0.5
		c-0.1,0.1-0.1,0.1-0.2,0.2c-0.1-0.1-0.1-0.1-0.2-0.2s-0.1-0.1-0.2-0.2s-0.1-0.1-0.2-0.2C298.1,368.1,298.1,368.1,298.2,368z"/>
</g>
<g>
	<path fill="#C2B59B" d="M895.5,297.1c1.7-1,3.9-2.3,4.2-3.9c1.4-7.2-0.2-14.1-6.9-17.8c-5.1-2.8-11-4.3-16.7-5.7
		c-3.2-0.8-6.8-0.1-10.5-0.1c5.6-7.9,16.5-12.5,26.2-10.6c3.5,0.7,7.6,2.4,9.8,5.1c1.9,2.3,1.4,6.5,2,10.3c3,0.3,3.8-2.3,4.3-5.2
		c1.2-7.9-1.7-12.3-11.1-16.4c4.1-2.5,8-4.7,11.7-7.1c25-15.7,32.1-49.4,14.5-71.2c-12.5-15.5-29.5-22.8-49.3-23.9
		c-1.8-0.1-4.6-0.3-5.3-1.5c-7.2-11.4-17.8-17-30.5-19c-0.5-7-0.4-13.7-1.6-20.2c-5.7-30.6-30.5-52.7-62.9-56.7
		c-31.9-4-59.7,16.2-64.9,47.7c-1.3,7.6-0.2,15.5-0.2,21.8c-6.9,5.4-13.4,9.7-19.1,15c-3.5,3.2-4.9,3-7.5-0.6
		c-8.3-11.2-19.4-17.3-33.6-15.5c-11.6,1.4-20.5,8.1-27.3,17c-6.4,8.5-11.6,17.8-17.3,26.6c-1-2.2-2.3-5.2-3.7-8.2
		c-5.7-11.9-13.5-22.2-24.5-29.7c-14.1-9.5-29.8-8.7-43,2c-4,3.2-7.7,6.7-11.4,10c-6.9-5.2-14.6-11.1-23.1-17.5
		c0.1-0.9,0.3-3.2,0.5-5.5c1.3-15.6-2.6-29.8-12.3-42.1c-15-18.8-34.9-24.9-58.2-22c-28.1,3.5-54.8,26.8-61,54.5
		c-1.6,7-1.7,14.4-2.5,22c-12.5,2.1-23,8.1-30.6,19c-0.7,1-2.9,1.1-4.4,1.4c-8,1.5-16.3,1.8-23.8,4.5c-17.3,6.3-30.9,17.3-36.3,35.8
		c-5.7,19.6,4.4,42.8,23.2,55.3c3.4,2.2,7,4.2,10.9,6.5c-1.8,0.9-3.1,1.5-4.3,2.3c-6.2,3.8-8.5,10.5-5.7,16.8
		c0.6,1.3,2.3,2.1,3.4,3.2c0.4-0.3,0.8-0.6,1.2-0.9c-0.9-4.5-1.6-8.9,2.9-12.2c8.2-6.1,30.1-1.8,34.1,8.8c-10.2-1.6-20-1-28.5,5.6
		c-6,4.6-8.4,11.2-6.3,17.6c0.5,1.5,2.3,2.5,3.6,3.7c0.4-0.3,0.9-0.5,1.3-0.8c-2.1-5.4,0-9.5,3.7-13c8.5-8.1,18.6-8.4,29-5.3
		c19.3,5.8,23.6,22.2,9.8,36.8c-9.5,10-14.6,21.7-14.5,35.6c0.1,14.4,5.1,27.3,12.1,39.6c14.3,25,34.1,45.1,56.5,62.7
		c42.9,33.5,79.4,72.9,110.2,117.6c6.1,8.8,12.2,17.5,21.6,23.2c1.1,0.7,2.1,2.3,2.2,3.6c0.2,11,0.1,21.9,0.1,33
		c-0.7-0.2-1.5-0.4-2.2-0.7c-3.5-1.5-6.9-1.4-9.7,1.4c-3,3.1-3.3,6.7-1.9,10.6c2.7,7.4,10.5,9.5,16.5,4.5c2-1.7,3.5-3.3,6.5-1.7
		c5.7,3,11.5,2.4,17.3-0.1c1.6-0.7,3.7-1.9,5.1-1.4c5.2,1.8,10.7,0.2,16.1,2.5c7,3,13.1-0.9,17.6-6.7c8.5,8.4,13.8,10.2,21.3,6.1
		c6.6-3.6,13-3,19.7-0.8c5.6,1.9,11.1,2.2,16.4-0.9c2.3-1.3,3.8-1.4,6.2,0.1c5.8,3.4,12.9,1.5,15.6-3.8c1.9-3.6,2-7.1-1.1-10.1
		c-2.9-2.7-6.3-2.5-9.7-0.6c-1,0.6-2.1,1.2-3.3,1.8c0-11.3-0.1-22.1,0.1-32.9c0-1.5,1.1-3.6,2.3-4.4c7.7-5,13.2-12,18.4-19.5
		c8.6-12.3,17-24.7,26.4-36.3c19.9-24.2,40.8-47.6,64.5-68.2c14.4-12.6,29.6-24.4,43.5-37.5c15.4-14.4,28.6-30.8,37.5-50.1
		c11.5-24.8,12.7-48.4-9.1-69.2c-7.7-7.4-6.7-18.4,1.4-26.2c8-7.8,17.9-10.2,28.6-8.4C890.8,278.8,896.2,286.1,895.5,297.1z
		 M529.1,641.7c-2.8-2.1-3.2-5-1.5-8.4c2.1,3,3.7,5.5,6,8.8C532,642,530.1,642.5,529.1,641.7z M820.6,93.1c0.4,0,0.8-0.1,1.2-0.1
		c2.2,7.5,4.4,15.1,6.8,23.1c-3.5,0-6,0-8,0C820.6,108.2,820.6,100.7,820.6,93.1z M827.6,124.8c0,1.8,0,3.4,0,3.8
		c-9.5,4.3-19,7.3-27,12.7c-7.8,5.3-14,12.9-20.4,19.1C778.7,139.2,803.4,119.7,827.6,124.8z M833,274.6c-3.5,4.3-7.7,8.6-12.4,11.4
		c-12.3,7.5-25.1,14.2-37.6,21.2c-0.5-0.6-1-1.1-1.5-1.7c5.8-6.8,11.6-13.6,17.3-20.5c4.1-5,8.3-10,11.7-15.5
		c7.3-11.6,8-20.6,4.4-38.4c7.4,0.9,18.5,11,22.2,20.1C840.6,259.9,838.5,267.7,833,274.6z M838.3,308.8c-9.7-0.6-19.5-1.2-30.9-1.9
		c10.5-5.4,20.1-10.3,29.6-15.1C837.4,297.5,837.8,303.1,838.3,308.8z M619,445.9c-0.7-0.9,0-4.1,1.1-5.3c7.7-8.4,23.4-3.7,26.5,8.2
		c1,3.9,0.8,8.8-0.6,12.6c-5.6,15.3-17.3,24.1-32.8,28.9c2.7-5.6,5.4-10.7,7.8-15.9C625.4,464.6,626.7,455,619,445.9z M577.7,467.6
		c2.5,7.7,6.3,14.9,9.7,22.5c-16-4.1-27.3-13.3-33-28.9c-2.7-7.3-0.7-13.7,4.2-19.4c4.5-5.1,10.2-6,16.4-4.4c2.3,0.6,4.5,2,6.4,3.5
		c2.3,1.8,2.6,3.9,0.2,6.2C575.4,453,575.4,460.5,577.7,467.6z M440,383.8c-3.3,0-7.9,0.3-12.4-0.1c-12.7-1.2-19.2,0.8-27.7,9.4
		c-6.4-13.4-11.4-26.5-12.6-40.8c-0.8-9.9,4.6-18.6,13.5-22.4c10.5-4.6,21.6-2.5,29.3,5.7c6.5,6.9,10.2,15,9.9,24.8
		C439.8,368,440,375.6,440,383.8z M376.6,282.6c-19.9-13.8-19.3-32.4,0.2-46.9c3-2.3,6.3-4.2,9.5-6.2c0.4,0.2,0.8,0.4,1.1,0.6
		c-4.6,10.7-5.2,21.7,0.1,31.9c4.4,8.3,10.2,15.9,15.9,23.4c5.1,6.7,10.9,12.9,17.1,20.2c-1.9-0.2-2.9,0-3.5-0.4
		C403.4,297.7,389.1,291.3,376.6,282.6z M393.2,306.2c-0.1,0.5-0.2,1-0.3,1.4c-10.4,0-20.8,0-30.9,0c0.4-5,0.8-10.7,1.3-16.8
		C373.1,295.9,383.1,301.1,393.2,306.2z M360.1,234.5c3.1-16.2,37.3-39.6,57.1-38.9c-4.2,7.2-9.5,12.2-16.3,15.5
		c-4.6,2.2-9.4,4.2-14.2,6c-8.7,3.2-16.5,7.8-23,14.4C362.7,232.6,361.5,233.4,360.1,234.5z M433.9,311.2c-8.4-11.1-17-22.2-25.8-33
		c-6.8-8.3-13.8-16.3-15.6-27.4c-1.5-9.3,1.4-17.5,6.8-24.8c1.3-1.8,4.1-2.9,6.4-3.5c12.4-3,23.4-8.4,32.9-17c2.1-1.9,4-2.4,6.6-0.8
		c7.5,4.5,15.1,8.9,22.7,13.3c-7.2,2.6-13.7,4.2-19.5,7.2c-6.7,3.5-9.8,9.6-8.9,17.5c0.3,2.9,1.4,4.4,4.8,3.3
		c-1.2-7.1,2.8-11.4,8.4-14.7c17.7-10.7,42.6-0.6,47.8,19.5c3.6,13.6-3.4,30.4-15.9,37.4c-3.7,2.1-7.8,3.7-11.8,5.4
		c-13.9,5.8-27.1,12.3-31.7,29.5C438.3,318.5,436.4,314.6,433.9,311.2z M455.4,192.6c21.1,6.2,41.8,12.9,55.3,33.9
		C488.2,219.9,470.9,207.8,455.4,192.6z M511.4,257.8c1,7.6,1.9,15.3,2.9,23.5c-4.3-0.5-7.2-0.8-10-1.2c2.1-7.5,4.1-14.8,6.1-22
		C510.8,258,511.1,257.9,511.4,257.8z M460.8,308.9c13.2-7.3,26.9-13.8,40.5-20.2c2.1-1,5.2,0.4,7.9,0.6c-0.5,2.3-0.4,4.9-1.6,6.7
		c-4.3,7-10.9,11.6-18.2,15c-12.3,5.8-25.4,8.9-38.9,10.5c-0.4-0.5-0.8-1.1-1.2-1.6C453.2,316.2,456.3,311.4,460.8,308.9z
		 M461,352.2c2.7-5.3,7.8-10,12.8-13.5c5.5-3.9,12-6.3,18.2-9.1c12.4-5.6,22.8-13.6,31.1-24.4c0.9-1.2,1.9-2.3,2.5-2.9
		c9.4,6.2,18.6,12.2,27.9,18.4c-13.2,3.2-22.1,11.5-26,25.2c-8.3-6.1-17.2-9.1-27.4-6.6c-9.9,2.5-16.5,8.7-19.1,18.4
		c-2.7,9.9,0.8,18.3,8.9,24.2c5.7,4.2,12.1,7.5,18.3,11.1c5.4,3.1,10.1,6.8,12.9,12.5c-14.6-4.8-28.8-9.3-42.9-14.2
		C460.7,385.2,452.9,368,461,352.2z M698.2,280.8c-2.7,0.4-5.6,0.8-9.8,1.3c0.8-8,1.7-15.7,2.5-23.4c0.3,0.1,0.6,0.2,0.9,0.3
		C693.9,266.1,696,273.3,698.2,280.8z M697.1,226.6c5.7-13.8,36.4-32.7,51.9-31.8C733.5,208.6,717.3,220.5,697.1,226.6z
		 M703.3,290.4c11.5,5.7,22.9,11.3,34.3,17.2c7.7,4,11,7.6,14.2,15.2c-17.6-3-34.4-6.2-48.4-17c-3.7-2.9-6.6-7-9.5-10.7
		c-0.9-1.1-1.5-3.9-0.9-4.4c1.3-1.2,3.5-1.8,5.3-1.8C699.8,288.8,701.6,289.6,703.3,290.4z M713.1,332.5c5.6,2.5,11.3,5.1,16.3,8.6
		c9.2,6.4,14.1,15.4,12.7,27c-1.5,11.7-8.1,19.4-19.2,23.2c-6.6,2.3-13.4,3.8-20,6c-7.5,2.5-14.9,5.4-22.8,8.3
		c2.4-5.5,6.5-9.3,11.4-12.2c5-2.9,10.3-5.5,15.1-8.7c13.8-8.9,17.9-22.2,10.6-33.9c-7.4-12-23.9-15.7-37.1-8.4
		c-1.8,1-3.6,2.2-5.5,3.3c-6.8-16.2-8.6-17.8-26.2-25.2c8.9-5.8,18-11.7,27.5-17.8c0.2,0.2,1.2,1.1,1.9,2.1
		C686.6,317.9,699,326.3,713.1,332.5z M636.8,328.4c10.7-3.1,22.4,1.3,27.6,11.7c3.3,6.7,4.6,14.3,6.7,21c2.3-2.6,4.8-6.3,8.1-9.3
		c9.4-8.6,23.7-7.8,31.2,1.4c4.8,5.8,5.3,13.3,0,18.6c-4.2,4.3-9.3,8.2-14.7,10.9c-10.1,5.1-18.6,11.5-23.9,21.8
		c-1.4,2.7-3.8,4.9-6.3,8.1c-5.5-12.7-15.9-19.4-25.5-27c-10.6-8.4-18.6-18.7-19.3-33C620.1,340.8,626.4,331.4,636.8,328.4z
		 M610.2,319.3c3.1-18.6,36.5-37,52.5-28c-2.5,5.5-7.2,8.6-12.3,11c-5.4,2.6-11,4.5-16.5,6.8C625.9,312.6,617.9,316,610.2,319.3z
		 M673,425c11.5-10.3,24.6-17.2,40.6-15.6c8.6,0.9,14.6,7.7,15,16.5c-9.6-9.8-20.7-8.8-32-5.3c-11.1,3.4-20.4,9.7-27.6,18.8
		c-1.9,2.4-3.6,5-6.1,8.6C663.9,438.2,666.6,430.7,673,425z M676.5,256.7c-2.2-4.3-3.8-7.5-5.3-10.6c0.3-0.3,0.6-0.6,0.9-0.9
		c2.7,2.2,5.4,4.4,7.9,6.8C680,252.2,678,254.6,676.5,256.7z M620.5,196.2c14.4-7.4,47.8,11.7,54.8,31.2
		C655.2,220.1,633.6,216.2,620.5,196.2z M667.8,283.9c-28.8-6.4-52.2,5.2-66.1,37.3c-11.9-29.5-32.8-43.4-64.7-38.1
		c-4.9-16,2.6-36.2,16.6-44.7c13.5-8.2,29.9-4.1,39.9,10.8c3.9,5.8,6.3,12.7,9.4,19.1c2.6-9.8,6.5-19.6,15.1-26.6
		c9-7.2,19-9.8,29.8-5.1C663.8,243.6,672.5,261.6,667.8,283.9z M535.3,412.9c-2.3-3-5.4-5.9-7.1-9.4c-4.3-8.6-11.2-14.1-19.6-18.4
		c-5.5-2.7-11-5.8-15.5-9.9c-10.3-9.4-6.4-24.4,7-28.7c10.8-3.4,22.5,1.5,28.5,11.9c0.7,1.3,1.4,2.6,2.3,4.4
		c1.5-6.5,2.2-12.2,4.2-17.6c6.1-17,25.2-23.5,39.4-13.7c8.7,6,10.3,14.7,8.9,24.3c-1.7,11.3-8,19.9-16.7,26.9
		c-2.3,1.9-4.8,3.6-7.1,5.4c-4.4,3.5-9.2,6.7-13.2,10.6C542.5,402.8,539.4,407.6,535.3,412.9z M537.6,446.6
		c-7.8-10.9-17.1-19.9-29.7-24.5c-12.5-4.6-25.1-7.4-36.7,4c0.2-8.4,5.8-14.9,13.7-16.6c16.4-3.4,43.2,10.3,49.9,25.7
		C536.3,438.7,537,442.5,537.6,446.6z M562.8,306.5c-6.1-2.6-11.8-5.9-17.5-9.3c-2-1.2-3.2-3.6-4.8-5.4c13.8-11.4,47.4,6.3,53,26.5
		C583.4,314.5,573,310.8,562.8,306.5z M533.4,226.6c-0.4-0.3-0.8-0.7-1.2-1c2.4-3.6,4.2-7.7,7.2-10.7c10.5-10.2,22.6-18.1,37.3-20.7
		c3-0.5,6.3,0.7,10.6,1.2C573.6,215.9,552.8,220,533.4,226.6z M534.6,244.1c0.3,0.3,0.5,0.5,0.8,0.8c-2.1,3.7-4.2,7.5-6.7,11.9
		c-1.3-2.2-2.3-3.9-3.7-6.4C528.3,248.3,531.4,246.2,534.6,244.1z M477.1,407.6c-12,7.6-13.9,18.2-9.2,29.6
		c4,9.9,9.8,19.1,14.9,28.6c0.5,1,1.3,1.8,3,4.1c-5.9-1.4-10.3-2.8-14.9-3.5c-15.1-2.4-25-10.8-29.4-25.5c-1.9-6.5-4-13.1-4.6-19.7
		c-0.8-8.5,3.5-13.8,11.9-16C458.2,402.6,467.4,403.9,477.1,407.6z M513.8,504.3c-5.1,3.7-9.8,7-14.3,10.3
		c-9.8-11.9-19.2-23.3-29.1-35.3C487.7,483.4,501.5,491.2,513.8,504.3z M509.1,481.4c-15.6-10.7-26.7-25.4-32.8-43.4
		c-2.4-7.2,1.5-12.8,9.6-13.6c15.5-1.6,28.6,4.4,38.5,16c5.7,6.7,9.6,15.1,14.1,22.8c3.1,5.3,6.1,10.7,8.7,16.2
		c1.8,3.8,3.1,7.9,4.9,12.8c-2.2,4.4-3.8,9.1-6.6,12.9c-3.4,4.6-8.2,5-12.6,1.2c-3.3-2.9-6.2-6.5-8.7-10.2
		C520.2,490.1,515.1,485.6,509.1,481.4z M547.7,423.3c-5.5-2.3-7-5.2-3.5-9.9c4.1-5.5,9.4-10.2,14.3-15.1c1.2-1.2,2.6-2,4-3
		c14.6-10.1,27-21.7,28.8-41c2.5,9.3,2.6,18.4,0.7,27.5c-2.7,12.7-8.1,24.2-16.7,34C567.8,424.4,556.9,427.2,547.7,423.3z
		 M572.2,429c7.6-4.9,14.2-12.4,18.5-21.6c4.2-9.1,7.5-18.5,11.5-28.4c5.3,19.3,10.4,38.3,29,51.2c-8.1,0.4-13.7,3-18.5,7.8
		c-1.2,1.2-5.1,0.9-7-0.1c-3.8-1.9-6.9-2.5-10.6,0c-3,2.1-5.4,1.1-8.4-1.1C582.3,433.6,577,431.5,572.2,429z M627.8,417
		c-14.2-17.2-20.2-36.8-15.9-59c0.2-1.1,0.7-2.2,1.1-3.2c2.1,18,12.9,29.9,26.4,40.3c6,4.6,12.1,9.6,16.8,15.5
		c5.7,7.2,5.4,10.4-4.9,13.7C642.1,427,633.8,424.2,627.8,417z M652.1,481.5c5.5-10.2,11-20.5,16.7-30.6c9-16.1,22.5-25.5,41.1-26.8
		c0.5,0,1,0,1.5,0c11.2,0.6,15.9,6.9,11.1,16.9c-4.2,8.9-9.4,17.7-15.6,25.4c-5.2,6.5-12.5,11.2-18.6,17.1c-4.5,4.4-8.4,9.3-12.7,14
		c-3,3.3-5.7,7.1-9.2,9.7c-3.7,2.8-7.8,2.1-11.2-1.5C649.4,499.3,647.9,489.3,652.1,481.5z M730.3,478.6
		c-9.6,11.9-18.9,23.4-28.7,35.7c-4.6-3.2-9.4-6.6-14.6-10.2C698.8,490.2,713,482.2,730.3,478.6z M715.1,469c3-4.6,5.8-7.9,7.6-11.7
		c3.8-8.1,7.9-16.2,10.4-24.7c2.9-9.9,0.5-18.9-10-25.3c11.6-3.3,22.1-5.3,32.5,0.2c5.2,2.7,7.4,7.7,7.1,13.4
		c-0.7,13.9-6.5,26-14.4,37.2c-0.5,0.7-1.2,1.2-1.9,1.6C737,465,726.6,466.8,715.1,469z M766.2,435.3c0.6-1.7,1.2-3.5,1.6-5.2
		c4.7-17.7-0.4-26.4-18.2-30.7c-1.6-0.4-3.1-0.9-4.7-1.3c0-0.6,0-1.2,0-1.9c11.2-1.8,22.4-3.8,33.7-5.2c2.9-0.4,6.3,0.9,9,2.2
		c5.4,2.6,7.6,6.9,5.2,12.3c-5,11.4-10.9,22.3-16.5,33.4c-1.9,3.7-4.6,7-6.3,10.7c-2.5,5.2-6.9,6.1-11.9,6.8
		C760.8,449.1,763.5,442.2,766.2,435.3z M779.8,384.1c-6.9,0-13.9,0-20.3,0c0.2-9.7-0.1-19.3,0.8-28.8c1.3-13.4,13.9-26.1,25.6-27
		c16.6-1.3,27.5,9.5,26.2,26c-1.1,13.8-6.6,26.2-12.6,39.1C793.5,387.4,787.4,384.1,779.8,384.1z M834.6,228.5
		c-7.9-4.7-16-9.3-24.5-12.9c-9.8-4.3-18.4-9.6-24.6-19.6c22.9,3.8,52.3,20.2,56.8,39.3c-0.4,0.4-0.7,0.7-1.1,1.1
		C839.1,233.6,837.4,230.2,834.6,228.5z M799.1,224.9c7.2,2.1,8.6,10.1,9.7,16.8c1.9,11.7-2.7,21.5-9.9,30.4
		c-9.3,11.5-19,22.7-28.1,34.4c-3.8,4.9-6.7,10.6-10.5,16.5c-4.7-16.4-17.8-22.9-31.6-28.4c-10.7-4.3-19.6-10.4-24.7-21.2
		c-9.5-20.2,3.4-42.8,25.7-44.9c8.7-0.8,17,0.4,23.7,6.7c3.5,3.2,5.6,6.9,4.3,12.2c3.5,0.9,4.7-0.5,5-3.4c0.8-8.2-2.7-14.5-9.7-18.2
		c-5-2.7-10.6-4.2-16.9-6.5c8.2-4.6,16.2-9.3,24.3-13.6c0.9-0.5,2.9,0.3,3.9,1.1C774.7,215.3,786.2,221.1,799.1,224.9z M813.8,100.4
		c0.3,2,0.2,4,0.2,6c-0.2,8.9-0.7,9.4-9.1,12c-10.9,3.4-18.7,10.7-24.2,20.4c-2.5,4.4-4.7,9.1-7.6,14.7c-7.2-16.5-20-24.7-35.3-30
		c-1.5-0.5-3.5-2.4-3.7-3.8c-1.2-12.9,2.3-24.1,13-32.2c4.7-3.5,10-5.8,15.8-2.8c5.7,3,7.9,8.3,8,14.5c0,4.2,0,8.4,1,12.9
		c0.7-1.6,1.1-3.2,2-4.7c3.5-6,6.6-12.4,11-17.6c4.4-5.3,10.8-8.1,18-5.4C810.1,87.1,812.7,93.3,813.8,100.4z M806.5,77.3
		c-13-3.5-22.4,2.3-31.1,12.1c-3.7-12-11-20-22.6-26.1C774.1,58.5,790.8,65.5,806.5,77.3z M741.2,67.7c0.8-0.5,1.9-0.7,2.8-0.7
		c4.3,0.2,12.5,5.1,15.3,9.1c-20,2.3-33.6,18.5-32.2,45.1c-0.4,0.2-0.9,0.5-1.3,0.5c-8.3,0.3-8.3,0.3-9.3-8.2
		C714.6,95.3,724.4,77.9,741.2,67.7z M734.1,136.8c16.3,5.1,26.3,16,29.4,33.2c1.2,6.8-1.7,11.9-6.2,15.1c-3.4,2.4-8.8,1.9-13.8,2.8
		c1.8-12.8-0.6-24-9.7-33c-9-8.9-20.1-11-33.1-9.3C707.9,136.3,721.4,132.8,734.1,136.8z M684.1,165.6c0.4,1.2,0.7,2.5,1.2,4.2
		c1.7-2.5,3.2-4.7,4.8-6.7c8.2-10.5,20.1-13.4,31.5-7.8c11.2,5.4,17.8,18.6,14.8,30.4c-0.6,2.3-2.9,4.8-5.1,5.8
		c-12,5.2-24.1,10.4-32.5,20.7c-5.5,6.8-9.3,15-13.9,22.7c-0.2-0.6-0.7-2-1-3.4c-3.7-15.5-12.8-26.6-26.8-34.2
		c-5.4-3-11-6.6-14.9-11.2c-5.9-7-7-15.5-1.8-23.6c5.5-8.7,13-14.3,24-13.1C674.5,150.2,681,155.9,684.1,165.6z M614.1,170.7
		c3.2-14.9,11.1-27,23.7-35.7c10.2-7.1,22.8-6.1,31.6,2.2c1.4,1.3,2.4,2.9,3.6,4.4c-13.7-2.1-25.2,1.1-34.5,11
		c-9.7,10.2-10.8,21.9-4.9,34.3c-5.7,0.8-11.2,1.6-17.1,2.4C613.4,183.9,612.7,177.3,614.1,170.7z M601.5,210.1
		c0.8-0.4,2-0.5,2.8-0.2c11,4.2,21.5,9.2,31.8,17.1c-16.2,1.6-26.8,9.9-33.9,23.6c-7.1-13.1-17.1-21.9-32.2-23.5
		c-0.2-0.4-0.3-0.9-0.5-1.3C580.2,220.5,590.9,215.3,601.5,210.1z M557.5,130c5.3,1.2,10.7,3.6,15.2,6.7
		c9.2,6.5,15.1,15.8,19.1,26.3c3.5,9.2,3.2,18.2-1.5,26.3c-5.8-0.9-11.4-1.8-16.9-2.7c12.9-24.7-9.8-50.7-39-44.6
		C536.6,134.8,548.7,128,557.5,130z M516.9,162.5c1.5,2.1,2.8,4.4,4.7,7.4c1.3-7.4,4.5-12.8,9.9-16.9c9.3-7.1,22-5.8,31.3,3.2
		c8.4,8.1,9.8,19.6,2.5,28.9c-3.2,4.1-7.5,7.8-12.1,10.1c-16.4,8.3-26.9,20.9-30.7,38.9c-0.1,0.6-0.6,1.2-1.2,2.5
		c-0.9-2-1.8-3.4-2.2-4.8c-4.2-15.3-14.4-25.6-27.8-33.1c-5.3-3-11.2-5.1-16.6-8.1c-2-1.1-4.2-3.3-4.9-5.4
		c-3.6-12.2,3.3-25.7,15.7-31.7C496.6,148.3,509,151.8,516.9,162.5z M498.2,138.4c2.5,1.3,4.7,3.3,6.9,5.3
		c-28-4.7-47.1,19.8-42.6,42.8c-4.8-0.5-9.1-0.6-13.3-1.4c-4.9-1-8.9-9.2-8-15.5c2.4-17,15.7-30.7,32.7-34.2
		C482.4,133.6,490.5,134.5,498.2,138.4z M476,76.5c11.9,12.4,16.4,27.4,11.8,44.6c-3.5,0-6.8,0-10.5,0c0.9-22.8-6.1-40.5-30.9-46.2
		c0.3-0.3,0.5-0.8,0.9-1C462.1,63.4,463.6,63.7,476,76.5z M452.9,62.5c-11.5,6.1-19.6,14-24,26c-8.9-8.9-18.3-15.7-31.5-12.4
		C413.4,63.7,431,57.3,452.9,62.5z M391.3,92.3c3.6-8.6,11.4-11.7,20.1-8.2c9.1,3.7,14.1,11.3,18,19.8c1.1,2.4,2.1,4.8,4.3,7.2
		c0-1.8-0.1-3.6,0-5.4c0.4-4.5,0.2-9.1,1.4-13.3c2.4-8.4,9.5-11.5,17.7-8.4c12.1,4.5,21.3,23.8,17.1,35.9c-0.4,1.1-1.4,2.4-2.4,2.7
		c-16,5.2-28.9,14.2-36.3,31.4c-1.5-3-2.4-4.8-3.2-6.6c-6.7-15.8-16.8-27.8-34.6-31.7c-1.4-0.3-3.1-2.1-3.5-3.5
		C388,105.6,388.6,98.8,391.3,92.3z M422.7,153.1c0.8,2.8,1.4,5.8,2,8.7c-12.2-17.4-28-28.9-49-32.7c-1.4-5.3-1-5.9,4.6-6.5
		C399.4,120.4,416.8,132.9,422.7,153.1z M381.9,90.3c0.3,0.2,0.6,0.3,0.9,0.5c0,8,0,15.9,0,24.3c-2.7,0.1-5.1,0.2-9.2,0.4
		C376.6,106.5,379.2,98.4,381.9,90.3z M291.8,233.4c-12.3-9.6-16.8-22.8-15-38.1c1-8.3,5.6-15,11.7-20.3
		c13.2-11.5,28.2-18.1,46.2-15.5c1.2,0.2,3.1-0.4,3.7-1.2c13.9-19.7,32.6-24.9,53.6-14.9c17,8.2,28.5,26.3,27.6,43.8
		c-2.3,0.4-4.6,0.9-7.3,1.4c-0.8-12.6-5.6-23-15-31.2c-7.5-6.5-16.1-10.7-26-11.5c-11.4-0.8-25.4,4-30.9,23.4
		c-8.5-3.5-17.3-4-26.1-1.7c-8.4,2.2-15.7,6.3-21.7,12.7c-9.6,10.1-9.4,25.4,1.6,34c6.3,4.9,14,8.1,21.5,11.2
		c8.3,3.5,17.2,5.6,23.5,12.6c1.1,1.2,2.2,2.4,3.6,4C323.9,247.7,306.9,245.2,291.8,233.4z M348.9,239.9c-6.5-11.8-17.8-17-30.1-21
		c-6-1.9-12-4.3-17.2-7.7c-11-7.1-11.9-18.9-2.2-27.7c9.1-8.3,19.9-13.5,32.4-9.8c5.4,1.6,9.9,6.4,14.8,9.7c0-0.5-0.1-2-0.2-3.5
		c-1.8-18,13.4-31.2,30.6-26.1c14.5,4.3,23.7,14.3,27.5,29c1.6,6.1,0.9,6.9-5.3,9.3c-15.7,6.1-30.5,13.8-40.2,28.2
		C354.9,226,352.4,233,348.9,239.9z M381.7,424.5c-3.1-3.4-6.3-6.7-9.3-10.1c-10.2-11.5-19.2-23.9-26-37.7
		c-5.6-11.4-6-22.9,0.9-34.5c0.3,5.1,0.3,10.2,1,15.2c1.9,12.8,8.9,23.5,15.5,34.3c5.6,9.1,11.4,18,17.1,27c0.9,1.5,1.4,3.3,2.1,4.9
		C382.6,423.9,382.1,424.2,381.7,424.5z M399.2,434.7c-13.4-20.8-26.5-41.9-39.1-63.2c-3.1-5.3-4.7-11.8-5.7-17.9
		c-3.7-21.8,15-39.9,36.7-35.9c4.5,0.8,8.8,2.2,14.5,3.7c-24.5,6.1-28,24.4-24.2,40.8c5.6,24.3,17.4,45.9,29.3,67.4
		c4,7.3,8.5,14.2,13.5,22.6C413.5,448.3,404.8,443.3,399.2,434.7z M410.7,416.7c-1.4-2.5-2.5-5.1-3.5-7.7
		c-4-10.6,1.2-18.9,12.5-18.4c9.2,0.4,18.3,2.6,27.5,4.2c2.7,0.5,5.4,1.3,9.4,2.3c-4.7,1.3-8.2,2.1-11.6,3.2
		c-12.6,3.9-17.4,11.9-14.7,24.7c1.1,5.3,2.8,10.6,4.6,15.7c1.7,5,4,9.8,6.2,15.2c-5.2-0.5-9.2-1.7-11.8-6.3
		C423.4,438.6,416.9,427.7,410.7,416.7z M433.7,466.8c-0.8-0.3-1.5-0.5-2.3-0.8c0.3-0.2,0.7-0.4,1-0.6
		C432.8,465.9,433.2,466.4,433.7,466.8c1.6,0.6,3.2,1.1,4.8,1.6c15.2,4.1,27.3,12.3,36.5,25.2c5.1,7.1,11,13.7,16.9,21
		c-7.4,0.2-13.9-0.9-18.6-5.7C459.9,495.1,446.8,480.9,433.7,466.8z M533.9,585.6c-2.2-1.9-4.8-3.5-6.5-5.8
		C514,562,500.7,544,487.3,526c6.3-1.4,11.6-1.1,15.7,5.9c7.4,12.6,15.7,24.6,23.5,36.9c3.1,5,5.6,10.4,8.4,15.7
		C534.6,584.9,534.3,585.2,533.9,585.6z M538.5,578.1c-11.1-19.1-22.6-38-34-57c3.7-3,8.3-6.6,13.4-10.7
		c14.6,23.5,25.9,48.5,35.3,74.5C542.9,586.7,543.3,586.5,538.5,578.1z M569.5,625.5c0,0.6-0.1,1.6-0.5,1.8c-4.8,2.8-9.4,6.5-14.6,8
		c-6.1,1.7-11-2.6-11.4-9.3c-0.5-9.3-0.1-18.6-0.1-28.6c8.4,0,17,0,26.6,0C569.5,606.9,569.5,616.2,569.5,625.5z M562.9,585.4
		c-1-0.1-2.6-1.1-2.9-2c-7.3-23.3-18.3-44.8-29.7-66.2c-0.1-0.1,0-0.3,0-1.5c11.3,4.7,18.4-0.6,24.2-10.4
		c5.7,27.1,11.2,53.3,16.9,80.2C569,585.5,566,585.7,562.9,585.4z M568.8,491.9c20,3.6,26.2,6.3,28.1,26.6c0.6,6.9,0.1,13.8,0.1,21
		c-8.9,0.2-16.1-2.6-21.8-8.8c-0.8-0.9-1.6-2.3-1.7-3.5c-0.6-5.9-0.7-11.9-1.4-17.9C571.3,503.5,569.9,497.7,568.8,491.9z
		 M572.9,541.5c0.1-0.7,0.2-1.5,0.3-2.1c7.8,2.7,15.6,5.4,24.1,8.3c0,12.1,0,24.7,0,37.6c-5.4,0-10.5,0-15.6,0
		c-1.2-2.8-2.4-5.8-3.4-8.8c-2.7-8-4.5-16.6-5.2-24.1c0-0.3-0.1-0.7-0.1-1c-0.1-1.7-0.2-3.4-0.3-4.9
		C572.7,544.6,572.8,543,572.9,541.5z M597.8,629.3c-0.1,4.9-7.1,9.9-12.8,9.7c1.2-8.5,1.1-8.5-9-11.1c0-9.8,0-19.8,0-30.3
		c7,0,14.2,0,21.9,0C597.9,608.1,598.1,618.7,597.8,629.3z M600.4,499.5c-5.2-10-10.6-19.5-15.3-29.4c-4.6-9.6-2.3-16.7,5.9-21.3
		c8.6-4.8,19.2-2.7,24.6,4.8c2.7,3.8,3.1,8.1,1.5,12.4c-1.5,4.2-3.4,8.3-5.5,12.3C608.1,485.3,604.3,492.3,600.4,499.5z
		 M606.9,506.3c2.5-5.9,6.7-9.8,12.8-11.7c3.5-1,7-2.1,10.9-3.2c-1.1,8.7-2.2,16.9-3.3,25.1c-0.2,1.3-0.3,2.6-0.4,4
		c-0.8,12.3-10.4,20.1-23.6,18.7C603.4,528.1,602.4,517,606.9,506.3z M625.4,628.2c-4.4,1.3-8.2,3.3-7.8,9.1c0,0.7-1.9,2.1-3,2.1
		c-4.7,0.1-10.6-4.8-10.7-9.5c-0.3-10.7-0.1-21.5-0.1-32.6c7.2,0,14.1,0,21.6,0C625.4,607.8,625.4,617.9,625.4,628.2z M625.8,564.5
		c-1,6-3,11.9-5,17.7c-0.5,1.3-2.5,2.9-3.9,3c-4.1,0.4-8.3,0.1-12.9,0.1c0-13,0-25.7,0-37.8c7.8-2.8,15.5-5.6,24.7-8.9
		C627.7,547.5,627.2,556.1,625.8,564.5z M630.5,585.1c5.3-26.2,10.5-52.2,15.9-78.8c5.8,8.6,12.7,14.6,24.7,9.2
		c-3.9,7.9-7.5,14.5-10.6,21.4c-6,13.3-11.8,26.7-17.3,40.3C639.6,585.9,639.9,586,630.5,585.1z M657.8,627.5c-0.7,7.3-8,9-14,4.6
		c-3.4-2.4-7.5-3.9-11.8-6.1c0-8.8,0-18.5,0-28.8c8.9,0,17.6,0,26.1,0C658.1,607.4,658.9,617.5,657.8,627.5z M662,579.6
		c-1.9,4.5-4.3,6.7-9.2,5.9c-1.4-0.2-3,0-5.2,0c9.7-26.5,20.5-51.8,35.2-75.6c5.2,4.1,9.8,7.8,14.2,11.2
		c-8.4,13.2-17.1,26.7-25.5,40.4C667.9,567.4,664.6,573.4,662,579.6z M667.9,585.4c-0.5-0.3-0.9-0.6-1.4-0.9c0.7-1.6,1.3-3.2,2-4.7
		c8.9-18.9,20.5-36.1,32.9-52.8c0.6-0.9,2-1.7,3.1-1.7c2.8,0,5.6,0.4,8.4,0.7c0.2,0.4,0.5,0.9,0.7,1.3
		C694.9,544.1,685.7,568.1,667.9,585.4z M762.5,473.6c-10.7,10.5-21.3,21.1-31.8,31.7c-5.9,5.9-12.6,9.7-22.4,9.3
		c9.2-11.3,17.3-22.3,26.7-32.2c4.5-4.7,11.1-7.6,17.1-10.6c5.4-2.7,11.4-4.3,17.1-6.3c0.5,0.6,1,1.2,1.5,1.7
		C767.9,469.3,764.9,471.2,762.5,473.6z M851.7,342.6c0.5-0.1,1-0.2,1.6-0.3c1.2,3.7,2.8,7.4,3.5,11.2c1.6,9.1-0.8,17.5-5.1,25.5
		c-8.8,16.4-20.4,30.8-32.9,44.4c-0.5,0.6-1.3,0.9-2,1.3c-0.5-0.3-0.9-0.6-1.4-0.9c1.1-2.3,2.1-4.6,3.5-6.8
		c5.9-9.5,11.9-18.8,17.9-28.3C845.6,374.7,853.3,360.2,851.7,342.6z M843.3,360.7c-2.4,6.8-5.7,13.5-9.4,19.7
		c-11.1,18.2-22.3,36.2-34.1,54c-5.5,8.3-13.7,13.8-24.7,17.5c4.6-7.6,8.7-13.9,12.4-20.3c11.4-20.1,22.5-40.4,28.9-62.8
		c2-7,2.9-14.8,2.4-22.1c-0.7-10.8-7-18.4-17.4-22.2c-2-0.7-4-1.4-6.9-2.5c11.1-3.5,21.2-6,31.6-2.1
		C841.5,325.7,849.2,343.6,843.3,360.7z M833.5,209.8c-9.4-7.9-20.3-13.3-31.8-17.3c-2.7-0.9-4.1-2.1-3.8-5.3
		c1.3-14.8,14.9-30.1,29.4-32.9c14.2-2.7,26.3,6.4,27.6,20.8c0.3,3.1,0,6.3,0,11c1.7-2.3,2.5-3.3,3.3-4.3c4.6-6,10.6-9,18.2-8.3
		c9.9,0.9,18.7,4.6,25.7,11.9c7.4,7.6,7.4,17.9-1.1,24.4c-5.4,4.2-11.9,7.2-18.3,9.6c-16.8,6.2-19.1,7.4-30.7,21
		C849.5,227.8,843.1,217.8,833.5,209.8z M874.5,230.4c6-2.4,12.3-4.2,18.1-7c5-2.4,10.2-5.2,14.3-8.9c10.7-10,10.1-24.8-0.7-34.7
		c-13.1-11.9-27.7-15.1-43.7-10c-3.9-5.6-6.9-11.9-11.6-16.2c-8.8-8.1-19.7-8.4-30.4-4.3c-15.9,6.1-25.9,17.6-28.8,34.7
		c-0.3,1.8-0.7,3.5-1.1,5.6c-2.3-0.4-4.4-0.8-6.8-1.2c-0.4-13.4,4.2-24.9,13.8-34c13-12.4,28.3-18,46.2-12.7
		c8.4,2.4,14.8,7.7,18.3,15.8c1.3,2.9,2.8,3.4,5.7,3.1c16.2-1.9,30.1,3.8,42.5,13.7c24.3,19.4,13.1,51.1-4.4,62.4
		c-14.5,9.3-29.9,10.9-46.7,6.3C863,236.8,868.3,232.9,874.5,230.4z"/>
	<path opacity="0.51" fill="none" stroke="#EF3835" stroke-miterlimit="10" d="M962.8,231.4C960.9,145,906.6,66.2,823.3,39
		c-38.9-12.7-81-14-120.4-2.7C683,42.1,664,51,646.6,62.2c-8.3,5.4-15.3,10.8-22.5,17.6c-3.6,3.4-15,17.9-18.8,18.4
		c-0.9,0.1-1.7,0.2-2.6,0.4c-1.1-1.8-2-3.9-3.4-5.5C557.4,48.5,494.9,24.8,434.1,27c-60.4,2.1-118.3,32.2-155.6,79.6
		c-24.7,31.4-38.3,69.8-40.9,109.5c-4.3,66.6,22,123.5,57,178.1c15.4,24,35.8,43.7,56.5,63c31,28.9,62,57.7,92.2,87.4
		c23.6,23.2,55.2,46.6,62.4,81c4.6,22,7.8,44.2,10.9,66.4c2.8,20.4,2.6,45.1,9.4,64.5c6.2,17.7,25.4,14.3,41.6,14.7
		c24.1,0.6,48.2,1.3,72.3,1.9c6.7,0.2,13.5,0.3,20-1.6c23.2-6.9,20.9-53,24.2-72.8c4.7-28.2,9.3-56.4,14-84.7
		c2.4-14.2,18-31.6,27.3-42.4c28.1-32.6,62.2-58.2,93.9-87.1c10.2-9.3,19.8-19.2,29.8-28.8c27.8-26.7,52.9-53.7,72.9-87
		C947.3,326.5,963.9,281.5,962.8,231.4z"/>
</g>
</svg>
