<?xml version="1.0" encoding="utf-8"?>
<!-- Generator: Adobe Illustrator 28.1.0, SVG Export Plug-In . SVG Version: 6.00 Build 0)  -->
<svg version="1.1" id="Layer_1" xmlns="http://www.w3.org/2000/svg" xmlns:xlink="http://www.w3.org/1999/xlink" x="0px" y="0px"
	 viewBox="0 0 1200 800" enable-background="new 0 0 1200 800" xml:space="preserve"><metadata><c2pa:manifest xmlns:c2pa="http://c2pa.org/manifest">AAAsaGp1bWIAAAAeanVtZGMycGEAEQAQgAAAqgA4m3EDYzJwYQAAACxCanVtYgAAAEdqdW1kYzJtYQARABCAAACqADibcQN1cm46dXVpZDpmOGNiNDdjOC01YzlkLTQwNTQtOWMzNi1iM2QxZWU3ODIxZjcAAAABqGp1bWIAAAApanVtZGMyYXMAEQAQgAAAqgA4m3EDYzJwYS5hc3NlcnRpb25zAAAAAMpqdW1iAAAAJmp1bWRjYm9yABEAEIAAAKoAOJtxA2MycGEuYWN0aW9ucwAAAACcY2JvcqFnYWN0aW9uc4GjZmFjdGlvbmtjMnBhLmVkaXRlZG1zb2Z0d2FyZUFnZW50bUFkb2JlIEZpcmVmbHlxZGlnaXRhbFNvdXJjZVR5cGV4Rmh0dHA6Ly9jdi5pcHRjLm9yZy9uZXdzY29kZXMvZGlnaXRhbHNvdXJjZXR5cGUvdHJhaW5lZEFsZ29yaXRobWljTWVkaWEAAACtanVtYgAAAChqdW1kY2JvcgARABCAAACqADibcQNjMnBhLmhhc2guZGF0YQAAAAB9Y2JvcqVqZXhjbHVzaW9uc4GiZXN0YXJ0GQGZZmxlbmd0aBk7OGRuYW1lbmp1bWJmIG1hbmlmZXN0Y2FsZ2ZzaGEyNTZkaGFzaFggxO/ATCjKCan7xVofwUIUe348agnJiEhnrUVAKUD7ip1jcGFkSQAAAAAAAAAAAAAAAgtqdW1iAAAAJGp1bWRjMmNsABEAEIAAAKoAOJtxA2MycGEuY2xhaW0AAAAB32Nib3KoaGRjOnRpdGxlb0dlbmVyYXRlZCBJbWFnZWlkYzpmb3JtYXRtaW1hZ2Uvc3ZnK3htbGppbnN0YW5jZUlEeCx4bXA6aWlkOmE3NmQ3YThlLTg4YjUtNDZhMi05YzY3LTEwMzgwMzM3NjY4OG9jbGFpbV9nZW5lcmF0b3J4NkFkb2JlX0lsbHVzdHJhdG9yLzI4LjEgYWRvYmVfYzJwYS8wLjcuNiBjMnBhLXJzLzAuMjUuMnRjbGFpbV9nZW5lcmF0b3JfaW5mb4G/ZG5hbWVxQWRvYmUgSWxsdXN0cmF0b3JndmVyc2lvbmQyOC4x/2lzaWduYXR1cmV4GXNlbGYjanVtYmY9YzJwYS5zaWduYXR1cmVqYXNzZXJ0aW9uc4KiY3VybHgnc2VsZiNqdW1iZj1jMnBhLmFzc2VydGlvbnMvYzJwYS5hY3Rpb25zZGhhc2hYIOusZuFqg598YJzpOfX+1iNBgqddK8SSEhBG9CJk0CvBomN1cmx4KXNlbGYjanVtYmY9YzJwYS5hc3NlcnRpb25zL2MycGEuaGFzaC5kYXRhZGhhc2hYINMtB/zZb1tNY81VtoHVdY0zsbRlp/ReVb8zGucC4nMXY2FsZ2ZzaGEyNTYAAChAanVtYgAAAChqdW1kYzJjcwARABCAAACqADibcQNjMnBhLnNpZ25hdHVyZQAAACgQY2JvctKERKEBOCSjZnNpZ1RzdKFpdHN0VG9rZW5zgaFjdmFsWQ41MIIOMTADAgEAMIIOKAYJKoZIhvcNAQcCoIIOGTCCDhUCAQMxDzANBglghkgBZQMEAgEFADCBgQYLKoZIhvcNAQkQAQSgcgRwMG4CAQEGCWCGSAGG/WwHATAxMA0GCWCGSAFlAwQCAQUABCCOIyLvAZdE/zw9a2CJRbC+qaB4kRpVjiqvQV0mJ6lBMgIQBHrAxsiHhMUHDG0qqwXE9hgPMjAyNDAxMTMwMzUxMDBaAghbyIi/X6AG7aCCC70wggUHMIIC76ADAgECAhAFHp6R1x6RCrvkPVzt0N3ZMA0GCSqGSIb3DQEBCwUAMGMxCzAJBgNVBAYTAlVTMRcwFQYDVQQKEw5EaWdpQ2VydCwgSW5jLjE7MDkGA1UEAxMyRGlnaUNlcnQgVHJ1c3RlZCBHNCBSU0E0MDk2IFNIQTI1NiBUaW1lU3RhbXBpbmcgQ0EwHhcNMjMwOTA4MDAwMDAwWhcNMzQxMjA3MjM1OTU5WjBYMQswCQYDVQQGEwJVUzEXMBUGA1UEChMORGlnaUNlcnQsIEluYy4xMDAuBgNVBAMTJ0RpZ2lDZXJ0IEFkb2JlIEFBVEwgVGltZXN0YW1wIFJlc3BvbmRlcjBZMBMGByqGSM49AgEGCCqGSM49AwEHA0IABE0srlH5A/+15/MFl1asNh8Q8TubOsEVfu0qlJrF0smjtwL1IeHZ/AB7J59u1Trpho1BDN85lfTY30rNBsfT+myjggGLMIIBhzAOBgNVHQ8BAf8EBAMCB4AwDAYDVR0TAQH/BAIwADAWBgNVHSUBAf8EDDAKBggrBgEFBQcDCDAgBgNVHSAEGTAXMAgGBmeBDAEEAjALBglghkgBhv1sBwEwHwYDVR0jBBgwFoAUuhbZbU2FL3MpdpovdYxqII+eyG8wHQYDVR0OBBYEFLA1qlbDIamLztO4vIsWJVed7zThMFoGA1UdHwRTMFEwT6BNoEuGSWh0dHA6Ly9jcmwzLmRpZ2ljZXJ0LmNvbS9EaWdpQ2VydFRydXN0ZWRHNFJTQTQwOTZTSEEyNTZUaW1lU3RhbXBpbmdDQS5jcmwwgZAGCCsGAQUFBwEBBIGDMIGAMCQGCCsGAQUFBzABhhhodHRwOi8vb2NzcC5kaWdpY2VydC5jb20wWAYIKwYBBQUHMAKGTGh0dHA6Ly9jYWNlcnRzLmRpZ2ljZXJ0LmNvbS9EaWdpQ2VydFRydXN0ZWRHNFJTQTQwOTZTSEEyNTZUaW1lU3RhbXBpbmdDQS5jcnQwDQYJKoZIhvcNAQELBQADggIBAHgrjELHhBCEWJSCyRX7lsL0C9LJgbX1ryVYySNRxHkMR2LqC7PQZRJgDNR+kJop8P5v2Bzp/jMrzw4U4pY6rYv3I8HpFlJa4uBwUTIUgHWpi8Xxd1JEEX94POODi7HySekX60A055BozFb7GGVaxb0LreQTRXnkr6ggPNUPX9Gh+2ScOxlTdQQLgZbkdYvxo3Ap6cy9riZijRxOZqiOyWSxMUhgKxeKzwrFW6Xbe0awNhOUXZzIxc4ixpKzWSItpPJ30ZiBQn49U3ADYTnshbN9ZkTA1pHf/Nov2ZUvvddkZ8UYvwo9vBvLTDvnmABnRMBKaXYAs3ZCvw9CkDPOWTeUJMFRAtmUx52ohaA3nD8bCJ6UfpQ2pFfOdShwpb6GKv0g+BgcdIG2LHPJ0Ufmr+XmpgZgq/HIge0hjcCADpjDgq2z4B0L4xtAA1M8MrUx02hxb7104nFKqMuv5zJTQl3sgwqXUyP+9zHQP9y/Z5Fx/AQWrOXCW56dV7P4cFBJl8zHqinlhkOStZ1m22+9Hlq+eC0hJ2lkF1LuzRdJJb/51LXoPKRnopFDng6XpoD7eG6w4YpAx9+P00JuUoBsYSrdsuFiyWyQQGBAnjI69ggbSLcW+hJytuinaxawVlItJkS2eV5Z4XsxPg7f82uRkdtN0hTHeI93CN3OWeRebnK7MIIGrjCCBJagAwIBAgIQBzY3tyRUfNhHrP0oZipeWzANBgkqhkiG9w0BAQsFADBiMQswCQYDVQQGEwJVUzEVMBMGA1UEChMMRGlnaUNlcnQgSW5jMRkwFwYDVQQLExB3d3cuZGlnaWNlcnQuY29tMSEwHwYDVQQDExhEaWdpQ2VydCBUcnVzdGVkIFJvb3QgRzQwHhcNMjIwMzIzMDAwMDAwWhcNMzcwMzIyMjM1OTU5WjBjMQswCQYDVQQGEwJVUzEXMBUGA1UEChMORGlnaUNlcnQsIEluYy4xOzA5BgNVBAMTMkRpZ2lDZXJ0IFRydXN0ZWQgRzQgUlNBNDA5NiBTSEEyNTYgVGltZVN0YW1waW5nIENBMIICIjANBgkqhkiG9w0BAQEFAAOCAg8AMIICCgKCAgEAxoY1BkmzwT1ySVFVxyUDxPKRN6mXUaHW0oPRnkyibaCwzIP5WvYRoUQVQl+kiPNo+n3znIkLf50fng8zH1ATCyZzlm34V6gCff1DtITaEfFzsbPuK4CEiiIY3+vaPcQXf6sZKz5C3GeO6lE98NZW1OcoLevTsbV15x8GZY2UKdPZ7Gnf2ZCHRgB720RBidx8ald68Dd5n12sy+iEZLRS8nZH92GDGd1ftFQLIWhuNyG7QKxfst5Kfc71ORJn7w6lY2zkpsUdzTYNXNXmG6jBZHRAp8ByxbpOH7G1WE15/tePc5OsLDnipUjW8LAxE6lXKZYnLvWHpo9OdhVVJnCYJn+gGkcgQ+NDY4B7dW4nJZCYOjgRs/b2nuY7W+yB3iIU2YIqx5K/oN7jPqJz+ucfWmyU8lKVEStYdEAoq3NDzt9KoRxrOMUp88qqlnNCaJ+2RrOdOqPVA+C/8KI8ykLcGEh/FDTP0kyr75s9/g64ZCr6dSgkQe1CvwWcZklSUPRR8zZJTYsg0ixXNXkrqPNFYLwjjVj33GHek/45wPmyMKVM1+mYSlg+0wOI/rOP015LdhJRk8mMDDtbiiKowSYI+RQQEgN9XyO7ZONj4KbhPvbCdLI/Hgl27KtdRnXiYKNYCQEoAA6EVO7O6V3IXjASvUaetdN2udIOa5kM0jO0zbECAwEAAaOCAV0wggFZMBIGA1UdEwEB/wQIMAYBAf8CAQAwHQYDVR0OBBYEFLoW2W1NhS9zKXaaL3WMaiCPnshvMB8GA1UdIwQYMBaAFOzX44LScV1kTN8uZz/nupiuHA9PMA4GA1UdDwEB/wQEAwIBhjATBgNVHSUEDDAKBggrBgEFBQcDCDB3BggrBgEFBQcBAQRrMGkwJAYIKwYBBQUHMAGGGGh0dHA6Ly9vY3NwLmRpZ2ljZXJ0LmNvbTBBBggrBgEFBQcwAoY1aHR0cDovL2NhY2VydHMuZGlnaWNlcnQuY29tL0RpZ2lDZXJ0VHJ1c3RlZFJvb3RHNC5jcnQwQwYDVR0fBDwwOjA4oDagNIYyaHR0cDovL2NybDMuZGlnaWNlcnQuY29tL0RpZ2lDZXJ0VHJ1c3RlZFJvb3RHNC5jcmwwIAYDVR0gBBkwFzAIBgZngQwBBAIwCwYJYIZIAYb9bAcBMA0GCSqGSIb3DQEBCwUAA4ICAQB9WY7Ak7ZvmKlEIgF+ZtbYIULhsBguEE0TzzBTzr8Y+8dQXeJLKftwig2qKWn8acHPHQfpPmDI2AvlXFvXbYf6hCAlNDFnzbYSlm/EUExiHQwIgqgWvalWzxVzjQEiJc6VaT9Hd/tydBTX/6tPiix6q4XNQ1/tYLaqT5Fmniye4Iqs5f2MvGQmh2ySvZ180HAKfO+ovHVPulr3qRCyXen/KFSJ8NWKcXZl2szwcqMj+sAngkSumScbqyQeJsG33irr9p6xeZmBo1aGqwpFyd/EjaDnmPv7pp1yr8THwcFqcdnGE4AJxLafzYeHJLtPo0m5d2aR8XKc6UsCUqc3fpNTrDsdCEkPlM05et3/JWOZJyw9P2un8WbDQc1PtkCbISFA0LcTJM3cHXg65J6t5TRxktcma+Q4c6umAU+9Pzt4rUyt+8SVe+0KXzM5h0F4ejjpnOHdI/0dKNPH+ejxmF/7K9h+8kaddSweJywm228Vex4Ziza4k9Tm8heZWcpw8De/mADfIBZPJ/tgZxahZrrdVcA6KYawmKAr7ZVBtzrVFZgxtGIJDwq9gdkT/r+k0fNX2bwE+oLeMt8EifAAzV3C+dAjfwAL5HYCJtnwZXZCpimHCUcr5n8apIUP/JiW9lVUKx+A+sDyDivl1vupL0QVSucTDh3bNzgaoSv27dZ8/DGCAbgwggG0AgEBMHcwYzELMAkGA1UEBhMCVVMxFzAVBgNVBAoTDkRpZ2lDZXJ0LCBJbmMuMTswOQYDVQQDEzJEaWdpQ2VydCBUcnVzdGVkIEc0IFJTQTQwOTYgU0hBMjU2IFRpbWVTdGFtcGluZyBDQQIQBR6ekdcekQq75D1c7dDd2TANBglghkgBZQMEAgEFAKCB0TAaBgkqhkiG9w0BCQMxDQYLKoZIhvcNAQkQAQQwHAYJKoZIhvcNAQkFMQ8XDTI0MDExMzAzNTEwMFowKwYLKoZIhvcNAQkQAgwxHDAaMBgwFgQU2Rq5M/4XremCHqYT9aQ6cU4+fn0wLwYJKoZIhvcNAQkEMSIEIEwg84UYutt5mSvBDlfYe97s797hVN/O8UflVunKx0yZMDcGCyqGSIb3DQEJEAIvMSgwJjAkMCIEIILa8ZSVezaEAkWP1ScAaf5ixxRW+p4Lhqv4J+hTICfZMAoGCCqGSM49BAMCBEcwRQIhALosdcWNL9fhPQzBWUByIKF7YOyxzpuzlzozpU48v1AEAiAXtamd3sfKcqPTCAt91e/BMCWhVNepxqgtW1EZ1CiF6md4NWNoYWluglkGMzCCBi8wggQXoAMCAQICEBtbCzvasORd8vMNnlTR2tIwDQYJKoZIhvcNAQELBQAwdTELMAkGA1UEBhMCVVMxIzAhBgNVBAoTGkFkb2JlIFN5c3RlbXMgSW5jb3Jwb3JhdGVkMR0wGwYDVQQLExRBZG9iZSBUcnVzdCBTZXJ2aWNlczEiMCAGA1UEAxMZQWRvYmUgUHJvZHVjdCBTZXJ2aWNlcyBHMzAeFw0yMzAyMDEwMDAwMDBaFw0yNDAyMDEyMzU5NTlaMIGhMREwDwYDVQQDDAhjYWktcHJvZDEcMBoGA1UECwwTQ29udGVudCBDcmVkZW50aWFsczETMBEGA1UECgwKQWRvYmUgSW5jLjERMA8GA1UEBwwIU2FuIEpvc2UxEzARBgNVBAgMCkNhbGlmb3JuaWExCzAJBgNVBAYTAlVTMSQwIgYJKoZIhvcNAQkBFhVncnAtY2FpLW9wc0BhZG9iZS5jb20wggEiMA0GCSqGSIb3DQEBAQUAA4IBDwAwggEKAoIBAQDv0wCnfYY9lkHDsykrTG7FYlnYHBcyualuD5u9ULjzv+FsTWOLg8Nhrz9RTxI9EeBbu3Wm7f4vqPsQYfxkEp0wIa6DVmEOZhbAeRfbhybWQ/D4Wvvck4mEZR+QZmTpIn7HX61gbtMFHlJUxkYBctIoAt9TBAFbz9d5Ig2WG0bsH39b6/8USXnIIk4FB6dtBRT1xeEwSDtwOd1YBpXXNBJmRWHXNJZZ85of2tBTesg/kMvTrOJJxYDZ97U416wcvbVomlees+NXUY3/ZB4xH+NsZils7m1bL2v2hSnHiLoqZeUKklbHUmT4ZpjrZCdtuIsWm5j2PPXKr7HKUuCbZSXBAgMBAAWjggGMMIIBiDAMBgNVHRMBAf8EAjAAMA4GA1UdDwEB/wQEAwIHgDAeBgNVHSUEFzAVBgkqhkiG9y8BAQwGCCsGAQUFBwMEMIGOBgNVHSAEgYYwgYMwgYAGCSqGSIb3LwECAzBzMHEGCCsGAQUFBwICMGUMY1lvdSBhcmUgbm90IHBlcm1pdHRlZCB0byB1c2UgdGhpcyBMaWNlbnNlIENlcnRpZmljYXRlIGV4Y2VwdCBhcyBwZXJtaXR0ZWQgYnkgdGhlIGxpY2Vuc2UgYWdyZWVtZW50LjBdBgNVHR8EVjBUMFKgUKBOhkxodHRwOi8vcGtpLWNybC5zeW1hdXRoLmNvbS9jYV83YTVjM2EwYzczMTE3NDA2YWRkMTkzMTJiYzFiYzIzZi9MYXRlc3RDUkwuY3JsMDcGCCsGAQUFBwEBBCswKTAnBggrBgEFBQcwAYYbaHR0cDovL3BraS1vY3NwLnN5bWF1dGguY29tMB8GA1UdIwQYMBaAFFcpejJNzP7kNU7AHyRzznNTq99qMA0GCSqGSIb3DQEBCwUAA4ICAQBXjlGa3yAK/Gijn6n/JNU9FZm72MP6vc5czrWe9y0T+EawuRvhpD5Edi1TnXkrpe8sMkgSjTGdbY+yGhq8zlCWQeXN1/aWo3L9Xr1uNxY/oVpLn0uWWfnfJ7yR9gKl/yoMfhjydT4t1fXHi/MhfhrWSVRHqX2U31UFGz/e298P2kv+vqhzpIUo1bj+jibtoPLMMQcCOTtKiJOTh4o3VSZpwQDERCzo91NkF+LnZjwYl6fE5USIkg/oCoomXxSPpowybDrcRJ9ilbtJcER48/LGgwzv/c7OYdron4PnEXm1FkOaVj+QRf7OwiNTizonhIzLR5Vfp0QHOWv/bPzvCjPQd+Xr0Q4032WlSxQwostNTAPtoVAU4OCwVH3Ech38emJ00/6fkDCdr7MN8/4n2LSNrMUvaBEZdmLqDCBnO02dbFrmpg3pTc0FqRQ4GL/88pjRNSMy5tU9SoQnSCGYqIsjfL8AzgPEGiXXRgABYc1uXecf4/eayb3K2MPs7hnWTbUKpHHJIwxpdN3vTGdZNWpz9Oxfuo3eELQlkTvACHgqkaXi/FAanHe5PChn6fr1/4cNF8goD0buPApgS3zzwqjRhxrH8ISwPfJn8JqzurMaLDMnnc18tHzUiMtX73jf6oXh7voCxX/T4D3nFPlxU3om2cpcLQ1Wd4026x18rlSGR1kGpTCCBqEwggSJoAMCAQICEAyotlR7iebSBol1zYubieIwDQYJKoZIhvcNAQELBQAwbDELMAkGA1UEBhMCVVMxIzAhBgNVBAoTGkFkb2JlIFN5c3RlbXMgSW5jb3Jwb3JhdGVkMR0wGwYDVQQLExRBZG9iZSBUcnVzdCBTZXJ2aWNlczEZMBcGA1UEAxMQQWRvYmUgUm9vdCBDQSBHMjAeFw0xNjExMjkwMDAwMDBaFw00MTExMjgyMzU5NTlaMHUxCzAJBgNVBAYTAlVTMSMwIQYDVQQKExpBZG9iZSBTeXN0ZW1zIEluY29ycG9yYXRlZDEdMBsGA1UECxMUQWRvYmUgVHJ1c3QgU2VydmljZXMxIjAgBgNVBAMTGUFkb2JlIFByb2R1Y3QgU2VydmljZXMgRzMwggIiMA0GCSqGSIb3DQEBAQUAA4ICDwAwggIKAoICAQC3Hy69vQmzXEhs/gyDrmwB6lF4JaSAPomnsbKIZNr2iXaB+fkd85X8eJiNmI7P5O4cVT4Nc1p3zrESqBV4ZUyW8gcZ78QdwoHG8QNd2VNcHnMgSR+XT9Iafsnq9Nfww3Jt9KL3l5ANQ5n1+MJqr48EWNLll942bOL/JH4ywDSMoqhZqtJEIUUUGlQVBZ8CAvJc7LE6ddA5C52PE2Ppa7RfQgHXf4gfXVZwpxYRZcziPiOHqEvLb0J3cShUbejFxV6cwX8QyAPa1ePHg1RtM0HX+D34xHo3DkyGnmT+Ddq00TEDGG26AL5PdINKFIQl+zaq6KJFQe1fdGE5wrWzU4mBPmzaz3EbLn+7FWlwAhorYqIMldbfHE3ydc+aTU1JW7+bG19qmvhO9IluGtTtQDeqFBj2fg6faxsfVfVPD7stN6TwoIDlkOCE4RE+Iin8m3z3eqi/VsTmsmRqBxWDRaqOHz02EJoEDxXJG3ei+UbIIp01XZQvdufm90WxOTuqqan2ZqTPX9K5VdjEh/ovr7xFc5q1dZo+Sa5y4sTVM854/tLU3klOgUKzzSXYPYS3GhBcYJHjwr9xNRHnNX99D6F0g7OijScWfvtjxh13aTv/H0ETvymah4yfDpVdh9cK5YSCPqnuOlsujFAyhYwJXOWDvZZU2EkWVLDhoPx9zp7N4QIDAQABo4IBNDCCATAwEgYDVR0TAQH/BAgwBgEB/wIBADA1BgNVHR8ELjAsMCqgKKAmhiRodHRwOi8vY3JsLmFkb2JlLmNvbS9hZG9iZXJvb3RnMi5jcmwwDgYDVR0PAQH/BAQDAgEGMBQGA1UdJQQNMAsGCSqGSIb3LwEBBzBXBgNVHSAEUDBOMEwGCSqGSIb3LwECAzA/MD0GCCsGAQUFBwIBFjFodHRwczovL3d3dy5hZG9iZS5jb20vbWlzYy9wa2kvcHJvZF9zdmNlX2Nwcy5odG1sMCQGA1UdEQQdMBukGTAXMRUwEwYDVQQDEwxTWU1DLTQwOTYtMzMwHQYDVR0OBBYEFFcpejJNzP7kNU7AHyRzznNTq99qMB8GA1UdIwQYMBaAFKYc4W1UJEyoj0hyv26pjNXk7DHUMA0GCSqGSIb3DQEBCwUAA4ICAQBxzuUHjKbcLdzI4DtlXgCSgZXrlSAkr59pOF3JfPG42qVNAGU7JcEYXJ6+WbfcGwY7WYMl+jO7IvJPb7shXFYW9bnJgxX7lLU14KExchmcLNY1ee6IhBJ2Y8PzZMRUKSd5CkURPg0PBLGjz/KR/DofHx+G4rPTCOGORYxeYrd01lci5hVxvKccvIk7MD69ZTewfZPSM+0WnsU3f0Zmd7hgbRpUyWceG0eHFpdUKK/ZFWhHjDVC28odCnN885tHncKXviItK0ZUUo/AIthFKlhEXsnq9VL9fFbgvO83ZvpUQo5y8mY3cuGnEVGXdhjNb53CfC1u4dbpYmWaN99subUzEsUaUb3loLPfVfzDOpg2y9v37kBdy/wuXr20teY7U62xj/fAgs1QSnhUtlMTfCqbefyEycKVmKIrJkJLsvgTSYKVvH4FFIwfd5WjqOC97jX98rcVAzhAI0iSkazsWOMvL6m0L4nLJapx+85GsVX8Y6AHmEP4bmCElwil6KAP+UewJFiw5rmwV2pESHAhYuZJa03B8tl0nd2QJzvJGmbeBqXqpF9ORinFM3HErK8puRokOjFH2+1asLeI2tB31W/ELdNe27Ogduq6Z6qBwCp59YX27qydDhD0WRfN64kCs25K88iGAGNW2CAfTDS+b+WYJBiIL9jXYZ4LF+BiUvfdu2NwYWRZC74AAAAAAAAAAAAAAAAAAAAAAAAAAAAAAAAAAAAAAAAAAAAAAAAAAAAAAAAAAAAAAAAAAAAAAAAAAAAAAAAAAAAAAAAAAAAAAAAAAAAAAAAAAAAAAAAAAAAAAAAAAAAAAAAAAAAAAAAAAAAAAAAAAAAAAAAAAAAAAAAAAAAAAAAAAAAAAAAAAAAAAAAAAAAAAAAAAAAAAAAAAAAAAAAAAAAAAAAAAAAAAAAAAAAAAAAAAAAAAAAAAAAAAAAAAAAAAAAAAAAAAAAAAAAAAAAAAAAAAAAAAAAAAAAAAAAAAAAAAAAAAAAAAAAAAAAAAAAAAAAAAAAAAAAAAAAAAAAAAAAAAAAAAAAAAAAAAAAAAAAAAAAAAAAAAAAAAAAAAAAAAAAAAAAAAAAAAAAAAAAAAAAAAAAAAAAAAAAAAAAAAAAAAAAAAAAAAAAAAAAAAAAAAAAAAAAAAAAAAAAAAAAAAAAAAAAAAAAAAAAAAAAAAAAAAAAAAAAAAAAAAAAAAAAAAAAAAAAAAAAAAAAAAAAAAAAAAAAAAAAAAAAAAAAAAAAAAAAAAAAAAAAAAAAAAAAAAAAAAAAAAAAAAAAAAAAAAAAAAAAAAAAAAAAAAAAAAAAAAAAAAAAAAAAAAAAAAAAAAAAAAAAAAAAAAAAAAAAAAAAAAAAAAAAAAAAAAAAAAAAAAAAAAAAAAAAAAAAAAAAAAAAAAAAAAAAAAAAAAAAAAAAAAAAAAAAAAAAAAAAAAAAAAAAAAAAAAAAAAAAAAAAAAAAAAAAAAAAAAAAAAAAAAAAAAAAAAAAAAAAAAAAAAAAAAAAAAAAAAAAAAAAAAAAAAAAAAAAAAAAAAAAAAAAAAAAAAAAAAAAAAAAAAAAAAAAAAAAAAAAAAAAAAAAAAAAAAAAAAAAAAAAAAAAAAAAAAAAAAAAAAAAAAAAAAAAAAAAAAAAAAAAAAAAAAAAAAAAAAAAAAAAAAAAAAAAAAAAAAAAAAAAAAAAAAAAAAAAAAAAAAAAAAAAAAAAAAAAAAAAAAAAAAAAAAAAAAAAAAAAAAAAAAAAAAAAAAAAAAAAAAAAAAAAAAAAAAAAAAAAAAAAAAAAAAAAAAAAAAAAAAAAAAAAAAAAAAAAAAAAAAAAAAAAAAAAAAAAAAAAAAAAAAAAAAAAAAAAAAAAAAAAAAAAAAAAAAAAAAAAAAAAAAAAAAAAAAAAAAAAAAAAAAAAAAAAAAAAAAAAAAAAAAAAAAAAAAAAAAAAAAAAAAAAAAAAAAAAAAAAAAAAAAAAAAAAAAAAAAAAAAAAAAAAAAAAAAAAAAAAAAAAAAAAAAAAAAAAAAAAAAAAAAAAAAAAAAAAAAAAAAAAAAAAAAAAAAAAAAAAAAAAAAAAAAAAAAAAAAAAAAAAAAAAAAAAAAAAAAAAAAAAAAAAAAAAAAAAAAAAAAAAAAAAAAAAAAAAAAAAAAAAAAAAAAAAAAAAAAAAAAAAAAAAAAAAAAAAAAAAAAAAAAAAAAAAAAAAAAAAAAAAAAAAAAAAAAAAAAAAAAAAAAAAAAAAAAAAAAAAAAAAAAAAAAAAAAAAAAAAAAAAAAAAAAAAAAAAAAAAAAAAAAAAAAAAAAAAAAAAAAAAAAAAAAAAAAAAAAAAAAAAAAAAAAAAAAAAAAAAAAAAAAAAAAAAAAAAAAAAAAAAAAAAAAAAAAAAAAAAAAAAAAAAAAAAAAAAAAAAAAAAAAAAAAAAAAAAAAAAAAAAAAAAAAAAAAAAAAAAAAAAAAAAAAAAAAAAAAAAAAAAAAAAAAAAAAAAAAAAAAAAAAAAAAAAAAAAAAAAAAAAAAAAAAAAAAAAAAAAAAAAAAAAAAAAAAAAAAAAAAAAAAAAAAAAAAAAAAAAAAAAAAAAAAAAAAAAAAAAAAAAAAAAAAAAAAAAAAAAAAAAAAAAAAAAAAAAAAAAAAAAAAAAAAAAAAAAAAAAAAAAAAAAAAAAAAAAAAAAAAAAAAAAAAAAAAAAAAAAAAAAAAAAAAAAAAAAAAAAAAAAAAAAAAAAAAAAAAAAAAAAAAAAAAAAAAAAAAAAAAAAAAAAAAAAAAAAAAAAAAAAAAAAAAAAAAAAAAAAAAAAAAAAAAAAAAAAAAAAAAAAAAAAAAAAAAAAAAAAAAAAAAAAAAAAAAAAAAAAAAAAAAAAAAAAAAAAAAAAAAAAAAAAAAAAAAAAAAAAAAAAAAAAAAAAAAAAAAAAAAAAAAAAAAAAAAAAAAAAAAAAAAAAAAAAAAAAAAAAAAAAAAAAAAAAAAAAAAAAAAAAAAAAAAAAAAAAAAAAAAAAAAAAAAAAAAAAAAAAAAAAAAAAAAAAAAAAAAAAAAAAAAAAAAAAAAAAAAAAAAAAAAAAAAAAAAAAAAAAAAAAAAAAAAAAAAAAAAAAAAAAAAAAAAAAAAAAAAAAAAAAAAAAAAAAAAAAAAAAAAAAAAAAAAAAAAAAAAAAAAAAAAAAAAAAAAAAAAAAAAAAAAAAAAAAAAAAAAAAAAAAAAAAAAAAAAAAAAAAAAAAAAAAAAAAAAAAAAAAAAAAAAAAAAAAAAAAAAAAAAAAAAAAAAAAAAAAAAAAAAAAAAAAAAAAAAAAAAAAAAAAAAAAAAAAAAAAAAAAAAAAAAAAAAAAAAAAAAAAAAAAAAAAAAAAAAAAAAAAAAAAAAAAAAAAAAAAAAAAAAAAAAAAAAAAAAAAAAAAAAAAAAAAAAAAAAAAAAAAAAAAAAAAAAAAAAAAAAAAAAAAAAAAAAAAAAAAAAAAAAAAAAAAAAAAAAAAAAAAAAAAAAAAAAAAAAAAAAAAAAAAAAAAAAAAAAAAAAAAAAAAAAAAAAAAAAAAAAAAAAAAAAAAAAAAAAAAAAAAAAAAAAAAAAAAAAAAAAAAAAAAAAAAAAAAAAAAAAAAAAAAAAAAAAAAAAAAAAAAAAAAAAAAAAAAAAAAAAAAAAAAAAAAAAAAAAAAAAAAAAAAAAAAAAAAAAAAAAAAAAAAAAAAAAAAAAAAAAAAAAAAAAAAAAAAAAAAAAAAAAAAAAAAAAAAAAAAAAAAAAAAAAAAAAAAAAAAAAAAAAAAAAAAAAAAAAAAAAAAAAAAAAAAAAAAAAAAAAAAAAAAAAAAAAAAAAAAAAAAAAAAAAAAAAAAAAAAAAAAAAAAAAAAAAAAAAAAAAAAAAAAAAAAAAAAAAAAAAAAAAAAAAAAAAAAAAAAAAAAAAAAAAAAAAAAAAAAAAAAAAAAAAAAAAAAAAAAAAAAAAAAAAAAAAAAAAAAAAAAAAAAAAAAAAAAAAAAAAAAAAAAAAAAAAAAAAAAAAAAAAAAAAAAAAAAAAAAAAAAAAAAAAAAAAAAAAAAAAAAAAAAAAAAAAAAAAAAAAAAAAAAAAAAAAAAAAAAAAAAAAAAAAAAAAAAAAAAAAAAAAAAAAAAAAAAAAAAAAAAAAAAAAAAAAAAAAAAAAAAAAAAAAAAAAAAAAAAAAAAAAAAAAAAAAAAAAAAAAAAAAAAAAAAAAAAAAAAAAAAAAAAAAAAAAAAAAAAAAAAAAAAAAAAAAAAAAAAAAAAAAAAAAAAAAAAAAAAAAAAAAAAAAAAAAAAAAAAAAAAAAAAAAAAAAAAAAAAAAAAAAAAAAAAAAAAAAAAAAAAAAAAAAAAAAAAAAAAAAAAAAAAAAAAAAAAAAAAAAAAAAAAAAAAAAAAAAAAAAAAAAAAAAAAAAAAAAAAAAAAAAAAAAAAAAAAAAAAAAAAAAAAAAAAAAAAAAAAAAAAAAAAAAAAAAAAAAAAAAAAAAAAAAAAAAAAAAAAAAAAAAAAAAAAAAAAAAAAAAAAAAAAAAAAAAAAAAAAAAAAAAAAAAAAAAAAAAAAAAAAAAAAAAAAAAAAAAAAAAAAAAAAAAAAAAAAAAAAAAAAAAAAAAAAAAAAAAAAAAAAAAAAAAAAAAAAAAAAAAAAAAAAAAAAAAAAAAAAAAAAAAAAAAAAAAAAAAAAAAAAAAAAAAAAAAAAAAAAAAAAAAAAAAAAAAAAAAAAAAAAAAAAAAAAAAAAAAAAAAAAAAAAAAAD2WQEAQLh8k31Z8orQF7rlFvNN0KFZpeD/f6YcrEHTl6LPtrQkUFuUyF32uTs0CEuKyU5inbH4vhLfCsYc6t8HWwUW4S/t6f6YzCIMxINB3Xn5ktciquxPPdFcVk2xp2U7O64+hQQU5BNVtBclId/+MAJr7pnKCcv+vaJwjkK3oJPLRboEVXuQN6pvkvE+usJ2BSzh41mkXrTbHF7r1JsI1neAHMJLvh/Xbn3URXESrb7Op7ckWHQghMF31T2npgVC+9M2XHWe0UJmvW+MouPUdnCASzovWet69mxVJOm3aQA0xjD5qnP1YYjGVmlB+gHxTLto0DZYJ3nQLOoljKPdlQMc7w==</c2pa:manifest></metadata>
<g id="Background_00000054944673266993349900000012533600210907832746_" display="none">
	<path display="inline" fill="#BAC1AF" d="M452.2-35.5c0,256,0,256,0,511.9c-256,0-256,0-511.9,0c0-256,0-256,0-511.9
		C196.2-35.5,196.2-35.5,452.2-35.5z"/>
	<path display="inline" fill="#DCE3DD" d="M296.7-18c-1.8,4.9,1.6,2.1,3,5.2c-1.9,9.8,9.9,18.5,17.7,25.7c0.8,0.7,9.9,4.7,10.2,10.2
		c4,1.9,3.3,4.3,3.5,4.5c2.3,2.6,3.1,1.6,3.2,1.7c2,2.3,3.2,5,5.2,7.2c3.4,3.8,8.3,5.5,6.5,8.5c9.5,2.2,10.5,14.1,18.5,16.5
		c0.2,4.5,4.3,9.9,9.2,8.2c3,1,13.4,22.2,15.7,26.2c0.5,0.8,2.9,2.6,4,4.5c0.3,0.6,1.6,5,3,7.5c0.6,1,2.1,1.3,2.5,2
		c1.7,3,12.5,26.5,12.5,28c0.1,1.6-4,5.3,1.7,9.7c3.6,2.7,21.3,9.2,8.5,8.5c-1.6,0.6-1.8,5.6,1.5,7c5.1,2.2,5.7-2.9,6.7-1.2
		c0,52.7,0,52.7,0,105.5c-5.2,0.2,0.1,7.1-9.5,6c-2.6-9.5,0.2-5.7-7-3c-0.4,0.4,0.5,1,0.5,1c-6.2,7.1-6.6,17.1-7,18
		c-0.4,0.8-6.1,7.6-7.5,16.5c-8.5,7.5-7.2,17.1-12.2,14.7c-2.8,0.8,2,6.7-7.7,12.7c-6.8,10.2-12.2,22-21.5,30.5
		c-3.6,5.7-6.3,10.8-11.2,15.2c-1.5,0.7-17.8,1.5-21,1.5c-0.4,0-2.2-1.5-3.5-1.5c-0.1,0-2.4,1-2.5,1c-3.2-0.1-5.2-1.3-9.5,1
		c-2.3-2.3-10.6-3.7-14-4c-11.4-0.9-27.4,4.1-37.5,0.5c-10.2,1.2-10.2,1.2-20.5,2.5c-3.6,1.5-3.6,1.5-7.2,3c-0.1-0.8,0.6-1.4,1-2
		c0.7-0.8,1.4-1.6,2-2.5c2.1-2.9,11.8-16.4,12.5-17.2c0.5-0.6,9.7-7.6,11.5-10.5c0.1-0.9-4.1-4.6-5-5.2c0-1,0-1,0-2
		c0.3,0.3,5.2,3.7,6.2,5.5c4.2-5.2,4.2-5.2,8.5-10.5c5.9,0.2,9.2-4.2,12.7-8c0.1-0.1,0.9-0.3,1.5-1c5.4-6.4,4.4-7.6,6.7-15.5
		c16.1,7.9,11.2-8.3,15.7-15.2c1.8-2.7,13.5-9.9,13.5-11.5c0-1.3-7.6-3.6-3-9.5c1.7-2.2,4.7-1.9,6.7-3.2c7.1-4.8-0.3-13.7,11-16.5
		c8.7-12.1-4-21.5-11.7-29c-1.7-1.6-3-3.7-5-5c0-0.1,0-0.4,0-0.5c0.4-1.5,1.6-0.8,2.5-1c8.5,4.7,28.5,6.2,27.5-6.2
		c0.7-1.7,22-7.7,19.5-27.5c-2.4-19.1-20.6-20.9-24.7-23.7c-8.8-6,3.6-2.2,15-9c9.9-5.9,28.6-32,12.7-39.2c17-20.2-5.5-28.7-6-30.5
		c2.2-6.4-2.9-7.9-3.5-9c-7.6-13.9-11.5-43-49.2-51.7c-3.8-0.9-8.3,0.7-12.5-2.5c-3.7-0.3-41.6,12.9-41.2,21
		c-0.6,0.2-0.7-0.7-2.5,0.5c0.1-0.6,1.3-1.4-0.2-1.5c-11.3,6.8-20.1,13.7-27.2,25c-0.5,0.8-1.2,1-1.5,1.5c-0.9,1.6-1.9,3-2.5,4.7
		c1.4,10.3-8.7,19.9-14,32c-4.8,10.8-6.7,26.3-10,23.5c0.6-6,0.6-31.1,0-34c-0.3-1.6-0.7-1.7-2-2.2c-0.1-0.1-0.7-1.6-2,0.5
		c-0.7,1.1-0.5,1.3-0.5,2.5c-0.3,7.1,2.7,24.3,2,33.5c-0.2,0.1-0.7,0-1,0c-1.5,0-1.1,1.2-2-1c0-1.5-7.6-22.2-9-25.2
		c-5.6-11.8-14.7-18.6-13-30.5c-1.3-2.8-1.9-2.1-2-2.2c-0.8-1.2-1.9-1.4-2-1.5c-4.6-6.4-8.2-12.6-14.2-18
		c-12.5-11.1-10.8-5.7-13.2-5.5c-0.5-1.1,1.5-1,1-1.7c-0.3-0.5-0.6,0.4-2-1.2C133.8,38.1,109,26.1,102,25c-14-2.3-35.6,4.6-46.5,14
		C43,49.8,40.4,62.5,33.7,76.2c-1.8,3.7-6,6-4.5,11c-0.6,1.8-23.6,11.2-5,30.5c-16.2,2.5-0.9,30.8,12.2,38.7c11.7,7,23.8,3.6,18,8
		c-1.2,0.9-19.4,4.8-25.2,15.2c0.9,7.4-4.9,7-2.5,18c2.7,12.1,16.8,16.7,19,19.7c0.5,0.7,0.4,1.4,0.5,1.5c0.2,0.2-1,1.5,2.7,4.5
		c10.5,8.4,25-2.9,25.7,1.7c0.6,4-35.6,23.5-9.5,37.5c0.4,11.7,4,11.1,6,12.7c1,0.8,2.9,1.4,3,1.5c2.5,2.1,5.2,5.6,3,8.7
		c-1.6,2.3-4.2-1.7-2.5,3.5c0.6,1.8,3.2,3.5,5,3.7c1.2,1.3,1.8,1.6,3.5,2c10.7,8.5,1.8,27.2,20.7,20.5c0.9,0.3,1.5,16,7.2,16.5
		c1.1,0.3,1.4-1.1,2-1c2.7,5.1,6.3,8.4,12.2,8.5c0.6,0.3,5.1,7.6,7.2,10c0.7,0.7,1.4,1.3,2,2c8.7,9.7,16.3,18.3,24,29
		c1,1.3,1.7,3,3,4c0.4,0.5,0.4,1.1,0.5,1.5c-7.9,0.2-7.9,0.2-15.7,0.5c-2-2.8-16.8-2.7-19.5-3.5c-1.9-0.6-2.2-4.8-2.2-0.2
		c-3.8-0.5-1.5,3.7-3.5,2c0,0,1.1-1,0.2-1.2c-1.4-0.5-13.5-0.2-16,1c-1.7-4-3.1-0.1-1.7,5c-0.9,0.4-0.2,1-0.7,1.5c-3-0.7,2-6-3-7
		c-2.1-0.4-3.7,0.5-4,0.5c-2.9-0.3-1.8-2.8-6.7,0.7c-0.3,1,0.6,1.4,0.5,1.7c0,0.1-1.4,0.1-1,2.7c6.3,7.6-5.8-3.8-1,3
		c-2.6,2.7-2.9-5.1-5.5,3.2c-1.2-0.1-1.4-2.1-4,0.5c0-0.1-1-0.4-1-0.7c0-3.1,3.7-12.8,3.5-14c-0.8-4.6-3.9,12.9-7,10
		c-4.3,12.8-0.9-3.2-8.5-1.2c-0.3-0.8-0.3-4.1-0.7-4.5c-0.7-0.6-16,4.1-16.7,6.7c1.4,2.3-0.5,7.2-2.7,9.2
		c-2.7,0.1-18-15.9-16.7-20.7c-10.1-6.9-13.9-19.7-23.5-27.5c-3.9-5.4-5.5-12.8-11-16.5c-3.2-7-1-9.5-5-12
		c-0.7-7.5-6.9-12.5-7.5-20.5c-4.9-3.2-3.8-5.2-4-5.5c-1.6-2.2-3.7-2.7-4-3c-0.1-0.2-0.2-2.9-1.7-3.7c-3.1-1.7-6.3,1.4-10.2-1.5
		c-0.3-51-0.3-102,0-153c0.4,0.9,4.3-2.5,5-3.2c7.1-7.8,10.1-18.2,15.5-27c1.7-2.8,5.2-4.9,5.5-9c4.1-1,7.6-11.5,10.5-16
		c1.6-2.6,4.9-5.5,6.5-8c4.4-6.7,8.6-13.3,13-20c0.7-1,0.5-3.5,1-5c5.7-3.6,8.1-9.8,9.5-11.5C44,18.2,68.2,3.6,73.7-3.3
		c2.2-2.8,6.1-11,6-14.7C152-18.5,224.4-18.4,296.7-18z"/>
	<path display="inline" fill="#DCE3DD" d="M310.7-18c-2.7,21.9,28.8,29.9,45.5,49.2c6.3,7.3,10.3,17.4,18.5,22.5
		c2.8,10.1,6.3,9.2,8,11.5c4,5.4,8.1,11.7,11.5,17.5c2.3,3.9,4.8,11.2,7,15c3.3,5.7,8,10.8,10.5,17c9,3.4,5.7,9.5,19,11.7
		c-0.4,57.8,0.5,115.7,0,173.5c-7.5,0.1-9.4,0.3-15,5.7c-2.9,2.8-10,12.6-10,17c-8.8,2.2-2.2,10.4-10,16c-0.5,2.2-0.5,2.2-1,4.5
		c-6.2,5.1-6,9.3-8,12c-4,2.2-5.9,6.7-8.7,10.2c-0.1,0.1-1.2-0.9-2.7,0.7c-0.7,0.8-5.9,12.4-13,16c-0.8,5.1-6.4,9-8,11
		c-0.5,0.6-0.9,3.4-1,3.5c-2.7,3.4-6.1,5.3-8.2,9.2c-6.7,5-22,10.2-23,11c-2.2,1.6-1,3.6-3.5,5c-12.5,2-26.7,7.4-34.2,17.7
		c-1,2.5-1.6,10.1-3,11.5c-2.1,2.1-7.6-0.9-7,2.2c-66.5,0.3-133-0.1-199.5-0.5c14.1-0.2,14.1-0.2,28.2-0.5c0-4.6-1.6-9.2-2.7-13.7
		c-8.4-4.3-15.5-10.5-23.2-15.7c-1.4-0.9-11.8-5.5-10.7-7.7c1.5-1.2,2,0.1,6.5,0.7c2.3,0.4,2.9-1.6,4.2,1c0.5-0.3,0.1-1.9,0.2-2.5
		c0.1-0.3-0.1-0.8,0-1c12.1,0.9,9.1,5.4,9.7,6c1.2,1,1.9-3.9,6.2-0.7c0.2,0.2-1.4-0.2,2.2,3.7c2.5-1.7-2.5-4.1-2-6.5
		c2.7,0.1,6.2,3.2,7,3.5c1,0.4,4.2-1,6,2.5c7.9-5,1.4,0.8,9.7,0.5c1.8-0.1,0.9-0.5,1-0.5c2.6-0.2,3.6,1,4.7,0
		c0.1-0.1,0.2-1.1,1.7-3.5c0.1-0.1,0.9-0.3,1.5-1.5c2.7,3.3,1.1-2.3,3.7-6.5c2.5,1.7,6.5,1.7,9.7,2c-0.1,0.5,0,1,0,1.5
		c-3.2,0.2-11.3-3-9.5,1.2c0.5,1.2,6.1,0.2,7.2,0.2c1.2,0.1,2.8,3,3.7,0.5c0.6-1.6,0.2-3.4,1-3.5c0.6,3.3-0.2,4.4,0,6
		c0.4,3.5,12.3,1,15.7,2.5c1,0.4,3.7,5.4,3.7,5.7c0.1,1.6-2,2.8-2,3.5c-0.2,7.1,11.5-4.8,11.2-0.7c5.8-3.2-10.2-7.5-12.2-10
		c0.5,0.1,1-0.1,1.5,0c16,2,28.6,8.4,38,6c0,0.2,0,0.3,0,0.5c0.2,0.9-0.2,2.3,0,2.7c0.1,0.2,3.6,1.3,3.7,1.2c2-0.2,4-2.9,6-3.5
		c2.8-0.9,8.4,0,10-2.5c5,2.7,8.4-0.3,9.5,0c1.7,3.4,7.1,0,14.7,2c0.4,3.9,2.4,1.4,2.7,1.5c1.8,0.7,2.2,3.8,4,3.5
		c1.5-0.3-3.5-3.9,4-6c8.1-2.3,13.5,4.2,8.2-2.5c0.5,0,3.4-2.9,9.2-1c6.2-6.8,4.6,8,6.2-0.5c5.3,6.8,1.6,0.5,1.5-4
		c7.3,6.1,3-2.8,9.5-1.7c-2.6,8.9,3.7-3.1,6.2,3.2c1.4-2,1.4-0.5,2.7-2c0.1-0.1,2.5-0.1,0-2.5c1.5-0.1,1.8-1.5,4.2,1
		c0.8-0.6,0.7-1,0.7-1c4.9-0.4,9.3-2.8,10.5,0c5.7-1.9,2.4,0,5.7,2.5c0.4-7.9,3.3-3.4,3.7-4.2c0.5-0.9-1-2.1-1-2.2
		c-1.2-7.5,5.9,2.3,5.7-10.5c3.1-0.5,1.4,1.1,2.5,1.5c4.9,1.7,5.6-3.7,13.2,3.7c-2-2.9-4.5-4.7-4.5-8.5c0-0.4,1.2,1.3,1.5-6
		c-0.1-0.6-2.7-3.5-3.2-3.7c-8.1-3.7-1.8,13.1-6,6c-3.1,1.1-3.1-2.6-2.2-4.2c0.7-1.5,2.5,0.4,2.2-5.7c-1.5,3.3-21.6,4.4-21.5,1.5
		c-2.4,2.3-5.9-1.5-9-2c-1.9-0.3-18.6,0.3-13.7,2.5c-0.2,0.5-0.7,1.1-1,1.5c-4.1-2.3-2-0.7-5.2,2c-0.4-3.2,6.9-7.6,0-6
		c-0.5,0.1,0,1.4-0.5,1.5c-0.6,0.1-6.1-5.3-5.7,5.5c-2.5,0.2-5,1.8-7.5,2c0.4-0.7,0.4-0.7,0.7-1.5c-2.5,0.8-6.1-0.3-7.5,2.5
		c-3.5-2.3-4.6-1.7-4.7,2c-0.2,0-0.2,0-0.5,0c0-0.4-0.8-2.1,0-2.7c-0.4-0.5-1.1-0.1-1.5-0.2c-5.9-1.7-25,3.3-28,3
		c0.9-1.7,6.6-9.5,8-10.5c3.6-1.5,3.6-1.5,7.2-3c10.2-1.2,10.2-1.2,20.5-2.5c10.1,3.6,26.1-1.4,37.5-0.5c3.4,0.3,11.7,1.7,14,4
		c4.3-2.3,6.3-1.1,9.5-1c0.1,0,2.4-1,2.5-1c1.3,0,3.1,1.5,3.5,1.5c3.2,0,19.5-0.8,21-1.5c4.9-4.4,7.6-9.6,11.2-15.2
		c9.3-8.5,14.7-20.3,21.5-30.5c9.7-6.1,5-12,7.7-12.7c5,2.3,3.8-7.2,12.2-14.7c1.4-8.9,7.1-15.6,7.5-16.5c0.4-0.9,0.8-10.8,7-18
		c0,0-0.9-0.6-0.5-1c7.2-2.7,4.4-6.5,7,3c9.6,1.1,4.3-5.8,9.5-6c0-52.7,0-52.7,0-105.5c-1-1.7-1.7,3.4-6.7,1.2
		c-3.3-1.4-3.1-6.4-1.5-7c12.8,0.7-4.9-5.8-8.5-8.5c-5.8-4.4-1.7-8.1-1.7-9.7c0-1.5-10.8-25-12.5-28c-0.4-0.7-1.9-1-2.5-2
		c-1.4-2.5-2.7-6.9-3-7.5c-1.1-1.9-3.5-3.7-4-4.5c-2.4-4-12.7-25.3-15.7-26.2c-4.9,1.7-9-3.8-9.2-8.2c-8-2.4-9-14.3-18.5-16.5
		c1.8-3-3.1-4.7-6.5-8.5c-2-2.2-3.3-5-5.2-7.2c-0.1-0.1-1,0.8-3.2-1.7c-0.2-0.2,0.5-2.6-3.5-4.5c-0.4-5.5-9.5-9.5-10.2-10.2
		c-7.8-7.2-19.6-15.9-17.7-25.7c-1.4-3.2-4.8-0.4-3-5.2C301.3-18,306-18,310.7-18z"/>
	<path display="inline" fill="#DCE3DD" d="M430.7,299.9c-0.1,12.1,0.1,60.7-1.5,67.2c-7.6,16-17.5,40.7-28.7,53.7
		c-7.3,8.4-23.1,19.9-34,23.5c-0.9,2.7-13.7,8.2-15,8.5c-5.1,1.1-64.8,0.4-77.2,0.5c-0.6-3.2,4.9-0.2,7-2.2c1.4-1.4,2-9,3-11.5
		c7.5-10.3,21.7-15.7,34.2-17.7c2.5-1.4,1.3-3.4,3.5-5c1-0.8,16.3-6,23-11c2.2-3.9,5.5-5.8,8.2-9.2c0.1-0.1,0.5-2.9,1-3.5
		c1.6-2,7.2-5.9,8-11c7.1-3.5,12.3-15.2,13-16c1.6-1.6,2.7-0.6,2.7-0.7c2.8-3.5,4.7-8,8.7-10.2c2-2.7,1.8-6.9,8-12
		c0.5-2.2,0.5-2.2,1-4.5c7.8-5.6,1.2-13.8,10-16c0-4.4,7.1-14.2,10-17C421.2,300.3,423.2,300.1,430.7,299.9z"/>
	<path display="inline" fill="#DCE3DD" d="M65.2,390.4c0.7,2.1,2.4,1.8,1,3c-2.4-1.2-2.4-1.2-4.7-2.5c2.6,3.6-2.7,2.5-0.2,5.5
		c-4.3,0.9-21.1,8.2-10.5,11.5c1.7,5.3,1.7,6.5,4.7,1.5c0.9,0.5-0.2,7.1,1.7,1.5c0.9,0.1,0.2,1.2,0.7,1.5c0.3,0.2,6.5-4.1,0.2,1.2
		c-0.3,2.4,5.5-4,9.5-3.7c1.3,0.1,8.5,3.8,5,6c-4.5-0.7-5-2-6.5-0.7c-1,2.3,9.4,6.8,10.7,7.7c7.8,5.3,14.8,11.5,23.2,15.7
		c1.2,4.5,2.7,9.1,2.7,13.7c-14.1,0.2-14.1,0.2-28.2,0.5c-9.6-0.1-19.2,0.9-28.7,0C22.9,441-3.8,425.3-18.8,403.7
		c-9.4-13.6-15.4-29.2-20-45c0.2-22.6,0.1-45.2,0-67.7c4,2.9,7.2-0.2,10.2,1.5c1.6,0.9,1.6,3.6,1.7,3.7c0.3,0.3,2.4,0.8,4,3
		c0.2,0.3-0.9,2.3,4,5.5c0.6,8,6.8,13,7.5,20.5c4,2.4,1.8,5,5,12c5.5,3.7,7.1,11,11,16.5c9.5,7.8,13.4,20.6,23.5,27.5
		C27,386,42.3,402,45,401.9c2.2-2.1,4.2-7,2.7-9.2c0.7-2.6,16-7.3,16.7-6.7C64.9,386.3,65,389.6,65.2,390.4z"/>
	<path display="inline" fill="#DCE3DD" d="M79.7-18c0.1,3.8-3.8,12-6,14.7c-5.5,6.9-29.7,21.4-46,41.5c-1.4,1.7-3.8,7.9-9.5,11.5
		c-0.5,1.5-0.3,4-1,5c-4.4,6.6-8.6,13.3-13,20c-1.6,2.5-4.9,5.4-6.5,8c-2.9,4.5-6.4,15-10.5,16c-0.3,4.1-3.8,6.2-5.5,9
		c-5.4,8.8-8.4,19.2-15.5,27c-0.7,0.7-4.6,4.1-5,3.2c0.1-16.7-1.5-53.3,2-67.2c3.8-14.9,18.2-39.2,28-51.5C1.7,6.1,26-17.2,43-18.5
		C46-18.7,70.6-17.9,79.7-18z"/>
	<path display="inline" fill="#DCE3DD" d="M430.7,126.5c-13.3-2.3-10-8.4-19-11.7c-2.5-6.2-7.2-11.3-10.5-17c-2.2-3.8-4.7-11.1-7-15
		c-3.4-5.8-7.5-12-11.5-17.5c-1.7-2.3-5.2-1.4-8-11.5c-8.2-5.1-12.2-15.2-18.5-22.5C339.5,11.9,308,3.9,310.7-18
		c12.7,0.1,25.5-0.5,38.2,0.5c11.9,9.3,25.5,16.7,37,26.5c5,4.2,15.1,14.1,17.7,19.2c0,0.1-0.8,0.3-0.5,2c2.2,2.6,14,15.1,14.5,16
		c2,3.6,2.3,8.1,2.5,8.5c3.7,7.4,6.2,10.3,9,19c0.2,0.5,1.4,0,1.5,0.5C431.4,76.8,430.1,117.7,430.7,126.5z"/>
	<path display="inline" fill="#BAC1AF" d="M162.2,385.9c0.2,0.5,7,7,7.5,9c-4.6-2.4-21.3,1-28.2,0.5c2.5-7.5-14.6,3.1-9-10
		c-1.5-0.5-1,1.3-2.7,4c-1.9-0.1-3,0.7-3.2-1.5c-2.6-0.7-1.9,2.6-6,1.5c-0.2,0,0.4-3.6-1,0c-14,1.6-10.7-0.6-12-1
		c-0.2-0.1-3.4,0.9-3.7,1c-1.4-5.1,0-9,1.7-5c2.4-1.2,14.6-1.5,16-1c0.9,0.3-0.3,1.2-0.2,1.2c2,1.7-0.3-2.5,3.5-2
		c0.1-4.6,0.3-0.3,2.2,0.2c2.7,0.8,17.5,0.7,19.5,3.5C154.3,386.2,154.3,386.2,162.2,385.9z"/>
	<path display="inline" fill="#BAC1AF" d="M92.2,390.4c3.3,2.8,4.1,0.7,4.7,4c1.1-0.7,0.7-1.9,0.7-2c2.2,1.8,1.8,2.4,0,4
		c-5-1-8.8,11.5-9.5,12c-1.3,0.9-2.7,0.2-3.2,0.5c-1.5,0.8-0.1,1.8-0.5,2c-0.7,0.4-5.1-3.9-7.2,2.5c-0.1,0.2,0.1,0.7,0,1
		c-2.4,1.1-1.4-8.4-1-9.2c0.8-1.7,1.4-1.2,1.5-1.2c2.1-2,5-1.4,5.2-1.5c1.6-0.8,2.4-5.4,3-5.5c0.4,0,3.2,5.1,4.5-2
		c-7.4-1.7-3.7,1.5-8.2,1c2.6-8.3,2.9-0.6,5.5-3.2c-4.8-6.8,7.3,4.6,1-3c-0.4-2.7,1-2.6,1-2.7C90.2,388,91.4,389.8,92.2,390.4z"/>
	<path display="inline" fill="#BAC1AF" d="M78.2,396.4c0,1.9-0.2,3.1-0.5,5c-2.6-2.1,0,0.8-3.5,1.5c-1.6-5.2-2.3-2.8-3-3
		c-0.1,0,0.6-1.2-1.2-1c-4.6,0.5-4.9,4-2.2,6.5c-0.1,0-0.7,1.2-1.7,1.5c-5-2.4-7.1-0.8-8.7,4c-2,5.6-0.9-1-1.7-1.5
		c-3,5-3.1,3.8-4.7-1.5c4.8-4.3,10.2-9.5,16.7-10c1.3-0.9,0.1-1.1,0.2-1.5c0-0.1,1.9,0.3,0.2-1c-0.6-0.5-2.2,1.2-1.7-2
		c1.4-1.2-0.3-0.9-1-3c7.6-2,4.2,14.1,8.5,1.2c3.1,2.9,6.2-14.6,7-10c0.2,1.2-3.5,10.9-3.5,14C77.2,396,78.2,396.4,78.2,396.4z"/>
	<path display="inline" fill="#BAC1AF" d="M103.7,389.4c0.3-0.1,3.6-1.1,3.7-1c1.3,0.4-2,2.6,12,1c1.4-3.6,0.8,0,1,0
		c4.1,1.1,3.4-2.2,6-1.5c0.2,2.2,1.3,1.4,3.2,1.5c-0.7,1.1-0.4,1.8-0.7,2c-6.9-1.3-9,1-9.5,1c-2.2,0.2-12.9-0.1-18,0
		c-0.4,0-0.2-1-0.2-1c-0.7-4.4-3-1.9-3.2-2c-0.9-0.5-1.9-4.3-3-4.5c-4.4-0.7,4.2,5.9-2.7,5.5c-0.8-0.7-2-2.5-2.5-3.5
		c0.1-0.3-0.8-0.7-0.5-1.7c4.9-3.5,3.9-1,6.7-0.7c0.3,0,1.9-0.9,4-0.5c5,1,0,6.3,3,7C103.5,390.4,102.8,389.8,103.7,389.4z"/>
	<path display="inline" fill="#BAC1AF" d="M77.7,403.9c-1.7-2.7-0.2-1.6,0-2.5c0.3-1.9,0.5-3.1,0.5-5c2.6-2.6,2.8-0.6,4-0.5
		c4.5,0.5,0.8-2.7,8.2-1c-1.3,7.1-4.1,1.9-4.5,2c-0.6,0.1-1.4,4.7-3,5.5C82.7,402.6,79.8,401.9,77.7,403.9z"/>
	<path display="inline" fill="#A0B091" d="M169.7,394.9c0.3,0.2,1,0.5,1,0.5c1.4,1.4,1.8,5.8,3.5,7c-13.5-0.2-30.1,1.8-42.7,1.5
		c-0.1,0-1.9-1-2-1c-1.3,0.5-4.3,8.1,10,7c0.8,0.4-0.7,2.4-0.7,2.5c-3.2-0.3-7.2-0.3-9.7-2c-2.6,4.2-1,9.8-3.7,6.5
		c0.7-1.5,1-4.7,2-6.7c-0.5,0-0.5,0-1,0c-0.6,1.6-1.3,2.4-1.5,4.2c-9.4-0.1-10.2,1.5-10.7,1.5c-2.2,0.1-6.2-1.9-3.5-4.5
		c-3.5-0.2-4.8-1.4-8.2-1c-4-3.6-1.1,1.6-3.2,2c-3.3,0.6-3.8-3.7-5.2-1c-5-4,3.5-10.6,4-15c1.8-1.6,2.2-2.2,0-4c1.3-1.3,1.9-1,3.5-1
		c0.1,0-0.2,1,0.2,1c5.1-0.1,15.8,0.2,18,0c0.5,0,2.6-2.3,9.5-1c0.4-0.2,0.1-0.9,0.7-2c1.8-2.7,1.2-4.5,2.7-4
		c-5.6,13.1,11.5,2.5,9,10C148.4,395.9,165.1,392.5,169.7,394.9z"/>
	<path display="inline" fill="#A0B091" d="M275.7,391.9c-3.3-0.7-4.9,2.3-5.2,2.5c-0.9,0.4-1.4-0.5-1.5-0.5
		c-5.9,2.6,1.8,0.6,2.2,1.7c0.6,1.5-1.5,2.4-1.5,2.5c-0.8,5.4,5.1-2.4,6.2-0.7c1.1-1.7,1.1-1.7,2.2-3.5c0.1,0.1,0.6,0,1,0
		c0,0.1,1-0.2,1,0.2c0,0.2-1.3,2.4-1,3c2.6,4.6,5.1-7.3,0-3.7c0.3-1.5,1.2-3.2,2-4.5c5.1-0.7,4.2,3,7,2.5c0.6-0.1,1-0.1,1.5-0.5
		c2.4,1.3-2.7,2.3,0.7,4c1.8,0.9,5-1.9,5.2-2c1.5-0.5,3.6-1.8,5.2-1c0.2,0.1,0.1,1.1,1.7,2.5c4.6,4.1,5.8-0.9,6.2-1
		c0.2-0.1,3.6,1.3,4.2,1.5c-1.6,1.1-3.9,1-4,1.7c2.1,1.9,6.2,6.1,2.5,7.5c4.7,8.5-3.3,0.5-3.7,0.7c-0.4,0.3,0.1,3.4-2.5,2.5
		c-0.4-0.1,0.9-4.2-5.7-2.5c-3.1-2.2-3.1-2.2-6.2-4.5c-0.1,4-3.3,4.7-1.7,6.5c-0.5,1.8,1.3,5.7-1.2,6c-4.6,0.5,0.8-4.4-2.5-6.5
		c-2.4,9.2-0.8,0.1-3.7,1.7c-0.2,0.1,1.2,3,0.2,3.7c-0.6,0.5-3.2-1.6-3.2-1.7c-0.6-1.9,4.1-2.7,1.2-3.7c-0.3-0.1-5.7,1.1-3,4.5
		c-14.3-4.4-0.7,0.1-1.2,4.7c0,0.3-1,0.7-1,1.2c0.1,4.5,3.8,10.8-1.5,4c-0.1-0.1,0.1-1.1,0-1.7c-0.9-0.6-0.9-0.6-1.7-1.2
		c-12.7-3-11.9,1.9-15.5,3c-0.2,0.1-3-2.3-3.7,1c-0.1,0-1.8,1.5-2-0.2c8.4-8.4-1.7-5.1-6.7-4.7c-0.4,0-1.7-3.4-2.5,3
		c4.9-0.4,4.9-0.4,9.7-0.7c0.2,0.9-9,2.1-11,1.7c0.1-0.3-0.1-0.7,0-1c0.8-3.2,2.4-6.4,4-9.5c1.3-2.4,3.2-6.2,4-6c-1,2-1.4,4.5-3,6.2
		c7.1,7.9,24.8-7.2,13.7-4.2c-1.6-4.1-6.3-2.5-9.7-4c2.4-2.3,13.7,3,9.7,0c-0.6-0.5-4.1,0.9-2.5-4c-3.1,2.4-8.2,1-4.7-3
		c0.3-0.3,7.8-3.2,8.2-1.5c1.4-1.5,1.4-1.5,2.7-3c2.5-0.2,5-1.8,7.5-2C274.8,388.7,277,388,275.7,391.9z"/>
	<path display="inline" fill="#A0B091" d="M246.2,410.4c-1.6,3.1-3.2,6.3-4,9.5c-4.9-0.3-9,1.2-13.7-0.5c-8,2.5-15.4,0.8-24,4
		c-2.5,0.9-4.1,4.6-7.2,2.5c0-0.2,0-0.3,0-0.5c0-0.1,1.3-0.5-0.2-1.5c-4.6-2-6.6,1.5-8.2-0.2c-2.4-2.5,4.6-6,2.2-7.2
		c-1.1-0.6-16.8,1.8-19.5,2c-5.4,0.4-12.5-1-12.2,1c-0.5-0.1-1,0.1-1.5,0c-0.2,0,0.4-2.5-2.2,0.5c-3.4-2.4-9.5,0.1-14.2-1.5
		c-0.2-1.6,0.6-2.7,0-6c-0.1-0.7-1.6-0.4-0.7-1.5c5.4,1.8,11.3,0.8,17,1c0.4,0,0.2-1,0.2-1c5.2,0.2,23.2,4.3,36.5,4.5
		c-4.6,5.1,5.9,3.3,0.5,0c6.5,0.1,34.3-2.7,38.7-5c0.8-0.4,0.8-1.2,0.7-2C240.8,408.8,247.1,408.5,246.2,410.4z"/>
	<path display="inline" fill="#DCE3DD" d="M319.7,409.9c-4.1-0.8-4-5.7-4.5,1.7c-0.3,0.3-3.7-1.7-4,2.2c-1.2-2.8-5.6-0.4-10.5,0
		c-0.1-2.5-5-1.4-5-6c1.9,0.4,3.5,0.2,5.2,1.5c-0.6-2.2-0.6-2.2-1.2-4.5c6.7-1.7,5.4,2.4,5.7,2.5c2.6,0.9,2.1-2.2,2.5-2.5
		c0.4-0.3,8.5,7.8,3.7-0.7c3.7-1.4-0.4-5.6-2.5-7.5c0.1-0.8,2.4-0.7,4-1.7c2.4,0.9,2.6,2,2.7,2c0.4-0.1-0.5-1.3,6.7-3.7
		c-6.2-3.7-7.9,0.6-9.5,1.7c-0.6-0.2-4-1.6-4.2-1.5c-0.4,0.1-1.6,5.1-6.2,1c3.5-0.9,3.5-0.9,7-1.7c-5.4-5.2-3.7-3-6.5-2.7
		c1.2-1.5-3.4-4.5-3.7-4.5c-0.3,0-3.6,2.9-5-0.5c-3.4,3.3-0.4-4.9-5.2,2.5c-4.7,2.4-0.6-3.6-1.7-4c-1-0.3,0.5,2.5-2.7,1
		c-4.9-2.2,11.8-2.8,13.7-2.5c3.1,0.5,6.6,4.3,9,2c-0.1,2.9,20,1.8,21.5-1.5c0.3,6.1-1.5,4.2-2.2,5.7c-0.8,1.7-0.8,5.3,2.2,4.2
		c4.2,7.1-2.1-9.7,6-6c0.5,0.2,3.1,3.2,3.2,3.7c-0.3,7.3-1.5,5.6-1.5,6c0,3.8,2.5,5.6,4.5,8.5c-7.7-7.4-8.3-2-13.2-3.7
		c-1.1-0.4,0.6-2-2.5-1.5C325.6,412.2,318.5,402.4,319.7,409.9z"/>
	<path display="inline" fill="#85956F" d="M174.2,402.4c0.2,0,0.2,0,0.5,0c1.1,1.7,4.9,2.9,5.7,5c-9.3,2-26.3-2.2-22.7,3.5
		c-0.1,0,0.2,1-0.2,1c-5.7-0.2-11.6,0.8-17-1c-0.9,1.1,0.6,0.8,0.7,1.5c-0.8,0.1-0.4,1.9-1,3.5c-3.2,0.2-1.5-0.5-1.5-2
		c0-0.5-0.1-1,0-1.5c0-0.1,1.5-2.1,0.7-2.5c-14.3,1.1-11.3-6.5-10-7c0.1,0,1.9,1,2,1C144.1,404.2,160.7,402.2,174.2,402.4z"/>
	<path display="inline" fill="#A0B091" d="M252.7,393.9c-0.1,0.9-2.3,7.3-2.7,7.5c-11.6,0.1-22.6,3.6-34.2,3c4.3-3.8,4.8-5.9,5.5-11
		c0.5,0.1,1.1-0.1,1.5,0c0,0-0.2,0.4,0.5,0.5c-2.7,5.5-0.8,2.1,10.7,0.5c6.8-0.9,19.2-0.7,17.2-3.5c0.4,0.1,1.1-0.3,1.5,0.2
		C251.9,391.8,252.7,393.6,252.7,393.9z"/>
	<path display="inline" fill="#DCE3DD" d="M93.7,411.4c1.4-2.7,2,1.6,5.2,1c2.1-0.4-0.8-5.6,3.2-2c0.2,0.1-0.3,1.7,0.2,2
		c4.1-0.3,12.6,5.5,13.7,10c-8.4,0.3-1.8-5.5-9.7-0.5c-1.8-3.5-5-2.1-6-2.5c-0.8-0.3-4.3-3.4-7-3.5c-0.5,2.4,4.5,4.8,2,6.5
		c-3.6-3.9-2-3.6-2.2-3.7c-4.4-3.2-5,1.8-6.2,0.7c-0.7-0.6,2.4-5.1-9.7-6c2.2-6.4,6.5-2.1,7.2-2.5c0.4-0.2-1-1.2,0.5-2
		c0.5-0.3,2,0.4,3.2-0.5c3.3,2.4-1,8.7,4.5,7.7C93,414.7,93,412.8,93.7,411.4z"/>
	<path display="inline" fill="#85956F" d="M253.2,393.9c0,0.8-1.1,0.3,0.5,1.5c-3.5,4,1.6,5.4,4.7,3c-1.6,4.9,1.9,3.5,2.5,4
		c3.9,3-7.4-2.3-9.7,0c-1,0.9-0.8,1.6-1,2c-0.8-0.2-2.7,3.6-4,6c0.9-1.9-5.4-1.6-12-2c-7.9-0.5-15.8-0.7-23.7-0.5
		c0.3-1.3,4.3-2.7,5.2-3.5c11.7,0.6,22.6-2.9,34.2-3c0.5-0.2,2.7-6.6,2.7-7.5C252.9,393.9,252.9,393.9,253.2,393.9z"/>
	<path display="inline" fill="#BAC1AF" d="M242.2,419.9c-0.1,0.3,0.1,0.7,0,1c-0.3,1.7-1.2,3.1-1,5c-7.7-2-13.1,1.4-14.7-2
		c-1.1-0.3-4.5,2.7-9.5,0c-1.6,2.5-7.2,1.6-10,2.5c-2,0.6-4,3.3-6,3.5c-0.2,0-3.7-1.1-3.7-1.2c-0.2-0.5,0.2-1.9,0-2.7
		c3.1,2.1,4.8-1.6,7.2-2.5c8.6-3.2,16-1.5,24-4C233.2,421.1,237.3,419.6,242.2,419.9z"/>
	<path display="inline" fill="#BAC1AF" d="M197.2,425.4c-9.4,2.4-22-4-38-6c-0.2-2,6.9-0.6,12.2-1c2.7-0.2,18.4-2.6,19.5-2
		c2.3,1.3-4.6,4.8-2.2,7.2c1.7,1.8,3.7-1.7,8.2,0.2C198.5,424.9,197.2,425.3,197.2,425.4z"/>
	<path display="inline" fill="#BAC1AF" d="M291.7,406.9c1.3,0.5,2.7,0.7,4,1c0,4.6,4.9,3.5,5,6c-0.1,0,0,0.4-0.7,1
		c-2.5-2.5-2.7-1.1-4.2-1c-4.5,0.2-6.1,1.9,0,2.5c-1.3,1.5-1.3,0-2.7,2c-2.5-6.3-8.8,5.6-6.2-3.2c-6.5-1.1-2.2,7.8-9.5,1.7
		c0-0.6,1-1,1-1.2c0.5-4.7-13-9.1,1.2-4.7c-2.7-3.4,2.7-4.6,3-4.5c2.8,1-1.8,1.8-1.2,3.7c0.1,0.2,2.6,2.2,3.2,1.7
		c1-0.8-0.4-3.7-0.2-3.7c2.9-1.6,1.4,7.5,3.7-1.7c3.3,2.1-2.1,7,2.5,6.5C293,412.7,291.2,408.7,291.7,406.9z"/>
	<path display="inline" fill="#BAC1AF" d="M254.7,421.9c1.7,0,5.2,0.5,5.5,0.5c5.2,6.7-0.2,0.2-8.2,2.5c-7.5,2.1-2.5,5.7-4,6
		c-1.8,0.3-2.2-2.8-4-3.5c-0.3-0.1-2.3,2.4-2.7-1.5c-0.2-1.9,0.7-3.3,1-5c2,0.4,11.2-0.8,11-1.7c-4.9,0.4-4.9,0.4-9.7,0.7
		c0.8-6.4,2.1-3,2.5-3c5-0.3,15.2-3.6,6.7,4.7C252.9,423.4,254.6,421.9,254.7,421.9z"/>
	<path display="inline" fill="#BAC1AF" d="M157.7,419.4c2.1,2.5,18,6.8,12.2,10c0.2-4.1-11.4,7.8-11.2,0.7c0-0.7,2.1-1.9,2-3.5
		c0-0.3-2.8-5.3-3.7-5.7c-3.4-1.5-15.3,1-15.7-2.5c4.7,1.6,10.8-0.9,14.2,1.5C158.1,416.9,157.5,419.4,157.7,419.4z"/>
	<path display="inline" fill="#DCE3DD" d="M283.7,385.9c-0.8,1-1.8,1.9-2.5,3c-0.8,1.3-1.7,3-2,4.5c0,0.2,0,0.3,0,0.5
		c-0.4,0-0.9,0.1-1,0c-0.4-0.3-0.9-1.7-2.5-2c1.3-3.9-0.9-3.2-3.5-3c-0.3-10.8,5.1-5.4,5.7-5.5c0.5-0.1,0-1.4,0.5-1.5
		c6.9-1.7-0.4,2.8,0,6C281.7,385.2,279.6,383.6,283.7,385.9z"/>
	<path display="inline" fill="#BAC1AF" d="M251.2,390.9c2,2.8-10.5,2.6-17.2,3.5c-11.6,1.6-13.4,5-10.7-0.5
		C226.2,394.3,245.3,389.2,251.2,390.9z"/>
	<path display="inline" fill="#BAC1AF" d="M124.7,414.4c-0.2,1.5-0.7,1,0.5,2.5c-0.6,1.2-1.4,1.4-1.5,1.5c-0.7-0.1-0.7-0.1-1.5-0.2
		c2.6-2.2-1.3-0.5-5.7-1.7c0.4,2.7,0.4,2.7,0.7,5.5c-0.1,0,0.8,0.4-1,0.5c-1.1-4.5-9.6-10.3-13.7-10c-0.5-0.3-0.1-1.9-0.2-2
		c3.4-0.4,4.7,0.8,8.2,1c-2.7,2.6,1.3,4.6,3.5,4.5C114.5,415.9,115.3,414.3,124.7,414.4z"/>
	<path display="inline" fill="#BAC1AF" d="M77.7,401.4c-0.2,0.9-1.7-0.2,0,2.5c-0.1,0.1-0.7-0.5-1.5,1.2c-0.4,0.9-1.4,10.4,1,9.2
		c-0.1,0.6,0.3,2.2-0.2,2.5c-1.4-2.6-2-0.6-4.2-1c3.5-2.2-3.7-5.9-5-6c1.4-5.4,8.3-1.1,6.5-7C77.8,402.2,75.1,399.3,77.7,401.4z"/>
	<path display="inline" fill="#BAC1AF" d="M275.7,420.9c-1.7,8.5-0.1-6.3-6.2,0.5c-5.9-1.9-8.8,1-9.2,1c-0.3,0-3.8-0.5-5.5-0.5
		c0.7-3.3,3.5-0.9,3.7-1c3.6-1.1,2.8-6,15.5-3c0.9,0.6,0.9,0.6,1.7,1.2C275.7,419.9,275.6,420.8,275.7,420.9z"/>
	<path display="inline" fill="#BAC1AF" d="M264.7,390.9c-1.4,1.5-1.4,1.5-2.7,3c-0.4-1.7-7.9,1.2-8.2,1.5c-1.6-1.2-0.5-0.7-0.5-1.5
		c0.1-3.7,1.3-4.3,4.7-2c1.4-2.8,5-1.7,7.5-2.5C265.1,390.2,265.1,390.2,264.7,390.9z"/>
	<path display="inline" fill="#DCE3DD" d="M123.7,418.4c-1.5,2.4-1.6,3.4-1.7,3.5c-1.2,1-2.1-0.2-4.7,0c-0.4-2.7-0.4-2.7-0.7-5.5
		c4.4,1.2,8.3-0.4,5.7,1.7C123,418.3,123,418.3,123.7,418.4z"/>
	<path display="inline" fill="#BAC1AF" d="M319.7,409.9c0,0.1,1.5,1.4,1,2.2c-0.5,0.8-3.3-3.6-3.7,4.2c-3.3-2.5-0.1-4.4-5.7-2.5
		c0.3-3.9,3.6-2,4-2.2C315.6,404.2,315.6,409.1,319.7,409.9z"/>
	<path display="inline" fill="#BAC1AF" d="M289.2,387.4c-0.9,1.5-1.5,2.3-1,4c-2.8,0.5-1.9-3.2-7-2.5c0.7-1.1,1.7-2,2.5-3
		c0.3-0.4,0.8-1,1-1.5c3.2,1.5,1.8-1.3,2.7-1C288.6,383.8,284.5,389.8,289.2,387.4z"/>
	<path display="inline" fill="#A0B091" d="M138.7,413.9c0,1.5-1.7,2.2,1.5,2c-0.9,2.5-2.6-0.4-3.7-0.5c-1.2-0.1-6.7,0.9-7.2-0.2
		C127.4,410.9,135.6,414.1,138.7,413.9z"/>
	<path display="inline" fill="#DCE3DD" d="M295.7,413.9c2.5,2.4,0.1,2.4,0,2.5C289.6,415.8,291.2,414.2,295.7,413.9z"/>
	<path display="inline" fill="#DCE3DD" d="M268.9,382.9c3.7-1.6,1.6,5,1,5C269.1,387.9,268.7,383,268.9,382.9z"/>
	<path display="inline" fill="#BAC1AF" d="M74.2,402.9c1.8,5.9-5.1,1.6-6.5,7c-4-0.2-9.7,6.2-9.5,3.7c6.2-5.3,0.1-1.1-0.2-1.2
		c-0.5-0.3,0.2-1.4-0.7-1.5c1.7-4.8,3.8-6.4,8.7-4c1-0.3,1.6-1.5,1.7-1.5c3.8-1.5,2.4-1.1,3.5-5.5C72,400.1,72.6,397.7,74.2,402.9z"
		/>
	<path display="inline" fill="#BAC1AF" d="M67.7,396.4c-0.1,0.4,1.1,0.6-0.2,1.5c-6.5,0.5-12,5.7-16.7,10
		c-10.6-3.3,6.2-10.6,10.5-11.5C63.1,396,65.7,396.4,67.7,396.4z"/>
	<path display="inline" fill="#BAC1AF" d="M66.2,393.4c-0.5,3.2,1.2,1.5,1.7,2c1.6,1.3-0.2,0.9-0.2,1c-2,0-4.6-0.4-6.5,0
		c-2.4-3,2.9-1.9,0.2-5.5C63.8,392.2,63.8,392.2,66.2,393.4z"/>
	<path display="inline" fill="#BAC1AF" d="M97.7,396.4c-0.5,4.4-9,11-4,15c-0.7,1.4-0.7,3.2-1,4.7c-5.5,1-1.2-5.4-4.5-7.7
		C88.9,407.9,92.8,395.5,97.7,396.4z"/>
	<path display="inline" fill="#BAC1AF" d="M101.2,391.4c-1.6,0-2.2-0.3-3.5,1c-0.1,0.1,0.4,1.3-0.7,2c-0.6-3.3-1.5-1.2-4.7-4
		c7,0.4-1.7-6.2,2.7-5.5c1.1,0.2,2.1,4,3,4.5C98.2,389.5,100.5,387,101.2,391.4z"/>
	<path display="inline" fill="#A0B091" d="M71.2,399.9c-1.1,4.4,0.3,4-3.5,5.5c-2.7-2.5-2.3-6,2.2-6.5
		C71.8,398.7,71.1,399.9,71.2,399.9z"/>
	<path display="inline" fill="#DCE3DD" d="M125.2,416.9c-1.2-1.5-0.7-1-0.5-2.5c0.2-1.9,0.9-2.6,1.5-4.2c0.5,0,0.5,0,1,0
		C126.2,412.2,125.9,415.5,125.2,416.9z"/>
	<path display="inline" fill="#85956F" d="M250.2,404.4c0.2-0.4,0-1.1,1-2c3.4,1.5,8.1-0.1,9.7,4c11.1-2.9-6.6,12.2-13.7,4.2
		C248.8,408.9,249.1,406.4,250.2,404.4z"/>
	<path display="inline" fill="#BAC1AF" d="M303.2,389.9c-0.1,0-0.9,0.9-1.2,1c-1,0.1-3.1-1.6-6.7,0.5c-2.2-6.5-5-0.8-5.5-0.5
		c-0.5,0.4-0.9,0.4-1.5,0.5c-0.5-1.7,0.1-2.5,1-4c4.8-7.4,1.9,0.8,5.2-2.5c1.4,3.4,4.7,0.5,5,0.5
		C299.8,385.4,304.3,388.4,303.2,389.9z"/>
	<path display="inline" fill="#A0B091" d="M299.7,404.9c0.6,2.2,0.6,2.2,1.2,4.5c-1.8-1.3-3.4-1.1-5.2-1.5c-1.3-0.3-2.7-0.5-4-1
		c-1.5-1.8,1.7-2.5,1.7-6.5C296.6,402.7,296.6,402.7,299.7,404.9z"/>
	<path display="inline" fill="#A0B091" d="M275.7,391.9c1.6,0.3,2.1,1.7,2.5,2c-1.1,1.7-1.1,1.7-2.2,3.5c-1.1-1.6-7.1,6.2-6.2,0.7
		c0-0.1,2.1-1,1.5-2.5c-0.4-1.2-8.2,0.9-2.2-1.7c0.1,0,0.6,0.9,1.5,0.5C270.8,394.2,272.3,391.2,275.7,391.9z"/>
	<path display="inline" fill="#BAC1AF" d="M302.7,394.4c-1.6-1.4-1.5-2.4-1.7-2.5c-1.7-0.8-3.8,0.5-5.2,1c-1.7-0.7-0.4-1.1-0.5-1.5
		c3.6-2.1,5.8-0.4,6.7-0.5c0.3-0.1,1.2-1,1.2-1c2.8-0.3,1.1-2.5,6.5,2.7C306.2,393.5,306.2,393.5,302.7,394.4z"/>
	<path display="inline" fill="#BAC1AF" d="M295.2,391.4c0.1,0.4-1.2,0.8,0.5,1.5c-0.3,0.1-3.5,2.9-5.2,2c-3.4-1.6,1.6-2.7-0.7-4
		C290.2,390.6,293,385,295.2,391.4z"/>
	<path display="inline" fill="#A0B091" d="M279.2,393.9c0-0.2,0-0.3,0-0.5c5.1-3.5,2.6,8.3,0,3.7c-0.3-0.6,1-2.8,1-3
		C280.2,393.8,279.2,394,279.2,393.9z"/>
	<path display="inline" fill="#C0D1B6" d="M287.4,398.9c0.4-0.8,5.8,4.3,1,2C287.9,400.7,287,399.8,287.4,398.9z"/>
	<path display="inline" fill="#A0B091" d="M261.9,403.4c0.5,0,2.7,0.6,2.7,0.7C264.8,404.8,262.2,405.7,261.9,403.4z"/>
	<path display="inline" fill="#BAC1AF" d="M313.2,394.9c1.6-1.1,3.3-5.5,9.5-1.7c-7.3,2.4-6.3,3.7-6.7,3.7
		C315.8,397,315.5,395.8,313.2,394.9z"/>
</g>
<g id="Background_00000164484173776468879820000011961328660552726457_" display="none">
	<path display="inline" fill="#A6A6A6" d="M433.7,653.9c-6.3-0.1-12.7,0-19,0c0-255.7,0-255.7,0-511.5c255.7,0,255.7,0,511.5,0
		c0,255.5,0,255.5,0,511c-3.9-0.7-3.9-0.7-7.7-1.5c-110.5-0.8-221.1,1.4-331.6-1.5c-48.3,0.8-96.6,1.8-144.8,1.5
		C437.8,652.9,437.8,652.9,433.7,653.9z"/>
	<path display="inline" fill="#A6A6A6" d="M926.2,653.4c-164.1-0.3-328.4,2.1-492.5,0.5c4.1-1,4.1-1,8.2-2
		c48.3,0.3,96.6-0.7,144.8-1.5c110.5,2.9,221.1,0.7,331.6,1.5C922.3,652.7,922.3,652.7,926.2,653.4z"/>
	<path display="inline" fill="#A6A6A6" d="M804.3,415.2c-10.4-18.6-17.1-11.9,4.2-11.5c13,0.3,27.4-4.9,33.2-17.5
		c3.8,0,9.4-3.8,10.2-4c16.7-3.2,14,11.6,28.5,10.5c3.7,1.5,3.1,5.4,7,4.5c6.4-7,2.6-11,7.2-19.2c2.9-21.7,3.9-43.5,4.5-65.4
		c3-13.2,3-13.2,6-26.5c4-26-0.8-40.4-13.5-62.9c-3.4-5.5-8.3-9.3-9.5-14.5c-3.4-4.2-5.7,0.4-9.7-8.7c-7.5,0.9-8.6-9.9-16.5-7
		c-1.3-0.2-8.9-8.4-16-6.5c-1.5-1-1.5-1-3-2c-2.5,0-2.5,0-5,0c-11.5-6.6-19.6-4.2-22-4.5c-3-0.4-6.9-1.9-7.5-2
		c-22.6-2.9-45.6-4-67.9-9c-40.8-0.4-81.6-2.3-122.4,0.5c-19.9,4-40.3,4.8-60.4,8c-6.3,1-12.4,3.6-19,3c-37,10.4-66.4,8-88.7,44.2
		c-11.8,24.2-12.3,30.7-9.5,57.4c1.7,7.2,5.9,16.5,7.5,23c4.9,19.7,4.8,50.1,6,71.4c0.1,1.5-0.7,7.5-0.5,10.5
		c0.3,3.7,2.3,23.4,9,16.5c0.3-0.3,4-6.2,4.5-7c0.2-0.4-0.2-2.6,0-3c1.3-2.3,4.8-4.6,5-9.5c8.2-7.1,11.3-3.2,20.7-0.7
		c4.5,4.7,4.5,4.7,9,9.5c3.9,1,6.7,1.6,10.2,3.5c10.1,8.9,28.8,8.7,41.2,5.5c-3.9,5.3-8.7,10.1-11.7,16c-1-0.2,0.1-3.1-2.2-4.5
		c-0.9-0.5-14.5-4-11.5-0.5c0.3,0.4,8,0.8,3,6c-0.2,0.2-4.5,2.1-6.5,1.5c0.8-7.8-3.7-12.2-3.2-3.2c-9.7,4.5-1,7.3-18.7,5.2
		c-0.9,0.3-2.4,6.1-3.5,6.5c-1.3,0.5-6.2-7.5-6,1.5c-11.9,0.1-4.6,4.3-10.2,9.7c0.2,3.7,0.2,3.7,0.5,7.5c4.3,3.2,1.4,7.5,1.5,8
		c1.4,7.6,5.5,17.3,6.5,25c2.2,3.2,2.2,3.2,4.5,6.5c-1.2,8.6,5.6,11.7,4.5,22.5c-0.5,5.3-5.5,3.6-7.7,0.7c-1.5,1.7-8.2-6.2-7.7-8.7
		c-7.2-4.6-10.1-12.4-16.5-18c-9-19.5-25.7-36.3-27.5-58.4c-4.4-5.2-4.3-21-3.5-27.5c0.9-7.1,6.7-11.1,1.5-17c0-1.6,1.5-5.7,1.5-6
		c-0.1-13.8,0.5-43.2,0-49.9c-1.4-18.2-8.8-36-10.5-53.9c-0.5-5.9,0.1-15.6,0-22c0.8-2.9,3-2.9,3.5-4c1.2-2.5,0.9-14.9,6.5-20
		c-2.9-5.1,4.8-13.9,9.5-16c-1.9-3.7,11.9-17,14.2-18.7c4.6-3.3,18.6-8.9,24.5-8.5c3.6-4.9,7.9-3.9,13-5.5c1.2-0.4,3.1-1.8,4-2
		c15.3-4.2,31.3-4.8,46.9-7.5c4.4-1,4.7,3.1,9,2c1.6-0.4,2.5-3.2,3.5-3.5c2.6-0.8,12.8,4.7,18-1.5c7.5-0.7,7.5-0.7,15-1.5
		c7.2,0.7,7.2,0.7,14.5,1.5c15.1-2.2,30.3-2.7,45.5-3c0.1,0,1.4-1,1.5-1c1.5,0,2.8,1,3,1c20.3-0.3,40.7,1.2,60.9-1
		c4.4,3.3,17.7,0.5,31,1.5c1.1,0.1,4.6,2.2,8,2.5c8.9-2.3,17.9,1.5,27,0.5c11.2,2.4,22.7,2.9,34,4c0.6,0.4,2.4,1.5,2.5,1.5
		c26.2,4.8,51.3,12.1,70.2,32.2c7.2,7.7,18.8,25.9,22.5,35.5c3.4,8.7,3.9,18.2,6.5,27c-0.3,5.1-3.2,36.2-4,38c-0.6,1.3-2.3,0-3,2
		c-0.9,2.7,1,6.6,1,7c0.3,10.2-0.4,26.4-0.5,38c0,0.9-3.1,2.5,0,17.5c-1.4,32.8,5.9,67-17.5,93.9c-0.8,4.4-2.8,9-7,11
		c-2.7,11.5-5.9,10.8-7,12.5c-2,3.1-2.4,9.7-4,13c-2,4.1-20.4,27.6-27.7,27.7c-3.6,7.3-3.5,9.8-12.5,10c-3.1,0.1,0-7.9,0.2-8.2
		c0.9-1.2,3.2,1.9,4.5-1.5c-2.2-15.5,6.2-28.9,9-44c7.8-8.7,7-21.2,11.5-31.5c0.5-8.2,0.5-8.2,1-16.5c-5-6.9-3.3-15.1-13.7-11.2
		c-1.3-3.1-8-2.9-4.5-6.5c-3.4-1.4-11.5-1-14-2.5c-3.4-2.1,2.3-9-22-7C803.9,409.2,810.8,408.3,804.3,415.2z"/>
	<path display="inline" fill="#A6A6A6" d="M535.1,468.1c1.6,4.1,3.1,9.2,7,11.7c0.5,9.9,19,26.4,28.5,30c-2,4.1-17.9,23.8-7.2,25.7
		c7.8,1.4,8.5-14.1,14-19.5c2.1,1,5.5,1.3,7.2,2c-1.5,4.6-10.4-4.9-0.2,8c8.9,1.4,1.5,5.7,8.7,10.2c-4.9,3.7,0.4,7.7,2.7,3.2
		c9.5,0.1-4.9,3.2,0.5,6c4.3,2.2,7.5-2.5,8-2.5c3.7-0.2-2.1,4,0,5c1,0.5,2.7-2.2,5-1.5c1.1,0.3,2,5.7,7,1.5c2.1,1.5-1.4,3,0,4.5
		c0.3,0.3,8,2.9,8.5,3c8.7,1.5,14.7-2.3,15.5,1.5c8.1,0,5.9-2.7,9-3.5c1-0.3,11.8,0.1,11.7,1.2c0,0.3-4.8,3.7,0.2,2.2
		c2.8-0.8-1.9-3.1,4-3.5c6.4-0.4,4.4,2.4,5.5,3c2,1.1,39.5-2.1,45-2c10.9-2.6,22-5,32.2-9.2c1.1-6.3,7.8-10.9,12.5-13.5
		c-0.6-3.7,1.6-6.7,3-10c-2.1-1.4-3.1-3.4-4-5.7c10.7-0.8,6.5,20,15.7,19.5c7.2-0.4,5.1-12.9,0.2-14.7c-2-5.7-2-5.7-4-11.5
		c5.7-3.3,14.8-6.4,16-13.5c5.9-1.6,11.2-10.4,11.5-16.5c4.6-2.9,8.5-13,10-18.2c2.2,0.4,3.9-5.4,4.2-5.5c2.1,2.6,4.8-0.2,7,0
		c15,1.1,9.6,14.7,11.7,25.2c-4.7,24.3-18.3,46.3-36.2,63.2c-4.3,0.9-11.3,6.4-14.5,8c-3.4,1.7-44,19.2-46.5,20
		c-16.3,5.1-67.9,9.4-84.9,8c-8.8-2.4-19.9-4-29-4c-21.1-8-41.6-18.4-62.4-26.5c-7.6-6.6-12.1-6.1-20.2-14.7
		c-11.3-11.9-37.4-55.4-16.5-66.9c-2.4-6.3,1.2-3.6,3.7-5.2C535,456.5,528.2,456.7,535.1,468.1z"/>
	<path display="inline" fill="#BBBBBA" d="M841.8,386.2c4.6-10,9.8-48.6,24.5-68.2c6.5-8.7,22.8-20,28-33.5
		c10.3-26.7-14.9-31.6-35.5-30.2c-7.6-6.3-13.1-3.8-14.2-8c-5.5,0.9-9.6-3.7-13-5c-0.2-0.1-2.1,0.5-5-0.5c-4-1.4-4-5.7-10.5-1.5
		c-1.3-4-10.7-0.7-14-6c-8.7-1.2-8-7.6-17-9c-11.1-9.5-26.4-13.5-40-18.5c-5.7-0.9-12.9-1.6-18-4c-9.3-0.7-18.6-1.4-27.5-4
		c-8.7-0.5-17.8,0-26-3c-15.6,4.6-36.5-1.3-48.9,5c-8.4-1-12,4.5-22,2c-9.7,7.3-26.2,4.1-35,10.5c-10.2,0.7-10.7,4.6-11.5,5
		c-0.5,0.3-4.1,0.4-10,5c-1.7,1.3-3.9,5.4-5.5,6c-2.6,1-6.3-1.4-7.5,0c-1.1,1.3,3.4,5.8-1,4.5c-0.2,0-1.2-2.3-2-2.5
		c-3.4-0.8-29.4,8.2-31.5,14.5c-6.1,1.6-11.6,5.5-17,9c-4.1-0.8-11.7-1.1-11.2,0.5c-16.9,0.9-31.1,7-25.5,26.7
		c4.7,16.6,24.7,28.5,33.5,43.5c14.5,24.8,14.8,60.5,27.5,71.7c-3.5-1.9-6.4-2.5-10.2-3.5c-4.5-4.7-4.5-4.7-9-9.5
		c-9.4-2.5-12.6-6.3-20.7,0.7c-0.2,4.9-3.7,7.2-5,9.5c-0.2,0.4,0.2,2.6,0,3c-0.5,0.8-4.2,6.7-4.5,7c-6.7,6.9-8.7-12.8-9-16.5
		c-0.2-2.9,0.6-9,0.5-10.5c-1.2-21.3-1.1-51.7-6-71.4c-1.6-6.5-5.8-15.8-7.5-23c-2.8-26.7-2.4-33.3,9.5-57.4
		c22.3-36.2,51.7-33.8,88.7-44.2c6.6,0.6,12.7-2,19-3c20.1-3.1,40.5-4,60.4-8c40.7-2.8,81.6-0.9,122.4-0.5c22.4,5,45.3,6.1,67.9,9
		c0.6,0.1,4.5,1.6,7.5,2c2.4,0.3,10.5-2.1,22,4.5c2.5,0,2.5,0,5,0c1.5,1,1.5,1,3,2c7-1.9,14.7,6.3,16,6.5c7.9-2.9,9,7.9,16.5,7
		c4.1,9.1,6.4,4.6,9.7,8.7c1.2,5.2,6.1,9,9.5,14.5c12.7,22.5,17.5,36.9,13.5,62.9c-3,13.2-3,13.2-6,26.5
		c-0.6,21.9-1.6,43.7-4.5,65.4c-4.7,8.2-0.9,12.2-7.2,19.2c-3.9,0.9-3.3-3-7-4.5c-14.4,1.1-11.7-13.7-28.5-10.5
		C851.2,382.4,845.6,386.2,841.8,386.2z"/>
	<path display="inline" fill="#D0D0CF" d="M816.8,264.8c-17.4,6.7-39.8,18.3-55.4,28.5c-7.2-10.7-7.1,1.6-11.2-4.5
		c-1-1.5-0.1-5-1.2-6.7c-1.2-2-14-5.7-16-15.5c-11.9-8.1-24.8-4.9-40.2-13.7c-8.5-1.5-8.5-1.5-17-3c-4.4,1.3-8.7-0.6-12,2
		c-3.7-2.9-10.1,0.8-15.5,1.5c-8,1.1-18.2-1-24,5.5c-4.3-4.3-17.7,3-19.2,9.2c-9.2,3.6-8.2,11.5-16.7,11.2c-1.3,1.4-7.3,6.2-7.7,7.2
		c-1.4,3.6,3.9,6-7,2.7c-15.9-10-33.3-18.6-50.9-25c0.5-4.2,3.8,2.8,11.2-0.5c0.5-0.2,7.4-5.9,7.7-6.2c0.3-0.3-1.3-4.6,5.7-3.7
		c7.5-6.5,14.6-7.1,16.5-12.5c9.7-2.2,17.7-9.9,28.5-9.5c6.7-8.1,5.3-1.5,15-4c0.4-0.1,4.1-2.6,5.5-3c3.1-1,8-0.1,9.5-3.5
		c13.9-0.9,38.4-8,49.4-9c4.1-0.4,16.2,0.1,20,1c3.1,3.5,8.6,2.9,13,4c1.2,0.3,3.4,1.7,4.5,2c4.3,1,8.8,0.1,16.2,3.2
		c3.4-12.7,7.2-1,14.2-0.7c0.1,3.9,2.7,1.8,5.5,3c1.7,0.7,5,5.2,5.5,0.5c12.1,0.9,19.3,5.7,6,5.5c-4.5-5.5-8.3-4.6-0.5,1.5
		c10.1,0.9,10.9,2.9,11.5,3c2.7,0.5,2-2.8,4.5-2c3.4,1.1-1.7,4.9,1,5.5c0.9,0.2,10.4-2.6,16.7,5.7c1.8,2.4-0.9,7.8,7.2,3.7
		c-5.9,7.2,2.4,7.2,6,12.5c5,0.1,6.5,3.5,8.5,4C813,265.2,817.2,263.3,816.8,264.8z"/>
	<path display="inline" fill="#D0D0CF" d="M761.4,293.3c-7.7,5-15.3,10.4-22.5,16c-1.2-1.3-5.6,4.5-8.2,5c-0.4,0.1-8.1-2.8-8.5-3
		c-0.2-0.1-1-3-2-3c-2.6-0.1-0.2,9.8-8.2-3.7c-0.2-6.6-0.2-6.6-0.5-13.2c1.9-1.9,3.6-4.8,6.2-7c0.4-0.4,8-1,5.7-7.7
		c-1.7-5-12.2,1.1-7,8c-20.2,19.3-35.9,40-41.5,67.9c-0.6,0.4-0.6,0.4-1.2,0.7c-2.9-0.4-2.9-0.4-5.7-0.7c-7-30.7-22.2-46.4-43-68.4
		c3.5-3.9-0.1-10.3-4.7-9.2c-4.6,1.1-1.7,10.9,3.5,9.5c1.4,1,2,2.8,3.2,4c-0.5,0.1-0.5,0.1-1,0.2c3.6,3.7-3-2.6-5.5,13
		c-12.9,8.6-7.8,9.9-8,11.5c-1.8,2-5.1-2.9-4.5,1.2c-8.8-7.1-25-19-34.5-25c10.9,3.3,5.6,0.8,7-2.7c0.4-1.1,6.5-5.8,7.7-7.2
		c8.5,0.3,7.6-7.7,16.7-11.2c1.5-6.2,14.9-13.5,19.2-9.2c5.7-6.5,16-4.4,24-5.5c5.4-0.7,11.7-4.4,15.5-1.5c3.3-2.6,7.6-0.7,12-2
		c8.5,1.5,8.5,1.5,17,3c15.4,8.8,28.3,5.6,40.2,13.7c2,9.7,14.7,13.5,16,15.5c1.1,1.8,0.2,5.2,1.2,6.7
		C754.3,294.9,754.2,282.6,761.4,293.3z"/>
	<path display="inline" fill="#BBBBBA" d="M858.8,254.4c-14.3,1-28.6,5.4-42,10.5c0.4-1.6-3.8,0.4-5.2,0c-2-0.5-3.5-3.9-8.5-4
		c-3.6-5.3-11.9-5.2-6-12.5c-8.1,4.1-5.5-1.4-7.2-3.7c-6.3-8.4-15.8-5.5-16.7-5.7c-2.7-0.6,2.4-4.4-1-5.5c-2.5-0.8-1.8,2.5-4.5,2
		c-0.6-0.1-1.4-2.1-11.5-3c-7.8-6.1-4-7,0.5-1.5c13.3,0.2,6.1-4.6-6-5.5c-0.5,4.7-3.8,0.2-5.5-0.5c-2.8-1.2-5.4,0.9-5.5-3
		c-7-0.3-10.8-12-14.2,0.7c-7.4-3.1-11.9-2.3-16.2-3.2c-1.1-0.3-3.3-1.7-4.5-2c-4.4-1.1-9.9-0.5-13-4c-3.8-0.9-15.9-1.4-20-1
		c-11,1-35.6,8.1-49.4,9c-1.5,3.4-6.4,2.5-9.5,3.5c-1.4,0.4-5.1,2.9-5.5,3c-9.7,2.5-8.3-4.1-15,4c-10.7-0.4-18.8,7.3-28.5,9.5
		c-1.9,5.4-9,6-16.5,12.5c-7.1-0.8-5.5,3.4-5.7,3.7c-0.3,0.4-7.3,6-7.7,6.2c-7.4,3.3-10.8-3.7-11.2,0.5c-16.6-6-34.1-11-51.9-10
		c-0.5-1.6,7.1-1.3,11.2-0.5c5.4-3.5,10.9-7.4,17-9c2-6.3,28-15.3,31.5-14.5c0.8,0.2,1.8,2.5,2,2.5c4.4,1.3-0.1-3.2,1-4.5
		c1.2-1.4,4.9,1,7.5,0c1.6-0.6,3.8-4.7,5.5-6c5.9-4.5,9.5-4.7,10-5c0.8-0.4,1.3-4.3,11.5-5c8.8-6.4,25.3-3.2,35-10.5
		c10,2.5,13.5-3,22-2c12.5-6.3,33.3-0.4,48.9-5c8.2,3,17.3,2.5,26,3c8.8,2.6,18.2,3.3,27.5,4c5,2.4,12.3,3.1,18,4
		c13.5,5,28.9,8.9,40,18.5c9,1.4,8.3,7.8,17,9c3.3,5.3,12.7,2,14,6c6.5-4.2,6.5,0.1,10.5,1.5c2.9,1,4.8,0.4,5,0.5
		c3.4,1.3,7.5,5.9,13,5C845.7,250.6,851.2,248,858.8,254.4z"/>
	<path display="inline" fill="#8F8F8D" d="M687.5,483.6c1.7,2.9,9.5,15.5,11,17.7c1.1,1.6,2.3,1,3,2c0.1,0.1,0.3,2.1,1,3
		c3.7,5.1,11.1,15.6,16.7,17.7c3.8,1.4,18.7,2.2,23,1.5c8.5-1.4,16.2-9.4,17.2-9.5c0.9,2.3,1.9,4.4,4,5.7c-1.4,3.3-3.6,6.3-3,10
		c-4.7,2.6-11.4,7.2-12.5,13.5c-10.2,4.2-21.3,6.6-32.2,9.2c-5.5-0.1-43,3.1-45,2c-1.1-0.6,0.9-3.4-5.5-3c-5.9,0.4-1.2,2.7-4,3.5
		c-5.1,1.4-0.3-2-0.2-2.2c0-1.2-10.7-1.5-11.7-1.2c-3.1,0.8-0.9,3.5-9,3.5c-0.8-3.8-6.8,0-15.5-1.5c-0.4-0.1-8.2-2.7-8.5-3
		c-1.4-1.5,2.1-3,0-4.5c-5,4.2-5.9-1.2-7-1.5c-2.3-0.7-4,2-5,1.5c-2.1-1,3.7-5.1,0-5c-0.5,0-3.7,4.7-8,2.5c-5.4-2.8,9-5.9-0.5-6
		c-2.4,4.5-7.6,0.4-2.7-3.2c-7.2-4.5,0.2-8.8-8.7-10.2c-10.2-12.9-1.3-3.4,0.2-8c5.5,2.2,7,6.6,14.2,7.5
		c22.3-0.2,21.2,2.6,36.7-13.7c0-1.5-5.2,2.2-7-1c0.1-1.1,4,0.9,9.7-3.2c2.5-1.8,14-18.3,16.2-22c1.9,1,1.9,1,3.7,2
		c4.1-3.5,5.2-0.9,7.7,3c4.5,12.5,9.4,3.7,11-6c3.3-0.5-0.1-3.3,6.7-2.5C684.7,482.2,686.2,483.9,687.5,483.6z"/>
	<path display="inline" fill="#E6E6E5" d="M627,288.3c7.5,7.2,23.5,26,28.5,34.7c2.9,5,12.7,28,12,30.5c-0.2,0.7-4.3,2.2-4.7,2.7
		c-2.3,3,11.2,13.9,0,10.5c-2.1-0.6-26.2-26.9-30.5-31c-7.7-7.3-16-14.8-24.2-21.5c-0.6-4.2,2.7,0.8,4.5-1.2c0.1-1.6-4.9-2.9,8-11.5
		c2.5-15.5,9.1-9.2,5.5-13C626.5,288.4,626.5,288.4,627,288.3z"/>
	<path display="inline" fill="#E6E6E5" d="M738.9,309.3c-18.1,14.1-34.9,30.4-50.4,47.2c-7.1,7.7-7.7,12.7-13.2,10.2
		c9.7-13.8,3.9-8.8,1-12c-2-2.3,6-22.5,7.7-26.2c6.5-13.7,16.9-26.4,27.5-37.2c0.2,6.6,0.2,6.6,0.5,13.2c8,13.5,5.6,3.7,8.2,3.7
		c1,0,1.8,2.9,2,3c0.4,0.2,8,3.1,8.5,3C733.3,313.8,737.7,308,738.9,309.3z"/>
	<path display="inline" fill="#A6A6A6" d="M666,490.6c-2.6-3.9-3.7-6.5-7.7-3c-1.9-1-1.9-1-3.7-2c3.4-5.5,6.3-11.6,9.2-17.5
		C664.7,468.6,662.6,481.2,666,490.6z"/>
</g>
<g id="Background_00000118365910824213673890000001215933059380669857_" display="none">
	<path display="inline" fill="#BBBAB8" d="M839.8-2.1c0,256,0,256,0,512c-256,0-256,0-512,0c0-256,0-256,0-512
		C583.8-2.1,583.8-2.1,839.8-2.1z"/>
</g>
<g id="Background_00000150813036284007513270000000662105428228957342_" display="none">
	<path display="inline" fill="#A9A6A5" d="M260.5,653c0-254.5,0-254.5,0-509c256,0,256,0,512,0c0,255,0,255,0,510
		C516.5,653.5,516.5,653.5,260.5,653z"/>
	<path display="inline" fill="#A9A6A5" d="M772.5,654c0,1,0,1,0,2c-256,0-256,0-512,0c0-1.5,0-1.5,0-3
		C516.5,653.5,516.5,653.5,772.5,654z"/>
	<linearGradient id="SVGID_1_" gradientUnits="userSpaceOnUse" x1="514.7349" y1="554.2886" x2="514.5215" y2="584.7878">
		<stop  offset="0" style="stop-color:#305D61"/>
		<stop  offset="1" style="stop-color:#729B9A"/>
	</linearGradient>
	<path display="inline" fill="url(#SVGID_1_)" d="M362.5,551c70.1,5.9,163.2,7.6,233.2,5c23.7-0.9,47.6-3.1,71.2-4.5
		c1.5-0.1,3.6-0.5,5-1c5.6,3,17.8,3.7,15,16.2c-3.3,14.9-45,17.9-57.8,19.2c-57.3,5.9-152.1,5.5-210,1c-15.4-1.2-76.5-3.3-77.2-24.2
		c-0.5-12.8,12.3-10.5,13.2-10.8c0.2,0,1.6-1,3.2-1.5C358.4,551.2,361,551.2,362.5,551z"/>
	<path display="inline" fill="#BDC1BA" d="M366.7,231.5c4.6-0.8,0.4,5.7-2.5,4.5C361.7,234.9,366.4,231.6,366.7,231.5z"/>
	<path display="inline" fill="#C5BBBB" d="M729.5,327.5c0,0-0.7,0-1,0c0-1.1,0.1-2.4,0-3.5c1.4-0.2,7.1,5.7,5.2,6.5
		C732.5,330.4,731.3,324,729.5,327.5z"/>
	<path display="inline" fill="#BDC1BA" d="M625.2,212c0.5,0,2.9-0.1,3,0C633.8,214.5,612,212.6,625.2,212z"/>
	<path display="inline" fill="#C5BBBB" d="M501.7,239.5c1.8-0.1,2.2,2.6,0.5,3C499.9,243,499.9,239.7,501.7,239.5z"/>
	<path display="inline" fill="#C5BBBB" d="M719.7,270c0.5,0.2-0.1,1.4-0.2,1.8C717.7,275.1,711,277.7,719.7,270z"/>
	<path display="inline" fill="#BDC1BA" d="M647.2,215.5c0.5,0,1.8,2.9,1,3.5C645.9,220.8,645.5,215.5,647.2,215.5z"/>
	<path display="inline" fill="#BDC1BA" d="M402.2,212.5c1.7-0.7,2.6,2.4,1,3C401.2,216.3,401.2,213,402.2,212.5z"/>
	<path display="inline" fill="#DBD7D2" d="M520.7,243.5c2-0.5,2.3,2.2,1,2.5C520.7,246.3,519.5,243.8,520.7,243.5z"/>
	<path display="inline" fill="#DBD7D2" d="M340.7,246c0.5-0.1,2.8,1.3,2.8,1.8C342.9,250.3,339.2,246.3,340.7,246z"/>
	<path display="inline" fill="#817C7A" d="M731.7,350.5c1.7,0,0.2,3,0,3C730.8,353.5,730.7,350.5,731.7,350.5z"/>
	<path display="inline" fill="#817C7A" d="M702.7,256.5c1.1-0.1,1.8,2.3,0.5,2.5C702.7,259.1,701.2,256.7,702.7,256.5z"/>
	<path display="inline" fill="#DBD7D2" d="M590.7,210c1.2-0.3,1.7,1.7,0.5,2C590,212.3,589.6,210.3,590.7,210z"/>
	<path display="inline" fill="#BDC1BA" d="M414.7,209c1.2-0.2,1.2,2.7,0,2.5C413.8,211.4,413.8,209.1,414.7,209z"/>
	<path display="inline" fill="#FFFFFF" d="M714.7,432.5c1.9,0,0.3,3.3-0.8,1.8C713.7,433.8,714.4,432.5,714.7,432.5z"/>
	<path display="inline" fill="#989594" d="M737.2,360.5c0.4-0.2,1.7-0.3,1.8,0.8C739,362.8,735.8,361.3,737.2,360.5z"/>
	<path display="inline" fill="#DBD7D2" d="M733.2,290.5c3-0.4-0.5,3.3-0.8,0.8C732.5,291.2,733.2,290.5,733.2,290.5z"/>
	<path display="inline" fill="#DBD7D2" d="M306.7,406c1.1-0.6,1.8,1.1,1,1.5C306.6,408.1,305.9,406.4,306.7,406z"/>
	<path display="inline" fill="#DBD7D2" d="M720.7,424c0.3,0,1.3,1.1,0.2,1.8C719.9,426.4,719.7,424,720.7,424z"/>
	<path display="inline" fill="#BDC1BA" d="M705.7,260c1.7-1.1,0.9,3.4-0.2,1.2C705.4,261,705.4,260.2,705.7,260z"/>
	<path display="inline" fill="#817C7A" d="M736.2,351c0.3,0,1.3,1.1,0.2,1.8C735.4,353.4,735.2,351,736.2,351z"/>
	<path display="inline" fill="#DBD7D2" d="M610.2,211c0.4-0.2,1.8,0.3,1.8,0.8C612,212.9,608.7,211.8,610.2,211z"/>
	<path display="inline" fill="#DBD7D2" d="M614.2,209.5c1.6-0.8,1.4,1.5,0.5,1.5C613.6,211,613.8,209.7,614.2,209.5z"/>
	<path display="inline" fill="#C5BBBB" d="M477.2,220c1-0.5,1.5,1.6,0.5,1.5C476.6,221.4,476.8,220.2,477.2,220z"/>
	<path display="inline" fill="#BDC1BA" d="M375.2,228.5c1-0.5,1.5,1.6,0.5,1.5C374.6,229.9,374.8,228.7,375.2,228.5z"/>
	<path display="inline" fill="#C5BBBB" d="M304.7,300.5c1.5-0.6,0.7,4.4-0.2,1.2C304.4,301.5,304.4,300.6,304.7,300.5z"/>
	<path display="inline" fill="#C5BBBB" d="M302.7,318c0.6,0,0.8,2.5-0.2,1.8C301.4,319,302.5,318,302.7,318z"/>
	<path display="inline" fill="#DBD7D2" d="M605.2,208c0.4-0.3,1.6,0,1.2,0.8C606.1,209.5,604.2,208.8,605.2,208z"/>
	<path display="inline" fill="#DBD7D2" d="M597.2,208c0.4-0.3,1.6,0,1.2,0.8C598.1,209.5,596.2,208.8,597.2,208z"/>
	<path display="inline" fill="#DBD7D2" d="M299.2,307.5c0.4-0.3,1.6,0,1.2,0.8C300.1,309,298.2,308.3,299.2,307.5z"/>
	<path display="inline" fill="#DBD7D2" d="M291.2,355c0.2,0,1.1,0.7,0.2,1.2C290.5,356.8,290.4,355,291.2,355z"/>
	<path display="inline" fill="#C5BBBB" d="M430.2,208c0.1,0,1,0.7,0.5,1C429.4,209.7,429.3,208.1,430.2,208z"/>
	<path display="inline" fill="#BDC1BA" d="M296.7,326c0.1,0.1,0.1,0.1,0.2,0.2s0.1,0.1,0.2,0.2s0.1,0.1,0.2,0.2
		c-0.1,0.1-0.1,0.1-0.2,0.2c-0.2,0-0.2,0-0.5,0c-0.1-0.1-0.1-0.1-0.2-0.2c0-0.2,0-0.2,0-0.5C296.6,326.1,296.6,326.1,296.7,326z"/>
	<path display="inline" fill="#DBD7D2" d="M298.2,368c0.2,0,0.2,0,0.5,0c0.1,0.1,0.1,0.1,0.2,0.2c0,0.2,0,0.2,0,0.5
		c-0.1,0.1-0.1,0.1-0.2,0.2c-0.1-0.1-0.1-0.1-0.2-0.2s-0.1-0.1-0.2-0.2s-0.1-0.1-0.2-0.2C298.1,368.1,298.1,368.1,298.2,368z"/>
</g>
<g>
	<path fill="#C49A6C" d="M1041.7,564.8c0.8,0.4,1.7,0.9,2.5,1.3v0C1043.3,565.7,1042.5,565.2,1041.7,564.8z"/>
	<path fill="#C49A6C" d="M1001.5,534.8c4.7,2.4,6.5,4.9,5.2,7.9C1008,539.7,1006.3,537.2,1001.5,534.8c0-9.4,0-18.7,0-28.1
		C1001.6,516.1,1001.5,525.4,1001.5,534.8z"/>
	<path fill="#C49A6C" d="M1109.8,443.4c-0.5-0.2-0.9-0.5-1.6-0.9c2.3-11.5,1.2-22.3-6.4-31.6c-7.7-9.6-18.2-12.5-29.9-11.4
		c-0.3-4.3-0.1-8.1-0.9-11.6c-4.1-17.4-21.5-27.1-39.3-22.2c-2.6,0.7-4.2,0.6-6.1-1.5c-4.4-4.8-9.9-7.9-16.4-8.6
		c-4.9-0.5-10-0.1-15.2-0.1c-2.4-21-14.3-34.2-35.4-38.3c-19.6-3.8-34.5,4.1-44.7,20.5c-4.7-0.8-9.1-1.6-13.7-2.5
		c0.3-1.1,0.6-2.4,1-3.7c8.2-27.5,11.7-55.6,8.5-84.2c-4.1-37.6-16.9-72-40-102.2c-21.7-28.2-49.1-48.5-83.2-59.2
		c-27.5-8.6-55.6-9.5-83.9-6c-34.5,4.3-65.7,16.8-93.1,38.5c-2.9,2.3-5.9,4.7-8.2,6.5c-2.5-3.1-4.4-7.6-7-8
		c-2.4-0.4-5.7,3.3-8.9,5.5c0.3,0.2-0.2,0-0.6-0.4c-16.3-14.4-35-24.5-55.5-31.5c-25.9-8.8-52.6-11.7-79.9-9.9
		c-18.5,1.2-36.5,4.3-53.6,11.4c-46.1,19-78.1,52.6-97.4,97.8c-21.3,49.7-21.9,100.8-5.5,152.1c2.1,6.6,4.7,13.1,7.2,19.8
		c-2.5,1.2-4.8,2.4-7.1,3.6c-8.3-9.2-18.4-12.3-30.5-9.3c-0.5-1.6-1-3.1-1.4-4.5c-5.3-16.9-20.7-28.4-38.4-28.2
		c-15.2,0.1-27.2,6.7-36.2,18.8c-1.7,2.3-2.9,3.1-6,2.2c-9.5-2.6-18.2-0.4-26,5.4c-11.1,8.3-15.6,20.4-17.5,33.3
		c-0.7,5,1.6,10.6,3,15.8c0.7,2.5,2.7,4.7,4.8,8.2c-3.6,0.4-6.9,1.7-9.2,0.8c-11.2-4.7-22.7-2.6-30.9,6.2c-6.6,7.1-9,15.6-8.6,25
		c0.2,3.3-0.7,4.7-4.1,5.6c-9.2,2.6-15.1,8.9-16.8,18.4c-1.6,9,1.9,16.1,8.9,21.7c8.5,6.8,18.4,7.9,28.8,7.9c4.5,0,9,0.2,13.6,0.3
		c2.7,0.1,3.8,1.2,3.7,4.1c-0.2,8.9,0,17.9-0.1,26.8c0,1.2-1.1,2.8-2.2,3.5c-3.6,2.3-5,6.5-2.3,9.4c2.6,2.9,5.8,5.3,8.8,7.9
		c3-2.9,5.9-5.3,8.4-8c2.8-3,2-7.7-1.6-9.4c-1.2-0.6-2.6-0.7-3.8-1.1c0-9.6-0.1-19.2,0.1-28.8c0-1.3,1.7-3.1,3-3.7
		c7.7-3.3,15.6-3.6,23.6-0.6c2.5,1,3.7,2.2,3.7,5c-0.1,10.3,0.1,20.6-0.1,30.9c0,1.3-1.3,3.1-2.5,3.8c-3.6,2.3-4.6,6.7-1.6,9.8
		c2.1,2.3,4.5,4.3,7.1,6.8c2.8-2.7,5.6-5.1,8-7.9c2.7-3,1.6-7.2-2.1-8.9c-1.1-0.5-2.3-0.7-3.4-1.1c0-11.2,0.1-22.2-0.1-33.1
		c-0.1-3.5,1.4-4.9,4.6-5.6c7.1-1.5,13.9,0.5,20.7,2.2c3.2,0.8,4.3,2.4,4.2,5.8c-0.2,18-0.1,36-0.1,54c0,3-0.1,5.6-3.3,7.2
		c-1.1,0.6-2.2,2.9-1.9,4.1c0.2,1,2.3,2,3.8,2.3c1.7,0.3,3.6,0.1,5.3-0.2c1.5-0.3,2.8-1.2,4.3-1.8c-0.8-1.6-1.2-4-2.5-4.8
		c-2.5-1.4-2.6-3.2-2.5-5.5c0.1-19.8,0.4-39.6,0.2-59.4c0-4.4,1.9-5.1,5.4-4.8c12.2,0.8,21.1,6.9,28,16.6c0.6,0.9,1.2,2,1.2,3
		c0.1,11,0.1,21.9,0.1,32.8c-5.4,1.9-7.6,6.1-5.1,9.7c2.1,2.9,4.7,5.6,7.7,9c3.3-3.6,5.7-6.1,7.8-8.7c3.1-3.8,1.5-8.3-3.1-9.6
		c-0.7-0.2-1.5-0.4-2.2-0.6c0-9.6,0.1-19,0-28.3c-0.3-17.9,13.4-23.1,25.8-23.4c3.4-0.1,5.3,1.2,5.2,5.4
		c-0.3,19.4-0.4,38.7-0.4,58.1c0,3.3-0.6,5-4.2,6.1c-10.3,3.1-15.8,14.1-10.7,22.3c5.3,8.4,11.9,16,18.3,24.5
		c6.2-8,12.4-15.1,17.5-22.8c6-9.1,2-19.9-8.2-24c-1.6-0.7-3.3-1.2-4.9-1.7c0-21.2,0-42.2,0.1-63.2c0-1,0.9-2.5,1.7-2.8
		c8.2-2.9,16.5-4.3,25-1.5c1,0.3,2.3,1.5,2.3,2.3c0.3,4.8,0.3,9.6,0.1,14.4c0,1-1.4,2.1-2.4,2.9c-2.8,2.4-4,6.6-2.1,9.6
		c2,3,4.6,5.7,7.4,9.1c2.9-3.7,5.5-6.7,7.6-10c1.7-2.8,0.7-7.9-2.2-9.1c-3.6-1.5-3.5-3.9-3.3-6.9c0.1-2.5,0.2-5,0-7.4
		c-0.4-3.5,0.8-4.9,4.5-4.9c10.7,0.2,21.4,0.2,32.1,0.2c2.5,0,2.6,1.4,2.6,3.2c-0.1,4.7-0.3,9.3-0.1,14c0.1,2.9-0.9,4.2-3.7,5.3
		c-9.6,3.6-12.3,14.4-5.5,21.8c3.8,4.1,8.1,7.6,12,11.3c4-3.6,8.1-7,11.8-10.8c7.6-7.6,5.1-18.8-4.9-22.6c-1.2-0.4-2.5-0.4-3.5-1
		c-1-0.6-2.2-1.7-2.2-2.6c-0.2-6.2-0.1-12.3-0.1-17.7c7.3-4,14.1-7.6,21.3-11.5c3.6,3.2,7.3,7.3,11.8,10.5c4.9,3.5,6.6,7.8,5.5,13.3
		c-0.3,1.4-1.2,3.2-2.4,4c-2.9,2-4.3,4.3-4.4,7.8c-0.1,6.8,5.6,9.7,9.2,15c2.9-3.8,5.9-6.9,8-10.5c2.4-4.1,1.4-9.2-2.3-11.4
		c-3.7-2.2-3-4.8-1.9-8.2c8.7,7.3,17.2,14.2,25.5,21.3c0.8,0.7,1.2,2.1,1.3,3.3c0.1,6.3,0.2,12.7-0.1,19c-0.2,3.8-2,6.5-6.3,7.4
		c-9.5,2.1-13.6,12.8-7.5,20.3c5.4,6.6,11.7,12.5,17.4,18.5c5-5.2,9.9-10.3,14.8-15.5c1.2-1.3,2.4-2.7,3.3-4.2
		c4.9-8.1,1.1-17.2-8.1-19.2c-3.7-0.8-5.4-3.7-5.8-6.5c-0.6-5.1-0.2-10.3-0.2-15.5c0.7,0.2,1.1,0.1,1.2,0.3
		c24.2,21.1,48.5,42.1,72.5,63.5c6.7,6,11.8,13.6,13,22.9c0.9,7.2,0.9,14.5,1.3,21.8c0,0.8,0.2,1.6,0.4,2.3c1.4,0.2,2.6,0.4,3.6,0.6
		c0.2,0.5,0.4,0.8,0.4,1c-0.4,20.5-0.8,40.9-1.3,61.4c0,1.3-0.5,3.1-1.3,3.7c-4.5,3.2-3.4,7.6-3.2,11.8c41.7,0,83.1,0,124.2,0
		c0.6-2.9,1-5.4,1.6-8.4c-5-2.2-6.1-6.9-6-13c0.3-15.4-0.2-30.8-0.3-46.2c0-3.4,0-6.8,0-10.5c5.6,1,5.4-2.7,5.2-6.5
		c-0.1-2.1,0-4.1,0-6.2c0-14.9,5.1-27.7,16.2-37.8c11.1-10.1,22.2-20.1,33.3-30.1c0.5-0.5,1.3-0.6,1.9-0.9c0,22.6,0,45-0.1,67.4
		c0,2-1.1,4-1.7,6.2c-6.5-4-11-4-14-0.5c-3.1,3.6-2.5,8.7,1.8,13.8c2.8,3.4,5.8,6.6,8.7,9.9c2.9,3.2,5.9,6.4,9.4,10.1
		c6.8-8,13.2-15.3,19.2-22.9c2.5-3.1,2-8-0.3-10.8c-2.4-2.9-5.7-3.4-9-2.4c-1.9,0.5-3.4,2-5.8,3.4c-0.5-2.2-1.2-4-1.2-5.8
		c0.1-24.2,0.3-48.4,0.6-72.5c0-1.6,1.2-3.5,2.4-4.6c5.9-5.2,11.9-10.2,17.9-15.2c6.7-5.6,13.4-11.1,20.3-16.7
		c0,6.4,0.2,12.4-0.1,18.4c-0.4,8.4-2.3,16.3-9.4,21.9c-0.4,0.4-0.6,1-0.9,1.6c5,2.6,5.9,7.7,2.5,12c-0.7,0.9-0.5,3.2,0.2,4.4
		c5.1,8.6,17.7,9.3,23.8,1.3c1.7-2.1,3.7-4.5-0.1-6.8c-0.5-0.3-0.7-1.5-0.7-2.2c0.1-3.6-0.8-7.6,4.5-8.7c-0.6-1.1-0.8-1.7-1.2-2
		c-7.4-5.9-9.7-14-9.8-23c-0.1-6.9-0.2-13.7,0-20.6c0.1-1.6,1-3.7,2.2-4.8c9.7-8.5,19.6-16.8,29.4-25.2c4-3.4,8.1-6.7,12.8-10.6
		c0.1,1.8,0.2,2.8,0.2,3.9c0,9.3,0,18.7,0,28c0,5.1,0,5.1-5.1,4.5c-10.7-1.2-18,6.4-15.9,16.7c0.4,2,1,4.1,2,5.8
		c6.4,9.9,13,19.7,19.5,29.5c0.1,0.2,0.5,0.1,1.1,0.2c6.7-10,13.8-20,20.3-30.3c3.4-5.4,3.6-11.6-0.2-17.1c-3.5-5.1-8.6-6-14.3-4.6
		c-3.1,0.8-3.5-0.9-3.5-3.3c0.1-7.1,0.1-14.3,0.1-21.4c0-3.6,0-7.3,0-12c12.1,8.8,23.6,16.7,38.7,15.2c0,9.5,0.1,18.4-0.1,27.3
		c0,0.9-1.2,1.9-2.1,2.5c-4.1,2.7-5.4,7.4-2.6,11.4c2,2.9,4.5,5.4,7,8.3c2.5-2.9,4.8-5.2,6.7-7.9c3.1-4.3,1.9-9.1-2.4-12.1
		c-1-0.7-2.1-2.2-2.2-3.3c-0.1-7.4-0.1-14.8,0.2-22.3c0-1.2,1.4-3.1,2.5-3.4c7-2,14-2.3,21.1-0.5c2.4,0.6,3.3,1.9,3.2,4.4
		c-0.1,24.3-0.1,48.6-0.2,73c0,1.8-0.7,3.5-1.2,5.7c-1.3-0.6-2-0.9-2.5-1.2c-4.5-2.6-8-2.4-10.9,0.6c-3,3-3.8,7.6-0.8,11.3
		c6,7.4,12.6,14.3,19.8,22.3c6.8-7.7,12.9-14.7,18.9-21.7c0.6-0.7,0.9-1.7,1.1-2.6c1.1-3.9,0.3-7.4-3.1-9.9
		c-3.1-2.4-6.3-2.1-9.6-0.1c-0.8,0.5-1.8,0.9-3.3,1.5c-0.2-2.5-0.4-4.4-0.4-6.3c0.1-24,0.3-48.1,0.6-72.1c0-1.5,1.4-3.6,2.7-4.3
		c8.9-4.2,17.9-3.3,26.5,1.1c1.2,0.6,2.3,2.7,2.4,4.1c0.2,6.3,0,12.6,0.1,19c0,2-0.5,3.1-2.7,3.8c-4,1.3-5.4,5.4-2.9,8.5
		c2.3,2.9,5.3,5.3,8.5,8.5c2.6-2.8,4.9-5.2,7-7.7c2.8-3.4,2-7.3-2-9.1c-0.8-0.4-1.7-0.7-2.2-0.9c0-7.9,0.1-15.5-0.1-23.1
		c-0.1-3,1.1-4.1,3.8-4.8c11.3-2.9,24.9,4.3,26.2,15.8c1.4,11.5,0.3,23.2,0.3,33.3c-2.7,2.7-5.9,4.4-6.3,6.6
		c-0.4,2.1,1.6,5.3,3.4,7.1c5.5,5.6,5.6,5.5,11.5-0.2c5.4-5.2,4.4-9.7-2.4-12c0-9.4-0.1-18.7,0.1-28.1c0-2.3,0.6-4.8,1.7-6.7
		c6.3-10.7,16-16.2,28.3-17.3c3.3-0.3,5.3,0.9,5.2,4.9c-0.3,11.7-0.2,23.4-0.2,35c0,2.2-0.2,3.7-2.9,4.5c-4,1.1-5.1,5.7-2.4,9
		c2.2,2.7,4.4,5.2,6.7,8c2.6-2.5,4.1-4,5.7-5.5c1.8-1.6,2.9-3.1,3.5-4.5c1.2-3-0.5-5.5-5.2-7.9c0-9.4,0-18.7,0-28.1
		c0-3.1,0-6.2-0.1-9.4c0-2.5,1.3-3.3,3.3-3.9c9.4-2.6,18.7-2.2,28.1-0.2c2.3,0.5,3.1,1.6,3.1,4c-0.2,17.2-0.3,34.4-0.4,51.5
		c0,2.6-0.2,4.7-3.1,6c-1.2,0.5-2,2.8-2.1,4.4c0,0.6,2.1,1.8,3.4,2.1c2,0.5,4.1,0.8,6.1,0.5c1.5-0.3,4-1.6,4.1-2.5
		c0.1-1.5-1.5-3.1-2.4-4.7c-0.8-1.4-2.4-2.7-2.4-4.1c0-17.9,0.3-35.7,0.4-53.6c0-2.8,1-4.3,3.7-5c8.8-2.1,17.2-1.3,25.2,2.8
		c1.4,0.7,2.6,3.2,2.6,4.8c0.1,7.7-0.2,15.4-0.4,23.1c0,2-0.2,4-0.3,5.9c-6.2,1.1-9.1,3.5-8,7.3c0.6,2.1,2.7,3.9,4.4,5.6
		c2.1,2.1,4.5,5.4,6.8,5.4c2.3,0,4.9-3.1,6.8-5.4c1.7-2,3.8-4.9,3.5-7.2c-0.3-2.3-3.2-4.3-4.9-6.4c-0.4,0.1-0.7,0.2-1.1,0.4
		c0-9.1-0.1-18.1,0-27.2c0.1-9,0.1-9.2,9.2-9c8.2,0.1,16.3-0.3,23.7-4.2c9.1-4.8,14.7-12,14.4-22.6
		C1125,454.5,1119.5,447.4,1109.8,443.4z M242.4,504.6c-3.8-3.8-7.1-7.2-10.4-10.6c0.4-0.4,0.7-0.8,1.1-1.2c5.4,0,10.8,0,17.7,0
		C247.7,497.2,245.2,500.7,242.4,504.6z M820.3,129.2c34.5,26.4,52.7,62.6,62.5,104.8c-5.9-0.7-11.4-1.4-17.1-2.1
		c1.1-3,2-5.7,3.1-8.3c3.5-8.7-7.7-20.7-16-16.4c-0.7,0.4-1.9,0.3-2.8,0.1c-9.7-2.3-9.9-2.2-16.9,4.7c-10-50.3-35-88.6-82.9-109.7
		C776.1,104.6,799.7,113.3,820.3,129.2z M865.5,220.9c-0.6,6.4-10.1,14.1-16.6,13.6c-0.7-0.1-1.6-0.4-2.2-0.9
		c-4-3.1-6.2-7.2-6.7-12.2c-0.4-3.8,1.4-5.9,5.2-6.3c0.2,3.7,0.5,7.4,0.6,10.4c4.1-1,7.5-1.5,10.6-2.7c1.6-0.6,2.5-2.6,3.9-3.8
		c1.1-1,2.5-1.6,3.7-2.4C864.6,218,865.6,219.5,865.5,220.9z M670.1,500c13.9-24.4,27.2-48,40.6-71.6c0.3,0.1,0.6,0.1,0.9,0.2
		c0.5,2.7,0.9,5.5,1.5,8.2c1.7,8.3,5.3,15.8,10.5,22.5c1.7,2.2,1.9,3.7-0.1,6c-8.9,10.6-17.6,21.4-26.4,32c-1,1.2-2.6,2.5-3.9,2.5
		C685.8,500.1,678.5,500,670.1,500z M685.8,510.8c-2.7,3.8-4.6,6.9-6.9,9.7c-0.4,0.5-2.7,0.3-3-0.2c-1.6-2.8-2.9-5.8-4.6-9.5
		C676.3,510.8,680.4,510.8,685.8,510.8z M661.1,518c0.6-1.1,2.8-2.3,3.9-2.1c1.3,0.3,2.8,2,3.3,3.4c2.6,7.6,1.9,14.8-4.1,20.8
		c-0.8,0.7-1.7,1.8-2.5,1.9c-3.9,0.2-7.8,0.1-11.7,0.1c-0.3-0.4-0.5-0.9-0.8-1.3C653,533.1,656.9,525.5,661.1,518z M641.1,536.3
		c-0.4,0.8-2,1.7-2.4,1.5c-1-0.6-2.4-1.8-2.4-2.8c-0.2-8.3-0.1-16.7-0.1-25.8c5.4,0.4,10.1,0.5,14.7,1.1c0.6,0.1,1.8,2.4,1.4,3.1
		C648.7,521.1,644.9,528.7,641.1,536.3z M661.9,496.4c-1.5,2.8-3.1,4-6.3,4c-11.9-0.1-23.9-0.1-35.8-0.1c-1.1,0-2.1-0.2-4.1-0.4
		c7.4-57,18.8-112.9,35.2-168c5,7,9.7,13.8,14.6,20.3c2.5,3.3,5.3,6.3,8,9.4c15.5,17.4,35.3,13.8,49.3,2.4
		c7.2-5.9,12.5-14.1,18.7-21.2c1-1.1,1.7-2.4,2.7-3.8c2.9,2.7,4.1,4.8,1.9,8.6c-17.7,30.5-35.3,61-52.7,91.7
		C682.7,458.1,672.3,477.2,661.9,496.4z M560.4,311.1c-0.6-3.7,1.5-6.7,5.2-6.3c3.5,0.4,7.1,1.8,10.1,3.5c2.7,1.5,4.8,4,7,6.3
		c2,2.2,3.8,4.7,4.8,5.9c5.4-4.7,10.3-9.6,15.8-13.6c2.9-2.1,6.8-3.3,10.4-3.9c3.5-0.6,5.8,2,5.7,5.5c-0.1,2.9-0.6,6.2-2.2,8.5
		c-5.5,7.5-12.7,13.2-21.5,16.5C579.5,339.6,562.4,324,560.4,311.1z M595.3,350.8c-1.4,28.5-2.7,56.6-4.1,84.7c-0.1,0-0.3,0-0.4-0.1
		c-1.4-27.9-2.9-55.8-4.3-84.2C589.3,351.1,591.7,350.9,595.3,350.8z M542.8,535.5c-0.1,0.9-0.9,1.8-1.6,2.5c-0.2,0.2-1.7-0.4-1.9-1
		c-4.2-8.4-8.3-16.9-12.9-26.3c5.9-0.5,10.9-0.9,16.5-1.4c0,5.6,0,10.8,0,15.9C542.9,528.6,543,532,542.8,535.5z M506.9,500.8
		c-5.8,0.1-11.5,0.3-17.3-0.1c-2.3-0.2-5.3-1.2-6.7-2.9c-9.1-10.4-17.9-21.1-26.7-31.8c-0.7-0.9-0.8-3.3-0.1-4.1
		c7.5-9.1,11.7-19.4,12.9-31c0.1-1,0.6-2,1.3-4.2c13.8,24.9,27.2,48.9,40.9,73.5C509.1,500.5,508,500.8,506.9,500.8z M509,511.4
		c-2.3,4.5-4.1,8.1-6.3,12.3c-3.3-4.4-6-8.1-9.1-12.3C499,511.4,503.5,511.4,509,511.4z M442.6,443.3c0.5,2,1.1,3.9,1.7,5.8
		c-0.3,0.1-0.6,0.2-0.9,0.3c-3.6-4.8-7.3-9.5-10.9-14.4c-0.7-0.9-1.1-2.3-1.1-3.4c0.4-23.6,1-47.2,1.5-71.1c0.6,0.6,1.1,1.1,1.5,1.7
		c8.5,15.3,16.8,30.8,25.6,45.9c3.6,6.3,3.3,12.8,2.5,19.5c-0.3,2.5-1.6,3.3-4,2.3c-0.6-0.3-1.3-0.5-1.9-0.7
		C446,426.6,439.8,432.8,442.6,443.3z M468.2,200c-1.3-3.4,1.6-5.5,4.1-6.6c1.1-0.5,4,0.6,4.6,1.8c2.2,4.2,3.9,8.8,5.7,13.1
		c-1.6,4.8-2.7,8.9-4.3,12.8c-0.9,2.1-2.7,4.2-5.5,2.2c-2.6-1.9-6.8-2.9-5-7.6C469.7,210.5,470.2,205.4,468.2,200z M471.8,179.4
		c-0.1,1.1-1,2.1-1.5,3.1c-1-0.5-2-1-2.9-1.6c-0.4-0.3-0.6-0.9-0.9-1.3c-4.9-7.2-10.3-8-16.7-1.9c-2.8,2.6-4.7,3-8.1,0.8
		c-2.3-1.5-6-1.7-8.9-1.3c-2.8,0.3-4.6-0.3-6.6-2c-2.3-1.8-4.9-3.5-7.7-4.2c-2.2-0.6-4-1.2-3.7-3.3c0.2-1.3,2-2.5,3.3-3.5
		c0.5-0.4,1.6-0.2,3.5-0.5c1.3,0.7,3.6,1.6,5.6,2.8c2,1.2,3.6,2.9,5.6,4.2c5,3.4,10.1,3.7,15.4,0.3c2.4-1.5,4.9-3.1,7.6-4
		C463.7,164.2,472.2,170.8,471.8,179.4z M449,193.9c0.2-4,3.1-8.7,4.7-7.6c2.3,1.4,3.8,4.2,5.6,6.4c-0.3,0.4-0.6,0.8-0.9,1.2
		C455.3,193.9,452.1,193.9,449,193.9z M452.8,207.3c-1.4,4.8-4,7.3-6.8,6.7c-3.2-0.7-5.1-6.2-4.1-12.1
		C445.4,203.7,449,205.5,452.8,207.3z M461.3,203.7c0.5,0.1,1,0.2,1.5,0.4c-0.7,3-1.3,6-2.2,10.1
		C457.7,209.1,458.3,205.9,461.3,203.7z M416.7,183.2c0.7-0.4,2.5-0.1,3.2,0.6c0.6,0.6,0.8,2.4,0.4,3.1c-1.6,2.8-4,6.1-1.5,8.5
		c2,1.9,6,1.7,9.1,2.2c3,0.4,3.7-2,4.7-4.2c0.5-1,2.2-1.5,3.4-2.2c0.2,1.5,1,3.2,0.5,4.3c-0.6,1.4-2.1,2.5-3.5,3.3
		c-2.7,1.6-5.7,2.8-8.3,4.5c-1,0.7-1.4,2.3-2.1,3.4c1.4,0.7,3,2.2,4.3,2.1c2.5-0.3,4.9-1.5,7.4-2.3c0.5,0.3,0.9,0.5,1.4,0.8
		c-2.4,6-4.8,11.9-7.1,17.9c-1.4-9.2-8.1-14.9-12.9-21.6c-3.8-5.4-3.5-11.1-2.1-16.9C413.9,185.4,415.4,184,416.7,183.2z M449,262
		c7.7,5,8.3,13.2,7.3,21.9c-0.8-1.1-1.7-2.2-2.4-3.3c-6.9-10.5-16.8-12.2-26.4-4.1c-2.8,2.3-4.5,2.7-7.6,0.3
		c-7.2-5.8-11.5-5-17.5,1.9c-0.9,1.1-2.1,2-3.5,3.3c-2.8-8-0.7-15.7,4.7-19.3c6.9-4.5,13.2-3.2,22.1,4.7
		C432.4,261.2,439.8,256,449,262z M458.3,315.9c0.7-0.9,2.2-2,3.1-1.9c21.2,3.6,42.6,4.1,64,4c0.4,0,0.8,0.1,1.6,0.2
		c2,6.7,2,13.6-1.7,19.7c-5.9,9.8-12.9,18.8-22.5,25.4c-9.2,6.2-18.2,7.4-28.1-1.1c-10.6-9.1-19.4-19.8-26.8-31.5
		C451.5,325.6,454.8,320.7,458.3,315.9z M400.9,329.7c0.6-3.2,1.4-6.4,2.1-9.5c0.4-0.1,0.8-0.2,1.2-0.3c2.4,4.5,5.1,8.9,7.2,13.6
		c0.5,1.1-0.3,3.8-1.3,4.5c-1.3,0.9-3.9,1.2-5.1,0.4C402,336.4,400.2,333.4,400.9,329.7z M404.2,246.2c-9.9-0.1-16.5,6-17.9,15.7
		c-1.5,10.3,0.7,20.2,2.9,30.1c0.2,1.1,0.6,2.1,1,3.6c-5.1-1.2-9.9-2.9-14.7-3.4c-4.6-0.5-6.5-2.5-7-7c-1.2-9.2-3-18.4-4.1-27.6
		c-0.3-2.2,1.3-4.7,2.2-7c0.3-0.9,1.3-1.5,1.6-2.4c2.9-8.8,10.4-10.3,18-11c10.7-0.9,21.2-0.5,29.9,7.2c0.7,0.6,1.5,1.3,2.1,2
		c0.4,0.5,0.7,1.1,1,1.6C413.9,247.3,409,246.2,404.2,246.2z M390.8,322.8c-0.9,2.7-7.3,6.5-10.1,5.8c-0.7-0.1-1.5-0.9-1.7-1.5
		c-2.8-9.6-5.5-19.1-8.3-29.2C386.8,297.5,395.5,309,390.8,322.8z M393.8,339.8c1.5,1.2,2.9,2.7,4.6,3.5c6.9,3.4,7.2,9.4,6.5,15.8
		c-0.2,1.5-1.5,3.1-2.7,4.2c-2.1,1.9-4.5,3.5-7.6,5.8c-4.3-10.4-8.6-20.9-13.1-31.8C386.8,336.3,390.5,337.2,393.8,339.8z
		 M412.9,367.7c0.6,4.5-5.3,8.7-10.6,7.4C403.5,369.5,404.5,368.8,412.9,367.7z M406.1,381.9c1.4-0.4,2.8-1.5,4.2-1.6
		c1.1-0.1,2.9,0.5,3.4,1.4c3,5.2,5.8,10.5,8.6,15.9c0.5,0.9,1,2.1,1,3.1c0.1,6.1,0,12.3,0,18.4c-0.4,0.1-0.9,0.3-1.3,0.4
		c-6-10.9-12-21.8-17.9-32.7C402.8,384.4,403.2,382.7,406.1,381.9z M423.3,383.1c-2.8-3.9-4.8-6.7-6.7-9.4c2.2-4.4,4.5-8.7,6.7-13
		c0.3,0,0.7,0.1,1,0.1C424,367.9,423.7,374.9,423.3,383.1z M401.3,292.2c4.7-2.4,5-2.2,6.5,2c1.6,4.2,3,8.5,5.1,12.5
		c2.6,4.9,4,5.2,9.3,3.2c8.3-3.1,15-8.3,20.3-15.4c0.9-1.2,1.8-2.4,2.7-3.6c6.5,3.7,8.6,9.7,5.3,15.9c-5.9,11.2-14.5,20.4-22.8,30.5
		C416.4,323.3,407.8,308.3,401.3,292.2z M449.7,437.8c2.3-2.2,8.7-2.8,10.8-0.9c0.7,0.7,1.1,2.2,1,3.3c-0.6,5.3-2.9,9.8-7.1,14.2
		c-2-3-3.9-5.3-5.4-7.9C447.3,443.4,446.9,440.4,449.7,437.8z M510.1,527.6c0.7-2.9,0.8-6,1.8-8.8c0.4-1.2,2.2-2.5,3.5-2.8
		c1.1-0.2,3.1,0.7,3.6,1.7c4.1,7.5,8,15.1,12.2,23.2c-5.5,1.7-10.8,3.4-15,0.8C511.7,538.7,508.5,533.9,510.1,527.6z M526.2,500.9
		c-3.7,0.1-5.6-1.4-7.3-4.6c-14.2-26.5-28.5-52.9-43-79.2c-11.7-21.1-23.7-42-35.5-63.1c-3.4-6-2.7-9.8,2.5-15.5
		c1.2,1.6,2.4,3.2,3.6,4.7c6.1,7.6,11.8,15.5,18.2,22.8c13.4,15.1,36.6,13.1,48.5,0.3c6.6-7.1,11.7-15.5,17.5-23.3
		c0.5-0.6,0.8-1.4,1.2-2.1c0.4,0,0.7,0.1,1.1,0.1c4.4,18.6,9.3,37.2,13.1,55.9c6.1,30.5,11.5,61.1,17.1,91.7c2,11.2,1.9,11.4-9.5,12
		C544.6,500.9,535.4,500.6,526.2,500.9z M582.3,454.4c0.6,0.2,1,1.8,1,2.8c0,11.1,0,22.2-0.1,33.4c0,4.1-1.8,7.2-5.9,8.5
		c-2.7,0.9-4.3,0.4-4.7-3c-1.7-13.7-3.2-27.5-5.7-41.1c-5-27.2-10.6-54.3-16-81.4c-0.3-1.4-0.5-2.9-0.9-5c10.2,4,19.5,5,28.6-4
		c1.8,26.7,3.5,52,5.1,77.6c-2.3,0.5-4,0.8-6.3,1.3C578.8,447.3,576.6,452.3,582.3,454.4z M566,522.3c0.4,0.1,0.9,0.2,1.3,0.3
		c0.7,6.3,1.5,12.6,2.3,19.4c-5.5,0-10.5,0-16.3,0C555.7,533.7,561.3,528.3,566,522.3z M548.1,534.5c0-8.5,0-16.1,0.1-23.7
		c0-0.5,1-1.4,1.6-1.4c5-0.1,10-0.1,15.8-0.1C561.9,519.5,556.7,527.5,548.1,534.5z M556.4,362.5c-5.3-2.6-9.1-6.4-10.3-12.5
		c-0.9-4.8-2.5-9.5-3.5-14.4c-0.9-4.3,1-7.8,4.6-9.6c4.4-2.3,7.2-1.9,10.8,1.6c4.7,4.6,9.6,9.1,14,14c2.1,2.4,3.1,5.8,4.6,8.7
		C575.5,362.2,566.7,367.5,556.4,362.5z M562.6,551.8c10.1,0.2,7.8-1.4,9.1,8.6c2.3,17.2,4.3,34.5,6.2,51.8c0.2,2.1-0.6,4.4-0.9,6.6
		c-1.4-1.8-3.2-3.3-4.1-5.3c-8.7-19.5-17.3-39-25.9-58.6c-0.2-0.5-0.4-1-1.2-3.1C552,551.8,557.3,551.7,562.6,551.8z M577.9,542.5
		c-1.2-10.3-2.3-19.9-3.3-29.6c-0.1-0.9,0.8-2.5,1.5-2.7c1.4-0.4,3.8-0.6,4.4,0.1c1.7,2.2,3.5,4.8,3.8,7.4
		c0.7,7.1,0.8,14.2,0.8,21.3C585,544.3,580.7,541.4,577.9,542.5z M586.1,557.5c0,19,0,38.1,0,57.1c-0.2,0-0.3-0.1-0.5-0.1
		c-2.2-20.5-4.5-41-6.7-61.3C585.5,551.3,586.1,551.6,586.1,557.5z M615.7,509.3c4.9,0,9.8,0,15.1,0c0,7.4,0,14.5,0,21.7
		C625.5,530.6,615.9,516.9,615.7,509.3z M623.6,542.6c-4.1,0.3-8.3,0.2-12.9,0.2c0.9-7.8,1.6-14.3,2.4-21.7
		c5.6,5.9,10,11.6,12.6,18.3C626,540.1,624.4,542.5,623.6,542.6z M605.8,499c-4.5,0.4-7.8-2.3-8-8.5c-0.3-9.6-0.2-19.2-0.3-28.8
		c0-3.4-0.8-6.5,3.6-8.9c2-1.1,2.1-5.8,3.2-9.4c-2.2-0.3-3.9-0.5-6.4-0.8c1.9-27.3,3.8-54.7,5.8-83.3c7.2,9.1,15.6,12.3,25.4,9.7
		C621.3,412.4,613.6,455.6,605.8,499z M617.7,360.9c-5.7-1.1-9.1-6.1-8.6-12.6c0.6-8.9,13.4-20.7,22.3-20.8c5,0,8,3.4,6.8,8.3
		c-1.3,5.7-2.9,11.4-4.5,17.1C631.9,359,624.9,362.3,617.7,360.9z M596.1,516.6c0.1-2.3,2.6-4.7,4.4-6.6c0.6-0.7,2.6-0.6,3.7-0.1
		c0.7,0.3,1.4,1.9,1.3,2.9c-1,9.3-1.8,18.6-3.3,27.8c-0.7,4.4-4.1,1.1-6.4,1.4C595.9,533.3,595.5,524.9,596.1,516.6z M604.8,589.8
		c1.6-11.4,3.3-22.8,4.7-34.2c0.3-2.7,1.4-3.5,3.9-3.4c6.3,0.1,12.6,0,19.6,0c-0.4,1.6-0.5,2.5-0.9,3.3c-9,20-18,40-27.1,60
		c-0.2,0.5-0.3,1.2-0.6,1.5c-0.7,0.7-1.6,1.1-2.5,1.7c-0.3-0.9-0.8-1.9-0.7-2.8C602.4,607.2,603.6,598.5,604.8,589.8z M757.2,187.4
		c2-1.6,3.9-3.9,6.2-4.4c1.1-0.3,3,2.8,5,5c-1.8,1.5-3,2.9-3.6,2.7C762.2,189.9,759.7,188.6,757.2,187.4z M759.1,205.8
		c-1.3,1.2-2.9,2-4.5,2.7c-0.7,0.3-2,0.1-2.6-0.4c-2-1.6-3.1-9.1-2-11.6c2.8,1.5,5.3,3,8,4.2C761.4,202.1,761.8,203.4,759.1,205.8z
		 M768.3,201c0.6-0.2,1.5,1.1,2.3,1.8c0.3,0.5,0.6,1.1,0.8,1.6c-1.1,0.5-2.2,1.4-3.1,1.2c-0.8-0.1-2-1.5-2.1-2.3
		C766.2,202.5,767.4,201.3,768.3,201z M758.8,173.7c-3.4,2.5-6,2.9-9.9,0.5c-2.4-1.5-6.3-1.4-9.3-0.9c-3,0.4-5,0.2-7.4-1.9
		c-2.3-2.1-5.5-3.3-8.2-5.1c-1.3-0.9-2.3-2.4-3.4-3.7c1.2-1.1,2.3-3,3.5-3c3-0.1,6.1,0.4,8.9,1.3c1.7,0.5,3.1,2.2,4.5,3.5
		c6.5,5.5,12.9,6.4,20.6,1.5c9-5.8,19.8-1.4,22.6,8.5c0.9,3.1,0.9,6.2-2.9,8.8c-1.2-2.2-2.1-4-3.1-5.8
		C770.8,170.4,765.1,169,758.8,173.7z M722.2,178.4c0.9-0.5,2.7-0.1,3.6,0.5c0.5,0.4,0.3,2.1,0.1,3.2c-0.3,2.7-2,6.9-1,7.7
		c2.8,2.2,6.7,3.4,10.3,4.2c1.1,0.2,3.1-1.9,4.2-3.3c1-1.2,1.3-2.9,2-4.7c3.8,2,4.6,5,1.9,7.7c-1.8,1.8-4.6,2.7-7,3.7
		c-1.5,0.6-3.3,0.3-4.8,1c-1.2,0.6-2,1.9-2.9,2.9c1.1,0.9,2.1,2.6,3.2,2.7c3.3,0.4,6.7,0.1,10.6,0.1c-1.8,5.3-3.6,10.8-5.7,17
		c-5.8-7.9-11.4-14.9-16.5-22.4c-3.6-5.2-2.9-11.3-1.4-17.1C719.3,180.4,720.9,179.1,722.2,178.4z M738.5,327.1
		c1.6,2.2,1.7,3.7,0,5.8c-7.4,8.8-14.4,17.9-22.2,26.3c-5.6,6-13.5,7.7-21.6,7.1c-2.3-0.2-4.9-1.2-6.7-2.7
		c-12.4-11-23-23.6-30.7-38.3c-1.2-2.4-1.2-5.4-1.9-8.6c2.5-0.2,4.1-0.3,5.7-0.3c21-0.4,41.9-2,62.6-5.7c2.6-0.5,4.2-0.1,5.6,2.4
		C732,317.9,735.2,322.6,738.5,327.1z M739.8,257.5c7.5-4.3,12.9-2.8,19.4,5.1c5.7-2.9,10.8-6.3,16.4-8c8.8-2.7,13.2,0.7,14.4,9.8
		c0.2,1.7,0,3.4,0,5.3c-11.3-5.6-20.1-1.1-28.3,6.3c-9.5-11.8-19.4-10.1-29.3-0.7C730.2,269.7,734.1,260.8,739.8,257.5z
		 M719.4,437.8c-0.4-2.3,0.5-3.5,3-3.7c8.6-0.8,12.9,5,9.5,12.9c-1,2.3-2.4,4.5-3.7,7.1C723.1,449.4,720.5,444,719.4,437.8z
		 M718.8,426.1c-0.5-5.3-0.4-10.2,2.5-15.3c8.9-15.3,17.3-30.8,25.9-46.3c0.4-0.8,1-1.5,1.9-3c0.2,1.9,0.4,2.9,0.4,3.9
		c0.1,20.2,0.3,40.4,0.3,60.5c0,2.4-0.9,5.1-2.2,7.1c-3.1,4.8-6.6,9.2-10,13.8C736.8,430.5,735.4,429,718.8,426.1z M744.7,316.7
		c-4-6.5-7.5-13.3-10.6-20.3c-2.3-5,1.3-11.3,6.6-12.9c2.6-0.8,3,0.9,3.3,2.8c0.5,3.5,1,7,1.7,10.5c0.8,4,3.7,5.8,7.7,6.2
		c10.4,1.1,18.9-2.3,24.9-11.1c1.8-2.6,3.4-5.3,5.2-7.9c0.7-1,1.6-1.8,3-2.2c-5.2,19.6-16.3,35.8-28.9,52.3
		C752.8,327.9,748.3,322.6,744.7,316.7z M785,329.9c-0.2,2-2.8,4.5-4.9,5.4c-1.5,0.7-4.1-0.6-5.9-1.6c-0.8-0.4-1.2-2.9-0.7-3.8
		c3-4.9,6.4-9.6,10.3-15.4C784.4,320.5,785.4,325.3,785,329.9z M765,371.9c-0.5,2.9-3.6,5.3-6,8.6c0-8.2,0-15.7,0-24.4
		c1.3,1.6,2,2.1,2.3,2.9c0.5,1.1,0.7,2.3,1.1,3.5C763.4,365.5,765.5,368.9,765,371.9z M770.8,376.9c3.4,1.9,6.7,3.7,10.8,5.9
		c-7.1,11.9-14.2,23.6-21.6,35.9C755.8,402.2,762.2,389.4,770.8,376.9z M771.4,366.7c7-1.4,8.1,6.3,13.1,7.6
		C781.2,376,772.6,371.1,771.4,366.7z M781.3,359.9c-1.9-1.7-2.3-9.8-0.4-12.1c4.7-5.6,9.9-10.7,17.1-13c1.5-0.5,3.2-0.4,5.9-0.7
		c-4.9,11.5-9.4,22-13.9,32.7C786.7,364.2,783.9,362.2,781.3,359.9z M796,322.4c-4.7-8.3-0.7-22,7.9-26c3.6-1.7,7.6-2.5,11.4-3.8
		c0.4,0.5,0.8,0.9,1.1,1.4c-1,3.8-2,7.6-3.1,11.4c-1.5,5.4-3,10.8-4.8,16.1c-0.7,1.9-2.3,4.9-3.7,5
		C801.5,326.7,797.9,325.9,796,322.4z M814.8,287.4c-4.8,0.7-9.5,2.4-14.2,3.8c-1.4,0.4-2.7,1-4.7,1.8c1.1-4.9,2.3-9.1,3-13.3
		c0.9-5.5,1.9-11.1,2-16.7c0.1-16.8-11.1-24.6-27.2-19.5c-1.3,0.4-2.6,0.8-4.5,0.4c1.6-1.5,3-3.2,4.7-4.5c13.3-10,27.6-9.2,42.1-3.4
		c2.3,0.9,4,4.2,5.3,6.7c6.2,12.4,0.7,24.6-0.9,36.9c-0.2,1.2-0.6,2.4-0.7,3.6C819.4,286.1,817.8,286.9,814.8,287.4z M636.6,199
		c2.6,2.4,2.8,5.3,0.4,7.9c-0.9,1-1.9,2.1-3.1,2.7c-10.8,6.4-21.6,12.7-32,18.8c-4.1-5.9-8.5-12.1-12.7-18.5
		c-1.7-2.6-3.2-5.4-4.4-8.3c-1.2-2.8-0.8-5.6,2.1-7.1c3-1.5,6.1-1.7,8.6,1.2c1.1,1.3,2,2.9,3,4.4c1.2,1.8,2.2,3.8,3.6,5.5
		c7.5,8.9,17.6,7.5,22.5-3.1C627.6,196.4,632.3,195,636.6,199z M621.3,190c0,0.1,0,0.3,0,0.4c0.1,3-1.7,3.6-4,2.8
		c-4.2-1.5-8.1-1.8-12.3,0c-2.6,1.1-3.5-0.9-3.4-3c0.1-3.9,6.9-9.1,11.5-9C617.2,181.3,621.2,185.6,621.3,190z M577,158.2
		c-0.2-1-0.7-2-1.3-3.5c6-0.7,8.8,4.5,13.6,6.6c0-3.8,0-7.2,0-10.6c0-1.9,0.5-3.2,2.9-2.7c7.1,1.2,7.1,1.2,11-5.1
		c0.3-0.4,0.7-0.8,1-1.2c0.4,0.1,0.9,0.1,1.3,0.2c-0.4,3.5-0.7,7-1.1,10.3c3.6,0.2,7.2,0.4,11.3,0.6c-2,3.6-3.4,6.1-4.7,8.5
		c-4.3,0.8-8.9,1.1-13,2.7c-3.4,1.3-6.9,3.7-9.3,6.5c-3.6,4.4-8.6,3.8-14,6.4c0.7-2.7,0.5-4.6,1.4-5.3
		C581.1,167.3,578,162.8,577,158.2z M474.8,109.1c16.7-1.6,32.4,2.3,47.8,8.2c14.3,5.6,27.3,13.3,38.7,22.3
		c-1.8,2.9-4.8,5.5-4.7,8.1c0.1,2.7,3.2,5.2,5,7.9c-5.9,5.1-5.5,7.2,4.2,12.9c-1.8,0.5-2.7,0.8-3.7,0.9c-0.3,0-0.7-0.4-1-0.7
		c-9.4-6-17-4.3-23,5.2c-1.6,2.5-2.6,6.5-4.7,7.2c-2.1,0.7-5.4-1.9-8.1-3c-7-3-13.9-3.7-20.1,1.6c-7.5,6.4-10.5,14.7-8.7,24.4
		c1.6,8.8,6.7,15.6,13.9,20.7c5.1,3.6,10.7,6.6,16.4,9.3c2.9,1.4,3.6,2.9,2.6,5.7c-1.8,5-3.3,10.2-5.1,15.2
		c-1.7,4.6-4.7,6.4-9.5,6.1c-0.7,0-1.4-0.1-2-0.2c-8.1-0.9-14.2,2.2-15.8,7.9c-2.6,8.9,0.4,17.6,7.7,20.9c4.1,1.8,8.7,2.5,13.1,3.8
		c0.3-0.6,0.7-1.3,1-1.9c-1.1-0.9-2-2.1-3.3-2.6c-2.5-1-5.4-1.3-7.8-2.4c-6.1-2.9-6.9-7.9-2.4-13.3c6.6,5.7,7.1,5.7,13.9-0.1
		c0.2-0.2,0.4-0.5,0.6-0.5c2.5-0.7,6.7-2.5,7.1-1.8c2,3.1-1.6,4.3-3.3,5.9c-5.5,5-4.9,17.8,1.1,22.1c4.9,3.5,15.9-0.1,17.1-6
		c0.4-1.7-0.5-4.8-1.8-5.6c-1.3-0.8-4,0-5.8,0.8c-1.6,0.7-2.8,2.4-4.7,4.1c-2.4-4.7,0.2-7.6,2-10.6c4.9-8,11-2.7,16.9-1
		c0.6-1.6,0.8-3.4,1.8-4.6c1.1-1.3,2.9-2.8,4.3-2.7c9.2,0.5,15.2-5.3,14.4-14.4c0-0.5,0-1,0-1.6c11,2.1,18.4-0.8,21.7-8.4
		c2.8-6.3,1.2-13.1-3.9-17.1c-7.2-5.6-16.3-4.7-25.2,2.4c1.2-4.4,2.6-8.6,3.4-13c1.2-6.8,1.2-13.8-2.1-20.1c-1.6-3.2-4.3-6-7-8.3
		c-3.4-2.8-7.4-2.4-11.7-0.1c0-4.6,1.4-8.7,4.9-10.5c2.4-1.3,6.2-0.4,9.3,0.1c2.3,0.4,5,2.8,6.6,2.1c1.7-0.7,2.4-4,3.6-6.1
		c0.2-0.4,0.4-0.7,0.4-0.8c2.3,0.9,4.5,1.7,6.7,2.6c0.2-0.3,0.4-0.6,0.7-0.9c0.5,1.2,1,2.4,1.6,3.8c-4.6,3.2-9.1,6.7-7.5,13
		c0.9,3.2,2.6,6.3,4.5,9c4.9,6.8,10.4,13.1,15,20c4.3,6.5,6.4,13.9,6.7,21.8c0,0.7,0.3,1.5,0.7,3c1.6-2.5,2.7-4.3,4-6
		c4.5-6.1,10.5-10.4,17.5-13.3c6.5-2.7,13.2-4.9,19.2-8.4c4.8-2.8,9.7-6.6,12.9-11.1c7.6-11,3-22.7-9.9-26.3
		c-3.3-0.9-4.2-2.4-4.7-5.5c-0.7-3.8-2.2-7.5-3.4-11.6c2.7-0.4,6-0.3,8.7-1.5c3.6-1.6,7.3-3.8,10-6.6c3.1-3.2,2.3-6.4-1.8-8.3
		c-4.1-1.8-8.5-2.8-12.9-4c-1.9-0.5-3.9-0.7-5.9-1.9c2.7-0.7,5.5-1.3,8.1-2.2c2.5-1,5.2-2,7.2-3.7c3.8-3.1,3.4-5.8-0.7-8.4
		c-0.8-0.5-1.6-1-2.7-1.7c0.5-0.6,0.8-1.2,1.2-1.5c22.1-13.5,45.6-22.4,71.9-20.9c21.1,1.2,39.7,9.5,56.3,22
		c29.3,22,45,52.1,50.3,88c0.3,2.1,0.5,4.3,0.7,6.3c-9.7-0.5-19.1,0-28.2-1.6c-15.4-2.7-25.2,4.7-33.3,16.1c-2,2.8-3.7,5.8-5.3,8.3
		c-4.9-2-9.8-3.9-15.6-6.2c-0.2-8.8,0.5-18.4,5.2-27.7c1.1,1,1.7,1.7,2.4,2.3c4.5,4.2,7.4,4.2,12.4,0.7c1.2-0.9,3.5-1.7,4.5-1.2
		c3,1.5,5.3,1,7.4-1.2c2.6-2.7,5.1-5.5,4-9.8c-0.3-1.2-0.8-2.4-1.4-3.4c-1.6-2.7-0.2-4.4,2-5.1c1.2-0.4,3.4,0.4,4.2,1.4
		c4.9,6.2,3.3,15.4-3.2,19.9c-1,0.7-1.9,1.4-2.9,2.2c3.5,3.3,8.8,2.5,11.6-1.7c3.9-5.8,2.7-12.1,1.2-18.3c-0.2-0.7-0.4-1.4-0.7-1.9
		c-2.6-3.8-2.8-6.9,0.2-11.2c4.3-6.2,1.7-16.2-4.7-21.5c-7-5.9-14.8-7.4-23.4-3.9c-1.3,0.5-2.5,1-3.7,1.7c-4.1,2.2-7.6,1.6-11.4-1.3
		c-11.7-8.9-16.7-8.6-29.1-0.3c-11.8,7.9-14.3,18.2-6.6,32.2c4.1,7.5,10.1,14,15.3,20.9c5.2,7.1,10,14.4,12,23.2
		c0.3,1.6,0.5,3.2,0.8,5.2c-13.7,3-18.1,12.4-18.6,24.6c-0.5,11.7,0.2,23.3,4.2,34.9c-27.1,4.6-54,5.3-81.4,4.8
		c-0.2,4-1.7,7.9,3.3,10c0.6,0.2,0.9,1.8,0.8,2.6c-0.2,1.7-0.9,3.4-1.4,5.1c-4.7-1-9.2-1.9-13.6-3.1c-0.7-0.2-1.3-2.4-1.2-3.6
		c0.5-4.2,1.9-8.3,2.1-12.5c0.4-10.7-6.1-17.5-16.9-18.1c-8.7-0.5-16.2,2.7-22.9,7.8c-2.6,2-4.3,1.8-7.2,0.4
		c-5.5-2.5-11.4-5-17.4-5.6c-12-1.2-19.7,7.7-17.9,19.7c0.3,2,0.8,4,1.3,6.1c-3.9,1.5-7.9,3.1-12.7,5c0.1-1,0.1-2.3,0.4-3.4
		c0.1-0.6,1.1-1,1.2-1.6c0.4-2.2,1.1-4.4,0.7-6.5c-0.1-0.6-3.3-1-5-0.9c-16.1,1.3-55.9,0.4-69.9-4.2c3.9-10.1,6.1-20.5,5.4-31.3
		c-0.3-4.7-1.1-9.6-2.7-14c-2.8-8-10-12.1-18.3-10.6c-4.3,0.8-8.5,2.8-12.6,4.6c-3.1,1.3-8.2-1.2-7.8-4.5c1.2-10,2.9-19.8,8.2-28.6
		c0.3-0.6,0.8-1,1.3-1.6c7,7.7,7,7.7,17.8,2.5c1.7,1.5,3.7,2.8,5,4.7c0.7,1.1,0.6,3.2,0,4.4c-0.6,1.3-2.2,2.9-3.5,3.1
		c-2.7,0.5-5.6,0.1-8.4,0.1c-0.1,0.6-0.2,1.2-0.2,1.8c2.6,0.7,5.3,1.3,7.9,2.2c1.3,0.4,2.8,1.1,3.6,2.1c3.1,3.9,9.4,5.2,14.6,2.7
		c4.3-2,5.4-5.4,4.1-11.2c-0.3-1.1,0.1-2.7,0.7-3.7c6.8-11,6.2-22,1.1-33.4c-1-2.2-1.5-4.9-1.4-7.3c0.9-12-4.4-20.8-14.5-23
		c-5.4-1.2-10.8-0.4-15.4,2.6c-5.4,3.4-10.1,2.9-14.4-1.5c-5.4-5.4-11.6-6-18.2-2.9c-4.8,2.3-9.4,5-13.8,8
		c-5.2,3.5-6.5,8.7-5.2,14.5c1.7,7.4,4.8,14.1,9.9,20c5.2,6.1,9.6,13,14,19.7c2.8,4.4,3.5,9.4,2.2,14.7c-0.6-0.3-1.1-0.4-1.4-0.6
		c-7.9-8.1-17.6-9.9-28.4-9c-8.7,0.7-17.5,1-26.8,1.5c0.5-4.3,0.6-8.8,1.5-13.2c8-39.8,27.3-71.8,63.4-92.2
		C445.7,115.9,459.6,110.5,474.8,109.1z M541.8,257.5c1.2-0.9,2.1-2.2,3.3-3.1c4.9-3.3,8.3-3.5,10.3,2.2c0.2,0.5,0.5,1,0.8,1.4
		c3.1,5.6,2.2,7.2-4,6.9c-3.5-0.1-5.8,1.3-8.1,3.9c-1.1,1.2-3.4,1.8-5.2,1.7c-1.1-0.1-2.4-1.7-3.1-3c-0.9-1.6-1.3-3.5-1.6-4.3
		C537.1,261.2,539.5,259.4,541.8,257.5z M536.8,237.1c2.2,1.8,4,3.4,6.3,5.2C536.9,243.2,536.3,242.7,536.8,237.1z M556.7,224.2
		c-0.7,3.2-2.3,6.1-3.6,9.1c-0.4,1-1,1.9-1.1,2.1c-7.2-3.8-13.9-7.4-20.7-10.8c-4.8-2.4-5.9-4.4-3.8-8.8c1.9-4.1,6.9-5.8,10.8-3.6
		c1.3,0.7,2.5,1.7,4.1,2.8c0.8-1.7,1.6-3.3,2.3-4.8c1.6-3.2,4-5.6,7.7-5.1c3.8,0.4,5.7,3.7,5.8,7
		C558.2,216.1,557.6,220.3,556.7,224.2z M518.1,218.2c-8.1-4.5-12.9-17.1-10-25c1.6-4.4,4.9-7.2,9.4-8.4c9.2-2.4,20.7,5.8,20.5,15.2
		c-7.4-3.6-14.9-8-22.1-0.5C512.2,203.2,512.8,206.8,518.1,218.2z M563.8,249.2c1.5-2,2.8-3.3,3.7-4.8c1.5-2.6,3.5-3.5,6.5-2.8
		c1,0.2,3.2-0.7,3.4-1.4c0.9-4,3.6-3.7,6.3-2.8c2.4,0.8,3.3,5.3,1.2,7c-2.8,2.3-6.2,4.6-9.7,5.4C571.8,250.6,568,249.5,563.8,249.2z
		 M717.4,169c-0.8,1.4-1.5,3-2.5,4.3c-0.7,0.9-2,1.5-3.7,2.7c0-2-0.4-3.3,0.1-4c1.1-1.5,2.6-2.9,4.1-4.1
		C715.7,167.8,716.7,168.6,717.4,169z M408.8,173.7c-1.4,1.9-3.1,3.7-5.2,6c-1.6-4.5-0.1-6.9,2.7-8.5c0.6-0.4,1.7,0,2.6,0
		C408.9,172,409.2,173.1,408.8,173.7z M417.3,109c8-2.4,16.5-3.4,24.9-4.6c-47.2,21.4-74.1,58.3-84.3,108.5
		c-6.7-8.2-16.8-13.7-16.4-25.7c-5.2,6.8-10,13-14.8,19.2c-0.8,1-2,2-3.2,2.5c-6.8,2.6-9.4,8-6.6,14.9c1,2.4,2.5,4.5,4.2,7.3
		c-4.3,0.7-8.4,1.4-13.3,2.2C324.3,173.4,355.3,127.5,417.3,109z M350.5,221.8c-1.7,3.4-4.3,6.3-6.6,9.4c-0.4,0.5-1.6,0.8-2.1,0.5
		c-5-2.1-10.1-4.2-15-6.5c-1.1-0.5-2.3-1.5-2.6-2.5c-0.6-2-0.7-4.3-1-6.4c1.7,0.3,3.5,0.5,5.2,0.9c4.1,1.1,8.3,2.3,12.9,3.5
		c0.5-1.8,0.5-3.4,1.3-4.6c0.9-1.4,2.4-3.3,3.7-3.4c1.4-0.1,3.9,1.3,4.4,2.6C351.3,217.2,351.4,220,350.5,221.8z M303.3,271.1
		c0-1.1,0-2.2,0-4.5c0.6-5.9,1.4-13,1.9-20.1c0.2-2.4,1.1-3.7,3.6-4.1c6.2-1,12.4-2.4,18.6-3.2c4.6-0.6,8.5,1.3,11.3,5.3
		c1.7,2.4,3.8,4.7,6,6.7c2.4,2.2,3.3,4.3,2.3,7.6c-4,12.7-12.8,21.3-24.2,27.1c-2.4,1.2-6.5,0.5-9.4-0.6
		C301.9,281,303.5,283.8,303.3,271.1z M339.6,360.4c-5.1-0.5-10.2-0.9-15.2-1.6c-0.7-0.1-1.5-1.2-1.8-1.9
		c-4.2-10.7-8.2-21.4-12.5-32.6C326.1,323.8,344.9,336.6,339.6,360.4z M333.6,324.2c-6-4.5-13.5-5.8-21-6.5
		c-1.5-0.2-3.8-1.3-4.1-2.3c-1.7-7-2.9-14.2-4.5-22.5c3.2,1.6,5.1,2.6,7,3.6c5.2,2.7,10.2,2.4,15.1-1.1c10-7,19-15,25.9-25.1
		c0.4-0.6,1-1.2,2.2-2.5c0.9,5.2,1.6,9.6,2.6,13.9c1.4,6.4,2.9,12.8,4.4,19.2c2.1,9.1,0.1,14.5-7.4,20c-1.9,1.4-4,2.4-6,3.7
		C343,327.4,338.7,328.1,333.6,324.2z M360.6,370.6c-4.7-1.9-9.1-3.6-13.7-5.5c3.6-10.3,2.8-20.4-2.3-29.4
		c7.2-4.5,14.2-8.8,21.4-13.3c1.6,4.5,3.5,9.7,5.3,14.9c0.2,0.5,0.1,1.1,0,1.6c-3,9.2-6,18.4-9,27.6
		C361.8,367.9,361.1,369.2,360.6,370.6z M410.7,480c-4.2-4.2-8.2-8.1-12.1-12.2c-0.5-0.5-0.6-1.8-0.4-2.7c2.6-10.9-5.9-23-18.2-26
		c-1.9-0.5-3.6-0.5-3.6-3.3c0.1-10.6-4.7-18.6-13.3-24.6c-0.5-0.4-1-0.9-1.7-1.5c6.3-6.2,8.6-13.7,7.8-22.2
		c-0.1-1.2-0.1-2.6-0.7-3.6c-2.6-4.4-1.5-8.7,0-13c2.2-6.2,4.6-12.2,7.2-19.2c7,14.5,13,28,19.9,41c6.9,13.1,14.6,25.7,22,38.6
		c-0.1,0.2-0.2,0.5-0.4,0.6c-7.9,2.8-10.3,7.6-7.8,17.1c0.9,3.3,2.2,6.5,3.3,9.7C415.1,465.9,414.3,472.7,410.7,480z M413.6,443.6
		c1.1-3.2,3.4-5.2,7.8-5.3c-1.3,6.4-2.5,12.1-3.7,18C413.9,453.1,412.2,447.9,413.6,443.6z M436.3,500.6c-1.8,0-3.9-1-5.5-2.1
		c-2.7-1.9-4.8-4.6-7.6-6.2c-3.8-2.3-4.4-4.9-3.1-9.1c2.9-9.5,5.2-19.3,7.7-28.9c0.3-1.3,0.9-2.5,1.4-4.2
		c13.9,16.8,27.4,33.2,41.3,50c-1.4,0.2-2.7,0.6-3.9,0.6C456.6,500.7,446.4,500.8,436.3,500.6z M445.7,510.7
		c4.9-0.3,8.7-0.6,12.4-0.7c5.9-0.1,11.8,0,17.7,0c3.3,0,4.6,1.8,3.4,4.8c-2.1,5.7-4.5,11.4-7,17.6
		C463.3,525.2,455,518.3,445.7,510.7z M477.5,537.9c2.4-6.9,4.4-13,6.5-19.1c0.5-0.1,1.1-0.2,1.6-0.4c5.2,6,10.5,11.9,16.5,18.7
		c-2.5,0.2-3.9,0.1-5.2,0.4c-4,0.7-7.9,1.8-11.9,2.1C482.7,539.8,480.3,538.6,477.5,537.9z M552.7,689.9c-4.3,0.3-8.2,0.5-11.8,0.7
		c0-15.7,0-31,0-46.9c3.7,0,6.7-0.2,9.7,0.1c0.8,0.1,2,1.4,2.1,2.2C552.7,660.5,552.7,674.8,552.7,689.9z M547.1,619.4
		c-1.3-0.4-2.7-2.4-3.2-3.9c-4.5-14.2-11.4-27-22.3-37.3c-8-7.5-16-15-24-22.5c-1-0.9-2.4-1.3-3.6-1.9c0.4-0.6,0.8-1.3,1.2-1.9
		c5.7,0.3,11.3,0.6,17,1.1c1,0.1,2.1,1.2,2.9,2.1c14.6,17.3,28.6,35.1,37.2,56.3c1,2.5,1.9,5.1,3.1,8.2
		C552.1,619.6,549.5,620,547.1,619.4z M565.7,689.5c-2.4,0-4.9,0-7.7,0c0-15,0-30,0-45.5c2.8,0,5.1,0,7.7,0
		C565.7,659.1,565.7,674.1,565.7,689.5z M565.3,619.7c-1.2-0.8-3.1-1.3-3.4-2.3c-7.7-23.5-20.6-44.1-36.3-63
		c-0.2-0.3-0.3-0.7-0.9-2.1c3.6,0,6.6-0.1,9.7,0.1c0.9,0.1,2.1,0.9,2.5,1.7c10,21.3,19.8,42.6,29.7,64
		C566.1,618.6,565.7,619.2,565.3,619.7z M579.6,689.6c-3,0-5.5,0-8,0c-0.2-0.4-0.5-0.7-0.5-1.1c0.1-13.9,0.3-27.7,0.3-41.6
		c0-3.1,1.7-3.3,3.9-3.2c2,0.1,4.3-0.7,4.3,2.7C579.5,660.7,579.6,674.9,579.6,689.6z M593.1,689.5c-2.9,0-5.3,0-7.9,0
		c0-15.1,0-30,0-45.3c2.7,0,5.2,0,7.9,0C593.1,659.2,593.1,674,593.1,689.5z M593.3,613.5c0.6-20.1,1.2-40.2,1.8-60.8
		c2.2-0.2,4.1-0.3,6.6-0.5c-2.6,20.8-5.1,41.1-7.7,61.3C593.8,613.6,593.5,613.5,593.3,613.5z M607.1,689.4c-2.8,0-5.4,0-8.1,0
		c0-15.1,0-30,0-45.3c2.8,0,5.3,0,8.1,0C607.1,659.2,607.1,674.2,607.1,689.4z M632,576.9c3.1-6.7,6.3-13.4,9.1-20.2
		c1.5-3.8,3.6-5.5,7.7-4.7c1.6,0.3,3.2,0.3,5.5,0.5c-3.4,4.4-6.3,8.2-9.3,12c-12,15.6-20.4,33.1-26.8,51.6c-1,2.8-2.2,3.5-5.1,2.4
		C619.4,604.6,625.7,590.8,632,576.9z M620.9,689.6c-2.9,0-5.2,0-7.8,0c0-15.2,0-30.2,0-45.6c2.6,0,5.1,0,7.8,0
		C620.9,659.2,620.9,674.2,620.9,689.6z M637.7,690c-3.7,0-7.6,0-11.5,0c0-15.5,0-30.6,0-46c3.8,0,7.3,0,11.5,0
		C637.7,659.2,637.7,674.7,637.7,690z M669.4,566.5c-10.2,9.8-21,19.1-27,32.4c-2.2,4.9-4.7,9.7-6.1,14.8c-1.2,4.7-3.5,6.4-8.1,5.8
		c-1.1-0.2-2.2-0.2-3.9-0.3c0.5-1.6,0.9-3,1.4-4.3c7.2-19.7,19-36.7,31.6-53.2c4.9-6.5,9.9-10.9,18.5-10c2.6,0.3,5.4-0.2,8-0.3
		c0.1,0.4,0.3,0.8,0.4,1.2C679.3,557.1,674.3,561.7,669.4,566.5z M695.3,539.1c-5.6-0.5-11-2.3-17.1-3.8c5.2-6,10.6-12.2,16-18.5
		c0.7,0.1,1.4,0.3,2,0.4c1.8,5.8,4,11.5,5,17.5C701.5,535.8,697.3,539.2,695.3,539.1z M708,530.8c-2.8-7.1-5.4-13.8-8.3-21.2
		c11.6,0,22.2,0,32.8,0c0.1,0.3,0.1,0.7,0.2,1C724.6,517.2,716.5,523.8,708,530.8z M759.9,488.6c-2.4,2.2-5.4,3.9-7.5,6.4
		c-3.3,3.8-7.3,4.5-12.1,4.4c-10.1-0.3-20.2-0.1-31-0.1c14.8-17.8,29.2-35.1,44-52.9c2.6,8.8,4.9,17,7.3,25.1
		c0.7,2.2,1.4,4.4,2.1,6.7C765.2,486,765.5,483.4,759.9,488.6z M761.9,438.2c-0.2-0.9,1.3-2.9,2.3-3.2c3.4-0.9,6.9-1,9.5,2
		c2.2,2.6,2.2,8.2,0.1,11.7c-0.4,0.6-0.7,1.2-1.2,1.7c-1.8,1.8-3.8,3.6-6.3,6C764.8,450.1,763.2,444.2,761.9,438.2z M817,417.4
		c-1.5,4.7-4.2,6.9-8.4,8.9c-10.9,5.3-16.8,16.6-15.5,28.4c0.1,1-0.1,2.1-0.5,3c-0.2,0.6-1,0.9-1.5,1.4c-5.8,5.4-11.6,10.8-18,16.7
		c-1.9-6.4-1.3-11.7,1.5-16.8c1.4-2.5,3.1-4.9,4.5-7.4c2.7-4.8,3-9.9,1.5-15.1c-1.8-6.6-7-8.9-14.1-9.6
		c16.7-25.4,31.8-50.9,44.1-78.7c2,5.3,4,10.6,5.9,16c0.2,0.6-0.2,1.6-0.5,2.3c-6.5,14.2-3.3,26.7,7,37.8c0.5,0.5,0.9,1,1.3,1.6
		C821.7,409.8,818.4,413.3,817,417.4z M834.7,345.3c-4.8,2.5-8.5,7.1-12.9,11c-2.4-6-4.9-12.1-7.3-18.3c-0.2-0.5,0.2-1.3,0.4-1.9
		c2.4-6.3,4.7-12.5,7.3-19.2c5.4,7.2,11.1,13.7,20.1,16.2C841,338.1,840.1,342.5,834.7,345.3z M874.5,336.2
		c-0.3,0.8-2.1,1.7-3.1,1.6c-6.3-0.4-12.6-1.1-18.9-1.7c2.6-9.1,15.8-16.9,27.4-15.3C878.1,326,876.4,331.1,874.5,336.2z
		 M882.1,312.2c-7.9,2-14.9,3.5-21.8,5.6c-3.1,1-5.9,2.9-8.5,4.9c-3.3,2.6-6.4,2.4-9.9,0.7c-10.1-4.9-17.9-13.7-13.9-28
		c2.7-9.7,4.3-19.7,6.3-29.1c6.8,7.2,13.4,14.5,20.3,21.4c2.9,2.9,6.6,4.9,9.9,7.3c5.2,3.6,10.4,3.6,15.8,0.4
		c1.4-0.8,2.9-1.4,5.4-2.7C884.4,300.4,883.1,306.9,882.1,312.2z M887.3,267.2c0,1,0,1.9,0,2.9c0,12.5-0.9,13.7-13.2,16.2
		c-1.9,0.4-4.2,0.1-5.9-0.8c-11-5.7-19.7-13.8-24.8-25.3c-1.7-3.7-1.3-6.7,1.2-10.5c6.3-9.9,14-12.9,25-8.7
		c3.9,1.5,8.3,1.9,12.5,2.4c2.8,0.3,3.7,1.8,3.9,4.2c0.5,6.6,1.1,13.1,1.6,19.7C887.4,267.2,887.3,267.2,887.3,267.2z M959.8,504.7
		c-3.3-4.2-6.2-8-9.2-11.8c0.3-0.4,0.5-0.8,0.8-1.2c6.1,0,12.2,0,19.3,0C968.1,497.5,963,500.1,959.8,504.7z"/>
	<path fill="#C49A6C" d="M764.6,589.1c-6,1.9-11.8,2.1-17.8,0.2c-2.1-0.6-4.6-1.7-6.1,1.4c-1.3,2.8-0.8,5.5,1.7,6.9
		c3.8,2.1,8,3.6,12,5.3c0.2-0.4,0.3-0.7,0.5-1.1c5.6-0.1,11.2-0.9,14.4-6.1c0.9-1.5,0.8-4.2,0.1-6
		C769.1,589,766.1,588.7,764.6,589.1z"/>
	<path fill="#C49A6C" d="M1039.1,563.6c-0.6-0.2-1.4,0-2,0c0,0,0,0,0,0c-1.1,0-2.3-0.3-3.3,0.1c-1.3,0.5-3.3,1.4-3.5,2.4
		c-0.2,1.1,1.1,3.3,2.2,3.6c2.4,0.8,5.2,1.3,7.5,0.7c0.6-0.2,1.1-0.6,1.7-1.1c0.3-0.4,0.7-0.8,1-1.2s0.6-0.9,1-1.3
		c0.2-0.2,0.3-0.4,0.5-0.6c-0.8-0.4-1.7-0.9-2.5-1.3C1040.8,564.4,1040,564,1039.1,563.6z"/>
	<path fill="#C49A6C" d="M1044.1,566.1L1044.1,566.1c-0.2,0.2-0.3,0.4-0.5,0.6C1043.8,566.5,1044,566.3,1044.1,566.1z"/>
	<path fill="#C49A6C" d="M1042.7,568c-0.3,0.4-0.6,0.9-1,1.2C1042.1,568.9,1042.4,568.4,1042.7,568z"/>
	<path fill="#C49A6C" d="M203.9,570.9C203.9,571,203.9,571,203.9,570.9c-1.2,0-2.6-0.3-3.7,0.1c-1.3,0.5-2.4,1.6-3.5,2.5
		c0.9,1.2,1.6,3,2.7,3.4c2.1,0.7,4.7,1.1,6.8,0.5c1.7-0.5,2.9-2.6,4.3-4.1c-1.5-0.8-3-1.7-4.6-2.4
		C205.3,570.7,204.6,570.9,203.9,570.9z"/>
	<path fill="#C49A6C" d="M1038.3,572.6c-0.4-0.1-0.8,0-2.3-0.1c-0.4,0-2.1-0.3-3.3,0.4c-0.9,0.5-1.8,3-1.5,3.2
		c2,1.5,4.3,3.9,6.3,3.7c2.1-0.2,5.3-2.6,5.7-4.6C1043.7,572.2,1040.3,572.9,1038.3,572.6z"/>
	<path fill="#C49A6C" d="M197.5,582.4c1.9,1.5,3.8,4.2,5.6,4.1c2.1-0.1,4.1-2.6,6.2-4.1c-1.9-1.3-3.7-2.6-6.4-4.5
		C200.7,579.7,199.1,581,197.5,582.4z"/>
	<path fill="#C49A6C" d="M618.9,258.9c2.4,1.7,3,3.4,3,6.1c-0.1,4.2,0.9,8.3,5,10.1c3.6,1.6,5.1,4.1,6,7.6c0.9,3.4,3,5.9,6.8,6.4
		c3.8,0.5,7-0.7,9.4-3.8c0.6-0.8,1.1-1.6,1.6-2.4c4.1-5.4,7.9-5.4,11.4,0.3c3.4,5.5,7.8,10,13.7,12.7c2.4,1.1,6,1.6,8.1,0.5
		c3.7-1.9,6.9-4.9,9.9-7.9c4.2-4.4,4.2-9.2,0.7-14.2c-0.4-0.6-0.9-1.3-1.5-2.2c6.8-0.7,12.2-3.1,13.9-9.9c1.4-5.5,0.6-10.5-6.2-12.4
		c2.8-5.9,6-11.7,0.6-16.7c-6-5.7-13-4.6-20.1-1.1c-4.4-11-13-13-21.8-5.4c-0.2,0.2-0.4,0.5-0.6,0.6c-1.4,0.6-2.9,1.6-4.3,1.5
		c-4.4-0.4-8,0.6-11.4,3.6c-0.9,0.8-3,1.2-4.2,0.8c-10.1-3.8-20.1,0.5-24.2,10.5C612.5,249.1,613.9,255.4,618.9,258.9z M686,285.5
		c-2.7,2.4-6,4.5-9.2,1.8c-3-2.5-5.6-5.7-7.2-9.2c-2-4.3,1.9-9.3,7.5-9c0.7,0.6,2.4,1.5,3.6,2.8c1.8,2.1,3.3,4.4,4.8,6.7
		C686.9,280.8,688.7,283.1,686,285.5z M700.7,259c1.4,2-1.3,6.6-4.6,7.6c-1.2,0.4-2.4,0.4-4.7,0.7c-1.3-0.5-3.5-1.4-5.6-2.2
		c1.1-2.4,1.9-5.1,3.5-7.1C691.6,255.3,698.8,256.2,700.7,259z M684.8,240.2c2.1-3.4,5.2-5.1,9.2-5c2.9,0.1,4.2,1.9,4.3,4.5
		c0.2,2.6,0.3,5.3-2.9,6.4c-2.9,1-5.9,2-9.2,3.1C684.4,246.4,682.8,243.5,684.8,240.2z M661.2,243.3c1.8-3.2,2.7-6.4,1.7-10.2
		c-0.2-0.7,0.8-2.5,1.4-2.5c3-0.2,6.3-0.7,9,0.2c2.9,1,4.4,3.9,3.7,7.9c-7-1.7-10.8,3.5-15.7,8.2C661.2,245,660.9,244,661.2,243.3z
		 M647.3,238.3c2.2-2.4,6.1-3.1,9.3-4.6c0.5,1.5,1.9,3.7,1.5,4.2c-4.2,4.6-2.8,9.9-2.5,15.2c0,0.9-0.4,1.8-1,4.1
		c-3.2-4-6.5-7-8.1-10.7C645.4,244.3,645.7,240,647.3,238.3z M652.3,264.8c5.5,2.3,9.4,0.3,10.4-5.5c0.8-4.4,2-8.5,5.8-11.5
		c3.7-2.9,8.3-3.3,10.9-0.9c2.7,2.5,3,8.5,0.4,11.8c-0.4,0.5-1.3,1.1-2,1c-8.4-1-12.6,3-13.6,11.1c0,0.4-0.4,0.7-0.9,1.5
		c-1.4-0.5-2.5-1-3.7-1.3c-5.1-1.4-8.4-0.1-11.3,4.3c-0.7,1-1.2,2.3-2.1,3c-1.1,0.9-2.7,2.3-3.8,2c-1.5-0.4-3.5-1.7-4-3.2
		c-1.1-2.8-5.7-4.9-2-8.9C640.9,263.4,646.1,262.2,652.3,264.8z M642.6,254.6c1.3,1.9,0.4,3.5-2,4.3c-2.3,0.7-4.6,1.7-6.8,2.6
		c-2.8,1.1-4.3,0.1-4-2.9c0.5-4.9,3.3-8.2,8.6-8.2C639.2,251.2,641.3,252.6,642.6,254.6z M624.8,237.9c3.4-3.1,9-3.1,11.8,0.3
		c1.3,1.6,1.7,4,2.9,7c-7.6-1.3-11.9,1.7-14.8,7.1c-0.3,0.5-2.5,0.6-3.1,0C618.4,249.2,620,242.2,624.8,237.9z"/>
	<path fill="#C49A6C" d="M672.6,204.1c0.5,0.9,1.5,1.5,2.3,2.2c0.3-0.1,0.5-0.2,0.8-0.3c-0.3-2-0.4-4.1-1.1-6
		c-1.4-4.1,0.5-5.4,4.1-6.6c3.5-1.2,7-3.2,9.6-5.8c3.7-3.8,2.8-7.7-1.1-11.4c-1-0.9-1.2-2.7-1.8-4.1c-1-2.3-1.3-5.3-3-6.6
		c-7.7-5.9-19.7-1.3-21.1,8.3c-0.6,3.7-0.2,8.1,1.3,11.6C665.3,191.8,669.2,197.9,672.6,204.1z M671.1,174.2
		c0.7,2.3,1.3,4.2,2.1,6.5c2.1-0.4,4.1-1,6-0.9c1.3,0.1,3.5,1.1,3.6,1.9c0.2,1.2-0.8,3.5-1.8,3.9c-2.9,1.1-6.3,2.3-9.1,1.7
		c-2.1-0.5-4.1-3.7-5-6.1C665.8,178.3,667.2,175.6,671.1,174.2z"/>
	<path fill="#C49A6C" d="M688,213.2c-1.1-0.2-2.3,0.4-3.5,0.7c4.1,1.2,5.2,3.9,5.8,7.4c1,5.2,5.5,6,9.7,6.7c3.7,0.6,7.1-0.3,9.3-3.8
		c1.9-3,3.9-6.1,5.8-9.1c0.4-0.6,0.5-1.3,0.7-1.9c-2.4,0.4-4.8,1.5-6.3,0.8c-3.3-1.6-5.5-4.3-4.6-8.6c0.5-2.1,0.1-4.3,0.1-6.5
		c-0.5-0.1-0.9-0.1-1.4-0.2c-0.8,1.8-1.4,3.8-2.4,5.4C698.1,208.9,695.3,214.3,688,213.2z"/>
	<path fill="#C49A6C" d="M523,156.7c3.5-4.8,7-8.9,9.5-13.5c0.9-1.7,0.2-5.1-1-7c-0.6-1-3.7-1-5.5-0.8c-1.1,0.1-2.1,1.6-3.3,2.7
		c-3.6-3.6-6.4-4.1-9.1-1.6c-3.1,2.8-2,5.8,0,8.5C516.4,148.7,519.5,152.4,523,156.7z"/>
	<path fill="#C49A6C" d="M665.4,429.3c-2.8-2.2-5.6-1.3-8,1.2c-0.4,0.5-1,0.8-1.6,1.3c-2.7-3-5.6-5.1-9.3-2.3
		c-2.9,2.2-2.8,6.2,0.4,10.3c2.8,3.8,6,7.4,9.4,11.6c3.7-4.8,7.2-9.1,10.4-13.6C668.6,434.9,668.2,431.6,665.4,429.3z"/>
	<path fill="#C49A6C" d="M524.3,385.2c-3.5-2.4-6.5-1.1-9.1,1.7c-0.2,0.3-0.6,0.4-0.9,0.5c-4.6-3.5-7.7-3.8-10.3-1.4
		c-2.8,2.6-2.8,6.5,0.3,10.8c3,4,6.4,7.8,10.1,12.3c3.9-5,7.7-9.5,11-14.3C527.7,391.5,526.9,387.1,524.3,385.2z"/>
</g>
</svg>
