<?xml version="1.0" encoding="utf-8"?>
<!-- Generator: Adobe Illustrator 27.3.1, SVG Export Plug-In . SVG Version: 6.00 Build 0)  -->
<svg version="1.1" id="Layer_1" xmlns="http://www.w3.org/2000/svg" xmlns:xlink="http://www.w3.org/1999/xlink" x="0px" y="0px"
	 viewBox="0 0 1200 800" enable-background="new 0 0 1200 800" xml:space="preserve">
<g>
	<path fill="#C49A6C" d="M363.9,88.6c1.5-0.1,3.5-1.2,4.2-2.4c1-1.7,1.7-3.7,3-5.3c1.7-2.1,3.1-1.8,5.1-3c0.8-0.5,1.5-1.4,1.5-2.4
		c0-1.2-0.7-1.7-1.7-1.8c-1.2-0.2-2.7,0.1-3.6,0.1c-0.7,0-6.9-0.8-7.1-0.4c-1.2,2.4-2.3,4-2.9,5.9c-0.6,1.9-1.1,3.9-0.9,5.8
		C361.7,86.3,363.2,88.6,363.9,88.6z"/>
	<path fill="#C49A6C" d="M945.4,274.5c-0.8-3.6-2.6-6.1-6.5-4.9c-1.2,0.4-2.7,1.1-3.5,2.2c-0.4,0.6-0.6,3.5-0.6,3.5
		c-2.7,2.1-4.7,3.6-6.7,5.2c1.6,1.9,3.1,5,5,5.4c2.7,0.5,10.6,5.9,12.6,2.8c0.7-1.1,0.2-4.7,0.2-6C946,280,946,277.2,945.4,274.5z"
		/>
	<path fill="#C49A6C" d="M314.1,451.6c-2.5,0.3-4.6,3.4-6.9,5.3c-1.7-6.2-7.7-10.8-14.3-8.9c-3.5,1-4.2,4.9-4.4,8
		c-0.5,10.8,10.2,18.1,15.9,26.1c0.5,0.7,0.4,1.7,0.2,2.8c-0.1,0.6-0.2,1.2-0.3,1.7s-0.2,1.2-0.3,1.7c5.7-8.7,11.9-17.1,17-26.2
		C324.4,456.1,320.7,450.7,314.1,451.6z"/>
	<path fill="#C49A6C" d="M387.1,761.9c-2.5,0.7-4.4,2.4-6.6,3.6c-1.1,0.6-4.3,1.2-4.7,2.5c-3.3-1.3-6.6-2.7-9.9-4.1
		c-0.4,0.4-0.8,0.8-1.1,1.1c2.3,2.6,4.1,5.8,6.9,7.6c2,1.4,3.7,5,6.5,4.8c1-0.1,2-0.6,2.9-1.1c3-1.8,5.7-3.6,8.1-6.1
		c1.4-1.4,2.6-2.9,3.9-4.3c0.6-0.7,3-4.2,3.8-4.2C392.7,761.7,389.7,761.1,387.1,761.9z"/>
	<path fill="#C49A6C" d="M930.1,353.9C930.1,353.9,930.1,353.9,930.1,353.9c-0.3,0.6-0.5,1.1-0.7,1.6c0,0,0,0,0,0
		C929.6,355,929.8,354.5,930.1,353.9z"/>
	<path fill="#C49A6C" d="M931.4,351.6c-0.1,0.1-0.2,0.3-0.2,0.4C931.2,351.9,931.3,351.7,931.4,351.6z"/>
	<path fill="#C49A6C" d="M930.2,353.7c0,0.1-0.1,0.2-0.1,0.2C930.1,353.8,930.2,353.8,930.2,353.7z"/>
	<path fill="#C49A6C" d="M933.7,348.2C933.7,348.3,933.7,348.3,933.7,348.2c-0.4,0.5-0.7,1-1.1,1.4c0,0,0,0,0,0.1
		C933,349.2,933.3,348.7,933.7,348.2z"/>
	<path fill="#C49A6C" d="M932.4,349.9C932.4,350,932.4,350,932.4,349.9c-0.4,0.5-0.7,1.1-1.1,1.6c0,0,0,0,0,0
		C931.7,351,932.1,350.5,932.4,349.9z"/>
	<path fill="#C49A6C" d="M932.6,349.7c-0.1,0.1-0.1,0.2-0.2,0.2C932.5,349.9,932.5,349.8,932.6,349.7z"/>
	<path fill="#C49A6C" d="M931.1,352C931.1,352,931.1,352,931.1,352c-0.3,0.6-0.6,1.1-0.9,1.7c0,0,0,0,0,0
		C930.5,353.1,930.8,352.5,931.1,352z"/>
	<path fill="#C49A6C" d="M1034.5,337.4c-0.2-0.2-0.6-0.2-0.9-0.1c-3.3,0.6-5.5,3.3-8.8,3.4c0.1-2.4,0-4.9,0-7.3
		c-0.4-0.3-0.7-0.5-1.1-0.8c-4.5,16.1-13,28.2-30.4,31.9c1.6-7.9,3.6-15.6,4.6-23.4c1.7-13.4,2.5-26.8,4.3-40.2
		c0.8-6,2.9-11.8,4.3-17.7c1.1-4.7,2.3-9.3,2.7-14.1c0.8-10.1,1.1-20.3,1.5-30.4c0.1-2.1-0.3-4.2-1.7-6.3
		c-1.3,8.1-2.6,16.3-3.8,24.4c-1.3,8.3-3.1,16.3-8.1,23.3c-1.8,2.5-3.6,3.5-6.6,1.3c-16.8-12.4-27.5-27.9-25.7-49.9
		c0.7-8.6,5.6-14.3,13.9-16.3c7.1-1.7,14-3.7,21-5.6c-0.1-0.5-0.2-0.9-0.3-1.4c-7.9,1.5-15.8,3-23.9,4.5
		c0.7-16.9,14.6-22.3,24.7-30.9c-3.3,0.8-6.6,1.5-10.8,2.4c0.8-4.9,1.3-8.6,1.9-12.3c-6.3,15.5-15.2,29.4-23.8,43.6
		c-0.6-0.1-1.3-0.1-1.9-0.2c-1.6-4.1-3.3-8.1-4.8-12.2c-0.9-2.5-1.6-5.1-2.3-7.6c-2.3-7.9-1.7-7.3,3.8-13.2
		c3.6-3.7,5.5-9.2,7.5-14.2c1.6-4.1,1.9-8.8,3.1-13.1c0.7-2.5,1.2-4.7-1.6-5.9c-2.8-1.2-5.7-2.3-8,1c-0.8,1.2-1.5,2.5-1.9,3.1
		c-3.6-2.4-6.7-5.5-10.5-6.9c-7.4-2.7-10.4,0.9-10.1,8.5c0.1,3-0.2,4.9-2.6,6.7c-6.2,4.5-10.3,10.2-10.2,18.4
		c0.1,4.7-3.1,7.4-7.4,9.1c-4-4.1-6.3-10.8-15.1-8.6c3.3,2.2,5.8,3.8,8.3,5.6c2.9,2.1,3.7,4.4,0.9,7.4c-5.6,5.9-11.1,12-16.7,17.9
		c-1.3,1.4-3.1,2.5-4.8,3.4c-7.4,3.9-9.1,3.4-13.9-3.4c-1.5-2.2-3.2-4.3-4.7-6.4c-2.2-2.9-4.8-4.4-8.6-3.6c-1.6,0.3-3.4,0.2-4.9-0.3
		c-9.2-3-16.7-8.6-24.1-15.4c1.3-1,2.1-1.9,3-2.3c7.7-3.3,14.1-7.9,18.1-15.5c3.6-6.8,10.3-7.7,16.9-6.7c7.3,1.1,14,0.5,21.1-1.4
		c14.7-3.9,28.8-9.2,42.3-16.3c1.6-0.8,3.7-0.7,4.4-0.8c5-5,9.4-9.5,13.9-14l-0.7-0.7c0.3,0.3-9.6,7.1-10.6,7.6
		c-4.4,2.1-8.3,5-12.7,7.3c-5.6,2.9-11.2,5.7-16.8,8.6c0.5-7.4,0.5-13.3,1.6-18.9c0.4-2,3.5-3.9,5.8-5.1c4.6-2.5,9.3-4.8,14-7
		c4.2-2,6.4-4.9,8.7-9c0.3-0.6,0.6-1.3,0.1-1.8c-5.6,5.3-10.6,11.6-18.7,12.6c-0.3-2.1-0.5-4.1-0.9-7c-3.6,4.8-6.7,8.9-10,13.4
		c-4.8-4.3-6.8-10.8-14.2-6.9c-5.4,2.9-3.9,6.8-3,10c-5.9,0.4-11.6,0.7-17.8,1.1c-2.6-8.6-1.3-17.8,2.6-27.1
		c-3.9,2.5-6.6,7.1-6.7,12.1c-0.1,5-0.2,10.1,0.6,14.9c1.4,8.1-2.2,13.3-8.4,17.5c-9.1-7.3-11.2-15.2-6.9-26.2
		c3.3-8.4,7-16.6,6.5-25.9c-0.1-1.2,0-2.3-0.2-3.5c-1.1-6.7-6-11-11.4-10.1c-6.9,1.2-10.9,7.2-9.4,14.2c0.1,0.5,0,0.9,0,1
		c-3.5-0.5-7.1-1.9-10.2-1.2c-7.4,1.8-8.8,7.7-2.8,12.3c5,3.7,10.8,6.5,16.5,9.3c8.6,4.3,8.9,4.6,5.8,14.2
		c-3.8-0.9-7.7-1.9-11.5-2.8c-0.2,0.5-0.4,1.1-0.6,1.6c2.7,1.7,5.4,3.4,8.2,5c5,2.9,8.5,7.1,9.7,12.7c0.4,2-0.2,4.8-1.4,6.4
		c-0.7,0.9-3.9,0.4-5.6-0.3c-5.7-2.3-10.4-1.4-14.8,3.8c0.4-5.8-2.3-9.4-6.9-11.8c-6.2-3.2-11.6-1.2-13.9,5.4
		c-2.2,6.2-0.2,12.1,1.5,18.1c0.8,2.8,1.7,5.6,1.5,9.3c-1.6-0.9-3.3-1.5-4.7-2.7c-7.2-6.5-12.3-14.5-15.5-23.6
		c-1-2.8-0.4-6.7,0.7-9.5c3.6-9.4,6.8-18.4,5.8-29c-0.8-8.4,3.2-15.9,10.4-21c2-1.4,3.8-3.1,5.3-5.4c-2.6,1.1-5.2,2.1-8.4,3.4
		c1.1-3.8,2-7,2.9-10.2c-0.5-0.2-1.1-0.4-1.6-0.6c-3.8,9-7.6,18-11.4,27.2c-10.4-12-20.4-23.6-30.5-35.1c-0.3,0.2-0.6,0.4-0.9,0.6
		c1.5,3,3.1,6,4.7,9.2c-3.4,0.5-6.4,1.4-9.4,1.3c-2-0.1-4.6-1.2-5.6-2.8c-2.8-4.4-5-9.3-8.2-13.7c1.8,4.6,3.6,9.1,5.2,13.2
		c-1.7,2.9-3.5,5.9-5.4,9.2c-0.8-0.5-2.2-1.4-3.5-2.2c-4-2.5-7.4-1.3-10.3,1.8c-3,3.2-2.8,7.2,0.2,9.8c3.8,3.3,8.2,6.3,12.8,8.4
		c4.8,2.2,10.1,3.2,16.5,5.1c-1-9.2-1.9-17.4-2.8-25.9c5.5-3.3,11.8-2,15.8,1.6c9.9,8.7,18.6,18.7,20.8,32.5
		c1.1,6.7-2.4,16.9-7.4,22.4c-5.1-5.6-5.5-7.7-4.6-24.1c-10.2,11.4-4.6,21.7-0.4,30.7c-3,5.9-5.6,10.8-8.3,16.1
		c-4-3.2-8.7-6.9-14.6-11.6c0.5,2.6,0.7,4,1,5.5c-3.4,0.9-6.1,1.2-7.4-3.5c-1-3.8-5-4.2-7.8-1.2c-1.1,1.1-1.6,2.8-1.9,3.3
		c-2.8,0.5-5.1,0.8-7.4,1.2c0.8,2.4,1.3,4.9,2.5,7.1c0.9,1.7,2.7,2.8,3.7,5c-2.6-1.1-5.4-1.9-7.9-3.2c-8.1-4.3-16-8.9-24.2-13
		c-14.9-7.5-17.6-23.5-15.2-35.4c1.7-8.4,4.6-16.2,12.4-21.4c2.8-1.9,4.7-5.1,7.6-8.5c-4.3,2.1-7.8,3.8-11.2,5.5l-1.6-0.7
		c0.3-3.4,0.4-6.9,1.1-10.3c0.4-2.2,1.8-4.3,2.7-6.4c2.7-6.5,2-8.7-3.9-13.4c3.9,8.2,3.5,10.9-3,16.7c-3.1-3.8-6.2-7.6-9.3-11.4
		c-2.6,0-6,0.2-9.4,0c-7.3-0.6-14.5-1.6-21.8-2c-3.7-0.2-5.3-1.5-4.5-5.2c0.1-0.3,0.2-0.6,0.2-1c2.2-12,5-13.1,14.4-5.9
		c2.4,1.8,4.8,3.6,7.3,5.2c7.5,4.5,9.7,3.8,12.8-4.5c0.3,0.5,0.5,0.9,0.7,1.2c1.1,1.9,2.3,3.7,3.4,5.6c0.4-2.1,1.8-4.7,1-6.3
		c-1.5-3.1-4-5.8-6.4-8.4c-1-1.1-2.8-1.4-4.3-2.1c1.6-1.7,3.5-2.9,4.1-4.5c1.5-4.7-2.5-8.6-7.1-6.7c-5,2-9.8,4.9-14.6,7.6
		c-6.6,3.6-7.1,3.6-10.9-2.8c-1.8-3-3.6-6-5.5-8.9c-0.5-0.8-1.3-1.5-2.6-2.2c9.5,12.2,7.2,25.3,2.6,39.1c-9.4-2.3-19.6-4.9-29.8-7.4
		l-0.5,1.6c6.9,2,13.8,3.9,20.6,5.9c0.1,0.3,0.2,0.6,0.4,0.9c-8.8,2.4-17.6,4.7-27.3,7.3c13,3.5,24.1-3.7,35.8-3.3
		c-15.6,7.5-31.6,10.8-48.9,5.3c1.2-5.1,2.6-9.6,3.5-14.3c1.1-6.4-0.4-9.6-4.2-10.2c-4.4-0.6-6.9,1.8-8.3,8
		c-0.1,0.5-0.3,0.9-0.1,0.4h-25.1c-2.9-4-1.1-8.1,2.5-13.4c-2.4,1.4-3.7,2-4.8,2.8c-4.3,2.9-6.3,2.6-8-2.4c-1.5-4.3-1.8-9-2.7-13.3
		c-2.8,3.4-2.7,8.7,1.1,18c-5.1-0.7-9.8-1-14.3-2c-1.1-0.3-2.5-2.5-2.6-3.9c-0.7-7.6,3.8-13.2,7.8-19c2.4-3.5,5-6.8,7.5-10.2
		l-1.1-0.9c-2.6,2.5-5.2,5-7.7,7.5c-2.4,2.4-5,4.7-7,7.4c-1.5,2.1-3.5,4-2.3,7.5c1,2.9,0.2,6.5,0.2,9.9c-8.6-1.7-10.4-3.6-12.2-11.3
		c-0.5-2.2-2.2-4.2-3.4-6.2c0.3,1.9,0.7,3.7,1.1,5.6c0.4,1.9,0.7,3.7,0.9,5.6c0.4,3.4-1.7,5.7-4.9,5.6c-2.1-0.1-4.7,1.2-6.9,0.7
		c-0.6-0.1-1.2-0.4-1.8-1c0.1,0.1,0.3,0.3,0.4,0.4c-0.2-0.1-0.3-0.3-0.5-0.4c0,0-0.1-0.1-0.1-0.2c-0.1-0.1-0.2-0.2-0.3-0.4
		c0-0.1-0.1-0.1-0.1-0.2c-0.3-0.4-0.5-0.9-0.7-1.6l0,0c-1.2,1-2.4,2-3.7,3c-2.1,1.7-4.3,3.5-6.7,5.5c-1.3-5.2-2.2-8.9-3.1-12.6
		c3.8,15.8-3.3,27.8-12.4,39.3c-0.5,0-1-0.1-1.5-0.1V65.5c-0.6-0.2-1.1-0.3-1.7-0.5c-1.2,2.3-2.2,4.8-3.6,6.9
		c-1.7,2.5-4,4.6-5.7,7.1c-1,1.5-2.5,3.6-2.2,5c1.5,5.9,3.6,11.6,5.4,17.5c0.6,1.8,0.8,3.7,1.2,5.6c-2.2,0.4-4.6,1.5-6.6,1
		c-3.3-0.8-6.6-2.2-9.4-4c-1.2-0.8-2.2-3.8-1.7-5.3c2.5-7.7-0.6-12-8.7-11c-1,0.1-1.9,0.4-2.9,0.6c-0.3-0.3-0.7-0.5-0.7-0.8
		c-0.2-2.8,1-6.3-3.2-7.3c-3.9-1-6.8,1.1-8.1,4.2c-1.8,4-2.5,8.4-3.8,12.6c-0.7,2.1-1.8,4.2-2.7,6.2c0,0,0.1,0,0.1,0
		c0,0-0.1,0.1-0.1,0.1c7.7,0.1,15.5,0.1,23.2,0.4c1.5,0.1,3,1.3,5.8,2.7c-6.2,4.7-11.1,8.7-16.4,12.4c-3.5,2.4-7.1,1-9.3-1.8
		c-2.5-3.1-4.2-6.9-5.8-10.5c-0.3-0.6,1.6-2.1,2.5-3.2c0,0,0-0.1,0.1-0.1c0,0,0,0,0,0c-0.7,0.1-1.4,0.2-2.3,0.3
		c-0.3,0-0.7,0.1-1,0.1v-12c-3.3,3.2-4.5,9.1-2.3,15.1c1.8,4.9,4.9,9.3,7.6,14.3h-35.1v-8.5c6.1,1,12,2,17.9,2.9
		c0.1-0.4,0.2-0.8,0.3-1.2c-6.1-1.7-12.2-3.4-19.6-5.5c3.4-3,5.9-5.3,8.4-7.5c3.9-3.3,5.5-7.6,4.8-12.5c-0.2-1.5-2.3-3.9-3.3-3.8
		c-1.6,0.2-3.3,1.9-4.5,3.3c-0.8,0.9-0.9,2.4-1.5,4.1c-0.7-1.9-1.2-3.3-1.7-4.6c-5.1,0.6-5.3,1.4-3.9,5.7c1.2,3.9,1.4,8.1,2.3,13.6
		c-4.4-1.1-7.1-1.7-10.3-2.5c2.4-8.4,4.6-16.2,6.8-24.1c-0.5-0.2-1-0.3-1.5-0.5c-3.7,7.6-4.5,16.5-9.3,23.5
		c-2.4,3.5-5.7,3.8-9.5,5.5c-4.4,2-8.7,4.3-13.1,6.1c-0.5-1.7-1-3.4-1.9-6.3c-6.1,11.8-11.6,22.7-17.3,33.6c-1.1,2.2-3,3.9-4.1,6.1
		c-3.3,6.4-6.4,12.4-13.2,16.5c-2.4,1.4-1.9,7.8-2.8,11.9c-0.4,1.8-0.5,4.9-1.4,5.2c-4,1.2-8.3,1.8-12.5,2.2c-0.5,0-1.6-2.1-1.7-3.3
		c-0.5-6.9,0.3-13.6,5-19.2c3.8-4.6,7.3-9.5,11.4-13.9c3.6-3.8,7.9-6.9,12.7-11.1c-11.9,3.7-16.6,14.1-25.1,21.3
		c-6.4-16.1,2.1-30.8,1.8-45.7c-0.4-0.1-0.9-0.3-1.3-0.4c-2.5,7.8-5.1,15.7-7.6,23.5c-0.7-0.1-1.5-0.1-2.2-0.2
		c-0.3-4.7-0.5-9.4-0.8-14.1c-0.4,0-0.8-0.1-1.2-0.1c-0.3,3.6-1.1,7.2-0.9,10.7c0,3.3,0.4,6.6-1.5,9.5c-2,3.1-5.4,3.9-8.3,5.8
		c-2.2,1.4-2.4,2.7-3.2,4.9c-8.9-10.2-16.8-20.5-17-34.6c-2.5,6.9-1.7,13.7,1.6,20c2.7,5.1,6.1,9.9,9.5,14.7
		c4.4,6.4,7.7,13.1,8,21.1c0.2,5.1-1.7,8-6.6,8.8c-3.7,0.6-6.1,2-3.9,6c-7.5,3.8-15.2,6.8-21.7,11.4c-6.5,4.6-11.7,11-17.7,16.8
		c-4-8.9-10.9-18.2-11.3-29.4c-0.3-10.7,1.7-21.5,2.6-31.9c-5.6,5.9-8.3,13.9-9.6,22.5c-1.2,8.4,0.7,16.4,3.2,24.5
		c5.1,16.5,10,33,14.1,49.8c1.2,5,0.2,10.9-0.9,16.1c-0.7,3.5-3.5,4.5-6.6,1.3c-2.6-2.8-5.6-5.3-8.4-7.8c-7.4-6.5-10.8-14.6-10-24.4
		c0.1-0.8-0.1-1.6-0.2-3.3c-4.5,5.8-6.5,11.1-4.4,17.6c0.5,1.4,1.4,3.4,0.2,4.7c-1.6,1.7-4.7,1.9-6.6,3c3,2.7,7,0.8,10.4,1.3
		c3.2,0.4,6.6,0.8,9.2,2.7c12.1,8.9,16.8,36.1,9.3,50c-1.2-1.3-2.2-2.5-3.3-3.7c-5.7-6-11.2-12.3-17.1-18c-2.1-2-3.5-5.2-5.9-6.7
		c-2.7-1.8-6.6-1.8-9.4-0.3c-1.4,0.7-6.8,5.7-5.8,7.6c-1.5-2.6-2.1-5.2-3.6-6c-1.9-1-5.3-1.4-6.8-0.3c-1.7,1.3-3.1,4.7-2.7,6.7
		c0.9,4.1,2.9,8.1,5,11.8c2.1,3.9,4.8,7.5,7.6,11.7c0.4,0.4,14.8-13.2,16.3-14.5c1.8-1.6,2.8-6.5,3.7-8.8c2.5,2.9,4.1,4.4,5.3,6.3
		c1.5,2.4,2.8,4.9,3.9,7.5c8.6,20.6,17.5,41.2,25.7,62c2.4,6.1,2.7,13,3.7,19.5c0.3,1.8-0.3,3.8-0.4,5.7c-0.5,0.1-1,0.1-1.4,0.2
		c-1.1-2.4-2.2-4.7-3.1-7.2c-6.1-16.3-13.7-31.4-26.2-44.2c-6.5-6.6-9.6-14.8-10.9-23.6c-0.9,0.4-1.8,0.8-2.7,1.2
		c-0.4,4.7-0.7,9.5-1.1,14.2l-1.4,0.9c-6-5.4-12.1-10.9-18.1-16.3c-0.2,0-0.4,0.1-0.6,0.1c1.4,2.8,2.4,5.9,4.4,8.2
		c3.6,4.1,7.6,7.9,11.7,11.6c6.6,6,6.6,7.2-0.7,12.6c-8.2-6.3-12-5.7-17.5,2.1c-2.6-2-4.9-4.9-7.8-5.7c-4.1-1.2-7,1.4-6.6,5.7
		c0.4,4,1.5,8.4,3.7,11.6c6.7,10,10,21,12.5,32.8c1.7,8.1,4.3,16.1,8.5,23.3c2.1,3.6,4.6,7,7.5,10c9.5,10,23.7,13.7,35.2,21
		c8.7,5.5,12.4,15,15.4,24.4c6,18.4,12.8,36.4,24.1,52.4c3.7,5.3,7.8,10.2,11.8,15.4c7.7,9.9,18.5,17.3,27.5,26
		c14.8,14.4,29.5,28.9,43.8,43.8c4.4,4.6,8.1,10.2,10.9,15.9c7.8,16.3,5.1,27.3-9.1,38.6c-4.2,3.4-9,6.7-14.1,8.3
		c-16.2,5.3-32.6,10-49,14.6c-13.7,3.8-24.2,14-31.7,25.9c-6.5,10.4-15.8,17.3-26.5,22.9c-2.1,1.1-3.6,3.3-5.3,5.1
		c2.7,0.4,5.9,1.9,8.2,1.1c7.4-2.8,14.6-6.4,21.8-9.9c7.3-3.6,14.4-7.7,21.8-11.1c5.8-2.7,13.9-4.3,20.2-3.1
		c7.6,1.4,15.2,2.9,22.8,4.3c9.8,1.8,19.6,3.5,29.4,5.2c8.2,1.4,17.7,1.7,24.5,7.1c0.8,0.6,7,4.3,7.5,3.7c-3.4,4-6.5,7.2-11.3,9.5
		c-4.7,2.2-9.9,3.2-15,4.2c-1.4,0.3-3.4-1.7-4.8-3c-7.6-7.6-15.8-14.3-26.5-17.1c-6.4-1.7-10.1-0.1-11.8,4.9c-2,6,0.5,12.7,5.8,14.8
		c1.7,0.7,3.5,1.1,5.2,1.6l1.5,1.7c-1.3,0.6-2.7,1.1-4,1.8c-3.1,1.7-3.8,4.2-2.6,7.6c1.2,3.3,3.4,4.7,6.8,4.7
		c4.3,0,8.7,0.4,12.9-0.1c2.7-0.3,5.2-1.9,7.7-3.2c1.1-0.6,2.1-1.7,2.8-2.8c2.8-4.9,7.2-8.7,13.1-9c2.9-0.1,5.5,0.6,8.4-0.2
		c8.6-2.3,11.9-12.8,21.3-13.5c12.1-1,21.3-6.4,26.2-17.8c1.7-4,3.3-8,4.3-12.2c2-8.5,0.8-16.3-5.9-22.5c-3.9-3.6-7.7-7.4-12.1-10.4
		c-8.9-6.1-18.6-9.6-29.8-6.4c-0.2-0.5-0.5-1-0.7-1.6c1.4-1.1,2.7-2.9,4.2-3.1c3.6-0.5,7.3-0.6,10.9-0.2
		c16.2,1.8,37.6,20.5,39.3,34.8c1.4,11.8-4,22-9.6,31.9c-0.6,1.1-1.5,2.2-2.8,4.2c2-0.3,3.3-0.1,4.2-0.7c4.6-2.9,9.4-3,14.4-1.7
		c3.3,0.9,5.5-0.5,5.7-3.7c0.4-12.8,1.4-25.6,0.4-38.3c-0.6-7.9-6.2-13.8-14.4-16.3c-1.1-0.3-2.1-0.9-4.3-1.8
		c4.8-2,8.3-1.2,11.5,0.8c8.7,5.4,13.2,13.4,13.5,23.6c0.2,8.5-0.1,17,0.1,25.5c0.1,3.8,0.7,7.6,1.2,11.4c0.5,4.2,2.6,5.5,6.4,3.2
		c2.9-1.8,6.6-4.9,9.9-5.8c5.5,8.6,8.4,19.1,18.9,23.2c1.8,0.7,4,0.5,6.7-0.1c-17.1-15.8-26.6-34.9-27.2-58
		c2.7,6.7,5.1,13.6,8.2,20.2c3,6.3,6.1,12.6,10.1,18.3c8.4,12.1,20.4,16.1,34.6,12.2c14.2-3.8,16.6-3.1,25.3,9.3
		c2.3,3.3,4,3.5,7.2,1.5c27.6-17.6,56-16.5,84.7-3.1c8.6,4,17.1,8.3,25.7,12.2c10.5,4.7,21.5,7.1,33.1,5.2
		c8.3-1.3,14.4-4.6,16.9-14.2c4.6-17.6,15.4-32.4,24.5-47.8c1.2-2,4-3.4,6.4-4.4c3-1.3,6.3-2,9.6-2.7c7.9-1.7,14.8-4.4,17.8-13.2
		c1.3-3.8,4.7-6.7,9.2-7.3c-3.1,6-5.8,11.9-9.1,17.5c-1,1.8-3.5,3-5.6,3.8c-2.8,1.1-5.8,1.7-8.7,2.2c-17.9,3.6-28.9,21.8-28.6,37.5
		c0.2,10.4,2.2,18.4,7.2,23.8c4.9-5.2,9.8-10.3,12.2-17.2c6.4-18.7,19.7-30.3,37.9-36.8c0.4-0.2,1,0,1.4,0c0.2,0.4,0.6,0.7,0.6,0.9
		c-0.9,4.1-1.3,9,2.1,12.1c3.6,3.4,10.7,3.8,15.1,2.4c1.1-0.4,2.1-0.9,3-1.4c4.4-2.4,8.6-5.2,12.6-8.3c-0.7,3.1-2.6,5.9-4.8,8.2
		c-3,3.1-5.3,5-9.5,5c-5.1-0.1-10.3,0.4-15.4,0.6c0.8,1.2,1.3,2.2,2,2.8c12.5,10,33.8,8.6,44.8-3.2c0.8-0.9,1.1-3.6,0.4-4.4
		c-9.7-11.2-2.4-33.5,12.1-41.8c0.4,0.4,1.1,0.7,1.3,1.2c7,13.8,19.1,20.3,33.5,22.4c9.5,1.4,17.1,5,23.3,12.1
		c1.2,1.4,3,2.3,3.7,2.9c0.9-3.4,1.9-6.6,2.4-9.8c0.4-2.8,0.3-5.7,0.5-8.9c1.8,1,3.8,2.2,6.3,3.8c0.1-6.5-2.3-11.6-6.5-15
		c-5.5-4.6-12-8.1-17.9-12.3c-3.6-2.5-7.8-4.8-10.2-8.3c-9.1-13.7-15.6-28.3-13.3-45.4c0.5-4.1,0.2-8.3,0-12.5
		c-0.7-14.2,5.5-24.2,17.9-30.9c6.9-3.7,14.3-7,20-12.1c7-6.2,12.5-14.1,18.6-21.3c1.1-1.3,1.4-3.4,2.6-4.2c2.4-1.4,5.2-2.6,7.9-2.7
		c8.9-0.3,19.9-1.5,25.6-9.4c-5.3,1.6-10.1,3.1-15,4.4c-6,1.6-13.2,0.1-19.4,0.1c-1.3,0-0.3-11.2,0-12.4c0.9-3.4,2.9-6.3,5.7-8.5
		c6.8-5.2,16.1-6.4,23.6-10.7c-0.3,1.4-0.7,2.5-0.4,3.2c1.2,3.1,1.9,7.2,4.2,8.8c2.1,1.5,6.4,1.1,9.2,0c2.9-1.2,5.4-3.9,7.4-6.4
		c4.4-5.6,8.4-11.5,12.6-17.5c-0.7-0.5-1.4-1.2-2.3-1.6c-8-3.7-15.9-7.6-24-11c-3.4-1.4-7.4-2.4-11.1-2.4c-8,0-11.6,6-8.5,13.4
		c1.9,4.4,5.3,7.1,9.9,8.3c1.1,0.3,2.2,0.6,3.3,0.9c0,0-0.1,0.1-0.1,0.1c-3.8,2.8-7.9,5.2-12.1,7.3c-3.3,1.6-6.6,3.6-9.9,5
		c-3.3,1.4-6.3,3.6-9.4,5.4c-0.3,0.2-5.1-17.5-5.4-19.4c-0.7-5.5-0.6-11.2,1-16.6c3.5-12,13.6-18.5,21.3-27.5
		c4.1-4.7,7-11.4,10.3-16.7c3.7-6,7.4-12,10.8-18.2c4.6-8.5,10-15.4,19-19.6c16.2-7.7,25.6-22.3,35.1-36.7c2.7-4,5.2-12,10.1-14
		c-4.4,1.8-7.6,5.9-10.6,9.3c-3.7,4.1-7,8.5-10.9,12.5c-5.1,5.4-10.4,10.7-16.2,15.5c-4.2,3.5-9.3,5.5-16.1,4.4
		c2.2-4.1,4.3-7.4,5.8-11c5.6-14.5,14.1-26.2,28.9-33c5.2-2.4,8.8-6.7,13.6-9.6c4.1-2.5,7.9-4.2,8.5-9.6
		C1034.7,337.9,1034.7,337.6,1034.5,337.4z M880.5,143c6.7,4.2,13.2,8.2,19.5,12.1c-6.6,4.8-19.3,3.3-27.2-1.1
		C875.6,150.1,878.3,146.2,880.5,143z M247.1,441.7c-4.3,0-8.9,0.9-12.9-0.3c-8.4-2.6-16.4-6.2-24.6-9.5c-2.3-0.9-4.1-2.9-6.2-4.3
		c-2.2-1.4-4.3-3.1-5.9-5.1c-9.5-11.6-14.8-25.2-17.7-39.7c-0.4-2.2,1.1-5.4,2.7-7.3c5.9-6.5,13.2-11.8,14.9-21.3
		c0.2-0.9,1.4-2.2,2.3-2.3c5.5-0.8,11.1-2.3,16.3,1.8c7.9,6.1,14.1,13.2,15.7,23.4c2.9,17.8,8.5,34.8,14.5,51.7
		C247.7,432.7,246.9,437.4,247.1,441.7z M839.6,193.8c6.1,5.6,12.4,11.1,18.5,16.7c1.4,1.3,2.4,3,4.1,5.1
		c-5.9,0.9-11.1,1.8-16.2,2.5c-0.8,0.1-2-0.6-2.4-1.3c-6.7-10.7-15.2-19.6-26.7-26.5C825.7,188,833.1,187.8,839.6,193.8z
		 M830.5,231.4c-9.3-12.6-18.5-25.1-28.2-38c9.5-0.3,17.7,2.8,23.7,10.2c3.5,4.3,5.8,9.6,8.1,14.7
		C836.6,223.5,834.6,227.8,830.5,231.4z M795.2,160.6c0.7-0.8,4.3-0.7,5.1,0.2c5.7,7,11,14.3,16.6,21.7c-11.9,3.8-25.3-4-25.2-14.3
		C791.7,165.7,793.5,162.8,795.2,160.6z M763.8,168.3c0.9-4.4,3.6-5.1,7.3-4.7c6.8,0.7,11.6,4.9,15.8,9.6c3.3,3.7,6,7.9,9.9,13.1
		c-13.4-0.8-25-3.6-36.1-8.6C761.9,174.4,763.2,171.4,763.8,168.3z M771.3,186.4c1.6,0.7,2.9,1.8,4.4,2.7c-0.1,0.4-0.1,0.9-0.2,1.3
		c-2.5,0.4-5,1-7.5,1.2c-6.9,0.7-13.9,1.1-20.9,1.9c-3.3,0.4-5.7,0-7.3-3.5c-3.3-7.4-9.5-11.2-17-13.4c-9.7-2.9-19.3-6.1-29-9.2
		c-1.7-0.5-3.3-1.3-4.7-1.9c4.4-1.7,8.5-3.8,12.9-4.7c2.9-0.6,6.4-0.3,9.1,0.8C731.4,169.7,751.3,178,771.3,186.4z M610.2,90.8v-4.4
		c0.8-0.2,1.4-0.7,2-0.6c4.1,0.5,8.2,1.2,12.4,1.7c13.4,1.5,25.9-1.6,37.7-7.6c12.2-6.2,24.7-4,37.1-1.6c4.2,0.8,6.7,4.5,7.8,8.9
		c3.2,13.1-0.5,24.6-8,35.8c-3.9-2.9-5.2-7.1-5-11.3c0.3-7.6-1.5-14.4-4.9-21.1c-1.7-3.5-2-7.8-3.9-11.5c0.4,2,0.7,4,1.3,7.1
		c-3.4-1.3-5.9-2.3-9.6-3.7c5.8,7.6,14.5,12.5,13.9,23.3c-2.8-1.3-5.1-2.4-7.4-3.5c7.9,3.5,8,11.5,10.7,18c3,7.4,7.2,14.3,10.1,21.6
		c5.3,13.1,3.3,10.5-6.2,14.2c-3.5,1.4-7.3,2.3-10.9,3.6c-3.9,1.4-6.7,0-8.3-3.4c-1.7-3.4-3.4-7-4-10.6c-1.7-9.7,0.9-13.5,10.2-16.2
		c-5.9-2.7-12.5-0.8-13.8,5c-1.2,5.3-0.2,11-0.2,16.6c-8.1,0.3-10.1-2.7-10.9-17.7c-0.9,0.3-1.7,0.6-2.3,1.1
		c-0.2,0.2-0.4,0.3-0.6,0.5c0,0-0.1,0.1-0.1,0.1c-0.2,0.3-0.4,0.5-0.6,0.8c-0.1,0.2-0.2,0.4-0.3,0.7c-0.1,0.2-0.2,0.5-0.2,0.8
		c-0.1,0.3-0.1,0.5-0.1,0.8c-0.3,2.5,0.3,6,1.8,11.1c0,0,0,0,0,0c-5.6,1.2-10.5,0.1-15.2-2.5c-0.3-0.2-0.6-0.4-0.9-0.6
		c-1.7-1-3.3-2.2-5-3.6v5.5c-9.6-0.2-15.3-6.2-14.7-16c0.5-7.5,1.9-14.9,2.2-22.4c0.1-3.7-0.9-7.6-2.3-11c-1.7-4.1-5.3-6.1-9.8-4.8
		c-4.8,1.4-8.9,7.6-8,11.7c0.3,1.4,0.6,2.8,0.7,3.1c-4.1,0.5-8.2,0.5-12.1,1.5c-3.3,0.8-4,3.3-2.3,6.6c2.7,5.2,7.1,7.8,12.4,9.3
		c4.2,1.2,8.4,2.3,12.6,3c3.8,0.6,5.3,2.8,5.6,6.4c0.9,10.9-1.7,13.2-12.2,10.2c-3.6-1-7-2.6-11.6-4.4c8.4,9.8,19.9,5.6,29.2,8.7
		c-0.9,4.1-1.6,7.4-2.3,10.7c0.5,0.4,0.9,0.8,1.4,1.1c3.3-9.4,11-7.4,17.6-7.8c6.1-0.3,12.3-0.4,18.5-0.1c2.8,0.1,5.6,1.2,8.4,1.8
		c0,0.5-0.1,1-0.1,1.5c-2.6,0.4-5.2,0.6-7.7,1.3c-4.9,1.4-9.8,3-14.7,4.7c-5.2,1.8-10.1,4.6-15.4,5.6c-5.3,1-10.9,0.2-16.7,1.3
		c2.9,1,5.9,1.9,8.8,2.9c0.1,0.4,0.2,0.7,0.3,1.1c-6.8,2.4-13.6,4.8-20.4,7.2l0.7,2.5c4.5-1.1,9.2-1.7,13.5-3.4
		c8.3-3.3,16.4-7.2,24.6-11c8.8-4.1,17.4-8.5,27.4-8.4c1.9,0,4,0.3,5.8,1.1c9.3,4.1,18.5,8.3,27.7,12.5c0.6,0.3,1.1,0.7,1.3,0.8
		c-3.4,4.2-6.8,8.4-10.3,12.7c-1.6-1.5-3.9-3.4-6.4,0.1c-0.4,0.5-1.8,0-2.6,0.3c-1.4,0.4-3.5,0.8-3.9,1.7c-0.4,1,0.5,3.3,1.5,4
		c3.2,2.2,6.7,4,9.6,5.6c0.3-0.2,0.6-0.3,0.8-0.5c0.2-0.2,0.4-0.4,0.6-0.6c0.1-0.1,0.2-0.2,0.2-0.4c0.2-0.3,0.4-0.7,0.5-1.1
		c1.1-3.4-0.2-8.1,6-7.1c1.2-6.2,4.2-9.8,8.8-10.8c0.3-0.1,0.6-0.1,0.9-0.2c1.2-0.1,2.5-0.1,3.8,0c8.5,1.1,14.3,7.7,13.6,15.6
		c-0.1,1.6-1.2,3.5-2.4,4.5c-2.2,2-4.9,3.4-7.4,5.1c-15.7,10.8-17.4,22.6-4.6,38c-7.8-0.4-14.6-1.1-21.4-1.1
		c-22.7-0.1-45.3-0.1-68,0c-8.7,0-16.9-1.6-24.4-5.9c-12.1-6.9-24.3-13.8-36.1-21.3c-7.4-4.6-11.1-11.7-10.6-20.8
		c0.8-13.8-2.1-26.7-9.1-38.8c-6.5-11.2-5.2-25.1,2.5-32.9c4.4-4.5,9.5-5.9,15.5-3.4c2.4,1,5,1.7,7.6,2.5c0.1-0.5,0.3-0.9,0.2-1
		c-4.8-4.9-4.5-5.8,2.3-7.6c1.5-0.4,2.9-0.7,4.4-1c1.3-0.3,2.6-0.4,5-0.8c-7.8-5.3-14.8-10-22.1-14.9c5.2-5.6,11-8.1,18.1-7.8
		c2,0.1,4.2-1.1,6-2.2c4.9-3.2,10.1-3.3,15.2-1.2C602.6,86.3,606.2,88.6,610.2,90.8z M523.9,250.7c-3.8-0.2-5,1.9-5.1,5.2
		c0,0.8-0.5,1.5-1,3c-4.3-5.2-9.2-4.4-13.1-2.4c-3.7-3.5-6.8-6.5-10.2-9.8c1.8-4.2,5.4-8.7,2.4-14.3c-1.3,3.8-2.4,7.5-3.8,11.1
		c-0.9,2.5-2.6,3.2-5.1,1.6c-2.5-1.6-5.1-2.9-8.2-4.7c1.4-2.7,2.9-4.9,3.8-7.4c1-2.9,2.2-6.1,2-9.1c-0.1-2.2-2-5.1-3.9-6
		c-2.7-1.4-5.4,0.3-6.8,3.3c-0.3,0.7-0.8,1.4-1.4,2.6c-0.8-1.2-1.3-2.5-2.1-2.8c-1.7-0.6-3.7-1.3-5.4-0.9c-0.9,0.2-2.2,2.9-1.9,3.8
		c1.3,3.5,3.2,6.8,5.1,10c1.1,1.7,2.7,3.1,4.9,5.5c-12,0.7-13.1-9.6-18.3-15.2c-0.4,0.2-0.7,0.4-1.1,0.7c1.6,3.2,3.2,6.4,5.3,10.5
		c-4.4-0.5-8-0.8-11.6-1.2c-0.1,0.4-0.2,0.8-0.3,1.2c4.7,1.6,9.4,3.3,13.8,4.8c-5.3,5.7-10.2,11.4-15.7,16.7
		c-4.1,4-9.6,3.2-14.7,2.4c-1-0.2-2.1-2.8-2.3-4.3c-0.4-4.5-2.8-6.9-6.6-9.2c-6.9-4.2-13.5-9.1-20-13.9c-1.1-0.8-1.3-2.9-1.5-5
		c11.8,3.6,23,8.6,35.4,3c6.6-3,12.6-7.2,17.4-12.6c2.4-2.7,4.5-5.7,6.3-8.8c7.2-12.9,22.5-19.6,35.5-10.8c4.5,3.1,9,6.5,12.5,10.7
		c10.6,12.4,24.2,18.6,39.7,22.3c14.5,3.5,25.5,13,37,23.3c-20,6.9-38.7,13.4-58.1,20.1c0.3-2.4,0.5-4.8,0.8-7.1
		c0.4-3.3,1.1-6.6,1.1-9.9C528.7,253.9,528.1,250.9,523.9,250.7z M439.2,279.2c4.2-0.4,8.4-0.7,12.6-1.2c8.9-1.1,17.7-2.7,26.5-3.4
		c2.8-0.2,6.2,1.1,8.5,2.9c4.1,3,7.6,6.9,12.3,11.3c-3.4,1.3-6.1,2.6-8.9,3.3c-13.9,3.4-27.3,4.1-40.6-3.2c-4.8-2.6-11-3-16.7-3.7
		c-3.3-0.4-5-1.6-4.7-4.9c0.3-4.1,0.4-8.4,1.4-12.4c0.4-1.7,2.9-4.1,4.5-4.1c10.2-0.3,17-5.8,22.9-13.3c2.7-3.4,5.5-6.8,9.5-6.2
		c2.8,8.8,5.4,17.1,8.3,26.4c-11.4,2.1-23.6,4.3-35.8,6.6L439.2,279.2z M474.4,259.3c-0.3-0.6-0.7-1.2-0.9-1.8
		c-1.5-4.1-3-8.4,0.1-12.3c1.6-2,9.9,0,12.9,3.1c1.1,1.1,1.6,3.2,1.7,4.9c0.2,3.6,0,7.3,0.1,11c0,0.2,0.3,0.5,1,1.5
		c1.1-5.3,2.1-10,3-14.6c7,0.8,9.4,3,9.9,9.2c0.4,5.8,3.7,9.5,8.6,12c3.5,1.8,7.3,3.1,11.7,5c-7.4,4.4-14.5,3.9-21.5,2.3
		C489.2,276.8,480.5,269.7,474.4,259.3z M438.1,353.1c-0.4-0.5-0.7-1.1-1-1.7c-0.1-0.2,0-0.6,0.1-1.5c9.4,5.5,14.4,13.8,17.8,23.2
		c3.6,10.1,2.6,20-2.2,29.5c-3,6.1-7,11.8-9.6,18c-3,7.4-5,15.3-7.5,23c-0.3,0.9-0.5,1.8-0.8,2.7c-0.4,0-0.9-0.1-1.3-0.1
		c0.2-2.9-0.1-6,0.8-8.8c3.3-10.8,6.9-21.5,10.4-32.2C450.8,386.8,450.5,369.2,438.1,353.1z M437.4,409.5c-0.6,0-1.2,0-1.9,0
		c-0.2-9.7,0.2-19.4-0.9-29c-1.1-9.4-3.7-18.6-5.6-27.8C441.6,353.6,447.6,397.7,437.4,409.5z M429.4,388.2
		c1.4,16.8,2.3,33.5-2.8,50c-0.5,1.7-0.2,3.7-0.7,5.4c-0.4,1.3-0.3,2.9-2,3.2c-7.1,1.2-14.4,1.4-21.5,0.6
		c-5.4-0.6-2.5-15.5-2.4-18.8c0.7-24,0.1-47.9,0.1-71.8c0-3.2,1.3-4.6,4.3-4.6c1.3,0,2.6-0.3,4-0.4c12-0.8,14.8,0.9,17.7,12.9
		C427.9,372.3,428.8,380.3,429.4,388.2z M413,335.9c-0.8,5-5,2-7.7,2.7c-1.7,0.4-3.6,0.1-6.1,0.1c0.8-4.3-1-9,5.5-8.6
		C410,330.3,413.6,332.4,413,335.9z M393.4,280c-2.7-2.6-1.9-5.7,2.5-9.3c2.7,2.9,7.4,4.7,4.4,9.4
		C398.5,282.8,395.6,282.2,393.4,280z M398.4,284.1v15C393.3,295.3,393.3,289.2,398.4,284.1z M400,244.7c-4-1.5-4.4-2.9-1.2-7.4
		c0.8,2.1,1.4,3.7,2,5.4c0.2,0,0.4,0,0.6,0V234c5.4,3.6,10,6.7,15,10.1c-2.4,2.1-4.1,3.7-5.7,5C407,247.6,403.5,246.1,400,244.7z
		 M456,188.2c-4.8,0.3-10-0.9-13.7-4.1c4.2-2.9,8.4-5.8,12.6-8.7c14.3-9.9,29.3-6.2,45-2c-1.5-0.4-5.7,1.5-7.3,1.8
		c-2.6,0.5-5.3,0.9-7.9,1.3c-5.4,1-10.7,2.3-15.4,5.3c-2.2,1.4-3.7,3.4-5.9,4.6C461.2,187.6,458.5,188,456,188.2z M504.4,181.4
		c2.2-0.4,4.5-0.7,7-1c0.7,7.2,1.3,13.9,1.9,20.6l-0.9,0.8c-3.6-5-7.4-9.8-10.7-15C500,184.3,501.2,182,504.4,181.4z M516.2,181.7
		c13.9,10.1,20.1,25.2,32.3,36.7c-11.3,1.5-19.2-2.5-25.8-9.3C515.6,201.9,514.9,192.6,516.2,181.7z M533.9,132.9
		c-3.6-3.5-8.4-7.6-12.5-12.3c-1.2-1.4-2.9-4.7,1.1-6.7c8.8-4.3,17.2-9.2,26.1-13.4c2.4-1.1,6-1.1,8.5-0.2c4.4,1.5,8.5,4.1,13.4,6.6
		c-8.1,3.3-15.7,5-21.6,9.2C543.1,120.3,539.1,127,533.9,132.9z M579,70.5c0.1-1.2,2.2-2.7,3.5-3c6.7-1.3,12.3,3,15.9,12.4
		c-3.9,0-7.2-0.1-10.5,0C582.2,80.1,578.3,76.3,579,70.5z M518.3,51.9c0,0-0.1-0.1-0.1-0.2C518.2,51.8,518.2,51.9,518.3,51.9z
		 M517.8,51.4c0-0.1-0.1-0.1-0.1-0.2C517.7,51.3,517.8,51.3,517.8,51.4z M488.3,107.3c9-3.2,16.3-8.5,20.3-17.3
		c0.9-2-0.1-4.8-0.3-7.2c-0.1-1.3-1-3.6-0.6-3.8c1.5-0.8,3.7-1.7,4.9-1.1c2.7,1.4,5,3.6,8.1,6c-2.1,0.8-3.3,1.3-4.9,1.9
		c0.9,0.4,1.2,0.6,1.7,0.7c10.5,0.8,20.4-1.8,28.6-8.1c2.4-1.8,2.4-7.1,3-10.9c0.2-1.7-0.9-3.6-1.6-6c-4.4,1.6-9.1,3.2-14.1,5
		c0-0.2-0.2-0.9-0.2-1.6c0.1-3.4-1.6-5.5-4.9-5.6c-3.5-0.2-5.9,2.2-6,5.4c-0.1,4.8,0.7,9.5,1.2,14.3c0.1,1.4,0.3,2.8-0.6,4.7
		c-2.9-2.6-5.5-6.4-8.9-7.5c-3.5-1.1-7.9,0.3-12.7,0.7c2.3-5.8,3.5-11.2,6.4-15.4c1.9-2.8,6-5,9.4-5.5c10.9-1.6,21.9-1.3,32.5,2.5
		c4,1.4,8.4,2,12.7,2.2c5.5,0.3,9.1,2.9,11.1,7.8c2,4.9,3.6,9.9,5.5,15.1c-4.6,0.4-7.7-0.7-9.4-5.1c-2.1-5.6-6.4-9.1-13.1-11.2
		c3.4,4.6,6.4,8.6,9.7,13.1c-5.6,1.3-10.4,2.4-15.1,3.6c0,0.5,0.1,1,0.1,1.5c3.3,0.4,6.7,0.8,11,1.4c-1.6,1.1-2.4,1.6-3.2,2.1
		c-5.6,3.7-11.3,7.3-16.9,11c-1.7,1.1-3.3,2.1-5.1,3.1c-2.6,1.5-4.2,0.9-5.3-2c-1.6-4-3.5-7.8-5.3-11.6c-0.5,0.2-1,0.3-1.5,0.5
		c1.3,3.7,2.6,7.4,4.2,11.7c-3-0.8-5.6-1.5-8.1-2.1l-0.3,0.7c2.6,1.6,5.2,3.2,9.2,5.7c-8.1,2.3-15.1,4.2-22.1,6.2l0.1,0.7
		c3.3,0.2,6.7,0.4,10,0.6c-7.7,4.4-29.9,3.5-36.5-2.3C483.9,109.5,486,108.1,488.3,107.3z M402,126.6c12.5,0,24.7-0.1,37,0.2
		c1.7,0,3.6,2.2,5,3.7c3.7,4.1,7.2,8.4,10.8,12.6c0.4-0.3,0.9-0.6,1.3-1c-1.1-2.2-2.3-4.5-3.5-6.9c0.2,0.3,4,1.2,4.7,1.5
		c1.8,0.7,3.5,1.6,5.4,2.1c3.7,1.2,7.4,1.7,11.3,2.2c-7.8-4-16.5-8.4-25.2-12.8c0.1-0.6,0.2-1.2,0.3-1.8c10-1.4,21.3,0.6,28.1-10.6
		c-3.3,2-7,5.1-10.6,6.4c-2.9,1-6.9,1.7-10,2.3c-3.3,0.6-6.8,0.2-10.1-0.8c1.3,0.4,8.6-6.6,9.9-7.6c2.8-2.2,5.4-5.6,9.3-5.1
		c3.9,0.4,9.1,2,12.7,3.7c8.3,3.9,16.9,5.9,26,6c12.1,0.2,20.7,6.8,26.3,16.6c8.8,15.4,14.9,31.9,15.5,49.9c0,1.6,0,3.3,0,6.3
		c-2.5-1.6-4.3-2.4-5.5-3.6c-3.5-3.4-7-6.7-10-10.5c-2-2.5-3.8-5.5-4.6-8.6c-2.3-8.9-6.5-16.9-12.9-23.3c-3.1-3.1-7.5-5.1-11.7-6.7
		c-4.4-1.6-7.4-3.6-6.9-8.8c0.1-1.5,0-3,0-4.4c-4.7-1.9-8.9-3.5-13.2-5.2c1.7,4.5,6.3,5.2,9.9,6.5c-0.4,5.2-1.1,10.1-0.9,14.9
		c0.1,2.4,1.9,4.7,2.9,7c3-1.6,6.2-3.1,9.1-5.1c0.8-0.5,0.7-2.4,1-3.7c8,4.4,16.1,19.7,15.7,30.4c-9.8-5.3-20.3-9.6-31.4-10.9
		c-9.6-1.1-21.9-1.1-29.7,5.2c-2.4,1.9-5.2,3.1-8.1,3.8c-0.6,0.2-1.1,0.7-1.7,1c-17.7,10.9-16.3,9.7-38,2.3
		c11.2,1.4,14.3-6.7,17.8-14.4c1.7-3.8,3.5-7.6,4.9-11.5c1.2-3.4,2.8-4.1,6.4-2.9c4.9,1.7,10.1,2.5,15.2,3.6
		c-0.1-0.2-0.2-0.3-0.3-0.5c-5.2-2.2-10.4-6.1-15.6-6.1c-12.8,0-23.1-10.8-36.6-6.9V126.6z M418.2,182.7c0,0.8,0,1.5,0,2.3
		c-5.1,0.7-10.2,1.4-16.1,2.3v-8.2C407.7,180.4,412.9,181.5,418.2,182.7z M409,155.8c-2.5,2-4.9,3.8-7,5.6
		C401,154.4,402.1,153.3,409,155.8z M403.5,191.8c8.3-1.5,16.7-2.9,25.1-4.3c5-0.8,9.1,0.6,13.5,3.4c4.1,2.6,9.4,3.4,15,5.2
		c-8.1,11.9-15.2,25.2-31.6,26.9c-7.1,0.7-14.5-0.9-21.7-1.8c-1.1-0.1-2.7-2.3-2.7-3.4c0-1.9,1.2-3.8,1.4-4.4
		c-0.4-7.2-0.8-13.4-1-19.5C401.4,193.2,402.7,191.9,403.5,191.8z M378,189.5c1.2-2.8,1.5-4.8,2.4-5.2c5.7-2,11.4-3.9,17.3-5.2
		c0.6-0.1,2.1,4.2,3.8,7.5C393.1,187.6,386.2,188.5,378,189.5z M352.7,133.4c6.8-10.6,20.1-20,32.6-22.4c4.1-0.8,7.5-0.3,9.8,3.7
		c1.3,2.3,2.7,4.5,4.5,7.3c-5.5,0.9-10.7,1.4-16.1,1.8c-4.8,0.3-8.2,4.9-11.7,7.5c-4.9,3.6-7.8,9.8-11.9,14.6
		c-1.3,1.5-4.5,3.6-5.2,3.1c-2-1.5-4.3-4-4.5-6.2C350,139.7,351,136.1,352.7,133.4z M349.2,177.1c0.7-4,0.4-8.2,0.9-12.3
		c0.2-1.8,1.2-4.8,2.4-5.1c6.2-1.7,11.8-5,16.3-9.6c2.3-2.4,4.1-5.1,5.9-7.9c3.4-5,6.3-10.4,12.3-12.5c3.9-1.3,7.9-2.4,12.5-3.8
		c0.4,5.2,1.6,9-2.4,12.7c-3.6,3.3-2.2,7.9,0.5,11.8c4.4,6.2,2.9,13.3,3,20.1c0,0.5-1,1.4-1.7,1.6c-7.3,1.8-15.3,2.6-21.7,6.8
		c-5.2,3.5-10.3,8.3-17.1,7.8c-4.7-0.4-9.5-0.1-14.4-0.1C346.9,183.9,348.6,180.6,349.2,177.1z M332,172.7c0.9-3.7,4.8-5.2,8.9-3.9
		c4.2,1.3,3.4,4.3,2.3,7.2c-1.9,5-3.9,10-5.8,15.1c-0.6-0.1-1.2-0.2-1.9-0.3C331.2,185.4,330.4,179.2,332,172.7z M315.2,210.4
		c0.4,0,1.1,1.8,0.9,2.6c-0.8,5.3,0.8,11.6-6.2,14.2c-1,0.4-1.9,1.4-2.4,2.4c-2.3,4.4-6.9,7-11.7,7.7c-5.1,0.8-11,1.9-16.1,0.7
		c-1.4-0.3-2.8-3.1-3.1-5c-0.8-4.6,1.3-9.1,4.5-12.3c2-2,4.2-3.2,6.6-4.6c2.4-1.4,4.4-4.1,7-5.1c2-0.8,4.6-0.7,6.7-0.9
		C305.9,209.7,310.6,210.2,315.2,210.4z M294.9,151.1c3-3.7,6.5-6.9,10.5-11.2c1.5,2.8,3.3,4.7,3.4,6.7c0.4,10.1,1.3,20.2-2.8,30
		c-3.1,7.4-4.6,8.4-13.2,6.5c0.6-1.2,1.1-2.4,1.8-3.5c2.9-4.9,2.9-9.7-0.3-14.5C290.6,159.3,290.7,156.2,294.9,151.1z M248.6,237.4
		c-3.7-6.3-2.9-11.4-0.9-16.8c0.8-2,4.6-4.5,0.1-6.8c-0.1,0,0.3-1.6,0.8-2.1c2.7-2.9,5.1-6.4,8.4-8.3c8-4.7,16.4-8.8,24.8-12.8
		c3.1-1.5,4.4-1.2,7.5-0.5c1.4,0.3,2.8,0.1,4.2,0.6c0.3,0.1,2.5,1.5,2.4,1.6c-10.8,2.6-20.7,8.8-28.3,17c-3.8,4.2-7.2,8.7-10.2,13.5
		c-1.5,2.4-3,4.8-4.4,7.2C252.4,230.8,248.2,236.8,248.6,237.4z M292.5,714.6c1.4-4.2,7.1-7.3,16.2-7.7c17-0.8,34.2-1.9,48.2,11
		C335.8,711.3,314.5,709,292.5,714.6z M374,677.5c-3.4,2.1-6.9,4-10.4,5.9c-5.5,3.1-8.3,7.6-7,14c0.1,0.5,0.1,1,0,1.5
		c0,0.3-0.3,0.5-0.4,0.8c0,0,0,0,0,0c0,0,0,0,0,0c-6.4-4.5-6.9-10.6-1.8-14.8c0.7-0.6,1.6-1.2,2.5-1.7c6.3-3.3,12.5-6.8,18.7-10.2
		l1.3,1.3C375.9,675.4,375.2,676.8,374,677.5z M549.7,691.4c0,0-11.5,0-11.5,0c0.3,0,1.1-4,1.3-4.5c0.9-2.1,2.7-4,4.8-5
		C550.7,679,549.7,687.6,549.7,691.4z M648.5,681.5c-4,5.1-9.8,7.1-16.3,7.2c-4.1,0.1-8.8-1.3-11.7,3.5c-0.4,0.6-2.2,0.3-3.4,0.3
		c-6.2,0-12.3,0-18.5,0v-0.1c-6.3,0-12.7,0.5-19-0.2c-3.3-0.4-7-2.3-9.2-4.7c-4.8-5.3-3.1-8.7,3.9-10.1c10.6-2.1,21.2-4.5,31.7-7
		c3-0.7,6-2.1,8.7-3.7c7.5-4.5,8.1-7.7,5.9-16c-4.7-18-8.8-36.2-13.2-54.3c-6-24.7-12.4-49.4-17.8-74.2c-2-9.2-1.8-18.8-2.3-28.3
		c-0.1-1.1,1.8-3.2,2.9-3.3c9.6-1,19.2-1.6,28.9-2.3c3.8-0.3,5.6,1.3,5.1,5.3c-0.3,2.3-0.1,4.7-0.5,7c-1.5,9.5,0.6,18.2,3.8,27.2
		c2.3,6.3,2.4,13.4,3.7,20.1c2.7,14.4,4.9,28.9,8.3,43.1c2.6,10.9,8,21.2,10,32.2c2.3,12.6,5.9,25.3,4.3,38.5c-0.1,1-0.2,2.1,0.1,3
		C656.9,671.8,652.3,676.7,648.5,681.5z M791.9,677.3c-4.1,0.3-8.2,0.5-12.3,1c-11.2,1.1-20.9,5.8-28.5,13.9
		c-9.9,10.5-21.7,14.5-36,12.7c-4.5-0.6-9.3,0.9-14,1.4c1.1-4,4.3-6.1,9-5.4c16.8,2.6,30.7-2.7,42.4-14.9
		c9.1-9.5,20.3-13.7,33.5-11.4c1,0.2,2,0.3,2.9,0.6c1.1,0.4,2.1,0.9,3.2,1.3C791.9,676.7,791.9,677,791.9,677.3z M776.7,645.6
		c0.6-0.6,1.2-1.2,1.9-1.9C777.9,644.3,777.3,645,776.7,645.6z M843.3,511.6c-2.8,16-5.8,32-8.9,49.2c-4.5-5.2-7.4-10.4-8.3-16.2
		c-1.2-8.4-1.6-16.9-2.1-25.3c-0.8-12.4-0.7-25-2.4-37.3c-1.3-9.3-7.1-16.5-15-22.1c-3.2-2.3-6-5.6-8-9.1c-0.3-0.5-0.6-1.1-0.9-1.6
		c-4.6-8.1-8.8-16.4-17-21.7c0,0,0,0.1,0,0.1l0-0.1c-6.8-3.9-11.8-3.3-15.9,2c-0.3,0.4-0.5,0.7-0.8,1.1c-5.1,7.6-3.6,12.9,6.2,20.8
		c-2.2,1.1-4.3,2.1-6.3,3.2c-4.9,2.5-6.2,5.2-3.8,10.1c2.9,5.9,5.9,11.9,9.8,17.2c4.6,6.2,10,12,15.4,17.5c9.9,10,16.2,22.2,23,35.6
		c-5.2,1-9.8,1.9-14.4,2.7c-1.2,0.2-2.4,0.2-3.6,0.3c-0.1,0.4-0.2,0.9-0.3,1.3c4.2,0.2,8.3,0.5,12.3,1.4c3.2,0.8,6.8,2.5,8.8,5
		c5.8,7.5,10.8,15.5,16.2,23.3c2.8,4,1.6,8.1,1,12.5c-1.4,8.7-5,15.7-11.3,22.1c-10.7,10.9-20.6,22.6-30.9,34
		c-0.3,0.3-0.6,0.6-0.9,0.8c-1,0.7-2.2,1.3-3.2,2c0.1,0,0.1-0.1,0.2-0.1c-0.1,0-0.2,0.1-0.2,0.1c0,0,0,0,0,0c0,0,0,0,0,0
		c0,0,0,0,0,0c0,0,0,0.1,0,0.1c0,0,0,0.1,0,0.1c0,0-0.1-0.1-0.1-0.1c-0.3,0.3-0.5,0.5-0.8,0.8l0.1,0c-0.2,0.2-0.5,0.5-0.7,0.7
		c0,0,0,0,0,0c0,0,0,0,0,0c-0.4,0.3-0.7,0.6-1,0.9c-2.2,2.1-4.3,4.5-6.5,6.5c-1,0.9-2.1,1.8-3.2,2.7c-3.9,3.1-8.5,5.3-12.7,7.9
		c-11.7,7-23.5,13.8-34.9,21.2c-8.8,5.7-18.4,9.2-28.5,11.4c-1.8,0.4-3.6,0.2-5.5,0.3c-2.9,0.1-4.4-1.3-4.2-4.2
		c0.7-10.7,1.6-21.4,1.9-32.1c0.3-10.8,0-21.5-0.2-32.3c-0.1-3.5-0.3-7-0.8-10.4c-0.7-4.9-1.3-9.9-2.9-14.5
		c-1.8-5.4-2.3-10.3-1.3-16c1.2-6.8,0.7-13.9,0.3-20.9c-0.7-10.9,1.4-21.1,5.8-31.1c2.7-6.2,3.8-12.6,2.5-19.5
		c-1.2-6.5,0.1-12.1,5-17.3c6.7-7.1,12.5-15.1,18.6-22.8c6-7.5,7.8-16,4.5-24.9c-6.4-17.1-13.4-34.1-20.2-51
		c-2.3-5.7-6.6-9.4-12.4-11.6c-4-1.5-8.1-3.2-11.9-5.2c-8.1-4.3-11.3-12.1-9.7-20.9c1-5.7,2-11.5,1.9-17.3
		c-0.2-10.7-7.1-18.2-17.8-18.4c-8.5-0.1-17.2,1.3-25.6,2.7c-4.8,0.8-5.7,5.3-5.1,10.2c0.9,7,0.8,14.2,0.3,21.2
		c-0.2,2.9-0.6,4.4,2.3,6.4c2.2,1.5,3.2,5.2,4,8.1c1.9,6.9,2.2,7.2,9.3,5.7c0.8-0.2,1.7-0.7,2.4-0.6c1.7,0.4,4.2,0.5,4.9,1.7
		c0.7,1.2,0.3,3.9-0.6,5.2c-2.7,3.6-6.6,6-5.4,11.8c0.5,2.5-1.8,6-3.4,8.7c-7.5,12.9-7.4,26.4-4.7,40.6c1.3,6.8,1.2,13.9,1.7,20.9
		c0.2,2.9-0.8,4.2-3.9,4.2c-11.5-0.1-22.4-3-32.7-7.8c-1.3-0.6-2.4-3.5-2.1-5c0.7-3.7,2.5-7.2,3.6-10.9c1.6-5.6,0-9.9-4.8-13.5
		c-4.4-3.3-8.5-6.9-12.4-10.7c-5.3-5.1-6.6-11.3-4.4-18.3c0.7-2.2,1.5-4.4,2.1-6.7c1.1-4.4,3.6-6.5,8.4-6.9c7.6-0.5,8-1.5,8.3-9.4
		c0.1-2.3,1.4-4.5,1.9-5.9c-2.2-4.2-4.5-8-6.2-12c-0.6-1.4-0.3-3.6,0.2-5.2c1.6-5.1,0.6-8.6-3.8-11.7c-5.5-3.8-11.5-3.8-17.7-2.7
		c-1.9,0.3-4,0.7-5.9,0.3c-7.7-1.5-13.3,1.4-17.6,7.5c-5.5,7.8-8.1,16.5-7.1,25.9c1.2,10.8,0,20.7-6.8,29.7
		c-4.3,5.7-4.1,12.7-1.5,19.1c3.2,7.8,3.2,14.5-3.2,21c-2.3,2.3-2.5,6.6-3.7,9.9c0.6,0.3,1.2,0.5,1.9,0.8c0.8-1.2,1.7-2.4,2.9-4.2
		c1.7,4.9,5.3,9.2,2.8,14.1c-1.1,2.2-4.7,3-7.7,4.8c0.5,3.6,3.2,5.9,8,4.7c3.1-0.8,6.8-2.1,8.6-4.4c5.1-6.5,11-13,7.3-22.8
		c-1.5-4.1-0.7-8.5,3.8-12.3c1.2,2.3,2.4,4.2,3.2,6.2c2.5,6.9,4.6,13.9,7.2,20.7c1.1,2.9,2.4,5.9,4.3,8.4c4.4,5.7,4.1,11.4,0.7,17.2
		c-2.3,3.9-4.9,7.5-7.7,11.1c-6.2,8-8.2,17.1-8.3,27.1c-0.1,6-1.1,12.4-3.5,17.8c-14,31.3-29.7,61.9-50.8,89.1
		c-9,11.6-20,21.8-30.7,31.9c-7.4,7-14.5,6.8-23.2,1.1c-8.1-5.4-14.1-12.7-18.6-21.2c-3.6-6.8-6.8-13.7-9.8-20.7
		c-8.3-19.3-21.1-38.2-38.2-50.6c-13.3-9.7-27.1-18.8-39.9-29.1c-8.2-6.6-15.5-14.5-22.3-22.6c-5-6-7.9-12.5-7.9-19.5
		c0-0.9,0.1-1.7,0.1-2.6c0.1-1.3,0.4-2.7,0.7-4c0.2-0.9,0.5-1.8,0.9-2.7c0.2-0.5,0.4-0.9,0.5-1.4c0.3-0.7,0.7-1.5,1-2.2c0,0,0,0,0,0
		c-2.4,3.3-4.8,6.6-8,11c0.1-0.2-1.4-5.1-1.7-5.8c-0.9-2.5-3.1-4.8-4.4-7.2c-1.4-2.4-2.1-5.4-3-8.1c-1.9-5.9-3.9-11.9-4.9-18.1
		c-3.8-22.3-6.9-44.7-10-67.1c-1.2-8.6-2.2-17.3-1.9-25.9c0.4-11.4,6.9-22.8,15.5-30c4.4-3.7,9.4-6.2,15.1-7.1
		c7.4-1.2,14.7-4.1,21.7-6.8c3.4-1.3,6.2-4.1,9.2-6.1l-0.8-1.7c-8.4,2.3-16.8,4.5-25.2,6.8c-0.3-0.6-0.6-1.2-0.9-1.7
		c2.9-5.2,6.8-9.7,12.4-12c6.9-2.9,14.2-4.8,21.2-7.4c5.1-1.9,10.2-4,15-6.5c2-1,3.4-3.3,4.7-5.4c-8.6,5.8-17.8,9.2-28.4,9.6l11-8.1
		c-0.2-0.4-0.4-0.7-0.6-1.1c-8.3,4.5-17.2,8.2-24.8,13.7c-6.3,4.6-11.6,10.3-17.6,15.3c-4.9,4.1-10.5,7.8-15.2,12.1
		c-0.7-0.4-1.4-0.8-2.1-1.3c0.9-2.8,1.7-5.5,2.6-8.3c-1.6,0.3-2.7-2-1.1-2.8c0.8-0.4,1.6-0.8,2.4-1.2c0.7-0.4,1.4-4.6,1.7-5.4
		c0.7-2.2,1.3-4.4,2-6.5c1.9-5.1,6.4-9.5,9.5-13.8c1.4-2,3-3.8,4.5-5.8c-0.3-0.3-0.7-0.7-1-1c-5.5,4.9-9.5,11.2-15.1,15.9
		c-2.4-5.8-4.4-11.7-1.8-17.7c2.9-6.6,8.9-11.4,9.3-19.1c0-0.2,0-0.3-0.1-0.5c-0.2-0.3-0.7-0.1-1,0.1c-4.7,3.4-6.7,8.9-11.4,12.6
		c0.8-6.2,1.4-11.9,2.1-17.7c-0.1,0-0.2,0-0.3,0.1c-4.8,5-7,10.7-6,17.3c1.2,7.7,3,15.3,3.9,23.1c0.6,4.7,0.6,9.7-0.4,14.2
		c-1.7,7.9-4.2,15.7-6.8,23.4c-0.7,2.1-2.9,3.6-4.5,5.4c-1.9-1.6-4.5-2.9-5.6-5c-5.2-10.4-6.3-21.7-6-33.1
		c0.4-15.4,2.7-30.5,10.5-44.3c4.6-8.1,10.7-14.5,20.2-16.6c5.9-1.3,12.7-1.6,18.3-3.8c5.9-2.4,10.7-6.7,14.3-11.9
		c1.2-1.8,4.8-2.1,7.7-2c0.9-1.5,1.8-3,2.7-4.6c-1.7,0.2-3.5,0.5-5.2,0.4c-0.2,0-0.8-2.7-0.4-3c1.4-1.1,3.3-2.3,4.9-2.1
		c1.2,0.1,3.3-1.3,4.5-0.6c0.2,0.1,0.4,0.3,0.6,0.6c0.2,0.3,0.3,0.7,0.4,1.1c0,0.2,0.1,0.5,0.1,0.8c2.9-0.1,5.9-0.7,8.6-0.1
		c5.8,1.4,11.4,3.6,17.2,5.4c-1.3,3.4-2.5,6.5-3.7,9.7c0.5,0.3,0.9,0.5,1.4,0.8c1.3-1.3,2.7-2.5,4.5-4.3c-0.5,6.5,2.4,10.4,8,11.6
		c4.2,1,6.7-3.1,7.7-6.6c1.5-5.3,0-6.4-4.4-8.7c-2.4-1.3-4.2-3.2-6.9-4.1c-4.7-1.6-9.8-1.7-14.6-3.1c-3.3-1-6.5-2.1-10.6-3.3
		c5.4-4.8,10.7-7.8,16.9-8.3c1.7-0.2,3.8,1.4,5.4,2.6c2.8,2.3,5.1,5.4,8.2,7.2c3.7,2.1,6.8,2.6,11.1,1.6c4.8-1.2,5.2-6.4,1.3-9.7
		c-1.2-1-2.5-2-3.3-4.2c2.8,0.8,5.6,1.5,9.2,2.5c-1.9-3.9-3.5-7.2-5.1-10.5c-0.2,0-0.4,0.1-0.5,0.1c0.3,2,0.6,4,1,6.2
		c-1.7-0.5-3.3-1-4.6-2.2c-1.1-1.1-1.3-2.3-3.1-2.9c-3.2-1-6.5,1.7-9,3.3c-4,2.5-8.1,4.6-12.9,4.4c-4.1-0.2-8.4,2.8-12.5,4.3
		c-4.3,1.6-8.6,3.2-11.9,4.5c-4.6-0.9-8.6-0.1-9-5.4c-0.3-4.9,2.3-6.6,6.6-7.7c4.7-1.2,9.4-3,13.9-5c5.7-2.6,10.9-5.3,17.6-2.9
		c2,0.7,5-1,7.4-1.9c4.2-1.4,8.5-1.3,12.8-0.7c5.1,0.6,10.5-0.1,15.6,0.3c1,0.1,2.6,2.7,2.7,4.2c0.4,4.7,1,9.6-0.1,14.1
		c-0.8,3.3-0.1,6.1-0.5,9.1c-0.1,0.9-2,1.9-3.2,2.4c-4.6,2.2-4.9,3.6-1,7.1c0.6,0.6,1.2,1.1,1.9,1.6c2.8,1.7,2.9,3.3,0.8,6
		c-1.5,1.9-1.8,4.9-2.6,7.4c0.4,0.3,0.7,0.6,1.1,0.9c-0.6,0.3-1.1,0.7-1.7,1c-8,3.7-9.7,8-4.8,15.4c2.6,4,4.2,7.2,1.5,11.9
		c-0.9,1.5-0.4,5,0.8,6.4c2.4,2.7,3,4.7,1.7,8.2c-1.7,4.8-0.4,9,2.7,13.1c-6,1.9-6.1,6-4,10.9c0.4,0.8-0.3,2.9-1,3.3
		c-2.6,1.2-5.2,2.3-7.8,3.3c-2.3,0.9-4.9,1.1-7.2,2c-0.4,0.2-2.5,2.1-2.2,2.1c-0.8,0-1.5,0.1-2.3,0.1c1.8,2.4,3.7,4.8,6,7.8
		c-3.9,10.9-15.2,5.5-23.6,8.6c1.8,6.2-2.6,9.5-6.6,13.5c-16.6,16.7-19.2,36.2-8.1,57c3.4,6.3,7.4,12.3,10.4,18.7
		c1.9,4.1,2.8,8.8,3.8,13.3c0.7,3.1-0.4,5.1-3.9,5.7c-2.5,0.4-4.7,1.8-3.7,4.6c0.5,1.5,2.7,3.2,4.3,3.4c29.3,4.3,59.2,1.8,88.7,0.7
		c2-0.1,4.1-0.2,5.9-1c1.4-0.6,3.6-2.3,3.5-3.2c-0.2-1.6-1.8-4.1-3.1-4.2c-5.3-0.7-5.3-4-3.9-7.5c3.2-8.2,6.2-16.5,10.1-24.4
		c4.8-10,9.2-19.9,9.3-31.3c0.1-14.1-5.8-25.3-15.7-34.9c-2.3-2.3-3.3-5.8-5.3-8.5c-1.1-1.5-2.7-3.1-4.4-3.6
		c-4.9-1.6-9.9-2.6-14.9-4.1c-3.6-1.1-4.3-3-1.5-6.1c5-5.4,4.5-6.7-2.5-8.8c-1.4-0.4-2.9-0.8-4.3-1.1c-7.7-1.9-7.6-1.9-6.8-9.9
		c0.1-1.2-0.2-3.3-0.9-3.5c-5.1-2-3.9-6.2-3.9-10c0-3.3-0.4-6.7,0.2-10c0.3-1.4,2.8-3.7,3.9-3.5c7.1,1.4,14.2,3.3,21.2,5
		c0.4,0.1,0.7,0.6,0.8,2.2c-6.1-0.8-12.1-1.6-18.9-2.5c1.3,1.5,2.2,3.1,3.6,4.2c5.6,4.7,12.3,6.2,19.4,6.9c9.4,1,18.8,2.5,28.2,3.9
		c1.2,0.2,2.3,1.2,3.5,1.9c1-0.4,2.4-1.4,3.8-1.3c23.5,1.5,45-6.4,66.3-14.6c16.3-6.2,32.4-12.9,48.7-19.2c18-7,37-8,56-8.3
		c2.2,0,4.4,0.7,8.2,1.3c-7.9,6.2-13.4,12.5-14.5,23c1.8-2.3,2.9-3.6,3.8-4.9c8.4-12.3,20.2-19.1,35-18.6
		c15.6,0.5,31.3,1.3,46.7,3.6c20.8,3.1,36.5,16.2,52.2,29.1c4.9,4,9.5,8.4,13.9,12.9c1.3,1.3,2.1,3.9,1.8,5.6c-0.2,0.9-3.3,2-5,1.9
		c-14.9-0.6-24.6-8.8-31-21.6c-2.2-4.4-3.8-9.1-6.3-15c-2.2,7.1-1.2,12.7,0.3,18.2c3,10.9,10.2,18.7,19.8,24
		c7.1,3.9,14.8,6.8,22.3,9.7c10,3.9,17.8,10,23.4,19.3c6.4,10.7,8.8,22.6,10.7,34.6c1.5,9.3,2.3,18.8,4.4,28.1
		c1.6,7.2,4.7,14,7.4,21.7c-15.6-7-30.9-13.4-45.7-20.7c-12.4-6.1-19.7-16.7-23.1-30.2c-2-8.1-4.6-16-6.8-24
		c-3.7-13.6-9.3-26.3-18.1-37.6c-6.1-7.9-6.6-17.1-6.6-26.6c0-5.2-0.8-10.4-1.2-15.6c-0.7,0-1.4,0-2.1,0c0,2.5,0.2,5,0,7.4
		c-1.8,17.7,3.3,33.3,13.6,47.8c9.3,13.1,11.5,28.9,14.4,44.2c1,5.5,2.4,11,3.7,16.9c-15.6,5.8-28.5,0.4-40-10.6
		c-0.4,0.4-0.8,0.8-1.2,1.2c3.7,4.8,7.4,9.6,11.3,14.7c-3.9,5.1-10.6,3.9-15.8,6.1l0.4,1.7c6.1-1.1,12.1-2.2,18.1-3.5
		c3.6-0.8,7-2.4,10.6-2.9c9.9-1.5,19.3-1.4,26.1,7.8c2,2.8,4.9,5.2,7.8,6.9c5.2,3.1,6,7.4,4.7,12.7c0.6-2.2,1.1-4.4,1.8-7
		c1,0.3,2,0.4,2.8,0.8c9.5,5.2,18.8,10.7,28.3,15.7c15.1,8,22.5,21.7,27.4,37.1C845,486.4,845.5,499,843.3,511.6z M790,496.7
		c-2.4-2.8-4.8-5.7-7.2-8.5c-0.2-0.2-0.9,0.2-1.3,0c-0.9-0.4-1.8-0.9-2.5-1.6c-11.5-12.3-9.8-14.7,3.4-19.7c5.3-2,10.8-3.2,16.3-4.7
		c4.8-1.4,8.4,0.5,11.4,4.1c4.7,5.7,7.8,12.3,7.8,19.6c0,14-0.8,27.9-1.3,41.9c0,0.8-0.4,1.5-1,3.3c-2-2.4-4.1-3.9-5-6
		c-3.7-7.9-7.4-15.9-10.5-24.1c-3.1-8.1-5.5-16.5-13.1-21.8c-1.4-1-2.9-1.8-4.9-2.3C784.8,483.5,792.2,487.7,790,496.7z
		 M687.3,463.8c0.7-4.6,1.2-8.3,1.8-12.3C694.4,454.2,693.8,458.2,687.3,463.8z M393.5,427.2c0.3,6.5,0.5,13,0.8,19.5l-11.6,0.5
		c-0.5,0-1.1,0-1.6-0.3c-0.5-0.3-0.6-0.9-0.8-1.5c-4.2-16.3-7.3-33-9.4-49.7c-0.5-3.8-0.8-7.6-1-11.4c-0.2-6.2,0.1-12.3,1.5-18.3
		c1.2-5,2.5-13.7,8.6-14.7c1.6-0.3,3.3-0.1,5,0.1c2.4,0.3,4.8,0.6,7.2,0.9c0.3,0,0.5,0.1,0.7,0.2c0.2,0.1,0.4,0.4,0.5,0.7
		c1.6,3.2,0.1,8,0.1,11.5c-0.1,15.6-0.3,31.2-0.5,46.9C393,416.7,393.2,421.9,393.5,427.2z M381,336.5c2.2-1.8,4.2-3.9,6.6-5.2
		c1.1-0.6,3.8-0.3,4.3,0.5c0.8,1.3,0.9,3.5,0.4,5.1c-0.3,0.9-2.2,1.6-3.4,1.8c-2.2,0.3-4.5,0.1-6.8,0.1
		C381.8,338,381.4,337.2,381,336.5z M357.7,359.7c2-4.2,4.6-8.1,10.8-8.8c-9.5,32.3-0.6,64.1,1.3,96.2c-3.8,1-4.5-0.5-5.1-3.7
		c-1.3-7.8-3-15.5-5.1-23.2c-1.6-5.9-4.5-11.5-6.2-17.4C349,387.9,351.1,373.5,357.7,359.7z M351.1,415.2
		c-20.2-20-15.5-56.4,9.5-66.1C341.9,369.7,342.2,391.9,351.1,415.2z M858.1,342.8c-0.8,4.3-3,8.4-5.3,12.2
		c-2.3,3.8-5.6,3.8-8.6,0.4c-1.2-1.4-2.2-3-2.6-4.7c-2.7-10-5.2-19.9-7.7-29.9c-1.3-5.3,0.1-9.8,4-13.6c2.2-2.2,4-4.7,5.7-7.4
		c-9.3,4.6-14.6,11.8-14.9,22.4c-0.5,0-1,0-1-0.1c-11-26-30.9-43.1-55.3-56c-8.4-4.4-16.2-9.8-24.4-14.4c-4.4-2.5-6.5-5.7-5.9-10.9
		c0.8-7.5-1.5-14.2-7-19.5c-1.2-1.2-2.8-2.2-4.2-3.2l-0.7,0.9c1.4,2.1,2.8,4.1,4.1,6.2c1,1.5,2.2,3.1,2.6,4.8
		c1.1,4.4,2.2,9.3-1.8,12.6c-4.2,3.4-7.9-0.3-11.2-2.4c-11.6-7.7-11.9-22.2-0.4-30c17.3-11.7,36.3-16.9,57.4-16.9
		c10.2,0,14.5,5.3,18.5,12.4c3.9,7,7,14.4,11.3,21.1c3.8,6,8.7,11.2,13.1,16.8c-4.3,2.3-9.3,1-13.7-3.9
		c-5.6-6.1-11.1-12.3-16.6-18.5l-1.2,0.6c2,4.2,4.1,8.4,6.7,13.8c-10.2-3.6-19.6-7-29.4-10.4c0.9,3.9,1.3,7.6-4.2,8.8
		c-0.1-4-2-6.7-6.4-6c-4.5,0.7-5.2,4.2-4.8,8c0.5,5.1,1.3,10.2,1.9,15.2c11.1,2.3,19.5-1.5,25.5-12.3c1.9-3.4,3.8-3.9,6.6-2.7
		c6.7,2.9,13.3,5.9,19.8,9.3c1.3,0.7,2.3,3.5,2.2,5.3c-0.1,3.8-0.9,7.5-1.4,11.7c-3.1-2.2-5.8-4.7-8.9-6.3c-1.6-0.8-4.8-1-5.8,0
		c-2.6,2.7-5.7,6-6.2,9.4c-0.5,3.3,3,6,7,5.1c3-0.7,5.7-2.6,8.7-3.6c2.4-0.8,5-1.1,7.5-1.7c0.4,0.5,0.8,0.9,1.1,1.4c0-2,0-4.1,0-6.1
		c0.1-7.6,3.7-10.1,10.6-6.7c4.7,2.3,9.7,5.1,13,9C855.1,285.9,864,312.4,858.1,342.8z M865.6,255.3c-1.7,5-4.7,6.1-8.8,3.1
		c-6.8-5.2-13.2-10.9-19.6-16.7c-2.7-2.5-2.9-5.7-1.5-9.2c1.5-3.5,3.9-5.1,7.7-5.2c1.5-0.1,3.2-0.7,4.3-1.7
		c2.9-2.6,13.7-5.4,17.1-2.8c2.5,2,3.2,6.3,4.5,9.7c0.5,1.2,0.3,2.6,0.3,4l0.8,0.2C868.9,242.9,867.7,249.3,865.6,255.3z
		 M936.9,170.6c1.1-1.6,2.4-3.9,4-5.2c0.6-0.4,1.2-0.8,1.8-1c4.2-1.2,10.3,1.6,9.5,6.7c-0.4,2.6-6.2,4.1-8.3,4.8
		c-4.1,1.5-8.3,2.1-12.6,2.2C932.4,178.2,936.1,171.6,936.9,170.6z M919.7,206.7c5.3,0.4,10.6,1.1,15.9,1.8c3.3,0.4,9.7,2,12.8,0.3
		c-1.3-1.3-2.4-2.9-4.3-3.5c-2.6-0.9-5.7-0.9-8.4-1.5c-5.2-1.1-10.3-2.7-15.5-4c0.3,0.1,4.3-5.7,4.8-6.3c1.8-2,3.7-3.9,5.9-5.4
		c2.1-1.4,4.4-2.4,6.9-3c10.3-2.5,16.9,12.2,19.6,19.6c2.5,6.8,6.4,19.2,1.5,25.8c-0.3,0.4-11.4-10-12.5-11.1
		c-3.6-3.5-10.6-3.9-15.3-5c-1.9-0.4-17.7-2.9-18-4.2c-0.1-0.5-0.2-1.1-0.3-1.6C915.1,208,917.5,206.5,919.7,206.7z M910.6,219.5
		c9.9-0.1,18.8,3.1,27.1,8.6c3.6,2.4,7.2,5.3,9.9,8.6c0.8,1,9.1,12.4,8.9,12.6c-0.5,0.5-1,1-1.5,1.4c-0.8,0-1.6,0-2.4,0
		c-8.7-0.5-17.3-3.7-25.3-7c-6.7-2.8-13-6.6-18.2-11.8c-1.1-1-2.3-2.1-2.8-3.4c-1-2.3-1.6-4.8-2.4-7.2
		C906.1,220.7,908.4,219.5,910.6,219.5z M878.6,272.3c1.1-14.6,2.5-29.1,3.7-43.7c0.4-4.7,3.4-5.2,7.1-4.7
		c12.3,1.6,23.2,14.4,23,28.3c-0.4,11.1-6.6,21-14,30.4c-2.4,3-4.8,6-7.5,8.7c-3.4,3.3-5.3,3-8-0.9
		C878.9,285,878.1,278.7,878.6,272.3z M899.4,574.8c-5.2,3.2-10.7,5.8-16.7,8.4c1.2-0.5,2.2-7.5,2.5-8.7c0.8-3.3,1.4-6.6,1.9-9.9
		c1.1-6.7,1.9-13.4,3.1-20c1.7-9.8,4.7-19.4,10-27.9c5.5-9,11.5-17.8,19.7-24.6c0.3,0.4,0.8,0.9,0.7,1.2c-3.3,11.5-1.2,22.8,1,34
		C925.7,549,921.3,561.2,899.4,574.8z M982.9,337.6c-7.4,28.4-18,55.6-33.1,80.9c-0.4,0.7-4.4,6.4-5.5,5.2c-2-2.4-2.3-5.8-3.1-8.7
		c-0.9-3.4-1.8-6.7-3.2-9.9c-2.3-5.3-2.3-10.1,0.5-15.1c1.4-2.6,2.5-5.3,3.5-7.8c3.2-7.6,7.4-15.6,13.1-21.5
		c4.6-4.8,8.7-10.2,12.5-15.6c-6.3,6-12.6,12-18.8,18c-2.1,2-4.5,3.8-6.1,6.3c-2,3.2-2.7,7-4.1,10.4c-1.9,4.8-4.4,9.4-7.3,13.7
		c-6.3-8.4-2.6-17.4-3.6-25.6c-0.1-1.2-0.2-2.4-0.2-3.5c0-1.5,0.2-2.9,0.4-4.3c0,0,0,0,0,0c0,0,0,0,0,0c0.1-0.7,0.3-1.3,0.5-2
		c0-0.1,0.1-0.3,0.1-0.4c0.2-0.6,0.4-1.2,0.6-1.8c0-0.1,0.1-0.2,0.1-0.4c0.2-0.5,0.5-1.1,0.7-1.6c0-0.1,0.1-0.2,0.1-0.3
		c0.3-0.6,0.6-1.1,0.9-1.7c0.1-0.1,0.2-0.3,0.3-0.4c0.3-0.5,0.7-1.1,1-1.6c0.1-0.1,0.2-0.2,0.2-0.3c0.3-0.5,0.7-0.9,1-1.3
		c0.1-0.1,0.2-0.3,0.3-0.4c0.4-0.5,0.8-1,1.2-1.4c0.2-0.2,0.3-0.3,0.5-0.5c0.4-0.4,0.7-0.8,1.1-1.2c0.1-0.1,0.2-0.2,0.3-0.3
		c0,0,0-0.1,0.1-0.1c-7.4,3.9-12,12.2-12.4,20.5c0,1.2,0,2.4,0.1,3.5c0.6,5.5,0,11.2,0.5,16.8c0.3,3.6,1.3,7.1,2.3,10.6
		c3.8,12.4,5.8,25,0.8,37.3c-3.4,8.4-7.8,16.6-13,24c-3.7,5.4-9.1,9.7-14.2,13.9c-6.7,5.4-14.6,3.7-17.3-4.4
		c-3.8-11.3-6.1-23.1-8.9-34.6c-0.4-1.6-0.5-3.3-0.7-4.9c-1.2-8.7-0.2-16.6,4.9-24.2c4.7-7,8-14.9,11.8-22.4
		c0.5-1.1,0.5-2.4,0.2-3.7c-5.5,8-10.9,16.1-16.4,24.1c-0.6-0.1-1.3-0.2-1.9-0.3c0.3-4.9-0.4-10.1,1-14.7c3.7-12.8,8.6-25.2,12.3-38
		c2.5-8.7,4.4-17.7,5.4-26.7c1-8.7,2.9-16.2,8.6-23.7c10.6-13.9,20.2-28.8,17.4-47.9c-0.1-0.6,0-1.3,0.2-2c0.1-0.5,0.4-0.9,1.1-2.2
		c0.6-1.2,16.9,5.4,18.4,5.9c7.9,2.6,18.9,2.8,23.8,10.3c5.9,9,11.8,18,17.6,27.1c1.2,1.9,1.4,4.3,2.1,6.5c-0.3,0.3-0.7,0.6-1,0.8
		c-8.5-8.2-17.1-16.3-25.5-24.4c0.3,5.9,4.2,10.1,8.7,14.2c4.5,4.1,9.2,8.2,13,13C984.9,310.4,986.6,323.6,982.9,337.6z"/>
	<path fill="#C49A6C" d="M303.4,489.7c-0.1,0.2-0.2,0.4-0.3,0.6v0C303.2,490.1,303.3,489.9,303.4,489.7z"/>
	<path fill="#C49A6C" d="M928.6,357.7c0,0.1-0.1,0.3-0.1,0.4C928.5,358,928.6,357.9,928.6,357.7z"/>
	<path fill="#C49A6C" d="M929.4,355.6c0,0.1-0.1,0.2-0.1,0.3C929.3,355.8,929.3,355.7,929.4,355.6z"/>
	<path fill="#C49A6C" d="M929.2,355.9C929.2,355.9,929.2,355.9,929.2,355.9c-0.2,0.6-0.4,1.2-0.6,1.8c0,0,0,0,0,0
		C928.8,357.1,929,356.5,929.2,355.9z"/>
	<path fill="#C49A6C" d="M928.5,358.1c-0.2,0.6-0.3,1.3-0.5,2l0,0C928.1,359.4,928.3,358.8,928.5,358.1
		C928.5,358.1,928.5,358.1,928.5,358.1z"/>
	<path fill="#C49A6C" d="M937,344.6C937,344.6,937,344.5,937,344.6C937.1,344.5,937.1,344.5,937,344.6
		C937,344.5,937,344.6,937,344.6z"/>
	<path fill="#C49A6C" d="M934,347.9c-0.1,0.1-0.2,0.2-0.3,0.3C933.8,348.1,933.9,348,934,347.9z"/>
	<path fill="#C49A6C" d="M937,344.6c-0.1,0.1-0.1,0.1-0.2,0.2c-0.4,0.4-0.7,0.8-1.1,1.2c0,0,0,0.1-0.1,0.1
		C936.1,345.5,936.5,345.1,937,344.6z"/>
	<path fill="#C49A6C" d="M935.3,346.4C935.3,346.4,935.2,346.4,935.3,346.4c-0.5,0.5-0.9,1-1.3,1.5c0,0,0,0,0,0
		C934.4,347.4,934.8,346.9,935.3,346.4z"/>
	<path fill="#C49A6C" d="M935.6,346c-0.1,0.1-0.2,0.2-0.3,0.4C935.4,346.3,935.5,346.2,935.6,346z"/>
	<path fill="#C49A6C" d="M760,535.1c-0.4,0.2-0.9,0.4-1.3,0.5c-6.3,0.4-9.8,2.9-10.2,7.4c-0.3,3.6,3.5,8,9,8.5
		c5.7,0.5,11.5-0.4,17.3-0.8c1.9-0.1,5.6-0.7,7.1-1.8c0.9-0.7,1.6-1.7,2-2.8c0.3-0.8,0.4-1.7,0.1-2.5c-0.2-0.7-0.8-1.3-1.4-1.9
		c-3.1-3.1-5.9-6.2-8.6-9.6c-1.7-2.1-3-4.8-5.1-6c-2-1.1-6.1-1.5-7.1-0.3c-1.9,2.2-2.2,5.8-3.2,8.7
		C759.1,534.7,759.6,534.9,760,535.1z"/>
	<path fill="#C49A6C" d="M937.2,344.4C937.2,344.4,937.2,344.4,937.2,344.4L937.2,344.4c-0.1,0.1-0.1,0.1-0.1,0.1
		c1.6-1.6,6-0.6,8-0.6c2.9,0,5.8-0.5,8.6-1.2c5.4-1.4,10.6-4.2,14.2-8.5c2-2.4,4.5-5,2.6-8.4c-1.9-3.4-5.3-3.6-8.8-3
		c-0.6,0.1-1.3,0.2-2.4,0.4c0.4-4.2,1-8.6-4.1-9.8c-6.3-1.5-9.4,6.2-11.1,10.9c-0.4,1.1-0.8,2.2-1.1,3.3c-0.9,3.3-1.6,7-1.9,10.4
		C940.8,340.3,938.5,342.3,937.2,344.4C937.1,344.4,937.1,344.4,937.2,344.4C937.2,344.4,937.2,344.4,937.2,344.4
		C937.2,344.4,937.2,344.4,937.2,344.4z"/>
	<path fill="#C49A6C" d="M780.7,427.5C780.7,427.5,780.7,427.5,780.7,427.5C780.7,427.5,780.7,427.5,780.7,427.5
		C780.7,427.5,780.7,427.5,780.7,427.5C780.7,427.5,780.7,427.5,780.7,427.5z"/>
	<path fill="#C49A6C" d="M455.6,71.1c3.2,0.5,7.8,0.4,9.4-2.9c-1.2,0.2-2.4,0.5-3.6,0.7c-2,0.4-5.5-1.1-7-2.2
		c-3.7-2.8-3.7-3.1-7.4-1C446.2,66,454.5,70.9,455.6,71.1z"/>
	<path fill="#C49A6C" d="M577.6,45c1.5,0.9,4.8-0.3,7-1.3c1.7-0.8,3.1-2.5,4.5-3.9c2.9-2.9,5.6-2.4,8.2,0.3c1.4,1.5,2.7,3.2,4.2,5.1
		c-2.2,1.1-3.8,1.9-6.3,3.1c6.8-1.2,6.6-1.2,7-7.4c0.1-1,1.6-2.3,2.8-2.7c5.7-1.8,9,2.8,13.6,4.9c-1.1,1-1.8,1.6-3.1,2.9
		c6.6-1.2,9.7-0.4,14.8,3.5c5.5,4.2,9.9,4.5,15.2,0.6c2.4-1.8,6-4.1,0.4-6.7c-0.6-0.3-0.5-1.8-1.1-2.5c-1.1-1.2-2.4-3.1-3.7-3.2
		c-1.3-0.1-3.3,1.4-3.9,2.7c-1.2,2.6-1.8,5.6-2.9,9.4c-10.6-6.7-20.7-13-29.6-18.7c-0.5,1.3-1.2,5-2.3,5.1c-3.1,0.4-6.8,1.8-9.3-2.9
		c-1.6-3-5.2-5.3-8.4-7c-1.8-1-4.7,0-7,0.1c0.4,2.1,0.9,4.3,1.4,6.7c0.1-0.1,0.2-0.1,0,0c0,0,0,0,0,0c-0.1,0-0.2,0.1-0.2,0.2
		c-1.9,1.5-5.3,3.2-5.2,4.6C573.7,40.5,575.5,43.7,577.6,45z"/>
	<path fill="#C49A6C" d="M481.1,52.1c3.8,2.4,8.2,3.8,12.5,5.7c0.5-4.2,0.4-8.2,1.6-11.7c1.5-4.3,0.2-6.9-3.6-8.2
		c-4-1.3-6.1,0.8-6.6,4.7c-3.6,1.2-6.3,2-9,2.9C477.6,47.7,478.9,50.7,481.1,52.1z"/>
	<path fill="#C49A6C" d="M733.4,86.6c-1,0.6-2.1,1.3-3.3,2c0.3,0.3,0.7,0.7,1,1c4-4.2,11.1-3.9,14.7-9.9c-2.1-0.8-3.4-1.3-4.7-1.8
		c0-2.8-0.5-6.2-2.1-6.7c-1.9-0.6-5.2,0.5-6.8,2C728.1,77.3,728.4,78.8,733.4,86.6z"/>
	<path fill="#C49A6C" d="M515.3,44.2c0.9,1,1.7,1.9,2.6,2.8c0,0,0,0,0,0c0.2-0.3,0.4-0.7,0.7-1c0.5-0.7,0.9-1.3,1.4-2
		c1.2-1.7,2.3-3.3,2.9-5.2c1.1-3.2,2.7-4.7,6-4.4c-2.3-1.4-4.4-3.2-6.9-4.1c-1.3-0.5-3.5,0.4-4.8,1.3c-0.9,0.6-1,2.3-1.1,2.6
		c-2.5,0.8-4.2,1.3-5.9,1.8c0.9,1.8,1.5,3.7,2.7,5.2C513.6,42.3,514.5,43.3,515.3,44.2z"/>
	<path fill="#C49A6C" d="M774.4,148.4c2.6-0.7,4.8-2.4,7.5-3.9c-0.1-0.4,0.1-1.5-0.4-2c-2.1-1.8-4.2-3.7-6.6-5.2
		c-2.2-1.3-4.2-0.8-4.7,2.1c-0.2,1.3,0,3.6-0.3,3.7c-3.3,0.8-3.4,3-1.5,4.5C769.7,148.8,772.6,148.9,774.4,148.4z"/>
	<path fill="#C49A6C" d="M734.2,63.5c-3.2-3.7-6.6-7.4-10.6-12c-1.8,3.6-5,6.8-2.4,11.1C723.3,66.1,729.3,66.2,734.2,63.5z"/>
	<path fill="#C49A6C" d="M656.8,57.1c-1.3-3.8-2.6-7.5-3.9-11.3c-0.5,0.2-0.9,0.4-1.4,0.5c1.4,3.8,2.9,7.5,4.3,11.3
		C656.1,57.4,656.5,57.2,656.8,57.1z"/>
	<path fill="#C49A6C" d="M987.7,229c1.7-1.3,2.4-3.7,3.6-5.6c-0.3-0.1-0.5-0.3-0.8-0.4c-2.5,2.3-5.1,4.5-8,7.1
		c-1.1-2.1-1.9-3.5-2.8-5.4c-6.3,10.3-5.8,24.5,0.9,37.6c0-0.2,0.1-0.3,0.1-0.5c-0.2-1-0.3-2-0.6-2.9
		C976.8,247.5,977.1,237.1,987.7,229z"/>
	<path fill="#C49A6C" d="M244.6,174.6c6.2,5,12.5,9.7,19.4,15.1c2.8-7.1,5.4-13.3,7.5-19.8c1-3.1,1.6-6.7,1-9.8
		c-0.5-2.1-3.1-4.3-5.4-5.3c-2.8-1.2-5.5,0.2-6.8,3.3c-0.5,1.4-1,2.8-1.6,4.6c-0.9-1.3-1.4-2.1-1.9-2.9c-3.4-5.5-8.7-7.1-13.9-4.1
		c-4.9,2.9-5.9,7.9-2.3,13.8C241.7,171.4,243,173.3,244.6,174.6z"/>
	<path fill="#C49A6C" d="M326.1,125.2c1.5,2.3,3.2,4.5,4.5,6.4c1.3-1.1,2.9-2.7,4.7-3.9c6-4,10.8-9.2,12.8-16.1
		c0.9-2.9,0.1-7-1.5-9.6c-2.2-3.4-6.5-3.2-9.9-1.3c-2.3,1.2-3.9,3.6-6.1,5.7c-2.3-5.5-6-7.8-10-6.3c-3.8,1.4-5.4,6.4-2.9,11.6
		C319.9,116.5,323.2,120.8,326.1,125.2z"/>
	<path fill="#C49A6C" d="M722,370.6c6.3,5.8,13.9,8.8,22.4,11.2c1.2-5,2.3-9.5,3.4-14c0.1-0.5,0.3-1,0.3-1.5
		c0.2-4.6,0.7-9.2,0.4-13.8c-0.3-4.3-3.1-6.1-7.6-5.9c-4.4,0.2-5.6,2.7-5.9,6.5c-0.1,1-0.5,2-0.9,3.3c-0.8-0.6-1.2-0.9-1.5-1.2
		c-5.1-4.3-10.3-4.6-14.2-0.9c-3.5,3.3-3,8.9,1.2,13.8C720.3,369,721.2,369.8,722,370.6z"/>
	<path fill="#C49A6C" d="M786.6,385.8c2.3,3.8,4.8,7.5,7.7,11.9c2.7-2.1,5.2-4.2,7.8-6.2c3.1-2.4,5.8-5.5,10.5-4.8
		c0.9,0.1,2.8-2.1,3.1-3.5c1.1-6.3-3.9-10.4-6.2-15.5c-0.4-0.9-2.6-1.1-4.1-1.3c-5.6-0.6-8.3,3.1-10.6,8.2c-2.1-5.2-5.4-6.6-9.7-4.2
		c-4.6,2.5-2.5,6.3-1.4,9.6C784.4,382.1,785.5,384,786.6,385.8z"/>
	<path fill="#C49A6C" d="M551.6,296.6c-0.7,1-0.1,3.3,0.4,4.9c0.3,1,1.5,1.7,1.9,2.1c-2.3,1.8-5.6,3.1-6.3,5.2
		c-0.9,2.7-0.6,6.8,0.8,9.2c2.1,3.5,6.7,3.7,9.8,1.5c5.7-4,10.9-8.9,17.5-14.4c-7.6-3.9-13.4-7.1-19.4-9.8
		C555.1,294.7,552.4,295.5,551.6,296.6z"/>
	<path fill="#C49A6C" d="M345.5,259c-3.8-1.2-8.3-0.2-12.7-0.2c0.1-0.2,0.2-1.2-0.1-2c-0.7-2.2-1.3-5.4-2.8-6.1
		c-2.2-1-5.8-0.8-7.8,0.4c-2.2,1.3-4,4.2-4.6,6.7c-2.1,8-3.6,16.1-5.5,25.2c6,0.3,10.8,0.7,15.6,0.7c8.7,0,15.7-4,21.5-10.1
		C354.1,268.3,352.5,261.1,345.5,259z"/>
	<path fill="#C49A6C" d="M657.2,132.2c6.3-0.9,10.4-5.7,13.4-11.1c2-3.6,1.2-7-1.6-10c-5.1-5.3-10.5-5.9-19.2-1.5c0-1.3,0-2.1,0-2.9
		c0.4-6.5-0.8-8.7-5.6-9.9c-4.1-1-8.3,1.2-10.2,6c-3.9,9.8-4.9,20.1-4.5,31.9C639.2,134,648.3,133.6,657.2,132.2z"/>
	<path fill="#C49A6C" d="M575.7,179.7c-4.3,0.4-7.5,4-7.5,8.4c0,1.1,0,2.1,0,3.6c-4.5-2-9.4-4.2-11.8,0.8c-2.5,5,2.4,7.5,5.9,10.1
		c0.4,0.3,0.8,0.6,1.2,0.9c4.7,3,9.4,6.1,14.6,9.4c3.3-8.4,7.5-16.7,5.8-26.3C583.1,181.9,579.8,179.2,575.7,179.7z"/>
	<path fill="#C49A6C" d="M631.1,229.9c3.9,2.7,8.4,4.6,13,7c3.7-7,5.8-16.1,4-20.1c-0.9-2-3.5-4.4-5.4-4.5c-2.9-0.1-5.7,1.8-5.5,5.7
		c0.1,1.2-0.2,2.5-0.4,3.9c-0.9-0.3-1.3-0.4-1.8-0.6c-3.2-1.2-6.5-0.7-7.4,2.7C627.2,225.6,629.3,228.7,631.1,229.9z"/>
	<path fill="#C49A6C" d="M581.1,133.9c-0.7,0.9,0.5,4.9,1.9,5.7c3.5,2.1,7.6,3.1,12.1,4.8c0-5.5,0.2-9.6-0.1-13.6
		c-0.1-1.5-1.7-2.9-2.7-4.3c-1.4,1.1-2.7,2.1-4.2,3.3C585.6,131.1,582.7,132,581.1,133.9z"/>
	<path fill="#C49A6C" d="M675.8,217.6c2.9-0.7,6.2-1.2,8.3-3c8.2-7.1-4.9-6.7-4.2-11.3c-1.9-0.1-3.8-0.4-5.7-0.3c-0.5,0-1,1.2-1.2,2
		c-0.9,2.6-1.6,5.3-2.4,8C670.4,216.9,672.3,218.4,675.8,217.6z"/>
	<path fill="#C49A6C" d="M595.2,179.6c0.5,0,0.9-0.1,1.4-0.1c1.7-5,3.5-10.1,5.6-16.2c-2.4,2.3-4.1,3.8-6.3,5.9
		c-3.7-6.3-7.2-12.4-10.8-18.6C583.8,162,593.6,169.4,595.2,179.6z"/>
	<path fill="#C49A6C" d="M667.6,228.1c2.8,4.4,5.1,8,7.9,12.4C675.8,233.3,673.8,230.1,667.6,228.1z"/>
	<path fill="#C49A6C" d="M927.1,326.2c-1.2-0.4-3.4,1.6-4.9,2.8c-0.8,0.7-1.1,2.1-1.8,3.5c-0.8-1.4-1.3-2.2-1.8-3
		c-2.6-3.6-6.9-4.8-10.4-2.7c-3.2,1.9-4.2,6.1-1.9,10.1c1.4,2.6,3.2,5.1,5.3,7.2c3.7,3.7,7.9,7.1,11.6,10.4
		c2.1-4.7,4.3-9.3,6.1-14.1c1.2-3,2.5-6.3,2.4-9.5C931.6,329.2,929,326.9,927.1,326.2z"/>
	<path fill="#C49A6C" d="M917.2,382.8c-4.7-2.4-5.6,2.3-7.5,4.9c-1.7-1.6-3.1-4-4.8-4.2c-2.5-0.3-6.5,0.1-7.4,1.7
		c-1.3,2.2-1.7,6.6-0.3,8.5c3.9,5.2,8.9,9.5,14.4,15.1c2.9-6.1,5.6-10.8,7.5-15.8C920.3,389.5,921.9,385.2,917.2,382.8z"/>
	<path fill="#C49A6C" d="M847.6,698.9c-19.1,23.5,0,40,0,40l11.2-9.9c-4.5-1.8-4.4-5.1-4.4-5.1c-0.1-7.3,8.1-2.2,8.1-2.2
		c15.3,9.8,31.1,1.6,31.1,1.6C853.2,717.4,847.6,698.9,847.6,698.9z"/>
</g>
</svg>
