<?xml version="1.0" encoding="utf-8"?>
<!-- Generator: Adobe Illustrator 27.3.1, SVG Export Plug-In . SVG Version: 6.00 Build 0)  -->
<svg version="1.1" id="Layer_1" xmlns="http://www.w3.org/2000/svg" xmlns:xlink="http://www.w3.org/1999/xlink" x="0px" y="0px"
	 viewBox="0 0 1200 800" enable-background="new 0 0 1200 800" xml:space="preserve">
<g>
	<g>
		<path fill="#819FA7" d="M277,402.8c0-109.1,0-229.6,0-350.1c0-20.7-10.1-30.8-30.9-30.5c-18.1,0.3-36.2,0.8-54.3,1.4
			c-18.1,0.6-27.8,10.7-27.9,28.8c-0.1,18.6,0,37.3,0,55.9c0.4,222.7,0.9,445.5,1.3,668.2c0,8.1,0,8.2,8.1,8.2
			c33.1,0,66.2-0.1,99.2,0.1c5.1,0,6.4-1.4,6.4-6.5C278.3,657,277.7,535.6,277,402.8z M265.4,641.7c-7.7,0.6-14.6-0.3-19.4-5.5
			c-5.3-5.7-10.2-12.1-13.5-19.1c-4-8.5-6.2-17.9-9.2-26.9c-0.2-0.7-0.1-1.6,0.9-2.9c0.8,1.2,1.5,2.3,2.3,3.5
			c6.3,9.7,12.4,19.5,19,29c3.7,5.4,9.8,6.7,16.5,4.5c1.6-0.5,3.2-1.3,5.5-2.3c0,5.3,0,9.8,0,14.3c-0.3,0.1-0.5,0.2-0.8,0.3
			c-1.2-2.9-2.3-5.8-3.5-8.8c-0.3,0.1-0.5,0.2-0.8,0.2C263.3,632.3,264.2,636.6,265.4,641.7z M242.6,547.3
			c6.1,0.2,10.4,2.4,12.9,7.8c1-6.2,0.9-6.4-9.2-11.2c6-2.6,9.5-3.1,12.1,0.5c2.1,2.9,3.2,7.3,3,10.9c-0.3,5.3-4.1,8.9-9.3,10.2
			c-1.3,0.3-3.1-0.8-4.5-1.5c-0.7-0.4-0.9-1.5-1.5-2.1c-1.9-2-3.9-3.8-5.9-5.7c-0.4,2.8-1.3,5.7-1,8.4c0.9,9.3,1.1,9.1,10.5,9.5
			c5.6,0.2,11.1,1.1,17.1,1.7c0,10.4,0,20.3,0,31c-9.2-8-16.8-5.5-24.2,4c-5.3-8.4-10.1-16-14.8-23.5c13.1-10.2,13.1-12,0.2-35.4
			c8,1.6,15,3,21.9,4.4C250.4,553.3,250.4,553.3,242.6,547.3z M263,613.6c-0.5,3.8-3.2,5.6-7.2,5.5c-3.9-0.1-5.7-2.4-6-6
			c-0.3-3.5,3.5-6.8,7.4-6.7C260.6,606.5,263.1,609.4,263,613.6z M226.8,571.8c-1-5.2-2.1-10.4-3.1-15.6
			C227.5,560.9,229.6,565.8,226.8,571.8z M221,579.4c-2.2-3.1-6.1-6.2-6.3-9.4c-0.3-4.9,1.9-9.9,3.4-16.1
			C225.9,562.1,226.9,574.6,221,579.4z M262.1,571.2c-1.3-0.4-2.7-0.6-5.1-1.1c6.7-7,9.7-14.8,6.4-23.8c-0.8-2-2.9-3.6-4.3-5.3
			c1.9-2.6,4.1-5.8,6.4-9.1c-18.3,12.1-38,14.8-58.7,12.3c-6-0.7-11.7-1.5-18.2,2.4c2.4,1,3.8,1.6,5.4,2.2c-2.1,2.7-7.3,3.3-5.2,8.6
			c3.4-1.2,6.8-2.3,10.1-3.4c0.5,0.5,1,1.1,1.5,1.6c-2,2.7-3.5,6.4-6.1,7.8c-1.8,1-6.1-0.5-7.8-2.2c-2.7-2.7-5-6.4-6.1-10.1
			c-1.4-4.8,1-7.8,6-10.5c-2.4-5.3-4.8-10.6-7.1-15.6c-2.1,2.6-2,4.6,0.3,10.7c0.7,1.9,1.4,4.8,0.5,6.3c-5.3,8.8-2.5,16.5,2.6,24
			c1,1.5,2.1,3,3.5,5c-3.7,0.4-6.8,0.8-10.4,1.2c-0.3-2.1-0.7-3.9-0.7-5.8c-0.2-12.7-0.4-25.3-0.3-38c0.1-9.3,5.4-14.5,13.7-13.6
			c-0.9,1.3-1.6,2.4-2.5,3.4c-4.5,5.1-4.5,9.9,0.1,14.8c5.8,6.1,13.4,8,21.3,9.3c13.7,2.2,27.1,0.6,39.8-4.5
			c10.9-4.4,12.6-9.8,7.6-20.4c-0.6-1.4-1.2-2.8-1.9-4.3c7,0.7,13,6.1,13.3,12.3c0.5,13.9,0.6,27.8,0.9,41.7
			C267.4,571.2,265.6,572.3,262.1,571.2z M174.9,514.5c0-3.8,0-7,0-10.4C181.3,510.2,181.4,511.5,174.9,514.5z M204.1,456.4
			C204.1,456.4,204.1,456.4,204.1,456.4c0,0.1,0,0.1,0.1,0.2c0,0,0,0,0,0l0,0c0,0,0,0,0,0c0,0,0,0,0,0l0,0c0,0-0.1,0-0.1,0
			c-1.2,5.2-2.4,10.5-3.6,15.7c-5.1-2.4-7.9-7.1-6.6-11.1c0.4-1.3,1-2.3,1.7-3c0.3-0.4,0.7-0.7,1.1-0.9c0.2-0.2,0.5-0.3,0.8-0.4
			c1.9-0.8,4.1-0.7,6.6-0.2c0,0,0,0,0,0C204.1,456.5,204.1,456.4,204.1,456.4C204.1,456.4,204.1,456.4,204.1,456.4
			c-1.2-3.9-3.6-6.3-6.8-7.6c-0.6-0.2-1.2-0.4-1.8-0.6c-1-0.2-2-0.4-3.1-0.5c-6.9-0.5-8.9,5.1-11.3,10.1c-3.8-0.8-5.6-3.1-5.6-7
			c0-4.7-0.2-9.5,0-14.2c0.1-1.4,1.5-3.7,2.3-3.8c11.5-0.4,23.1-2.9,34.2,2c1.1,0.5,2,1.2,3.6,2.1
			C211.8,443.6,207.9,450,204.1,456.4z M189.1,306.4c4.3,4.5,8.9,8.8,13.6,12.9c3.9,3.5,8.5,6.3,11.8,10.2c2.2,2.5,2.8,6.4,4.2,9.7
			c-0.7,0.5-1.4,0.9-2,1.4c-6.9-11.3-18.6-16.3-28.7-23.4c-7.9-5.5-8.5-11.8-2.6-19.3c2.6-3.3,5.4-6.3,8.5-10
			c-0.4,6.5-0.7,12.1-1,17.5c-1-1.4-2.3-3.1-3.6-4.9c-0.5,0.1-1.1,0.3-1.6,0.4C188.2,302.8,188,305.2,189.1,306.4z M207.6,275.2
			C207.6,275.2,207.6,275.2,207.6,275.2c-3.4,7-5.2,14.2-2.6,22.6c1.1-1.2,1.8-2,2.8-3.2c4.2,8.5,12.3,4.4,18.4,6.4
			c0.5,0.2,1.3-1,2.1-1.3c2-0.8,4.1-1.5,7.6-2.8c2.4-4.8,2.1-11.4-0.2-18.1c8.2,9.2,9.5,20.4,2.5,29.8c-4.9,6.5-11.1,12-16.9,18.3
			c-5.5-4.4-10.6-8.1-15.3-12.3c-10.8-9.7-11.8-22.1-3-33.8C204.5,278.9,206.1,277.1,207.6,275.2z M220.4,280.9
			c1.8,0.4,4.4,2.5,4.5,4.1c0.1,1.6-2.2,4.4-3.8,4.7c-1.4,0.3-3.4-2.2-6.3-4.2C217.5,283.2,219.2,280.6,220.4,280.9z M248.7,291.7
			C248.7,291.7,248.7,291.7,248.7,291.7C248.7,291.7,248.6,291.8,248.7,291.7C248.6,291.8,248.6,291.8,248.7,291.7
			c0.3,2.1,0.6,4,1.1,6c1.3,5.9-1.4,11.5-5.7,13.6c1-5.4,2-11.5,3.2-17.5c0-0.1,0-0.2,0.1-0.3C247.6,292.9,248.2,292.4,248.7,291.7
			c-0.1,0-0.1-0.1-0.1-0.1L248.7,291.7L248.7,291.7c-0.7-1.3-1.4-2.6-2.1-3.9c0.5-0.4,0.9-0.8,1.4-1.1c3.6,3.6,7.7,6.8,10.6,10.8
			c4.3,6.2,3,12-3.1,16.5c-5.1,3.7-10.8,6.7-15.6,10.6c-5.8,4.7-11,10.1-17.4,15c0.9-2.6,1.2-5.8,3-7.7c5.1-5.2,10.7-9.9,16.1-14.7
			c3.1-2.8,6.9-5,9.3-8.2C254.9,303.7,253.8,297.5,248.7,291.7z M265.3,341.7c0,10.6,0,21.2,0,30.4c-4.3-2.6-9.8-5.1-14.2-8.8
			c-2.4-2-3.1-5.9-5.2-10.3C255.8,352.7,262.1,349.9,265.3,341.7z M265.2,313.9c0,5.4,0,9.9,0,14.6
			C259.7,320.9,259.7,320.9,265.2,313.9z M264.9,399.9c-2.5,1.3-6.1,0.7-9.2,0.8c-0.1-0.5-0.2-1-0.2-1.5c2.9-2.3,5.9-4.6,10-7.9
			C265.4,394.9,266.2,399.3,264.9,399.9z M223.6,357.4c-4.9-1.1-9.5-2.1-13.9-3.1c2.6-5.8,14.2-7.6,21.8-2.8
			C228.7,353.6,225.8,355.7,223.6,357.4z M235.6,372.3c-2,3-5.6,1.7-9.8,0c0.5-3.2,1-6.3,1.5-9.4c0.4-0.2,0.8-0.3,1.2-0.5
			C230.7,365.5,232.9,368.6,235.6,372.3z M211.8,361.3c3.7,0.2,6.2,1.9,5.9,5.8c-0.2,3.7-1.3,7.2-5.9,7.1c-4.5-0.1-5.3-3.8-6.2-6.9
			C206.1,363.4,207.8,361.1,211.8,361.3z M220.2,381.2c6.9,0.1,11.5,4.5,11.5,11c0,6.8-4.8,11.6-11.7,11.5
			c-6.6-0.1-12-5.4-11.8-11.7C208.5,385.7,213.6,381.1,220.2,381.2z M224.4,424.4c-1-0.2-1.8-3.9-1.9-6c0-1.4,1.3-3.6,2.5-3.9
			c8.5-2.3,13.1-8.4,16.4-16c0.6-0.3,1.2-0.5,1.8-0.8c2.1,3.2,6,6.5,6,9.7c0.1,7.4-2.7,14.9-10,17.7
			C235,426.7,229.3,425.3,224.4,424.4z M227.9,455.8c-5.1,0-8.8,0-13.8,0c2.7-4,4.8-7.2,7.9-11.8C224.4,448.8,226,452.1,227.9,455.8
			z M239.5,381.2c0.2-5.3,4.7-9.5,10-9.4c6,0.2,9.6,4,9.6,10.2c0,6.1-3.5,10-9,10.1C244.3,392,239.3,386.9,239.5,381.2z
			 M235.8,340.1c7-5.6,13.4-10.6,19.7-15.7c4.5,4.4,6,10.8,3.3,15.3c-2.9,4.9-7.8,4.2-12.3,3.5C243.2,342.6,239.9,341.3,235.8,340.1
			z M184.3,325.4c6.7,5.4,12.9,10.4,19.2,15.4c0,0.6-0.1,1.2-0.1,1.7c-5,0.7-10.1,2.2-15,1.7c-2.5-0.2-5.6-3.4-7-6
			C179.1,333.9,180.5,329.5,184.3,325.4z M175.1,329.3c0-4.9,0-9.1,0-14.6c2.2,3,3.8,5.1,5.3,7.2
			C178.8,324.2,177.2,326.4,175.1,329.3z M175.4,343.3c3.7,6.9,8.7,10.3,15.9,10.1c0.9,0,2.5,2.7,2.5,4.2c0,2.2-0.4,5.3-1.8,6.3
			c-5.1,3.4-10.7,6.1-16.6,9.3C175.4,364,175.4,354.3,175.4,343.3z M192,372.8c5.4,0,9.6,4.6,9.6,10.4c0,5.5-3.3,8.8-8.8,8.9
			c-5.8,0.1-9.7-3.6-9.8-9.3C182.9,376.7,186.4,372.7,192,372.8z M186,407.7c0.7-0.1,1.3-0.2,2-0.3c0.8-0.1,1.7-0.3,2.5-0.4v0
			c0-0.1,0.1-0.1,0.1-0.2c0,0,0.1,0.1,0.1,0.1c0,0,0,0,0,0c2.4-2.3,4.8-4.6,7.8-7.5c0.4-0.4,0.9-0.8,1.3-1.3
			c2.6,10.2,10.4,14.5,17,20.1c4.6,3.9,3.5,9.8,4,15c-0.5,0.2-0.9,0.3-1.4,0.5c-0.7-1.9-1.5-3.8-2.5-6.3c-3.2,5.1-6.5,2.4-9.4,0
			c-6.3-5.2-13-10.3-15.3-18.9c-0.2-0.6-1-1.1-1.7-1.6c0,0,0,0,0,0c0,0,0,0,0,0c0,0-0.1-0.1-0.1-0.1s0.1,0.1,0.1,0.1c0,0,0,0,0,0
			c-0.1,0-0.1,0-0.2,0c-3.7,6.5-0.3,11.9,4,17.7c-6.6,0.5-12.3,0.9-19.1,1.3c0-5-0.2-9.6,0.1-14c0.1-1,1.7-2.4,2.9-2.7
			c1.8-0.4,3.5-0.8,5.3-1.1C184.4,407.9,185.2,407.8,186,407.7z M175.3,465c0.2,0,0.5,0,0.7-0.1c0,6.7,0,13.4,0,20.1
			c-0.2,0-0.5,0.1-0.7,0.1C175.3,478.4,175.3,471.7,175.3,465z M208,468.7c2.9-5.5,10.3-8.3,17.4-6.7c5.2,1.2,9.3,6.2,9.4,12
			c0.1,6.3-4.7,8.8-9.5,12c-1.5-4.1-2.6-7.4-3.7-10.7c-0.6,0.1-1.3,0.2-1.9,0.3c-0.3,1.8-0.3,3.6-0.9,5.3c-0.6,1.7-1.3,3.8-2.7,4.7
			c-0.8,0.5-3.2-0.9-4.4-2C206.4,479.1,205.2,473.9,208,468.7z M255.6,499.9c0.9,2.7,0.8,5.8,1.1,8.7c-2.9-0.3-6.6,0.3-8.4-1.2
			c-4.2-3.4-8-6.7-13.8-6.6c-8,0.1-11.6,3.1-12.3,11.2c-0.3,3.1,0,6.1,0,9.2c-0.6,0.1-1.1,0.2-1.7,0.2c-1.4-6.1-2.7-12.2-3.9-17.5
			c8.9-3.9,16.8-7.3,25.3-10.9c0,0,0.1-2.2,0.5-2.3c3.6-0.6,7.4-1.1,11-1c1.1,0.1,2.2,2.3,3.3,3.5c-1.1,0.9-2.2,1.8-3.4,2.7
			c-0.5,0.4-1.2,0.5-2.3,1C252.9,498,255.2,498.6,255.6,499.9z M244.7,522.4c-3,2.3-6,4.5-9.8,7.5c1-7.5,6.1-12.9,5-19.6
			c-0.5-0.2-1-0.4-1.5-0.5c-1.2,2.7-2.5,5.3-4.2,9c0.3-5,0.6-8.8,0.9-14.1c2.8,1,6.6,1.2,8.3,3.1c4.3,5,6.5,11.4,5.1,18.1
			c-0.9,4.5-5.2,5.5-9.7,6.4c2.5-3.2,4.6-6,6.7-8.8C245.4,523.1,245.1,522.7,244.7,522.4z M232,509.2c-1.3,6.6-2.9,13.1-4.5,19.6
			c-0.9-0.1-1.9-0.3-2.8-0.4c0.7-6.8,1.2-13.5,2.1-20.2c0.1-0.8,2.1-1.9,3.2-1.8C230.8,506.5,232.2,508.4,232,509.2z M217.5,525.3
			c0.1,0.9-0.1,1.8-0.5,2.7c-2.1-6.5-4.1-13.1-6.4-19.5c-0.3-0.9-2.6-1.1-5.3-2.1c3.7,8.7,6.8,15.9,9.9,23.1c0.5-0.2,1-0.4,1.6-0.6
			c-0.1,0.2-0.2,0.5-0.3,0.7c-0.1,0.2-0.2,0.5-0.3,0.7c-0.1,0.2-0.2,0.5-0.2,0.7c-0.4-0.2-0.9-0.4-1.3-0.5c-0.2-0.1-0.5-0.2-0.7-0.2
			c-0.5-0.2-0.9-0.3-1.3-0.5c-0.6-0.3-1.2-0.6-1.5-1.1c-2.6-4.1-4.7-8.5-6.9-12.9c-0.7-1.5-0.9-3.3-1.4-5.2
			c-2.2,2.9-2.2,2.9-0.4,14.1c-1.5-3.2-2.8-6.4-4.4-9.5c-0.6-1.1-1.7-2.1-2.5-3c0,0,0,0,0,0c0,0,0,0,0,0c0,0,0,0,0,0
			c0,0-0.1,0.1-0.1,0.1c0,0,0,0,0,0c0.4,8.7,6.1,14.3,11.9,20.1c-5.9,0.8-13-2.1-14.9-6.4c-0.3-0.7-0.5-1.3-0.7-1.9
			c-1.2-4.4,0.3-8.4,3.8-11.8c0-0.1,0-0.2,0-0.3c0,0,0.1,0.1,0.1,0.1c2.3-2,4.4-4.9,7.1-5.8c8.1-2.8,11.9-1.6,12.5,6.7
			C215.4,517.1,217,521.1,217.5,525.3z M191,508.6c-1.2,1.1-4,0.4-6,0.5c0.6-2.8,0.7-5.9,2-8.4c0.8-1.4,3.5-1.8,6.8-3.2
			c-4.2-1.1-6.8-1.7-9.5-2.4c4-10,18.3-7.1,28.5,5.8C203.6,499.3,197,503.1,191,508.6z M266.4,515.5c-2.4-2.1-4.3-3.8-6.3-5.6
			c6.8-7.5,7.4-12.5,1.7-20.9c-6.8-10-15.7-6.4-24.9-2.6c8.2-7.9,15.9-15.3,24.7-23.7c0,4.6,0.2,8.4,0,12
			c-0.3,5.5-0.8,10.9,3.8,15.3c0.7,0.7,1,2.2,1,3.4C266.5,500.5,266.4,507.5,266.4,515.5z M265.1,484.2c0-7.6,0-15.1,0-22.7
			c0.4,0,0.7,0.1,1.1,0.1c0,7.5,0,15,0,22.5C265.9,484.2,265.5,484.2,265.1,484.2z M266.2,447.9c-0.3,2.6-1.8,5.1-2.4,6.8
			c-5.6-3.2-9.6-6.4-14.1-7.8c-2.1-0.6-5.5,2-7.8,3.7c-0.6,0.5-0.4,3.8,0.5,4.4c7.8,5.7,7.7,11.2,0.2,16.7
			c-4.5-10.9-9-21.9-13.7-33.2c0.6-0.4,2.2-1.1,3.5-2.2c3.6-3,6.5-2.5,10,0.7c6.1,5.7,11.6,5.7,16.3,0.6c-2.3-0.8-4.3-1.5-7.3-2.6
			c2.4-1.9,4.2-3.7,6.4-4.8c5.2-2.7,8.5-0.7,8.6,5.1C266.3,439.5,266.7,443.7,266.2,447.9z M266.1,423.8c-9.1-2.9-15.1,2.3-21.8,6.9
			c5.3-7.2,10.1-14.2,8.4-23.9c3.9,0.4,7.3,0.6,10.7,1.3c1.1,0.2,2.5,1.9,2.6,3C266.3,415,266.1,418.8,266.1,423.8z M265.9,178.1
			c0,0.9-1.6,2.2-2.6,2.5c-2.6,0.8-5.4,1.1-8.6,1.7c3.6-8.2,7.2-16.3,11.4-25.7C266,164.6,266.1,171.3,265.9,178.1z M220.9,152.2
			c11.3,11.5,11.4,33.1,0.5,54C209.5,193,209.2,168.4,220.9,152.2z M213.8,207.4c-7.1-9.9-18-17.3-20.1-30.5
			C203.2,185.2,209.9,195.3,213.8,207.4z M247.3,175.8c-1.4,13.4-10.4,22.1-19.1,31C231.1,194.4,238.6,184.8,247.3,175.8z
			 M236.5,174.1c-1.1-15.6-4.9-29.7-16.2-41.1c-10.2,11.7-13.6,25.5-15.3,40.6c-6.8-4.8-13.1-8.9-19-13.4c-3.3-2.5-4.4-9.4-2.5-13.1
			c0.4-0.8,1.9-1.6,2.8-1.5c16.1,2.3,25.1-7.2,32.7-19.2c0.4-0.6,0.7-1.2,1-1.8c0.1-0.1,0.3-0.2,0.8-0.7
			c7.8,14.6,18.1,23.8,35.6,19.2c3.7,8,2.9,13.1-3.2,18.1C248.2,165.4,242.8,169.3,236.5,174.1z M252.6,110.4
			c6.7,1.3,8.6,7.7,4.9,13.4c-1.5,2.3-2.8,5.3-2.8,8c0,4.1-1.9,4.7-5.2,4.8c-10.9,0.3-20-6.6-24.9-19.2c6.1-2.3,11.8-4.7,17.6-6.4
			C245.5,110.1,249.3,109.8,252.6,110.4z M220,53.3c5.5,0,10,4.5,10.1,10.1c0.1,6.2-4.8,11.6-10.6,11.6c-5.6,0-10-4.8-10-10.7
			C209.5,58.2,214.2,53.3,220,53.3z M188,112.2c3.9-0.9,8.3-0.3,12.3,0.3c2.7,0.4,5.2,1.9,7.9,2.7c2.6,0.8,5.4,1.4,8.4,2.2
			c-3.3,11-14.2,20.1-24.5,20.8c-3.3,0.2-5.1-0.3-5.1-4.4c0-2.8-1.6-5.9-3.3-8.4C180.1,119.7,181.5,113.8,188,112.2z M175.2,159.4
			c3.6,7.5,7.3,15.3,11.1,23.2c-3.6-0.4-7.1-0.8-11.1-1.2C175.2,173.9,175.2,166.5,175.2,159.4z M175.5,193.1
			c16.6-2.8,42.4,19.9,43.8,38.9c-2.5-4.9-4-9.6-6.9-13.2c-3.7-4.5-8-8.9-12.9-12c-5.7-3.7-11.8-1.9-18,2.2c2.2,1.7,3.8,3.2,5.6,4.3
			c5.4,3.3,10.9,6.4,16.3,9.7c7.7,4.6,12.3,11.2,13.2,20.4c-0.6-1.5-1.3-2.9-1.9-4.4c-4-9-11.2-13.8-20.6-15.3
			c-7.9-1.3-14.9,6.1-13.6,14c0.9,5,4.6,6.3,9,6.3c7.2,0.1,14.1,1.1,19.9,5.7c2.2,1.8,3.8,4.4,5.6,6.7c-0.4,0.3-0.8,0.7-1.1,1
			c-4.5-1.9-9-3.8-14.9-6.3c4.7,7,8.3,12.6,12.2,18c1.6,2.2,5.7,0.5,6.8-2.8c1-3.2,1.5-6.5,2.3-10c2.2,5.1,4.3,10,6.4,15
			c0.6-0.1,1.2-0.3,1.8-0.4c3.7-5.8,7.4-11.7,11.1-17.5c-0.3-0.4-0.5-0.8-0.8-1.2c-3.8,2.4-7.5,4.7-12.9,8.1c1-3.4,0.9-6.5,2.4-7.6
			c4.3-3.1,9-5.9,13.9-7.9c3.8-1.6,8.2-1.7,12.3-2.6c5.1-1.2,7.1-4.9,5.3-9.9c-2.3-6.6-8.8-10.9-15.5-8.4
			c-6.3,2.4-11.9,6.7-16.8,9.6c0.6-3.5,4.6-7.8,13.4-13.2c6.1-3.7,12-7.7,18.2-11.6c-5-4.9-14.2-6-19.6-1.1
			c-5.6,5.1-9.8,11.7-14.4,17.8c-1.1,1.5-1.6,3.5-2.5,5.5c-2.8-14.2,28.6-41.9,42.3-39.3c0,17.7,0,35.6,0,53.7
			c-6,1-11.8,1.9-17.6,2.8c0,0.3,0.1,0.7,0.1,1c5.8,0.4,11.6,0.7,17.9,1.1c0,14.1,0,28,0,42c-0.5,0.3-1,0.7-1.4,1
			c-2.5-2.8-5.2-5.6-7.6-8.5c-0.7-0.9-1.2-2.6-1-3.7c2.2-8.4,0.8-9.9-7.8-8.6c2.5-4.9,6.7-5.3,15.5-1.2c1.9-5.1,1.3-7.4-2.8-10.1
			c-7.3-4.9-20.7-2.9-25.4,3.8c-2.6,3.8-3.7,7.6-0.4,11.6c-2.2-1.8-4.4-3.2-6.6-4.1c-1.2-0.5-2.4-0.9-3.6-1.1
			c-1-0.2-1.9-0.3-2.9-0.4c0,0-0.1,0-0.1,0c-4.5-0.2-9,1.3-13.6,4.4c0,0,0-0.1,0.1-0.1c0,0,0,0,0,0c0,0,0,0.1-0.1,0.1
			c0,0-0.1,0.1-0.1,0.1c0,0,0,0,0,0c0,0,0,0,0,0c1.4-3.2,0.9-6.6-1.2-9.6c-0.2-0.3-0.4-0.5-0.6-0.8c-0.4-0.5-0.9-1-1.5-1.5
			c-0.5-0.5-1.1-0.9-1.8-1.4c-6-4.1-17.6-3.5-22.7,1.7c-1.8,1.8-2.4,4.7-4.1,8.1c5.5-1.2,9.1-1.9,11.6-2.5c0,5.1,0.3,9.3-0.1,13.4
			c-0.5,6.8-6,10.2-10.9,15.2c-0.5-2.1-1-3.2-1-4.3c0-13,0-26,0.1-39c0-1.4,0.9-2.7,1.4-4.1c0.9,1,1.8,2.1,2.8,3.1
			c1.2,1.1,2.6,1.9,3.9,2.9c0.4-0.5,0.8-1,1.1-1.4c-0.9-1.3-1.9-2.5-3.4-4.7c4.2-0.4,7.6-0.7,11.1-1c0-0.5,0-1,0.1-1.5
			c-3.7-0.2-7.4-0.6-11.1-0.6c-4.4,0-6.1-1.7-6-6.3c0.2-14.6-0.1-29.2-0.1-43.8C175.1,195.7,175.4,194.3,175.5,193.1z M209.8,236.7
			c-13.5-3.2-15.2-3.1-25.4,0.8c-0.4-4.4,1.9-6.5,5.1-7.3C197.2,228.2,203.4,231.1,209.8,236.7z M234.8,234.9c2-3.8,8.4-7,13.7-6
			c3.6,0.7,7.2,1.8,7.4,6C248.4,234.9,241.4,234.9,234.8,234.9z M176.4,391c2.6,2.9,5.2,5.8,8.7,9.7c-3.1,0.2-7.2,1.3-7.8,0.3
			c-1.6-2.9-1.8-6.5-2.5-9.9C175.4,391.1,175.9,391,176.4,391z M176.3,491.1c4.1-3.7,4.5-8.1,3.9-13c-0.4-3.7-0.8-7.4-0.9-11
			c0-1,0.9-2,1.5-3c0.9,0.4,2.2,0.7,2.5,1.4c4.5,9.5,13.2,14.3,21.3,19.8c3.2,2.2,5.8,5.3,8.7,7.9c-0.3,0.3-0.7,0.5-1,0.8
			c-16.2-15.8-24.5-15.1-37.7,2.9C175.1,494.9,175,492.2,176.3,491.1z M178.4,577c3.9-1.2,8.1-2.5,12.1-2.3
			c9.2,0.5,13.3-3.3,13-13.5c-0.2-8.5,0.1-8.8,9.5-7.9c-6.2,11.2-16.5,22.7,0.9,33.4c-5.7,7.4-6.7,17.2-14,22.1
			c-4.3-2.3-8-5.5-11.9-5.9c-3.8-0.4-7.9,2-12.6,3.4c0-2.1,0-5,0-7.8c0-3.5-0.4-7.1,0.2-10.5C176.1,584.3,171.9,579,178.4,577z
			 M193.2,614.3c-0.9,2.5-3.5,4.4-4.8,5.8c-5.5-0.7-8.1-2.8-8.1-6.7c0.1-3.7,2.9-5.5,6.4-5.8C190.3,607.5,194.3,611.2,193.2,614.3z
			 M174.9,622.4c2.8,1.2,5,2.5,7.5,3.1c7.4,1.8,13-1.6,17.2-8.9c5.7-9.6,11.9-18.9,18.2-28.8c0.6,1.1,1,1.6,1,1.9
			c-2.8,12.7-5.4,25.5-13.2,36.3c-6.9,9.5-15.9,15.5-28.8,16.6c1.6-5.4,3-10.1,4.3-14.8c-0.6-0.1-1.2-0.3-1.8-0.4
			c-0.9,2.8-1.9,5.6-3.1,9.2c-0.8-1.4-1.2-1.8-1.2-2.2C174.9,630.7,174.9,626.8,174.9,622.4z M188.1,649c-4,2-8,4-12.4,6.2
			C175.6,649.6,180.1,647.2,188.1,649z M221.7,711.5c-6.3-0.2-11.5-5.6-11.2-12.8c0.4-11.6,4.5-22.2,10.3-33.8
			c7.2,11.4,12.5,22,12.6,34.3C233.5,706.6,228.1,711.7,221.7,711.5z M256.7,682.4c-1.1,3.8-3.1,7.2-7.7,7.7
			c-4.9,0.5-8.6-1.5-10.5-6.1c-2.7-6.5-5.3-13-8.1-19.4c-1.5-3.3-3.2-6.7-5.4-9.6c-3.4-4.5-6.9-4-9,1.2c-2.5,6-4.5,12.2-6.7,18.3
			c-0.8,2.3-1.2,4.8-2.1,7.1c-2.4,6.7-6.5,9.9-11.7,9.4c-5.5-0.6-9.8-5.5-10.1-12.4c-0.5-12.2,2.6-23.8,11.2-32.6
			c12.7-13,21.3-27.8,24-45.8c0-0.3,0.4-0.5,1-1.3c1.2,4.8,2.4,9,3.4,13.2c2.8,12,8.5,22.4,17.7,30.5c10,8.7,13.9,20,14.7,32.7
			C257.6,677.5,257.4,680.1,256.7,682.4z M253.6,649.8c8.9-2.9,14.3-0.7,14.1,5.5C262.8,653.5,258.2,651.6,253.6,649.8z"/>
		<path fill="#819FA7" d="M221,615.8c-0.2,0-0.5,0-0.7,0c-0.3,3.7-0.7,7.5-1,11.2c-4.9,10.2-12.4,19.5-12.4,31.7
			c1.6-1.2,2.4-2.8,3.6-4.3c1.8-2.3,3.3-5.3,5.7-6.6c0.5-0.2,0.9-0.5,1.2-0.8c0.3-0.2,0.6-0.4,0.8-0.7c1.6-1.6,1.6-3.6,1-6
			c0-0.1-0.1-0.2-0.1-0.3c2.7,7.4,8.2,12,14.6,16.8c1.5,1.1,3,2.2,4.5,3.4c-0.3-10.1-6.4-15.8-9.6-22.8
			C225.4,630.7,223.5,623.1,221,615.8z"/>
		<path fill="#819FA7" d="M251.1,592.5c0.9,0.6,2.8-0.3,4.4-0.5c-3.2-3.5-5.5-6.1-8.2-9.1c5.6-1.1,12.7,5.8,11.1,9.6
			c-0.6,1.4-2.7,3-4.2,3.1c-2.1,0.2-4.3-1-6.5-1.5c-1.8-0.4-3.7-0.7-6.3-1.2c3.9,7.4,18.1,9.2,22.2,4c0.3-0.4,0.6-0.9,0.7-1.4
			c1.1-6.5-1.5-11.7-5.7-16.3c-3.5-3.9-8-3.9-12.6-2.3c-5.4,1.9-6.1,4.9-2.1,8.8C246.2,588.1,248.4,590.6,251.1,592.5z"/>
		<path fill="#819FA7" d="M184.3,599c4.4-0.3,8.7-2.2,12.9-3.8c1.1-0.4,1.6-2.6,3-5.2c-2.4,0.8-3.7,1.2-4.8,1.6
			c-0.1,0-0.2,0.1-0.3,0.1c0.2-0.9,0.3-1.8,0.7-2.6c0,0,0,0,0,0c0-0.1,0.1-0.2,0.2-0.3c0.1-0.1,0.2-0.2,0.2-0.3
			c4-4.2,1.9-7.1-1.7-10c-4.1-3.2-7.3-1.2-9.9,2.1c-2.3,2.9-4.4,5.9-6,9.2C176.2,594.7,178.8,599.4,184.3,599z M191.8,584.9
			c3.8,1.8-2.7,6.5,3,7h0c0,0,0.1-0.1,0.1-0.1c0,0,0.1,0.1,0.1,0.1c-0.1,0-0.1,0-0.2,0c-0.3,0.3-0.7,0.7-1,1
			c-2.7,2.2-5.9,2.6-10,1.3C186.8,590.7,189.4,587.7,191.8,584.9z"/>
		<path fill="#819FA7" d="M183.8,443.3c7.6,2.1,11-3.9,16.1-7.7C191.5,432.4,184.3,436,183.8,443.3z"/>
		<path fill="#819FA7" d="M220.4,401.5c4.9,0.1,8.8-4,8.8-9.1c0-5.1-4.1-9.6-9-9.8c-4.7-0.2-8.8,4.5-8.8,9.8
			C211.5,397.2,215.7,401.5,220.4,401.5z"/>
		<circle fill="#819FA7" cx="199" cy="156.7" r="6"/>
		<path fill="#819FA7" d="M243.7,149.1c-1.7,0-3.2,0.7-4.3,1.8c-0.7,0.6-1.3,1.4-1.4,2.4c-0.2,0.6-0.3,1.2-0.3,1.8c0,3.3,2.7,6,6,6
			c3.3,0,6-2.7,6-6C249.7,151.8,247,149.1,243.7,149.1z"/>
		
			<ellipse transform="matrix(0.9871 -0.1602 0.1602 0.9871 -57.9909 44.9278)" fill="#819FA7" cx="249.7" cy="382.2" rx="6" ry="6"/>
		
			<ellipse transform="matrix(0.9732 -0.2298 0.2298 0.9732 -82.7667 54.4134)" fill="#819FA7" cx="192.3" cy="382.6" rx="6" ry="6"/>
	</g>
</g>
<g>
	<g>
		<path fill="#A98764" d="M439.5,402.8c0-109.1,0-229.6,0-350.1c0-20.7-10.1-30.8-30.9-30.5c-18.1,0.3-36.2,0.8-54.3,1.4
			c-18.1,0.6-27.8,10.7-27.9,28.8c-0.1,18.6,0,37.3,0,55.9c0.4,222.7,0.9,445.5,1.3,668.2c0,8.1,0,8.2,8.1,8.2
			c33.1,0,66.2-0.1,99.2,0.1c5.1,0,6.4-1.4,6.4-6.5C440.7,657,440.1,535.6,439.5,402.8z M427.8,641.7c-7.7,0.6-14.6-0.3-19.4-5.5
			c-5.3-5.7-10.2-12.1-13.5-19.1c-4-8.5-6.2-17.9-9.2-26.9c-0.2-0.7-0.1-1.6,0.9-2.9c0.8,1.2,1.5,2.3,2.3,3.5
			c6.3,9.7,12.4,19.5,19,29c3.7,5.4,9.8,6.7,16.5,4.5c1.6-0.5,3.2-1.3,5.5-2.3c0,5.3,0,9.8,0,14.3c-0.3,0.1-0.5,0.2-0.8,0.3
			c-1.2-2.9-2.3-5.8-3.5-8.8c-0.3,0.1-0.5,0.2-0.8,0.2C425.7,632.3,426.7,636.6,427.8,641.7z M405,547.3c6.1,0.2,10.4,2.4,12.9,7.8
			c1-6.2,0.9-6.4-9.2-11.2c6-2.6,9.5-3.1,12.1,0.5c2.1,2.9,3.2,7.3,3,10.9c-0.3,5.3-4.1,8.9-9.3,10.2c-1.3,0.3-3.1-0.8-4.5-1.5
			c-0.7-0.4-0.9-1.5-1.5-2.1c-1.9-2-3.9-3.8-5.9-5.7c-0.4,2.8-1.3,5.7-1,8.4c0.9,9.3,1.1,9.1,10.5,9.5c5.6,0.2,11.1,1.1,17.1,1.7
			c0,10.4,0,20.3,0,31c-9.2-8-16.8-5.5-24.2,4c-5.3-8.4-10.1-16-14.8-23.5c13.1-10.2,13.1-12,0.2-35.4c8,1.6,15,3,21.9,4.4
			C412.8,553.3,412.8,553.3,405,547.3z M425.4,613.6c-0.5,3.8-3.2,5.6-7.2,5.5c-3.9-0.1-5.7-2.4-6-6c-0.3-3.5,3.5-6.8,7.4-6.7
			C423.1,606.5,425.6,609.4,425.4,613.6z M389.3,571.8c-1-5.2-2.1-10.4-3.1-15.6C389.9,560.9,392.1,565.8,389.3,571.8z M383.5,579.4
			c-2.2-3.1-6.1-6.2-6.3-9.4c-0.3-4.9,1.9-9.9,3.4-16.1C388.4,562.1,389.3,574.6,383.5,579.4z M424.5,571.2
			c-1.3-0.4-2.7-0.6-5.1-1.1c6.7-7,9.7-14.8,6.4-23.8c-0.8-2-2.9-3.6-4.3-5.3c1.9-2.6,4.1-5.8,6.4-9.1c-18.3,12.1-38,14.8-58.7,12.3
			c-6-0.7-11.7-1.5-18.2,2.4c2.4,1,3.8,1.6,5.4,2.2c-2.1,2.7-7.3,3.3-5.2,8.6c3.4-1.2,6.8-2.3,10.1-3.4c0.5,0.5,1,1.1,1.5,1.6
			c-2,2.7-3.5,6.4-6.1,7.8c-1.8,1-6.1-0.5-7.8-2.2c-2.7-2.7-5-6.4-6.1-10.1c-1.4-4.8,1-7.8,6-10.5c-2.4-5.3-4.8-10.6-7.1-15.6
			c-2.1,2.6-2,4.6,0.3,10.7c0.7,1.9,1.4,4.8,0.5,6.3c-5.3,8.8-2.5,16.5,2.6,24c1,1.5,2.1,3,3.5,5c-3.7,0.4-6.8,0.8-10.4,1.2
			c-0.3-2.1-0.7-3.9-0.7-5.8c-0.2-12.7-0.4-25.3-0.3-38c0.1-9.3,5.4-14.5,13.7-13.6c-0.9,1.3-1.6,2.4-2.5,3.4
			c-4.5,5.1-4.5,9.9,0.1,14.8c5.8,6.1,13.4,8,21.3,9.3c13.7,2.2,27.1,0.6,39.8-4.5c10.9-4.4,12.6-9.8,7.6-20.4
			c-0.6-1.4-1.2-2.8-1.9-4.3c7,0.7,13,6.1,13.3,12.3c0.5,13.9,0.6,27.8,0.9,41.7C429.8,571.2,428.1,572.3,424.5,571.2z M337.4,514.5
			c0-3.8,0-7,0-10.4C343.7,510.2,343.8,511.5,337.4,514.5z M366.6,456.4C366.6,456.4,366.6,456.4,366.6,456.4c0,0.1,0,0.1,0.1,0.2
			c0,0,0,0,0,0l0,0c0,0,0,0,0,0c0,0,0,0,0,0l0,0c0,0-0.1,0-0.1,0c-1.2,5.2-2.4,10.5-3.6,15.7c-5.1-2.4-7.9-7.1-6.6-11.1
			c0.4-1.3,1-2.3,1.7-3c0.3-0.4,0.7-0.7,1.1-0.9c0.2-0.2,0.5-0.3,0.8-0.4c1.9-0.8,4.1-0.7,6.6-0.2c0,0,0,0,0,0
			C366.5,456.5,366.5,456.4,366.6,456.4C366.6,456.4,366.6,456.4,366.6,456.4c-1.2-3.9-3.6-6.3-6.8-7.6c-0.6-0.2-1.2-0.4-1.8-0.6
			c-1-0.2-2-0.4-3.1-0.5c-6.9-0.5-8.9,5.1-11.3,10.1c-3.8-0.8-5.6-3.1-5.6-7c0-4.7-0.2-9.5,0-14.2c0.1-1.4,1.5-3.7,2.3-3.8
			c11.5-0.4,23.1-2.9,34.2,2c1.1,0.5,2,1.2,3.6,2.1C374.2,443.6,370.4,450,366.6,456.4z M351.6,306.4c4.3,4.5,8.9,8.8,13.6,12.9
			c3.9,3.5,8.5,6.3,11.8,10.2c2.2,2.5,2.8,6.4,4.2,9.7c-0.7,0.5-1.4,0.9-2,1.4c-6.9-11.3-18.6-16.3-28.7-23.4
			c-7.9-5.5-8.5-11.8-2.6-19.3c2.6-3.3,5.4-6.3,8.5-10c-0.4,6.5-0.7,12.1-1,17.5c-1-1.4-2.3-3.1-3.6-4.9c-0.5,0.1-1.1,0.3-1.6,0.4
			C350.6,302.8,350.4,305.2,351.6,306.4z M370,275.2C370,275.2,370.1,275.2,370,275.2c-3.4,7-5.2,14.2-2.6,22.6
			c1.1-1.2,1.8-2,2.8-3.2c4.2,8.5,12.3,4.4,18.4,6.4c0.5,0.2,1.3-1,2.1-1.3c2-0.8,4.1-1.5,7.6-2.8c2.4-4.8,2.1-11.4-0.2-18.1
			c8.2,9.2,9.5,20.4,2.5,29.8c-4.9,6.5-11.1,12-16.9,18.3c-5.5-4.4-10.6-8.1-15.3-12.3c-10.8-9.7-11.8-22.1-3-33.8
			C366.9,278.9,368.5,277.1,370,275.2z M382.8,280.9c1.8,0.4,4.4,2.5,4.5,4.1c0.1,1.6-2.2,4.4-3.8,4.7c-1.4,0.3-3.4-2.2-6.3-4.2
			C379.9,283.2,381.7,280.6,382.8,280.9z M411.1,291.7C411.1,291.7,411.1,291.7,411.1,291.7C411.1,291.7,411.1,291.8,411.1,291.7
			C411.1,291.8,411.1,291.8,411.1,291.7c0.3,2.1,0.6,4,1.1,6c1.3,5.9-1.4,11.5-5.7,13.6c1-5.4,2-11.5,3.2-17.5c0-0.1,0-0.2,0.1-0.3
			C410,292.9,410.6,292.4,411.1,291.7c-0.1,0-0.1-0.1-0.1-0.1L411.1,291.7L411.1,291.7c-0.7-1.3-1.4-2.6-2.1-3.9
			c0.5-0.4,0.9-0.8,1.4-1.1c3.6,3.6,7.7,6.8,10.6,10.8c4.3,6.2,3,12-3.1,16.5c-5.1,3.7-10.8,6.7-15.6,10.6c-5.8,4.7-11,10.1-17.4,15
			c0.9-2.6,1.2-5.8,3-7.7c5.1-5.2,10.7-9.9,16.1-14.7c3.1-2.8,6.9-5,9.3-8.2C417.4,303.7,416.3,297.5,411.1,291.7z M427.7,341.7
			c0,10.6,0,21.2,0,30.4c-4.3-2.6-9.8-5.1-14.2-8.8c-2.4-2-3.1-5.9-5.2-10.3C418.3,352.7,424.6,349.9,427.7,341.7z M427.7,313.9
			c0,5.4,0,9.9,0,14.6C422.1,320.9,422.1,320.9,427.7,313.9z M427.4,399.9c-2.5,1.3-6.1,0.7-9.2,0.8c-0.1-0.5-0.2-1-0.2-1.5
			c2.9-2.3,5.9-4.6,10-7.9C427.8,394.9,428.6,399.3,427.4,399.9z M386,357.4c-4.9-1.1-9.5-2.1-13.9-3.1c2.6-5.8,14.2-7.6,21.8-2.8
			C391.1,353.6,388.2,355.7,386,357.4z M398,372.3c-2,3-5.6,1.7-9.8,0c0.5-3.2,1-6.3,1.5-9.4c0.4-0.2,0.8-0.3,1.2-0.5
			C393.1,365.5,395.3,368.6,398,372.3z M374.2,361.3c3.7,0.2,6.2,1.9,5.9,5.8c-0.2,3.7-1.3,7.2-5.9,7.1c-4.5-0.1-5.3-3.8-6.2-6.9
			C368.5,363.4,370.2,361.1,374.2,361.3z M382.7,381.2c6.9,0.1,11.5,4.5,11.5,11c0,6.8-4.8,11.6-11.7,11.5
			c-6.6-0.1-12-5.4-11.8-11.7C371,385.7,376,381.1,382.7,381.2z M386.9,424.4c-1-0.2-1.8-3.9-1.9-6c0-1.4,1.3-3.6,2.5-3.9
			c8.5-2.3,13.1-8.4,16.4-16c0.6-0.3,1.2-0.5,1.8-0.8c2.1,3.2,6,6.5,6,9.7c0.1,7.4-2.7,14.9-10,17.7
			C397.4,426.7,391.7,425.3,386.9,424.4z M390.3,455.8c-5.1,0-8.8,0-13.8,0c2.7-4,4.8-7.2,7.9-11.8
			C386.8,448.8,388.4,452.1,390.3,455.8z M402,381.2c0.2-5.3,4.7-9.5,10-9.4c6,0.2,9.6,4,9.6,10.2c0,6.1-3.5,10-9,10.1
			C406.8,392,401.8,386.9,402,381.2z M398.3,340.1c7-5.6,13.4-10.6,19.7-15.7c4.5,4.4,6,10.8,3.3,15.3c-2.9,4.9-7.8,4.2-12.3,3.5
			C405.6,342.6,402.4,341.3,398.3,340.1z M346.7,325.4c6.7,5.4,12.9,10.4,19.2,15.4c0,0.6-0.1,1.2-0.1,1.7c-5,0.7-10.1,2.2-15,1.7
			c-2.5-0.2-5.6-3.4-7-6C341.5,333.9,342.9,329.5,346.7,325.4z M337.6,329.3c0-4.9,0-9.1,0-14.6c2.2,3,3.8,5.1,5.3,7.2
			C341.3,324.2,339.7,326.4,337.6,329.3z M337.8,343.3c3.7,6.9,8.7,10.3,15.9,10.1c0.9,0,2.5,2.7,2.5,4.2c0,2.2-0.4,5.3-1.8,6.3
			c-5.1,3.4-10.7,6.1-16.6,9.3C337.8,364,337.8,354.3,337.8,343.3z M354.4,372.8c5.4,0,9.6,4.6,9.6,10.4c0,5.5-3.3,8.8-8.8,8.9
			c-5.8,0.1-9.7-3.6-9.8-9.3C345.3,376.7,348.9,372.7,354.4,372.8z M348.4,407.7c0.7-0.1,1.3-0.2,2-0.3c0.8-0.1,1.7-0.3,2.5-0.4v0
			c0-0.1,0.1-0.1,0.1-0.2c0,0,0.1,0.1,0.1,0.1c0,0,0,0,0,0c2.4-2.3,4.8-4.6,7.8-7.5c0.4-0.4,0.9-0.8,1.3-1.3
			c2.6,10.2,10.4,14.5,17,20.1c4.6,3.9,3.5,9.8,4,15c-0.5,0.2-0.9,0.3-1.4,0.5c-0.7-1.9-1.5-3.8-2.5-6.3c-3.2,5.1-6.5,2.4-9.4,0
			c-6.3-5.2-13-10.3-15.3-18.9c-0.2-0.6-1-1.1-1.7-1.6c0,0,0,0,0,0c0,0,0,0,0,0c0,0-0.1-0.1-0.1-0.1s0.1,0.1,0.1,0.1c0,0,0,0,0,0
			c-0.1,0-0.1,0-0.2,0c-3.7,6.5-0.3,11.9,4,17.7c-6.6,0.5-12.3,0.9-19.1,1.3c0-5-0.2-9.6,0.1-14c0.1-1,1.7-2.4,2.9-2.7
			c1.8-0.4,3.5-0.8,5.3-1.1C346.8,407.9,347.6,407.8,348.4,407.7z M337.7,465c0.2,0,0.5,0,0.7-0.1c0,6.7,0,13.4,0,20.1
			c-0.2,0-0.5,0.1-0.7,0.1C337.7,478.4,337.7,471.7,337.7,465z M370.4,468.7c2.9-5.5,10.3-8.3,17.4-6.7c5.2,1.2,9.3,6.2,9.4,12
			c0.1,6.3-4.7,8.8-9.5,12c-1.5-4.1-2.6-7.4-3.7-10.7c-0.6,0.1-1.3,0.2-1.9,0.3c-0.3,1.8-0.3,3.6-0.9,5.3c-0.6,1.7-1.3,3.8-2.7,4.7
			c-0.8,0.5-3.2-0.9-4.4-2C368.9,479.1,367.7,473.9,370.4,468.7z M418.1,499.9c0.9,2.7,0.8,5.8,1.1,8.7c-2.9-0.3-6.6,0.3-8.4-1.2
			c-4.2-3.4-8-6.7-13.8-6.6c-8,0.1-11.6,3.1-12.3,11.2c-0.3,3.1,0,6.1,0,9.2c-0.6,0.1-1.1,0.2-1.7,0.2c-1.4-6.1-2.7-12.2-3.9-17.5
			c8.9-3.9,16.8-7.3,25.3-10.9c0,0,0.1-2.2,0.5-2.3c3.6-0.6,7.4-1.1,11-1c1.1,0.1,2.2,2.3,3.3,3.5c-1.1,0.9-2.2,1.8-3.4,2.7
			c-0.5,0.4-1.2,0.5-2.3,1C415.3,498,417.7,498.6,418.1,499.9z M407.2,522.4c-3,2.3-6,4.5-9.8,7.5c1-7.5,6.1-12.9,5-19.6
			c-0.5-0.2-1-0.4-1.5-0.5c-1.2,2.7-2.5,5.3-4.2,9c0.3-5,0.6-8.8,0.9-14.1c2.8,1,6.6,1.2,8.3,3.1c4.3,5,6.5,11.4,5.1,18.1
			c-0.9,4.5-5.2,5.5-9.7,6.4c2.5-3.2,4.6-6,6.7-8.8C407.8,523.1,407.5,522.7,407.2,522.4z M394.5,509.2c-1.3,6.6-2.9,13.1-4.5,19.6
			c-0.9-0.1-1.9-0.3-2.8-0.4c0.7-6.8,1.2-13.5,2.1-20.2c0.1-0.8,2.1-1.9,3.2-1.8C393.2,506.5,394.6,508.4,394.5,509.2z M379.9,525.3
			c0.1,0.9-0.1,1.8-0.5,2.7c-2.1-6.5-4.1-13.1-6.4-19.5c-0.3-0.9-2.6-1.1-5.3-2.1c3.7,8.7,6.8,15.9,9.9,23.1c0.5-0.2,1-0.4,1.6-0.6
			c-0.1,0.2-0.2,0.5-0.3,0.7c-0.1,0.2-0.2,0.5-0.3,0.7c-0.1,0.2-0.2,0.5-0.2,0.7c-0.4-0.2-0.9-0.4-1.3-0.5c-0.2-0.1-0.5-0.2-0.7-0.2
			c-0.5-0.2-0.9-0.3-1.3-0.5c-0.6-0.3-1.2-0.6-1.5-1.1c-2.6-4.1-4.7-8.5-6.9-12.9c-0.7-1.5-0.9-3.3-1.4-5.2
			c-2.2,2.9-2.2,2.9-0.4,14.1c-1.5-3.2-2.8-6.4-4.4-9.5c-0.6-1.1-1.7-2.1-2.5-3c0,0,0,0,0,0c0,0,0,0,0,0c0,0,0,0,0,0
			c0,0-0.1,0.1-0.1,0.1c0,0,0,0,0,0c0.4,8.7,6.1,14.3,11.9,20.1c-5.9,0.8-13-2.1-14.9-6.4c-0.3-0.7-0.5-1.3-0.7-1.9
			c-1.2-4.4,0.3-8.4,3.8-11.8c0-0.1,0-0.2,0-0.3c0,0,0.1,0.1,0.1,0.1c2.3-2,4.4-4.9,7.1-5.8c8.1-2.8,11.9-1.6,12.5,6.7
			C377.9,517.1,379.5,521.1,379.9,525.3z M353.4,508.6c-1.2,1.1-4,0.4-6,0.5c0.6-2.8,0.7-5.9,2-8.4c0.8-1.4,3.5-1.8,6.8-3.2
			c-4.2-1.1-6.8-1.7-9.5-2.4c4-10,18.3-7.1,28.5,5.8C366,499.3,359.4,503.1,353.4,508.6z M428.9,515.5c-2.4-2.1-4.3-3.8-6.3-5.6
			c6.8-7.5,7.4-12.5,1.7-20.9c-6.8-10-15.7-6.4-24.9-2.6c8.2-7.9,15.9-15.3,24.7-23.7c0,4.6,0.2,8.4,0,12
			c-0.3,5.5-0.8,10.9,3.8,15.3c0.7,0.7,1,2.2,1,3.4C428.9,500.5,428.9,507.5,428.9,515.5z M427.6,484.2c0-7.6,0-15.1,0-22.7
			c0.4,0,0.7,0.1,1.1,0.1c0,7.5,0,15,0,22.5C428.3,484.2,427.9,484.2,427.6,484.2z M428.6,447.9c-0.3,2.6-1.8,5.1-2.4,6.8
			c-5.6-3.2-9.6-6.4-14.1-7.8c-2.1-0.6-5.5,2-7.8,3.7c-0.6,0.5-0.4,3.8,0.5,4.4c7.8,5.7,7.7,11.2,0.2,16.7
			c-4.5-10.9-9-21.9-13.7-33.2c0.6-0.4,2.2-1.1,3.5-2.2c3.6-3,6.5-2.5,10,0.7c6.1,5.7,11.6,5.7,16.3,0.6c-2.3-0.8-4.3-1.5-7.3-2.6
			c2.4-1.9,4.2-3.7,6.4-4.8c5.2-2.7,8.5-0.7,8.6,5.1C428.8,439.5,429.1,443.7,428.6,447.9z M428.6,423.8c-9.1-2.9-15.1,2.3-21.8,6.9
			c5.3-7.2,10.1-14.2,8.4-23.9c3.9,0.4,7.3,0.6,10.7,1.3c1.1,0.2,2.5,1.9,2.6,3C428.8,415,428.6,418.8,428.6,423.8z M428.4,178.1
			c0,0.9-1.6,2.2-2.6,2.5c-2.6,0.8-5.4,1.1-8.6,1.7c3.6-8.2,7.2-16.3,11.4-25.7C428.5,164.6,428.6,171.3,428.4,178.1z M383.4,152.2
			c11.3,11.5,11.4,33.1,0.5,54C371.9,193,371.6,168.4,383.4,152.2z M376.2,207.4c-7.1-9.9-18-17.3-20.1-30.5
			C365.6,185.2,372.3,195.3,376.2,207.4z M409.7,175.8c-1.4,13.4-10.4,22.1-19.1,31C393.5,194.4,401.1,184.8,409.7,175.8z
			 M399,174.1c-1.1-15.6-4.9-29.7-16.2-41.1c-10.2,11.7-13.6,25.5-15.3,40.6c-6.8-4.8-13.1-8.9-19-13.4c-3.3-2.5-4.4-9.4-2.5-13.1
			c0.4-0.8,1.9-1.6,2.8-1.5c16.1,2.3,25.1-7.2,32.7-19.2c0.4-0.6,0.7-1.2,1-1.8c0.1-0.1,0.3-0.2,0.8-0.7
			c7.8,14.6,18.1,23.8,35.6,19.2c3.7,8,2.9,13.1-3.2,18.1C410.6,165.4,405.2,169.3,399,174.1z M415.1,110.4
			c6.7,1.3,8.6,7.7,4.9,13.4c-1.5,2.3-2.8,5.3-2.8,8c0,4.1-1.9,4.7-5.2,4.8c-10.9,0.3-20-6.6-24.9-19.2c6.1-2.3,11.8-4.7,17.6-6.4
			C408,110.1,411.8,109.8,415.1,110.4z M382.4,53.3c5.5,0,10,4.5,10.1,10.1c0.1,6.2-4.8,11.6-10.6,11.6c-5.6,0-10-4.8-10-10.7
			C371.9,58.2,376.6,53.3,382.4,53.3z M350.5,112.2c3.9-0.9,8.3-0.3,12.3,0.3c2.7,0.4,5.2,1.9,7.9,2.7c2.6,0.8,5.4,1.4,8.4,2.2
			c-3.3,11-14.2,20.1-24.5,20.8c-3.3,0.2-5.1-0.3-5.1-4.4c0-2.8-1.6-5.9-3.3-8.4C342.5,119.7,343.9,113.8,350.5,112.2z M337.7,159.4
			c3.6,7.5,7.3,15.3,11.1,23.2c-3.6-0.4-7.1-0.8-11.1-1.2C337.7,173.9,337.7,166.5,337.7,159.4z M338,193.1
			c16.6-2.8,42.4,19.9,43.8,38.9c-2.5-4.9-4-9.6-6.9-13.2c-3.7-4.5-8-8.9-12.9-12c-5.7-3.7-11.8-1.9-18,2.2c2.2,1.7,3.8,3.2,5.6,4.3
			c5.4,3.3,10.9,6.4,16.3,9.7c7.7,4.6,12.3,11.2,13.2,20.4c-0.6-1.5-1.3-2.9-1.9-4.4c-4-9-11.2-13.8-20.6-15.3
			c-7.9-1.3-14.9,6.1-13.6,14c0.9,5,4.6,6.3,9,6.3c7.2,0.1,14.1,1.1,19.9,5.7c2.2,1.8,3.8,4.4,5.6,6.7c-0.4,0.3-0.8,0.7-1.1,1
			c-4.5-1.9-9-3.8-14.9-6.3c4.7,7,8.3,12.6,12.2,18c1.6,2.2,5.7,0.5,6.8-2.8c1-3.2,1.5-6.5,2.3-10c2.2,5.1,4.3,10,6.4,15
			c0.6-0.1,1.2-0.3,1.8-0.4c3.7-5.8,7.4-11.7,11.1-17.5c-0.3-0.4-0.5-0.8-0.8-1.2c-3.8,2.4-7.5,4.7-12.9,8.1c1-3.4,0.9-6.5,2.4-7.6
			c4.3-3.1,9-5.9,13.9-7.9c3.8-1.6,8.2-1.7,12.3-2.6c5.1-1.2,7.1-4.9,5.3-9.9c-2.3-6.6-8.8-10.9-15.5-8.4
			c-6.3,2.4-11.9,6.7-16.8,9.6c0.6-3.5,4.6-7.8,13.4-13.2c6.1-3.7,12-7.7,18.2-11.6c-5-4.9-14.2-6-19.6-1.1
			c-5.6,5.1-9.8,11.7-14.4,17.8c-1.1,1.5-1.6,3.5-2.5,5.5c-2.8-14.2,28.6-41.9,42.3-39.3c0,17.7,0,35.6,0,53.7
			c-6,1-11.8,1.9-17.6,2.8c0,0.3,0.1,0.7,0.1,1c5.8,0.4,11.6,0.7,17.9,1.1c0,14.1,0,28,0,42c-0.5,0.3-1,0.7-1.4,1
			c-2.5-2.8-5.2-5.6-7.6-8.5c-0.7-0.9-1.2-2.6-1-3.7c2.2-8.4,0.8-9.9-7.8-8.6c2.5-4.9,6.7-5.3,15.5-1.2c1.9-5.1,1.3-7.4-2.8-10.1
			c-7.3-4.9-20.7-2.9-25.4,3.8c-2.6,3.8-3.7,7.6-0.4,11.6c-2.2-1.8-4.4-3.2-6.6-4.1c-1.2-0.5-2.4-0.9-3.6-1.1
			c-1-0.2-1.9-0.3-2.9-0.4c0,0-0.1,0-0.1,0c-4.5-0.2-9,1.3-13.6,4.4c0,0,0-0.1,0.1-0.1c0,0,0,0,0,0c0,0,0,0.1-0.1,0.1
			c0,0-0.1,0.1-0.1,0.1c0,0,0,0,0,0c0,0,0,0,0,0c1.4-3.2,0.9-6.6-1.2-9.6c-0.2-0.3-0.4-0.5-0.6-0.8c-0.4-0.5-0.9-1-1.5-1.5
			c-0.5-0.5-1.1-0.9-1.8-1.4c-6-4.1-17.6-3.5-22.7,1.7c-1.8,1.8-2.4,4.7-4.1,8.1c5.5-1.2,9.1-1.9,11.6-2.5c0,5.1,0.3,9.3-0.1,13.4
			c-0.5,6.8-6,10.2-10.9,15.2c-0.5-2.1-1-3.2-1-4.3c0-13,0-26,0.1-39c0-1.4,0.9-2.7,1.4-4.1c0.9,1,1.8,2.1,2.8,3.1
			c1.2,1.1,2.6,1.9,3.9,2.9c0.4-0.5,0.8-1,1.1-1.4c-0.9-1.3-1.9-2.5-3.4-4.7c4.2-0.4,7.6-0.7,11.1-1c0-0.5,0-1,0.1-1.5
			c-3.7-0.2-7.4-0.6-11.1-0.6c-4.4,0-6.1-1.7-6-6.3c0.2-14.6-0.1-29.2-0.1-43.8C337.6,195.7,337.8,194.3,338,193.1z M372.2,236.7
			c-13.5-3.2-15.2-3.1-25.4,0.8c-0.4-4.4,1.9-6.5,5.1-7.3C359.6,228.2,365.9,231.1,372.2,236.7z M397.3,234.9c2-3.8,8.4-7,13.7-6
			c3.6,0.7,7.2,1.8,7.4,6C410.8,234.9,403.8,234.9,397.3,234.9z M338.8,391c2.6,2.9,5.2,5.8,8.7,9.7c-3.1,0.2-7.2,1.3-7.8,0.3
			c-1.6-2.9-1.8-6.5-2.5-9.9C337.8,391.1,338.3,391,338.8,391z M338.7,491.1c4.1-3.7,4.5-8.1,3.9-13c-0.4-3.7-0.8-7.4-0.9-11
			c0-1,0.9-2,1.5-3c0.9,0.4,2.2,0.7,2.5,1.4c4.5,9.5,13.2,14.3,21.3,19.8c3.2,2.2,5.8,5.3,8.7,7.9c-0.3,0.3-0.7,0.5-1,0.8
			c-16.2-15.8-24.5-15.1-37.7,2.9C337.5,494.9,337.4,492.2,338.7,491.1z M340.9,577c3.9-1.2,8.1-2.5,12.1-2.3
			c9.2,0.5,13.3-3.3,13-13.5c-0.2-8.5,0.1-8.8,9.5-7.9c-6.2,11.2-16.5,22.7,0.9,33.4c-5.7,7.4-6.7,17.2-14,22.1
			c-4.3-2.3-8-5.5-11.9-5.9c-3.8-0.4-7.9,2-12.6,3.4c0-2.1,0-5,0-7.8c0-3.5-0.4-7.1,0.2-10.5C338.6,584.3,334.4,579,340.9,577z
			 M355.7,614.3c-0.9,2.5-3.5,4.4-4.8,5.8c-5.5-0.7-8.1-2.8-8.1-6.7c0.1-3.7,2.9-5.5,6.4-5.8C352.7,607.5,356.7,611.2,355.7,614.3z
			 M337.4,622.4c2.8,1.2,5,2.5,7.5,3.1c7.4,1.8,13-1.6,17.2-8.9c5.7-9.6,11.9-18.9,18.2-28.8c0.6,1.1,1,1.6,1,1.9
			c-2.8,12.7-5.4,25.5-13.2,36.3c-6.9,9.5-15.9,15.5-28.8,16.6c1.6-5.4,3-10.1,4.3-14.8c-0.6-0.1-1.2-0.3-1.8-0.4
			c-0.9,2.8-1.9,5.6-3.1,9.2c-0.8-1.4-1.2-1.8-1.2-2.2C337.3,630.7,337.4,626.8,337.4,622.4z M350.5,649c-4,2-8,4-12.4,6.2
			C338,649.6,342.5,647.2,350.5,649z M384.1,711.5c-6.3-0.2-11.5-5.6-11.2-12.8c0.4-11.6,4.5-22.2,10.3-33.8
			c7.2,11.4,12.5,22,12.6,34.3C395.9,706.6,390.5,711.7,384.1,711.5z M419.2,682.4c-1.1,3.8-3.1,7.2-7.7,7.7
			c-4.9,0.5-8.6-1.5-10.5-6.1c-2.7-6.5-5.3-13-8.1-19.4c-1.5-3.3-3.2-6.7-5.4-9.6c-3.4-4.5-6.9-4-9,1.2c-2.5,6-4.5,12.2-6.7,18.3
			c-0.8,2.3-1.2,4.8-2.1,7.1c-2.4,6.7-6.5,9.9-11.7,9.4c-5.5-0.6-9.8-5.5-10.1-12.4c-0.5-12.2,2.6-23.8,11.2-32.6
			c12.7-13,21.3-27.8,24-45.8c0-0.3,0.4-0.5,1-1.3c1.2,4.8,2.4,9,3.4,13.2c2.8,12,8.5,22.4,17.7,30.5c10,8.7,13.9,20,14.7,32.7
			C420,677.5,419.8,680.1,419.2,682.4z M416,649.8c8.9-2.9,14.3-0.7,14.1,5.5C425.2,653.5,420.6,651.6,416,649.8z"/>
		<path fill="#A98764" d="M383.4,615.8c-0.2,0-0.5,0-0.7,0c-0.3,3.7-0.7,7.5-1,11.2c-4.9,10.2-12.4,19.5-12.4,31.7
			c1.6-1.2,2.4-2.8,3.6-4.3c1.8-2.3,3.3-5.3,5.7-6.6c0.5-0.2,0.9-0.5,1.2-0.8c0.3-0.2,0.6-0.4,0.8-0.7c1.6-1.6,1.6-3.6,1-6
			c0-0.1-0.1-0.2-0.1-0.3c2.7,7.4,8.2,12,14.6,16.8c1.5,1.1,3,2.2,4.5,3.4c-0.3-10.1-6.4-15.8-9.6-22.8
			C387.8,630.7,385.9,623.1,383.4,615.8z"/>
		<path fill="#A98764" d="M413.5,592.5c0.9,0.6,2.8-0.3,4.4-0.5c-3.2-3.5-5.5-6.1-8.2-9.1c5.6-1.1,12.7,5.8,11.1,9.6
			c-0.6,1.4-2.7,3-4.2,3.1c-2.1,0.2-4.3-1-6.5-1.5c-1.8-0.4-3.7-0.7-6.3-1.2c3.9,7.4,18.1,9.2,22.2,4c0.3-0.4,0.6-0.9,0.7-1.4
			c1.1-6.5-1.5-11.7-5.7-16.3c-3.5-3.9-8-3.9-12.6-2.3c-5.4,1.9-6.1,4.9-2.1,8.8C408.6,588.1,410.9,590.6,413.5,592.5z"/>
		<path fill="#A98764" d="M346.8,599c4.4-0.3,8.7-2.2,12.9-3.8c1.1-0.4,1.6-2.6,3-5.2c-2.4,0.8-3.7,1.2-4.8,1.6
			c-0.1,0-0.2,0.1-0.3,0.1c0.2-0.9,0.3-1.8,0.7-2.6c0,0,0,0,0,0c0-0.1,0.1-0.2,0.2-0.3c0.1-0.1,0.2-0.2,0.2-0.3
			c4-4.2,1.9-7.1-1.7-10c-4.1-3.2-7.3-1.2-9.9,2.1c-2.3,2.9-4.4,5.9-6,9.2C338.6,594.7,341.3,599.4,346.8,599z M354.3,584.9
			c3.8,1.8-2.7,6.5,3,7h0c0,0,0.1-0.1,0.1-0.1c0,0,0.1,0.1,0.1,0.1c-0.1,0-0.1,0-0.2,0c-0.3,0.3-0.7,0.7-1,1
			c-2.7,2.2-5.9,2.6-10,1.3C349.2,590.7,351.9,587.7,354.3,584.9z"/>
		<path fill="#A98764" d="M346.3,443.3c7.6,2.1,11-3.9,16.1-7.7C353.9,432.4,346.7,436,346.3,443.3z"/>
		<path fill="#A98764" d="M382.8,401.5c4.9,0.1,8.8-4,8.8-9.1c0-5.1-4.1-9.6-9-9.8c-4.7-0.2-8.8,4.5-8.8,9.8
			C373.9,397.2,378.1,401.5,382.8,401.5z"/>
		<circle fill="#A98764" cx="361.4" cy="156.7" r="6"/>
		<path fill="#A98764" d="M406.1,149.1c-1.7,0-3.2,0.7-4.3,1.8c-0.7,0.6-1.3,1.4-1.4,2.4c-0.2,0.6-0.3,1.2-0.3,1.8c0,3.3,2.7,6,6,6
			c3.3,0,6-2.7,6-6C412.1,151.8,409.4,149.1,406.1,149.1z"/>
		
			<ellipse transform="matrix(0.9871 -0.1602 0.1602 0.9871 -55.8934 70.9474)" fill="#A98764" cx="412.1" cy="382.2" rx="6" ry="6"/>
		
			<ellipse transform="matrix(0.9732 -0.2298 0.2298 0.9732 -78.4214 91.7336)" fill="#A98764" cx="354.7" cy="382.6" rx="6" ry="6"/>
	</g>
</g>
<g>
	<g>
		<path fill="#AB896B" d="M601.3,402.8c0-109.1,0-229.6,0-350.1c0-20.7-10.1-30.8-30.9-30.5c-18.1,0.3-36.2,0.8-54.3,1.4
			c-18.1,0.6-27.8,10.7-27.9,28.8c-0.1,18.6,0,37.3,0,55.9c0.4,222.7,0.9,445.5,1.3,668.2c0,8.1,0,8.2,8.1,8.2
			c33.1,0,66.2-0.1,99.2,0.1c5.1,0,6.4-1.4,6.4-6.5C602.6,657,602,535.6,601.3,402.8z M589.7,641.7c-7.7,0.6-14.6-0.3-19.4-5.5
			c-5.3-5.7-10.2-12.1-13.5-19.1c-4-8.5-6.2-17.9-9.2-26.9c-0.2-0.7-0.1-1.6,0.9-2.9c0.8,1.2,1.5,2.3,2.3,3.5
			c6.3,9.7,12.4,19.5,19,29c3.7,5.4,9.8,6.7,16.5,4.5c1.6-0.5,3.2-1.3,5.5-2.3c0,5.3,0,9.8,0,14.3c-0.3,0.1-0.5,0.2-0.8,0.3
			c-1.2-2.9-2.3-5.8-3.5-8.8c-0.3,0.1-0.5,0.2-0.8,0.2C587.6,632.3,588.6,636.6,589.7,641.7z M566.9,547.3
			c6.1,0.2,10.4,2.4,12.9,7.8c1-6.2,0.9-6.4-9.2-11.2c6-2.6,9.5-3.1,12.1,0.5c2.1,2.9,3.2,7.3,3,10.9c-0.3,5.3-4.1,8.9-9.3,10.2
			c-1.3,0.3-3.1-0.8-4.5-1.5c-0.7-0.4-0.9-1.5-1.5-2.1c-1.9-2-3.9-3.8-5.9-5.7c-0.4,2.8-1.3,5.7-1,8.4c0.9,9.3,1.1,9.1,10.5,9.5
			c5.6,0.2,11.1,1.1,17.1,1.7c0,10.4,0,20.3,0,31c-9.2-8-16.8-5.5-24.2,4c-5.3-8.4-10.1-16-14.8-23.5c13.1-10.2,13.1-12,0.2-35.4
			c8,1.6,15,3,21.9,4.4C574.7,553.3,574.7,553.3,566.9,547.3z M587.3,613.6c-0.5,3.8-3.2,5.6-7.2,5.5c-3.9-0.1-5.7-2.4-6-6
			c-0.3-3.5,3.5-6.8,7.4-6.7C584.9,606.5,587.4,609.4,587.3,613.6z M551.1,571.8c-1-5.2-2.1-10.4-3.1-15.6
			C551.8,560.9,553.9,565.8,551.1,571.8z M545.3,579.4c-2.2-3.1-6.1-6.2-6.3-9.4c-0.3-4.9,1.9-9.9,3.4-16.1
			C550.2,562.1,551.2,574.6,545.3,579.4z M586.4,571.2c-1.3-0.4-2.7-0.6-5.1-1.1c6.7-7,9.7-14.8,6.4-23.8c-0.8-2-2.9-3.6-4.3-5.3
			c1.9-2.6,4.1-5.8,6.4-9.1c-18.3,12.1-38,14.8-58.7,12.3c-6-0.7-11.7-1.5-18.2,2.4c2.4,1,3.8,1.6,5.4,2.2c-2.1,2.7-7.3,3.3-5.2,8.6
			c3.4-1.2,6.8-2.3,10.1-3.4c0.5,0.5,1,1.1,1.5,1.6c-2,2.7-3.5,6.4-6.1,7.8c-1.8,1-6.1-0.5-7.8-2.2c-2.7-2.7-5-6.4-6.1-10.1
			c-1.4-4.8,1-7.8,6-10.5c-2.4-5.3-4.8-10.6-7.1-15.6c-2.1,2.6-2,4.6,0.3,10.7c0.7,1.9,1.4,4.8,0.5,6.3c-5.3,8.8-2.5,16.5,2.6,24
			c1,1.5,2.1,3,3.5,5c-3.7,0.4-6.8,0.8-10.4,1.2c-0.3-2.1-0.7-3.9-0.7-5.8c-0.2-12.7-0.4-25.3-0.3-38c0.1-9.3,5.4-14.5,13.7-13.6
			c-0.9,1.3-1.6,2.4-2.5,3.4c-4.5,5.1-4.5,9.9,0.1,14.8c5.8,6.1,13.4,8,21.3,9.3c13.7,2.2,27.1,0.6,39.8-4.5
			c10.9-4.4,12.6-9.8,7.6-20.4c-0.6-1.4-1.2-2.8-1.9-4.3c7,0.7,13,6.1,13.3,12.3c0.5,13.9,0.6,27.8,0.9,41.7
			C591.7,571.2,589.9,572.3,586.4,571.2z M499.2,514.5c0-3.8,0-7,0-10.4C505.6,510.2,505.7,511.5,499.2,514.5z M528.5,456.4
			C528.5,456.4,528.5,456.4,528.5,456.4c0,0.1,0,0.1,0.1,0.2c0,0,0,0,0,0l0,0c0,0,0,0,0,0c0,0,0,0,0,0l0,0c0,0-0.1,0-0.1,0
			c-1.2,5.2-2.4,10.5-3.6,15.7c-5.1-2.4-7.9-7.1-6.6-11.1c0.4-1.3,1-2.3,1.7-3c0.3-0.4,0.7-0.7,1.1-0.9c0.2-0.2,0.5-0.3,0.8-0.4
			c1.9-0.8,4.1-0.7,6.6-0.2c0,0,0,0,0,0C528.4,456.5,528.4,456.4,528.5,456.4C528.4,456.4,528.4,456.4,528.5,456.4
			c-1.2-3.9-3.6-6.3-6.8-7.6c-0.6-0.2-1.2-0.4-1.8-0.6c-1-0.2-2-0.4-3.1-0.5c-6.9-0.5-8.9,5.1-11.3,10.1c-3.8-0.8-5.6-3.1-5.6-7
			c0-4.7-0.2-9.5,0-14.2c0.1-1.4,1.5-3.7,2.3-3.8c11.5-0.4,23.1-2.9,34.2,2c1.1,0.5,2,1.2,3.6,2.1
			C536.1,443.6,532.3,450,528.5,456.4z M513.4,306.4c4.3,4.5,8.9,8.8,13.6,12.9c3.9,3.5,8.5,6.3,11.8,10.2c2.2,2.5,2.8,6.4,4.2,9.7
			c-0.7,0.5-1.4,0.9-2,1.4c-6.9-11.3-18.6-16.3-28.7-23.4c-7.9-5.5-8.5-11.8-2.6-19.3c2.6-3.3,5.4-6.3,8.5-10
			c-0.4,6.5-0.7,12.1-1,17.5c-1-1.4-2.3-3.1-3.6-4.9c-0.5,0.1-1.1,0.3-1.6,0.4C512.5,302.8,512.3,305.2,513.4,306.4z M531.9,275.2
			C531.9,275.2,531.9,275.2,531.9,275.2c-3.4,7-5.2,14.2-2.6,22.6c1.1-1.2,1.8-2,2.8-3.2c4.2,8.5,12.3,4.4,18.4,6.4
			c0.5,0.2,1.3-1,2.1-1.3c2-0.8,4.1-1.5,7.6-2.8c2.4-4.8,2.1-11.4-0.2-18.1c8.2,9.2,9.5,20.4,2.5,29.8c-4.9,6.5-11.1,12-16.9,18.3
			c-5.5-4.4-10.6-8.1-15.3-12.3c-10.8-9.7-11.8-22.1-3-33.8C528.8,278.9,530.4,277.1,531.9,275.2z M544.7,280.9
			c1.8,0.4,4.4,2.5,4.5,4.1c0.1,1.6-2.2,4.4-3.8,4.7c-1.4,0.3-3.4-2.2-6.3-4.2C541.8,283.2,543.5,280.6,544.7,280.9z M573,291.7
			C573,291.7,573,291.7,573,291.7C573,291.7,573,291.8,573,291.7C572.9,291.8,572.9,291.8,573,291.7c0.3,2.1,0.6,4,1.1,6
			c1.3,5.9-1.4,11.5-5.7,13.6c1-5.4,2-11.5,3.2-17.5c0-0.1,0-0.2,0.1-0.3C571.9,292.9,572.5,292.4,573,291.7c-0.1,0-0.1-0.1-0.1-0.1
			L573,291.7L573,291.7c-0.7-1.3-1.4-2.6-2.1-3.9c0.5-0.4,0.9-0.8,1.4-1.1c3.6,3.6,7.7,6.8,10.6,10.8c4.3,6.2,3,12-3.1,16.5
			c-5.1,3.7-10.8,6.7-15.6,10.6c-5.8,4.7-11,10.1-17.4,15c0.9-2.6,1.2-5.8,3-7.7c5.1-5.2,10.7-9.9,16.1-14.7c3.1-2.8,6.9-5,9.3-8.2
			C579.2,303.7,578.1,297.5,573,291.7z M589.6,341.7c0,10.6,0,21.2,0,30.4c-4.3-2.6-9.8-5.1-14.2-8.8c-2.4-2-3.1-5.9-5.2-10.3
			C580.1,352.7,586.4,349.9,589.6,341.7z M589.5,313.9c0,5.4,0,9.9,0,14.6C584,320.9,584,320.9,589.5,313.9z M589.3,399.9
			c-2.5,1.3-6.1,0.7-9.2,0.8c-0.1-0.5-0.2-1-0.2-1.5c2.9-2.3,5.9-4.6,10-7.9C589.7,394.9,590.5,399.3,589.3,399.9z M547.9,357.4
			c-4.9-1.1-9.5-2.1-13.9-3.1c2.6-5.8,14.2-7.6,21.8-2.8C553,353.6,550.1,355.7,547.9,357.4z M559.9,372.3c-2,3-5.6,1.7-9.8,0
			c0.5-3.2,1-6.3,1.5-9.4c0.4-0.2,0.8-0.3,1.2-0.5C555,365.5,557.2,368.6,559.9,372.3z M536.1,361.3c3.7,0.2,6.2,1.9,5.9,5.8
			c-0.2,3.7-1.3,7.2-5.9,7.1c-4.5-0.1-5.3-3.8-6.2-6.9C530.4,363.4,532.1,361.1,536.1,361.3z M544.6,381.2c6.9,0.1,11.5,4.5,11.5,11
			c0,6.8-4.8,11.6-11.7,11.5c-6.6-0.1-12-5.4-11.8-11.7C532.8,385.7,537.9,381.1,544.6,381.2z M548.7,424.4c-1-0.2-1.8-3.9-1.9-6
			c0-1.4,1.3-3.6,2.5-3.9c8.5-2.3,13.1-8.4,16.4-16c0.6-0.3,1.2-0.5,1.8-0.8c2.1,3.2,6,6.5,6,9.7c0.1,7.4-2.7,14.9-10,17.7
			C559.3,426.7,553.6,425.3,548.7,424.4z M552.2,455.8c-5.1,0-8.8,0-13.8,0c2.7-4,4.8-7.2,7.9-11.8
			C548.7,448.8,550.3,452.1,552.2,455.8z M563.8,381.2c0.2-5.3,4.7-9.5,10-9.4c6,0.2,9.6,4,9.6,10.2c0,6.1-3.5,10-9,10.1
			C568.6,392,563.6,386.9,563.8,381.2z M560.1,340.1c7-5.6,13.4-10.6,19.7-15.7c4.5,4.4,6,10.8,3.3,15.3c-2.9,4.9-7.8,4.2-12.3,3.5
			C567.5,342.6,564.2,341.3,560.1,340.1z M508.6,325.4c6.7,5.4,12.9,10.4,19.2,15.4c0,0.6-0.1,1.2-0.1,1.7c-5,0.7-10.1,2.2-15,1.7
			c-2.5-0.2-5.6-3.4-7-6C503.4,333.9,504.8,329.5,508.6,325.4z M499.5,329.3c0-4.9,0-9.1,0-14.6c2.2,3,3.8,5.1,5.3,7.2
			C503.1,324.2,501.5,326.4,499.5,329.3z M499.7,343.3c3.7,6.9,8.7,10.3,15.9,10.1c0.9,0,2.5,2.7,2.5,4.2c0,2.2-0.4,5.3-1.8,6.3
			c-5.1,3.4-10.7,6.1-16.6,9.3C499.7,364,499.7,354.3,499.7,343.3z M516.3,372.8c5.4,0,9.6,4.6,9.6,10.4c0,5.5-3.3,8.8-8.8,8.9
			c-5.8,0.1-9.7-3.6-9.8-9.3C507.2,376.7,510.8,372.7,516.3,372.8z M510.3,407.7c0.7-0.1,1.3-0.2,2-0.3c0.8-0.1,1.7-0.3,2.5-0.4v0
			c0-0.1,0.1-0.1,0.1-0.2c0,0,0.1,0.1,0.1,0.1c0,0,0,0,0,0c2.4-2.3,4.8-4.6,7.8-7.5c0.4-0.4,0.9-0.8,1.3-1.3
			c2.6,10.2,10.4,14.5,17,20.1c4.6,3.9,3.5,9.8,4,15c-0.5,0.2-0.9,0.3-1.4,0.5c-0.7-1.9-1.5-3.8-2.5-6.3c-3.2,5.1-6.5,2.4-9.4,0
			c-6.3-5.2-13-10.3-15.3-18.9c-0.2-0.6-1-1.1-1.7-1.6c0,0,0,0,0,0c0,0,0,0,0,0c0,0-0.1-0.1-0.1-0.1s0.1,0.1,0.1,0.1c0,0,0,0,0,0
			c-0.1,0-0.1,0-0.2,0c-3.7,6.5-0.3,11.9,4,17.7c-6.6,0.5-12.3,0.9-19.1,1.3c0-5-0.2-9.6,0.1-14c0.1-1,1.7-2.4,2.9-2.7
			c1.8-0.4,3.5-0.8,5.3-1.1C508.7,407.9,509.5,407.8,510.3,407.7z M499.6,465c0.2,0,0.5,0,0.7-0.1c0,6.7,0,13.4,0,20.1
			c-0.2,0-0.5,0.1-0.7,0.1C499.6,478.4,499.6,471.7,499.6,465z M532.3,468.7c2.9-5.5,10.3-8.3,17.4-6.7c5.2,1.2,9.3,6.2,9.4,12
			c0.1,6.3-4.7,8.8-9.5,12c-1.5-4.1-2.6-7.4-3.7-10.7c-0.6,0.1-1.3,0.2-1.9,0.3c-0.3,1.8-0.3,3.6-0.9,5.3c-0.6,1.7-1.3,3.8-2.7,4.7
			c-0.8,0.5-3.2-0.9-4.4-2C530.8,479.1,529.6,473.9,532.3,468.7z M579.9,499.9c0.9,2.7,0.8,5.8,1.1,8.7c-2.9-0.3-6.6,0.3-8.4-1.2
			c-4.2-3.4-8-6.7-13.8-6.6c-8,0.1-11.6,3.1-12.3,11.2c-0.3,3.1,0,6.1,0,9.2c-0.6,0.1-1.1,0.2-1.7,0.2c-1.4-6.1-2.7-12.2-3.9-17.5
			c8.9-3.9,16.8-7.3,25.3-10.9c0,0,0.1-2.2,0.5-2.3c3.6-0.6,7.4-1.1,11-1c1.1,0.1,2.2,2.3,3.3,3.5c-1.1,0.9-2.2,1.8-3.4,2.7
			c-0.5,0.4-1.2,0.5-2.3,1C577.2,498,579.5,498.6,579.9,499.9z M569.1,522.4c-3,2.3-6,4.5-9.8,7.5c1-7.5,6.1-12.9,5-19.6
			c-0.5-0.2-1-0.4-1.5-0.5c-1.2,2.7-2.5,5.3-4.2,9c0.3-5,0.6-8.8,0.9-14.1c2.8,1,6.6,1.2,8.3,3.1c4.3,5,6.5,11.4,5.1,18.1
			c-0.9,4.5-5.2,5.5-9.7,6.4c2.5-3.2,4.6-6,6.7-8.8C569.7,523.1,569.4,522.7,569.1,522.4z M556.4,509.2c-1.3,6.6-2.9,13.1-4.5,19.6
			c-0.9-0.1-1.9-0.3-2.8-0.4c0.7-6.8,1.2-13.5,2.1-20.2c0.1-0.8,2.1-1.9,3.2-1.8C555.1,506.5,556.5,508.4,556.4,509.2z M541.8,525.3
			c0.1,0.9-0.1,1.8-0.5,2.7c-2.1-6.5-4.1-13.1-6.4-19.5c-0.3-0.9-2.6-1.1-5.3-2.1c3.7,8.7,6.8,15.9,9.9,23.1c0.5-0.2,1-0.4,1.6-0.6
			c-0.1,0.2-0.2,0.5-0.3,0.7c-0.1,0.2-0.2,0.5-0.3,0.7c-0.1,0.2-0.2,0.5-0.2,0.7c-0.4-0.2-0.9-0.4-1.3-0.5c-0.2-0.1-0.5-0.2-0.7-0.2
			c-0.5-0.2-0.9-0.3-1.3-0.5c-0.6-0.3-1.2-0.6-1.5-1.1c-2.6-4.1-4.7-8.5-6.9-12.9c-0.7-1.5-0.9-3.3-1.4-5.2
			c-2.2,2.9-2.2,2.9-0.4,14.1c-1.5-3.2-2.8-6.4-4.4-9.5c-0.6-1.1-1.7-2.1-2.5-3c0,0,0,0,0,0c0,0,0,0,0,0c0,0,0,0,0,0
			c0,0-0.1,0.1-0.1,0.1c0,0,0,0,0,0c0.4,8.7,6.1,14.3,11.9,20.1c-5.9,0.8-13-2.1-14.9-6.4c-0.3-0.7-0.5-1.3-0.7-1.9
			c-1.2-4.4,0.3-8.4,3.8-11.8c0-0.1,0-0.2,0-0.3c0,0,0.1,0.1,0.1,0.1c2.3-2,4.4-4.9,7.1-5.8c8.1-2.8,11.9-1.6,12.5,6.7
			C539.8,517.1,541.4,521.1,541.8,525.3z M515.3,508.6c-1.2,1.1-4,0.4-6,0.5c0.6-2.8,0.7-5.9,2-8.4c0.8-1.4,3.5-1.8,6.8-3.2
			c-4.2-1.1-6.8-1.7-9.5-2.4c4-10,18.3-7.1,28.5,5.8C527.9,499.3,521.3,503.1,515.3,508.6z M590.8,515.5c-2.4-2.1-4.3-3.8-6.3-5.6
			c6.8-7.5,7.4-12.5,1.7-20.9c-6.8-10-15.7-6.4-24.9-2.6c8.2-7.9,15.9-15.3,24.7-23.7c0,4.6,0.2,8.4,0,12
			c-0.3,5.5-0.8,10.9,3.8,15.3c0.7,0.7,1,2.2,1,3.4C590.8,500.5,590.8,507.5,590.8,515.5z M589.4,484.2c0-7.6,0-15.1,0-22.7
			c0.4,0,0.7,0.1,1.1,0.1c0,7.5,0,15,0,22.5C590.2,484.2,589.8,484.2,589.4,484.2z M590.5,447.9c-0.3,2.6-1.8,5.1-2.4,6.8
			c-5.6-3.2-9.6-6.4-14.1-7.8c-2.1-0.6-5.5,2-7.8,3.7c-0.6,0.5-0.4,3.8,0.5,4.4c7.8,5.7,7.7,11.2,0.2,16.7
			c-4.5-10.9-9-21.9-13.7-33.2c0.6-0.4,2.2-1.1,3.5-2.2c3.6-3,6.5-2.5,10,0.7c6.1,5.7,11.6,5.7,16.3,0.6c-2.3-0.8-4.3-1.5-7.3-2.6
			c2.4-1.9,4.2-3.7,6.4-4.8c5.2-2.7,8.5-0.7,8.6,5.1C590.7,439.5,591,443.7,590.5,447.9z M590.4,423.8c-9.1-2.9-15.1,2.3-21.8,6.9
			c5.3-7.2,10.1-14.2,8.4-23.9c3.9,0.4,7.3,0.6,10.7,1.3c1.1,0.2,2.5,1.9,2.6,3C590.6,415,590.4,418.8,590.4,423.8z M590.2,178.1
			c0,0.9-1.6,2.2-2.6,2.5c-2.6,0.8-5.4,1.1-8.6,1.7c3.6-8.2,7.2-16.3,11.4-25.7C590.3,164.6,590.4,171.3,590.2,178.1z M545.3,152.2
			c11.3,11.5,11.4,33.1,0.5,54C533.8,193,533.5,168.4,545.3,152.2z M538.1,207.4c-7.1-9.9-18-17.3-20.1-30.5
			C527.5,185.2,534.2,195.3,538.1,207.4z M571.6,175.8c-1.4,13.4-10.4,22.1-19.1,31C555.4,194.4,563,184.8,571.6,175.8z
			 M560.8,174.1c-1.1-15.6-4.9-29.7-16.2-41.1c-10.2,11.7-13.6,25.5-15.3,40.6c-6.8-4.8-13.1-8.9-19-13.4c-3.3-2.5-4.4-9.4-2.5-13.1
			c0.4-0.8,1.9-1.6,2.8-1.5c16.1,2.3,25.1-7.2,32.7-19.2c0.4-0.6,0.7-1.2,1-1.8c0.1-0.1,0.3-0.2,0.8-0.7
			c7.8,14.6,18.1,23.8,35.6,19.2c3.7,8,2.9,13.1-3.2,18.1C572.5,165.4,567.1,169.3,560.8,174.1z M576.9,110.4
			c6.7,1.3,8.6,7.7,4.9,13.4c-1.5,2.3-2.8,5.3-2.8,8c0,4.1-1.9,4.7-5.2,4.8c-10.9,0.3-20-6.6-24.9-19.2c6.1-2.3,11.8-4.7,17.6-6.4
			C569.9,110.1,573.6,109.8,576.9,110.4z M544.3,53.3c5.5,0,10,4.5,10.1,10.1c0.1,6.2-4.8,11.6-10.6,11.6c-5.6,0-10-4.8-10-10.7
			C533.8,58.2,538.5,53.3,544.3,53.3z M512.3,112.2c3.9-0.9,8.3-0.3,12.3,0.3c2.7,0.4,5.2,1.9,7.9,2.7c2.6,0.8,5.4,1.4,8.4,2.2
			c-3.3,11-14.2,20.1-24.5,20.8c-3.3,0.2-5.1-0.3-5.1-4.4c0-2.8-1.6-5.9-3.3-8.4C504.4,119.7,505.8,113.8,512.3,112.2z M499.5,159.4
			c3.6,7.5,7.3,15.3,11.1,23.2c-3.6-0.4-7.1-0.8-11.1-1.2C499.5,173.9,499.5,166.5,499.5,159.4z M499.8,193.1
			c16.6-2.8,42.4,19.9,43.8,38.9c-2.5-4.9-4-9.6-6.9-13.2c-3.7-4.5-8-8.9-12.9-12c-5.7-3.7-11.8-1.9-18,2.2c2.2,1.7,3.8,3.2,5.6,4.3
			c5.4,3.3,10.9,6.4,16.3,9.7c7.7,4.6,12.3,11.2,13.2,20.4c-0.6-1.5-1.3-2.9-1.9-4.4c-4-9-11.2-13.8-20.6-15.3
			c-7.9-1.3-14.9,6.1-13.6,14c0.9,5,4.6,6.3,9,6.3c7.2,0.1,14.1,1.1,19.9,5.7c2.2,1.8,3.8,4.4,5.6,6.7c-0.4,0.3-0.8,0.7-1.1,1
			c-4.5-1.9-9-3.8-14.9-6.3c4.7,7,8.3,12.6,12.2,18c1.6,2.2,5.7,0.5,6.8-2.8c1-3.2,1.5-6.5,2.3-10c2.2,5.1,4.3,10,6.4,15
			c0.6-0.1,1.2-0.3,1.8-0.4c3.7-5.8,7.4-11.7,11.1-17.5c-0.3-0.4-0.5-0.8-0.8-1.2c-3.8,2.4-7.5,4.7-12.9,8.1c1-3.4,0.9-6.5,2.4-7.6
			c4.3-3.1,9-5.9,13.9-7.9c3.8-1.6,8.2-1.7,12.3-2.6c5.1-1.2,7.1-4.9,5.3-9.9c-2.3-6.6-8.8-10.9-15.5-8.4
			c-6.3,2.4-11.9,6.7-16.8,9.6c0.6-3.5,4.6-7.8,13.4-13.2c6.1-3.7,12-7.7,18.2-11.6c-5-4.9-14.2-6-19.6-1.1
			c-5.6,5.1-9.8,11.7-14.4,17.8c-1.1,1.5-1.6,3.5-2.5,5.5c-2.8-14.2,28.6-41.9,42.3-39.3c0,17.7,0,35.6,0,53.7
			c-6,1-11.8,1.9-17.6,2.8c0,0.3,0.1,0.7,0.1,1c5.8,0.4,11.6,0.7,17.9,1.1c0,14.1,0,28,0,42c-0.5,0.3-1,0.7-1.4,1
			c-2.5-2.8-5.2-5.6-7.6-8.5c-0.7-0.9-1.2-2.6-1-3.7c2.2-8.4,0.8-9.9-7.8-8.6c2.5-4.9,6.7-5.3,15.5-1.2c1.9-5.1,1.3-7.4-2.8-10.1
			c-7.3-4.9-20.7-2.9-25.4,3.8c-2.6,3.8-3.7,7.6-0.4,11.6c-2.2-1.8-4.4-3.2-6.6-4.1c-1.2-0.5-2.4-0.9-3.6-1.1
			c-1-0.2-1.9-0.3-2.9-0.4c0,0-0.1,0-0.1,0c-4.5-0.2-9,1.3-13.6,4.4c0,0,0-0.1,0.1-0.1c0,0,0,0,0,0c0,0,0,0.1-0.1,0.1
			c0,0-0.1,0.1-0.1,0.1c0,0,0,0,0,0c0,0,0,0,0,0c1.4-3.2,0.9-6.6-1.2-9.6c-0.2-0.3-0.4-0.5-0.6-0.8c-0.4-0.5-0.9-1-1.5-1.5
			c-0.5-0.5-1.1-0.9-1.8-1.4c-6-4.1-17.6-3.5-22.7,1.7c-1.8,1.8-2.4,4.7-4.1,8.1c5.5-1.2,9.1-1.9,11.6-2.5c0,5.1,0.3,9.3-0.1,13.4
			c-0.5,6.8-6,10.2-10.9,15.2c-0.5-2.1-1-3.2-1-4.3c0-13,0-26,0.1-39c0-1.4,0.9-2.7,1.4-4.1c0.9,1,1.8,2.1,2.8,3.1
			c1.2,1.1,2.6,1.9,3.9,2.9c0.4-0.5,0.8-1,1.1-1.4c-0.9-1.3-1.9-2.5-3.4-4.7c4.2-0.4,7.6-0.7,11.1-1c0-0.5,0-1,0.1-1.5
			c-3.7-0.2-7.4-0.6-11.1-0.6c-4.4,0-6.1-1.7-6-6.3c0.2-14.6-0.1-29.2-0.1-43.8C499.4,195.7,499.7,194.3,499.8,193.1z M534.1,236.7
			c-13.5-3.2-15.2-3.1-25.4,0.8c-0.4-4.4,1.9-6.5,5.1-7.3C521.5,228.2,527.8,231.1,534.1,236.7z M559.1,234.9c2-3.8,8.4-7,13.7-6
			c3.6,0.7,7.2,1.8,7.4,6C572.7,234.9,565.7,234.9,559.1,234.9z M500.7,391c2.6,2.9,5.2,5.8,8.7,9.7c-3.1,0.2-7.2,1.3-7.8,0.3
			c-1.6-2.9-1.8-6.5-2.5-9.9C499.7,391.1,500.2,391,500.7,391z M500.6,491.1c4.1-3.7,4.5-8.1,3.9-13c-0.4-3.7-0.8-7.4-0.9-11
			c0-1,0.9-2,1.5-3c0.9,0.4,2.2,0.7,2.5,1.4c4.5,9.5,13.2,14.3,21.3,19.8c3.2,2.2,5.8,5.3,8.7,7.9c-0.3,0.3-0.7,0.5-1,0.8
			c-16.2-15.8-24.5-15.1-37.7,2.9C499.4,494.9,499.3,492.2,500.6,491.1z M502.7,577c3.9-1.2,8.1-2.5,12.1-2.3
			c9.2,0.5,13.3-3.3,13-13.5c-0.2-8.5,0.1-8.8,9.5-7.9c-6.2,11.2-16.5,22.7,0.9,33.4c-5.7,7.4-6.7,17.2-14,22.1
			c-4.3-2.3-8-5.5-11.9-5.9c-3.8-0.4-7.9,2-12.6,3.4c0-2.1,0-5,0-7.8c0-3.5-0.4-7.1,0.2-10.5C500.4,584.3,496.2,579,502.7,577z
			 M517.5,614.3c-0.9,2.5-3.5,4.4-4.8,5.8c-5.5-0.7-8.1-2.8-8.1-6.7c0.1-3.7,2.9-5.5,6.4-5.8C514.6,607.5,518.6,611.2,517.5,614.3z
			 M499.2,622.4c2.8,1.2,5,2.5,7.5,3.1c7.4,1.8,13-1.6,17.2-8.9c5.7-9.6,11.9-18.9,18.2-28.8c0.6,1.1,1,1.6,1,1.9
			c-2.8,12.7-5.4,25.5-13.2,36.3c-6.9,9.5-15.9,15.5-28.8,16.6c1.6-5.4,3-10.1,4.3-14.8c-0.6-0.1-1.2-0.3-1.8-0.4
			c-0.9,2.8-1.9,5.6-3.1,9.2c-0.8-1.4-1.2-1.8-1.2-2.2C499.2,630.7,499.2,626.8,499.2,622.4z M512.4,649c-4,2-8,4-12.4,6.2
			C499.9,649.6,504.4,647.2,512.4,649z M546,711.5c-6.3-0.2-11.5-5.6-11.2-12.8c0.4-11.6,4.5-22.2,10.3-33.8
			c7.2,11.4,12.5,22,12.6,34.3C557.8,706.6,552.4,711.7,546,711.5z M581,682.4c-1.1,3.8-3.1,7.2-7.7,7.7c-4.9,0.5-8.6-1.5-10.5-6.1
			c-2.7-6.5-5.3-13-8.1-19.4c-1.5-3.3-3.2-6.7-5.4-9.6c-3.4-4.5-6.9-4-9,1.2c-2.5,6-4.5,12.2-6.7,18.3c-0.8,2.3-1.2,4.8-2.1,7.1
			c-2.4,6.7-6.5,9.9-11.7,9.4c-5.5-0.6-9.8-5.5-10.1-12.4c-0.5-12.2,2.6-23.8,11.2-32.6c12.7-13,21.3-27.8,24-45.8
			c0-0.3,0.4-0.5,1-1.3c1.2,4.8,2.4,9,3.4,13.2c2.8,12,8.5,22.4,17.7,30.5c10,8.7,13.9,20,14.7,32.7
			C581.9,677.5,581.7,680.1,581,682.4z M577.9,649.8c8.9-2.9,14.3-0.7,14.1,5.5C587.1,653.5,582.5,651.6,577.9,649.8z"/>
		<path fill="#AB896B" d="M545.3,615.8c-0.2,0-0.5,0-0.7,0c-0.3,3.7-0.7,7.5-1,11.2c-4.9,10.2-12.4,19.5-12.4,31.7
			c1.6-1.2,2.4-2.8,3.6-4.3c1.8-2.3,3.3-5.3,5.7-6.6c0.5-0.2,0.9-0.5,1.2-0.8c0.3-0.2,0.6-0.4,0.8-0.7c1.6-1.6,1.6-3.6,1-6
			c0-0.1-0.1-0.2-0.1-0.3c2.7,7.4,8.2,12,14.6,16.8c1.5,1.1,3,2.2,4.5,3.4c-0.3-10.1-6.4-15.8-9.6-22.8
			C549.7,630.7,547.8,623.1,545.3,615.8z"/>
		<path fill="#AB896B" d="M575.4,592.5c0.9,0.6,2.8-0.3,4.4-0.5c-3.2-3.5-5.5-6.1-8.2-9.1c5.6-1.1,12.7,5.8,11.1,9.6
			c-0.6,1.4-2.7,3-4.2,3.1c-2.1,0.2-4.3-1-6.5-1.5c-1.8-0.4-3.7-0.7-6.3-1.2c3.9,7.4,18.1,9.2,22.2,4c0.3-0.4,0.6-0.9,0.7-1.4
			c1.1-6.5-1.5-11.7-5.7-16.3c-3.5-3.9-8-3.9-12.6-2.3c-5.4,1.9-6.1,4.9-2.1,8.8C570.5,588.1,572.8,590.6,575.4,592.5z"/>
		<path fill="#AB896B" d="M508.6,599c4.4-0.3,8.7-2.2,12.9-3.8c1.1-0.4,1.6-2.6,3-5.2c-2.4,0.8-3.7,1.2-4.8,1.6
			c-0.1,0-0.2,0.1-0.3,0.1c0.2-0.9,0.3-1.8,0.7-2.6c0,0,0,0,0,0c0-0.1,0.1-0.2,0.2-0.3c0.1-0.1,0.2-0.2,0.2-0.3
			c4-4.2,1.9-7.1-1.7-10c-4.1-3.2-7.3-1.2-9.9,2.1c-2.3,2.9-4.4,5.9-6,9.2C500.5,594.7,503.2,599.4,508.6,599z M516.2,584.9
			c3.8,1.8-2.7,6.5,3,7h0c0,0,0.1-0.1,0.1-0.1c0,0,0.1,0.1,0.1,0.1c-0.1,0-0.1,0-0.2,0c-0.3,0.3-0.7,0.7-1,1
			c-2.7,2.2-5.9,2.6-10,1.3C511.1,590.7,513.7,587.7,516.2,584.9z"/>
		<path fill="#AB896B" d="M508.1,443.3c7.6,2.1,11-3.9,16.1-7.7C515.8,432.4,508.6,436,508.1,443.3z"/>
		<path fill="#AB896B" d="M544.7,401.5c4.9,0.1,8.8-4,8.8-9.1c0-5.1-4.1-9.6-9-9.8c-4.7-0.2-8.8,4.5-8.8,9.8
			C535.8,397.2,540,401.5,544.7,401.5z"/>
		<circle fill="#AB896B" cx="523.3" cy="156.7" r="6"/>
		<path fill="#AB896B" d="M568,149.1c-1.7,0-3.2,0.7-4.3,1.8c-0.7,0.6-1.3,1.4-1.4,2.4c-0.2,0.6-0.3,1.2-0.3,1.8c0,3.3,2.7,6,6,6
			c3.3,0,6-2.7,6-6C574,151.8,571.3,149.1,568,149.1z"/>
		<ellipse transform="matrix(0.9871 -0.1602 0.1602 0.9871 -53.8032 96.8768)" fill="#AB896B" cx="574" cy="382.2" rx="6" ry="6"/>
		
			<ellipse transform="matrix(0.9732 -0.2298 0.2298 0.9732 -74.0912 128.9244)" fill="#AB896B" cx="516.6" cy="382.6" rx="6" ry="6"/>
	</g>
</g>
<g>
	<g>
		<path fill="#14667D" d="M760.2,402.8c0-109.1,0-229.6,0-350.1c0-20.7-10.1-30.8-30.9-30.5c-18.1,0.3-36.2,0.8-54.3,1.4
			c-18.1,0.6-27.8,10.7-27.9,28.8c-0.1,18.6,0,37.3,0,55.9c0.4,222.7,0.9,445.5,1.3,668.2c0,8.1,0,8.2,8.1,8.2
			c33.1,0,66.2-0.1,99.2,0.1c5.1,0,6.4-1.4,6.4-6.5C761.5,657,760.9,535.6,760.2,402.8z M748.6,641.7c-7.7,0.6-14.6-0.3-19.4-5.5
			c-5.3-5.7-10.2-12.1-13.5-19.1c-4-8.5-6.2-17.9-9.2-26.9c-0.2-0.7-0.1-1.6,0.9-2.9c0.8,1.2,1.5,2.3,2.3,3.5
			c6.3,9.7,12.4,19.5,19,29c3.7,5.4,9.8,6.7,16.5,4.5c1.6-0.5,3.2-1.3,5.5-2.3c0,5.3,0,9.8,0,14.3c-0.3,0.1-0.5,0.2-0.8,0.3
			c-1.2-2.9-2.3-5.8-3.5-8.8c-0.3,0.1-0.5,0.2-0.8,0.2C746.5,632.3,747.4,636.6,748.6,641.7z M725.8,547.3
			c6.1,0.2,10.4,2.4,12.9,7.8c1-6.2,0.9-6.4-9.2-11.2c6-2.6,9.5-3.1,12.1,0.5c2.1,2.9,3.2,7.3,3,10.9c-0.3,5.3-4.1,8.9-9.3,10.2
			c-1.3,0.3-3.1-0.8-4.5-1.5c-0.7-0.4-0.9-1.5-1.5-2.1c-1.9-2-3.9-3.8-5.9-5.7c-0.4,2.8-1.3,5.7-1,8.4c0.9,9.3,1.1,9.1,10.5,9.5
			c5.6,0.2,11.1,1.1,17.1,1.7c0,10.4,0,20.3,0,31c-9.2-8-16.8-5.5-24.2,4c-5.3-8.4-10.1-16-14.8-23.5c13.1-10.2,13.1-12,0.2-35.4
			c8,1.6,15,3,21.9,4.4C733.6,553.3,733.6,553.3,725.8,547.3z M746.2,613.6c-0.5,3.8-3.2,5.6-7.2,5.5c-3.9-0.1-5.7-2.4-6-6
			c-0.3-3.5,3.5-6.8,7.4-6.7C743.8,606.5,746.3,609.4,746.2,613.6z M710,571.8c-1-5.2-2.1-10.4-3.1-15.6
			C710.7,560.9,712.8,565.8,710,571.8z M704.2,579.4c-2.2-3.1-6.1-6.2-6.3-9.4c-0.3-4.9,1.9-9.9,3.4-16.1
			C709.1,562.1,710.1,574.6,704.2,579.4z M745.3,571.2c-1.3-0.4-2.7-0.6-5.1-1.1c6.7-7,9.7-14.8,6.4-23.8c-0.8-2-2.9-3.6-4.3-5.3
			c1.9-2.6,4.1-5.8,6.4-9.1c-18.3,12.1-38,14.8-58.7,12.3c-6-0.7-11.7-1.5-18.2,2.4c2.4,1,3.8,1.6,5.4,2.2c-2.1,2.7-7.3,3.3-5.2,8.6
			c3.4-1.2,6.8-2.3,10.1-3.4c0.5,0.5,1,1.1,1.5,1.6c-2,2.7-3.5,6.4-6.1,7.8c-1.8,1-6.1-0.5-7.8-2.2c-2.7-2.7-5-6.4-6.1-10.1
			c-1.4-4.8,1-7.8,6-10.5c-2.4-5.3-4.8-10.6-7.1-15.6c-2.1,2.6-2,4.6,0.3,10.7c0.7,1.9,1.4,4.8,0.5,6.3c-5.3,8.8-2.5,16.5,2.6,24
			c1,1.5,2.1,3,3.5,5c-3.7,0.4-6.8,0.8-10.4,1.2c-0.3-2.1-0.7-3.9-0.7-5.8c-0.2-12.7-0.4-25.3-0.3-38c0.1-9.3,5.4-14.5,13.7-13.6
			c-0.9,1.3-1.6,2.4-2.5,3.4c-4.5,5.1-4.5,9.9,0.1,14.8c5.8,6.1,13.4,8,21.3,9.3c13.7,2.2,27.1,0.6,39.8-4.5
			c10.9-4.4,12.6-9.8,7.6-20.4c-0.6-1.4-1.2-2.8-1.9-4.3c7,0.7,13,6.1,13.3,12.3c0.5,13.9,0.6,27.8,0.9,41.7
			C750.6,571.2,748.8,572.3,745.3,571.2z M658.1,514.5c0-3.8,0-7,0-10.4C664.5,510.2,664.6,511.5,658.1,514.5z M687.4,456.4
			C687.4,456.4,687.4,456.4,687.4,456.4c0,0.1,0,0.1,0.1,0.2c0,0,0,0,0,0l0,0c0,0,0,0,0,0c0,0,0,0,0,0l0,0c0,0-0.1,0-0.1,0
			c-1.2,5.2-2.4,10.5-3.6,15.7c-5.1-2.4-7.9-7.1-6.6-11.1c0.4-1.3,1-2.3,1.7-3c0.3-0.4,0.7-0.7,1.1-0.9c0.2-0.2,0.5-0.3,0.8-0.4
			c1.9-0.8,4.1-0.7,6.6-0.2c0,0,0,0,0,0C687.3,456.5,687.3,456.4,687.4,456.4C687.3,456.4,687.3,456.4,687.4,456.4
			c-1.2-3.9-3.6-6.3-6.8-7.6c-0.6-0.2-1.2-0.4-1.8-0.6c-1-0.2-2-0.4-3.1-0.5c-6.9-0.5-8.9,5.1-11.3,10.1c-3.8-0.8-5.6-3.1-5.6-7
			c0-4.7-0.2-9.5,0-14.2c0.1-1.4,1.5-3.7,2.3-3.8c11.5-0.4,23.1-2.9,34.2,2c1.1,0.5,2,1.2,3.6,2.1C695,443.6,691.2,450,687.4,456.4z
			 M672.3,306.4c4.3,4.5,8.9,8.8,13.6,12.9c3.9,3.5,8.5,6.3,11.8,10.2c2.2,2.5,2.8,6.4,4.2,9.7c-0.7,0.5-1.4,0.9-2,1.4
			c-6.9-11.3-18.6-16.3-28.7-23.4c-7.9-5.5-8.5-11.8-2.6-19.3c2.6-3.3,5.4-6.3,8.5-10c-0.4,6.5-0.7,12.1-1,17.5
			c-1-1.4-2.3-3.1-3.6-4.9c-0.5,0.1-1.1,0.3-1.6,0.4C671.4,302.8,671.2,305.2,672.3,306.4z M690.8,275.2
			C690.8,275.2,690.8,275.2,690.8,275.2c-3.4,7-5.2,14.2-2.6,22.6c1.1-1.2,1.8-2,2.8-3.2c4.2,8.5,12.3,4.4,18.4,6.4
			c0.5,0.2,1.3-1,2.1-1.3c2-0.8,4.1-1.5,7.6-2.8c2.4-4.8,2.1-11.4-0.2-18.1c8.2,9.2,9.5,20.4,2.5,29.8c-4.9,6.5-11.1,12-16.9,18.3
			c-5.5-4.4-10.6-8.1-15.3-12.3c-10.8-9.7-11.8-22.1-3-33.8C687.7,278.9,689.3,277.1,690.8,275.2z M703.6,280.9
			c1.8,0.4,4.4,2.5,4.5,4.1c0.1,1.6-2.2,4.4-3.8,4.7c-1.4,0.3-3.4-2.2-6.3-4.2C700.7,283.2,702.4,280.6,703.6,280.9z M731.9,291.7
			C731.9,291.7,731.9,291.7,731.9,291.7C731.9,291.7,731.9,291.8,731.9,291.7C731.8,291.8,731.8,291.8,731.9,291.7
			c0.3,2.1,0.6,4,1.1,6c1.3,5.9-1.4,11.5-5.7,13.6c1-5.4,2-11.5,3.2-17.5c0-0.1,0-0.2,0.1-0.3C730.8,292.9,731.4,292.4,731.9,291.7
			c-0.1,0-0.1-0.1-0.1-0.1L731.9,291.7L731.9,291.7c-0.7-1.3-1.4-2.6-2.1-3.9c0.5-0.4,0.9-0.8,1.4-1.1c3.6,3.6,7.7,6.8,10.6,10.8
			c4.3,6.2,3,12-3.1,16.5c-5.1,3.7-10.8,6.7-15.6,10.6c-5.8,4.7-11,10.1-17.4,15c0.9-2.6,1.2-5.8,3-7.7c5.1-5.2,10.7-9.9,16.1-14.7
			c3.1-2.8,6.9-5,9.3-8.2C738.1,303.7,737,297.5,731.9,291.7z M748.5,341.7c0,10.6,0,21.2,0,30.4c-4.3-2.6-9.8-5.1-14.2-8.8
			c-2.4-2-3.1-5.9-5.2-10.3C739,352.7,745.3,349.9,748.5,341.7z M748.4,313.9c0,5.4,0,9.9,0,14.6
			C742.9,320.9,742.9,320.9,748.4,313.9z M748.2,399.9c-2.5,1.3-6.1,0.7-9.2,0.8c-0.1-0.5-0.2-1-0.2-1.5c2.9-2.3,5.9-4.6,10-7.9
			C748.6,394.9,749.4,399.3,748.2,399.9z M706.8,357.4c-4.9-1.1-9.5-2.1-13.9-3.1c2.6-5.8,14.2-7.6,21.8-2.8
			C711.9,353.6,709,355.7,706.8,357.4z M718.8,372.3c-2,3-5.6,1.7-9.8,0c0.5-3.2,1-6.3,1.5-9.4c0.4-0.2,0.8-0.3,1.2-0.5
			C713.9,365.5,716.1,368.6,718.8,372.3z M695,361.3c3.7,0.2,6.2,1.9,5.9,5.8c-0.2,3.7-1.3,7.2-5.9,7.1c-4.5-0.1-5.3-3.8-6.2-6.9
			C689.3,363.4,691,361.1,695,361.3z M703.5,381.2c6.9,0.1,11.5,4.5,11.5,11c0,6.8-4.8,11.6-11.7,11.5c-6.6-0.1-12-5.4-11.8-11.7
			C691.7,385.7,696.8,381.1,703.5,381.2z M707.6,424.4c-1-0.2-1.8-3.9-1.9-6c0-1.4,1.3-3.6,2.5-3.9c8.5-2.3,13.1-8.4,16.4-16
			c0.6-0.3,1.2-0.5,1.8-0.8c2.1,3.2,6,6.5,6,9.7c0.1,7.4-2.7,14.9-10,17.7C718.2,426.7,712.5,425.3,707.6,424.4z M711.1,455.8
			c-5.1,0-8.8,0-13.8,0c2.7-4,4.8-7.2,7.9-11.8C707.6,448.8,709.2,452.1,711.1,455.8z M722.7,381.2c0.2-5.3,4.7-9.5,10-9.4
			c6,0.2,9.6,4,9.6,10.2c0,6.1-3.5,10-9,10.1C727.5,392,722.5,386.9,722.7,381.2z M719,340.1c7-5.6,13.4-10.6,19.7-15.7
			c4.5,4.4,6,10.8,3.3,15.3c-2.9,4.9-7.8,4.2-12.3,3.5C726.4,342.6,723.1,341.3,719,340.1z M667.5,325.4
			c6.7,5.4,12.9,10.4,19.2,15.4c0,0.6-0.1,1.2-0.1,1.7c-5,0.7-10.1,2.2-15,1.7c-2.5-0.2-5.6-3.4-7-6
			C662.3,333.9,663.7,329.5,667.5,325.4z M658.3,329.3c0-4.9,0-9.1,0-14.6c2.2,3,3.8,5.1,5.3,7.2C662,324.2,660.4,326.4,658.3,329.3
			z M658.6,343.3c3.7,6.9,8.7,10.3,15.9,10.1c0.9,0,2.5,2.7,2.5,4.2c0,2.2-0.4,5.3-1.8,6.3c-5.1,3.4-10.7,6.1-16.6,9.3
			C658.6,364,658.6,354.3,658.6,343.3z M675.2,372.8c5.4,0,9.6,4.6,9.6,10.4c0,5.5-3.3,8.8-8.8,8.9c-5.8,0.1-9.7-3.6-9.8-9.3
			C666.1,376.7,669.6,372.7,675.2,372.8z M669.2,407.7c0.7-0.1,1.3-0.2,2-0.3c0.8-0.1,1.7-0.3,2.5-0.4v0c0-0.1,0.1-0.1,0.1-0.2
			c0,0,0.1,0.1,0.1,0.1c0,0,0,0,0,0c2.4-2.3,4.8-4.6,7.8-7.5c0.4-0.4,0.9-0.8,1.3-1.3c2.6,10.2,10.4,14.5,17,20.1
			c4.6,3.9,3.5,9.8,4,15c-0.5,0.2-0.9,0.3-1.4,0.5c-0.7-1.9-1.5-3.8-2.5-6.3c-3.2,5.1-6.5,2.4-9.4,0c-6.3-5.2-13-10.3-15.3-18.9
			c-0.2-0.6-1-1.1-1.7-1.6c0,0,0,0,0,0c0,0,0,0,0,0c0,0-0.1-0.1-0.1-0.1s0.1,0.1,0.1,0.1c0,0,0,0,0,0c-0.1,0-0.1,0-0.2,0
			c-3.7,6.5-0.3,11.9,4,17.7c-6.6,0.5-12.3,0.9-19.1,1.3c0-5-0.2-9.6,0.1-14c0.1-1,1.7-2.4,2.9-2.7c1.8-0.4,3.5-0.8,5.3-1.1
			C667.6,407.9,668.4,407.8,669.2,407.7z M658.5,465c0.2,0,0.5,0,0.7-0.1c0,6.7,0,13.4,0,20.1c-0.2,0-0.5,0.1-0.7,0.1
			C658.5,478.4,658.5,471.7,658.5,465z M691.2,468.7c2.9-5.5,10.3-8.3,17.4-6.7c5.2,1.2,9.3,6.2,9.4,12c0.1,6.3-4.7,8.8-9.5,12
			c-1.5-4.1-2.6-7.4-3.7-10.7c-0.6,0.1-1.3,0.2-1.9,0.3c-0.3,1.8-0.3,3.6-0.9,5.3c-0.6,1.7-1.3,3.8-2.7,4.7c-0.8,0.5-3.2-0.9-4.4-2
			C689.7,479.1,688.5,473.9,691.2,468.7z M738.8,499.9c0.9,2.7,0.8,5.8,1.1,8.7c-2.9-0.3-6.6,0.3-8.4-1.2c-4.2-3.4-8-6.7-13.8-6.6
			c-8,0.1-11.6,3.1-12.3,11.2c-0.3,3.1,0,6.1,0,9.2c-0.6,0.1-1.1,0.2-1.7,0.2c-1.4-6.1-2.7-12.2-3.9-17.5
			c8.9-3.9,16.8-7.3,25.3-10.9c0,0,0.1-2.2,0.5-2.3c3.6-0.6,7.4-1.1,11-1c1.1,0.1,2.2,2.3,3.3,3.5c-1.1,0.9-2.2,1.8-3.4,2.7
			c-0.5,0.4-1.2,0.5-2.3,1C736.1,498,738.4,498.6,738.8,499.9z M727.9,522.4c-3,2.3-6,4.5-9.8,7.5c1-7.5,6.1-12.9,5-19.6
			c-0.5-0.2-1-0.4-1.5-0.5c-1.2,2.7-2.5,5.3-4.2,9c0.3-5,0.6-8.8,0.9-14.1c2.8,1,6.6,1.2,8.3,3.1c4.3,5,6.5,11.4,5.1,18.1
			c-0.9,4.5-5.2,5.5-9.7,6.4c2.5-3.2,4.6-6,6.7-8.8C728.6,523.1,728.3,522.7,727.9,522.4z M715.2,509.2c-1.3,6.6-2.9,13.1-4.5,19.6
			c-0.9-0.1-1.9-0.3-2.8-0.4c0.7-6.8,1.2-13.5,2.1-20.2c0.1-0.8,2.1-1.9,3.2-1.8C714,506.5,715.4,508.4,715.2,509.2z M700.7,525.3
			c0.1,0.9-0.1,1.8-0.5,2.7c-2.1-6.5-4.1-13.1-6.4-19.5c-0.3-0.9-2.6-1.1-5.3-2.1c3.7,8.7,6.8,15.9,9.9,23.1c0.5-0.2,1-0.4,1.6-0.6
			c-0.1,0.2-0.2,0.5-0.3,0.7c-0.1,0.2-0.2,0.5-0.3,0.7c-0.1,0.2-0.2,0.5-0.2,0.7c-0.4-0.2-0.9-0.4-1.3-0.5c-0.2-0.1-0.5-0.2-0.7-0.2
			c-0.5-0.2-0.9-0.3-1.3-0.5c-0.6-0.3-1.2-0.6-1.5-1.1c-2.6-4.1-4.7-8.5-6.9-12.9c-0.7-1.5-0.9-3.3-1.4-5.2
			c-2.2,2.9-2.2,2.9-0.4,14.1c-1.5-3.2-2.8-6.4-4.4-9.5c-0.6-1.1-1.7-2.1-2.5-3c0,0,0,0,0,0c0,0,0,0,0,0c0,0,0,0,0,0
			c0,0-0.1,0.1-0.1,0.1c0,0,0,0,0,0c0.4,8.7,6.1,14.3,11.9,20.1c-5.9,0.8-13-2.1-14.9-6.4c-0.3-0.7-0.5-1.3-0.7-1.9
			c-1.2-4.4,0.3-8.4,3.8-11.8c0-0.1,0-0.2,0-0.3c0,0,0.1,0.1,0.1,0.1c2.3-2,4.4-4.9,7.1-5.8c8.1-2.8,11.9-1.6,12.5,6.7
			C698.6,517.1,700.2,521.1,700.7,525.3z M674.2,508.6c-1.2,1.1-4,0.4-6,0.5c0.6-2.8,0.7-5.9,2-8.4c0.8-1.4,3.5-1.8,6.8-3.2
			c-4.2-1.1-6.8-1.7-9.5-2.4c4-10,18.3-7.1,28.5,5.8C686.8,499.3,680.2,503.1,674.2,508.6z M749.6,515.5c-2.4-2.1-4.3-3.8-6.3-5.6
			c6.8-7.5,7.4-12.5,1.7-20.9c-6.8-10-15.7-6.4-24.9-2.6c8.2-7.9,15.9-15.3,24.7-23.7c0,4.6,0.2,8.4,0,12
			c-0.3,5.5-0.8,10.9,3.8,15.3c0.7,0.7,1,2.2,1,3.4C749.7,500.5,749.6,507.5,749.6,515.5z M748.3,484.2c0-7.6,0-15.1,0-22.7
			c0.4,0,0.7,0.1,1.1,0.1c0,7.5,0,15,0,22.5C749.1,484.2,748.7,484.2,748.3,484.2z M749.4,447.9c-0.3,2.6-1.8,5.1-2.4,6.8
			c-5.6-3.2-9.6-6.4-14.1-7.8c-2.1-0.6-5.5,2-7.8,3.7c-0.6,0.5-0.4,3.8,0.5,4.4c7.8,5.7,7.7,11.2,0.2,16.7
			c-4.5-10.9-9-21.9-13.7-33.2c0.6-0.4,2.2-1.1,3.5-2.2c3.6-3,6.5-2.5,10,0.7c6.1,5.7,11.6,5.7,16.3,0.6c-2.3-0.8-4.3-1.5-7.3-2.6
			c2.4-1.9,4.2-3.7,6.4-4.8c5.2-2.7,8.5-0.7,8.6,5.1C749.5,439.5,749.9,443.7,749.4,447.9z M749.3,423.8c-9.1-2.9-15.1,2.3-21.8,6.9
			c5.3-7.2,10.1-14.2,8.4-23.9c3.9,0.4,7.3,0.6,10.7,1.3c1.1,0.2,2.5,1.9,2.6,3C749.5,415,749.3,418.8,749.3,423.8z M749.1,178.1
			c0,0.9-1.6,2.2-2.6,2.5c-2.6,0.8-5.4,1.1-8.6,1.7c3.6-8.2,7.2-16.3,11.4-25.7C749.2,164.6,749.3,171.3,749.1,178.1z M704.2,152.2
			c11.3,11.5,11.4,33.1,0.5,54C692.7,193,692.4,168.4,704.2,152.2z M697,207.4c-7.1-9.9-18-17.3-20.1-30.5
			C686.4,185.2,693.1,195.3,697,207.4z M730.5,175.8c-1.4,13.4-10.4,22.1-19.1,31C714.3,194.4,721.8,184.8,730.5,175.8z
			 M719.7,174.1c-1.1-15.6-4.9-29.7-16.2-41.1c-10.2,11.7-13.6,25.5-15.3,40.6c-6.8-4.8-13.1-8.9-19-13.4c-3.3-2.5-4.4-9.4-2.5-13.1
			c0.4-0.8,1.9-1.6,2.8-1.5c16.1,2.3,25.1-7.2,32.7-19.2c0.4-0.6,0.7-1.2,1-1.8c0.1-0.1,0.3-0.2,0.8-0.7
			c7.8,14.6,18.1,23.8,35.6,19.2c3.7,8,2.9,13.1-3.2,18.1C731.4,165.4,726,169.3,719.7,174.1z M735.8,110.4
			c6.7,1.3,8.6,7.7,4.9,13.4c-1.5,2.3-2.8,5.3-2.8,8c0,4.1-1.9,4.7-5.2,4.8c-10.9,0.3-20-6.6-24.9-19.2c6.1-2.3,11.8-4.7,17.6-6.4
			C728.8,110.1,732.5,109.8,735.8,110.4z M703.2,53.3c5.5,0,10,4.5,10.1,10.1c0.1,6.2-4.8,11.6-10.6,11.6c-5.6,0-10-4.8-10-10.7
			C692.7,58.2,697.4,53.3,703.2,53.3z M671.2,112.2c3.9-0.9,8.3-0.3,12.3,0.3c2.7,0.4,5.2,1.9,7.9,2.7c2.6,0.8,5.4,1.4,8.4,2.2
			c-3.3,11-14.2,20.1-24.5,20.8c-3.3,0.2-5.1-0.3-5.1-4.4c0-2.8-1.6-5.9-3.3-8.4C663.3,119.7,664.7,113.8,671.2,112.2z M658.4,159.4
			c3.6,7.5,7.3,15.3,11.1,23.2c-3.6-0.4-7.1-0.8-11.1-1.2C658.4,173.9,658.4,166.5,658.4,159.4z M658.7,193.1
			c16.6-2.8,42.4,19.9,43.8,38.9c-2.5-4.9-4-9.6-6.9-13.2c-3.7-4.5-8-8.9-12.9-12c-5.7-3.7-11.8-1.9-18,2.2c2.2,1.7,3.8,3.2,5.6,4.3
			c5.4,3.3,10.9,6.4,16.3,9.7c7.7,4.6,12.3,11.2,13.2,20.4c-0.6-1.5-1.3-2.9-1.9-4.4c-4-9-11.2-13.8-20.6-15.3
			c-7.9-1.3-14.9,6.1-13.6,14c0.9,5,4.6,6.3,9,6.3c7.2,0.1,14.1,1.1,19.9,5.7c2.2,1.8,3.8,4.4,5.6,6.7c-0.4,0.3-0.8,0.7-1.1,1
			c-4.5-1.9-9-3.8-14.9-6.3c4.7,7,8.3,12.6,12.2,18c1.6,2.2,5.7,0.5,6.8-2.8c1-3.2,1.5-6.5,2.3-10c2.2,5.1,4.3,10,6.4,15
			c0.6-0.1,1.2-0.3,1.8-0.4c3.7-5.8,7.4-11.7,11.1-17.5c-0.3-0.4-0.5-0.8-0.8-1.2c-3.8,2.4-7.5,4.7-12.9,8.1c1-3.4,0.9-6.5,2.4-7.6
			c4.3-3.1,9-5.9,13.9-7.9c3.8-1.6,8.2-1.7,12.3-2.6c5.1-1.2,7.1-4.9,5.3-9.9c-2.3-6.6-8.8-10.9-15.5-8.4
			c-6.3,2.4-11.9,6.7-16.8,9.6c0.6-3.5,4.6-7.8,13.4-13.2c6.1-3.7,12-7.7,18.2-11.6c-5-4.9-14.2-6-19.6-1.1
			c-5.6,5.1-9.8,11.7-14.4,17.8c-1.1,1.5-1.6,3.5-2.5,5.5c-2.8-14.2,28.6-41.9,42.3-39.3c0,17.7,0,35.6,0,53.7
			c-6,1-11.8,1.9-17.6,2.8c0,0.3,0.1,0.7,0.1,1c5.8,0.4,11.6,0.7,17.9,1.1c0,14.1,0,28,0,42c-0.5,0.3-1,0.7-1.4,1
			c-2.5-2.8-5.2-5.6-7.6-8.5c-0.7-0.9-1.2-2.6-1-3.7c2.2-8.4,0.8-9.9-7.8-8.6c2.5-4.9,6.7-5.3,15.5-1.2c1.9-5.1,1.3-7.4-2.8-10.1
			c-7.3-4.9-20.7-2.9-25.4,3.8c-2.6,3.8-3.7,7.6-0.4,11.6c-2.2-1.8-4.4-3.2-6.6-4.1c-1.2-0.5-2.4-0.9-3.6-1.1
			c-1-0.2-1.9-0.3-2.9-0.4c0,0-0.1,0-0.1,0c-4.5-0.2-9,1.3-13.6,4.4c0,0,0-0.1,0.1-0.1c0,0,0,0,0,0c0,0,0,0.1-0.1,0.1
			c0,0-0.1,0.1-0.1,0.1c0,0,0,0,0,0c0,0,0,0,0,0c1.4-3.2,0.9-6.6-1.2-9.6c-0.2-0.3-0.4-0.5-0.6-0.8c-0.4-0.5-0.9-1-1.5-1.5
			c-0.5-0.5-1.1-0.9-1.8-1.4c-6-4.1-17.6-3.5-22.7,1.7c-1.8,1.8-2.4,4.7-4.1,8.1c5.5-1.2,9.1-1.9,11.6-2.5c0,5.1,0.3,9.3-0.1,13.4
			c-0.5,6.8-6,10.2-10.9,15.2c-0.5-2.1-1-3.2-1-4.3c0-13,0-26,0.1-39c0-1.4,0.9-2.7,1.4-4.1c0.9,1,1.8,2.1,2.8,3.1
			c1.2,1.1,2.6,1.9,3.9,2.9c0.4-0.5,0.8-1,1.1-1.4c-0.9-1.3-1.9-2.5-3.4-4.7c4.2-0.4,7.6-0.7,11.1-1c0-0.5,0-1,0.1-1.5
			c-3.7-0.2-7.4-0.6-11.1-0.6c-4.4,0-6.1-1.7-6-6.3c0.2-14.6-0.1-29.2-0.1-43.8C658.3,195.7,658.6,194.3,658.7,193.1z M693,236.7
			c-13.5-3.2-15.2-3.1-25.4,0.8c-0.4-4.4,1.9-6.5,5.1-7.3C680.4,228.2,686.7,231.1,693,236.7z M718,234.9c2-3.8,8.4-7,13.7-6
			c3.6,0.7,7.2,1.8,7.4,6C731.6,234.9,724.6,234.9,718,234.9z M659.6,391c2.6,2.9,5.2,5.8,8.7,9.7c-3.1,0.2-7.2,1.3-7.8,0.3
			c-1.6-2.9-1.8-6.5-2.5-9.9C658.6,391.1,659.1,391,659.6,391z M659.5,491.1c4.1-3.7,4.5-8.1,3.9-13c-0.4-3.7-0.8-7.4-0.9-11
			c0-1,0.9-2,1.5-3c0.9,0.4,2.2,0.7,2.5,1.4c4.5,9.5,13.2,14.3,21.3,19.8c3.2,2.2,5.8,5.3,8.7,7.9c-0.3,0.3-0.7,0.5-1,0.8
			c-16.2-15.8-24.5-15.1-37.7,2.9C658.3,494.9,658.2,492.2,659.5,491.1z M661.6,577c3.9-1.2,8.1-2.5,12.1-2.3
			c9.2,0.5,13.3-3.3,13-13.5c-0.2-8.5,0.1-8.8,9.5-7.9c-6.2,11.2-16.5,22.7,0.9,33.4c-5.7,7.4-6.7,17.2-14,22.1
			c-4.3-2.3-8-5.5-11.9-5.9c-3.8-0.4-7.9,2-12.6,3.4c0-2.1,0-5,0-7.8c0-3.5-0.4-7.1,0.2-10.5C659.3,584.3,655.1,579,661.6,577z
			 M676.4,614.3c-0.9,2.5-3.5,4.4-4.8,5.8c-5.5-0.7-8.1-2.8-8.1-6.7c0.1-3.7,2.9-5.5,6.4-5.8C673.5,607.5,677.5,611.2,676.4,614.3z
			 M658.1,622.4c2.8,1.2,5,2.5,7.5,3.1c7.4,1.8,13-1.6,17.2-8.9c5.7-9.6,11.9-18.9,18.2-28.8c0.6,1.1,1,1.6,1,1.9
			c-2.8,12.7-5.4,25.5-13.2,36.3c-6.9,9.5-15.9,15.5-28.8,16.6c1.6-5.4,3-10.1,4.3-14.8c-0.6-0.1-1.2-0.3-1.8-0.4
			c-0.9,2.8-1.9,5.6-3.1,9.2c-0.8-1.4-1.2-1.8-1.2-2.2C658.1,630.7,658.1,626.8,658.1,622.4z M671.3,649c-4,2-8,4-12.4,6.2
			C658.8,649.6,663.3,647.2,671.3,649z M704.9,711.5c-6.3-0.2-11.5-5.6-11.2-12.8c0.4-11.6,4.5-22.2,10.3-33.8
			c7.2,11.4,12.5,22,12.6,34.3C716.7,706.6,711.3,711.7,704.9,711.5z M739.9,682.4c-1.1,3.8-3.1,7.2-7.7,7.7
			c-4.9,0.5-8.6-1.5-10.5-6.1c-2.7-6.5-5.3-13-8.1-19.4c-1.5-3.3-3.2-6.7-5.4-9.6c-3.4-4.5-6.9-4-9,1.2c-2.5,6-4.5,12.2-6.7,18.3
			c-0.8,2.3-1.2,4.8-2.1,7.1c-2.4,6.7-6.5,9.9-11.7,9.4c-5.5-0.6-9.8-5.5-10.1-12.4c-0.5-12.2,2.6-23.8,11.2-32.6
			c12.7-13,21.3-27.8,24-45.8c0-0.3,0.4-0.5,1-1.3c1.2,4.8,2.4,9,3.4,13.2c2.8,12,8.5,22.4,17.7,30.5c10,8.7,13.9,20,14.7,32.7
			C740.8,677.5,740.6,680.1,739.9,682.4z M736.8,649.8c8.9-2.9,14.3-0.7,14.1,5.5C746,653.5,741.4,651.6,736.8,649.8z"/>
		<path fill="#14667D" d="M704.2,615.8c-0.2,0-0.5,0-0.7,0c-0.3,3.7-0.7,7.5-1,11.2c-4.9,10.2-12.4,19.5-12.4,31.7
			c1.6-1.2,2.4-2.8,3.6-4.3c1.8-2.3,3.3-5.3,5.7-6.6c0.5-0.2,0.9-0.5,1.2-0.8c0.3-0.2,0.6-0.4,0.8-0.7c1.6-1.6,1.6-3.6,1-6
			c0-0.1-0.1-0.2-0.1-0.3c2.7,7.4,8.2,12,14.6,16.8c1.5,1.1,3,2.2,4.5,3.4c-0.3-10.1-6.4-15.8-9.6-22.8
			C708.6,630.7,706.7,623.1,704.2,615.8z"/>
		<path fill="#14667D" d="M734.3,592.5c0.9,0.6,2.8-0.3,4.4-0.5c-3.2-3.5-5.5-6.1-8.2-9.1c5.6-1.1,12.7,5.8,11.1,9.6
			c-0.6,1.4-2.7,3-4.2,3.1c-2.1,0.2-4.3-1-6.5-1.5c-1.8-0.4-3.7-0.7-6.3-1.2c3.9,7.4,18.1,9.2,22.2,4c0.3-0.4,0.6-0.9,0.7-1.4
			c1.1-6.5-1.5-11.7-5.7-16.3c-3.5-3.9-8-3.9-12.6-2.3c-5.4,1.9-6.1,4.9-2.1,8.8C729.4,588.1,731.6,590.6,734.3,592.5z"/>
		<path fill="#14667D" d="M667.5,599c4.4-0.3,8.7-2.2,12.9-3.8c1.1-0.4,1.6-2.6,3-5.2c-2.4,0.8-3.7,1.2-4.8,1.6
			c-0.1,0-0.2,0.1-0.3,0.1c0.2-0.9,0.3-1.8,0.7-2.6c0,0,0,0,0,0c0-0.1,0.1-0.2,0.2-0.3c0.1-0.1,0.2-0.2,0.2-0.3
			c4-4.2,1.9-7.1-1.7-10c-4.1-3.2-7.3-1.2-9.9,2.1c-2.3,2.9-4.4,5.9-6,9.2C659.4,594.7,662,599.4,667.5,599z M675.1,584.9
			c3.8,1.8-2.7,6.5,3,7h0c0,0,0.1-0.1,0.1-0.1c0,0,0.1,0.1,0.1,0.1c-0.1,0-0.1,0-0.2,0c-0.3,0.3-0.7,0.7-1,1
			c-2.7,2.2-5.9,2.6-10,1.3C670,590.7,672.6,587.7,675.1,584.9z"/>
		<path fill="#14667D" d="M667,443.3c7.6,2.1,11-3.9,16.1-7.7C674.7,432.4,667.5,436,667,443.3z"/>
		<path fill="#14667D" d="M703.6,401.5c4.9,0.1,8.8-4,8.8-9.1c0-5.1-4.1-9.6-9-9.8c-4.7-0.2-8.8,4.5-8.8,9.8
			C694.7,397.2,698.9,401.5,703.6,401.5z"/>
		<circle fill="#14667D" cx="682.2" cy="156.7" r="6"/>
		<path fill="#14667D" d="M726.9,149.1c-1.7,0-3.2,0.7-4.3,1.8c-0.7,0.6-1.3,1.4-1.4,2.4c-0.2,0.6-0.3,1.2-0.3,1.8c0,3.3,2.7,6,6,6
			c3.3,0,6-2.7,6-6C732.9,151.8,730.2,149.1,726.9,149.1z"/>
		
			<ellipse transform="matrix(0.9871 -0.1602 0.1602 0.9871 -51.7515 122.3287)" fill="#14667D" cx="732.9" cy="382.2" rx="6" ry="6"/>
		
			<ellipse transform="matrix(0.9732 -0.2298 0.2298 0.9732 -69.8407 165.4303)" fill="#14667D" cx="675.5" cy="382.6" rx="6" ry="6"/>
	</g>
</g>
<g>
	<g>
		<path fill="#B99C98" d="M924.9,402.8c0-109.1,0-229.6,0-350.1c0-20.7-10.1-30.8-30.9-30.5c-18.1,0.3-36.2,0.8-54.3,1.4
			c-18.1,0.6-27.8,10.7-27.9,28.8c-0.1,18.6,0,37.3,0,55.9c0.4,222.7,0.9,445.5,1.3,668.2c0,8.1,0,8.2,8.1,8.2
			c33.1,0,66.2-0.1,99.2,0.1c5.1,0,6.4-1.4,6.4-6.5C926.1,657,925.5,535.6,924.9,402.8z M913.2,641.7c-7.7,0.6-14.6-0.3-19.4-5.5
			c-5.3-5.7-10.2-12.1-13.5-19.1c-4-8.5-6.2-17.9-9.2-26.9c-0.2-0.7-0.1-1.6,0.9-2.9c0.8,1.2,1.5,2.3,2.3,3.5
			c6.3,9.7,12.4,19.5,19,29c3.7,5.4,9.8,6.7,16.5,4.5c1.6-0.5,3.2-1.3,5.5-2.3c0,5.3,0,9.8,0,14.3c-0.3,0.1-0.5,0.2-0.8,0.3
			c-1.2-2.9-2.3-5.8-3.5-8.8c-0.3,0.1-0.5,0.2-0.8,0.2C911.1,632.3,912.1,636.6,913.2,641.7z M890.4,547.3
			c6.1,0.2,10.4,2.4,12.9,7.8c1-6.2,0.9-6.4-9.2-11.2c6-2.6,9.5-3.1,12.1,0.5c2.1,2.9,3.2,7.3,3,10.9c-0.3,5.3-4.1,8.9-9.3,10.2
			c-1.3,0.3-3.1-0.8-4.5-1.5c-0.7-0.4-0.9-1.5-1.5-2.1c-1.9-2-3.9-3.8-5.9-5.7c-0.4,2.8-1.3,5.7-1,8.4c0.9,9.3,1.1,9.1,10.5,9.5
			c5.6,0.2,11.1,1.1,17.1,1.7c0,10.4,0,20.3,0,31c-9.2-8-16.8-5.5-24.2,4c-5.3-8.4-10.1-16-14.8-23.5c13.1-10.2,13.1-12,0.2-35.4
			c8,1.6,15,3,21.9,4.4C898.2,553.3,898.2,553.3,890.4,547.3z M910.9,613.6c-0.5,3.8-3.2,5.6-7.2,5.5c-3.9-0.1-5.7-2.4-6-6
			c-0.3-3.5,3.5-6.8,7.4-6.7C908.5,606.5,911,609.4,910.9,613.6z M874.7,571.8c-1-5.2-2.1-10.4-3.1-15.6
			C875.3,560.9,877.5,565.8,874.7,571.8z M868.9,579.4c-2.2-3.1-6.1-6.2-6.3-9.4c-0.3-4.9,1.9-9.9,3.4-16.1
			C873.8,562.1,874.8,574.6,868.9,579.4z M909.9,571.2c-1.3-0.4-2.7-0.6-5.1-1.1c6.7-7,9.7-14.8,6.4-23.8c-0.8-2-2.9-3.6-4.3-5.3
			c1.9-2.6,4.1-5.8,6.4-9.1c-18.3,12.1-38,14.8-58.7,12.3c-6-0.7-11.7-1.5-18.2,2.4c2.4,1,3.8,1.6,5.4,2.2c-2.1,2.7-7.3,3.3-5.2,8.6
			c3.4-1.2,6.8-2.3,10.1-3.4c0.5,0.5,1,1.1,1.5,1.6c-2,2.7-3.5,6.4-6.1,7.8c-1.8,1-6.1-0.5-7.8-2.2c-2.7-2.7-5-6.4-6.1-10.1
			c-1.4-4.8,1-7.8,6-10.5c-2.4-5.3-4.8-10.6-7.1-15.6c-2.1,2.6-2,4.6,0.3,10.7c0.7,1.9,1.4,4.8,0.5,6.3c-5.3,8.8-2.5,16.5,2.6,24
			c1,1.5,2.1,3,3.5,5c-3.7,0.4-6.8,0.8-10.4,1.2c-0.3-2.1-0.7-3.9-0.7-5.8c-0.2-12.7-0.4-25.3-0.3-38c0.1-9.3,5.4-14.5,13.7-13.6
			c-0.9,1.3-1.6,2.4-2.5,3.4c-4.5,5.1-4.5,9.9,0.1,14.8c5.8,6.1,13.4,8,21.3,9.3c13.7,2.2,27.1,0.6,39.8-4.5
			c10.9-4.4,12.6-9.8,7.6-20.4c-0.6-1.4-1.2-2.8-1.9-4.3c7,0.7,13,6.1,13.3,12.3c0.5,13.9,0.6,27.8,0.9,41.7
			C915.2,571.2,913.5,572.3,909.9,571.2z M822.8,514.5c0-3.8,0-7,0-10.4C829.2,510.2,829.2,511.5,822.8,514.5z M852,456.4
			C852,456.4,852,456.4,852,456.4c0,0.1,0,0.1,0.1,0.2c0,0,0,0,0,0l0,0c0,0,0,0,0,0c0,0,0,0,0,0l0,0c0,0-0.1,0-0.1,0
			c-1.2,5.2-2.4,10.5-3.6,15.7c-5.1-2.4-7.9-7.1-6.6-11.1c0.4-1.3,1-2.3,1.7-3c0.3-0.4,0.7-0.7,1.1-0.9c0.2-0.2,0.5-0.3,0.8-0.4
			c1.9-0.8,4.1-0.7,6.6-0.2c0,0,0,0,0,0C852,456.5,852,456.4,852,456.4C852,456.4,852,456.4,852,456.4c-1.2-3.9-3.6-6.3-6.8-7.6
			c-0.6-0.2-1.2-0.4-1.8-0.6c-1-0.2-2-0.4-3.1-0.5c-6.9-0.5-8.9,5.1-11.3,10.1c-3.8-0.8-5.6-3.1-5.6-7c0-4.7-0.2-9.5,0-14.2
			c0.1-1.4,1.5-3.7,2.3-3.8c11.5-0.4,23.1-2.9,34.2,2c1.1,0.5,2,1.2,3.6,2.1C859.6,443.6,855.8,450,852,456.4z M837,306.4
			c4.3,4.5,8.9,8.8,13.6,12.9c3.9,3.5,8.5,6.3,11.8,10.2c2.2,2.5,2.8,6.4,4.2,9.7c-0.7,0.5-1.4,0.9-2,1.4
			c-6.9-11.3-18.6-16.3-28.7-23.4c-7.9-5.5-8.5-11.8-2.6-19.3c2.6-3.3,5.4-6.3,8.5-10c-0.4,6.5-0.7,12.1-1,17.5
			c-1-1.4-2.3-3.1-3.6-4.9c-0.5,0.1-1.1,0.3-1.6,0.4C836.1,302.8,835.9,305.2,837,306.4z M855.4,275.2
			C855.5,275.2,855.5,275.2,855.4,275.2c-3.4,7-5.2,14.2-2.6,22.6c1.1-1.2,1.8-2,2.8-3.2c4.2,8.5,12.3,4.4,18.4,6.4
			c0.5,0.2,1.3-1,2.1-1.3c2-0.8,4.1-1.5,7.6-2.8c2.4-4.8,2.1-11.4-0.2-18.1c8.2,9.2,9.5,20.4,2.5,29.8c-4.9,6.5-11.1,12-16.9,18.3
			c-5.5-4.4-10.6-8.1-15.3-12.3c-10.8-9.7-11.8-22.1-3-33.8C852.4,278.9,853.9,277.1,855.4,275.2z M868.3,280.9
			c1.8,0.4,4.4,2.5,4.5,4.1c0.1,1.6-2.2,4.4-3.8,4.7c-1.4,0.3-3.4-2.2-6.3-4.2C865.3,283.2,867.1,280.6,868.3,280.9z M896.6,291.7
			C896.6,291.7,896.6,291.7,896.6,291.7C896.5,291.7,896.5,291.8,896.6,291.7C896.5,291.8,896.5,291.8,896.6,291.7
			c0.3,2.1,0.6,4,1.1,6c1.3,5.9-1.4,11.5-5.7,13.6c1-5.4,2-11.5,3.2-17.5c0-0.1,0-0.2,0.1-0.3C895.4,292.9,896,292.4,896.6,291.7
			c-0.1,0-0.1-0.1-0.1-0.1L896.6,291.7L896.6,291.7c-0.7-1.3-1.4-2.6-2.1-3.9c0.5-0.4,0.9-0.8,1.4-1.1c3.6,3.6,7.7,6.8,10.6,10.8
			c4.3,6.2,3,12-3.1,16.5c-5.1,3.7-10.8,6.7-15.6,10.6c-5.8,4.7-11,10.1-17.4,15c0.9-2.6,1.2-5.8,3-7.7c5.1-5.2,10.7-9.9,16.1-14.7
			c3.1-2.8,6.9-5,9.3-8.2C902.8,303.7,901.7,297.5,896.6,291.7z M913.2,341.7c0,10.6,0,21.2,0,30.4c-4.3-2.6-9.8-5.1-14.2-8.8
			c-2.4-2-3.1-5.9-5.2-10.3C903.7,352.7,910,349.9,913.2,341.7z M913.1,313.9c0,5.4,0,9.9,0,14.6
			C907.5,320.9,907.5,320.9,913.1,313.9z M912.8,399.9c-2.5,1.3-6.1,0.7-9.2,0.8c-0.1-0.5-0.2-1-0.2-1.5c2.9-2.3,5.9-4.6,10-7.9
			C913.3,394.9,914,399.3,912.8,399.9z M871.4,357.4c-4.9-1.1-9.5-2.1-13.9-3.1c2.6-5.8,14.2-7.6,21.8-2.8
			C876.5,353.6,873.7,355.7,871.4,357.4z M883.4,372.3c-2,3-5.6,1.7-9.8,0c0.5-3.2,1-6.3,1.5-9.4c0.4-0.2,0.8-0.3,1.2-0.5
			C878.6,365.5,880.8,368.6,883.4,372.3z M859.6,361.3c3.7,0.2,6.2,1.9,5.9,5.8c-0.2,3.7-1.3,7.2-5.9,7.1c-4.5-0.1-5.3-3.8-6.2-6.9
			C854,363.4,855.7,361.1,859.6,361.3z M868.1,381.2c6.9,0.1,11.5,4.5,11.5,11c0,6.8-4.8,11.6-11.7,11.5c-6.6-0.1-12-5.4-11.8-11.7
			C856.4,385.7,861.5,381.1,868.1,381.2z M872.3,424.4c-1-0.2-1.8-3.9-1.9-6c0-1.4,1.3-3.6,2.5-3.9c8.5-2.3,13.1-8.4,16.4-16
			c0.6-0.3,1.2-0.5,1.8-0.8c2.1,3.2,6,6.5,6,9.7c0.1,7.4-2.7,14.9-10,17.7C882.8,426.7,877.2,425.3,872.3,424.4z M875.7,455.8
			c-5.1,0-8.8,0-13.8,0c2.7-4,4.8-7.2,7.9-11.8C872.2,448.8,873.9,452.1,875.7,455.8z M887.4,381.2c0.2-5.3,4.7-9.5,10-9.4
			c6,0.2,9.6,4,9.6,10.2c0,6.1-3.5,10-9,10.1C892.2,392,887.2,386.9,887.4,381.2z M883.7,340.1c7-5.6,13.4-10.6,19.7-15.7
			c4.5,4.4,6,10.8,3.3,15.3c-2.9,4.9-7.8,4.2-12.3,3.5C891.1,342.6,887.8,341.3,883.7,340.1z M832.1,325.4
			c6.7,5.4,12.9,10.4,19.2,15.4c0,0.6-0.1,1.2-0.1,1.7c-5,0.7-10.1,2.2-15,1.7c-2.5-0.2-5.6-3.4-7-6
			C826.9,333.9,828.3,329.5,832.1,325.4z M823,329.3c0-4.9,0-9.1,0-14.6c2.2,3,3.8,5.1,5.3,7.2C826.7,324.2,825.1,326.4,823,329.3z
			 M823.2,343.3c3.7,6.9,8.7,10.3,15.9,10.1c0.9,0,2.5,2.7,2.5,4.2c0,2.2-0.4,5.3-1.8,6.3c-5.1,3.4-10.7,6.1-16.6,9.3
			C823.2,364,823.2,354.3,823.2,343.3z M839.8,372.8c5.4,0,9.6,4.6,9.6,10.4c0,5.5-3.3,8.8-8.8,8.9c-5.8,0.1-9.7-3.6-9.8-9.3
			C830.7,376.7,834.3,372.7,839.8,372.8z M833.8,407.7c0.7-0.1,1.3-0.2,2-0.3c0.8-0.1,1.7-0.3,2.5-0.4v0c0-0.1,0.1-0.1,0.1-0.2
			c0,0,0.1,0.1,0.1,0.1c0,0,0,0,0,0c2.4-2.3,4.8-4.6,7.8-7.5c0.4-0.4,0.9-0.8,1.3-1.3c2.6,10.2,10.4,14.5,17,20.1
			c4.6,3.9,3.5,9.8,4,15c-0.5,0.2-0.9,0.3-1.4,0.5c-0.7-1.9-1.5-3.8-2.5-6.3c-3.2,5.1-6.5,2.4-9.4,0c-6.3-5.2-13-10.3-15.3-18.9
			c-0.2-0.6-1-1.1-1.7-1.6c0,0,0,0,0,0c0,0,0,0,0,0c0,0-0.1-0.1-0.1-0.1s0.1,0.1,0.1,0.1c0,0,0,0,0,0c-0.1,0-0.1,0-0.2,0
			c-3.7,6.5-0.3,11.9,4,17.7c-6.6,0.5-12.3,0.9-19.1,1.3c0-5-0.2-9.6,0.1-14c0.1-1,1.7-2.4,2.9-2.7c1.8-0.4,3.5-0.8,5.3-1.1
			C832.2,407.9,833,407.8,833.8,407.7z M823.1,465c0.2,0,0.5,0,0.7-0.1c0,6.7,0,13.4,0,20.1c-0.2,0-0.5,0.1-0.7,0.1
			C823.1,478.4,823.1,471.7,823.1,465z M855.8,468.7c2.9-5.5,10.3-8.3,17.4-6.7c5.2,1.2,9.3,6.2,9.4,12c0.1,6.3-4.7,8.8-9.5,12
			c-1.5-4.1-2.6-7.4-3.7-10.7c-0.6,0.1-1.3,0.2-1.9,0.3c-0.3,1.8-0.3,3.6-0.9,5.3c-0.6,1.7-1.3,3.8-2.7,4.7c-0.8,0.5-3.2-0.9-4.4-2
			C854.3,479.1,853.1,473.9,855.8,468.7z M903.5,499.9c0.9,2.7,0.8,5.8,1.1,8.7c-2.9-0.3-6.6,0.3-8.4-1.2c-4.2-3.4-8-6.7-13.8-6.6
			c-8,0.1-11.6,3.1-12.3,11.2c-0.3,3.1,0,6.1,0,9.2c-0.6,0.1-1.1,0.2-1.7,0.2c-1.4-6.1-2.7-12.2-3.9-17.5
			c8.9-3.9,16.8-7.3,25.3-10.9c0,0,0.1-2.2,0.5-2.3c3.6-0.6,7.4-1.1,11-1c1.1,0.1,2.2,2.3,3.3,3.5c-1.1,0.9-2.2,1.8-3.4,2.7
			c-0.5,0.4-1.2,0.5-2.3,1C900.8,498,903.1,498.6,903.5,499.9z M892.6,522.4c-3,2.3-6,4.5-9.8,7.5c1-7.5,6.1-12.9,5-19.6
			c-0.5-0.2-1-0.4-1.5-0.5c-1.2,2.7-2.5,5.3-4.2,9c0.3-5,0.6-8.8,0.9-14.1c2.8,1,6.6,1.2,8.3,3.1c4.3,5,6.5,11.4,5.1,18.1
			c-0.9,4.5-5.2,5.5-9.7,6.4c2.5-3.2,4.6-6,6.7-8.8C893.3,523.1,892.9,522.7,892.6,522.4z M879.9,509.2c-1.3,6.6-2.9,13.1-4.5,19.6
			c-0.9-0.1-1.9-0.3-2.8-0.4c0.7-6.8,1.2-13.5,2.1-20.2c0.1-0.8,2.1-1.9,3.2-1.8C878.7,506.5,880.1,508.4,879.9,509.2z M865.4,525.3
			c0.1,0.9-0.1,1.8-0.5,2.7c-2.1-6.5-4.1-13.1-6.4-19.5c-0.3-0.9-2.6-1.1-5.3-2.1c3.7,8.7,6.8,15.9,9.9,23.1c0.5-0.2,1-0.4,1.6-0.6
			c-0.1,0.2-0.2,0.5-0.3,0.7c-0.1,0.2-0.2,0.5-0.3,0.7c-0.1,0.2-0.2,0.5-0.2,0.7c-0.4-0.2-0.9-0.4-1.3-0.5c-0.2-0.1-0.5-0.2-0.7-0.2
			c-0.5-0.2-0.9-0.3-1.3-0.5c-0.6-0.3-1.2-0.6-1.5-1.1c-2.6-4.1-4.7-8.5-6.9-12.9c-0.7-1.5-0.9-3.3-1.4-5.2
			c-2.2,2.9-2.2,2.9-0.4,14.1c-1.5-3.2-2.8-6.4-4.4-9.5c-0.6-1.1-1.7-2.1-2.5-3c0,0,0,0,0,0c0,0,0,0,0,0c0,0,0,0,0,0
			c0,0-0.1,0.1-0.1,0.1c0,0,0,0,0,0c0.4,8.7,6.1,14.3,11.9,20.1c-5.9,0.8-13-2.1-14.9-6.4c-0.3-0.7-0.5-1.3-0.7-1.9
			c-1.2-4.4,0.3-8.4,3.8-11.8c0-0.1,0-0.2,0-0.3c0,0,0.1,0.1,0.1,0.1c2.3-2,4.4-4.9,7.1-5.8c8.1-2.8,11.9-1.6,12.5,6.7
			C863.3,517.1,864.9,521.1,865.4,525.3z M838.9,508.6c-1.2,1.1-4,0.4-6,0.5c0.6-2.8,0.7-5.9,2-8.4c0.8-1.4,3.5-1.8,6.8-3.2
			c-4.2-1.1-6.8-1.7-9.5-2.4c4-10,18.3-7.1,28.5,5.8C851.4,499.3,844.9,503.1,838.9,508.6z M914.3,515.5c-2.4-2.1-4.3-3.8-6.3-5.6
			c6.8-7.5,7.4-12.5,1.7-20.9c-6.8-10-15.7-6.4-24.9-2.6c8.2-7.9,15.9-15.3,24.7-23.7c0,4.6,0.2,8.4,0,12
			c-0.3,5.5-0.8,10.9,3.8,15.3c0.7,0.7,1,2.2,1,3.4C914.3,500.5,914.3,507.5,914.3,515.5z M913,484.2c0-7.6,0-15.1,0-22.7
			c0.4,0,0.7,0.1,1.1,0.1c0,7.5,0,15,0,22.5C913.7,484.2,913.4,484.2,913,484.2z M914.1,447.9c-0.3,2.6-1.8,5.1-2.4,6.8
			c-5.6-3.2-9.6-6.4-14.1-7.8c-2.1-0.6-5.5,2-7.8,3.7c-0.6,0.5-0.4,3.8,0.5,4.4c7.8,5.7,7.7,11.2,0.2,16.7
			c-4.5-10.9-9-21.9-13.7-33.2c0.6-0.4,2.2-1.1,3.5-2.2c3.6-3,6.5-2.5,10,0.7c6.1,5.7,11.6,5.7,16.3,0.6c-2.3-0.8-4.3-1.5-7.3-2.6
			c2.4-1.9,4.2-3.7,6.4-4.8c5.2-2.7,8.5-0.7,8.6,5.1C914.2,439.5,914.5,443.7,914.1,447.9z M914,423.8c-9.1-2.9-15.1,2.3-21.8,6.9
			c5.3-7.2,10.1-14.2,8.4-23.9c3.9,0.4,7.3,0.6,10.7,1.3c1.1,0.2,2.5,1.9,2.6,3C914.2,415,914,418.8,914,423.8z M913.8,178.1
			c0,0.9-1.6,2.2-2.6,2.5c-2.6,0.8-5.4,1.1-8.6,1.7c3.6-8.2,7.2-16.3,11.4-25.7C913.9,164.6,914,171.3,913.8,178.1z M868.8,152.2
			c11.3,11.5,11.4,33.1,0.5,54C857.4,193,857,168.4,868.8,152.2z M861.7,207.4c-7.1-9.9-18-17.3-20.1-30.5
			C851.1,185.2,857.8,195.3,861.7,207.4z M895.1,175.8c-1.4,13.4-10.4,22.1-19.1,31C878.9,194.4,886.5,184.8,895.1,175.8z
			 M884.4,174.1c-1.1-15.6-4.9-29.7-16.2-41.1c-10.2,11.7-13.6,25.5-15.3,40.6c-6.8-4.8-13.1-8.9-19-13.4c-3.3-2.5-4.4-9.4-2.5-13.1
			c0.4-0.8,1.9-1.6,2.8-1.5c16.1,2.3,25.1-7.2,32.7-19.2c0.4-0.6,0.7-1.2,1-1.8c0.1-0.1,0.3-0.2,0.8-0.7
			c7.8,14.6,18.1,23.8,35.6,19.2c3.7,8,2.9,13.1-3.2,18.1C896,165.4,890.6,169.3,884.4,174.1z M900.5,110.4
			c6.7,1.3,8.6,7.7,4.9,13.4c-1.5,2.3-2.8,5.3-2.8,8c0,4.1-1.9,4.7-5.2,4.8c-10.9,0.3-20-6.6-24.9-19.2c6.1-2.3,11.8-4.7,17.6-6.4
			C893.4,110.1,897.2,109.8,900.5,110.4z M867.9,53.3c5.5,0,10,4.5,10.1,10.1c0.1,6.2-4.8,11.6-10.6,11.6c-5.6,0-10-4.8-10-10.7
			C857.3,58.2,862,53.3,867.9,53.3z M835.9,112.2c3.9-0.9,8.3-0.3,12.3,0.3c2.7,0.4,5.2,1.9,7.9,2.7c2.6,0.8,5.4,1.4,8.4,2.2
			c-3.3,11-14.2,20.1-24.5,20.8c-3.3,0.2-5.1-0.3-5.1-4.4c0-2.8-1.6-5.9-3.3-8.4C827.9,119.7,829.3,113.8,835.9,112.2z M823.1,159.4
			c3.6,7.5,7.3,15.3,11.1,23.2c-3.6-0.4-7.1-0.8-11.1-1.2C823.1,173.9,823.1,166.5,823.1,159.4z M823.4,193.1
			c16.6-2.8,42.4,19.9,43.8,38.9c-2.5-4.9-4-9.6-6.9-13.2c-3.7-4.5-8-8.9-12.9-12c-5.7-3.7-11.8-1.9-18,2.2c2.2,1.7,3.8,3.2,5.6,4.3
			c5.4,3.3,10.9,6.4,16.3,9.7c7.7,4.6,12.3,11.2,13.2,20.4c-0.6-1.5-1.3-2.9-1.9-4.4c-4-9-11.2-13.8-20.6-15.3
			c-7.9-1.3-14.9,6.1-13.6,14c0.9,5,4.6,6.3,9,6.3c7.2,0.1,14.1,1.1,19.9,5.7c2.2,1.8,3.8,4.4,5.6,6.7c-0.4,0.3-0.8,0.7-1.1,1
			c-4.5-1.9-9-3.8-14.9-6.3c4.7,7,8.3,12.6,12.2,18c1.6,2.2,5.7,0.5,6.8-2.8c1-3.2,1.5-6.5,2.3-10c2.2,5.1,4.3,10,6.4,15
			c0.6-0.1,1.2-0.3,1.8-0.4c3.7-5.8,7.4-11.7,11.1-17.5c-0.3-0.4-0.5-0.8-0.8-1.2c-3.8,2.4-7.5,4.7-12.9,8.1c1-3.4,0.9-6.5,2.4-7.6
			c4.3-3.1,9-5.9,13.9-7.9c3.8-1.6,8.2-1.7,12.3-2.6c5.1-1.2,7.1-4.9,5.3-9.9c-2.3-6.6-8.8-10.9-15.5-8.4
			c-6.3,2.4-11.9,6.7-16.8,9.6c0.6-3.5,4.6-7.8,13.4-13.2c6.1-3.7,12-7.7,18.2-11.6c-5-4.9-14.2-6-19.6-1.1
			c-5.6,5.1-9.8,11.7-14.4,17.8c-1.1,1.5-1.6,3.5-2.5,5.5c-2.8-14.2,28.6-41.9,42.3-39.3c0,17.7,0,35.6,0,53.7
			c-6,1-11.8,1.9-17.6,2.8c0,0.3,0.1,0.7,0.1,1c5.8,0.4,11.6,0.7,17.9,1.1c0,14.1,0,28,0,42c-0.5,0.3-1,0.7-1.4,1
			c-2.5-2.8-5.2-5.6-7.6-8.5c-0.7-0.9-1.2-2.6-1-3.7c2.2-8.4,0.8-9.9-7.8-8.6c2.5-4.9,6.7-5.3,15.5-1.2c1.9-5.1,1.3-7.4-2.8-10.1
			c-7.3-4.9-20.7-2.9-25.4,3.8c-2.6,3.8-3.7,7.6-0.4,11.6c-2.2-1.8-4.4-3.2-6.6-4.1c-1.2-0.5-2.4-0.9-3.6-1.1
			c-1-0.2-1.9-0.3-2.9-0.4c0,0-0.1,0-0.1,0c-4.5-0.2-9,1.3-13.6,4.4c0,0,0-0.1,0.1-0.1c0,0,0,0,0,0c0,0,0,0.1-0.1,0.1
			c0,0-0.1,0.1-0.1,0.1c0,0,0,0,0,0c0,0,0,0,0,0c1.4-3.2,0.9-6.6-1.2-9.6c-0.2-0.3-0.4-0.5-0.6-0.8c-0.4-0.5-0.9-1-1.5-1.5
			c-0.5-0.5-1.1-0.9-1.8-1.4c-6-4.1-17.6-3.5-22.7,1.7c-1.8,1.8-2.4,4.7-4.1,8.1c5.5-1.2,9.1-1.9,11.6-2.5c0,5.1,0.3,9.3-0.1,13.4
			c-0.5,6.8-6,10.2-10.9,15.2c-0.5-2.1-1-3.2-1-4.3c0-13,0-26,0.1-39c0-1.4,0.9-2.7,1.4-4.1c0.9,1,1.8,2.1,2.8,3.1
			c1.2,1.1,2.6,1.9,3.9,2.9c0.4-0.5,0.8-1,1.1-1.4c-0.9-1.3-1.9-2.5-3.4-4.7c4.2-0.4,7.6-0.7,11.1-1c0-0.5,0-1,0.1-1.5
			c-3.7-0.2-7.4-0.6-11.1-0.6c-4.4,0-6.1-1.7-6-6.3c0.2-14.6-0.1-29.2-0.1-43.8C823,195.7,823.3,194.3,823.4,193.1z M857.6,236.7
			c-13.5-3.2-15.2-3.1-25.4,0.8c-0.4-4.4,1.9-6.5,5.1-7.3C845,228.2,851.3,231.1,857.6,236.7z M882.7,234.9c2-3.8,8.4-7,13.7-6
			c3.6,0.7,7.2,1.8,7.4,6C896.3,234.9,889.2,234.9,882.7,234.9z M824.2,391c2.6,2.9,5.2,5.8,8.7,9.7c-3.1,0.2-7.2,1.3-7.8,0.3
			c-1.6-2.9-1.8-6.5-2.5-9.9C823.2,391.1,823.7,391,824.2,391z M824.1,491.1c4.1-3.7,4.5-8.1,3.9-13c-0.4-3.7-0.8-7.4-0.9-11
			c0-1,0.9-2,1.5-3c0.9,0.4,2.2,0.7,2.5,1.4c4.5,9.5,13.2,14.3,21.3,19.8c3.2,2.2,5.8,5.3,8.7,7.9c-0.3,0.3-0.7,0.5-1,0.8
			c-16.2-15.8-24.5-15.1-37.7,2.9C822.9,494.9,822.9,492.2,824.1,491.1z M826.3,577c3.9-1.2,8.1-2.5,12.1-2.3
			c9.2,0.5,13.3-3.3,13-13.5c-0.2-8.5,0.1-8.8,9.5-7.9c-6.2,11.2-16.5,22.7,0.9,33.4c-5.7,7.4-6.7,17.2-14,22.1
			c-4.3-2.3-8-5.5-11.9-5.9c-3.8-0.4-7.9,2-12.6,3.4c0-2.1,0-5,0-7.8c0-3.5-0.4-7.1,0.2-10.5C824,584.3,819.8,579,826.3,577z
			 M841.1,614.3c-0.9,2.5-3.5,4.4-4.8,5.8c-5.5-0.7-8.1-2.8-8.1-6.7c0.1-3.7,2.9-5.5,6.4-5.8C838.2,607.5,842.2,611.2,841.1,614.3z
			 M822.8,622.4c2.8,1.2,5,2.5,7.5,3.1c7.4,1.8,13-1.6,17.2-8.9c5.7-9.6,11.9-18.9,18.2-28.8c0.6,1.1,1,1.6,1,1.9
			c-2.8,12.7-5.4,25.5-13.2,36.3c-6.9,9.5-15.9,15.5-28.8,16.6c1.6-5.4,3-10.1,4.3-14.8c-0.6-0.1-1.2-0.3-1.8-0.4
			c-0.9,2.8-1.9,5.6-3.1,9.2c-0.8-1.4-1.2-1.8-1.2-2.2C822.8,630.7,822.8,626.8,822.8,622.4z M835.9,649c-4,2-8,4-12.4,6.2
			C823.5,649.6,828,647.2,835.9,649z M869.6,711.5c-6.3-0.2-11.5-5.6-11.2-12.8c0.4-11.6,4.5-22.2,10.3-33.8
			c7.2,11.4,12.5,22,12.6,34.3C881.3,706.6,875.9,711.7,869.6,711.5z M904.6,682.4c-1.1,3.8-3.1,7.2-7.7,7.7
			c-4.9,0.5-8.6-1.5-10.5-6.1c-2.7-6.5-5.3-13-8.1-19.4c-1.5-3.3-3.2-6.7-5.4-9.6c-3.4-4.5-6.9-4-9,1.2c-2.5,6-4.5,12.2-6.7,18.3
			c-0.8,2.3-1.2,4.8-2.1,7.1c-2.4,6.7-6.5,9.9-11.7,9.4c-5.5-0.6-9.8-5.5-10.1-12.4c-0.5-12.2,2.6-23.8,11.2-32.6
			c12.7-13,21.3-27.8,24-45.8c0-0.3,0.4-0.5,1-1.3c1.2,4.8,2.4,9,3.4,13.2c2.8,12,8.5,22.4,17.7,30.5c10,8.7,13.9,20,14.7,32.7
			C905.4,677.5,905.2,680.1,904.6,682.4z M901.4,649.8c8.9-2.9,14.3-0.7,14.1,5.5C910.6,653.5,906,651.6,901.4,649.8z"/>
		<path fill="#B99C98" d="M868.9,615.8c-0.2,0-0.5,0-0.7,0c-0.3,3.7-0.7,7.5-1,11.2c-4.9,10.2-12.4,19.5-12.4,31.7
			c1.6-1.2,2.4-2.8,3.6-4.3c1.8-2.3,3.3-5.3,5.7-6.6c0.5-0.2,0.9-0.5,1.2-0.8c0.3-0.2,0.6-0.4,0.8-0.7c1.6-1.6,1.6-3.6,1-6
			c0-0.1-0.1-0.2-0.1-0.3c2.7,7.4,8.2,12,14.6,16.8c1.5,1.1,3,2.2,4.5,3.4c-0.3-10.1-6.4-15.8-9.6-22.8
			C873.2,630.7,871.3,623.1,868.9,615.8z"/>
		<path fill="#B99C98" d="M899,592.5c0.9,0.6,2.8-0.3,4.4-0.5c-3.2-3.5-5.5-6.1-8.2-9.1c5.6-1.1,12.7,5.8,11.1,9.6
			c-0.6,1.4-2.7,3-4.2,3.1c-2.1,0.2-4.3-1-6.5-1.5c-1.8-0.4-3.7-0.7-6.3-1.2c3.9,7.4,18.1,9.2,22.2,4c0.3-0.4,0.6-0.9,0.7-1.4
			c1.1-6.5-1.5-11.7-5.7-16.3c-3.5-3.9-8-3.9-12.6-2.3c-5.4,1.9-6.1,4.9-2.1,8.8C894.1,588.1,896.3,590.6,899,592.5z"/>
		<path fill="#B99C98" d="M832.2,599c4.4-0.3,8.7-2.2,12.9-3.8c1.1-0.4,1.6-2.6,3-5.2c-2.4,0.8-3.7,1.2-4.8,1.6
			c-0.1,0-0.2,0.1-0.3,0.1c0.2-0.9,0.3-1.8,0.7-2.6c0,0,0,0,0,0c0-0.1,0.1-0.2,0.2-0.3c0.1-0.1,0.2-0.2,0.2-0.3
			c4-4.2,1.9-7.1-1.7-10c-4.1-3.2-7.3-1.2-9.9,2.1c-2.3,2.9-4.4,5.9-6,9.2C824,594.7,826.7,599.4,832.2,599z M839.7,584.9
			c3.8,1.8-2.7,6.5,3,7h0c0,0,0.1-0.1,0.1-0.1c0,0,0.1,0.1,0.1,0.1c-0.1,0-0.1,0-0.2,0c-0.3,0.3-0.7,0.7-1,1
			c-2.7,2.2-5.9,2.6-10,1.3C834.7,590.7,837.3,587.7,839.7,584.9z"/>
		<path fill="#B99C98" d="M831.7,443.3c7.6,2.1,11-3.9,16.1-7.7C839.4,432.4,832.1,436,831.7,443.3z"/>
		<path fill="#B99C98" d="M868.3,401.5c4.9,0.1,8.8-4,8.8-9.1c0-5.1-4.1-9.6-9-9.8c-4.7-0.2-8.8,4.5-8.8,9.8
			C859.4,397.2,863.5,401.5,868.3,401.5z"/>
		<circle fill="#B99C98" cx="846.9" cy="156.7" r="6"/>
		<path fill="#B99C98" d="M891.5,149.1c-1.7,0-3.2,0.7-4.3,1.8c-0.7,0.6-1.3,1.4-1.4,2.4c-0.2,0.6-0.3,1.2-0.3,1.8c0,3.3,2.7,6,6,6
			c3.3,0,6-2.7,6-6C897.6,151.8,894.9,149.1,891.5,149.1z"/>
		
			<ellipse transform="matrix(0.9871 -0.1602 0.1602 0.9871 -49.6253 148.7041)" fill="#B99C98" cx="897.5" cy="382.2" rx="6" ry="6"/>
		
			<ellipse transform="matrix(0.9732 -0.2298 0.2298 0.9732 -65.4359 203.2609)" fill="#B99C98" cx="840.1" cy="382.6" rx="6" ry="6"/>
	</g>
</g>
</svg>
