<?xml version="1.0" encoding="utf-8"?>
<!-- Generator: Adobe Illustrator 27.3.1, SVG Export Plug-In . SVG Version: 6.00 Build 0)  -->
<svg version="1.1" id="Layer_1" xmlns="http://www.w3.org/2000/svg" xmlns:xlink="http://www.w3.org/1999/xlink" x="0px" y="0px"
	 viewBox="0 0 1200 800" enable-background="new 0 0 1200 800" xml:space="preserve">
<g>
	<path fill="#C49A6C" d="M590.4,90.6C590.4,90.6,590.4,90.6,590.4,90.6l-0.1,0.1C590.3,90.7,590.4,90.6,590.4,90.6z"/>
	<path fill="#C49A6C" d="M968.7,227.9c-0.4-0.4-0.7-0.9-1.1-1.3c-4.1,2.6-8.2,5.2-12.7,8.1c0.6-7.4,1.2-14.2,1.8-21
		c-0.5-0.1-0.9-0.2-1.4-0.3c-4.5,5.8-9.1,11.6-14.1,18.1c-3.2-6.2-6.1-11.9-8.9-17.6c-0.6,0-1.3,0-1.9-0.1c-0.9,6.5-1.8,13-2.6,19.5
		c-0.5,0.2-0.9,0.4-1.4,0.5c-3.8-6.5-7.7-13-11.6-19.7c-5.2,19.4,6.6,35.6,9.1,53.4c-2.8-0.1-5.3-0.2-8.4-0.4
		c2.7,9.6,13.6,15.9,24.2,14.5c9.9-1.3,24.5-14.1,24.3-21.5c-4.1,1.6-8.1,3.2-13.4,5.3c1.9-5.4,2.4-10.3,5-13.5
		c5.1-6.2,11.3-11.5,17.6-17.6c-3.5,0.9-6.6,1.6-10.8,2.7C964.9,233.4,966.8,230.6,968.7,227.9z"/>
	<path fill="#C49A6C" d="M383.1,18.3H264.7h-35h-3.8c-19.2,0-34.7,15.5-34.7,34.7v694.2c0,7.9,2.6,15.1,7,20.9
		c6.3,8.3,16.3,13.7,27.6,13.7h157.2c10.6,0,20-4.7,26.4-12.2c5.2-6,8.3-13.9,8.3-22.5V52.9C417.8,33.8,402.2,18.3,383.1,18.3z
		 M382.8,251.2c-0.7,1.7-3.9,3.3-6,3.3c-1.6,0-4.3-2.3-4.5-3.9c-0.5-4.1,0.1-8.3,0.2-12.5C380.1,238.3,385.3,244.9,382.8,251.2z
		 M382.6,214.6c4-0.5,6.3-0.9,9.1-1.3c-0.1,2.9-0.2,5.2-0.3,8.7C388.5,219.6,386.2,217.7,382.6,214.6z M372.3,230
		c-4.3-0.2-8.4-3-12.7-4.8c0.3-0.9,0.5-1.9,0.8-2.8c6.1,0.2,12.2,0.4,19.7,0.7C377.3,225.8,374.7,230.1,372.3,230z M360.7,238.3
		c-1.8,3.2-3.3,6.7-5.5,9.6c-0.9,1.1-3.3,1-5.1,1.4c0.1-1.5-0.3-3.4,0.4-4.3c2.6-2.9,5.7-5.5,8.6-8.2
		C359.7,237.3,360.2,237.8,360.7,238.3z M342.8,244.1c-4.4,5.6-2.9,9.2,3.8,11.9c7.6,3.1,13.4,0.8,18.2-7.5
		c-2.1,14.4-1.1,17.5,5.2,19.3c0.8-1.7,1.7-3.4,2.6-5.1c10.8,3.6,14.6,2.1,19.9-7.3c-0.1,9.6-0.1,19.2-0.3,28.8
		c-0.2,9.7-0.7,19.4-1,29.3c0.2-0.1-0.2,0.2-0.4,0.1c-23-9.8-42.2-0.3-60.4,12.5c-9.2,6.5-17.7,14.1-25.1,20.1
		c1-13.6,5.4-29.3,10.3-44.9c3.7-11.7,7.7-23.3,11-35.1c4-14.7,1.8-23.2-8.9-35.1c12.1,1.9,22.4,0.3,30.1-8.2c2.6,2.9,5,5.5,7.3,8.1
		C351.2,234.9,346.6,239.2,342.8,244.1z M388.5,573.9c-7.6,0.8-15.9,1.6-24.6,2.4c2.6-5.2,5.2-9.8,7.3-14.6c4-9.6,2.1-14.7-6.9-19.9
		c-1.6-0.9-3.2-1.7-6-3.3c15.4-1.3,26.5-6.9,29.6-21.9c1.6-7.9,2.9-16.3-7.6-21.1c3.8-2,6.8-3.6,11.4-6.1
		C390.4,518.6,389.5,546,388.5,573.9z M390.3,584.1c-0.4,11.7-0.8,23.1-1.3,36.2c-4.5-11.9-8.4-22.3-12.4-33
		C381.3,586.2,385.4,585.2,390.3,584.1z M321.4,650.1c-11.1,16.7-15.8,35.8-19.6,55.2c-0.7-0.2-1.3-0.4-2-0.5
		c0.4-12.4-0.2-25,1.6-37.2c2.3-15.4,6.6-30.5,10-45.7c1.4-6.5,5.5-10.2,11.4-12.6c6.7-2.7,13.5-5.4,19.9-8.7
		c8.2-4.1,15.2-9.9,18.9-17.3c4.1,13.8,8.9,27.8,12.5,42.1c3.5,13.7,0,26.8-7.2,38.6c-9.5,15.6-21.4,29.3-35.9,40.3
		c-4,3-10.9,2-17.5,2.9c1.1-19.9,5.2-38.1,16.3-53c10.8-14.7,24.2-27.4,36.3-41.3C348.9,622.5,332.6,633.2,321.4,650.1z
		 M269.3,693.4c-0.4,0.2-0.9,0.5-1.3,0.7c-2.7-3.9-5.8-7.6-8.1-11.7c-7-13-9.9-27.2-10.9-41.8c-1.2-17.5-1.8-35-9.4-51.3
		c-0.5-1.2-1-2.4-1.8-4.2c-10.8,11.3-8.5,27.7-16.5,39.6c-0.5-0.1-1-0.2-1.5-0.3c0.7-19.4,1.4-38.7,2.1-59.6
		c4.1,2.3,8.3,4.3,12.1,6.8c2.5,1.6,4.4,4,6.7,5.9c10.3,8.3,17.1,8.5,29.6,0.4c-5.4,19.5-8.1,38.6-8.2,58.1
		C262,655.5,262.8,674.8,269.3,693.4z M265.5,82.6c3.9-0.8,8.4,0.3,12.4,1.3c1.3,0.3,2.7,2.9,2.8,4.6c0.3,9.2,0.2,18.4,0.3,27.8
		c-6.6-5.8-14-11.5-20.5-18.1C254.1,91.6,256.5,84.5,265.5,82.6z M261.3,71.8c3-2.4,5.9-4.8,8.9-7.2c1.3,1.8,3.9,4,3.5,5.3
		c-1.8,5.9-7.3,2.4-10.9,4.2C262.3,73.4,261.8,72.6,261.3,71.8z M250.6,74.9c2-5.7,3.8-10.9,6.1-17.1
		C260.7,63.6,257,72.8,250.6,74.9z M272.3,115.5c4,3,7.5,6.7,11.2,10.1c-0.4,0.4-0.8,0.9-1.2,1.3c-1.4-1.1-2.8-2.1-4.1-3.2
		c-8.1-6.8-16.5-12.6-27.1-14.9c-5-1.1-8.8-8.1-8.7-14.2c0.1-5.3,1.7-7.5,7-9.1C250.8,100.3,261.7,107.7,272.3,115.5z M362.6,75
		c0.9,1.3,2.8,3,2.5,3.9c-0.8,2.3-2.6,4.3-4.1,6.4c-0.6-0.3-1.3-0.6-1.9-0.9c0.6-3.1,1.1-6.1,1.7-9.2C361.4,75.2,362,75.1,362.6,75z
		 M364.2,56.7c0.9-1,3.7-1.7,4.2-1.2c1.4,1.4,3,3.7,2.8,5.3c-0.4,3-2.1,5.8-3.5,9.2C362.7,67.4,360.9,60.1,364.2,56.7z M367.6,87
		c7.9,3.8,8.7,16.5,6.2,24.3c-1.9,5.7-4.4,9.6-11.5,11.3c-7.5,1.7-14.5,6.5-21.3,10.5c-6.9,4.1-13.3,8.9-19.9,13.4
		c-0.4,0.2-0.9,0.2-0.6,0.1c9.3-8.2,20.6-15.7,28.5-25.8C356.9,111,361.6,98.4,367.6,87z M354.6,135.1c-0.1-0.5-0.2-0.9-0.3-1.4
		c5.1-2,10.1-4.5,15.3-5.8c11.5-2.8,17.5,2.8,17.8,16.4C377.8,135.8,366.7,133.4,354.6,135.1z M376.4,150.7c-1,4.7-5.5,8.7-8.8,12.8
		c-0.3,0.4-3.2-0.3-4.1-1.3c-8.7-9.4-19.2-13.8-32.1-12.9c10.5-5.4,20.9-10.7,33.2-8.5c0.9,0.2,1.9,0.2,2.7,0.6
		C371.6,143.4,377.5,145.7,376.4,150.7z M302,229.3c6.7,11.1,4.6,24.2-5.3,32.7c-4.7,4-6.2,3.8-8.4-1.8c-11.8-30.1-9-46.3,11.5-73.8
		c-5.8,15.9-3.2,29.8,9.1,42c-2.8-1.5-5.7-3-8.5-4.5c-0.3,0.3-0.7,0.7-1,1C300.2,226.4,301.1,227.9,302,229.3z M250.8,211.7
		c4.1,7.2,2.6,10.8-4.6,12.2C248,219.4,249.4,215.6,250.8,211.7z M237.7,207.3c-2.7,0.5-5.4-0.5-4.5-3.7c0.5-1.9,3.1-4.7,4.7-4.6
		c3,0.2,5.9,2,8.9,3.2c-0.1,0.7-0.2,1.5-0.3,2.2C243.6,205.4,240.7,206.7,237.7,207.3z M248.6,174.1c-8.3-2.1-13.4-9-13.6-17.4
		c6.1,11.3,8.7,13,21.7,10.5c12.5-2.3,24.9-5.7,37.3-8.5c0.9-0.2,2,0,3,0.1c0.3,0.6,0.7,1.2,1,1.8c-3.8,3.1-7.2,6.9-11.5,9.1
		C274.6,175.7,261.7,177.4,248.6,174.1z M236.3,139.2c1.1-4.8,4.9-6.7,9.4-7.6c9-1.9,13.7,1.8,15.6,10.7c0.6,2.9,3.7,5.8,6.4,7.4
		c2.9,1.7,6.6,2.2,10.1,2.7c3.2,0.5,6.5,0.3,9.8,0.4c-7.2,4.2-15,4.9-22.5,3.5c-7.7-1.5-15.2-4.5-22.5-7.6
		C238.9,147.1,235.1,144.3,236.3,139.2z M267.1,193.9c0.6-0.4,1.3-0.9,2-1.1c12.4-3.9,22.9-10.7,30.3-21.9l1.3,1
		c-2.3,4.6-4.6,9.2-7.1,13.8c-4.2,7.7-8.4,15.3-12.7,23c-2.3,4.1-4.8,7.6-10.4,6.5c-4.6-0.9-7.5-3.7-8.2-8.1
		C261.4,202.1,262.1,197.1,267.1,193.9z M298.4,148.8c0.3-2,2.8-5,4.3-5.1c4.2-0.1,6.1,3.4,5.9,7.2c-0.1,1.7-2.4,3.2-3,4
		C299.9,154.8,297.9,152.2,298.4,148.8z M304.2,198.6c0.7-9.5,2-18.9,3.2-28.4c0.2-1.3,0.9-2.6,1.7-5c0.3,8.5,0.2,15.7,0.8,23
		c0.5,6.6,2.9,12.6,10,14.7c4.8,1.4,9.2,0,12.3-4.3c3.6-5.1,3.5-11.7-1.2-18.2c-3.7-5.1-8.1-9.7-12.7-15.2
		c17,8.8,27.6,32.1,23.1,49.6c-1.3,5.2-7.7,7.4-12,4.8c-3.5-2.1-7.4-4.1-11.3-4.8C307,213,303.4,209.6,304.2,198.6z M354.3,66.1
		c-3.1-2.7-5.5-4.8-8.3-7.2C352.6,56.2,354.7,58,354.3,66.1z M346.6,71.8c6.2,12.8,6.6,26-0.1,38.6c-6.1,11.5-15.2,20.3-27.4,25.5
		c21.1-20.7,36.9-42.5,17.4-73C341.4,63.9,344.5,67.4,346.6,71.8z M339.6,79.7c0.4,2.6,0.6,6.1-0.9,7.9c-9.8,12.5-18.5,25.6-23.4,41
		c-0.6-0.2-1.1-0.4-1.7-0.7c2.6-11.5,4.3-23.3,8-34.4c2-6,7-11.3,11.4-16.2C336.4,73.6,338.8,74.6,339.6,79.7z M318,69.7
		c-3.2,4.1-6.5,8.1-9.5,12.4c-4.5,6.5-5.8,13.4-2.9,21.1c1.7,4.6,2.2,9.7,3.2,14.6c-0.5,0.1-1,0.3-1.4,0.4
		c-1.1-3.5-2.6-6.9-3.1-10.4c-1.3-9.3-3.3-18.7-2.8-28c0.7-11.6,11-19.5,22.7-18.4C321.9,64.6,320,67.2,318,69.7z M298.9,131.1
		c-6.2-4.2-11.4-22.5-11.2-53.1c-1.6,0.3-2.9,0.5-5.6,1c4.4-9.7,11-15.5,19.4-19.8C284.2,82.8,290.1,106.9,298.9,131.1z M247.5,65.2
		c-0.9,2.7-2.9,5.1-4.4,7.6c-0.6,0.1-1.2,0.2-1.8,0.2c-0.9-3.2-2.1-6.4-2.5-9.7c-0.2-1.4,1.1-3.7,2.4-4.3c1.2-0.6,3.9-0.1,4.8,0.9
		C247.1,61.2,248,63.7,247.5,65.2z M239.9,119.3c3.5-0.9,7.7-1.8,10.7-0.6c10.9,4.6,21.3,10.1,32,15.2c-0.3,0.8-0.7,1.5-1,2.3
		c-7.2-3.1-14.3-7.1-21.8-9.2c-7.3-2-15.2-2-24.2-2.9C237.2,122.3,238.3,119.7,239.9,119.3z M228.7,96.3c-3.6-6.3-1.2-9.9,7.2-10.3
		C233.2,89.9,231,93,228.7,96.3z M227.3,139.9c-4.5,13.9,2.1,36.7,12.7,47.9c-5.2,2.2-10.2,4.3-15.8,6.7c0.8-23.8,1.7-48.3,2.6-74.3
		C227.6,127.7,229.4,133.3,227.3,139.9z M225.1,219.6c9.6,12.1,22.7,14.9,39.5,7.8c-6.5,15.3-6.8,28.9,1,42.2
		c-0.4,0.3-0.8,0.6-1.2,0.9c-1.6-1.9-2.9-4.2-4.9-5.7c-2.6-2.1-5.5-3.9-8.6-5.3c-0.9-0.4-2.6,0.8-4,1.2c0.5,1.5,0.8,3.1,1.6,4.4
		c1.1,1.7,2.7,3.1,3.7,4.9c4.2,6.9,1.1,13.6-6.9,15c-10.4,1.8-21.9-6.7-21.9-17.2C223.6,251.6,224.5,235.4,225.1,219.6z
		 M223.9,283.6c2.3,1.8,4.5,3.8,6.9,5.5c10.7,7.2,23.7,6,32.5-3.3c2.6-2.8,4.8-3,7.8-1.4c4.7,2.5,9.4,5,15.2,6.8
		c-2.6-6-5.3-12-7.9-18c-2.8-6.5-6.2-12.8-8-19.6c-1.3-5.1-0.4-10.8-0.5-16.3c0.7-0.1,1.4-0.1,2.2-0.2c0.7,3.3,0.8,6.7,2.1,9.7
		c3.4,8.2,7.1,16.2,10.9,24.2c1.9,4,4.8,4.2,8.6,1.7c13.5-8.9,19.6-21.1,17-37.9c8.6,8.9,8.1,18.5,4.7,28.5
		c-5.1,14.8-11.4,29.2-15.5,44.2c-9.5,35-11.8,70.5-3.5,106.2c0.1,0.5,0.1,1,0.3,2.6c-7.2-6.4-14.7-8.4-23.5-5.7
		c-1.2-6-1.9-12-3.5-17.6c-1.7-5.9-3.7-11.8-6.7-17.1c-2.8-5-3-9.4-1.6-14.7c5.8-21.3-2-53.8-28-67.2c-2.5-1.3-5.1-2.5-7.2-4.2
		c-1.6-1.3-2.5-3.4-3.7-5.2C223,284.3,223.4,283.9,223.9,283.6z M347.3,493.4c9.3-5.7,17.9-11.5,27-16.4
		c8.7-4.6,12.4-10.5,10.8-20.2c-1.8-11-7.2-20.2-14.3-28.6c-0.8-1-1.8-1.9-2.6-2.9c-0.2-0.2-0.2-0.7-0.6-2.4
		c5.6,0.2,10.6,0.4,17.2,0.6c-3.8-4.8-6.6-8.3-9.2-11.7c5-1.9,9.9-3.7,15.3-5.7c-0.3,25.9-0.7,52.2-1,77.5
		C375.4,486.9,361.7,490,347.3,493.4z M378.5,497.9c1,0,2.1,0.5,2.8,1.2c3.3,3,4.1,9.7,1.5,14c-1.4,2.3-3.3,4.3-5.1,6.6
		c-0.2-7.1-0.5-13.5-0.6-19.8C377.2,499.2,378.1,497.9,378.5,497.9z M246.5,435.8c1.3-3.5,3.3-4.9,6.5-4.6
		c8.5,0.7,15.6-1.1,20.8-8.9c2.8-4.2,9-3.6,14.6,0.4c2.4,1.7,4.5,4,7,5.6c2.3,1.5,5,2.3,7.5,3.4c-2.5,9.8-5,19.5-7.5,29.2
		c-0.2-0.2-0.7-0.8-1.1-1.5c-6.1-10.9-11.9-13-23.5-8.5c-6.3,2.4-12.7,4.8-19.9,7.5c3.6,2.7,7.2,5.5,10.5,8
		c-6.8,1.5-13.6,3-21.3,4.7c-8.1-6.6-8.5-13.9-0.9-23C242.3,444.5,244.8,440.2,246.5,435.8z M253.3,374
		c8.6,12.5,12.3,26.2,13.5,40.7c0.5,6.2-2,8.9-8.2,9.4c-4.2,0.4-8.5,0.5-12.8,0.8C243.2,419.4,248.5,382,253.3,374z M327,530.3
		c0.4-1.7,3.5-4,5.3-3.8c0.8,0.1,1.5,0.5,2.2,1.1c0.5,0.4,0.9,0.8,1.4,1.3c0.7,0.7,1.4,1.4,2.1,2c-0.2,0.2-0.5,0.4-0.7,0.7
		c-0.7,0.6-1.4,1.3-2.2,2c-1,1-2.2,2.1-3.6,3.4C329.3,534,326.7,531.8,327,530.3z M326.7,498.5c-1.4,0.3-3.3-2.1-6.7-4.4
		c3.5-2.6,6-5.5,7.4-5.1c2.5,0.8,4.5,3.6,6.6,5.6C331.6,496,329.3,498,326.7,498.5z M336.9,520.2c-1.6-0.2-2.9-2.6-4.3-4
		c1.4-1.3,2.7-2.6,5-4.7c2,2.7,3.1,4.2,4.3,5.8C340.3,518.3,338.5,520.4,336.9,520.2z M340.3,504.5c-2.4,2.9-5.2,2.4-9-1.7
		c3.4-1.2,6.1-2.2,8.7-3.1C340.1,501.3,341,503.6,340.3,504.5z M335.2,472.4c-2.6,4.4-4.3,9.4-11.3,8.9c-4.4-0.3-5.7-1.8-6.2-6.3
		c2.3-3.9,4-8.3,7-11.5c2.7-2.9,6.8-2.7,10.2,0C338.5,466.3,337,469.3,335.2,472.4z M325.4,512.5c-0.5,4.9-4.5,8.7-8.8,8.4
		c-4.6-0.4-7.5-3.6-7.2-8.1c0.3-5.3,3.3-8.5,7.8-8.2C322.2,504.9,325.8,508.4,325.4,512.5z M315.7,492.9c-0.6,0.7-2.2,2.4-3.8,4.2
		c-2.7-2.9-6.6-5.5-7.9-8.9c-1.1-3.1,2.4-4.8,5.9-4.8C315,483.6,316,486.8,315.7,492.9z M302.1,505.7c-2.5,3.3-8,1.9-12.8-3
		c3.9-6.3,8.3-8,12.4-4.8C304.9,500.4,304.1,503.1,302.1,505.7z M286.6,496.2c-0.7-0.2-1.3-0.5-1.9-0.8c0.6-2.4,0.6-6.2,2-6.9
		c2.2-1,5.4,0.1,8.2,0.3c0.1,0.7,0.2,1.4,0.3,2.1C292.3,492.7,289.5,494.5,286.6,496.2z M242.4,490.1c2.5-6.7,7.5-11.2,14.5-12.7
		c4.8-1,8.4,1.4,10.4,5.7c2.4,5.4,5.7,10,11.3,12.6c3.9,1.9,2.7,5.3,1.7,8.3c-1.5,4.4-2.1,4.7-9.4,4.1c-9.8,0.2-18.7-6.1-27.7-12
		C242,495.3,241.7,491.8,242.4,490.1z M247.7,535c3.3-4.9,7.1-9.5,10.9-14.5c-2.7-1.1-5.5-2.2-9.6-3.8c10.2-3.5,18.8-1.6,27.3,0.8
		c0.7,0.2,1.1,1.7,1.4,2.7c1.4,4.1,2.7,8.3,4.8,14.5c-4,4-9,10-15,14.9c-4.5,3.7-19.5-2.1-21.2-7.8
		C245.8,539.7,246.6,536.8,247.7,535z M269.6,475.9c-1.8-4.5,0.2-10.2,5.3-14.8c3.8-3.4,7.9-4.6,11.5-2.6c-0.2,5.5-0.4,10.2-0.5,15
		C276.6,468.6,275.2,468.8,269.6,475.9z M287.2,513.7c3.1-3.3,14.2-0.1,15.5,4c0.1,0.2,0.1,0.5,0.2,0.8c0,0.2,0,0.5,0,0.8
		c-0.2,3.5-4.7,6.8-9.7,6.6c-0.9-0.1-2,0.1-2.8-0.3c-2.5-1.3-6.4-2.5-6.9-4.5C282.9,519.1,285.3,515.7,287.2,513.7z M296.2,531.8
		c1.6,0.3,4.1,2.8,3.9,4c-0.3,1.9-2.5,3.4-4,5.1c-1.4-1.3-2.8-2.6-5-4.8C293.4,534.1,295.1,531.6,296.2,531.8z M304.3,542.6
		c1.4,0,2.8,2.1,4.2,3.3c-1.3,1.2-2.7,2.5-4.6,4.2c-1.7-2-2.8-3.2-3.9-4.4C301.4,544.6,302.9,542.6,304.3,542.6z M308.1,532.4
		c-0.3-3.1,1.7-5.6,6.5-6.1c1.7,1.8,3.5,3.6,5.2,5.4c-2.3,1.8-4.5,4.3-7.1,5.2C311.7,537.3,308.3,534.2,308.1,532.4z M320.7,540.6
		c1.8-0.7,5.4,0,6.6,1.4c4.2,4.9,7.9,10.2,11.2,15.8c2.3,3.8,1.1,8.4-2.5,10.4c-3.4,2-7.9,2.1-12,2.7c-0.7,0.1-2-1.2-2.3-2.1
		c-2.3-7-4.3-14.1-6.8-22.3C316.9,544.3,318.4,541.5,320.7,540.6z M320.2,579.5c4-0.7,8-1.3,12-2.2c5.1-1.1,9.5-3.3,11.4-8.7
		c0.3-1,1.2-1.9,2.1-2.5c11.3-6.9,12.6-10.4,8.1-21.8c6.9,3,9.5,6.7,7.2,13.2c-1.9,5.2-4.7,11.2-8.9,14.2
		c-10.9,7.9-19.9,17.3-28.4,27.5c-1.9,2.2-3.9,4.3-5.8,6.4c-0.5-0.4-1-0.7-1.5-1.1C317.6,596.3,318.9,588,320.2,579.5z M348.6,532.1
		c5.3-6.6,6.2-12.9,4.8-20.1c-1.2-6.1,5.5-13,11.4-11.7c1.9,0.4,4.5,4,4.3,5.9c-0.7,6.8-1.6,13.7-4,20
		C362.6,533.2,355.8,532.1,348.6,532.1z M381.9,397.2c-2.8,1.7-6.6,2.3-10,2.2c-4.7-0.1-9.4-1.3-14-2c0-0.4,0.1-0.8,0.1-1.2
		c6.5-2.7,12.9-5.7,19.6-7.8c1.8-0.6,6,0.8,6.3,1.9C384.4,392.4,383.5,396.2,381.9,397.2z M374.9,381.6c-4.6,3.2-9.9,5.5-15,8
		c-2,1-4.2,1.3-8.1,2.5c5.4-7,9.7-13,14.5-18.6c2.8-3.3,6.9-3.2,10-0.4C380,376.3,377.4,379.9,374.9,381.6z M351.1,385.7
		c-2.9-7.9,1.9-17.2,8.7-16.6C359.7,376,355.4,380.7,351.1,385.7z M354.4,403.3c-3.8,1.7-7.5,4.1-11.5,5c-3.4,0.8-4.6-1.4-2.8-4.8
		C342.9,398.5,347.6,397.7,354.4,403.3z M342,391.1c-3.8-4.5-7.8-8.9-11.2-13.7c-1.1-1.6-1.6-5.2-0.5-6.4c1.5-1.8,4.7-3.2,7-3
		c2,0.2,4.8,2.8,5.2,4.7c1,5.8,1,11.8,1.4,17.7C343.2,390.7,342.6,390.9,342,391.1z M335.6,393.3c-0.2,0.8-0.3,1.7-0.5,2.5
		c-4.2,0.1-10.2,2.1-12.2,0.1c-3.5-3.7-4.7-9.6-6.4-14.8c-0.3-0.8,1.8-3.3,2.8-3.3c2-0.1,4.7,0.4,5.9,1.8
		C329,383.9,332.2,388.7,335.6,393.3z M324.8,411.5c1.3-1.1,5.1-1.3,6.3-0.2c5.4,4.8,11.6,5.4,18.3,5c1.6-0.1,3.7,0.2,4.7,1.2
		c10.7,11.2,21.6,22.4,23.2,39c0.4,4-0.9,8.2-1.5,12.3c-0.6-0.1-1.2-0.2-1.7-0.3c-0.5-2-0.9-3.9-1.5-6.4c-11.4,0.2-21,4.3-29.3,11.7
		c-0.3-0.4-0.7-0.8-1-1.2c3.4-3.2,6.6-6.6,10.2-9.5c6.8-5.3,11.3-11.9,12.2-20.5c0.8-7.2-3.2-12.1-10.4-12.2
		c-4.9-0.1-8.7-1.5-12.6-4.6c-6.6-5.2-14.8-5.4-24.3-4.8C320.2,417.2,322.1,413.9,324.8,411.5z M340,433.8c2,2.4,6.4,3.3,9.8,3.8
		c6.7,0.9,8.2,2.7,6.1,9.1c-2,6.1-4,8.4-9.4,10.9c-3.1-5.7-6.9-12.2-14.5-10.1c-6,1.6-11.3,5.7-17.6,9c-5.6-5.7-6.6-22.6-0.7-29.2
		c0.7-0.8,1.9-1.6,2.8-1.5C324.8,426.7,333.6,426.1,340,433.8z M315.2,476.9c-6.9,0.2-13.9-1-16.5,8.5c-1.3-9.5,0.3-14.1,4.9-15.4
		C308.4,468.6,312.4,470.8,315.2,476.9z M223.7,298.8c22.2,4.2,39.9,39.2,29.2,59.7c-7.6-10.7-15.8-20.6-30.5-23
		C222.8,323.2,223.3,311,223.7,298.8z M222.6,350.1c8.4,6.2,16.6,12.4,25.2,18.7c-1.6,3.1-3,6-4.7,9.3c-2.8-4-5-7.9-7.9-11.2
		c-2.4-2.8-5.2-5.6-8.4-7.2C222.2,357.5,221.3,354.5,222.6,350.1z M233.9,376.9c5.1,9.9,7,20.3,4.1,31.4c-1.9,7.2-1.6,14.3,0.7,21.5
		c0.6,1.9,0.1,4.8-1,6.6c-1.9,3.1-4.8,5.7-7.2,8.6c-8.1,10.1-7.1,20.7,2.7,29.1c1.3,1.1,2.5,2.1,4,3.3c-5.6,8.3-5,16.9-2.4,25.8
		c0.4,1.5-0.7,3.6-1.4,5.2c-1.4,3.2-3.9,6-4.6,9.3c-1.8,8.1,0.8,11.5,10.9,15.8c-0.7,1.3-1.4,2.5-2,3.8c-3,6.5-1.2,12.6,4.9,16.3
		c1.7,1.1,3.6,2.5,5.5,2.7c10.4,1,10.9,9,12.3,16.8c-5.9,3.1-10.4,0.3-14.3-3.6c-6.9-6.9-14.5-12.3-25.3-12.7
		c0.4-63.7,0.8-127,1.2-190.9C228.2,367.9,231.4,372.1,233.9,376.9z M266.7,560.3c3.1-1.9,6.2-3.8,9.4-5.8c2.2,3.2,4.4,6.4,6.9,9.9
		C271.3,568.8,270.1,568.5,266.7,560.3z M275.2,670.7c3.4,11.2,6.8,22.5,10.2,33.7C278.2,703.8,270.5,678.6,275.2,670.7z
		 M283.9,645.1c-0.9,1.9-2,3.8-2.9,5.7c-0.5-0.1-1-0.1-1.5-0.2c-0.5-4.9-1.5-9.7-1.6-14.6c-0.5-19.6-0.5-39.1,6.7-57.8
		c2.5-6.5,5.8-10.4,13.3-9.9c6.2,0.4,8.2-4.7,11.4-9c-0.2,6.1,0.2,12.3-0.8,18.3c-1.5,8.9-2.9,18-6.2,26.4
		C296.9,617.9,290.1,631.4,283.9,645.1z M391.4,378.1c0,1.6-0.3,3.2-0.6,5.5c-2.3-1.5-3.8-2.5-5.5-3.6c1-4.4,8.5-9,0.8-13.4
		c-4.4-2.5-9.6-3.4-14.7-5.2c1.1-3.5,2.5-7.6,3.9-11.7c-0.4-0.5-0.9-1.1-1.3-1.6c-7.9,4.3-15.9,8.7-23.8,13
		c-0.3-5.1-1.1-11.2-7.3-15.8c-0.4,5-0.8,9.4-1.1,13.6c-6.6-0.2-12.8-1.3-18.7-0.5c-11.9,1.5-17.7,10-14.6,21.5
		c2,7.3,5.7,14.1,8.5,21.1c0.6,1.4,1.5,3.4,0.9,4.5c-2.5,5.1-5.5,9.9-9,16c-3.5-17.4-7.4-33.7-3-50.4c2.4-9,8.5-15.6,16.3-20.6
		c11.8-7.5,23.5-15.1,35.2-22.6c8.2-5.3,17-8.6,26.9-7.8c7,0.6,7.7,1.5,7.7,8.7C391.8,345.2,391.6,361.7,391.4,378.1z M325.3,162.1
		c-1.6-1-3-2.5-4.5-3.8c0.3-0.4,0.6-0.8,0.9-1.3c3.2,2.1,6.7,3.7,9.4,6.3c17.6,16.4,38,14.4,52-5.4c1.2-1.6,2.3-3.3,4.1-5.6
		c3.4,6.6,2.5,12.8,2.5,18.9c0,0.6-1.2,1.8-1.9,1.8c-5.6-0.1-5,4-6.3,7.7c-2.5,6.6-5.4,13.6-10,18.8c-5.9,6.9-15.5,4.7-18.9-3.7
		C346.9,181.7,338.2,170.3,325.3,162.1z M375.6,118.9c1.1-3.4,4-5,8.3-4.2c5.3,1,7.9,4.9,8.5,12.3
		C387.1,124.5,381.4,121.7,375.6,118.9z M374.7,71.2c1.5-3.3,2.5-6.3,4.1-8.8c0.7-1.1,2.9-2.3,3.8-1.9c1.4,0.6,3,2.3,3.3,3.8
		C387.2,70.5,383.7,72.8,374.7,71.2z M230.2,623.8c2.9,29.2,5.2,56.9,23.6,80.7c-11.2-0.4-21.8-0.8-33.5-1.2
		C222.2,677.3,216.2,650.3,230.2,623.8z M387,658.9c0.7,0.2,1.4,0.4,2.2,0.5c-0.6,15.9-1.1,31.9-1.7,48.5
		c-9.6-0.3-19.8-0.7-30.9-1.1C372.9,694.6,382.9,678.6,387,658.9z M392.7,198.6c0,0.8-0.6,1.8-1.2,2.3c-3.7,3.3-7.5,6.3-11.1,9.6
		c-6.2,5.7-21,6.4-27.2,0.9c-0.9-0.8-1-2.6-1.4-3.9c1-0.3,1.2-0.5,1.4-0.4c18.7,7.2,27.6-3,32.9-21.8c1.1-4,2.5-6.3,7.4-6
		C393.2,185.7,393.1,192.1,392.7,198.6z"/>
	<path fill="#C49A6C" d="M589.6,67.4c0.2-0.4,0.5-0.9,0.7-1.3C590.1,66.6,589.8,67,589.6,67.4z M589.5,67.6
		c-0.1,0.2-0.2,0.4-0.3,0.7c-0.1,0.2-0.2,0.3-0.2,0.5c0.2-0.4,0.4-0.9,0.6-1.3C589.6,67.5,589.5,67.5,589.5,67.6z M588.6,69.4
		c0,0.1-0.1,0.2-0.1,0.3c0,0.1-0.1,0.2-0.1,0.3c0.1-0.3,0.2-0.6,0.3-0.8C588.7,69.3,588.7,69.3,588.6,69.4z M588,71.2
		C588,71.2,588,71.3,588,71.2c0,0,0-0.1,0.1-0.2C588,71.1,588,71.1,588,71.2z M587.5,72.7c0,0.1,0,0.2-0.1,0.3
		c0-0.2,0.1-0.3,0.1-0.5C587.6,72.6,587.6,72.7,587.5,72.7z M587,75.6L587,75.6c0,0,0-0.1,0-0.2c0-0.1,0-0.2,0-0.3
		C587.1,75.3,587,75.4,587,75.6z M587,75.9C587,75.8,587,75.8,587,75.9C587,75.8,587,75.8,587,75.9L587,75.9z M586.9,76.7
		L586.9,76.7C586.9,76.7,586.9,76.7,586.9,76.7C586.9,76.6,586.9,76.7,586.9,76.7z M589.5,67.6c-0.1,0.2-0.2,0.4-0.3,0.7
		c-0.1,0.2-0.2,0.3-0.2,0.5c0.2-0.4,0.4-0.9,0.6-1.3C589.6,67.5,589.5,67.5,589.5,67.6z M589.6,67.4c0.2-0.4,0.5-0.9,0.7-1.3
		C590.1,66.6,589.8,67,589.6,67.4z M588.9,68.9c0,0,0-0.1,0.1-0.1C588.9,68.8,588.9,68.8,588.9,68.9L588.9,68.9z M588.5,69.7
		c0,0.1-0.1,0.2-0.1,0.3c0.1-0.3,0.2-0.6,0.3-0.8c0,0.1-0.1,0.2-0.1,0.2C588.6,69.5,588.6,69.6,588.5,69.7z M588,71.3
		c0-0.1,0.1-0.2,0.1-0.2C588,71.1,588,71.1,588,71.3C588,71.2,588,71.3,588,71.3z M587.5,73.1c0-0.2,0.1-0.3,0.1-0.5
		c0,0,0,0.1,0,0.1C587.5,72.8,587.5,73,587.5,73.1z M587.2,74.3c0,0,0-0.1,0-0.1C587.2,74.2,587.2,74.3,587.2,74.3
		C587.2,74.3,587.2,74.3,587.2,74.3z M587,75.6c0-0.1,0-0.2,0-0.2C587,75.4,587,75.5,587,75.6L587,75.6z M587,80.6
		c0,0.1,0,0.1,0,0.2C587,80.7,587,80.6,587,80.6L587,80.6z M587,75.9C587,75.9,587,75.9,587,75.9C587,75.9,587,75.8,587,75.9
		C587,75.8,587,75.8,587,75.9z M586.9,76.7c0,0,0-0.1,0-0.1C586.9,76.6,586.9,76.7,586.9,76.7L586.9,76.7z M586.9,77.7
		c0-0.3,0-0.6,0-1c0,0.2,0,0.3,0,0.5C586.9,77.4,586.9,77.6,586.9,77.7z M586.9,79.2v0.1c0,0,0,0.1,0,0.1
		C586.9,79.3,586.9,79.3,586.9,79.2z M587,80.5L587,80.5c0,0.1,0,0.1,0,0.2C587,80.7,587,80.6,587,80.5z M589.5,67.6
		c-0.1,0.2-0.2,0.4-0.3,0.7c-0.1,0.2-0.2,0.3-0.2,0.5c0.2-0.4,0.4-0.9,0.6-1.3C589.6,67.5,589.5,67.5,589.5,67.6z M589.6,67.4
		c0.2-0.4,0.5-0.9,0.7-1.3C590.1,66.6,589.8,67,589.6,67.4z M588.9,68.9c0,0,0-0.1,0.1-0.1C588.9,68.8,588.9,68.8,588.9,68.9
		L588.9,68.9z M588.5,69.7c0,0.1-0.1,0.2-0.1,0.3c0.1-0.3,0.2-0.6,0.3-0.8c0,0.1-0.1,0.2-0.1,0.2C588.6,69.5,588.6,69.6,588.5,69.7z
		 M588,71.3c0-0.1,0.1-0.2,0.1-0.2C588,71.1,588,71.1,588,71.3C588,71.2,588,71.3,588,71.3z M587.5,73.1c0-0.2,0.1-0.3,0.1-0.5
		c0,0,0,0.1,0,0.1C587.5,72.8,587.5,73,587.5,73.1z M587.2,74.3c0,0,0-0.1,0-0.1C587.2,74.2,587.2,74.3,587.2,74.3
		C587.2,74.3,587.2,74.3,587.2,74.3z M587,75.6c0-0.1,0-0.2,0-0.2c0-0.1,0-0.2,0-0.3C587.1,75.3,587,75.4,587,75.6L587,75.6z
		 M587,80.6c0,0.1,0,0.1,0,0.2C587,80.7,587,80.6,587,80.6L587,80.6z M587,75.8L587,75.8C587,75.9,587,75.9,587,75.8
		C587,75.9,587,75.8,587,75.8C587,75.8,587,75.8,587,75.8z M586.9,76.7c0,0,0-0.1,0-0.1C586.9,76.6,586.9,76.7,586.9,76.7
		L586.9,76.7z M586.9,77.7c0-0.3,0-0.6,0-1c0,0.2,0,0.3,0,0.5C586.9,77.4,586.9,77.6,586.9,77.7z M586.9,79.3
		C586.9,79.3,586.9,79.4,586.9,79.3c0,0,0,0,0-0.1V79.3z"/>
	<path fill="#C49A6C" d="M680.8,18.5c-1.4-0.2-2.8-0.3-4.3-0.3H519.4c-0.8,0-1.6,0-2.3,0.1c-18.1,1.2-32.3,16.2-32.3,34.6v694.2
		c0,11.2,5.3,21.1,13.5,27.4v1h1.3c5.6,4,12.5,6.3,19.9,6.3h157.2c7.4,0,14.3-2.3,19.9-6.3c3.1-2.1,5.8-4.8,8-7.8
		c4.2-5.8,6.8-12.9,6.8-20.6V52.9C711.2,35.2,698,20.6,680.8,18.5z M683.3,468.7c-14.6,4.2-28.7,8.3-43.2,12.5
		c8.6-5.8,16.7-11.7,25.2-17c11.3-7.1,14.6-13.6,10.2-26.2c-2.6-7.4-7.3-14.1-11.2-21c-1-1.8-2.6-3.4-4-5.1c0.2-0.6,0.5-1.1,0.7-1.7
		h16.6c-3.6-4.3-6.6-7.8-9.5-11.3c5.1-2.1,9.9-4.1,15-6.3c0,0.4,0.2,1,0.2,1.7C683.3,419.4,683.3,444.4,683.3,468.7z M674.8,486.1
		c3.8,6.3,1.9,14.5-5,19.7v-21.7C671.2,482.8,673,483.2,674.8,486.1z M531.2,180.9c0.5,0.5,1,1.1,1,1.1c-5,2.6-10,5.2-15.4,8v-72.5
		c2.6,6.9,1.4,9.8,1,19.4C517.1,152.9,518.1,168.9,531.2,180.9z M535.8,161.8c4,1.4,9.1,0.6,13.5-0.3c12.6-2.5,25.2-5.6,37.8-8.5
		c0.5,0.2,0.9,0.5,1.4,0.7c-3.3,3.2-6.1,7.2-10,9.4c-11,6.3-23.1,8.3-35.5,6.4c-9.5-1.4-16-8.6-16.4-15.8
		C529.2,156.2,532,160.5,535.8,161.8z M531.3,129.2c8.3-5.8,18.2-2.1,20,7.7c0.8,4.2,3,7,6.9,7.7c7,1.4,14.1,2.2,21.3,3.2
		c-16.9,6.3-33,3.9-48.2-5.5C525.7,138.9,525.9,133,531.3,129.2z M592.8,137c4.3-0.5,5.9,3.1,5.9,6.5c0,1.6-2.4,4.3-4.1,4.6
		c-4.1,0.7-5.8-2.4-6.6-7.6C589.2,139.6,590.9,137.3,592.8,137z M589.1,88c0.1,0.2,0.2,0.5,0.3,0.7c-0.1-0.1-0.2-0.3-0.2-0.5
		C589.1,88.2,589.1,88.1,589.1,88z M590.5,91.1c3.7,6,5.8,12.4,5.5,19.5c-0.5,0.1-1.1,0.2-1.6,0.4
		C593.1,104.3,591.8,97.7,590.5,91.1z M625.2,181.3c-2-5.2-5.2-10.1-8.5-14.7c-2.3-3.2-5.8-5.6-8.4-8.6
		c11.6,4.3,24.5,22.2,25.2,34.8c0.3,4.6,0.2,9.4-0.8,13.9c-0.5,2.2-2.9,4.8-5.1,5.7c-1.8,0.7-4.5-0.9-6.8-1.6
		c-4.1-1.3-8.1-3.2-12.3-4c-9.7-1.9-13.2-5.7-12.7-15.6c0.5-9.5,1.5-18.9,2.3-28.4c0.1-1.4,0.8-2.7,1.6-5.4c0.6,9,0.8,16.6,1.9,24
		c0.5,3.3,2.2,6.8,4.2,9.5c3.4,4.5,9.1,5.4,13.6,3.1C623.7,191.8,627,186.1,625.2,181.3z M652.1,131.4c1.4,0.1,2.9,0.5,4.3,1
		c4.8,1.7,10.3,5,9.2,9.8c-1.2,5-6.1,9.2-9.7,13.6c-0.4,0.4-3.3-0.4-4.1-1.4c-8.1-10-18.3-14.3-31.3-12.9
		C630,134.9,640.3,130.6,652.1,131.4z M639.6,126.7c9.3-5.9,17.7-10.5,27.9-7.5c7.3,2.2,7.2,9.1,8.5,15.4
		C665.8,124.6,653.5,125.1,639.6,126.7z M622,156.1c17.6,15,36.2,12.7,49.9-6.1c1.4-1.9,2.7-3.9,4.1-6c2.3,2.3,4.9,16.3,3.5,18.5
		c-0.4,0.6-1.1,1.4-1.6,1.3c-5.9-0.5-5.6,3.7-6.3,7.6c-1.3,7.6-3.9,14.8-9.9,20.2c-6.5,6-13.9,5.2-17.5-2.6
		c-6.9-15.2-16.7-27.7-31.2-36.2c-0.9-0.5-1.4-1.5-2.1-2.3c0.4-0.4,0.7-0.8,1.1-1.2C615.4,151.6,619,153.5,622,156.1z M673.2,234.7
		c1.3,2.1,1.3,6,0.2,8.3c-0.7,1.4-4.6,2-6.9,1.7c-6.1-0.8-2.3-5.9-4.1-9.8c0.2-0.5,0.4-1,0.6-1.5c0.3-0.8,0.7-1.7,1.1-2.6
		c0.1-0.2,0.2-0.4,0.3-0.7c0.2-0.5,0.4-0.9,0.6-1.4c0.1-0.2,0.2-0.5,0.3-0.7c0.7,0.5,1.4,1.1,2.1,1.6
		C669.6,231.1,671.9,232.6,673.2,234.7z M673.1,205.6c3.8-0.8,6.1-1.2,9-1.8v8.5C679,210,676.8,208.4,673.1,205.6z M661.6,220.8
		c-3.9,0.1-8-2-11.1-7.6h20.3C668.6,216.8,666,220.7,661.6,220.8z M651.9,228.6c-1.9,3.5-3.6,7.1-5.8,10.4c-0.8,1.1-2.9,1.3-4.4,1.8
		c0-1.7-0.7-3.9,0.1-4.9c2.6-3.2,5.7-5.9,8.6-8.8C650.8,227.6,651.3,228.1,651.9,228.6z M635.5,233.6c-2.8,3.6-5.2,7.8-0.7,11.9
		c4.4,4,11.9,4.3,16,0.7c1.4-1.2,2.5-2.8,4.1-4.7c1.4,6.3-1.9,14,6.3,17.9c1.2-5.2,2.5-8.6,8.9-5.1c3.5,1.9,7.6-0.8,9.7-4.6
		c0.9-1.5,1.5-3.2,3-4.6V302c-17.8-8.3-33-2.3-47.9,5.2c-12.6,6.3-22.1,16.4-31.1,27c-1.2,1.4-2.4,2.8-5,4c1-6.5,1.4-13.3,3.1-19.6
		c4.8-17.2,10.2-34.2,15.2-51.3c1.3-4.3,2.6-8.6,3.1-13c1.7-15.4,0.4-19.2-9.7-30.3c16.2,0.6,20.2-0.7,28-8.2
		c2.7,2.1,5.4,4.2,7.8,6.2C642.8,225.8,638.8,229.5,635.5,233.6z M599.2,231.8c2,9.2-1.4,16.8-8.3,23c-4.1,3.7-5.3,3.4-7.7-1.5
		c-10.6-21.6-10.6-43,1.7-64c1.9-3.2,3.7-6.3,5.5-9.5c-0.9,23.3-0.9,23.3,12.5,42c-3.6-2-6.3-3.4-9.5-5.2
		C595.6,222,598.1,226.8,599.2,231.8z M572.3,204.2c-3.7,6.7-11,6.4-15.2,0c-4.2-6.5-2-15.3,5.2-18.3c11.3-4.6,21.5-10.3,27.9-21.3
		c0.4,0.3,0.9,0.5,1.3,0.8c-1.4,3.4-2.7,6.8-4.4,10C582.3,185.1,577.6,194.8,572.3,204.2z M540,217.4c1.7-4.4,3.2-8.3,5.2-13.7
		C548.8,213.4,547.2,217.6,540,217.4z M540,196.8v1.5c-2.6,1.1-5.1,2.6-7.9,3.3c-1.5,0.3-4.2-0.4-4.7-1.4c-0.7-1.6-0.4-4.1,0.4-5.7
		c0.4-0.9,3-1.5,4.3-1.1C534.9,194.2,537.4,195.7,540,196.8z M517,213.1c18.8,14.9,22,15.6,42.1,8.2c-7.1,14.1-5.8,27.6-0.1,41.4
		c-2-2.2-3.8-4.4-5.9-6.4c-1.4-1.4-3.1-3.2-4.8-3.5c-2.2-0.4-4.6,0.5-6.9,0.9c0.8,1.9,1.5,3.8,2.5,5.6c1,1.8,2.6,3.2,3.6,5
		c2.8,5,1.3,9.5-3.9,12.1c-5.7,2.8-11.5,2.3-16.4-1.4c-6.1-4.6-10.6-10.2-10.3-18.7C517.3,241.9,517,227.6,517,213.1z M517.3,277
		c5.8,3,11.1,7.1,17.1,8.8c9.2,2.6,17.3-1.2,23.7-7.9c2.7-2.8,4.9-3.1,8.2-1.2c4.3,2.5,8.9,4.5,14.5,5.9c-1.9-4.4-3.8-8.8-5.8-13.2
		c-3.4-7.6-7.5-15-9.9-23c-1.5-5-0.3-10.7-0.3-17.4c3.6,9.8,6.4,18.2,9.8,26.4c1.4,3.4,4,6.2,6.2,9.2c1.9,2.6,4,2.5,6.7,0.8
		c13-8,19.2-21.9,16.2-38.4c7.2,6.9,8,14.8,5.7,22.8c-2.7,9.3-6.3,18.3-9.5,27.4c-14.8,41.2-17,83.4-9,126.3c0.1,0.7,0,1.4,0,0.9
		c-7.1-1.5-14.3-3-22.9-4.8c-0.4-2.1-0.7-6.4-2-10.4c-2.6-7.5-5.4-15-8.8-22.2c-1.8-3.8-2.4-7-1.3-11.1c5.4-20,3.3-38.7-10-55.5
		c-6.7-8.5-15.9-13.4-25.6-17.6C517.1,281.4,516.6,279.4,517.3,277z M517.4,290.9c29.6,9.9,40.3,35,30.5,60.9
		c-7.3-11.6-15.9-21.2-30.5-22.9V290.9z M548.8,364.4c3.3,6.9,6.9,12.6,8.8,18.7c2.3,7.2,3.6,14.8,4.4,22.4c0.7,7-1.6,9-8.5,9.5
		c-2.1,0.1-4.1,0.1-6.2,0.3c-2,0.2-4,0.5-6.5,0.8C539.2,408.9,544.3,373.8,548.8,364.4z M542.6,425.7c0.8-1.4,2.5-2.7,4-3.1
		c2.7-0.7,5.7-0.1,8.3-1c4.1-1.4,9.1-2.6,11.5-5.6c5.8-7.4,12.7-6.1,18.9-1.1c3.4,2.7,7.1,4.9,11.4,7.8c-1.1,3.6-2.6,8.3-3.8,13.1
		c-1.2,4.8-2,9.7-3.2,15.3c-1.2-1.7-2.2-2.9-3-4.2c-5.4-8-9.4-9.4-18.4-6.1c-7.7,2.9-15.4,6-23.5,9.1c3.4,2.4,7.3,5.1,11.1,7.7
		c-6.1,1.9-12.1,3.9-18.2,5.5c-1.1,0.3-2.8-0.6-3.8-1.5c-5.4-4.7-5.5-11.2-1.2-18.2C536.3,437.8,539.2,431.6,542.6,425.7z
		 M668,368.8c-5.4,6.9-13.6,8.3-22.2,10.1c4.6-6.1,8.9-12.4,14.1-18c1.4-1.5,6.2-1.6,8.3-0.4C671.7,362.6,670.1,366.2,668,368.8z
		 M676.5,378c-0.8,2.4-0.9,6.1-2.5,6.9c-3.3,1.6-7.4,2.1-11.1,2.2c-3.9,0-7.8-1-13.3-1.8c7.8-3.5,13.8-6.6,20.1-8.9
		C671.5,375.7,674.2,377.4,676.5,378z M645.4,373.6c-0.7-0.3-1.3-0.5-2-0.8c-0.4-5,0.2-9.9,3.6-14c1.1-1.3,3.4-1.6,5.1-2.4
		c0.5,0.6,1.1,1.2,1.6,1.8C650.9,363.3,648.2,368.5,645.4,373.6z M648.1,390.5c-3.9,2.4-7,4.6-10.4,6.1c-1,0.5-3.5-0.4-4.2-1.4
		c-0.6-1-0.1-3.2,0.6-4.4C637.2,386.3,641.3,386,648.1,390.5z M635.6,379.6c-4-4.5-8.2-8.8-11.8-13.6c-2.4-3.1-1.9-6.4,2-8.3
		c3.7-1.8,7.8-1.4,8.9,2.5c1.8,6,2.1,12.4,3.1,18.6C637.1,379,636.3,379.3,635.6,379.6z M629.7,383.6c-10.7,4-18.8-1.2-19.3-11.8
		c-0.1-1.5,1.2-4.4,2.1-4.5c2.1-0.2,5.2,0.1,6.4,1.5C622.8,373.3,626,378.4,629.7,383.6z M618.2,400.9c1.2-1.1,4.3-1.3,5.8-0.5
		c6.3,3.3,12.5,5.8,19.8,3.9c0.9-0.2,2.5,0.2,3,0.9c8.7,10.1,19.3,19.2,21.6,33.3c0.9,5.4-0.2,11.1-0.5,16.6c-0.7,0-1.5,0-2.2,0
		c-1.3-7.7-1.6-8.2-9.2-5.1c-6.9,2.9-13.4,6.9-20.7,10.8c3-3.2,5.5-6.5,8.6-9.1c6.6-5.6,11.7-11.9,13.2-20.7
		c1.3-8.2-2.2-12.8-10.3-12.5c-4.8,0.2-8.4-1.2-12.1-4.4c-6.2-5.3-14.2-4.9-23-4.8C614.5,406.1,615.9,403,618.2,400.9z M589.4,517.3
		c-0.4-0.3-0.8-0.7-1.2-1c-1.6-0.4-3.3-0.6-4.8-1.2c-2.6-1-6.3-1.4-5.4-5.6c0.8-3.9,5.4-7,9.1-6.3c1.1,0.2,2.3,0.3,3.3,0.7
		c2.8,1.4,7.8,1.7,6.5,6C595.8,512.8,591.9,514.8,589.4,517.3z M594.5,525.2c-0.2,2.1-1.8,4.1-2.8,6.1c-0.7,0-1.3,0-2,0
		c-0.9-1.5-2.9-3.2-2.6-4.3c0.5-2,2.3-3.6,3.6-5.3C592.1,522.8,594.6,524.1,594.5,525.2z M579.3,487.4c-1.1-3.9-1-6.8,2.3-8.6
		c2.8-1.5,5.6-1.6,8.1,2C586.3,482.9,583.1,484.9,579.3,487.4z M591.3,487.1c2-0.3,4.4,2.8,6.7,4.4c-1.7,2.2-3.3,4.4-6,7.9
		c-3.5-3.1-5.8-5-8-6.9C586.4,490.6,588.6,487.6,591.3,487.1z M581.3,465c-10.1-4.7-11.8-4.5-16.3,1.9c-2.3-4.6-0.6-10.3,4.6-14.9
		c4.7-4.1,8.6-4.7,13.1-1.5C576.7,454.4,579.6,459.4,581.3,465z M598.4,532c1.7,0.6,3.3,2.4,4,4.1c0.3,0.6-1.9,2.3-3.7,4.3
		c-1.8-2.2-3.8-3.6-3.8-5C594.9,534.2,597.7,531.7,598.4,532z M598.2,479.4c-1-3.4,1.8-6.1,5.9-6.1c4.2,0,5.3,2.6,6.3,7.1
		c-1.8,2.1-3.5,4.2-5.3,6.3C602.7,484.3,599,482.3,598.2,479.4z M610.8,494.1c4.1,0.5,7.5,2.2,7.6,5.9c-0.1,6-3.7,10.1-7.6,10
		c-3.9-0.1-7.4-3.6-7.5-7.5C603.2,497.5,606.5,493.5,610.8,494.1z M628.5,459.3c-2,5.1-4.1,10.7-12.1,11c-2.7,0.3-4.4-1.2-3.8-4.9
		c0.9-5.3,1.4-11.3,6.9-13.8c2.5-1.2,6.3-0.4,9.1,0.6C629.4,452.4,629.3,457.1,628.5,459.3z M631.2,486.2c1.3,2.3,3,3.9,2.7,5
		c-0.4,1.5-2.2,3.2-3.7,3.5c-1.2,0.2-2.7-1.5-4.1-2.4C627.6,490.6,629,488.8,631.2,486.2z M616.3,482.7c-0.2-1.9,1.7-4,3.5-7.6
		c2.5,2.5,4.2,4.3,5.8,5.9c0.1,0.1,0.1,0.1,0.2,0.2c0.5,0.5,0.9,0.9,1.4,1.4c-0.6,0.5-1.1,0.9-1.7,1.4c-0.8,0.7-1.7,1.4-2.5,2.1
		s-1.8,1.2-2.7,1.7C619.8,488,616.6,484.7,616.3,482.7z M625.3,515.1c2.3,0.4,4.2,2.6,6.4,4.1c-1.6,1.8-3.1,3.6-5.5,6.4
		c-2.4-2.8-4.1-4.7-5.8-6.6C622.1,517.5,623.9,514.8,625.3,515.1z M631.1,509.1c-1.9-0.4-3.4-2.7-5.1-4.1c1.6-1.2,3.2-3.2,4.9-3.3
		c1.6-0.1,3.4,1.6,5.1,2.6c0,0.7,0,1.4,0,2.1C634.4,507.3,632.5,509.4,631.1,509.1z M616,414.9c6.8,0.1,12.5,2.1,17.5,7.1
		c2.4,2.4,6.9,2.9,10.5,3.6c5.7,1,7.1,2.6,5.4,8.2c-1.5,5.1-4.2,9.4-9.5,11.5c-9-15.7-20.2-12.1-31.4,0.6c-6.3-7-5.3-15.1-3.4-23.1
		C607.1,415.2,607.9,414.8,616,414.9z M608.9,466.3c-3.3,0.2-6.9-0.3-9.7,0.9c-2.5,1.1-4.2,4.2-6.2,6.4c-2.1-6.6-0.8-12,3.4-13.8
		C600.9,457.9,605.7,460.4,608.9,466.3z M554.2,469.7c3,0.2,6.3,3.2,8.8,5.6c3.5,3.4,6.2,7.6,9.8,10.9c3,2.8,3,5.5,2,9
		c-1.1,3.8-3.6,4.3-6.9,4c-8.4-0.9-16.5-2.7-23.7-7.6c-1.9-1.3-4.2-2.2-6.7-3.5C537.3,479.4,545.9,469.2,554.2,469.7z M546,523.4
		c2.8-3.7,5.8-7.3,9-11.3c-2.9-1-5.8-1.9-8.8-2.9c5.4-3.7,20.5-4,24.8-0.3c1,0.8,1.1,2.6,1.6,3.9c1.4,3.2,2.8,6.4,4.2,9.6
		c0.7,0.2,1.3,0.4,2,0.6c-4.6,5.5-9,11.3-14,16.5c-3.4,3.6-14.2,1.6-19.6-3.1C541.6,533,541.7,529.2,546,523.4z M571.8,545.2
		c2.1,3.3,4.1,6.6,6.2,9.9c-9,4.3-11.7,3.8-15.1-3.3C566,549.6,568.8,547.5,571.8,545.2z M579.7,569.3c2.3-6.5,5.2-11.3,13.2-11
		c6.2,0.2,7.4-5.6,10.1-10.1c1.6,18.1-0.1,34.8-8.4,50.8c-6.6,12.9-12,26.4-18,39.6c-0.7,1.4-1.5,2.8-2.2,4.2
		C569.8,617.6,571.1,593.1,579.7,569.3z M602.3,523.7c0.2-5.3,2.4-7.4,5.8-6.5c2.1,0.5,3.8,2.7,5.6,4.2c-2.2,1.9-4.2,4.4-6.7,5.3
		C605.7,527.1,603.4,524.4,602.3,523.7z M614.2,530c3.9-2.2,6,0.2,8.1,2.5c3.4,3.9,6.7,7.9,9.7,12.1c1.2,1.6,1.6,3.7,2,4.8
		c0.2,5.9-4.5,10-11.3,11.4c-5.4,1.1-6.8-2.4-7.9-6.4c-1.4-5-2.7-10-4.1-15C609.6,535.4,610.1,532.3,614.2,530z M614.4,571.2
		c0.2-1.1,2.6-1.9,4.1-2.5c4.9-1.7,11-1.9,14.5-5.1c4.8-4.4,9-9.5,14.1-13.9c3.9-3.5,3.4-8.8,0.5-16.2c6.1,2.2,8.9,8.2,6.1,15.1
		c-1.9,4.7-4.8,9.7-8.6,12.7c-11.2,8.7-20.2,19.3-29.2,30c-1.4,1.6-3.1,2.9-5.5,5.1C611.8,587.2,612.8,579.1,614.4,571.2z
		 M643.5,519.2c5.2-6.4,5.5-13.3,3.4-20.9c-1.5-5.4,6.1-12,11.4-10.2c1.7,0.6,3.8,3.6,3.6,5.3c-0.6,7-1.5,14-3.4,20.7
		C657,519.3,651.3,520.9,643.5,519.2z M683.3,364.6c0,2,0,4,0,7c-2.5-1.6-4.2-2.7-5.8-3.7c5.8-12.4,3.9-14.7-14.4-17.1
		c1.2-4.4,2.4-8.8,3.6-13.2c-0.4-0.4-0.8-0.9-1.1-1.4c-7.4,4.4-14.9,8.9-21.7,12.9c-1.8-4.4-3.7-9.3-5.7-14.2
		c-0.7,0.2-1.3,0.4-1.9,0.5c-0.5,4.4-1,8.7-1.4,12.8c-4.2-0.5-8.2-1.4-12.2-1.5c-16.3-0.2-24.1,9.9-19.5,25.5
		c1.6,5.5,4.6,10.5,6.8,15.9c0.7,1.7,1.6,4,1,5.6c-2,5.6-4.6,10.9-7.6,17.7c-3.4-16.7-6.6-32.1-3.9-47.8c2-11.5,8.7-19.8,18.7-25.9
		c9.2-5.7,17.9-12,26.7-18.3c7.7-5.5,15.7-10.1,25.1-11.6c1.3-0.2,2.6-0.4,3.9-0.3c8.3,0.4,9.5,1.7,9.5,9.9V364.6z M682.8,189.4
		c0,0.6-0.6,1.3-1.1,1.8c-3.7,3.4-7.6,6.6-11.3,10.1c-5.2,4.9-20.2,6.5-25.7,2.4c-1.2-0.9-1.5-2.8-2.7-5.4c3.2,1,4.9,1.5,6.6,2
		c8.1,2.2,15.2,0.2,19.6-6.9c3.5-5.8,5.5-12.4,8.5-18.6c1.1-2.2,3.1-3.9,4.6-5.9c0.5,0.3,1,0.7,1.6,1.1
		C682.9,176.4,682.9,182.9,682.8,189.4z M681.7,85.4c-2.9-2.1-5.2-3.7-7.9-5.7C680.2,77.5,681.6,78.4,681.7,85.4z M680.5,118.2
		c-5.5-2.6-11.4-5.4-17.5-8.3c2.1-2.7,4.3-5.9,9.4-4.4C678,107.3,680.1,110.5,680.5,118.2z M663.4,55.8c1.1-1.6,3-2.7,4.6-4.1
		c1.3,1.6,3.8,3.2,3.7,4.7c0,2.2-1.3,5.2-3.1,6.4c-1.8,1.2-4.8,0.7-8.5,1.1C661.6,60.2,662.1,57.8,663.4,55.8z M658.5,110.3
		c-0.8,1-2.4,1.7-3.8,1.9c-11.7,1.7-21,8-29.8,15.3c-5,4.2-10.5,7.9-15.7,11.9c-0.4-0.4-0.7-0.9-1.1-1.3c3.1-2.5,6-5.1,9.2-7.3
		c14-9.3,23.1-22.2,28.9-37.8c1.9-5,5.2-9.5,7.8-14.2C663.8,83.8,664.3,102.3,658.5,110.3z M649.5,49.5c0.8-1.1,2.9-2.3,3.9-2
		c1.4,0.4,3.3,2.4,3.2,3.6c-0.2,3.5-1.3,7-2.2,11.2C648.8,59.1,646.9,53.2,649.5,49.5z M645.9,66.5c0.8-0.2,1.5-0.3,2.3-0.5
		c1.1,1.7,3.3,3.8,2.9,5.1c-0.6,2.2-2.9,4-4.5,5.9c-0.6-0.3-1.2-0.6-1.8-0.9L645.9,66.5z M640.2,58.5c-2.9-2.5-5.4-4.6-8.7-7.4
		C638.9,49,640.9,50.8,640.2,58.5z M634,66.2c5.2,12.7,5.2,25.5-1.5,37.7c-5.8,10.6-14.1,19-24.5,25.3c-0.4-0.3-0.7-0.6-1.1-0.9
		c2.1-2.3,4.1-4.7,6.3-6.9c11.8-11.6,18.3-25.5,18.5-42.2c0.1-8.1-2.2-14.9-7.9-20.7c-0.8-0.8-1.3-1.8-1.9-2.7
		C628.4,56.7,631.8,61,634,66.2z M623.3,66.9c4.3,4.3,4.5,9.3,1.5,13.4c-9.1,12.3-17.1,25-21.7,39.7C605,100.5,604.2,80,623.3,66.9z
		 M589.1,68.4c0-0.1,0.1-0.2,0.1-0.2c0.1-0.2,0.2-0.4,0.3-0.7c0.2-0.5,0.5-0.9,0.8-1.4c3.4-5.5,9.1-10,16.7-12
		c1.2-0.3,2.4-0.6,3.6-0.8c-2,2.9-3.5,5-4.8,7.2c-4.9,7.8-9.8,15.6-14.4,23.6c-1,1.7-0.8,4.1-1,6.3c0,0,0,0.1,0.1,0.1v0
		c0,0.1,0.1,0.3,0.1,0.4l0,0c-0.1-0.1-0.1-0.2-0.2-0.3c0-0.1,0-0.2,0-0.2v0c-0.7-1.2-1.4-2.5-1.9-3.7c0,0.1,0.1,0.2,0.1,0.3
		c0-0.1-0.1-0.2-0.1-0.3c0,0,0,0,0,0c0,0,0,0,0,0c0,0,0,0,0,0c0,0,0,0,0,0c0,0,0-0.1,0-0.1c0,0,0,0,0-0.1c0-0.1,0-0.1-0.1-0.2
		c0-0.1,0-0.1-0.1-0.2c0.1,0.2,0.1,0.4,0.2,0.5c-0.2-0.5-0.4-1-0.5-1.6c0.1,0.2,0.1,0.4,0.2,0.6c0,0,0-0.1,0-0.1
		c0-0.1-0.1-0.3-0.1-0.4v0c0-0.1,0-0.1-0.1-0.2c0-0.1,0-0.1,0-0.2c0,0,0-0.1,0-0.1c0,0,0,0,0-0.1c0,0,0-0.1,0-0.1v0
		c-0.1-0.3-0.2-0.6-0.2-0.9c0,0.1,0.1,0.3,0.1,0.4c0-0.1-0.1-0.3-0.1-0.4v0c0,0,0-0.1,0-0.1v0c0,0,0,0,0-0.1c0,0,0,0,0,0
		c0-0.2-0.1-0.3-0.1-0.5c0.1,0.2,0.1,0.5,0.2,0.7c-0.1-0.3-0.2-0.7-0.2-1c0,0,0-0.1,0-0.1c-0.1-0.4-0.1-0.8-0.2-1.1
		c0,0.3,0.1,0.5,0.1,0.8c0-0.1,0-0.2,0-0.2c0-0.1,0-0.1,0-0.2c0-0.1,0-0.3-0.1-0.4c0-0.1,0-0.2,0-0.3c0,0,0,0,0,0c0,0,0,0,0-0.1
		s0,0,0-0.1c0-0.1,0-0.2,0-0.3c0-0.1,0-0.1,0-0.2c0,0,0,0,0,0c0-0.2,0-0.4,0-0.5c0-0.1,0-0.1,0-0.2c0-0.1,0-0.3,0-0.4
		c0,0,0-0.1,0-0.1v-0.2c0-0.1,0-0.2,0-0.4c0-0.3,0-0.5,0-0.8c0-0.1,0-0.1,0-0.2v-0.4c0-0.1,0-0.1,0-0.2c0-0.2,0-0.3,0-0.5v-0.1
		c0,0,0,0,0,0v-0.1c0-0.1,0-0.1,0-0.2c0,0,0-0.1,0-0.1v0c0,0,0,0,0,0v0c0-0.1,0-0.2,0-0.2c0,0,0,0,0,0v0c0,0,0,0,0,0v0c0,0,0,0,0,0
		c0,0,0-0.1,0-0.1v0c0-0.2,0-0.3,0.1-0.5v0c0-0.1,0-0.1,0-0.2c0-0.2,0.1-0.4,0.1-0.6c0,0,0,0,0,0c0,0,0-0.1,0-0.1c0,0,0-0.1,0-0.1
		c0-0.1,0-0.1,0-0.2c0-0.1,0.1-0.3,0.1-0.4v0c0,0,0,0,0-0.1c0,0,0-0.1,0-0.1c0,0,0,0,0,0c0,0,0,0,0-0.1c0,0,0,0,0,0c0,0,0,0,0,0
		s0,0,0,0c0-0.1,0-0.2,0.1-0.3c0,0,0,0,0,0c0,0,0-0.1,0-0.1c0,0,0,0,0,0c0-0.2,0.1-0.3,0.1-0.5c0,0,0-0.1,0-0.1c0-0.1,0-0.1,0.1-0.2
		c0-0.1,0-0.1,0.1-0.2c0,0,0-0.1,0-0.1c0,0,0,0,0,0c0-0.1,0-0.1,0.1-0.2c0,0,0,0,0-0.1c0-0.1,0-0.1,0.1-0.2c0,0,0-0.1,0-0.1
		c0-0.1,0.1-0.2,0.1-0.3c0,0,0-0.1,0-0.1c0,0,0-0.1,0-0.1c0,0,0-0.1,0.1-0.1c0,0,0,0,0,0c0,0,0-0.1,0-0.1c0,0,0-0.1,0-0.1
		c0,0,0,0,0,0s0,0,0,0c0,0,0,0,0,0c0-0.1,0.1-0.2,0.1-0.3c0-0.1,0.1-0.2,0.1-0.3c0-0.1,0.1-0.2,0.1-0.2c0-0.1,0.1-0.1,0.1-0.2
		c0,0,0,0,0,0c0,0,0,0,0,0v0c0,0,0,0,0,0v0c0,0,0-0.1,0.1-0.1C589,68.6,589,68.5,589.1,68.4z M587,50.8c0.6,0.4,1.3,0.9,1.9,1.3
		c-17.6,24.4-10.8,48.8-0.8,73.4c-6.1-7.1-9.1-15.6-10.5-24.7c-1.3-9-2-18.1-3-27.6c-1.1-0.3-2.8-0.9-6.3-2
		C575.1,63.9,581.1,57.4,587,50.8z M557.9,59.8c1.6,0.2,2.7,3.3,4.1,5.1c-3.3,1.6-6.7,3.2-10,4.8c-0.4-0.7-0.9-1.4-1.3-2.1
		C552.2,64.2,552.1,59.1,557.9,59.8z M555,76.7c1.5-0.9,4-0.4,6-0.1c7.1,1,7.5,2.3,7.4,9.4c-0.1,8.3,0.8,16.5,1.2,24.8
		c-6.5-5.5-13.8-11.1-20.4-17.5c-2.2-2.1-4.6-7-3.6-8.9C547.5,81.1,551.6,78.8,555,76.7z M544,54.5c0.5-0.2,1-0.3,1.5-0.5
		c0.5,1.4,1.6,2.9,1.5,4.3c-0.9,6.8-4,10.8-8.3,11C540.5,64.3,542.2,59.4,544,54.5z M538.1,82.6c1.9,11.8,10.5,18.3,19.3,24.8
		c6.1,4.6,11.9,9.7,17.8,14.6c-0.5,0.6-1,1.1-1.5,1.7c-2.6-2.1-5.3-4.1-7.8-6.2c-7.5-6.4-15.5-11.4-25.4-13.1
		c-6.6-1.1-7.6-7.1-8.5-12.3c-0.8-4.4-0.6-9,4.8-11.3C537.3,81.5,538,82,538.1,82.6z M529.1,54.4c1.1-0.8,4.2-0.1,5.4,1
		c1,1.1,1.2,3.7,0.7,5.4c-0.8,2.6-2.4,4.9-4.3,8.7c-1.8-3.8-3.7-6.6-4.3-9.7C526.3,58.2,527.7,55.4,529.1,54.4z M534.5,113.6
		c2.5-0.2,5.4,0,7.6,1c10.3,4.4,20.5,9.2,30.7,13.8c-0.3,0.8-0.6,1.6-0.9,2.4c-14.4-6.2-28.4-14.3-45.5-9.5
		C527.4,115.5,530.7,113.9,534.5,113.6z M525.2,81.7c-2.6,4.1-4.6,7.2-7.1,11.2C515.1,86.1,516.8,83.4,525.2,81.7z M539.5,358.2
		c2.5,1.7,2.9,3.5,1.4,6.1c-1,1.7-1.7,3.7-2.9,6.1c-5-8.7-10.3-15.9-19.1-20.1c-1.5-0.7-1.7-4.5-2.9-8.3
		C524.9,348.2,532.2,353.2,539.5,358.2z M518.1,358.8c5.7,2.3,9.1,6.9,11.9,12.3c6,11.3,4.5,23.1,3,35c-0.5,3.9-0.4,8.3,0.9,12
		c2,5.9,0.2,10-3.7,14.1c-2.4,2.5-4.6,5.4-6.3,8.5c-5.6,10.3-3.6,18.9,5.6,26.1c1,0.8,2.1,1.5,3.5,2.5c-6.2,8.4-5.6,17-2.8,25.9
		c0.5,1.5-0.5,3.7-1.1,5.4c-1.4,4.1-4,8.2-4.2,12.4c-0.4,6.9,5.3,9.6,11.2,12.1c-0.7,1.4-1.4,2.6-2,3.9c-3.2,6.7-1.1,13,5.4,16.5
		c1,0.5,2,1.3,3,1.4c9.6,1.4,14,7.1,13.5,17.2c-4.5,2.5-8.6,0.2-12.5-2.9c-2.8-2.2-5.1-5.2-8.1-6.8c-5-2.6-10.5-4.2-17.1-6.8V358.8z
		 M518.3,698.9c1.9-26.8-5.1-54.1,8.8-81.2c2.1,29.7,3.3,58.1,25.1,81.2H518.3z M564.1,686.8c-6.8-5.9-10.5-13-13.3-20.7
		c-5.9-16.6-6.4-34-6.7-51.3c-0.2-12.7-4.4-24.4-9.6-36.6c-9.4,11.5-9.3,26.2-15.9,39.8v-61.5c5.1,2.8,9.3,4.9,13.3,7.5
		c2.5,1.6,4.4,4.1,6.7,5.9c8.5,6.4,17.2,7.7,26.8-0.1C555.1,609,553.8,647.5,564.1,686.8z M580.4,696.9c-0.1,0-0.3-0.1-0.4-0.1
		c0,0,0,0,0,0c0,0,0,0,0,0c0,0-0.1,0-0.1,0c-0.9-0.4-1.8-1.1-2.7-2.1c-3.6-4-6.8-12.4-7.8-19.7c-0.1-0.4-0.1-0.9-0.2-1.3
		c-0.1-1.3-0.2-2.6-0.2-3.8c0-2.4,0.4-4.5,1.2-6c3.5,11,7,22.1,10.6,33.2C580.7,697,580.5,696.9,580.4,696.9z M616.9,698.1
		c-2.7-0.3-5.5,0-9.9,0c1.7-9.2,2.8-18.1,5-26.9c5.8-22.9,19-41.1,36.8-56.2c4.3-3.7,8.6-7.4,12.2-11.8
		c-40.9,17.8-59,51.8-64.8,94.3c-0.8-0.3-1.6-0.6-2.4-0.9c0-6.2-0.2-12.3,0-18.5c0.7-22.7,4.7-44.7,12-66.3
		c1.9-5.7,4.9-9.9,10.6-12.1c2.2-0.9,4.4-2.1,6.6-3c17.5-7.7,19.8-9.4,33.4-25.8c0.5,15.3,6,27.8,11,40.6c6.3,16.3,1.9,32-7.6,45.6
		c-8.7,12.5-19.3,23.7-29,35.5C627,697,622.5,698.7,616.9,698.1z M683.1,698.3h-32.4c16.9-13,26.6-29.8,32.4-49.4V698.3z
		 M683.3,609.9c-0.3,0.1-0.6,0.2-0.9,0.3c-4.5-11.3-8.9-22.6-13.4-34c5-1.3,9.5-2.4,14.3-3.7V609.9z M677.4,562.8
		c-6.5,0.6-12.9,1.5-20.5,2.5c1.3-2.4,2.2-4,3-5.7c1-1.8,2.2-3.5,2.9-5.4c4.6-11.8,7.1-18.5-8.7-25.2c-0.6-0.3-1.2-0.8-2.4-1.6
		c11.2-2.5,21.7-5.5,26-16.8c3.9-10,6.4-20.2-4.2-29.5c3.5-2,6.1-3.5,9.4-5.5c0.2,2.4,0.5,3.8,0.5,5.2c0,25-0.2,50,0,75
		C683.5,560.6,682,562.4,677.4,562.8z"/>
	<path fill="#C49A6C" d="M976.7,18.3c-0.8-0.1-1.7-0.1-2.6-0.1H816.9c-2.1,0-4.1,0.2-6.1,0.5c0,0,0,0,0,0
		c-16.2,2.9-28.5,17.1-28.5,34.1v694.2c0,7.7,2.5,14.9,6.8,20.7c1.8,2.4,3.9,4.6,6.2,6.4c5.9,4.7,13.4,7.5,21.6,7.5h157.2
		c19.1,0,34.7-15.5,34.7-34.7V52.9C1008.8,34.6,994.6,19.7,976.7,18.3z M976.9,78.3c-0.6,7.3-1.2,14.9-1.9,23.3
		c-5.9-3.4-11-6.3-15-8.6C965.2,88.5,970.9,83.5,976.9,78.3z M957.2,111.6c0.4-1.5,4.4-2.8,6.7-2.9c4.5-0.2,7.3,2.7,8,7.1
		c0.4,2.4,0.3,4.6-3.5,4.9c-1.5,0.1-2.6,3.2-4.3,4.4c-2.7,1.8-5.8,3-9.9,5.1C955.3,122.8,955.6,117,957.2,111.6z M968.7,172.9
		c0.1,4.2-4.1,8.9-7.3,7.6c-3.4-1.4-6-4.8-8.9-7.3c3-2.1,5.9-5.2,9.2-6.1C965.5,166.1,968.2,168.9,968.7,172.9z M953,156.6
		c0.9,1.2,1.8,3.3,1.4,4.4c-0.4,1.1-2.6,2-4,2.1c-8.4,0.8-10.4-1.5-10-11.3C945.8,151,949.9,152.7,953,156.6z M887.9,249.7
		c-1.4-5-4.9-10.3-9.1-13.6c-7.7-6.1-16.5-10.8-24.9-16c3-5.2,6.7-11.5,10.6-18.1c0.8,2.4,1.1,5.4,2.7,7.3
		c3.7,4.5,7.4,10.1,12.4,12.1c5.3,2.1,7.4,4.9,9.4,9.5c7.1,16.7,12.5,33.8,15.5,50.4c-6.1-5.9-12.8-12.3-19.1-18.4
		C886.3,258.6,889,253.6,887.9,249.7z M880.2,251.5c0.2,0.9-1.6,3.2-2.2,3c-4.9-1-4.3-5-4.7-8.7
		C878.7,244.4,879.5,248.1,880.2,251.5z M875.1,167.3c3.4-9.3,8.8-17.3,15.3-23.9c-3.2,10.3-6.3,20.7-9.6,31.4
		C874.7,175.6,872.8,173.7,875.1,167.3z M880.3,179.8c-1.1,3.2-2.2,6.4-3.2,9.6c-1.1-0.3-2.3-0.7-3.4-1c0.7-3.3,1.4-6.5,2.1-9.8
		C877.2,179,878.8,179.4,880.3,179.8z M873.4,96.2c8.2,8.4,12.2,18.3,16.3,27.9C880.6,117.2,869.8,111.5,873.4,96.2z M884.8,138.5
		c-5.5,2-11.1,4-16.9,6.1c-0.8-7.8,0.1-9,6.3-8.8c3.5,0.1,6.9,0.6,10.4,0.9C884.6,137.2,884.7,137.9,884.8,138.5z M875.1,124.8
		c-3.8-0.8-10.5,2.1-10.1-6.7C868.7,120.6,871.9,122.7,875.1,124.8z M875.4,150.1c0.3,0.5,0.6,1.1,0.8,1.6
		c-7.2,4-11.5,13.5-21.5,12.2c-0.4-0.7-0.7-1.5-1.1-2.2C860.9,157.8,868.2,154,875.4,150.1z M861.8,176.2c-0.3,4.1-0.7,8.2-1,12.3
		c-0.5,0.2-1,0.4-1.5,0.6c-1.5-1.4-4.4-3.2-4.2-4.1c0.9-3.3,2.9-6.4,4.5-9.5C860.4,175.7,861.1,176,861.8,176.2z M855.7,144.8
		c-2.1,2.8-10.7,1.2-15.7-1.6c10-10.6,10.5-10.9,19.4-10.4C858.1,137.3,857.9,141.8,855.7,144.8z M852.3,155.1
		c-4.6,1-9.2,2.2-13.9,2.8c-0.4,0.1-1.4-4.2-2.4-7.7c6.4,1,11.3,1.7,16.1,2.4C852.1,153.5,852.2,154.3,852.3,155.1z M841.2,131.9
		c-7.9,2.6-15.8,4.8-23.8,7.1c-0.2-0.7-0.5-1.3-0.7-2c2.2-5,6.7-7.1,11.5-8.6c3.6-1.1,7.2-2,10.9-2.4c1.5-0.1,3.1,1.4,4.7,2.1
		C842.9,129.4,842.3,131.5,841.2,131.9z M830.6,167.2c2.6,4.3,4.4,7.3,6.6,10.8c-4.4,1-9.3,2.1-14.1,3.2c-0.4-0.6-0.8-1.2-1.3-1.8
		C824.7,175.5,827.5,171.6,830.6,167.2z M835.4,167h16.3c0.4,0.6,0.8,1.2,1.2,1.9c-3,2.3-5.9,6.1-9.1,6.5
		C839.5,175.9,836.7,172.1,835.4,167z M851.5,188.9c2.6,2.4,5.4,4,5.3,5c-0.5,2.8-2.3,5.4-3.5,8.1c-0.6-0.2-1.2-0.4-1.7-0.6V188.9z
		 M883.3,199.6c1.4-8.1,2.5-15,3.6-21.2c4.9,1.6,9.2,3,14.3,4.7C896.7,189.3,893,196.2,883.3,199.6z M942.6,115.9
		c-1.5,8.7-22.1,21.4-32.7,19.2C917.4,122.6,930.9,120.1,942.6,115.9z M928,115.8c0.4-8,5.9-12.5,11.6-11.2c3.2,0.7,4,3.8,1.1,5.7
		C937.1,112.6,932.7,113.8,928,115.8z M920.5,97.5c-3.5,4.6-7.8,8.6-11.8,12.8c-0.6-0.4-1.1-0.7-1.7-1.1c1.5-5,3.1-10.1,4.6-15.1
		c1-3.4,3.3-3.5,6.1-2.6C921,92.5,922.3,95.2,920.5,97.5z M917.7,112.5c-1.9,8.7-8.2,13.1-14,18.5
		C903.6,122.6,909.8,114.3,917.7,112.5z M906.7,74.7c-0.9,3.5-3.4,6.5-5.4,10.3c-5.7-2.9-8-7.6-8.1-12.5c-0.1-2.6,2.8-5.9,5.2-7.6
		c1.4-1,5.8-0.1,6.7,1.3C906.7,68.4,907.4,72.1,906.7,74.7z M894.9,92.6c5.1,9.1,1.9,18,1.9,27.8C889.6,109.1,888.7,98.2,894.9,92.6
		z M900,175.8c-1.5,1.3-5.5,1.5-7,0.3c-1.6-1.3-2.6-4.9-2.1-7.1c1.2-5.9,3.3-11.6,5-17.5c0.5,0.1,1.1,0.1,1.6,0.2
		c1.7,5.7,3.9,11.2,5,17C902.9,170.9,901.7,174.3,900,175.8z M901.4,144.6c0.5-0.6,1.1-1.3,1.6-1.9c9.9,4.4,22.1,4.3,30.2,16.5
		c-4.3,0.5-8,2.2-9.9,1C915.7,155.5,908.7,149.9,901.4,144.6z M911.8,183.9c-0.4-6.5-0.9-13.1-1.3-19.9
		C919.7,173.7,920,180.8,911.8,183.9z M925,181.3c0.6,1.1,1.6,3.1,3.4,6.4c-4.8,1.1-8.8,2.1-12.8,3c0-0.3,0-0.7-0.1-1
		C918.6,187,921.6,184.3,925,181.3z M922.1,171.7c4.8,1.5,9,2.7,14.4,4.4c-1.8,2-3.2,4.8-4.4,4.7
		C926.9,180.5,924.4,176.6,922.1,171.7z M929.1,167.1c10-3.3,13-3.2,17.8,0.4C942.1,170.7,935,170.4,929.1,167.1z M919.4,141
		c10.1-1.6,19.8-8.4,30.9-3.1C946.6,144.6,931.7,146.1,919.4,141z M943,77.9c-3.3,16.8-5.5,19.8-18,23.9
		C927.1,85.3,933.2,77.2,943,77.9z M926.6,71.7c0.5,0.3,1.1,0.6,1.6,0.9c-1.6,5.4-3.3,10.8-5.1,16.8c-2.8-1-5.1-1.9-8.6-3.1
		C919,80.9,922.8,76.3,926.6,71.7z M894.5,56.5c5-2.8,11.9-1.6,15.5,2.4c3.9,4.4,4.5,12.5,1.1,18c0.6-7.1-1-12.7-8-15.3
		c-4.6-1.7-7-0.5-13.2,6.4C888.9,62.8,890.1,58.9,894.5,56.5z M870.3,76.1c5.3,6,11.9,9.6,11.3,18.1
		C872.2,90.6,869.4,86.5,870.3,76.1z M867.1,109c-4.6-3.2-8-6.9-6.6-12.6c0.4-1.7,2.5-3,3.9-4.5c0.9,1.5,2.5,2.9,2.6,4.4
		C867.3,100.3,867.1,104.4,867.1,109z M856.3,59.2c1.8,2.2,4.4,4.1,5.1,6.5c1.6,6.1,2.6,12.3,3.2,18.6c0.1,1.5-2.3,3.3-3.6,5
		c-0.8-0.3-1.5-0.5-2.3-0.8c-1.6-9.4-3.2-18.7-4.8-28.1C854.6,60,855.5,59.6,856.3,59.2z M855,98.9c-9.4-5.4-10.8-15.7-15.8-23.8
		C848.2,74.5,854.9,84.6,855,98.9z M852.2,109.3c-4.7,4.9-10.7,4.6-16.9-1.2C840.8,104.2,845.8,104.7,852.2,109.3z M822.5,78
		c2.9-3.4,6.7-2.3,9.1,0.8c2.3,3,3.6,6.7,5.2,9.9c-6.9,2.2-12.4,4-18.8,6.1C818.1,88.2,818.7,82.6,822.5,78z M817.6,111.9
		c6,1.8,12,4.1,18.2,5.2c5,0.9,10.2,0.5,15.3,0.4c2.2-0.1,4.3-1.1,7.7-2c-0.7,2.9-0.5,5.8-1.9,7.2c-1.1,1.1-4.1,0.8-6.2,0.4
		c-2-0.3-3.8-1.6-5.7-2.1c-3.2-1-5.9-2-9.6,0.6c-3.9,2.8-8.6,0.5-12.4-2.1c-2.2-1.6-4.3-3.4-6.4-5.1
		C817,113.6,817.3,112.7,817.6,111.9z M814.5,200.4c7.9,0.5,15.8,1.1,24.6,1.7c0-0.2,0-0.3,0.1-0.5v-0.1c-0.1-0.3,0-0.2,0,0
		c0.1,0.1,0.2,0.3,0.3,0.6c-0.1,0-0.3,0-0.4,0c-1.6,9.7,2.6,16.8,9.5,23.2c5.3,4.9,9.9,10.4,14.1,16.5
		c-12.8-8.7-22.9-21.6-36.7-23.7c10.3,12.3,21.9,26.2,33.5,40c0.6,0.2,1.2,0.3,1.7,0.6c-0.4,0-0.8,0.1-1.2,0.1
		c-0.2-0.2-0.4-0.4-0.6-0.7c-2.4-0.7-4.8-1.3-6.7-2.7c-8-5.8-15.7-12-23.6-18c-1.8-1.4-3.9-2.5-6.5-4.1c1.6,12,6.1,21.4,15,28.1
		c8.5,6.4,17.5,8.1,27.7,3.1c2.7-1.3,8-0.3,10.7,1.6c6.4,4.7,11.9,10.6,17.7,16.1c-0.4,0.5-0.8,1-1.2,1.6c-1.5-0.7-3-1.3-4.4-2.2
		c-15.9-10.3-33.7-9.7-51.5-8.5c-7.9,0.6-13.3,6.2-18,12.3c-1.1,1.4-2.2,2.9-4.1,5.4V200.4z M813.8,387.6
		c0.1-21.8,0.3-43.7,0.1-65.5c-0.1-10.9,3.3-20.5,9.4-29.3c7.6-11.1,16.1-14.7,28.9-10.4c23.4,7.7,41.3,22.8,53.7,44
		c1.7,3,2.8,6.6,3.1,10c1.5,15.8,0.4,31.6-3.4,47.3c-2-9.2-3.8-18.5-6.2-27.6c-4.3-16.2-12.7-29.8-26.8-39.2
		c-17.2-11.4-40.7-7.1-50.9,9.6c-6.6,10.9-6.7,22.3-1,33.6c4.1,8.2,13.5,12.2,22.3,10.1c6.2-1.5,10.7-7.1,10.2-12.9
		c-0.5-6.8-3.9-10.2-11.4-11c0.2,1,0.4,1.5,0.5,2.1c0.3,2.3,3,5.5-1.6,6.1c-3.5,0.4-6-1.3-6.3-5.4c-0.8-9,6.7-17.3,17.5-19.1
		c7.7-1.3,14.3,1.1,20.4,5.6c14.7,10.7,20.2,26.1,22.2,43.9c-32.5-5.7-62.1-4-80.7,30.3C813.8,401.2,813.7,394.4,813.8,387.6z
		 M880.2,494.3c0.6-0.5,1.3-1,1.9-1.5c2.2,1.2,4.9,2,6.5,3.7c6.3,6.7,10.1,14.8,11,23.9c0.6,6.5,0.3,13,0.1,19.6c-0.1,2-1.2,4-1.8,6
		c-0.9,0-1.8,0-2.7,0.1C897.1,526.8,888.3,510.7,880.2,494.3z M821.1,589.8c-0.7-3.2,1.5-5.4,4.7-6.4c5.6-1.8,20.6,3.9,24.6,9
		C840.9,591.6,831.4,590.7,821.1,589.8z M847.2,597.7c-7.7,3.1-15.4,6.2-23,9.3c-0.5-0.3-1-0.7-1.5-1c0.9-2.1,1.1-4.8,2.6-6.1
		c6.3-5.2,13.9-4.6,21.3-4.2C846.8,596.4,847,597.1,847.2,597.7z M827.4,573.4c13.8-3.1,26.7,5.1,29,17.7
		C846.3,584.9,836.8,579.1,827.4,573.4z M847.7,564c-2.9-8-7.3-10.1-15.2-8.6c-1.1,0.2-2.2,0.5-3.1,1.2c-2.5,1.7-4.6,4-7.3,5.4
		c-2.5,1.4-5.4,2-8.9,3.3v-45.8c1.3,1.4,2.2,2.2,2.8,3c5.5,7.2,13,10.9,21.6,12.8c3,0.6,4.5,1.9,5.2,5.3c3.8,17.1,15.3,26.1,32,29.3
		c0.9,0.2,1.8,0.3,2.7,0.5c0.1,0,0.2,0.3,0.8,1.3c-4.1,4.6-8.4,9.3-12.6,14C856.8,579,850.9,572.8,847.7,564z M883.5,540.6
		c-0.5,0.1-1,0.2-1.6,0.2c-2.7-8-5.6-16.1-2.5-24.7c0.7-1.9,3.7-4.4,5.1-4.1c3.4,0.8,2.1,3.5,1.4,6.2c-1.3,5.1-1.7,10.5-2.4,15.8
		C883.3,536.3,883.5,538.5,883.5,540.6z M883.1,556.1c-15.5-4.1-26.3-41.6-14.8-54.4c1.2,9.8,1.2,19.6,3.7,28.7
		C874.4,539.4,879.4,547.7,883.1,556.1z M887.7,563.9c-6.3,2-10.9-0.6-15.4-3.1c-19.8-11.3-23.7-42.6-17.1-56.6
		c0.7-1.5,1.6-3,2.6-4.3c3.3-4.5,4.4-4.4,8.2,0.2C850.9,519.3,859.6,545.4,887.7,563.9z M846.7,494.2c-0.4-9-0.8-17.4-1.1-25.2
		c5.4,5,10.1,9.4,14.4,13.4C856.4,485.6,851.9,489.7,846.7,494.2z M890.8,570.3c-1,6.1-1.7,11.1-2.5,16.1
		c-5.8,0.5-11.4,0.9-18.4,1.5C877.2,581.7,883.5,576.5,890.8,570.3z M889.1,549.4v-23.7c0.2,0,0.5,0,0.7,0v23.8
		C889.6,549.4,889.4,549.4,889.1,549.4z M902.9,549.6c2.1,2.1,4.2,4.2,7.6,7.5c-3.6,2.3-6.4,5.2-7.6,4.6c-2.4-1.1-5-4-5.3-6.4
		C897.5,553.7,901.1,551.6,902.9,549.6z M910,533.4c1.2-8.5,2.9-17.1,8.8-23.5c2.4-2.6,7.6-3.6,11.6-3.6c4.5,0,8.4,5.5,8.3,9.8
		c-0.1,5.4-4.1,7.3-8.7,9.1c0-3.9,3.6-8.6-2.1-10.4c-4.9-1.6-8.2,1.8-10.5,5.5C914.7,524.4,912.6,529,910,533.4z M926.2,519.8
		c-2.1,9.1-8.1,15.7-12.8,22.9C914.4,529.7,919.7,520,926.2,519.8z M937.4,539.9c-8.6,3.2-14.2,10.2-23.4,9.6
		c2.7-5.9,16.6-13.8,21.6-12.1c1.9,0.6,3.9,4.1,3.9,6.2c-0.3,9.4-12.4,18.2-21.7,16.3c-4.2-0.9-6.1-3.7-6.8-8.7
		C922.4,554.7,929.8,548.6,937.4,539.9z M943,562.6c-2.4,13.6-17.4,17.5-28.9,8C924.8,571.3,935.1,572.1,943,562.6z M919.7,538.5
		c6.6-7,14.9-10.2,24.3-10.1c4.8,0,8.2,3.6,8.1,8.2c0,3.8-1.9,6.2-6,6.5C941.8,532,937.8,531,919.7,538.5z M941.1,490.8
		c-1.1,1-3.1,1.7-4.5,1.5c-13.3-2.5-21.7,3.9-27.7,14.9c-0.7,1.3-1.3,2.6-2.2,4.2c-1.5-3.1-2.7-6-4.2-8.7c-1.5-2.6-3.3-4.9-5.2-7.6
		c21.6-4.7,36-16.8,40.5-38.8c4.2-21-3.8-38.6-16.4-56.1c3.5,0.6,5.9,0.9,8.1,1.5c25.6,6.5,42.3,31.7,37.3,57.5
		c-1.1,5.9-4.7,11.8-8.6,16.5C953.4,481.4,947,485.9,941.1,490.8z M924.3,421.6c4.4,16.2,3.7,32.3-7.3,46.7
		c-8.2,10.8-19.6,15-32.6,12.8c-12.9-2.2-23-9.2-27.4-21.9c-2.3-6.7-5.4-9.2-12.6-9.2c-14.6-0.1-23.4-11.1-22-26.2
		c7-1.7,27.5,2.4,35.2,6.7c1.4,9.6,2.2,18.5,4.2,27.1c2.4,10.4,13.1,17.1,23.9,15.7c13.5-1.8,23.7-8.9,29-21
		C919,442.4,921.2,431.8,924.3,421.6z M884.3,433.4c-7.1-3-13.8-5.9-20.5-8.7c1.6-6.8,2.1-7.1,8.2-5.2c4.8,1.5,9.5,2.9,14.9,4.6
		C886,427.4,885.2,430.1,884.3,433.4z M884.3,462.9c-8.2,4.8-17,1.8-19.5-7.8c-1.9-7.4-2.7-15.1-4.3-24.2c9,1.8,16,3.2,22.5,4.5
		C883.4,444.7,883.9,453.7,884.3,462.9z M874.6,411.8c7.1-1.1,13-2,19.3-2.9C890.8,420,885.9,420.9,874.6,411.8z M888.9,430.5
		c1.2-4.4,2.9-7,8-5.7c2.1,0.5,4.4,0.3,7.1,0.5c-4.5,12.6-8.8,24.9-13.2,37.1c-0.6-0.2-1.2-0.4-1.8-0.6
		C886.6,451.3,886.1,441,888.9,430.5z M893.9,404.7c-7.7,0-15.2,0.5-22.2,4.3c-0.9,0.5-2.2,0.6-3.2,0.4c-10.5-1.8-21-3.7-31.8-5.7
		c20.6-10.9,41.9-6.7,63.1-3.1c0.2,0.5,0.3,1.1,0.5,1.6C898.2,403.1,896,404.7,893.9,404.7z M866.1,391.7c-12.1-1-23.5,1.7-34.1,7.7
		c15.5-17.5,52.3-17.7,69.1-3.7C889.4,394.4,877.8,392.7,866.1,391.7z M863.5,416.3c-1.4,2.8-2.5,5.2-3.7,7.5
		c-10.1-2.7-19.9-5.3-31-8.2C841.1,411.9,852.1,412,863.5,416.3z M900,456.4c3.5-16.5,7.2-33.1,16.7-47.5
		C914.3,425.8,912,442.8,900,456.4z M905.2,417.2c-1.3,2-6.5,1.5-9.9,2.1c-0.2-0.5-0.4-1-0.7-1.5c4-6.8,6.3-15.1,17.3-18.5
		C909.5,406.2,908.3,412.3,905.2,417.2z M813.4,441.5c6.7,10.8,15.4,17.7,28.9,19.7c-8.4,8.4-9.9,18.2-8.3,28.7
		c-9.2-0.5-20.1-10.2-20.5-18.3C813.1,461.6,813.4,451.6,813.4,441.5z M813.6,486.6c9,8.3,17.7,15.9,31.2,8.5
		c0,4.4,0.3,8.3-0.1,12.1c-0.8,7.3-2,14.7-3,22.4c-10.8-1.7-19-7.6-25.4-15.7C809.8,505.7,815.1,495.8,813.6,486.6z M812.4,700.6
		v-93c4.5,8.8,9.1,16.7,19.1,19.9c-8.9,26-2.8,49.8,10.2,73.2H812.4z M877.8,634.3c-3.4,20.8-5,41.8-7.3,62.8
		c-0.1,1.1-0.3,2.2-0.5,3.3c-4.7,1.7-7.5,0.3-10.4-3.7c-14.5-20.2-22.2-42.9-24.7-67.4c-0.1-1,0.7-2.5,1.5-3.1
		c3.4-2.8,7-5.3,10.6-8.1c10.1,7.2,11.5,7,25.5-5.4C877.8,619.2,879.2,625.7,877.8,634.3z M872.6,594.8c0.1-0.5,0.2-1.1,0.4-1.6
		c4.6-0.5,9.1-1,14.8-1.5c-0.7,5.2-1.3,9.1-2.1,14.6C880.7,601.9,876.7,598.4,872.6,594.8z M975.2,700.3H910
		c9.6-41,33.1-72.6,65.2-98.3V700.3z M975.3,585.7c0,3.5-0.8,6.2-3.8,8.6c-9.5,7.8-18.6,16.1-28,24.1
		c-24.7,20.8-41.8,46.9-53.8,76.7c-0.7,1.8-1.6,3.6-3.1,5.2c-0.8-42.4,7.4-83.7,12.7-125.3c5.5,4.7,10.2,9.5,15.6,13.2
		c10.4,7.2,21,6.1,31.3-0.8c11.2-7.5,17.2-18.3,20.1-31.1c1.1-4.9,2.2-9.8,2.6-14.8c0.8-8.1-1.8-12.1-9.2-15.3
		c-2.4-1-4.9-1.8-7.4-2.5c-2.5-0.6-5.1-0.9-6.4-1.1c-0.7-8-1.3-15.6-2.1-25c11.9-11.1,27.9-22.3,31.7-42.6c0.1,1,0.4,2,0.3,3
		C975.9,500.5,975.6,543.1,975.3,585.7z M976.2,435.7c-8.3-29.4-24.7-48.1-58.9-47.6c9.2-5.9,18-8.3,27-6.3c9.7,2.2,19,6.2,28.3,9.8
		c1.6,0.6,3.4,3.2,3.5,4.9C976.3,409.6,976.2,422.7,976.2,435.7z M976.6,381c-9.7-6-19.2-8.6-29.6-8.6c-10.3,0-19.9,1.7-29.3,7
		c19.2-34.8,38.4-69.5,57.5-104.3c0.4,0.2,0.9,0.5,1.4,0.7V381z M976.8,261.6c0,3.6-1.1,5.5-4.1,7.6c-9.5,6.5-19.1,13.1-27.7,20.7
		c-11.6,10.2-16.7,24.5-20.6,39c-0.6,2.2-1.3,4.4-1.9,6.5c-1.9-16.8-2.2-33.6-5.9-49.5c-4.7-20.2-12.1-39.8-18.7-59.5
		c-1.2-3.8-1.2-5.6,2-8.8c5-4.9,8.5-11.3,12.8-17.2c3.5,2.2,7.7,5.3,12.2,7.8c8.3,4.5,16.4,3.3,24.4-1.5c2.9-1.7,6.3-3,9.6-3.7
		c8.1-1.7,13-7.3,18-14.7c0.1,2.3,0.2,3.3,0.2,4.3C976.9,215.6,976.8,238.6,976.8,261.6z"/>
</g>
</svg>
