<?xml version="1.0" encoding="utf-8"?>
<!-- Generator: Adobe Illustrator 27.3.1, SVG Export Plug-In . SVG Version: 6.00 Build 0)  -->
<svg version="1.1" id="Layer_1" xmlns="http://www.w3.org/2000/svg" xmlns:xlink="http://www.w3.org/1999/xlink" x="0px" y="0px"
	 viewBox="0 0 1200 800" enable-background="new 0 0 1200 800" xml:space="preserve">
<g>
	<g>
		<path fill="#C49A6C" d="M200.3,671c-4-0.8-9,1.6-10.7,5.5c-1.7,3.8-1.8,7.5,2,10.9c3.6-4.9,4.7-12.9,13.6-9.9
			C204.8,673.2,203.4,671.6,200.3,671z"/>
		<path fill="#C49A6C" d="M154.6,28.7v742.6h149.6V28.7H154.6z M169.5,128.6c0-7.5,3-13.2,9.3-17.1c13.2-8.4,28.1-10.9,43.4-10.8
			c4.1,0,8.1,2.5,12.4,4c12.6-9.6,48.1-1.5,55.1,13.7c-9.8,5.2-19.8,10.4-29.9,15.8c-8.4-9.1-1.3-14.7,5.4-20.3
			c-0.4-0.5-0.9-1.1-1.3-1.6c-4.5,1.4-8.9,2.9-14.1,4.5c-6.2-4.7-13.5-10.4-23.2-9.2c-5.6,0.7-11,2.3-16.5,3.6
			c-0.8,0.2-1.9,0.7-2.1,1.2c-2.2,8.7-11,8.9-16.7,13.8c1.5,0.9,3.8,1.5,5,3c1.5,1.7,2.1,4.2,3.1,6.3c-1.9,0.7-3.8,2-5.7,2.1
			c-5.4,0.2-9.5-2.5-12.1-6.9c-3,2.8-5.8,5.4-8.7,8c0.6,3.1,2.1,7.2,2.1,11.2c-0.1,14.3,5.5,25.7,16.1,35.1c5.9,5.2,6,6.3-0.1,11
			c-4.3,3.3-9.6,5.2-14.2,8c-1.6,1-2.5,2.9-3.7,4.4c1.8,0.3,4,1.3,5.5,0.7c4.9-2,9.6-4.4,14.2-7c6.9-3.9,8.3-3.6,11.9,3.9
			c1.1-0.7,2.4-1.1,3.1-2c4.3-5.5,10.7-5.6,16.7-6.6c3.9-0.6,7.9-0.9,11.9-1.1c6.6-0.4,12.7,0.5,17.3,6.1c2,2.5,4.8,4.4,8,7.4
			c0.9-9.9,1.6-18.4,2.5-27.9c6.7,3,12.4,5.6,18.1,8c9,3.7,8.9,3.6,8.8,13.4c-0.2,15.8-0.3,31.6-0.4,47.5c0,1.6,0,3.3,0.1,6.4
			c-7.4-6.5-11.9-15.6-22.5-14.5c0.8-5.4,1.8-10.4,2.3-15.4c0.9-9-1.8-11.6-10.7-10.4c-2.4,0.3-4.8,1.1-7.1,2
			c-2.1,0.8-4.1,2.1-5.3,2.7c-3.5-5-6.7-9.7-10.1-14.4c-1.8-2.4-4-2.7-6.5-0.8c-6.7,5.1-13,10.5-14.1,19.7
			c-10.4-4.5-10.4-4.5-16,7.7c-10.7-4.1-21.1-2.2-31.6,2.7c-0.1-9.2-0.4-17.8-0.4-26.4C169,182.9,169.3,155.7,169.5,128.6z
			 M202,153.2c2.4,2.8,6.2,4.7,5.5,9.4c-0.1,0.6,1.5,1.6,2.5,2.1c4.2,2.1,4.4,4.5,1,7.6c-1.1,1-1.8,2.3-2.7,3.4
			c0.3,0.4,0.5,0.8,0.8,1.2c3.4-1.8,6.7-3.6,10.6-5.7c0.8,3.7,1.4,7.1,2.1,10.4c0.3,0.1,0.7,0.3,1,0.4c1.4-3.4,2.9-6.9,4.8-11.5
			c2.8,4.5,5,8.1,7.3,11.8c0.7-0.3,1.4-0.6,2.1-0.9c-1.2-3.5-2.4-7-4-11.6c3.1,0.5,5.9,0.5,8.2,1.5c3.8,1.7,7.3,3.9,10.7,6.4
			c1.4,1,3.3,3.4,3,4.7c-0.6,2.7-1.8,5.5-5.8,5.8c-8.1,0.6-16.2,1.4-24.2,2.8c-10.6,1.8-19.6-0.2-26.3-9.1
			c-5.2-6.9-10.8-13.6-14.9-21.1c-4.3-8-1.2-14.9,7.1-18.8c2.8-1.4,5.8-2.3,9.6-3.7c0.8,3.2,1.4,5.7,2,8.6c-1.6,0.5-3,0.9-4.9,1.4
			C199.2,150.1,200.6,151.6,202,153.2z M243.9,167.1c-1.1-1-2-3.5-1.6-4.8c0.4-1.1,2.8-1.9,4.4-2.1c3.2-0.4,6.4-0.2,9.6-0.2
			c0-0.6,0.1-1.1,0.1-1.7c-3.6-0.9-7.2-1.8-10.8-2.8c0-0.5,0-0.9,0.1-1.4c4-1.3,7.9-2.6,11.9-3.9c-0.1-0.4-0.1-0.8-0.2-1.2
			c-3.5,0.1-7.1,0.1-11.4,0.2c1.8-2.8,3.3-5.1,4.8-7.3c-0.3-0.4-0.5-0.7-0.8-1.1c-1.7,0.9-3.7,1.4-5.1,2.6c-2.9,2.3-5.1,2.4-6.4-1.4
			c-1.6-4.5-3.8-4.2-7.5-1.8c-4.8,3.2-10.2,5.2-12.7,11.2c-1.4,3.4-4.1,2.7-6.2-0.1c-5.9-8.2-4-26.7,3.6-33.6
			c9.7-8.8,26.9-4.7,30.7,7.9c2.5,8.3,6.5,14.8,13.3,20.3c8.6,7,8.3,15.2,0.5,23c-1.7,1.7-3,3.9-4.9,6.5
			C251.5,172.8,247.5,170.2,243.9,167.1z M283.6,519.4c-2.1-4.8-4.5-9.8-6.5-15c-2-5.1-3.4-10.4-5.3-15.6c-1.7-4.5-0.5-7.5,3.8-9.7
			c7.9-4.2,10.6-11.4,11-20.7c-11.9,0.1-15.8,7.9-17.7,18c-0.5-0.1-1.1-0.2-1.6-0.4c-1.5-6.6-3-13.2-4.5-19.9
			c-0.4-0.1-0.9-0.3-1.3-0.4c-0.7,1.7-2.2,3.6-2,5.2c1,6.8,2.4,13.6,3.8,20.4c0.5,2.4,1.6,4.6,3,8.2c-4.4-3.8-7.8-6.8-11.1-9.7
			c-9.9-8.5-20.4-6-26.3,7.3c3.9,0.7,7.5,1.5,11.2,1.9c5.8,0.7,11.6,1.1,17.3,1.8c5.7,0.8,10.2,4,12.2,9.2
			c4.9,13,9.6,26.2,13.5,39.5c1.9,6.5,1.4,13.6-1.9,20c-2.4,4.8-5.5,6.1-10.7,4.4c-11.3-3.6-21.4-22.2-18.1-33.5
			c1.2-4,5.7-5.3,9.2-2.4c1.6,1.3,3,3,4.8,4.8c6.5-10.7,1.2-17.5-15.2-20.1c1-1.9,1.9-3.7,2.9-5.5c-0.1-0.5-0.2-1-0.3-1.5
			c-6.1,4.4-13.1,1-18.8,2.7c-6.5,1.9-13.1,6.1-18,11c-11.1,11-19,24-18.3,40.6c0,1.1-0.4,2.2-0.9,4.9c-3.5-3.1-6.2-5.5-8.7-7.8
			c-3.5,8.9,10.6,24.6,35.1,38.3c-0.9,5.4-1.9,10.9-2.8,16.4c-3.3-1.5-6.5-3-9.8-4.4c-0.4,0.5-0.9,1.1-1.3,1.6
			c2.8,3.9,6.3,7.6,8.3,11.9c2.1,4.6,2.7,9.8,4.3,15.7c-2-1.4-3.8-2.2-5-3.5c-13.6-15.4-26.2-31.6-32.6-51.5
			c-5-15.6-3.3-31.3,2.6-46.4c3.7-9.6,8.2-18.9,12.5-28.3c2-4.5,5.1-5.6,10.1-4.4c8.2,1.8,16.4,4.8,25,2.1c0.9-0.3,1.8-0.8,3.2-1.4
			c-8.1-13.9-19.5-8.1-31.7-5c6.6-10.8,12.5-20.4,18.4-29.9c4.8-7.8,10-15.4,14.4-23.3c2.9-5.2,6.4-9.1,12.3-10.8
			c1.7-0.5,3.2-1.5,5.8-2.8c-2.5-0.6-4-0.9-5.4-1.3c0-0.4-0.1-0.8-0.1-1.2c2.4,0,5.3-1,7.1,0.1c4.1,2.4,7.8,5.5,11.5,8.6
			c2.9,2.5,5.8,4.5,9.8,2.9c0.8-14.5-10.8-22.2-24.4-16.5c1.9-5.2,8.3-12,13-14c4.5-1.8,8.3,0.1,9.5,4.8c0.5,1.8,0.4,3.8,1.2,5.3
			c1.3,2.6,2.8,6.3,5,6.9c5.6,1.5,5.4,5.1,5.4,9.4c0.1,24.3,0.2,48.7,0.6,73C291.1,515.3,289.8,518.5,283.6,519.4z M288.9,532
			c-0.6-0.1-1.3-0.3-1.9-0.4c0.6-2.9,1.2-5.8,1.8-8.7c0.6,0.1,1.1,0.2,1.7,0.4C291,526.4,292.7,529.8,288.9,532z M232,651.1
			c6,3.3,8.2,8.5,9.7,14.6C229.8,664.3,226.9,660,232,651.1z M225.7,622.6c5,4.1,4.7,9.5,4.2,16.3
			C226.1,633.3,223.8,628.5,225.7,622.6z M227.4,618.8c-0.7-0.2-1.5-0.5-2.2-0.7c0.5-3.7,0.5-7.6,1.7-11.1c1.1-3.1-0.4-8.8,6.2-8.1
			c0.8,0.1,1.7-2.4,2.8-2.6c4.4-0.9,7.4,0.4,7.7,5.6c0.1,1.5,0.6,2.9,1.2,5.2C235.9,606.2,229.7,609.7,227.4,618.8z M168.8,545.3
			c-0.1-7.4-0.2-14.6-0.3-21.8c6.2,1,9.3,4.4,8.7,9.9c-1.2-0.1-2.5-0.1-4.6-0.2C178.7,539.8,178.1,544,168.8,545.3z M171.3,504.9
			c-1.5-1.1-2-4-2.4-6.2c-0.4-1.9-0.1-3.9-0.2-6.7c4.9,2.9,9.5,4.6,9.5,11.1c0,5.1,1.3,10.2,1.7,15.3c0.2,1.9-0.3,3.8-0.5,5.7
			c-0.6,0-1.1,0-1.7,0c-0.2-2.5-0.5-4.9-0.5-7.4C177.5,511.6,175.5,507.9,171.3,504.9z M169.2,461c3.3,3.2,5.8,5.6,9.2,8.9
			C168.9,471.2,167.7,470.1,169.2,461z M168.8,475.3c8-0.4,8.3-0.2,8.7,7.2c0.1,2.9,0.1,5.8,0.1,8.8
			C167.6,487.1,167.6,487.1,168.8,475.3z M176.7,549.6c-3.5,15.4-1.1,29.8,3.8,44c-4.1,0.6-7.8,1.1-11.7,1.7
			c-0.2-15.6-0.4-30.7-0.7-46.3C171.2,549.3,173.7,549.4,176.7,549.6z M169.5,602.6c3.4,0.2,7.3-0.7,10.2,0.7
			c4.7,2.3,9.3,5.4,12.8,9.2c5.5,6.1,9.9,13.2,14.8,19.9c-0.5,0.1-1,0.4-1.1,0.3c-3.4-5.1-8.1-6.7-14-5.4c-1,0.2-2.7-1.2-3.5-2.3
			c-1.8-2.2-3.3-4.6-4.8-7c-4.2-6.7-6.4-7.6-14.2-5.6c-0.3-0.4-0.5-0.5-0.5-0.6C169.3,608.7,169.4,605.6,169.5,602.6z M206,402
			c-2.6-2.9-6-5.1-9.1-7.5c2-4.8,5.3-6.1,9.6-3.7c2.2,1.2,4.1,2.9,6.2,4.1c1.4,0.8,3.1,1,5.9,1.8c-1.8-3.4-2.9-5.5-4.1-7.8
			c0.8-0.4,1.1-0.7,1.4-0.7c8.7-1.6,10.3-0.1,9,8.4c-0.2,1.5-0.2,3.1-0.8,4.4c-4.6,10.7-6.7,21.8-5,34.1
			c-8.7-7.9-16.8-15.2-24.9-22.6c-0.5,2.8-0.8,4.6-1.3,5.7c0,0.1-0.1,0.1-0.1,0.2c-0.1,0.1-0.1,0.2-0.2,0.3
			c-0.6,0.9-1.4,1.2-2.8,1.4c-0.3,0-0.6,0.1-0.9,0.1c-0.6,0-1.2,0.1-2,0.1c-0.4-4.7-1.1-9.5-1.2-14.3c0-2,0.9-4.3,2.1-5.9
			c3.4-4.5,5.3-4,7.9,1.1c2.1,4.1,4.7,7.9,7.1,11.8C207.3,410,208.7,405,206,402z M231.1,254c0.1,0.4,0.2,0.7,0.4,1.1
			c-1.4,0.3-3.1,1.3-4.1,0.9c-1.3-0.6-3.1-2.5-2.9-3.5c0.4-1.8,1.8-4,3.3-4.6c1.3-0.5,3.4,1.1,5.1,1.7c-0.2,0.6-0.5,1.1-0.7,1.7
			c-1.3,0.2-2.7,0.4-5.5,0.8C229,253.1,230,253.6,231.1,254z M229.1,275.8c-2,1.7-3.1,2.9-4.5,3.5c-0.4,0.2-2.5-1.7-2.3-2.2
			c0.5-1.5,1.5-2.9,2.7-3.9C225.3,273,227.1,274.5,229.1,275.8z M234.7,269c2.1,2.7,4,4.2,4.3,6c0.2,0.9-2.5,2.4-3.9,3.7
			c-1.2-1.5-2.9-2.8-3.3-4.5C231.6,273.1,233.3,271.5,234.7,269z M244.3,260.7c-2.8,0-5.9,0.9-8.3-0.1c-4.2-1.6-3-5.1-1.1-8.8
			c3.7,2.9,6.9,5.3,10.2,7.8C244.8,260.1,244.6,260.4,244.3,260.7z M244.9,265.4c-2.1,1.4-3.3,2.8-4.4,2.8c-1.2,0-2.4-1.3-3.6-2
			c1.3-1.2,2.4-2.7,3.9-3.3C241.4,262.6,242.8,264.1,244.9,265.4z M242.8,319.4c0-1.7,0.9-3.5,1.6-5.2c2.8-6.3,5.7-12.5,8.4-18.4
			c5.3-0.3,11.2-0.6,17-1c3.1-0.2,4.4,1.5,4.4,4.1c0.2,7.3,0.3,14.6,0.4,22.1c-4-2.2-7.7-6.5-13.8-4.7c1.8,9.4,5.3,17.2,15.1,20.5
			c2.3,0.8,4.7,1.8,6.7,3.2c3.4,2.4,5.1,5.3,3.5,9.9c-1.5,4.2-2.2,8.6-3.3,13.6c-6.9-3.6-13.7-6.3-19.7-10.4
			c-9.9-6.8-19-7.7-28.1,1.2c-1.3,1.3-3,2-5.4,2.6c1.5-3.5,2.8-7.1,4.4-10.6C237.8,337.5,242.9,329.3,242.8,319.4z M273.8,378.3
			c3-2.5,5.9-5.4,9.3-7.4c0.9-0.5,4.5,1.1,4.8,2.3c1.2,4.8,1.7,9.7,2.3,14.6c0.1,0.7-0.8,1.8-1.5,2.3c-7.8,5.3-15.6,10.6-23.4,15.9
			c-0.4,0.2-0.9,0.3-2.4,0.8c2.1-5.8,3.7-11,5.9-15.9c0.5-1.1,2.6-1.8,4.1-2.2c3.8-1.1,7.6-1.9,11.4-2.8c0.1-0.5,0.3-1,0.4-1.4
			C281.2,382.6,277.9,380.7,273.8,378.3z M290,395.7c0.1,5.7,0.1,9.9,0.2,14.5c-5.1-1.5-9.8-2.9-14.4-4.3c-0.1-0.4-0.3-0.9-0.4-1.3
			C280,401.8,284.6,399,290,395.7z M289.3,338.2c-4.9-6-6.2-12.9-4.4-20.4c1.3-5.5,3.1-10.8,4.6-16.2c0.2-0.8,0.1-1.6,0.2-4
			c-3.9,2.5-6.8,4.5-10.4,6.8c0.6-6.1,1.2-11.6,1.7-17.2c-0.4-0.2-0.9-0.4-1.3-0.6c-1.4,1.2-2.8,2.5-4.5,4
			c-1.9-4.8-3.8-9.4-5.6-13.7c7.1-3,13.8-6,20.3-8.7c0.3,23.1,0.7,46.5,1,69.9C290.4,338.1,289.8,338.2,289.3,338.2z M243.7,390.8
			c-4.3,1.9-8.7,3.8-13.3,5.8c-0.1-5.6-0.2-11.3-0.2-17c0-1.8-0.2-3.7-0.1-5.5c0.1-3.9-1.2-9.5,0.9-11.4c4-3.7,9.9-5.4,14.7-7.7
			c1.5,4.2,2,7.9,4,10.4c3.3,4.2,8.2,4.2,14.6,1.3c6.6-3,8.4-3,13.8,0.3c-0.8,1-1.5,2.1-2.4,2.8c-8,5.8-11.9,13.5-12,23.4
			c0,2.4-1,4.9-1.6,7.3c-0.7-0.1-1.3-0.2-2-0.3c0.5-4.4,1.2-8.9,1.6-13.3c0.4-4.7-2.4-8.1-6.8-8.7c-4.8-0.6-7.7,1.8-6.6,6.5
			c0.8,3.8,2.7,7.4,4.5,10.9c1.5,2.7,3.9,5,5.7,7.5c2.2,3.2,2.4,6.1-0.8,9.2c-3.5,3.5-6.3,7.7-10.7,11.4c0.2-1.8,0.1-3.7,0.6-5.5
			c0.3-1.2,1.6-2.1,2.1-3.3c1.9-3.9,0.7-8-2.9-9.8c-3.4-1.7-7.4-0.5-9.3,3.2c-2.5,4.8-2.2,9.8,0.4,14.3c1.8,3.1,1.8,5.5,0.2,8.7
			c-1.9,3.8-2.8,8.2-4.4,12.1c-1.1,2.5-2.7,4.8-4.4,7.7c-4.4-7.2-4.3-14.7-4.5-21.8c-0.1-5.9,0.8-11.9,1.5-17.8
			c0.7-6.3,5.6-9.5,10.1-12.9c2.8-2,5.7-3.9,8.5-5.8C244.3,392.2,244,391.5,243.7,390.8z M209.4,467.9c0.2,1,0.2,2.1,0.7,2.9
			c3.6,5.8,2.1,10.9-1.9,15.9c-11.6,14.4-19.4,30.8-26,48.2c0.8-4.4,1.6-8.7,2.3-13.1c0.5-2.8,1.7-5.7,1.3-8.3
			c-1.2-8.3,2.9-13.5,9.1-18c3.9-2.8,5.6-6.6,3.6-11.3c-0.7-1.5-2-3.6-3.3-3.9c-1.3-0.3-3.7,1.1-4.3,2.4c-1.6,3-2.5,6.4-3.5,9.7
			c-0.6,2-0.9,4.1-2.5,6.3c-0.3-1.3-1-2.5-1-3.8c0-10.3-0.2-20.6,0.3-30.9c0.4-7.7,1.4-7.9,8.2-4.7c0.6,0.3,1.5,0.2,2.6,0.4
			c-0.4-7.7-9.4-17.7,6.4-21.3c-1.2,2.7-2.1,4.7-3.1,6.7c-1.1,2.4-2.3,5,0.9,6.3c3.5,1.5,4.7-1.4,5.4-4c1.2-3.9,2.1-7.9,3.2-11.9
			c10.1,4.7,15.8,25.5,9.5,36c-0.7-4.4-1.2-7.9-1.8-11.3C209.7,460.6,208.5,462,209.4,467.9z M187.4,422.8
			c6.3,2.4,12.6,4.8,18.9,7.2c-0.1,0.5-0.2,1-0.3,1.4c-11.7,4.6-22.3,10.2-24.7,24.5C183.3,445.1,185.3,434.3,187.4,422.8z
			 M217.1,264.8c1.7,2.9,2.9,4.6,3.6,6.5c0.2,0.4-2.2,2.4-2.5,2.2c-1.8-1-3.5-2.3-4.8-3.9C213.1,269.3,215.2,267.2,217.1,264.8z
			 M212.4,258c1-1.1,2.2-3.2,3.1-3.1c1.3,0.1,2.5,1.8,4.4,3.4c-1.6,1.5-3,3.4-3.4,3.2C214.9,260.6,213.7,259.2,212.4,258z
			 M168.5,249.7c6.8,4.7,13.4,9.1,19.3,13.1c-2.9,4-6.1,8.2-9,12.7c-2.2,3.5-0.8,6.1,2.8,7.4c3.8,1.4,7.7,2.6,11.9,4
			c-2.8,6.7-4.1,13.7-2.2,21.2c1.8,7.4,4.4,9.1,11.1,5.6c6.4-3.3,12.5-7.4,18.4-11c4.7,4.2,9.7,8.5,14.5,13.1c1.1,1,1.9,2.9,1.9,4.4
			c0.2,7.7-2.4,14.5-7.4,21.9c-1.7-9.7,6.2-19.5-2.2-27.1c-0.6,0-1.2,0.1-1.7,0.1c0.1,5.1,0.1,10.3,0.2,16.1
			c-1.2-0.9-1.6-1.1-1.9-1.5c-1.8-2.4-3.8-5.9-6.9-3.5c-1.6,1.2-1.5,5.3-1.1,8c0.3,2.1,1.7,4.6,3.4,5.9c4.4,3.3,4.6,7.5,4.6,12.4
			c-0.1,8,0.3,16,0.7,24c0.2,3.4-1.1,4.6-4.4,5.1c-6.8,1.1-13.5,2.8-22.2,4.6c1.9-4.8,3.1-8.6,5-12.1c1.1-2.1,3.3-3.7,4.9-5.6
			c2-2.2,3.9-5.2,1.1-7.3c-2.1-1.6-6-2.2-8.5-1.4c-4.5,1.5-6.1,5.9-6.5,10.4c-0.3,3.8-0.5,7.7,0,11.5c0.7,5.2-1.1,8.6-5.4,11.1
			c-1.3,0.7-2.3,1.8-3.5,2.8c-4.8-12-2.2-26.4,5.4-33.3c3.4-3.1,6.7-6.7,8.9-10.6c0.7-1.3,0.6-3.1,0.3-5c-0.1-0.8-0.2-1.5-0.3-2.2
			c0-0.4-0.1-0.7-0.1-1.1c-0.4,0-0.7,0.1-1.1,0.1c-0.4,0-0.8,0-1.2,0c-0.4,0-0.8,0-1.2,0c-2,0-3.9,0.1-4.9,1.1
			c-3.6,3.7-6.5,8.3-8.9,12.9c-1.6,3.1-2,6.9-3,10.4c-3.1-8.2-7-16.5,0.8-24.1c-3.9-2.6-3.9-2.6-11.5,9.5
			C168.4,317.8,168.5,283.7,168.5,249.7z M170.3,358.5c1.7,5.6,4,11.2,4.8,16.9c0.2,1.7-3.5,4-5.5,6c-0.3-0.3-0.6-0.7-1-1
			c-0.1-7.2-0.2-14.3-0.3-21.5C169,358.8,169.7,358.7,170.3,358.5z M168.1,390.7c0-4.2,2.2-4.9,5.3-5.6c3.6-0.7,4.8,1.3,5.2,4.3
			c3.3,20.7,5.1,41.3-2,61.9c-8.4-1.3-8.6-1.5-8.5-9.2C168.2,425,168.4,407.8,168.1,390.7z M173.9,618.5c2.9,0.5,5.4,3.4,8,5.3
			c-0.2,0.4-0.5,0.7-0.7,1.1c-4,0.1-8.1,0.1-13.8,0.2C170.1,622.1,172.4,618.3,173.9,618.5z M175.2,687.9c-2.8-2.5-5.3-7-5.6-10.7
			c-0.8-12.8-0.6-25.6-0.8-39.1c5.6,2.2,9.7,0.3,13.9-3.1c4.9-4,9.9-0.6,15.5,0.7c-4.3,4.1-8.2,7.5-11.7,11.3
			c-1.8,1.9-3.2,4.2-4.2,6.6c-0.4,1.1-0.2,2.4,0,3.7c0.1,0.4,0.1,0.9,0.1,1.3c0.7-0.1,1.4-0.1,2.2-0.2c1.2-0.1,2.4-0.2,3.4-0.8
			c3.6-2.1,6.8-4.6,10.3-7.1c2.1,1.8,4,3.5,6.1,5.4c2.3-4.7-0.1-12.3,8.4-11.5c-0.5-1.5-1-3.1-1.5-4.6c-6.1-1.1-9,3.5-12.6,6.9
			c0-6.5,3-9.9,8.5-9.1c7.2,1.1,13.9,3.8,20.3,8.5c-3.4,1.4-6.6,1.9-9.4,1.2c-1.3-0.3-2.5-0.9-3.7-1.8c-0.4-0.3-0.8-0.6-1.2-1
			c-0.2,1.4-0.1,3-0.7,4.2c-1.8,3.8-3.8,7.5-6.1,11.9c-6.4-0.7-14.2-2.7-19.5,4.8c-1.6,2.2-2.5,5-3.8,7.5c0.6,0.4,1.2,0.8,1.8,1.2
			c1.3-1.4,2.7-2.8,4-4.2c4.9-5.9,10.3-7.6,16.2-4.6c1.2,0.6,2.4,2.4,2.4,3.6c0.3,9.4,0.4,18.8,0.5,28.9
			C195.9,697.5,184.4,696,175.2,687.9z M227.8,662.4c-0.2,0.5-0.3,1-0.5,1.4c-4.8,1.9-9.7,3.7-15.5,6c1.5-4.7,2.8-8.7,4.4-13.4
			C220.4,658.6,224.1,660.5,227.8,662.4z M220.6,697.3c-1,1.3-4,1.6-6,1.5c-1-0.1-2.5-1.9-2.8-3.2c-0.6-2.4-0.5-4.9-0.8-7.4
			c-0.5-6.1-0.8-12,5.7-15.7c7.4-4.2,16.3-4.6,23.2,0c-4,0.7-7.4,1.1-10.6,2c-3,0.9-6,2.1-8.5,3.8c-4.9,3.3-5.3,7.3-1.1,11.4
			C222.4,692.3,222.2,695.2,220.6,697.3z M248.3,695.6c-0.1,1.3-2.1,3.3-3.4,3.5c-8.6,0.8-12.2,1.7-16.9-5.7
			c4.5-5.5,8.5-10.4,12.7-15.1c1.1-1.3,3-3,4.2-2.7c1.3,0.2,3.2,2.4,3.3,3.8C248.6,684.7,248.7,690.1,248.3,695.6z M246.3,664.6
			c-3.4-5.9-6.3-12-10.2-17.6c-2.9-4.1-1.8-8-1.7-12.3c0.1-4.6,1.5-7.4,5.7-9.8c2.5-1.4,3.9-5,5.3-7.8c0.9-1.8,0.8-4.1,1.3-7
			c4.1,2.7,7.7,4.9,12.3,7.9c-9.3,2.5-9.3,2.5-10.9,6.9c2.2,0.7,4.4,1.4,6.5,2.2c8.9,3.3,13.2,13.3,8.5,21.5
			c-3.9,6.8-9,13-14.1,20.2C247.6,666.6,246.9,665.6,246.3,664.6z M277.4,629.4c0.3-5.3,4.7-10,9.4-9.8c4.5,0.2,3.7,3.7,3.9,6.1
			C285.8,627,281.6,628.2,277.4,629.4z M290.6,641.2c-5.4-1.8-10.5-3.6-16.5-5.6c5.2-6,9.7-1,14.2-0.2
			C291.9,635.9,291.2,638.5,290.6,641.2z M274.1,623.7c-0.4-0.2-0.8-0.4-1.2-0.7c0.4-5,2.6-8.7,8.7-9.5
			C279,616.9,276.6,620.3,274.1,623.7z M274.8,641c11.3,1,17.2,8.4,15.3,17.5c-14.7-11.7-17.7-12.8-21.2-7.7c4,1.6,8,3.2,12.1,4.8
			c-0.1,0.8-0.1,1.5-0.2,2.3c-7.2,2.3-14.4,4.6-21.6,6.9c3.9-7.4,7.5-14.7,11.5-21.7C271.4,642,273.5,640.9,274.8,641z M280.2,690.7
			c-7.9,3.2-16.3,4.9-25.1,7.4c-0.6-8.4-1.3-15.5-1.6-22.6c-0.1-1.5,0.7-4.1,1.5-4.2c1.7-0.4,4.1-0.1,5.5,0.9c1.5,1,2.4,3.1,3.1,4.9
			c3.6,10.7,9.8,12.6,18.5,5.5c0.6-0.5,1.3-1,2-1.5c-2.3-8.7-9.2-11.8-17.7-13.8c8-4.4,15.3-5.1,22.6-0.4c0.9,0.5,1.7,1.6,1.9,2.6
			C292.5,678.3,288.5,687.3,280.2,690.7z M282.4,609.1c2.9-4.9,3.5-9.8,0.1-14.5c-2.3-3.2-4.8-3.6-7.8-0.6c-5.1,5-4.7,11.1-3.8,17.2
			c0.5,3.4,0.5,6.3-3.5,8.3c-1.8-2-3.6-4.2-5.6-6.1c-2-1.9-4.2-3.7-6.5-5.2c-1.4-0.9-4.2-1-4.5-2.1c-1-2.9-1.3-6.2-1.2-9.3
			c0-0.9,2-2,3.3-2.5c3-1.3,6.3-2.2,9.3-3.5c12.4-5.6,21.6-14.1,25.8-27.4c0.4-1.4,1.2-2.7,1.8-4c0.4,0.1,0.7,0.1,1.1,0.2
			c0.1,8.9,0.3,17.8,0.4,26.7c0.1,4.3,0.1,8.6,0.1,13C291.3,607.6,291.3,607.6,282.4,609.1z M284.4,185.9c-4.8-2.7-9.4-5.7-14.1-8.5
			c-3.6-2.1-3.1-4.7-0.5-6.7c3.9-3,8.3-5.5,12.5-8c1.8-1.1,3.7-1.9,6.9-3.5c-4.6-2.2-7.9-3.9-11.3-5.3c-4.6-1.9-8.4-4.6-10.4-9.5
			c-2-4.9-1.3-7.9,3.2-10.5c6.6-3.8,13.2-7.4,19.8-11.1c0.3,21,0.6,42.7,1,65.4C288.6,187.2,286.3,187,284.4,185.9z"/>
	</g>
	<g>
		<path fill="#C49A6C" d="M1017.5,212.8c0.3-1.2-0.5-2.7-0.8-4c-1.5,0.3-3.4,0.2-4.2,1.1c-2,2.3-3.4,5-5.8,8.8
			C1012.2,217.9,1016.3,217.6,1017.5,212.8z"/>
		<path fill="#C49A6C" d="M959.3,206.3C959.3,206.3,959.4,206.3,959.3,206.3c0.1,0.1,0.2,0.1,0.2,0.1c0-0.1-0.1-0.2-0.1-0.2
			C959.4,206.2,959.4,206.2,959.3,206.3L959.3,206.3z"/>
		<path fill="#C49A6C" d="M968.5,163.9c-8.6,4.2-17,17.8-15.3,27.1c0.9,5.2,4.1,10.1,6.3,15.1c4.1-5.7,9.5-10.8,11.8-17.2
			c2.5-6.9,2.3-14.9,2.7-22.4C974.1,163,971.6,162.4,968.5,163.9z"/>
		<path fill="#C49A6C" d="M921.1,278.6c-2.7,7.2-3.8,14.9-5.6,22.4c0.4,0.1,0.8,0.2,1.1,0.3c0,1.8,0,3.7,0,5.5
			c0.1,6.7,2.2,8,8.1,4.7c9.2-5.1,15.8-12.7,19.5-22.5c2.6-7,1.4-9.3-5.5-12.3c-1.8-0.8-3.6-1.7-5.4-2.5
			C926.1,270.9,923.9,271.1,921.1,278.6z"/>
		<path fill="#C49A6C" d="M927.3,325.9c-3.3,1.9-5.8,5.3-5.2,11.1c6.1-5.3,11.7-6.6,18.4-3.9c14.6,6.1,20.7,1.8,20.1-13.9
			c0-1-0.3-2.1,0-3c0.4-1.2,1.3-2.2,2.4-3.9c2.9,6.1,3.7,12.4,9.8,16.1c4.5-11.3,6.4-21.9-0.6-32.3c-1.3-2-3.9-3.2-6.7-5.3
			c-0.5,13.6-7.6,22-19.1,25.9C939.8,318.9,933.4,322.3,927.3,325.9z"/>
		<path fill="#C49A6C" d="M967.4,129.6c-9.5,1.3-16.8,6.3-21.5,14.6c-4.4,7.8-3.3,15.7,1,23.3c1.1,1.9,2.4,3.8,5.1,1.4
			c4.1-3.6,8.5-7,12.6-10.6c6.7-5.8,9.2-13.6,10-20.6C974.8,130.9,972.6,128.8,967.4,129.6z"/>
		<path fill="#C49A6C" d="M953.5,286.4c-0.3-4-0.6-7.9-1-13.4c-3.5,1.8-5.6,2.9-8.3,4.3c2.9,3.6,5.3,6.6,7.7,9.7
			C952.4,286.8,952.9,286.6,953.5,286.4z"/>
		<path fill="#C49A6C" d="M895.7,28.7v742.6h149.6V28.7H895.7z M910.5,445c4.8,1.7,9.2,3.2,13.6,4.7c3.7,20.3,19,25,36.3,26.8
			c0.6,11.4,1.2,22.7,1.8,34.8c-14.3-14.5-29.9-24.7-51.6-17.5C910.5,477.2,910.5,461.2,910.5,445z M943.6,436.8
			c-6.7-1.4-13.2-10.3-15.4-19.9c-1.1-4.7-0.9-9.1,3.7-12.4C930.7,416.9,937,426.6,943.6,436.8z M968.6,412.9c6,0.8,8.2,4,7,9
			c-1.3,4.9-7,7.7-12.5,6c-5-1.5-8.2-6.7-6.7-11.1c0.4-1.2,1.8-2,2.7-3.1c0.8,0.9,1.8,1.7,2.5,2.7c0.5,0.8,0.5,2.3,1.1,2.6
			c0.7,0.4,1.5,0.7,2.3,1s1.7,0.5,2.5,0.7c0.1-0.3,0.2-0.7,0.3-1c0.3-1,0.7-2,0.8-3.1C968.9,415.5,968.7,414.4,968.6,412.9z
			 M983.3,438.8c10.6-7.3,18-17,19.3-31.5c4.4,5.3,4,10.2,2.5,14.9c-4.3,13.5-14.6,21-27,25.9c-6.7,2.6-13.7,4.2-20.9,1.9
			c-4.1-1.2-8-3-10-8.9C960.4,449.1,972.2,446.5,983.3,438.8z M994.5,413c-0.5,0.1-1.1,0.2-1.6,0.3c-0.5-1.5-1-3.1-1.5-4.6
			c-3.1-8.6-8.2-15.4-17.5-17.5c-8.5-1.9-15.5,1.5-20.6,8.1c-2.2,2.9-3.3,6.8-4.4,10.3c-0.8,2.4-0.8,5.1-1.3,7.9
			c-4.9-4-6-10.4-3.3-17.4c3.5-9.2,15.1-15.9,26-15c11,0.9,22.8,10.4,24.3,19.8C994.9,407.5,994.5,410.3,994.5,413z M909,657.5
			c2.3,1.1,4.2,1.7,5.9,2.8c7.4,4.6,15.2,5.2,23.4,2.9c10.4-2.9,11.3-2.5,14.9,8.2c-4.6,4.3-8.1,4.9-14.3,1.8
			c-7.8-3.8-15.5-4.8-23,0.5c-2.1,1.5-3.9,3.4-7,6C909,671.6,909,665,909,657.5z M958.5,702.7c-0.1,0.7-1.9,1.7-3,1.7
			c-12.4,0.5-24.5-1.1-35.8-6.6c-6.5-3.2-9.9-8.6-9.8-15.5c7.4,3.3,14.5,8.8,22.8,6.3c7.5-2.2,14.6-6.1,22.6-9.5
			C959.5,686.5,959.1,694.6,958.5,702.7z M961.8,666c-0.1,0.9-0.3,1.9-0.5,2.8c-0.5,0.2-1,0.3-1.6,0.5c-0.7-2.2-1.5-4.3-2.1-6.6
			c-2.4-9.1-4.6-18.3-7-27.5c-2.6-9.7-8.4-16.7-17.8-20.9c-4.4-2-8.4-5.1-13.1-8c-2.2,6.5-1.7,12.2,0.7,17.9
			c3.7,8.7,10.7,14.2,19.3,16.9c9.2,2.8,11.5,9.4,12.5,19.6c-12.7-13.3-25.6-21.4-42.3-9c0-50.7,0-100.5,0-151.8
			c3.5,2.5,6.3,3.8,8.1,5.9c11.2,12.5,25.4,15.1,41,12.5c5-0.8,6.1,1,7,5.3c4,20.4,6.2,40.8,3.8,61.5c-0.3,3-0.7,5.9-2.3,9.3
			c-2.9-7.4-6.5-14.7-8.6-22.3c-3.6-12.8-10.9-21.6-23.4-26.5c-6-2.4-11.5-6.1-17.9-9.6c0.2,2.9-0.2,6.7,0.7,10.2
			c3.4,14.9,11.4,26.8,26.5,31.1c14.6,4.2,19.1,14.7,20,27.6c0.7,10.5-0.4,21.2-0.9,31.8C963.2,646.5,962.5,656.3,961.8,666z
			 M979.6,587.6c1.3-7.3,2.2-7.6,8.9-4.5c12,5.5,23.2,4.1,33.9-3.2c2-1.3,4.2-2.3,7.1-3.9c0,20.7,0,40.1,0,60.2
			c-23.6-0.7-45,3.8-59.9,24.4c-0.5-0.3-0.9-0.6-1.4-0.8c0.8-5.7,1.4-11.5,2.3-17.2C973.5,624.3,976.3,605.9,979.6,587.6z
			 M987.3,705c-2.2,0-4.6,0.4-6.7-0.1c-1.5-0.4-2.8-1.8-4.2-2.8c1.9-1,3.9-2.9,5.6-2.6c2.1,0.3,4,2.4,5.9,3.8
			C987.7,703.8,987.5,704.4,987.3,705z M1019.5,697.3c-1.2,0.8-3.9,0.7-5-0.2c-14.2-11.1-25.6-11.1-39.5,0.4
			c-2.7,2.2-5.2,4.5-8.2,7.1c-7.9-14.3,8.2-52.5,31.7-56.4c-0.1,2-0.2,4-0.3,5.9c-0.5,8.9,2.8,14.7,11.2,18c5.2,2,10.8,3,16.2,4.8
			c1.3,0.4,3.2,2.2,3.1,3.3C1028.3,687.2,1025.8,693.4,1019.5,697.3z M1029.7,650.6c-0.1,7.3,0,14.5,0,21.8
			c-0.6,0.3-1.2,0.5-1.8,0.8c-1.4-1.9-3.4-3.6-4.1-5.7c-3.3-9.4-9.1-16-18.9-18.8c-0.9-0.3-1.6-1-2.6-2.9c6-1.2,11.9-2.8,17.9-3.6
			C1029.7,640.7,1029.7,641,1029.7,650.6z M1030.1,574c-16.8-14.1-31.2-5.1-46.6,2.3c-0.3-11.8,3.8-21.2,6.7-32
			c12.3,9,24.7,11.4,38.7,3.1c-6.2-3.6-11.7-7.3-17.7-10.1c-7-3.3-13.2,0.1-19.5,4.3c0-5.5,2-8.7,6.3-11c10.8-5.7,20-13.3,25.1-24.8
			c3.6-8,3.7-16-0.8-23.1c-6.3,5.1-12.5,9.9-18.5,15c-6.9,5.9-9.6,14-12,22.4c-3.9,13.6-8.6,27-13,40.5c-0.5-0.1-1.1-0.2-1.6-0.3
			c-0.5-7.2-1.5-14.3-1.5-21.5c0-21.8,0.2-43.6,0.7-65.4c0.1-6.9,4.1-8.9,10.5-6.6c4.3,1.6,8.9,2.7,13.4,3.4
			c6.9,1,12.8-1.2,17.3-6.7c4-5,8.1-9.9,12.6-15.2C1030.1,489.9,1030.1,530.9,1030.1,574z M1032,123.8c-0.7,21.6-0.2,43.3-0.2,65.8
			c-12.4-2-23.5,0.9-33.4,8.6c-0.4-0.5-0.9-1.1-1.3-1.6c1.3-1.6,2.4-3.6,4-4.8c5.8-4.1,12.2-7.5,17.6-12.1c4-3.4,7-7.9,9.9-12.3
			c2.3-3.5,1.1-5-3.1-5.3c-9.7-0.6-20.1,6.4-24.5,16.6c-1.2,2.7-2.1,5.5-3.6,9.4c-1.7-8.2,2.1-14,4.7-20.3c-1.9-0.4-3.2-0.7-4.7-0.9
			c7-12.1,6.6-19.3-2.2-26.5c-2.2-1.9-6.4-3.3-8.8-2.5c-2.4,0.9-4.7,4.7-5.2,7.6c-1.4,8.8,2.1,15.9,9.6,20.9c4.6,3.1,4.8,4,4.4,9
			c-3.8-2.4-7.8-4.9-12.5-7.9c-2.4,8.2-1.3,15,1.3,21.8c-8.1,4.1-21.7,22-20.4,27.1c6.5-0.1,6-7.1,9.6-9.9c6.6,4.2,8.9,3.3,10.3-4.4
			c0.7-3.9,0.9-7.9,1.3-11.8c5.7,3.9,11.1,8.2,17.1,11.6c10.2,5.7,18.5,2.7,25.9-4.2c1.1-1,1.9-2.2,3.7-4.3c0,15.1,0,29,0,43.1
			c-4.2-1-8.3-1.9-12.3-2.9c-0.2,0.3-0.4,0.7-0.6,1c2.8,3.7,5.6,7.4,8.4,11.1c0.1,0,0.1,0,0.2,0c0,0,0,0,0,0c0,0,0,0,0,0
			c0,0,0,0,0,0c0,0,0,0,0,0c0,0-0.1,0.1-0.1,0.1c1.5,0.8,3,1.6,4.7,2.5c-4,2.6-7.7,4.9-11.3,7.3c0.1,0.7,0.3,1.4,0.4,2
			c3.4,1,6.7,2.1,10.4,3.2c0,8.7,0,17.4,0,26.5c-6.3-2.7-12.5-5.3-18.8-8c5-2.9,9.4-0.8,13.9,1.2c3.8-8.3,1.5-16.3-6.3-21.1
			c-0.8,3.8-1.5,7.5-2.3,11.2c-0.6,2.6-2,4-4.9,3.8c-5.1-0.4-10.7,1.1-14.6-3c3.7-11,10.5-5.7,16.6-3.2c3.5-5.2,0.6-8.5-2.5-11.1
			c5-3.8,9.9-7.6,14.8-11.3c0,0,0,0-0.1-0.1c-5.2-0.2-10.4-0.4-15.7-0.7c-0.9-0.1-2.3-0.6-2.4-1.2c-1.1-4.2-1.9-8.5-2.8-12.7
			c0.4-0.1,0.8-0.3,1.1-0.4c1.3,2,2.6,4,4.6,6.9c4-5.2,7.7-10,11.6-15c-1.7-0.8-3-1.4-4.3-1.7c-0.3-0.1-0.6-0.1-1-0.2
			c-0.6-0.1-1.3-0.1-1.9-0.1c-0.2,0-0.4,0-0.6,0.1c-0.4,0-0.8,0.1-1.2,0.2c-0.2,0-0.4,0.1-0.6,0.1c-1.3,0.3-2.7,0.8-4.5,1.5
			c0,0-0.1,0-0.1,0c-2,0.8-4.5,1.9-7.6,3.3c-0.9-1.4-1.7-2.8-2.6-4.1c-0.3-0.4-0.7-0.8-1-1.2c-1.3-1.4-3.2-2.2-4.7-4
			c6.1-1.9,13-1,17.9-8c-6.9-0.3-12.8-0.6-18.7-0.6c-1.3,0-3.4,0.7-3.9,1.8c-2.7,5.1-7.6,4-11.9,5.2c-6.5,1.7-13.1,4-18.6,7.6
			c-4.4,2.9-8.1,4.6-13.2,3c-2.3-0.7-4.7-0.9-7.2-2.2c4.6-1.6,9.3-3.2,13.9-4.8c1.6-0.5,2.8-1.1,3.9-1.8c0.8-0.5,1.4-1.1,2-1.8
			c1.6-2,2.1-4.6,1.9-8.3c-8.4-3.9-11.8-11.1-8.6-19.3c2-5,0-8.1-5-12c-1.1,5.2-2,9.5-3,14.5c-1.9-4.1-3.1-8-5.3-11.4
			c-2.9-4.4-5.9-8.9-9.8-12.3c-4.5-4-8.8-2-10.1,3.9c-2.7,12.4,3.3,22.9,13.7,24.1c3.3,0.4,6.6,0.6,9.9,1.2c1.7,0.3,3.2,1.4,4.8,2.1
			c-0.2,0.5-0.3,1-0.5,1.4c-4.5-0.7-8.9-1.7-13.4-2c-3.2-0.3-6.9-0.4-9.7,0.7c-2.2,0.9-4.5,3.8-4.9,6.1c-0.3,2,1.6,5,3.4,6.5
			c4.2,3.3,9.1,2.9,13.6,0.5c3.2-1.7,6.1-4.2,9.3-5.8c1.6-0.8,3.8-0.5,6.2-0.7c-7.2,6.3-13.6,11.8-19.9,17.2
			c-0.5-0.4-2.2-2.4-2.9-2.1c-1.6,0.6-2.9,2.3-3.9,3.8c-1.2,1.9-1.9,4.2-2.8,6.4c10.1,0.7,19.8,1.3,29.6,2c0,0.8,0.1,1.6,0.1,2.5
			c-1.5,0.2-3,0.8-4.4,0.7c-4.5-0.3-8.9-1.1-13.4-1.2c-1.7,0-4.6,0.8-5,1.9c-0.5,1.5,0.4,4.2,1.6,5.3c4.2,4,8.7,7.7,13.3,11.3
			c2.2,1.7,4.7,2.9,8.2,4.9c-9.1,3.6-18.3,4.8-25.1,12.2c10.3,2.1,19.5,4.3,28.9-0.7c1.9-1,5.1,0.3,8.2,0.6
			c-4.2,8.9-7.8,16.4-11.7,24.5c10.4,0.1,17.4-4.6,21.4-13c2.1-4.5,4.7-5.8,9.2-5.2c2.2,0.3,4.5-0.2,6.5-0.2
			c-3.1,6.1-6.2,12.3-10,19.7c4.3-0.9,7.5-1.5,12.1-2.4c-7.4,10.1-10.2,20.4-7.9,31.7c0.5,2.5,1.7,4.9,2.6,7.5
			c7.3-2.1,8.5-8,11.7-13.7c0.3,2.1,0.9,4.1,0.8,6.2c-0.9,11.8,9.7,24.5,20.6,24.5c3.8,0,6.2-1.4,6.1-5.4c-0.1-4.1-0.2-8.4-1.2-12.3
			c-2.6-9.8-9.5-14.7-20.4-14.8c-3.9,0-5.9-1.1-6-5.3c-0.1-3.4-1-6.7-1.7-11.4c9,10.7,19,16.1,33.6,13.4c-1.9-3.1-3-5.9-4.9-7.8
			c-6.7-6.9-14.6-12-24.1-14.4c-1.6-0.4-3.1-1.1-4.1-1.4c0.3-4.3,0.5-8.2,0.7-12.5c9.6,9.5,18,22.3,35.1,18.3c0,44.1,0,87.4,0,131.3
			c-3.4-3.1-6.1-5.6-9.1-8.5c4.9-13.9,5.9-27-7.6-38c-12.2-9.8-23.6-10.3-35.7,0.5c-4.2-8.8-10.9-12.4-19.4-9.5
			c-4.6,1.5-8.8,5.3-12.1,8.9c-3.9,4.2-6.7,9.5-10.3,14.8c-8.7-5.6-17.2-3.8-25.3,1.9c0-41.4,0-82.3,0-123.3
			c2.5-0.6,4.4-0.9,6.3-1.5c8.8-2.5,16.3-13,15.7-22c-0.1-1.1-1.2-2.3-2.1-3.2c-2.4-2.6-5.1-4.8-7.3-7.5c-3-3.8-5.4-8.3-12.3-5.8
			c0-3.2,0-5.5,0-7.8c0.1-34,0.4-68,0.1-102c-0.1-10.5,4.3-17.8,13.5-21.7c6.3-2.7,13.2-4.6,19.9-6c6-1.2,11.5,0.6,15.4,5.8
			c7.7-6.8,11.2-6.6,24.7,1.2c3.5-4.8,8.7-6,14.1-5.2c5.9,0.9,11.8,1.9,17.4,4C1026.9,104.8,1032.4,111.7,1032,123.8z M972.8,242.7
			c0.7-1.2,2.4-1.9,3.7-2.8c1.5,2.6,3.7,5.2,4.2,8c0.3,1.7-1.8,5.1-3.5,5.6c-1.9,0.6-4.5-1.2-6.9-2c0.8-1.8,1.6-3.6,2.4-5.4
			c0.3,0.1,0.6,0.2,0.9,0.3C973.2,245.2,972.3,243.5,972.8,242.7z M958.8,249.3c1.5,10,14.9,17.3,26.5,14.4
			c13.3-3.2,16.9-14.5,10.8-32.9c10.3,7.2,7.8,22,1.6,30.4c-7.4,10.1-23.6,11.8-34.6,3.7c-10.8-7.9-13-21.7-5.4-32.6
			c6.8-9.7,20-14,27.8-8.6C967.7,225.4,956.9,236,958.8,249.3z M986.1,240.4c0.5-1.8,2.3-3.3,3.6-4.9c1.3,1.1,2.6,2.2,4.8,4
			c-2.1,1.9-3.4,4.1-4.6,4C988.5,243.5,985.9,241.1,986.1,240.4z M911.7,260.7c0-8,0-16,0-25c5,2.9,9.5,5.5,13.9,8.1
			C920.8,249.7,916.4,255.1,911.7,260.7z"/>
	</g>
	<g>
		<path fill="#C49A6C" d="M528.5,501.1c-7.5,14.3-16.5,28-22.1,43c-7,18.4-11.5,37.8-16.4,56.9c-4.4,17-4.4,33.9,3.3,50.2
			c1,2.1,2.3,4.2,3.5,6.2c0.7-0.2,1.4-0.5,2.1-0.7c-0.8-4-1.2-8.1-2.6-11.9c-3.7-9.9-1.8-18.3,3.7-27.4c7-11.6,13.7-23.7,18.2-36.4
			c9.1-26.1,8.4-54,11.6-81.5C528.9,499.8,528.8,500.5,528.5,501.1z"/>
		<path fill="#C49A6C" d="M401.7,28.7v742.6h149.6V28.7H401.7z M536.5,458.3c0,0.7,0,1.3,0,2c-0.2,10.2,0,8.1-8.1,9.1
			c-6.1,0.7-12.2,2-18,3.7c-11.5,3.4-18.4,12.1-24,22c-1.7,3-3.4,5.9-5.2,8.9c-0.6-0.3-1.3-0.6-1.9-0.8c2.2-5.4,4.1-10.9,6.7-16
			c6.9-13.3,15.2-25.9,21.1-39.6c11.6-26.9,17.9-55.3,18.4-84.7c0-1.6,0-3.1-0.8-4.9c-22.3,38.3-44.6,76.5-44.3,123
			c-0.4-0.1-0.8-0.2-1.2-0.3c-0.1-6.9-0.3-13.7-0.2-20.6c0.2-13.8,0.3-27.7,1-41.5c0.3-5.5,1-11.6,3.6-16.2
			c9.8-17.3,20.5-34.2,31-51.2c4.3-7,8.9-13.8,12.6-21.3c-20.9,5.8-33.6,20.9-45.1,38.7c-0.6-1.7-1.1-2.4-1.1-3.1
			c-1.4-19.2,2.5-37,14-52.9c7.2-10,14.6-19.9,20.8-30.5c5-8.5,8.2-18.1,12.4-27.1c1.9-4.1,4-8.1,6-12.2c0.6,0.2,1.1,0.5,1.7,0.7
			c0.1,9.8,0.4,19.5,0.4,29.3C536.3,334.7,536.4,396.5,536.5,458.3z M415.8,233.6c0-0.6,0.2-1.2,0.3-1.8c0.6-0.3,1.3-0.5,1.9-0.8
			c3.1,5.1,6.5,10.2,9.4,15.5c1.5,2.7,2.6,5.8,3.3,8.8c4.1,16.8,12.1,31.5,22.6,45.1c6.9,9,13.3,18.6,15.1,30
			c1.4,8.8,1.2,18,1.8,27.5c-6.1-8.7-11.1-16.9-17.1-24.3c-8.8-10.9-20.5-18.4-33.4-23.7c-2.4-1-3.9-1.9-3.9-4.9
			C415.9,281.2,415.8,257.4,415.8,233.6z M416.1,343.7c0-7.7-0.2-15.3-0.3-23.9c1.7,1.1,3,1.5,3.8,2.3
			c20.4,20.4,36.2,43.8,46.4,70.8c2,5.4,3.3,11.3,3.4,17c0.7,24.1,0.8,48.3,0.4,72.7c-6.4-32.9-21-61.1-44.6-84.6
			c-0.6,0.3-1.2,0.5-1.8,0.8c2,7,3.5,14.1,6.2,20.9c12.8,32.7,24,65.9,31.7,100.2c1.4,6.3,1.9,12.8,2.7,19.3
			c0.2,1.4,0.1,2.9,0.1,3.6c-5-8.5-9.8-17.7-15.7-26.2c-7.6-11.1-17.8-19.8-29.4-26.6c-2.8-1.7-2.8-3.7-2.8-6.2
			C416.1,437,416.1,390.3,416.1,343.7z M463.8,683.5c-1.4-16.9-2.6-33.9-3.3-50.8c-0.8-21.8-7.5-42.1-15.1-62.2
			c-3.9-10.3-8.1-20.5-12.5-31.5c-5.2,56.8,2.6,110.5,29.2,161c-5,1.7-7.7,1.4-9.8-3c-3.5-7.1-4.5-7.1-10.4-2
			c-4,3.5-4.5,3.3-7.2-1.4c-2.3-4-5.2-7.7-8-11.4c-6-7.8-9.3-16.4-9.3-26.3c-0.3-47.5-0.6-94.9-1-142.4c0-4.6-0.1-9.3-0.2-13.9
			c0.7-0.5,1.4-1.1,2.1-1.6c0.8,1.4,1.5,3,2.4,4.3c20.8,28,34.6,59.3,43.3,92.9c1.6,6.2,1.6,12.9,1.7,19.3
			c0.5,18.1,0.4,36.3,1.1,54.5c0.3,8.9,2,17.8,3,26.7c0.1,1.2,0.2,2.5,0.4,5.2C465.3,695.2,464.3,689.2,463.8,683.5z M419,223.1
			c-2.5-1.6-3.3-3.2-3.3-6c0.1-24.8-0.1-49.7,0.1-74.5c0.1-12.4,4.7-23,14.2-31.3c3.6-3.2,7.6-5.5,12.8-3.2c3.7-8.3,6.9-9,12.5-3.2
			c0.3,0,0.8,0.1,1,0c7.3-6.8,7.6-6.8,16.1-1.6c1.7,1.1,3.5,2,5.2,3c4.2,2.6,8,2.9,11.1-1.8c1.6-2.5,3.8-2.8,6.5-1.4
			c1.2,0.6,3.6,1.2,4,0.7c3.4-4.2,6.8-2.7,10.4-0.1c3.7-5.8,9.4-4.8,14.6-4.4c1.3,0.1,2.9,2.7,3.5,4.5c8.9,23.4,8.5,47.9,8.3,72.3
			c-0.1,13.7-0.7,27.4,0,41c0.5,10.3-4,17.7-11.2,23.8c-12,10.2-23.2,21.1-32.2,34c-2.4,3.4-4.6,6.9-6.9,10.3
			c-1.2-20.3-2.4-40.5-3.7-61.1c2.8,1.3,5.3,2.5,9,4.2c-1.3-3.3-2.1-5.3-3.1-7.9c4-0.7,7.9-1.2,11.7-2c10.6-2.3,19.8-6.8,25.3-16.9
			c5.1-9.4,3.4-18.2-3.3-25.9c-3.3-3.8-3.7-7.5-2.5-11.9c1.6-5.9,3.1-11.8,4.7-18c-8.4-3.1-16.4-1.3-25.5-0.1
			c2.1-4,3.8-7.3,5.4-10.5c-5.4-0.7-5.4-0.7-13.7,9.8c-1.4-1.2-2.7-2.4-4.1-3.6c-10-8.9-23.8-6.8-30.7,4.8c-2,3.3-15.1,17-18.3,19.1
			c-4.4,2.9-9,5.7-13.1,9c-4.3,3.5-3.8,6.7,1.3,8.4c6.8,2.2,10.6,6.8,13.4,13c5.9,12.9,14.7,22.6,30,24.3c-0.6,2.6-1.1,4.6-2,8
			c2.9-2,4.9-3.3,7.9-5.3c2.7,32.9,2.2,65.1,0.8,97.4c-0.4,0-0.9,0.1-1.3,0.1c-0.4-2.2-1-4.4-1.1-6.6
			C471.2,273.6,451.9,244.2,419,223.1z M475.8,687.7c-0.8,0.1-1.5,0.1-2.3,0.2c-0.2-13.5-0.4-27-0.5-40.5
			C475.9,660.7,479.8,674,475.8,687.7z M527.7,682.3c-1.9,4.3-2.8,9.1-4.2,13.9c-4-2-7.8-4-11.7,0.5c-0.5,0.6-3.6-0.1-5-1.1
			c-3.7-2.6-7.1-5.7-11.5-9.4c-1,4-1.6,6.5-2.4,9c-1,3.5-2.9,6.3-7,5.7c-4.4-0.6-5-4.2-4.2-7.6c1.1-5.3,1.9-11,4.4-15.7
			c3.3-6.1,3.3-11.8,1.9-18.2c-3.4-15.2-7.1-30.4-9.4-45.8c-1.7-11.5-1.5-23.2-1.8-34.9c-0.2-6.8,0.4-13.7,0.1-20.5
			c-0.4-8.3,1.7-15.8,6-22.8c13.3-22,30.6-40.2,51.3-55.2c0.4-0.3,0.9-0.4,2.3-0.9c0,2.9,0.1,5.2,0.1,7.5
			c0.2,46.6,0.1,93.3,0.7,139.9C537.6,646,535.6,664.6,527.7,682.3z"/>
	</g>
	<g>
		<path fill="#C49A6C" d="M694.5,471.9c12.2-0.1,21.3-9.4,21.2-21.6c-0.1-11.4-9.1-20.3-20.4-20.1c-11.1,0.1-21.3,10.1-21.3,20.9
			C674,463.4,682.4,472,694.5,471.9z M695.8,435.6c9.1,0,15.3,6.2,15.3,15.3c0,8.9-8,17-16.8,16.8c-9-0.2-15.6-6.9-15.6-16
			C678.8,442.5,686.2,435.5,695.8,435.6z"/>
		<path fill="#C49A6C" d="M765.3,102c-1-0.5-3.6,0.3-4.3,1.3c-2.5,3.8-1.4,6.2,3.7,9C767.8,108,768.2,103.4,765.3,102z"/>
		<path fill="#C49A6C" d="M773.5,205.3c1.7,0,3.3-1.9,6.3-3.9c-2.7-1.9-4.3-4-5.3-3.7c-1.8,0.5-3.2,2.4-4.8,3.7
			C771,202.8,772.2,205.3,773.5,205.3z"/>
		<path fill="#C49A6C" d="M694.7,461.1c5.6-0.1,9.8-4.4,9.8-9.8c0-5-4.9-9.5-10.3-9.3c-4.7,0.1-9.1,5.1-8.9,10.1
			C685.6,457.2,689.8,461.3,694.7,461.1z M695,447.8c1.3,1.8,2.9,3,2.7,3.8c-0.3,1.2-1.9,2.1-2.9,3.1c-0.9-1-2.4-1.9-2.5-3
			C692.2,450.8,693.7,449.6,695,447.8z"/>
		<path fill="#C49A6C" d="M751.7,356.7c-2-1.4-4.1-3.9-6.1-3.7c-1.8,0.1-4.5,2.8-4.9,4.8c-0.7,3.3,2.2,5.3,5.2,5
			c2-0.2,3.8-2.4,5.8-3.7C751.7,358.3,751.7,357.5,751.7,356.7z"/>
		<path fill="#C49A6C" d="M746.5,109.4c1.6-1.1,2.9-2.6,4.7-4.3c-1.5-1.7-2.2-2.6-2.9-3.5c-1.4,1.8-2.9,3.6-4,5.5
			C744.2,107.4,746.4,109.5,746.5,109.4z"/>
		<path fill="#C49A6C" d="M720.3,189.5c12.7,0.1,23.8-10,23.9-21.9c0.1-10.3-8.8-17.9-20.9-17.9c-13.4,0-22,7.6-22,19.5
			C701.1,181.2,709,189.5,720.3,189.5z M723.1,154.6c9.9,0,16.2,4.8,16.2,12.3c0,9-9,17.7-18.2,17.6c-8.7-0.1-15.9-7.1-15.7-15.4
			C705.7,160.9,713.3,154.6,723.1,154.6z"/>
		<path fill="#C49A6C" d="M721.8,179.5c5.2-0.1,9.4-4.4,9.4-9.7c0-5.2-4.3-9.5-9.6-9.4c-5.8,0.1-9.5,3.7-9.5,9.3
			C712.3,175.5,716.3,179.6,721.8,179.5z M721.5,165.7c1.4,1.9,2.8,2.9,2.7,3.9c-0.1,1.1-1.5,2-2.4,3.1c-1-0.9-2.6-1.6-2.7-2.6
			C719,169.1,720.3,167.8,721.5,165.7z"/>
		<path fill="#C49A6C" d="M648.7,28.7v742.6h149.6V28.7H648.7z M781.1,579.9c-5.6-2.3-6.6-4.3-4.6-9.1c2.3-5.4,4.7-10.8,7-16.2
			c0.5,0.2,1,0.3,1.4,0.5C784.4,563.4,786.6,572.2,781.1,579.9z M766.5,598.6c-1.9-1.4-3.9-2.9-6.2-4.6c3.1-3.7,6-7.1,9.2-10.8
			C773.9,587.7,773.2,591.2,766.5,598.6z M771.9,614.7c0.5-0.4,1.2-0.8,1.7-1.3c0.1,0.1,0.2,0.2,0.3,0.3c0.2,0.2,0.4,0.4,0.6,0.7
			s0.4,0.4,0.5,0.7c0.2,0.3,0.4,0.6,0.4,0.9c-1.1,12.1-4.5,23.5-10.5,34c-0.6,0-1.2-0.1-1.8-0.1c-0.2-3.7-1.3-7.6-0.3-10.9
			c2.3-7.9,5.5-15.6,8.5-23.3C771.3,615.3,771.5,615,771.9,614.7z M666.7,513.5c4.2-2,8.4-4.1,13.3-6.4c2,6.2,2.3,11-1.8,15.3
			c-3.7,3.9-6.9,8.1-10.5,12.1c-1.2,1.3-2.7,2.3-4.1,3.5c-0.4-0.2-0.9-0.4-1.3-0.6c0.6-1.7,0.7-4,1.9-5.2
			C671.6,525,672,523.3,666.7,513.5z M669.9,542.6c1.2-0.9,2.1-2.5,2.5-4c1.2-4.7,3.6-8.2,8.9-11.4c0.2,13.1-7.7,19.2-15.9,25.3
			C664.7,547.7,665.9,545.6,669.9,542.6z M670.8,554.9c3.2-2.8,6.5-5.4,8.9-7.2c3.4,8.5,7.1,17.7,10.8,26.8
			c1.6,4.1-4.1,12.5-8.6,12.4c-1.1,0-2.4-1-3.2-2c-6.5-8-8.7-17.4-8.9-27.4C669.7,556.6,670.1,555.4,670.8,554.9z M723.7,381.2
			c-1.6-0.4-3.8,0.4-5.3,1.3c-0.6,0.3-0.3,2.6,0,3.8c0.4,1.6,1.2,3.1,1.9,4.7c-1.3,0.4-3.2,1.7-3.9,1.2c-1.7-1.1-3.9-2.9-4.2-4.6
			c-0.8-4.9,1.6-8.7,6.1-10.9c7.7-3.7,14.7-1.5,19.2,5.8c11.1,17.7,14.8,36.4,7.8,56.6c-0.5,1.5-1.1,3-2,5.4
			c-1.3-8-2.4-14.9-3.5-21.9c5-3.7,6.1-8.4,3.6-15.8c-2.7-7.8-6.3-9.6-19.1-9.2c1.1-2,2.4-3.8,3.2-5.8
			C729.2,387.6,727.3,382.1,723.7,381.2z M706.7,392.3c-9-0.8-18-1.5-27.7-2.4c3-3.6,5.8-6.8,8.3-10.2c4.6-6.3,8.9-12.9,13.4-19.2
			c1.4-2,3.1-4,4.9-5.6c4.1-3.5,6.6-3.5,12.3,0.1c1-2,3-5.3,2.8-5.5c-2.7-2-5.8-3.4-9.2-5.2c6.9-9.9,16.7-15.3,29.3-14.7
			c6.8,0.3,13.6,0.9,20.3,1.9c2,0.3,4.3,2.3,5.3,4.2c5.9,11,6,22.7,2.7,34.4c-4,14.3-8.8,28.4-13.2,42.7
			c-4.3-10.8-8.4-20.8-12.5-31.1c2.2-0.3,5-0.3,7.5-1.1c9.4-2.7,16.2-13.6,15.4-24.8c-0.2-2.9-0.7-6-1.7-8.7
			c-3.3-9.3-12.1-13.6-21.7-10.9c-12.8,3.6-19.8,11.9-18.7,22.3c0.3,3.2,1.5,6.4,2.3,9.9c-4.6-0.9-8.7-1.7-10.6-6.9
			c-0.6-1.6-3.1-2.6-5-3.4c-0.6-0.2-2.8,1.6-2.7,2.3c0.3,2,0.9,4.2,2.2,5.7c1.7,1.9,4.2,3.1,6.4,4.7
			C708,377,706.6,380.1,706.7,392.3z M672.8,270.4c-2.9-5.1-1.8-9.4,1-13.3c3.3-4.5,8.3-6.9,13.5-5.4c5.4,1.6,10.9,4.2,15.4,7.5
			c7.1,5.1,13.4,11.3,19.8,16.8c-9.1,0.8-18.1,1.5-27.3,2.3c1.6-6.3,0.3-11.8-6.1-14.9C681.7,259.7,677.2,264.8,672.8,270.4z
			 M688.5,274.7c-0.5,1.5-2.3,2.5-3.8,3.7c-0.2,0.2-0.4,0.3-0.6,0.5c-0.2-0.2-0.3-0.4-0.5-0.6c-0.2-0.2-0.4-0.4-0.6-0.6
			c-1.1-1.2-2.3-2.4-2.6-3.8c-0.2-1.1,2.3-2.6,4.4-5C686.7,271.7,688.9,273.6,688.5,274.7z M705.1,141.2
			c-13.5,6.3-21.2,20.5-18.6,34.2c2.7,14.3,15.4,25.2,30.1,26.1c17.6,1.1,36-9.5,39.9-26.5c0.1-0.6,0.6-1.1,1-1.7
			c6.5,6.4,7.1,12,1.6,18.9c-8.8,11.2-21,15.9-34.8,16.7c-16.6,0.9-31.8-2.7-43.9-14.8c-9.6-9.6-13.6-21.9-14.1-35.3
			c-0.3-8.3,4.4-14.4,12.2-16.9c9.6-3.1,19.5-3.9,30.7-3.1C707.2,140,706.2,140.7,705.1,141.2z M731.6,144.5c7,3.2,12.6,8,16.7,14.6
			c5.4,8.7,4,19.3-3.4,26.4c-1.3,1.2-2.6,2.4-4,3.4c-0.7,0.6-1.5,1.1-2.3,1.6c-5.4,3.5-11.5,5.4-18.4,5.4
			c-8.3,0.1-15.6-2.7-20.7-7.7c-0.5-0.5-1-1-1.5-1.6c-1.7-2-3.1-4.3-4.1-6.8c-4-9.9-1.3-22.2,6.7-29.9
			C708.5,142.2,721.5,139.9,731.6,144.5z M783.7,256.3c0.6,5.6,1.5,10-3.8,14.2c-12.6,9.9-18.7,23.3-17.8,38.7
			c-7.7-10.2-15.9-20.9-24-31.6c17.7-3.6,18.8-4.2,27.3-16.8C772.6,267.7,775.5,267,783.7,256.3z M766.1,251.4
			c0.2-3.2,0.4-7.2,0.7-11.2c0.5-0.2,1.1-0.4,1.6-0.5c2.3,3.8,4.6,7.6,7.1,11.7C771.5,251.3,769,251.4,766.1,251.4z M777.1,245.5
			c2.7-1.7,4.5-2.7,6.7-4.1c0,3.3,0.1,5.8,0.1,9.6C781.3,249,779.6,247.5,777.1,245.5z M760.1,250.4c-0.9,14.2-13.9,23.7-26.8,19.2
			c-8.8-3-12.8-13.1-8.3-20.6c3.5-5.8,11.6-7.6,15.8-3.2c1.2,1.2,1.9,3.5,1.7,5.2c-0.1,1.2-2.1,3.1-3.3,3c-1.3,0-2.5-2.1-4-2.7
			c-1.6-0.6-4.6-1.1-5.1-0.4c-1.2,1.7-2,4.4-1.4,6.2c0.6,1.8,3,3.7,4.9,4.1c6.7,1.4,14.5-3.7,15.4-9.6c1.2-8-3.5-14.8-11.2-16.2
			c-10.1-1.8-20.8,6.3-21.6,16.5c-0.3,3.3,0,6.6,0,10.2c-7-4.5-9.8-10.6-9.5-18.7c0.4-9.7-0.1-19.5-0.1-28.4c10-0.6,19.6-0.5,29-1.9
			c9.7-1.4,9.6-2,14.8,6.7C755.9,229.4,760.8,238.9,760.1,250.4z M695.5,317.7c3.4,3.6,9.5,4,14.4,1.4c4.7-2.5,7.2-7.8,6.2-13.1
			c-1.5-8.1-7.9-13.5-16.2-13.3c-2.7,0.1-5.5,0.6-8.7,0.9c3.9-7,9.4-10.4,16.9-11.1c19.2-1.8,33.7,5.8,43.7,22
			c3.7,6,6.9,12.4,10.8,19.5c-3.9,0-6.7,0.4-9.3,0c-23.7-3.2-41.8,4.9-53.4,26.2c-0.4,0.7-0.9,1.3-1.9,2.6c-0.9-3.6-1.6-6.4-2.2-9.3
			c-1.5-6.6-4.9-11.5-11.6-13.8c-3.1-1-5.6-2.7-5.8-6.6c-0.5-10.2,10.3-23,20.3-23.9c5.7-0.5,10.3,2.9,9.8,7.9
			c-0.2,1.8-1.5,4.2-3.1,5c-1.2,0.7-3.7-0.4-5.3-1.2c-2-1-3.3-5.5-6.2-1.8C691.5,312.3,693.2,315.3,695.5,317.7z M684.8,336.6
			c5.4,1.8,9,11.6,6.9,18c-5.4-1.5-7.8-5.3-6.9-10.6C685.1,341.6,684.8,339.1,684.8,336.6z M682.7,346.1
			c-5.3-6.5-10.8-11.2-18.9-11.6c0-3.4-0.1-6.5-0.1-9.8C674.6,327.6,680.6,334.5,682.7,346.1z M680.5,352
			c-5.5-1.5-10.8-2.9-16.7-4.6c0-2,0-4.3-0.1-6.5C671.7,340.2,678.7,344.8,680.5,352z M682.5,359c0.1,6-8.8,12.8-18.4,13.1
			c-1.4-4.2-1-6.4,4.1-7.4C673.1,363.8,677.8,360.9,682.5,359z M688,361.5c2,9.6-11.7,25.8-24.5,30.6c0-4.5-0.1-8.8-0.1-14
			C673.4,376.5,682.1,371.7,688,361.5z M780.1,316.2c0.6-0.2,1.2-0.3,1.9-0.5c0.8,1.7,2.2,3.3,2.2,5c0.2,7.2,0.1,14.3-0.1,21.5
			c-0.1,1.9-1.1,3.8-1.7,5.7c-1.8-0.7-4.2-1-5.2-2.3c-1.2-1.5-2.2-4.4-1.5-5.9C779.2,332.2,781.6,324.7,780.1,316.2z M783.9,293.8
			c0.1,5.6,0.1,10.7,0.1,16.2C779,306.5,778.9,299.2,783.9,293.8z M783.4,358.1c2.8,6.8,1.1,10.7-9.3,20.6
			C773.1,369,776.8,360.8,783.4,358.1z M773.3,479.8c4.2,0.4,7.3,0.7,11.3,1.1c-0.7,11.4-0.8,22.5-2.1,33.4
			c-0.9,7.3-7.5,9.9-13.9,6.4c-2.4-1.3-4.7-2.9-7.5-4.6C771.7,506.3,782,496.8,773.3,479.8z M760.9,448.4c0.6,4.5,5.1,7.8,9.8,7
			c4.2-0.7,8.4-1.8,12.4-2.6c0.5,0.7,0.8,1,0.8,1.3c1.1,9.6,0.2,10.9-9.3,10.5c-5.9-0.2-11.8-1.5-17.7-2.4c-3.3-0.5-4.6-2.9-4.9-6
			c-0.6-7.9,5.5-16.1,13.3-17.6c3.5-0.7,6.9,0,8.3,3.6c0.6,1.5,0.2,3.9-0.6,5.3c-0.6,1-2.8,0.9-4.3,1.4c-0.4-1.7-0.8-3.3-1.1-5
			c-0.1-0.8,0-1.6,0-2.4C762.5,442.1,760.3,444.5,760.9,448.4z M784,471.8c0,1.3,0,3,0,4.9c-9-0.9-17.4-2.6-24.7-8.5
			C767.5,469.4,775.6,470.6,784,471.8z M783.7,387.1c0.2,21.3,0.4,42.3,0.6,63.7c-2.1,0.2-3.2,0.3-4.4,0.4c-0.6,0-1.3-0.2-1.9-0.3
			c2.1-10.5,1.2-14.8-4.6-17.6c-9.7-4.7-16,1.3-21.9,7.7c-0.2-0.3-0.6-0.6-0.5-0.7c5.1-12.8,10-25.6,15.4-38.3
			C769.6,394.5,775.2,389.1,783.7,387.1z M729.4,362.1c-2.2-6.7,0.6-13.4,7.5-17.7c0.7-0.4,1.4-0.8,2.2-1.2
			c12.1-6.4,21.9-0.6,22.1,13.9c-0.1,0.9,0,2.5-0.3,4.2c-1.3,7.8-6.9,13.8-13.2,14.2C740,376,732.1,370.2,729.4,362.1z M736.7,406.2
			c2.2,2.9,3.7,6.1,1.1,10.5c-4.1-4.7-7.5-8.7-11.3-13.1C731.2,401.8,734.3,403.2,736.7,406.2z M738.2,467.7
			c1.6-2.8,3.4-4.2,6.2-3.2c3.7,1.2,7.3,2.9,11,4.4c-0.1,0.5-0.3,1.1-0.4,1.6c-2.6,1.3-5.3,2.4-7.7,4c-6.6,4.3-8.5,11.6-5,17.7
			c3.5,6.1,12.3,8.8,18.8,5.7c3.2-1.6,5.1-4.2,3.9-7.7c-0.6-1.8-2.7-3.5-4.5-4.5c-0.6-0.3-3.6,1.7-3.5,2.4c0.6,3.8-0.6,5.6-4.4,5.3
			c-3.7-0.3-6.3-2.6-5.6-6.1c0.6-3.1,2.3-6.8,4.7-8.7c3.7-2.9,8.5-2.6,12.7-0.2c7,4,9.7,12.4,6.4,19.9c-3,6.9-8.7,11.2-15.1,14.7
			c-8.7,4.8-10.4,6.4-15.3,14c-5-12.1-10.1-24.3-14.9-36.6c-0.5-1.4,0.5-3.7,1.4-5.2C730.6,479.3,734.8,473.8,738.2,467.7z
			 M754.6,601.2c-1.4-0.3-3-0.3-4.3-0.9c-13.2-6.8-27.4-11-41.8-14.6c-4.2-1-8.8-2.2-10-7.7C728.8,584.4,747,591.5,754.6,601.2z
			 M725.3,566.3c1.3-1.3,2.7-2.6,4.8-4.6c2,2.3,3.3,3.8,4.7,5.4c-1.5,1.2-3.3,3.6-4.4,3.4C728.5,570,727,567.8,725.3,566.3z
			 M747.7,584.8c-4.2-2.6-8.7-4.7-13.5-7.3c4.1-4.2,8.1-8.8,4.1-15c-3.5-5.4-8.9-4.1-14.5-2.9c-1.1-4.8,0.5-7.3,5-8.2
			c5.6-1.1,11,0.1,15,3.7c6.9,6.2,13.2,13.1,19.6,19.8c1.9,2,1.6,3.9,0.1,6.2C757,590.7,757.1,590.7,747.7,584.8z M735.6,541.9
			c-8.4-3.3-16.1-6.4-24.5-9.8c2.1-1.3,3.5-2,4.8-2.9c4.6-3.2,5.8-8.2,3.3-13.2c-2.4-4.9-7.4-7.3-12.5-5.7
			c-5.2,1.7-9.3,4.8-10.3,10.4c-1.2,6.2,0.5,12.1,5.9,15.4c4.8,3,10.6,4.5,16,6.4c4.3,1.5,8.8,2.4,13.3,4.2
			c-5.6,2.3-13.1,2.5-12.6,10.7c0.3,5.8,2.3,11.5,3.6,17.6c-9-1-18.7-2.5-27-7.9c-5.8-3.7-7.5-10.4-7.8-16.6
			c-0.7-16.9-0.5-33.9-0.6-49.7c10.8-3.1,20.6-5.9,30.5-8.6c1-0.3,2.9,0,3.3,0.7C729.1,507.9,734.3,523.9,735.6,541.9z M707.8,527.3
			c-2.3-3.2-4.3-4.8-4.5-6.6c-0.4-3.5,2.7-5.2,5.6-4.7c1.8,0.3,5,3.2,4.7,4.1C713,522.3,710.6,524,707.8,527.3z M681.9,603
			c3.1-0.2,6.6,2.3,9.7,4.1c0.7,0.4,0.9,2.3,0.9,3.5c-1.7,21.6-3.4,43.2-5.2,65.9c-2.7-7.9-5.5-15.2-7.5-22.8
			c-3.3-12.4-4.2-25.2-3.5-38.1c0.1-1.6,0.2-3.4,0.9-4.9C678.4,607.9,680,603.1,681.9,603z M688.3,595.9c-1.4-0.9-2.5-2.5-3.8-3.8
			c9.4-5.8,52.7,4.1,64.4,13.8c-2.2,13.3-4.4,26-6.6,39.1c-6.6-4-11.3-10.4-14.5-17.4c-4.9-10.5-12.9-16.9-22.9-21.8
			C699.2,603,693.8,599.4,688.3,595.9z M759.2,644.9c0.8,3.4,1.7,7.4,2.5,11.5c0.2,1.2,0.5,2.9-0.1,3.8c-4.2,6.1-8.6,12-13,17.9
			c-0.4-0.3-0.9-0.6-1.3-0.9C751.3,666.3,755.4,655.3,759.2,644.9z M754.1,647.8c-0.3,1.4-1,2.7-1.7,4.3
			c-6.7-11.5-2.1-39.6,8.2-48.1c0.6,1.9,1.8,3.6,1.5,4.9C759.6,621.9,756.8,634.9,754.1,647.8z M769.3,572.2c-2.2-3-3.9-5.7-6-7.9
			c-4.1-4.3-8.6-8.4-12.9-12.6c-7.7-7.6-5.8-23.8,3.3-29.8c3.1-2.1,6.4-1.9,8.4,0.9c1,1.4,0.1,4.4-0.2,6.6c-0.1,0.7-0.9,1.3-1.5,2.2
			c5.6,4.9,8.1,4.4,11-1.4c0.7-1.4,2.2-2.6,3.7-3.3c2.7-1.2,5.6-1.8,9.1-2.9c-0.8,9.3,1.4,18.4-4.8,26.8
			C775.3,556.5,773.2,563.7,769.3,572.2z M781.4,281.3c-8.1,7.9-10.3,17-7,27.8c2.5,8.2,1.8,16.2-2.6,24.1
			c-11.4-22.7-3.8-48.4,11.7-58.4c0.4,0.2,0.9,0.4,1.3,0.6C783.7,277.4,783,279.8,781.4,281.3z M776.6,238.5c-0.9,0.2-2.5-0.1-3-0.8
			c-8.1-9.6-16.1-19.4-24.4-29.4c3.1-1.8,5.4-3.1,8-4.6c5.9,9,14.7,13.4,24.3,16.9c0.7,0.3,1.7,0.6,2.1,1.2
			C786.8,226.7,782.5,237.1,776.6,238.5z M763.9,196.5c1.5-4.8,3-9.6,4.6-14.4c0.5-1.5,0.8-3.5,1.9-4.3c6.7-5.1,9.9-12.2,12.9-20.1
			c0.2,18.4,0.3,36.8,0.5,55.2c-7.9,0.8-18.1-5-20.6-11.8C762.6,199.8,763.4,198,763.9,196.5z M781.7,125.4c-2.7,1.9-5.6,4.5-11,2.5
			c4.9-3,8.4-5.2,13.5-8.4C783.1,122.4,782.9,124.6,781.7,125.4z M783.1,142.8c-2.3-4.2-4-7.2-6.1-10.8c2-0.8,3.8-1.4,6-2.2
			C783,134,783,137.7,783.1,142.8z M781,107.4c1.2,0.7,1.5,3.3,2,5.2c0.2,0.7-0.3,1.6-0.4,2.4c-0.4-0.3-0.7-0.7-1.1-1
			c-1.7,1.2-3.5,2.3-5,3.7c-3,2.9-5.6,6.3-10.1,6.4c-0.3-0.5-0.6-1-1-1.4c2.4-2.7,4.8-5.3,7.1-8c1.2-1.4,2.5-2.7,3.2-4.3
			C776.9,107.8,778.6,106.1,781,107.4z M759,100.7c1.2-3.8,4.3-6,8.5-5.2c4.5,0.9,5.5,4.4,5.1,8.4c-0.7,7.1-5.8,11.4-10.8,15.4
			c-1,0.8-4.1-1.1-6.8-1.9C756.4,111.5,757.4,106,759,100.7z M740,105.8c2-8.5,6.3-11.3,14.4-9.1c-1.1,6.4-2.1,12.8-3.2,19.3
			C740.2,113.9,738.5,112.4,740,105.8z M726.9,98.8c1.8-5,6.2-4.5,11.4-4.1c-1.3,5.7-2.6,11-4,16.7c-5.2-2.6-0.4-7.5-3.6-11.6
			c-1.5,3.6-2.7,6.5-4.3,10.3C723.7,105.7,725.7,102.1,726.9,98.8z M722.5,113.6c15.1,3.9,30.5,7,43.4,16.3
			c13.1,9.5,15.4,25.4,5.6,38c-1.5,1.9-5.6,4.5-6.5,3.9c-3.1-2.1-6.4-4.7-5.6-9.6c0.7-3.7,1.2-7.6,1.1-11.4
			c-0.2-10.1-5.7-17.3-13.9-22.2c-7.9-4.8-16.4-8.7-24.6-13.1c-0.6-0.3-1.1-0.7-2.6-1.7C721.2,113.7,721.9,113.5,722.5,113.6z
			 M720.3,108.4c-4.8,0-6.4-2.6-7.4-11.1C719.6,95.6,721.7,98.7,720.3,108.4z M710.6,108c-4.8,1.2-6-1-7.1-12.8
			C708.6,94.9,710.3,98.3,710.6,108z M711.5,116.4c9.1,4.4,18.1,9.1,26.8,14.3c4.9,2.9,9.6,6.6,13.4,10.9c3.9,4.3,4.2,10.2,3.1,17.1
			c-8.6-13.4-19.7-21.8-34.4-24.7c-14-2.8-28.1-1.5-43.5,1.6c7.3-9.9,14.6-17.3,25.1-20.2C704.9,114.6,708.8,115,711.5,116.4z
			 M699.1,98.7c0.8,2.5,1.3,5.1,2.1,7.6c1,3.2-0.5,4.2-3.9,4.6c-1.6-4.7-3.1-9.2-4.6-13.9C695.8,94.2,697.9,94.9,699.1,98.7z
			 M684.1,98.2c1.1-0.5,3.6-0.5,3.8,0c1.9,4.3,3.6,8.8,5.1,13.4c0.2,0.6-1.1,1.7-2.4,3.5c-2.9-5.3-5.2-9.4-7.3-13.7
			C682.9,100.6,683.4,98.5,684.1,98.2z M672.8,103c0.8-0.7,3.6-0.6,4.1,0.2c2.9,3.6,5.4,7.4,7.7,11.4c0.2,0.4,0.2,0.9,0,1.6
			c-0.2,0.6-0.4,1.3-0.5,1.9v0v0c-0.2-0.2-0.5-0.3-0.8-0.4c-0.8-0.4-1.6-0.8-2.1-1.5c-1.9-2.5-3.6-5.2-5.4-7.8
			c-0.5,0.3-1.1,0.5-1.6,0.8c0.1,1.4,0.2,2.8,0.4,4.3C669.7,110.8,668.8,106.3,672.8,103z M666.9,113.6c3.9,3.6,7.5,6.9,11.1,10.3
			c-4.5,5.8-5.7,6.2-9.9,3C663.3,123.2,662.9,119.1,666.9,113.6z M663.4,143.4c0-5-0.1-9.2-0.1-13.5
			C669.4,134.4,669.4,134.6,663.4,143.4z M676,197.7c4.7,4.9,10.7,9.1,17,11.8c6.1,2.6,8.1,6.7,8.7,12.3c0.2,2.1,0.1,4.3,0.1,6.8
			c-2,0.1-3.6,0.3-5.4,0.4c0.3-1.9,0.5-3.3,0.7-4.8c0.4-3.8,0.2-7.9-3.9-9.3c-3.3-1.1-7.5-1.4-10.8-0.4c-4,1.2-5,5.3-4.6,9.5
			c0.8,7.9,7.6,13.1,15.5,11.4c2.2-0.5,4.5-1.1,6.9-1.7c0,5.2,0.1,10.2,0.1,16.5c-8.1-5.1-15.8-9.1-22.6-14.2
			c-8.1-6.1-10.4-14.7-7.2-24.4c-4.7-0.9-4.7-0.9-7,7c-0.1-13.1-0.2-26.2-0.4-39.2C667.5,185.8,671,192.5,676,197.7z M695,224.1
			c-1.8,1.5-3.1,2.5-4.2,3.4c-0.3,0.3-0.7,0.5-1,0.8c0,0-0.1,0.1-0.1,0.1c-0.1-0.2-0.3-0.5-0.4-0.7c-0.3-0.5-0.6-0.9-0.9-1.4
			c-0.7-1.1-1.4-2.3-1.5-3.5c-0.1-0.9,2.4-3,3.7-2.9C691.8,220.1,693,222.2,695,224.1z M670.1,239.9c2.9,1.7,5.6,3.5,8.4,5.3
			c0.7,0.4,1.3,0.9,0.9,0.7c-4,3.9-8.8,7.3-11.7,11.9c-1.8,2.9-1.4,7.8-0.6,11.5c2.4,11.5,8.5,15.5,21.8,15.9
			c-6,11.6-12.1,23.6-18.8,36.7c-1.4-2-3.2-3.9-4.4-6.1c-0.7-1.4-0.6-3.3-0.6-4.9c-0.7-22.3-1.4-44.5-2.1-66.8
			C662.8,238.1,665,236.9,670.1,239.9z M677.4,355.4c0.1,0.6,0.2,1.2,0.3,1.9c-4.4,1.2-8.7,2.3-13.6,3.6c-0.4-2.7-0.7-4.4-1.1-7.2
			C668.2,354.3,672.8,354.9,677.4,355.4z M665.1,400c1.5-2.5,6.9-2.6,10.4-3.9c4.6-1.7,6.1,2.7,8.6,4.8c5.7-5.6,9.9-5.8,17.2-1.1
			c-2,1.1-4,2.2-6,3.4c0,0.5,0.1,1,0.1,1.5c1.5,0.6,2.9,1.3,4.4,1.9c0.8-2,1.6-4.1,2.4-6.1c38,17.6,45.3,53.3,20.9,80.4
			c-12.6,14-41.6,16.5-57.6,6.3c-1.3-0.8-2.4-2.7-2.6-4.2c-0.4-3.1-0.2-6.2-0.2-10.2c3.5,2.7,6.1,5.1,9.1,7.1
			c17.1,11.7,42.2,5.3,53.1-13.6c8.5-14.8,5.5-39.8-15-49.6c-11-5.3-22.8-5.7-34.7-4.1c-3.8,0.5-7.5,1.1-12.6,1.9
			C663.3,409.1,662.9,403.8,665.1,400z M663.8,428.6c-1.7-8.1-0.9-8.9,10.4-9.3C670.3,422.7,667,425.7,663.8,428.6z M692.2,418.9
			c15.7-0.8,31,12.9,31.7,28.4c0.8,16.4-13,31.9-29.2,32.7c-19.7,1-30.2-9.1-31.2-30C661,431.4,678.5,419.6,692.2,418.9z
			 M665.2,503.1c3.7-1.9,5.9-8.2,13.1-4.4c-5.3,3.9-9.9,7.3-14.5,10.6c-0.6-0.6-1.2-1.2-1.9-1.8C663,506,663.7,503.8,665.2,503.1z
			 M661.8,564.7c0.7-0.1,1.3-0.2,2-0.2c1.8,12.2,6.8,22.9,15.2,31.9c-1.4,3.7-3.5,2.9-5.9,1.4c-7.8-5.2-10.3-13.1-11.2-21.8
			C661.6,572.2,661.8,568.4,661.8,564.7z M692.2,698.5c-3.3-1.7-7.1-2.8-9.9-5.1c-5-4.1-9.6-8.6-13.8-13.5c-4.1-4.8-5.9-10.6-5.9-17
			c0.1-19.6,0.1-39.2,0.2-58.9c0-0.6,0.1-1.3,0.2-2c5.6,3.1,6.6,7.6,6.4,13.6c-1.2,28.7,5.9,55.2,22.2,79.1c0.5,0.8,1,1.7,1.5,2.5
			C692.7,697.6,692.5,698.1,692.2,698.5z M697.7,687.3c-0.4,0.3-0.9,0.4-2.9,1.3c0.2-26.2,1-51.4,3.9-77c9.1,2.4,16.2,6.3,20.9,13.3
			c2.1,3.1,3.3,7.9,2.7,11.6c-2.8,18.1-10.3,34.2-22,48.4C699.5,685.8,698.6,686.5,697.7,687.3z M699.8,696.6
			c0.4-1.1,0.6-2.5,1.3-3.3c13.3-14.4,22.1-31.4,27.9-50.7c3.4,4.1,6.6,7.6,9.4,11.4c0.7,1,0.5,3.2-0.1,4.5
			c-7.8,15.9-19.5,28.4-34.3,38C703.1,697.2,701.3,696.6,699.8,696.6z M715.2,704.9c-2.2-0.4-4.1-2.4-6.1-3.7c1.1-1.5,2-3.4,3.5-4.6
			c9.4-7.5,17.7-16.1,24.4-26.1c2.3-3.5,4.3-7.3,6.4-11c0.5,0.1,1,0.2,1.5,0.4c-1.7,7.3-2.9,14.7-5.4,21.7
			c-2.1,5.9-5.3,11.5-8.7,16.7C727.2,703.8,721.6,706.1,715.2,704.9z M760.9,698.9c3.9-11.1,12-18.4,20.8-25.6
			C783.2,684,771.2,698.6,760.9,698.9z M774.3,674.8c-6.7,5.8-12,13.6-16.9,21.2c-3.8,6-9,8.7-15.4,9.5c-5.4,0.6-7.6-2.6-5-7.3
			c1.9-3.4,4.2-7.2,7.3-9.2c16-10.5,28.5-24.2,38.6-40.4c0.2-0.4,0.7-0.6,1.3-1.1C786.3,658.9,783,667.3,774.3,674.8z M783.5,636.5
			c-4.7,12.7-12.9,23.3-22.8,32.7c10.4-15.6,17.2-32.7,21.4-52.4c1.6,2.2,2.9,3.2,2.8,4.1C784.7,626.1,785.3,631.7,783.5,636.5z
			 M783.6,606.1c-1.3,2.3-3.3,4.4-5.8,1.9c-2-2.1-8.2-2.1-4.5-7.7c1.7-2.6,2.7-5.6,4.2-8.6C785.5,596.5,787,600.3,783.6,606.1z"/>
	</g>
</g>
</svg>
