<?xml version="1.0" encoding="utf-8"?>
<!-- Generator: Adobe Illustrator 27.3.1, SVG Export Plug-In . SVG Version: 6.00 Build 0)  -->
<svg version="1.1" id="Layer_1" xmlns="http://www.w3.org/2000/svg" xmlns:xlink="http://www.w3.org/1999/xlink" x="0px" y="0px"
	 viewBox="0 0 1200 800" enable-background="new 0 0 1200 800" xml:space="preserve">
<g>
	<path fill="#C49A6C" d="M485.8,180.3c0.4-1.4,0.2-4.2-0.3-4.4c-1.6-0.5-3.5,0-5.3,0.3c-0.5,0.1-0.9,0.5-1.3,1
		c-0.1,0.1-0.2,0.2-0.3,0.3c0,0,0,0,0,0c0,0.3,0,0.7,0.1,1c0,0.1,0.1,0.2,0.1,0.2c1.3,1.3,2.7,2.8,4.3,3.6
		C483.5,182.7,485.5,181.2,485.8,180.3z"/>
	<path fill="#C49A6C" d="M492.3,184.4c-0.2-0.2-0.4-0.3-0.5-0.5c-0.2-0.2-0.4-0.3-0.5-0.5c-0.2-0.1-0.4-0.3-0.5-0.4
		c-0.5-0.4-1-0.6-1.5-0.5c-1.6,0.3-3.1,2.1-4,3.7c-0.3,0.5,1.4,2.2,3,4.5c1.4-1.5,2.5-2.6,3.5-3.7c0.6-0.6,1.1-1.2,1.7-1.8
		c-0.2-0.1-0.4-0.3-0.5-0.4C492.7,184.7,492.5,184.6,492.3,184.4z"/>
	<path fill="#C49A6C" d="M489.9,176.6c-0.3,0.3,1.8,2.5,3.1,4.3c2.4-1.9,4.1-3.3,5.9-4.6c-1.4-1.3-3-3.8-4.1-3.6
		C492.9,173.1,491.2,175,489.9,176.6z"/>
	<path fill="#C49A6C" d="M466.4,179.5c-0.2-1-1.9-2.6-2.9-2.6c-1.4,0-2.8,1.3-4.2,2c0,0.6,0,1.3-0.1,1.9c1.2,0.8,2.3,2,3.6,2.3
		C465.7,183.7,466.8,181.8,466.4,179.5z"/>
	<path fill="#C49A6C" d="M478.5,177.5C478.5,177.5,478.5,177.5,478.5,177.5C478.5,177.5,478.5,177.5,478.5,177.5
		c-0.1,0.1-0.1,0.1-0.1,0.1C478.4,177.6,478.5,177.6,478.5,177.5c-0.1,0.1-0.1,0.1-0.1,0.1l0,0C478.5,177.5,478.5,177.5,478.5,177.5
		L478.5,177.5C478.5,177.5,478.5,177.5,478.5,177.5z"/>
	<path fill="#C49A6C" d="M465.4,185.6c-1,1.7-1.8,4.6,1.4,5.5c4.4,1.2,5-2.3,6.1-5.7C470.1,183.5,467.3,182.2,465.4,185.6z"/>
	<path fill="#C49A6C" d="M478.3,175.8c-0.8-3.3-3.1-4.5-5.9-3.3c-1.3,0.6-3,3.4-2.6,4.4c1.3,3.1,4,3.6,6.9,1.7
		c0.6-0.4,1.2-0.7,1.8-1.1c0,0,0,0,0,0C478.4,176.9,478.4,176.4,478.3,175.8z"/>
	<path fill="#C49A6C" d="M460.7,174.6c1.5,0.1,4.5-1.4,4.4-1.8c-0.4-2.5-1.4-4.9-2.4-7.8c-2.6,1.8-4.1,2.9-5.6,3.9
		C456.9,171.7,457.6,174.3,460.7,174.6z"/>
	<path fill="#C49A6C" d="M477.5,186c-1.4,0.3-3.4,2.4-3.3,3.6c0.1,1.3,2.1,3.3,3.5,3.5c1.2,0.1,2.6-1.9,5-3.9
		C480.2,187.5,478.6,185.7,477.5,186z"/>
	<path fill="#C49A6C" d="M469.2,169.4c0.7,0.4,2.8-1.4,5.5-3c-2.5-2.2-3.8-4.1-5.4-4.4c-1.1-0.2-2.7,1.7-4,2.6
		C466.5,166.3,467.5,168.4,469.2,169.4z"/>
	<path fill="#C49A6C" d="M486.9,172.6c2-0.9,3.7-2.6,6.5-4.8c-2.6-1.5-4.4-3.2-5.2-2.8c-1.8,0.9-3.3,2.8-4.4,4.5
		C483.5,169.9,486.3,172.9,486.9,172.6z"/>
	<path fill="#C49A6C" d="M477.8,21.8L477.8,21.8c-49.6,0-89.9,40.2-89.9,89.9v666.6h179.8V111.6C567.6,62,527.4,21.8,477.8,21.8z
		 M533.9,132.4c2.2,3.5,3.9,6.1,5.6,8.7c-3.1,1.3-6.1,2.6-9.2,3.9c-0.2-0.5-0.4-1.1-0.7-1.6C530.8,140.2,532.1,137.1,533.9,132.4z
		 M491.9,384.1c-0.3-14.3-3.8-28.1-7.3-41.9c-1.8-7.1-1.1-14,2.5-20.4c7.7-13.5,18.7-23.2,33.3-28.7c2.2-0.8,5-0.1,7.5-0.1
		c-0.8,2.4-1,5.6-2.6,7.1c-3.6,3.5-7.8,6.6-12.1,9.1c-10.8,6.1-13.4,16-14.3,27.3c0.9,0.2,1.1,0.3,1.2,0.2c9-8,19.8-12.5,31.1-16.1
		c3.3-1,6-3.7,9.5-6c-12.6,32.5-32.1,60.6-49.2,88.9C491.7,397.7,492,390.9,491.9,384.1z M538.1,281.1c-5.4,0.4-10.8,1-16,2.1
		c-13.8,2.9-23.6,12.1-32.4,22.2c-3.9,4.5-6.9,9.7-10.3,14.6c-0.4,0-0.9,0-1.3,0c2.4-9.2,4.7-18.4,7.1-27.6c0.5-1.7,1.4-3.3,2-5
		c4.3-11,11.9-17.3,23.9-19.1c6.7-1,13.4-3.3,19.5-6.2c6.3-3,9.8-8.7,10-16c0.1-2.9,0.9-4.8,3.4-6.7c5.8-4.3,7.6-10.7,6.6-17.6
		c-0.7-4.8,0.9-7.7,5.9-9c0.1,1.3,0.3,2.6,0.3,3.9c-0.1,13.8-0.1,27.6-0.4,41.4c-0.1,3.1-0.4,6.3-1.3,9.3
		C552.5,275.7,547,280.4,538.1,281.1z M449.4,459.4c-6-9.7-12.4-19.2-17.8-29.3c-1.6-3-1.1-7.8,0.1-11.2c2.5-7.2,1.7-12.8-4.4-17.6
		c-1.4-1.1-2.4-3.1-2.9-4.9c-1-4.2,1.7-7.8,6-7.4c9.4,0.8,18.8,1.9,28.1,3.4c5.1,0.8,8,4.7,9.9,9.5c2.9,7.4,6.6,14.4,9,21.9
		c1.4,4.2,2,9.3,1.1,13.5c-2.9,12.8-6.8,25.5-10,38.2c-1.3,5-1.8,10.1-2.9,16c-8-23-7.6-47.1-16.2-69.1
		C446.8,434.7,446.2,446.9,449.4,459.4z M452.6,382.1c-3.8-0.8-8.1-0.2-11.9,0.5c-4.4,0.9-8.6,2.5-12.8,4.1
		c-8.7,3.2-12.1,10.5-9.2,19.5c0.8,2.6,1.7,5.2,1.9,8c-5.4-6.8-9.8-14.1-8.9-23.2c0.4-3.8,1.3-7.7,2.9-11.2
		c4.2-9.5,5.6-18.7-2.2-27.5c2.8-0.7,5.2-0.9,7.3-1.8c5.7-2.2,9.4-6.1,10.8-12.2c0.8-3.5-0.4-4.2-3.5-4.3c-7.3-0.2-12.7,2-14,10
		c-5.2-0.1-6.8-3.3-7.2-7.3c-1.6-16.5,10.7-26.7,27-22c3.6,1,7.4,2.8,10.3,5.3c18.7,16.5,32.1,36.4,36.5,61.3
		c1.3,7.6,1.2,15.4,1.2,23.2C475.1,391.9,465.4,384.8,452.6,382.1z M453.9,173.4c1-1.4,2.1-2.9,3.2-4.4c0,0,0,0,0,0c0,0,0,0,0,0
		c0,0,0,0,0,0c0,0,0,0,0,0c0,0-0.1,0.1-0.1,0.1c2.2-7.8,18.4-13.8,26-11.1c11.7,4.2,20.5,17,20,28.3c-2.3-0.3-4.7-0.6-7-0.9
		c-0.1,1.6-1,3.8-0.3,4.8c1,1.3,3.2,1.7,5,2.6c-1,0.8-2.8,2.3-4.7,3.8c-1.7-2.4-2.1-6.2-6.4-4.1c-4.7,2.4-1.3,5.1-0.1,8.9
		c-3.7-2.2-5.3-9-10-4.2c-1,1-0.2,4-0.2,6.7c-0.1,0-1.1,0.4-2.2,0.8c-1.9-7.5-3.2-7.9-9.2-3.4c0.9-7.1,0.6-7.6-5.5-8.8
		c-0.8-6.8-0.8-6.7-8-6.1c-0.7,0.1-1.5-1.1-2.5-1.9C458.7,180.6,459.1,178.3,453.9,173.4z M518.6,241.9c6.1,5,6.1,5,17,6
		c-6.9,14.4-21,14.3-33.6,17.3c0.1-0.9,0.4-1.9,0.2-2.8c-0.7-4.9,1.8-6.8,6-9.1C512.4,251,515,246,518.6,241.9z M511.2,216.3
		c0.3-0.1,0.5-0.3,0.8-0.4c4.9,3.6,10.1,6.9,14.7,10.9c3.1,2.7,5.6,6.2,7.7,9.7c2,3.4,0.9,4.6-3.2,4.9c-5.8,0.4-10.5-1.7-12.9-7
		C515.6,228.5,513.5,222.3,511.2,216.3z M475.8,293.2c0.9-7.4,1.7-14.9,3.3-22.1c1.9-8.9,5.3-10.7,16.2-9.4c-2.4,4.2-4,8.1-6.5,11.3
		c-6.7,8.8-10.6,18.7-11.9,29.6c-0.1,0.7-0.3,1.4-1.4,2C475.6,300.7,475.3,296.9,475.8,293.2z M439.7,246.5c-6.4-4.1-11-9.3-11.6-17
		c-0.9-12.2,4.9-20.9,14.7-27.3c1-0.7,3.4-1,3.8-0.4c1.1,1.3,1.6,3.2,2,5c0.1,0.7-0.7,1.6-1.2,2.4
		C439.6,220.4,433.4,232,439.7,246.5z M445.1,225.5c1.7-6.3,4.8-11.6,9.4-17.6c-1.1,6.9-2.6,12.6-2.8,18.3c-0.2,5.6,1,11.2,1.6,17.3
		c-3.4,1-5.8-0.6-7.4-4.1C443.8,234.9,443.8,230.3,445.1,225.5z M457.2,257.6c2.9,1.6,5,3,7.4,4c6.7,2.6,6.8,2.6,5.3,9.7
		c-3.3,15.6-3.7,31.2-0.4,46.8c1.4,6.7,3.4,13.3,4.8,20.1c-4.4-8.1-13.4-12.9-14.6-23.5c-1.1-9.2-6-17.2-13.3-23.2
		c-10.9-9-24-9.4-35.6-1.4c-0.6,0.4-1.2,0.7-2.8,1.6c4.1-9.5,10.6-14.8,18.9-17.9c3.2-1.2,6.6-1.8,10-2.4
		C445.8,269.9,454,267.5,457.2,257.6z M468.7,214.1c3.7-0.8,6,0.5,7.4,3.4c1.7,3.6,0,9.6-4,13.5
		C470.9,225.2,469.8,219.8,468.7,214.1z M474.2,255.8c-5.7,4.8-14.2,1-16.3-7.1c3.1-1.3,6.2-2.5,9.5-3.9
		C468.2,249.5,468.2,254.5,474.2,255.8z M468.8,234.2c0.3,1.2-1.8,3.6-3.3,4.6c-2.3,1.5-5,2.3-8.2,3.6c-3.6-11.1-2.8-20.8,2.1-30.9
		c1.2,1,2.6,1.5,2.9,2.3C464.6,220.6,467,227.4,468.8,234.2z M472.5,249.2c-0.4-3.5-0.2-7.9,1.6-10.7c4.3-6.6,7.2-13.4,7.4-21.7
		c12.6,5.8,15.7,22,6.4,31c-1.9,1.9-4,3.6-6.3,5.1C477.6,255.6,473,254,472.5,249.2z M489.9,254.8c9.5-12.5,8.2-25,1-37.9
		c8.3,4.4,11.4,11.4,11.4,20.3C502.2,245.9,497.4,251,489.9,254.8z M441.6,154.2c-2.7-3.1-4.7-6.7-7.1-10.1c0.5-0.5,1-1,1.5-1.5
		c5.7,3.5,11.4,6.9,17.4,10.5C447.6,159.4,446.2,159.5,441.6,154.2z M440.6,189.1c2,4.7,0.7,7.7-3.6,10.7
		c-7.5,5.2-13.8,11.9-17.5,20.6c-0.6,1.4-2.9,3-4.2,2.9c-1.4-0.1-3.3-2-3.8-3.5c-3.5-10.3,1.2-23.1,10.8-28.3
		c5.2-2.7,11-4.1,16.9-6.2C440,187.5,440.3,188.3,440.6,189.1z M422.5,237.3c3.3,3.7,6.3,7.6,9.9,10.9c3.5,3.2,7.6,5.6,11.8,8.5
		c-2.8,4.9-7.5,7.2-12.5,9.4c-6.8,2.9-14.1,5.6-19.8,10.1c-4.9,3.8-7.9,10.1-11.2,14.5C399.1,281.5,412,248.6,422.5,237.3z
		 M423.5,290c14.3-3.3,28.9,9,30.9,24.6c-6-2.8-11.8-6.2-18-8.1c-17.6-5.4-28.6-0.5-36.8,15.6C398.7,307,406.9,293.9,423.5,290z
		 M554.9,197.7c-3.3-3.1-6-6.3-9.3-8.6c-3.2-2.3-7.1-3.6-11.1-5.7c4.1-1.5,7.5-2.9,11.1-3.9c1.2-0.3,3.3-0.1,4.1,0.8
		C554.2,185.1,555.1,191.1,554.9,197.7z M514.4,175.9c-1.9-1.2-2.6-2.5-0.5-4.1c5.6-4.5,23.7-3.9,29,0.9c0.4,0.4,0.6,0.9,0.9,1.4
		C537.6,181.2,521.8,180.6,514.4,175.9z M528.2,185.1c7,1.9,13.6,4.5,18.4,10.4c3.5,4.2,4.1,9,2,15.2c-1.5-2.1-2.3-3.4-3.2-4.7
		c-5.5-8.5-13.3-14.1-22.5-17.8c-1.5-0.6-3.2-1-4.8-1.1c-5.9-0.6-5.9-0.5-5.5-6C518,182.5,523.1,183.7,528.2,185.1z M541.8,213
		c-8,1.5-15.5,1.4-22.3-3.9c-5.5-4.3-7.1-9.9-5.9-16.5C525,190.7,539.6,201.2,541.8,213z M512.9,208.5c7.6,8.2,16.7,11.9,27.8,10
		c3.8-0.6,4.8,1,5,4.2c0.2,5.1,0.2,10.2-5.6,13.6c-6.4-14.5-23-18-31.9-29.8c0.3-0.4,0.7-0.7,1-1.1
		C510.4,206.4,511.8,207.3,512.9,208.5z M504.7,161.8c-3.3-1.7-3.7-3.7-1.8-6.8c5.5-9.2,13.7-15.5,23.5-21.6
		c-0.3,5.7-1.9,9.7-6.2,12.1C513.3,149.3,508,154.4,504.7,161.8z M519,121.8c4.6,1.8,4.8,7.1,0.8,10.1c-8.5,6.3-16.3,13.1-21.5,22.9
		c-3.5-1.8-6.7-3.4-9.8-5.2c-0.7-0.4-1.3-1.8-1.1-2.5c2.7-11.6,8-21.6,19.7-26C510.6,119.8,515.4,120.4,519,121.8z M498.3,119.8
		c-6.9,6.5-12.2,14-14.3,23.4c-0.9,3.9-3.3,4.5-6.6,4.5c-3.8-0.1-3.1-3-3.3-5.2c-0.8-8.3,0.6-16.1,5.4-23.1c5-7.4,15.4-8.8,22.2-3
		C500.6,117.5,499.5,118.7,498.3,119.8z M461.1,68.7c3.2-6,9.4-10,16.6-10c2.1,0,4.1,0.4,6,1c8.8,2.1,14.6,9.6,14.2,19.1
		c-0.4,11.5-9.4,19.7-20.9,19.3c-10.6-0.4-19.2-9.6-18.8-20.1C458.4,74.6,459.4,71.4,461.1,68.7z M462.6,114.2
		c3-1.7,5.7-1.1,8.2,1.1c2.5,2.1,3,4.4,1.5,7.5c-3.3,6.7-3.4,13.9-2.8,21.1c0.3,3.9-1.4,5.9-4.7,6.8c-1.1,0.3-3.1-0.2-3.5-1
		c-3.5-6.3-6.4-12.8-6.5-19.8C455.1,123.1,456.7,117.6,462.6,114.2z M447.6,114.8c1.5-0.2,3.1,0.4,5.1,0.6
		c-4.2,13.2-4.2,13.2,2.4,32.7c-6.2-3.1-12.8-6.3-19.3-9.7c-1.1-0.6-2.2-2.1-2.5-3.4C431.3,126.5,439,115.7,447.6,114.8z
		 M426.3,139.4c2.3,4.4,4.6,8.9,7.4,14.4C426.4,149.5,424.5,145.4,426.3,139.4z M411.5,146.6c2.1-1.4,4.2-2.7,7.2-4.5
		c1.7,12,9.1,18.8,17.9,24.5c-0.1,0.4-0.3,0.7-0.4,1.1c-1.3,0.1-2.7,0.4-4,0.2c-6-1-12.1-1.9-18-3.4c-3.7-0.9-6.8-3.3-7.5-7.5
		C405.9,152.4,407.8,149,411.5,146.6z M402,162.3c5.3,2.9,10.5,5.7,15.1,8.2c-4.4,2.9-9.5,6.1-15.3,9.9
		C401.8,174,401.9,167.8,402,162.3z M399,199.6c0.1-15.4,16.2-30.6,35-25.6c4.2,1.1,5.5,3.6,4.8,8c-1.9,0.4-3.9,0.8-5.9,1.1
		c-11.7,1.8-21.1,7.4-27.8,17.2c-4.9,7.2-5.6,15.1-1.9,23c2.5,5.2,6.5,8.5,12.8,7.9c0.8-0.1,1.6,0.3,2.5,0.5
		c-6.8,12.2-13.4,24.2-19.9,35.8c0.3,0.6,0,0.2,0-0.1C398.8,244.8,399,222.2,399,199.6z M399,342.7c3.3,4.9,6.4,9.1,9,13.5
		c2.8,4.6,3,9.3-0.2,13.9c-1.4,2.1-2.8,4.3-4.1,6.4c-3,4.7-4.1,10-2.2,15c3.1,8.2,7,16.1,10.6,24.1c0.8,1.7,1.8,3.2,1.9,5.4
		c-4.8-5.5-9.6-10.9-14.3-16.4c-0.8-0.9-1.1-2.5-1.1-3.8c-0.1-18.7-0.1-37.4-0.1-56.1C398.5,344.3,398.7,343.9,399,342.7z
		 M407.3,686.1c-2.6-0.1-6.7-4.4-7-7.2c-1.2-10.4-1.1-21-1.4-31.5c0.6-0.2,1.2-0.4,1.8-0.6c1.5,2.4,3.5,4.6,4.5,7.2
		c4.5,12.1,13.2,17.8,26,18.5c2.9,0.2,5.9,1.7,8.5,3.3c5.5,3.4,10.8,7.2,16.9,11.3C439.7,686.9,423.4,687,407.3,686.1z M399.3,635.6
		c0.6-7.1,0.3-14.3,0.5-22.4c7.7,14.6,15.1,28.6,22.9,43.5c-2.5-1.6-4.4-2.8-6.4-4c-3.7-2.3-7.1-5.2-11-6.9
		C400.3,643.8,398.9,640.8,399.3,635.6z M469.6,622c-0.2,4-0.8,8-1.4,12c-2,13.5-4,26.9-6,40.4c-0.1,0.7-0.3,1.4-0.9,3.6
		c-16.2-13.7-30.1-28.2-40.9-45.5c-17.9-28.8-26.5-66.5-20.7-90.4c22.2,6.8,41.1,18.4,56.6,37.2c-2.7-0.4-4.2-0.7-6.4-1.1
		c1.7,8.3,4.8,15.2,9.8,21.3C465.1,606.1,470,612.9,469.6,622z M472.3,585.1c-7.9-14-18-25-30.6-33.6c-12.7-8.7-26.8-13.8-42.9-16.4
		c-0.1-36.3-0.3-72.4-0.4-109.3c1.3,1,2,1.4,2.5,2c12.4,14.7,25,29.1,36.9,44.1c5.1,6.4,8.8,14,12.7,21.7
		c-14.3-3.4-24.7,7.2-38.7,8.1c2.5,2.1,4.2,3.6,5.9,5c9.9,8.3,21.3,12.6,34.2,12.9c2.7,0.1,5.4,0.4,8,1.2c1.5,0.5,3.5,1.7,4.1,3
		c8.1,18.6,12.9,37.7,9.3,58.1C473.1,582.7,472.8,583.4,472.3,585.1z M554.9,580.3c-0.2,33.9-0.1,67.8-0.1,101.7
		c0,6.1-0.1,6.2-6.3,6.1c-13.8-0.2-27.6,0.2-41.3-0.8c-9.5-0.7-18.8-3.3-28.2-5.1c-0.4-0.1-0.6-0.6-1.9-1.7
		c32.8-13.5,55.1-38.2,73.6-67.1c-7.4,2.3-13.7,6.3-18.8,12c-5.2,5.8-9.9,12.1-15.1,17.9c-10.2,11.5-22.3,20.9-35.5,28.8
		c-2,1.2-4.2,1.9-7.9,3.5c0.6-8.7,0.9-16.1,1.8-23.4c0.4-4,1.8-7.9,2.7-11.8c0.9-3.8,2.9-5.7,7-6.2c13-1.3,21.4-8.5,25.2-20.9
		c0.3-0.9,0.2-2,0.5-4.1c-6.3,6.3-12.5,10.6-21.1,11.9c2.7-8.1,6.4-15,11.2-21.3c5.1-6.7,12.5-9.3,21.1-11.8
		c-7.9-4.4-15.4-6.3-22.2-2.2c-6,3.6-10.8,9.3-15.6,13.6c0.4-1.4,1.1-3.9,2.1-6.3c9.1-23.6,21-45.3,39.6-63c5.9-5.6,11.5-12,15.6-19
		c3.8-6.4,5.5-14,8.3-21.8c-9.5-0.1-15.6,3.8-21.3,8.9c-3-5.7-5.9-11.1-8.9-16.8c-7.1,7.8-14.3,14.5-20.2,22.3
		c-7.7,10.2-7.3,21.9-0.8,32.2c5.4,8.5,3.7,14.3-1.7,21.5c-4.1,5.5-6.9,12.1-10.4,18.6c-0.2-4.5,0.2-8.9-0.6-13.1
		c-2.4-12.9-5.8-25.7-7.8-38.7c-4.4-28.4,2.2-54.4,19.9-76.8c12.6-16,26.7-30.8,40.1-46.1c5.7-6.5,11.4-13,17.9-20.5
		c0.2,5.4,0.5,9.5,0.4,13.6C555.8,456.2,555.2,518.3,554.9,580.3z M556,363.8c0,1-1.2,2.4-2.2,3c-4.9,2.8-9.8,5.8-15,8.1
		c-6.6,2.9-12.1,7.2-16.3,13c-7,9.7-13.9,19.5-20.8,29.3c-0.8,1.2-1.7,2.3-3.5,3c0.8-1.8,1.5-3.7,2.5-5.4
		c9.8-17.6,19.7-35.3,29.6-52.9c0.3-0.5,0.7-1,0.9-1.6c3.1-8.8,8.4-15.2,18-17.5c2.3-0.6,4.3-2.6,7.5-4.5
		C556.3,347.2,556.3,355.5,556,363.8z M556.5,328.8c0,1.3-1,2.9-2.1,3.6c-3.9,2.6-8.1,4.9-12.2,7.3c-0.3-0.3-0.7-0.6-1-0.9
		c4.9-11.3,9.8-22.7,14.7-34c0.4,0.1,0.7,0.2,1.1,0.3C556.8,313,556.8,320.9,556.5,328.8z M556.4,176.6c-6-4-12-8.1-15.9-10.7
		c2.9-2.9,6.8-6.9,11.6-11.7C556.9,155.9,559.1,165.9,556.4,176.6z M537.2,159.7c-6.9,4.7-14.9,5.8-23,6.7c-1.8,0.2-3.5,0.4-5.6,0.7
		c1-15.2,17.6-22.4,36-14.9C541.9,155,539.9,157.8,537.2,159.7z"/>
	<path fill="#C49A6C" d="M478.8,168.7c1.8-0.2,3.3-2.1,6.2-4.1c-2.6-2.1-4.2-4.1-5-3.8c-1.8,0.7-3.8,2.3-4.3,3.9
		C475.4,165.7,477.9,168.8,478.8,168.7z"/>
	<path fill="#C49A6C" d="M722.2,21.8c-49.6,0-89.9,40.2-89.9,89.9v666.6h179.8V111.6C812.1,62,771.9,21.8,722.2,21.8z M789.1,152.2
		c-2.7,2.8-4.7,5.7-7.4,7.5c-6.9,4.7-14.9,5.8-23,6.7c-1.8,0.2-3.5,0.4-5.6,0.7C754.1,151.8,770.6,144.6,789.1,152.2z M736.4,384.1
		c-0.3-14.3-3.8-28.1-7.3-41.9c-1.8-7.1-1.1-14,2.5-20.4c7.7-13.5,18.8-23.2,33.3-28.7c2.2-0.8,5-0.1,7.5-0.1
		c-0.8,2.4-1,5.6-2.6,7.1c-3.6,3.5-7.8,6.6-12.1,9.1c-10.8,6.1-13.4,16-14.3,27.3c0.9,0.2,1.1,0.3,1.2,0.2c9-8,19.8-12.5,31.1-16.1
		c3.3-1,6-3.7,9.5-6c-12.6,32.5-32.1,60.6-49.2,88.9C736.2,397.7,736.5,390.9,736.4,384.1z M782.6,281.1c-5.4,0.4-10.8,1-16,2.1
		c-13.8,2.9-23.6,12-32.4,22.2c-3.9,4.5-6.9,9.7-10.3,14.6h-1.3c2.3-9.2,4.7-18.4,7.1-27.6c0.5-1.7,1.4-3.3,2-5
		c4.3-11,11.8-17.3,23.9-19.1c6.7-1,13.3-3.3,19.5-6.2c6.3-3,9.8-8.7,10-16c0.1-2.8,0.9-4.8,3.4-6.7c5.8-4.3,7.6-10.7,6.6-17.6
		c-0.7-4.8,0.9-7.7,5.9-9c0.1,1.3,0.3,2.6,0.2,3.9c-0.1,13.8-0.1,27.6-0.4,41.4c0,3.1-0.4,6.3-1.3,9.3
		C797,275.7,791.5,280.4,782.6,281.1z M693.9,459.4c-6-9.7-12.4-19.2-17.8-29.3c-1.6-2.9-1.1-7.8,0.1-11.2
		c2.5-7.2,1.7-12.8-4.4-17.6c-1.4-1.1-2.4-3.1-2.9-4.9c-1-4.2,1.7-7.8,6-7.4c9.4,0.8,18.8,1.9,28.1,3.4c5.1,0.8,8,4.7,9.9,9.5
		c2.9,7.4,6.6,14.5,9,21.9c1.4,4.2,2,9.3,1.1,13.5c-2.9,12.8-6.8,25.5-10,38.2c-1.3,5-1.8,10.1-2.9,16c-8-23-7.6-47.1-16.2-69.1
		C691.3,434.7,690.7,446.9,693.9,459.4z M697.1,382.1c-3.8-0.8-8.1-0.2-11.9,0.5c-4.4,0.9-8.6,2.5-12.8,4.1
		c-8.7,3.2-12.1,10.5-9.2,19.5c0.8,2.6,1.7,5.2,1.9,8c-5.4-6.8-9.8-14.1-8.9-23.2c0.4-3.8,1.3-7.7,2.9-11.2
		c4.1-9.5,5.6-18.7-2.2-27.5c2.8-0.7,5.2-0.9,7.3-1.8c5.6-2.2,9.4-6.1,10.8-12.2c0.8-3.5-0.4-4.2-3.5-4.3c-7.3-0.2-12.7,2-14,10
		c-5.2-0.1-6.8-3.3-7.2-7.3c-1.6-16.5,10.7-26.7,27-22c3.6,1,7.4,2.8,10.2,5.3c18.7,16.5,32.1,36.4,36.5,61.3
		c1.3,7.6,1.2,15.4,1.2,23.2C719.6,391.9,709.9,384.8,697.1,382.1z M767.4,188.2c-1.5-0.6-3.2-1-4.8-1.1c-5.9-0.6-5.9-0.5-5.5-6
		c5.3,1.4,10.5,2.6,15.6,4c7,1.9,13.7,4.5,18.4,10.4c3.5,4.2,4.1,9,2,15.2c-1.5-2.1-2.3-3.4-3.2-4.7
		C784.4,197.6,776.6,192,767.4,188.2z M786.3,213c-8,1.5-15.5,1.4-22.3-3.9c-5.5-4.3-7.1-9.9-5.9-16.5
		C769.5,190.7,784.1,201.2,786.3,213z M757.4,208.5c7.6,8.2,16.7,11.9,27.8,10c3.8-0.6,4.8,1,5,4.2c0.2,5.1,0.2,10.2-5.6,13.6
		c-6.4-14.5-23-18-31.9-29.8c0.3-0.4,0.7-0.7,1-1.1C754.9,206.4,756.3,207.3,757.4,208.5z M775.6,241.4c-5.8,0.4-10.5-1.7-12.9-7
		c-2.7-5.9-4.8-12.1-7.1-18.1c0.3-0.1,0.5-0.3,0.8-0.4c4.9,3.6,10.1,6.9,14.7,10.9c3.1,2.7,5.6,6.2,7.7,9.7
		C780.8,239.8,779.7,241.1,775.6,241.4z M752.7,253.3c4.2-2.3,6.8-7.3,10.3-11.4c6.1,5,6.1,5,17,6c-6.9,14.4-21,14.3-33.6,17.3
		c0.1-0.9,0.4-1.9,0.2-2.8C746,257.4,748.5,255.6,752.7,253.3z M720.3,293.2c0.9-7.4,1.7-14.9,3.3-22.1c1.9-8.9,5.3-10.7,16.2-9.4
		c-2.4,4.2-4,8.1-6.5,11.3c-6.7,8.8-10.6,18.7-11.9,29.6c-0.1,0.7-0.3,1.3-1.4,2C720.1,300.7,719.8,296.9,720.3,293.2z M684.2,246.5
		c-6.4-4.1-11-9.3-11.6-17c-0.9-12.1,4.9-20.9,14.7-27.3c1-0.7,3.4-1,3.8-0.4c1.1,1.3,1.6,3.2,2,5c0.1,0.7-0.6,1.6-1.2,2.3
		C684.1,220.4,677.9,232,684.2,246.5z M689.6,225.5c1.6-6.3,4.8-11.6,9.4-17.6c-1.1,6.9-2.6,12.6-2.8,18.3c-0.2,5.6,1,11.2,1.6,17.3
		c-3.4,1-5.8-0.6-7.4-4C688.3,234.9,688.3,230.3,689.6,225.5z M729.7,186.2c0.9-1.5,2.4-3.4,4-3.7c0.4-0.1,0.9,0.1,1.5,0.5
		c0.2,0.1,0.3,0.3,0.5,0.4c0.2,0.1,0.4,0.3,0.5,0.5c0.2,0.2,0.4,0.3,0.5,0.5c0.2,0.2,0.4,0.3,0.5,0.5s0.4,0.3,0.5,0.4
		c-0.5,0.6-1.1,1.1-1.7,1.8c-1,1-2.1,2.2-3.5,3.7C731.1,188.4,729.4,186.7,729.7,186.2z M730.3,180.3c-0.3,0.9-2.3,2.4-2.8,2.1
		c-1.6-0.9-2.9-2.3-4.3-3.6c-0.1-0.1-0.1-0.1-0.1-0.2c-0.1-0.3-0.1-0.7-0.1-1c0,0,0,0,0,0v0c0,0,0,0,0,0c0.1-0.1,0.2-0.2,0.3-0.3
		c0.4-0.4,0.8-0.9,1.3-1c1.8-0.3,3.7-0.7,5.3-0.3C730.5,176.1,730.7,178.9,730.3,180.3z M727.1,189.2c-2.4,2-3.8,4-5,3.9
		c-1.4-0.2-3.4-2.2-3.5-3.5c-0.1-1.2,1.9-3.2,3.3-3.6C723.1,185.7,724.7,187.5,727.1,189.2z M711.3,191c-3.3-0.9-2.4-3.8-1.4-5.5
		c1.9-3.3,4.7-2,7.5-0.2C716.4,188.7,715.8,192.2,711.3,191z M706.8,213.9c2.3,6.7,4.7,13.4,6.5,20.3c0.3,1.2-1.8,3.6-3.3,4.6
		c-2.3,1.5-5,2.3-8.2,3.6c-3.6-11.1-2.8-20.8,2.1-30.9C705.1,212.6,706.5,213.1,706.8,213.9z M711.9,244.8c0.7,4.7,0.8,9.7,6.8,11
		c-5.7,4.8-14.2,1-16.3-7.1C705.5,247.4,708.6,246.2,711.9,244.8z M713.2,214.1c3.7-0.8,6,0.5,7.4,3.4c1.7,3.6,0,9.6-4,13.5
		C715.4,225.2,714.3,219.8,713.2,214.1z M737.5,180.9c-1.3-1.8-3.4-3.9-3.1-4.2c1.3-1.7,3.1-3.6,5-4c1-0.2,2.7,2.3,4.1,3.6
		C741.6,177.6,739.9,179,737.5,180.9z M731.4,172.6c-0.5,0.2-3.3-2.8-3.1-3.1c1.1-1.8,2.6-3.6,4.4-4.5c0.8-0.4,2.7,1.4,5.2,2.8
		C735,170,733.4,171.7,731.4,172.6z M723.3,168.7c-1,0.1-3.4-3-3.1-4c0.5-1.6,2.5-3.2,4.3-3.9c0.8-0.3,2.4,1.8,5,3.8
		C726.7,166.6,725.1,168.5,723.3,168.7z M722.8,175.8c0.1,0.5,0.1,1.1,0.2,1.7c0,0,0,0,0,0c-0.6,0.4-1.2,0.7-1.8,1.1
		c-2.9,1.9-5.6,1.4-6.9-1.7c-0.4-1,1.2-3.8,2.5-4.4C719.7,171.3,722,172.5,722.8,175.8z M713.7,169.4c-1.7-1-2.7-3.1-3.9-4.8
		c1.4-1,2.9-2.8,4-2.6c1.6,0.3,2.9,2.2,5.4,4.4C716.5,168,714.4,169.9,713.7,169.4z M710.9,179.5c0.4,2.3-0.8,4.2-3.5,3.7
		c-1.3-0.3-2.4-1.5-3.7-2.3c0-0.6,0-1.3,0.1-1.9c1.4-0.7,2.8-2,4.2-2C709,176.9,710.7,178.4,710.9,179.5z M705.2,174.6
		c-3.1-0.3-3.8-2.8-3.7-5.6c1.5-1.1,3-2.1,5.6-4c1,2.9,2.1,5.3,2.4,7.8C709.7,173.2,706.7,174.7,705.2,174.6z M701.7,257.6
		c2.9,1.6,5,3,7.4,4c6.7,2.6,6.8,2.6,5.3,9.7c-3.3,15.6-3.7,31.2-0.3,46.8c1.4,6.7,3.4,13.3,4.8,20.1c-4.4-8.1-13.4-12.9-14.6-23.5
		c-1.1-9.2-6-17.2-13.3-23.2c-10.9-9-24-9.4-35.6-1.4c-0.6,0.4-1.2,0.7-2.8,1.6c4.1-9.5,10.6-14.8,18.9-17.9c3.2-1.2,6.6-1.8,10-2.4
		C690.3,269.9,698.5,267.5,701.7,257.6z M716.9,249.2c-0.4-3.5-0.2-7.9,1.6-10.7c4.3-6.6,7.2-13.4,7.4-21.7c12.6,5.8,15.7,22,6.4,31
		c-1.9,1.9-4,3.6-6.3,5.1C722.1,255.6,717.5,254,716.9,249.2z M734.4,254.8c9.5-12.5,8.2-25,1-37.9c8.3,4.4,11.4,11.4,11.4,20.3
		C746.7,245.9,741.9,251,734.4,254.8z M686.1,154.2c-2.7-3.1-4.7-6.7-7.1-10.1c0.5-0.5,1-1,1.5-1.5c5.7,3.5,11.4,6.9,17.3,10.5
		C692.1,159.4,690.7,159.5,686.1,154.2z M685.1,189.1c2,4.7,0.7,7.7-3.6,10.7c-7.5,5.2-13.8,11.9-17.5,20.6c-0.6,1.4-2.9,3-4.2,2.9
		c-1.4-0.1-3.3-2-3.8-3.5c-3.5-10.3,1.2-23.1,10.8-28.3c5.1-2.7,11-4.1,16.9-6.2C684.5,187.5,684.8,188.3,685.1,189.1z M667,237.2
		c3.3,3.7,6.2,7.7,9.9,10.9c3.5,3.2,7.6,5.6,11.8,8.5c-2.8,4.9-7.5,7.2-12.5,9.3c-6.8,2.9-14.1,5.6-19.8,10.1
		c-4.9,3.8-7.9,10.1-11.2,14.5C643.6,281.5,656.5,248.6,667,237.2z M668,290c14.3-3.3,28.9,9,30.9,24.6c-6-2.8-11.8-6.2-18-8.1
		c-17.6-5.4-28.6-0.5-36.8,15.6C643.2,307,651.4,293.9,668,290z M799.4,197.7c-3.3-3.1-6-6.3-9.3-8.6c-3.2-2.3-7.1-3.6-11.1-5.7
		c4.1-1.5,7.5-2.9,11.1-3.9c1.2-0.3,3.3-0.1,4.1,0.8C798.7,185.1,799.6,191.1,799.4,197.7z M758.9,175.9c-1.9-1.2-2.6-2.5-0.5-4.1
		c5.6-4.5,23.7-3.9,29,0.9c0.4,0.4,0.6,0.9,0.9,1.4C782.1,181.2,766.3,180.6,758.9,175.9z M778.4,132.4c2.2,3.5,3.9,6.1,5.6,8.7
		c-3.1,1.3-6.1,2.6-9.2,3.8c-0.2-0.5-0.4-1.1-0.7-1.6C775.3,140.2,776.6,137.1,778.4,132.4z M764.7,145.5c-6.9,3.8-12.2,9-15.5,16.3
		c-3.3-1.7-3.7-3.7-1.8-6.8c5.5-9.2,13.7-15.5,23.5-21.6C770.6,139.1,768.9,143.1,764.7,145.5z M763.5,121.8
		c4.6,1.8,4.8,7.1,0.8,10.1c-8.5,6.3-16.3,13.2-21.5,22.9c-3.5-1.8-6.7-3.4-9.8-5.2c-0.7-0.4-1.3-1.8-1.1-2.5
		c2.7-11.6,8-21.6,19.7-26C755,119.8,759.9,120.4,763.5,121.8z M742.8,119.8c-6.9,6.5-12.2,14-14.3,23.4c-0.9,3.9-3.3,4.5-6.6,4.5
		c-3.8-0.1-3-3-3.3-5.2c-0.8-8.3,0.6-16.1,5.3-23.1c5-7.4,15.4-8.9,22.2-3C745.1,117.5,744,118.7,742.8,119.8z M705.6,68.7
		c3.2-6,9.4-10,16.6-10c2.1,0,4.1,0.4,6,1c8.8,2.1,14.6,9.6,14.2,19.1c-0.4,11.5-9.4,19.8-20.9,19.3c-10.6-0.4-19.2-9.6-18.8-20.1
		C702.9,74.6,703.9,71.4,705.6,68.7z M707.1,114.2c3-1.8,5.7-1.1,8.2,1.1c2.5,2.1,3,4.4,1.5,7.5c-3.3,6.7-3.4,13.9-2.8,21.1
		c0.3,3.9-1.4,5.9-4.7,6.8c-1.1,0.3-3.1-0.2-3.5-1c-3.5-6.3-6.4-12.8-6.5-19.8C699.6,123.1,701.2,117.6,707.1,114.2z M692.1,114.8
		c1.5-0.2,3.1,0.4,5.1,0.6c-4.2,13.2-4.2,13.2,2.4,32.7c-6.2-3.1-12.8-6.3-19.3-9.7c-1.1-0.6-2.2-2.1-2.5-3.4
		C675.8,126.5,683.5,115.7,692.1,114.8z M670.8,139.4c2.3,4.4,4.6,8.9,7.4,14.4C670.9,149.5,669,145.4,670.8,139.4z M655.9,146.6
		c2.1-1.4,4.2-2.7,7.2-4.5c1.7,12,9.1,18.8,17.9,24.5c-0.1,0.4-0.3,0.7-0.4,1.1c-1.3,0.1-2.7,0.4-4,0.2c-6-1-12.1-1.9-18-3.4
		c-3.7-1-6.8-3.3-7.5-7.5C650.4,152.4,652.3,149,655.9,146.6z M646.5,162.3c5.3,2.9,10.5,5.7,15.1,8.2c-4.4,2.8-9.5,6.1-15.3,9.8
		C646.3,174,646.4,167.8,646.5,162.3z M643.5,199.6c0.1-15.4,16.2-30.6,35-25.6c4.2,1.1,5.5,3.6,4.8,8c-1.9,0.4-3.9,0.8-5.9,1.1
		c-11.7,1.8-21.1,7.4-27.8,17.2c-4.9,7.2-5.6,15.1-1.8,23c2.5,5.2,6.5,8.5,12.8,7.9c0.8-0.1,1.6,0.3,2.5,0.5
		c-6.8,12.2-13.4,24.2-19.9,35.8c0.3,0.6,0,0.2,0-0.1C643.3,244.8,643.5,222.2,643.5,199.6z M643.5,342.7c3.3,4.9,6.4,9,9,13.5
		c2.8,4.6,3,9.3-0.2,13.9c-1.5,2.1-2.8,4.3-4.2,6.4c-3,4.7-4.1,10-2.2,15c3.1,8.2,7,16.1,10.6,24.1c0.8,1.7,1.8,3.2,1.9,5.4
		c-4.8-5.5-9.6-10.9-14.3-16.4c-0.8-0.9-1.1-2.5-1.1-3.8c-0.1-18.7-0.1-37.4-0.1-56.1C643,344.3,643.2,343.9,643.5,342.7z
		 M651.8,686.1c-2.5-0.1-6.7-4.4-7-7.2c-1.2-10.4-1.1-21-1.4-31.5c0.6-0.2,1.2-0.4,1.9-0.6c1.5,2.4,3.5,4.6,4.5,7.2
		c4.5,12.1,13.2,17.8,26,18.5c2.9,0.2,5.9,1.8,8.5,3.3c5.5,3.4,10.8,7.2,16.9,11.3C684.2,686.9,667.9,687,651.8,686.1z M643.8,635.6
		c0.6-7.1,0.3-14.3,0.5-22.4c7.7,14.6,15.1,28.7,22.9,43.5c-2.5-1.6-4.4-2.8-6.4-4c-3.7-2.3-7.1-5.2-11-6.9
		C644.8,643.8,643.4,640.8,643.8,635.6z M714.1,622c-0.2,4-0.8,8-1.4,12c-2,13.5-4,26.9-6,40.4c-0.1,0.7-0.3,1.4-0.9,3.6
		c-16.2-13.6-30.1-28.2-40.9-45.5c-17.9-28.8-26.5-66.5-20.7-90.4c22.2,6.8,41.1,18.4,56.6,37.2c-2.7-0.5-4.2-0.7-6.4-1.1
		c1.7,8.3,4.8,15.2,9.8,21.3C709.6,606.1,714.5,612.9,714.1,622z M716.8,585.1c-7.9-14-18-25-30.6-33.6
		c-12.7-8.7-26.8-13.8-42.9-16.3c-0.1-36.3-0.3-72.4-0.4-109.3c1.3,1,2,1.4,2.5,2c12.4,14.7,25,29.1,36.9,44.1
		c5.1,6.4,8.8,14,12.7,21.7c-14.3-3.4-24.7,7.2-38.6,8.1c2.5,2.1,4.2,3.6,5.9,5c9.9,8.3,21.3,12.6,34.2,12.9c2.7,0.1,5.4,0.4,8,1.2
		c1.5,0.5,3.5,1.7,4.1,3c8.1,18.5,12.9,37.7,9.3,58.1C717.6,582.7,717.3,583.4,716.8,585.1z M799.4,580.3
		c-0.2,33.9-0.1,67.8-0.1,101.7c0,6.1-0.1,6.2-6.3,6.1c-13.8-0.2-27.6,0.2-41.3-0.8c-9.5-0.7-18.8-3.3-28.2-5.1
		c-0.4-0.1-0.6-0.5-1.9-1.7c32.8-13.6,55.1-38.2,73.6-67.1c-7.3,2.3-13.7,6.3-18.8,12c-5.2,5.8-9.9,12-15.1,17.9
		C751,654.8,739,664.2,725.8,672c-2,1.2-4.2,1.9-7.9,3.5c0.6-8.7,0.9-16.1,1.8-23.4c0.5-4,1.8-7.9,2.7-11.8c0.9-3.8,2.8-5.7,7-6.2
		c13-1.3,21.3-8.5,25.2-21c0.3-0.9,0.2-2,0.5-4.1c-6.2,6.2-12.5,10.6-21.1,11.9c2.7-8.1,6.4-15,11.2-21.3c5-6.7,12.5-9.3,21.1-11.8
		c-7.9-4.3-15.4-6.3-22.2-2.2c-6,3.6-10.8,9.3-15.6,13.6c0.4-1.4,1.1-3.9,2.1-6.3c9.1-23.6,21-45.3,39.6-63c5.9-5.6,11.5-12,15.6-19
		c3.8-6.3,5.5-14,8.3-21.8c-9.5-0.1-15.7,3.8-21.3,8.9c-3-5.7-5.9-11.1-8.9-16.8c-7.1,7.8-14.3,14.5-20.2,22.3
		c-7.7,10.2-7.3,21.9-0.8,32.2c5.4,8.5,3.7,14.3-1.7,21.5c-4.2,5.5-6.9,12.1-10.4,18.6c-0.2-4.5,0.2-8.9-0.6-13.1
		c-2.4-12.9-5.8-25.7-7.8-38.7c-4.4-28.4,2.2-54.4,19.9-76.8c12.6-16,26.7-30.8,40.1-46.1c5.7-6.5,11.4-13,17.9-20.5
		c0.2,5.4,0.5,9.5,0.4,13.6C800.3,456.2,799.7,518.3,799.4,580.3z M800.5,363.8c0,1-1.2,2.4-2.2,3c-4.9,2.8-9.8,5.8-15,8
		c-6.6,3-12.1,7.2-16.3,13c-7,9.7-13.9,19.5-20.8,29.3c-0.8,1.2-1.7,2.3-3.5,3c0.8-1.8,1.5-3.7,2.5-5.4
		c9.8-17.7,19.7-35.3,29.6-52.9c0.3-0.5,0.7-1,0.9-1.6c3.1-8.8,8.4-15.2,18-17.5c2.3-0.6,4.4-2.6,7.5-4.5
		C800.8,347.2,800.8,355.5,800.5,363.8z M801,328.8c-0.1,1.3-1.1,2.9-2.1,3.6c-3.9,2.6-8.1,4.9-12.2,7.3c-0.3-0.3-0.7-0.6-1-0.9
		c4.9-11.3,9.8-22.7,14.7-34c0.4,0.1,0.7,0.2,1.1,0.3C801.3,313,801.3,320.9,801,328.8z M800.9,176.6c-6-4-12.1-8.1-15.9-10.7
		c2.9-2.9,6.8-6.9,11.6-11.7C801.4,155.9,803.6,165.9,800.9,176.6z"/>
</g>
</svg>
