<?xml version="1.0" encoding="utf-8"?>
<!-- Generator: Adobe Illustrator 27.3.1, SVG Export Plug-In . SVG Version: 6.00 Build 0)  -->
<svg version="1.1" id="Layer_1" xmlns="http://www.w3.org/2000/svg" xmlns:xlink="http://www.w3.org/1999/xlink" x="0px" y="0px"
	 viewBox="0 0 1200 800" enable-background="new 0 0 1200 800" xml:space="preserve">
<g>
	<path fill="#C49A6C" d="M528.4,319.8c0,2.4,0,3.7,0,5c0,6.7-2.6,11.9-8.8,14.8c-6.3,2.9-12.5,2.6-18-2c-2-1.7-3.8-3.6-5.5-5.6
		c-4.6-5.7-5.4-11.8-1.3-18.1c3.6-5.6,7.4-11.1,11.1-16.7c4.7-7,9-14.3,11.6-22.4c6.6-20.4,0.2-41.3-17-54
		c-5.5-4-11.3-7.8-17.5-10.6c-10.9-5.1-22.1-9.7-33.4-14c-12.9-4.9-23.8-12.2-31.3-24c-1.3-2.1-3-4-4.4-6c-0.5-0.7-0.8-1.4-1.2-2.1
		c0.2-0.2,0.4-0.4,0.5-0.6c1.1,0.8,2.2,1.6,3.3,2.5c2.6,2.1,5,4.5,7.8,6.3c12.2,7.6,25.5,12,39.7,13.7c9.8,1.2,19.7,2,29.5,3.4
		c9.6,1.4,10.1,2.1,10.3,12.1c0,1,0,2,0.1,3.1c0.1,0.9,0.4,1.7,0.6,2.6c0.3,0,0.5,0,0.8,0c0.8-4,1.7-8,2.5-12.1
		c3.8,0.5,5.5,3,7.4,5.2c6.4,7.3,9,16.1,10.5,25.5c0.2,1.4,0.5,2.8,0.8,4.3c3.8-16.1-4.5-35.1-19-44.2c-2.6-1.6-5.5-2.7-8.1-4.3
		c-1.7-1-3.5-2.2-4.6-3.8c-4.1-5.5-8.5-10.7-13.9-15c-0.7-0.5-1-1.5-1.7-2.5c6.2-2.1,12.1-2.5,18.1-2.4c13.5,0.1,22.9,7,27,20
		c1.2,3.8,1.8,7.8,2.8,11.9c0.5-5.9-0.4-11.4-2.3-16.9c-3.7-10.3-11-16-21.7-17.9c-7.6-1.3-15.1-0.6-22.6,0.6
		c-11.1,1.9-21.7,0.7-32.1-3.6c-1.4-0.6-2.7-1.4-4-2.1c1.5-1.4,2.8-2,4.1-2.4c8.7-3.1,14.9-8.9,18.3-17.5c1.1-2.7,1.9-5.5,2.9-8.2
		c0.7-1.9,1.3-3.9,2.3-5.7c2.1-4,4.9-5.2,9.1-3.5c2.7,1.1,5,2.8,7.5,4.3c0.9,0.5,1.8,1.1,3.2,2c-2.5-5.1-6.5-8.7-10.8-9.9
		c-4-1.1-7.6-0.5-10.4,2.6c-2.1,2.2-3.7,4.8-5.5,7.3c-1.5,2.1-2.7,4.5-4.4,6.5c-7.5,8.9-20.1,9.2-28,0.7c-2.1-2.2-3.9-4.7-5.8-7.1
		c-4.5-5.9-9.8-11.1-16-15.3c-3.9-2.6-7.1-6-9.9-9.8c-5.4-7.5-9.6-15.6-12.6-24.3c-1.2-3.6-2.3-7.2-3.5-10.8
		c-4.8-14.2-14.2-23.8-28.3-28.7c-12.8-4.5-26-6.5-39.4-6.6c-11.1,0-22.2,1.3-32.4,6.1c-11.2,5.2-22,11.3-31.9,18.8
		c-7,5.3-13.5,11.2-18,18.8c-1.9,3.3-4.6,5.3-7.9,7.1c-5.2,2.9-10.5,5.8-15.2,9.4c-12.5,9.6-13.9,27.9-7.9,39.7
		c5.9,11.5,22.6,21.3,38.3,17.3c3-0.8,5.9-1.7,8.9-2.3c6.5-1.1,13.1-1.2,19.3,1.6c0.9,0.4,1.7,1.2,2.6,1.8c-0.1,0.3-0.2,0.6-0.2,0.9
		c-7.6-0.6-15.2-1.5-23.2,2c4.1,3,8,4.6,11.9,6.1c10.5,3.9,21.5,5.2,32.6,4.5c1.3-0.1,2.8-0.7,4.5,0.8c-7.3,2.5-14.3,3.7-21.5,2.9
		c-10.8-1.1-20.7-4.6-29.8-10.4c-2.8-1.8-5.7-2.6-9-2.3c-6.9,0.6-13.3-0.9-19.3-4.2c-0.9-0.5-2-0.7-3.6-1.3
		c-0.1,1.8-0.4,3.1-0.2,4.3c1,8.9,3.6,17.4,8.5,25c0.5,0.8,1.2,1.6,1.9,2.3c2.1,2,2.5,1.9,4.7,0c2.3-2,4.5-4.1,7-5.9
		c1.6-1.2,3.4-2.2,5.9-1.8c-0.3,0.8-0.4,1.4-0.8,1.7c-1.9,1.8-3.8,3.6-6,5.1c-3.7,2.6-5.9,5.6-3.9,10.3c0.3,0.6,0.2,1.4,0.3,2.2
		c0.9,8.4-0.4,16.5-2.1,24.7c-0.9,4.1,0.4,5.8,4.6,5.9c2.6,0,5.2-0.5,7.8-0.9c4.1-0.6,6,0.8,6.7,4.9c0.2,1,0.1,2,0.3,3
		c0.6,4,1.9,5,5.8,4.6c0.9-0.1,1.9,0,2.8,0c0,0.6,0.1,0.9,0,1.2c-1.5,5.6-1.2,6.1,4.7,6.7c2.5,0.3,3.7,1.7,4.9,3.7
		c1.7,2.9,3.4,5.8,5.7,8.1c3.1,3.3,7.2,3.8,11.2,1.6c2.8-1.5,5.6-3.3,7.8-5.4c4.9-4.7,9.6-9.7,14.2-14.8c5.9-6.5,8.4-6.9,14.6-0.8
		c14.3,14,17.8,31.4,15.6,50.6c-0.1,0.8-0.8,1.5-1.8,3c-1.1-6.7-0.4-12.7-1.9-18.4c-4.4,1.7-10,5.7-14.1,9.9
		c-8.4,8.7-15.7,18.3-22.4,28.4c-2.6,4-5,8.2-6.9,12.6c-3.6,8.4-4.4,17.1-1.6,26c0.5,1.7,0.8,3.8,3.3,4.6c1-1,2-2,3-3
		c6.9-7.3,13.9-14.5,20.7-21.9c15.8-16.9,31.4-34,47.2-50.9c6.4-6.8,13.1-13.2,19.7-19.8c0.9-0.9,2.2-1.6,3.3-2.3
		c0.2,0.3,0.4,0.5,0.6,0.8c-0.9,1.1-1.7,2.2-2.6,3.3c-12.5,13.3-23.7,27.6-33.9,42.7c-10.7,15.9-23.2,30.2-38,42.5
		c-5.9,4.9-11.3,10.5-16.5,16.2c-4.9,5.4-6.9,12.1-6.5,19.4c0.5,8.9,3.3,17,8.1,24.6c2.3,3.7,5,5.2,9.6,5.2
		c53.1-0.2,106.3-0.1,159.4-0.1c0.6,0,1.2,0,1.7,0c4-0.1,4.8-0.7,5.4-4.7c2.8-18.4,5.3-36.9,4.7-55.6c-0.4-11.3-2.1-22.3-5.4-33
		c-2.5-8.1-4.7-16.2-7-24.3c-3.1-11.6-7.7-22.6-14.1-32.7c-4.3-6.9-10.5-11.1-18.5-12.7c-5.1-1-10.1-1.1-15.2,0
		c-12.4,2.6-22.5,9.4-30.7,18.9c-10,11.7-18,24.7-23.6,39.1c-2.2,5.5-3.8,11.3-4.9,17.2c-2.4,12.2-0.6,23.5,8.9,32.6
		c0.7,0.7,1.4,1.5,2.1,2.2c6.5,6.6,8.9,14.8,9.4,23.8c0,0.9-0.3,1.8-0.7,3.7c-1.3-2.4-2.2-3.9-2.9-5.4
		c-5.3-10.7-11.2-21.1-18.3-30.7c-1.5-2-2.7-4.1-3.8-6.3c-2.7-5.4-3.4-11-2.2-17c1.2-6.2,3.3-12.1,6.1-17.7c7-14,15.5-27,25.2-39.2
		c7.3-9.2,16.3-16.5,26.6-22.3c13.8-7.8,37.8-4.7,48.2,12.5c1.5,2.5,3.1,5,4.4,7.5c5.3,10.3,8.9,21.2,11.7,32.3
		c1.8,7.3,3.4,14.7,5.4,22c2.6,9.6,6,18.9,11.3,27.3c2.9,4.6,6.2,8.8,10.7,12c7,5,15.9,5,22.9,0.1c8.4-5.9,11.6-16.6,7.7-26.3
		C530.1,322,529.5,321.3,528.4,319.8z M488.6,177c-0.7,0-1.3,0.1-1.8,0c-10-2.9-20-5.9-29.9-8.9c-0.3-0.1-0.5-0.6-0.8-0.9
		C469.7,162.1,483.7,167.9,488.6,177z M239.9,186.5c2.7-3.6,5.4-6.4,9.4-8.4C249.4,183,245.3,186.8,239.9,186.5z M411.1,109.5
		c1.2,1,2.5,1.9,3.5,3c2.7,3,5.3,6.2,7.8,9.3c1.7,2,3.3,4.1,4.8,6.2c5.6,7.6,13.1,10.1,22.2,8.4c1.8-0.3,3.6-0.3,5.8-0.5
		c-0.2,2.8-2,3.6-3.6,4.4c-4.7,2.4-9.5,2.3-14.4,1c-4.3-1.2-8.1-3.1-11.5-6c-7-5.9-11.9-13.4-15.1-22c-0.4-1-0.4-2.2-0.6-3.2
		C410.4,109.9,410.7,109.7,411.1,109.5z M308.3,137.2c-5.6,4.2-11.8,6.9-18.7,7.6c-3.1,0.3-6.3,0.3-8.8-3c9.7-2.3,19.1-4.4,29.5-6.8
		C309.2,136.2,308.8,136.8,308.3,137.2z M324.1,182.8c-2.6,1.5-6.6,0.2-8.6-3c-2.1-3.3-1.6-6.4,2-9c0.1,1.7,0.2,2.8,0.3,3.9
		c0.3,3.2,1.4,3.9,4.6,3c0.7-0.2,1.3-0.5,1.9-0.7C326.3,179.9,326.2,181.6,324.1,182.8z M327.2,121.3c-7.1,1.5-14.1,3.3-21.2,4.4
		c-7.8,1.2-15.6,2.2-23.4,0.3c-4.6-1.1-9.4-2.3-13.7-4.4c-9.1-4.5-17.9-9.7-26.8-14.7c-0.9-0.5-1.5-1.5-2.5-2.5
		c2.5-1.5,4.5-1,6.3-0.2c3.7,1.6,7.4,3.3,11,5.2c9.2,4.9,18.8,8.9,29.3,9.6c8.2,0.5,16.6-0.1,24.9-0.1c4.4,0,8.7,0.2,13.1,0.4
		c1,0.1,2.1,0.6,3.1,1C327.3,120.7,327.2,121,327.2,121.3z M337.7,134.2c5.8,2.8,10,7.2,11.8,13.3c1.3,4.2,1.5,8.8,2,13.3
		c0.2,1.4-0.5,3-0.7,4.5c-0.3,0-0.7,0-1,0c-0.3-2.2-0.7-4.5-1-6.7c-0.4-2.3-0.6-4.6-1.1-6.9c-1.7-7.2-5.8-12.2-13.1-14.3
		c-1.3-0.4-2.6-1-4.6-1.8C332.8,132.4,335.3,133.1,337.7,134.2z M371.4,218.6c-3.3-0.1-6.8,0.2-9.9-0.8
		c-11.5-3.6-19.2-11.4-22.7-22.9c-2.6-8.5-4.3-17.2-6.2-25.8c-0.7-3.4-0.5-6.9,2.8-10.7c1,2.4,2,4,2.4,5.8
		c1.3,6.4,2.3,12.9,3.5,19.3c0.7,3.8,1.5,7.7,2.6,11.5c3.5,12,13,19.5,25.4,20.6c1.6,0.1,3.2,0.5,4.8,0.8c0,0.4,0.1,0.7,0.1,1.1
		C373.3,217.8,372.4,218.7,371.4,218.6z M417.7,228.6c-17.3-2.3-31.7-10.2-43-23.5c-3.6-4.2-6.2-9.1-7.7-14.6
		c-0.2-0.7-0.4-1.4-0.5-2.1c0-0.2,0.2-0.5,0.4-1.2c22.3,29.3,16.4,25.2,53.6,41C419.2,228.4,418.4,228.7,417.7,228.6z M490.7,282
		c-0.1,1.7-0.7,3.3-1,5c-0.3,0-0.7,0.1-1,0.1c-0.4-1.1-0.9-2.2-1.2-3.3c-1.6-5.9-2.8-11.9-4.7-17.7c-4.9-14.7-14.8-25.1-28.7-31.8
		c-2.6-1.3-5.3-2.3-8-3.5c-1-0.4-1.9-1.1-2.8-1.6c0-0.3,0.1-0.6,0.1-1c1.5-0.2,3-0.5,4.5-0.5c16.8-0.2,33.6,11.6,39.2,27.7
		C490.1,264,491.2,272.9,490.7,282z M492.2,250.3c-4.1-8.1-9.9-14.6-17.5-19.7c-9.4-6.3-19.9-10.1-30.3-14.2c-7-2.8-14-5.8-20.6-9.4
		c-3.7-2-6.7-5.4-10-8.3c-0.7-0.6-0.9-1.6-1.4-2.6c0.7,0,1-0.1,1.2,0c9.8,8.5,21.8,12.7,33.7,16.8c8.1,2.8,16.3,5.5,24.3,8.6
		c7.7,3,15.1,6.8,21.7,12c12.6,10.1,17.6,23.1,14.3,39.1c-1.8,8.9-6,16.6-12,23.4c-0.7,0.8-1.7,1.5-2.7,2.4c-1.6-2.1-0.9-4.1-0.5-6
		c1-5.3,2.1-10.5,3.3-15.8C497.8,267.3,496.3,258.6,492.2,250.3z"/>
	<path fill="#C49A6C" d="M233.4,387.9c-2.8-1.8-4.6-4-4.6-7.8c-0.1-2.9-1-6.1-2.5-8.7c-2.5-4.5-5.7-8.7-8.7-13c-1-1.4-2.1-2.6-3.2-4
		c0.7-0.9,1.1-1.5,1.7-1.9c7.5-5.8,14.4-12.2,20.6-19.4c2-2.4,4.8-3.7,7.9-4.4c1.8-0.4,3.7-0.9,5.3-1.8c1.4-0.7,2.7-1.8,1.9-3.6
		c-2.7-0.8-5.2-1.4-7.6-2.4c-5.4-2.2-7.9-1.8-11.3,2.9c-2.1,2.8-4.5,5-7.8,6c-3,1-6.2,1.7-9.3,2.4c-7.7,1.9-14.1-0.6-19.4-6.1
		c-3.6-3.6-7-7.4-10.5-11.1c-6-6.3-13.2-9.3-22.1-7.8c-2.4,0.4-4.9,0.4-7.4,0.4c-0.7,0-1.3-0.6-2.6-1.1c5.2-2.5,10.6-3.2,14.3-6.8
		c-1.3-2.7-5-2.8-4.9-7c1.8,1.1,3,1.9,4.3,2.7c10.9,7.2,22.3,7.6,34.1,2.3c2.8-1.3,5.5-3.1,5.5-6.7c0-2.6,0.8-4.4,2.8-6.1
		c0.6-0.5,1-2,0.7-2.7c-1.2-2.7-0.1-4.3,2-6c2.2-1.8,2.4-3.1,0.4-5.1c-2.6-2.7-2.2-5.3-0.8-8.3c1.6-3.5,3.2-7.2,4.2-11
		c1.7-6.6,0.2-12.7-4.6-17.7c-1.6-1.7-3.4-3.2-5-4.8c-1-1.1-2.6-2-2.1-4.5c9,2.1,12.4,9.4,15.8,16.6c0.4-0.2,0.6-0.3,0.6-0.4
		c0.1-0.6,0.3-1.1,0.3-1.7c0.8-9.5-3.3-17-9.7-23.4c-9.9-9.9-21.5-16.8-35.3-19.8c-1.6-0.3-3.1-1-4.7-1.5c0-0.3,0.1-0.7,0.1-1
		c4-1.8,8.4-1.9,12.7-2.4c-4.2-0.2-8.4-0.4-12.6-0.2c-4.2,0.2-8.5,0.7-12.7,1.1c-0.1-0.3-0.2-0.7-0.3-1c1.7-1,3.4-2,5.7-3.3
		c-1.3,0.1-2,0.1-2.7,0.2c-19.3,2.7-35.2,12.4-49.5,25.1c-3.9,3.5-6.1,8.1-7.5,13.1c-2.5,8.7-2.5,17.5-1.3,26.4
		c1.5,10.8,6.7,19.4,15.7,25.6c2.3,1.6,4.6,3.1,6.9,4.6c2.7,1.7,5.5,3.3,8.2,5c6.4,4.1,8.1,8.6,6.3,16c-0.6,2.3-1.5,4.4-1.9,6.7
		c-2.3,10.5-0.9,20.3,6.6,28.6c4.8,5.4,10.6,9.6,17.1,12.7c5.9,2.8,12,5.2,18.1,7.6c7.5,2.9,14.7,6.2,21.4,10.8
		c3.2,2.2,5.8,4.9,7,8.7c1,3.1,1.8,6.5-0.8,9.1c-2.8,2.8-6.3,1.9-9.3,0.3c-2.9-1.6-5.7-3.6-8.1-5.8c-7.6-7-16.1-12.4-25.7-16.2
		c-6.1-2.4-12.2-4.9-18.2-7.5c-18.7-8-34.6-19.6-46.3-36.6c-1.1-1.7-2.6-3.2-4-4.6c-0.5-0.6-1.4-0.8-2.9-1.6c0.5,4,0.8,7.3,1.2,10.7
		c-4.2-0.8-5.5-1.7-5.5-4.9c0-2.9,0.4-5.8,1.1-8.6c1.5-5.7,0.6-10.6-3.7-14.8c-1.6-1.5-3.1-3.1-4.5-4.7c-1-1.1-1.9-2.2-2.6-3.5
		c-1-1.9-0.3-3.1,1.8-3.3c1-0.1,2,0,3,0.2c8,1.1,14.8,4.7,19.8,10.8c3.3,4,6.2,8.5,8.7,13c6.5,11.8,14.4,22.6,23.3,32.6
		c0.8,0.9,1.7,1.7,2.5,2.5c-4.1-8.1-6.7-16.6-9.3-25.1c-3.2-10.7-8.2-20.5-14.9-29.4c-8.4-11.2-18.9-19.3-32.9-22
		c-3.2-0.6-5.6-2.4-7.2-5.2c-0.9-1.6-1.9-3.3-3-4.8c-2.8-3.6-6.5-4.7-10.9-3.3c-4.1,1.3-7.7,3.6-10.4,7c-3,3.7-3.9,7.9-2.3,12.8
		c1.6-2.7,3-5.3,4.6-7.6c2.3-3.2,5.5-5.2,9.5-5.5c4.1-0.3,6.6,1.7,6.5,5.8c-0.1,3.1-1.1,6.2-2,9.3c-0.5,1.8-1.7,3.4-2.3,5.2
		c-1.6,4.6-0.8,9,1.9,11.9c0.5-2.1-1.2-4.6,1.2-6.8c0.7,1,1.3,1.8,1.7,2.6c1.8,3.4,4.3,6.2,7.3,8.6c1.8,1.4,3.8,2.7,5.5,4.3
		c1.3,1.3,2.9,2.8,3.3,4.5c1.1,4.8,0.3,9.6-0.1,15.3c-2.1-1.2-3.5-1.9-4.7-2.8c-4-3.4-8-6.8-11.9-10.3c-3.2-2.9-6.1-6.3-9.5-9
		c-3.2-2.5-6.9-4.3-10.4-6.2c-0.7-0.4-1.8-0.1-3.1-0.1c0.6,0.8,0.8,1.4,1.2,1.8c4.8,5.3,9.7,10.4,14.3,15.9
		c7.3,8.6,15,16.6,23.8,23.6c3.8,3,6.9,6.7,9,11.1c0.7,1.4,1,2.8,1.6,4.5c-4.2,0-5.8-0.9-12.9-7.2c-3.6-3.2-7.2-6.5-10.8-9.7
		c-0.3,0.2-0.6,0.4-0.8,0.6c0.8,1.9,1.4,4,2.5,5.8c3.9,6.8,9.4,12.1,16.2,16.2c3.7,2.2,7.5,4.6,10.7,7.4
		c9.9,8.8,21.4,14.4,34.2,17.5c13.3,3.1,26.6,6.3,39.9,9.5c4.7,1.1,9.2,2.9,13.1,5.7c2.2,1.6,4.6,2.2,7.3,2.2
		c17.5-0.1,34.9,0,52.4,0c0.9,0,1.9-0.2,3.7-0.3c-2.2-1.4-3.6-2.4-5.1-3.3C241.6,393.4,237.5,390.6,233.4,387.9z M209.7,261.7
		c-2.4,6.6-8.4,7.9-12.8,3C201,263.3,204.8,261.5,209.7,261.7z M142.9,274.1c-1.2-7.2,3.7-14.4,10.8-15.5c3.1-0.5,6.1,0,8.4,2.4
		c0.4,0.4,0.4,1.2,0.9,2.7c-2.3-0.6-3.6-1.1-5-1.4c-5-1-8.9,1.2-10.6,6c-2.3,6.7,1.5,13.2,8.5,14.2c1.1,0.2,2.2,0.4,3.3,0.7
		c0.2,0.1,0.3,0.4,0.7,1c-0.6,0.4-1.1,1.2-1.8,1.3C151.7,286.6,144.1,280.9,142.9,274.1z M158.9,276.2c-3.1-0.3-4.8-2.2-4.6-4.9
		c0.2-3,1.6-4.3,5-4C156.7,270.5,157.5,273.3,158.9,276.2z M221.5,377.8c-1.2-0.9-2.2-1.5-3.1-2.4c-9.9-9.9-21.6-17-34.7-22.2
		c-4.8-1.9-9.4-4.6-13.7-7.5c-2.6-1.7-4.6-4.4-6.6-6.9c-1-1.3-1.5-3-2.2-4.6c0.3-0.3,0.7-0.6,1-1c1.2,0.7,2.5,1.2,3.5,2.1
		c11,8.7,23.3,14.7,37,17.9c3.8,0.9,7.1,2.7,9.4,5.9c2.9,3.8,5.7,7.7,8.2,11.8C222.2,373.4,222.1,374.6,221.5,377.8z"/>
	<path fill="#C49A6C" d="M278.9,379c-2.7-6.3-5.2-12.6-8.1-18.8c-1.6-3.5-3.6-6.9-5.9-10.1c-1.9-2.7-3-5.5-3.6-8.7
		c-0.9-4.4-2.4-8.6-3.8-12.9c-0.3-0.8-1.1-1.5-1.7-2.2c-4.5,2.7-5.2,6.2-3.7,10.6c0.8,2.3,1.6,4.7,2.1,7.1c0.3,1.3,0.2,2.7,0.3,4.1
		c-3.6,0.5-5.8-1.2-7.9-3c-2.1-1.8-3.9-3.9-5.9-5.8c-2.6-2.4-3.3-2.3-5.8,0.1c-2,2.1-4.1,4.2-6.2,6.2c-2.8,2.6-2.9,2.9-1.4,6.4
		c2.1,4.9,4.4,9.8,6.4,14.8c2.3,5.7,6,9.9,11.9,12c6.8,2.4,11.6,6.9,15.3,13c0.8,1.4,1.8,2.7,2.5,4.1c1.3,2.8,3.4,4,6.6,3.9
		c6.1-0.2,12.2,0,18.3-0.1c1,0,1.9-0.2,3.7-0.4c-1.2-1.6-1.8-2.6-2.6-3.4C285.1,390.8,281.6,385.2,278.9,379z"/>
	<path fill="#C49A6C" d="M276,296.2c-6.4-1.9-12.4-0.9-17.3,3c-2.3,1.8-4.2,4-6.3,6c-2,2-4.2,3.5-7.2,3.6
		c-8.7,0.3-17.4,0.8-26.1,1.1c-5.2,0.2-10.1-0.7-14.7-3.2c-2.5-1.4-5.3-2.3-8.1-3c-3.3-0.8-6.6-0.4-9.9,1.1c3.9,3.2,7.7,6,11,9.2
		c2.6,2.5,4.5,5.7,6.8,8.5c3.6,4.4,8.3,6,14,5.2c5.6-0.8,10.1-3.4,13.9-7.5c3.7-3.9,7.7-5.4,12.9-2.7c3,1.5,6.2,1.3,9.3,0.2
		c8.2-2.9,13.6-9.4,20.4-14.7c-5-3.6-9.2,1.1-14.4,0.6C264.3,298,270.7,298.6,276,296.2z"/>
	<path fill="#C49A6C" d="M196.9,145.9c2.1,6,5.8,11,10.4,15.4c3.1,3,6.6,5.6,11.3,6.6c-0.7-1.2-1.5-2.4-2.2-3.7
		c-3.9-6.8-6.8-13.9-5.9-21.9c0.4-3.5-0.6-6.1-2.8-8.7c-6-7.2-9.5-15.6-10.1-25c0-0.7-0.2-1.3-0.4-2.3c-0.6,0.5-1,0.8-1.2,1.1
		c-3.7,6.6-5.9,13.7-4.1,21.3C193.3,134.6,195,140.3,196.9,145.9z"/>
	<path fill="#C49A6C" d="M287.9,309.2c-0.2-0.1-0.4-0.3-0.7-0.4c-0.6,0.6-1.3,1.1-1.9,1.7c-7.5,8-11.7,17.6-13.7,28.3
		c-0.9,4.7-0.9,9.6,0.9,14.2c3.1,8.2,6.4,16.3,9.6,24.4c0.1,0.2,0.4,0.2,0.9,0.4c-0.4-3.3-0.8-6.4-1.2-9.6
		c-0.7-5.6-0.2-11.1,2.7-16.1c1.5-2.5,1.6-4.8,0.3-7.4c-4.7-10.1-3.6-20.1,0.5-30C286.2,312.8,287.1,311,287.9,309.2z"/>
</g>
<g>
	<path fill="#C49A6C" d="M554.9,578c-0.1,1.2-0.6,2.6-1.5,4.4c0,0,0,0,0,0C554.3,580.6,554.8,579.2,554.9,578z"/>
	<path fill="#C49A6C" d="M555.6,644.5c-0.3-0.8-0.6-1.6-0.9-2.4C555,642.9,555.3,643.7,555.6,644.5z"/>
	<path fill="#C49A6C" d="M427.1,582.2c-1,0.7-2,1.4-3,2.1c0,0,0,0,0,0C425.1,583.6,426.1,582.9,427.1,582.2z"/>
	<path fill="#C49A6C" d="M440.4,581.5c-5.5,0.7-11.1,0.8-16.4,2.9l0,0C429.3,582.2,434.9,582.1,440.4,581.5z"/>
	<path fill="#C49A6C" d="M278.2,607.7c0.2,0.1,0.4,0.3,0.6,0.4C278.6,608,278.4,607.9,278.2,607.7z"/>
	<path fill="#C49A6C" d="M279.4,608.9c0.1,0.2,0.1,0.4,0.1,0.6C279.5,609.2,279.4,609,279.4,608.9z"/>
	<path fill="#C49A6C" d="M449.3,755.3c2.9-8.2,5.8-16.5,9-24.6c8.2-21.2,15.1-42.8,19.8-65c0.2-0.9,0.6-1.7,1-2.5
		c0.3,0.1,0.5,0.2,0.8,0.3c-1,5.1-1.9,10.2-3.1,15.3c-0.6,2.8-0.2,5.1,1.4,7.4c2.1,3,4.1,6,6,9.1c6.3,10.2,4.5,24.1-10.9,31.9
		c-1-2-1.9-4-2.8-5.8c-2.1,7.8,2.6,15,12.7,18.5c-1.7-1.4-2.9-2.3-4-3.4c-1.3-1.3-2.6-2.7-3.7-4.2c-1.1-1.5-1-3.2,0.6-4.2
		c3-1.9,6.2-3.6,10.3-6c-1.1,8.1-0.8,14.9,1.7,21.5c2.8,7.1,8.3,13,13.8,14c-5.4-3.9-8.8-9-10-15.5c-1.1-6.3-1.1-12.5,2.2-19.5
		c4.3,9.2,9.3,16.5,18.8,18.7c9.6,2.2,17.6-0.6,24.3-7.7c-4.3,2.7-8.7,5-13.8,6c-8.8,1.7-16.8-1.8-20.7-9.4
		c-2.7-5.3-3.6-11-2.2-16.9c0.2-0.9,0.7-1.7,1.4-3.2c5.1,4.3,10.7,6.6,16.9,7.2c6.4,0.6,12.2-1.1,17.2-5.1
		c-9.2,2.4-9.2,2.4-13.7,0.5c7.8-2.9,15.8-4.5,20.3-11.6c-5.3,5.9-12.4,7.9-19.9,8.8c-3.7,0.4-7.3-0.1-10.6-1.8
		c-3.4-1.8-5-5.2-4.6-8.7c0.4-3.5,3.2-4.2,5.8-5c9.5-2.7,15.9-8.9,19.8-17.7c5.5-12.6,5.1-25.2-0.6-37.6c-1.1-2.3-2.7-4.5-4.3-6.5
		c-2.4-3.1-5.4-4.6-9.5-4.3c-4.7,0.3-9.3-0.2-13.8-1.8c-1.3-0.5-2.4-1.2-3.7-1.8c0.1-0.3,0.2-0.6,0.3-0.9c1.2,0.1,2.5,0.2,3.7,0.4
		c6.7,0.6,13.3,1.2,20,1.9c3,0.3,6.1,0.4,9.1,0.8c7.7,1.2,13.9,4.9,18.2,11.5c0.8,1.2,1.4,2.4,2,3.7c0.3,0.8,0.6,1.6,0.9,2.4
		c1,3,1.4,6.2,1.3,9.4c1.6-5.2,0.1-10-2.1-14.5c-4-8.3-9.1-15.9-15.1-22.9c-4.3-5-9.6-8.8-15.9-11.2c-1-0.4-2-1-2.9-1.5
		c2.1-3.6,4-4.6,8-3.9c1.7,0.3,3.4,0.9,5.1,1.2c4.3,0.8,8.4,0.3,12.3-1.9c-4.3,0.1-8.8,1.3-13.5-1.8c1.8-1,3-1.7,4.2-2.4
		c3.2-1.8,6.5-3.3,9.4-5.5c0.7-0.5,1.3-1,1.9-1.6c1.4-1.3,2.7-2.8,4.1-4.2c-4.6,4.2-9.9,7.2-15.8,9.3c-2.2,0.8-4.5,1.3-6.8,1.3
		c-5.2,0-9.3-1.9-11.4-7.1c-2-4.9-5.3-9-8.9-12.9c-2.2-2.3-4.1-4.9-6.1-7.4c-0.5-0.7-0.6-1.7-1.1-3.4c7.8,3.8,15.1,6.2,22.7,2.3
		c7-3.6,10.5-11.8,8.7-19.5c-0.3,1.1-0.5,2.4-0.9,3.6c-0.2,0.8-0.6,1.6-1,2.4c-4.8,9.3-17.7,11-24.7,3.3c-2.2-2.4-2.3-3.3-0.7-6.2
		c1.4-2.4,2.8-4.8,4.1-7.2c4.5-8.4,4.1-16.8-0.4-25c-5-9.1-12.2-15.9-22.2-19.4c-3.9-1.3-6.1-3.6-6.9-7.5
		c-1.5-7.6-6.9-11.8-15.3-12.3c-3.8-0.2-7.6-0.3-11.3-0.9c-3-0.5-5.9-1.5-8.7-2.5c-0.7-0.3-1.2-1.3-2-2.2c3.3-1.5,7.1-0.9,9.7-4.3
		c-1.1,0.4-1.6,0.6-2.1,0.7c-8.7,2.4-15.5-3.8-13.9-12.7c0.1-0.7,0.3-1.4,0.4-2.1c2.9-12.5-6.9-28.6-19.9-31.2
		c-2.1-0.4-4.2-1.1-6.4-1.4c-11.6-1.6-22.5-5.3-33.2-10.2c-19.1-8.8-37.3-6.9-54.1,6.1c-1.6,1.2-3.1,1.8-5.2,1.5
		c-4.2-0.6-8.1,0.6-11.7,2.6c-5,2.6-9.1,6.2-12.6,10.7c-4.7,6.1-6.9,12.8-4.9,20.4c0.5,2,0,3.4-1.8,4.4c-1,0.6-2,1.2-2.9,1.9
		c-7.1,4.9-13.9,10-19.3,16.9c-7.5,9.5-8.9,19.5-3.2,30.5c4.6,8.8,7.9,10.8,17.7,9.5c0.1,0,0.3-0.1,0.4-0.1c3.1-0.4,3.6-0.2,4.3,2.8
		c1.3,5.1,3.9,9.7,6.5,14.2c2.2,3.9,5.1,6.6,9.5,7.7c3.7,0.9,6,3.5,7.1,7c0.8,2.4,1.4,4.8,1.9,7.2c1,4.7,1.9,9.4,3,14.1
		c1,4,3,4.9,6.8,3.6c1.2-0.4,2.4-1.1,3.7-1.4c2.1-0.6,4,0.1,4.6,2.2c1,3.5,3,4.7,6.6,4c1,3,2.4,5.1,6,4.4c5.4-1,6.2-0.5,9.1,4.3
		c0.5,0.7,0.8,1.5,1.3,2.3c2.6,3.8,6,5.2,10.2,3.2c3.2-1.6,6.2-3.9,8.6-6.4c3.3-3.4,6-7.5,9.1-11.2c2.7-3.4,3.4-3.5,6.7-0.8
		c5,4.1,8.2,9.4,10.6,15.3c1.9,4.8,2.6,9.5-0.4,14.2c-0.3,0.5-0.4,1.1-0.6,1.7c0.7-0.2,1.3-0.3,2.1-0.4c-6.4,15.8-25.2,45.5-35,50.4
		c-2.2-3.4-4.3-3.8-7.2-1c-3,2.8-5.8,5.7-8.6,8.7c-6,6.3-11.9,12.8-15.9,20.7c-5.2,10.4-6.1,20.9,0,31.3c2.7,4.7,3.2,9.5,1.8,14.7
		c-1.9,7.2-3.6,14.4-5.4,21.6c-0.4,1.8-0.9,3.7-1.1,5.6c-0.4,3.2,0.5,4.1,3.8,4.4c0.7,0.1,1.5,0,2.2,0.1c7.7,0.3,15.4,0.4,23.1,1
		c3.8,0.3,7.8,0.3,11.3,2.4c-22.6-1.8-45.3-1.1-67.8-4.4c3.2-0.2,6.3-0.3,9.5-0.2c3.5,0.1,7,0.4,10.5,0.5c3.8,0,4.7-1.3,3.6-4.9
		c-1.5-4.8-4.4-8.8-7.9-12.4c-5.8-5.9-11.4-6.6-18.5-2.3c-1.1,0.6-2.2,1.2-3.3,1.8c-2.5-5.9-2.4-6.2,2.1-9.2
		c5.9-3.9,10.2-9.1,12.6-15.7c1.1-3.1,2.2-6,5.6-7.3c0.8-0.3,1.5-1,1.9-1.7c1.1-1.7,1.9-3.6,3.2-5.2c1.2-1.5,2.8-2.7,4.8-4.7
		c-2.7,0.5-4.5,0.8-6.6,1.3c0.5-4.3,4.3-6,5.4-10c-2.9,1.6-5.1,3-7.4,4.3c-0.2-0.2-0.4-0.4-0.5-0.6c1.1-1.9,2.2-3.8,3.5-6
		c-6.1,1.5-12.1,7.1-13.8,12.6c-0.6,2.1-1.3,4.1-3.1,5.6c-4.2,3.8-9.5,5.4-14.6,8.1c-0.3-1.2-0.7-1.8-0.7-2.5
		c-0.5-7.1-3.9-12.3-10.2-15.7c-2.5-1.4-4.9-3.1-6.2-6c2.5-3.5,5.5-5.4,9.7-6.2c3.9-0.8,7.9-2,11.5-3.7c3.6-1.7,4.6-4.2,3.8-7.9
		c-0.4-1.7,0.2-3,0.5-4.5c0.7-3.3,2.7-6.9-0.5-10.1c-1.2-1.2-1.2-2.8-0.6-4.5c0.6-1.8-0.1-3.3-1.9-3.8c-6-1.5-7.4-6-7.4-11.3
		c-0.1-6.2-1.8-11.7-6.7-16c-1-0.8-2.1-1.8-1.6-3.7c1.3,1,2.4,1.7,4.1,3c-1.7-2.1-3.2-3.4-0.5-4.8c0.5-0.2,0.4-1.5,0.6-2.3
		c0,0-0.1,0.1-0.1,0.1c0,0,0,0,0,0l0,0c0,0,0,0,0,0c0,0,0,0,0,0c-2.3,0.8-4.1,0-5.4-2.1c0.7-1.8,2.2-2,3.8-1.6
		c2,0.5,1.9,2.2,1.7,3.8c0,0,0,0,0,0c0.3-1.3,0.4-2.1,0.4-2.8c0-0.2-0.1-0.4-0.1-0.6c-0.1-0.3-0.3-0.5-0.5-0.7
		c-0.2-0.1-0.4-0.3-0.6-0.4c-0.4-0.2-0.8-0.5-1.3-0.8c-1.1-0.6-2-1.7-3-2.6c0,0,0.1,0.1,0.1,0.1c0,0,0,0,0,0l0,0c0,0,0,0,0,0
		c0,0,0,0-0.1,0c-0.4,1.3-0.7,2.7-1.4,3.8c-0.3,0.5-1.8,0.4-2.6,0.1c-0.4-0.2-0.5-1.6-0.3-2.3c0.8-2,2.5-2.1,4.3-1.6c0,0,0,0,0,0
		c-1.4-1.3-2.6-1.2-3.7-0.4c-0.5,0.4-0.9,0.9-1.3,1.4c-1.2,1.7-2.5,2.6-4,2.1c-0.3-3.1-0.1-5.9-0.9-8.4c-1-3.5-4.6-4.3-7.2-1.7
		c-1.3,1.3-2.3,3-3.3,4.6c-1.8,2.8-4.3,4.3-7.7,4.1c-1.2-0.1-2.3,0-3.5-0.2c-4.3-0.7-8.4,0.3-12.4,1.9c-3.5,1.4-7,2.7-10.6,3.9
		c-4.6,1.5-8.5,4.1-10.9,8.3c-3.2,5.5-6.1,11.2-9.1,16.9c-0.7,1.3-0.9,2.8-1.2,4.2c-1.3,6.1-1.1,12.2,0.4,18.2
		c2.4,9.2,6.9,17,15.2,22c2.7,1.6,5.3,2.6,5.5,6.4c0.1,2,2.3,3,4.3,2.8c2.1-0.2,3.3-1.4,3.7-3.6c0.4-2.1,0.8-4.1,1.2-5.8
		c3.8,1.2,7.1,2.3,10.9,3.5c-0.8,1.3-1.7,2.6-2.5,3.9c-4.4,6.9-6.8,14.4-7.3,22.6c-0.2,2.6,0.7,4.5,2.9,5.9c1.4,0.9,2.6,2,3.9,3
		c-0.2,0.2-0.4,0.5-0.6,0.7c-4-1.5-7-4.1-9.2-7.9c-2.2-3.8-4.4-7.6-6.7-11.3c-2.8-4.5-6.6-8.5-6.6-15.1c-2.1,1.4-3.5,2.2-5.1,3.3
		c-7.9-7-15.9-13.7-22.9-21.5c-3.7-4.1-5.8-8.7-4.5-14.4c0-0.2-0.3-0.5-0.6-0.9c-1,0.4-2,0.9-3,1.3c-2.8,1.2-3.2,2-1.9,4.6
		c0.9,2,2,3.9,3.4,5.5c4.7,5.3,9.6,10.5,14.5,15.7c1,1.1,2.6,1.8,3,4.3c-3.3-2.1-6.1-3.6-8.7-5.5c-7.1-5.1-14.2-10.1-20.9-15.7
		c-4.9-4.1-7.9-9.6-9.4-15.9c-0.1-0.3,0.1-0.7,0.3-1.3c1,0.9,1.8,1.6,2.3,2c1.6-1.7,3-3.2,4.5-4.8c-3.8-3.7-4.5-8.8-4.1-14.1
		c0.4-5.1,2-10,4.8-14.4c2.9-4.7,6.7-7.7,13-7.5c-2.8-1.4-4.9-3.2-7.1-3.4c-2.1-0.2-4.4,1.4-6.6,2.2c-0.2-0.2-0.4-0.4-0.6-0.5
		c1.8-3.4,3.7-6.8,5.8-10.7c-3.7-0.2-6.1,1.2-8.2,2.9c-2.1,1.8-4,2.9-6.9,1.4c-2.5-1.3-5-0.2-7.1,2.6c5.2,4.6,3.8,10.2,2.4,15.8
		c-0.9,3.5-2.1,7-3.1,10.5c-1.7,5.8-2.9,11.6-2.1,17.6c0.1,0.4-0.3,0.9-0.6,1.9c-5.4-7-13.4-10.9-16.6-19.2c1.1,6.3,3.3,12,7.5,16.6
		c4.1,4.5,8.5,8.8,13.2,12.6c6.5,5.2,13.4,9.7,20.2,14.6c1.2,0.9,2.4,1.8,3.5,2.6c-0.2,0.3-0.4,0.6-0.5,0.8
		c-1.2-0.4-2.4-0.7-3.6-1.2c-12.3-5.2-24.4-11.1-35.7-18.2c-5.9-3.7-11.6-7.9-16.8-12.5c-8.7-7.7-14.6-17.3-17.2-28.7
		c-2.5-11-1.2-21.5,4.9-31c4.4-6.9,10.7-11,19-11.8c2.8-0.3,5.7-0.3,8.2,2.3c-1.6,0.5-2.8,0.9-4,1.4c-2.5,1.1-3.7,3.1-3.5,5.5
		c0.2,2.5,1.7,3.9,3.9,4.7c1.1,0.4,2.3,0.6,3.4,0.6c4.9,0.1,9.6,0.6,12.8,4.8c3-2.3,3.1-4.1-0.1-6c-2.7-1.6-3.4-3.2-2.7-6.3
		c1.2-5.4-0.9-8.8-5.9-11.3c-1.2-0.6-2.9-0.5-3.6-2.5c4.8-1,9.2,0.1,13.5,0.9c4.4,0.8,8.5,2.3,10.4,6.9c0.6,1.4,1.9,2.3,3.6,1.9
		c1.6-0.4,2.3-1.6,2.6-3.1c0.6-3.1,2.5-6.1,0.7-9.6c1.1-0.1,1.7-0.2,2.2-0.1c5.1,0.4,9.1-1,11.6-5.9c0.5-1,2-1.5,3.2-2
		c2.2-0.9,4.1-2.1,5.3-4.3c2.8-5.2,1.2-12.1-3.6-15.6c-0.7-0.5-1.6-0.7-2.5-1c0.3,1.3,1,2.1,1.5,2.9c2.5,3.6,1.8,6.7-2.1,8.6
		c-2.3,1.1-4.9,1.7-7.5,2.3c-6.7,1.4-13.3,0.5-20-0.4c-13.1-1.9-26.3-3.1-39.6-1.3c-9.6,1.3-18.8,3.9-27,9.4
		c-8.4,5.6-13.6,13.4-15.4,23.4c-2.4,13.6-0.3,26.5,6.7,38.3c3.6,6.1,8.4,11.5,12.6,17.2c0.7,1,1.5,1.9,2.2,2.9
		c-3.3-0.2-5.5-2-7.9-3.6c-23.9-16.6-34.4-44.8-26.4-71.6c4.1-13.5,12-24.2,24.8-30.7c5.3-2.7,10.9-4.2,16.8-4
		c3.6,0.1,5.5,1.9,6.1,5.1c0.6,3.5-0.4,5.6-3.4,7.3c-2,1.1-4.1,2.2-6,3.4c-2.8,1.7-5.6,1.5-7.9-0.8c-0.9-0.9-1.6-1.9-2.5-3.1
		c-0.4,4.7,0.8,7.1,4.4,7.9c6.5,1.3,12.5,0,17.7-4.2c4.2-3.5,4.2-8.8,0.3-12.6c-2-2-4.5-3.2-7.3-3.6c-12.8-1.5-24.9,0.9-36.3,7
		c-10.3,5.5-17.1,13.8-19.8,25.3c-0.2,0.9-0.6,1.8-1.2,3.5c-0.6-1.7-0.9-2.4-1.1-3.2c-0.8-2.4-1.8-2.7-3.8-1.2
		c-0.7,0.5-1.3,1.2-1.9,1.8c-3.8,4.1-5.1,9-5.1,14.4c0,1.6,0.3,3.5-0.4,4.6c-1.7,2.5-1.1,4.7-0.3,7.1c1.9,5.4,4.8,10.3,8.3,14.8
		c8.8,11.3,19.4,20.5,31.4,28.2c5.9,3.8,12,7.1,18,10.6c1.1,0.7,2.2,1.4,3.3,2.2c-0.2,0.3-0.4,0.6-0.5,0.9c-1.9-0.6-3.8-1.2-5.7-1.8
		c-7.3-2.3-14.6-4.9-22.1-7c-3.3-0.9-6.9-1.2-10.3-1.3c-1.8-0.1-3.8,0.7-5.3,1.6c-2.7,1.6-2.7,3.4-0.3,5.4c0.5,0.4,1,0.9,1.9,1.7
		c-3.1,1-6.2,1.1-7.7,4c-1.4,2.7-2.8,5.5-2.3,8.7c0.5,3.4,3.7,5.4,7.9,5.4c1.2-1.8,2.1-3.8,3.5-5c9.3-7.9,19.7-12.1,32.2-9.7
		c8.2,1.6,16,4.4,23.7,7.6c12.9,5.3,25.8,10.7,38.7,16.1c7.9,3.3,15.9,6.5,23.8,9.8c1.2,0.5,3,1.4,3.1,2.1c0.1,2.6,2.2,2.8,3.7,3.6
		c4.8,2.7,9.8,5.2,14.5,8c14.8,8.5,25.2,20.9,32.4,36.2c0.3,0.7,0.5,1.5,0.7,2.4c-0.6,0-1,0.2-1.1,0.1c-9.2-7.8-17.1-17-27.5-23.5
		c-0.1-0.1-0.1-0.3-0.1-0.4c0-0.1,0.1-0.3,0.3-0.8c6.7,1.6,12.1,5.9,17.9,9.3c-2.8-4.6-6.5-8.3-10.8-11.4c-10.5-7.6-22.1-13-34.6-16
		c-9.2-2.2-18.4-2.7-27.6,0.1c-6.3,1.9-11.9,4.9-16.1,10c-1.8,2.2-3.2,4.9-4.2,7.5c-1.1,3.1-0.4,5,1.7,7.1
		c-0.8-6.2,1.1-9.3,7.2-10.8c3.6-0.8,7.5-1.2,11.2-1c17,0.7,33,5.2,48.2,12.8c7.6,3.8,14.6,8.5,21,14c1.2,1,2.9,1.9,2.8,4.9
		c-1.8-1.3-3-2.2-4.2-3.1c-1.5-1.1-3.1-2-4.8-0.8c-2.2,1.6-4.1,1-6-0.4c-2.6-1.8-5-2.8-7.9-0.5c-1.1,0.8-2.8,0.7-4.1,1.2
		c-1.6,0.7-3.2,1.4-4.5,2.5c-2.1,1.9-2,4,0.5,6.8c0.5-0.8,0.8-1.7,1.4-2.2c1.8-1.5,3.8-1.9,6.1-1.3c1.9,0.5,3.9,0.9,5.8,1.2
		c4.2,0.6,8.4,1,12.5,1.8c5.8,1.2,10.4,4.5,13.4,9.6c2,3.4,3.6,7,5.2,10.6c1.8,4.1,4.5,6.7,9.1,6.9c2.2,0.1,4.4,0.3,6.5,0.8
		c3.6,0.9,7.6,1.5,10.7,3.3c15.4,8.8,31.8,15.1,48.3,21.1c1.5,0.5,2.9,1.4,4.3,2.1c44.3,0,88.5,0,132.8,0c0.7-1.6,1.2-3.3,2-4.8
		C441.2,776.5,445.6,766.1,449.3,755.3z M534.4,664.8c-2.4-8.5-4.8-16.6-7.1-24.9C533,644.9,536.6,656.9,534.4,664.8z M504.8,520.2
		c3.2,3.8,3.6,8.2,3.9,12.6c0.3,5.5-2,12.5-4.6,15.2C503,544.2,503.4,524.3,504.8,520.2z M274.6,506.9c-0.8-0.4-1.7-0.5-2.4-1.1
		c-5.3-4.5-7.9-10.4-7.6-17.3c0.2-4,1.6-7.9,2.5-11.8c0.2-0.7,0.9-1.3,1.3-1.9c-2.1,11.5,0,22,6.9,31.6
		C275.1,506.5,274.8,506.7,274.6,506.9z M292,507.7c-4.3-3-6.8-7.4-6.9-11.7c2.5,2.9,4.8,6.2,7.7,8.7c2.8,2.4,6.3,4,9.8,6.2
		C298.2,511.8,295,509.8,292,507.7z M304.6,442.9c-0.2,5.4,0.1,10.9,3.4,15.3c3.1,4.2,7,8,10.3,11.7
		C307.2,470.4,298.6,454.5,304.6,442.9z M336.2,504.9c-7.4-2.9-13.3-7.6-16.9-15c-0.4-0.9-0.8-1.9-1.1-2.8c-0.1-0.4,0.1-0.8,0.2-1.8
		c3.2,2.8,5.9,5.5,9,7.7c3.3,2.4,6.8,4.6,10.4,6.3c3.5,1.7,7.3,2.9,11.1,3.9c3.9,1,8,1.6,12,2.2c3.8,0.6,7.7,0.9,11.6,1.3
		c0,0.3,0,0.6,0,0.9c-0.8,0.3-1.6,0.7-2.4,0.8C358.5,509.9,347.1,509.2,336.2,504.9z M348.9,514.8c3.5,1.4,6.3,2.6,9.2,3.5
		c3,0.9,6.2,1.7,9.3,2.2c3.1,0.5,6.3,0.7,10.4,1.1C368.5,526.7,353.2,522.4,348.9,514.8z M362,483.5c10.8,0,21.4,0,32.2,0
		C388.7,488.4,368.4,488.4,362,483.5z M222.8,687.2c-0.5,0.1-1.4-0.9-1.6-1.6c-0.3-1.2,1.3-2.6,2.5-2.1c0.7,0.2,1.1,1.1,2.1,2.1
		C224.6,686.4,223.7,687.1,222.8,687.2z M76.4,605.8c-1.2-1.6-2-2.3-2.3-3.1c-4.5-12.7-3.8-25,3.8-36.3c5-7.4,12.7-11,21.2-12.6
		c12.9-2.5,25.5-0.6,37.8,3.6c0.9,0.3,1.7,0.9,2.6,1.4c0,0.3-0.1,0.7-0.1,1c-1.4,0-2.8,0.1-4.2,0c-9.7-0.8-19.2,0.3-28.5,3
		c-19.1,5.7-28.4,17.4-29.9,37.3C76.8,601.6,76.6,603.2,76.4,605.8z M86.8,618.9c-6.8-13.5-4.7-39.2,11.5-48.4
		c-5.9,6.7-9.8,14.2-11.5,23C85,601.9,85.4,610.4,86.8,618.9z M192.5,687.3c0.2-0.4,0.3-0.8,0.5-1.2c1.3,0.3,2.8,0.3,4,0.8
		c8.3,4,14,10.8,19,18.2C208.7,698.5,201.6,691.6,192.5,687.3z M234.5,671.8c-3.1-3.2-3.8-8.7-1.7-12.6c1.4-2.5,2.5-3.1,5.8-2.2
		c-3.9,1-4.9,3.7-4.8,7.1c0.1,3.7,1.9,6.3,5.2,7.9c1.5,0.7,3.1,1.1,5,1.7C240.6,675.4,237.2,674.6,234.5,671.8z M257.1,599.9
		c0.4-0.7,1.5-1.6,2.3-1.5c0.8,0,1.8,1,2.2,1.7c1.2,2,0.4,4.7-1.6,6.1c-1.4,1-2.2,1.1-5.9,0.7C255.2,604.3,256,602,257.1,599.9z
		 M254.7,726.9c1.4,1.8,2.7,3.7,4.1,5.5c1.5,1.9,3.1,3.7,4.7,5.5C258.3,736.4,255.3,732.6,254.7,726.9z M273.5,709.5
		c-3-6.7-7.4-12-13.9-16.1c0.7,0,1.4-0.3,2-0.1c4.3,1.6,7.8,4.4,10.1,8.4c1.2,2.1,1.9,4.5,3.1,6.7c1.1,2.1,2.5,4,4.4,6.8
		C276,713.6,274.5,711.6,273.5,709.5z M502.2,634.2c13.9,6.9,24,21.8,22.7,37.7c-0.8,9.8-6.2,16.4-14.6,20.8c-0.3,0.2-0.8,0-1.6-0.1
		c0.4-1,0.5-1.8,0.9-2.5c4.8-7.5,5.3-15.7,3.3-24c-1.4-5.7-3.7-11.3-6-16.8c-1.5-3.6-3.5-7-5.2-10.6c-0.7-1.4-1.1-2.9-1.8-4.8
		C501.2,634.1,501.8,634,502.2,634.2z M521.3,608.7c8,2.2,15.1,6.1,20.7,12.4c0.7,0.8,1.3,1.8,1.9,2.7c-0.2,0.2-0.3,0.3-0.5,0.5
		c-0.8-0.5-1.7-0.9-2.4-1.5c-9.9-8.3-21.4-12.6-34.3-13.7c-2.7-0.2-5.5-0.9-8.1-1.8c-3.4-1.3-5.9-3.6-6.5-8.2
		c1.2,0.5,2.2,0.7,2.8,1.2c3.8,3.2,8.3,4.6,13.1,5.6C512.5,606.7,517,607.5,521.3,608.7z M519.3,594.5c1.5,0.7,2.7,1.3,4,2
		c-2.6,3-2.8,3-6.2,2.8C517.8,597.7,518.4,596.3,519.3,594.5z M497.4,568.6c0.8,1.2,1.6,2.4,2.3,3.5c4.2,6.6,8.2,13.4,13.9,18.9
		c1.4,1.3,1.9,2.8,1.5,4.7c-0.4,1.8-0.7,3.7-1.1,5.4c-8.5,2.3-18.1-3.6-19.2-11.9c-0.9-6.7,0.3-13.3,1.6-19.9
		C496.5,569.2,496.8,569,497.4,568.6z M494.8,562.3c-1.8-5.6-3.4-11.3-5.5-16.8c-2.1-5.6-4.5-11-7-16.4c-2.5-5.3-5.3-10.5-7.7-15.8
		C484.4,521.1,497.3,547.2,494.8,562.3z M449.6,481.1c5.7,3,11.7,5.2,18.1,5.9c5.3,0.6,7,1.7,9.4,6.8c-10.3,3.3-27.6-4.3-31.6-14.9
		C447.3,479.9,448.5,480.5,449.6,481.1z M447.4,520.8c-4.2-2.6-7.9-5.7-12.2-7.5c-4.3-1.8-9.1-2.5-14.1-3.7
		C430.8,505.4,444.2,511.2,447.4,520.8z M434.2,463c-1.6-3.9-2.7-7.1-4.2-10c-1.7-3.2-3.5-6.3-5.7-9.2c-2-2.7-4.6-5-7.2-7.9
		C426.5,437.9,436.2,451.8,434.2,463z M367.8,661.9c0.5-0.9,0.6-1.3,0.8-1.4c9.5-5.2,15.2-13.8,20.1-23c3.8-7,7-14.4,10.5-21.6
		c0.6-1.3,1.3-2.5,2.5-3.6c-0.1,0.7-0.1,1.5-0.4,2.2c-4.1,10.3-8.2,20.6-14.2,29.9c-2.6,4.1-5.8,8-9.1,11.6
		C375.5,658.7,372.2,660.7,367.8,661.9z M385.9,765.8c-0.1,0-0.1-0.4-0.1-0.8c3.2,0.4,6.4,0.7,9.5,1.1
		C392.1,767.3,389,766.6,385.9,765.8z M401.1,763.3c-0.3-0.1-0.6-0.1-0.9-0.2c-0.6-17.1-1.2-34.2-1.6-51.3
		c-0.1-4.7,0.6-9.5,1.6-14.1c0.5,20.8,1,41.6,1.4,62.5C401.7,761.2,401.3,762.3,401.1,763.3z M406.9,607
		c-3.1,10.2-5.2,20.6-6.1,31.2c-0.3,3.6-0.6,7.2-1.4,10.9c-0.8-1.8-0.8-3.7-0.7-5.6c0.5-9.6,1.5-19.1,3.8-28.5
		c0.9-3.6,1.8-7.3,3.1-10.8c3.3-9.2,9.4-15.9,18.4-19.8c0,0,0,0,0.1,0c-0.8-1.6,0-2.9,1.2-3.7c1.8-1.2,3.6-2.5,5.5-3.3
		c4.6-1.8,11.2-1.5,15.6,1.1c-1.5,0-2.9,0.1-4.4,0.1c-3.9-0.1-7.9,0.1-11.5,1.7c-0.6,0.3-1.1,0.6-1.7,0.9c-0.6,0.4-1.2,0.7-1.7,1.1
		c-1,0.7-2,1.4-3,2.1c0,0,0,0,0,0l-0.1,0c5.2-2.1,10.8-2.2,16.4-2.9c1.3-0.2,2.5-0.3,3.8-0.6c1.1-0.2,2.3,0.2,3.4,0.5
		c7.8,2.1,14.5,5.9,19.5,12.4c0.7,0.9,1.2,1.9,1.3,3.3c-0.7-0.5-1.5-1-2.2-1.5c-1.9-1.6-3.8-3.2-5.6-4.9
		C444.9,576.6,414.2,583.2,406.9,607z"/>
	<path fill="#C49A6C" d="M548.2,587.9c1.4-1.3,2.7-2.8,4.1-4.2c0,0,0,0,0,0C550.9,585.1,549.6,586.6,548.2,587.9z"/>
	<path fill="#C49A6C" d="M552.3,583.7c0.4-0.4,0.8-0.7,1.2-1.1l0,0C553,582.9,552.6,583.3,552.3,583.7z"/>
	<path fill="#C49A6C" d="M556.9,653.9c0,0.1,0,0.1-0.1,0.2l0.1,0C556.9,654.1,556.9,654,556.9,653.9z"/>
	<polygon fill="#C49A6C" points="279.1,612.3 279.1,612.3 279.1,612.3 	"/>
	<path fill="#C49A6C" d="M555.6,644.5c1,3,1.4,6.2,1.3,9.4c0,0,0,0,0,0C557,650.6,556.6,647.5,555.6,644.5z"/>
	<polygon fill="#C49A6C" points="273.9,604.4 273.9,604.4 273.9,604.4 	"/>
	<path fill="#C49A6C" d="M273.9,604.4C273.9,604.4,273.9,604.4,273.9,604.4c-1.4-1.3-2.6-1.2-3.7-0.4
		C271.2,603.2,272.4,603,273.9,604.4z"/>
	<path fill="#C49A6C" d="M279.1,612.2C279.1,612.2,279.1,612.2,279.1,612.2c0.3-1.3,0.4-2.1,0.4-2.8
		C279.6,610.1,279.4,610.9,279.1,612.2z"/>
	<path fill="#C49A6C" d="M241.4,767.5c-1.1-0.4-2.4-0.1-4.2-0.1c0.6,1.7,0.9,3,1.5,4c1.3,2.2,1.2,4.2,0.5,6.6
		c-1.2,4.3-1.9,8.8-2.9,13.2c19.8,0,39.6,0,59.4,0c-16-5.8-31.6-12.6-46.6-20.8C246.7,769.2,244.1,768.3,241.4,767.5z"/>
	<path fill="#C49A6C" d="M79.7,676.6c6.8-2.8,28.7-5.1,36.8-3.5c-2.3,0.8-3.8,1.3-5.2,1.8c-5.2,1.7-10.2,3.6-14,7.7
		c-1.4,1.4-2.9,2.9-2.6,5.4c1.5,0.3,2.8,0.5,4,0.7c2.9,7.5,4.7,8.7,10.5,7.8c-3.1-3-3.6-5.4-1.6-9.5c0.9-1.8,2-3.7,3.5-5
		c2.8-2.3,5.7-4.5,8.9-6.1c5.7-2.8,12-3.7,18.3-3.1c5.2,0.5,10.3,1.4,16.1,2.3c-9-3.6-17.6-6.3-26.5-7.6c-7.5-1.1-15-1.8-22.5-2.7
		c-5.1-0.6-9.7-2.1-12.2-7.2c-0.2-0.5-0.8-0.7-1.6-1.4c-1.1,1-2.4,1.7-3.1,2.9c-1.6,2.6,0.9,4.5,1.7,7.3c-2.8,0-5.3-0.1-7.7,0
		c-2.4,0.1-4.8,0.7-5.5,3.4C76.4,672.7,77.2,675.1,79.7,676.6z"/>
	<path fill="#C49A6C" d="M111.2,528.2c5.8-1.8,10-5.7,13.5-10.4c3.8-5.1,4.8-10.9,3.8-17c-0.7-4.2-2.6-7.8-6.3-10.1
		c-9.7-5.9-22.4-5.3-30.8,3.6c-3.3,3.5-4.2,7.6-2.7,12.1c1.6,4.9,4.9,8.3,10.1,9.2c1.3,0.2,2.8-0.1,4.2-0.1c-1.1-0.9-2.1-1-3.1-1.3
		c-4.9-1.4-7.2-4.9-6-9.9c0.4-1.8,1.3-3.6,2.4-5c3-3.8,7-5.7,11.9-5c5.3,0.8,9,3.9,11,8.9c2.7,6.9,0.8,13.2-3.1,19
		C114.6,524.3,112.8,526.2,111.2,528.2z"/>
	<path fill="#C49A6C" d="M198.2,616.6c0,0.4-0.2,0.8-0.1,1.2c0.4,1.5,1.2,3.1-0.8,4.2c-1.7,1-3.2,1.8-5.2,0.2
		c-0.6-0.5-2.2-0.4-3.1-0.1c-4.2,1.7-7.6,0.1-8.9-4.3c-0.4-1.3-0.9-2.6-1.7-4.8c-1.6,2-2.8,3.1-3.4,4.4c-1.1,2.4-2.6,3.2-5.1,2.8
		c-2.1-0.3-4.2,0-5.3,2.2c-1.2,2.3,0.1,4.1,1.8,5.3c2.8,2.1,3.5,4.8,2.8,8c-0.1,0.4-0.1,0.9,0,1.3c0.3,3.9,3.3,5.7,6.8,3.8
		c1.1-0.6,2.1-1.7,2.6-2.8c0.9-2.1,2-3.4,4.4-3.6c2.2-0.2,3.6-1.7,4.4-3.7c0.4-1,0.9-2,1.5-3.3c3.6,3.5,7.2,5.1,11.5,2.1
		c2.8-2,4-6.1,2.8-9.4C202.2,617.4,201.1,616.6,198.2,616.6z"/>
	<path fill="#C49A6C" d="M191,583.9c1,0,2.4-0.7,2.9-1.5c4.5-6.4,6-13.4,3.4-21c-1.1-3.2-3.6-4.9-6.1-4.7c-3.1,0.3-4.9,2.3-6,5
		c-0.5,1.3-1,2.6-1.4,3.8c-9.5-0.4-10.1,0.1-8.4,7.7c-3.6,4.1-3.3,6.2,1.5,8.2C181.4,583.5,186.2,583.9,191,583.9z"/>
	<path fill="#C49A6C" d="M124,597.4c-0.5-2-1.4-3.9-2.4-6.6c-1.5,1.3-2.4,1.8-2.7,2.5c-1.8,3.5-4.2,5.4-8.5,4.8
		c-2.5-0.4-3.1,1.5-1.5,3.7c0.3,0.5,0.7,1,1.1,1.3c2.5,1.9,2.7,4,1.4,6.8c-0.7,1.4-1.7,3.1-0.1,5c1.1-0.7,2.1-1.1,3-1.8
		c4.3-3.5,4-4,8.7-0.3c1.3,1,2.9,1.5,5.4,2.6c-0.5-3.4-0.8-5.8-1.2-7.9c1.5-2.6,5.6-2.5,6-6.6c-1.9-0.2-3.7-0.5-5.5-0.6
		C125.6,600.2,124.5,599.5,124,597.4z"/>
	<path fill="#C49A6C" d="M175.3,592.5c2.6,0.2,5.1,0.2,7.4,0.6c1.3,0.2,2.7,1,3.7,1.9c1.7,1.4,3.1,3.1,5.1,5.2
		c-0.9,3.5-0.1,4.9,3.9,5.4c3.1,0.3,5.8-0.6,7.7-3.2c1.9-2.6,1.4-5.2,0-7.8C197.7,584.1,183,582.9,175.3,592.5z"/>
	<path fill="#C49A6C" d="M225.1,583.3c-2.5-1.3-3-3.2-2.3-5.8c0.2-0.7,0.1-1.4,0.1-2.2c-0.2-3.2-2-4.5-5-3.3c-1.6,0.6-3,1.7-4.6,2.6
		c-1-0.7-1.9-1.4-3-1.9c-1-0.4-2.7-1-3-0.6c-0.7,0.9-0.9,2.3-0.9,3.5c0,1.2,0.5,2.5,0.7,3.6c-1.8,1.9-4.4,1-5.2,3.4
		c0.5,0.4,0.9,1,1.4,1.1c4.3,0.7,7.1,2.6,7.3,7.4c0,0.7,1.3,2,1.9,1.9c1-0.1,2.1-0.9,2.7-1.7c1-1.4,1.6-3,2.4-4.5
		c2.2,0.2,4.1,0.7,5.9,0.6c1.1-0.1,2.2-0.9,3.3-1.4C226.3,585.1,225.9,583.7,225.1,583.3z"/>
	<path fill="#C49A6C" d="M138,517.7c-1.3,0.9-2.4,2-3,2.6c-2.9-0.3-5.1-1.3-6.6-0.6c-5.6,2.5-8.6,7.2-11,13.5c2.5,0,4.5,0.6,5.7-0.1
		c1.6-1,2.6-3.1,4.1-4.9c3.7,1.2,7.9,1.8,11.9-0.1c2-0.9,3.9-2.5,5.3-4.2c1.4-1.7,0.7-4.3-0.9-5.9C142,516.4,140.2,516.2,138,517.7z
		"/>
	<path fill="#C49A6C" d="M154.4,721c0.6,1,1.4,1.9,2.7,3.7c2.7-6.4,7.2-7.5,12.2-7c3,0.3,5.9,1.3,8.9,2c1.2,0.3,2.3,0.7,3.5,1
		c-2.6-4.7-6.4-7.5-10.9-9.7c-3.9-1.9-7.9-2.1-11.8-0.5c-1.9,0.8-3.8,2.1-5.3,3.6c-1.7,1.7,0,3.5,0.4,5.2
		C154.3,719.9,154.1,720.5,154.4,721z"/>
	<path fill="#C49A6C" d="M236.4,556.9c-2.9,0-5.6,0.9-7.5,4.3c1.3-0.1,1.8-0.1,2.3-0.2c3-0.7,5.5,0,7.4,2.4c2.1,2.7,1.5,5.5,0,8.2
		c-0.8,1.4-1.8,2.6-3,3.7c-1.3,1.3-2.9,2.4-4.4,3.5c4,0,7.4-1.4,10.2-4.2c3.5-3.7,4.4-9.2,2.1-13.3
		C242,558.5,239.6,556.9,236.4,556.9z"/>
	<path fill="#C49A6C" d="M234.6,584.6c-1.2,2.6-2.4,5.1-3.5,7.5c2.1,1.3,3.9,2.4,5.8,3.6c2-1.4,3.9-2.9,6.1-4.5
		c-0.6-1.2-1.3-2.6-1.7-3.2C238.6,586.7,236.6,585.7,234.6,584.6z"/>
	<path fill="#C49A6C" d="M379.7,621.1c2-0.6,4.1-1.7,5.6-3.2c2.5-2.4,4.5-5.2,6.8-7.8c-0.2-0.2-0.4-0.4-0.6-0.6
		c-1.2,1.3-2.2,2.7-3.6,3.7c-2.3,1.7-4.7,3.6-7.3,4.5c-5.1,1.6-8.2-1.4-7.8-6.7c0.1-1.6,0.5-3.1,0.9-5.5c-2.1,3.3-2.6,6.2-2.4,9.3
		C371.5,619.4,375.3,622.4,379.7,621.1z"/>
	<path fill="#C49A6C" d="M152,533.3c-0.2,0.6,0.2,2.1,0.8,2.4c2,0.9,4.1,1.5,6.3,2.2c1.1-2.5,2.1-4.8,3-6.9c-2.6-1-4.9-1.8-7.4-2.8
		C153.7,529.8,152.7,531.5,152,533.3z"/>
	<path fill="#C49A6C" d="M548.4,653.7c0-0.1-0.2,0-0.4,0c1.2,4,3.1,5.4,5.9,4.4c1.8-0.7,2.5-2.1,2.9-3.9
		C553.1,658.9,551.9,658.9,548.4,653.7z"/>
	<path fill="#C49A6C" d="M556.8,654.3c0,0,0.1-0.1,0.1-0.1c0,0-0.1,0-0.1,0C556.8,654.2,556.8,654.2,556.8,654.3z"/>
	<path fill="#C49A6C" d="M554.9,577.4c0-0.7-0.3-1.4-0.7-1.9c-0.5-0.7-1.4-1.3-2.7-1.8c3,2.9,2.3,5.8,1.9,8.7
		c0.9-1.8,1.4-3.2,1.5-4.4C554.9,577.8,554.9,577.6,554.9,577.4z"/>
	<path fill="#C49A6C" d="M553.5,582.4c0,0.1,0,0.1-0.1,0.2c0,0,0,0,0,0C553.4,582.5,553.5,582.5,553.5,582.4z"/>
	<path fill="#C49A6C" d="M553.5,582.4c0,0.1,0,0.1-0.1,0.2l0,0C553.4,582.5,553.4,582.5,553.5,582.4
		C553.5,582.4,553.5,582.4,553.5,582.4z"/>
	<path fill="#C49A6C" d="M554.2,575.5c0.4,0.6,0.7,1.2,0.7,1.9C554.9,576.7,554.7,576,554.2,575.5z"/>
</g>
<g>
	<path fill="#C49A6C" d="M794,557.6c0.7,0.6,1.3,1.3,1.8,2.1C795.3,558.9,794.7,558.2,794,557.6z"/>
	<path fill="#C49A6C" d="M796.8,561.1c-0.2-0.4-0.5-0.8-0.7-1.1C796.3,560.4,796.6,560.7,796.8,561.1z"/>
	<path fill="#C49A6C" d="M846.9,658.5C846.9,658.5,846.9,658.5,846.9,658.5c0.4-0.3,0.8-0.6,1.2-1
		C847.7,657.9,847.3,658.2,846.9,658.5z"/>
	<path fill="#C49A6C" d="M844.6,655.9c1.3-0.7,1.6,0,2.2,2.6c0,0,0,0,0,0C846.3,655.9,845.9,655.2,844.6,655.9z"/>
	<path fill="#C49A6C" d="M677,555.1c0.2-0.2,0.4-0.3,0.6-0.5C677.4,554.8,677.2,554.9,677,555.1C677,555.1,677,555.1,677,555.1z"/>
	<path fill="#C49A6C" d="M1066.8,593.6c-0.9-1.6-1.8-3.1-2.7-4.7C1065,590.4,1065.9,592,1066.8,593.6
		C1066.8,593.6,1066.8,593.6,1066.8,593.6z"/>
	<path fill="#C49A6C" d="M985.9,542.9C985.9,542.9,985.9,542.9,985.9,542.9C985.9,542.9,985.9,542.9,985.9,542.9z"/>
	<path fill="#C49A6C" d="M926.1,625.5c0-1.5-0.3-2.9-0.8-4.2C925.8,622.6,926,624,926.1,625.5z"/>
	<path fill="#C49A6C" d="M1067.9,598.3c-0.3-1.4-0.6-2.8-0.8-4.2c0,0,0,0,0,0C1067.4,595.6,1067.6,597,1067.9,598.3z"/>
	<path fill="#C49A6C" d="M923.8,625.2C923.8,625.2,923.8,625.2,923.8,625.2c-1.1-0.9-2.2-1.7-3.3-2.6
		C921.6,623.5,922.7,624.4,923.8,625.2z"/>
	<path fill="#C49A6C" d="M925.3,621.2c-0.3-0.9-0.8-1.7-1.3-2.4C924.5,619.5,924.9,620.3,925.3,621.2z"/>
	<path fill="#C49A6C" d="M918.8,621c-0.1-0.2-0.2-0.3-0.3-0.5C918.6,620.7,918.7,620.8,918.8,621z"/>
	<path fill="#C49A6C" d="M797.9,575.5L797.9,575.5c0,0,0.1-0.1,0.1-0.1v0C798,575.4,797.9,575.5,797.9,575.5c0,0,0,0.1,0,0.1
		c0,0,0,0,0,0C797.9,575.6,797.9,575.5,797.9,575.5z"/>
	<path fill="#C49A6C" d="M745.1,623.8c-0.2,1.9-0.5,3.9,1.3,5.3c3.3,2.4,6.6,4.7,10,7c1.3,0.9,2.5,0.6,3.5-0.7
		c0.7-0.9,1.3-1.9,2.1-2.8c4.4-5.2,8.7-10.6,13.3-15.6c3.5-3.7,6-4,9.9-0.6c3.7,3.2,6.9,7,10.1,10.7c2.1,2.4,3.9,5.1,6,7.5
		c4.6,5.4,12.5,6.8,17.6-1c3-4.6,6.9-6.7,12.6-5.5c3.8,0.8,5.3-1.6,3.7-5.3c-0.6-1.3-2-2.4-1.2-4.6c1.5,1.3,2.6,2.5,3.8,3.4
		c3,2.2,6.8,1.3,8.5-2c0.4-0.8,0.6-1.6,1-2.4c2.2-4.8,4.4-5.7,9.4-4c1.9,0.7,3.8,1.6,5.8,2c4.4,1.1,6.7-0.4,7.5-4.9
		c0.5-2.6,0.7-5.2,1-7.8c0.6-4.6,1.1-9.2,2-13.8c0.9-5,3.3-8.8,8.1-11.2c5.3-2.6,9.7-6.5,13.2-11.2c4.5-5.9,8.8-11.9,12.9-18.1
		c2.2-3.3,4.6-5.6,8.4-7.1c11.8-4.7,16.7-15.7,11.5-27c-2.7-5.9-4.7-11.8-5.8-18.2c-0.3-1.9-1-3.7-1.6-5.4
		c-4.7-13.5-12.3-24.7-25.3-31.6c-3.2-1.7-5.1-3.9-6.6-7.1c-10.2-22.6-28.4-34.8-52.4-38.6c-4.8-0.8-10-1.1-14.7-0.3
		c-25.5,4.1-48.5,14.2-69,29.9c-8,6.2-15,13.3-20.5,21.8c-6,9.3-8.3,19.4-7.5,30.4c0.4,5.3,6,8.5,10.8,6.2c3.7-1.7,7.3-3.7,11.1-5.2
		c16.4-6.5,33.2-8.5,50.5-4.9c1.1,0.2,2.2,0.7,3.2,1.1c-1,0.7-1.7,0.7-2.4,0.6c-12.6-1.1-25,0.1-37.1,3.7c-3.9,1.2-4.2,1.9-2.7,5.6
		c2,4.8,4.9,8.9,8.5,12.6c1.1,1.1,2.1,2.2,3.2,3.3c-0.2,0.3-0.5,0.5-0.7,0.8c-1.2-0.9-2.6-1.6-3.7-2.6c-4.6-3.7-8.1-8.3-10.8-13.6
		c-1.5-3-2.1-3.1-5.2-1.9c-2.7,1.1-5.3,2.4-7.9,3.7c-4.2,2.1-4.3,2.4-2.2,6.6c1.9,3.7,4.1,7.3,6.1,10.9c-1.4-0.6-2.4-1.5-3.3-2.5
		c-2.1-2.8-4.2-5.6-6.3-8.4c-2.8-3.8-6.3-6.9-10.5-9.1c-1.8-1-3.8-1.7-5.8-0.6c-9.4,5-19.1,9.5-27,16.8c-3.2,2.9-6.1,6.3-8.5,9.9
		c-4.4,6.7-5.1,14.2-3.3,21.8c1.1,4.6,2.4,5.3,6.8,4c5.9-1.7,11.3-4.6,16.2-8.4c1.2-0.9,2.5-1.8,3.7-2.8c0.2,0.2,0.5,0.5,0.7,0.7
		c-0.7,1-1.3,2.1-2.1,2.9c-5.8,6.4-12.7,11.1-21.1,13.4c-3.9,1.1-7.9,1.9-11.9,2.6c-8.3,1.5-16.6,2.8-24.6,5.9
		c-25.3,9.8-39.4,35.5-33.5,61.9c1.2,5.5,3.6,10.7,5.7,16.8c-7.2,5.9-12.7,13.3-12.9,23.4c-0.2,9.8,3.5,18,10.6,24.8
		c-4.8-7.1-8.3-14.7-7.6-23.5c0.7-9,5.1-15.8,12.4-20.9c3.2,1.3,3.7,5.2,7.9,6.4c-1.6-3.4-2.8-6-3.8-8.3c2.9-3.9,8.7-2.4,10.6-7.6
		c-4.8-0.7-8.6,2.6-12.8,2.4c-2.4-3.2-3.3-6.9-4.2-10.6c-4.8-19.4,1.7-37.2,17.6-47.9c6.7-4.6,14.2-7.5,22-9.4
		c5.5-1.3,11.1-2.5,16.7-3.5c16.6-2.9,30.9-10,42.2-22.7c0.7-0.8,1.6-1.4,2.4-2.1c0.2,0.2,0.4,0.4,0.7,0.6c-0.9,1.2-1.7,2.5-2.6,3.7
		c-8.8,10.9-20,18.2-33.4,21.9c-6.6,1.8-13.3,3-20,4.5c-7.9,1.7-15.5,3.8-22.7,7.6c-6.4,3.4-11.8,8-15.7,14.1
		c-0.8,1.3-1.4,2.7-2.2,4c11.5-10.1,11.5-10.1,15.5-10.3c-0.9,1.6-1.7,2.9-2.5,4.3c-4.1,7.1-6.4,14.7-5.4,23
		c0.6,5.3,2.9,9.7,6.6,13.5c1.9,1.9,2.9,1.7,4.8,0c2.2-2,1.7-4,0.7-6.3c-7.2-17.5,1.2-34,16.6-41.7c1.2-0.6,2.4-1.4,4.4-0.5
		c-6.9,5-12.6,10.3-15.4,18c-2.8,7.7-3.2,15.4-0.3,23.4c0.9-0.3,1.3-0.4,1.7-0.6c2.6-1.6,3.3-4.2,3.5-7.1c0.5-7.9,2.9-15.1,7.8-21.4
		c7-9,16.3-14.3,27.1-17.2c0.5-0.1,1,0,1.6,0c-1,1.4-2.3,1.9-3.4,2.6c-5,3-10.3,5.6-14.8,9.1c-8,6.2-13,14.4-14.4,24.6
		c-0.1,0.9,0.1,1.8,0.3,3.4c3.6-2.7,6.6-4.9,9.6-7.1c3-2.3,6-4.6,9-6.9c2.8-2.3,5.6-4.6,8.3-7.1c2.8-2.6,5.5-5.2,8.1-8
		c2.6-2.8,5-5.7,7.4-8.6c2.3-2.8,4.3-5.8,6.5-8.8c0.3,0.2,0.5,0.3,0.8,0.5c-0.4,1.3-0.6,2.8-1.3,4c-2.8,5.3-5.4,10.7-8.7,15.6
		c-6.4,9.4-15.3,16.2-24.6,22.6c-6.2,4.3-12.5,8.6-18.4,13.3c-9.6,7.8-17.3,17.2-22.1,28.8c-7.8,18.7-4.5,38.1,9.1,51.8
		c2.5,2.5,5.7,4.4,8.7,6.4c0.8,0.5,2,0.3,4.1,0.6c-1.4-2.2-2.2-3.5-3-4.8c-4.7-7.3-7.8-15.3-8.6-24c-1.6-16.2,5-28.9,17.5-38.8
		c7.1-5.6,15.2-9,23.9-11.4c22-6.1,39.2-18.7,51.8-37.7c3.8-5.8,7.1-12,10.6-18.1c0.8-1.5,1.7-2.9,2.7-4.7c0.3,0.9,0.5,1.2,0.4,1.4
		c-0.2,0.8-0.4,1.7-0.7,2.5c-3.6,9.9-7.9,19.4-14.2,27.9c-1.6,2.2-2.1,4.2-1.5,6.9c1.8,8.3-0.7,15.5-5.9,22
		c-3.5,4.4-7.7,8-12.5,10.8c-5.1,3.1-10.4,5.8-15.6,8.7c-4.1,2.3-8.2,4.4-12.1,6.9c-8,5.3-11,12.8-9.2,22.3c0.3,1.8,0.6,3.5,1,5.7
		c-0.9-0.5-1.3-0.5-1.4-0.7c-5.3-9.3-3.6-20.8,4.5-27.8c3.5-3,7.5-5.5,11.5-7.9c4.7-2.9,9.8-5.2,14.3-8.3c5.2-3.6,10.2-7.7,14.9-12
		c3.6-3.3,6-7.5,7-12.4c0.4-2,1.1-4.2-0.3-6.8c-1.2,1-2.2,1.7-3,2.6c-6.9,7-14.9,12.6-24.1,16.3c-6.4,2.7-13.1,4.9-19.7,7
		c-6.8,2.2-13.4,4.9-19.3,9c-7.6,5.3-13.2,12.2-16,21.2c-0.3,0.8-0.2,1.8-0.4,3.5c0.8-1.1,1.1-1.4,1.3-1.7c6-12,15.7-19.5,28.2-24
		c6-2.2,11.8-4.9,17.7-7.4c0.9-0.4,1.8-0.6,2.7-0.9c0.2,0.2,0.3,0.5,0.5,0.7c-1.1,1-2.2,2.1-3.4,3c-5.2,3.8-11,6.5-17.4,7.9
		c-3.5,0.8-5.6,2.6-7.2,5.6c-3.3,6.4-5.8,13-7.4,20c-1.9,8.3-1.4,16.5,0.8,24.6c0.3,1.3,1,2.5,1.7,3.9c4.1-2.5,6.4-5.7,7.5-9.5
		c1.1-3.7,1.3-7.7,2.1-12.4c2.6,5.7,2.2,10.6,0.2,15.4c-2,4.9-5.5,8.5-9.9,11.4c-5.9,3.8-9.6,9.2-11.5,15.9c-4.3,14.7,0,27.5,9,39.2
		c0.8,1,1.7,2,3.4,1.1c-0.8-4.8-1.9-9.5-2.4-14.4c-0.5-4.8,0.2-9.6,1.8-14.2c1.6-4.7,3.7-9.1,7.8-13.1c1.9,2.4,3.6,4.3,5.1,6.4
		c6.7,9.7,12.7,19.9,17.2,30.8c1.6,3.8,3.7,5.2,7.8,5.2c38.3-0.1,76.6-0.1,114.8-0.1c1,0,2,0,3.1-0.1c2-0.1,2.9-1.2,2.5-3.2
		c-0.2-1.3-0.5-2.6-0.9-3.8c-2.5-8.7-7-16.4-13.6-22.6c-5.6-5.3-11.9-9.8-17.9-14.6c-1.3-1-2.6-2-4-3c0.2-0.2,0.4-0.5,0.5-0.7
		c7.7,3.2,14,8.8,20.8,13.5c2-2.1,1.5-4,1.2-5.8c-0.7-3.7-2.5-6.9-4.9-9.6c-3.7-4.1-7.5-8.1-11.4-12.1
		c-10.1-10.4-18.7-21.8-24.6-35.2c-3.5-8-7.5-15.8-11.2-23.7c-0.5-1.1-0.8-2.3-1.2-3.4c5.2,1.7,8.8,5,12.1,8.6
		c4.6,5,5.8,11.2,6.2,17.8c0.5-0.4,0.8-0.5,0.9-0.7c1.8-9.2,0-17.4-7.2-23.9c-1.7-1.6-3.6-2.9-5.5-4.3c-5.7-4.1-11.4-8.1-17.1-12.1
		c-0.7-0.5-1.5-0.7-1.8-0.8c-3.6,5.7-6.6,11.3-10.4,16.3c-5.4,7.1-10.9,11.4-14.4,12.2c0-0.1,0-0.3,0.1-0.4c0.4-0.5,0.7-0.9,1.1-1.3
		c12.2-11,19-24.7,20.9-41.1c0.8-7.1,2.6-14,4.1-21c0.3-1.4,0.4-3.1,2.6-4.4c-0.3,2.4-0.4,4.1-0.6,5.8
		C747.1,606.2,746.1,615,745.1,623.8z M727.2,514.9c-5.8,4.8-12,9.3-17.3,14.6c-4.7,4.7-8.6,10.2-12.8,15.4c-0.8,1-1.5,2-2.2,3.1
		c-0.3-0.1-0.7-0.2-1-0.4c0.1-1.1,0-2.2,0.2-3.3c0.9-4.6,2.8-8.9,5.5-12.7c6-8.7,14-15.1,23.4-19.8c2.3-1.1,4.7-2.1,8-0.2
		C729.5,512.9,728.4,513.9,727.2,514.9z M798.8,593.3c1.2,2.2,2.5,4.5,1.8,7.3c-1.7-3-3.6-5.9-5-9c-0.7-1.6-0.9-3.7-0.6-5.5
		c0.4-3.1,1.3-6.2,2-9.2c0-0.1,0-0.1,0.1-0.2c0.2-0.4,0.5-0.8,0.8-1.2c0,0,0-0.1,0-0.1c0,0,0.1-0.1,0.1-0.1c1.5-5.2,1-10.2-1.2-14.2
		c-0.2-0.4-0.5-0.8-0.7-1.1c-0.1-0.1-0.2-0.2-0.2-0.4c-0.5-0.7-1.1-1.4-1.8-2.1c-1.3-1.2-2.7-2.2-4.5-2.9c1.1,1.8,1.7,3,2.5,4.1
		c1.4,2.2,2,4.2,1,6.9c-0.6,1.7,0.1,3.8,0.2,6.1c-1.5,0.5-2.2,1.8-2,4c0.2,1.2-0.1,2.8-0.8,3.7c-2.9,3.9-6.1,7.6-7.4,12.5
		c-0.4-0.7-0.6-1.3-0.8-2c-0.6-1.9-0.6-3.9,0-5.9c-1.5,0.6-3,1.4-4.5,2c-0.5,0.2-1,0.4-1.5,0.5c-8.2,2.3-15-2.4-15.9-10.8
		c-0.9-7.9,5-16.1,12.6-17.5c2-0.4,4-0.5,6.1,1.4c-1.5,1.1-2.7,2-3.9,2.9c-2,1.4-4.2,2.7-6,4.3c-2.9,2.5-3.9,5.8-3,9.5
		c0.7,2.9,3.3,5.2,6.1,5.6c3.2,0.5,6.6-1.8,6.3-5c-0.1-1,0.1-1.9,0.2-2.9c4.1-0.1,5.9,1.4,5.7,4.7c0,0.6-0.2,1.1-0.4,1.7
		c-0.3,0.9-0.7,1.9-1,2.8c2.6-2.6,3.2-5.6,1.4-8.7c-1.9-3.2-5-3.6-8.4-3.1c-1,0.1-1.9,0.4-3.5,0.7c2.4-3.8,5.7-3.3,8.1-3.8
		c1.8-2.2,3.4-4,4.6-5.9c0.8-1.2,1.2-2.8,1.4-4.3c0.1-0.9-0.4-2-0.5-3c-0.4-3.7,1.4-5.2,4.9-3.9c7,2.7,12,13.9,9.2,20.9
		c-0.3,0.7-0.8,1.3-1.4,2c-0.3,0.3-0.6,0.6-0.8,1c0,0.1,0,0.1-0.1,0.2c0,0,0,0.1-0.1,0.1c0,1,0,2,0,2.9c0,1.7-0.1,3.4-0.3,5.1
		C796.9,587.1,797.1,590.2,798.8,593.3z M841.9,621.1c-4.4-1.6-8.4-3.8-10.5-8.6c3.7,2.6,7.4,5.2,11.1,7.8
		C842.3,620.6,842.1,620.8,841.9,621.1z M857.4,565.7c4.1,3.1,8.6,9,11.6,15.2C863.3,580.7,858.2,574.2,857.4,565.7z M876.3,574.1
		c-0.8,0.4-2.6,0.4-3.1-0.1c-3.4-4.6-8.3-7.1-13-10c-0.4-0.3-0.7-0.8-1-1.3c6-1.2,14,0.5,17.5,3.6
		C879.6,568.8,879.5,572.4,876.3,574.1z M910,513.3c-3.1-0.4-6.2-0.8-9.3-1.2c-0.1,0.2-0.2,0.4-0.4,0.6c1.7,1.6,3.3,3.1,5,4.7
		c-0.1,0.3-0.2,0.6-0.3,0.9c-12.1-6.2-24.2-6.3-36.6-1.3c5.5-5.5,12.8-6.7,19.9-8.4c-2.7-1.3-4.3-1.6-9.9-1c-3.4,0.4-6.9,1-10.2,2
		c-3.3,1-6.3,2.5-9.5,3.8c-0.1-0.3-0.2-0.6-0.3-0.9c8.1-6.4,17.5-9.1,27.8-8.6c8.9,0.4,17.2,2.8,24.2,8.6
		C910.1,512.7,910,513,910,513.3z M907.3,491.8c-0.2,0.2-0.4,0.4-0.6,0.6c-15.5-11-32.7-11.2-50.4-7.3c-0.1-0.3-0.1-0.7-0.2-1
		c1.4-0.6,2.7-1.3,4.2-1.8c10.2-3.2,20.5-3.7,30.9-1.3c5.8,1.3,10.8,4.2,14.7,8.7C906.5,490.4,906.8,491.1,907.3,491.8z
		 M905.3,476.8c-15.2-13.2-31.8-19.9-51.5-16.4C868.9,451.3,900.1,460.9,905.3,476.8z M733.3,472.8c3.2-5.1,7.5-9.3,12.8-12.2
		c4.2-2.3,8.5-4.6,13-6.1c12.6-4.3,25.4-8.2,38.1-12.2c0.1,0.1,0.3,0.3,0.4,0.4c-1.8,1.1-3.6,2.3-5.5,3.1c-7.4,3-14.9,5.8-22.3,8.6
		c-4.3,1.6-8.8,3-13.1,4.7c-8.4,3.4-16,8.2-22.1,15.1c-0.5,0.5-1,0.9-2.1,1.1C732.7,474.5,732.8,473.6,733.3,472.8z M797.2,474.7
		c-7-0.3-13.9-0.9-20.9-1.2c-7.3-0.3-14.5-0.4-21.7,1.1c-6.2,1.3-12,3.4-17.5,6.5c-1.2,0.7-2.5,1.4-4.2,1.6c0.6-0.7,1-1.4,1.7-2
		c7.4-5.8,15.9-8.9,25.1-10.3c7.7-1.2,15.3-0.9,23-0.4c8,0.5,16,0.8,23.9,0.7c11.9-0.2,22.8-4,33.2-9.6c1-0.6,2-1.1,3.1-1.6
		c0.2-0.1,0.5,0.1,1.6,0.3c-1.7,1.3-2.9,2.4-4.3,3.3C827.1,471.3,812.7,475.3,797.2,474.7z M773.5,523.5c1.5,0.4,3,0.8,4.4,1.2
		c10.5,3.1,21.2,5.2,32.2,5.1c8.5-0.1,16.8-1.7,24.9-4c5.7-1.6,11.4-3.5,17.1-5.3c1.6-0.5,3.3-1,5.2-0.8c-0.4,0.3-0.7,0.8-1.1,1
		c-11.4,5.1-23,9.8-35.5,11.7c-16.2,2.6-31.5-0.6-46.3-7.2c-0.5-0.2-0.8-0.6-1.2-1C773.3,524,773.4,523.8,773.5,523.5z M740.3,528.9
		c-1.3-1.5-2.5-3.2-3.1-5.3c3.2,2.6,6.2,5.4,9.5,7.7c3.5,2.4,7.1,4.5,10.9,6.3c3.7,1.8,7.8,2.9,11.8,4c-6-3.6-11-8-14.2-14.6
		c0.5,0.2,1.2,0.3,1.6,0.6c22.2,16.2,46.3,18.9,72.1,10.7c6.9-2.2,13.7-4.9,20.6-7.1c7.4-2.4,15-3.4,22.8-2.4
		c4.5,0.6,6.5,1.5,9.1,4.2c-1.3-0.1-2.3-0.1-3.2-0.3c-7-1.5-13.9-0.8-20.6,1.5c-5.3,1.9-10.6,4-15.9,6c-11.2,4.3-22.6,7.7-34.6,8.8
		c-14.9,1.4-29.7,0.5-43.9-4.8C754.4,541,746.7,536,740.3,528.9z M678.2,719c-1.4,1-2.9,1.9-4.5,2.7c-2.4,1.4-5,2.5-7.2,4.1
		c-2.1,1.5-3.8,3.5-5.7,5.3c0.2-3.4,2.2-5.7,4.6-7.6c1.9-1.6,4-2.9,6-4.3c7.8-5.5,12.1-12.8,12-22.5c-0.1-6.1-0.2-12.2-0.2-18.3
		c0-1.7,0.4-3.3,0.6-5c0.3,0,0.6,0,0.9-0.1c0.3,0.7,0.6,1.4,0.7,2.1c0.8,5,1.5,10.1,2.2,15.1c0.3,2.4,0.8,4.9,0.9,7.4
		C688.7,706.7,685.3,713.8,678.2,719z M773,711.7c2,8.5,1.1,17.2,2.1,25.7c1,8.5,1.9,17,2.8,25.5C771.5,746.3,772,729,773,711.7z"/>
	<path fill="#C49A6C" d="M798,575.5C798,575.5,797.9,575.5,798,575.5C797.9,575.5,798,575.5,798,575.5
		C797.9,575.6,797.9,575.6,798,575.5c-0.1,0.1-0.1,0.1-0.1,0.1C797.9,575.6,797.9,575.6,798,575.5c0-0.1,0-0.1,0.1-0.2c0,0,0,0,0,0
		C798,575.4,798,575.5,798,575.5z"/>
	<path fill="#C49A6C" d="M961.6,739.1c5.1-3.2,10.5-5.1,16.5-4.7c2.8,0.2,4.7-1.2,6.1-3.5c5.8-9.3,10.7-19.1,13-29.9
		c1.1-4.9,0.8-9.6-2.9-13.5c-0.5-0.5-0.9-1.1-1.2-1.8c-2.9-5.6-2.9-11.2,0.4-16.6c1.9-3.1,4.3-4.1,7.3-3.5c-6.5,7-7.2,14.8-1.6,18.8
		c-0.1-3.2-0.9-6.4,1.1-9.6c1.1,0.6,2.1,1.3,3.1,1.7c2.9,1.2,5.8,2.8,8.9,3.3c11,1.9,20.7-1.2,29.1-8.6c2.8-2.5,5.6-4.9,8.8-7.7
		c0.1,2.3,0.3,4,0.4,6.5c6.9-6.1,11.7-12.6,12.6-21.1c0.5-4.6,0-9.3-0.4-13.9c-0.2-2-0.2-3.7,1-5.4c5.5-7.6,6.3-16.3,5.4-25.3
		c-0.1,1-0.1,2-0.1,3c0.1,7.8-1.9,15-6.3,21.4c-2.6,3.7-5.2,7.5-8.5,10.5c-8,7.4-16.4,14.3-24.7,21.4c-0.5,0.5-1.3,0.7-2,1
		c0.7-1.5,1.7-2.5,2.8-3.5c4.4-4,8.9-7.9,13.2-12.1c6.3-6.1,12.1-12.6,16.6-20.2c3.8-6.4,5.9-13.2,6-20.7c0.1-5.9-1.4-11.4-3.2-17
		c-1.5-4.9-4.5-7.2-8.6-8.9c-1.3-0.6-2.7-1-4.2-1.6c0-5.7,0.2-11.2-3.3-16c-0.1,0.5,0,1,0.1,1.5c0.5,4.4-1.3,6.1-5.4,5.2
		c-2.5-0.6-4.9-1.7-7.4-2.6c-6.2-2.2-12.3-4.3-18.5-6.5c-0.6-0.2-1.2-0.6-1.9-0.9c0.7-1,1.2-1.8,2.1-3.2c-4.2,0-7.8,0-12.1,0
		c2.6-3.8,6.4-4.1,9.4-6.2c-2.1-0.4-4.1-0.4-6.1-0.4c-2,0-4.1,1.3-6.9,0.2c2.1-1.8,3.6-3.2,5.2-4.7c-5.6-3.2-14-2.6-16.8,1.2
		c1.6,3.2,5,5.5,5.4,9.6c-1.9-1-3.5-2.4-5.2-3.7c-2.2-1.8-4.3-4-6.8-5.4c-4.2-2.3-8.6-0.7-10.5,3.7c-0.8,1.8-0.9,3.9-1.2,5.9
		c-0.2,1.4,0,2.8,0,4.1c-3.3-4.1-2.2-8.3-0.7-12.5c-1.9,1.9-2.6,4.2-2.7,6.7c-0.1,2.4,0,4.9,0,7.2c-1.2,0.4-1.9,0.7-2.6,0.9
		c-11.6,3.6-19.6,11.1-23.5,22.7c-0.9,2.6-1.6,5.3-2.4,7.9c-2,6.2-3.3,9-10.6,8.3c-4.3-0.4-6.9,2.9-6,7.1c0.1,0.6,0.2,1.2,0.2,1.7
		c0,2.3-1,4-2.6,5.7c1.9,0.6,3.4,1.7,4.6,3.1c0.5,0.7,1,1.5,1.3,2.4c0,0,0,0.1,0.1,0.1c0.5,1.2,0.7,2.6,0.8,4.2
		c0,1.2-0.1,2.4-0.3,3.7c-1.2,0-2.6-0.2-3.8,0.1c-1.2,0.3-2.6,0.8-3.2,1.7c-3.7,5.6-2,11.6,4,14.7c1.4,0.7,2.9,1.4,4.2,2.2
		c5.2,3.2,10.2,6.6,15.4,9.8c4.3,2.6,5.3,5,3.8,9.9c-0.4,1.3-0.9,2.6-1.4,4.2c2.5,0.7,4.6,1.2,7.1,1.9c-1,0.5-1.3,0.9-1.7,0.9
		c-5-0.2-8.9,2.1-12.6,5.2c-2.6,2.1-5.3,4.1-7.8,6.3c-4,3.4-3.9,6.5-0.2,10.3c3.5-2.1,6.8-4.6,10.4-6.2c3.6-1.6,7.5-2.7,12.3-1.3
		c-1.6,1.9-2.8,3.1-3.8,4.5c-3.2,4.1-6.6,8.1-9.4,12.5c-2.5,4-3,8.5-0.9,13c0.3,0.6,0.3,1.4,0.5,2.9c-1-0.9-1.5-1.2-1.9-1.6
		c-6.4-8.1-12.6-16.4-17.1-25.8c-4.1-8.5-10-15.7-16.6-22.4c-0.9-1-2.1-1.7-3.1-2.5c-0.6,0.6-1,0.7-1.1,1c-2.5,5.9-5,11.8-7.4,17.7
		c-0.4,1.1-0.7,2.6-0.3,3.8c1.7,5.1,2.7,10.4,5.8,15c1.7,2.5,3,5.3,4.4,8c3.3,6.3,6.6,12.6,10,18.9c5.7,10.7,15.9,14.2,27,9.3
		c3-1.4,5.6-3.6,8.4-5.4c3.2-2.1,6.1-4.6,9.5-6.1c7.9-3.5,15.6-7.2,21.5-13.7c0.1-0.1,0.3,0,1.1,0.1c-0.9,1.5-1.6,2.9-2.5,4.1
		c-3.5,4.7-8.2,7.7-13.4,10.1c-4.1,1.9-8.1,4-12,6.2c-1.2,0.7-2.2,1.7-3.9,3c1.7,0.5,2.5,0.9,3.5,1
		C954.8,742.5,958.3,741.2,961.6,739.1z M1023.2,630.7c5.5-3.6,10.5-7.8,14.6-13c6.4-8.1,8.8-17.2,6.5-27.4
		c-0.1-0.6-0.1-1.3,0.1-2.1c2.3,1.9,3,4.5,3.5,7.1c1,5.6-0.1,11-2.5,16.1c-3.1,6.7-7.9,12.2-13.9,16.5c-4.1,2.9-8.5,5.4-13.3,7.2
		c-0.1-0.3-0.3-0.5-0.4-0.8C1019.6,633.1,1021.4,631.9,1023.2,630.7z M927,612.2c-0.5-1.6-0.9-3.2-1.5-5.1c2.5-0.2,3.4,0.9,3.8,2.5
		C929.7,611,929.2,612.1,927,612.2z M957.7,593.9c-4-2.9-7.8-5.8-11.5-8.6C951.3,583.5,956.4,587.2,957.7,593.9z M950.4,608.1
		c-1.1-2.8-2-5.7-3.4-8.3c-1.4-2.6-3.4-4.9-5.2-7.5C947.7,592.8,952,600.4,950.4,608.1z M942.7,600c3,1.1,3.9,3.1,4.1,6.2
		c-1.7,0.1-3.2,0.3-5,0.4c1.1,0.5,2,1,3,1.4c0,0.2-0.1,0.4-0.1,0.7c-2.6,0-5.3,0-9.1,0C938.3,605.3,940.4,602.7,942.7,600z
		 M940.6,651.3c9,1.7,17.4,1.9,25.5-1.8C961.4,656.1,948,657.1,940.6,651.3z M1000,626.8c-2.7,0.1-5.5-0.5-8.2-0.1
		c-2.6,0.4-5.1,1.6-8.3,2.7c1.8-3,4.2-4.2,6.8-5c3-0.9,12.4-0.3,16.4,0.9C1004.6,627,1002.2,626.7,1000,626.8z M975.7,602.9
		c3,2.6,5.3,5,8,6.9c2.5,1.7,5.4,2.9,8.6,4.6C984.3,615.3,977.7,610.8,975.7,602.9z M981.8,588.1c7.1,6.2,15.6,8.2,25.6,7.5
		C999.2,601.4,985.8,597.2,981.8,588.1z M1004.6,587.5c-8.2,4-21.1-1.1-26.7-10.6c3.3,2.1,5.8,3.9,8.5,5.3c2.7,1.4,5.6,2.5,8.5,3.3
		C997.9,586.3,1000.9,586.7,1004.6,587.5z M974.9,548.8c0.6-0.5,1.4-0.8,2.5-0.8c-0.3,0.4-0.5,0.9-0.8,1.3
		c-3.9,5.6-3.5,10.4,1.1,15.3c4.1,4.3,9.3,6.9,14.8,8.8c1.4,0.5,2.7,0.9,4.1,1.3c-8.6,1.8-20.2-4.1-23.9-11.4
		C970.3,558.3,971.2,552.3,974.9,548.8z M972.9,659.2c-3.7-2.3-5.3-6.9-3.8-10.6c0.9-2.2,2.3-2.5,3.9-0.8c0.5,0.5,0.8,1.2,1.3,1.8
		c3.5,4.6,10.8,6,14.9,1.5c1.9-2.1,4.5-3.9,5.7-6.4c2.4-4.8-1.2-9.4-6.4-8.7c-3.2,0.4-4.8,2.3-4.9,5.6c-0.1,1.5-0.1,3-0.1,5.1
		c-2.8-3.1-3-6.3-1.3-9.2c2.3-4,7.5-5.4,11.8-3.3c4,2,5.6,6.5,4,10.8c-1.5,3.9-11.2,11-15.3,11.1c-3.7,0.2-6.8-1.2-9.1-4.2
		c-0.7-0.9-1.3-1.9-1.9-2.9c-1,2.5-0.6,4.4,1.4,6.3c2.6,2.4,5.8,3.2,9.3,2.6c2.3-0.4,4.4-1.2,7.5-2
		C984.9,661.1,977.8,662.3,972.9,659.2z M989.8,638.4c0.6,0.6,1.2,1,1.2,1.4c0,0.3-0.7,1-1,1c-0.4,0-1-0.5-1.2-1
		C988.7,639.6,989.3,639.1,989.8,638.4z"/>
	<path fill="#C49A6C" d="M925.3,621.3c0,0,0-0.1-0.1-0.1C925.3,621.2,925.3,621.3,925.3,621.3z"/>
	<path fill="#C49A6C" d="M921.9,610c0,2.3-1,4-2.6,5.7c0,0,0,0,0,0C921,614,922,612.3,921.9,610z"/>
	<path fill="#C49A6C" d="M919.4,615.7C919.4,615.7,919.4,615.7,919.4,615.7c1.9,0.6,3.4,1.7,4.6,3.1
		C922.8,617.4,921.3,616.3,919.4,615.7z"/>
	<path fill="#C49A6C" d="M919.3,615.7C919.4,615.7,919.4,615.7,919.3,615.7C919.3,615.7,919.3,615.7,919.3,615.7
		C919.3,615.7,919.3,615.7,919.3,615.7z"/>
	<polygon fill="#C49A6C" points="919.4,615.7 919.4,615.7 919.4,615.7 919.4,615.7 	"/>
	<path fill="#C49A6C" d="M890.6,698c-0.4-1.6-0.8-3.1-1.3-4.6c-0.9-2.2-0.4-4.1,0.6-6.2c1.9-4.1,3.8-8.2,5.2-12.5
		c0.9-2.7,1.3-5.7,1.2-8.5c-0.3-5.3-2.7-9.4-8.2-11.1c-0.8-0.2-1.5-0.7-2.1-1.1c0.1-2.2,1.4-4,0.3-6.3c-0.6,0.5-1.2,0.8-1.4,1.2
		c-1.2,2.3-2.9,2.5-5.1,1.7c-0.5-0.2-1.1-0.4-1.7-0.6c-4.6-1.4-5.2-1-5.7,3.8c0,0.3-0.3,0.5-0.3,0.6c-3.7,2.1-7.4,3-11.3,0.8
		c-4.6-2.6-8.6-1.9-12.2,1.9c-0.1,0.1-0.3,0.3-0.4,0.4c-0.4,0.3-0.8,0.6-1.2,1c0.4,2.8-0.8,6.1,2.3,8.5c0.8-1.2,1.4-2.1,2-3.1
		c0,2.9-0.2,5.5-1,8c-0.9,2.9-2.1,5.8-3.3,8.5c-2,4.3-4.4,8.5-6.4,12.9c-5.2,11.5-7.1,23.5-5.1,36.2c0.7,4.1,0.5,8.5-0.1,12.6
		c-1.2,8.2-3.1,16.3-4.6,24.4c-0.7,3.8-0.2,4.4,3.7,4.4c6.8,0.1,13.7,0,20.5,0c7.2,0,7.3,0,7.6-7.1c0.4-8.5,2.3-16.3,8-23
		c8.4-10,13.6-22,19.4-33.5C891.3,704.3,891.4,701.2,890.6,698z M855.7,691.5c-1.1-3.3,0.2-6.4,1.5-9.4c1.9-4.5,2.9-9.1,2.8-14
		c0-0.6,0-1.2,0-1.7c-0.3-4.8-1.4-6.3-5.7-7.8c3.2-1.6,5.4-1.2,6.5,2c1.1,3.1,1.5,6.5,1.5,9.7c0,4.6-0.2,4.6,4.1,6.1
		c0.5,0.2,1.1,0.4,1.6,0.6c4.9,1.9,5.4,1.7,7.4-3c0.9-2.2,1.5-4.5,2.4-7.1C880,676.5,864.7,694.6,855.7,691.5z"/>
	<path fill="#C49A6C" d="M846.8,658.6C846.8,658.6,846.8,658.6,846.8,658.6C846.8,658.6,846.9,658.5,846.8,658.6
		C846.9,658.5,846.9,658.5,846.8,658.6C846.9,658.5,846.8,658.6,846.8,658.6z"/>
	<path fill="#C49A6C" d="M846.9,658.5C846.9,658.5,846.8,658.6,846.9,658.5C846.8,658.6,846.9,658.5,846.9,658.5
		C846.9,658.5,846.9,658.5,846.9,658.5z"/>
	<path fill="#C49A6C" d="M638.5,512.5c2.3,1.9,4.9,3.1,8.7,1.3c-6.9-1.1-10.8-6.4-10-13.1c0.8-6.8,4.6-11.6,10.7-14.4
		c5.3-2.5,10.8-3.2,16.6-2.4c9.2,1.3,17.4,5.5,25.6,9.7c3.4,1.7,6.6,3.7,10.1,5.1c3.2,1.3,6.6,2.3,10,2.8c3.5,0.5,6.7-0.5,8.7-3.7
		c2.5-4,0.8-11.5-3.1-14.2c-3.4-2.3-8.4-1.8-10.7,1.1c-1.6,2-1.8,4.3-0.8,6.6c0.8,1.8,2.2,2.9,4.7,2.4c-0.7-1-1.2-1.7-1.6-2.5
		c-1.8-3.7,0.5-7.2,4.7-7c3.3,0.2,5.8,3.2,5.9,6.9c0,3.8-2,6.3-5.8,6.1c-3-0.2-6-1.1-8.7-2.2c-2.5-1-4.7-2.9-7.1-4.2
		c-7.6-4-15-8.3-22.9-11.6c-9.9-4.1-19.7-2.4-28.8,3.1c-6,3.6-9.9,8.9-11.1,16C632.6,503.9,634.2,508.8,638.5,512.5z"/>
	<path fill="#C49A6C" d="M912.6,738.6c-0.9-1.5-1.8-3-2.7-4.5c-4.9-8.8-9.7-17.5-14.6-26.3c-0.3-0.6-0.9-1.1-1.6-2
		c-0.7,0.7-1.1,0.9-1.3,1.2c-2.3,4.7-4.7,9.4-6.9,14.1c-0.5,1-0.9,2.3-0.7,3.3c1.1,6.9,3.4,13.3,9,17.9c4.5,3.7,12.2,4.3,17.3,1.5
		C914.2,742.3,914.4,741.5,912.6,738.6z"/>
	<path fill="#C49A6C" d="M620.1,564.3c0.7-5.1,2.5-9.9,5.9-13.9c6.5-7.7,14.7-10.5,24.6-8.2c2,0.5,4.2,0.9,5.5,3.3
		c-1.3,0.8-2.4,1.4-3.5,2.1c-4.3,2.9-5.9,7-5.6,12c0.2,2.4,1.2,3.4,3.3,2.9c5-1.3,10-2.9,15.7-4.6c-4.6-4.1-4.7-4.5-1.6-8.8
		c1.2-1.6,0.7-2.7-0.5-3.8c-3.9-3.7-8-7.2-13.1-9.3c-12.8-5.2-25.8,0.6-30.5,13.5c-2.5,6.7-2.5,13.6-1.2,20.5
		C619.5,568.2,619.8,566.3,620.1,564.3z"/>
	<path fill="#C49A6C" d="M1079.7,699.8c-1.1-2.3-1.8-4.3-2.8-6.1c-0.8-1.4-0.7-2.5,0.1-3.6c0.8-1,1.8-1.9,3.2-3.3
		c-1.1-1.9-2.1-3.8-3.3-5.6c-2.1-2.8-4-2.6-5.4,0.6c-0.8,1.7-1.7,2.6-3.5,2.7c-4.9,0.5-7.6,3.8-10,7.6c-2,3.3-2.1,4.3,0.8,6.8
		c3.1,2.6,6.4,5,9.8,7.1c2.1,1.2,4.5,2,6.9,2.5c4.9,0.9,8.7-3.5,7.7-8.8C1081.9,699.8,1080.5,699.8,1079.7,699.8z"/>
	<path fill="#C49A6C" d="M694.4,498.2c-5.9-3-12.1-3.9-18.6-2.1c-2.2,0.6-4.9,0.4-6.8,2.3c1.8,3.2,5.6,2.9,8.3,5.1
		c-3.6,2.4-8.1,2.4-10.9,6.3c12,4.6,20.2,2.2,28.8-5.7C698.4,501.2,698.2,500.2,694.4,498.2z"/>
	<path fill="#C49A6C" d="M660.1,516.5c-3,2.9-6.3,10.2-5.9,13.9c0.2,1.5,0.6,3.3,1.6,4.4c2.3,2.4,4.8,4.6,7.5,6.6
		c1.9,1.4,4,0.9,5.6-0.5c1.7-1.5,3.4-2.9,5.5-4.6C673.2,531,665,519.6,660.1,516.5z"/>
	<path fill="#C49A6C" d="M1093.7,679.4c1.5-0.6,2.4,0,3.5,1c1.6,1.6,3.4,3,5.1,4.5c1.6,1.4,3.1,0.8,4.1-0.6c0.8-1.1,1.5-2.6,1.7-3.9
		c0.8-4.6,1.3-9.1,1.9-13.7c-4.4-2.7-12.3-2.3-15.9,0.8c-3.4,2.9-4.7,8.6-2.7,12.7C1092.2,679.9,1093,679.7,1093.7,679.4z"/>
	<path fill="#C49A6C" d="M1101.2,701.9c-1.7,0.8-2.9,1.8-3.8,1.6c-1.9-0.4-3,0.1-4.2,1.4c-1.1,1.3-2.4,1.5-3.7,0
		c-0.5-0.6-1.2-1.1-1.8-1.6c-3.4,3.8-3.8,6.6-1.6,10.3c1.9,3.1,4.4,5.8,7.7,7.5c0.2,0.1,0.6,0,1.1,0c0.6-0.7,1.3-1.5,1.8-2.1
		c1.7-0.2,3.3,0,4.4-0.6c2.9-1.6,4.6-6.5,3.4-9.6C1103.6,706.6,1102.3,704.3,1101.2,701.9z"/>
	<path fill="#C49A6C" d="M1130.8,684.9c4.5,6.8,3.4,15.6,9.7,21.4c3.1-3.1,1.8-7.1,3-10.9c3.3,3.4,3.6,8.4,8.3,11
		c1-5.7,1.2-10.8-2.4-15.2C1144.7,685.4,1138.4,684,1130.8,684.9z"/>
	<path fill="#C49A6C" d="M1071.7,727.6c-3.8-4.8-8.5-7.8-14.8-7.9c-2.7,0-5.4-0.7-8.1-1.2c-1.4-0.2-2.7-0.7-4.1-1
		c2.9,2.3,6.2,3.9,8.9,6.2c3.4,2.9,6.5,6.2,9.6,9.5c3.1,3.2,6.4,6,10.7,7.3c1.4,0.4,3,0.5,5.1,0.9c-2.2-4.3-4-7.9-5.8-11.5
		C1072.6,729,1072.2,728.2,1071.7,727.6z"/>
	<path fill="#C49A6C" d="M952.1,748.9c2.6,12.3,4.4,16.5,7.9,18.3c2.6-2.2,1.3-5.7,2.6-8.7c3,2.9,3,7.6,6.7,9.6
		c2.4-4.4,1.7-10.2-1.4-13.8C963.9,749.7,957,747.3,952.1,748.9z"/>
	<path fill="#C49A6C" d="M1134.7,675.3c8.4,7.3,19.2,7.7,25.6,0C1153.2,667.2,1141.4,665.6,1134.7,675.3z"/>
	<path fill="#C49A6C" d="M1133.3,664.6c2.1-3.2,2.9-6.8,2.7-10.9c-3.9,0.4-5.5,3.8-8.4,5.6c-0.6-1.7-1.1-3.2-1.9-5.2
		c-7.8,5.3-6.1,13.5-8.4,20.6C1123.3,673.5,1130.6,668.8,1133.3,664.6z"/>
	<path fill="#C49A6C" d="M1029.2,726.9c0.9-2.7,1.2-5.5-0.9-7.8c-2-2.2-4.7-1.8-7.3-1.4c-1.8,0.3-3.7,0.5-5.5,1
		c-0.8,0.2-1.7,0.6-2.1,1.2c-1.5,2.3-0.4,6.1,2.2,7.3c2.4,1.2,4.6,2.4,4.6,5.7C1025.4,732.7,1027.9,730.9,1029.2,726.9z"/>
	<path fill="#C49A6C" d="M1016.8,700.8c-1.2,0.3-2.3,1-3.6,1.6c-0.6-1.8-1.2-3.4-1.7-5c-4.7,3.1-7.3,11.4-5.3,17.1
		c6-2,12.1-3.6,16.4-8.7c0.6-0.8,1.1-1.7,1.5-2.6c0.7-2,0.1-3.2-2.1-3.2C1020.2,699.9,1018.5,700.4,1016.8,700.8z"/>
	<path fill="#C49A6C" d="M964.1,742.9c6.6,7.9,16.1,9.6,23.1,4C981,737.2,968.6,735.2,964.1,742.9z"/>
	<path fill="#C49A6C" d="M910.5,756.3c-3.4-6-11.8-7.9-16.9-4.5c-1.4,1-2,2.3-0.9,3.7c1.9,2.5,3.9,5.1,6.2,7.2
		c2,1.8,4.6,2.4,7.3,1.8c2.3-0.5,3.1-1.4,2.3-3.7C907.7,758.5,908.1,757.1,910.5,756.3z"/>
	<path fill="#C49A6C" d="M1044.6,687.8c-1.1,0.3-2.3,0.9-3.3,0.7c-2.1-0.5-3.4,0.5-4.6,1.7c-3.3,3.2-5,7.1-5.2,11.7
		c0,0.9,0.4,1.8,0.6,2.7c8.8-1,16.3-8.9,17-18.3C1047.3,686.8,1046,687.4,1044.6,687.8z"/>
	<path fill="#C49A6C" d="M1124.2,694.1c-2.9-2.6-5.9-5.1-8.9-7.6c-0.8-0.6-1.7-1.1-2.6-1.5c-1.5-0.6-2.9-0.5-4,0.8
		c-1.1,1.3-2.5,2.3-2.7,4.3c0.6,0.2,1,0.5,1.4,0.5c6.8,1.1,10.9,5,12.2,11.8c0.5,3,2.4,4.1,5.4,4.2c0.5-1.4,0.5-2.8,1.2-3.4
		c2.2-2,1.3-4,0.3-5.9C1126,696,1125.2,694.9,1124.2,694.1z"/>
	<path fill="#C49A6C" d="M926.8,747.2c-2.7-1-5.5-1.8-8.2-2.9c-1.8-0.7-3.2-0.3-4.1,1.3c-1.9,3.3-2.7,6.7-0.6,9.9
		c2.3,0,4.2,0.3,6.1-0.1c3.4-0.7,3.3-0.8,4.7,2.2c0.2,0.5,0.5,1,0.8,1.6c2.4-1.1,3.8-3,4.6-5.2C931.2,751.2,929.8,748.3,926.8,747.2
		z"/>
	<path fill="#C49A6C" d="M1002.2,732.3c0.5-1.2,1.3-2.5,2.3-3.3c1.3-1.1,2.9-1.8,4.9-2.9c-0.2-2.5-1.5-3.9-3.7-4.2
		c-2.7-0.3-5.5-0.6-8.2-0.2c-2,0.3-4.1,1.4-5.7,2.7c-0.8,0.7-1.4,2.7-1,3.8c1.2,3.2,3.7,5.5,7.1,6.5
		C1000.1,735.3,1001.3,734.4,1002.2,732.3z"/>
	<path fill="#C49A6C" d="M1091.6,700.1c0.4-0.2,1.5-0.3,2.3-0.9c4.5-2.8,4.3-11.4-0.5-13.6c-1.6-0.8-4-0.7-5.8-0.2
		c-2.9,0.9-4.3,5-3.5,8.5C1085,697.7,1087.9,700.2,1091.6,700.1z"/>
	<path fill="#C49A6C" d="M933.5,712.1c1.4-3.4,2.3-5.9,3.5-8.1c1.2-2.3,2.9-4.3,4.3-6.5c1.3-2,3.8-3.3,4.4-6.5
		c-3.8,0.7-6.9,1.9-9.6,4c-2.5,2-4.8,4.4-7.7,7c-1.4-3.8-2.7-7.1-4.2-11.3c-0.6,1.5-1.1,2.1-0.9,2.5c0.4,1.7,0.9,3.4,1.6,4.9
		C927.1,702.9,929.9,707.2,933.5,712.1z"/>
	<path fill="#C49A6C" d="M1005,741.9c-0.8-0.5-1.4-1.3-1.9-2.1c-1.4-2.2-2.3-2.5-4.4-0.8c-3.1,2.6-4.3,6.1-4.3,10.5
		c0,0.5,0.1,1.3,0.2,2.2c0.1,0.6,0.1,1.2,0.3,1.7c0.7,2.2,1.9,2.8,4,1.8c3.7-1.7,6.5-4.4,7.7-8.4
		C1007.2,744.8,1007,743.1,1005,741.9z"/>
	<path fill="#C49A6C" d="M1087.4,679.6c1-5.7-0.1-11.2-4.5-15.9c-7.1,6.8-7.7,15.4,0.3,20.9C1084.6,682.9,1087,681.4,1087.4,679.6z"
		/>
	<path fill="#C49A6C" d="M936.9,754c-0.7,0.2-1.5,0.4-2,0.8c-1.9,1.9-4.1,3.8-5.6,6c-1.6,2.4,0.4,5.3,3.4,5.3c3.7,0,7.5-1.1,9.2-3.2
		c1.6-1.9,4.1-3.7,2.9-6.7C944.1,754.5,939.6,753.4,936.9,754z"/>
	<path fill="#C49A6C" d="M1105.5,693.9c-3.2,5.5-0.6,9.2,3.2,12.5c0.9,0.8,1.8,1.5,2.8,2.1c1.2,0.6,2.5,1.1,4.4,1.8
		c0.9-4.8,1.6-8.9-1.2-12.6C1112.4,694.8,1109.3,693.2,1105.5,693.9z"/>
	<path fill="#C49A6C" d="M705.2,462c-0.5-2.7-1.8-3.5-3.8-1.9c-2.1,1.7-4.1,3.7-5.4,6c-2.2,4-1.1,9.2,2.5,12.5
		C703.7,474.1,706.4,468.9,705.2,462z"/>
	<path fill="#C49A6C" d="M1014.6,744.9c-0.8,0.4-1.8,0.4-2.7,0.6c-0.7,0.2-1.5,0.2-1.9,0.6c-2.4,2.4-2.7,8-0.5,10.5
		c0.8,0.9,2,1.4,3,2.1c1.5-0.5,2.8-0.6,3.5-1.3c2.5-2.4,3.9-5.5,4.1-8.9C1020.3,745.4,1017.3,743.6,1014.6,744.9z"/>
	<path fill="#C49A6C" d="M1031.3,738.8c-2-3.9-5.2-4.6-9.7-2.3c0,2,1.3,4-0.9,5.4c-0.2,0.1,0,1.4,0.4,1.8c2.3,2.5,5.1,4.3,8.6,4.5
		c2.7,0.1,3.9-1,3.4-3.6C1032.8,742.5,1032.2,740.5,1031.3,738.8z"/>
	<path fill="#C49A6C" d="M1055.9,706.2c-7.6-4.6-9.1-2.1-15.5,5C1046.8,714.1,1053.2,711.9,1055.9,706.2z"/>
	<path fill="#C49A6C" d="M637.7,717.6c1.5,2.6,3.2,5.2,4.5,7.9c1.5,3,2.2,6.3,1.6,9.7c-1,6-7.1,7.9-10.7,4.6
		c-0.4-0.3-0.8-0.6-1.8-1.3c2.8,5.1,6.7,6.2,10.7,3.3c3.7-2.7,4.8-6.5,4.3-10.8C645.5,725.4,642.6,720.8,637.7,717.6z"/>
	<path fill="#C49A6C" d="M671.1,743.7c0.3-3.4,1.7-6.8,2.8-10.6c-4.6,4-6.6,12.5-4.9,19.6c1.4,5.6,4.9,10.1,8.4,11
		c-1.7-3-4-5.9-5.1-9.3C671.2,751,670.9,747.2,671.1,743.7z"/>
	<path fill="#C49A6C" d="M1034.9,718.1c1.6,1,3.2,2,4.7,3.1c3.7,2.7,6.6,6.2,7.9,10.7c1,3.5,1.4,7.2-0.3,10.6
		c-1.3,2.5-3.6,3.5-6.2,2.8c-2.4-0.6-3.5-2.3-3.5-5.2c0-0.5,0-1.1,0-2.5c-2.2,4.8-1.2,7.5,2.4,8.9c5,2,9.5-1.1,10.1-6.8
		C1051.1,729.2,1042.9,719.6,1034.9,718.1z"/>
	<path fill="#C49A6C" d="M866.5,639.2c-1.6,2.7-2.8,5.1-4.4,7.2c-3.3,4.6-2.8,5.8,2.9,6.8c0.1,0,0.3,0.1,0.4,0.1
		c4.1,0.6,5.3-0.7,3.6-4.4c-1.1-2.4-2-4.8-1.9-7.4C867.3,640.8,866.9,640.2,866.5,639.2z"/>
	<path fill="#C49A6C" d="M897.3,765.8c-2.3-1.4-4.8-2.6-7.1-3.7c-1.3,2.8-2.5,5.3-4,8.7c3.9,0,7.2,0.2,10.5-0.1
		c0.8-0.1,2-1.4,2.2-2.2C899.1,767.6,898.2,766.3,897.3,765.8z"/>
	<path fill="#C49A6C" d="M677.7,469.9c-0.8-6.9,6.3-9.3,10.5-7c1,0.5,1.9,1.2,2.9,1.8c-3.1-4.7-8.8-5.6-12.7-2.6
		c-4.1,3.1-4.4,9.4-0.2,14.3C678,473.8,678,471.8,677.7,469.9z"/>
	<path fill="#C49A6C" d="M915.1,763.6c-2.4,2.5-1.7,5.6,1.6,6.8c-0.4-4.9,0.6-7.1,3.3-7.1c2.6,0,3.5,1.8,3.6,7.4
		c3.1-1.1,3.8-2.3,2.9-4.7C924.9,761.9,918.1,760.4,915.1,763.6z"/>
	<path fill="#C49A6C" d="M1016.7,735.5c0-3-2.4-5.2-5.3-5.2c-3,0-5.3,2.1-5.1,4.8c0.2,2.5,3,5,5.7,5.1
		C1014.5,740.2,1016.7,738,1016.7,735.5z M1011,736.3c0,0-0.1,0.1-0.1,0.1c-0.1,0.1-0.1,0.1-0.2,0.2c-0.1,0.1-0.1,0.2-0.2,0.2
		c0,0-0.1,0.1-0.1,0.1c-0.1,0.1-0.1,0.1-0.2,0.2c-0.4,0.4-0.9,0.6-1.5-0.3c-0.5-0.6-0.8-1.5-0.8-2.3c-0.1-2,1.6-3.7,3.5-3.6
		c1.8,0.1,3.4,2,3.3,3.8c0,0.5-0.1,0.8-0.4,1.1c-0.1,0.1-0.2,0.1-0.3,0.1c-0.1,0-0.2,0.1-0.4,0.1c-0.3,0.1-0.8,0.1-1.4,0.1
		C1011.8,735.8,1011.4,736,1011,736.3z"/>
	<path fill="#C49A6C" d="M850.5,651.9c5.3,0.3,7.9-1.9,8.7-6.5C854.4,644.6,851,647.2,850.5,651.9z"/>
	<path fill="#C49A6C" d="M918.5,620.5c0.1,0.2,0.2,0.3,0.3,0.5c0.2,0.3,0.5,0.6,0.8,0.9c0.3,0.3,0.6,0.5,0.9,0.8
		c1.1,0.9,2.2,1.7,3.3,2.6c-1.1-2.3-2.2-4.6-3.3-6.9c-0.4-0.9-0.8-1.7-1.1-2.6C918.1,617.9,917.8,619.3,918.5,620.5z"/>
	<polygon fill="#C49A6C" points="919.3,615.7 919.3,615.7 919.3,615.7 919.3,615.7 	"/>
	<path fill="#C49A6C" d="M920.5,618.4c-0.4-0.9-0.8-1.7-1.1-2.6c0,0,0,0,0,0C919.7,616.6,920.1,617.5,920.5,618.4z"/>
	<path fill="#C49A6C" d="M919.3,615.7C919.3,615.7,919.3,615.7,919.3,615.7C919.3,615.7,919.3,615.7,919.3,615.7
		C919.3,615.7,919.3,615.7,919.3,615.7z"/>
	<path fill="#C49A6C" d="M919.6,621.8c-0.3-0.3-0.6-0.6-0.8-0.9C919,621.3,919.3,621.6,919.6,621.8z"/>
	<path fill="#C49A6C" d="M923.8,625.2C923.8,625.3,923.8,625.3,923.8,625.2C923.8,625.3,923.8,625.3,923.8,625.2
		C923.8,625.3,923.8,625.2,923.8,625.2z"/>
	<path fill="#C49A6C" d="M923.8,625.3C923.9,625.3,923.9,625.3,923.8,625.3C923.9,625.3,923.8,625.3,923.8,625.3L923.8,625.3
		C923.8,625.3,923.8,625.2,923.8,625.3C923.8,625.2,923.8,625.2,923.8,625.3C923.8,625.2,923.8,625.3,923.8,625.3z"/>
	<path fill="#C49A6C" d="M919.3,615.7C919.3,615.7,919.3,615.7,919.3,615.7c-1.2,2.2-1.5,3.5-0.8,4.8
		C917.8,619.3,918.1,617.9,919.3,615.7z"/>
	<path fill="#C49A6C" d="M903.3,770.5c2.7,0,5,0,7.7,0C908,768,906.7,768,903.3,770.5z"/>
	<path fill="#C49A6C" d="M844.6,655.9c-0.4,0.2-1,0.6-1.7,1.1c1.3,0.5,2.6,1,3.9,1.5C846.3,655.9,845.9,655.2,844.6,655.9z"/>
	<path fill="#C49A6C" d="M846.8,658.5C846.8,658.5,846.8,658.5,846.8,658.5C846.8,658.6,846.8,658.6,846.8,658.5
		C846.8,658.6,846.9,658.5,846.8,658.5C846.8,658.5,846.8,658.5,846.8,658.5z"/>
	<path fill="#C49A6C" d="M846.8,658.5C846.8,658.5,846.8,658.5,846.8,658.5C846.8,658.5,846.8,658.5,846.8,658.5
		C846.8,658.6,846.8,658.6,846.8,658.5C846.8,658.6,846.8,658.6,846.8,658.5C846.8,658.5,846.8,658.5,846.8,658.5z"/>
	<path fill="#C49A6C" d="M918.8,625.6c1.9,1.3,3.7,2.3,5-0.3c0,0,0,0,0,0C922.1,625.4,920.4,625.5,918.8,625.6z"/>
	<path fill="#C49A6C" d="M923.8,625.3c-1.7,0.1-3.4,0.2-5,0.3C920.4,625.5,922.1,625.4,923.8,625.3
		C923.8,625.3,923.8,625.3,923.8,625.3z"/>
	<path fill="#C49A6C" d="M923.9,625.3C923.9,625.3,923.8,625.3,923.9,625.3C923.8,625.3,923.8,625.3,923.9,625.3
		C923.8,625.3,923.8,625.3,923.9,625.3C923.8,625.3,923.8,625.3,923.9,625.3z"/>
	<path fill="#C49A6C" d="M923.8,625.3C923.8,625.3,923.9,625.3,923.8,625.3C923.8,625.3,923.8,625.3,923.8,625.3
		C923.8,625.3,923.8,625.3,923.8,625.3C923.8,625.3,923.9,625.3,923.8,625.3C923.9,625.3,923.9,625.3,923.8,625.3z"/>
	<path fill="#C49A6C" d="M931.4,770.6c0.8,0.1,1.6,0.1,2.4,0.2c0-0.2,0-0.5,0.1-0.7c-0.8-0.1-1.6-0.1-2.4-0.2
		C931.4,770.1,931.4,770.3,931.4,770.6z"/>
	<path fill="#C49A6C" d="M1065,588.5c-0.3,0.1-0.6,0.3-0.9,0.4c0.9,1.6,1.8,3.1,2.7,4.7C1066.2,591.9,1065.6,590.2,1065,588.5z"/>
	<path fill="#C49A6C" d="M1067,593.9L1067,593.9c0-0.1-0.1-0.2-0.1-0.3C1066.9,593.7,1066.9,593.8,1067,593.9z"/>
	<path fill="#C49A6C" d="M1067,593.8L1067,593.8c-0.1-0.1-0.1-0.2-0.2-0.3c0,0,0,0,0,0C1066.9,593.7,1066.9,593.7,1067,593.8z"/>
	<path fill="#C49A6C" d="M1068.5,598.2c-0.5-1.3-1-2.6-1.5-4c0.3,1.4,0.6,2.8,0.8,4.2C1068.1,598.3,1068.3,598.2,1068.5,598.2z"/>
	<path fill="#C49A6C" d="M1067.1,594.2c0-0.1,0-0.2-0.1-0.4c0,0,0,0,0,0c0,0,0,0,0,0C1067,594,1067,594.1,1067.1,594.2z"/>
	<path fill="#C49A6C" d="M1067.1,594.2C1067.1,594.2,1067.1,594.2,1067.1,594.2c0-0.1,0-0.2-0.1-0.4l0,0c0,0,0,0,0,0
		C1067,593.9,1067,594.1,1067.1,594.2z"/>
	<path fill="#C49A6C" d="M676.3,554.6c0.2,0.1,0.4,0.3,0.7,0.4c0.2-0.2,0.4-0.3,0.6-0.5c-0.2-0.1-0.4-0.4-0.7-0.4
		C676.7,554.2,676.5,554.5,676.3,554.6z"/>
	<path fill="#C49A6C" d="M677,555.1C677,555.1,677,555.1,677,555.1c-0.2-0.1-0.4-0.3-0.7-0.4C676.6,554.8,676.8,554.9,677,555.1z"/>
	<path fill="#C49A6C" d="M986,543.2c0-0.1-0.1-0.2-0.1-0.3c0,0,0-0.1,0-0.1c-0.2,0-0.5,0.1-0.7,0.2c0,0.1,0.1,0.4,0.1,0.4
		C985.5,543.4,985.8,543.3,986,543.2z"/>
	<path fill="#C49A6C" d="M985.3,543.4c0.2,0,0.5-0.1,0.7-0.2c0-0.1-0.1-0.2-0.1-0.3c0,0.1,0.1,0.2,0.1,0.3
		C985.8,543.3,985.5,543.4,985.3,543.4z"/>
</g>
<g>
	<path fill="#C49A6C" d="M838.4,154.9c1,3.1-0.4,6.6-3.2,7.9C838,161.5,839.5,158,838.4,154.9C838.4,154.9,838.4,154.9,838.4,154.9z
		"/>
	<path fill="#C49A6C" d="M649.1,120.5L649.1,120.5c0.1-0.1,0.1-0.1,0.2-0.2C649.3,120.4,649.2,120.4,649.1,120.5z"/>
	<path fill="#C49A6C" d="M831.3,146.2c-0.2,0.4-0.3,0.7-0.5,1.1l0,0C831,146.9,831.1,146.6,831.3,146.2z"/>
	<path fill="#C49A6C" d="M1113.2,152.3L1113.2,152.3c0.1-0.2,0.2-0.4,0.3-0.6C1113.4,151.9,1113.3,152.1,1113.2,152.3z"/>
	<path fill="#C49A6C" d="M1093.8,166.4c-0.1-0.2-0.2-0.4-0.4-0.6C1093.6,166,1093.7,166.2,1093.8,166.4
		C1093.8,166.4,1093.8,166.4,1093.8,166.4z"/>
	<path fill="#C49A6C" d="M1093.1,166.6c0-0.1,0-0.2,0-0.4C1093,166.4,1093.1,166.5,1093.1,166.6
		C1093.1,166.6,1093.1,166.6,1093.1,166.6z"/>
	<path fill="#C49A6C" d="M716.8,65.7c-0.2-0.1-0.4-0.2-0.6-0.2C716.4,65.5,716.6,65.6,716.8,65.7C716.8,65.7,716.8,65.7,716.8,65.7z
		"/>
	<path fill="#C49A6C" d="M961.5,288.8c1.4,1.1,2.8,2.2,4.2,3.4C964.3,291,962.9,289.9,961.5,288.8c0,0-0.1,0.1-0.1,0.1
		C961.4,288.9,961.5,288.8,961.5,288.8z"/>
	<path fill="#C49A6C" d="M798,212.2c-0.1,0.1-0.1,0.1-0.2,0.2C797.9,212.3,797.9,212.2,798,212.2z"/>
	<path fill="#C49A6C" d="M797.8,212.3c-0.7-0.4-1.4-0.9-2.1-1.3C796.4,211.5,797.1,211.9,797.8,212.3
		C797.8,212.3,797.8,212.3,797.8,212.3C797.8,212.3,797.8,212.3,797.8,212.3z"/>
	<path fill="#C49A6C" d="M1114.1,152.1c-0.2-0.1-0.4-0.2-0.6-0.4C1113.7,151.8,1113.9,152,1114.1,152.1
		C1114.1,152.1,1114.1,152.1,1114.1,152.1z"/>
	<path fill="#C49A6C" d="M1070.8,283.2L1070.8,283.2c-0.1,0.1-0.2,0.2-0.3,0.3C1070.6,283.4,1070.7,283.3,1070.8,283.2z"/>
	<path fill="#C49A6C" d="M831.5,145.6c0.2-0.4,0.3-0.7,0.5-1.1C831.9,144.9,831.7,145.3,831.5,145.6z"/>
	<path fill="#C49A6C" d="M763.6,307.6L763.6,307.6c1.4,1.8,2.8,3.6,4.3,5.3c4.4,5.2,8.7,10.6,13.3,15.7c-4.5-5.2-8.8-10.5-13.3-15.7
		C766.5,311.2,765.1,309.4,763.6,307.6z"/>
	<path fill="#C49A6C" d="M758,300c0.2,0.1,0.4,0.3,0.6,0.4c0,0,0,0,0,0C758.4,300.3,758.2,300.1,758,300z"/>
	<path fill="#C49A6C" d="M753.7,190.7L753.7,190.7c-0.1-0.1-0.1-0.1-0.2-0.2C753.6,190.6,753.7,190.6,753.7,190.7z"/>
	<path fill="#C49A6C" d="M867.8,8.7c5.2,0.8,10.3,1.9,15.5,2.2c24.5,1.5,48.6,5.4,72.4,11.2c10,2.4,19.6,6.3,29.4,9.6
		c5.8,2,11.5,4.1,17.3,6.1c7.8,2.6,15.4,5.5,22.4,9.8c11.9,7.3,23.6,14.9,35.4,22.3c2.8,1.7,4.4,3.9,4.7,7.3c0.3,3,1.1,6,1.9,9
		c3.1,12.1,1.2,23.4-5.4,33.9c-2,3.2-4.3,6.2-6.5,9.3c-6.2,8.5-7.3,17.8-3.5,27.3c2.8,7,6.2,13.8,10.2,20.2
		c6.8,10.7,22.9,13.4,33.3,6c5.6-3.9,7.4-9.9,8.4-16.2c0.3-1.9,0.2-3.8,0.1-5.7c-0.2-4.5-2.5-7.8-6.6-9.5
		c-5.7-2.3-11.2-1.4-16.1,2.2c-3.2,2.5-3.5,6.7-0.9,9.2c1.6,1.5,3.6,1.9,5.2,0.9c1.6-1,2.3-3,1.5-5c-0.5-1.3-1.4-2.5-2-3.8
		c3.9-3.5,8.2-3.4,12.1-0.6c4.7,3.5,4.3,8,3.5,12.8c-0.8,5.3-3.9,9.5-8.1,12.3c-3.1,2.1-7.2,2.9-11.2,1.8c-1.4-0.4-2.9-0.2-4.2-0.7
		c-2.4-0.8-5.1-1.5-7.1-3c-7.4-5.6-10.8-13.5-11.6-22.6c-0.7-8.5,1.5-16.4,4.6-24.2c2.1-5.4,3.9-11,5.2-16.6
		c0.9-3.8,0.5-7.8,0.7-11.7c0.1-1.6,0-3.2,0-4.7c0.3-0.1,0.6-0.2,0.9-0.4c0.6,0.8,1.2,1.6,1.7,2.5c2.2,4.3,4.1,8.7,6.6,12.8
		c8.1,13.2,19.7,21.6,35,24.5c0.8,0.2,1.7,0.2,3.7,0.4c-1.5-1-2.2-1.6-3-2c-10.2-5.1-17-13-20.5-23.8c-1.1-3.5-2.3-6.9-3.6-10.3
		c-2.8-7.4-6.8-14.1-12.4-19.9c-0.8-0.8-1.5-1.7-2.7-3.2c2.7,0.2,4,1.6,5.3,2.6c10.6,8.2,20.2,17.6,29.1,27.6
		c23,25.9,37.6,55.9,43.1,90.1c6.1,38.6-1.4,74.7-21.5,108.1c-8.8,14.6-19.6,27.5-32.2,38.8c-17.2,15.5-37.6,25.2-59.4,32.2
		c-14.6,4.7-29.7,6.9-44.9,8.9c-5.9,0.8-11.8,2-17.6,3c-1.4,0.2-2.8,0.5-4.6,0c0.8-0.6,1.5-1.4,2.3-1.9c7.4-4.1,14.7-8.3,22.2-12.1
		c3.5-1.8,5.8-4.1,6.8-7.9c0.4-1.5,1-3.1,1.8-4.4c2-3.6,3.1-7.1,1.4-11.2c-0.6-1.4,0-3.5,0.6-5c1-2.8,0.5-5-1.1-7.4
		c-1.4-2.2-2.6-4.5-3.5-7c-1.9-5.2-5-6.8-10.1-4.5c-1.5,0.7-2.7,2-4.3,3.1c-0.9-3.7-0.6-7.3,0.1-11c0.6-3.1,0.9-6.3,1.2-9.5
		c0.1-1-0.2-2.1-0.6-2.9c-0.7-1.4-2.4-1.4-3,0c-0.5,1.3-0.9,2.8-0.8,4.2c0.1,3.4-1.1,6.5-2,9.8c-2.9,9.9-7.2,19.4-7.8,29.9
		c-0.3,4.6-3.2,7.6-7.4,8.7c-5.3,1.4-10.8,2.5-16.2,3.2c-13.9,1.8-27.8,2.6-41.8,2c-8.3-0.4-16.6-0.7-24.8-0.8
		c-3.6-0.1-7.3,0.3-10.9,0.6c-3.4,0.3-5.6-1.1-6.7-4.3c-1.4-4.4-3-8.8-4.3-13.3c-2.3-8.5-5.1-16.7-9.5-24.3
		c-9.5-16.5-16.2-34.1-22.1-52.2c-2.9-8.9-6.1-17.6-9.6-26.2c-4.8-11.7-11.6-22.2-21-30.8c-0.9-0.8-1.6-1.7-2.3-2.6
		c-0.7-0.4-1.4-0.9-2.1-1.3c0.1-0.2,0.2-0.4,0.3-0.5c0.7,0.5,1.3,1,2,1.6c3.3,3,6.8,5.8,9.8,9c0.4,0.5,0.9,0.9,1.3,1.4
		c8.3,9.6,13.5,21,17.7,32.8c3.6,10.1,6.9,20.4,10.4,30.5c4.1,11.7,9.1,23,15.4,33.6c5.7,9.6,9.7,19.8,12.2,30.7
		c0.8,3.4,1.8,6.7,3,10c1.2,3.5,2,4,5.8,3.9c2.2,0,4.4,0,6.5-0.3c9.6-1.4,19.1,0.1,28.7,0.6c6.1,0.3,12.2,0.6,18.3,0.2
		c11-0.8,22-2.1,33-3.2c1.7-0.2,3.4-0.6,5.1-1.1c5.2-1.6,7-4,7.4-10.2c-1.5,1.5-2.8,2.7-4.1,4c-0.7,0.8-1.5,1.6-2.2,2.4
		c-0.2-0.2-0.4-0.3-0.7-0.5c0.7-0.8,1.4-1.7,2.1-2.5c3.5-4.4,5.7-9.5,7.5-14.8c0.4-1.2,0.8-2.4,1.2-3.7c1.9-5.8,3.9-11.6,5.7-17.4
		c0.5-1.5,0.4-3.2,0.6-4.7c0.3-1.9,0.5-3.7,1-5.5c0.6-1.9,2-3,4-2.4c5.9,1.7,11.8,0.2,17.8-0.1c0.2,0.6,0.5,1.1,0.9,1.9
		c2.4-1.8,4.6-3.5,7-5.1c0.6-0.4,1.6-0.2,3-0.3c-0.9,1.9-1.6,3.4-2.7,5.7c10-8.5,18.2-17.1,21.6-29.2c4.4-15.7-0.3-28.9-12.1-39.8
		c-2-1.9-4.4-3.3-6.6-5c-4.9-3.6-9.8-7.2-14.8-10.8c-2.2-1.6-4.7-2.9-7-4.4c-1.9-1.2-3.9-1.1-5.8-0.1c-2.9,1.6-5.8,3.4-9.3,3.7
		c-1.6,3.4-5,2.1-7.6,2.8c-5.8,1.5-9.8,5-12.4,10.2c-2.9,5.8-3.8,6.2-10.2,4.8c-3.1-0.7-3.7-0.2-4.7,2.8c-0.5,1.6-1.1,3.6-2.4,4.3
		c-3.5,2.1-3.9,5.3-3.6,8.6c0.2,2.1-0.3,3.6-1.4,5.3c-2.2,3.4-2,6.1,0.6,9.2c1.2,1.4,2.8,2.5,4.1,3.9c2.3,2.6,4.5,5.3,6.8,7.8
		c1,1.1,2.3,2.1,3.6,2.9c2.9,1.7,5.8,3.2,8.7,4.8c1.4,1.1,2.8,2.2,4.2,3.4c-0.2,0.3-0.4,0.6-0.6,0.8c-1.3-1.2-2.7-2.4-4-3.6
		c-2.6-1.2-5.2-2.5-7.9-3.6c-5.4-2.2-10.8-2.3-16.1,0.2c-5,2.4-10,4.7-14.8,7.4c-2.5,1.4-4.3,1.6-6.6-0.3c-3.7-3.1-7.6-5.9-11.4-8.8
		c-1.8-1.3-2.5-2.9-2.7-5.1c-0.3-4.2-1-8.4-1.6-12.5c-0.5-3.3-2.3-5.6-6-7.1c0.9,2,1.6,3.4,2.3,4.9c-0.1,0.1-0.3,0.3-0.4,0.4
		c-1.7-1.5-3.3-3.2-5.2-4.4c-1.9-1.2-4.1-1.9-6.2-2.9c-0.2,0.3-0.4,0.6-0.6,0.8c1.5,1.2,3,2.3,4.4,3.6c1.4,1.3,2.4,2.8,2.4,4.9
		c-2.6-1.5-4.8-3.4-7.4-4.2c-2-0.7-4.5-0.1-6.7-0.1c-0.1,0.4-0.2,0.7-0.3,1.1c0.9,0.6,1.7,1.1,2.6,1.7c2,1.4,4.1,2.7,5.8,4.4
		c1.6,1.5,1.5,3.7,0.8,5.7c-0.6,1.8-1.9,2.8-3.9,3c-1.8,0.2-2.6-0.9-3.3-2.3c-4-7.8-9.9-14-15.8-20.2c-6.7-7.1-13.2-14.4-19.5-21.8
		c-5.1-6-9.7-12.4-14.8-18.4c-2.1-2.6-2.9-5.3-2.4-8.5c1.1-7.3,4.3-13.5,10-18.9c1.6,1.1,3,2.1,4.3,3.1c2.7,2,5.2,4.2,8.1,6
		c6.6,4.1,13.1,2.2,16.1-4.9c1.7-3.9,3.8-6.7,8.5-6.9c2.3-0.1,3-1.9,2.2-4.2c-0.4-0.9-1-1.8-1.4-2.7c-0.4-0.7-0.7-1.5-0.6-2.9
		c1.6,0.7,3.2,1.5,4.9,2.2c3,1.2,3.7,1,5.3-1.7c2.1-3.7,2.9-4,7-3c0.6,0.1,1.1,0.3,1.7,0.5c3.7,0.8,5.3-0.3,5.5-4
		c0.2-4.2,0-8.4,0.1-12.6c0.1-1.9,0.4-3.8,0.9-5.6c1-4,3.2-7.2,6.8-9.3c3.1-1.8,5.7-4.1,7.2-7.4c0.9-2,2.5-2.7,4.5-3
		c2-0.4,4-0.8,5.9-1.4c10.8-3.4,16.8-11,17.5-22.1c1.5-23.6-7-43-25.6-57.7c-2.7-2.1-4.8-4.4-6.5-7.4c-2.1-3.8-4.5-7.6-7.5-10.6
		c-15.2-14.7-33-22.6-54.6-19.4c-11.8,1.7-22.7,6.1-33,12.1c-12.1,7-22.4,16.1-30.8,27.3c-3.6,4.8-7.1,9.6-10.9,14.2
		c-4.7,5.9-10.6,10.3-17.4,13.7c-4.9,2.4-10,3.9-15.6,3.6c-0.9-0.1-1.9,0.1-2.8,0.5c8.1,4.9,16.7,4.8,25.2,2.3
		c0.4,0.8,0.7,1.1,0.6,1.2c-4.4,10.6-11.2,19-22.2,23.3c-5.7,2.3-10.9,1.4-15.4-2.6c-4.2-3.7-4.6-7.1-1.7-11.9
		c-2.9,0.6-3.7,1.3-4.1,3.7c-0.5,3.1,0.4,6,2.9,7.8c3,2.2,6.5,3.8,9.8,5.5c1.3,0.7,2.8,1.1,4.2,1.6c-0.3,0.8-0.3,1.2-0.4,1.3
		c-9.2,6.5-22.3,1-24-10c-1-6.5,0.8-12.4,4.5-17.7c0.7-1.1,1.6-2.1,2.8-3.7c-1.5,0.5-2.4,0.6-3.2,1c-7,3.5-11.8,9-13.7,16.7
		c-2.6,10.5-3.4,21,1.3,31.2c0.1,0.2,0,0.6,0,0.9c-2.2,1.5-4.8,2.8-6.6,4.7c-1.8,1.8-2.9,4.3-4.4,6.8c-4.4-0.8-6.6-4.2-9-7.4
		c0.8,3.1,1.4,4.8,5.1,7.1c3.8,2.5,4.9,5.7,4.8,10c-0.2,3.8,0.4,7.6,0,11.3c-0.6,6.5-4.7,10.2-11.1,10.8c-11.1,1-19.5-6.4-20.1-17.6
		c-0.4-7.3,1.6-13.8,5.7-20c-0.8,0.4-1.7,0.7-2.4,1.2c-7.6,5.9-12.1,13.8-12.9,23.4c-0.5,5.9,1.6,11.1,5.6,15.6
		c5,5.4,11.4,8.5,18.2,10.8c1.5,0.5,3,1,4.6,1.5c-0.6,2.5-2.6,2.9-4.1,3.1c-4.3,0.6-8.7,1.3-13,1.2c-6.9-0.2-13.5-1.9-19.6-5.4
		c-6.5-3.7-10.5-9.1-11.5-16.6c-0.5-3.7,0.2-7.3,2-10.5c2.9-5.3,7.2-5.9,11.7-1.8c0.3,0.3,0.6,0.6,1,0.9c0.4-3-0.5-5-3.1-6.7
		c-3.8-2.4-7.9-2.3-11.6,0c-2.5,1.6-4.8,3.8-6.6,6.2c-5.2,7.1-7.9,15.2-8.8,23.9c-0.8,8.3,1.9,15.5,7.6,21.5
		c5.6,6,12.5,9.9,19.8,13.3c1.6,0.7,3.1,1.5,5,2.4c-0.5,1.4-0.9,2.6-1.3,3.8c-1.9,6.2-1.2,11.9,3.4,16.6c3.6,3.7,7.9,3.4,12-0.7
		c-0.9-0.7-1.9-1.2-2.7-1.9c-2-1.6-2.3-3.2-0.8-5.3c2.2-3.1,5.4-4.3,9.1-4.1c2.1,0.1,3.5,1.5,4,3.5c0.3,1.5,0.4,3.2,0.2,4.7
		c-2.1,12.6-14.6,21.2-27.1,18.6c-6.6-1.4-12.4-4.1-16.9-9.4c-4.9-5.8-5.4-13.1-1.2-19.4c2.3-3.4,5-6.1,9.9-5.2
		c-2.7-2.4-5-2.7-8.4-1.3c-4.3,1.8-7,5.2-8.5,9.5c-2.6,7.3-3,14.8-2.4,22.4c0.8,9.8,5.5,17.4,13.2,23.1c3.1,2.3,6.6,4.2,10,6.2
		c1.2,0.7,2.4,1.3,3.9,2.1c-4.3,2.7-8.6,4.5-11.7,7.5c-3.2,3-5.2,7.1-7.8,10.8c-0.2-0.2-0.5-0.4-0.5-0.6c-3.9-13-9.6-25.4-11.7-38.8
		c-1.1-6.9-1.4-13.9-1.9-20.8c-0.7-9.7-1.3-19.4-2-29.2c-1-14.7,0.5-29.1,4.2-43.2c4-15.1,9.4-29.7,16.9-43.4
		c0.7-1.3,1.6-2.6,3.3-3.7c0.2,1.2,0.3,2.4,0.5,3.6c0.9,5.2,4.1,8.1,9.5,8.6c5.4,0.6,10-1.1,13.9-4.9c3-3,5.4-6.5,6.9-10.5
		c1.8-4.7,1.2-9.1-1.3-13.4c-2.2-3.8-5.3-6.1-10-5.7c-1,0.1-2,0-3.1,0c-0.4-2.3,1.1-3.4,2-4.8c11.8-16.5,25.9-30.7,42.9-41.9
		c14.5-9.5,29-19,44.9-26c18.2-8.1,37.4-12.9,57-16c12.4-2,24.8-3.5,37.1-5.3c2-0.3,4-0.9,5.9-1.4c-84.1,0-168.3,0-252.4,0
		c0.1,2.3,0.3,4.6,0.3,7c0,89.2,0,178.4,0,267.6c0,35.5,0,72.5,0,108.8c0,1.3-0.1,2.6,0,3.9c0.2,2.8,0.9,3.5,3.8,3.6
		c1.7,0.1,3.5,0,5.2,0c189.6,0,379.2,0,568.9,0c2.6,0,5.2,0.2,7.8,0.3c0-130.4,0-260.9,0-391.3C1071.6,8.7,969.7,8.7,867.8,8.7z
		 M990.8,334.9c0.6,0.1,1.3,0.2,1.9,0.3c-0.1,0.3-0.1,0.6-0.2,0.9c-0.6-0.2-1.2-0.4-1.8-0.6C990.8,335.3,990.8,335.1,990.8,334.9z
		 M876.4,325.7c7.7-5.5,9.7-13.4,10.6-21.9c0.5-5.1-0.8-10.1-2.7-14.9c-0.9-2.4-2.3-3.9-4.9-4.3c-1.3-0.2-2.5-1-3.6-2
		c3.7,0.4,7.4,1,10.2,3.8c0.9,0.9,1.9,1.8,3,2.5c1.5,0.9,2.1,2.3,2.4,3.9c1.6,8.3,6.4,14.5,12.9,19.6c3.8,3,8.1,4.5,13,4.4
		c3.2,0,6.4,0,9.8,0.3c-0.9,0.3-1.8,0.8-2.7,1c-4,0.7-8.7,0.3-7.7,7.5c-2.5-3.1-1.2-8.6-7.1-7.1c-0.6,3.3-4,6-1.3,10.2
		c-0.4,0-0.7,0-1.1,0c-0.7-1-1.4-2-2.1-3c-2.3-3.2-5.3-4.9-9.2-4.9c-10.3-0.1-18.2,4.2-24,12.6c-1.1,1.6-2.1,3.3-3.4,4.7
		C869.5,332.9,872.3,328.6,876.4,325.7z M862.6,275.9c-1.5-1.7-3-3.3-5.1-5.6C860.9,271.7,861.1,271.9,862.6,275.9z M639.7,117
		c1.5-2.5,3-5,5-7.1c5.6-5.9,12.6-4.4,15.3,3.2c0.9,2.4,1.2,5.1,1.8,7.6c-0.1,5.8-3.3,9.5-7.8,12.4c-0.6,0.4-1.6,0.2-2.4,0.2
		c-0.8,0-1.7-0.2-2.5,0c-1.5,0.4-2.8,1.6-4.4,0.1c-1.8-1.7-4.4-2.8-4.9-5.6c-0.1-0.6,0-1.3-0.3-1.7C636.5,123,638,119.9,639.7,117z
		 M835.2,162.8c-0.2,0.1-0.4,0.2-0.6,0.2c-2.6,0.9-4.9-1-5.9-5.8c0.7,0.9,1.3,1.9,2.1,2.7c2.2,2.4,4.2,2.2,5.9-0.6
		c0.1-0.2,0.2-0.3,0.3-0.5c0.6-1.2,0.9-2.6,1.4-3.9c0,0,0,0,0,0c0,0,0,0,0,0C839.5,158,838,161.5,835.2,162.8z M751.6,179.4
		c3.5-5.2,8.4-8.6,14.3-10c4.5-1.1,9.1-1.5,13.8-1.9c7.1-0.5,14.2-0.4,21.3-1c11.9-0.9,21.3-6.3,27.8-16.5c0.6-1,1.4-1.9,2-2.8
		c0.2-0.4,0.3-0.7,0.5-1.1c0.1-0.2,0.2-0.4,0.2-0.6c0.2-0.4,0.3-0.7,0.5-1.1c0.3-0.5,0.6-1,1-1.4c1-1.1,2.5-2.3,3.8-2.3
		c7.9-0.2,15.9-0.5,23.8-2c-0.8,0.4-1.6,1-2.4,1.1c-5.6,0.9-11.1,2.1-16.7,2.5c-1.2,0.1-2.2,0.2-3.1,0.2c-3.6,0.3-4.2,0.9-7,5.2
		c0,0,0,0,0,0c-4.6,9.6-11.8,15.7-21.3,18.6c-1.8,0.5-3.6,1-5.5,1.3c-4.1,0.7-8.4,0.7-12.6,0.9c-6.2,0.3-12.5,0.3-18.7,0.9
		c-8.8,0.8-16.3,4.1-21.5,11.6c-0.2,0.3-0.6,0.5-1.7,1.4C750.9,181,751.1,180.1,751.6,179.4z M758.6,300.4c-0.1,0.2-0.2,0.4-0.3,0.5
		c-0.1-0.1-0.3-0.1-0.3-0.2c0-0.2,0-0.5,0-0.7C758.2,300.1,758.4,300.3,758.6,300.4C758.6,300.4,758.6,300.4,758.6,300.4
		C758.6,300.4,758.6,300.4,758.6,300.4z M757.4,186.9c-1.2,1.2-2.4,2.5-3.6,3.8v0l0,0c-0.8,1-1.6,2-2.4,3.1
		c-0.3-0.2-0.5-0.4-0.8-0.6c0.8-1,1.7-2,2.5-3c0,0,0,0,0,0c2.6-3.8,5.8-7.1,9.5-9.8c0.5-0.4,1.1-0.8,1.6-1.1
		c-0.4,1.6-1.8,2.5-2.9,3.7C760,184.2,758.7,185.6,757.4,186.9z M670.3,258.5c5-2.3,7.3-7.2,10.1-11.5c-0.3,7.5-2.1,14.4-8.4,19.1
		c-5,3.7-11.3,2.9-16.5-1.8C660.6,262.3,665.6,260.7,670.3,258.5z M655.4,338.3c-2,0.4-3.9,1.1-5.9,1.4c-6.7,0.8-11.5-4.5-10.3-11.1
		c1-5.4,5.5-9.6,11.2-9.9c2.1-0.1,4.4,0.1,6.4,0.7c7.7,2.1,13.7,7.2,20.5,12.2c-5.8,7-12.6,9.8-21.2,9.8c0.3-1.4,0.4-2.2,0.6-3
		C656.3,338.3,655.8,338.2,655.4,338.3z M657.3,346.5c7.8-2.7,15-5.2,22.4-7.8c1.4,2.4,1,4.5-0.5,6.1c-1.7,1.7-3.7,3.4-5.9,4.2
		c-4.6,1.7-9.4,1.1-13.9-0.8C658.9,348,658.4,347.5,657.3,346.5z M767.5,391.2c-0.1,1.8-0.5,3.6-0.9,5.9c-7.8-0.4-14.9-1.7-22.4-4.2
		c1-0.7,1.9-1.4,2.9-2c5.4-3.4,6.6-7.7,3.8-13.4c-1.6-3.2-3.9-5.7-7.4-8.1c1.1,2.2,2.1,3.7,2.6,5.4c0.9,2.9-0.3,4.8-3.4,5.3
		c-0.1,0-0.3,0-0.4,0c-8.4,1.2-8.7,1.5-10.1,9.7c-0.1,0.4-0.3,0.8-0.7,1.8c-23.5-2.7-46.1-7.9-65.2-23.1c0.1-0.3,0.1-0.6,0.2-0.9
		c1.1,0.3,2.3,0.5,3.3,0.9c11.8,4.8,24,6.8,36.7,6.1c9.8-0.6,18.9-3.5,26.6-9.7c11.8-9.5,15.6-22,13.4-36.6
		c-0.2-1.4-0.5-2.9-0.8-4.3c-0.3-1.4-0.6-2.8-0.3-4.6c0.6,0.7,1.3,1.2,1.7,2c4.6,9.1,9.1,18.2,13.6,27.4c4.4,8.9,6.2,18.4,6.8,28.2
		C767.8,381.6,767.6,386.4,767.5,391.2z M821,385.1c-3.5-5.7-7.1-11.3-10.5-17.1c-7.8-13.3-17-25.6-27.4-37.1
		c-0.7-0.7-1.3-1.5-2-2.2c-4.5-5.2-8.8-10.5-13.3-15.7c-1.4-1.8-2.8-3.6-4.3-5.3l0,0c-0.8-0.9-1.7-1.8-2.5-2.7
		c0.2-0.2,0.5-0.4,0.7-0.6c0.8,1,1.5,2,2.3,2.9c0,0,0,0,0,0c1.5,1.7,3,3.4,4.5,5.2c0,0,0,0,0,0c16.5,16.2,39,45.8,49.8,64.7
		c0.4,0.7,0.8,1.4,1.2,2.1c0.4,0.7,0.7,1.4,1.1,2c1.4,2.6,2.4,5,3.1,6.9C822.4,386.7,821.6,386,821,385.1z"/>
	<path fill="#C49A6C" d="M975.6,97.8c1.9,8.1,5.2,15.4,11.6,20.9c-0.7-1.1-1.4-2.2-2-3.4c-5.1-9.8-6.7-20-3.5-30.8
		c0.6-1.9,1.1-4.1,3.4-4.7c2.3-0.6,3-2.3,4-4.1c1.9-3.4,4.3-6.5,6.6-9.6c1-1.3,2.5-2.1,4.3-1.2c2.3,1.2,3.8,0.2,5.3-1.4
		c1.6-1.8,3.1-3.9,6-4.1c1.7,1.2,2.5,3.9,5.7,2.5c5.3-2.4,9.2-0.8,11.8,4.4c1,2,2.4,2.5,4.4,3c2.7,0.5,5.4,1.3,7.7,2.6
		c3.3,1.9,5.6,4.6,4.9,8.9c-0.4,2.4,1.1,3.8,3.1,4.7c3.7,1.7,4.8,4.8,4.7,8.6c-0.1,5.2-1.7,10-4.8,14.3
		c-6.4,8.9-14.7,15.7-24.7,20.2c-2.2,1-4.7,1.7-7.1,2.1c-11.3,2.1-22.3,0.7-33-3.4c-1-0.4-1.9-0.7-2.9-1c4,4.4,8.8,7.3,14.2,9.4
		c9.5,3.7,19.5,4.9,29.6,3.8c13.5-1.4,23.5-8.3,29.2-20.7c2-4.5,3.4-9.3,4.6-14c2.6-10.3,0.1-19.5-6-28.1
		c-8.5-12.1-21.1-17.8-34.6-22.1c-1.4-0.4-2.9-0.7-4.3-0.7C985.2,52.5,971.5,79.8,975.6,97.8z"/>
	<path fill="#C49A6C" d="M1041.3,327.6c-0.3-2.2-0.6-4.3-0.9-6.5c-0.1-0.7,0-1.5,0-2.2c0-0.7-0.1-1.4-0.2-2.1
		c-2.2,5.8-2.9,11.7-2.5,17.7c1,16.5,14.3,27,30.5,24.4c8.4-1.4,15.2-5.7,21.3-11.2c19.2-17.6,32.4-39.1,40.1-63.8
		c2.6-8.4,4.5-17.1,6.8-25.7c-0.2-0.1-0.4-0.2-0.7-0.4c-1.7,3.3-3.3,6.7-5.2,10c-11.1,19.6-22.1,39.3-33.4,58.7
		c-2.8,4.8-7,8.9-10.6,13.2c-1.2,1.4-3,2.7-5,1.9c-2.5-0.9-3.7,0.3-5.1,2c-3,3.5-3.7,3.4-6.3-0.5c-0.1-0.2-0.5-0.2-1-0.4
		c-0.7,0.8-1.4,1.7-2.1,2.6c-3.4,4.4-5.8,4.4-9.2-0.2c-1.1-1.5-2.1-3-3.3-4.6c-1.4,0.4-2.7,0.7-4,1.1c-3.3-3.4-4.2-8-6.2-12.1
		C1042.8,329.8,1041.5,329.5,1041.3,327.6z"/>
	<path fill="#C49A6C" d="M1108.1,210.9c6,2.5,11.4,5.9,13.4,12.7c0.2,0.6,0.8,1.3,1.4,1.6c2.8,1.6,4.7,4.2,4.3,7.1
		c-0.4,2.9,0.6,6.1-1.3,8.8c-1.4,1.9-1.4,4.8-4.4,5.5c-0.4,0.1-0.8,0.9-0.8,1.4c-0.1,3.4-2.5,4.2-5,4.3c-3,0.1-6.1-0.2-9.1-0.7
		c-1.3-0.2-2.4-1.3-3.9-2.3c1.4-2,2.4-3.3,3.2-4.6c2-3.8,0.6-8-3.2-10c-3.5-1.9-6.8-0.6-8.9,3.5c-4,7.6-1.2,15.1,6.9,18.1
		c7.4,2.8,14.8,2.4,22-0.9c5-2.4,8.3-6.2,10-11.5c3.6-11.5-0.1-23-10.1-30.1c-11.2-7.9-23.6-10-37-7.5c-5.8,1.1-8.3,2.2-11.3,4.5
		c2-0.6,3.9-1.2,5.9-1.7C1089.8,206.5,1099.1,207.2,1108.1,210.9z"/>
	<path fill="#C49A6C" d="M1026.7,115.9c4.7-0.3,9.2-3.2,11.9-8.5c1.6-3,1.1-6-0.8-8.6c-3.1-4.2-7.2-7.2-12.5-8
		c-4.5-0.7-8.7,0.5-12.1,3.6c-3.3,3.1-4.2,6.8-2.6,11.1C1012.6,111.1,1019.3,115.8,1026.7,115.9z"/>
	<path fill="#C49A6C" d="M1064.4,318.3c3.4,2.6,7.2,4.3,11.5,5c5,0.9,9.6-0.2,13.4-3.6c1.6-1.4,3.1-3,4.5-4.7
		c8.1-9.7,13-21.2,19-32.3c-0.4,0.5-0.9,0.9-1.3,1.4c-5,6.4-9.9,12.9-15,19.3c-2.4,3-5.1,6-7.9,8.6c-2.7,2.5-6.2,3.8-10,3.7
		c-3.7-0.1-4.7-1.5-4.3-5.3c0.3-2,0.5-4.1,0.2-6c-0.3-2.7-2-4.5-4.5-5.3c-2.5-0.8-4.6,0.1-6.4,1.8
		C1058.6,305.9,1058.9,314.1,1064.4,318.3z"/>
	<path fill="#C49A6C" d="M926.9,48.5c0.5-7,4.2-11.6,10.8-13.7c5.6-1.8,11.2-1.7,16.6,0.8c2.8,1.3,5.5,2.7,8.1,4.2
		c7.4,4.1,15.2,4.6,23.2,2.8c2.3-0.5,4.5-1.4,6.8-2.1c-0.6-0.7-1-0.9-1.4-0.9c-7.1,0.2-13.8-1.8-20.2-4.7c-2.1-1-4.2-2-6.3-3
		c-10.7-4.8-21-3-31,2c-1.8,0.9-3.3,2.3-4.7,3.8c-3.9,4-4.9,8.7-1.9,13.8C926.9,50.6,926.8,49.5,926.9,48.5z"/>
	<path fill="#C49A6C" d="M969.6,61.5c-1.5,3-3.4,5.8-5.4,8.4c-3.4,4.5-8,7.6-13.6,8.9c-0.7,0.2-1.3,0.4-2.3,0.6
		c6.8,2.9,14.5,1.1,19.2-4.4c1.9-2.2,3.5-4.7,4.9-7.2c5.3-9.2,13.1-15.4,22.7-19.5c2.5-1,5-2,7.5-2.9c-3.9-0.4-7.6-0.2-11.3,0.5
		C981.8,47.8,974.2,52.5,969.6,61.5z"/>
	<path fill="#C49A6C" d="M752.3,45.3c-5.6-4.9-12.1-6.1-19.1-3.8c-13.3,4.2-24.7,12-35.8,20.2c1.7-0.4,3.1-1.2,4.6-1.9
		c8.3-3.9,16.5-7.9,24.9-11.6c4.3-1.9,8.9-2.6,13.6-2.3c7.9,0.6,16.5,8.8,11.7,19.3c-0.4,0.9-0.8,1.8-1.2,2.7
		c0.2,0.1,0.4,0.2,0.6,0.3c1.1-1.5,2.4-2.9,3.4-4.5C759.1,57.1,758.1,50.5,752.3,45.3z"/>
	<path fill="#C49A6C" d="M1079.6,267.7c13.1,6.7,32.4,6.7,45.6-5.6c0.7-0.6,1.2-1.4,1.9-2.2c-0.5-0.2-0.6-0.3-0.7-0.2
		c-0.7,0.3-1.3,0.5-2,0.9c-9.1,4.9-18.8,6.8-29.1,6.1c-8.9-0.6-17.2-3.1-23.5-9.9c-1.5-1.6-2.7-3.4-4.4-5.6c0.1,1.3,0.1,1.8,0.3,2.3
		C1069.7,259.7,1073.6,264.6,1079.6,267.7z"/>
	<path fill="#C49A6C" d="M1137.7,208.3c3.4,8.1,4.8,16.4,2.4,25.1c-0.2,0.7,0,1.5,0,2.2c0.9-0.7,1.3-1.4,1.6-2.2
		c4-9.9,4.2-19.8-0.6-29.5c-4-7.9-6.6-16.1-5-25.2c-3.9,6.6-4.7,13.6-2.1,20.8C1135.1,202.5,1136.5,205.4,1137.7,208.3z"/>
	<path fill="#C49A6C" d="M734.7,56.1c-2.9-2.4-6.2-2.9-9.8-2.2c-6.9,1.3-13.1,4.5-19,8.2c0.4-0.1,0.8-0.2,1.3-0.3
		c3.2-1.1,6.3-2.3,9.5-3.2c2.9-0.8,5.9-1.6,8.9-2c2.5-0.3,4.9,0.3,6,3.2c-0.6,0.7-1.1,1.4-1.6,2.1c-1.8,2.5-1.9,4.4-0.5,5.9
		c1.3,1.4,4.4,1.6,6.5,0.3c1.6-1,2.4-2.4,2.5-4.3C738.4,60.6,737.1,58.1,734.7,56.1z"/>
	<path fill="#C49A6C" d="M935.3,45.3c-2.1,1.3-3.3,3.3-2.5,5.5c0.4,1.1,1.4,2.3,2.4,2.8c1.4,0.7,2.4-0.3,3.1-1.6
		c0.5-0.9,0.9-1.8,1.5-2.9c2.8,0.3,3.6,1.9,3.4,4c-0.2,2.2-1.6,3.7-3.4,4.7c-1.1,0.6-2.3,1.1-3.5,1.7c0.9,0.5,1.6,0.6,2.3,0.5
		c3.2-0.5,5.4-2.3,6.2-5.3c1-3.3,0.2-6.4-2.3-8.8C940.5,43.9,937.8,43.8,935.3,45.3z"/>
	<path fill="#C49A6C" d="M661.7,96.2c6-1.8,11.6-2.3,17.1,1c5.4,3.3,7.5,8.9,10,14.3c0.3-0.1,0.6-0.2,0.8-0.3
		c-1-3.2-1.8-6.6-3.1-9.7C681.7,89.4,669,90.1,661.7,96.2z"/>
	<path fill="#C49A6C" d="M687.5,76c-5-1.3-11.4,1.3-14.3,5.9c13-7.1,20.1-2.2,20.9,9.6C697.1,84.1,694.1,77.8,687.5,76z"/>
	<path fill="#C49A6C" d="M1002.8,78.2c1.6-0.1,2.8-1.5,2.8-3.2c0-1.7-1.3-3-2.9-3.1c-1.7-0.1-3.3,1.5-3.3,3.2
		C999.4,76.9,1001,78.4,1002.8,78.2z"/>
	<path fill="#C49A6C" d="M1115.3,196.9c0.8-0.2,1.8-1.4,1.7-2c0-0.9-1-1.7-2.1-3.3c-1,1.7-1.9,2.6-2,3.5
		C1112.9,196.4,1114,197.3,1115.3,196.9z"/>
	<path fill="#C49A6C" d="M773.7,43.2c0,0.6,0.9,1.7,1.4,1.7c0.8,0,1.5-0.8,3-1.6c-1.4-0.9-2.2-1.7-3-1.7
		C774.6,41.5,773.7,42.6,773.7,43.2z"/>
	<path fill="#C49A6C" d="M1119.8,171.4c0.6,0,1.1-0.9,2-1.7c-1-0.6-1.7-1.4-2.3-1.3c-0.6,0.1-1.4,1.1-1.4,1.7
		C1118.2,170.6,1119.2,171.4,1119.8,171.4z"/>
	<path fill="#C49A6C" d="M1116.2,240.4c0.4,0.1,1.1-0.5,2-0.9c-0.8-0.7-1.3-1.3-1.8-1.4c-0.3-0.1-1.2,0.6-1.1,0.8
		C1115.4,239.4,1115.8,240.2,1116.2,240.4z"/>
	<path fill="#C49A6C" d="M1061.6,333.5c-0.1,0-0.1-0.1-0.2-0.1c-0.1,0-0.1-0.1-0.2-0.1c-0.1,0.2-0.3,0.4-0.5,0.5
		c-0.3,0.3-0.5,0.6-0.6,1c-0.1,0.3,0.6,0.8,1.2,1.5c0.5-0.9,1-1.5,1-2c0-0.2-0.2-0.3-0.4-0.5
		C1061.9,333.7,1061.7,333.6,1061.6,333.5z"/>
	<path fill="#C49A6C" d="M1061.4,333.4c-0.1,0-0.1-0.1-0.2-0.1c-0.1,0.2-0.3,0.4-0.5,0.5c0.2-0.2,0.3-0.4,0.5-0.5
		C1061.3,333.3,1061.4,333.4,1061.4,333.4z"/>
	<path fill="#C49A6C" d="M1061.6,333.5c0.1,0.1,0.3,0.2,0.4,0.3C1061.9,333.7,1061.7,333.6,1061.6,333.5z"/>
	<path fill="#C49A6C" d="M1093.2,293.4c0.4-0.2,1-0.6,1.1-1c0-0.4-0.5-0.8-1.1-1.6c-0.4,0.9-0.7,1.3-0.7,1.8
		C1092.4,292.9,1093,293.5,1093.2,293.4z"/>
	<path fill="#C49A6C" d="M1040.7,146.5c-0.1-0.4-0.8-0.6-1.2-0.9c-0.3,0.4-0.8,0.8-0.8,1.3c-0.1,0.5,0.3,1.1,0.4,1.7
		c0.4-0.2,0.7-0.5,1.1-0.7C1040.4,147.4,1040.8,146.9,1040.7,146.5z"/>
	<path fill="#C49A6C" d="M918.5,33.3c0.4,0.1,0.8-0.5,1.6-0.9c-0.8-0.5-1.2-0.9-1.7-1c-0.2,0-0.9,0.6-0.8,0.7
		C917.7,32.5,918.1,33.2,918.5,33.3z"/>
	<path fill="#C49A6C" d="M672.7,156.1c-0.3,0.1-0.6,0.6-0.5,0.9c0.1,0.3,0.6,0.6,0.8,0.6c0.3,0,0.4-0.5,0.8-0.9
		C673.3,156.3,672.9,156,672.7,156.1z"/>
	<path fill="#C49A6C" d="M1070,282.4c-0.1,0-0.6,0.4-0.6,0.5c0.1,0.3,0.4,0.6,0.6,1c0.2-0.1,0.3-0.3,0.4-0.4
		c0.1-0.1,0.2-0.2,0.3-0.3c-0.1-0.1-0.1-0.1-0.2-0.2C1070.4,282.8,1070.3,282.6,1070,282.4z"/>
	<path fill="#C49A6C" d="M1070.6,283c0.1,0.1,0.1,0.1,0.2,0.2h0C1070.7,283.1,1070.7,283,1070.6,283z"/>
	<path fill="#C49A6C" d="M1093.8,166.4c-0.1-0.2-0.2-0.4-0.4-0.6c0,0-0.3,0-0.4,0.1c0,0.1,0,0.2,0,0.4c0,0.1,0,0.2,0,0.4
		C1093.3,166.5,1093.5,166.5,1093.8,166.4z"/>
	<path fill="#C49A6C" d="M1093.1,166.6c0.2-0.1,0.5-0.1,0.7-0.2c0,0,0,0,0,0C1093.5,166.5,1093.3,166.5,1093.1,166.6L1093.1,166.6z"
		/>
	<path fill="#C49A6C" d="M1113.8,152.6C1113.8,152.6,1113.8,152.6,1113.8,152.6c0.2-0.1,0.3-0.4,0.4-0.5c-0.2-0.1-0.4-0.2-0.6-0.4
		c-0.1,0.2-0.2,0.4-0.3,0.6c0,0,0.1,0.1,0.2,0.1C1113.5,152.5,1113.7,152.6,1113.8,152.6z"/>
	<path fill="#C49A6C" d="M1113.8,152.6c0.1-0.1,0.2-0.4,0.3-0.5c0,0,0,0,0,0C1114,152.2,1114,152.5,1113.8,152.6z"/>
	<path fill="#C49A6C" d="M1113.4,152.4c-0.1,0-0.1-0.1-0.2-0.1v0C1113.3,152.3,1113.3,152.4,1113.4,152.4z"/>
	<path fill="#C49A6C" d="M716.2,65.4c0,0-0.2,0.2-0.2,0.3c0.1,0.2,0.3,0.3,0.4,0.5c0.1-0.2,0.2-0.4,0.4-0.5
		C716.6,65.6,716.4,65.5,716.2,65.4z"/>
	<path fill="#C49A6C" d="M716.5,66.2c0.1-0.2,0.2-0.4,0.4-0.5c0,0,0,0,0,0C716.7,65.8,716.6,66,716.5,66.2z"/>
	<path fill="#C49A6C" d="M649.8,121.3c0.3,0,0.6-0.3,1.1-0.6c-0.4-0.4-0.7-0.8-1-0.8c-0.2,0-0.4,0.2-0.7,0.4
		c-0.1,0.1-0.1,0.1-0.2,0.2c0.1,0.1,0.1,0.1,0.2,0.2C649.5,121,649.6,121.2,649.8,121.3z"/>
	<path fill="#C49A6C" d="M649.3,120.7c-0.1-0.1-0.1-0.2-0.2-0.2l0,0C649.2,120.6,649.2,120.6,649.3,120.7z"/>
</g>
</svg>
