<?xml version="1.0" encoding="utf-8"?>
<!-- Generator: Adobe Illustrator 27.3.1, SVG Export Plug-In . SVG Version: 6.00 Build 0)  -->
<svg version="1.1" id="Layer_1" xmlns="http://www.w3.org/2000/svg" xmlns:xlink="http://www.w3.org/1999/xlink" x="0px" y="0px"
	 viewBox="0 0 1200 800" enable-background="new 0 0 1200 800" xml:space="preserve">
<g>
	<path fill="#C49A6C" d="M1023,260c0.1,0.1,0.1,0.2,0.2,0.3C1023.1,260.2,1023.1,260.1,1023,260z"/>
	<path fill="#C49A6C" d="M772.5,277.6L772.5,277.6c-0.2,0.2-0.3,0.4-0.5,0.5C772.2,278,772.4,277.8,772.5,277.6L772.5,277.6z"/>
	<path fill="#C49A6C" d="M1023.7,261.1c0.5,0.7,0.9,1.4,1.5,2.1C1024.6,262.5,1024.1,261.8,1023.7,261.1z"/>
	<path fill="#C49A6C" d="M1021.3,237.8c-0.2,1.4-0.4,2.8-0.6,4.2l0,0C1021,240.6,1021.2,239.2,1021.3,237.8z"/>
	<path fill="#C49A6C" d="M1038.6,202c-10.5-4.1-18.9-11.1-27.7-17.5c-5-3.6-7.5-8.7-9.1-14.4c-0.8-3-0.6-6.2,0.9-9
		c0.4-0.7,1.2-1.2,1.7-1.8c0.3,0.1,0.5,0.2,0.8,0.3c-0.3,2.1-0.5,4.3-0.8,6.4c1.5-2.1,2.8-4.3,3.5-6.7c2.7-9.5,3.2-19.2,0.4-28.7
		c-4.6-15.5-14.1-27-29.4-33.3c-5.2-2.1-10.3-4.3-14.1-8.6c-1.7-1.9-6.9-2.5-8.9-1.5c-3.4,1.8-3.6,1.7-5.6-1.4
		c-2.6-4.2-4.3-4.8-8.6-3c-4.5,1.9-4.9,1.8-6.2-3.1c-0.1-0.4-0.2-0.8-0.3-1.2c-2.6-9.9-8.7-16.6-18.3-20
		c-7.1-2.5-13.5-5.9-19.5-10.3c-4.4-3.2-9.2-5.5-14.5-7c-9.3-2.6-18.4-1.7-27.4,1.3c-8.7,2.9-17.3,5.7-26.4,7.1
		c-6,1-11.1,4.1-15.3,8.5c-3.2,3.3-5,7.3-5.5,12.1c-3.9-1.1-6.1,0.8-8.2,3.4c-3.4,4.5-7,8.8-10.5,13.3c-1.2,1.6-2.4,3.3-3.3,5.1
		c-1.5,2.9-2.1,6-1.2,9.4c0.9,3.6,2.6,6.8,4.8,9.7c1.1,1.4,1.9,2.9,1.7,4.8c-0.6,9.2,1.9,17.8,4.8,26.4c1.1,3.3,2.7,6.1,5.8,7.9
		c3,1.7,4.2,4.4,4.2,7.7c-0.1,4.8,0,9.7-0.1,14.5c0,1.5-0.4,2.9-0.7,4.4c-1.3,5.1,0.5,7.7,5.8,8c1.2,0.1,2.4-0.1,3.6,0
		c2.8,0.3,4,1.9,3.7,4.6c-0.4,3.6,0.7,4.9,4.3,5c1.3,0,2.5,0,3.9,0c-0.2,1.4-0.4,2.6-0.6,3.8c-0.2,1.9,0.6,3.4,2.6,3.3
		c4.9-0.1,6.9,2.9,8,7c1.1,4,4.1,5.8,8.1,6.2c3.8,0.4,7.2-0.9,10.3-2.9c4.3-2.7,8.5-5.8,12.7-8.5c3.8-2.5,6.5-2.1,9,1.6
		c2.1,3.1,4.1,6.4,5.6,9.8c2.6,5.9,1.4,11.3-3.1,16c-0.6,0.6-1.1,1.3-2.1,2.4c2.2,0.2,3.7,0.4,5.5,0.6c-0.3,0.6-0.5,1.1-0.9,1.4
		c-3.2,3.3-7,5.5-11.7,5.7c-3.9,0.2-6.5,2.2-8,5.8c-0.7,1.7-1.4,3.5-2.2,5.2c-2.1,4.6-4.8,8.7-9,11.7c-0.5,0.4-1.2,0.6-1.8,0.8
		c3.1-5.3,6.4-10.2,9-15.4c4.3-8.7,10.9-15.7,17.3-22.8c0.3-0.4,0.8-0.6,1.8-1.2c-0.6,2.3-2.4,3.8-1.6,6.2c3.4-1.6,5-4.5,6.3-7.5
		c-0.8-2-2.4-2.1-3.7-1.2c-2.4,1.5-4.7,3.1-6.7,5.1c-5.4,5.4-10.6,11.1-16,16.6c-3.4,3.5-6.5,7.3-10.2,10.3
		c-8.7,7-16.2,15-23.6,23.1c-1.5,1.6-3.1,3.2-4.6,4.8c-0.5-1.6-0.3-2.7-0.2-3.9c0.4-3.2,0.9-6.4,1.2-9.6c0.2-2.4-0.6-4.6-2.5-6.1
		c-3.7-2.9-6.5-7.4-12.3-6.5c-1.1,0.2-2.6-0.9-3.4-0.4c-1.9,1.1-3.5,1.4-5.6,0.6c-2-0.7-3.3,1-2.6,3.1c0.3,0.7,0.8,1.4,1.3,2
		c1.1,1.2,1,2.6,0.8,4.1c-0.5,3.2-0.8,6.4-1.2,9.6c-0.1,0.6,0,1.5-0.4,1.9c-2.2,1.9-3.9,4.3-6.6,5.3c0-4.7,0.8-9.4-0.2-13.7
		c-1-4.3-3.7-8.1-5.6-12c-3.2,0-3.3,2.4-4,4.4c-4.5-0.6-8.2,1.1-11.4,4.1c-2.6,2.5-2.6,3.9,0.2,6.2c2.6,2.1,5.2,4.3,7.8,6.4v0l0,0
		l0,0c0,0,0,0,0,0c1.9,1.7,3.8,3.4,5.7,5.1c1.9,1.7,3.8,3.4,5.6,5c-1.9,3.5-4.3,3.7-6,0.9c-0.3-0.5-0.5-1-0.6-1.5
		c-0.8-3.5-2.7-6.4-5.1-9c-0.1-0.1-0.3-0.1-0.4-0.2c-11.6-8.2-22.8-17-37.4-21.9c1.6,0,2.4,0,3.2,0c3-0.1,6,0.1,8.9-0.3
		c4.8-0.7,8.4-2.9,9-8.3c0.2-2,1.2-3.7,3-4.6c3.1-1.6,3.9-3.9,2.6-6.5c1.4-1.6,3.3-2.7,3.4-4.1c0.2-1.4-1.4-3-2.3-4.7
		c0.7-0.8,1.3-1.7,2-2.4c3.4-3.6,3.5-5-0.6-7.5c-3.1-2-3.9-4.7-3.3-7.9c0.4-2.1,1.2-4.1,2-6.1c2.5-6.3,3.6-12.8,1.6-19.3
		c-1.2-3.9-3.2-7.6-5-11.4c-1.1-2.4-3.1-4.4-2.8-7.2c0.3-0.3,0.5-0.5,0.8-0.6c0.4-0.2,0.8-0.3,1.1-0.4c3.2-1.7,3.4-3.5,0.6-5.8
		c-0.3-0.3-0.6-0.5-1-0.7c-3.8-2-6.1-5.1-7.4-9.2c-0.8-2.7-2.2-5-5.5-4.4c-0.4-0.9-0.6-1.5-0.9-2.1c-1.3-2.2-2.4-2.5-3.9-0.6
		c-1.2,1.4-2,3.2-3,4.8c-0.5,0.8-1,1.5-1.6,2.2c-1.1,1.1-2.3,2-3.8,3.3c-6.3-1-13.1-1.7-19.8-3.1c-10.8-2.3-20.8-0.9-30.9,3.9
		c-11.5,5.5-19.7,13.7-25.3,25c-2.1,4.2-4,8.3-3.8,13c0.2,5.5,0.2,11.1,1.2,16.4c2.3,12.1,6.9,23.2,16.6,31.5c2.5,2.2,4.1,4.9,5,8.2
		c0.2,0.9,0.2,1.9,0.3,3.5c-3.1-1.6-5.5-3.1-8-4.2c-1.8-0.8-4-1.8-5.7-1.4c-5,1.2-10.2,2.9-13.2,7.2c-5,7.1-8.4,15-7.9,24.1
		c0.1,2.1,0.7,4.3-1.3,6c-0.4,0.4-0.2,1.5-0.2,2.3c0,0.8,0,1.5,0,2.3c-0.3,3.6-0.8,7.2-0.9,10.8c0,3.2,1.9,4.5,5.1,4
		c1.7-0.3,3.4-0.6,5.5-1.1c0.1,1.6,0.2,2.9,0.4,4.2c0.4,2.5,0.5,5.1,1.3,7.5c2.4,6.9,3.9,14,4.6,21.2c1.5,13.8,7,25.6,16.8,35.4
		c1.3,1.3,2.7,2.7,3.9,4.1c5.9,7.3,11.9,14.6,17.6,22.1c1.8,2.4,3.7,3.3,6.7,3.3c81.7-0.1,163.5-0.1,245.2-0.1c1.4,0,2.9,0,4.3,0
		c0.5-1.1,0.9-1.8,1.2-2.5c9.9-23,18.2-46.6,29-69.2c6.6-13.8,8.6-28.8,7.9-44.1c-0.2-4.3-0.2-8.6-0.4-12.9
		c-0.2-5.2-0.4-10.5-0.7-15.7c-0.2-2.6-0.5-5.1-0.8-7.6c2.5,3.4,3.1,7.2,3.1,11.1c0,12.1,0,24.2-0.1,36.3c0,3.2-0.4,6.4-0.6,9.7
		c-0.1,2.7,0.9,4.9,3,6.7c3.4,2.9,6.9,5.5,11.1,7.3c6.7,2.7,8.8,7.7,6.4,14.6c-0.8,2.5-0.9,5.1-0.5,7.8c1-1.5,1.7-3,2.1-4.6
		c0.5-2.1,0.7-4.2,1.1-6.4c1.4-8.8-1-16.1-8-21.9c-6.6-5.5-9.4-12.8-8.8-21.2c0.6-8.4,0.4-16.7-0.3-25c-1.1-12.4-5-23.6-13.5-33
		c-2.5-2.8-5.2-5.4-7.8-8.1c-0.7-0.7-1.3-1.5-1.9-2.2c3.1,1.8,5.8,4.1,8.6,6c5.8,3.8,9.4,9.2,11.6,15.6c3.2,9.1,4.8,18.5,5,28.1
		c0.1,3.9,0.1,7.8,0.1,11.7c0,4.3,1.5,7.7,4.5,10.8c5.6,5.9,11.9,10,20.1,10.9c0.7,0.1,1.3,0.3,2,0.5c6.9,1.4,10.7,5.9,12,12.5
		c0.6,2.7,0.7,5.6,1.1,8.7c1.3-4.6,1.3-9,0.9-13.4c-0.8-7-4.6-11.9-11.1-14.6c-1.7-0.7-3.5-1.3-5.3-2.1c-2.8-1.2-5.6-2.5-8.4-3.9
		c-0.7-0.4-1.2-1.1-1.8-1.7c2.5,0.2,4.6,1,6.7,1.7c3.4,1,3.6,1,6.4,0.3c-6.5-2.6-12-6.3-16.8-11.1c-6.5-6.6-7.9-17.8-3.2-25.8
		c1.4-2.3,2.9-4.6,4-7c5.5-11.6,4.9-22.6-2.9-33c-0.7-1-1.4-2-2.2-2.9c-3.6-4.5-5.7-9.7-6.2-15.5c-0.4-4.5-0.4-9,1.8-13.7
		c0.5,1,0.9,1.6,1.1,2.2c1.8,6.3,5.2,11.8,8.9,17.1c1.9,2.8,3.9,5.5,5.5,8.4c4.9,8.5,6.1,17.2,0.7,26c-0.6,1-1.2,2.1-1.6,3.2
		c-2.1,5.2-4.3,10.4-6.3,15.7c-1.4,3.8-1.5,7.9-1.2,12c0.7,7.4,6.4,13.2,13.6,11c1.5-0.5,3.4,0.2,5.1,0.4c1,0.2,2,0.6,2.9,0.9
		c0.1-0.2,0.3-0.5,0.4-0.7c-1.3-0.8-2.5-1.8-3.9-2.3c-1.6-0.5-3.4-0.7-5.1-0.9c-4.6-0.5-6.2-2.2-6.2-6.7c0-1.7,0-3.6,0.5-5.2
		c2-6.3,3.8-12.6,6.5-18.6c3.3-7.5,6.1-14.9,6.4-23.2c0-0.9,0.4-1.8,0.6-2.7c1.6,5.7,0.1,11-0.8,16.5c1.2-3.1,2.3-6.3,2.9-9.5
		c0.6-3.4,1-7,0.8-10.4c-0.2-3.2-1.4-6.3-2.1-9.4c0.2-0.2,0.4-0.3,0.6-0.5c2.9,3.1,5.8,6.3,9.4,10.1c-1.6-5.2-4.5-8.7-7.8-13
		c2.6,0.8,4.2,1.4,5.8,1.8C1035.4,201.8,1037,201.8,1038.6,202z M821.2,56.5c-2.1,1.5-4.1,3.2-6.1,4.9c2.4-5.4,6.7-8.2,12.4-9.1
		C825.3,53.7,823.2,55,821.2,56.5z M761.4,224.5c2,5.8-1.2,11.1-3.5,16.2c-0.3-0.1-0.5-0.2-0.8-0.3c0.4-1.5,0.9-3,1.3-4.6
		c1.9-5.8,1.3-11.4-2.2-16.5c-1.1-1.7-2.4-3.2-3.4-5c-0.4-0.7-0.5-1.6-0.9-3C758.3,214,759.7,219.6,761.4,224.5z M640.3,287.7
		c1.4-1.9,2.4-3.3,3.7-5C645,286.7,644,288,640.3,287.7z M646.7,287.3c-0.8-5.2,0.8-7.9,5.8-9.8
		C650.6,280.8,648.8,283.8,646.7,287.3z M653.6,281.2c-0.4-0.3-0.8-0.6-1.2-0.9c3.4-4.5,4.2-10.7,9-14.4c0.3,0.2,0.5,0.3,0.8,0.5
		C659.3,271.3,656.5,276.3,653.6,281.2z M661.7,321.7c-2.8-6.9,1.3-18,8.5-21.7C667.3,307.3,664.5,314.4,661.7,321.7z M768.9,282.4
		c1.1,1,2.4,1.8,3.3,2.9c1.9,2.4,3.7,4.9,5.5,7.3c1,1.3,0.6,2.2-1.1,3c-2.7-4.4-5.3-8.7-7.9-12.9
		C768.8,282.7,768.8,282.6,768.9,282.4z M744.3,292.7c6.2,0.6,12.3-0.2,18.5-0.9c5.9-0.7,10.3,2.8,12.8,10.1
		c-4.4,1.5-8.4,3.7-13,2.1c-4.6-1.6-8.7-0.4-12.5,2.3c-2.2,1.5-4.2,3.3-6.5,5.2c-1.1-2.3-0.1-4,1-5.6c2.9-4.3,9.9-6.7,15-5.7
		c3,0.6,6.1,0.8,9.1,1c1.4,0.1,3.4-0.2,3.5-2c0-1.2-1.2-2.6-2.2-3.5c-2.4-2-5.4-2.2-7.9-0.6c-5.3,3.3-10.7,2.7-16.3,1.2
		c-2.4-0.6-5-0.5-7.8-0.7C739.2,293.3,741.7,292.4,744.3,292.7z M769.2,346.3c-8.7,1.6-16.5,1.7-24.1-1.5c-4.3-1.8-8.7-3.6-13.1-5
		c-2.1-0.6-4.5-0.1-6.7,0c-5.4,0.4-10.7,0.9-16,1.3c-0.6,0-1.2-0.2-1.8-0.3c5.9-2.2,11.9-3.4,18-3.9c9.3-0.8,18.5-0.1,27.3,3.6
		c4.3,1.8,8.9,2.9,13.4,4.4C766.9,345.2,767.7,345.6,769.2,346.3z M741.4,284.2c-3.5,1-6.6,1.4-9.3,2.7c-2.9,1.3-5.6,3.2-8.1,5.1
		c-2.4,1.8-4.5,4-7.3,6.4C720.6,285.7,729.9,280.3,741.4,284.2z M709.9,272.5c2.8-3.1,8.2-4.2,14-2.6
		C719.1,272.4,714.6,272.8,709.9,272.5z M715.5,290.9c-2.7,3.8-4.9,7-7.3,10.4c-0.8-2.9-0.8-3.2,0.8-5.3
		C710.5,294,711.7,291.6,715.5,290.9z M681.2,269.1c1.1-2.6,3.3-4.3,5.8-5.3c9.8-4.1,19.8-7.7,30.6-7.3c0.2,0,0.4,0.3,1.2,0.8
		c-4.5,0.7-7.6,4.3-12.4,2.7c-1.2-0.4-3.1,0.6-4.5,1.4c-2.7,1.5-5.3,3.2-7.9,4.8c-3.9,2.4-8,4.3-13,5.2
		C681.1,270.5,681,269.7,681.2,269.1z M678.7,337.8c1-1,2.3-1.8,3.6-2.5c3.6-2.1,7.3-3.9,10.8-6.2c5-3.2,10.2-5.3,16.3-4.4
		c0.5,0.1,1,0.2,2.4,0.5c-4.5,0.9-8.1,1.6-11.7,2.3c0,0.3-0.1,0.5-0.1,0.8c2.2,0.9,4.4,1.9,7.3,3.2c-2.7,0.9-4.6,1.6-6.5,2.3
		c-3,1.1-5.5,2.9-6.6,6c-0.4,1.3-1.2,2-2.6,2c-3.8,0.1-7.5,0.2-11.3,0.2c-0.9,0-2.3-0.6-2.5-1.3
		C677.6,339.9,678.1,338.5,678.7,337.8z M673.6,269.7c0.6-0.7,1.3-1.5,2-2.2c0.2,0.3,0.5,0.6,0.5,0.7
		C675.7,269.3,674.9,269.8,673.6,269.7z M677.5,349.1c7.2,4.2,15.8,6,21,13C691.3,358.2,683,355.9,677.5,349.1z M710.5,356.8
		c-6.4-2-12.9-3.7-19.6-4.5c-2.7-0.3-5.2-2-7.7-3.3c-0.8-0.5-1.3-2-1.3-3c0-0.5,1.6-1.3,2.5-1.3c1.4,0,3.2,0,4.2,0.8
		c5.2,3.9,11.4,4,17.4,4.1c5.6,0.1,11.3-0.6,16.9-1c1.6-0.1,3.2-0.1,5.2-0.2c-1.8,2.8-2.9,5.4-4.8,7.1c-1.6,1.4-4,2.2-6.2,2.4
		C715.1,358,712.7,357.4,710.5,356.8z M768.2,364.2c-5.5,2.6-11.3,3.3-17.3,2.3c-4.1-0.7-7.9-0.6-11.7,1.5c-3.1,1.7-6.4,1.4-9.8,0.6
		c-4.5-1-7.9-3.6-11.5-7.1c3.8,0.4,6.9,0.7,10.1,0.9c2.1,0.2,3.9-0.5,5.5-1.9c4.1-3.6,8.9-4.6,14.3-3.8c4.2,0.6,8.5,0.9,13.1,1.4
		c-1.2,1.4-2.3,2.8-3.6,4.4c4.9,2.7,9-1.6,14.3-0.7C769.9,363,769.1,363.8,768.2,364.2z M785.7,310.2c-4.5-3-9.2-3.1-14.9-0.4
		c1.9-4.1,4.7-4.8,7.7-4.5c3.7,0.4,7.3,1,10,5.1C787,310.3,786.2,310.5,785.7,310.2z M829.9,285.1c-0.2-0.2-0.5-0.4-0.7-0.6
		c0.4-0.7,0.8-1.5,1.3-2.1c4.2-5,9.3-8.9,14.8-12.3c7.3-4.6,14.7-8.9,22.1-13.3c1.2-0.7,2.5-1.1,3.8-1.7c0.1,0.3,0.3,0.6,0.4,0.8
		C857.7,265.6,843.8,275.3,829.9,285.1z M946.3,193.6c-7.5-8.4-13.5-20.3-15.4-28.8c2.9-0.8,5.8-1.2,8.2-2.3c7-3.3,9.8-9.4,9.8-16.8
		c0-5.1-0.6-10.2-1-15.3c-0.1-1.6-0.4-3.1-0.6-5.3c3.9,1.6,7,1.2,9.7-2c4.7,4.9,7.2,10.3,7.8,16.7c0.4,4.6-1,8.7-2.9,12.8
		c-2,4.3-3.9,8.6-5.4,13c-2.7,8.2-2.2,16.5,1.5,24.4c2.7,5.7,5.3,11.4,6.1,17.8c0.2,1.6,1.2,3.2,2,5.1c-0.5-0.2-0.9-0.1-1.1-0.3
		C958.7,206.3,952.2,200.2,946.3,193.6z M971.6,227.6c-4.9-2.6-9.5-5-14.8-7.8C962.4,220.3,967.9,223.3,971.6,227.6z M1000,231.4
		c0.4-4.1,1.2-8.2,1.9-12.8c4.3,6,4,16.3-0.7,25.4C1000,239.7,999.6,235.6,1000,231.4z M1007.5,140c-0.8-0.8-1.1-1-1.6-1.5
		c-0.4,3.6-0.7,7-1.1,10.4c-0.6-9.1-1.6-18-5.3-26.6C1004.8,126.8,1006.3,133,1007.5,140z"/>
	<path fill="#C49A6C" d="M764.8,271.2c2.6,2.1,5.2,4.3,7.8,6.4v0C769.9,275.5,767.3,273.4,764.8,271.2z"/>
	<path fill="#C49A6C" d="M983.3,324.1c-1.1,8.3-3.6,15.9-9.4,22.3c-1.4,1.6-2.5,3.5-3.6,5.3c-0.4,0.7-0.5,1.5-0.9,2.6
		c12.1-4.8,20.5-25.1,15.1-36.8C984,320,983.6,322,983.3,324.1z"/>
	<path fill="#C49A6C" d="M1020.7,242.2c-0.6,0.6-1.6,1.1-1.8,1.8c-1.6,5.4-1.2,10.6,1.6,15.5c1.1,2,2.8,3.5,5.1,4.2
		c-0.2-0.2-0.3-0.4-0.5-0.6c-0.5-0.7-1-1.4-1.5-2.1c-0.2-0.3-0.3-0.5-0.5-0.8c-0.1-0.1-0.1-0.2-0.2-0.3
		C1019.8,254.6,1018.6,248.8,1020.7,242.2z"/>
	<path fill="#C49A6C" d="M1020.7,242.2C1020.7,242.2,1020.7,242.2,1020.7,242.2C1020.7,242.2,1020.7,242.2,1020.7,242.2
		L1020.7,242.2C1020.8,242.2,1020.7,242.2,1020.7,242.2z"/>
	<path fill="#C49A6C" d="M1023.2,260.3c0.2,0.3,0.3,0.5,0.5,0.8C1023.5,260.8,1023.3,260.5,1023.2,260.3z"/>
	<path fill="#C49A6C" d="M1020.7,242.2c-2.1,6.5-0.9,12.3,2.3,17.7C1019.8,254.6,1018.6,248.7,1020.7,242.2
		C1020.7,242.2,1020.7,242.2,1020.7,242.2z"/>
	<path fill="#C49A6C" d="M1021.9,237.9c-0.2,0-0.4-0.1-0.6-0.1c-0.2,1.4-0.4,2.8-0.6,4.2C1021.2,240.6,1021.5,239.2,1021.9,237.9z"
		/>
	<path fill="#C49A6C" d="M1020.8,242.2L1020.8,242.2L1020.8,242.2c0-0.1,0-0.1,0-0.2v0C1020.8,242.1,1020.8,242.1,1020.8,242.2z"/>
	<path fill="#C49A6C" d="M1020.8,242c0,0,0,0.1,0,0.1c0,0,0,0,0,0l0,0C1020.8,242.1,1020.8,242.1,1020.8,242z"/>
	<path fill="#C49A6C" d="M1020.8,242c0.4-1.4,0.8-2.8,1.1-4.2C1021.5,239.2,1021.2,240.6,1020.8,242
		C1020.8,242,1020.8,242,1020.8,242z"/>
	<polygon fill="#C49A6C" points="1020.8,242.2 1020.8,242.2 1020.8,242.2 	"/>
</g>
<g>
	<path fill="#C49A6C" d="M994.1,537.6c0.1,0.6,0.2,1.1,0.3,1.7C994.3,538.7,994.2,538.2,994.1,537.6z"/>
	<path fill="#C49A6C" d="M1000.1,551.7c-0.3-0.6-0.6-1.2-0.9-1.8c-0.8-1.4-1.6-2.8-2.3-4.2c0.7,1.4,1.5,2.8,2.3,4.2
		C999.5,550.4,999.8,551.1,1000.1,551.7z"/>
	<path fill="#C49A6C" d="M994.7,540.2c0.5,1.7,1.1,3.4,1.9,5C995.8,543.5,995.1,541.9,994.7,540.2z"/>
	<path fill="#C49A6C" d="M1071.9,753.2c-7.9-3.9-10.4-10.5-9.7-18.8c0.1-0.9,0.1-1.9,0.1-2.8c0-1.8,0.8-3,2.2-4c1.8-1.2,3.5-2.6,5-4
		c8.9-8.4,10.4-14.9,5.1-26c-1.7-3.7-1.6-6.7,0.4-10.3c1.6,3,3,5.7,4.4,8.4c-0.9-4.6-2.3-9-3.1-13.4c-1.1-5.8-0.1-11.2,3.5-16.1
		c1.9-2.6,3.8-5.2,5.5-8c3.2-5.2,4-10.8,0.8-16.1c-2.8-4.7-5-9.9-9.1-13.9c-1.5-1.5-2.8-3.2-4.1-5c-0.5-0.6-0.6-1.5-0.9-2.3
		c0.2-0.1,0.3-0.2,0.5-0.3c0.9,0.7,1.7,1.4,2.6,2.1c-1.7-3.6-5-6.1-6-10.1c3.8,2.7,7.1,5.7,11,7.6c4,1.9,8.4,1.8,12.4-0.9
		c-0.7-0.2-1.3-0.2-2-0.1c-4.2,1.1-8,0.1-11.5-2.3c-6.1-4.3-9.7-9.7-9-17.7c0.4-4.4,0.3-9-0.8-13.2c-3.1-11.6-8.9-21.6-19.3-28.4
		c-1.1-0.7-2.2-1.5-3.2-2.5c-5.8-5.3-8.7-11.5-6.7-19.5c1.4-5.3,0.9-10.4-1.2-15.4c-1.4-3.5-3.1-6.8-4.9-10.2
		c-1.4-2.6-3-5.1-4.5-7.7c-0.5-0.8-0.7-1.8-1.3-3.7c1.3,1,1.9,1.3,2.3,1.8c5.2,5.9,9.4,12.4,10.7,20.4c0.4,2.7,1.2,5.3,1.5,7.9
		c0.8,7.9,4.5,14.1,9.5,20c5,5.9,11,8.3,18.6,7.2c-1.8-0.4-3.7-0.5-5.4-1c-2.7-0.8-5.6-1.5-7.7-3.1c-6.4-4.9-10.8-11.3-12.6-19.2
		c-1.3-5.9-2.5-11.9-3.3-17.8c-1.4-11.3-6.8-20.2-15.3-27.5c-2.7-2.3-5.3-4.5-7.9-6.9c-4.4-4.1-6.2-9-4.7-15c1.1-4.5,0.5-8.8-1.5-13
		c-0.7-1.4-1.3-2.8-1.9-4.3c4.2,2.6,4,7.7,6.8,11.1c-1.4-5.4-3-10.8-4.7-16.1c-1-3.3-2.3-6.6-3.1-10c-1.3-5.6-4.2-10-9.2-12.6
		c-3.8-1.9-7.9-3.6-12.1-4.3c-9.3-1.5-18.1-0.7-24.3,7.8c-1,1.3-2.5,2.2-3.4,3c-8.3-5.5-16.1-10.8-23.9-16
		c-4.5-3.1-9.4-4.1-14.9-3.6c-4.9,0.5-9.9,0.3-14.9,0.4c-1.6,0-3.3,0-4.8,0.4c-4.8,1.3-9.6,2.5-14.2,4.5c-7.8,3.3-15.4,7-23,10.7
		c-1.5,0.7-2.6,2.2-3.8,3.4c-1.1,1.1-1.9,2.6-3.1,3.6c-2.7,2.5-5.6,4.9-8.8,7.6c1.7,0.5,2.9,0.9,4.3,1.3c-0.3,0.5-0.4,0.9-0.7,1.1
		c-0.4,0.3-1.1,0.9-1.4,0.8c-2.7-1.3-4.2,1.4-6.8,2.3c0.9-1.3,1.4-1.9,1.8-2.6c-4.1,3.3-9,6.1-8.1,12.6c-0.8,0.6-1.6,1.3-2.5,2
		c-4.7,4-5.8,7.5-3.7,13.2c0.9,2.6,2.3,5.2,3.9,7.5c1.9,2.7,2.9,5.3,2.7,8.6c-0.2,2.1-0.1,4.3,0.3,6.4c1.8,9.3,4.3,18.3,10.7,25.8
		c1.9,2.2,2.5,4.9,1.9,7.9c-1,5.6-1.6,11.2-2.3,16.8c-0.6,4.3,1.9,7,6.2,7c1.1,0,2.1-0.3,3.2-0.4c2.8-0.2,4.3,0.7,5.3,3.3
		c0.4,1.1,0.6,2.3,1,3.5c0.6,2,1.8,3.3,3.9,3.6c0.7,0.1,1.5,0.4,2.1,0.6c-0.3,5.7-0.2,6,5.5,6.9c2.3,0.4,3.6,1.6,4.2,3.7
		c0.4,1.5,1,3.1,1.7,4.5c1.7,3.7,4.6,5.7,8.7,5c2.7-0.5,5.6-1.2,8-2.6c5.5-3.1,10.8-6.5,16.2-9.9c5.5-3.4,8.7-3.3,13.4,1.2
		c3.3,3.2,6.2,6.7,9.3,10.1c2.5,2.6,3.1,6.6,6.6,8.4c0.4,0.2,0.4,1.2,0.5,1.9c0.1,1.7,0.2,3.5,0.2,5.2c0,3,0,6,0,9.6
		c8.9-6.8,18.4-8.2,28.6-6.6c-0.8,0.4-1.8,0.5-2.7,0.6c-3.3,0.6-6.7,1-9.9,1.8c-2.8,0.7-4.3,2.5-4.3,4.7c0,3,2.3,4.4,4.2,6
		c1.8,1.5,3.4,1,5.2,0c4.6-2.5,9.3-4.9,13.9-7.3c1-0.5,2.1-0.8,3.1-1.3c-0.8,1.3-2,2-3.1,2.6c-16,9.4-32.2,18.6-48,28.2
		c-18.1,11-35.9,22.3-53.8,33.6c-1.6,1-3.1,2.3-4.6,3.4c2.9,6,5.7,11.6,8.1,17.2c2.6,6,0.6,14.2-4.6,18.9c-0.6-2.2-1.2-4.2-1.7-6.3
		c-0.5-2.1-0.5-4.5-2.6-6c-0.7,1.1-1.3,1.9-1.9,2.8c-2.1-1.7-4.1-3.2-6.1-4.7c-0.3,0.1-0.6,0.3-0.9,0.4c3.3,8.9-0.3,17.6-0.4,26.5
		c-0.7-0.5-1.2-1-1.3-1.5c-1.3-4.4-2.8-8.7-3.7-13.2c-0.7-3.6-2.1-6.5-5-8.9c-2.6-2.1-4.7-4.7-6.2-8.4c3.8,0.9,7.1,1.8,10.3,2.6
		c0.8-4.8,1.6-9.3,2.4-14c5.2,1.9,6.9,7.4,12,9.3c-0.9-5.6-1.5-10.8-3.6-15.6c-0.7-1.5-2.1-2.9-3.6-3.7c-5.8-3.1-10.9-6.8-14.7-12.3
		c-0.4,0.4-0.6,0.5-0.7,0.7c-2.1,5.5-3.4,6.2-9.1,4.7c-1.7-0.4-3.4-1-5.1-1.1c-1.9-0.2-3.9,0-6.8,0c3.4,5.1,9.4,7.2,10.8,12.9
		c-1.5,1.8-3.5,1.5-5.3,1.1c-5.6-1.3-11.2-2.7-16.9-4c-4.9-1.1-9.9-2.2-15.3-3.4c0.4,1.5,0.6,2.4,0.8,3.3c-2,0.7-4,1.4-6.1,2.2
		c2.1-5.7,5.6-8,11.1-7.2c1.3,0.2,2.6,0.5,3.9,0.9c4,1,8.1,2.1,12.1,3c1.7,0.4,3.6,0.4,5.3,0.5c0.1-0.3,0.3-0.6,0.4-0.9
		c-2.8-2.6-5.5-5.1-8.4-7.7c4-2.1,8.1-2.6,12.5-2.4c3.5,0.1,7.1-0.3,10.5-0.4c0.3-3.4-2.8-2.6-4.3-4c1.1-2.1,2.1-4.2,3.4-6.1
		c0.6-0.9,1.7-1.9,2.7-2.2c2.7-0.7,4.5-2.4,6-4.5c2.5-3.4,5.1-6.4,9.1-8.3c2.8-1.3,3.2-3.6,2-6.5c-0.3-0.7-0.6-1.4-1-2.3
		c2.3-0.5,3.5-1.7,3.5-3.9c0-2.2-1.8-2.8-3.3-3.6c-0.8-0.4-1.7-0.9-2.7-1.5c3.8-1.8,7.1,2.8,10.9,0.1c-5-6.6-11.3-8.9-19.6-7
		c1.2-1.1,1.9-1.8,2.7-2.5c-3.4-1.9-6.3-1.2-9.2,0.2c-7.1,3.4-13.1,8-15.5,16c-0.7,2.4-2,4.6-4.5,6c-3.7-3.9-6.4-8.6-12.2-10.1
		c0,1.6,0,2.9,0,4.2c-0.3,0.1-0.5,0.2-0.8,0.3c-1.7-3.2-3.3-6.3-5.4-10.2c3.1,0.9,5.2,1.7,7.4,2.2c2.2,0.5,4.4,0.8,6.7,1.1
		c0.2-0.2,0.3-0.4,0.5-0.6c-0.9-1.1-1.7-2.2-2.6-3.2c-1.5-1.7-3.2-3.3-4.6-5.1c-1.4-2-3.2-3.1-5.6-3.6c-4.2-0.9-5-2.2-4.7-6.3
		c0.2-2.6-0.7-3.5-3.3-2.8c-2.2,0.5-3.9,0.3-5.4-1.5c-1-1.3-2.4-1.8-3.9-0.9c-2.2,1.3-3.7,0.6-5.3-1.1c-1.5-1.7-3.2-3.2-4.8-4.9
		c-0.6-0.6-1-1.4-1.9-2.9c1.9-0.1,3.2-0.3,4.4-0.2c3.6,0.3,7.2,1,10.8,1c8.2,0.2,9.9-1.3,12-9.3c0.6-2.3,1.4-4.3,3.9-5.3
		c2.6-1.1,2.7-1.7,2.2-4.4c-0.2-0.9-0.5-1.7-0.6-2.3c1.5-1.1,3.2-1.7,3.7-2.8c0.5-1.1-0.2-2.8-0.2-4.1c0-0.8,0.4-1.8,1-2.4
		c0.7-0.8,1.7-1.2,2.6-1.8c3.8-2.4,4.1-4.4,1.2-7.7c-1.5-1.7-3-3.5-4.2-5.4c-2.7-4.1-3.2-8.3-1.2-13c2.2-5,2.2-10.5,1.7-15.9
		c-0.6-5.8-3-10.8-5.9-15.7c-1.8-3-3.6-5.9-3.7-9.7c0-2.2-1.5-3.7-3.7-4.3c-1-0.3-2.1-0.6-3.1-0.7c-4.3-0.3-8.1-1.6-11.6-4.2
		c-3.4-2.5-7.4-3.8-11.5-4.6c-8-1.4-16.1-1.2-24.1-0.5c-2.1,0.2-4.4,0.2-6.3-0.5c-8.6-3.3-15.8-0.8-22.5,4.6
		c-1.9,1.5-3.6,3.2-5.4,4.9c-6.7,6.1-12.2,13.1-14.4,22c-1.6,6.3-3.8,11.9-8.1,16.9c-2.8,3.2-3.3,6.8-1.3,10.9
		c2.2,4.5,1.6,5.9-2.4,8.8c-2.8,2-5.7,4-8.8,6.2c4.5,0,5,0.2,5,4.1c-0.1,5.9,2,11.1,5,15.9c5.2,8.3,12.7,12.5,22.6,12.2
		c1.3,0,2.5,0,4,0c-5.3,8.7-7,13.6-6,18.2c4.6-4.9,10-8.3,16.1-10.5c6.5-2.4,13.2-3.9,20.1-4.1c16.6-0.5,29.7,5.5,36.7,21.5
		c0.3,0.7,0.9,1.3,1.5,1.8c1.5,1.4,3.1,2.7,4.6,4.1c0.2,0.6,0.7,0.7,1.2,0.7c4.3,0.3,4.8,0.7,4.8,5.1c0,1.8,0.9,2.7,2,3.6
		c0.9,0.8,2.4,1.4,1.7,3.2c-0.5-0.1-0.9,0-1.2-0.2c-3.8-1.7-4.2-2.4-3.7-6.5c0.1-0.8-0.3-1.6-0.7-3.3c-1,1.9-1.6,3-1.9,3.5
		c-2.5-0.6-4.7-1.2-7-1.8c0.3-0.6,0.6-1.2,1-1.7c2.1-3.7,2.1-3.7-1.9-4.7c-0.5-0.1-0.9-0.5-1.4-0.7c-2.8-1.6-3.5-1.4-5,1.4
		c-0.3,0.6-0.6,1.2-1.2,2.5c-0.8-2.3-1.2-4.1-2-5.5c-0.9-1.5-2.2-2.6-3.3-3.9c2.6-3.7,2.6-6-0.1-9.2c-2.7-3.2-6.2-5.3-10.1-6.4
		c-11.4-3.2-22.6-2.3-33.6,2.1c-0.6,0.2-1.6,0.9-1.5,1c1.2,2.5-1.3,2.4-2.3,3.1c-4.6,2.8-9.2,5.5-14.4,8.5c0,0,0,0,0,0c0,0,0,0,0,0
		c0-0.1-0.1-0.6-0.4-0.9c-2.5-2.1-4.4-1.7-5.6,1.3c-0.5,1.2-0.8,2.6-1,3.9c-1.1,8.3-1.8,16.6-3.1,24.8c-1.4,9.2-0.3,17.9,3.4,26.4
		c3,6.9,5.7,13.9,8.4,21c1,2.6,1.8,5.4,2.2,8.1c0.4,3.3,1.5,6.3,3.7,8.8c2.1,2.4,3.5,5,4.1,8.2c0.4,2.5,2,4.4,4.4,5.9
		c0-8.9,0-17.5,0-26.6c-2.6,2.5-3.3,5.8-6.4,7.3c-0.2-1.1-0.4-1.9-0.4-2.6c1.1-10.1,7.3-18,12-26.9c-1.4-0.5-2.5-0.9-3.6-1.3
		c-15.2-5.4-23.9-21-20.2-36.8c2.8-12.4,10.4-21,21.4-26.8c0.7-0.4,1.6-0.6,2.4-0.8c-2.2,2.1-4.6,3.8-6.9,5.6
		c-6.6,5.2-11.6,11.6-14.2,19.6c-4.6,13.9,1,28.8,13.8,35.7c3.7,2,7.6,4.1,12.2,2.2c-2.5,3.6-5.2,6.9-6.4,11
		c1.6-1.3,2.9-2.8,4.4-4.2c1.4-1.3,2.2-3.8,5.2-3.2c-0.3,1.5-0.6,2.7-0.9,4.1c1.6-0.3,3-0.6,4.6-0.9c-0.5,1.1-0.8,1.8-1.4,3.4
		c6.6-3,10.8-8.5,17.9-9.9c-0.8,1-1.2,1.8-1.8,2.2c-3.1,2.2-6.2,4.3-9.3,6.5c-3.5,2.4-7.2,4.8-10.6,7.3c-2.7,1.9-3.9,4.7-3.8,8.1
		c0,1.1-0.1,2.2,0,3.2c0.2,1.8-0.3,3.1-1.9,4.1c-1.7,1-2.3,2.7-2.2,4.5c0.2,2.9,0.4,5.9,0.9,8.8c0.2,1.2,1.1,2.2,1.8,3.5
		c3.3-2.3,2.1-6.4,4.7-8.7c1.1,1.6,0.9,4,3.7,4.1c1.1-3.3,1.9-6.7,3.2-9.9c1.4-3.2,3.3-6.2,5-9.2c1.6-2.9,2.5-6.3,5.8-9.2
		c-0.4,3.7-0.7,6.4-1,9.5c1.1-0.4,1.8-0.5,2.4-0.8c5-2.7,9.9-5.3,14.9-8.1c2.2-1.2,4.1-2.8,7.3-3.1c-1.4,1.5-2.4,2.6-3.5,3.8
		c1.5,0.8,2.7,1.4,3.9,2c-1.9,2.7-4.7,3.4-7.2,4.6c-3.4,1.8-7.1,3.4-10.1,5.8c-6.7,5.5-7.8,11.7-4.3,20.4c2.4-2.6,2.8-6.4,6.4-8.8
		c-0.2,2.9-0.3,5.1-0.5,7.3c0.2,0.1,0.4,0.2,0.5,0.3c2.2-3.4,4.3-6.8,6.5-10.3c0.9,0.7,1.4,1,2.4,1.7c1.5-6,5.2-10.4,9.3-14.6
		c0.9-1,2.2-2.1,1.4-4.2c-3.4,2.2-6.2,5.4-10.5,5.4c2.8-2.4,5.7-4.5,8.7-6.6c0.7-0.5,1.4-1,2.1-1.1c0.8-0.1,2,0.1,2.5,0.7
		c0.5,0.5,0.7,1.9,0.3,2.5c-0.8,1.5-1.9,2.9-3,4.3c-3.1,3.8-5.8,7.8-7.2,12.5c-1.3,4.4-2.7,8.7-4.1,13.1c-0.3,0.9-0.7,1.8-1,2.8
		c-0.2,0-0.5,0-0.7,0c-0.7-2.2-1.4-4.3-2.3-7.2c-3.7,6.7-5.3,12.6-2.2,19.2c1.6,3.5,3,7,3.6,10.9c-0.8,0-1.2,0.1-1.8,0.1
		c2.8,4.6,7.7,6.8,10.9,11.5c-6-0.9-10.1-3.4-13.2-7.6c-3.9-5.3-8-10.5-11.6-16c-3.9-6.1-7.4-12.5-7.7-20.1c0-0.7-0.4-1.4-0.9-2.7
		c-6.2,6.1-9.5,12.7-8.7,21.1c-6.2-0.7-8.5-2.2-13.9-9.1c0.4,1.2,0.8,2.4,1.3,3.9c-1.5,1.4-3.4,3.3-2.2,5.4c1.6,2.7,2.1,5.4,2.5,8.3
		c0.2,1.1,1.3,2,1.7,3.1c0.9,2.1,2.2,4.2,2.4,6.3c0.3,4.7,2.8,7.8,6.5,10.1c4.9,3,10.1,5.6,15.1,8.5c5.9,3.4,11.7,7,17.6,10.5
		c96.7,0,193.4,0,290,0c1-3.7,0.2-7.6,1.8-11.6C1065,751.2,1068,753.2,1071.9,753.2z M1076.8,649c1.6,4.4,0.5,8-0.2,11.4
		c1.9-2.5,2.9-3,2.9-15.1c2.8,2,2.7,4.8,2.8,7.5c0,1-0.4,2.1-0.8,3.1c-2.2,4.8-4.5,9.6-7.1,15.1
		C1072.8,663.2,1073.2,656.3,1076.8,649z M1070.2,642.4c0,1.7,0,3.3,0,5c-0.1,0-0.2,0-0.4,0c0-0.5-0.1-1-0.1-1.5
		C1069.6,644.8,1069.6,643.6,1070.2,642.4z M1070.1,688.1c-4.2-3.1-4.9-4.6-1.3-15.2C1072.5,678.1,1072.4,682.9,1070.1,688.1z
		 M1068.8,691.3c-1,1.3-1.9,2.5-2.8,3.6c-0.2-0.1-0.5-0.3-0.7-0.4c0.1-2.1,0.3-4.1,0.4-6.2c0.3-0.1,0.6-0.2,0.8-0.2
		C1067.2,689.1,1067.9,690.1,1068.8,691.3z M1066.7,598.6c-1.9-5.5-1.4-11-2.3-16.7C1068.1,585.6,1069.2,593.4,1066.7,598.6z
		 M1067.9,702.8c0.4,1.9,0.8,3.6,1.2,5.2c0.2,0,0.3,0,0.5,0c0.1-2,0.5-4,0.2-5.9c-0.3-2.5,0-4.5,2.1-6.6c2.3,3.5,3.6,7,4.2,10.7
		c0.2,1.3,0.1,2.7-0.3,4c-2.1,6.6-6.9,10.9-12.3,15.1C1062.1,718.8,1064.3,707.3,1067.9,702.8z M1034.2,499.8c1,1.9,2,3.8,3,5.7
		c-0.3,0.2-0.6,0.3-0.9,0.5c-1-1.9-2-3.8-3-5.7C1033.6,500.1,1033.9,500,1034.2,499.8z M724.2,567c-3.9-2.8-8-3.7-12.4-3.8
		c-1.1,0-2.4-0.5-3.4-1.2c-4.1-3.1-6.7-7.2-8.1-12.2c-0.2-0.9-0.1-1.9,0.1-2.8c0.6-2.3,2.4-3,4.3-1.6c6.3,5,12.5,10.2,18.6,15.4
		C725,562.4,725.1,564.4,724.2,567z M801.7,616.3c1.7,0.4,2.4,1.5,2,2.6c-0.5,1.7-1.7,2.9-4.7,2.4
		C800,619.4,800.9,617.8,801.7,616.3z M762.6,645.4c-5.5,1.5-10.9,3.6-16.7,5.6c1.7-4.6,4.7-7.6,8.7-10c5.8-3.4,12-5.4,18.6-6.1
		c7.5-0.8,15-1.2,22.5-1.8c1.3-0.1,2.6-0.2,4.3-0.3c-1.3-4.3,2.6-6.5,3.7-10c0.5,1.7,0.9,3.5,1.5,5.5c5.1-2.7,9.1,1.2,14.3,2.7
		c-2.2,2.8-4.5,4.6-7.3,5.9c-3.9,1.8-7.7,3.8-11.8,5.8c-0.7-3.1-3.3-3.8-6.2-4.2c-6-0.7-12-1.4-18-2c-1.2-0.1-2.5-0.2-3.6,0.1
		c-6.1,1.6-11.9,3.9-17.3,7.2c8-1.1,16-2.2,24-3.2c0.1,0.3,0.1,0.7,0.2,1C773.8,642.9,768.1,643.9,762.6,645.4z M775.5,654.2
		c0-0.4,0-0.7,0-1.1c4.4-1.6,9-2.3,13.6-2.6c3.8-0.3,5.9,2.1,7,7.5C789.2,656.7,782.4,655.4,775.5,654.2z M790.2,729.9
		c-1.3-3.1-2.3-6.3-3.8-10.3c-1.1,1.8-1.7,2.7-2.3,3.8c-2.5-4.5-5.5-22.4-4.9-30.2c2.5,6,7.4,10.8,7.9,17.8c0.3,3.4,1.5,6.8,2.8,10
		c1.8,4.5,4.1,8.8,6.1,13.1c0.4,0.8,0.7,1.6,1.2,2.9C792.9,735.9,791.5,732.9,790.2,729.9z M795.3,672.8c3.3,1.8,6.5,3.1,8.4,7.6
		c-2.2-1-3.5-1.7-5.6-2.7c0.2,2.5,0.4,4.5,0.7,7.1C795,681.2,794.1,677.5,795.3,672.8z M801.5,735.7c0.2-0.1,0.5-0.3,0.7-0.4
		c1.5,1.9,3.1,3.9,4.6,5.8C803.6,740.4,802.2,738.3,801.5,735.7z M844.2,727.3c-3.1,1.9-5,4.3-5,8.1c-0.1,3.2-1.6,5.9-4.2,7.9
		c-1.3,1-2.4,2.5-3.7,3.9c-3.1-0.5-5.3-2.9-7.5-5.2c-2.8-2.9-5.7-5.7-8.6-8.5c-0.4-0.4-0.9-0.6-1.5-1c-1.7,3.2-1.1,6,1.1,8.3
		c1.9,2,4.2,3.6,6.2,5.8c-2.4-0.6-5-0.9-7.2-2c-1.7-0.8-3.2-2.5-4.1-4.2c-3-6-5.8-12.1-8.6-18.2c-0.1-0.2,0-0.5,0.1-1
		c1.7,1.5,3.2,2.8,5.3,4.7c0.4-5.7,0.8-10.8,1.2-15.9c0.3-0.1,0.6-0.1,0.9-0.2c0.5,0.9,1,1.7,1.4,2.6c4,9.3,9.7,17.7,15.3,26
		c1.4,2.1,3.1,4.5,6.3,4.4c1.3-2.5-0.6-4.5-0.8-6.9c2.4-0.9,3.6,1.9,5.8,1.8c0.1-1.7-1.2-2.4-2.1-3.2c-3-2.3-6-4.6-9.2-6.5
		c-2.1-1.3-3.4-2.9-4-5.2c-0.6-2.3-1.4-4.6-1.8-7.1c4.5,2.4,8.2,5.7,12.7,9c0.2-1.8,0.7-3,0.5-4c-1-5.5-2.5-10.7-8-13.7
		c-4.1-2.2-8.2-4.6-10.8-9.5c2.5,0.2,4,1.8,5.9,2.4c1.9,0.6,3.8,1.2,6.4,2c-0.3-3.1-0.5-5.7-0.7-8.4c5.8,1.5,16.4,10.1,22.3,18.2
		c-4-1.2-7.4-2.2-11.6-3.5c1.4,4.1,2.5,7.3,3.5,10.4c0.6,2,2.1,2.6,4,2.5c1.8,0,3.8-0.5,5.1,1.8C847.9,725.1,846,726.2,844.2,727.3z
		 M980.1,522.9c-0.4-2.1-0.4-3.8,1.2-5.5c3.2-3.6,4.7-8,4.9-12.9c0-1.1,0.2-2.1,0.3-3.8c0.8,1,1.4,1.5,1.6,2.1
		c1.6,5.1,3.3,10.2,4.7,15.3c0.8,2.9,0.2,5.8-0.6,8.7c-0.9,3.2-1.5,6.5-1.7,9.8c-0.2,2.9,0.7,5.7,2.9,7.8c0,0,0,0,0,0
		c0,0,0.1,0.1,0.1,0.1c-1.1-3.2-2.3-6.3-1.8-9.8c0.2-1.7,0.2-3.5,2.7-4.7c-0.6,2.4-0.8,4.6-0.6,6.8c0,0.2,0.1,0.5,0.1,0.7
		c0.1,0.6,0.2,1.1,0.3,1.7c0.1,0.3,0.1,0.6,0.2,0.9c0.5,1.7,1.1,3.4,1.9,5c0.1,0.2,0.2,0.3,0.2,0.5c0.7,1.4,1.5,2.8,2.3,4.2
		c0.3,0.6,0.6,1.2,0.9,1.8c2.4,2.7,4.8,5.3,7.3,8.1c-3.8,0.8-5.8-1-7.7-3.8c-4.6-6.9-9.5-13.7-14.1-20.6
		C983,531.6,981.1,527.5,980.1,522.9z M982.7,629.8c-10,8.1-18.4,17.6-25.7,28.3c-0.9-7.1,3.9-11.6,7-17.1c-3.4,2.9-6.7,6-10.2,8.8
		c-3.4,2.9-6.7,6-11.6,6.6c5.5-8.7,14-14.4,21.6-21c-11.4,5.6-21.2,13.8-32.7,19.3c4.4-4.6,9.8-8,14.8-11.8
		c5.1-3.7,10.2-7.4,15.1-11.4c-11.7,6.3-22.5,14-33.8,21c7.5-8.2,64.2-43.8,80.8-46.9c-2.8,2.6-6.2,4.2-9.3,6.2
		c-3.3,2.1-6.6,4.1-10,6.1c-3.3,2-6.7,3.9-9.9,6.5c1.2-0.5,2.4-0.9,3.5-1.5c3.4-2,6.7-4,10-6c6.5-3.9,13.5-6.7,20.9-8.3
		c0.5-0.1,1-0.1,1.6,0.1C1002.7,613.7,992.7,621.7,982.7,629.8z"/>
	<path fill="#C49A6C" d="M712.3,593.6C712.3,593.6,712.3,593.6,712.3,593.6C712.3,593.7,712.3,593.7,712.3,593.6z"/>
	<path fill="#C49A6C" d="M878.2,643.8c4.9,1.5,9.9,3,15.1,4.6c0.5-1.1,1.1-2.2,1.6-3.5c5.8-14.3,15.3-25.9,26.6-36
		c3.3-3,6.9-5.6,11.2-7c1.4-0.4,2.7-1.3,3.7-2.3c1.7-1.7,3.8-8.8,3.7-11.1c-3.4,2.9-7,6.1-10.7,9.2c-4.7,4-9.6,7.8-14.1,12
		c-2.1,2-4.1,4.1-6.1,6.2c-2,2.1-3.9,4.3-5.9,6.4h0c-1.5,1.8-2.9,3.5-4.4,5.3c-0.3-0.2-0.5-0.5-0.8-0.7c1.5-1.7,3.1-3.4,4.6-5.1
		c3.9-4.6,7.8-9.3,11.7-13.9C907,611.4,880.6,637.9,878.2,643.8z M895.8,630.1c0.1,0.1,0.3,0.3,0.4,0.4c-0.5,0.6-1.1,1.2-1.6,1.8
		c-0.1-0.1-0.3-0.3-0.4-0.4C894.7,631.3,895.2,630.7,895.8,630.1z"/>
	<path fill="#C49A6C" d="M903.4,622.4c2-2.1,3.9-4.3,5.9-6.4C907.4,618.1,905.4,620.2,903.4,622.4L903.4,622.4L903.4,622.4z"/>
	<path fill="#C49A6C" d="M887.5,648.4c-9.8-3.8-19-2.7-27.5,3.5c-0.9,0.6-1.5,1.6-2.6,2.8c5.2,4.3,10,8.3,15.4,12.8
		c6.7-4.7,14.4-7.9,20.9-13.1C892.3,651.4,890.2,649.5,887.5,648.4z"/>
	<path fill="#C49A6C" d="M875.5,642c6.7-7.3,13.5-14.6,20.2-21.9c0.9-0.9,1.7-1.9,2.6-2.8c-6.9,4.4-13.5,9.3-19.3,15
		c-2.4,2.3-4.6,4.9-6.7,7.5c-1,1.2-1.9,2.6-1.2,4.4C873.8,644,873.7,643.9,875.5,642z"/>
	<path fill="#C49A6C" d="M849.1,644.2c2.4,2.8,4.7,5.4,7,8c3.5-2.4,6.8-4.6,10.7-7.3C860.3,643.2,854.6,642.5,849.1,644.2z"/>
	<path fill="#C49A6C" d="M1000.1,551.7c-0.3-0.6-0.6-1.2-0.9-1.8c-1.8-1.8-3.6-3.5-5.5-5.3c0,0,0,0,0,0c0,0-0.1-0.1-0.1-0.1
		C995,547.5,996.5,550.5,1000.1,551.7z"/>
	<path fill="#C49A6C" d="M993.6,544.4C993.6,544.5,993.6,544.5,993.6,544.4c0.1,0.1,0.1,0.1,0.1,0.1L993.6,544.4z"/>
	<path fill="#C49A6C" d="M993.7,544.6c0,0-0.1-0.1-0.1-0.1L993.7,544.6C993.7,544.6,993.7,544.6,993.7,544.6z"/>
	<path fill="#C49A6C" d="M814.4,632.3c0-0.1,0-0.2,0-0.3c-1.1,0-2.2,0-3.3,0c0,0.1,0,0.2,0,0.3C812.3,632.3,813.3,632.3,814.4,632.3
		z"/>
</g>
<path fill="#C49A6C" d="M329.1,398.3c0.5,0,1,0,1.4,0h-3C328,398.3,328.6,398.3,329.1,398.3z"/>
<g>
	<path fill="#C49A6C" d="M355.3,339.3c0.8-1,1.5-1.9,2.2-2.8c0,0,0,0,0,0C356.8,337.4,356.1,338.3,355.3,339.3z"/>
	<path fill="#C49A6C" d="M332.1,334.1c0.1-0.1,0.2-0.1,0.3-0.2C332.3,334,332.2,334.1,332.1,334.1z"/>
	<path fill="#C49A6C" d="M338.5,328.2c-1.8,2.3-3.7,4.2-5.8,5.6C334.8,332.4,336.7,330.5,338.5,328.2z"/>
	<path fill="#C49A6C" d="M358.9,337.4c0.2,0.1,0.4,0.2,0.5,0.3C359.3,337.6,359.1,337.5,358.9,337.4z"/>
	<path fill="#C49A6C" d="M356,328.5c0.2,0.1,0.4,0.3,0.6,0.4C356.5,328.8,356.3,328.6,356,328.5z"/>
	<path fill="#C49A6C" d="M357.5,336.5C357.5,336.5,357.5,336.5,357.5,336.5c1.1-3.5,1.1-5.5-0.4-7.1
		C358.6,331,358.6,333,357.5,336.5z"/>
	<polygon fill="#C49A6C" points="357.5,336.5 357.5,336.5 357.5,336.5 357.5,336.5 	"/>
	<path fill="#C49A6C" d="M319.6,335.7L319.6,335.7C319.7,335.6,319.6,335.7,319.6,335.7C319.7,335.7,319.7,335.7,319.6,335.7
		C319.7,335.7,319.7,335.7,319.6,335.7C319.7,335.7,319.7,335.7,319.6,335.7z"/>
	<polygon fill="#C49A6C" points="357.5,336.5 357.5,336.5 357.5,336.5 357.5,336.5 	"/>
	<polygon fill="#C49A6C" points="357.5,336.5 357.5,336.5 357.5,336.5 357.5,336.5 	"/>
	<polygon fill="#C49A6C" points="357.5,336.5 357.5,336.5 357.5,336.5 357.5,336.5 	"/>
	<polygon fill="#C49A6C" points="357.5,336.5 357.5,336.5 357.5,336.5 	"/>
	<polygon fill="#C49A6C" points="357.5,336.5 357.5,336.5 357.5,336.5 357.5,336.5 	"/>
	<path fill="#C49A6C" d="M358.9,337.4c-0.5-0.3-0.9-0.6-1.4-0.9c0,0,0,0,0,0C358,336.8,358.5,337.1,358.9,337.4z"/>
	<path fill="#C49A6C" d="M468.6,200.6c0.2-1.7,0.4-3.2,0.5-4.6c0.5-5-1.4-8.9-5.7-11.6c-1-0.6-2-1.3-3.1-1.9
		c-3.9-2.1-7.9-3.8-11.5,0.8c-0.4-1.1-0.7-1.8-1-2.8c-1.1,1.3-2,2.4-2.9,3.6c-1.4-3.3-2.3-6.6-4.1-9.3c-3.2-4.6-6.6-9.1-10.5-13.1
		c-5.8-6-13.3-7.4-21.2-5.9c-6.6,1.2-13.2,2.3-20,2c-7-0.3-13.2,1.9-18.6,6.5c-1.8,1.6-3.8,3-5.9,4.2c-1.2,0.8-2.7,1.4-4.1,1.6
		c-2.1,0.3-0.8,2.5-2.2,3.3c-3.2,2-4.5,5.3-5.1,8.8c-0.7,4.3-1,8.7-1.5,13.1c0,0.2,0.1,0.4,0.2,0.7c0.3-0.9,0.5-1.3,1-2.5
		c0.2,1.3,0.4,1.8,0.4,2.3c-0.2,5.3,0.3,10.5,2.8,15.3c1,1.9,0.5,3.7-0.9,5.2c-0.8,0.9-1.7,1.7-2.6,2.6c-2,2-2.5,3.6-0.8,5.6
		c1.6,1.9,1.6,3.7,1.2,6c-0.2,1.2-0.2,2.9,0.5,3.8c1.3,1.6,3,2.9,2.6,5.4c-0.1,0.6,1.4,1.3,2.2,2c0.8,0.7,2,1.3,2.1,2.1
		c0.5,2.9,2,5.1,4.6,7.4c-1.4,0-2-0.1-2.7,0c-0.6,0.1-1.2,0.2-1.8,0.4c0,0.2,0,0.5-0.1,0.7c2.1,0.5,4.3,0.9,6.4,1.4
		c3.1,0.8,3.1,0.8,4.2-2.3c0.2-0.5,0.6-1.1,1-1.4c1-0.9,2.2-1.6,3.2-2.4c9.3-7,19.4-9.5,30.7-6c2.7,0.8,5.4,1.7,8.1,2.5
		c0.9,0.3,1.8,0.3,2.5,0.4c0.3-0.4,0.4-0.5,0.4-0.6c2-5.2,5-8.6,11.3-8.5c5.4,0.1,9-3.2,10.8-8.3c0.7-1.9,1.3-3.8,2-5.7
		c1.5-3.9,3.5-7.5,6.2-10c1.5,1.2,2.9,2.3,4.1,3.2c-0.1,2-0.3,3.8-0.4,5.6c1.5-1.5,2.8-1.5,4.5-0.9c1.7,0.5,3.7,0.2,5.5,0.2
		c0.3,0,0.7,0.2,1.3,0.4c-0.5,1-0.9,1.9-1.6,3.4c4.5-3.6,4.1-8.5,5.7-12.5c2.5-0.5,5-0.8,5.9-3.6C473.3,204,470.6,202.4,468.6,200.6
		z M424.3,160.6c-2.2-0.8-4.3-1.6-6.5-2.4c0.1-0.3,0.2-0.6,0.3-0.9c2.2,0.8,4.3,1.6,6.5,2.4C424.5,160,424.4,160.3,424.3,160.6z
		 M456.3,216.6c2.4-2.2,4.4-4.1,6.3-5.9C463.7,214.9,461.4,217.5,456.3,216.6z M465.6,191.9c-0.3-0.8-0.6-1.6-1-2.5
		c0.3-0.1,0.5-0.3,0.8-0.4c0.3,0.9,0.5,1.8,0.8,2.6C466,191.8,465.8,191.9,465.6,191.9z M471.5,206.5c-0.1,0.6-0.8,1.1-1.6,2.3
		c-1.1-1.5-2.1-2.4-2.6-3.6c-0.2-0.4,0.8-1.7,1.5-1.9C470,203,471.7,205,471.5,206.5z"/>
	<path fill="#C49A6C" d="M360.5,329.3c2.3-10-2.9-16.4-13.5-17.9c-1.2,3.6-1.1,5.9,0.7,8.3C351,323.9,355.8,326.1,360.5,329.3z"/>
	<path fill="#C49A6C" d="M317.5,323.4c1.9-0.4,2.7-0.5,3.7-0.7c-0.2,0.7-0.3,1.3-0.6,2.4c5.5-2.9,10.7-4.4,16.4-4
		c2.7,0.2,5.2-1,6.7-4.1c-4.2-1.2-8.3-2.4-12.6-3.7c-1.7,0.6-3.7,1.3-5.7,1.9c-1.6,1.3-3.1,2.6-4.7,4
		C319.8,320.3,318.9,321.5,317.5,323.4z"/>
	<path fill="#C49A6C" d="M337.4,313.7c4.3,1,5.4,0.5,6.9-3.7c1.3-3.6,0.3-6-3.2-7.5c-2.1-0.9-4.2-1.5-6.6-2.4
		c-1.2,1.9-2.1,3.4-2.9,4.9c-0.8,1.6-1,3.4,0.3,4.9C333.5,311.7,335,313.2,337.4,313.7z"/>
	<path fill="#C49A6C" d="M351.4,253.7c-1.6,1.2-3,2.3-4.4,3.4C350.9,256.8,351.3,256.4,351.4,253.7z"/>
	<path fill="#C49A6C" d="M390,293.1c2.1-1.1,3.8-2.5,4.9-4.9c-0.9-0.1-1.2-0.2-1.6-0.3c-1.5,1.5-2.9,3-4.4,4.4
		C389.2,292.6,389.8,293.2,390,293.1z"/>
	<path fill="#C49A6C" d="M370.9,312.1c-0.3,0.2-0.6,0.3-0.9,0.5c0.3,1.1,0.2,2.6,0.9,3.3c2.2,2,4.7,3.7,7.1,5.5
		c0.6,0.5,1.4,0.7,2.1,1.1C377.7,318.3,374.9,314.6,370.9,312.1z"/>
	<path fill="#C49A6C" d="M327.5,398.3h3c1.9-0.2,3.6-0.8,5.3-2c10.8-7.4,20.7-15.9,30.5-24.5c10.1-8.9,20.1-17.9,30.5-26.4
		c5.5-4.5,9.8-9.5,12.6-15.9c1.5-3.4,2.8-7,4-10.6c2.6-8,5.2-16.1,7.6-24.2c0.4-1.4,0.3-2.9,0.4-4.4c0.2-2.8,0.1-5.6,0.5-8.4
		c0.6-3.8,1.7-7.6,2.4-11.4c0.7-3.7,1.6-7.4,0.4-11.2c-0.7-2.4-1.1-5-1.8-7.4c-0.6-2.2-1.5-4.3-4.2-5.4c-0.8,1.3-1.6,2.5-2.3,3.7
		c-8.1-6.6-12-8.6-16.5-7.9c1.3,0.9,2.5,1.5,3.6,2.3c2.3,1.6,4.7,3.1,7,4.8c3,2.2,4.6,5.2,4.4,9c-0.1,3.1-0.2,6.2-0.4,9.3
		c-0.1,1.4-0.5,2.8-2.1,4.1c-0.2-1.5-0.4-2.5-0.5-3.5c-1.5-11.1-7.6-18.3-18.2-22c-5.2-1.8-10.4-1.3-14.5,2.1
		c-4.2,3.5-8,7.6-11.5,11.8c-1.6,2-3,4-5.3,5.2c-2.5-1-5-1.9-8.3-3.2c9.1-1.3,13-3.1,14.5-6.6c-3.9-0.3-7.8-0.6-11.7-0.9
		c-0.1-0.6-0.3-1.5-0.4-2.3c-3.5,1.5-3.5,1.5-2.3,4c-1.3,0.9-2.6,1.8-4,2.6c-2.4,1.6-3.9,1.2-5.1-1.4c-0.4-0.8-0.6-1.8-0.9-2.7
		c-1.5-4.4-2.7-5.1-7.5-4.8c-0.5,0-1-0.1-1.5-0.1c-0.5-0.8-1-1.4-1.4-2.1c-1-1.6-2.4-2.6-4.3-2.4c-2.1,0.2-2.4,1.7-2.8,3.4
		c-0.2,0.9-1,2-1.8,2.3c-3.3,1-5,4-7.6,5.9c-0.8,0.6-1.4,2-1.5,3.2c-0.4,3.7-0.5,7.5,1,10.8c1.9,0.7,3.4,1.4,5.1,2.1
		c-1.4,1.8-2.7,1.9-4.2,1.6c-4.8-0.7-6.8,0.5-8.8,4.9c-8.3,1.3-10.6,4-8.3,10.2c1.2-0.6,2.3-1.3,3.5-1.6c2-0.5,4.2-1.2,6.2-1
		c4.1,0.4,4.4,0.3,4.2-3.8c0-0.4-0.1-0.8-0.1-1.3c0.6-0.1,1.1-0.2,1.7-0.3c0.1,0.5,0.2,0.8,0.3,1.2c0.7,2.4,2.4,2.9,4,1.2
		c0.6-0.7,1.3-1.6,1.3-2.4c-0.1-2.4,1.7-2.7,3.5-3.5c0.6,1.1,1.1,2.1,1.6,3.2c-1.1,0.9-1.9,1.6-3,2.5c1.8,0.3,3.2,0.5,4.5,0.7
		c0,0.3,0,0.5,0,0.8c-1.9,0.3-3.9,0.7-5.8,1c2.1,0.8,4.3,1.1,6.3,1.5c2.1,0.4,4.5,0.7,5.3,3.6c-4.4,1.8-8.6,3.7-11.9,8.3
		c5.8-0.9,10.5-1.6,15.3-2.5c1.6-0.3,2.7,0.1,4.1,0.9c3,1.8,6.1,3.4,9.3,4.6c1.8,0.7,2.7,1.8,3.7,3.3c3.1,4.7,6.1,9.6,9.7,13.8
		c3.8,4.4,8.4,7.8,15.4,8.2c-3.6,2.4-6.6,4.4-10.3,5.8c-0.3-1.4-0.5-2.5-0.7-3.6c-2.9,0-5.2,3.4-8,0.9c-2.6,2.8,0.2,4.3,1.4,6.4
		c-0.9,0.1-1.6,0.5-2,0.3c-0.2-0.1-0.5-0.2-0.7-0.3c-0.2-0.1-0.4-0.2-0.5-0.3c-0.5-0.3-0.9-0.6-1.4-0.9c0,0,0,0,0,0c0,0,0,0,0,0
		c0,0,0,0,0,0c0,0,0,0,0,0c-0.7,0.9-1.4,1.8-2.2,2.8c-0.3,0.3-0.6,0.7-0.8,1.1c-0.4-0.2-1.3-0.5-2-0.9c-0.8-0.4-1.6-1-2.5-1.3
		c-7.5-3.2-12.3-0.5-13.8,8.1c1.1,0,2.2,0,3.3,0c0,0.2,0.1,0.4,0.1,0.6c-12.5,4.1-25,8.3-37.8,12.5c-1-4.2-1.5-8,0.5-11.9
		c1.7-3.2,3.1-6.5,4.7-9.8c0.6-1.3,0.7-1.2,3-0.5c-0.4,0.5-0.7,0.8-1,1.2c-2.1,3.1-1.9,4.9,1.1,7.2c1.3,1,2.7,1.8,4.2,2.4
		c2.3,1,4.8,1.7,7.3,2.6c0.7-1,1.7-1.8,1.8-2.7c0.6-5.1,4.8-6.6,8.4-8.8c1.3-0.8,2.8-1.5,4.2-2.4c-3-0.1-5.8,0.8-8.5,2.1
		c-3.7,1.8-5.8,1-7.9-3c0,0-0.1,0-0.1,0c0,0,0,0,0,0c-1.7,0.7-3.2,0-4.8-0.7c-1.1-0.5-2.5-0.6-4.3-1c-0.1-0.3-0.2-1.2-0.4-2.1
		c2.3-0.1,4.3-0.2,6.6-0.4c-0.4,0.7-0.8,1.4-1.4,2.4c1.5,0.6,2.9,1.2,4.4,1.8c0,0,0.1,0,0.1,0c0,0,0,0,0,0.1
		c4.8,1.3,8.9,0.6,12.4-1.5c0.1-0.1,0.2-0.1,0.3-0.2c0.1,0,0.2-0.1,0.2-0.1c2.1-1.4,4-3.3,5.8-5.6c0.3-0.4,0.6-0.8,1-1.3
		c0.5,0.9,0.8,1.3,0.9,1.7c2.1,5.6,7.3,8.7,13.2,7.9c1.3-0.2,2.6,0,3.9,0c0,0,0,0,0,0l0,0h0c0,0,0,0,0,0c0,0,0,0,0,0c0,0,0,0,0,0
		c1.1-3.5,1.1-5.5-0.4-7.1c-0.2-0.2-0.3-0.3-0.5-0.5c-0.2-0.1-0.4-0.3-0.6-0.4c-0.9-0.6-2-1.1-3.4-1.6c-1.6-0.6-3.3-1.2-4.8-2
		c-2-1-4.1-1.3-6.2-0.5c-1.7,0.7-3.1,0.4-4.6-0.3c-3.9-1.8-7.8-1.6-11.7,0.1c-2.9,1.3-5.7,3-8.2,4.4c-2-0.7-3.9-1.3-5.8-2
		c0.2-1.2,0.2-1.2,3.4-4.1c-1,0-1.9,0-3,0c-0.1-1.2-0.1-2.2-0.2-3.4c3.2,0.5,6.3,2.1,9.2-0.1c1.6-1.3,3.1-2.6,4.7-4
		c1.7-2.3,4.3-4.2,2.8-7.9c-6.5,0.4-12.1,2.3-16.1,8.2c-1-2.6-1.9-4.8-2.8-6.9c3.3-1.6,6.2-3.1,9.1-4.5c-0.1-0.3-0.2-0.7-0.3-1
		c-3.6,0-7.2,0-10.8,0c4.6-3.3,9.7-5.1,14.1-8.4c-2.7-0.1-5.3-0.2-7.6,0.6c-2.3,0.7-4.3,2.3-7.2,4c2.7-5.2,7.9-5.9,12-8.7
		c-2.5-1.3-4.4-2.6-6.7-0.8c-0.5,0.3-1.3,0.4-1.9,0.2c-2.8-0.9-4.7,0.6-6.4,2.3c-0.7,0.7-1.3,1.6-1.8,2.3c-2.6-0.5-3.9-2-4.3-3.9
		c-0.6-2.7-2.5-3.5-4.7-4.3c-2.7-1-5.4-2.4-7.8-4c-2.5-1.8-4.8-4-6.9-6.2c-13.4-14.3-22.4-31.5-31.9-48.4c-1.3-2.3-1.3-5-0.6-7.5
		c1.5-5.4,4.4-10.1,8.8-13.8c4.7-4,6.6-3.6,10.7,0.9c3.2,3.6,6.5,7.2,10.2,10.3c4,3.4,8.4,2.7,11.6-1.5c0.7-1,1.3-2,2-3.1
		c1.4-2.2,3.5-2.8,5.9-2.7c0.5,0,1,0.3,1.6,0.3c3.2,0.3,4.5-1,4.1-4.3c-0.1-1-0.5-2-0.8-3.2c0.6,0.1,1,0.1,1.3,0.2
		c4.5,1.1,4.5,1.1,6.5-3.2c1.3-2.8,3.2-3.6,6.2-2.6c0.6,0.2,1.2,0.5,1.9,0.7c4.5,1.4,7.1-0.4,7.5-4.9c0.3-3.2,0.5-6.4,0.6-9.7
		c0.3-5.6,2.9-9.9,7.4-13.2c1.8-1.3,3.8-2.7,5.2-4.5c4.9-6.1,9.2-12.6,11.4-20.3c0.6-2.1,1.6-3.4,3.6-4.4c5.8-2.7,8.9-7.6,9.7-13.9
		c0.5-4.7-0.4-9.1-2.5-13.3c-1.6-3.1-3.1-6.3-4.6-9.4c-2.9-5.9-6.6-11.3-12.7-14.2c-3.3-1.5-4.9-3.7-6.1-6.9
		c-2.6-6.9-6.9-12.4-13.9-15.5c-1.8-0.8-3.5-2.1-5.2-3c-4.4-2.4-8.6-5-13.2-7c-10.6-4.7-21.8-5-32.2-0.4
		c-11.8,5.1-24.1,9.6-33.5,19.5c-0.2-1.6-0.4-2.8-0.5-3.8c-2.8-0.5-4.9,1.5-7.6,0.6c-1-0.3-3.4,1-3.8,2.1c-1.7,3.9-4.7,5.2-8.5,5.9
		c-3.2,0.6-6.4,1.2-9.4,2.1c-3.5,1.1-6.6,3.1-7.7,7c4.6-5,10.2-7.1,18-6c-3.6,2.3-7,2.9-10,4.3c-3.1,1.5-6.2,3-9.4,4.6
		c-1.3,1.2-2.5,2.4-3.9,3.5c-4.6,3.8-8.1,8.2-9.3,14.2c-0.2,1.1-1.3,2.4-2.4,2.9c-5.5,3-8.9,7.7-11,13.4c-2.3,6.3-2.7,12.9-2.1,19.5
		c0.2,2.4,0.6,4.8,0.9,7.8c1.3-1.9,2.1-3.2,3-4.5c0.3,2.6-0.9,4.4-2.5,6.1c-1.3,1.3-2.7,2.6-4,4c-0.2,0.2-0.2,0.6-0.3,1.1
		c1.1-0.4,2-0.7,3.2-1c-1,4.5-3.3,7.7-6.4,10.1c-5.7,4.5-8.3,11.2-13.5,17.3c2.3-1.3,3.7-2.1,5.2-2.9c0.2,0.2,0.5,0.4,0.7,0.6
		c-0.9,1.7-1.6,3.6-2.8,5.1c-1.9,2.3-4.1,4.3-6.1,6.4c-2.7,3-6,5.6-8,9c-3.6,6.4-6.9,13-8,20.5c-0.6,4.5-1,8.8,1.3,12.9
		c1.1,1.9,0.8,3.7-0.8,5.1c-1.5,1.4-3.1,2.6-4.6,3.9c-4,3.4-8.1,6.6-11.9,10.3c-5,4.9-6.5,10.9-5.2,17.8c0.6,3.3,1,6.6,1.4,10
		c0.5,4.5,0.9,9.1,1.6,13.6c0.5,3.7,1.2,7.4,3.5,11.2c0-1.2,0-1.7,0-2.1c-0.7-7.8-1.6-15.5-2.1-23.3c-0.4-4.7,0.7-9.3,4.2-12.6
		c4.1-3.8,8.6-7,13-10.5c-1.2,5-1.6,9.6-0.7,14.3c0.5,2.5-0.1,4.5-1.6,6.4c-1.5,1.9-3,3.8-4.4,5.8c-2.5,3.6-3.3,7.5-2.5,11.9
		c0.7,3.7,2.4,6.8,4.5,9.8c0.6,0.9,1.2,1.9,2,3.2c-1.8,0.9-3.2,1.7-4.7,2.2c-1.9,0.7-3.8,1.2-5.8,1.9c-5.3,1.7-8.6,5.2-9.7,10.8
		c-1.3,6.6-0.7,12.8,2.5,18.8c0.7,1.3,1.5,2.7,1.5,4.1c0,5-0.3,9.9-0.4,14.9c-0.1,3.3,0,6.5,0,10c0.6-1.1,1-2,1.5-2.8
		c0.3,0.1,0.5,0.2,0.8,0.2c-0.5,3.3-1,6.5-1.5,9.8c3.3-3.7,4.4-6.3,4.4-10.8c0-3.1-0.2-6.2,0-9.3c0.2-3,0.5-6,2.4-9
		c6.7,5.4,11.8,11.5,14.7,19.2c0.3-10.4-5.9-17.2-13.2-23.6c3.3-2.9,6.5-5.4,9.2-8.3c2.7-2.9,4.8-6.3,7.3-9.6
		c-0.1,1.2,0,2.4-0.2,3.6c-0.7,3.5,0.3,6.4,2.7,8.9c5.4,6,12.4,9.6,19.5,13.1c-0.4-0.9-1.1-1.4-1.7-2.1c-3-2.9-6-5.8-8.9-8.8
		c-3.7-4-5.3-8.9-5.2-14.4c0-5.7,1.8-10.9,4.8-15.6c5.6-8.4,6.5-17.1,2.8-26.5c-0.7-1.7-1.1-3.7-1-5.5c0.3-7.3-1.1-14.2-3.4-21
		c-1.5-4.3-1.8-8.7-0.6-13.1c2-7.1,5.5-13.4,9.6-19.4c0.1-0.1,0.4,0,0.4,0c-1.3,6.9-2.7,13.7-3.8,20.6c-1.9,11.7-1.9,23.3,1,34.8
		c3.2,12.5,5.8,25.1,6.9,38c1,11.5,4.2,22.2,13.4,30.2c1.9,1.7,2.5,4,2.4,6.6c0,2,0.3,4,0.7,5.9c0.7,2.9,1.6,5.6,2.5,8.4
		c0.3,0.9,0.4,1.9,1,2.6c1.8,2.2,1.8,4.2,0.2,6.6c-0.8,1.2-1.2,3.3-0.7,4.5c1,2.4,2.5,4.9,4.4,6.6c1.1,1,3.5,0.9,5.3,0.9
		c36.1,0,72.2,0,108.2,0c1.7,0,3.5,0,5.2,0c0,0,0,0,0,0h23C326.5,398.3,327,398.3,327.5,398.3z M387.3,310c-0.8-2.1-0.3-3.4,0.7-4.5
		c0-0.1,0.4,0.2,0.7,0.3C388.3,306.9,387.9,308.1,387.3,310z M387.5,294.1c-0.7-1.2,0.3-1.6,1.3-1.8c1.5-1.5,2.9-3,4.4-4.4
		c2.5-3,5.1-6,7.6-9c0.3,0.2,0.6,0.4,0.9,0.6c-0.5,1.1-0.9,2.4-1.6,3.4c-4,5.4-7.4,11.1-9.8,17.4c-0.5,1.3-2,2.3-3.1,3.5
		c-0.7-0.4-1.2-0.7-2.1-1.2C388.7,300.2,389.5,297.5,387.5,294.1z M380.5,297.9c0.2,0.3,0.4,0.7,0.6,1c-0.8,0.4-1.6,0.8-2.4,1.1
		c-0.1-0.3-0.3-0.5-0.4-0.8C379,298.8,379.8,298.3,380.5,297.9z M364.6,315.4c0.2-0.2,0.4-0.5,0.5-0.7c1.1,0.4,2.2,0.7,3.4,1.1
		c0.8-2.5-0.1-4.2-1.9-5.4c-2.4-1.5-4.9-2.8-7.4-4.1c-1.2-0.6-2.4-1.1-3.5-2.3c5.6-0.7,11.1-1.4,16.5-2.1c-0.7,1.2-1.6,2.6-2.4,3.9
		c5.3,2.1,10.2,4,15.2,6c-1.1,1.7-3.2,0.4-5.3,1.5c2.3,1.4,4.2,2.5,6.3,3.8c0.1,3.4-1.6,6.2-4.1,8.5
		C376,322.2,370.3,318.8,364.6,315.4z M130,258.3c-1.5,1.4-2.9,2.8-4.5,4c-5.5,3.7-10.8,7.4-13.8,13.7c0.4-5.7,2.4-10.5,7.2-13.5
		c3.7-2.3,7.7-4.1,11.5-6.1c0.1,0.2,0.3,0.3,0.4,0.5C130.6,257.3,130.4,257.9,130,258.3z M131.9,329.1c-1,0.9-2.1,1.7-3.2,2.4
		c-4.9,3-9.8,6-13.4,11.1c-1.5-1.6-1.8-3.3-1.5-4.9c0.5-2.3,1-4.8,2.3-6.7c1.1-1.7,3.1-3,4.9-3.9c3.9-2,8-3.6,12.4-5.5
		C134.8,324.8,134.2,327.2,131.9,329.1z M131.2,311.6c-7.2-7.6-7.2-15.6,0.3-25.4C139,295.9,140.6,301.8,131.2,311.6z M138.4,282.9
		c-2.2-1.6-2.9-3.6-2.5-6.9C139.1,278.5,139.5,279.4,138.4,282.9z M148.4,298.2c0.3,0,0.6,0.1,0.9,0.1c1.7,4.8,1.5,9.5-1.4,13.8
		c-0.3,0-0.7-0.1-1-0.1C147.4,307.4,147.9,302.8,148.4,298.2z M146.8,219.8c-0.3-0.2-0.6-0.5-0.9-0.7c3.6-4.8,7.2-9.7,10.9-14.5
		C156.3,211.7,151.7,215.8,146.8,219.8z M170.9,140.5c-0.7-7.2,3-15.8,8.5-19.6C175.2,126.8,172.6,133.5,170.9,140.5z M222.5,152.1
		c-3.1,6-7.7,10.9-11.7,16.2c-0.2-0.1-0.5-0.2-0.7-0.4c0.6-2.7,1.1-5.4,1.7-8.1c1.6-7.4,3.2-14.7,2.8-22.3
		c-0.2-4.2-0.7-8.3-0.9-12.5c-0.3-5.4,1.1-10.1,5.5-13.6c1-0.8,2.2-1.4,3.5-2.2c1.2,3.2,0.4,5.7-0.7,8.2c-2.8,6-3.9,12.2-3.6,18.8
		c0.1,1.2,0.3,2.2,1.3,3.3c1.7,2,2.8,4.6,3.6,7.1C223.5,148.3,223.3,150.5,222.5,152.1z M223.1,140.9c-2.4-2.6-2.4-2.6-1.1-6.2
		C222.4,136.6,222.7,138.4,223.1,140.9z"/>
</g>
<g>
	<path fill="#C49A6C" d="M168.3,740.9c0.9,1.2,1.8,2.3,2.6,3.5C170.1,743.3,169.2,742.1,168.3,740.9
		C168.3,740.9,168.3,740.9,168.3,740.9z"/>
	<path fill="#C49A6C" d="M381.9,689.9L381.9,689.9c0.1-0.1,0.3-0.2,0.4-0.4C382.2,689.7,382.1,689.8,381.9,689.9z"/>
	<path fill="#C49A6C" d="M339.4,684.8C339.4,684.8,339.4,684.8,339.4,684.8L339.4,684.8c-0.1,0.1-0.2,0.2-0.3,0.3
		C339.2,685,339.3,684.9,339.4,684.8z"/>
	<path fill="#C49A6C" d="M135.9,628.7c-0.2,1.7-0.5,3.4-0.7,5.1c0,0,0,0,0,0C135.4,632.1,135.6,630.4,135.9,628.7z"/>
	<path fill="#C49A6C" d="M168.4,740.8L168.4,740.8C168.4,740.8,168.4,740.8,168.4,740.8C168.4,740.9,168.4,740.9,168.4,740.8
		C168.4,740.8,168.4,740.8,168.4,740.8z"/>
	<path fill="#C49A6C" d="M135.2,633.9c0.4-0.7,0.8-1.3,1.3-2.2C136,632.6,135.6,633.3,135.2,633.9
		C135.2,633.9,135.2,633.9,135.2,633.9z"/>
	<path fill="#C49A6C" d="M135.2,633.9L135.2,633.9C135.2,633.9,135.2,633.9,135.2,633.9C135.2,633.9,135.2,633.9,135.2,633.9
		C135.2,633.9,135.2,633.9,135.2,633.9C135.2,633.9,135.2,634,135.2,633.9C135.2,634,135.2,633.9,135.2,633.9
		C135.2,633.9,135.2,634,135.2,633.9z"/>
	<path fill="#C49A6C" d="M168.3,740.9C168.4,740.9,168.4,740.9,168.3,740.9C168.4,740.9,168.4,740.9,168.3,740.9
		C168.4,740.9,168.4,740.9,168.3,740.9C168.3,740.9,168.3,740.9,168.3,740.9c0,0,0.1,0,0.1,0S168.3,740.9,168.3,740.9z"/>
	<polygon fill="#C49A6C" points="135.2,633.9 135.2,633.9 135.2,633.9 	"/>
	<path fill="#C49A6C" d="M171.2,496.7c1.3-0.7,2.7-1.2,4-1.8c1.9-0.9,3.9-1.8,5.7-3c3-1.8,5-4.4,5.5-8c0.2-1.2,0.5-2.4,0.8-3.5
		c2.5-10.9,6.5-21,14.4-29.2c0.7-0.7,1.3-1.6,1.9-2.4c-9.1,6.8-15.1,15.7-18.5,26.5c-0.6,2.1-1.2,4.1-1.9,6.2
		c-1.4,4.4-4,7.8-8.1,10.2c-1.9,1.1-3.7,2.2-5.5,3.4c-1.7,1.1-3.3,2.3-4.8,3.6c-2,1.8-2.2,4-0.9,6.4
		C164.4,500.4,167.6,498.4,171.2,496.7z"/>
	<path fill="#C49A6C" d="M395,709c-1.8-4.1-4.6-5.6-8.2-6.1c-4-0.6-7.2,1.3-10.4,3.2c-1.5,2.5-3.3,4.8-3.8,8.3
		C379.9,711.3,386.8,708.5,395,709z"/>
	<polygon fill="#C49A6C" points="376.5,706 376.5,706 376.5,706 	"/>
	<path fill="#C49A6C" d="M376.4,706.1C376.4,706,376.5,706,376.4,706.1L376.4,706.1C376.4,706.1,376.4,706.1,376.4,706.1z"/>
	<path fill="#C49A6C" d="M376.3,706.1l0.1-0.1c0,0,0,0,0,0c0,0,0,0,0,0C376.5,706,376.3,706.1,376.3,706.1z"/>
	<path fill="#C49A6C" d="M507.4,593c-0.2-0.6-0.4-1.3-0.5-2c-0.2-2.1-0.9-4.5-0.3-6.4c0.8-2.6,1.5-5.1,1.2-7.8
		c0-0.2-0.2-0.4-0.3-0.6c-0.5,0.5-0.9,0.9-1.8,1.9c0.2-2.4,0.3-4.2,0.4-5.8c-0.8-1.1-1.5-2-2.1-3c-1.6-3-3-6-4.5-8.9
		c-0.4-0.8-1.1-1.6-1.8-2.1c-1.2-1-2.5-1.8-3.8-2.6c-3.4-2.2-5.6-6.5-10.3-6.7c-0.3,0-0.7-0.4-1-0.6c-9.2-6.2-22.3-7.3-34-7.8
		c-1.3-0.1-2.7,0.1-4,0.1c0.7,2.5-1.5,1.8-2.6,2.1c-4.9,1.2-8.9,3.7-12.4,7.2c-4.6,4.6-7.3,10.2-9.2,16.3c-1.8,5.9-2.3,6.2-8.4,6.5
		c-3.1,0.2-4.3,1.2-3.7,4.3c0.4,2.4-0.5,3.4-2.2,4.5c-1.2,0.8-2.6,1.9-2.9,3.1c-0.7,3.3-1.3,6.8-1.2,10.1c0,1.8,0.3,3.4-0.6,5
		c-1.6,3.1-1.1,6,0.8,8.7c1.2,1.8,2.6,3.4,3.9,5.1c1.1,1.3,2.2,2.6,3.2,3.8c-2.5,3.5-6.1-0.2-8.1,1.9c-1.7-1.9-3-3.9-4.8-5.2
		c-2.2-1.6-4.2-0.6-4.6,2.1c-0.2,1-0.2,2.1-0.3,3.5c-1.4-0.8-2.5-1.5-3.7-2.1c-2.1-1-3.3-0.7-4.3,1.4c-0.6,1.1-1,1.9-2.3,2.4
		c-1,0.4-1.7,1.9-2.3,3c-0.4,0.7-0.5,1.7-0.8,2.9c-1.7-0.9-3.1-1.6-4.5-2.3c-2.8-1.4-5.7-2.8-8.8-2.4c-3.3,0.5-5.9-0.5-8.7-2.1
		c-3.9-2.2-8.2-3.4-12.8-2c-2.9,0.9-5.9,1.9-8.7,2.9c-2.6,0.9-5,2.4-6.3,4.8c-1.4,2.8-1.7,6.1-3.6,8.7c-0.2,0.3,0.3,1.2,0.6,2.4
		c3-1.2,5.7-2.2,8.5-3.3c-0.4,1.6-1.2,2.7-1.8,3.8c-1,1.6-2.1,3.2-2.7,4.9c-0.3,0.8,0.2,2.1,0.8,2.7c0.3,0.3,1.8,0,2.4-0.5
		c1.4-1.1,2.5-2.5,3.8-3.6c1.7-1.5,3.8-3.1,6.1-2.1c2.9,1.2,5.7,1.1,8.6,0.4c2.1,3.2,4.1,6.2,6.3,9.5c-3.1,1.7-5.8,4.1-8.9,4.9
		c-5.6,1.5-10.1,4.3-14,8.4c-2.7,2.8-5.1,5.9-7.7,8.9c-0.5,0.6-1.2,1.2-1.7,1.7c0.7-4.3,3.7-7.1,6-10.3
		c-5.6-9.6-11.6-18.7-19.6-26.2c-3.9-3.7-7.7-7.5-11.3-11.5c-6.9-7.8-12.1-16.4-13.8-26.9c-0.6-3.6-2.2-6.9-4.6-9.8
		c-1.3-1.6-2.5-3.1-3.8-4.7c-3-3.8-3.5-7.7-1.1-12c1.7-2.9,3.2-5.9,4.9-8.8c1-1.6,2-3.2,3.3-4.6c2-2.2,4-2.5,6.5-0.9
		c1.8,1.1,3.5,2.5,5.2,3.8c3.9,2.7,7.6,5.6,11.7,7.9c4.2,2.3,7.7,1.3,10.7-2.4c1.4-1.7,2.5-3.5,3.9-5.1c1.3-1.6,2.7-2.8,5.1-2.6
		c2.4,0.2,3.3-1,3.4-3.5c0-0.9-0.1-1.8-0.1-2.9c1.3,0.1,2.4,0.4,3.4,0.3c2.2-0.2,3.4-1.5,3.6-3.6c0.5-5.5,1.5-6.4,6.7-5.3
		c4,0.8,7.7-1.6,7.1-6.5c-0.7-5.7-0.4-11.5-0.4-17.3c0-3,1.2-5.5,4.1-6.9c2.6-1.3,4.4-3.5,5.8-6c4.3-7.1,7.2-14.7,8.5-22.9
		c0.3-2.1,1-3.4,3-4.3c5.2-2.5,8.2-6.9,9.3-12.5c2.2-11.5-0.4-21.7-8.8-30c-2.5-2.5-5.3-4.6-8.1-6.7c-8.4-6.1-16.9-12-25.3-18
		c-14.4-10.4-34.5-12.1-51.3-6.4c-3,1-31.4,17.4-30.6,18.2c-2.4-2.5-5.2-3.4-8.5-3.1c-3.7,0.4-5.3,3.1-6.8,6
		c-0.9-0.4-1.4-0.6-1.9-0.8c-9.2-3.8-17.6-2.5-25.2,4.1c-4.7,4.1-8,9.3-10,15c-1.3,3.8-3.1,7.1-5.5,10.2c-4,5.3-7.2,11-9,17.5
		c-1.3,4.8-2.3,9.7-3.5,14.5c-1,4.2-2.6,8.2-5.3,11.7c-5.7,7.2-13,10.7-22.3,8.9c-1-0.2-2-0.2-3.9-0.3c3.3,1.6,5.7,3.1,8.3,4
		c1.5,0.5,3.5,0.7,5,0.1c9.7-3.5,16.9-9.7,20.6-19.7c0.5-1.5,1.1-2.9,1.8-4.6c0.3,0.5,0.6,0.7,0.5,0.9c-1.2,9.5-5.3,17.2-14.1,21.7
		c-3.7,1.9-7.6,3.4-11.5,4.8c-5,1.9-10.2,3.4-15.3,5.2c-3.6,1.3-6.8,3.1-8.2,7.1c2.5-2.1,5.2-3.7,8.5-3.8c6.7-0.1,13.4-0.6,20-2.1
		c0.7-0.1,1.4,0.1,2.1,0.1c-6.6,4.8-13.1,9.3-20.7,11.8c-3.6,1.2-5.4,3.3-6.6,6.9c3-0.8,5.3-3.2,8.9-2.5c-1.1,1.3-1.9,2.4-2.7,3.4
		c-2.7,3.7-5.5,7.3-8.1,11.1c-2.1,3.1-2.8,6.7-2.3,10.4c0.7,5.4,1.8,10.5,5,15.1c3.9,5.6,4.7,5.9-0.9,13c-2.1,2.7-4.8,4.8-8,5.9
		c-1.8,0.6-3.6,1-5.4,1.5c-0.1,0-0.2,0.3-0.3,0.5c0.7,0.3,1.4,0.6,2.3,1c-0.6,0.7-1,1.1-1.3,1.4c-4.1,3.9-5.9,8.7-5.1,14.2
		c0.4,2.9,1.4,5.7,2.2,8.5c0.6,1.9,1.4,3.8,2.1,5.7c0.8,2.2,0.3,4.2-1.2,6c-0.9,1.1-1.8,2.4-2.3,3.7c-0.8,2.1-2.3,3.6-4.1,4.8
		c-0.9,0.6-1.9,1.3-2.8,1.9c3.8-0.9,7-2.6,8.6-6.4c0.9-2.1,2.3-3.9,3.4-5.9c0,0,0,0,0,0c0,0,0-0.1,0-0.1c-0.1-1.7-0.3-3.5-0.4-5.2
		c0.4,0,0.8,0,1.1,0c-0.2,1.7-0.5,3.4-0.7,5.1c0,0,0,0,0,0.1c0.4-0.7,0.8-1.3,1.3-2.2c2.3,3.9,2.3,5.9,0,8.3
		c-1.3,1.3-2.8,2.6-4.5,3.4c-3.1,1.4-4.5,4-5.2,6.8c-0.7,2.9-0.8,6.1-0.6,9.1c0.2,3.2,1.7,5.9,4.6,7.7c-2.1-4.4-2.6-8.6,0.4-13.1
		c1,1.8,0.2,4.6,3.4,4c-0.9-5.3,1.4-8.9,5.7-11.9c2.2-1.6,3.9-4,5.7-6.1c0.7-0.9,1.3-1.9,2-3c3.1,3.2,5.1,6.5,4.4,10.7
		c-0.6,4-3.5,6.8-6.1,9.8c0.2,0.2,0.4,0.4,0.6,0.5c2.7-1.8,5.5-3.5,8.2-5.3c1.2,2.3,0,3.9-0.9,5.5c-3.3,5.5-7.2,10.4-12.9,13.6
		c-1.5,0.8-3.5,1.9-4,3.2c-1.1,3.2-1.7,6.6-1.9,10c-0.4,7.6,2.2,14.3,7.1,20c2.4,2.9,5.2,5.5,7.5,8.5c5.8,7.4,5.7,15.9,0.1,23.4
		c-1,1.4-2.2,2.7-3.2,4.2c-1,1.5-2,3.1-1.2,5.2c3-1,4.6-4.4,8.4-4.1c1.3,8.3,5.6,13.7,13.9,15.6c-0.5-1.3-1.4-2.3-2.1-3.4
		c-1.2-2.1-2.6-4.2-3.2-6.4c-0.8-2.8-1.7-6.2-0.9-8.7c1-2.9,1.2-5.9,2-8.8c0.4-1.4,0.9-2.8,1.6-4.1c0.4-0.7,1.2-1.1,1.8-1.7
		c0.3,1.5-0.1,2.6-0.2,3.8c-0.3,2.8-0.5,5.6-0.7,8.4c-0.1,1.7,0.5,3.1,2,4.1c0,0,0-0.1,0-0.1c-1-2.4-2.2-4.8,0-8.1
		c0.4,1.4,0.6,2.7,0.7,3.9c0,0.3,0,0.7,0,1c0,0.2,0,0.3,0,0.5c-0.1,0.6-0.2,1.3-0.4,1.9c0,0.2-0.1,0.3-0.2,0.5
		c0,0.1-0.1,0.2-0.1,0.3c0,0.1,0,0.1,0.1,0.2c0,0-0.1,0-0.1,0c0.9,1.2,1.7,2.3,2.6,3.5c2.1,2.8,3.5,3.8,6,4.4
		c-1.6-1.7-3.4-3.2-4.6-5.1c-1-1.5-1.9-3.3-2.1-5.1c-0.3-3.2-0.1-6.4-0.1-9.6c1.3,3.6,1.9,7.6,5.1,10.6c-0.3-1.8-0.5-3.3-0.7-4.7
		c2.5,2.4,4.4,5,6,7.7c1.7,2.8,3.4,5.5,6.1,7.4c-3.3-5.7-4-9.2-2.9-15.5c0.5-2.8,1.4-5.4,2.2-8.2c2.6-9.3,1.3-17.8-5.2-25.3
		c-0.9-1-1.8-2-2.7-3c-4.9-4.7-6.9-10.5-6.2-17.2c0.6-5.8,2.7-11.1,6.6-16c3.6,4.1,6.2,8.2,7.3,13.2c1,4.5,2.2,8.9,3.4,13.3
		c4.1,15.5,9.3,30.6,17.2,44.7c4.6,8.2,8.6,16.7,12.9,25.1c0.6,1.2,0.9,2.5,1.3,3.7c65.7,0,131.4,0,197.1,0
		c4.3-6.3,9.6-11.6,16.2-15.4c3.1-1.8,6.1-3.9,9.1-6c1.5-1.1,3.3-2.1,4.3-3.6c4.6-6.9,9.7-13.6,12.4-21.7c3.1-9.4,6.2-18.9,9.1-28.4
		c2-6.6,3.8-13.1,6.9-19.3c1-2.1,1.5-4.6,1.5-7c-0.1-5.2-0.5-10.5-1.2-15.7c-0.5-4.1-1.8-8.1-2.6-12.2c-0.4-2.2-0.7-4.4-1-6.7
		c3.3-1.7,6.2-3.1,9-4.5c4.3,1.3,6.3-3.4,9.8-4c3.6-4.6,8.8-8.1,10.6-14.1c0.2-0.6,0.7-1.1,1.1-1.8c0.4,0.6,0.5,0.8,0.7,1.2
		c1-3.8,0.8-8,4.3-10.9C507.7,594.3,507.5,593.7,507.4,593z M377.8,457.6c-2.1-4.6-4.2-9.6-6.5-14.7
		C376.1,446.4,378.7,452.6,377.8,457.6z M143.3,637.2c-0.5-2.6-0.8-4.5-1.2-6.6C145.4,632.5,145.7,633.8,143.3,637.2z M147.1,621.7
		c-2-5.4-1.1-9.6,2.3-11.8C149.4,614,149.4,617.8,147.1,621.7z M161.7,706.4c-2.2-2.5-4.5-4.9-6.4-7.7c-1.4-2-2.5-4.4-3.2-6.8
		c-0.7-2.3,0.1-4.4,2.6-6c0.2,1.8,0.4,3.2,0.6,4.6c0.5,0,1.4-0.3,1.4-0.1c2.3,4.9,4.5,9.9,6.7,14.9c0.2,0.6,0.3,1.2,0.5,2.6
		C162.8,707.1,162.1,706.8,161.7,706.4z M162.9,559c-1.5,2-2.8,4.1-4.3,6.3c-2.7-5.7,2.4-14.9,9.1-16.7c-1.6,1.8-3.1,3.4-4.5,5
		c0.1,0.2,0.2,0.4,0.4,0.5c1.4-0.5,2.8-1,4.1-1.5c0.1,0.1,0.2,0.3,0.3,0.4C166.2,555.1,164.4,557,162.9,559z M181.6,740.8
		c-2.6-4.8-2.4-6.1,0.8-8.9C182.1,734.7,181.9,737.3,181.6,740.8z M175.7,724.2c0.7-1.8,1.1-3.6,1.7-5.4c1.6-4.4,2.5-9,1.7-14.4
		c2.6,2,2.7,4.2,3.3,6.1c0.4,1.1-0.4,2.7,1.5,3.3c0.3,0.1,0.3,1.5,0.1,2.3c-0.5,1.9-1.2,3.8-1.9,5.8c0.5,0,1,0.1,1.7,0.1
		c0,4.8-4,7.9-4.9,12.8C175.7,731.5,174.2,728.3,175.7,724.2z M202.6,461.1c-1.7,5.3-3.3,10.6-5.2,15.9c0-6.2,1.6-11.9,5.1-17
		C202.5,460.4,202.7,460.8,202.6,461.1z M242.3,511.9c-0.4,1.1-0.8,2.3-1.4,3.4c-7.5,15.3-18,28.3-31.2,39.1
		c-0.8,0.6-1.7,1.1-3.2,1.1c1.2-2.3,2.2-4.8,3.6-7c2-3.2,4.5-6.1,6.6-9.2c1.6-2.3,3.4-4.7,4.3-7.3c3.1-9,6.2-18.1,8.7-27.3
		c1.1-4.2,1.2-8.8,1-13.2c-0.1-4,1.4-6.6,4.8-8.6c-0.4,1.3-0.8,2.5-1.1,3.8c-1.8,7.4,0.1,13.5,6,18.4
		C243.7,508,243.7,508,242.3,511.9z M404.5,630.5c3.1-2.1,6.3-4.1,9.6-5.7c2.6-1.2,5.6-1.4,9,1.1c-8.6,0.3-14.6,5.2-21.7,9
		C401.8,632.4,403.2,631.3,404.5,630.5z M398.6,626c-0.7,5.1-2.5,6.7-6.7,5.4C394.2,629.6,396.3,627.9,398.6,626z M315.9,699.6
		c-1.4,1.9-2.8,3.8-5.5,4.5c0.8-1.3,1.6-2.6,2.5-3.8c5.7-7.6,12.6-13.7,22.2-15.6c0.7-0.1,1.4-0.1,2.1,0c0.7,0.1,1.4,0.2,2.2,0.2
		c0,0,0,0,0,0h0c0,0,0,0,0,0c3-1.6,6-3.1,9.1-4.7c1-0.5,2.1-1.1,3.1-1.6c-0.7-1-1.3-1.7-2.1-2.8c4.3-0.4,8.5-0.5,12.3-3.1
		c-1.3-2.4-2.6-4.6-3.9-6.9c2.6-0.4,2.6-0.4,8.7,7.4c-0.4,0.1-0.9,0.2-1.4,0.5c-7.4,3.8-14.8,7.6-22.2,11.3c-1.1,0.6-2.5,2-3.9,0.3
		c-1.3,0.3-2.5,0.5-4.3,0.9c3.6,2.4,7.8,3,10.1,7.2c-3.2-0.6-5.7-1.4-7.9-2.9c-3.6-2.4-7.1-1.9-10.7-0.2
		C322,692.3,318.8,695.8,315.9,699.6z M342.8,697c-2,2.7-2,2.7-4.1,0.9C339.9,697.6,341.1,697.4,342.8,697z M374.5,741.7
		c-2.5-0.2-5.1,0-7.6,0c-0.1-0.3-0.1-0.6-0.2-0.9c2.8-0.9,5.5-1.8,8.3-2.7c0.6-0.2,1.3-0.1,2-0.3c3.4-0.9,4-2.2,2.6-5.6
		c-0.1-0.3-0.2-0.7-0.4-1.4c3-2.2,7.6-1.4,9.8-5.4c-0.8-0.1-1.4-0.2-2.6-0.3c4.7-6.3,10.9-8.5,18.7-8.8c-0.8,1.2-1.2,1.9-1.7,2.6
		c-3.8,4.8-7.8,9.6-11.5,14.5C387.4,739.2,381.8,742.2,374.5,741.7z M386.3,717.1c3.6-2.5,6.9-1.6,10.1-1
		C393.4,717.5,390.2,717.4,386.3,717.1z M421,721.2c-0.4,1.1-1.2,2.2-2.1,2.9c-3,2.2-6.1,4.2-9.8,6.6c0.5-1.6,0.7-2.3,0.9-3.1
		c-0.2,0-0.6-0.2-0.7-0.1c-1.5,1.2-2.9,2.5-4.4,3.6c-2.3,1.7-4.8,2.9-8.8,2.8c2-1.8,3.4-3,4.8-4.3c-0.1-0.1-0.2-0.3-0.3-0.4
		c-1.5,0.4-2.9,0.7-5.3,1.3c3-3.7,4.8-7,8.9-8.2c1.6-0.5,3.2-1.4,4.6-2.4c4.7-3.2,9.2-6.5,13.8-9.8c0.3-0.2,0.4-0.6,0.8-1.3
		c-2.8-0.7-5.5-0.7-8,0c-2.8,0.8-5.6,1.8-8.4,2.9c-5,2-10.1,2.7-15.4,1.3c-5.6-1.5-11-0.8-16.1,1.6c-5,2.4-9.9,4.8-14.5,7.8
		c-5.2,3.4-10.7,4.2-16.5,3.4c-2.6-0.4-5.1-0.9-8.2-1.4c2.3-2.6,3.9-4.9,6-6.5c2.2-1.6,5-2.5,8.5-4.1c-7.1-1.8-13.4-3.1-19.8-3.5
		c0-0.4,0-0.7,0-1.1c2.6-0.5,5.3-0.7,7.8-1.5c3-1,4.5,2.9,7.5,1.9c-1-1.4-2.1-2.7-3.2-4.2c1.6-1.9,2.9-1.8,4.5-0.3
		c1.7,1.5,3.5,3,5.4,4.2c3.6,2.2,7.4,3.8,12.2,3.5c-1-1.4-1.8-2.5-3-4.2c2.8-0.3,5.1-0.5,7.4-1c2.3-0.5,4.5-1.3,6.7-2
		c-0.4-3-2.5-4.8-5.1-5.4c-3.3-0.8-6.8-1.1-10.2-1.5c-1.5-0.2-3-0.3-4.4-0.4c0-0.3,0-0.7,0-1c4.3-0.5,8.6-1.2,12.9-1.6
		c1.5-0.1,3.3,0.1,4.6,0.9c4,2.1,9.1-1,8-5.8c-0.1-0.4-0.1-0.8-0.1-1.2h0c-0.2-0.1-0.3-0.3-0.4-0.4c-0.4-0.4-0.9-0.8-1.4-1.2
		c-3.2-2.1-6.9-0.8-8.1,2.8c-0.3,0.9-0.3,1.8-0.5,3c-2.1-0.4-4.2-0.8-6.6-1.3c2.9-2.1,5.5-4.1,8.5-6.4c-1-0.5-1.6-0.8-2.5-1.2
		c0.8-0.9,1.6-1.7,2.6-2.8c2.1,2.8,4.5,4.2,7.5,1.1c0.5,2.3,1,4.1,1.4,6c2.4,3.2,5.6,5.2,9.3,6.9c5.7,2.6,11.3,5.7,17,8.3
		c2,0.9,4.3,1.5,6.5,1.8c2.4,0.3,4.8,0.1,7.3,0.3c1.9,0.1,3.7,0.3,5.3,2.4C423.9,712.3,422.6,716.9,421,721.2z M428.8,691.8
		c-1.4,0.8-2.8,1.4-4.6,2.3c1.3,0.8,2.1,1.4,3,1.9c3.7,2.2,3.7,2.1,2.1,6.4c-6.8-3-13.8-5.7-19.5-10.8c-2.3-2.1-4.9-3.3-8.5-2.3
		c0.7,0.7,1.2,1.4,1.8,1.9c6.1,4.6,12.4,9,20.1,10.8c1.8,0.4,3.5,1.3,4.5,3.5c-5.6-0.8-10.9-1.3-16.2-2.3c-2-0.4-3.9-1.7-5.7-2.9
		c-10.6-7.1-21.1-14.5-29.2-24.9c-1.1,0.8-2,1.4-3.1,2.2c-1.9-2.2-3.8-4.2-5.7-6.3c-0.5-0.6-1.4-1.6-1.2-2c1.3-2.8-0.9-3.8-2.5-5.1
		c-1.4-1.1-2.1-2.3-1.5-4.5c2.7,1.8,5.3,3.4,7,6c1.7,2.6,3.8,4.3,6.9,5.5c-0.2-1.1-0.5-2.1-0.7-3.1c1.9,0,9.1,2.6,10,3.7
		c0.6,0.7,0.7,1.7,1.1,2.5c1.1,2.4,2.2,4.9,3.4,7.2c0.4,0.7,1.2,1.1,2.6,2.3c-1.5-3.9-3.7-6.7-3.1-10.3c2.9,0.4,4.4,2.3,6,4.1
		c3.8,4.2,6.4,5.7,11.8,6.7c-3.4-2.8-6.3-5.3-9.3-7.7c0.1-0.3,0.3-0.6,0.4-0.9c1.4,0.1,2.8,0.2,4.2,0.2c2.5,0.1,5.1-0.1,7.6,0.2
		c1.7,0.2,3.4,0.8,4.9,1.5c1.7,0.7,3.3,1.9,5,2.6c1.4,0.5,2.9,0.5,4.6,0.1c-2.4-1.5-4.9-3.1-7.7-4.8c2.4-1.8,4.8-2.3,7.2-2.8
		c0.4-0.1,1,0.2,1.5,0.5c3.2,1.8,6.3,7.6,6.3,12.4c-2-0.3-3.8-0.6-6.6-1.1c1.6,1.4,2.5,2.3,3.5,3c1,0.7,2.1,1.2,3.3,1.8
		C432,691.3,430.1,691.1,428.8,691.8z M448.4,643.4c-3.2,7.4-2.5,15-1,22.6c0.5,2.5,0.6,5-1.1,7.3c-1.5-1.6-2.8-3-4.6-4.9
		c-0.5,4.2,3.4,6.5,2.6,10.6c-0.9-1-1.4-1.6-1.9-2.2c-1.8-2.5-3.4-5.2-5.2-7.7c-2.6-3.5-4.2-7.1-5-11.5c-1.7-9.9-7.7-16.6-17.1-20.3
		c-0.7-0.3-1.3-0.7-2.2-1.2c12.2-3.1,22.9,3.1,26.4,10.9c-2.7-1.8-4.7-3.3-6.8-4.7c-0.1,0.1-0.1,0.2-0.2,0.3
		c3.8,4.9,7.7,9.8,11.7,14.9c-0.9-6.2-2.6-11.8-7.1-16.2c-4.6-4.6-10.1-7-16.6-7.3c-6.1-0.3-11.7,1.9-17.3,3.9
		c-0.1-0.3-0.2-0.6-0.3-0.9c0.5-0.5,1-1.1,1.7-1.5c5.5-3.4,11.3-4.5,17.8-3.9c9.1,0.8,17.4,3.4,24.5,9.2c0.6,0.5,1.2,1,1.7,1.4
		C448.4,642.9,448.5,643.2,448.4,643.4z M431,622.6c5.5,1.9,11,3.6,16.4,5.5c4.7,1.7,8.5,4.5,10.6,9.3c1.3,2.9,3.5,5,6.6,6.5
		c-0.1,7.7,1.3,15.6-4.3,22.8c-2.3-3.6-2.8-7.3-3.2-11c-0.3-2.4-0.1-4.8-0.1-7.3c0-1.6,0.1-3.2,0-4.8c-0.1-1.9-0.4-4-2.2-4.9
		c-1.9-1-3.1,0.9-4.5,1.9c-0.2,0.2-0.5,0.2-0.9,0.3C439,627,426.2,618.7,407,623.7c11.7-6.5,41-8.6,58.7,3.2
		c-0.5,4.4-0.9,8.9-1.4,14.1c-8.1-13.9-19.5-20.8-36.1-19.7C429.6,621.9,430.3,622.3,431,622.6z"/>
</g>
</svg>
