<?xml version="1.0" encoding="utf-8"?>
<!-- Generator: Adobe Illustrator 27.3.1, SVG Export Plug-In . SVG Version: 6.00 Build 0)  -->
<svg version="1.1" id="Layer_1" xmlns="http://www.w3.org/2000/svg" xmlns:xlink="http://www.w3.org/1999/xlink" x="0px" y="0px"
	 viewBox="0 0 1200 800" enable-background="new 0 0 1200 800" xml:space="preserve">
<path fill="#C49A6C" d="M602.3,373.8c0.2,0,0.4,0,0.6,0h-1.2C601.9,373.8,602.1,373.8,602.3,373.8z"/>
<g>
	<path fill="#C49A6C" d="M371.1,412.1C371.1,412.1,371,412.1,371.1,412.1c-1.4,0.4-2.7,0.8-4,1.2c-9.5,2.7-17.6,7.6-24.5,14.6
		c-1,1-1.9,2.2-3.2,3.8c1.6,0.2,2.4,0.4,3.3,0.5c6,0.5,11.6,2.2,16.9,4.9c6.4,3.2,12.7,6.5,20.1,7.1c0.3,0,0.6,0.4,1.3,0.8
		c-3.9,0.7-7.2,0-10.4-1.1c-5.1-1.9-10.2-4-15.2-6.4c-6.9-3.3-14.1-4.7-21.6-3.6c-5.3,0.7-10.2,2.3-13.5,7c-0.5,0.7-1.4,1.4-2.2,1.7
		c-6.1,2.5-10.5,7-13.9,12.4c-3.2,5.1-6,10.5-9.1,15.7c-3.9,6.4-7.8,12.9-12.2,19.1c-6.1,8.7-6.5,18.4-0.5,27.2
		c2.7,3.9,6.1,7.1,10.3,9.3c3.6,1.9,5.9,4.7,7.5,8.4c3.7,8.4,8.1,16.2,14.9,22.5c2.9,2.7,3.8,6.1,3,10.2c-0.7,3.5-0.7,7.1-1.2,10.6
		c-0.6,3.6-1.5,7.3-2.2,10.9c-0.6,2.7-1.6,5.5,1,7.7c2.5,2.2,5.2,1.9,8.1,0.9c5.6-1.9,9.1,0.8,8.8,6.8c-0.2,3.6,1.6,5.3,5.2,4.9
		c1.7-0.2,3.4-0.7,5.6-1.2c-0.8,1.6-1.5,2.8-2,4c-0.7,1.6-0.8,3.2,0.5,4.6c1.2,1.3,2.6,1,4.2,0.6c4.8-1.2,7.9,0.8,9.1,5.7
		c1.7,7.3,7.2,10.9,14.4,8.9c3.4-0.9,6.7-2.7,9.6-4.6c3.9-2.6,7.4-5.7,11.1-8.6c2.5-1.9,5.1-3.8,7.7-5.5c2.3-1.6,4.9-1.7,7.5-0.5
		c7.5,3.4,12.5,9.3,16,16.5c0.7,1.4,0.3,3.6-0.3,5.1c-0.8,2-2.3,3.7-3.5,5.5c-5.3,8.2-10.9,16.2-15.9,24.5
		c-5.6,9.3-11.2,18.6-18,27.1c-0.4,0.5-0.7,1.1-1.2,1.8c1.6,0.5,2.8,0.9,4.4,1.4c4.7-5.7,9.8-11.3,14.3-17.3
		c4.6-6,8.6-12.4,13.2-18.6c-0.6,1.7-1.2,3.4-2,5c-4.8,10.7-11.7,19.9-20,28c-1.8,1.8-3.6,3.7-5.2,5.4c1,1.7,2.1,2.9,2.4,4.3
		c0.7,2.8-1.3,5.6-4.6,6.3c-2.1,0.5-4.3,0.5-6.4,0.7c-0.1-0.3-0.1-0.6-0.2-0.8c0.8-0.2,1.6-0.4,2.4-0.6c1.7-0.4,3.6-0.5,5.2-1.1
		c1.6-0.6,2.2-2,1.9-3.7c-0.2-1.7-1.6-1.7-2.8-1.7c-2.5-0.1-4.9,0-7.5-0.7c1.5-0.3,3-0.6,4.5-0.8c1.3-0.2,3.1-0.1,3.2-1.9
		c0.1-2.2-1.9-2-3.3-2.2c-1.8-0.3-3.6-0.3-5.3-0.3c-1.6,0-3.2,0.3-5.2,0.5c1.4-2.1,3.3-2,5.2-2.2c3-0.2,4.3-1.1,4.1-2.9
		c-0.1-1.7-1.6-2.4-4.6-2.1c-3.8,0.3-7.4,1.6-10,4.4c-5.9,6.5-13.2,10-21.6,11.8c-2.3,0.5-4.4,2.1-7.1,3.5c-1.6-2.2-3.7-4.7-5.5-7.4
		c-1.9-3-3.6-6.2-5.2-9.4c-2.9-5.7-7.1-9.7-13.2-11.6c-2-0.6-4-1.6-6.5-2.6c2.2-2,4.3-2.3,6.4-2.7c2.9-0.6,5.9-1.3,8.7-2.3
		c2.4-0.8,4-2.8,3.7-5.4c-0.4-3.5,1.1-5.8,3.9-7.8c-1.3-2.6-0.5-5,1.2-7.2c-0.8-0.8-1.4-1.5-2-2.2c-1.5-1.8-2.3-3.5-1.2-6
		c1.3-3,0.4-4.3-2.7-5c-4.7-1.1-5.5-2-4.7-6.7c0.9-5.4,0.8-10.7-0.8-15.9c-4.7-14.5-15.4-21.8-29.8-24.6c-6.7-1.3-13.4-0.7-20,0.7
		c-8.3,1.7-16.1,4.5-23.5,8.6c-15.6,8.4-22.3,21.8-21.4,39.2c0.7,12.8,5.8,23.6,15.4,32.2c2.5,2.3,5.3,3.9,8.5,4.9
		c2.5,0.8,5,1.7,7.3,2.9c1.8,0.9,3.3,2.3,5.3,3.7c-2.2,3.2-5.6,5.2-6,9.3c8.8,6,17.9,11.4,28.5,14.2c-0.1,0.3-0.1,0.5-0.2,0.8
		c-1-0.1-2,0-2.9-0.3c-7.9-2.1-15.2-5.6-22-10.1c-7.4-4.8-15.3-8.7-23.3-12.3c-1.7-0.8-3.6-1.6-5.4-1.9c-3.4-0.5-5.4,1.9-4,5.1
		c0.8,1.8,2.2,3.5,3.8,4.8c2.2,1.8,4.7,3.3,7.2,4.8c6.9,4.4,13.9,8.8,20.8,13.3c1.7,1.1,3.1,2.6,4.4,4.5c-0.9-0.3-2-0.4-2.8-0.8
		c-4.3-2.4-8.8-4.6-12.9-7.3c-5.6-3.7-11-7.8-16.5-11.7c-2.4-1.6-4.8-3.2-7.4-4.5c-1.3-0.7-2.9-1-4.3-1.1c-1.7-0.2-2.9,0.7-3.5,2.3
		c-0.6,1.5-0.3,2.7,0.7,3.8c1.2,1.2,2.4,2.3,3.8,3.2c5.4,3.9,10.3,8.2,14.6,13.3c3.3,3.8,7.5,6.4,11.9,8.7c2.3,1.3,4.7,2.5,6.3,4.8
		c-9.2-3.7-18.8-6.9-24.4-16.2c-0.3-0.5-0.5-1.1-1-1.3c-0.9-0.4-2.1-1.1-2.9-0.8c-0.7,0.3-1.5,1.6-1.5,2.5c0.1,4.5,1.7,8.6,4.2,12.3
		c3.7,5.3,8.2,9.6,13.7,12.9c2.2,1.3,4.5,2.6,6.8,3.9c1.1,0.7,2.2,1.5,3.2,2.8c-0.7,0-1.4,0.1-2.1,0c-7.2-1.2-13.6-4.4-19-9.2
		c-1.6-1.4-2.6-3.5-3.9-5.2c-0.8-1.1-1.4-2.5-2.3-3.3c-0.7-0.6-2.1-1.1-2.9-0.8c-0.6,0.3-1.2,1.8-1.1,2.7c0.9,5.4,2.5,10.5,6.6,14.3
		c2.2,2.1,4.6,4,7.2,5.4c9,4.7,18.1,9.3,27.3,13.7c5,2.4,10.2,4,15.7,4.8c11.3,1.6,21.3,6.1,29.8,14c1.1,1,2.2,2,3.3,3
		c24.5,0,49,0,73.4,0c-1.9-1.2-3.9-2.4-5.8-3.5c-3.2-2-6.5-3.9-9.6-6c-10.6-6.9-21.1-13.9-31.6-21c-5.7-3.9-10.8-8.5-15.1-13.9
		c-1.3-1.7-2.4-3.7-3.1-5.7c-1.6-5.1-3.5-10.1-6.5-14.6c-1.4-2.2-2.6-4.6-3.5-7c-2.4-6.1-5.5-11.7-9.9-16.5c-0.5-0.5-0.9-1.2-1-2
		c5.6,5.1,10.5,10.7,13.5,17.7c1,2.4,2,4.8,3,7.2c3.5,7.9,9.5,13,17.5,15.9c4,1.5,8,1.7,12.1,0.3c5.9-2,11.6-4.2,16.7-7.9
		c0.4-0.3,0.9-0.5,1.9-1c-0.7,2.4-1.3,4.3-1.8,6.3c-2.1,7.5-2.5,15.1-0.7,22.8c1.9,8,6.3,14.3,13.5,18.4c4.7,2.6,9.6,4.7,14.4,7.1
		c2.1,1,4,2.3,6,3.4c6.1,0,12.1,0,18.2,0c0.1-0.3,0.2-0.6,0.3-1s0.2-0.7,0.3-1.1c0.1-0.4,0.2-0.8,0.3-1.2c0.1-0.5,0.3-0.9,0.4-1.5
		c0.2,2.2,0.3,3.5,0.4,4.8c22,0,44,0,66,0c2.7-9.2,5.9-18.2,10.6-26.7c2.1-3.8,4.7-7.4,7.1-11c0.3-0.5,0.9-0.8,1.7-1
		c-0.8,1.7-1.7,3.3-2.4,5c-2.8,6.7-1.7,11.3,3.8,16.1c1.3,1.2,2.8,2.3,4.2,3.3c4.7,3.3,6.1,10,0.6,14.2c2.8,0,5.5,0,8.3,0
		c2-2.9,4-5.8,6.2-9c4.4,2,8.9,2.4,12.9-1.2c3.1-2.8,4.6-6.3,4.4-11.3c-1.4,1.5-2.2,2.5-3.1,3.4c-2.8,2.8-5.9,3.3-9.4,1.4
		c-6.5-3.6-8.4-8.8-5.4-15.6c0.9-2,1.9-4,2.9-5.9c0.2-0.3,0.6-0.5,1.3-1.1c-1,6.4,2.6,9.7,7.3,12.3c2.3,1.3,4.6,2.4,6.9,3.7
		c4.3,2.5,5.8,5.2,5,9.4c-0.8,4.1-3.1,7-7.4,7.8c-0.7,0.1-1.3,0.4-1.9,0.7c-0.1,0-0.2,0.2-0.2,0.3c2.1,3.2,4.9,4.2,8.8,3.2
		c5.5-1.5,9.3-5.1,12.3-9.7c0.7-1,1.2-2.1,1.9-3.4c3.1,0.3,6.3,0,8.8-2.2c1.5-1.3,3-2.7,3.2-5.4c-1.5,0.5-2.6,0.9-3.7,1.2
		c-4.3,1-7.4-1.1-8.1-5.3c-0.1-0.4-0.2-0.8-0.1-1.2c0.3-4.8-1.1-8.7-6.7-10.7c3.9-0.2,6.9-0.1,9.8-0.5c3.1-0.5,5.3-2.4,6.3-6.2
		c-1.8,0.6-3.1,1-4.3,1.4c-7.3,2.2-13.1-3.2-11.4-10.6c0.5-2,1.3-3.9,2-5.8c1.3-3.6,2.5-7.2,3.9-11.1c0.9,0.7,2,1.6,3.1,2.5
		c5.1,4.1,11.1,4.6,16.1,1.4c0.3-0.2,0.5-0.6,1.2-1.2c-1.1-0.3-1.9-0.5-2.7-0.7c-2.5-0.7-5.2-0.9-7.5-2c-6.4-3-9.1-7.8-7.7-14.7
		c1-4.9,2.8-9.8,4.5-14.5c1.4-4,3.3-7.8,4.8-11.8c1-2.7,1.9-5.4,2.6-8.2c2-8.6,0.4-16.4-5.7-23c-2.2-2.4-4.6-4.7-6.9-7.1
		c-5.4-5.5-9.3-11.7-11.3-19.2c2.9,3.4,3.9,8.2,7.8,11.1c0.3-0.5,0.7-0.9,0.6-1.2c-0.2-5.2,1.6-10,3.1-14.8c0.8-2.8,1.6-5.6,2-8.4
		c1.4-9.2-1.3-17.1-7.6-23.8c-2.2-2.3-4.4-4.5-6.7-6.7c-7.7-7.7-9.8-17.5-10.1-27.9c0-0.2,0.3-0.4,0.6-0.9
		c5.9,13.2,12.8,25.3,27.1,30.4c0.2-0.2,0.5-0.4,0.7-0.6c-0.4-0.5-0.8-1.1-1.3-1.5c-14.8-11-22.2-26.2-25-43.9
		c-1.1-7.2-1.3-14.5-2.4-21.7c-1.9-11.6-7.9-20.9-17-28.4c-5.7-4.7-12.1-8.2-18.9-10.9c-8.9-3.5-16.4-8.9-22.4-16.3
		c-8.1-10-18-18.4-29.2-24.7c-3.6-2-7.2-3.8-11-5.3c-3.8-1.6-7.9-3.3-11.9-3.9c-1.8-0.3-3.7-0.3-5.6-0.3c-9.8-0.1-19.5,0.3-29.3,0.6
		c-1.8,0.1-3.6,0.1-5.4,0.2c-2.6,0.1-5.2,0.2-7.8,0.3C373.4,411.8,372.1,411.8,371.1,412.1z M318.2,633.5c0.4,1.5,0.6,2.5,1,4.4
		c-1.8-0.7-2.8-1.1-4.4-1.7C316.1,635.2,317,634.5,318.2,633.5z M281.2,646.1c1.8-2.4,4.4-3.2,6.9-2.3c2.7,0.9,4.3,2.9,4.5,5.8
		c0,0.5-0.3,1-0.6,2.2c-0.7-1.6-1-2.7-1.6-3.6c-1.1-1.7-2.8-2.5-4.9-2.4c-2.2,0.2-3.3,1.6-4.1,3.5c-2.3,6.3,2.7,12.6,9.3,11.8
		c0.8-0.1,1.6-0.3,2.3-0.4c0.1,0.3,0.2,0.7,0.3,1c-1.4,0.4-2.7,1.3-4.1,1.2c-4.1-0.2-7.3-2.2-9.2-6
		C278.3,653.2,278.6,649.5,281.2,646.1z M283.8,695.8c-4.7-4.4-9.7-8.7-14.1-13.4c-2-2.2-3.2-5.4-4.3-8.3c-0.6-1.7-0.6-3.8-0.3-5.6
		c0.7-3.6,4.5-4.7,7.3-2.3c0.8,0.7,1.4,1.6,2.1,2.5c-0.4,0.1-0.8,0.3-0.9,0.3c-1.3-1-2.6-2.4-4.4-1.3c-2,1.1-2.2,3.3-1.6,5.1
		c0.8,2.6,1.8,5.3,3.4,7.4c2.9,3.8,6.3,7.2,9.5,10.8c1.3,1.5,2.6,2.9,4,4.3C284.3,695.3,284,695.5,283.8,695.8z M293.9,689.2
		c-1.8-1.9-3.6-3.9-5.4-5.8c0.2-0.2,0.4-0.4,0.6-0.6c1.8,1.9,3.6,3.9,5.4,5.8C294.3,688.8,294.1,689,293.9,689.2z M414.9,670.9
		c-4.5,8-9.1,16-13.5,24.1c-3.5,6.2-7,12.4-10.3,18.8c-7.1,13.7-8.3,28.3-6.7,43.3c0.2,1.6,0.3,3.2,0.5,4.9
		c-0.3,0.1-0.5,0.1-0.8,0.2c-0.6-2.7-1.2-5.3-1.6-8c-2.6-15.7-0.5-30.7,7.4-44.6c4.1-7.2,8.4-14.2,12.7-21.2
		c4.5-7.4,9.2-14.6,13.8-21.9c0.2,0.1,0.4,0.2,0.6,0.2C416.2,668,415.6,669.5,414.9,670.9z M315.6,548.6c-1-7.3,7.1-11.7,16.4-8.7
		C325.1,541,319.1,542.1,315.6,548.6z M326,565.2c0.9-5.8,6.6-12.6,12.2-14.4C334.3,555.7,331.5,561.5,326,565.2z M331.2,528.4
		c-13-7.7-25-16.3-30.5-31.3c8.7,13.7,21.3,22.6,35.8,29.2c14.6,6.6,30.1,6.1,45.6,5.8C364.7,536.6,347.5,538.1,331.2,528.4z
		 M420.6,548.2c-0.8,3.7-1,7.6-4.7,9.7c-1.6,0.9-3.3,1.2-5.3,0.3c1.7-1.3,3.5-2.2,4.8-3.6c1.2-1.3,1.9-3.1,3.2-5.4
		c-9.5,0.6-18.3,1.5-23.1-8.3c4,3.3,8.2,6.7,13.7,6.8c5.3,0.1,10.6-0.4,16-0.4C423.8,547.5,422.3,547.8,420.6,548.2z M435.5,664.1
		c-0.2-0.2-0.4-0.3-0.6-0.5c0.4-0.7,0.7-1.4,1.1-2c0.2,0.1,0.3,0.1,0.5,0.2C436.2,662.5,435.8,663.3,435.5,664.1z M516.9,715.5
		c1.6-5.3,3.5-10.4,4.6-15.7c1.1-5.2,1.4-10.5,2-15.9C525.9,691.5,521.6,710.6,516.9,715.5z M541.1,659.6c-0.5-1-1-2-1.6-3
		c-6.7-8.7-15.5-14.6-25.1-19.5c-2-1-3.8-2.2-5.7-3.4c-5.3-3.3-9.1-7.9-11.3-13.7c-1.4-3.7-2.6-7.5-4.1-11.2
		c-1.7-4.1-3.3-8.1-5.4-12c-3.4-6.3-8.9-9.5-15.9-10.4c-3.9-0.5-7.9-0.9-11.8-1.7c-5.5-1.2-10.5-3.7-14.6-8c0.9,0.5,1.8,0.9,2.6,1.5
		c6.2,3.9,12.9,6,20.2,6.3c10.4,0.4,18.1,5.1,22.4,14.7c2.4,5.3,4.7,10.5,6.6,16c3.1,9.1,8.9,15.6,17.2,20.1c3.7,2,7.5,4.1,11.1,6.4
		c5,3.1,9.2,6.9,12.6,11.7c0.6,0.9,1,1.9,1.5,2.9c0.6,0.9,1.3,1.9,1.9,2.8C541.6,659.4,541.4,659.5,541.1,659.6z M456,572.6
		c7,2,14.6,1.1,21.5,4.2C470.3,575.6,462.8,576,456,572.6z M554.6,644.1c5.3,8,5.4,17,2.2,26c-0.3,0.9-1,1.8-2,2.5
		c0-1-0.1-2.1,0-3.1c0.6-8.5-1.5-16.3-6.2-23.4c-3.2-4.9-6.3-10-7.6-15.9c-0.1-0.5-0.2-1-0.3-1.5c0.2-0.1,0.4-0.3,0.6-0.4
		C545.8,633.6,550.8,638.4,554.6,644.1z M537.1,573.2c6,6.2,10.4,13.4,11.6,22.9c-0.7-1-1.1-1.4-1.2-1.8
		c-2.2-7.1-6.7-12.8-11.6-18.3c-2.8-3.2-5.4-6.6-8-9.9c-0.7-0.9-1-2.1-1.5-3C530,566.5,533.7,569.7,537.1,573.2z M489.3,462.7
		c7.7,3.4,15.2,7,21.9,12.1c6.4,4.9,11.7,10.8,15.2,18.1c1.3,2.8,2.5,5.7,2.5,9.1c-0.4-0.2-0.8-0.2-0.9-0.4
		c-3.7-6.3-9.5-9.8-16.1-12.2c-10.1-3.6-16.9-10.5-21-20.2c-0.9-2.1-2.1-4.1-3.3-6.5C488.4,462.8,488.9,462.6,489.3,462.7z M486,487
		c4.2,4.6,9.4,8,14.6,11.3c5.7,3.6,11.2,7.5,15.8,12.5c7.4,8.2,9.5,16.9,6.2,28c2.2-16-5.3-26.5-18.9-33.5c2.9,3.7,6.1,7.2,8.7,11.1
		c2.6,3.8,4.4,8.1,3.2,13c-0.5-0.1-0.8,0-1-0.1c-4.8-4.3-9.5-8.7-14.3-12.9c-4-3.5-7-7.6-8.7-12.7c-1.9-5.3-4.1-10.4-6.2-15.6
		c-0.1-0.3-0.1-0.8-0.1-1.2C485.5,486.9,485.9,486.9,486,487z M508.6,540.7c-0.3,0.2-0.7,0.4-1,0.5c-3.9-9.5-13.6-12.8-21.1-19.3
		c6.6,1.9,16.6,9,19.7,13.8C507.1,537.3,507.8,539,508.6,540.7z M482.9,555.2c5.6,3,11.9,3,18,3.8c3.8,0.5,7.6,1.2,10.8,3.6
		c-6.1-0.9-11.9-1.7-17.7-2.5c-4.2-0.6-8.3-1.5-11.8-4.4C482.5,555.5,482.8,555.2,482.9,555.2z M482.9,566.5
		c5.6,1.3,10.5,4.2,14.1,8.7c6.6,8.3,10,18.1,12.3,28.4c-0.6-1.4-1.2-2.8-1.8-4.2c-2.7-5.7-5.2-11.5-8.2-17
		c-5.1-9.2-13.1-13.9-23.6-15c-5.3-0.6-10.5-1.9-15.7-3.2c-3.1-0.8-5.8-2.7-7.8-5.5c0.6,0.3,1.2,0.5,1.7,0.8
		c5.5,3.3,11.6,4.7,18,5.4C475.6,565.2,479.3,565.7,482.9,566.5z M445.3,534.7c5.3-1.5,10.6-2.8,15.9-4c2.1-0.5,4.3-0.3,7.4-0.6
		c-8.4,2.6-15.9,5-23.4,7.3c-9.8,3-19.5,2.8-28.6-2.5c-0.8-0.5-1.6-1-2.4-1.5c-0.3-0.2-0.6-0.5-0.9-0.8c0.1-0.2,0.2-0.4,0.3-0.7
		c0.6,0.2,1.2,0.4,1.8,0.7C425,537.2,435,537.6,445.3,534.7z M429,426.8c-12.7-0.5-22.3-8.7-33.2-13.5
		C407.4,416.5,417.1,424.2,429,426.8z M409.3,505.8c4.2,1.7,8.4,3.3,12.6,4.9c-0.1,0.3-0.2,0.6-0.3,0.8c-4.3-1.3-8.6-2.6-12.9-3.9
		c-3-0.9-6-2.1-9.1-2.6c-5.2-0.9-10.4-0.2-15.3,2c-5.1,2.2-10.3,3.6-15.9,3.7c-8.3,0.3-16.1-1.9-23.4-5.5
		c-10.8-5.3-19.9-12.6-27.1-22.3c-0.7-0.9-1.3-1.8-1.9-2.7c-0.1-0.2,0-0.5-0.1-1.2c1.3,1.2,2.4,2.2,3.4,3.2
		c8.5,8.3,17.7,15.6,28.4,20.9c11.6,5.8,23.5,7.1,35.8,2.3C392.3,501.9,400.8,502.2,409.3,505.8z"/>
	<path fill="#C49A6C" d="M258.5,779.5c-8.5-0.9-16.9-2.4-24.8-5.8c-3-1.3-5.8-3-8.6-4.9c-1.9-1.3-3.1-3.2-2.3-5.7
		c0.7-2.1,2.8-3.1,5.8-2.9c1,0.1,2,0.1,3.2,0.2c-2.2-4.5-4.9-5.9-9.4-5c-4,0.8-6.4,3.7-6.4,7.9c0,3.5,1.5,6.4,3.5,9.1
		c0.8,1,1.5,2,2.7,3.6c-1.3-0.3-1.8-0.3-2.3-0.5c-13.6-4.4-26.3-10.4-37.7-19.1c-4.9-3.7-9.1-8.1-12.1-13.4
		c-1.5-2.7-2.7-5.7-3.6-8.7c-1.2-4,0.4-7.3,3.6-9.8c7.2-5.7,20.1-3.4,24.9,4.3c2.1,3.3,1.4,7.1-1.6,9.1c-3.1,2.1-7.1,1.1-9.3-2.2
		c-0.6-0.9-1-1.8-1.6-3c-0.6,0.8-1,1.2-1.2,1.7c-2.3,5.4-1.7,10.6,1.9,15.1c3.9,4.9,9.1,7.1,15.3,6.1c7.5-1.2,13.4-7.7,14.5-15.5
		c1.1-7.7-1.4-14.4-6.6-20.1c-8.3-9-21.5-12-33.4-7.7c-9.2,3.3-14.7,10.7-15.3,20.5c-0.6,9.3,3.2,16.8,9.6,23.2
		c0.9,0.9,1.9,1.8,2.8,2.7c-1.5-0.1-2.8-0.5-3.8-1.3c-4.9-3.8-10-7.3-14.5-11.5c-3.2-3.1-5.8-7-8.1-10.8c-2.7-4.5-3.6-9.5-1.8-14.7
		c0.1-0.4,0-0.8,0-1.3c-1.7,1.4-2.9,2.9-3.6,4.6c-0.8,1.8-1.2,3.7-1.9,6.4c-2-7.7-1.7-14.5,1.5-20.9c1.8-3.6,4.7-6.1,8.7-7.1
		c2-0.5,4-0.4,5.2,1.4c0.7,1,0.8,2.6,0.5,3.8c-0.6,2.1-2.4,2.9-4.6,2.8c-1.6-0.1-3.2-0.4-5.1-0.6c0.4,0.8,0.6,1.5,1,2
		c2.8,3.5,7.4,4.8,11.9,3.4c4.4-1.3,7.4-5,7.7-9.7c1-12.9-10.8-19.2-20.1-17.9c-8.2,1.2-13.3,6.3-16,13.8c-3.1,8.5-2.3,17,1.2,25.3
		c0.6,1.5,1.3,2.9,2.1,4.8c-0.9-0.4-1.3-0.5-1.6-0.7c-9.4-8.5-16.2-18.7-19.1-31.1c-2.6-11-1.4-21.6,5.2-31.2
		c3.2-4.6,7.4-8.2,12.9-9.8c6.5-1.9,11.7,1,13.6,7.5c0.1,0.3,0.4,0.6,0.8,1.2c0.4-1,0.9-1.6,1.1-2.4c1.7-7.2-2.3-13.7-9.8-15.7
		c-8.2-2.2-15.2,0.2-21.3,5.7c-5.6,5.1-8.7,11.6-10,19c-0.2,1.3-0.5,2.5-0.8,3.8c-1.2-6.2-0.5-12.2,0.7-18.1
		c2.5-12.3,7.1-23.7,15.9-33c8.4-9,18.7-13.8,31.2-13.2c8.8,0.4,16.6,6.5,19.4,14.4c2.4,7-3.1,15.4-8,17.2c-2.9,1.1-5.7,1.2-8.2-0.9
		c-2.4-2-3-4.5-1.8-7.4c0.1-0.1-0.2-0.4-0.3-0.6c-0.2,0.1-0.6,0.2-0.7,0.4c-1.5,2.6-1,5,0.7,7.3c2.1,2.7,5.1,3.8,8.4,3.3
		c4.6-0.7,8.1-3.4,10.6-7.2c2.8-4.1,4.2-8.7,4.2-13.6c0-12.6-7.2-19-16.5-20.2c-1.2-0.2-2.6,0-4.2-1.7c4.6-1.1,8.6-2.3,12.6-2.8
		c12.1-1.5,23.4,0.7,32.8,8.8c7.8,6.8,11.4,15.4,9.7,25.8c-0.9,5.2-3,9.8-8,12.3c-3.2,1.6-6.4,1.4-9.3-1c-2.4-2-3.2-4.9-2.2-7.8
		c1.2-3.4,3.4-5.6,7.2-5.9c0.7-0.1,1.5,0,2.5,0c-3.7-4.4-9.4-5.1-14.3-2.1c-4.8,3-7.6,7.5-8.2,13.1c-0.5,4.2,0.6,8.1,2.3,12
		c1.3,3,2.5,6.1,3.3,9.3c0.9,3.8,0.1,7.4-2.8,10.3c-3,2.9-6.9,2.3-9-1.3c-0.5-0.9-0.9-1.9-1.4-3.1c-1.9,3.8-1.6,6.8,1.2,9.4
		c3.2,3,6.9,3.8,11,2.2c6.6-2.6,10.5-9.7,9-16.7c-0.5-2.2-1.2-4.4-2-7c1.4,0.4,2.3,0.6,3.2,0.9c6.7,1.8,13.1,0.9,18.9-3
		c5-3.4,8.1-8.1,10-13.8c1.9-5.6,2.1-11.3,1.7-17.1c-1-16.8-12-31-27.9-36.3c-10.6-3.5-21.4-3.4-32.2-2.2
		c-13.9,1.6-26.6,6.5-38.4,13.9c-0.5,0.3-1.2,0.5-1.8,0.8c-0.2-0.3-0.4-0.5-0.5-0.8c1.2-1,2.3-1.9,3.5-2.9
		c23.5-19.5,50.7-25.8,80.6-21.9c4.3,0.6,8.2,2.2,11.4,5.3c3.7,3.6,5.6,7.8,4.2,13c-0.2,0.7-0.2,1.5-0.4,3c4.9-3.4,7.5-7.3,6.9-12.8
		c-0.9-7.3-4.9-12.4-11.4-15.6c-1.2-0.6-2.4-1.1-4-1.8c5.1-1.7,9.9-3,14.4-4.8c19.1-7.7,32.3-21,37.6-41.4
		c2.9-11.1,2.8-22.4,0.6-33.5c-1.5-8.1-3.8-16-5.6-24.1c-0.9-3.9-1.7-7.8-0.6-11.8c1.3-5,5.1-7.6,10.5-7.2c4.8,0.3,8.3,3.9,8.7,8.9
		c0.1,1,0,2,0,3.3c5.6-4.6,5.1-15.6,2.3-20.7c-3.9-7.2-10.9-11.3-19.5-10.3c-12.1,1.4-17.8,9.1-18.8,20.6c-0.4,0-0.6,0.1-0.7,0
		c-0.6-0.6-1.2-1.1-1.7-1.7c-8.6-9.4-19.1-13.6-31.9-11.3c-13.2,2.4-24.9,13.8-22.9,29.9c1.1,8.5,7,15.6,14.9,17.3
		c5.1,1.1,9.6-0.1,13-4.3c3.7-4.5,3-9.7-1.6-13.1c0,1.3,0.1,2.7,0,4c-0.3,3.6-2.7,6.2-5.8,6.5c-3.3,0.3-6.5-1.9-7.2-5.5
		c-0.4-2.1-0.3-4.4,0.2-6.5c1.9-7.3,6.8-11.8,13.9-13.8c7-2,13.6-0.6,19.8,3c8.5,4.9,15.3,11.6,21.2,19.3c0.3,0.4,0.4,0.9,0.9,1.9
		c-1.9-0.7-3.1-1.2-4.4-1.7c-8.2-2.7-17.1,1.3-20.5,9.2c-2,4.5-1.7,8.8,1.3,12.8c3.7,4.9,12.3,5.2,15.2-0.1c-1,0-1.9,0.1-2.8,0
		c-2.1-0.2-3.7-1.2-4.4-3.2c-0.7-1.9-0.2-3.5,1.3-4.9c1.6-1.5,3.7-1.6,5.4-0.6c1.8,1.1,3.6,2.6,4.9,4.3c2.8,3.7,3.9,8.2,4,12.8
		c0.3,16.7-5.8,30.5-18.5,41.4c-1,0.8-2.1,1.5-3.2,2.2c-0.3-0.4-0.4-0.6-0.4-0.6c0.2-0.5,0.4-1.1,0.7-1.5c5.8-8,8.3-16.9,8.3-26.7
		c0-5.2,1.2-10.1,4.4-14.4c0.2-0.2,0.1-0.7,0.2-1.9c-2.2,1.5-4,2.5-5.5,3.8c-3.4,3-5.1,7.1-6.4,11.4c-0.3,1.1-0.7,2.1-1.1,3.2
		c-1.4-5.9-3.3-11.4-7-16c-3.2-4.1-7.2-7.2-12.3-8.6c-3.9-1.1-7.7-0.9-10.8,2.2c-2.9,2.9-2.6,6.4,1,9.1c0.1-0.9,0.2-1.7,0.3-2.4
		c0.5-4.5,2.9-6.6,7.5-6.2c4,0.3,6.9,2.6,9.1,5.7c3.5,5,4.4,10.6,3.6,16.5c-0.3,2.5-0.3,5.2-2.5,7.3c-5.3-1.1-4.8-5.4-5-10.2
		c-0.8,1.4-1.2,1.9-1.4,2.4c-1.3,3.5-1,7,0.2,10.5c1,2.7,2.2,5.4,3,8.1c2,7,0,12.4-6.2,16.3c-1.5,1-3.1,1.9-4.8,2.4
		c-4.6,1.4-9.2,2.6-13.9,3.8c-1.6,0.4-3.3,0.5-4.9,0.8c2.1-1.4,4.3-2,6.5-2.7c4.8-1.5,9.2-3.7,12.8-7.2c3-2.9,5.5-6.2,6-10.5
		c0.3-3.2-0.2-6.2-3.3-8.1c0,1,0.2,1.8,0.5,2.7c0.8,3.2,0.6,6.3-1.5,9c-5,6.3-12,8.7-20.3,10.7c1.5-2.3,2.6-3.9,3.6-5.5
		c4.7-7.6,7.3-15.7,5.8-24.7c-0.4-2.6-1.2-5.2-3.8-7.7c1.5,9.9-1.7,17.6-7.1,24.5c-2.4,3.1-5.2,6.2-8.3,8.6
		c-6.4,4.8-12.9,9.3-19.7,13.5c-9.2,5.8-18.8,10.9-27.9,16.8c-18.1,11.7-30.3,28.1-36.2,48.9c-4.1,14.3-5.8,28.8-4.3,43.6
		c1.8,17.8,7.7,33.9,18.1,48.5c9.8,13.7,22.2,24.7,36.1,34c15.6,10.5,32.6,18.1,50.4,24.3c1.3,0.4,2.4,1.1,3.6,1.7
		c25.6,0,51.2,0,76.7,0c-1.1-0.2-2.1-0.6-3.2-0.7C267.3,780.1,262.9,780,258.5,779.5z"/>
	<path fill="#C49A6C" d="M132.2,523.1c0.9,8.8,8.2,16.4,17.6,18.3c7.3,1.5,15-2.1,18.5-8.6c0.4-0.7,0.5-1.6,0.8-2.8
		c-3.4,1.4-6.3,2.2-9.2,0.4c-3.9-2.4-5.3-8.4-3-12.4c2.3-4,7.2-5.5,11.4-3.2c4,2.1,6.4,5.5,7.5,9.8c1.2,4.6,0,9-1.9,13.2
		c-2.3,5.1-5.6,9.5-9.6,13.3c-5.5,5.2-11.2,10.1-16.8,15.2c-1,0.9-1.9,1.7-3.1,2.8c0.7,0,1,0.1,1.2,0c10.6-5.9,20.5-12.9,28.6-22.1
		c4-4.6,7.4-9.5,9.4-15.4c1.6-4.7,2-9.4,0.7-14.2c-4.2-15.9-22.3-25-37.6-19.1C136.9,502.1,131.2,511.9,132.2,523.1z"/>
	<path fill="#C49A6C" d="M174,475.4c0-3.9-3.6-7.6-7.7-7.6c-4.2-0.1-7.7,3.3-7.7,7.4c-0.1,4.3,3.5,7.9,7.8,7.9
		C170.3,483,173.9,479.4,174,475.4z"/>
	<path fill="#C49A6C" d="M119.9,546.3c-0.1,4.1,3.3,7.6,7.4,7.8c4.1,0.2,7.7-3.2,7.8-7.3c0.1-4-3.5-7.5-7.7-7.5
		C123.3,539.1,120,542.2,119.9,546.3z"/>
	<path fill="#C49A6C" d="M114.3,557.8c-3.8,0.1-7,3.3-7.1,7.1c-0.1,4.3,3.1,7.6,7.4,7.6c4,0,7.4-3.3,7.4-7.2
		C122.1,561.4,118.3,557.7,114.3,557.8z"/>
	<path fill="#C49A6C" d="M205.1,687.6c-0.1-3.6-3.1-6.4-6.7-6.4c-3.7,0-6.6,2.9-6.6,6.5c0.1,3.5,3.1,6.6,6.6,6.6
		C202.2,694.4,205.2,691.4,205.1,687.6z"/>
	<path fill="#C49A6C" d="M147.6,676.1c-4.5,1.4-8.9,1.1-13.1-1.4c-1.1-0.6-2.1-1.3-3.1-2c3.2,5.6,9.6,7.9,16.1,6.2
		c6.9-1.8,11.4-7,11.8-13.6c0.4-7-2.9-12.7-9.3-15.4c1.3,1.8,2.7,3.3,3.7,5.1c1,1.8,1.9,3.7,2.4,5.6
		C158,667.7,154.5,673.9,147.6,676.1z"/>
	<path fill="#C49A6C" d="M185.5,501.4c3.4,0.1,6.4-2.7,6.5-6c0.1-3.4-3-6.6-6.5-6.5c-3.5,0-6.2,2.8-6.2,6.3
		C179.3,498.6,182,501.4,185.5,501.4z"/>
	<path fill="#C49A6C" d="M119.6,677.4c-3,0.2-5.6,3-5.5,6.1c0.1,3.3,2.8,6,6.1,5.9c3.2-0.1,6-3,5.8-6.2
		C125.9,680.1,122.7,677.2,119.6,677.4z"/>
	<path fill="#C49A6C" d="M188.2,614.8c0-2.7-2.2-5.1-4.9-5.1c-2.7-0.1-5,2.2-5,5c0,2.8,2.1,5,4.9,5.1
		C185.9,619.8,188.2,617.6,188.2,614.8z"/>
	<path fill="#C49A6C" d="M213.9,716c2.9,0.1,4.9-1.8,4.9-4.8c0-2.9-2.1-5-4.8-5c-2.5,0-4.6,2.1-4.8,4.7
		C209,713.6,211.2,715.9,213.9,716z"/>
	<path fill="#C49A6C" d="M225,675.6c2.6,0,4.5-2.1,4.4-4.9c-0.1-2.7-2.1-4.6-4.8-4.6c-2.6,0-4.5,2.1-4.4,4.9
		C220.3,673.8,222.3,675.7,225,675.6z"/>
	<path fill="#C49A6C" d="M151.8,554c0.1-2-1.5-3.7-3.5-3.8c-2.2-0.2-3.9,1.4-3.9,3.8c0,2.2,1.4,3.6,3.6,3.6
		C150.2,557.5,151.7,556.1,151.8,554z"/>
	<path fill="#C49A6C" d="M224.8,461.1c2,0.1,3.7-1.5,3.7-3.5c-0.1-1.9-1.5-3.3-3.5-3.3c-1.9,0-3.4,1.4-3.5,3.3
		C221.5,459.4,223,461,224.8,461.1z"/>
	<path fill="#C49A6C" d="M169.3,690.3c-0.1,2.1,1.4,3.8,3.4,3.8c1.8,0,3.3-1.5,3.3-3.4c0-1.9-1.3-3.4-3.2-3.5
		C170.9,687.1,169.4,688.4,169.3,690.3z"/>
	<path fill="#C49A6C" d="M218.6,473.6c-0.2,2,1,3.5,2.9,3.7c1.8,0.2,3.5-1.2,3.6-3c0.2-1.8-1.2-3.6-3-3.8
		C220.4,470.3,218.8,471.7,218.6,473.6z"/>
	<path fill="#C49A6C" d="M206.2,670.9c-0.1-1.8-1.5-3-3.3-2.9c-1.8,0.1-3,1.5-2.9,3.3c0.1,1.7,1.6,3.1,3.3,3
		C205,674.1,206.3,672.6,206.2,670.9z"/>
	<path fill="#C49A6C" d="M116.4,641c-0.1,1.9,1.1,3.2,2.9,3.3c1.7,0.1,3.3-1.3,3.4-2.9c0.1-1.6-1.4-3.2-3-3.3
		C117.9,637.9,116.5,639.2,116.4,641z"/>
	<path fill="#C49A6C" d="M102.8,588.1c0.1,1.4,1.6,2.8,3,2.8c1.5,0,2.9-1.5,2.9-2.9c0-1.4-1.4-2.9-2.8-3
		C104.3,584.9,102.7,586.5,102.8,588.1z"/>
	<path fill="#C49A6C" d="M187.9,696c-1.5,0-2.3,0.8-2.6,2.1c-0.2,1.3,1.1,3,2.3,2.7c1.1-0.2,2.1-1.1,2.8-1.6
		C190.5,697.2,189.3,696,187.9,696z"/>
	<path fill="#C49A6C" d="M131.5,638.6c0.2,1,1.1,1.8,2.2,3.4c1.1-1.5,2.1-2.3,2.3-3.3c0.3-1.4-0.8-2.3-2.2-2.4
		C132.4,636.3,131.3,637.2,131.5,638.6z"/>
	<path fill="#C49A6C" d="M169.3,658.9c0.8-0.2,1.8-1.5,1.7-2.1c-0.1-0.9-1.2-1.7-2.3-3.2c-0.9,1.7-1.7,2.6-1.8,3.5
		C166.8,658.5,168,659.3,169.3,658.9z"/>
	<path fill="#C49A6C" d="M213.8,487.5c0.6,0.1,1.4-0.8,2.7-1.7c-1.3-0.8-2-1.6-2.7-1.6c-0.5,0-1.6,1-1.5,1.4
		C212.4,486.4,213.1,487.4,213.8,487.5z"/>
	<path fill="#C49A6C" d="M126.1,573c-0.3-0.1-1.4,0.9-1.5,1.4c0,0.7,0.6,1.4,1.4,2.8c0.9-1.2,1.9-1.9,1.8-2.5
		C127.7,574.1,126.8,573.3,126.1,573z"/>
	<path fill="#C49A6C" d="M154.5,478.1c-0.9-0.6-1.5-1.4-2.1-1.4c-0.6,0-1.2,0.8-1.7,1.3c0.6,0.6,1.1,1.4,1.8,1.6
		C153,479.7,153.7,478.8,154.5,478.1z"/>
	<path fill="#C49A6C" d="M181.6,484.2c0.1,0.1,0.3,0.3,0.4,0.4c0.2-0.2,0.5-0.5,0.7-0.7c0.4-0.4,0.8-0.7,0.9-1.2
		c0.1-0.6-0.5-1.4-1.1-2.7c-1.2,1.8-2,2.4-1.9,3C180.7,483.5,181.2,483.9,181.6,484.2z"/>
	<path fill="#C49A6C" d="M182.1,484.6c0.2-0.2,0.5-0.5,0.7-0.7C182.5,484.2,182.3,484.4,182.1,484.6L182.1,484.6z"/>
	<path fill="#C49A6C" d="M133.8,567.2c0.6,0.4,1.2,1.2,1.8,1.2c0.6,0,1.1-0.9,1.9-1.7c-0.9-0.6-1.8-1.5-2.1-1.4
		C134.7,565.6,134.3,566.5,133.8,567.2z"/>
	<path fill="#C49A6C" d="M190.8,706.5c-0.1,0.3,0.8,1.3,1.2,1.3c0.6,0,1.3-0.6,2.3-1.2c-0.9-0.7-1.5-1.6-2.1-1.5
		C191.7,705.1,191,705.9,190.8,706.5z"/>
	<path fill="#C49A6C" d="M212.2,662.5c-0.4,0-1.3,0.9-1.3,1.1c0.3,0.6,0.8,1.5,1.4,1.6c0.5,0.1,1.1-0.7,2.1-1.5
		C213.4,663.1,212.8,662.5,212.2,662.5z"/>
	<path fill="#C49A6C" d="M218.9,656c-0.5,0-1.4,0.8-1.5,1.3c0,0.5,0.8,1.4,1.3,1.5c0.5,0.1,1.2-0.7,2.1-1.3
		C220,656.8,219.4,656,218.9,656z"/>
	<path fill="#C49A6C" d="M199.2,706.1c0.1,0.5,1,1.3,1.3,1.2c0.6-0.2,1.1-0.9,2.1-1.7c-1.1-0.5-1.8-1-2.5-1
		C199.7,704.6,199.1,705.6,199.2,706.1z"/>
	<path fill="#C49A6C" d="M168.6,492c0.1,0.5,0.6,1,1.1,1.9c0.5-0.9,1.1-1.5,1-1.9c-0.1-0.4-0.8-0.9-1.3-1
		C169.3,490.8,168.6,491.6,168.6,492z"/>
	<path fill="#C49A6C" d="M211.4,677c0.4,0.1,1-0.5,2-1c-0.9-0.6-1.3-1.2-1.8-1.3c-0.3-0.1-1.2,0.6-1.1,0.8
		C210.6,676.1,211,676.8,211.4,677z"/>
	<path fill="#C49A6C" d="M206.9,679.4c0.3-0.3,0.9-0.7,0.9-1c0-0.4-0.5-0.8-1-1.5c-0.5,0.7-1,1.1-1,1.4
		C206,678.7,206.5,679,206.9,679.4z"/>
</g>
<g>
	<path fill="#C49A6C" d="M376.4,33.1c1.4,0.8,2.8,1.6,4.3,2.3c33.1,14.1,60.8,35.1,82.8,63.6c5.5,7.2,10.7,14.7,14.4,23
		c2.4,5.3,6.4,8,12.1,8.7c6.6,0.8,12.5-0.9,17.6-5.4c1.3-1.2,2.5-2.5,3.8-3.9c0.1,3.6-1.1,5.3-8.1,12c2.9,0.2,5.2-1.1,7.6-1.5
		c3.5-0.6,7-1.3,10.5-1.5c3.9-0.2,7.3,1.4,10.2,3.9c5.8,5,9.6,11.2,11.5,18.6c0.1,0.5,0,1.1,0,2.2c-0.8-1-1.4-1.5-1.8-2.1
		c-2.4-4.2-5.9-7.2-9.8-9.8c-5.3-3.6-10.5-3.5-15.8,0c-1.4,0.9-2.8,2-4.1,3.1c0.1,0.2,0.3,0.5,0.4,0.7c1-0.1,2.1-0.2,3.1-0.4
		c4.8-0.6,9.6-1,14.3,0.4c8.3,2.5,13,9.1,12.2,17.7c-0.3,3.9-1.5,7.8-1.9,11.8c-0.4,3.5-0.6,7.1-0.3,10.7c0.8,7.6,0.2,14.9-4.4,21.3
		c-1.4,2.1-1.3,3.8,0.2,5.6c1.6,1.9,3.3,3.7,5.1,5.4c1.6,1.5,3.4,2.8,5.1,4.2c2.9,2.4,4.6,5.4,4.7,9.2c0.1,4.1,1.7,7.8,3.8,11.2
		c3.7,6.2,9,7.7,15.5,4.7c0.6-0.3,1.1-0.5,2.3-1.1c-6.7,7.5-13.8,6.6-21.7-2.3c-2,3.9-3.6,7.8-3.6,12c0,6.8-1.2,13.4-2.8,19.9
		c-0.7,2.6-1,5.5-0.7,8.1c0.3,2.5,1.2,5.2,2.7,7.2c3.9,5.3,9.4,8,16.3,2.8c0.8-0.6,1.7-1.2,2.9-2c-3.7,8.2-12.5,10.3-18.8,4.8
		c-6.8-6-9.2-14.9-6.4-23.5c1.1-3.3,2-6.6,2.9-9.9c0.2-0.6,0.1-1.3-0.3-2.1c-0.5,1.2-0.9,2.4-1.4,3.6c-3.2,8.8-8.7,15.5-17.7,19
		c-1.9,0.7-3.8,1.7-5.5,2.7c-5.7,3.5-8,9.2-6,15.6c0.8,2.5,2,4.8,3.1,7.2c4.9,10.2,0.2,18.6-5.9,23.5c-5.2,4.1-11.2,4.4-17.5,0.5
		c2,0.3,3.4,0.5,4.7,0.7c4.7,0.7,8.7-0.7,11.9-4.2c5.2-5.8,6.6-12.5,4.4-19.9c-0.8-2.6-2-5.1-3.1-7.6c-1.6-3.9-2.4-7.8-2.2-12.1
		c0.3-4.7,1.9-8.9,5.2-12.2c2.5-2.5,5.5-4.6,8-7.1c3.4-3.3,7.1-6.5,9.9-10.4c4.2-6,6-12.9,4.2-20.4c-1.3-5.2-4.5-8.6-10-9.9
		c-1.5,2.9-2.6,5.9-5.8,8.1c1-3.4,3.5-5.7,2.8-8.8c-10.1-5-9.7-12.7-7-18.7c3.3,4.6,6.6,9,9.9,13.5c0.1-0.1,0.3-0.1,0.4-0.2
		c-0.8-1.7-1.5-3.4-2.5-5c-3.2-5.3-3.5-10.9-1.6-16.7c1.7-5.4,3.5-10.7,5.3-16c0.5-1.4,0.8-2.9,1-4.4c1.2-6.4,0.4-12.3-4.1-17.4
		c-3.5-4-5.9-8.6-7.5-13.6c-3.2-0.3-6.4-0.1-9.3-1c-2.9-0.9-5.5-2.8-8.4-4.4c0.3,3.2,0.7,6.3,1,9.4c-0.2,0.1-0.5,0.1-0.7,0.2
		c-0.5-0.9-0.9-1.8-1.4-2.7c-0.9-1.7-1.7-3.5-2.6-5.1c-3.9-6.6-9.5-10.5-17.4-10.6c-2.3,0-4.6-0.4-7-0.7
		c-10.4-1.5-14.2-8.5-15.7-15.7c-0.7-3.3-0.9-6.8-1.5-10.2c-1.4-7.6-5.4-10.4-13.1-9.5c-2.5,0.3-5.1,0.4-7.7,0.1
		c2.9-3.2,6.6-4.6,10.7-5c4.4-0.4,7.7,2.2,11.1,5c-2.3-9.7-10.9-11.8-17.2-9.7c-2.6,0.9-5.1,2.1-7.5,3.3c-5.4,2.6-7.8,1.9-11-3.1
		c-1.8-2.9-3.5-5.9-5.2-8.9c-3.4-5.7-8.4-8.5-15.1-8.2c-2.9,0.1-5.8,0.3-8.6,0.6c-5.6,0.7-10.6-0.9-15.1-4.3
		c-3.4-2.6-6.7-5.3-10.1-7.8c-4.8-3.5-9.6-6.8-14.6-10.1c-15-9.7-31.2-11.4-48.3-7.1c-17.1,4.3-31.4,12.9-41.8,27.5
		c-0.3,0.4-0.7,0.8-1.8,1c0.2-1.4,0.3-2.8,0.7-4.1c1.6-5.8,5-10.4,9.6-14c9.9-7.7,21.2-12,33.4-14.1c3.3-0.6,6.7-0.7,10.1-1.2
		c-6.8-1.9-13.7-2.3-20.7-1.5c-9,1-17,4.4-23.9,10.2c-1.1,0.9-2.6,1.5-4,1.8c-5.1,1.1-10.1,2.7-14.6,5.4c-4.8,3-8.6,6.9-10.6,12.3
		c-0.8,2.2-2.1,3.7-4,5c-7.3,5.3-11,12.5-10.9,21.5c0.1,6.6,3.1,12.2,7.4,17c0.9,1,1.8,2,2.9,3.1c-7.8-0.1-12.5-6.6-14.2-19.4
		c-1,0.6-2,0.9-2.8,1.5c-6.2,4.7-10.2,16.8-4.4,25.3c1.4,2.1,1.4,3.8,0.8,6.1c-2,7.2-2,14.3,1.1,21.9c2.1-2.6,4-4.8,5.8-7
		c0.2,0.1,0.4,0.2,0.6,0.4c-0.4,0.9-0.8,1.8-1.2,2.7c-3.7,7.6-5.4,15.6-3.6,24c1.8,8.5,6.9,14.1,15.2,16.9
		c-5.4-4.6-8.3-10.5-9.9-17.2c-1.6-6.6-2-13.1,1-19.6c-0.2,2.2-0.5,4.3-0.5,6.5c-0.6,18,8.9,27.5,25,30.3c5.1,0.9,10.4,1,15.6,1.1
		c9.9,0.2,13.5,2.3,16.3,11.7c1.6,5.2,2,10.8,3.1,16.1c0.3,1.4,0.7,3,1.6,4.1c2.1,2.3,4.9,2,7.6-0.5c4.2-3.9,5.6-3.7,8.6,1.3
		c2.5,4.1,5.1,4.1,7.6-0.1c0.6-1,1.2-2.1,2.5-3.1c0,2.6,0,5.2,0,7.3c0.8,0.6,1,0.9,1.2,0.9c3.8-0.5,5.9,1.5,7.6,4.7
		c2.4,4.4,6.5,5,10.4,1.7c2-1.8,3.7-4,5.2-6.3c1.8-2.9,3.1-6.1,4.7-9.2c1.4-2.8,2.9-5.6,4.3-8.4c1-1.9,2.4-2.4,4.4-1.9
		c5.5,1.4,9.1,4.9,11.2,10.1c2,5.1,2.1,10.3,0.2,15.3c-1.4,3.8-3.4,7.5-5.4,11c-1.5,2.6-3.5,4.9-5.2,7.4c-5,7.1-9.2,14.7-10.6,23.4
		c-0.3,1.9-0.9,3.8-3.5,4.4c0-0.7-0.2-1.4,0-1.9c2-5.4,4.2-10.7,6.1-16.2c0.6-1.9,0.7-4,0.5-6c-0.1-0.9-1.5-2-2.5-2.3
		c-1.6-0.5-1.9,1.1-2.4,2.3c-4.7,10.5-9.8,20.9-14,31.6c-2.4,6.1-6.3,9.6-12.1,11.8c-4.9,1.8-9.7,3.8-14.5,5.8
		c-4.5,1.9-9,3.9-14.3,6.1c-6.7-4.3-12.6-11.6-21.7-13.1c-0.1-6.1,0.5-6.8,5.9-7.6c3-0.5,6-1,8.9-1.6c4.4-0.9,5.6-2.3,6.3-6.9
		c0.1-0.4,0-0.9,0.2-1.2c1-1.5,2.1-3,3.2-4.6c-1.7-2.2,0.7-3.4,1.4-5.3c-1.3-2-2.4-4.1-0.8-6.7c1-1.6,0.2-3.3-1.8-3.8
		c-2.9-0.8-4.6-2.8-5.8-5.2c4.4-9,2.5-17.2-2.9-25c2.3,0.5,2.6,0.7,4.6,3.3c1.1,1.5,2.1,3.1,3.7,4.4c-1.2-3-2.4-6-3.6-9
		c0.1-0.1,0.2-0.3,0.3-0.4c1.6,1.4,3.3,2.8,4.9,4.3c-0.7-5.1-0.7-5.1-4-8.2c-8.8-8.3-18.9-14.2-31.1-15.8c-8-1.1-15.6-0.1-23,2.9
		c-6.5,2.6-7,2.3-7.1-4.6c0-0.8-0.1-1.5-0.3-3.1c-1.2,1.5-2,2.4-2.7,3.3c-0.7,0.8-1.4,1.7-2.4,3c-0.6-1.8-1.1-3.3-1.9-5.7
		c-1.4,5.2-1.2,10-2.3,15.1c-1.6-1.7-2.8-3-3.9-4.2c-0.2,0.1-0.5,0.2-0.7,0.3c0.8,3,1.6,5.9,2.5,9.1c-1.5,1.7-3,3.4-4.6,5.1
		c-6.3,6.8-7.8,14.9-6.6,23.8c0,0.3,0,0.7,0.1,0.8c2.8,2.7,2,6.6,3.1,9.9c3.1,9.5,8.5,16.9,17.9,20.9c4.8,2,8.4,5.2,9.5,10.7
		c-1,0.9-2,1.8-3,2.8c-7.6,7.2-12.4,20.3-3.7,32.1c3.3,4.5,6.6,9.1,9.9,13.7c0.4,0.6,0.9,1.1,1.1,1.7c1.6,3.7,3.2,7.4,6.6,10.1
		c-4-0.8-6.4-3.3-8.3-6.6c-2.5-4.4-5.1-8.8-7.9-13c-1.7-2.6-4-4.8-5.9-7.4c-1.5-2-3-3.9-4-6.2c-1.5-3.4-1.1-6.5,1.4-9.6
		c3.6-4.4,3.6-10.9,0.5-15.4c-1.5-2.1-3.2-3.8-6.1-3.1c-1.7,4.8-3.4,9.5-5.2,14.2c-0.6,1.5-1.4,3-2.5,4.2c-2.9,3.2-4.1,6.8-2.7,11
		c1.4,4.3,1,8.5-0.9,12.5c-2.2,4.6-2,8.7,1.5,12.6c0.9,1,1.7,2.3,1.9,3.6c0.5,5.6,4.5,9.3,7.1,13.7c2.2,3.7,6.1,5.5,10,6.9
		c8,2.8,16.2,5.3,24.1,8.4c12.2,4.9,24.3,10.3,36.4,15.6c0.7,0.3,1.3,0.8,2.7,1.5c-5.2,0.9-9.4-0.1-13.6-0.9
		c-6.2-1.2-12-3.8-17.7-6.7c-8-4.1-16.1-7.8-24.9-9.8c-9.4-2.1-18.8-2.3-28.1,0.5c-2.5,0.7-4.3,0.5-6.6-0.8
		c-32.8-18.2-58.4-43.7-76.4-76.7c-10.4-19.1-18.1-39.1-21.7-60.6c-2.6-15.3-2.8-30.6-1.5-46c1.5-16.8,4.9-33.1,10.5-49
		c15.7-44.7,45.1-77.8,85.7-101.3c8.4-4.9,17.5-8.6,26.2-12.9c1.3-0.7,2.7-1.3,4-2c-54.5,0-108.9,0-163.4,0c0,123.2,0,246.4,0,369.7
		c1,0,2.1,0,3.1,0.1c1,0,2.1,0,3.1,0c103.1,0,206.3,0,309.4,0c1.6,0,3.3,0,4.9,0c0,0,0,0.1,0,0.1h58.8c0.2,0,0.5-0.1,0.7-0.1
		c57.7,0,115.5,0,173.2-0.1c0.3,0,0.5-0.1,0.8-0.2c0.1,0,0.2-0.1,0.9-0.4c0-1.4,0.1-3,0.1-4.6c0-59,0-118,0-176.9
		c0-61,0-122.1,0-183.1c0-1.5,0.1-3,0.2-4.5C529.3,33.1,452.8,33.1,376.4,33.1z M214.1,125.7c2.1,1.7,4.1,3.6,6.3,5.1
		c2.1,1.4,4.6,2.3,6.8,3.5C221.5,133.6,216.7,131.4,214.1,125.7z M241.4,281.6c-2.6-0.2-4.7-1.3-6.1-3.7c-2.3-4.1-0.3-8.5,4.3-9.4
		c3.3-0.6,4.7,0.7,4.6,5.1c-1.6-1.6-1.9-3.9-4.3-3.3c-3.2,0.7-4.7,3.7-3.1,6.6c1.1,2,2.8,3,5,2.9c1.3,0,2.7-0.2,4.1-0.3
		C244.4,281.5,243.7,281.8,241.4,281.6z M480.7,175.5c2.5,3.4,4.5,6.7,7,9.6c2.1,2.5,4.4,5,7,6.9c6.9,5.1,15.3,4.7,22.1-0.5
		c0.9-0.7,1.8-1.5,3.4-1.8c-0.7,1.2-1.4,2.5-2.3,3.6c-3.5,4.3-8.2,6.4-13.7,6.4c-11.6-0.1-22.6-8.6-23.9-23.1
		C480.2,176.3,480.4,176.1,480.7,175.5z M450.6,122.8c2.6,4,4.4,8.4,4.5,13.4c-0.7-1.3-1.3-2.6-2-4c-2.4-4.9-5.5-9.2-10-12.4
		c-5.3-3.8-11.1-4.6-17.2-2.5c-3.1,1.1-6.1,2.6-9,4c-6.3,3.1-12.7,6-19.7,7.1c-7,1.1-14,1.1-20.6-2c-5.4-2.5-9.6-6.2-11.2-12.4
		c0.3,0.3,0.6,0.6,0.8,1c3.6,6.7,9.6,9.5,16.8,10.2c8.4,0.8,16.5-0.7,24.2-3.8c4.8-1.9,9.6-4.2,14.2-6.6
		C433,109.1,443.4,111.7,450.6,122.8z M361.1,87.2c0.1-0.2,0.3-0.4,0.4-0.5c1.4,1.6,3,3,4.3,4.7c2.2,2.8,4.2,5.7,6.3,8.6
		c4.1,5.7,9.5,8.3,16.6,7.6c5.3-0.5,10.7-0.3,16-0.2c1.4,0,2.8,0.5,4.3,0.8c0,0.3,0,0.6,0,0.9c-3,0.7-6,1.5-9,2
		c-5.3,1-10.6,1.4-15.9,0.7c-5.8-0.7-10.4-3.2-13.7-8.1c-1-1.5-1.9-3-2.8-4.6C365.4,95.1,363.3,91.1,361.1,87.2z M260.6,136.3
		c13-1.7,22.9-8.1,29.2-19.7c0.2-0.5,0.6-0.8,1.5-1.8c-1.3,17.8-19.5,26-33.1,22.5C259.3,136.8,259.9,136.4,260.6,136.3z
		 M239.5,71.5c-4.6,10.5-3.7,21.1-0.5,32.3C232.3,97.3,232.8,78.3,239.5,71.5z M279.9,190.7c-2.8-5.9,0.9-15.2,8.6-21.2
		C287.9,177.9,284.9,184.6,279.9,190.7z M297,141.9c-8.8,10.1-19.3,18-31.8,22.9c-8.5,3.3-17.2,4.8-26.7,1c0.7,3.2,2,5.3,4.2,6.7
		c2.3,1.5,4.8,2.7,7.2,3.9c3.1,1.5,6.3,2.8,9.3,4.3c1.3,0.6,2.4,1.6,3.6,2.4c-0.1,0.3-0.3,0.5-0.4,0.8c-5.6-2.1-11.3-3.9-16.8-6.2
		c-4.6-1.9-7.4-5.6-8.7-10.4c-0.6-2.1-1.4-3.7-2.8-5.3c-2.9-3.3-4.6-7.1-4.6-12.4c0.9,1.4,1.4,2,1.7,2.7c2.7,6,7.7,8.4,13.9,8.4
		c6,0,11.8-1.3,17.3-3.5c15.8-6.2,30-14.9,41-28.2c0.3-0.4,0.4-1.1,0.6-1.6c0.3,0.4,0.7,0.7,1,1.1
		C303.3,133.5,300.5,137.9,297,141.9z M317.3,145.4c8.6-3.5,11.8-10.8,13.1-19.3C333,137.1,327.5,145.3,317.3,145.4z M330.1,74.7
		c-3.4,3.2-6.6,6.6-9.8,10c-8.3,8.8-18.2,14.6-30.2,16.5c-5,0.8-10,0.9-15.8,0c4.7-0.7,8.7-1.1,12.5-1.9
		c10.1-2.2,18.6-7.4,25.9-14.5c2.8-2.8,5.6-5.7,8.5-8.4c6.4-6.3,14.4-9.6,23.1-10.9c7.9-1.1,15.3,1.5,21.9,5.8c2.9,1.9,5.6,4,8,6.5
		c4.9,5.2,10.7,7.6,17.8,6.6c0.3,0,0.6,0,0.8,0c7.5-0.8,13.4,1.7,17.9,7.9c2.4,3.3,5.3,6.3,9.2,8.1c-2.6,0.8-4.7-0.2-6.5-1.8
		c-1.7-1.6-3.3-3.4-4.6-5.3c-3.8-5.6-8.9-7.4-15.4-6c-2.9,0.7-6,1-8.9,1.5c-5,0.8-9.2-0.7-12.4-4.8c-1.4-1.8-2.9-3.7-4.2-5.6
		C357.9,64.4,339.8,65.8,330.1,74.7z M340,156.3c-2.7,0.6-4,0-6-3.3c4.8,1.3,8.9,1,11.3-4.3C345.3,152.8,343.3,155.5,340,156.3z
		 M355.7,143.9c-1.8-2.1-3.1-4.8-4.3-7.4c-1.2-2.6-2.1-5.4-3.1-8.1c-2.2-5.9-6.4-9.8-12.3-11.9c-1-0.3-2-0.7-2.8-1.4
		c5-0.3,9.5,1.1,13.1,4.6c2.5,2.4,4.4,5.5,6.3,8.6c1.4,2.3,2.2,5,3.3,7.5c4.4,9.7,10.5,12.2,20.3,8.3c1.1-0.4,2.2-0.8,3.9-1.4
		C373.3,150.7,361.9,151.1,355.7,143.9z M424.9,292.1c2-1,3.9-2.1,6.3-3.4c-0.3,3.1-1.6,5.4-3.1,7.5c-1.6,2.2-3.4,4.2-5.4,6.6
		c2.1,0.1,3.7,0.2,5.7,0.3c-2.7,6.7-8.2,10.3-14,14.5c1.4,0.7,2.5,1.3,3.5,1.7c12.7,5.5,15.6,15.6,7.9,27c-4,5.9-9.2,10.2-16.1,12.2
		c-2.5,0.7-3.9,2-4.9,4.4c-2.5,6-6.4,11.2-10.8,16c-0.4,0.5-1,0.8-1.5,1.2c-0.2-0.1-0.4-0.2-0.5-0.3c1.1-2.7,2.2-5.5,3.5-8.2
		c2.8-6.1,5.7-12.2,8.4-18.4c3.2-7.6,5-15.4,3.7-23.7c-0.3-2.1-0.9-4.2-1.4-6.3c-0.3,0-0.6,0-0.9,0c-0.3,1.5-0.6,3-0.8,4.4
		c-0.7,4.5-1.5,8.9-3.9,12.9c-2.2,3.7-5.1,6.5-9.5,7.2c-3.4,0.6-5.6,2.6-7.5,5.3c-2.1,2.8-4.4,5.6-6.9,8.2c-1.4,1.4-3.2,2.4-5.4,3.2
		c0.5-0.7,0.9-1.5,1.5-2c9-7.9,15.3-17.8,20.9-28.4c6.1-11.5,12.4-22.9,19-34.2c6.4-10.9,14.9-20.4,23.3-29.8
		c-2.1,8.1-6.3,15-11.7,21.4C424.5,291.6,424.7,291.9,424.9,292.1z M447.8,251.4c-1.3-6-2.4-12.1-4-18c-1.5-5.9-4.3-11.3-8.1-16.1
		c-8.5-11-20.5-13.9-33-7.7c-13.6,6.7-22.5,17.5-27,31.7c-2.7,8.3-4.6,17-6.5,25.5c-2.5,10.8-6.1,21.1-11.3,30.8
		c-10.2,19-20.4,38-30.4,57.1c-1.4,2.6-2.9,3.6-5.8,3.4c-3.1-0.3-6.8,0.7-9.3-0.7c-2.5-1.3-3.7-4.9-5.4-7.5c-3-4.6-5.9-9.3-8.9-13.9
		c-3.1-4.6-5.7-5.4-10.9-3.3c-1.3,0.5-2.5,1.2-3.6,2c-4.9,3.7-10.3,4.9-16.3,3.8c-6-1.1-11.6-3.3-16.6-6.8c-0.6-0.4-1.4-0.7-2.2-1
		c0.3-0.4,0.6-0.7,0.9-1.1c1.2,0.5,2.5,0.9,3.6,1.5c9.2,4.6,18.6,5.2,28.3,1.3c3.7-1.5,7.6-2.4,11.3-3.8c8.9-3.6,16.7-9,23.3-15.9
		c2.6-2.8,5.4-4.7,9.4-5.4c2.7-0.5,5.3-2.1,7.6-3.8c1.8-1.3,3.4-2.1,5.6-2.1c1.4,0,2.8,0,4.1-0.4c0.7-0.2,1.5-1.4,1.5-2.1
		c0-0.6-1-1.6-1.7-1.8c-1.5-0.5-3.2-0.6-4.8-1.5c1.5-0.3,3.1-0.6,4.6-0.9c0.9-0.2,2-0.3,2.7-0.9c0.6-0.5,1-1.6,0.9-2.4
		c0-0.6-0.9-1.4-1.6-1.5c-2-0.4-4-0.5-6.2-1.1c1.6-0.8,3.3-1.3,5-1.4c2.8-0.2,4.4-1.6,5.5-4.2c4-9.9,8.2-19.8,12.3-29.7
		c4.4-10.7,9.2-21.2,15.8-30.7c4.4-6.4,9.4-12.3,15.9-16.6c8.2-5.4,16.9-8.4,26.9-6.4c9.7,1.9,17.2,7.2,22.3,15.6
		C448.5,226.4,449.2,238.9,447.8,251.4z M448.8,186.2c-5.5-1.4-9.5-4.8-12.9-9.1c-3-3.8-5.7-7.7-8.8-11.5c-4.2-5.1-9.5-8.2-16.2-8.8
		c-3.1-0.3-6.3-0.9-9.3-1.6c-3.6-0.9-7.1-1.9-10-4.5c1.5,0.4,3,0.8,4.5,1.2c13.3,3.9,26.7,4.4,40.3,1.1c4.1-1,8.4-1.9,12.6-1.8
		c9.4,0,16.6,4.4,21.1,12.8c2,3.6,3.4,7.4,3.2,11.7c-0.7-1.4-1.4-2.9-2-4.3c-2.2-4.8-5.1-9.1-9.4-12.4c-4.7-3.6-10.1-5.2-15.9-4.1
		c-7.6,1.5-15.2,2.6-22.9,2.2c-0.2,0-0.4,0.2-1.2,0.6c6.2,3.7,10.3,8.9,14.6,14c2.2,2.6,4.5,5.2,7.1,7.4c5.6,4.8,11.9,6.1,18.7,2.4
		c0.4-0.2,0.9-0.3,1.7-0.5C460.4,185.7,454.6,187.7,448.8,186.2z M454.1,330.8c-0.1-1.8-0.3-2.8-0.2-3.9
		c0.7-16.2,3.1-31.9,10.5-46.6c2.7-5.3,3.3-10.9,2.2-16.8c-0.5-2.9-0.5-6-0.8-8.9c0.3-0.1,0.5-0.2,0.8-0.2c1.5,3,2.7,6.3,4.6,9
		c1.9,2.8,4.3,5.4,7,7.4c2.8,2,6.3,3.2,10.2,5C480.9,296.3,469.2,314,454.1,330.8z M480.6,244.6c0.7-3,2.5-5.7,4.1-8.4
		c1.3-2.2,3.2-4.1,4.6-6.3c4.2-6.7,3.7-13.8-1.4-19.8c-2-2.3-4.4-4.2-6.6-6.3c-4.3-4.1-6.2-9.1-5.5-15.2c0.3,0.6,0.6,1.1,0.8,1.7
		c1.5,4.4,4.3,7.9,7.6,11.1c1.8,1.7,3.6,3.4,5.1,5.4c5.6,7.1,6.9,14.8,3.3,23.2c-1.3,2.9-3,5.6-4.2,8.5c-1,2.4-2.1,4.9-2.3,7.4
		c-0.6,7.3,5.1,13.1,12.4,12.6c2.5-0.2,5-0.9,7.6-1.4c-4.5,3.6-9.5,5.6-15.2,4.5C483.5,260.1,478.7,252.5,480.6,244.6z"/>
	<path fill="#C49A6C" d="M176.9,223.1c14.1-1.2,27.8-16.5,29.5-29.5c1.4-10.5-2.3-19.5-9.6-26.6c-17-16.5-37.5-20.4-59.9-14.3
		c-13.6,3.7-23,13.1-30.3,24.7C99.3,188.9,95.4,201.5,94,215c-1.8,17.2,0.8,33.8,8.6,49.3c8,15.9,20.2,27,38,30.8
		c5.9,1.2,11.9,1.9,17.9,2.8c10,1.5,19.2,4.7,26.5,12.1c0.2,0.2,0.7,0.2,1.1,0.3c-3-9.2-9.1-18.1-17.8-24.3
		c-6.3-4.5-13.2-8.5-19.9-12.4c-7.9-4.6-15.7-9.1-22.5-15.2c-12.4-11.1-18.8-24.9-18.5-41.5c0.2-12.8,4.1-24.6,11-35.4
		c7.5-11.7,17.9-19.1,31.7-21.7c9.7-1.8,19.2-1.5,28.1,3.1c10.9,5.6,16.5,16.8,14.2,28.4c-1.5,7.7-5.9,13.2-13.5,15.7
		c-9.1,3-17.9-1.9-19.2-10.7c-0.9-6,1.9-10.4,6.7-13.6c1.9-1.3,4.2-2,7-3.3c-1.3-0.4-2.1-0.8-2.9-0.9c-10.6-1.9-22,6.9-21.7,20.2
		C149.2,213.3,162.2,224.3,176.9,223.1z"/>
	<path fill="#C49A6C" d="M155.2,249.2c6.1,2.2,11.3,5.7,15.4,10.7c0.6,0.8,1.4,1.5,2,2.2c-2.6-13-9-23-21.5-28.2
		c-3-1.3-6.2-2.3-9.2-3.7c-9.4-4.2-14.8-11.5-16.6-21.6c-1.7-9,0.3-17.5,3.9-25.7c2.3-5.2,6-9.3,10.9-12c11.3-6.3,23.1-6.7,34.9-1.6
		c6.2,2.7,10,7.6,11.2,14.3c0.5,2.8,0.5,5.6,0.8,8.4c3.5-11.4-1.4-25.8-17-28.6c-5.2-0.9-10.7-1.1-16-0.7
		c-10.5,0.8-19.7,4.8-26.7,13c-4.2,5-7,10.8-8.8,17.1c-4.6,15.8-1.3,29.6,10.4,41.3c4.4,4.4,9.4,8,15.1,10.6
		C147.7,246.5,151.5,247.9,155.2,249.2z"/>
	<path fill="#C49A6C" d="M148.9,108.9c-2.2,8.1,0.9,16.4,7.7,20.9c6.8,4.5,15.7,4.3,21.9-0.6c0.7-0.5,1.2-1.3,2-2.2
		c-2.7,0.1-4.8,0.4-7,0.3c-10.7-0.3-16.8-11.7-11.2-20.9c2.2-3.7,5.5-6.2,9.5-7.4c3.2-1,6.6-1.6,10.4-2.4c-0.5-0.4-0.9-0.8-1.3-1
		C168.8,88.6,152.6,95.3,148.9,108.9z"/>
	<path fill="#C49A6C" d="M179,140.5c-3.3,1.9-7,3.2-10.5,4.8c-0.9,0.4-1.8,0.8-2.7,1.1c7-0.4,13.7-1.7,19.7-5.2
		c5.9-3.4,10.3-8.1,12.7-14.6c4.2-11.1-1.1-23.6-12.3-27.9c1.4,2.4,2.7,4.2,3.7,6.2C196.3,118.2,191.9,133.1,179,140.5z"/>
	<path fill="#C49A6C" d="M537.8,160.6c-0.2-4.8-2.8-8.3-7.3-10.1c-4.4-1.7-8.8-1.5-13.4,0.4c0.6,1,0.9,1.9,1.5,2.6
		c2.7,3.6,5.5,7.2,8.3,10.7c3.3,4.2,4.9,8.8,4.6,14.1c-0.1,1.2,0,2.3,0,3.5c0.3,0.1,0.6,0.1,0.9,0.2c1.5-4.2,3.2-8.3,4.4-12.6
		C537.6,166.7,538,163.6,537.8,160.6z"/>
	<path fill="#C49A6C" d="M112.9,202.7c-0.4,0.5-0.6,0.7-0.7,1c-3.9,15.2-1.5,28.9,9.7,40.4c4.8,5,10.5,9.1,15.8,13.7
		c0.3-0.2,0.6-0.5,0.9-0.7c-0.4-1-0.8-2-1.3-2.9c-3.2-6.5-7.9-11.9-13.1-16.8c-8.5-8.1-12.1-18-11.3-29.7
		C113,206.1,112.9,204.6,112.9,202.7z"/>
	<path fill="#C49A6C" d="M544,243.9c1.4-6.3,0.3-11.6-3.6-16.1c-1.4-1.6-3.1-3.2-4.9-4.4c-6.2-4.3-10.2-9.8-10.2-17.7
		c0-0.1-0.2-0.1-0.6-0.4c-0.8,2-1.2,4.1-1.3,6.3c-0.4,6.4,2.3,11.5,7,15.5c5,4.3,9.4,9.2,12.3,15.2
		C542.9,242.8,543.3,243.2,544,243.9z"/>
	<path fill="#C49A6C" d="M524.9,274.5c-2.7,2.1-5.2,4.5-7.7,6.9c-1,1-1.8,2.2-3,3.8c17.7-4.1,25.8-14.3,25.1-31.5
		C537.4,262.6,531.9,269.1,524.9,274.5z"/>
	<path fill="#C49A6C" d="M148.3,171.3c-0.7-0.2-1-0.3-1.2-0.2c-7.8,2.9-12.6,8.6-14.7,16.5c-1.8,6.8,0.5,12.2,6.6,16.1
		C137.3,191.1,137.2,179.6,148.3,171.3z"/>
	<path fill="#C49A6C" d="M377.1,45.2c-7.4,2.5-14.5,5.5-22.5,5.4c7.9,4.4,15.6,5.9,23-0.4c0.1-0.1,0.2-0.2,0.3-0.2
		c3.9-2.3,8-3.4,12.6-2.3c1.3,0.3,2.6,0.4,3.9,0.6C389.1,43.9,383.1,43.2,377.1,45.2z"/>
	<path fill="#C49A6C" d="M107.3,135.2c0,3.9,2.7,6.7,6.7,6.7c3.7,0,6.5-2.8,6.5-6.5c0-3.8-2.9-6.7-6.8-6.7
		C110,128.7,107.3,131.4,107.3,135.2z"/>
	<path fill="#C49A6C" d="M127.6,112.8c5.3,7.4,13.5,10.8,19.2,6C143.4,110.7,135.2,108.2,127.6,112.8z"/>
	<path fill="#C49A6C" d="M134.8,208.1c-3.3-2.7-5.4-6.2-5.9-10.5c-0.1-1.1-0.2-2.1-0.4-4c-1.4,7.2-1.2,11.3,0.4,15.8
		c1.2,3.2,3.1,5.9,6.4,7.1c3,1.1,6.3,1.6,9.4,2.4c0.2-0.4,0.4-0.8,0.6-1.2c-1.3-1.5-2.6-3.1-4.1-4.5
		C139.1,211.4,136.9,209.9,134.8,208.1z"/>
	<path fill="#C49A6C" d="M509,142.6c1-0.4,2-1,2.9-1.5c5.3-2.9,10.8-4.6,17.1-3c-1.2-1.1-2.5-2.1-3.9-2.7c-3.9-1.5-7.8-1.4-11.7-0.1
		c-5.3,1.8-10.5,4.1-17.2,3.3C500.7,143.9,504.1,144.7,509,142.6z"/>
	<path fill="#C49A6C" d="M388.9,69.2c2,0,4.1,0,6.1,0c5.5-0.1,10.1,1.9,14,5.8c1.4,1.4,2.6,2.8,4.1,4.1c4.1,3.7,8.9,5.3,14.3,4.9
		c0.4,0,0.8-0.1,1.2-0.3c0.2-0.1,0.4-0.5,0.6-0.9c-6.9-0.5-12.3-3.6-16.8-8.2c-1.5-1.6-3-3.2-4.5-4.8c-2.8-2.8-6.1-4.2-10.1-3.6
		c-3.1,0.5-6.1,1.3-9.1,2C388.8,68.6,388.9,68.9,388.9,69.2z"/>
	<path fill="#C49A6C" d="M535,184c-2.6,7.1-5,14-3,22.1C537.6,200.4,538.9,190.4,535,184z"/>
	<path fill="#C49A6C" d="M148.1,83c-2.9,6.9-1.5,13.6,3.3,16.6C154.8,93.8,153.7,88.1,148.1,83z"/>
	<path fill="#C49A6C" d="M480.3,132.8c-7.3-3.4-13.9-6.5-20.8-9.8C462.5,131.3,472.5,135,480.3,132.8z"/>
	<path fill="#C49A6C" d="M131.1,131.2c5.9,2.7,12.1,1.5,16.6-3.1C141.2,125.2,134.4,126.5,131.1,131.2z"/>
	<path fill="#C49A6C" d="M165.8,75.7c-5.3,3.6-6.7,10.6-2.9,15C168.2,86.5,169.2,81.3,165.8,75.7z"/>
	<path fill="#C49A6C" d="M123.4,121.2c0.1-2.6-2.1-4.7-4.7-4.6c-2.3,0.1-4.5,2.1-4.5,4.4c-0.1,2.5,2.1,4.6,4.7,4.6
		C121.5,125.5,123.4,123.6,123.4,121.2z"/>
	<path fill="#C49A6C" d="M152.6,132.6c-6.7,0.4-9.9,2.6-11.6,8C147.1,142.1,151.9,138.9,152.6,132.6z"/>
	<path fill="#C49A6C" d="M175.9,84.6c0,2.5,1.8,4.5,4.3,4.4c2.3,0,4.2-1.8,4.3-4.1c0.1-2.4-1.7-4.5-4.2-4.6
		C177.8,80.2,175.9,82,175.9,84.6z"/>
	<path fill="#C49A6C" d="M139.2,96.1c-0.8,7,1.6,11.3,7.6,13.3C147.3,103,143.2,99.9,139.2,96.1z"/>
	<path fill="#C49A6C" d="M110.7,153c2.2,0,3.9-1.7,4-3.9c0-2.3-1.6-3.8-3.9-3.8c-2.3,0-4,1.6-4,3.8C106.8,151.2,108.5,153,110.7,153
		z"/>
	<path fill="#C49A6C" d="M156.5,145.1c5-2.3,6.4-6.6,3.9-10.8C156,136.9,155.2,139,156.5,145.1z"/>
	<path fill="#C49A6C" d="M185.6,95.6c4.6-1.3,5.2-2.2,4.6-6.1C186.3,90.1,185.8,90.7,185.6,95.6z"/>
	<path fill="#C49A6C" d="M182.3,70.2c1.7-0.1,2.4-1.1,2.5-2.7c-0.2-1.7-1.2-2.4-2.8-2.4c-1.4,0-2.6,1.3-2.5,2.7
		C179.8,69.3,180.6,70.3,182.3,70.2z"/>
	<path fill="#C49A6C" d="M190.9,60.4c-1.5,0-2.6,1.2-2.5,2.6c0.1,1.7,1.1,2.4,2.7,2.3c1.5-0.1,2.2-1,2.3-2.4
		C193.5,61.5,192.3,60.4,190.9,60.4z"/>
	<path fill="#C49A6C" d="M521,225.6c-1.2-4.1-2.3-5.7-5.2-7.4C516.1,221.3,517.8,223.4,521,225.6z"/>
	<path fill="#C49A6C" d="M192,98.9c3.1-1.4,3.1-1.4,2.7-3.8C191.9,95.6,191.9,95.6,192,98.9z"/>
	<path fill="#C49A6C" d="M198.6,98.5c-2.7,1-2.7,1-2.2,3.5C198,101.5,199,100.8,198.6,98.5z"/>
	<path fill="#C49A6C" d="M329.1,308.9c-10.7,4.2-19.3,11.4-27.6,19.1c-1.2,1.1-1.2,2.3-0.6,3.7c2.2,4.7,4.4,9.5,6.6,14.2
		c0.3,0.5,0.7,1,1,1.5c0.4-0.2,0.6-0.3,0.6-0.3c0.1-1.8,0.1-3.6,0.2-5.3c0.5-8.9,3.6-16.5,11.1-22c3-2.2,5.4-5,8-7.6
		c0.8-0.8,1.2-1.9,1.9-3.1C329.6,309,329.3,308.8,329.1,308.9z"/>
</g>
<g>
	<path fill="#C49A6C" d="M692.6,341.4c23.8,22.1,52.2,35.7,82.9,45.2c1,0.3,2.1,0.4,3.8,0.7c-2.8-2.6-5.1-4.7-7.3-6.9
		c-2.2-2.3-4.4-4.6-5.6-7.6c0.8,0.2,1.3,0.7,1.8,1.1c9.9,10.5,21.7,18.1,35.2,23.1c2.1,0.8,4.5,1.3,6.8,1.3
		c26.7,0.1,53.4,0.1,80,0.1c1.3,0,2.6-0.1,4.5-0.2c-1.5-2.8-3.4-4.6-5.4-6.1c-2.5-1.9-3.9-4.3-4.8-7.4c-5.1-18.2-22-31.5-40.9-32.3
		c-4.3-0.2-7.9-3.5-8.2-7.8c-0.7-9.5-4.5-17.4-11.8-23.7c-1.2-1-2.2-2.1-3.2-3.2c0.2-0.2,0.4-0.4,0.6-0.6c0.7,0.6,1.5,1,2.2,1.7
		c4.6,4.2,10,7.2,15.8,9.5c4.2,1.6,8.6,2.9,12.9,4.4c6.6,2.3,13.2,4.7,19.7,7.2c6.8,2.6,11.5,7.4,14.3,14c1.8,4.2,3.7,8.3,5.5,12.4
		c4.4,10.1,9.3,19.9,15.1,29.3c1.3,2,2.7,3.1,5.3,3c29.8-0.1,59.7-0.1,89.5,0c2.4,0,3.7-0.7,4.8-2.9c2.8-5.6,6.7-10.4,11.7-14.2
		c0.7-0.5,1.4-0.9,2.2-1.3c-5,5.6-9.6,11.4-13.8,18.1c1.2,0.1,1.9,0.3,2.5,0.3c15.7,0,31.4,0,47,0c3.5,0,6.7-1.1,9.8-2.9
		c4.6-2.8,9.4-5.1,13.9-8c3.8-2.4,7.7-4.9,10.9-8c6.6-6.7,8.5-15.2,7.8-24.4c-0.4-5.2-1.3-10.4-2.3-15.5c-0.5-2.4,0.1-3.9,1.9-5.3
		c5.8-4.5,8.8-10.8,10.4-17.8c0.5-2,0.8-4,1.2-6.2c7.7,1.3,14.2-0.2,18.7-6.8c4.4-6.4,4.5-13.3,1.8-19.6c1.6-3.3,3.5-5.9,4.1-8.7
		c1.4-6.4-2.1-12.2-9-15.4c-1.6-0.7-3.2-1.3-4.8-2c3.1-8.9,1.4-14.7-4.9-17.5c-5.6-2.5-11.8-0.7-14.6,4.3c1.7-0.4,3.2-1,4.8-1.2
		c4.8-0.6,8.3,2.9,8,7.7c-0.2,2.8-1,3.6-3.8,3.7c-8,0.4-14.4-4.4-16.7-12.6c-1.6-5.4-1.2-10.9-0.6-16.4c0.6-5.5,1.6-10.9,1.9-16.4
		c0.2-2.7,0.9-4.2,3.2-5.6c5.8-3.3,9.3-8.6,10.8-15c4.6-19.9-7.7-40.4-27.3-46.1c-7.1-2.1-14.4-1.7-21.7-1.4
		c-2.7,0.1-5.5,0.3-8.6,0.5c0.7-2.4,1.4-4.3,1.9-6.3c2.1-8.5,1-16.4-4.8-23.3c-3.4-4.1-7.8-6.5-13.4-5.8c-4.7,0.5-8.4,4.1-8.9,8.4
		c-0.4,4,2.4,7.8,7.4,9.2c-0.5-1.1-1-2-1.4-3c-0.6-1.4-0.3-2.9,0.9-3.7c1.1-0.6,2.5-0.8,3.8-0.8c0.8,0.1,1.7,0.9,2.3,1.6
		c3.5,4.1,5.1,8.8,3.6,14.2c-1.9,7.2-8,10-14.7,7c-2-0.9-4.1-2-5.5-3.5c-3.3-3.5-6.8-7-9.1-11.1c-3.3-5.8-5.7-12.1-8.4-18.3
		c-3.5-7.9-6.4-16.1-10.4-23.8c-10.5-20-27-32.5-49-37.8c-12.2-3-24.5-5.1-37.1-2.8c-10.5,1.9-20.2,5.2-27.7,13.3
		c-0.8,0.9-2.3,1.4-3.6,1.6c-4.4,0.9-8.3,2.7-11.9,5.4c-4.1,3.2-7.4,7-9.8,11.6c-1.5,2.9-3.4,4.5-7,3.9c0.8-0.6,1.4-1.1,2-1.6
		c3.2-2.5,4.1-5.9,3-9.6c-0.6-2.2-1.8-4.3-3.1-6.2c-2.8-4-6.9-6.2-11.4-7.8c-6.2-2.3-12.6-2.8-19.1-2.6
		c-13.1,0.3-24.3,4.3-31.2,16.1c-1.7-1.5-3.4-2.9-5.5-4.6c0-2.6-0.6-5.5-4-6.8c-2.5-1-3.6,1.1-4.3,2c-2.3,0-3.9-0.3-5.4,0.1
		c-3.7,1-7.5,7.4-7,11.2c0.3,2.3,3,4.9,5.3,5.2c2,0.2,3.3-0.9,4.6-3.8c0.2-0.6,0.7-1.1,1.2-1.9c1.6,2.9,3.4,5.2,6.6,5.5
		c3.2,0.3,5.3-2,7.7-4.6c-1.3,4.6-2.5,6-5.6,6.7c-1.5,0.3-3,0.5-4.5,0.4c-4.6-0.4-9,0.1-13.5,2c-0.8-2-0.7-4.6-3.8-5.1
		c0.6,3.7-1.3,6.3-3.6,8.7c-2.2,2.3-4.2,4.7-6.5,7.2c2.6-1,5.2-2,7.4-2.9c1.1,3.4,2,6.6,3,9.7c-7.1-4.2-14.5-5.9-22.4-6.9
		c0-1.3,0.1-2.4,0-3.4c-0.2-1.6-0.5-3.6-2.5-3.7c-1.4-0.1-1.8-0.7-2.4-1.6c-1.8-3-4.2-3.7-7.3-2.3c-1.2,0.6-2.3,1.5-3.5,2.2
		c-5.5,3.4-10.8,7-16.4,10.2c-6.5,3.7-12.5,8-17.9,13.1c-10,9.4-18.1,20.3-25.1,32c-13.1,21.8-21.5,45.1-23.4,70.5
		c-1.1,14.3-0.4,28.6,2.1,42.7C647.7,285.1,665.2,316,692.6,341.4z M872.6,379.1c-2.4-0.8-4.8-1.6-7.4-2.5
		C868.7,376.1,869.2,376.3,872.6,379.1z M660.7,234.5c0.9-5.9,2.8-11.5,6.1-16.5c4.3-6.5,10.3-9.2,18-8c3.9,0.6,7.9,1.2,11.8,1.3
		c4.9,0.1,8.2-3.1,9.1-7.9c0.6-3.2-0.4-6-2.7-7.2c-2.2-1.2-5-0.6-7.5,1.7c-0.5,0.4-0.9,1-1.5,1.6c-3.9-4.6-4.8-4.9-12.5-4.8
		c0.9-0.7,1.3-1.3,1.9-1.4c5.2-1.6,10.5-1.9,15.8-0.2c8.8,2.8,13.3,10.6,11.4,19.6c-0.2,0.8-0.3,1.6-0.4,2.4
		c5.2-1.2,9.6-7.2,9.9-13.1c0.5-9.1-5.7-17.2-15.2-20.1c-1.4-0.4-2.9-0.8-4.5-1.3c6.3-3.5,14.1-2.7,18.7,2.6
		c5.7,6.7,10.7,14,13.1,22.6c0.8,2.8,0.9,6,0.6,8.9c-0.9,7.9-8.4,12.8-16,10.6c-1.1-0.3-1.9-1.4-2.8-2.3c-4.1-4.2-8.6-7.7-14.4-9.2
		c-7.6-2-14.7-0.3-21.4,3.4c-5.7,3.1-10,7.7-13.7,12.9c-1.1,1.6-2.2,3.1-3.2,4.7C661.1,234.8,660.7,234.6,660.7,234.5z M725.4,359.1
		c-0.9-0.7-1.3-2.3-1.6-3.6c-1.2-4.1-3.4-7.4-7.2-9.6c4.2-3.6,4.1-8.3,3.2-13.1c-0.5-2.9-2.5-4-6.5-4.8c-0.2,1.1-0.1,2.2-0.5,3.2
		c-0.8,2.1-3.6,3.1-5.5,2c-1.6-0.9-2-3.2-0.8-5.1c2-3.3,7.6-4.6,11.5-2.6c2.9,1.6,4.9,3.8,5.3,7.4c0.3,3.3,0.7,6.5,1.3,9.8
		c1.2,6.7,3.9,12.8,7.9,18.4c0.7,0.9,1.3,2,1.5,3.3C731.1,362.7,728.1,361.1,725.4,359.1z M723.4,321.3c-6.1-3.2-11.5-3.1-17,2.2
		c0.7-3.7,1.2-6.3,1.8-8.9c3,1.2,5.6,2.2,8.3,3.2c0.8,0.3,1.6,0.5,2.4,0.5c1.9,0,3.7-0.4,4.4-2.4c0.6-1.8-0.9-2.7-2-3.7
		c-1.8-1.6-3.8-3.1-5.5-4.8c-0.6-0.6-0.9-1.6-1.1-2.5c-0.5-2-1.5-3.6-3.6-4c-2.2-0.4-3.2,1.1-4,2.8c-0.1,0.2-0.4,0.3-0.7,0.5
		c-2-1.4-4.1-2.9-6.1-4.3c0-0.2,0.1-0.4,0.1-0.6c2.3,0,4.6,0,6.8,0c4.8,0.1,9.2-1,13.3-3.6c0.5-0.3,1-0.5,1.4-0.8
		c5.7-2.9,9.3-1.8,12.6,4.2C728.5,305.2,725.7,312.8,723.4,321.3z M838.7,366.3c-4.8,0.8-9.5,1.6-14.3,2.4
		C828.7,365.3,833.3,363.9,838.7,366.3z M825.3,383c5.4,0.4,10.9,1,16.3,1.5c0,0.4,0,0.7,0,1.1c-20.7,0.7-40.7-1.9-58.7-13.7
		c1.1,0.4,2.2,0.8,3.2,1.3C798.6,379,811.7,382.1,825.3,383z M844.6,320.3c-5.4-1.5-10.7-3.2-16-5.1c-1.4-0.5-2.6-1.5-3.8-2.4
		c-0.3-0.2-0.6-0.5-0.9-0.7c-0.1,0-0.2-0.1-0.4-0.1c0,0-0.1-0.1-0.1-0.1c-0.4-0.1-0.8-0.3-1.1-0.4c-0.4-0.2-0.8-0.4-1.1-0.7
		c-1.2-0.9-2-2.2-2.5-3.8c0.9,0.8,1.7,1.6,2.6,2.5c0.8,0.8,1.5,1.7,2.2,2.5c0.1,0,0.1,0,0.2,0.1c0.1,0.1,0.2,0.1,0.3,0.2
		c0.3,0.1,0.7,0.2,1,0.3c3.4,1.1,7,1.7,10.6,2.3c0.3,0.1,0.6,0.1,0.9,0.2c1.3,0.2,2.5,0.5,3.7,0.8c0.9,0.2,1.8,0.5,2.7,0.8
		s1.8,0.6,2.7,1c2.7,1.2,5.7,1.8,7.7,4.4C850.4,321.5,847.5,321.1,844.6,320.3z M1078.5,228.3c-0.4-1.8-0.7-2.8-0.8-3.8
		c-1.6-11.6-5.8-22.1-13.8-30.7c-2.9-3.2-6.6-5.7-10-8.5c-1-0.8-2.2-1.5-3.3-2.3c0.1-0.3,0.3-0.6,0.4-0.8
		c11.1-0.1,20.4,3.9,26.5,13.5C1084,206,1084.2,216.6,1078.5,228.3z M1114.6,267.2c3.3-0.2,6.3,0.6,8.7,2.9c2.3,2.1,3.3,4.6,1.7,8.3
		c-3.4-1.9-6.3-4.2-10.6-4.1c3.1,2.5,6.4,4.2,8,8.1c-1.4,1.1-2.8,2.3-4.8,3.9c1.6-0.1,2.5-0.1,3.4-0.2c0.8-0.1,1.6-0.4,2.3-0.7
		c3.2,4.8,1.3,12.2-3.6,14.5c-4.3,2-9.7-1.2-9.8-6c-0.2-9.2-4.3-16.3-11.2-22c-2.4-2-4.6-4.1-6.7-6.4
		C1099.5,267.9,1107.1,267.7,1114.6,267.2z M1094.6,333.4c-3.2-14.3-5.8-27.8-6.2-41.9C1100.5,299.3,1101.7,316.8,1094.6,333.4z
		 M1049.9,162.1c7.4-0.5,14.8-1.4,22.1-1.2c11.5,0.3,20.1,6.1,25.1,16.5c3.6,7.5,3.3,15.1-0.6,22.5c-0.4,0.8-1.1,1.5-2,2.8
		c-0.3-1.4-0.4-2.3-0.6-3.1c-3-17.5-13.8-28.3-30.3-33.4c-5.3-1.6-11.1-1.7-16.6-2.5c-1.1-0.2-2.1-0.2-3.2-0.4c0-0.2,0-0.4,0-0.5
		C1045.9,162.5,1047.9,162.3,1049.9,162.1z M1020.4,198.5c5.3,1.5,9.9,4.3,13.5,8.4c7.6,8.7,16.1,16.5,25,23.9
		c2.3,1.9,4.3,4.4,6.4,6.6c-0.2,0.2-0.4,0.4-0.6,0.6c-0.6-0.5-1.2-1-1.8-1.4c-5.1-3.4-10.1-7.2-15.5-10c-6.6-3.4-12.3-7.6-16.6-13.7
		c-4.6-6.5-10.2-11.8-18.1-14.3c-0.2-0.1-0.3-0.4-0.6-1.1C1015,197.1,1017.7,197.8,1020.4,198.5z M1013.8,203.8
		c-7.5-2.4-13.5,0.1-18.8,5.2C999.3,201.2,1007.6,198.9,1013.8,203.8z M1006.9,236.5c-0.2,0.5-0.3,0.9-0.5,1.1
		c-13.6,10.1-22.4,23.6-28.4,39.2c-2.4,6.3-4.5,12.7-6.7,19c-0.3,0.9-0.7,1.7-1.2,3.1C967.5,279,988.7,243.4,1006.9,236.5z
		 M973.9,222.1c1.2,0.2,2.3,0.5,3.5,0.8c-8.2,1.5-13.5-3-13.6-11c0-2,0.4-4.1,0.8-6.1c0.6-3.1,1.3-6.1,2.1-9.7
		c0.9,4.7-0.4,8.5-0.9,12.4c-0.5,3.4,0.2,6.6,2.1,9.4C969.4,220,971.4,221.5,973.9,222.1z M959.9,168.6c2.7,1.4,5.2,3.4,7.8,5.1
		c-0.1,0.3-0.3,0.5-0.4,0.8c-0.7-0.3-1.5-0.6-2.2-1c-3.3-1.7-6.6-3.4-9.7-5.3c-5.1-3.1-7.7-7.8-7.7-13.8
		C949.6,161.1,953.9,165.5,959.9,168.6z M931.2,148.6c0.2,4,0.3,7.4,0.6,10.8c0.7,8.5,5.1,14.3,13.3,17.1c2.6,0.9,5.1,1.8,8.3,2.9
		C937.3,181.5,924.9,163.9,931.2,148.6z M938.8,189c3.4,0.4,6.9,0.7,10.1,1.7c4.8,1.4,6.6,5.4,4.9,9.8c-0.2-0.1-0.5-0.2-0.5-0.3
		c-0.3-5.4-1.5-7-6.7-8.2c-2.7-0.6-5.4-0.9-8.1-1.1c-9.5-0.9-14.5-5.6-15.8-14.8c-0.1-0.9-0.2-1.9-0.2-2.9c0-1.2,0.1-2.4,0.2-3.6
		c0.2,0,0.3,0,0.5,0c0.4,2.4,0.6,4.9,1.2,7.2C926.1,183.5,931.8,188.2,938.8,189z M906.2,127c5.8,3.1,12.9,3.5,17.2,9.2
		c-5.9-2.7-11.8-5.4-17.7-8.2C905.9,127.6,906,127.3,906.2,127z M905.3,138.9c-6.1,1-15.2-4.6-19-11.9
		C891.7,132.3,897.5,137,905.3,138.9z M877.7,142c3.1,3,7.2,4.3,11.8,5.4c-8.8,0.6-17.6-5.8-20.9-15
		C871.7,135.8,874.6,139,877.7,142z M867.9,139.9c-4.3-3.9-10.6-5.4-13.7-11.1C861.3,132.9,865.9,136.6,867.9,139.9z M668.6,156.9
		c3.7-5.7,8-10.8,13.7-14.7c3.8-2.6,7.9-4.4,12.5-5.1c7.2-1.1,13.5,2.8,15.7,10.2c-15.8-1.4-29.9,1.8-42.8,12.4
		C668.2,158.2,668.3,157.5,668.6,156.9z M671.8,179.1c12.4-13.2,27.8-17.8,45.5-13.2c15.2,3.9,26.9,13.1,35.4,26
		c10.1,15.4,5.2,34.6-11.2,44.6c-7.2,4.3-11.6,10.4-13.1,18.6c-1.1,5.9-0.2,11.5,3.5,16.4c4.2,5.6,11.7,8.6,19.3,4.7
		c-0.8-0.4-1.4-0.8-2.1-1c-4.2-1.3-6.1-4.4-6.6-8.5c-0.4-3.5,0.1-7,2.1-9.9c2-2.9,4.4-5.6,6.8-8.2c1.6-1.7,3.6-2.9,5.5-4.3
		c13.9-10.2,16.3-26.1,11.4-39.8c-2.3-6.4-5.9-11.8-11.3-16c-0.9-0.7-1.7-1.4-2.3-2.6c1.7,0.6,3.4,1.2,5,1.8
		c17.7,7,39.9-4,44.9-22.8c2-7.6,1.6-15-1.8-22.1c-0.8-1.7-1.9-3.2-3.4-5.7c-0.3,1.7-0.6,2.4-0.6,3.1c-0.7,19.1-14.8,26.8-27.3,28.4
		c-8,1-15.6-0.3-22.8-4c-3.7-1.9-7.3-3.8-10.9-5.8c-7.4-4.2-14.9-8.2-23.4-10.6c3.3-9.8,1.2-18-7-23.9c-8-5.8-16.6-4.2-25.4-0.8
		c0.5-0.7,0.9-1.5,1.5-2c11.2-10.3,24.4-15.9,39.5-16.4c8.7-0.3,16.9,1.9,23.9,7.5c4.5,3.6,7.8,8.1,9.2,13.8
		c1.9,8.3-1.5,14.7-9.5,17.6c-1.1,0.4-2.3,0.8-4.2,1.5c3.6,1.9,6.7,2.4,10,2c11.1-1.3,19.4-9.9,20.7-21.4c1.1-9.2-1.4-17.4-7.3-24.6
		c-0.3-0.4-0.7-0.8-1.1-1.3c-0.4-0.4-0.7-0.8-1.2-1.4c1.1-0.9,2.1-1.7,3.1-2.4c3.6,1.4,6.3,1.1,8.1-1.7c1.6-2.3,2.6-5.1,3.3-7.8
		c0.6-2.3-1.5-4.7-4.1-5.4c-2.5-0.7-4.3,0.2-5.6,2.9c-0.3,0.6-0.5,1.2-0.7,1.8c-2.3-1.1-4.3-2.1-6.5-3.1c0.6-2.4,2.7-3,4.6-3.4
		c2.6-0.6,5.2-0.8,7.7,0.5c2.4,1.2,4.7,1,7.2,0.3c4.1-1.2,7.4-3.6,10.3-6.6c4.7-4.7,9.9-8.7,16.5-10.5c8.1-2.2,16-2,23.9,1
		c5.6,2.1,9.2,5.5,8.7,11.9c-0.1,0.7,0.2,1.3,0.3,2.1c1.1,0.5,2.3,0.9,3.1,1.2c-3.3,3.1-7,6-9.9,9.5c-2.9,3.5-5.1,7.7-8.2,12.5
		c0.3-10-3.6-16.7-12-20.3c-4.2-1.8-8.6-2.6-13.4,0.2c1.9,0.5,3.4,0.8,4.8,1.2c7.1,1.9,12.5,8.4,13,15.4c0.5,8.5-5.7,14.5-13.9,11.1
		c-0.5-0.2-1-0.3-1.6-0.5c0.8,5.8,4.9,7.8,13,6.5c-4.2,6.2-15.8,8.6-20.9-1.4c-2.3-4.5-2.5-9.3-0.9-14c2-5.7,6.6-7.7,12.2-5.6
		c1.6,0.6,3.1,1.5,4.8,2.3c-0.3-5.3-2.6-8.7-7.4-10.3c-13.6-4.2-24.2,3.7-25.6,16.5c-0.7,7,1.1,13.3,5.8,19.4
		c-1.8-0.1-3-0.3-4.1-0.4c0.3,3,0.8,5.9,0.8,8.7c-0.2,7.9-3.8,14.1-11.2,17.3c-3.8,1.7-8.1,2.4-12.2,3.5c-0.8,0.2-1.6,0.2-2.4,0.4
		c3.3,6.3,15.3,9.8,23.1,6.7c6.1-2.4,10.2-6.8,12.3-13.1c1.9-6,0.8-11.9-1.9-18.3c4.8,2.4,9,5.2,13.7,4.1c4.4-1.1,8.6-3.2,13-4.9
		c-0.2,0.4-0.4,1.3-0.8,2c-7.2,11.5-0.2,24.2,10.9,26.6c1.2,0.3,2.4,0.7,3.6,0.9c4.3,0.5,6.8,3.1,8.2,7c1,2.7,2.2,5.3,3.3,8
		c0.6,1.6,1.6,2.7,3.2,3.5c7.2,3.7,10.4,9.6,9.4,17.6c-0.4,3.4-1.4,6.7-2.3,10c-1.3,4.5,1.2,7.7,5.8,7c1.4-0.2,2.7-0.7,4-0.9
		c3.6-0.4,5.3,1.2,5.7,4.8c0.1,1.6,0.4,3.3,1.1,4.6c0.9,1.7,2,1.8,6.2,1.7c0.2,0.7,0.4,1.5,0.6,2.2c0.9,3.8,3,5.1,7,4.3
		c3.6-0.7,4.5-0.3,6.3,2.9c0.3,0.6,0.6,1.2,0.9,1.8c4.2,7.9,12.2,10.7,20.3,6.5c3.5-1.8,6.6-4.5,9.6-7.1c2.8-2.4,5.2-5.3,7.9-7.8
		c5.3-5.1,10.5-5.4,16.3-1c6.2,4.8,10.3,11.4,14.4,17.9c0.5,0.7,0.2,2.1-0.1,3.1c-0.7,2.2-1.6,4.4-2.5,6.5
		c-4.4,10.5-6.7,21.5-7.3,32.8c-0.3,5.2-2.2,9.6-6.1,13.1c-3.6,3.2-7.3,6.3-10.9,9.5c-5.8,5.1-10.1,11.1-12.3,18.6
		c-3,10.3-2,20.1,4.4,28.7c4.3,5.8,9.5,11,14.4,16.4c3.8,4.2,7.8,8.1,11.6,12.3c1.3,1.4,2.3,3,4,5.3c-1.2-0.4-1.7-0.5-2-0.7
		c-6.4-5.5-12.7-10.9-19.1-16.4c-10.7-9.2-20.2-19.4-29.1-30.3c-1-1.2-2-2.3-2.9-3.5c-9.5-11.8-21.1-19.9-37.4-21.6
		c1.2-0.9,1.8-1.6,2.6-1.9c5.7-2.3,10.5-5.9,15.1-9.9c0.8-0.7,1.8-1.4,2.3-2.4c1.1-2.2,2.6-3.8,4.9-4.6c0.8-0.3,1.4-1.4,1.6-2.8
		c-1.2,0.2-2.5,0.4-4.1,0.6c0.8-2.6,3.2-4.7,1.8-8.1c-1.4,1.4-2.5,2.6-3.9,4.2c0.3-3,1.7-5.7-0.5-8.6c-1,1.8-1.7,3.2-2.5,4.6
		c-1.6-1.3-0.7-4.4-3.8-4.8c-0.4,2.5-0.9,4.9-1.3,7.7c-1.9-1.6-3.4-2.8-4.8-4.1c-0.2,0.2-0.5,0.3-0.7,0.5c0.2,1.7,0.4,3.4,0.5,5
		c0.2,2.5-0.6,4.2-3.1,5.1c-3.3,1.2-6.6,2.7-9.9,4c-5.9,2.3-11.3,1.2-16.5-2.1c-1-0.7-2.1-1.4-3-2.2c-5-4.3-10.6-7.3-17.4-8.4
		c0.4-0.1,0.8-0.4,1.2-0.3c2.8,0.4,5.1,0,6.6-2.8c0.9-1.7,2.5-1.1,4-1.1c3.5,0,7.1,0.1,10.6-0.5c1.7-0.3,3.4-1.7,4.7-2.9
		c1.6-1.5,3.4-3.1,4-5c0.8-2.4,1.9-4.6,2.8-6.9c0.4-1.1-0.8-2.8-1.4-4.3c0.5-0.5,0.9-1,1.4-1.5c2.4-2.4,2.4-3.4-0.4-5.6
		c-3-2.4-3.8-5-3.2-9c1-6.8,1-13.8-5-20c1.6,0.3,2.3,0.4,3.5,0.5c-0.2-1.3-0.3-2.6-0.5-4c0.6,0.1,1.3,0.3,2.9,0.7
		c-1.6-2.1-2.7-3.5-4-5.2c1.1,0.3,2.2,0.5,3.2,0.7c-0.5-0.8-1-1.4-1.5-1.9c-2.3-2.2-4.8-2-8.8,0.7c-0.3,0-0.6,0.1-0.8-0.1
		c-8.9-5.6-18.8-6.5-29-6.3c-1.8,0-3.7,1.2-5.5-0.5c-0.3-0.2-1.2,0.2-1.8,0.4c-9.7,3.7-16.6,10.5-21.5,19.6
		c-0.6,1.1-0.8,2.7-2.8,2.3c-0.1,0-0.6,1.2-0.7,1.8c-0.5,2.9-0.5,5.8,1.1,8.4c1.1,1.9,1.5,4,0.4,5.9c-1.4,2.4-0.6,4.4,0.7,6.1
		c2.6,3.6,4.8,7.3,6.5,11.4c1.3,3.2,4.2,5,7.4,6.2c3,1.2,3.9,2.4,3.6,5.6c-0.1,1.9-0.6,3.8-1.3,5.5c-1.8,4.2-3.8,8.2-5.8,12.3
		c-4.9,10.3-9.2,20.9-10.5,32.4c-1,9.2,0.7,18.1,3.3,26.8c1.2,4.1,2.9,8,4.4,12c-3.4-3.3-5.1-7.6-6.7-12c-0.8-2.2-1.3-4.6-2.5-6.5
		c-1.1-1.8-2.7-3.5-4.4-4.7c-1.8-1.2-3.5,0-3.7,2.2c-0.1,0.9,0.1,1.9,0.3,2.8c1.7,5.9,3.5,11.8,5.4,18.4c-1.2-0.6-2-1-2.7-1.4
		c-1-0.7-2-1.4-3-2.1c-3.9-2.5-4.7-2.4-8.4,0.9c-3.1-4.9-5.5-9.8-5.1-15.7c0.2-3.1,1.7-5.5,4-7.4c1-0.8,2.1-1.6,3.2-2.5
		c-1.5-0.5-2.9-0.8-4.3-0.8c-0.4,0-0.7,0-1.1,0.1c-0.5,0.1-1,0.2-1.5,0.3c-0.1,0-0.2,0.1-0.3,0.1c-2.6,0.9-4.9,3.1-7.1,6.8
		c-0.1,0.2-0.3,0.5-0.4,0.7c-0.4,0.8-0.8,1.6-1.2,2.5v0c0,0,0,0,0,0c-0.2-0.1-0.4-0.2-0.6-0.3c0,0-0.1-0.1-0.1-0.1
		c-2.6-8.4-4.1-16.9-1.7-25.6c2.8-10.4,9.7-17.3,19.9-20.8c1.3-0.4,2.6-0.7,4-1.1c-1.3-2-3-3.6-5.1-4.7c-6.3-3.3-15.8-2.4-25.8,2.7
		c-0.2-0.1-0.4-0.2-0.5-0.3c0,0-0.1-0.1-0.1-0.1c-1.1-5.6-5.1-7.6-10.2-7.9c-3.1-0.2-6.3,0.1-9.4,0.4c-7.2,0.8-14.3,0.8-21.1-2.2
		c-5.9-2.6-10-6.9-10.9-13.5c-1.2-8.9,8.3-18.1,17.2-16.7c6.3,1,11.1,7.6,10.1,13.9c-1,6.2-5.9,9-12,6.7c-1.9-0.7-3.6-1.8-5.7-2.9
		c0.2,4.4,2.2,7.4,5.4,9.5c5.6,3.6,11.7,4.1,17.7,1.2c5.9-2.8,9-7.9,9.6-14.4c1-12.2-7.9-22.6-20.5-24c-6.5-0.7-12.9,0.2-18.9,3.1
		c-10.3,4.8-16.3,15.9-14.5,27.1c1.6,10,6,18.5,13.6,25.2c3.4,3,6.7,6.1,10,9.2c4.7,4.4,5.3,9.6,2.4,15.8c-2.4-3.4-4.8-6.4-9.3-4.6
		c-9.7-11.1-18.6-22.5-23.6-36.6c-4-11.5-4.3-22.9,0.9-34.1c4.7-10.3,12.1-17.6,23.1-20.8c15.2-4.4,27.7,3.1,31.2,15.2
		c0.1,0.2,0.3,0.4,0.6,0.8c2.3-5.7,1.7-11.1-0.9-16.7c1.3,0.1,2.2,0.2,3.1,0.4c11.6,1.3,22.6-7.6,24.3-19.8c1.1-7.8-0.8-15-4.9-21.7
		c-13.3-21.3-44.5-28.6-66.8-7.5c-8.5,8.1-13.7,18.1-17.1,29.2c-1,3.4-1.8,6.9-2.7,10.4c-0.3,1.1-0.7,2.2-1.4,3.2
		C656.2,207.7,659.9,191.8,671.8,179.1z M832.6,154c-5.8-9-6.1-18.5-2-28.1C827.9,135.5,830.4,144.7,832.6,154z"/>
	<polygon fill="#C49A6C" points="823.4,311.9 823.4,311.9 823.4,311.9 823.4,311.9 	"/>
	<path fill="#C49A6C" d="M823.6,312C823.6,312,823.6,312,823.6,312c-0.1,0-0.1,0-0.2-0.1c0,0,0,0,0,0
		C823.5,311.9,823.5,312,823.6,312c0.1,0.1,0.2,0.1,0.3,0.2C823.8,312.1,823.7,312.1,823.6,312L823.6,312z"/>
	<path fill="#C49A6C" d="M823.6,311.9L823.6,311.9C823.6,312,823.6,311.9,823.6,311.9z"/>
	<path fill="#C49A6C" d="M745.1,83.3c-0.1-1.2-0.2-2.4-0.4-4.2c1,1.2,1.5,2.1,2.2,2.7c1.6,1.3,4.2,0.8,5.4-0.9
		c2.1-2.9-0.5-5.1-1.1-7.6c-0.5-1.9-2.3-2.7-4.2-2.6c-0.9,0-1.9,0.4-2.7,0.9c-1.4,0.9-2.6,1.9-3.9,3c-1.8,1.6-2.2,4.2-1.1,6.4
		C740.5,83.2,742.2,84,745.1,83.3z"/>
	<path fill="#C49A6C" d="M735.3,286.3c0.1,1.1,0,1.8,0.1,2.4c0.4,2.2,1.7,3.2,3.7,2.3c1-0.4,2.2-1.5,2.5-2.4c0.5-2.2,1-4.6,0.6-6.8
		c-0.4-2.3-3.2-0.6-4.5-1.7c-1.9-1.6-3.2-0.7-4.6,0.6c-1,0.9-2.1,1.6-3.2,2.4c-1.4,1-1.5,2.1-0.4,3.4
		C730.9,288,731.9,288,735.3,286.3z"/>
	<path fill="#C49A6C" d="M720.8,301.4c-0.2,0-0.7,2-0.5,2.9c0.6,2.3,2.1,4.1,4.4,4.9c4.3-3.6,5.2-7.5,2.9-12.4
		C724.9,297.9,723.9,301.2,720.8,301.4z"/>
</g>
<g>
	<path fill="#C49A6C" d="M998.6,719.5c3.6-5.6,4.2-11.2,1.2-17.1c-0.4-0.9-0.8-1.8-1.2-2.6c-2.3-4.4-3.2-9-2.8-14
		c0.2-2.7,0.1-5.5,0.2-8.2c0-5.4-1.5-10.3-5.1-14.4c-3.5-4-6.6-8.1-7.2-13.6c0-0.2-0.3-0.4-0.5-0.6c-2.7,0.7-3.2,1.3-3.5,4
		c-0.4,4.3,1.2,8.1,3.2,11.8c1.2,2.3,2.7,4.5,3.9,6.8c1.9,3.8,2.5,7.8,0.6,12.9c-2.3-7.3-4.3-13.7-6.4-20.4
		c-2.9,2.4-3.6,5.2-3.5,8.1c0.1,2.7,0.4,5.5,1.1,8.1c1.7,6.3,0.9,12.2-2.1,18c-1.2,2.3-2.5,4.6-3.5,7c-1.6,3.8-3.4,7.5-4.5,11.5
		c-1.3,4.7-3.6,8.6-7,11.9c-4.9,4.7-10.4,8.6-16.4,11.7c-17.7,9.1-36.7,14.6-56.2,18.4c-11.1,2.1-21.2,0-30.8-5.9
		c-15.9-9.8-30.1-21.7-42.8-35.3c-0.7-0.7-1.1-1.6-1.7-2.4c1.7,0.5,3,1.3,4.1,2.3c7.5,6.1,14.9,12.2,22.4,18.2
		c8,6.3,16.4,12.1,25.6,16.5c2,1,4.2,1.7,7.1,2.8c-0.8-6.7-1.5-12.5-2.2-18.2c-0.9-0.5-1.5-0.9-2.1-1.1
		c-13.9-5.8-25.4-14.8-34.8-26.3c-4.8-5.8-9.3-11.9-13.8-18c-7.8-10.5-16.6-20.1-27-28.2c-4.1-3.2-7.8-7-11.2-10.8
		c-8.8-9.8-17.4-19.8-27.4-28.5c-9.3-8.1-19.5-14.6-31.3-18.7c-4.5-1.5-8.5-1.9-12.4,1c-1.4,1-3.1,1.7-4.7,2.6
		c-10.4,5.8-15.8,14.9-17.5,26.5c-0.3,2.4-0.6,4.8-0.9,7.2c-0.2,0-0.3,0-0.5,0c-0.1-1.8-0.3-3.6-0.5-6.4c-0.6,1.8-1,2.7-1.2,3.6
		c-1.6,7.8-5.1,14.4-11.4,19.5c-5,4-7.9,9.5-9.1,15.8c-0.9,4.3-1.5,8.7-1.6,13c-0.4,11.5,1.5,22.7,4.5,33.8
		c4.4,16,11.7,30.8,19.7,45.3c1,1.9,1.9,3.9,2.9,5.9c87.7,0,175.5,0,263.2,0c0.4-0.4,0.8-0.8,1.2-1.1
		C972.1,756.6,986.1,738.7,998.6,719.5z M794.7,694.3c-0.8-1-1.6-2.1-2.3-3.1c-8.3-11.6-16.5-23.4-25-34.8
		c-7.6-10.2-16.4-19.3-27.2-26.1c-0.2-0.1-0.3-0.4-0.4-0.7c0.1-0.3,0.3-0.5,0.4-0.8c3,1.6,6.1,3.1,8.9,4.9
		c11.4,7.4,20.7,16.8,28,28.2c6.3,10,11.9,20.4,17.8,30.6C795,693,795.1,693.5,794.7,694.3z"/>
	<path fill="#C49A6C" d="M636.7,685.4c-2.4-5.6-1-10.5,2.9-14.8c3.3-3.7,7.7-5.7,12.3-7.1c3.9-1.2,7.9-2.3,11.8-3.8
		c10.1-3.9,17-10.9,20.1-21.4c0.9-3.2,1.9-6.3,2.9-9.4c3.7-11.5,10.7-20,22.3-24.4c9.6-3.6,16.5-10.2,21.7-18.8
		c0.7-1.1,1.5-2.2,2.2-3.3c-0.1,5.2-4,8.7-6.1,13.1c0.7,0,1,0,1.2-0.1c0.6-0.3,1.3-0.6,1.8-0.9c6.3-3.5,11.1-8.6,14.4-14.9
		c2.5-4.7,4.5-9.7,6.8-14.6c0.5-1.1,1.1-2.2,1.6-3.2c0.3,0.1,0.6,0.3,1,0.4c-1.1,3.4-1.9,6.9-3.2,10.1c-1.4,3.3-3.1,6.5-5.1,9.4
		c-2,2.9-4.3,5.8-6.8,8.2c-2.5,2.5-5.4,4.6-8.4,6.6c-2.9,1.9-6.1,3.2-9.7,5.1c1.7,0.6,2.5,0.9,3.4,1.2c8.2,2.5,15.7,6.7,22.5,11.9
		c8.1,6.2,15.6,13.1,22.4,20.6c1.7,1.9,3.5,3.7,5.3,5.6c0.2-0.1,0.5-0.3,0.7-0.4c-0.9-2.4-1.8-4.8-2.8-7.1c-2.1-4.8-2.9-9.8-2-14.9
		c1.5-8.4,4.3-16.3,10.3-22.6c4.7-4.9,9.9-9.5,15.3-13.8c5.8-4.5,9.2-4.2,15.4-0.1c4.5,2.9,9,5.8,13.8,8.2c2.6,1.3,5.7,1.9,8.7,2.3
		c3.4,0.6,5.8-1.2,7.3-4.2c0.8-1.7,1.3-3.6,2-5.4c1.6-4.5,1.8-4.6,6.8-4.8c3.4-0.1,4.7-1.8,3.7-5.2c-0.5-1.6-1.2-3.1-2-4.9
		c2.4,0.9,4.2,1.9,6.2,2.3c2.4,0.5,3.6-0.6,3.8-3c0.5-6.3,1.2-7,7.4-6.9c0.4,0,0.8,0,1.2,0c6-0.1,8-2.4,6.9-8.3
		c-0.8-3.9-1.7-7.8-2.5-11.7c-1.2-6-0.4-11.4,4.2-16c3.5-3.5,5.8-7.8,6.9-12.5c1.4-6.1,2.2-12.4,3.3-18.6c0.1-0.8,0.4-1.7,0.7-3.3
		c7.1,7.4,4.2,13.9-0.5,20.3c4.8-0.1,6.9-1,8.9-4.2c3.8-5.9,3.4-12,0.1-17.9c-0.6-1.1-1.3-2.2-2-3.3c3.5,1.4,5,4.3,6,7.4
		c1.6,5.6,0.4,10.8-3.5,15.7c9.8-2.6,11.6-11.8,5.4-22.3c1.5,1.6,3,3.2,4.9,5.1c-0.5-7.7-5.6-10.8-11.8-12.9
		c0.2-0.3,0.4-0.6,0.6-0.9c3.2,0.8,6.3,1.6,9.8,2.4c-0.7-4.6-2.9-7.9-5.8-10.6c-1.8-1.7-2.8-3.5-2.5-6.1c0.4-3.4-1.3-6.1-3.7-8.3
		c-3.8-3.4-9.3-4-14.2-1.5c-1.6,0.8-3.2,1.9-5.4,3.2c1.6-3,2.9-5.2,3.9-7.5c6.7-16.2-1-31-17.7-34.1c-0.1,0-0.3-0.1-0.4-0.1
		c-7.9-0.6-15.3-3.1-22.6-6c-9.7-3.8-19.6-6.2-30.2-5.6c-5.2,0.3-10.4,0-15.7,0.1c-1.2,0-2.5,0-3.7,0.2
		c-10.8,1.8-21.1,5.1-30.7,10.3c-7.7,4.1-14.1,9.5-18.9,16.8c-1.7,2.6-3.7,5.2-5.9,7.4c-4.1,4.2-9,6.1-15,4.9
		c-1.6-0.3-3.2-0.6-4.8-1c-7.6-2.1-14.4-0.3-20.6,4.4c-7.7,5.8-12.4,13.5-14.6,22.8c-0.5,2.1-0.9,4.2-1.4,6.2
		c-1.4,0.4-2.4,0.7-3.5,1c-7.5,2.2-11.6,7.4-12.3,14.9c-0.4,4.3,0.3,8.7,0.9,13.1c0.2,1.9,1.4,3.6,2.1,5.4c0.9-1.1,0.9-2.1,1.1-2.9
		c0.7-3.8,1-7.6,2.1-11.3c1.3-4.6,5-6.8,9.5-8.2c1.6,6.6,3.2,12.7,4.6,18.9c0.6,2.7,1.1,5.4,1.4,8.1c0.8,7.5-3.3,12.9-10.8,14
		c-1.9,0.3-3.9,0.2-5.7-0.2c-3.1-0.6-6.1-1.7-9.2-2.4c-3.6-0.8-7.2-2-11.4,0.2c6.4,1.6,13,1.1,18.6,6.3c-1.5,0-2.1,0.1-2.7,0
		c-3.3-0.4-6.5-0.9-9.8-1.2c-7.4-0.6-13.2,2.3-17.1,8.6c-4.2,6.7-3.8,13.8-1.4,21c0.4-1.3,0.3-2.7,0.4-4.1c0.3-4.1,0.8-8.2,2.7-12
		c2.3-4.5,7-6.7,12-5.6c-0.5,0.7-1,1.4-1.5,2c-4.6,5.7-5.7,12-3.6,19c0.9,2.9,1.7,5.8,2.4,8.7c1.2,4.8,0.2,9-3.1,12.6
		c-1.7,1.9-3.7,3.7-5.8,5.2c-3.6,2.5-7.4,4.7-11.3,6.9c-10.3,5.7-14.4,14.8-13.9,26.1c0.3,6.9,3.5,12.7,9.5,16.5
		c2.5,1.6,5.3,2.7,9.2,2.2c-5.2-4.1-8.7-8.4-9.3-14.6c-0.6-6.2,0.4-11.6,6.4-16.1c0.6,5.5,2.1,10,6.2,13.1c4.1,3.1,8.7,3.5,13.6,2.4
		c-1.1-0.5-2.2-0.8-3.3-1c-4.1-0.9-7.5-2.8-9.6-6.5c-1.9-3.2-2.2-6.6,0-9.7c2.2-3.1,5.5-4,9.1-3.4c1.2,0.2,2.3,0.7,3.6,1
		c2.1-2.9,3.4-6.5,7.9-6.6c0.3,1,0.7,1.9,0.8,2.8c0.8,3.9,1.3,7.9,2.3,11.7c2,8-0.3,14.9-5.5,21c-4,4.8-9.1,7.9-14.8,10.2
		c-17.5,6.8-28,34.8-13.3,53.6c1.4,1.7,2.8,3.4,4.1,5.2c4.5,6.4,3.1,14-3.4,18.3c-0.8,0.5-1.6,1.1-2.7,1.9c2.9,0.6,4.8-0.3,6.6-1.7
		c4-3,5.1-7.3,4.9-12.3c3.2,0.7,5.7,2.8,9,1.4c-9.3-6.9-15.8-15.3-17.9-26.5c1.5,1.3,2.6,2.8,3.9,4.2c4.8,5,9.6,9.8,14.4,14.7
		c4.5,4.6,5.1,8.3,1.3,13.5c-1.8,2.5-4.1,4.8-6.6,6.8c-4.8,3.9-6.1,9-5.4,14.8c0.9,7.4,4.5,13.5,10,18.4c3.4,3,7.3,4.8,11.9,5.3
		c2,0.2,3.9,0.2,6.4-1.2c-2.4-0.7-4.1-1-5.8-1.6c-14.7-5-18.2-19.5-7.5-30.5c0.7-0.7,1.4-1.3,2.1-2c1.6-1.5,3.1-3.1,4.8-4.6
		c4.2-3.8,5.8-8.6,4.9-14.1c-0.4-2.6-0.9-5.1-1.3-7.7c-1.6-10.4-1.6-20.5,3.2-30.2c0.3-0.5,0.2-1.2,0.3-2
		c-6.3,0.1-12.1,0.9-17.2,4.4C639.1,673.7,637,679.1,636.7,685.4z M863.2,530.5c-6.6-3.7-12.3-7.8-17.3-12.7
		c0.2-0.3,0.3-0.5,0.5-0.8c2.9,1.9,5.9,3.9,8.9,5.8c2.9,1.8,6,3.3,10.3,2.8C864.6,527.4,864,528.7,863.2,530.5z M868.5,511
		c-1.9-0.9-4.1-1.3-6.1-1.9c5-0.8,9.1,0.7,11.8,5.2C872.3,513.2,870.5,511.9,868.5,511z M791,531.8c-3.8,0.9-7.6,1.8-11.4,2.8
		c-0.1-0.2-0.1-0.4-0.2-0.6c1.5-0.5,2.9-1.1,4.5-1.5c18.3-4.7,31.9-15.4,41.2-31.8c1.8-3.2,4-6.2,6.1-9.3c0.4-0.5,0.9-0.9,1.9-1
		c-1.3,2.7-2.7,5.5-4,8.2c0.2,0.1,0.3,0.3,0.5,0.4c0.8-0.6,1.5-1.2,2.3-1.8c3.4-3,6.6-6.2,10.1-9.1c4.4-3.7,9.6-5.2,15.3-4.9
		c2.1,0.1,4.1,0.2,6.2,0.4c9.9,0.9,19.2-0.4,27.3-7.3c-0.3,0.6-0.6,1.2-1,1.7c-2.3,2-4.5,4.1-6.9,5.9c-5,3.7-10.6,5.1-16.7,3.3
		c-1.7-0.5-3.5-0.8-5.2-1.2c-6.2-1.6-11.8-0.3-16.7,3.6c-2.9,2.3-5.7,4.8-8.2,7.5c-9.5,10.1-19.9,19.4-30.5,28.3
		c-8.7,7.3-18.6,11.9-30,13.6c5.3-2.1,10.5-4.3,15.8-6.4C791.2,532.3,791.1,532,791,531.8z M761.1,555.9c0.2,0.1,0.5,0.2,0.5,0.3
		c0.7,6.3,2.8,12.3,5.2,18.1c3.8,9.4,2.2,18.3-2.5,26.9c-0.3,0.6-0.8,1.1-1.2,1.6c-0.2-0.1-0.4-0.2-0.5-0.2c0.4-1.2,0.8-2.5,1.3-3.7
		c3.6-8.6,3.9-17.2,0.3-26C762,567.5,760.6,561.9,761.1,555.9z M747.5,531.6c0-0.1,0.1-0.1,0.1-0.2l0,0c0,0,0,0,0,0l0,0
		c0,0,0.1-0.1,0.1-0.1c0.1-0.4,0.2-0.8,0.4-1.2c0.1-0.5,0.2-1.1,0.4-1.6c0.4,0.4,0.8,0.8,1.2,1.2c-0.6,0.6-1.2,1.1-1.9,1.7
		c0,0.1,0,0.1-0.1,0.2C747.7,531.5,747.6,531.6,747.5,531.6c-1.9,3.8-3.8,7.6-5.6,11.4c-0.3-0.1-0.5-0.3-0.8-0.4
		C742.6,538.6,743.9,534.5,747.5,531.6z M693.7,503.6c0.8,2.9,1.9,5.7,2.8,8.6c0.3,1,0.4,2,0.7,3.6c-6.7-8.5-11-24.2-8.5-31.1
		c3.5-0.4,7-0.8,11.3-1.3c-1,1.2-1.5,1.8-2,2.3C692.9,490.8,691.8,496.9,693.7,503.6z M686.8,470.2c3.3-6.2,8.4-10.5,15-12.8
		c4.7-1.6,9.7-2.5,14.6-3.7c0.1,0.4,0.2,0.8,0.4,1.1c-5.8,2.8-9.5,7.8-13.3,12.6c-4.6,5.6-10.5,7.4-18.1,7
		C685.9,472.8,686.2,471.4,686.8,470.2z M658.9,566c0.4-3.4,0.7-6.8,1.5-10.1c1-4.4,4-7.3,8.5-7.9c5.1-0.7,10.3-1,15.5-1.4
		c4.3-0.4,8.4-1.4,11.5-4.7c0.6-0.7,0.9-1.6,1.4-2.5c0.4,0.3,0.7,0.6,1.1,1c-1,3-2.8,5.4-5.1,7.6c-3.8,3.6-8.5,5.5-13.5,6.6
		c-2.4,0.6-4.8,1.1-7.2,1.5c-6.2,1.1-10,4.8-11.7,10.7c-0.3,0.9-0.6,1.8-1.5,2.6C659.2,568.3,658.8,567.1,658.9,566z"/>
	<polygon fill="#C49A6C" points="747.6,531.4 747.6,531.4 747.7,531.5 	"/>
	<path fill="#C49A6C" d="M1019.5,599.5c12-1.9,20.2-9.1,25-19.9c5.7-12.7,3.8-25-2.8-36.7c-5.5-9.7-13.6-16.9-23.1-22.4
		c-5.9-3.4-12.2-6.2-18.2-9.6c-3.7-2.1-7.3-4.5-10.6-7.1c-3.4-2.7-5.5-6.5-6.6-10.7c-1.5-6.1,0.7-12.3,5.4-15.3
		c4.6-2.9,10.9-2.3,15.8,1.4c6.6,5,9.7,15.7,6,22.6c-0.3,0.6-0.4,1.4-0.6,2.2c7.8-1.5,12.5-6,13.7-13.3c0.4-2.5,0.3-5.2-0.2-7.7
		c-2.1-11.3-13-21.5-24.2-23.1c-19.1-2.7-30.5,12.7-30.9,26.6c-0.3,15,6.8,26,19.3,33.7c5.1,3.1,10.9,4.5,16.7,5.8
		c2.8,0.6,5.5,1.3,8.3,2c-0.1,0.3-0.1,0.5-0.2,0.8c-6.4-1.3-12.8-2.4-19.2-4.1c-6.6-1.7-12.4-5.1-17.6-9.6
		c-8.8-7.7-12.8-17.7-14.2-28.9c-1-7.5-1.5-15-2.6-22.5c-1.7-11.9-5.8-22.9-14.3-31.8c-0.5-0.5-0.7-1.2-1.4-2.4
		c16.7,2,31.6,7.3,46,14.4c24.2,11.9,42.1,30.1,53.2,54.9c0.4-0.1,0.7-0.3,1.1-0.4c0.1-0.9,0.4-1.8,0.4-2.7
		c-0.3-4.7-0.3-9.4-1.1-13.9c-1.7-10.3-6.7-19.1-13.2-27.1c-0.9-1.1-1.7-2.3-3-4c2.2,0,3.5-0.2,4.8,0c4.5,0.7,9,1.4,13.4,2.5
		c15.8,4,30.1,11.1,42.9,21.3c1.2,0.9,2.1,2.3,4.4,2.4c-0.7-1-1-1.6-1.4-2.1c-1.1-1.4-2.1-2.9-3.3-4.2
		c-19.6-22.3-44.8-32.9-73.7-35.9c-3.4-0.3-6.3-1.1-9.1-3.1c-16.7-12.2-35.3-19.4-55.9-21.6c-21.7-2.2-42.7,1.1-63,9.2
		c-1.2,0.5-2.4,1.1-3.5,1.7c0.1,0.4,0,0.6,0.1,0.7c7.5,6.6,7.5,6.6,17.2,5.9c7-0.5,14-0.4,20.9,1.2c8.8,2.1,16.1,6.3,20.1,14.9
		c0.7,1.5,1,3.3,1.5,4.9c-1.5-0.6-2.3-1.4-3.1-2.3c-4.1-4.8-9.4-7.4-15.7-8.3c-7.1-1-14,0.2-20.5,3c-3.9,1.7-7.8,3.3-11.8,5
		c-0.8,0.3-1.5,0.8-2.4,1.3c4,1.1,8,1.6,11.3,3.3c3.2,1.7,5.8,4.7,8.8,7.1c0.8-0.6,1.7-1.5,2.8-2.1c5.6-3.8,14-3.3,18.9,1.1
		c4.6,4.1,5.8,11.3,2.4,17.4c-1.5,2.7-3.6,5.2-5.7,7.5c-2.8,3-6,5.6-8.9,8.5c-3.7,3.6-6.6,7.8-7.8,12.9c-1.9,7.6-0.8,14.5,5,20.2
		c5.2,5,13,6.2,19.1,3.1c6.1-3.1,9.5-10.1,8.3-17.4c-1.2-7.2-7.3-12.3-13.8-11.4c-4.1,0.5-6.7,3-8.1,6.8c-1.2,3.4,0,7.5,2.7,9.8
		c2.9,2.5,6,2.2,8.5-1c-1-0.6-2.1-1.2-3.1-1.9c-1.2-0.9-1.9-2.4-0.9-3.6c0.6-0.8,2.1-1.2,3.2-1.1c2.3,0.2,3.5,2,4.2,4
		c1,3,0.2,5.7-1.9,8c-2.5,2.6-5.5,3.5-9,2.6c-4.6-1.2-8-5.5-8.3-10.2c-0.3-5,1.7-9.2,5.2-12.6c2.5-2.5,5.4-4.7,8.2-6.9
		c5.9-4.7,11-10,14.1-17c0.2-0.4,0.6-0.8,1.3-1.7c0,1.8,0,3,0,4.2c0.1,5.1-0.3,10.2,0.5,15.2c3.8,24,23.4,43,46.1,45.1
		c3.7,0.3,7.4,0.3,11.1,0.6c3.8,0.2,7.7,0.3,11.5,1c2.5,0.5,5.3,1.4,7,3c5.4,5,9.4,11.1,11.3,18.4c2.2,8.4-1.7,18.8-8.7,23.8
		c-2.8,2-5.9,3.1-9.3,2.5c-3.1-0.6-5.2-2.5-6.1-5.5c-0.7-2.4-0.3-4.7,1.6-6.4c2.5-2.1,5.3-2.1,8.1-0.8c0.9,0.4,1.8,0.9,2.9,1.4
		c0.1-6-3.6-10.7-9-11.8c-10.7-2.2-20.5,7.8-18.3,18.8C995.5,593.4,1007.1,601.5,1019.5,599.5z"/>
	<path fill="#C49A6C" d="M968,663c-1.8-8.2-7.8-13.5-16.2-13.8c-5-0.2-9.8,0.8-14.6,2.3c-6.7,2-13.4,4.1-20.2,5.8
		c-4.7,1.2-9.6,1-14-1.7c-0.5-0.3-1.2-0.4-1.8-0.6c-2.3,4.2-1.8,5.4,2.4,6.7c3.9,1.2,7.9,1.1,11.8,0.2c1.9-0.4,3.8-1,6.5-1.6
		c-4.7,3.2-10.2,5.4-14.4,5.9c-1.2,0.1-2.5,0.2-3.7,0c-4.1-0.7-6.5-3.6-6.3-7.8c0.1-1.5,0.4-2.9,0.7-4.5c-3.4,1.8-4.9,3.3-7.1,8.3
		c-2.8,6.4-6.4,12.1-10.5,17.7c-1.4,1.9-2.9,3.8-3.7,5.9c-0.8,2.1-1.3,4.5-1.3,6.7c0.1,3.2,2.3,5.3,5.5,5.7c2,0.2,4.1,0.1,6.2,0
		c6.6-0.4,13.1-1.9,19.2,0.6c2.4-4.2,4.5-8,6.8-11.8c2.2-3.6,4.5-7.2,7-10.7c1.9-2.7,3.8-5.4,6.2-7.6c3.2-2.8,7.1-4.5,11.6-4.2
		c-8.3,2.2-14.2,7.2-17.9,15.6c3.2-1.3,5.9-2.4,8.6-3.5c-0.5,1.2-1.2,1.7-2.1,2.2c-6.5,3.7-11.5,8.9-15.4,15.2
		c-1.6,2.6-3.7,5.3-0.4,8.4c-6.2-2.7-12.4-3.8-18.8-3.3c-3.7,0.3-7.4,0.6-11.1,1.1c-2.2,0.3-4-0.3-5.7-1.8
		c-9.8-8.7-20.9-15.6-31.7-23c-7.8-5.4-15.5-10.9-22.8-17c-6.6-5.5-7.8-10.2-4.1-17.9c4-8.2,2-16.6,2.1-25.1c-1.4,1.2-2.7,2.5-3.2,4
		c-0.9,2.4-1.3,5-1.9,7.6c-0.6,2.5-1.1,5.1-3.2,7.4c-3.8-4.7-7.5-9.3-11.3-13.9c-2.9-3.5-5.9-6.9-8.9-10.2c-1.1-1.2-2.6-2-4.6-3.5
		c0.4,6.1,3.8,9.8,5.6,14.3c-4.4-3.9-6.6-9.4-10.2-14.9c-1.4,8.6,1.7,15.2,4.2,21.9c-3.5-3-4.8-7.3-6.8-11.8
		c-0.6,1.5-1.1,2.3-1.1,3.1c0,2.6-0.3,5.4,0.4,7.8c2.4,7.9,5.1,15.7,8.1,23.3c1.8,4.7,5.2,8.4,9.6,11c6.1,3.7,11.2,8.5,15.5,14
		c6.6,8.4,13.1,17,19.8,25.4c4.8,6,9.7,12,15.1,17.4c4,4,8.8,7.5,13.7,10.5c9.1,5.7,19.3,8.1,30,7.1c17.6-1.7,34.8-4.8,50.7-13.4
		c7.5-4.1,13.1-9.3,16.6-17c4.7-10.4,8.1-21.3,10.9-32.4C968.6,669.9,968.7,666.5,968,663z"/>
	<path fill="#C49A6C" d="M989.1,597.3c-0.8-3-1.8-5.9-2.7-9c1,0.3,1.7,0.4,2.9,0.8c-1.6-1.8-2.7-3.1-3.9-4.5
		c0.9-0.2,1.4-0.3,2.1-0.5c-4.2-6.3-11.6-9.5-13.5-17.3c-0.6,0.8-0.9,1.4-1.6,2.4c-1-3.6-1.7-6.4-2.5-9.1c-0.2,0-0.3,0-0.5,0.1
		c-0.3,1.6-0.6,3.2-0.9,5.1c-2.2-3.6-4.3-6.7-6.3-9.9c-0.2,0.1-0.4,0.2-0.6,0.3c0,1.2,0,2.3,0,4.3c-1.5-2.7-2.6-4.7-3.7-6.7
		c-0.2,0.1-0.3,0.2-0.5,0.3c0.2,1.3,0.4,2.6,0.8,4.7c-2-2.1-3.3-3.5-4.7-5c-0.1,0.1-0.3,0.2-0.4,0.2c0.6,1.6,1.2,3.3,1.8,4.9
		c-0.2,0.1-0.3,0.2-0.5,0.3c-1.9-1.8-3.9-3.5-5.8-5.3c-0.2,0.2-0.4,0.4-0.6,0.6c0.6,1,1.2,2,2,3.5c-3.2-0.9-5.7-2-8.3-2.4
		c-6.8-1-13.7-1.8-20.5-2.6c0.3,0.5,0.7,1.2,1.4,2.5c-2.6-1.2-4.6-2-7.4-3.3c1.4,1.7,2.2,2.5,3.6,4.2c-2.5-0.4-4.1-0.7-5.6-0.9
		c0.2,0.6,0.4,1.1,0.8,2.2c-4.1-1-7.7-1.9-11.3-2.7c0.1,0.5,0.1,1,0.3,2.1c-2.4-1.7-4.3-3.1-6.7-4.8c0.5,1.5,0.8,2.4,1.2,3.4
		c-0.7,0.1-1.1,0.2-1.9,0.3c1.7,1.4,3,2.6,4.4,3.7c-5.2,1.7-5.2,1.7-11.3-1.3c1.5,3.2,4.8,4.3,5.4,7.5c0.2,0.9,1.7,1.1,1,2.7
		c-0.4,0.9-0.5,1.8-1.3,2.6c-3.7,4.1-5.7,9-6.1,14.5c-0.1,1.4-0.3,2.7-0.4,4.1c-0.4,5.2-2.8,8.7-8.2,10c-2.9,0.7-3.4,2.3-2.1,4.9
		c1.6,3.4,1.5,3.7-1.4,6.1c-0.7,0.6-1.8,1.5-1.7,2c0.4,2.3,1.3,4.5,0.7,7c-0.1,0.3,0.5,1,0.9,1.2c2.6,1.2,2.3,3.3,2.2,5.6
		c-0.3,4.2,1.1,6.4,5.2,7.8c1.8,0.6,3.7,1,5.6,1.4c3,0.6,6,1,8.9,1.9c3.1,0.9,6.3,1.9,9.2,3.5c4.8,2.7,6.4,8.2,4.2,12.4
		c-0.3,0.5-0.3,1.2-0.6,2.4c2.4,0.1,4.5,0.5,6.4,0.1c4.6-0.9,9.2-1.9,13.6-3.3c8.4-2.7,16.6-5.9,25.6-4.2c1.2-2.3,2.6-4.5,4.2-6.5
		c3.6-4.4,8.1-7.9,13.3-10.3c0,0,0,0,0,0c0,0,0,0,0,0c0,0.4,0,0.8,0.1,1.8c0,0.1,0,0.3,0,0.5c2.5-3.4,4.6-6.1,6.8-9.1
		c0.2,0.6,0.3,0.9,0.3,1.3c0.1,0.4,0.1,0.7,0.2,1.1c0.2,0,0.5,0,0.7,0c1.3-3.6,2.7-7.3,4.4-11.8c0.2,2.2,0.3,3.5,0.4,4.7
		c2.2-5,3.4-10.2,2.7-15.6c-0.1-1.1-0.7-2.6-0.2-3.1C990.3,599.7,989.4,598.5,989.1,597.3z M893.6,600.2c-0.9-0.4-1.9-0.8-2.7-1.3
		c-0.1-0.1,0.2-0.9,0.4-1.3c1,0.4,1.9,0.8,2.9,1.1C894,599.3,893.8,599.7,893.6,600.2z M896.3,597c-1.2-0.5-2.5-0.9-3.7-1.4
		c0.1-0.3,0.2-0.6,0.2-0.9c1.3,0.5,2.5,1,3.8,1.5C896.5,596.5,896.4,596.8,896.3,597z M947.1,622.6c1.7-10-0.3-13.2-8.2-13.6
		c1.2-0.2,2.6-0.9,3.7-0.6c1.4,0.3,2.9,1,3.9,2C949.8,613.3,950,618.3,947.1,622.6z"/>
	<path fill="#C49A6C" d="M973.4,631.3c0,0.4,0,0.8,0.1,1.8C973.4,632.2,973.4,631.8,973.4,631.3
		C973.4,631.3,973.4,631.3,973.4,631.3z"/>
	<path fill="#C49A6C" d="M1149.4,604.3c0-0.8-0.3-1.6-0.5-2.4c-1.1,1.3-1.5,2.6-1.9,3.9c-5.9,16.7-14.6,31.7-26.9,44.4
		c-1.6,1.6-2.2,3.4-2.4,5.5c-0.5,6.3-3.2,11.6-7.3,16.3c-7.9,9-17.9,14.9-29.1,18.8c-0.7,0.2-1.4,0.3-2.2,0.4c1-1.4,2.1-2.3,3.3-3.2
		c6.8-5,12.9-10.7,17.6-17.8c0.7-1.1,1.9-2.2,1.4-4c-3.1,1.6-5.8,3-8.7,4.4c-11,5.4-22.2,10.2-34.5,11.8c-1.6,0.2-2.3,1.2-3.1,2.3
		c-2.4,3.4-4.7,6.8-7.4,9.9c-10.6,12.1-23.6,20.5-39.6,23.6c-1.9,0.4-3.1,1.2-4,3c-1.1,2.3-2.6,4.5-4,6.7
		c-9.2,14.3-20.8,26.6-33.2,38.2c-1.6,1.5-3.2,2.9-4.8,4.4c0.1,0.2,0.2,0.5,0.3,0.7c2,0,4,0.2,6,0c6.1-0.7,12.3-1.3,18.4-2.3
		c37.2-6,71-20.2,100.7-43.7c22-17.5,39.6-38.5,50.8-64.4C1146.1,642.8,1150.5,624.1,1149.4,604.3z"/>
	<path fill="#C49A6C" d="M1071.1,654.4c19.2-18.6,33.4-40.5,41.7-65.9c12-36.6,6.1-70.7-16-101.8c-7.4-10.5-18.6-15-31.5-13
		c-16.3,2.5-23.3,19.9-13.9,33.4c5.5,7.8,13,9.5,21.2,4.6c1.8-1.1,3.5-2.3,5.3-3.1c4.4-2,8,0.4,8.2,5.3c0.2,4.6-2.3,7.5-6.1,9.5
		c-4.5,2.4-9.3,2.4-14,1.1c-9.7-2.5-15.8-9-19.7-17.9c-0.5-1.2-1.1-2.4-1.6-3.5c-0.6,9.6,1.2,18.4,8.1,25.4
		c8.5,8.7,23.3,11.6,34.4,6.8c6.9-2.9,11.4-7.9,13-15.4c1.9-8.9-2.2-19.2-9.6-24.3c-4.1-2.8-8.5-3.7-13.3-2.8
		c-6,1.2-9.9,5.5-10.5,11.6c-0.1,1-0.2,2-0.4,3.8c-1-1.4-1.7-2-2.1-2.8c-4-7.6,0.9-21.4,13.3-21c5.1,0.2,9.6,2.2,13.6,5.3
		c6.1,4.7,9.8,11,12.1,18.3c2.6,8.5,3.8,17.2,4.2,26c1,20.6-2,40.5-8.7,60c-7.6,22.1-18.9,42.4-32,61.6c-0.8,1.2-1.6,2.4-2.3,3.6
		c0.2,0.2,0.4,0.4,0.7,0.6C1067.1,658,1069.2,656.3,1071.1,654.4z"/>
	<path fill="#C49A6C" d="M1096.1,481.2c-0.3,0.2-0.5,0.4-0.8,0.7c1.4,1.8,3,3.5,4.3,5.3c4.4,5.9,9.4,11.6,13.2,17.9
		c15.9,26.7,20.4,55,10.1,84.7c-10.7,31.1-30.1,55.9-57.7,74.1c-1,0.7-2.4,1.2-2.9,2.2c-1.6,3.4-2.9,7-4.5,10.9
		c4.1-0.1,7.3-1.3,10.5-2.4c22.5-7.7,40.2-21.8,54.1-40.8c18.8-25.7,26.3-54.1,19.5-85.7c-4.5-20.6-13.6-38.8-28.6-53.8
		C1108.2,489.2,1102.4,484.8,1096.1,481.2z"/>
	<path fill="#C49A6C" d="M1011.4,714.9c3.1-0.9,6.4-1.8,9.3-3.2c19.1-9.4,31.7-24.2,36.9-45c5.7-22.4-3.6-46.4-22.7-59.3
		c-1.5-1-3.2-1.9-4.8-2.9c-0.2,0.2-0.3,0.4-0.5,0.6c0.8,1,1.6,2,2.5,3c5.7,6.6,10.2,14,13.2,22.2c3.1,8.6,4.1,17.4,2.3,26.4
		c-4.5,22.2-17.3,38.5-36.4,50.1c-3.5,2.1-4.2,4.5-3.9,8.4C1008.8,715.1,1010.2,715.3,1011.4,714.9z"/>
	<path fill="#C49A6C" d="M1008.2,704.6c4.1-1.6,7.4-4.5,10.6-7.5c14.2-13,22.7-28.5,20.8-48.4c-1.4-14.5-8.4-25.3-21.7-31.7
		c-0.9-0.4-1.9-0.6-2.8-0.9c1.2,2.1,2.8,3.6,4.1,5.3c3.2,3.9,6.7,7.7,9.4,11.9c5.8,8.9,6.9,18.7,4.5,28.9
		c-1.3,5.3-3.5,10.2-7.8,15.2c0-4.3,0-7.7,0-12c-2.1,2.9-2.6,5.7-5.1,8.2c2-14,3.5-27.2-4.2-39.3c1.6,20.3-1.3,39.4-13.8,55.5
		C1004.4,695,1006.2,699.7,1008.2,704.6z"/>
	<path fill="#C49A6C" d="M941.5,724.3c-6.9,2.1-13.2,5.3-19.8,8.1c-2.8,1.2-5.7,2.1-8.6,2.8c-9.4,2.4-18.9,3.3-28.6,2.8
		c-3.1-0.2-6.2-0.3-9.9-0.4c1.4,6,2.6,11.6,4,17.4c6,0.4,11.1-0.8,16.1-2c14.9-3.7,29-9.3,42.7-16c5.1-2.5,9.9-5.4,14.8-8.1
		c2.7-1.5,4.3-3.6,5-6.6c1.5-7,3.1-13.9,4.7-20.9c0.1-0.5,0.2-1.1,0.2-1.6c0-0.5,0-1,0-1.3c-3,5.4-5.8,10.9-9,16.1
		C950.6,719,946.7,722.7,941.5,724.3z"/>
	<path fill="#C49A6C" d="M1079.3,597.3c6.1-1.5,10.3-5.2,11.7-11.4c2.1-9.3-6.7-18.8-17.4-18.4c0.2,1.3,0.4,2.6,0.6,4
		c0.4,2.9,0.4,5.8-0.9,8.5c-0.8,1.7-2.1,2.9-4.1,2.9c-2.2,0.1-3.7-0.8-4.3-3.3c1.6-1.5,3.4-3.1,2.6-5.8c-0.7-2.5-2.9-4.6-5.5-5
		c-2.8-0.4-5.3,0.7-6.4,3.4c-0.9,2.5-1.6,5.4-1.3,7.9C1055.7,592.1,1067.6,600.2,1079.3,597.3z"/>
	<path fill="#C49A6C" d="M1097,573.6c6-8.1,3.4-18.5-2-24.2c-6.5-6.8-20.2-10.4-28-5.1C1075.3,555.8,1086,564.6,1097,573.6z"/>
	<path fill="#C49A6C" d="M1075,606.9c-10.8-0.6-19.1,10.4-16.3,21.6C1069.7,628.7,1078.7,616.8,1075,606.9z"/>
	<path fill="#C49A6C" d="M964,719.7c4.2-7.3,7.3-15,9.4-23.1c0.4-1.5,0.5-3.4,0-4.9c-1.4-4.4-3.1-8.7-4.6-13.1
		c-6,13.6-4.2,28.2-6.1,42.4C963.2,720.6,963.7,720.2,964,719.7z"/>
	<path fill="#C49A6C" d="M934.8,539.9c10-0.2,13.8-7,16.4-16.3c3.7,6.1,4.7,12.7,9,17.5c-0.5-9.7-4.6-17.7-10.8-25.5
		c0.2,15.5-14.3,27.3-31.7,13.2C920.7,535.7,927.3,540,934.8,539.9z"/>
	<path fill="#C49A6C" d="M972.2,442.3c-2.6,1.1-3.9,4.6-2.9,8.2c1.5,5.6,6.7,8,13,6.2c0.5-4.1-0.5-8.7-2.4-11.3
		C977.9,442.6,974.6,441.3,972.2,442.3z"/>
	<path fill="#C49A6C" d="M1061.6,546.9c-1.5-0.9-3.6-1.3-5.4-1.3c-3.2,0.1-4.8,2.5-4.2,5.6c0.6,2.9,2.4,4.9,5.2,5.9
		c3.6,1.2,7.2,1.1,10.9-0.1C1067.2,552.6,1065.2,549.1,1061.6,546.9z"/>
	<path fill="#C49A6C" d="M925.5,466.6c0-3.5-2.8-6.5-6.1-6.5c-3.1,0-5.8,2.7-5.9,6.1c-0.1,3.6,2.4,6.5,5.8,6.7
		C922.7,473,925.5,470.1,925.5,466.6z"/>
	<path fill="#C49A6C" d="M809,628.9c2-8.2-1.5-20.3-8.1-20.4c-0.6,2.4-1.2,4.8-1.8,7.5c2.1,0.2,3.7,0.4,5.7,0.5
		c-1.4,1-2.5,1.8-3.4,2.5C803.4,623.5,805.7,626.5,809,628.9z"/>
	<path fill="#C49A6C" d="M992.8,492.8c0.1,3.1,2.4,5.6,5.3,5.6c3,0,5.3-2.6,5.2-5.7c-0.1-3.1-2.5-5.6-5.4-5.6
		C994.9,487.1,992.7,489.5,992.8,492.8z"/>
	<path fill="#C49A6C" d="M979.9,542.6c-2.1-7.1-8.3-8.5-14.5-10.9C968.1,539.9,973.3,543.7,979.9,542.6z"/>
	<path fill="#C49A6C" d="M983.9,538.6c4.9,5.7,12.6,5.2,18.6,9.7C1000,541.2,991.3,536.9,983.9,538.6z"/>
	<path fill="#C49A6C" d="M977.4,648.3c-2.4,2.3-2.7,5.1-2.2,8.1c0.4,2.6,1,5.2,4.2,6.3c-0.4-4.7-0.7-9.1-1.1-13.5
		C978.3,648.9,977.9,648.8,977.4,648.3z"/>
	<path fill="#C49A6C" d="M789.5,606.9c2.5,2.4,4.3,4.2,6.5,6.2C796.8,607.1,795.9,606.2,789.5,606.9z"/>
	<path fill="#C49A6C" d="M703.8,458.4c-6.3,1.7-10.8,5.4-13.4,11.8C698.1,470.6,703.5,465.6,703.8,458.4z"/>
</g>
</svg>
