<?xml version="1.0" encoding="utf-8"?>
<!-- Generator: Adobe Illustrator 27.3.1, SVG Export Plug-In . SVG Version: 6.00 Build 0)  -->
<svg version="1.1" id="Layer_1" xmlns="http://www.w3.org/2000/svg" xmlns:xlink="http://www.w3.org/1999/xlink" x="0px" y="0px"
	 viewBox="0 0 1200 800" enable-background="new 0 0 1200 800" xml:space="preserve">
<g>
	<path fill="#C49A6C" d="M340.7,389.9c-0.7-1.2-1.2-2-1.6-2.8c-3.2-6-6.9-11.7-9.3-17.9c-5.2-13.9-9.8-28-14.5-42.1
		c-1-3.1-1.1-6.3,0.4-9.5c4.4-8.7,4.5-17.9,2.8-27.3c-0.4-2.2-0.7-4.4-1.1-6.7c4.8-1.2,9.1-2.4,14.5-3.7c-1.4,1.8-2.1,2.9-2.9,3.9
		c-0.6,0.7-1.4,1.4-1.7,2.2c-0.3,0.8,0,1.7,0,2.6c0.8-0.1,1.6,0.1,2.2-0.2c1-0.5,1.9-1.3,2.7-1.8c2.1,0.8,2.3,2.3,2.3,3.8
		c0,1.8-0.1,3.5-0.1,5.3c0,1.4,0.2,2.7,2.4,3c0.8-2.6,1.6-5.3,2.6-8.6c0.8,1.4,1.3,1.9,1.4,2.5c0.4,1.7,0.4,3.5,0.9,5.2
		c0.2,0.7,1.1,1.2,1.7,1.8c0.6-0.6,1.5-1.2,1.7-1.9c0.3-1.1,0-2.4,0-3.6c0-1.4-0.6-2.9,0.6-4.2c3.3,1.3,1.4,6.5,6,7.2
		c0-1.4,0.1-2.5,0-3.5c-0.9-10-5.8-18.1-12.2-25.4c-3.8-4.4-9-6.4-14.7-6.7c-4.2-0.2-8.4-0.1-12.5-0.5c-4.4-0.5-7.2,1.6-9.2,5.2
		c-1,1.8-1.7,3.7-2.6,5.5c-0.3,0.7-0.8,1.4-1.5,2.7c-0.2-5.4,2.3-8.8,4.7-12.1c-5-5.1-14.7-7.4-19.6-3.7c4.5,2.3,8.4,5.1,9.2,10.4
		c0.9,5.3-1.2,9.3-5.3,12.4c0.1-0.9,0.6-1.6,1-2.4c5-8,1.9-16.4-7.1-19.2c-5.7-1.8-11.5-1.6-17.1,0.2c-6.3,2-7.7,4.6-5.7,11
		c3,9.5,6.3,18.9,9.5,28.4c0.4,1.2,0.8,2.3,1.2,3.4c-1.4-1-2.2-2.2-2.9-3.5c-3.3-6.2-5.8-12.7-7.7-19.5c-0.8-2.8-1.8-5.7-3.2-8.3
		c-1.2-2.3-3.7-3.2-5.8-2.6c-2.2,0.6-3.4,2.5-3.5,5.3c0,0.4,0,0.8,0,1.2c1,10.6,3.5,20.7,10.1,29.5c1.6,2.1,3,4.3,4.5,6.4
		c-0.3,0.2-0.5,0.4-0.8,0.6c-0.8-1-1.7-2-2.5-3.1c-3.9-5.5-7.8-11-11.7-16.5c-1.2-1.7-2.4-3.5-3.9-5.1c-1-1.1-2.4-1.2-3.7-0.3
		c-1.2,0.8-1.4,1.8-1,3.2c0.8,2.3,1.3,4.7,2.3,6.9c3.2,7.1,7.6,13.3,13.6,18.4c1,0.8,1.9,1.7,3.1,2.9c-0.8,0-1.1,0-1.3-0.1
		c-0.5-0.3-0.9-0.6-1.3-0.9c-5-3.7-9.6-7.8-13.3-12.9c-1.1-1.5-2.4-3-3.8-4.1c-2.4-1.9-5-0.7-5,2.4c0,1.8,0.5,3.8,1.4,5.4
		c4.5,8.9,11.2,15.8,20,20.6c1.9,1.1,3.9,2.1,5.8,3.2c-5.7-0.9-10.5-3.3-14.6-7.1c-1.3-1.2-2.6-2.5-4.1-3.3c-0.9-0.5-2.5-0.5-3.3,0
		c-1.2,0.7-1.5,2.2-0.7,3.6c0.6,1.1,1.1,2.2,2,3c3.6,3.4,7.1,7,11.1,10c4.1,3,8.7,5.4,13.1,8.1c4.1,2.6,8.3,5,12.3,7.8
		c4.6,3.2,7.6,7.5,9,13c1.1,4.6,2.7,9.1,4.1,13.6c1,3.1,2,6.1,3,9.1c-0.5,0.3-0.8,0.5-1,0.5c-8.6,0-17.3,0.1-25.9,0
		c-1,0-2.3-0.8-2.9-1.7c-2.4-3.2-4.7-6.6-6.9-10c-3-4.7-5.8-9.4-8.7-14.1c-5.8-9-13.8-15-24.1-17.9c-4.9-1.4-9.9-2.7-14.8-4.1
		c-7.3-2.1-14.4-4.6-21-8.2c-0.8-0.4-1.5-1.1-2.2-1.7c9,0.3,17.6-0.5,26-2.9c11.2-3.2,20.9-7.7,23.3-11c-3.9-0.5-7.8-0.8-11.6-1.5
		c-8.5-1.4-16.3-4.6-23.7-9c-5.6-3.3-11.5-5.8-18-7c-7.8-1.5-15.6-0.8-23.3,0.5c-6.2,1-12.3,1.5-18.5,0.4c-3.9-0.7-7.8-1.6-12-4.3
		c1.8-0.1,2.6-0.2,3.5-0.2c4.2-0.3,8.4-0.5,12.5-1.1c12.8-1.6,22.8-7.8,29.8-18.7c0.9-1.4,1.5-3,2.6-5.2c-3.3,0.7-5.6,1.1-8,1.6
		c-8.2,1.8-16.6,3-24.9,1.6c-18.5-3.2-32.2-13.5-41.4-29.5c-10.6-18.4-5.3-38.7,5.8-51.7c2.9-3.4,6.4-6,10.8-7.2
		c-0.6,0.9-1.3,1.6-2.1,2.3c-14,12.8-16.9,33.5-6.6,48.6c5.4,8,12.7,13.3,22.4,14.4c10.4,1.1,19.7-2,28.3-7.8
		c0.7-0.5,1.1-1.2,1.9-1.9c-0.7-0.1-0.9-0.2-1.2-0.2c-1.1,0.1-2.2,0.1-3.2,0.2c-10.2,1-19.2-2-27.1-8.4
		c-18.2-14.9-14.6-44.2,0.9-53.2c1.8-1,3.4-2.7,4.7-4.4c2.8-3.7,2.2-9.1-1.1-12.2c-2-1.8-4.7-2.2-6.7-1c-2,1.3-2.8,3.8-1.7,6.5
		c0.5,1.2,1.3,2.3,2.2,3.3c0.8,0.9,1.8,1.5,3.2,2.6c-1.9,1.2-3.5,2.5-5.3,3.3c-2.1,0.9-4.3,1.4-6.6,1.9c-8.2,1.5-15.4,5.2-21.1,11.2
		c-14.2,15.2-20.3,33-15.3,53.6c4.9,20.1,15,37.5,29,52.6c13.2,14.3,29.1,24.8,46.6,33.1c7.4,3.5,15,6.7,22.7,9.8
		c11.7,4.8,21.9,11.7,30,21.4c2.5,3,5.1,5.9,7.7,8.9c5.7,6.6,12.1,12.3,19.8,16.5c0.5,0.3,1,0.7,1.8,1.3c-0.8,0.2-1.1,0.4-1.5,0.5
		c-0.7,0.1-1.3,0.2-2,0.2h97.6C335.8,390.2,338.2,390.7,340.7,389.9z M306.6,291.4c-3.7,1.4-7.3,2.8-11,4
		c-10.3,3.3-16-2.8-17.4-10.8c-1.1-6.3,1.1-11.9,5.3-16.5c0.3,0.2,0.5,0.3,0.8,0.5c-0.9,2.1-1.9,4.1-2.8,6.2
		c-1.7,4.2-1.9,8.4-0.3,12.6c2,5.3,6.3,7.9,11.8,6.8c3-0.6,5.9-1.9,8.7-3.1c2.1-0.9,4.2-1.8,7.3-1.3
		C307.9,290.5,307.3,291.1,306.6,291.4z"/>
	<polygon fill="#C49A6C" points="379.6,383 379.6,383 379.6,383 379.6,383 	"/>
	<path fill="#C49A6C" d="M506.1,387.9c15.5-23.1,20.4-48.6,15.8-75.7c-3.4-20.1-14.3-36.5-29.2-50.2c-5.4-5-11.6-9.3-17.7-13.4
		c-8-5.4-13.9-12.3-16.1-21.9c-0.1-0.4-0.2-0.8-0.2-1.2c0-0.4,0.1-0.8,0.1-1.2c4.4,11.2,12.2,19.3,22.1,25.3
		c15.6,9.4,27.3,22.2,35,38.8c5.3,11.5,13.5,20.7,23.8,28.1c3.2,2.3,6.3,4.7,9,7.5c8.2,8.1,8.3,16.9,0.4,25.3
		c-0.6,0.7-1.4,1.3-2.1,1.9c-3.6,3.1-7.7,5.4-12.2,6.9c-1.1,0.4-2.9,0.5-2.1,3c5.6,0.9,10.1-3,15.9-4.9c-4,6.7-8.6,12.5-7.2,21.1
		c1.1-1.4,1.5-2,2-2.6c4.3-5.4,8.5-10.8,12.9-16.1c3-3.6,6.5-6.9,9.4-10.6c4.2-5.3,7.6-11.2,9.1-17.9c2.8-12.3-0.3-22.4-10.8-29.9
		c-0.5-0.4-1.1-0.6-1.9-1c9-5.1,11.8-11.7,8.2-18.1c-1,2-1.8,4-2.9,5.8c-1.7,3-4.3,5-7.9,4.7c-3.7-0.2-6.5-2.3-7.7-5.7
		c-0.9-2.6-1.3-5.5-1.3-8.3c0.1-5.7,2.3-10.8,5.5-15.5c2.4-3.6,4.9-7.1,7.3-10.7c2.7-4,4.3-8.4,5-13.1c1.4-10.4-4.3-19.8-14.3-23
		c-1.5-0.5-3.1-0.9-4.6-1.4c-5.8-1.9-11.3-4.4-16-8.4c-6.8-5.7-9.9-13-9.1-21.8c0.6-6.6,1.4-13.3,2.1-19.9c0.9,2,1.6,4.2,1.8,6.4
		c0.4,5.2,0.5,10.5,0.8,15.8c0.3,6.3,2.6,11.8,6.7,16.6c5.1,5.9,11.5,9.2,19.3,10c6.3,0.7,12.5,1.9,18.3,4.9
		c0.4,0.2,0.9,0.1,1.4,0.2c-0.1-0.6,0-0.9-0.1-1.1c-0.1-0.4-0.3-0.8-0.5-1.1c-3.4-6.2-8.4-10.5-15.2-12.5c-5.4-1.6-8.4-5.3-8.9-10.8
		c-0.2-2.4-0.4-4.9,0-7.2c0.8-5.5,1.9-10.9,2.9-16.3c0.7,2.1,0.8,4.2,1.3,6.3c1,4.6,3.8,7.7,8.5,8.8c5.4,1.2,10.5-2.1,11.5-7.4
		c-1.2,0.4-2.3,0.9-3.4,1.1c-6.8,1.7-12-1.7-12.5-8.7c-0.2-2.6,0.2-5.4,0.8-8c0.6-2.5,1.7-4.8,2.7-7.2c4.2-10.1,2.6-19.5-3.6-28.3
		c-3.7-5.1-8.5-9-13.7-12.5c-4.7-3.1-9.5-6.1-14.2-9.3c-9.3-6.3-16-14.8-19.9-25.4c-1.7-4.6-3.4-9.1-5.3-13.6
		c-4.7-11.1-12.6-19.3-23.5-24.6c-14.6-7.1-29-9.8-44.7-11.4c-17.2-1.7-33.4-7.5-51-6.6c-5.3,0.3-10.5,1-15.7,1.7
		c-15.1,2.1-24,5.2-37.7,10.8c-6.6,2.7-12.5,6.5-17.3,11.7c-5.3,5.8-11.4,10-19,12.5c-9.3,2.9-16.1,9.2-20.6,17.8
		c-1.8,3.4-3.4,7-5,10.6c-1,2.3-1.8,4.6-2.7,6.9c-0.3-0.1-0.5-0.1-0.8-0.2c0.6-3.1,1.2-6.1,1.8-9.2c-1.2,0.7-2.2,1.5-2.8,2.6
		c-6.4,10.2-7.4,21.3-4,32.6c0.8,2.6,0.9,4.8,0.2,7.4c-1.5,5.2-2.1,10.6-2,16c0.1,8.7,3.4,16,9.7,21.9c4.4,4.1,9.3,7.4,14.8,9.9
		c8.4,3.8,16.9,7.2,25.3,10.8c0.8,0.3,1.7,0.4,3,0.7c-0.4-2.6-1.6-4.4-3.1-5.9c-2.1-2.1-4.2-4.2-6.6-6c-3.6-2.6-7.4-4.9-11.1-7.5
		c-3.2-2.3-6.4-4.6-9.3-7.2c-6.5-5.8-7.1-18.8-2.6-25.6c2.4,1.1,4.8,2.3,7.4,3.2c6.1,2.2,9.8,6.4,11.2,12.7
		c2.4,10.3,7.3,19.3,14.8,27c4.6,4.6,6.9,10.3,6.5,16.9c-0.2,3.8-0.8,7.5-1.2,11.2c-0.2,1.9-0.7,3.7-0.7,5.6c0,4.4,3.1,7.4,7.5,7.3
		c1.8-0.1,3.7-0.7,5.4-1.3c3.7-1.3,5.9-0.3,7.1,3.5c0.4,1.3,0.6,2.6,1.2,3.9c1.7,3.8,4,4.6,7.7,2.5c1.8-1,3.6-1.9,6.5-1.2
		c-1.9,1-3.2,1.6-4.5,2.3c-2.7,1.6-3.1,3.9-1.2,6.4c1.7,2.1,3.6,2.4,6.9,1.1c3.4-1.4,5.7-0.2,6.4,3.5c0.1,0.7,0.1,1.3,0.2,2
		c1.3,6.8,7.3,10.8,13.8,8.7c3.4-1.1,6.7-2.9,9.5-5.2c3.8-3.1,7.1-7,10.6-10.5c1.5-1.5,2.9-3.2,4.6-4.6c3.3-2.7,6.5-2.4,9.1,1
		c1.4,1.8,2.6,3.9,3.2,6c1.6,6,2.8,12.1,4.2,18.1c1.2,5.3-0.3,9.4-4.6,12.8c-9.4,7.5-15.9,17-19.7,28.5c-4.3,12.8-12,23.5-22.9,31.7
		c-2.8,2.1-5.5,4.4-8.2,6.6c-7.3,6-12.9,13.4-16.2,22.3c-4.2,11.2-3.1,22.2,0.7,33.6c1.6,0,3.1,0,4.6,0c9.5,0,19.1,0,28.6,0
		c40.9,0,81.8,0,122.7,0.1C503.3,390.4,504.8,389.8,506.1,387.9z M518.4,228.6c-3.6-5.2-7.6-10-11.4-15c5.2,4.6,10.3,9.2,14.1,15
		c3.2,4.9,4.6,10.2,4.4,16.1c0,0.6-0.2,1.2-0.6,1.8C523.4,240.2,522,233.9,518.4,228.6z M536.4,229.5c3,5.3,3.6,11,2.7,16.9
		c-1.2,7.9-2.8,15.7-4,23.5c-0.7,4.5-1.2,9.1-1.4,13.7c-0.4,8.1,2.5,15.1,8.3,20.8c3.2,3.1,6.5,6.1,9.6,9.3c4.8,5,7.9,10.8,8.6,17.9
		c-3.3-11.1-11.6-18.2-20-25.2c-2.1-1.7-4-3.7-5.9-5.6c-7.8-7.8-10.4-17.1-8.2-27.8c1.3-6.1,2.6-12.1,4-18.2
		c1.2-5.2,1.5-10.4,1.2-15.7c-0.5-9.1-4.4-16.6-11.5-22.4c-1.8-1.5-3.7-3-5.5-4.5C523.1,216.2,531.5,220.8,536.4,229.5z M501.5,104
		c0.2,0.7,0.5,1.4,0.5,2.2c1.2,10.5,5.7,19.6,12.6,27.5c2.2,2.5,4.6,4.9,6.9,7.4c2.5,2.7,4.5,5.6,5.3,9.4
		c-6.2-6.2-12.7-12.2-18.4-18.8C501.7,123.8,500.2,114.2,501.5,104z M273.7,118.6c5.3,2.9,11,5.9,16.1,8.7
		C283.5,127.9,276.5,124.2,273.7,118.6z M332.6,99.4c7.9-2.3,14.9-6.1,20.7-12.1c3.1-3.2,6.2-6.4,9.4-9.5
		c7.6-7.7,16.8-11.5,27.6-11.6c4,0,8.1,0.1,12.1,0.5c14.6,1.6,28.2-0.8,40.7-8.8c4.6-2.9,9.3-5.6,14.8-6.4
		c12.9-1.9,23.2,3.1,31.6,12.5c0.8,0.9,1.5,1.9,2.2,2.9c-5.2-4.2-10.4-8.2-16.6-10.9c-9.8-4.1-19.3-4-28.7,1.6
		c-4.3,2.6-8.7,5-13.2,7.1c-9.9,4.7-20.4,5.7-31.2,4.3c-6.7-0.9-13.4-1.1-20.1,0.4c-6.6,1.4-12.4,4.4-17.2,9.2
		c-3.4,3.5-6.8,7-10.4,10.2c-6.3,5.7-13.5,9.9-21.8,11.8c-0.7,0.1-1.3,0.3-2,0.4c-0.4,0-0.8,0-1.4-0.5
		C330.4,100,331.5,99.7,332.6,99.4z M333.1,189.1c-8.2-4.4-12.9-12.9-10.5-19.5c1.1,1.5,2.1,2.7,2.8,4c1,2.1,1.6,4.3,2.5,6.4
		c1.7,4,4,5,8,3.3c4.2-1.7,7.7-4.4,10.7-7.8c0.6-0.7,1.2-1.4,1.8-2.1c0.2,0.2,0.5,0.4,0.7,0.5C345.8,181.1,340.1,185.8,333.1,189.1z
		 M359.7,151.3c-2.3-1.5-4.5-2.4-7.3-2.9c-4.1-0.7-8-2.2-11.9-3.8c-6.5-2.6-12.8-5.6-19.2-8.4c-0.5-0.2-0.9-0.5-1.9-1.1
		c10.5,1.2,18.6,7.5,28.5,9.1c-0.8-0.9-1.6-1.8-2.4-2.6c-3.4-3.6-6.5-7.3-8.3-11.9c-3.8-9.8-11.3-15.1-20.9-18
		c-1.3-0.4-2.6-0.8-3.9-1.6c0.7,0,1.3-0.2,2-0.1c9.8,1.9,18.2,5.9,23.5,14.9c1.6,2.7,3.3,5.3,5.2,7.7c8.9,11.5,20.9,17.2,35.3,17.7
		c9.2,0.3,17.9-1.7,26.6-4.4c3.8-1.2,7.7-2.1,11.6-3.2c0,0.3,0.1,0.6,0.1,0.9c-15.4,6.1-31.2,10.2-48.9,8.6c1.3,1.1,1.8,1.8,2.5,2.2
		c4.8,2.7,10.1,3.8,15.5,4.2c7.9,0.6,15.6-0.3,23.1-2.9c5.9-2,11.7-4.2,17.6-6.2c4.8-1.6,9.7-2.5,14.7-2.2c1.6,0.1,3.1,0.5,4.6,1.2
		c-3.4,0.2-6.9,0.1-10.2,0.8c-5.5,1.3-10.9,3-16.2,4.7c-4.5,1.5-8.7,3.6-13.2,5C389.4,164.5,374,161,359.7,151.3z M408.7,213.7
		c1.1-3.1,2.2-6.2,3.5-9.8C412.8,208.1,411.3,211.1,408.7,213.7z M384,176.2c-8.1-1.1-15.1-4.9-20.3-11.5c-0.3-0.4-0.6-0.9-0.9-1.3
		c-0.1-0.2-0.1-0.4-0.2-1c0.7,0.5,1.1,0.8,1.4,1.1c11.7,10.6,25.7,13.8,40.9,12.4c7.2-0.7,14.4-2.3,21.6-3c4.9-0.5,9.8-0.1,14.8,0.2
		c-2.4,0.2-4.8,0.4-7.2,0.6c-7.7,0.9-9.8,4.3-6.3,11.2c2.4,4.7,5.5,8.9,8.3,13.4c2.2,3.4,4.5,6.7,4.7,11.1
		c-5-7.3-10.2-14.5-14.9-22.1c-2.1-3.4-3.1-7.4-4.8-11.6c-0.2,0-1-0.1-1.7,0C407.7,177.9,395.8,177.8,384,176.2z M407.4,299.8
		c1.4-3.9,2.8-7.8,4.3-11.7c3.4-9,8.4-15.2,17-20.4c-10.6,9.4-15,22.6-21.1,34.8c-0.2-0.1-0.5-0.2-0.7-0.3
		C407,301.3,407.1,300.5,407.4,299.8z M443.3,286.2c-11.2,15.8-20.1,32.9-29.7,49.6c-9.1,15.8-19.7,30.6-31.2,44.8
		c-0.6,0.8-1.6,1.3-2.4,2c0,0.1-0.1,0.2-0.1,0.2c-0.1,0.1-0.2,0.2-0.2,0.3c-0.4,0.8-0.7,1.7-1.1,2.5c-0.3-0.2-0.5-0.3-0.8-0.5
		c0.6-0.7,1.3-1.4,1.9-2c0-0.1,0.1-0.2,0.1-0.3l0,0c0.1-0.1,0.1-0.1,0.2-0.2c0.3-0.5,0.5-1.1,0.8-1.5c15.4-19.1,27.9-40,39.3-61.7
		c5.7-10.9,12.2-21.3,20.1-30.8c0.9-1,1.8-2,2.7-3C443.1,285.9,443.3,286.1,443.3,286.2z M435.7,243.2c-2-6.7,0.1-13,5.9-16.6
		c-5.2,11.9-2.7,20.9,9.1,26.9C443.7,253.7,437.5,249.2,435.7,243.2z M482.4,357.3c3.6-5.5,7.1-11.1,11-17.1
		C491.3,347.3,487.5,352.7,482.4,357.3z"/>
	<path fill="#C49A6C" d="M379.8,382.8L379.8,382.8C379.8,382.7,379.8,382.8,379.8,382.8c-0.1,0.1-0.2,0.2-0.2,0.2c0,0,0,0,0,0
		C379.7,383,379.8,382.9,379.8,382.8c0-0.1,0.1-0.2,0.1-0.2c0,0,0,0,0,0C379.9,382.6,379.9,382.7,379.8,382.8z"/>
	<path fill="#C49A6C" d="M85.3,355.7c13.4,14.9,29.1,26.5,48.2,33.1c2.8,0.9,5.8,1.5,8.7,1.5c14.6,0.1,29.2,0.1,43.7,0.1
		c1.3,0,2.6,0,3.9,0c-3.3-1.8-6.8-2.7-10.1-4c-16.7-6.8-29.3-18.4-38.8-33.6c-2.9-4.7-5.8-9.5-9.4-13.6
		c-7.9-8.8-18.2-14.6-27.9-21.6c0,0.9,0,1.7,0.1,2.5c3,12,7.6,23.3,15.6,33c9.5,11.5,21.4,20.1,34.1,27.6c0.9,0.5,1.7,1.1,2.6,1.6
		c-1.4,0.4-2.6,0.4-3.8,0.2c-16-2.7-29.6-10.1-40.6-21.9c-14.5-15.6-21.7-34.5-23.5-55.6c-0.6-6.3-1-12.7-2-18.9
		c-1.2-7.5-4.2-14.5-7.3-21.4c-2.9-6.4-5.4-12.9-6.7-19.9c-0.2-0.8-0.4-1.6-0.5-2.4c-0.9,0.8-1.2,1.5-1.3,2.2
		c-2.6,15.4-2.6,30.9-0.4,46.4c2.1,14.9,6.6,29.2,13.1,42.8c0.5,1,0.7,2,1.1,3c-1.1-0.2-1.6-0.6-2.1-1.1
		c-7.9-7.9-14.2-16.9-18.1-27.5c-7.2-19.5-9.4-39.6-7-60.2c2.6-22.3,12.1-41.5,27.1-58.1c6.7-7.5,14.7-13.1,24.4-16.1
		c0.8-0.2,1.5-0.7,2.3-1.1c-5.4-1.1-10.5-0.8-15.7,0.5c-14.3,3.5-25.8,11.3-35.3,22.4c-0.6,0.7-1.2,1.5-1.8,2.2
		c-0.5,0.6-1.2,1.1-2.4,2.3c5-12.4,10.2-23.6,17.8-33.5c19.1-24.7,50.7-22,67.6-9.9c9.2,6.6,13.4,15.6,12.1,27
		c-0.8,6.5-3.8,11.6-9.8,15.8c0.6-2.4,1.2-4.1,1.4-5.8c0.5-4.1-1.7-7.8-5.4-9.6c-3.5-1.7-7.9-1.2-10.6,1.2c-6.5,5.8-5,16,3.1,19.3
		c1.9,0.8,4.2,1.1,6.3,1.2c6,0,11.5-1.7,16.1-5.7c12.1-10.6,17.4-23.7,14-39.8c-0.2-0.8-0.2-1.6-0.3-2.7
		c7.9,5.6,14.8,16.7,16.9,26.8c3.3,16.1-3.7,30.3-18.8,36.7c-12.4,5.2-25.1,8.6-39.2,3.3c5,5.3,10.7,8,17.2,8.7
		c17.7,1.8,32.2-4.3,43-18.3c10.9-14.1,14.4-30.3,11.2-47.8c-3.1-17-11.8-30.5-25.6-40.8c-1.1-0.8-2.3-1.7-3.4-2.5
		c0.1-0.3,0.3-0.6,0.4-0.9c11.5-0.6,22.7,0,32.9,6.4c10.1,6.4,15.8,15.9,18.4,27.5c0.2-1,0.3-2,0.2-2.9
		c-2.2-17.9-10.7-31.7-26.7-40.5c-15.3-8.3-31.7-10.3-48.7-7.5c-28.1,4.6-51.3,17.8-68.7,40.4c-16.3,21.3-25.7,45.7-30.6,71.9
		c-4.2,22.6-3.4,45.2,2,67.5C54.5,312.1,67,335.5,85.3,355.7z M136.7,197.8c-2,0.1-3.8-1.6-3.9-3.7c-0.1-2.3,1.5-4.1,3.9-4.1
		c2.1,0,3.4,1.3,3.4,3.6C140.2,195.9,138.8,197.7,136.7,197.8z"/>
	<path fill="#C49A6C" d="M196.8,215.8c-0.5,1.2-1.4,2.3-2.4,3.1c-2,1.6-2.7,3.7-2.6,6.1c0,1.5,0.2,3,0.4,4.5c-0.2,0-0.4,0.1-0.7,0.1
		c-0.5-2.6-1-5.2-1.6-8.3c-2.5,5.3-4.1,9.8,0.5,14.2c0.6,0.6,0.7,2,0.5,2.9c-1.7,7.8,0.1,14.7,5.2,20.8c0.9,1.1,1.8,2.4,2.6,3.6
		c5.6,9.1,13.6,14.7,24.2,15.9c6.7,0.8,13.5,0.2,20.2,0.3c0.2,0,0.4-0.3,0.7-0.6c0.1-0.7,0.2-1.5,0.2-2.3c0.2-4.4,2.1-7.6,6.1-9.8
		c3.2-1.8,6.2-3.8,9.3-5.7c4.9-3.1,10.4-4.7,16.1-4.6c7.3,0.1,12.4-4,17.3-8.4c2.8-2.6,2.9-4.9,1-8.3c-0.7-1.3-0.9-2.4-0.1-3.8
		c0.5-0.8,0.8-1.6,1.3-2.6c-1.1-0.8-2.1-1.5-3-2.2c0.2-0.9,0.7-1.9,0.6-2.8c-0.1-0.9-0.4-2.4-1.1-2.7c-2.6-1.2-3.1-2.7-2.5-5.5
		c0.7-3.1-0.9-4.3-4.3-3.8c-0.5,0.1-1,0.3-1.6,0.3c-4.4,0.7-7.1-0.7-8.6-4.8c-1.8-5.1-4.6-9.1-9.5-11.5c-0.7-0.3-1.3-1.4-1.3-2.2
		c-0.2-4.6-1.8-6.5-6.2-6.9c-1.2-0.1-2.3,0-3.5,0c0-0.2-0.1-0.4-0.1-0.6c1.4-0.7,2.8-1.5,4.3-2.3c-3.2-1.7-5.9-1.1-8.4,0.5
		c-1.5,1-3.1,1.6-4.9,1.4c-2.9-0.4-5.6,0.3-8.2,1.6c-1.2,0.6-2.5,0.9-3.9,1.1c-6.9,1.4-13.6,3.4-19.8,6.8
		C205.9,203.2,200.2,208.4,196.8,215.8z M274.8,219.4c0.8,4.3-0.2,6-4.8,7.7C269.2,220.2,270.1,218.9,274.8,219.4z M257.1,253.7
		c-0.1-1.6-0.2-3.1-0.3-4.6C258.6,251.1,258.6,251.1,257.1,253.7z M244.1,246.2c-3.8,6-0.9,11.8,6.3,12.9c1.3,0.2,2.6,0.2,3.9,0.2
		c-4.3,2.6-12.3-1.9-13.5-6.6C239.9,249.6,240.9,247.7,244.1,246.2z"/>
	<path fill="#C49A6C" d="M316.8,324.1c2.8,8.3,5.4,16.6,8,25c1.6,5.2,3.2,10.5,5,16.5c7.1-6.3,13.1-12,17.4-19.3
		c4.1-7,5.9-14.5,5-22.5c-1.1-9.9-6.1-17.3-15.4-22.4c-0.3,1.7-0.6,3-0.7,4.3c-0.6,4.2-1.8,8.2-4.3,11.6c-0.9,1.2-1.8,2.5-4.1,3.2
		c1.1-1.6,1.8-2.6,2.4-3.6c2.2-3.3,3.6-6.9,4.1-10.9c0.2-1.8,0.3-4-0.5-5.5c-2.6-4.9-7-7.5-12.6-8.9c0.4,2.9,1,5.3,1.1,7.6
		c0.4,6.8-1.9,13-5.2,18.8C316,320.1,316.1,321.9,316.8,324.1z"/>
	<path fill="#C49A6C" d="M117.7,317.7c8.2,6.2,16.4,12.3,24.7,18.3c15,11,28.4,23.6,39.2,38.9c3.4,4.8,7.7,9,11.7,13.4
		c0.9,1,2.5,1.9,3.8,2c4.4,0.2,8.9,0.1,13.3,0.1c0.1-0.3,0.3-0.6,0.4-0.9c-6.7-6-10.8-13.7-15-21.4c-1.4-2.6-3.3-5-5.4-7
		c-5.4-5.1-10.9-10.1-16.7-14.7c-9-7.2-19.2-12.6-29.3-17.9c-18.7-9.8-35.7-21.8-48.4-39.1c-0.5-0.6-0.7-1.4-1.1-2.1
		c-0.4,0.3-0.8,0.5-1.3,0.8c0.2,1.6,0.1,3.4,0.8,4.8c1.1,2.4,2.5,4.8,4.1,6.9C103.9,306.8,110.7,312.4,117.7,317.7z"/>
	<path fill="#C49A6C" d="M254.9,268.4c0.8-1.4,1.3-2.2,1.8-3c-0.3-0.2-0.6-0.3-0.9-0.5C255.1,265.6,254,266.1,254.9,268.4z"/>
</g>
<g>
	<path fill="#C49A6C" d="M998.8,27.2c0.3,0.1,0.6,0.3,0.9,0.4s0.6,0.3,0.9,0.4c0.6,0.3,1.2,0.6,1.8,0.8
		c67.1,22.5,105.8,80.5,114.8,135.2c7,42.9-0.6,83-23.7,119.9c-1.4,2.2-1.9,4.3-1.6,6.8c0.9,8.5,0.9,17-1.4,25.3
		c-4.2,14.9-12.6,26.5-26.7,33.4c-9.8,4.7-18.9,10.4-27.5,16.9c-11,8.2-23.2,13.7-37,15.2c-7.8,0.9-15.6,0.8-23.3-1.3
		c-2.9-0.8-4.6-2.5-5.1-6c1.4,1.2,2.4,2,3.3,2.8c3.1,2.8,6.8,3.7,10.5,1.6c4.8-2.7,9.8-4,15.3-4.4c4.8-0.4,8.5-3.3,11.2-7.2
		c3.3-4.6,5-9.8,5.8-15.4c1.4-9.4,0.4-18.6-3.8-27.2c-1.9-4-4.5-7.4-8.4-9.6c-3.8-2.2-7.7-2.6-11.5-0.1c-2.8,1.9-5.5,3.9-7.9,6.3
		c-3.2,3.3-3.9,7.6-2.8,12.1c1.2,4.8,5.6,6.4,9.8,3.6c2.9-1.9,4.4-7,2.9-10.1c-0.8-1.7-2.2-2.7-4.1-3c-1-0.1-2.1-0.2-3.2-0.3
		c3.2-3.9,8.6-4,12.3-0.3c2.8,2.8,3.7,6.3,3.5,10c-0.1,2-0.4,4.1-1.1,5.9c-2.8,7.9-7.6,14.3-14.7,18.7c-6.5,4.1-13.5,5.3-20.8,1.9
		c-4.5-2.1-5-2.9-4.1-7.8c1.6-8.6,5.4-16.4,10.7-23.3c2.6-3.4,5.5-6.6,8.4-9.9c9.3-10.7,14.5-22.9,14.1-37.3c0-0.4,0.1-0.8,0.2-1.6
		c0.9,0.9,1.7,1.6,2.4,2.3c9.8,11,21.7,17.4,36.6,18.2c5.2,0.3,10.4,1.3,15.7,1.7c8.4,0.6,15-2.7,19.6-9.7c2.9-4.4,3.9-9.1,2.7-14.3
		c-0.2-0.7-0.2-1.5-0.3-2.5c6.1,5.6,7.9,16.7,4,23.2c-1.5,2.5-3.7,4.3-6.5,5.3c-2.3,0.8-4.6,1.4-7,1.9c-7.4,1.6-13.9,9.9-13.7,17.5
		c0.1,3.6,1.7,6.6,4.6,8.7c6.3,4.7,14.5,6.9,23.7,0.3c-1.8-0.8-3.3-1.4-4.7-2.2c-3-1.7-6.1-3.3-9-5.3c-2.3-1.6-3.2-4.3-3.6-7
		c-0.4-3.7,0.4-4.9,4.7-6.7c-0.5,1-0.7,1.7-1.1,2.3c-0.4,0.7-0.8,1.4-1.3,2.4c2.6,3.1,5.6,5.7,9.4,7.3c5.1,2.1,10.4-0.7,12.4-6.4
		c-2.8-0.9-5.3,0.3-7.8,0.9c-2.5,0.6-4.7,0.7-7.1-1.3c1.9-0.6,3.3-1,4.8-1.6c10.7-3.8,16.1-11.9,13.8-24.6
		c-1.9-10.2-7.7-17-18.5-19.6c0.1,1.1,0.1,1.9,0.3,2.8c1.6,10.3-4,17.6-14.5,18c-13.7,0.6-26.5-3-37.9-10.7c-7.5-5-9.8-9.8-7.9-20.7
		c0.4-2.1,1.2-4.2,2.1-6.1c7-15.9,24.4-27,41.2-26.4c2,0.1,4,0.5,5.9,0.8c0,0.3,0,0.5,0,0.8c-2.2,0-4.3,0-6.5,0
		c-11.2,0.3-19.8,5-25,15c-5.3,10.2-5.4,20.4,0.7,30.4c4.7,7.7,11.7,11,20.6,10.1c4.8-0.5,9.5-1.8,14.5-2.7c-0.6-2.8-2.5-3.9-4.2-5
		c-6.7-4.5-10.4-10.8-11.9-18.5c-2.1-11.1,6.1-22,17.3-23.2c8.1-0.9,14.9,5.5,13.9,12.9c-0.2,1.7-0.6,3.3-2.7,3.5
		c-1.6,0.1-2.8-0.4-3.1-2.4c-0.2-1.4-0.6-2.9-1.3-4.2c-0.7-1.4-2-2.2-3.7-1.7c-1.7,0.5-2.4,1.7-2.3,3.4c0.2,3.5,1.8,6.3,4.7,8.1
		c3.6,2.3,9.9-0.9,10.3-5.1c0.5-5.5-0.9-10.5-4.7-14.6c-5.5-6-12.3-9.4-20.3-10.7c-9.3-1.6-18-0.3-26.2,4.2
		c-0.3,0.2-0.7,0.2-1.5,0.4c1.5-5.1,4.2-9,9.1-10.2c11-2.7,21.7-1.9,31.7,3.9c4.5,2.6,7.4,6.7,9.5,11.3c2.3,4.8,5.6,8.6,10.1,11.3
		c0.4,0.3,0.9,0.5,1.4,0.7c0-0.4,0.2-0.8,0.1-0.9c-4-3.2-6-7.5-6.8-12.4c-0.3-1.7-1.1-3.3-1.8-4.9c-2.1-4.1-4.4-8.1-6.5-12.1
		c-1.5-2.8-3.5-4.7-6.8-5.2c-0.9-0.1-1.8-0.5-3-0.8c1.4-1.6,2.6-3,3.8-4.5c1.6-2.1,2-4.4,1.6-7.2c-1.8-11.3-9-18.8-17.8-25
		c-2.4-1.7-5.6-2.3-8.6-3.4c0.7-0.8,1.6-1.8,2.5-2.7c3-3,3.8-6.6,3.1-10.8c-0.6-3.6-1.1-7.3-1.6-11c-1.8,0.7-2.4,2.4-2.3,4.4
		c0.7,8.8-4.3,13.8-11.4,17.4c-9.5,4.9-19.4,5.2-29.5,2c-0.8-0.3-1.7-0.6-2.9-1.1c0.4,2.5,1.7,3.9,3.3,4.9c2.6,1.6,5.4,3,8.3,4
		c3.7,1.3,7.5,2.1,11.2,3.3c4.1,1.3,7.4,3.7,10,7.2c2.2,2.9,2.6,6,1.2,9.5c-2,4.9-4.5,8.8-10.7,8.6c-2.1-0.1-4.3,0.3-6.4,0.7
		c-6.1,1.3-11.1-0.8-15.7-4.6c-0.9-0.8-1.9-1.6-2.8-2.3c-8.9-7-13-16.4-12.8-27.6c0.1-6.5,0.6-12.9,1-19.4
		c0.4-5.8,0.5-11.6-0.9-17.3c-3.8-15.8-13.8-25.2-29.6-28.5c-3.7-0.8-7.5-1-11.2-1.4c-0.8-0.1-1.5-0.2-3-0.5
		c5.3-2.2,10-1.7,14.6-1.1c2,0.2,4,0.7,5.9,1.4c5.7,2,11.4,3.9,17.6,4.2c2.8,0.1,5.6,1.8,8.1,3.3c3.8,2.3,5.9,5.8,6.1,10.4
		c0,0.9,0,1.9,0.2,2.8c0.6,4,2.8,6.7,6.8,7.7c2.5,0.6,5,0.7,7.9,1.1c-1.6,2.8-4,4.6-6.8,5.3c-4.9,1.1-6.6,3.8-6.5,8.8
		c0,3.8-1.6,7.6-2.5,11.4c-0.6,2.2-1.2,4.4-2.1,6.5c-5,12,5.2,32.6,21.7,34.1c2.9,0.3,5.8,0.5,9.4,0.8c-0.7-2-1-3.3-1.5-4.4
		c-1.1-2.3-2.4-4.5-3.6-6.8c-1.8-3.5-4.5-6-8.4-7.1c-4.8-1.4-7.6-4.7-9-9.5c-1.1-3.9-2.7-7.6-4.1-11.4c-0.2-0.6-0.3-1.2-0.5-2
		c3.4-0.9,6.1,0,8,2.8c3.9,5.9,9.3,6.4,15.3,4.7c8.1-2.3,13.9-7.3,16.6-15.2c2.9-8.4,4.4-17,2.2-25.8c-0.7-2.8-2-5.6-3.5-8.1
		c-2-3.4-5.1-5.6-9.1-6.2c-4.1-0.6-7.8-2-11.3-4.3c-1-0.7-2.2-1.1-3.3-1.4c-4.4-0.9-7.6-3.5-9.7-7.4c-1.6-2.9-2.8-6.1-4-9.3
		c-1.3-3.5-3-6.5-6.6-8.3c-1.3-0.7-2.4-2.1-3.2-3.5c-1.2-1.9-2.1-4.1-3.2-6.1c-2.1-4-4.9-7.5-8.5-10.2
		c-13.9-10.8-29.1-19.1-46.5-22.8c-20.2-4.3-38.8,0.6-55.9,11.8c-2.1,1.4-3.9,3.3-5.6,5.3c-3,3.5-4.3,7.7-4,12.4
		c0.1,1.2,0.2,2.4,0.3,3.8c-1.9,0-3.6,0-5.3,0c-5.5,0-9.1,2.6-11.2,7.7c-1,2.4-2.5,4.7-4,6.9c-6.5,9.3-9.6,19.6-8.6,30.9
		c0.7,8.8,6.2,14.4,13.3,18.7c2.4,1.5,3.5,3.1,4.1,5.8c1.5,6.2,4.6,11.9,8.7,16.7c1.8,2.1,4.6,3.9,7.4,4.7
		c8.8,2.7,12.2,9.2,13.2,17.5c0.4,3.1,0.4,6.2,0.6,9.3c0.3,4.6,2.6,6.3,7,5.1c1.6-0.4,3-1.1,4.6-1.5c2.7-0.6,4,0.3,4.7,3
		c0.1,0.5,0.1,1.1,0.3,1.6c0.9,2.9,3.3,3.8,6,2.4c2.2-1.1,4.4-2.3,6.7-3.5c0.2,0.2,0.4,0.5,0.6,0.7c-0.7,1-1.5,1.9-2.1,3
		c-0.8,1.2-1.8,2.5-2.1,3.9c-0.2,1,0.3,2.4,0.9,3.3c0.8,1.1,2.1,0.8,3.3,0.3c1.4-0.7,2.9-1.1,4.5-1.7c0.5,1.3,0.8,2.2,1.1,3.1
		c2.4,7.9,9.7,10.8,16.4,6.2c3.5-2.4,6.7-5.4,9.8-8.4c4.2-4,8.2-8.2,12.2-12.2c10,6.9,15.4,16.3,16.5,28.1c0.6,6.6-1.6,11.7-8,14.4
		c-2.9,1.2-4.8,3.5-5.9,6.3c-1.8,4.8-3.4,9.7-5.3,14.4c-0.8,1.9-2,3.7-3.2,5.5c-2.6,3.8-5.6,7.3-7.9,11.2c-2.7,4.7-3.1,9.9-2.3,15.7
		c1.3-0.1,2.5,0.1,3.5-0.3c2.7-0.9,5.4-1.8,7.8-3.3c11.8-7,22.5-15.4,31.8-25.5c7.1-7.8,12.5-16.5,14.7-27.1
		c1.6-7.8,0.5-15.1-4.1-21.6c-2.5-3.5-5.2-6.9-7.9-10.3c-6-7.4-10.9-15.4-13.1-24.8c-1.5-6.5-1.8-13.1-1-19.7c1-8-0.1-15.6-3.8-22.8
		c-0.2-0.3-0.2-0.7-0.5-2c1.2,1.3,2,2,2.6,2.7c5,6.5,6.7,13.9,6.7,22c0,5.8,0.3,11.6,1.1,17.3c0.8,6.1,3.5,11.6,7.2,16.5
		c3.6,4.8,7.2,9.5,10.6,14.3c1.7,2.3,4.1,3.1,6.6,3.4c3.1,0.4,6.2,0.6,9.3,0.9c5.2,0.6,8.1,2.3,10.2,6.5c-0.8-0.2-1.4-0.3-2.1-0.4
		c-1.4-0.3-2.9-0.8-4.3-0.9c-5.7-0.5-7.9,2.5-5.7,7.7c0.8,2,2,3.8,2.7,5.9c0.4,1,0.4,2.6-0.1,3.4c-0.9,1.4-2.4,0.6-3.6-0.1
		c-2.2-1.1-4.3-2.2-6.5-3.3c-0.2-0.1-0.5,0-0.9,0c-0.8,1.2-0.8,2.1,0.5,3c1.8,1.3,3.5,2.9,5.4,4.4c-2.2,1.3-4.1,2.5-6.5,3.9
		c-0.1-1.4-0.2-2.4-0.2-3.4c0-1.1,0-2.1,0-3.8c-2.5,3.9-3.1,7.8-2.7,11.7c0.3,2.9,1.1,5.8,1.6,8.8c0.3,1.6,0.6,3.2,0.6,4.8
		c0,4-1.7,6.9-6.1,8.9c2.2-4.7,4.6-8.9,3.3-14.2c-0.6,0.6-1.2,1-1.6,1.5c-6.4,6.4-12.6,12.9-19.1,19.2c-9.2,8.9-19.8,15.8-30.8,22.2
		c-11.5,6.8-23,13.6-33.3,22.2c-0.7,0.6-1.5,1.1-2.4,1.4c-4.1,1.4-8.2,2.7-11.9,4c-4.5-3.4-8.8-6.8-13.2-10.2
		c-0.6-0.5-1.1-1.3-1.2-2c-0.5-6.6-3.8-11.7-9.2-16c2.1-1.7,4-3.4,6.1-4.9c0.7-0.5,1.7-0.5,2.6-0.5c0.9,0,1.9,0.3,2.8,0.3
		c6.4,0.3,11.2-0.6,13.1-10.7c0.4-2.2,1-4-0.4-5.8c0.3-0.6,0.6-1.1,0.8-1.5c1.4-2.7,1.3-3.1-1.2-4.9c-2.8-2-3.6-3.2-2.5-6.1
		c2.6-6.6,1.8-12.7-2.1-18.8c2.2,0,3.9,0,6,0c-0.4-0.8-0.6-1.5-1-2c-4.9-6.5-10.9-11-19.3-12.1c-8.1-1-16.1-2.2-24,0.7
		c-1.5,0.5-2.8-1.6-4.4,0.1c-1.1,1.2-2.7,1.7-4,2.8c-1.3,1.1-2.6,2.4-3.7,3.7c-1,1.2-2,2.6-2.7,4c-1.5,3.4-4,5.3-7.4,6.4
		c-2,0.7-4,1.5-6,2.4c-1,0.4-2,1.1-3.7,2.1c2.2,0.7,3.5,1.1,5.5,1.8c-1.4,1.7-2.7,3.3-4.3,5.3c1.2,0.1,2,0.2,3,0.3
		c-0.2,1.4-0.4,2.8-0.7,4.8c1.3-0.5,2.2-0.8,3.3-1.2c0.2,0.7,0.5,1.4,0.6,2.1c0.4,5.2,2.3,9.9,4.9,14.4c1.2,2,2.3,3.9,4.7,4.8
		c0.8,0.3,1.2,1.3,1.8,2c0.8,0.9,1.5,2.2,2.5,2.5c2.9,1.1,4.3,3.5,5.6,6.3c-0.3,0.6-0.7,1.4-0.9,2.1c-1.3,4.2-3.5,7.2-8.4,7.8
		c-1.9,0.3-3.6,2.2-5.3,3.5c-2.9,2.5-5.5,5.2-8.4,7.6c-3.8,3.2-6.7,7-8.7,11.5c-1,2.3-2.2,4.6-3.7,7.7c-1.4-1.7-2.3-3.1-3.4-4.2
		c-11.3-12.4-22.6-24.7-33.9-37c-3.2-3.4-5.5-7.1-6.8-11.7c-2.5-8.7-6.1-17-12.1-24c-0.9-1-1.7-2.1-2.8-2.9
		c-0.6-0.5-1.9-0.8-2.5-0.4c-0.6,0.4-1,1.6-0.9,2.4c0.3,1.6,0.9,3.1,1.4,4.6c0.4,1.2,0.9,2.4,1.7,4.5c-5-4-4.8-9.6-7.4-14.1
		c2.5-0.7,4.8,0.2,6.9,1.1c2.7,1.2,5.4,2.5,8.1,3.7c3.6,1.5,7.4,2.4,11.4,2.1c5.3-0.3,8.9-3,10.3-8.1c1-3.5,2.8-5.6,6.7-5.8
		c2.5-0.1,3.1-1.2,2.7-3.8c-0.1-0.7-0.4-1.3-0.6-2.2c0.7-0.1,1.3-0.2,1.9-0.3c3.1-0.3,3.9-1.1,4.3-4.2c0.5-4.2,0.9-4.6,5.3-4.8
		c0.8,0,1.6,0,2.4-0.2c2.9-0.7,3.9-2.4,3.1-5.4c-1-3.6-2.1-7.2-2.9-10.9c-1.1-5.3,0-9.9,4.3-13.5c2.8-2.3,4.4-5.5,5.4-8.9
		c1.9-6.1,3-12.3,2.3-18.7c-0.1-0.6,0-1.3,0-2.3c6.9-0.3,10.7-4.5,12.9-10.5c1.5-4.1,1.2-8.3,0.1-12.4c-1.2-4.2-3.2-8-6.3-11.2
		c-3-3.1-6-5.9-11-5.2c-0.4-4.7-1.6-8.7-5.5-11.3c-3.7-2.6-7.9-2.3-12.5-1.6c0.8-1.7,1.3-3.1,2-4.4c21.6-40.9,54.4-68.8,98.1-83.9
		c1.2-0.4,2.4-1,3.7-1.6c-105.3,0-210.6,0-315.9,0c-0.1,1.6-0.2,3.2-0.2,4.8c0,25,0,49.9,0,74.9c0,92.2,0,184.4-0.1,276.6
		c0,2.1,0,4.2,0,6.8c2.2,0,4,0,5.7,0c177.7,0,355.3,0,533,0c1.7,0,3.5-0.1,5.2-0.2c0-121,0-242,0-362.9
		C1086.8,27.2,1042.8,27.2,998.8,27.2z M991.6,326.4c-0.5,1-0.6,1.9-1.1,2.2c-3.5,2.1-3.5,2.1-2.7,6.2c-2.1-0.8-2.9-2.3-2.5-4.4
		C985.7,328.2,987.7,326.9,991.6,326.4z M1024.8,175.5c-4.1-0.4-8.3-0.9-12.4-1.6c-1.5-0.2-2.8-1.1-4.3-1.7c0.1-0.3,0.2-0.6,0.3-1
		c8.9,1.3,17.9,2.3,26.7,4.1c7.3,1.5,13.4,5.7,18.9,10.5c1.1,1,2.1,2.1,3,3.3c4.6,6,4.9,11.9,0.9,18.4c-2.9,4.7-7.5,5.8-12.9,6
		c0.2-0.7,0.2-1,0.4-1.2c9.1-7.3,8.3-23.2-3.9-31.7C1036.6,177.1,1030.7,176.1,1024.8,175.5z M958.4,68c3.7,2.5,8.3,3.7,12.6,5.5
		c-10.4,3.3-21.9-4.4-22.1-14.6C951.9,61.9,954.7,65.6,958.4,68z M946.1,66.9c1.3,2.1,2.7,4.2,4,6.4c1.4,2.4,2.7,5,4.2,7.3
		c2.6,4,6.4,6,11.3,5.7c4.2-0.3,8.3-0.8,12.5-0.8c4.3,0,8.1,1.7,10.8,5.4c-7-3.2-13.7-1.1-20.5,0.6c-10.1,2.6-17.6-2-20.1-12.1
		c-1-4-1.9-8.1-2.9-12.1C945.6,67.3,945.9,67.1,946.1,66.9z M946.2,94.3c6.9,0.9,13.9,1.9,20.9,2.5c9.1,0.9,18.3,1.3,27.1,4.1
		c10,3.1,18.8,8.2,25.8,16.1c8.5,9.5,12.1,20.4,9.8,33.2c-1.7,9.5-8.7,12.1-15.5,12.6c-1.2,0.1-2.6-0.6-3.6-1.4
		c-3.7-3.2-4.6-8.2-2.6-13.3c1.8-4.6,5.3-6.9,10.4-6.8c1.7,0,3.4,0.4,5,0.6c1.9,5.6,1.8,6.2-1.9,9.9c-0.6-1.1-1.1-2.1-1.7-3
		c-1.4-1.8-3.5-2-4.7-0.1c-1,1.5-1.5,3.4-1.8,5.2c-0.1,0.7,0.8,1.9,1.6,2.4c2.7,1.6,6.6,0.8,8.9-1.6c2-2.1,3.1-4.7,3.4-7.6
		c0.8-7.3-1.3-13.9-4.9-20.1c-8.1-14-20.4-22-36.3-24.4c-9.5-1.4-19-2.6-28.4-4.1c-5-0.8-10-1.8-14.5-4.7
		C944.2,93.9,945.2,94.1,946.2,94.3z M939.3,84.7c-1.3,6.7-8.3,10.1-15.8,7.4C929.9,91.3,935.2,89.6,939.3,84.7z M937.2,60.1
		c-5.1-6-11.4-9.8-19.7-11.9C927,46.7,934.9,51.7,937.2,60.1z M913.8,76.2c3.7,4.2,5.2,9.3,4.2,15c-5.6-12.6-14.5-21.7-27.6-26.4
		C899.5,65.9,907.6,69.2,913.8,76.2z M886.5,89c4.4-0.3,8.1-2.6,11.6-5.3c-4.5,9.4-15.9,11.5-23.9,4.9
		C878.2,88.8,882.4,89.2,886.5,89z M871.8,95.4c7.4,9.2,17.3,13.4,28.8,14.4c5,0.4,10,0.5,14.9,0.8c9.3,0.5,18.5,1.6,26.7,6.8
		c-2.6-4.2-6.4-6.8-10.9-8.5c-4.9-1.8-10-2-15.2-1.7c-5.6,0.3-11.3,0.9-16.9-0.7c-4.7-1.4-8.8-3.8-11.7-8c1.1,0.5,2.1,0.9,3.2,1.4
		c4.9,2.4,10.1,3.5,15.7,3.4c6.3-0.2,12.7-0.4,19,0c7.1,0.3,13.4,3,18.7,7.8c4.8,4.3,9.5,8.8,16.1,10.6c-4.5,2.7-8.8,3.1-13.3,1.2
		c-1-0.4-2-0.8-2.9-1.4c-7.3-4.7-15.3-6.4-23.8-6.5c-7.3-0.1-14.6-0.5-21.8-1.2c-6.5-0.6-12.7-2.4-18.1-6.4c-4.5-3.3-8-7.5-9.7-13.2
		C871,94.7,871.5,95,871.8,95.4z M880.6,133.1c5.3,3.1,11,5,17.2,5c7.3-0.1,12.6-3.3,15.5-10.2c0.7-1.6,1.3-3.2,2.1-5.1
		c1.3,8.4-3.5,16.1-11.3,17.9c-6.6,1.6-13.1,1.2-19.3-1.8c-3.4-1.6-6.2-4-7.6-7.8C878.4,131.8,879.5,132.5,880.6,133.1z
		 M876.7,111.3c8.2,6.9,16.9,11.4,27.6,12.1C895.6,129.1,881.1,122.7,876.7,111.3z M867.6,116.8c-4.6,2.2-11.9-1.7-13.9-7.7
		C858.3,111.7,863.1,114.3,867.6,116.8z M896.8,168c-3.6,4.7-8.2,4.4-11.7-0.6c7.5,1.2,7.5,1.2,14.7-9.1
		C899.5,162.3,898.8,165.4,896.8,168z M962,161.6c-0.4,2.2-1.7,3.9-3.1,3.8c-1.4-0.1-2.3-1.6-2.3-4.1c0-1.3,0-2.7,0-4.4
		c-1.2,0.3-2.2,0.5-3.1,0.9c-5.8,2.4-11.6,2.3-17.4,0.2c-1.6-0.6-3.4-1-4.9-1.9c-5.5-3.2-11.6-4.2-17.8-4.8
		c-9.1-0.9-18.2-1.8-27.3-3.3c-11.3-1.9-20.6-7.7-28.6-15.8c-3.2-3.3-5.6-7.1-6.5-11.9c0.7,0.9,1.4,1.7,2.1,2.6
		c11.3,15.7,26.9,23,46,22.4c6.1-0.2,12.2-2.1,18.2-3.5c7.2-1.7,14.3-3.7,21.5-5.6c0.7-0.2,1.5-0.1,2.4,0.1
		c-8.3,4.1-17.2,6.6-25.8,10.4c6.2,0.2,11.2,3.4,16.5,5.9c6.9,3.2,13.8,3.1,20.7-0.2c1.8-0.9,3.1-1.9,3-4.2c0-1.2,0.6-2.4,1-3.9
		c3.5,1.9,4.2,4.8,4.6,7.7c0.3,2.5,0.6,5.1,0.8,7.6C962,160.3,962.1,160.9,962,161.6z M967.7,120.1c6.1,0.6,10.2,5.1,10.9,12.3
		C972.1,130.5,969.7,125.6,967.7,120.1z M1005.9,249.2c-1.3-1.9-2.7-3.7-4.1-5.7C1005.7,242.7,1006.9,244.2,1005.9,249.2z
		 M1003.9,265.8c-0.9,8.2,0.7,15.2,5.5,21.4C1001.4,285.1,998.1,273.3,1003.9,265.8z M828.8,158c2.2-6.7,2.3-13.2-1.9-20.1
		C833,143.3,833.6,151.8,828.8,158z M752.7,200.2c-0.2,2.4-0.1,4.8,0,7.2c0,1.1,0.6,2.3,0.3,3.2c-1.2,3.6-1.9,7.1,0.2,10.7
		c0.7,1.2-0.3,2.6-2,2.9c-1.5,0.3-3.2,0.3-3.6-1.6c-0.3-1.5-0.3-3.3,0.4-4.6c2.4-4.3,2.7-8.6,1.1-13.2c-0.9-2.7-0.7-5.3,0.7-7.8
		c2-3.5,3.5-3.6,6.6,0.3C753.8,196.9,752.9,198.4,752.7,200.2z M799.4,213.1c-0.5-2.7-1-5.1-1.6-8.3c2,2.1,3.4,3.5,4.7,5
		C801.5,210.8,800.6,211.8,799.4,213.1z M809.5,157.9c0.1-0.1,0.2-0.1,0.7-0.3c-1,7.8-3.5,14.6-10.1,19.2c-11.2,7.7-23.1,8-35.4,3
		c-0.2-0.1-0.3-0.4-0.4-0.5c4.8,0.1,9.8,0.5,14.7,0.3c14.2-0.7,24.8-6.8,30-20.6C809,158.6,809.3,158.3,809.5,157.9z M806.6,135
		c1.7,3.6,1.4,7.3,1,11c-0.7,5.9-2.8,11.2-6.4,15.9c-11.3,14.9-30.9,11.9-40.5,3c-0.6-0.5-1-1.2-1.4-2.2c5.2,2.1,10.2,4.5,15.8,4.8
		c5.8,0.3,11.3-0.8,16.2-4c4.7-3.1,8.3-7.3,10.9-12.3C804.9,146.2,806.1,140.8,806.6,135z M790.3,151.1c8.1-6.1,10.9-14.7,11.3-24.5
		c1.7,2.9,1.5,6,1.2,9c-0.9,7.6-3.9,14.2-9.6,19.5c-4,3.8-8.8,5.6-14.4,5c-5.2-0.5-10-2.2-14.3-5.1c-0.4-0.3-0.7-0.7-1.4-1.6
		C772.8,156.2,782,157.3,790.3,151.1z M696.4,124.3c5.7-7.1,12.9-12.2,21.2-15.8c11.6-4.9,23.6-7.4,36.3-6.8
		c6.4,0.3,12.5,1.9,18.2,4.9c0.7,0.4,1.4,0.8,2.1,1.2c0.2,0.1,0.3,0.4,0.6,0.8c-6.2-1.1-12.1-2.7-18.1-3.2
		c-22.4-1.8-42.2,4-57.8,21.2c-4.3,4.8-7.4,10.3-9.7,16.2c-0.5,1.3-1.1,2.6-1.9,3.9C687.9,138.2,691.1,130.8,696.4,124.3z
		 M743.4,167.8c-8,2.4-14.7,6.9-20.6,13.5C725.3,174,735.1,167.7,743.4,167.8z M724.8,169.3c0.7-8.6,6.1-13.9,13.8-13.6
		C732,158.2,727.9,163.3,724.8,169.3z M672.4,309.7c3,1.2,5.9,2.5,9,3.3c3,0.8,6.2,1,9.4,1.5C686.1,318.2,677.2,315.9,672.4,309.7z
		 M688.2,337.1c-1,3.1-2.1,6.1-3.4,9.9C684.1,342.7,685.2,339.6,688.2,337.1z M675.5,345.4c0.8,4.4,2.9,8.5,4.4,12.6
		c-7.8-4.2-9.4-17.8-4.6-26.3C675.3,336.6,674.8,341.1,675.5,345.4z M673.6,253.2c11.5-2.3,22.6-2.3,32.3-7.7
		C701.7,253.3,686,256.3,673.6,253.2z M690,241.3c4-4.5,8.2-8.9,12-13.7c5.7-7,9.7-14.9,10.6-24.1c0.4-3.7,0.1-7.5,0.1-11.4
		c2.2,6.2,2,12.2,0.7,18.4c-1,4.7-2.9,9-5.5,12.9C703.2,230.7,697,236.5,690,241.3z M667.7,157.6c3.5-6.5,7.8-12.6,13.4-17.7
		c-0.9,1.3-1.8,2.7-2.7,4c-4.7,6.4-9.1,13-12.1,20.5c-3.2,8.1-5.3,16.5-4.3,25.2c1.6,13.4,9.2,23,20.1,30.3c1.1,0.7,2.3,1.4,3.4,2.1
		c-6.5,0.1-11.6-3-16-7.3c-5.8-5.7-8.5-13-9.4-20.9C658.7,180.9,661.5,168.9,667.7,157.6z M665,240.2c-6.2,9.7-11.4,19.2-12.4,30.8
		C648.4,263.3,654.7,247.7,665,240.2z M651.6,190.7c-2.4-4.1-1-14.2,3.4-21.1C653.8,176.8,652.6,183.9,651.6,190.7z M633.9,157
		c3.1-8,9.5-11.9,17.7-13.6c-13.9,7.2-18.1,18.7-15.5,33.5C632.2,170.5,631.2,163.8,633.9,157z M630.1,241.9
		c-4.2-5.8-5.6-12.4-5.4-19.4c0-1.7,0.5-3.4,0.7-5.1c0.3,10.9,3.7,20.4,11.1,28.6C633.5,245.6,632.2,244.8,630.1,241.9z M632.5,274
		c-3.1-2.1-4-4.7-3.8-8.4C630.1,268.5,631.2,271.1,632.5,274z M626.2,191.2c-13,2.6-14.8,3.7-23,14.4
		C603.2,196.8,614.6,189.4,626.2,191.2z M622,200.6c-1.4,4.2-3,7.9-4,11.9c-1,3.9-1.3,7.9-1.8,11.8
		C612.9,217.4,615.6,205.7,622,200.6z M606.7,283.4c15.1,8.7,20.7,7.8,32.9,6C629.6,296.5,613.5,293.6,606.7,283.4z M617.1,299.9
		c8,3.8,16.2,4.5,25.2,2C635.4,308.9,623.4,307.9,617.1,299.9z M632.3,337.8c2.6,5,5.5,9.6,11.2,11.6
		C636.7,349.7,632.3,345.1,632.3,337.8z M642.6,228.7c-1.2,2.5-1.9,5.2-2.9,7.9c-1.7-6.1,0.7-11.7,7.3-15.3
		C645.6,223.7,643.9,226.1,642.6,228.7z M649.2,317.3c-1-10.4,1.9-19.3,10.7-25.6C654.4,299.4,650.8,307.9,649.2,317.3z
		 M664.2,282.1c3.9-1.7,7.6-3.3,11.4-4.9C672.6,280.7,669,282.3,664.2,282.1z M665.9,349.8c2.1,3.1,3.8,6.3,6.1,8.7
		c2.5,2.5,5.5,4.7,8.7,6.4c3.1,1.7,6.7,2.5,10.7,4C676.6,370.3,666.4,362.6,665.9,349.8z M696.4,274.3c-1,0.3-2,0.5-3,0.8
		c-0.1-0.2-0.1-0.3-0.2-0.5c1.1-0.7,2.2-1.3,3.3-2c6.3-3.6,12.3-7.8,17.3-13.3c7.3-8,11.3-17.4,12-28.1c0.6-8.6,0.6-17.2,0.9-25.9
		c0.2-6.1,1.3-12.1,3.3-17.8c2.8-8,9.7-15.1,22.6-14c-1.7,0.5-2.7,0.8-3.7,1.1c-6.1,1.6-11,4.9-14.6,10.2
		c-3.5,5.1-5.8,10.7-6.1,16.9c-0.4,6.6-0.2,13.2-0.3,19.8c-0.2,6.2,0.2,12.5-0.8,18.5C724.1,257.8,713.1,268.7,696.4,274.3z
		 M802.5,360.3c-0.4,2.8-1.1,5.5-1.9,9.2c-1.5-1.9-2.5-3-3.3-4.3c-6.5-9.5-11.5-19.8-15.7-30.5c-3.8-9.7-8.1-19.1-14.6-27.4
		c-5.2-6.8-11.1-12.8-18.2-17.8c-1.9-1.3-3.8-2.5-5.8-3.6c-7.6-4.2-15.3-4.7-23.3-1.1c-1.2,0.5-2.4,1-3.6,1.5
		c7.5-6.8,16.2-9.6,26.7-7.5c-3.8-9.8-3.4-18.6,4.1-26.2c-0.9,6.8,0.6,13,4.6,18.6c-2.5-0.6-3.9-2.6-5.6-4.1c-1.1-1-2.2-3-4-1.8
		c-1.7,1.2-0.6,3.1,0.2,4.3c2,2.8,4,5.8,6.6,8.1c5.3,4.7,11.1,9,16.6,13.6c2.5,2.2,4.8,4.7,6.9,7.3c5.5,6.8,11.1,13.5,17.3,19.8
		C803.6,332.9,805.3,340.1,802.5,360.3z M874.2,273.9c-0.9,3.9-0.4,7.2,4.1,9.3c-3.4,0.5-4.1,0.1-5.3-2.3
		C871.4,277.8,871.6,276,874.2,273.9z M919.9,344.2c-0.9,1-2,1.8-3.2,2.5c-7.3,4.1-12.7,9.9-16.9,17.1c-2.5,4.3-4.9,8.7-7.3,13
		c-2.6-5.2-4.9-10-7.5-15.3c0.4-0.6,1.3-1.7,1.9-3c0.7-1.3,1.5-2.6,1.7-4c0.7-3.9-2-6.6-5.7-5.3c-5.1,1.8-9.9,4.1-14.9,6.3
		c-0.8,0.4-1.6,1-2.8,1.2c0.4-0.7,0.7-1.5,1.2-2.2c2-3.2,4.2-6.3,6.1-9.5c1.3-2.1,2.3-4.4,0.2-6.7c-1.7-1.8-3.8-2.1-7-0.2
		c-3.6,2.1-7,4.5-10.3,7.1c-3,2.3-5.6,5.1-8.4,7.6c-0.5,0.4-1,0.7-2.1,1.4c1.8-4.6,3.3-8.5,4.9-12.5c1.1-2.6,3-4,5.9-4.2
		c1.7-0.1,3.6-0.4,5.1-1.2c1-0.5,2.1-2,2.2-3c0-1-1.1-2.5-2.1-3c-1.6-0.8-3.6-1-6.4-1.7c2.4-0.5,3.9-0.8,5.4-1.1
		c1.2-0.3,2.4-0.5,3.4-1.1c2.4-1.3,2.5-4.2,0-5.4c-1.5-0.7-3.3-1-5.1-1.2c-2.1-0.2-4.3-0.1-6.5-0.2c-0.1,0-0.1-0.2-0.5-0.7
		c2.5-0.8,4.9-1.6,7.2-2.3c1-0.3,2.1-0.5,3.1-0.8c1.5-0.4,2.9-1.1,2.8-2.9c-0.1-1.8-1.5-2.4-3-2.9c-1.3-0.4-2.6-0.6-3.9-0.9
		c-0.8-0.2-1.5-0.3-2.9-0.6c2.6-2,5.9-2.8,5.7-6.4c9.4-0.9,16.5,2.7,22.6,9.8c-6.2,1.8-11.5,4.3-15.8,9c0.6,1,1.1,2.1,1.9,2.9
		c5.3,6.3,11.9,10.9,19.5,14.1c4.3,1.8,8.3,1.5,11.8-1.5c9.3-7.9,20.4-12,31.8-15.4c9.7-2.8,18.6-7.2,26.8-13
		c8.3-5.8,14.9-13.2,19.7-22.2c1-2,2.1-4,3.6-5.9c0.8,2.7,0.6,5.4,0,8.1c-2.3,8.8-7.6,15.4-14.6,20.8c-3,2.3-6.2,4.2-9.5,6.2
		C944.3,323.4,931,332.4,919.9,344.2z"/>
	<path fill="#C49A6C" d="M946.6,237.2c3.8-1,7.6-1.7,11.4-2.6c4.1-1,7.9-2.7,11-5.6c0.7-0.6,1.2-1.5,2.2-2.8
		c-1.1,0.2-1.6,0.2-1.8,0.3c-4.3,3.1-9.1,4.3-14.3,5.2c-5.2,0.9-10.3,2.2-15.2,3.8c-9.1,3-14,9.6-15,19.1c-0.2,1.4-0.3,3.1-1,4.2
		c-1.7,2.8-2.8,5.8-2.9,9.1c0,0.8-0.3,1.6-0.7,2.3c-3.5,7-7.1,13.9-10.8,21c-5,0.3-10.2-1.1-15.8,0.2c0.5,6.7,1,13.2,1.5,20.1
		c1.3-0.1,2,0,2.6-0.1c7.7-1.5,15.1-3.8,22.2-7.4c2.6-1.3,4.3-3.6,5.6-6.2c3.3-6.5,5.7-13.4,7.2-20.5c0.6-2.7,1.7-4.7,3.3-7
		c3.4-4.6,5.9-9.7,8.9-14.8c-2.4-2.2-4.2,0.2-6.2,1.1c-3.3-5.7-4.9-0.8-6.9,1.3c-1.1-0.3-2.2-0.6-3.3-0.9
		C929.9,247.1,936.5,239.8,946.6,237.2z"/>
	<path fill="#C49A6C" d="M1024.9,347c3,4,6.9,6.4,12.1,5.9c10.4-0.8,19.9-4.5,29.6-9.5c-1.6-1.2-2.5-2-3.5-2.6
		c-4.2-2.8-5-2.7-8.6,0.9c-4,4-9,5-14.1,2.5c-2.4-1.2-4.6-2.8-6.6-4.6c-2.6-2.5-4.9-5.4-7.4-8.1c-0.8-0.9-1.7-1.9-3.1-3.5
		c-0.8,6-0.8,11,0.1,16C1023.7,345.2,1024.3,346.2,1024.9,347z"/>
	<path fill="#C49A6C" d="M1045.6,308.2c-5.7-0.7-10.9-1.3-16.1-2c-7.9-1.1-15.8-1.8-23.8-1.1c-3.6,0.3-7.1,0.9-10.4,4.6
		c8.7-1.3,15.7,1.4,22.8,4.2c2.1,0.8,4.3,1.6,6.5,2.2C1032.7,318.2,1040.1,315.6,1045.6,308.2z"/>
	<path fill="#C49A6C" d="M1084.2,263.3c1.4,5.7,3.7,11.2,5.6,16.8c0.2,0.6,0.9,1,1.8,2c1.2-4,2.4-7.5,3.2-11
		c0.7-3.1,0.6-6.2-0.7-9.1c-1.9-4.3-4.1-8.4-6.4-13C1083.4,253.4,1083,258.4,1084.2,263.3z"/>
	<path fill="#C49A6C" d="M832.2,115.2c0.6-3.8,1-6.9,1.7-9.9c0.7-3,1.9-5.9,2.9-8.8C832,101.7,829.5,107.4,832.2,115.2z"/>
	<path fill="#C49A6C" d="M1076.2,246.1c0.7,0,1.4-0.8,1.8-1c0.1-2.4-1.6-4.9-3-4.5c-0.6,0.1-1.4,1.1-1.5,1.9
		C1073.1,244.1,1074.7,246.2,1076.2,246.1z"/>
</g>
<g>
	<path fill="#C49A6C" d="M114,659.4C113.9,659.4,113.9,659.4,114,659.4C114,659.4,114,659.4,114,659.4
		C114,659.4,114,659.4,114,659.4z"/>
	<path fill="#C49A6C" d="M108.3,678.6c2.3-1.8,5-3.1,7.6-4.5c2.4-1.2,5-2.1,7.4-3.2c5.5-2.5,9.7-6.4,12.6-11.6
		c1.3-2.4,2.6-4.8,3.7-7.2c3.7-7.7,10-12.2,18-14.5c6.6-1.9,13.3-1.8,20.1-1.1c9.8,1.1,19.2-0.7,27.7-5.6
		c11.4-6.6,20-15.9,25.3-28.1c0.7-1.5,1.3-3,1.9-4.5c-2.2,12.3-6.7,23.6-15,33c-3.8,4.3-8.4,7.6-13.8,9.7c-2.2,0.9-4.5,1.8-7.2,2.8
		c1.2,0.5,1.8,0.9,2.6,1c5.2,1.1,10.1,3.2,14.5,6c5.2,3.2,10.2,6.6,15.1,10.1c5.9,4.2,12,7.7,19,9.7c1.3,0.4,2.6,0.7,3.8,1
		c-1.5-1.7-2.8-3.2-4.1-4.8c-3.3-4.1-4.7-8.3-1.9-13.4c2.1-3.9,3.6-8.1,5.4-12.2c1.1-2.6,2-5.3,3.3-7.8c2.2-4.4,5.2-8.2,9.6-10.7
		c4.9-2.7,8.8-2.4,13.1,1.1c2,1.6,3.9,3.4,5.8,5c3.7,3,7.7,5.5,12.2,7c6.1,2.1,11.1,0.4,15.3-4.4c1.1-1.3,2.1-2.8,3.1-4.2
		c2.5-3.6,5.5-5.7,10.3-4.7c2.9,0.6,4.1-0.6,4.8-3.5c0.2-0.7,0.1-1.5,0.2-2.5c1,0.1,1.6,0.2,2.3,0.2c4.6,0.2,6-1,6.6-5.6
		c0.1-1.1,0.3-2.1,0.6-3.2c1.1-3.4,2.5-4.2,6-3.8c1.3,0.1,2.7,0.3,4,0.3c3.9-0.3,6.2-2.6,6.2-6.5c0-1.7-0.2-3.5-0.4-5.2
		c-0.4-5.5-1-11-1.2-16.5c-0.2-5.1,1.8-9.1,6.2-11.9c4.5-2.9,8-6.8,10.5-11.6c4.9-9.3,6.8-19.3,5.8-29.8c-0.7-7.1-3.3-13.6-8.1-19.1
		c-5.6-6.4-13.7-8.6-21.6-5.4c-3.7,1.5-7.1,3.7-10.5,6c-2.8,1.9-5.2,4.2-7.9,6.3c-7.2,5.7-15.1,9.9-23.9,12.4
		c-8.3,2.4-16.5,2.5-24.5-1.1c-2.6-1.2-5.2-2.2-7.9-3.2c-4.6-1.6-9.1-3.5-13.8-4.6c-11.4-2.9-21.7-1.1-30,7.9
		c-0.1,0.1-0.4-0.1-0.7-0.2c2.6-4.7,6.6-7.8,11.4-9.8c5.3-2.2,10.8-2.4,16.3-1.3c5.3,1,10.5,2.6,15.7,4c6.4,1.8,12.8,3.5,19.4,3.7
		c15,0.4,28.5-3.7,40.1-13.5c3.7-3.1,7.7-6,12-8.2c11.5-6,22.9-2.9,29.9,8c3.9,6,6,12.6,6,19.9c0,2.3,0,4.5,0,6.8
		c3.4,0.6,6.2-0.3,9-1.4c9.6-3.9,15.5-11.1,18.4-20.8c3.9-13.3,1.8-26.2-4.3-38.5c-4.1-8.1-10.2-13.8-19.2-16.2
		c-2.2-0.6-4.3-1.4-6.6-2.1c0.4-1.6,0.7-2.9,1.1-4.2c1.7-5.8,0.1-10.8-4-14.8c-6.4-6.3-14-8.9-23-6.4c-1.6,0.4-3.1,0.9-4.7,1.2
		c-2,0.4-3.8-0.1-5-1.9c-1.2-1.8-2.2-3.7-3.4-5.5c-9.4-14-23.1-16.9-39.6-16.8c-35.8,0.3-87.4,9.4-109.2,40.7
		c-3.6,5.2-7.2,10.4-10.8,15.6c-8.6,12.7-18.9,23.5-32.9,30.5c-5.3,2.6-10.2,6.1-14.8,9.8c-7.4,5.9-12,13.6-12.5,23.2
		c-0.2,4.4,0.4,8.9,0.9,13.3c0.8,6.6,2,13.1,0.4,19.7c-1.4,6.1-4.3,8.8-10.5,9.4c-3.5,0.4-7,0.4-10.5,0.3c-9.6-0.3-18.5,2-26.3,7.8
		c-6,4.4-10,10.2-11.3,17.6c-2.2,12.1,0.5,23.1,8,32.8c4.3,5.6,10.3,8.6,17,10.3c1.1,0.3,2.2,0.1,3.9,0.2c-1.3-2.5-2.3-4.3-3.2-6.3
		c-5.9-12.5-3.3-25.5,7.4-34.3c3.9-3.2,8.5-5.7,12.9-8.2c3-1.8,6.3-3.1,9.4-4.8c6.4-3.5,10.3-8.9,12.2-15.9
		c1.6-5.8,1.8-11.7,1.1-17.7c-0.8-6.8-1.6-13.7-0.1-20.6c2-9.5,7.2-17.2,14.7-23.1c6.8-5.4,13.9-10.2,21.1-15
		c6.5-4.3,12.7-8.7,17.3-15.1c0.3-0.4,0.7-0.6,1.1-1c-4.7,12-10.7,23-22.1,29.9c-4,2.4-8.3,4.5-12.4,6.9c-3.6,2.1-7.3,4.2-10.7,6.6
		c-5.7,4-7.6,9.6-5.5,16.4c1.1,3.7,2.4,7.4,3.6,11.1c3.3,9.8,2.3,19.1-2.9,28c-0.9,1.6-1.8,3.2-2.9,5.1c4.1-0.4,7.7-0.8,11.3-1.2
		c-1.1,0.9-2.3,1-3.5,1.2c-16.2,2.1-27.8,10.4-34.1,25.5c-2.6,6.3-3.7,12.9-4.5,19.6c-0.6,4.8-1.2,9.7-2.5,14.3
		c-1.5,5.3-5.2,8.8-10.8,9.6c-3.2,0.5-6.4,0.9-9.6,1.3c-25,2.9-37.9,29.3-26.3,51.2c4.9,9.2,12.3,15.3,22.6,17.5
		c1.7,0.4,3.6,0.3,5.4,0.5c-0.8-1.3-1.8-2-2.7-2.6c-5.6-3.9-8.6-9.2-8.4-16.1c0.2-7.5,3.3-13.6,8.9-18.4c3.1-2.6,6.4-5,10-6.8
		c6.1-3.2,12.5-5.7,18.7-8.7c3.1-1.5,6.1-3.4,9.1-5.1c0.5-0.2,1.1-0.1,1.7-0.1c0,0,0-0.1,0-0.1c-0.2-0.6-0.6-1.3-0.4-1.8
		c1.6-4.8,0.5-9.3-1-13.8c-1.2-3.6-2.4-7.1-3.5-10.8c-0.4-1.4-0.5-2.9-0.1-4.4c1.9,6.3,4.1,12.6,5.7,18.9c1,3.9,0.3,8-0.7,11.9
		c0,0,0,0.1,0,0.1l0,0c-4.3,5-9.7,8.3-15.7,10.9c-1.1,0.5-2.3,0.9-3.2,1.7c-2.3,2-4.9,4-6.6,6.4c-3.6,5.2-3.4,10.9-0.7,16.5
		c1.5,3.1,3.1,6.3,4.6,9.4c1.5,3.4,0.7,6.4-1.9,8.8c-2,1.8-4.2,3.3-6.5,4.7c-2.4,1.5-5,2.6-7.3,4.3c-2.3,1.6-4.5,3.5-6.2,5.7
		c-3.4,4.4-3.3,8.9,0.1,13.4c1.2,1.6,2.6,3.1,3.9,4.6c1.9,2,2.1,4.2,0.8,6.7c-0.9,1.7-1.8,3.3-2.5,5c-1.4,3.3-0.5,6.2,2.2,8.3
		c1.7,1.4,3.9,2.3,6.1,3c2,0.7,4.2,1,6.3,1.5c6,1.5,6.2,2,3.5,7.5c1.1,0,2.2,0,3.2,0c3-4.9,2.2-7.9-2.7-10.6
		c-2.2-1.2-4.7-2.1-6.9-3.3c-3-1.7-3.3-3.6-1.3-6.3c1.3-1.7,3-3.2,4.3-4.8c2.7-3.4,2.7-6.1,0-9.5c-0.4-0.5-0.9-1-1.3-1.5
		c-2.4-3.2-2.3-5.6,0.8-8c2.5-2,5.4-3.5,8.2-5.2c3.1-1.9,6.5-3.4,9.4-5.5c7.9-5.4,9.5-12.2,5.3-20.7c-0.8-1.6-1.7-3.1-2.6-4.6
		c-0.7-1.3-1.5-2.5-2.2-3.9C101.9,687.7,102.8,682.9,108.3,678.6z M359.9,559.4c-3.8,2.1-7.5,1.9-10.6-0.3
		c-7.3-5.1-15.1-9.2-23.1-13.2c-0.5-0.2-0.8-0.6-1.2-1.2c6.4,1.5,12.9,0.2,19.3,0.7C352.1,546.1,357.5,551,359.9,559.4z
		 M352.2,505.3c-4.1,1.1-8.2,2.3-12.2,3.4C342.9,506.2,346.3,505.2,352.2,505.3z M298.5,540.8c6.9-1.5,12.7-5.2,17.7-10
		c4.1-3.9,7.8-8.2,11.7-12.3c2.7-2.8,5.4-5.5,8.1-8.2c0.2,0.2,0.4,0.4,0.6,0.6c-5,5.5-9.9,11-15,16.4c-4,4.3-8.4,8-13.4,11
		c-5.6,3.3-11.6,5-18.4,3.6C292.9,541.5,295.7,541.4,298.5,540.8z M252.9,564.7c2.7,4.1,7.5,3.6,9.5-0.8c0.7-1.6,0.9-3.5,1.3-5.4
		c0.7,5.8-1.5,10-5.6,10.4c-4.3,0.5-7.7-3.4-7.8-9.7C251.3,561.4,251.9,563.2,252.9,564.7z M196.7,546.1c6,0.4,11.7-0.9,17.4-3
		c-10.7,7.5-25.1,5.6-33.9-2.4C185.4,543.4,190.8,545.7,196.7,546.1z M173.1,600.4c8.1-2.2,16.2-4.1,24.2-6.5
		c15.6-4.6,27.4-14,35.9-27.9c0.8-1.4,1.7-2.7,2.6-4.1c-11,31.1-42.8,47.3-69.2,40.3C168.8,601.7,170.9,601,173.1,600.4z M145,577.2
		c0.5,0,1,0.1,1.5,0.1c0,0.1-0.1,0.2-0.1,0.2c-0.5,0-1,0-1.4,0C145,577.4,145,577.3,145,577.2z M139.3,620c3.1-6.3,8.4-9.5,15.2-9.8
		c5.8-0.3,11.6,0,17.4,0.3c9.6,0.5,19.2,0.8,28.6-1.1c13.1-2.6,23.4-9.5,30.1-21.2c1.9-3.3,3.5-6.7,5.2-10.1
		c0.6-1.1,1.2-2.2,1.9-3.2c-3.8,19.7-16.3,31.9-36.5,36.1c-10,2.1-20.1,2-30.2,1.5c-5.4-0.3-10.8-0.4-16.1,0.8
		c-8.6,1.9-14.5,6.9-17.1,15.4c-0.4,1.4-0.9,2.8-1.6,4.9C136.5,628.4,137.4,624.1,139.3,620z"/>
	<path fill="#C49A6C" d="M114,659.4L114,659.4C114,659.4,114,659.4,114,659.4C114,659.4,114,659.4,114,659.4
		c-4.3,5-9.7,8.3-15.7,10.9C104.2,667.7,109.7,664.4,114,659.4z"/>
	<path fill="#C49A6C" d="M477.9,655.2c0.9-1.4,2.1-1.2,3.3-1.1c0.6,0.1,1.1,0.1,1.6,0c-0.7-1.1-1.5-2.2-2.2-3.3
		c-1.1-1.9-2.4-3.7-3-5.7c-1.6-4.6-0.3-7.8,4-10.2c2.2-1.3,4.5-2.4,6.9-3.4c12.7-5.7,21.9-15,28.3-27.3c8.8-16.8,8-33.4-1-49.9
		c-0.4-0.7-0.8-1.4-1.2-2.1c-2.9-4.7-6.6-8.9-10.5-12.8l0,0c-4.5-2.6-8.9-5.6-13.7-7.7c-10.3-4.6-21.2-6.1-32.4-5.9
		c-5.5,0.1-10.7-0.4-15.7-2.9c-1.5-0.8-3.3-1.3-5-1.5c-2.9-0.4-5.8-0.8-8.9,1c1.6,1.7,4,2.7,3.8,5.6c-5.7-2.8-11.4-2.7-17.7-1.5
		c3.5,3.1,6.5,5.7,9.5,8.3c-11.7-3-17.5-2.5-20.6,2.3c4,0.5,8,1,11.2,4.1c-5.5-0.3-10.1,1.3-13.7,5.5c-3.5,4.1-5,9-5.9,14.8
		c8.2-9.9,11-12,16.4-11.7c-1.3,1-2.3,1.5-2.9,2.3c-7.3,9.2-12.1,19.2-8.9,31.4c0.2,0.9,0.4,1.9,0.5,2.8c0.4,4-1,8.4-6.3,9.9
		c-3.7,1.1-4.5,3-2.4,6.3c1.6,2.5,1.8,4.7,0,7c-1.1,1.5-0.6,2.8,0.5,3.9c0.5,0.6,1.2,1,2,1.7c-2.2,2.3-2.2,4.3,0.4,6.5
		c1,0.8,1.5,2.9,1.4,4.4c-0.2,4.3,2,6.9,5.5,8.6c2,1,4.2,1.8,6.5,2.3c4.3,1,8.8,1.6,13.1,2.4c3.6,0.7,3.9,1.1,4.4,4.7
		c0.5,3.5,0.8,6.9,1.2,10.7c8.9-2,17.6-3.4,25.7,2.5c-0.4,0.2-0.5,0.3-0.6,0.2c-1-0.4-2-0.8-3-1.2c-9.6-3.3-18.8-2.6-27.8,2.1
		c-8.1,4.3-10.9,9.9-9.8,19c0.3,2,0.6,4,0.4,6c-0.2,2.2-0.5,4.6-1.5,6.5c-1.4,2.6-3.5,4.7-5.5,7.2c-2.1-0.2-4.3-0.4-6.4-0.7
		c-6.3-1.1-11.4,1.2-15.6,5.8c-1.5,1.7-2.8,3.6-4.2,5.5c-4.7,6.6-9.8,12.9-16.2,18c-11.6,9.4-24.5,12-38.7,6.8c-2.6-1-5-2.5-7.4-3.8
		c0.1-0.3,0.2-0.5,0.3-0.8c11.2,4,22.2,3.8,33.1-0.6c8.9-3.7,21.9-17.4,22.7-23.7c-9.8,5.2-20,8.8-31,10c-14.9,1.6-26.9-3.3-35-16.1
		c-3.1-5-5.3-10.6-7.9-15.9c-2.2-4.6-4.1-9.4-6.8-13.8c-2.1-3.4-5-6.4-7.8-9.2c-1.9-1.8-4.4-3.1-8-2.8c4.6,3.3,7.8,6.9,9.7,11.5
		c1.5,3.6,2.8,7.3,3.9,11c3,10.2,5.9,20.4,8.8,30.7c0.1,0.5,0.1,1,0.3,2.5c-7.8-8.7-10-19.1-14.9-28.5c0.5,4.7,1,9.4,1.6,14.1
		c-1.2-1.7-2-3.4-2.3-5.2c-0.9-5.3-1.6-10.7-2.4-16c-0.9-6-2.7-11.5-6.2-16.5c-2.1-3-4.6-5.4-8.2-6.7c0.3,1.1,0.8,1.9,1.3,2.8
		c2.7,3.8,5,7.8,5.8,12.4c1.2,6.6,2.5,13.3,2.8,20c0.6,11.5,3.1,22.3,8.1,32.8c2.3,4.8,3.9,10.1,5.1,15.3c1.8,7.7,1.2,15.8,4.1,23.4
		c-1-0.5-1.7-1-2.3-1.6c-8.4-8.4-16.8-16.8-25.3-25.1c-7.5-7.3-14.1-15.2-19.5-24.2c-3.3-5.4-6.5-10.9-9.7-16.4
		c-6.4-10.9-13.9-20.9-23.2-29.4c-0.8-0.7-1.5-1.6-2.3-2.4c1.5,0.2,2.6,0.8,3.7,1.6c10.5,7.4,18.8,16.9,26,27.5
		c2.4,3.6,5,7,7.7,10.4c1.8,2.3,4.3,3.8,7.3,3.8c7.3-0.1,13.7,2.5,19.7,6.5c0.7,0.4,1.5,0.6,1.9,0.7c-1.1-5.2-2.4-10.3-3.4-15.4
		c-1.4-7.7-2.4-15.4-4.1-23.1c-1.4-6.5-4-12.6-8.4-17.8c-2.2-2.6-4.8-4.8-7.8-6.5c1.2,2.5,2.8,4.7,3.9,7.1c1.6,3.7,3.3,7.4,4.2,11.3
		c1,4.2-0.8,6.6-4.9,8c-3.4,1.1-6.9,1.2-10.4,0.5c-7.7-1.6-14.4-5.3-20.8-9.6c-5.3-3.5-10.5-7.1-15.9-10.4
		c-9.3-5.5-19.2-9.2-30.1-10c-13.5-0.9-25.3,2.9-35.1,12.4c-6.5,6.3-11.1,14-14.5,22.2c-10.5,25.4-12.9,51.7-6.9,78.5
		c1.5,6.8,4,13.4,6,20.1c16.2,0,32.4,0,48.6,0c-0.6-1.2-1-2.5-1.7-3.6c-7.2-11.1-15.9-20.8-27-28c-0.5-0.3-0.9-0.8-2-1.7
		c4.2,0.6,7.3,1.9,10,3.8c3.5,2.5,7,5.2,9.8,8.3c6.3,6.9,12.2,14.1,18.2,21.1c68.1,0,136.1,0,204.2,0c4-7.9,8-15.9,12.1-23.8
		c4.1-8,8.1-16.2,12.6-24c4.3-7.4,10-13.7,16.7-19.1c0.6-0.5,1.3-0.7,1.6-1.5c-6.2,1.7-11.7,4.5-16,9.1
		c-5.3,5.7-10.3,11.8-15.3,17.8c-3.2,4-6.2,8.1-9.9,11.9c0.6-1.2,1.2-2.5,1.9-3.7c-0.2-0.1-0.4-0.3-0.5-0.4
		c-1.1,1.2-2.1,2.3-3.2,3.5c-4.7,4.9-9.9,9.2-15.8,12.6c-14.1,8.3-28.6,8.9-43.4,2.1c-8.9-4.1-16.5-10.2-23.8-16.7
		c-0.2-0.2-0.2-0.5-0.5-1.3c2.1,0.7,3.9,1.2,5.5,2c2.4,1.2,4.8,2.6,6.9,4.2c13.8,10.8,29.2,12.5,45.6,8.4
		c13.4-3.3,24.5-10.4,32.8-21.6c1.6-2.2,3.2-4.3,4.7-6.8c-10.6,9.4-21.7,17.2-37.7,15.7c1.5-0.8,2.2-1.3,2.9-1.5
		c3.2-1.1,6.4-2.2,9.6-3.3c10.8-3.5,20.3-9.3,28.5-17.1c3.8-3.6,7.8-7.1,11.8-10.5c6-5.2,12.9-8.8,20.7-10.6
		c4.9-1.1,9.6-2.7,12.5-7.4c0.4-0.7,1.5-1.1,2.3-1.2c4.9-1,9.8-1.8,14.7-2.8c2.4-0.5,4.8-1,7.1-1.5c1.1-0.3,2.3-0.6,3.6-0.9
		c-0.7-5-1.3-9.6-1.8-14.3c-0.4-4-0.8-8.1-0.9-12.1c0-2.5-0.2-5.2,2.1-7.1c0,0,0,0,0,0C476.9,655.7,477.4,655.5,477.9,655.2z"/>
	<path fill="#C49A6C" d="M518.8,726.6c2-12.2,4-24.5,8.6-36.1c1.1-2.9,0.8-4.5-0.8-5.4c-1.5-0.9-3.6-0.4-5.4,1.6
		c-1.3,1.5-2.6,3.1-3.5,4.9c-3.8,7.8-6.3,16-6.6,24.8c0,0.7-0.2,1.5-0.3,2.2c-0.4-3.1-0.4-6.2,0-9.3c0.8-5.6,2.5-11.2,2.6-16.8
		c0.2-11.6-0.4-23.2-0.7-34.8c0-0.3,0-0.5-0.1-0.8c-0.4-1.8-0.8-3.5-2.8-4.1c-2-0.5-3.9,0-5,1.7c-1.1,1.8-2.3,3.8-2.6,5.8
		c-0.7,5.6-1.1,11.3-1.3,16.9c-0.2,8.9-1.1,17.7-3.8,26.3c-0.3,0.9-0.7,1.7-1.4,3.4c-0.3-2.3-0.5-3.6-0.6-5
		c-0.3-6.5-1.7-12.8-3.7-19c-1.3-3.8-2.1-7.8-3.1-11.7c-1.5-5.7-2.3-11.6-5.6-16.7c-1.6,0.1-3.3,0.3-4.9,0.4c0,0,0,0,0,0
		c-0.5,0.3-1,0.5-1.5,0.8c-0.8,3-1,5.9-1,8.9c0,0,0,0,0,0c0,0.5,0,1,0,1.5c0,0.5,0.1,1.1,0.1,1.6c0,0.3,0,0.6,0.1,0.9
		c0,0.5,0.1,1,0.2,1.5c0.1,0.5,0.1,1.1,0.2,1.6c0.1,0.5,0.1,1.1,0.2,1.6s0.2,1.1,0.2,1.6c0.1,0.5,0.2,1.1,0.3,1.6
		c0.3,1.6,0.6,3.2,0.8,4.8c0.6,3.4,1.6,6.8,2.2,10.3c1.5,7.6,1.1,15.3-0.3,22.9c-0.3,1.5-1.3,3-2.2,4.2c-2,2.7-4.2,5.2-6.6,8.2
		c0.7-2.6,1.4-4.8,2-7c1.5-5.4,1.2-10.7-1.1-15.8c-0.5-1.1-1.1-2.2-1.8-3.1c-1.3-1.6-2.8-3.1-5.1-2.3c-2.3,0.7-3.6,2.5-3.6,4.8
		c0,4.9-2.4,9-3.4,13.6c0,0,0,0.1-0.1,0.1c-0.1,0.1-0.3,0.2-0.4,0.3c-0.4,0.8-0.8,1.6-1.2,2.5c-0.2,0.4-0.4,0.8-0.7,1.2
		c-0.2,0.4-0.5,0.8-0.7,1.2c-3.8,5.6-6.6,11.7-8.7,18.2c-2,6.1-1.9,12.2-0.7,18.4c0.2,1.1,0.4,2.1,0.6,3.2c1,4.8-0.3,8.7-4.1,11.9
		c-1.2,1-2.1,2.4-3.2,3.6c15.7,0,31.3,0,47,0c2.9-3.3,5.7-6.8,8.7-10c4.6-4.9,9.7-9.5,13.8-14.7
		C513.9,745.4,517.2,736.5,518.8,726.6z"/>
	<path fill="#C49A6C" d="M477.9,655.2C477.9,655.2,477.9,655.2,477.9,655.2c-0.5,0.3-1,0.5-1.5,0.8c0,0,0,0,0,0c0,0,0,0,0,0
		C476.9,655.7,477.4,655.5,477.9,655.2C477.9,655.2,477.9,655.2,477.9,655.2z"/>
	<path fill="#C49A6C" d="M587.3,663c-4.6-7.9-11.6-13.5-21.5-13.9c-2.6-0.1-5.3-0.5-8.3,0.7c1.5,1.1,2.5,1.9,3.6,2.6
		c5.9,4,10.6,9.1,14.3,15.2c4.9,8.1,7.7,17,8.5,26.3c1.5,17-2.8,32.6-13.1,46.4c-5.7,7.5-12.7,13.5-21,17.9c0.6-1.1,1.6-2,2.3-3.1
		c3.2-4.3,6.7-8.5,9.4-13.1c9.4-16.1,12.2-33.5,8.2-51.5c-4.5-20.7-17.4-35.3-36.1-44.7c-14.1-7.1-29.2-10-44.9-10.6
		c-0.9,0-1.9,0.1-3.6,0.2c5.8,2,10.8,3.6,15.7,5.5c14.3,5.8,27.3,13.7,36.9,26.1c13.1,16.9,18.7,35.9,14.3,56.9
		c-5.2,24.9-20.7,41.5-43.8,51.3c-1,0.4-2,0.8-3,1.2c-1,0.4-2,0.8-3,1.2c14.6,0,29.2,0,43.7,0c1.2-0.9,2.3-1.8,3.5-2.6
		c21.8-14.2,39.1-37.5,44.4-63.2C596.5,699,595.6,677.2,587.3,663z"/>
	<path fill="#C49A6C" d="M502.2,777.9C502.2,777.9,502.2,777.9,502.2,777.9c1-0.4,2-0.8,3-1.2C504.2,777.1,503.2,777.5,502.2,777.9z
		"/>
	<path fill="#C49A6C" d="M444.3,764.4c-15.5,4.3-27.5-1.5-37.7-13.4c-0.6,1.6-1.1,2.8-1.6,4c-3.1,7.1-6.2,14.3-9.3,21.4
		c-0.1,0.1-0.1,0.2-0.1,0.4c-0.1,0.2-0.1,0.5-0.2,0.8c0,0.1-0.1,0.3-0.1,0.4c13.8,0,27.5,0,41.3,0c1.9-2,3.8-4.1,5.9-6.1
		C444.6,769.7,445.2,767.3,444.3,764.4z"/>
	<path fill="#C49A6C" d="M395.3,777.9L395.3,777.9c0-0.1,0.1-0.3,0.1-0.4C395.4,777.6,395.3,777.8,395.3,777.9z"/>
	<path fill="#C49A6C" d="M521.7,541.4c9.8,1.6,18.9,5.1,25.9,12.2c12.6,12.9,16.9,28.5,11.8,45.8c-5,16.9-17,26.7-34.1,30.3
		c-6.6,1.4-13.4,1.6-20.1,1.4c-1.1,0-2.1,0.1-4,0.3c5.4,3.8,10.5,5.6,15.9,6.1c13,1.4,25.6,0.1,37.4-6.1c9.6-5,17.1-12.3,21.5-22.3
		c6.3-14.3,4.9-28.5-2-42.2c-15.1-29.8-49-35.8-69.8-27.6c0,0,0,0,0,0C509.9,540,515.9,540.4,521.7,541.4z"/>
	<path fill="#C49A6C" d="M384.1,665.3c3.1-0.2,6.2,0.1,9.3-0.1c2.4-0.1,4-1.8,4.2-3.7c0.2-1.8-0.9-3-3.6-3.5
		c-4.6-0.8-9.3-1.7-14-2.2c-2.1-0.2-4.4-0.2-6.4,0.4c-7.3,2.3-14,5.6-18.2,12.6c-1.3,2.2-2.9,4.2-4.5,6.3c-1.2,1.6-2.4,3.2-3.8,5
		c-1-1-1.8-1.7-2.4-2.6c-2-2.8-4.5-3.8-7.7-2.3c-1.5,0.7-2.6,0.4-4.1-0.4c-1.9-1.1-3.5,0-3.3,2.3c0.1,1.1,0.7,2.3,1.2,3.3
		c0.6,1.1,1.5,1.9,2.1,3c1.7,2.8,1.3,4.7-1.5,7.4c-0.6-0.9-1.1-2-1.9-2.6c-1.1-0.9-2.5-1.7-3.8-1.9c-2.5-0.4-3.7,1.3-2.4,3.5
		c2.8,4.6,5.9,9,10.5,12.2c2.9,2,6,2.3,9.2,0.7c1.7-0.8,3.3-1.8,4.9-2.9c1.3-0.9,2.5-1.3,4.1-0.6c3.1,1.4,6.3,0.7,9.5-0.3
		c3.8-1.2,7.1-3.3,9.8-6.2c1.4-1.5,2.8-2.1,4.9-2.3c3-0.3,5.5,0.4,8.1,1.6c1.9,0.9,4,1.5,6.1,1.7c1,0.1,2.3-1.2,2.9-2.2
		c0.2-0.4-0.8-1.7-1.4-2.5c-0.5-0.6-1.3-1-1.9-1.4c-4.3-2.9-8.4-6.4-13.9-7.9c4.5-1.9,8.1-1.3,11.7,0.9c2.4,1.4,5.2,2.3,7.9,3.1
		c1.8,0.5,3.6-0.1,4.4-1.9c0.9-1.9,0-3.4-1.7-4.5c-7-4.4-13.6-10-22.7-9.3c-0.2,0-0.5-0.2-1.4-0.5c0.9-0.5,1.3-0.9,1.8-1
		C378.8,665.9,381.4,665.4,384.1,665.3z"/>
	<path fill="#C49A6C" d="M542.6,733c4.6-14.5,2.8-28.9-3-42.7c-2.6-6.3-6.3-11.9-12-16c-1.8-1.3-3.7-2.6-6.1-2.8
		c0,0.6-0.1,0.9,0,1.1c0.9,1.6,1.9,3.3,2.8,4.9c6.4,11,10.6,22.6,11.2,35.5c1,20.4-11.5,46.1-34.4,55.4c-1.8,0.8-3.6,1.6-5.4,2.5
		c0.1,0.2,0.1,0.5,0.2,0.7c1.3-0.1,2.7-0.1,4-0.3C521.4,766.5,536,754,542.6,733z"/>
	<path fill="#C49A6C" d="M513.3,620.1c-1.3,1.2-2.7,2.2-4.5,3.6c9.4,2.2,19.1-0.4,25.7-6.8c6.5-6.3,9.7-13.9,7.4-23
		c-1.8-7.5-9.2-14.8-16.1-16.3c0.9,3.7,2.1,7.3,2.7,10.9c1.5,8.4-0.1,16.1-5.9,22.6C519.7,614.3,516.5,617.2,513.3,620.1z"/>
	<path fill="#C49A6C" d="M325.6,672.9c0.4-3.5-1.8-6.7-5.2-7.6c-4.1-1.1-6.5,0.6-8.9,6.8c-5.9-0.4-8.9,1.5-9.2,5.6
		c-0.3,4,3.4,8.2,7.5,8.6c4.7,0.5,6.7-1.7,7.5-8.5C323,677.7,325.1,676.4,325.6,672.9z"/>
	<path fill="#C49A6C" d="M548.5,636.9c-3.4,0-6.2,2.8-6.3,6.1c0,3.5,2.8,6.4,6.4,6.4c3.5,0,6.1-2.6,6.2-6.1
		C554.9,639.7,552.1,636.9,548.5,636.9z"/>
	<path fill="#C49A6C" d="M522.2,669.7c2.9,0.2,5.6-2.1,5.8-5c0.2-2.7-2-5.2-4.8-5.5c-3-0.3-5.5,1.9-5.7,5
		C517.4,667.2,519.4,669.5,522.2,669.7z"/>
	<path fill="#C49A6C" d="M562.3,642.4c0,2.1,1.8,3.8,3.8,3.9c2.1,0,3.9-1.7,3.8-3.8c0-2.1-1.7-3.9-3.8-3.9
		C564,638.6,562.2,640.4,562.3,642.4z"/>
	<path fill="#C49A6C" d="M456.1,701.8c-16.3,4.2-27,15.2-37.3,27.5c1.2,0.8,1.8,1.2,2.5,1.6c7.2,3.7,14.9,4.3,22.9,3.4
		c2.1-0.3,3.3-1.1,4.2-3.1c0.8-1.9,1.7-3.7,2.7-5.4c0.3-0.6,0.7-1.2,1.1-1.8c0.1-0.1,0.1-0.2,0.2-0.3c0,0,0,0,0,0
		c1.3-2.1,2.9-4,4.6-5.8c0,0,0,0,0,0C457.3,712.6,458,707.3,456.1,701.8z"/>
	<polygon fill="#C49A6C" points="457.1,717.7 457.1,717.7 457.1,717.7 	"/>
	<path fill="#C49A6C" d="M457.1,717.7C457.1,717.7,457.1,717.7,457.1,717.7L457.1,717.7L457.1,717.7z"/>
	<polygon fill="#C49A6C" points="457,717.8 457,717.8 457,717.8 457,717.8 	"/>
	<path fill="#C49A6C" d="M452.4,723.7c1.3-2.1,2.9-4,4.6-5.8c0,0,0,0,0,0C455.2,719.6,453.7,721.6,452.4,723.7z"/>
	<path fill="#C49A6C" d="M452.4,723.7c-0.1,0.1-0.1,0.2-0.2,0.3C452.2,723.9,452.3,723.8,452.4,723.7z"/>
	<path fill="#C49A6C" d="M452.4,723.7C452.4,723.7,452.4,723.7,452.4,723.7C452.4,723.7,452.4,723.7,452.4,723.7z"/>
	<path fill="#C49A6C" d="M452.2,724c-0.4,0.6-0.7,1.2-1.1,1.8C451.4,725.2,451.8,724.6,452.2,724z"/>
	<path fill="#C49A6C" d="M457,717.8C457,717.8,456.9,717.9,457,717.8C456.9,717.9,456.9,717.9,457,717.8
		C456.9,717.9,456.9,717.9,457,717.8C457,717.8,457,717.8,457,717.8z"/>
	<polygon fill="#C49A6C" points="457.1,717.7 457.1,717.7 457.1,717.7 	"/>
	<path fill="#C49A6C" d="M457.1,717.7L457.1,717.7c-0.1,0.1-0.1,0.1-0.1,0.1c0,0,0,0,0,0C457,717.8,457,717.8,457.1,717.7z"/>
	<path fill="#C49A6C" d="M457,717.8C457,717.8,457,717.8,457,717.8c0,0,0.1-0.1,0.1-0.1c0,0,0,0,0,0l0,0
		C457,717.8,457,717.8,457,717.8z"/>
	<path fill="#C49A6C" d="M412.9,737c-1.4,2.8-2.6,5.6-3.8,8.2c4,4.9,14.2,12,18.3,12.9c-0.3-0.6-0.6-1.1-1.2-2.1
		c5.9,2.4,11.3,5.1,17.4,5c-0.3-5.7-0.6-10.8-0.8-16c-10.2-2.1-18.8-6.9-26.8-13.6C414.8,733.5,413.7,735.2,412.9,737z"/>
</g>
<g>
	<path fill="#C49A6C" d="M971.2,713.1c6.6-6.5,14.7-10.5,23.4-13.3c10-3.2,20.2-6,30.2-9.1c12-3.6,23.9-7.6,34.8-14
		c4.3-2.6,8.2-5.7,11.5-9.5c0.5-0.6,0.9-1.4,1.6-2.7c-1.1,0.5-1.5,0.6-1.8,0.8c-11.1,7.6-23.4,12.2-36.7,14.2
		c-9.3,1.4-18.7,2.8-27.9,4.8c-20.8,4.3-35.8,16.3-45.3,35.2c-0.5,1-1,2.1-1.9,3.8c-0.6-4.8,0.5-8.5,1.7-12.2
		c4.3-13,13.1-22.3,25-28.5c8-4.2,16.4-7.6,24.6-11.3c8.4-3.7,16.7-7.7,24.3-12.8c7.6-5.1,14.3-11,19.7-18.5
		c4.9-6.8,8.5-14.3,10-22.8c-11.6,21.7-30.9,33.3-53,41.3c0.9-1.3,1.9-2.3,3.1-3.2c5.2-4.4,9.8-9.4,13.1-15.3
		c11-19.8,11.7-39.6-1-58.9c-6.4-9.8-15.7-16.3-26.2-21c-7.1-3.2-14.6-5.7-21.7-8.8c-4.4-1.9-8.8-4.1-12.8-6.8
		c-5.9-3.9-8.7-9.8-8.6-16.9c0-6.4,1.8-12.3,5-17.7c8.4-14,24-21.1,38.7-16.8c14.1,4.1,23.1,13.8,26.6,27.9c2,7.9,0.4,15.3-6.6,20.7
		c-0.1,0.1-0.1,0.5-0.1,0.9c3,1.4,4.4-1.8,6.6-2.5c0.7,0.8,1.3,1.6,2.3,2.8c1.4-1.8,2.6-3.4,3.7-5c0,0.1,0.1,0.3,0.1,0.4
		c2.1-1.1,4.2-2.1,6.9-3.5c-1-1.7-1.6-3.3-2.7-4.3c-2.3-2.2-5.2-1.2-8-0.4c0-6.3,0.6-12.2-0.1-18c-1.9-15.2-17-29.3-32.4-30.7
		c-17.2-1.6-31,5.3-41.4,18.5c-9.3,11.8-11.8,25.3-6.1,39.6c3.9,9.8,11.6,16.2,20.9,20.5c4.4,2,9.1,3.4,13.7,5
		c21.2,7.2,34.7,21.4,38.8,43.6c2.9,15.6-1.5,28.9-14.2,38.9c-3.6,2.8-7.4,5.4-11.2,7.9c-9.5,6.2-18.3,13.3-26,21.8
		c-6.7,7.3-12.5,15.3-15.7,24.8c-0.8,2.5-1.5,5.1-2.2,7.4c-5.3-10.8-10.7-21.7-16.2-32.8c1-1.9,3.2-1.7,5.1-2.1
		c5.6-1.4,11.4-2.2,16.8-4.2c14.4-5.4,24.2-15.3,28.3-30.5c2-7.4,2.6-14.9,1.9-22.5c-1.5-15.3-8.9-27-22.8-34
		c-10.5-5.3-21.7-8-33.6-7.9c-13.9,0.1-25.5,5.4-34.8,15.5c-3.4,3.7-6.5,7.6-7.5,12.7c-0.7,3.5-3.2,5.2-6.6,5.6
		c-1.7,0.2-3.5,0.1-5.3,0.2c-4,0.2-5.3,1.8-4.7,5.7c0.6,3.7,0.7,3.9-2.9,5.4c-2.3,1-3.1,2.4-2.8,4.7c0.1,0.8,0.3,1.6,0.5,2.5
		c-1.7,1.1-3.2,2.4-2,4.6c1.3,2.4,1,4.7,0.4,7.1c-1,3.5,0.2,6.4,2.8,8.7c3.1,2.8,6.6,5,10.7,6.4c7,2.4,10,7.7,11,14.7
		c-0.7,0.2-1.2,0.4-1.7,0.4c-6.8,0.1-13.4,1.3-19.9,3.1c-3.4,0.9-6.8,1.6-10.3,2.2c-1.4,0.3-2.9,0.3-4.1-0.9
		c-7.3-7.1-16.1-11.7-25.3-15.8c-1.4-0.6-2.7-1.7-3.8-2.8c-3-3.1-6.3-5.9-10.5-7.3c-2.1-0.7-4.2-1-6.3,0.1c-4.6,2.4-9,10.8-8.4,16
		c0.1,0.8,0.6,1.5,1,2.2c0.3,0.6,0.9,1,1.2,1.6c1.5,3.2,1.9,3.9,4.7,3.1c3.2-0.9,6-0.6,9,0.4c0.9,0.3,1.9,0.4,2.8,0.3
		c1.7-0.2,2.7,0.6,3.6,1.9c2.1,3,4.3,5.9,6.6,8.7c8,9.9,18.4,15,31.1,15.8c7.9,0.5,13.9-2,18.3-8.7c2.1-3.2,4.8-6.2,7.6-8.9
		c13.6-13,35.1-4.5,40.7,8.6c0.4,0.9,0.6,1.8,0.9,2.7c-1.1-1-1.8-2.2-2.5-3.3c-5.7-8.8-15.5-12.7-25.6-10.2c-5.2,1.3-9.7,4-13.7,7.6
		c-9.7,8.9-16.8,19.4-19.9,32.2c-1.2,4.9-1.7,10.1-2.2,15.2c-0.8,6.5-3.4,9.2-9.8,9.4c-5.4,0.2-10.8,0.4-15.8,4.3c0-1.3-0.1-2,0-2.6
		c1.3-9.3-1.7-17.3-7.7-24.3c-3.4-4-7-7.8-10.8-11.5c-15.9-15.5-29-33-38.5-53.1c-3-6.3-6.7-12.3-10.2-18.4c-2.6-4.7-4-9.6-2.3-14.8
		c4.3-13.1,12.3-23.4,23.6-31.3c3.2,3.7,6,7.4,9.1,10.7c5.5,6,11.7,11.2,19.2,14.7c6.4,3,11.9,0.5,14.1-6.1c1.7-5.1,2.2-5.5,7.8-5.8
		c3.8-0.2,5.3-2.2,4.1-5.9c-0.5-1.5-1.4-2.8-2.2-4.4c0.5,0.2,0.9,0.2,1.2,0.5c2.2,1.6,4.5,2.4,7.2,1.8c3.2-0.7,4.1-3.1,4.7-5.9
		c0.4-1.9,1.9-2.5,3.7-2.5c2.3,0,4.6,0.2,6.9,0.2c5.1-0.1,7.3-2.8,6.5-7.9c-0.2-1.1-0.6-2.1-0.9-3.1c-0.3-1.4-0.9-2.9-0.9-4.3
		c0.3-8.5,2.4-16.2,8.8-22.4c1.8-1.8,3.7-3.5,5.4-5.5c10.2-12,13-26,11.2-41.3c-0.2-1.4-0.3-2.8-0.5-4.4c1.8-0.3,3.2-0.6,4.8-0.9
		c-0.5,10.4-1.1,20.3-1.6,30.2c-0.3,4.6-0.1,9.1,1.3,13.5c9.4-6.3,13.2-16.6,10.8-29c4.8,4.9,5.9,11.2,2.6,16.9
		c-1.5,2.5-3.5,4.8-5.4,7c-6,6.7-7.7,14.6-6.6,23.4c0.6,4.3,2.5,7.9,6.2,10.5c2.5,1.8,4.7,2.2,7.6,1.5c-6.1-5.4-7.9-9.4-7.4-16.5
		c0.3-4.6,1.9-8.8,5-12.1c4.1-4.4,8.7-8.3,13.1-12.4c1.6,2.4,1.4,4.5,1,6.7c-0.4,2.1-1,4.2-1.3,6.3c-0.8,6.7,0.9,9.5,7,12.5
		c1.9,0.9,3.8,2.1,5.4,3.5c2.3,2.2,2.5,4.3,0.9,7.6c-5.2-3-10.3-6-15.7-9.1c-0.7,4.8,1,8.7,3.1,12.4c2.2-0.1,4.1-0.3,6-0.3
		c13.2-0.3,25.3,3.8,36.5,10.4c14.7,8.6,21.8,22,21.4,38.7c-0.4,14.7-4.2,28.6-14.4,39.9c-0.5,0.6-0.8,1.4-1.2,2.1
		c0.2,0.2,0.4,0.4,0.7,0.6c6.3-4.1,12.6-8.2,18.9-12.3c0.3-0.2,0.9-0.5,0.9-0.8c-0.1-2.3,1.9-2.6,3.2-3.4c3.6-2.2,6.9-4.8,9.3-8.3
		c0.9-1.3,1.5-2.9,2.4-4.8c-6,0.6-9.8,4.6-14.7,5.9c-1-3.4-1-3.4,1.1-4.9c3.6-2.7,6.9-5.6,9.1-9.6c1.9-3.4,1.8-6.7-0.2-9.3
		c-1.6,2.2-3,4.5-4.7,6.6c-1.7,2.1-2.8,4.9-5.7,5.9c-2.1-1.8-0.4-3.4,0-4.8c2.8-8.6,2-16.2-5.4-22.4c-0.6-0.5-1.1-1.4-1.8-2.3
		c1.1-0.4,1.8-0.7,2.6-1c5.1-1.9,7.2-4.9,7.5-10.3c0.2-4.2-1.4-7.6-4.4-10.5c-3.3-3.3-7.5-5.2-11.9-6.7c-0.8-0.3-1.6-0.2-3.3-0.4
		c2,2.6,3.4,4.5,4.9,6.3c2.4,3,4.4,6.2,5.2,10c0.3,1.4,0.8,2.8-0.8,4.2c-1.3-1.7-2.5-3.3-3.8-4.9c-0.9,1.3-1.6,2.4-2.8,4.2
		c-1.2-2.7-2.1-4.6-2.8-6.6c-1-2.7-1.8-5.4-5.2-6.1c-0.5-0.1-1-1.1-1.4-1.7c-1.5-2.9-3.8-4.7-7.1-6.3c0,2.3,0,4,0,6.5
		c-5.2-4.8-10.5-8.2-17.1-9.6c0.1-1.4,0.2-2.6,0.4-3.8c0.6-4.5-0.7-7.2-4.8-9.2c-1.8-0.9-3.8-1.4-5.7-2c-6-2-7.4-4.5-6.3-10.7
		c0.5-2.6,1.2-5.3,1.1-8c-0.1-9-2.5-17.3-9.2-23.9c1.1-3.1,2.1-6,3.1-8.9c2.3-7.5,1.9-14.6-2.6-21.3c-1-1.5-1.7-3.3-2.4-5.1
		c-2.9-8.1-7.2-14.8-16.4-16.9c-0.3-1.8-0.5-3.5-0.8-5.2c-2.9-17.1-11.9-29-29.1-33.7c-1.6-0.4-3.1-1-4.7-1.2
		c-7.9-1.4-15.3-4.3-22.6-7.6c-6.5-2.9-13.1-5.8-19.8-8.2c-7.7-2.7-15.7-3.8-23.9-2.4c-7.2,1.2-13.6,4.1-20,7.3
		c-3.3,1.7-6.9,3.1-10.4,4.2c-14.2,4.4-24.6,13.1-30.7,26.7c-1.4,3.1-2.7,6.2-4.1,9.3c-2.6,5.8-7,9.6-13.2,11
		c-6.4,1.5-12.9,3-19.4,4c-10.4,1.6-17.5,7.2-20.6,17.1c-1.6,5.1-4.2,8.4-8.4,11.5c-12.7,9.3-15.6,24.9-7.9,38.6
		c0.4,0.8,0.8,1.5,1.3,2.6c-7,2.4-13.7,4.3-20.7,4.9c-7.1,0.6-13.7-1.2-19.9-4.6c3.9,5.7,9.2,8.5,15.8,8.5c3.3,0,6.7-0.7,10-1.1
		c2.4-0.2,4.8-0.3,7.2-0.4c-1,1.1-2,1.4-3,1.7c-6.1,1.9-11.9,4.4-16.9,8.4c-10.9,8.9-11.9,24.6-2.2,34.8c0.9,1,1.8,1.9,3,3.1
		c-1.8,0.7-3.3,1.3-4.8,1.8c-5,1.7-8.7,4.4-8.2,10.5c-1.9-0.2-3.5-0.3-5.1-0.4c-1.8-0.1-3.5-0.2-5.3-0.3c-1.5,0-2.9,0.1-4.4,0.2
		c0,0.3,0,0.6,0,0.9c3.5,0.7,7.1,1.6,10.6,2.1c8.7,1.2,15.5,6.3,23.1,10.9c-3.4,0-5.7-1.6-8.2-3c-2.4-1.4-4.9-2.8-7.4-4.1
		c-2.1-1-4-0.6-6,0.9c-7.5,5.7-12.2,13.2-15.2,22c-3.4,10-4.1,20.4-3,30.8c0.7,6.7,2.4,13.3,5.4,19.4c1.1,2.3,2.4,4.5,4.7,6.1
		c-4.1-12.7-5.5-25.4-0.5-38.1c5-12.9,14.5-20.9,27.6-24.7c-0.1,0.6-0.5,1.1-0.8,1.4c-6.4,5.8-10.4,13.1-12.3,21.4
		c-1.4,6-2.1,12.2-3.2,18.3c-1.1,6.1-1.8,12.3-3.3,18.3c-2,7.8-6.5,13.8-13.8,17.6c-0.5,0.2-0.9,0.6-1.3,1c7-0.5,12.6-3.6,17.3-9.3
		c1.6,8.5,1.4,16.3-1.5,23.7c-3.2,8.3-10.1,12.6-18.8,11.5c-3.1-0.4-6.1-1.9-9.2-2.9c-1.2-0.4-2.3-1.1-3.8-1.8
		c2.6,5.4,9.4,10.7,15.4,12.1c9.9,2.3,18-1.4,25-8.6c0.5,1.1,0.8,1.8,1,2.5c2.9,9.2,7.2,17.7,13.1,25.4c0.4,0.5,0.6,1.2,0.9,1.8
		c101.8,0,203.6,0,305.4,0c-0.2-5-0.6-10-0.7-14.9C960.6,728.2,964.3,720,971.2,713.1z M816.6,655.1c-0.6-0.4-1.2-0.7-1.8-1.1
		c0.1-0.2,0.2-0.4,0.3-0.7c0.6,0.4,1.2,0.9,1.8,1.3C816.8,654.8,816.7,654.9,816.6,655.1z M892.4,610.8c0.8,2.3,1.4,4.2,2.2,6.7
		C890.4,616.7,890,615.1,892.4,610.8z M781.6,556.6c-0.8,11.3,2.7,21.3,9.4,30.2C782.4,578.8,777.4,565.7,781.6,556.6z M846.5,508.6
		c-4.8,2.7-8.4,6.6-11.6,11.1c-3,4.2-6.1,8.3-9.6,12c-10.8,11.2-35.4,14.4-49.5-0.4c-0.5-0.5-1-0.9-1.4-1.4
		c-5.8-6.5-12.6-10.6-21.7-9.5c8.7-1.8,16,0.6,22.3,6.7c2,2,4.1,3.9,6.3,5.7c9.3,7.8,23.2,7.7,32.4-0.3c3-2.6,5.7-5.7,8.6-8.5
		c0.3,0.2,0.5,0.4,0.8,0.6c-1.5,2.2-2.9,4.5-4.6,6.5c-1.7,2-3.9,3.6-5.6,5.9c1.5-0.8,3-1.4,4.4-2.3c5.2-3.4,9-8.2,12.1-13.4
		c4.7-7.7,11.1-13.6,19.3-17.4c5.3-2.4,10.8-4.2,16.3-6c3.4-1.1,7-1.8,10.5-2.7c0.1,0.3,0.2,0.6,0.4,0.9c-1.2,0.5-2.4,1.1-3.6,1.6
		c-5.2,2-10.4,3.7-15.5,5.9C853.1,505,849.7,506.7,846.5,508.6z M786.4,528.5c1.7,1.6,3.3,3.1,5.5,5.2
		C788.2,533.2,787.2,531,786.4,528.5z M869.3,554.9c-3-1.9-6.1-3.9-10-6.4c1.5,4.5,4.5,6.3,7.3,8.3c-2.9-0.4-5.3-1.7-7.1-4
		c-3.3-4.3-4.2-9.4-5.1-14.5c0.3-0.2,0.6-0.3,0.8-0.5c1,1.2,2.1,2.3,3.1,3.5c2,2.3,3.9,4.8,6.1,7c2.5,2.6,4.5,2.7,7.5,0.6
		c1.2-0.8,2.3-1.9,3.5-2.8c1.1-0.8,2.1-1.6,3.4-2.6C877.6,546.5,874,550.9,869.3,554.9z M889.5,488.4c-3.4-3.1-4.8-6.1-4.8-10.4
		C886.3,481.6,887.7,484.6,889.5,488.4z M802.4,481.4c3.1,2.5,6.2,5,9.3,7.6c0.2-0.2,0.5-0.4,0.7-0.6c-1.7-2.9-3.4-5.8-5.1-8.7
		c-1.7-2.8-3.4-5.7-4.6-8.9c0.8,1,1.7,1.9,2.4,3c1.5,2.2,3,4.5,4.4,6.8c6.1,10.8,15.8,15.2,27.7,14.8c15.5-0.6,28.9-6,39.4-17.8
		c0.3-0.3,0.6-0.6,0.9-0.8c0.1-0.1,0.3-0.1,0.8-0.2c0.2,7.2,4,12.1,10,15.5c5.7,3.2,11.7,4.7,18.5,2.6c-1.8,2.9-4.2,4.3-7.8,3.8
		c-7.9-1-14.8-4.3-19.9-10.5c-1.5-1.8-2.2-4.3-3.3-6.7c-0.5,0.4-1.2,0.9-1.8,1.5c-9.4,9.9-20.9,15.8-34.6,16.5
		c-12.6,0.7-24-2.9-33.2-12c-1.6-1.6-2.8-3.5-4.2-5.3C802.1,481.6,802.3,481.5,802.4,481.4z M756.8,460.6c9.5-1.8,17.8,2.7,26.3,6
		c0.1-0.2,0.3-0.5,0.4-0.7c-2.6-1.8-5.1-3.5-7.7-5.3c0.1-0.2,0.2-0.5,0.3-0.7c1.5,0.6,3.2,0.9,4.5,1.9c2.1,1.6,4.2,3.5,5.8,5.6
		c3.6,4.7,6.9,9.6,10.9,15.1c-4.7-3-8.2-6.2-11.7-9.5c-5-4.7-10.5-8.4-17.2-10.1c-5.3-1.3-10.4-1.2-15.5,0.7
		c-5.7,2.1-10.9,5.3-15.8,8.9c-1.1,0.8-2.1,1.6-3.1,2.3c-0.2-0.3-0.3-0.5-0.5-0.8C740,467.4,747.5,462.4,756.8,460.6z M748.9,496.1
		c-2.9-0.9-5.2-1.7-7.5-2.4c7,0.9,13.5-0.9,20.2-1.8c4.9-0.7,9.7,0.1,14.1,2.4c3.4,1.8,6.9,3.7,10,6.1c9.8,7.8,21,9.3,32.9,7.6
		c3.8-0.5,7.7-1.3,12.4-2.1c-5.1,3.4-10,4.7-15,5.6c-8.9,1.7-17.2-0.3-24.8-4.8c-3.1-1.8-6.1-4-9-6.2c-9.3-7.1-19.3-7.6-29.7-2.9
		c-3.6,1.6-6.9,3.6-10.5,5.3c-5.1,2.4-10.5,3.9-16.2,3.3C734.3,505.2,741.5,501.4,748.9,496.1z M724.8,467.7
		c-3.3,4.6-17.8,11.1-30.2,13.5C696.8,471.6,707.7,462.6,724.8,467.7z M710.9,496.9c-6.4,3.8-10.4,8.5-8.6,16.2
		c-4-2.1-8.3-9.7-9.3-16.2C698.7,496.9,704.4,496.9,710.9,496.9z M675.8,504.1c2.3-4.7,5.8-7,11.5-7.3c2.2,8.5,7,15.8,12.9,22.3
		c-1.4,3-3.6,4.9-6.1,6c-3.5,1.5-7.1,2.5-10.7,3.5c-0.9,0.2-2.4-0.3-3.2-1C673.8,521.6,672.1,511.7,675.8,504.1z M647.1,601.4
		c-1.9-0.5-4.2-1.1-6.4-1.8c-0.2-2.3,1-3.4,2.5-4.1c5-2.1,10.3-2.6,15.4-4c0.1,0.3,0.2,0.5,0.4,0.8
		C655.1,595.3,651.3,598.2,647.1,601.4z M672,555.6c1,3.4,1.5,6.9,0.3,10.3c-0.4,1.1-0.8,2.3-1.4,3.3c-2.5,4.4-4.5,4.9-8.7,2
		c-6.6-4.5-8.9-8.6-9.6-18.2c-0.7,1.1-1.3,1.8-1.5,2.6c-1.9,6.1-1.1,11.7,2.9,16.8c2.1,2.6,4.4,5.1,6.9,7.9
		c-1.2,1.3-3.5,2.3-5.7,3.4c-0.5,0.2-1.3,0.1-1.9-0.1c-5.9-2.6-11.2-10.9-11-17.2c0.2-4.4,2.2-8,4.9-11.3c2.7-3.3,6-5.8,9.9-7.5
		c6.2-2.7,12.6-4.2,19.4-4.5c0.1,0.3,0.2,0.5,0.2,0.8c-0.8,0.9-1.7,1.7-2.5,2.6C672.1,549.2,671,552.1,672,555.6z M687.8,617.1
		c15.9-1.6,29.4,10,35.6,25.5C715.4,629.1,704.5,619.8,687.8,617.1z M708.1,558.4c-5.1,5.3-11.2,8.2-18.4,9.1
		c-4.8,0.6-9.1,2.2-12.7,5.6c-0.6,0.5-1.3,0.9-2.7,2c0.5-3.7,2.2-5.6,4.5-6.7c2-1,4.2-1.7,6.4-2.3c2.2-0.6,4.5-1.1,6.7-1.4
		c6.7-1,11.8-4.2,16-9.8c9.2-12.6,23.2-15.4,37.2-10.9c5.4,1.7,10.7,3.6,15.8,5.4c-1.8,1.4-3.3,2.1-6.8,2.1
		c-5.1,0-10.2-0.3-15.3-0.5c-4.3-0.1-8.6-0.5-12.9-0.3C719,550.9,712.9,553.5,708.1,558.4z M747.5,570.4
		c-7.8,5.6-11.8,13.5-12.1,23.1c-0.1,2.8-0.3,5.7-0.8,8.5c-0.8,5.4-3.3,9.9-8.3,12.7c0.5-0.6,1-1.2,1.6-1.7c4.7-5,6.4-11,5.9-17.9
		c-0.3-3.3-0.3-6.7-0.1-10.1c0.4-6.5,3.6-11.4,8.7-15.3c2.6-2,5.2-4,7.5-6.7c-2,0.6-4,1.1-5.9,1.7c7.8-5,17.2-4.9,25.5-8.4
		c0.1,0.3,0.3,0.6,0.4,0.8c-2.8,1.6-5.7,3.2-8.5,4.8C756.7,564.7,751.9,567.2,747.5,570.4z M762.4,569.3c1.3-1.8,3.3-3,5-4.4
		c1.8-1.5,3.7-3,5.5-4.5C770.5,564.7,766.7,567.4,762.4,569.3z M933.3,659.7c-4.9,3.3-10.6,3.9-16.3,3.3c-2.4-0.3-3.9-2.1-4.6-5.2
		c5.2,4.4,12.6,4.9,18.3,1.7c4.1-2.4,5.9-6,5.1-10.1c-0.7-3.7-4.4-7.1-8.7-7.3c-3.1-0.1-6.3,0.6-9.1,0.9c1.9-2.7,6.1-4.1,10.7-3.3
		c4.3,0.8,8.4,4.5,9.2,8.7C938.8,653.1,937.2,657,933.3,659.7z"/>
	<path fill="#C49A6C" d="M1086.1,572.7c-0.6-0.5-1.5-0.8-3-1.6c1.4,3.9,2.4,6.9,3.6,9.9c2.7,6.9,5.7,13.7,8.1,20.7
		c2.7,7.6,3.9,15.4,3.3,23.5c-1.4,21.8-10.6,39.5-27.3,53.5c-10.4,8.7-22.5,14.2-35.3,18.3c-9.7,3.1-19.6,5.9-29.3,9.1
		c-8.5,2.8-16.3,7.1-22.9,13.3c-9.7,9.2-15.4,20.3-16.8,33.6c6.2,0,12.4,0,18.6,0c7.5-15.1,18.6-26,35-31c1.3-0.4,2.5-0.9,3.8-1.4
		c11.1-4.3,22.2-8.3,33.2-12.9c13.1-5.4,24.2-13.6,32.7-25.1c8.3-11.3,14.4-23.7,18.2-37.2c3.1-11.2,4-22.6,1.9-34.1
		C1106.8,595.5,1099,582.5,1086.1,572.7z"/>
	<path fill="#C49A6C" d="M1102.2,672c-1.4,3.2-1.7,6.4-2.6,9.4c-6.8,24-22.1,40.1-45.6,48c-8.1,2.7-16.7,4.3-25.1,5.8
		c-11.7,2.1-22.2,6.3-30.8,14.8c-0.9,0.9-1.6,2-2.4,3.1c24,0,48.1,0,72.1,0c1-0.9,2-1.8,3-2.6c8.6-7.1,16.3-14.9,22.2-24.4
		c9.4-15.2,12.7-31.6,10.2-49.2C1103,675.2,1102.5,673.6,1102.2,672z"/>
	<path fill="#C49A6C" d="M1059.6,517.2c-2.2-0.5-4.4-0.5-6.7-0.8c-0.1,0.4-0.3,0.8-0.4,1.1c1.5,1,3.1,2,4.6,3.2
		c3.6,2.8,7.5,5.3,10.8,8.5c7.1,6.9,9.6,15.5,7.8,25.2c-1.3,6.9-4.7,12.6-11.3,15.8c-1,0.5-1.9,1-2.8,1.6c-6.4,4.7-9.8,11-9.3,19
		c0.2,3.5,1.6,6.4,5.4,8.5c0-1.4,0-2.3,0-3.2c-0.3-7,2.3-12.6,7.6-17.1c2.9-2.4,5.9-4.7,8.9-6.9c3.2-2.4,5.9-5,7.7-8.7
		C1089.8,546.4,1082.6,522.4,1059.6,517.2z"/>
	<path fill="#C49A6C" d="M985.8,545.9c4.4,0.1,6.7-2.2,7-7.5c3.9,0.6,4.9-2.4,6.2-5.2c1.7-3.7,0.3-7.1-3.4-8.5
		c-2.8-1.1-5.5-0.8-8.2,0.5c-1,0.5-2.1,1.1-3.3,1.7c0.2-1.7,0.3-3,0.4-4.4c0.2-4.7-2.1-8-6-10.2c-2.5-1.4-3.8-1-5.5,1.3
		c-0.9,1.3-2.1,2.4-3.2,3.5c-2.1,2.1-2.6,3.8-1.4,6.5c0.3,0.7,0.8,1.4,1.2,2.1c-0.5,0.4-1,0.8-1.4,1.1c-3.5,2.9-3.9,6.3-1.3,9.5
		c2.4,2.9,6,3.1,9.3,0.5c1.1-0.9,2.2-1.9,3.5-3C979.3,542.5,981,545.8,985.8,545.9z"/>
	<path fill="#C49A6C" d="M1051.9,654.8c-1.7,1.3-3,3-4.5,4.5c0.1,0.3,0.3,0.7,0.4,1c6.1,0.9,12.1,1.6,18.3,0.5
		c6.6-1.1,11.8-4.4,15.4-10c4.5-7,6.4-14.7,6.4-23c0-0.8-0.3-1.7-0.7-3.4c-5.7,11.2-14.7,17.5-24.7,23
		C1058.7,649.4,1055.3,652.2,1051.9,654.8z"/>
	<path fill="#C49A6C" d="M1067.7,550.2c0-6.7-5.1-11.9-11.7-11.9c-6.6,0-11.8,5.1-11.8,11.8c0,6.6,5.2,11.9,11.7,11.9
		C1062.6,562,1067.7,556.9,1067.7,550.2z"/>
	<path fill="#C49A6C" d="M1040.3,479.6c-0.6-7.5-3.9-12.4-10.5-16.2c-2.8,2.4-1.2,5.9-2.2,9.3c-2.1-0.2-4.2-0.7-6.1-0.6
		c-1.3,0.1-2.9,0.8-3.8,1.8c-1.1,1.3-0.3,2.9,0.7,4c1.3,1.4,2.6,2.7,4.2,3.8c6.7,4.7,14.6,6.6,22.2,9.7c0.9-2.5,1.3-5,2.7-6.9
		c1.4-2,3.7-3.3,5.9-5C1048.8,477.9,1044.5,477.2,1040.3,479.6z"/>
	<path fill="#C49A6C" d="M1072.9,635c12.2-9.1,13.3-26.9,6.4-43.1C1070.9,605.4,1068.6,620.8,1072.9,635z"/>
	<path fill="#C49A6C" d="M1011.3,511.9c-2.8,0.1-2.8,0.1-6.2,2.1c-4.5-7.6-10.4-10.3-17.9-8c3,5.6,4.9,11.9,12.8,13.1
		c-1,1.4-1.6,2.3-2.4,3.4C1003.6,523.1,1009.5,518.4,1011.3,511.9z"/>
	<path fill="#C49A6C" d="M1046.6,571.7c-2.6-0.9-4.2,1-6,2.2c-4.4-7.5-9.4-9.9-17.4-8.5c2,6.9,6.3,11.7,12.4,13.7
		c-0.6,1.1-1.2,2.2-1.9,3.4C1039.2,582.8,1045,577.9,1046.6,571.7z"/>
	<path fill="#C49A6C" d="M1019.1,615.9c0.4-11.4-5.4-20.2-11.6-29.8C1003.5,598,1007.4,612.7,1019.1,615.9z"/>
	<path fill="#C49A6C" d="M1038.3,543.1c-8.6,1.2-14.5,5.9-19.8,12.8C1029.2,558.3,1035.4,552.2,1038.3,543.1z"/>
	<path fill="#C49A6C" d="M1044,506.6c-2.3-0.7-4.4-2.2-6.6-3.4c-0.7,8.8,6,12.1,12,10.8c4-0.9,7.1-3.4,10.5-7.1
		c-3.3,0.3-5.8,0.8-8.3,0.7C1049,507.5,1046.4,507.3,1044,506.6z"/>
	<path fill="#C49A6C" d="M1020.7,524.9c-6.2,0.1-11.1,3.6-12.9,8.9c-1.9,5.4-1.3,10.6,2.5,15.3
		C1011.6,540.2,1012.9,531.4,1020.7,524.9z"/>
	<path fill="#C49A6C" d="M1056.6,528.4c-5.6-5.8-11.1-9.8-18.8-10.3C1039.1,525.6,1045,528.7,1056.6,528.4z"/>
	<path fill="#C49A6C" d="M922.8,543.3c-7.4,4.6-10.2,16.9-5.6,24.1c1,1.5,2.2,2.9,4.6,3.5c-4.7-9.8-3.4-18.7,1.6-27.3
		C923,543.4,922.8,543.3,922.8,543.3z"/>
	<path fill="#C49A6C" d="M1041.4,602.5c0.9,7.3,3.5,13.1,7.7,18.7C1051.3,613.7,1048.4,606.5,1041.4,602.5z"/>
	<path fill="#C49A6C" d="M718.1,550.3c8.9-1.5,17.9-3,26.3-4.5C736.9,540.7,721.5,543.6,718.1,550.3z"/>
</g>
</svg>
