<?xml version="1.0" encoding="utf-8"?>
<!-- Generator: Adobe Illustrator 27.3.1, SVG Export Plug-In . SVG Version: 6.00 Build 0)  -->
<svg version="1.1" id="Layer_1" xmlns="http://www.w3.org/2000/svg" xmlns:xlink="http://www.w3.org/1999/xlink" x="0px" y="0px"
	 viewBox="0 0 1200 800" enable-background="new 0 0 1200 800" xml:space="preserve">
<path fill="#C49A6C" d="M839.6,517.5c-20,5.8-32.2,25.6-27,44.2c3.4,11.9,11,20.8,21.6,27c4.7,2.8,4.3,7,3.3,10.8
	c-0.1,0.6-0.7,1-1.4,1.4H596.3c1-1.1,2-2.4,3.3-3.1c2.9-1.7,6.1-2.8,9-4.6c51-30.7,100.9-62.8,147.7-99.8
	c38.7-30.7,74-64.6,101.8-105.8c35.6-52.8,54.7-110.6,52.8-174.7c-0.8-26.5-6-52.3-17.1-76.4c-7.4-16-16.9-31.1-28.5-44.5
	C818.3,37.8,743,15.9,674.8,40c-47.1,16.6-86,45.3-118.4,83c-4.5,5.2-4.7,5.2-9.1,0.1c-33-38.1-70.8-70.2-116.4-92.5
	c-37.2-18.2-76.4-26.1-117.5-17.9c-55.9,11.2-98.6,41.8-126,92c-25.2,46.2-29.7,95.7-20.9,146.9c7.6,44.4,25.7,84.4,50.4,121.7
	c28.1,42.4,64.4,77,103.7,108.6c36.4,29.3,75.1,55.5,114.2,80.9c9.8,6.4,20.5,12.9,30.8,19.2c9.7,6,21.2,11.4,29.8,18.8H253
	c-0.7-0.4-1.3-0.9-1.4-1.4c-1-3.8-1.4-8,3.3-10.8c10.6-6.2,18.2-15.1,21.6-27c5.2-18.6-7-38.4-27-44.2c-30.3-8.7-57.4,11.5-57.8,43
	c-0.2,16.9,6.1,32.3,10.9,48.1c2.7,9,5.6,17.9,7.7,27c0,0,3.7,32.1-1.6,38.5h9l6.6-16.4h640.6l6.6,16.4h9c-2.1-2.6-2.8-9.3-2.9-16.4
	h0.2v-9c0.4-7.2,1-13,1-13c2.1-9.1,5-18,7.7-27c4.7-15.7,11.1-31.1,10.9-48.1C897,529,869.9,508.8,839.6,517.5z M617.9,558.1
	c-19.1,11-38.2,22.1-57.5,32.9c-6.1,3.4-6.2,3.2-10.5-3.7c2.7-1.2,5.4-2.4,8-3.7c7.6-3.7,15.2-7.2,22.7-11.1
	c11-5.8,17.3-15.1,18.8-28.2c7.9,3.7,14.7,6.9,22.3,10.4C620,556.3,619.1,557.4,617.9,558.1z M564.7,497.7c-0.7-1.2-0.8-2.8-0.9-4.4
	c0-1,0-1.9-0.1-2.9v0c0.5-0.1,1.1-0.2,1.6-0.3c0.5-0.1,1.1-0.2,1.6-0.3c0.5-0.1,1.1-0.2,1.6-0.2c0.5,0,1,0,1.5,0.1
	c5.9,1.1,10.6,6.4,12.4,13.3C575.6,505.4,567.9,503.3,564.7,497.7z M583.1,512c-1.8,4.7-3.2,9.6-5.7,13.9c-0.9,1.7-4.3,2-6.5,2.9
	c-0.7-2-2.5-4.4-1.9-5.8c2.3-4.9,5.3-9.6,8.4-14.1c0.5-0.8,2.7-1.3,3.4-0.8C581.8,508.7,582.2,510.4,583.1,512z M574.1,507
	c-2.7,3.4-4.8,6-6.9,8.6l-1.4-0.1c2.1-5.9-8.7-4.3-5.2-11.7C564.6,504.7,568.7,505.7,574.1,507z M593.5,493.3
	c3.5,3.3,5.4,5.1,8.7,8.2c-5.9,0.7-10.2,1.4-14.5,1.7c-0.9,0.1-2.7-0.7-2.8-1.2c-0.8-5.6-1.7-11.3-1.7-17c0-1.3,3.1-2.6,4.7-3.9
	c0.9,2.2,2.8,4.5,2.6,6.6c-0.4,4.2-1.9,8.3-2,13.2C590,498.5,591.6,496.1,593.5,493.3z M586.7,505.5c6.4,0.7,12,0.9,17.2,2.1
	c1.7,0.4,2.9,3.3,4.3,5.1c-2,0.9-3.9,2.5-5.9,2.7C593,516,590,514.2,586.7,505.5z M593.9,524.3c-1.4-0.4-3.4-0.3-4.1-1.2
	c-2.8-3.9-6.8-7.4-5.1-14.5c3.7,4.3,6.7,7.5,9.3,11.1C594.7,520.8,594,522.8,593.9,524.3z M640.5,484.7c-3.1,1.8-6.7,2.6-10,3.8
	c-0.3-0.4-0.6-0.9-0.9-1.3c0.8-1.4,1.5-2.8,2.4-4.2c6.5-9.5,9.2-20,9.1-31.4c-0.1-8.8-3-16.7-10-21.7c-6.7-4.8-8-11.3-8.8-18.4
	c-0.2-1.4,0-2.9,0-3.5c-7.5,2.2-14.9,3.9-22,6.4c-14.8,5.2-23.7,16.5-30.1,30.2c-1.1,2.5-2.2,5-3.8,8.5c-1.6-2.7-2.6-4.4-3.6-6.1
	c-6.1-9.7-11.7-19.7-18.5-28.9c-8.6-11.6-5.6-17,3.3-24.8c2.1-1.8,4.7-3.1,7.3-4.2c4.5-2,9.3-0.4,11.7,4c2.8,5.2,6.9,7,13.7,5.8
	c-2.3-3.6-4.3-6.8-6.6-10.4c2.2-0.8,4.4-1.6,6.5-2.4c-2.2-4.9-6.3-6.4-10.7-4.6c-1.9,0.8-4.3,0.6-6.4,0.9c0.4-2.2,0.8-4.3,1.2-6.5
	c0.7-3.1,1.4-6.1,2.1-9.2c-0.6-0.2-1.2-0.5-1.8-0.7c-2.8,3.7-5.7,7.4-9.5,12.3c-0.2-7.8,4-11.3,7.5-15.3c2.7-3,5.2-5.9,2.8-10.9
	c-4.4,3.3-8.3,2.4-12.7-0.4c-1.5-0.9-4.9,0.5-7.1,1.4c-2.1,0.9-3.9,2.7-5.9,4.2c-1-3.3,7.2-17.9,14.1-25.9
	c7.7,6.7,14.7,14.6,25.6,16c10.7,1.4,19.6-3.4,29.9-9.6c-1.7,6.5-2.9,11.5-4.1,16c-1.4,1.4-2.7,2.9-3.8,4.6c-0.6,1-1.2,2.1-1.5,3.2
	c-0.2,1.1-0.2,2.2-0.2,3.3c0,0.9,0.1,1.7,0.1,2.6c-0.1-0.4-0.2-0.9-0.2-1.3c-2.1,5.8-1.7,10.9,3.5,15.9c5.9,5.6,12.7,10.4,19.6,14.8
	c11.7,7.3,22.9,15.1,31,26.5C668,443.5,661.9,472.3,640.5,484.7z M548.3,363.3c-0.1-0.2-0.1-0.4-0.1-0.7c0,0.3,0-0.1,0-0.1
	c0-0.1,0-0.2,0-0.3c0-0.2,0-0.4,0-0.6c0,0,0,0,0,0c0,0,0,0,0,0l2.1-2.2c0.3,0,0.5,0,0.8,0c0.2,0,0.5,0,0.7,0c0.1,0,0.2,0,0.3,0
	c0,0,0.2,0,0.2,0c0.5,0.1,1,0.2,1.5,0.4c0.2,0.1,0.3,0,0.5,0c0.4,1,0.8,2,0.6,2.8c-0.2,1.2-2.4,2.9-3.7,2.9c-0.7,0-1.4-0.5-2.1-1.1
	c-0.2-0.2-0.4-0.4-0.6-0.5c-0.1-0.1-0.2-0.3,0-0.1C548.4,363.7,548.4,363.5,548.3,363.3z M553.4,380.7c0.1,4.7-6.2,11.7-13.7,14.6
	c0.9-8.6,1.7-16.4,2.5-24.2c0.7-0.1,1.4-0.2,2.1-0.3C547.6,373.8,553.2,374.7,553.4,380.7z M572.3,268.7
	c-1.2,11.9,4.2,23.9,13.7,31.1c2.4,2.6,4.3,5.3,1.9,9.5c-3.3,6-6.6,12.3-14.6,12.3c-2.2,0-5.6-2.1-6.5-4c-7.8-18.6-7.3-37,3.4-54.4
	c5-8.1,12.4-7.2,16.1,1.4c4.7,10.8,3.9,22.2,3.6,34.7c-1.3-0.7-2.4-1.4-3.5-2c-8.4-6.8-13-17.8-11.9-28.6
	C574.7,267.3,572.4,267.3,572.3,268.7z M746.5,467.2c-0.6,1.1-1.1,2.2-2,2.9c-18.8,14-37.6,27.8-56.4,41.7c-3.2,2.3-6.4,4.6-9.6,6.8
	c-5.1,3.4-8.9,2.2-12.2-2.8c-3.6-5.6-7.8-10.8-12.2-16.8c14.3-8.3,28.6-17.2,43.4-25.1c14-7.5,29.4-9.5,45.2-9.3
	c0.9,0,1.9,0.4,2.8,0.8c0.6,0.3,1.1,0.5,1.7,0.7C746.9,466.5,746.7,466.8,746.5,467.2z M796.1,423.4c-12.3,11.5-24.7,22.9-36.9,34.5
	c-2.7,2.6-5.2,3.5-9,2.3c-9.1-3.1-18.4-2.7-27.7-0.4c-1.8,0.4-4-0.5-6-0.8c1.1-1.5,2-3.3,3.5-4.5c20.3-16.2,44.3-25.5,68-35.2
	c4.5-1.8,9-3.6,13.5-5.4c0.4,0.7,0.8,1.4,1.1,2.2C800.5,418.5,798.5,421.2,796.1,423.4z M804.4,400.3c-7.9,8.5-16.9,14.7-28.4,18.3
	c-12.8,4.1-24.8,10.5-37.2,16c-1.7,0.8-3.4,1.8-5.2,2.2c-3,0.5-5.3-0.7-3.6-4c6.3-11.7,12.7-23.4,23.6-31.8
	c5.1-3.9,10.6-5.6,16.6-5.6c5.3,0.7,10.4,3.1,14.1,7c1,1.1,2.5-0.5,1.6-1.6c-3.6-4.2-7.5-8-13.2-8.9c-3.2-0.5-6.4-0.3-9.6,0.3
	c-0.4,0-0.8,0.1-1.1,0.1c-4,0.6-8,2.2-12,2.9c-1.7,0.3-4.5,0.1-5.3-1c-1.1-1.5-1.7-4.3-1.1-6.1c2.3-6.6,7.3-9.1,14.2-8
	c4.2,0.6,8.1,0.4,10.9-4.3c-2.8-1.2-5.2-2.3-8.6-3.8c2.5-1.6,4.6-2.5,6.1-3.9c0.5-0.5,0.8-1.1,1.2-1.7c0.3-0.6,0.6-1.3,0.9-1.9
	c0.2-0.4,0.4-0.9,0.6-1.3c-0.3,0-0.5-0.1-0.8-0.2c-0.5-0.1-1.1-0.3-1.6-0.4c-1.3-0.3-2.6-0.6-3.7-0.2c-3.4,1.4-6.3,3.8-8.9,5.4
	c-2.1-2-3.7-3.5-5.4-5c-1.3,2.5-3.6,4.9-3.7,7.5c-0.3,7-0.3,13.9-4.6,19.9c-0.5,0.7-1.1,1.4-2.4,3.1c-1.2-4.3-2.1-7.6-3.2-10.9
	c-6.1-19.3-18.9-22.7-35.5-15.7c-5.6,2.4-8.4,7.3-8,13.6c0.4,5.1,2.4,9.4,7.5,10.8c2.9,0.8,7,0.6,9.3-0.9c1.9-1.3,2.1-5.2,3.3-8.4
	c-1.7,0-2.2-0.1-2.3,0c-1.9,2-3.4,5.1-5.7,5.7c-1.6,0.5-5.4-1.8-6.1-3.6c-1-2.8-1.2-6.9,0.1-9.4c5.1-9.5,22.6-9.4,29.6,0
	c6.7,9.1,7.1,19.6,5.6,30.2c-2.2,15.1-10.9,27-20.2,38.4c-14.2,17.4-31.3,31.8-49.7,44.6c-1.4,1-4.1,0.1-6.3,0.2
	c0.6-1.8,0.8-3.9,1.8-5.4c3.7-5.8,8.6-11,11.4-17.1c8.8-19.3,14.5-39.4,13.6-60.9c-0.8-17.6-7.5-32.7-19.7-45.4
	c-0.6-0.6-1.4-1.1-2.6-1.5c0.3,0.4,0.5,0.8,0.8,1.1c-2.7-2.4-5.3-4.7-8-7.1l15.1,19.2c11.6,24.4,7.5,49.8,0,75.5
	c-0.6,0.1-1.3,0.2-1.9,0.3c-0.6-1.8-1.4-3.6-1.7-5.5c-2.8-14.8-10.5-26.4-22.8-34.8c-8-5.5-16.6-10.2-24.9-15.3
	c-7.3-4.4-13.2-9.7-16.4-17.4l9.3-20.6c1.3-0.3,2.6-0.7,3.9-1.1c4.1-1.2,4.4-4.2,2.3-7.7c-1-1.6,0.4-4.7,1.8-7v-7.1
	c0.6-0.2,1.2-0.3,1.8-0.5c3.4,8.8,9.3,14.3,18.7,15.9c9.6,1.6,16-3.6,22.4-11c4.4,12.3,10,22.8,24.6,21.7
	c13.3-1,19.1-11.6,25.8-22.9c0.6,3.2,1,4.7,1.2,6.3c2.9,17.8,21.5,27.3,36.6,17.4c8.4-5.5,14.8-14.1,22-21.4c2.1-2.1,3.6-4.7,5.3-7
	c3.5,1.2,6.6,2.3,10.8,3.7c-1.9,4.6-3.9,9.1-5.6,13.8c-0.3,1-0.3,2-0.3,3.1c0,0.7,0,1.3,0,2c0.9-0.1,1.9-0.1,2.8-0.1
	c0.9,0,1.8-0.2,2.5-0.6c5.5-3.2,8.1-8.5,7.7-14.7c-0.4-5.6-1.3-11.2-2.8-16.5c-1.1-4.1-0.6-6.9,2.8-9.3c3.4-2.5,5.6-5.4,3.6-10.1
	c-0.3-0.8,0.7-2.9,1.7-3.4c5.2-2.9,6.7-6.3,2.4-11.1c-0.4-0.5-0.5-1.3-1.5-4.1c5,1.5,8.7,2.6,12.9,3.8c2-2.7,4.8-6.6,10.4-5.2
	c0,0,0,0,0,0c0,0,0-0.1,0-0.1c0,0,0,0,0,0c0,0,0,0,0,0c0,0,0,0,0,0c0,0,0,0,0,0l0.1,0.1c-0.7-1.5-1.6-2.9-2.1-4.4
	c-1.7-4.5-2.9-9.2-5-13.5c-8.3-16.6-25.6-17.8-38.6-12.5c-5.6,2.3-7,1.6-8.8-4.5c0.6-0.3,1.2-0.9,1.8-0.9
	c20.4-1.3,40.5-0.7,59.6,7.7c17.7,7.7,26,22.6,23.6,41.6c-2,15.3-15.7,26.8-29.8,23.9c-4.3-0.9-9.1-4-11.7-7.5
	c-4.8-6.4-2.3-11.9,5.4-14.5c2-0.7,3.6-1.3,4.9-2.1c0.9-0.5,1.7-1,2.3-1.6c0.2-0.2,0.4-0.4,0.6-0.6c0.1-0.1,0.2-0.2,0.2-0.3
	c0.1-0.1,0.2-0.2,0.3-0.3c0-0.1,0.1-0.1,0.1-0.2c0.1-0.1,0.2-0.3,0.3-0.4c0,0,0,0,0,0c1.5-2.7,0.5-6-3.1-10c0,0,0,0,0,0
	c0,0,0,0-0.1,0c2.1,4.7,2.6,7.9,1.4,9.8c-0.9,1.5-2.9,2.3-6,2.6c-1,0.1-2.2,0.1-3.4,0.1c-5.5,0-10,3.4-9.4,8.8
	c0.6,5.6,2.4,11.3,5.1,16.2c5,9.1,10,18,11.4,28.5C826.5,367.5,818.7,385.1,804.4,400.3z M661.7,312.1c0.5,9.1-4.3,15.8-10,21.7
	c-5.9,6.2-12,4.6-14.1-3.7c-1.6-6.5-2.7-13.3-2.5-19.9c0.5-16.7,2.5-33.2,8.3-49c1.5-4.1,3.8-8.2,6.5-11.7c4.4-5.5,9.4-4.3,11.4,2.6
	c0.9,2.8,1.1,5.9,1.2,8.8c0.1,8.8,0.1,17.6,0.1,26.4l-1.1,0C661.6,295.6,661.3,303.9,661.7,312.1z M819.1,169.8c-3-3-3.6-8.8-1-10.6
	c3.5-2.5,6.9-1,9.6,1.5c4.2,3.9,5,9.1,3.9,14.4c-1,4.7-2.5,9.4-3.9,14c-0.4,1.2-0.9,2.9-1.8,3.4c-2,0.9-4.3,1.1-6.4,1.6
	c-0.3-2.1-1.5-4.6-0.8-6.3c1.3-2.7,3.8-4.9,6.5-8.3c-13.2,3.8-15.9,0.9-12.7-7.3c2,0.5,4.1,1.2,6.2,1.7c2,0.5,4,0.8,7.5,1.5
	C823.2,173,820.9,171.6,819.1,169.8z M845.1,192.7c-0.4,0.7-1.1,3.5-2.5,4c-1.6,0.6-5-0.4-5.8-1.7c-2.4-4-4.6-8.5-5.4-13
	c-0.7-4.2,2.5-5.7,6.1-3.1C841.6,181.9,845,185.6,845.1,192.7z M819.1,217.9c1.6,3.7,3.5,7.3,5.6,11.5c-7.9,3.2-15.2,8.7-25.8,5.1
	c2.8-6.5,5.1-12.8,8.3-18.5C809.3,212.1,817.3,213.8,819.1,217.9z M799.7,217.8c-1.3,4.3-3.5,8.3-4.6,12.6c-1.1,4.1-3.1,5.9-7.4,5.9
	c-4.7,0-9.3,0.7-14,1.1c-0.3,0.4-0.5,0.8-0.8,1.2c-2.4-1.5-5.7-2.5-6.9-4.7c-2.2-3.8,1.2-6.2,4-8c7.5-4.9,15.1-9.8,22.9-14.1
	c1.9-1.1,4.9-0.2,7.4-0.3C800.1,213.5,800.4,215.8,799.7,217.8z M779.1,209.6c2.9-5.2,5.8-10.4,8.8-15.6c0.5,0,1,0,1.5-0.1
	c0.8,3.9,3.4,8.9,2,11.6c-1.7,3.1-7,4.3-10.8,6.3C780.1,211,779.6,210.3,779.1,209.6z M790.1,139.5c-4.5,5.9-9.2,11.7-14.5,18.3
	c-1.2-2.5-2.2-4.9-3.5-7c-3.6-6-7.5-11.9-11-18c-0.9-1.5-1.3-4.4-0.4-5.6c2.2-3.2,4.9-6.1,7.9-8.6c7.5-6.4,15.4-6.7,21.2-1.3
	C795,121.9,795.1,132.7,790.1,139.5z M766.4,149.2c3.3,7.9,6.1,16,8.5,24.2c0.7,2.3-0.7,5.3-1.3,8c-0.1,0.5-0.3,1-0.4,1.5
	c-0.6,1-1.1,2-1.5,3.2c-0.7,2.5-0.4,5.1,0.7,7.4c0.3,0.6,1.1,0.7,1.5,0.4c0.6-0.3,0.7-1,0.4-1.5c-0.9-1.8-1-4-0.4-5.9
	c0.5-1.6,1.4-3,2.5-4.3c0.1-0.1,0.1-0.1,0.2-0.2c1.5-1.1,3.5-1.4,5.4-1.9c0.3-0.1,0.5-0.2,0.8-0.2c0.1,0.5,0.2,0.9,0.4,1.4
	c0.4,1.4,0.9,2.8,0.7,4.1c-3.3,16.2-12.8,30.7-24.6,37.8c-0.9-1.5-2.1-3-2.8-4.6c-8.4-21.5-11.5-43.6-7.7-66.5
	c0.7-4.2,1.4-9.2,6.6-10C760.8,141.2,764.6,144.8,766.4,149.2z M761.8,254c1,0.4,0.8,5,0.2,7.4c-1.7,6.5-4.1,12.8-6,19.2
	c-3.8,12.8-14,17.9-26.1,21.6c2.5-17,3.6-34.4,18.7-46.1c1.3-1,2.8-2.3,4.3-2.5C755.9,253.3,759.2,252.9,761.8,254z M733.5,308.2
	c4-2.3,8.4-4.2,12.9-5.5c12.2-3.4,18.5-11.8,21.4-23.6c0.8-3.1,2.4-6.1,3.7-9.1c0.7,0,1.5,0.1,2.2,0.1c0.3,1.6,1.5,3.5,0.9,4.8
	c-5.2,11.7-3.2,24-3,36c0.1,12.7-4.3,23.2-13.7,31.3c-4,3.4-9,6.1-14,7.8c-6.5,2.2-11.8-0.1-13.1-6.7c-1.9-9.4-2.5-19.1-2.7-28.8
	C727.9,312.4,731.2,309.6,733.5,308.2z M781.6,316.3c0.8-0.1,1.7-0.2,2.5-0.3c2.6,2,4.5,4.3,2,7.7c-0.4,0.5-1.3,0.7-2.2,0.8
	c-0.5,0.1-1.1,0.1-1.6,0.2C782,321.9,781.8,319.1,781.6,316.3z M827.7,383.6c7.9-19.1,6.2-37.9-2.5-57.4c21.4-1.6,38-8.8,41.3-31.1
	c3-20.6-7.6-35.4-24.9-47.9c8.5-4.9,15.9-9.2,23.2-13.5c0.5,0.4,1,0.8,1.5,1.2c-0.3,2.1-0.6,4.1-1,6.2c-0.5,3.2-0.4,6.3,3.7,6.8
	c4.1,0.5,5.7-2.1,5.9-5.8c0-0.7,0-1.5-0.1-2.2c-0.8-7.5,0.4-9.1,8.2-11.3C892.1,252.2,851.6,367.5,827.7,383.6z M863.8,218.5
	c0.3-1.6,1.8-3.2,1.7-4.7c-0.5-10.4,7.8-9.7,14.1-11.1c0.9-0.2,3.3,1.6,3.4,2.7c0.6,4.6,0.7,9.3,0.9,13.9c0.2,4.5-3,5.5-6.3,5
	c-4-0.6-1.6-3.7-1.4-5.8c0.2-2.1,0.6-4.3,1-6.4c-0.5-0.2-1.1-0.4-1.6-0.6c-2.3,3.3-4.5,6.7-7.1,9.8c-1,1.2-3,1.5-4.6,2.2
	C863.9,221.9,863.5,220.1,863.8,218.5z M857.1,226.2c1.2-0.3,3.5,0,3.7,0.6c0.4,1.3,0.4,3.9-0.4,4.3c-8.8,4.8-17.7,9.4-26.9,14.1
	c-3.9-2.2-8.6-3.4-9.1-5.6c-1-4.4,4-4.4,7-5.4C839.9,231.4,848.5,228.8,857.1,226.2z M854.2,163.7c-0.1,0.3-0.2,0.7-0.3,1.1
	s-0.2,0.7-0.2,1.1c-0.3,1.2-0.6,2.4-1.3,3.1c-3.3,2.8-7.1,5-10.7,7.4c0,0,0.1,0.1,0.1,0.1v0c0.9-0.1,1.8-0.2,2.7-0.4
	c3-0.4,6.1-0.8,9.8-1.3c-1.8,3.8-3,6.5-5.1,10.8c-2.7-3.3-5-6.2-7.4-9.1c0,0,0,0,0,0c-0.1,0-0.2,0-0.3,0l0,0l0,0c0,0,0,0,0,0
	c0,0,0,0,0,0c0,0,0.1-0.2,0.1-0.2c0,0,0,0,0,0c0,0,0,0,0,0c0,0,0,0,0,0c-1.2,0-2.4,0-4.3,0h-0.8c1.1-2.8,1.9-4.8,2.8-6.9
	c0,0,0,0,0,0c0,0-0.1,0.1-0.1,0.1c0,0,0,0,0,0c0,0,0,0,0,0c0,0,0,0,0,0c-1.4,1.5-2.8,3.1-4.2,4.6c-0.6-0.2-1.1-0.4-1.7-0.6
	c0.5-4.6,0.7-9.2,1.7-13.7c0.2-0.8,3.6-1.3,5.5-1.2c0.6,0,1.7,2.6,1.4,3.7c-0.5,2.5-1.8,4.8-2.7,7.2l0,0c0.1-0.1,0.1-0.1,0.2-0.2
	l0,0c0,0,0,0,0,0c0,0,0,0.1,0,0.1c3.1-2.2,6-4.8,9.4-6.5c1.2-0.6,3.1,0.2,4.9,0.7C853.7,163.6,854,163.7,854.2,163.7z M809.8,83.2
	c10.6,3.2,36.3,27.8,40.3,38.2c-1.5,0.3-3.1,0.6-4.6,0.9c-3.6-0.5-7.4,0-10.8,1.6c-2.5,1.2-4.8,2.8-5.7,5.5c-0.2,0.5-0.3,1-0.4,1.5
	c-1.5,1.8-2.9,3.6-4.3,5c-1.9-0.4-3.7-0.7-5.6-1.1c-2.7-1.6-5.7-2.5-8.7-2.8c-0.8-0.2-1.6-0.3-2.5-0.3c-1.2-0.1-2.4,0.1-3.6,0.3
	c-1.2-0.2-2.4-0.5-3.6-0.7c-0.5-4.4-1.3-10-1.8-15.7c-0.1-0.9,0.9-2,1.7-2.7c8.8-7,11.6-16.2,9.4-27
	C809.6,85.2,809.8,84.4,809.8,83.2z M796.6,75.5c5.1,5.6,8.2,12.1,7.7,19.9c-0.6,9.1-6.8,14.3-15.7,12.9c-12.4-2-22.2,1.7-29.3,12
	c-3.4,4.9-6.3,10.2-9.5,15.3c-0.9,1.5-1.8,3-2.7,4.5c-0.6-0.1-1.2-0.2-1.8-0.3c-0.3-1.5-0.9-3.1-1-4.6c-0.5-10.7-1.2-21.4-1.1-32
	c0.1-6.1,1.1-12.3,3-18.1C754.3,59,781.6,59.1,796.6,75.5z M759.1,58.7c-1.4,1.8-2.7,3.6-4,5.3c-2.2,1.3-4.5,2.7-6.3,4.6
	c-1.9,2-3.1,4.5-4.1,7.1c-0.6,1.4-1.1,2.9-1.6,4.4c-1.1,1.4-2.1,2.8-3.2,4.2c-4.9-8.1-10.1-16.7-16.4-27.1
	C735.9,57.7,747.2,58.2,759.1,58.7z M703.4,60.7c12.6-0.7,25.7,7.8,29.7,20.8c2.1,6.9,3.2,14.2,4.4,21.4c-0.2,1.5-0.7,3-0.8,4.5
	c-0.2,2.1-0.1,4.3-0.2,6.4c0,2.7-0.1,5.3-0.1,8c-0.1,0.2-0.1,0.4-0.2,0.7c-1.6-1.3-3.4-2.5-4.7-4c-1.9-2.3-3.4-4.9-5.3-7.3
	c-6.7-8.5-15.5-11.4-26-9.4c-2.6,0.5-5.2,0.9-7.8,1.3c-11.9,1.8-20.3-7.7-17.3-19.5C678.4,71,690.2,61.4,703.4,60.7z M607.2,111.8
	c19.2-15.5,39.4-29.3,62-39.4c1.3-0.6,2.7-0.9,5.6-1.8c-1.4,2.7-2.1,4.2-2.9,5.8c-7.4,14.7-2,27.8,13.5,33.1
	c2.4,0.8,4.7,2.2,6.6,3.1c-1.8,3.2-3.2,6.8-3.2,10.5c0,2.4,0.4,4.7,1.5,6.9c1.1,2.3,3,4,4.7,5.9c6.4,7.1,10.4,16.2,11.8,25.6
	c0.5,3.7,0.6,7.5,0.3,11.2c-2-1-3.7-1.7-4.8-3c-18.6-21.6-42.7-26.1-69.4-22.8c-4.1,0.5-8.1,1.4-12.2,2c-0.3,0-0.6-0.3-2-1.2
	c7.9-7.4,17.3-13.7,22.5-23c3.8-4.5,5.8-10.5,5.3-16.5c-0.3-3.4-1.2-6.8-0.6-10.1c2.8-7,5.8-7.6,14-3.3c-0.7-3.1-2.3-5.1-4.6-5.8
	c-2.2-2.2-5.8-0.9-7.9,1.3c-2.8,2.9-4.2,6.9-4,10.9c0.1,2.3,0.6,4.6,0.8,7c0.2,2.1,0,4.3-0.5,6.4c-0.2,1-0.5,1.9-0.9,2.8
	c-1.2,2.5-2.7,4.8-4.4,6.8c-0.3,0.3-0.5,0.6-0.8,0.8c-0.2,0.1-0.2,0.3-0.3,0.5c-8.1,9.1-20,13.3-32.4,17.6c-0.4-2.7-0.8-4.7-0.9-6.8
	c-0.3-3.7,0.7-8-0.9-11.1C600,118.8,602.6,115.6,607.2,111.8z M592,116c1.7,0.1,4.7,3,4.5,4.1c-0.8,3.7,0.4,9.3-5.1,9.9
	c-4.3,0.4-5.5-3.6-5.9-7.1C585.6,118.3,587.9,115.7,592,116z M557.1,166.9c6.8-10.2,15.4-19.3,23.6-28.6c1.7-1.9,4.9-2.5,7.6-3.4
	c3.2-1.2,6.5-2.1,10.7-3.5c-0.6,2.8-0.5,6.2-2,8.5c-5.1,8-10.6,15.8-16.2,23.5c-1.6,2.1-3.1,4.3-4.7,6.4c-8.3,6.8-14.9,15.7-19,25.6
	c-0.3,0.4-0.7,0.9-1,1.3c-0.5,0.7-1.2,1.3-2,2.3c-0.7-0.5-1-0.6-1-0.7C552.4,187.5,551,176.2,557.1,166.9z M552.1,224.1
	c4-11.4,10.9-22.2,18.1-32.1c15.2-20.8,36.6-24.1,59.9-17.1c6.8,2.1,13.2,6.8,18.8,11.5c5.3,4.4,7,11.3,5.7,18
	c-0.7,3.6-2.8,7.3-5.3,10.1c-3.3,3.6-7.9,3.4-11.8,0.6c-4.1-2.9-5.5-7.2-4.1-11.9c1.3-4.7,5.3-5.5,10.2-4.8
	c-5.9-3.9-11.7-1.7-13.8,4.8c-2.2,6.7,0.8,13.8,7.2,17.1c6.7,3.5,14.4,1.7,19-4.5c6.7-8.8,5.3-22.8-3.2-32.7
	c-7.7-9-18-13.2-29.1-15.7c-4.1-0.9-8.2-2.2-12.1-4.6c17.9-11.3,36.8-12.7,56.7-8.3c16.6,3.7,28.5,12.8,37.7,25.5
	c0,0.1,0,0.2,0.1,0.2c2.2,4.2,4,8.6,5.4,13.1c1.4,4.4,2.2,9.1,4,13.4c0.5,1.3,2.7,0.7,2.2-0.6c-1.8-4.5-2.6-9.3-4.1-13.9
	c-0.4-1.2-0.8-2.3-1.2-3.5c-0.5-2.3-1.1-4.7-1.6-7c-0.6-2.5-1.1-4.9-1.6-6.9c1.1-8.1,0.2-16.3-2.5-24c-1.5-4.3-3.6-8.4-6.3-12.2
	c-1.3-1.9-2.8-3.7-4.4-5.4c-1.8-2-3.6-3.8-4.3-6.5c-1.6-5.7,1-11.4,4.2-16c3.2-1.8,6.3-3.6,9.6-4.2c9.9-1.7,16.3,4.3,21.1,12.1
	c7.2,11.7,11.5,24.6,11.5,38.4c0,21.3,0.7,42.4,6.7,63c1.3,4.6-0.6,7.5-5.2,7.9c-3.3,0.3-6.8,0.3-9.9-0.7c-4.3-1.3-6.9-4.6-5.9-9.5
	c1-4.5,3.8-6.7,8.9-5.4c-3.6-4.3-7.4-4.4-10.8-0.5c-5.3,6-4.3,15.3,2.3,21.1c5.7,4.9,12.5,5.8,19.6,5c3.3-0.4,6.6-1.4,9.9-1.7
	c1.8-0.2,3.7,0.6,5.5,0.9c-1.3,1.2-2.6,2.6-4,3.7c-1,0.7-2.4,1-3.6,1.4c-20.4,7.4-31.8,22.4-36.2,43.2c-1.5,7.3-2.9,14.8-3.2,22.2
	c-0.4,11-5.3,20.1-10.5,29.2c-1.5,2.5-3.6,4.9-5.9,6.7c-6.8,5.7-14.2,3.4-16.3-5.1c-1-4.1-1.4-8.5-1.4-12.8
	c0.2-18.4,0.9-36.8,0.9-55.1c0-6.9-0.5-13.9-2.1-20.6c-1.8-7.3-6.6-12.6-14.6-13.8c-8.1-1.3-14.4,1.7-18.6,8.7
	c-2.5,4.2-4.5,8.6-6.8,12.9c-0.8,1.5-1.5,3.1-2.2,4.6l-2.1-0.3c0-2.5,0.1-5.1,0-7.6c-0.2-6.7-0.3-13.4-0.9-20.1
	c-0.2-1.6-2.4-3-3.6-4.4c-1.4,1.4-3.5,2.7-3.9,4.3c-1.1,4.7-1.9,9.6-2,14.4c-0.3,18.4-0.4,36.8-0.5,55.1c0,8.9-6.5,13.9-11.7,19.7
	c-0.5,0.6-3.2-0.1-4.2-0.9c-3.1-2.6-5.9-5.6-8.8-8.5c-0.5,0.3-0.9,0.6-1.4,0.9c2,3,3.7,6.3,6,9c3.4,3.8,2.4,6.8-1.8,8.1
	c-6.7,2-13.7,3.4-20.7,4.2c-2.4,0.3-5-2.1-7.5-3.3c0.7-1.4,0.8-1.9,1-2c15.7-4.5,21.9-16.5,24.1-31.4c1.8-11.6,1.4-23.2-2-34.5
	c-5.8-19.4-25.6-24.4-39.9-10c-8.4,8.4-11.4,19.2-12.6,30.6c-1.2,10.9-0.4,21.8,3.6,32.1c1.6,4.1,0.6,7.1-2.8,9.2
	c-12,7.6-16.2,19-16.7,32.5c-0.2,5.7-6.5,8.9-11.7,6.6c-4.4-1.9-8.9-4-13.6-4.9c-7.3-1.4-12.9,2.9-18.7,8.6
	c-6.3-7.3-12.4-14.3-18.3-21.4c-0.5-0.6-0.4-1.8-0.2-2.6c3.6-20.8,7.2-41.7,11.1-62.4c2.2-11.8,5-23.4,7.6-35.1
	c0.4-1.9,1.3-3.7,2-5.5c0.7,0,1.3,0,2,0c0.9,5.7,2,11.4,2.8,17.2c3.1,24.4,5.9,48.7,9.2,73.1c0.6,4.8,2.2,9.5,4.1,13.9
	c1.7,4,4.6,7.5,9.7,7.4c5.2-0.1,6.6-4.3,8.2-8.1c10.2-23.9,15.7-49.2,20.8-74.6C544,255.6,546.8,239.4,552.1,224.1z M537.3,373.5
	c0,2.2,0.3,4.5-0.1,6.7c-0.2,1.4-1.2,3.6-2.2,3.9c-1.2,0.3-3.2-0.9-4.1-2.1c-3-3.7-2-14.2,1.5-17.3c2.3-2.1,4.3-1.4,4.8,1.6
	C537.6,368.6,537.3,371,537.3,373.5C537.3,373.5,537.3,373.5,537.3,373.5z M533.3,389c6.2,5.6,7,13,1.5,19.7
	c-14.3-11-28.7-22-44.3-34.1c2.7,0,4.2-0.1,5.6,0c8.4,0.4,16.8,1,25.1,1.1c3.3,0.1,4.9,0.9,6.2,4.1
	C528.7,383.2,530.7,386.6,533.3,389z M479.4,96c1.2,0.9,2.3,1.5,3.2,2.3c21.9,20.2,42.4,41.8,60.5,65.5c1.5,2,3.1,4.7,2.9,7
	c-1.1,14.1-2.7,28.2-4.2,42.3c-0.2,1.9-1.2,3.7-1.9,5.6c-0.6,0-1.3,0-1.9,0.1c-0.4-2.1-1.4-4.2-1.1-6.2c1.8-14.5-4.7-24-17.5-30
	c-17.3-8.2-25.4-21.7-24-41c0.7-9-2.2-16.9-9.2-23.1C479.5,112.5,477.5,105.1,479.4,96z M435.5,66.3c4.6,2.9,7.7,4.9,11.1,7.1
	c-7.3,8.7-8.6,18-7.5,28.3c0.5,4.5-0.9,9.2-2,13.7c-0.5,1.8-2.7,3.3-5.1,4.4C435.6,102.4,440.9,85.6,435.5,66.3z M449,134.2
	c5.2,2.7,10.8,4.7,17.1,7.4c0.7-6.8-0.6-11.6-4.8-14.9c-4.6-3.6-10.1-4.1-15.9-2c-2.5,0.9-5.3,0.9-7.9,1.3c-0.2-1-0.5-1.9-0.7-2.9
	c2.5-0.8,5-1.6,6.8-2.2c2-1.8,3.7-3.7,5.7-5.1c1.7-1.1,3.9-1.4,5.6-2.5c9.2-6,23.6,1.1,26.8,10.1c3.3,9.2,6.7,18.3,9.3,27.7
	c4.7,16.5,13.8,29.5,28.5,38.3c8.2,4.8,11.6,11.5,11.8,20.8c0.2,7.8,2.3,15.6,2.2,23.4c-0.1,8.7-1.2,17.6-3,26.1
	c-4.1,20-8.9,39.8-13.5,59.7c-0.5,2-1.7,3.8-2.6,5.7c-0.6,0-1.3,0-1.9,0c-0.7-3.5-1.7-6.9-2.2-10.4c-3.8-29.4-7.4-58.7-11.4-88.1
	c-0.7-5.1-2.7-10.2-5-14.8c-2.7-5.5-7.7-5.5-9.9,0.1c-3.8,9.5-7.3,19.3-9.5,29.3c-4.7,21.8-8.5,43.8-12.7,65.7
	c-0.6,3.1-1.5,6.2-2.2,9.3c-0.8,0-1.5,0-2.3,0c-1.1-4.9-2.3-9.9-3.2-14.8c-4.5-25.2-8.6-50.6-13.6-75.7c-2.7-13.5-8-26.2-17.1-36.8
	c-2.7-3.1-5.2-6.3-8-9.7c9-9.8,10.3-21.7,4.6-34.9c-0.7-1.5,0.3-5,1.6-5.9C430,132.5,438.8,128.9,449,134.2z M270.2,185.8
	c-6.1,4.8-6.8,14.6-1.3,21.2c2.1,2.6,4.8,4.6,6.6,6.3c-1.8,8.4-4.2,16.5-5.2,24.7c-1.1,8.6,0.7,16.5,9.5,21c1,0.5,1.9,2.4,1.8,3.6
	c-0.6,10.7,5.8,17.1,14,22c4.1,2.5,8.6,4.8,13.2,6c5.6,1.5,7.3,5.1,8.3,11.3c-4.7-1-8.7-1.2-12.2-2.7c-12.3-5.4-25.3-9.9-36.3-17.3
	c-22.2-15-29.8-38-30-63.9c-0.1-12.8,2.7-25,9.5-35.9c10.6-17.2,33.5-21.1,48.3-8.5c7.4,6.3,9.1,13.8,3,21.3
	c-4.5,5.5-10.7,9.8-16.8,13.5c-4.5,2.7-8.8,0.5-11.7-4.5c-3-5.1-2.9-12.1,1-14.4c2.4-1.4,5.9-0.9,8.8-1.2
	C279.9,183.7,274.9,182,270.2,185.8z M329.7,247C329.7,247,329.7,247,329.7,247l-0.1-0.1C329.6,246.9,329.7,247,329.7,247
	c0,0.1,0,0.1,0,0.1c0,0,0,0,0,0c2,3.8,4.2,7.6,6.1,11.5c0.5,1.1,0.3,2.5,0.3,3.8c-1.5-0.3-3.7-0.2-4.3-1.1
	c-3.1-4.3-3.9-9.1-2.1-14.2c0-0.1-0.1-0.2-0.1-0.2C329.6,246.9,329.7,246.9,329.7,247c2.3-1.5,4.5-3.8,7-4.3
	c2.6-0.5,5.5,0.6,8.2,1.4c0.4,0.1,0.6,3.4,0.1,3.7c-2.6,1.4-5.5,3.2-8.3,3.1C334.4,250.7,332.1,248.4,329.7,247
	C329.8,247,329.8,247,329.7,247z M334.1,237.7c-4.7,6.6-8.6,6.3-13.8,0.3c-2.5-2.9-2.4-5.7-0.9-8.7c1.9-3.8,4.8-4,6.8-0.8
	c1.9,3,2.5,6.8,3.5,9.6c2-3.5,4.4-7.8,6.8-12.1c0.8,0.4,1.7,0.8,2.5,1.2C340.8,232,336.3,234.7,334.1,237.7z M319.4,241.6
	c0,0.7,0.1,1.4,0.1,2c-3,0.6-6.1,2-9,1.5c-1.8-0.3-3.1-3.3-4.6-5.1c0.4-0.6,0.8-1.2,1.3-1.9C311.2,239.4,315.3,240.5,319.4,241.6z
	 M314.7,259.5c-2.5-3-2.4-7.1,1.2-9.4c2.9-1.8,6.7-2.4,10-3.5c0.5,0.7,1,1.4,1.5,2.1c-1.6,3.1-2.8,6.4-4.8,9.1
	C320.6,260.4,317.6,262.9,314.7,259.5z M327.3,281.8c14.4,11.7,22.3,10.6,40.8-6c5.5,14.8,15.6,26.2,26.1,37.4
	c2.8,3,3.3,6.2,0.1,9.8c-8.7-3.4-17.5-6.9-26.5-10.2c-9.6-3.6-19.6-6.5-29-10.5c-4.8-2-9.3-5.4-12.9-9.2
	C320.7,287.4,321.1,287,327.3,281.8z M353.6,157.6c-0.5-3.2-1-5.8-1.6-9.4c4.9,2.2,9.4,4.3,13.9,6.3c-1,4.5-2,8.5-2.8,12.5
	c-0.9,4-3.2,5.7-7.7,4.5c-1.1-7,5.7-10.5,7.5-17.1C359.2,155.7,356.5,156.6,353.6,157.6z M352.9,78.5c-2.3-0.2-5.1,0.3-6.9-0.8
	c-3.8-2.4-4.1-7.3-1-12.9c2.8,1.9,6.2,3,7.5,5.2C353.8,72.2,352.9,75.6,352.9,78.5z M343.3,102.4c2.8,1.3,5.6,2.6,9.2,4.2
	c-1.6,2.2-2.6,3.5-4.3,5.7c-2.2-3.2-4.1-5.9-6-8.6C342.6,103.3,343,102.8,343.3,102.4z M388.1,251.2c-5.3,0.1-10.4,1.4-13.9,5.2
	c-1.8,0.9-3.7,1.8-5.7,2.6c-0.3-0.5-1.4-2.3-2.4-4.1c14.6-12.8,20.2-32.5-1.7-50.2c2.1-2,4.2-4.1,6.7-6.6c7.9,4.9,16.6,5.5,26.2,2.2
	c5.7-2,10.8,1.3,14.4,5.5c3.2,3.6,6.5,7.6,8,12.1c4.3,12.3,7.8,24.8,11.6,37.2c-0.6,0.4-1.1,0.7-1.7,1.1c-9.8-4.8-18.9-4.5-25.9,2.7
	c-1.6-0.6-3.1-1.4-4.6-2.1C396.5,253.4,393.2,251.2,388.1,251.2z M404.3,314.4c11.9-9.7,23.3-19.9,29.2-36
	c5.5,23.4,10.7,45.5,16,68.1c-1.2-0.4-2.9-0.6-4.3-1.3c-13.3-6-26.6-11.9-39.8-18.3C398.1,323.5,398,319.5,404.3,314.4z M378.2,94.8
	c0-1.1,1.2-2.7,2.3-3.4c13.9-8.4,17.7-17.2,14.2-33.2c-0.3-1.5-0.8-2.9-1-4.4c-0.4-3.9,2.6-6.4,6.2-5.1c3.8,1.5,7.6,3.3,11.3,5
	c1,0.5,1.8,1.2,2.1,1.4c-1.2,6.9-2.1,13.3-3.6,19.6c-0.4,1.6-2.7,3-4.4,4c-3.4,1.9-7.4,2.8-10.4,5.1c-7.2,5.7-8.5,12.5-4,23.2
	c4-5.2,7.6-9.7,11.1-14.3c1.2-1.6,1.9-3.7,3.2-5.2c3.7-4.2,7.1-3.6,9.9,1.1c2.7,4.5,5.4,9,8.4,13.3c3.9,5.5,4.2,11,1,16.9
	c-2,3.8-4,7.6-6.4,12.1c-2.2-2.5-3.7-4.5-5.5-6.3c-5.1-5.5-10.9-9.5-18.8-10.3c-2.1-0.2-4.1-2-6-3.4c-1.6-1.2-2.7-3.7-4.4-4.2
	C376.7,104.7,378.3,99.3,378.2,94.8z M376.7,137.7c1-0.8,2.9-0.5,4.4-0.7c0,1.4,0.5,3-0.1,4c-2.2,3.6-4.8,6.9-7.5,10.7
	c5-0.9,9.6-1.7,14.2-2.5c0.2,0.6,0.3,1.2,0.5,1.8c-2.1,2.3-2.9,6.5-7.6,4.9c-3.3-1.1-6.4-2.7-9.8-4.3
	C370.2,146.1,372.3,141.3,376.7,137.7z M369.5,156.2c10.1,2.1,14,8.9,8.5,15.7C369.3,167.4,367.2,163.4,369.5,156.2z M367.6,153
	c-4.8-4.2-9.1-7.6-12.9-11.5c-1-1.1-0.3-3.8-0.4-5.8c1.9,0.1,4-0.4,5.6,0.3C365.8,138.8,368.8,144.8,367.6,153z M360.2,61.9
	c-4,0.5-8,1.1-12,1.6c-0.1-0.5-0.2-1.1-0.2-1.6c3.7-3.7,7.5-7.3,11.5-11.3v9.2C359.7,60.5,360,61.2,360.2,61.9z M340.1,50.6
	c1.1-3.3,3.9-6.8,7-8.6c2.8-1.7,5.3,1.1,4.3,4.1c-1.4,4.6-3.8,8.8-5.8,13.2c-1-0.1-2-0.1-3-0.2C341.6,56.3,339.3,52.9,340.1,50.6z
	 M339.6,57.5c-5.2-0.1-11.1-6.6-11.6-13.1C334.8,46.9,336.8,52.3,339.6,57.5z M328.2,69.3c1.9-5.4,7.9-8.1,14.4-6.9
	c-2.4,3.9-4.3,8-7.2,11.3c-1.3,1.5-4.4,1.5-6.7,2.2C328.5,73.7,327.5,71.2,328.2,69.3z M289.7,51c3.9,6,7.5,11.5,10.8,17.1
	c0.7,1.2,0.8,3.1,0.5,4.5c-3.6,15.8,11,32.6,24.9,31.3c2-0.2,4.5,1.7,6.3,3.2c3.1,2.6,6.1,5.6,8.8,8.7c2.2,2.5,2.3,4.8-1.8,5.5
	c-0.2,0-0.4,0-0.6,0.1c-9,5.3-15.8,1.6-23.3-4.1c-13.1-10-26.9-19-40.7-28c-7-4.5-14.7-7.5-23.4-6.3c-3,0.4-6,1.3-9,2
	C255.8,69.5,272.5,58.8,289.7,51z M192.4,203.3c1-8.5,1.6-17.1,3-25.6c3.5-21.9,10.9-42.4,22.1-61.5c5.3-9,11.9-16.8,21-22.2
	c9-5.4,18.5-6.5,27.9-2.1c7.3,3.4,14.2,7.8,22.1,12.2c-11.6,1.6-21.4,1.8-30.6,4.4c-11.7,3.4-17.3,19.2-11,29.7
	c1.9,3.2,5.7,6.3,9.2,7.3c2.9,0.8,7.6-0.8,9.9-3c1.9-1.8,1.5-6.1,2.3-10.5c-1.9,1.1-2.2,1.1-2.2,1.3c-1.8,3.7-3,8.3-8.4,7.4
	c-5.6-0.9-7-5.6-7.8-10.4c-1.5-8.9,5.2-18,15.5-20.2c13-2.8,25.5-0.2,37,5.8c6.6,3.4,12.5,8.2,18.4,12.8c1.2,0.9,1.7,3.8,1.4,5.5
	c-0.9,4.8-2.8,9.3-3.6,14.1c-2.6,14.7,0.6,20.5,14.5,26.7c-4,13.5,7.6,18.1,14.9,26c-12.8-7.9-25.6-13.8-41-3.2
	c0.6-3.4,0.9-5.3,1.3-7.2c2.2-9.5-0.9-16.9-8.7-22.5c-15.5-11.3-35.8-10.1-49.3,3.7c-19.3,19.8-23.7,43.4-16.2,69.6
	c0.5,1.9,1.2,3.8,1,6.2c-10.4-5.9-18.6-14.4-20.3-26.1c-1.6-11.2,0.1-22.8,0.3-34.7c-9.3,2-16.7,7.5-20.9,17.3
	C193.5,203.8,193,203.6,192.4,203.3z M195.8,246.4c-1-4.7-1.5-9.4-1.6-14.8c8.2,15.6,26,13,38.3,20.5l-0.6,2.1
	c-1.9-0.2-3.8-0.4-5.6-0.7c-9.1-1.5-18.3-3-27.4-4.7C197.7,248.6,196.1,247.4,195.8,246.4z M261.3,382.7
	c-13.4-5.9-57.5-86.1-59.8-109.4c11.5-2.7,23-5.7,34.7-8.1c2.2-0.5,5.9,0.6,7.3,2.4c12.1,14.9,26.2,27.3,43.7,35.5
	c0.8,0.4,1.4,1.2,2.5,2.2C264.6,325.4,254.2,350.9,261.3,382.7z M434.6,530.1c-1.7-0.9-3.4-1.6-4.9-2.6
	c-48.1-31.2-93.5-65.7-135-105.5c-27.6-26.4-27.3-64.2-15.4-93.1c1.1-2.8,3.1-5.2,4.6-7.9c0.6,0.3,1.2,0.5,1.8,0.8
	c-0.8,6-1.7,12-2.3,18.1c-1.2,13.3-1.6,26.6,4.1,39.2c6,13.3,17.6,20.2,29.8,18c16.9-3.1,25-23.1,14.4-36.7c-1.9-2.5-6.7-4.7-9.4-4
	c-3.4,1-6.8,4.5-8.5,7.9c-1.9,3.8,1.4,6.3,4.1,7.6c-0.2-3-1.1-6.2-0.2-8.8c0.5-1.5,4.6-3.4,6-2.8c2.9,1.4,6,4,7.3,6.8
	c3.1,6.9,0,15.1-6.2,19.3c-7.6,5.2-16.8,4.9-23.5-0.9c-9.7-8.5-13.6-19.9-13.8-32.1c-0.2-12.3,1.1-24.7,2.1-37
	c0.4-5.3,6.8-8.6,13.6-7.6c56.4,8.8,56.2,9.2,107.2,32.7c37.5,17.2,72.6,38.2,105.7,62.6c1.4,1.1,2.2,3,3.3,4.6
	c-1.9,0.3-3.9,1.2-5.6,0.9c-16.7-3.2-30.9,0.2-41.1,14.9c-1.1,1.6-2,3.5-2.2,5.9c0.6-0.4,1.4-0.8,1.9-1.3
	c9.3-10.1,20.7-13.7,34.2-10.7c16.1,3.6,29.5,12.7,42.4,22.4c0.7,0.5,1,1.5,2,3.1c-2.2-0.2-3.5-0.3-4.9-0.3
	c-8.2,0.1-16.4-0.2-24.6,0.4c-3,0.2-5.9,2.2-8.6,3.7c-4,2.2-8,4.7-11.8,7.3c-1.9,1.3-4.5,3-5,5c-2.1,7.5-3.5,15.1-5.2,23.1
	c1.9,0,3.3,0.1,4.7,0c4-0.5,7.1,0.8,8.6,4.7c5.5,14.2,15.4,23.2,30.6,26c0.7,0.1,1.3,0.6,2.7,1.4c-8,9.3-15,18.9-15.7,32.5
	c-16.4-8.7-32.1-16.3-44-29.4c-7-7.7-10.9-17.1-11-27.6c0-4.6,1.4-9.2,2.3-13.7c3.4-17.4-3.4-26.7-20.7-28.1
	c-0.5-3.2-0.5-6.7-1.6-9.7c-1.1-2.9-3.3-5.4-5.3-8.4c4.5-5.6,7.5-12.3,5.8-19.9c-0.9-3.8-2.7-8-5.3-10.8c-6-6.5-14-6.5-23.9-0.9
	c-8.5-14.1-15.5-17-27-11.2c-11.8,5.9-14.7,13.3-10.2,25c-4.1,1.2-8.9,1.5-12.2,3.8c-6.9,4.9-8.6,12.5-7.2,20.6
	c1.2,7.4,5.7,12.2,13.1,13.7c3.3,0.7,3.9,2.2,3.6,5c-0.8,6.5,2.1,11.9,7.6,14.6c6,3,12.8,5.3,19.4,6.1c7,0.8,12.4-3.5,15.6-9.8
	c3.7,0.4,7.2,0.6,10.6,1.1c1.3,0.2,2.9,1,3.7,2c7.9,9.8,15.7,19.6,23.4,29.5c1.6,2,2.4,4.7,3.7,7.4
	C438.4,510.4,438.4,510.4,434.6,530.1z M464.4,485.3c-0.9,3.4-1.2,6.9-1.7,10.3c-0.6,0.4-1.3,0.7-1.9,1.1c-6.4-8.6-13-17-19-25.9
	c-2.9-4.4-1.9-9.4,1.9-13.4c3.8-4,8.6-5.2,13.8-3.4c8.5,2.9,13.1,11.7,10.7,20.7C467.2,478.4,465.3,481.7,464.4,485.3z M421.7,438.7
	c1,1.4,1.4,3.3,2.1,5c-2.3-0.4-5.5,0-6.7-1.4c-2.6-3.2-4.2-7.2-6.3-11c8.4-3.1,15.1-2.4,18.3,2.6c-3.9,0.2-7.4,0.4-12.2,0.7
	C419.3,436.6,420.8,437.4,421.7,438.7z M401.4,418.5c-0.3-1.5,2.7-3.6,4.2-5.4c1.9,1.7,5.4,3.4,5.4,5.2c0.1,4-1.4,8.1-2.3,12.2
	l-3,0.4C404.2,426.8,402.1,422.8,401.4,418.5z M404.1,431.6c-1.7,2.8-5.6,4.3-9.5,7.1c-2.8-2.7-4.8-4.6-6.9-6.6
	c2-1.8,3.8-4.4,6.1-5.3C398.1,425.3,405.4,429.4,404.1,431.6z M406.8,433.6c6,6,7,11.6,3.8,16.2c-0.7,1.1-2.8,2.5-3.3,2.2
	c-1.2-0.7-2.8-2.4-2.7-3.6C405.1,443.9,406,439.4,406.8,433.6z M411.6,428.4c2.8-4.4,5.2-8,8.3-12.9
	C422.8,423.5,420.2,427.2,411.6,428.4z M447.8,540.5c6-4.1,13.2-6.1,9-14.8c-1.3,2.5-1.9,5.2-3.7,6.6c-3.4,2.8-7.4,3.7-11.3,0.4
	c-3.4-2.8-3.9-8.2-1.4-12.3c3.8-6.4,11.9-9,20.4-5.3c6.3,2.8,12,6.8,17.7,10.7c14.6,10.1,29.1,20.4,43.6,30.6c1.1,0.7,2.3,1.4,3,2.4
	c3.7,5.5,7.3,11,11.2,17c-2.6,0.9-5.6,2-8.7,3.2c2.3,5.6,14,4.3,8.6,15.7C506.6,576.6,477.6,558.8,447.8,540.5z M542,595.7
	c-0.2-0.5,2.2-2.8,3-2.6c1.6,0.4,3,1.9,4.5,3c-1,1.4-2,2.8-3.6,4.9C544.2,598.8,542.7,597.4,542,595.7z"/>
<path fill="#C49A6C" d="M141.4,686.8v93.4h807.4v-93.4H141.4z M230,740.2h-30.2v-13.3H230V740.2z M890.4,740.2h-30.2v-13.3h30.2
	V740.2z"/>
</svg>
