<?xml version="1.0" encoding="utf-8"?>
<!-- Generator: Adobe Illustrator 27.3.1, SVG Export Plug-In . SVG Version: 6.00 Build 0)  -->
<svg version="1.1" id="Layer_1" xmlns="http://www.w3.org/2000/svg" xmlns:xlink="http://www.w3.org/1999/xlink" x="0px" y="0px"
	 viewBox="0 0 1200 800" enable-background="new 0 0 1200 800" xml:space="preserve">
<path opacity="0.6" fill="#ED1C24" d="M579.2,533.1c-1.1,0-2.1-0.2-3.2-0.3c1.9-1.4,3.8-2,5.8-2.7c9.8-3.5,15-10.8,15.3-21.1
	c0.1-3-0.8-4.5-4.1-4.9c-8.4-1-15.8,3.5-19.5,12.3c-0.9,2.1-1.7,4.2-2.9,7.2c-4.2-26.5-8.2-51.8-12.2-77.2c2,0.3,4.9,1.1,7.8,1.2
	c17.3,0.8,32.8-13.9,34-31.9c0.4-7-1.1-8.7-7.9-7.8c-11.8,1.6-23.8,2.9-33.9,13.1c1.2-23.3,8.5-44,11.7-66.2
	c2.5,1.5,4.3,2.6,6.1,3.6c6.5,3.9,13.5,2.5,18.6-3.8c4.7-5.8,4.4-10.7-1.1-16.7c-0.8-0.8-1.7-1.9-1.7-2.9c-0.1-5-3.2-4.7-6.6-4
	c-5.4,1.2-10,3.7-12.7,8.8c-0.4,0.8-1.1,1.3-1.6,1.8c-0.9-11.3-1.8-22.5-2.7-34.3c12.8,6.5,25.4,9.3,38.7,1.2
	c-3.4-6.3-7.7-10.7-13.3-13.5c-9.6-4.7-19.1-4.7-27.9,2.8c-1.9-6.3-3.4-11.4-5.1-17c4.1,1.3,7.3,2.9,10.7,3.3
	c14.2,1.6,28.3-15.9,24.1-29.7c-0.9-3.1-3.1-3.9-6.6-3c-2.9,0.7-6.5,1-9.2-0.1c-3.7-1.4-6.6-1.3-8.9,1.8c-1.9,2.6-4,5.5-4.7,8.6
	c-0.9,4-0.6,8.4-0.8,12.8c-5.4-1.7-10.1-4.4-12.5-10.1c-1.3-3.1-2.5-6.2-3.9-9.2c-15-33.8-36.9-61.7-70-79.5
	c-17.4-9.4-35.4-17.8-52.9-27c-4.2-2.3-7.6-6.2-11.3-9.5c-2.5-2.2-4.5-5.2-7.3-6.4c-4.7-2-5.5-4.8-4.6-9.3c2.2-10.8,1.8-21.6-2.1-32
	C393,70.7,379.1,56.6,355.8,54c-6.7-0.8-13.6-0.1-20.6-0.1c2.9-6.1,4.9-12.5,2.7-19.5c-2-6.5-3.8-7.2-9.7-3.8
	c-5.3,3-9.6,6.9-10.3,13.7c-3.9-2.7-6.8-4.9-10-6.7c-1.2-0.7-3.6-1.2-4.4-0.5c-1,0.8-1.3,3-1,4.5c1,5.1,2.9,9.8,7.8,12.8
	c3.3,2,6.2,4.8,9.3,7.2c-0.4,0.5-0.7,1.1-1.1,1.6c-2.1-1.1-4.2-2.4-6.4-3.2c-5.4-2-10.8-5-16.4-5.5c-28.4-2.6-51.7,15.5-56.4,43.7
	c-1.3,8-1.1,16.2-1,24.4c0,4.1-0.7,6.9-4.7,8.8c-2.2,1.1-4.5,3.3-5.3,5.6c-2.5,7-7.7,10.3-14.1,13.1c-18.7,8.4-37.4,16.7-55.8,25.8
	c-29.5,14.6-53.2,35.9-70,64.4c-5.9,10.1-10.3,21.1-15.3,31.4c-0.3-1.2-0.4-3.3-1.3-4.9c-2.9-4.8-5.8-9.5-9.2-13.9
	c-2.1-2.7-5.1-2.1-8.2-0.6c-3.3,1.7-6.9,3.2-10.6,3.9c-3.4,0.6-4,2.3-3.9,5.1c0.3,7.2,3.3,13.1,8.5,18.1c5.5,5.3,12,8.2,20.6,7.4
	c-0.8,3-1.4,5.1-2,7.2c-16.8-3.6-27.7-0.3-32.4,9.8c9.5,7.1,20,8,30.9,4.6c0.8,8.7,1.5,16.8,2.3,25.4c-1.5-0.7-2.6-1.2-3.8-1.8
	c-6.3-2.7-13.5-0.3-14.3,5c-1,6.8,0.5,13.1,6,17.6c5.1,4.3,10.4,3.5,15.3-0.6c7.9,11.6,22.5,56.2,20.2,61.8c-0.7-0.8-1.4-1.5-2-2.3
	c-7.8-10.8-19.1-14.4-31.7-15.2c-3.5-0.2-5.5,1-5.2,4.8c0.6,9.7,3,18.7,9.9,26c8.1,8.6,17.7,13.4,29.6,11.4
	c-4.2,26.2-8.3,52-12.4,77.7c-0.5,0-1.1,0.1-1.6,0.1c-2.7-4.1-5.3-8.3-8.2-12.2c-2.9-4-6.5-7-11.9-7.2c-3.1-0.1-4.6,1-5.2,3.9
	c-1.9,9,2.4,18.5,10.6,22.8c2.4,1.3,4.9,2.4,7.4,3.6c-2,0.8-3.7,0.5-5.3,0.1c-7.5-1.8-13.5,0.8-18.2,6.4c-5.8,6.7-6.2,14.8-4.9,23.2
	c0.4,2.4,0.8,4.8,4.1,4.5c3.2-0.3,6-1,6-5.1c0-2.3,0.4-4.6,0.7-7c0.8-7.3,6.4-13.5,13.1-14.5c3.6-0.5,5.8,0.7,6.1,4.7
	c0.2,2.6,0.4,5.3,1,7.9c4.7,21.6,12.6,42.1,23.4,61.4c1.5,2.6,1.1,6.2,2,9.3c0.4,1.3,1.5,2.6,2.7,3.4c1.9,1.3,4.5,1.9,6,3.5
	c2.6,2.9,24.5,26.4,22.5,27.8c-0.9,0.6-2.1,0.4-3.2,0.2c-11.3-2.1-22.8,1.3-33.7,4.7c3.5,4.1,7.1,8.3,11.5,11.5
	c3.3,2.3,6.7,3.1,10.3,4.6c2.4,1,4,2.7,6.2,4c6.1,3.6,12.4,1.4,16-4.4c1.2-2,2.4-3.9,4-6.5c10,15.7,15.5,34,18.4,52.3
	c1.4,9.3,2.2,18.7,2.2,28.1c0,2.7-1.7,10.8-0.3,13c2,2.9,11,1.5,14.3,1.3c0.5-9.9-0.6-20.4-1.7-30.3c-0.8-7.2-1.6-14.6-3-21.8
	c-3.3-17.8-9.3-35-15.6-51.9c2.5,0.3,4.4,0.9,6,1.9c7.8,4.9,16,5.4,24.4,2.3c9.8-3.6,19.7-7.3,29.3-11.4c3.5-1.5,5.5-1.3,7.9,1.8
	c11.2,14.4,24.3,26.9,38.6,38.2c6.7,5.2,13.5,10.3,19.9,15.8c8.6,7.5,16.8,15.6,25.4,23.2c5.4,4.7,11.2,9,17,13.6
	c6.5-4.1,13.9-8.3,20.9-13.1c9.1-6.3,17.8-12.9,23.5-22.7c0.1-0.1,0.2-0.1,0.2-0.2c11.3-8,23.6-15.4,33.2-25.4
	c10.5-11,21.4-21.5,32-32.4c9.7,4.6,19.9,9.5,30.1,14.2c8.4,3.9,16.7,3.7,24.8-1.1c0.8-0.5,1.9-0.7,3.3-1.2
	c-2.6,6-5.2,11.2-7.3,16.6c-5.7,14.2-9,29.3-10.5,44.5c-1.6,15.7,1.2,30.9,0.3,46.5c2.8,0.5,5.6,0.7,8.4,0.7c4.4,0,4.5,0.4,4.7-3.6
	c0.5-11-0.4-21.8,0.4-32.8c0.5-7.7,1.3-15.5,2.8-23.1c1.4-7.6,3.4-15.1,6.2-22.3c0.8-2,10.6-20.5,10.6-20.6c3.4,3.9,5.9,7.5,9,10.4
	c5.6,5.1,12.5,7.5,19.3,1.9c0.9-0.7,2.5-0.7,3.7-0.8c6.9-0.6,13.1-2.4,17.4-8.4c2-2.8,1.8-4.8-1.5-6.3c-1.9-0.9-4.9-1.1-3.6-4.7
	c0.1-0.2-1.5-1.3-2.3-1.4c-5.1-0.7-10.2-2.1-14.8,1.8c-0.7,0.6-2.3,1-3.1,0.6c-5-2.4-10-5.1-14.2-7.4c5.7-7.6,12-16,18.2-24.3
	c4.6-6.2,9.4-0.5,15.5,1.7c-4-7.8-4.1-16-0.7-24c8.4-19.3,15.4-39,19.2-59.8c1.5-8.5,4.8-10.1,12.6-6.1c2.5,1.3,5.3,3.5,6.3,6
	c1.8,4.3,2.2,9.2,3.4,13.8c0.5,1.8,0.9,4.6,2.1,5c3.5,1.3,7.3,1.8,11,2.5c0.2-2.9,0.5-5.7,0.7-8.6c0.1-1.3-0.1-2.7-0.2-4
	C603.4,543.3,593,533.6,579.2,533.1z M584.9,338c2.4,0.7,4.1,3.7,5,4.6c0.2,6.8-2.3,10.1-6.1,10c-3.5-0.1-6.7-1-6.9-5.4
	C576.7,343.5,581.8,337.1,584.9,338z M576.4,262c1.5-3,4.7-4.8,7.9-3.1c3.5,1.9,1.3,4.9,0.3,7.4c-2.8,6.5-5.8,8.6-12.5,8.2
	C573.6,269.9,574.6,265.8,576.4,262z M47.7,261.3c9.3-2.9,10.1-2.7,14.4,5.3c1.7,3.1,3,6.5,4.6,9.9
	C58.8,277.7,50.7,270.9,47.7,261.3z M63,349.1c-1.3,0.5-4.2-0.7-5.1-2c-1.8-2.8-2.7-6.2-4.2-9.9c7.5-1.4,11.7,1.1,12,7
	C65.8,345.9,64.4,348.5,63,349.1z M117,663.5c-0.3,0.5-0.7,1.1-0.9,1.6c-0.7,1.5-0.9,3.1-1,4.7c-1.7-2.2-3.4-4.5-5.5-6.5
	c-0.6-0.6-1.2-1.1-1.8-1.6c-0.5-0.4-1.4-0.8-1.7-1.4c-0.6-1.3,2.6-0.8,3.2-0.8c3.3,0.3,6.6,0.4,9.8-0.5
	C118.5,660.6,117.8,662.1,117,663.5z M542.6,666.9c0.7,0.2,1.4,0.5,2,0.7c-1.9,3.1-3.7,6.2-5.6,9.3c-0.7-0.3-1.4-0.5-2.1-0.8
	c-0.5-3.3-0.9-6.6-1.6-11.7C538.2,665.4,540.5,666.2,542.6,666.9z M468.8,210.9c0-0.6,0.3-1.2,0.5-1.7c0.4-0.1,0.8-0.2,1.1-0.3
	c0.7,2.2,1.7,4.4,2.1,6.7c1.8,8.5,0.9,16.8-2,25c-2.1,6-7,9.2-12.4,11.6c-1.3,0.6-3.6-0.1-5-1c-0.7-0.4-0.9-2.8-0.4-3.9
	c1.5-3.1,2.9-6.4,5.2-9C465.1,230.4,469.5,221.7,468.8,210.9z M374,286.6c-12.6,11.3-26,21.8-39,32.6c-2.5,2.1-5.2,5.4-7.8,5.4
	c-2.4,0.1-4.9-3.5-7.2-5.5c-14.2-12.3-28.9-24.1-42.4-37.1c-11.7-11.2-17.9-25.6-17.5-42.2c0.4-14,5.3-25.8,18.5-32.4
	c13.7-6.9,27.2-7.1,40.1,1.9c1.5,1,3.1,2,4.4,3.2c2.3,2.1,4.1,2,6.4-0.2c20.7-19.5,47.8-6.6,57.9,9c4.4,6.8,6.1,14.3,5.9,22.3
	C393,260.7,386.6,275.3,374,286.6z M380.2,310.6c-6.5,2.8-12.9,5.5-19.4,8.3c-0.2-0.5-0.4-1-0.6-1.6c6.5-2.7,13-5.4,19.6-8.1
	C379.9,309.7,380.1,310.2,380.2,310.6z M319.6,336.5c-12.3-8.8-24.6-17.7-36.9-26.5C297.1,315.8,308.8,325.5,319.6,336.5z
	 M183.5,250.3c-10.2-4.8-15.7-16.2-13.5-28.5c0.9-5,2.5-9.8,4.9-14.9c-0.5,18.7,14.4,29,22.7,43.5
	C192.3,253.1,187.8,252.3,183.5,250.3z M184.8,258.2c-3,5.9-12.8,11.1-21.1,11.2C168.1,256.7,174.1,253.5,184.8,258.2z M199.6,259.8
	c4.9,0.7,9.8,1.5,16.3,2.6c-13.6,4.6-15.5,16.2-18.9,27.1c-2.4-6.4-4.3-11.9-6.5-17.4C188.2,266.1,193.3,259,199.6,259.8z
	 M195.7,297.3c3.9,1.8,7.8,3.6,12.3,5.7c-6,2.1-11.2,4-16.9,6C192.7,304.9,194,301.4,195.7,297.3z M203.7,292.9
	c1.8-12.7,8.1-20.9,17.6-21.7c4.7-0.4,9.7,1.5,14.5,2.8c0.6,0.2,1.1,3.6,0.5,4.9c-4.8,9.4-13.5,12.8-23.4,13.9
	C209.9,293.2,207,292.9,203.7,292.9z M248.9,273.2c0.6-0.2,1.2-0.3,1.8-0.5c3.6,4.8,7,9.7,10.8,14.3c3.6,4.6,7.5,8.9,11.2,13.2
	c-12.9-1-26.3-2-40.4-3C242.5,292.7,246.3,283.4,248.9,273.2z M405.5,274.3c3.5,9.9,7.6,18.8,17,23.4c-0.2,0.5-0.4,1-0.6,1.6h-35.8
	C392.1,291.5,398.3,283.6,405.5,274.3z M427.8,311c-11.9-1-23.8-2-35.1-2.9C406.8,305,425,306.4,427.8,311z M415.2,273.9
	c4.2-2.2,9.1-1.9,12.1,0.8c6.4,5.7,11.8,12.4,17.5,18.8c0.4,0.4,0.3,1.2,0.5,1.8C434.3,297.3,418.4,286,415.2,273.9z M458,300.9
	c1.6,2.9,3.3,6,5,9.1c-0.3,0.3-0.7,0.6-1,0.9c-5.7-1.7-11.3-3.4-18.5-5.5C449,303.6,453.2,302.3,458,300.9z M461,258.7
	c10.1-6.9,18.3-1.7,23.5,10.3C475.3,268.1,468.3,263.3,461,258.7z M445.2,250c0.4,4-1.9,4.3-5.1,3.5c-8.6-2.1-16-12-16.5-22.2
	c-0.5-10.8,3.3-19.6,12.3-25.7c5.9-3.9,12.3-7,18.2-10.3c0,8.7,0.5,17.1-0.2,25.4c-0.3,4.3-2.4,8.6-4.3,12.6
	C447.2,238.7,444.5,243.8,445.2,250z M455.4,181.1c-2.6,1.2-4.5,2.1-6.3,2.8c-5.9,2.4-12,4.2-17.5,7.2
	c-24.4,13.3-28.1,45.3-7.9,64.2c6.6,6.2,14.6,6.7,22.9,6.2c4.8-0.3,8.6,0.9,10.4,5.7c0.2,0.6,0.7,1.3,0.6,1.9
	c-0.5,8.9-1,17.8-1.6,28.1c-6.6-9-12.5-16.9-18.6-25.1c2.4-0.6,5.1-1.1,7.7-2c1.2-0.4,2.1-1.7,3.2-2.6c-1-1-1.9-2.6-3-2.9
	c-3.5-0.8-7.2-1.5-10.8-1.5c-9.4,0.2-18.8,0.9-28.4,1.4c3.8-16.4,5.3-33.2-4.9-49.1c-10.1-15.6-24.7-23.8-42.4-26.7
	c12.5-13.4,24.9-26.7,37.8-40.6C412.8,163.1,435,169.2,455.4,181.1z M331.4,36.9c-2.4,4.1-4.9,8.3-7.4,12.7
	C322.3,45,324.9,39.9,331.4,36.9z M256,94.9c7.7-21.3,28.8-30.7,49.8-22.1c4.6,1.9,8.8,4.8,13.3,6.8c1.4,0.6,4.1,0.7,4.9-0.2
	c21.1-22.1,58.3-7,64.1,22.9c2.6,13.5-1.4,25.8-8,37.2c-9.9,17.2-24.6,30-39.7,42.5c-5.1,4.2-10.2,8.4-15.9,13.1
	c-7.5-5.4-15.5-11-23.4-16.8c-14.5-10.8-28.1-22.5-38.5-37.4C253,126.7,250.1,111.3,256,94.9z M221,164.6
	c9.8-4.7,19.3-9.9,28.7-14.7c12.8,12.4,26.4,25.6,40,38.8c-38.1,4.9-51.3,38.7-41.6,76.3c-8.6-1.6-17.1-3.2-25.1-4.7
	c3.2-2.1,7.2-4.2,10.4-7c9-7.9,11.2-18.3,8.7-29.6c-4.1-18.7-17-29.4-33.7-36.6c-5.7-2.5-11.4-5.2-17.1-7.8c0-0.5,0-1,0-1.4
	C201.2,173.4,211.2,169.2,221,164.6z M190.1,190.4c10.7,7.1,22.1,13.4,31.8,21.7c8.2,6.9,10.7,17.1,7,27.9
	c-2.6,7.6-8.6,11.2-16.2,12.2c-4.5,0.6-7.7-0.6-9.2-5.9c-1.7-5.8-5.1-11.2-7.3-16.9c-1.9-4.9-3.7-10-4.5-15.2
	c-1.2-7.5-1.6-15.1-2.4-22.6C189.5,191.2,189.8,190.8,190.1,190.4z M88.2,366.7c-12.8-26.3-13.4-53.5-5-81.1
	c8.4-27.5,23.9-50.2,45.1-69.4c12.6-11.4,26.5-20.5,41.8-27.8c1.4-0.7,2.9-1.3,5.2-1.1c-1.3,2.6-2.6,5.1-3.8,7.7
	c-2.7,5.6-5.8,10.9-7.9,16.7c-3.3,9.2-3.6,18.6,0.2,27.9c0.7,1.8,1.3,3.7,2.1,5.8c-10.7,4.6-17.1,12.5-20,23.2
	c-1.5,5.4-0.2,8.1,5,10.3c10.1,4.3,19.8,3.6,28.7-3.1c0.8-0.6,1.6-1.2,2.4-1.8c0.1-0.1,0.3-0.1,1.9-0.5c0.6,6.2,2.4,12.4,1.4,18.2
	c-2.1,12.4-8.4,23-17.1,32.2c-7.2,7.6-14.7,15-20.9,23.3c-6.2,8.3-10.8,17.8-16.2,26.8c-0.5,0.8-1,1.7-1.5,2.6
	c-4.2-2.7-6-6.5-3.4-11c2.9-5.1,6.4-10.7,11.1-13.6c12.3-7.7,17.3-32,5-45.8c-10-11.2-24.3-14.3-35.9-7.8
	c-7.5,4.3-11.4,11-12.9,19.2c-0.8,4.3,2.8,8.5,7.1,8.2c1.3-0.1,3.2-2,3.7-3.5c2-5.7,5.6-9.6,11.2-11.9c8.3-3.4,15.9-0.8,20.4,6.9
	c3.8,6.5,4.3,15.8-4.3,21.5c-9.8,6.5-15.4,16-16.9,27.7c-0.2,1.6-0.6,3.3-0.9,4.9c-0.1,0.3-0.3,0.6-1,1.6
	c-6.8-3.8-13.8-5.1-21.3-3.1C90.8,370.1,88.9,368,88.2,366.7z M92.9,377.7c6.8-0.6,12.3,0.7,17,4.5c5.1,4.1,5.7,8.3,3,14.1
	c-4.1,8.8-8.2,17.6-12.3,26.5c-0.4,0-0.9,0-1.3,0C103.5,407,98.8,392.5,92.9,377.7z M65.1,412.2c7.9-1.9,24.6,8.1,27.1,16.3
	C83.8,432.9,66.4,422.2,65.1,412.2z M90.3,531.7c2.1-9.6,4.8-19,6.4-28.7c2.4-14.4,3.6-29,6.2-43.4c3.4-18.2,10.7-35.1,21-51
	c-1.1,16.9,1.8,33.1,8.1,48.5c6.1,15,13.6,29.5,20.5,44.3c0.4-0.2,0.8-0.4,1.2-0.5c0,0.2,0,0.3,0,0.5c-3.4,8.1-8.5,9.6-17.5,8.2
	c-15.8-2.6-26.9,5.1-30.2,18.1c-0.4,1.6-0.3,3.3-0.7,4.9c-0.5,2.2-1.5,6.2-2,6.2c-4.3-0.4-8.7-1.3-12.9-2.5
	C90,536.1,90,533.2,90.3,531.7z M185.3,575.7c0.5,8.3,2.7,16.5,4,24.2c-6.5,0.6-15-0.2-22.1,2.4c-7.2,2.7-13.2,8.9-21.1,14.5
	c-6.6-6.9-14-14.6-21.4-22.5c-0.7-0.8-1-3.2-0.7-3.4c1.9-1.1,3.9-2.1,6-2.5c4.7-1,10.1-0.6,14.2-2.7c11.5-6,15-23.5,7.6-35.1
	c-5.6-8.6-13.3-14.3-23.7-15.7c-0.6-0.1-1.2-0.3-1.3-0.4c3.9-4.7,7.6-9.4,11.7-13.9c0.9-1,2.9-1.3,4.4-1.1c2.1,0.2,4.2,1.1,6.3,1.5
	c6.9,1.1,8,0.4,10.8-6.2c0.2-0.6,0.7-1.1,1.4-2c11.8,14,23.3,27.7,35.2,41.8C188.2,559.2,184.8,566.9,185.3,575.7z M113.4,534.2
	c-1-10.4,6.5-16.5,17.1-13.9C125.1,524.7,119.7,529.1,113.4,534.2z M108.9,605.2c-11-17.9-19-36.9-20.1-58.9c1.9,0.1,3.5,0,5,0.4
	c7.1,1.9,13.4,0.7,19.2-4c1.3-1,3.4-1.5,5.1-1.4c11.5,1,19.6,7.3,24.2,17.6c4.7,10.6-2.8,21.7-13.1,20c-2.3-0.4-4.7-1.8-6.4-3.4
	c-2.7-2.6-3.6-5.7,0.5-8.2c0.8-0.5,1.3-1.4,1.8-3.6c-2.1,0.1-4.5-0.3-6.4,0.4c-3.6,1.5-6.3,4.3-5.7,8.5c0.5,3.2,1.7,6.5,3.5,9.2
	c2,3.1,2.2,5.2,0.1,8.4C113.6,594.6,111.6,599.7,108.9,605.2z M126.6,673.9c-0.6,0.7-2.5,0.9-3.5,0.5c-0.6-0.2-1-2-1-3
	c0.3-7.5,4.5-11,14.5-10.3C132.8,666,129.9,670.1,126.6,673.9z M148.1,653.5c-5.3-5.7-10.7-11.2-15.7-17c-4.3-5-8.1-10.5-12.2-15.8
	c-3-3.9-3.4-8.1-1.7-13.8c8.5,6.1,16.4,11.8,24.3,17.6c0.9,0.7,1.7,2.3,1.6,3.4c-1.1,8.1,1.3,15.5,4.3,22.8
	C148.9,651.4,148.9,652.2,148.1,653.5z M159.4,650.1c-5.9-5.5-8.6-12.2-6-21c7.8,8.9,15.5,17.7,23.5,26.7
	C170.2,657.1,164.3,654.9,159.4,650.1z M191,648.3c-6.7,1.9-11-0.5-15.1-5.3c-6.3-7.2-12.9-14.2-19.9-21.9c1-1,2.3-2.6,4-3.7
	c9.6-6.6,20.3-7.9,31.4-6.1c2,0.3,4.4,1.9,5.5,3.6c5.5,8.4,10.7,17.1,16,25.7c0.3,0.5,0.6,1.1,1.4,2.7
	C206.1,644.9,198.4,646.2,191,648.3z M223.6,640.7c-6-8.5-12.1-17-18.6-26.2c9.3,2.6,17.2,4.8,26.1,7.2c-1.7,5.8-3.6,12.1-5.5,18.5
	C225,640.4,224.3,640.5,223.6,640.7z M295.3,672.8c-9.5,1.9-15,7.9-18.1,18.5c-16.1-14.6-31.6-28.5-47-42.5c0.2-0.6,0.4-1.3,0.6-2
	c5.5-1.3,11-2.7,16.5-3.8c6.7-1.4,7.4-2.3,4.7-8.5c-2.8-6.4-6-12.6-9-18.9c-1.3-2.7-3.3-3.6-6.5-3.4c-13.4,1.1-24-5.3-33.7-13.4
	c-5.3-4.4-8.2-19.8-4.8-25.8c1.8-3.2,5.7-5.2,8.9-7.9c36.4,39.8,68.1,83.5,112.5,114.9C311.5,677.1,304.7,671,295.3,672.8z
	 M232.4,639.9c1.9-6.3,3.6-11.8,5.3-17.4c0.6-0.1,1.1-0.3,1.7-0.4c1.6,4.7,3.2,9.3,5,14.3C240.5,637.5,236.8,638.5,232.4,639.9z
	 M325.5,721.5c-7.4-5.6-9-8.8-6.5-11.6c2.1-2.3,8.8-2.1,10.9,0.9C333.9,716.6,326.5,717.3,325.5,721.5z M325,669.6
	c-31.5-24.9-57.7-54.9-84-85.9c3.6,0,6.9,0.2,10.1-0.1c2.9-0.2,5.8-1,8.8-1.5c1.3-0.2,2.8-1,3.8-0.6c12.1,4.4,19-3.8,25-11.4
	c8.8-11.2,3.5-24.6-10.2-28.4c-6.8-1.9-13.8,1.4-17.4,8.2c-0.6,1.1-1.3,2.2-2.5,3.9c-5.5-7.6-12.3-11.7-20.9-8.1
	c-7.7,3.2-12.3,9.5-12,19.7c-6.6-7.1-12.4-13.3-18.2-19.5c-19.6-20.8-37.7-42.8-51.4-67.9c-16.7-30.4-22.2-62.7-11-95.8
	c14.5-42.8,55.6-74.1,105-67.5c20.6,2.8,38.2,12.6,53.3,26.6c6.5,6,12.4,12.5,18.4,19c1.8,2,3,4.6,3.9,6c-8.9-2.5-18-5.5-27.3-7.4
	s-18.7-0.2-27.5,3.1c-26.6,9.8-43.9,29.2-51.9,55.7c-10.4,34.6-4.8,67.3,17.6,96.3c10.3,13.4,24,21.8,40.7,25.3
	c5.9,1.3,11.6,4,17.3,6.1c1.8,0.7,3.6,1.3,5.6,2.1c0,0,0,0.5-0.3,0.8c-7,8.1-7.3,17.9,0.5,25.2c6.7,6.2,14.4,11.2,21.8,16.6
	c0.9,0.7,3.2,0.7,4,0c7-5.6,14.4-10.8,20.3-17.4c5.1-5.6,4.9-12.8,0.9-19.6c-5.5-9.1-15.2-10.1-22.4-2.1c-0.4,0.5-0.9,0.9-1.5,1.4
	c-2.3-1.9-4.2-4.1-6.6-5.5c-2.3-1.4-5.1-2-7.6-3c0.1-0.5,0.2-1,0.2-1.4c4.2,0.9,8.3,1.8,12.5,2.6c2.2,0.4,4.8,1.4,6.6,0.6
	c6.7-2.9,13-1.9,19.4,0.6c2.3,0.9,4.7,1.5,7.4,2.3c-3.3,6.5-3.2,13.5,0.8,19.5c5.4,8.1,13.6,13.1,23,15.8c1.5,0.4,3.6,0.4,4.8-0.4
	c3.7-2.6,7-1,10.7-0.2c5.5,1.1,11.7,2.3,17,1c9.7-2.4,14-9.9,13.2-19.6c-0.7-8.6-8.5-17.1-17-18.8c-8.6-1.8-14.9,1.7-19.2,8.1
	c-5.6-4.5-10.9-8.7-16.2-12.9c0.1,0,1.1-0.7,2.2-0.7c21.4-0.7,37.1-11.8,49.2-28.3c22.8-31.3,22.8-78.2,0.6-112.1
	c-7.9-12-17.8-22-29.8-29.8c-15.3-10-32-12.6-49.7-8.8c-4.4,1-8.5,3.4-12.7,5.1c-0.4-0.4-0.7-0.8-1.1-1.1c2-2.4,3.8-5,5.9-7.3
	c11.8-13.4,24.7-25.4,41.8-31.4c21.7-7.7,43-5.3,62.8,5.9c27.7,15.7,49,37.8,62,67.2c11,24.9,7.8,49.4-2.9,73.6
	c-7.8,17.8-19.6,32.8-32.4,47.1c-12.3,13.8-24.8,27.4-37,41.3c-2,2.2-3.3,5.5-3.7,8.5c-1.2,8.5-6.2,13-13.8,16.1
	c-4.2,1.7-8.2,4.3-11.5,7.5c-23.7,22.7-47.2,45.6-70.7,68.5C329.5,664.5,327.6,666.8,325,669.6z M410.1,657.5
	c-3.7,3.3-7.4,6.7-11.1,10c-6.4,5.8-12.8,13-20.2,17.6c-2.7,1.7-5.6,3.2-8.4,4.8c-2.7-9.3-11.1-16.8-21.9-16.8
	c-1.7,0-3.4-0.1-4.6-0.2c35-35,69.8-69.9,105.4-105.5c2.3,4.2,5.8,8,6.5,12.2c1.2,8.3-0.5,17.8-6.5,22.8c-6,5.1-15.2,7.9-23.3,8.7
	c-5.2,0.6-9.8,6.1-15.6,2.4c-0.2-0.1-1.4,0.9-1.8,1.6c-3.2,7.1-6.5,14.1-9.2,21.4c-1.4,3.9,0.4,6.4,4.9,7.2
	c4.9,0.9,9.7,2.8,15.8,4.6C419.1,648,411.3,656.4,410.1,657.5z M419.9,641.2c-4.7-1.3-9-2.6-13.7-4c2.3-5,4.4-9.9,6.6-14.7
	c0.4,0.1,0.8,0.1,1.2,0.2C415.9,628.7,417.8,634.6,419.9,641.2z M427,642.2c-1.6-4.5-3.1-8-4.1-11.6c-3-10.6-2.9-10.4,8.1-10.9
	c3.9-0.2,7.8-1.4,12.9-2.5C438.3,625.5,433.1,633.2,427,642.2z M453.1,649.4c-4.9-1.8-10-3.1-15.6-4.9c3.3-4.8,6.4-8.6,8.9-12.9
	c2.8-4.5,4.9-9.4,7.6-14c0.9-1.5,2.6-3.4,4.2-3.6c10.9-1.2,21.2,0.1,30.3,7c3.2,2.4,3.3,4.1,0.3,7c-3.8,3.6-7.1,7.9-10.3,12.2
	C472,649,464.2,653.4,453.1,649.4z M491,650c-5.2,5-10.7,9.2-18.6,7.5c11.2-3.8,15.9-14.3,23.5-22.9C497.1,641.3,495.2,646,491,650z
	 M528.9,673.9c0.2,1.2,0.1,3.3-0.5,3.6c-1.1,0.5-2.9,0.4-4.1-0.1c-3.8-1.6-10.6-10-12.2-15C521.2,660.7,527.9,665.4,528.9,673.9z
	 M502.9,648.6c0.4-5.6,0.6-11.6,1.3-17.5c0.2-1.4,1.1-3.3,2.3-4c5.7-3.7,11.5-7,17.3-10.5c0.4,0.3,0.8,0.5,1.1,0.8
	C517.4,627.8,510,638.4,502.9,648.6z M524.2,597.8c-6.5,6.7-13.3,13.1-19.7,19.9c-2.6,2.7-4.2,2.9-6.7,0c-5.8-6.8-12.7-12.3-21.8-14
	c-4-0.8-8.1-0.6-12.3-0.8c7.6-16.2,7.9-36.5-7.2-45.9c11.3-12.8,22.6-25.6,34.4-39.1c2.5,8.6,8.1,7.5,13.8,5.8
	c2.7-0.8,5.2-1.1,6.9,2c3.7,6.7,8.6,11.8,16.6,14c-3.1,0.5-6.2,1-9.3,1.4c-9.9,1.5-19,9.8-21.2,19.4c-2.7,11.6,1,22.5,9.3,28.7
	c4.8,3.6,10.1,4,15.7,3.1c1.4-0.2,2.8-0.5,4.2-0.7c0.3,0.3,0.7,0.7,1,1C526.7,594.4,525.7,596.3,524.2,597.8z M519.6,522.9
	c9.2-2.9,19.2,4.6,20.3,15.1C532.1,537,521.8,529.2,519.6,522.9z M549.9,558.8c-3.3,11-6.7,21.9-10.1,32.8c-0.9,3-1.9,6-3.8,9.1
	c-1-4.7-2.1-9.3-2.8-14c-0.7-4.7-1-9.4-1.5-15c0.1-0.1,1.6-0.7,3-1.4c-5.5-2.4-10.1,0.2-9.5,5.4c0.3,2.6,1.8,6-1.8,6.7
	c-3.1,0.5-7.2,0.3-9.7-1.3c-5.1-3.3-6.5-11.5-4.1-17.2c3.7-8.8,17.6-18,27-16.7c4.6,0.7,9,3.9,13.2,6.5
	C550.7,554.1,550.4,557.1,549.9,558.8z M553.4,535.9c0,1.5-0.1,3.1-0.7,4.4c-0.5,1.1-1.9,1.8-2.8,2.7c-0.7-0.9-1.8-1.7-2.1-2.8
	c-0.7-2.7-0.9-5.6-1.7-8.3c-3.1-10.1-14.4-18.5-25.4-18.7c-4.1-0.1-8.3,0.6-12.4,0.7c-2.3,0-6.3,0.2-6.8-0.9
	c-1.2-2.9-2.1-6.2-0.1-9.9c5.9-10.6,12.1-21.2,16.3-32.4c12.1-31.8,8.6-62.1-9.9-91c-17.1-26.8-39-47.9-67.2-62.5
	c-1-0.5-2-1.2-3-1.8c-0.2-0.1-0.2-0.5-0.3-0.8c21.8,2.5,39.1,13.1,52.2,30.5c4.5,6,9.4,10.8,16.4,14.1c4.9,2.3,9.4,6.3,13,10.5
	c5.1,5.8,5,9.8,0.5,16.2c-1.7,2.5-1.4,4.2-0.4,6.7c7.3,17.5,14.9,34.9,21.4,52.7c8.3,23,10.9,47.3,12.7,71.6
	C553.7,523.3,553.4,529.6,553.4,535.9z M551.6,427.9c-0.6,0.1-1.2,0.2-1.9,0.4c-0.7-1.3-1.4-2.6-2-3.9c-4.2-8.5-8.5-17-12.7-25.5
	c-0.4-0.8-0.9-1.8-0.8-2.7c0.9-7.4,10.5-14.7,19-13.7C547.8,397.4,545.9,412.5,551.6,427.9z M550.1,372.4c-5,0.3-9.9,3.1-15.6,5
	c-2.4-9.7-7-18.5-15.3-24.7c-4.5-3.3-9.5-6.1-14.6-8.2c-3.3-1.4-5.2-3-6-6.5c-1.9-8.4-1.6-16.4,5.4-22.5c10.6-9.4,25.6-5.1,32.3,9.1
	c1.2,2.6,2,5.3,5.8,5.2c3.2-0.2,4.9-1.2,4.9-4.7c0.1-7.1-3.6-12.4-8.1-17.1c-12.1-12.6-31.4-13.6-44-1.8c-4.2,3.9-6.4,9.8-9.5,14.8
	c-14.3-11.4-23.2-27.8-20.4-47.3c1.9,1,3.6,1.8,5.2,2.7c9.4,5.3,19.1,6.4,29.2,2.3c3.5-1.4,5.1-3.3,3.7-7.3
	c-3.9-10.9-10.3-19.3-21.9-22.7c-0.8-0.2-1.5-0.7-2.7-1.2c10.3-21.7,0.3-40.1-9.6-58.5c0.4-0.4,0.7-0.8,1.1-1.1
	c4.7,3.1,9.4,6,14.1,9.2c34.9,23.9,55,58.2,67.3,97.6c7.3,23.2,10.2,46.8,5.9,71C556.4,369.9,555.2,372.1,550.1,372.4z M583.2,421
	c3.2,0.8,2.3,2.5,1.2,4.5c-3.9,6.9-14.7,11.1-23.6,9.2c-1.4-0.3-2.7-0.8-4.6-1.4C561,424.5,574.3,418.8,583.2,421z"/>
<g>
	<circle fill="#FEF2DA" cx="837.3" cy="259.3" r="4.5"/>
	<g>
		<path opacity="0.6" fill="#ED1C24" d="M840.1,251c-1.3,0-2.6,0.2-3.9,0.6c0,0,0,0,0,0c-0.2-0.1-0.3-0.2-0.5-0.3
			c-0.1-0.1-0.2-0.1-0.3-0.2c0,0,0,0,0,0c-0.3-0.3-0.6-0.5-0.9-0.8c-0.1-0.1-0.2-0.2-0.2-0.3c0,0,0-0.1-0.1-0.1c0,0-0.1-0.1-0.1-0.2
			c-0.1-0.1-0.1-0.2-0.2-0.3c-0.2-0.3-0.4-0.7-0.6-1.1c0,0,0-0.1,0-0.1c0-0.1-0.1-0.2-0.1-0.3c-0.1-0.2-0.1-0.4-0.2-0.6
			c-0.1-0.2-0.1-0.4-0.1-0.6c0-0.1-0.1-0.2,0-0.3c0,0,0,0,0,0c0,0,0-0.1,0-0.1c0-0.4,0-0.9,0-1.3c0.1-0.8-0.7-1.5-1.5-1.5
			c-0.9,0-1.4,0.7-1.5,1.5c-0.2,2.9,1.1,5.8,3.2,7.7c-1,0.6-2,1.3-2.8,2.1c-1.9-2.3-3.8-4.7-5.6-7c-0.5-0.6-1.6-0.5-2.1,0
			c-0.6,0.7-0.5,1.5,0,2.1c1.9,2.4,3.9,4.8,5.8,7.2c-0.2,0.3-0.4,0.7-0.6,1.1c-2.6-0.8-5.2-1.9-7.3-3.6c-0.6-0.5-1.5-0.6-2.1,0
			c-0.5,0.5-0.6,1.6,0,2.1c2.4,2.1,5.3,3.3,8.3,4.3c-0.4,1.2-0.6,2.6-0.6,3.9c0,7.8,6.3,14.1,14.1,14.1c7.8,0,14.1-6.3,14.1-14.1
			C854.2,257.3,847.9,251,840.1,251z M837.5,263.8c-2.5,0-4.5-2-4.5-4.5c0-2.5,2-4.5,4.5-4.5c2.5,0,4.5,2,4.5,4.5
			C842,261.8,840,263.8,837.5,263.8z"/>
		<path opacity="0.6" fill="#ED1C24" d="M835.3,286.6c1.8,0.1,3.8,0.8,4.4,2.5c0.5,1.5-0.2,3.1-1.4,4.1c-1.2,1-2.7,1.5-4.2,2
			c-0.6,0.2-1.2,0.4-1.8,0.4c-3.1,0.3-8.4-2.4-5.9-5.7C828.2,287.5,832.4,286.4,835.3,286.6z"/>
		<path opacity="0.6" fill="#ED1C24" d="M817.2,282.5c2.6,1.9,3.4,5.9,1.7,8.6c-1.8,2.9-5.6,3.8-9.1,4.2c-1.3,0.1-2.5,0.2-3.8,0.1
			c-4.7-0.4-10.7-6.1-6.7-10.7C802.6,281,813.1,279.7,817.2,282.5z"/>
	</g>
	<path opacity="0.6" fill="#ED1C24" d="M926,265.1c0,7.8,6.3,14.1,14.1,14.1c7.8,0,14.1-6.3,14.1-14.1c0-1.4-0.2-2.7-0.6-3.9
		c3-1,5.9-2.2,8.3-4.3c0.6-0.5,0.5-1.6,0-2.1c-0.6-0.6-1.5-0.5-2.1,0c-2.1,1.8-4.7,2.8-7.3,3.6c-0.2-0.4-0.4-0.7-0.6-1.1
		c2-2.4,3.9-4.8,5.8-7.2c0.5-0.7,0.6-1.5,0-2.1c-0.5-0.5-1.6-0.6-2.1,0c-1.8,2.4-3.7,4.7-5.6,7c-0.8-0.8-1.8-1.5-2.8-2.1
		c2.2-1.9,3.5-4.8,3.2-7.7c-0.1-0.8-0.6-1.5-1.5-1.5c-0.8,0-1.6,0.7-1.5,1.5c0,0.4,0,0.9,0,1.3c0,0,0,0,0,0.1c0,0,0,0,0,0
		c0,0.1,0,0.2,0,0.3c0,0.2-0.1,0.4-0.1,0.6c-0.1,0.2-0.1,0.4-0.2,0.6c0,0.1-0.1,0.2-0.1,0.3c0,0,0,0,0,0.1c-0.2,0.4-0.4,0.7-0.6,1.1
		c-0.1,0.1-0.1,0.2-0.2,0.3c0,0-0.1,0.1-0.1,0.2c0,0-0.1,0.1-0.1,0.1c-0.1,0.1-0.2,0.2-0.2,0.3c-0.3,0.3-0.6,0.6-0.9,0.8
		c0,0,0,0,0,0c-0.1,0.1-0.2,0.1-0.3,0.2c-0.2,0.1-0.3,0.2-0.5,0.3c0,0,0,0,0,0c-1.2-0.4-2.5-0.6-3.9-0.6
		C932.4,251,926,257.3,926,265.1z M938.3,259.3c0-2.5,2-4.5,4.5-4.5c2.5,0,4.5,2,4.5,4.5c0,2.5-2,4.5-4.5,4.5
		C940.3,263.8,938.3,261.8,938.3,259.3z"/>
	<path opacity="0.6" fill="#ED1C24" d="M938.1,288.3c-1.8,0.2-3.7,1.1-4.2,2.8c-0.4,1.5,0.4,3.1,1.7,4.1c1.2,0.9,2.8,1.3,4.3,1.7
		c0.6,0.1,1.2,0.3,1.8,0.3c3.1,0.1,8.2-3,5.5-6.1C945.2,288.8,941,288,938.1,288.3z"/>
	<path opacity="0.6" fill="#ED1C24" d="M956,283.2c-2.5,2-3,6.1-1.1,8.7c2,2.8,5.9,3.5,9.3,3.6c1.3,0.1,2.5,0.1,3.8-0.1
		c4.6-0.7,10.3-6.8,6-11.1C970.4,280.7,959.8,280.1,956,283.2z"/>
	<path fill="#ED1C24" d="M911.3,287.5c-2.1,4-6.3,6.8-10.8,7.1c-4,0.3-7.9-1.4-10.6-4.3c0.9-1.3,1.5-2.8,1.8-4.5
		c0.4-2.4-0.5-5.6-3.2-6.1c-3.4-0.6-5,3.2-4.4,6c0.3,1.6,1,3.2,2,4.6c-1.8,1.8-4.2,3-6.7,3.3c-5.3,0.7-10.3-2.7-12.8-7.2
		c-0.9-1.7-3.5-0.2-2.6,1.5c3,5.4,9.1,9.3,15.4,8.7c3.1-0.3,6.2-1.8,8.6-4c2.3,2.4,5.4,4.1,8.5,4.7c6.9,1.4,14.1-2.2,17.4-8.3
		C914.8,287.3,912.2,285.8,911.3,287.5z"/>
</g>
<path opacity="0.58" fill="#ED1C24" d="M1151.6,613.8c0,25.8-41.7,42.2-76.7,51.5c-47.4,12.6-110.5,19.5-177.4,19.5
	c-67,0-130-6.9-177.4-19.5c-35-9.3-76.7-25.7-76.7-51.5c0-25.8,41.7-42.2,76.7-51.5c47.5-12.6,110.5-19.5,177.4-19.5
	c67,0,130,6.9,177.4,19.5C1109.9,571.6,1151.6,588,1151.6,613.8z"/>
<path opacity="0.58" fill="#ED1C24" d="M902.5,384.1c-137.6,0-249.1,29.5-249.1,66s111.5,66,249.1,66s249.1-29.5,249.1-66
	S1040.1,384.1,902.5,384.1z M755.2,452.6h-24.4v-14.8h24.4V452.6z M1067.1,452.6h-24.4v-14.8h24.4V452.6z"/>
</svg>
