<?xml version="1.0" encoding="utf-8"?>
<!-- Generator: Adobe Illustrator 27.3.1, SVG Export Plug-In . SVG Version: 6.00 Build 0)  -->
<svg version="1.1" id="Layer_1" xmlns="http://www.w3.org/2000/svg" xmlns:xlink="http://www.w3.org/1999/xlink" x="0px" y="0px"
	 viewBox="0 0 1200 800" enable-background="new 0 0 1200 800" xml:space="preserve">
<path opacity="0.43" fill="#FFDE17" d="M482.7,625.7c-0.3-0.7-0.5-1.5-0.8-2.2C482.2,624.3,482.5,625,482.7,625.7L482.7,625.7z"/>
<g>
	<path fill="#C49A6C" d="M345.6,342.9c-4.8-2.7-9.7-2.4-14.2,0.6c-2.5,1.7-4.1,1.9-6.6,0.2c-4.9-3.3-10.1-3.4-15.3-0.5
		c-6.2,3.5-8.3,12-4.8,20.1c4.3,10.1,12.7,16.5,20.7,23.2c0.7,0.6,2.9,0.3,3.7-0.4c5.2-4.5,10.5-8.8,15.2-13.8
		c4.4-4.7,7.9-10.2,7.8-17.6C352.4,349.6,350.2,345.4,345.6,342.9z"/>
	<path fill="#C49A6C" d="M387.9,239.9c-1,0.4-2.2,0-3.4,0c-2,0-4.8-0.7-5.7,0.3c-1.3,1.5-2.1,4.7-1.3,6.3c1.5,2.9,4.3,5.3,6.7,7.7
		c0.5,0.5,1.4,0.9,2.1,0.8c2.9-0.2,9.8-7.8,9.8-10.8C396.2,240.2,392.2,238.2,387.9,239.9z"/>
	<path fill="#C49A6C" d="M653.4,379.4c0.3,0.1,0.9,0,1.1-0.3c3.4-4.7,8.8-8.1,9.1-14.7c0.2-5.6-5.1-9.2-9.8-6.3
		c-2.9,1.8-5.2,3.2-7.8,1.7c-6.5-0.1-9.6,4.5-7.2,9.7C641.7,375.7,647.9,377.1,653.4,379.4z"/>
	<path fill="#C49A6C" d="M237.3,471.1c-3.5,0.9-6.4,1.6-10,2.5C233.1,476.2,235.6,475.6,237.3,471.1z"/>
	<path fill="#C49A6C" d="M776.8,512.4c-3.5-0.8-7.3-0.1-10-0.1c0.6-1.1,2.1-2.9,2.7-5c0.4-1.7-0.5-3.7-0.5-5.6
		c-0.1-2.8,0-5.6,0.1-8.5c0.9-26.1,2-52.4,3-78.7c0.5-12.1,0.9-24.2,1.3-36.2c1.6-50,3.3-99.9,4.8-149.9c0.9-30.3,1.7-60.6,2.6-90.9
		c0.3-10.1,0.7-20.2,1.1-30.3c0.7-20.3,1.4-40.7,2-61c0.2-7.6-4.5-12-12.1-12.1c-11.6,0-23.2-0.1-34.8-0.1
		C663.1,34,589.2,34,515.4,34h-4.5c-0.3-1.6-0.4-2.8-0.6-3.9c-0.8-4.5-2.1-9-7.1-10.4c-4.7-1.2-8.3,1.4-11.4,4.6
		c-1.8,1.9-3.6,3.9-5.7,6.2c-0.8-2.1-1.4-3.8-2.1-5.5c-0.8-1.9-1.5-3.8-2.5-5.5c-3.2-5.4-6.2-5.6-9.6-0.4c-2.3,3.5-3.9,7.5-5.9,11.6
		c-0.9-1.1-1.8-2.2-2.8-3.2c-2-2-3.8-4.3-6.1-5.9c-6.7-4.6-13.6-1.4-14.9,6.6c-0.3,1.8-0.7,3.6-1.1,5.4c-1.7,0.1-3,0.2-4.4,0.2
		c-46,0-91.9,0-137.9-0.1c-38.8,0-77.6-0.1-116.4,0c-8.2,0-11.7,3.7-11.7,11.9c0,4.2,0.3,8.4,0.4,12.5c0.9,40.4,1.7,80.8,2.5,121.3
		c1.1,56.7,2.3,113.4,3.3,170.2c0.6,35.6,0.9,71.2,1.4,106.7c0,3.4,1.2,7.5-0.3,9.9c-1.6,2.4-6,2.8-9,4.6c-1.4,0.8-3,2.5-3.1,3.9
		c-0.3,5.9-0.3,11.9,0.1,17.8c0.1,1.7,1.3,4.2,2.7,4.8c2.4,1.1,2.7,2.5,2.8,4.7c0.2,16.4,0.5,32.9,0.5,49.3c0,6-0.6,12-0.9,18
		c0,0.3,0,0.7,0.2,1c0.2,0.2,0.4,0.3,0.6,0.4c2.1,0.8,4.2,1.3,6.4,1.6v8.6H204v-7.1c3.8,0.1,7.5,0.2,11.3,0.2
		c7.2,0,14.5-0.4,21.7,0.2c2.9,0.3,5.6-0.3,8.6-0.3c3.8,0,7.6,0,11.3-0.1c27.7-0.7,55.5-5.9,82.8-1.7c4.1,0.6,8.2,1.5,12.4,1.4
		c5.6,0,11.1-1.7,16.2-3.9c2.6-1.1,5.2-2.3,7.7-3.6c1.6-0.8,1.5-1,1.8-2.7c0.2-1.3,0.4-2.6,0.7-3.9c0.2-0.9,0.4-1.7,0.4-2.6
		c0-1.1-0.2-2.1-0.2-3.2c0-0.3,0-0.6-0.1-0.9c0-0.2-0.1-0.4,0-0.5c-0.5-2.6,0.2-6.4,0.2-9.4c-0.1-8.2-0.1-16.4,0.1-24.7
		c0.1-3-1-4.5-3.7-5.3c-2.8-0.9-5.6-1.9-8.4-3c0-0.3,0-0.8,0.1-1.1c1.3-2.2,3.2-5,0.5-6.8c-1.9-1.3-5.3-1.9-7.4-1.1
		c-2.9,1.1-5.3,3.8-7.8,5.9c-0.9,0.7-1.4,1.8-2.4,3.1c-1.2-1.9-2.3-3.5-3.2-5c-2.1-3.6-5-6-9.3-6.1c-2.5,0-3.3-1.4-2.9-3.7
		c0.1-0.9,0.2-1.9,0.1-2.8c-1.2-6.9,1.2-11.4,8.4-13c2.4-0.5,3.5-2.3,3.4-4.8c-0.2-5.7-0.4-11.3-0.4-17c0-2.8-1.4-3.7-3.8-2.9
		c-6.8,2.3-13.5,4.6-20.1,7.2c-0.9,0.4-1.8,2.2-1.8,3.4c0,5.4,0.3,10.8,0.5,16.2c0,1.6-0.1,3.3-0.2,4.9c-0.4,0-0.8,0-1.2,0
		c-0.2-3.3-0.3-6.7-0.5-10c-0.1-1.1-0.2-2.2-0.2-3.2c-0.7-10.5-3.4-13.3-14.1-13.9c-4.5-0.3-9.1,0-14.5,0c8-2.7,18.7-2.6,25.5-0.4
		c2.1,0.7,4.7,0.5,6.9,0c3.8-1,7.5-2.7,11.2-4.8c-3.8-0.9-7.6-1.7-12.3-2.8c1.4-1.5,2.3-2.4,3.1-3.3c5.3-5.9,7.9-12.6,5-20.4
		c-2.8-7.6-8.9-11.1-16.8-11.9c-13.4-1.4-23.2,5.4-32.2,13.9c-3.3,3.1-6.1,6.8-9,10.4c-4,5-8.3,5.6-13.2,1.3
		c-4.7-4.1-9-8.5-13.8-12.5c-9.7-8.1-20.7-11.8-33.4-8.4c-0.4,0.1-0.8,0-1.2,0c-0.1,0-0.2-0.1-0.4-0.2v-12.3c0.2,0,0.4,0,0.6,0
		c0.5,3.2,1,6.5,1.4,9.7c0.5,0.1,1,0.2,1.5,0.3c0.4-1.4,1.5-3,1.2-4.3c-1.8-10.2-3.7-20.3-5.8-30.5c-0.6-2.8-1.6-5.6-2.4-8.4
		c0.3-0.2,0.6-0.4,0.9-0.6c0.8,1,1.7,2,2.3,3.1c6,11.2,10,23.2,12.4,35.7c0.4,2.2,1.1,3,3.4,3.6c5.1,1.1,10,2.8,15.3,4.3
		c-2.7-19.9-10-38.1-20.9-55.4c1.3-0.7,2.3-1.4,3.3-1.7c37.2-11.5,64.5-35.7,86.7-66.7c15.8-22.1,28.2-45.8,35.8-71.9
		c1-3.5,2.5-5.9,5.9-7.4c2.8-1.3,5.3-3.1,7.9-4.9c2.4-1.7,4.7-3.5,7.8-5.8v76.9c-3.6,0-7.4-0.7-10.9,0.1c-6.6,1.6-10.1,8.2-8.3,14.8
		c0.7,2.6,1.6,5.3,3.2,7.3c5.4,6.9,11.1,13.4,16.9,20.4c8.1-6.6,15.6-12.9,20.4-21.7c2.7-4.9,3.8-10.2,0.6-15.3
		c-3.2-5.1-8.1-6.3-13.7-5.5c-0.6,0.1-1.3,0-2.5,0c0-19,0-37.4,0-55.9c0-8,0-15.9,0-23.9c0-1.3,0-2.9,0.7-3.8
		c2.9-4.1,6.1-8.1,9.6-12.7c0.4,1.9,0.7,3.3,0.9,4.8c1.9,12.6,9,22.3,18.7,29.7c6.4,5,8.6,10.5,8.5,18.4
		c-0.3,25.7,0.2,51.5,0.4,77.2c0,1.3-0.2,2.6-0.3,4.4c-2.6-0.4-5-1.3-7.3-1.1c-4,0.3-8.2,0.4-11.7,1.9c-8.2,3.4-9.6,12.6-3.2,18.8
		c1.1,1.1,2.4,2,4.2,3.5c-19.4,12.6-29.7,29.8-23.6,52.8c6.1,22.6,23.6,32.9,46.4,35.7c-4.1,2.5-7.5,4.8-11,6.6
		c-1,0.5-2.6,0.1-3.9,0c-9.7-1.2-19.4-2.4-29.1-3.5c-1.3-0.1-2.9-0.1-3.9,0.5c-1.9,1-4.6,2.3-4.9,3.9c-0.4,2.1,0.6,5.2,2.1,6.7
		c2.3,2.3,3.4,4.3,4.1,7.6c1.4,5.9,6.8,8.4,12.2,9.9c2.6,0.8,5.3,0.9,7.4,3.3c0.9,1.1,3.5,0.9,5.3,0.9c1.9,0,3.9-0.3,6.1-0.5
		c-2.6,6-5.2,11.4-7.4,16.9c-1,2.3-1.3,4.9-2,7.4c-1,3.5,0.4,5.5,3.8,6.8c1.1,0.4,2.4,1.9,2.5,3c0.8,17.2,4.4,33.9,8.8,50.4
		c0.1,0.2,0.1,0.4,0,0.8c0.2,0.3,0.2,0.6,0.2,0.9c2.2,4.3,3.5,10.1,9.1,10.6c2.3,0.2,4.5-0.4,6.7-1c0.7-0.2,1.4-0.4,1.9-0.9
		c1-0.9,1-2.4,0.9-3.8c-0.1-2-0.2-4.1-0.3-6.1c0.5,0,0.9,0,1.4,0c0.1,2.4-0.2,4.9,0.2,7.3c0.4,2.4,1.7,4.8,4,5.7
		c1,0.4,2.1,0.4,3.2,0.4c1.4-0.1,2.7-0.3,3.9-0.9c4-2,4.7-7.5,6.7-11h-0.1c2.1-8.1,4.3-15.6,5.8-23.2c1.8-9.1,3.2-18.2,4.6-27.4
		c0.3-2.3,0.7-4.2,3.3-4.8c2.8-0.7,3.6-2.5,2.6-5.2c-2.8-7.8-5.5-15.6-8.1-23.1c8,2.4,16.2,11.1,26.7,2.9c4.3,5.5,10.1,4.1,15.6,2.3
		c4.4-1.5,8.4-4.2,12.5-6.4c1.2-0.7,2.3-1.5,3.5-2.3c0.5,0.5,1,1.1,1.5,1.6c-1.2,0.6-2.6,1-3.6,1.8c-9.7,8.8-17.2,19.2-22.3,31.3
		c-0.6,1.4-1.2,2.7-2,4c-1.6,2.8-2.2,5.6-0.2,8.3c2,2.7,4.9,3.1,8,2.6c0.9-0.2,1.8-0.4,2.6-0.6c3.2,8.3,6.7,9.8,15.4,6.3
		c1.7,10.3,3.5,20.5,5.3,31.1c0.2,0.7,0.4,1.4,0.5,2.1c0.2,0.7,0.3,1.3,0.5,2c1.2,3.5,2,6.7,6.1,7.9c3,0.9,6.3,0,8.8-2
		c0.6-0.5,1.1-1,1.4-1.7c0.3-0.7,0.3-1.6,0.3-2.4c-0.1-2.3-0.2-4.5-0.3-6.8c0.3,0,0.7-0.1,1-0.1c1,2.8-0.1,6.1,1.3,8.7
		c0.8,1.5,2.4,2.5,3.9,3.3c1.7,0.8,3.6,1.3,5.4,0.9c2.5-0.4,4.5-2.4,5.6-4.6c2.8-5.3,3.2-11.8,3.9-17.7c0.2-1.7,1.9-19.9,2.4-19.9
		c1.2-0.1,2.9,0.2,4.3-0.3c2.3-1,5.1-2.1,6.5-3.9c1.4-1.8,2.3-2.2,4.5-1.9c3.4,0.5,6.7-0.3,9-3.4c1.8-2.5,2.1-4.8-0.5-7.1
		c-1.2-1.1-2.2-2.7-2.7-4.3c-4.1-12.4-11.5-22.8-19.9-32.5c-0.4-0.5-0.7-1-1.7-2.6c3.1,1.4,5.1,3.1,7.1,3c7.4-0.2,15.6,0.3,20.6-6.4
		c3-4,5.3-8.5,9.2-11.8c0.7-0.6,0.5-3.8-0.4-4.5c-1.7-1.5-4.1-3-6.2-3.1c-9.5-0.2-19.1,0.3-28.6,0.3c-2.4,0-5-0.6-7-1.8
		c-2.6-1.5-4.6-3.9-8-6.8c10-0.5,18.5-2,26.3-6c7.8-4,13.6-10.3,19.3-18.3c0.4,3.2,0.7,5.2,1,7.3c1.7,12.5,13,22.4,24.7,21.6
		c8.4-0.5,13.4-5.5,13.1-12.2c-1.8,1.3-3.8,3.8-6.2,4.4c-4.2,0.9-8.6-3.4-8.4-8.7c0.2-5.6,1.1-11.2,2.7-16.5
		c2.3-7.7,5.5-15.2,4.7-23.5c-1.4-13.4-12.5-26.5-29.7-19.6c-0.4,0.1-0.8,0.2-1.4,0.3c-5.7-9.1-12.9-17-23.3-20.2
		c-7.7-2.3-8.3-6.5-8.2-13.2c0.6-32.5,0.8-65,0.9-97.4c0-5.4,1.2-9.7,5.3-13.6c7-6.6,12-14.8,15.3-24.6c3.9,3.7,7,7.4,10.7,10
		c3.9,2.7,4.7,5.8,4.6,10.2c-0.4,13.7-0.5,27.5-0.7,41.2c0,0.9-0.2,1.8-0.3,3c-5.6-1.6-10.9-1.4-15.4,2.3
		c-5.4,4.4-7.2,12.2-4.1,20.4c4.2,10.9,12.5,18.2,22.3,24.6c6.5-6.8,13-13,18.8-19.9c4.1-4.9,7-10.6,5.2-17.5
		c-2.3-8.7-9.4-12.6-18-10.1c-0.9,0.3-1.8,0.4-2.7,0.6V215c4.7,2.5,8.7,4.4,12.6,6.7c0.8,0.5,1.1,2.1,1.4,3.2
		c13.2,46.2,37.5,85.3,74.4,116.2c11.9,10,25.7,17.2,40.4,22.5c1.4,0.5,2.7,1.1,4.4,1.8c-9.9,14-17.2,28.8-20.4,45
		c4.7,0,9.1,0.2,13.5-0.1c0.9-0.1,2-1.7,2.5-2.9c4.7-10.7,9.2-21.4,13.9-32.1c0.7-1.6,2.1-2.9,3.9-5.3c-5.1,15.8-9.8,30.3-14.5,45.2
		c-7-3.1-14.3-2.7-20.7,1.9c-5.9,4.3-11.2,9.5-17.2,14.7c-0.7-1.3-1.5-3-2.5-4.5c-2.8-4.2-5.2-8.9-8.7-12.5
		c-14.1-14.7-30.7-3.6-34.9,8.3c-3,8.5-0.5,16.8,6,20.7c2.8,1.7,5.3,1.7,8.4,0.8c5-1.5,10.1-2.4,15.3-3.3c1.3-0.2,2.7,0.3,4.1,1.4
		c-5.5,1.1-11.1,1.9-16.6,3.4c-5.4,1.5-10.6,3.7-15.8,5.5c0,0.5,0,0.9,0.1,1.4c2.8,0.8,5.6,1.7,8.4,2.5c0.1,0.4,0.2,0.9,0.2,1.3
		c-1.8,0.4-3.7,1.4-5.5,1.2c-2.4-0.2-4.6-1.3-6.9-2.1c-4.4-1.4-8.7-3-13.2-4.3c-2.9-0.9-4.6,0.3-4.6,3.6c0,6.7,0.1,13.5-0.2,20.2
		c-0.1,3,1.6,4.4,3.8,5c4,1.1,4.3,3.8,3.9,7.2c-0.2,2-0.3,4-0.5,5.5c-3.9,1.6-7.9,2.5-10.8,4.8c-2.8,2.2-4.4,5.9-7,9.6
		c-1.5-2.1-2.6-4.2-4.3-5.7c-2.1-1.9-4.3-4.2-6.9-5c-4.5-1.3-6.6,1.4-5.5,5.9c0.2,0.8,0.5,1.5,0.9,2.4c-3,1.1-6.9,1-6.5,5.7
		c0,0.4-1.8,1-3.6,1.9c0,6.7-0.3,13.9,0.1,21.1c0.3,6.3,1.7,12.6,1.9,18.9c0,2.6,0,4.8,0.5,7.5c0.1,0.8,1.4,8.8,1.8,8.8
		c10.2,0.1,20.7,2.6,30.7-0.9c2.4-0.8,4.7-2,7.2-2.6c2.8-0.6,5.7-0.3,8.5,0.1c2.4,0.4,4.7,0.5,7,1c5,1.1,9.8,3.1,14.2,5.8
		c2.4,1.5,4.8,3,7.6,2.7c2.8-0.2,5.6-1,8.4-1.6c6-1.3,11.9-2.8,17.8-4.5c2.5-0.8,5.1-1.6,7.7-2.2c4.2-1,8.5-1,12.7-1.7
		c3.9-0.7,7.6-0.2,11.4-1.8c0.9-0.4,1.8-0.8,2.7-0.7c1,1.8,2.2,3.6,3.4,5.3c0.8,1.1,2.5,4.1,3.9,4.4c1.4,0.3,4.7-1.6,6.1-2
		c1.2-0.4,2.5-0.9,3.7-1.4v11.9h25.8v-23.4c0.1-0.1,0.1-0.1,0.1-0.2c0.6-2.5,1.8-4.7,3.6-6.9c3.8-4.8,7.6-9.9,10-15.5
		C791.1,525.2,786.2,514.6,776.8,512.4z M323,544.4c-0.8,1.3-3.1,1.7-4.8,2.6c-0.3-0.4-0.5-0.7-0.8-1.1c1.6-2.6,3.2-5.2,4.8-7.9
		c0.5,0.1,0.9,0.2,1.4,0.3C323.5,540.4,324,542.8,323,544.4z M313.3,524.9c1.4-7.4,2.7-8.5,10-8.6c0.1,3.2,0.7,6.4-3.8,8.1
		c-0.3-1.8-0.6-3.4-1.1-6.5C316.3,520.9,314.8,522.9,313.3,524.9z M314.7,540.7c-2.3-3.7-2.6-7.1-1.4-11
		C317.3,532.7,317.8,536.8,314.7,540.7z M323,527c0,1.9-0.2,3.9-0.9,5.6c-0.4,0.9-2.1,1.3-3.7,2.2c0-2.3-0.3-3.7,0.1-4.9
		c0.5-1.5,1.7-2.8,2.5-4.2C321.7,526.1,323,526.6,323,527z M322.9,507.1c1.3-1.4,2.3-2.3,3.2-3.3c0.9,1.1,2.9,2.4,2.7,3.1
		c-0.4,1.5-1.9,2.8-3,4.1C325,509.9,324.1,508.8,322.9,507.1z M347.5,553.9c0,3.9,0,7.7,0,11.5c-6.5,1-7.5,0.1-7.5-5.6
		c0-4.5,0-9.1,0-13.9C347.5,546.8,347.5,546.8,347.5,553.9z M361.5,562.5c-0.5,4.6-5.2,2.9-8.6,4.3c0-6.3-0.6-12,0.2-17.5
		c0.6-4.1,5.1-3.1,8.6-4.2C361.6,551.3,362.1,557,361.5,562.5z M361.8,538.4c0,0.9-1.5,2.1-2.5,2.5c-2.1,0.7-4.4,0.8-6.8,1.2
		c0-6.1-0.2-11.7,0.1-17.3c0.1-1,1.9-2.3,3.1-2.9c1.8-0.8,3.8-1.1,6.2-1.7C362,526.7,362.1,532.5,361.8,538.4z M374,559.9
		c-0.2,3.4-3.6,2.7-5.8,2.7c-0.8,0-2.1-1.9-2.2-3.1c-0.3-3.2-0.2-6.4-0.2-9.6c0-6.3,1.1-7.3,8.3-6.3
		C374.2,549,374.4,554.5,374,559.9z M374.7,517.5c0,6.4,0.2,12.2-0.2,18.1c-0.1,1-2.2,2.2-3.6,2.7c-1.3,0.5-2.9,0.2-4.9,0.3
		c0-5.9-0.1-11.5,0.1-17.1c0-0.9,1.5-2.1,2.5-2.5C370.2,518.3,372,518.1,374.7,517.5z M367.6,513.9c0,0.4,0,0.9,0,1.3h-8.4
		c0-0.6,0.1-1.2,0.1-1.8C362.1,513.6,364.9,513.7,367.6,513.9z M362.3,503.6c0.6-0.3,1.9,0.5,2.9,0.8c-0.4,0.9-0.6,2.1-1.3,2.5
		c-2.5,1.5-5.2,2.7-7.8,4c-0.4-0.7-0.9-1.5-1.3-2.2C357.3,507,359.7,505.1,362.3,503.6z M346.6,517.1h7.9c0,0.4,0,0.8,0,1.2h-7.9
		C346.6,517.8,346.6,517.4,346.6,517.1z M347.6,527.9c0,4.5,0,9.1,0,13.6c-7.4,0.2-8.2-0.5-8.2-7.1c0-4.4,0-8.8,0-13.5
		C347,521.1,347.5,521.6,347.6,527.9z M335.6,502.1c5.3,0.1,8.9,3,9.3,7.5C339,509.6,334.8,506.2,335.6,502.1z M335.3,546.6
		c0.1,5.5,0,10.9,0,16.6c-6.7-0.3-6.7-0.3-6.9-5.7c-0.1-3.5-0.3-7-0.1-10.5c0.1-1.1,1.3-3,2.2-3.1
		C332.4,543.7,335.2,543.3,335.3,546.6z M335,519.9v18.5c-7.1,0.7-7.1,0.7-7.1-5.5c0-4.5,0-9.1,0-14.2
		C330.7,519.1,332.7,519.5,335,519.9z M325.8,492.9c0.4-0.4,0.8-0.8,1.3-1.2c0.2-0.2,0.5-0.4,0.7-0.6c2,3.6,1.6,4-1.8,5.7
		c-0.6,0.3-1.2,0.8-1.7,1.3c-1.1,1.1-2,2.5-3.1,3.6c0,0,0,0,0,0c0.7-0.8,1.4-1.6,2-2.4c-0.7,0.8-1.3,1.7-2,2.4c0,0,0,0,0,0
		C320.1,498.5,320,498.2,325.8,492.9z M321.8,504.2c-0.5,1.9-1,3.4-1.4,5c-1.7-0.5-3.4-1-6.1-1.9v7.2c-0.5-0.1-1.1-0.1-1.6-0.2v-9
		C315.6,505,318.1,504.6,321.8,504.2z M312.1,469.4c0.2,0,0.3-0.1,0.5-0.1c0.1,1.3,0.3,2.6,0.3,3.8c0.2,6.2,0.3,12.4,0.5,18.5
		c0.1,3.9-0.6,8.4,5.6,9.1c-0.2,0.3-0.5,0.7-0.7,1c-1.9,0.3-3.8,0.6-6.2,1V469.4z M324.3,556.4c-1.2,4.1-8,7.9-15.6,8.4
		C313.8,562.1,318.9,559.4,324.3,556.4z M491.5,516.2c-0.9,0-1.9,0.2-2.8,0c-0.7-0.1-1.4-0.6-2-1.1c-0.5-0.5-0.8-1.2-1.1-1.8
		c-0.5-0.4-0.9-0.9-1.1-1.6c-0.1-0.3,0.1-0.4,0.3-0.5c0-0.4,0.6-0.6,0.7-0.2c0,0,0,0.1,0,0.1c0.2,0,0.3,0,0.4,0.2
		c0.6,1.3,1.9,2.2,3.3,2.6c0.1,0,0.2,0.2,0.3,0.3c0.8,0.3,1.7,0.7,2.3,1.3C492.1,515.8,491.9,516.2,491.5,516.2z M508.6,521.6
		c-2.3,0.8-5,2.8-7.5,1.7c-1.9-0.8-2.7-2.9-3.8-4.5c-0.3-0.4,0.4-0.8,0.7-0.4c0,0,0,0,0,0c0,0,0.1,0,0.1,0.1c1.1,0.8,1.9,1.8,3,2.5
		c0.5,0.3,1,0.6,1.5,0.6c0.1,0,0.2,0,0.4,0c0.1,0,0.2,0,0.4,0c1.2-0.5,2.5-0.9,3.8-0.7c0.1,0,0.1,0.1,0.2,0.1c0.3-0.1,0.7-0.1,1-0.2
		C508.9,520.7,509.1,521.4,508.6,521.6z M568,516.6C568,516.5,568,516.5,568,516.6c0-0.3,0.2-0.5,0.5-0.5c1.6,0.2,3.4-0.7,4.8-1.5
		c1.4-0.8,2.9-1.9,3.9-3.1c0.2-0.2,0.6-0.1,0.7,0.2c0.1,1,0.1,2.1-0.4,3c-0.8,1.4-2.5,2-4,2.3c-1.5,0.3-3,0.3-4.5,0.4c0,0,0,0,0,0
		c0,0-0.1,0.1-0.1,0.1c-0.1,0-0.1,0-0.2,0c-0.1,0-0.1,0-0.2,0c0,0,0,0-0.1,0c-0.1,0-0.1,0-0.2-0.1c-0.1-0.1-0.2-0.1-0.3-0.2
		c-0.1,0-0.2-0.1-0.2-0.2C567.9,516.8,567.9,516.6,568,516.6z M554.6,521.7c1.7,0.3,3.4-0.5,4.8-1.4c1.4-0.9,2.7-2,4.1-2.9
		c0.2-0.1,0.5,0,0.6,0.2c0.6,1.8-1.2,3.9-2.7,4.7c-0.9,0.5-2,0.6-3,0.7c-1.2,0.1-2.5,0.1-3.7-0.2c-0.2-0.1-0.3-0.2-0.3-0.4
		c0,0-0.1,0-0.1,0C553.8,522.4,554.1,521.6,554.6,521.7z M596.7,555.9c-0.7-2.5-1-3.8-1.5-5.7h6.2
		C599.7,552.2,598.6,553.6,596.7,555.9z M598.3,544.2c-1.4-2.6-2.3-4.2-3.5-6.4h8.1C601.3,539.9,600.1,541.7,598.3,544.2z
		 M607.5,512.1c-3.3-0.3-6.5-0.5-9.8-0.8c0.1-0.7,0.2-1.5,0.2-2.2c3.2,0.5,6.5,1,9.7,1.5C607.6,511.1,607.6,511.6,607.5,512.1z
		 M610.1,507.3c-2.1-1.4-4.3-2.6-6.3-4.1c-0.5-0.4-0.4-1.6-0.6-2.5c0.8,0,1.9-0.3,2.4,0.1c1.9,1.6,3.7,3.4,5.5,5.2
		C610.8,506.4,610.4,506.9,610.1,507.3z M629.7,541.9c-1.2-0.8-2.5-1.6-3.7-2.4c0.3-0.6,0.6-1.2,0.8-1.9l4.4,1
		C630.7,539.7,630.2,540.8,629.7,541.9z M621.7,512.1c6.9-3.2,9.3-3,10.5,0.8C628.5,512.6,625.1,512.3,621.7,512.1z M631.8,503.4
		c-3,1.9-6.4,3.1-9.7,4.6c0.3-5.5,3.6-7.8,7.1-9.7c0.8-0.4,3.3,0.3,3.3,0.8C632.8,500.5,632.7,502.8,631.8,503.4z M720,55.7
		c-0.4,0.8-0.5,1.3-0.8,1.6c-9.6,9.4-11.8,20.8-9,33.4c0.8,3.4,0.1,5.5-2.4,7.8c-3,2.8-5.6,6-8.4,9c-0.5-0.2-0.9-0.5-1.4-0.7
		c5.3-20.6-0.4-37.5-18.1-51.2H720z M635.5,84.2c-0.1-0.4-2.1-0.3-3.2-0.2c-1.4,0.2-2.9,0.9-4.3,0.8c-1.3-0.1-3.5-0.7-3.7-1.4
		c-0.3-1.4,0-3.5,0.9-4.6c2.8-3.5,9.4-3.5,13.2-0.4c6.9,5.6,7.2,17.1,0.5,23.3c-1.4,1.3-2.9,2.4-4.5,3.4c-4.9,3-7.2,2.7-10.9-1.6
		c-6.1-6.9-15.4-8.2-25.5-3.7c-1.3,0.6-2.6,1.2-4,1.8c-0.4-7.4,11.5-20,22.2-23.5c0.2,2,0.4,4,0.5,5.9c0.3,4.9,2.8,8.1,7.1,9
		c3.9,0.9,9.8-1.6,11.4-5.2C635.9,86.9,635.8,85.4,635.5,84.2z M734,257.4c2.9,0.9,3,2.8,2.4,5c-0.7,2.6-2.8,2.5-4.5,1.6
		c-2.4-1.3-5-2.7-6.8-4.8c-5.1-6-4.6-18.1,1.2-24.9c1.6,3.6,3.2,6.7,4.3,10c0.4,1.3-0.2,3.1-0.7,4.6
		C728.4,253.7,729.2,255.9,734,257.4z M716.2,237c-1.9,3.7-3,7.7-4.9,11.7c-3.5-9.5-5.5-19.4-7.4-29.3c0.4-0.3,0.7-0.5,1.1-0.8
		c5.9,2.6,11.9,5.2,18,7.9C720.8,230,718.1,233.3,716.2,237z M737.4,271.6c4.6,15.9,10.6,31.2,12.4,47.8
		c-13.5-16.4-23.9-34.5-31.8-54.3C724,268.5,729.2,273.6,737.4,271.6z M741.8,251c-5.4-6.9-8.2-14.9-10.4-23.9c1.5,0,2.3-0.3,2.7,0
		c5.2,3.6,10.7,7.1,15.5,11.2c1.8,1.6,2.6,4.6,3.4,7.1c0.9,2.7,0.9,5.6-2.1,7C747.7,253.8,744.2,254.1,741.8,251z M737.9,208.6
		c-5.6,6.9-19,8.8-26.1,3.6c-2.5-1.8-4.9-3.9-6.7-6.3c-6.5-8.6-13.9-16.1-23.1-21.6c-0.3-0.2-0.4-0.6-0.8-1.1c2.8-2.1,5.2-1.8,8,0
		c4.3,2.8,9,5.1,14.1,8c-1.4,5.2,2.5,9.6,5.5,14.3c3.3,5.1,8.3,7,13.4,3.8c3.9-2.4,7.4-5.7,10.3-9.3c1.9-2.4,3-2.5,4.9-0.6
		C740.4,202.3,740.6,205.3,737.9,208.6z M675.8,200.5c-0.1-1.8-1.1-3.5-2.2-6.6c2.3,0.9,4.1,1.1,4.7,2c3.4,5.3,6.9,10.6,9.6,16.2
		c1.5,3-2.3,6.3-5.9,5.1c-2.5-0.8-4.9-2.3-6.9-3.9c-2.1-1.7-2.5-3.6-0.5-6.2C675.8,205.5,675.9,202.7,675.8,200.5z M713.5,201.9
		c0.5-1.5,2.3-2.5,3.6-3.7c1.1,1.1,2.2,2.3,4,4.1c-2,1.3-3.4,3-4.6,2.9C715.3,205,713.3,202.6,713.5,201.9z M731,191.3
		c-1.3-0.2-3-1.9-3.4-3.2c-0.2-0.7,2-3.2,2.9-3.1c1.7,0.3,3.1,1.8,5.7,3.5C733.7,189.9,732.2,191.5,731,191.3z M728.7,195.9
		c-1.1,1.2-2.2,2.4-3.3,3.6c-0.3-0.3-0.6-0.6-1-0.9c-1-0.9-2-1.7-2.5-2.8c-0.3-0.6,1.2-2.1,2.3-3.9
		C726.1,193.7,727.4,194.8,728.7,195.9z M719.7,188.4c-1.1-0.1-3.2-2.2-3-3.2c0.2-1.3,2.1-3.3,3.3-3.3c1.4,0,2.7,1.8,5.1,3.5
		C722.6,187,721.1,188.5,719.7,188.4z M716.8,193.5c-2.4,1.5-3.9,3.1-5.5,3.3c-1,0.1-3.4-2.4-3.1-3c0.7-1.8,2.3-3.2,3.6-4.7
		C713.2,190.2,714.6,191.5,716.8,193.5z M708.3,163.5c0-0.8-0.1-1.5-0.1-2.3c2-0.1,4-0.3,6-0.2c0.1,0,0.2,1.6,0.3,2.5H708.3z
		 M708.6,172.6c0.2,0.1,0.5,0.3,0.7,0.4c0.1,0.1,0.2,0.1,0.4,0.2c0.2,0.1,0.5,0.2,0.7,0.3c-0.1,0.2-0.2,0.3-0.3,0.5
		c-0.7,1.2-1.2,2.7-2.3,3.4c-4.6,3.1-9.1,2.8-13.9-1.1c4-1.8,7.4-3.9,11-4.9c0.7-0.2,1.4,0,2.2,0.4c0.2,0.1,0.5,0.2,0.7,0.4
		C708.1,172.4,708.3,172.5,708.6,172.6z M698.9,160.8c-5.4,6.7-14,6.7-19.9-0.1c0.7-1.5,1.4-3.1,2.3-4.5c1.5-2.3,1.4-6.2,5.5-6
		c5.1,0.3,10.1,1.3,13.2,5.8C700.7,156.9,699.9,159.6,698.9,160.8z M674.9,122.5c-0.8,0.2-1.9-0.7-2.8-1.1c0.7-0.9,1.4-2.4,2.2-2.5
		c1.5-0.2,3.1,0.4,4.6,0.6c0,0.3,0.1,0.7,0.1,1C677.7,121.2,676.4,122.2,674.9,122.5z M649.2,141.5c3.5,0,6.6,3.3,6.5,6.9
		c-0.1,3.4-3.6,6.3-7.2,6.1c-3-0.2-6.1-3.6-6-6.5C642.6,145,646.2,141.5,649.2,141.5z M642.4,139c-3,0-6.7-4.8-6.7-8.5
		c0-3.8,2.8-6.6,6.6-6.6c3.6,0,6.2,3.3,6.3,7.9C648.6,135.1,645.2,139.1,642.4,139z M663.5,125.3c3.1,0,5.5,2.5,5.5,5.8
		c0,4.1-5.5,10.1-9.5,9.3c-2-0.4-4.7-3.2-5-5.2C653.6,130.1,658.7,125.2,663.5,125.3z M654.7,159.4c0.1-1,1.3-2.5,2.1-2.6
		c2.6-0.3,7.1,4.5,7.6,8.1c-1.6,1.1-3.1,2.9-4.9,3.2C656.8,168.6,654.2,163.8,654.7,159.4z M660.5,150.3c-0.6-0.6-0.3-3.2,0.3-3.6
		c2.8-1.5,5.7-3,8.8-3.7c2.6-0.6,5.7,3,5.7,6.6c-0.1,2.6-2,4.3-4.9,4.8C666.2,155.1,663,153.1,660.5,150.3z M678.2,111.2
		c-1.2-0.5-2-2.5-2.5-4c-0.6-1.9-0.4-4-1.1-5.9c-1.2-3.5-4.1-5-7.6-4.4c-1.2,0.2-2.1,2-3.1,3.1c1,0.8,1.9,2.2,3,2.4
		c4.3,0.8,5.1,2,3.5,6.1c-2.8,7.1-9.3,9.7-16.4,6.6c-9.4-4.2-21.1,1.1-24.7,10.8c-0.5,1.4-2,2.6-3.4,3.3c-2.3,1.3-5.3,1.6-7.2,3.3
		c-4.4,4-8.8,2.7-14.2,1.4c5.1-2,9.5-3.6,13.6-5.6c4.1-2,8.8-3.7,9.1-9.7c0.1-1.1,2.1-2.4,3.5-3c11.2-4.3,18.4-12.6,24.1-22.8
		c3.8-6.9,9.5-11.3,17.9-10.8c10.7,0.6,19.6,12.9,16.8,23.2C688.2,110.9,683.5,113.5,678.2,111.2z M596,114.5
		c2.2-6.1,11.7-9.7,17.7-7.1c4.4,1.9,5.7,6.3,2.9,10.3c-3,4.2-7.3,5.6-13.6,5.9c-1.2-0.6-4-1.2-5.7-3
		C596,119.2,595.4,116.2,596,114.5z M615.4,142.9c-3.2,6.3-12.3,5-17.9-2.9C603.6,141,609.6,142,615.4,142.9z M621.4,166.6
		c1,0.4,1.9,1.4,2.6,2.3c0.9,1.2,1.7,2.4,2.4,3.8c1,1.9,3,5.2,2.4,5.7c-1.8,1.7-4.5,2.4-7.2,3.7c-2.7-1.3-5.4-2-7.3-3.7
		c-2.5-2.2-3.5-5.4-2-8.8C613.3,167.5,618.8,165.7,621.4,166.6z M623.6,151.3c-0.8-1.1-0.4-4.3,0.7-5.4c2.1-2.1,5-3.5,7.9-5.4
		c2.4,1.8,4.8,2.6,5.6,4.3c1.3,2.4-0.3,4.7-2.7,5.9c-2,1.1-4,2.5-6.1,2.7C627.2,153.6,624.6,152.7,623.6,151.3z M639.7,154.9
		c0.8,0.1,2.1,2.3,1.9,3.3c-0.7,3.3-4.4,5.2-8.7,4.9C632.9,159.7,637,154.6,639.7,154.9z M645.8,161.1c1.4-2.2,3.1-1.3,4.1,0.4
		c1.4,2.3-0.1,8.6-2.5,10.4c-2.7,2.1-5.7,2.8-8.6,0.6C641.3,168.4,643.5,164.7,645.8,161.1z M669.2,170.5c0.3-0.5,1.9-0.6,2.7-0.3
		c2.3,0.8,4.4,1.9,7.5,3.3c-3.1,1.5-5.6,2.6-8,3.8c-7.7,3.6-9.7,7.4-8,15.7c0.4,1.8,1.2,3.7,1.1,5.5c-0.1,1.1-1.3,2.5-2.3,3.1
		c-0.8,0.4-3,0.1-3.3-0.6c-3.2-6.3-6.2-12.6-9.8-20.1C658.5,180.4,664.7,177,669.2,170.5z M663.6,220.2c1.4,0.3,3.2,0.1,4.2,1
		c5.1,4.2,10.7,6.2,17.2,5c2.8-0.5,3.5,1,4.2,3.1c2.4,6.9,4.6,13.8,7.3,20.5c10.9,27.1,27.2,51,45.6,73.4c2.6,3.2,5.2,6.5,7.8,9.7
		c-0.5,0.4-0.9,0.8-1.4,1.3c-4.8-4-9.7-7.9-14.5-11.9c-27.7-23.6-49.8-51.6-65.1-84.8c-2-4.4-3.9-8.9-5.6-13.4
		C662.8,223.1,663.4,221.6,663.6,220.2z M748,285.3c-1.4-5.3-3-10.6-4.3-15.9c-0.6-2.4-0.7-4.9,3-5.2c4.7-0.4,6.3,0.5,6.2,4.3
		c0,7.7-0.2,15.3-0.4,23c0,1.3-0.4,2.5-0.6,3.8c-0.4,0-0.9,0-1.3,0C749.8,291.9,748.9,288.6,748,285.3z M754,526.9
		c-1-0.3-1.9-0.7-2.9-1C752.1,525.9,753.2,526.2,754,526.9z M753.6,228.6c-4.6-2.3-8.5-4.3-12.9-6.5c4.5-3.7,8.5-7.1,12.6-10.5
		c0.4,0,0.8,0.1,1.1,0.1C754.1,217.1,753.9,222.5,753.6,228.6z M745.4,190.4c-0.4,1.2-2.1,2.2-3.4,2.7c-0.4,0.2-2.2-1.5-2.3-2.4
		c-0.3-5.2-3.3-7.7-7.9-9.4c-3.9-1.5-7.4-4.1-11.4-6.4c2.9-2.9,6-3.5,9.2-2.7c7.5,1.7,12.7,6.3,15.3,13.5
		C745.4,187.1,745.8,189,745.4,190.4z M724.4,140.6c-1.9-8.2,4-15,14.1-15c0.6,0.1,2.1,0,3.5,0.4c10.4,2.6,13.2,12.1,5.7,19.9
		c-3.8,3.9-8.3,6.7-14,5.2C728.4,149.8,725.7,145.9,724.4,140.6z M730.1,119.8c-9.7,3.3-14.3,12-12.2,22.1c0.3,1.7,0.7,4.6-0.1,5
		c-2.5,1.4-5.4,2.2-8.3,2.7c-0.5,0.1-1.7-1.8-2.2-2.9c-0.8-2-1.1-4.2-2-6.1c-2.2-4.2-8.8-5.8-12.2-2.7c-1,0.9-0.4,3.5-0.6,5.6
		c-4-0.4-8.6-0.2-9.7-6.3c-0.2-1.4-1.8-2.5-3.5-4.7c1.3-1,2.8-2.3,4.4-3.4c12.5-8.8,26.6-13.4,41.4-16c5.9-1,11.8,0.7,18,3.4
		C738.1,117.7,734,118.4,730.1,119.8z M722.7,104.4c-5.2,1.9-10.4,3.7-15.7,5.6c-0.3-0.4-0.7-0.9-1-1.4c3.6-2.8,6.9-6,10.9-8.2
		c1.1-0.6,3.9,1.8,5.9,2.8C722.7,103.6,722.7,104,722.7,104.4z M654.1,60.6c14.7,0.7,26.7,6.6,34.6,19.3c-11.6-7.6-23.2-9-37.8,5.3
		c-1.7-5.9-4.3-11.1-9.7-14.3c-5.4-3.2-11-2.5-16.7-1C632.5,61,643.2,60.1,654.1,60.6z M624.4,55.7c0.2,0.2,0.4,0.5,0.5,0.7
		c-3,2.3-6.1,4.6-9.2,7.1c-2-2.6-3.7-4.9-5.9-7.8H624.4z M611.2,69.4c0,1.3-0.8,3.4-1.8,3.9c-7.9,3.7-14.2,9.1-18.8,17.2
		c-2.3-6.1-4.3-11.5-6.3-16.8c-0.2-0.5,0-1.4,0.4-1.9c4.3-6,9.6-10.6,17.5-10.8C606.9,60.9,611.1,64.7,611.2,69.4z M589.8,133.1
		c-1.5,1.3-4.3,0.8-6.6,1.2c-0.2-0.5-0.3-1-0.5-1.5c2.3-2.8,4.6-5.7,7.1-8.8C592.9,127.6,592.4,130.9,589.8,133.1z M589.3,55.7
		c-3.4,3.2-7.1,6.7-10.7,10.1c-1.9-2.4-4.7-6.1-7.9-10.1H589.3z M534.5,54.7c-8,5.4-16.2,9.8-26.4,7.8
		C516.1,57.4,524.4,52.9,534.5,54.7z M445.2,62.5c-10,1.8-18.3-2.2-26.1-7.7C428.9,53.8,437.2,57.6,445.2,62.5z M388.7,77.4
		c3.6,3.2,14.3,0.6,15.7-4c0.3-1.1-0.7-3.2-1.7-3.9c-1.9-1.3-4.4-1.9-7.6-3.2c5.1-3.5,9.8-5.5,15-3.9c5.6,1.8,10.9,4.6,16.6,6.2
		c10.5,3,21.2,4.8,32.2,2.1c4.8-1.2,8-3.4,7.7-9.1c-0.2-4.4,0.9-8.2,6-9.7c1.4-0.4,2.2-2.5,3.5-4.1c4.2,4.8,11.2,7.2,10.1,15.6
		c-0.4,3.4,2.6,5.3,5.7,6.4c9.5,3.5,19.2,2.7,28.6,0.4c5.8-1.4,11.4-3.9,17.1-5.9c5.5-2,11-2.8,16.4-0.2c1.4,0.7,2.5,1.7,4.8,3.3
		c-3.1,0.6-5.1,0.7-6.8,1.4c-1.5,0.6-3.4,1.8-3.7,3.1c-0.2,1.1,1.3,2.9,2.5,4c1.1,1.1,2.8,1.6,4.2,2.4c3.6,2,6.7,1.6,9.3-1.7
		c1.8-2.4,3.7-2.8,6.6-1.4c5.6,2.6,11.4,19.1,8.4,25c-0.8-0.8-1.4-1.6-2.2-2.3c-3.7-3.4-7.9-5.2-12.9-3.3c-2,0.8-3,0.5-4.3-1.2
		c-17.9-23.1-52.2-25.3-73.5-4.7c-2.5,2.4-4.8,5.1-7.2,7.7c-1.7,2-3,2-4.9-0.1c-3.4-4-6.8-8.2-10.8-11.4
		C442,67.5,408.5,72,391.8,94.4c-0.8,1.1-1.6,2.1-2.7,3.4c-6.5-6-11.6-2.5-16.4,2.7c-2.5-7.6,0.9-19,6.7-23.4
		C383.1,74.2,385.1,74.3,388.7,77.4z M571.7,127.8c-1.3-7.2-2.6-14.4-4-21.9c3.9-1.7,8.6,0.7,11.2,6
		C581.5,117.2,578.3,124.6,571.7,127.8z M565.2,167.9c-4,0.4-7.7,0.8-12,1.3c3.5-4.4,6.4-8.2,9.9-12.7
		C563.9,160.8,564.5,164.2,565.2,167.9z M520.3,146.1c5.3-1.4,10.6-2.1,15.3-4.2c4.7-2.1,8.7-5.7,13.1-8.7
		c1.5,9.4-16,31.1-27.1,37.7C523.6,162,524.9,153.6,520.3,146.1z M489.9,275.3c0.9-0.5,2-0.6,3.1-0.8c4.5-0.9,9-1.1,12,3.2
		c3.2,4.3,3,9.4,0.1,13.3c-4.3,5.7-9.4,10.9-14.7,15.8c-3.9,3.6-8.7,6.3-13.4,9.5c-8-6.3-16.3-12.1-22.2-20.4
		c-1.8-2.5-3-5.4-4.1-8.3c-1.6-4.5-1.3-9,2.4-12.3c3.8-3.4,8.7-3.5,12.9-1.4c4.4,2.2,8.2,5.7,12.1,8.4
		C481.7,280.1,485.7,277.6,489.9,275.3z M478.2,270.5c1-5.7,9.3,1,3.3,3c-0.9,0.3-1.9-0.1-2.6-0.8
		C478.4,272.1,478.1,271.3,478.2,270.5z M472.7,259.6c-5.8-3-11.9-5.4-18.7-8.5c10.2-5.8,18.2-12.6,22.9-24.1
		c6.9,12.8,17.3,19.7,28.9,25.3c0,0.4,0,0.8,0,1.2c-7.4,2.3-14.8,4.4-22.1,6.9C479.8,261.6,476.4,261.5,472.7,259.6z M424.7,154.2
		c2.6-1.1,6.5,2.8,6.3,6.6c-0.1,3.2-0.6,6.3-1,10.3c-2.8-2.5-5.4-4.5-7.6-6.8C419.3,161.2,420.6,155.9,424.7,154.2z M415.2,156.5
		c-3.5-6.5-7.2-13.5-11-20.5c0.3-0.3,0.6-0.6,0.9-0.9c6.8,5.9,14.1,6.8,22.7,2.5c0.3,3.8,0.5,7.2,0.7,9.5
		C423.8,150.4,419.8,153.2,415.2,156.5z M430.3,128.4c-4.6,5.3-12.2,7.6-17.4,5.1c-5.7-2.7-8.8-9.5-7.7-16.3
		c0.9-5.1,4.5-9.2,8.7-9.9c4.3-0.7,9.6,2.3,11.7,7c1.1,2.5,1.7,5.3,2.5,8.2c3.8-7.9,0.2-15.6-10.3-21.5c5-3.6,10.5-4,16.1-3.9
		c6.3,0,11.7,2.7,16.7,6.3c8.5,6.1,14.8,14,19.6,23.3c0.7,1.3,0.8,2.9,1.3,4.8c-5.6-2.9-10.7-5.5-15.7-8.1
		C444.5,117.4,438.8,118.5,430.3,128.4z M470.5,146.8c-0.5,2.4-3.8,3.6-6.1,2c-2.2-1.6-4.2-3.3-6.2-5.2c-0.6-0.6-1-1.9-0.9-2.8
		c0.3-3.3,0.9-6.6,1.4-10.1C465.9,131.9,471.7,140.1,470.5,146.8z M435.1,130.8c2-2.6,5.6-4.6,8.9-5.5c5.6-1.5,10.6,3.4,10.3,9.2
		c-0.4,6.8-1.8,7.8-8.2,10.2c-4.5,1.6-8.4,4.8-13.1,7.6C431.8,145.2,430,137.5,435.1,130.8z M435.4,162.1
		c1.1-9.3,13.9-16.2,21.7-11.4c-13.8,11.4-6.6,22.6,0.3,33.9c-0.3,0.4-0.7,0.7-1,1.1c-3.2-0.5-6.6-0.4-9.4-1.7
		C439.6,180.6,434.4,170.1,435.4,162.1z M454.4,167.1c-1.1-7,3.5-12.3,11.5-12.2c0.5,0.1,2,0.6,3.6,0.8c1.1,0.1,2.5,0,3.3-0.6
		c4.5-3.4,9.2-3.8,13.9-0.8c4.8,3.1,7.3,8,6.4,13.5c-1.9,11.1-9.7,18.2-18.3,24.6c-0.5,0.4-1.7,0.3-2.2,0
		C464.1,185.6,456.3,178.4,454.4,167.1z M474.6,139.1c4.9-3.9,3.8-12.1,10.6-14.3c1.5-0.5,3.1-0.7,4.7-1c4.3,0.1,7.6,1.8,10.1,5.1
		c4.3,5.6,3.9,7.7-2.4,10.6c-1.7,0.8-4,1.5-4.7,2.9c-3.6,6.9-9.6,5.2-15.3,4.8c-0.9-0.1-2.2-1.1-2.4-1.8
		C474.6,143.2,473.7,139.9,474.6,139.1z M474.3,202.5c-0.3,0.3-0.6,0.6-0.9,0.9c-3.8-3.5-7.6-6.9-12.1-11
		C466.1,192.8,473.1,198.8,474.3,202.5z M476.9,197.3c4.6-4,7.9-7.4,11.7-9.9c1.1-0.7,3.7,0.7,5.6,1.2c0.1,0.6,0.2,1.2,0.2,1.8
		c-3.7,2.9-7.1,6-11.1,8.5C482.3,199.5,479.9,198.1,476.9,197.3z M492.7,181.4c1.1-2.5,2.2-4.8,3.2-7.1c3-7.4,3-14.6-2.4-20.9
		c-2.1-2.5-1.2-4,0.5-5.8c3.8-3.9,10.6-5.2,16.1-2.8c5.3,2.3,8.1,6.3,8.2,12.3c0.2,11-4.7,19.2-13.4,25.3
		C501.1,185.1,496.9,183.9,492.7,181.4z M508.4,130.3c-0.3-0.3-0.5-0.6-0.8-0.9c-4.7-6.3-9.9-11.9-19.2-11.8
		c8.7-14.4,29.7-24.2,45.6-16.6c-8.7,2.9-16,6.8-16.8,16.8c-0.4,4.5,1.6,7.9,5,10.9c-2.2-6.5-1.1-12.3,3.3-17.3
		c2.9-3.3,6.7-5,11.2-4.1c4.2,0.9,7.9,3.5,8.4,7.7c0.5,3.9,0.3,8.7-1.6,12C535.8,141.4,519.1,142.7,508.4,130.3z M381.6,55.6
		c-3.3,4-6.2,7.4-8.1,9.7c-3.6-3.1-7.2-6.2-11.2-9.7H381.6z M353.3,61.4c6.1,0.8,10.4,4.6,13.9,9.3c0.6,0.9,0.8,2.5,0.4,3.6
		c-1.7,4.9-3.7,9.7-6,15.5c-1.2-1.7-2.1-3.4-3.3-4.6c-3.6-3.5-7.3-6.9-11.1-10.3c-1.6-1.4-4.8-3.5-4.6-4.1c1.4-3.2,3.3-6.2,5.6-8.7
		C349.2,61.1,351.7,61.2,353.3,61.4z M370.5,132.9c-2.6,1.7-4.8,3.4-7.4,1c-2.7-2.5-3-6.2-0.4-9.7
		C365.3,127.1,367.8,129.9,370.5,132.9z M276.4,133.6c-3.8,5.2-6.8,11.3-13.7,9.4c-1.1-3-1.2-6.2-2.6-6.9c-3.2-1.5-7.1-1.3-9.7,1.6
		c-1.6,1.8-2.6,4.4-3.1,6.8c-0.7,3.6-2.4,4.3-5.6,3.2c-6-2.1-6.6-2.9-5.7-9.3c1.4-9.9-7-19.8-17.9-21.1c-2.1-0.2-4.2-0.5-6.3-1.3
		c4.3-2.9,9.2-3.7,14-3C244.5,115.4,261.6,121.6,276.4,133.6z M230.9,104.2c3.8-4.9,4.5-5.2,8.7-1.8c2.5,2,4.8,4.3,7.7,6.8
		c-1.3,0.2-1.6,0.4-1.8,0.3C240.8,107.8,236,106.1,230.9,104.2z M346.2,133.4c-4.4,2.3-7.1,1-11.5-1.2c-6-2.9-8.6-8.2-12.7-12.6
		c-6.4-6.9-12.7-9.2-22.9-3.7c-6.7,3.6-16.8-2.8-16.6-10.3c0.1-3.8,1.6-4.8,5.2-3.8c0.7,0.2,1.5,0,2.3-0.1c0.3,0,0.5-0.1,0.8-0.1
		c0-0.3-0.1-0.6-0.1-1c0-0.3,0-0.7-0.1-1c0-0.6-0.2-1.2-0.5-1.7c-2.6-3.6-9.8-1.8-11.9,3.1c-0.8,2-1.3,4.1-1.6,6.2
		c-0.3,2.6-1.8,3.3-4.1,3.5c-5.3,0.4-9.3-3.2-9.5-8.7c-0.3-8.5,4.7-15.9,12.9-19.1c7.5-2.8,15.2-0.8,20.7,5.8c1.8,2.2,3.4,4.5,4.8,7
		c4.6,8.3,11.3,14.3,19.6,18.6c2.5,1.3,4.8,2.4,5.1,5.9c0.2,1.6,2,3.6,3.6,4.5C335.2,128,340.9,130.7,346.2,133.4z M334.7,111.1
		c0.7-2,3.7-3.9,6-4.5c6-1.6,14.2,3.4,16.2,9.3c0.8,2.2-1.7,5.8-4.9,6.9c-1.3,0.4-2.6,0.5-3.9,0.8c-0.2,0.3-0.4,0.6-0.6,1
		c-3.6-2-7.7-3.6-10.8-6.3C335.1,116.7,334,113,334.7,111.1z M281.3,207.2c2.6,2.3,1.4,4.3-0.7,5.5c-2.8,1.7-5.8,3.4-8.9,3.9
		c-3.6,0.5-6-2.5-4.4-5.6c2.8-5.6,6.2-10.8,9.8-15.9c0.8-1.2,3.3-1.2,5.3-1.9c-0.9,4.5-1.6,7.6-2.1,10.7
		C280.3,205,280.6,206.6,281.3,207.2z M238.4,193.3c1.3-1.5,2.5-4,4-4.1c1.4-0.1,3,2.2,5.4,4.1c-2.2,1.6-3.7,3.6-4.9,3.4
		C241.2,196.3,239.9,194.5,238.4,193.3z M240.4,201.1c-0.2,1.5-2,2.7-3.1,4c-1.1-1.1-3.2-2.1-3.2-3.2c0-1.5,1.5-3,2.8-5.5
		C238.7,198.7,240.6,200,240.4,201.1z M246.2,177.5c-1.3-0.7-2.9-2.7-2.7-3.9c0.2-1.2,2.5-3,3.7-2.9c3.2,0.2,6.5,1.2,9.6,2.2
		c1.6,0.5,3,1.8,4.8,3C256.4,179.9,251.3,180.3,246.2,177.5z M245.6,162.8c-2,0.4-3.9,0.8-7.3,1.6c1.1-2.2,1.6-4.1,2.3-4.2
		c1.7-0.2,3.5,0.5,5.2,0.8C245.8,161.6,245.7,162.2,245.6,162.8z M239.2,184.9c-2.6,1.6-4.1,3.3-5.6,3.3c-1.2-0.1-2.4-2.2-3.5-3.5
		c1.4-1.2,2.6-3.1,4.2-3.3C235.3,181.2,236.8,183.1,239.2,184.9z M229,191.2c1.3,2,2.9,3.5,2.6,4.4c-0.4,1.3-2.1,3-3.3,3.1
		c-1.2,0.1-2.5-1.7-3.8-2.6C225.7,194.7,227,193.3,229,191.2z M221.4,192c-1.2-1.4-2.6-2.8-2.5-2.9c1.6-1.7,3.3-3.3,5-5
		c0.8,1.1,2.5,2.7,2.3,3.1C224.9,188.9,223.3,190.2,221.4,192z M219.6,181.8c-2.6,1.7-4.7,4.5-6.6,7.1c-1,1.4-1.2,3.8-3.4,2.4
		c-1.2-0.8-2.3-3.2-1.9-4.5c2.4-7.9,7.4-13.2,15.7-15.1c3.8-0.9,6.9-0.3,9.4,3.5C228.1,177.5,223.6,179.2,219.6,181.8z M213.2,230.1
		c2.7-1.5,5.6-2.7,8.4-4.1c0.4,0.4,0.8,0.8,1.2,1.3c-3.1,7.1-6.1,14.2-9.5,21.2c-0.7,1.5-2.5,3.4-4,3.6c-2.7,0.3-6.2,0.2-8.1-1.3
		c-2.8-2.2-1.8-5.9-0.4-8.9C203.5,236.4,208.1,232.9,213.2,230.1z M224.6,249.8c-1.8-6.7-0.3-12.7,4.9-18.6
		c8.5,10.1,6.2,26.1-4.3,31.4c-1.7,0.9-4,1.5-5.8,1.2c-1.2-0.2-2.6-2.2-3-3.7c-0.6-2,0.6-3,3-3.1
		C224.1,256.8,225.8,254.3,224.6,249.8z M213.1,274.2c0.7-2.4,1.8-3.3,4.6-2.9c5.2,0.8,9.8-1.1,14-4c1-0.7,1.9-1.3,2.9-2
		c0.3,0.2,0.5,0.4,0.8,0.7c-8.8,18.5-19.5,35.8-32.4,51.7c-0.4-0.2-0.9-0.4-1.3-0.6c0.1-1.1,0-2.3,0.3-3.4
		C205.7,300.6,209.4,287.4,213.1,274.2z M231.8,225.3c7.2-2.9,13.8-5.6,20.4-8.2c0.4,0.2,0.8,0.4,1.2,0.6
		c-2.9,9.9-5.8,19.8-8.6,29.7c-0.5,0.1-1,0.1-1.5,0.2C243.2,238.3,240.3,230.5,231.8,225.3z M250,205.2c-7.7,9.1-16.1,11.9-27.2,7.7
		c-2.3-0.9-4.6-2.3-6.4-4c-4.2-4-3.3-8.7,2.4-12c0.4,0.9,0.9,1.8,1.3,2.7c2.7,7,11.5,11.9,18.7,10.2c1.5-0.4,3.6-1.1,4.1-2.2
		c2.9-5.7,9.9-9.8,7.3-16.7c6-3.2,11.3-6.4,17-9c1.9-0.9,4.5-0.5,6.7-0.7c0.1,0.5,0.2,1,0.3,1.6c-2.6,1.9-5.5,3.4-7.8,5.6
		C260.6,193.8,255,199.2,250,205.2z M262.1,164.9c-1.5-0.6-3-1.4-4.1-2.4c-5-4.4-4.4-8.2,1.5-11.1c0.5-0.2,1-0.5,1.5-0.7
		c9.1-3.6,12.3-2.1,15.3,6.9c0.4,1.3,0.9,2.5,1.6,4.1C272.8,164.9,267.9,167.2,262.1,164.9z M286.6,143.9c4.1-0.2,10.2,3.5,9,4.9
		c-2.4,2.9-5.8,4.9-8.8,7.3c-3.6-0.8-6.6-3.3-6.7-5.8C279.9,147.6,283.4,144.1,286.6,143.9z M274.9,120.5c0.2-0.7,0.4-1.5,0.6-2.2
		c1.8,0.5,3.5,0.9,5.2,1.6c0.2,0.1-0.2,1.6-0.3,2.4C278.6,121.7,276.8,121.1,274.9,120.5z M286.3,131.6c0-3.5,2.5-5.8,6.2-5.9
		c4.4,0,8.5,4.6,8.5,9.6c0,2.3-3.3,5.5-5.5,5.4C291.1,140.5,286.2,135.7,286.3,131.6z M292.1,162.1c1.2-1.7,2.6-3.4,4.2-4.7
		c0.8-0.7,2.7-0.9,3.6-0.5c0.9,0.5,1.3,2.1,1.9,3.3c-1.1,2.3-1.7,4.7-3.2,6.2c-0.9,1-3.5,1.5-4.8,0.9
		C291.8,166.6,290.5,164.5,292.1,162.1z M300.3,147.4c0-3.2,3-6.3,6.1-6.3c3.4,0,7.1,3.3,7.2,6.3c0,3-3.8,6.6-7,6.5
		C303.2,153.8,300.3,150.8,300.3,147.4z M306.5,130.5c0-4.1,2.9-7.2,6.6-7.1c3.6,0.1,6.5,3.2,6.4,6.9c-0.1,3.4-3.4,7.8-5.8,7.9
		C310.2,138.3,306.4,134.3,306.5,130.5z M216.8,125c7.3,0.2,12.3,5.4,12.1,12.7c-0.2,7.7-5.4,13.5-12.1,13.3
		c-7.8-0.3-15.2-7.4-15.2-14.6C201.7,130.1,208.9,124.7,216.8,125z M211.8,162.6c3.1-2.4,8.8-3.4,12.1-1.7c0.5,0.2,0.7,1,1.5,2.2
		c-11.5,2.1-19.6,8.2-26.1,16.8c-2.8-4.1-2.1-7.1,1.1-9.1C204.3,168.2,208.1,165.5,211.8,162.6z M198.7,209.8c4.6,4,9,7.8,14.1,12.3
		c-4.7,2.5-9.1,4.7-14.1,7.4V209.8z M199.4,265.7c0-0.8,2.5-2,3.9-2c5.9,0,6.3,0.8,4.5,6.3c-2.2,6.9-4.4,13.8-6.6,20.7
		c-0.3,1.1-0.8,2.1-1.2,3.2c-0.3,0-0.5-0.1-0.8-0.2C199.2,284.4,199.1,275,199.4,265.7z M205.2,327.4c20.2-21.7,37.5-45.4,50.7-72.1
		c4.1-8.3,7.4-17,10.9-25.6c1-2.5,1.9-3.9,5-4c6.1-0.2,11.7-2,16.2-6.4c1.8-1.8,3.4-1.8,4.8-0.2c0.8,0.9,1,2.8,0.6,4
		c-7.1,18.6-17.1,35.6-29.1,51.5c-16.5,21.9-36.1,40.6-58.3,56.6c-0.9,0.6-1.8,1.2-2.7,1.8c-0.3,0.2-0.7,0-2.4,0
		C202.7,330.7,203.8,328.9,205.2,327.4z M292.8,182.4c-2.7-4.4-9-6.6-13.9-10c2-1.1,4.6-2.7,7.7-4.4c4.3,7.8,11,11.5,19.9,12
		c-2.7,7.1-4.6,14.1-10.8,19.5C294.7,193.2,295.5,186.7,292.8,182.4z M306.2,161.3c1-1.4,2.5-3.3,4.4-0.7c2.5,3.4,4.9,6.9,7.4,10.4
		c-2.4,2.4-6.6,3.1-9,1.3C306.4,170.4,304.6,163.6,306.2,161.3z M314.6,156.1c0.1-0.8,2-2.1,2.2-1.9c2.3,1.6,4.4,3.4,6.5,5.1
		c-1,1-1.9,2-2.4,2.5C317.6,161.7,314.2,158.3,314.6,156.1z M320.1,149.4c-1.3-1.1-2.7-3.8-2.2-5c0.7-1.7,3.1-2.7,4-3.4
		c5.1,0.3,8.3,1.8,9.7,5.4c0.5,1.3,0.1,3.6-0.7,4.7c-0.7,1-2.9,1.9-4.1,1.6C324.4,152.1,322,151,320.1,149.4z M327.6,171.4
		c1.9-2.9,3.4-6.7,8.6-6.2c3,0.1,6.1,0.8,7,5c0.8,3.8-1.1,7.6-5,9c-1.9,0.7-4.2,1.2-6.2,1C326.1,179.7,324.4,176.2,327.6,171.4z
		 M338.4,143.2c6.4-1.4,12.6-2.7,18.8-4c-3.2,4.8-7.1,8.2-13.1,8.1C341.2,147.2,339.4,145.9,338.4,143.2z M354.3,99.7
		c-10.2-4.6-18.8-3.3-26.5,4.6c-2.8,2.8-4.9,2.7-8,0.9c-7.4-4.2-11.2-12.9-8.8-21c2.2-7.4,10.9-10.7,17.2-6.5
		c2.1,1.4,3.6,3.5,1.9,5.7c-0.6,0.8-3.2,0.4-4.8,0.3c-0.9-0.1-1.7-1-2.6-1c-1.2,0-3,0.1-3.6,0.9c-0.5,0.7-0.2,2.6,0.4,3.6
		c2.6,4.4,6.6,6.2,11.2,5.2c4.6-1,6.5-4.4,7.1-8.7c0.2-1.6,0.4-3.1,0.6-4.7c7.1,1,19.4,14,20.4,22.3
		C356.9,100.7,355.5,100.3,354.3,99.7z M327.4,55.3h18.1c-3,3.2-5.2,5.5-7.6,8c-3.5-2.4-7.1-4.8-10.7-7.2
		C327.3,55.8,327.4,55.6,327.4,55.3z M329.7,69c-13.9-2.6-22.6,3.2-26.9,16.5c-11.5-12.5-24-15.2-38-4.5
		c0.7-6.4,11.3-14.8,23.2-18.1C302.7,58.9,316.8,59.5,329.7,69z M274.2,55.5c0.3,0.3,0.5,0.5,0.8,0.8c-18.3,12.1-24.6,29-19.9,50.3
		c-0.4,0-0.8,0-1.2,0c-3.5-3.5-7-6.9-10.3-10.4c-0.4-0.4-0.3-1.5-0.1-2.2c4.1-14.1,1.9-26.8-8.8-38.4H274.2z M206.5,57.5
		c12.1-6,24.2,0,29.6,13c2.1,5.1,2.4,10.3-0.2,16.4c-2.5-3.5-4-6.4-6.2-8.6c-2.3-2.3-4.9-4.7-7.9-5.9c-4.7-1.9-9.2,1.7-8.2,6.4
		c0.4,1.9,1.7,4,3.3,5.1c0.6,0.5,2.9-1.2,5.5-2.4c1.7,2.2,4.3,4.9,6.1,8.1c1.5,2.6-0.7,4.6-2.9,5.8c-6.3,3.6-12.5,2.7-18.3-0.9
		c-7-4.3-10.9-10.9-10.9-19.1C196.3,67.8,199.2,61.1,206.5,57.5z M212.4,106.7c-5.3,2.4-10.5,4.7-16.3,7.3c-0.4-6.3-0.7-12.2-1-18.5
		C201.2,99.5,206.7,103.1,212.4,106.7z M176.6,554.4c0.4-13.7-1.9-27.1,2.2-40.2c-0.1,12.3-3,24.7,2,36.8
		C179.3,552.3,178.1,553.2,176.6,554.4z M193.9,516.1c-0.1,4.5-1,5.7-6,7.1c4.5-6.6,5.6-12.4-1.3-18.2
		C192.2,506.9,194,510.3,193.9,516.1z M191.8,494.7v-16.1h1.1v16.2C192.5,494.7,192.2,494.7,191.8,494.7z M187.5,527
		c0.4-0.3,0.9-0.6,1.3-0.9c1.2,1,3.3,1.9,3.5,3c0.8,4.1,1.2,8.4,1.2,12.6c0,0.9-2.4,1.9-3.7,2.8c-0.3-0.3-0.7-0.5-1-0.8
		C191.5,538,194.6,532.2,187.5,527z M189.9,564.3c2-6.4,4.9-12.5-3.1-17c4.8-0.4,5.9,2,6.7,4.5C195.3,557,194.3,561.3,189.9,564.3z
		 M214,470.2c-0.2-0.5-0.5-1.1-0.7-1.6c5.7-3,11.3-6.3,17.8-7.4l0.5,1.2C225.7,464.9,219.8,467.6,214,470.2z M223.3,556.8
		c-0.4-0.2-0.8-0.3-1.1-0.5c0.3-2.8,0-5.8,2.9-7.5c0.5,0.2,1,0.5,1.5,0.7C225.5,551.9,224.4,554.3,223.3,556.8z M226,506.5
		c4.8-0.3,9.5-1,14.9-1.6c-2.1,3.7-3.9,6.8-6.1,10.5c-1.4-1.8-2.7-3.7-4.2-5.3c-0.8-0.9-2-2.2-3-2.1c-1,0-2.3,1.2-2.9,2.3
		c-1.6,2.8-1.3,5.7,0.8,8.2c1,1.2,2,2.3,3.6,4.2c-2.3,0.3-3.6,0.5-5.7,0.7c-0.4-4.7-0.8-9-1-13.3C222.4,507.9,223.5,506.7,226,506.5
		z M225.1,503.4c0-0.6,0-1.1,0-1.7c3.2,0.3,6.4,0.6,9.6,0.9c0,0.3,0,0.5-0.1,0.7H225.1z M262.7,522.5c0.4,0.2,0.5,0.9,1,1.6
		c-4.1,1.9-6.7,0.2-8.6-2.7c-2.8-4.2-5.5-8.5-10.3-11c-1.7-0.9-2.5-2.7-0.6-3.8c1.3-0.7,3.3-0.3,4.9-0.2c0.4,0,0.8,1,1.1,1.6
		C253.2,514,257,519,262.7,522.5z M251.8,507.8c0.2-0.6,0.4-1.3,0.6-1.9c3.4,0.4,6.8,0.6,10.1,1.2c0.6,0.1,1.5,1.9,1.3,2.3
		c-0.6,1-2,2.4-2.7,2.2C257.9,510.6,254.9,509.1,251.8,507.8z M243.8,513c0.8,4,0.6,7.5,2.1,10c1.6,2.7,4.7,4.5,7.2,6.7
		c-0.3,0.6-0.5,1.1-0.8,1.7c-0.9-0.3-2.1-0.3-2.8-0.9c-2.7-2.1-5.2-4.5-8-6.4c-3-2-5-7-2.7-9.6C240,513.2,242.7,513.3,243.8,513z
		 M229.6,526.7c4.6-1.4,6.9-0.4,9.8,4.4c2.7,4.4,2.1,9.6-1.8,13.7c-2.5,2.7-4.1,2.8-7.1,1.1c2.9-3.6,5.7-7.1,9-11.3
		C234.8,532.8,230,532.1,229.6,526.7z M229.6,522.8c1.9-2,3.2-3.5,5-5.5c0.6,2.4,1,4.1,1.6,6.5C233.8,523.5,232.1,523.2,229.6,522.8
		z M229.2,527.1c-1.9,2.8-3.6,5.2-5.2,7.7C222.5,528,223.9,526,229.2,527.1z M223.9,544.5c-0.7-1.9-0.8-4-1.2-6.1
		c0.4-0.2,0.7-0.4,1.1-0.5c1.2,1.6,2.6,3.2,3.7,4.9c0.3,0.6-0.4,1.7-0.6,2.6C225.8,545.2,224.1,545.1,223.9,544.5z M230.7,566
		c0.4-1.2,0.6-2.1,1.1-2.9c3-5.1,2.9-5.7-1.6-9.7c-1.1-1-1.8-2.4-3.2-4.2c6.3-0.1,8.2,1.5,8.9,6.5
		C236.5,560.7,234.6,565.1,230.7,566z M237.7,566c0.3-4.8,0.4-4.9,6.7-3.9C245.2,567.3,243.5,568.1,237.7,566z M247.5,562
		c4.7-1.2,5.7,2.1,6.8,5.1C249.3,569.3,247.2,567.8,247.5,562z M255.5,563.1c2.7,1.9,5.2,3.7,8,5.7
		C257.8,569.2,255.9,567.8,255.5,563.1z M255.6,559.6c-4.5-0.4-8.5-0.9-12.6-1.1c-2.9-0.1-4.3-1.3-4.8-4.1c-0.4-2-1.1-4-1.7-6
		c0.4-0.3,0.7-0.5,1.1-0.8c4.4,4.5,7.3,11.4,15.5,9.5c1.8-4.5,4.9-7.6,11-7.4c0.2,2.6,0.3,5.2,0.5,8.8
		C260.6,556.5,257,554.2,255.6,559.6z M260.6,535.3c-2.9-0.4-5.2,1-5.3,3.6c0,1.7,2,3.5,3.3,5.2c0.8,1.1,1.8,2.1,2.7,3.2
		c-1.6-0.1-3.3,0-4.9-0.5c-1.1-0.3-2-1.3-2.9-2.1c-4.5-3.9-4.6-6.8-0.6-11.2c1.5-1.6,2.7-3.5,4.5-4.5c1.4-0.9,3.6-1.2,5.2-0.8
		c0.8,0.2,1.2,2.3,1.8,3.6C264.6,534.7,263,535.6,260.6,535.3z M272.2,569.4c-0.6-0.2-1.3-0.3-1.9-0.5c0.3-1.6,0.6-3.1,0.9-4.7
		c0.7,0.2,2.1,0.6,2.1,0.7C273,566.5,272.6,568,272.2,569.4z M270.1,561c0.3-3,0.7-5.6,1-8.2C274.4,557.4,274.1,559.4,270.1,561z
		 M270.6,549.9c-1.6-4.5-0.4-7.3,4.8-10.3C273.9,542.9,272.4,546.2,270.6,549.9z M282,490.6c0.2,0.3,0.4,0.6,0.6,0.9
		c-2.7,2-5.4,4.1-8,6.1c-0.3-0.5-0.7-1-1-1.4C276.5,494.4,279.3,492.5,282,490.6z M274,491.6c1.4-3.8,5.3-6.1,9.4-5.1
		C280.5,488.1,277.6,489.7,274,491.6z M271.9,524.8c-0.6-0.2-1.2-0.3-1.7-0.5c0.5-2.2,1-4.4,1.5-6.6c0.4,0.1,0.8,0.2,1.1,0.3
		C273,520.3,275.2,523.1,271.9,524.8z M272.2,526.9c0.5,0.2,1,0.3,1.4,0.5c-0.6,2.4-1.2,4.7-1.9,7.1c-0.5-0.1-0.9-0.2-1.4-0.3
		C270.6,531.6,269.1,528.8,272.2,526.9z M276.9,527c5.3,3.4,4.1,8.9,4.3,13.7c0.2,4.8-0.3,5-4.2,6.3
		C281.6,540,281.2,533.5,276.9,527z M280.8,559.5c-0.5,0-1-0.1-1.5-0.2c-1.3-2.7-1-5.3,2.2-7.6C281.2,554.3,281,556.9,280.8,559.5z
		 M275.1,502.6c-0.2-0.4-0.5-0.8-0.7-1.2c2.8-1.6,5.6-3.3,8.4-4.9c0.2,0.4,0.5,0.8,0.7,1.2C280.7,499.4,277.9,501,275.1,502.6z
		 M288.8,562.7c-0.3,0-0.6,0-1,0v-58c0.3,0,0.6,0,1,0V562.7z M285.2,446.4c-0.1-0.4-0.3-0.8-0.4-1.2c6.4-6.7,12.6-13.8,22.3-15.9
		c2.3-0.5,5.2,0,7.4,0.9c3.6,1.6,5,5.4,3,8.7c-1.7,2.9-4.1,5.9-6.9,7.6c-7.5,4.5-15.8,6.6-24.7,6.3c-0.8,0-1.6-0.2-2.4-0.3
		c-0.4-0.1-0.7-0.3-1-1c9.6-0.2,18.3-2.4,27.2-7.5C301,444.9,293.1,445.7,285.2,446.4z M296.7,463.5c-0.1,0.4-0.2,0.8-0.3,1.2
		c-7.1-0.8-14.4-0.8-20.4-5.9C282.9,460.4,289.8,461.9,296.7,463.5z M291.1,471c-10.2-1.5-20.2-3.2-25.5-13.9
		C272.6,464.6,281.4,468.6,291.1,471z M263.5,446.5c-3.8,1.2-7.9,2.5-11.7,3.7C253.5,446.2,258.2,444.7,263.5,446.5z M249.5,465.8
		c-1.1,0.3-2.3,0.6-3.4,0.8c-1.3,0.2-2.6,0.2-4.3,0.3c0.4,1.5,0.7,2.4,0.8,3c-0.9,1.1-2.6,2.2-2.4,3c0.3,1.2,1.6,2.8,2.7,3
		c3.2,0.6,6.6,1,9.9,0.8c2-0.1,2-3.3,0.4-5.3c-1-1.2-1.5-2.6-2.3-4c1.7-0.8,3.4-1.8,5.2-2.4c1.8-0.6,3.9-0.5,5.6-1.3
		c2.5-1.1,3.4,0,3.9,1.9c-4.3,0.9-8.2,1.7-12.9,2.7c4.2,4,7.8,0.9,11.7,1.4c-1.7,1.2-3.1,2-4.3,3.1c-0.6,0.5-0.9,1.6-0.8,2.5
		c0,0.4,1.3,0.8,2,0.9c4.7,0.3,9.4,0.7,14,0.6c2.1,0,4.1-0.9,6.2-1.5c0.9-0.3,1.8-0.7,3-0.5c-3.9,4.1-9.3,5.1-14.3,6.7
		c-0.3-0.3-0.5-0.6-0.8-1c0.6-0.9,1.3-1.8,1.8-2.5h-6.4c1.2,0.7,1.8,1.1,2.5,1.5c-0.1,0.4-0.3,0.8-0.4,1.3
		c-14.7-1.4-29.4-2.8-44.1-4.3c-0.1-0.6-0.2-1.2-0.3-1.8c9-3.1,16.9-9.1,26.7-10.3C249.2,464.9,249.3,465.3,249.5,465.8z M249,458.4
		c-0.9,1-1.6,2.3-2.7,2.8c-5.9,2.8-11.9,5.5-17.9,8.2c-1.5,0.7-3,1.3-4.5,1.9c-4.1,1.7-5.4,4.4-5.4,9.1c0.5,28.8,0.4,57.6,0.6,86.4
		c0,1.3-0.3,2.6-0.4,3.9c-0.3,0-0.5,0-0.8,0c-0.2-2.7-0.5-5.5-0.4-8.2c0.1-25.4,0.2-50.9,0.3-76.3c0-2.8-0.6-5.7-0.2-8.5
		c0.4-2.1,1.5-5,3.1-5.9C229.8,466.9,239.1,462.6,249,458.4z M213.1,435.2c3.5-1.6,7.3-2.7,11.1-3.2c1.4-0.2,3.7,1.5,4.6,2.9
		c2.7,4.1,4.9,8.5,7.3,13c-6.4-0.8-13-1.5-19.9-2.4c4.8,5.7,12,5,18.3,6.7c0,0.4-0.1,0.8-0.1,1.2c-2.8-0.2-5.8-0.1-8.5-0.6
		c-6.6-1.2-12.3-3.7-15.2-10.4C209.3,439.2,210.3,436.5,213.1,435.2z M211.2,462.4c-5.6,4.6-14.8,2.5-18.2,11.2
		c-5.8-0.6-12.2-1.2-18.5-1.8c0-0.4,0-0.9,0-1.3c4.8-0.5,9.3-4.6,14.5-0.6c0.5,0.4,2.1,0.1,2.8-0.5
		C197.2,464.7,203.3,461.8,211.2,462.4z M323.4,235.5c-14.7,33.9-35.4,63.4-64,87c-15.4,12.7-33.3,20.1-52.9,23.5
		c-1.2,0.2-2.5,0-3.8,0c-0.2-0.3-0.3-0.7-0.5-1.1c1-1,2-2.2,3.1-3.1c10.6-8.1,21.6-15.6,31.6-24.4c28.3-24.8,52-53.4,67.3-88.2
		c1.6-3.7,3.5-5,7.6-4.5c4.9,0.5,9.9,0.1,15.7,0.1C326.1,228.7,324.9,232.1,323.4,235.5z M376.5,167.1
		c-11.8,22.3-29.6,36.2-55.2,38.9c-2.8,0.3-5.7-0.1-8.4-0.7c-0.8-0.2-2.1-2.2-1.9-3c2.1-6.5,4.6-12.9,7.1-19.7
		c4.8,5.1,10.5,8.3,17.6,6.7c5.1-1.2,9.3-4.1,12.2-8.7c5.7-8.6,4.3-16.1-4.2-22.6c5.3-2.7,10.6-5.4,16.1-8.3
		c1.7,1.5,3.9,3.2,5.7,5.4c0.6,0.8,0.3,2.6-0.1,3.8c-1.1,3.7-2.5,7.4-3.9,11.6c8.2,0.8,11.4-4.4,15-9.1c0.4,0.2,0.8,0.5,1.2,0.7
		C377.2,163.8,377.2,165.7,376.5,167.1z M376.7,152.2c-3.8,1.9-6.4-0.7-8.8-2.9c-1-0.9-1.6-3.1-1.2-4.5c0.2-0.9,2.3-1.9,3.6-2
		c3.3-0.3,6.6-0.1,10.4-0.1C380.8,147,380.5,150.4,376.7,152.2z M380,126.8c-4.9-0.9-8.9-7.6-7.7-13.3c1-5.1,6.9-8.9,11.8-7.8
		C382.7,112.8,381.4,119.8,380,126.8z M397.6,207.4c-8.5-10.3-9.1-22.4-8.1-34.8c0.4-4.5,1.2-9,1.8-13.5c0.4-0.1,0.8-0.3,1.1-0.4
		c1.3,4.4,6.6,6.4,5.7,12.4c-0.3,1.6,2.6,4.3,4.7,5.6c7.1,4.3,14.7,8,21.8,12.3c11,6.6,22.1,13.4,32.8,20.6c3.6,2.4,6.1,6.4,9,9.7
		c2.2,2.5,2.2,5.5,0.7,8.3c-3.7,7.4-8.9,13.5-16.6,17c-1.7,0.8-4.5,1-6,0.1C426.8,234.8,410.6,223.1,397.6,207.4z M414.9,400.7
		c0,0,0-0.1,0-0.1c0,0,0-0.1-0.1-0.1c-0.1-0.1-0.1-0.2-0.1-0.4c0-0.1,0-0.2,0.1-0.3c0.1-0.1,0.2-0.1,0.3-0.1c0.1,0,0.1,0,0.2,0
		c0.1,0,0.1,0,0.1,0.1c0.1,0.1,0.1,0.2,0.1,0.2c0,0,0,0,0,0c0,0,0,0.1,0,0.1c0,0,0,0.1,0.1,0.1c0.1,0.1,0.1,0.2,0.1,0.4
		c0,0.1,0,0.2-0.1,0.3c-0.1,0.1-0.2,0.1-0.3,0.1c-0.1,0-0.1,0-0.2,0c-0.1,0-0.1,0-0.1-0.1C414.9,400.8,414.9,400.7,414.9,400.7
		C414.9,400.7,414.9,400.7,414.9,400.7z M413.2,401.8c0,0.5-0.8,0.5-0.8,0c0-1-0.2-2-0.4-2.9c0-0.2,0.1-0.4,0.3-0.5
		c0.2-0.1,0.5,0.1,0.5,0.3C413,399.6,413.2,400.7,413.2,401.8z M412.3,414.1c-3.6-0.1-5.3-2.2-5.3-5.6c0-3.4,1.9-4.9,4.9-5.1
		c2.4-0.2,5.3,3.2,5.1,5.8C416.8,412.2,415,413.9,412.3,414.1z M411.6,474.8c-2-0.5-3.6-1.9-4.8-3.5c-1.3-1.6-2.3-3.4-3.1-5.3
		c-0.8-1.7-1.5-3.4-2-5.1c-1.6-5.2-1.4-10.9,0.2-16.1c0.1-0.5,0.9-0.3,0.8,0.2c-0.8,2.9-1.2,5.8-1.2,8.8c0,2.5,0.4,5.1,1.3,7.5
		c0.6,1.6,1.2,3.3,2,4.8c0.8,1.7,1.8,3.5,3,4.9c1.1,1.3,2.5,2.5,4.1,2.9C412.3,474.2,412.1,475,411.6,474.8z M444.3,460.1
		c-3.7,8-10.4,13.2-17.3,18.2c-0.6,0.5-2.6,0.2-3.2-0.5c-4.7-5.1-9.8-10-13.6-15.7c-3.4-5.1-2.3-10,1.3-12.7
		c3.5-2.6,8.2-1.8,12.7,2.3c0.7,0.6,1.4,1.3,2.1,2c1.9-1.5,3.5-2.9,5.1-4c3.4-2.2,6.9-3.1,10.5-0.3
		C444.8,451.7,446.1,456.1,444.3,460.1z M436.7,438.2c-5.1,0.3-10.4,0.5-14.8,0.8C425.5,435.9,431.9,435.4,436.7,438.2z M431.3,413
		c4,3.1,6.7,1.3,9-2.4c0.4,3.1-0.7,5.2-3,5.8C434.5,417,432.3,416.4,431.3,413z M478.7,468.3c-7.7-5.8-15.8-11.9-23.8-18
		c-0.8-0.6-1.7-1.6-1.8-2.5c-0.9-7.7-5.6-11.9-12.6-14.2c-0.6-0.2-1.1-0.6-2.6-1.5c2.7-0.7,4.4-1.1,6.1-1.5
		c12.9-3.1,22.8-10.5,30.4-21.3c2.2-3.1,2.8-6,0.6-9.7c-1.2-2-1.3-5.2-0.8-7.6c3.1-15.7-1.4-29-12.5-40.2c-0.3-0.3-0.5-0.6-0.8-0.9
		c-0.1-0.2-0.2-0.5-0.4-1c0.7-0.3,1.3-0.8,2-0.9c5.4-0.5,7.6-4.1,8.7-8.7c1.1-4.6-0.8-8.3-4.5-10.8c-8.6-5.7-17.7-5.8-26.9-1.9
		c-2.9,1.2-5.4,3-8.6,0.9c-0.7-0.5-2.2-0.3-3.1,0.1c-3.9,1.6-7,0-9.5-2.6c-1.3-1.4-2.5-3.6-2.5-5.4c-0.2-26.9-0.2-53.9-0.3-80.8
		v-4.3c17.4,10.4,34.5,20.6,52.2,31.2c-2.2,0.1-4.1,0.3-6.1,0.3c-12.2-0.2-19.6,9-16.7,20.8c1.7,7.1,5.6,12.9,10.8,17.7
		c5.7,5.3,11.7,10.3,17.8,15.2c1,0.8,3.3,1.4,4.2,0.8c11.7-6.7,23.3-13.6,30.8-25.4c5.1-8.1,4.9-17-0.2-22.9
		c-4-4.7-9.1-5.2-14.7-4.8c-1.9,0.1-3.9-0.4-5.8-0.6c0.1-0.4,0.1-0.8,0.2-1.2c10.6-4.1,21.1-8.2,32.1-12.4c0.1,1.3,0.3,2.4,0.3,3.6
		c-0.2,27.8-0.5,55.5-0.7,83.3c0,3-1.5,3.9-3.7,4.9c-12.5,5.7-21.7,14.6-25.4,28.1c-1.4,5.2-1.4,10.9-1.6,16.4
		c-0.1,3.8-0.5,7.2-3.4,10c-2.1,1.9-1.6,4.1-0.5,6.3c5.3,11,14,18.3,24.8,23.2c4.6,2.1,9.4,3.6,14.2,5.4
		C511.1,449.4,494.5,458.4,478.7,468.3z M456,398.3c0.2,0.8,0.4,1.8-0.1,2.6c-0.2,0.4-0.7,0.5-1.1,0.3c-0.5-0.2-0.8-0.8-1-1.2
		c-0.5-1-0.8-2.1-0.6-3.2c0-0.1,0.1-0.1,0.1-0.2c0.2-0.3,0.5-0.5,0.9-0.5C455.3,396.2,455.8,397.4,456,398.3z M454.7,393.2
		C454.7,393.1,454.7,393.1,454.7,393.2c0-0.4,0.4-0.8,0.6-1.1c0,0,0,0,0,0c0-0.1,0.1-0.1,0.1-0.2c0,0,0,0,0,0c0,0,0-0.1,0-0.1
		c0-0.1,0-0.1,0.1-0.2c0.1-0.2,0.1-0.5,0.3-0.7c0.2-0.3,0.6-0.2,0.7,0.1c0.1,0.2,0.1,0.4,0.1,0.7c0,0.8-0.5,2-1.5,1.9c0,0,0,0,0,0
		c0,0,0,0-0.1,0C454.9,393.5,454.7,393.4,454.7,393.2z M456.1,402.7c1-0.5,2.7-0.4,3.5,0.2c0.7,0.6,0.9,2.5,0.5,3.3
		c-2.1,3.9-5.6,3.8-8.2-0.2C453.5,404.7,454.6,403.4,456.1,402.7z M459.8,395.4c0.1-0.4,0.3-0.7,0.5-1c0.5-0.8,1.3-1.4,2.1-1.8
		c0.4-0.2,0.8,0.3,0.5,0.6c-0.4,0.4-0.6,1.1-0.9,1.6c-0.2,0.5-0.4,0.9-0.7,1.3c0,0.1-0.1,0.1-0.1,0.2c-0.1,0.1-0.1,0.2-0.2,0.3
		c-0.1,0.1-0.1,0.1-0.2,0.2c-0.1,0.1-0.2,0.1-0.3,0.1c-0.1,0-0.2,0-0.3-0.1c0,0-0.1-0.1-0.1-0.1c0,0,0,0,0,0c0,0,0,0,0-0.1
		c0,0,0,0-0.1-0.1C459.7,396.2,459.7,395.7,459.8,395.4z M452.3,391.8c-0.3,0.5-0.7,1-1,1.5c-0.1,0.3-0.3,0.5-0.4,0.8
		c-0.1,0.2-0.1,0.5-0.1,0.7c0,0.2-0.1,0.4-0.3,0.5c-0.2,0.1-0.5-0.1-0.5-0.3c-0.2-1.4,0.9-2.5,1.5-3.7
		C451.9,390.9,452.6,391.3,452.3,391.8z M522.6,443.5c5,0.4,10.4,0.9,15.1,1.3C534.2,447.8,527.1,447.3,522.6,443.5z M538.3,467
		c0.4,0.2,0.6,0.5,0.8,0.9c0.3,0.7,0.1,1.5-0.6,2c-0.7,0.5-1.7,0.1-2.3-0.4c-0.6-0.5-1.1-1.5-0.7-2.3c0.1-0.2,0.3-0.2,0.5-0.2
		c0,0,0-0.1,0.1-0.1c0.3-0.2,0.8-0.2,1.2-0.2C537.6,466.7,537.9,466.8,538.3,467z M533.7,468.4c0,0.3-0.1,0.7-0.2,1
		c-0.2,0.4-0.5,0.7-0.9,0.8c-0.4,0.2-0.9,0.3-1.3,0.1c-0.4-0.3-0.6-0.8-0.5-1.3c0.1-0.5,0.4-0.8,0.7-1.2c0.1-0.2,0.3-0.3,0.4-0.5
		c0.1-0.1,0.1-0.1,0.2-0.2c0,0,0,0,0,0c0,0,0,0,0,0c0,0,0-0.1,0.1-0.1c0.1-0.2,0.4-0.2,0.6-0.1c0,0,0,0,0.1,0c0.3,0,0.5,0.2,0.6,0.4
		C533.7,467.6,533.7,468,533.7,468.4z M528.5,468.9c-0.3,0.5-0.9,0.7-1.5,0.8c-0.2,0-0.4-0.2-0.4-0.4c0-0.4-0.1-0.8-0.1-1.2
		c0-0.4,0-0.8,0.1-1.2c0.1-0.2,0.3-0.3,0.5-0.3c0.2,0,0.3,0.2,0.3,0.4c0.1-0.1,0.2-0.1,0.4,0c0.3,0.1,0.5,0.3,0.7,0.6
		C528.7,468,528.8,468.6,528.5,468.9z M523.6,466.6c-0.2,0.8-0.6,1.5-1,2.2c-0.1,0.2-0.4,0.2-0.6,0.1c-0.1,0-0.1-0.1-0.2-0.2
		c-0.2,0.1-0.4,0.1-0.5-0.1c-0.2-0.1-0.1-0.4,0-0.6c0.1-0.1,0.1-0.2,0.2-0.2c0,0,0.1-0.1,0.1-0.1c0,0,0,0,0,0c0,0,0,0,0-0.1
		c0.1-0.2,0.2-0.3,0.3-0.5c0.2-0.4,0.4-0.7,0.6-1.1c0.1-0.2,0.4-0.2,0.6-0.1c0.1,0,0.1,0.1,0.2,0.2
		C523.5,466.2,523.6,466.4,523.6,466.6z M524.2,413.1c0.2,0.6,0.4,1.2,0.5,1.8c-1.7,0.5-3.6,1.7-5.2,1.5c-2.5-0.3-3.6-2.3-3.1-6.4
		C518.4,414.7,520.9,415.2,524.2,413.1z M505.5,406.3c-0.6,0.5-1.2,1.5-1.6,1.4c-1.3-0.3-2.7-0.8-3.7-1.7c-0.7-0.5-0.8-1.8-1.2-2.7
		c0.3-0.3,0.5-0.6,0.8-0.9c1,0.4,2.2,0.6,3,1.2C503.8,404.3,504.6,405.4,505.5,406.3z M520.3,467.1c0,0.2-0.1,0.3-0.2,0.5
		c-0.1,0.1-0.2,0.3-0.3,0.4c-0.1,0.1-0.3,0.2-0.5,0.3c-0.2,0.1-0.4,0-0.6-0.1c-0.2-0.1-0.3-0.3-0.4-0.5c-0.1-0.1-0.1-0.3-0.1-0.4
		c0-0.2-0.1-0.3-0.1-0.5c-0.1,0-0.1,0-0.2,0c-0.1,0-0.2-0.1-0.2-0.2c0-0.1,0-0.2,0-0.3c0.1-0.1,0.1-0.2,0.2-0.2
		c0.1,0,0.2-0.1,0.2-0.1c0.3-0.1,0.6-0.1,0.9-0.1c0.2,0,0.5,0.1,0.7,0.2c0.2,0.1,0.3,0.3,0.4,0.5
		C520.4,466.7,520.4,466.9,520.3,467.1z M523.9,524c-0.2,0.3-0.4,0.6-0.6,0.9c0,0.1-0.1,0.1-0.1,0.2c0,0-0.1,0-0.1,0.1
		c-0.4,0.5-1,0.9-1.6,1.2c-3.5,1.8-8.9,0.1-9.7-4c-0.1-0.5,0.7-0.7,0.8-0.2c0,0,0,0,0,0c1.6,1.1,3,2.8,5,3.1
		c2.2,0.4,3.9-1.2,5.9-1.9C523.8,523.2,524.1,523.7,523.9,524z M524.8,468.7c-0.1-0.1-0.3-0.2-0.4-0.2c-0.1,0-0.1-0.1-0.2-0.1
		c-0.2-0.1-0.3-0.2-0.3-0.4c0-0.2,0.1-0.4,0.2-0.6c0,0,0,0,0,0c-0.1-0.2,0-0.4,0.2-0.5c0.2-0.1,0.4,0,0.5,0.1c0,0,0,0,0,0
		c0.1,0,0.1,0,0.2,0.1c0.1,0,0.2,0.1,0.3,0.1c0.1,0.1,0.2,0.2,0.3,0.4c0.1,0.2,0,0.3,0,0.5c0,0.2-0.1,0.4-0.2,0.5
		C525.3,468.8,525,468.8,524.8,468.7C524.8,468.7,524.8,468.7,524.8,468.7z M531.9,528.3c-2.9,0.7-4.9-1.5-6.6-3.5
		c-0.3-0.4,0.2-1,0.6-0.6c0.4,0.5,0.9,1,1.3,1.5c0.2,0,0.3,0,0.4,0.2c1,1.5,3.4,1,4.8,0.6c2.1-0.5,3.8-2.1,5.8-2.9
		c0.3-0.1,0.6,0.3,0.5,0.6C537.3,526.5,534.5,527.7,531.9,528.3z M550,522.1c0.5-0.2,0.9,0.5,0.4,0.7c-1,2.1-2.8,3.9-5.1,4.6
		c-2.3,0.6-4.8,0-6.7-1.4c-0.3-0.2-0.2-0.8,0.2-0.8C542.9,525.7,546.6,523.9,550,522.1z M543.9,466.6
		C544,466.6,544,466.6,543.9,466.6c0.1,0,0.1-0.1,0.1-0.1c0.3-0.3,0.8-0.3,1.2-0.2c0.4,0.1,0.8,0.3,1.1,0.6c0.1,0.1,0.1,0.2,0.1,0.3
		c0.4,0.5,0.6,1.2,0.4,1.8c-0.1,0.5-0.5,1-1,1.2c-0.5,0.2-1.2,0.2-1.6-0.2c-0.4-0.4-0.5-1-0.5-1.5c0-0.3,0-0.5,0-0.8
		c0-0.1,0-0.1,0-0.2c0,0,0,0,0,0c0,0,0,0,0,0c0-0.1,0-0.2-0.1-0.3C543.6,466.9,543.7,466.6,543.9,466.6z M542.4,466.6
		c0.5,0.6,0.5,1.5,0.4,2.2c-0.1,0.6-0.4,1.4-1,1.7c-0.7,0.3-1.6,0-1.8-0.7c-0.2-0.7,0.2-1.5,0.6-2.1c0.3-0.6,0.8-1.1,1.2-1.6
		C542.1,465.6,542.6,466.2,542.4,466.6z M545.3,417.3c-3.3,0-4.9-1.7-5.3-4.8c-0.3-2.8,2.4-5.3,5.3-5.3c2.6,0,4.6,2.3,4.6,6.1
		C549.9,415.7,548.4,417.3,545.3,417.3z M551.8,340.6c-9.2,0.4-17.7,0.8-26.6,1.2c0-0.8-0.2-2.1-0.2-3.4c0.2-28.4,0.5-56.8,0.8-85.2
		c0-1.3,0.7-3,1.6-3.7c7.9-5.7,16-11.3,24.3-17V340.6z M571.8,193c-2.4,10.4-8.5,18.7-15.9,25.7c-7.7,7.3-16.3,13.6-24.6,20.2
		c-1.3,1.1-3,1.7-4.8,2.8c0-7.2,0-13.9,0-20.6c0-1.3,0.3-2.7,0.3-4c0-4.9-2.7-6.6-7.1-4.6c-1.9,0.9-3.2,1.2-5.3-0.3
		c-3.3-2.3-7.5,0.7-7.4,4.8c0.1,4.5,2.4,8.2,6,10.5c1.5,1,4.6-0.5,7.4-0.9c0.1,0.5,0.4,1.4,0.5,2.4c0.1,3.6,0.1,7.3,0,10.9
		c0,2.5,0.6,5-2.7,6.4c-3.2,1.4-5.9,2.6-9.3,0.3c-7.9-5.5-15.8-10.8-20.6-19.5c-3.5-6.4-3.7-10,1.9-14.6c7.9-6.4,16.2-12.5,25-17.6
		c11.6-6.8,23.8-12.5,35.8-18.6c0.6-0.3,1.2-0.6,1.9-0.8c4.6-1.4,10.3-4.5,13.8-1C571.1,179.1,573.5,185.7,571.8,193z M572.5,148.1
		c-0.9-3-1-5.3,3.1-5.6c2-0.1,4-0.6,5.6-0.8c1.7,0.1,3.4-0.3,4.3,0.4c1.3,1,2.7,2.6,2.9,4.1c0.2,2.7-4.8,6.3-8.6,6.7
		C575.9,153.4,573.6,151.7,572.5,148.1z M579.7,171.5c-1.6-2.5-2.4-5.5-3.5-8.3c0.5-0.4,1-0.9,1.6-1.3c0.9,0.8,1.8,1.6,2.7,2.4
		c2.7,2.5,5.3,5.2,8.3,7.4c2.4,1.8,4.1,0.4,3.5-2.3c-0.9-4.2-2.3-8.2-3.6-12.6c0-0.1,0.2-0.3,0.4-0.5c4-5.1,8.2-6.5,13.8-1.8
		c2.1,1.8,5.4,2.1,8.9,3.4c-5.8,4.2-9.4,9.1-7.8,15.7c1,3.9,2.8,7.9,5.3,11c3.7,4.5,9.1,6.8,14.8,5.1c4.9-1.5,9.4-4.5,14.3-7
		c2.1,6.4,4.6,13.6,6.7,20.8c0.2,0.6-1.6,2.6-2.5,2.6c-6.3-0.1-12.8,0.4-18.7-1.2C604.8,199.9,590.5,187.9,579.7,171.5z
		 M738.4,345.4c-23.8-5.8-42.7-19.4-58.9-37c-20.9-22.9-36.5-49.2-48-77.9c-1.9-4.7-1.6-5,3.3-5c3.5,0,7.1,0.2,10.5-0.4
		c3.5-0.7,4.7,0.7,6,3.6c8.6,19.1,19.4,36.9,31.9,53.7c17.5,23.5,38.5,43.5,62.4,60.4c1.2,0.8,2.2,1.9,3.2,2.8
		c-0.2,0.6-0.4,1.1-0.5,1.7C744.9,346.6,741.6,346.2,738.4,345.4z M748.9,453.3c-0.2,3.3-0.3,6.1-0.4,8.9c-0.4,0.1-0.7,0.2-1.1,0.3
		c-1.3-2.3-2.5-4.5-4-7.2C745.3,454.6,746.8,454.1,748.9,453.3z M709.6,477.9c0.2-2.6,3.7-4,5.3-2.2c2.4,2.7,4.4,5.6,7,9
		c-4.2,1-7.9,1.9-12.4,3C709.6,484,709.4,481,709.6,477.9z M719.6,460.6c-3.7,4.2-3.8,10.2-9.4,12.9
		C708.6,462.3,708.4,462,719.6,460.6z M717.1,473.6c-0.5-1,0.1-2.5,0.2-3.8c1,0.6,2.1,1.2,2.9,2c0.7,0.7,1,1.8,1.6,2.9
		c1.3-1.4,2.4-2.6,3.5-3.8c0.3,0.2,0.7,0.4,1,0.6c-1.3,3.1-2.5,6.1-4.2,10.1C720.1,478.5,718.4,476.2,717.1,473.6z M719.7,462.6
		c0.6-0.3,1.2-0.6,1.7-0.9c1.6,2.1,3.1,4.2,4.7,6.3c-0.2,0.4-0.4,0.9-0.6,1.3c-1.2-0.2-3.1,0-3.6-0.8
		C720.9,466.8,720.4,464.6,719.7,462.6z M723.9,458.8c5.3-1.1,10-2,15.6-3.1c-1.9,3.8-3.2,7.1-5.1,9.9c-2.8,3.9-5.6,3.5-7.6-0.7
		C725.8,463.1,725,461.3,723.9,458.8z M741.4,456.8c2.2,3.1,4.3,5.3,1.5,8.1c-0.6,0.6-2.6,0.9-3,0.5
		C737.5,462.4,740.3,460.2,741.4,456.8z M747.4,464.9v9.9c-2-2.7-3.3-4.3-4.8-6.4C744.3,467.1,745.6,466.2,747.4,464.9z M734,442
		c3.7-5.4,4-11.6,2.6-17.5c-1.2-5-1-9.5,0.3-14.2c1.4-5.2,2.7-10.4,4.1-15.6c0.2-0.8,0.7-1.5,2-2.2c0,1.3,0,2.5,0,3.8
		c0.5,16.1,1,32.3,1.7,48.4c0.2,5.3-1.1,6.5-6.4,5.1c-9.9-2.7-19.7-5.3-29.6-7.8c-2.2-0.6-4.6-0.8-6.9-1.2c0.1-0.5,0.1-0.9,0.2-1.4
		c4.9-1.3,9.7-0.5,14.4,0.9c3.5,1.1,6.9,2.2,10.2,3.8C730.2,445.9,732.2,444.6,734,442z M721.7,425.8c-8-0.3-13.6,4.7-20.4,9.6
		C704.9,427.8,715.3,423.3,721.7,425.8z M654.7,424.1c-0.2-0.4-0.5-0.9-0.7-1.3c0.8-1.4,1.3-3.2,2.5-4.3c4.4-4.2,9.8-4.1,15.1-2.8
		c5.8,1.4,12.6,8.2,14.8,14.5C677.3,421.1,667.3,416.6,654.7,424.1z M667.4,566.1c-0.1,0.4-0.3,0.7-0.6,1.7c-4.4-2.1-8.6-4-12.7-6
		c-0.8-0.4-1.9-1.5-1.9-2.3c-0.2-4.8-0.1-9.5-0.1-14.3c0.5-0.2,0.9-0.5,1.4-0.7c3,3.1,5.9,6.4,9.2,9.2
		C666.7,557,668.1,561.1,667.4,566.1z M666.8,551.9c-4.6-4.4-9.8-8.4-13.5-13.5c-1.7-2.4-0.3-7-0.3-10.7c0.4-0.2,0.8-0.3,1.2-0.5
		c4.2,4.1,9.1,7.7,12.3,12.5c2,3,1.2,7.8,1.6,11.7C667.7,551.6,667.3,551.8,666.8,551.9z M668.4,522.5c0,3.9-0.3,7.7-0.5,12.7
		c-5.3-4.9-9.9-9.1-14.4-13.4c-0.4-0.4-0.6-1.2-0.6-1.8c0-5.4,0-10.9,0-16.3c0.4-0.2,0.8-0.4,1.2-0.5c4.5,4.6,9.3,9.1,13.5,14
		C668.7,518.2,668.5,520.6,668.4,522.5z M668.6,511.5c-1.3-0.8-2.2-1.2-2.8-1.8c-3.3-3.3-6.6-6.7-10-10c-2.6-2.5-3.5-5.3-2.3-9.5
		c4.7,2.1,9.2,3.9,13.5,6c0.8,0.4,1.4,1.7,1.5,2.6C668.7,502.8,668.6,506.8,668.6,511.5z M667.3,490.2c-4-1.8-8.1-3.5-12.1-5.4
		c-3.4-1.6-2.2-4.3-1.8-7.8c4.9,1.9,9.7,3.3,13.8,5.8c1.3,0.8,1,4.4,1.4,6.7C668.3,489.8,667.8,490,667.3,490.2z M654.8,471.1
		c-1.2-0.7-1.2-3.6-1.7-5.5c0.3-0.3,0.7-0.6,1-0.8c4.4,1.7,9,3,13.1,5.3c1.3,0.7,1.2,4,2,7.2C663.5,474.9,658.9,473.4,654.8,471.1z
		 M660.4,460.5c5.9-2.5,10.9,0.7,17.2,2.7C670.2,466.5,665.5,462.4,660.4,460.5z M680.5,480.9c1.8-0.5,3.6-0.9,6.5-1.6
		c0,2.9,0.2,5.3-0.1,7.6c-0.1,0.9-1.1,2.3-1.9,2.5c-3.8,1-7.8,1.7-11.5,2.5c-0.4-0.6-0.6-0.8-0.6-1
		C672.9,482.8,672.9,482.8,680.5,480.9z M682.3,474.8c-2.7,0.8-5.4,1.5-8.2,2.2c-0.1,0-0.3,0-0.5-0.1c-0.1,0-0.2-0.1-0.3-0.1
		c-0.2-1.1-0.3-1.9-0.4-2.7c0,0,0,0,0,0c0,0,0-0.1,0-0.1c-0.1-0.6-0.1-1.2-0.1-1.6c0-0.1,0-0.1,0-0.2c0,0,0,0,0,0
		c0-0.3,0.1-0.6,0.2-0.9c0.3-0.8,0.8-1.2,1.9-1.7c0.2-0.1,0.4-0.2,0.7-0.3c0.5-0.2,1.1-0.4,1.7-0.6c0.3-0.1,0.7-0.2,1.1-0.3
		c2.2-0.7,4.4-1.3,6.6-1.9c0.4-0.1,0.8,0,1.4,0C688.2,472.5,687.9,473.2,682.3,474.8z M686.2,564.6c0,0.9-1.1,2.4-1.9,2.7
		c-3.3,1-6.8,1.6-10.2,2.2c-0.6,0.1-1.7-0.3-2-0.8c-1.3-1.8,0.5-9.3,2.4-10.5c3.7-2.4,7.3-4.7,11.8-7.6
		C686.2,556.1,686.4,560.4,686.2,564.6z M686.6,544.5c0,0.7-0.7,1.5-1.3,1.9c-4,2.6-8.1,5.2-13.1,8.3c0-4.5-0.1-8.1,0.1-11.7
		c0-0.8,0.4-2,1.1-2.4c4-2.8,8.2-5.5,13.3-9C686.7,536.7,686.8,540.6,686.6,544.5z M687.2,524.5c0,0.9-0.6,2.1-1.4,2.6
		c-4.2,2.9-8.4,5.5-13.1,8.6c0-5.5,0-10.6,0-15.6c0-0.6,0.4-1.4,0.9-1.7c4.2-2.8,8.4-5.5,13.7-8.8
		C687.3,515.4,687.3,520,687.2,524.5z M681.8,507.9c-2.7,1.9-5.4,3.9-8.7,6.2c0-5.4-0.1-9.9,0.1-14.5c0-0.9,0.8-2.3,1.4-2.5
		c4-1,8-1.7,12.1-2.4C688.4,502.5,687.9,503.8,681.8,507.9z M677.7,454.9c4.1-2.6,8.1-5.2,12.2-7.7c0.6-0.3,1.6-0.4,2.3-0.1
		c6.9,2.9,13.7,5.9,21.6,9.3C701.1,459.7,689.3,464,677.7,454.9z M709.5,526.4c-3-11.1,2.7-17.8,9.4-24c2.4-2.2,4.1-1.4,4.8,1.8
		c0.3,1.3,0.5,2.9,0,4C720.4,515.2,715.9,521.1,709.5,526.4z M709.2,543.9c-2.8-8.5-0.6-13.3,9.3-19.2
		C719.9,534.8,718.2,538.4,709.2,543.9z M708.9,561.6c-2.8-9.4-1-12.9,10.2-20.7c2.8,5.1,5.6,10.2,9,16.2
		C721.4,558.8,715.1,560.2,708.9,561.6z M727.7,543.7c-2.4-2.5-2.7-4.3-0.4-5.5c0.7-0.4,2,0.3,3,0.5
		C729.5,540.2,728.7,541.8,727.7,543.7z M730.1,526.4c-0.5,0.2-1.1,0.2-1.6,0c-0.4-0.2-0.7-0.5-1-0.8c-0.8-1-0.9-1.8-0.5-2.4
		c1.1-1.9,5.9-1.9,5.1,1.5C731.8,525.5,731,526.2,730.1,526.4z M736.4,547.4c-0.6,1.1-1.8,1.8-2.8,2.6c-0.8-0.9-2.3-2.2-2.1-2.7
		c0.5-1.1,1.9-1.8,3.5-3.3C735.7,545.6,736.7,546.8,736.4,547.4z M741.3,532.4c-1-0.2-2.2-1.6-2.3-2.6c-0.1-0.7,1.4-2,2.4-2.2
		c1.6-0.4,2.9,2.5,3.4,3.5C743.6,531.5,742.3,532.6,741.3,532.4z M743.2,499.3c-1.2,1.3-0.9,4-1.3,6.1c-2.3-1-4.6-2.4-7.1-2.9
		c-1.3-0.3-3.5,0.3-4.2,1.3c-0.6,0.8,0,3.3,1,4.1c2.8,2.4,5.9,4.4,9.1,6.6c-12.4-0.5-12.4-0.5-19,3.7c0.6-0.7,1-1.7,1.8-2.2
		c3.7-2.5,4.8-6.3,4.4-10.2c-0.2-2.3-1.6-5.1-3.3-6.3c-1.2-0.8-4,0.5-6.1,1.1c-0.9,0.3-1.7,1.1-2.5,1.6c-0.2-0.2-0.3-0.3-0.5-0.5
		c1-1.3,2-2.6,3-3.9c-0.3-0.2-0.6-0.4-0.9-0.6c-2.6,4.1-5.2,8.2-8.2,12.8c0-5.6-0.1-10.7,0.1-15.8c0-0.6,1.2-1.4,2-1.6
		c11-2.5,22-4.9,33.7-7.5C744.8,490.3,747.1,494.9,743.2,499.3z M745.5,480c-7.1,1.6-14.3,3-22.5,4.6c2-4.7,3.5-8.6,5.4-12.2
		c1.8-3.4,5.6-3.3,7.7,0c1.4,2.2,3,4.3,4.6,6.5c0.5-0.3,1-0.6,1.5-0.9c-2.1-3.6-4.2-7.1-6.3-10.7c0.4-0.3,0.8-0.6,1.2-0.9
		c1.4,1.2,2.9,2.4,4.1,3.8c1.8,2,3.6,4,4.9,6.3C746.6,477.2,746,479.9,745.5,480z M750.2,550.6c-1.4-2.2-2.7-3.4-2.9-4.7
		c-0.1-0.8,1.5-2.5,2.4-2.5c1.1,0,3.2,1.4,3.1,1.9C752.6,546.8,751.5,548.2,750.2,550.6z M754.8,529c0,0.1,0,0.2-0.1,0.3
		c-0.2,0.7-0.6,1.5-1.2,1.9c-0.6,0.5-1.5,0.6-2.2,0.4c-0.4-0.2-0.7-0.4-1-0.7c-0.8-0.8-1.5-2.2-1.4-3.3c1.2,1,2.4,2,3.7,3
		c0.4-0.5,0.8-1.1,1.2-1.6c-0.4,0.5-0.8,1.1-1.2,1.6c-1.2-1-2.4-2-3.7-3c0.1-0.9,0.6-1.5,2-1.6c0,0,0.1,0,0.1,0c1,0.3,1.9,0.7,2.9,1
		C754.5,527.5,754.9,528.2,754.8,529z M753.2,181c-5.8-9.2-13.8-14.7-24.1-16.8c2.7-3.8,10.5-4.3,13.5-1.5c3.2,3,6.5,5.9,9.9,8.8
		C755.9,174.3,756.1,175.7,753.2,181z M757.9,113.2c-6.4-2.1-12-3.9-18.1-5.9c6.4-3.7,12.4-7.1,18.1-10.4V113.2z M752.1,90.7
		c-6.7,7.1-16.2,9.2-23.8,5.4c-4.5-2.3-5.1-4.2-2-8.1c2-2.5,4.3-4.8,6.5-7.3c0.1,0.5,0.2,0.9,0.3,1.3c1.7,0.8,4.7,2.5,4.9,2.1
		c1.5-2,3.4-4.5,3.3-6.8c-0.1-3-2.5-5.5-6-5.3c-5.3,0.2-8.8,3.6-11.8,7.5c-1.7,2.2-3.1,4.6-4.7,6.9c-0.5,0-1-0.1-1.5-0.1
		c-0.2-3.4-0.8-6.9-0.5-10.3c1.5-15.2,18.5-26.5,32.7-17.8C760.2,64.8,761.5,80.8,752.1,90.7z M768,550.4c-0.9-0.1-2.1-1.8-2.4-2.9
		c-0.1-0.6,1.5-2.4,2.2-2.3c1.2,0.2,2.2,1.3,4,2.5C770.1,548.9,769,550.4,768,550.4z M772.1,532.5c-0.1,0.6-2.5,3-2.4,3.3
		c-1-2-1.9-3.1-2.1-4.3c-0.1-0.6,1.3-2.1,1.6-2C770.6,530,772.5,530.9,772.1,532.5z M776.1,544.5c-4.1-4.1-1.8-5.1,1.8-5.6
		C777.4,540.5,776.9,542.2,776.1,544.5z M780.7,525.4c-0.1,0.1-0.1,0.2-0.2,0.2c-0.9,0.9-2.4,1.3-3.6,0.7c-0.9-0.5-1.4-1.6-1.5-2.6
		c-0.1-1,0.3-2.1,0.7-3c0.1-0.3,0.3-0.7,0.6-1c0.4-0.4,1-0.6,1.6-0.7C782.3,517.9,782.8,523,780.7,525.4z"/>
</g>
<path fill="#C49A6C" d="M771.5,595.6H176c-5.8,0-10.4,4.7-10.4,10.4s4.7,10.4,10.4,10.4h595.4c5.8,0,10.4-4.7,10.4-10.4
	S777.2,595.6,771.5,595.6z M202.1,611h-25.8v-9.9h25.8V611z M771.2,611h-25.8v-9.9h25.8V611z"/>
<path fill="#C49A6C" d="M794.5,623.5H162.7c-10.3,0-18.7,8.4-18.7,18.7v116.2c0,10.3,8.4,18.7,18.7,18.7h631.7
	c10.3,0,18.7-8.4,18.7-18.7V642.2C813.1,631.9,804.8,623.5,794.5,623.5z M181.1,648.1v-9.9h25.8v9.9H181.1z M776.1,648.1h-25.8v-9.9
	h25.8V648.1z"/>
</svg>
